<?xml version="1.0" standalone="no"?>
<!DOCTYPE svg PUBLIC "-//W3C//DTD SVG 1.1//EN" "http://www.w3.org/Graphics/SVG/1.1/DTD/svg11.dtd" >
<svg xmlns="http://www.w3.org/2000/svg" xmlns:xlink="http://www.w3.org/1999/xlink" version="1.1">
<metadata>
Created by FontForge 20190801 at Mon Feb  8 12:17:33 2021
 By root
Roman Jokiranta
</metadata>
<defs>
<font id="Paramount-Regular" horiz-adv-x="242" >
  <font-face 
    font-family="Paramount"
    font-weight="400"
    font-stretch="normal"
    units-per-em="1000"
    panose-1="0 0 5 0 0 0 0 0 0 0"
    ascent="800"
    descent="-200"
    x-height="451"
    cap-height="728"
    bbox="-306 -455.286 1385 1046"
    underline-thickness="50"
    underline-position="-100"
    unicode-range="U+0001-206F"
  />
<missing-glyph horiz-adv-x="364" 
d="M33 0v666h265v-666h-265zM66 33h199v600h-199v-600z" />
    <glyph glyph-name=".notdef" horiz-adv-x="364" 
d="M33 0v666h265v-666h-265zM66 33h199v600h-199v-600z" />
    <glyph glyph-name="uni0000" 
 />
    <glyph glyph-name="uni0000" 
 />
    <glyph glyph-name="uni000D" unicode="&#xd;" 
 />
    <glyph glyph-name="uni0001" 
 />
    <glyph glyph-name="uni0002" 
 />
    <glyph glyph-name="uni0003" 
 />
    <glyph glyph-name="uni0004" 
 />
    <glyph glyph-name="uni0005" 
 />
    <glyph glyph-name="uni0006" 
 />
    <glyph glyph-name="uni0007" 
 />
    <glyph glyph-name="uni0008" 
 />
    <glyph glyph-name="uni0009" unicode="&#x9;" 
 />
    <glyph glyph-name="uni000A" unicode="&#xa;" 
 />
    <glyph glyph-name="uni000B" 
 />
    <glyph glyph-name="uni000C" 
 />
    <glyph glyph-name="uni000E" 
 />
    <glyph glyph-name="uni000F" 
 />
    <glyph glyph-name="uni0010" 
 />
    <glyph glyph-name="uni0011" 
 />
    <glyph glyph-name="uni0012" 
 />
    <glyph glyph-name="uni0013" 
 />
    <glyph glyph-name="uni0014" 
 />
    <glyph glyph-name="uni0015" 
 />
    <glyph glyph-name="uni0016" 
 />
    <glyph glyph-name="uni0017" 
 />
    <glyph glyph-name="uni0018" 
 />
    <glyph glyph-name="uni0019" 
 />
    <glyph glyph-name="uni001A" 
 />
    <glyph glyph-name="uni001B" 
 />
    <glyph glyph-name="uni001C" 
 />
    <glyph glyph-name="uni001D" 
 />
    <glyph glyph-name="uni001E" 
 />
    <glyph glyph-name="uni001F" 
 />
    <glyph glyph-name="space" unicode=" " 
 />
    <glyph glyph-name="exclam" unicode="!" horiz-adv-x="313" 
d="M89 180l84 491q1 9 8 14t16 6l115 8h3q14 0 14 -12q0 -5 -1 -8l-146 -499q-6 -20 -25 -20h-53q-18 0 -15 20zM94 0q-11 0 -20 5t-13 13q-5 8 -5 20q0 14 7.5 27.5t19.5 21.5q17 11 34 11q24 0 33 -18q6 -9 6 -20q0 -13 -7.5 -26t-20.5 -23q-17 -11 -34 -11z" />
    <glyph glyph-name="quotedbl" unicode="&#x22;" horiz-adv-x="235" 
d="M154 551q-19 0 -14 19l23 101q5 19 24 21l46 5h4q18 0 13 -18l-23 -101q-4 -20 -24 -21l-46 -6h-3zM41 536q-19 0 -14 19l23 101q5 20 24 21l46 5h4q8 0 11.5 -4.5t1.5 -13.5l-24 -101q-5 -20 -23 -21l-47 -6h-2z" />
    <glyph glyph-name="numbersign" unicode="#" horiz-adv-x="730" 
d="M139 20l47 190h-132q-17 0 -17 12q0 3 2 9l13 45q6 19 24 19h130l27 111h-141q-19 0 -15 21l14 45q2 9 9 14t16 5h139l39 160q5 20 24 21l49 6h2q9 0 13 -5t2 -14l-41 -168l87 -1l42 181q4 19 24 21l50 6h2q19 0 14 -19l-43 -189h157q20 0 15 -21l-13 -44q-3 -9 -10 -14
t-16 -5h-153l-26 -112h163q17 0 17 -12q0 -3 -2 -9l-13 -44q-6 -19 -24 -19h-160l-44 -190q-5 -20 -25 -20h-51q-20 0 -15 20l45 190h-88l-46 -190q-5 -20 -25 -20h-51q-20 0 -15 20zM410 406h-87l-27 -111l87 -1z" />
    <glyph glyph-name="dollar" unicode="$" horiz-adv-x="559" 
d="M130 -79l2 12l15 67q-82 2 -136 39.5t-54 108.5q0 9 2 27q1 17 20 19l90 6h3q18 0 16 -21q-2 -43 20 -70t57 -34l54 236q-20 20 -43 40q-54 49 -81 85.5t-27 81.5q0 56 35 100.5t91.5 71.5t119.5 35l14 59q2 8 8.5 12.5t14.5 5.5l39 5h3q8 0 8 -9l-2 -12l-14 -59
q70 -5 114.5 -38.5t44.5 -93.5q0 -7 -2 -23q-1 -17 -20 -19l-90 -5h-2q-9 0 -14 5t-4 15q2 36 -9.5 58t-33.5 32l-50 -218l32 -27q38 -32 61 -56t39 -54.5t16 -67.5q0 -61 -35 -109.5t-91.5 -79.5t-121.5 -41l-18 -78q-4 -17 -22 -17h-39q-10 0 -10 11zM298 655
q-25 -11 -41.5 -33.5t-16.5 -50.5q0 -35 23 -70zM277.5 114.5q15.5 21.5 15.5 51.5q0 41 -20 75l-36 -159q25 11 40.5 32.5z" />
    <glyph glyph-name="percent" unicode="%" horiz-adv-x="578" 
d="M-39 17q-9 3 -9 11q0 6 8 16l523 644q13 14 29 11l46 -10q11 -3 11 -11q0 -7 -7 -15l-527 -652q-9 -11 -20 -11q-3 0 -9 2zM68 452q-26 26 -26 66q0 36 20 72.5t57 59.5t84 23q51 0 77 -26.5t26 -67.5q0 -36 -19.5 -71.5t-56 -58.5t-84.5 -23q-52 0 -78 26zM188.5 481
q17.5 20 27.5 49.5t10 55.5q0 23 -8.5 37.5t-25.5 14.5q-19 0 -36 -20t-26.5 -50t-9.5 -57q0 -22 7.5 -36t23.5 -14q20 0 37.5 20zM233 39.5q-26 26.5 -26 66.5q0 36 20 72t57 59t84 23q51 0 77.5 -26.5t26.5 -67.5q0 -36 -20 -71.5t-56.5 -58.5t-84.5 -23q-52 0 -78 26.5z
M353.5 68q17.5 20 27.5 49.5t10 55.5q0 23 -8.5 37.5t-25.5 14.5q-19 0 -36 -20t-26.5 -50t-9.5 -57q0 -22 7.5 -36t23.5 -14q20 0 37.5 20z" />
    <glyph glyph-name="ampersand" unicode="&#x26;" horiz-adv-x="608" 
d="M304 45q-80 -45 -164 -45t-127.5 43t-43.5 110q0 71 48 141t130 108q-8 54 -8 93q0 74 27.5 117.5t64.5 60.5t72 17q53 0 79.5 -23t26.5 -61q0 -48 -39 -106.5t-104 -101.5q15 -63 41.5 -122.5t60.5 -105.5q23 37 23 86q0 25 -5 45v6q0 14 15 21l18 7q10 5 16 5
q7 0 10 -7q9 -20 9 -46q0 -35 -12.5 -78t-35.5 -85q32 -31 65 -44q11 -5 11 -13q0 -5 -5 -13l-45 -67q-11 -17 -27 -14q-49 9 -101 72zM315 589q0 22 -7 36.5t-20 14.5q-18 0 -30 -32t-9 -91q0 -24 3 -50q67 54 63 122zM271 90q-32 48 -59 109.5t-46 124.5q-48 -53 -48 -122
q0 -52 28 -86.5t75 -34.5q26 0 50 9z" />
    <glyph glyph-name="quotesingle" unicode="'" horiz-adv-x="125" 
d="M41 536q-19 0 -14 19l26 116q4 20 24 21l46 5h4q18 0 13 -18l-27 -116q-5 -20 -23 -21l-47 -6h-2z" />
    <glyph glyph-name="parenleft" unicode="(" horiz-adv-x="348" 
d="M81.5 87q-35.5 63 -35.5 152q0 94 37.5 192.5t104.5 171t153 92.5q3 1 7 1q11 0 11 -11l-2 -9l-14 -40q-4 -16 -22 -22q-53 -21 -95.5 -81t-66.5 -138.5t-24 -149.5q0 -59 17 -101t52 -58q15 -7 12 -22l-4 -39q-1 -11 -8 -16.5t-17 -2.5q-70 18 -105.5 81z" />
    <glyph glyph-name="parenright" unicode=")" horiz-adv-x="348" 
d="M-1 5q-12 0 -12 12l2 8l14 40q6 15 22 22q53 21 95.5 81t66.5 138.5t24 149.5q0 59 -17 101t-52 58q-13 6 -12 22l4 39q1 11 8.5 16.5t17.5 2.5q70 -18 105.5 -80.5t35.5 -151.5q0 -94 -37.5 -192.5t-104.5 -171.5t-153 -93q-3 -1 -7 -1z" />
    <glyph glyph-name="asterisk" unicode="*" horiz-adv-x="346" 
d="M180 463q-9 0 -12.5 5.5t-1.5 14.5l8 29l-28 -16q-7 -4 -13 -4q-8 0 -14 9l-14 26q-2 6 -2 9q0 12 13 19l52 30l-34 27q-7 7 -7 13t7 15l26 27q9 9 17 9q5 0 12 -5l19 -16l4 25q3 20 23 20h36q10 0 14 -5.5t2 -15.5l-6 -24l26 16q7 4 13 4q9 0 15 -10l12 -27q1 -3 1 -8
q0 -13 -14 -20l-44 -25l34 -29q6 -6 6 -12q0 -8 -8 -16l-27 -28q-7 -9 -16 -9q-6 0 -13 5l-18 16l-5 -28q-3 -20 -22 -20l-39 -1h-2z" />
    <glyph glyph-name="plus" unicode="+" horiz-adv-x="561" 
d="M495 330q0 -5 -1 -8l-17 -45q-6 -19 -25 -19h-189l-44 -190q-2 -10 -9 -15t-16 -3l-44 5q-19 1 -14 21l42 182h-182q-15 0 -15 12q0 3 2 9l15 45q6 19 26 19h173l44 189q2 10 9 15t17 4l43 -6q19 -1 14 -21l-42 -181h198q15 0 15 -13z" />
    <glyph glyph-name="comma" unicode="," horiz-adv-x="164" 
d="M-3 -67q-11 7 -4 17q15 23 30 50q-21 3 -28 18q-6 11 -6 23q0 14 7.5 27.5t21.5 22.5q18 12 36 12q24 0 35 -19q6 -9 6 -21t-4 -21q-7 -16 -46 -74l-21 -32q-8 -13 -20 -7z" />
    <glyph glyph-name="hyphen" unicode="-" horiz-adv-x="511" 
d="M42 270q0 3 2 9l15 45q6 19 26 19h346q15 0 15 -13q0 -5 -1 -8l-17 -45q-6 -19 -25 -19h-346q-15 0 -15 12z" />
    <glyph glyph-name="period" unicode="." horiz-adv-x="158" 
d="M27 -1q-10 0 -19.5 5t-14.5 13q-5 10 -5 19q0 14 8 28t20 22q15 11 34 11q23 0 33 -18q6 -9 6 -20q0 -13 -7.5 -26t-20.5 -23q-17 -11 -34 -11z" />
    <glyph glyph-name="slash" unicode="/" horiz-adv-x="360" 
d="M-59 11q0 5 4 12l339 651q11 17 26 18l50 5h4q13 0 13 -9q0 -2 -4 -12l-341 -659q-7 -17 -27 -17h-50q-14 0 -14 11z" />
    <glyph glyph-name="zero" unicode="0" horiz-adv-x="600" 
d="M33 70.5q-44 71.5 -44 176.5q0 56 13 113q19 80 65 158.5t114.5 130t148.5 51.5q93 1 138 -67.5t45 -169.5q0 -54 -12 -104q-18 -80 -65.5 -163.5t-117.5 -139.5t-150 -56q-91 -1 -135 70.5zM255.5 141.5q31.5 41.5 56 102t37.5 116.5q15 65 15 126q0 51 -13.5 82.5
t-43.5 31.5q-48 0 -90 -74t-62 -162q-17 -81 -17 -147q0 -53 12.5 -85t40.5 -32q33 0 64.5 41.5z" />
    <glyph glyph-name="one" unicode="1" horiz-adv-x="425" 
d="M93 20l105 455l-95 -100q-8 -8 -16 -8q-7 0 -11 6l-51 54q-5 7 -5 11q0 8 8 14l214 233q11 15 27 15h116q20 0 15 -20l-154 -660q-5 -20 -25 -20h-113q-20 0 -15 20z" />
    <glyph glyph-name="two" unicode="2" horiz-adv-x="492" 
d="M-60 20l15 66q4 14 18 24q59 39 120 99.5t106.5 128.5t58.5 127q6 29 6 50q0 37 -14 57.5t-36 20.5t-44.5 -23.5t-36.5 -67.5q-6 -20 -25 -19l-58 6q-20 2 -14 21q18 61 53 104t79 64.5t89 21.5q43 0 79.5 -20.5t58 -60.5t21.5 -96q0 -35 -9 -76q-20 -83 -97.5 -173
t-179.5 -174h176q9 0 13.5 -5t3.5 -14l-8 -60q-2 -10 -8 -15.5t-16 -5.5h-336q-20 0 -15 20z" />
    <glyph glyph-name="three" unicode="3" horiz-adv-x="510" 
d="M-37 173q6 3 20 6l63 12h3q14 0 12 -20q-2 -34 16.5 -53.5t46.5 -19.5q29 0 55 19.5t37 55.5q10 35 10 58q0 60 -63 69q-10 2 -14 6t-4 13l5 62q3 19 24 22q87 8 110 114q3 14 3 24q0 30 -17 46.5t-42 16.5q-30 0 -54 -24t-26 -66q0 -10 -7 -16t-18 -7l-62 -5h-3
q-17 0 -14 17q4 63 36 107.5t80 67t100 22.5q47 0 87.5 -18t65 -53.5t24.5 -84.5q0 -21 -6 -47q-13 -54 -55 -96.5t-96 -46.5q45 -10 69.5 -45.5t24.5 -86.5q0 -27 -8 -59q-13 -51 -51 -87.5t-88 -55t-102 -18.5q-73 0 -122 34.5t-49 97.5q0 8 2 26q1 10 7 13z" />
    <glyph glyph-name="four" unicode="4" horiz-adv-x="600" 
d="M195 20l33 145h-244q-18 0 -17 19l7 54q1 13 10 26l325 413q10 12 27 14l148 8h3q18 0 13 -20l-95 -414h57q15 0 15 -12q0 -3 -2 -9l-19 -60q-6 -19 -26 -19h-49l-33 -145q-5 -20 -25 -20h-113q-20 0 -15 20zM252 265l56 244l-179 -244h123z" />
    <glyph glyph-name="five" unicode="5" horiz-adv-x="532" 
d="M7 46q-47 46 -47 114q0 9 2 27q3 22 25 19l79 -12q16 -1 16 -20q-3 -37 14 -57.5t43 -20.5q33 0 64.5 30t41.5 82q8 32 8 60q0 40 -17 64t-56 24q-22 0 -58 -11q-14 -4 -30 -4q-26 0 -44.5 9.5t-18.5 30.5q0 7 1 11l66 288q5 20 25 20h307q15 0 15 -13q0 -5 -1 -8
l-19 -59q-6 -19 -26 -19h-191l-34 -150q39 9 71 9q82 0 123 -51t41 -130q0 -36 -9 -74q-13 -56 -49 -103t-89.5 -74.5t-117.5 -27.5q-88 0 -135 46z" />
    <glyph glyph-name="six" unicode="6" horiz-adv-x="550" 
d="M23.5 54q-44.5 56 -44.5 146q0 12 2 36q8 97 45 204t107 183t170 77q77 1 119.5 -39t45.5 -100q0 -10 -6 -16t-16 -7l-64 -6h-3q-14 0 -17 15q-8 32 -24.5 44.5t-39.5 11.5q-39 -1 -76.5 -59.5t-63.5 -137.5q25 22 59.5 34.5t63.5 12.5q70 0 107.5 -49.5t37.5 -122.5
q0 -23 -5 -53q-19 -99 -86.5 -163.5t-170.5 -64.5q-96 -2 -140.5 54zM224 129q24 29 38 72t14 82q0 32 -10 51t-31 19q-31 0 -56 -28.5t-39.5 -70.5t-14.5 -80q0 -33 11.5 -53.5t34.5 -20.5q29 0 53 29z" />
    <glyph glyph-name="seven" unicode="7" horiz-adv-x="517" 
d="M-76 3q-4 3 -4 7q0 6 6 13l357 574h-199q-15 0 -15 11q0 5 4 12l33 63q9 17 27 17h346q15 0 15 -11q0 -5 -4 -12l-416 -661q-9 -16 -26 -16h-113q-7 0 -11 3z" />
    <glyph glyph-name="eight" unicode="8" horiz-adv-x="523" 
d="M421 660q44 -41 44 -104q0 -58 -36 -114.5t-97 -89.5q59 -39 59 -116q0 -56 -32.5 -110.5t-93 -90t-138.5 -35.5q-83 0 -126 41t-43 104q0 58 35.5 115t96.5 89q-29 20 -44 50.5t-15 66.5q0 55 32.5 109.5t92 89.5t136.5 35q85 1 129 -40zM217 582q-23 -18 -36.5 -45.5
t-13.5 -54.5t15 -44.5t45 -17.5q32 0 56 17t36.5 43t12.5 52q0 29 -16 48.5t-47 19.5q-29 0 -52 -18zM206.5 118q24.5 18 38.5 45.5t14 54.5t-16 44.5t-48 17.5q-31 0 -54 -16.5t-35 -42t-12 -52.5q0 -30 15 -49.5t44 -19.5t53.5 18z" />
    <glyph glyph-name="nine" unicode="9" horiz-adv-x="551" 
d="M26.5 39q-42.5 40 -45.5 100q0 10 6.5 16t16.5 7l63 6h3q14 0 18 -15q13 -58 64 -56q38 1 76.5 60t62.5 137q-25 -22 -59 -34.5t-64 -12.5q-70 0 -107.5 50t-37.5 123q0 24 5 52q19 99 86.5 163.5t170.5 64.5q97 2 141 -54.5t44 -147.5q0 -23 -1 -34q-8 -97 -45.5 -204
t-107.5 -183t-170 -77q-77 -1 -119.5 39zM270 375q25 28 39.5 70t14.5 81q0 33 -11.5 53.5t-34.5 20.5q-29 0 -53 -29t-38 -72t-14 -82q0 -31 10.5 -50.5t31.5 -19.5q30 0 55 28z" />
    <glyph glyph-name="colon" unicode=":" horiz-adv-x="158" 
d="M166 601q-10 0 -19.5 5t-14.5 13q-5 10 -5 19q0 14 8 28t20 22q15 11 34 11q22 0 33 -18q6 -9 6 -20q0 -13 -7.5 -26t-20.5 -23q-17 -11 -34 -11zM27 -1q-10 0 -19.5 5t-14.5 13q-5 10 -5 19q0 14 8 28t20 22q15 11 34 11q23 0 33 -18q6 -9 6 -20q0 -13 -7.5 -26
t-20.5 -23q-17 -11 -34 -11z" />
    <glyph glyph-name="semicolon" unicode=";" horiz-adv-x="164" 
d="M166 601q-10 0 -19.5 5t-14.5 13q-5 10 -5 19q0 14 8 28t20 22q15 11 34 11q22 0 33 -18q6 -9 6 -20q0 -13 -7.5 -26t-20.5 -23q-17 -11 -34 -11zM-3 -67q-11 7 -4 17q15 23 30 50q-21 3 -28 18q-6 11 -6 23q0 14 7.5 27.5t21.5 22.5q18 12 36 12q24 0 35 -19q6 -9 6 -21
t-4 -21q-7 -16 -46 -74l-21 -32q-8 -13 -20 -7z" />
    <glyph glyph-name="less" unicode="&#x3c;" horiz-adv-x="550" 
d="M501 77l-451 207v49l451 235v-78l-359 -178l359 -157v-78zM221 622z" />
    <glyph glyph-name="equal" unicode="=" horiz-adv-x="561" 
d="M-5 330q0 3 2 9l15 45q6 19 25 19h456q10 0 14 -5.5t1 -15.5l-17 -45q-6 -19 -25 -19h-456q-15 0 -15 12zM-33 210q0 3 2 9l15 45q6 19 26 19h456q15 0 15 -13q0 -5 -1 -8l-17 -45q-6 -19 -25 -19h-456q-15 0 -15 12z" />
    <glyph glyph-name="greater" unicode="&#x3e;" horiz-adv-x="550" 
d="M50 155l359 157l-359 178v78l451 -235v-49l-451 -207v78zM221 622z" />
    <glyph glyph-name="question" unicode="?" horiz-adv-x="542" 
d="M186 189q6 53 30 110t56 89l17 17q46 46 68 78.5t22 73.5q0 20 -10 31t-33 11q-26 0 -46 -19t-31 -61q-5 -21 -24 -21h-78q-18 0 -17 19q9 90 65 131.5t148 41.5q76 0 123.5 -35t47.5 -98q0 -45 -20 -83t-45 -63t-76 -72q-32 -29 -66.5 -72.5t-47.5 -76.5q-8 -19 -24 -19
h-42q-18 0 -17 18zM186 0q-11 0 -20 5t-13 13q-5 8 -5 20q0 14 7.5 27.5t19.5 21.5q17 11 34 11q24 0 33 -18q6 -9 6 -20q0 -13 -7.5 -26t-20.5 -23q-17 -11 -34 -11z" />
    <glyph glyph-name="at" unicode="@" horiz-adv-x="859" 
d="M106 -97.5q-74 37.5 -109.5 100t-35.5 139.5q0 110 66 220t183.5 182t264.5 72q91 0 162.5 -31t112.5 -89.5t41 -138.5q0 -36 -9 -77q-21 -90 -65 -153.5t-97 -95t-101 -31.5q-82 0 -100 74q-55 -74 -140 -74q-73 0 -109 39t-36 107q0 38 10 78q19 76 63.5 129.5
t103.5 80t122 26.5q51 0 98.5 -17.5t84.5 -50.5q7 -6 7 -13q0 -9 -9 -15l-32 -25q-8 -5 -13 -5q-6 0 -15 7q-50 46 -108 46q-56 0 -99.5 -45.5t-60.5 -129.5q-7 -35 -7 -65q0 -34 10 -51.5t26 -17.5q20 0 44.5 25t48.5 72.5t40 111.5q4 17 21 19l115 7h2q10 0 14.5 -5.5
t1.5 -15.5l-32 -118q-8 -28 -8 -51q0 -17 6 -26t16 -9q19 0 46 25t51.5 69.5t36.5 97.5q8 37 8 66q0 98 -73.5 151.5t-192.5 53.5q-124 0 -224 -59t-156 -150.5t-56 -181.5q0 -64 30 -115.5t93.5 -82.5t158.5 -32q22 0 17 -20l-6 -26q-5 -20 -26 -20q-111 1 -185 38.5z" />
    <glyph glyph-name="A" unicode="A" horiz-adv-x="660" 
d="M75.5 8.5q-35.5 8.5 -68 49.5t-32.5 127q0 66 21 150q31 130 102.5 217t161 128.5t178.5 41.5q48 0 90 -12.5t73 -35.5q7 -4 7 -13q0 -10 -13 -20l-26 -20q-7 -6 -14 -6q-5 0 -11 4q-44 35 -104 35q-57 0 -114.5 -34.5t-104.5 -106.5t-72 -178q-16 -67 -16 -117
q0 -57 19 -85.5t51 -28.5t67 26.5t64.5 74.5t43.5 110l57 245q2 8 8.5 14t14.5 6l113 7h2q9 0 13.5 -6t2.5 -15l-95 -392q-6 -24 -6 -40q0 -38 27 -38q23 0 55 28t57 74q1 4 8 4q10 0 22 -9t10 -14q-38 -82 -100 -130.5t-135 -48.5q-45 0 -67 29.5t-28 68.5q-40 -46 -88 -72
t-98 -26q-40 0 -75.5 8.5z" />
    <glyph glyph-name="B" unicode="B" horiz-adv-x="783" 
d="M183.5 6q-4.5 6 -2.5 16l128 561q5 17 21 18l115 7h2q10 0 14 -5.5t2 -15.5l-44 -192q89 0 123.5 37.5t42.5 81.5q4 15 4 31q0 57 -49.5 89.5t-121.5 32.5q-63 0 -123 -25t-101 -75t-46 -121q-3 -59 20 -121l2 -9q0 -11 -13 -17l-93 -32l-9 -2q-12 0 -17 14
q-21 63 -21 117q0 84 44 150t116.5 109t160.5 62q70 13 130 13q119 0 196.5 -44.5t77.5 -132.5q0 -26 -5 -47q-9 -40 -43 -77t-88 -62q88 -37 88 -116q0 -8 -2 -26q-12 -75 -67 -125.5t-133.5 -75t-162.5 -24.5h-130q-11 0 -15.5 6zM472 109.5q51 40.5 66 107.5q2 7 2 20
q0 42 -38 65.5t-99 23.5l-58 -257q76 0 127 40.5z" />
    <glyph glyph-name="C" unicode="C" horiz-adv-x="649" 
d="M264.5 114q53.5 -21 118.5 -21q75 0 140.5 27.5t92.5 77.5q3 6 11 6q11 0 21 -10t6 -19q-25 -53 -80.5 -93.5t-127.5 -62t-146 -21.5q-84 0 -154 28.5t-112.5 88.5t-42.5 150q0 52 12 100q28 123 98 205t161 121t186 39q108 0 161 -33t53 -86q0 -34 -20 -70t-57 -68
q-4 -3 -8 -3q-5 0 -11 4l-83 38q-7 3 -7 9q0 10 16 28q28 31 28 55q0 28 -30 43.5t-58 14.5q-83 -4 -145.5 -58.5t-95 -135.5t-32.5 -162q0 -78 30 -131q22 -40 75.5 -61z" />
    <glyph glyph-name="D" unicode="D" horiz-adv-x="834" 
d="M182.5 6q-4.5 6 -2.5 16l128 561q5 17 21 18l115 7h2q10 0 14 -5.5t2 -15.5l-118 -518q79 0 144 58t102 147t37 176q0 79 -33.5 135t-100.5 72q-37 8 -73 8q-65 0 -124.5 -23.5t-100.5 -73t-48 -122.5q-1 -7 -1 -20q0 -45 21 -101l2 -9q0 -11 -13 -17l-93 -32l-9 -2
q-12 0 -17 14q-20 59 -20 116q0 85 44.5 152.5t118.5 110t161 59.5q59 12 122 12q106 0 177.5 -40t106.5 -107t35 -148q0 -104 -55 -204.5t-158.5 -165t-240.5 -64.5h-130q-11 0 -15.5 6z" />
    <glyph glyph-name="E" unicode="E" horiz-adv-x="580" 
d="M83 22q-56 24 -85.5 64t-29.5 87q0 46 28 91t83 81q18 13 34 20q-14 9 -28 23q-48 47 -48 107q0 58 42.5 112.5t119 88.5t171.5 34q110 0 165 -34.5t55 -88.5q0 -33 -19.5 -67.5t-54.5 -66.5q-4 -3 -8 -3q-5 0 -11 4l-83 38q-7 3 -7 9q0 10 16 28q27 30 27 51
q0 24 -30 33.5t-61 8.5q-45 -2 -81.5 -18.5t-57 -43.5t-20.5 -58q0 -30 20.5 -60t62.5 -57q11 -7 11 -16q0 -5 -2 -8l-18 -32q-1 -2 -6 -10.5t-15 -13.5q-60 -29 -88 -61.5t-28 -63.5q0 -36 33 -64.5t80 -36.5q30 -6 64 -6q75 0 140 27.5t93 77.5q3 6 11 6q11 0 21 -10
t6 -19q-39 -84 -142 -130.5t-226 -46.5q-78 0 -134 24z" />
    <glyph glyph-name="F" unicode="F" horiz-adv-x="566" 
d="M181.5 6q-4.5 6 -2.5 16l143 629q-33 -5 -74 -32t-70.5 -74.5t-29.5 -110.5q0 -50 21 -105q2 -8 2 -10q0 -11 -13 -17l-93 -32l-9 -2q-12 0 -17 14q-20 60 -20 117q0 85 44 153t117 111t159 57l155 10q33 3 55.5 14t25.5 24q2 12 24 12h87q11 0 14 -3t1 -13
q-5 -21 -30.5 -44t-74 -40t-117.5 -19l-49 -212h72q20 0 15 -20l-6 -29q-5 -20 -25 -20h-72l-83 -362q-4 -18 -22 -18h-112q-11 0 -15.5 6z" />
    <glyph glyph-name="G" unicode="G" horiz-adv-x="721" 
d="M146 -197q0 10 1 15q6 53 35.5 85t72 49.5t113.5 37.5l12 55l6 26q-70 -71 -174 -71q-54 0 -105 27.5t-84.5 84.5t-33.5 141q0 57 16 122q27 109 93 189.5t157 123t193 42.5q108 0 161 -33t53 -86q0 -34 -20 -70t-57 -68q-4 -3 -8 -3q-5 0 -11 4l-83 38q-7 3 -7 9
q0 10 16 28q28 31 28 55q0 28 -30 43.5t-58 14.5q-56 -3 -110.5 -36.5t-95.5 -93.5t-57 -136q-11 -51 -11 -99q0 -84 35 -130t86 -46q49 0 93 43.5t63 122.5q4 17 21 19l115 7h2q10 0 14.5 -5.5t2.5 -15.5l-62 -259q17 4 46.5 27.5t60.5 60t53 77.5q3 6 13 2.5t18.5 -12
t6.5 -13.5q-33 -66 -89 -125.5t-133 -105.5q-24 -78 -51.5 -127.5t-73 -78t-116.5 -28.5q-117 0 -117 93zM319.5 -176q11.5 15 16 30t14.5 56q-6 -2 -24 -6.5t-28.5 -10t-17.5 -12.5q-9 -9 -14 -22.5t-5 -25.5q0 -13 7 -20.5t20 -6.5q20 3 31.5 18z" />
    <glyph glyph-name="H" unicode="H" horiz-adv-x="832" 
d="M177 20l146 631q-34 -5 -75.5 -32t-71 -75t-29.5 -111q0 -50 20 -104q2 -6 2 -9q0 -13 -16 -19l-89 -31q-4 -2 -10 -2q-11 0 -15 11q-21 59 -21 119q0 86 44.5 154t117.5 111t159 57l134 9h3q18 0 13 -20l-73 -318h152l71 310q5 18 24 20l115 8h3q18 0 13 -20l-128 -535
q-6 -25 -6 -42q0 -40 27 -40q24 0 55.5 29t56.5 77q3 5 8 5q10 0 22 -10.5t8 -17.5q-38 -81 -99 -128t-134 -47q-53 0 -77 24.5t-24 65.5q0 19 5 44l44 188h-151l-71 -302q-5 -20 -25 -20h-113q-20 0 -15 20z" />
    <glyph glyph-name="I" unicode="I" horiz-adv-x="508" 
d="M181.5 6q-4.5 6 -2.5 16l143 629q-33 -5 -74 -32t-70.5 -74.5t-29.5 -110.5q0 -50 21 -105q2 -8 2 -10q0 -11 -13 -17l-93 -32l-9 -2q-12 0 -17 14q-20 60 -20 117q0 85 44 153t117 111t159 57l132 8h2q10 0 14 -5.5t2 -15.5l-158 -689q-4 -18 -22 -18h-112
q-11 0 -15.5 6z" />
    <glyph glyph-name="J" unicode="J" horiz-adv-x="525" 
d="M-50 -197q0 10 1 15q6 53 35 85t71 50t113 37l153 661q-34 -5 -75.5 -32t-71 -75t-29.5 -111q0 -47 19 -100q2 -6 2 -9q0 -17 -20 -25l-87 -30q-4 -2 -7 -2q-12 0 -15 10q-21 59 -21 120q0 86 44.5 154t117.5 111.5t159 57.5l133 9q10 0 14.5 -5.5t2.5 -15.5l-154 -674
q17 6 46 29.5t59.5 59.5t51.5 75q6 11 17 11q9 0 16 -7t7 -16q0 -7 -2 -10q-62 -128 -219 -221q-25 -82 -52 -133.5t-73 -81.5t-119 -30q-117 0 -117 93zM125 -172.5q13 26.5 19 55.5t8 37l-20 -6q-24 -6 -38 -12t-25 -16q-10 -11 -16 -26.5t-6 -29.5q0 -16 8.5 -25.5
t25.5 -7.5q31 4 44 30.5z" />
    <glyph glyph-name="K" unicode="K" horiz-adv-x="770" 
d="M176 20l146 631q-34 -5 -75.5 -32t-71 -75t-29.5 -112q0 -49 20 -103q2 -6 2 -9q0 -13 -15 -19l-90 -31q-4 -2 -10 -2q-11 0 -14 11q-21 59 -21 119q0 86 44.5 154t117.5 111t158 57l134 9h3q18 0 13 -20l-80 -345q37 21 76.5 78.5t71 132.5t46.5 143q2 10 8 15.5t16 5.5
l91 7h2q19 0 14 -19q-25 -95 -78.5 -185t-117.5 -157q48 -2 70.5 -26t22.5 -62q0 -18 -7 -46l-20 -77q-6 -25 -6 -42q0 -40 28 -40q23 0 55 29t57 77q3 5 8 5q10 0 21.5 -10.5t8.5 -17.5q-39 -81 -100 -128t-134 -47q-53 0 -77 24.5t-24 65.5q0 19 5 44l21 77q7 25 7 45
q0 39 -28 39q-26 0 -61 -35l-55 -240q-5 -20 -25 -20h-113q-20 0 -15 20z" />
    <glyph glyph-name="L" unicode="L" horiz-adv-x="636" 
d="M179.5 6q-4.5 6 -2.5 16l146 629q-34 -5 -75.5 -32t-71 -75t-29.5 -111q0 -50 20 -104q2 -6 2 -9q0 -13 -16 -19l-89 -31q-4 -2 -10 -2q-11 0 -15 11q-21 59 -21 119q0 86 44.5 154t117.5 111t159 57l134 9h3q18 0 13 -20l-142 -620h209q18 0 18 -21l-1 -10l-4 -39
q-1 -19 -21 -19h-353q-11 0 -15.5 6z" />
    <glyph glyph-name="M" unicode="M" horiz-adv-x="959" 
d="M93 13q0 5 1 8l220 629q-33 -9 -72 -36t-67 -73t-28 -108q0 -48 20 -104q2 -6 2 -9q0 -13 -16 -19l-89 -31q-4 -2 -10 -2q-11 0 -15 11q-21 59 -21 119q0 86 44.5 154t117.5 111t159 57l183 9h2q18 0 16 -18l-45 -479l237 470q5 9 11 13t16 5l167 10h2q18 0 13 -20
l-159 -690q-5 -20 -25 -20h-113q-18 0 -15 20l116 510l-246 -512q-9 -18 -26 -18h-136q-19 0 -16 19l52 521l-174 -521q-6 -19 -26 -19h-65q-15 0 -15 13z" />
    <glyph glyph-name="N" unicode="N" horiz-adv-x="816" 
d="M178 20l146 631q-34 -5 -75.5 -32t-71 -75t-29.5 -111q0 -50 20 -104q2 -6 2 -9q0 -13 -16 -19l-89 -31q-4 -2 -10 -2q-11 0 -15 11q-21 59 -21 119q0 86 44.5 154t117.5 111t159 57l137 7h3q14 0 18 -15l86 -477l107 466q4 19 24 21l66 6h3q19 0 14 -19l-159 -689
q-5 -20 -25 -20h-116q-9 0 -13 4t-6 12l-86 479l-110 -475q-5 -20 -25 -20h-65q-20 0 -15 20z" />
    <glyph glyph-name="O" unicode="O" horiz-adv-x="713" 
d="M49 73q-58 73 -58 187q0 50 13 112q19 88 61.5 165.5t100 125t120.5 47.5l14 -1q8 -1 10 -4.5t1 -14.5l-5 -39q0 -3 -1 -9.5t-3.5 -10.5t-8.5 -6q-47 -21 -83 -92.5t-53 -161.5q-10 -53 -10 -108q0 -74 21.5 -118t66.5 -44q41 0 86 36.5t84 98t63 133.5q26 76 26 153
q0 32 -4 56q-5 34 -13.5 51t-17.5 17q-14 0 -25 -28.5t-11 -66.5q0 -39 13 -72q1 -2 1 -7q0 -16 -19 -19l-92 -16l-7 -1q-13 0 -16 11q-14 34 -14 72q0 51 22.5 98t64 77t96.5 30q83 0 126 -60.5t43 -156.5q0 -66 -20 -138q-27 -95 -84 -179.5t-137.5 -137t-173.5 -52.5
q-119 0 -177 73z" />
    <glyph glyph-name="P" unicode="P" horiz-adv-x="770" 
d="M183.5 6q-4.5 6 -2.5 16l128 561q5 17 21 18l115 7h2q10 0 14 -5.5t2 -15.5l-66 -292q53 7 97.5 38.5t72.5 77t36 92.5q2 9 2 27q0 64 -52.5 99.5t-129.5 35.5q-83 0 -157 -40.5t-105 -114.5q-14 -36 -14 -79q0 -51 21 -106l2 -9q0 -11 -13 -17l-93 -32l-9 -2
q-12 0 -17 14q-21 63 -21 117q0 84 44 150t116.5 109t160.5 62q60 12 123 12q125 0 208.5 -50t83.5 -152q0 -21 -2 -33q-10 -69 -60.5 -129t-132 -97.5t-178.5 -41.5l-47 -208q-4 -18 -22 -18h-112q-11 0 -15.5 6z" />
    <glyph glyph-name="Q" unicode="Q" horiz-adv-x="698" 
d="M410.5 -87q-50.5 40 -65.5 94q-21 -6 -41 -6q-35 0 -52 17t-17 45t16 58t43 50t58 20q19 0 39 -9q43 82 57 164q9 47 9 90q0 82 -28 134.5t-75 52.5q-40 0 -84.5 -41t-80 -105.5t-49.5 -130.5q-7 -32 -7 -66q0 -63 22.5 -113t55.5 -68q6 -3 6 -9q0 -4 -2 -9.5t-3 -7.5
l-13 -39q-4 -11 -7.5 -14.5t-11.5 -4.5l-15 -1q-52 0 -92.5 32.5t-62.5 88t-22 122.5q0 46 10 89q23 97 76 183.5t134.5 140.5t184.5 54q108 0 161 -70t53 -181q0 -58 -16 -127q-17 -69 -48.5 -134.5t-72.5 -114.5q4 -7 20 -37t38.5 -49t51.5 -25q14 -3 14 -14q0 -4 -3 -10
l-46 -92q-4 -9 -11.5 -13t-15.5 -1q-57 17 -107.5 57z" />
    <glyph glyph-name="R" unicode="R" horiz-adv-x="839" 
d="M183.5 6q-4.5 6 -2.5 16l128 561q5 17 21 18l115 7h2q10 0 14 -5.5t2 -15.5l-51 -222q84 11 131 45t60 94q3 15 3 30q0 62 -53 96.5t-131 34.5q-65 0 -126 -24.5t-102 -74t-46 -120.5q-3 -59 20 -121l2 -9q0 -11 -13 -17l-93 -32l-9 -2q-12 0 -17 14q-21 63 -21 117
q0 84 44 150t116.5 109t160.5 62q60 12 121 12q81 0 148.5 -21.5t107.5 -65.5t40 -107q0 -13 -4 -39q-16 -101 -135 -156q67 -21 67 -96q0 -28 -11 -70q-6 -25 -6 -43q0 -41 28 -41q24 0 55.5 29.5t56.5 78.5q3 6 13.5 2.5t18.5 -11.5t6 -14q-38 -81 -99 -128t-133 -47
q-54 0 -78 24.5t-24 66.5q0 18 5 43q9 33 9 58q0 51 -33.5 75t-93.5 29l-64 -278q-4 -18 -22 -18h-112q-11 0 -15.5 6z" />
    <glyph glyph-name="S" unicode="S" horiz-adv-x="559" 
d="M264.5 258q-29.5 40 -87.5 92q-55 50 -82.5 87t-26.5 83q0 62 44.5 109.5t112 73t136.5 25.5q79 0 131 -34t52 -99q0 -7 -2 -23q-1 -17 -20 -19l-90 -5h-2q-9 0 -14 5t-4 15q4 48 -18 72t-55 24q-26 0 -50 -13t-37.5 -36.5t-10.5 -53.5q5 -41 31.5 -73t77.5 -74
q39 -33 62 -56.5t39 -54t16 -67.5q0 -9 -2 -27q-10 -64 -57.5 -111.5t-115.5 -72.5t-137 -25q-85 0 -141.5 38t-56.5 110q0 7 2 27q1 17 20 19l90 6h3q18 0 16 -21q-3 -51 27.5 -79t73.5 -28q42 0 73 25.5t31 68.5q1 52 -28.5 92z" />
    <glyph glyph-name="T" unicode="T" horiz-adv-x="566" 
d="M181.5 6q-4.5 6 -2.5 16l143 629q-33 -5 -74 -32t-70.5 -74.5t-29.5 -110.5q0 -50 21 -105q2 -8 2 -10q0 -11 -13 -17l-93 -32l-9 -2q-12 0 -17 14q-20 60 -20 117q0 85 44 153t117 111t159 57l155 10q33 3 55.5 14t25.5 24q2 12 24 12h87q11 0 14 -3t1 -13
q-5 -21 -31 -44t-74.5 -40t-117.5 -19l-147 -643q-4 -18 -22 -18h-112q-11 0 -15.5 6z" />
    <glyph glyph-name="U" unicode="U" horiz-adv-x="879" 
d="M223 25q-25 25 -25 67q0 19 5 42l120 517q-34 -5 -75.5 -32t-71 -75t-29.5 -111q0 -50 20 -104q2 -6 2 -9q0 -13 -16 -19l-89 -31q-4 -2 -10 -2q-11 0 -15 11q-21 59 -21 119q0 86 44.5 154t117.5 111t159 57l134 9h3q18 0 13 -20l-127 -535q-4 -16 -4 -33
q0 -25 12.5 -38t33.5 -13q38 0 82.5 35.5t69.5 92.5l111 485q5 17 21 18l114 7h2q10 0 14.5 -5.5t1.5 -15.5l-127 -533q-5 -23 -5 -37q0 -23 9.5 -35t25.5 -12q27 0 62 29.5t61 78.5q3 6 13.5 2.5t19 -11.5t5.5 -14q-38 -78 -108 -126.5t-144 -48.5q-53 0 -77 24.5t-24 65.5
l1 15q-48 -48 -111 -76.5t-119 -28.5q-54 0 -79 25z" />
    <glyph glyph-name="V" unicode="V" horiz-adv-x="754" 
d="M352 17l-27 639q-24 0 -66 -23.5t-75 -69.5t-33 -110q0 -57 30 -124q2 -8 2 -11q0 -11 -14 -17l-86 -31q-4 -2 -10 -2q-12 0 -16 11q-33 76 -33 146q0 78 40 140t107 101.5t147 53.5l135 9h2q8 0 13 -4.5t5 -12.5l8 -477l152 468q2 8 8.5 13t14.5 6l64 6h3q15 0 15 -12
q0 -6 -1 -9l-224 -689q-6 -18 -24 -18h-117q-18 0 -20 17z" />
    <glyph glyph-name="W" unicode="W" horiz-adv-x="1131" 
d="M328 18l7 637q-31 -2 -75.5 -26t-78 -71.5t-33.5 -114.5q0 -53 24 -114q1 -3 1 -9q0 -13 -14 -19l-88 -31q-4 -2 -10 -2q-13 0 -14 11q-26 68 -26 131q0 82 42.5 147.5t112.5 107t153 55.5l134 9h3q17 0 17 -18l-16 -476l206 468q3 9 8 13t14 5l117 8h2q17 0 18 -18
l4 -474l175 470q5 16 22 18l65 4q17 0 17 -13l-2 -9l-255 -690q-8 -17 -26 -17h-117q-18 0 -18 18l-2 472l-205 -473q-8 -17 -26 -17h-118q-18 0 -18 18z" />
    <glyph glyph-name="X" unicode="X" horiz-adv-x="772" 
d="M183 10q0 7 5 13l208 308l-47 325q-40 -5 -87.5 -30t-81.5 -73t-34 -116q0 -52 21 -108q2 -6 2 -9q0 -13 -16 -19l-89 -31q-4 -2 -10 -2q-11 0 -15 11q-21 59 -21 119q0 86 44.5 154t117.5 111t159 57l139 9h3q15 0 16 -15l28 -192l125 187q10 14 27 16l61 3h2
q7 0 11 -2.5t4 -6.5q0 -5 -6 -13l-206 -310l51 -373v-4q0 -19 -22 -19h-112q-9 0 -13 4t-6 12l-27 189l-127 -190q-10 -15 -28 -15h-61q-15 0 -15 10z" />
    <glyph glyph-name="Y" unicode="Y" horiz-adv-x="855" 
d="M280 -197q0 10 1 15q6 53 35.5 85t72 49.5t113.5 37.5l21 94l3 16q-48 -46 -108.5 -73t-115.5 -27q-54 0 -79 25t-25 67q0 19 5 42l120 517q-34 -5 -75.5 -32t-71 -75t-29.5 -111q0 -50 20 -104q2 -6 2 -9q0 -13 -16 -19l-89 -31q-4 -2 -10 -2q-11 0 -15 11
q-21 59 -21 119q0 86 44.5 154t117.5 111t159 57l134 9h3q14 0 14 -12q0 -5 -1 -8l-127 -535q-4 -16 -4 -32q0 -25 12.5 -38.5t33.5 -13.5q36 0 78.5 33t69.5 87l1 4l42 175l72 314q5 17 21 18l114 7h2q10 0 14.5 -5.5t1.5 -15.5l-125 -533l-1 -3l-32 -138q16 4 45.5 27.5
t61.5 60t53 77.5q1 4 7 4q10 0 22.5 -10t8.5 -17q-32 -66 -88.5 -125.5t-134.5 -105.5q-24 -78 -51 -127.5t-72.5 -78t-116.5 -28.5q-117 0 -117 93zM453.5 -176q11.5 15 16 30t14.5 56q-6 -2 -24 -6.5t-28.5 -10t-17.5 -12.5q-9 -9 -14 -22.5t-5 -25.5q0 -13 7 -20.5
t20 -6.5q20 3 31.5 18z" />
    <glyph glyph-name="Z" unicode="Z" horiz-adv-x="663" 
d="M83.5 4.5q-3.5 4.5 -3.5 10.5q0 8 5 18l385 629l-144 -2q-34 -4 -76 -33t-72 -79t-30 -115q0 -50 20 -104q2 -6 2 -9q0 -13 -16 -19l-89 -31q-4 -2 -10 -2q-11 0 -15 11q-21 63 -21 119q0 87 45 157.5t119 115t159 58.5l307 1q7 0 11.5 -5.5t4.5 -13.5q0 -9 -4 -14
l-380 -608h192q10 0 15 -5.5t4 -15.5l-6 -49q-3 -19 -21 -19h-372q-6 0 -9.5 4.5z" />
    <glyph glyph-name="bracketleft" unicode="[" horiz-adv-x="338" 
d="M-24 -10l166 720q5 20 25 20h179q15 0 15 -13q0 -5 -1 -8l-16 -45q-6 -19 -26 -19h-100l-136 -590h58q15 0 15 -13q0 -5 -1 -8l-16 -45q-6 -19 -26 -19h-121q-20 0 -15 20z" />
    <glyph glyph-name="backslash" unicode="\" horiz-adv-x="392" 
d="M163 17l-39 652v2q0 9 5.5 14.5t15.5 6.5l53 6h3q16 0 16 -16l37 -660v-2q0 -9 -6 -14.5t-16 -5.5h-50q-18 0 -19 17z" />
    <glyph glyph-name="bracketright" unicode="]" horiz-adv-x="337" 
d="M31 -11l4 45q2 10 8 15.5t16 5.5h58l136 590h-100q-19 0 -16 19l5 45q1 10 7 15.5t16 5.5h179q20 0 15 -20l-166 -720q-5 -20 -25 -20h-121q-19 0 -16 19z" />
    <glyph glyph-name="asciicircum" unicode="^" horiz-adv-x="402" 
d="M76 437q-8 0 -13 10l-24 54q-3 5 -3 9q0 8 11 19l44 42q76 74 110.5 101.5t56.5 27.5q21 0 38.5 -24t50.5 -89l30 -58q3 -4 3 -10q0 -8 -11 -19l-51 -43q-9 -7 -15 -7q-8 0 -13 9l-65 109l-134 -123q-10 -8 -15 -8z" />
    <glyph glyph-name="underscore" unicode="_" horiz-adv-x="611" 
d="M-63 -177l2 8l16 45q6 19 25 19h446q15 0 15 -13q0 -5 -1 -8l-16 -45q-6 -19 -24 -19h-447q-16 0 -16 13z" />
    <glyph glyph-name="grave" unicode="`" horiz-adv-x="580" 
d="M390 606h-59q-37 29 -80.5 76t-61.5 74v10h105q16 -32 44.5 -76.5t51.5 -71.5v-12z" />
    <glyph glyph-name="a" unicode="a" horiz-adv-x="562" 
d="M-5 39q-36 39 -36 107q0 38 10 78q19 76 63.5 129.5t103.5 80t122 26.5q51 0 98.5 -17.5t84.5 -50.5q7 -6 7 -13q0 -9 -9 -15l-32 -25q-8 -5 -13 -5q-6 0 -15 7q-50 46 -108 46q-56 0 -99.5 -45.5t-60.5 -129.5q-7 -35 -7 -65q0 -34 10 -51.5t26 -17.5q20 0 44.5 25
t48.5 72.5t40 111.5q4 17 21 19l115 7h2q10 0 14.5 -5.5t1.5 -15.5l-32 -118q-7 -25 -7 -44q0 -20 7.5 -30t20.5 -10q24 0 56 29.5t57 78.5q3 6 13.5 2.5t18.5 -11.5t6 -14q-38 -81 -99 -128t-133 -47q-39 0 -60.5 21t-30.5 53q-55 -74 -140 -74q-73 0 -109 39z" />
    <glyph glyph-name="b" unicode="b" horiz-adv-x="568" 
d="M241 12q-44 -12 -87 -12q-82 0 -135 44.5t-53 127.5q0 36 8 68l101 433q2 17 21 18l115 7h2q10 0 14.5 -5.5t1.5 -15.5l-56 -249q15 14 47.5 23.5t55.5 9.5q57 0 97.5 -24.5t60.5 -66t20 -90.5q0 -43 -14.5 -86t-43.5 -80q89 -2 139 84q6 12 14 12q6 0 14 -5l3 -2
q10 -7 10 -17q0 -5 -3 -11q-37 -76 -100.5 -102t-141.5 -25h-6q-40 -24 -84 -36zM231 98q2 19 11 33.5t26 18.5q20 36 31 77.5t11 78.5q0 41 -15.5 65.5t-48.5 24.5q-36 0 -67 -37t-48.5 -91.5t-17.5 -104.5q0 -43 15 -70t44 -27t59 32z" />
    <glyph glyph-name="c" unicode="c" horiz-adv-x="452" 
d="M378 80.5q-51 -40.5 -112.5 -62t-120.5 -21.5q-80 0 -131.5 41t-51.5 120q0 31 9 70q16 66 56.5 120t101 85t133.5 31q64 0 95.5 -21.5t31.5 -57.5q0 -32 -24 -72q-7 -12 -22 -14l-57 -9h-5q-13 0 -13 11q0 3 4 13q14 28 14 47q0 21 -13 29t-29 8q-46 0 -81.5 -54.5
t-48.5 -127.5q-4 -19 -4 -39q0 -51 29 -76.5t75 -25.5q55 0 114 34t91 89q6 12 16 12q5 0 13 -5l3 -2q9 -6 9 -17q0 -5 -3 -11q-28 -54 -79 -94.5z" />
    <glyph glyph-name="d" unicode="d" horiz-adv-x="582" 
d="M-4 39q-36 39 -36 107q0 38 10 78q19 76 63 129.5t103 80t122 26.5q32 0 55 -5l49 218q5 16 21 18l115 7h2q10 0 14.5 -5.5t1.5 -15.5l-120 -503q-5 -23 -5 -37q0 -23 9.5 -35t25.5 -12q27 0 62 29.5t61 78.5q3 6 13.5 2.5t19 -11.5t5.5 -14q-39 -78 -109 -126.5
t-143 -48.5q-82 0 -98 64q-53 -64 -132 -64q-73 0 -109 39zM103 144q0 -31 9.5 -46.5t25.5 -15.5q21 0 48 26.5t51.5 77t40.5 119.5l18 80q-8 2 -24 2q-55 0 -97.5 -45.5t-62.5 -129.5q-9 -40 -9 -68z" />
    <glyph glyph-name="e" unicode="e" horiz-adv-x="453" 
d="M13.5 39.5q-51.5 39.5 -51.5 118.5q0 31 9 70q16 66 56.5 120t101 85t133.5 31h13q61 -3 90 -26t29 -59q0 -43 -36.5 -91t-95.5 -80.5t-122 -32.5q-9 0 -29 2q1 -52 29.5 -77t74.5 -25q56 0 115 34.5t90 88.5q3 6 13.5 2t18.5 -12t6 -13q-28 -54 -79.5 -93.5
t-112.5 -60.5t-120 -21q-81 0 -132.5 39.5zM138 246q40 0 73.5 19t53.5 47t20 51q0 16 -10.5 25.5t-31.5 9.5q-40 0 -73.5 -44.5t-49.5 -106.5q6 -1 18 -1z" />
    <glyph glyph-name="f" unicode="f" horiz-adv-x="395" 
d="M-74.5 -256q-33.5 34 -33.5 99q0 41 13 101l69 295q31 137 66.5 235.5t91 162t133.5 63.5q47 0 82 -32t35 -97q0 -38 -13 -84q-23 -78 -82 -138.5t-160 -107.5l-20 -88q79 -29 133 -29q42 0 72 18t50 56q3 6 13 2.5t18.5 -12.5t6.5 -13q-23 -50 -66 -79t-118 -29
q-35 0 -65 5q33 -29 51.5 -71t18.5 -88q0 -39 -13 -75q-20 -57 -65.5 -92.5t-105.5 -35.5q-78 0 -111.5 34zM206 396.5q27 47.5 42.5 96t15.5 77.5q0 15 -4 20q-3 3 -8 3q-9 0 -15 -6q-14 -12 -43 -96t-49 -170q34 28 61 75.5zM98 -163.5q11 30.5 11 74.5q0 41 -9.5 72.5
t-25.5 36.5q-2 -7 -15.5 -65t-13.5 -104q0 -45 21 -45t32 30.5z" />
    <glyph glyph-name="g" unicode="g" horiz-adv-x="560" 
d="M-15 -197q0 10 1 15q6 53 35.5 85t72 49.5t113.5 37.5l12 55q-48 -45 -114 -45q-73 0 -109 39t-36 107q0 38 10 78q19 76 63.5 129.5t103.5 80t122 26.5q51 0 98.5 -17.5t84.5 -50.5q7 -6 7 -13q0 -9 -9 -15l-32 -25q-8 -5 -13 -5q-6 0 -15 7q-50 46 -108 46
q-56 0 -99.5 -45.5t-60.5 -129.5q-7 -35 -7 -65q0 -34 10 -51.5t26 -17.5q20 0 44.5 25t48.5 72.5t40 111.5q4 17 21 19l115 7h2q10 0 14.5 -5.5t2.5 -15.5l-62 -259q17 4 46.5 27.5t60.5 60t53 77.5q6 12 16 12q5 0 12 -5l3 -2q9 -7 9 -18q0 -2 -2 -10q-33 -66 -89 -125.5
t-133 -105.5q-24 -78 -51.5 -127.5t-73 -78t-116.5 -28.5q-117 0 -117 93zM158.5 -176q11.5 15 16 30t14.5 56q-6 -2 -24 -6.5t-28.5 -10t-17.5 -12.5q-9 -9 -14 -22.5t-5 -25.5q0 -13 7 -20.5t20 -6.5q20 3 31.5 18z" />
    <glyph glyph-name="h" unicode="h" horiz-adv-x="557" 
d="M-77 20l150 651q5 18 24 20l115 8h3q18 0 13 -20l-71 -310q76 86 173 86q53 0 78 -24.5t25 -65.5q0 -21 -6 -44l-37 -147q-6 -25 -6 -43q0 -20 7 -29.5t20 -9.5q23 0 55.5 29t57.5 77q3 5 8 5q10 0 22 -10.5t8 -17.5q-38 -81 -99.5 -128t-134.5 -47q-53 0 -77 24.5
t-24 65.5q0 19 5 44l37 147q6 26 6 44q0 20 -7.5 30t-19.5 10q-26 0 -61 -35t-61 -93l-50 -217q-5 -20 -25 -20h-113q-20 0 -15 20z" />
    <glyph glyph-name="i" unicode="i" horiz-adv-x="273" 
d="M110 498q-17 0 -31 7.5t-22 21.5q-8 13 -8 30q0 8 4 24q5 16 15.5 30t24.5 23q24 18 53 18q17 0 30.5 -7.5t20.5 -20.5q9 -13 9 -32q0 -12 -4 -23q-9 -33 -39 -53q-27 -18 -53 -18zM-32 24.5q-24 24.5 -24 66.5q0 18 5 43l68 294q4 16 21 18l114 7h2q10 0 14.5 -5.5
t1.5 -15.5l-64 -258q-6 -25 -6 -42q0 -42 28 -42q24 0 55.5 29.5t56.5 78.5q3 6 13.5 2.5t19 -11.5t5.5 -14q-38 -81 -99 -128t-133 -47q-54 0 -78 24.5z" />
    <glyph glyph-name="j" unicode="j" horiz-adv-x="281" 
d="M109 498q-17 0 -31 8t-21 21q-9 11 -9 29q0 12 5 25q4 15 14.5 29.5t25.5 23.5q24 18 53 18q17 0 30 -7.5t20 -20.5q10 -13 10 -32q0 -14 -4 -23q-9 -33 -39 -53q-27 -18 -54 -18zM-306 -197q0 10 1 15q6 53 35.5 85t72 49.5t113.5 37.5l101 436q5 18 23 20l115 8h3
q19 0 14 -20l-96 -401q16 4 49 28t67 60.5t56 76.5q1 4 8 4q10 0 22 -10t8 -17q-31 -62 -92.5 -123t-141.5 -108q-24 -78 -51.5 -127.5t-73 -78t-116.5 -28.5q-117 0 -117 93zM-126.5 -168.5q11.5 21.5 17 46t7.5 32.5q-7 -2 -24 -6.5t-28 -10t-18 -12.5q-9 -9 -14 -22
t-5 -25q0 -14 7 -21.5t21 -6.5q25 4 36.5 25.5z" />
    <glyph glyph-name="k" unicode="k" horiz-adv-x="558" 
d="M-71.5 6q-4.5 6 -2.5 16l148 651q5 17 21 18l116 7h2q10 0 14 -5.5t2 -15.5l-71 -310q78 89 182 89q46 0 69.5 -20.5t23.5 -54.5q0 -41 -33 -88.5t-91 -83.5q-5 -25 -5 -39q0 -42 23.5 -61.5t60.5 -19.5q35 0 72 28t65 81q3 6 13.5 2.5t18.5 -11.5t6 -14
q-39 -80 -99 -127.5t-131 -47.5q-166 0 -164 183q1 16 15 24q47 28 70.5 61t23.5 61q0 16 -8 25.5t-22 9.5q-23 0 -54.5 -30.5t-64.5 -94.5l-51 -221q-4 -18 -22 -18h-112q-11 0 -15.5 6z" />
    <glyph glyph-name="l" unicode="l" horiz-adv-x="293" 
d="M-32 24.5q-24 24.5 -24 66.5q0 18 5 43l123 539q4 17 21 18l115 7h2q10 0 14.5 -5.5t2.5 -15.5l-121 -503q-5 -23 -5 -37q0 -23 10 -35t26 -12q27 0 62 29.5t61 78.5q3 6 13.5 2.5t19 -11.5t5.5 -14q-38 -78 -108.5 -126.5t-143.5 -48.5q-54 0 -78 24.5z" />
    <glyph glyph-name="m" unicode="m" horiz-adv-x="836" 
d="M-73.5 6q-4.5 6 -2.5 16l93 406q5 17 21 18l115 7h2q10 0 14 -5.5t2 -15.5l-14 -63q36 41 80.5 63.5t93.5 22.5q53 0 77 -24.5t24 -66.5q37 44 82.5 67.5t95.5 23.5q53 0 77.5 -24.5t24.5 -64.5q0 -22 -6 -45l-37 -147q-6 -25 -6 -43q0 -41 28 -41q24 0 55.5 29.5
t56.5 78.5q3 6 13.5 2.5t18.5 -11.5t6 -14q-38 -81 -99 -128t-133 -47q-54 0 -78 24.5t-24 66.5q0 18 5 43l37 147q6 26 6 43q0 41 -28 41q-25 0 -59.5 -34t-59.5 -90l-51 -223q-4 -18 -22 -18h-107q-11 0 -15.5 6t-2.5 16l59 259q5 20 5 41q0 43 -28 43q-25 0 -59.5 -35
t-60.5 -93l-50 -219q-4 -18 -22 -18h-112q-11 0 -15.5 6z" />
    <glyph glyph-name="n" unicode="n" horiz-adv-x="556" 
d="M-73.5 6q-4.5 6 -2.5 16l93 406q5 17 21 18l115 7h2q10 0 14 -5.5t2 -15.5l-14 -63q36 41 80.5 63.5t92.5 22.5q53 0 77.5 -24.5t24.5 -64.5q0 -22 -6 -45l-37 -147q-6 -25 -6 -43q0 -41 28 -41q24 0 55.5 29.5t56.5 78.5q3 6 13.5 2.5t18.5 -11.5t6 -14
q-38 -81 -99 -128t-133 -47q-54 0 -78 24.5t-24 66.5q0 18 5 43l37 147q6 26 6 43q0 41 -28 41q-25 0 -60 -35.5t-61 -92.5l-50 -219q-4 -18 -22 -18h-112q-11 0 -15.5 6z" />
    <glyph glyph-name="o" unicode="o" horiz-adv-x="568" 
d="M12 49.5q-48 48.5 -48 123.5q0 67 38 134t106 110.5t154 43.5q95 0 144.5 -50t49.5 -126q0 -44 -16.5 -89t-47.5 -84q38 -3 76 16t67 70q3 6 13.5 2.5t18.5 -12t6 -13.5q-38 -76 -102.5 -102t-142.5 -25h-6q-74 -48 -167 -48q-95 1 -143 49.5zM230 95q-1 18 11.5 35.5
t27.5 20.5q17 35 27 74.5t10 74.5q0 43 -15.5 69.5t-46.5 26.5q-36 0 -67 -37t-49 -92.5t-18 -105.5q0 -43 14.5 -69t44.5 -26q32 0 61 29z" />
    <glyph glyph-name="p" unicode="p" horiz-adv-x="567" 
d="M-140.5 -284q-4.5 6 -2.5 16l160 696q4 16 21 18l114 7h2q10 0 14.5 -5.5t2.5 -15.5l-5 -19q19 22 52.5 33.5t68.5 11.5q20 0 35 -3q66 -14 100 -60.5t34 -108.5q0 -43 -16.5 -88t-46.5 -84q91 -2 141 84q3 6 13.5 2.5t18.5 -12t6 -13.5q-38 -76 -102.5 -102t-141.5 -25
h-6q-74 -48 -167 -48q-46 0 -80 12l-66 -285q-5 -17 -22 -17h-112q-11 0 -15.5 6zM211.5 79.5q20.5 13.5 36.5 37.5q-1 3 -1 11q0 15 9.5 30t25.5 21q24 59 24 120q0 44 -15.5 70.5t-46.5 26.5q-38 0 -68 -36t-47 -90t-17 -104q0 -45 14 -72.5t43 -27.5q22 0 42.5 13.5z" />
    <glyph glyph-name="q" unicode="q" horiz-adv-x="563" 
d="M146 -270l73 315q-50 -45 -115 -45q-72 0 -108 39t-36 106q0 39 10 79q19 75 64 128.5t105.5 81.5t124.5 28q51 0 98 -18t83 -53q4 -4 4 -11q0 -9 -11 -18l-28 -22q-9 -6 -16 -6t-12 5q-67 53 -123 53q-53 0 -91 -45.5t-56 -134.5q-7 -35 -7 -66q0 -62 33 -62
q50 0 80.5 50t55.5 151q4 19 24 21l115 8h3q18 0 13 -20l-66 -287q5 8 17.5 20.5t27.5 25.5q48 44 71 71q33 41 49 71q8 14 19 14q6 0 10 -4l6 -4q8 -6 8 -14q0 -6 -3 -12q-19 -39 -53 -83q-8 -11 -17 -21t-17 -20q-52 -59 -92 -114.5t-71 -126.5l-19 -80q-5 -20 -25 -20
h-113q-20 0 -15 20z" />
    <glyph glyph-name="r" unicode="r" horiz-adv-x="416" 
d="M81 28q-35 28 -35 74q0 37 22 79l62 114q16 29 16 53q0 41 -47 55q-3 -15 -39 -101t-55 -127q-2 -5 -8 -5q-10 0 -22 11t-8 17q31 60 88 231q-11 4 -20 18q-7 8 -7 24q0 10 3 19q7 22 24 35t35 13t29 -13t8 -37q60 -26 111.5 -67.5t51.5 -95.5q0 -23 -11 -45l-63 -106
q-14 -24 -14 -45q0 -19 12 -29.5t32 -10.5q32 0 70 27.5t67 81.5q1 4 7 4q10 0 22 -10t9 -17q-39 -85 -102 -130t-133 -45t-105 28z" />
    <glyph glyph-name="s" unicode="s" horiz-adv-x="476" 
d="M40 17q-43 21 -64 58q-2 2 -2 8q0 13 13 21l25 14q8 4 12 4q8 0 11 -6q18 -22 26 -29q27 -19 44 -19q18 0 36 15q-3 6 -3 15q0 13 6.5 26t17.5 20q-2 52 -12 95q-25 97 -46 145q-9 -16 -56 -117q-36 -78 -43 -92q-7 -12 -15 -12t-14 6q-12 11 -12 18q0 5 3 11
q10 19 45 97q33 75 56 115t56 66.5t80 26.5q32 0 53 -15.5t21 -41.5q0 -22 -18 -51q14 -61 37 -129q2 -7 4 -12t3 -10q20 -72 20 -105q0 -9 -2 -25q36 5 68.5 24t52.5 60q1 4 8 4q11 0 23 -8t9 -15q-33 -66 -82 -93.5t-116 -35.5q-27 -24 -69 -37t-93 -13q-46 0 -83 17z" />
    <glyph glyph-name="t" unicode="t" horiz-adv-x="296" 
d="M-29 24.5q-24 24.5 -24 66.5q0 18 5 43l66 288h-15q-18 0 -18 14q0 3 2 9l11 29q6 16 23 16h13l41 183q5 17 21 18l115 7h2q10 0 14.5 -5.5t2.5 -15.5l-45 -187h48q18 0 18 -14q0 -3 -2 -9l-11 -29q-6 -16 -23 -16h-47l-59 -248q-5 -23 -5 -37q0 -23 10 -35t26 -12
q27 0 62 29.5t61 78.5q3 6 13.5 2.5t19 -11.5t5.5 -14q-38 -78 -108.5 -126.5t-143.5 -48.5q-54 0 -78 24.5z" />
    <glyph glyph-name="u" unicode="u" horiz-adv-x="554" 
d="M-32 24.5q-24 24.5 -24 66.5q0 18 5 43l68 294q4 16 21 18l114 7h2q10 0 14.5 -5.5t1.5 -15.5l-64 -258q-6 -25 -6 -42q0 -42 29 -42q26 0 61 35.5t60 92.5l48 210q4 17 21 18l114 7h2q10 0 14.5 -5.5t1.5 -15.5l-64 -258q-6 -25 -6 -42q0 -42 28 -42q24 0 55.5 29.5
t56.5 78.5q6 11 16 11q7 0 12 -4l3 -2q9 -7 9 -17q0 -7 -2 -11q-38 -81 -99 -128t-134 -47q-54 0 -78 25t-23 67q-38 -44 -83.5 -68t-95.5 -24q-54 0 -78 24.5z" />
    <glyph glyph-name="v" unicode="v" horiz-adv-x="504" 
d="M160 12.5q-43 -12.5 -82 -12.5q-58 0 -95 26t-37 75q0 16 4 31l67 293q1 9 6.5 12t15.5 4l116 10h2q8 0 11.5 -7t1.5 -16l-63 -256q-6 -24 -6 -40q0 -18 6.5 -27.5t18.5 -9.5q16 0 38 16q0 19 14 34.5t33 17.5q27 48 46 126.5t24 132.5q1 10 5 14t15 5l114 10h2
q8 0 12 -6.5t2 -16.5l-5 -24q-19 -104 -41 -169t-71 -121q12 -3 27 -3q36 0 70 20t60 67q6 12 15 12q5 0 13 -5l3 -2q10 -8 10 -18q0 -4 -3 -10q-38 -76 -102 -102t-142 -25h-25q-37 -23 -80 -35.5z" />
    <glyph glyph-name="w" unicode="w" horiz-adv-x="784" 
d="M-32 24.5q-24 24.5 -24 65.5q0 19 5 44l68 292q5 18 23 20l115 8q22 0 17 -20l-65 -260q-7 -27 -7 -47q0 -37 23 -37q17 0 40.5 20.5t47.5 55.5q22 32 40.5 95.5t43.5 162.5q4 18 25 20l115 8q21 0 16 -20l-65 -260q-6 -24 -6 -41q0 -18 6.5 -27t18.5 -9q15 0 37 16
q1 20 15 34.5t33 17.5q27 47 46.5 127.5t23.5 131.5q2 22 22 22l114 8h2q18 0 13 -20l-6 -29q-14 -71 -25 -115.5t-32 -89.5t-54 -84q7 -2 25 -2q37 0 73 20.5t59 65.5q5 12 15 12q6 0 11 -4l6 -5q8 -6 8 -16q0 -6 -2 -10q-39 -76 -103.5 -102t-142.5 -25h-24
q-39 -24 -81 -36.5t-81 -12.5q-56 0 -92 24t-40 70q-35 -43 -80 -68t-100 -25q-53 0 -77 24.5z" />
    <glyph glyph-name="x" unicode="x" horiz-adv-x="557" 
d="M-13 10q0 4 7 14l163 210q-4 11 -10 37q-7 34 -16 53.5t-28 20.5q-15 4 -32 -26.5t-45 -95.5l-21 -47q-1 -4 -8 -4q-10 0 -22 9.5t-8 16.5q16 28 38 82q26 57 43 89t41 56t55 28q16 2 22 2q41 0 61.5 -23t35.5 -70l58 68q6 7 11.5 9.5t15.5 3.5l109 10h2q5 0 8 -2.5
t3 -6.5q0 -5 -7 -16l-148 -195q4 -11 7 -38q4 -45 15.5 -73t41.5 -29q37 6 77.5 29.5t67.5 75.5q5 12 15 12q6 0 11 -4l7 -5q8 -6 8 -14q0 -6 -3 -12q-26 -52 -69.5 -92t-88.5 -61.5t-77 -21.5q-55 0 -78.5 27t-30 48.5t-8.5 25.5l-70 -87q-13 -14 -28 -14h-110
q-15 0 -15 10z" />
    <glyph glyph-name="y" unicode="y" horiz-adv-x="550" 
d="M-25 -197q0 10 1 15q6 53 35.5 85t72 49.5t113.5 37.5l21 94q-37 -40 -80.5 -62t-91.5 -22q-102 0 -102 91q0 18 5 43l68 293q2 9 7 12t16 4l114 10h2q8 0 12 -7t2 -16l-64 -256q-7 -30 -7 -44q0 -40 28 -40q25 0 60 34t61 90l49 213q2 9 7 12t16 4l114 10h2q8 0 12 -7
t2 -16l-93 -397q16 4 45.5 27.5t61.5 60t53 77.5q1 4 7 4q10 0 22.5 -10t8.5 -17q-32 -66 -88.5 -125.5t-134.5 -105.5q-24 -78 -51 -127.5t-72.5 -78t-116.5 -28.5q-117 0 -117 93zM148.5 -176q11.5 15 16 30t14.5 56q-6 -2 -24 -6.5t-28.5 -10t-17.5 -12.5
q-9 -9 -14 -22.5t-5 -25.5q0 -13 7 -20.5t20 -6.5q20 3 31.5 18z" />
    <glyph glyph-name="z" unicode="z" horiz-adv-x="416" 
d="M139.5 7.5q-15.5 7.5 -27.5 19.5q-39 -26 -71 -26q-24 0 -39 14t-15 35q0 22 16.5 43t49.5 35l15 16q59 61 93 101t57 84q-28 0 -63.5 22.5t-55.5 50.5q-20 -58 -94 -227q-3 -6 -13 -2.5t-18.5 12t-6.5 13.5q32 61 88 230q-28 15 -28 43q0 16 9.5 32t23.5 25t30 9
q17 0 27.5 -12.5t9.5 -37.5q21 -27 57 -45.5t70 -18.5q12 0 24 3q23 8 45 8q27 0 42 -14t15 -34q0 -16 -9 -31q-35 -64 -75 -121t-94 -114q1 -17 13.5 -26.5t31.5 -9.5q33 0 71 28.5t65 85.5q3 6 13.5 2.5t19 -11.5t5.5 -14q-41 -86 -103.5 -130.5t-128.5 -44.5
q-34 0 -49.5 7.5z" />
    <glyph glyph-name="braceleft" unicode="{" horiz-adv-x="324" 
d="M63 121q0 70 33 164q1 3 1 9q0 19 -27 29q-17 5 -12 21l8 34q4 18 25 21q15 4 25 10t11 17q13 118 53.5 202.5t121.5 84.5q17 0 23.5 -4.5t2.5 -16.5l-6 -26q-4 -17 -23 -19q-19 -4 -28 -13t-15 -29t-17 -71l-26 -112q-5 -19 -21.5 -39t-33.5 -27q10 -5 17.5 -25t7.5 -41
q0 -13 -3 -24q-28 -91 -28 -138q0 -48 29 -58q8 -3 11 -7.5t2 -13.5l-7 -27q-5 -20 -24 -20q-100 0 -100 119z" />
    <glyph glyph-name="bar" unicode="|" horiz-adv-x="149" 
d="M-101 -90q0 3 2 13l196 851q2 8 9 12.5t17 5.5l50 5h4q11 0 11 -11q0 -6 -1 -10l-199 -859q-2 -8 -9.5 -12.5t-17.5 -4.5h-50q-12 0 -12 10z" />
    <glyph glyph-name="braceright" unicode="}" horiz-adv-x="324" 
d="M-0.5 4.5q-6.5 4.5 -2.5 16.5l6 26q4 17 24 19q19 4 28 13t15 29t17 71l26 112q4 19 21 38.5t34 27.5q-10 5 -17.5 25t-7.5 41q0 14 3 24q28 91 28 138q0 48 -29 58q-9 3 -12 7.5t-1 13.5l6 27q5 20 25 20q52 0 76 -32t24 -86q0 -68 -34 -165q-1 -3 -1 -9q0 -19 27 -29
q9 -2 12 -7t1 -14l-8 -34q-4 -18 -25 -21q-15 -4 -25 -10t-11 -17q-13 -117 -54 -202t-122 -85q-17 0 -23.5 4.5z" />
    <glyph glyph-name="asciitilde" unicode="~" horiz-adv-x="550" 
d="M259 288q-18 8 -31.5 13.5t-24.5 8.5t-21 4t-21 1q-14 0 -28.5 -4.5t-29 -12.5t-28 -18.5t-25.5 -23.5v79q49 53 121 53q14 0 26 -1t25.5 -4.5t30 -9.5t39.5 -16q18 -8 31.5 -13t25 -8t21 -4.5t20.5 -1.5q14 0 28.5 4.5t29 12.5t28 19t25.5 23v-79q-48 -53 -121 -53
q-14 0 -26.5 1.5t-26 4.5t-29.5 9t-39 16zM221 622z" />
    <glyph glyph-name="uni007F" 
 />
    <glyph glyph-name="exclamdown" unicode="&#xa1;" horiz-adv-x="269" 
d="M104 330h58l25 -512h-108zM196 478q0 -33 -16 -50t-46 -17t-46 17t-16 50q0 32 16.5 50t45.5 18t45.5 -17.5t16.5 -50.5z" />
    <glyph glyph-name="cent" unicode="&#xa2;" horiz-adv-x="666" 
d="M563 634q43 -28 43 -72q0 -28 -17 -58t-47 -57q-4 -3 -7 -3q-5 0 -9 4l-70 32q-6 3 -6 8q0 9 14 23q23 24 23 46q0 23 -23 35.5t-47 12.5l-109 -474q16 -2 25 -2q46 0 88 23t65 65q3 5 9 5q9 0 18 -8.5t5 -16.5q-28 -60 -91.5 -99t-137.5 -48l-28 -123q-4 -17 -22 -17
h-39q-10 0 -10 11l2 12l27 118q-78 10 -127.5 62.5t-49.5 147.5q0 44 12 96q30 131 114 206t191 94l29 127q2 8 8.5 12.5t14.5 5.5l39 5h3q8 0 8 -9l-2 -12l-28 -123q89 -1 132 -29zM244 158l99 431q-49 -22 -85 -67.5t-54.5 -102t-18.5 -112.5q0 -67 25 -110q14 -25 34 -39
z" />
    <glyph glyph-name="sterling" unicode="&#xa3;" horiz-adv-x="571" 
d="M334 723q93 0 177 -41l-31 -70q-82 38 -144 38q-57 0 -87 -29.5t-30 -95.5v-139h204v-66h-204v-104q0 -47 -15.5 -80.5t-52.5 -55.5h384v-80h-503v74q99 23 99 141v105h-96v66h96v148q0 88 55 138.5t148 50.5z" />
    <glyph glyph-name="currency" unicode="&#xa4;" horiz-adv-x="571" 
d="M90 353q0 57 35 110l-66 68l49 47l66 -64q49 35 112 35q59 0 110 -35l67 64l48 -47l-64 -67q35 -54 35 -111q0 -63 -35 -112l63 -66l-47 -47l-67 64q-50 -34 -110 -34q-64 0 -112 35l-66 -64l-48 47l65 66q-35 53 -35 111zM157 353q0 -54 37.5 -91.5t91.5 -37.5t92 37
t38 92q0 56 -38 93.5t-92 37.5t-91.5 -38t-37.5 -93z" />
    <glyph glyph-name="yen" unicode="&#xa5;" horiz-adv-x="571" 
d="M285 365l179 349h92l-201 -375h124v-64h-151v-82h151v-64h-151v-129h-86v129h-151v64h151v82h-151v64h122l-199 375h93z" />
    <glyph glyph-name="brokenbar" unicode="&#xa6;" horiz-adv-x="149" 
d="M33 443q-9 0 -9 10l2 13l71 308q2 8 9 12.5t17 5.5l50 5h4q11 0 11 -11q0 -6 -1 -10l-71 -306q-2 -8 -9 -11.5t-18 -5.5l-52 -10h-4zM-100 -86q0 3 2 13l68 298q2 8 9 12.5t17 5.5l51 5h4q10 0 10 -11q0 -6 -1 -10l-71 -306q-2 -8 -9.5 -12.5t-17.5 -4.5h-50
q-12 0 -12 10z" />
    <glyph glyph-name="section" unicode="&#xa7;" horiz-adv-x="513" 
d="M67 395q0 42 21 75t58 51q-36 20 -56 47t-20 68q0 60 50.5 94.5t146.5 34.5q45 0 82 -7t89 -27l-27 -67q-47 19 -80.5 26t-69.5 7q-56 0 -82.5 -14.5t-26.5 -44.5q0 -27 28 -47.5t104 -47.5q89 -33 126 -70t37 -90q0 -88 -75 -133q74 -39 74 -110q0 -69 -57.5 -107
t-160.5 -38t-169 33v75q42 -19 88.5 -30t84.5 -11q62 0 96 18t34 53q0 30 -26 49t-103 49q-96 36 -131 72.5t-35 91.5zM142 405q0 -25 13 -43.5t43 -35.5t109 -47q64 37 64 91q0 40 -34 66.5t-123 54.5q-32 -9 -52 -33t-20 -53z" />
    <glyph glyph-name="dieresis" unicode="&#xa8;" horiz-adv-x="580" 
d="M149 681q0 26 13.5 37.5t33.5 11.5q19 0 33 -11.5t14 -37.5t-14 -38t-33 -12q-20 0 -33.5 12t-13.5 38zM337 681q0 26 13.5 37.5t32.5 11.5t33 -11.5t14 -37.5t-14 -38t-33 -12t-32.5 12t-13.5 38z" />
    <glyph glyph-name="copyright" unicode="&#xa9;" horiz-adv-x="950" 
d="M158.5 -49q-80.5 46 -125.5 126t-45 178q0 45 11 95q28 118 112.5 220.5t201 163.5t234.5 61q102 0 182.5 -46t125.5 -126t45 -177q0 -51 -11 -96q-27 -118 -111.5 -220.5t-201.5 -163.5t-235 -61q-102 0 -182.5 46zM560.5 19q99.5 51 171 139t95.5 192q10 43 10 88
q0 85 -38 152t-107 105t-159 38q-104 0 -204 -51t-171.5 -139t-95.5 -193q-10 -43 -10 -87q0 -84 38 -151.5t107.5 -105.5t158.5 -38q105 0 204.5 51zM381 170.5q38 -15.5 85 -15.5q54 0 101 19.5t66 55.5q3 4 8 4q8 0 16 -7t4 -13q-27 -58 -100 -93t-155 -35
q-94 0 -158.5 48.5t-64.5 144.5q0 32 9 71q20 88 70.5 147t116 87t134.5 28q78 0 116 -23.5t38 -61.5q0 -24 -15 -50t-41 -49q-3 -3 -6 -3q-2 0 -8 3l-59 28q-5 1 -5 7q0 9 12 19q19 22 19 40q0 20 -21 31.5t-41 10.5q-60 -3 -105 -42t-68.5 -97.5t-23.5 -116.5
q0 -57 22 -94q16 -28 54 -43.5z" />
    <glyph glyph-name="ordfeminine" unicode="&#xaa;" horiz-adv-x="356" 
d="M261 389l-12 42q-46 -48 -114 -48q-47 0 -75 24.5t-28 74.5t38.5 76t119.5 29l56 2v22q0 30 -19 44.5t-52 14.5q-49 0 -101 -26q-13 30 -22 49q60 29 125 29t98 -27t33 -86v-220h-47zM96 482q0 -48 54 -48q96 0 96 87v23l-48 -2q-54 -2 -78 -16t-24 -44z" />
    <glyph glyph-name="guillemotleft" unicode="&#xab;" horiz-adv-x="616" 
d="M183 129q-8 0 -14 7l-35 42q-48 59 -65.5 84.5t-17.5 45.5q0 18 15 34t42.5 33t90.5 52l69 39q8 5 14 5q7 0 13 -8l30 -44q3 -4 3 -10q0 -10 -12 -18l-135 -83l89 -114q4 -5 4 -11q0 -10 -14 -17l-64 -33q-7 -4 -13 -4zM423 129q-8 0 -14 7l-35 42q-48 59 -65.5 84.5
t-17.5 45.5q0 18 15 34t42.5 33t90.5 52l69 39q8 5 14 5q7 0 13 -8l30 -44q3 -4 3 -10q0 -10 -12 -18l-135 -83l89 -114q4 -5 4 -11q0 -10 -14 -17l-64 -33q-7 -4 -13 -4z" />
    <glyph glyph-name="logicalnot" unicode="&#xac;" horiz-adv-x="571" 
d="M520 388v-260h-71v189h-399v71h470z" />
    <glyph glyph-name="uni00AD" unicode="&#xad;" horiz-adv-x="321" 
d="M40 229v78h242v-78h-242z" />
    <glyph glyph-name="registered" unicode="&#xae;" horiz-adv-x="950" 
d="M158.5 -49q-80.5 46 -125.5 126t-45 178q0 45 11 95q28 118 112.5 220.5t201 163.5t234.5 61q102 0 182.5 -46t125.5 -126t45 -177q0 -51 -11 -96q-27 -118 -111.5 -220.5t-201.5 -163.5t-235 -61q-102 0 -182.5 46zM560.5 19q99.5 51 171 139t95.5 192q10 43 10 88
q0 85 -38 152t-107 105t-159 38q-104 0 -204 -51t-171.5 -139t-95.5 -193q-10 -43 -10 -87q0 -84 38 -151.5t107.5 -105.5t158.5 -38q105 0 204.5 51zM295 133q-3 4 -1 11l84 369q3 11 14 12l75 5q15 0 12 -14l-34 -146q111 14 126 91q2 14 2 20q0 41 -35 63.5t-86 22.5
q-43 0 -83 -16t-67 -48.5t-30 -79.5q-2 -40 13 -80q1 -2 1 -6q0 -7 -8 -11l-62 -21q-2 -1 -6 -1q-8 0 -11 9q-13 39 -13 76q0 82 60.5 137.5t149.5 75.5q43 8 80 8q84 0 139.5 -33t55.5 -96q0 -84 -91 -128q44 -14 44 -63q0 -22 -7 -46q-4 -15 -4 -29q0 -26 18 -26
q16 0 36.5 19t37.5 52q1 2 4 2q6 0 14 -6.5t7 -10.5q-25 -53 -65 -84t-86 -32q-68 0 -68 60q0 14 3 29q6 21 6 37q0 64 -85 69l-42 -183q-3 -12 -14 -12h-74q-7 0 -10 4z" />
    <glyph glyph-name="macron" unicode="&#xaf;" horiz-adv-x="339" 
d="M42 270q0 3 2 9l15 45q6 19 26 19h346q15 0 15 -13q0 -5 -1 -8l-17 -45q-6 -19 -25 -19h-346q-15 0 -15 12z" />
    <glyph glyph-name="degree" unicode="&#xb0;" horiz-adv-x="428" 
d="M60 570q0 66 45 110t109 44q65 0 109.5 -45t44.5 -109t-45 -108.5t-109 -44.5q-63 0 -108.5 44t-45.5 109zM120 570q0 -39 28 -66.5t67 -27.5q40 0 66.5 28t26.5 66q0 39 -27 66.5t-66 27.5t-67 -27t-28 -67z" />
    <glyph glyph-name="plusminus" unicode="&#xb1;" horiz-adv-x="571" 
d="M321 391h199v-71h-199v-206h-72v206h-199v71h199v207h72v-207zM50 0v71h470v-71h-470z" />
    <glyph glyph-name="uni00B2" unicode="&#xb2;" horiz-adv-x="350" 
d="M306 286h-282v54l115 112q62 60 79.5 87.5t17.5 61.5q0 32 -18.5 48t-48.5 16t-54.5 -11.5t-50.5 -31.5l-35 46q65 55 141 55q64 0 100.5 -32t36.5 -86q0 -22 -6 -41.5t-18.5 -39.5t-33 -42.5t-138.5 -133.5h195v-62z" />
    <glyph glyph-name="uni00B3" unicode="&#xb3;" horiz-adv-x="350" 
d="M308 613q0 -74 -74 -102q87 -21 87 -102q0 -62 -45 -96.5t-128 -34.5q-74 0 -131 28v63q69 -34 132 -34q100 0 100 76q0 69 -110 69h-57v55h57q50 0 73.5 19t23.5 51q0 29 -19 45t-51 16q-51 0 -111 -38l-36 46q36 27 71 38t75 11q66 0 104.5 -29.5t38.5 -80.5z" />
    <glyph glyph-name="acute" unicode="&#xb4;" horiz-adv-x="580" 
d="M189 618q19 23 47.5 66.5t47.5 81.5h106v-10q-21 -31 -66.5 -78.5t-76.5 -71.5h-58v12z" />
    <glyph glyph-name="mu" unicode="&#xb5;" horiz-adv-x="623" 
d="M173 190q0 -127 120 -127q83 0 120 45.5t37 148.5v279h88v-536h-71l-14 72h-5q-53 -82 -161 -82q-71 0 -115 45h-4q5 -36 5 -119v-156h-88v776h88v-346z" />
    <glyph glyph-name="paragraph" unicode="&#xb6;" horiz-adv-x="654" 
d="M549 -127h-58v831h-102v-831h-58v400q-30 -9 -71 -9q-105 0 -155 61t-50 184q0 127 53.5 189t166.5 62h274v-887z" />
    <glyph glyph-name="periodcentered" unicode="&#xb7;" horiz-adv-x="255" 
d="M114 297q-32 0 -46 26q-7 10 -7 26q0 18 10.5 37t28.5 31q25 17 47 17q15 0 27 -7t19 -19q7 -11 7 -27q0 -19 -10.5 -38t-27.5 -30q-23 -16 -48 -16z" />
    <glyph glyph-name="cedilla" unicode="&#xb8;" horiz-adv-x="225" 
d="M212 -139q0 -48 -37 -74.5t-111 -26.5q-32 0 -50 5v55q18 -5 53 -5q37 0 55.5 9.5t18.5 34.5q0 43 -91 55l43 86h58l-26 -53q87 -19 87 -86z" />
    <glyph glyph-name="uni00B9" unicode="&#xb9;" horiz-adv-x="350" 
d="M167 714h73v-428h-71v276q0 33 4 89q-15 -14 -26.5 -23t-74.5 -55l-35 49z" />
    <glyph glyph-name="ordmasculine" unicode="&#xba;" horiz-adv-x="375" 
d="M345 553q0 -80 -42 -125t-116 -45q-71 0 -113 45t-42 125q0 81 41 125t116 44q73 0 114.5 -44.5t41.5 -124.5zM95 553q0 -59 21.5 -88t71.5 -29q49 0 71 29t22 88t-22 87.5t-71 28.5t-71 -28.5t-22 -87.5z" />
    <glyph glyph-name="guillemotright" unicode="&#xbb;" horiz-adv-x="616" 
d="M70 129q-8 0 -14 8l-30 44q-3 5 -3 10q0 11 13 18l134 83l-89 114q-4 4 -4 10q0 11 15 18l63 33q7 4 14 4t14 -7l35 -42q48 -59 65.5 -84.5t17.5 -45.5q0 -18 -15 -34t-43 -33t-92 -53q-2 -1 -68 -38q-8 -5 -13 -5zM310 129q-8 0 -14 8l-30 44q-3 5 -3 10q0 11 13 18
l134 83l-89 114q-4 4 -4 10q0 11 15 18l63 33q7 4 14 4t14 -7l35 -42q48 -59 65.5 -84.5t17.5 -45.5q0 -18 -15 -34t-43 -33t-92 -53q-2 -1 -68 -38q-8 -5 -13 -5z" />
    <glyph glyph-name="onequarter" unicode="&#xbc;" horiz-adv-x="790" 
d="M736 96h-61v-96h-75v96h-195v52l197 283h73v-275h61v-60zM600 156v93q0 52 3 101q-4 -9 -48 -77l-80 -117h125zM311 17q-9 3 -9 11q0 6 8 16l523 644q13 14 29 11l46 -10q11 -3 11 -11q0 -7 -7 -15l-527 -652q-9 -11 -20 -11q-3 0 -9 2zM165 714h73v-428h-71v276
q0 33 4 89q-15 -14 -26.5 -23t-74.5 -55l-35 49z" />
    <glyph glyph-name="onehalf" unicode="&#xbd;" horiz-adv-x="790" 
d="M281 17q-9 3 -9 11q0 6 8 16l523 644q13 14 29 11l46 -10q11 -3 11 -11q0 -7 -7 -15l-527 -652q-9 -11 -20 -11q-3 0 -9 2zM152 714h73v-428h-71v276q0 33 4 89q-15 -14 -26.5 -23t-74.5 -55l-35 49zM727 0h-282v54l115 112q62 60 79.5 87.5t17.5 61.5q0 32 -18.5 48
t-48.5 16t-54.5 -11.5t-50.5 -31.5l-35 46q65 55 141 55q64 0 100.5 -32t36.5 -86q0 -22 -6 -41.5t-18.5 -39.5t-33 -42.5t-138.5 -133.5h195v-62z" />
    <glyph glyph-name="threequarters" unicode="&#xbe;" horiz-adv-x="790" 
d="M772 96h-61v-96h-75v96h-195v52l197 283h73v-275h61v-60zM636 156v93q0 52 3 101q-4 -9 -48 -77l-80 -117h125zM355 17q-9 3 -9 11q0 6 8 16l523 644q13 14 29 11l46 -10q11 -3 11 -11q0 -7 -7 -15l-527 -652q-9 -11 -20 -11q-3 0 -9 2zM307 613q0 -74 -74 -102
q87 -21 87 -102q0 -62 -45 -96.5t-128 -34.5q-74 0 -131 28v63q69 -34 132 -34q100 0 100 76q0 69 -110 69h-57v55h57q50 0 73.5 19t23.5 51q0 29 -19 45t-51 16q-51 0 -111 -38l-36 46q36 27 71 38t75 11q66 0 104.5 -29.5t38.5 -80.5z" />
    <glyph glyph-name="questiondown" unicode="&#xbf;" horiz-adv-x="434" 
d="M294 330v-26q0 -57 -18 -93.5t-67 -77.5q-65 -54 -82 -81t-17 -68q0 -47 31 -73.5t89 -26.5q78 0 161 43l31 -71q-97 -48 -195 -48q-95 0 -148.5 45.5t-53.5 128.5q0 36 9.5 63.5t29.5 52.5t79 75q50 44 65 71t15 70v16h71zM317 478q0 -67 -62 -67q-30 0 -45.5 17.5
t-15.5 49.5q0 36 17.5 52t43.5 16t44 -16t18 -52z" />
    <glyph glyph-name="Agrave" unicode="&#xc0;" horiz-adv-x="639" 
d="M75.5 8.5q-35.5 8.5 -68 49.5t-32.5 127q0 66 21 150q31 130 102.5 217t161 128.5t178.5 41.5q48 0 90 -12.5t73 -35.5q7 -4 7 -13q0 -10 -13 -20l-26 -20q-7 -6 -14 -6q-5 0 -11 4q-44 35 -104 35q-57 0 -114.5 -34.5t-104.5 -106.5t-72 -178q-16 -67 -16 -117
q0 -57 19 -85.5t51 -28.5t67 26.5t64.5 74.5t43.5 110l57 245q2 8 8.5 14t14.5 6l113 7h2q9 0 13.5 -6t2.5 -15l-95 -392q-6 -24 -6 -40q0 -38 27 -38q23 0 55 28t57 74q1 4 8 4q10 0 22 -9t10 -14q-38 -82 -100 -130.5t-135 -48.5q-45 0 -67 29.5t-28 68.5q-40 -46 -88 -72
t-98 -26q-40 0 -75.5 8.5zM364 771h-59q-37 29 -80.5 76t-61.5 74v10h105q16 -32 44.5 -76.5t51.5 -71.5v-12z" />
    <glyph glyph-name="Aacute" unicode="&#xc1;" horiz-adv-x="639" 
d="M75.5 8.5q-35.5 8.5 -68 49.5t-32.5 127q0 66 21 150q31 130 102.5 217t161 128.5t178.5 41.5q48 0 90 -12.5t73 -35.5q7 -4 7 -13q0 -10 -13 -20l-26 -20q-7 -6 -14 -6q-5 0 -11 4q-44 35 -104 35q-57 0 -114.5 -34.5t-104.5 -106.5t-72 -178q-16 -67 -16 -117
q0 -57 19 -85.5t51 -28.5t67 26.5t64.5 74.5t43.5 110l57 245q2 8 8.5 14t14.5 6l113 7h2q9 0 13.5 -6t2.5 -15l-95 -392q-6 -24 -6 -40q0 -38 27 -38q23 0 55 28t57 74q1 4 8 4q10 0 22 -9t10 -14q-38 -82 -100 -130.5t-135 -48.5q-45 0 -67 29.5t-28 68.5q-40 -46 -88 -72
t-98 -26q-40 0 -75.5 8.5zM257 783q19 23 47.5 66.5t47.5 81.5h106v-10q-21 -31 -66.5 -78.5t-76.5 -71.5h-58v12z" />
    <glyph glyph-name="Acircumflex" unicode="&#xc2;" horiz-adv-x="639" 
d="M146 782q61 65 86 96.5t37 52.5h90q25 -49 125 -149v-11h-62q-44 26 -109 90q-64 -62 -107 -90h-60v11zM75.5 8.5q-35.5 8.5 -68 49.5t-32.5 127q0 66 21 150q31 130 102.5 217t161 128.5t178.5 41.5q48 0 90 -12.5t73 -35.5q7 -4 7 -13q0 -10 -13 -20l-26 -20
q-7 -6 -14 -6q-5 0 -11 4q-44 35 -104 35q-57 0 -114.5 -34.5t-104.5 -106.5t-72 -178q-16 -67 -16 -117q0 -57 19 -85.5t51 -28.5t67 26.5t64.5 74.5t43.5 110l57 245q2 8 8.5 14t14.5 6l113 7h2q9 0 13.5 -6t2.5 -15l-95 -392q-6 -24 -6 -40q0 -38 27 -38q23 0 55 28
t57 74q1 4 8 4q10 0 22 -9t10 -14q-38 -82 -100 -130.5t-135 -48.5q-45 0 -67 29.5t-28 68.5q-40 -46 -88 -72t-98 -26q-40 0 -75.5 8.5z" />
    <glyph glyph-name="Atilde" unicode="&#xc3;" horiz-adv-x="639" 
d="M390 772q-21 0 -41 9t-39.5 19.5t-37 19.5t-34.5 9q-24 0 -36 -14.5t-19 -43.5h-51q6 60 34 94t76 34q22 0 42.5 -9t39.5 -19.5t37 -19.5t33 -9q23 0 35.5 14.5t19.5 43.5h50q-6 -58 -34 -93t-75 -35zM75.5 8.5q-35.5 8.5 -68 49.5t-32.5 127q0 66 21 150
q31 130 102.5 217t161 128.5t178.5 41.5q48 0 90 -12.5t73 -35.5q7 -4 7 -13q0 -10 -13 -20l-26 -20q-7 -6 -14 -6q-5 0 -11 4q-44 35 -104 35q-57 0 -114.5 -34.5t-104.5 -106.5t-72 -178q-16 -67 -16 -117q0 -57 19 -85.5t51 -28.5t67 26.5t64.5 74.5t43.5 110l57 245
q2 8 8.5 14t14.5 6l113 7h2q9 0 13.5 -6t2.5 -15l-95 -392q-6 -24 -6 -40q0 -38 27 -38q23 0 55 28t57 74q1 4 8 4q10 0 22 -9t10 -14q-38 -82 -100 -130.5t-135 -48.5q-45 0 -67 29.5t-28 68.5q-40 -46 -88 -72t-98 -26q-40 0 -75.5 8.5z" />
    <glyph glyph-name="Adieresis" unicode="&#xc4;" horiz-adv-x="660" 
d="M486 773q-8 0 -15 4.5t-11 10.5q-4 9 -4 16q0 12 6 23.5t16 18.5q11 9 26 9q18 0 26 -15q5 -7 5 -17q0 -11 -6 -21.5t-16 -19.5q-13 -9 -27 -9zM309 773q-8 0 -15.5 4.5t-11.5 10.5q-4 9 -4 16q0 12 6.5 23.5t15.5 18.5q12 9 27 9q18 0 26 -15q4 -7 4 -17
q0 -11 -5.5 -21.5t-16.5 -19.5q-13 -9 -26 -9zM75.5 8.5q-35.5 8.5 -68 49.5t-32.5 127q0 66 21 150q31 130 102.5 217t161 128.5t178.5 41.5q48 0 90 -12.5t73 -35.5q7 -4 7 -13q0 -10 -13 -20l-26 -20q-7 -6 -14 -6q-5 0 -11 4q-44 35 -104 35q-57 0 -114.5 -34.5
t-104.5 -106.5t-72 -178q-16 -67 -16 -117q0 -57 19 -85.5t51 -28.5t67 26.5t64.5 74.5t43.5 110l57 245q2 8 8.5 14t14.5 6l113 7h2q9 0 13.5 -6t2.5 -15l-95 -392q-6 -24 -6 -40q0 -38 27 -38q23 0 55 28t57 74q1 4 8 4q10 0 22 -9t10 -14q-38 -82 -100 -130.5t-135 -48.5
q-45 0 -67 29.5t-28 68.5q-40 -46 -88 -72t-98 -26q-40 0 -75.5 8.5z" />
    <glyph glyph-name="Aring" unicode="&#xc5;" horiz-adv-x="639" 
d="M428 774q0 -34 -14.5 -58t-39.5 -36l264 -680h-93l-86 221h-283l-85 -221h-91l263 677q-26 12 -40.5 36.5t-14.5 59.5q0 48 29.5 76.5t79.5 28.5t80.5 -29t30.5 -75zM432 301l-80 216l-34 107q-15 -59 -31 -107l-81 -216h226zM373 773q0 26 -16 41t-40 15t-40 -15
t-16 -41t14.5 -41t41.5 -15q25 0 40.5 15t15.5 41z" />
    <glyph glyph-name="AE" unicode="&#xc6;" horiz-adv-x="880" 
d="M821 0h-372v221h-250l-107 -221h-93l339 714h483v-79h-282v-223h263v-78h-263v-255h282v-79zM234 301h215v333h-58z" />
    <glyph glyph-name="Ccedilla" unicode="&#xc7;" horiz-adv-x="631" 
d="M264.5 114q53.5 -21 118.5 -21q75 0 140.5 27.5t92.5 77.5q3 6 11 6q11 0 21 -10t6 -19q-25 -53 -80.5 -93.5t-127.5 -62t-146 -21.5q-84 0 -154 28.5t-112.5 88.5t-42.5 150q0 52 12 100q28 123 98 205t161 121t186 39q108 0 161 -33t53 -86q0 -34 -20 -70t-57 -68
q-4 -3 -8 -3q-5 0 -11 4l-83 38q-7 3 -7 9q0 10 16 28q28 31 28 55q0 28 -30 43.5t-58 14.5q-83 -4 -145.5 -58.5t-95 -135.5t-32.5 -162q0 -78 30 -131q22 -40 75.5 -61zM464 -139q0 -48 -37 -74.5t-111 -26.5q-32 0 -50 5v55q18 -5 53 -5q37 0 55.5 9.5t18.5 34.5
q0 43 -91 55l43 86h58l-26 -53q87 -19 87 -86z" />
    <glyph glyph-name="Egrave" unicode="&#xc8;" horiz-adv-x="556" 
d="M83 22q-56 24 -85.5 64t-29.5 87q0 46 28 91t83 81q18 13 34 20q-14 9 -28 23q-48 47 -48 107q0 58 42.5 112.5t119 88.5t171.5 34q110 0 165 -34.5t55 -88.5q0 -33 -19.5 -67.5t-54.5 -66.5q-4 -3 -8 -3q-5 0 -11 4l-83 38q-7 3 -7 9q0 10 16 28q27 30 27 51
q0 24 -30 33.5t-61 8.5q-45 -2 -81.5 -18.5t-57 -43.5t-20.5 -58q0 -30 20.5 -60t62.5 -57q11 -7 11 -16q0 -5 -2 -8l-18 -32q-1 -2 -6 -10.5t-15 -13.5q-60 -29 -88 -61.5t-28 -63.5q0 -36 33 -64.5t80 -36.5q30 -6 64 -6q75 0 140 27.5t93 77.5q3 6 11 6q11 0 21 -10
t6 -19q-39 -84 -142 -130.5t-226 -46.5q-78 0 -134 24zM354 771h-59q-37 29 -80.5 76t-61.5 74v10h105q16 -32 44.5 -76.5t51.5 -71.5v-12z" />
    <glyph glyph-name="Eacute" unicode="&#xc9;" horiz-adv-x="556" 
d="M83 22q-56 24 -85.5 64t-29.5 87q0 46 28 91t83 81q18 13 34 20q-14 9 -28 23q-48 47 -48 107q0 58 42.5 112.5t119 88.5t171.5 34q110 0 165 -34.5t55 -88.5q0 -33 -19.5 -67.5t-54.5 -66.5q-4 -3 -8 -3q-5 0 -11 4l-83 38q-7 3 -7 9q0 10 16 28q27 30 27 51
q0 24 -30 33.5t-61 8.5q-45 -2 -81.5 -18.5t-57 -43.5t-20.5 -58q0 -30 20.5 -60t62.5 -57q11 -7 11 -16q0 -5 -2 -8l-18 -32q-1 -2 -6 -10.5t-15 -13.5q-60 -29 -88 -61.5t-28 -63.5q0 -36 33 -64.5t80 -36.5q30 -6 64 -6q75 0 140 27.5t93 77.5q3 6 11 6q11 0 21 -10
t6 -19q-39 -84 -142 -130.5t-226 -46.5q-78 0 -134 24zM221 783q19 23 47.5 66.5t47.5 81.5h106v-10q-21 -31 -66.5 -78.5t-76.5 -71.5h-58v12z" />
    <glyph glyph-name="Ecircumflex" unicode="&#xca;" horiz-adv-x="556" 
d="M125 782q61 65 86 96.5t37 52.5h90q25 -49 125 -149v-11h-62q-44 26 -109 90q-64 -62 -107 -90h-60v11zM83 22q-56 24 -85.5 64t-29.5 87q0 46 28 91t83 81q18 13 34 20q-14 9 -28 23q-48 47 -48 107q0 58 42.5 112.5t119 88.5t171.5 34q110 0 165 -34.5t55 -88.5
q0 -33 -19.5 -67.5t-54.5 -66.5q-4 -3 -8 -3q-5 0 -11 4l-83 38q-7 3 -7 9q0 10 16 28q27 30 27 51q0 24 -30 33.5t-61 8.5q-45 -2 -81.5 -18.5t-57 -43.5t-20.5 -58q0 -30 20.5 -60t62.5 -57q11 -7 11 -16q0 -5 -2 -8l-18 -32q-1 -2 -6 -10.5t-15 -13.5q-60 -29 -88 -61.5
t-28 -63.5q0 -36 33 -64.5t80 -36.5q30 -6 64 -6q75 0 140 27.5t93 77.5q3 6 11 6q11 0 21 -10t6 -19q-39 -84 -142 -130.5t-226 -46.5q-78 0 -134 24z" />
    <glyph glyph-name="Edieresis" unicode="&#xcb;" horiz-adv-x="556" 
d="M83 22q-56 24 -85.5 64t-29.5 87q0 46 28 91t83 81q18 13 34 20q-14 9 -28 23q-48 47 -48 107q0 58 42.5 112.5t119 88.5t171.5 34q110 0 165 -34.5t55 -88.5q0 -33 -19.5 -67.5t-54.5 -66.5q-4 -3 -8 -3q-5 0 -11 4l-83 38q-7 3 -7 9q0 10 16 28q27 30 27 51
q0 24 -30 33.5t-61 8.5q-45 -2 -81.5 -18.5t-57 -43.5t-20.5 -58q0 -30 20.5 -60t62.5 -57q11 -7 11 -16q0 -5 -2 -8l-18 -32q-1 -2 -6 -10.5t-15 -13.5q-60 -29 -88 -61.5t-28 -63.5q0 -36 33 -64.5t80 -36.5q30 -6 64 -6q75 0 140 27.5t93 77.5q3 6 11 6q11 0 21 -10
t6 -19q-39 -84 -142 -130.5t-226 -46.5q-78 0 -134 24zM156 846q0 26 13.5 37.5t33.5 11.5q19 0 33 -11.5t14 -37.5t-14 -38t-33 -12q-20 0 -33.5 12t-13.5 38zM344 846q0 26 13.5 37.5t32.5 11.5t33 -11.5t14 -37.5t-14 -38t-33 -12t-32.5 12t-13.5 38z" />
    <glyph glyph-name="Igrave" unicode="&#xcc;" horiz-adv-x="338" 
d="M181.5 6q-4.5 6 -2.5 16l143 629q-33 -5 -74 -32t-70.5 -74.5t-29.5 -110.5q0 -50 21 -105q2 -8 2 -10q0 -11 -13 -17l-93 -32l-9 -2q-12 0 -17 14q-20 60 -20 117q0 85 44 153t117 111t159 57l132 8h2q10 0 14 -5.5t2 -15.5l-158 -689q-4 -18 -22 -18h-112
q-11 0 -15.5 6zM230 771h-59q-37 29 -80.5 76t-61.5 74v10h105q16 -32 44.5 -76.5t51.5 -71.5v-12z" />
    <glyph glyph-name="Iacute" unicode="&#xcd;" horiz-adv-x="338" 
d="M181.5 6q-4.5 6 -2.5 16l143 629q-33 -5 -74 -32t-70.5 -74.5t-29.5 -110.5q0 -50 21 -105q2 -8 2 -10q0 -11 -13 -17l-93 -32l-9 -2q-12 0 -17 14q-20 60 -20 117q0 85 44 153t117 111t159 57l132 8h2q10 0 14 -5.5t2 -15.5l-158 -689q-4 -18 -22 -18h-112
q-11 0 -15.5 6zM115 783q19 23 47.5 66.5t47.5 81.5h106v-10q-21 -31 -66.5 -78.5t-76.5 -71.5h-58v12z" />
    <glyph glyph-name="Icircumflex" unicode="&#xce;" horiz-adv-x="338" 
d="M-1 782q61 65 86 96.5t37 52.5h90q25 -49 125 -149v-11h-62q-44 26 -109 90q-64 -62 -107 -90h-60v11zM181.5 6q-4.5 6 -2.5 16l143 629q-33 -5 -74 -32t-70.5 -74.5t-29.5 -110.5q0 -50 21 -105q2 -8 2 -10q0 -11 -13 -17l-93 -32l-9 -2q-12 0 -17 14q-20 60 -20 117
q0 85 44 153t117 111t159 57l132 8h2q10 0 14 -5.5t2 -15.5l-158 -689q-4 -18 -22 -18h-112q-11 0 -15.5 6z" />
    <glyph glyph-name="Idieresis" unicode="&#xcf;" horiz-adv-x="338" 
d="M181.5 6q-4.5 6 -2.5 16l143 629q-33 -5 -74 -32t-70.5 -74.5t-29.5 -110.5q0 -50 21 -105q2 -8 2 -10q0 -11 -13 -17l-93 -32l-9 -2q-12 0 -17 14q-20 60 -20 117q0 85 44 153t117 111t159 57l132 8h2q10 0 14 -5.5t2 -15.5l-158 -689q-4 -18 -22 -18h-112
q-11 0 -15.5 6zM29 846q0 26 13.5 37.5t33.5 11.5q19 0 33 -11.5t14 -37.5t-14 -38t-33 -12q-20 0 -33.5 12t-13.5 38zM217 846q0 26 13.5 37.5t32.5 11.5t33 -11.5t14 -37.5t-14 -38t-33 -12t-32.5 12t-13.5 38z" />
    <glyph glyph-name="Eth" unicode="&#xd0;" horiz-adv-x="729" 
d="M669 364q0 -175 -96 -269.5t-278 -94.5h-191v314h-74v78h74v322h213q167 0 259.5 -92t92.5 -258zM574 361q0 137 -68 206.5t-202 69.5h-110v-245h178v-78h-178v-237h90q290 0 290 284z" />
    <glyph glyph-name="Ntilde" unicode="&#xd1;" horiz-adv-x="759" 
d="M459 772q-21 0 -41 9t-39.5 19.5t-37 19.5t-34.5 9q-24 0 -36 -14.5t-19 -43.5h-51q6 60 34 94t76 34q22 0 42.5 -9t39.5 -19.5t37 -19.5t33 -9q23 0 35.5 14.5t19.5 43.5h50q-6 -58 -34 -93t-75 -35zM178 20l146 631q-34 -5 -75.5 -32t-71 -75t-29.5 -111q0 -50 20 -104
q2 -6 2 -9q0 -13 -16 -19l-89 -31q-4 -2 -10 -2q-11 0 -15 11q-21 59 -21 119q0 86 44.5 154t117.5 111t159 57l137 7h3q14 0 18 -15l86 -477l107 466q4 19 24 21l66 6h3q19 0 14 -19l-159 -689q-5 -20 -25 -20h-116q-9 0 -13 4t-6 12l-86 479l-110 -475q-5 -20 -25 -20h-65
q-20 0 -15 20z" />
    <glyph glyph-name="Ograve" unicode="&#xd2;" horiz-adv-x="780" 
d="M49 73q-58 73 -58 187q0 50 13 112q19 88 61.5 165.5t100 125t120.5 47.5l14 -1q8 -1 10 -4.5t1 -14.5l-5 -39q0 -3 -1 -9.5t-3.5 -10.5t-8.5 -6q-47 -21 -83 -92.5t-53 -161.5q-10 -53 -10 -108q0 -74 21.5 -118t66.5 -44q41 0 86 36.5t84 98t63 133.5q26 76 26 153
q0 32 -4 56q-5 34 -13.5 51t-17.5 17q-14 0 -25 -28.5t-11 -66.5q0 -39 13 -72q1 -2 1 -7q0 -16 -19 -19l-92 -16l-7 -1q-13 0 -16 11q-14 34 -14 72q0 51 22.5 98t64 77t96.5 30q83 0 126 -60.5t43 -156.5q0 -66 -20 -138q-27 -95 -84 -179.5t-137.5 -137t-173.5 -52.5
q-119 0 -177 73zM448 771h-59q-37 29 -80.5 76t-61.5 74v10h105q16 -32 44.5 -76.5t51.5 -71.5v-12z" />
    <glyph glyph-name="Oacute" unicode="&#xd3;" horiz-adv-x="780" 
d="M49 73q-58 73 -58 187q0 50 13 112q19 88 61.5 165.5t100 125t120.5 47.5l14 -1q8 -1 10 -4.5t1 -14.5l-5 -39q0 -3 -1 -9.5t-3.5 -10.5t-8.5 -6q-47 -21 -83 -92.5t-53 -161.5q-10 -53 -10 -108q0 -74 21.5 -118t66.5 -44q41 0 86 36.5t84 98t63 133.5q26 76 26 153
q0 32 -4 56q-5 34 -13.5 51t-17.5 17q-14 0 -25 -28.5t-11 -66.5q0 -39 13 -72q1 -2 1 -7q0 -16 -19 -19l-92 -16l-7 -1q-13 0 -16 11q-14 34 -14 72q0 51 22.5 98t64 77t96.5 30q83 0 126 -60.5t43 -156.5q0 -66 -20 -138q-27 -95 -84 -179.5t-137.5 -137t-173.5 -52.5
q-119 0 -177 73zM321 783q19 23 47.5 66.5t47.5 81.5h106v-10q-21 -31 -66.5 -78.5t-76.5 -71.5h-58v12z" />
    <glyph glyph-name="Ocircumflex" unicode="&#xd4;" horiz-adv-x="780" 
d="M215 782q61 65 86 96.5t37 52.5h90q25 -49 125 -149v-11h-62q-44 26 -109 90q-64 -62 -107 -90h-60v11zM49 73q-58 73 -58 187q0 50 13 112q19 88 61.5 165.5t100 125t120.5 47.5l14 -1q8 -1 10 -4.5t1 -14.5l-5 -39q0 -3 -1 -9.5t-3.5 -10.5t-8.5 -6q-47 -21 -83 -92.5
t-53 -161.5q-10 -53 -10 -108q0 -74 21.5 -118t66.5 -44q41 0 86 36.5t84 98t63 133.5q26 76 26 153q0 32 -4 56q-5 34 -13.5 51t-17.5 17q-14 0 -25 -28.5t-11 -66.5q0 -39 13 -72q1 -2 1 -7q0 -16 -19 -19l-92 -16l-7 -1q-13 0 -16 11q-14 34 -14 72q0 51 22.5 98t64 77
t96.5 30q83 0 126 -60.5t43 -156.5q0 -66 -20 -138q-27 -95 -84 -179.5t-137.5 -137t-173.5 -52.5q-119 0 -177 73z" />
    <glyph glyph-name="Otilde" unicode="&#xd5;" horiz-adv-x="780" 
d="M461 772q-21 0 -41 9t-39.5 19.5t-37 19.5t-34.5 9q-24 0 -36 -14.5t-19 -43.5h-51q6 60 34 94t76 34q22 0 42.5 -9t39.5 -19.5t37 -19.5t33 -9q23 0 35.5 14.5t19.5 43.5h50q-6 -58 -34 -93t-75 -35zM49 73q-58 73 -58 187q0 50 13 112q19 88 61.5 165.5t100 125
t120.5 47.5l14 -1q8 -1 10 -4.5t1 -14.5l-5 -39q0 -3 -1 -9.5t-3.5 -10.5t-8.5 -6q-47 -21 -83 -92.5t-53 -161.5q-10 -53 -10 -108q0 -74 21.5 -118t66.5 -44q41 0 86 36.5t84 98t63 133.5q26 76 26 153q0 32 -4 56q-5 34 -13.5 51t-17.5 17q-14 0 -25 -28.5t-11 -66.5
q0 -39 13 -72q1 -2 1 -7q0 -16 -19 -19l-92 -16l-7 -1q-13 0 -16 11q-14 34 -14 72q0 51 22.5 98t64 77t96.5 30q83 0 126 -60.5t43 -156.5q0 -66 -20 -138q-27 -95 -84 -179.5t-137.5 -137t-173.5 -52.5q-119 0 -177 73z" />
    <glyph glyph-name="Odieresis" unicode="&#xd6;" horiz-adv-x="713" 
d="M496 773q-8 0 -15 4.5t-11 10.5q-4 9 -4 16q0 12 6 23.5t16 18.5q11 9 26 9q18 0 26 -15q5 -7 5 -17q0 -11 -6 -21.5t-16 -19.5q-13 -9 -27 -9zM319 773q-8 0 -15.5 4.5t-11.5 10.5q-4 9 -4 16q0 12 6.5 23.5t15.5 18.5q12 9 27 9q18 0 26 -15q4 -7 4 -17
q0 -11 -5.5 -21.5t-16.5 -19.5q-13 -9 -26 -9zM49 73q-58 73 -58 187q0 50 13 112q19 88 61.5 165.5t100 125t120.5 47.5l14 -1q8 -1 10 -4.5t1 -14.5l-5 -39q0 -3 -1 -9.5t-3.5 -10.5t-8.5 -6q-47 -21 -83 -92.5t-53 -161.5q-10 -53 -10 -108q0 -74 21.5 -118t66.5 -44
q41 0 86 36.5t84 98t63 133.5q26 76 26 153q0 32 -4 56q-5 34 -13.5 51t-17.5 17q-14 0 -25 -28.5t-11 -66.5q0 -39 13 -72q1 -2 1 -7q0 -16 -19 -19l-92 -16l-7 -1q-13 0 -16 11q-14 34 -14 72q0 51 22.5 98t64 77t96.5 30q83 0 126 -60.5t43 -156.5q0 -66 -20 -138
q-27 -95 -84 -179.5t-137.5 -137t-173.5 -52.5q-119 0 -177 73z" />
    <glyph glyph-name="multiply" unicode="&#xd7;" horiz-adv-x="461" 
d="M285 99q-7 0 -13 7l-98 129l-159 -129q-9 -6 -15 -6q-8 0 -13 8l-19 36q-4 5 -4 11q0 8 11 17l151 123l-102 134q-4 6 -4 10q0 9 12 18l42 28q6 5 15 5q7 0 13 -7l98 -128l172 139q8 7 16 7q7 0 12 -8l20 -36q3 -4 3 -10q0 -9 -12 -18l-165 -134l105 -134q3 -4 3 -9
q0 -11 -12 -19l-42 -28q-9 -6 -15 -6z" />
    <glyph glyph-name="Oslash" unicode="&#xd8;" horiz-adv-x="780" 
d="M720 358q0 -171 -86.5 -269.5t-242.5 -98.5q-113 0 -185 47l-48 -68l-61 40l52 74q-88 97 -88 276q0 174 85.5 270t245.5 96q100 0 178 -45l46 66l61 -41l-51 -71q94 -99 94 -276zM625 358q0 129 -51 202l-320 -454q56 -38 137 -38q115 0 174.5 73t59.5 217zM156 358
q0 -126 47 -198l319 451q-53 35 -130 35q-116 0 -176 -73.5t-60 -214.5z" />
    <glyph glyph-name="Ugrave" unicode="&#xd9;" horiz-adv-x="730" 
d="M223 25q-25 25 -25 67q0 19 5 42l120 517q-34 -5 -75.5 -32t-71 -75t-29.5 -111q0 -50 20 -104q2 -6 2 -9q0 -13 -16 -19l-89 -31q-4 -2 -10 -2q-11 0 -15 11q-21 59 -21 119q0 86 44.5 154t117.5 111t159 57l134 9h3q18 0 13 -20l-127 -535q-4 -16 -4 -33
q0 -25 12.5 -38t33.5 -13q38 0 82.5 35.5t69.5 92.5l111 485q5 17 21 18l114 7h2q10 0 14.5 -5.5t1.5 -15.5l-127 -533q-5 -23 -5 -37q0 -23 9.5 -35t25.5 -12q27 0 62 29.5t61 78.5q3 6 13.5 2.5t19 -11.5t5.5 -14q-38 -78 -108 -126.5t-144 -48.5q-53 0 -77 24.5t-24 65.5
l1 15q-48 -48 -111 -76.5t-119 -28.5q-54 0 -79 25zM422 771h-59q-37 29 -80.5 76t-61.5 74v10h105q16 -32 44.5 -76.5t51.5 -71.5v-12z" />
    <glyph glyph-name="Uacute" unicode="&#xda;" horiz-adv-x="730" 
d="M223 25q-25 25 -25 67q0 19 5 42l120 517q-34 -5 -75.5 -32t-71 -75t-29.5 -111q0 -50 20 -104q2 -6 2 -9q0 -13 -16 -19l-89 -31q-4 -2 -10 -2q-11 0 -15 11q-21 59 -21 119q0 86 44.5 154t117.5 111t159 57l134 9h3q18 0 13 -20l-127 -535q-4 -16 -4 -33
q0 -25 12.5 -38t33.5 -13q38 0 82.5 35.5t69.5 92.5l111 485q5 17 21 18l114 7h2q10 0 14.5 -5.5t1.5 -15.5l-127 -533q-5 -23 -5 -37q0 -23 9.5 -35t25.5 -12q27 0 62 29.5t61 78.5q3 6 13.5 2.5t19 -11.5t5.5 -14q-38 -78 -108 -126.5t-144 -48.5q-53 0 -77 24.5t-24 65.5
l1 15q-48 -48 -111 -76.5t-119 -28.5q-54 0 -79 25zM293 783q19 23 47.5 66.5t47.5 81.5h106v-10q-21 -31 -66.5 -78.5t-76.5 -71.5h-58v12z" />
    <glyph glyph-name="Ucircumflex" unicode="&#xdb;" horiz-adv-x="730" 
d="M189 782q61 65 86 96.5t37 52.5h90q25 -49 125 -149v-11h-62q-44 26 -109 90q-64 -62 -107 -90h-60v11zM223 25q-25 25 -25 67q0 19 5 42l120 517q-34 -5 -75.5 -32t-71 -75t-29.5 -111q0 -50 20 -104q2 -6 2 -9q0 -13 -16 -19l-89 -31q-4 -2 -10 -2q-11 0 -15 11
q-21 59 -21 119q0 86 44.5 154t117.5 111t159 57l134 9h3q18 0 13 -20l-127 -535q-4 -16 -4 -33q0 -25 12.5 -38t33.5 -13q38 0 82.5 35.5t69.5 92.5l111 485q5 17 21 18l114 7h2q10 0 14.5 -5.5t1.5 -15.5l-127 -533q-5 -23 -5 -37q0 -23 9.5 -35t25.5 -12q27 0 62 29.5
t61 78.5q3 6 13.5 2.5t19 -11.5t5.5 -14q-38 -78 -108 -126.5t-144 -48.5q-53 0 -77 24.5t-24 65.5l1 15q-48 -48 -111 -76.5t-119 -28.5q-54 0 -79 25z" />
    <glyph glyph-name="Udieresis" unicode="&#xdc;" horiz-adv-x="879" 
d="M676 773q-8 0 -15 4.5t-11 10.5q-4 9 -4 16q0 12 6 23.5t16 18.5q11 9 26 9q18 0 26 -15q5 -7 5 -17q0 -11 -6 -21.5t-16 -19.5q-13 -9 -27 -9zM499 773q-8 0 -15.5 4.5t-11.5 10.5q-4 9 -4 16q0 12 6.5 23.5t15.5 18.5q12 9 27 9q18 0 26 -15q4 -7 4 -17
q0 -11 -5.5 -21.5t-16.5 -19.5q-13 -9 -26 -9zM223 25q-25 25 -25 67q0 19 5 42l120 517q-34 -5 -75.5 -32t-71 -75t-29.5 -111q0 -50 20 -104q2 -6 2 -9q0 -13 -16 -19l-89 -31q-4 -2 -10 -2q-11 0 -15 11q-21 59 -21 119q0 86 44.5 154t117.5 111t159 57l134 9h3
q18 0 13 -20l-127 -535q-4 -16 -4 -33q0 -25 12.5 -38t33.5 -13q38 0 82.5 35.5t69.5 92.5l111 485q5 17 21 18l114 7h2q10 0 14.5 -5.5t1.5 -15.5l-127 -533q-5 -23 -5 -37q0 -23 9.5 -35t25.5 -12q27 0 62 29.5t61 78.5q3 6 13.5 2.5t19 -11.5t5.5 -14
q-38 -78 -108 -126.5t-144 -48.5q-53 0 -77 24.5t-24 65.5l1 15q-48 -48 -111 -76.5t-119 -28.5q-54 0 -79 25z" />
    <glyph glyph-name="Yacute" unicode="&#xdd;" horiz-adv-x="565" 
d="M280 -197q0 10 1 15q6 53 35.5 85t72 49.5t113.5 37.5l21 94l3 16q-48 -46 -108.5 -73t-115.5 -27q-54 0 -79 25t-25 67q0 19 5 42l120 517q-34 -5 -75.5 -32t-71 -75t-29.5 -111q0 -50 20 -104q2 -6 2 -9q0 -13 -16 -19l-89 -31q-4 -2 -10 -2q-11 0 -15 11
q-21 59 -21 119q0 86 44.5 154t117.5 111t159 57l134 9h3q14 0 14 -12q0 -5 -1 -8l-127 -535q-4 -16 -4 -32q0 -25 12.5 -38.5t33.5 -13.5q36 0 78.5 33t69.5 87l1 4l42 175l72 314q5 17 21 18l114 7h2q10 0 14.5 -5.5t1.5 -15.5l-125 -533l-1 -3l-32 -138q16 4 45.5 27.5
t61.5 60t53 77.5q1 4 7 4q10 0 22.5 -10t8.5 -17q-32 -66 -88.5 -125.5t-134.5 -105.5q-24 -78 -51 -127.5t-72.5 -78t-116.5 -28.5q-117 0 -117 93zM453.5 -176q11.5 15 16 30t14.5 56q-6 -2 -24 -6.5t-28.5 -10t-17.5 -12.5q-9 -9 -14 -22.5t-5 -25.5q0 -13 7 -20.5
t20 -6.5q20 3 31.5 18zM216 783q19 23 47.5 66.5t47.5 81.5h106v-10q-21 -31 -66.5 -78.5t-76.5 -71.5h-58v12z" />
    <glyph glyph-name="Thorn" unicode="&#xde;" horiz-adv-x="604" 
d="M554 382q0 -110 -73.5 -168.5t-212.5 -58.5h-81v-155h-90v714h90v-124h96q137 0 204 -51.5t67 -156.5zM187 231h72q108 0 155 34.5t47 111.5q0 70 -44.5 103t-140.5 33h-89v-282z" />
    <glyph glyph-name="germandbls" unicode="&#xdf;" horiz-adv-x="480" 
d="M264 -6q157 40 180 127q7 25 8 47q2 41 -21.5 85.5t-68.5 82.5q100 14 115 89q4 19 5 26q8 75 -31.5 138.5t-108.5 107.5q-71 45 -151 66l-125 35q-10 2 -17 -2q-6 -5 -6 -15l-25 -1175q0 -17 16 -23l109 -37h2q10 -3 15 1q6 5 6 15l8 797q86 -24 109 -69q42 -80 20 -90
q-76 -31 -74 -51q12 -161 35 -155zM300.5 620.5q38.5 -52.5 35.5 -121.5q0 -7 -4 -20q-11 -40 -53.5 -53t-101.5 3l11 264q74 -20 112.5 -72.5z" />
    <glyph glyph-name="agrave" unicode="&#xe0;" horiz-adv-x="561" 
d="M-5 39q-36 39 -36 107q0 38 10 78q19 76 63.5 129.5t103.5 80t122 26.5q51 0 98.5 -17.5t84.5 -50.5q7 -6 7 -13q0 -9 -9 -15l-32 -25q-8 -5 -13 -5q-6 0 -15 7q-50 46 -108 46q-56 0 -99.5 -45.5t-60.5 -129.5q-7 -35 -7 -65q0 -34 10 -51.5t26 -17.5q20 0 44.5 25
t48.5 72.5t40 111.5q4 17 21 19l115 7h2q10 0 14.5 -5.5t1.5 -15.5l-32 -118q-7 -25 -7 -44q0 -20 7.5 -30t20.5 -10q24 0 56 29.5t57 78.5q3 6 13.5 2.5t18.5 -11.5t6 -14q-38 -81 -99 -128t-133 -47q-39 0 -60.5 21t-30.5 53q-55 -74 -140 -74q-73 0 -109 39zM335 606h-59
q-37 29 -80.5 76t-61.5 74v10h105q16 -32 44.5 -76.5t51.5 -71.5v-12z" />
    <glyph glyph-name="aacute" unicode="&#xe1;" horiz-adv-x="561" 
d="M-5 39q-36 39 -36 107q0 38 10 78q19 76 63.5 129.5t103.5 80t122 26.5q51 0 98.5 -17.5t84.5 -50.5q7 -6 7 -13q0 -9 -9 -15l-32 -25q-8 -5 -13 -5q-6 0 -15 7q-50 46 -108 46q-56 0 -99.5 -45.5t-60.5 -129.5q-7 -35 -7 -65q0 -34 10 -51.5t26 -17.5q20 0 44.5 25
t48.5 72.5t40 111.5q4 17 21 19l115 7h2q10 0 14.5 -5.5t1.5 -15.5l-32 -118q-7 -25 -7 -44q0 -20 7.5 -30t20.5 -10q24 0 56 29.5t57 78.5q3 6 13.5 2.5t18.5 -11.5t6 -14q-38 -81 -99 -128t-133 -47q-39 0 -60.5 21t-30.5 53q-55 -74 -140 -74q-73 0 -109 39zM213 618
q19 23 47.5 66.5t47.5 81.5h106v-10q-21 -31 -66.5 -78.5t-76.5 -71.5h-58v12z" />
    <glyph glyph-name="acircumflex" unicode="&#xe2;" horiz-adv-x="561" 
d="M109 617q61 65 86 96.5t37 52.5h90q25 -49 125 -149v-11h-62q-44 26 -109 90q-64 -62 -107 -90h-60v11zM-5 39q-36 39 -36 107q0 38 10 78q19 76 63.5 129.5t103.5 80t122 26.5q51 0 98.5 -17.5t84.5 -50.5q7 -6 7 -13q0 -9 -9 -15l-32 -25q-8 -5 -13 -5q-6 0 -15 7
q-50 46 -108 46q-56 0 -99.5 -45.5t-60.5 -129.5q-7 -35 -7 -65q0 -34 10 -51.5t26 -17.5q20 0 44.5 25t48.5 72.5t40 111.5q4 17 21 19l115 7h2q10 0 14.5 -5.5t1.5 -15.5l-32 -118q-7 -25 -7 -44q0 -20 7.5 -30t20.5 -10q24 0 56 29.5t57 78.5q3 6 13.5 2.5t18.5 -11.5
t6 -14q-38 -81 -99 -128t-133 -47q-39 0 -60.5 21t-30.5 53q-55 -74 -140 -74q-73 0 -109 39z" />
    <glyph glyph-name="atilde" unicode="&#xe3;" horiz-adv-x="561" 
d="M356 607q-21 0 -41 9t-39.5 19.5t-37 19.5t-34.5 9q-24 0 -36 -14.5t-19 -43.5h-51q6 60 34 94t76 34q22 0 42.5 -9t39.5 -19.5t37 -19.5t33 -9q23 0 35.5 14.5t19.5 43.5h50q-6 -58 -34 -93t-75 -35zM-5 39q-36 39 -36 107q0 38 10 78q19 76 63.5 129.5t103.5 80
t122 26.5q51 0 98.5 -17.5t84.5 -50.5q7 -6 7 -13q0 -9 -9 -15l-32 -25q-8 -5 -13 -5q-6 0 -15 7q-50 46 -108 46q-56 0 -99.5 -45.5t-60.5 -129.5q-7 -35 -7 -65q0 -34 10 -51.5t26 -17.5q20 0 44.5 25t48.5 72.5t40 111.5q4 17 21 19l115 7h2q10 0 14.5 -5.5t1.5 -15.5
l-32 -118q-7 -25 -7 -44q0 -20 7.5 -30t20.5 -10q24 0 56 29.5t57 78.5q3 6 13.5 2.5t18.5 -11.5t6 -14q-38 -81 -99 -128t-133 -47q-39 0 -60.5 21t-30.5 53q-55 -74 -140 -74q-73 0 -109 39z" />
    <glyph glyph-name="adieresis" unicode="&#xe4;" horiz-adv-x="562" 
d="M344 507q-7 0 -13.5 3.5t-10.5 10.5q-3 7 -3 14q0 10 5.5 20.5t14.5 16.5q10 9 24 9q16 0 23 -14q4 -7 4 -15q0 -10 -5 -19.5t-15 -17.5q-12 -8 -24 -8zM184 507q-7 0 -13.5 3.5t-10.5 10.5q-3 7 -3 14q0 10 5.5 20.5t14.5 16.5q10 9 24 9q16 0 23 -14q4 -7 4 -15
q0 -10 -5 -19.5t-15 -17.5q-12 -8 -24 -8zM-5 39q-36 39 -36 107q0 38 10 78q19 76 63.5 129.5t103.5 80t122 26.5q51 0 98.5 -17.5t84.5 -50.5q7 -6 7 -13q0 -9 -9 -15l-32 -25q-8 -5 -13 -5q-6 0 -15 7q-50 46 -108 46q-56 0 -99.5 -45.5t-60.5 -129.5q-7 -35 -7 -65
q0 -34 10 -51.5t26 -17.5q20 0 44.5 25t48.5 72.5t40 111.5q4 17 21 19l115 7h2q10 0 14.5 -5.5t1.5 -15.5l-32 -118q-7 -25 -7 -44q0 -20 7.5 -30t20.5 -10q24 0 56 29.5t57 78.5q3 6 13.5 2.5t18.5 -11.5t6 -14q-38 -81 -99 -128t-133 -47q-39 0 -60.5 21t-30.5 53
q-55 -74 -140 -74q-73 0 -109 39z" />
    <glyph glyph-name="aring" unicode="&#xe5;" horiz-adv-x="561" 
d="M397 713q0 -49 -30.5 -78t-80.5 -29t-79.5 28.5t-29.5 77.5q0 48 29.5 76.5t79.5 28.5q49 0 80 -29t31 -75zM342 712q0 26 -16 41t-40 15t-40 -15t-16 -41t14.5 -41t41.5 -15q25 0 40.5 15t15.5 41zM-5 39q-36 39 -36 107q0 38 10 78q19 76 63.5 129.5t103.5 80t122 26.5
q51 0 98.5 -17.5t84.5 -50.5q7 -6 7 -13q0 -9 -9 -15l-32 -25q-8 -5 -13 -5q-6 0 -15 7q-50 46 -108 46q-56 0 -99.5 -45.5t-60.5 -129.5q-7 -35 -7 -65q0 -34 10 -51.5t26 -17.5q20 0 44.5 25t48.5 72.5t40 111.5q4 17 21 19l115 7h2q10 0 14.5 -5.5t1.5 -15.5l-32 -118
q-7 -25 -7 -44q0 -20 7.5 -30t20.5 -10q24 0 56 29.5t57 78.5q3 6 13.5 2.5t18.5 -11.5t6 -14q-38 -81 -99 -128t-133 -47q-39 0 -60.5 21t-30.5 53q-55 -74 -140 -74q-73 0 -109 39z" />
    <glyph glyph-name="ae" unicode="&#xe6;" horiz-adv-x="863" 
d="M46 149q0 163 244 171l90 3v34q0 60 -27.5 88.5t-84.5 28.5q-68 0 -150 -41l-27 66q35 20 84.5 33t99.5 13q62 0 102.5 -20.5t61.5 -65.5q26 42 67.5 64.5t96.5 22.5q96 0 153 -66t57 -174v-54h-343q4 -187 155 -187q43 0 80.5 8t83.5 29v-77q-43 -19 -80 -27t-87 -8
q-142 0 -203 113q-40 -61 -88.5 -87t-114.5 -26q-80 0 -125 42t-45 117zM137 148q0 -45 25.5 -66t67.5 -21q68 0 108 40t40 113v48l-75 -3q-86 -3 -126 -29t-40 -82zM602 474q-58 0 -91 -39t-39 -114h248q0 74 -30.5 113.5t-87.5 39.5z" />
    <glyph glyph-name="ccedilla" unicode="&#xe7;" horiz-adv-x="479" 
d="M378 80.5q-51 -40.5 -112.5 -62t-120.5 -21.5q-80 0 -131.5 41t-51.5 120q0 31 9 70q16 66 56.5 120t101 85t133.5 31q64 0 95.5 -21.5t31.5 -57.5q0 -32 -24 -72q-7 -12 -22 -14l-57 -9h-5q-13 0 -13 11q0 3 4 13q14 28 14 47q0 21 -13 29t-29 8q-46 0 -81.5 -54.5
t-48.5 -127.5q-4 -19 -4 -39q0 -51 29 -76.5t75 -25.5q55 0 114 34t91 89q6 12 16 12q5 0 13 -5l3 -2q9 -6 9 -17q0 -5 -3 -11q-28 -54 -79 -94.5zM374 -139q0 -48 -37 -74.5t-111 -26.5q-32 0 -50 5v55q18 -5 53 -5q37 0 55.5 9.5t18.5 34.5q0 43 -91 55l43 86h58l-26 -53
q87 -19 87 -86z" />
    <glyph glyph-name="egrave" unicode="&#xe8;" horiz-adv-x="563" 
d="M13.5 39.5q-51.5 39.5 -51.5 118.5q0 31 9 70q16 66 56.5 120t101 85t133.5 31h13q61 -3 90 -26t29 -59q0 -43 -36.5 -91t-95.5 -80.5t-122 -32.5q-9 0 -29 2q1 -52 29.5 -77t74.5 -25q56 0 115 34.5t90 88.5q3 6 13.5 2t18.5 -12t6 -13q-28 -54 -79.5 -93.5
t-112.5 -60.5t-120 -21q-81 0 -132.5 39.5zM138 246q40 0 73.5 19t53.5 47t20 51q0 16 -10.5 25.5t-31.5 9.5q-40 0 -73.5 -44.5t-49.5 -106.5q6 -1 18 -1zM353 606h-59q-37 29 -80.5 76t-61.5 74v10h105q16 -32 44.5 -76.5t51.5 -71.5v-12z" />
    <glyph glyph-name="eacute" unicode="&#xe9;" horiz-adv-x="563" 
d="M13.5 39.5q-51.5 39.5 -51.5 118.5q0 31 9 70q16 66 56.5 120t101 85t133.5 31h13q61 -3 90 -26t29 -59q0 -43 -36.5 -91t-95.5 -80.5t-122 -32.5q-9 0 -29 2q1 -52 29.5 -77t74.5 -25q56 0 115 34.5t90 88.5q3 6 13.5 2t18.5 -12t6 -13q-28 -54 -79.5 -93.5
t-112.5 -60.5t-120 -21q-81 0 -132.5 39.5zM138 246q40 0 73.5 19t53.5 47t20 51q0 16 -10.5 25.5t-31.5 9.5q-40 0 -73.5 -44.5t-49.5 -106.5q6 -1 18 -1zM228 618q19 23 47.5 66.5t47.5 81.5h106v-10q-21 -31 -66.5 -78.5t-76.5 -71.5h-58v12z" />
    <glyph glyph-name="ecircumflex" unicode="&#xea;" horiz-adv-x="563" 
d="M124 617q61 65 86 96.5t37 52.5h90q25 -49 125 -149v-11h-62q-44 26 -109 90q-64 -62 -107 -90h-60v11zM13.5 39.5q-51.5 39.5 -51.5 118.5q0 31 9 70q16 66 56.5 120t101 85t133.5 31h13q61 -3 90 -26t29 -59q0 -43 -36.5 -91t-95.5 -80.5t-122 -32.5q-9 0 -29 2
q1 -52 29.5 -77t74.5 -25q56 0 115 34.5t90 88.5q3 6 13.5 2t18.5 -12t6 -13q-28 -54 -79.5 -93.5t-112.5 -60.5t-120 -21q-81 0 -132.5 39.5zM138 246q40 0 73.5 19t53.5 47t20 51q0 16 -10.5 25.5t-31.5 9.5q-40 0 -73.5 -44.5t-49.5 -106.5q6 -1 18 -1z" />
    <glyph glyph-name="edieresis" unicode="&#xeb;" horiz-adv-x="563" 
d="M13.5 39.5q-51.5 39.5 -51.5 118.5q0 31 9 70q16 66 56.5 120t101 85t133.5 31h13q61 -3 90 -26t29 -59q0 -43 -36.5 -91t-95.5 -80.5t-122 -32.5q-9 0 -29 2q1 -52 29.5 -77t74.5 -25q56 0 115 34.5t90 88.5q3 6 13.5 2t18.5 -12t6 -13q-28 -54 -79.5 -93.5
t-112.5 -60.5t-120 -21q-81 0 -132.5 39.5zM138 246q40 0 73.5 19t53.5 47t20 51q0 16 -10.5 25.5t-31.5 9.5q-40 0 -73.5 -44.5t-49.5 -106.5q6 -1 18 -1zM154 681q0 26 13.5 37.5t33.5 11.5q19 0 33 -11.5t14 -37.5t-14 -38t-33 -12q-20 0 -33.5 12t-13.5 38zM342 681
q0 26 13.5 37.5t32.5 11.5t33 -11.5t14 -37.5t-14 -38t-33 -12t-32.5 12t-13.5 38z" />
    <glyph glyph-name="igrave" unicode="&#xec;" horiz-adv-x="257" 
d="M173 0h-88v536h88v-536zM180 606h-59q-37 29 -80.5 76t-61.5 74v10h105q16 -32 44.5 -76.5t51.5 -71.5v-12z" />
    <glyph glyph-name="iacute" unicode="&#xed;" horiz-adv-x="257" 
d="M173 0h-88v536h88v-536zM82 618q19 23 47.5 66.5t47.5 81.5h106v-10q-21 -31 -66.5 -78.5t-76.5 -71.5h-58v12z" />
    <glyph glyph-name="icircumflex" unicode="&#xee;" horiz-adv-x="257" 
d="M-40 617q61 65 86 96.5t37 52.5h90q25 -49 125 -149v-11h-62q-44 26 -109 90q-64 -62 -107 -90h-60v11zM173 0h-88v536h88v-536z" />
    <glyph glyph-name="idieresis" unicode="&#xef;" horiz-adv-x="257" 
d="M173 0h-88v536h88v-536zM-11 681q0 26 13.5 37.5t33.5 11.5q19 0 33 -11.5t14 -37.5t-14 -38t-33 -12q-20 0 -33.5 12t-13.5 38zM177 681q0 26 13.5 37.5t32.5 11.5t33 -11.5t14 -37.5t-14 -38t-33 -12t-32.5 12t-13.5 38z" />
    <glyph glyph-name="eth" unicode="&#xf0;" horiz-adv-x="604" 
d="M551 275q0 -138 -65 -211.5t-185 -73.5q-110 0 -178 66.5t-68 176.5q0 112 63.5 176t171.5 64q110 0 156 -58l4 2q-29 104 -124 191l-130 -75l-38 55l112 64q-42 28 -90 53l36 60q76 -36 126 -72l115 67l38 -54l-99 -57q74 -68 114.5 -164.5t40.5 -209.5zM462 251
q0 70 -43 110.5t-116 40.5q-81 0 -120 -42.5t-39 -129.5q0 -81 41 -124.5t118 -43.5q83 0 121 48.5t38 140.5z" />
    <glyph glyph-name="ntilde" unicode="&#xf1;" horiz-adv-x="618" 
d="M392 607q-21 0 -41 9t-39.5 19.5t-37 19.5t-34.5 9q-24 0 -36 -14.5t-19 -43.5h-51q6 60 34 94t76 34q22 0 42.5 -9t39.5 -19.5t37 -19.5t33 -9q23 0 35.5 14.5t19.5 43.5h50q-6 -58 -34 -93t-75 -35zM-73.5 6q-4.5 6 -2.5 16l93 406q5 17 21 18l115 7h2q10 0 14 -5.5
t2 -15.5l-14 -63q36 41 80.5 63.5t92.5 22.5q53 0 77.5 -24.5t24.5 -64.5q0 -22 -6 -45l-37 -147q-6 -25 -6 -43q0 -41 28 -41q24 0 55.5 29.5t56.5 78.5q3 6 13.5 2.5t18.5 -11.5t6 -14q-38 -81 -99 -128t-133 -47q-54 0 -78 24.5t-24 66.5q0 18 5 43l37 147q6 26 6 43
q0 41 -28 41q-25 0 -60 -35.5t-61 -92.5l-50 -219q-4 -18 -22 -18h-112q-11 0 -15.5 6z" />
    <glyph glyph-name="ograve" unicode="&#xf2;" horiz-adv-x="604" 
d="M12 49.5q-48 48.5 -48 123.5q0 67 38 134t106 110.5t154 43.5q95 0 144.5 -50t49.5 -126q0 -44 -16.5 -89t-47.5 -84q38 -3 76 16t67 70q3 6 13.5 2.5t18.5 -12t6 -13.5q-38 -76 -102.5 -102t-142.5 -25h-6q-74 -48 -167 -48q-95 1 -143 49.5zM230 95q-1 18 11.5 35.5
t27.5 20.5q17 35 27 74.5t10 74.5q0 43 -15.5 69.5t-46.5 26.5q-36 0 -67 -37t-49 -92.5t-18 -105.5q0 -43 14.5 -69t44.5 -26q32 0 61 29zM367 606h-59q-37 29 -80.5 76t-61.5 74v10h105q16 -32 44.5 -76.5t51.5 -71.5v-12z" />
    <glyph glyph-name="oacute" unicode="&#xf3;" horiz-adv-x="604" 
d="M12 49.5q-48 48.5 -48 123.5q0 67 38 134t106 110.5t154 43.5q95 0 144.5 -50t49.5 -126q0 -44 -16.5 -89t-47.5 -84q38 -3 76 16t67 70q3 6 13.5 2.5t18.5 -12t6 -13.5q-38 -76 -102.5 -102t-142.5 -25h-6q-74 -48 -167 -48q-95 1 -143 49.5zM230 95q-1 18 11.5 35.5
t27.5 20.5q17 35 27 74.5t10 74.5q0 43 -15.5 69.5t-46.5 26.5q-36 0 -67 -37t-49 -92.5t-18 -105.5q0 -43 14.5 -69t44.5 -26q32 0 61 29zM233 618q19 23 47.5 66.5t47.5 81.5h106v-10q-21 -31 -66.5 -78.5t-76.5 -71.5h-58v12z" />
    <glyph glyph-name="ocircumflex" unicode="&#xf4;" horiz-adv-x="604" 
d="M133 617q61 65 86 96.5t37 52.5h90q25 -49 125 -149v-11h-62q-44 26 -109 90q-64 -62 -107 -90h-60v11zM12 49.5q-48 48.5 -48 123.5q0 67 38 134t106 110.5t154 43.5q95 0 144.5 -50t49.5 -126q0 -44 -16.5 -89t-47.5 -84q38 -3 76 16t67 70q3 6 13.5 2.5t18.5 -12
t6 -13.5q-38 -76 -102.5 -102t-142.5 -25h-6q-74 -48 -167 -48q-95 1 -143 49.5zM230 95q-1 18 11.5 35.5t27.5 20.5q17 35 27 74.5t10 74.5q0 43 -15.5 69.5t-46.5 26.5q-36 0 -67 -37t-49 -92.5t-18 -105.5q0 -43 14.5 -69t44.5 -26q32 0 61 29z" />
    <glyph glyph-name="otilde" unicode="&#xf5;" horiz-adv-x="604" 
d="M379 607q-21 0 -41 9t-39.5 19.5t-37 19.5t-34.5 9q-24 0 -36 -14.5t-19 -43.5h-51q6 60 34 94t76 34q22 0 42.5 -9t39.5 -19.5t37 -19.5t33 -9q23 0 35.5 14.5t19.5 43.5h50q-6 -58 -34 -93t-75 -35zM12 49.5q-48 48.5 -48 123.5q0 67 38 134t106 110.5t154 43.5
q95 0 144.5 -50t49.5 -126q0 -44 -16.5 -89t-47.5 -84q38 -3 76 16t67 70q3 6 13.5 2.5t18.5 -12t6 -13.5q-38 -76 -102.5 -102t-142.5 -25h-6q-74 -48 -167 -48q-95 1 -143 49.5zM230 95q-1 18 11.5 35.5t27.5 20.5q17 35 27 74.5t10 74.5q0 43 -15.5 69.5t-46.5 26.5
q-36 0 -67 -37t-49 -92.5t-18 -105.5q0 -43 14.5 -69t44.5 -26q32 0 61 29z" />
    <glyph glyph-name="odieresis" unicode="&#xf6;" horiz-adv-x="568" 
d="M344 507q-7 0 -13.5 3.5t-10.5 10.5q-3 7 -3 14q0 10 5.5 20.5t14.5 16.5q10 9 24 9q16 0 23 -14q4 -7 4 -15q0 -10 -5 -19.5t-15 -17.5q-12 -8 -24 -8zM184 507q-7 0 -13.5 3.5t-10.5 10.5q-3 7 -3 14q0 10 5.5 20.5t14.5 16.5q10 9 24 9q16 0 23 -14q4 -7 4 -15
q0 -10 -5 -19.5t-15 -17.5q-12 -8 -24 -8zM12 49.5q-48 48.5 -48 123.5q0 67 38 134t106 110.5t154 43.5q95 0 144.5 -50t49.5 -126q0 -44 -16.5 -89t-47.5 -84q38 -3 76 16t67 70q3 6 13.5 2.5t18.5 -12t6 -13.5q-38 -76 -102.5 -102t-142.5 -25h-6q-74 -48 -167 -48
q-95 1 -143 49.5zM230 95q-1 18 11.5 35.5t27.5 20.5q17 35 27 74.5t10 74.5q0 43 -15.5 69.5t-46.5 26.5q-36 0 -67 -37t-49 -92.5t-18 -105.5q0 -43 14.5 -69t44.5 -26q32 0 61 29z" />
    <glyph glyph-name="divide" unicode="&#xf7;" horiz-adv-x="550" 
d="M50 286v73h451v-73h-451zM219 156q0 17 4.5 28.5t12 19t17.5 10.5t22 3q11 0 21.5 -3t18 -10.5t12 -19t4.5 -28.5q0 -16 -4.5 -27.5t-12 -19t-18 -11t-21.5 -3.5q-12 0 -22 3.5t-17.5 11t-12 19t-4.5 27.5zM219 497q0 17 4.5 28.5t12 19t17.5 10.5t22 3q11 0 21.5 -3
t18 -10.5t12 -19t4.5 -28.5q0 -16 -4.5 -27.5t-12 -19t-18 -11t-21.5 -3.5q-12 0 -22 3.5t-17.5 11t-12 19t-4.5 27.5zM221 622z" />
    <glyph glyph-name="oslash" unicode="&#xf8;" horiz-adv-x="604" 
d="M551 269q0 -131 -66.5 -205t-183.5 -74q-74 0 -129 33l-40 -56l-58 39l45 62q-64 76 -64 201q0 131 65.5 204t183.5 73q74 0 131 -36l39 56l59 -38l-45 -63q63 -76 63 -196zM146 269q0 -81 24 -128l220 306q-36 25 -88 25q-156 0 -156 -203zM460 269q0 74 -23 123
l-220 -306q34 -23 86 -23q77 0 117 52.5t40 153.5z" />
    <glyph glyph-name="ugrave" unicode="&#xf9;" horiz-adv-x="618" 
d="M-32 24.5q-24 24.5 -24 66.5q0 18 5 43l68 294q4 16 21 18l114 7h2q10 0 14.5 -5.5t1.5 -15.5l-64 -258q-6 -25 -6 -42q0 -42 29 -42q26 0 61 35.5t60 92.5l48 210q4 17 21 18l114 7h2q10 0 14.5 -5.5t1.5 -15.5l-64 -258q-6 -25 -6 -42q0 -42 28 -42q24 0 55.5 29.5
t56.5 78.5q6 11 16 11q7 0 12 -4l3 -2q9 -7 9 -17q0 -7 -2 -11q-38 -81 -99 -128t-134 -47q-54 0 -78 25t-23 67q-38 -44 -83.5 -68t-95.5 -24q-54 0 -78 24.5zM360 606h-59q-37 29 -80.5 76t-61.5 74v10h105q16 -32 44.5 -76.5t51.5 -71.5v-12z" />
    <glyph glyph-name="uacute" unicode="&#xfa;" horiz-adv-x="618" 
d="M-32 24.5q-24 24.5 -24 66.5q0 18 5 43l68 294q4 16 21 18l114 7h2q10 0 14.5 -5.5t1.5 -15.5l-64 -258q-6 -25 -6 -42q0 -42 29 -42q26 0 61 35.5t60 92.5l48 210q4 17 21 18l114 7h2q10 0 14.5 -5.5t1.5 -15.5l-64 -258q-6 -25 -6 -42q0 -42 28 -42q24 0 55.5 29.5
t56.5 78.5q6 11 16 11q7 0 12 -4l3 -2q9 -7 9 -17q0 -7 -2 -11q-38 -81 -99 -128t-134 -47q-54 0 -78 25t-23 67q-38 -44 -83.5 -68t-95.5 -24q-54 0 -78 24.5zM246 618q19 23 47.5 66.5t47.5 81.5h106v-10q-21 -31 -66.5 -78.5t-76.5 -71.5h-58v12z" />
    <glyph glyph-name="ucircumflex" unicode="&#xfb;" horiz-adv-x="618" 
d="M137 617q61 65 86 96.5t37 52.5h90q25 -49 125 -149v-11h-62q-44 26 -109 90q-64 -62 -107 -90h-60v11zM-32 24.5q-24 24.5 -24 66.5q0 18 5 43l68 294q4 16 21 18l114 7h2q10 0 14.5 -5.5t1.5 -15.5l-64 -258q-6 -25 -6 -42q0 -42 29 -42q26 0 61 35.5t60 92.5l48 210
q4 17 21 18l114 7h2q10 0 14.5 -5.5t1.5 -15.5l-64 -258q-6 -25 -6 -42q0 -42 28 -42q24 0 55.5 29.5t56.5 78.5q6 11 16 11q7 0 12 -4l3 -2q9 -7 9 -17q0 -7 -2 -11q-38 -81 -99 -128t-134 -47q-54 0 -78 25t-23 67q-38 -44 -83.5 -68t-95.5 -24q-54 0 -78 24.5z" />
    <glyph glyph-name="udieresis" unicode="&#xfc;" horiz-adv-x="554" 
d="M334 507q-7 0 -13.5 3.5t-10.5 10.5q-3 7 -3 14q0 10 5.5 20.5t14.5 16.5q10 9 24 9q16 0 23 -14q4 -7 4 -15q0 -10 -5 -19.5t-15 -17.5q-12 -8 -24 -8zM174 507q-7 0 -13.5 3.5t-10.5 10.5q-3 7 -3 14q0 10 5.5 20.5t14.5 16.5q10 9 24 9q16 0 23 -14q4 -7 4 -15
q0 -10 -5 -19.5t-15 -17.5q-12 -8 -24 -8zM-32 24.5q-24 24.5 -24 66.5q0 18 5 43l68 294q4 16 21 18l114 7h2q10 0 14.5 -5.5t1.5 -15.5l-64 -258q-6 -25 -6 -42q0 -42 29 -42q26 0 61 35.5t60 92.5l48 210q4 17 21 18l114 7h2q10 0 14.5 -5.5t1.5 -15.5l-64 -258
q-6 -25 -6 -42q0 -42 28 -42q24 0 55.5 29.5t56.5 78.5q6 11 16 11q7 0 12 -4l3 -2q9 -7 9 -17q0 -7 -2 -11q-38 -81 -99 -128t-134 -47q-54 0 -78 25t-23 67q-38 -44 -83.5 -68t-95.5 -24q-54 0 -78 24.5z" />
    <glyph glyph-name="yacute" unicode="&#xfd;" horiz-adv-x="509" 
d="M-25 -197q0 10 1 15q6 53 35.5 85t72 49.5t113.5 37.5l21 94q-37 -40 -80.5 -62t-91.5 -22q-102 0 -102 91q0 18 5 43l68 293q2 9 7 12t16 4l114 10h2q8 0 12 -7t2 -16l-64 -256q-7 -30 -7 -44q0 -40 28 -40q25 0 60 34t61 90l49 213q2 9 7 12t16 4l114 10h2q8 0 12 -7
t2 -16l-93 -397q16 4 45.5 27.5t61.5 60t53 77.5q1 4 7 4q10 0 22.5 -10t8.5 -17q-32 -66 -88.5 -125.5t-134.5 -105.5q-24 -78 -51 -127.5t-72.5 -78t-116.5 -28.5q-117 0 -117 93zM148.5 -176q11.5 15 16 30t14.5 56q-6 -2 -24 -6.5t-28.5 -10t-17.5 -12.5
q-9 -9 -14 -22.5t-5 -25.5q0 -13 7 -20.5t20 -6.5q20 3 31.5 18zM200 618q19 23 47.5 66.5t47.5 81.5h106v-10q-21 -31 -66.5 -78.5t-76.5 -71.5h-58v12z" />
    <glyph glyph-name="thorn" unicode="&#xfe;" horiz-adv-x="615" 
d="M174 464q33 44 73.5 63t92.5 19q104 0 162 -73t58 -204t-58 -205t-162 -74q-108 0 -167 78h-6q6 -64 6 -84v-224h-88v1000h88v-224q0 -34 -3 -72h4zM325 472q-79 0 -115 -43.5t-37 -140.5v-19q0 -109 36 -157.5t117 -48.5q143 0 143 207q0 102 -35 152t-109 50z" />
    <glyph glyph-name="ydieresis" unicode="&#xff;" horiz-adv-x="509" 
d="M-25 -197q0 10 1 15q6 53 35.5 85t72 49.5t113.5 37.5l21 94q-37 -40 -80.5 -62t-91.5 -22q-102 0 -102 91q0 18 5 43l68 293q2 9 7 12t16 4l114 10h2q8 0 12 -7t2 -16l-64 -256q-7 -30 -7 -44q0 -40 28 -40q25 0 60 34t61 90l49 213q2 9 7 12t16 4l114 10h2q8 0 12 -7
t2 -16l-93 -397q16 4 45.5 27.5t61.5 60t53 77.5q1 4 7 4q10 0 22.5 -10t8.5 -17q-32 -66 -88.5 -125.5t-134.5 -105.5q-24 -78 -51 -127.5t-72.5 -78t-116.5 -28.5q-117 0 -117 93zM148.5 -176q11.5 15 16 30t14.5 56q-6 -2 -24 -6.5t-28.5 -10t-17.5 -12.5
q-9 -9 -14 -22.5t-5 -25.5q0 -13 7 -20.5t20 -6.5q20 3 31.5 18zM114 681q0 26 13.5 37.5t33.5 11.5q19 0 33 -11.5t14 -37.5t-14 -38t-33 -12q-20 0 -33.5 12t-13.5 38zM302 681q0 26 13.5 37.5t32.5 11.5t33 -11.5t14 -37.5t-14 -38t-33 -12t-32.5 12t-13.5 38z" />
    <glyph glyph-name="Amacron" unicode="&#x100;" horiz-adv-x="639" 
d="M178 842h297v-71h-297v71zM75.5 8.5q-35.5 8.5 -68 49.5t-32.5 127q0 66 21 150q31 130 102.5 217t161 128.5t178.5 41.5q48 0 90 -12.5t73 -35.5q7 -4 7 -13q0 -10 -13 -20l-26 -20q-7 -6 -14 -6q-5 0 -11 4q-44 35 -104 35q-57 0 -114.5 -34.5t-104.5 -106.5t-72 -178
q-16 -67 -16 -117q0 -57 19 -85.5t51 -28.5t67 26.5t64.5 74.5t43.5 110l57 245q2 8 8.5 14t14.5 6l113 7h2q9 0 13.5 -6t2.5 -15l-95 -392q-6 -24 -6 -40q0 -38 27 -38q23 0 55 28t57 74q1 4 8 4q10 0 22 -9t10 -14q-38 -82 -100 -130.5t-135 -48.5q-45 0 -67 29.5
t-28 68.5q-40 -46 -88 -72t-98 -26q-40 0 -75.5 8.5z" />
    <glyph glyph-name="amacron" unicode="&#x101;" horiz-adv-x="561" 
d="M143 677h297v-71h-297v71zM-5 39q-36 39 -36 107q0 38 10 78q19 76 63.5 129.5t103.5 80t122 26.5q51 0 98.5 -17.5t84.5 -50.5q7 -6 7 -13q0 -9 -9 -15l-32 -25q-8 -5 -13 -5q-6 0 -15 7q-50 46 -108 46q-56 0 -99.5 -45.5t-60.5 -129.5q-7 -35 -7 -65q0 -34 10 -51.5
t26 -17.5q20 0 44.5 25t48.5 72.5t40 111.5q4 17 21 19l115 7h2q10 0 14.5 -5.5t1.5 -15.5l-32 -118q-7 -25 -7 -44q0 -20 7.5 -30t20.5 -10q24 0 56 29.5t57 78.5q3 6 13.5 2.5t18.5 -11.5t6 -14q-38 -81 -99 -128t-133 -47q-39 0 -60.5 21t-30.5 53q-55 -74 -140 -74
q-73 0 -109 39z" />
    <glyph glyph-name="Abreve" unicode="&#x102;" horiz-adv-x="639" 
d="M316 771q-69 0 -108.5 33.5t-44.5 100.5h54q4 -35 24.5 -49t76.5 -14q49 0 73 15.5t28 47.5h55q-6 -64 -48 -99t-110 -35zM75.5 8.5q-35.5 8.5 -68 49.5t-32.5 127q0 66 21 150q31 130 102.5 217t161 128.5t178.5 41.5q48 0 90 -12.5t73 -35.5q7 -4 7 -13q0 -10 -13 -20
l-26 -20q-7 -6 -14 -6q-5 0 -11 4q-44 35 -104 35q-57 0 -114.5 -34.5t-104.5 -106.5t-72 -178q-16 -67 -16 -117q0 -57 19 -85.5t51 -28.5t67 26.5t64.5 74.5t43.5 110l57 245q2 8 8.5 14t14.5 6l113 7h2q9 0 13.5 -6t2.5 -15l-95 -392q-6 -24 -6 -40q0 -38 27 -38
q23 0 55 28t57 74q1 4 8 4q10 0 22 -9t10 -14q-38 -82 -100 -130.5t-135 -48.5q-45 0 -67 29.5t-28 68.5q-40 -46 -88 -72t-98 -26q-40 0 -75.5 8.5z" />
    <glyph glyph-name="abreve" unicode="&#x103;" horiz-adv-x="561" 
d="M281 606q-69 0 -108.5 33.5t-44.5 100.5h54q4 -35 24.5 -49t76.5 -14q49 0 73 15.5t28 47.5h55q-6 -64 -48 -99t-110 -35zM-5 39q-36 39 -36 107q0 38 10 78q19 76 63.5 129.5t103.5 80t122 26.5q51 0 98.5 -17.5t84.5 -50.5q7 -6 7 -13q0 -9 -9 -15l-32 -25
q-8 -5 -13 -5q-6 0 -15 7q-50 46 -108 46q-56 0 -99.5 -45.5t-60.5 -129.5q-7 -35 -7 -65q0 -34 10 -51.5t26 -17.5q20 0 44.5 25t48.5 72.5t40 111.5q4 17 21 19l115 7h2q10 0 14.5 -5.5t1.5 -15.5l-32 -118q-7 -25 -7 -44q0 -20 7.5 -30t20.5 -10q24 0 56 29.5t57 78.5
q3 6 13.5 2.5t18.5 -11.5t6 -14q-38 -81 -99 -128t-133 -47q-39 0 -60.5 21t-30.5 53q-55 -74 -140 -74q-73 0 -109 39z" />
    <glyph glyph-name="Aogonek" unicode="&#x104;" horiz-adv-x="639" 
d="M540 -116q0 -22 12 -33.5t33 -11.5t48 6v-56q-34 -9 -62 -9q-103 0 -103 94q0 68 78 126h62q-34 -32 -51 -58.5t-17 -57.5zM75.5 8.5q-35.5 8.5 -68 49.5t-32.5 127q0 66 21 150q31 130 102.5 217t161 128.5t178.5 41.5q48 0 90 -12.5t73 -35.5q7 -4 7 -13q0 -10 -13 -20
l-26 -20q-7 -6 -14 -6q-5 0 -11 4q-44 35 -104 35q-57 0 -114.5 -34.5t-104.5 -106.5t-72 -178q-16 -67 -16 -117q0 -57 19 -85.5t51 -28.5t67 26.5t64.5 74.5t43.5 110l57 245q2 8 8.5 14t14.5 6l113 7h2q9 0 13.5 -6t2.5 -15l-95 -392q-6 -24 -6 -40q0 -38 27 -38
q23 0 55 28t57 74q1 4 8 4q10 0 22 -9t10 -14q-38 -82 -100 -130.5t-135 -48.5q-45 0 -67 29.5t-28 68.5q-40 -46 -88 -72t-98 -26q-40 0 -75.5 8.5z" />
    <glyph glyph-name="aogonek" unicode="&#x105;" horiz-adv-x="561" 
d="M410 -116q0 -22 12 -33.5t33 -11.5t48 6v-56q-34 -9 -62 -9q-103 0 -103 94q0 68 78 126h62q-34 -32 -51 -58.5t-17 -57.5zM-5 39q-36 39 -36 107q0 38 10 78q19 76 63.5 129.5t103.5 80t122 26.5q51 0 98.5 -17.5t84.5 -50.5q7 -6 7 -13q0 -9 -9 -15l-32 -25
q-8 -5 -13 -5q-6 0 -15 7q-50 46 -108 46q-56 0 -99.5 -45.5t-60.5 -129.5q-7 -35 -7 -65q0 -34 10 -51.5t26 -17.5q20 0 44.5 25t48.5 72.5t40 111.5q4 17 21 19l115 7h2q10 0 14.5 -5.5t1.5 -15.5l-32 -118q-7 -25 -7 -44q0 -20 7.5 -30t20.5 -10q24 0 56 29.5t57 78.5
q3 6 13.5 2.5t18.5 -11.5t6 -14q-38 -81 -99 -128t-133 -47q-39 0 -60.5 21t-30.5 53q-55 -74 -140 -74q-73 0 -109 39z" />
    <glyph glyph-name="Cacute" unicode="&#x106;" horiz-adv-x="631" 
d="M264.5 114q53.5 -21 118.5 -21q75 0 140.5 27.5t92.5 77.5q3 6 11 6q11 0 21 -10t6 -19q-25 -53 -80.5 -93.5t-127.5 -62t-146 -21.5q-84 0 -154 28.5t-112.5 88.5t-42.5 150q0 52 12 100q28 123 98 205t161 121t186 39q108 0 161 -33t53 -86q0 -34 -20 -70t-57 -68
q-4 -3 -8 -3q-5 0 -11 4l-83 38q-7 3 -7 9q0 10 16 28q28 31 28 55q0 28 -30 43.5t-58 14.5q-83 -4 -145.5 -58.5t-95 -135.5t-32.5 -162q0 -78 30 -131q22 -40 75.5 -61zM318 783q19 23 47.5 66.5t47.5 81.5h106v-10q-21 -31 -66.5 -78.5t-76.5 -71.5h-58v12z" />
    <glyph glyph-name="cacute" unicode="&#x107;" horiz-adv-x="479" 
d="M378 80.5q-51 -40.5 -112.5 -62t-120.5 -21.5q-80 0 -131.5 41t-51.5 120q0 31 9 70q16 66 56.5 120t101 85t133.5 31q64 0 95.5 -21.5t31.5 -57.5q0 -32 -24 -72q-7 -12 -22 -14l-57 -9h-5q-13 0 -13 11q0 3 4 13q14 28 14 47q0 21 -13 29t-29 8q-46 0 -81.5 -54.5
t-48.5 -127.5q-4 -19 -4 -39q0 -51 29 -76.5t75 -25.5q55 0 114 34t91 89q6 12 16 12q5 0 13 -5l3 -2q9 -6 9 -17q0 -5 -3 -11q-28 -54 -79 -94.5zM224 618q19 23 47.5 66.5t47.5 81.5h106v-10q-21 -31 -66.5 -78.5t-76.5 -71.5h-58v12z" />
    <glyph glyph-name="Ccircumflex" unicode="&#x108;" horiz-adv-x="631" 
d="M220 782q61 65 86 96.5t37 52.5h90q25 -49 125 -149v-11h-62q-44 26 -109 90q-64 -62 -107 -90h-60v11zM264.5 114q53.5 -21 118.5 -21q75 0 140.5 27.5t92.5 77.5q3 6 11 6q11 0 21 -10t6 -19q-25 -53 -80.5 -93.5t-127.5 -62t-146 -21.5q-84 0 -154 28.5t-112.5 88.5
t-42.5 150q0 52 12 100q28 123 98 205t161 121t186 39q108 0 161 -33t53 -86q0 -34 -20 -70t-57 -68q-4 -3 -8 -3q-5 0 -11 4l-83 38q-7 3 -7 9q0 10 16 28q28 31 28 55q0 28 -30 43.5t-58 14.5q-83 -4 -145.5 -58.5t-95 -135.5t-32.5 -162q0 -78 30 -131q22 -40 75.5 -61z
" />
    <glyph glyph-name="ccircumflex" unicode="&#x109;" horiz-adv-x="479" 
d="M118 617q61 65 86 96.5t37 52.5h90q25 -49 125 -149v-11h-62q-44 26 -109 90q-64 -62 -107 -90h-60v11zM378 80.5q-51 -40.5 -112.5 -62t-120.5 -21.5q-80 0 -131.5 41t-51.5 120q0 31 9 70q16 66 56.5 120t101 85t133.5 31q64 0 95.5 -21.5t31.5 -57.5q0 -32 -24 -72
q-7 -12 -22 -14l-57 -9h-5q-13 0 -13 11q0 3 4 13q14 28 14 47q0 21 -13 29t-29 8q-46 0 -81.5 -54.5t-48.5 -127.5q-4 -19 -4 -39q0 -51 29 -76.5t75 -25.5q55 0 114 34t91 89q6 12 16 12q5 0 13 -5l3 -2q9 -6 9 -17q0 -5 -3 -11q-28 -54 -79 -94.5z" />
    <glyph glyph-name="Cdotaccent" unicode="&#x10a;" horiz-adv-x="631" 
d="M337 846q0 29 15 42.5t37 13.5q21 0 36 -13.5t15 -42.5t-15.5 -42.5t-35.5 -13.5q-22 0 -37 13.5t-15 42.5zM264.5 114q53.5 -21 118.5 -21q75 0 140.5 27.5t92.5 77.5q3 6 11 6q11 0 21 -10t6 -19q-25 -53 -80.5 -93.5t-127.5 -62t-146 -21.5q-84 0 -154 28.5
t-112.5 88.5t-42.5 150q0 52 12 100q28 123 98 205t161 121t186 39q108 0 161 -33t53 -86q0 -34 -20 -70t-57 -68q-4 -3 -8 -3q-5 0 -11 4l-83 38q-7 3 -7 9q0 10 16 28q28 31 28 55q0 28 -30 43.5t-58 14.5q-83 -4 -145.5 -58.5t-95 -135.5t-32.5 -162q0 -78 30 -131
q22 -40 75.5 -61z" />
    <glyph glyph-name="cdotaccent" unicode="&#x10b;" horiz-adv-x="479" 
d="M241 681q0 29 15 42.5t37 13.5q21 0 36 -13.5t15 -42.5t-15.5 -42.5t-35.5 -13.5q-22 0 -37 13.5t-15 42.5zM378 80.5q-51 -40.5 -112.5 -62t-120.5 -21.5q-80 0 -131.5 41t-51.5 120q0 31 9 70q16 66 56.5 120t101 85t133.5 31q64 0 95.5 -21.5t31.5 -57.5
q0 -32 -24 -72q-7 -12 -22 -14l-57 -9h-5q-13 0 -13 11q0 3 4 13q14 28 14 47q0 21 -13 29t-29 8q-46 0 -81.5 -54.5t-48.5 -127.5q-4 -19 -4 -39q0 -51 29 -76.5t75 -25.5q55 0 114 34t91 89q6 12 16 12q5 0 13 -5l3 -2q9 -6 9 -17q0 -5 -3 -11q-28 -54 -79 -94.5z" />
    <glyph glyph-name="Ccaron" unicode="&#x10c;" horiz-adv-x="631" 
d="M220 931h60q56 -36 107 -92q62 62 109 92h62v-13q-100 -100 -125 -147h-90q-29 50 -123 147v13zM264.5 114q53.5 -21 118.5 -21q75 0 140.5 27.5t92.5 77.5q3 6 11 6q11 0 21 -10t6 -19q-25 -53 -80.5 -93.5t-127.5 -62t-146 -21.5q-84 0 -154 28.5t-112.5 88.5
t-42.5 150q0 52 12 100q28 123 98 205t161 121t186 39q108 0 161 -33t53 -86q0 -34 -20 -70t-57 -68q-4 -3 -8 -3q-5 0 -11 4l-83 38q-7 3 -7 9q0 10 16 28q28 31 28 55q0 28 -30 43.5t-58 14.5q-83 -4 -145.5 -58.5t-95 -135.5t-32.5 -162q0 -78 30 -131q22 -40 75.5 -61z
" />
    <glyph glyph-name="ccaron" unicode="&#x10d;" horiz-adv-x="479" 
d="M122 766h60q56 -36 107 -92q62 62 109 92h62v-13q-100 -100 -125 -147h-90q-29 50 -123 147v13zM378 80.5q-51 -40.5 -112.5 -62t-120.5 -21.5q-80 0 -131.5 41t-51.5 120q0 31 9 70q16 66 56.5 120t101 85t133.5 31q64 0 95.5 -21.5t31.5 -57.5q0 -32 -24 -72
q-7 -12 -22 -14l-57 -9h-5q-13 0 -13 11q0 3 4 13q14 28 14 47q0 21 -13 29t-29 8q-46 0 -81.5 -54.5t-48.5 -127.5q-4 -19 -4 -39q0 -51 29 -76.5t75 -25.5q55 0 114 34t91 89q6 12 16 12q5 0 13 -5l3 -2q9 -6 9 -17q0 -5 -3 -11q-28 -54 -79 -94.5z" />
    <glyph glyph-name="Dcaron" unicode="&#x10e;" horiz-adv-x="729" 
d="M170 931h60q56 -36 107 -92q62 62 109 92h62v-13q-100 -100 -125 -147h-90q-29 50 -123 147v13zM182.5 6q-4.5 6 -2.5 16l128 561q5 17 21 18l115 7h2q10 0 14 -5.5t2 -15.5l-118 -518q79 0 144 58t102 147t37 176q0 79 -33.5 135t-100.5 72q-37 8 -73 8
q-65 0 -124.5 -23.5t-100.5 -73t-48 -122.5q-1 -7 -1 -20q0 -45 21 -101l2 -9q0 -11 -13 -17l-93 -32l-9 -2q-12 0 -17 14q-20 59 -20 116q0 85 44.5 152.5t118.5 110t161 59.5q59 12 122 12q106 0 177.5 -40t106.5 -107t35 -148q0 -104 -55 -204.5t-158.5 -165
t-240.5 -64.5h-130q-11 0 -15.5 6z" />
    <glyph glyph-name="dcaron" unicode="&#x10f;" horiz-adv-x="615" 
d="M575 612q11 32 20.5 77.5t12.5 70.5h87v-9q-6 -26 -27 -71t-45 -80h-48v12zM-4 39q-36 39 -36 107q0 38 10 78q19 76 63 129.5t103 80t122 26.5q32 0 55 -5l49 218q5 16 21 18l115 7h2q10 0 14.5 -5.5t1.5 -15.5l-120 -503q-5 -23 -5 -37q0 -23 9.5 -35t25.5 -12
q27 0 62 29.5t61 78.5q3 6 13.5 2.5t19 -11.5t5.5 -14q-39 -78 -109 -126.5t-143 -48.5q-82 0 -98 64q-53 -64 -132 -64q-73 0 -109 39zM103 144q0 -31 9.5 -46.5t25.5 -15.5q21 0 48 26.5t51.5 77t40.5 119.5l18 80q-8 2 -24 2q-55 0 -97.5 -45.5t-62.5 -129.5
q-9 -40 -9 -68z" />
    <glyph glyph-name="Dcroat" unicode="&#x110;" horiz-adv-x="729" 
d="M669 364q0 -175 -96 -269.5t-278 -94.5h-191v314h-74v78h74v322h213q167 0 259.5 -92t92.5 -258zM574 361q0 137 -68 206.5t-202 69.5h-110v-245h178v-78h-178v-237h90q290 0 290 284z" />
    <glyph glyph-name="dcroat" unicode="&#x111;" horiz-adv-x="617" 
d="M275 -10q-104 0 -162 72t-58 203q0 132 57.5 205t162.5 73q109 0 167 -79h6q-1 7 -3.5 33.5t-2.5 46.5v61h-213v66h213v89h88v-89h76v-66h-76v-605h-72l-13 72h-4q-56 -82 -166 -82zM290 63q80 0 116.5 43t36.5 142v17q0 112 -37 158.5t-118 46.5q-68 0 -104.5 -52
t-36.5 -154q0 -96 35 -148.5t108 -52.5z" />
    <glyph glyph-name="Emacron" unicode="&#x112;" horiz-adv-x="556" 
d="M148 842h297v-71h-297v71zM83 22q-56 24 -85.5 64t-29.5 87q0 46 28 91t83 81q18 13 34 20q-14 9 -28 23q-48 47 -48 107q0 58 42.5 112.5t119 88.5t171.5 34q110 0 165 -34.5t55 -88.5q0 -33 -19.5 -67.5t-54.5 -66.5q-4 -3 -8 -3q-5 0 -11 4l-83 38q-7 3 -7 9
q0 10 16 28q27 30 27 51q0 24 -30 33.5t-61 8.5q-45 -2 -81.5 -18.5t-57 -43.5t-20.5 -58q0 -30 20.5 -60t62.5 -57q11 -7 11 -16q0 -5 -2 -8l-18 -32q-1 -2 -6 -10.5t-15 -13.5q-60 -29 -88 -61.5t-28 -63.5q0 -36 33 -64.5t80 -36.5q30 -6 64 -6q75 0 140 27.5t93 77.5
q3 6 11 6q11 0 21 -10t6 -19q-39 -84 -142 -130.5t-226 -46.5q-78 0 -134 24z" />
    <glyph glyph-name="emacron" unicode="&#x113;" horiz-adv-x="563" 
d="M150 677h297v-71h-297v71zM13.5 39.5q-51.5 39.5 -51.5 118.5q0 31 9 70q16 66 56.5 120t101 85t133.5 31h13q61 -3 90 -26t29 -59q0 -43 -36.5 -91t-95.5 -80.5t-122 -32.5q-9 0 -29 2q1 -52 29.5 -77t74.5 -25q56 0 115 34.5t90 88.5q3 6 13.5 2t18.5 -12t6 -13
q-28 -54 -79.5 -93.5t-112.5 -60.5t-120 -21q-81 0 -132.5 39.5zM138 246q40 0 73.5 19t53.5 47t20 51q0 16 -10.5 25.5t-31.5 9.5q-40 0 -73.5 -44.5t-49.5 -106.5q6 -1 18 -1z" />
    <glyph glyph-name="Ebreve" unicode="&#x114;" horiz-adv-x="556" 
d="M299 771q-69 0 -108.5 33.5t-44.5 100.5h54q4 -35 24.5 -49t76.5 -14q49 0 73 15.5t28 47.5h55q-6 -64 -48 -99t-110 -35zM83 22q-56 24 -85.5 64t-29.5 87q0 46 28 91t83 81q18 13 34 20q-14 9 -28 23q-48 47 -48 107q0 58 42.5 112.5t119 88.5t171.5 34
q110 0 165 -34.5t55 -88.5q0 -33 -19.5 -67.5t-54.5 -66.5q-4 -3 -8 -3q-5 0 -11 4l-83 38q-7 3 -7 9q0 10 16 28q27 30 27 51q0 24 -30 33.5t-61 8.5q-45 -2 -81.5 -18.5t-57 -43.5t-20.5 -58q0 -30 20.5 -60t62.5 -57q11 -7 11 -16q0 -5 -2 -8l-18 -32q-1 -2 -6 -10.5
t-15 -13.5q-60 -29 -88 -61.5t-28 -63.5q0 -36 33 -64.5t80 -36.5q30 -6 64 -6q75 0 140 27.5t93 77.5q3 6 11 6q11 0 21 -10t6 -19q-39 -84 -142 -130.5t-226 -46.5q-78 0 -134 24z" />
    <glyph glyph-name="ebreve" unicode="&#x115;" horiz-adv-x="563" 
d="M292 606q-69 0 -108.5 33.5t-44.5 100.5h54q4 -35 24.5 -49t76.5 -14q49 0 73 15.5t28 47.5h55q-6 -64 -48 -99t-110 -35zM13.5 39.5q-51.5 39.5 -51.5 118.5q0 31 9 70q16 66 56.5 120t101 85t133.5 31h13q61 -3 90 -26t29 -59q0 -43 -36.5 -91t-95.5 -80.5t-122 -32.5
q-9 0 -29 2q1 -52 29.5 -77t74.5 -25q56 0 115 34.5t90 88.5q3 6 13.5 2t18.5 -12t6 -13q-28 -54 -79.5 -93.5t-112.5 -60.5t-120 -21q-81 0 -132.5 39.5zM138 246q40 0 73.5 19t53.5 47t20 51q0 16 -10.5 25.5t-31.5 9.5q-40 0 -73.5 -44.5t-49.5 -106.5q6 -1 18 -1z" />
    <glyph glyph-name="Edotaccent" unicode="&#x116;" horiz-adv-x="556" 
d="M253 832q0 29 15 42.5t37 13.5q21 0 36 -13.5t15 -42.5t-15.5 -42.5t-35.5 -13.5q-22 0 -37 13.5t-15 42.5zM83 22q-56 24 -85.5 64t-29.5 87q0 46 28 91t83 81q18 13 34 20q-14 9 -28 23q-48 47 -48 107q0 58 42.5 112.5t119 88.5t171.5 34q110 0 165 -34.5t55 -88.5
q0 -33 -19.5 -67.5t-54.5 -66.5q-4 -3 -8 -3q-5 0 -11 4l-83 38q-7 3 -7 9q0 10 16 28q27 30 27 51q0 24 -30 33.5t-61 8.5q-45 -2 -81.5 -18.5t-57 -43.5t-20.5 -58q0 -30 20.5 -60t62.5 -57q11 -7 11 -16q0 -5 -2 -8l-18 -32q-1 -2 -6 -10.5t-15 -13.5q-60 -29 -88 -61.5
t-28 -63.5q0 -36 33 -64.5t80 -36.5q30 -6 64 -6q75 0 140 27.5t93 77.5q3 6 11 6q11 0 21 -10t6 -19q-39 -84 -142 -130.5t-226 -46.5q-78 0 -134 24z" />
    <glyph glyph-name="edotaccent" unicode="&#x117;" horiz-adv-x="563" 
d="M243 681q0 29 15 42.5t37 13.5q21 0 36 -13.5t15 -42.5t-15.5 -42.5t-35.5 -13.5q-22 0 -37 13.5t-15 42.5zM13.5 39.5q-51.5 39.5 -51.5 118.5q0 31 9 70q16 66 56.5 120t101 85t133.5 31h13q61 -3 90 -26t29 -59q0 -43 -36.5 -91t-95.5 -80.5t-122 -32.5q-9 0 -29 2
q1 -52 29.5 -77t74.5 -25q56 0 115 34.5t90 88.5q3 6 13.5 2t18.5 -12t6 -13q-28 -54 -79.5 -93.5t-112.5 -60.5t-120 -21q-81 0 -132.5 39.5zM138 246q40 0 73.5 19t53.5 47t20 51q0 16 -10.5 25.5t-31.5 9.5q-40 0 -73.5 -44.5t-49.5 -106.5q6 -1 18 -1z" />
    <glyph glyph-name="Eogonek" unicode="&#x118;" horiz-adv-x="556" 
d="M392 -116q0 -22 12 -33.5t33 -11.5t48 6v-56q-34 -9 -62 -9q-103 0 -103 94q0 68 78 126h62q-34 -32 -51 -58.5t-17 -57.5zM83 22q-56 24 -85.5 64t-29.5 87q0 46 28 91t83 81q18 13 34 20q-14 9 -28 23q-48 47 -48 107q0 58 42.5 112.5t119 88.5t171.5 34
q110 0 165 -34.5t55 -88.5q0 -33 -19.5 -67.5t-54.5 -66.5q-4 -3 -8 -3q-5 0 -11 4l-83 38q-7 3 -7 9q0 10 16 28q27 30 27 51q0 24 -30 33.5t-61 8.5q-45 -2 -81.5 -18.5t-57 -43.5t-20.5 -58q0 -30 20.5 -60t62.5 -57q11 -7 11 -16q0 -5 -2 -8l-18 -32q-1 -2 -6 -10.5
t-15 -13.5q-60 -29 -88 -61.5t-28 -63.5q0 -36 33 -64.5t80 -36.5q30 -6 64 -6q75 0 140 27.5t93 77.5q3 6 11 6q11 0 21 -10t6 -19q-39 -84 -142 -130.5t-226 -46.5q-78 0 -134 24z" />
    <glyph glyph-name="eogonek" unicode="&#x119;" horiz-adv-x="563" 
d="M387 -102q0 -22 12 -33.5t33 -11.5t48 6v-56q-34 -9 -62 -9q-103 0 -103 94q0 68 78 126h62q-34 -32 -51 -58.5t-17 -57.5zM13.5 39.5q-51.5 39.5 -51.5 118.5q0 31 9 70q16 66 56.5 120t101 85t133.5 31h13q61 -3 90 -26t29 -59q0 -43 -36.5 -91t-95.5 -80.5t-122 -32.5
q-9 0 -29 2q1 -52 29.5 -77t74.5 -25q56 0 115 34.5t90 88.5q3 6 13.5 2t18.5 -12t6 -13q-28 -54 -79.5 -93.5t-112.5 -60.5t-120 -21q-81 0 -132.5 39.5zM138 246q40 0 73.5 19t53.5 47t20 51q0 16 -10.5 25.5t-31.5 9.5q-40 0 -73.5 -44.5t-49.5 -106.5q6 -1 18 -1z" />
    <glyph glyph-name="Ecaron" unicode="&#x11a;" horiz-adv-x="556" 
d="M133 931h60q56 -36 107 -92q62 62 109 92h62v-13q-100 -100 -125 -147h-90q-29 50 -123 147v13zM83 22q-56 24 -85.5 64t-29.5 87q0 46 28 91t83 81q18 13 34 20q-14 9 -28 23q-48 47 -48 107q0 58 42.5 112.5t119 88.5t171.5 34q110 0 165 -34.5t55 -88.5
q0 -33 -19.5 -67.5t-54.5 -66.5q-4 -3 -8 -3q-5 0 -11 4l-83 38q-7 3 -7 9q0 10 16 28q27 30 27 51q0 24 -30 33.5t-61 8.5q-45 -2 -81.5 -18.5t-57 -43.5t-20.5 -58q0 -30 20.5 -60t62.5 -57q11 -7 11 -16q0 -5 -2 -8l-18 -32q-1 -2 -6 -10.5t-15 -13.5q-60 -29 -88 -61.5
t-28 -63.5q0 -36 33 -64.5t80 -36.5q30 -6 64 -6q75 0 140 27.5t93 77.5q3 6 11 6q11 0 21 -10t6 -19q-39 -84 -142 -130.5t-226 -46.5q-78 0 -134 24z" />
    <glyph glyph-name="ecaron" unicode="&#x11b;" horiz-adv-x="563" 
d="M126 766h60q56 -36 107 -92q62 62 109 92h62v-13q-100 -100 -125 -147h-90q-29 50 -123 147v13zM13.5 39.5q-51.5 39.5 -51.5 118.5q0 31 9 70q16 66 56.5 120t101 85t133.5 31h13q61 -3 90 -26t29 -59q0 -43 -36.5 -91t-95.5 -80.5t-122 -32.5q-9 0 -29 2
q1 -52 29.5 -77t74.5 -25q56 0 115 34.5t90 88.5q3 6 13.5 2t18.5 -12t6 -13q-28 -54 -79.5 -93.5t-112.5 -60.5t-120 -21q-81 0 -132.5 39.5zM138 246q40 0 73.5 19t53.5 47t20 51q0 16 -10.5 25.5t-31.5 9.5q-40 0 -73.5 -44.5t-49.5 -106.5q6 -1 18 -1z" />
    <glyph glyph-name="Gcircumflex" unicode="&#x11c;" horiz-adv-x="728" 
d="M248 782q61 65 86 96.5t37 52.5h90q25 -49 125 -149v-11h-62q-44 26 -109 90q-64 -62 -107 -90h-60v11zM146 -197q0 10 1 15q6 53 35.5 85t72 49.5t113.5 37.5l12 55l6 26q-70 -71 -174 -71q-54 0 -105 27.5t-84.5 84.5t-33.5 141q0 57 16 122q27 109 93 189.5t157 123
t193 42.5q108 0 161 -33t53 -86q0 -34 -20 -70t-57 -68q-4 -3 -8 -3q-5 0 -11 4l-83 38q-7 3 -7 9q0 10 16 28q28 31 28 55q0 28 -30 43.5t-58 14.5q-56 -3 -110.5 -36.5t-95.5 -93.5t-57 -136q-11 -51 -11 -99q0 -84 35 -130t86 -46q49 0 93 43.5t63 122.5q4 17 21 19
l115 7h2q10 0 14.5 -5.5t2.5 -15.5l-62 -259q17 4 46.5 27.5t60.5 60t53 77.5q3 6 13 2.5t18.5 -12t6.5 -13.5q-33 -66 -89 -125.5t-133 -105.5q-24 -78 -51.5 -127.5t-73 -78t-116.5 -28.5q-117 0 -117 93zM319.5 -176q11.5 15 16 30t14.5 56q-6 -2 -24 -6.5t-28.5 -10
t-17.5 -12.5q-9 -9 -14 -22.5t-5 -25.5q0 -13 7 -20.5t20 -6.5q20 3 31.5 18z" />
    <glyph glyph-name="gcircumflex" unicode="&#x11d;" horiz-adv-x="615" 
d="M132 617q61 65 86 96.5t37 52.5h90q25 -49 125 -149v-11h-62q-44 26 -109 90q-64 -62 -107 -90h-60v11zM-15 -197q0 10 1 15q6 53 35.5 85t72 49.5t113.5 37.5l12 55q-48 -45 -114 -45q-73 0 -109 39t-36 107q0 38 10 78q19 76 63.5 129.5t103.5 80t122 26.5
q51 0 98.5 -17.5t84.5 -50.5q7 -6 7 -13q0 -9 -9 -15l-32 -25q-8 -5 -13 -5q-6 0 -15 7q-50 46 -108 46q-56 0 -99.5 -45.5t-60.5 -129.5q-7 -35 -7 -65q0 -34 10 -51.5t26 -17.5q20 0 44.5 25t48.5 72.5t40 111.5q4 17 21 19l115 7h2q10 0 14.5 -5.5t2.5 -15.5l-62 -259
q17 4 46.5 27.5t60.5 60t53 77.5q6 12 16 12q5 0 12 -5l3 -2q9 -7 9 -18q0 -2 -2 -10q-33 -66 -89 -125.5t-133 -105.5q-24 -78 -51.5 -127.5t-73 -78t-116.5 -28.5q-117 0 -117 93zM158.5 -176q11.5 15 16 30t14.5 56q-6 -2 -24 -6.5t-28.5 -10t-17.5 -12.5
q-9 -9 -14 -22.5t-5 -25.5q0 -13 7 -20.5t20 -6.5q20 3 31.5 18z" />
    <glyph glyph-name="Gbreve" unicode="&#x11e;" horiz-adv-x="728" 
d="M414 771q-69 0 -108.5 33.5t-44.5 100.5h54q4 -35 24.5 -49t76.5 -14q49 0 73 15.5t28 47.5h55q-6 -64 -48 -99t-110 -35zM146 -197q0 10 1 15q6 53 35.5 85t72 49.5t113.5 37.5l12 55l6 26q-70 -71 -174 -71q-54 0 -105 27.5t-84.5 84.5t-33.5 141q0 57 16 122
q27 109 93 189.5t157 123t193 42.5q108 0 161 -33t53 -86q0 -34 -20 -70t-57 -68q-4 -3 -8 -3q-5 0 -11 4l-83 38q-7 3 -7 9q0 10 16 28q28 31 28 55q0 28 -30 43.5t-58 14.5q-56 -3 -110.5 -36.5t-95.5 -93.5t-57 -136q-11 -51 -11 -99q0 -84 35 -130t86 -46q49 0 93 43.5
t63 122.5q4 17 21 19l115 7h2q10 0 14.5 -5.5t2.5 -15.5l-62 -259q17 4 46.5 27.5t60.5 60t53 77.5q3 6 13 2.5t18.5 -12t6.5 -13.5q-33 -66 -89 -125.5t-133 -105.5q-24 -78 -51.5 -127.5t-73 -78t-116.5 -28.5q-117 0 -117 93zM319.5 -176q11.5 15 16 30t14.5 56
q-6 -2 -24 -6.5t-28.5 -10t-17.5 -12.5q-9 -9 -14 -22.5t-5 -25.5q0 -13 7 -20.5t20 -6.5q20 3 31.5 18z" />
    <glyph glyph-name="gbreve" unicode="&#x11f;" horiz-adv-x="615" 
d="M300 606q-69 0 -108.5 33.5t-44.5 100.5h54q4 -35 24.5 -49t76.5 -14q49 0 73 15.5t28 47.5h55q-6 -64 -48 -99t-110 -35zM-15 -197q0 10 1 15q6 53 35.5 85t72 49.5t113.5 37.5l12 55q-48 -45 -114 -45q-73 0 -109 39t-36 107q0 38 10 78q19 76 63.5 129.5t103.5 80
t122 26.5q51 0 98.5 -17.5t84.5 -50.5q7 -6 7 -13q0 -9 -9 -15l-32 -25q-8 -5 -13 -5q-6 0 -15 7q-50 46 -108 46q-56 0 -99.5 -45.5t-60.5 -129.5q-7 -35 -7 -65q0 -34 10 -51.5t26 -17.5q20 0 44.5 25t48.5 72.5t40 111.5q4 17 21 19l115 7h2q10 0 14.5 -5.5t2.5 -15.5
l-62 -259q17 4 46.5 27.5t60.5 60t53 77.5q6 12 16 12q5 0 12 -5l3 -2q9 -7 9 -18q0 -2 -2 -10q-33 -66 -89 -125.5t-133 -105.5q-24 -78 -51.5 -127.5t-73 -78t-116.5 -28.5q-117 0 -117 93zM158.5 -176q11.5 15 16 30t14.5 56q-6 -2 -24 -6.5t-28.5 -10t-17.5 -12.5
q-9 -9 -14 -22.5t-5 -25.5q0 -13 7 -20.5t20 -6.5q20 3 31.5 18z" />
    <glyph glyph-name="Gdotaccent" unicode="&#x120;" horiz-adv-x="728" 
d="M371 846q0 29 15 42.5t37 13.5q21 0 36 -13.5t15 -42.5t-15.5 -42.5t-35.5 -13.5q-22 0 -37 13.5t-15 42.5zM146 -197q0 10 1 15q6 53 35.5 85t72 49.5t113.5 37.5l12 55l6 26q-70 -71 -174 -71q-54 0 -105 27.5t-84.5 84.5t-33.5 141q0 57 16 122q27 109 93 189.5
t157 123t193 42.5q108 0 161 -33t53 -86q0 -34 -20 -70t-57 -68q-4 -3 -8 -3q-5 0 -11 4l-83 38q-7 3 -7 9q0 10 16 28q28 31 28 55q0 28 -30 43.5t-58 14.5q-56 -3 -110.5 -36.5t-95.5 -93.5t-57 -136q-11 -51 -11 -99q0 -84 35 -130t86 -46q49 0 93 43.5t63 122.5
q4 17 21 19l115 7h2q10 0 14.5 -5.5t2.5 -15.5l-62 -259q17 4 46.5 27.5t60.5 60t53 77.5q3 6 13 2.5t18.5 -12t6.5 -13.5q-33 -66 -89 -125.5t-133 -105.5q-24 -78 -51.5 -127.5t-73 -78t-116.5 -28.5q-117 0 -117 93zM319.5 -176q11.5 15 16 30t14.5 56q-6 -2 -24 -6.5
t-28.5 -10t-17.5 -12.5q-9 -9 -14 -22.5t-5 -25.5q0 -13 7 -20.5t20 -6.5q20 3 31.5 18z" />
    <glyph glyph-name="gdotaccent" unicode="&#x121;" horiz-adv-x="615" 
d="M247 681q0 29 15 42.5t37 13.5q21 0 36 -13.5t15 -42.5t-15.5 -42.5t-35.5 -13.5q-22 0 -37 13.5t-15 42.5zM-15 -197q0 10 1 15q6 53 35.5 85t72 49.5t113.5 37.5l12 55q-48 -45 -114 -45q-73 0 -109 39t-36 107q0 38 10 78q19 76 63.5 129.5t103.5 80t122 26.5
q51 0 98.5 -17.5t84.5 -50.5q7 -6 7 -13q0 -9 -9 -15l-32 -25q-8 -5 -13 -5q-6 0 -15 7q-50 46 -108 46q-56 0 -99.5 -45.5t-60.5 -129.5q-7 -35 -7 -65q0 -34 10 -51.5t26 -17.5q20 0 44.5 25t48.5 72.5t40 111.5q4 17 21 19l115 7h2q10 0 14.5 -5.5t2.5 -15.5l-62 -259
q17 4 46.5 27.5t60.5 60t53 77.5q6 12 16 12q5 0 12 -5l3 -2q9 -7 9 -18q0 -2 -2 -10q-33 -66 -89 -125.5t-133 -105.5q-24 -78 -51.5 -127.5t-73 -78t-116.5 -28.5q-117 0 -117 93zM158.5 -176q11.5 15 16 30t14.5 56q-6 -2 -24 -6.5t-28.5 -10t-17.5 -12.5
q-9 -9 -14 -22.5t-5 -25.5q0 -13 7 -20.5t20 -6.5q20 3 31.5 18z" />
    <glyph glyph-name="uni0122" unicode="&#x122;" horiz-adv-x="728" 
d="M322 -209q11 25 24 70.5t17 77.5h87v-9q-8 -31 -31.5 -76.5t-48.5 -74.5h-48v12zM146 -197q0 10 1 15q6 53 35.5 85t72 49.5t113.5 37.5l12 55l6 26q-70 -71 -174 -71q-54 0 -105 27.5t-84.5 84.5t-33.5 141q0 57 16 122q27 109 93 189.5t157 123t193 42.5q108 0 161 -33
t53 -86q0 -34 -20 -70t-57 -68q-4 -3 -8 -3q-5 0 -11 4l-83 38q-7 3 -7 9q0 10 16 28q28 31 28 55q0 28 -30 43.5t-58 14.5q-56 -3 -110.5 -36.5t-95.5 -93.5t-57 -136q-11 -51 -11 -99q0 -84 35 -130t86 -46q49 0 93 43.5t63 122.5q4 17 21 19l115 7h2q10 0 14.5 -5.5
t2.5 -15.5l-62 -259q17 4 46.5 27.5t60.5 60t53 77.5q3 6 13 2.5t18.5 -12t6.5 -13.5q-33 -66 -89 -125.5t-133 -105.5q-24 -78 -51.5 -127.5t-73 -78t-116.5 -28.5q-117 0 -117 93zM319.5 -176q11.5 15 16 30t14.5 56q-6 -2 -24 -6.5t-28.5 -10t-17.5 -12.5
q-9 -9 -14 -22.5t-5 -25.5q0 -13 7 -20.5t20 -6.5q20 3 31.5 18z" />
    <glyph glyph-name="uni0123" unicode="&#x123;" horiz-adv-x="615" 
d="M379 754q-13 -29 -26 -74.5t-16 -73.5h-87v9q7 27 31.5 74t48.5 77h49v-12zM-15 -197q0 10 1 15q6 53 35.5 85t72 49.5t113.5 37.5l12 55q-48 -45 -114 -45q-73 0 -109 39t-36 107q0 38 10 78q19 76 63.5 129.5t103.5 80t122 26.5q51 0 98.5 -17.5t84.5 -50.5q7 -6 7 -13
q0 -9 -9 -15l-32 -25q-8 -5 -13 -5q-6 0 -15 7q-50 46 -108 46q-56 0 -99.5 -45.5t-60.5 -129.5q-7 -35 -7 -65q0 -34 10 -51.5t26 -17.5q20 0 44.5 25t48.5 72.5t40 111.5q4 17 21 19l115 7h2q10 0 14.5 -5.5t2.5 -15.5l-62 -259q17 4 46.5 27.5t60.5 60t53 77.5
q6 12 16 12q5 0 12 -5l3 -2q9 -7 9 -18q0 -2 -2 -10q-33 -66 -89 -125.5t-133 -105.5q-24 -78 -51.5 -127.5t-73 -78t-116.5 -28.5q-117 0 -117 93zM158.5 -176q11.5 15 16 30t14.5 56q-6 -2 -24 -6.5t-28.5 -10t-17.5 -12.5q-9 -9 -14 -22.5t-5 -25.5q0 -13 7 -20.5
t20 -6.5q20 3 31.5 18z" />
    <glyph glyph-name="Hcircumflex" unicode="&#x124;" horiz-adv-x="741" 
d="M200 782q61 65 86 96.5t37 52.5h90q25 -49 125 -149v-11h-62q-44 26 -109 90q-64 -62 -107 -90h-60v11zM177 20l146 631q-34 -5 -75.5 -32t-71 -75t-29.5 -111q0 -50 20 -104q2 -6 2 -9q0 -13 -16 -19l-89 -31q-4 -2 -10 -2q-11 0 -15 11q-21 59 -21 119q0 86 44.5 154
t117.5 111t159 57l134 9h3q18 0 13 -20l-73 -318h152l71 310q5 18 24 20l115 8h3q18 0 13 -20l-128 -535q-6 -25 -6 -42q0 -40 27 -40q24 0 55.5 29t56.5 77q3 5 8 5q10 0 22 -10.5t8 -17.5q-38 -81 -99 -128t-134 -47q-53 0 -77 24.5t-24 65.5q0 19 5 44l44 188h-151
l-71 -302q-5 -20 -25 -20h-113q-20 0 -15 20z" />
    <glyph glyph-name="hcircumflex" unicode="&#x125;" horiz-adv-x="618" 
d="M143 809q61 65 86 96.5t37 52.5h90q25 -49 125 -149v-11h-62q-44 26 -109 90q-64 -62 -107 -90h-60v11zM-77 20l150 651q5 18 24 20l115 8h3q18 0 13 -20l-71 -310q76 86 173 86q53 0 78 -24.5t25 -65.5q0 -21 -6 -44l-37 -147q-6 -25 -6 -43q0 -20 7 -29.5t20 -9.5
q23 0 55.5 29t57.5 77q3 5 8 5q10 0 22 -10.5t8 -17.5q-38 -81 -99.5 -128t-134.5 -47q-53 0 -77 24.5t-24 65.5q0 19 5 44l37 147q6 26 6 44q0 20 -7.5 30t-19.5 10q-26 0 -61 -35t-61 -93l-50 -217q-5 -20 -25 -20h-113q-20 0 -15 20z" />
    <glyph glyph-name="Hbar" unicode="&#x126;" horiz-adv-x="741" 
d="M97 595v119h90v-119h366v119h90v-119h97v-72h-97v-523h-90v333h-366v-333h-90v523h-97v72h97zM553 412v111h-366v-111h366z" />
    <glyph glyph-name="hbar" unicode="&#x127;" horiz-adv-x="618" 
d="M450 0v323q0 65 -29 97t-91 32q-83 0 -120 -45t-37 -149v-258h-88v604h-76v66h76v90h88v-90h212v-66h-212v-87q0 -43 -5 -74h6q26 42 70.5 62.5t97.5 20.5q97 0 146 -47t49 -150v-329h-87z" />
    <glyph glyph-name="Itilde" unicode="&#x128;" horiz-adv-x="338" 
d="M244 772q-21 0 -41 9t-39.5 19.5t-37 19.5t-34.5 9q-24 0 -36 -14.5t-19 -43.5h-51q6 60 34 94t76 34q22 0 42.5 -9t39.5 -19.5t37 -19.5t33 -9q23 0 35.5 14.5t19.5 43.5h50q-6 -58 -34 -93t-75 -35zM181.5 6q-4.5 6 -2.5 16l143 629q-33 -5 -74 -32t-70.5 -74.5
t-29.5 -110.5q0 -50 21 -105q2 -8 2 -10q0 -11 -13 -17l-93 -32l-9 -2q-12 0 -17 14q-20 60 -20 117q0 85 44 153t117 111t159 57l132 8h2q10 0 14 -5.5t2 -15.5l-158 -689q-4 -18 -22 -18h-112q-11 0 -15.5 6z" />
    <glyph glyph-name="itilde" unicode="&#x129;" horiz-adv-x="257" 
d="M204 607q-21 0 -41 9t-39.5 19.5t-37 19.5t-34.5 9q-24 0 -36 -14.5t-19 -43.5h-51q6 60 34 94t76 34q22 0 42.5 -9t39.5 -19.5t37 -19.5t33 -9q23 0 35.5 14.5t19.5 43.5h50q-6 -58 -34 -93t-75 -35zM173 0h-88v536h88v-536z" />
    <glyph glyph-name="Imacron" unicode="&#x12a;" horiz-adv-x="338" 
d="M21 842h297v-71h-297v71zM181.5 6q-4.5 6 -2.5 16l143 629q-33 -5 -74 -32t-70.5 -74.5t-29.5 -110.5q0 -50 21 -105q2 -8 2 -10q0 -11 -13 -17l-93 -32l-9 -2q-12 0 -17 14q-20 60 -20 117q0 85 44 153t117 111t159 57l132 8h2q10 0 14 -5.5t2 -15.5l-158 -689
q-4 -18 -22 -18h-112q-11 0 -15.5 6z" />
    <glyph glyph-name="imacron" unicode="&#x12b;" horiz-adv-x="257" 
d="M-18 677h297v-71h-297v71zM173 0h-88v536h88v-536z" />
    <glyph glyph-name="Ibreve" unicode="&#x12c;" horiz-adv-x="338" 
d="M168 771q-69 0 -108.5 33.5t-44.5 100.5h54q4 -35 24.5 -49t76.5 -14q49 0 73 15.5t28 47.5h55q-6 -64 -48 -99t-110 -35zM181.5 6q-4.5 6 -2.5 16l143 629q-33 -5 -74 -32t-70.5 -74.5t-29.5 -110.5q0 -50 21 -105q2 -8 2 -10q0 -11 -13 -17l-93 -32l-9 -2q-12 0 -17 14
q-20 60 -20 117q0 85 44 153t117 111t159 57l132 8h2q10 0 14 -5.5t2 -15.5l-158 -689q-4 -18 -22 -18h-112q-11 0 -15.5 6z" />
    <glyph glyph-name="ibreve" unicode="&#x12d;" horiz-adv-x="257" 
d="M126 606q-69 0 -108.5 33.5t-44.5 100.5h54q4 -35 24.5 -49t76.5 -14q49 0 73 15.5t28 47.5h55q-6 -64 -48 -99t-110 -35zM173 0h-88v536h88v-536z" />
    <glyph glyph-name="Iogonek" unicode="&#x12e;" horiz-adv-x="338" 
d="M160 -116q0 -22 12 -33.5t33 -11.5t48 6v-56q-34 -9 -62 -9q-103 0 -103 94q0 68 78 126h62q-34 -32 -51 -58.5t-17 -57.5zM181.5 6q-4.5 6 -2.5 16l143 629q-33 -5 -74 -32t-70.5 -74.5t-29.5 -110.5q0 -50 21 -105q2 -8 2 -10q0 -11 -13 -17l-93 -32l-9 -2
q-12 0 -17 14q-20 60 -20 117q0 85 44 153t117 111t159 57l132 8h2q10 0 14 -5.5t2 -15.5l-158 -689q-4 -18 -22 -18h-112q-11 0 -15.5 6z" />
    <glyph glyph-name="iogonek" unicode="&#x12f;" horiz-adv-x="257" 
d="M97 -116q0 -22 12 -33.5t33 -11.5t48 6v-56q-34 -9 -62 -9q-103 0 -103 94q0 68 78 126h62q-34 -32 -51 -58.5t-17 -57.5zM110 498q-17 0 -31 7.5t-22 21.5q-8 13 -8 30q0 8 4 24q5 16 15.5 30t24.5 23q24 18 53 18q17 0 30.5 -7.5t20.5 -20.5q9 -13 9 -32q0 -12 -4 -23
q-9 -33 -39 -53q-27 -18 -53 -18zM-32 24.5q-24 24.5 -24 66.5q0 18 5 43l68 294q4 16 21 18l114 7h2q10 0 14.5 -5.5t1.5 -15.5l-64 -258q-6 -25 -6 -42q0 -42 28 -42q24 0 55.5 29.5t56.5 78.5q3 6 13.5 2.5t19 -11.5t5.5 -14q-38 -81 -99 -128t-133 -47q-54 0 -78 24.5z
" />
    <glyph glyph-name="Idotaccent" unicode="&#x130;" horiz-adv-x="338" 
d="M117 846q0 29 15 42.5t37 13.5q21 0 36 -13.5t15 -42.5t-15.5 -42.5t-35.5 -13.5q-22 0 -37 13.5t-15 42.5zM181.5 6q-4.5 6 -2.5 16l143 629q-33 -5 -74 -32t-70.5 -74.5t-29.5 -110.5q0 -50 21 -105q2 -8 2 -10q0 -11 -13 -17l-93 -32l-9 -2q-12 0 -17 14
q-20 60 -20 117q0 85 44 153t117 111t159 57l132 8h2q10 0 14 -5.5t2 -15.5l-158 -689q-4 -18 -22 -18h-112q-11 0 -15.5 6z" />
    <glyph glyph-name="dotlessi" unicode="&#x131;" horiz-adv-x="257" 
d="M173 0h-88v536h88v-536z" />
    <glyph glyph-name="IJ" unicode="&#x132;" horiz-adv-x="611" 
d="M181.5 6q-4.5 6 -2.5 16l143 629q-33 -5 -74 -32t-70.5 -74.5t-29.5 -110.5q0 -50 21 -105q2 -8 2 -10q0 -11 -13 -17l-93 -32l-9 -2q-12 0 -17 14q-20 60 -20 117q0 85 44 153t117 111t159 57l132 8h2q10 0 14 -5.5t2 -15.5l-158 -689q-4 -18 -22 -18h-112
q-11 0 -15.5 6zM289 -197q0 10 1 15q6 53 35 85t71 50t113 37l153 661q-34 -5 -75.5 -32t-71 -75t-29.5 -111q0 -47 19 -100q2 -6 2 -9q0 -17 -20 -25l-87 -30q-4 -2 -7 -2q-12 0 -15 10q-21 59 -21 120q0 86 44.5 154t117.5 111.5t159 57.5l133 9q10 0 14.5 -5.5t2.5 -15.5
l-154 -674q17 6 46 29.5t59.5 59.5t51.5 75q6 11 17 11q9 0 16 -7t7 -16q0 -7 -2 -10q-62 -128 -219 -221q-25 -82 -52 -133.5t-73 -81.5t-119 -30q-117 0 -117 93zM464 -172.5q13 26.5 19 55.5t8 37l-20 -6q-24 -6 -38 -12t-25 -16q-10 -11 -16 -26.5t-6 -29.5
q0 -16 8.5 -25.5t25.5 -7.5q31 4 44 30.5z" />
    <glyph glyph-name="ij" unicode="&#x133;" horiz-adv-x="514" 
d="M110 498q-17 0 -31 7.5t-22 21.5q-8 13 -8 30q0 8 4 24q5 16 15.5 30t24.5 23q24 18 53 18q17 0 30.5 -7.5t20.5 -20.5q9 -13 9 -32q0 -12 -4 -23q-9 -33 -39 -53q-27 -18 -53 -18zM-32 24.5q-24 24.5 -24 66.5q0 18 5 43l68 294q4 16 21 18l114 7h2q10 0 14.5 -5.5
t1.5 -15.5l-64 -258q-6 -25 -6 -42q0 -42 28 -42q24 0 55.5 29.5t56.5 78.5q3 6 13.5 2.5t19 -11.5t5.5 -14q-38 -81 -99 -128t-133 -47q-54 0 -78 24.5zM365 498q-17 0 -31 8t-21 21q-9 11 -9 29q0 12 5 25q4 15 14.5 29.5t25.5 23.5q24 18 53 18q17 0 30 -7.5t20 -20.5
q10 -13 10 -32q0 -14 -4 -23q-9 -33 -39 -53q-27 -18 -54 -18zM-50 -197q0 10 1 15q6 53 35.5 85t72 49.5t113.5 37.5l101 436q5 18 23 20l115 8h3q19 0 14 -20l-96 -401q16 4 49 28t67 60.5t56 76.5q1 4 8 4q10 0 22 -10t8 -17q-31 -62 -92.5 -123t-141.5 -108
q-24 -78 -51.5 -127.5t-73 -78t-116.5 -28.5q-117 0 -117 93zM129.5 -168.5q11.5 21.5 17 46t7.5 32.5q-7 -2 -24 -6.5t-28 -10t-18 -12.5q-9 -9 -14 -22t-5 -25q0 -14 7 -21.5t21 -6.5q25 4 36.5 25.5z" />
    <glyph glyph-name="Jcircumflex" unicode="&#x134;" horiz-adv-x="272" 
d="M-31 782q61 65 86 96.5t37 52.5h90q25 -49 125 -149v-11h-62q-44 26 -109 90q-64 -62 -107 -90h-60v11zM-50 -197q0 10 1 15q6 53 35 85t71 50t113 37l153 661q-34 -5 -75.5 -32t-71 -75t-29.5 -111q0 -47 19 -100q2 -6 2 -9q0 -17 -20 -25l-87 -30q-4 -2 -7 -2
q-12 0 -15 10q-21 59 -21 120q0 86 44.5 154t117.5 111.5t159 57.5l133 9q10 0 14.5 -5.5t2.5 -15.5l-154 -674q17 6 46 29.5t59.5 59.5t51.5 75q6 11 17 11q9 0 16 -7t7 -16q0 -7 -2 -10q-62 -128 -219 -221q-25 -82 -52 -133.5t-73 -81.5t-119 -30q-117 0 -117 93z
M125 -172.5q13 26.5 19 55.5t8 37l-20 -6q-24 -6 -38 -12t-25 -16q-10 -11 -16 -26.5t-6 -29.5q0 -16 8.5 -25.5t25.5 -7.5q31 4 44 30.5z" />
    <glyph glyph-name="jcircumflex" unicode="&#x135;" horiz-adv-x="257" 
d="M-42 617q61 65 86 96.5t37 52.5h90q25 -49 125 -149v-11h-62q-44 26 -109 90q-64 -62 -107 -90h-60v11zM22 -240q-46 0 -77 12v71q34 -10 66 -10q38 0 56 21t18 63v619h88v-616q0 -80 -38.5 -120t-112.5 -40z" />
    <glyph glyph-name="uni0136" unicode="&#x136;" horiz-adv-x="619" 
d="M246 -209q11 25 24 70.5t17 77.5h87v-9q-8 -31 -31.5 -76.5t-48.5 -74.5h-48v12zM176 20l146 631q-34 -5 -75.5 -32t-71 -75t-29.5 -112q0 -49 20 -103q2 -6 2 -9q0 -13 -15 -19l-90 -31q-4 -2 -10 -2q-11 0 -14 11q-21 59 -21 119q0 86 44.5 154t117.5 111t158 57l134 9
h3q18 0 13 -20l-80 -345q37 21 76.5 78.5t71 132.5t46.5 143q2 10 8 15.5t16 5.5l91 7h2q19 0 14 -19q-25 -95 -78.5 -185t-117.5 -157q48 -2 70.5 -26t22.5 -62q0 -18 -7 -46l-20 -77q-6 -25 -6 -42q0 -40 28 -40q23 0 55 29t57 77q3 5 8 5q10 0 21.5 -10.5t8.5 -17.5
q-39 -81 -100 -128t-134 -47q-53 0 -77 24.5t-24 65.5q0 19 5 44l21 77q7 25 7 45q0 39 -28 39q-26 0 -61 -35l-55 -240q-5 -20 -25 -20h-113q-20 0 -15 20z" />
    <glyph glyph-name="uni0137" unicode="&#x137;" horiz-adv-x="534" 
d="M203 -209q11 25 24 70.5t17 77.5h87v-9q-8 -31 -31.5 -76.5t-48.5 -74.5h-48v12zM-71.5 6q-4.5 6 -2.5 16l148 651q5 17 21 18l116 7h2q10 0 14 -5.5t2 -15.5l-71 -310q78 89 182 89q46 0 69.5 -20.5t23.5 -54.5q0 -41 -33 -88.5t-91 -83.5q-5 -25 -5 -39
q0 -42 23.5 -61.5t60.5 -19.5q35 0 72 28t65 81q3 6 13.5 2.5t18.5 -11.5t6 -14q-39 -80 -99 -127.5t-131 -47.5q-166 0 -164 183q1 16 15 24q47 28 70.5 61t23.5 61q0 16 -8 25.5t-22 9.5q-23 0 -54.5 -30.5t-64.5 -94.5l-51 -221q-4 -18 -22 -18h-112q-11 0 -15.5 6z" />
    <glyph glyph-name="kgreenlandic" unicode="&#x138;" horiz-adv-x="534" 
d="M403 536h106l-203 -237l219 -299h-105l-176 242l-66 -54v-188h-93v536h93v-139q0 -68 -6 -135l41 50z" />
    <glyph glyph-name="Lacute" unicode="&#x139;" horiz-adv-x="523" 
d="M179.5 6q-4.5 6 -2.5 16l146 629q-34 -5 -75.5 -32t-71 -75t-29.5 -111q0 -50 20 -104q2 -6 2 -9q0 -13 -16 -19l-89 -31q-4 -2 -10 -2q-11 0 -15 11q-21 59 -21 119q0 86 44.5 154t117.5 111t159 57l134 9h3q18 0 13 -20l-142 -620h209q18 0 18 -21l-1 -10l-4 -39
q-1 -19 -21 -19h-353q-11 0 -15.5 6zM118 783q19 23 47.5 66.5t47.5 81.5h106v-10q-21 -31 -66.5 -78.5t-76.5 -71.5h-58v12z" />
    <glyph glyph-name="lacute" unicode="&#x13a;" horiz-adv-x="257" 
d="M-32 24.5q-24 24.5 -24 66.5q0 18 5 43l123 539q4 17 21 18l115 7h2q10 0 14.5 -5.5t2.5 -15.5l-121 -503q-5 -23 -5 -37q0 -23 10 -35t26 -12q27 0 62 29.5t61 78.5q3 6 13.5 2.5t19 -11.5t5.5 -14q-38 -78 -108.5 -126.5t-143.5 -48.5q-54 0 -78 24.5zM81 811
q19 23 47.5 66.5t47.5 81.5h106v-10q-21 -31 -66.5 -78.5t-76.5 -71.5h-58v12z" />
    <glyph glyph-name="uni013B" unicode="&#x13b;" horiz-adv-x="523" 
d="M204 -209q11 25 24 70.5t17 77.5h87v-9q-8 -31 -31.5 -76.5t-48.5 -74.5h-48v12zM179.5 6q-4.5 6 -2.5 16l146 629q-34 -5 -75.5 -32t-71 -75t-29.5 -111q0 -50 20 -104q2 -6 2 -9q0 -13 -16 -19l-89 -31q-4 -2 -10 -2q-11 0 -15 11q-21 59 -21 119q0 86 44.5 154
t117.5 111t159 57l134 9h3q18 0 13 -20l-142 -620h209q18 0 18 -21l-1 -10l-4 -39q-1 -19 -21 -19h-353q-11 0 -15.5 6z" />
    <glyph glyph-name="uni013C" unicode="&#x13c;" horiz-adv-x="257" 
d="M45 -209q11 25 24 70.5t17 77.5h87v-9q-8 -31 -31.5 -76.5t-48.5 -74.5h-48v12zM-32 24.5q-24 24.5 -24 66.5q0 18 5 43l123 539q4 17 21 18l115 7h2q10 0 14.5 -5.5t2.5 -15.5l-121 -503q-5 -23 -5 -37q0 -23 10 -35t26 -12q27 0 62 29.5t61 78.5q3 6 13.5 2.5t19 -11.5
t5.5 -14q-38 -78 -108.5 -126.5t-143.5 -48.5q-54 0 -78 24.5z" />
    <glyph glyph-name="Lcaron" unicode="&#x13d;" horiz-adv-x="523" 
d="M333 567q11 32 20.5 77.5t12.5 70.5h87v-9q-6 -26 -27 -71t-45 -80h-48v12zM179.5 6q-4.5 6 -2.5 16l146 629q-34 -5 -75.5 -32t-71 -75t-29.5 -111q0 -50 20 -104q2 -6 2 -9q0 -13 -16 -19l-89 -31q-4 -2 -10 -2q-11 0 -15 11q-21 59 -21 119q0 86 44.5 154t117.5 111
t159 57l134 9h3q18 0 13 -20l-142 -620h209q18 0 18 -21l-1 -10l-4 -39q-1 -19 -21 -19h-353q-11 0 -15.5 6z" />
    <glyph glyph-name="lcaron" unicode="&#x13e;" horiz-adv-x="257" 
d="M219 612q11 32 20.5 77.5t12.5 70.5h87v-9q-6 -26 -27 -71t-45 -80h-48v12zM-32 24.5q-24 24.5 -24 66.5q0 18 5 43l123 539q4 17 21 18l115 7h2q10 0 14.5 -5.5t2.5 -15.5l-121 -503q-5 -23 -5 -37q0 -23 10 -35t26 -12q27 0 62 29.5t61 78.5q3 6 13.5 2.5t19 -11.5
t5.5 -14q-38 -78 -108.5 -126.5t-143.5 -48.5q-54 0 -78 24.5z" />
    <glyph glyph-name="Ldot" unicode="&#x13f;" horiz-adv-x="523" 
d="M332 357q0 29 15 42.5t37 13.5q21 0 36 -13.5t15 -42.5t-15.5 -42.5t-35.5 -13.5q-22 0 -37 13.5t-15 42.5zM179.5 6q-4.5 6 -2.5 16l146 629q-34 -5 -75.5 -32t-71 -75t-29.5 -111q0 -50 20 -104q2 -6 2 -9q0 -13 -16 -19l-89 -31q-4 -2 -10 -2q-11 0 -15 11
q-21 59 -21 119q0 86 44.5 154t117.5 111t159 57l134 9h3q18 0 13 -20l-142 -620h209q18 0 18 -21l-1 -10l-4 -39q-1 -19 -21 -19h-353q-11 0 -15.5 6z" />
    <glyph glyph-name="ldot" unicode="&#x140;" horiz-adv-x="325" 
d="M240 333q0 29 15 42.5t37 13.5q21 0 36 -13.5t15 -42.5t-15.5 -42.5t-35.5 -13.5q-22 0 -37 13.5t-15 42.5zM-32 24.5q-24 24.5 -24 66.5q0 18 5 43l123 539q4 17 21 18l115 7h2q10 0 14.5 -5.5t2.5 -15.5l-121 -503q-5 -23 -5 -37q0 -23 10 -35t26 -12q27 0 62 29.5
t61 78.5q3 6 13.5 2.5t19 -11.5t5.5 -14q-38 -78 -108.5 -126.5t-143.5 -48.5q-54 0 -78 24.5z" />
    <glyph glyph-name="Lslash" unicode="&#x141;" horiz-adv-x="523" 
d="M97 0v247l-49 -28l-35 60l84 50v385h90v-332l137 81l36 -63l-173 -100v-220h312v-80h-402z" />
    <glyph glyph-name="lslash" unicode="&#x142;" horiz-adv-x="257" 
d="M166 425l64 44l37 -59l-101 -68v-342h-88v285l-51 -32l-36 59l87 56v392h88v-335z" />
    <glyph glyph-name="Nacute" unicode="&#x143;" horiz-adv-x="759" 
d="M178 20l146 631q-34 -5 -75.5 -32t-71 -75t-29.5 -111q0 -50 20 -104q2 -6 2 -9q0 -13 -16 -19l-89 -31q-4 -2 -10 -2q-11 0 -15 11q-21 59 -21 119q0 86 44.5 154t117.5 111t159 57l137 7h3q14 0 18 -15l86 -477l107 466q4 19 24 21l66 6h3q19 0 14 -19l-159 -689
q-5 -20 -25 -20h-116q-9 0 -13 4t-6 12l-86 479l-110 -475q-5 -20 -25 -20h-65q-20 0 -15 20zM318 783q19 23 47.5 66.5t47.5 81.5h106v-10q-21 -31 -66.5 -78.5t-76.5 -71.5h-58v12z" />
    <glyph glyph-name="nacute" unicode="&#x144;" horiz-adv-x="618" 
d="M-73.5 6q-4.5 6 -2.5 16l93 406q5 17 21 18l115 7h2q10 0 14 -5.5t2 -15.5l-14 -63q36 41 80.5 63.5t92.5 22.5q53 0 77.5 -24.5t24.5 -64.5q0 -22 -6 -45l-37 -147q-6 -25 -6 -43q0 -41 28 -41q24 0 55.5 29.5t56.5 78.5q3 6 13.5 2.5t18.5 -11.5t6 -14
q-38 -81 -99 -128t-133 -47q-54 0 -78 24.5t-24 66.5q0 18 5 43l37 147q6 26 6 43q0 41 -28 41q-25 0 -60 -35.5t-61 -92.5l-50 -219q-4 -18 -22 -18h-112q-11 0 -15.5 6zM250 618q19 23 47.5 66.5t47.5 81.5h106v-10q-21 -31 -66.5 -78.5t-76.5 -71.5h-58v12z" />
    <glyph glyph-name="uni0145" unicode="&#x145;" horiz-adv-x="759" 
d="M281 -209q11 25 24 70.5t17 77.5h87v-9q-8 -31 -31.5 -76.5t-48.5 -74.5h-48v12zM178 20l146 631q-34 -5 -75.5 -32t-71 -75t-29.5 -111q0 -50 20 -104q2 -6 2 -9q0 -13 -16 -19l-89 -31q-4 -2 -10 -2q-11 0 -15 11q-21 59 -21 119q0 86 44.5 154t117.5 111t159 57l137 7
h3q14 0 18 -15l86 -477l107 466q4 19 24 21l66 6h3q19 0 14 -19l-159 -689q-5 -20 -25 -20h-116q-9 0 -13 4t-6 12l-86 479l-110 -475q-5 -20 -25 -20h-65q-20 0 -15 20z" />
    <glyph glyph-name="uni0146" unicode="&#x146;" horiz-adv-x="618" 
d="M222 -209q11 25 24 70.5t17 77.5h87v-9q-8 -31 -31.5 -76.5t-48.5 -74.5h-48v12zM-73.5 6q-4.5 6 -2.5 16l93 406q5 17 21 18l115 7h2q10 0 14 -5.5t2 -15.5l-14 -63q36 41 80.5 63.5t92.5 22.5q53 0 77.5 -24.5t24.5 -64.5q0 -22 -6 -45l-37 -147q-6 -25 -6 -43
q0 -41 28 -41q24 0 55.5 29.5t56.5 78.5q3 6 13.5 2.5t18.5 -11.5t6 -14q-38 -81 -99 -128t-133 -47q-54 0 -78 24.5t-24 66.5q0 18 5 43l37 147q6 26 6 43q0 41 -28 41q-25 0 -60 -35.5t-61 -92.5l-50 -219q-4 -18 -22 -18h-112q-11 0 -15.5 6z" />
    <glyph glyph-name="Ncaron" unicode="&#x147;" horiz-adv-x="759" 
d="M211 931h60q56 -36 107 -92q62 62 109 92h62v-13q-100 -100 -125 -147h-90q-29 50 -123 147v13zM178 20l146 631q-34 -5 -75.5 -32t-71 -75t-29.5 -111q0 -50 20 -104q2 -6 2 -9q0 -13 -16 -19l-89 -31q-4 -2 -10 -2q-11 0 -15 11q-21 59 -21 119q0 86 44.5 154
t117.5 111t159 57l137 7h3q14 0 18 -15l86 -477l107 466q4 19 24 21l66 6h3q19 0 14 -19l-159 -689q-5 -20 -25 -20h-116q-9 0 -13 4t-6 12l-86 479l-110 -475q-5 -20 -25 -20h-65q-20 0 -15 20z" />
    <glyph glyph-name="ncaron" unicode="&#x148;" horiz-adv-x="618" 
d="M144 766h60q56 -36 107 -92q62 62 109 92h62v-13q-100 -100 -125 -147h-90q-29 50 -123 147v13zM-73.5 6q-4.5 6 -2.5 16l93 406q5 17 21 18l115 7h2q10 0 14 -5.5t2 -15.5l-14 -63q36 41 80.5 63.5t92.5 22.5q53 0 77.5 -24.5t24.5 -64.5q0 -22 -6 -45l-37 -147
q-6 -25 -6 -43q0 -41 28 -41q24 0 55.5 29.5t56.5 78.5q3 6 13.5 2.5t18.5 -11.5t6 -14q-38 -81 -99 -128t-133 -47q-54 0 -78 24.5t-24 66.5q0 18 5 43l37 147q6 26 6 43q0 41 -28 41q-25 0 -60 -35.5t-61 -92.5l-50 -219q-4 -18 -22 -18h-112q-11 0 -15.5 6z" />
    <glyph glyph-name="napostrophe" unicode="&#x149;" horiz-adv-x="690" 
d="M145 714l7 -11q-25 -97 -86 -234h-65q34 139 50 245h94zM-2.5 6q-4.5 6 -2.5 16l93 406q5 17 21 18l115 7h2q10 0 14 -5.5t2 -15.5l-14 -63q36 41 80.5 63.5t92.5 22.5q53 0 77.5 -24.5t24.5 -64.5q0 -22 -6 -45l-37 -147q-6 -25 -6 -43q0 -41 28 -41q24 0 55.5 29.5
t56.5 78.5q3 6 13.5 2.5t18.5 -11.5t6 -14q-38 -81 -99 -128t-133 -47q-54 0 -78 24.5t-24 66.5q0 18 5 43l37 147q6 26 6 43q0 41 -28 41q-25 0 -60 -35.5t-61 -92.5l-50 -219q-4 -18 -22 -18h-112q-11 0 -15.5 6z" />
    <glyph glyph-name="Eng" unicode="&#x14a;" horiz-adv-x="759" 
d="M475 -190q-48 0 -76 13v76q35 -10 76 -10q50 0 76.5 28.5t27.5 82.5l-403 593h-4q8 -125 8 -206v-387h-83v714h104l381 -572h4q-7 75 -7 200v372h84v-708q0 -96 -48.5 -146t-139.5 -50z" />
    <glyph glyph-name="eng" unicode="&#x14b;" horiz-adv-x="618" 
d="M394 -240q-42 0 -71 12v71q29 -10 60 -10q67 0 67 84v427q0 65 -29 96.5t-90 31.5q-83 0 -120.5 -45.5t-37.5 -147.5v-279h-88v536h71l14 -73h5q25 40 69 61.5t98 21.5q99 0 147.5 -46.5t48.5 -149.5v-430q0 -75 -35 -117.5t-109 -42.5z" />
    <glyph glyph-name="Omacron" unicode="&#x14c;" horiz-adv-x="780" 
d="M242 842h297v-71h-297v71zM49 73q-58 73 -58 187q0 50 13 112q19 88 61.5 165.5t100 125t120.5 47.5l14 -1q8 -1 10 -4.5t1 -14.5l-5 -39q0 -3 -1 -9.5t-3.5 -10.5t-8.5 -6q-47 -21 -83 -92.5t-53 -161.5q-10 -53 -10 -108q0 -74 21.5 -118t66.5 -44q41 0 86 36.5t84 98
t63 133.5q26 76 26 153q0 32 -4 56q-5 34 -13.5 51t-17.5 17q-14 0 -25 -28.5t-11 -66.5q0 -39 13 -72q1 -2 1 -7q0 -16 -19 -19l-92 -16l-7 -1q-13 0 -16 11q-14 34 -14 72q0 51 22.5 98t64 77t96.5 30q83 0 126 -60.5t43 -156.5q0 -66 -20 -138q-27 -95 -84 -179.5
t-137.5 -137t-173.5 -52.5q-119 0 -177 73z" />
    <glyph glyph-name="omacron" unicode="&#x14d;" horiz-adv-x="604" 
d="M154 677h297v-71h-297v71zM12 49.5q-48 48.5 -48 123.5q0 67 38 134t106 110.5t154 43.5q95 0 144.5 -50t49.5 -126q0 -44 -16.5 -89t-47.5 -84q38 -3 76 16t67 70q3 6 13.5 2.5t18.5 -12t6 -13.5q-38 -76 -102.5 -102t-142.5 -25h-6q-74 -48 -167 -48q-95 1 -143 49.5z
M230 95q-1 18 11.5 35.5t27.5 20.5q17 35 27 74.5t10 74.5q0 43 -15.5 69.5t-46.5 26.5q-36 0 -67 -37t-49 -92.5t-18 -105.5q0 -43 14.5 -69t44.5 -26q32 0 61 29z" />
    <glyph glyph-name="Obreve" unicode="&#x14e;" horiz-adv-x="780" 
d="M387 771q-69 0 -108.5 33.5t-44.5 100.5h54q4 -35 24.5 -49t76.5 -14q49 0 73 15.5t28 47.5h55q-6 -64 -48 -99t-110 -35zM49 73q-58 73 -58 187q0 50 13 112q19 88 61.5 165.5t100 125t120.5 47.5l14 -1q8 -1 10 -4.5t1 -14.5l-5 -39q0 -3 -1 -9.5t-3.5 -10.5t-8.5 -6
q-47 -21 -83 -92.5t-53 -161.5q-10 -53 -10 -108q0 -74 21.5 -118t66.5 -44q41 0 86 36.5t84 98t63 133.5q26 76 26 153q0 32 -4 56q-5 34 -13.5 51t-17.5 17q-14 0 -25 -28.5t-11 -66.5q0 -39 13 -72q1 -2 1 -7q0 -16 -19 -19l-92 -16l-7 -1q-13 0 -16 11q-14 34 -14 72
q0 51 22.5 98t64 77t96.5 30q83 0 126 -60.5t43 -156.5q0 -66 -20 -138q-27 -95 -84 -179.5t-137.5 -137t-173.5 -52.5q-119 0 -177 73z" />
    <glyph glyph-name="obreve" unicode="&#x14f;" horiz-adv-x="604" 
d="M299 606q-69 0 -108.5 33.5t-44.5 100.5h54q4 -35 24.5 -49t76.5 -14q49 0 73 15.5t28 47.5h55q-6 -64 -48 -99t-110 -35zM12 49.5q-48 48.5 -48 123.5q0 67 38 134t106 110.5t154 43.5q95 0 144.5 -50t49.5 -126q0 -44 -16.5 -89t-47.5 -84q38 -3 76 16t67 70
q3 6 13.5 2.5t18.5 -12t6 -13.5q-38 -76 -102.5 -102t-142.5 -25h-6q-74 -48 -167 -48q-95 1 -143 49.5zM230 95q-1 18 11.5 35.5t27.5 20.5q17 35 27 74.5t10 74.5q0 43 -15.5 69.5t-46.5 26.5q-36 0 -67 -37t-49 -92.5t-18 -105.5q0 -43 14.5 -69t44.5 -26q32 0 61 29z
" />
    <glyph glyph-name="Ohungarumlaut" unicode="&#x150;" horiz-adv-x="780" 
d="M246 783q17 22 42.5 65.5t44.5 82.5h96v-10q-16 -27 -58.5 -75t-74.5 -75h-50v12zM422 783q23 32 49 76.5t38 71.5h96v-10q-16 -27 -58.5 -75t-74.5 -75h-50v12zM49 73q-58 73 -58 187q0 50 13 112q19 88 61.5 165.5t100 125t120.5 47.5l14 -1q8 -1 10 -4.5t1 -14.5
l-5 -39q0 -3 -1 -9.5t-3.5 -10.5t-8.5 -6q-47 -21 -83 -92.5t-53 -161.5q-10 -53 -10 -108q0 -74 21.5 -118t66.5 -44q41 0 86 36.5t84 98t63 133.5q26 76 26 153q0 32 -4 56q-5 34 -13.5 51t-17.5 17q-14 0 -25 -28.5t-11 -66.5q0 -39 13 -72q1 -2 1 -7q0 -16 -19 -19
l-92 -16l-7 -1q-13 0 -16 11q-14 34 -14 72q0 51 22.5 98t64 77t96.5 30q83 0 126 -60.5t43 -156.5q0 -66 -20 -138q-27 -95 -84 -179.5t-137.5 -137t-173.5 -52.5q-119 0 -177 73z" />
    <glyph glyph-name="ohungarumlaut" unicode="&#x151;" horiz-adv-x="604" 
d="M154 618q17 22 42.5 65.5t44.5 82.5h96v-10q-16 -27 -58.5 -75t-74.5 -75h-50v12zM330 618q23 32 49 76.5t38 71.5h96v-10q-16 -27 -58.5 -75t-74.5 -75h-50v12zM12 49.5q-48 48.5 -48 123.5q0 67 38 134t106 110.5t154 43.5q95 0 144.5 -50t49.5 -126q0 -44 -16.5 -89
t-47.5 -84q38 -3 76 16t67 70q3 6 13.5 2.5t18.5 -12t6 -13.5q-38 -76 -102.5 -102t-142.5 -25h-6q-74 -48 -167 -48q-95 1 -143 49.5zM230 95q-1 18 11.5 35.5t27.5 20.5q17 35 27 74.5t10 74.5q0 43 -15.5 69.5t-46.5 26.5q-36 0 -67 -37t-49 -92.5t-18 -105.5
q0 -43 14.5 -69t44.5 -26q32 0 61 29z" />
    <glyph glyph-name="OE" unicode="&#x152;" horiz-adv-x="928" 
d="M868 0h-380q-50 -10 -97 -10q-159 0 -244.5 96.5t-85.5 272.5q0 175 84 270.5t241 95.5q52 0 96 -11h386v-79h-287v-223h268v-78h-268v-255h287v-79zM394 646q-118 0 -178.5 -73.5t-60.5 -214.5t60.5 -215.5t177.5 -74.5q57 0 99 17v545q-41 16 -98 16z" />
    <glyph glyph-name="oe" unicode="&#x153;" horiz-adv-x="945" 
d="M699 -10q-142 0 -204 111q-31 -55 -82 -83t-117 -28q-110 0 -176 75.5t-66 203.5q0 130 64.5 203t180.5 73q63 0 113 -28t80 -82q29 53 76 81.5t109 28.5q100 0 158.5 -64.5t58.5 -176.5v-53h-356q4 -186 162 -186q44 0 81.5 7.5t88.5 29.5v-77q-45 -20 -83 -27.5
t-88 -7.5zM146 269q0 -102 35.5 -154t115.5 -52q78 0 114 51t36 151q0 104 -36.5 155.5t-115.5 51.5t-114 -51.5t-35 -151.5zM676 473q-60 0 -95 -38.5t-41 -113.5h261q0 74 -31.5 113t-93.5 39z" />
    <glyph glyph-name="Racute" unicode="&#x154;" horiz-adv-x="622" 
d="M183.5 6q-4.5 6 -2.5 16l128 561q5 17 21 18l115 7h2q10 0 14 -5.5t2 -15.5l-51 -222q84 11 131 45t60 94q3 15 3 30q0 62 -53 96.5t-131 34.5q-65 0 -126 -24.5t-102 -74t-46 -120.5q-3 -59 20 -121l2 -9q0 -11 -13 -17l-93 -32l-9 -2q-12 0 -17 14q-21 63 -21 117
q0 84 44 150t116.5 109t160.5 62q60 12 121 12q81 0 148.5 -21.5t107.5 -65.5t40 -107q0 -13 -4 -39q-16 -101 -135 -156q67 -21 67 -96q0 -28 -11 -70q-6 -25 -6 -43q0 -41 28 -41q24 0 55.5 29.5t56.5 78.5q3 6 13.5 2.5t18.5 -11.5t6 -14q-38 -81 -99 -128t-133 -47
q-54 0 -78 24.5t-24 66.5q0 18 5 43q9 33 9 58q0 51 -33.5 75t-93.5 29l-64 -278q-4 -18 -22 -18h-112q-11 0 -15.5 6zM249 783q19 23 47.5 66.5t47.5 81.5h106v-10q-21 -31 -66.5 -78.5t-76.5 -71.5h-58v12z" />
    <glyph glyph-name="racute" unicode="&#x155;" horiz-adv-x="413" 
d="M81 28q-35 28 -35 74q0 37 22 79l62 114q16 29 16 53q0 41 -47 55q-3 -15 -39 -101t-55 -127q-2 -5 -8 -5q-10 0 -22 11t-8 17q31 60 88 231q-11 4 -20 18q-7 8 -7 24q0 10 3 19q7 22 24 35t35 13t29 -13t8 -37q60 -26 111.5 -67.5t51.5 -95.5q0 -23 -11 -45l-63 -106
q-14 -24 -14 -45q0 -19 12 -29.5t32 -10.5q32 0 70 27.5t67 81.5q1 4 7 4q10 0 22 -10t9 -17q-39 -85 -102 -130t-133 -45t-105 28zM174 618q19 23 47.5 66.5t47.5 81.5h106v-10q-21 -31 -66.5 -78.5t-76.5 -71.5h-58v12z" />
    <glyph glyph-name="uni0156" unicode="&#x156;" horiz-adv-x="622" 
d="M242 -209q11 25 24 70.5t17 77.5h87v-9q-8 -31 -31.5 -76.5t-48.5 -74.5h-48v12zM183.5 6q-4.5 6 -2.5 16l128 561q5 17 21 18l115 7h2q10 0 14 -5.5t2 -15.5l-51 -222q84 11 131 45t60 94q3 15 3 30q0 62 -53 96.5t-131 34.5q-65 0 -126 -24.5t-102 -74t-46 -120.5
q-3 -59 20 -121l2 -9q0 -11 -13 -17l-93 -32l-9 -2q-12 0 -17 14q-21 63 -21 117q0 84 44 150t116.5 109t160.5 62q60 12 121 12q81 0 148.5 -21.5t107.5 -65.5t40 -107q0 -13 -4 -39q-16 -101 -135 -156q67 -21 67 -96q0 -28 -11 -70q-6 -25 -6 -43q0 -41 28 -41
q24 0 55.5 29.5t56.5 78.5q3 6 13.5 2.5t18.5 -11.5t6 -14q-38 -81 -99 -128t-133 -47q-54 0 -78 24.5t-24 66.5q0 18 5 43q9 33 9 58q0 51 -33.5 75t-93.5 29l-64 -278q-4 -18 -22 -18h-112q-11 0 -15.5 6z" />
    <glyph glyph-name="uni0157" unicode="&#x157;" horiz-adv-x="413" 
d="M48 -209q11 25 24 70.5t17 77.5h87v-9q-8 -31 -31.5 -76.5t-48.5 -74.5h-48v12zM81 28q-35 28 -35 74q0 37 22 79l62 114q16 29 16 53q0 41 -47 55q-3 -15 -39 -101t-55 -127q-2 -5 -8 -5q-10 0 -22 11t-8 17q31 60 88 231q-11 4 -20 18q-7 8 -7 24q0 10 3 19q7 22 24 35
t35 13t29 -13t8 -37q60 -26 111.5 -67.5t51.5 -95.5q0 -23 -11 -45l-63 -106q-14 -24 -14 -45q0 -19 12 -29.5t32 -10.5q32 0 70 27.5t67 81.5q1 4 7 4q10 0 22 -10t9 -17q-39 -85 -102 -130t-133 -45t-105 28z" />
    <glyph glyph-name="Rcaron" unicode="&#x158;" horiz-adv-x="622" 
d="M141 931h60q56 -36 107 -92q62 62 109 92h62v-13q-100 -100 -125 -147h-90q-29 50 -123 147v13zM183.5 6q-4.5 6 -2.5 16l128 561q5 17 21 18l115 7h2q10 0 14 -5.5t2 -15.5l-51 -222q84 11 131 45t60 94q3 15 3 30q0 62 -53 96.5t-131 34.5q-65 0 -126 -24.5t-102 -74
t-46 -120.5q-3 -59 20 -121l2 -9q0 -11 -13 -17l-93 -32l-9 -2q-12 0 -17 14q-21 63 -21 117q0 84 44 150t116.5 109t160.5 62q60 12 121 12q81 0 148.5 -21.5t107.5 -65.5t40 -107q0 -13 -4 -39q-16 -101 -135 -156q67 -21 67 -96q0 -28 -11 -70q-6 -25 -6 -43
q0 -41 28 -41q24 0 55.5 29.5t56.5 78.5q3 6 13.5 2.5t18.5 -11.5t6 -14q-38 -81 -99 -128t-133 -47q-54 0 -78 24.5t-24 66.5q0 18 5 43q9 33 9 58q0 51 -33.5 75t-93.5 29l-64 -278q-4 -18 -22 -18h-112q-11 0 -15.5 6z" />
    <glyph glyph-name="rcaron" unicode="&#x159;" horiz-adv-x="413" 
d="M62 766h60q56 -36 107 -92q62 62 109 92h62v-13q-100 -100 -125 -147h-90q-29 50 -123 147v13zM81 28q-35 28 -35 74q0 37 22 79l62 114q16 29 16 53q0 41 -47 55q-3 -15 -39 -101t-55 -127q-2 -5 -8 -5q-10 0 -22 11t-8 17q31 60 88 231q-11 4 -20 18q-7 8 -7 24
q0 10 3 19q7 22 24 35t35 13t29 -13t8 -37q60 -26 111.5 -67.5t51.5 -95.5q0 -23 -11 -45l-63 -106q-14 -24 -14 -45q0 -19 12 -29.5t32 -10.5q32 0 70 27.5t67 81.5q1 4 7 4q10 0 22 -10t9 -17q-39 -85 -102 -130t-133 -45t-105 28z" />
    <glyph glyph-name="Sacute" unicode="&#x15a;" horiz-adv-x="548" 
d="M264.5 258q-29.5 40 -87.5 92q-55 50 -82.5 87t-26.5 83q0 62 44.5 109.5t112 73t136.5 25.5q79 0 131 -34t52 -99q0 -7 -2 -23q-1 -17 -20 -19l-90 -5h-2q-9 0 -14 5t-4 15q4 48 -18 72t-55 24q-26 0 -50 -13t-37.5 -36.5t-10.5 -53.5q5 -41 31.5 -73t77.5 -74
q39 -33 62 -56.5t39 -54t16 -67.5q0 -9 -2 -27q-10 -64 -57.5 -111.5t-115.5 -72.5t-137 -25q-85 0 -141.5 38t-56.5 110q0 7 2 27q1 17 20 19l90 6h3q18 0 16 -21q-3 -51 27.5 -79t73.5 -28q42 0 73 25.5t31 68.5q1 52 -28.5 92zM227 783q19 23 47.5 66.5t47.5 81.5h106
v-10q-21 -31 -66.5 -78.5t-76.5 -71.5h-58v12z" />
    <glyph glyph-name="sacute" unicode="&#x15b;" horiz-adv-x="479" 
d="M40 17q-43 21 -64 58q-2 2 -2 8q0 13 13 21l25 14q8 4 12 4q8 0 11 -6q18 -22 26 -29q27 -19 44 -19q18 0 36 15q-3 6 -3 15q0 13 6.5 26t17.5 20q-2 52 -12 95q-25 97 -46 145q-9 -16 -56 -117q-36 -78 -43 -92q-7 -12 -15 -12t-14 6q-12 11 -12 18q0 5 3 11
q10 19 45 97q33 75 56 115t56 66.5t80 26.5q32 0 53 -15.5t21 -41.5q0 -22 -18 -51q14 -61 37 -129q2 -7 4 -12t3 -10q20 -72 20 -105q0 -9 -2 -25q36 5 68.5 24t52.5 60q1 4 8 4q11 0 23 -8t9 -15q-33 -66 -82 -93.5t-116 -35.5q-27 -24 -69 -37t-93 -13q-46 0 -83 17z
M181 618q19 23 47.5 66.5t47.5 81.5h106v-10q-21 -31 -66.5 -78.5t-76.5 -71.5h-58v12z" />
    <glyph glyph-name="Scircumflex" unicode="&#x15c;" horiz-adv-x="548" 
d="M116 782q61 65 86 96.5t37 52.5h90q25 -49 125 -149v-11h-62q-44 26 -109 90q-64 -62 -107 -90h-60v11zM264.5 258q-29.5 40 -87.5 92q-55 50 -82.5 87t-26.5 83q0 62 44.5 109.5t112 73t136.5 25.5q79 0 131 -34t52 -99q0 -7 -2 -23q-1 -17 -20 -19l-90 -5h-2
q-9 0 -14 5t-4 15q4 48 -18 72t-55 24q-26 0 -50 -13t-37.5 -36.5t-10.5 -53.5q5 -41 31.5 -73t77.5 -74q39 -33 62 -56.5t39 -54t16 -67.5q0 -9 -2 -27q-10 -64 -57.5 -111.5t-115.5 -72.5t-137 -25q-85 0 -141.5 38t-56.5 110q0 7 2 27q1 17 20 19l90 6h3q18 0 16 -21
q-3 -51 27.5 -79t73.5 -28q42 0 73 25.5t31 68.5q1 52 -28.5 92z" />
    <glyph glyph-name="scircumflex" unicode="&#x15d;" horiz-adv-x="479" 
d="M77 617q61 65 86 96.5t37 52.5h90q25 -49 125 -149v-11h-62q-44 26 -109 90q-64 -62 -107 -90h-60v11zM40 17q-43 21 -64 58q-2 2 -2 8q0 13 13 21l25 14q8 4 12 4q8 0 11 -6q18 -22 26 -29q27 -19 44 -19q18 0 36 15q-3 6 -3 15q0 13 6.5 26t17.5 20q-2 52 -12 95
q-25 97 -46 145q-9 -16 -56 -117q-36 -78 -43 -92q-7 -12 -15 -12t-14 6q-12 11 -12 18q0 5 3 11q10 19 45 97q33 75 56 115t56 66.5t80 26.5q32 0 53 -15.5t21 -41.5q0 -22 -18 -51q14 -61 37 -129q2 -7 4 -12t3 -10q20 -72 20 -105q0 -9 -2 -25q36 5 68.5 24t52.5 60
q1 4 8 4q11 0 23 -8t9 -15q-33 -66 -82 -93.5t-116 -35.5q-27 -24 -69 -37t-93 -13q-46 0 -83 17z" />
    <glyph glyph-name="Scedilla" unicode="&#x15e;" horiz-adv-x="548" 
d="M264.5 258q-29.5 40 -87.5 92q-55 50 -82.5 87t-26.5 83q0 62 44.5 109.5t112 73t136.5 25.5q79 0 131 -34t52 -99q0 -7 -2 -23q-1 -17 -20 -19l-90 -5h-2q-9 0 -14 5t-4 15q4 48 -18 72t-55 24q-26 0 -50 -13t-37.5 -36.5t-10.5 -53.5q5 -41 31.5 -73t77.5 -74
q39 -33 62 -56.5t39 -54t16 -67.5q0 -9 -2 -27q-10 -64 -57.5 -111.5t-115.5 -72.5t-137 -25q-85 0 -141.5 38t-56.5 110q0 7 2 27q1 17 20 19l90 6h3q18 0 16 -21q-3 -51 27.5 -79t73.5 -28q42 0 73 25.5t31 68.5q1 52 -28.5 92zM358 -139q0 -48 -37 -74.5t-111 -26.5
q-32 0 -50 5v55q18 -5 53 -5q37 0 55.5 9.5t18.5 34.5q0 43 -91 55l43 86h58l-26 -53q87 -19 87 -86z" />
    <glyph glyph-name="scedilla" unicode="&#x15f;" horiz-adv-x="479" 
d="M40 17q-43 21 -64 58q-2 2 -2 8q0 13 13 21l25 14q8 4 12 4q8 0 11 -6q18 -22 26 -29q27 -19 44 -19q18 0 36 15q-3 6 -3 15q0 13 6.5 26t17.5 20q-2 52 -12 95q-25 97 -46 145q-9 -16 -56 -117q-36 -78 -43 -92q-7 -12 -15 -12t-14 6q-12 11 -12 18q0 5 3 11
q10 19 45 97q33 75 56 115t56 66.5t80 26.5q32 0 53 -15.5t21 -41.5q0 -22 -18 -51q14 -61 37 -129q2 -7 4 -12t3 -10q20 -72 20 -105q0 -9 -2 -25q36 5 68.5 24t52.5 60q1 4 8 4q11 0 23 -8t9 -15q-33 -66 -82 -93.5t-116 -35.5q-27 -24 -69 -37t-93 -13q-46 0 -83 17z
M320 -139q0 -48 -37 -74.5t-111 -26.5q-32 0 -50 5v55q18 -5 53 -5q37 0 55.5 9.5t18.5 34.5q0 43 -91 55l43 86h58l-26 -53q87 -19 87 -86z" />
    <glyph glyph-name="Scaron" unicode="&#x160;" horiz-adv-x="548" 
d="M114 931h60q56 -36 107 -92q62 62 109 92h62v-13q-100 -100 -125 -147h-90q-29 50 -123 147v13zM264.5 258q-29.5 40 -87.5 92q-55 50 -82.5 87t-26.5 83q0 62 44.5 109.5t112 73t136.5 25.5q79 0 131 -34t52 -99q0 -7 -2 -23q-1 -17 -20 -19l-90 -5h-2q-9 0 -14 5t-4 15
q4 48 -18 72t-55 24q-26 0 -50 -13t-37.5 -36.5t-10.5 -53.5q5 -41 31.5 -73t77.5 -74q39 -33 62 -56.5t39 -54t16 -67.5q0 -9 -2 -27q-10 -64 -57.5 -111.5t-115.5 -72.5t-137 -25q-85 0 -141.5 38t-56.5 110q0 7 2 27q1 17 20 19l90 6h3q18 0 16 -21q-3 -51 27.5 -79
t73.5 -28q42 0 73 25.5t31 68.5q1 52 -28.5 92z" />
    <glyph glyph-name="scaron" unicode="&#x161;" horiz-adv-x="479" 
d="M83 766h60q56 -36 107 -92q62 62 109 92h62v-13q-100 -100 -125 -147h-90q-29 50 -123 147v13zM40 17q-43 21 -64 58q-2 2 -2 8q0 13 13 21l25 14q8 4 12 4q8 0 11 -6q18 -22 26 -29q27 -19 44 -19q18 0 36 15q-3 6 -3 15q0 13 6.5 26t17.5 20q-2 52 -12 95
q-25 97 -46 145q-9 -16 -56 -117q-36 -78 -43 -92q-7 -12 -15 -12t-14 6q-12 11 -12 18q0 5 3 11q10 19 45 97q33 75 56 115t56 66.5t80 26.5q32 0 53 -15.5t21 -41.5q0 -22 -18 -51q14 -61 37 -129q2 -7 4 -12t3 -10q20 -72 20 -105q0 -9 -2 -25q36 5 68.5 24t52.5 60
q1 4 8 4q11 0 23 -8t9 -15q-33 -66 -82 -93.5t-116 -35.5q-27 -24 -69 -37t-93 -13q-46 0 -83 17z" />
    <glyph glyph-name="uni0162" unicode="&#x162;" horiz-adv-x="556" 
d="M181.5 6q-4.5 6 -2.5 16l143 629q-33 -5 -74 -32t-70.5 -74.5t-29.5 -110.5q0 -50 21 -105q2 -8 2 -10q0 -11 -13 -17l-93 -32l-9 -2q-12 0 -17 14q-20 60 -20 117q0 85 44 153t117 111t159 57l155 10q33 3 55.5 14t25.5 24q2 12 24 12h87q11 0 14 -3t1 -13
q-5 -21 -31 -44t-74.5 -40t-117.5 -19l-147 -643q-4 -18 -22 -18h-112q-11 0 -15.5 6zM371 -139q0 -48 -37 -74.5t-111 -26.5q-32 0 -50 5v55q18 -5 53 -5q37 0 55.5 9.5t18.5 34.5q0 43 -91 55l43 86h58l-26 -53q87 -19 87 -86z" />
    <glyph glyph-name="uni0163" unicode="&#x163;" horiz-adv-x="360" 
d="M-29 24.5q-24 24.5 -24 66.5q0 18 5 43l66 288h-15q-18 0 -18 14q0 3 2 9l11 29q6 16 23 16h13l41 183q5 17 21 18l115 7h2q10 0 14.5 -5.5t2.5 -15.5l-45 -187h48q18 0 18 -14q0 -3 -2 -9l-11 -29q-6 -16 -23 -16h-47l-59 -248q-5 -23 -5 -37q0 -23 10 -35t26 -12
q27 0 62 29.5t61 78.5q3 6 13.5 2.5t19 -11.5t5.5 -14q-38 -78 -108.5 -126.5t-143.5 -48.5q-54 0 -78 24.5zM312 -139q0 -48 -37 -74.5t-111 -26.5q-32 0 -50 5v55q18 -5 53 -5q37 0 55.5 9.5t18.5 34.5q0 43 -91 55l43 86h58l-26 -53q87 -19 87 -86z" />
    <glyph glyph-name="Tcaron" unicode="&#x164;" horiz-adv-x="556" 
d="M110 931h60q56 -36 107 -92q62 62 109 92h62v-13q-100 -100 -125 -147h-90q-29 50 -123 147v13zM181.5 6q-4.5 6 -2.5 16l143 629q-33 -5 -74 -32t-70.5 -74.5t-29.5 -110.5q0 -50 21 -105q2 -8 2 -10q0 -11 -13 -17l-93 -32l-9 -2q-12 0 -17 14q-20 60 -20 117
q0 85 44 153t117 111t159 57l155 10q33 3 55.5 14t25.5 24q2 12 24 12h87q11 0 14 -3t1 -13q-5 -21 -31 -44t-74.5 -40t-117.5 -19l-147 -643q-4 -18 -22 -18h-112q-11 0 -15.5 6z" />
    <glyph glyph-name="tcaron" unicode="&#x165;" horiz-adv-x="360" 
d="M246 612q11 32 20.5 77.5t12.5 70.5h87v-9q-6 -26 -27 -71t-45 -80h-48v12zM-29 24.5q-24 24.5 -24 66.5q0 18 5 43l66 288h-15q-18 0 -18 14q0 3 2 9l11 29q6 16 23 16h13l41 183q5 17 21 18l115 7h2q10 0 14.5 -5.5t2.5 -15.5l-45 -187h48q18 0 18 -14q0 -3 -2 -9
l-11 -29q-6 -16 -23 -16h-47l-59 -248q-5 -23 -5 -37q0 -23 10 -35t26 -12q27 0 62 29.5t61 78.5q3 6 13.5 2.5t19 -11.5t5.5 -14q-38 -78 -108.5 -126.5t-143.5 -48.5q-54 0 -78 24.5z" />
    <glyph glyph-name="Tbar" unicode="&#x166;" horiz-adv-x="556" 
d="M232 399v235h-222v80h535v-80h-223v-235h148v-74h-148v-325h-90v325h-149v74h149z" />
    <glyph glyph-name="tbar" unicode="&#x167;" horiz-adv-x="360" 
d="M266 62q42 0 73 11v-67q-13 -6 -39 -11t-54 -5q-154 0 -154 171v119h-68v66h68v122h-76v42l77 35l35 114h52v-123h155v-68h-155v-122h146v-66h-146v-114q0 -52 21 -78t65 -26z" />
    <glyph glyph-name="Utilde" unicode="&#x168;" horiz-adv-x="730" 
d="M440 772q-21 0 -41 9t-39.5 19.5t-37 19.5t-34.5 9q-24 0 -36 -14.5t-19 -43.5h-51q6 60 34 94t76 34q22 0 42.5 -9t39.5 -19.5t37 -19.5t33 -9q23 0 35.5 14.5t19.5 43.5h50q-6 -58 -34 -93t-75 -35zM223 25q-25 25 -25 67q0 19 5 42l120 517q-34 -5 -75.5 -32t-71 -75
t-29.5 -111q0 -50 20 -104q2 -6 2 -9q0 -13 -16 -19l-89 -31q-4 -2 -10 -2q-11 0 -15 11q-21 59 -21 119q0 86 44.5 154t117.5 111t159 57l134 9h3q18 0 13 -20l-127 -535q-4 -16 -4 -33q0 -25 12.5 -38t33.5 -13q38 0 82.5 35.5t69.5 92.5l111 485q5 17 21 18l114 7h2
q10 0 14.5 -5.5t1.5 -15.5l-127 -533q-5 -23 -5 -37q0 -23 9.5 -35t25.5 -12q27 0 62 29.5t61 78.5q3 6 13.5 2.5t19 -11.5t5.5 -14q-38 -78 -108 -126.5t-144 -48.5q-53 0 -77 24.5t-24 65.5l1 15q-48 -48 -111 -76.5t-119 -28.5q-54 0 -79 25z" />
    <glyph glyph-name="utilde" unicode="&#x169;" horiz-adv-x="618" 
d="M383 607q-21 0 -41 9t-39.5 19.5t-37 19.5t-34.5 9q-24 0 -36 -14.5t-19 -43.5h-51q6 60 34 94t76 34q22 0 42.5 -9t39.5 -19.5t37 -19.5t33 -9q23 0 35.5 14.5t19.5 43.5h50q-6 -58 -34 -93t-75 -35zM-32 24.5q-24 24.5 -24 66.5q0 18 5 43l68 294q4 16 21 18l114 7h2
q10 0 14.5 -5.5t1.5 -15.5l-64 -258q-6 -25 -6 -42q0 -42 29 -42q26 0 61 35.5t60 92.5l48 210q4 17 21 18l114 7h2q10 0 14.5 -5.5t1.5 -15.5l-64 -258q-6 -25 -6 -42q0 -42 28 -42q24 0 55.5 29.5t56.5 78.5q6 11 16 11q7 0 12 -4l3 -2q9 -7 9 -17q0 -7 -2 -11
q-38 -81 -99 -128t-134 -47q-54 0 -78 25t-23 67q-38 -44 -83.5 -68t-95.5 -24q-54 0 -78 24.5z" />
    <glyph glyph-name="Umacron" unicode="&#x16a;" horiz-adv-x="730" 
d="M217 842h297v-71h-297v71zM223 25q-25 25 -25 67q0 19 5 42l120 517q-34 -5 -75.5 -32t-71 -75t-29.5 -111q0 -50 20 -104q2 -6 2 -9q0 -13 -16 -19l-89 -31q-4 -2 -10 -2q-11 0 -15 11q-21 59 -21 119q0 86 44.5 154t117.5 111t159 57l134 9h3q18 0 13 -20l-127 -535
q-4 -16 -4 -33q0 -25 12.5 -38t33.5 -13q38 0 82.5 35.5t69.5 92.5l111 485q5 17 21 18l114 7h2q10 0 14.5 -5.5t1.5 -15.5l-127 -533q-5 -23 -5 -37q0 -23 9.5 -35t25.5 -12q27 0 62 29.5t61 78.5q3 6 13.5 2.5t19 -11.5t5.5 -14q-38 -78 -108 -126.5t-144 -48.5
q-53 0 -77 24.5t-24 65.5l1 15q-48 -48 -111 -76.5t-119 -28.5q-54 0 -79 25z" />
    <glyph glyph-name="umacron" unicode="&#x16b;" horiz-adv-x="618" 
d="M159 677h297v-71h-297v71zM-32 24.5q-24 24.5 -24 66.5q0 18 5 43l68 294q4 16 21 18l114 7h2q10 0 14.5 -5.5t1.5 -15.5l-64 -258q-6 -25 -6 -42q0 -42 29 -42q26 0 61 35.5t60 92.5l48 210q4 17 21 18l114 7h2q10 0 14.5 -5.5t1.5 -15.5l-64 -258q-6 -25 -6 -42
q0 -42 28 -42q24 0 55.5 29.5t56.5 78.5q6 11 16 11q7 0 12 -4l3 -2q9 -7 9 -17q0 -7 -2 -11q-38 -81 -99 -128t-134 -47q-54 0 -78 25t-23 67q-38 -44 -83.5 -68t-95.5 -24q-54 0 -78 24.5z" />
    <glyph glyph-name="Ubreve" unicode="&#x16c;" horiz-adv-x="730" 
d="M361 771q-69 0 -108.5 33.5t-44.5 100.5h54q4 -35 24.5 -49t76.5 -14q49 0 73 15.5t28 47.5h55q-6 -64 -48 -99t-110 -35zM223 25q-25 25 -25 67q0 19 5 42l120 517q-34 -5 -75.5 -32t-71 -75t-29.5 -111q0 -50 20 -104q2 -6 2 -9q0 -13 -16 -19l-89 -31q-4 -2 -10 -2
q-11 0 -15 11q-21 59 -21 119q0 86 44.5 154t117.5 111t159 57l134 9h3q18 0 13 -20l-127 -535q-4 -16 -4 -33q0 -25 12.5 -38t33.5 -13q38 0 82.5 35.5t69.5 92.5l111 485q5 17 21 18l114 7h2q10 0 14.5 -5.5t1.5 -15.5l-127 -533q-5 -23 -5 -37q0 -23 9.5 -35t25.5 -12
q27 0 62 29.5t61 78.5q3 6 13.5 2.5t19 -11.5t5.5 -14q-38 -78 -108 -126.5t-144 -48.5q-53 0 -77 24.5t-24 65.5l1 15q-48 -48 -111 -76.5t-119 -28.5q-54 0 -79 25z" />
    <glyph glyph-name="ubreve" unicode="&#x16d;" horiz-adv-x="618" 
d="M303 606q-69 0 -108.5 33.5t-44.5 100.5h54q4 -35 24.5 -49t76.5 -14q49 0 73 15.5t28 47.5h55q-6 -64 -48 -99t-110 -35zM-32 24.5q-24 24.5 -24 66.5q0 18 5 43l68 294q4 16 21 18l114 7h2q10 0 14.5 -5.5t1.5 -15.5l-64 -258q-6 -25 -6 -42q0 -42 29 -42q26 0 61 35.5
t60 92.5l48 210q4 17 21 18l114 7h2q10 0 14.5 -5.5t1.5 -15.5l-64 -258q-6 -25 -6 -42q0 -42 28 -42q24 0 55.5 29.5t56.5 78.5q6 11 16 11q7 0 12 -4l3 -2q9 -7 9 -17q0 -7 -2 -11q-38 -81 -99 -128t-134 -47q-54 0 -78 25t-23 67q-38 -44 -83.5 -68t-95.5 -24
q-54 0 -78 24.5z" />
    <glyph glyph-name="Uring" unicode="&#x16e;" horiz-adv-x="730" 
d="M475 878q0 -49 -30.5 -78t-80.5 -29t-79.5 28.5t-29.5 77.5q0 48 29.5 76.5t79.5 28.5q49 0 80 -29t31 -75zM420 877q0 26 -16 41t-40 15t-40 -15t-16 -41t14.5 -41t41.5 -15q25 0 40.5 15t15.5 41zM223 25q-25 25 -25 67q0 19 5 42l120 517q-34 -5 -75.5 -32t-71 -75
t-29.5 -111q0 -50 20 -104q2 -6 2 -9q0 -13 -16 -19l-89 -31q-4 -2 -10 -2q-11 0 -15 11q-21 59 -21 119q0 86 44.5 154t117.5 111t159 57l134 9h3q18 0 13 -20l-127 -535q-4 -16 -4 -33q0 -25 12.5 -38t33.5 -13q38 0 82.5 35.5t69.5 92.5l111 485q5 17 21 18l114 7h2
q10 0 14.5 -5.5t1.5 -15.5l-127 -533q-5 -23 -5 -37q0 -23 9.5 -35t25.5 -12q27 0 62 29.5t61 78.5q3 6 13.5 2.5t19 -11.5t5.5 -14q-38 -78 -108 -126.5t-144 -48.5q-53 0 -77 24.5t-24 65.5l1 15q-48 -48 -111 -76.5t-119 -28.5q-54 0 -79 25z" />
    <glyph glyph-name="uring" unicode="&#x16f;" horiz-adv-x="618" 
d="M417 713q0 -49 -30.5 -78t-80.5 -29t-79.5 28.5t-29.5 77.5q0 48 29.5 76.5t79.5 28.5q49 0 80 -29t31 -75zM362 712q0 26 -16 41t-40 15t-40 -15t-16 -41t14.5 -41t41.5 -15q25 0 40.5 15t15.5 41zM-32 24.5q-24 24.5 -24 66.5q0 18 5 43l68 294q4 16 21 18l114 7h2
q10 0 14.5 -5.5t1.5 -15.5l-64 -258q-6 -25 -6 -42q0 -42 29 -42q26 0 61 35.5t60 92.5l48 210q4 17 21 18l114 7h2q10 0 14.5 -5.5t1.5 -15.5l-64 -258q-6 -25 -6 -42q0 -42 28 -42q24 0 55.5 29.5t56.5 78.5q6 11 16 11q7 0 12 -4l3 -2q9 -7 9 -17q0 -7 -2 -11
q-38 -81 -99 -128t-134 -47q-54 0 -78 25t-23 67q-38 -44 -83.5 -68t-95.5 -24q-54 0 -78 24.5z" />
    <glyph glyph-name="Uhungarumlaut" unicode="&#x170;" horiz-adv-x="730" 
d="M221 783q17 22 42.5 65.5t44.5 82.5h96v-10q-16 -27 -58.5 -75t-74.5 -75h-50v12zM397 783q23 32 49 76.5t38 71.5h96v-10q-16 -27 -58.5 -75t-74.5 -75h-50v12zM223 25q-25 25 -25 67q0 19 5 42l120 517q-34 -5 -75.5 -32t-71 -75t-29.5 -111q0 -50 20 -104q2 -6 2 -9
q0 -13 -16 -19l-89 -31q-4 -2 -10 -2q-11 0 -15 11q-21 59 -21 119q0 86 44.5 154t117.5 111t159 57l134 9h3q18 0 13 -20l-127 -535q-4 -16 -4 -33q0 -25 12.5 -38t33.5 -13q38 0 82.5 35.5t69.5 92.5l111 485q5 17 21 18l114 7h2q10 0 14.5 -5.5t1.5 -15.5l-127 -533
q-5 -23 -5 -37q0 -23 9.5 -35t25.5 -12q27 0 62 29.5t61 78.5q3 6 13.5 2.5t19 -11.5t5.5 -14q-38 -78 -108 -126.5t-144 -48.5q-53 0 -77 24.5t-24 65.5l1 15q-48 -48 -111 -76.5t-119 -28.5q-54 0 -79 25z" />
    <glyph glyph-name="uhungarumlaut" unicode="&#x171;" horiz-adv-x="618" 
d="M164 618q17 22 42.5 65.5t44.5 82.5h96v-10q-16 -27 -58.5 -75t-74.5 -75h-50v12zM340 618q23 32 49 76.5t38 71.5h96v-10q-16 -27 -58.5 -75t-74.5 -75h-50v12zM-32 24.5q-24 24.5 -24 66.5q0 18 5 43l68 294q4 16 21 18l114 7h2q10 0 14.5 -5.5t1.5 -15.5l-64 -258
q-6 -25 -6 -42q0 -42 29 -42q26 0 61 35.5t60 92.5l48 210q4 17 21 18l114 7h2q10 0 14.5 -5.5t1.5 -15.5l-64 -258q-6 -25 -6 -42q0 -42 28 -42q24 0 55.5 29.5t56.5 78.5q6 11 16 11q7 0 12 -4l3 -2q9 -7 9 -17q0 -7 -2 -11q-38 -81 -99 -128t-134 -47q-54 0 -78 25
t-23 67q-38 -44 -83.5 -68t-95.5 -24q-54 0 -78 24.5z" />
    <glyph glyph-name="Uogonek" unicode="&#x172;" horiz-adv-x="730" 
d="M356 -116q0 -22 12 -33.5t33 -11.5t48 6v-56q-34 -9 -62 -9q-103 0 -103 94q0 68 78 126h62q-34 -32 -51 -58.5t-17 -57.5zM223 25q-25 25 -25 67q0 19 5 42l120 517q-34 -5 -75.5 -32t-71 -75t-29.5 -111q0 -50 20 -104q2 -6 2 -9q0 -13 -16 -19l-89 -31q-4 -2 -10 -2
q-11 0 -15 11q-21 59 -21 119q0 86 44.5 154t117.5 111t159 57l134 9h3q18 0 13 -20l-127 -535q-4 -16 -4 -33q0 -25 12.5 -38t33.5 -13q38 0 82.5 35.5t69.5 92.5l111 485q5 17 21 18l114 7h2q10 0 14.5 -5.5t1.5 -15.5l-127 -533q-5 -23 -5 -37q0 -23 9.5 -35t25.5 -12
q27 0 62 29.5t61 78.5q3 6 13.5 2.5t19 -11.5t5.5 -14q-38 -78 -108 -126.5t-144 -48.5q-53 0 -77 24.5t-24 65.5l1 15q-48 -48 -111 -76.5t-119 -28.5q-54 0 -79 25z" />
    <glyph glyph-name="uogonek" unicode="&#x173;" horiz-adv-x="618" 
d="M458 -116q0 -22 12 -33.5t33 -11.5t48 6v-56q-34 -9 -62 -9q-103 0 -103 94q0 68 78 126h62q-34 -32 -51 -58.5t-17 -57.5zM-32 24.5q-24 24.5 -24 66.5q0 18 5 43l68 294q4 16 21 18l114 7h2q10 0 14.5 -5.5t1.5 -15.5l-64 -258q-6 -25 -6 -42q0 -42 29 -42
q26 0 61 35.5t60 92.5l48 210q4 17 21 18l114 7h2q10 0 14.5 -5.5t1.5 -15.5l-64 -258q-6 -25 -6 -42q0 -42 28 -42q24 0 55.5 29.5t56.5 78.5q6 11 16 11q7 0 12 -4l3 -2q9 -7 9 -17q0 -7 -2 -11q-38 -81 -99 -128t-134 -47q-54 0 -78 25t-23 67q-38 -44 -83.5 -68
t-95.5 -24q-54 0 -78 24.5z" />
    <glyph glyph-name="Wcircumflex" unicode="&#x174;" horiz-adv-x="930" 
d="M294 782q61 65 86 96.5t37 52.5h90q25 -49 125 -149v-11h-62q-44 26 -109 90q-64 -62 -107 -90h-60v11zM328 18l7 637q-31 -2 -75.5 -26t-78 -71.5t-33.5 -114.5q0 -53 24 -114q1 -3 1 -9q0 -13 -14 -19l-88 -31q-4 -2 -10 -2q-13 0 -14 11q-26 68 -26 131
q0 82 42.5 147.5t112.5 107t153 55.5l134 9h3q17 0 17 -18l-16 -476l206 468q3 9 8 13t14 5l117 8h2q17 0 18 -18l4 -474l175 470q5 16 22 18l65 4q17 0 17 -13l-2 -9l-255 -690q-8 -17 -26 -17h-117q-18 0 -18 18l-2 472l-205 -473q-8 -17 -26 -17h-118q-18 0 -18 18z" />
    <glyph glyph-name="wcircumflex" unicode="&#x175;" horiz-adv-x="786" 
d="M224 617q61 65 86 96.5t37 52.5h90q25 -49 125 -149v-11h-62q-44 26 -109 90q-64 -62 -107 -90h-60v11zM-32 24.5q-24 24.5 -24 65.5q0 19 5 44l68 292q5 18 23 20l115 8q22 0 17 -20l-65 -260q-7 -27 -7 -47q0 -37 23 -37q17 0 40.5 20.5t47.5 55.5q22 32 40.5 95.5
t43.5 162.5q4 18 25 20l115 8q21 0 16 -20l-65 -260q-6 -24 -6 -41q0 -18 6.5 -27t18.5 -9q15 0 37 16q1 20 15 34.5t33 17.5q27 47 46.5 127.5t23.5 131.5q2 22 22 22l114 8h2q18 0 13 -20l-6 -29q-14 -71 -25 -115.5t-32 -89.5t-54 -84q7 -2 25 -2q37 0 73 20.5t59 65.5
q5 12 15 12q6 0 11 -4l6 -5q8 -6 8 -16q0 -6 -2 -10q-39 -76 -103.5 -102t-142.5 -25h-24q-39 -24 -81 -36.5t-81 -12.5q-56 0 -92 24t-40 70q-35 -43 -80 -68t-100 -25q-53 0 -77 24.5z" />
    <glyph glyph-name="Ycircumflex" unicode="&#x176;" horiz-adv-x="565" 
d="M114 782q61 65 86 96.5t37 52.5h90q25 -49 125 -149v-11h-62q-44 26 -109 90q-64 -62 -107 -90h-60v11zM280 -197q0 10 1 15q6 53 35.5 85t72 49.5t113.5 37.5l21 94l3 16q-48 -46 -108.5 -73t-115.5 -27q-54 0 -79 25t-25 67q0 19 5 42l120 517q-34 -5 -75.5 -32
t-71 -75t-29.5 -111q0 -50 20 -104q2 -6 2 -9q0 -13 -16 -19l-89 -31q-4 -2 -10 -2q-11 0 -15 11q-21 59 -21 119q0 86 44.5 154t117.5 111t159 57l134 9h3q14 0 14 -12q0 -5 -1 -8l-127 -535q-4 -16 -4 -32q0 -25 12.5 -38.5t33.5 -13.5q36 0 78.5 33t69.5 87l1 4l42 175
l72 314q5 17 21 18l114 7h2q10 0 14.5 -5.5t1.5 -15.5l-125 -533l-1 -3l-32 -138q16 4 45.5 27.5t61.5 60t53 77.5q1 4 7 4q10 0 22.5 -10t8.5 -17q-32 -66 -88.5 -125.5t-134.5 -105.5q-24 -78 -51 -127.5t-72.5 -78t-116.5 -28.5q-117 0 -117 93zM453.5 -176
q11.5 15 16 30t14.5 56q-6 -2 -24 -6.5t-28.5 -10t-17.5 -12.5q-9 -9 -14 -22.5t-5 -25.5q0 -13 7 -20.5t20 -6.5q20 3 31.5 18z" />
    <glyph glyph-name="ycircumflex" unicode="&#x177;" horiz-adv-x="509" 
d="M89 617q61 65 86 96.5t37 52.5h90q25 -49 125 -149v-11h-62q-44 26 -109 90q-64 -62 -107 -90h-60v11zM-25 -197q0 10 1 15q6 53 35.5 85t72 49.5t113.5 37.5l21 94q-37 -40 -80.5 -62t-91.5 -22q-102 0 -102 91q0 18 5 43l68 293q2 9 7 12t16 4l114 10h2q8 0 12 -7
t2 -16l-64 -256q-7 -30 -7 -44q0 -40 28 -40q25 0 60 34t61 90l49 213q2 9 7 12t16 4l114 10h2q8 0 12 -7t2 -16l-93 -397q16 4 45.5 27.5t61.5 60t53 77.5q1 4 7 4q10 0 22.5 -10t8.5 -17q-32 -66 -88.5 -125.5t-134.5 -105.5q-24 -78 -51 -127.5t-72.5 -78t-116.5 -28.5
q-117 0 -117 93zM148.5 -176q11.5 15 16 30t14.5 56q-6 -2 -24 -6.5t-28.5 -10t-17.5 -12.5q-9 -9 -14 -22.5t-5 -25.5q0 -13 7 -20.5t20 -6.5q20 3 31.5 18z" />
    <glyph glyph-name="Ydieresis" unicode="&#x178;" horiz-adv-x="565" 
d="M280 -197q0 10 1 15q6 53 35.5 85t72 49.5t113.5 37.5l21 94l3 16q-48 -46 -108.5 -73t-115.5 -27q-54 0 -79 25t-25 67q0 19 5 42l120 517q-34 -5 -75.5 -32t-71 -75t-29.5 -111q0 -50 20 -104q2 -6 2 -9q0 -13 -16 -19l-89 -31q-4 -2 -10 -2q-11 0 -15 11
q-21 59 -21 119q0 86 44.5 154t117.5 111t159 57l134 9h3q14 0 14 -12q0 -5 -1 -8l-127 -535q-4 -16 -4 -32q0 -25 12.5 -38.5t33.5 -13.5q36 0 78.5 33t69.5 87l1 4l42 175l72 314q5 17 21 18l114 7h2q10 0 14.5 -5.5t1.5 -15.5l-125 -533l-1 -3l-32 -138q16 4 45.5 27.5
t61.5 60t53 77.5q1 4 7 4q10 0 22.5 -10t8.5 -17q-32 -66 -88.5 -125.5t-134.5 -105.5q-24 -78 -51 -127.5t-72.5 -78t-116.5 -28.5q-117 0 -117 93zM453.5 -176q11.5 15 16 30t14.5 56q-6 -2 -24 -6.5t-28.5 -10t-17.5 -12.5q-9 -9 -14 -22.5t-5 -25.5q0 -13 7 -20.5
t20 -6.5q20 3 31.5 18zM144 846q0 26 13.5 37.5t33.5 11.5q19 0 33 -11.5t14 -37.5t-14 -38t-33 -12q-20 0 -33.5 12t-13.5 38zM332 846q0 26 13.5 37.5t32.5 11.5t33 -11.5t14 -37.5t-14 -38t-33 -12t-32.5 12t-13.5 38z" />
    <glyph glyph-name="Zacute" unicode="&#x179;" horiz-adv-x="571" 
d="M83.5 4.5q-3.5 4.5 -3.5 10.5q0 8 5 18l385 629l-144 -2q-34 -4 -76 -33t-72 -79t-30 -115q0 -50 20 -104q2 -6 2 -9q0 -13 -16 -19l-89 -31q-4 -2 -10 -2q-11 0 -15 11q-21 63 -21 119q0 87 45 157.5t119 115t159 58.5l307 1q7 0 11.5 -5.5t4.5 -13.5q0 -9 -4 -14
l-380 -608h192q10 0 15 -5.5t4 -15.5l-6 -49q-3 -19 -21 -19h-372q-6 0 -9.5 4.5zM221 783q19 23 47.5 66.5t47.5 81.5h106v-10q-21 -31 -66.5 -78.5t-76.5 -71.5h-58v12z" />
    <glyph glyph-name="zacute" unicode="&#x17a;" horiz-adv-x="470" 
d="M139.5 7.5q-15.5 7.5 -27.5 19.5q-39 -26 -71 -26q-24 0 -39 14t-15 35q0 22 16.5 43t49.5 35l15 16q59 61 93 101t57 84q-28 0 -63.5 22.5t-55.5 50.5q-20 -58 -94 -227q-3 -6 -13 -2.5t-18.5 12t-6.5 13.5q32 61 88 230q-28 15 -28 43q0 16 9.5 32t23.5 25t30 9
q17 0 27.5 -12.5t9.5 -37.5q21 -27 57 -45.5t70 -18.5q12 0 24 3q23 8 45 8q27 0 42 -14t15 -34q0 -16 -9 -31q-35 -64 -75 -121t-94 -114q1 -17 13.5 -26.5t31.5 -9.5q33 0 71 28.5t65 85.5q3 6 13.5 2.5t19 -11.5t5.5 -14q-41 -86 -103.5 -130.5t-128.5 -44.5
q-34 0 -49.5 7.5zM181 618q19 23 47.5 66.5t47.5 81.5h106v-10q-21 -31 -66.5 -78.5t-76.5 -71.5h-58v12z" />
    <glyph glyph-name="Zdotaccent" unicode="&#x17b;" horiz-adv-x="571" 
d="M233 846q0 29 15 42.5t37 13.5q21 0 36 -13.5t15 -42.5t-15.5 -42.5t-35.5 -13.5q-22 0 -37 13.5t-15 42.5zM83.5 4.5q-3.5 4.5 -3.5 10.5q0 8 5 18l385 629l-144 -2q-34 -4 -76 -33t-72 -79t-30 -115q0 -50 20 -104q2 -6 2 -9q0 -13 -16 -19l-89 -31q-4 -2 -10 -2
q-11 0 -15 11q-21 63 -21 119q0 87 45 157.5t119 115t159 58.5l307 1q7 0 11.5 -5.5t4.5 -13.5q0 -9 -4 -14l-380 -608h192q10 0 15 -5.5t4 -15.5l-6 -49q-3 -19 -21 -19h-372q-6 0 -9.5 4.5z" />
    <glyph glyph-name="zdotaccent" unicode="&#x17c;" horiz-adv-x="470" 
d="M185 681q0 29 15 42.5t37 13.5q21 0 36 -13.5t15 -42.5t-15.5 -42.5t-35.5 -13.5q-22 0 -37 13.5t-15 42.5zM139.5 7.5q-15.5 7.5 -27.5 19.5q-39 -26 -71 -26q-24 0 -39 14t-15 35q0 22 16.5 43t49.5 35l15 16q59 61 93 101t57 84q-28 0 -63.5 22.5t-55.5 50.5
q-20 -58 -94 -227q-3 -6 -13 -2.5t-18.5 12t-6.5 13.5q32 61 88 230q-28 15 -28 43q0 16 9.5 32t23.5 25t30 9q17 0 27.5 -12.5t9.5 -37.5q21 -27 57 -45.5t70 -18.5q12 0 24 3q23 8 45 8q27 0 42 -14t15 -34q0 -16 -9 -31q-35 -64 -75 -121t-94 -114q1 -17 13.5 -26.5
t31.5 -9.5q33 0 71 28.5t65 85.5q3 6 13.5 2.5t19 -11.5t5.5 -14q-41 -86 -103.5 -130.5t-128.5 -44.5q-34 0 -49.5 7.5z" />
    <glyph glyph-name="Zcaron" unicode="&#x17d;" horiz-adv-x="571" 
d="M119 931h60q56 -36 107 -92q62 62 109 92h62v-13q-100 -100 -125 -147h-90q-29 50 -123 147v13zM83.5 4.5q-3.5 4.5 -3.5 10.5q0 8 5 18l385 629l-144 -2q-34 -4 -76 -33t-72 -79t-30 -115q0 -50 20 -104q2 -6 2 -9q0 -13 -16 -19l-89 -31q-4 -2 -10 -2q-11 0 -15 11
q-21 63 -21 119q0 87 45 157.5t119 115t159 58.5l307 1q7 0 11.5 -5.5t4.5 -13.5q0 -9 -4 -14l-380 -608h192q10 0 15 -5.5t4 -15.5l-6 -49q-3 -19 -21 -19h-372q-6 0 -9.5 4.5z" />
    <glyph glyph-name="zcaron" unicode="&#x17e;" horiz-adv-x="470" 
d="M68 766h60q56 -36 107 -92q62 62 109 92h62v-13q-100 -100 -125 -147h-90q-29 50 -123 147v13zM139.5 7.5q-15.5 7.5 -27.5 19.5q-39 -26 -71 -26q-24 0 -39 14t-15 35q0 22 16.5 43t49.5 35l15 16q59 61 93 101t57 84q-28 0 -63.5 22.5t-55.5 50.5q-20 -58 -94 -227
q-3 -6 -13 -2.5t-18.5 12t-6.5 13.5q32 61 88 230q-28 15 -28 43q0 16 9.5 32t23.5 25t30 9q17 0 27.5 -12.5t9.5 -37.5q21 -27 57 -45.5t70 -18.5q12 0 24 3q23 8 45 8q27 0 42 -14t15 -34q0 -16 -9 -31q-35 -64 -75 -121t-94 -114q1 -17 13.5 -26.5t31.5 -9.5
q33 0 71 28.5t65 85.5q3 6 13.5 2.5t19 -11.5t5.5 -14q-41 -86 -103.5 -130.5t-128.5 -44.5q-34 0 -49.5 7.5z" />
    <glyph glyph-name="longs" unicode="&#x17f;" horiz-adv-x="326" 
d="M261 692q-46 0 -67 -28.5t-21 -86.5v-577h-88v577q0 188 177 188q49 0 100 -19l-23 -69q-44 15 -78 15z" />
    <glyph glyph-name="uni0180" unicode="&#x180;" horiz-adv-x="615" 
d="M339 545q106 0 163.5 -73t57.5 -204q0 -133 -58.5 -205.5t-162.5 -72.5q-54 0 -96.5 19.5t-69.5 58.5h-7q-15 -59 -18 -68h-63v605h-76v66h76v89h88v-89h213v-66h-213v-30q0 -55 -5 -110h5q54 80 166 80zM324 472q-81 0 -116 -46t-35 -155v-4q0 -110 36 -157t117 -47
q72 0 107.5 53t35.5 153q0 102 -35.5 152.5t-109.5 50.5z" />
    <glyph glyph-name="uni0181" unicode="&#x181;" horiz-adv-x="729" 
d="M151 637q-61 0 -61 -50q0 -30 10 -54h-79q-4 10 -7.5 26.5t-3.5 28.5q0 65 34.5 95.5t106.5 30.5h230q144 0 207.5 -43t63.5 -134q0 -63 -34.5 -104.5t-101.5 -53.5v-5q82 -14 121 -57t39 -114q0 -96 -66 -149.5t-182 -53.5h-251v637h-26zM267 410h132q84 0 122 27t38 90
q0 59 -41.5 84.5t-132.5 25.5h-118v-227zM267 335v-259h144q86 0 127.5 33.5t41.5 100.5q0 64 -44 94.5t-132 30.5h-137z" />
    <glyph glyph-name="uni0182" unicode="&#x182;" horiz-adv-x="615" 
d="M564 209q0 -105 -63.5 -157t-194.5 -52h-209v714h424v-79h-334v-223h106q137 0 204 -48.5t67 -154.5zM187 77h110q92 0 133 31t41 101q0 68 -43 96.5t-146 28.5h-95v-257z" />
    <glyph glyph-name="uni0183" unicode="&#x183;" horiz-adv-x="615" 
d="M339 545q106 0 163.5 -73t57.5 -204q0 -133 -58.5 -205.5t-162.5 -72.5q-54 0 -96.5 19.5t-69.5 58.5h-7q-15 -59 -18 -68h-63v760h421v-74h-333v-111q0 -55 -5 -110h5q54 80 166 80zM324 472q-81 0 -116 -46t-35 -155v-4q0 -110 36 -157t117 -47q72 0 107.5 53t35.5 153
q0 102 -35.5 152.5t-109.5 50.5z" />
    <glyph glyph-name="uni0184" unicode="&#x184;" horiz-adv-x="634" 
d="M180 210q0 -77 37.5 -110t122.5 -33q80 0 115.5 35.5t35.5 102.5q0 69 -48 99t-140 30h-123v-124zM90 714h90v-302h134q129 0 199.5 -53t70.5 -154t-63.5 -158t-179.5 -57q-251 0 -251 220v504z" />
    <glyph glyph-name="uni0185" unicode="&#x185;" horiz-adv-x="611" 
d="M322 -10q-115 0 -177.5 72.5t-62.5 204.5v493h88v-185q0 -55 -5 -110h5q54 80 166 80q106 0 163.5 -73t57.5 -204q0 -134 -61 -206t-174 -72zM170 265q0 -96 40.5 -149t112.5 -53t107.5 53t35.5 153q0 102 -35.5 152.5t-109.5 50.5q-81 0 -116 -46t-35 -155v-6z" />
    <glyph glyph-name="uni0186" unicode="&#x186;" horiz-adv-x="631" 
d="M243 724q158 0 243 -96t85 -272q0 -110 -39.5 -192.5t-114.5 -128t-174 -45.5q-55 0 -98 6.5t-86 22.5v78q94 -28 170 -28q115 0 181 77t66 211q0 137 -63.5 212.5t-183.5 75.5q-77 0 -162 -39l-36 76q84 42 212 42z" />
    <glyph glyph-name="uni0187" unicode="&#x187;" horiz-adv-x="631" 
d="M403 645q-115 0 -181 -77t-66 -211q0 -138 64 -213t182 -75q76 0 171 28v-78q-45 -17 -87 -23t-97 -6q-158 0 -243 96t-85 272q0 110 41 193t118.5 128t183.5 45q61 0 117 -14v14q0 64 27 99t88 35q30 0 60 -13v-72q-24 10 -52 10q-47 0 -47 -48v-51l-36 -78
q-33 15 -71.5 27t-86.5 12z" />
    <glyph glyph-name="uni0188" unicode="&#x188;" horiz-adv-x="502" 
d="M300 -10q-116 0 -180.5 71t-64.5 204q0 135 65.5 208t185.5 73q27 0 65 -6v91q0 64 26.5 99t88.5 35q29 0 60 -13v-73q-23 10 -52 10q-47 0 -47 -48v-124l-27 -73q-68 25 -116 25q-81 0 -119.5 -51t-38.5 -152q0 -97 38.5 -148.5t114.5 -51.5q71 0 139 31v-78
q-55 -29 -138 -29z" />
    <glyph glyph-name="uni0189" unicode="&#x189;" horiz-adv-x="729" 
d="M669 364q0 -175 -96 -269.5t-278 -94.5h-191v314h-74v78h74v322h213q167 0 259.5 -92t92.5 -258zM574 361q0 137 -68 206.5t-202 69.5h-110v-245h178v-78h-178v-237h90q290 0 290 284z" />
    <glyph glyph-name="uni018A" unicode="&#x18a;" horiz-adv-x="810" 
d="M654 361q0 136 -67 206t-203 70h-117v-560h97q290 0 290 284zM397 714q168 0 260 -92.5t92 -257.5q0 -177 -96.5 -270.5t-276.5 -93.5h-199v637h-26q-61 0 -61 -50q0 -30 10 -54h-79q-4 10 -7.5 26.5t-3.5 28.5q0 65 34.5 95.5t106.5 30.5h246z" />
    <glyph glyph-name="uni018B" unicode="&#x18b;" horiz-adv-x="615" 
d="M428 335h-82q-106 0 -154 -32t-48 -101q0 -63 44 -94t139 -31h101v258zM518 714v-714h-199q-268 0 -268 198q0 103 73.5 158.5t211.5 55.5h92v223h-334v79h424z" />
    <glyph glyph-name="uni018C" unicode="&#x18c;" horiz-adv-x="615" 
d="M289 63q80 0 117 43.5t37 143.5v16q0 112 -37.5 159.5t-117.5 47.5q-68 0 -105 -54t-37 -154t37 -151t106 -51zM530 0h-71l-13 72h-4q-56 -82 -167 -82q-104 0 -162 72.5t-58 204.5q0 131 58 205t163 74q108 0 166 -79h6q-1 10 -3.5 39.5t-2.5 39.5v140h-333v74h421v-760
z" />
    <glyph glyph-name="uni018D" unicode="&#x18d;" horiz-adv-x="604" 
d="M341 294q66 -38 95 -77t29 -87q0 -64 -48 -102t-132 -38q-51 0 -97 11.5t-109 42.5l38 69q37 -21 79 -36t93 -15q40 0 63.5 18.5t23.5 50.5q0 34 -26.5 60t-107.5 70q-104 57 -146 117t-42 136q0 115 66 180.5t184 65.5q112 0 179 -60.5t67 -163.5q0 -87 -54 -149.5
t-155 -92.5zM145 515q0 -62 30 -105.5t96 -77.5q92 22 139.5 74t47.5 131q0 67 -41.5 108.5t-112.5 41.5q-77 0 -118 -44.5t-41 -127.5z" />
    <glyph glyph-name="uni018E" unicode="&#x18e;" horiz-adv-x="556" 
d="M60 79h309v255h-291v78h291v223h-309v79h399v-714h-399v79z" />
    <glyph glyph-name="uni018F" unicode="&#x18f;" horiz-adv-x="738" 
d="M332 646q-110 0 -228 -41v82q61 21 114 29.5t116 8.5q162 0 252.5 -97.5t90.5 -271.5q0 -171 -85 -268.5t-237 -97.5q-147 0 -221.5 92t-74.5 275v34h523q-8 126 -71 190.5t-179 64.5zM355 69q100 0 159.5 63.5t67.5 179.5h-427q0 -125 49 -184t151 -59z" />
    <glyph glyph-name="uni0190" unicode="&#x190;" horiz-adv-x="587" 
d="M87 547q0 82 60.5 129.5t166.5 47.5q64 0 124 -18.5t109 -55.5l-43 -61q-52 36 -94 48.5t-94 12.5q-63 0 -99.5 -30.5t-36.5 -81.5q0 -60 48 -95.5t145 -35.5h97v-75h-102q-110 0 -165 -33t-55 -97q0 -67 48.5 -102.5t139.5 -35.5q105 0 214 52v-82q-90 -44 -219 -44
q-135 0 -206 52t-71 153q0 76 46.5 121t137.5 57v4q-72 12 -111.5 56.5t-39.5 113.5z" />
    <glyph glyph-name="uni0191" unicode="&#x191;" horiz-adv-x="519" 
d="M45 -240q-32 0 -56 13v76q21 -10 45 -10q35 0 49 20t14 62v793h399v-79h-309v-253h290v-79h-290v-386q0 -157 -142 -157z" />
    <glyph glyph-name="florin" unicode="&#x192;" horiz-adv-x="571" 
d="M161 -240q-36 0 -68 9v73q34 -9 63 -9q45 0 63.5 23.5t18.5 79.5v470h-105v41l105 30v65q0 94 39.5 138t129.5 44q45 0 103 -21l-22 -68q-50 16 -78 16q-46 0 -65 -24.5t-19 -83.5v-69h135v-68h-133v-470q0 -91 -40 -133.5t-127 -42.5z" />
    <glyph glyph-name="uni0193" unicode="&#x193;" horiz-adv-x="728" 
d="M407 377h247v-350q-57 -18 -115.5 -27.5t-135.5 -9.5q-163 0 -252.5 97t-89.5 270q0 112 44.5 195.5t128 127.5t197.5 44q71 0 137 -17v17q0 64 27 99t88 35q29 0 60 -13v-72q-24 10 -52 10q-47 0 -47 -48v-53l-34 -78q-94 41 -184 41q-127 0 -199 -77t-72 -211
q0 -142 68.5 -215.5t200.5 -73.5q72 0 140 17v212h-157v80z" />
    <glyph glyph-name="uni0194" unicode="&#x194;" horiz-adv-x="569" 
d="M334 108q33 -65 50 -121t17 -94q0 -59 -32 -96t-84 -37q-54 0 -85 37.5t-31 95.5q0 78 67 214l-236 607h94q89 -237 136.5 -362t54.5 -167q10 51 50 158l140 371h95zM319 -105q0 26 -8.5 62t-25.5 68q-19 -38 -26.5 -72t-7.5 -56q0 -31 9.5 -45t24.5 -14q34 0 34 57z" />
    <glyph glyph-name="uni0195" unicode="&#x195;" horiz-adv-x="934" 
d="M639 63q67 0 96.5 36t29.5 113v324h88v-327q0 -114 -51 -166.5t-163 -52.5q-110 0 -162 48.5t-52 147.5v157q0 65 -26 97t-83 32q-74 0 -108.5 -45.5t-34.5 -149.5v-277h-88v760h88v-223q0 -44 -5 -75h6q24 42 66 62.5t90 20.5q91 0 137 -46.5t46 -149.5v-157
q0 -65 30.5 -97t95.5 -32z" />
    <glyph glyph-name="uni0196" unicode="&#x196;" horiz-adv-x="348" 
d="M179 714v-549q0 -48 18 -72t59 -24q21 0 44 3.5t38 7.5v-74q-13 -6 -40 -11t-55 -5q-80 0 -116.5 41.5t-36.5 125.5v557h89z" />
    <glyph glyph-name="uni0197" unicode="&#x197;" horiz-adv-x="338" 
d="M298 0h-258v52l84 19v256h-90v78h90v237l-84 20v52h258v-52l-84 -20v-237h90v-78h-90v-256l84 -19v-52z" />
    <glyph glyph-name="uni0198" unicode="&#x198;" horiz-adv-x="619" 
d="M327 405l292 -405h-106q-30 40 -121 172q-71 103 -126 170l-79 -77v-265h-90v714h90v-360q28 35 60 72q21 24 185 225q29 38 54.5 53.5t66.5 15.5q30 0 50 -8v-70q-21 3 -44 3q-17 0 -31.5 -10t-36.5 -36z" />
    <glyph glyph-name="uni0199" unicode="&#x199;" horiz-adv-x="534" 
d="M172 363l-4 -87h4l30 38l34 41l171 181h103l-217 -229l232 -307h-106l-186 250l-61 -53v-197h-87v625q0 140 121 140q33 0 65 -13v-73q-23 10 -52 10q-23 0 -35 -13t-12 -45v-268z" />
    <glyph glyph-name="uni019A" unicode="&#x19a;" horiz-adv-x="257" 
d="M173 420h70v-66h-70v-354h-88v354h-70v66h70v340h88v-340z" />
    <glyph glyph-name="uni019B" unicode="&#x19b;" horiz-adv-x="541" 
d="M-6 0l231 526l-23 64l-106 -32l-19 63l99 30q-13 22 -29.5 32t-45.5 10q-30 0 -56 -6v71q33 8 66 8q53 0 87 -21t59 -69l109 33l19 -63l-102 -32l179 -498q10 -28 21.5 -41t28.5 -13q12 0 30 5v-65q-24 -12 -57 -12q-36 0 -58 18t-38 63l-73 205q-42 119 -50 159h-4
q-16 -62 -55 -154l-122 -281h-91z" />
    <glyph glyph-name="uni019C" unicode="&#x19c;" horiz-adv-x="1029" 
d="M180 714v-506q0 -70 29 -105t92 -35q84 0 124.5 47t40.5 147v452h90v-506q0 -70 29 -105t94 -35q84 0 123.5 49.5t39.5 164.5v432h90v-714h-71l-15 82h-5q-25 -42 -74 -67t-107 -25q-68 0 -110.5 24.5t-64.5 75.5h-5q-28 -48 -79.5 -74t-113.5 -26q-103 0 -150 53
t-47 165v506h90z" />
    <glyph glyph-name="uni019D" unicode="&#x19d;" horiz-adv-x="759" 
d="M97 714h104l22 -35l235 -362l124 -194h4q-1 12 -4 84t-3 104v403h84v-714h-105l-382 593h-4l2 -40q6 -89 6 -154v-482q0 -83 -34 -120t-101 -37q-32 0 -56 13v76q21 -10 45 -10q35 0 49 20t14 62v793z" />
    <glyph glyph-name="uni019E" unicode="&#x19e;" horiz-adv-x="618" 
d="M450 -240v583q0 64 -28.5 96.5t-91.5 32.5q-83 0 -120 -46.5t-37 -147.5v-278h-88v536h71l13 -73h5q25 40 70 61.5t99 21.5q99 0 146.5 -48t47.5 -149v-589h-87z" />
    <glyph glyph-name="uni019F" unicode="&#x19f;" horiz-adv-x="782" 
d="M720 358q0 -171 -86.5 -269.5t-242.5 -98.5q-158 0 -244 96.5t-86 272.5q0 174 85.5 270t245.5 96q155 0 241.5 -97.5t86.5 -269.5zM391 68q108 0 167.5 65t65.5 192h-467q6 -127 65.5 -192t168.5 -65zM392 646q-106 0 -165.5 -61.5t-69.5 -181.5h466q-9 121 -67.5 182
t-163.5 61z" />
    <glyph glyph-name="Ohorn" unicode="&#x1a0;" horiz-adv-x="784" 
d="M719 358q0 -173 -86.5 -270.5t-241.5 -97.5q-158 0 -244 96t-86 273q0 176 86 271t245 95t247 -104q33 9 48.5 39.5t15.5 99.5h95l7 -11q-15 -78 -47.5 -120.5t-83.5 -61.5q45 -85 45 -209zM156 358q0 -142 59.5 -216t175.5 -74t174.5 73t58.5 217q0 143 -58.5 215.5
t-173.5 72.5q-118 0 -177 -73.5t-59 -214.5z" />
    <glyph glyph-name="ohorn" unicode="&#x1a1;" horiz-adv-x="616" 
d="M551 269q0 -131 -66.5 -205t-183.5 -74q-73 0 -129 34t-86.5 97.5t-30.5 147.5q0 131 65.5 204t183.5 73q53 0 97.5 -18t76.5 -51q24 7 38.5 23.5t21.5 41t7 76.5h94l7 -11q-16 -79 -46.5 -121.5t-82.5 -61.5q34 -69 34 -155zM146 269q0 -105 38.5 -155.5t118.5 -50.5
q83 0 120 52t37 154q0 100 -38 151.5t-120 51.5q-83 0 -119.5 -51.5t-36.5 -151.5z" />
    <glyph glyph-name="uni01A2" unicode="&#x1a2;" horiz-adv-x="1075" 
d="M688 358q0 -173 -82.5 -270.5t-230.5 -97.5q-150 0 -232 96.5t-82 272.5q0 174 82 270t233 96q142 0 224 -91q28 43 78 67t110 24q102 0 149.5 -52.5t47.5 -165.5v-507h-90v507q0 70 -29 105t-92 35q-53 0 -86.5 -15t-52.5 -46q53 -92 53 -228zM156 358q0 -142 56 -216
t163 -74t162.5 73t55.5 217q0 143 -55 215.5t-162 72.5q-108 0 -164 -73.5t-56 -214.5z" />
    <glyph glyph-name="uni01A3" unicode="&#x1a3;" horiz-adv-x="845" 
d="M526 269q0 -132 -63.5 -205.5t-173.5 -73.5q-69 0 -122.5 34t-82.5 98t-29 147q0 130 62.5 203.5t173.5 73.5q106 0 169 -72q26 37 64 54.5t80 17.5q80 0 120 -47t40 -150v-589h-87v585q0 127 -92 127q-63 0 -94 -44q35 -63 35 -159zM146 269q0 -101 36.5 -153.5
t107.5 -52.5t108 52t37 154q0 101 -37 152t-108 51q-144 0 -144 -203z" />
    <glyph glyph-name="uni01A4" unicode="&#x1a4;" horiz-adv-x="685" 
d="M267 355h72q106 0 154 34.5t48 110.5q0 69 -44.5 103t-138.5 34h-91v-282zM366 714q268 0 268 -210q0 -109 -74.5 -167.5t-210.5 -58.5h-82v-278h-90v637h-26q-61 0 -61 -50q0 -30 10 -54h-79q-4 10 -7.5 26.5t-3.5 28.5q0 65 34.5 95.5t106.5 30.5h215z" />
    <glyph glyph-name="uni01A5" unicode="&#x1a5;" horiz-adv-x="615" 
d="M207 765q33 0 65 -13v-73q-23 10 -52 10q-23 0 -35 -13t-12 -45v-80q0 -30 -4 -68l-2 -20h6q31 44 72 63.5t95 19.5q104 0 162 -72.5t58 -204.5q0 -131 -58 -205t-163 -74q-108 0 -166 78h-6l2 -20q4 -38 4 -68v-220h-88l1 865q0 140 121 140zM324 472q-80 0 -115 -45
t-36 -141v-17q0 -109 36 -157.5t117 -48.5q67 0 105 54.5t38 152.5t-38 150t-107 52z" />
    <glyph glyph-name="uni01A6" unicode="&#x1a6;" horiz-adv-x="622" 
d="M187 271h107q87 0 127 34t40 102q0 67 -40.5 98t-131.5 31h-102v-265zM187 195v-195h-90v714h90v-100h107q133 0 196.5 -50.5t63.5 -152.5q0 -142 -143 -191l196 -320h-105l-173 295h-142z" />
    <glyph glyph-name="uni01A7" unicode="&#x1a7;" horiz-adv-x="548" 
d="M47 191q0 48 20 84t61 63.5t124 58.5q68 25 98.5 44t44 42t13.5 58q0 49 -36 76.5t-99 27.5q-72 0 -154 -38l-28 77q85 40 180 40q102 0 165 -49.5t63 -132.5q0 -76 -41.5 -125.5t-142.5 -86.5q-78 -28 -113 -48t-50 -43t-15 -56q0 -54 40.5 -84.5t120.5 -30.5
q91 0 200 47v-86q-34 -17 -85 -28t-111 -11q-120 0 -187.5 54t-67.5 147z" />
    <glyph glyph-name="uni01A8" unicode="&#x1a8;" horiz-adv-x="479" 
d="M45 148q0 37 15 64t46.5 48.5t99.5 46.5q88 34 113 53t25 49t-28 47.5t-83 17.5q-50 0 -132 -34l-30 70q81 36 156 36q98 0 149.5 -36.5t51.5 -105.5q0 -37 -14.5 -63t-45 -47t-106.5 -50q-53 -20 -81 -35.5t-39.5 -31t-11.5 -37.5q0 -39 32 -59t95 -20q84 0 170 43v-80
q-62 -34 -168 -34q-214 0 -214 158z" />
    <glyph glyph-name="uni01A9" unicode="&#x1a9;" horiz-adv-x="569" 
d="M36 0v74l234 299l-228 266v75h475v-80h-325l-47 1l225 -261l-235 -296l163 1h248v-79h-510z" />
    <glyph glyph-name="uni01AA" unicode="&#x1aa;" horiz-adv-x="309" 
d="M67 542q-60 0 -91.5 29.5t-31.5 82.5q0 54 32.5 82.5t92.5 28.5q63 0 96.5 -36t33.5 -105v-696q0 -49 18 -72.5t59 -23.5q19 0 43.5 3t38.5 8v-67q-15 -7 -41.5 -11.5t-52.5 -4.5q-80 0 -116 41t-36 126v615h-45zM63 693q-21 0 -30 -12t-9 -27q0 -40 49 -40h39v13
q0 35 -12.5 50.5t-36.5 15.5z" />
    <glyph glyph-name="uni01AB" unicode="&#x1ab;" horiz-adv-x="360" 
d="M222 -240q-29 0 -60 12v73q22 -9 50 -9q48 0 48 52v102h-11q-157 0 -157 166v312h-76v42l77 35l35 114h52v-123h155v-68h-155v-310q0 -46 22.5 -71t61.5 -25q17 0 40 3.5t35 7.5v-180q0 -133 -117 -133z" />
    <glyph glyph-name="uni01AC" unicode="&#x1ac;" horiz-adv-x="576" 
d="M151 635q-61 0 -61 -48q0 -30 10 -54h-79q-4 10 -7.5 26.5t-3.5 28.5q0 65 34.5 95.5t106.5 30.5h414v-79h-222v-635h-90v635h-102z" />
    <glyph glyph-name="uni01AD" unicode="&#x1ad;" horiz-adv-x="360" 
d="M180 536h155v-68h-155v-310q0 -46 22.5 -71t61.5 -25q17 0 40 3.5t35 7.5v-67q-12 -5 -38 -10.5t-52 -5.5q-157 0 -157 166v312h-76v42l77 35v66q0 154 147 154q39 0 77 -13v-73q-11 4 -34.5 7t-42.5 3q-32 0 -46 -17t-14 -51v-85z" />
    <glyph glyph-name="uni01AE" unicode="&#x1ae;" horiz-adv-x="556" 
d="M233 635h-223v79h535v-79h-222v-714q0 -42 14.5 -62t48.5 -20q24 0 45 10v-76q-24 -13 -63 -13q-68 0 -101.5 37t-33.5 120v718z" />
    <glyph glyph-name="Uhorn" unicode="&#x1af;" horiz-adv-x="779" 
d="M640 714v-97q40 5 59 37t19 106h93l7 -11q-16 -90 -59 -135.5t-119 -58.5v-303q0 -125 -70.5 -193.5t-200.5 -68.5q-133 0 -206 70.5t-73 193.5v460h90v-464q0 -86 47.5 -134t143.5 -48q88 0 134 46.5t46 136.5v463h89z" />
    <glyph glyph-name="uhorn" unicode="&#x1b0;" horiz-adv-x="673" 
d="M168 535v-344q0 -65 29 -96.5t90 -31.5q83 0 120.5 46t37.5 148v278h88v-59q39 6 57 37.5t18 105.5h93l7 -11q-16 -93 -59 -139.5t-116 -54.5v-414h-72l-13 71h-4q-24 -39 -67.5 -60t-100.5 -21q-98 0 -147.5 46.5t-49.5 148.5v350h89z" />
    <glyph glyph-name="uni01B1" unicode="&#x1b1;" horiz-adv-x="782" 
d="M391 68q114 0 173 62t59 183q0 110 -40.5 189t-126.5 140v72h288v-79h-178q74 -57 113 -141t39 -184q0 -150 -87 -235.5t-240 -85.5q-155 0 -241.5 85t-86.5 235q0 100 39 185t112 141h-177v79h288v-72q-87 -62 -127.5 -142t-40.5 -187q0 -120 59.5 -182.5t174.5 -62.5z
" />
    <glyph glyph-name="uni01B2" unicode="&#x1b2;" horiz-adv-x="600" 
d="M571 580q0 -53 -45 -157l-181 -423h-90l-255 714h94l162 -466q31 -88 45 -156q8 30 27 73q21 50 32 81l85 203q36 88 36 125q0 39 -16 55t-47 16q-24 0 -45 -10v76q22 13 63 13q135 0 135 -144z" />
    <glyph glyph-name="uni01B3" unicode="&#x1b3;" horiz-adv-x="565" 
d="M39 649q-21 0 -39 -8v73q28 11 60 11q37 0 59.5 -17.5t40.5 -57.5l128 -287l181 351h97l-233 -437v-277h-90v273l-162 341q-18 35 -42 35z" />
    <glyph glyph-name="uni01B4" unicode="&#x1b4;" horiz-adv-x="541" 
d="M485 546q33 0 57 -12v-65q-18 5 -30 5q-18 0 -28.5 -13t-21.5 -41l-183 -494q-32 -87 -79 -126.5t-116 -39.5q-37 0 -73 8v70q24 -6 59 -6q85 0 121 95l26 71l-216 538h94l116 -305q37 -100 45 -146h4q8 36 48 147l76 217q19 54 41 75.5t60 21.5z" />
    <glyph glyph-name="uni01B5" unicode="&#x1b5;" horiz-adv-x="571" 
d="M79 407h184l151 227h-364v80h473v-68l-159 -239h122v-71h-169l-170 -256h386v-80h-495v68l178 268h-137v71z" />
    <glyph glyph-name="uni01B6" unicode="&#x1b6;" horiz-adv-x="470" 
d="M57 313h161l109 155h-271v68h368v-66l-111 -157h101v-70h-151l-123 -175h291v-68h-392v58l130 185h-112v70z" />
    <glyph glyph-name="uni01B7" unicode="&#x1b7;" horiz-adv-x="583" 
d="M291 440q68 -2 122.5 -30t85 -76.5t30.5 -112.5q0 -109 -76 -170t-212 -61q-126 0 -206 39v82q49 -23 104 -35t103 -12q97 0 145 41t48 117q0 69 -49.5 107t-143.5 38h-62v65l206 202h-331v80h444v-71z" />
    <glyph glyph-name="uni01B8" unicode="&#x1b8;" horiz-adv-x="583" 
d="M85 643v71h444v-80h-330l205 -202v-65h-78q-84 0 -130.5 -40.5t-46.5 -113.5q0 -71 49.5 -110t143.5 -39q49 0 103.5 11.5t103.5 35.5v-82q-45 -21 -98.5 -30t-119.5 -9q-87 0 -149 27t-94.5 77t-32.5 117q0 68 30 119t84.5 79.5t123.5 30.5z" />
    <glyph glyph-name="uni01B9" unicode="&#x1b9;" horiz-adv-x="498" 
d="M61 472v64h409v-74h-306l219 -243v-61h-59q-101 0 -151.5 -42.5t-50.5 -124.5q0 -71 47 -114.5t126 -43.5q100 0 189 42v-80q-68 -35 -196 -35q-113 0 -183.5 63t-70.5 166q0 105 64.5 168t181.5 71z" />
    <glyph glyph-name="uni01BA" unicode="&#x1ba;" horiz-adv-x="498" 
d="M216 -167q84 0 160 36v-80q-60 -29 -161 -29q-90 0 -138.5 31t-48.5 88q0 62 46.5 91.5t137.5 29.5q80 0 114.5 27.5t34.5 94.5q0 60 -44.5 88t-142.5 28h-59v61l183 163h-270v74h394v-64l-187 -164q104 -5 159 -51.5t55 -133.5q0 -95 -59.5 -145.5t-175.5 -50.5
q-53 0 -78 -10.5t-25 -37.5q0 -21 26.5 -33.5t78.5 -12.5z" />
    <glyph glyph-name="uni01BB" unicode="&#x1bb;" horiz-adv-x="569" 
d="M78 419h241q27 44 39 82t12 81q0 50 -29.5 78t-82.5 28q-45 0 -81.5 -16.5t-73.5 -49.5l-47 59q93 84 204 84q94 0 147.5 -48.5t53.5 -132.5q0 -42 -10.5 -81.5t-35.5 -83.5h100v-70h-144q-11 -16 -23.5 -32.5t-201.5 -242.5v-4h374v-70h-472v73l175 215l47 61h-192v70z
" />
    <glyph glyph-name="uni01BC" unicode="&#x1bc;" horiz-adv-x="583" 
d="M224 634v-193h42q77 0 137 -27t93 -76.5t33 -116.5q0 -109 -76 -170t-212 -61q-126 0 -206 39v82q49 -23 104 -35t103 -12q97 0 145 41t48 117q0 68 -47 106.5t-130 38.5h-124v267h-79v80h444v-80h-275z" />
    <glyph glyph-name="uni01BD" unicode="&#x1bd;" horiz-adv-x="490" 
d="M198 462v-117h23q107 0 165.5 -46.5t58.5 -135.5q0 -82 -60.5 -127.5t-168.5 -45.5q-118 0 -183 35v79q89 -42 182 -42q69 0 106 26.5t37 79.5t-37.5 79t-115.5 26h-95v189h-62v74h364v-74h-214z" />
    <glyph glyph-name="uni01BE" unicode="&#x1be;" horiz-adv-x="462" 
d="M136 378v90h-91v42l92 35l35 114h52v-123h155v-68h-155v-92q0 -34 10.5 -49.5t36.5 -24.5q83 -31 115 -66.5t32 -87.5q0 -75 -56 -116.5t-158 -41.5q-105 0 -168 34v80q86 -43 170 -43q66 0 96.5 21.5t30.5 57.5q0 29 -24 49.5t-90 47.5q-47 20 -65 52t-18 89z" />
    <glyph glyph-name="uni01BF" unicode="&#x1bf;" horiz-adv-x="586" 
d="M173 -240h-88v776h72l12 -73h4q55 83 158 83q96 0 152 -59t56 -164q0 -91 -45.5 -164.5t-130 -117.5t-190.5 -51v-230zM173 62q131 17 203 85.5t72 173.5q0 69 -36 110t-99 41q-73 0 -106.5 -44t-33.5 -142v-224z" />
    <glyph glyph-name="uni01C0" unicode="&#x1c0;" horiz-adv-x="516" 
d="M297 -240h-78v1000h78v-1000z" />
    <glyph glyph-name="uni01C1" unicode="&#x1c1;" horiz-adv-x="516" 
d="M169 -240h-78v1000h78v-1000zM426 -240h-78v1000h78v-1000z" />
    <glyph glyph-name="uni01C2" unicode="&#x1c2;" horiz-adv-x="516" 
d="M65 402h154v358h78v-358h154v-72h-154v-124h154v-72h-154v-374h-78v374h-154v72h154v124h-154v72z" />
    <glyph glyph-name="uni01C3" unicode="&#x1c3;" horiz-adv-x="269" 
d="M163 201h-57l-25 513h107zM72 54q0 32 16 49.5t46 17.5t46 -18t16 -49t-16.5 -49.5t-45.5 -18.5q-30 0 -46 18t-16 50z" />
    <glyph glyph-name="uni01C4" unicode="&#x1c4;" horiz-adv-x="1291" 
d="M827 931h60q56 -36 107 -92q62 62 109 92h62v-13q-100 -100 -125 -147h-90q-29 50 -123 147v13zM182.5 6q-4.5 6 -2.5 16l128 561q5 17 21 18l115 7h2q10 0 14 -5.5t2 -15.5l-118 -518q79 0 144 58t102 147t37 176q0 79 -33.5 135t-100.5 72q-37 8 -73 8
q-65 0 -124.5 -23.5t-100.5 -73t-48 -122.5q-1 -7 -1 -20q0 -45 21 -101l2 -9q0 -11 -13 -17l-93 -32l-9 -2q-12 0 -17 14q-20 59 -20 116q0 85 44.5 152.5t118.5 110t161 59.5q59 12 122 12q106 0 177.5 -40t106.5 -107t35 -148q0 -104 -55 -204.5t-158.5 -165
t-240.5 -64.5h-130q-11 0 -15.5 6zM803.5 4.5q-3.5 4.5 -3.5 10.5q0 8 5 18l385 629l-144 -2q-34 -4 -76 -33t-72 -79t-30 -115q0 -50 20 -104q2 -6 2 -9q0 -13 -16 -19l-89 -31q-4 -2 -10 -2q-11 0 -15 11q-21 63 -21 119q0 87 45 157.5t119 115t159 58.5l307 1
q7 0 11.5 -5.5t4.5 -13.5q0 -9 -4 -14l-380 -608h192q10 0 15 -5.5t4 -15.5l-6 -49q-3 -19 -21 -19h-372q-6 0 -9.5 4.5z" />
    <glyph glyph-name="uni01C5" unicode="&#x1c5;" horiz-adv-x="1200" 
d="M800 766h60q56 -36 107 -92q62 62 109 92h62v-13q-100 -100 -125 -147h-90q-29 50 -123 147v13zM182.5 6q-4.5 6 -2.5 16l128 561q5 17 21 18l115 7h2q10 0 14 -5.5t2 -15.5l-118 -518q79 0 144 58t102 147t37 176q0 79 -33.5 135t-100.5 72q-37 8 -73 8
q-65 0 -124.5 -23.5t-100.5 -73t-48 -122.5q-1 -7 -1 -20q0 -45 21 -101l2 -9q0 -11 -13 -17l-93 -32l-9 -2q-12 0 -17 14q-20 59 -20 116q0 85 44.5 152.5t118.5 110t161 59.5q59 12 122 12q106 0 177.5 -40t106.5 -107t35 -148q0 -104 -55 -204.5t-158.5 -165
t-240.5 -64.5h-130q-11 0 -15.5 6zM869.5 7.5q-15.5 7.5 -27.5 19.5q-39 -26 -71 -26q-24 0 -39 14t-15 35q0 22 16.5 43t49.5 35l15 16q59 61 93 101t57 84q-28 0 -63.5 22.5t-55.5 50.5q-20 -58 -94 -227q-3 -6 -13 -2.5t-18.5 12t-6.5 13.5q32 61 88 230q-28 15 -28 43
q0 16 9.5 32t23.5 25t30 9q17 0 27.5 -12.5t9.5 -37.5q21 -27 57 -45.5t70 -18.5q12 0 24 3q23 8 45 8q27 0 42 -14t15 -34q0 -16 -9 -31q-35 -64 -75 -121t-94 -114q1 -17 13.5 -26.5t31.5 -9.5q33 0 71 28.5t65 85.5q3 6 13.5 2.5t19 -11.5t5.5 -14q-41 -86 -103.5 -130.5
t-128.5 -44.5q-34 0 -49.5 7.5z" />
    <glyph glyph-name="uni01C6" unicode="&#x1c6;" horiz-adv-x="1084" 
d="M687 766h60q56 -36 107 -92q62 62 109 92h62v-13q-100 -100 -125 -147h-90q-29 50 -123 147v13zM-4 39q-36 39 -36 107q0 38 10 78q19 76 63 129.5t103 80t122 26.5q32 0 55 -5l49 218q5 16 21 18l115 7h2q10 0 14.5 -5.5t1.5 -15.5l-120 -503q-5 -23 -5 -37
q0 -23 9.5 -35t25.5 -12q27 0 62 29.5t61 78.5q3 6 13.5 2.5t19 -11.5t5.5 -14q-39 -78 -109 -126.5t-143 -48.5q-82 0 -98 64q-53 -64 -132 -64q-73 0 -109 39zM103 144q0 -31 9.5 -46.5t25.5 -15.5q21 0 48 26.5t51.5 77t40.5 119.5l18 80q-8 2 -24 2q-55 0 -97.5 -45.5
t-62.5 -129.5q-9 -40 -9 -68zM754.5 7.5q-15.5 7.5 -27.5 19.5q-39 -26 -71 -26q-24 0 -39 14t-15 35q0 22 16.5 43t49.5 35l15 16q59 61 93 101t57 84q-28 0 -63.5 22.5t-55.5 50.5q-20 -58 -94 -227q-3 -6 -13 -2.5t-18.5 12t-6.5 13.5q32 61 88 230q-28 15 -28 43
q0 16 9.5 32t23.5 25t30 9q17 0 27.5 -12.5t9.5 -37.5q21 -27 57 -45.5t70 -18.5q12 0 24 3q23 8 45 8q27 0 42 -14t15 -34q0 -16 -9 -31q-35 -64 -75 -121t-94 -114q1 -17 13.5 -26.5t31.5 -9.5q33 0 71 28.5t65 85.5q3 6 13.5 2.5t19 -11.5t5.5 -14q-41 -86 -103.5 -130.5
t-128.5 -44.5q-34 0 -49.5 7.5z" />
    <glyph glyph-name="uni01C7" unicode="&#x1c7;" horiz-adv-x="796" 
d="M179.5 6q-4.5 6 -2.5 16l146 629q-34 -5 -75.5 -32t-71 -75t-29.5 -111q0 -50 20 -104q2 -6 2 -9q0 -13 -16 -19l-89 -31q-4 -2 -10 -2q-11 0 -15 11q-21 59 -21 119q0 86 44.5 154t117.5 111t159 57l134 9h3q18 0 13 -20l-142 -620h209q18 0 18 -21l-1 -10l-4 -39
q-1 -19 -21 -19h-353q-11 0 -15.5 6zM474 -197q0 10 1 15q6 53 35 85t71 50t113 37l153 661q-34 -5 -75.5 -32t-71 -75t-29.5 -111q0 -47 19 -100q2 -6 2 -9q0 -17 -20 -25l-87 -30q-4 -2 -7 -2q-12 0 -15 10q-21 59 -21 120q0 86 44.5 154t117.5 111.5t159 57.5l133 9
q10 0 14.5 -5.5t2.5 -15.5l-154 -674q17 6 46 29.5t59.5 59.5t51.5 75q6 11 17 11q9 0 16 -7t7 -16q0 -7 -2 -10q-62 -128 -219 -221q-25 -82 -52 -133.5t-73 -81.5t-119 -30q-117 0 -117 93zM649 -172.5q13 26.5 19 55.5t8 37l-20 -6q-24 -6 -38 -12t-25 -16
q-10 -11 -16 -26.5t-6 -29.5q0 -16 8.5 -25.5t25.5 -7.5q31 4 44 30.5z" />
    <glyph glyph-name="uni01C8" unicode="&#x1c8;" horiz-adv-x="782" 
d="M179.5 6q-4.5 6 -2.5 16l146 629q-34 -5 -75.5 -32t-71 -75t-29.5 -111q0 -50 20 -104q2 -6 2 -9q0 -13 -16 -19l-89 -31q-4 -2 -10 -2q-11 0 -15 11q-21 59 -21 119q0 86 44.5 154t117.5 111t159 57l134 9h3q18 0 13 -20l-142 -620h209q18 0 18 -21l-1 -10l-4 -39
q-1 -19 -21 -19h-353q-11 0 -15.5 6zM633 498q-17 0 -31 8t-21 21q-9 11 -9 29q0 12 5 25q4 15 14.5 29.5t25.5 23.5q24 18 53 18q17 0 30 -7.5t20 -20.5q10 -13 10 -32q0 -14 -4 -23q-9 -33 -39 -53q-27 -18 -54 -18zM218 -197q0 10 1 15q6 53 35.5 85t72 49.5t113.5 37.5
l101 436q5 18 23 20l115 8h3q19 0 14 -20l-96 -401q16 4 49 28t67 60.5t56 76.5q1 4 8 4q10 0 22 -10t8 -17q-31 -62 -92.5 -123t-141.5 -108q-24 -78 -51.5 -127.5t-73 -78t-116.5 -28.5q-117 0 -117 93zM397.5 -168.5q11.5 21.5 17 46t7.5 32.5q-7 -2 -24 -6.5t-28 -10
t-18 -12.5q-9 -9 -14 -22t-5 -25q0 -14 7 -21.5t21 -6.5q25 4 36.5 25.5z" />
    <glyph glyph-name="uni01C9" unicode="&#x1c9;" horiz-adv-x="516" 
d="M-32 24.5q-24 24.5 -24 66.5q0 18 5 43l123 539q4 17 21 18l115 7h2q10 0 14.5 -5.5t2.5 -15.5l-121 -503q-5 -23 -5 -37q0 -23 10 -35t26 -12q27 0 62 29.5t61 78.5q3 6 13.5 2.5t19 -11.5t5.5 -14q-38 -78 -108.5 -126.5t-143.5 -48.5q-54 0 -78 24.5zM367 498
q-17 0 -31 8t-21 21q-9 11 -9 29q0 12 5 25q4 15 14.5 29.5t25.5 23.5q24 18 53 18q17 0 30 -7.5t20 -20.5q10 -13 10 -32q0 -14 -4 -23q-9 -33 -39 -53q-27 -18 -54 -18zM-48 -197q0 10 1 15q6 53 35.5 85t72 49.5t113.5 37.5l101 436q5 18 23 20l115 8h3q19 0 14 -20
l-96 -401q16 4 49 28t67 60.5t56 76.5q1 4 8 4q10 0 22 -10t8 -17q-31 -62 -92.5 -123t-141.5 -108q-24 -78 -51.5 -127.5t-73 -78t-116.5 -28.5q-117 0 -117 93zM131.5 -168.5q11.5 21.5 17 46t7.5 32.5q-7 -2 -24 -6.5t-28 -10t-18 -12.5q-9 -9 -14 -22t-5 -25
q0 -14 7 -21.5t21 -6.5q25 4 36.5 25.5z" />
    <glyph glyph-name="uni01CA" unicode="&#x1ca;" horiz-adv-x="1033" 
d="M178 20l146 631q-34 -5 -75.5 -32t-71 -75t-29.5 -111q0 -50 20 -104q2 -6 2 -9q0 -13 -16 -19l-89 -31q-4 -2 -10 -2q-11 0 -15 11q-21 59 -21 119q0 86 44.5 154t117.5 111t159 57l137 7h3q14 0 18 -15l86 -477l107 466q4 19 24 21l66 6h3q19 0 14 -19l-159 -689
q-5 -20 -25 -20h-116q-9 0 -13 4t-6 12l-86 479l-110 -475q-5 -20 -25 -20h-65q-20 0 -15 20zM710 -197q0 10 1 15q6 53 35 85t71 50t113 37l153 661q-34 -5 -75.5 -32t-71 -75t-29.5 -111q0 -47 19 -100q2 -6 2 -9q0 -17 -20 -25l-87 -30q-4 -2 -7 -2q-12 0 -15 10
q-21 59 -21 120q0 86 44.5 154t117.5 111.5t159 57.5l133 9q10 0 14.5 -5.5t2.5 -15.5l-154 -674q17 6 46 29.5t59.5 59.5t51.5 75q6 11 17 11q9 0 16 -7t7 -16q0 -7 -2 -10q-62 -128 -219 -221q-25 -82 -52 -133.5t-73 -81.5t-119 -30q-117 0 -117 93zM885 -172.5
q13 26.5 19 55.5t8 37l-20 -6q-24 -6 -38 -12t-25 -16q-10 -11 -16 -26.5t-6 -29.5q0 -16 8.5 -25.5t25.5 -7.5q31 4 44 30.5z" />
    <glyph glyph-name="uni01CB" unicode="&#x1cb;" horiz-adv-x="1018" 
d="M178 20l146 631q-34 -5 -75.5 -32t-71 -75t-29.5 -111q0 -50 20 -104q2 -6 2 -9q0 -13 -16 -19l-89 -31q-4 -2 -10 -2q-11 0 -15 11q-21 59 -21 119q0 86 44.5 154t117.5 111t159 57l137 7h3q14 0 18 -15l86 -477l107 466q4 19 24 21l66 6h3q19 0 14 -19l-159 -689
q-5 -20 -25 -20h-116q-9 0 -13 4t-6 12l-86 479l-110 -475q-5 -20 -25 -20h-65q-20 0 -15 20zM869 498q-17 0 -31 8t-21 21q-9 11 -9 29q0 12 5 25q4 15 14.5 29.5t25.5 23.5q24 18 53 18q17 0 30 -7.5t20 -20.5q10 -13 10 -32q0 -14 -4 -23q-9 -33 -39 -53q-27 -18 -54 -18
zM454 -197q0 10 1 15q6 53 35.5 85t72 49.5t113.5 37.5l101 436q5 18 23 20l115 8h3q19 0 14 -20l-96 -401q16 4 49 28t67 60.5t56 76.5q1 4 8 4q10 0 22 -10t8 -17q-31 -62 -92.5 -123t-141.5 -108q-24 -78 -51.5 -127.5t-73 -78t-116.5 -28.5q-117 0 -117 93z
M633.5 -168.5q11.5 21.5 17 46t7.5 32.5q-7 -2 -24 -6.5t-28 -10t-18 -12.5q-9 -9 -14 -22t-5 -25q0 -14 7 -21.5t21 -6.5q25 4 36.5 25.5z" />
    <glyph glyph-name="uni01CC" unicode="&#x1cc;" horiz-adv-x="875" 
d="M-73.5 6q-4.5 6 -2.5 16l93 406q5 17 21 18l115 7h2q10 0 14 -5.5t2 -15.5l-14 -63q36 41 80.5 63.5t92.5 22.5q53 0 77.5 -24.5t24.5 -64.5q0 -22 -6 -45l-37 -147q-6 -25 -6 -43q0 -41 28 -41q24 0 55.5 29.5t56.5 78.5q3 6 13.5 2.5t18.5 -11.5t6 -14
q-38 -81 -99 -128t-133 -47q-54 0 -78 24.5t-24 66.5q0 18 5 43l37 147q6 26 6 43q0 41 -28 41q-25 0 -60 -35.5t-61 -92.5l-50 -219q-4 -18 -22 -18h-112q-11 0 -15.5 6zM727 498q-17 0 -31 8t-21 21q-9 11 -9 29q0 12 5 25q4 15 14.5 29.5t25.5 23.5q24 18 53 18
q17 0 30 -7.5t20 -20.5q10 -13 10 -32q0 -14 -4 -23q-9 -33 -39 -53q-27 -18 -54 -18zM312 -197q0 10 1 15q6 53 35.5 85t72 49.5t113.5 37.5l101 436q5 18 23 20l115 8h3q19 0 14 -20l-96 -401q16 4 49 28t67 60.5t56 76.5q1 4 8 4q10 0 22 -10t8 -17q-31 -62 -92.5 -123
t-141.5 -108q-24 -78 -51.5 -127.5t-73 -78t-116.5 -28.5q-117 0 -117 93zM491.5 -168.5q11.5 21.5 17 46t7.5 32.5q-7 -2 -24 -6.5t-28 -10t-18 -12.5q-9 -9 -14 -22t-5 -25q0 -14 7 -21.5t21 -6.5q25 4 36.5 25.5z" />
    <glyph glyph-name="uni01CD" unicode="&#x1cd;" horiz-adv-x="639" 
d="M150 944h60q56 -36 107 -92q62 62 109 92h62v-13q-100 -100 -125 -147h-90q-29 50 -123 147v13zM75.5 8.5q-35.5 8.5 -68 49.5t-32.5 127q0 66 21 150q31 130 102.5 217t161 128.5t178.5 41.5q48 0 90 -12.5t73 -35.5q7 -4 7 -13q0 -10 -13 -20l-26 -20q-7 -6 -14 -6
q-5 0 -11 4q-44 35 -104 35q-57 0 -114.5 -34.5t-104.5 -106.5t-72 -178q-16 -67 -16 -117q0 -57 19 -85.5t51 -28.5t67 26.5t64.5 74.5t43.5 110l57 245q2 8 8.5 14t14.5 6l113 7h2q9 0 13.5 -6t2.5 -15l-95 -392q-6 -24 -6 -40q0 -38 27 -38q23 0 55 28t57 74q1 4 8 4
q10 0 22 -9t10 -14q-38 -82 -100 -130.5t-135 -48.5q-45 0 -67 29.5t-28 68.5q-40 -46 -88 -72t-98 -26q-40 0 -75.5 8.5z" />
    <glyph glyph-name="uni01CE" unicode="&#x1ce;" horiz-adv-x="561" 
d="M112 766h60q56 -36 107 -92q62 62 109 92h62v-13q-100 -100 -125 -147h-90q-29 50 -123 147v13zM-5 39q-36 39 -36 107q0 38 10 78q19 76 63.5 129.5t103.5 80t122 26.5q51 0 98.5 -17.5t84.5 -50.5q7 -6 7 -13q0 -9 -9 -15l-32 -25q-8 -5 -13 -5q-6 0 -15 7
q-50 46 -108 46q-56 0 -99.5 -45.5t-60.5 -129.5q-7 -35 -7 -65q0 -34 10 -51.5t26 -17.5q20 0 44.5 25t48.5 72.5t40 111.5q4 17 21 19l115 7h2q10 0 14.5 -5.5t1.5 -15.5l-32 -118q-7 -25 -7 -44q0 -20 7.5 -30t20.5 -10q24 0 56 29.5t57 78.5q3 6 13.5 2.5t18.5 -11.5
t6 -14q-38 -81 -99 -128t-133 -47q-39 0 -60.5 21t-30.5 53q-55 -74 -140 -74q-73 0 -109 39z" />
    <glyph glyph-name="uni01CF" unicode="&#x1cf;" horiz-adv-x="338" 
d="M2 944h60q56 -36 107 -92q62 62 109 92h62v-13q-100 -100 -125 -147h-90q-29 50 -123 147v13zM181.5 6q-4.5 6 -2.5 16l143 629q-33 -5 -74 -32t-70.5 -74.5t-29.5 -110.5q0 -50 21 -105q2 -8 2 -10q0 -11 -13 -17l-93 -32l-9 -2q-12 0 -17 14q-20 60 -20 117
q0 85 44 153t117 111t159 57l132 8h2q10 0 14 -5.5t2 -15.5l-158 -689q-4 -18 -22 -18h-112q-11 0 -15.5 6z" />
    <glyph glyph-name="uni01D0" unicode="&#x1d0;" horiz-adv-x="257" 
d="M-40 766h60q56 -36 107 -92q62 62 109 92h62v-13q-100 -100 -125 -147h-90q-29 50 -123 147v13zM173 0h-88v536h88v-536z" />
    <glyph glyph-name="uni01D1" unicode="&#x1d1;" horiz-adv-x="780" 
d="M221 944h60q56 -36 107 -92q62 62 109 92h62v-13q-100 -100 -125 -147h-90q-29 50 -123 147v13zM49 73q-58 73 -58 187q0 50 13 112q19 88 61.5 165.5t100 125t120.5 47.5l14 -1q8 -1 10 -4.5t1 -14.5l-5 -39q0 -3 -1 -9.5t-3.5 -10.5t-8.5 -6q-47 -21 -83 -92.5
t-53 -161.5q-10 -53 -10 -108q0 -74 21.5 -118t66.5 -44q41 0 86 36.5t84 98t63 133.5q26 76 26 153q0 32 -4 56q-5 34 -13.5 51t-17.5 17q-14 0 -25 -28.5t-11 -66.5q0 -39 13 -72q1 -2 1 -7q0 -16 -19 -19l-92 -16l-7 -1q-13 0 -16 11q-14 34 -14 72q0 51 22.5 98t64 77
t96.5 30q83 0 126 -60.5t43 -156.5q0 -66 -20 -138q-27 -95 -84 -179.5t-137.5 -137t-173.5 -52.5q-119 0 -177 73z" />
    <glyph glyph-name="uni01D2" unicode="&#x1d2;" horiz-adv-x="604" 
d="M133 766h60q56 -36 107 -92q62 62 109 92h62v-13q-100 -100 -125 -147h-90q-29 50 -123 147v13zM12 49.5q-48 48.5 -48 123.5q0 67 38 134t106 110.5t154 43.5q95 0 144.5 -50t49.5 -126q0 -44 -16.5 -89t-47.5 -84q38 -3 76 16t67 70q3 6 13.5 2.5t18.5 -12t6 -13.5
q-38 -76 -102.5 -102t-142.5 -25h-6q-74 -48 -167 -48q-95 1 -143 49.5zM230 95q-1 18 11.5 35.5t27.5 20.5q17 35 27 74.5t10 74.5q0 43 -15.5 69.5t-46.5 26.5q-36 0 -67 -37t-49 -92.5t-18 -105.5q0 -43 14.5 -69t44.5 -26q32 0 61 29z" />
    <glyph glyph-name="uni01D3" unicode="&#x1d3;" horiz-adv-x="730" 
d="M196 944h60q56 -36 107 -92q62 62 109 92h62v-13q-100 -100 -125 -147h-90q-29 50 -123 147v13zM223 25q-25 25 -25 67q0 19 5 42l120 517q-34 -5 -75.5 -32t-71 -75t-29.5 -111q0 -50 20 -104q2 -6 2 -9q0 -13 -16 -19l-89 -31q-4 -2 -10 -2q-11 0 -15 11
q-21 59 -21 119q0 86 44.5 154t117.5 111t159 57l134 9h3q18 0 13 -20l-127 -535q-4 -16 -4 -33q0 -25 12.5 -38t33.5 -13q38 0 82.5 35.5t69.5 92.5l111 485q5 17 21 18l114 7h2q10 0 14.5 -5.5t1.5 -15.5l-127 -533q-5 -23 -5 -37q0 -23 9.5 -35t25.5 -12q27 0 62 29.5
t61 78.5q3 6 13.5 2.5t19 -11.5t5.5 -14q-38 -78 -108 -126.5t-144 -48.5q-53 0 -77 24.5t-24 65.5l1 15q-48 -48 -111 -76.5t-119 -28.5q-54 0 -79 25z" />
    <glyph glyph-name="uni01D4" unicode="&#x1d4;" horiz-adv-x="618" 
d="M140 766h60q56 -36 107 -92q62 62 109 92h62v-13q-100 -100 -125 -147h-90q-29 50 -123 147v13zM-32 24.5q-24 24.5 -24 66.5q0 18 5 43l68 294q4 16 21 18l114 7h2q10 0 14.5 -5.5t1.5 -15.5l-64 -258q-6 -25 -6 -42q0 -42 29 -42q26 0 61 35.5t60 92.5l48 210
q4 17 21 18l114 7h2q10 0 14.5 -5.5t1.5 -15.5l-64 -258q-6 -25 -6 -42q0 -42 28 -42q24 0 55.5 29.5t56.5 78.5q6 11 16 11q7 0 12 -4l3 -2q9 -7 9 -17q0 -7 -2 -11q-38 -81 -99 -128t-134 -47q-54 0 -78 25t-23 67q-38 -44 -83.5 -68t-95.5 -24q-54 0 -78 24.5z" />
    <glyph glyph-name="uni01D5" unicode="&#x1d5;" horiz-adv-x="730" 
d="M508 815q0 -23 -12.5 -36t-34.5 -13t-34.5 13t-12.5 36q0 26 14 38t33 12q20 0 33.5 -12t13.5 -38zM320 815q0 -26 -13.5 -37.5t-32.5 -11.5q-22 0 -34.5 13t-12.5 36q0 26 14 38t33 12t32.5 -12t13.5 -38zM219 1001h297v-71h-297v71zM223 25q-25 25 -25 67q0 19 5 42
l120 517q-34 -5 -75.5 -32t-71 -75t-29.5 -111q0 -50 20 -104q2 -6 2 -9q0 -13 -16 -19l-89 -31q-4 -2 -10 -2q-11 0 -15 11q-21 59 -21 119q0 86 44.5 154t117.5 111t159 57l134 9h3q18 0 13 -20l-127 -535q-4 -16 -4 -33q0 -25 12.5 -38t33.5 -13q38 0 82.5 35.5
t69.5 92.5l111 485q5 17 21 18l114 7h2q10 0 14.5 -5.5t1.5 -15.5l-127 -533q-5 -23 -5 -37q0 -23 9.5 -35t25.5 -12q27 0 62 29.5t61 78.5q3 6 13.5 2.5t19 -11.5t5.5 -14q-38 -78 -108 -126.5t-144 -48.5q-53 0 -77 24.5t-24 65.5l1 15q-48 -48 -111 -76.5t-119 -28.5
q-54 0 -79 25z" />
    <glyph glyph-name="uni01D6" unicode="&#x1d6;" horiz-adv-x="618" 
d="M447 650q0 -23 -12.5 -36t-34.5 -13t-34.5 13t-12.5 36q0 26 14 38t33 12q20 0 33.5 -12t13.5 -38zM259 650q0 -26 -13.5 -37.5t-32.5 -11.5q-22 0 -34.5 13t-12.5 36q0 26 14 38t33 12t32.5 -12t13.5 -38zM158 836h297v-71h-297v71zM-32 24.5q-24 24.5 -24 66.5
q0 18 5 43l68 294q4 16 21 18l114 7h2q10 0 14.5 -5.5t1.5 -15.5l-64 -258q-6 -25 -6 -42q0 -42 29 -42q26 0 61 35.5t60 92.5l48 210q4 17 21 18l114 7h2q10 0 14.5 -5.5t1.5 -15.5l-64 -258q-6 -25 -6 -42q0 -42 28 -42q24 0 55.5 29.5t56.5 78.5q6 11 16 11q7 0 12 -4
l3 -2q9 -7 9 -17q0 -7 -2 -11q-38 -81 -99 -128t-134 -47q-54 0 -78 25t-23 67q-38 -44 -83.5 -68t-95.5 -24q-54 0 -78 24.5z" />
    <glyph glyph-name="uni01D7" unicode="&#x1d7;" horiz-adv-x="730" 
d="M499 815q0 -23 -12.5 -36t-34.5 -13t-34.5 13t-12.5 36q0 26 14 38t33 12q20 0 33.5 -12t13.5 -38zM311 815q0 -26 -13.5 -37.5t-32.5 -11.5q-22 0 -34.5 13t-12.5 36q0 26 14 38t33 12t32.5 -12t13.5 -38zM305 903q73 84 96 133h105v-10q-28 -43 -142 -135h-59v12z
M223 25q-25 25 -25 67q0 19 5 42l120 517q-34 -5 -75.5 -32t-71 -75t-29.5 -111q0 -50 20 -104q2 -6 2 -9q0 -13 -16 -19l-89 -31q-4 -2 -10 -2q-11 0 -15 11q-21 59 -21 119q0 86 44.5 154t117.5 111t159 57l134 9h3q18 0 13 -20l-127 -535q-4 -16 -4 -33q0 -25 12.5 -38
t33.5 -13q38 0 82.5 35.5t69.5 92.5l111 485q5 17 21 18l114 7h2q10 0 14.5 -5.5t1.5 -15.5l-127 -533q-5 -23 -5 -37q0 -23 9.5 -35t25.5 -12q27 0 62 29.5t61 78.5q3 6 13.5 2.5t19 -11.5t5.5 -14q-38 -78 -108 -126.5t-144 -48.5q-53 0 -77 24.5t-24 65.5l1 15
q-48 -48 -111 -76.5t-119 -28.5q-54 0 -79 25z" />
    </font>
</defs>
</svg>
