<?xml version="1.0" standalone="no"?>
<!DOCTYPE svg PUBLIC "-//W3C//DTD SVG 1.1//EN" "http://www.w3.org/Graphics/SVG/1.1/DTD/svg11.dtd" >
<svg xmlns="http://www.w3.org/2000/svg" xmlns:xlink="http://www.w3.org/1999/xlink" version="1.1">
<metadata>
Created by FontForge 20190801 at Mon Feb  8 12:17:45 2021
 By root
Copyright (c) 2011, Pablo Impallari (www.impallari.com|impallari@gmail.com),Copyright (c) 2011, Brenda Gallo. (gbrenda1987@gmail.com),Copyright (c) 2011, Rodrigo Fuenzalida (www.rfuenzalida.com|hello@rfuenzalida.com), with Reserved Font Name Petit Formal Script.
</metadata>
<defs>
<font id="PetitFormalScript-Regular" horiz-adv-x="741" >
  <font-face 
    font-family="Petit Formal Script"
    font-weight="400"
    font-stretch="normal"
    units-per-em="2048"
    panose-1="3 2 6 2 4 8 7 8 11 6"
    ascent="1638"
    descent="-410"
    x-height="1185"
    cap-height="1610"
    bbox="-691 -527 3432 2142"
    underline-thickness="94"
    underline-position="-190"
    unicode-range="U+0001-206F"
  />
<missing-glyph horiz-adv-x="748" 
d="M68 0v1365h544v-1365h-544zM136 68h408v1229h-408v-1229z" />
    <glyph glyph-name=".notdef" horiz-adv-x="748" 
d="M68 0v1365h544v-1365h-544zM136 68h408v1229h-408v-1229z" />
    <glyph glyph-name="uni0000" 
 />
    <glyph glyph-name="uni0000" 
 />
    <glyph glyph-name="uni000D" unicode="&#xd;" 
 />
    <glyph glyph-name="uni0001" 
 />
    <glyph glyph-name="uni0002" 
 />
    <glyph glyph-name="uni0003" 
 />
    <glyph glyph-name="uni0004" 
 />
    <glyph glyph-name="uni0005" 
 />
    <glyph glyph-name="uni0006" 
 />
    <glyph glyph-name="uni0007" 
 />
    <glyph glyph-name="uni0008" 
 />
    <glyph glyph-name="uni0009" unicode="&#x9;" 
 />
    <glyph glyph-name="uni000A" unicode="&#xa;" 
 />
    <glyph glyph-name="uni000B" 
 />
    <glyph glyph-name="uni000C" 
 />
    <glyph glyph-name="uni000E" 
 />
    <glyph glyph-name="uni000F" 
 />
    <glyph glyph-name="uni0010" 
 />
    <glyph glyph-name="uni0011" 
 />
    <glyph glyph-name="uni0012" 
 />
    <glyph glyph-name="uni0013" 
 />
    <glyph glyph-name="uni0014" 
 />
    <glyph glyph-name="uni0015" 
 />
    <glyph glyph-name="uni0016" 
 />
    <glyph glyph-name="uni0017" 
 />
    <glyph glyph-name="uni0018" 
 />
    <glyph glyph-name="uni0019" 
 />
    <glyph glyph-name="uni001A" 
 />
    <glyph glyph-name="uni001B" 
 />
    <glyph glyph-name="uni001C" 
 />
    <glyph glyph-name="uni001D" 
 />
    <glyph glyph-name="uni001E" 
 />
    <glyph glyph-name="uni001F" 
 />
    <glyph glyph-name="space" unicode=" " 
 />
    <glyph glyph-name="exclam" unicode="!" horiz-adv-x="742" 
d="M776 1669l-508 -1332l-93 27l433 1347zM42 82q0 36 24 61t59 25q17 0 32.5 -6.5t27 -18t18 -27t6.5 -33.5q0 -17 -6.5 -32.5t-18 -26.5t-27 -17.5t-33.5 -6.5q-35 0 -58.5 23.5t-23.5 58.5z" />
    <glyph glyph-name="quotedbl" unicode="&#x22;" horiz-adv-x="513" 
d="M329 1296q10 13 21 33t20.5 44t18 51.5t13.5 55.5q9 48 10.5 90t4.5 73.5t13 50t36 18.5q19 0 31 -9t19 -23t9.5 -30t2.5 -30q0 -41 -17 -90t-42 -96t-53.5 -86.5t-50.5 -61.5zM559 1296q22 26 42 77t31 107q9 48 10.5 90t4.5 73.5t13 50t36 18.5q19 0 31 -9t19 -23
t9.5 -30t2.5 -30q0 -41 -17 -90t-41.5 -96t-53 -86.5t-51.5 -61.5z" />
    <glyph glyph-name="numbersign" unicode="#" horiz-adv-x="1337" 
d="M264 975h230l149 409h117l-149 -409h319l149 409h116l-149 -409h249l-32 -93h-250l-157 -428h249l-32 -93h-250l-131 -361h-117l131 361h-318l-132 -361h-116l131 361h-229l32 93h231l156 428h-230zM421 454h319l156 428h-318z" />
    <glyph glyph-name="dollar" unicode="$" horiz-adv-x="1254" 
d="M313 -190l71 193q-81 10 -142 43t-102.5 84.5t-62.5 120t-21 150.5q0 60 11 110.5t30.5 87t46 57t57.5 20.5q27 0 42 -15t15 -41q0 -22 -10.5 -35.5t-25.5 -22.5t-32 -14.5t-30 -11.5q-12 -6 -23 -15t-19 -25.5t-13 -41.5t-5 -63q0 -77 21 -140t63 -109t105.5 -71
t147.5 -25q89 0 160.5 28.5t121 79.5t76 121.5t26.5 154.5q0 77 -20.5 133.5t-51.5 101.5t-66.5 84t-66.5 81.5t-51.5 94t-20.5 122.5q0 76 26.5 147.5t77 128.5t125 93.5t170.5 41.5l69 189h117l-72 -196q100 -20 149 -87.5t49 -173.5q0 -56 -13 -111.5t-39 -112.5l-35 15
q23 56 35 106t12 103q0 111 -57 173.5t-178 62.5q-77 0 -132.5 -25t-91 -66.5t-52.5 -95t-17 -110.5q0 -70 22 -128t55.5 -110t72 -101t72 -100.5t55.5 -109t22 -126.5q0 -88 -37.5 -167t-102.5 -140.5t-154.5 -100.5t-192.5 -46l-69 -190h-117z" />
    <glyph glyph-name="percent" unicode="%" horiz-adv-x="2115" 
d="M1560 1570h117l-1148 -1756h-117zM395 463q-75 0 -130 25.5t-90.5 69t-52.5 102.5t-17 127q0 70 17.5 144.5t51 145t81.5 134t109 111t134 75.5t157 28q78 0 134 -24.5t92 -66.5t53 -99t17 -122q0 -70 -19 -145.5t-54 -148t-84.5 -137t-111.5 -113.5t-134.5 -77.5
t-152.5 -28.5zM407 513q61 0 119.5 30t110.5 81t95.5 117t75.5 138.5t49.5 145.5t17.5 137q0 48 -11 89t-33 71t-55.5 46.5t-79.5 16.5q-60 0 -118 -28.5t-110 -77t-96 -112.5t-75.5 -135t-49.5 -145.5t-18 -142.5q0 -112 46.5 -171.5t131.5 -59.5zM1467 0q-75 0 -130 25.5
t-91 69t-53 102.5t-17 127q0 70 17.5 144.5t51 145t81.5 134t109 111t134 75.5t157 28q78 0 134 -24.5t92 -66.5t53 -99t17 -122q0 -70 -19 -145.5t-53.5 -148t-84.5 -137t-111.5 -113.5t-134 -77.5t-152.5 -28.5zM1479 50q61 0 119 30.5t110 81t95.5 117t75.5 138.5
t49.5 145t17.5 137q0 48 -10.5 89t-32.5 71t-56 46.5t-80 16.5q-60 0 -118 -28.5t-110 -77t-96 -112.5t-75.5 -135t-49.5 -145.5t-18 -142.5q0 -112 47 -171.5t132 -59.5z" />
    <glyph glyph-name="ampersand" unicode="&#x26;" horiz-adv-x="1718" 
d="M989 841q52 0 100.5 -12t93.5 -26.5t85.5 -26.5t75.5 -12q28 0 59.5 11t61.5 39t57 77t45 126h43q-11 -68 -42.5 -130t-81 -109t-114.5 -74.5t-143 -27.5q-12 0 -28.5 1.5t-36.5 8.5q21 -44 28.5 -81.5t7.5 -78.5q0 -107 -41.5 -203t-113.5 -169.5t-167.5 -116.5
t-203.5 -43q-91 0 -175.5 32t-149 92t-103.5 145.5t-39 192.5q0 112 43.5 206.5t122.5 165.5t189 115t242 55q-84 42 -129 114.5t-45 157.5q0 76 35.5 139t95 107t137.5 68.5t163 24.5q75 0 129.5 -18t90 -48t52.5 -68.5t17 -78.5q0 -36 -13.5 -72.5t-40.5 -69.5t-68.5 -60
t-97.5 -43l-15 30q49 9 85.5 31.5t60.5 52.5t36 64.5t12 67.5q0 34 -13.5 65.5t-39.5 55.5t-66 38t-92 14q-73 0 -137 -27.5t-112 -75.5t-76 -112.5t-28 -137.5q0 -37 7 -70t21 -61t33.5 -48.5t45.5 -32.5q4 2 15 3.5t22 1.5q27 0 27 -15q0 -14 -32 -14q-8 0 -17.5 1
t-15.5 5q-110 -12 -199.5 -57.5t-153.5 -117.5t-98.5 -168.5t-34.5 -211.5q0 -99 25.5 -172t69.5 -121t103 -71.5t126 -23.5q86 0 167.5 36t145 100t102 152t38.5 192q0 62 -14 102.5t-38.5 64.5t-58 33.5t-71.5 9.5q-45 0 -84 -12t-68 -36t-45.5 -60.5t-16.5 -85.5l-43 -3
q-1 9 -1.5 16.5t-0.5 18.5q0 63 23 113t62 84.5t91.5 53t111.5 18.5z" />
    <glyph glyph-name="quotesingle" unicode="'" horiz-adv-x="282" 
d="M208 1296q22 26 42.5 77t30.5 107q9 48 10.5 90t5 73.5t13 50t35.5 18.5q19 0 31 -9t19 -23t9.5 -30t2.5 -30q0 -41 -17 -90t-41.5 -96t-53 -86.5t-51.5 -61.5z" />
    <glyph glyph-name="parenleft" unicode="(" horiz-adv-x="1010" 
d="M343 -37q-75 72 -131 155.5t-94 173t-57 183.5t-19 189q0 125 29 246t84.5 230t136.5 202.5t183.5 165t226.5 116.5t266 58l-18 -46q-122 -16 -230.5 -64.5t-200 -122t-164 -168t-123.5 -203t-78 -227.5t-27 -241q0 -165 58 -320t172 -280z" />
    <glyph glyph-name="parenright" unicode=")" horiz-adv-x="1010" 
d="M668 1682q75 -72 131 -155.5t93.5 -173t56.5 -184t19 -188.5q0 -125 -29 -246t-84.5 -229.5t-136.5 -202.5t-183.5 -165.5t-226.5 -117t-266 -57.5l18 46q122 16 230.5 64.5t200 122t164 168t123.5 203t78 227.5t27 241q0 165 -57.5 320t-172.5 280z" />
    <glyph glyph-name="asterisk" unicode="*" horiz-adv-x="743" 
d="M393 1174l256 -148q8 -5 14 -14.5t6 -19.5q0 -17 -12.5 -27t-26.5 -10q-8 0 -16.5 2.5t-14.5 8.5l-214 179l24 -281q0 -16 -8.5 -30t-27.5 -14q-20 0 -30.5 14.5t-10.5 34.5l24 278l-218 -181q-11 -11 -30 -11q-12 0 -23 10t-11 27q0 11 6 21.5t18 17.5l246 143l-247 143
q-12 8 -17.5 18t-5.5 21q0 15 10.5 26t24.5 11q8 0 17 -2.5t17 -9.5l213 -180l-24 280q0 22 10.5 35.5t30.5 13.5q19 0 27.5 -14.5t8.5 -34.5l-24 -278l215 180q7 7 15.5 9.5t16.5 2.5q14 0 25.5 -10.5t11.5 -26.5q0 -23 -25 -39z" />
    <glyph glyph-name="plus" unicode="+" horiz-adv-x="816" 
d="M42 687h319v319h93v-319h320v-93h-320v-320h-93v320h-319v93z" />
    <glyph glyph-name="comma" unicode="," horiz-adv-x="473" 
d="M-41 -153q32 2 62.5 15t54 32t38 41t14.5 42q0 6 -1.5 12.5t-6.5 11.5q-17 0 -33 6.5t-28.5 18.5t-20 28t-7.5 36q0 17 6 34t18 31t29 22.5t39 8.5q17 0 34.5 -6t32 -20.5t23.5 -38t9 -58.5q0 -57 -23.5 -103.5t-62.5 -79t-88.5 -50.5t-100.5 -18z" />
    <glyph glyph-name="hyphen" unicode="-" horiz-adv-x="1036" 
d="M195 687h640l-36 -93h-640z" />
    <glyph glyph-name="period" unicode="." horiz-adv-x="469" 
d="M32 92q0 19 7.5 36.5t20 30t29.5 20t36 7.5t36 -7.5t30 -20t20.5 -29.5t7.5 -36t-7.5 -36t-20.5 -29.5t-30.5 -20t-36.5 -7.5t-36 7t-29.5 19.5t-19.5 29.5t-7 36z" />
    <glyph glyph-name="slash" unicode="/" horiz-adv-x="756" 
d="M639 1570h117l-639 -1756h-117z" />
    <glyph glyph-name="zero" unicode="0" horiz-adv-x="1304" 
d="M228 371q0 112 24 233.5t69.5 238.5t110.5 222.5t146 185t177 126.5t204 47q96 0 160 -32t102.5 -85.5t54.5 -123t16 -143.5q0 -106 -25 -227.5t-72 -241.5t-113 -230t-147.5 -194.5t-177.5 -135t-201 -50.5q-94 0 -157 34t-101 90.5t-54 130.5t-16 155zM571 11
q67 0 130.5 32t121.5 87t109.5 129.5t95.5 159.5t79.5 177.5t60 183t37.5 175t13 155.5q0 54 -10.5 103.5t-36 87.5t-68.5 60.5t-108 22.5q-69 0 -132 -31.5t-120 -86.5t-107 -129.5t-91.5 -160.5t-74.5 -179t-55.5 -186t-34.5 -181t-12 -163q0 -54 10 -100.5t33.5 -81
t62.5 -54.5t97 -20z" />
    <glyph glyph-name="one" unicode="1" horiz-adv-x="1092" 
d="M363 0l428 1211q-69 -78 -144 -132.5t-149.5 -89.5t-144.5 -51t-129 -16v33q72 0 160 27.5t179 84.5t178.5 145.5t157.5 211.5h132l-514 -1424h-154z" />
    <glyph glyph-name="two" unicode="2" horiz-adv-x="1222" 
d="M985 -1h-913l54 150q19 53 65.5 107t110.5 110t139 114t150 119t145.5 125t124.5 131.5t86.5 139t32.5 148.5q0 45 -13.5 89.5t-45 79t-83.5 56t-129 21.5q-96 0 -172.5 -34t-131.5 -89.5t-85.5 -126.5t-34.5 -146h-45q3 82 35 160.5t92.5 139.5t148.5 98.5t204 37.5
q84 0 158.5 -21t131 -61t89 -98t32.5 -133q0 -80 -36.5 -155t-97.5 -145.5t-139.5 -136.5t-162.5 -127t-166.5 -116.5t-151.5 -106t-118 -96t-65 -84.5h854z" />
    <glyph glyph-name="three" unicode="3" horiz-adv-x="1269" 
d="M385 1107q0 78 35 137.5t92 99.5t129 60t146 20q71 0 138 -19t119 -56.5t83.5 -94t31.5 -131.5q0 -68 -26.5 -128.5t-75 -108t-117 -79t-153.5 -40.5q75 -23 130 -60t90.5 -83t52.5 -99.5t17 -108.5q0 -83 -36 -164.5t-102.5 -146t-162.5 -104.5t-216 -40
q-100 0 -173 25.5t-120 68.5t-70 98t-23 115q0 23 4 52t15 61t29 66t47 67l24 -31q-23 -27 -38 -56.5t-23.5 -57.5t-11.5 -53.5t-3 -44.5q0 -57 22.5 -104.5t63 -82.5t98 -54.5t126.5 -19.5q95 0 168.5 37t123.5 96.5t76 134t26 149.5q0 58 -16 112t-49 98t-83 74.5
t-118 41.5q-5 -2 -16 -5t-21 -3q-29 0 -29 17q0 16 29 16q11 0 21 -2.5t17 -5.5q93 10 158.5 44.5t107.5 84.5t61.5 110.5t19.5 121.5q0 66 -20.5 113t-54 77t-78 44t-92.5 14q-59 0 -118 -19.5t-106 -55t-76.5 -86t-29.5 -111.5h-43z" />
    <glyph glyph-name="four" unicode="4" horiz-adv-x="1272" 
d="M99 289l1119 1135h132l-413 -1135h234l-15 -40h-233l-158 -435h-161l157 435h-647zM775 289l355 981l-977 -981h622z" />
    <glyph glyph-name="five" unicode="5" horiz-adv-x="1139" 
d="M33 181q16 -38 47 -69.5t72 -54t91.5 -35t105.5 -12.5q77 0 145 20.5t125.5 55.5t102.5 83t76.5 102.5t48.5 113.5t17 117q0 66 -28 127t-87 107t-151 73.5t-220 27.5q-15 0 -30 -0.5t-30 -1.5l219 588h602l-63 -150h-541l-120 -336q156 0 269 -35t185.5 -93
t107.5 -133.5t35 -157.5q0 -66 -20.5 -133t-60.5 -129t-98 -116t-132 -93.5t-164 -62.5t-193 -23q-54 0 -105.5 13t-96 37t-80 57t-57.5 73z" />
    <glyph glyph-name="six" unicode="6" horiz-adv-x="1345" 
d="M1429 1466q-56 15 -108 22t-100 7q-133 0 -240.5 -51t-192.5 -140t-150 -209t-114 -258q36 30 73.5 49t73.5 29.5t70.5 14t65.5 3.5q114 0 195.5 -33.5t134 -90t77 -130t24.5 -152.5q0 -67 -16.5 -135.5t-49.5 -131.5t-81 -118t-111.5 -95.5t-141 -64t-169.5 -23.5
q-107 0 -182.5 32.5t-123.5 91.5t-70.5 141t-22.5 182q0 112 27 240.5t80 255.5t131 244t180.5 206.5t228 143t273.5 53.5q122 0 254 -40zM667 8q64 0 121.5 23t106.5 62.5t87.5 92.5t65.5 113t41.5 123.5t14.5 124.5q0 66 -18 125.5t-56.5 105t-98 72t-142.5 26.5
q-91 0 -161.5 -34.5t-122.5 -109.5q-52 -74 -78.5 -171t-26.5 -197q0 -70 14 -134t46 -113.5t82.5 -79t124.5 -29.5z" />
    <glyph glyph-name="seven" unicode="7" horiz-adv-x="1191" 
d="M399 1424h906l-1057 -1666l-144 65l1025 1451h-793z" />
    <glyph glyph-name="eight" unicode="8" horiz-adv-x="1222" 
d="M125 310q0 89 41.5 165.5t109 140t154.5 114t177 88.5q-35 41 -67 82.5t-56.5 84.5t-39 88t-14.5 93q0 94 41.5 169.5t107.5 128t147 80.5t160 28q61 0 117 -16t99 -49.5t68 -85t25 -121.5q0 -71 -36.5 -138.5t-96.5 -125.5t-137 -104t-158 -76q42 -51 84 -102.5t75 -107
t53.5 -115.5t20.5 -127q0 -104 -44 -185.5t-114 -138.5t-157.5 -87t-174.5 -30q-72 0 -141 19t-123.5 61t-87.5 108t-33 159zM861 381q0 56 -19.5 108t-51 101.5t-71.5 97t-81 94.5q-81 -32 -160 -78.5t-140.5 -105.5t-99.5 -131.5t-38 -156.5q0 -72 23.5 -127.5t61.5 -94
t86 -58.5t97 -20q69 0 139 23t126.5 69t92 115.5t35.5 163.5zM567 1237q0 -49 14 -94.5t38 -89t56 -85t67 -83.5q76 33 144.5 81.5t120.5 106t82.5 120t30.5 124.5q0 59 -17.5 100.5t-47 68t-68.5 38.5t-82 12q-56 0 -115.5 -23t-109 -63.5t-81.5 -95t-32 -117.5z" />
    <glyph glyph-name="nine" unicode="9" horiz-adv-x="1319" 
d="M81 -81q57 -16 108.5 -23t99.5 -7q133 0 240.5 51t192.5 140t150 209t114 258q-36 -30 -73.5 -49t-73.5 -29.5t-70.5 -14t-65.5 -3.5q-114 0 -195.5 33.5t-134 90t-77 129.5t-24.5 153q0 67 16.5 135.5t49.5 131.5t81 118t111.5 95.5t141 64t169.5 23.5
q107 0 182.5 -32.5t123.5 -91t70.5 -141t22.5 -181.5q0 -84 -15.5 -178t-45.5 -190.5t-74.5 -191.5t-103 -181t-130.5 -159.5t-157.5 -128t-184 -85t-209.5 -30.5q-121 0 -254 40zM843 1376q-64 0 -121.5 -23t-106.5 -62.5t-87.5 -92.5t-65.5 -113t-41.5 -123.5
t-14.5 -124.5q0 -66 18 -125.5t56 -105t98 -72t143 -26.5q91 0 161.5 34.5t122.5 109.5q52 74 78.5 171t26.5 197q0 70 -14 134t-46 113.5t-83 79t-124 29.5z" />
    <glyph glyph-name="colon" unicode=":" horiz-adv-x="647" 
d="M32 92q0 19 7.5 36.5t20 30t29.5 20t36 7.5t36 -7.5t30 -20t20.5 -29.5t7.5 -36t-7.5 -36t-20.5 -29.5t-30.5 -20t-36.5 -7.5t-36 7t-29.5 19.5t-19.5 29.5t-7 36zM368 1008q0 19 7.5 36.5t20 30.5t29.5 20.5t36 7.5t36 -7.5t30 -20.5t20.5 -30t7.5 -36t-7.5 -36
t-20.5 -29.5t-30.5 -19.5t-36.5 -7t-36 7t-29.5 19.5t-19.5 29t-7 35.5z" />
    <glyph glyph-name="semicolon" unicode=";" horiz-adv-x="647" 
d="M-40 -153q32 2 62.5 15t54 32t38 41t14.5 42q0 6 -1.5 12.5t-6.5 11.5q-17 0 -33 6.5t-28.5 18.5t-20 28t-7.5 36q0 17 6 34t18 31t29 22.5t39 8.5q17 0 34.5 -6t32 -20.5t23.5 -38t9 -58.5q0 -57 -23.5 -103.5t-62.5 -79t-88.5 -50.5t-100.5 -18zM368 1008
q0 19 7.5 36.5t20 30.5t29.5 20.5t36 7.5t36 -7.5t30 -20.5t20.5 -30t7.5 -36t-7.5 -36t-20.5 -29.5t-30.5 -19.5t-36.5 -7t-36 7t-29.5 19.5t-19.5 29t-7 35.5z" />
    <glyph glyph-name="less" unicode="&#x3c;" horiz-adv-x="938" 
d="M634 251l-620 402l924 434l-34 -95l-738 -348l492 -326z" />
    <glyph glyph-name="equal" unicode="=" horiz-adv-x="1098" 
d="M210 827h846l-32 -93h-846zM74 454h846l-32 -93h-846z" />
    <glyph glyph-name="greater" unicode="&#x3e;" horiz-adv-x="970" 
d="M318 1087l620 -402l-924 -434l34 95l738 347l-493 326z" />
    <glyph glyph-name="question" unicode="?" horiz-adv-x="1112" 
d="M464 1072q-70 13 -120 43t-82.5 68.5t-47.5 82t-15 84.5q0 66 30.5 126.5t86.5 107t135.5 74t177.5 27.5q82 0 154.5 -21.5t126.5 -63.5t85.5 -105t31.5 -147q0 -72 -29 -137t-77.5 -125.5t-111.5 -118t-131.5 -115t-138 -115.5t-130 -120t-107.5 -129t-71 -142l-37 20
q19 78 59.5 144.5t93.5 127t114.5 115.5t122.5 109t117.5 108.5t100 114t69.5 125.5t26 142q0 63 -17.5 116.5t-52 91.5t-86 59.5t-120.5 21.5q-82 0 -139.5 -29t-94 -73.5t-53 -98t-16.5 -102.5q0 -32 8.5 -66.5t27 -67t48 -61t71.5 -47.5zM42 82q0 36 24 61t59 25
q17 0 32.5 -6.5t27 -18t18 -27t6.5 -33.5q0 -17 -6.5 -32.5t-18 -26.5t-27 -17.5t-33.5 -6.5q-35 0 -58.5 23.5t-23.5 58.5z" />
    <glyph glyph-name="at" unicode="@" horiz-adv-x="1895" 
d="M577 587q31 92 82 165.5t112 124.5t125.5 78.5t123.5 27.5q36 0 60.5 -11t39.5 -31t21 -48t6 -63l52 142h94l-163 -448q-18 -51 -33 -102.5t-15 -90.5q0 -19 5 -37.5t17 -32.5t31.5 -23t49.5 -9q53 0 100.5 28.5t88.5 76.5t74 112t56.5 135t36 145t12.5 143q0 57 -10 116
t-32.5 113.5t-59.5 102.5t-90.5 83.5t-126 56t-165.5 20.5q-130 0 -239.5 -39.5t-198.5 -107t-156.5 -157.5t-113.5 -191.5t-69 -209.5t-23 -210q0 -122 34 -230.5t104.5 -189.5t179 -128.5t258.5 -47.5q79 0 145.5 12t119 29t89.5 35t56 30l29 -33q-99 -51 -210.5 -79.5
t-223.5 -28.5q-143 0 -267.5 47.5t-216.5 135t-144.5 211.5t-52.5 276q0 112 29.5 224.5t84.5 215.5t133.5 192t177 155t215 103.5t246.5 37.5q146 0 257 -47t186 -126.5t113 -185.5t38 -224q0 -81 -17.5 -159.5t-48.5 -149t-73.5 -129.5t-92.5 -102t-106.5 -67t-114.5 -24
q-37 0 -71.5 10.5t-61 31.5t-42.5 53t-16 76q0 23 4 52.5t14 61.5q-84 -140 -164 -211t-167 -71q-40 0 -68.5 14.5t-46.5 40t-26.5 60.5t-8.5 76q0 45 9 94.5t26 99.5zM1057 593q21 46 33.5 86t20 72.5t10 55t2.5 34.5q0 33 -8 55.5t-21 36t-30 19.5t-34 6q-36 0 -80 -22
t-89.5 -67t-89.5 -113.5t-80 -161.5q-30 -78 -45 -143.5t-15 -109.5q0 -51 19.5 -79.5t57.5 -28.5q45 0 94 31t96 81.5t88 115t71 132.5z" />
    <glyph glyph-name="A" unicode="A" horiz-adv-x="2097" 
d="M340 589q0 -18 -10.5 -29.5t-27.5 -19.5t-40.5 -13t-48.5 -9q-21 -4 -50 -19t-56 -45.5t-45.5 -80t-18.5 -122.5q0 -75 20.5 -124.5t54.5 -79.5t77.5 -42.5t89.5 -12.5q52 0 99 15t91 45t87 76t88 108q55 77 107.5 169.5t103.5 193t99.5 204.5t95 204t91 192t86.5 168
q44 79 79.5 127.5t68 74t65.5 34t72 8.5q112 0 162 -48t50 -143q0 -73 -25 -174t-63 -216.5t-82 -238t-82 -237.5t-63 -214.5t-25 -169.5q0 -76 35 -118t116 -42q66 0 127.5 31t122 92.5t123 153.5t131.5 214l52 92l27 -19l-52 -92q-74 -131 -140 -228.5t-132 -162.5
t-134.5 -97.5t-146.5 -32.5q-62 0 -109 19t-79 52t-48.5 77.5t-16.5 95.5q0 44 11.5 104t31 130.5t45 149t53.5 160.5h-421q-37 -77 -75.5 -152t-77 -145t-77 -132.5t-75.5 -113.5q-49 -68 -96.5 -115.5t-96.5 -78.5t-100 -45t-106 -14q-133 0 -207.5 77.5t-74.5 224.5
q0 79 21 148.5t58 121.5t87 82t108 30q29 0 47.5 -10t18.5 -38zM1278 1355q-27 -51 -58.5 -115t-65.5 -136t-70.5 -149.5t-74.5 -156.5h415q33 96 64.5 191t57 182t41 161t15.5 128q0 35 -7 57t-19.5 34.5t-30 17t-38.5 4.5q-33 0 -60.5 -10t-53.5 -35t-54 -67t-61 -106z
" />
    <glyph glyph-name="B" unicode="B" horiz-adv-x="1974" 
d="M776 123q38 -54 98 -83.5t131 -29.5q87 0 164 42t134.5 114t91.5 167t34 202q0 132 -54.5 211t-160.5 107q-3 -1 -14 -1q-12 0 -19.5 3.5t-7.5 9.5q0 5 8 9.5t21 4.5q14 0 27 -8q81 18 150.5 62.5t121 107t81 137.5t29.5 155q0 90 -40 144.5t-125 77.5q-27 -11 -55 -28.5
t-54.5 -39.5t-49.5 -46.5t-40 -48.5q-9 -13 -18 -29.5t-20.5 -43.5t-28 -68.5t-40 -104t-55.5 -149.5t-76 -206q-78 -213 -161 -369.5t-173 -259t-189 -152t-208 -49.5q-278 0 -278 320q0 71 13 149t38 159t61 162.5t82 159.5q94 160 219 289.5t268.5 220t301 139.5
t316.5 49q104 0 186.5 -21t139.5 -61t87 -98t30 -131q0 -86 -39.5 -164t-108 -137.5t-159.5 -96t-193 -39.5q171 -38 254.5 -129.5t83.5 -233.5q0 -72 -21 -140t-58.5 -127.5t-90.5 -109t-116.5 -85.5t-135.5 -55.5t-149 -19.5q-44 0 -80 7t-68 22.5t-60.5 40t-56.5 59.5z
M1035 1229q44 80 89.5 136t92 94.5t94 63t96.5 40.5q-23 4 -50 6t-56 2q-150 0 -300.5 -48.5t-289 -137t-259 -213t-210.5 -275.5q-91 -153 -138.5 -311.5t-47.5 -306.5q0 -72 12.5 -123t39 -83.5t68 -47.5t100.5 -15q52 0 95.5 12t83 41t77.5 76t77 117t82 165t94 219
q39 95 72 179t63 157.5t58 136.5t57 116z" />
    <glyph glyph-name="C" unicode="C" horiz-adv-x="1187" 
d="M468 -39q-111 0 -198 34.5t-146.5 100t-91 161t-31.5 217.5q0 67 9.5 142t29.5 152q31 122 81 231.5t115.5 202.5t144 168.5t165.5 128.5t181 81.5t191 28.5q46 0 93 -11t84.5 -36.5t61 -68t23.5 -105.5q0 -56 -16.5 -103.5t-46 -87t-68.5 -72.5t-84 -59l-18 25
q81 65 119.5 143.5t38.5 164.5q0 90 -41.5 131t-121.5 41q-102 0 -207.5 -60.5t-202.5 -166.5t-178 -249.5t-134 -309.5q-34 -107 -52 -210.5t-18 -193.5q0 -371 333 -371q190 0 350 120.5t302 370.5l52 92l27 -19l-52 -92q-76 -134 -155 -232t-164 -162t-178 -95.5
t-197 -31.5z" />
    <glyph glyph-name="D" unicode="D" horiz-adv-x="2184" 
d="M1050 1224q22 34 57.5 78t80.5 88.5t98.5 84.5t111.5 65q-60 15 -128 23t-146 8q-106 0 -204 -15t-182 -46t-152.5 -79.5t-117.5 -116.5t-75.5 -156t-26.5 -197q0 -34 3.5 -71t15.5 -72.5t34 -67.5t59 -55l-13 -21q-90 43 -133 115.5t-43 189.5q0 142 62 258t172 198.5
t262.5 128t333.5 45.5q188 0 334.5 -48.5t247 -138t153 -214.5t52.5 -278q0 -95 -20 -187t-55.5 -177t-85 -161.5t-108.5 -140.5t-131 -119.5t-158.5 -96.5t-186.5 -64.5t-215 -23.5q-70 0 -133 8t-117.5 20.5t-99 27t-77.5 27.5q-73 -42 -151.5 -62t-166.5 -20
q-62 0 -101 8.5t-61 23t-30.5 32.5t-8.5 36q0 36 23.5 57t59.5 32.5t78.5 15t80.5 3.5q82 0 152.5 -10.5t135.5 -30.5q31 35 62.5 82.5t64.5 110.5t68.5 142t74.5 177q47 118 81 202.5t58 144t40.5 98.5t28.5 64.5t21.5 42t20.5 32.5zM1778 996q0 214 -84.5 345.5
t-258.5 187.5q-27 -14 -53 -32t-49 -39t-42.5 -44t-34.5 -45q-12 -17 -23 -38t-24.5 -51t-30 -72t-38.5 -100.5t-51 -136.5t-66 -180q-94 -255 -197 -424t-221 -265q38 -14 83 -30.5t97 -30.5t109.5 -23t120.5 -9q99 0 181 23.5t149.5 64.5t122 95.5t98.5 116.5
q48 69 87 150.5t67 170.5t43 181.5t15 184.5zM208 -3q75 0 136 13.5t117 54.5q-20 6 -56 16.5t-78.5 20t-87 16.5t-83.5 7q-51 0 -83.5 -15t-32.5 -50q0 -13 6.5 -24.5t25 -20t51 -13.5t85.5 -5z" />
    <glyph glyph-name="E" unicode="E" horiz-adv-x="1179" 
d="M606 894q-103 -13 -186 -58.5t-141.5 -118t-90 -168.5t-31.5 -210q0 -166 69 -246t211 -80q95 0 190.5 33t184.5 95.5t169.5 153t145.5 206.5l52 92l26 -19l-51 -92q-72 -130 -157.5 -227t-180 -162t-197 -97.5t-207.5 -32.5q-96 0 -172 28t-129.5 80.5t-82 127
t-28.5 166.5q0 111 41 205t114.5 164.5t176.5 115t227 55.5q-75 42 -115 114t-40 163q0 88 37 166t100.5 136t148.5 91.5t181 33.5q61 0 112.5 -17t89 -48t58 -73.5t20.5 -93.5q0 -96 -59.5 -173.5t-160.5 -135.5l-14 30q39 22 70 53t52.5 68.5t33.5 80t12 86.5
q0 90 -47.5 137t-136.5 47q-78 0 -147.5 -35.5t-121.5 -96t-82.5 -141t-30.5 -170.5q0 -78 23 -134.5t65 -80.5q5 2 16 4t21 2q28 0 28 -14q0 -16 -29 -16q-10 0 -20 2t-17 4z" />
    <glyph glyph-name="F" unicode="F" horiz-adv-x="1636" 
d="M1142 1221q33 61 81.5 117.5t106.5 105.5q-88 8 -175.5 23.5t-171.5 30.5t-164 26t-153 11q-93 0 -156.5 -19t-102 -50t-55.5 -69.5t-17 -78.5q0 -38 14 -72.5t41 -61t67 -42.5t93 -16q30 0 64 5t68.5 14.5t67.5 22.5t60 29l20 -24q-33 -19 -69 -33.5t-72.5 -25t-73 -16
t-69.5 -5.5q-60 0 -106.5 17.5t-79 48t-49.5 71.5t-17 88q0 63 30 116.5t88.5 92.5t146 61t201.5 22q85 0 170.5 -11t172.5 -24.5t176 -25.5t182 -15q80 45 164.5 71.5t169.5 26.5q43 0 58.5 -8t15.5 -30q0 -33 -31 -61.5t-86 -49.5t-129 -33t-161 -12h-28.5t-28.5 1
q-28 -28 -47 -57q-9 -13 -17.5 -29.5t-20 -42.5t-26.5 -63.5t-35.5 -93.5t-49 -132.5t-65.5 -179.5h292v-40h-306q-78 -220 -167 -379t-188 -261.5t-206 -151t-221 -48.5q-74 0 -137.5 19t-110 56.5t-73.5 92.5t-27 127q0 48 11.5 92t32 77.5t48 54t59.5 20.5q21 0 36 -10.5
t15 -38.5q0 -23 -11.5 -36.5t-28.5 -23t-37.5 -19t-37.5 -25t-28.5 -40.5t-11.5 -66q0 -57 21 -102t60 -76.5t95.5 -48.5t127.5 -17q53 0 100 11t91 38.5t86 74t85.5 118t90 170.5t99.5 231q18 45 33.5 85t29.5 76h-270v40h285q40 100 65.5 164t43 105t29 65.5t23.5 45.5z
M1790 1604q-63 0 -128 -19t-125 -51q57 1 110.5 7t95 14t67 17.5t25.5 19.5q0 12 -45 12z" />
    <glyph glyph-name="G" unicode="G" horiz-adv-x="1743" 
d="M1285 1099q17 17 34.5 49.5t32 73t23.5 85t9 85.5q0 36 -10 68.5t-34 57t-63.5 39t-97.5 14.5q-108 0 -213 -43.5t-198.5 -123t-171.5 -192.5t-131 -252q-40 -104 -61.5 -208.5t-21.5 -197.5q0 -140 50.5 -205.5t156.5 -65.5q142 0 282.5 121.5t284.5 374.5l8 13h132
l-65 -183q-57 -163 -116 -300t-121 -252q88 9 159.5 21t132.5 31.5t113 49.5t100.5 76.5t95 111.5t97.5 154l51 92l27 -19l-52 -92q-50 -89 -97 -155t-96.5 -114.5t-104 -81.5t-121 -55t-147 -36t-181.5 -24q-153 -275 -325.5 -408.5t-375.5 -133.5q-137 0 -203.5 56
t-66.5 150q0 67 34 117.5t94 87.5t140.5 62.5t173 43t193 29.5t199.5 22q42 87 84 189.5t90 226.5l26 68q-40 -53 -89.5 -105.5t-108 -94t-125.5 -67t-142 -25.5q-76 0 -138.5 28.5t-106.5 82t-68.5 129t-24.5 168.5q0 67 13 143t39 155q51 149 139.5 272t202.5 211.5
t247 137t273 48.5q82 0 139.5 -17.5t93.5 -48t52.5 -71t16.5 -86.5q0 -37 -9.5 -75.5t-26 -77t-40.5 -75.5t-52 -70zM274 -477q82 0 153 25t135.5 82t126.5 148.5t127 223.5q-159 -14 -298.5 -33.5t-243.5 -54.5t-164 -90t-60 -139q0 -79 56 -120.5t168 -41.5z" />
    <glyph glyph-name="H" unicode="H" horiz-adv-x="2217" 
d="M460 1187q-13 23 -20 53t-7 68q0 70 26 126t72.5 95t109 60t136.5 21q36 0 62.5 -4.5t50.5 -11.5t49.5 -14.5t59.5 -14.5t80 -11.5t112 -4.5q51 0 89 3.5t72 11t68 19t75 26.5v-18q-27 -6 -59.5 -24t-64 -42.5t-59.5 -52t-46 -51.5q-12 -15 -23 -33.5t-24.5 -48.5
t-31.5 -76.5t-44 -117.5t-62.5 -171.5t-85.5 -237.5q106 23 218.5 52t228.5 67q39 100 89 195t109 178.5t125.5 153.5t136.5 120.5t143 78.5t146 28q42 0 70.5 -9.5t46.5 -26.5t25.5 -40.5t7.5 -52.5q0 -71 -40.5 -140t-107 -132.5t-151.5 -120.5t-174 -103
q-65 -34 -131.5 -63t-133.5 -55q-30 -77 -54 -155t-41 -155.5t-26 -152.5t-9 -145q0 -76 10.5 -124t31 -75.5t49 -38t64.5 -10.5q137 0 267.5 124t268.5 367l52 92l26 -19l-51 -92q-76 -134 -147.5 -232.5t-142 -162.5t-142 -95t-148.5 -31q-81 0 -133.5 31.5t-83.5 84
t-43.5 122t-12.5 144.5q0 111 22 227.5t64 233.5q-115 -36 -227 -63.5t-218 -49.5q-72 -187 -145 -324.5t-154.5 -227.5t-174 -134t-202.5 -44q-77 0 -133.5 19.5t-94.5 55t-56.5 84t-18.5 107.5q0 88 40 154.5t110.5 116t165 84.5t204.5 60q58 12 132.5 26t162.5 31
q32 85 57.5 151.5t45.5 119t36.5 93t32 74t31 62t33.5 56.5q19 30 44.5 64t57 69.5t68 69.5t78.5 63q-68 -21 -138 -33t-127 -12q-53 0 -105.5 10t-101 22t-90.5 22t-73 10q-38 0 -72.5 -16.5t-60.5 -47t-41 -73t-15 -94.5q0 -60 20 -102zM289 0q55 0 100 11.5t84.5 40
t75.5 76t74 120.5t80.5 173t93.5 233q-75 -16 -143 -29t-128 -27q-97 -22 -184 -51t-153 -72.5t-104.5 -104.5t-38.5 -147q0 -48 14.5 -89t44.5 -70.5t75.5 -46.5t108.5 -17zM2203 1571q-75 0 -153.5 -52t-154.5 -140.5t-145.5 -207t-124.5 -250.5q57 23 113.5 49t111.5 55
q85 44 165.5 97t143.5 111.5t101.5 120.5t38.5 124q0 43 -22 68t-74 25z" />
    <glyph glyph-name="I" unicode="I" horiz-adv-x="1530" 
d="M1606 1591q-33 -9 -65.5 -27t-62.5 -41.5t-55.5 -51t-44.5 -54.5q-12 -18 -24 -39.5t-26 -53t-32 -76t-41.5 -108t-55 -149.5t-72.5 -200q-80 -220 -163 -377t-176 -257.5t-200.5 -148t-235.5 -47.5q-173 0 -262.5 77.5t-89.5 212.5q0 51 12 96t32 79t46.5 54t55.5 20
q26 0 41 -14t15 -40q0 -20 -9.5 -34t-24 -23.5t-31.5 -16.5t-33 -12q-32 -11 -44.5 -39.5t-12.5 -73.5q0 -57 19.5 -102.5t56.5 -78t90 -50t120 -17.5q65 0 119 12t100.5 40.5t88.5 76t83.5 118.5t85 168.5t93.5 225.5q40 103 71 181t55 138t42.5 104.5t34 78.5t29.5 60
t29 51q46 77 108.5 147t137.5 121q-68 -21 -138.5 -33t-126.5 -12q-53 0 -105.5 10t-101 22t-90.5 22t-73 10q-38 0 -72.5 -16.5t-60.5 -47t-41 -73t-15 -94.5q0 -60 20 -102l-35 -20q-12 23 -19.5 53t-7.5 68q0 70 26 126t72.5 95t109 60t136.5 21q36 0 62.5 -4.5
t50.5 -11.5t49.5 -14.5t59.5 -14.5t80 -11.5t112 -4.5q47 0 85 4t73 11.5t70 19t76 25.5v-18z" />
    <glyph glyph-name="J" unicode="J" horiz-adv-x="1744" 
d="M1232 609q-58 -163 -116 -300t-120 -252q97 8 174.5 22t140.5 37.5t114 57.5t95.5 81t86 108t85.5 138l52 92l27 -19l-52 -92q-50 -88 -98.5 -154.5t-99.5 -115t-107.5 -81.5t-122.5 -55.5t-144.5 -36t-172.5 -23.5q-77 -137 -158 -238.5t-170.5 -169t-187.5 -101
t-208 -33.5q-120 0 -184.5 57.5t-64.5 164.5q0 72 46.5 127.5t147 97.5t259 71.5t383.5 50.5q41 86 82.5 188t89.5 227q67 177 116 303t86.5 217t68 155t60.5 117q48 83 105 150.5t132 117.5q-66 -20 -134.5 -31t-122.5 -11q-53 0 -105.5 10t-101 22t-90.5 22t-73 10
q-38 0 -72.5 -16.5t-60.5 -47t-41 -73t-15 -93.5q0 -61 20 -103l-35 -20q-12 23 -19.5 53t-7.5 66q0 71 26 127.5t72 95.5t109 60t137 21q36 0 62.5 -4.5t50.5 -11.5t49.5 -14.5t59.5 -14.5t80 -11.5t112 -4.5q51 0 89 3.5t72 11t67.5 18.5t75.5 27v-18q-29 -9 -57.5 -22.5
t-57 -33.5t-56 -49.5t-54.5 -69.5q-30 -45 -59.5 -107.5t-66 -156t-84.5 -225.5t-114 -318zM256 -477q88 0 162 22.5t140 77.5t129 147t131 232q-103 -9 -200 -21.5t-182 -30t-156 -40.5t-122 -54t-79 -70.5t-28 -88.5q0 -88 54.5 -131t150.5 -43z" />
    <glyph glyph-name="K" unicode="K" horiz-adv-x="2203" 
d="M571 1187q-12 23 -19.5 53t-7.5 68q0 70 26 126t72.5 95t109 60t136.5 21q36 0 62.5 -4.5t50.5 -11.5t49.5 -14.5t59.5 -14.5t80 -11.5t112 -4.5q50 0 88.5 3.5t72.5 11t68 19t75 26.5v-18q-33 -9 -65.5 -27t-62.5 -41.5t-55.5 -51t-44.5 -54.5q-12 -18 -24 -39.5
t-26 -53t-32 -76t-41.5 -108t-55 -149.5t-72.5 -200q-79 -218 -166 -375t-184.5 -258t-205.5 -149t-229 -48q-81 0 -144.5 20t-107.5 57.5t-67 92t-23 122.5q0 50 12 95t32 78.5t46.5 53.5t55.5 20q26 0 41 -14t15 -40q0 -20 -9.5 -34t-24 -23.5t-31.5 -16.5t-33 -12
q-30 -10 -43.5 -37t-13.5 -75q0 -56 19.5 -101.5t56.5 -78t89 -50t117 -17.5q62 0 114.5 12t100 41t90.5 76.5t86.5 118.5t88 167.5t94.5 223.5q40 103 71 181.5t55.5 138.5t43 104.5t34 78t29 60t28.5 50.5q47 78 108.5 147t136.5 120q-68 -20 -138 -32t-126 -12
q-53 0 -105.5 10t-101 22t-90.5 22t-73 10q-38 0 -72.5 -16.5t-60.5 -47t-41 -73t-15 -94.5q0 -60 20 -102zM2310 1568q-42 12 -88 12q-69 0 -121.5 -31t-96.5 -81.5t-82 -115t-78 -132t-85 -132t-102 -115t-130 -81.5t-168 -31q51 -10 95 -25t77 -40t51.5 -62.5t18.5 -91.5
q0 -52 -15 -108t-33.5 -113t-33.5 -115t-15 -113q0 -48 13 -82.5t36 -57t54 -33t68 -10.5q70 0 130 35t115.5 99.5t111.5 155t119 201.5l52 92l26 -19l-51 -92q-75 -132 -135.5 -230t-121 -162.5t-128 -96.5t-155.5 -32q-60 0 -114 15t-95.5 45t-65.5 75.5t-24 107.5
q0 55 17 120.5t38 131t38 125.5t17 104q0 31 -10 59.5t-26.5 51t-37.5 37.5t-44 20q-4 -1 -8 -1h-6q-26 0 -26 13q0 5 7 9.5t18 4.5q7 0 14 -1t16 -7q65 18 117 59t97.5 96.5t86 120t82.5 129t88 125t101.5 106.5t123 74t152.5 28q42 0 72.5 -5.5t56.5 -13.5z" />
    <glyph glyph-name="L" unicode="L" horiz-adv-x="1780" 
d="M1357 997q59 58 106.5 121.5t81 125.5t51.5 119t18 104q0 20 -4 39t-14.5 33.5t-28 23t-44.5 8.5q-57 0 -115.5 -39t-112.5 -113q-42 -57 -76.5 -128.5t-66.5 -152.5t-63 -169t-66 -178q-49 -126 -97.5 -231t-99 -190t-103 -150.5t-109.5 -113.5q48 -14 106.5 -28.5
t122.5 -26.5t130 -20t131 -8q115 0 201 29t157 88.5t134.5 149t132.5 211.5l51 92l27 -19l-52 -92q-95 -168 -184 -275.5t-174.5 -169t-169 -84.5t-167.5 -23q-57 0 -121.5 10t-132 26.5t-137.5 37.5t-138 42q-74 -44 -154 -64.5t-172 -20.5q-63 0 -102.5 8.5t-62.5 22.5
t-31.5 32t-8.5 36q0 36 23 58t58 34.5t77 17t80 4.5q83 0 157.5 -13.5t137.5 -30.5q31 36 61.5 84t63 110.5t67.5 141t75 174.5q63 150 113.5 277.5t98.5 231.5t97.5 186.5t111.5 142.5q69 67 144 99t145 32q47 0 78.5 -13t50 -35.5t26 -52.5t7.5 -65q0 -118 -74.5 -238.5
t-215.5 -238.5zM206 -3q83 0 145 15t116 55q-33 10 -69.5 20.5t-75.5 19t-78.5 14t-77.5 5.5q-59 0 -92.5 -15.5t-33.5 -50.5q0 -13 6.5 -24.5t24.5 -20t50.5 -13.5t84.5 -5z" />
    <glyph glyph-name="M" unicode="M" horiz-adv-x="2333" 
d="M444 1085q9 22 21.5 62t24 87.5t20 99t8.5 96.5q0 30 -4.5 56t-15.5 44.5t-28.5 29.5t-43.5 11q-44 0 -92.5 -28.5t-99.5 -87.5t-103.5 -149.5t-103.5 -213.5l-27 18q55 136 111.5 231t114 154.5t115 86.5t114.5 27q55 0 91.5 -21t57.5 -57.5t29.5 -85t8.5 -103.5
q0 -29 -4 -64.5t-12 -73.5q58 99 110.5 175t104.5 127t105.5 77t114.5 26q55 0 104.5 -18t86.5 -52.5t58.5 -86.5t21.5 -119q0 -33 -5 -64t-15 -63q58 99 110.5 174.5t104 126t105 76.5t114.5 26q54 0 102.5 -18t85 -52.5t58 -86.5t21.5 -119q0 -77 -27.5 -168.5t-68.5 -192
t-88.5 -205.5t-88.5 -209t-68.5 -203.5t-27.5 -187.5q0 -71 32 -114t103 -43q66 0 127 31t121 92.5t122.5 153.5t131.5 214l52 92l27 -19l-52 -92q-75 -133 -142 -231t-132.5 -162.5t-133.5 -96t-146 -31.5q-70 0 -119 17t-80 48.5t-45 76t-14 99.5q0 69 16 146t42.5 159
t60 166.5t69 167.5t69 162t60 150t42.5 131.5t16 107.5q0 85 -40.5 126.5t-106.5 41.5q-56 0 -108.5 -32t-106.5 -94.5t-112.5 -154t-125.5 -210.5l-19 -34l-375 -1035h-148l301 832q31 85 60.5 166t52.5 153t37.5 133t14.5 108q0 85 -43.5 132t-112.5 47q-56 0 -108.5 -34
t-106.5 -98t-111.5 -156.5t-124.5 -209.5l-391 -1073h-148z" />
    <glyph glyph-name="N" unicode="N" horiz-adv-x="1748" 
d="M1396 1333q0 -49 -15.5 -111.5t-40 -134t-56.5 -150t-65.5 -160t-65.5 -163t-56.5 -160t-40 -151.5t-15.5 -136q0 -71 36 -114t116 -43q66 0 127 31t121.5 92.5t123 153.5t131.5 214l52 92l27 -19l-52 -92q-75 -133 -142 -231t-132.5 -162.5t-134 -96t-146.5 -31.5
q-75 0 -127 17t-85 48.5t-47.5 76t-14.5 99.5q0 48 15.5 115t41.5 145.5t58.5 165.5t67 175.5t67 175t58.5 163.5t41.5 141t15.5 109q0 85 -43.5 132t-112.5 47q-60 0 -120.5 -34t-122 -98.5t-125 -158t-130.5 -211.5l-50 -88l-357 -982h-148l394 1086q9 22 21.5 62t24 87.5
t20 99t8.5 96.5q0 30 -4.5 56t-15.5 44.5t-28.5 29.5t-43.5 11q-44 0 -92.5 -28.5t-99.5 -87.5t-103.5 -149.5t-103.5 -213.5l-27 18q55 136 111.5 231t114 154.5t115 86.5t114.5 27q55 0 91.5 -21t57.5 -57.5t29.5 -85t8.5 -103.5q0 -38 -7 -88t-22 -105q66 112 128 198
t124 144.5t126 88t134 29.5q55 0 104.5 -18t86.5 -52.5t58.5 -86.5t21.5 -119z" />
    <glyph glyph-name="O" unicode="O" horiz-adv-x="1684" 
d="M170 769q31 121 81.5 230t115.5 202.5t143 168.5t164 128.5t178 82t186 28.5q189 0 289 -117t100 -339q0 -95 -18.5 -200t-53.5 -211q-38 -113 -91.5 -215t-118.5 -188.5t-139 -156.5t-154 -119t-163 -75.5t-165 -26.5q-93 0 -166 34t-124 98.5t-77.5 158t-26.5 211.5
q0 73 10 150.5t30 155.5zM539 10q99 0 202.5 57t200 159t180 242.5t143.5 308.5q43 121 66.5 237.5t23.5 210.5q0 81 -18.5 145.5t-54 109t-86.5 68t-115 23.5q-69 0 -140 -27t-140.5 -76.5t-135 -120t-123.5 -158t-107 -189.5t-85 -214q-34 -109 -52 -214.5t-18 -197.5
q0 -178 66 -271t193 -93z" />
    <glyph glyph-name="P" unicode="P" horiz-adv-x="1780" 
d="M275 -39q-275 0 -275 324q0 146 50 304.5t146 319.5q98 163 222 293t265 220.5t295 138.5t312 48q109 0 193 -21.5t141.5 -63t87.5 -102t30 -138.5q0 -107 -50 -200.5t-137 -163t-204.5 -110.5t-251.5 -42v11q118 20 213 66.5t161.5 115t102 156.5t35.5 190
q0 103 -39.5 163.5t-126.5 84.5q-54 -23 -106.5 -66t-87.5 -97q-11 -16 -21 -33.5t-22.5 -44.5t-29 -67.5t-39.5 -102t-55 -148t-75 -205.5q-77 -212 -160 -368.5t-174 -259t-190.5 -152.5t-209.5 -50zM1037 1230q34 58 77 109.5t90.5 94.5t99 75.5t103.5 53.5
q-24 4 -50.5 6t-56.5 2q-150 0 -299 -47t-286 -135t-257.5 -213t-214.5 -281q-92 -152 -139.5 -307.5t-47.5 -303.5q0 -147 51 -214t160 -67q52 0 97 13t86.5 43t80.5 78t79.5 119t83 166t91.5 218q43 110 75.5 191.5t56.5 140.5t41 99t31 68.5t25 49.5t23 41z" />
    <glyph glyph-name="Q" unicode="Q" horiz-adv-x="1875" 
d="M1585 -18q-79 -107 -148.5 -173.5t-132.5 -103.5t-122.5 -50t-117.5 -13q-116 0 -240.5 31.5t-255.5 73.5q-95 -35 -187 -54t-179 -19q-61 0 -100 8.5t-61.5 23t-31 32.5t-8.5 36q0 35 23.5 57t59 34.5t78 17t80.5 4.5q97 0 193 -22t192 -48q130 62 254 157.5t232 218.5
t197 270.5t149 313.5q44 121 67.5 235.5t23.5 209.5q0 83 -18.5 148t-53.5 109.5t-85.5 68t-114.5 23.5q-98 0 -199.5 -53.5t-196 -148.5t-175.5 -225t-137 -284q-30 -83 -48 -155.5t-27.5 -129.5t-12.5 -95t-3 -51q0 -56 3 -113t20 -103t54 -75.5t106 -29.5q55 0 127 24.5
t163 88.5l9 -29q-88 -66 -165.5 -93.5t-141.5 -27.5q-62 0 -110 21.5t-84 56t-60.5 79t-40 91t-22 91t-6.5 79.5q0 10 1.5 40.5t7.5 77t18 107t34 129.5q52 167 139 307.5t197.5 242.5t239 159t263.5 57q192 0 291.5 -117t99.5 -342q0 -94 -18 -197.5t-55 -209.5
q-56 -161 -146.5 -304t-204 -263.5t-243 -215.5t-264.5 -160q45 -12 95.5 -23.5t102.5 -20.5t104 -14.5t101 -5.5q74 0 136.5 14.5t117.5 46t106 80.5t102 117zM196 -290q77 0 155.5 14.5t156.5 42.5l-10 3q-35 12 -75 24t-83 22t-86.5 16.5t-85.5 6.5q-60 0 -93.5 -15.5
t-33.5 -49.5q0 -12 6.5 -23.5t23.5 -20.5t47 -14.5t78 -5.5z" />
    <glyph glyph-name="R" unicode="R" horiz-adv-x="2085" 
d="M276 -40q-276 0 -276 325q0 145 50 304.5t146 320.5q97 163 221.5 292.5t266 220t296 138.5t312.5 48q107 0 190.5 -21t141.5 -60.5t88 -97.5t30 -131q0 -87 -39.5 -165t-107.5 -137.5t-159 -96t-194 -39.5q125 -23 183 -75t58 -139q0 -49 -15 -105t-33.5 -115
t-33.5 -119t-15 -115q0 -88 44.5 -135t127.5 -47q58 0 109 23t105.5 79t117 150.5t143.5 237.5l52 92l27 -19l-52 -92q-61 -107 -110.5 -187.5t-93 -138.5t-82.5 -95.5t-79 -59.5t-83 -31t-93 -9q-68 0 -123 17t-94 49t-60 77.5t-21 101.5t17 122t38 131t38 124t17 102
q0 29 -9 57t-25 51t-37.5 39t-45.5 21q-4 -1 -14 -1q-12 0 -19.5 3.5t-7.5 9.5q0 5 7.5 9.5t17.5 4.5q11 0 17 -1.5t14 -6.5q81 18 151 63t121 107t80.5 138t29.5 156q0 174 -165 220q-55 -22 -107.5 -65.5t-89.5 -98.5q-11 -16 -20.5 -33t-21.5 -43.5t-28 -67t-39.5 -102
t-55 -148t-75.5 -206.5q-77 -213 -160 -369.5t-174 -259t-190 -152.5t-209 -50zM1035 1229q71 120 168 206.5t205 127.5q-23 4 -50 6t-57 2q-150 0 -299 -47t-286.5 -134.5t-258 -213t-214.5 -281.5q-92 -152 -139.5 -307.5t-47.5 -303.5q0 -146 54.5 -213t149.5 -67
q52 0 97.5 12.5t87 42t81.5 77.5t81 118.5t84.5 166t93.5 219.5q45 114 78.5 196.5t57.5 142t40.5 98.5t29.5 66.5t23 47t21 38.5z" />
    <glyph glyph-name="S" unicode="S" horiz-adv-x="1453" 
d="M1243 1130q38 57 56 107t18 102q0 54 -17.5 97t-50.5 74t-80.5 47.5t-106.5 16.5q-70 0 -127.5 -23t-98 -65t-62.5 -101t-22 -131t20 -140.5t50 -136t65.5 -133.5t65.5 -132t50 -133t20 -136q0 -70 -22 -133.5t-61.5 -116.5t-93.5 -96t-117.5 -73t-134.5 -46t-144 -16
q-111 0 -195 35t-141 93t-85.5 133.5t-28.5 156.5q0 51 11 98t30.5 83t46 57t57.5 21q27 0 42.5 -15t15.5 -41q0 -21 -10.5 -34.5t-25.5 -22.5t-32 -15t-30 -12q-26 -12 -43.5 -41t-17.5 -90q0 -62 23 -126t70.5 -116t120.5 -84.5t173 -32.5q87 0 164.5 26.5t136 78
t92.5 129t34 179.5q0 77 -18.5 142t-46 124t-60 114.5t-60 113.5t-46 120.5t-18.5 136.5q0 94 32.5 173.5t92.5 137.5t144.5 90.5t188.5 32.5q75 0 135.5 -17.5t103 -50.5t65 -80t22.5 -106q0 -65 -28 -122.5t-88 -116.5z" />
    <glyph glyph-name="T" unicode="T" horiz-adv-x="1582" 
d="M1142 1219q35 63 83 120t105 105q-88 8 -174.5 23.5t-171 30.5t-166.5 26t-161 11q-89 0 -150 -16t-99.5 -44.5t-55.5 -68.5t-17 -89t15 -85t43 -59.5t66.5 -35t85.5 -11.5q32 0 67 5t69.5 14.5t67.5 22.5t61 29l20 -24q-66 -38 -142 -59t-145 -21q-58 0 -104 15.5
t-78.5 44.5t-49.5 71t-17 95q0 141 118.5 216t342.5 75q90 0 176.5 -11t173 -24.5t174.5 -25.5t181 -15q81 46 166 72t169 26q43 0 58.5 -8t15.5 -30q0 -33 -31 -61.5t-85.5 -49.5t-129.5 -33t-162 -12h-28t-28 1q-14 -14 -25.5 -28t-21.5 -29q-9 -13 -18 -30.5t-21 -45
t-28 -68.5t-38.5 -102.5t-53.5 -146t-72 -198.5q-80 -219 -162.5 -376.5t-175.5 -258t-200 -148t-236 -47.5q-170 0 -261.5 75t-91.5 215q0 51 12 96t32 79t46.5 54t56.5 20q26 0 40.5 -15.5t14.5 -44.5q0 -14 -4.5 -24t-15.5 -18t-30 -17t-48 -21q-29 -13 -43 -36.5
t-14 -74.5q0 -123 74 -185.5t224 -62.5q61 0 112 10t95.5 36.5t85 72.5t82 117t86 170t97.5 233q44 113 76.5 195t56 140.5t39.5 97.5t27.5 66t20.5 45t19 35zM1790 1604q-63 0 -128 -19t-125 -51q57 2 110.5 7.5t95.5 13.5t67 17.5t25 19.5q0 12 -45 12z" />
    <glyph glyph-name="U" unicode="U" horiz-adv-x="1691" 
d="M1467 1609l-408 -1124q-15 -41 -29 -84t-24.5 -84.5t-16.5 -80t-6 -69.5q0 -71 36.5 -114t116.5 -43q66 0 127 31t121.5 92.5t123 153.5t131.5 214l52 92l26 -19l-51 -92q-75 -133 -142 -231t-133 -162.5t-134 -96t-146 -31.5q-122 0 -185.5 71.5t-63.5 195.5
q0 39 6.5 88t21.5 104q-66 -114 -123.5 -200t-114.5 -143.5t-116.5 -86.5t-129.5 -29q-56 0 -105.5 18t-86.5 52.5t-58.5 86t-21.5 119.5q0 57 16.5 128.5t43 152t60.5 168t70 175t70 172.5t60.5 162t43 142.5t16.5 114.5q0 25 -4.5 47t-14.5 38t-27 25t-42 9
q-44 0 -92.5 -28.5t-99.5 -87.5t-103.5 -149.5t-103.5 -213.5l-27 18q55 136 111.5 231t114 154.5t115 86.5t114.5 27q84 0 134.5 -52.5t50.5 -149.5q0 -50 -16 -118t-42 -148t-59 -168t-67.5 -178t-67.5 -178.5t-59 -169t-42 -149.5t-16 -120q0 -85 43.5 -126.5
t113.5 -41.5q60 0 115.5 31.5t111.5 93.5t116 153.5t128 212.5l49 88l371 1020h148z" />
    <glyph glyph-name="V" unicode="V" horiz-adv-x="1427" 
d="M1298 1499q0 -103 -22 -223.5t-61 -248t-94 -256t-121 -247t-140.5 -221.5t-154 -179t-161.5 -119.5t-162 -43.5q-51 0 -98.5 18.5t-84 53t-58.5 84t-22 112.5q0 55 17 125.5t44.5 150.5t63 166.5t73 175t73 174.5t63 165t44.5 147.5t17 121.5q0 24 -4.5 45.5t-14.5 37
t-27.5 24.5t-42.5 9q-43 0 -91.5 -28.5t-99.5 -87.5t-103.5 -149.5t-103.5 -213.5l-27 18q57 139 113.5 234.5t114.5 154t117 84.5t120 26q91 0 141.5 -49t50.5 -137q0 -52 -17 -122.5t-45.5 -152.5t-64.5 -173t-73.5 -183.5t-73.5 -182.5t-64.5 -170.5t-45.5 -149
t-17 -116.5q0 -36 10 -65.5t29.5 -51.5t46.5 -34t62 -12q63 0 131.5 39.5t138 108t137.5 161.5t129.5 200t113.5 224t90.5 232.5t60 225.5t21.5 204q0 65 -9 110.5t-20 76.5t-20 50t-9 31q0 13 12 28t36 15t39.5 -18.5t25 -49t13.5 -69.5t4 -80z" />
    <glyph glyph-name="W" unicode="W" horiz-adv-x="2178" 
d="M1260 1482h148l-363 -997q-27 -75 -46.5 -151.5t-19.5 -139.5q0 -41 9.5 -75t29 -58t49 -37.5t69.5 -13.5q68 0 140.5 39.5t144 108t141 161.5t131 200t114 223.5t90.5 232t59 225.5t21 204q0 66 -9 111.5t-20.5 76.5t-20.5 50t-9 31q0 13 12.5 28t36.5 15q23 0 39 -18.5
t25.5 -49t13.5 -69.5t4 -81q0 -103 -21.5 -223.5t-60.5 -248t-93.5 -256t-120.5 -246.5t-142.5 -221t-159 -179t-169 -119.5t-173.5 -43.5q-65 0 -113 24.5t-79.5 66t-46.5 96t-15 115.5q0 54 12 110q-54 -91 -113 -166.5t-121 -130t-126 -85t-128 -30.5q-49 0 -96 18.5
t-83.5 53t-58.5 84t-22 112.5q0 55 17 125.5t44.5 150.5t63 166.5t73 175t73 174.5t63 165t44.5 147.5t17 121.5q0 24 -4.5 45.5t-14.5 37t-27.5 24.5t-42.5 9q-43 0 -91.5 -28.5t-99.5 -87.5t-103.5 -149.5t-103.5 -213.5l-27 18q57 139 113.5 234.5t114.5 154t117 84.5
t120 26q91 0 141.5 -49t50.5 -137q0 -52 -17 -122.5t-45.5 -153t-64.5 -173t-73.5 -183t-73.5 -182.5t-64.5 -170.5t-45.5 -148.5t-17 -116q0 -36 10.5 -66t29.5 -52t46 -34t60 -12q67 0 140 49t144 133t138 195t123 235z" />
    <glyph glyph-name="X" unicode="X" horiz-adv-x="1765" 
d="M179 1348q36 73 73 122.5t77.5 80.5t86.5 44.5t101 13.5q84 0 143.5 -25t99.5 -71t64 -110t37.5 -142t19 -167.5t9.5 -185.5l3 -92q87 57 168.5 121.5t153 132.5t130.5 138t100 140q26 44 41.5 80.5t23.5 65.5t10.5 51.5t4.5 39.5q2 26 17 35t31 9q27 0 39 -18.5
t12 -43.5q0 -34 -19.5 -80t-48.5 -94q-51 -85 -122 -170t-157 -166t-182.5 -157t-198.5 -142l12 -289q5 -128 15 -215.5t32.5 -141.5t61.5 -78t102 -24q81 0 160.5 34.5t154.5 98.5t145.5 154.5t133.5 202.5l52 93l27 -19l-52 -93q-146 -260 -307 -390t-348 -130
q-76 0 -129 20.5t-89 59t-57.5 93.5t-33.5 123.5t-17.5 150t-9.5 173.5l-5 100q-92 -59 -177.5 -126.5t-160 -138t-134 -141.5t-98.5 -137q-35 -61 -48.5 -106.5t-17.5 -84.5q-1 -13 -3 -29t-7.5 -29.5t-16 -23t-28.5 -9.5q-26 0 -39.5 18t-13.5 46q0 33 18 78.5t47 94.5
q48 82 120 167.5t160 169t189 162t208 147.5l-17 347q-2 49 -5.5 104t-12.5 108.5t-25 102.5t-42.5 86t-65.5 59t-95 22q-51 0 -91.5 -18t-73 -49.5t-59 -74t-50.5 -91.5z" />
    <glyph glyph-name="Y" unicode="Y" horiz-adv-x="1742" 
d="M1230 609q-60 -165 -118 -303t-120 -255q92 9 166.5 23t136 36t113.5 54.5t99 79.5t91.5 110t92.5 147l51 92l27 -19l-52 -92q-50 -89 -98 -155t-98.5 -114.5t-107 -81.5t-122.5 -55.5t-144.5 -36t-174.5 -23.5q-77 -137 -158 -238.5t-170 -169t-187.5 -101t-208.5 -33.5
q-120 0 -184.5 57.5t-64.5 164.5q0 72 45.5 127t145 95.5t257.5 69t382 49.5q39 83 81 182t90 219l47 119q-46 -70 -95 -128.5t-101.5 -100.5t-109 -65.5t-116.5 -23.5q-56 0 -105 18t-86 52.5t-58.5 86t-21.5 119.5q0 80 21 159.5t53 158t68.5 156t68.5 154t53 152
t21 149.5q0 25 -4.5 48.5t-14.5 40.5t-27 27.5t-42 10.5q-44 0 -92.5 -29.5t-99.5 -90t-103.5 -152t-103.5 -215.5l-27 19q55 136 111.5 232t114 157t115 89t114.5 28q50 0 90.5 -14.5t69 -42t44 -66t15.5 -86.5q0 -74 -23 -153.5t-57 -161.5t-74 -165t-74 -163.5
t-57 -156.5t-23 -144q0 -38 10.5 -69t29 -53t43.5 -34t55 -12q58 0 116 30t112.5 79.5t103.5 112.5t90.5 129.5t73 130t50.5 114.5l244 652h149zM237 -482q84 0 158 21.5t143 76.5t136 148.5t138 236.5q-154 -13 -292.5 -34.5t-243 -57t-166 -87.5t-61.5 -125
q0 -88 45.5 -133.5t142.5 -45.5z" />
    <glyph glyph-name="Z" unicode="Z" horiz-adv-x="1516" 
d="M1423 1571l-563 -707h309v-40h-340l-514 -645q25 11 54.5 18.5t68.5 7.5q48 0 101 -10t107.5 -25t109 -32t105.5 -32t96 -25t81 -10q35 0 71.5 13.5t82.5 54.5q57 51 125 144t142 218l55 92l26 -19l-55 -92q-41 -69 -77 -125.5t-69 -103t-64.5 -83.5t-62.5 -67
q-39 -37 -77 -61t-75 -37.5t-73.5 -18.5t-72.5 -5q-88 0 -169.5 20.5t-156 44.5t-143 44.5t-129.5 20.5q-30 0 -47 -6.5t-33.5 -21.5t-38.5 -40t-64 -62l-23 38l644 805h-324v40h355l515 644q-47 -26 -98.5 -48t-101 -38t-94.5 -25t-78 -9q-53 0 -108.5 18.5t-109.5 40.5
t-103.5 40.5t-90.5 18.5q-24 0 -50.5 -9.5t-60.5 -42t-77.5 -94t-102.5 -166.5l-53 -93l-26 18l53 94q46 82 83 143.5t68 106t57.5 73t53 45.5t54.5 24t61 7q58 0 108.5 -20.5t98.5 -45t97.5 -45t105.5 -20.5q24 0 67.5 5.5t98 20t117.5 39.5t127 65z" />
    <glyph glyph-name="bracketleft" unicode="[" horiz-adv-x="1163" 
d="M723 1684h398l-16 -46h-301l-650 -1781h302l-16 -46h-398z" />
    <glyph glyph-name="backslash" unicode="\" horiz-adv-x="756" 
d="M756 -186h-117l-639 1756h117z" />
    <glyph glyph-name="bracketright" unicode="]" horiz-adv-x="1163" 
d="M440 -189h-398l16 46h300l650 1781h-302l17 46h398z" />
    <glyph glyph-name="asciicircum" unicode="^" horiz-adv-x="907" 
d="M787 493l-336 391l-331 -391h-78l407 494l417 -494h-79z" />
    <glyph glyph-name="underscore" unicode="_" horiz-adv-x="1152" 
d="M-1 -1h899l-36 -93h-899z" />
    <glyph glyph-name="grave" unicode="`" horiz-adv-x="378" 
d="M327 1340q-22 8 -53.5 24t-65.5 38t-67.5 49t-59.5 57t-42.5 60.5t-16.5 59.5q0 23 11.5 39.5t35.5 16.5q21 0 35 -13.5t27.5 -38.5t31 -59t47.5 -74q35 -48 74.5 -84t71.5 -50z" />
    <glyph glyph-name="a" unicode="a" horiz-adv-x="1492" 
d="M-4 584q36 108 86 196.5t108.5 157.5t123 119t129 82.5t127 48.5t117.5 16q57 0 95 -17.5t61.5 -49t33.5 -76t10 -98.5l81 222h148l-255 -700q-14 -39 -28 -79.5t-24.5 -80t-17 -76t-6.5 -67.5q0 -69 36.5 -110t113.5 -41q67 0 130 28.5t124.5 87t123.5 147t128 207.5
l51 92l27 -19l-52 -92q-73 -130 -139.5 -224.5t-132.5 -156t-135 -91t-147 -29.5q-61 0 -107.5 18.5t-78 52.5t-47.5 82t-16 107q0 39 7 84.5t21 94.5q-131 -220 -259 -329.5t-260 -109.5q-62 0 -105.5 22.5t-71.5 63t-41 95t-13 119.5q0 70 14 147.5t40 155.5zM209 31
q54 0 110 28.5t111.5 78t107.5 116t98.5 142t85.5 155.5t67.5 157.5t44 148t15.5 126.5q0 51 -12.5 85.5t-33 56t-47 30.5t-54.5 9q-56 0 -124.5 -34.5t-139.5 -105t-139.5 -178t-125.5 -252.5q-47 -121 -70.5 -224t-23.5 -172q0 -78 31.5 -122.5t98.5 -44.5z" />
    <glyph glyph-name="b" unicode="b" horiz-adv-x="1238" 
d="M214 775q129 215 255.5 322t257.5 107q61 0 105 -22.5t72 -63t41 -95.5t13 -119q0 -70 -14 -147t-40 -156q-37 -108 -87 -196t-108.5 -157t-122.5 -119.5t-128.5 -83t-127 -48.5t-117.5 -16q-74 0 -130.5 18.5t-94.5 52.5t-57.5 82t-19.5 107q0 52 12.5 114t36.5 130
l446 1227h149zM695 1154q-54 0 -111 -30t-113.5 -82t-111 -121t-103.5 -146.5t-90 -160t-70.5 -161t-46.5 -148.5t-17 -123q0 -75 40 -118t125 -43q42 0 103.5 23t132 85.5t146 174t146.5 288.5q48 120 72 218.5t24 170.5q0 84 -31 128.5t-95 44.5z" />
    <glyph glyph-name="c" unicode="c" horiz-adv-x="1057" 
d="M751 945q-34 0 -53.5 19.5t-19.5 53.5q0 32 17 52t45 20q10 0 19 -4q5 -2 7 -2.5t4 -0.5q9 0 9 13t-10 25.5t-27 22t-39.5 15t-46.5 5.5q-62 0 -125.5 -36t-123 -98.5t-112 -146.5t-91.5 -179.5t-61.5 -197.5t-22.5 -200q0 -74 13.5 -126t42 -85t73.5 -48.5t108 -15.5
q93 0 181.5 31t171 90.5t157 147t138.5 201.5l52 92l27 -19l-52 -92q-143 -254 -316 -377.5t-378 -123.5q-186 0 -279.5 96t-93.5 279q0 54 8 111t23 115q36 134 101.5 248t150 197t183 130t200.5 47q107 0 163 -56q23 -23 35 -50.5t12 -56.5q0 -44 -24.5 -70t-65.5 -26z
" />
    <glyph glyph-name="d" unicode="d" horiz-adv-x="1492" 
d="M-4 584q36 108 86 196.5t108.5 157.5t123 119t129 82.5t127 48.5t117.5 16q57 0 95 -17.5t61.5 -49t33.5 -76t10 -98.5l272 749h148l-446 -1227q-14 -39 -28 -80t-24.5 -80t-17 -75.5t-6.5 -67.5q0 -69 36.5 -110t113.5 -41q67 0 130 28.5t124.5 87t123.5 147t128 207.5
l51 92l27 -19l-52 -92q-73 -129 -139.5 -223.5t-132.5 -156t-135 -91.5t-147 -30q-61 0 -107.5 18.5t-78 52.5t-47.5 82t-16 107q0 39 7 84.5t21 94.5q-131 -220 -259 -329.5t-260 -109.5q-62 0 -105.5 22.5t-71.5 63t-41 95t-13 119.5q0 70 14 147.5t40 155.5zM209 31
q54 0 110 28.5t111.5 78t107.5 116t98.5 142t85.5 155.5t67.5 157.5t44 148t15.5 126.5q0 51 -12.5 85.5t-33 56t-47 30.5t-54.5 9q-56 0 -124.5 -34.5t-139.5 -105t-139.5 -178t-125.5 -252.5q-47 -121 -70.5 -224t-23.5 -172q0 -78 31.5 -122.5t98.5 -44.5z" />
    <glyph glyph-name="e" unicode="e" horiz-adv-x="1057" 
d="M342 -19q-181 0 -279 94.5t-98 281.5q0 51 7.5 108t23.5 117q36 134 101.5 248t150.5 197t183 130t197 47q100 0 157.5 -47t57.5 -132q0 -48 -19 -94t-55 -87t-86.5 -76.5t-113.5 -61.5q-78 -33 -172 -49.5t-214 -16.5q-29 -81 -45.5 -168.5t-16.5 -178.5
q0 -139 58.5 -200.5t184.5 -61.5q105 0 200 40.5t176 106.5t148 150.5t117 172.5l52 92l27 -19l-52 -92q-62 -109 -135.5 -201t-160 -158.5t-185 -104t-209.5 -37.5zM656 1164q-63 0 -128.5 -37t-126.5 -102.5t-114 -154.5t-92 -194q110 2 188 19.5t136 44.5
q46 21 89.5 54.5t77 76.5t54 93t20.5 104q0 27 -8 45t-22 29.5t-33 16.5t-41 5z" />
    <glyph glyph-name="f" unicode="f" 
d="M-76 1185h291l41 112q73 201 189 308t259 107q45 0 83 -11.5t65 -32.5t42.5 -49.5t15.5 -62.5q0 -48 -24 -74.5t-66 -26.5q-34 0 -53.5 19.5t-19.5 53.5q0 32 17 52t45 20q9 0 20 -4q2 -1 5 -2t5 -1q9 0 9 12q0 15 -12.5 26t-32 18.5t-43 11.5t-45.5 4q-48 0 -89 -20
t-78 -63.5t-72 -112t-70 -164.5l-44 -120h302v-40h-316l-608 -1672h-148l608 1672h-276v40z" />
    <glyph glyph-name="g" unicode="g" horiz-adv-x="1353" 
d="M83 -527q-97 0 -161.5 26t-102.5 82q-20 27 -30.5 57.5t-10.5 60.5q0 45 23.5 71t64.5 26q35 0 55 -19t20 -53q0 -32 -17 -52t-43 -20q-11 0 -17.5 3t-14.5 3q-5 0 -7 -2.5t-2 -10.5q0 -28 18 -51.5t50 -41t76 -27t95 -9.5q73 0 134 21t111.5 65.5t92 113t76.5 164.5
l190 526q-128 -213 -254 -319t-256 -106q-62 0 -105.5 22.5t-71.5 63t-41 95t-13 119.5q0 70 14 147.5t40 155.5q36 108 86 196.5t108.5 157.5t123 119t129 82.5t127 48.5t117.5 16q57 0 95.5 -16.5t61.5 -47.5t33 -75t10 -98l80 218h148l-472 -1297q-74 -203 -217 -309
t-343 -106zM209 31q54 0 110 28.5t111.5 78t107.5 116t98.5 142t85.5 155.5t67.5 157.5t44 148t15.5 126.5q0 51 -12.5 85.5t-33 56t-47 30.5t-54.5 9q-56 0 -124.5 -34.5t-139.5 -105t-139.5 -178t-125.5 -252.5q-47 -121 -70.5 -224t-23.5 -172q0 -78 31.5 -122.5
t98.5 -44.5z" />
    <glyph glyph-name="h" unicode="h" horiz-adv-x="1453" 
d="M406 1712h149l-349 -957q68 114 129.5 198.5t122.5 140t125 83t137 27.5q61 0 107.5 -20t78 -56.5t47.5 -87.5t16 -114q0 -45 -16.5 -106t-41.5 -130t-54 -141.5t-54 -140.5t-41.5 -126.5t-16.5 -99.5q0 -69 36.5 -110t113.5 -41q67 0 129.5 29t124 87.5t123.5 147
t129 206.5l52 92l27 -19l-52 -92q-73 -129 -139.5 -223.5t-133 -156t-135.5 -91.5t-147 -30q-61 0 -107.5 18.5t-78 52.5t-47.5 82t-16 107q0 43 16.5 103.5t41.5 130.5t54 143.5t54 141.5t41.5 126.5t16.5 97.5q0 78 -36.5 124t-113.5 46q-68 0 -131 -32t-129.5 -101.5
t-139 -179.5t-157.5 -267l-210 -574h-148z" />
    <glyph glyph-name="i" unicode="i" 
d="M216 1185h148l-255 -700q-14 -39 -28 -79.5t-24.5 -80t-17 -76t-6.5 -67.5q0 -69 36.5 -110t113.5 -41q67 0 129.5 29t124 87.5t123.5 147t129 206.5l52 92l27 -19l-52 -92q-73 -129 -139.5 -223.5t-133 -156t-135.5 -91.5t-147 -30q-61 0 -107.5 18.5t-78 52.5t-47.5 82
t-16 107q0 52 12.5 114t36.5 130zM296 1447q0 35 24.5 60t59.5 25t59.5 -24.5t24.5 -59.5q0 -17 -6.5 -32.5t-18 -26.5t-27 -17.5t-33.5 -6.5q-35 0 -59 23.5t-24 58.5z" />
    <glyph glyph-name="j" unicode="j" horiz-adv-x="601" 
d="M-525 -527q-80 0 -123 45.5t-43 132.5q0 51 24.5 79.5t67.5 28.5q35 0 55 -19t20 -52q0 -32 -16.5 -52.5t-42.5 -20.5q-11 0 -17.5 3t-15.5 3q-5 0 -7 -2.5t-2 -12.5q0 -43 24.5 -66.5t69.5 -23.5q39 0 73 20t66.5 63.5t64.5 112.5t68 168l474 1305h148l-471 -1297
q-74 -202 -182 -308.5t-235 -106.5zM296 1447q0 35 24.5 60t59.5 25t59.5 -24.5t24.5 -59.5q0 -17 -6.5 -32.5t-18 -26.5t-27 -17.5t-33.5 -6.5q-35 0 -59 23.5t-24 58.5z" />
    <glyph glyph-name="k" unicode="k" horiz-adv-x="1369" 
d="M206 755q78 133 143 223t125.5 144t121 77t129.5 23q114 0 174.5 -53t60.5 -153q0 -84 -41.5 -153t-119.5 -120q-25 -16 -54.5 -30t-67.5 -28t-86 -28.5t-110 -29.5v-4q123 -8 188.5 -55t65.5 -119q0 -32 -11 -66.5t-24.5 -70.5t-24.5 -72.5t-11 -71.5q0 -61 39 -99
t115 -38q61 0 121 28t121 85.5t124.5 146t132.5 210.5l52 92l27 -19l-52 -92q-82 -145 -152 -241.5t-137.5 -154t-135.5 -81.5t-146 -24q-46 0 -88 8.5t-74 28.5t-51 54t-19 85q0 40 10.5 81.5t23 81t23 76.5t10.5 69q0 62 -50 104t-155 45v5q105 29 188.5 72t140.5 94
q111 101 111 237q0 162 -150 162q-59 0 -115.5 -27.5t-120.5 -97t-140.5 -187.5t-175.5 -298l-210 -574h-148l623 1712h149z" />
    <glyph glyph-name="l" unicode="l" horiz-adv-x="740" 
d="M407 1712h149l-447 -1227q-14 -39 -28 -79.5t-24.5 -80t-17 -76t-6.5 -67.5q0 -69 36.5 -110t113.5 -41q67 0 129.5 29t124 87.5t123.5 147t129 206.5l52 92l27 -19l-52 -92q-73 -129 -139.5 -223.5t-133 -156t-135.5 -91.5t-147 -30q-61 0 -107.5 18.5t-78 52.5
t-47.5 82t-16 107q0 52 12 113.5t37 130.5z" />
    <glyph glyph-name="m" unicode="m" horiz-adv-x="2155" 
d="M215 1185h148l-157 -429q67 114 126.5 198t118 139.5t120 83t131.5 27.5q61 0 107.5 -20t78 -56t47.5 -87t16 -112q0 -38 -7 -82.5t-26 -108.5q67 116 127 203t119.5 145.5t122 88t133.5 29.5q62 0 109.5 -21t79 -56t47.5 -82.5t16 -99.5q0 -56 -16.5 -123t-41.5 -138
t-54 -143.5t-54 -139.5t-41.5 -125.5t-16.5 -102.5q0 -61 37.5 -101.5t117.5 -40.5q129 0 249.5 117t251.5 353l51 92l27 -19l-52 -92q-71 -126 -137 -220.5t-132 -156.5t-135 -93t-146 -31q-63 0 -110 19t-79 52t-48 76.5t-16 92.5q0 52 16.5 117t41.5 135t54 142.5t54 141
t41.5 130t16.5 109.5q0 33 -9 62t-28 50.5t-48 33.5t-69 12q-63 0 -121 -31.5t-116 -93.5t-118.5 -153t-127.5 -210l-50 -89l-210 -577h-148l215 593q26 73 46.5 131.5t34.5 106t21 86t7 71.5q0 75 -37.5 120.5t-116.5 45.5q-63 0 -120.5 -31t-115.5 -92t-118.5 -152.5
t-128.5 -212.5l-52 -92l-210 -574h-148z" />
    <glyph glyph-name="n" unicode="n" horiz-adv-x="1453" 
d="M215 1185h148l-157 -430q67 114 129 198.5t123.5 140t124.5 83t133 27.5q63 0 110 -20.5t79 -56t48 -82.5t16 -99q0 -57 -16.5 -124t-41.5 -138t-54 -143.5t-54 -139.5t-41.5 -125.5t-16.5 -102.5q0 -61 37.5 -101.5t117.5 -40.5q64 0 125.5 29.5t123 88t124 147
t128.5 205.5l52 92l27 -19l-52 -92q-72 -126 -138 -220.5t-132 -156.5t-134.5 -93t-145.5 -31q-63 0 -110.5 19t-79.5 52t-48 76.5t-16 92.5q0 52 16.5 116.5t41.5 135t54 143t54 141t41.5 130t16.5 109.5q0 34 -9 63t-28.5 50t-49 33t-70.5 12q-63 0 -123 -30.5
t-120.5 -91.5t-123 -152.5t-131.5 -213.5l-52 -92l-210 -574h-148z" />
    <glyph glyph-name="o" unicode="o" horiz-adv-x="1223" 
d="M-8 581q35 134 102.5 248t155 197.5t190 130.5t206.5 47q84 0 141.5 -28.5t92.5 -76.5t50 -111t15 -132q0 -75 -14.5 -150t-37.5 -143q-43 -126 -111 -232.5t-151.5 -184.5t-177.5 -121.5t-188 -43.5q-71 0 -127.5 25.5t-95.5 73.5t-60 117.5t-21 156.5q0 55 8 112.5
t23 114.5zM280 31q72 0 146.5 41t144 114.5t129.5 175.5t103 224q12 33 23.5 74t21.5 85.5t16 91t6 90.5q0 48 -9 91.5t-30.5 75.5t-58 51t-90.5 19q-78 0 -154.5 -41.5t-145 -117t-124.5 -180.5t-93 -232q-25 -85 -38.5 -170.5t-13.5 -155.5q0 -236 167 -236z" />
    <glyph glyph-name="p" unicode="p" horiz-adv-x="1237" 
d="M228 1218h148l-161 -441q128 214 254.5 320.5t257.5 106.5q61 0 105 -23t72 -63t41 -94.5t13 -117.5q0 -67 -13.5 -146.5t-39.5 -158.5q-51 -156 -132.5 -272t-178 -193.5t-199.5 -116t-197 -38.5q-51 0 -87.5 12t-59.5 38t-35 67t-13 98l-263 -723h-148zM693 1154
q-53 0 -109.5 -30.5t-112.5 -82.5t-109.5 -121t-101.5 -147t-88.5 -160t-69.5 -159.5t-45.5 -146.5t-16.5 -120q0 -35 8 -65.5t25.5 -53t44 -35t63.5 -12.5q48 0 115.5 26.5t142 91.5t150 175t139.5 277q22 57 39 113t29 107.5t18.5 96.5t6.5 80q0 77 -31 121.5t-97 44.5z
" />
    <glyph glyph-name="q" unicode="q" horiz-adv-x="1353" 
d="M683 407q-128 -214 -254.5 -320t-256.5 -106q-62 0 -105.5 22.5t-71.5 63t-41 95t-13 119.5q0 70 14 147.5t40 155.5q36 108 86 196.5t108.5 157.5t123 119t129 82.5t127 48.5t117.5 16q57 0 95 -17.5t61.5 -49t33.5 -76t10 -98.5l81 222h148l-623 -1712h-149zM209 31
q54 0 110 28.5t111.5 78t107.5 116t98.5 142t85.5 155.5t67.5 157.5t44 148t15.5 126.5q0 51 -12.5 85.5t-33 56t-47 30.5t-54.5 9q-56 0 -124.5 -34.5t-139.5 -105t-139.5 -178t-125.5 -252.5q-47 -121 -70.5 -224t-23.5 -172q0 -78 31.5 -122.5t98.5 -44.5z" />
    <glyph glyph-name="r" unicode="r" horiz-adv-x="931" 
d="M747 1114q0 16 -20.5 32.5t-59.5 16.5q-40 0 -87 -24.5t-107 -86.5t-134.5 -169t-168.5 -273l-50 -88l-189 -522h-149l432 1185h148l-175 -480q82 141 150 236.5t126 154t109 83.5t100 25q66 0 103.5 -39t37.5 -102q0 -26 -6.5 -49.5t-19 -40.5t-30.5 -27t-40 -10
q-16 0 -31.5 5t-27.5 15.5t-19.5 25.5t-7.5 35q0 16 5.5 32.5t15.5 29t24 20.5t31 8q11 0 21 -2q2 -2 5.5 -3.5t5.5 -1.5q8 0 8 14z" />
    <glyph glyph-name="s" unicode="s" horiz-adv-x="1026" 
d="M-133 271q0 51 11 101.5t30 94.5t44 78.5t53 54.5l422 614q11 81 38 130t65 49q30 0 50 -16t20 -39q0 -17 -8 -30t-28 -30q-23 -19 -38.5 -36t-25.5 -34t-14 -36t-4 -41t3.5 -46t12.5 -61t25.5 -92t42.5 -139t38.5 -160t12.5 -148q0 -275 -199 -417q-59 -42 -127.5 -64.5
t-138.5 -22.5q-66 0 -119 20.5t-89.5 58t-56.5 91t-20 120.5zM421 1142l-357 -521q32 0 51 -21t19 -56q0 -18 -5 -34.5t-14 -28.5t-21 -19.5t-25 -7.5q-17 0 -29 7t-30 7q-21 0 -39.5 -14.5t-32 -40.5t-21 -61.5t-7.5 -77.5q0 -56 15.5 -101t45 -76.5t71 -48.5t94.5 -17
q70 0 130 30t105 87q108 138 108 416q0 34 -1.5 67.5t-5 70t-9.5 78.5t-14 95q-14 89 -21 149t-7 97v21z" />
    <glyph glyph-name="t" unicode="t" horiz-adv-x="786" 
d="M-79 1185h292l95 262h148l-95 -262h300v-40h-315l-240 -660q-14 -39 -27.5 -80t-24 -80.5t-17 -76t-6.5 -66.5q0 -69 37.5 -110t113.5 -41q74 0 144 28t138 86t135 146.5t135 209.5l52 92l27 -19l-52 -92q-79 -140 -153 -235.5t-146.5 -154.5t-147 -85t-154.5 -26
q-61 0 -108 18.5t-78.5 52.5t-48 82t-16.5 107q0 52 12 114t37 130l240 660h-277v40z" />
    <glyph glyph-name="u" unicode="u" horiz-adv-x="1480" 
d="M215 1185h148l-255 -700q-14 -39 -28 -79.5t-24.5 -80t-17 -76t-6.5 -67.5q0 -69 37 -110t113 -41q67 0 130 29t124.5 87.5t123.5 146.5t128 207l49 88l218 596h148l-255 -700q-14 -39 -28 -79.5t-24.5 -80t-17 -76t-6.5 -67.5q0 -69 36.5 -110t113.5 -41q67 0 129.5 29
t124 87.5t123.5 147t129 206.5l52 92l26 -19l-51 -92q-72 -130 -138.5 -224.5t-133 -156t-136 -91t-147.5 -29.5q-61 0 -107.5 18.5t-78 52.5t-47.5 82t-16 107q0 39 7 84.5t21 93.5q-67 -113 -129 -195.5t-124 -136.5t-127.5 -80t-138.5 -26q-61 0 -107.5 18.5t-78 52.5
t-47.5 82t-16 107q0 52 12.5 114t36.5 130z" />
    <glyph glyph-name="v" unicode="v" horiz-adv-x="1122" 
d="M108 485q-39 -108 -57.5 -181t-18.5 -122q0 -72 38 -111.5t111 -39.5q68 0 139 35.5t138 98.5t125 148.5t101 184.5q40 93 61.5 191.5t21.5 203.5q0 76 -9.5 121.5t-21.5 72.5t-21.5 41.5t-9.5 28.5q0 18 15.5 32t35.5 14q22 0 37.5 -18t25.5 -49t15 -73t5 -89
q0 -68 -9.5 -135t-25 -130t-36.5 -121t-44 -109q-50 -109 -115 -200.5t-139.5 -157.5t-154.5 -103t-161 -37q-57 0 -102 18.5t-76.5 52.5t-48 82t-16.5 107q0 51 12.5 113.5t36.5 130.5l254 700h148z" />
    <glyph glyph-name="w" unicode="w" horiz-adv-x="1727" 
d="M770 485q-39 -108 -57.5 -181t-18.5 -122q0 -72 33.5 -111.5t96.5 -39.5t129 35.5t128 98t116 148t94 185.5q37 94 59.5 192t22.5 203q0 76 -9.5 121.5t-21.5 72.5t-21.5 41.5t-9.5 28.5q0 18 15.5 32t35.5 14q22 0 37.5 -18t25.5 -49t15 -73t5 -89q0 -68 -9.5 -134.5
t-25.5 -129.5t-37 -121.5t-43 -109.5q-47 -109 -107.5 -200.5t-130 -157.5t-144.5 -103t-151 -37q-53 0 -94.5 18.5t-70.5 52.5t-44 82t-15 107q0 14 1 30t3 33q-46 -74 -98.5 -133.5t-109 -101.5t-116 -65t-118.5 -23q-53 0 -94.5 18.5t-70.5 52.5t-44 82t-15 107
q0 51 12.5 113.5t36.5 130.5l254 700h148l-254 -700q-39 -108 -57.5 -181t-18.5 -122q0 -72 33.5 -111.5t96.5 -39.5q61 0 128 36t129.5 97.5t115.5 144.5t87 176l253 700h148z" />
    <glyph glyph-name="x" unicode="x" horiz-adv-x="1555" 
d="M899 -19q-80 0 -135 21.5t-90 62t-53 98.5t-24 130q-37 -66 -78.5 -123t-90 -99t-105 -66t-122.5 -24q-41 0 -76.5 11t-62 31.5t-41.5 49.5t-15 65q0 47 25 74.5t67 27.5q35 0 53 -19t18 -51q0 -34 -18 -54.5t-44 -20.5q-11 0 -18 3.5t-13 3.5q-10 0 -10 -13
q0 -14 10 -26.5t26 -22t36.5 -15t41.5 -5.5q61 0 120 38.5t111 104.5t96 152.5t75.5 183.5t49.5 197.5t18 193.5q0 61 -8 111.5t-25 87t-43.5 56.5t-64.5 20q-50 0 -99.5 -35.5t-102.5 -102t-112 -162.5t-128 -217l-53 -93l-26 18l53 94q70 125 128.5 224.5t115 169
t115.5 106.5t131 37q52 0 91.5 -21.5t66 -68t40.5 -120t15 -176.5q47 88 100 159t109.5 121.5t117 78t122.5 27.5q37 0 73 -10.5t63.5 -30.5t44.5 -49.5t17 -66.5q0 -47 -25.5 -74.5t-67.5 -27.5q-34 0 -52.5 19t-18.5 51q0 33 18 54t44 21q11 0 17.5 -3.5t14.5 -3.5
q7 0 8 3.5t1 10.5q0 13 -10 25.5t-26.5 22t-37 15t-42.5 5.5q-58 0 -116.5 -38t-112 -103t-100.5 -151t-81.5 -182.5t-54.5 -198t-20 -196.5q0 -59 10 -107.5t34 -83.5t63 -54.5t97 -19.5q66 0 134 25t138.5 81t144 145.5t150.5 218.5l55 92l25 -19l-54 -92
q-86 -143 -161.5 -239.5t-150 -154.5t-151.5 -82.5t-164 -24.5z" />
    <glyph glyph-name="y" unicode="y" horiz-adv-x="1342" 
d="M215 1185h148l-255 -700q-14 -39 -28 -79.5t-24.5 -80t-17 -76t-6.5 -67.5q0 -69 37 -110t113 -41q67 0 129 29.5t123 88t123.5 146.5t130.5 206l53 91l215 593h149l-472 -1297q-73 -202 -216.5 -308.5t-343.5 -106.5q-97 0 -161.5 26t-103.5 82q-20 27 -30 57.5
t-10 60.5q0 45 23.5 71t64.5 26q35 0 55 -19t20 -53q0 -32 -17 -52t-43 -20q-11 0 -17.5 3t-14.5 3q-6 0 -7.5 -2.5t-1.5 -10.5q0 -28 18 -51.5t50 -41t75.5 -27t95.5 -9.5q73 0 134 21t111.5 65.5t91.5 113.5t76 164l196 538q-66 -112 -128 -194.5t-124.5 -136.5
t-127.5 -80t-138 -26q-61 0 -107.5 18.5t-78 52.5t-47.5 82t-16 107q0 52 12.5 114t36.5 130z" />
    <glyph glyph-name="z" unicode="z" horiz-adv-x="1398" 
d="M1216 1157l-937 -972q21 9 46 14.5t54 5.5q45 0 94.5 -10t100 -25t99 -32t92 -32t79.5 -25t61 -10q24 0 45.5 3t42.5 10.5t41.5 21t42.5 33.5q60 57 125.5 146.5t140.5 215.5l55 92l26 -19l-55 -92q-79 -133 -144 -226t-128 -153q-39 -37 -76.5 -61t-76.5 -37.5
t-82 -18.5t-94 -5q-38 0 -81 9.5t-87.5 24t-89.5 31.5t-89 31.5t-85.5 24t-78.5 9.5q-26 0 -42.5 -7.5t-33 -23.5t-39 -40.5t-60.5 -58.5l-23 38l1008 1053q-64 -41 -125.5 -65t-123.5 -24q-37 0 -75 9.5t-76 24t-73.5 31.5t-66 31.5t-55.5 24t-41 9.5q-25 0 -62 -31.5
t-83.5 -91t-102 -146.5t-117.5 -198l-53 -93l-26 18l53 94q81 145 145 247.5t120 168t109.5 96t114.5 30.5q56 0 107 -20.5t100.5 -44.5t99 -44.5t103.5 -20.5q52 0 113 26t137 94z" />
    <glyph glyph-name="braceleft" unicode="{" horiz-adv-x="944" 
d="M270 837q50 20 86 66t63.5 108t48 134.5t39.5 145t39 140t45.5 119.5t58.5 83.5t79 31.5q12 0 30.5 -2t41.5 -9.5t49 -21.5t53 -37l-23 -15q-19 12 -34 21.5t-29.5 16t-30 10t-33.5 3.5q-32 0 -52 -28.5t-35 -77t-27.5 -112t-28 -132.5t-37 -140t-54.5 -134t-80.5 -114
t-114.5 -80l-15 -7l8 -16q17 -39 24.5 -79.5t7.5 -80.5q0 -68 -18 -137t-45.5 -134.5t-59 -127t-59 -115t-45.5 -98.5t-18 -78q0 -28 14.5 -45t36.5 -27t49 -14.5t53 -7.5l9 -27q-53 5 -94.5 12.5t-70 24t-44 43.5t-15.5 71q0 43 17.5 96t44.5 112t57.5 122.5t57.5 128
t44.5 128.5t17.5 124q0 33 -6 64t-20 60l-11 22z" />
    <glyph glyph-name="bar" unicode="|" horiz-adv-x="463" 
d="M185 1582h93v-1620h-93v1620z" />
    <glyph glyph-name="braceright" unicode="}" horiz-adv-x="944" 
d="M674 647q-52 -20 -89.5 -66.5t-65.5 -108.5t-48.5 -134.5t-39 -145t-37 -140t-43 -119.5t-57 -83t-78.5 -31q-13 0 -31.5 2t-41 9.5t-48.5 21.5t-53 37l22 16q19 -13 34.5 -22.5t30 -16t30 -10t33.5 -3.5q31 0 51.5 28.5t35.5 77t27 112t27.5 132.5t37 140t54.5 134
t80 114t115 80l15 7l-7 16q-17 39 -25 79.5t-8 81.5q0 68 18 136.5t45.5 134t59.5 127t59.5 115t45.5 98.5t18 78q0 28 -14.5 45t-37 27t-49.5 14.5t-53 7.5l-8 27q52 -5 93.5 -12.5t70.5 -24t44.5 -43.5t15.5 -71t-17.5 -96.5t-44.5 -111.5t-57.5 -122.5t-57.5 -127.5
t-44.5 -128t-17.5 -124q0 -34 6 -65t20 -60l10 -22z" />
    <glyph glyph-name="asciitilde" unicode="~" horiz-adv-x="1055" 
d="M268 753q43 0 91 -16t98 -40t100 -52.5t97 -52.5t90 -40t78 -16q46 0 79.5 25t57 60t38 71.5t22.5 60.5h44q-19 -58 -41 -115.5t-54.5 -103t-78.5 -74t-112 -28.5q-42 0 -88 16t-93.5 39.5t-95 51.5t-92.5 51.5t-86.5 39.5t-77.5 16q-54 0 -87 -20.5t-54.5 -52t-34.5 -69
t-26 -71.5h-44q21 55 42.5 112t50.5 103.5t71.5 75.5t105.5 29z" />
    <glyph glyph-name="uni007F" 
 />
    <glyph glyph-name="uni00A0" unicode="&#xa0;" 
 />
    <glyph glyph-name="exclamdown" unicode="&#xa1;" horiz-adv-x="939" 
d="M-34 -483l507 1332l94 -27l-434 -1347zM700 1104q0 -36 -24 -61t-59 -25t-60 25t-25 60t25 59t61 24q35 0 58.5 -23.5t23.5 -58.5z" />
    <glyph glyph-name="cent" unicode="&#xa2;" horiz-adv-x="1165" 
d="M777 119q-71 -70 -150 -104t-181 -34q-31 0 -56 3l-85 -235h-117l94 259q-99 38 -150 126t-51 222q0 54 8 111t23 115q34 129 96 239.5t142.5 193t174.5 132t192 56.5l110 302h116l-113 -312q24 -7 44 -18.5t36 -26.5q46 -46 46 -107q0 -44 -24 -70t-65 -26
q-35 0 -54.5 19.5t-19.5 53.5q0 32 17 52t45 20q11 0 20 -4q5 -2 7 -2.5t4 -0.5q8 0 8 13t-10 25.5t-26.5 22t-39 15t-46.5 5.5q-62 0 -125.5 -36t-123 -98.5t-112 -146.5t-91.5 -179.5t-61.5 -197.5t-22.5 -200q0 -144 54.5 -209.5t174.5 -65.5q93 0 165 33t137 97z" />
    <glyph glyph-name="sterling" unicode="&#xa3;" horiz-adv-x="1700" 
d="M529 708h340q57 139 104.5 255.5t92.5 212t92 171t105 131.5q69 67 143.5 99t145.5 32q42 0 69.5 -11t44 -30t23 -44.5t6.5 -54.5q0 -51 -17.5 -112.5t-52 -127.5t-85 -133.5t-116.5 -129.5l-25 31q58 58 105.5 121.5t81 125.5t51.5 119t18 104q0 20 -4 39t-14 33.5
t-27.5 23t-44.5 8.5q-57 0 -115.5 -39t-112.5 -113q-42 -57 -77 -129.5t-70.5 -161.5t-73.5 -194t-85 -226h359l-36 -92h-361q-80 -181 -162 -306t-175 -204q48 -14 106.5 -28.5t122 -26.5t130 -20t130.5 -8q116 0 202 29.5t158 89.5h51q-59 -62 -116 -103t-113 -65
t-112 -34t-113 -10q-62 0 -126.5 10t-131.5 26.5t-135 37.5l-136 42q-74 -44 -154.5 -64.5t-172.5 -20.5q-62 0 -102 8.5t-62.5 22.5t-31 32t-8.5 36q0 36 23.5 57.5t59 33t77.5 15.5t80 4q84 0 157 -11.5t136 -28.5q30 34 59.5 80.5t60.5 106t64.5 134t71.5 165.5h-338z
M248 -3q82 0 144.5 15t115.5 55q-33 10 -69.5 20.5t-75.5 19t-78.5 14t-77.5 5.5q-58 0 -92 -15.5t-34 -50.5q0 -13 6.5 -24.5t25 -20t51 -13.5t84.5 -5z" />
    <glyph glyph-name="currency" unicode="&#xa4;" horiz-adv-x="934" 
d="M472 1168q72 0 136.5 -22.5t116.5 -63.5l168 171l65 -66l-166 -169q44 -54 68.5 -119t24.5 -138q0 -75 -24 -140.5t-68 -118.5l163 -166l-65 -66l-164 167q-54 -42 -120.5 -64.5t-141.5 -22.5q-71 0 -134 22.5t-114 64.5l-164 -167l-66 66l164 167q-43 53 -67 119
t-24 139t24 138.5t69 118.5l-166 169l66 66l166 -171q53 41 117 63.5t136 22.5zM472 1077q-66 0 -123.5 -24.5t-99.5 -67.5t-66 -100.5t-24 -123.5q0 -68 24 -126t65.5 -101t98 -67.5t121.5 -24.5q68 0 126.5 24.5t101 67t66.5 101t24 126.5q0 66 -24.5 123.5t-67 100.5
t-99.5 67.5t-123 24.5z" />
    <glyph glyph-name="yen" unicode="&#xa5;" horiz-adv-x="1872" 
d="M1621 1536l-293 -802h302l-32 -92h-304q-32 -91 -57 -157t-48 -124h305l-32 -93h-313q-88 -201 -181.5 -350t-197.5 -247.5t-220 -147.5t-249 -49q-120 0 -184.5 57.5t-64.5 164.5q0 72 45.5 126.5t145 95.5t257 69.5t381.5 49.5q20 41 41 88.5t47 108.5t58 140t73 183
q-46 -70 -95 -128.5t-101.5 -100.5t-109 -65.5t-116.5 -23.5q-73 0 -133 29h-503l32 93h371q-21 35 -30 75t-9 82q0 31 4 62.5t9 61.5h-241l32 92h234q29 91 71.5 181.5t81.5 179.5t67 176t28 173q0 25 -4.5 48.5t-14.5 40.5t-27 27.5t-42 10.5q-44 0 -92.5 -29.5t-99.5 -90
t-103.5 -152t-103.5 -215.5l-27 19q55 136 111.5 232t113.5 157t114.5 89t114.5 28q50 0 91 -14.5t69.5 -42t44 -66t15.5 -86.5q0 -74 -23 -153.5t-57 -161.5t-74.5 -165t-74.5 -163.5t-57 -156.5t-23 -144q0 -38 10.5 -69t29 -53t44 -34t54.5 -12q81 0 154.5 48t141 129.5
t130 189.5t121.5 229l244 651zM307 -477q84 0 155.5 21t137.5 75t130 146.5t135 236.5q-159 -15 -298.5 -37.5t-242.5 -58t-162.5 -86.5t-59.5 -123q0 -88 54.5 -131t150.5 -43z" />
    <glyph glyph-name="brokenbar" unicode="&#xa6;" horiz-adv-x="463" 
d="M185 872v710h93v-710h-93zM185 -40v710h93v-710h-93z" />
    <glyph glyph-name="section" unicode="&#xa7;" horiz-adv-x="2018" 
d="M650 -87h-13t-12 1q-73 -128 -169 -194t-208 -66q-45 0 -83 11.5t-65 32t-42.5 49t-15.5 62.5q0 48 24 74.5t65 26.5q35 0 54.5 -19.5t19.5 -52.5t-17 -52.5t-45 -19.5q-8 0 -15.5 3t-14.5 3q-9 0 -9 -11q0 -15 12.5 -26.5t32 -19t43 -11t45.5 -3.5q46 0 87 20t78.5 63.5
t72.5 111.5t70 164l178 491q69 189 137 325t144.5 223.5t165.5 128.5t198 41h13t12 -1q73 128 169 194.5t208 66.5q45 0 83 -11.5t65.5 -32.5t43 -49.5t15.5 -62.5q0 -48 -24 -74.5t-66 -26.5q-34 0 -53.5 19.5t-19.5 52.5t17 53t45 20q7 0 14.5 -3.5t14.5 -3.5q10 0 10 11
q0 15 -12.5 26t-32 18.5t-43.5 11.5t-46 4q-47 0 -88 -20t-78.5 -63t-72 -111.5t-69.5 -164.5l-178 -491q-69 -189 -137 -325t-144.5 -223.5t-165.5 -128.5t-198 -41zM1090 481q61 168 104.5 285.5t73 197t47 126.5t28 73t15.5 37.5t9 19.5q-77 0 -133.5 -21.5t-105 -79
t-95 -158.5t-104.5 -259q-62 -168 -105.5 -285.5t-73 -197t-47 -126.5t-28 -73.5t-15.5 -38t-9 -19.5q51 0 93 9t77.5 31.5t67.5 60.5t64 95.5t65 137t72 185.5z" />
    <glyph glyph-name="dieresis" unicode="&#xa8;" horiz-adv-x="740" 
d="M148 1447q0 35 21.5 60t52.5 25q32 0 53.5 -24.5t21.5 -59.5t-22 -59t-54 -24q-30 0 -51.5 23.5t-21.5 58.5zM463 1447q0 35 21.5 60t52.5 25q32 0 53.5 -24.5t21.5 -59.5t-22 -59t-54 -24q-31 0 -52 23.5t-21 58.5z" />
    <glyph glyph-name="copyright" unicode="&#xa9;" horiz-adv-x="1108" 
d="M554 1269q106 0 199.5 -39.5t163 -108t110 -160.5t40.5 -197q0 -107 -40.5 -200t-111 -162t-166 -108.5t-205.5 -39.5q-103 0 -194 40.5t-159.5 110t-108.5 162t-40 197.5t40 197t109.5 160.5t162.5 108t200 39.5zM554 1200q-92 0 -170.5 -34t-137 -93t-91.5 -138.5
t-33 -170.5q0 -93 33 -173.5t90.5 -140t135 -93.5t166.5 -34q94 0 174.5 33.5t139 93t92 140t33.5 174.5q0 91 -33.5 170.5t-91.5 138.5t-137 93t-170 34zM732 912q-14 10 -34.5 19t-44.5 16t-49.5 11t-49.5 4q-48 0 -81 -15t-53.5 -40.5t-29.5 -60t-9 -73.5q0 -43 11 -81
t33.5 -66t56 -44t78.5 -16q49 0 99.5 19.5t83.5 52.5l14 -95q-16 -11 -39 -22t-51 -19.5t-59 -14t-64 -5.5q-68 0 -118 22.5t-83 61.5t-49 90.5t-16 109.5q0 57 15.5 107.5t48.5 89t85.5 60.5t126.5 22q56 0 110.5 -12.5t88.5 -34.5z" />
    <glyph glyph-name="ordfeminine" unicode="&#xaa;" horiz-adv-x="742" 
d="M618 598q-94 2 -139.5 41.5t-45.5 103.5q0 20 3 44q-57 -92 -120 -140.5t-122 -48.5q-36 0 -64 13.5t-47.5 37t-30 55.5t-10.5 70q0 68 15 131.5t42.5 119.5t65.5 102.5t83 80t95.5 52t104.5 18.5q22 0 42.5 -5t37 -16.5t28 -30.5t14.5 -46l32 85h98l-140 -387
q-15 -43 -28.5 -88t-13.5 -77q0 -82 104 -85zM473 938q20 45 31.5 78t17.5 58.5t8 44t2 33.5q0 30 -7.5 47.5t-19 26.5t-24.5 12t-24 3q-30 0 -65.5 -19t-71.5 -52.5t-70 -80t-60 -101t-42 -116t-16 -124.5q0 -20 6.5 -37.5t17.5 -31t25.5 -21.5t31.5 -8q25 0 56 15t64.5 49
t69 89t70.5 135z" />
    <glyph glyph-name="guillemotleft" unicode="&#xab;" horiz-adv-x="1341" 
d="M501 186l-459 467l803 490l-34 -96l-667 -408l381 -385zM955 158l-460 467l804 490l-34 -96l-668 -408l382 -385z" />
    <glyph glyph-name="logicalnot" unicode="&#xac;" horiz-adv-x="1268" 
d="M1083 844v-340h-132v248h-766v92h898z" />
    <glyph glyph-name="uni00AD" unicode="&#xad;" horiz-adv-x="759" 
d="M78 687h640l-37 -93h-639z" />
    <glyph glyph-name="registered" unicode="&#xae;" horiz-adv-x="1114" 
d="M556 1271q107 0 201 -40t164 -109.5t110.5 -162t40.5 -197.5q0 -108 -40.5 -201.5t-111.5 -163t-167 -109t-206 -39.5q-104 0 -196 40.5t-160.5 110.5t-108.5 163.5t-40 198.5t40 197.5t109.5 162t163.5 109.5t201 40zM556 1201q-92 0 -171.5 -34.5t-138 -93.5
t-92 -139.5t-33.5 -171.5q0 -93 33.5 -174t91.5 -141t136 -94t167 -34q95 0 176.5 34t141 93t93 140t33.5 176q0 91 -34 171.5t-93 139.5t-139 93.5t-171 34.5zM387 1060q15 1 33 1.5t37.5 1t38.5 0.5h35q46 0 85 -7t66.5 -25t43 -48.5t15.5 -76.5q0 -53 -35.5 -94.5
t-98.5 -58.5l171 -250h-93l-167 245h-50v-245h-81v557zM534 1000q-18 0 -34 -1t-32 -1v-189q16 -1 32 -1h35q57 0 89 26.5t32 78.5q0 38 -27.5 62.5t-94.5 24.5z" />
    <glyph glyph-name="macron" unicode="&#xaf;" horiz-adv-x="805" 
d="M78 1492h677l-27 -68h-677z" />
    <glyph glyph-name="degree" unicode="&#xb0;" horiz-adv-x="670" 
d="M129 1406q0 51 19 96t52 78t77 52.5t94 19.5q51 0 95.5 -19.5t77.5 -52.5t52 -77.5t19 -94.5t-19 -94t-52.5 -77t-78.5 -52t-96 -19q-50 0 -94 18.5t-76.5 51t-51 76.5t-18.5 94zM204 1406q0 -35 13 -65t35 -52t52 -35t65 -13t66 13t53.5 36t35.5 53t13 65q0 34 -13 64.5
t-35.5 53t-53 35.5t-64.5 13q-35 0 -65 -13t-53 -35.5t-36 -53.5t-13 -66z" />
    <glyph glyph-name="plusminus" unicode="&#xb1;" horiz-adv-x="816" 
d="M42 687h319v319h93v-319h320v-93h-320v-320h-93v320h-319v93zM42 94h732v-92h-732v92z" />
    <glyph glyph-name="twosuperior" unicode="&#xb2;" horiz-adv-x="876" 
d="M693 463h-629l42 117q15 41 47 78t75 72.5t92 70.5t98.5 71t95 75t80.5 82.5t56 92.5t21 105q0 28 -7 56.5t-25.5 51t-52 36.5t-86.5 14q-60 0 -107.5 -19.5t-81.5 -53t-53 -79.5t-22 -98h-46q4 50 22.5 101.5t57.5 93.5t101.5 68.5t154.5 26.5q70 0 121.5 -16t86 -43.5
t51.5 -65.5t17 -82q0 -55 -25 -103.5t-66 -92t-94.5 -82.5t-110 -75.5t-113 -70t-103.5 -67t-81 -66.5t-46 -68h576z" />
    <glyph glyph-name="threesuperior" unicode="&#xb3;" horiz-adv-x="849" 
d="M175 800q-43 -76 -43 -143q0 -66 44.5 -108.5t134.5 -42.5q65 0 115.5 23t85 60.5t52 84.5t17.5 94q0 33 -9.5 65t-28 59.5t-47.5 48.5t-68 33l9 25q50 4 88.5 24.5t64.5 51t39.5 67.5t13.5 75q0 33 -10 63.5t-30 53.5t-49.5 37t-68.5 14q-25 0 -61 -7.5t-69.5 -27
t-57 -53.5t-23.5 -86h-47q0 54 23.5 94t62 67t87.5 40t100 13q60 0 109 -16.5t84 -44.5t54.5 -65t19.5 -77q0 -33 -14 -66t-43 -64t-74 -58t-106 -46q34 -10 66.5 -26.5t58.5 -43t42 -63.5t16 -87q0 -66 -28 -121.5t-77.5 -96.5t-118.5 -64t-150 -23q-65 0 -112.5 14.5
t-78 40t-45 60t-14.5 75.5q0 35 11 72.5t31 75.5z" />
    <glyph glyph-name="acute" unicode="&#xb4;" horiz-adv-x="378" 
d="M22 1365q32 14 71 50t75 84q30 40 47.5 74t31 59t27 38.5t34.5 13.5q25 0 36.5 -16.5t11.5 -39.5q0 -29 -16.5 -60t-42.5 -60.5t-59.5 -56.5t-67.5 -49t-65.5 -38.5t-53.5 -23.5z" />
    <glyph glyph-name="mu" unicode="&#xb5;" horiz-adv-x="1480" 
d="M-383 -458l599 1643h148l-255 -700q-14 -39 -28 -79.5t-24.5 -80t-17 -76t-6.5 -67.5q0 -69 36.5 -110t113.5 -41q67 0 129.5 29t124 87.5t123.5 147t129 206.5l49 88l217 596h149l-255 -700q-14 -39 -28 -79.5t-24.5 -80t-17 -76t-6.5 -67.5q0 -69 36.5 -110t113.5 -41
q67 0 129.5 29t124 87.5t123.5 147t129 206.5l51 92l27 -19l-52 -92q-73 -129 -139.5 -223.5t-132.5 -156t-135 -91.5t-147 -30q-61 0 -107.5 18.5t-78 52.5t-47.5 82t-16 107q0 39 7 84.5t21 93.5q-67 -113 -129 -195.5t-124 -136.5t-127.5 -80t-138.5 -26q-70 0 -120.5 24
t-82.5 68l-193 -531h-148z" />
    <glyph glyph-name="paragraph" unicode="&#xb6;" horiz-adv-x="2121" 
d="M89 -75q0 -65 21.5 -107.5t57 -68t81.5 -36t96 -10.5q74 0 129 21.5t102.5 79t94 158.5t105.5 259l142 385q-62 2 -124 30t-111.5 77t-80 115.5t-30.5 146.5q0 107 30 193.5t81.5 153.5t121 115t148.5 79t163 45.5t166 14.5q111 0 211.5 -9.5t178.5 -16.5q94 62 201 62
q45 0 83 -11.5t65 -32.5t42.5 -49.5t15.5 -62.5q0 -48 -24 -74.5t-65 -26.5q-35 0 -54 19.5t-19 53.5q0 32 17 52t45 20q7 0 14.5 -3.5t14.5 -3.5q9 0 9 12q0 15 -12.5 26t-32 18.5t-43 11.5t-45.5 4q-48 0 -89 -20t-78 -63.5t-72 -112t-69 -164.5l-265 -731
q-69 -189 -137.5 -325t-145 -223.5t-165 -128.5t-197.5 -41h-34q-65 -53 -137.5 -77.5t-158.5 -24.5q-54 0 -107 14.5t-94.5 47.5t-67 85.5t-25.5 127.5q0 51 12 96t32 79t46.5 54t55.5 20q25 0 40.5 -14.5t15.5 -39.5q0 -20 -9.5 -34t-24 -23.5t-32 -16.5t-33.5 -12
q-31 -11 -43.5 -39.5t-12.5 -73.5zM984 371q-71 -200 -144.5 -340t-155.5 -226q47 1 86.5 10.5t73.5 32.5t65 61.5t62 95.5t63.5 135.5t70.5 182.5l320 874q36 100 82.5 175.5t103.5 129.5q-71 0 -122 -20.5t-91 -66t-74 -118.5t-71 -177z" />
    <glyph glyph-name="periodcentered" unicode="&#xb7;" horiz-adv-x="740" 
d="M287 594q0 19 7.5 36.5t20 30.5t29.5 20.5t36 7.5t36 -7.5t29.5 -20.5t20 -30t7.5 -36t-7.5 -36t-20 -29.5t-30 -19.5t-36.5 -7t-36 7t-29.5 19.5t-19.5 29t-7 35.5z" />
    <glyph glyph-name="cedilla" unicode="&#xb8;" horiz-adv-x="488" 
d="M49 -351q42 -35 89 -55.5t87 -20.5q26 0 48.5 9.5t39 27t26 40.5t9.5 50q0 59 -45.5 92t-125.5 33h-22t-11 -1l83 188h58l-76 -168h22q102 0 157 -36t55 -104q0 -35 -15.5 -65t-42.5 -52t-64 -34t-80 -12q-57 0 -108 21.5t-100 68.5z" />
    <glyph glyph-name="onesuperior" unicode="&#xb9;" horiz-adv-x="673" 
d="M115 463l283 783q-71 -59 -155 -86t-166 -36l-3 34q57 7 115 23.5t112.5 47.5t103.5 78.5t89 117.5h105l-354 -962h-130z" />
    <glyph glyph-name="ordmasculine" unicode="&#xba;" horiz-adv-x="680" 
d="M248 604q-54 0 -92.5 18t-64 48.5t-37.5 72t-12 88.5q0 49 12.5 102t36 103t57 94.5t76.5 78t94.5 53t109.5 19.5q55 0 95 -17t65.5 -46.5t37.5 -69.5t12 -85q0 -50 -13.5 -103t-38 -104t-59.5 -97t-78.5 -80.5t-94 -54.5t-106.5 -20zM265 656q39 0 77 20t72 54t62.5 78
t49.5 92.5t33 97.5t12 92q0 31 -7 58.5t-21.5 47t-38 31t-56.5 11.5q-38 0 -75.5 -18.5t-71.5 -50.5t-62.5 -75t-50 -92t-33.5 -101t-12 -103q0 -62 31 -102t91 -40z" />
    <glyph glyph-name="guillemotright" unicode="&#xbb;" horiz-adv-x="1341" 
d="M840 1115l459 -467l-804 -490l35 96l667 408l-381 385zM386 1147l459 -466l-803 -490l34 95l667 408l-381 386z" />
    <glyph glyph-name="onequarter" unicode="&#xbc;" horiz-adv-x="2115" 
d="M1392 1570h117l-1148 -1756h-117zM145 463l284 783q-36 -30 -75 -51t-80.5 -35t-83.5 -23t-83 -13l-2 34q57 7 114.5 23.5t112 47.5t104 78.5t89.5 117.5h105l-354 -962h-131zM1153 281l671 681h117l-249 -681h133v-46h-149l-85 -235h-135l86 235h-380zM1558 281l201 554
l-552 -554h351z" />
    <glyph glyph-name="onehalf" unicode="&#xbd;" horiz-adv-x="2115" 
d="M1383 1570h117l-1148 -1756h-117zM145 463l284 783q-36 -30 -75 -51t-80.5 -35t-83.5 -23t-83 -13l-2 34q57 7 114.5 23.5t112 47.5t104 78.5t89.5 117.5h105l-354 -962h-131zM1810 0h-630l43 117q15 41 47 78t75 72.5t92 70.5t98.5 71t95 75t80.5 82.5t56 92.5t21 105
q0 28 -7 56.5t-26 51t-52.5 36.5t-85.5 14q-61 0 -108.5 -19.5t-81 -53t-52.5 -79.5t-22 -98h-47q4 50 22.5 101.5t57.5 93.5t101.5 68.5t154.5 26.5q70 0 122 -16t86 -43.5t51 -65.5t17 -81q0 -55 -25 -104t-66 -92.5t-94.5 -82.5t-110 -75t-113 -70t-103.5 -67.5
t-80.5 -66.5t-45.5 -68h575z" />
    <glyph glyph-name="threequarters" unicode="&#xbe;" horiz-adv-x="2115" 
d="M1593 1570h117l-1148 -1756h-117zM206 800q-43 -76 -43 -143q0 -66 44.5 -108.5t134.5 -42.5q65 0 115.5 23t85 60.5t52 84.5t17.5 94q0 33 -9.5 65t-28.5 59.5t-48 48.5t-68 33l10 25q50 4 88.5 24.5t64.5 51t39.5 67.5t13.5 75q0 33 -10.5 63.5t-30.5 53.5t-49.5 37
t-67.5 14q-25 0 -61 -7.5t-69.5 -27t-57 -53.5t-23.5 -86h-48q0 54 23.5 94t62 67t88 40t100.5 13q60 0 109 -16.5t84 -44.5t54 -65t19 -77q0 -33 -14 -66t-43 -64t-73.5 -58t-106.5 -46q34 -10 67 -26.5t58.5 -43t41.5 -63.5t16 -87q0 -66 -28 -121.5t-77.5 -96.5
t-118.5 -64t-150 -23q-65 0 -112.5 14.5t-78 40t-45 60t-14.5 75.5q0 35 11 72.5t31 75.5zM1199 281l671 681h117l-248 -681h132v-46h-149l-85 -235h-134l85 235h-380zM1605 281l200 554l-551 -554h351z" />
    <glyph glyph-name="questiondown" unicode="&#xbf;" horiz-adv-x="1255" 
d="M563 111q70 -14 120 -43.5t82 -68t47.5 -82t15.5 -84.5q0 -66 -30.5 -126.5t-86.5 -107t-135.5 -74t-177.5 -27.5q-82 0 -154.5 21.5t-126.5 63.5t-85.5 105t-31.5 147q0 72 29 137t77.5 125.5t111.5 118t131.5 115t137.5 115.5t129.5 120t107.5 129t71 142l38 -19
q-19 -78 -59.5 -145t-93.5 -127t-114.5 -115t-122.5 -109t-117.5 -109t-100 -114.5t-69.5 -125.5t-26 -142q0 -63 17 -116t51.5 -91.5t86.5 -59.5t121 -21q82 0 139.5 29t93.5 73t52.5 97.5t16.5 102.5q0 32 -8.5 66.5t-26.5 67t-47.5 60.5t-71.5 48zM985 1101
q0 -18 -6.5 -33.5t-18 -27t-26.5 -18t-32 -6.5q-18 0 -33 6.5t-26.5 18t-18 27t-6.5 32.5q0 35 24.5 59t60.5 24q35 0 58.5 -23.5t23.5 -58.5z" />
    <glyph glyph-name="Agrave" unicode="&#xc0;" horiz-adv-x="2097" 
d="M340 589q0 -21 -10.5 -31.5t-28 -16.5t-40.5 -10.5t-48 -12.5q-21 -6 -50 -21.5t-56 -45.5t-45.5 -78.5t-18.5 -121.5q0 -75 20.5 -124.5t54.5 -79.5t77.5 -42.5t89.5 -12.5q52 0 99 15t91 45t87 76t88 108q55 77 107.5 169.5t103.5 193t99.5 204.5t95 204t91 192
t86.5 168q44 79 79.5 127.5t68 74t65.5 34t72 8.5q112 0 162 -48t50 -143q0 -73 -25 -174t-63 -216.5t-82 -238t-82 -237.5t-63 -214.5t-25 -169.5q0 -76 35 -118t116 -42q66 0 127.5 31t122 92.5t123 153.5t131.5 214l52 92l27 -19l-52 -92q-74 -131 -140 -228.5
t-132 -162.5t-134.5 -97.5t-146.5 -32.5q-62 0 -109 19t-79 52t-48.5 77.5t-16.5 95.5q0 44 11.5 104t31 130.5t45 149t53.5 160.5h-421q-37 -77 -75.5 -152t-77 -145t-77 -132.5t-75.5 -113.5q-49 -68 -96.5 -115.5t-96.5 -78.5t-100 -45t-106 -14q-134 0 -208 77.5
t-74 224.5q0 79 21 148.5t58 121.5t87 82t108 30q29 0 47.5 -10t18.5 -38zM1278 1355q-27 -51 -58.5 -115t-65.5 -136t-70.5 -149.5t-74.5 -156.5h415q33 96 64.5 191t57 181.5t41 161t15.5 128.5q0 35 -7 57t-19.5 34.5t-30 17t-38.5 4.5q-33 0 -60.5 -10t-53.5 -35
t-54 -67t-61 -106zM1693 1687q-22 7 -53.5 23.5t-65 38.5t-67 49.5t-59.5 57t-42.5 60t-16.5 59.5q0 23 11.5 39.5t35.5 16.5q21 0 34.5 -13.5t27 -38.5t31.5 -59t48 -74q35 -48 74 -84t71 -50z" />
    <glyph glyph-name="Aacute" unicode="&#xc1;" horiz-adv-x="2097" 
d="M340 589q0 -21 -10.5 -31.5t-28 -16.5t-40.5 -10.5t-48 -12.5q-21 -6 -50 -21.5t-56 -45.5t-45.5 -78.5t-18.5 -121.5q0 -75 20.5 -124.5t54.5 -79.5t77.5 -42.5t89.5 -12.5q52 0 99 15t91 45t87 76t88 108q55 77 107.5 169.5t103.5 193t99.5 204.5t95 204t91 192
t86.5 168q44 79 79.5 127.5t68 74t65.5 34t72 8.5q112 0 162 -48t50 -143q0 -73 -25 -174t-63 -216.5t-82 -238t-82 -237.5t-63 -214.5t-25 -169.5q0 -76 35 -118t116 -42q66 0 127.5 31t122 92.5t123 153.5t131.5 214l52 92l27 -19l-52 -92q-74 -131 -140 -228.5
t-132 -162.5t-134.5 -97.5t-146.5 -32.5q-62 0 -109 19t-79 52t-48.5 77.5t-16.5 95.5q0 44 11.5 104t31 130.5t45 149t53.5 160.5h-421q-37 -77 -75.5 -152t-77 -145t-77 -132.5t-75.5 -113.5q-49 -68 -96.5 -115.5t-96.5 -78.5t-100 -45t-106 -14q-134 0 -208 77.5
t-74 224.5q0 79 21 148.5t58 121.5t87 82t108 30q29 0 47.5 -10t18.5 -38zM1278 1355q-27 -51 -58.5 -115t-65.5 -136t-70.5 -149.5t-74.5 -156.5h415q33 96 64.5 191t57 181.5t41 161t15.5 128.5q0 35 -7 57t-19.5 34.5t-30 17t-38.5 4.5q-33 0 -60.5 -10t-53.5 -35
t-54 -67t-61 -106zM1530 1712q31 14 70.5 50t74.5 84q30 40 48 74t31.5 59t27 38.5t34.5 13.5q24 0 35.5 -16.5t11.5 -39.5q0 -29 -16.5 -60t-42.5 -60.5t-59.5 -56.5t-67.5 -49t-65.5 -38.5t-53.5 -23.5z" />
    <glyph glyph-name="Acircumflex" unicode="&#xc2;" horiz-adv-x="2097" 
d="M340 589q0 -21 -10.5 -31.5t-28 -16.5t-40.5 -10.5t-48 -12.5q-21 -6 -50 -21.5t-56 -45.5t-45.5 -78.5t-18.5 -121.5q0 -75 20.5 -124.5t54.5 -79.5t77.5 -42.5t89.5 -12.5q52 0 99 15t91 45t87 76t88 108q55 77 107.5 169.5t103.5 193t99.5 204.5t95 204t91 192
t86.5 168q44 79 79.5 127.5t68 74t65.5 34t72 8.5q112 0 162 -48t50 -143q0 -73 -25 -174t-63 -216.5t-82 -238t-82 -237.5t-63 -214.5t-25 -169.5q0 -76 35 -118t116 -42q66 0 127.5 31t122 92.5t123 153.5t131.5 214l52 92l27 -19l-52 -92q-74 -131 -140 -228.5
t-132 -162.5t-134.5 -97.5t-146.5 -32.5q-62 0 -109 19t-79 52t-48.5 77.5t-16.5 95.5q0 44 11.5 104t31 130.5t45 149t53.5 160.5h-421q-37 -77 -75.5 -152t-77 -145t-77 -132.5t-75.5 -113.5q-49 -68 -96.5 -115.5t-96.5 -78.5t-100 -45t-106 -14q-134 0 -208 77.5
t-74 224.5q0 79 21 148.5t58 121.5t87 82t108 30q29 0 47.5 -10t18.5 -38zM1278 1355q-27 -51 -58.5 -115t-65.5 -136t-70.5 -149.5t-74.5 -156.5h415q33 96 64.5 191t57 181.5t41 161t15.5 128.5q0 35 -7 57t-19.5 34.5t-30 17t-38.5 4.5q-33 0 -60.5 -10t-53.5 -35
t-54 -67t-61 -106zM1619 2004q11 17 23.5 22t24.5 5q19 0 28.5 -7.5t13.5 -21.5q10 -35 22.5 -71t35 -73t59 -73.5t93.5 -72.5q-1 -1 -4.5 -5t-8.5 -9q-5 -6 -11 -13q-48 23 -92 56q-38 28 -78 70t-66 99l-12 -13.5t-34 -34.5t-52 -46.5t-65.5 -50.5t-74.5 -46t-78 -32
q-1 0 -5.5 3.5t-9.5 8.5q-6 5 -14 13q67 34 112.5 66.5t78.5 67t59 73t55 85.5z" />
    <glyph glyph-name="Atilde" unicode="&#xc3;" horiz-adv-x="2097" 
d="M340 589q0 -21 -10.5 -31.5t-28 -16.5t-40.5 -10.5t-48 -12.5q-21 -6 -50 -21.5t-56 -45.5t-45.5 -78.5t-18.5 -121.5q0 -75 20.5 -124.5t54.5 -79.5t77.5 -42.5t89.5 -12.5q52 0 99 15t91 45t87 76t88 108q55 77 107.5 169.5t103.5 193t99.5 204.5t95 204t91 192
t86.5 168q44 79 79.5 127.5t68 74t65.5 34t72 8.5q112 0 162 -48t50 -143q0 -73 -25 -174t-63 -216.5t-82 -238t-82 -237.5t-63 -214.5t-25 -169.5q0 -76 35 -118t116 -42q66 0 127.5 31t122 92.5t123 153.5t131.5 214l52 92l27 -19l-52 -92q-74 -131 -140 -228.5
t-132 -162.5t-134.5 -97.5t-146.5 -32.5q-62 0 -109 19t-79 52t-48.5 77.5t-16.5 95.5q0 44 11.5 104t31 130.5t45 149t53.5 160.5h-421q-37 -77 -75.5 -152t-77 -145t-77 -132.5t-75.5 -113.5q-49 -68 -96.5 -115.5t-96.5 -78.5t-100 -45t-106 -14q-134 0 -208 77.5
t-74 224.5q0 79 21 148.5t58 121.5t87 82t108 30q29 0 47.5 -10t18.5 -38zM1278 1355q-27 -51 -58.5 -115t-65.5 -136t-70.5 -149.5t-74.5 -156.5h415q33 96 64.5 191t57 181.5t41 161t15.5 128.5q0 35 -7 57t-19.5 34.5t-30 17t-38.5 4.5q-33 0 -60.5 -10t-53.5 -35
t-54 -67t-61 -106zM1478 2029q44 0 78 -14.5t62.5 -36.5t53 -48t49.5 -48t52 -36.5t61 -14.5q38 0 69 18.5t54.5 45.5t38.5 58t21 55h43q-15 -53 -35.5 -103t-51.5 -89.5t-74 -63.5t-103 -24q-47 0 -80.5 14.5t-60 36t-48.5 47t-45 47t-50.5 36t-64.5 14.5
q-48 0 -80.5 -22.5t-53.5 -53t-32 -60.5t-16 -45h-44q13 39 30.5 89t47 94t72.5 74t107 30z" />
    <glyph glyph-name="Adieresis" unicode="&#xc4;" horiz-adv-x="2097" 
d="M340 589q0 -21 -10.5 -31.5t-28 -16.5t-40.5 -10.5t-48 -12.5q-21 -6 -50 -21.5t-56 -45.5t-45.5 -78.5t-18.5 -121.5q0 -75 20.5 -124.5t54.5 -79.5t77.5 -42.5t89.5 -12.5q52 0 99 15t91 45t87 76t88 108q55 77 107.5 169.5t103.5 193t99.5 204.5t95 204t91 192
t86.5 168q44 79 79.5 127.5t68 74t65.5 34t72 8.5q112 0 162 -48t50 -143q0 -73 -25 -174t-63 -216.5t-82 -238t-82 -237.5t-63 -214.5t-25 -169.5q0 -76 35 -118t116 -42q66 0 127.5 31t122 92.5t123 153.5t131.5 214l52 92l27 -19l-52 -92q-74 -131 -140 -228.5
t-132 -162.5t-134.5 -97.5t-146.5 -32.5q-62 0 -109 19t-79 52t-48.5 77.5t-16.5 95.5q0 44 11.5 104t31 130.5t45 149t53.5 160.5h-421q-37 -77 -75.5 -152t-77 -145t-77 -132.5t-75.5 -113.5q-49 -68 -96.5 -115.5t-96.5 -78.5t-100 -45t-106 -14q-134 0 -208 77.5
t-74 224.5q0 79 21 148.5t58 121.5t87 82t108 30q29 0 47.5 -10t18.5 -38zM1278 1355q-27 -51 -58.5 -115t-65.5 -136t-70.5 -149.5t-74.5 -156.5h415q33 96 64.5 191t57 181.5t41 161t15.5 128.5q0 35 -7 57t-19.5 34.5t-30 17t-38.5 4.5q-33 0 -60.5 -10t-53.5 -35
t-54 -67t-61 -106zM1387 1794q0 36 21.5 60.5t52.5 24.5q32 0 53.5 -24.5t21.5 -59.5t-22 -59t-54 -24q-31 0 -52 23.5t-21 58.5zM1702 1794q0 36 21.5 60.5t52.5 24.5t53 -24.5t22 -59.5t-22 -59t-54 -24q-31 0 -52 23.5t-21 58.5z" />
    <glyph glyph-name="Aring" unicode="&#xc5;" horiz-adv-x="2097" 
d="M340 589q0 -21 -10.5 -31.5t-28 -16.5t-40.5 -10.5t-48 -12.5q-21 -6 -50 -21.5t-56 -45.5t-45.5 -78.5t-18.5 -121.5q0 -75 20.5 -124.5t54.5 -79.5t77.5 -42.5t89.5 -12.5q52 0 99 15t91 45t87 76t88 108q55 77 107.5 169.5t103.5 193t99.5 204.5t95 204t91 192
t86.5 168q44 79 79.5 127.5t68 74t65.5 34t72 8.5q112 0 162 -48t50 -143q0 -73 -25 -174t-63 -216.5t-82 -238t-82 -237.5t-63 -214.5t-25 -169.5q0 -76 35 -118t116 -42q66 0 127.5 31t122 92.5t123 153.5t131.5 214l52 92l27 -19l-52 -92q-74 -131 -140 -228.5
t-132 -162.5t-134.5 -97.5t-146.5 -32.5q-62 0 -109 19t-79 52t-48.5 77.5t-16.5 95.5q0 44 11.5 104t31 130.5t45 149t53.5 160.5h-421q-37 -77 -75.5 -152t-77 -145t-77 -132.5t-75.5 -113.5q-49 -68 -96.5 -115.5t-96.5 -78.5t-100 -45t-106 -14q-134 0 -208 77.5
t-74 224.5q0 79 21 148.5t58 121.5t87 82t108 30q29 0 47.5 -10t18.5 -38zM1278 1355q-27 -51 -58.5 -115t-65.5 -136t-70.5 -149.5t-74.5 -156.5h415q33 96 64.5 191t57 181.5t41 161t15.5 128.5q0 35 -7 57t-19.5 34.5t-30 17t-38.5 4.5q-33 0 -60.5 -10t-53.5 -35
t-54 -67t-61 -106zM1491 1880q0 32 11.5 60t32 48.5t47.5 32.5t59 12q31 0 58.5 -12t48 -32t32.5 -48t12 -59t-12 -58.5t-32.5 -47.5t-48.5 -32t-60 -12t-59 11.5t-46.5 31.5t-31 47t-11.5 58zM1530 1880q0 -23 8.5 -43t23 -34.5t34.5 -23t43 -8.5q24 0 44.5 9t35.5 24
t23.5 35t8.5 43t-8.5 43t-23.5 35t-35 23.5t-43 8.5t-43 -8.5t-35 -23.5t-24 -35.5t-9 -44.5z" />
    <glyph glyph-name="AE" unicode="&#xc6;" horiz-adv-x="2521" 
d="M1967 894q-123 0 -218.5 -44t-161 -119.5t-99.5 -176.5t-34 -215q0 -68 17.5 -127.5t52.5 -103.5t87 -69.5t122 -25.5q102 0 205 32t199 94.5t181 153.5t151 208l52 92l27 -19l-52 -92q-74 -130 -163.5 -227.5t-190.5 -162t-211.5 -97t-225.5 -32.5q-116 0 -196 39
t-129.5 105.5t-72 155.5t-22.5 188q0 60 6 113.5t14 95.5q9 48 20 89h-439q-40 -92 -77 -186t-75 -181.5t-78.5 -164.5t-88 -133.5t-103.5 -89.5t-124 -33q-95 0 -160 30t-105 77.5t-57.5 105.5t-17.5 115q0 106 31 185t87.5 135.5t134.5 93.5t172.5 58t202 29.5t222.5 8.5
q74 171 143 319t142.5 257t155.5 171.5t183 62.5q61 0 101 -14t63.5 -38t33 -57t9.5 -72q0 -69 -16.5 -140.5t-44.5 -151.5t-64 -171.5t-75 -200.5q80 69 189.5 108t246.5 39q-75 42 -113.5 111t-38.5 160q0 88 37 166t100.5 136t148.5 91.5t181 33.5q124 0 189 -57t65 -165
q0 -96 -50 -178.5t-144 -140.5l-14 30q39 22 70 53t52.5 68.5t33.5 80t12 87.5q0 89 -47.5 136t-136.5 47q-78 0 -147.5 -35.5t-121.5 -96t-82.5 -141t-30.5 -170.5q0 -78 23 -134.5t65 -80.5q4 2 15.5 4t21.5 2q27 0 27 -14q0 -15 -28 -15q-22 0 -37 5zM346 10q55 0 102 31
t88 84.5t78 125.5t72 154.5t70 170t72 173.5q-105 0 -203.5 -7t-184 -26t-156.5 -51.5t-121.5 -83.5t-78.5 -123t-28 -169q0 -53 15 -103t49.5 -89t90 -63t135.5 -24zM1470 1571q-61 0 -114.5 -29.5t-102.5 -82.5t-93.5 -125.5t-87 -158.5t-83.5 -181.5t-82 -194.5
q28 0 59.5 -0.5t79.5 -0.5h118.5h177.5q39 97 75 189t63 176t43.5 160.5t16.5 144.5q0 19 -3 37.5t-11 33t-21.5 23.5t-34.5 9z" />
    <glyph glyph-name="Ccedilla" unicode="&#xc7;" horiz-adv-x="1187" 
d="M254 -372q41 -35 88.5 -55.5t87.5 -20.5q26 0 48.5 9.5t39 27t26 40.5t9.5 50q0 58 -45.5 91.5t-126.5 33.5h-21.5t-10.5 -1l70 160q-100 7 -177.5 45t-131 103t-81.5 156.5t-28 206.5q0 67 9.5 142t29.5 152q31 122 81 231.5t115.5 202.5t144 168.5t165.5 128.5
t181 81.5t191 28.5q46 0 93 -11t84.5 -36.5t61 -68t23.5 -105.5q0 -56 -16.5 -103.5t-46 -87t-68.5 -72.5t-84 -59l-18 25q81 65 119.5 143.5t38.5 164.5q0 90 -41.5 131t-121.5 41q-102 0 -207.5 -60.5t-202.5 -166.5t-178 -249.5t-134 -309.5q-34 -107 -52 -210.5
t-18 -193.5q0 -371 333 -371q190 0 350 120.5t302 370.5l52 92l27 -19l-52 -92q-75 -132 -153 -229.5t-162.5 -162t-176.5 -96.5t-194 -33l-62 -138h21q102 0 157 -36.5t55 -104.5q0 -35 -15 -65t-42 -51.5t-64 -34t-81 -12.5q-111 0 -207 90z" />
    <glyph glyph-name="Egrave" unicode="&#xc8;" horiz-adv-x="1179" 
d="M606 894q-103 -13 -186 -58.5t-141.5 -118t-90 -168.5t-31.5 -210q0 -166 69 -246t211 -80q95 0 190.5 33t184.5 96t169.5 153.5t145.5 205.5l52 92l26 -19l-51 -92q-73 -129 -158.5 -226t-180 -162t-196.5 -98t-207 -33q-96 0 -172 28t-129.5 80.5t-82 127t-28.5 166.5
q0 111 41 205t114.5 164.5t176.5 115t227 55.5q-75 42 -115 114t-40 163q0 88 37 166t100.5 136t148.5 91.5t181 33.5q61 0 112.5 -17t89 -48t58 -73.5t20.5 -93.5q0 -96 -59.5 -173.5t-160.5 -135.5l-14 30q39 22 70 53t52.5 68.5t33.5 80t12 86.5q0 90 -47.5 137
t-136.5 47q-78 0 -147.5 -35.5t-121.5 -96t-82.5 -141t-30.5 -170.5q0 -78 23 -134.5t65 -80.5q5 2 16 4t21 2q28 0 28 -14q0 -16 -29 -16q-10 0 -20 2t-17 4zM1007 1659q-22 8 -53.5 24t-65 38.5t-67 49.5t-59.5 56.5t-42.5 60t-16.5 59.5q0 23 11.5 40t35.5 17
q21 0 34.5 -13.5t27 -38.5t31.5 -59t48 -75q35 -48 74 -83.5t71 -50.5z" />
    <glyph glyph-name="Eacute" unicode="&#xc9;" horiz-adv-x="1179" 
d="M606 894q-103 -13 -186 -58.5t-141.5 -118t-90 -168.5t-31.5 -210q0 -166 69 -246t211 -80q95 0 190.5 33t184.5 96t169.5 153.5t145.5 205.5l52 92l26 -19l-51 -92q-73 -129 -158.5 -226t-180 -162t-196.5 -98t-207 -33q-96 0 -172 28t-129.5 80.5t-82 127t-28.5 166.5
q0 111 41 205t114.5 164.5t176.5 115t227 55.5q-75 42 -115 114t-40 163q0 88 37 166t100.5 136t148.5 91.5t181 33.5q61 0 112.5 -17t89 -48t58 -73.5t20.5 -93.5q0 -96 -59.5 -173.5t-160.5 -135.5l-14 30q39 22 70 53t52.5 68.5t33.5 80t12 86.5q0 90 -47.5 137
t-136.5 47q-78 0 -147.5 -35.5t-121.5 -96t-82.5 -141t-30.5 -170.5q0 -78 23 -134.5t65 -80.5q5 2 16 4t21 2q28 0 28 -14q0 -16 -29 -16q-10 0 -20 2t-17 4zM794 1684q32 15 71.5 50.5t74.5 83.5q30 41 47.5 75t31 59t27 38.5t34.5 13.5q25 0 36.5 -17t11.5 -40
q0 -44 -35 -90t-84 -86t-100.5 -70t-85.5 -42z" />
    <glyph glyph-name="Ecircumflex" unicode="&#xca;" horiz-adv-x="1179" 
d="M606 894q-103 -13 -186 -58.5t-141.5 -118t-90 -168.5t-31.5 -210q0 -166 69 -246t211 -80q95 0 190.5 33t184.5 96t169.5 153.5t145.5 205.5l52 92l26 -19l-51 -92q-73 -129 -158.5 -226t-180 -162t-196.5 -98t-207 -33q-96 0 -172 28t-129.5 80.5t-82 127t-28.5 166.5
q0 111 41 205t114.5 164.5t176.5 115t227 55.5q-75 42 -115 114t-40 163q0 88 37 166t100.5 136t148.5 91.5t181 33.5q61 0 112.5 -17t89 -48t58 -73.5t20.5 -93.5q0 -96 -59.5 -173.5t-160.5 -135.5l-14 30q39 22 70 53t52.5 68.5t33.5 80t12 86.5q0 90 -47.5 137
t-136.5 47q-78 0 -147.5 -35.5t-121.5 -96t-82.5 -141t-30.5 -170.5q0 -78 23 -134.5t65 -80.5q5 2 16 4t21 2q28 0 28 -14q0 -16 -29 -16q-10 0 -20 2t-17 4zM963 1976q11 17 23 22.5t25 5.5q18 0 27.5 -8t14.5 -22q10 -35 22.5 -71t35 -73t58.5 -73.5t94 -72.5
q-1 -1 -4.5 -5t-8.5 -9q-5 -6 -11 -13q-49 23 -93 56q-38 28 -77.5 70t-65.5 99l-12.5 -13.5t-34.5 -34.5t-52 -46.5t-65 -50.5t-74 -46t-78 -32q-1 0 -5.5 3.5t-9.5 8.5q-6 5 -15 13q68 35 113 67t78 66.5t59 73t56 85.5z" />
    <glyph glyph-name="Edieresis" unicode="&#xcb;" horiz-adv-x="1179" 
d="M606 894q-103 -13 -186 -58.5t-141.5 -118t-90 -168.5t-31.5 -210q0 -166 69 -246t211 -80q95 0 190.5 33t184.5 96t169.5 153.5t145.5 205.5l52 92l26 -19l-51 -92q-73 -129 -158.5 -226t-180 -162t-196.5 -98t-207 -33q-96 0 -172 28t-129.5 80.5t-82 127t-28.5 166.5
q0 111 41 205t114.5 164.5t176.5 115t227 55.5q-75 42 -115 114t-40 163q0 88 37 166t100.5 136t148.5 91.5t181 33.5q61 0 112.5 -17t89 -48t58 -73.5t20.5 -93.5q0 -96 -59.5 -173.5t-160.5 -135.5l-14 30q39 22 70 53t52.5 68.5t33.5 80t12 86.5q0 90 -47.5 137
t-136.5 47q-78 0 -147.5 -35.5t-121.5 -96t-82.5 -141t-30.5 -170.5q0 -78 23 -134.5t65 -80.5q5 2 16 4t21 2q28 0 28 -14q0 -16 -29 -16q-10 0 -20 2t-17 4zM731 1767q0 35 21.5 60t52.5 25q15 0 29 -6.5t24 -18t16 -27t6 -33.5q0 -35 -22.5 -59t-53.5 -24t-52 24t-21 59z
M1045 1767q0 35 22 60t52 25q32 0 53.5 -25t21.5 -60t-22 -59t-54 -24q-30 0 -51.5 24t-21.5 59z" />
    <glyph glyph-name="Igrave" unicode="&#xcc;" horiz-adv-x="1530" 
d="M1606 1591q-33 -9 -65.5 -27t-62.5 -41.5t-55.5 -51t-44.5 -54.5q-12 -18 -24 -39.5t-26 -53t-32 -76t-41.5 -108t-55 -149.5t-72.5 -200q-80 -220 -163 -377t-176 -257.5t-200.5 -148t-235.5 -47.5q-173 0 -262.5 77.5t-89.5 212.5q0 51 12 96t32 79t46.5 54t55.5 20
q26 0 41 -14t15 -40q0 -20 -9.5 -34t-24 -23.5t-31.5 -16.5t-33 -12q-32 -11 -44.5 -39.5t-12.5 -73.5q0 -57 19.5 -102.5t56.5 -78t90 -50t120 -17.5q65 0 119 12t100.5 40.5t88.5 76t83.5 118.5t85 168.5t93.5 225.5q40 103 71 181t55 138t42.5 104.5t34 78.5t29.5 60
t29 51q46 77 108.5 147t137.5 121q-68 -21 -138.5 -33t-126.5 -12q-53 0 -105.5 10t-101 22t-90.5 22t-73 10q-38 0 -72.5 -16.5t-60.5 -47t-41 -73t-15 -94.5q0 -60 20 -102l-35 -20q-12 23 -19.5 53t-7.5 68q0 70 26 126t72.5 95t109 60t136.5 21q36 0 62.5 -4.5
t50.5 -11.5t49.5 -14.5t59.5 -14.5t80 -11.5t112 -4.5q47 0 85 4t73 11.5t70 19t76 25.5v-18zM1420 1659q-23 8 -54 24t-65 38.5t-67 49.5t-59 56.5t-42.5 60t-16.5 59.5q0 23 11 40t36 17q21 0 34.5 -13.5t27 -38.5t31.5 -59t48 -75q35 -48 74 -83.5t71 -50.5z" />
    <glyph glyph-name="Iacute" unicode="&#xcd;" horiz-adv-x="1530" 
d="M1606 1591q-33 -9 -65.5 -27t-62.5 -41.5t-55.5 -51t-44.5 -54.5q-12 -18 -24 -39.5t-26 -53t-32 -76t-41.5 -108t-55 -149.5t-72.5 -200q-80 -220 -163 -377t-176 -257.5t-200.5 -148t-235.5 -47.5q-173 0 -262.5 77.5t-89.5 212.5q0 51 12 96t32 79t46.5 54t55.5 20
q26 0 41 -14t15 -40q0 -20 -9.5 -34t-24 -23.5t-31.5 -16.5t-33 -12q-32 -11 -44.5 -39.5t-12.5 -73.5q0 -57 19.5 -102.5t56.5 -78t90 -50t120 -17.5q65 0 119 12t100.5 40.5t88.5 76t83.5 118.5t85 168.5t93.5 225.5q40 103 71 181t55 138t42.5 104.5t34 78.5t29.5 60
t29 51q46 77 108.5 147t137.5 121q-68 -21 -138.5 -33t-126.5 -12q-53 0 -105.5 10t-101 22t-90.5 22t-73 10q-38 0 -72.5 -16.5t-60.5 -47t-41 -73t-15 -94.5q0 -60 20 -102l-35 -20q-12 23 -19.5 53t-7.5 68q0 70 26 126t72.5 95t109 60t136.5 21q36 0 62.5 -4.5
t50.5 -11.5t49.5 -14.5t59.5 -14.5t80 -11.5t112 -4.5q47 0 85 4t73 11.5t70 19t76 25.5v-18zM1264 1684q31 15 70.5 50.5t74.5 83.5q30 41 48 75t31.5 59t27 38.5t34.5 13.5q24 0 35.5 -17t11.5 -40q0 -44 -35 -90t-84 -86t-100.5 -70t-85.5 -42z" />
    <glyph glyph-name="Icircumflex" unicode="&#xce;" horiz-adv-x="1530" 
d="M1606 1591q-33 -9 -65.5 -27t-62.5 -41.5t-55.5 -51t-44.5 -54.5q-12 -18 -24 -39.5t-26 -53t-32 -76t-41.5 -108t-55 -149.5t-72.5 -200q-80 -220 -163 -377t-176 -257.5t-200.5 -148t-235.5 -47.5q-173 0 -262.5 77.5t-89.5 212.5q0 51 12 96t32 79t46.5 54t55.5 20
q26 0 41 -14t15 -40q0 -20 -9.5 -34t-24 -23.5t-31.5 -16.5t-33 -12q-32 -11 -44.5 -39.5t-12.5 -73.5q0 -57 19.5 -102.5t56.5 -78t90 -50t120 -17.5q65 0 119 12t100.5 40.5t88.5 76t83.5 118.5t85 168.5t93.5 225.5q40 103 71 181t55 138t42.5 104.5t34 78.5t29.5 60
t29 51q46 77 108.5 147t137.5 121q-68 -21 -138.5 -33t-126.5 -12q-53 0 -105.5 10t-101 22t-90.5 22t-73 10q-38 0 -72.5 -16.5t-60.5 -47t-41 -73t-15 -94.5q0 -60 20 -102l-35 -20q-12 23 -19.5 53t-7.5 68q0 70 26 126t72.5 95t109 60t136.5 21q36 0 62.5 -4.5
t50.5 -11.5t49.5 -14.5t59.5 -14.5t80 -11.5t112 -4.5q47 0 85 4t73 11.5t70 19t76 25.5v-18zM1432 1976q11 17 23.5 22.5t24.5 5.5q19 0 28.5 -8t13.5 -22q10 -35 22.5 -71t35 -73t59 -73.5t93.5 -72.5q-1 -1 -4.5 -5t-8.5 -9q-5 -6 -11 -13q-48 23 -92 56q-38 28 -78 70
t-66 99l-12 -13.5t-34 -34.5t-52 -46.5t-65.5 -50.5t-74.5 -46t-78 -32q-1 0 -5.5 3.5t-9.5 8.5q-6 5 -14 13q67 35 112.5 67t78.5 66.5t59 73t55 85.5z" />
    <glyph glyph-name="Idieresis" unicode="&#xcf;" horiz-adv-x="1530" 
d="M1606 1591q-33 -9 -65.5 -27t-62.5 -41.5t-55.5 -51t-44.5 -54.5q-12 -18 -24 -39.5t-26 -53t-32 -76t-41.5 -108t-55 -149.5t-72.5 -200q-80 -220 -163 -377t-176 -257.5t-200.5 -148t-235.5 -47.5q-173 0 -262.5 77.5t-89.5 212.5q0 51 12 96t32 79t46.5 54t55.5 20
q26 0 41 -14t15 -40q0 -20 -9.5 -34t-24 -23.5t-31.5 -16.5t-33 -12q-32 -11 -44.5 -39.5t-12.5 -73.5q0 -57 19.5 -102.5t56.5 -78t90 -50t120 -17.5q65 0 119 12t100.5 40.5t88.5 76t83.5 118.5t85 168.5t93.5 225.5q40 103 71 181t55 138t42.5 104.5t34 78.5t29.5 60
t29 51q46 77 108.5 147t137.5 121q-68 -21 -138.5 -33t-126.5 -12q-53 0 -105.5 10t-101 22t-90.5 22t-73 10q-38 0 -72.5 -16.5t-60.5 -47t-41 -73t-15 -94.5q0 -60 20 -102l-35 -20q-12 23 -19.5 53t-7.5 68q0 70 26 126t72.5 95t109 60t136.5 21q36 0 62.5 -4.5
t50.5 -11.5t49.5 -14.5t59.5 -14.5t80 -11.5t112 -4.5q47 0 85 4t73 11.5t70 19t76 25.5v-18zM1200 1767q0 35 21.5 60t52.5 25q32 0 53.5 -25t21.5 -60t-22 -59t-54 -24q-31 0 -52 24t-21 59zM1515 1767q0 35 21.5 60t52.5 25q15 0 29 -6.5t24 -18t16 -27t6 -33.5
q0 -35 -22 -59t-54 -24q-31 0 -52 24t-21 59z" />
    <glyph glyph-name="Eth" unicode="&#xd0;" horiz-adv-x="2184" 
d="M693 787h165q34 83 58.5 144t43 105t31.5 73.5t23 50.5t18.5 35.5t17.5 28.5q22 34 57.5 78t80.5 88.5t98.5 84.5t111.5 65q-60 15 -128 23t-146 8q-106 0 -204 -15t-182 -46t-152.5 -79.5t-117.5 -116.5t-75.5 -156t-26.5 -197q0 -34 3.5 -71t15.5 -72.5t34 -67.5
t59 -55l-13 -21q-90 43 -133 115.5t-43 189.5q0 142 62 258t172 198.5t262.5 128t333.5 45.5q188 0 334.5 -48.5t247 -138t153 -214.5t52.5 -278q0 -95 -20 -187t-55.5 -177t-85 -161.5t-108.5 -140.5t-131 -119.5t-158.5 -96.5t-186.5 -64.5t-215 -23.5q-70 0 -133 8
t-117.5 20.5t-99 27t-77.5 27.5q-73 -42 -151.5 -62t-166.5 -20q-62 0 -101 8.5t-61 23t-30.5 32.5t-8.5 36q0 36 23.5 57t59.5 32.5t78.5 15t80.5 3.5q82 0 152.5 -10.5t135.5 -30.5q31 35 63 83.5t67 116.5t74.5 158t86.5 208h-165zM1778 996q0 214 -84.5 345.5
t-258.5 187.5q-27 -14 -53 -32t-49 -39t-42.5 -44t-34.5 -45q-12 -17 -23 -38t-24.5 -51.5t-30 -72.5t-39 -101t-51.5 -137.5t-67 -181.5h367l-36 -93h-366q-86 -215 -180.5 -360.5t-200.5 -231.5q38 -14 83 -30.5t97 -30.5t109.5 -23t120.5 -9q99 0 181 23.5t149.5 64.5
t122 95.5t98.5 116.5q48 69 87 150.5t67 170.5t43 181.5t15 184.5zM208 -3q75 0 136 13.5t117 54.5q-20 6 -56 16.5t-78.5 20t-87 16.5t-83.5 7q-51 0 -83.5 -15t-32.5 -50q0 -13 6.5 -24.5t25 -20t51 -13.5t85.5 -5z" />
    <glyph glyph-name="Ntilde" unicode="&#xd1;" horiz-adv-x="1748" 
d="M1396 1333q0 -49 -15.5 -111.5t-40 -134t-56.5 -150t-65.5 -160t-65.5 -163t-56.5 -160t-40 -151.5t-15.5 -136q0 -71 36 -114t116 -43q66 0 127 31t121.5 92.5t123 153.5t131.5 214l52 92l27 -19l-52 -92q-75 -133 -142 -231t-132.5 -162.5t-134 -96t-146.5 -31.5
q-75 0 -127 17t-85 48.5t-47.5 76t-14.5 99.5q0 48 15.5 115t41.5 145.5t58.5 165.5t67 175.5t67 175t58.5 163.5t41.5 141t15.5 109q0 85 -43.5 132t-112.5 47q-60 0 -120.5 -34t-122 -98.5t-125 -158t-130.5 -211.5l-50 -88l-357 -982h-148l394 1086q9 22 21.5 62t24 87.5
t20 99t8.5 96.5q0 30 -4.5 56t-15.5 44.5t-28.5 29.5t-43.5 11q-44 0 -92.5 -28.5t-99.5 -87.5t-103.5 -149.5t-103.5 -213.5l-27 18q55 136 111.5 231t114 154.5t115 86.5t114.5 27q55 0 91.5 -21t57.5 -57.5t29.5 -85t8.5 -103.5q0 -38 -7 -88t-22 -105q66 112 128 198
t124 144.5t126 88t134 29.5q55 0 104.5 -18t86.5 -52.5t58.5 -86.5t21.5 -119zM996 2002q44 0 78 -14.5t62.5 -36.5t53.5 -48t50 -48t52 -36.5t61 -14.5q38 0 69 18.5t54 45.5t38 57.5t21 54.5h44q-15 -52 -35.5 -102.5t-51.5 -90t-74 -63.5t-103 -24q-47 0 -80.5 14.5
t-60 36t-48.5 47t-45 47t-50.5 36t-64.5 14.5q-48 0 -80.5 -22.5t-53.5 -52.5t-32.5 -60.5t-16.5 -45.5h-43q12 39 30 89t47 94.5t72.5 74.5t106.5 30z" />
    <glyph glyph-name="Ograve" unicode="&#xd2;" horiz-adv-x="1684" 
d="M170 769q31 121 81.5 230t115.5 202.5t143 168.5t164 128.5t178 82t186 28.5q189 0 289 -117t100 -339q0 -95 -18.5 -200t-53.5 -211q-38 -113 -91.5 -215t-118.5 -188.5t-139 -156.5t-154 -119t-163 -75.5t-165 -26.5q-93 0 -166 34t-124 98.5t-77.5 158t-26.5 211.5
q0 73 10 150.5t30 155.5zM539 10q99 0 202.5 57t200 159t180 242.5t143.5 308.5q43 121 66.5 237.5t23.5 210.5q0 81 -18.5 145.5t-54 109t-86.5 68t-115 23.5q-69 0 -140 -27t-140.5 -76.5t-135 -120t-123.5 -158t-107 -189.5t-85 -214q-34 -109 -52 -214.5t-18 -197.5
q0 -178 66 -271t193 -93zM1221 1659q-23 8 -54 24t-65 38.5t-67 49.5t-59 56.5t-42.5 60t-16.5 59.5q0 23 11 40t36 17q21 0 34.5 -13.5t27 -38.5t31.5 -59t48 -75q35 -48 74 -83.5t71 -50.5z" />
    <glyph glyph-name="Oacute" unicode="&#xd3;" horiz-adv-x="1684" 
d="M170 769q31 121 81.5 230t115.5 202.5t143 168.5t164 128.5t178 82t186 28.5q189 0 289 -117t100 -339q0 -95 -18.5 -200t-53.5 -211q-38 -113 -91.5 -215t-118.5 -188.5t-139 -156.5t-154 -119t-163 -75.5t-165 -26.5q-93 0 -166 34t-124 98.5t-77.5 158t-26.5 211.5
q0 73 10 150.5t30 155.5zM539 10q99 0 202.5 57t200 159t180 242.5t143.5 308.5q43 121 66.5 237.5t23.5 210.5q0 81 -18.5 145.5t-54 109t-86.5 68t-115 23.5q-69 0 -140 -27t-140.5 -76.5t-135 -120t-123.5 -158t-107 -189.5t-85 -214q-34 -109 -52 -214.5t-18 -197.5
q0 -178 66 -271t193 -93zM1000 1684q32 15 71 50.5t74 83.5q30 41 48 75t31.5 59t27 38.5t34.5 13.5q24 0 35.5 -17t11.5 -40q0 -29 -16.5 -59.5t-42.5 -60t-59.5 -56.5t-67 -49.5t-65 -38.5t-53.5 -24z" />
    <glyph glyph-name="Ocircumflex" unicode="&#xd4;" horiz-adv-x="1684" 
d="M170 769q31 121 81.5 230t115.5 202.5t143 168.5t164 128.5t178 82t186 28.5q189 0 289 -117t100 -339q0 -95 -18.5 -200t-53.5 -211q-38 -113 -91.5 -215t-118.5 -188.5t-139 -156.5t-154 -119t-163 -75.5t-165 -26.5q-93 0 -166 34t-124 98.5t-77.5 158t-26.5 211.5
q0 73 10 150.5t30 155.5zM539 10q99 0 202.5 57t200 159t180 242.5t143.5 308.5q43 121 66.5 237.5t23.5 210.5q0 81 -18.5 145.5t-54 109t-86.5 68t-115 23.5q-69 0 -140 -27t-140.5 -76.5t-135 -120t-123.5 -158t-107 -189.5t-85 -214q-34 -109 -52 -214.5t-18 -197.5
q0 -178 66 -271t193 -93zM1168 1976q11 17 23.5 22.5t25.5 5.5q18 0 27.5 -8t13.5 -22q10 -35 22.5 -71t35 -73t59 -73.5t93.5 -72.5q-1 -1 -4 -5t-8 -9q-5 -6 -12 -13q-48 23 -92 56q-38 28 -78 70t-66 99l-12 -13.5t-34 -34.5t-52 -46.5t-65 -50.5t-74 -46t-78 -32
q-1 0 -5.5 3.5t-9.5 8.5q-6 5 -15 13q67 35 112.5 67t78.5 66.5t59 73t55 85.5z" />
    <glyph glyph-name="Otilde" unicode="&#xd5;" horiz-adv-x="1684" 
d="M170 769q31 121 81.5 230t115.5 202.5t143 168.5t164 128.5t178 82t186 28.5q189 0 289 -117t100 -339q0 -95 -18.5 -200t-53.5 -211q-38 -113 -91.5 -215t-118.5 -188.5t-139 -156.5t-154 -119t-163 -75.5t-165 -26.5q-93 0 -166 34t-124 98.5t-77.5 158t-26.5 211.5
q0 73 10 150.5t30 155.5zM539 10q99 0 202.5 57t200 159t180 242.5t143.5 308.5q43 121 66.5 237.5t23.5 210.5q0 81 -18.5 145.5t-54 109t-86.5 68t-115 23.5q-69 0 -140 -27t-140.5 -76.5t-135 -120t-123.5 -158t-107 -189.5t-85 -214q-34 -109 -52 -214.5t-18 -197.5
q0 -178 66 -271t193 -93zM968 2002q44 0 78 -14.5t62.5 -36.5t53.5 -48t50 -48t52 -36.5t61 -14.5q38 0 69 18.5t54.5 45.5t38 57.5t20.5 54.5h44q-15 -52 -35.5 -102.5t-51.5 -90t-74 -63.5t-103 -24q-47 0 -80.5 14.5t-60 36t-48.5 47t-45 47t-50.5 36t-64.5 14.5
q-48 0 -80.5 -22.5t-53.5 -52.5t-32.5 -60.5t-15.5 -45.5h-44q12 39 30 89t47 94.5t72.5 74.5t106.5 30z" />
    <glyph glyph-name="Odieresis" unicode="&#xd6;" horiz-adv-x="1684" 
d="M170 769q31 121 81.5 230t115.5 202.5t143 168.5t164 128.5t178 82t186 28.5q189 0 289 -117t100 -339q0 -95 -18.5 -200t-53.5 -211q-38 -113 -91.5 -215t-118.5 -188.5t-139 -156.5t-154 -119t-163 -75.5t-165 -26.5q-93 0 -166 34t-124 98.5t-77.5 158t-26.5 211.5
q0 73 10 150.5t30 155.5zM539 10q99 0 202.5 57t200 159t180 242.5t143.5 308.5q43 121 66.5 237.5t23.5 210.5q0 81 -18.5 145.5t-54 109t-86.5 68t-115 23.5q-69 0 -140 -27t-140.5 -76.5t-135 -120t-123.5 -158t-107 -189.5t-85 -214q-34 -109 -52 -214.5t-18 -197.5
q0 -178 66 -271t193 -93zM936 1767q0 35 21.5 60t52.5 25q32 0 53.5 -25t21.5 -60t-22 -59t-54 -24q-31 0 -52 24t-21 59zM1251 1767q0 35 21.5 60t52.5 25q32 0 53.5 -25t21.5 -60t-22 -59t-54 -24q-31 0 -52 24t-21 59z" />
    <glyph glyph-name="multiply" unicode="&#xd7;" horiz-adv-x="667" 
d="M42 415l225 225l-225 226l65 65l225 -225l227 226l66 -65l-227 -227l227 -226l-66 -66l-227 226l-225 -225z" />
    <glyph glyph-name="Oslash" unicode="&#xd8;" horiz-adv-x="1684" 
d="M265 58q-66 65 -100.5 166.5t-34.5 238.5q0 73 10 150.5t30 155.5q31 121 81.5 230t115.5 202.5t143 168.5t164 128.5t178 82t186 28.5q123 0 207 -51l54 83h117l-95 -145q106 -117 106 -343q0 -95 -18.5 -200t-53.5 -211q-38 -113 -91.5 -215t-118.5 -188.5t-139 -156.5
t-154 -119t-163 -75.5t-165 -26.5q-101 0 -180 41l-76 -118h-117zM539 10q99 0 202.5 57t200 159t180 242.5t143.5 308.5q43 121 66.5 237.5t23.5 210.5q0 72 -15 131t-43 103l-913 -1397q63 -52 155 -52zM280 374q0 -70 10 -127t31 -102l906 1385q-61 41 -146 41
q-69 0 -140 -27t-140.5 -76.5t-135 -120t-123.5 -158t-107 -189.5t-85 -214q-34 -109 -52 -214.5t-18 -197.5z" />
    <glyph glyph-name="Ugrave" unicode="&#xd9;" horiz-adv-x="1691" 
d="M1467 1609l-408 -1124q-15 -41 -29 -84t-24.5 -84.5t-16.5 -80t-6 -69.5q0 -71 36.5 -114t116.5 -43q66 0 127 31t121.5 92.5t123 153.5t131.5 214l52 92l26 -19l-51 -92q-75 -133 -142 -231t-133 -162.5t-134 -96t-146 -31.5q-122 0 -185.5 71.5t-63.5 195.5
q0 39 6.5 88t21.5 104q-66 -114 -123.5 -200t-114.5 -143.5t-116.5 -86.5t-129.5 -29q-56 0 -105.5 18t-86.5 52.5t-58.5 86t-21.5 119.5q0 57 16.5 128.5t43 152t60.5 168t70 175t70 172.5t60.5 162t43 142.5t16.5 114.5q0 25 -4.5 47t-14.5 38t-27 25t-42 9
q-44 0 -92.5 -28.5t-99.5 -87.5t-103.5 -149.5t-103.5 -213.5l-27 18q55 136 111.5 231t114 154.5t115 86.5t114.5 27q84 0 134.5 -52.5t50.5 -149.5q0 -50 -16 -118t-42 -148t-59 -168t-67.5 -178t-67.5 -178.5t-59 -169t-42 -149.5t-16 -120q0 -85 43.5 -126.5
t113.5 -41.5q60 0 115.5 31.5t111.5 93.5t116 153.5t128 212.5l49 88l371 1020h148zM1096 1659q-23 8 -54 24t-65 38.5t-67 49.5t-59 56.5t-42.5 60t-16.5 59.5q0 23 11 40t36 17q21 0 34.5 -13.5t27 -38.5t31.5 -59t48 -75q35 -48 74 -83.5t71 -50.5z" />
    <glyph glyph-name="Uacute" unicode="&#xda;" horiz-adv-x="1691" 
d="M1467 1609l-408 -1124q-15 -41 -29 -84t-24.5 -84.5t-16.5 -80t-6 -69.5q0 -71 36.5 -114t116.5 -43q66 0 127 31t121.5 92.5t123 153.5t131.5 214l52 92l26 -19l-51 -92q-75 -133 -142 -231t-133 -162.5t-134 -96t-146 -31.5q-122 0 -185.5 71.5t-63.5 195.5
q0 39 6.5 88t21.5 104q-66 -114 -123.5 -200t-114.5 -143.5t-116.5 -86.5t-129.5 -29q-56 0 -105.5 18t-86.5 52.5t-58.5 86t-21.5 119.5q0 57 16.5 128.5t43 152t60.5 168t70 175t70 172.5t60.5 162t43 142.5t16.5 114.5q0 25 -4.5 47t-14.5 38t-27 25t-42 9
q-44 0 -92.5 -28.5t-99.5 -87.5t-103.5 -149.5t-103.5 -213.5l-27 18q55 136 111.5 231t114 154.5t115 86.5t114.5 27q84 0 134.5 -52.5t50.5 -149.5q0 -50 -16 -118t-42 -148t-59 -168t-67.5 -178t-67.5 -178.5t-59 -169t-42 -149.5t-16 -120q0 -85 43.5 -126.5
t113.5 -41.5q60 0 115.5 31.5t111.5 93.5t116 153.5t128 212.5l49 88l371 1020h148zM792 1684q31 15 70.5 50.5t74.5 83.5q30 41 48 75t31.5 59t27 38.5t34.5 13.5q24 0 35.5 -17t11.5 -40q0 -44 -35 -90t-84 -86t-100.5 -70t-85.5 -42z" />
    <glyph glyph-name="Ucircumflex" unicode="&#xdb;" horiz-adv-x="1691" 
d="M1467 1609l-408 -1124q-15 -41 -29 -84t-24.5 -84.5t-16.5 -80t-6 -69.5q0 -71 36.5 -114t116.5 -43q66 0 127 31t121.5 92.5t123 153.5t131.5 214l52 92l26 -19l-51 -92q-75 -133 -142 -231t-133 -162.5t-134 -96t-146 -31.5q-122 0 -185.5 71.5t-63.5 195.5
q0 39 6.5 88t21.5 104q-66 -114 -123.5 -200t-114.5 -143.5t-116.5 -86.5t-129.5 -29q-56 0 -105.5 18t-86.5 52.5t-58.5 86t-21.5 119.5q0 57 16.5 128.5t43 152t60.5 168t70 175t70 172.5t60.5 162t43 142.5t16.5 114.5q0 25 -4.5 47t-14.5 38t-27 25t-42 9
q-44 0 -92.5 -28.5t-99.5 -87.5t-103.5 -149.5t-103.5 -213.5l-27 18q55 136 111.5 231t114 154.5t115 86.5t114.5 27q84 0 134.5 -52.5t50.5 -149.5q0 -50 -16 -118t-42 -148t-59 -168t-67.5 -178t-67.5 -178.5t-59 -169t-42 -149.5t-16 -120q0 -85 43.5 -126.5
t113.5 -41.5q60 0 115.5 31.5t111.5 93.5t116 153.5t128 212.5l49 88l371 1020h148zM960 1976q11 17 23.5 22.5t24.5 5.5q18 0 27.5 -8t14.5 -22q10 -35 22.5 -71t35 -73t58.5 -73.5t94 -72.5q-1 -1 -4.5 -5t-8.5 -9q-5 -6 -11 -13q-49 23 -93 56q-38 28 -77.5 70t-65.5 99
l-12 -13.5t-34 -34.5t-52 -46.5t-65.5 -50.5t-74.5 -46t-78 -32q-1 0 -5.5 3.5t-9.5 8.5q-6 5 -14 13q67 35 112 67t78 66.5t59 73t56 85.5z" />
    <glyph glyph-name="Udieresis" unicode="&#xdc;" horiz-adv-x="1691" 
d="M1467 1609l-408 -1124q-15 -41 -29 -84t-24.5 -84.5t-16.5 -80t-6 -69.5q0 -71 36.5 -114t116.5 -43q66 0 127 31t121.5 92.5t123 153.5t131.5 214l52 92l26 -19l-51 -92q-75 -133 -142 -231t-133 -162.5t-134 -96t-146 -31.5q-122 0 -185.5 71.5t-63.5 195.5
q0 39 6.5 88t21.5 104q-66 -114 -123.5 -200t-114.5 -143.5t-116.5 -86.5t-129.5 -29q-56 0 -105.5 18t-86.5 52.5t-58.5 86t-21.5 119.5q0 57 16.5 128.5t43 152t60.5 168t70 175t70 172.5t60.5 162t43 142.5t16.5 114.5q0 25 -4.5 47t-14.5 38t-27 25t-42 9
q-44 0 -92.5 -28.5t-99.5 -87.5t-103.5 -149.5t-103.5 -213.5l-27 18q55 136 111.5 231t114 154.5t115 86.5t114.5 27q84 0 134.5 -52.5t50.5 -149.5q0 -50 -16 -118t-42 -148t-59 -168t-67.5 -178t-67.5 -178.5t-59 -169t-42 -149.5t-16 -120q0 -85 43.5 -126.5
t113.5 -41.5q60 0 115.5 31.5t111.5 93.5t116 153.5t128 212.5l49 88l371 1020h148zM728 1767q0 35 21.5 60t52.5 25q15 0 29 -6.5t24 -18t16 -27t6 -33.5q0 -35 -22 -59t-54 -24q-31 0 -52 24t-21 59zM1043 1767q0 35 21.5 60t52.5 25q15 0 29 -6.5t24 -18t16 -27t6 -33.5
q0 -35 -22.5 -59t-53.5 -24t-52 24t-21 59z" />
    <glyph glyph-name="Yacute" unicode="&#xdd;" horiz-adv-x="1743" 
d="M1231 609q-60 -165 -118 -303t-120 -255q92 9 166.5 23t136 36t113.5 54.5t99 79.5t91.5 110t92.5 147l51 92l27 -19l-52 -92q-50 -89 -98 -155t-98.5 -114.5t-107 -81.5t-122.5 -55.5t-144.5 -36t-174.5 -23.5q-77 -137 -158 -238.5t-170 -169t-187.5 -101t-208.5 -33.5
q-120 0 -184.5 57.5t-64.5 164.5q0 72 45.5 127t145 95.5t257.5 69t382 49.5q39 83 81 182t90 219l47 119q-46 -70 -95 -128.5t-101.5 -100.5t-109 -65.5t-116.5 -23.5q-56 0 -105 18t-86 52.5t-58.5 86t-21.5 119.5q0 80 21 159.5t53 158t68.5 156t68.5 154t53 152
t21 149.5q0 25 -4.5 48.5t-14.5 40.5t-27 27.5t-42 10.5q-44 0 -92.5 -29.5t-99.5 -90t-103.5 -152t-103.5 -215.5l-27 19q55 136 111.5 232t114 157t115 89t114.5 28q50 0 90.5 -14.5t69 -42t44 -66t15.5 -86.5q0 -74 -23 -153.5t-57 -161.5t-74 -165t-74 -163.5
t-57 -156.5t-23 -144q0 -38 10.5 -69t29 -53t43.5 -34t55 -12q58 0 116 30t112.5 79.5t103.5 112.5t90.5 129.5t73 130t50.5 114.5l244 652h149zM238 -482q84 0 158 21.5t143 76.5t136 148.5t138 236.5q-154 -13 -292.5 -34.5t-243 -57t-166 -87.5t-61.5 -125
q0 -88 45.5 -133.5t142.5 -45.5zM985 1684q32 15 71 50.5t74 83.5q30 41 48 75t31.5 59t27 38.5t34.5 13.5q25 0 36 -17t11 -40q0 -29 -16.5 -59.5t-42.5 -60t-59 -56.5t-67 -49.5t-65.5 -38.5t-53.5 -24z" />
    <glyph glyph-name="Thorn" unicode="&#xde;" horiz-adv-x="1292" 
d="M0 0l593 1609h149l-136 -371q214 -2 329.5 -86.5t115.5 -238.5q0 -96 -40.5 -182t-112 -153t-169.5 -112t-212 -60q-56 -8 -111.5 -11.5t-112.5 -3.5l-145 -391h-148zM308 433q83 2 129.5 10t68.5 15q97 28 173.5 72t129.5 103.5t81.5 135t28.5 167.5q0 69 -18 119
t-55.5 82.5t-96.5 47.5t-141 15h-15z" />
    <glyph glyph-name="germandbls" unicode="&#xdf;" horiz-adv-x="1161" 
d="M234 1151q97 230 219 344t268 114q62 0 109 -22t78.5 -57.5t47.5 -79t16 -85.5q0 -56 -24.5 -103t-61 -89t-79 -80t-79 -74.5t-61 -73.5t-24.5 -76q0 -29 13.5 -58t33.5 -60t44 -64t44 -71.5t33.5 -83t13.5 -96.5q0 -66 -22.5 -125.5t-62.5 -110.5t-94.5 -92.5t-118 -71
t-134 -45.5t-141.5 -16q-45 0 -82.5 7t-69.5 22.5t-60 40t-56 59.5l32 33q38 -54 98 -83.5t132 -29.5q76 0 153.5 32.5t140 89t102 133t39.5 163.5q0 60 -17.5 118.5t-38 113.5t-38 105.5t-17.5 94.5q0 48 21 90t53 82.5t69 80.5t69 83.5t53 92t21 105.5q0 30 -7 60.5
t-24 55t-45 40t-69 15.5q-38 0 -72.5 -13t-69 -49.5t-71 -102.5t-78.5 -172l-292 -731q-84 -210 -167.5 -365.5t-172 -258.5t-184.5 -154t-205 -51l-3 49q50 0 93.5 13t83 42.5t77 77t77 117.5t83 163.5t94.5 215.5z" />
    <glyph glyph-name="agrave" unicode="&#xe0;" horiz-adv-x="1492" 
d="M-4 584q36 108 86 196.5t108.5 157.5t123 119t129 82.5t127 48.5t117.5 16q57 0 95 -17.5t61.5 -49t33.5 -76t10 -98.5l81 222h148l-255 -700q-14 -39 -28 -79.5t-24.5 -80t-17 -76t-6.5 -67.5q0 -69 36.5 -110t113.5 -41q67 0 129.5 29t124 87.5t123.5 147t129 206.5
l51 92l27 -19l-52 -92q-73 -129 -139.5 -223.5t-132.5 -156t-135 -91.5t-147 -30q-61 0 -107.5 18.5t-78 52.5t-47.5 82t-16 107q0 39 7 84.5t21 94.5q-131 -220 -259 -329.5t-260 -109.5q-62 0 -105.5 22.5t-71.5 63t-41 95t-13 119.5q0 70 14 147.5t40 155.5zM209 31
q54 0 110 28.5t111.5 78t107.5 116t98.5 142t85.5 155.5t67.5 157.5t44 148t15.5 126.5q0 51 -12.5 85.5t-33 56t-47 30.5t-54.5 9q-56 0 -124.5 -34.5t-139.5 -105t-139.5 -178t-125.5 -252.5q-47 -121 -70.5 -224t-23.5 -172q0 -78 31.5 -122.5t98.5 -44.5zM935 1340
q-23 8 -54 24t-65 38t-67 49t-59 57t-42.5 60.5t-16.5 59.5q0 23 11 39.5t36 16.5q21 0 34.5 -13.5t27 -38.5t31 -59t47.5 -74q36 -48 75 -84t71 -50z" />
    <glyph glyph-name="aacute" unicode="&#xe1;" horiz-adv-x="1492" 
d="M-4 584q36 108 86 196.5t108.5 157.5t123 119t129 82.5t127 48.5t117.5 16q57 0 95 -17.5t61.5 -49t33.5 -76t10 -98.5l81 222h148l-255 -700q-14 -39 -28 -79.5t-24.5 -80t-17 -76t-6.5 -67.5q0 -69 36.5 -110t113.5 -41q67 0 129.5 29t124 87.5t123.5 147t129 206.5
l51 92l27 -19l-52 -92q-73 -129 -139.5 -223.5t-132.5 -156t-135 -91.5t-147 -30q-61 0 -107.5 18.5t-78 52.5t-47.5 82t-16 107q0 39 7 84.5t21 94.5q-131 -220 -259 -329.5t-260 -109.5q-62 0 -105.5 22.5t-71.5 63t-41 95t-13 119.5q0 70 14 147.5t40 155.5zM209 31
q54 0 110 28.5t111.5 78t107.5 116t98.5 142t85.5 155.5t67.5 157.5t44 148t15.5 126.5q0 51 -12.5 85.5t-33 56t-47 30.5t-54.5 9q-56 0 -124.5 -34.5t-139.5 -105t-139.5 -178t-125.5 -252.5q-47 -121 -70.5 -224t-23.5 -172q0 -78 31.5 -122.5t98.5 -44.5zM631 1365
q31 14 70.5 50t74.5 84q30 40 47.5 74t31 59t27.5 38.5t35 13.5q24 0 35.5 -16.5t11.5 -39.5q0 -29 -16.5 -60t-42.5 -60.5t-59.5 -56.5t-67.5 -49t-65.5 -38.5t-53.5 -23.5z" />
    <glyph glyph-name="acircumflex" unicode="&#xe2;" horiz-adv-x="1492" 
d="M-4 584q36 108 86 196.5t108.5 157.5t123 119t129 82.5t127 48.5t117.5 16q57 0 95 -17.5t61.5 -49t33.5 -76t10 -98.5l81 222h148l-255 -700q-14 -39 -28 -79.5t-24.5 -80t-17 -76t-6.5 -67.5q0 -69 36.5 -110t113.5 -41q67 0 129.5 29t124 87.5t123.5 147t129 206.5
l51 92l27 -19l-52 -92q-73 -129 -139.5 -223.5t-132.5 -156t-135 -91.5t-147 -30q-61 0 -107.5 18.5t-78 52.5t-47.5 82t-16 107q0 39 7 84.5t21 94.5q-131 -220 -259 -329.5t-260 -109.5q-62 0 -105.5 22.5t-71.5 63t-41 95t-13 119.5q0 70 14 147.5t40 155.5zM209 31
q54 0 110 28.5t111.5 78t107.5 116t98.5 142t85.5 155.5t67.5 157.5t44 148t15.5 126.5q0 51 -12.5 85.5t-33 56t-47 30.5t-54.5 9q-56 0 -124.5 -34.5t-139.5 -105t-139.5 -178t-125.5 -252.5q-47 -121 -70.5 -224t-23.5 -172q0 -78 31.5 -122.5t98.5 -44.5zM799 1656
q11 18 23 23t25 5q18 0 27.5 -7.5t14.5 -21.5q10 -35 22.5 -71t35 -73t58.5 -73.5t94 -72.5q-1 -1 -4.5 -5t-8.5 -9q-5 -6 -11 -13q-49 23 -93 56q-38 28 -77.5 70t-65.5 99l-12 -13.5t-34 -34.5t-52 -46.5t-65.5 -50.5t-74.5 -46t-78 -32q-1 0 -5.5 3.5t-9.5 8.5
q-6 5 -15 13q68 34 113 66.5t78 66.5t59 72.5t56 85.5z" />
    <glyph glyph-name="atilde" unicode="&#xe3;" horiz-adv-x="1492" 
d="M-4 584q36 108 86 196.5t108.5 157.5t123 119t129 82.5t127 48.5t117.5 16q57 0 95 -17.5t61.5 -49t33.5 -76t10 -98.5l81 222h148l-255 -700q-14 -39 -28 -79.5t-24.5 -80t-17 -76t-6.5 -67.5q0 -69 36.5 -110t113.5 -41q67 0 129.5 29t124 87.5t123.5 147t129 206.5
l51 92l27 -19l-52 -92q-73 -129 -139.5 -223.5t-132.5 -156t-135 -91.5t-147 -30q-61 0 -107.5 18.5t-78 52.5t-47.5 82t-16 107q0 39 7 84.5t21 94.5q-131 -220 -259 -329.5t-260 -109.5q-62 0 -105.5 22.5t-71.5 63t-41 95t-13 119.5q0 70 14 147.5t40 155.5zM209 31
q54 0 110 28.5t111.5 78t107.5 116t98.5 142t85.5 155.5t67.5 157.5t44 148t15.5 126.5q0 51 -12.5 85.5t-33 56t-47 30.5t-54.5 9q-56 0 -124.5 -34.5t-139.5 -105t-139.5 -178t-125.5 -252.5q-47 -121 -70.5 -224t-23.5 -172q0 -78 31.5 -122.5t98.5 -44.5zM634 1682
q44 0 78 -14.5t62.5 -36.5t53 -48t49.5 -48t52.5 -36.5t61.5 -14.5q38 0 69 18.5t54 45.5t38 58t21 55h44q-15 -53 -35.5 -103t-51.5 -90t-74 -64t-103 -24q-47 0 -80.5 14.5t-60 36.5t-48.5 47t-45 47t-50.5 36.5t-64.5 14.5q-48 0 -80.5 -22.5t-53.5 -53t-32.5 -61
t-16.5 -45.5h-43q12 40 30 90t47 94t72.5 74t106.5 30z" />
    <glyph glyph-name="adieresis" unicode="&#xe4;" horiz-adv-x="1492" 
d="M-4 584q36 108 86 196.5t108.5 157.5t123 119t129 82.5t127 48.5t117.5 16q57 0 95 -17.5t61.5 -49t33.5 -76t10 -98.5l81 222h148l-255 -700q-14 -39 -28 -79.5t-24.5 -80t-17 -76t-6.5 -67.5q0 -69 36.5 -110t113.5 -41q67 0 129.5 29t124 87.5t123.5 147t129 206.5
l51 92l27 -19l-52 -92q-73 -129 -139.5 -223.5t-132.5 -156t-135 -91.5t-147 -30q-61 0 -107.5 18.5t-78 52.5t-47.5 82t-16 107q0 39 7 84.5t21 94.5q-131 -220 -259 -329.5t-260 -109.5q-62 0 -105.5 22.5t-71.5 63t-41 95t-13 119.5q0 70 14 147.5t40 155.5zM209 31
q54 0 110 28.5t111.5 78t107.5 116t98.5 142t85.5 155.5t67.5 157.5t44 148t15.5 126.5q0 51 -12.5 85.5t-33 56t-47 30.5t-54.5 9q-56 0 -124.5 -34.5t-139.5 -105t-139.5 -178t-125.5 -252.5q-47 -121 -70.5 -224t-23.5 -172q0 -78 31.5 -122.5t98.5 -44.5zM567 1447
q0 35 21.5 60t52.5 25t53 -24.5t22 -59.5t-22.5 -59t-53.5 -24t-52 23.5t-21 58.5zM881 1447q0 35 22 60t52 25q32 0 53.5 -24.5t21.5 -59.5t-22 -59t-53 -24t-52.5 23.5t-21.5 58.5z" />
    <glyph glyph-name="aring" unicode="&#xe5;" horiz-adv-x="1492" 
d="M-4 584q36 108 86 196.5t108.5 157.5t123 119t129 82.5t127 48.5t117.5 16q57 0 95 -17.5t61.5 -49t33.5 -76t10 -98.5l81 222h148l-255 -700q-14 -39 -28 -79.5t-24.5 -80t-17 -76t-6.5 -67.5q0 -69 36.5 -110t113.5 -41q67 0 129.5 29t124 87.5t123.5 147t129 206.5
l51 92l27 -19l-52 -92q-73 -129 -139.5 -223.5t-132.5 -156t-135 -91.5t-147 -30q-61 0 -107.5 18.5t-78 52.5t-47.5 82t-16 107q0 39 7 84.5t21 94.5q-131 -220 -259 -329.5t-260 -109.5q-62 0 -105.5 22.5t-71.5 63t-41 95t-13 119.5q0 70 14 147.5t40 155.5zM209 31
q54 0 110 28.5t111.5 78t107.5 116t98.5 142t85.5 155.5t67.5 157.5t44 148t15.5 126.5q0 51 -12.5 85.5t-33 56t-47 30.5t-54.5 9q-56 0 -124.5 -34.5t-139.5 -105t-139.5 -178t-125.5 -252.5q-47 -121 -70.5 -224t-23.5 -172q0 -78 31.5 -122.5t98.5 -44.5zM647 1533
q0 32 12 60t32 48.5t47.5 32.5t58.5 12t58.5 -12t48 -32.5t32.5 -48t12 -58.5t-12 -58.5t-32.5 -47.5t-48.5 -32t-60 -12q-31 0 -58 11.5t-47 31.5t-31.5 47t-11.5 58zM686 1533q0 -23 8.5 -43t23 -34.5t34.5 -23t43 -8.5q24 0 44.5 9t35.5 24t23.5 35t8.5 43t-8.5 43
t-23.5 35t-35 23.5t-43 8.5t-43 -8.5t-35 -23.5t-24 -35.5t-9 -44.5z" />
    <glyph glyph-name="ae" unicode="&#xe6;" horiz-adv-x="1770" 
d="M1083 -19q-83 0 -149.5 24t-113 71t-71.5 117.5t-25 163.5q0 33 3 68.5t10 72.5l-9 -16q-140 -251 -277 -376t-278 -125q-62 0 -105.5 22.5t-71.5 63t-41 95t-13 119.5q0 70 14 147.5t40 155.5q36 108 86 196.5t108.5 157.5t123 119t129 82.5t127 48.5t117.5 16
q42 0 78.5 -10.5t63.5 -37.5t42.5 -73t15.5 -116l89 243h148l-44 -121q72 54 149.5 84.5t157.5 30.5q100 0 157.5 -47t57.5 -132q0 -48 -19 -94t-54.5 -87t-86 -76.5t-113.5 -61.5q-156 -66 -367 -66h-19q-9 -23 -15 -47q-24 -82 -36 -159.5t-12 -140.5q0 -135 55 -198.5
t169 -63.5q96 0 185.5 41t168.5 107.5t145 150.5t115 171l52 92l27 -19l-52 -92q-61 -108 -132 -200t-153 -158.5t-176 -104.5t-201 -38zM752 593q28 57 46.5 115.5t30 110.5t16 94t4.5 66q0 53 -12.5 88.5t-33 57t-47 30.5t-53.5 9q-28 0 -65 -9.5t-80 -33.5t-90.5 -65.5
t-97 -105t-99 -151.5t-96.5 -206q-48 -120 -72 -218.5t-24 -170.5q0 -83 31 -128t95 -45q50 0 115 34t137.5 103.5t148 175t146.5 249.5zM1416 1164q-63 0 -129 -37t-127 -102.5t-114 -154.5t-91 -194q109 2 187 19t137 45q46 21 89 54.5t76.5 76.5t54 93t20.5 104
q0 53 -30 74.5t-73 21.5z" />
    <glyph glyph-name="ccedilla" unicode="&#xe7;" horiz-adv-x="1057" 
d="M97 -351q42 -35 89 -55.5t87 -20.5q26 0 48.5 9.5t39 27t26 40.5t9.5 50q0 59 -45.5 92t-125.5 33h-22t-10 -1l70 162q-149 19 -223.5 113t-74.5 257q0 54 8 111t23 115q36 134 101.5 248t150 197t183 130t200.5 47q107 0 163 -56q23 -23 35 -50.5t12 -56.5
q0 -44 -24.5 -70t-65.5 -26q-34 0 -53.5 19.5t-19.5 53.5q0 32 17 52t45 20q10 0 19 -4q5 -2 7 -2.5t4 -0.5q9 0 9 13t-10 25.5t-27 22t-39.5 15t-46.5 5.5q-62 0 -125.5 -36t-123 -98.5t-112 -146.5t-91.5 -179.5t-61.5 -197.5t-22.5 -200q0 -74 13.5 -126t42 -85
t73.5 -48.5t108 -15.5q93 0 181.5 31t171 90.5t157 147t138.5 201.5l52 92l27 -19l-52 -92q-143 -254 -316 -377.5t-378 -123.5q-5 0 -9.5 0.5t-9.5 0.5l-62 -138h22q102 0 157 -36t55 -104q0 -35 -15 -65t-42 -52t-64 -34t-81 -12q-57 0 -108 21.5t-100 68.5z" />
    <glyph glyph-name="egrave" unicode="&#xe8;" horiz-adv-x="1057" 
d="M342 -19q-181 0 -279 94.5t-98 281.5q0 51 7.5 108t23.5 117q36 134 101.5 248t150.5 197t183 130t197 47q100 0 157.5 -47t57.5 -132q0 -48 -19 -94t-55 -87t-86.5 -76.5t-113.5 -61.5q-78 -33 -172 -49.5t-214 -16.5q-29 -81 -45.5 -168.5t-16.5 -178.5
q0 -139 58.5 -200.5t184.5 -61.5q105 0 200 40.5t176 106.5t148 150.5t117 172.5l52 92l27 -19l-52 -92q-62 -109 -135.5 -201t-160 -158.5t-185 -104t-209.5 -37.5zM656 1164q-63 0 -128.5 -37t-126.5 -102.5t-114 -154.5t-92 -194q110 2 188 19t136 45q46 21 89.5 54.5
t77 76.5t54 93t20.5 104q0 27 -8 45t-22 29.5t-33 16.5t-41 5zM715 1340q-22 8 -53.5 24t-65.5 38t-67.5 49t-59.5 57t-42.5 60.5t-16.5 59.5q0 23 11.5 39.5t35.5 16.5q21 0 34.5 -13.5t27 -38.5t31.5 -59t48 -74q35 -48 74.5 -84t70.5 -50z" />
    <glyph glyph-name="eacute" unicode="&#xe9;" horiz-adv-x="1057" 
d="M342 -19q-181 0 -279 94.5t-98 281.5q0 51 7.5 108t23.5 117q36 134 101.5 248t150.5 197t183 130t197 47q100 0 157.5 -47t57.5 -132q0 -48 -19 -94t-55 -87t-86.5 -76.5t-113.5 -61.5q-78 -33 -172 -49.5t-214 -16.5q-29 -81 -45.5 -168.5t-16.5 -178.5
q0 -139 58.5 -200.5t184.5 -61.5q105 0 200 40.5t176 106.5t148 150.5t117 172.5l52 92l27 -19l-52 -92q-62 -109 -135.5 -201t-160 -158.5t-185 -104t-209.5 -37.5zM656 1164q-63 0 -128.5 -37t-126.5 -102.5t-114 -154.5t-92 -194q110 2 188 19t136 45q46 21 89.5 54.5
t77 76.5t54 93t20.5 104q0 27 -8 45t-22 29.5t-33 16.5t-41 5zM564 1365q32 14 71 50t74 84q30 40 48 74t31.5 59t27 38.5t34.5 13.5q24 0 35.5 -16.5t11.5 -39.5q0 -29 -16.5 -60t-42.5 -60.5t-59.5 -56.5t-67 -49t-65 -38.5t-53.5 -23.5z" />
    <glyph glyph-name="ecircumflex" unicode="&#xea;" horiz-adv-x="1057" 
d="M342 -19q-181 0 -279 94.5t-98 281.5q0 51 7.5 108t23.5 117q36 134 101.5 248t150.5 197t183 130t197 47q100 0 157.5 -47t57.5 -132q0 -48 -19 -94t-55 -87t-86.5 -76.5t-113.5 -61.5q-78 -33 -172 -49.5t-214 -16.5q-29 -81 -45.5 -168.5t-16.5 -178.5
q0 -139 58.5 -200.5t184.5 -61.5q105 0 200 40.5t176 106.5t148 150.5t117 172.5l52 92l27 -19l-52 -92q-62 -109 -135.5 -201t-160 -158.5t-185 -104t-209.5 -37.5zM656 1164q-63 0 -128.5 -37t-126.5 -102.5t-114 -154.5t-92 -194q110 2 188 19t136 45q46 21 89.5 54.5
t77 76.5t54 93t20.5 104q0 27 -8 45t-22 29.5t-33 16.5t-41 5zM666 1656q11 18 23 23t25 5q18 0 27.5 -7.5t14.5 -21.5q10 -35 22 -71t34.5 -73t59 -73.5t94.5 -72.5q-1 -1 -4.5 -5t-8.5 -9q-5 -6 -11 -13q-49 23 -93 56q-38 28 -77.5 70t-65.5 99q-47 -50 -99 -94
q-22 -19 -48 -38t-53.5 -36.5t-57 -31.5t-58.5 -23q-1 0 -5.5 3.5t-9.5 8.5q-6 5 -15 13q68 34 113 66.5t78 66.5t59 72.5t56 85.5z" />
    <glyph glyph-name="edieresis" unicode="&#xeb;" horiz-adv-x="1057" 
d="M342 -19q-181 0 -279 94.5t-98 281.5q0 51 7.5 108t23.5 117q36 134 101.5 248t150.5 197t183 130t197 47q100 0 157.5 -47t57.5 -132q0 -48 -19 -94t-55 -87t-86.5 -76.5t-113.5 -61.5q-78 -33 -172 -49.5t-214 -16.5q-29 -81 -45.5 -168.5t-16.5 -178.5
q0 -139 58.5 -200.5t184.5 -61.5q105 0 200 40.5t176 106.5t148 150.5t117 172.5l52 92l27 -19l-52 -92q-62 -109 -135.5 -201t-160 -158.5t-185 -104t-209.5 -37.5zM656 1164q-63 0 -128.5 -37t-126.5 -102.5t-114 -154.5t-92 -194q110 2 188 19t136 45q46 21 89.5 54.5
t77 76.5t54 93t20.5 104q0 27 -8 45t-22 29.5t-33 16.5t-41 5zM500 1447q0 35 21.5 60t52.5 25q32 0 53.5 -24.5t21.5 -59.5t-22 -59t-54 -24q-31 0 -52 23.5t-21 58.5zM815 1447q0 35 21.5 60t52.5 25t53 -24.5t22 -59.5t-22 -59t-54 -24q-31 0 -52 23.5t-21 58.5z" />
    <glyph glyph-name="igrave" unicode="&#xec;" 
d="M216 1185h148l-255 -700q-14 -39 -28 -79.5t-24.5 -80t-17 -76t-6.5 -67.5q0 -69 36.5 -110t113.5 -41q67 0 129.5 29t124 87.5t123.5 147t129 206.5l52 92l27 -19l-52 -92q-73 -129 -139.5 -223.5t-133 -156t-135.5 -91.5t-147 -30q-61 0 -107.5 18.5t-78 52.5t-47.5 82
t-16 107q0 52 12.5 114t36.5 130zM517 1340q-23 8 -54 24t-65 38t-67.5 49t-59.5 57t-42.5 60.5t-16.5 59.5q0 23 11.5 39.5t35.5 16.5q21 0 34.5 -13.5t27 -38.5t31.5 -59t48 -74q35 -48 74.5 -84t70.5 -50z" />
    <glyph glyph-name="iacute" unicode="&#xed;" 
d="M216 1185h148l-255 -700q-14 -39 -28 -79.5t-24.5 -80t-17 -76t-6.5 -67.5q0 -69 36.5 -110t113.5 -41q67 0 129.5 29t124 87.5t123.5 147t129 206.5l52 92l27 -19l-52 -92q-73 -129 -139.5 -223.5t-133 -156t-135.5 -91.5t-147 -30q-61 0 -107.5 18.5t-78 52.5t-47.5 82
t-16 107q0 52 12.5 114t36.5 130zM212 1365q32 14 71 50t74 84q30 40 48 74t31.5 59t27 38.5t34.5 13.5q25 0 36 -16.5t11 -39.5q0 -29 -16.5 -60t-42.5 -60.5t-59 -56.5t-67 -49t-65.5 -38.5t-53.5 -23.5z" />
    <glyph glyph-name="icircumflex" unicode="&#xee;" 
d="M216 1185h148l-255 -700q-14 -39 -28 -79.5t-24.5 -80t-17 -76t-6.5 -67.5q0 -69 36.5 -110t113.5 -41q67 0 129.5 29t124 87.5t123.5 147t129 206.5l52 92l27 -19l-52 -92q-73 -129 -139.5 -223.5t-133 -156t-135.5 -91.5t-147 -30q-61 0 -107.5 18.5t-78 52.5t-47.5 82
t-16 107q0 52 12.5 114t36.5 130zM381 1656q11 18 23 23t25 5q18 0 27.5 -7.5t13.5 -21.5q10 -35 22.5 -71t35 -73t59 -73.5t94.5 -72.5q-1 -1 -4.5 -5t-8.5 -9q-5 -6 -12 -13q-48 23 -92 56q-38 28 -78 70t-66 99l-12 -13.5t-34 -34.5t-52 -46.5t-65 -50.5t-74 -46t-78 -32
q-1 0 -5.5 3.5t-9.5 8.5q-6 5 -15 13q68 34 113 66.5t78 66.5t59 72.5t56 85.5z" />
    <glyph glyph-name="idieresis" unicode="&#xef;" 
d="M216 1185h148l-255 -700q-14 -39 -28 -79.5t-24.5 -80t-17 -76t-6.5 -67.5q0 -69 36.5 -110t113.5 -41q67 0 129.5 29t124 87.5t123.5 147t129 206.5l52 92l27 -19l-52 -92q-73 -129 -139.5 -223.5t-133 -156t-135.5 -91.5t-147 -30q-61 0 -107.5 18.5t-78 52.5t-47.5 82
t-16 107q0 52 12.5 114t36.5 130zM148 1447q0 35 21.5 60t52.5 25q32 0 53.5 -24.5t21.5 -59.5t-22 -59t-54 -24q-30 0 -51.5 23.5t-21.5 58.5zM463 1447q0 35 21.5 60t52.5 25q32 0 53.5 -24.5t21.5 -59.5t-22 -59t-54 -24q-31 0 -52 23.5t-21 58.5z" />
    <glyph glyph-name="eth" unicode="&#xf0;" horiz-adv-x="1237" 
d="M470 1422l317 72q-64 127 -146 218h53q47 -45 86 -95.5t72 -107.5l303 71v-40l-284 -66q61 -114 93 -242t32 -264q0 -124 -26.5 -245t-74 -231t-113.5 -203.5t-146 -162t-171 -107t-188 -38.5q-78 0 -137 25.5t-99 73.5t-60 117.5t-20 156.5q0 57 8 113.5t23 112.5
q32 121 93.5 222.5t143 174t178.5 113t199 40.5q80 0 133.5 -24t86.5 -66t47.5 -98t16.5 -119q11 53 16 106t5 97q0 103 -29 215t-77 218l-335 -77v40zM276 31q73 0 150.5 44t149 119.5t131 176.5t95.5 215q17 53 28.5 114t11.5 129q0 61 -11.5 109.5t-35.5 82t-62.5 51.5
t-92.5 18q-73 0 -143 -32.5t-131.5 -96t-112.5 -156t-87 -212.5q-26 -86 -39.5 -170.5t-13.5 -154.5q0 -237 163 -237z" />
    <glyph glyph-name="ntilde" unicode="&#xf1;" horiz-adv-x="1453" 
d="M215 1185h148l-157 -430q67 114 129 198.5t123.5 140t124.5 83t133 27.5q63 0 110 -20.5t79 -56t48 -82.5t16 -99q0 -57 -16.5 -124t-41.5 -138t-54 -143.5t-54 -139.5t-41.5 -125.5t-16.5 -102.5q0 -61 37.5 -101.5t117.5 -40.5q64 0 125.5 29.5t123 88t124 147
t128.5 205.5l52 92l27 -19l-52 -92q-72 -126 -138 -220.5t-132 -156.5t-134.5 -93t-145.5 -31q-63 0 -110.5 19t-79.5 52t-48 76.5t-16 92.5q0 52 16.5 116.5t41.5 135t54 143t54 141t41.5 130t16.5 109.5q0 34 -9 63t-28.5 50t-49 33t-70.5 12q-63 0 -123 -30.5
t-120.5 -91.5t-123 -152.5t-131.5 -213.5l-52 -92l-210 -574h-148zM634 1682q44 0 78 -14.5t62.5 -36.5t53 -48t49.5 -48t52.5 -36.5t61.5 -14.5q38 0 69 18.5t54 45.5t38 58t21 55h44q-15 -53 -35.5 -103t-51.5 -90t-74 -64t-103 -24q-47 0 -80.5 14.5t-60 36.5t-48.5 47
t-45 47t-50.5 36.5t-64.5 14.5q-48 0 -80.5 -22.5t-53.5 -53t-32.5 -61t-16.5 -45.5h-43q12 40 30 90t47 94t72.5 74t106.5 30z" />
    <glyph glyph-name="ograve" unicode="&#xf2;" horiz-adv-x="1223" 
d="M-8 581q35 134 102.5 248t155 197.5t190 130.5t206.5 47q84 0 141.5 -28.5t92.5 -76.5t50 -111t15 -132q0 -75 -14.5 -150t-37.5 -143q-43 -126 -111 -232.5t-151.5 -184.5t-177.5 -121.5t-188 -43.5q-71 0 -127.5 25.5t-95.5 73.5t-60 117.5t-21 156.5q0 55 8 112.5
t23 114.5zM280 31q72 0 146.5 41t144 114.5t129.5 175.5t103 224q12 33 23.5 74t21.5 85.5t16 91t6 90.5q0 48 -9 91.5t-30.5 75.5t-58 51t-90.5 19q-78 0 -154.5 -41.5t-145 -117t-124.5 -180.5t-93 -232q-25 -85 -38.5 -170.5t-13.5 -155.5q0 -236 167 -236zM861 1340
q-23 8 -54 24t-65 38t-67.5 49t-59.5 57t-42.5 60.5t-16.5 59.5q0 23 11.5 39.5t36.5 16.5q21 0 34.5 -13.5t27 -38.5t31 -59t47.5 -74q36 -48 75 -84t71 -50z" />
    <glyph glyph-name="oacute" unicode="&#xf3;" horiz-adv-x="1223" 
d="M-8 581q35 134 102.5 248t155 197.5t190 130.5t206.5 47q84 0 141.5 -28.5t92.5 -76.5t50 -111t15 -132q0 -75 -14.5 -150t-37.5 -143q-43 -126 -111 -232.5t-151.5 -184.5t-177.5 -121.5t-188 -43.5q-71 0 -127.5 25.5t-95.5 73.5t-60 117.5t-21 156.5q0 55 8 112.5
t23 114.5zM280 31q72 0 146.5 41t144 114.5t129.5 175.5t103 224q12 33 23.5 74t21.5 85.5t16 91t6 90.5q0 48 -9 91.5t-30.5 75.5t-58 51t-90.5 19q-78 0 -154.5 -41.5t-145 -117t-124.5 -180.5t-93 -232q-25 -85 -38.5 -170.5t-13.5 -155.5q0 -236 167 -236zM628 1365
q31 14 70.5 50t74.5 84q30 40 48 74t31.5 59t27 38.5t34.5 13.5q24 0 35.5 -16.5t11.5 -39.5q0 -29 -16.5 -60t-42.5 -60.5t-59.5 -56.5t-67.5 -49t-65.5 -38.5t-53.5 -23.5z" />
    <glyph glyph-name="ocircumflex" unicode="&#xf4;" horiz-adv-x="1223" 
d="M-8 581q35 134 102.5 248t155 197.5t190 130.5t206.5 47q84 0 141.5 -28.5t92.5 -76.5t50 -111t15 -132q0 -75 -14.5 -150t-37.5 -143q-43 -126 -111 -232.5t-151.5 -184.5t-177.5 -121.5t-188 -43.5q-71 0 -127.5 25.5t-95.5 73.5t-60 117.5t-21 156.5q0 55 8 112.5
t23 114.5zM280 31q72 0 146.5 41t144 114.5t129.5 175.5t103 224q12 33 23.5 74t21.5 85.5t16 91t6 90.5q0 48 -9 91.5t-30.5 75.5t-58 51t-90.5 19q-78 0 -154.5 -41.5t-145 -117t-124.5 -180.5t-93 -232q-25 -85 -38.5 -170.5t-13.5 -155.5q0 -236 167 -236zM796 1656
q11 18 23.5 23t24.5 5q18 0 27.5 -7.5t14.5 -21.5q10 -35 22.5 -71t35 -73t59 -73.5t93.5 -72.5q-1 -1 -4.5 -5t-8.5 -9q-5 -6 -11 -13q-48 23 -92 56q-38 28 -78 70t-66 99l-12 -13.5t-34 -34.5t-52 -46.5t-65.5 -50.5t-74.5 -46t-78 -32q-1 0 -5.5 3.5t-9.5 8.5
q-6 5 -14 13q67 34 112.5 66.5t78.5 66.5t59 72.5t55 85.5z" />
    <glyph glyph-name="otilde" unicode="&#xf5;" horiz-adv-x="1223" 
d="M-8 581q35 134 102.5 248t155 197.5t190 130.5t206.5 47q84 0 141.5 -28.5t92.5 -76.5t50 -111t15 -132q0 -75 -14.5 -150t-37.5 -143q-43 -126 -111 -232.5t-151.5 -184.5t-177.5 -121.5t-188 -43.5q-71 0 -127.5 25.5t-95.5 73.5t-60 117.5t-21 156.5q0 55 8 112.5
t23 114.5zM280 31q72 0 146.5 41t144 114.5t129.5 175.5t103 224q12 33 23.5 74t21.5 85.5t16 91t6 90.5q0 48 -9 91.5t-30.5 75.5t-58 51t-90.5 19q-78 0 -154.5 -41.5t-145 -117t-124.5 -180.5t-93 -232q-25 -85 -38.5 -170.5t-13.5 -155.5q0 -236 167 -236zM631 1682
q44 0 78 -14.5t62.5 -36.5t53.5 -48t50 -48t52 -36.5t61 -14.5q38 0 69 18.5t54.5 45.5t38 58t20.5 55h44q-15 -53 -35.5 -103t-51.5 -90t-74 -64t-103 -24q-47 0 -80.5 14.5t-60 36.5t-48.5 47t-45 47t-50.5 36.5t-64.5 14.5q-48 0 -80.5 -22.5t-53.5 -53t-32.5 -61
t-16.5 -45.5h-43q12 40 30 90t47 94t72.5 74t106.5 30z" />
    <glyph glyph-name="odieresis" unicode="&#xf6;" horiz-adv-x="1223" 
d="M-8 581q35 134 102.5 248t155 197.5t190 130.5t206.5 47q84 0 141.5 -28.5t92.5 -76.5t50 -111t15 -132q0 -75 -14.5 -150t-37.5 -143q-43 -126 -111 -232.5t-151.5 -184.5t-177.5 -121.5t-188 -43.5q-71 0 -127.5 25.5t-95.5 73.5t-60 117.5t-21 156.5q0 55 8 112.5
t23 114.5zM280 31q72 0 146.5 41t144 114.5t129.5 175.5t103 224q12 33 23.5 74t21.5 85.5t16 91t6 90.5q0 48 -9 91.5t-30.5 75.5t-58 51t-90.5 19q-78 0 -154.5 -41.5t-145 -117t-124.5 -180.5t-93 -232q-25 -85 -38.5 -170.5t-13.5 -155.5q0 -236 167 -236zM564 1447
q0 35 21.5 60t52.5 25q32 0 53.5 -24.5t21.5 -59.5t-22 -59t-54 -24q-31 0 -52 23.5t-21 58.5zM879 1447q0 35 21.5 60t52.5 25t53 -24.5t22 -59.5t-22.5 -59t-53.5 -24t-52 23.5t-21 58.5z" />
    <glyph glyph-name="divide" unicode="&#xf7;" horiz-adv-x="905" 
d="M194 89q0 19 7.5 36.5t20 30t29.5 20t36 7.5t36 -7.5t30 -20t20.5 -29.5t7.5 -36t-7.5 -36t-20.5 -29.5t-30.5 -20t-36.5 -7.5t-36 7t-29.5 19.5t-19.5 29.5t-7 36zM531 1005q0 19 7 36.5t19.5 30.5t29.5 20.5t36 7.5t36 -7.5t30 -20.5t20.5 -30t7.5 -36t-7.5 -36
t-20.5 -29.5t-30.5 -19.5t-36.5 -7t-35.5 7t-29 19.5t-19.5 29t-7 35.5zM97 585h733v-92h-733v92z" />
    <glyph glyph-name="oslash" unicode="&#xf8;" horiz-adv-x="1223" 
d="M-8 581q35 134 102.5 248t155 197.5t190 130.5t206.5 47q81 0 136.5 -25.5t90.5 -70.5l87 96h117l-160 -174q15 -39 21.5 -83t6.5 -91q0 -75 -14.5 -150t-37.5 -143q-43 -126 -111 -232.5t-151.5 -184.5t-177.5 -121.5t-188 -43.5q-72 0 -128 25t-94 73l-90 -98h-117
l161 175q-17 41 -26.5 90.5t-9.5 107.5q0 55 8 112.5t23 114.5zM280 31q72 0 146.5 41t144 114.5t129.5 175.5t103 224q12 33 23.5 74t21.5 85.5t16 91t6 90.5q0 12 -0.5 24.5t-1.5 24.5l-746 -810q31 -135 158 -135zM165 593q-23 -81 -36.5 -161.5t-15.5 -149.5l729 793
q-21 41 -59 65t-101 24q-78 0 -154.5 -41.5t-145 -117t-124.5 -180.5t-93 -232z" />
    <glyph glyph-name="ugrave" unicode="&#xf9;" horiz-adv-x="1480" 
d="M215 1185h148l-255 -700q-14 -39 -28 -79.5t-24.5 -80t-17 -76t-6.5 -67.5q0 -69 37 -110t113 -41q67 0 129.5 29t124 87.5t123.5 147t129 206.5l49 88l218 596h148l-255 -700q-14 -39 -28 -79.5t-24.5 -80t-17 -76t-6.5 -67.5q0 -69 36.5 -110t113.5 -41q67 0 129.5 29
t124 87.5t123.5 147t129 206.5l52 92l26 -19l-51 -92q-73 -129 -139.5 -223.5t-133 -156t-135.5 -91.5t-147 -30q-61 0 -107.5 18.5t-78 52.5t-47.5 82t-16 107q0 39 7 84.5t21 93.5q-67 -113 -129 -195.5t-124 -136.5t-127.5 -80t-138.5 -26q-61 0 -107.5 18.5t-78 52.5
t-47.5 82t-16 107q0 52 12.5 114t36.5 130zM786 1340q-23 8 -54 24t-65 38t-67.5 49t-59.5 57t-42.5 60.5t-16.5 59.5q0 23 11.5 39.5t36.5 16.5q21 0 34.5 -13.5t27 -38.5t31 -59t47.5 -74q36 -48 75 -84t71 -50z" />
    <glyph glyph-name="uacute" unicode="&#xfa;" horiz-adv-x="1480" 
d="M215 1185h148l-255 -700q-14 -39 -28 -79.5t-24.5 -80t-17 -76t-6.5 -67.5q0 -69 37 -110t113 -41q67 0 129.5 29t124 87.5t123.5 147t129 206.5l49 88l218 596h148l-255 -700q-14 -39 -28 -79.5t-24.5 -80t-17 -76t-6.5 -67.5q0 -69 36.5 -110t113.5 -41q67 0 129.5 29
t124 87.5t123.5 147t129 206.5l52 92l26 -19l-51 -92q-73 -129 -139.5 -223.5t-133 -156t-135.5 -91.5t-147 -30q-61 0 -107.5 18.5t-78 52.5t-47.5 82t-16 107q0 39 7 84.5t21 93.5q-67 -113 -129 -195.5t-124 -136.5t-127.5 -80t-138.5 -26q-61 0 -107.5 18.5t-78 52.5
t-47.5 82t-16 107q0 52 12.5 114t36.5 130zM550 1365q32 14 71 50t74 84q30 40 48 74t31.5 59t27 38.5t34.5 13.5q24 0 35.5 -16.5t11.5 -39.5q0 -29 -16.5 -60t-42.5 -60.5t-59.5 -56.5t-67 -49t-65 -38.5t-53.5 -23.5z" />
    <glyph glyph-name="ucircumflex" unicode="&#xfb;" horiz-adv-x="1480" 
d="M215 1185h148l-255 -700q-14 -39 -28 -79.5t-24.5 -80t-17 -76t-6.5 -67.5q0 -69 37 -110t113 -41q67 0 129.5 29t124 87.5t123.5 147t129 206.5l49 88l218 596h148l-255 -700q-14 -39 -28 -79.5t-24.5 -80t-17 -76t-6.5 -67.5q0 -69 36.5 -110t113.5 -41q67 0 129.5 29
t124 87.5t123.5 147t129 206.5l52 92l26 -19l-51 -92q-73 -129 -139.5 -223.5t-133 -156t-135.5 -91.5t-147 -30q-61 0 -107.5 18.5t-78 52.5t-47.5 82t-16 107q0 39 7 84.5t21 93.5q-67 -113 -129 -195.5t-124 -136.5t-127.5 -80t-138.5 -26q-61 0 -107.5 18.5t-78 52.5
t-47.5 82t-16 107q0 52 12.5 114t36.5 130zM687 1656q11 18 23 23t25 5q18 0 27.5 -7.5t14.5 -21.5q10 -35 22.5 -71t35 -73t58.5 -73.5t94 -72.5q-1 -1 -4.5 -5t-8.5 -9q-5 -6 -11 -13q-49 23 -93 56q-38 28 -77.5 70t-65.5 99l-12.5 -13.5t-34.5 -34.5t-52 -46.5
t-65 -50.5t-74 -46t-78 -32q-1 0 -5.5 3.5t-9.5 8.5q-6 5 -15 13q68 34 113 66.5t78 66.5t59 72.5t56 85.5z" />
    <glyph glyph-name="udieresis" unicode="&#xfc;" horiz-adv-x="1480" 
d="M215 1185h148l-255 -700q-14 -39 -28 -79.5t-24.5 -80t-17 -76t-6.5 -67.5q0 -69 37 -110t113 -41q67 0 129.5 29t124 87.5t123.5 147t129 206.5l49 88l218 596h148l-255 -700q-14 -39 -28 -79.5t-24.5 -80t-17 -76t-6.5 -67.5q0 -69 36.5 -110t113.5 -41q67 0 129.5 29
t124 87.5t123.5 147t129 206.5l52 92l26 -19l-51 -92q-73 -129 -139.5 -223.5t-133 -156t-135.5 -91.5t-147 -30q-61 0 -107.5 18.5t-78 52.5t-47.5 82t-16 107q0 39 7 84.5t21 93.5q-67 -113 -129 -195.5t-124 -136.5t-127.5 -80t-138.5 -26q-61 0 -107.5 18.5t-78 52.5
t-47.5 82t-16 107q0 52 12.5 114t36.5 130zM486 1447q0 35 21.5 60t52.5 25q32 0 53.5 -24.5t21.5 -59.5t-22 -59t-54 -24q-31 0 -52 23.5t-21 58.5zM801 1447q0 35 21.5 60t52.5 25q32 0 53.5 -24.5t21.5 -59.5t-22 -59t-54 -24q-31 0 -52 23.5t-21 58.5z" />
    <glyph glyph-name="yacute" unicode="&#xfd;" horiz-adv-x="1342" 
d="M215 1185h148l-255 -700q-14 -39 -28 -79.5t-24.5 -80t-17 -76t-6.5 -67.5q0 -69 37 -110t113 -41q67 0 129 29.5t123 88t123.5 146.5t130.5 206l53 91l215 593h149l-472 -1297q-73 -202 -216.5 -308.5t-343.5 -106.5q-97 0 -161.5 26t-103.5 82q-20 27 -30 57.5
t-10 60.5q0 45 23.5 71t64.5 26q35 0 55 -19t20 -53q0 -32 -17 -52t-43 -20q-11 0 -17.5 3t-14.5 3q-6 0 -7.5 -2.5t-1.5 -10.5q0 -28 18 -51.5t50 -41t75.5 -27t95.5 -9.5q73 0 134 21t111.5 65.5t91.5 113.5t76 164l196 538q-66 -112 -128 -194.5t-124.5 -136.5
t-127.5 -80t-138 -26q-61 0 -107.5 18.5t-78 52.5t-47.5 82t-16 107q0 52 12.5 114t36.5 130zM550 1365q32 14 71 50t74 84q30 40 48 74t31.5 59t27 38.5t34.5 13.5q24 0 35.5 -16.5t11.5 -39.5q0 -29 -16.5 -60t-42.5 -60.5t-59.5 -56.5t-67 -49t-65 -38.5t-53.5 -23.5z
" />
    <glyph glyph-name="thorn" unicode="&#xfe;" horiz-adv-x="1241" 
d="M491 1528l-274 -753q129 215 255.5 322t257.5 107q61 0 105 -22.5t72 -63t41 -95.5t13 -119q0 -70 -14 -147t-41 -156q-36 -108 -86 -196t-108.5 -157t-122.5 -119.5t-128.5 -83t-127 -48.5t-117.5 -16q-92 0 -156 27t-100 78l-147 -399h-148l678 1841h148zM699 1154
q-54 0 -111 -30t-113.5 -82t-111 -121t-103.5 -146.5t-90 -160t-70.5 -161t-46.5 -148.5t-17 -123q0 -75 40 -118t125 -43q42 0 103.5 23t132 85.5t146 174t146.5 288.5q48 120 72 218.5t24 170.5q0 84 -31.5 128.5t-94.5 44.5z" />
    <glyph glyph-name="ydieresis" unicode="&#xff;" horiz-adv-x="1342" 
d="M215 1185h148l-255 -700q-14 -39 -28 -79.5t-24.5 -80t-17 -76t-6.5 -67.5q0 -69 37 -110t113 -41q67 0 129 29.5t123 88t123.5 146.5t130.5 206l53 91l215 593h149l-472 -1297q-73 -202 -216.5 -308.5t-343.5 -106.5q-97 0 -161.5 26t-103.5 82q-20 27 -30 57.5
t-10 60.5q0 45 23.5 71t64.5 26q35 0 55 -19t20 -53q0 -32 -17 -52t-43 -20q-11 0 -17.5 3t-14.5 3q-6 0 -7.5 -2.5t-1.5 -10.5q0 -28 18 -51.5t50 -41t75.5 -27t95.5 -9.5q73 0 134 21t111.5 65.5t91.5 113.5t76 164l196 538q-66 -112 -128 -194.5t-124.5 -136.5
t-127.5 -80t-138 -26q-61 0 -107.5 18.5t-78 52.5t-47.5 82t-16 107q0 52 12.5 114t36.5 130zM486 1447q0 35 21.5 60t52.5 25q32 0 53.5 -24.5t21.5 -59.5t-22 -59t-54 -24q-31 0 -52 23.5t-21 58.5zM801 1447q0 35 21.5 60t52.5 25q32 0 53.5 -24.5t21.5 -59.5t-22 -59
t-54 -24q-31 0 -52 23.5t-21 58.5z" />
    <glyph glyph-name="Amacron" unicode="&#x100;" horiz-adv-x="2097" 
d="M340 589q0 -21 -10.5 -31.5t-28 -16.5t-40.5 -10.5t-48 -12.5q-21 -6 -50 -21.5t-56 -45.5t-45.5 -78.5t-18.5 -121.5q0 -75 20.5 -124.5t54.5 -79.5t77.5 -42.5t89.5 -12.5q52 0 99 15t91 45t87 76t88 108q55 77 107.5 169.5t103.5 193t99.5 204.5t95 204t91 192
t86.5 168q44 79 79.5 127.5t68 74t65.5 34t72 8.5q112 0 162 -48t50 -143q0 -73 -25 -174t-63 -216.5t-82 -238t-82 -237.5t-63 -214.5t-25 -169.5q0 -76 35 -118t116 -42q66 0 127.5 31t122 92.5t123 153.5t131.5 214l52 92l27 -19l-52 -92q-74 -131 -140 -228.5
t-132 -162.5t-134.5 -97.5t-146.5 -32.5q-62 0 -109 19t-79 52t-48.5 77.5t-16.5 95.5q0 44 11.5 104t31 130.5t45 149t53.5 160.5h-421q-37 -77 -75.5 -152t-77 -145t-77 -132.5t-75.5 -113.5q-49 -68 -96.5 -115.5t-96.5 -78.5t-100 -45t-106 -14q-134 0 -208 77.5
t-74 224.5q0 79 21 148.5t58 121.5t87 82t108 30q29 0 47.5 -10t18.5 -38zM1278 1355q-27 -51 -58.5 -115t-65.5 -136t-70.5 -149.5t-74.5 -156.5h415q33 96 64.5 191t57 181.5t41 161t15.5 128.5q0 35 -7 57t-19.5 34.5t-30 17t-38.5 4.5q-33 0 -60.5 -10t-53.5 -35
t-54 -67t-61 -106zM1292 1839h677l-27 -68h-676z" />
    <glyph glyph-name="amacron" unicode="&#x101;" horiz-adv-x="1492" 
d="M-4 584q36 108 86 196.5t108.5 157.5t123 119t129 82.5t127 48.5t117.5 16q57 0 95 -17.5t61.5 -49t33.5 -76t10 -98.5l81 222h148l-255 -700q-14 -39 -28 -79.5t-24.5 -80t-17 -76t-6.5 -67.5q0 -69 36.5 -110t113.5 -41q67 0 129.5 29t124 87.5t123.5 147t129 206.5
l51 92l27 -19l-52 -92q-73 -129 -139.5 -223.5t-132.5 -156t-135 -91.5t-147 -30q-61 0 -107.5 18.5t-78 52.5t-47.5 82t-16 107q0 39 7 84.5t21 94.5q-131 -220 -259 -329.5t-260 -109.5q-62 0 -105.5 22.5t-71.5 63t-41 95t-13 119.5q0 70 14 147.5t40 155.5zM209 31
q54 0 110 28.5t111.5 78t107.5 116t98.5 142t85.5 155.5t67.5 157.5t44 148t15.5 126.5q0 51 -12.5 85.5t-33 56t-47 30.5t-54.5 9q-56 0 -124.5 -34.5t-139.5 -105t-139.5 -178t-125.5 -252.5q-47 -121 -70.5 -224t-23.5 -172q0 -78 31.5 -122.5t98.5 -44.5zM472 1492h677
l-27 -68h-677z" />
    <glyph glyph-name="Abreve" unicode="&#x102;" horiz-adv-x="2097" 
d="M340 589q0 -21 -10.5 -31.5t-28 -16.5t-40.5 -10.5t-48 -12.5q-21 -6 -50 -21.5t-56 -45.5t-45.5 -78.5t-18.5 -121.5q0 -75 20.5 -124.5t54.5 -79.5t77.5 -42.5t89.5 -12.5q52 0 99 15t91 45t87 76t88 108q55 77 107.5 169.5t103.5 193t99.5 204.5t95 204t91 192
t86.5 168q44 79 79.5 127.5t68 74t65.5 34t72 8.5q112 0 162 -48t50 -143q0 -73 -25 -174t-63 -216.5t-82 -238t-82 -237.5t-63 -214.5t-25 -169.5q0 -76 35 -118t116 -42q66 0 127.5 31t122 92.5t123 153.5t131.5 214l52 92l27 -19l-52 -92q-74 -131 -140 -228.5
t-132 -162.5t-134.5 -97.5t-146.5 -32.5q-62 0 -109 19t-79 52t-48.5 77.5t-16.5 95.5q0 44 11.5 104t31 130.5t45 149t53.5 160.5h-421q-37 -77 -75.5 -152t-77 -145t-77 -132.5t-75.5 -113.5q-49 -68 -96.5 -115.5t-96.5 -78.5t-100 -45t-106 -14q-134 0 -208 77.5
t-74 224.5q0 79 21 148.5t58 121.5t87 82t108 30q29 0 47.5 -10t18.5 -38zM1278 1355q-27 -51 -58.5 -115t-65.5 -136t-70.5 -149.5t-74.5 -156.5h415q33 96 64.5 191t57 181.5t41 161t15.5 128.5q0 35 -7 57t-19.5 34.5t-30 17t-38.5 4.5q-33 0 -60.5 -10t-53.5 -35
t-54 -67t-61 -106zM1835 1946q-2 -31 -17 -64.5t-42.5 -61t-67.5 -45.5t-91 -18t-90.5 17.5t-66 45.5t-40.5 61t-15 65h42q1 -23 12.5 -49t33 -48t52.5 -36.5t72 -14.5t73 14.5t53.5 37t33.5 48t14 48.5h44z" />
    <glyph glyph-name="abreve" unicode="&#x103;" horiz-adv-x="1492" 
d="M-4 584q36 108 86 196.5t108.5 157.5t123 119t129 82.5t127 48.5t117.5 16q57 0 95 -17.5t61.5 -49t33.5 -76t10 -98.5l81 222h148l-255 -700q-14 -39 -28 -79.5t-24.5 -80t-17 -76t-6.5 -67.5q0 -69 36.5 -110t113.5 -41q67 0 129.5 29t124 87.5t123.5 147t129 206.5
l51 92l27 -19l-52 -92q-73 -129 -139.5 -223.5t-132.5 -156t-135 -91.5t-147 -30q-61 0 -107.5 18.5t-78 52.5t-47.5 82t-16 107q0 39 7 84.5t21 94.5q-131 -220 -259 -329.5t-260 -109.5q-62 0 -105.5 22.5t-71.5 63t-41 95t-13 119.5q0 70 14 147.5t40 155.5zM209 31
q54 0 110 28.5t111.5 78t107.5 116t98.5 142t85.5 155.5t67.5 157.5t44 148t15.5 126.5q0 51 -12.5 85.5t-33 56t-47 30.5t-54.5 9q-56 0 -124.5 -34.5t-139.5 -105t-139.5 -178t-125.5 -252.5q-47 -121 -70.5 -224t-23.5 -172q0 -78 31.5 -122.5t98.5 -44.5zM1015 1599
q-2 -31 -17 -64.5t-43 -61t-68 -45.5t-91 -18t-90 17.5t-66 45.5t-41 61t-15 65h43q1 -23 12.5 -49t33 -48t52.5 -36.5t72 -14.5t72.5 14.5t53.5 37t33.5 48t13.5 48.5h45z" />
    <glyph glyph-name="Aogonek" unicode="&#x104;" horiz-adv-x="2097" 
d="M340 589q0 -21 -10.5 -31.5t-28 -16.5t-40.5 -10.5t-48 -12.5q-21 -6 -50 -21.5t-56 -45.5t-45.5 -78.5t-18.5 -121.5q0 -75 20.5 -124.5t54.5 -79.5t77.5 -42.5t89.5 -12.5q52 0 99 15t91 45t87 76t88 108q55 77 107.5 169.5t103.5 193t99.5 204.5t95 204t91 192
t86.5 168q44 79 79.5 127.5t68 74t65.5 34t72 8.5q112 0 162 -48t50 -143q0 -73 -25 -174t-63 -216.5t-82 -238t-82 -237.5t-63 -214.5t-25 -169.5q0 -76 35 -118t116 -42q66 0 127.5 31t122 92.5t123 153.5t131.5 214l52 92l27 -19l-52 -92q-60 -106 -115 -190t-108 -147
t-106.5 -104.5t-111.5 -60.5q-161 -81 -243.5 -174.5t-82.5 -187.5q0 -106 113 -106q37 0 78.5 10.5t95.5 32.5l12 -19q-60 -28 -107 -40t-99 -12q-182 0 -182 145q0 91 68.5 177t193.5 158q-52 6 -91.5 27t-66.5 53t-40.5 73t-13.5 88q0 44 11.5 104t31 130.5t45 149
t53.5 160.5h-421q-37 -77 -75.5 -152t-77 -145t-77 -132.5t-75.5 -113.5q-49 -68 -96.5 -115.5t-96.5 -78.5t-100 -45t-106 -14q-134 0 -208 77.5t-74 224.5q0 79 21 148.5t58 121.5t87 82t108 30q29 0 47.5 -10t18.5 -38zM1278 1355q-27 -51 -58.5 -115t-65.5 -136
t-70.5 -149.5t-74.5 -156.5h415q33 96 64.5 191t57 181.5t41 161t15.5 128.5q0 35 -7 57t-19.5 34.5t-30 17t-38.5 4.5q-33 0 -60.5 -10t-53.5 -35t-54 -67t-61 -106z" />
    <glyph glyph-name="aogonek" unicode="&#x105;" horiz-adv-x="1492" 
d="M-4 584q36 108 86 196.5t108.5 157.5t123 119t129 82.5t127 48.5t117.5 16q57 0 95 -17.5t61.5 -49t33.5 -76t10 -98.5l81 222h148l-255 -700q-14 -39 -28 -79.5t-24.5 -80t-17 -76t-6.5 -67.5q0 -69 36.5 -110t113.5 -41q67 0 129.5 29t124 87.5t123.5 147t129 206.5
l51 92l27 -19l-52 -92q-68 -120 -129.5 -209.5t-123 -151t-124.5 -95.5t-132 -42q-165 -81 -250 -176t-85 -190q0 -106 113 -106q36 0 78 10.5t95 32.5l12 -19q-59 -28 -106.5 -40t-98.5 -12q-183 0 -183 145q0 100 81.5 192.5t228.5 167.5q-89 20 -134 86t-45 166
q0 39 7 84.5t21 94.5q-131 -220 -259 -329.5t-260 -109.5q-62 0 -105.5 22.5t-71.5 63t-41 95t-13 119.5q0 70 14 147.5t40 155.5zM209 31q54 0 110 28.5t111.5 78t107.5 116t98.5 142t85.5 155.5t67.5 157.5t44 148t15.5 126.5q0 51 -12.5 85.5t-33 56t-47 30.5t-54.5 9
q-56 0 -124.5 -34.5t-139.5 -105t-139.5 -178t-125.5 -252.5q-47 -121 -70.5 -224t-23.5 -172q0 -78 31.5 -122.5t98.5 -44.5z" />
    <glyph glyph-name="Cacute" unicode="&#x106;" horiz-adv-x="1187" 
d="M468 -39q-111 0 -198 34.5t-146.5 100t-91 161t-31.5 217.5q0 67 9.5 142t29.5 152q31 122 81 231.5t115.5 202.5t144 168.5t165.5 128.5t181 81.5t191 28.5q46 0 93 -11t84.5 -36.5t61 -68t23.5 -105.5q0 -56 -16.5 -103.5t-46 -87t-68.5 -72.5t-84 -59l-18 25
q81 65 119.5 143.5t38.5 164.5q0 90 -41.5 131t-121.5 41q-102 0 -207.5 -60.5t-202.5 -166.5t-178 -249.5t-134 -309.5q-34 -107 -52 -210.5t-18 -193.5q0 -371 333 -371q190 0 350 120.5t302 370.5l52 92l27 -19l-52 -92q-76 -134 -155 -232t-164 -162t-178 -95.5
t-197 -31.5zM871 1684q32 15 71 50.5t75 83.5q30 41 47.5 75t31 59t27 38.5t34.5 13.5q25 0 36.5 -17t11.5 -40q0 -44 -35 -90t-84 -86t-100.5 -70t-85.5 -42z" />
    <glyph glyph-name="cacute" unicode="&#x107;" horiz-adv-x="1057" 
d="M751 945q-34 0 -53.5 19.5t-19.5 53.5q0 32 17 52t45 20q10 0 19 -4q5 -2 7 -2.5t4 -0.5q9 0 9 13t-10 25.5t-27 22t-39.5 15t-46.5 5.5q-62 0 -125.5 -36t-123 -98.5t-112 -146.5t-91.5 -179.5t-61.5 -197.5t-22.5 -200q0 -74 13.5 -126t42 -85t73.5 -48.5t108 -15.5
q93 0 181.5 31t171 90.5t157 147t138.5 201.5l52 92l27 -19l-52 -92q-143 -254 -316 -377.5t-378 -123.5q-186 0 -279.5 96t-93.5 279q0 54 8 111t23 115q36 134 101.5 248t150 197t183 130t200.5 47q107 0 163 -56q23 -23 35 -50.5t12 -56.5q0 -44 -24.5 -70t-65.5 -26z
M564 1365q32 14 71 50t74 84q30 40 48 74t31.5 59t27 38.5t34.5 13.5q24 0 35.5 -16.5t11.5 -39.5q0 -29 -16.5 -60t-42.5 -60.5t-59.5 -56.5t-67 -49t-65 -38.5t-53.5 -23.5z" />
    <glyph glyph-name="Ccircumflex" unicode="&#x108;" horiz-adv-x="1187" 
d="M468 -39q-111 0 -198 34.5t-146.5 100t-91 161t-31.5 217.5q0 67 9.5 142t29.5 152q31 122 81 231.5t115.5 202.5t144 168.5t165.5 128.5t181 81.5t191 28.5q46 0 93 -11t84.5 -36.5t61 -68t23.5 -105.5q0 -56 -16.5 -103.5t-46 -87t-68.5 -72.5t-84 -59l-18 25
q81 65 119.5 143.5t38.5 164.5q0 90 -41.5 131t-121.5 41q-102 0 -207.5 -60.5t-202.5 -166.5t-178 -249.5t-134 -309.5q-34 -107 -52 -210.5t-18 -193.5q0 -371 333 -371q190 0 350 120.5t302 370.5l52 92l27 -19l-52 -92q-76 -134 -155 -232t-164 -162t-178 -95.5
t-197 -31.5zM965 1976q11 17 23 22.5t25 5.5q18 0 27.5 -8t14.5 -22q10 -35 22 -71t34.5 -73t59 -73.5t94.5 -72.5q-1 -1 -4.5 -5t-8.5 -9q-5 -6 -11 -13q-49 23 -93 56q-38 28 -77.5 70t-65.5 99q-47 -50 -99 -94q-22 -19 -48 -38t-53.5 -36.5t-57 -31.5t-58.5 -23
q-1 0 -5.5 3.5t-9.5 8.5q-6 5 -15 13q68 35 113 67t78 66.5t59 73t56 85.5z" />
    <glyph glyph-name="ccircumflex" unicode="&#x109;" horiz-adv-x="1057" 
d="M751 945q-34 0 -53.5 19.5t-19.5 53.5q0 32 17 52t45 20q10 0 19 -4q5 -2 7 -2.5t4 -0.5q9 0 9 13t-10 25.5t-27 22t-39.5 15t-46.5 5.5q-62 0 -125.5 -36t-123 -98.5t-112 -146.5t-91.5 -179.5t-61.5 -197.5t-22.5 -200q0 -74 13.5 -126t42 -85t73.5 -48.5t108 -15.5
q93 0 181.5 31t171 90.5t157 147t138.5 201.5l52 92l27 -19l-52 -92q-143 -254 -316 -377.5t-378 -123.5q-186 0 -279.5 96t-93.5 279q0 54 8 111t23 115q36 134 101.5 248t150 197t183 130t200.5 47q107 0 163 -56q23 -23 35 -50.5t12 -56.5q0 -44 -24.5 -70t-65.5 -26z
M645 1656q11 18 23.5 23t24.5 5q19 0 28.5 -7.5t13.5 -21.5q10 -35 22.5 -71t35 -73t59 -73.5t93.5 -72.5q-1 -1 -4.5 -5t-8.5 -9q-5 -6 -11 -13q-48 23 -92 56q-38 28 -78 70t-66 99l-12 -13.5t-34 -34.5t-52 -46.5t-65.5 -50.5t-74.5 -46t-78 -32q-1 0 -5.5 3.5t-9.5 8.5
q-6 5 -14 13q67 34 112.5 66.5t78.5 66.5t59 72.5t55 85.5z" />
    <glyph glyph-name="Cdotaccent" unicode="&#x10a;" horiz-adv-x="1187" 
d="M468 -39q-111 0 -198 34.5t-146.5 100t-91 161t-31.5 217.5q0 67 9.5 142t29.5 152q31 122 81 231.5t115.5 202.5t144 168.5t165.5 128.5t181 81.5t191 28.5q46 0 93 -11t84.5 -36.5t61 -68t23.5 -105.5q0 -56 -16.5 -103.5t-46 -87t-68.5 -72.5t-84 -59l-18 25
q81 65 119.5 143.5t38.5 164.5q0 90 -41.5 131t-121.5 41q-102 0 -207.5 -60.5t-202.5 -166.5t-178 -249.5t-134 -309.5q-34 -107 -52 -210.5t-18 -193.5q0 -371 333 -371q190 0 350 120.5t302 370.5l52 92l27 -19l-52 -92q-76 -134 -155 -232t-164 -162t-178 -95.5
t-197 -31.5zM912 1767q0 18 6.5 33.5t17.5 27t26.5 18t32.5 6.5q35 0 60 -25t25 -60t-25 -59t-61 -24q-35 0 -58.5 24t-23.5 59z" />
    <glyph glyph-name="cdotaccent" unicode="&#x10b;" horiz-adv-x="1057" 
d="M751 945q-34 0 -53.5 19.5t-19.5 53.5q0 32 17 52t45 20q10 0 19 -4q5 -2 7 -2.5t4 -0.5q9 0 9 13t-10 25.5t-27 22t-39.5 15t-46.5 5.5q-62 0 -125.5 -36t-123 -98.5t-112 -146.5t-91.5 -179.5t-61.5 -197.5t-22.5 -200q0 -74 13.5 -126t42 -85t73.5 -48.5t108 -15.5
q93 0 181.5 31t171 90.5t157 147t138.5 201.5l52 92l27 -19l-52 -92q-143 -254 -316 -377.5t-378 -123.5q-186 0 -279.5 96t-93.5 279q0 54 8 111t23 115q36 134 101.5 248t150 197t183 130t200.5 47q107 0 163 -56q23 -23 35 -50.5t12 -56.5q0 -44 -24.5 -70t-65.5 -26z
M648 1447q0 18 6.5 33.5t17.5 27t26.5 18t32.5 6.5q18 0 33.5 -6.5t27 -18t18 -27t6.5 -32.5t-6.5 -32.5t-18 -26.5t-27 -17.5t-33.5 -6.5q-35 0 -59 23.5t-24 58.5z" />
    <glyph glyph-name="Ccaron" unicode="&#x10c;" horiz-adv-x="1187" 
d="M468 -39q-111 0 -198 34.5t-146.5 100t-91 161t-31.5 217.5q0 67 9.5 142t29.5 152q31 122 81 231.5t115.5 202.5t144 168.5t165.5 128.5t181 81.5t191 28.5q46 0 93 -11t84.5 -36.5t61 -68t23.5 -105.5q0 -56 -16.5 -103.5t-46 -87t-68.5 -72.5t-84 -59l-18 25
q81 65 119.5 143.5t38.5 164.5q0 90 -41.5 131t-121.5 41q-102 0 -207.5 -60.5t-202.5 -166.5t-178 -249.5t-134 -309.5q-34 -107 -52 -210.5t-18 -193.5q0 -371 333 -371q190 0 350 120.5t302 370.5l52 92l27 -19l-52 -92q-76 -134 -155 -232t-164 -162t-178 -95.5
t-197 -31.5zM992 1685q-11 -17 -23.5 -22.5t-25.5 -5.5q-34 0 -41 30q-10 35 -22.5 71t-35 72.5t-59 73.5t-94.5 73q1 0 4.5 4.5t8.5 9.5q5 6 12 13q48 -23 92 -56q19 -14 39 -32t39 -39t36 -45.5t30 -52.5l12 13.5t34 34t52 46.5t65.5 50.5t74 45.5t78.5 33l29 -25
q-68 -35 -113 -67t-78 -66.5t-59 -73t-55 -85.5z" />
    <glyph glyph-name="ccaron" unicode="&#x10d;" horiz-adv-x="1057" 
d="M751 945q-34 0 -53.5 19.5t-19.5 53.5q0 32 17 52t45 20q10 0 19 -4q5 -2 7 -2.5t4 -0.5q9 0 9 13t-10 25.5t-27 22t-39.5 15t-46.5 5.5q-62 0 -125.5 -36t-123 -98.5t-112 -146.5t-91.5 -179.5t-61.5 -197.5t-22.5 -200q0 -74 13.5 -126t42 -85t73.5 -48.5t108 -15.5
q93 0 181.5 31t171 90.5t157 147t138.5 201.5l52 92l27 -19l-52 -92q-143 -254 -316 -377.5t-378 -123.5q-186 0 -279.5 96t-93.5 279q0 54 8 111t23 115q36 134 101.5 248t150 197t183 130t200.5 47q107 0 163 -56q23 -23 35 -50.5t12 -56.5q0 -44 -24.5 -70t-65.5 -26z
M728 1366q-11 -18 -23.5 -23t-24.5 -5q-34 0 -42 29q-10 35 -22.5 71t-35 73t-59 73.5t-94.5 72.5q1 0 4.5 4.5t8.5 9.5q5 6 12 13q48 -23 92 -56q19 -14 39 -32t39 -39t36 -45.5t30 -52.5l12 13.5t34 34.5t52 46.5t65.5 50.5t74 45.5t78.5 32.5q2 -2 5 -4q6 -6 10 -9
l14 -12q-68 -35 -113 -67t-78 -66t-59 -72.5t-55 -85.5z" />
    <glyph glyph-name="Dcaron" unicode="&#x10e;" horiz-adv-x="2184" 
d="M1050 1224q22 34 57.5 78t80.5 88.5t98.5 84.5t111.5 65q-60 15 -128 23t-146 8q-106 0 -204 -15t-182 -46t-152.5 -79.5t-117.5 -116.5t-75.5 -156t-26.5 -197q0 -34 3.5 -71t15.5 -72.5t34 -67.5t59 -55l-13 -21q-90 43 -133 115.5t-43 189.5q0 142 62 258t172 198.5
t262.5 128t333.5 45.5q188 0 334.5 -48.5t247 -138t153 -214.5t52.5 -278q0 -95 -20 -187t-55.5 -177t-85 -161.5t-108.5 -140.5t-131 -119.5t-158.5 -96.5t-186.5 -64.5t-215 -23.5q-70 0 -133 8t-117.5 20.5t-99 27t-77.5 27.5q-73 -42 -151.5 -62t-166.5 -20
q-62 0 -101 8.5t-61 23t-30.5 32.5t-8.5 36q0 36 23.5 57t59.5 32.5t78.5 15t80.5 3.5q82 0 152.5 -10.5t135.5 -30.5q31 35 62.5 82.5t64.5 110.5t68.5 142t74.5 177q47 118 81 202.5t58 144t40.5 98.5t28.5 64.5t21.5 42t20.5 32.5zM1778 996q0 214 -84.5 345.5
t-258.5 187.5q-27 -14 -53 -32t-49 -39t-42.5 -44t-34.5 -45q-12 -17 -23 -38t-24.5 -51t-30 -72t-38.5 -100.5t-51 -136.5t-66 -180q-94 -255 -197 -424t-221 -265q38 -14 83 -30.5t97 -30.5t109.5 -23t120.5 -9q99 0 181 23.5t149.5 64.5t122 95.5t98.5 116.5
q48 69 87 150.5t67 170.5t43 181.5t15 184.5zM1465 1685q-11 -17 -23.5 -22.5t-24.5 -5.5q-35 0 -42 30q-10 35 -22.5 71t-35 72.5t-59 73.5t-94.5 73q1 0 4.5 4.5t8.5 9.5q5 6 12 13q48 -23 92 -56q19 -14 39 -32t39 -39t36 -45.5t30 -52.5l12 13.5t34 34t52 46.5
t65.5 50.5t74 45.5t78.5 33q2 -2 5 -4q6 -6 10 -9l14 -12q-68 -35 -113 -67t-78 -66.5t-59 -73t-55 -85.5zM208 -3q75 0 136 13.5t117 54.5q-20 6 -56 16.5t-78.5 20t-87 16.5t-83.5 7q-51 0 -83.5 -15t-32.5 -50q0 -13 6.5 -24.5t25 -20t51 -13.5t85.5 -5z" />
    <glyph glyph-name="dcaron" unicode="&#x10f;" horiz-adv-x="1492" 
d="M-4 584q36 108 86 196.5t108.5 157.5t123 119t129 82.5t127 48.5t117.5 16q57 0 95 -17.5t61.5 -49t33.5 -76t10 -98.5l272 749h148l-446 -1227q-14 -39 -28 -80t-24.5 -80t-17 -75.5t-6.5 -67.5q0 -69 36.5 -110t113.5 -41q67 0 129.5 29t124 87.5t123.5 147t129 206.5
l51 92l27 -19l-52 -92q-73 -129 -139.5 -223.5t-132.5 -156t-135 -91.5t-147 -30q-61 0 -107.5 18.5t-78 52.5t-47.5 82t-16 107q0 39 7 84.5t21 94.5q-131 -220 -259 -329.5t-260 -109.5q-62 0 -105.5 22.5t-71.5 63t-41 95t-13 119.5q0 70 14 147.5t40 155.5zM209 31
q54 0 110 28.5t111.5 78t107.5 116t98.5 142t85.5 155.5t67.5 157.5t44 148t15.5 126.5q0 51 -12.5 85.5t-33 56t-47 30.5t-54.5 9q-56 0 -124.5 -34.5t-139.5 -105t-139.5 -178t-125.5 -252.5q-47 -121 -70.5 -224t-23.5 -172q0 -78 31.5 -122.5t98.5 -44.5zM1332 1286
q33 2 63.5 15t54 32t37.5 40.5t14 41.5q0 14 -8 25q-17 0 -30 7t-21.5 18t-13 25t-4.5 29q0 16 5 32t15.5 29t26.5 20.5t37 7.5q22 0 38.5 -9.5t27.5 -25.5t16 -36t5 -41q0 -58 -25.5 -103.5t-65 -77t-88.5 -48t-96 -16.5z" />
    <glyph glyph-name="Dcroat" unicode="&#x110;" horiz-adv-x="2184" 
d="M693 787h165q34 83 58.5 144t43 105t31.5 73.5t23 50.5t18.5 35.5t17.5 28.5q22 34 57.5 78t80.5 88.5t98.5 84.5t111.5 65q-60 15 -128 23t-146 8q-106 0 -204 -15t-182 -46t-152.5 -79.5t-117.5 -116.5t-75.5 -156t-26.5 -197q0 -34 3.5 -71t15.5 -72.5t34 -67.5
t59 -55l-13 -21q-90 43 -133 115.5t-43 189.5q0 142 62 258t172 198.5t262.5 128t333.5 45.5q188 0 334.5 -48.5t247 -138t153 -214.5t52.5 -278q0 -95 -20 -187t-55.5 -177t-85 -161.5t-108.5 -140.5t-131 -119.5t-158.5 -96.5t-186.5 -64.5t-215 -23.5q-70 0 -133 8
t-117.5 20.5t-99 27t-77.5 27.5q-73 -42 -151.5 -62t-166.5 -20q-62 0 -101 8.5t-61 23t-30.5 32.5t-8.5 36q0 36 23.5 57t59.5 32.5t78.5 15t80.5 3.5q82 0 152.5 -10.5t135.5 -30.5q31 35 62.5 82.5t64.5 110.5t68.5 142t74.5 177l21 54h-165zM1778 996q0 214 -84.5 345.5
t-258.5 187.5q-27 -14 -53 -32t-49 -39t-42.5 -44t-34.5 -45q-12 -17 -23 -38t-24.5 -51.5t-30 -72.5t-39 -101t-51.5 -137.5t-67 -181.5h367l-36 -93h-366q-86 -215 -180.5 -360.5t-200.5 -231.5q38 -14 83 -30.5t97 -30.5t109.5 -23t120.5 -9q99 0 181 23.5t149.5 64.5
t122 95.5t98.5 116.5q48 69 87 150.5t67 170.5t43 181.5t15 184.5zM208 -3q75 0 136 13.5t117 54.5q-20 6 -56 16.5t-78.5 20t-87 16.5t-83.5 7q-51 0 -83.5 -15t-32.5 -50q0 -13 6.5 -24.5t25 -20t51 -13.5t85.5 -5z" />
    <glyph glyph-name="dcroat" unicode="&#x111;" horiz-adv-x="1492" 
d="M837 1459h231l91 253h148l-91 -253h261l-36 -92h-260l-320 -882q-14 -39 -28 -80t-24.5 -80t-17 -75.5t-6.5 -67.5q0 -69 36.5 -110t113.5 -41q67 0 129.5 29t124 87.5t123.5 147t129 206.5l51 92l27 -19l-52 -92q-73 -129 -139.5 -223.5t-132.5 -156t-135 -91.5
t-147 -30q-61 0 -107.5 18.5t-78 52.5t-47.5 82t-16 107q0 39 7 84.5t21 94.5q-131 -220 -259 -329.5t-260 -109.5q-62 0 -105.5 22.5t-71.5 63t-41 95t-13 119.5q0 70 14 147.5t40 155.5q36 108 86 196.5t108.5 157.5t123 119t129 82.5t127 48.5t117.5 16q57 0 95 -17.5
t61.5 -49t33.5 -76t10 -98.5l146 404h-232zM209 31q54 0 110 28.5t111.5 78t107.5 116t98.5 142t85.5 155.5t67.5 157.5t44 148t15.5 126.5q0 51 -12.5 85.5t-33 56t-47 30.5t-54.5 9q-56 0 -124.5 -34.5t-139.5 -105t-139.5 -178t-125.5 -252.5q-47 -121 -70.5 -224
t-23.5 -172q0 -78 31.5 -122.5t98.5 -44.5z" />
    <glyph glyph-name="Emacron" unicode="&#x112;" horiz-adv-x="1179" 
d="M606 894q-103 -13 -186 -58.5t-141.5 -118t-90 -168.5t-31.5 -210q0 -166 69 -246t211 -80q95 0 190.5 33t184.5 96t169.5 153.5t145.5 205.5l52 92l26 -19l-51 -92q-73 -129 -158.5 -226t-180 -162t-196.5 -98t-207 -33q-96 0 -172 28t-129.5 80.5t-82 127t-28.5 166.5
q0 111 41 205t114.5 164.5t176.5 115t227 55.5q-75 42 -115 114t-40 163q0 88 37 166t100.5 136t148.5 91.5t181 33.5q61 0 112.5 -17t89 -48t58 -73.5t20.5 -93.5q0 -96 -59.5 -173.5t-160.5 -135.5l-14 30q39 22 70 53t52.5 68.5t33.5 80t12 86.5q0 90 -47.5 137
t-136.5 47q-78 0 -147.5 -35.5t-121.5 -96t-82.5 -141t-30.5 -170.5q0 -78 23 -134.5t65 -80.5q5 2 16 4t21 2q28 0 28 -14q0 -16 -29 -16q-10 0 -20 2t-17 4zM636 1811h677l-27 -68h-677z" />
    <glyph glyph-name="emacron" unicode="&#x113;" horiz-adv-x="1057" 
d="M342 -19q-181 0 -279 94.5t-98 281.5q0 51 7.5 108t23.5 117q36 134 101.5 248t150.5 197t183 130t197 47q100 0 157.5 -47t57.5 -132q0 -48 -19 -94t-55 -87t-86.5 -76.5t-113.5 -61.5q-78 -33 -172 -49.5t-214 -16.5q-29 -81 -45.5 -168.5t-16.5 -178.5
q0 -139 58.5 -200.5t184.5 -61.5q105 0 200 40.5t176 106.5t148 150.5t117 172.5l52 92l27 -19l-52 -92q-62 -109 -135.5 -201t-160 -158.5t-185 -104t-209.5 -37.5zM656 1164q-63 0 -128.5 -37t-126.5 -102.5t-114 -154.5t-92 -194q110 2 188 19t136 45q46 21 89.5 54.5
t77 76.5t54 93t20.5 104q0 27 -8 45t-22 29.5t-33 16.5t-41 5zM406 1492h676l-27 -68h-676z" />
    <glyph glyph-name="Ebreve" unicode="&#x114;" horiz-adv-x="1179" 
d="M606 894q-103 -13 -186 -58.5t-141.5 -118t-90 -168.5t-31.5 -210q0 -166 69 -246t211 -80q95 0 190.5 33t184.5 96t169.5 153.5t145.5 205.5l52 92l26 -19l-51 -92q-73 -129 -158.5 -226t-180 -162t-196.5 -98t-207 -33q-96 0 -172 28t-129.5 80.5t-82 127t-28.5 166.5
q0 111 41 205t114.5 164.5t176.5 115t227 55.5q-75 42 -115 114t-40 163q0 88 37 166t100.5 136t148.5 91.5t181 33.5q61 0 112.5 -17t89 -48t58 -73.5t20.5 -93.5q0 -96 -59.5 -173.5t-160.5 -135.5l-14 30q39 22 70 53t52.5 68.5t33.5 80t12 86.5q0 90 -47.5 137
t-136.5 47q-78 0 -147.5 -35.5t-121.5 -96t-82.5 -141t-30.5 -170.5q0 -78 23 -134.5t65 -80.5q5 2 16 4t21 2q28 0 28 -14q0 -16 -29 -16q-10 0 -20 2t-17 4zM1179 1918q-2 -31 -17 -64.5t-43 -61t-68 -45t-91 -17.5t-90 17.5t-66 45t-41 60.5t-15 65h43q1 -23 12 -49
t32.5 -48t53 -36.5t72.5 -14.5t72.5 14.5t53.5 37t33.5 48t13.5 48.5h45z" />
    <glyph glyph-name="ebreve" unicode="&#x115;" horiz-adv-x="1057" 
d="M342 -19q-181 0 -279 94.5t-98 281.5q0 51 7.5 108t23.5 117q36 134 101.5 248t150.5 197t183 130t197 47q100 0 157.5 -47t57.5 -132q0 -48 -19 -94t-55 -87t-86.5 -76.5t-113.5 -61.5q-78 -33 -172 -49.5t-214 -16.5q-29 -81 -45.5 -168.5t-16.5 -178.5
q0 -139 58.5 -200.5t184.5 -61.5q105 0 200 40.5t176 106.5t148 150.5t117 172.5l52 92l27 -19l-52 -92q-62 -109 -135.5 -201t-160 -158.5t-185 -104t-209.5 -37.5zM656 1164q-63 0 -128.5 -37t-126.5 -102.5t-114 -154.5t-92 -194q110 2 188 19t136 45q46 21 89.5 54.5
t77 76.5t54 93t20.5 104q0 27 -8 45t-22 29.5t-33 16.5t-41 5zM885 1599q-2 -31 -17 -64.5t-42.5 -61t-67.5 -45.5t-91 -18t-90 17.5t-66 45.5t-41 61t-15 65h42q1 -23 12.5 -49t33 -48t53 -36.5t72.5 -14.5t72.5 14.5t53 37t33.5 48t14 48.5h44z" />
    <glyph glyph-name="Edotaccent" unicode="&#x116;" horiz-adv-x="1179" 
d="M606 894q-103 -13 -186 -58.5t-141.5 -118t-90 -168.5t-31.5 -210q0 -166 69 -246t211 -80q95 0 190.5 33t184.5 96t169.5 153.5t145.5 205.5l52 92l26 -19l-51 -92q-73 -129 -158.5 -226t-180 -162t-196.5 -98t-207 -33q-96 0 -172 28t-129.5 80.5t-82 127t-28.5 166.5
q0 111 41 205t114.5 164.5t176.5 115t227 55.5q-75 42 -115 114t-40 163q0 88 37 166t100.5 136t148.5 91.5t181 33.5q61 0 112.5 -17t89 -48t58 -73.5t20.5 -93.5q0 -96 -59.5 -173.5t-160.5 -135.5l-14 30q39 22 70 53t52.5 68.5t33.5 80t12 86.5q0 90 -47.5 137
t-136.5 47q-78 0 -147.5 -35.5t-121.5 -96t-82.5 -141t-30.5 -170.5q0 -78 23 -134.5t65 -80.5q5 2 16 4t21 2q28 0 28 -14q0 -16 -29 -16q-10 0 -20 2t-17 4zM879 1767q0 18 6.5 33.5t17.5 27t26.5 18t32.5 6.5t32.5 -6.5t27 -18t18 -27t6.5 -33.5q0 -17 -6.5 -32.5
t-18 -26.5t-27 -17.5t-33.5 -6.5q-35 0 -58.5 24t-23.5 59z" />
    <glyph glyph-name="edotaccent" unicode="&#x117;" horiz-adv-x="1057" 
d="M342 -19q-181 0 -279 94.5t-98 281.5q0 51 7.5 108t23.5 117q36 134 101.5 248t150.5 197t183 130t197 47q100 0 157.5 -47t57.5 -132q0 -48 -19 -94t-55 -87t-86.5 -76.5t-113.5 -61.5q-78 -33 -172 -49.5t-214 -16.5q-29 -81 -45.5 -168.5t-16.5 -178.5
q0 -139 58.5 -200.5t184.5 -61.5q105 0 200 40.5t176 106.5t148 150.5t117 172.5l52 92l27 -19l-52 -92q-62 -109 -135.5 -201t-160 -158.5t-185 -104t-209.5 -37.5zM656 1164q-63 0 -128.5 -37t-126.5 -102.5t-114 -154.5t-92 -194q110 2 188 19t136 45q46 21 89.5 54.5
t77 76.5t54 93t20.5 104q0 27 -8 45t-22 29.5t-33 16.5t-41 5zM648 1447q0 18 6.5 33.5t17.5 27t26.5 18t32.5 6.5q18 0 33.5 -6.5t27 -18t18 -27t6.5 -32.5t-6.5 -32.5t-18 -26.5t-27 -17.5t-33.5 -6.5q-35 0 -59 23.5t-24 58.5z" />
    <glyph glyph-name="Eogonek" unicode="&#x118;" horiz-adv-x="1179" 
d="M606 894q-103 -13 -186 -58.5t-141.5 -118t-90 -168.5t-31.5 -210q0 -166 69 -246t211 -80q95 0 190.5 33t184.5 96t169.5 153.5t145.5 205.5l52 92l26 -19l-51 -92q-118 -208 -264.5 -331.5t-310.5 -166.5q-165 -81 -250 -176t-85 -190q0 -106 113 -106q37 0 78.5 10.5
t95.5 32.5l12 -19q-60 -28 -107 -40t-99 -12q-182 0 -182 145q0 91 68 176.5t193 157.5h-4q-96 0 -172 28t-129.5 80.5t-82 127t-28.5 166.5q0 111 41 205t114.5 164.5t176.5 115t227 55.5q-75 42 -115 114t-40 163q0 88 37 166t100.5 136t148.5 91.5t181 33.5
q61 0 112.5 -17t89 -48t58 -73.5t20.5 -93.5q0 -96 -59.5 -173.5t-160.5 -135.5l-14 30q39 22 70 53t52.5 68.5t33.5 80t12 86.5q0 90 -47.5 137t-136.5 47q-78 0 -147.5 -35.5t-121.5 -96t-82.5 -141t-30.5 -170.5q0 -78 23 -134.5t65 -80.5q5 2 16 4t21 2q28 0 28 -14
q0 -16 -29 -16q-10 0 -20 2t-17 4z" />
    <glyph glyph-name="eogonek" unicode="&#x119;" horiz-adv-x="1057" 
d="M1032 482q-57 -101 -125 -187.5t-146.5 -152t-167.5 -106.5t-188 -51q-166 -81 -251 -176.5t-85 -190.5q0 -106 112 -106q37 0 78.5 10.5t95.5 32.5l12 -19q-60 -28 -107 -40t-99 -12q-182 0 -182 145q0 98 78.5 189.5t221.5 166.5q-151 16 -232.5 109t-81.5 263
q0 51 7.5 108t23.5 117q36 134 101.5 248t150.5 197t183 130t197 47q100 0 157.5 -47t57.5 -132q0 -48 -19 -94t-55 -87t-86.5 -76.5t-113.5 -61.5q-78 -33 -172 -49.5t-214 -16.5q-29 -81 -45.5 -168.5t-16.5 -178.5q0 -139 58.5 -200.5t184.5 -61.5q105 0 200 40.5
t176 106.5t148 150.5t117 172.5l52 92l27 -19zM656 1164q-63 0 -128.5 -37t-126.5 -102.5t-114 -154.5t-92 -194q110 2 188 19t136 45q46 21 89.5 54.5t77 76.5t54 93t20.5 104q0 27 -8 45t-22 29.5t-33 16.5t-41 5z" />
    <glyph glyph-name="Ecaron" unicode="&#x11a;" horiz-adv-x="1179" 
d="M606 894q-103 -13 -186 -58.5t-141.5 -118t-90 -168.5t-31.5 -210q0 -166 69 -246t211 -80q95 0 190.5 33t184.5 96t169.5 153.5t145.5 205.5l52 92l26 -19l-51 -92q-73 -129 -158.5 -226t-180 -162t-196.5 -98t-207 -33q-96 0 -172 28t-129.5 80.5t-82 127t-28.5 166.5
q0 111 41 205t114.5 164.5t176.5 115t227 55.5q-75 42 -115 114t-40 163q0 88 37 166t100.5 136t148.5 91.5t181 33.5q61 0 112.5 -17t89 -48t58 -73.5t20.5 -93.5q0 -96 -59.5 -173.5t-160.5 -135.5l-14 30q39 22 70 53t52.5 68.5t33.5 80t12 86.5q0 90 -47.5 137
t-136.5 47q-78 0 -147.5 -35.5t-121.5 -96t-82.5 -141t-30.5 -170.5q0 -78 23 -134.5t65 -80.5q5 2 16 4t21 2q28 0 28 -14q0 -16 -29 -16q-10 0 -20 2t-17 4zM958 1685q-11 -17 -23 -22.5t-25 -5.5q-18 0 -27.5 7.5t-14.5 22.5q-10 35 -22.5 71t-35 72.5t-59 73.5t-94.5 73
q1 0 4.5 4.5t8.5 9.5q5 6 12 13q47 -23 92 -56q38 -29 78 -70.5t66 -98.5q47 50 99 94q45 38 101 74.5t116 54.5q2 -2 5 -4q6 -6 10 -9q6 -5 15 -12q-68 -35 -113 -67t-78 -66.5t-59 -73t-56 -85.5z" />
    <glyph glyph-name="ecaron" unicode="&#x11b;" horiz-adv-x="1057" 
d="M342 -19q-181 0 -279 94.5t-98 281.5q0 51 7.5 108t23.5 117q36 134 101.5 248t150.5 197t183 130t197 47q100 0 157.5 -47t57.5 -132q0 -48 -19 -94t-55 -87t-86.5 -76.5t-113.5 -61.5q-78 -33 -172 -49.5t-214 -16.5q-29 -81 -45.5 -168.5t-16.5 -178.5
q0 -139 58.5 -200.5t184.5 -61.5q105 0 200 40.5t176 106.5t148 150.5t117 172.5l52 92l27 -19l-52 -92q-62 -109 -135.5 -201t-160 -158.5t-185 -104t-209.5 -37.5zM656 1164q-63 0 -128.5 -37t-126.5 -102.5t-114 -154.5t-92 -194q110 2 188 19t136 45q46 21 89.5 54.5
t77 76.5t54 93t20.5 104q0 27 -8 45t-22 29.5t-33 16.5t-41 5zM728 1366q-11 -18 -23.5 -23t-24.5 -5q-34 0 -42 29q-10 35 -22.5 71t-35 73t-59 73.5t-94.5 72.5q1 0 4.5 4.5t8.5 9.5q5 6 12 13q48 -23 92 -56q19 -14 39 -32t39 -39t36 -45.5t30 -52.5l12 13.5t34 34.5
t52 46.5t65.5 50.5t74 45.5t78.5 32.5q2 -2 5 -4q6 -6 10 -9l14 -12q-68 -35 -113 -67t-78 -66t-59 -72.5t-55 -85.5z" />
    <glyph glyph-name="Gcircumflex" unicode="&#x11c;" horiz-adv-x="1743" 
d="M1285 1099q17 17 34.5 49.5t32 73t23.5 85t9 85.5q0 36 -10 68.5t-34 57t-63.5 39t-97.5 14.5q-108 0 -213 -43.5t-198.5 -123t-171.5 -192.5t-131 -252q-40 -104 -61.5 -208.5t-21.5 -197.5q0 -140 50.5 -205.5t156.5 -65.5q142 0 282.5 121.5t284.5 374.5l8 13h132
l-65 -183q-57 -163 -116 -300t-121 -252q88 9 159.5 21t132.5 31.5t113 49.5t100.5 76.5t95 111.5t97.5 154l51 92l27 -19l-52 -92q-50 -89 -97 -155t-96.5 -114.5t-104 -81.5t-121 -55t-147 -36t-181.5 -24q-153 -275 -325.5 -408.5t-375.5 -133.5q-137 0 -203.5 56
t-66.5 150q0 67 34 117.5t94 87.5t140.5 62.5t173 43t193 29.5t199.5 22q42 87 84 189.5t90 226.5l26 68q-40 -53 -89.5 -105.5t-108 -94t-125.5 -67t-142 -25.5q-76 0 -138.5 28.5t-106.5 82t-68.5 129t-24.5 168.5q0 67 13 143t39 155q51 149 139.5 272t202.5 211.5
t247 137t273 48.5q82 0 139.5 -17.5t93.5 -48t52.5 -71t16.5 -86.5q0 -37 -9.5 -75.5t-26 -77t-40.5 -75.5t-52 -70zM274 -477q82 0 153 25t135.5 82t126.5 148.5t127 223.5q-159 -14 -298.5 -33.5t-243.5 -54.5t-164 -90t-60 -139q0 -79 56 -120.5t168 -41.5zM1230 1976
q11 17 23.5 22.5t25.5 5.5q18 0 27.5 -8t13.5 -22q10 -35 22.5 -71t35 -73t59 -73.5t93.5 -72.5q-1 -1 -4 -5t-8 -9q-5 -6 -12 -13q-48 23 -92 56q-38 28 -78 70t-66 99l-12 -13.5t-34 -34.5t-52 -46.5t-65 -50.5t-74 -46t-78 -32q-1 0 -5.5 3.5t-9.5 8.5q-6 5 -15 13
q67 35 112.5 67t78.5 66.5t59 73t55 85.5z" />
    <glyph glyph-name="gcircumflex" unicode="&#x11d;" horiz-adv-x="1353" 
d="M83 -527q-97 0 -161.5 26t-102.5 82q-20 27 -30.5 57.5t-10.5 60.5q0 45 23.5 71t64.5 26q35 0 55 -19t20 -53q0 -32 -17 -52t-43 -20q-11 0 -17.5 3t-14.5 3q-5 0 -7 -2.5t-2 -10.5q0 -28 18 -51.5t50 -41t76 -27t95 -9.5q73 0 134 21t111.5 65.5t92 113.5t76.5 164
l190 526q-128 -213 -254 -319t-256 -106q-62 0 -105.5 22.5t-71.5 63t-41 95t-13 119.5q0 70 14 147.5t40 155.5q36 108 86 196.5t108.5 157.5t123 119t129 82.5t127 48.5t117.5 16q57 0 95.5 -16.5t61.5 -47.5t33 -75t10 -98l80 218h148l-472 -1297q-73 -202 -216.5 -308.5
t-343.5 -106.5zM209 31q54 0 110 28.5t111.5 78t107.5 116t98.5 142t85.5 155.5t67.5 157.5t44 148t15.5 126.5q0 51 -12.5 85.5t-33 56t-47 30.5t-54.5 9q-56 0 -124.5 -34.5t-139.5 -105t-139.5 -178t-125.5 -252.5q-47 -121 -70.5 -224t-23.5 -172q0 -78 31.5 -122.5
t98.5 -44.5zM798 1656q11 18 23.5 23t24.5 5q18 0 27.5 -7.5t14.5 -21.5q10 -35 22.5 -71t35 -73t58.5 -73.5t94 -72.5q-1 -1 -4.5 -5t-8.5 -9q-5 -6 -11 -13q-49 23 -93 56q-38 28 -77.5 70t-65.5 99l-12 -13.5t-34 -34.5t-52 -46.5t-65.5 -50.5t-74.5 -46t-78 -32
q-1 0 -5.5 3.5t-9.5 8.5q-6 5 -14 13q67 34 112 66.5t78 66.5t59 72.5t56 85.5z" />
    <glyph glyph-name="Gbreve" unicode="&#x11e;" horiz-adv-x="1743" 
d="M1285 1099q17 17 34.5 49.5t32 73t23.5 85t9 85.5q0 36 -10 68.5t-34 57t-63.5 39t-97.5 14.5q-108 0 -213 -43.5t-198.5 -123t-171.5 -192.5t-131 -252q-40 -104 -61.5 -208.5t-21.5 -197.5q0 -140 50.5 -205.5t156.5 -65.5q142 0 282.5 121.5t284.5 374.5l8 13h132
l-65 -183q-57 -163 -116 -300t-121 -252q88 9 159.5 21t132.5 31.5t113 49.5t100.5 76.5t95 111.5t97.5 154l51 92l27 -19l-52 -92q-50 -89 -97 -155t-96.5 -114.5t-104 -81.5t-121 -55t-147 -36t-181.5 -24q-153 -275 -325.5 -408.5t-375.5 -133.5q-137 0 -203.5 56
t-66.5 150q0 67 34 117.5t94 87.5t140.5 62.5t173 43t193 29.5t199.5 22q42 87 84 189.5t90 226.5l26 68q-40 -53 -89.5 -105.5t-108 -94t-125.5 -67t-142 -25.5q-76 0 -138.5 28.5t-106.5 82t-68.5 129t-24.5 168.5q0 67 13 143t39 155q51 149 139.5 272t202.5 211.5
t247 137t273 48.5q82 0 139.5 -17.5t93.5 -48t52.5 -71t16.5 -86.5q0 -37 -9.5 -75.5t-26 -77t-40.5 -75.5t-52 -70zM274 -477q82 0 153 25t135.5 82t126.5 148.5t127 223.5q-159 -14 -298.5 -33.5t-243.5 -54.5t-164 -90t-60 -139q0 -79 56 -120.5t168 -41.5zM1446 1918
q-2 -31 -17 -64.5t-42.5 -61t-67.5 -45t-91 -17.5t-90 17.5t-66 45t-41 60.5t-15 65h42q1 -23 12.5 -49t33 -48t53 -36.5t72.5 -14.5t72.5 14.5t53 37t33.5 48t14 48.5h44z" />
    <glyph glyph-name="gbreve" unicode="&#x11f;" horiz-adv-x="1353" 
d="M83 -527q-97 0 -161.5 26t-102.5 82q-20 27 -30.5 57.5t-10.5 60.5q0 45 23.5 71t64.5 26q35 0 55 -19t20 -53q0 -32 -17 -52t-43 -20q-11 0 -17.5 3t-14.5 3q-5 0 -7 -2.5t-2 -10.5q0 -28 18 -51.5t50 -41t76 -27t95 -9.5q73 0 134 21t111.5 65.5t92 113.5t76.5 164
l190 526q-128 -213 -254 -319t-256 -106q-62 0 -105.5 22.5t-71.5 63t-41 95t-13 119.5q0 70 14 147.5t40 155.5q36 108 86 196.5t108.5 157.5t123 119t129 82.5t127 48.5t117.5 16q57 0 95.5 -16.5t61.5 -47.5t33 -75t10 -98l80 218h148l-472 -1297q-73 -202 -216.5 -308.5
t-343.5 -106.5zM209 31q54 0 110 28.5t111.5 78t107.5 116t98.5 142t85.5 155.5t67.5 157.5t44 148t15.5 126.5q0 51 -12.5 85.5t-33 56t-47 30.5t-54.5 9q-56 0 -124.5 -34.5t-139.5 -105t-139.5 -178t-125.5 -252.5q-47 -121 -70.5 -224t-23.5 -172q0 -78 31.5 -122.5
t98.5 -44.5zM1014 1599q-2 -31 -17 -64.5t-43 -61t-68 -45.5t-91 -18t-90 17.5t-66 45.5t-41 61t-15 65h43q1 -23 12.5 -49t33 -48t52.5 -36.5t72 -14.5t72.5 14.5t53.5 37t33.5 48t13.5 48.5h45z" />
    <glyph glyph-name="Gdotaccent" unicode="&#x120;" horiz-adv-x="1743" 
d="M1285 1099q17 17 34.5 49.5t32 73t23.5 85t9 85.5q0 36 -10 68.5t-34 57t-63.5 39t-97.5 14.5q-108 0 -213 -43.5t-198.5 -123t-171.5 -192.5t-131 -252q-40 -104 -61.5 -208.5t-21.5 -197.5q0 -140 50.5 -205.5t156.5 -65.5q142 0 282.5 121.5t284.5 374.5l8 13h132
l-65 -183q-57 -163 -116 -300t-121 -252q88 9 159.5 21t132.5 31.5t113 49.5t100.5 76.5t95 111.5t97.5 154l51 92l27 -19l-52 -92q-50 -89 -97 -155t-96.5 -114.5t-104 -81.5t-121 -55t-147 -36t-181.5 -24q-153 -275 -325.5 -408.5t-375.5 -133.5q-137 0 -203.5 56
t-66.5 150q0 67 34 117.5t94 87.5t140.5 62.5t173 43t193 29.5t199.5 22q42 87 84 189.5t90 226.5l26 68q-40 -53 -89.5 -105.5t-108 -94t-125.5 -67t-142 -25.5q-76 0 -138.5 28.5t-106.5 82t-68.5 129t-24.5 168.5q0 67 13 143t39 155q51 149 139.5 272t202.5 211.5
t247 137t273 48.5q82 0 139.5 -17.5t93.5 -48t52.5 -71t16.5 -86.5q0 -37 -9.5 -75.5t-26 -77t-40.5 -75.5t-52 -70zM274 -477q82 0 153 25t135.5 82t126.5 148.5t127 223.5q-159 -14 -298.5 -33.5t-243.5 -54.5t-164 -90t-60 -139q0 -79 56 -120.5t168 -41.5zM1146 1767
q0 35 24.5 60t59.5 25q17 0 32.5 -6.5t27 -18t18 -27t6.5 -33.5q0 -17 -6.5 -32.5t-18 -26.5t-27 -17.5t-33.5 -6.5q-35 0 -59 24t-24 59z" />
    <glyph glyph-name="gdotaccent" unicode="&#x121;" horiz-adv-x="1353" 
d="M83 -527q-97 0 -161.5 26t-102.5 82q-20 27 -30.5 57.5t-10.5 60.5q0 45 23.5 71t64.5 26q35 0 55 -19t20 -53q0 -32 -17 -52t-43 -20q-11 0 -17.5 3t-14.5 3q-5 0 -7 -2.5t-2 -10.5q0 -28 18 -51.5t50 -41t76 -27t95 -9.5q73 0 134 21t111.5 65.5t92 113.5t76.5 164
l190 526q-128 -213 -254 -319t-256 -106q-62 0 -105.5 22.5t-71.5 63t-41 95t-13 119.5q0 70 14 147.5t40 155.5q36 108 86 196.5t108.5 157.5t123 119t129 82.5t127 48.5t117.5 16q57 0 95.5 -16.5t61.5 -47.5t33 -75t10 -98l80 218h148l-472 -1297q-73 -202 -216.5 -308.5
t-343.5 -106.5zM209 31q54 0 110 28.5t111.5 78t107.5 116t98.5 142t85.5 155.5t67.5 157.5t44 148t15.5 126.5q0 51 -12.5 85.5t-33 56t-47 30.5t-54.5 9q-56 0 -124.5 -34.5t-139.5 -105t-139.5 -178t-125.5 -252.5q-47 -121 -70.5 -224t-23.5 -172q0 -78 31.5 -122.5
t98.5 -44.5zM714 1447q0 18 6.5 33.5t17.5 27t26.5 18t32.5 6.5q35 0 59.5 -24.5t24.5 -59.5q0 -17 -6.5 -32.5t-18 -26.5t-27 -17.5t-33.5 -6.5q-35 0 -58.5 23.5t-23.5 58.5z" />
    <glyph glyph-name="Gcommaaccent" unicode="&#x122;" horiz-adv-x="1743" 
d="M1285 1099q17 17 34.5 49.5t32 73t23.5 85t9 85.5q0 36 -10 68.5t-34 57t-63.5 39t-97.5 14.5q-108 0 -213 -43.5t-198.5 -123t-171.5 -192.5t-131 -252q-40 -104 -61.5 -208.5t-21.5 -197.5q0 -140 50.5 -205.5t156.5 -65.5q142 0 282.5 121.5t284.5 374.5l8 13h132
l-65 -183q-57 -163 -116 -300t-121 -252q88 9 159.5 21t132.5 31.5t113 49.5t100.5 76.5t95 111.5t97.5 154l51 92l27 -19l-52 -92q-50 -89 -97 -155t-96.5 -114.5t-104 -81.5t-121 -55t-147 -36t-181.5 -24q-153 -275 -325.5 -408.5t-375.5 -133.5q-137 0 -203.5 56
t-66.5 150q0 67 34 117.5t94 87.5t140.5 62.5t173 43t193 29.5t199.5 22q42 87 84 189.5t90 226.5l26 68q-40 -53 -89.5 -105.5t-108 -94t-125.5 -67t-142 -25.5q-76 0 -138.5 28.5t-106.5 82t-68.5 129t-24.5 168.5q0 67 13 143t39 155q51 149 139.5 272t202.5 211.5
t247 137t273 48.5q82 0 139.5 -17.5t93.5 -48t52.5 -71t16.5 -86.5q0 -37 -9.5 -75.5t-26 -77t-40.5 -75.5t-52 -70zM274 -477q82 0 153 25t135.5 82t126.5 148.5t127 223.5q-159 -14 -298.5 -33.5t-243.5 -54.5t-164 -90t-60 -139q0 -79 56 -120.5t168 -41.5zM938 -492
q32 2 62.5 15t54 32t37.5 41t14 42q0 6 -1 12.5t-6 11.5q-17 0 -33 6.5t-28.5 18.5t-20 28t-7.5 36q0 17 6 34t18 31t29 22.5t39 8.5q17 0 34.5 -6t32 -20.5t23.5 -38t9 -58.5q0 -57 -23.5 -103.5t-62.5 -79t-88.5 -50.5t-100.5 -18z" />
    <glyph glyph-name="gcommaaccent" unicode="&#x123;" horiz-adv-x="1353" 
d="M83 -527q-97 0 -161.5 26t-102.5 82q-20 27 -30.5 57.5t-10.5 60.5q0 45 23.5 71t64.5 26q35 0 55 -19t20 -53q0 -32 -17 -52t-43 -20q-11 0 -17.5 3t-14.5 3q-5 0 -7 -2.5t-2 -10.5q0 -28 18 -51.5t50 -41t76 -27t95 -9.5q73 0 134 21t111.5 65.5t92 113.5t76.5 164
l190 526q-128 -213 -254 -319t-256 -106q-62 0 -105.5 22.5t-71.5 63t-41 95t-13 119.5q0 70 14 147.5t40 155.5q36 108 86 196.5t108.5 157.5t123 119t129 82.5t127 48.5t117.5 16q57 0 95.5 -16.5t61.5 -47.5t33 -75t10 -98l80 218h148l-472 -1297q-73 -202 -216.5 -308.5
t-343.5 -106.5zM209 31q54 0 110 28.5t111.5 78t107.5 116t98.5 142t85.5 155.5t67.5 157.5t44 148t15.5 126.5q0 51 -12.5 85.5t-33 56t-47 30.5t-54.5 9q-56 0 -124.5 -34.5t-139.5 -105t-139.5 -178t-125.5 -252.5q-47 -121 -70.5 -224t-23.5 -172q0 -78 31.5 -122.5
t98.5 -44.5zM1004 1688q-33 -2 -63.5 -15.5t-54 -32t-37.5 -40.5t-14 -41q0 -14 8 -25q17 0 30 -7t21.5 -18t13 -25t4.5 -29q0 -17 -5.5 -32.5t-16 -28.5t-26 -20.5t-36.5 -7.5q-23 0 -39 9.5t-27 25.5t-16 36t-5 41q0 58 25.5 103.5t65 77t88.5 48t96 16.5z" />
    <glyph glyph-name="Hcircumflex" unicode="&#x124;" horiz-adv-x="2217" 
d="M460 1187q-13 23 -20 53t-7 68q0 70 26 126t72.5 95t109 60t136.5 21q36 0 62.5 -4.5t50.5 -11.5t49.5 -14.5t59.5 -14.5t80 -11.5t112 -4.5q51 0 89 3.5t72 11t68 19t75 26.5v-18q-27 -6 -59.5 -24t-64 -42.5t-59.5 -52t-46 -51.5q-12 -15 -23 -33.5t-24.5 -48.5
t-31.5 -76.5t-44 -117.5t-62.5 -171.5t-85.5 -237.5q106 23 218.5 52t228.5 67q39 100 89 195t109 178.5t125.5 153.5t136.5 120.5t143 78.5t146 28q42 0 70.5 -9.5t46.5 -26.5t25.5 -40.5t7.5 -52.5q0 -71 -40.5 -140t-107 -132.5t-151.5 -120.5t-174 -103
q-65 -34 -131.5 -63t-133.5 -55q-30 -77 -54 -155t-41 -155.5t-26 -152.5t-9 -145q0 -76 10.5 -124t31 -75.5t49 -38t64.5 -10.5q137 0 267.5 124t268.5 367l52 92l26 -19l-51 -92q-76 -134 -147.5 -232.5t-142 -162.5t-142 -95t-148.5 -31q-81 0 -133.5 31.5t-83.5 84
t-43.5 122t-12.5 144.5q0 111 22 227.5t64 233.5q-115 -36 -227 -63.5t-218 -49.5q-72 -187 -145 -324.5t-154.5 -227.5t-174 -134t-202.5 -44q-77 0 -133.5 19.5t-94.5 55t-56.5 84t-18.5 107.5q0 88 40 154.5t110.5 116t165 84.5t204.5 60q58 12 132.5 26t162.5 31
q32 85 57.5 151.5t45.5 119t36.5 93t32 74t31 62t33.5 56.5q19 30 44.5 64t57 69.5t68 69.5t78.5 63q-68 -21 -138 -33t-127 -12q-53 0 -105.5 10t-101 22t-90.5 22t-73 10q-38 0 -72.5 -16.5t-60.5 -47t-41 -73t-15 -94.5q0 -60 20 -102zM289 0q55 0 100 11.5t84.5 40
t75.5 76t74 120.5t80.5 173t93.5 233q-75 -16 -143 -29t-128 -27q-97 -22 -184 -51t-153 -72.5t-104.5 -104.5t-38.5 -147q0 -48 14.5 -89t44.5 -70.5t75.5 -46.5t108.5 -17zM2203 1571q-75 0 -153.5 -52t-154.5 -140.5t-145.5 -207t-124.5 -250.5q57 23 113.5 49t111.5 55
q85 44 165.5 97t143.5 111.5t101.5 120.5t38.5 124q0 43 -22 68t-74 25zM1726 1976q11 17 23 22.5t25 5.5q18 0 27.5 -8t14.5 -22q10 -35 22 -71t34.5 -73t59 -73.5t94.5 -72.5q-1 -1 -4.5 -5t-8.5 -9q-5 -6 -11 -13q-49 23 -93 56q-38 28 -77.5 70t-65.5 99l-12.5 -13.5
t-34.5 -34.5t-52 -46.5t-65 -50.5t-74 -46t-78 -32q-1 0 -5.5 3.5t-9.5 8.5q-6 5 -15 13q68 35 113 67t78 66.5t59 73t56 85.5z" />
    <glyph glyph-name="hcircumflex" unicode="&#x125;" horiz-adv-x="1453" 
d="M406 1712h149l-349 -957q68 114 129.5 198.5t122.5 140t125 83t137 27.5q61 0 107.5 -20t78 -56.5t47.5 -87.5t16 -114q0 -45 -16.5 -106t-41.5 -130t-54 -141.5t-54 -140.5t-41.5 -126.5t-16.5 -99.5q0 -69 36.5 -110t113.5 -41q67 0 129.5 29t124 87.5t123.5 147
t129 206.5l52 92l27 -19l-52 -92q-73 -129 -139.5 -223.5t-133 -156t-135.5 -91.5t-147 -30q-61 0 -107.5 18.5t-78 52.5t-47.5 82t-16 107q0 43 16.5 103.5t41.5 130.5t54 143.5t54 141.5t41.5 126.5t16.5 97.5q0 78 -36.5 124t-113.5 46q-68 0 -131 -32t-129.5 -101.5
t-139 -179.5t-157.5 -267l-210 -574h-148zM842 1656q11 18 23 23t25 5q18 0 27.5 -7.5t13.5 -21.5q10 -35 22.5 -71t35 -73t59 -73.5t94.5 -72.5q-1 -1 -4.5 -5t-8.5 -9q-5 -6 -11 -13q-48 23 -93 56q-38 28 -78 70t-66 99l-12 -13.5t-34 -34.5t-52 -46.5t-65 -50.5t-74 -46
t-78 -32q-1 0 -5.5 3.5t-9.5 8.5q-6 5 -15 13q68 34 113 66.5t78 66.5t59 72.5t56 85.5z" />
    <glyph glyph-name="Hbar" unicode="&#x126;" horiz-adv-x="2217" 
d="M705 1069h251q25 59 46.5 102t48.5 84q19 30 44.5 64t57 69.5t68 69.5t78.5 63q-68 -21 -138 -33t-127 -12q-53 0 -105.5 10t-101 22t-90.5 22t-73 10q-38 0 -72.5 -16.5t-60.5 -47t-41 -73t-15 -94.5q0 -60 20 -102l-35 -20q-13 23 -20 53t-7 68q0 70 26 126t72.5 95
t109 60t136.5 21q36 0 62.5 -4.5t50.5 -11.5t49.5 -14.5t59.5 -14.5t80 -11.5t112 -4.5q51 0 89 3.5t72 11t68 19t75 26.5v-18q-27 -6 -59.5 -24t-64 -42.5t-59.5 -52t-46 -51.5q-14 -17 -26 -38.5t-28.5 -59.5t-39.5 -98.5t-57 -155.5h266l-26 -67h-264q-20 -56 -44 -121.5
t-52 -144.5q106 23 218.5 52t228.5 67q39 100 89 195t109 178.5t125.5 153.5t136.5 120.5t143 78.5t146 28q42 0 70.5 -9.5t46.5 -26.5t25.5 -40.5t7.5 -52.5q0 -71 -40.5 -140t-107 -132.5t-151.5 -120.5t-174 -103q-65 -34 -131.5 -63t-133.5 -55q-30 -77 -54 -155
t-41 -155.5t-26 -152.5t-9 -145q0 -76 10.5 -124t31 -75.5t49 -38t64.5 -10.5q137 0 267.5 124t268.5 367l52 92l26 -19l-51 -92q-76 -134 -147.5 -232.5t-142 -162.5t-142 -95t-148.5 -31q-81 0 -133.5 31.5t-83.5 84t-43.5 122t-12.5 144.5q0 111 22 227.5t64 233.5
q-115 -36 -227 -63.5t-218 -49.5q-72 -187 -145 -324.5t-154.5 -227.5t-174 -134t-202.5 -44q-77 0 -133.5 19.5t-94.5 55t-56.5 84t-18.5 107.5q0 88 40 154.5t110.5 116t165 84.5t204.5 60q58 12 132.5 26t162.5 31l115 303h-252zM289 0q55 0 100 11.5t84.5 40t75.5 76
t74 120.5t80.5 173t93.5 233q-75 -16 -143 -29t-128 -27q-97 -22 -184 -51t-153 -72.5t-104.5 -104.5t-38.5 -147q0 -48 14.5 -89t44.5 -70.5t75.5 -46.5t108.5 -17zM2203 1571q-75 0 -153.5 -52t-154.5 -140.5t-145.5 -207t-124.5 -250.5q57 23 113.5 49t111.5 55
q85 44 165.5 97t143.5 111.5t101.5 120.5t38.5 124q0 43 -22 68t-74 25z" />
    <glyph glyph-name="hbar" unicode="&#x127;" horiz-adv-x="1453" 
d="M69 1492h257l80 220h149l-81 -220h272l-27 -68h-269l-244 -669q68 114 129.5 198.5t122.5 140t125 83t137 27.5q61 0 107.5 -20t78 -56.5t47.5 -87.5t16 -114q0 -45 -16.5 -106t-41.5 -130t-54 -141.5t-54 -140.5t-41.5 -126.5t-16.5 -99.5q0 -69 36.5 -110t113.5 -41
q67 0 129.5 29t124 87.5t123.5 147t129 206.5l52 92l27 -19l-52 -92q-73 -129 -139.5 -223.5t-133 -156t-135.5 -91.5t-147 -30q-61 0 -107.5 18.5t-78 52.5t-47.5 82t-16 107q0 43 16.5 103.5t41.5 130.5t54 143.5t54 141.5t41.5 126.5t16.5 97.5q0 78 -36.5 124t-113.5 46
q-68 0 -131 -32t-129.5 -101.5t-139 -179.5t-157.5 -267l-210 -574h-148l519 1424h-259z" />
    <glyph glyph-name="Itilde" unicode="&#x128;" horiz-adv-x="1530" 
d="M1606 1591q-33 -9 -65.5 -27t-62.5 -41.5t-55.5 -51t-44.5 -54.5q-12 -18 -24 -39.5t-26 -53t-32 -76t-41.5 -108t-55 -149.5t-72.5 -200q-80 -220 -163 -377t-176 -257.5t-200.5 -148t-235.5 -47.5q-173 0 -262.5 77.5t-89.5 212.5q0 51 12 96t32 79t46.5 54t55.5 20
q26 0 41 -14t15 -40q0 -20 -9.5 -34t-24 -23.5t-31.5 -16.5t-33 -12q-32 -11 -44.5 -39.5t-12.5 -73.5q0 -57 19.5 -102.5t56.5 -78t90 -50t120 -17.5q65 0 119 12t100.5 40.5t88.5 76t83.5 118.5t85 168.5t93.5 225.5q40 103 71 181t55 138t42.5 104.5t34 78.5t29.5 60
t29 51q46 77 108.5 147t137.5 121q-68 -21 -138.5 -33t-126.5 -12q-53 0 -105.5 10t-101 22t-90.5 22t-73 10q-38 0 -72.5 -16.5t-60.5 -47t-41 -73t-15 -94.5q0 -60 20 -102l-35 -20q-12 23 -19.5 53t-7.5 68q0 70 26 126t72.5 95t109 60t136.5 21q36 0 62.5 -4.5
t50.5 -11.5t49.5 -14.5t59.5 -14.5t80 -11.5t112 -4.5q47 0 85 4t73 11.5t70 19t76 25.5v-18zM1156 2002q44 0 78 -14.5t62.5 -36.5t53.5 -48t50 -48t52 -36.5t61 -14.5q38 0 69 18.5t54.5 45.5t38 57.5t20.5 54.5h44q-15 -52 -35.5 -102.5t-51.5 -90t-74 -63.5t-103 -24
q-47 0 -80.5 14.5t-60 36t-48.5 47t-45 47t-50.5 36t-64.5 14.5q-48 0 -80.5 -22.5t-53.5 -52.5t-32.5 -60.5t-16.5 -45.5h-43q12 39 30 89t47 94.5t72.5 74.5t106.5 30z" />
    <glyph glyph-name="itilde" unicode="&#x129;" 
d="M216 1185h148l-255 -700q-14 -39 -28 -79.5t-24.5 -80t-17 -76t-6.5 -67.5q0 -69 36.5 -110t113.5 -41q67 0 129.5 29t124 87.5t123.5 147t129 206.5l52 92l27 -19l-52 -92q-73 -129 -139.5 -223.5t-133 -156t-135.5 -91.5t-147 -30q-61 0 -107.5 18.5t-78 52.5t-47.5 82
t-16 107q0 52 12.5 114t36.5 130zM216 1682q44 0 78 -14.5t62.5 -36.5t53 -48t49.5 -48t52 -36.5t61 -14.5q38 0 69 18.5t54.5 45.5t38.5 58t21 55h43q-15 -53 -35.5 -103t-51.5 -90t-74 -64t-103 -24q-47 0 -80.5 14.5t-60 36.5t-48.5 47t-45 47t-50.5 36.5t-64.5 14.5
q-48 0 -80.5 -22.5t-53.5 -53t-32 -61t-16 -45.5h-44l19.5 58.5t24.5 63.5t33.5 62t45 53t58.5 37t76 14z" />
    <glyph glyph-name="Imacron" unicode="&#x12a;" horiz-adv-x="1530" 
d="M1606 1591q-33 -9 -65.5 -27t-62.5 -41.5t-55.5 -51t-44.5 -54.5q-12 -18 -24 -39.5t-26 -53t-32 -76t-41.5 -108t-55 -149.5t-72.5 -200q-80 -220 -163 -377t-176 -257.5t-200.5 -148t-235.5 -47.5q-173 0 -262.5 77.5t-89.5 212.5q0 51 12 96t32 79t46.5 54t55.5 20
q26 0 41 -14t15 -40q0 -20 -9.5 -34t-24 -23.5t-31.5 -16.5t-33 -12q-32 -11 -44.5 -39.5t-12.5 -73.5q0 -57 19.5 -102.5t56.5 -78t90 -50t120 -17.5q65 0 119 12t100.5 40.5t88.5 76t83.5 118.5t85 168.5t93.5 225.5q40 103 71 181t55 138t42.5 104.5t34 78.5t29.5 60
t29 51q46 77 108.5 147t137.5 121q-68 -21 -138.5 -33t-126.5 -12q-53 0 -105.5 10t-101 22t-90.5 22t-73 10q-38 0 -72.5 -16.5t-60.5 -47t-41 -73t-15 -94.5q0 -60 20 -102l-35 -20q-12 23 -19.5 53t-7.5 68q0 70 26 126t72.5 95t109 60t136.5 21q36 0 62.5 -4.5
t50.5 -11.5t49.5 -14.5t59.5 -14.5t80 -11.5t112 -4.5q47 0 85 4t73 11.5t70 19t76 25.5v-18zM1105 1811h677l-27 -68h-676z" />
    <glyph glyph-name="imacron" unicode="&#x12b;" 
d="M216 1185h148l-255 -700q-14 -39 -28 -79.5t-24.5 -80t-17 -76t-6.5 -67.5q0 -69 36.5 -110t113.5 -41q67 0 129.5 29t124 87.5t123.5 147t129 206.5l52 92l27 -19l-52 -92q-73 -129 -139.5 -223.5t-133 -156t-135.5 -91.5t-147 -30q-61 0 -107.5 18.5t-78 52.5t-47.5 82
t-16 107q0 52 12.5 114t36.5 130zM54 1492h677l-27 -68h-677z" />
    <glyph glyph-name="Ibreve" unicode="&#x12c;" horiz-adv-x="1530" 
d="M1606 1591q-33 -9 -65.5 -27t-62.5 -41.5t-55.5 -51t-44.5 -54.5q-12 -18 -24 -39.5t-26 -53t-32 -76t-41.5 -108t-55 -149.5t-72.5 -200q-80 -220 -163 -377t-176 -257.5t-200.5 -148t-235.5 -47.5q-173 0 -262.5 77.5t-89.5 212.5q0 51 12 96t32 79t46.5 54t55.5 20
q26 0 41 -14t15 -40q0 -20 -9.5 -34t-24 -23.5t-31.5 -16.5t-33 -12q-32 -11 -44.5 -39.5t-12.5 -73.5q0 -57 19.5 -102.5t56.5 -78t90 -50t120 -17.5q65 0 119 12t100.5 40.5t88.5 76t83.5 118.5t85 168.5t93.5 225.5q40 103 71 181t55 138t42.5 104.5t34 78.5t29.5 60
t29 51q46 77 108.5 147t137.5 121q-68 -21 -138.5 -33t-126.5 -12q-53 0 -105.5 10t-101 22t-90.5 22t-73 10q-38 0 -72.5 -16.5t-60.5 -47t-41 -73t-15 -94.5q0 -60 20 -102l-35 -20q-12 23 -19.5 53t-7.5 68q0 70 26 126t72.5 95t109 60t136.5 21q36 0 62.5 -4.5
t50.5 -11.5t49.5 -14.5t59.5 -14.5t80 -11.5t112 -4.5q47 0 85 4t73 11.5t70 19t76 25.5v-18zM1648 1918q-2 -31 -17 -64.5t-42.5 -61t-67.5 -45t-91 -17.5t-90.5 17.5t-66 45t-40.5 60.5t-15 65h42q1 -23 12.5 -49t33 -48t52.5 -36.5t72 -14.5t73 14.5t53.5 37t33.5 48
t14 48.5h44z" />
    <glyph glyph-name="ibreve" unicode="&#x12d;" 
d="M216 1185h148l-255 -700q-14 -39 -28 -79.5t-24.5 -80t-17 -76t-6.5 -67.5q0 -69 36.5 -110t113.5 -41q67 0 129.5 29t124 87.5t123.5 147t129 206.5l52 92l27 -19l-52 -92q-73 -129 -139.5 -223.5t-133 -156t-135.5 -91.5t-147 -30q-61 0 -107.5 18.5t-78 52.5t-47.5 82
t-16 107q0 52 12.5 114t36.5 130zM596 1599q-1 -31 -16 -64.5t-43 -61t-68 -45.5t-91 -18t-90 17.5t-66 45.5t-41 61t-15 65h42q1 -23 12.5 -49t33 -48t53 -36.5t72.5 -14.5t72.5 14.5t53 37t33.5 48t14 48.5h44z" />
    <glyph glyph-name="Iogonek" unicode="&#x12e;" horiz-adv-x="1530" 
d="M1606 1591q-33 -9 -65.5 -27t-62.5 -41.5t-55.5 -51t-44.5 -54.5q-12 -18 -24 -39.5t-26 -53t-32 -76t-41.5 -108t-55 -149.5t-72.5 -200q-65 -178 -131 -314.5t-138 -235t-151 -160.5t-170 -92q-171 -82 -258.5 -178.5t-87.5 -193.5q0 -106 113 -106q36 0 77.5 10.5
t95.5 32.5l12 -19q-60 -28 -107 -40t-99 -12q-182 0 -182 145q0 91 67.5 176t191.5 157h-8q-173 0 -262.5 77.5t-89.5 212.5q0 51 12 96t32 79t46.5 54t55.5 20q26 0 41 -14t15 -40q0 -20 -9.5 -34t-24 -23.5t-31.5 -16.5t-33 -12q-32 -11 -44.5 -39.5t-12.5 -73.5
q0 -57 19.5 -102.5t56.5 -78t90 -50t120 -17.5q65 0 119 12t100.5 40.5t88.5 76t83.5 118.5t85 168.5t93.5 225.5q40 103 71 181t55 138t42.5 104.5t34 78.5t29.5 60t29 51q46 77 108.5 147t137.5 121q-68 -21 -138.5 -33t-126.5 -12q-53 0 -105.5 10t-101 22t-90.5 22
t-73 10q-38 0 -72.5 -16.5t-60.5 -47t-41 -73t-15 -94.5q0 -60 20 -102l-35 -20q-12 23 -19.5 53t-7.5 68q0 70 26 126t72.5 95t109 60t136.5 21q36 0 62.5 -4.5t50.5 -11.5t49.5 -14.5t59.5 -14.5t80 -11.5t112 -4.5q47 0 85 4t73 11.5t70 19t76 25.5v-18z" />
    <glyph glyph-name="iogonek" unicode="&#x12f;" 
d="M216 1185h148l-255 -700q-14 -39 -28 -79.5t-24.5 -80t-17 -76t-6.5 -67.5q0 -69 36.5 -110t113.5 -41q67 0 129.5 29t124 87.5t123.5 147t129 206.5l52 92l27 -19l-52 -92q-66 -116 -126 -204t-119.5 -149.5t-120.5 -97t-128 -45.5q-167 -81 -253 -176.5t-86 -191.5
q0 -106 113 -106q36 0 78 10.5t95 32.5l12 -19q-59 -28 -106.5 -40t-98.5 -12q-182 0 -182 145q0 99 80 191t225 167q-92 17 -139.5 85t-47.5 169q0 52 12.5 114t36.5 130zM296 1447q0 35 24.5 60t59.5 25t59.5 -24.5t24.5 -59.5q0 -17 -6.5 -32.5t-18 -26.5t-27 -17.5
t-33.5 -6.5q-35 0 -59 23.5t-24 58.5z" />
    <glyph glyph-name="Idotaccent" unicode="&#x130;" horiz-adv-x="1530" 
d="M1606 1591q-33 -9 -65.5 -27t-62.5 -41.5t-55.5 -51t-44.5 -54.5q-12 -18 -24 -39.5t-26 -53t-32 -76t-41.5 -108t-55 -149.5t-72.5 -200q-80 -220 -163 -377t-176 -257.5t-200.5 -148t-235.5 -47.5q-173 0 -262.5 77.5t-89.5 212.5q0 51 12 96t32 79t46.5 54t55.5 20
q26 0 41 -14t15 -40q0 -20 -9.5 -34t-24 -23.5t-31.5 -16.5t-33 -12q-32 -11 -44.5 -39.5t-12.5 -73.5q0 -57 19.5 -102.5t56.5 -78t90 -50t120 -17.5q65 0 119 12t100.5 40.5t88.5 76t83.5 118.5t85 168.5t93.5 225.5q40 103 71 181t55 138t42.5 104.5t34 78.5t29.5 60
t29 51q46 77 108.5 147t137.5 121q-68 -21 -138.5 -33t-126.5 -12q-53 0 -105.5 10t-101 22t-90.5 22t-73 10q-38 0 -72.5 -16.5t-60.5 -47t-41 -73t-15 -94.5q0 -60 20 -102l-35 -20q-12 23 -19.5 53t-7.5 68q0 70 26 126t72.5 95t109 60t136.5 21q36 0 62.5 -4.5
t50.5 -11.5t49.5 -14.5t59.5 -14.5t80 -11.5t112 -4.5q47 0 85 4t73 11.5t70 19t76 25.5v-18zM1348 1767q0 18 6.5 33.5t17.5 27t26.5 18t32.5 6.5q35 0 60 -25t25 -60t-25 -59t-61 -24q-35 0 -58.5 24t-23.5 59z" />
    <glyph glyph-name="dotlessi" unicode="&#x131;" 
d="M216 1185h148l-255 -700q-14 -39 -28 -79.5t-24.5 -80t-17 -76t-6.5 -67.5q0 -69 36.5 -110t113.5 -41q67 0 129.5 29t124 87.5t123.5 147t129 206.5l52 92l27 -19l-52 -92q-73 -129 -139.5 -223.5t-133 -156t-135.5 -91.5t-147 -30q-61 0 -107.5 18.5t-78 52.5t-47.5 82
t-16 107q0 52 12.5 114t36.5 130z" />
    <glyph glyph-name="IJ" unicode="&#x132;" horiz-adv-x="2558" 
d="M1606 1591q-33 -9 -65.5 -27t-62.5 -41.5t-55.5 -51t-44.5 -54.5q-12 -18 -24 -39.5t-26 -53t-32 -76t-41.5 -108t-55 -149.5t-72.5 -200q-80 -220 -163 -377t-176 -257.5t-200.5 -148t-235.5 -47.5q-173 0 -262.5 77.5t-89.5 212.5q0 51 12 96t32 79t46.5 54t55.5 20
q26 0 41 -14t15 -40q0 -20 -9.5 -34t-24 -23.5t-31.5 -16.5t-33 -12q-32 -11 -44.5 -39.5t-12.5 -73.5q0 -57 19.5 -102.5t56.5 -78t90 -50t120 -17.5q65 0 119 12t100.5 40.5t88.5 76t83.5 118.5t85 168.5t93.5 225.5q40 103 71 181t55 138t42.5 104.5t34 78.5t29.5 60
t29 51q46 77 108.5 147t137.5 121q-68 -21 -138.5 -33t-126.5 -12q-53 0 -105.5 10t-101 22t-90.5 22t-73 10q-38 0 -72.5 -16.5t-60.5 -47t-41 -73t-15 -94.5q0 -60 20 -102l-35 -20q-12 23 -19.5 53t-7.5 68q0 70 26 126t72.5 95t109 60t136.5 21q36 0 62.5 -4.5
t50.5 -11.5t49.5 -14.5t59.5 -14.5t80 -11.5t112 -4.5q47 0 85 4t73 11.5t70 19t76 25.5v-18zM2046 609q-58 -163 -116 -300t-120 -252q97 8 174.5 22t140.5 37.5t114 57.5t95.5 81t86 108t85.5 138l52 92l27 -19l-52 -92q-50 -88 -98.5 -154.5t-99.5 -115t-107.5 -81.5
t-122.5 -55.5t-144.5 -36t-172.5 -23.5q-77 -137 -158 -238.5t-170.5 -169t-187.5 -101t-208 -33.5q-120 0 -184.5 57.5t-64.5 164.5q0 72 46.5 127.5t147 97.5t259 71.5t383.5 50.5q41 86 82.5 188t89.5 227q67 177 116 303t86.5 217t68 155t60.5 117q48 83 105 150.5
t132 117.5q-66 -20 -134.5 -31t-122.5 -11q-53 0 -106 10t-101 22t-90 22t-73 10q-38 0 -72.5 -16.5t-60.5 -47t-41 -73t-15 -93.5q0 -61 20 -103l-35 -20q-13 23 -20 53t-7 66q0 71 26 127.5t72 95.5t109 60t137 21q36 0 62.5 -4.5t50.5 -11.5t49.5 -14.5t59.5 -14.5
t80 -11.5t112 -4.5q51 0 89 3.5t72 11t67.5 18.5t75.5 27v-18q-29 -9 -58 -22.5t-57 -33.5t-55.5 -49.5t-54.5 -69.5q-30 -45 -59.5 -107.5t-66 -156t-84.5 -225.5t-114 -318zM1070 -477q88 0 161.5 22.5t140 77.5t129.5 147t130 232q-103 -9 -200 -21.5t-182 -30
t-155.5 -40.5t-121.5 -54t-79 -70.5t-28 -88.5q0 -88 54.5 -131t150.5 -43z" />
    <glyph glyph-name="ij" unicode="&#x133;" horiz-adv-x="1340" 
d="M216 1185h148l-255 -700q-14 -39 -28 -79.5t-24.5 -80t-17 -76t-6.5 -67.5q0 -69 36.5 -110t113.5 -41q67 0 129.5 29t124 87.5t123.5 147t129 206.5l50 89l216 595h149l-472 -1297q-73 -202 -181.5 -308.5t-234.5 -106.5q-52 0 -86.5 17.5t-55.5 55.5q-12 22 -18 49.5
t-6 55.5q0 51 24 79.5t68 28.5q35 0 55 -19t20 -52q0 -32 -17 -52.5t-43 -20.5q-11 0 -17 3t-15 3q-5 0 -7 -2.5t-2 -12.5q0 -43 24.5 -66.5t69.5 -23.5q39 0 73 20t66 63.5t64 113t68 167.5l193 530q-66 -110 -127 -191t-122.5 -134t-126.5 -78.5t-137 -25.5
q-61 0 -107.5 18.5t-78 52.5t-47.5 82t-16 107q0 52 12.5 114t36.5 130zM296 1447q0 35 24.5 60t59.5 25t59.5 -24.5t24.5 -59.5q0 -17 -6.5 -32.5t-18 -26.5t-27 -17.5t-33.5 -6.5q-35 0 -59 23.5t-24 58.5zM1037 1447q0 18 6.5 33.5t17.5 27t26.5 18t32.5 6.5
q18 0 33.5 -6.5t27 -18t18 -27t6.5 -32.5q0 -35 -25 -59t-61 -24q-35 0 -58.5 23.5t-23.5 58.5z" />
    <glyph glyph-name="Jcircumflex" unicode="&#x134;" horiz-adv-x="1743" 
d="M1231 609q-114 -325 -236 -552q97 8 174.5 22t140.5 37.5t114 57.5t96 81t86.5 108t85.5 138l51 92l27 -19l-52 -92q-50 -88 -98.5 -154.5t-99.5 -115t-107.5 -81.5t-122.5 -55.5t-144.5 -36t-172.5 -23.5q-77 -137 -158 -238.5t-170 -169t-187.5 -101t-208.5 -33.5
q-120 0 -184.5 57.5t-64.5 164.5q0 72 46.5 127.5t147 97.5t259 71.5t383.5 50.5q41 86 82.5 188t89.5 227q67 177 116 303t86.5 217t68 155t60.5 117q48 83 105 150.5t132 117.5q-66 -20 -134 -31t-123 -11q-53 0 -105.5 10t-101 22t-90.5 22t-73 10q-38 0 -72.5 -16.5
t-60.5 -47t-41 -73t-15 -93.5q0 -32 5.5 -57.5t14.5 -45.5l-35 -20q-12 23 -19.5 53t-7.5 66q0 71 26 127.5t72 95.5t109 60t137 21q36 0 62.5 -4.5t50.5 -11.5t49.5 -14.5t59.5 -14.5t80 -11.5t112 -4.5q51 0 89 3.5t72 11t67.5 18.5t75.5 27v-18q-29 -9 -57.5 -22.5
t-57 -33.5t-56 -49.5t-54.5 -69.5q-30 -45 -59.5 -107.5t-66 -156t-84.5 -225.5t-114 -318zM256 -477q88 0 161.5 22.5t139.5 77.5t129 147t131 232q-103 -9 -200 -21.5t-182 -30t-156 -40.5t-122 -54t-79 -70.5t-28 -88.5q0 -88 54.5 -131t151.5 -43zM1604 1976
q11 17 23 22.5t25 5.5q18 0 27.5 -8t13.5 -22q10 -35 22.5 -71t35 -73t59 -73.5t94.5 -72.5q-1 -1 -4.5 -5t-8.5 -9q-5 -6 -12 -13q-48 23 -92 56q-38 28 -78 70t-66 99l-12 -13.5t-34 -34.5t-52 -46.5t-65 -50.5t-74 -46t-78 -32q-1 0 -5.5 3.5t-9.5 8.5q-6 5 -15 13
q68 35 113 67t78 66.5t59 73t56 85.5z" />
    <glyph glyph-name="jcircumflex" unicode="&#x135;" horiz-adv-x="601" 
d="M-525 -527q-51 0 -86 17.5t-56 55.5q-11 22 -17.5 49.5t-6.5 55.5q0 51 24.5 79.5t67.5 28.5q35 0 55 -19t20 -52q0 -32 -16.5 -52.5t-42.5 -20.5q-11 0 -17.5 3t-15.5 3q-5 0 -7 -2.5t-2 -12.5q0 -43 24.5 -66.5t69.5 -23.5q39 0 73 20t66.5 63.5t64.5 113t68 167.5
l474 1305h148l-471 -1297q-74 -202 -182 -308.5t-235 -106.5zM329 1656q11 18 23 23t25 5q18 0 27.5 -7.5t13.5 -21.5q10 -35 22.5 -71t35 -73t59 -73.5t94.5 -72.5q-1 -1 -4.5 -5t-8.5 -9q-5 -6 -11 -13q-48 23 -93 56q-38 28 -78 70t-66 99l-12 -13.5t-34 -34.5t-52 -46.5
t-65 -50.5t-74 -46t-78 -32q-1 0 -5.5 3.5t-9.5 8.5q-6 5 -15 13q68 34 113 66.5t78 66.5t59 72.5t56 85.5z" />
    <glyph glyph-name="Kcommaaccent" unicode="&#x136;" horiz-adv-x="2203" 
d="M571 1187q-12 23 -19.5 53t-7.5 68q0 70 26 126t72.5 95t109 60t136.5 21q36 0 62.5 -4.5t50.5 -11.5t49.5 -14.5t59.5 -14.5t80 -11.5t112 -4.5q50 0 88.5 3.5t72.5 11t68 19t75 26.5v-18q-33 -9 -65.5 -27t-62.5 -41.5t-55.5 -51t-44.5 -54.5q-12 -18 -24 -39.5
t-26 -53t-32 -76t-41.5 -108t-55 -149.5t-72.5 -200q-79 -218 -166 -375t-184.5 -258t-205.5 -149t-229 -48q-81 0 -144.5 20t-107.5 57.5t-67 92t-23 122.5q0 50 12 95t32 78.5t46.5 53.5t55.5 20q26 0 41 -14t15 -40q0 -20 -9.5 -34t-24 -23.5t-31.5 -16.5t-33 -12
q-30 -10 -43.5 -37t-13.5 -75q0 -56 19.5 -101.5t56.5 -78t89 -50t117 -17.5q62 0 114.5 12t100 41t90.5 76.5t86.5 118.5t88 167.5t94.5 223.5q40 103 71 181.5t55.5 138.5t43 104.5t34 78t29 60t28.5 50.5q47 78 108.5 147t136.5 120q-68 -20 -138 -32t-126 -12
q-53 0 -105.5 10t-101 22t-90.5 22t-73 10q-38 0 -72.5 -16.5t-60.5 -47t-41 -73t-15 -94.5q0 -60 20 -102zM2310 1568q-42 12 -88 12q-69 0 -121.5 -31t-96.5 -81.5t-82 -115t-78 -132t-85 -132t-102 -115t-130 -81.5t-168 -31q51 -10 95 -25t77 -40t51.5 -62.5t18.5 -91.5
q0 -52 -15 -108t-33.5 -113t-33.5 -115t-15 -113q0 -48 13 -82.5t36 -57t54 -33t68 -10.5q70 0 130 35t115.5 99.5t111.5 155t119 201.5l52 92l26 -19l-51 -92q-75 -132 -135.5 -230t-121 -162.5t-128 -96.5t-155.5 -32q-60 0 -114 15t-95.5 45t-65.5 75.5t-24 107.5
q0 55 17 120.5t38 131t38 125.5t17 104q0 31 -10 59.5t-26.5 51t-37.5 37.5t-44 20q-4 -1 -8 -1h-6q-26 0 -26 13q0 5 7 9.5t18 4.5q7 0 14 -1t16 -7q65 18 117 59t97.5 96.5t86 120t82.5 129t88 125t101.5 106.5t123 74t152.5 28q42 0 72.5 -5.5t56.5 -13.5zM861 -491
q32 2 62.5 15t54 32t38 41t14.5 42q0 6 -1.5 12.5t-6.5 11.5q-17 0 -33 6.5t-28.5 18.5t-20 28t-7.5 36q0 17 6 34t18 31t29 22.5t39 8.5q17 0 34.5 -6t32 -20.5t23.5 -38t9 -58.5q0 -57 -23.5 -103.5t-62.5 -79t-88.5 -50.5t-100.5 -18z" />
    <glyph glyph-name="kcommaaccent" unicode="&#x137;" horiz-adv-x="1369" 
d="M206 755q78 133 143 223t125.5 144t121 77t129.5 23q114 0 174.5 -53t60.5 -153q0 -84 -41.5 -153t-119.5 -120q-25 -16 -54.5 -30t-67.5 -28t-86 -28.5t-110 -29.5v-4q123 -8 188.5 -55t65.5 -119q0 -32 -11 -66.5t-24.5 -70.5t-24.5 -72.5t-11 -71.5q0 -61 39 -99
t115 -38q61 0 121 28t121 85.5t124.5 146t132.5 210.5l52 92l27 -19l-52 -92q-82 -145 -152 -241.5t-137.5 -154t-135.5 -81.5t-146 -24q-46 0 -88 8.5t-74 28.5t-51 54t-19 85q0 40 10.5 81.5t23 81t23 76.5t10.5 69q0 62 -50 104t-155 45v5q105 29 188.5 72t140.5 94
q111 101 111 237q0 162 -150 162q-59 0 -115.5 -27.5t-120.5 -97t-140.5 -187.5t-175.5 -298l-210 -574h-148l623 1712h149zM17 -491q32 2 62.5 15t54 32t37.5 41t14 42q0 14 -7 24q-17 0 -33 6.5t-28.5 18.5t-20 28t-7.5 36q0 17 6 34t18 31t29 22.5t39 8.5q17 0 34.5 -6
t32 -20.5t23.5 -38t9 -58.5q0 -57 -23.5 -103.5t-62.5 -79t-88.5 -50.5t-100.5 -18z" />
    <glyph glyph-name="kgreenlandic" unicode="&#x138;" horiz-adv-x="1406" 
d="M215 1185h148l-157 -430q78 133 143 223t125.5 144t121 77t129.5 23q114 0 174.5 -53t60.5 -153q0 -83 -41.5 -152.5t-119.5 -120.5q-51 -33 -127 -60.5t-191 -55.5v-4q128 -10 193 -58.5t65 -133.5q0 -28 -6.5 -60t-14 -65t-13.5 -66t-6 -63q0 -71 40 -108.5t115 -37.5
q61 0 121 27t121 84t125 146t134 213l51 92l27 -19l-52 -92q-77 -135 -145 -230.5t-134 -155.5t-132 -87.5t-138 -27.5q-59 0 -106 17t-80 49t-50.5 77.5t-17.5 102.5q0 31 4.5 61t10.5 58.5t10.5 56t4.5 53.5q0 151 -205 158v5q105 29 188.5 72t140.5 94q111 101 111 237
q0 162 -150 162q-59 0 -113.5 -26t-113 -87t-125 -160t-148.5 -245l-52 -92l-210 -574h-148z" />
    <glyph glyph-name="Lacute" unicode="&#x139;" horiz-adv-x="1780" 
d="M1357 997q59 58 106.5 121.5t81 125.5t51.5 119t18 104q0 20 -4 39t-14.5 33.5t-28 23t-44.5 8.5q-57 0 -115.5 -39t-112.5 -113q-42 -57 -76.5 -128.5t-66.5 -152.5t-63 -169t-66 -178q-49 -126 -97.5 -231t-99 -190t-103 -150.5t-109.5 -113.5q48 -14 106.5 -28.5
t122.5 -26.5t130 -20t131 -8q115 0 201 29t157 88.5t134.5 149t132.5 211.5l51 92l27 -19l-52 -92q-95 -168 -184 -275.5t-174.5 -169t-169 -84.5t-167.5 -23q-57 0 -121.5 10t-132 26.5t-137.5 37.5t-138 42q-74 -44 -154 -64.5t-172 -20.5q-63 0 -102.5 8.5t-62.5 22.5
t-31.5 32t-8.5 36q0 36 23 58t58 34.5t77 17t80 4.5q83 0 157.5 -13.5t137.5 -30.5q31 36 61.5 84t63 110.5t67.5 141t75 174.5q63 150 113.5 277.5t98.5 231.5t97.5 186.5t111.5 142.5q69 67 144 99t145 32q47 0 78.5 -13t50 -35.5t26 -52.5t7.5 -65q0 -118 -74.5 -238.5
t-215.5 -238.5zM206 -3q83 0 145 15t116 55q-33 10 -69.5 20.5t-75.5 19t-78.5 14t-77.5 5.5q-59 0 -92.5 -15.5t-33.5 -50.5q0 -13 6.5 -24.5t24.5 -20t50.5 -13.5t84.5 -5zM1399 1684q32 15 71 50.5t74 83.5q30 41 48 75t31.5 59t27 38.5t34.5 13.5q24 0 35.5 -17
t11.5 -40q0 -29 -16.5 -59.5t-42.5 -60t-59.5 -56.5t-67 -49.5t-65 -38.5t-53.5 -24z" />
    <glyph glyph-name="lacute" unicode="&#x13a;" horiz-adv-x="740" 
d="M350 1714q32 14 71 50t74 84q30 40 48 74t31.5 59t27 38.5t34.5 13.5q24 0 35.5 -16.5t11.5 -39.5q0 -37 -25 -75.5t-63 -74t-82 -65.5t-82 -50h125l-447 -1227q-14 -39 -28 -79.5t-24.5 -80t-17 -76t-6.5 -67.5q0 -69 36.5 -110t113.5 -41q67 0 129.5 29t124 87.5
t123.5 147t129 206.5l52 92l27 -19l-52 -92q-73 -129 -139.5 -223.5t-133 -156t-135.5 -91.5t-147 -30q-61 0 -107.5 18.5t-78 52.5t-47.5 82t-16 107q0 52 12 113.5t37 130.5l441 1213q-12 -5 -23 -9z" />
    <glyph glyph-name="Lcommaaccent" unicode="&#x13b;" horiz-adv-x="1780" 
d="M1357 997q59 58 106.5 121.5t81 125.5t51.5 119t18 104q0 20 -4 39t-14.5 33.5t-28 23t-44.5 8.5q-57 0 -115.5 -39t-112.5 -113q-42 -57 -76.5 -128.5t-66.5 -152.5t-63 -169t-66 -178q-49 -126 -97.5 -231t-99 -190t-103 -150.5t-109.5 -113.5q48 -14 106.5 -28.5
t122.5 -26.5t130 -20t131 -8q115 0 201 29t157 88.5t134.5 149t132.5 211.5l51 92l27 -19l-52 -92q-95 -168 -184 -275.5t-174.5 -169t-169 -84.5t-167.5 -23q-57 0 -121.5 10t-132 26.5t-137.5 37.5t-138 42q-74 -44 -154 -64.5t-172 -20.5q-63 0 -102.5 8.5t-62.5 22.5
t-31.5 32t-8.5 36q0 36 23 58t58 34.5t77 17t80 4.5q83 0 157.5 -13.5t137.5 -30.5q31 36 61.5 84t63 110.5t67.5 141t75 174.5q63 150 113.5 277.5t98.5 231.5t97.5 186.5t111.5 142.5q69 67 144 99t145 32q47 0 78.5 -13t50 -35.5t26 -52.5t7.5 -65q0 -118 -74.5 -238.5
t-215.5 -238.5zM206 -3q83 0 145 15t116 55q-33 10 -69.5 20.5t-75.5 19t-78.5 14t-77.5 5.5q-59 0 -92.5 -15.5t-33.5 -50.5q0 -13 6.5 -24.5t24.5 -20t50.5 -13.5t84.5 -5zM636 -491q32 2 62.5 15t54 32t38 41t14.5 42q0 6 -1.5 12.5t-6.5 11.5q-17 0 -33 6.5t-28.5 18.5
t-20 28t-7.5 36q0 17 6 34t18 31t29 22.5t39 8.5q17 0 34.5 -6t32 -20.5t23.5 -38t9 -58.5q0 -57 -23.5 -103.5t-62.5 -79t-88.5 -50.5t-100.5 -18z" />
    <glyph glyph-name="lcommaaccent" unicode="&#x13c;" horiz-adv-x="740" 
d="M407 1712h149l-447 -1227q-14 -39 -28 -79.5t-24.5 -80t-17 -76t-6.5 -67.5q0 -69 36.5 -110t113.5 -41q67 0 129.5 29t124 87.5t123.5 147t129 206.5l52 92l27 -19l-52 -92q-73 -129 -139.5 -223.5t-133 -156t-135.5 -91.5t-147 -30q-61 0 -107.5 18.5t-78 52.5
t-47.5 82t-16 107q0 52 12 113.5t37 130.5zM18 -491q32 2 62.5 15t54 32t37.5 41t14 42q0 14 -7 24q-17 0 -33 6.5t-28.5 18.5t-20 28t-7.5 36q0 17 6 34t17.5 31t28.5 22.5t39 8.5q17 0 35 -6t32.5 -20.5t23.5 -38t9 -58.5q0 -57 -23.5 -103.5t-62.5 -79t-88.5 -50.5
t-100.5 -18z" />
    <glyph glyph-name="Lcaron" unicode="&#x13d;" horiz-adv-x="1780" 
d="M1357 997q59 58 106.5 121.5t81 125.5t51.5 119t18 104q0 20 -4 39t-14.5 33.5t-28 23t-44.5 8.5q-57 0 -115.5 -39t-112.5 -113q-42 -57 -76.5 -128.5t-66.5 -152.5t-63 -169t-66 -178q-49 -126 -97.5 -231t-99 -190t-103 -150.5t-109.5 -113.5q48 -14 106.5 -28.5
t122.5 -26.5t130 -20t131 -8q115 0 201 29t157 88.5t134.5 149t132.5 211.5l51 92l27 -19l-52 -92q-95 -168 -184 -275.5t-174.5 -169t-169 -84.5t-167.5 -23q-57 0 -121.5 10t-132 26.5t-137.5 37.5t-138 42q-74 -44 -154 -64.5t-172 -20.5q-63 0 -102.5 8.5t-62.5 22.5
t-31.5 32t-8.5 36q0 36 23 58t58 34.5t77 17t80 4.5q83 0 157.5 -13.5t137.5 -30.5q31 36 61.5 84t63 110.5t67.5 141t75 174.5q63 150 113.5 277.5t98.5 231.5t97.5 186.5t111.5 142.5q69 67 144 99t145 32q47 0 78.5 -13t50 -35.5t26 -52.5t7.5 -65q0 -118 -74.5 -238.5
t-215.5 -238.5zM206 -3q83 0 145 15t116 55q-33 10 -69.5 20.5t-75.5 19t-78.5 14t-77.5 5.5q-59 0 -92.5 -15.5t-33.5 -50.5q0 -13 6.5 -24.5t24.5 -20t50.5 -13.5t84.5 -5zM765 1286q33 2 63 15t53.5 32t37.5 40.5t14 41.5q0 14 -7 25q-17 0 -30 7t-22 18t-13.5 25
t-4.5 29q0 16 5.5 32t16 29t26.5 20.5t37 7.5q22 0 38.5 -9.5t27.5 -25.5t16 -36t5 -41q0 -58 -25.5 -103.5t-65 -77t-88.5 -48t-96 -16.5z" />
    <glyph glyph-name="lcaron" unicode="&#x13e;" horiz-adv-x="1098" 
d="M407 1712h149l-447 -1227q-14 -39 -28 -79.5t-24.5 -80t-17 -76t-6.5 -67.5q0 -69 36.5 -110t113.5 -41q67 0 129.5 29t124 87.5t123.5 147t129 206.5l52 92l27 -19l-52 -92q-73 -129 -139.5 -223.5t-133 -156t-135.5 -91.5t-147 -30q-61 0 -107.5 18.5t-78 52.5
t-47.5 82t-16 107q0 52 12 113.5t37 130.5zM584 1286q33 2 63.5 15t54 32t37.5 40.5t14 41.5q0 14 -8 25q-17 0 -30 7t-21.5 18t-13 25t-4.5 29q0 16 5 32t15.5 29t26.5 20.5t37 7.5q22 0 38.5 -9.5t27.5 -25.5t16 -36t5 -41q0 -58 -25.5 -103.5t-65 -77t-88.5 -48
t-96 -16.5z" />
    <glyph glyph-name="Ldot" unicode="&#x13f;" horiz-adv-x="1780" 
d="M1357 997q59 58 106.5 121.5t81 125.5t51.5 119t18 104q0 20 -4 39t-14.5 33.5t-28 23t-44.5 8.5q-57 0 -115.5 -39t-112.5 -113q-42 -57 -76.5 -128.5t-66.5 -152.5t-63 -169t-66 -178q-49 -126 -97.5 -231t-99 -190t-103 -150.5t-109.5 -113.5q48 -14 106.5 -28.5
t122.5 -26.5t130 -20t131 -8q115 0 201 29t157 88.5t134.5 149t132.5 211.5l51 92l27 -19l-52 -92q-95 -168 -184 -275.5t-174.5 -169t-169 -84.5t-167.5 -23q-57 0 -121.5 10t-132 26.5t-137.5 37.5t-138 42q-74 -44 -154 -64.5t-172 -20.5q-63 0 -102.5 8.5t-62.5 22.5
t-31.5 32t-8.5 36q0 36 23 58t58 34.5t77 17t80 4.5q83 0 157.5 -13.5t137.5 -30.5q31 36 61.5 84t63 110.5t67.5 141t75 174.5q63 150 113.5 277.5t98.5 231.5t97.5 186.5t111.5 142.5q69 67 144 99t145 32q47 0 78.5 -13t50 -35.5t26 -52.5t7.5 -65q0 -118 -74.5 -238.5
t-215.5 -238.5zM206 -3q83 0 145 15t116 55q-33 10 -69.5 20.5t-75.5 19t-78.5 14t-77.5 5.5q-59 0 -92.5 -15.5t-33.5 -50.5q0 -13 6.5 -24.5t24.5 -20t50.5 -13.5t84.5 -5zM1176 594q0 19 7.5 36.5t20 30.5t29 20.5t35.5 7.5t36 -7.5t30 -20.5t20.5 -30t7.5 -36t-7.5 -36
t-20.5 -29.5t-30 -19.5t-36 -7t-36 7t-29.5 19.5t-19.5 29t-7 35.5z" />
    <glyph glyph-name="ldot" unicode="&#x140;" 
d="M407 1712h149l-447 -1227q-14 -39 -28 -79.5t-24.5 -80t-17 -76t-6.5 -67.5q0 -69 36.5 -110t113.5 -41q67 0 129.5 29t124 87.5t123.5 147t129 206.5l52 92l27 -19l-52 -92q-73 -129 -139.5 -223.5t-133 -156t-135.5 -91.5t-147 -30q-61 0 -107.5 18.5t-78 52.5
t-47.5 82t-16 107q0 52 12 113.5t37 130.5zM416 843q0 19 7 36t19.5 30t29.5 20.5t36 7.5t36 -7.5t30 -20.5t20.5 -30t7.5 -36t-7.5 -35.5t-20.5 -29t-30.5 -20t-36.5 -7.5t-35.5 7t-29 19.5t-19.5 29.5t-7 36z" />
    <glyph glyph-name="Lslash" unicode="&#x141;" horiz-adv-x="1780" 
d="M1357 997q59 58 106.5 121.5t81 125.5t51.5 119t18 104q0 20 -4 39t-14.5 33.5t-28 23t-44.5 8.5q-57 0 -115.5 -39t-112.5 -113q-42 -57 -77 -129.5t-69 -159t-70.5 -187t-80.5 -214.5l333 117l-23 -85l-349 -126q-81 -189 -165.5 -318.5t-179.5 -210.5
q48 -14 106.5 -28.5t122.5 -26.5t130 -20t131 -8q115 0 201 29t157 88.5t134.5 149t132.5 211.5l51 92l27 -19l-52 -92q-95 -168 -184 -275.5t-174.5 -169t-169 -84.5t-167.5 -23q-57 0 -121.5 10t-132 26.5t-137.5 37.5t-138 42q-74 -44 -154 -64.5t-172 -20.5
q-63 0 -102.5 8.5t-62.5 22.5t-31.5 32t-8.5 36q0 36 23 58t58 34.5t77 17t80 4.5q83 0 157.5 -13.5t137.5 -30.5q55 64 111 170t124 266l-370 -134l32 96l379 134q60 146 109.5 269.5t96.5 225t96.5 182t109.5 139.5q69 67 144 99t145 32q47 0 78.5 -13t50 -35.5t26 -52.5
t7.5 -65q0 -118 -74.5 -238.5t-215.5 -238.5zM206 -3q83 0 145 15t116 55q-33 10 -69.5 20.5t-75.5 19t-78.5 14t-77.5 5.5q-59 0 -92.5 -15.5t-33.5 -50.5q0 -13 6.5 -24.5t24.5 -20t50.5 -13.5t84.5 -5z" />
    <glyph glyph-name="lslash" unicode="&#x142;" horiz-adv-x="740" 
d="M114 905l-323 -158v93l364 178l252 694h149l-221 -606l320 157v-93l-361 -177l-185 -508q-14 -39 -28 -79.5t-24.5 -80t-17 -76t-6.5 -67.5q0 -69 36.5 -110t113.5 -41q67 0 129.5 29t124 87.5t123.5 147t129 206.5l52 92l27 -19l-52 -92q-73 -129 -139.5 -223.5
t-133 -156t-135.5 -91.5t-147 -30q-61 0 -107.5 18.5t-78 52.5t-47.5 82t-16 107q0 52 12 113.5t37 130.5z" />
    </font>
</defs>
</svg>
