<?xml version="1.0" standalone="no"?>
<!DOCTYPE svg PUBLIC "-//W3C//DTD SVG 1.1//EN" "http://www.w3.org/Graphics/SVG/1.1/DTD/svg11.dtd" >
<svg xmlns="http://www.w3.org/2000/svg" xmlns:xlink="http://www.w3.org/1999/xlink" version="1.1">
<metadata>
Created by FontForge 20190801 at Mon Feb  8 12:18:05 2021
 By root
Copyright 2017 The Playfair Display Project Authors (https://github.com/clauseggers/Playfair-Display), with Reserved Font Name "Playfair Display".
</metadata>
<defs>
<font id="PlayfairDisplaySC-Italic" horiz-adv-x="253" >
  <font-face 
    font-family="Playfair Display SC"
    font-weight="400"
    font-style="italic"
    font-stretch="normal"
    units-per-em="1000"
    panose-1="0 0 5 0 0 0 0 0 0 0"
    ascent="800"
    descent="-200"
    x-height="608"
    cap-height="708"
    bbox="-731 -242 1627 1052"
    underline-thickness="20"
    underline-position="-100"
    slope="-14"
    unicode-range="U+0001-206F"
  />
<missing-glyph horiz-adv-x="364" 
d="M33 0v666h265v-666h-265zM66 33h199v600h-199v-600z" />
    <glyph glyph-name=".notdef" horiz-adv-x="364" 
d="M33 0v666h265v-666h-265zM66 33h199v600h-199v-600z" />
    <glyph glyph-name=".null" horiz-adv-x="0" 
 />
    <glyph glyph-name="nonmarkingreturn" unicode="&#xd;" 
 />
    <glyph glyph-name="NULL" 
 />
    <glyph glyph-name="NULL" 
 />
    <glyph glyph-name="uni0001" 
 />
    <glyph glyph-name="uni0002" 
 />
    <glyph glyph-name="uni0003" 
 />
    <glyph glyph-name="uni0004" 
 />
    <glyph glyph-name="uni0005" 
 />
    <glyph glyph-name="uni0006" 
 />
    <glyph glyph-name="uni0007" 
 />
    <glyph glyph-name="uni0008" 
 />
    <glyph glyph-name="uni0009" unicode="&#x9;" 
 />
    <glyph glyph-name="uni000A" unicode="&#xa;" 
 />
    <glyph glyph-name="uni000B" 
 />
    <glyph glyph-name="uni000C" 
 />
    <glyph glyph-name="uni000E" 
 />
    <glyph glyph-name="uni000F" 
 />
    <glyph glyph-name="uni0010" 
 />
    <glyph glyph-name="uni0011" 
 />
    <glyph glyph-name="uni0012" 
 />
    <glyph glyph-name="uni0013" 
 />
    <glyph glyph-name="uni0014" 
 />
    <glyph glyph-name="uni0015" 
 />
    <glyph glyph-name="uni0016" 
 />
    <glyph glyph-name="uni0017" 
 />
    <glyph glyph-name="uni0018" 
 />
    <glyph glyph-name="uni0019" 
 />
    <glyph glyph-name="uni001A" 
 />
    <glyph glyph-name="uni001B" 
 />
    <glyph glyph-name="uni001C" 
 />
    <glyph glyph-name="uni001D" 
 />
    <glyph glyph-name="uni001E" 
 />
    <glyph glyph-name="uni001F" 
 />
    <glyph glyph-name="space" unicode=" " 
 />
    <glyph glyph-name="exclam" unicode="!" horiz-adv-x="279" 
d="M145 453q16 99 21 130q4 19 16.5 29t28.5 10q20 0 32.5 -12t12.5 -32q0 -7 -3 -18q-8 -31 -45 -121q-61 -146 -87 -243l-18 3q18 88 42 254zM39.5 90.5q22.5 23.5 51.5 23.5q23 0 37 -15t14 -37q0 -30 -23 -53t-52 -23q-22 0 -36 14.5t-14 36.5q0 30 22.5 53.5z" />
    <glyph glyph-name="quotedbl" unicode="&#x22;" horiz-adv-x="296" 
d="M225.5 661q-7.5 -18 -25.5 -51q-26 -45 -46 -92h-14q7 53 11 100q3 43 9 70q5 21 16.5 31.5t25.5 10.5q16 0 23.5 -9t7.5 -24q0 -18 -7.5 -36zM334.5 661q-7.5 -18 -25.5 -51q-26 -45 -46 -92h-14q7 53 11 100q3 43 9 70q5 21 16.5 31.5t25.5 10.5q16 0 23.5 -9t7.5 -24
q0 -18 -7.5 -36z" />
    <glyph glyph-name="numbersign" unicode="#" horiz-adv-x="639" 
d="M481 434l-77 -167h143l-10 -20h-142l-68 -146h-24l68 146h-163l-68 -146h-24l68 146h-147l9 20h147l77 167h-146l8 20h147l69 148h24l-69 -148h163l69 148h24l-69 -148h143l-8 -20h-144zM457 434h-163l-77 -167h163z" />
    <glyph glyph-name="dollar" unicode="$" horiz-adv-x="573" 
d="M542.5 520q16.5 -29 16.5 -61t-16.5 -55.5t-43.5 -23.5q-25 0 -38 19t-13 46q0 29 10.5 53.5t28.5 52.5q-24 24 -66 39l-70 -263q60 -40 92.5 -77t32.5 -90q0 -76 -63.5 -120t-152.5 -52l-24 -90h-20l24 88h-16q-34 0 -60 6l-25 -94h-20l26 99q-26 8 -44.5 19.5
t-39.5 27.5q-22 17 -37 45t-15 60t16.5 55.5t43.5 23.5q25 0 38 -19t13 -46q0 -29 -10.5 -53t-28.5 -53q27 -26 70 -40l73 274q-50 36 -76.5 71t-26.5 85q0 74 55 119.5t136 53.5l24 90h20l-24 -88h12q39 0 64 -7l25 95h20l-27 -100q26 -8 44.5 -19.5t36.5 -26.5
q19 -15 35.5 -44zM402 595q-30 8 -62 8h-13l-58 -220q19 -15 65 -45zM252 397l55 204q-48 -7 -76.5 -33.5t-28.5 -70.5q0 -53 50 -100zM245 6l61 227q-17 14 -42 31l-23 16l-72 -268q27 -6 59 -6h17zM322 219l-57 -211q108 15 108 105q0 58 -51 106z" />
    <glyph glyph-name="percent" unicode="%" horiz-adv-x="766" 
d="M839 811l-833 -866l-15 13l833 866zM139.5 640q27.5 53 75 87t104.5 34q53 0 82 -27.5t29 -76.5q0 -53 -27 -106t-74.5 -87t-104.5 -34q-53 0 -82.5 27t-29.5 77q0 53 27.5 106zM241 703q-30 -40 -46 -94t-16 -94q0 -67 52 -67q40 0 70 40t46 94.5t16 94.5
q0 33 -13.5 49.5t-38.5 16.5q-40 0 -70 -40zM403.5 196q27.5 53 75 87t104.5 34q53 0 82 -27.5t29 -76.5q0 -53 -27 -106t-74.5 -87t-104.5 -34q-53 0 -82.5 27t-29.5 77q0 53 27.5 106zM505 259q-30 -40 -46 -94t-16 -94q0 -67 52 -67q40 0 70 40t46 94.5t16 94.5
q0 33 -13.5 49.5t-38.5 16.5q-40 0 -70 -40z" />
    <glyph glyph-name="ampersand" unicode="&#x26;" horiz-adv-x="793" 
d="M782 638.5q34 -29.5 34 -86.5q0 -53 -30.5 -91.5t-91.5 -67.5q-19 -9 -41.5 -17.5t-31.5 -11.5l-61 -23q96 -30 96 -125q0 -70 -49.5 -122t-130 -80t-171.5 -28q-79 0 -143.5 21.5t-101.5 63t-37 98.5q0 75 61 135.5t154 83.5q-37 20 -53.5 46.5t-16.5 54.5q0 39 29 69
t73.5 47t90.5 17q54 0 87.5 -23t33.5 -60q0 -32 -25 -50.5t-60 -18.5v17q28 0 46.5 13.5t18.5 38.5q0 29 -26 48.5t-70 19.5q-60 0 -98 -37t-38 -94q0 -45 22 -82q36 6 63 6q36 0 36 -21q0 -10 -9 -15.5t-22 -5.5q-25 0 -69 22q-68 -18 -110.5 -64t-42.5 -105
q0 -73 63.5 -112t161.5 -39q65 0 136 17t121 55t50 98q0 77 -90 103q-28 -11 -59 -25q-67 -29 -91 -48.5t-24 -45.5t17.5 -39.5t44.5 -13.5q45 0 73 33l10 -11q-32 -38 -85 -38q-38 0 -62.5 20t-24.5 64q0 39 21.5 67.5t58.5 49t96 43.5q3 1 62 23t108 44q46 21 75 46.5
t29 65.5q0 38 -28 61.5t-71 23.5q-25 0 -32 -9q10 -6 15.5 -16t5.5 -22q0 -23 -20 -40t-46 -17q-20 0 -32.5 11t-12.5 31q0 21 14 37t36 26q32 14 73 14q57 0 91 -29.5z" />
    <glyph glyph-name="quotesingle" unicode="'" horiz-adv-x="187" 
d="M225.5 661q-7.5 -18 -25.5 -51q-26 -45 -46 -92h-14q7 53 11 100q3 43 9 70q5 21 16.5 31.5t25.5 10.5q16 0 23.5 -9t7.5 -24q0 -18 -7.5 -36z" />
    <glyph glyph-name="parenleft" unicode="(" horiz-adv-x="335" 
d="M187.5 443.5q-71.5 -100.5 -71.5 -231.5q0 -66 26.5 -125t81.5 -104l-13 -15q-86 59 -129 117t-43 138q0 112 96 224t247 193l10 -13q-133 -83 -204.5 -183.5z" />
    <glyph glyph-name="parenright" unicode=")" horiz-adv-x="335" 
d="M152.5 164.5q71.5 100.5 71.5 231.5q0 66 -26.5 125t-81.5 104l13 15q86 -59 129 -117t43 -138q0 -112 -96 -224t-247 -193l-10 13q133 83 204.5 183.5z" />
    <glyph glyph-name="asterisk" unicode="*" horiz-adv-x="495" 
d="M512 614q0 -12 -10.5 -25t-32.5 -24q-19 -9 -46 -17t-58 -15l-55 -14q45 -13 55 -16q26 -8 49 -15.5t35 -15.5q24 -15 24 -36q0 -13 -9 -24q-11 -16 -31 -16q-15 0 -33 12q-13 8 -24 20t-30 36q-21 27 -38 46l3 -64q2 -38 2 -52q0 -13 -2 -33q-7 -28 -21 -41t-30 -13
q-11 0 -18.5 7.5t-7.5 24.5q0 10 3 22q3 20 14 44.5t33 68.5l20 41h-1q-16 -13 -29 -24t-23 -19q-25 -21 -47.5 -38.5t-38.5 -26.5q-22 -11 -39 -11q-20 0 -27 17q-2 6 -2 9q0 25 43 49q18 9 45 16.5t57 15.5q40 9 56 14q-9 3 -56 17q-33 9 -51.5 15.5t-30.5 14.5
q-24 15 -24 36q0 14 9 24q11 16 31 16q15 0 33 -12q13 -8 24 -20t31 -37q27 -34 40 -49q-2 20 -2 28q-6 70 -6 89q0 20 3 36q6 28 20 41t29 13q12 0 19.5 -8t7.5 -24q0 -10 -3 -22q-3 -18 -11.5 -38.5t-26.5 -58.5q-7 -14 -25 -54q11 9 24 19.5t26 21.5q24 20 46.5 37.5
t38.5 26.5q22 11 39 11q20 0 27 -17q2 -6 2 -9z" />
    <glyph glyph-name="plus" unicode="+" horiz-adv-x="585" 
d="M296 370l67 236h36l-67 -236h232l-9 -30h-232l-67 -235h-36l67 235h-233l9 30h233z" />
    <glyph glyph-name="comma" unicode="," horiz-adv-x="252" 
d="M89.5 -49.5q-39.5 -51.5 -107.5 -84.5l-5 14q47 29 75 63t31 68q-29 -25 -52 -25q-18 0 -28 9.5t-10 25.5q0 21 13.5 43t35 36t43.5 14t33 -17t11 -42q0 -53 -39.5 -104.5z" />
    <glyph glyph-name="hyphen" unicode="-" horiz-adv-x="521" 
d="M449 323l-15 -58h-361l15 58h361z" />
    <glyph glyph-name="period" unicode="." horiz-adv-x="244" 
d="M21.5 90.5q22.5 23.5 51.5 23.5q23 0 37 -15t14 -37q0 -30 -23 -53t-52 -23q-22 0 -36 14.5t-14 36.5q0 30 22.5 53.5z" />
    <glyph glyph-name="slash" unicode="/" horiz-adv-x="468" 
d="M508 722h33l-548 -736h-33z" />
    <glyph glyph-name="zero" unicode="0" horiz-adv-x="565" 
d="M472.5 482.5q40.5 -46.5 40.5 -130.5q0 -89 -43.5 -174t-117 -138.5t-157.5 -53.5q-77 0 -120.5 46t-43.5 132q0 89 45.5 174t120.5 138t159 53q76 0 116.5 -46.5zM233.5 460.5q-49.5 -50.5 -80 -133t-30.5 -172.5q0 -151 91 -151q56 0 103.5 53t75.5 137.5t28 172.5
q0 77 -22 110.5t-62 33.5q-54 0 -103.5 -50.5z" />
    <glyph glyph-name="one" unicode="1" horiz-adv-x="342" 
d="M159 0h-87l128 433q-58 -33 -150 -61l3 21q83 25 133.5 56t107.5 77h20z" />
    <glyph glyph-name="two" unicode="2" horiz-adv-x="503" 
d="M402.5 502q36.5 -26 36.5 -73q0 -49 -39.5 -99.5t-92.5 -92.5t-129 -95q-56 -39 -75 -55q27 0 103 -14q78 -14 109 -14q69 0 69 48q0 37 -44 57l13 13q55 -26 55 -79q0 -43 -31.5 -73.5t-93.5 -30.5q-21 0 -41 3.5t-49 10.5q-31 8 -55.5 12t-51.5 4q-29 0 -52.5 -5.5
t-54.5 -18.5l5 21q11 9 32 23.5t33 23.5q86 61 146.5 110.5t106.5 112.5t46 127q0 41 -20 64.5t-57 23.5q-36 0 -76.5 -24t-67.5 -61.5t-27 -75.5q0 -25 13.5 -36.5t44.5 -11.5q26 0 46.5 9.5t45.5 31.5l12 -14q-26 -25 -55 -36.5t-56 -11.5q-31 0 -53 15t-22 53
q0 44 31.5 87t84 70t112.5 27q62 0 98.5 -26z" />
    <glyph glyph-name="three" unicode="3" horiz-adv-x="485" 
d="M401.5 505q36.5 -26 36.5 -73q0 -43 -31.5 -80t-79.5 -63.5t-96 -38.5q70 -2 115 -31.5t45 -82.5q0 -86 -75.5 -151t-186 -99.5t-209.5 -36.5l5 18q86 5 172 38.5t143.5 94.5t57.5 143q0 40 -22.5 64.5t-62.5 26.5q-16 -7 -31.5 -12t-26.5 -5q-22 0 -17 15q4 19 48 19
l19 -1q62 24 104.5 69.5t42.5 99.5q0 42 -22 66t-60 24q-34 0 -72 -19.5t-63.5 -50t-25.5 -61.5q0 -25 13.5 -36.5t44.5 -11.5q33 0 62 15l11 -15q-39 -21 -80 -21q-31 0 -53 15t-22 53q0 36 30 72t80 59t108 23q62 0 98.5 -26z" />
    <glyph glyph-name="four" unicode="4" horiz-adv-x="515" 
d="M418 34h-133l-47 -175h-87l47 175h-249l6 21l436 474h26l-117 -438h134zM213 91l82 307l-281 -307h199z" />
    <glyph glyph-name="five" unicode="5" horiz-adv-x="459" 
d="M439 531q-51 -110 -137 -110q-22 0 -56 19q-3 2 -15.5 7.5t-22.5 7.5t-17 1l-112 -229q32 17 65.5 25.5t74.5 8.5q77 0 115 -31t38 -83q0 -92 -73 -157.5t-179 -100t-201 -37.5l5 18q81 1 163 33.5t136 95t54 146.5q0 40 -26 63t-79 23q-52 0 -111 -27l-10 5l150 309
q30 1 65 -11q40 -14 78 -14q57 0 83 45z" />
    <glyph glyph-name="six" unicode="6" horiz-adv-x="527" 
d="M530 702q-96 -23 -189.5 -105t-153.5 -203.5t-60 -256.5q0 -73 18 -102t54 -29q53 0 94 49t63.5 120t22.5 133q0 101 -65 101q-33 0 -64 -28.5t-54 -93.5l-16 6q25 78 70.5 111.5t96.5 33.5q57 0 91.5 -39.5t34.5 -110.5q0 -77 -40 -147t-107 -112.5t-143 -42.5
q-75 0 -111 45t-36 134q0 142 80.5 263t195.5 198.5t212 95.5z" />
    <glyph glyph-name="seven" unicode="7" horiz-adv-x="487" 
d="M541 514q-23 -32 -94 -113q-66 -76 -110.5 -133.5t-84.5 -130.5t-62 -155q-4 -14 -12 -53l-5 -26q-6 -22 -22.5 -36.5t-39.5 -14.5q-31 0 -31 34q0 6 2 22q11 64 58.5 141.5t106 149t142.5 165.5q63 70 90 104q-63 -42 -146 -42q-28 0 -50.5 4t-49.5 12q-45 13 -74 13
q-39 0 -62.5 -17t-23.5 -50q0 -42 34 -70t105 -45l-6 -15q-157 30 -157 141q0 30 15.5 58t47 45.5t78.5 17.5q30 0 54.5 -6t63.5 -19q35 -13 59.5 -19t53.5 -6q31 0 53.5 9.5t40.5 34.5h26z" />
    <glyph glyph-name="eight" unicode="8" horiz-adv-x="544" 
d="M339 396q40 -38 63 -64.5t39.5 -61.5t16.5 -77q0 -62 -36 -109t-98 -72.5t-137 -25.5q-81 0 -129 32t-48 97q0 82 70 147t169 108q-45 44 -68.5 81.5t-23.5 86.5q0 54 34.5 96t89.5 65t115 23q63 0 102 -26.5t39 -79.5q0 -114 -198 -220zM419 500.5q37 57.5 37 118.5
q0 85 -78 85q-37 0 -69 -18.5t-50.5 -51.5t-18.5 -74q0 -42 22.5 -77t65.5 -76q54 36 91 93.5zM354.5 243q-14.5 32 -36 56.5t-57.5 59.5q-72 -40 -117.5 -109t-45.5 -144q0 -48 22.5 -75t75.5 -27q45 0 85 20t64 58.5t24 89.5q0 39 -14.5 71z" />
    <glyph glyph-name="nine" unicode="9" horiz-adv-x="513" 
d="M430 483q36 -45 36 -134q0 -137 -78.5 -254t-191.5 -191.5t-208 -91.5l-6 20q94 22 185 101t149.5 196.5t58.5 247.5q0 73 -18 102t-54 29q-53 0 -94 -49t-63.5 -120t-22.5 -133q0 -101 65 -101q33 0 64 28.5t54 93.5l16 -6q-25 -78 -70.5 -111.5t-96.5 -33.5
q-57 0 -91.5 39.5t-34.5 110.5q0 77 40 147t107 112.5t143 42.5q75 0 111 -45z" />
    <glyph glyph-name="colon" unicode=":" horiz-adv-x="278" 
d="M138.5 504.5q22.5 23.5 51.5 23.5q23 0 37 -15t14 -37q0 -30 -23 -53t-52 -23q-22 0 -36 14.5t-14 36.5q0 30 22.5 53.5zM38.5 90.5q22.5 23.5 51.5 23.5q23 0 37 -15t14 -37q0 -30 -23 -53t-52 -23q-22 0 -36 14.5t-14 36.5q0 30 22.5 53.5z" />
    <glyph glyph-name="semicolon" unicode=";" horiz-adv-x="287" 
d="M139.5 504.5q22.5 23.5 51.5 23.5q23 0 37 -15t14 -37q0 -30 -23 -53t-52 -23q-22 0 -36 14.5t-14 36.5q0 30 22.5 53.5zM109.5 -49.5q-39.5 -51.5 -107.5 -84.5l-5 14q47 29 75 63t31 68q-29 -25 -52 -25q-18 0 -28 9.5t-10 25.5q0 21 13.5 43t35 36t43.5 14t33 -17
t11 -42q0 -53 -39.5 -104.5z" />
    <glyph glyph-name="less" unicode="&#x3c;" horiz-adv-x="602" 
d="M613 553l-487 -202l331 -174l-16 -32l-390 210l552 227z" />
    <glyph glyph-name="equal" unicode="=" horiz-adv-x="663" 
d="M119 440h501l-9 -30h-501zM79 300h501l-9 -30h-501z" />
    <glyph glyph-name="greater" unicode="&#x3e;" horiz-adv-x="602" 
d="M52 184l460 192l-370 198l16 29l429 -231l-525 -217z" />
    <glyph glyph-name="question" unicode="?" horiz-adv-x="429" 
d="M218.5 592q-31.5 -13 -39.5 -36q9 -2 17 -13.5t8 -26.5q0 -21 -15.5 -35t-37.5 -14q-20 0 -30 11.5t-10 30.5q0 32 27 58t71 40.5t90 14.5q61 0 99.5 -24t38.5 -63q0 -42 -38 -80t-137 -94l-23 -13q-61 -33 -84.5 -52t-23.5 -42q0 -22 17 -35.5t54 -13.5q30 0 58 12
t38 32q-10 1 -18.5 11.5t-7.5 23.5q0 16 13 28.5t32 12.5q15 0 24.5 -8.5t9.5 -26.5q0 -30 -26 -53t-65 -36t-77 -13q-52 0 -83.5 20t-31.5 57q0 42 37.5 74t118.5 76t110.5 66.5t29.5 49.5q0 33 -20.5 53.5t-60.5 20.5q-33 0 -64.5 -13zM100.5 90.5q22.5 23.5 51.5 23.5
q23 0 37 -15t14 -37q0 -30 -23 -53t-52 -23q-22 0 -36 14.5t-14 36.5q0 30 22.5 53.5z" />
    <glyph glyph-name="at" unicode="@" horiz-adv-x="849" 
d="M470 121q0 21 9 55q-30 -62 -65 -91t-83 -29q-54 0 -78.5 33t-24.5 88q0 74 39 152t100 128.5t121 50.5t66 -64l14 50q57 0 90 14l-106 -367q-6 -21 -6 -34q0 -14 7 -20t22 -6q38 0 95 42.5t99.5 120.5t42.5 180q0 131 -81.5 193.5t-209.5 62.5q-120 0 -227.5 -69.5
t-172 -186t-64.5 -249.5q0 -147 81.5 -217.5t218.5 -70.5q116 0 206 54l7 -13q-39 -27 -94 -43t-120 -16q-146 0 -232.5 75.5t-86.5 228.5q0 134 65 255t176 195.5t242 74.5q140 0 226 -68t86 -207q0 -106 -46.5 -190t-114.5 -130.5t-129 -46.5q-72 0 -72 65zM437 137
q35 51 75 157l34 121q-1 37 -14.5 53.5t-39.5 16.5q-47 0 -88 -45.5t-66 -116t-25 -140.5q0 -97 52 -97q37 0 72 51z" />
    <glyph glyph-name="A" unicode="A" horiz-adv-x="629" 
d="M521 36q14 -15 32 -16l-4 -20q-40 3 -109 3q-81 0 -120 -3l4 20q34 2 52.5 8.5t26.5 24t7 51.5l-9 164h-246l-75 -106q-47 -66 -47 -99q0 -41 74 -43l-5 -20q-55 3 -114 3q-43 0 -75 -3l5 20q46 10 100 87l431 606h15l40 -629q3 -33 17 -48zM400 288l-17 303l-214 -303
h231z" />
    <glyph glyph-name="B" unicode="B" horiz-adv-x="632" 
d="M520.5 317q38.5 -43 38.5 -106q0 -68 -43 -115.5t-111.5 -71.5t-143.5 -24l-73 1q-60 2 -99 2q-80 0 -122 -3l4 20q36 2 54 8t28.5 23t20.5 55l132 496q8 30 8 48q0 19 -14.5 28t-52.5 10l5 20q40 -3 119 -3q45 0 68 1l73 1q93 0 140.5 -34t47.5 -94q0 -72 -59.5 -125
t-145.5 -80q87 -14 125.5 -57zM238 376h66q59 0 103.5 27t69 72t24.5 97q0 59 -26 87.5t-82 28.5q-44 0 -62 -14t-29 -57zM402 74.5q57 51.5 57 151.5q0 133 -143 133h-82l-67 -253q-9 -36 -9 -49q0 -18 13.5 -26t46.5 -8q127 0 184 51.5z" />
    <glyph glyph-name="C" unicode="C" horiz-adv-x="670" 
d="M648 478h-22q6 39 6 69q0 48 -16 79q-18 37 -53.5 57.5t-77.5 20.5q-83 0 -160.5 -78t-125.5 -196.5t-48 -229.5q0 -96 38 -146t105 -50q44 0 93 20.5t85 57.5q26 26 45 60.5t45 97.5h22q-47 -173 -59 -240h-22q3 21 3 34q0 26 -12 26q-7 0 -21 -9q-52 -34 -91 -49.5
t-98 -15.5q-111 0 -172 60t-61 175t57.5 232t158 193t220.5 76q58 0 88.5 -16.5t60.5 -48.5q7 -9 15 -9q9 0 18.5 14.5t21.5 45.5h21q-33 -86 -64 -230z" />
    <glyph glyph-name="D" unicode="D" horiz-adv-x="725" 
d="M642 249.5q-62 -112.5 -170.5 -181t-241.5 -68.5l-58 1q-56 2 -82 2q-81 0 -120 -3l3 20q34 2 51.5 8t28 23.5t20.5 54.5l131 496q9 38 9 49q0 20 -14.5 28t-52.5 9l3 20q34 -3 97 -3l85 1q68 2 91 2q141 0 211.5 -56t70.5 -165q0 -125 -62 -237.5zM430 85.5
q88 67.5 133 180.5t45 246q0 91 -51 134.5t-163 43.5q-31 0 -48.5 -7t-28.5 -25t-20 -54l-131 -500q-9 -36 -9 -49q0 -19 13.5 -28t47.5 -9q124 0 212 67.5z" />
    <glyph glyph-name="E" unicode="E" horiz-adv-x="610" 
d="M642 708q-26 -72 -38 -118q-11 -36 -14 -62h-23q9 58 9 80q0 43 -22 60t-79 17h-73q-36 0 -53.5 -5.5t-28.5 -22.5t-21 -55l-63 -236h66q35 0 58 16.5t36 38.5t26 56q3 10 8 21h23q-21 -66 -35 -119l-6 -23q-14 -53 -32 -142h-23l3 20q1 7 3 22t2 26q0 30 -15.5 47
t-53.5 17h-66l-64 -240q-9 -31 -9 -49q0 -21 15 -27.5t53 -6.5h73q62 0 99 16.5t61.5 53t50.5 107.5h23q-11 -29 -22 -72q-16 -56 -27 -128q-68 3 -229 3q-192 0 -289 -3l5 20q36 2 53.5 8t28.5 23t21 55l133 496q9 32 9 49q0 21 -14.5 28t-52.5 9l5 20q98 -3 290 -3
q140 0 199 3z" />
    <glyph glyph-name="F" unicode="F" horiz-adv-x="566" 
d="M642 708q-25 -71 -41 -128q-10 -37 -19 -82h-23q11 64 11 100q0 48 -25 67.5t-90 19.5h-53q-36 0 -53.5 -5.5t-28.5 -22.5t-21 -55l-66 -246h73q51 0 76 30.5t36.5 61.5t15.5 40h23q-21 -66 -35 -119l-6 -23q-16 -66 -32 -142h-23l3 22q5 27 5 47q0 30 -15 46.5t-53 16.5
h-73l-62 -230q-8 -30 -8 -44q0 -24 18.5 -32t67.5 -10l-5 -20q-52 3 -147 3q-85 0 -127 -3l5 20q36 2 53.5 8t28.5 23t21 55l133 496q9 32 9 49q0 21 -14.5 28t-52.5 9l5 20q98 -3 290 -3q140 0 199 3z" />
    <glyph glyph-name="G" unicode="G" horiz-adv-x="705" 
d="M378.5 15q29.5 9 51.5 22q20 12 30 27t16 36l23 88q9 33 9 52q0 25 -18 33.5t-66 10.5l5 20q53 -3 140 -3q69 0 105 3l-5 -20q-24 -2 -35.5 -8t-20 -22.5t-18.5 -55.5l-53 -198h-20q3 12 3 26q0 31 -15 31q-6 0 -13.5 -3t-24.5 -14q-42 -26 -83 -40t-87 -14
q-122 0 -187 59.5t-65 169.5q0 116 56.5 234t157 195.5t224.5 77.5q60 0 95.5 -16.5t68.5 -48.5q9 -9 17 -9q10 0 19.5 14t20.5 46h22q-33 -86 -64 -230h-22q5 43 5 75q0 46 -14 73q-21 37 -62 57.5t-92 20.5q-103 0 -180.5 -87t-118 -210t-40.5 -225q0 -90 42.5 -133
t130.5 -43q33 0 62.5 9z" />
    <glyph glyph-name="H" unicode="H" horiz-adv-x="755" 
d="M820 708l-5 -20q-37 -2 -54.5 -8t-28 -23t-20.5 -55l-132 -496q-9 -38 -9 -49q0 -21 14.5 -28t53.5 -9l-4 -20q-42 3 -128 3q-80 0 -127 -3l4 20q36 2 54 8t28.5 23t20.5 55l64 240h-321l-64 -240q-9 -38 -9 -49q0 -21 14.5 -28t53.5 -9l-4 -20q-46 3 -127 3
q-84 0 -127 -3l5 20q35 2 52.5 8t28 23.5t20.5 54.5l132 496q8 34 8 48q0 22 -14.5 29t-52.5 9l5 20q41 -3 127 -3q80 0 128 3l-5 -20q-37 -2 -54.5 -8t-28 -23t-20.5 -55l-63 -236h321l63 236q9 32 9 48q0 22 -15 29t-53 9l5 20q45 -3 126 -3q86 0 129 3z" />
    <glyph glyph-name="I" unicode="I" horiz-adv-x="341" 
d="M157 57q0 -21 14.5 -28t53.5 -9l-4 -20q-46 3 -127 3q-84 0 -127 -3l5 20q35 2 52.5 8t28 23.5t20.5 54.5l132 496q8 34 8 48q0 22 -14.5 29t-52.5 9l5 20q41 -3 127 -3q80 0 128 3l-5 -20q-37 -2 -54.5 -8t-28 -23t-20.5 -55l-132 -496q-9 -38 -9 -49z" />
    <glyph glyph-name="J" unicode="J" horiz-adv-x="636" 
d="M743 718q0 -24 -73 -52q-140 -93 -208 -300h99l-3 -20h-102q-8 -26 -11 -39l-62 -242q-29 -112 -88 -182.5t-148 -70.5q-47 0 -74.5 14.5t-27.5 42.5q0 22 16 39.5t39 17.5q18 0 30 -12t12 -30q0 -16 -11.5 -29.5t-28.5 -21.5q15 -5 35 -5q45 0 74.5 34t47 85t39.5 141
q4 19 14 57l30 117q13 48 28 84h-133l3 20h138q42 91 107 157t168 140q-116 -60 -198 -60q-32 0 -58.5 7t-63.5 21q-39 14 -65 21t-59 7q-32 0 -48.5 -16t-16.5 -45q0 -64 74 -78l-3 -20q-47 8 -78.5 37.5t-31.5 85.5q0 51 31 83.5t85 32.5q37 0 66.5 -14t66.5 -40
q38 -27 66.5 -40t63.5 -13q46 0 82 10t95 35q38 58 63 58q8 0 13 -5q6 -6 6 -12z" />
    <glyph glyph-name="K" unicode="K" horiz-adv-x="675" 
d="M692.5 707q14.5 -15 14.5 -39q0 -22 -14.5 -45.5t-43.5 -23.5q-20 0 -29.5 11.5t-9.5 28.5q0 14 9 31.5t23 30.5h-3q-20 -1 -36 -14q-17 -15 -28.5 -40.5t-29.5 -75.5q-21 -59 -40 -97.5t-52 -68t-83 -36.5q37 -8 59 -21.5t34 -47t10 -95.5l-4 -113q-1 -26 4.5 -38.5
t25.5 -12.5q25 0 42.5 18.5t31.5 59.5l17 51h20l-26 -77q-19 -55 -49 -81t-73 -26q-92 0 -84 116l7 113q1 13 1 36q0 46 -9 69t-28 38q-37 -9 -57 -9q-31 0 -31 20t30 20q22 0 61 -10q51 6 83.5 34.5t50 65.5t38.5 96q18 52 31 79.5t33 44.5q29 23 60 23q30 0 44.5 -15z
M157 57q0 -21 14.5 -28t53.5 -9l-4 -20q-46 3 -127 3q-84 0 -127 -3l5 20q35 2 52.5 8t28 23.5t20.5 54.5l132 496q8 34 8 48q0 22 -14.5 29t-52.5 9l5 20q41 -3 127 -3q80 0 128 3l-5 -20q-37 -2 -54.5 -8t-28 -23t-20.5 -55l-132 -496q-9 -38 -9 -49z" />
    <glyph glyph-name="L" unicode="L" horiz-adv-x="586" 
d="M510 128q-16 -56 -27 -128q-68 3 -229 3q-192 0 -289 -3l5 20q36 2 53.5 8t28.5 23t21 55l133 496q9 32 9 49q0 21 -14.5 28t-52.5 9l5 20q42 -3 128 -3q81 0 127 3l-5 -20q-37 -2 -54.5 -8t-28.5 -23t-21 -55l-133 -496q-9 -31 -9 -49q0 -21 15 -27.5t53 -6.5h73
q62 0 99.5 17.5t62.5 56.5t52 113h23q-7 -19 -25 -82z" />
    <glyph glyph-name="M" unicode="M" horiz-adv-x="868" 
d="M808 705q77 0 125 3l-5 -20q-37 -2 -54.5 -8t-28 -23t-20.5 -55l-132 -496q-8 -34 -8 -48q0 -22 14.5 -29t52.5 -9l-4 -20q-46 3 -124 3q-88 0 -130 -3l4 20q37 2 54.5 8t28 23t20.5 55l145 539l-415 -650h-22l-68 658l-142 -537q-8 -34 -8 -50q0 -25 16.5 -34.5
t58.5 -11.5l-5 -20q-34 3 -101 3q-59 0 -94 -3l5 20q35 2 54 10.5t30 27.5t21 58l130 486q8 34 8 48q0 22 -14.5 29t-52.5 9l5 20q32 -3 89 -3q53 0 88 3l55 -593l376 590h48z" />
    <glyph glyph-name="N" unicode="N" horiz-adv-x="770" 
d="M858 740q14 -14 14 -37q0 -27 -16 -49.5t-43 -22.5q-20 0 -29 11.5t-9 27.5t9 33t23 30h-3q-49 -1 -82 -51q-44 -66 -92 -232.5t-109 -454.5h-22l-228 644q-49 -251 -92.5 -424t-83.5 -226q-22 -29 -46.5 -46t-60.5 -17q-60 0 -60 52q0 27 16 49t43 22q20 0 29 -11.5
t9 -27.5t-9 -33t-23 -30h3q51 1 83 52q37 59 77 211t87 392q6 29 6 45q0 24 -16 31.5t-61 9.5l5 20q32 -3 89 -3q46 0 81 3l189 -553q43 192 84 332.5t84 202.5q44 64 108 64q32 0 46 -14z" />
    <glyph glyph-name="O" unicode="O" horiz-adv-x="729" 
d="M107 455q53 116 148.5 191.5t215.5 75.5q112 0 174 -63t62 -178q0 -113 -53.5 -228.5t-149.5 -191t-215 -75.5q-111 0 -173 63t-62 177q0 113 53 229zM316.5 632q-70.5 -72 -113.5 -186.5t-43 -232.5q0 -97 38 -153t100 -56q75 0 145.5 72t113.5 186.5t43 232.5
q0 97 -38 153t-100 56q-75 0 -145.5 -72z" />
    <glyph glyph-name="P" unicode="P" horiz-adv-x="589" 
d="M569.5 666.5q50.5 -40.5 50.5 -110.5q0 -78 -47.5 -140t-133.5 -97t-196 -35h-30l-47 -178q-2 -7 -6 -23.5t-4 -26.5q0 -19 15 -27t54 -9l-4 -20q-46 3 -124 3q-88 0 -130 -3l4 20q36 2 54 8t28.5 23t20.5 55l132 496q9 36 9 48q0 20 -15 28.5t-53 9.5l5 20q40 -3 123 -3
q48 0 72 1l74 1q98 0 148.5 -40.5zM456 377q63 73 63 195q0 59 -30 87.5t-97 28.5q-30 0 -47 -7.5t-27.5 -25.5t-19.5 -53l-79 -298h34q140 0 203 73z" />
    <glyph glyph-name="Q" unicode="Q" horiz-adv-x="781" 
d="M683 34.5q14 -15.5 14 -41.5q0 -44 -39 -86t-98.5 -68.5t-118.5 -26.5q-70 0 -124 35.5t-116 100.5q-84 -30 -142 -30q-49 0 -76.5 19.5t-27.5 54.5q0 39 34.5 64t87.5 25q51 0 90 -21.5t97 -67.5q99 51 187 135t142.5 184.5t54.5 197.5q0 89 -44.5 142t-126.5 53
q-74 0 -132 -43t-90 -111t-32 -141q0 -72 31 -107.5t83 -35.5q44 0 80 24t56.5 61t20.5 73q0 27 -7 40q-10 -21 -31 -33t-43 -12t-34.5 13t-12.5 34q0 26 19.5 43.5t49.5 17.5q36 0 57.5 -27t21.5 -71q0 -49 -27.5 -92t-76.5 -68.5t-111 -25.5q-84 0 -131 48t-47 127
q0 85 53.5 155t139.5 109.5t180 39.5q120 0 189 -55t69 -152q0 -101 -69.5 -204.5t-178.5 -189.5t-225 -141q62 -48 116.5 -74t128.5 -26q50 0 85.5 15.5t58.5 52.5q-15 -6 -31 -6q-23 0 -36 13.5t-13 34.5q0 24 17 42t42 18q22 0 36 -15.5zM190 -40q-49 52 -79.5 75.5
t-63.5 23.5q-29 0 -51 -18t-22 -47q0 -59 96 -59q50 0 120 25z" />
    <glyph glyph-name="R" unicode="R" horiz-adv-x="664" 
d="M592 121h23l-4 -13q-18 -63 -45.5 -92.5t-73.5 -29.5q-47 0 -70 28t-20 68l8 112q1 12 1 32q0 42 -15 65t-54.5 33.5t-114.5 11.5l-61 -230q-9 -30 -9 -49q0 -20 14.5 -28t53.5 -9l-4 -20q-46 3 -124 3q-88 0 -130 -3l4 20q36 2 54 8t28.5 23t20.5 55l132 496q9 34 9 47
q0 21 -15 29.5t-53 9.5l5 20q40 -3 123 -3q48 0 72 1l74 1q98 0 148.5 -37.5t50.5 -103.5q0 -82 -71 -142t-190 -80q13 -1 35 -5q59 -11 85 -35t26 -77q0 -13 -1 -20l-8 -102q-1 -7 -1 -21q0 -61 32 -61q17 0 31 20.5t29 63.5zM233 356h30q135 0 195.5 59t60.5 157
q0 59 -30 87.5t-97 28.5q-30 0 -47 -7.5t-27.5 -25.5t-19.5 -53z" />
    <glyph glyph-name="S" unicode="S" horiz-adv-x="554" 
d="M517 511h-20q6 29 6 57q0 59 -35 97t-107 38q-63 0 -101.5 -32t-38.5 -95q0 -49 30.5 -90t91.5 -97q43 -39 69 -68t44 -64t18 -75q0 -65 -37.5 -109.5t-95.5 -65.5t-120 -21q-53 0 -84.5 13t-57.5 33q-19 15 -36 15q-12 0 -20 -12t-21 -42h-20q16 38 31.5 91.5
t36.5 148.5h20q-9 -47 -9 -74q0 -73 40 -113t123 -40q68 0 107.5 31t39.5 94q0 38 -15 70t-36.5 56.5t-59.5 61.5q-40 38 -63.5 65t-40 63t-16.5 80q0 62 31.5 106t82 66.5t106.5 22.5q41 0 71 -10t59 -32q24 -18 33 -18q8 0 15.5 12.5t17.5 40.5h20q-36 -91 -59 -204z" />
    <glyph glyph-name="T" unicode="T" horiz-adv-x="659" 
d="M801.5 803.5q11.5 -13.5 11.5 -34.5q0 -22 -13 -40.5t-34 -31.5q-53 -33 -158 -33q-44 0 -102 7l-148 -555q-9 -31 -9 -51q0 -25 18.5 -34.5t65.5 -10.5l-4 -20q-52 3 -149 3q-98 0 -146 -3l4 20q42 2 65.5 10.5t36.5 28t25 57.5l151 567q-81 11 -129 11q-87 0 -112 -17
q8 -11 13 -27t5 -31q0 -23 -13 -40.5t-37 -17.5q-21 0 -32.5 13.5t-11.5 36.5q0 52 53 78q47 23 134 23q40 0 76 -3.5t91 -10.5q52 -7 87.5 -10.5t74.5 -3.5q45 0 75 5t54 17q-25 25 -25 56q0 22 12.5 38.5t36.5 16.5q22 0 33.5 -13.5z" />
    <glyph glyph-name="U" unicode="U" horiz-adv-x="682" 
d="M638 636q0 28 -17 39t-57 13l5 20q35 -3 101 -3q59 0 94 3l-5 -20q-35 -2 -54.5 -10.5t-31 -28t-20.5 -57.5l-78 -301q-36 -138 -98 -212q-37 -43 -90.5 -68t-114.5 -25q-107 0 -154 54q-18 21 -26.5 45.5t-8.5 56.5q0 54 25 146l83 314q8 34 8 48q0 22 -14.5 29t-52.5 9
l6 20q40 -3 129 -3q77 0 125 3l-6 -20q-37 -2 -54.5 -8t-28 -23t-20.5 -55l-88 -331q-22 -85 -22 -135q0 -55 27.5 -85t90.5 -30q105 0 165.5 68t92.5 191l82 312q7 25 7 44z" />
    <glyph glyph-name="V" unicode="V" horiz-adv-x="632" 
d="M742 708l-5 -20q-53 -11 -101 -87l-394 -606h-15l-79 629q-4 33 -19.5 48t-32.5 16l5 20q39 -3 108 -3q77 0 120 3l-5 -20q-32 -2 -48.5 -6t-25 -16t-8.5 -37q0 -7 2 -25l57 -483l277 425q43 67 43 99q0 22 -18.5 32t-55.5 11l5 20q55 -3 114 -3q44 0 76 3z" />
    <glyph glyph-name="W" unicode="W" horiz-adv-x="902" 
d="M994 708l-5 -20q-59 -13 -95 -87l-299 -606h-16l-72 456l-271 -456h-16l-79 629q-8 62 -55 64l4 20q40 -3 99 -3q72 0 108 3l-4 -20q-31 -2 -44.5 -14t-13.5 -44q0 -6 2 -26l56 -477l209 355l-22 142q-10 62 -45 64l4 20q36 -3 89 -3q86 0 128 3l-4 -20q-45 -2 -62 -12
t-17 -40q0 -14 3 -32l72 -455l195 397q33 68 33 97q0 25 -18.5 34.5t-58.5 10.5l5 20q56 -3 114 -3q44 0 76 3z" />
    <glyph glyph-name="X" unicode="X" horiz-adv-x="699" 
d="M735 708q14 -14 14 -37q0 -25 -15 -48.5t-44 -23.5q-19 0 -28.5 11t-9.5 27q0 15 9 33.5t23 30.5h-3q-35 0 -64 -21q-45 -33 -100.5 -110.5t-106.5 -187.5l26 -227q6 -53 24 -83.5t55 -30.5q29 0 47 18t33 60l17 51h20l-26 -77q-19 -55 -49 -81t-73 -26q-65 0 -94 43.5
t-37 112.5l-18 157q-39 -83 -100.5 -161t-116.5 -117q-46 -35 -92 -35q-31 0 -45 14t-14 37q0 25 15 48.5t44 23.5q20 0 29 -11t9 -27q0 -15 -9 -33.5t-23 -30.5h4q34 1 63 21q52 34 114.5 112.5t117.5 191.5l-26 221q-6 53 -24 83.5t-55 30.5q-29 0 -47 -18t-33 -60
l-17 -51h-20l26 77q19 55 49 81t73 26q65 0 94 -43.5t37 -112.5l18 -155q39 85 92 161.5t100 114.5q46 35 92 35q31 0 45 -14z" />
    <glyph glyph-name="Y" unicode="Y" horiz-adv-x="670" 
d="M742.5 707q13.5 -15 13.5 -38q0 -25 -15 -47.5t-44 -22.5q-20 0 -29 11.5t-9 28.5q0 16 9 32.5t23 29.5h-3q-27 -1 -55 -22q-52 -38 -112.5 -122.5t-116.5 -218.5l-58 -232q-8 -34 -8 -48q0 -22 14.5 -29t52.5 -9l-5 -20q-45 3 -124 3q-87 0 -131 -3l5 20q36 2 54 8
t29 23.5t20 54.5l59 233q-16 142 -43 235t-74 93q-17 0 -28.5 -11t-19.5 -36l-28 -82h-22l33 97q16 47 36.5 67t61.5 20q53 0 85.5 -43t50.5 -120t31 -199q37 93 85 168t102 129q65 65 118 65q29 0 42.5 -15z" />
    <glyph glyph-name="Z" unicode="Z" horiz-adv-x="652" 
d="M719 700q0 -14 -18.5 -30.5t-56.5 -31.5l-277 -272h152l-8 -20h-164l-283 -278q92 54 173 54q28 0 51 -7t55 -21q34 -14 56.5 -21t51.5 -7q33 0 50.5 17.5t17.5 48.5q0 59 -72 73l4 20q45 -8 75.5 -35.5t30.5 -80.5q0 -54 -33 -88.5t-88 -34.5q-33 0 -58 13.5t-58 40.5
q-32 26 -57 39.5t-56 13.5q-38 0 -69 -10.5t-79 -34.5q-18 -26 -38.5 -42t-35.5 -16q-9 0 -14 5q-6 4 -6 13q0 14 18.5 30.5t56.5 31.5l281 276h-162l7 20h175l279 274q-92 -54 -173 -54q-28 0 -51 7t-55 21q-34 14 -56.5 21t-51.5 7q-33 0 -50.5 -17.5t-17.5 -48.5
q0 -59 72 -73l-4 -20q-45 8 -75.5 35.5t-30.5 80.5q0 54 33 88.5t88 34.5q33 0 58 -13.5t58 -40.5q32 -26 57 -39.5t56 -13.5q38 0 69 10.5t79 34.5q18 26 38.5 42t35.5 16q9 0 14 -5q6 -4 6 -13z" />
    <glyph glyph-name="bracketleft" unicode="[" horiz-adv-x="312" 
d="M358 643h-81l-170 -678h81l-4 -19h-170l178 716h170z" />
    <glyph glyph-name="backslash" unicode="\" horiz-adv-x="492" 
d="M391 -14h-33l-226 736h31z" />
    <glyph glyph-name="bracketright" unicode="]" horiz-adv-x="312" 
d="M-41 -35h81l170 678h-81l4 19h170l-178 -716h-170z" />
    <glyph glyph-name="asciicircum" unicode="^" horiz-adv-x="515" 
d="M238 570.5q-54 -32.5 -108 -54.5l-4 14q72 31 135.5 82.5t102.5 109.5h18q8 -58 44 -109.5t92 -82.5l-12 -14q-54 22 -102.5 54.5t-73.5 65.5q-38 -33 -92 -65.5z" />
    <glyph glyph-name="underscore" unicode="_" horiz-adv-x="744" 
d="M577 -88l-11 -40h-600l10 40h601z" />
    <glyph glyph-name="grave" unicode="`" horiz-adv-x="320" 
d="M272 743q-40 27 -60 46q-19 19 -19 39q0 12 7 20q9 10 23 10q11 0 23 -6t20 -15q16 -17 42 -58q49 -70 72 -100l-10 -10q-41 33 -98 74z" />
    <glyph glyph-name="a" unicode="a" horiz-adv-x="632" 
d="M523 36q14 -15 31 -16l-5 -20q-40 3 -109 3q-81 0 -120 -3l5 20q47 2 67 15t20 49q0 13 -1 20l-15 124h-254l-68 -85q-39 -49 -39 -80q0 -37 60 -43v-20q-30 3 -91 3t-87 -3v20q44 12 109 93l402 502h15l62 -531q4 -33 18 -48zM394 248l-31 254l-205 -254h236z" />
    <glyph glyph-name="b" unicode="b" horiz-adv-x="613" 
d="M495.5 277q38.5 -35 38.5 -86q0 -53 -37.5 -97t-100 -69t-134.5 -25l-73 1q-60 2 -99 2q-80 0 -122 -3l4 20q36 2 54 8t28.5 23t20.5 55l106 396q9 36 9 48q0 21 -15 29.5t-53 8.5l5 20q40 -3 119 -3q45 0 68 1l73 1q93 0 140.5 -29t47.5 -79q0 -61 -59.5 -106.5
t-145.5 -68.5q87 -12 125.5 -47zM226 326h53q59 0 103.5 23t69 61t24.5 82q0 49 -26 72.5t-82 23.5q-44 0 -62 -14t-29 -57zM388 70q46 47 46 136q0 103 -143 103h-69l-54 -203q-9 -38 -9 -49q0 -19 13 -26.5t47 -7.5q123 0 169 47z" />
    <glyph glyph-name="c" unicode="c" horiz-adv-x="665" 
d="M103 40.5q-61 54.5 -61 155.5t51 200t144.5 162.5t214.5 63.5q55 0 88.5 -17.5t59.5 -47.5q8 -9 14 -9q20 0 41 60h22q-31 -90 -65 -230h-22q6 51 6 77q0 22 -3.5 38t-12.5 33q-18 38 -54.5 58t-82.5 20q-79 0 -148.5 -66t-111 -166.5t-41.5 -195.5q0 -83 37.5 -127.5
t103.5 -44.5q46 0 95 20.5t85 57.5q26 27 45 61.5t45 96.5h22q-47 -173 -59 -240h-22q3 21 3 34q0 26 -13 26q-8 0 -20 -9q-46 -32 -89.5 -48.5t-100.5 -16.5q-110 0 -171 54.5z" />
    <glyph glyph-name="d" unicode="d" horiz-adv-x="724" 
d="M625 189q-55 -88 -156.5 -138.5t-236.5 -50.5l-58 1q-56 2 -82 2q-81 0 -120 -3l3 20q34 2 51.5 8t28 23.5t20.5 54.5l105 396q9 32 9 49q0 20 -14.5 28t-52.5 9l3 20q34 -3 97 -3l85 1q68 2 91 2q141 0 211.5 -56t70.5 -165q0 -110 -55 -198zM494.5 124
q89.5 106 89.5 288q0 91 -51 134.5t-163 43.5q-31 0 -48.5 -7t-28.5 -25t-20 -54l-105 -400q-9 -38 -9 -50q0 -19 13.5 -27.5t47.5 -8.5q185 0 274.5 106z" />
    <glyph glyph-name="e" unicode="e" horiz-adv-x="619" 
d="M624 608q-19 -47 -36 -108q-15 -58 -17 -72h-23q9 44 9 73q0 46 -24.5 65t-82.5 19h-73q-36 0 -54 -5.5t-28.5 -22.5t-20.5 -55l-50 -186h93q45 0 69.5 31.5t43.5 80.5h23q-24 -71 -36 -122l-6 -22q-15 -57 -21 -100h-23q1 6 3 21t2 26q0 30 -15.5 47.5t-55.5 17.5h-83
l-51 -190q-9 -38 -9 -48q0 -22 14.5 -28.5t53.5 -6.5h73q55 0 91.5 17t64 55t52.5 105h23q-18 -53 -24 -82q-11 -37 -25 -118q-70 3 -235 3q-185 0 -280 -3l5 20q36 2 54 8t28.5 23t20.5 55l107 396q9 38 9 49q0 21 -14.5 28t-52.5 9l5 20q94 -3 279 -3q151 0 217 3z" />
    <glyph glyph-name="f" unicode="f" horiz-adv-x="578" 
d="M627 608q-19 -47 -36 -108q-15 -58 -17 -72h-23q9 42 9 71q0 47 -25.5 66.5t-84.5 19.5h-73q-36 0 -54 -5.5t-28.5 -22.5t-20.5 -55l-50 -186h103q45 0 69.5 31.5t43.5 80.5h23q-24 -71 -36 -122l-6 -22q-15 -57 -21 -100h-23q4 32 4 47q0 31 -13 48t-47 17h-103
l-51 -190q-8 -29 -8 -44q0 -24 18.5 -32t67.5 -10l-5 -20q-51 3 -146 3q-84 0 -128 -3l5 20q36 2 54 8t28.5 23t20.5 55l107 396q9 38 9 49q0 21 -14.5 28t-52.5 9l5 20q94 -3 279 -3q154 0 220 3z" />
    <glyph glyph-name="g" unicode="g" horiz-adv-x="697" 
d="M514 0q3 11 3 22q0 25 -15 25q-16 0 -53 -23q-33 -20 -69.5 -29t-85.5 -9q-123 0 -187.5 54t-64.5 155q0 98 50 197.5t143.5 164.5t216.5 65q60 0 95.5 -16.5t68.5 -48.5q9 -9 17 -9q10 0 19.5 14t20.5 46h22q-32 -92 -64 -230h-22q5 43 5 75q0 46 -14 73
q-21 37 -62 57.5t-92 20.5q-102 0 -172.5 -75.5t-104.5 -179.5t-34 -187q0 -79 42.5 -117.5t130.5 -38.5q50 0 98.5 19t59.5 61l18 67q9 33 9 52q0 25 -18 33.5t-66 10.5l4 20q53 -3 141 -3q68 0 104 3l-4 -20q-25 -2 -37 -8t-20.5 -22.5t-18.5 -55.5l-44 -163h-20z" />
    <glyph glyph-name="h" unicode="h" horiz-adv-x="758" 
d="M795 608l-5 -20q-37 -2 -54.5 -8t-28 -23t-20.5 -55l-105 -396q-9 -38 -9 -49q0 -21 14.5 -28t53.5 -9l-4 -20q-42 3 -128 3q-80 0 -127 -3l4 20q36 2 54 8t28.5 23t20.5 55l50 190h-321l-50 -190q-9 -38 -9 -49q0 -21 14.5 -28t53.5 -9l-4 -20q-46 3 -127 3
q-83 0 -127 -3l5 20q35 2 52.5 8t28 23.5t20.5 54.5l105 396q8 34 8 48q0 22 -14.5 29t-52.5 9l5 20q41 -3 127 -3q80 0 128 3l-5 -20q-37 -2 -54.5 -8t-28 -23t-20.5 -55l-49 -186h321l49 186q9 32 9 48q0 22 -15 29t-53 9l5 20q45 -3 126 -3q85 0 129 3z" />
    <glyph glyph-name="i" unicode="i" horiz-adv-x="344" 
d="M159 57q0 -21 14.5 -28t53.5 -9l-4 -20q-46 3 -127 3q-83 0 -127 -3l5 20q35 2 52.5 8t28 23.5t20.5 54.5l105 396q8 34 8 48q0 22 -14.5 29t-52.5 9l5 20q41 -3 127 -3q80 0 128 3l-5 -20q-37 -2 -54.5 -8t-28 -23t-20.5 -55l-105 -396q-9 -38 -9 -49z" />
    <glyph glyph-name="j" unicode="j" horiz-adv-x="615" 
d="M679 608q0 -24 -73 -52q-62 -51 -98 -118.5t-71 -181.5h100l-3 -20h-103l-2 -6l-70 -235q-24 -80 -85 -131.5t-151 -51.5q-46 0 -74 14.5t-28 42.5q0 22 16 39.5t39 17.5q18 0 30 -12t12 -30q0 -16 -11.5 -29.5t-28.5 -21.5q15 -5 35 -5q49 0 78 24t46.5 65.5t42.5 126.5
l9 31l33 110q6 22 17 51h-126l3 20h131q27 68 62 117.5t72.5 85t107.5 94.5q-47 -28 -88 -44t-80 -16q-31 0 -57 7t-60 21q-36 14 -62 21t-57 7q-32 0 -48.5 -16t-16.5 -45q0 -64 74 -78l-3 -20q-47 8 -78.5 37.5t-31.5 85.5q0 51 31 83.5t85 32.5q35 0 63.5 -13.5
t64.5 -40.5q36 -26 63.5 -39.5t61.5 -13.5q38 0 69 10.5t78 34.5q38 58 63 58q8 0 13 -5q6 -4 6 -12z" />
    <glyph glyph-name="k" unicode="k" horiz-adv-x="674" 
d="M649.5 607q14.5 -15 14.5 -39q0 -22 -14.5 -45.5t-43.5 -23.5q-20 0 -29.5 11.5t-9.5 28.5q0 14 9 31.5t23 30.5h-3q-12 0 -19.5 -3t-16.5 -11q-15 -14 -25 -36.5t-25 -63.5q-19 -51 -34.5 -83t-43 -57t-69.5 -31q57 -12 84 -46t23 -104l-2 -86q-1 -18 9 -28.5t24 -10.5
q25 0 42.5 18.5t31.5 59.5l17 51h20l-26 -77q-19 -55 -49 -81t-73 -26q-42 0 -63.5 24.5t-21.5 70.5q0 14 1 21l6 74q1 9 1 25q0 40 -11.5 68.5t-31.5 38.5q-44 -11 -64 -11q-32 0 -32 19t31 19q23 0 63 -10q44 4 71.5 27.5t42.5 55t32 81.5q14 42 26.5 68t30.5 42
q29 23 60 23q30 0 44.5 -15zM159 57q0 -21 14.5 -28t53.5 -9l-4 -20q-46 3 -127 3q-83 0 -127 -3l5 20q35 2 52.5 8t28 23.5t20.5 54.5l105 396q8 34 8 48q0 22 -14.5 29t-52.5 9l5 20q41 -3 127 -3q80 0 128 3l-5 -20q-37 -2 -54.5 -8t-28 -23t-20.5 -55l-105 -396
q-9 -38 -9 -49z" />
    <glyph glyph-name="l" unicode="l" horiz-adv-x="594" 
d="M525 175q-10 -28 -16 -57q-11 -37 -25 -118q-70 3 -238 3q-185 0 -280 -3l5 20q36 2 54 8t28.5 23t20.5 55l107 396q9 38 9 49q0 21 -14.5 28t-52.5 9l5 20q41 -3 127 -3q80 0 128 3l-5 -20q-37 -2 -55 -8t-28.5 -23t-20.5 -55l-107 -396q-9 -38 -9 -48q0 -22 14.5 -28.5
t53.5 -6.5h63q76 0 132 43.5t93 143.5h23q-2 -7 -12 -35z" />
    <glyph glyph-name="m" unicode="m" horiz-adv-x="866" 
d="M909 622l-5 -20q-37 -2 -54.5 -8t-28 -23t-20.5 -55l-109 -410q-8 -34 -8 -48q0 -22 14.5 -29t52.5 -9l-4 -20q-46 3 -124 3q-88 0 -130 -3l4 20q37 2 54.5 8t28 23t20.5 55l121 451l-391 -562h-22l-91 571l-119 -450q-9 -38 -9 -51q0 -24 16.5 -33.5t58.5 -11.5l-5 -20
q-36 3 -101 3q-61 0 -94 -3l5 20q35 2 54.5 10.5t30.5 28t22 57.5l106 400q8 34 8 48q0 22 -14.5 29t-52.5 9l5 20q31 -3 89 -3q49 0 84 3l79 -516l356 513h48q77 0 125 3z" />
    <glyph glyph-name="n" unicode="n" horiz-adv-x="797" 
d="M857 640q14 -14 14 -37q0 -27 -16 -49.5t-43 -22.5q-20 0 -29 11.5t-9 27.5t9 33.5t23 29.5h-3q-26 -1 -45.5 -14t-36.5 -37q-44 -63 -93.5 -206t-107.5 -381h-22l-228 548q-107 -468 -176 -554q-24 -30 -47.5 -46.5t-59.5 -16.5q-60 0 -60 52q0 27 16 49t43 22
q20 0 29 -11.5t9 -27.5t-9 -33t-23 -30h2q48 1 84 52q72 107 170 541q2 28 -13.5 37t-63.5 11l5 20q32 -3 89 -3q46 0 81 3l190 -471q96 360 167 453q48 64 108 64q32 0 46 -14z" />
    <glyph glyph-name="o" unicode="o" horiz-adv-x="732" 
d="M113 47q-67 61 -67 180q0 91 51 183t142 152t205 60q112 0 179 -61t67 -180q0 -91 -51 -183t-142 -152t-205 -60q-112 0 -179 61zM291 547q-65 -57 -101.5 -147.5t-36.5 -186.5q0 -108 39.5 -158.5t108.5 -50.5q79 0 144 57t101.5 147.5t36.5 186.5q0 108 -39.5 158.5
t-108.5 50.5q-79 0 -144 -57z" />
    <glyph glyph-name="p" unicode="p" horiz-adv-x="582" 
d="M543.5 572q50.5 -35 50.5 -96q0 -66 -46.5 -119t-130 -83t-190.5 -30h-23l-37 -138q-8 -32 -8 -48q0 -19 14.5 -27.5t52.5 -10.5l-4 -20q-46 3 -124 3q-88 0 -130 -3l4 20q36 2 54 8t28.5 23t20.5 55l105 396q7 32 7 44q0 21 -14.5 30.5t-51.5 11.5l5 20q41 -3 123 -3
q48 0 72 1l74 1q98 0 148.5 -35zM432.5 326q60.5 62 60.5 166q0 49 -30.5 72.5t-96.5 23.5q-30 0 -47 -7.5t-27.5 -25.5t-19.5 -53l-63 -238h28q135 0 195.5 62z" />
    <glyph glyph-name="q" unicode="q" horiz-adv-x="777" 
d="M678.5 14.5q13.5 -15.5 13.5 -40.5q0 -47 -38 -84t-95.5 -57.5t-113.5 -20.5q-77 0 -135 34.5t-117 94.5q-80 -23 -137 -23q-50 0 -78 19t-28 52q0 40 32.5 61t85.5 21q52 0 94 -22t100 -66q95 41 177.5 109t133 152.5t50.5 172.5q0 86 -44.5 136.5t-125.5 50.5
q-69 0 -127.5 -34t-93 -92.5t-34.5 -129.5q0 -66 32 -99t85 -33q36 0 71.5 17.5t58.5 47.5t23 64q0 26 -8 40q-10 -21 -30 -33.5t-42 -12.5t-34.5 13t-12.5 34q0 26 19.5 43.5t47.5 17.5q37 0 59 -25.5t22 -67.5q0 -49 -29.5 -85.5t-77.5 -56t-101 -19.5q-91 0 -138 39.5
t-47 105.5q0 86 56.5 150.5t142.5 99t169 34.5q76 0 135.5 -24.5t93.5 -72t34 -111.5q0 -89 -65.5 -175t-168 -155t-214.5 -113q57 -44 107.5 -67.5t115.5 -23.5q58 0 96.5 11t69.5 40q-18 -9 -36 -9q-23 0 -36 14t-13 35q0 23 17 41t42 18q23 0 36.5 -15.5zM180 -46
l-35.5 35.5t-56.5 45t-49 14.5q-29 0 -50 -15t-21 -42q0 -29 26.5 -43t60.5 -14q57 0 125 19z" />
    <glyph glyph-name="r" unicode="r" horiz-adv-x="647" 
d="M567 121h23l-4 -13q-18 -62 -47.5 -92t-75.5 -30t-66.5 27.5t-18.5 68.5l4 63q1 9 1 27q0 40 -12.5 63.5t-44.5 36t-92 14.5h-6h-13l-48 -180q-8 -32 -8 -48q0 -19 14.5 -27.5t52.5 -10.5l-4 -20q-46 3 -124 3q-88 0 -130 -3l4 20q36 2 54 8t28.5 23t20.5 55l106 396
q7 32 7 44q0 21 -14.5 30.5t-51.5 11.5l5 20q40 -3 123 -3q48 0 72 1l74 1q98 0 148.5 -32.5t50.5 -88.5q0 -75 -68 -125.5t-186 -67.5l21 -3q63 -12 89.5 -40.5t22.5 -91.5l-3 -53q-1 -9 -1 -24q0 -28 7 -43t24 -15q18 0 32 20.5t29 63.5zM221 306h17q96 0 151.5 19
t80 59.5t24.5 107.5q0 49 -30 72.5t-97 23.5q-30 0 -47 -7.5t-27.5 -25.5t-19.5 -53z" />
    <glyph glyph-name="s" unicode="s" horiz-adv-x="563" 
d="M497 411h-20q6 29 6 56q0 60 -35 98t-109 38q-61 0 -99.5 -27t-38.5 -79q0 -48 32 -81.5t98 -76.5q50 -33 78 -55t47 -53t19 -71q0 -57 -37.5 -96.5t-95.5 -58.5t-119 -19q-54 0 -85 12.5t-58 33.5q-19 15 -35 15q-13 0 -21 -11.5t-21 -42.5h-20q16 38 31.5 91.5
t36.5 148.5h20q-9 -47 -9 -74q0 -73 40.5 -113t124.5 -40q68 0 106.5 26.5t38.5 80.5q0 50 -29 83.5t-87 72.5q-49 33 -74.5 54t-43.5 52t-18 72q0 55 31.5 94.5t82.5 60t109 20.5q41 0 69 -10t58 -32q10 -8 19 -13t14 -5q8 0 15.5 12.5t17.5 40.5h20q-36 -91 -59 -204z" />
    <glyph glyph-name="t" unicode="t" horiz-adv-x="611" 
d="M719.5 703.5q11.5 -13.5 11.5 -33.5q0 -40 -46 -74q-29 -17 -61 -24.5t-77 -7.5q-38 0 -85 5l-131 -453q-9 -30 -9 -50q0 -25 19 -35t65 -11l-4 -20q-52 3 -149 3q-98 0 -146 -3l4 20q43 2 66 10t36.5 27t24.5 59l135 466q-88 12 -126 12q-64 0 -94 -17q8 -11 13 -27
t5 -31q0 -23 -13 -40.5t-37 -17.5q-21 0 -32.5 13.5t-11.5 36.5q0 51 52 78q43 23 113 23q57 0 159 -14q37 -5 76.5 -9.5t73.5 -4.5q37 0 62 5t49 17q-25 25 -25 56q0 22 12.5 38.5t36.5 16.5q22 0 33.5 -13.5z" />
    <glyph glyph-name="u" unicode="u" horiz-adv-x="683" 
d="M476 79q-37 -43 -90.5 -68t-114.5 -25q-112 0 -154 54q-18 23 -27 47t-9 55q0 50 26 146l57 214q8 34 8 48q0 22 -14.5 29t-52.5 9l6 20q40 -3 129 -3q77 0 125 3l-6 -20q-37 -2 -54.5 -8t-28 -23t-20.5 -55l-62 -231q-22 -85 -22 -135q0 -55 27 -85t91 -30
q105 0 165.5 68t92.5 191l57 212q7 25 7 45q0 27 -17.5 38t-56.5 13l5 20q36 -3 101 -3q61 0 94 3l-5 -20q-45 -2 -68 -22t-38 -74l-53 -201q-36 -138 -98 -212z" />
    <glyph glyph-name="v" unicode="v" horiz-adv-x="636" 
d="M726 608l-5 -20q-30 -12 -52.5 -32t-58.5 -66l-395 -495h-15l-66 529q-4 33 -19.5 48t-32.5 16l5 20q39 -3 108 -3q77 0 120 3l-5 -20q-46 -2 -64 -13t-18 -46q0 -7 2 -25l48 -396l272 340q56 69 56 103q0 18 -15.5 26.5t-47.5 10.5l5 20q29 -3 110 -3q41 0 68 3z" />
    <glyph glyph-name="w" unicode="w" horiz-adv-x="906" 
d="M982 608l-5 -20q-31 -9 -55 -30.5t-52 -68.5l-302 -494h-16l-74 453l-269 -453h-16l-66 529q-8 62 -55 64l4 20q41 -3 99 -3q72 0 108 3l-4 -20q-31 -2 -44.5 -14t-13.5 -44q0 -6 2 -26l43 -376l207 350l-7 46q-10 62 -45 64l4 20q36 -3 89 -3q86 0 128 3l-4 -20
q-44 -2 -61.5 -12t-17.5 -40q0 -12 3 -32l64 -376l188 309q45 73 45 110q0 21 -15 30t-45 11l5 20q30 -3 91 -3q63 0 87 3z" />
    <glyph glyph-name="x" unicode="x" horiz-adv-x="676" 
d="M686 608q14 -14 14 -37q0 -25 -15 -48.5t-44 -23.5q-19 0 -28.5 11t-9.5 27q0 15 9 33.5t23 30.5h-3q-34 -1 -64 -21q-39 -28 -88 -92.5t-95 -156.5l20 -176q6 -53 24 -83.5t55 -30.5q29 0 47 18t33 60l17 51h20l-26 -77q-19 -55 -49 -81t-73 -26q-66 0 -95 44t-36 112
l-12 108q-41 -70 -93 -132.5t-98 -96.5q-48 -35 -92 -35q-31 0 -45 14t-14 37q0 25 15 48.5t44 23.5q20 0 29 -11t9 -27q0 -15 -9 -33.5t-23 -30.5h3q36 2 64 21q45 29 100.5 95t105.5 160l-19 170q-6 53 -24 83.5t-55 30.5q-29 0 -47 -18t-33 -60l-17 -51h-20l26 77
q19 55 49 81t73 26q66 0 95 -44t36 -112l12 -105q38 72 82.5 133t84.5 93q44 35 92 35q31 0 45 -14z" />
    <glyph glyph-name="y" unicode="y" horiz-adv-x="638" 
d="M685.5 607q13.5 -15 13.5 -38q0 -25 -15 -47.5t-44 -22.5q-20 0 -29 11.5t-9 28.5q0 15 9 32t23 30h-3q-25 -1 -55 -22q-50 -38 -107 -113t-109 -193l-43 -167q-9 -38 -9 -49q0 -21 14.5 -28t53.5 -9l-5 -20q-45 3 -124 3q-87 0 -131 -3l5 20q36 2 54 8t29 23.5t20 54.5
l48 184q-13 120 -35 198.5t-59 78.5q-17 0 -28.5 -11t-19.5 -36l-28 -82h-22l33 97q16 47 36.5 67t61.5 20t66 -29t40 -83t30 -150l8 -49q70 151 170 250q26 26 57 43.5t61 17.5q29 0 42.5 -15z" />
    <glyph glyph-name="z" unicode="z" horiz-adv-x="654" 
d="M700 600q0 -14 -18.5 -30.5t-56.5 -31.5l-268 -222h116l-8 -20h-132l-275 -228q92 54 173 54q28 0 51 -7t55 -21q34 -14 56.5 -21t51.5 -7q33 0 50.5 17.5t17.5 48.5q0 59 -72 73l4 20q45 -8 75.5 -35.5t30.5 -80.5q0 -54 -33 -88.5t-88 -34.5q-33 0 -58 13.5t-58 40.5
q-32 26 -57 39.5t-56 13.5q-38 0 -69 -10.5t-79 -34.5q-18 -26 -38.5 -42t-35.5 -16q-9 0 -14 5q-6 4 -6 13q0 14 18.5 30.5t56.5 31.5l273 226h-114l7 20h131l270 224q-92 -54 -173 -54q-28 0 -51 7t-55 21q-34 14 -56.5 21t-51.5 7q-33 0 -50.5 -17.5t-17.5 -48.5
q0 -59 72 -73l-4 -20q-45 8 -75.5 35.5t-30.5 80.5q0 54 33 88.5t88 34.5q33 0 58 -13.5t58 -40.5q32 -26 57 -39.5t56 -13.5q38 0 69 10.5t79 34.5q18 26 38.5 42t35.5 16q9 0 14 -5q6 -4 6 -13z" />
    <glyph glyph-name="braceleft" unicode="{" horiz-adv-x="304" 
d="M335 643q-24 -1 -36 -10.5t-23.5 -40t-32.5 -105.5q-26 -94 -72 -137t-104 -45q42 -14 66 -41t24 -83q0 -19 -4 -37.5t-12 -46.5q-8 -30 -12 -48.5t-4 -37.5q0 -29 13 -39t44 -11l-5 -19q-66 0 -99 22t-33 62q0 29 19 95q2 6 10.5 39.5t8.5 56.5q-1 76 -41 79h-5l3 18h5
q33 0 49 11t26.5 37.5t30.5 94.5l9 30q21 70 42.5 107t53.5 52.5t84 15.5z" />
    <glyph glyph-name="bar" unicode="|" horiz-adv-x="318" 
d="M189 -195h-40v1053h40v-1053z" />
    <glyph glyph-name="braceright" unicode="}" horiz-adv-x="303" 
d="M230 640q33 -22 33 -62q0 -28 -19 -95q-2 -6 -10.5 -39.5t-8.5 -56.5q1 -35 11.5 -53t29.5 -20h5l-3 -18h-5q-33 0 -49 -11t-26.5 -37.5t-30.5 -97.5l-9 -33q-20 -70 -42 -107t-54 -52.5t-84 -15.5l5 19q24 1 36 10.5t23.5 40t32.5 105.5q25 98 71 142t105 46
q-41 12 -65.5 39.5t-24.5 78.5q0 19 4 37.5t12 46.5q8 30 12 48.5t4 37.5q0 29 -13 39t-44 11l5 19q66 0 99 -22z" />
    <glyph glyph-name="asciitilde" unicode="~" horiz-adv-x="653" 
d="M360.5 247q-26.5 10 -62.5 30q-35 19 -58.5 28.5t-54.5 9.5q-65 0 -101 -58l-14 5q23 50 66.5 78.5t98.5 28.5q35 0 61.5 -10t62.5 -30q35 -19 58.5 -28.5t54.5 -9.5q65 0 101 58l14 -5q-23 -50 -66.5 -78.5t-98.5 -28.5q-35 0 -61.5 10z" />
    <glyph glyph-name="uni007F" 
 />
    <glyph glyph-name="uni00A0" unicode="&#xa0;" 
 />
    <glyph glyph-name="exclamdown" unicode="&#xa1;" horiz-adv-x="287" 
d="M174.5 598.5q22.5 23.5 51.5 23.5q23 0 37 -15t14 -37q0 -30 -23 -53t-52 -23q-22 0 -36 14.5t-14 36.5q0 30 22.5 53.5zM140 160q-13 -100 -21 -135q-4 -19 -16.5 -29t-28.5 -10q-21 0 -33 12t-12 31q0 9 3 19q8 28 44 118q62 155 88 244l18 -3q-21 -88 -42 -247z" />
    <glyph glyph-name="cent" unicode="&#xa2;" horiz-adv-x="546" 
d="M553 558q-18 -49 -55 -180h-23q2 36 2 44q0 25 -4 40.5t-14 33.5q-13 22 -36.5 34t-52.5 14l-137 -480q32 0 65.5 12t60.5 36q26 22 43 49t40 79h23q-42 -150 -50 -190h-23q1 6 1 16q0 25 -16 25q-8 0 -20 -6q-34 -17 -63.5 -27t-65.5 -12l-43 -148h-20l42 148
q-83 2 -132 45t-49 122q0 83 45 163.5t121 132t164 53.5l42 148h20l-43 -148q35 -2 57.5 -12t43.5 -26q7 -6 16 -6q21 0 38 40h23zM147 105.5q24 -33.5 66 -40.5l137 478q-66 -6 -117.5 -63.5t-80.5 -137t-29 -146.5q0 -57 24 -90.5z" />
    <glyph glyph-name="sterling" unicode="&#xa3;" horiz-adv-x="559" 
d="M436.5 562q13.5 16 34.5 22q0 10 -17 17t-39 7q-53 0 -77.5 -36.5t-42.5 -106.5l-13 -48h136l-6 -20h-135l-21 -80h135l-6 -20h-135q-20 -62 -55.5 -109.5t-99.5 -111.5q59 32 106 32q19 0 36.5 -5.5t40.5 -16.5q28 -12 46 -17.5t40 -5.5q27 0 46.5 15t19.5 39
q0 56 -55 69l6 17q39 -7 65 -33.5t26 -68.5q0 -28 -17 -54.5t-45.5 -43.5t-60.5 -17q-27 0 -47.5 11.5t-49.5 35.5q-28 23 -49.5 35t-49.5 12q-33 0 -67 -20q-25 -35 -50.5 -54.5t-45.5 -19.5q-7 0 -10 2t-3 8q0 16 27.5 38t71.5 35q21 40 37 82t34 107l10 39h-97l6 20h97
l21 80h-97l6 20h96l6 22q27 84 81.5 134t140.5 50q51 0 77.5 -19.5t26.5 -48.5q0 -25 -18 -44t-44 -19q-15 0 -25.5 9.5t-10.5 24.5q0 20 13.5 36z" />
    <glyph glyph-name="currency" unicode="&#xa4;" horiz-adv-x="557" 
d="M136 197q-42 52 -42 119t43 120l-44 44l28 28l44 -44q24 20 55 31t64 11q66 0 119 -43l45 45l28 -28l-45 -45q42 -53 42 -119q0 -67 -42 -119l44 -43l-28 -29l-44 44q-53 -42 -119 -42q-69 0 -119 41l-43 -43l-29 29zM155.5 240q20.5 -35 54.5 -55.5t74 -20.5t74 20.5
t54 55.5t20 76q0 40 -20 75.5t-54 56.5t-74 21t-74.5 -21t-54.5 -56t-20 -76t20.5 -76z" />
    <glyph glyph-name="yen" unicode="&#xa5;" horiz-adv-x="666" 
d="M687.5 607q13.5 -15 13.5 -38q0 -25 -15 -47.5t-44 -22.5q-20 0 -29 11.5t-9 28.5q0 15 9 32t23 30h-3q-25 -1 -55 -22q-46 -35 -97 -99.5t-99 -163.5h137l-5 -20h-142l-10 -23l-15 -57h148l-5 -20h-148l-23 -90q-9 -38 -9 -49q0 -21 14.5 -28t53.5 -9l-5 -20
q-45 3 -124 3q-87 0 -131 -3l5 20q36 2 54 8t29 23.5t20 54.5l23 90h-154l5 20h154l20 74q-1 2 -1 6h-154l5 20h147q-29 251 -91 251q-17 0 -28.5 -11t-19.5 -36l-28 -82h-22l33 97q16 47 36.5 67t61.5 20t66 -29t40 -83t30 -150l7 -44h3q71 149 168 245q26 26 57 43.5
t61 17.5q29 0 42.5 -15z" />
    <glyph glyph-name="brokenbar" unicode="&#xa6;" horiz-adv-x="322" 
d="M191 384h-40v474h40v-474zM151 326h40v-521h-40v521z" />
    <glyph glyph-name="section" unicode="&#xa7;" horiz-adv-x="538" 
d="M440 647q14 17 38 24q-9 9 -37.5 16.5t-59.5 7.5q-67 0 -107.5 -28.5t-40.5 -72.5q0 -30 12 -47t47 -48l128 -113q37 -33 52.5 -56.5t15.5 -51.5q0 -46 -34.5 -82.5t-89.5 -61.5q14 -16 20 -31.5t6 -34.5q0 -48 -34 -85.5t-86.5 -57.5t-106.5 -20q-22 0 -52.5 4t-56.5 16
q-42 19 -42 54q0 26 19.5 46.5t47.5 20.5q18 0 29.5 -9.5t11.5 -27.5q0 -20 -15 -37.5t-37 -23.5q9 -9 36.5 -16.5t57.5 -7.5q62 0 104.5 27.5t42.5 79.5q0 24 -12 43t-43 46l-128 113q-37 34 -52 57.5t-15 51.5q0 47 34.5 82.5t88.5 60.5q-14 16 -20 31.5t-6 34.5
q0 48 34 85.5t86.5 57.5t105.5 20q22 0 53 -4t57 -16q43 -20 43 -54q0 -26 -20 -46.5t-48 -20.5q-18 0 -29.5 9.5t-11.5 27.5q0 20 14 37zM191 475q-68 -38 -68 -91q0 -20 11 -35.5t42 -42.5l136 -120q29 -26 43 -41q30 15 49 37.5t19 51.5q0 20 -11.5 36t-41.5 43l-136 120
q-30 27 -43 42z" />
    <glyph glyph-name="dieresis" unicode="&#xa8;" horiz-adv-x="428" 
d="M188.5 767.5q20.5 20.5 46.5 20.5q21 0 35.5 -14.5t14.5 -35.5q0 -25 -20 -45.5t-47 -20.5q-22 0 -36 14.5t-14 36.5q0 24 20.5 44.5zM400.5 767.5q20.5 20.5 46.5 20.5q21 0 35.5 -14.5t14.5 -35.5q0 -25 -20 -45.5t-47 -20.5q-22 0 -36 14.5t-14 36.5q0 24 20.5 44.5z
" />
    <glyph glyph-name="copyright" unicode="&#xa9;" horiz-adv-x="924" 
d="M141.5 583.5q53.5 91.5 145 145t199.5 53.5t199.5 -53.5t145 -145t53.5 -199.5t-53.5 -199.5t-145 -145t-199.5 -53.5t-199.5 53.5t-145 145t-53.5 199.5t53.5 199.5zM176 201q48 -84 130.5 -133.5t179.5 -49.5t179.5 49.5t130.5 133.5t48 183t-48 183t-130.5 133.5
t-179.5 49.5t-179.5 -49.5t-130.5 -133.5t-48 -183t48 -183zM591.5 181q38.5 25 63.5 78l19 -7q-17 -57 -63.5 -98t-119.5 -41q-63 0 -113.5 32t-79.5 92t-29 141t29.5 144.5t82.5 98.5t122 35q65 0 113.5 -30.5t48.5 -78.5q0 -26 -15 -41t-38 -15t-39 14.5t-16 39.5
q0 21 11.5 34t30.5 17q-10 18 -35.5 30t-54.5 12q-59 0 -101 -58t-42 -190q0 -121 40 -177.5t103 -56.5q44 0 82.5 25z" />
    <glyph glyph-name="ordfeminine" unicode="&#xaa;" horiz-adv-x="454" 
d="M436 478h19l-18 -49q-14 -39 -35.5 -54t-54.5 -15q-22 0 -32.5 9.5t-10.5 31.5q0 20 9 53l12 43q-66 -137 -150 -137q-36 0 -57 22t-21 58q0 58 38.5 124.5t96 112t110.5 45.5q14 0 25 -8.5t13 -26.5l7 26q40 0 70 9l-94 -292q-5 -17 -5 -25q0 -16 16 -16t28.5 14
t24.5 50zM246 414q30 29 58.5 76t47.5 100l20 70q-1 38 -25 38q-34 0 -76 -39t-71.5 -101t-29.5 -126q0 -47 25 -47q21 0 51 29z" />
    <glyph glyph-name="guillemotleft" unicode="&#xab;" horiz-adv-x="553" 
d="M188 194.5q33 -79.5 46 -144.5h-18q-72 170 -168 257v2q82 47 153.5 109.5t142.5 143.5h18q-36 -62 -108.5 -140.5t-130.5 -113.5q32 -34 65 -113.5zM380 194.5q33 -79.5 46 -144.5h-18q-72 170 -168 257v2q82 47 153.5 109.5t142.5 143.5h18q-36 -62 -108.5 -140.5
t-130.5 -113.5q32 -34 65 -113.5z" />
    <glyph glyph-name="logicalnot" unicode="&#xac;" horiz-adv-x="661" 
d="M103 370h501l-59 -205h-36l50 175h-465z" />
    <glyph glyph-name="uni00AD" unicode="&#xad;" horiz-adv-x="504" 
 />
    <glyph glyph-name="registered" unicode="&#xae;" horiz-adv-x="699" 
d="M545 744.5q64 -37.5 101.5 -101.5t37.5 -140t-37.5 -140t-101.5 -101.5t-140 -37.5t-140 37.5t-101.5 101.5t-37.5 140t37.5 140t101.5 101.5t140 37.5t140 -37.5zM524.5 289.5q54.5 33.5 86 90t31.5 123.5t-31.5 123.5t-86 90t-119.5 33.5t-119.5 -33.5t-86 -90
t-31.5 -123.5t31.5 -123.5t86 -90t119.5 -33.5t119.5 33.5zM554 372l10 -7q-6 -12 -16.5 -16.5t-27.5 -4.5q-25 0 -37.5 9.5t-17.5 31.5l-17 74q-4 20 -11 29t-24 12.5t-53 4.5v-101q0 -23 4 -29t19 -8v-15l-51 1l-52 -1v15q15 2 19 8t4 29v219q0 23 -4 29.5t-19 8.5v15
q12 -1 48 -1l86 1q57 0 86.5 -20.5t29.5 -58.5q0 -68 -98 -85q40 -4 57 -17.5t23 -40.5l12 -57q1 -4 3 -14t5.5 -14.5t9.5 -4.5q8 0 12 8zM367 654.5q-7 -6.5 -7 -26.5v-107h24q49 0 66.5 17t17.5 49q0 38 -16 56t-54 18q-24 0 -31 -6.5z" />
    <glyph glyph-name="macron" unicode="&#xaf;" horiz-adv-x="412" 
d="M517 719h-352l6 25h352z" />
    <glyph glyph-name="degree" unicode="&#xb0;" horiz-adv-x="335" 
d="M347.5 787q35.5 -33 35.5 -87t-35.5 -87.5t-86.5 -33.5q-50 0 -85.5 33.5t-35.5 87.5t35.5 87t85.5 33q51 0 86.5 -33zM328.5 623q29.5 27 29.5 76q0 48 -30 76t-67 28t-66.5 -28t-29.5 -76q0 -49 29 -76t67 -27t67.5 27z" />
    <glyph glyph-name="plusminus" unicode="&#xb1;" horiz-adv-x="635" 
d="M0 30h501l-9 -30h-501zM317 370l67 236h36l-67 -236h232l-9 -30h-232l-67 -235h-36l67 235h-233l9 30h233z" />
    <glyph glyph-name="uni00B2" unicode="&#xb2;" horiz-adv-x="341" 
d="M352 740q21 -14 21 -43q0 -44 -39.5 -82.5t-110.5 -87.5q-36 -25 -51 -37q22 0 63 -9q6 -1 28 -5t35 -4q21 0 34 9.5t13 25.5q0 11 -4 19l17 7q10 -15 10 -32q0 -29 -24 -48.5t-66 -19.5q-19 0 -57 8q-42 10 -75 10q-19 0 -32 -3t-33 -11l4 18l36 23q84 53 138.5 101
t54.5 98q0 43 -54 43q-62 0 -107 -52l-14 11q26 32 66 53.5t89 21.5q37 0 58 -14z" />
    <glyph glyph-name="uni00B3" unicode="&#xb3;" horiz-adv-x="326" 
d="M357 740.5q22 -13.5 22 -40.5q0 -39 -44.5 -70.5t-94.5 -43.5q47 -2 78 -19.5t31 -54.5q0 -47 -48 -83t-119 -57t-139 -26v18q60 5 117 25t93 53.5t36 77.5q0 50 -55 52q-19 -10 -32 -10q-7 0 -12.5 3t-5.5 10q0 19 44 17q43 16 68 40t25 54q0 18 -12.5 27.5t-34.5 9.5
q-60 0 -116 -56l-14 12q25 29 66.5 52t88.5 23q36 0 58 -13.5z" />
    <glyph glyph-name="acute" unicode="&#xb4;" horiz-adv-x="276" 
d="M233.5 738.5q35.5 26.5 46.5 34.5q49 38 72 52q18 11 38 11q21 0 28 -16q2 -6 2 -10q0 -13 -10.5 -24.5t-24.5 -19.5q-19 -11 -46.5 -21.5t-32.5 -12.5q-87 -33 -143 -60l-7 11q42 29 77.5 55.5z" />
    <glyph glyph-name="uni00B5" unicode="&#xb5;" horiz-adv-x="604" 
d="M63 -240q-29 0 -47 16t-18 56t14 93t35 126.5t42 173.5l66 311h94l-66 -313q-4 -17 -7.5 -44t-3.5 -48q0 -31 16 -54t57 -23q53 0 93 44.5t54 117.5l68 320h94l-80 -374q-4 -20 -8 -42t-4 -35q0 -15 8 -23.5t21 -8.5t27 5t28 12l17 -34q-20 -14 -50.5 -30t-65.5 -16
q-36 0 -55 26.5t-20 69.5h-5q-31 -44 -65 -70t-80 -26q-41 0 -70 15.5t-43 43.5q-7 -35 -11.5 -65.5t-4.5 -55.5q0 -34 12 -55t43 -26q-4 -44 -28 -65.5t-57 -21.5z" />
    <glyph glyph-name="paragraph" unicode="&#xb6;" horiz-adv-x="641" 
d="M108 57q-79 57 -79 159q0 118 65 207.5t169.5 137.5t217.5 48q29 0 81 -2l69 -1q41 0 61 2l-5 -19q-47 -2 -66 -17.5t-29 -50.5l-119 -441q-35 -128 -100.5 -198t-157.5 -70q-46 0 -74 14t-28 41q0 26 17.5 43.5t41.5 17.5q15 0 24 -8.5t9 -22.5q0 -33 -35 -64
q15 -5 35 -5q44 0 71 19t44.5 54t38.5 99q-172 0 -251 57zM375.5 138.5q-9.5 -64.5 -9.5 -95.5q0 -15 2 -15l141 528q-3 0 -20 -36.5t-38.5 -93.5t-39.5 -120q-104 0 -193.5 -5.5t-90.5 -9.5t85 -9t191 -5q-18 -74 -27.5 -138.5z" />
    <glyph glyph-name="periodcentered" unicode="&#xb7;" horiz-adv-x="276" 
d="M101.5 348.5q22.5 23.5 51.5 23.5q23 0 37 -15t14 -37q0 -30 -23 -53t-52 -23q-22 0 -36 14.5t-14 36.5q0 30 22.5 53.5z" />
    <glyph glyph-name="cedilla" unicode="&#xb8;" horiz-adv-x="290" 
d="M94 -72q24 7 51 7q25 0 39 -10.5t14 -29.5q0 -40 -48.5 -61.5t-104.5 -21.5q-33 0 -59.5 6.5t-40.5 15.5l7 15q33 -13 80 -13q33 0 67.5 12.5t34.5 38.5q0 24 -38 24q-20 0 -41 -7l48 100h27z" />
    <glyph glyph-name="uni00B9" unicode="&#xb9;" 
d="M215 437h-59l81 251q-31 -18 -58.5 -30.5t-67.5 -23.5l5 19q63 19 99.5 41.5t81.5 58.5h19z" />
    <glyph glyph-name="ordmasculine" unicode="&#xba;" horiz-adv-x="411" 
d="M132.5 578q25.5 60 74 102t112.5 42q54 0 84.5 -26.5t30.5 -78.5q0 -53 -25.5 -113t-74 -101.5t-112.5 -41.5q-54 0 -84.5 26.5t-30.5 77.5q0 53 25.5 113zM247.5 663q-31.5 -41 -50 -103.5t-18.5 -122.5q0 -58 48 -58q35 0 66.5 41t50 103.5t18.5 122.5q0 58 -48 58
q-35 0 -66.5 -41z" />
    <glyph glyph-name="guillemotright" unicode="&#xbb;" horiz-adv-x="549" 
d="M319 304v-1q-82 -47 -153.5 -109.5t-142.5 -143.5h-18q36 62 108.5 140.5t130.5 113.5q-32 34 -65 113.5t-46 144.5h18q72 -172 168 -258zM510 304v-1q-82 -47 -153.5 -109.5t-142.5 -143.5h-18q36 62 108.5 140.5t130.5 113.5q-32 34 -65 113.5t-46 144.5h18
q72 -172 168 -258z" />
    <glyph glyph-name="onequarter" unicode="&#xbc;" horiz-adv-x="606" 
d="M215 437h-59l81 251q-31 -18 -58.5 -30.5t-67.5 -23.5l5 19q63 19 99.5 41.5t81.5 58.5h19zM402 73h56l-11 -41h-57l-34 -117h-52l34 117h-189l5 18l300 267h19zM350 73l49 170l-192 -170h143zM734 811l-833 -866l-15 13l833 866z" />
    <glyph glyph-name="onehalf" unicode="&#xbd;" horiz-adv-x="606" 
d="M215 437h-59l81 251q-31 -18 -58.5 -30.5t-67.5 -23.5l5 19q63 19 99.5 41.5t81.5 58.5h19zM519 303q21 -14 21 -43q0 -44 -39.5 -82.5t-110.5 -87.5q-36 -25 -51 -37q22 0 63 -9q6 -1 28 -5t35 -4q21 0 34 9.5t13 25.5q0 11 -4 19l17 7q10 -15 10 -32q0 -29 -24 -48.5
t-66 -19.5q-19 0 -57 8q-42 10 -75 10q-19 0 -32 -3t-33 -11l4 18l36 23q84 53 138.5 101t54.5 98q0 43 -54 43q-62 0 -107 -52l-14 11q26 32 66 53.5t89 21.5q37 0 58 -14zM734 811l-833 -866l-15 13l833 866z" />
    <glyph glyph-name="threequarters" unicode="&#xbe;" horiz-adv-x="706" 
d="M502 73h56l-11 -41h-57l-34 -117h-52l34 117h-189l5 18l300 267h19zM450 73l49 170l-192 -170h143zM834 811l-833 -866l-15 13l833 866zM357 740.5q22 -13.5 22 -40.5q0 -39 -44.5 -70.5t-94.5 -43.5q47 -2 78 -19.5t31 -54.5q0 -47 -48 -83t-119 -57t-139 -26v18
q60 5 117 25t93 53.5t36 77.5q0 50 -55 52q-19 -10 -32 -10q-7 0 -12.5 3t-5.5 10q0 19 44 17q43 16 68 40t25 54q0 18 -12.5 27.5t-34.5 9.5q-60 0 -116 -56l-14 12q25 29 66.5 52t88.5 23q36 0 58 -13.5z" />
    <glyph glyph-name="questiondown" unicode="&#xbf;" horiz-adv-x="441" 
d="M242.5 598.5q22.5 23.5 51.5 23.5q23 0 37 -15t14 -37q0 -30 -23 -53t-52 -23q-22 0 -36 14.5t-14 36.5q0 30 22.5 53.5zM231.5 16q37.5 13 46.5 36q-9 2 -17 13.5t-8 26.5q0 21 15.5 35t37.5 14q20 0 30 -11.5t10 -30.5q0 -32 -30 -58t-78.5 -40.5t-101.5 -14.5
q-61 0 -98.5 23t-37.5 65q0 26 14.5 46.5t46.5 43t94 58.5l36 20q46 26 66.5 40t32.5 30.5t12 39.5q0 27 -18.5 44t-49.5 17q-32 0 -62.5 -12t-42.5 -32q9 -1 17.5 -11.5t8.5 -23.5q0 -16 -13 -28.5t-32 -12.5q-34 0 -34 35q0 30 27.5 53t69 36t81.5 13q52 0 83.5 -25
t31.5 -71q0 -32 -21.5 -58.5t-54 -47.5t-100.5 -61q-67 -39 -91 -59.5t-24 -46.5q0 -25 20.5 -41.5t56.5 -16.5q39 0 76.5 13z" />
    <glyph glyph-name="Agrave" unicode="&#xc0;" horiz-adv-x="629" 
d="M389 843q-40 27 -60 46q-19 19 -19 39q0 12 7 20q9 10 23 10q11 0 23 -6t20 -15q16 -17 42 -58q49 -70 72 -100l-10 -10q-41 33 -98 74zM521 36q14 -15 32 -16l-4 -20q-40 3 -109 3q-81 0 -120 -3l4 20q34 2 52.5 8.5t26.5 24t7 51.5l-9 164h-246l-75 -106
q-47 -66 -47 -99q0 -41 74 -43l-5 -20q-55 3 -114 3q-43 0 -75 -3l5 20q46 10 100 87l431 606h15l40 -629q3 -33 17 -48zM400 288l-17 303l-214 -303h231z" />
    <glyph glyph-name="Aacute" unicode="&#xc1;" horiz-adv-x="629" 
d="M520.5 838.5q35.5 26.5 46.5 34.5q49 38 72 52q18 11 38 11q21 0 28 -16q2 -6 2 -10q0 -13 -10.5 -24.5t-24.5 -19.5q-19 -11 -46.5 -21.5t-32.5 -12.5q-87 -33 -143 -60l-7 11q42 29 77.5 55.5zM521 36q14 -15 32 -16l-4 -20q-40 3 -109 3q-81 0 -120 -3l4 20
q34 2 52.5 8.5t26.5 24t7 51.5l-9 164h-246l-75 -106q-47 -66 -47 -99q0 -41 74 -43l-5 -20q-55 3 -114 3q-43 0 -75 -3l5 20q46 10 100 87l431 606h15l40 -629q3 -33 17 -48zM400 288l-17 303l-214 -303h231z" />
    <glyph glyph-name="Acircumflex" unicode="&#xc2;" horiz-adv-x="629" 
d="M263 772l-5 14q72 22 134 56.5t101 73.5h18q28 -48 59.5 -79.5t79.5 -50.5l-4 -14q-54 10 -87.5 23.5t-57.5 27t-32 17.5q-111 -47 -206 -68zM521 36q14 -15 32 -16l-4 -20q-40 3 -109 3q-81 0 -120 -3l4 20q34 2 52.5 8.5t26.5 24t7 51.5l-9 164h-246l-75 -106
q-47 -66 -47 -99q0 -41 74 -43l-5 -20q-55 3 -114 3q-43 0 -75 -3l5 20q46 10 100 87l431 606h15l40 -629q3 -33 17 -48zM400 288l-17 303l-214 -303h231z" />
    <glyph glyph-name="Atilde" unicode="&#xc3;" horiz-adv-x="629" 
d="M473 885q21 -10 47 -30q21 -17 36.5 -25t36.5 -8q38 0 70 58l18 -5q-22 -52 -57 -77.5t-73 -25.5q-32 0 -53 10t-47 30q-21 17 -36.5 25t-36.5 8q-38 0 -70 -58l-18 5q22 52 57 77.5t73 25.5q32 0 53 -10zM521 36q14 -15 32 -16l-4 -20q-40 3 -109 3q-81 0 -120 -3l4 20
q34 2 52.5 8.5t26.5 24t7 51.5l-9 164h-246l-75 -106q-47 -66 -47 -99q0 -41 74 -43l-5 -20q-55 3 -114 3q-43 0 -75 -3l5 20q46 10 100 87l431 606h15l40 -629q3 -33 17 -48zM400 288l-17 303l-214 -303h231z" />
    <glyph glyph-name="Adieresis" unicode="&#xc4;" horiz-adv-x="629" 
d="M338.5 867.5q20.5 20.5 46.5 20.5q21 0 35.5 -14.5t14.5 -35.5q0 -25 -20 -45.5t-47 -20.5q-22 0 -36 14.5t-14 36.5q0 24 20.5 44.5zM550.5 867.5q20.5 20.5 46.5 20.5q21 0 35.5 -14.5t14.5 -35.5q0 -25 -20 -45.5t-47 -20.5q-22 0 -36 14.5t-14 36.5q0 24 20.5 44.5z
M521 36q14 -15 32 -16l-4 -20q-40 3 -109 3q-81 0 -120 -3l4 20q34 2 52.5 8.5t26.5 24t7 51.5l-9 164h-246l-75 -106q-47 -66 -47 -99q0 -41 74 -43l-5 -20q-55 3 -114 3q-43 0 -75 -3l5 20q46 10 100 87l431 606h15l40 -629q3 -33 17 -48zM400 288l-17 303l-214 -303h231z
" />
    <glyph glyph-name="Aring" unicode="&#xc5;" horiz-adv-x="629" 
d="M548.5 903q24.5 -22 24.5 -58q0 -42 -33.5 -72.5t-78.5 -30.5q-36 0 -59.5 21.5t-23.5 58.5q0 43 32 73t77 30q37 0 61.5 -22zM522 787q25 24 25 59q0 27 -19.5 42.5t-44.5 15.5q-31 0 -55 -24.5t-24 -56.5q0 -28 18 -44t43 -16q32 0 57 24zM521 36q14 -15 32 -16l-4 -20
q-40 3 -109 3q-81 0 -120 -3l4 20q34 2 52.5 8.5t26.5 24t7 51.5l-9 164h-246l-75 -106q-47 -66 -47 -99q0 -41 74 -43l-5 -20q-55 3 -114 3q-43 0 -75 -3l5 20q46 10 100 87l431 606h15l40 -629q3 -33 17 -48zM400 288l-17 303l-214 -303h231z" />
    <glyph glyph-name="AE" unicode="&#xc6;" horiz-adv-x="897" 
d="M934 708q-13 -36 -38 -118q-9 -30 -13 -62h-22q7 39 7 71q0 47 -21 66.5t-67 19.5h-93q-35 0 -52.5 -5.5t-27.5 -22.5t-20 -55l-63 -236h108q28 0 47 15t30.5 37t25.5 60h22q-16 -49 -27 -95l-7 -27q-11 -41 -26 -122h-22q0 16 3 31q2 22 2 31q0 22 -11 35t-41 15h-109
l-64 -240q-9 -38 -9 -49q0 -21 14.5 -27.5t51.5 -6.5h103q48 0 79 16.5t54 54t46 106.5h22q-8 -22 -21 -72q-17 -59 -26 -128q-68 3 -226 3q-190 0 -288 -3l4 20q36 2 54 8t28.5 23t20.5 55l64 240h-163l-223 -252q-15 -18 -22 -28.5t-7 -18.5q0 -23 62 -27v-20q-27 3 -86 3
q-43 0 -67 -3v20q31 2 86 64l496 561q1 25 -13 33t-54 10l5 20q72 -2 116 -2l59 67h26l-60 -67q59 -1 146 -1q144 0 207 3zM431 366l63 236l2 7l-215 -243h150z" />
    <glyph glyph-name="Ccedilla" unicode="&#xc7;" horiz-adv-x="670" 
d="M266 -72q24 7 51 7q25 0 39 -10.5t14 -29.5q0 -40 -48.5 -61.5t-104.5 -21.5q-33 0 -59.5 6.5t-40.5 15.5l7 15q32 -13 80 -13q33 0 67.5 12.5t34.5 38.5q0 24 -38 24q-20 0 -41 -7l48 100h27zM648 478h-22q6 39 6 69q0 48 -16 79q-18 37 -53.5 57.5t-77.5 20.5
q-83 0 -160.5 -78t-125.5 -196.5t-48 -229.5q0 -96 38 -146t105 -50q44 0 93 20.5t85 57.5q26 26 45 60.5t45 97.5h22q-47 -173 -59 -240h-22q3 21 3 34q0 26 -12 26q-7 0 -21 -9q-52 -34 -91 -49.5t-98 -15.5q-111 0 -172 60t-61 175t57.5 232t158 193t220.5 76
q58 0 88.5 -16.5t60.5 -48.5q7 -9 15 -9q9 0 18.5 14.5t21.5 45.5h21q-33 -86 -64 -230z" />
    <glyph glyph-name="Egrave" unicode="&#xc8;" horiz-adv-x="610" 
d="M354 843q-40 27 -60 46q-19 19 -19 39q0 12 7 20q9 10 23 10q11 0 23 -6t20 -15q16 -17 42 -58q49 -70 72 -100l-10 -10q-41 33 -98 74zM642 708q-26 -72 -38 -118q-11 -36 -14 -62h-23q9 58 9 80q0 43 -22 60t-79 17h-73q-36 0 -53.5 -5.5t-28.5 -22.5t-21 -55l-63 -236
h66q35 0 58 16.5t36 38.5t26 56q3 10 8 21h23q-21 -66 -35 -119l-6 -23q-14 -53 -32 -142h-23l3 20q1 7 3 22t2 26q0 30 -15.5 47t-53.5 17h-66l-64 -240q-9 -31 -9 -49q0 -21 15 -27.5t53 -6.5h73q62 0 99 16.5t61.5 53t50.5 107.5h23q-11 -29 -22 -72q-16 -56 -27 -128
q-68 3 -229 3q-192 0 -289 -3l5 20q36 2 53.5 8t28.5 23t21 55l133 496q9 32 9 49q0 21 -14.5 28t-52.5 9l5 20q98 -3 290 -3q140 0 199 3z" />
    <glyph glyph-name="Eacute" unicode="&#xc9;" horiz-adv-x="610" 
d="M485.5 838.5q35.5 26.5 46.5 34.5q49 38 72 52q18 11 38 11q21 0 28 -16q2 -6 2 -10q0 -13 -10.5 -24.5t-24.5 -19.5q-19 -11 -46.5 -21.5t-32.5 -12.5q-87 -33 -143 -60l-7 11q42 29 77.5 55.5zM642 708q-26 -72 -38 -118q-11 -36 -14 -62h-23q9 58 9 80q0 43 -22 60
t-79 17h-73q-36 0 -53.5 -5.5t-28.5 -22.5t-21 -55l-63 -236h66q35 0 58 16.5t36 38.5t26 56q3 10 8 21h23q-21 -66 -35 -119l-6 -23q-14 -53 -32 -142h-23l3 20q1 7 3 22t2 26q0 30 -15.5 47t-53.5 17h-66l-64 -240q-9 -31 -9 -49q0 -21 15 -27.5t53 -6.5h73q62 0 99 16.5
t61.5 53t50.5 107.5h23q-11 -29 -22 -72q-16 -56 -27 -128q-68 3 -229 3q-192 0 -289 -3l5 20q36 2 53.5 8t28.5 23t21 55l133 496q9 32 9 49q0 21 -14.5 28t-52.5 9l5 20q98 -3 290 -3q140 0 199 3z" />
    <glyph glyph-name="Ecircumflex" unicode="&#xca;" horiz-adv-x="610" 
d="M228 772l-5 14q72 22 134 56.5t101 73.5h18q28 -48 59.5 -79.5t79.5 -50.5l-4 -14q-54 10 -87.5 23.5t-57.5 27t-32 17.5q-111 -47 -206 -68zM642 708q-26 -72 -38 -118q-11 -36 -14 -62h-23q9 58 9 80q0 43 -22 60t-79 17h-73q-36 0 -53.5 -5.5t-28.5 -22.5t-21 -55
l-63 -236h66q35 0 58 16.5t36 38.5t26 56q3 10 8 21h23q-21 -66 -35 -119l-6 -23q-14 -53 -32 -142h-23l3 20q1 7 3 22t2 26q0 30 -15.5 47t-53.5 17h-66l-64 -240q-9 -31 -9 -49q0 -21 15 -27.5t53 -6.5h73q62 0 99 16.5t61.5 53t50.5 107.5h23q-11 -29 -22 -72
q-16 -56 -27 -128q-68 3 -229 3q-192 0 -289 -3l5 20q36 2 53.5 8t28.5 23t21 55l133 496q9 32 9 49q0 21 -14.5 28t-52.5 9l5 20q98 -3 290 -3q140 0 199 3z" />
    <glyph glyph-name="Edieresis" unicode="&#xcb;" horiz-adv-x="610" 
d="M303.5 867.5q20.5 20.5 46.5 20.5q21 0 35.5 -14.5t14.5 -35.5q0 -25 -20 -45.5t-47 -20.5q-22 0 -36 14.5t-14 36.5q0 24 20.5 44.5zM515.5 867.5q20.5 20.5 46.5 20.5q21 0 35.5 -14.5t14.5 -35.5q0 -25 -20 -45.5t-47 -20.5q-22 0 -36 14.5t-14 36.5q0 24 20.5 44.5z
M642 708q-26 -72 -38 -118q-11 -36 -14 -62h-23q9 58 9 80q0 43 -22 60t-79 17h-73q-36 0 -53.5 -5.5t-28.5 -22.5t-21 -55l-63 -236h66q35 0 58 16.5t36 38.5t26 56q3 10 8 21h23q-21 -66 -35 -119l-6 -23q-14 -53 -32 -142h-23l3 20q1 7 3 22t2 26q0 30 -15.5 47t-53.5 17
h-66l-64 -240q-9 -31 -9 -49q0 -21 15 -27.5t53 -6.5h73q62 0 99 16.5t61.5 53t50.5 107.5h23q-11 -29 -22 -72q-16 -56 -27 -128q-68 3 -229 3q-192 0 -289 -3l5 20q36 2 53.5 8t28.5 23t21 55l133 496q9 32 9 49q0 21 -14.5 28t-52.5 9l5 20q98 -3 290 -3q140 0 199 3z
" />
    <glyph glyph-name="Igrave" unicode="&#xcc;" horiz-adv-x="341" 
d="M216 843q-40 27 -60 46q-19 19 -19 39q0 12 7 20q9 10 23 10q11 0 23 -6t20 -15q16 -17 42 -58q49 -70 72 -100l-10 -10q-41 33 -98 74zM157 57q0 -21 14.5 -28t53.5 -9l-4 -20q-46 3 -127 3q-84 0 -127 -3l5 20q35 2 52.5 8t28 23.5t20.5 54.5l132 496q8 34 8 48
q0 22 -14.5 29t-52.5 9l5 20q41 -3 127 -3q80 0 128 3l-5 -20q-37 -2 -54.5 -8t-28 -23t-20.5 -55l-132 -496q-9 -38 -9 -49z" />
    <glyph glyph-name="Iacute" unicode="&#xcd;" horiz-adv-x="341" 
d="M347.5 838.5q35.5 26.5 46.5 34.5q49 38 72 52q18 11 38 11q21 0 28 -16q2 -6 2 -10q0 -13 -10.5 -24.5t-24.5 -19.5q-19 -11 -46.5 -21.5t-32.5 -12.5q-87 -33 -143 -60l-7 11q42 29 77.5 55.5zM157 57q0 -21 14.5 -28t53.5 -9l-4 -20q-46 3 -127 3q-84 0 -127 -3l5 20
q35 2 52.5 8t28 23.5t20.5 54.5l132 496q8 34 8 48q0 22 -14.5 29t-52.5 9l5 20q41 -3 127 -3q80 0 128 3l-5 -20q-37 -2 -54.5 -8t-28 -23t-20.5 -55l-132 -496q-9 -38 -9 -49z" />
    <glyph glyph-name="Icircumflex" unicode="&#xce;" horiz-adv-x="341" 
d="M90 772l-5 14q72 22 134 56.5t101 73.5h18q28 -48 59.5 -79.5t79.5 -50.5l-4 -14q-54 10 -87.5 23.5t-57.5 27t-32 17.5q-111 -47 -206 -68zM157 57q0 -21 14.5 -28t53.5 -9l-4 -20q-46 3 -127 3q-84 0 -127 -3l5 20q35 2 52.5 8t28 23.5t20.5 54.5l132 496q8 34 8 48
q0 22 -14.5 29t-52.5 9l5 20q41 -3 127 -3q80 0 128 3l-5 -20q-37 -2 -54.5 -8t-28 -23t-20.5 -55l-132 -496q-9 -38 -9 -49z" />
    <glyph glyph-name="Idieresis" unicode="&#xcf;" horiz-adv-x="341" 
d="M165.5 867.5q20.5 20.5 46.5 20.5q21 0 35.5 -14.5t14.5 -35.5q0 -25 -20 -45.5t-47 -20.5q-22 0 -36 14.5t-14 36.5q0 24 20.5 44.5zM377.5 867.5q20.5 20.5 46.5 20.5q21 0 35.5 -14.5t14.5 -35.5q0 -25 -20 -45.5t-47 -20.5q-22 0 -36 14.5t-14 36.5q0 24 20.5 44.5z
M157 57q0 -21 14.5 -28t53.5 -9l-4 -20q-46 3 -127 3q-84 0 -127 -3l5 20q35 2 52.5 8t28 23.5t20.5 54.5l132 496q8 34 8 48q0 22 -14.5 29t-52.5 9l5 20q41 -3 127 -3q80 0 128 3l-5 -20q-37 -2 -54.5 -8t-28 -23t-20.5 -55l-132 -496q-9 -38 -9 -49z" />
    <glyph glyph-name="Eth" unicode="&#xd0;" horiz-adv-x="725" 
d="M432 341h-412l6 25h412zM642 249.5q-62 -112.5 -170.5 -181t-241.5 -68.5l-58 1q-56 2 -82 2q-81 0 -120 -3l3 20q34 2 51.5 8t28 23.5t20.5 54.5l131 496q9 38 9 49q0 20 -14.5 28t-52.5 9l3 20q34 -3 97 -3l85 1q68 2 91 2q141 0 211.5 -56t70.5 -165
q0 -125 -62 -237.5zM430 85.5q88 67.5 133 180.5t45 246q0 91 -51 134.5t-163 43.5q-31 0 -48.5 -7t-28.5 -25t-20 -54l-131 -500q-9 -36 -9 -49q0 -19 13.5 -28t47.5 -9q124 0 212 67.5z" />
    <glyph glyph-name="Ntilde" unicode="&#xd1;" horiz-adv-x="770" 
d="M526 885q21 -10 47 -30q21 -17 36.5 -25t36.5 -8q38 0 70 58l18 -5q-22 -52 -57 -77.5t-73 -25.5q-32 0 -53 10t-47 30q-21 17 -36.5 25t-36.5 8q-38 0 -70 -58l-18 5q22 52 57 77.5t73 25.5q32 0 53 -10zM858 740q14 -14 14 -37q0 -27 -16 -49.5t-43 -22.5
q-20 0 -29 11.5t-9 27.5t9 33t23 30h-3q-49 -1 -82 -51q-44 -66 -92 -232.5t-109 -454.5h-22l-228 644q-49 -251 -92.5 -424t-83.5 -226q-22 -29 -46.5 -46t-60.5 -17q-60 0 -60 52q0 27 16 49t43 22q20 0 29 -11.5t9 -27.5t-9 -33t-23 -30h3q51 1 83 52q37 59 77 211
t87 392q6 29 6 45q0 24 -16 31.5t-61 9.5l5 20q32 -3 89 -3q46 0 81 3l189 -553q43 192 84 332.5t84 202.5q44 64 108 64q32 0 46 -14z" />
    <glyph glyph-name="Ograve" unicode="&#xd2;" horiz-adv-x="729" 
d="M397 843q-40 27 -60 46q-19 19 -19 39q0 12 7 20q9 10 23 10q11 0 23 -6t20 -15q16 -17 42 -58q49 -70 72 -100l-10 -10q-41 33 -98 74zM107 455q53 116 148.5 191.5t215.5 75.5q112 0 174 -63t62 -178q0 -113 -53.5 -228.5t-149.5 -191t-215 -75.5q-111 0 -173 63
t-62 177q0 113 53 229zM316.5 632q-70.5 -72 -113.5 -186.5t-43 -232.5q0 -97 38 -153t100 -56q75 0 145.5 72t113.5 186.5t43 232.5q0 97 -38 153t-100 56q-75 0 -145.5 -72z" />
    <glyph glyph-name="Oacute" unicode="&#xd3;" horiz-adv-x="729" 
d="M528.5 838.5q35.5 26.5 46.5 34.5q49 38 72 52q18 11 38 11q21 0 28 -16q2 -6 2 -10q0 -13 -10.5 -24.5t-24.5 -19.5q-19 -11 -46.5 -21.5t-32.5 -12.5q-87 -33 -143 -60l-7 11q42 29 77.5 55.5zM107 455q53 116 148.5 191.5t215.5 75.5q112 0 174 -63t62 -178
q0 -113 -53.5 -228.5t-149.5 -191t-215 -75.5q-111 0 -173 63t-62 177q0 113 53 229zM316.5 632q-70.5 -72 -113.5 -186.5t-43 -232.5q0 -97 38 -153t100 -56q75 0 145.5 72t113.5 186.5t43 232.5q0 97 -38 153t-100 56q-75 0 -145.5 -72z" />
    <glyph glyph-name="Ocircumflex" unicode="&#xd4;" horiz-adv-x="729" 
d="M271 772l-5 14q72 22 134 56.5t101 73.5h18q28 -48 59.5 -79.5t79.5 -50.5l-4 -14q-54 10 -87.5 23.5t-57.5 27t-32 17.5q-111 -47 -206 -68zM107 455q53 116 148.5 191.5t215.5 75.5q112 0 174 -63t62 -178q0 -113 -53.5 -228.5t-149.5 -191t-215 -75.5q-111 0 -173 63
t-62 177q0 113 53 229zM316.5 632q-70.5 -72 -113.5 -186.5t-43 -232.5q0 -97 38 -153t100 -56q75 0 145.5 72t113.5 186.5t43 232.5q0 97 -38 153t-100 56q-75 0 -145.5 -72z" />
    <glyph glyph-name="Otilde" unicode="&#xd5;" horiz-adv-x="729" 
d="M481 885q21 -10 47 -30q21 -17 36.5 -25t36.5 -8q38 0 70 58l18 -5q-22 -52 -57 -77.5t-73 -25.5q-32 0 -53 10t-47 30q-21 17 -36.5 25t-36.5 8q-38 0 -70 -58l-18 5q22 52 57 77.5t73 25.5q32 0 53 -10zM107 455q53 116 148.5 191.5t215.5 75.5q112 0 174 -63t62 -178
q0 -113 -53.5 -228.5t-149.5 -191t-215 -75.5q-111 0 -173 63t-62 177q0 113 53 229zM316.5 632q-70.5 -72 -113.5 -186.5t-43 -232.5q0 -97 38 -153t100 -56q75 0 145.5 72t113.5 186.5t43 232.5q0 97 -38 153t-100 56q-75 0 -145.5 -72z" />
    <glyph glyph-name="Odieresis" unicode="&#xd6;" horiz-adv-x="729" 
d="M346.5 867.5q20.5 20.5 46.5 20.5q21 0 35.5 -14.5t14.5 -35.5q0 -25 -20 -45.5t-47 -20.5q-22 0 -36 14.5t-14 36.5q0 24 20.5 44.5zM558.5 867.5q20.5 20.5 46.5 20.5q21 0 35.5 -14.5t14.5 -35.5q0 -25 -20 -45.5t-47 -20.5q-22 0 -36 14.5t-14 36.5q0 24 20.5 44.5z
M107 455q53 116 148.5 191.5t215.5 75.5q112 0 174 -63t62 -178q0 -113 -53.5 -228.5t-149.5 -191t-215 -75.5q-111 0 -173 63t-62 177q0 113 53 229zM316.5 632q-70.5 -72 -113.5 -186.5t-43 -232.5q0 -97 38 -153t100 -56q75 0 145.5 72t113.5 186.5t43 232.5
q0 97 -38 153t-100 56q-75 0 -145.5 -72z" />
    <glyph glyph-name="multiply" unicode="&#xd7;" horiz-adv-x="513" 
d="M250 355l-125 175l26 18l123 -175l227 177l16 -22l-227 -176l125 -173l-25 -18l-124 173l-224 -174l-15 22z" />
    <glyph glyph-name="Oslash" unicode="&#xd8;" horiz-adv-x="729" 
d="M666 633q41 -59 41 -152q0 -113 -53.5 -228.5t-149.5 -191t-215 -75.5q-113 0 -175 65l-117 -124l-17 14l119 127q-45 61 -45 158q0 113 53 229t148.5 191.5t215.5 75.5q121 0 183 -73l118 124l15 -13zM316.5 632q-70.5 -72 -113.5 -186.5t-43 -232.5q0 -42 8 -80
l421 454q-16 56 -49 86.5t-78 30.5q-75 0 -145.5 -72zM443.5 76q70.5 72 113.5 186.5t43 232.5q0 37 -6 67l-419 -454q16 -49 48.5 -76.5t74.5 -27.5q75 0 145.5 72z" />
    <glyph glyph-name="Ugrave" unicode="&#xd9;" horiz-adv-x="682" 
d="M407 843q-40 27 -60 46q-19 19 -19 39q0 12 7 20q9 10 23 10q11 0 23 -6t20 -15q16 -17 42 -58q49 -70 72 -100l-10 -10q-41 33 -98 74zM638 636q0 28 -17 39t-57 13l5 20q35 -3 101 -3q59 0 94 3l-5 -20q-35 -2 -54.5 -10.5t-31 -28t-20.5 -57.5l-78 -301
q-36 -138 -98 -212q-37 -43 -90.5 -68t-114.5 -25q-107 0 -154 54q-18 21 -26.5 45.5t-8.5 56.5q0 54 25 146l83 314q8 34 8 48q0 22 -14.5 29t-52.5 9l6 20q40 -3 129 -3q77 0 125 3l-6 -20q-37 -2 -54.5 -8t-28 -23t-20.5 -55l-88 -331q-22 -85 -22 -135q0 -55 27.5 -85
t90.5 -30q105 0 165.5 68t92.5 191l82 312q7 25 7 44z" />
    <glyph glyph-name="Uacute" unicode="&#xda;" horiz-adv-x="682" 
d="M538.5 838.5q35.5 26.5 46.5 34.5q49 38 72 52q18 11 38 11q21 0 28 -16q2 -6 2 -10q0 -13 -10.5 -24.5t-24.5 -19.5q-19 -11 -46.5 -21.5t-32.5 -12.5q-87 -33 -143 -60l-7 11q42 29 77.5 55.5zM638 636q0 28 -17 39t-57 13l5 20q35 -3 101 -3q59 0 94 3l-5 -20
q-35 -2 -54.5 -10.5t-31 -28t-20.5 -57.5l-78 -301q-36 -138 -98 -212q-37 -43 -90.5 -68t-114.5 -25q-107 0 -154 54q-18 21 -26.5 45.5t-8.5 56.5q0 54 25 146l83 314q8 34 8 48q0 22 -14.5 29t-52.5 9l6 20q40 -3 129 -3q77 0 125 3l-6 -20q-37 -2 -54.5 -8t-28 -23
t-20.5 -55l-88 -331q-22 -85 -22 -135q0 -55 27.5 -85t90.5 -30q105 0 165.5 68t92.5 191l82 312q7 25 7 44z" />
    <glyph glyph-name="Ucircumflex" unicode="&#xdb;" horiz-adv-x="682" 
d="M281 772l-5 14q72 22 134 56.5t101 73.5h18q28 -48 59.5 -79.5t79.5 -50.5l-4 -14q-54 10 -87.5 23.5t-57.5 27t-32 17.5q-111 -47 -206 -68zM638 636q0 28 -17 39t-57 13l5 20q35 -3 101 -3q59 0 94 3l-5 -20q-35 -2 -54.5 -10.5t-31 -28t-20.5 -57.5l-78 -301
q-36 -138 -98 -212q-37 -43 -90.5 -68t-114.5 -25q-107 0 -154 54q-18 21 -26.5 45.5t-8.5 56.5q0 54 25 146l83 314q8 34 8 48q0 22 -14.5 29t-52.5 9l6 20q40 -3 129 -3q77 0 125 3l-6 -20q-37 -2 -54.5 -8t-28 -23t-20.5 -55l-88 -331q-22 -85 -22 -135q0 -55 27.5 -85
t90.5 -30q105 0 165.5 68t92.5 191l82 312q7 25 7 44z" />
    <glyph glyph-name="Udieresis" unicode="&#xdc;" horiz-adv-x="682" 
d="M356.5 867.5q20.5 20.5 46.5 20.5q21 0 35.5 -14.5t14.5 -35.5q0 -25 -20 -45.5t-47 -20.5q-22 0 -36 14.5t-14 36.5q0 24 20.5 44.5zM568.5 867.5q20.5 20.5 46.5 20.5q21 0 35.5 -14.5t14.5 -35.5q0 -25 -20 -45.5t-47 -20.5q-22 0 -36 14.5t-14 36.5q0 24 20.5 44.5z
M638 636q0 28 -17 39t-57 13l5 20q35 -3 101 -3q59 0 94 3l-5 -20q-35 -2 -54.5 -10.5t-31 -28t-20.5 -57.5l-78 -301q-36 -138 -98 -212q-37 -43 -90.5 -68t-114.5 -25q-107 0 -154 54q-18 21 -26.5 45.5t-8.5 56.5q0 54 25 146l83 314q8 34 8 48q0 22 -14.5 29t-52.5 9
l6 20q40 -3 129 -3q77 0 125 3l-6 -20q-37 -2 -54.5 -8t-28 -23t-20.5 -55l-88 -331q-22 -85 -22 -135q0 -55 27.5 -85t90.5 -30q105 0 165.5 68t92.5 191l82 312q7 25 7 44z" />
    <glyph glyph-name="Yacute" unicode="&#xdd;" horiz-adv-x="670" 
d="M534.5 838.5q35.5 26.5 46.5 34.5q49 38 72 52q18 11 38 11q21 0 28 -16q2 -6 2 -10q0 -13 -10.5 -24.5t-24.5 -19.5q-19 -11 -46.5 -21.5t-32.5 -12.5q-87 -33 -143 -60l-7 11q42 29 77.5 55.5zM742.5 707q13.5 -15 13.5 -38q0 -25 -15 -47.5t-44 -22.5q-20 0 -29 11.5
t-9 28.5q0 16 9 32.5t23 29.5h-3q-27 -1 -55 -22q-52 -38 -112.5 -122.5t-116.5 -218.5l-58 -232q-8 -34 -8 -48q0 -22 14.5 -29t52.5 -9l-5 -20q-45 3 -124 3q-87 0 -131 -3l5 20q36 2 54 8t29 23.5t20 54.5l59 233q-16 142 -43 235t-74 93q-17 0 -28.5 -11t-19.5 -36
l-28 -82h-22l33 97q16 47 36.5 67t61.5 20q53 0 85.5 -43t50.5 -120t31 -199q37 93 85 168t102 129q65 65 118 65q29 0 42.5 -15z" />
    <glyph glyph-name="Thorn" unicode="&#xde;" horiz-adv-x="605" 
d="M166 106q-9 -38 -9 -49q0 -21 14.5 -28t53.5 -9l-4 -20q-46 3 -127 3q-84 0 -127 -3l5 20q35 2 52.5 8t28 23.5t20.5 54.5l132 496q8 34 8 48q0 22 -14.5 29t-52.5 9l5 20q41 -3 127 -3q80 0 128 3l-5 -20q-37 -2 -54.5 -8t-28 -23t-20.5 -55l-8 -29q70 2 106 2
q98 0 148.5 -40.5t50.5 -110.5q0 -78 -47.5 -140t-133.5 -97t-196 -35h-40zM184 172h44q140 0 203 73t63 195q0 59 -30 87.5t-97 28.5q-49 0 -82 -3z" />
    <glyph glyph-name="germandbls" unicode="&#xdf;" horiz-adv-x="613" 
d="M-37 -188l154 565q34 126 111.5 185.5t181.5 59.5q73 0 113 -27t40 -78q0 -61 -57 -110.5t-144 -72.5q88 -8 128 -49.5t40 -99.5q0 -56 -34.5 -101.5t-91.5 -71.5t-122 -26q-48 0 -78 14.5t-30 41.5q0 21 16.5 39.5t40.5 18.5q18 0 29.5 -12t11.5 -29q0 -16 -11 -29
t-28 -21q22 -7 51 -7q43 0 77.5 25t53.5 67t19 91q0 57 -25.5 98.5t-66.5 41.5q-8 -2 -24.5 -7t-27.5 -5q-10 0 -15 3.5t-5 8.5q0 9 8.5 14.5t18.5 5.5q16 0 27 -1.5t24 -7.5q57 19 88 69.5t31 111.5q0 43 -17.5 66.5t-59.5 23.5q-50 0 -94.5 -38.5t-70.5 -134.5l-165 -608
q-57 -2 -97 -14z" />
    <glyph glyph-name="agrave" unicode="&#xe0;" horiz-adv-x="632" 
d="M368 743q-40 27 -60 46q-19 19 -19 39q0 12 7 20q9 10 23 10q11 0 23 -6t20 -15q16 -17 42 -58q49 -70 72 -100l-10 -10q-41 33 -98 74zM523 36q14 -15 31 -16l-5 -20q-40 3 -109 3q-81 0 -120 -3l5 20q47 2 67 15t20 49q0 13 -1 20l-15 124h-254l-68 -85
q-39 -49 -39 -80q0 -37 60 -43v-20q-30 3 -91 3t-87 -3v20q44 12 109 93l402 502h15l62 -531q4 -33 18 -48zM394 248l-31 254l-205 -254h236z" />
    <glyph glyph-name="aacute" unicode="&#xe1;" horiz-adv-x="632" 
d="M439.5 738.5q35.5 26.5 46.5 34.5q49 38 72 52q18 11 38 11q21 0 28 -16q2 -6 2 -10q0 -13 -10.5 -24.5t-24.5 -19.5q-19 -11 -46.5 -21.5t-32.5 -12.5q-87 -33 -143 -60l-7 11q42 29 77.5 55.5zM523 36q14 -15 31 -16l-5 -20q-40 3 -109 3q-81 0 -120 -3l5 20
q47 2 67 15t20 49q0 13 -1 20l-15 124h-254l-68 -85q-39 -49 -39 -80q0 -37 60 -43v-20q-30 3 -91 3t-87 -3v20q44 12 109 93l402 502h15l62 -531q4 -33 18 -48zM394 248l-31 254l-205 -254h236z" />
    <glyph glyph-name="acircumflex" unicode="&#xe2;" horiz-adv-x="632" 
d="M244 672l-5 14q72 22 134 56.5t101 73.5h18q28 -48 59.5 -79.5t79.5 -50.5l-4 -14q-54 10 -87.5 23.5t-57.5 27t-32 17.5q-111 -47 -206 -68zM523 36q14 -15 31 -16l-5 -20q-40 3 -109 3q-81 0 -120 -3l5 20q47 2 67 15t20 49q0 13 -1 20l-15 124h-254l-68 -85
q-39 -49 -39 -80q0 -37 60 -43v-20q-30 3 -91 3t-87 -3v20q44 12 109 93l402 502h15l62 -531q4 -33 18 -48zM394 248l-31 254l-205 -254h236z" />
    <glyph glyph-name="atilde" unicode="&#xe3;" horiz-adv-x="632" 
d="M447 785q21 -10 47 -30q21 -17 36.5 -25t36.5 -8q38 0 70 58l18 -5q-22 -52 -57 -77.5t-73 -25.5q-32 0 -53 10t-47 30q-21 17 -36.5 25t-36.5 8q-38 0 -70 -58l-18 5q22 52 57 77.5t73 25.5q32 0 53 -10zM523 36q14 -15 31 -16l-5 -20q-40 3 -109 3q-81 0 -120 -3l5 20
q47 2 67 15t20 49q0 13 -1 20l-15 124h-254l-68 -85q-39 -49 -39 -80q0 -37 60 -43v-20q-30 3 -91 3t-87 -3v20q44 12 109 93l402 502h15l62 -531q4 -33 18 -48zM394 248l-31 254l-205 -254h236z" />
    <glyph glyph-name="adieresis" unicode="&#xe4;" horiz-adv-x="632" 
d="M309.5 767.5q20.5 20.5 46.5 20.5q21 0 35.5 -14.5t14.5 -35.5q0 -25 -20 -45.5t-47 -20.5q-22 0 -36 14.5t-14 36.5q0 24 20.5 44.5zM521.5 767.5q20.5 20.5 46.5 20.5q21 0 35.5 -14.5t14.5 -35.5q0 -25 -20 -45.5t-47 -20.5q-22 0 -36 14.5t-14 36.5q0 24 20.5 44.5z
M523 36q14 -15 31 -16l-5 -20q-40 3 -109 3q-81 0 -120 -3l5 20q47 2 67 15t20 49q0 13 -1 20l-15 124h-254l-68 -85q-39 -49 -39 -80q0 -37 60 -43v-20q-30 3 -91 3t-87 -3v20q44 12 109 93l402 502h15l62 -531q4 -33 18 -48zM394 248l-31 254l-205 -254h236z" />
    <glyph glyph-name="aring" unicode="&#xe5;" horiz-adv-x="632" 
d="M536.5 803q24.5 -22 24.5 -58q0 -42 -33.5 -72.5t-78.5 -30.5q-36 0 -59.5 21.5t-23.5 58.5q0 43 32 73t77 30q37 0 61.5 -22zM510 687q25 24 25 59q0 27 -19.5 42.5t-44.5 15.5q-31 0 -55 -24.5t-24 -56.5q0 -28 18 -44t43 -16q32 0 57 24zM523 36q14 -15 31 -16l-5 -20
q-40 3 -109 3q-81 0 -120 -3l5 20q47 2 67 15t20 49q0 13 -1 20l-15 124h-254l-68 -85q-39 -49 -39 -80q0 -37 60 -43v-20q-30 3 -91 3t-87 -3v20q44 12 109 93l402 502h15l62 -531q4 -33 18 -48zM394 248l-31 254l-205 -254h236z" />
    <glyph glyph-name="ae" unicode="&#xe6;" horiz-adv-x="910" 
d="M913 608q-13 -36 -38 -118q-9 -30 -13 -62h-22q7 39 7 71q0 47 -21 66.5t-67 19.5h-93q-35 0 -52.5 -5.5t-27.5 -22.5t-20 -55l-50 -186h105q28 0 47 15t30.5 37t25.5 60h22q-16 -49 -27 -95l-7 -27q-11 -41 -26 -122h-22q0 16 3 31q2 22 2 31q0 22 -11 35t-41 15h-106
l-51 -190q-9 -38 -9 -49q0 -21 14.5 -27.5t51.5 -6.5h103q48 0 79 16.5t54 54t46 106.5h22q-8 -22 -21 -72q-17 -59 -26 -128q-68 3 -226 3q-190 0 -288 -3l4 20q36 2 54 8t28.5 23t20.5 55l51 190h-194l-179 -202q-15 -18 -22 -28.5t-7 -18.5q0 -23 62 -27v-20q-27 3 -86 3
q-43 0 -67 -3v20q31 2 86 64l442 500q-11 2 -39 4l5 20q17 -1 54 -1l48 54h26l-48 -55q79 -1 207 -1q144 0 207 3zM423 316l50 186q9 32 9 49q0 18 -10 25l-230 -260h181z" />
    <glyph glyph-name="ccedilla" unicode="&#xe7;" horiz-adv-x="665" 
d="M257 -72q24 7 51 7q25 0 39 -10.5t14 -29.5q0 -40 -48.5 -61.5t-104.5 -21.5q-33 0 -59.5 6.5t-40.5 15.5l7 15q33 -13 80 -13q33 0 67.5 12.5t34.5 38.5q0 24 -38 24q-20 0 -41 -7l48 100h27zM103 40.5q-61 54.5 -61 155.5t51 200t144.5 162.5t214.5 63.5
q55 0 88.5 -17.5t59.5 -47.5q8 -9 14 -9q20 0 41 60h22q-31 -90 -65 -230h-22q6 51 6 77q0 22 -3.5 38t-12.5 33q-18 38 -54.5 58t-82.5 20q-79 0 -148.5 -66t-111 -166.5t-41.5 -195.5q0 -83 37.5 -127.5t103.5 -44.5q46 0 95 20.5t85 57.5q26 27 45 61.5t45 96.5h22
q-47 -173 -59 -240h-22q3 21 3 34q0 26 -13 26q-8 0 -20 -9q-46 -32 -89.5 -48.5t-100.5 -16.5q-110 0 -171 54.5z" />
    <glyph glyph-name="egrave" unicode="&#xe8;" horiz-adv-x="619" 
d="M332 743q-40 27 -60 46q-19 19 -19 39q0 12 7 20q9 10 23 10q11 0 23 -6t20 -15q16 -17 42 -58q49 -70 72 -100l-10 -10q-41 33 -98 74zM624 608q-19 -47 -36 -108q-15 -58 -17 -72h-23q9 44 9 73q0 46 -24.5 65t-82.5 19h-73q-36 0 -54 -5.5t-28.5 -22.5t-20.5 -55
l-50 -186h93q45 0 69.5 31.5t43.5 80.5h23q-24 -71 -36 -122l-6 -22q-15 -57 -21 -100h-23q1 6 3 21t2 26q0 30 -15.5 47.5t-55.5 17.5h-83l-51 -190q-9 -38 -9 -48q0 -22 14.5 -28.5t53.5 -6.5h73q55 0 91.5 17t64 55t52.5 105h23q-18 -53 -24 -82q-11 -37 -25 -118
q-70 3 -235 3q-185 0 -280 -3l5 20q36 2 54 8t28.5 23t20.5 55l107 396q9 38 9 49q0 21 -14.5 28t-52.5 9l5 20q94 -3 279 -3q151 0 217 3z" />
    <glyph glyph-name="eacute" unicode="&#xe9;" horiz-adv-x="619" 
d="M403.5 738.5q35.5 26.5 46.5 34.5q49 38 72 52q18 11 38 11q21 0 28 -16q2 -6 2 -10q0 -13 -10.5 -24.5t-24.5 -19.5q-19 -11 -46.5 -21.5t-32.5 -12.5q-87 -33 -143 -60l-7 11q42 29 77.5 55.5zM624 608q-19 -47 -36 -108q-15 -58 -17 -72h-23q9 44 9 73q0 46 -24.5 65
t-82.5 19h-73q-36 0 -54 -5.5t-28.5 -22.5t-20.5 -55l-50 -186h93q45 0 69.5 31.5t43.5 80.5h23q-24 -71 -36 -122l-6 -22q-15 -57 -21 -100h-23q1 6 3 21t2 26q0 30 -15.5 47.5t-55.5 17.5h-83l-51 -190q-9 -38 -9 -48q0 -22 14.5 -28.5t53.5 -6.5h73q55 0 91.5 17t64 55
t52.5 105h23q-18 -53 -24 -82q-11 -37 -25 -118q-70 3 -235 3q-185 0 -280 -3l5 20q36 2 54 8t28.5 23t20.5 55l107 396q9 38 9 49q0 21 -14.5 28t-52.5 9l5 20q94 -3 279 -3q151 0 217 3z" />
    <glyph glyph-name="ecircumflex" unicode="&#xea;" horiz-adv-x="619" 
d="M208 672l-5 14q72 22 134 56.5t101 73.5h18q28 -48 59.5 -79.5t79.5 -50.5l-4 -14q-54 10 -87.5 23.5t-57.5 27t-32 17.5q-111 -47 -206 -68zM624 608q-19 -47 -36 -108q-15 -58 -17 -72h-23q9 44 9 73q0 46 -24.5 65t-82.5 19h-73q-36 0 -54 -5.5t-28.5 -22.5t-20.5 -55
l-50 -186h93q45 0 69.5 31.5t43.5 80.5h23q-24 -71 -36 -122l-6 -22q-15 -57 -21 -100h-23q1 6 3 21t2 26q0 30 -15.5 47.5t-55.5 17.5h-83l-51 -190q-9 -38 -9 -48q0 -22 14.5 -28.5t53.5 -6.5h73q55 0 91.5 17t64 55t52.5 105h23q-18 -53 -24 -82q-11 -37 -25 -118
q-70 3 -235 3q-185 0 -280 -3l5 20q36 2 54 8t28.5 23t20.5 55l107 396q9 38 9 49q0 21 -14.5 28t-52.5 9l5 20q94 -3 279 -3q151 0 217 3z" />
    <glyph glyph-name="edieresis" unicode="&#xeb;" horiz-adv-x="619" 
d="M273.5 767.5q20.5 20.5 46.5 20.5q21 0 35.5 -14.5t14.5 -35.5q0 -25 -20 -45.5t-47 -20.5q-22 0 -36 14.5t-14 36.5q0 24 20.5 44.5zM485.5 767.5q20.5 20.5 46.5 20.5q21 0 35.5 -14.5t14.5 -35.5q0 -25 -20 -45.5t-47 -20.5q-22 0 -36 14.5t-14 36.5q0 24 20.5 44.5z
M624 608q-19 -47 -36 -108q-15 -58 -17 -72h-23q9 44 9 73q0 46 -24.5 65t-82.5 19h-73q-36 0 -54 -5.5t-28.5 -22.5t-20.5 -55l-50 -186h93q45 0 69.5 31.5t43.5 80.5h23q-24 -71 -36 -122l-6 -22q-15 -57 -21 -100h-23q1 6 3 21t2 26q0 30 -15.5 47.5t-55.5 17.5h-83
l-51 -190q-9 -38 -9 -48q0 -22 14.5 -28.5t53.5 -6.5h73q55 0 91.5 17t64 55t52.5 105h23q-18 -53 -24 -82q-11 -37 -25 -118q-70 3 -235 3q-185 0 -280 -3l5 20q36 2 54 8t28.5 23t20.5 55l107 396q9 38 9 49q0 21 -14.5 28t-52.5 9l5 20q94 -3 279 -3q151 0 217 3z" />
    <glyph glyph-name="igrave" unicode="&#xec;" horiz-adv-x="344" 
d="M197 743q-40 27 -60 46q-19 19 -19 39q0 12 7 20q9 10 23 10q11 0 23 -6t20 -15q16 -17 42 -58q49 -70 72 -100l-10 -10q-41 33 -98 74zM159 57q0 -21 14.5 -28t53.5 -9l-4 -20q-46 3 -127 3q-83 0 -127 -3l5 20q35 2 52.5 8t28 23.5t20.5 54.5l105 396q8 34 8 48
q0 22 -14.5 29t-52.5 9l5 20q41 -3 127 -3q80 0 128 3l-5 -20q-37 -2 -54.5 -8t-28 -23t-20.5 -55l-105 -396q-9 -38 -9 -49z" />
    <glyph glyph-name="iacute" unicode="&#xed;" horiz-adv-x="344" 
d="M268.5 738.5q35.5 26.5 46.5 34.5q49 38 72 52q18 11 38 11q21 0 28 -16q2 -6 2 -10q0 -13 -10.5 -24.5t-24.5 -19.5q-19 -11 -46.5 -21.5t-32.5 -12.5q-87 -33 -143 -60l-7 11q42 29 77.5 55.5zM159 57q0 -21 14.5 -28t53.5 -9l-4 -20q-46 3 -127 3q-83 0 -127 -3l5 20
q35 2 52.5 8t28 23.5t20.5 54.5l105 396q8 34 8 48q0 22 -14.5 29t-52.5 9l5 20q41 -3 127 -3q80 0 128 3l-5 -20q-37 -2 -54.5 -8t-28 -23t-20.5 -55l-105 -396q-9 -38 -9 -49z" />
    <glyph glyph-name="icircumflex" unicode="&#xee;" horiz-adv-x="344" 
d="M73 672l-5 14q72 22 134 56.5t101 73.5h18q28 -48 59.5 -79.5t79.5 -50.5l-4 -14q-54 10 -87.5 23.5t-57.5 27t-32 17.5q-111 -47 -206 -68zM159 57q0 -21 14.5 -28t53.5 -9l-4 -20q-46 3 -127 3q-83 0 -127 -3l5 20q35 2 52.5 8t28 23.5t20.5 54.5l105 396q8 34 8 48
q0 22 -14.5 29t-52.5 9l5 20q41 -3 127 -3q80 0 128 3l-5 -20q-37 -2 -54.5 -8t-28 -23t-20.5 -55l-105 -396q-9 -38 -9 -49z" />
    <glyph glyph-name="idieresis" unicode="&#xef;" horiz-adv-x="344" 
d="M138.5 767.5q20.5 20.5 46.5 20.5q21 0 35.5 -14.5t14.5 -35.5q0 -25 -20 -45.5t-47 -20.5q-22 0 -36 14.5t-14 36.5q0 24 20.5 44.5zM350.5 767.5q20.5 20.5 46.5 20.5q21 0 35.5 -14.5t14.5 -35.5q0 -25 -20 -45.5t-47 -20.5q-22 0 -36 14.5t-14 36.5q0 24 20.5 44.5z
M159 57q0 -21 14.5 -28t53.5 -9l-4 -20q-46 3 -127 3q-83 0 -127 -3l5 20q35 2 52.5 8t28 23.5t20.5 54.5l105 396q8 34 8 48q0 22 -14.5 29t-52.5 9l5 20q41 -3 127 -3q80 0 128 3l-5 -20q-37 -2 -54.5 -8t-28 -23t-20.5 -55l-105 -396q-9 -38 -9 -49z" />
    <glyph glyph-name="eth" unicode="&#xf0;" horiz-adv-x="724" 
d="M428 294h-412l6 25h412zM625 189q-55 -88 -156.5 -138.5t-236.5 -50.5l-58 1q-56 2 -82 2q-81 0 -120 -3l3 20q34 2 51.5 8t28 23.5t20.5 54.5l105 396q9 32 9 49q0 20 -14.5 28t-52.5 9l3 20q34 -3 97 -3l85 1q68 2 91 2q141 0 211.5 -56t70.5 -165q0 -110 -55 -198z
M494.5 124q89.5 106 89.5 288q0 91 -51 134.5t-163 43.5q-31 0 -48.5 -7t-28.5 -25t-20 -54l-105 -400q-9 -38 -9 -50q0 -19 13.5 -27.5t47.5 -8.5q185 0 274.5 106z" />
    <glyph glyph-name="ntilde" unicode="&#xf1;" horiz-adv-x="797" 
d="M523 785q21 -10 47 -30q21 -17 36.5 -25t36.5 -8q38 0 70 58l18 -5q-22 -52 -57 -77.5t-73 -25.5q-32 0 -53 10t-47 30q-21 17 -36.5 25t-36.5 8q-38 0 -70 -58l-18 5q22 52 57 77.5t73 25.5q32 0 53 -10zM857 640q14 -14 14 -37q0 -27 -16 -49.5t-43 -22.5
q-20 0 -29 11.5t-9 27.5t9 33.5t23 29.5h-3q-26 -1 -45.5 -14t-36.5 -37q-44 -63 -93.5 -206t-107.5 -381h-22l-228 548q-107 -468 -176 -554q-24 -30 -47.5 -46.5t-59.5 -16.5q-60 0 -60 52q0 27 16 49t43 22q20 0 29 -11.5t9 -27.5t-9 -33t-23 -30h2q48 1 84 52
q72 107 170 541q2 28 -13.5 37t-63.5 11l5 20q32 -3 89 -3q46 0 81 3l190 -471q96 360 167 453q48 64 108 64q32 0 46 -14z" />
    <glyph glyph-name="ograve" unicode="&#xf2;" horiz-adv-x="732" 
d="M401 743q-40 27 -60 46q-19 19 -19 39q0 12 7 20q9 10 23 10q11 0 23 -6t20 -15q16 -17 42 -58q49 -70 72 -100l-10 -10q-41 33 -98 74zM113 47q-67 61 -67 180q0 91 51 183t142 152t205 60q112 0 179 -61t67 -180q0 -91 -51 -183t-142 -152t-205 -60q-112 0 -179 61z
M291 547q-65 -57 -101.5 -147.5t-36.5 -186.5q0 -108 39.5 -158.5t108.5 -50.5q79 0 144 57t101.5 147.5t36.5 186.5q0 108 -39.5 158.5t-108.5 50.5q-79 0 -144 -57z" />
    <glyph glyph-name="oacute" unicode="&#xf3;" horiz-adv-x="732" 
d="M472.5 738.5q35.5 26.5 46.5 34.5q49 38 72 52q18 11 38 11q21 0 28 -16q2 -6 2 -10q0 -13 -10.5 -24.5t-24.5 -19.5q-19 -11 -46.5 -21.5t-32.5 -12.5q-87 -33 -143 -60l-7 11q42 29 77.5 55.5zM113 47q-67 61 -67 180q0 91 51 183t142 152t205 60q112 0 179 -61
t67 -180q0 -91 -51 -183t-142 -152t-205 -60q-112 0 -179 61zM291 547q-65 -57 -101.5 -147.5t-36.5 -186.5q0 -108 39.5 -158.5t108.5 -50.5q79 0 144 57t101.5 147.5t36.5 186.5q0 108 -39.5 158.5t-108.5 50.5q-79 0 -144 -57z" />
    <glyph glyph-name="ocircumflex" unicode="&#xf4;" horiz-adv-x="732" 
d="M277 672l-5 14q72 22 134 56.5t101 73.5h18q28 -48 59.5 -79.5t79.5 -50.5l-4 -14q-54 10 -87.5 23.5t-57.5 27t-32 17.5q-111 -47 -206 -68zM113 47q-67 61 -67 180q0 91 51 183t142 152t205 60q112 0 179 -61t67 -180q0 -91 -51 -183t-142 -152t-205 -60
q-112 0 -179 61zM291 547q-65 -57 -101.5 -147.5t-36.5 -186.5q0 -108 39.5 -158.5t108.5 -50.5q79 0 144 57t101.5 147.5t36.5 186.5q0 108 -39.5 158.5t-108.5 50.5q-79 0 -144 -57z" />
    <glyph glyph-name="otilde" unicode="&#xf5;" horiz-adv-x="732" 
d="M480 785q21 -10 47 -30q21 -17 36.5 -25t36.5 -8q38 0 70 58l18 -5q-22 -52 -57 -77.5t-73 -25.5q-32 0 -53 10t-47 30q-21 17 -36.5 25t-36.5 8q-38 0 -70 -58l-18 5q22 52 57 77.5t73 25.5q32 0 53 -10zM113 47q-67 61 -67 180q0 91 51 183t142 152t205 60
q112 0 179 -61t67 -180q0 -91 -51 -183t-142 -152t-205 -60q-112 0 -179 61zM291 547q-65 -57 -101.5 -147.5t-36.5 -186.5q0 -108 39.5 -158.5t108.5 -50.5q79 0 144 57t101.5 147.5t36.5 186.5q0 108 -39.5 158.5t-108.5 50.5q-79 0 -144 -57z" />
    <glyph glyph-name="odieresis" unicode="&#xf6;" horiz-adv-x="732" 
d="M342.5 767.5q20.5 20.5 46.5 20.5q21 0 35.5 -14.5t14.5 -35.5q0 -25 -20 -45.5t-47 -20.5q-22 0 -36 14.5t-14 36.5q0 24 20.5 44.5zM554.5 767.5q20.5 20.5 46.5 20.5q21 0 35.5 -14.5t14.5 -35.5q0 -25 -20 -45.5t-47 -20.5q-22 0 -36 14.5t-14 36.5q0 24 20.5 44.5z
M113 47q-67 61 -67 180q0 91 51 183t142 152t205 60q112 0 179 -61t67 -180q0 -91 -51 -183t-142 -152t-205 -60q-112 0 -179 61zM291 547q-65 -57 -101.5 -147.5t-36.5 -186.5q0 -108 39.5 -158.5t108.5 -50.5q79 0 144 57t101.5 147.5t36.5 186.5q0 108 -39.5 158.5
t-108.5 50.5q-79 0 -144 -57z" />
    <glyph glyph-name="divide" unicode="&#xf7;" horiz-adv-x="657" 
d="M355 532q23 22 50 22q19 0 30.5 -11t11.5 -29q0 -28 -23 -49t-51 -21q-19 0 -30 11t-11 28q0 27 23 49zM96 370h501l-9 -30h-501zM272 244q23 22 50 22q19 0 30.5 -11t11.5 -29q0 -28 -23 -49.5t-51 -21.5q-18 0 -29.5 11.5t-11.5 28.5q0 27 23 49z" />
    <glyph glyph-name="oslash" unicode="&#xf8;" horiz-adv-x="732" 
d="M690 381q0 -91 -51 -183t-142 -152t-205 -60q-103 0 -168 51l-117 -125l-17 14l118 126q-62 62 -62 175q0 91 51 183t142 152t205 60q101 0 164 -48l113 118l15 -13l-112 -119q66 -61 66 -179zM291 547q-65 -57 -101.5 -147.5t-36.5 -186.5q0 -62 14 -107l391 423
q-35 75 -123 75q-79 0 -144 -57zM445 61q65 57 101.5 147.5t36.5 186.5q0 66 -16 112l-391 -424q35 -79 125 -79q79 0 144 57z" />
    <glyph glyph-name="ugrave" unicode="&#xf9;" horiz-adv-x="683" 
d="M375 743q-40 27 -60 46q-19 19 -19 39q0 12 7 20q9 10 23 10q11 0 23 -6t20 -15q16 -17 42 -58q49 -70 72 -100l-10 -10q-41 33 -98 74zM476 79q-37 -43 -90.5 -68t-114.5 -25q-112 0 -154 54q-18 23 -27 47t-9 55q0 50 26 146l57 214q8 34 8 48q0 22 -14.5 29t-52.5 9
l6 20q40 -3 129 -3q77 0 125 3l-6 -20q-37 -2 -54.5 -8t-28 -23t-20.5 -55l-62 -231q-22 -85 -22 -135q0 -55 27 -85t91 -30q105 0 165.5 68t92.5 191l57 212q7 25 7 45q0 27 -17.5 38t-56.5 13l5 20q36 -3 101 -3q61 0 94 3l-5 -20q-45 -2 -68 -22t-38 -74l-53 -201
q-36 -138 -98 -212z" />
    <glyph glyph-name="uacute" unicode="&#xfa;" horiz-adv-x="683" 
d="M446.5 738.5q35.5 26.5 46.5 34.5q49 38 72 52q18 11 38 11q21 0 28 -16q2 -6 2 -10q0 -13 -10.5 -24.5t-24.5 -19.5q-19 -11 -46.5 -21.5t-32.5 -12.5q-87 -33 -143 -60l-7 11q42 29 77.5 55.5zM476 79q-37 -43 -90.5 -68t-114.5 -25q-112 0 -154 54q-18 23 -27 47
t-9 55q0 50 26 146l57 214q8 34 8 48q0 22 -14.5 29t-52.5 9l6 20q40 -3 129 -3q77 0 125 3l-6 -20q-37 -2 -54.5 -8t-28 -23t-20.5 -55l-62 -231q-22 -85 -22 -135q0 -55 27 -85t91 -30q105 0 165.5 68t92.5 191l57 212q7 25 7 45q0 27 -17.5 38t-56.5 13l5 20
q36 -3 101 -3q61 0 94 3l-5 -20q-45 -2 -68 -22t-38 -74l-53 -201q-36 -138 -98 -212z" />
    <glyph glyph-name="ucircumflex" unicode="&#xfb;" horiz-adv-x="683" 
d="M251 672l-5 14q72 22 134 56.5t101 73.5h18q28 -48 59.5 -79.5t79.5 -50.5l-4 -14q-54 10 -87.5 23.5t-57.5 27t-32 17.5q-111 -47 -206 -68zM476 79q-37 -43 -90.5 -68t-114.5 -25q-112 0 -154 54q-18 23 -27 47t-9 55q0 50 26 146l57 214q8 34 8 48q0 22 -14.5 29
t-52.5 9l6 20q40 -3 129 -3q77 0 125 3l-6 -20q-37 -2 -54.5 -8t-28 -23t-20.5 -55l-62 -231q-22 -85 -22 -135q0 -55 27 -85t91 -30q105 0 165.5 68t92.5 191l57 212q7 25 7 45q0 27 -17.5 38t-56.5 13l5 20q36 -3 101 -3q61 0 94 3l-5 -20q-45 -2 -68 -22t-38 -74
l-53 -201q-36 -138 -98 -212z" />
    <glyph glyph-name="udieresis" unicode="&#xfc;" horiz-adv-x="683" 
d="M316.5 767.5q20.5 20.5 46.5 20.5q21 0 35.5 -14.5t14.5 -35.5q0 -25 -20 -45.5t-47 -20.5q-22 0 -36 14.5t-14 36.5q0 24 20.5 44.5zM528.5 767.5q20.5 20.5 46.5 20.5q21 0 35.5 -14.5t14.5 -35.5q0 -25 -20 -45.5t-47 -20.5q-22 0 -36 14.5t-14 36.5q0 24 20.5 44.5z
M476 79q-37 -43 -90.5 -68t-114.5 -25q-112 0 -154 54q-18 23 -27 47t-9 55q0 50 26 146l57 214q8 34 8 48q0 22 -14.5 29t-52.5 9l6 20q40 -3 129 -3q77 0 125 3l-6 -20q-37 -2 -54.5 -8t-28 -23t-20.5 -55l-62 -231q-22 -85 -22 -135q0 -55 27 -85t91 -30q105 0 165.5 68
t92.5 191l57 212q7 25 7 45q0 27 -17.5 38t-56.5 13l5 20q36 -3 101 -3q61 0 94 3l-5 -20q-45 -2 -68 -22t-38 -74l-53 -201q-36 -138 -98 -212z" />
    <glyph glyph-name="yacute" unicode="&#xfd;" horiz-adv-x="638" 
d="M421.5 738.5q35.5 26.5 46.5 34.5q49 38 72 52q18 11 38 11q21 0 28 -16q2 -6 2 -10q0 -13 -10.5 -24.5t-24.5 -19.5q-19 -11 -46.5 -21.5t-32.5 -12.5q-87 -33 -143 -60l-7 11q42 29 77.5 55.5zM685.5 607q13.5 -15 13.5 -38q0 -25 -15 -47.5t-44 -22.5q-20 0 -29 11.5
t-9 28.5q0 15 9 32t23 30h-3q-25 -1 -55 -22q-50 -38 -107 -113t-109 -193l-43 -167q-9 -38 -9 -49q0 -21 14.5 -28t53.5 -9l-5 -20q-45 3 -124 3q-87 0 -131 -3l5 20q36 2 54 8t29 23.5t20 54.5l48 184q-13 120 -35 198.5t-59 78.5q-17 0 -28.5 -11t-19.5 -36l-28 -82h-22
l33 97q16 47 36.5 67t61.5 20t66 -29t40 -83t30 -150l8 -49q70 151 170 250q26 26 57 43.5t61 17.5q29 0 42.5 -15z" />
    <glyph glyph-name="thorn" unicode="&#xfe;" horiz-adv-x="591" 
d="M168 106q-9 -38 -9 -49q0 -21 14.5 -28t53.5 -9l-4 -20q-46 3 -127 3q-83 0 -127 -3l5 20q35 2 52.5 8t28 23.5t20.5 54.5l105 396q8 34 8 48q0 22 -14.5 29t-52.5 9l5 20q41 -3 127 -3q80 0 128 3l-5 -20q-37 -2 -54.5 -8t-28 -23t-20.5 -55l-4 -15l96 1q98 0 148.5 -35
t50.5 -96q0 -66 -46.5 -119t-130 -83t-190.5 -30h-24zM178 145h29q135 0 195.5 62t60.5 166q0 49 -30 72.5t-97 23.5q-53 0 -72 -1z" />
    <glyph glyph-name="ydieresis" unicode="&#xff;" horiz-adv-x="638" 
d="M291.5 767.5q20.5 20.5 46.5 20.5q21 0 35.5 -14.5t14.5 -35.5q0 -25 -20 -45.5t-47 -20.5q-22 0 -36 14.5t-14 36.5q0 24 20.5 44.5zM503.5 767.5q20.5 20.5 46.5 20.5q21 0 35.5 -14.5t14.5 -35.5q0 -25 -20 -45.5t-47 -20.5q-22 0 -36 14.5t-14 36.5q0 24 20.5 44.5z
M685.5 607q13.5 -15 13.5 -38q0 -25 -15 -47.5t-44 -22.5q-20 0 -29 11.5t-9 28.5q0 15 9 32t23 30h-3q-25 -1 -55 -22q-50 -38 -107 -113t-109 -193l-43 -167q-9 -38 -9 -49q0 -21 14.5 -28t53.5 -9l-5 -20q-45 3 -124 3q-87 0 -131 -3l5 20q36 2 54 8t29 23.5t20 54.5
l48 184q-13 120 -35 198.5t-59 78.5q-17 0 -28.5 -11t-19.5 -36l-28 -82h-22l33 97q16 47 36.5 67t61.5 20t66 -29t40 -83t30 -150l8 -49q70 151 170 250q26 26 57 43.5t61 17.5q29 0 42.5 -15z" />
    <glyph glyph-name="Amacron" unicode="&#x100;" horiz-adv-x="629" 
d="M632 819h-352l6 25h352zM521 36q14 -15 32 -16l-4 -20q-40 3 -109 3q-81 0 -120 -3l4 20q34 2 52.5 8.5t26.5 24t7 51.5l-9 164h-246l-75 -106q-47 -66 -47 -99q0 -41 74 -43l-5 -20q-55 3 -114 3q-43 0 -75 -3l5 20q46 10 100 87l431 606h15l40 -629q3 -33 17 -48z
M400 288l-17 303l-214 -303h231z" />
    <glyph glyph-name="amacron" unicode="&#x101;" horiz-adv-x="632" 
d="M609 719h-352l6 25h352zM523 36q14 -15 31 -16l-5 -20q-40 3 -109 3q-81 0 -120 -3l5 20q47 2 67 15t20 49q0 13 -1 20l-15 124h-254l-68 -85q-39 -49 -39 -80q0 -37 60 -43v-20q-30 3 -91 3t-87 -3v20q44 12 109 93l402 502h15l62 -531q4 -33 18 -48zM394 248l-31 254
l-205 -254h236z" />
    <glyph glyph-name="Abreve" unicode="&#x102;" horiz-adv-x="629" 
d="M594.5 864q60.5 15 106.5 43l10 -11q-43 -43 -116 -78.5t-132 -35.5q-62 0 -101 32.5t-50 83.5l16 5q26 -30 61 -42t91 -12q54 0 114.5 15zM521 36q14 -15 32 -16l-4 -20q-40 3 -109 3q-81 0 -120 -3l4 20q34 2 52.5 8.5t26.5 24t7 51.5l-9 164h-246l-75 -106
q-47 -66 -47 -99q0 -41 74 -43l-5 -20q-55 3 -114 3q-43 0 -75 -3l5 20q46 10 100 87l431 606h15l40 -629q3 -33 17 -48zM400 288l-17 303l-214 -303h231z" />
    <glyph glyph-name="abreve" unicode="&#x103;" horiz-adv-x="632" 
d="M568.5 764q60.5 15 106.5 43l10 -11q-43 -43 -116 -78.5t-132 -35.5q-62 0 -101 32.5t-50 83.5l16 5q26 -30 61 -42t91 -12q54 0 114.5 15zM523 36q14 -15 31 -16l-5 -20q-40 3 -109 3q-81 0 -120 -3l5 20q47 2 67 15t20 49q0 13 -1 20l-15 124h-254l-68 -85
q-39 -49 -39 -80q0 -37 60 -43v-20q-30 3 -91 3t-87 -3v20q44 12 109 93l402 502h15l62 -531q4 -33 18 -48zM394 248l-31 254l-205 -254h236z" />
    <glyph glyph-name="Aogonek" unicode="&#x104;" horiz-adv-x="629" 
d="M466 -37.5q-36 -27.5 -36 -65.5q0 -37 39 -37q19 0 41 8t36 18l11 -17q-60 -57 -129 -57q-36 0 -55 15.5t-19 42.5q0 45 47.5 79t108.5 54h38q-46 -13 -82 -40.5zM521 36q14 -15 32 -16l-4 -20q-40 3 -109 3q-81 0 -120 -3l4 20q34 2 52.5 8.5t26.5 24t7 51.5l-9 164
h-246l-75 -106q-47 -66 -47 -99q0 -41 74 -43l-5 -20q-55 3 -114 3q-43 0 -75 -3l5 20q46 10 100 87l431 606h15l40 -629q3 -33 17 -48zM400 288l-17 303l-214 -303h231z" />
    <glyph glyph-name="aogonek" unicode="&#x105;" horiz-adv-x="632" 
d="M441 -37.5q-36 -27.5 -36 -65.5q0 -37 39 -37q19 0 41 8t36 18l11 -17q-60 -57 -129 -57q-36 0 -55 15.5t-19 42.5q0 45 47.5 79t108.5 54h38q-46 -13 -82 -40.5zM523 36q14 -15 31 -16l-5 -20q-40 3 -109 3q-81 0 -120 -3l5 20q47 2 67 15t20 49q0 13 -1 20l-15 124
h-254l-68 -85q-39 -49 -39 -80q0 -37 60 -43v-20q-30 3 -91 3t-87 -3v20q44 12 109 93l402 502h15l62 -531q4 -33 18 -48zM394 248l-31 254l-205 -254h236z" />
    <glyph glyph-name="Cacute" unicode="&#x106;" horiz-adv-x="670" 
d="M556.5 838.5q35.5 26.5 46.5 34.5q49 38 72 52q18 11 38 11q21 0 28 -16q2 -6 2 -10q0 -13 -10.5 -24.5t-24.5 -19.5q-19 -11 -46.5 -21.5t-32.5 -12.5q-87 -33 -143 -60l-7 11q42 29 77.5 55.5zM648 478h-22q6 39 6 69q0 48 -16 79q-18 37 -53.5 57.5t-77.5 20.5
q-83 0 -160.5 -78t-125.5 -196.5t-48 -229.5q0 -96 38 -146t105 -50q44 0 93 20.5t85 57.5q26 26 45 60.5t45 97.5h22q-47 -173 -59 -240h-22q3 21 3 34q0 26 -12 26q-7 0 -21 -9q-52 -34 -91 -49.5t-98 -15.5q-111 0 -172 60t-61 175t57.5 232t158 193t220.5 76
q58 0 88.5 -16.5t60.5 -48.5q7 -9 15 -9q9 0 18.5 14.5t21.5 45.5h21q-33 -86 -64 -230z" />
    <glyph glyph-name="cacute" unicode="&#x107;" horiz-adv-x="665" 
d="M451.5 738.5q35.5 26.5 46.5 34.5q49 38 72 52q18 11 38 11q21 0 28 -16q2 -6 2 -10q0 -13 -10.5 -24.5t-24.5 -19.5q-19 -11 -46.5 -21.5t-32.5 -12.5q-87 -33 -143 -60l-7 11q42 29 77.5 55.5zM103 40.5q-61 54.5 -61 155.5t51 200t144.5 162.5t214.5 63.5
q55 0 88.5 -17.5t59.5 -47.5q8 -9 14 -9q20 0 41 60h22q-31 -90 -65 -230h-22q6 51 6 77q0 22 -3.5 38t-12.5 33q-18 38 -54.5 58t-82.5 20q-79 0 -148.5 -66t-111 -166.5t-41.5 -195.5q0 -83 37.5 -127.5t103.5 -44.5q46 0 95 20.5t85 57.5q26 27 45 61.5t45 96.5h22
q-47 -173 -59 -240h-22q3 21 3 34q0 26 -13 26q-8 0 -20 -9q-46 -32 -89.5 -48.5t-100.5 -16.5q-110 0 -171 54.5z" />
    <glyph glyph-name="Ccircumflex" unicode="&#x108;" horiz-adv-x="670" 
d="M299 772l-5 14q72 22 134 56.5t101 73.5h18q28 -48 59.5 -79.5t79.5 -50.5l-4 -14q-54 10 -87.5 23.5t-57.5 27t-32 17.5q-111 -47 -206 -68zM648 478h-22q6 39 6 69q0 48 -16 79q-18 37 -53.5 57.5t-77.5 20.5q-83 0 -160.5 -78t-125.5 -196.5t-48 -229.5q0 -96 38 -146
t105 -50q44 0 93 20.5t85 57.5q26 26 45 60.5t45 97.5h22q-47 -173 -59 -240h-22q3 21 3 34q0 26 -12 26q-7 0 -21 -9q-52 -34 -91 -49.5t-98 -15.5q-111 0 -172 60t-61 175t57.5 232t158 193t220.5 76q58 0 88.5 -16.5t60.5 -48.5q7 -9 15 -9q9 0 18.5 14.5t21.5 45.5h21
q-33 -86 -64 -230z" />
    <glyph glyph-name="ccircumflex" unicode="&#x109;" horiz-adv-x="665" 
d="M256 672l-5 14q72 22 134 56.5t101 73.5h18q28 -48 59.5 -79.5t79.5 -50.5l-4 -14q-54 10 -87.5 23.5t-57.5 27t-32 17.5q-111 -47 -206 -68zM103 40.5q-61 54.5 -61 155.5t51 200t144.5 162.5t214.5 63.5q55 0 88.5 -17.5t59.5 -47.5q8 -9 14 -9q20 0 41 60h22
q-31 -90 -65 -230h-22q6 51 6 77q0 22 -3.5 38t-12.5 33q-18 38 -54.5 58t-82.5 20q-79 0 -148.5 -66t-111 -166.5t-41.5 -195.5q0 -83 37.5 -127.5t103.5 -44.5q46 0 95 20.5t85 57.5q26 27 45 61.5t45 96.5h22q-47 -173 -59 -240h-22q3 21 3 34q0 26 -13 26q-8 0 -20 -9
q-46 -32 -89.5 -48.5t-100.5 -16.5q-110 0 -171 54.5z" />
    <glyph glyph-name="Cdotaccent" unicode="&#x10a;" horiz-adv-x="670" 
d="M487 876.5q22 23.5 52 23.5q23 0 37 -15t14 -38q0 -28 -22 -51.5t-53 -23.5q-22 0 -36 15t-14 38q0 28 22 51.5zM648 478h-22q6 39 6 69q0 48 -16 79q-18 37 -53.5 57.5t-77.5 20.5q-83 0 -160.5 -78t-125.5 -196.5t-48 -229.5q0 -96 38 -146t105 -50q44 0 93 20.5
t85 57.5q26 26 45 60.5t45 97.5h22q-47 -173 -59 -240h-22q3 21 3 34q0 26 -12 26q-7 0 -21 -9q-52 -34 -91 -49.5t-98 -15.5q-111 0 -172 60t-61 175t57.5 232t158 193t220.5 76q58 0 88.5 -16.5t60.5 -48.5q7 -9 15 -9q9 0 18.5 14.5t21.5 45.5h21q-33 -86 -64 -230z" />
    <glyph glyph-name="cdotaccent" unicode="&#x10b;" horiz-adv-x="665" 
d="M432 776.5q22 23.5 52 23.5q23 0 37 -15t14 -38q0 -28 -22 -51.5t-53 -23.5q-22 0 -36 15t-14 38q0 28 22 51.5zM103 40.5q-61 54.5 -61 155.5t51 200t144.5 162.5t214.5 63.5q55 0 88.5 -17.5t59.5 -47.5q8 -9 14 -9q20 0 41 60h22q-31 -90 -65 -230h-22q6 51 6 77
q0 22 -3.5 38t-12.5 33q-18 38 -54.5 58t-82.5 20q-79 0 -148.5 -66t-111 -166.5t-41.5 -195.5q0 -83 37.5 -127.5t103.5 -44.5q46 0 95 20.5t85 57.5q26 27 45 61.5t45 96.5h22q-47 -173 -59 -240h-22q3 21 3 34q0 26 -13 26q-8 0 -20 -9q-46 -32 -89.5 -48.5t-100.5 -16.5
q-110 0 -171 54.5z" />
    <glyph glyph-name="Ccaron" unicode="&#x10c;" horiz-adv-x="670" 
d="M732 924l5 -14q-72 -22 -134 -56.5t-101 -73.5h-18q-28 48 -59.5 79.5t-79.5 50.5l4 14q54 -10 87.5 -23.5t57.5 -27t32 -17.5q111 47 206 68zM648 478h-22q6 39 6 69q0 48 -16 79q-18 37 -53.5 57.5t-77.5 20.5q-83 0 -160.5 -78t-125.5 -196.5t-48 -229.5
q0 -96 38 -146t105 -50q44 0 93 20.5t85 57.5q26 26 45 60.5t45 97.5h22q-47 -173 -59 -240h-22q3 21 3 34q0 26 -12 26q-7 0 -21 -9q-52 -34 -91 -49.5t-98 -15.5q-111 0 -172 60t-61 175t57.5 232t158 193t220.5 76q58 0 88.5 -16.5t60.5 -48.5q7 -9 15 -9q9 0 18.5 14.5
t21.5 45.5h21q-33 -86 -64 -230z" />
    <glyph glyph-name="ccaron" unicode="&#x10d;" horiz-adv-x="665" 
d="M687 824l5 -14q-72 -22 -134 -56.5t-101 -73.5h-18q-28 48 -59.5 79.5t-79.5 50.5l4 14q54 -10 87.5 -23.5t57.5 -27t32 -17.5q111 47 206 68zM103 40.5q-61 54.5 -61 155.5t51 200t144.5 162.5t214.5 63.5q55 0 88.5 -17.5t59.5 -47.5q8 -9 14 -9q20 0 41 60h22
q-31 -90 -65 -230h-22q6 51 6 77q0 22 -3.5 38t-12.5 33q-18 38 -54.5 58t-82.5 20q-79 0 -148.5 -66t-111 -166.5t-41.5 -195.5q0 -83 37.5 -127.5t103.5 -44.5q46 0 95 20.5t85 57.5q26 27 45 61.5t45 96.5h22q-47 -173 -59 -240h-22q3 21 3 34q0 26 -13 26q-8 0 -20 -9
q-46 -32 -89.5 -48.5t-100.5 -16.5q-110 0 -171 54.5z" />
    <glyph glyph-name="Dcaron" unicode="&#x10e;" horiz-adv-x="725" 
d="M651 924l5 -14q-72 -22 -134 -56.5t-101 -73.5h-18q-28 48 -59.5 79.5t-79.5 50.5l4 14q54 -10 87.5 -23.5t57.5 -27t32 -17.5q111 47 206 68zM642 249.5q-62 -112.5 -170.5 -181t-241.5 -68.5l-58 1q-56 2 -82 2q-81 0 -120 -3l3 20q34 2 51.5 8t28 23.5t20.5 54.5
l131 496q9 38 9 49q0 20 -14.5 28t-52.5 9l3 20q34 -3 97 -3l85 1q68 2 91 2q141 0 211.5 -56t70.5 -165q0 -125 -62 -237.5zM430 85.5q88 67.5 133 180.5t45 246q0 91 -51 134.5t-163 43.5q-31 0 -48.5 -7t-28.5 -25t-20 -54l-131 -500q-9 -36 -9 -49q0 -19 13.5 -28
t47.5 -9q124 0 212 67.5z" />
    <glyph glyph-name="dcaron" unicode="&#x10f;" horiz-adv-x="724" 
d="M623 824l5 -14q-72 -22 -134 -56.5t-101 -73.5h-18q-28 48 -59.5 79.5t-79.5 50.5l4 14q54 -10 87.5 -23.5t57.5 -27t32 -17.5q111 47 206 68zM625 189q-55 -88 -156.5 -138.5t-236.5 -50.5l-58 1q-56 2 -82 2q-81 0 -120 -3l3 20q34 2 51.5 8t28 23.5t20.5 54.5l105 396
q9 32 9 49q0 20 -14.5 28t-52.5 9l3 20q34 -3 97 -3l85 1q68 2 91 2q141 0 211.5 -56t70.5 -165q0 -110 -55 -198zM494.5 124q89.5 106 89.5 288q0 91 -51 134.5t-163 43.5q-31 0 -48.5 -7t-28.5 -25t-20 -54l-105 -400q-9 -38 -9 -50q0 -19 13.5 -27.5t47.5 -8.5
q185 0 274.5 106z" />
    <glyph glyph-name="Dcroat" unicode="&#x110;" horiz-adv-x="725" 
d="M432 341h-412l6 25h412zM642 249.5q-62 -112.5 -170.5 -181t-241.5 -68.5l-58 1q-56 2 -82 2q-81 0 -120 -3l3 20q34 2 51.5 8t28 23.5t20.5 54.5l131 496q9 38 9 49q0 20 -14.5 28t-52.5 9l3 20q34 -3 97 -3l85 1q68 2 91 2q141 0 211.5 -56t70.5 -165
q0 -125 -62 -237.5zM430 85.5q88 67.5 133 180.5t45 246q0 91 -51 134.5t-163 43.5q-31 0 -48.5 -7t-28.5 -25t-20 -54l-131 -500q-9 -36 -9 -49q0 -19 13.5 -28t47.5 -9q124 0 212 67.5z" />
    <glyph glyph-name="dcroat" unicode="&#x111;" horiz-adv-x="724" 
d="M428 294h-412l6 25h412zM625 189q-55 -88 -156.5 -138.5t-236.5 -50.5l-58 1q-56 2 -82 2q-81 0 -120 -3l3 20q34 2 51.5 8t28 23.5t20.5 54.5l105 396q9 32 9 49q0 20 -14.5 28t-52.5 9l3 20q34 -3 97 -3l85 1q68 2 91 2q141 0 211.5 -56t70.5 -165q0 -110 -55 -198z
M494.5 124q89.5 106 89.5 288q0 91 -51 134.5t-163 43.5q-31 0 -48.5 -7t-28.5 -25t-20 -54l-105 -400q-9 -38 -9 -50q0 -19 13.5 -27.5t47.5 -8.5q185 0 274.5 106z" />
    <glyph glyph-name="Emacron" unicode="&#x112;" horiz-adv-x="610" 
d="M597 819h-352l6 25h352zM642 708q-26 -72 -38 -118q-11 -36 -14 -62h-23q9 58 9 80q0 43 -22 60t-79 17h-73q-36 0 -53.5 -5.5t-28.5 -22.5t-21 -55l-63 -236h66q35 0 58 16.5t36 38.5t26 56q3 10 8 21h23q-21 -66 -35 -119l-6 -23q-14 -53 -32 -142h-23l3 20q1 7 3 22
t2 26q0 30 -15.5 47t-53.5 17h-66l-64 -240q-9 -31 -9 -49q0 -21 15 -27.5t53 -6.5h73q62 0 99 16.5t61.5 53t50.5 107.5h23q-11 -29 -22 -72q-16 -56 -27 -128q-68 3 -229 3q-192 0 -289 -3l5 20q36 2 53.5 8t28.5 23t21 55l133 496q9 32 9 49q0 21 -14.5 28t-52.5 9l5 20
q98 -3 290 -3q140 0 199 3z" />
    <glyph glyph-name="emacron" unicode="&#x113;" horiz-adv-x="619" 
d="M573 719h-352l6 25h352zM624 608q-19 -47 -36 -108q-15 -58 -17 -72h-23q9 44 9 73q0 46 -24.5 65t-82.5 19h-73q-36 0 -54 -5.5t-28.5 -22.5t-20.5 -55l-50 -186h93q45 0 69.5 31.5t43.5 80.5h23q-24 -71 -36 -122l-6 -22q-15 -57 -21 -100h-23q1 6 3 21t2 26
q0 30 -15.5 47.5t-55.5 17.5h-83l-51 -190q-9 -38 -9 -48q0 -22 14.5 -28.5t53.5 -6.5h73q55 0 91.5 17t64 55t52.5 105h23q-18 -53 -24 -82q-11 -37 -25 -118q-70 3 -235 3q-185 0 -280 -3l5 20q36 2 54 8t28.5 23t20.5 55l107 396q9 38 9 49q0 21 -14.5 28t-52.5 9l5 20
q94 -3 279 -3q151 0 217 3z" />
    <glyph glyph-name="Ebreve" unicode="&#x114;" horiz-adv-x="610" 
d="M559.5 864q60.5 15 106.5 43l10 -11q-43 -43 -116 -78.5t-132 -35.5q-62 0 -101 32.5t-50 83.5l16 5q26 -30 61 -42t91 -12q54 0 114.5 15zM642 708q-26 -72 -38 -118q-11 -36 -14 -62h-23q9 58 9 80q0 43 -22 60t-79 17h-73q-36 0 -53.5 -5.5t-28.5 -22.5t-21 -55
l-63 -236h66q35 0 58 16.5t36 38.5t26 56q3 10 8 21h23q-21 -66 -35 -119l-6 -23q-14 -53 -32 -142h-23l3 20q1 7 3 22t2 26q0 30 -15.5 47t-53.5 17h-66l-64 -240q-9 -31 -9 -49q0 -21 15 -27.5t53 -6.5h73q62 0 99 16.5t61.5 53t50.5 107.5h23q-11 -29 -22 -72
q-16 -56 -27 -128q-68 3 -229 3q-192 0 -289 -3l5 20q36 2 53.5 8t28.5 23t21 55l133 496q9 32 9 49q0 21 -14.5 28t-52.5 9l5 20q98 -3 290 -3q140 0 199 3z" />
    <glyph glyph-name="ebreve" unicode="&#x115;" horiz-adv-x="619" 
d="M532.5 764q60.5 15 106.5 43l10 -11q-43 -43 -116 -78.5t-132 -35.5q-62 0 -101 32.5t-50 83.5l16 5q26 -30 61 -42t91 -12q54 0 114.5 15zM624 608q-19 -47 -36 -108q-15 -58 -17 -72h-23q9 44 9 73q0 46 -24.5 65t-82.5 19h-73q-36 0 -54 -5.5t-28.5 -22.5t-20.5 -55
l-50 -186h93q45 0 69.5 31.5t43.5 80.5h23q-24 -71 -36 -122l-6 -22q-15 -57 -21 -100h-23q1 6 3 21t2 26q0 30 -15.5 47.5t-55.5 17.5h-83l-51 -190q-9 -38 -9 -48q0 -22 14.5 -28.5t53.5 -6.5h73q55 0 91.5 17t64 55t52.5 105h23q-18 -53 -24 -82q-11 -37 -25 -118
q-70 3 -235 3q-185 0 -280 -3l5 20q36 2 54 8t28.5 23t20.5 55l107 396q9 38 9 49q0 21 -14.5 28t-52.5 9l5 20q94 -3 279 -3q151 0 217 3z" />
    <glyph glyph-name="Edotaccent" unicode="&#x116;" horiz-adv-x="610" 
d="M416 876.5q22 23.5 52 23.5q23 0 37 -15t14 -38q0 -28 -22 -51.5t-53 -23.5q-22 0 -36 15t-14 38q0 28 22 51.5zM642 708q-26 -72 -38 -118q-11 -36 -14 -62h-23q9 58 9 80q0 43 -22 60t-79 17h-73q-36 0 -53.5 -5.5t-28.5 -22.5t-21 -55l-63 -236h66q35 0 58 16.5
t36 38.5t26 56q3 10 8 21h23q-21 -66 -35 -119l-6 -23q-14 -53 -32 -142h-23l3 20q1 7 3 22t2 26q0 30 -15.5 47t-53.5 17h-66l-64 -240q-9 -31 -9 -49q0 -21 15 -27.5t53 -6.5h73q62 0 99 16.5t61.5 53t50.5 107.5h23q-11 -29 -22 -72q-16 -56 -27 -128q-68 3 -229 3
q-192 0 -289 -3l5 20q36 2 53.5 8t28.5 23t21 55l133 496q9 32 9 49q0 21 -14.5 28t-52.5 9l5 20q98 -3 290 -3q140 0 199 3z" />
    <glyph glyph-name="edotaccent" unicode="&#x117;" horiz-adv-x="619" 
d="M384 776.5q22 23.5 52 23.5q23 0 37 -15t14 -38q0 -28 -22 -51.5t-53 -23.5q-22 0 -36 15t-14 38q0 28 22 51.5zM624 608q-19 -47 -36 -108q-15 -58 -17 -72h-23q9 44 9 73q0 46 -24.5 65t-82.5 19h-73q-36 0 -54 -5.5t-28.5 -22.5t-20.5 -55l-50 -186h93q45 0 69.5 31.5
t43.5 80.5h23q-24 -71 -36 -122l-6 -22q-15 -57 -21 -100h-23q1 6 3 21t2 26q0 30 -15.5 47.5t-55.5 17.5h-83l-51 -190q-9 -38 -9 -48q0 -22 14.5 -28.5t53.5 -6.5h73q55 0 91.5 17t64 55t52.5 105h23q-18 -53 -24 -82q-11 -37 -25 -118q-70 3 -235 3q-185 0 -280 -3l5 20
q36 2 54 8t28.5 23t20.5 55l107 396q9 38 9 49q0 21 -14.5 28t-52.5 9l5 20q94 -3 279 -3q151 0 217 3z" />
    <glyph glyph-name="Eogonek" unicode="&#x118;" horiz-adv-x="610" 
d="M397 -37.5q-36 -27.5 -36 -65.5q0 -37 39 -37q19 0 41 8t36 18l11 -17q-60 -57 -129 -57q-36 0 -55 15.5t-19 42.5q0 45 47.5 79t108.5 54h38q-46 -13 -82 -40.5zM642 708q-26 -72 -38 -118q-11 -36 -14 -62h-23q9 58 9 80q0 43 -22 60t-79 17h-73q-36 0 -53.5 -5.5
t-28.5 -22.5t-21 -55l-63 -236h66q35 0 58 16.5t36 38.5t26 56q3 10 8 21h23q-21 -66 -35 -119l-6 -23q-14 -53 -32 -142h-23l3 20q1 7 3 22t2 26q0 30 -15.5 47t-53.5 17h-66l-64 -240q-9 -31 -9 -49q0 -21 15 -27.5t53 -6.5h73q62 0 99 16.5t61.5 53t50.5 107.5h23
q-11 -29 -22 -72q-16 -56 -27 -128q-68 3 -229 3q-192 0 -289 -3l5 20q36 2 53.5 8t28.5 23t21 55l133 496q9 32 9 49q0 21 -14.5 28t-52.5 9l5 20q98 -3 290 -3q140 0 199 3z" />
    <glyph glyph-name="eogonek" unicode="&#x119;" horiz-adv-x="619" 
d="M379 -37.5q-36 -27.5 -36 -65.5q0 -37 39 -37q19 0 41 8t36 18l11 -17q-60 -57 -129 -57q-36 0 -55 15.5t-19 42.5q0 45 47.5 79t108.5 54h38q-46 -13 -82 -40.5zM624 608q-19 -47 -36 -108q-15 -58 -17 -72h-23q9 44 9 73q0 46 -24.5 65t-82.5 19h-73q-36 0 -54 -5.5
t-28.5 -22.5t-20.5 -55l-50 -186h93q45 0 69.5 31.5t43.5 80.5h23q-24 -71 -36 -122l-6 -22q-15 -57 -21 -100h-23q1 6 3 21t2 26q0 30 -15.5 47.5t-55.5 17.5h-83l-51 -190q-9 -38 -9 -48q0 -22 14.5 -28.5t53.5 -6.5h73q55 0 91.5 17t64 55t52.5 105h23q-18 -53 -24 -82
q-11 -37 -25 -118q-70 3 -235 3q-185 0 -280 -3l5 20q36 2 54 8t28.5 23t20.5 55l107 396q9 38 9 49q0 21 -14.5 28t-52.5 9l5 20q94 -3 279 -3q151 0 217 3z" />
    <glyph glyph-name="Ecaron" unicode="&#x11a;" horiz-adv-x="610" 
d="M661 924l5 -14q-72 -22 -134 -56.5t-101 -73.5h-18q-28 48 -59.5 79.5t-79.5 50.5l4 14q54 -10 87.5 -23.5t57.5 -27t32 -17.5q111 47 206 68zM642 708q-26 -72 -38 -118q-11 -36 -14 -62h-23q9 58 9 80q0 43 -22 60t-79 17h-73q-36 0 -53.5 -5.5t-28.5 -22.5t-21 -55
l-63 -236h66q35 0 58 16.5t36 38.5t26 56q3 10 8 21h23q-21 -66 -35 -119l-6 -23q-14 -53 -32 -142h-23l3 20q1 7 3 22t2 26q0 30 -15.5 47t-53.5 17h-66l-64 -240q-9 -31 -9 -49q0 -21 15 -27.5t53 -6.5h73q62 0 99 16.5t61.5 53t50.5 107.5h23q-11 -29 -22 -72
q-16 -56 -27 -128q-68 3 -229 3q-192 0 -289 -3l5 20q36 2 53.5 8t28.5 23t21 55l133 496q9 32 9 49q0 21 -14.5 28t-52.5 9l5 20q98 -3 290 -3q140 0 199 3z" />
    <glyph glyph-name="ecaron" unicode="&#x11b;" horiz-adv-x="619" 
d="M639 824l5 -14q-72 -22 -134 -56.5t-101 -73.5h-18q-28 48 -59.5 79.5t-79.5 50.5l4 14q54 -10 87.5 -23.5t57.5 -27t32 -17.5q111 47 206 68zM624 608q-19 -47 -36 -108q-15 -58 -17 -72h-23q9 44 9 73q0 46 -24.5 65t-82.5 19h-73q-36 0 -54 -5.5t-28.5 -22.5
t-20.5 -55l-50 -186h93q45 0 69.5 31.5t43.5 80.5h23q-24 -71 -36 -122l-6 -22q-15 -57 -21 -100h-23q1 6 3 21t2 26q0 30 -15.5 47.5t-55.5 17.5h-83l-51 -190q-9 -38 -9 -48q0 -22 14.5 -28.5t53.5 -6.5h73q55 0 91.5 17t64 55t52.5 105h23q-18 -53 -24 -82
q-11 -37 -25 -118q-70 3 -235 3q-185 0 -280 -3l5 20q36 2 54 8t28.5 23t20.5 55l107 396q9 38 9 49q0 21 -14.5 28t-52.5 9l5 20q94 -3 279 -3q151 0 217 3z" />
    <glyph glyph-name="Gcircumflex" unicode="&#x11c;" horiz-adv-x="705" 
d="M296 772l-5 14q72 22 134 56.5t101 73.5h18q28 -48 59.5 -79.5t79.5 -50.5l-4 -14q-54 10 -87.5 23.5t-57.5 27t-32 17.5q-111 -47 -206 -68zM378.5 15q29.5 9 51.5 22q20 12 30 27t16 36l23 88q9 33 9 52q0 25 -18 33.5t-66 10.5l5 20q53 -3 140 -3q69 0 105 3l-5 -20
q-24 -2 -35.5 -8t-20 -22.5t-18.5 -55.5l-53 -198h-20q3 12 3 26q0 31 -15 31q-6 0 -13.5 -3t-24.5 -14q-42 -26 -83 -40t-87 -14q-122 0 -187 59.5t-65 169.5q0 116 56.5 234t157 195.5t224.5 77.5q60 0 95.5 -16.5t68.5 -48.5q9 -9 17 -9q10 0 19.5 14t20.5 46h22
q-33 -86 -64 -230h-22q5 43 5 75q0 46 -14 73q-21 37 -62 57.5t-92 20.5q-103 0 -180.5 -87t-118 -210t-40.5 -225q0 -90 42.5 -133t130.5 -43q33 0 62.5 9z" />
    <glyph glyph-name="gcircumflex" unicode="&#x11d;" horiz-adv-x="697" 
d="M259 672l-5 14q72 22 134 56.5t101 73.5h18q28 -48 59.5 -79.5t79.5 -50.5l-4 -14q-54 10 -87.5 23.5t-57.5 27t-32 17.5q-111 -47 -206 -68zM514 0q3 11 3 22q0 25 -15 25q-16 0 -53 -23q-33 -20 -69.5 -29t-85.5 -9q-123 0 -187.5 54t-64.5 155q0 98 50 197.5
t143.5 164.5t216.5 65q60 0 95.5 -16.5t68.5 -48.5q9 -9 17 -9q10 0 19.5 14t20.5 46h22q-32 -92 -64 -230h-22q5 43 5 75q0 46 -14 73q-21 37 -62 57.5t-92 20.5q-102 0 -172.5 -75.5t-104.5 -179.5t-34 -187q0 -79 42.5 -117.5t130.5 -38.5q50 0 98.5 19t59.5 61l18 67
q9 33 9 52q0 25 -18 33.5t-66 10.5l4 20q53 -3 141 -3q68 0 104 3l-4 -20q-25 -2 -37 -8t-20.5 -22.5t-18.5 -55.5l-44 -163h-20z" />
    <glyph glyph-name="Gbreve" unicode="&#x11e;" horiz-adv-x="705" 
d="M627.5 864q60.5 15 106.5 43l10 -11q-43 -43 -116 -78.5t-132 -35.5q-62 0 -101 32.5t-50 83.5l16 5q26 -30 61 -42t91 -12q54 0 114.5 15zM378.5 15q29.5 9 51.5 22q20 12 30 27t16 36l23 88q9 33 9 52q0 25 -18 33.5t-66 10.5l5 20q53 -3 140 -3q69 0 105 3l-5 -20
q-24 -2 -35.5 -8t-20 -22.5t-18.5 -55.5l-53 -198h-20q3 12 3 26q0 31 -15 31q-6 0 -13.5 -3t-24.5 -14q-42 -26 -83 -40t-87 -14q-122 0 -187 59.5t-65 169.5q0 116 56.5 234t157 195.5t224.5 77.5q60 0 95.5 -16.5t68.5 -48.5q9 -9 17 -9q10 0 19.5 14t20.5 46h22
q-33 -86 -64 -230h-22q5 43 5 75q0 46 -14 73q-21 37 -62 57.5t-92 20.5q-103 0 -180.5 -87t-118 -210t-40.5 -225q0 -90 42.5 -133t130.5 -43q33 0 62.5 9z" />
    <glyph glyph-name="gbreve" unicode="&#x11f;" horiz-adv-x="697" 
d="M583.5 764q60.5 15 106.5 43l10 -11q-43 -43 -116 -78.5t-132 -35.5q-62 0 -101 32.5t-50 83.5l16 5q26 -30 61 -42t91 -12q54 0 114.5 15zM514 0q3 11 3 22q0 25 -15 25q-16 0 -53 -23q-33 -20 -69.5 -29t-85.5 -9q-123 0 -187.5 54t-64.5 155q0 98 50 197.5
t143.5 164.5t216.5 65q60 0 95.5 -16.5t68.5 -48.5q9 -9 17 -9q10 0 19.5 14t20.5 46h22q-32 -92 -64 -230h-22q5 43 5 75q0 46 -14 73q-21 37 -62 57.5t-92 20.5q-102 0 -172.5 -75.5t-104.5 -179.5t-34 -187q0 -79 42.5 -117.5t130.5 -38.5q50 0 98.5 19t59.5 61l18 67
q9 33 9 52q0 25 -18 33.5t-66 10.5l4 20q53 -3 141 -3q68 0 104 3l-4 -20q-25 -2 -37 -8t-20.5 -22.5t-18.5 -55.5l-44 -163h-20z" />
    <glyph glyph-name="Gdotaccent" unicode="&#x120;" horiz-adv-x="705" 
d="M484 876.5q22 23.5 52 23.5q23 0 37 -15t14 -38q0 -28 -22 -51.5t-53 -23.5q-22 0 -36 15t-14 38q0 28 22 51.5zM378.5 15q29.5 9 51.5 22q20 12 30 27t16 36l23 88q9 33 9 52q0 25 -18 33.5t-66 10.5l5 20q53 -3 140 -3q69 0 105 3l-5 -20q-24 -2 -35.5 -8t-20 -22.5
t-18.5 -55.5l-53 -198h-20q3 12 3 26q0 31 -15 31q-6 0 -13.5 -3t-24.5 -14q-42 -26 -83 -40t-87 -14q-122 0 -187 59.5t-65 169.5q0 116 56.5 234t157 195.5t224.5 77.5q60 0 95.5 -16.5t68.5 -48.5q9 -9 17 -9q10 0 19.5 14t20.5 46h22q-33 -86 -64 -230h-22q5 43 5 75
q0 46 -14 73q-21 37 -62 57.5t-92 20.5q-103 0 -180.5 -87t-118 -210t-40.5 -225q0 -90 42.5 -133t130.5 -43q33 0 62.5 9z" />
    <glyph glyph-name="gdotaccent" unicode="&#x121;" horiz-adv-x="697" 
d="M435 776.5q22 23.5 52 23.5q23 0 37 -15t14 -38q0 -28 -22 -51.5t-53 -23.5q-22 0 -36 15t-14 38q0 28 22 51.5zM514 0q3 11 3 22q0 25 -15 25q-16 0 -53 -23q-33 -20 -69.5 -29t-85.5 -9q-123 0 -187.5 54t-64.5 155q0 98 50 197.5t143.5 164.5t216.5 65
q60 0 95.5 -16.5t68.5 -48.5q9 -9 17 -9q10 0 19.5 14t20.5 46h22q-32 -92 -64 -230h-22q5 43 5 75q0 46 -14 73q-21 37 -62 57.5t-92 20.5q-102 0 -172.5 -75.5t-104.5 -179.5t-34 -187q0 -79 42.5 -117.5t130.5 -38.5q50 0 98.5 19t59.5 61l18 67q9 33 9 52q0 25 -18 33.5
t-66 10.5l4 20q53 -3 141 -3q68 0 104 3l-4 -20q-25 -2 -37 -8t-20.5 -22.5t-18.5 -55.5l-44 -163h-20z" />
    <glyph glyph-name="Gcommaaccent" unicode="&#x122;" horiz-adv-x="705" 
d="M333.5 -85.5q14.5 -16.5 14.5 -41.5q0 -37 -21 -66t-77 -48l-7 17q27 8 49.5 25t24.5 39q-8 -7 -20 -11.5t-24 -4.5q-20 0 -32.5 11t-12.5 31q0 24 18 44.5t47 20.5q26 0 40.5 -16.5zM378.5 15q29.5 9 51.5 22q20 12 30 27t16 36l23 88q9 33 9 52q0 25 -18 33.5t-66 10.5
l5 20q53 -3 140 -3q69 0 105 3l-5 -20q-24 -2 -35.5 -8t-20 -22.5t-18.5 -55.5l-53 -198h-20q3 12 3 26q0 31 -15 31q-6 0 -13.5 -3t-24.5 -14q-42 -26 -83 -40t-87 -14q-122 0 -187 59.5t-65 169.5q0 116 56.5 234t157 195.5t224.5 77.5q60 0 95.5 -16.5t68.5 -48.5
q9 -9 17 -9q10 0 19.5 14t20.5 46h22q-33 -86 -64 -230h-22q5 43 5 75q0 46 -14 73q-21 37 -62 57.5t-92 20.5q-103 0 -180.5 -87t-118 -210t-40.5 -225q0 -90 42.5 -133t130.5 -43q33 0 62.5 9z" />
    <glyph glyph-name="gcommaaccent" unicode="&#x123;" horiz-adv-x="697" 
d="M323.5 -85.5q14.5 -16.5 14.5 -41.5q0 -37 -21 -66t-77 -48l-7 17q27 8 49.5 25t24.5 39q-8 -7 -20 -11.5t-24 -4.5q-20 0 -32.5 11t-12.5 31q0 24 18 44.5t47 20.5q26 0 40.5 -16.5zM514 0q3 11 3 22q0 25 -15 25q-16 0 -53 -23q-33 -20 -69.5 -29t-85.5 -9
q-123 0 -187.5 54t-64.5 155q0 98 50 197.5t143.5 164.5t216.5 65q60 0 95.5 -16.5t68.5 -48.5q9 -9 17 -9q10 0 19.5 14t20.5 46h22q-32 -92 -64 -230h-22q5 43 5 75q0 46 -14 73q-21 37 -62 57.5t-92 20.5q-102 0 -172.5 -75.5t-104.5 -179.5t-34 -187q0 -79 42.5 -117.5
t130.5 -38.5q50 0 98.5 19t59.5 61l18 67q9 33 9 52q0 25 -18 33.5t-66 10.5l4 20q53 -3 141 -3q68 0 104 3l-4 -20q-25 -2 -37 -8t-20.5 -22.5t-18.5 -55.5l-44 -163h-20z" />
    <glyph glyph-name="Hcircumflex" unicode="&#x124;" horiz-adv-x="755" 
d="M295 772l-5 14q72 22 134 56.5t101 73.5h18q28 -48 59.5 -79.5t79.5 -50.5l-4 -14q-54 10 -87.5 23.5t-57.5 27t-32 17.5q-111 -47 -206 -68zM820 708l-5 -20q-37 -2 -54.5 -8t-28 -23t-20.5 -55l-132 -496q-9 -38 -9 -49q0 -21 14.5 -28t53.5 -9l-4 -20q-42 3 -128 3
q-80 0 -127 -3l4 20q36 2 54 8t28.5 23t20.5 55l64 240h-321l-64 -240q-9 -38 -9 -49q0 -21 14.5 -28t53.5 -9l-4 -20q-46 3 -127 3q-84 0 -127 -3l5 20q35 2 52.5 8t28 23.5t20.5 54.5l132 496q8 34 8 48q0 22 -14.5 29t-52.5 9l5 20q41 -3 127 -3q80 0 128 3l-5 -20
q-37 -2 -54.5 -8t-28 -23t-20.5 -55l-63 -236h321l63 236q9 32 9 48q0 22 -15 29t-53 9l5 20q45 -3 126 -3q86 0 129 3z" />
    <glyph glyph-name="hcircumflex" unicode="&#x125;" horiz-adv-x="758" 
d="M278 672l-5 14q72 22 134 56.5t101 73.5h18q28 -48 59.5 -79.5t79.5 -50.5l-4 -14q-54 10 -87.5 23.5t-57.5 27t-32 17.5q-111 -47 -206 -68zM795 608l-5 -20q-37 -2 -54.5 -8t-28 -23t-20.5 -55l-105 -396q-9 -38 -9 -49q0 -21 14.5 -28t53.5 -9l-4 -20q-42 3 -128 3
q-80 0 -127 -3l4 20q36 2 54 8t28.5 23t20.5 55l50 190h-321l-50 -190q-9 -38 -9 -49q0 -21 14.5 -28t53.5 -9l-4 -20q-46 3 -127 3q-83 0 -127 -3l5 20q35 2 52.5 8t28 23.5t20.5 54.5l105 396q8 34 8 48q0 22 -14.5 29t-52.5 9l5 20q41 -3 127 -3q80 0 128 3l-5 -20
q-37 -2 -54.5 -8t-28 -23t-20.5 -55l-49 -186h321l49 186q9 32 9 48q0 22 -15 29t-53 9l5 20q45 -3 126 -3q85 0 129 3z" />
    <glyph glyph-name="Hbar" unicode="&#x126;" horiz-adv-x="755" 
d="M812 513h-753l5 20h753zM820 708l-5 -20q-37 -2 -54.5 -8t-28 -23t-20.5 -55l-132 -496q-9 -38 -9 -49q0 -21 14.5 -28t53.5 -9l-4 -20q-42 3 -128 3q-80 0 -127 -3l4 20q36 2 54 8t28.5 23t20.5 55l64 240h-321l-64 -240q-9 -38 -9 -49q0 -21 14.5 -28t53.5 -9l-4 -20
q-46 3 -127 3q-84 0 -127 -3l5 20q35 2 52.5 8t28 23.5t20.5 54.5l132 496q8 34 8 48q0 22 -14.5 29t-52.5 9l5 20q41 -3 127 -3q80 0 128 3l-5 -20q-37 -2 -54.5 -8t-28 -23t-20.5 -55l-63 -236h321l63 236q9 32 9 48q0 22 -15 29t-53 9l5 20q45 -3 126 -3q86 0 129 3z" />
    <glyph glyph-name="hbar" unicode="&#x127;" horiz-adv-x="758" 
d="M806 434h-753l5 20h753zM795 608l-5 -20q-37 -2 -54.5 -8t-28 -23t-20.5 -55l-105 -396q-9 -38 -9 -49q0 -21 14.5 -28t53.5 -9l-4 -20q-42 3 -128 3q-80 0 -127 -3l4 20q36 2 54 8t28.5 23t20.5 55l50 190h-321l-50 -190q-9 -38 -9 -49q0 -21 14.5 -28t53.5 -9l-4 -20
q-46 3 -127 3q-83 0 -127 -3l5 20q35 2 52.5 8t28 23.5t20.5 54.5l105 396q8 34 8 48q0 22 -14.5 29t-52.5 9l5 20q41 -3 127 -3q80 0 128 3l-5 -20q-37 -2 -54.5 -8t-28 -23t-20.5 -55l-49 -186h321l49 186q9 32 9 48q0 22 -15 29t-53 9l5 20q45 -3 126 -3q85 0 129 3z" />
    <glyph glyph-name="Itilde" unicode="&#x128;" horiz-adv-x="341" 
d="M300 885q21 -10 47 -30q21 -17 36.5 -25t36.5 -8q38 0 70 58l18 -5q-22 -52 -57 -77.5t-73 -25.5q-32 0 -53 10t-47 30q-21 17 -36.5 25t-36.5 8q-38 0 -70 -58l-18 5q22 52 57 77.5t73 25.5q32 0 53 -10zM157 57q0 -21 14.5 -28t53.5 -9l-4 -20q-46 3 -127 3
q-84 0 -127 -3l5 20q35 2 52.5 8t28 23.5t20.5 54.5l132 496q8 34 8 48q0 22 -14.5 29t-52.5 9l5 20q41 -3 127 -3q80 0 128 3l-5 -20q-37 -2 -54.5 -8t-28 -23t-20.5 -55l-132 -496q-9 -38 -9 -49z" />
    <glyph glyph-name="itilde" unicode="&#x129;" horiz-adv-x="344" 
d="M276 785q21 -10 47 -30q21 -17 36.5 -25t36.5 -8q38 0 70 58l18 -5q-22 -52 -57 -77.5t-73 -25.5q-32 0 -53 10t-47 30q-21 17 -36.5 25t-36.5 8q-38 0 -70 -58l-18 5q22 52 57 77.5t73 25.5q32 0 53 -10zM159 57q0 -21 14.5 -28t53.5 -9l-4 -20q-46 3 -127 3
q-83 0 -127 -3l5 20q35 2 52.5 8t28 23.5t20.5 54.5l105 396q8 34 8 48q0 22 -14.5 29t-52.5 9l5 20q41 -3 127 -3q80 0 128 3l-5 -20q-37 -2 -54.5 -8t-28 -23t-20.5 -55l-105 -396q-9 -38 -9 -49z" />
    <glyph glyph-name="Imacron" unicode="&#x12a;" horiz-adv-x="341" 
d="M459 819h-352l6 25h352zM157 57q0 -21 14.5 -28t53.5 -9l-4 -20q-46 3 -127 3q-84 0 -127 -3l5 20q35 2 52.5 8t28 23.5t20.5 54.5l132 496q8 34 8 48q0 22 -14.5 29t-52.5 9l5 20q41 -3 127 -3q80 0 128 3l-5 -20q-37 -2 -54.5 -8t-28 -23t-20.5 -55l-132 -496
q-9 -38 -9 -49z" />
    <glyph glyph-name="imacron" unicode="&#x12b;" horiz-adv-x="344" 
d="M438 719h-352l6 25h352zM159 57q0 -21 14.5 -28t53.5 -9l-4 -20q-46 3 -127 3q-83 0 -127 -3l5 20q35 2 52.5 8t28 23.5t20.5 54.5l105 396q8 34 8 48q0 22 -14.5 29t-52.5 9l5 20q41 -3 127 -3q80 0 128 3l-5 -20q-37 -2 -54.5 -8t-28 -23t-20.5 -55l-105 -396
q-9 -38 -9 -49z" />
    <glyph glyph-name="Ibreve" unicode="&#x12c;" horiz-adv-x="341" 
d="M421.5 864q60.5 15 106.5 43l10 -11q-43 -43 -116 -78.5t-132 -35.5q-62 0 -101 32.5t-50 83.5l16 5q26 -30 61 -42t91 -12q54 0 114.5 15zM157 57q0 -21 14.5 -28t53.5 -9l-4 -20q-46 3 -127 3q-84 0 -127 -3l5 20q35 2 52.5 8t28 23.5t20.5 54.5l132 496q8 34 8 48
q0 22 -14.5 29t-52.5 9l5 20q41 -3 127 -3q80 0 128 3l-5 -20q-37 -2 -54.5 -8t-28 -23t-20.5 -55l-132 -496q-9 -38 -9 -49z" />
    <glyph glyph-name="ibreve" unicode="&#x12d;" horiz-adv-x="344" 
d="M397.5 764q60.5 15 106.5 43l10 -11q-43 -43 -116 -78.5t-132 -35.5q-62 0 -101 32.5t-50 83.5l16 5q26 -30 61 -42t91 -12q54 0 114.5 15zM159 57q0 -21 14.5 -28t53.5 -9l-4 -20q-46 3 -127 3q-83 0 -127 -3l5 20q35 2 52.5 8t28 23.5t20.5 54.5l105 396q8 34 8 48
q0 22 -14.5 29t-52.5 9l5 20q41 -3 127 -3q80 0 128 3l-5 -20q-37 -2 -54.5 -8t-28 -23t-20.5 -55l-105 -396q-9 -38 -9 -49z" />
    <glyph glyph-name="Iogonek" unicode="&#x12e;" horiz-adv-x="341" 
d="M149 -37.5q-36 -27.5 -36 -65.5q0 -37 39 -37q19 0 41 8t36 18l11 -17q-60 -57 -129 -57q-36 0 -55 15.5t-19 42.5q0 45 47.5 79t108.5 54h38q-46 -13 -82 -40.5zM157 57q0 -21 14.5 -28t53.5 -9l-4 -20q-46 3 -127 3q-84 0 -127 -3l5 20q35 2 52.5 8t28 23.5t20.5 54.5
l132 496q8 34 8 48q0 22 -14.5 29t-52.5 9l5 20q41 -3 127 -3q80 0 128 3l-5 -20q-37 -2 -54.5 -8t-28 -23t-20.5 -55l-132 -496q-9 -38 -9 -49z" />
    <glyph glyph-name="iogonek" unicode="&#x12f;" horiz-adv-x="344" 
d="M141 -37.5q-36 -27.5 -36 -65.5q0 -37 39 -37q19 0 41 8t36 18l11 -17q-60 -57 -129 -57q-36 0 -55 15.5t-19 42.5q0 45 47.5 79t108.5 54h38q-46 -13 -82 -40.5zM159 57q0 -21 14.5 -28t53.5 -9l-4 -20q-46 3 -127 3q-83 0 -127 -3l5 20q35 2 52.5 8t28 23.5t20.5 54.5
l105 396q8 34 8 48q0 22 -14.5 29t-52.5 9l5 20q41 -3 127 -3q80 0 128 3l-5 -20q-37 -2 -54.5 -8t-28 -23t-20.5 -55l-105 -396q-9 -38 -9 -49z" />
    <glyph glyph-name="Idotaccent" unicode="&#x130;" horiz-adv-x="341" 
d="M278 876.5q22 23.5 52 23.5q23 0 37 -15t14 -38q0 -28 -22 -51.5t-53 -23.5q-22 0 -36 15t-14 38q0 28 22 51.5zM157 57q0 -21 14.5 -28t53.5 -9l-4 -20q-46 3 -127 3q-84 0 -127 -3l5 20q35 2 52.5 8t28 23.5t20.5 54.5l132 496q8 34 8 48q0 22 -14.5 29t-52.5 9l5 20
q41 -3 127 -3q80 0 128 3l-5 -20q-37 -2 -54.5 -8t-28 -23t-20.5 -55l-132 -496q-9 -38 -9 -49z" />
    <glyph glyph-name="dotlessi" unicode="&#x131;" horiz-adv-x="302" 
d="M166 466q0 25 -22 25q-23 0 -41 -24t-38 -78l-14 -37h-19l26 73q20 57 53.5 80t70.5 23q66 0 66 -63q0 -33 -16 -77l-107 -303q-8 -24 -8 -37q0 -25 24 -25q21 0 39 23t39 79l14 37h19l-26 -73q-20 -55 -52.5 -79t-70.5 -24q-70 0 -70 61q0 29 18 79l107 303q8 24 8 37z
" />
    <glyph glyph-name="IJ" unicode="&#x132;" horiz-adv-x="798" 
d="M905 717q0 -23 -72 -51q-62 -52 -97.5 -121t-61.5 -179h108l-4 -20h-109l-1 -6l-61 -275q-24 -111 -81 -182t-146 -71q-48 0 -76 15t-28 44q0 21 15 38t38 17q19 0 31.5 -13t12.5 -30q0 -16 -10.5 -29t-27.5 -21q15 -5 35 -5q46 0 74.5 34.5t44 86.5t34.5 143q2 14 11 53
l32 150q7 33 13 51h-122l4 20h124q21 65 52 113t67 83t97 87l16 14q-115 -60 -196 -60q-49 0 -90 7t-98 21q-59 14 -99.5 21t-90.5 7q-43 0 -68 -16t-25 -47q0 -42 46.5 -60.5t104.5 -18.5q32 0 66.5 10t63.5 29l8 -15q-32 -22 -85 -36l-116 -399q-9 -30 -9 -49
q0 -20 15 -28t53 -9l-4 -20q-46 3 -127 3q-83 0 -127 -3l5 20q35 2 52 8.5t27.5 23t21.5 54.5l114 392q-63 5 -107 32t-44 82q0 54 41 90.5t103 36.5q54 0 98 -13.5t102 -40.5q61 -27 103 -40t94 -13q46 0 81.5 10t93.5 35q36 58 61 58q8 0 13 -5q7 -7 7 -13z" />
    <glyph glyph-name="ij" unicode="&#x133;" horiz-adv-x="818" 
d="M882 608q0 -24 -73 -52q-62 -51 -98 -118.5t-71 -181.5h100l-3 -20h-103l-2 -6l-70 -235q-24 -80 -85 -131.5t-151 -51.5q-46 0 -74 14.5t-28 42.5q0 22 16 39.5t39 17.5q18 0 30 -12t12 -30q0 -16 -11.5 -29.5t-28.5 -21.5q15 -5 35 -5q49 0 78 24t46.5 65.5t42.5 126.5
l9 31l33 110q6 22 17 51h-126l3 20h131q27 68 62 117.5t72.5 85t107.5 94.5q-127 -60 -218 -60q-47 0 -85 7t-91 21t-91.5 21t-85.5 7q-43 0 -68 -16t-25 -47q0 -42 46.5 -60.5t104.5 -18.5q37 0 76.5 7.5t73.5 21.5l5 -15q-57 -25 -126 -32l-84 -283q-9 -31 -9 -48
q0 -21 15 -28.5t53 -9.5l-4 -20q-46 3 -127 3q-83 0 -127 -3l5 20q35 2 52 8.5t27.5 23t21.5 54.5l85 285q-56 8 -93 34.5t-37 76.5q0 54 41 90.5t103 36.5q51 0 92.5 -13.5t95.5 -40.5q53 -26 94 -39.5t91 -13.5q51 0 90.5 10t106.5 35q38 58 63 58q8 0 13 -5q6 -4 6 -12z
" />
    <glyph glyph-name="Jcircumflex" unicode="&#x134;" horiz-adv-x="636" 
d="M288 772l-5 14q72 22 134 56.5t101 73.5h18q28 -48 59.5 -79.5t79.5 -50.5l-4 -14q-54 10 -87.5 23.5t-57.5 27t-32 17.5q-111 -47 -206 -68zM743 718q0 -24 -73 -52q-140 -93 -208 -300h99l-3 -20h-102q-8 -26 -11 -39l-62 -242q-29 -112 -88 -182.5t-148 -70.5
q-47 0 -74.5 14.5t-27.5 42.5q0 22 16 39.5t39 17.5q18 0 30 -12t12 -30q0 -16 -11.5 -29.5t-28.5 -21.5q15 -5 35 -5q45 0 74.5 34t47 85t39.5 141q4 19 14 57l30 117q13 48 28 84h-133l3 20h138q42 91 107 157t168 140q-116 -60 -198 -60q-32 0 -58.5 7t-63.5 21
q-39 14 -65 21t-59 7q-32 0 -48.5 -16t-16.5 -45q0 -64 74 -78l-3 -20q-47 8 -78.5 37.5t-31.5 85.5q0 51 31 83.5t85 32.5q37 0 66.5 -14t66.5 -40q38 -27 66.5 -40t63.5 -13q46 0 82 10t95 35q38 58 63 58q8 0 13 -5q6 -6 6 -12z" />
    <glyph glyph-name="jcircumflex" unicode="&#x135;" horiz-adv-x="615" 
d="M231 672l-5 14q72 22 134 56.5t101 73.5h18q28 -48 59.5 -79.5t79.5 -50.5l-4 -14q-54 10 -87.5 23.5t-57.5 27t-32 17.5q-111 -47 -206 -68zM679 608q0 -24 -73 -52q-62 -51 -98 -118.5t-71 -181.5h100l-3 -20h-103l-2 -6l-70 -235q-24 -80 -85 -131.5t-151 -51.5
q-46 0 -74 14.5t-28 42.5q0 22 16 39.5t39 17.5q18 0 30 -12t12 -30q0 -16 -11.5 -29.5t-28.5 -21.5q15 -5 35 -5q49 0 78 24t46.5 65.5t42.5 126.5l9 31l33 110q6 22 17 51h-126l3 20h131q27 68 62 117.5t72.5 85t107.5 94.5q-47 -28 -88 -44t-80 -16q-31 0 -57 7t-60 21
q-36 14 -62 21t-57 7q-32 0 -48.5 -16t-16.5 -45q0 -64 74 -78l-3 -20q-47 8 -78.5 37.5t-31.5 85.5q0 51 31 83.5t85 32.5q35 0 63.5 -13.5t64.5 -40.5q36 -26 63.5 -39.5t61.5 -13.5q38 0 69 10.5t78 34.5q38 58 63 58q8 0 13 -5q6 -4 6 -12z" />
    <glyph glyph-name="Kcommaaccent" unicode="&#x136;" horiz-adv-x="675" 
d="M285.5 -85.5q14.5 -16.5 14.5 -41.5q0 -37 -21 -66t-77 -48l-7 17q27 8 49.5 25t24.5 39q-8 -7 -20 -11.5t-24 -4.5q-20 0 -32.5 11t-12.5 31q0 24 18 44.5t47 20.5q26 0 40.5 -16.5zM692.5 707q14.5 -15 14.5 -39q0 -22 -14.5 -45.5t-43.5 -23.5q-20 0 -29.5 11.5
t-9.5 28.5q0 14 9 31.5t23 30.5h-3q-20 -1 -36 -14q-17 -15 -28.5 -40.5t-29.5 -75.5q-21 -59 -40 -97.5t-52 -68t-83 -36.5q37 -8 59 -21.5t34 -47t10 -95.5l-4 -113q-1 -26 4.5 -38.5t25.5 -12.5q25 0 42.5 18.5t31.5 59.5l17 51h20l-26 -77q-19 -55 -49 -81t-73 -26
q-92 0 -84 116l7 113q1 13 1 36q0 46 -9 69t-28 38q-37 -9 -57 -9q-31 0 -31 20t30 20q22 0 61 -10q51 6 83.5 34.5t50 65.5t38.5 96q18 52 31 79.5t33 44.5q29 23 60 23q30 0 44.5 -15zM157 57q0 -21 14.5 -28t53.5 -9l-4 -20q-46 3 -127 3q-84 0 -127 -3l5 20q35 2 52.5 8
t28 23.5t20.5 54.5l132 496q8 34 8 48q0 22 -14.5 29t-52.5 9l5 20q41 -3 127 -3q80 0 128 3l-5 -20q-37 -2 -54.5 -8t-28 -23t-20.5 -55l-132 -496q-9 -38 -9 -49z" />
    <glyph glyph-name="kcommaaccent" unicode="&#x137;" horiz-adv-x="674" 
d="M300.5 -85.5q14.5 -16.5 14.5 -41.5q0 -37 -21 -66t-77 -48l-7 17q27 8 49.5 25t24.5 39q-8 -7 -20 -11.5t-24 -4.5q-20 0 -32.5 11t-12.5 31q0 24 18 44.5t47 20.5q26 0 40.5 -16.5zM649.5 607q14.5 -15 14.5 -39q0 -22 -14.5 -45.5t-43.5 -23.5q-20 0 -29.5 11.5
t-9.5 28.5q0 14 9 31.5t23 30.5h-3q-12 0 -19.5 -3t-16.5 -11q-15 -14 -25 -36.5t-25 -63.5q-19 -51 -34.5 -83t-43 -57t-69.5 -31q57 -12 84 -46t23 -104l-2 -86q-1 -18 9 -28.5t24 -10.5q25 0 42.5 18.5t31.5 59.5l17 51h20l-26 -77q-19 -55 -49 -81t-73 -26
q-42 0 -63.5 24.5t-21.5 70.5q0 14 1 21l6 74q1 9 1 25q0 40 -11.5 68.5t-31.5 38.5q-44 -11 -64 -11q-32 0 -32 19t31 19q23 0 63 -10q44 4 71.5 27.5t42.5 55t32 81.5q14 42 26.5 68t30.5 42q29 23 60 23q30 0 44.5 -15zM159 57q0 -21 14.5 -28t53.5 -9l-4 -20
q-46 3 -127 3q-83 0 -127 -3l5 20q35 2 52.5 8t28 23.5t20.5 54.5l105 396q8 34 8 48q0 22 -14.5 29t-52.5 9l5 20q41 -3 127 -3q80 0 128 3l-5 -20q-37 -2 -54.5 -8t-28 -23t-20.5 -55l-105 -396q-9 -38 -9 -49z" />
    <glyph glyph-name="kgreenlandic" unicode="&#x138;" horiz-adv-x="558" 
d="M507.5 513q14.5 -15 14.5 -39q0 -22 -14.5 -45.5t-43.5 -23.5q-20 0 -29.5 11.5t-9.5 28.5q0 14 9 31.5t23 30.5h-2q-11 0 -19 -3.5t-18 -10.5q-15 -13 -26 -32.5t-25 -53.5q-17 -41 -31.5 -67t-39 -48t-60.5 -30q143 -8 143 -106q0 -6 -2 -22l-10 -70q-2 -14 -2 -18
q0 -13 5 -18t17 -5q20 0 37.5 23.5t36.5 78.5l12 37h19l-24 -73q-33 -103 -119 -103q-63 0 -63 68q0 7 2 27l8 56q3 18 3 33q0 40 -25 59.5t-89 25.5l-64 -255h-87l120 429q7 22 7 38q0 24 -21 24q-22 0 -40.5 -23.5t-37.5 -78.5l-13 -37h-19l25 73q36 103 121 103
q30 0 43.5 -15t13.5 -43q0 -26 -14 -82l-30 -120q48 4 78 25t46.5 48t34.5 71q15 37 26.5 57.5t28.5 35.5q31 23 60 23q30 0 44.5 -15z" />
    <glyph glyph-name="Lacute" unicode="&#x139;" horiz-adv-x="586" 
d="M346.5 838.5q35.5 26.5 46.5 34.5q49 38 72 52q18 11 38 11q21 0 28 -16q2 -6 2 -10q0 -13 -10.5 -24.5t-24.5 -19.5q-19 -11 -46.5 -21.5t-32.5 -12.5q-87 -33 -143 -60l-7 11q42 29 77.5 55.5zM510 128q-16 -56 -27 -128q-68 3 -229 3q-192 0 -289 -3l5 20q36 2 53.5 8
t28.5 23t21 55l133 496q9 32 9 49q0 21 -14.5 28t-52.5 9l5 20q42 -3 128 -3q81 0 127 3l-5 -20q-37 -2 -54.5 -8t-28.5 -23t-21 -55l-133 -496q-9 -31 -9 -49q0 -21 15 -27.5t53 -6.5h73q62 0 99.5 17.5t62.5 56.5t52 113h23q-7 -19 -25 -82z" />
    <glyph glyph-name="lacute" unicode="&#x13a;" horiz-adv-x="594" 
d="M260.5 738.5q35.5 26.5 46.5 34.5q49 38 72 52q18 11 38 11q21 0 28 -16q2 -6 2 -10q0 -13 -10.5 -24.5t-24.5 -19.5q-19 -11 -46.5 -21.5t-32.5 -12.5q-87 -33 -143 -60l-7 11q42 29 77.5 55.5zM525 175q-10 -28 -16 -57q-11 -37 -25 -118q-70 3 -238 3q-185 0 -280 -3
l5 20q36 2 54 8t28.5 23t20.5 55l107 396q9 38 9 49q0 21 -14.5 28t-52.5 9l5 20q41 -3 127 -3q80 0 128 3l-5 -20q-37 -2 -55 -8t-28.5 -23t-20.5 -55l-107 -396q-9 -38 -9 -48q0 -22 14.5 -28.5t53.5 -6.5h63q76 0 132 43.5t93 143.5h23q-2 -7 -12 -35z" />
    <glyph glyph-name="Lcommaaccent" unicode="&#x13b;" horiz-adv-x="586" 
d="M281.5 -85.5q14.5 -16.5 14.5 -41.5q0 -37 -21 -66t-77 -48l-7 17q27 8 49.5 25t24.5 39q-8 -7 -20 -11.5t-24 -4.5q-20 0 -32.5 11t-12.5 31q0 24 18 44.5t47 20.5q26 0 40.5 -16.5zM510 128q-16 -56 -27 -128q-68 3 -229 3q-192 0 -289 -3l5 20q36 2 53.5 8t28.5 23
t21 55l133 496q9 32 9 49q0 21 -14.5 28t-52.5 9l5 20q42 -3 128 -3q81 0 127 3l-5 -20q-37 -2 -54.5 -8t-28.5 -23t-21 -55l-133 -496q-9 -31 -9 -49q0 -21 15 -27.5t53 -6.5h73q62 0 99.5 17.5t62.5 56.5t52 113h23q-7 -19 -25 -82z" />
    <glyph glyph-name="lcommaaccent" unicode="&#x13c;" horiz-adv-x="594" 
d="M279.5 -85.5q14.5 -16.5 14.5 -41.5q0 -37 -21 -66t-77 -48l-7 17q27 8 49.5 25t24.5 39q-8 -7 -20 -11.5t-24 -4.5q-20 0 -32.5 11t-12.5 31q0 24 18 44.5t47 20.5q26 0 40.5 -16.5zM525 175q-10 -28 -16 -57q-11 -37 -25 -118q-70 3 -238 3q-185 0 -280 -3l5 20
q36 2 54 8t28.5 23t20.5 55l107 396q9 38 9 49q0 21 -14.5 28t-52.5 9l5 20q41 -3 127 -3q80 0 128 3l-5 -20q-37 -2 -55 -8t-28.5 -23t-20.5 -55l-107 -396q-9 -38 -9 -48q0 -22 14.5 -28.5t53.5 -6.5h63q76 0 132 43.5t93 143.5h23q-2 -7 -12 -35z" />
    <glyph glyph-name="Lcaron" unicode="&#x13d;" horiz-adv-x="586" 
d="M467.5 598q17.5 49 17.5 70q0 10 -7 14.5t-26 4.5l3 21l41 -1q35 0 73 12q1 -2 1 -8q0 -37 -37 -96.5t-105 -133.5l-14 4q36 64 53.5 113zM510 128q-16 -56 -27 -128q-68 3 -229 3q-192 0 -289 -3l5 20q36 2 53.5 8t28.5 23t21 55l133 496q9 32 9 49q0 21 -14.5 28
t-52.5 9l5 20q42 -3 128 -3q81 0 127 3l-5 -20q-37 -2 -54.5 -8t-28.5 -23t-21 -55l-133 -496q-9 -31 -9 -49q0 -21 15 -27.5t53 -6.5h73q62 0 99.5 17.5t62.5 56.5t52 113h23q-7 -19 -25 -82z" />
    <glyph glyph-name="lcaron" unicode="&#x13e;" horiz-adv-x="594" 
d="M431 493.5q15 51.5 15 74.5q0 19 -13 19l3 21l21 -1q35 0 73 12q1 -2 1 -8q0 -39 -34.5 -101t-97.5 -139l-14 4q31 67 46 118.5zM525 175q-10 -28 -16 -57q-11 -37 -25 -118q-70 3 -238 3q-185 0 -280 -3l5 20q36 2 54 8t28.5 23t20.5 55l107 396q9 38 9 49
q0 21 -14.5 28t-52.5 9l5 20q41 -3 127 -3q80 0 128 3l-5 -20q-37 -2 -55 -8t-28.5 -23t-20.5 -55l-107 -396q-9 -38 -9 -48q0 -22 14.5 -28.5t53.5 -6.5h63q76 0 132 43.5t93 143.5h23q-2 -7 -12 -35z" />
    <glyph glyph-name="Ldot" unicode="&#x13f;" horiz-adv-x="597" 
d="M510 128q-16 -56 -27 -128q-68 3 -229 3q-192 0 -289 -3l5 20q36 2 53.5 8t28.5 23t21 55l133 496q9 32 9 49q0 21 -14.5 28t-52.5 9l5 20q42 -3 128 -3q81 0 127 3l-5 -20q-37 -2 -54.5 -8t-28.5 -23t-21 -55l-133 -496q-9 -31 -9 -49q0 -21 15 -27.5t53 -6.5h73
q62 0 99.5 17.5t62.5 56.5t52 113h23q-7 -19 -25 -82zM480.5 395.5q22.5 23.5 51.5 23.5q23 0 37 -15t14 -37q0 -30 -23 -53t-52 -23q-22 0 -36 14.5t-14 36.5q0 30 22.5 53.5z" />
    <glyph glyph-name="ldot" unicode="&#x140;" horiz-adv-x="607" 
d="M525 175q-10 -28 -16 -57q-11 -37 -25 -118q-70 3 -238 3q-185 0 -280 -3l5 20q36 2 54 8t28.5 23t20.5 55l107 396q9 38 9 49q0 21 -14.5 28t-52.5 9l5 20q41 -3 127 -3q80 0 128 3l-5 -20q-37 -2 -55 -8t-28.5 -23t-20.5 -55l-107 -396q-9 -38 -9 -48q0 -22 14.5 -28.5
t53.5 -6.5h63q76 0 132 43.5t93 143.5h23q-2 -7 -12 -35zM481.5 380.5q22.5 23.5 51.5 23.5q23 0 37 -15t14 -37q0 -30 -23 -53t-52 -23q-22 0 -36 14.5t-14 36.5q0 30 22.5 53.5z" />
    <glyph glyph-name="Lslash" unicode="&#x141;" horiz-adv-x="587" 
d="M537 210q-7 -19 -25 -82q-16 -56 -27 -128q-68 3 -229 3q-192 0 -289 -3l5 20q36 2 53.5 8t28.5 23t21 55l42 155l-102 -51l6 23l102 51l85 318q9 32 9 49q0 21 -14.5 28t-52.5 9l5 20q42 -3 128 -3q81 0 127 3l-5 -20q-37 -2 -54.5 -8t-28.5 -23t-21 -55l-74 -274
l289 145l-6 -23l-289 -145l-53 -199q-9 -31 -9 -49q0 -21 15 -27.5t53 -6.5h73q62 0 99.5 17.5t62.5 56.5t52 113h23z" />
    <glyph glyph-name="lslash" unicode="&#x142;" horiz-adv-x="596" 
d="M539 210q-2 -7 -12 -35t-16 -57q-11 -37 -25 -118q-70 3 -238 3q-185 0 -280 -3l5 20q36 2 54 8t28.5 23t20.5 55l30 111l-98 -49l6 23l98 49l71 262q9 38 9 49q0 21 -14.5 28t-52.5 9l5 20q41 -3 127 -3q80 0 128 3l-5 -20q-37 -2 -55 -8t-28.5 -23t-20.5 -55l-59 -218
l292 147l-6 -23l-292 -147l-42 -155q-9 -38 -9 -48q0 -22 14.5 -28.5t53.5 -6.5h63q76 0 132 43.5t93 143.5h23z" />
    <glyph glyph-name="Nacute" unicode="&#x143;" horiz-adv-x="770" 
d="M573.5 838.5q35.5 26.5 46.5 34.5q49 38 72 52q18 11 38 11q21 0 28 -16q2 -6 2 -10q0 -13 -10.5 -24.5t-24.5 -19.5q-19 -11 -46.5 -21.5t-32.5 -12.5q-87 -33 -143 -60l-7 11q42 29 77.5 55.5zM858 740q14 -14 14 -37q0 -27 -16 -49.5t-43 -22.5q-20 0 -29 11.5
t-9 27.5t9 33t23 30h-3q-49 -1 -82 -51q-44 -66 -92 -232.5t-109 -454.5h-22l-228 644q-49 -251 -92.5 -424t-83.5 -226q-22 -29 -46.5 -46t-60.5 -17q-60 0 -60 52q0 27 16 49t43 22q20 0 29 -11.5t9 -27.5t-9 -33t-23 -30h3q51 1 83 52q37 59 77 211t87 392q6 29 6 45
q0 24 -16 31.5t-61 9.5l5 20q32 -3 89 -3q46 0 81 3l189 -553q43 192 84 332.5t84 202.5q44 64 108 64q32 0 46 -14z" />
    <glyph glyph-name="nacute" unicode="&#x144;" horiz-adv-x="797" 
d="M515.5 738.5q35.5 26.5 46.5 34.5q49 38 72 52q18 11 38 11q21 0 28 -16q2 -6 2 -10q0 -13 -10.5 -24.5t-24.5 -19.5q-19 -11 -46.5 -21.5t-32.5 -12.5q-87 -33 -143 -60l-7 11q42 29 77.5 55.5zM857 640q14 -14 14 -37q0 -27 -16 -49.5t-43 -22.5q-20 0 -29 11.5
t-9 27.5t9 33.5t23 29.5h-3q-26 -1 -45.5 -14t-36.5 -37q-44 -63 -93.5 -206t-107.5 -381h-22l-228 548q-107 -468 -176 -554q-24 -30 -47.5 -46.5t-59.5 -16.5q-60 0 -60 52q0 27 16 49t43 22q20 0 29 -11.5t9 -27.5t-9 -33t-23 -30h2q48 1 84 52q72 107 170 541
q2 28 -13.5 37t-63.5 11l5 20q32 -3 89 -3q46 0 81 3l190 -471q96 360 167 453q48 64 108 64q32 0 46 -14z" />
    <glyph glyph-name="Ncommaaccent" unicode="&#x145;" horiz-adv-x="770" 
d="M312.5 -85.5q14.5 -16.5 14.5 -41.5q0 -37 -21 -66t-77 -48l-7 17q27 8 49.5 25t24.5 39q-8 -7 -20 -11.5t-24 -4.5q-20 0 -32.5 11t-12.5 31q0 24 18 44.5t47 20.5q26 0 40.5 -16.5zM858 740q14 -14 14 -37q0 -27 -16 -49.5t-43 -22.5q-20 0 -29 11.5t-9 27.5t9 33
t23 30h-3q-49 -1 -82 -51q-44 -66 -92 -232.5t-109 -454.5h-22l-228 644q-49 -251 -92.5 -424t-83.5 -226q-22 -29 -46.5 -46t-60.5 -17q-60 0 -60 52q0 27 16 49t43 22q20 0 29 -11.5t9 -27.5t-9 -33t-23 -30h3q51 1 83 52q37 59 77 211t87 392q6 29 6 45q0 24 -16 31.5
t-61 9.5l5 20q32 -3 89 -3q46 0 81 3l189 -553q43 192 84 332.5t84 202.5q44 64 108 64q32 0 46 -14z" />
    <glyph glyph-name="ncommaaccent" unicode="&#x146;" horiz-adv-x="797" 
d="M319.5 -85.5q14.5 -16.5 14.5 -41.5q0 -37 -21 -66t-77 -48l-7 17q27 8 49.5 25t24.5 39q-8 -7 -20 -11.5t-24 -4.5q-20 0 -32.5 11t-12.5 31q0 24 18 44.5t47 20.5q26 0 40.5 -16.5zM857 640q14 -14 14 -37q0 -27 -16 -49.5t-43 -22.5q-20 0 -29 11.5t-9 27.5t9 33.5
t23 29.5h-3q-26 -1 -45.5 -14t-36.5 -37q-44 -63 -93.5 -206t-107.5 -381h-22l-228 548q-107 -468 -176 -554q-24 -30 -47.5 -46.5t-59.5 -16.5q-60 0 -60 52q0 27 16 49t43 22q20 0 29 -11.5t9 -27.5t-9 -33t-23 -30h2q48 1 84 52q72 107 170 541q2 28 -13.5 37t-63.5 11
l5 20q32 -3 89 -3q46 0 81 3l190 -471q96 360 167 453q48 64 108 64q32 0 46 -14z" />
    <glyph glyph-name="Ncaron" unicode="&#x147;" horiz-adv-x="770" 
d="M749 924l5 -14q-72 -22 -134 -56.5t-101 -73.5h-18q-28 48 -59.5 79.5t-79.5 50.5l4 14q54 -10 87.5 -23.5t57.5 -27t32 -17.5q111 47 206 68zM858 740q14 -14 14 -37q0 -27 -16 -49.5t-43 -22.5q-20 0 -29 11.5t-9 27.5t9 33t23 30h-3q-49 -1 -82 -51
q-44 -66 -92 -232.5t-109 -454.5h-22l-228 644q-49 -251 -92.5 -424t-83.5 -226q-22 -29 -46.5 -46t-60.5 -17q-60 0 -60 52q0 27 16 49t43 22q20 0 29 -11.5t9 -27.5t-9 -33t-23 -30h3q51 1 83 52q37 59 77 211t87 392q6 29 6 45q0 24 -16 31.5t-61 9.5l5 20q32 -3 89 -3
q46 0 81 3l189 -553q43 192 84 332.5t84 202.5q44 64 108 64q32 0 46 -14z" />
    <glyph glyph-name="ncaron" unicode="&#x148;" horiz-adv-x="797" 
d="M751 824l5 -14q-72 -22 -134 -56.5t-101 -73.5h-18q-28 48 -59.5 79.5t-79.5 50.5l4 14q54 -10 87.5 -23.5t57.5 -27t32 -17.5q111 47 206 68zM857 640q14 -14 14 -37q0 -27 -16 -49.5t-43 -22.5q-20 0 -29 11.5t-9 27.5t9 33.5t23 29.5h-3q-26 -1 -45.5 -14t-36.5 -37
q-44 -63 -93.5 -206t-107.5 -381h-22l-228 548q-107 -468 -176 -554q-24 -30 -47.5 -46.5t-59.5 -16.5q-60 0 -60 52q0 27 16 49t43 22q20 0 29 -11.5t9 -27.5t-9 -33t-23 -30h2q48 1 84 52q72 107 170 541q2 28 -13.5 37t-63.5 11l5 20q32 -3 89 -3q46 0 81 3l190 -471
q96 360 167 453q48 64 108 64q32 0 46 -14z" />
    <glyph glyph-name="napostrophe" unicode="&#x149;" horiz-adv-x="771" 
d="M1029 640q14 -14 14 -37q0 -27 -16 -49.5t-43 -22.5q-20 0 -29 11.5t-9 27.5t9 33.5t23 29.5h-3q-26 -1 -45.5 -14t-36.5 -37q-44 -63 -93.5 -206t-107.5 -381h-22l-228 548q-107 -468 -176 -554q-24 -30 -47.5 -46.5t-59.5 -16.5q-60 0 -60 52q0 27 16 49t43 22
q20 0 29 -11.5t9 -27.5t-9 -33t-23 -30h2q48 1 84 52q72 107 170 541q2 28 -13.5 37t-63.5 11l5 20q32 -3 89 -3q46 0 81 3l190 -471q96 360 167 453q48 64 108 64q32 0 46 -14zM194.5 546.5q-39.5 -51.5 -107.5 -84.5l-5 14q47 29 75 63t31 68q-29 -25 -52 -25
q-18 0 -28 9.5t-10 25.5q0 21 13.5 43t35 36t43.5 14t33 -17t11 -42q0 -53 -39.5 -104.5z" />
    <glyph glyph-name="Eng" unicode="&#x14a;" horiz-adv-x="701" 
d="M774 708l-5 -20q-35 -2 -54 -10.5t-30 -27.5t-21 -58l-139 -525q-29 -130 -78 -192.5t-121 -62.5q-36 0 -63 15t-27 42q0 23 16.5 40t38.5 17q18 0 30 -12t12 -30q0 -16 -11.5 -29.5t-28.5 -21.5q15 -5 35 -5q54 0 92.5 45.5t63.5 121.5l-243 658l-141 -537
q-8 -34 -8 -50q0 -24 16.5 -34t58.5 -12l-5 -20q-34 3 -101 3q-59 0 -94 -3l5 20q35 2 54 10.5t30 27.5t21 58l129 486q8 34 8 48q0 22 -14.5 29t-52.5 9l5 20q32 -3 89 -3q47 0 81 3l202 -562l117 446q8 34 8 50q0 25 -16.5 34.5t-58.5 11.5l5 20q34 -3 101 -3q60 0 94 3z
" />
    <glyph glyph-name="eng" unicode="&#x14b;" horiz-adv-x="705" 
d="M751 608l-5 -20q-35 -2 -54.5 -10.5t-31 -28t-21.5 -57.5l-112 -425q-29 -130 -78 -192.5t-121 -62.5q-36 0 -63 15t-27 42q0 23 16.5 40t38.5 17q18 0 30 -12t12 -30q0 -16 -11.5 -29.5t-28.5 -21.5q15 -5 35 -5q54 0 92.5 45.5t63.5 122.5l-270 557l-115 -437
q-9 -38 -9 -51q0 -24 16.5 -33.5t58.5 -11.5l-5 -20q-36 3 -101 3q-61 0 -94 -3l5 20q35 2 54.5 10.5t30.5 28t22 57.5l102 386q8 34 8 48q0 22 -14.5 29t-52.5 9l5 20q31 -3 89 -3q42 0 76 3l230 -482l95 366q9 38 9 51q0 24 -16.5 33.5t-58.5 11.5l5 20q36 -3 101 -3
q61 0 94 3z" />
    <glyph glyph-name="Omacron" unicode="&#x14c;" horiz-adv-x="729" 
d="M640 819h-352l6 25h352zM107 455q53 116 148.5 191.5t215.5 75.5q112 0 174 -63t62 -178q0 -113 -53.5 -228.5t-149.5 -191t-215 -75.5q-111 0 -173 63t-62 177q0 113 53 229zM316.5 632q-70.5 -72 -113.5 -186.5t-43 -232.5q0 -97 38 -153t100 -56q75 0 145.5 72
t113.5 186.5t43 232.5q0 97 -38 153t-100 56q-75 0 -145.5 -72z" />
    <glyph glyph-name="omacron" unicode="&#x14d;" horiz-adv-x="732" 
d="M642 719h-352l6 25h352zM113 47q-67 61 -67 180q0 91 51 183t142 152t205 60q112 0 179 -61t67 -180q0 -91 -51 -183t-142 -152t-205 -60q-112 0 -179 61zM291 547q-65 -57 -101.5 -147.5t-36.5 -186.5q0 -108 39.5 -158.5t108.5 -50.5q79 0 144 57t101.5 147.5
t36.5 186.5q0 108 -39.5 158.5t-108.5 50.5q-79 0 -144 -57z" />
    <glyph glyph-name="Obreve" unicode="&#x14e;" horiz-adv-x="729" 
d="M602.5 864q60.5 15 106.5 43l10 -11q-43 -43 -116 -78.5t-132 -35.5q-62 0 -101 32.5t-50 83.5l16 5q26 -30 61 -42t91 -12q54 0 114.5 15zM107 455q53 116 148.5 191.5t215.5 75.5q112 0 174 -63t62 -178q0 -113 -53.5 -228.5t-149.5 -191t-215 -75.5q-111 0 -173 63
t-62 177q0 113 53 229zM316.5 632q-70.5 -72 -113.5 -186.5t-43 -232.5q0 -97 38 -153t100 -56q75 0 145.5 72t113.5 186.5t43 232.5q0 97 -38 153t-100 56q-75 0 -145.5 -72z" />
    <glyph glyph-name="obreve" unicode="&#x14f;" horiz-adv-x="732" 
d="M601.5 764q60.5 15 106.5 43l10 -11q-43 -43 -116 -78.5t-132 -35.5q-62 0 -101 32.5t-50 83.5l16 5q26 -30 61 -42t91 -12q54 0 114.5 15zM113 47q-67 61 -67 180q0 91 51 183t142 152t205 60q112 0 179 -61t67 -180q0 -91 -51 -183t-142 -152t-205 -60q-112 0 -179 61z
M291 547q-65 -57 -101.5 -147.5t-36.5 -186.5q0 -108 39.5 -158.5t108.5 -50.5q79 0 144 57t101.5 147.5t36.5 186.5q0 108 -39.5 158.5t-108.5 50.5q-79 0 -144 -57z" />
    <glyph glyph-name="Ohungarumlaut" unicode="&#x150;" horiz-adv-x="729" 
d="M598 857q50 48 74 65q18 14 37 14q16 0 24 -12q5 -8 5 -15q0 -21 -33 -46q-30 -20 -88 -45q-8 -4 -37.5 -17.5t-55.5 -28.5l-6 12q30 23 80 73zM411 857q50 48 74 65q7 6 17.5 10t19.5 4q17 0 25 -14q3 -7 3 -14q0 -21 -32 -45q-30 -20 -88 -45q-8 -4 -37.5 -17.5
t-55.5 -28.5l-6 12q30 23 80 73zM107 455q53 116 148.5 191.5t215.5 75.5q112 0 174 -63t62 -178q0 -113 -53.5 -228.5t-149.5 -191t-215 -75.5q-111 0 -173 63t-62 177q0 113 53 229zM316.5 632q-70.5 -72 -113.5 -186.5t-43 -232.5q0 -97 38 -153t100 -56q75 0 145.5 72
t113.5 186.5t43 232.5q0 97 -38 153t-100 56q-75 0 -145.5 -72z" />
    <glyph glyph-name="ohungarumlaut" unicode="&#x151;" horiz-adv-x="732" 
d="M598 757q50 48 74 65q18 14 37 14q16 0 24 -12q5 -8 5 -15q0 -21 -33 -46q-30 -20 -88 -45q-8 -4 -37.5 -17.5t-55.5 -28.5l-6 12q30 23 80 73zM411 757q50 48 74 65q7 6 17.5 10t19.5 4q17 0 25 -14q3 -7 3 -14q0 -21 -32 -45q-30 -20 -88 -45q-8 -4 -37.5 -17.5
t-55.5 -28.5l-6 12q30 23 80 73zM113 47q-67 61 -67 180q0 91 51 183t142 152t205 60q112 0 179 -61t67 -180q0 -91 -51 -183t-142 -152t-205 -60q-112 0 -179 61zM291 547q-65 -57 -101.5 -147.5t-36.5 -186.5q0 -108 39.5 -158.5t108.5 -50.5q79 0 144 57t101.5 147.5
t36.5 186.5q0 108 -39.5 158.5t-108.5 50.5q-79 0 -144 -57z" />
    <glyph glyph-name="OE" unicode="&#x152;" horiz-adv-x="956" 
d="M993 708q-14 -38 -25 -74t-13 -44q-13 -35 -13 -62h-22q7 39 7 71q0 47 -21 66.5t-67 19.5h-83q-35 0 -52.5 -5.5t-27.5 -22.5t-20 -55l-63 -236h98q28 0 47 15t30.5 37t25.5 60h22q-16 -49 -27 -95l-7 -27q-14 -52 -26 -122h-22q0 16 3 31q2 22 2 31q0 22 -11 35t-41 15
h-99l-64 -240q-9 -38 -9 -49q0 -21 14.5 -27.5t51.5 -6.5h93q48 0 79.5 16.5t54 54.5t45.5 106h22q-3 -6 -14 -45q-4 -18 -7 -27q-19 -67 -26 -128q-65 3 -216 3q-150 0 -239 -2q-52 -15 -102 -15q-102 0 -158.5 62.5t-56.5 177.5q0 113 50.5 229t141.5 191.5t205 75.5
q58 0 101 -15q93 -2 252 -2q130 0 187 3zM563 602q6 21 6 37q0 39 -29 52t-84 13q-76 0 -144 -71.5t-109 -186t-41 -233.5q0 -97 32.5 -153t85.5 -56q66 0 101 22t50 80z" />
    <glyph glyph-name="oe" unicode="&#x153;" horiz-adv-x="931" 
d="M934 608q-25 -66 -38 -118q-5 -22 -13 -62h-22q7 39 7 71q0 47 -21 66.5t-67 19.5h-73q-35 0 -52.5 -5.5t-27.5 -22.5t-20 -55l-50 -186h85q28 0 47 15t30.5 37t25.5 60h22q-16 -49 -27 -95l-7 -27q-14 -52 -26 -122h-22q0 16 3 31q2 22 2 31q0 22 -11 35t-41 15h-86
l-51 -190q-9 -38 -9 -49q0 -21 14.5 -27.5t51.5 -6.5h83q48 0 79.5 16.5t54 54.5t45.5 106h22q-3 -6 -14 -45q-4 -18 -7 -27q-19 -67 -26 -128q-62 3 -206 3q-155 0 -245 -2q-52 -15 -98 -15q-96 0 -149 54.5t-53 155.5t47 200t132.5 162.5t195.5 63.5q32 0 80 -14
q132 -3 248 -3q130 0 187 3zM514 502q5 16 5 35q0 36 -27 51.5t-77 15.5q-71 0 -133.5 -66t-100 -166.5t-37.5 -195.5q0 -83 29.5 -127.5t81.5 -44.5q58 0 98 22.5t55 79.5z" />
    <glyph glyph-name="Racute" unicode="&#x154;" horiz-adv-x="664" 
d="M469.5 838.5q35.5 26.5 46.5 34.5q49 38 72 52q18 11 38 11q21 0 28 -16q2 -6 2 -10q0 -13 -10.5 -24.5t-24.5 -19.5q-19 -11 -46.5 -21.5t-32.5 -12.5q-87 -33 -143 -60l-7 11q42 29 77.5 55.5zM592 121h23l-4 -13q-18 -63 -45.5 -92.5t-73.5 -29.5q-47 0 -70 28t-20 68
l8 112q1 12 1 32q0 42 -15 65t-54.5 33.5t-114.5 11.5l-61 -230q-9 -30 -9 -49q0 -20 14.5 -28t53.5 -9l-4 -20q-46 3 -124 3q-88 0 -130 -3l4 20q36 2 54 8t28.5 23t20.5 55l132 496q9 34 9 47q0 21 -15 29.5t-53 9.5l5 20q40 -3 123 -3q48 0 72 1l74 1q98 0 148.5 -37.5
t50.5 -103.5q0 -82 -71 -142t-190 -80q13 -1 35 -5q59 -11 85 -35t26 -77q0 -13 -1 -20l-8 -102q-1 -7 -1 -21q0 -61 32 -61q17 0 31 20.5t29 63.5zM233 356h30q135 0 195.5 59t60.5 157q0 59 -30 87.5t-97 28.5q-30 0 -47 -7.5t-27.5 -25.5t-19.5 -53z" />
    <glyph glyph-name="racute" unicode="&#x155;" horiz-adv-x="647" 
d="M383.5 738.5q35.5 26.5 46.5 34.5q49 38 72 52q18 11 38 11q21 0 28 -16q2 -6 2 -10q0 -13 -10.5 -24.5t-24.5 -19.5q-19 -11 -46.5 -21.5t-32.5 -12.5q-87 -33 -143 -60l-7 11q42 29 77.5 55.5zM567 121h23l-4 -13q-18 -62 -47.5 -92t-75.5 -30t-66.5 27.5t-18.5 68.5
l4 63q1 9 1 27q0 40 -12.5 63.5t-44.5 36t-92 14.5h-6h-13l-48 -180q-8 -32 -8 -48q0 -19 14.5 -27.5t52.5 -10.5l-4 -20q-46 3 -124 3q-88 0 -130 -3l4 20q36 2 54 8t28.5 23t20.5 55l106 396q7 32 7 44q0 21 -14.5 30.5t-51.5 11.5l5 20q40 -3 123 -3q48 0 72 1l74 1
q98 0 148.5 -32.5t50.5 -88.5q0 -75 -68 -125.5t-186 -67.5l21 -3q63 -12 89.5 -40.5t22.5 -91.5l-3 -53q-1 -9 -1 -24q0 -28 7 -43t24 -15q18 0 32 20.5t29 63.5zM221 306h17q96 0 151.5 19t80 59.5t24.5 107.5q0 49 -30 72.5t-97 23.5q-30 0 -47 -7.5t-27.5 -25.5
t-19.5 -53z" />
    <glyph glyph-name="Rcommaaccent" unicode="&#x156;" horiz-adv-x="664" 
d="M316.5 -85.5q14.5 -16.5 14.5 -41.5q0 -37 -21 -66t-77 -48l-7 17q27 8 49.5 25t24.5 39q-8 -7 -20 -11.5t-24 -4.5q-20 0 -32.5 11t-12.5 31q0 24 18 44.5t47 20.5q26 0 40.5 -16.5zM592 121h23l-4 -13q-18 -63 -45.5 -92.5t-73.5 -29.5q-47 0 -70 28t-20 68l8 112
q1 12 1 32q0 42 -15 65t-54.5 33.5t-114.5 11.5l-61 -230q-9 -30 -9 -49q0 -20 14.5 -28t53.5 -9l-4 -20q-46 3 -124 3q-88 0 -130 -3l4 20q36 2 54 8t28.5 23t20.5 55l132 496q9 34 9 47q0 21 -15 29.5t-53 9.5l5 20q40 -3 123 -3q48 0 72 1l74 1q98 0 148.5 -37.5
t50.5 -103.5q0 -82 -71 -142t-190 -80q13 -1 35 -5q59 -11 85 -35t26 -77q0 -13 -1 -20l-8 -102q-1 -7 -1 -21q0 -61 32 -61q17 0 31 20.5t29 63.5zM233 356h30q135 0 195.5 59t60.5 157q0 59 -30 87.5t-97 28.5q-30 0 -47 -7.5t-27.5 -25.5t-19.5 -53z" />
    <glyph glyph-name="rcommaaccent" unicode="&#x157;" horiz-adv-x="647" 
d="M301.5 -85.5q14.5 -16.5 14.5 -41.5q0 -37 -21 -66t-77 -48l-7 17q27 8 49.5 25t24.5 39q-8 -7 -20 -11.5t-24 -4.5q-20 0 -32.5 11t-12.5 31q0 24 18 44.5t47 20.5q26 0 40.5 -16.5zM567 121h23l-4 -13q-18 -62 -47.5 -92t-75.5 -30t-66.5 27.5t-18.5 68.5l4 63
q1 9 1 27q0 40 -12.5 63.5t-44.5 36t-92 14.5h-6h-13l-48 -180q-8 -32 -8 -48q0 -19 14.5 -27.5t52.5 -10.5l-4 -20q-46 3 -124 3q-88 0 -130 -3l4 20q36 2 54 8t28.5 23t20.5 55l106 396q7 32 7 44q0 21 -14.5 30.5t-51.5 11.5l5 20q40 -3 123 -3q48 0 72 1l74 1
q98 0 148.5 -32.5t50.5 -88.5q0 -75 -68 -125.5t-186 -67.5l21 -3q63 -12 89.5 -40.5t22.5 -91.5l-3 -53q-1 -9 -1 -24q0 -28 7 -43t24 -15q18 0 32 20.5t29 63.5zM221 306h17q96 0 151.5 19t80 59.5t24.5 107.5q0 49 -30 72.5t-97 23.5q-30 0 -47 -7.5t-27.5 -25.5
t-19.5 -53z" />
    <glyph glyph-name="Rcaron" unicode="&#x158;" horiz-adv-x="664" 
d="M645 924l5 -14q-72 -22 -134 -56.5t-101 -73.5h-18q-28 48 -59.5 79.5t-79.5 50.5l4 14q54 -10 87.5 -23.5t57.5 -27t32 -17.5q111 47 206 68zM592 121h23l-4 -13q-18 -63 -45.5 -92.5t-73.5 -29.5q-47 0 -70 28t-20 68l8 112q1 12 1 32q0 42 -15 65t-54.5 33.5
t-114.5 11.5l-61 -230q-9 -30 -9 -49q0 -20 14.5 -28t53.5 -9l-4 -20q-46 3 -124 3q-88 0 -130 -3l4 20q36 2 54 8t28.5 23t20.5 55l132 496q9 34 9 47q0 21 -15 29.5t-53 9.5l5 20q40 -3 123 -3q48 0 72 1l74 1q98 0 148.5 -37.5t50.5 -103.5q0 -82 -71 -142t-190 -80
q13 -1 35 -5q59 -11 85 -35t26 -77q0 -13 -1 -20l-8 -102q-1 -7 -1 -21q0 -61 32 -61q17 0 31 20.5t29 63.5zM233 356h30q135 0 195.5 59t60.5 157q0 59 -30 87.5t-97 28.5q-30 0 -47 -7.5t-27.5 -25.5t-19.5 -53z" />
    <glyph glyph-name="rcaron" unicode="&#x159;" horiz-adv-x="647" 
d="M619 824l5 -14q-72 -22 -134 -56.5t-101 -73.5h-18q-28 48 -59.5 79.5t-79.5 50.5l4 14q54 -10 87.5 -23.5t57.5 -27t32 -17.5q111 47 206 68zM567 121h23l-4 -13q-18 -62 -47.5 -92t-75.5 -30t-66.5 27.5t-18.5 68.5l4 63q1 9 1 27q0 40 -12.5 63.5t-44.5 36t-92 14.5
h-6h-13l-48 -180q-8 -32 -8 -48q0 -19 14.5 -27.5t52.5 -10.5l-4 -20q-46 3 -124 3q-88 0 -130 -3l4 20q36 2 54 8t28.5 23t20.5 55l106 396q7 32 7 44q0 21 -14.5 30.5t-51.5 11.5l5 20q40 -3 123 -3q48 0 72 1l74 1q98 0 148.5 -32.5t50.5 -88.5q0 -75 -68 -125.5
t-186 -67.5l21 -3q63 -12 89.5 -40.5t22.5 -91.5l-3 -53q-1 -9 -1 -24q0 -28 7 -43t24 -15q18 0 32 20.5t29 63.5zM221 306h17q96 0 151.5 19t80 59.5t24.5 107.5q0 49 -30 72.5t-97 23.5q-30 0 -47 -7.5t-27.5 -25.5t-19.5 -53z" />
    <glyph glyph-name="Sacute" unicode="&#x15a;" horiz-adv-x="554" 
d="M449.5 838.5q35.5 26.5 46.5 34.5q49 38 72 52q18 11 38 11q21 0 28 -16q2 -6 2 -10q0 -13 -10.5 -24.5t-24.5 -19.5q-19 -11 -46.5 -21.5t-32.5 -12.5q-87 -33 -143 -60l-7 11q42 29 77.5 55.5zM517 511h-20q6 29 6 57q0 59 -35 97t-107 38q-63 0 -101.5 -32t-38.5 -95
q0 -49 30.5 -90t91.5 -97q43 -39 69 -68t44 -64t18 -75q0 -65 -37.5 -109.5t-95.5 -65.5t-120 -21q-53 0 -84.5 13t-57.5 33q-19 15 -36 15q-12 0 -20 -12t-21 -42h-20q16 38 31.5 91.5t36.5 148.5h20q-9 -47 -9 -74q0 -73 40 -113t123 -40q68 0 107.5 31t39.5 94
q0 38 -15 70t-36.5 56.5t-59.5 61.5q-40 38 -63.5 65t-40 63t-16.5 80q0 62 31.5 106t82 66.5t106.5 22.5q41 0 71 -10t59 -32q24 -18 33 -18q8 0 15.5 12.5t17.5 40.5h20q-36 -91 -59 -204z" />
    <glyph glyph-name="sacute" unicode="&#x15b;" horiz-adv-x="563" 
d="M377.5 738.5q35.5 26.5 46.5 34.5q49 38 72 52q18 11 38 11q21 0 28 -16q2 -6 2 -10q0 -13 -10.5 -24.5t-24.5 -19.5q-19 -11 -46.5 -21.5t-32.5 -12.5q-87 -33 -143 -60l-7 11q42 29 77.5 55.5zM497 411h-20q6 29 6 56q0 60 -35 98t-109 38q-61 0 -99.5 -27t-38.5 -79
q0 -48 32 -81.5t98 -76.5q50 -33 78 -55t47 -53t19 -71q0 -57 -37.5 -96.5t-95.5 -58.5t-119 -19q-54 0 -85 12.5t-58 33.5q-19 15 -35 15q-13 0 -21 -11.5t-21 -42.5h-20q16 38 31.5 91.5t36.5 148.5h20q-9 -47 -9 -74q0 -73 40.5 -113t124.5 -40q68 0 106.5 26.5
t38.5 80.5q0 50 -29 83.5t-87 72.5q-49 33 -74.5 54t-43.5 52t-18 72q0 55 31.5 94.5t82.5 60t109 20.5q41 0 69 -10t58 -32q10 -8 19 -13t14 -5q8 0 15.5 12.5t17.5 40.5h20q-36 -91 -59 -204z" />
    <glyph glyph-name="Scircumflex" unicode="&#x15c;" horiz-adv-x="554" 
d="M192 772l-5 14q72 22 134 56.5t101 73.5h18q28 -48 59.5 -79.5t79.5 -50.5l-4 -14q-54 10 -87.5 23.5t-57.5 27t-32 17.5q-111 -47 -206 -68zM517 511h-20q6 29 6 57q0 59 -35 97t-107 38q-63 0 -101.5 -32t-38.5 -95q0 -49 30.5 -90t91.5 -97q43 -39 69 -68t44 -64
t18 -75q0 -65 -37.5 -109.5t-95.5 -65.5t-120 -21q-53 0 -84.5 13t-57.5 33q-19 15 -36 15q-12 0 -20 -12t-21 -42h-20q16 38 31.5 91.5t36.5 148.5h20q-9 -47 -9 -74q0 -73 40 -113t123 -40q68 0 107.5 31t39.5 94q0 38 -15 70t-36.5 56.5t-59.5 61.5q-40 38 -63.5 65
t-40 63t-16.5 80q0 62 31.5 106t82 66.5t106.5 22.5q41 0 71 -10t59 -32q24 -18 33 -18q8 0 15.5 12.5t17.5 40.5h20q-36 -91 -59 -204z" />
    <glyph glyph-name="scircumflex" unicode="&#x15d;" horiz-adv-x="563" 
d="M182 672l-5 14q72 22 134 56.5t101 73.5h18q28 -48 59.5 -79.5t79.5 -50.5l-4 -14q-54 10 -87.5 23.5t-57.5 27t-32 17.5q-111 -47 -206 -68zM497 411h-20q6 29 6 56q0 60 -35 98t-109 38q-61 0 -99.5 -27t-38.5 -79q0 -48 32 -81.5t98 -76.5q50 -33 78 -55t47 -53
t19 -71q0 -57 -37.5 -96.5t-95.5 -58.5t-119 -19q-54 0 -85 12.5t-58 33.5q-19 15 -35 15q-13 0 -21 -11.5t-21 -42.5h-20q16 38 31.5 91.5t36.5 148.5h20q-9 -47 -9 -74q0 -73 40.5 -113t124.5 -40q68 0 106.5 26.5t38.5 80.5q0 50 -29 83.5t-87 72.5q-49 33 -74.5 54
t-43.5 52t-18 72q0 55 31.5 94.5t82.5 60t109 20.5q41 0 69 -10t58 -32q10 -8 19 -13t14 -5q8 0 15.5 12.5t17.5 40.5h20q-36 -91 -59 -204z" />
    <glyph glyph-name="Scedilla" unicode="&#x15e;" horiz-adv-x="554" 
d="M193 -72q24 7 51 7q25 0 39 -10.5t14 -29.5q0 -40 -48.5 -61.5t-104.5 -21.5q-33 0 -59.5 6.5t-40.5 15.5l7 15q32 -13 80 -13q33 0 67.5 12.5t34.5 38.5q0 24 -38 24q-20 0 -41 -7l48 100h27zM517 511h-20q6 29 6 57q0 59 -35 97t-107 38q-63 0 -101.5 -32t-38.5 -95
q0 -49 30.5 -90t91.5 -97q43 -39 69 -68t44 -64t18 -75q0 -65 -37.5 -109.5t-95.5 -65.5t-120 -21q-53 0 -84.5 13t-57.5 33q-19 15 -36 15q-12 0 -20 -12t-21 -42h-20q16 38 31.5 91.5t36.5 148.5h20q-9 -47 -9 -74q0 -73 40 -113t123 -40q68 0 107.5 31t39.5 94
q0 38 -15 70t-36.5 56.5t-59.5 61.5q-40 38 -63.5 65t-40 63t-16.5 80q0 62 31.5 106t82 66.5t106.5 22.5q41 0 71 -10t59 -32q24 -18 33 -18q8 0 15.5 12.5t17.5 40.5h20q-36 -91 -59 -204z" />
    <glyph glyph-name="scedilla" unicode="&#x15f;" horiz-adv-x="563" 
d="M202 -72q24 7 51 7q25 0 39 -10.5t14 -29.5q0 -40 -48.5 -61.5t-104.5 -21.5q-33 0 -59.5 6.5t-40.5 15.5l7 15q33 -13 80 -13q33 0 67.5 12.5t34.5 38.5q0 24 -38 24q-20 0 -41 -7l48 100h27zM497 411h-20q6 29 6 56q0 60 -35 98t-109 38q-61 0 -99.5 -27t-38.5 -79
q0 -48 32 -81.5t98 -76.5q50 -33 78 -55t47 -53t19 -71q0 -57 -37.5 -96.5t-95.5 -58.5t-119 -19q-54 0 -85 12.5t-58 33.5q-19 15 -35 15q-13 0 -21 -11.5t-21 -42.5h-20q16 38 31.5 91.5t36.5 148.5h20q-9 -47 -9 -74q0 -73 40.5 -113t124.5 -40q68 0 106.5 26.5
t38.5 80.5q0 50 -29 83.5t-87 72.5q-49 33 -74.5 54t-43.5 52t-18 72q0 55 31.5 94.5t82.5 60t109 20.5q41 0 69 -10t58 -32q10 -8 19 -13t14 -5q8 0 15.5 12.5t17.5 40.5h20q-36 -91 -59 -204z" />
    <glyph glyph-name="Scaron" unicode="&#x160;" horiz-adv-x="554" 
d="M625 924l5 -14q-72 -22 -134 -56.5t-101 -73.5h-18q-28 48 -59.5 79.5t-79.5 50.5l4 14q54 -10 87.5 -23.5t57.5 -27t32 -17.5q111 47 206 68zM517 511h-20q6 29 6 57q0 59 -35 97t-107 38q-63 0 -101.5 -32t-38.5 -95q0 -49 30.5 -90t91.5 -97q43 -39 69 -68t44 -64
t18 -75q0 -65 -37.5 -109.5t-95.5 -65.5t-120 -21q-53 0 -84.5 13t-57.5 33q-19 15 -36 15q-12 0 -20 -12t-21 -42h-20q16 38 31.5 91.5t36.5 148.5h20q-9 -47 -9 -74q0 -73 40 -113t123 -40q68 0 107.5 31t39.5 94q0 38 -15 70t-36.5 56.5t-59.5 61.5q-40 38 -63.5 65
t-40 63t-16.5 80q0 62 31.5 106t82 66.5t106.5 22.5q41 0 71 -10t59 -32q24 -18 33 -18q8 0 15.5 12.5t17.5 40.5h20q-36 -91 -59 -204z" />
    <glyph glyph-name="scaron" unicode="&#x161;" horiz-adv-x="563" 
d="M613 824l5 -14q-72 -22 -134 -56.5t-101 -73.5h-18q-28 48 -59.5 79.5t-79.5 50.5l4 14q54 -10 87.5 -23.5t57.5 -27t32 -17.5q111 47 206 68zM497 411h-20q6 29 6 56q0 60 -35 98t-109 38q-61 0 -99.5 -27t-38.5 -79q0 -48 32 -81.5t98 -76.5q50 -33 78 -55t47 -53
t19 -71q0 -57 -37.5 -96.5t-95.5 -58.5t-119 -19q-54 0 -85 12.5t-58 33.5q-19 15 -35 15q-13 0 -21 -11.5t-21 -42.5h-20q16 38 31.5 91.5t36.5 148.5h20q-9 -47 -9 -74q0 -73 40.5 -113t124.5 -40q68 0 106.5 26.5t38.5 80.5q0 50 -29 83.5t-87 72.5q-49 33 -74.5 54
t-43.5 52t-18 72q0 55 31.5 94.5t82.5 60t109 20.5q41 0 69 -10t58 -32q10 -8 19 -13t14 -5q8 0 15.5 12.5t17.5 40.5h20q-36 -91 -59 -204z" />
    <glyph glyph-name="uni0162" unicode="&#x162;" horiz-adv-x="659" 
d="M259 -72q24 7 51 7q25 0 39 -10.5t14 -29.5q0 -40 -48.5 -61.5t-104.5 -21.5q-33 0 -59.5 6.5t-40.5 15.5l7 15q32 -13 80 -13q33 0 67.5 12.5t34.5 38.5q0 24 -38 24q-20 0 -41 -7l48 100h27zM801.5 803.5q11.5 -13.5 11.5 -34.5q0 -22 -13 -40.5t-34 -31.5
q-53 -33 -158 -33q-44 0 -102 7l-148 -555q-9 -31 -9 -51q0 -25 18.5 -34.5t65.5 -10.5l-4 -20q-52 3 -149 3q-98 0 -146 -3l4 20q42 2 65.5 10.5t36.5 28t25 57.5l151 567q-81 11 -129 11q-87 0 -112 -17q8 -11 13 -27t5 -31q0 -23 -13 -40.5t-37 -17.5q-21 0 -32.5 13.5
t-11.5 36.5q0 52 53 78q47 23 134 23q40 0 76 -3.5t91 -10.5q52 -7 87.5 -10.5t74.5 -3.5q45 0 75 5t54 17q-25 25 -25 56q0 22 12.5 38.5t36.5 16.5q22 0 33.5 -13.5z" />
    <glyph glyph-name="uni0163" unicode="&#x163;" horiz-adv-x="611" 
d="M234 -72q24 7 51 7q25 0 39 -10.5t14 -29.5q0 -40 -48.5 -61.5t-104.5 -21.5q-33 0 -59.5 6.5t-40.5 15.5l7 15q33 -13 80 -13q33 0 67.5 12.5t34.5 38.5q0 24 -38 24q-20 0 -41 -7l48 100h27zM719.5 703.5q11.5 -13.5 11.5 -33.5q0 -40 -46 -74q-29 -17 -61 -24.5
t-77 -7.5q-38 0 -85 5l-131 -453q-9 -30 -9 -50q0 -25 19 -35t65 -11l-4 -20q-52 3 -149 3q-98 0 -146 -3l4 20q43 2 66 10t36.5 27t24.5 59l135 466q-88 12 -126 12q-64 0 -94 -17q8 -11 13 -27t5 -31q0 -23 -13 -40.5t-37 -17.5q-21 0 -32.5 13.5t-11.5 36.5q0 51 52 78
q43 23 113 23q57 0 159 -14q37 -5 76.5 -9.5t73.5 -4.5q37 0 62 5t49 17q-25 25 -25 56q0 22 12.5 38.5t36.5 16.5q22 0 33.5 -13.5z" />
    <glyph glyph-name="Tcaron" unicode="&#x164;" horiz-adv-x="659" 
d="M708 924l5 -14q-72 -22 -134 -56.5t-101 -73.5h-18q-28 48 -59.5 79.5t-79.5 50.5l4 14q54 -10 87.5 -23.5t57.5 -27t32 -17.5q111 47 206 68zM801.5 803.5q11.5 -13.5 11.5 -34.5q0 -22 -13 -40.5t-34 -31.5q-53 -33 -158 -33q-44 0 -102 7l-148 -555q-9 -31 -9 -51
q0 -25 18.5 -34.5t65.5 -10.5l-4 -20q-52 3 -149 3q-98 0 -146 -3l4 20q42 2 65.5 10.5t36.5 28t25 57.5l151 567q-81 11 -129 11q-87 0 -112 -17q8 -11 13 -27t5 -31q0 -23 -13 -40.5t-37 -17.5q-21 0 -32.5 13.5t-11.5 36.5q0 52 53 78q47 23 134 23q40 0 76 -3.5
t91 -10.5q52 -7 87.5 -10.5t74.5 -3.5q45 0 75 5t54 17q-25 25 -25 56q0 22 12.5 38.5t36.5 16.5q22 0 33.5 -13.5z" />
    <glyph glyph-name="tcaron" unicode="&#x165;" horiz-adv-x="611" 
d="M652 824l5 -14q-72 -22 -134 -56.5t-101 -73.5h-18q-28 48 -59.5 79.5t-79.5 50.5l4 14q54 -10 87.5 -23.5t57.5 -27t32 -17.5q111 47 206 68zM719.5 703.5q11.5 -13.5 11.5 -33.5q0 -40 -46 -74q-29 -17 -61 -24.5t-77 -7.5q-38 0 -85 5l-131 -453q-9 -30 -9 -50
q0 -25 19 -35t65 -11l-4 -20q-52 3 -149 3q-98 0 -146 -3l4 20q43 2 66 10t36.5 27t24.5 59l135 466q-88 12 -126 12q-64 0 -94 -17q8 -11 13 -27t5 -31q0 -23 -13 -40.5t-37 -17.5q-21 0 -32.5 13.5t-11.5 36.5q0 51 52 78q43 23 113 23q57 0 159 -14q37 -5 76.5 -9.5
t73.5 -4.5q37 0 62 5t49 17q-25 25 -25 56q0 22 12.5 38.5t36.5 16.5q22 0 33.5 -13.5z" />
    <glyph glyph-name="Tbar" unicode="&#x166;" horiz-adv-x="659" 
d="M571 341h-412l6 25h412zM801.5 803.5q11.5 -13.5 11.5 -34.5q0 -22 -13 -40.5t-34 -31.5q-53 -33 -158 -33q-44 0 -102 7l-148 -555q-9 -31 -9 -51q0 -25 18.5 -34.5t65.5 -10.5l-4 -20q-52 3 -149 3q-98 0 -146 -3l4 20q42 2 65.5 10.5t36.5 28t25 57.5l151 567
q-81 11 -129 11q-87 0 -112 -17q8 -11 13 -27t5 -31q0 -23 -13 -40.5t-37 -17.5q-21 0 -32.5 13.5t-11.5 36.5q0 52 53 78q47 23 134 23q40 0 76 -3.5t91 -10.5q52 -7 87.5 -10.5t74.5 -3.5q45 0 75 5t54 17q-25 25 -25 56q0 22 12.5 38.5t36.5 16.5q22 0 33.5 -13.5z" />
    <glyph glyph-name="tbar" unicode="&#x167;" horiz-adv-x="611" 
d="M521 244h-412l6 25h412zM719.5 703.5q11.5 -13.5 11.5 -33.5q0 -40 -46 -74q-29 -17 -61 -24.5t-77 -7.5q-38 0 -85 5l-131 -453q-9 -30 -9 -50q0 -25 19 -35t65 -11l-4 -20q-52 3 -149 3q-98 0 -146 -3l4 20q43 2 66 10t36.5 27t24.5 59l135 466q-88 12 -126 12
q-64 0 -94 -17q8 -11 13 -27t5 -31q0 -23 -13 -40.5t-37 -17.5q-21 0 -32.5 13.5t-11.5 36.5q0 51 52 78q43 23 113 23q57 0 159 -14q37 -5 76.5 -9.5t73.5 -4.5q37 0 62 5t49 17q-25 25 -25 56q0 22 12.5 38.5t36.5 16.5q22 0 33.5 -13.5z" />
    <glyph glyph-name="Utilde" unicode="&#x168;" horiz-adv-x="682" 
d="M491 885q21 -10 47 -30q21 -17 36.5 -25t36.5 -8q38 0 70 58l18 -5q-22 -52 -57 -77.5t-73 -25.5q-32 0 -53 10t-47 30q-21 17 -36.5 25t-36.5 8q-38 0 -70 -58l-18 5q22 52 57 77.5t73 25.5q32 0 53 -10zM638 636q0 28 -17 39t-57 13l5 20q35 -3 101 -3q59 0 94 3
l-5 -20q-35 -2 -54.5 -10.5t-31 -28t-20.5 -57.5l-78 -301q-36 -138 -98 -212q-37 -43 -90.5 -68t-114.5 -25q-107 0 -154 54q-18 21 -26.5 45.5t-8.5 56.5q0 54 25 146l83 314q8 34 8 48q0 22 -14.5 29t-52.5 9l6 20q40 -3 129 -3q77 0 125 3l-6 -20q-37 -2 -54.5 -8
t-28 -23t-20.5 -55l-88 -331q-22 -85 -22 -135q0 -55 27.5 -85t90.5 -30q105 0 165.5 68t92.5 191l82 312q7 25 7 44z" />
    <glyph glyph-name="utilde" unicode="&#x169;" horiz-adv-x="683" 
d="M454 785q21 -10 47 -30q21 -17 36.5 -25t36.5 -8q38 0 70 58l18 -5q-22 -52 -57 -77.5t-73 -25.5q-32 0 -53 10t-47 30q-21 17 -36.5 25t-36.5 8q-38 0 -70 -58l-18 5q22 52 57 77.5t73 25.5q32 0 53 -10zM476 79q-37 -43 -90.5 -68t-114.5 -25q-112 0 -154 54
q-18 23 -27 47t-9 55q0 50 26 146l57 214q8 34 8 48q0 22 -14.5 29t-52.5 9l6 20q40 -3 129 -3q77 0 125 3l-6 -20q-37 -2 -54.5 -8t-28 -23t-20.5 -55l-62 -231q-22 -85 -22 -135q0 -55 27 -85t91 -30q105 0 165.5 68t92.5 191l57 212q7 25 7 45q0 27 -17.5 38t-56.5 13
l5 20q36 -3 101 -3q61 0 94 3l-5 -20q-45 -2 -68 -22t-38 -74l-53 -201q-36 -138 -98 -212z" />
    <glyph glyph-name="Umacron" unicode="&#x16a;" horiz-adv-x="682" 
d="M650 819h-352l6 25h352zM638 636q0 28 -17 39t-57 13l5 20q35 -3 101 -3q59 0 94 3l-5 -20q-35 -2 -54.5 -10.5t-31 -28t-20.5 -57.5l-78 -301q-36 -138 -98 -212q-37 -43 -90.5 -68t-114.5 -25q-107 0 -154 54q-18 21 -26.5 45.5t-8.5 56.5q0 54 25 146l83 314
q8 34 8 48q0 22 -14.5 29t-52.5 9l6 20q40 -3 129 -3q77 0 125 3l-6 -20q-37 -2 -54.5 -8t-28 -23t-20.5 -55l-88 -331q-22 -85 -22 -135q0 -55 27.5 -85t90.5 -30q105 0 165.5 68t92.5 191l82 312q7 25 7 44z" />
    <glyph glyph-name="umacron" unicode="&#x16b;" horiz-adv-x="683" 
d="M616 719h-352l6 25h352zM476 79q-37 -43 -90.5 -68t-114.5 -25q-112 0 -154 54q-18 23 -27 47t-9 55q0 50 26 146l57 214q8 34 8 48q0 22 -14.5 29t-52.5 9l6 20q40 -3 129 -3q77 0 125 3l-6 -20q-37 -2 -54.5 -8t-28 -23t-20.5 -55l-62 -231q-22 -85 -22 -135
q0 -55 27 -85t91 -30q105 0 165.5 68t92.5 191l57 212q7 25 7 45q0 27 -17.5 38t-56.5 13l5 20q36 -3 101 -3q61 0 94 3l-5 -20q-45 -2 -68 -22t-38 -74l-53 -201q-36 -138 -98 -212z" />
    <glyph glyph-name="Ubreve" unicode="&#x16c;" horiz-adv-x="682" 
d="M612.5 864q60.5 15 106.5 43l10 -11q-43 -43 -116 -78.5t-132 -35.5q-62 0 -101 32.5t-50 83.5l16 5q26 -30 61 -42t91 -12q54 0 114.5 15zM638 636q0 28 -17 39t-57 13l5 20q35 -3 101 -3q59 0 94 3l-5 -20q-35 -2 -54.5 -10.5t-31 -28t-20.5 -57.5l-78 -301
q-36 -138 -98 -212q-37 -43 -90.5 -68t-114.5 -25q-107 0 -154 54q-18 21 -26.5 45.5t-8.5 56.5q0 54 25 146l83 314q8 34 8 48q0 22 -14.5 29t-52.5 9l6 20q40 -3 129 -3q77 0 125 3l-6 -20q-37 -2 -54.5 -8t-28 -23t-20.5 -55l-88 -331q-22 -85 -22 -135q0 -55 27.5 -85
t90.5 -30q105 0 165.5 68t92.5 191l82 312q7 25 7 44z" />
    <glyph glyph-name="ubreve" unicode="&#x16d;" horiz-adv-x="683" 
d="M575.5 764q60.5 15 106.5 43l10 -11q-43 -43 -116 -78.5t-132 -35.5q-62 0 -101 32.5t-50 83.5l16 5q26 -30 61 -42t91 -12q54 0 114.5 15zM476 79q-37 -43 -90.5 -68t-114.5 -25q-112 0 -154 54q-18 23 -27 47t-9 55q0 50 26 146l57 214q8 34 8 48q0 22 -14.5 29
t-52.5 9l6 20q40 -3 129 -3q77 0 125 3l-6 -20q-37 -2 -54.5 -8t-28 -23t-20.5 -55l-62 -231q-22 -85 -22 -135q0 -55 27 -85t91 -30q105 0 165.5 68t92.5 191l57 212q7 25 7 45q0 27 -17.5 38t-56.5 13l5 20q36 -3 101 -3q61 0 94 3l-5 -20q-45 -2 -68 -22t-38 -74
l-53 -201q-36 -138 -98 -212z" />
    <glyph glyph-name="Uring" unicode="&#x16e;" horiz-adv-x="682" 
d="M566.5 903q24.5 -22 24.5 -58q0 -42 -33.5 -72.5t-78.5 -30.5q-36 0 -59.5 21.5t-23.5 58.5q0 43 32 73t77 30q37 0 61.5 -22zM540 787q25 24 25 59q0 27 -19.5 42.5t-44.5 15.5q-31 0 -55 -24.5t-24 -56.5q0 -28 18 -44t43 -16q32 0 57 24zM638 636q0 28 -17 39t-57 13
l5 20q35 -3 101 -3q59 0 94 3l-5 -20q-35 -2 -54.5 -10.5t-31 -28t-20.5 -57.5l-78 -301q-36 -138 -98 -212q-37 -43 -90.5 -68t-114.5 -25q-107 0 -154 54q-18 21 -26.5 45.5t-8.5 56.5q0 54 25 146l83 314q8 34 8 48q0 22 -14.5 29t-52.5 9l6 20q40 -3 129 -3q77 0 125 3
l-6 -20q-37 -2 -54.5 -8t-28 -23t-20.5 -55l-88 -331q-22 -85 -22 -135q0 -55 27.5 -85t90.5 -30q105 0 165.5 68t92.5 191l82 312q7 25 7 44z" />
    <glyph glyph-name="uring" unicode="&#x16f;" horiz-adv-x="683" 
d="M543.5 803q24.5 -22 24.5 -58q0 -42 -33.5 -72.5t-78.5 -30.5q-36 0 -59.5 21.5t-23.5 58.5q0 43 32 73t77 30q37 0 61.5 -22zM517 687q25 24 25 59q0 27 -19.5 42.5t-44.5 15.5q-31 0 -55 -24.5t-24 -56.5q0 -28 18 -44t43 -16q32 0 57 24zM476 79q-37 -43 -90.5 -68
t-114.5 -25q-112 0 -154 54q-18 23 -27 47t-9 55q0 50 26 146l57 214q8 34 8 48q0 22 -14.5 29t-52.5 9l6 20q40 -3 129 -3q77 0 125 3l-6 -20q-37 -2 -54.5 -8t-28 -23t-20.5 -55l-62 -231q-22 -85 -22 -135q0 -55 27 -85t91 -30q105 0 165.5 68t92.5 191l57 212q7 25 7 45
q0 27 -17.5 38t-56.5 13l5 20q36 -3 101 -3q61 0 94 3l-5 -20q-45 -2 -68 -22t-38 -74l-53 -201q-36 -138 -98 -212z" />
    <glyph glyph-name="Uhungarumlaut" unicode="&#x170;" horiz-adv-x="682" 
d="M608 857q50 48 74 65q18 14 37 14q16 0 24 -12q5 -8 5 -15q0 -21 -33 -46q-30 -20 -88 -45q-8 -4 -37.5 -17.5t-55.5 -28.5l-6 12q30 23 80 73zM421 857q50 48 74 65q7 6 17.5 10t19.5 4q17 0 25 -14q3 -7 3 -14q0 -21 -32 -45q-30 -20 -88 -45q-8 -4 -37.5 -17.5
t-55.5 -28.5l-6 12q30 23 80 73zM638 636q0 28 -17 39t-57 13l5 20q35 -3 101 -3q59 0 94 3l-5 -20q-35 -2 -54.5 -10.5t-31 -28t-20.5 -57.5l-78 -301q-36 -138 -98 -212q-37 -43 -90.5 -68t-114.5 -25q-107 0 -154 54q-18 21 -26.5 45.5t-8.5 56.5q0 54 25 146l83 314
q8 34 8 48q0 22 -14.5 29t-52.5 9l6 20q40 -3 129 -3q77 0 125 3l-6 -20q-37 -2 -54.5 -8t-28 -23t-20.5 -55l-88 -331q-22 -85 -22 -135q0 -55 27.5 -85t90.5 -30q105 0 165.5 68t92.5 191l82 312q7 25 7 44z" />
    <glyph glyph-name="uhungarumlaut" unicode="&#x171;" horiz-adv-x="683" 
d="M572 757q50 48 74 65q18 14 37 14q16 0 24 -12q5 -8 5 -15q0 -21 -33 -46q-30 -20 -88 -45q-8 -4 -37.5 -17.5t-55.5 -28.5l-6 12q30 23 80 73zM385 757q50 48 74 65q7 6 17.5 10t19.5 4q17 0 25 -14q3 -7 3 -14q0 -21 -32 -45q-30 -20 -88 -45q-8 -4 -37.5 -17.5
t-55.5 -28.5l-6 12q30 23 80 73zM476 79q-37 -43 -90.5 -68t-114.5 -25q-112 0 -154 54q-18 23 -27 47t-9 55q0 50 26 146l57 214q8 34 8 48q0 22 -14.5 29t-52.5 9l6 20q40 -3 129 -3q77 0 125 3l-6 -20q-37 -2 -54.5 -8t-28 -23t-20.5 -55l-62 -231q-22 -85 -22 -135
q0 -55 27 -85t91 -30q105 0 165.5 68t92.5 191l57 212q7 25 7 45q0 27 -17.5 38t-56.5 13l5 20q36 -3 101 -3q61 0 94 3l-5 -20q-45 -2 -68 -22t-38 -74l-53 -201q-36 -138 -98 -212z" />
    <glyph glyph-name="Uogonek" unicode="&#x172;" horiz-adv-x="682" 
d="M284 -37.5q-36 -27.5 -36 -65.5q0 -37 39 -37q19 0 41 8t36 18l11 -17q-60 -57 -129 -57q-36 0 -55 15.5t-19 42.5q0 45 47.5 79t108.5 54h38q-46 -13 -82 -40.5zM638 636q0 28 -17 39t-57 13l5 20q35 -3 101 -3q59 0 94 3l-5 -20q-35 -2 -54.5 -10.5t-31 -28
t-20.5 -57.5l-78 -301q-36 -138 -98 -212q-37 -43 -90.5 -68t-114.5 -25q-107 0 -154 54q-18 21 -26.5 45.5t-8.5 56.5q0 54 25 146l83 314q8 34 8 48q0 22 -14.5 29t-52.5 9l6 20q40 -3 129 -3q77 0 125 3l-6 -20q-37 -2 -54.5 -8t-28 -23t-20.5 -55l-88 -331
q-22 -85 -22 -135q0 -55 27.5 -85t90.5 -30q105 0 165.5 68t92.5 191l82 312q7 25 7 44z" />
    <glyph glyph-name="uogonek" unicode="&#x173;" horiz-adv-x="683" 
d="M278 -37.5q-36 -27.5 -36 -65.5q0 -37 39 -37q19 0 41 8t36 18l11 -17q-60 -57 -129 -57q-36 0 -55 15.5t-19 42.5q0 45 47.5 79t108.5 54h38q-46 -13 -82 -40.5zM476 79q-37 -43 -90.5 -68t-114.5 -25q-112 0 -154 54q-18 23 -27 47t-9 55q0 50 26 146l57 214q8 34 8 48
q0 22 -14.5 29t-52.5 9l6 20q40 -3 129 -3q77 0 125 3l-6 -20q-37 -2 -54.5 -8t-28 -23t-20.5 -55l-62 -231q-22 -85 -22 -135q0 -55 27 -85t91 -30q105 0 165.5 68t92.5 191l57 212q7 25 7 45q0 27 -17.5 38t-56.5 13l5 20q36 -3 101 -3q61 0 94 3l-5 -20q-45 -2 -68 -22
t-38 -74l-53 -201q-36 -138 -98 -212z" />
    <glyph glyph-name="Wcircumflex" unicode="&#x174;" horiz-adv-x="902" 
d="M380 772l-5 14q72 22 134 56.5t101 73.5h18q28 -48 59.5 -79.5t79.5 -50.5l-4 -14q-54 10 -87.5 23.5t-57.5 27t-32 17.5q-111 -47 -206 -68zM994 708l-5 -20q-59 -13 -95 -87l-299 -606h-16l-72 456l-271 -456h-16l-79 629q-8 62 -55 64l4 20q40 -3 99 -3q72 0 108 3
l-4 -20q-31 -2 -44.5 -14t-13.5 -44q0 -6 2 -26l56 -477l209 355l-22 142q-10 62 -45 64l4 20q36 -3 89 -3q86 0 128 3l-4 -20q-45 -2 -62 -12t-17 -40q0 -14 3 -32l72 -455l195 397q33 68 33 97q0 25 -18.5 34.5t-58.5 10.5l5 20q56 -3 114 -3q44 0 76 3z" />
    <glyph glyph-name="wcircumflex" unicode="&#x175;" horiz-adv-x="906" 
d="M338 672l-5 14q72 22 134 56.5t101 73.5h18q28 -48 59.5 -79.5t79.5 -50.5l-4 -14q-54 10 -87.5 23.5t-57.5 27t-32 17.5q-111 -47 -206 -68zM982 608l-5 -20q-31 -9 -55 -30.5t-52 -68.5l-302 -494h-16l-74 453l-269 -453h-16l-66 529q-8 62 -55 64l4 20q41 -3 99 -3
q72 0 108 3l-4 -20q-31 -2 -44.5 -14t-13.5 -44q0 -6 2 -26l43 -376l207 350l-7 46q-10 62 -45 64l4 20q36 -3 89 -3q86 0 128 3l-4 -20q-44 -2 -61.5 -12t-17.5 -40q0 -12 3 -32l64 -376l188 309q45 73 45 110q0 21 -15 30t-45 11l5 20q30 -3 91 -3q63 0 87 3z" />
    <glyph glyph-name="Ycircumflex" unicode="&#x176;" horiz-adv-x="670" 
d="M277 772l-5 14q72 22 134 56.5t101 73.5h18q28 -48 59.5 -79.5t79.5 -50.5l-4 -14q-54 10 -87.5 23.5t-57.5 27t-32 17.5q-111 -47 -206 -68zM742.5 707q13.5 -15 13.5 -38q0 -25 -15 -47.5t-44 -22.5q-20 0 -29 11.5t-9 28.5q0 16 9 32.5t23 29.5h-3q-27 -1 -55 -22
q-52 -38 -112.5 -122.5t-116.5 -218.5l-58 -232q-8 -34 -8 -48q0 -22 14.5 -29t52.5 -9l-5 -20q-45 3 -124 3q-87 0 -131 -3l5 20q36 2 54 8t29 23.5t20 54.5l59 233q-16 142 -43 235t-74 93q-17 0 -28.5 -11t-19.5 -36l-28 -82h-22l33 97q16 47 36.5 67t61.5 20
q53 0 85.5 -43t50.5 -120t31 -199q37 93 85 168t102 129q65 65 118 65q29 0 42.5 -15z" />
    <glyph glyph-name="ycircumflex" unicode="&#x177;" horiz-adv-x="638" 
d="M226 672l-5 14q72 22 134 56.5t101 73.5h18q28 -48 59.5 -79.5t79.5 -50.5l-4 -14q-54 10 -87.5 23.5t-57.5 27t-32 17.5q-111 -47 -206 -68zM685.5 607q13.5 -15 13.5 -38q0 -25 -15 -47.5t-44 -22.5q-20 0 -29 11.5t-9 28.5q0 15 9 32t23 30h-3q-25 -1 -55 -22
q-50 -38 -107 -113t-109 -193l-43 -167q-9 -38 -9 -49q0 -21 14.5 -28t53.5 -9l-5 -20q-45 3 -124 3q-87 0 -131 -3l5 20q36 2 54 8t29 23.5t20 54.5l48 184q-13 120 -35 198.5t-59 78.5q-17 0 -28.5 -11t-19.5 -36l-28 -82h-22l33 97q16 47 36.5 67t61.5 20t66 -29t40 -83
t30 -150l8 -49q70 151 170 250q26 26 57 43.5t61 17.5q29 0 42.5 -15z" />
    <glyph glyph-name="Ydieresis" unicode="&#x178;" horiz-adv-x="670" 
d="M352.5 867.5q20.5 20.5 46.5 20.5q21 0 35.5 -14.5t14.5 -35.5q0 -25 -20 -45.5t-47 -20.5q-22 0 -36 14.5t-14 36.5q0 24 20.5 44.5zM564.5 867.5q20.5 20.5 46.5 20.5q21 0 35.5 -14.5t14.5 -35.5q0 -25 -20 -45.5t-47 -20.5q-22 0 -36 14.5t-14 36.5q0 24 20.5 44.5z
M742.5 707q13.5 -15 13.5 -38q0 -25 -15 -47.5t-44 -22.5q-20 0 -29 11.5t-9 28.5q0 16 9 32.5t23 29.5h-3q-27 -1 -55 -22q-52 -38 -112.5 -122.5t-116.5 -218.5l-58 -232q-8 -34 -8 -48q0 -22 14.5 -29t52.5 -9l-5 -20q-45 3 -124 3q-87 0 -131 -3l5 20q36 2 54 8t29 23.5
t20 54.5l59 233q-16 142 -43 235t-74 93q-17 0 -28.5 -11t-19.5 -36l-28 -82h-22l33 97q16 47 36.5 67t61.5 20q53 0 85.5 -43t50.5 -120t31 -199q37 93 85 168t102 129q65 65 118 65q29 0 42.5 -15z" />
    <glyph glyph-name="Zacute" unicode="&#x179;" horiz-adv-x="652" 
d="M509.5 838.5q35.5 26.5 46.5 34.5q49 38 72 52q18 11 38 11q21 0 28 -16q2 -6 2 -10q0 -13 -10.5 -24.5t-24.5 -19.5q-19 -11 -46.5 -21.5t-32.5 -12.5q-87 -33 -143 -60l-7 11q42 29 77.5 55.5zM719 700q0 -14 -18.5 -30.5t-56.5 -31.5l-277 -272h152l-8 -20h-164
l-283 -278q92 54 173 54q28 0 51 -7t55 -21q34 -14 56.5 -21t51.5 -7q33 0 50.5 17.5t17.5 48.5q0 59 -72 73l4 20q45 -8 75.5 -35.5t30.5 -80.5q0 -54 -33 -88.5t-88 -34.5q-33 0 -58 13.5t-58 40.5q-32 26 -57 39.5t-56 13.5q-38 0 -69 -10.5t-79 -34.5q-18 -26 -38.5 -42
t-35.5 -16q-9 0 -14 5q-6 4 -6 13q0 14 18.5 30.5t56.5 31.5l281 276h-162l7 20h175l279 274q-92 -54 -173 -54q-28 0 -51 7t-55 21q-34 14 -56.5 21t-51.5 7q-33 0 -50.5 -17.5t-17.5 -48.5q0 -59 72 -73l-4 -20q-45 8 -75.5 35.5t-30.5 80.5q0 54 33 88.5t88 34.5
q33 0 58 -13.5t58 -40.5q32 -26 57 -39.5t56 -13.5q38 0 69 10.5t79 34.5q18 26 38.5 42t35.5 16q9 0 14 -5q6 -4 6 -13z" />
    <glyph glyph-name="zacute" unicode="&#x17a;" horiz-adv-x="654" 
d="M444.5 738.5q35.5 26.5 46.5 34.5q49 38 72 52q18 11 38 11q21 0 28 -16q2 -6 2 -10q0 -13 -10.5 -24.5t-24.5 -19.5q-19 -11 -46.5 -21.5t-32.5 -12.5q-87 -33 -143 -60l-7 11q42 29 77.5 55.5zM700 600q0 -14 -18.5 -30.5t-56.5 -31.5l-268 -222h116l-8 -20h-132
l-275 -228q92 54 173 54q28 0 51 -7t55 -21q34 -14 56.5 -21t51.5 -7q33 0 50.5 17.5t17.5 48.5q0 59 -72 73l4 20q45 -8 75.5 -35.5t30.5 -80.5q0 -54 -33 -88.5t-88 -34.5q-33 0 -58 13.5t-58 40.5q-32 26 -57 39.5t-56 13.5q-38 0 -69 -10.5t-79 -34.5q-18 -26 -38.5 -42
t-35.5 -16q-9 0 -14 5q-6 4 -6 13q0 14 18.5 30.5t56.5 31.5l273 226h-114l7 20h131l270 224q-92 -54 -173 -54q-28 0 -51 7t-55 21q-34 14 -56.5 21t-51.5 7q-33 0 -50.5 -17.5t-17.5 -48.5q0 -59 72 -73l-4 -20q-45 8 -75.5 35.5t-30.5 80.5q0 54 33 88.5t88 34.5
q33 0 58 -13.5t58 -40.5q32 -26 57 -39.5t56 -13.5q38 0 69 10.5t79 34.5q18 26 38.5 42t35.5 16q9 0 14 -5q6 -4 6 -13z" />
    <glyph glyph-name="Zdotaccent" unicode="&#x17b;" horiz-adv-x="652" 
d="M440 876.5q22 23.5 52 23.5q23 0 37 -15t14 -38q0 -28 -22 -51.5t-53 -23.5q-22 0 -36 15t-14 38q0 28 22 51.5zM719 700q0 -14 -18.5 -30.5t-56.5 -31.5l-277 -272h152l-8 -20h-164l-283 -278q92 54 173 54q28 0 51 -7t55 -21q34 -14 56.5 -21t51.5 -7q33 0 50.5 17.5
t17.5 48.5q0 59 -72 73l4 20q45 -8 75.5 -35.5t30.5 -80.5q0 -54 -33 -88.5t-88 -34.5q-33 0 -58 13.5t-58 40.5q-32 26 -57 39.5t-56 13.5q-38 0 -69 -10.5t-79 -34.5q-18 -26 -38.5 -42t-35.5 -16q-9 0 -14 5q-6 4 -6 13q0 14 18.5 30.5t56.5 31.5l281 276h-162l7 20h175
l279 274q-92 -54 -173 -54q-28 0 -51 7t-55 21q-34 14 -56.5 21t-51.5 7q-33 0 -50.5 -17.5t-17.5 -48.5q0 -59 72 -73l-4 -20q-45 8 -75.5 35.5t-30.5 80.5q0 54 33 88.5t88 34.5q33 0 58 -13.5t58 -40.5q32 -26 57 -39.5t56 -13.5q38 0 69 10.5t79 34.5q18 26 38.5 42
t35.5 16q9 0 14 -5q6 -4 6 -13z" />
    <glyph glyph-name="zdotaccent" unicode="&#x17c;" horiz-adv-x="654" 
d="M425 776.5q22 23.5 52 23.5q23 0 37 -15t14 -38q0 -28 -22 -51.5t-53 -23.5q-22 0 -36 15t-14 38q0 28 22 51.5zM700 600q0 -14 -18.5 -30.5t-56.5 -31.5l-268 -222h116l-8 -20h-132l-275 -228q92 54 173 54q28 0 51 -7t55 -21q34 -14 56.5 -21t51.5 -7q33 0 50.5 17.5
t17.5 48.5q0 59 -72 73l4 20q45 -8 75.5 -35.5t30.5 -80.5q0 -54 -33 -88.5t-88 -34.5q-33 0 -58 13.5t-58 40.5q-32 26 -57 39.5t-56 13.5q-38 0 -69 -10.5t-79 -34.5q-18 -26 -38.5 -42t-35.5 -16q-9 0 -14 5q-6 4 -6 13q0 14 18.5 30.5t56.5 31.5l273 226h-114l7 20h131
l270 224q-92 -54 -173 -54q-28 0 -51 7t-55 21q-34 14 -56.5 21t-51.5 7q-33 0 -50.5 -17.5t-17.5 -48.5q0 -59 72 -73l-4 -20q-45 8 -75.5 35.5t-30.5 80.5q0 54 33 88.5t88 34.5q33 0 58 -13.5t58 -40.5q32 -26 57 -39.5t56 -13.5q38 0 69 10.5t79 34.5q18 26 38.5 42
t35.5 16q9 0 14 -5q6 -4 6 -13z" />
    <glyph glyph-name="Zcaron" unicode="&#x17d;" horiz-adv-x="652" 
d="M685 924l5 -14q-72 -22 -134 -56.5t-101 -73.5h-18q-28 48 -59.5 79.5t-79.5 50.5l4 14q54 -10 87.5 -23.5t57.5 -27t32 -17.5q111 47 206 68zM719 700q0 -14 -18.5 -30.5t-56.5 -31.5l-277 -272h152l-8 -20h-164l-283 -278q92 54 173 54q28 0 51 -7t55 -21
q34 -14 56.5 -21t51.5 -7q33 0 50.5 17.5t17.5 48.5q0 59 -72 73l4 20q45 -8 75.5 -35.5t30.5 -80.5q0 -54 -33 -88.5t-88 -34.5q-33 0 -58 13.5t-58 40.5q-32 26 -57 39.5t-56 13.5q-38 0 -69 -10.5t-79 -34.5q-18 -26 -38.5 -42t-35.5 -16q-9 0 -14 5q-6 4 -6 13
q0 14 18.5 30.5t56.5 31.5l281 276h-162l7 20h175l279 274q-92 -54 -173 -54q-28 0 -51 7t-55 21q-34 14 -56.5 21t-51.5 7q-33 0 -50.5 -17.5t-17.5 -48.5q0 -59 72 -73l-4 -20q-45 8 -75.5 35.5t-30.5 80.5q0 54 33 88.5t88 34.5q33 0 58 -13.5t58 -40.5q32 -26 57 -39.5
t56 -13.5q38 0 69 10.5t79 34.5q18 26 38.5 42t35.5 16q9 0 14 -5q6 -4 6 -13z" />
    <glyph glyph-name="zcaron" unicode="&#x17e;" horiz-adv-x="654" 
d="M680 824l5 -14q-72 -22 -134 -56.5t-101 -73.5h-18q-28 48 -59.5 79.5t-79.5 50.5l4 14q54 -10 87.5 -23.5t57.5 -27t32 -17.5q111 47 206 68zM700 600q0 -14 -18.5 -30.5t-56.5 -31.5l-268 -222h116l-8 -20h-132l-275 -228q92 54 173 54q28 0 51 -7t55 -21
q34 -14 56.5 -21t51.5 -7q33 0 50.5 17.5t17.5 48.5q0 59 -72 73l4 20q45 -8 75.5 -35.5t30.5 -80.5q0 -54 -33 -88.5t-88 -34.5q-33 0 -58 13.5t-58 40.5q-32 26 -57 39.5t-56 13.5q-38 0 -69 -10.5t-79 -34.5q-18 -26 -38.5 -42t-35.5 -16q-9 0 -14 5q-6 4 -6 13
q0 14 18.5 30.5t56.5 31.5l273 226h-114l7 20h131l270 224q-92 -54 -173 -54q-28 0 -51 7t-55 21q-34 14 -56.5 21t-51.5 7q-33 0 -50.5 -17.5t-17.5 -48.5q0 -59 72 -73l-4 -20q-45 8 -75.5 35.5t-30.5 80.5q0 54 33 88.5t88 34.5q33 0 58 -13.5t58 -40.5q32 -26 57 -39.5
t56 -13.5q38 0 69 10.5t79 34.5q18 26 38.5 42t35.5 16q9 0 14 -5q6 -4 6 -13z" />
    <glyph glyph-name="longs" unicode="&#x17f;" horiz-adv-x="321" 
d="M459.5 762q25.5 -20 25.5 -51q0 -26 -19.5 -47.5t-47.5 -21.5q-19 0 -30 9t-10 25q0 24 15.5 41.5t41.5 25.5q0 9 -13.5 16.5t-32.5 7.5q-30 0 -58 -26q-21 -19 -35 -60.5t-35 -122.5l-11 -43l-185 -689q-54 -2 -90 -14l182 682h-90l6 20h90v1q22 82 45.5 133.5
t56.5 83.5q23 23 56.5 36.5t68.5 13.5q44 0 69.5 -20z" />
    <glyph glyph-name="uni0180" unicode="&#x180;" horiz-adv-x="562" 
d="M221 -10q-37 0 -68.5 11t-48.5 25l-45 -29h-32l126 596h-87l9 47h88q5 25 5 31q0 30 -21 38.5t-49 8.5h-8l9 42h189l-26 -120h169l-9 -47h-170l-18 -79q-4 -18 -11 -44t-14 -50t-11 -38h5q35 67 78 105t105 38q59 0 93 -46.5t34 -134.5q0 -61 -19.5 -123t-56.5 -114.5
t-91.5 -84.5t-124.5 -32zM217 35q40 0 71.5 21t54.5 55.5t38 76t22.5 82.5t7.5 75q0 64 -18.5 90.5t-44.5 26.5q-33 0 -62 -25t-52 -61.5t-38.5 -71.5t-19.5 -56l-37 -177q13 -16 33 -26t45 -10z" />
    <glyph glyph-name="uni0181" unicode="&#x181;" horiz-adv-x="731" 
d="M56 0l8 42h13q34 0 61 12.5t37 59.5l104 490q1 6 2.5 16t1.5 14q0 23 -17.5 31.5t-42.5 8.5q-37 0 -58.5 -24t-21.5 -61q0 -19 11 -36q-19 -14 -38 -14q-22 0 -35 15t-13 32q0 52 37 90t120 38h241q116 0 175 -38t59 -112q0 -55 -21.5 -92.5t-58.5 -60.5t-83 -33l-1 -4
q54 -10 88 -46.5t34 -99.5q0 -110 -73 -169t-215 -59h-314zM336 399h77q95 0 136.5 39.5t41.5 112.5q0 113 -138 113h-60zM262 50h97q103 0 147 47.5t44 137.5q0 114 -140 114h-84z" />
    <glyph glyph-name="uni0182" unicode="&#x182;" horiz-adv-x="604" 
d="M646 708q-25 -66 -38 -118q-6 -22 -13 -62h-22q7 39 7 71q0 47 -21 66.5t-67 19.5h-93q-35 0 -52.5 -5.5t-28 -22.5t-20.5 -55l-60 -226h36q98 0 160 -15t93.5 -51t31.5 -99q0 -68 -43 -115.5t-111.5 -71.5t-143.5 -24l-73 1q-60 2 -99 2q-80 0 -122 -3l4 20q36 2 54 8
t28.5 23t20.5 55l132 496q8 34 8 48q0 22 -14.5 29t-52.5 9l5 20l34 -1q56 -2 87 -2h64h102q144 0 207 3zM234 359l-67 -253q-9 -36 -9 -49q0 -18 13.5 -26t46.5 -8q127 0 184 51.5t57 151.5q0 46 -17.5 75t-61 43.5t-119.5 14.5h-27z" />
    <glyph glyph-name="uni0183" unicode="&#x183;" horiz-adv-x="562" 
d="M221 -10q-37 0 -68.5 11t-48.5 25l-45 -29h-32l132 621q5 20 7 34t2 19q0 30 -21 38.5t-49 8.5h-8l9 42h433l-34 -160h-47v21q-1 59 -14.5 76t-46.5 17h-112l-38 -179q-4 -19 -11 -44.5t-14 -49.5t-11 -38h5q35 67 78 105t105 38q59 0 93 -46t34 -135q0 -61 -20 -126.5
t-58.5 -122t-94 -91.5t-125.5 -35zM217 35q40 0 72 23t56 61t40 82.5t24 87.5t8 77q0 64 -18.5 90.5t-44.5 26.5q-33 0 -62 -25t-52 -61.5t-38.5 -71.5t-19.5 -56l-43 -198q13 -16 33 -26t45 -10z" />
    <glyph glyph-name="uni0184" unicode="&#x184;" horiz-adv-x="584" 
d="M297 -10q-73 0 -117.5 25t-64 64.5t-19.5 81.5q0 20 1 33.5t4 27.5l81 382q4 16 4 28q0 26 -21.5 33t-50.5 7h-13l9 42h291l-8 -42h-13q-34 0 -61 -12.5t-37 -59.5l-44 -205h57q75 0 123 -14t75 -38.5t37.5 -55.5t10.5 -64q0 -106 -62 -169.5t-182 -63.5zM301 37
q45 0 74 23.5t43.5 63.5t14.5 90q0 73 -35 103.5t-106 30.5h-64l-26 -123q-4 -20 -5.5 -34.5t-1.5 -35.5q0 -118 106 -118z" />
    <glyph glyph-name="uni0185" unicode="&#x185;" horiz-adv-x="547" 
d="M191 -10q-71 0 -102.5 43.5t-31.5 111.5q0 25 3.5 57t11.5 71l72 345q4 20 6.5 34t2.5 19q0 30 -20.5 38.5t-49.5 8.5h-8l9 42h189l-48 -225q-4 -19 -11 -44.5t-13.5 -49.5t-11.5 -38h5q35 67 78.5 105t104.5 38q59 0 93 -46t34 -135q0 -61 -21 -126.5t-61.5 -122
t-98.5 -91.5t-132 -35zM214 43q38 0 68 22.5t52.5 59t37.5 79.5t22.5 85.5t7.5 76.5q0 64 -18.5 90.5t-44.5 26.5q-31 0 -59.5 -23t-52.5 -60.5t-41.5 -84t-27.5 -93.5t-10 -88q0 -45 14.5 -68t51.5 -23z" />
    <glyph glyph-name="uni0186" unicode="&#x186;" horiz-adv-x="627" 
d="M184 -10q-67 0 -106.5 18.5t-56.5 44t-17 48.5q0 36 25 57t68 21q0 -27 7 -59t28.5 -54.5t64.5 -22.5q65 0 118 33.5t91.5 90t59.5 126.5t21 144q0 126 -43 181.5t-130 55.5q-46 0 -76.5 -22.5t-48 -56t-24.5 -66.5q-32 0 -52.5 17.5t-20.5 51.5q0 26 24 55t74 50t130 21
q130 0 203 -70.5t73 -201.5q0 -97 -29.5 -181t-84 -147t-130 -98.5t-168.5 -35.5z" />
    <glyph glyph-name="uni0187" unicode="&#x187;" horiz-adv-x="627" 
d="M328 -10q-130 0 -203 70t-73 198q0 89 29 172.5t83.5 149.5t130.5 105t169 39q98 0 146 -37l4 19q16 81 49.5 116t89.5 35q25 0 42.5 -14t17.5 -40q0 -22 -22 -40q-20 18 -44 18q-31 0 -49.5 -17t-29.5 -69l-17 -78q-9 -42 -34.5 -62t-65.5 -20q0 27 -7 59t-28.5 54.5
t-64.5 22.5q-55 0 -100.5 -26.5t-81 -71t-59.5 -100.5t-36.5 -115.5t-12.5 -115.5q0 -89 44.5 -138t133.5 -49q71 0 115 28.5t70 62.5q13 -10 13 -33q0 -27 -21.5 -55.5t-67.5 -48t-120 -19.5z" />
    <glyph glyph-name="uni0188" unicode="&#x188;" horiz-adv-x="502" 
d="M238 -10q-54 0 -98 23t-70.5 68.5t-26.5 115.5q0 55 19 116t57 114t93.5 86t128.5 33q35 0 61.5 -7.5t44.5 -19.5l18 90q17 81 50 116t89 35q25 0 42.5 -14t17.5 -40q0 -22 -22 -40q-16 18 -44 18q-33 0 -51 -20.5t-28 -65.5l-32 -152q-5 -26 -26.5 -46t-62.5 -20
q0 48 -18.5 83t-58.5 35q-32 0 -59 -21.5t-48.5 -56t-36 -76t-22.5 -82.5t-8 -73q0 -65 28 -100.5t82 -35.5q53 0 88 23t56 49q10 -7 10 -25q0 -22 -18.5 -47.5t-56.5 -44t-98 -18.5z" />
    <glyph glyph-name="uni0189" unicode="&#x189;" horiz-adv-x="725" 
d="M432 341h-412l6 25h412zM642 249.5q-62 -112.5 -170.5 -181t-241.5 -68.5l-58 1q-56 2 -82 2q-81 0 -120 -3l3 20q34 2 51.5 8t28 23.5t20.5 54.5l131 496q9 38 9 49q0 20 -14.5 28t-52.5 9l3 20q34 -3 97 -3l85 1q68 2 91 2q141 0 211.5 -56t70.5 -165
q0 -125 -62 -237.5zM430 85.5q88 67.5 133 180.5t45 246q0 91 -51 134.5t-163 43.5q-31 0 -48.5 -7t-28.5 -25t-20 -54l-131 -500q-9 -36 -9 -49q0 -19 13.5 -28t47.5 -9q124 0 212 67.5z" />
    <glyph glyph-name="uni018A" unicode="&#x18a;" horiz-adv-x="802" 
d="M56 0l8 42h13q34 0 61 12.5t37 59.5l104 490q1 6 2.5 16t1.5 14q0 23 -17.5 31.5t-42.5 8.5q-37 0 -58.5 -24t-21.5 -61q0 -19 11 -36q-19 -14 -38 -14q-22 0 -35 16.5t-13 43.5q0 28 16 54.5t51 43.5t90 17h262q135 0 209.5 -69.5t74.5 -202.5q0 -89 -26 -169
t-77 -141.5t-125.5 -96.5t-171.5 -35h-315zM262 51h87q99 0 169 51.5t107 142t37 208.5q0 109 -51.5 160t-138.5 51h-79z" />
    <glyph glyph-name="uni018B" unicode="&#x18b;" horiz-adv-x="610" 
d="M258 0q-105 0 -166.5 44.5t-61.5 130.5q0 35 12 73t44 71.5t91.5 54.5t154.5 21h70l58 277h-158q-43 0 -64.5 -22t-37.5 -68l-14 -43h-52l42 175h488l-9 -42h-13q-33 0 -59.5 -12.5t-36.5 -59.5l-104 -490q-4 -16 -4 -28q0 -26 20 -33t52 -7h13l-9 -42h-256zM282 48h46
l64 300h-47q-77 0 -122.5 -21.5t-66 -60t-20.5 -89.5q0 -70 37.5 -99.5t108.5 -29.5z" />
    <glyph glyph-name="uni018C" unicode="&#x18c;" horiz-adv-x="579" 
d="M172 -10q-44 0 -73 24t-42.5 65.5t-13.5 93.5q0 47 12.5 98.5t37.5 100t61 88t83 63t104 23.5q29 0 55 -7.5t45 -18.5q1 10 3.5 26t5.5 32l29 140h-157q-36 0 -55.5 -17t-36.5 -64l-12 -33h-49l39 156h374l-116 -545q-2 -11 -6 -32t-6.5 -43t-2.5 -36q0 -51 33 -51
q16 0 34.5 7.5t37.5 18.5l18 -29q-14 -13 -38 -27t-51 -23.5t-52 -9.5q-36 0 -57 22t-21 61q0 20 2.5 36.5t7.5 41.5h-6q-35 -77 -81.5 -119t-105.5 -42zM208 53q26 0 53.5 20t52 54t43.5 76t28 85l37 177q-11 18 -32 27t-44 9q-40 0 -72 -22.5t-56 -59.5t-40.5 -81
t-24.5 -88.5t-8 -80.5q0 -62 18 -89t45 -27z" />
    <glyph glyph-name="uni018D" unicode="&#x18d;" horiz-adv-x="577" 
d="M335 546q95 0 148.5 -52t53.5 -137q0 -81 -33.5 -135t-91 -88t-130.5 -55q36 -28 59 -64t23 -79q0 -56 -27.5 -92.5t-72 -54.5t-96.5 -18q-83 0 -123.5 29t-40.5 62q0 38 24.5 57t59.5 19q0 -52 20.5 -86.5t70.5 -34.5q46 0 73 29t27 70q0 35 -24 65.5t-74 67.5
q-58 43 -91.5 92t-33.5 110q0 89 38 155.5t101.5 103t139.5 36.5zM326 494q-51 0 -90 -28.5t-61 -79t-22 -116.5q0 -63 28 -100t66 -64q54 15 98.5 47.5t70.5 83t26 118.5q0 69 -31.5 104t-84.5 35z" />
    <glyph glyph-name="uni018E" unicode="&#x18e;" horiz-adv-x="623" 
d="M-3 0l32 175h52q-1 -5 -2 -18t-2 -25t-1 -15q0 -28 16 -47.5t55 -19.5h193l64 299h-241l10 49h241l57 266h-168q-47 0 -74 -24.5t-39 -57.5l-16 -43h-52l44 175h511l-8 -42h-13q-33 0 -60 -11t-37 -56l-104 -491q-3 -14 -3 -24q0 -32 20.5 -40t49.5 -8h13l-9 -42h-529z
" />
    <glyph glyph-name="uni018F" unicode="&#x18f;" horiz-adv-x="711" 
d="M623.5 658.5q61.5 -63.5 61.5 -189.5q0 -121 -54.5 -232.5t-151.5 -181t-218 -69.5q-101 0 -160 51t-59 150q0 49 15 109h494q15 40 24.5 92.5t9.5 96.5q0 99 -47.5 155t-125.5 56q-44 0 -93.5 -18t-85.5 -52q-25 -24 -44 -58t-45 -100h-23q24 81 34.5 131.5t20.5 108.5
h23q-3 -21 -3 -34q0 -25 13 -25q9 0 23 8q55 32 100 48.5t111 16.5q119 0 180.5 -63.5zM432 73q69 68 116 204h-398q-17 -59 -17 -107q0 -75 38.5 -120t108.5 -45q83 0 152 68z" />
    <glyph glyph-name="uni0190" unicode="&#x190;" horiz-adv-x="593" 
d="M277 -11q-65 0 -120.5 17.5t-89 56t-33.5 101.5q0 64 29 108t79 68.5t113 32.5l1 5q-52 14 -89 46.5t-37 96.5q0 54 22.5 93t61 63t86 35.5t97.5 11.5q98 0 151 -34.5t53 -85.5q0 -44 -28.5 -61.5t-67.5 -17.5q0 67 -29.5 108t-91.5 41q-65 0 -108 -41t-43 -120
q0 -55 35.5 -86.5t92.5 -31.5h85l-11 -51h-85q-94 0 -148.5 -41t-54.5 -128q0 -62 37.5 -91t101.5 -29q61 0 109.5 18.5t95.5 66.5q14 -8 14 -28q0 -36 -29 -63.5t-80.5 -43.5t-118.5 -16z" />
    <glyph glyph-name="uni0191" unicode="&#x191;" horiz-adv-x="590" 
d="M-67 -240q-27 0 -45.5 3t-36.5 8l14 45q13 -4 31.5 -6.5t33.5 -2.5q34 0 61 16.5t47 56.5t35 111l129 613q4 16 4 28q0 26 -20 33t-52 7h-13l9 42h504l-32 -175h-52q2 17 3.5 35.5t1.5 22.5q0 29 -16.5 48t-58.5 19h-164l-62 -289h241l-10 -49h-241l-71 -334
q-25 -118 -81.5 -175t-158.5 -57z" />
    <glyph glyph-name="florin" unicode="&#x192;" horiz-adv-x="466" 
d="M479.5 602q26.5 -20 26.5 -50q0 -28 -19.5 -49t-48.5 -21q-20 0 -31.5 9t-11.5 26q0 22 15.5 40t43.5 26q-1 10 -14 17t-33 7q-44 0 -74 -37q-18 -22 -32.5 -64.5t-43.5 -150.5h168l-5 -20h-168l-59 -220q-22 -81 -49.5 -142t-68.5 -100q-32 -30 -66.5 -45.5t-66.5 -15.5
q-27 0 -41 11t-14 28q0 25 17.5 43t43.5 18q16 0 25.5 -9t9.5 -23q0 -5 -2 -13q-4 -21 -26 -40q41 5 64.5 29t38.5 79l107 400h-122l5 20h122q25 91 47 137.5t59 79.5q26 23 60.5 36.5t71.5 13.5q45 0 71.5 -20z" />
    <glyph glyph-name="uni0193" unicode="&#x193;" horiz-adv-x="714" 
d="M336 -10q-141 0 -212.5 72t-71.5 196q0 97 31 181.5t88 148.5t136 100t175 36q60 0 102.5 -11t68.5 -29l4 22q16 81 49.5 116t89.5 35q25 0 42.5 -14t17.5 -40q0 -22 -22 -40q-20 18 -44 18q-31 0 -49.5 -17t-29.5 -69l-19 -90q-7 -33 -35.5 -50.5t-69.5 -17.5
q0 59 -30 96.5t-96 37.5q-64 0 -118.5 -35t-95.5 -95t-63.5 -137t-22.5 -162q0 -86 44.5 -140.5t148.5 -54.5q28 0 59 4t54 10l33 159q4 16 4 28q0 26 -21.5 33t-50.5 7h-9l9 42h266l-9 -42h-4q-28 0 -51.5 -12.5t-33.5 -59.5l-38 -180q-55 -23 -108.5 -34.5t-117.5 -11.5z
" />
    <glyph glyph-name="uni0194" unicode="&#x194;" horiz-adv-x="643" 
d="M208 -240q-52 0 -77.5 27t-25.5 77q0 28 12.5 66t43 92t84.5 131l-112 466q-7 31 -18.5 42t-40.5 11h-4l9 42h263l-8 -42h-23q-32 0 -52 -13.5t-20 -37.5q0 -8 0.5 -17.5t1.5 -16.5l82 -354l236 347q11 16 15 31t4 25q0 36 -56 36h-23l8 42h237l-9 -42h-9q-20 0 -32 -7
t-25 -24t-35 -47l-294 -422q17 -78 22 -130.5t5 -95.5q0 -88 -45.5 -137t-113.5 -49zM208 -186q26 0 46.5 31t20.5 91q0 28 -5 69t-11 75q-52 -77 -74 -131t-22 -83t12.5 -40.5t32.5 -11.5z" />
    <glyph glyph-name="uni0195" unicode="&#x195;" horiz-adv-x="880" 
d="M543 -10q-91 0 -132.5 37t-41.5 92q0 15 2 30.5t6 33.5l28 120q8 36 14.5 70t6.5 49q0 20 -8.5 39.5t-37.5 19.5q-32 0 -62.5 -23t-57 -59t-45 -74.5t-24.5 -68.5l-54 -256h-93l130 618q4 20 6.5 34t2.5 19q0 30 -20.5 38.5t-49.5 8.5h-8l9 42h184l-39 -184
q-11 -53 -23 -100t-17 -66h11q40 66 84.5 100.5t100.5 34.5q59 0 83 -33.5t24 -77.5q0 -25 -6.5 -54.5t-11.5 -55.5l-31 -142q-4 -18 -6.5 -33.5t-2.5 -30.5q0 -40 21 -59t60 -19q57 0 85 35t41 96l76 365h97l-78 -373q-19 -90 -73.5 -131.5t-149.5 -41.5z" />
    <glyph glyph-name="uni0196" unicode="&#x196;" horiz-adv-x="362" 
d="M207 -10q-61 0 -89.5 29t-28.5 88q0 18 3 41.5t7 42.5l88 413q4 16 4 28q0 26 -20.5 33t-51.5 7h-13l9 42h291l-9 -42h-13q-34 0 -60.5 -12.5t-36.5 -59.5l-90 -420q-5 -25 -8.5 -47.5t-3.5 -38.5q0 -34 13.5 -44.5t35.5 -10.5q14 0 26.5 2t23.5 5l8 -44q-44 -12 -85 -12
z" />
    <glyph glyph-name="uni0197" unicode="&#x197;" horiz-adv-x="367" 
d="M-21 0l8 42h13q34 0 61 12.5t37 59.5l50 235h-97l11 49h96l44 206q4 16 4 28q0 26 -20 33t-52 7h-13l9 42h291l-9 -42h-13q-34 0 -60.5 -12.5t-36.5 -59.5l-43 -202h96l-11 -49h-95l-51 -239q-4 -16 -4 -28q0 -26 20 -33t52 -7h13l-9 -42h-291z" />
    <glyph glyph-name="uni0198" unicode="&#x198;" horiz-adv-x="700" 
d="M-21 0l8 42h13q34 0 61 12.5t37 59.5l104 490q4 16 4 28q0 26 -20 33t-52 7h-13l9 42h291l-9 -42h-13q-34 0 -60.5 -12.5t-36.5 -59.5l-55 -255l338 322q32 31 59 44t56 13q28 0 47 -13.5t19 -44.5q0 -32 -18 -51t-41 -20q-3 20 -12.5 34.5t-29.5 14.5q-12 0 -25 -4.5
t-27 -18.5l-203 -194l131 -305q17 -40 38.5 -60t55.5 -20h4l-9 -42h-14q-60 0 -94 9t-53 29t-33 55l-107 260l-94 -66l-37 -177q-4 -16 -4 -28q0 -26 20 -33t52 -7h13l-9 -42h-291z" />
    <glyph glyph-name="uni0199" unicode="&#x199;" horiz-adv-x="569" 
d="M508 -7q-52 1 -84.5 10.5t-53 31.5t-36.5 61l-65 160l-91 -58l-41 -198h-93l124 591q18 85 59 132t117 47q58 0 88.5 -20.5t30.5 -53.5t-21.5 -49t-61.5 -16q0 38 -8 65.5t-34 27.5q-31 0 -45.5 -31t-28.5 -93l-46 -206q-7 -32 -16 -73.5t-21 -73.5l158 137
q41 35 57 55.5t16 34.5q0 13 -9.5 16.5t-34.5 3.5l9 42h221l-9 -42q-35 0 -73.5 -25t-87.5 -69l-90 -83l91 -198q17 -37 40 -60.5t62 -23.5l-9 -42h-14z" />
    <glyph glyph-name="uni019A" unicode="&#x19a;" horiz-adv-x="304" 
d="M156 -10q-40 0 -61.5 28t-21.5 67q0 21 4 50t9 58t9 49l26 123h-87l9 47h88l46 214q3 14 4.5 27t1.5 18q0 30 -20.5 38.5t-49.5 8.5h-12l9 42h189l-74 -348h88l-9 -47h-89l-32 -150q-3 -11 -6.5 -32t-6.5 -43t-3 -36q0 -51 33 -51q16 0 34.5 7.5t37.5 18.5l18 -29
q-22 -20 -59 -40t-75 -20z" />
    <glyph glyph-name="uni019B" unicode="&#x19b;" horiz-adv-x="535" 
d="M-28 0l346 519q-2 46 -8 79l-135 -69l12 56l114 58q-11 35 -28 48t-39 13q-26 0 -46 -13t-33 -30q-5 4 -8 15t-3 22q0 28 20 50t67 22q45 0 76 -23t47 -77l132 67l-13 -57l-109 -55q3 -18 5 -39l27 -350q8 -104 35.5 -149t58.5 -45h5l-7 -42h-23q-41 0 -66.5 10.5
t-39 42.5t-19.5 97q-4 51 -7 105.5t-4 98t-1 60.5h-3q-5 -16 -20 -45.5t-32 -61t-32 -53.5l-164 -254h-105z" />
    <glyph glyph-name="uni019C" unicode="&#x19c;" horiz-adv-x="1057" 
d="M209 -9q-45 0 -72 20.5t-39 51.5t-12 65q0 28 7 62t13 62l75 352q4 16 4 28q0 26 -20.5 33t-51.5 7h-13l9 42h291l-9 -42h-13q-33 0 -60.5 -12.5t-37.5 -59.5l-67 -319q-7 -31 -14.5 -74.5t-7.5 -81.5q0 -24 14 -43t47 -19q30 0 65 23.5t68 62t58 85t35 92.5l59 278
q4 16 4 28q0 26 -20.5 33t-51.5 7h-13l9 42h291l-9 -42h-13q-33 0 -59.5 -11.5t-36.5 -55.5l-69 -324q-7 -31 -14.5 -74.5t-7.5 -81.5q0 -24 14 -43t47 -19q30 0 65 23.5t68 62t58 85t35 92.5l59 278q4 16 4 28q0 26 -20.5 33t-51.5 7h-13l9 42h291l-9 -42h-13
q-33 0 -59.5 -11.5t-36.5 -55.5l-102 -477q-4 -20 -6 -31t-2 -15q0 -26 20 -33t52 -7h13l-9 -42h-188l33 164h-9q-47 -77 -101 -125t-130 -48q-45 0 -71.5 20.5t-38 51.5t-11.5 65v17.5t2 19.5h-5q-47 -77 -101.5 -125.5t-130.5 -48.5z" />
    <glyph glyph-name="uni019D" unicode="&#x19d;" horiz-adv-x="748" 
d="M-109 -240q-40 0 -71 11l12 45q26 -9 55 -9q58 0 103.5 44.5t66.5 142.5l130 610q4 16 4 28q0 26 -20.5 33t-51.5 7h-13l9 42h182l242 -552l94 442q4 16 4 28q0 26 -20.5 33t-51.5 7h-13l9 42h251l-9 -42h-13q-34 0 -60 -12.5t-37 -59.5l-127 -600h-65l-257 586
l-127 -594q-28 -128 -83 -180t-143 -52z" />
    <glyph glyph-name="uni019E" unicode="&#x19e;" horiz-adv-x="592" 
d="M319 -240q-2 8 -3 18t-1 20q0 31 6 68.5t14 75.5l87 405q7 35 7 54q0 41 -20 61t-57 20q-57 0 -96 -51t-58 -140l-61 -291h-94l72 339q7 31 11 72t5 76t-1 49h57q11 -20 15 -47.5t5 -51.5h6q19 25 43.5 50.5t57 42t74.5 16.5q66 0 101 -32t35 -97q0 -15 -2 -31.5
t-6 -35.5l-89 -420q-7 -35 -11.5 -66.5t-4.5 -57.5q0 -29 4 -46h-96z" />
    <glyph glyph-name="uni019F" unicode="&#x19f;" horiz-adv-x="742" 
d="M645 659q62 -63 62 -178q0 -113 -53.5 -228.5t-149.5 -191t-215 -75.5q-111 0 -173 63t-62 177q0 113 53 229t148.5 191.5t215.5 75.5q112 0 174 -63zM346 658.5q-57 -45.5 -101 -123t-66 -169.5h408q13 68 13 129q0 97 -38 153t-100 56q-59 0 -116 -45.5zM415.5 50.5
q57.5 46.5 101 124.5t65.5 171h-408q-14 -68 -14 -133q0 -97 38 -153t100 -56q60 0 117.5 46.5z" />
    <glyph glyph-name="Ohorn" unicode="&#x1a0;" horiz-adv-x="729" 
d="M828 848q15 -16 15 -39q0 -25 -17.5 -48t-47.5 -41q-65 -38 -160 -39q43 -29 66 -80.5t23 -119.5q0 -113 -53.5 -228.5t-149.5 -191t-215 -75.5q-111 0 -173 63t-62 177q0 113 53 229t148.5 191.5t215.5 75.5q57 0 102 -17q36 -2 49 -2q48 0 81.5 8.5t62.5 25.5
q-37 30 -37 68q0 24 15 41.5t43 17.5q26 0 41 -16zM443.5 76q70.5 72 113.5 186.5t43 232.5q0 97 -38 153t-100 56q-75 0 -145.5 -72t-113.5 -186.5t-43 -232.5q0 -97 38 -153t100 -56q75 0 145.5 72z" />
    <glyph glyph-name="ohorn" unicode="&#x1a1;" horiz-adv-x="732" 
d="M808 748q15 -16 15 -39q0 -25 -17.5 -48t-47.5 -41q-65 -38 -161 -39q45 -29 69 -79.5t24 -120.5q0 -91 -51 -183t-142 -152t-205 -60q-112 0 -179 61t-67 180q0 91 51 183t142 152t205 60q57 0 106 -17q38 -2 52 -2q49 0 82.5 8t61.5 26q-37 30 -37 68q0 24 15 41.5
t43 17.5q26 0 41 -16zM445 61q65 57 101.5 147.5t36.5 186.5q0 108 -39.5 158.5t-108.5 50.5q-79 0 -144 -57t-101.5 -147.5t-36.5 -186.5q0 -108 39.5 -158.5t108.5 -50.5q79 0 144 57z" />
    <glyph glyph-name="uni01A2" unicode="&#x1a2;" horiz-adv-x="1075" 
d="M647 -240l9 42h13q33 0 60.5 12.5t37.5 59.5l124 587q6 28 11 61.5t5 59.5q0 29 -14 49t-47 20q-36 0 -76 -34t-74 -97t-52 -149q-14 -68 -42 -136t-71.5 -123.5t-104.5 -89t-142 -33.5q-66 0 -118.5 31.5t-83 93.5t-30.5 152q0 58 15 121t44.5 123t74 108.5t103.5 77.5
t133 29q66 0 113 -26t74 -71t35 -101h5q46 95 102.5 145.5t137.5 50.5q45 0 70.5 -20.5t36 -51.5t10.5 -65q0 -28 -4 -62t-10 -62l-126 -592q-4 -16 -4 -28q0 -26 20 -33t52 -7h13l-9 -42h-291zM290 44q52 0 92.5 29t70.5 76.5t49.5 105t29 115.5t9.5 107q0 101 -36 147.5
t-91 46.5q-52 0 -93 -29t-71 -76.5t-50 -105t-29.5 -115.5t-9.5 -107q0 -102 37.5 -148t91.5 -46z" />
    <glyph glyph-name="uni01A3" unicode="&#x1a3;" horiz-adv-x="875" 
d="M602 -240q-2 8 -3 18t-1 20q0 31 6 68.5t14 75.5l88 413q6 25 6 46q0 41 -18.5 61t-46.5 20q-44 0 -71 -20t-42.5 -52.5t-23 -69.5t-13.5 -70q-8 -50 -28.5 -99.5t-54 -90t-81 -65.5t-110.5 -25q-79 0 -129.5 51.5t-50.5 155.5q0 55 17.5 116t52.5 114t89 86t127 33
q59 0 103 -32.5t63 -90.5h6q34 59 77.5 91t99.5 32q61 0 95 -32t34 -97q0 -15 -2 -31.5t-6 -35.5l-89 -420q-8 -35 -12.5 -66.5t-3.5 -57.5q0 -29 4 -46h-96zM234 39q45 0 77.5 31.5t52.5 81t29.5 103.5t9.5 99q0 75 -22.5 107t-63.5 32q-36 0 -64 -21t-48 -55.5t-33 -76.5
t-19 -84.5t-6 -78.5q0 -76 23.5 -107t63.5 -31z" />
    <glyph glyph-name="uni01A4" unicode="&#x1a4;" horiz-adv-x="697" 
d="M57 0l9 42h13q33 0 59.5 12.5t36.5 59.5l104 490q1 6 2.5 16t1.5 14q0 23 -17.5 31.5t-42.5 8.5q-37 0 -58.5 -24t-21.5 -61q0 -19 11 -36q-19 -14 -38 -14q-22 0 -35 15t-13 32q0 52 37 90t120 38h238q105 0 166.5 -49t61.5 -144q0 -38 -12 -80t-44.5 -79t-93 -60.5
t-156.5 -23.5h-74l-36 -168q-4 -16 -4 -28q0 -26 20.5 -33t51.5 -7h33l-9 -42h-310zM321 325h53q78 0 124 25t66.5 69t20.5 101q0 79 -37.5 112.5t-108.5 33.5h-46z" />
    <glyph glyph-name="uni01A5" unicode="&#x1a5;" horiz-adv-x="577" 
d="M-7 -240l175 831q18 85 59 132t117 47q58 0 88.5 -20.5t30.5 -53.5t-21.5 -49t-61.5 -16q0 38 -8 65.5t-34 27.5q-31 0 -45.5 -31t-28.5 -93l-15 -74q-6 -31 -14 -61.5t-16 -61.5h5q20 39 45.5 71.5t59 52t78.5 19.5q61 0 94 -46.5t33 -134.5q0 -43 -12 -93.5
t-35.5 -100.5t-59 -91t-83.5 -65.5t-108 -24.5q-29 0 -54 6t-44 17l-2 -15.5t-6 -32.5l-14 -61q-2 -6 -5.5 -25.5t-3.5 -30.5q0 -30 20.5 -38t49.5 -8h13l-9 -42h-188zM233 35q38 0 69.5 22t55.5 59t40.5 80.5t25 88t8.5 81.5q0 29 -5.5 56t-19 44t-38.5 17q-29 0 -57 -22
t-52 -56.5t-41 -72.5t-24 -71l-41 -190q9 -11 30 -23.5t49 -12.5z" />
    <glyph glyph-name="uni01A6" unicode="&#x1a6;" horiz-adv-x="647" 
d="M552 -120q-58 0 -92.5 9.5t-54 35t-31.5 72.5l-54 219h-99l-24 -106q-4 -16 -4 -28q0 -26 20.5 -33t51.5 -7h23l-9 -42h-300l9 42h13q32 0 58.5 11t36.5 56l107 495q4 16 4 28q0 26 -20.5 33t-51.5 7h-13l9 42h291l-9 -42h-13q-34 0 -60.5 -12.5t-36.5 -59.5l-1 -6h65
q115 0 172 -39t57 -125q0 -58 -27.5 -98t-69 -63t-84.5 -33l68 -235q12 -41 30 -60t52 -19h8l-8 -42h-13zM231 263h77q88 0 135 40.5t47 120.5q0 71 -32 96.5t-99 25.5h-68z" />
    <glyph glyph-name="uni01A7" unicode="&#x1a7;" horiz-adv-x="550" 
d="M239 -10q-81 0 -128 24.5t-67 63t-20 78.5q0 56 21.5 99t76.5 81t156 77q22 8 50.5 20t55.5 30t44.5 45t17.5 66q0 50 -30 75t-72 25q-46 0 -76 -34.5t-45 -100.5q-31 0 -52.5 12.5t-21.5 43.5q0 25 21.5 55t67 52t117.5 22q92 0 141 -46t49 -115q0 -79 -61.5 -136.5
t-168.5 -97.5q-75 -28 -115.5 -55t-56.5 -56.5t-16 -64.5q0 -41 29 -70.5t85 -29.5q64 0 114.5 26t85.5 61q7 -4 13 -14t6 -24q0 -25 -30 -51t-80 -43.5t-111 -17.5z" />
    <glyph glyph-name="uni01A8" unicode="&#x1a8;" horiz-adv-x="456" 
d="M193 -10q-80 0 -120.5 39t-40.5 101q0 38 15 70.5t58 63t126 61.5q47 17 71 32.5t32.5 32.5t8.5 38q0 34 -22 52.5t-49 18.5q-79 0 -99 -114q-31 0 -50 12t-19 39q0 26 17.5 51t55 42t96.5 17q76 0 113.5 -37.5t37.5 -92.5q0 -57 -35 -96t-111 -69q-71 -27 -106.5 -47.5
t-47 -39.5t-11.5 -44q0 -32 22.5 -54t72.5 -22q49 0 88.5 24t61.5 68q7 -4 14 -15.5t7 -22.5q0 -25 -18.5 -50t-59.5 -41.5t-108 -16.5z" />
    <glyph glyph-name="uni01A9" unicode="&#x1a9;" horiz-adv-x="605" 
d="M-35 0l6 32l281 323l-121 330l6 29h469l-32 -175h-52q3 30 4 42t1 16q0 28 -15.5 47t-55.5 19h-206l96 -266l-7 -17l-250 -288h284q47 0 73 27t41 68l11 30h52l-51 -217h-534z" />
    <glyph glyph-name="uni01AA" unicode="&#x1aa;" horiz-adv-x="294" 
d="M134 -240q-48 0 -74.5 29t-26.5 88q0 18 3 41.5t7 42.5l123 582q-10 -5 -26 -8t-30 -3q-50 0 -73.5 28.5t-23.5 77.5q0 55 37.5 91t101.5 36q67 0 95 -35t28 -81q0 -21 -3.5 -43t-8.5 -47l-126 -595q-5 -25 -8.5 -47.5t-3.5 -38.5q0 -29 14 -42t39 -13q19 0 38 5.5
t37 14.5l17 -37q-30 -21 -61 -33.5t-75 -12.5zM120 582q31 0 50.5 20t19.5 55q0 25 -14 41t-39 16q-34 0 -52 -21.5t-18 -54.5q0 -25 12.5 -40.5t40.5 -15.5z" />
    <glyph glyph-name="uni01AB" unicode="&#x1ab;" horiz-adv-x="368" 
d="M162 -198q-25 0 -42.5 14t-17.5 40q0 22 22 40q16 -18 44 -18q33 0 51.5 20.5t27.5 65.5l8 41q-17 -7 -35 -11t-37 -4q-109 0 -109 117q0 18 3 41.5t7 42.5l61 288h-76l9 40q43 0 83 31.5t70 108.5h46l-26 -123h121l-12 -57h-121l-61 -285q-5 -25 -8.5 -47.5t-3.5 -38.5
q0 -29 14 -42t39 -13q58 0 107 27l-25 -127q-16 -81 -49.5 -116t-89.5 -35z" />
    <glyph glyph-name="uni01AC" unicode="&#x1ac;" horiz-adv-x="613" 
d="M92 0l9 42h23q33 0 59.5 11t36.5 56l118 555h-115q-37 0 -58.5 -19t-21.5 -56q0 -19 11 -36q-19 -14 -38 -14q-22 0 -35 15t-13 32q0 52 37 90t120 38h456l-32 -175h-52q1 5 2 19t2 26.5t1 15.5q0 26 -14 45t-52 19h-97l-118 -554q-4 -16 -4 -28q0 -26 20.5 -33t51.5 -7
h23l-9 -42h-311z" />
    <glyph glyph-name="uni01AD" unicode="&#x1ad;" horiz-adv-x="368" 
d="M183 -10q-109 0 -109 117q0 18 3 41.5t7 42.5l61 288h-76l9 40q105 0 137 104q23 73 51.5 105t82.5 32q25 0 42.5 -14t17.5 -40q0 -22 -22 -40q-16 18 -44 18q-33 0 -51 -20.5t-28 -65.5l-13 -62h121l-12 -57h-121l-61 -285q-5 -25 -8.5 -47.5t-3.5 -38.5q0 -29 14 -42
t39 -13q21 0 43 6.5t39 15.5l17 -37q-30 -21 -64 -34.5t-71 -13.5z" />
    <glyph glyph-name="uni01AE" unicode="&#x1ae;" horiz-adv-x="613" 
d="M296 -240q-61 0 -89.5 29t-28.5 88q0 18 3 41.5t7 42.5l150 703h-96q-44 0 -66.5 -24.5t-33.5 -57.5l-14 -43h-52l42 175h563l-32 -175h-52q1 5 2 19t2 26.5t1 15.5q0 26 -14 45t-52 19h-97l-153 -714q-5 -25 -8.5 -47.5t-3.5 -38.5q0 -34 13 -44.5t29 -10.5q20 0 30 2.5
t21 5.5l8 -44q-13 -6 -36 -9.5t-43 -3.5z" />
    <glyph glyph-name="Uhorn" unicode="&#x1af;" horiz-adv-x="682" 
d="M823.5 848q14.5 -16 14.5 -40q0 -25 -17.5 -47.5t-47.5 -40.5q-49 -29 -95 -34l-103 -395q-36 -140 -98 -212q-38 -44 -91 -68.5t-120 -24.5q-99 0 -148 54q-35 39 -35 103q0 30 6.5 63.5t18.5 81.5l83 314q8 32 8 47q0 21 -14.5 29t-52.5 10l6 20q40 -3 127 -3
q79 0 127 3l-6 -20q-37 -2 -54.5 -8t-28 -23t-20.5 -55l-88 -331q-22 -82 -22 -134q0 -58 28.5 -87t92.5 -29q102 0 162.5 68.5t92.5 190.5l105 406q-11 -1 -32 -1q-30 0 -58 3l5 20q28 -3 74 -3q37 0 64 5t55 26q-16 13 -27 30.5t-11 37.5q0 25 15 42.5t43 17.5
q27 0 41.5 -16z" />
    <glyph glyph-name="uhorn" unicode="&#x1b0;" horiz-adv-x="683" 
d="M796.5 748q14.5 -16 14.5 -40q0 -25 -17.5 -47.5t-47.5 -40.5q-49 -29 -95 -34l-77 -295q-36 -138 -98 -212q-37 -43 -90.5 -68t-114.5 -25q-112 0 -154 54q-18 23 -27 47t-9 55q0 50 26 146l57 214q8 34 8 48q0 22 -14.5 29t-52.5 9l6 20q40 -3 129 -3q77 0 125 3
l-6 -20q-37 -2 -54.5 -8t-28 -23t-20.5 -55l-62 -231q-22 -85 -22 -135q0 -55 27 -85t91 -30q105 0 165.5 68t92.5 191l79 306q-11 -1 -32 -1q-30 0 -58 3l5 20q29 -3 74 -3q37 0 64 5t55 26q-16 13 -27 30.5t-11 37.5q0 25 15 42.5t43 17.5q27 0 41.5 -16z" />
    <glyph glyph-name="uni01B1" unicode="&#x1b1;" horiz-adv-x="753" 
d="M324 -11q-126 0 -197.5 61t-71.5 167q0 137 78 221.5t214 107.5l21 88h-95q-47 0 -71 -14.5t-38 -47.5l-14 -33h-52l45 175h297l-45 -209q-75 -7 -126.5 -48.5t-78 -105t-26.5 -138.5q0 -77 41.5 -123.5t130.5 -46.5q84 0 140 40t84.5 108.5t28.5 152.5q0 62 -31 108
t-95 53l38 209h280l-14 -175h-52v33q0 33 -16.5 47.5t-64.5 14.5h-95l-17 -88q83 -18 130 -78t47 -146q0 -102 -49 -176.5t-133.5 -115.5t-192.5 -41z" />
    <glyph glyph-name="uni01B2" unicode="&#x1b2;" horiz-adv-x="714" 
d="M251 -10q-59 0 -94.5 21t-51 57.5t-15.5 83.5q0 16 3.5 37.5t7.5 38.5l80 376q4 16 4 28q0 26 -20.5 33t-51.5 7h-13l9 42h291l-8 -42h-13q-33 0 -60 -12.5t-38 -59.5l-84 -390q-5 -26 -8.5 -43.5t-3.5 -39.5q0 -37 19.5 -57t53.5 -20q64 0 120.5 34t102.5 91t79.5 125.5
t51.5 139t18 131.5q0 72 -59 72q-17 0 -32.5 -4.5t-29.5 -11.5q0 21 9 42.5t29.5 36t57.5 14.5q50 0 74.5 -34.5t24.5 -90.5q0 -78 -23 -162t-64.5 -163t-98 -142t-124.5 -100.5t-143 -37.5z" />
    <glyph glyph-name="uni01B3" unicode="&#x1b3;" horiz-adv-x="635" 
d="M99 0l9 42h23q33 0 59.5 11t36.5 56l39 184l-116 326q-10 29 -20.5 41t-39.5 12h-13l9 42h270l-9 -42h-50q-41 0 -41 -27q0 -13 3.5 -27t9.5 -31l45 -134q10 -31 18 -63t9 -57q12 24 34 64.5t56 96.5q44 73 76.5 118t58 68.5t49.5 31.5t51 8q28 0 47 -15.5t19 -42.5
q0 -32 -18 -51t-41 -20q-3 20 -12.5 34.5t-29.5 14.5q-24 0 -44 -14.5t-46.5 -52.5t-67.5 -106.5t-106 -175.5l-39 -181q-4 -16 -4 -28q0 -26 20 -33t52 -7h23l-9 -42h-311z" />
    <glyph glyph-name="uni01B4" unicode="&#x1b4;" horiz-adv-x="568" 
d="M-22 -240q-23 0 -48.5 5t-41.5 13l15 50q11 -4 28.5 -7.5t44.5 -3.5q70 0 119 22.5t83 63.5t60 97h-50l-105 441q-7 30 -22 41.5t-44 11.5h-6l8 42h146l66 -287q6 -26 12.5 -63t11.5 -71.5t5 -50.5h4q20 51 34 94.5t30 89.5t41 105q48 108 94 150.5t103 42.5
q29 0 44.5 -14t15.5 -34t-12 -32t-26 -17q-2 16 -10 23.5t-18 7.5q-20 0 -41 -11.5t-46 -48t-58 -109.5q-21 -47 -45.5 -111t-53.5 -150q-37 -108 -80.5 -171.5t-104.5 -91t-153 -27.5z" />
    <glyph glyph-name="uni01B5" unicode="&#x1b5;" horiz-adv-x="605" 
d="M-17 0l8 40l250 310h-132l10 46h159l216 268h-233q-45 0 -67 -24.5t-33 -57.5l-14 -43h-52l42 175h494l-8 -41l-224 -277h132l-10 -46h-159l-243 -300h267q46 0 68 24.5t33 57.5l14 43h52l-42 -175h-528z" />
    <glyph glyph-name="uni01B6" unicode="&#x1b6;" horiz-adv-x="511" 
d="M-1 0l8 40l163 211h-102l10 46h128l141 182h-127q-40 0 -57.5 -20.5t-36.5 -60.5l-2 -4h-42l40 142h350l-8 -41l-154 -198h102l-10 -46h-128l-151 -194h178q35 0 53 25t32 57l10 23h42l-39 -162h-400z" />
    <glyph glyph-name="uni01B7" unicode="&#x1b7;" horiz-adv-x="594" 
d="M635 688l-259 -296q68 -27 104.5 -69t36.5 -106q0 -66 -38.5 -118.5t-105.5 -82.5t-151 -30q-57 0 -101.5 11.5t-68.5 25.5q-7 5 -14.5 9.5t-14.5 4.5q-10 0 -17.5 -10t-16.5 -34h-23q28 77 64 240h23q-7 -38 -7 -63q0 -77 44.5 -120.5t127.5 -43.5q59 0 106 29.5
t73.5 78.5t26.5 104q0 69 -32 110.5t-95 61.5l5 20l241 275h-210q-62 0 -99 -17.5t-61 -56.5t-50 -113h-23q27 80 48 210q73 -3 248 -3q170 0 244 3z" />
    </font>
</defs>
</svg>
