<?xml version="1.0" standalone="no"?>
<!DOCTYPE svg PUBLIC "-//W3C//DTD SVG 1.1//EN" "http://www.w3.org/Graphics/SVG/1.1/DTD/svg11.dtd" >
<svg xmlns="http://www.w3.org/2000/svg" xmlns:xlink="http://www.w3.org/1999/xlink" version="1.1">
<metadata>
Created by FontForge 20190801 at Mon Feb  8 12:18:10 2021
 By root
Copyright 2011 The Questrial Project Authors (https://github.com/googlefonts/questrial)
</metadata>
<defs>
<font id="Questrial-Regular" horiz-adv-x="213" >
  <font-face 
    font-family="Questrial"
    font-weight="400"
    font-stretch="normal"
    units-per-em="1000"
    panose-1="0 0 0 0 0 0 0 0 0 0"
    ascent="800"
    descent="-200"
    x-height="500"
    cap-height="662"
    bbox="-213 -241 1273 974"
    underline-thickness="50"
    underline-position="-125"
    unicode-range="U+0001-206F"
  />
<missing-glyph horiz-adv-x="364" 
d="M33 0v666h265v-666h-265zM66 33h199v600h-199v-600z" />
    <glyph glyph-name=".notdef" horiz-adv-x="364" 
d="M33 0v666h265v-666h-265zM66 33h199v600h-199v-600z" />
    <glyph glyph-name="uni0000" 
 />
    <glyph glyph-name="uni0000" 
 />
    <glyph glyph-name="nonmarkingreturn" horiz-adv-x="333" 
 />
    <glyph glyph-name="uni0001" 
 />
    <glyph glyph-name="uni0002" 
 />
    <glyph glyph-name="uni0003" 
 />
    <glyph glyph-name="uni0004" 
 />
    <glyph glyph-name="uni0005" 
 />
    <glyph glyph-name="uni0006" 
 />
    <glyph glyph-name="uni0007" 
 />
    <glyph glyph-name="uni0008" 
 />
    <glyph glyph-name="uni0009" unicode="&#x9;" 
 />
    <glyph glyph-name="uni000A" unicode="&#xa;" 
 />
    <glyph glyph-name="uni000B" 
 />
    <glyph glyph-name="uni000C" 
 />
    <glyph glyph-name="CR" unicode="&#xd;" 
 />
    <glyph glyph-name="uni000E" 
 />
    <glyph glyph-name="uni000F" 
 />
    <glyph glyph-name="uni0010" 
 />
    <glyph glyph-name="uni0011" 
 />
    <glyph glyph-name="uni0012" 
 />
    <glyph glyph-name="uni0013" 
 />
    <glyph glyph-name="uni0014" 
 />
    <glyph glyph-name="uni0015" 
 />
    <glyph glyph-name="uni0016" 
 />
    <glyph glyph-name="uni0017" 
 />
    <glyph glyph-name="uni0018" 
 />
    <glyph glyph-name="uni0019" 
 />
    <glyph glyph-name="uni001A" 
 />
    <glyph glyph-name="uni001B" 
 />
    <glyph glyph-name="uni001C" 
 />
    <glyph glyph-name="uni001D" 
 />
    <glyph glyph-name="uni001E" 
 />
    <glyph glyph-name="uni001F" 
 />
    <glyph glyph-name="space" unicode=" " 
 />
    <glyph glyph-name="exclam" unicode="!" horiz-adv-x="221" 
d="M83 183l-19 479h93l-19 -479h-55zM62 0v102h97v-102h-97z" />
    <glyph glyph-name="quotedbl" unicode="&#x22;" horiz-adv-x="317" 
d="M66 443l-19 219h89l-19 -219h-51zM200 443l-19 219h89l-19 -219h-51z" />
    <glyph glyph-name="numbersign" unicode="#" horiz-adv-x="581" 
d="M128 25l20 143h-103v65h112l20 144h-102v65h111l21 143h65l-21 -143h116l21 143h65l-21 -143h104v-65h-113l-20 -144h103v-65h-112l-20 -143h-65l20 143h-116l-20 -143h-65zM222 233h116l20 144h-116z" />
    <glyph glyph-name="dollar" unicode="$" horiz-adv-x="615" 
d="M279 746h66v-78q73 -7 120 -34.5t71 -67.5t27 -85h-77q-5 43 -39 75.5t-102 40.5v-231q44 -10 85.5 -24t75.5 -34t54 -50.5t20 -74.5q0 -87 -62.5 -136t-172.5 -54v-80h-66v80q-84 6 -137 33.5t-79 72t-31 99.5h78q3 -63 51 -94.5t118 -38.5v244q-43 11 -83.5 24t-73 33
t-51.5 49t-19 72q0 77 56.5 127.5t170.5 55.5v76zM125 488q0 -30 21 -49.5t56 -32.5t77 -24v217q-65 -3 -98 -22t-44.5 -43.5t-11.5 -45.5zM505 180q0 32 -22 53t-58 35t-80 25v-229q74 3 117 32t43 84z" />
    <glyph glyph-name="percent" unicode="%" horiz-adv-x="845" 
d="M161 -12l459 682h63l-459 -682h-63zM192 288q-70 0 -110 48.5t-40 140.5q0 93 40 141.5t110 48.5q54 -1 87 -28t48 -70t15 -92q0 -92 -40.5 -140.5t-109.5 -48.5zM192 345q34 1 53 21t27 50.5t8 60.5q0 66 -23.5 99t-64.5 33q-42 0 -65.5 -33t-23.5 -99t23.5 -99
t65.5 -33zM653 -8q-70 0 -110 48.5t-40 140.5q0 93 40 141.5t110 48.5q54 -1 87 -28t48 -70t15 -92q0 -92 -40.5 -140.5t-109.5 -48.5zM653 49q34 1 53 21t27 50.5t8 60.5q0 66 -23.5 99t-64.5 33q-42 0 -65.5 -33t-23.5 -99t23.5 -99t65.5 -33z" />
    <glyph glyph-name="ampersand" unicode="&#x26;" horiz-adv-x="580" 
d="M269 -8q-62 0 -115 25t-85 69.5t-32 103.5q0 53 32 95.5t90 64.5q-22 7 -45.5 27.5t-39 49.5t-15.5 62q0 77 56 129t164 52q68 0 112 -20.5t67.5 -52t30.5 -65.5h-79q-7 24 -40.5 47t-92.5 23q-74 0 -108.5 -33.5t-34.5 -80.5q0 -56 39 -83t91 -27h161v44h70v-44h65v-67
h-65v-127q0 -85 -60 -138.5t-166 -53.5zM269 59q79 0 117.5 36.5t38.5 82.5v133h-170q-42 0 -74.5 -17t-50.5 -44.5t-18 -61.5t19.5 -63.5t55 -47.5t82.5 -18z" />
    <glyph glyph-name="quotesingle" unicode="'" horiz-adv-x="183" 
d="M66 443l-19 219h89l-19 -219h-51z" />
    <glyph glyph-name="parenleft" unicode="(" horiz-adv-x="245" 
d="M163 -138q-63 98 -95.5 202.5t-32.5 216.5q0 111 32.5 216.5t95.5 202.5h68q-57 -91 -88.5 -197.5t-31.5 -221.5t31.5 -221.5t88.5 -197.5h-68z" />
    <glyph glyph-name="parenright" unicode=")" horiz-adv-x="245" 
d="M14 -138q57 91 88.5 197.5t31.5 221.5t-31.5 221.5t-88.5 197.5h68q63 -97 95.5 -202.5t32.5 -216.5q0 -112 -32.5 -216.5t-95.5 -202.5h-68z" />
    <glyph glyph-name="asterisk" unicode="*" horiz-adv-x="373" 
d="M132 397l-51 37l74 81l-107 23l19 60l100 -45l-12 109h63l-12 -109l100 45l19 -60l-107 -22l74 -82l-51 -37l-54 95z" />
    <glyph glyph-name="plus" unicode="+" horiz-adv-x="550" 
d="M242 0v203h-192v65h192v203h65v-203h193v-65h-193v-203h-65z" />
    <glyph glyph-name="comma" unicode="," horiz-adv-x="220" 
d="M11 -111l58 213h98l-88 -213h-68z" />
    <glyph glyph-name="hyphen" unicode="-" horiz-adv-x="360" 
d="M55 259v73h250v-73h-250z" />
    <glyph glyph-name="period" unicode="." horiz-adv-x="203" 
d="M53 0v102h97v-102h-97z" />
    <glyph glyph-name="slash" unicode="/" horiz-adv-x="371" 
d="M36 -32l229 712h70l-229 -712h-70z" />
    <glyph glyph-name="zero" unicode="0" horiz-adv-x="550" 
d="M275 -8q-117 0 -174.5 86.5t-57.5 252.5t57.5 252.5t174.5 86.5q68 -1 113 -29.5t71 -76.5t37 -108t11 -125q0 -166 -57.5 -252.5t-174.5 -86.5zM275 65q51 1 82 25t47.5 63t22 85.5t5.5 92.5q0 133 -37 199.5t-120 66.5q-82 0 -119.5 -66.5t-37.5 -199.5t37.5 -199.5
t119.5 -66.5z" />
    <glyph glyph-name="one" unicode="1" horiz-adv-x="550" 
d="M275 0v590h-140v72h215v-662h-75z" />
    <glyph glyph-name="two" unicode="2" horiz-adv-x="550" 
d="M52 0v41q0 49 27 89.5t69 75.5t90 67.5t90 63.5t69 64.5t27 71.5q0 58 -38.5 91t-110.5 33q-66 0 -107.5 -29.5t-49.5 -85.5h-75q6 57 37.5 99.5t81.5 65.5t111 23q72 0 122.5 -26t77 -70t26.5 -99q0 -46 -25 -86t-65 -75t-84.5 -66t-85.5 -60.5t-68 -58t-30 -57.5h356
v-72h-445z" />
    <glyph glyph-name="three" unicode="3" horiz-adv-x="550" 
d="M277 -8q-62 0 -113.5 24.5t-84.5 65.5t-38 93h76q5 -31 28 -56t57.5 -39.5t74.5 -14.5q71 0 110.5 36t39.5 87q0 34 -18.5 62.5t-50.5 46t-74 17.5h-76v69h67q35 0 64.5 13.5t47.5 38t18 56.5q0 47 -33.5 76.5t-98.5 29.5q-61 0 -97.5 -28t-43.5 -66h-73q5 41 30.5 79
t71.5 63t110 25q98 0 153.5 -49.5t55.5 -126.5q0 -33 -15.5 -62.5t-38.5 -50.5t-46 -28q58 -22 90 -66t32 -97q0 -59 -30 -103.5t-81 -69.5t-114 -25z" />
    <glyph glyph-name="four" unicode="4" horiz-adv-x="550" 
d="M347 0v169h-316v73l278 420h113v-426h89v-67h-89v-169h-75zM101 236h246v362z" />
    <glyph glyph-name="five" unicode="5" horiz-adv-x="550" 
d="M280 -8q-64 0 -107.5 17.5t-70 44.5t-41 57t-19.5 55h77q8 -24 26 -47.5t50.5 -38.5t81.5 -15q45 0 78.5 19.5t52.5 53t19 74.5q0 66 -41.5 106.5t-106.5 40.5q-44 0 -79 -16.5t-52 -36.5l-69 42l45 314h345v-72h-277l-30 -192q23 14 55 22.5t62 8.5q67 0 117 -28
t78 -76.5t28 -112.5q0 -61 -29.5 -111t-79.5 -79.5t-113 -29.5z" />
    <glyph glyph-name="six" unicode="6" horiz-adv-x="550" 
d="M288 -8q-121 0 -183 88t-62 251q0 157 63 248t188 91q64 0 105.5 -24t65.5 -61t32 -77h-84q-7 22 -20.5 42t-37 33.5t-61.5 13.5q-61 0 -100 -36t-57.5 -97t-18.5 -136q24 41 71 67.5t102 26.5q63 0 114 -27.5t81 -76t30 -111.5q0 -62 -31 -110.5t-82.5 -76.5t-114.5 -28
zM288 65q42 0 77 18t55.5 50.5t20.5 73.5t-20.5 73.5t-55.5 51.5t-77 19t-76.5 -17.5t-55.5 -49t-21 -72.5q0 -44 20.5 -77t55 -51.5t77.5 -18.5z" />
    <glyph glyph-name="seven" unicode="7" horiz-adv-x="550" 
d="M143 0l286 590h-382v72h459v-85l-276 -577h-87z" />
    <glyph glyph-name="eight" unicode="8" horiz-adv-x="550" 
d="M275 -8q-113 0 -175 55t-62 143q0 57 34.5 104.5t92.5 69.5q-22 8 -45.5 25.5t-39.5 46t-16 67.5q0 74 54.5 120.5t156.5 46.5t156.5 -46.5t54.5 -120.5q0 -39 -16 -67.5t-39.5 -46t-45.5 -25.5q59 -22 93 -69.5t34 -104.5q0 -88 -62 -143t-175 -55zM275 396
q31 0 62.5 10.5t52.5 33.5t21 59q0 47 -38 73t-98 26t-98 -26t-38 -73q0 -36 21 -59t52.5 -33.5t62.5 -10.5zM275 64q74 0 118 34.5t44 92.5q0 43 -22 73.5t-58.5 46.5t-81.5 16q-44 0 -81 -16t-59 -46.5t-22 -73.5q0 -58 44 -92.5t118 -34.5z" />
    <glyph glyph-name="nine" unicode="9" horiz-adv-x="550" 
d="M256 -8q-63 0 -105 24t-65.5 61.5t-32.5 76.5h84q7 -21 20.5 -41.5t37.5 -34t61 -13.5q62 0 100.5 36t57 97t18.5 136q-24 -41 -70.5 -67.5t-102.5 -26.5q-62 0 -113.5 27.5t-81.5 76t-30 111.5q0 62 31 110.5t83 76.5t114 28q121 0 183 -88t62 -251q0 -157 -63 -248
t-188 -91zM262 311q42 0 77 17.5t55.5 49t20.5 72.5q0 44 -20.5 77t-55 51.5t-77.5 18.5q-42 0 -76.5 -18t-55.5 -50t-21 -74q0 -41 21 -73.5t55.5 -51.5t76.5 -19z" />
    <glyph glyph-name="colon" unicode=":" horiz-adv-x="203" 
d="M53 398v102h97v-102h-97zM53 0v102h97v-102h-97z" />
    <glyph glyph-name="semicolon" unicode=";" horiz-adv-x="245" 
d="M80 398v102h97v-102h-97zM25 -133l58 213h98l-88 -213h-68z" />
    <glyph glyph-name="less" unicode="&#x3c;" horiz-adv-x="550" 
d="M507 8l-481 212v63l481 213v-78l-405 -166l405 -166v-78z" />
    <glyph glyph-name="equal" unicode="=" horiz-adv-x="550" 
d="M57 301v67h436v-67h-436zM57 103v67h436v-67h-436z" />
    <glyph glyph-name="greater" unicode="&#x3e;" horiz-adv-x="550" 
d="M42 8v78l405 166l-405 166v78l481 -213v-63z" />
    <glyph glyph-name="question" unicode="?" horiz-adv-x="510" 
d="M227 183q0 49 17 83.5t42 60t49.5 49t41.5 50t17 63.5q0 25 -11.5 51t-39.5 43.5t-77 17.5t-82.5 -19t-52 -50t-21.5 -66h-71q3 55 30.5 101.5t76 74.5t114.5 28q72 0 117.5 -26.5t66.5 -68t21 -86.5q0 -47 -16.5 -78.5t-41 -56t-49.5 -47.5t-41.5 -52.5t-16.5 -71.5h-73
zM215 0v102h97v-102h-97z" />
    <glyph glyph-name="at" unicode="@" horiz-adv-x="852" 
d="M392 -100q-75 0 -137.5 27t-108.5 73.5t-71 108t-25 130.5q0 82 33.5 157t91.5 133.5t133.5 92.5t159.5 34q68 0 129.5 -25.5t109.5 -71.5t75.5 -107.5t27.5 -133.5q0 -85 -27 -139t-69.5 -80t-89.5 -26q-34 0 -53 10.5t-27.5 24.5t-10.5 24.5l-2 10.5q-26 -32 -61 -51
t-84 -19q-85 0 -127.5 48t-42.5 118q0 73 30.5 127.5t82 85t114.5 30.5q50 0 82 -19t49 -51l10 64h60l-47 -292l-0.5 -3.5t-0.5 -9.5q0 -9 3.5 -21.5t15 -22t34.5 -9.5q56 0 90 47t34 149q0 65 -23.5 120.5t-65.5 97t-97 64.5t-119 23q-75 0 -143.5 -30t-122 -83
t-84.5 -121.5t-31 -145.5q0 -64 23.5 -119.5t65.5 -96t97 -63.5t119 -23q69 0 121.5 18.5t98.5 55.5l22 -30q-52 -42 -115 -61.5t-127 -19.5zM402 127q49 0 84 25.5t53.5 67t18.5 88.5q0 50 -29 85.5t-86 35.5q-73 0 -120 -50.5t-47 -133.5q0 -51 31 -84.5t95 -33.5z" />
    <glyph glyph-name="A" unicode="A" horiz-adv-x="662" 
d="M3 0l281 662h94l281 -662h-83l-81 192h-328l-81 -192h-83zM196 261h270l-135 323z" />
    <glyph glyph-name="B" unicode="B" horiz-adv-x="662" 
d="M81 0v662h297q78 0 123.5 -27t65.5 -67.5t20 -80.5q0 -64 -27 -98.5t-62 -50.5q28 -9 56.5 -28.5t47.5 -52.5t19 -83q0 -74 -56.5 -124t-169.5 -50h-314zM156 366h222q35 0 65.5 12t49.5 37.5t19 65.5q0 28 -12.5 53t-40 41t-73.5 16h-230v-225zM156 71h247
q68 0 105.5 28.5t37.5 80.5q0 47 -36 82.5t-115 35.5h-239v-227z" />
    <glyph glyph-name="C" unicode="C" horiz-adv-x="690" 
d="M359 -8q-99 0 -171 45.5t-110.5 122.5t-38.5 171t38.5 171t110.5 122.5t171 45.5q75 0 135 -26.5t102 -72.5t63 -107h-79q-25 61 -79 97t-136 36q-80 0 -136.5 -35.5t-85.5 -95.5t-29 -135q0 -74 29 -134.5t85.5 -96t136.5 -35.5q82 0 136 36t79 97h79
q-21 -60 -63 -106.5t-102 -73t-135 -26.5z" />
    <glyph glyph-name="D" unicode="D" horiz-adv-x="703" 
d="M81 0v662h279q59 0 113.5 -22.5t97.5 -65.5t68 -104t25 -139t-25 -139t-68 -104t-97.5 -65.5t-113.5 -22.5h-279zM156 71h201q71 0 123 36t80.5 95t28.5 129q0 71 -28.5 130t-80.5 94.5t-123 35.5h-201v-520z" />
    <glyph glyph-name="E" unicode="E" horiz-adv-x="608" 
d="M81 0v662h487v-72h-412v-222h368v-73h-368v-223h412v-72h-487z" />
    <glyph glyph-name="F" unicode="F" horiz-adv-x="583" 
d="M81 0v662h478v-72h-403v-230h359v-73h-359v-287h-75z" />
    <glyph glyph-name="G" unicode="G" horiz-adv-x="723" 
d="M363 -8q-101 0 -173.5 45.5t-111.5 122.5t-39 171t40 171t113.5 122.5t172.5 45.5q107 0 185.5 -52.5t115.5 -135.5h-82q-30 53 -83.5 84t-129.5 31q-80 0 -138 -35.5t-88.5 -95.5t-30.5 -135q0 -74 30 -134.5t87.5 -96t137.5 -35.5q60 0 113.5 26t87 75t33.5 118h-242
v68h311v-352h-69v117q-21 -32 -54 -60.5t-79.5 -46.5t-106.5 -18z" />
    <glyph glyph-name="H" unicode="H" horiz-adv-x="697" 
d="M81 0v662h75v-294h385v294h75v-662h-75v295h-385v-295h-75z" />
    <glyph glyph-name="I" unicode="I" horiz-adv-x="237" 
d="M81 0v662h75v-662h-75z" />
    <glyph glyph-name="J" unicode="J" horiz-adv-x="527" 
d="M236 -8q-71 0 -118.5 27.5t-72.5 70t-30 87.5h78q4 -26 21 -52t48 -43t78 -17q45 0 72.5 14.5t41 38.5t18.5 51.5t5 52.5v440h75v-443q0 -58 -20.5 -110t-68 -84.5t-127.5 -32.5z" />
    <glyph glyph-name="K" unicode="K" horiz-adv-x="641" 
d="M81 0v662h75v-345l368 345h106l-282 -266l298 -396h-94l-259 345l-137 -128v-217h-75z" />
    <glyph glyph-name="L" unicode="L" horiz-adv-x="533" 
d="M81 0v662h75v-590h361v-72h-436z" />
    <glyph glyph-name="M" unicode="M" horiz-adv-x="806" 
d="M81 0v662h87l237 -314l233 314h87v-662h-75v548l-245 -315l-249 315v-548h-75z" />
    <glyph glyph-name="N" unicode="N" horiz-adv-x="733" 
d="M81 0v662h87l409 -557v557h75v-662h-87l-409 559v-559h-75z" />
    <glyph glyph-name="O" unicode="O" horiz-adv-x="750" 
d="M375 -8q-75 0 -137 26t-106.5 73t-68.5 108.5t-24 131.5q0 71 24 132t68.5 108t106.5 73t137 26t137 -26t106.5 -73t68.5 -108t24 -132q0 -70 -24 -131.5t-68.5 -108.5t-106.5 -73t-137 -26zM375 65q81 0 139.5 35.5t90 96t31.5 134.5q0 75 -31.5 135t-90 95.5
t-139.5 35.5q-80 0 -139 -35.5t-90.5 -95.5t-31.5 -135q0 -74 31.5 -134.5t90.5 -96t139 -35.5z" />
    <glyph glyph-name="P" unicode="P" horiz-adv-x="628" 
d="M81 0v662h298q106 0 167 -57.5t61 -155.5t-61 -155.5t-167 -57.5h-223v-236h-75zM156 306h218q78 0 118 38t40 105q0 66 -40 104t-118 38h-218v-285z" />
    <glyph glyph-name="Q" unicode="Q" horiz-adv-x="750" 
d="M596 -157q-49 0 -95 19t-82 53t-58 78q-96 3 -168.5 49t-113 121.5t-40.5 167.5q0 71 24 132t68.5 108t106.5 73t137 26t137 -26t106.5 -73t68.5 -108t24 -132q0 -84 -34.5 -154.5t-96 -117.5t-143.5 -61q10 -18 30 -39.5t52 -36.5t78 -15q36 0 65.5 12t55.5 33l40 -54
q-35 -28 -74.5 -41.5t-87.5 -13.5zM375 65q81 0 139.5 35.5t90 96t31.5 134.5q0 75 -31.5 135t-90 95.5t-139.5 35.5q-80 0 -139 -35.5t-90.5 -95.5t-31.5 -135q0 -74 31.5 -134.5t90.5 -96t139 -35.5z" />
    <glyph glyph-name="R" unicode="R" horiz-adv-x="669" 
d="M81 0v662h317q102 0 162.5 -56t60.5 -151q0 -64 -24.5 -102t-61.5 -57.5t-74 -28.5l174 -267h-89l-160 254h-230v-254h-75zM156 325h229q36 0 73 11t62.5 39.5t25.5 79.5q0 63 -43 99.5t-114 36.5h-233v-266z" />
    <glyph glyph-name="S" unicode="S" horiz-adv-x="615" 
d="M318 -8q-98 0 -159 26.5t-91.5 73.5t-35.5 106h78q3 -48 32 -77.5t76.5 -43.5t104.5 -14q84 0 133 29.5t49 87.5q0 35 -24.5 56.5t-65 35.5t-88.5 25.5t-96.5 24.5t-89 33t-65 51.5t-24.5 80.5q0 81 62.5 132t186.5 51q88 0 145 -26.5t85.5 -69.5t31.5 -93h-77
q-6 50 -50 84.5t-135 34.5q-56 0 -91 -11t-53.5 -28.5t-25 -36.5t-6.5 -36q0 -33 24.5 -53.5t65 -34t89.5 -24.5t97.5 -24.5t89 -34t65 -52.5t24.5 -82q0 -92 -70 -141.5t-192 -49.5z" />
    <glyph glyph-name="T" unicode="T" horiz-adv-x="565" 
d="M245 0v591h-231v71h537v-71h-231v-591h-75z" />
    <glyph glyph-name="U" unicode="U" horiz-adv-x="709" 
d="M354 -8q-82 0 -145.5 36.5t-99.5 102.5t-36 154v377h75v-379q0 -77 29.5 -125t77 -70.5t99.5 -22.5q53 0 100 22.5t77 70.5t30 125v379h75v-377q0 -87 -36 -153t-99.5 -103t-146.5 -37z" />
    <glyph glyph-name="V" unicode="V" horiz-adv-x="628" 
d="M271 0l-268 662h82l229 -577l229 577h82l-268 -662h-86z" />
    <glyph glyph-name="W" unicode="W" horiz-adv-x="958" 
d="M215 0l-206 662h79l170 -556l178 556h86l178 -556l170 556h79l-206 -662h-85l-179 556l-179 -556h-85z" />
    <glyph glyph-name="X" unicode="X" horiz-adv-x="613" 
d="M-3 0l264 342l-246 320h95l196 -260l197 260h95l-246 -320l264 -342h-95l-215 284l-214 -284h-95z" />
    <glyph glyph-name="Y" unicode="Y" horiz-adv-x="636" 
d="M281 0v262l-278 400h91l224 -322l224 322h91l-277 -400v-262h-75z" />
    <glyph glyph-name="Z" unicode="Z" horiz-adv-x="584" 
d="M29 0v71l432 521h-426v70h518v-72l-432 -520h432v-70h-524z" />
    <glyph glyph-name="bracketleft" unicode="[" horiz-adv-x="280" 
d="M66 -133v812h187v-62h-121v-688h121v-62h-187z" />
    <glyph glyph-name="backslash" unicode="\" horiz-adv-x="371" 
d="M265 -32l-229 712h70l229 -712h-70z" />
    <glyph glyph-name="bracketright" unicode="]" horiz-adv-x="280" 
d="M27 -133v62h121v688h-121v62h187v-812h-187z" />
    <glyph glyph-name="asciicircum" unicode="^" horiz-adv-x="509" 
d="M75 355l149 313h61l149 -313h-70l-109 215l-110 -215h-70z" />
    <glyph glyph-name="underscore" unicode="_" horiz-adv-x="600" 
d="M50 -128v55h500v-55h-500z" />
    <glyph glyph-name="grave" unicode="`" horiz-adv-x="340" 
d="M200 570l-107 105h107l61 -105h-61z" />
    <glyph glyph-name="a" unicode="a" horiz-adv-x="595" 
d="M276 -8q-73 0 -127.5 34.5t-84.5 93.5t-30 130q0 72 30 130.5t84.5 93t127.5 34.5q62 0 106.5 -24t72.5 -65v81h75v-500h-75v80q-28 -40 -72.5 -64t-106.5 -24zM286 60q56 0 94.5 26t58.5 69.5t20 94.5q0 52 -20 95t-58.5 69t-94.5 26q-55 0 -95 -26t-61 -69t-21 -95
q0 -51 21 -94.5t61 -69.5t95 -26z" />
    <glyph glyph-name="b" unicode="b" horiz-adv-x="595" 
d="M319 -8q-62 0 -106.5 24t-72.5 64v-80h-75v700h75v-281q28 41 72.5 65t106.5 24q73 0 127.5 -34.5t84.5 -93t30 -130.5q0 -71 -30 -130t-84.5 -93.5t-127.5 -34.5zM309 60q56 0 95.5 26t60.5 69.5t21 94.5q0 52 -21 95t-60.5 69t-95.5 26q-55 0 -94 -26t-59 -69t-20 -95
q0 -51 20 -94.5t59 -69.5t94 -26z" />
    <glyph glyph-name="c" unicode="c" horiz-adv-x="544" 
d="M280 -8q-75 0 -130 34.5t-85.5 93.5t-30.5 130q0 72 30.5 130.5t85.5 93t130 34.5q89 0 151.5 -46t84.5 -119h-81q-17 43 -54.5 70t-90.5 27q-55 0 -96 -26t-63 -69t-22 -95q0 -51 22 -94.5t63 -69.5t96 -26q53 0 90.5 27t54.5 70h81q-22 -73 -84.5 -119t-151.5 -46z" />
    <glyph glyph-name="d" unicode="d" horiz-adv-x="595" 
d="M276 -8q-73 0 -127.5 34.5t-84.5 93.5t-30 130q0 72 30 130.5t84.5 93t127.5 34.5q62 0 106.5 -24t72.5 -65v281h75v-700h-75v80q-28 -40 -72.5 -64t-106.5 -24zM286 60q56 0 94.5 26t58.5 69.5t20 94.5q0 52 -20 95t-58.5 69t-94.5 26q-55 0 -95 -26t-61 -69t-21 -95
q0 -51 21 -94.5t61 -69.5t95 -26z" />
    <glyph glyph-name="e" unicode="e" horiz-adv-x="557" 
d="M287 -8q-76 0 -133 34.5t-88.5 93.5t-31.5 130q0 72 30 130.5t86 93t132 34.5q77 0 132.5 -34.5t85.5 -93t30 -130.5v-30h-419q6 -44 28.5 -80.5t60.5 -58t88 -21.5q53 0 89 23.5t56 60.5h82q-26 -67 -82.5 -109.5t-145.5 -42.5zM112 290h340q-10 64 -54 107t-116 43
t-115.5 -43t-54.5 -107z" />
    <glyph glyph-name="f" unicode="f" horiz-adv-x="307" 
d="M99 0v434h-86v66h86v44q0 82 49.5 123t135.5 41h6v-71h-10q-52 0 -79 -23.5t-27 -75.5v-38h116v-66h-116v-434h-75z" />
    <glyph glyph-name="g" unicode="g" horiz-adv-x="595" 
d="M294 -206q-94 0 -153 40.5t-80 105.5h83q15 -37 52 -57.5t94 -20.5q86 0 125.5 40.5t39.5 117.5v69q-28 -40 -72.5 -64.5t-106.5 -24.5q-73 0 -127.5 33.5t-84.5 91.5t-30 129q0 72 30 129.5t84.5 91t127.5 33.5q62 0 106.5 -23.5t72.5 -64.5v80h75v-485
q0 -107 -61.5 -164t-174.5 -57zM286 68q55 0 93.5 25t59 67.5t20.5 93.5q0 52 -20.5 94t-59 67t-93.5 25t-95 -25t-61 -67t-21 -94q0 -51 21 -93.5t61 -67.5t95 -25z" />
    <glyph glyph-name="h" unicode="h" horiz-adv-x="566" 
d="M65 0v700h75v-278q27 36 66 61t100 25q52 0 97.5 -24.5t74 -73t28.5 -119.5v-291h-75v289q0 68 -39 109.5t-101 41.5q-42 0 -76 -19t-54.5 -53.5t-20.5 -79.5v-288h-75z" />
    <glyph glyph-name="i" unicode="i" horiz-adv-x="205" 
d="M62 584v98h81v-98h-81zM65 0v500h75v-500h-75z" />
    <glyph glyph-name="j" unicode="j" horiz-adv-x="205" 
d="M62 584v98h81v-98h-81zM65 -198v698h75v-698h-75z" />
    <glyph glyph-name="k" unicode="k" horiz-adv-x="502" 
d="M65 0v700h75v-448l241 248h105l-201 -197l216 -303h-92l-175 251l-94 -93v-158h-75z" />
    <glyph glyph-name="l" unicode="l" horiz-adv-x="205" 
d="M65 0v700h75v-700h-75z" />
    <glyph glyph-name="m" unicode="m" horiz-adv-x="868" 
d="M65 0v500h75v-76q17 30 54 57t98 27q50 0 92.5 -26.5t66.5 -74.5q10 17 31.5 41t56.5 42t84 18q48 0 90 -25t68.5 -71.5t26.5 -109.5v-302h-75v300q0 63 -35.5 101.5t-88.5 38.5q-55 0 -95 -37t-40 -104v-299h-75v300q0 63 -35.5 101.5t-88.5 38.5q-55 0 -95 -37
t-40 -104v-299h-75z" />
    <glyph glyph-name="n" unicode="n" horiz-adv-x="566" 
d="M65 0v500h75v-78q27 36 66 61t100 25q52 0 97.5 -24.5t74 -73t28.5 -119.5v-291h-75v289q0 68 -39 109.5t-101 41.5q-42 0 -76 -19t-54.5 -53.5t-20.5 -79.5v-288h-75z" />
    <glyph glyph-name="o" unicode="o" horiz-adv-x="564" 
d="M282 -8q-76 0 -132 34.5t-86 93.5t-30 130q0 72 30 130.5t86 93t132 34.5q77 0 132.5 -34.5t85.5 -93t30 -130.5q0 -71 -30 -130t-85.5 -93.5t-132.5 -34.5zM282 60q56 0 94.5 26t58.5 69.5t20 94.5q0 52 -20 95t-58.5 69t-94.5 26q-55 0 -94 -26t-59 -69t-20 -95
q0 -51 20 -94.5t59 -69.5t94 -26z" />
    <glyph glyph-name="p" unicode="p" horiz-adv-x="595" 
d="M65 -198v698h75v-80q28 41 72.5 64.5t106.5 23.5q73 0 127.5 -34.5t84.5 -93t30 -130.5q0 -71 -30 -130t-84.5 -93.5t-127.5 -34.5q-62 0 -106.5 24.5t-72.5 64.5v-279h-75zM309 60q56 0 95.5 26t60.5 69.5t21 94.5q0 52 -21 95t-60.5 69t-95.5 26q-55 0 -94 -26t-59 -69
t-20 -95q0 -51 20 -94.5t59 -69.5t94 -26z" />
    <glyph glyph-name="q" unicode="q" horiz-adv-x="595" 
d="M455 -198v279q-28 -40 -72.5 -64.5t-106.5 -24.5q-73 0 -127.5 34.5t-84.5 93.5t-30 130q0 72 30 130.5t84.5 93t127.5 34.5q62 0 106.5 -23.5t72.5 -64.5v80h75v-698h-75zM286 60q56 0 94.5 26t58.5 69.5t20 94.5q0 52 -20 95t-58.5 69t-94.5 26q-55 0 -95 -26t-61 -69
t-21 -95q0 -51 21 -94.5t61 -69.5t95 -26z" />
    <glyph glyph-name="r" unicode="r" horiz-adv-x="345" 
d="M65 0v500h75v-123q4 13 15.5 34.5t33.5 43.5t55.5 37.5t79.5 15.5h5v-75h-9q-56 0 -96.5 -30.5t-62 -79t-21.5 -103.5v-220h-75z" />
    <glyph glyph-name="s" unicode="s" horiz-adv-x="482" 
d="M247 -8q-69 0 -116.5 23t-72.5 60.5t-28 81.5h78q3 -25 17.5 -48.5t44.5 -38t78 -14.5q15 0 37 3t42.5 11t34.5 24t14 41q0 31 -24 48t-62 26.5t-80.5 18.5t-80.5 23.5t-62 41t-24 72.5q0 68 49.5 105.5t146.5 37.5q66 0 107.5 -20.5t63 -52.5t25.5 -69h-76
q-4 32 -31.5 55t-90.5 23q-119 0 -119 -72q0 -30 24 -46t62 -25.5t80.5 -18t80.5 -23.5t62 -42.5t24 -74.5q0 -73 -55.5 -111.5t-148.5 -38.5z" />
    <glyph glyph-name="t" unicode="t" horiz-adv-x="326" 
d="M119 0v434h-102v66h102v179h75v-179h115v-66h-115v-434h-75z" />
    <glyph glyph-name="u" unicode="u" horiz-adv-x="566" 
d="M260 -8q-51 0 -97 24.5t-74.5 73t-28.5 119.5v291h75v-289q0 -68 39.5 -109.5t100.5 -41.5q42 0 76 19.5t54.5 53.5t20.5 79v288h75v-500h-75v78q-27 -36 -66 -61t-100 -25z" />
    <glyph glyph-name="v" unicode="v" horiz-adv-x="489" 
d="M201 0l-196 500h82l158 -420l157 420h82l-195 -500h-88z" />
    <glyph glyph-name="w" unicode="w" horiz-adv-x="746" 
d="M162 0l-157 500h80l120 -407l127 407h82l127 -407l120 407h80l-157 -500h-86l-125 399l-125 -399h-86z" />
    <glyph glyph-name="x" unicode="x" horiz-adv-x="482" 
d="M4 0l193 258l-181 242h96l129 -189l128 189h96l-181 -242l194 -258h-96l-141 204l-142 -204h-95z" />
    <glyph glyph-name="y" unicode="y" horiz-adv-x="497" 
d="M117 -198l91 205l-204 493h83l161 -410l164 410h82l-296 -698h-81z" />
    <glyph glyph-name="z" unicode="z" horiz-adv-x="458" 
d="M31 0v71l299 360h-295v69h390v-70l-300 -360h300v-70h-394z" />
    <glyph glyph-name="braceleft" unicode="{" horiz-adv-x="294" 
d="M269 -133q-36 0 -66.5 4t-53.5 17.5t-36 42.5t-13 80v144q0 33 -13.5 54t-31.5 31t-34 10v46q16 0 34 10t31.5 31t13.5 54v144q0 51 13 80t36 42.5t53.5 17.5t66.5 4v-54q-60 -1 -81.5 -19.5t-21.5 -71.5v-132q0 -56 -21 -85.5t-49 -43.5q28 -13 49 -43t21 -86v-132
q0 -52 21.5 -71t81.5 -20v-54z" />
    <glyph glyph-name="bar" unicode="|" horiz-adv-x="191" 
d="M65 -179v927h61v-927h-61z" />
    <glyph glyph-name="braceright" unicode="}" horiz-adv-x="294" 
d="M25 -133v54q60 1 81.5 20t21.5 71v132q0 56 21 86t49 43q-28 14 -49 43.5t-21 85.5v132q0 53 -21.5 71.5t-81.5 19.5v54q36 0 66.5 -4t53.5 -17.5t36 -42.5t13 -80v-144q0 -33 13.5 -54t32 -31t33.5 -10v-46q-15 0 -33.5 -10t-32 -31t-13.5 -54v-144q0 -51 -13 -80
t-36 -42.5t-53.5 -17.5t-66.5 -4z" />
    <glyph glyph-name="asciitilde" unicode="~" horiz-adv-x="524" 
d="M48 215q2 18 7.5 41t17.5 44.5t33 35t54 13.5q26 0 55.5 -9t58.5 -21.5t54.5 -21.5t42.5 -9q30 0 45 14.5t21.5 32t8.5 25.5h32q-3 -18 -8.5 -41t-17 -44.5t-32 -35t-53.5 -13.5q-26 0 -56 9t-59 21t-54.5 21t-42.5 9q-31 0 -46 -14t-21 -31t-9 -26h-31z" />
    <glyph glyph-name="uni007F" 
 />
    <glyph glyph-name="uni00A0" unicode="&#xa0;" 
 />
    <glyph glyph-name="exclamdown" unicode="&#xa1;" horiz-adv-x="207" 
d="M76 317l-19 -479h93l-19 479h-55zM55 500v-102h97v102h-97z" />
    <glyph glyph-name="cent" unicode="&#xa2;" horiz-adv-x="574" 
d="M280 -101v93q-71 4 -123 39t-80.5 92.5t-28.5 126.5t28.5 126.5t80.5 93t123 38.5v87h36v-88q80 -6 137 -51t77 -113h-81q-16 41 -50 67t-83 30v-380q49 4 83 30.5t50 66.5h81q-20 -68 -77 -113t-137 -51v-94h-36zM280 61v378q-48 -6 -83.5 -33t-54.5 -67.5t-19 -88.5
q0 -47 19 -88t54.5 -68t83.5 -33z" />
    <glyph glyph-name="sterling" unicode="&#xa3;" horiz-adv-x="575" 
d="M48 0v61l80 9v249h-71v58h71v72q0 58 20 108.5t65 81.5t120 31q63 0 103.5 -21.5t63.5 -56t31 -74.5h-71q-10 32 -39 56.5t-85 24.5q-45 0 -72 -14t-40.5 -37t-18 -49.5t-4.5 -52.5v-69h148v-58h-148v-249h303v-70h-456z" />
    <glyph glyph-name="currency" unicode="&#xa4;" horiz-adv-x="567" 
d="M93 88l-45 45l64 64q-19 27 -30 59t-11 68q0 71 41 126l-64 65l45 45l64 -65q27 20 59 30.5t68 10.5q71 0 126 -41l65 65l44 -45l-64 -65q41 -55 41 -126q0 -36 -10.5 -68t-30.5 -59l64 -64l-44 -45l-65 65q-54 -42 -126 -42q-71 0 -127 42zM284 172q42 0 76.5 20.5
t55 55t20.5 76.5t-20.5 76.5t-55 55t-76.5 20.5t-76.5 -20.5t-55 -55t-20.5 -76.5t20.5 -76.5t55 -55t76.5 -20.5z" />
    <glyph glyph-name="yen" unicode="&#xa5;" horiz-adv-x="657" 
d="M291 0v125h-193v65h193v72l-17 27h-176v65h134l-195 308h91l200 -322l201 322h91l-196 -308h135v-65h-176l-17 -27v-72h193v-65h-193v-125h-75z" />
    <glyph glyph-name="brokenbar" unicode="&#xa6;" horiz-adv-x="191" 
d="M65 393v355h61v-355h-61zM126 177v-356h-61v356h61z" />
    <glyph glyph-name="section" unicode="&#xa7;" horiz-adv-x="519" 
d="M250 -178q-55 0 -98 22t-69 58t-30 79h69q6 -34 41 -63t90 -29q46 0 77.5 20t31.5 58q0 32 -23 57.5t-58.5 49t-76 46.5t-76.5 49t-58.5 57.5t-22.5 71.5q0 45 20 74t57 44q-17 21 -27.5 45.5t-10.5 54.5q0 47 18 77t45.5 46.5t59 23t58.5 6.5q55 0 97 -22t67 -58t29 -79
h-69q-6 35 -38.5 63.5t-88.5 28.5q-46 0 -75.5 -20t-29.5 -58q0 -31 22.5 -57t58.5 -49.5t76.5 -46.5t76 -49t58.5 -57.5t23 -71.5q0 -46 -20 -75t-58 -44q18 -20 28.5 -44.5t10.5 -54.5q0 -47 -18.5 -77t-47 -46.5t-60.5 -23t-59 -6.5zM360 109q19 9 30 25t11 41
q0 35 -24 61.5t-61 49t-78.5 45.5t-76.5 51q-19 -10 -30 -26t-11 -40q0 -35 24 -61.5t61 -49.5t78.5 -45.5t76.5 -50.5z" />
    <glyph glyph-name="dieresis" unicode="&#xa8;" horiz-adv-x="246" 
d="M0 579v83h89v-83h-89zM157 579v83h89v-83h-89z" />
    <glyph glyph-name="copyright" unicode="&#xa9;" horiz-adv-x="779" 
d="M389 -13q-71 0 -133 26.5t-109 73.5t-73.5 109t-26.5 133t26.5 133.5t73.5 109.5t109 73.5t133 26.5t133 -26.5t109.5 -73.5t74 -109.5t26.5 -133.5t-26.5 -133t-74 -109t-109.5 -73.5t-133 -26.5zM389 36q61 0 114 23t93.5 63.5t63.5 93.5t23 113q0 61 -23 114
t-63.5 93.5t-93.5 63.5t-114 23t-114 -23t-93.5 -63.5t-63 -93.5t-22.5 -114q0 -60 22.5 -113t63 -93.5t93.5 -63.5t114 -23zM389 133q-58 0 -100 25.5t-64.5 70t-22.5 100.5q0 57 22.5 101t64.5 69t100 25q68 0 118.5 -35t61.5 -107h-67q-7 37 -35.5 58t-72.5 21
q-58 0 -91 -36.5t-33 -95.5q0 -58 33 -95t91 -37q44 0 72.5 21t35.5 58h67q-11 -73 -61.5 -108t-118.5 -35z" />
    <glyph glyph-name="ordfeminine" unicode="&#xaa;" horiz-adv-x="371" 
d="M167 392q-60 0 -95 40t-35 97t35 97t95 40q33 0 56.5 -13t38.5 -34v43h52v-266h-52v43q-15 -22 -38.5 -34.5t-56.5 -12.5zM177 440q40 0 63 25.5t23 63.5t-23 63.5t-63 25.5q-43 0 -65.5 -25.5t-22.5 -63.5q0 -39 22.5 -64t65.5 -25z" />
    <glyph glyph-name="guillemotleft" unicode="&#xab;" horiz-adv-x="487" 
d="M169 57l-130 202l130 202h89l-137 -202l137 -202h-89zM353 57l-130 202l130 202h89l-137 -202l137 -202h-89z" />
    <glyph glyph-name="logicalnot" unicode="&#xac;" horiz-adv-x="593" 
d="M457 186v135h-395v68h467v-203h-72z" />
    <glyph glyph-name="uni00AD" unicode="&#xad;" horiz-adv-x="356" 
d="M55 259v73h250v-73h-250z" />
    <glyph glyph-name="registered" unicode="&#xae;" horiz-adv-x="779" 
d="M389 -13q-71 0 -133 26.5t-109 73.5t-73.5 109t-26.5 133t26.5 133.5t73.5 109.5t109 73.5t133 26.5t133 -26.5t109.5 -73.5t74 -109.5t26.5 -133.5t-26.5 -133t-74 -109t-109.5 -73.5t-133 -26.5zM389 36q61 0 114 23t93.5 63.5t63.5 93.5t23 113q0 61 -23 114
t-63.5 93.5t-93.5 63.5t-114 23t-114 -23t-93.5 -63.5t-63 -93.5t-22.5 -114q0 -60 22.5 -113t63 -93.5t93.5 -63.5t114 -23zM240 138v382h162q81 0 118.5 -31.5t37.5 -81.5q0 -34 -20 -60.5t-55 -37.5q29 -8 44 -30t20.5 -48t5.5 -46v-47h-69v38q0 19 -3.5 42.5t-19.5 41.5
t-54 18h-97v-140h-70zM310 338h87q41 0 66.5 16t25.5 46q0 28 -20.5 44.5t-73.5 16.5h-85v-123z" />
    <glyph glyph-name="macron" unicode="&#xaf;" horiz-adv-x="382" 
d="M57 582v60h264v-60h-264z" />
    <glyph glyph-name="degree" unicode="&#xb0;" horiz-adv-x="333" 
d="M166 406q-36 0 -65.5 17.5t-47 47t-17.5 65.5t17.5 66t47 47.5t65.5 17.5t66 -17.5t47.5 -47.5t17.5 -66t-17.5 -65.5t-47.5 -47t-66 -17.5zM166 463q31 0 52.5 21.5t21.5 51.5q0 31 -21.5 52.5t-52.5 21.5q-30 0 -51.5 -21.5t-21.5 -52.5q0 -30 21.5 -51.5t51.5 -21.5z
" />
    <glyph glyph-name="plusminus" unicode="&#xb1;" horiz-adv-x="550" 
d="M242 122v154h-192v65h192v154h65v-154h193v-65h-193v-154h-65zM50 0v62h450v-62h-450z" />
    <glyph glyph-name="uni00B2" unicode="&#xb2;" horiz-adv-x="357" 
d="M50 449v33q0 41 28.5 73.5t95.5 76.5q29 22 48 46t19 49q0 26 -16.5 40.5t-46.5 14.5q-28 0 -50 -19t-22 -51h-63q0 42 20.5 70t52 42.5t62.5 14.5q50 0 88 -27.5t38 -83.5q0 -49 -32 -84.5t-78 -67.5q-28 -18 -51.5 -34t-30.5 -33h194v-60h-256z" />
    <glyph glyph-name="uni00B3" unicode="&#xb3;" horiz-adv-x="366" 
d="M184 443q-40 0 -72.5 16t-51.5 43t-19 60h62q0 -29 25 -44.5t55 -15.5q28 0 51 14.5t23 44.5q0 26 -20.5 43.5t-43.5 17.5h-54v60h48q21 0 38.5 13.5t17.5 35.5q0 24 -16.5 37t-44.5 13q-31 0 -50.5 -14.5t-19.5 -37.5h-60q0 47 37 78.5t92 31.5t90 -29t35 -77
q0 -22 -13 -44t-33 -35q58 -30 58 -92q0 -33 -18 -60t-48 -43t-68 -16z" />
    <glyph glyph-name="acute" unicode="&#xb4;" horiz-adv-x="349" 
d="M86 570l61 105h107l-107 -105h-61z" />
    <glyph glyph-name="uni00B5" unicode="&#xb5;" horiz-adv-x="564" 
d="M72 -198v698h75v-289q0 -68 39.5 -109.5t100.5 -41.5q42 0 76 19.5t54.5 53.5t20.5 79v288h75v-500h-75v78q-27 -36 -64 -61t-98 -25q-79 0 -129 54v-244h-75z" />
    <glyph glyph-name="paragraph" unicode="&#xb6;" horiz-adv-x="565" 
d="M276 -141v476h-73q-46 0 -84 22.5t-60.5 60.5t-22.5 84q0 47 22.5 85t60.5 60.5t84 22.5h306v-54h-43v-757h-59v757h-72v-757h-59z" />
    <glyph glyph-name="periodcentered" unicode="&#xb7;" horiz-adv-x="203" 
d="M53 242v102h97v-102h-97z" />
    <glyph glyph-name="cedilla" unicode="&#xb8;" horiz-adv-x="300" 
d="M151 -206q-38 0 -68.5 12.5t-49.5 28.5l19 33q16 -11 37 -20.5t48 -9.5q23 0 39 8t16 28q0 15 -16 24t-37 9q-18 0 -35 -5l-21 17l69 108h43l-44 -77q12 2 22 2q38 0 65 -20.5t27 -56.5q0 -42 -34 -61.5t-80 -19.5z" />
    <glyph glyph-name="uni00B9" unicode="&#xb9;" horiz-adv-x="319" 
d="M137 449v326h-82v60h144v-386h-62z" />
    <glyph glyph-name="ordmasculine" unicode="&#xba;" horiz-adv-x="342" 
d="M171 392q-61 0 -97.5 39.5t-36.5 97.5q0 59 36.5 98t97.5 39t97.5 -39t36.5 -98q0 -58 -36.5 -97.5t-97.5 -39.5zM171 452q33 0 52 22.5t19 54.5q0 31 -18 54t-53 23t-53 -23t-18 -54t18 -54t53 -23z" />
    <glyph glyph-name="guillemotright" unicode="&#xbb;" horiz-adv-x="487" 
d="M45 57l137 202l-137 202h89l130 -202l-130 -202h-89zM229 57l137 202l-137 202h89l130 -202l-130 -202h-89z" />
    <glyph glyph-name="onequarter" unicode="&#xbc;" horiz-adv-x="729" 
d="M137 276v326h-82v60h144v-386h-62zM633 151h52v-58h-52v-98h-62v98h-184v55l166 233h80v-230zM449 151h122v171zM111 -14l420 688h64l-420 -688h-64z" />
    <glyph glyph-name="onehalf" unicode="&#xbd;" horiz-adv-x="753" 
d="M457 0v33q0 41 28.5 73.5t95.5 76.5q29 22 48 46t19 49q0 26 -16.5 40.5t-46.5 14.5q-28 0 -50 -19t-22 -51h-63q0 42 20.5 70t52 42.5t62.5 14.5q50 0 88 -27.5t38 -83.5q0 -49 -32 -84.5t-78 -67.5q-28 -18 -51.5 -34t-30.5 -33h194v-60h-256zM137 276v326h-82v60h144
v-386h-62zM111 -14l420 688h64l-420 -688h-64z" />
    <glyph glyph-name="threequarters" unicode="&#xbe;" horiz-adv-x="792" 
d="M185 270q-40 0 -72.5 16t-51.5 43t-19 60h62q0 -29 25 -44.5t55 -15.5q28 0 51 14.5t23 44.5q0 26 -20.5 43.5t-43.5 17.5h-54v60h48q21 0 38.5 13.5t17.5 35.5q0 24 -16.5 37t-44.5 13q-31 0 -50.5 -14.5t-19.5 -37.5h-60q0 47 37 78.5t92 31.5t90 -29t35 -77
q0 -22 -13 -44t-33 -35q58 -30 58 -92q0 -33 -18 -60t-48 -43t-68 -16zM696 156h52v-58h-52v-98h-62v98h-184v55l166 233h80v-230zM512 156h122v171zM174 -14l420 688h64l-420 -688h-64z" />
    <glyph glyph-name="questiondown" unicode="&#xbf;" horiz-adv-x="510" 
d="M283 317q0 -49 -17 -83.5t-42 -60t-49.5 -49t-41.5 -50t-17 -63.5q0 -25 11.5 -51t39.5 -43.5t77 -17.5t82.5 19t52 50t21.5 66h71q-3 -55 -30.5 -101.5t-76 -74.5t-114.5 -28q-72 0 -117.5 26.5t-66.5 68t-21 86.5q0 47 16.5 78.5t41 56t49.5 47.5t41.5 52.5t16.5 71.5
h73zM295 500v-102h-97v102h97z" />
    <glyph glyph-name="Agrave" unicode="&#xc0;" horiz-adv-x="662" 
d="M304 725l-107 105h107l61 -105h-61zM3 0l281 662h94l281 -662h-83l-81 192h-328l-81 -192h-83zM196 261h270l-135 323z" />
    <glyph glyph-name="Aacute" unicode="&#xc1;" horiz-adv-x="662" 
d="M297 725l61 105h107l-107 -105h-61zM3 0l281 662h94l281 -662h-83l-81 192h-328l-81 -192h-83zM196 261h270l-135 323z" />
    <glyph glyph-name="Acircumflex" unicode="&#xc2;" horiz-adv-x="662" 
d="M190 725l98 105h87l97 -105h-82l-59 54l-59 -54h-82zM3 0l281 662h94l281 -662h-83l-81 192h-328l-81 -192h-83zM196 261h270l-135 323z" />
    <glyph glyph-name="Atilde" unicode="&#xc3;" horiz-adv-x="662" 
d="M401 723q-33 0 -54.5 10t-40 20t-41.5 10t-34 -13t-16 -26h-31q5 37 26.5 67.5t70.5 30.5q32 0 53.5 -10t40 -20.5t41.5 -10.5q22 0 33.5 13.5t15.5 26.5h32q-5 -37 -26.5 -67.5t-69.5 -30.5zM3 0l281 662h94l281 -662h-83l-81 192h-328l-81 -192h-83zM196 261h270
l-135 323z" />
    <glyph glyph-name="Adieresis" unicode="&#xc4;" horiz-adv-x="662" 
d="M208 730v83h89v-83h-89zM365 730v83h89v-83h-89zM3 0l281 662h94l281 -662h-83l-81 192h-328l-81 -192h-83zM196 261h270l-135 323z" />
    <glyph glyph-name="Aring" unicode="&#xc5;" horiz-adv-x="662" 
d="M330 635q-37 0 -63 26t-26 63q0 38 26 64t63 26q38 0 64.5 -26t26.5 -64q0 -37 -26.5 -63t-64.5 -26zM330 680q19 0 32 13t13 31q0 19 -13 32t-32 13q-17 0 -30 -13t-13 -32q0 -18 13 -31t30 -13zM3 0l281 662h94l281 -662h-83l-81 192h-328l-81 -192h-83zM196 261h270
l-135 323z" />
    <glyph glyph-name="AE" unicode="&#xc6;" horiz-adv-x="1022" 
d="M-3 0l453 662h533v-72h-387v-222h343v-73h-343v-223h387v-72h-462v185h-309l-125 -185h-90zM259 254h262v336h-34z" />
    <glyph glyph-name="Ccedilla" unicode="&#xc7;" horiz-adv-x="690" 
d="M365 65q82 0 136 36t79 97h79q-31 -88 -105.5 -145t-181.5 -61l-24 -42q12 2 22 2q38 0 65 -20.5t27 -56.5q0 -42 -34 -61.5t-80 -19.5q-38 0 -68.5 12.5t-49.5 28.5l19 33q16 -11 37 -20.5t48 -9.5q23 0 39 8t16 28q0 15 -16 24t-37 9q-18 0 -35 -5l-21 17l47 74
q-90 8 -154.5 54.5t-99 120.5t-34.5 163q0 94 38.5 171t110.5 122.5t171 45.5q75 0 135 -26.5t102 -72.5t63 -107h-79q-25 61 -79 97t-136 36q-80 0 -136.5 -35.5t-85.5 -95.5t-29 -135q0 -74 29 -134.5t85.5 -96t136.5 -35.5z" />
    <glyph glyph-name="Egrave" unicode="&#xc8;" horiz-adv-x="608" 
d="M307 725l-107 105h107l61 -105h-61zM81 0v662h487v-72h-412v-222h368v-73h-368v-223h412v-72h-487z" />
    <glyph glyph-name="Eacute" unicode="&#xc9;" horiz-adv-x="608" 
d="M300 725l61 105h107l-107 -105h-61zM81 0v662h487v-72h-412v-222h368v-73h-368v-223h412v-72h-487z" />
    <glyph glyph-name="Ecircumflex" unicode="&#xca;" horiz-adv-x="608" 
d="M193 725l98 105h87l97 -105h-82l-59 54l-59 -54h-82zM81 0v662h487v-72h-412v-222h368v-73h-368v-223h412v-72h-487z" />
    <glyph glyph-name="Edieresis" unicode="&#xcb;" horiz-adv-x="608" 
d="M211 730v83h89v-83h-89zM368 730v83h89v-83h-89zM81 0v662h487v-72h-412v-222h368v-73h-368v-223h412v-72h-487z" />
    <glyph glyph-name="Igrave" unicode="&#xcc;" horiz-adv-x="237" 
d="M92 725l-107 105h107l61 -105h-61zM81 0v662h75v-662h-75z" />
    <glyph glyph-name="Iacute" unicode="&#xcd;" horiz-adv-x="237" 
d="M85 725l61 105h107l-107 -105h-61zM81 0v662h75v-662h-75z" />
    <glyph glyph-name="Icircumflex" unicode="&#xce;" horiz-adv-x="237" 
d="M-22 725l98 105h87l97 -105h-82l-59 54l-59 -54h-82zM81 0v662h75v-662h-75z" />
    <glyph glyph-name="Idieresis" unicode="&#xcf;" horiz-adv-x="237" 
d="M-4 730v83h89v-83h-89zM153 730v83h89v-83h-89zM81 0v662h75v-662h-75z" />
    <glyph glyph-name="Eth" unicode="&#xd0;" horiz-adv-x="703" 
d="M81 0v298h-74v65h74v299h279q59 0 113.5 -22.5t97.5 -65.5t68 -104t25 -139t-25 -139t-68 -104t-97.5 -65.5t-113.5 -22.5h-279zM156 71h201q71 0 123 36t80.5 95t28.5 129q0 71 -28.5 130t-80.5 94.5t-123 35.5h-201v-228h199v-65h-199v-227z" />
    <glyph glyph-name="Ntilde" unicode="&#xd1;" horiz-adv-x="733" 
d="M437 723q-33 0 -54.5 10t-40 20t-41.5 10t-34 -13t-16 -26h-31q5 37 26.5 67.5t70.5 30.5q32 0 53.5 -10t40 -20.5t41.5 -10.5q22 0 33.5 13.5t15.5 26.5h32q-5 -37 -26.5 -67.5t-69.5 -30.5zM81 0v662h87l409 -557v557h75v-662h-87l-409 559v-559h-75z" />
    <glyph glyph-name="Ograve" unicode="&#xd2;" horiz-adv-x="750" 
d="M348 725l-107 105h107l61 -105h-61zM375 -8q-75 0 -137 26t-106.5 73t-68.5 108.5t-24 131.5q0 71 24 132t68.5 108t106.5 73t137 26t137 -26t106.5 -73t68.5 -108t24 -132q0 -70 -24 -131.5t-68.5 -108.5t-106.5 -73t-137 -26zM375 65q81 0 139.5 35.5t90 96t31.5 134.5
q0 75 -31.5 135t-90 95.5t-139.5 35.5q-80 0 -139 -35.5t-90.5 -95.5t-31.5 -135q0 -74 31.5 -134.5t90.5 -96t139 -35.5z" />
    <glyph glyph-name="Oacute" unicode="&#xd3;" horiz-adv-x="750" 
d="M341 725l61 105h107l-107 -105h-61zM375 -8q-75 0 -137 26t-106.5 73t-68.5 108.5t-24 131.5q0 71 24 132t68.5 108t106.5 73t137 26t137 -26t106.5 -73t68.5 -108t24 -132q0 -70 -24 -131.5t-68.5 -108.5t-106.5 -73t-137 -26zM375 65q81 0 139.5 35.5t90 96t31.5 134.5
q0 75 -31.5 135t-90 95.5t-139.5 35.5q-80 0 -139 -35.5t-90.5 -95.5t-31.5 -135q0 -74 31.5 -134.5t90.5 -96t139 -35.5z" />
    <glyph glyph-name="Ocircumflex" unicode="&#xd4;" horiz-adv-x="750" 
d="M234 725l98 105h87l97 -105h-82l-59 54l-59 -54h-82zM375 -8q-75 0 -137 26t-106.5 73t-68.5 108.5t-24 131.5q0 71 24 132t68.5 108t106.5 73t137 26t137 -26t106.5 -73t68.5 -108t24 -132q0 -70 -24 -131.5t-68.5 -108.5t-106.5 -73t-137 -26zM375 65q81 0 139.5 35.5
t90 96t31.5 134.5q0 75 -31.5 135t-90 95.5t-139.5 35.5q-80 0 -139 -35.5t-90.5 -95.5t-31.5 -135q0 -74 31.5 -134.5t90.5 -96t139 -35.5z" />
    <glyph glyph-name="Otilde" unicode="&#xd5;" horiz-adv-x="750" 
d="M445 723q-33 0 -54.5 10t-40 20t-41.5 10t-34 -13t-16 -26h-31q5 37 26.5 67.5t70.5 30.5q32 0 53.5 -10t40 -20.5t41.5 -10.5q22 0 33.5 13.5t15.5 26.5h32q-5 -37 -26.5 -67.5t-69.5 -30.5zM375 -8q-75 0 -137 26t-106.5 73t-68.5 108.5t-24 131.5q0 71 24 132
t68.5 108t106.5 73t137 26t137 -26t106.5 -73t68.5 -108t24 -132q0 -70 -24 -131.5t-68.5 -108.5t-106.5 -73t-137 -26zM375 65q81 0 139.5 35.5t90 96t31.5 134.5q0 75 -31.5 135t-90 95.5t-139.5 35.5q-80 0 -139 -35.5t-90.5 -95.5t-31.5 -135q0 -74 31.5 -134.5
t90.5 -96t139 -35.5z" />
    <glyph glyph-name="Odieresis" unicode="&#xd6;" horiz-adv-x="750" 
d="M252 730v83h89v-83h-89zM409 730v83h89v-83h-89zM375 -8q-75 0 -137 26t-106.5 73t-68.5 108.5t-24 131.5q0 71 24 132t68.5 108t106.5 73t137 26t137 -26t106.5 -73t68.5 -108t24 -132q0 -70 -24 -131.5t-68.5 -108.5t-106.5 -73t-137 -26zM375 65q81 0 139.5 35.5
t90 96t31.5 134.5q0 75 -31.5 135t-90 95.5t-139.5 35.5q-80 0 -139 -35.5t-90.5 -95.5t-31.5 -135q0 -74 31.5 -134.5t90.5 -96t139 -35.5z" />
    <glyph glyph-name="multiply" unicode="&#xd7;" horiz-adv-x="550" 
d="M122 54l-50 50l154 153l-154 154l50 49l153 -153l154 153l49 -49l-153 -154l153 -153l-49 -50l-154 154z" />
    <glyph glyph-name="Oslash" unicode="&#xd8;" horiz-adv-x="750" 
d="M122 -40l54 93q-65 46 -101 118.5t-36 159.5q0 71 24 132t68.5 108t106.5 73t137 26q38 0 73.5 -7t66.5 -21l33 58h74l-51 -89q66 -45 103 -118.5t37 -161.5q0 -70 -24 -131.5t-68.5 -108.5t-106.5 -73t-137 -26q-40 0 -76 7.5t-68 21.5l-35 -61h-74zM114 331
q0 -67 25.5 -122.5t72.5 -91.5l266 462q-47 18 -103 18q-80 0 -139 -35.5t-90.5 -95.5t-31.5 -135zM375 65q81 0 139.5 35.5t90 96t31.5 134.5q0 68 -26.5 124.5t-75.5 92.5l-266 -463q49 -20 107 -20z" />
    <glyph glyph-name="Ugrave" unicode="&#xd9;" horiz-adv-x="709" 
d="M328 725l-107 105h107l61 -105h-61zM354 -8q-82 0 -145.5 36.5t-99.5 102.5t-36 154v377h75v-379q0 -77 29.5 -125t77 -70.5t99.5 -22.5q53 0 100 22.5t77 70.5t30 125v379h75v-377q0 -87 -36 -153t-99.5 -103t-146.5 -37z" />
    <glyph glyph-name="Uacute" unicode="&#xda;" horiz-adv-x="709" 
d="M321 725l61 105h107l-107 -105h-61zM354 -8q-82 0 -145.5 36.5t-99.5 102.5t-36 154v377h75v-379q0 -77 29.5 -125t77 -70.5t99.5 -22.5q53 0 100 22.5t77 70.5t30 125v379h75v-377q0 -87 -36 -153t-99.5 -103t-146.5 -37z" />
    <glyph glyph-name="Ucircumflex" unicode="&#xdb;" horiz-adv-x="709" 
d="M214 725l98 105h87l97 -105h-82l-59 54l-59 -54h-82zM354 -8q-82 0 -145.5 36.5t-99.5 102.5t-36 154v377h75v-379q0 -77 29.5 -125t77 -70.5t99.5 -22.5q53 0 100 22.5t77 70.5t30 125v379h75v-377q0 -87 -36 -153t-99.5 -103t-146.5 -37z" />
    <glyph glyph-name="Udieresis" unicode="&#xdc;" horiz-adv-x="709" 
d="M232 730v83h89v-83h-89zM389 730v83h89v-83h-89zM354 -8q-82 0 -145.5 36.5t-99.5 102.5t-36 154v377h75v-379q0 -77 29.5 -125t77 -70.5t99.5 -22.5q53 0 100 22.5t77 70.5t30 125v379h75v-377q0 -87 -36 -153t-99.5 -103t-146.5 -37z" />
    <glyph glyph-name="Yacute" unicode="&#xdd;" horiz-adv-x="636" 
d="M285 725l61 105h107l-107 -105h-61zM281 0v262l-278 400h91l224 -322l224 322h91l-277 -400v-262h-75z" />
    <glyph glyph-name="Thorn" unicode="&#xde;" horiz-adv-x="628" 
d="M81 0v662h75v-97h223q106 0 167 -57.5t61 -155.5t-61 -155.5t-167 -57.5h-223v-139h-75zM156 209h218q78 0 118 38t40 105q0 66 -40 104t-118 38h-218v-285z" />
    <glyph glyph-name="germandbls" unicode="&#xdf;" horiz-adv-x="557" 
d="M65 0v514q0 91 57 142.5t157 51.5q55 0 103 -19t77.5 -61t29.5 -110q0 -51 -16.5 -83.5t-41.5 -50.5t-50 -27q29 -7 62 -27t56.5 -57.5t23.5 -97.5q0 -84 -61.5 -129.5t-168.5 -45.5h-88v66h89q68 0 110.5 29t42.5 91t-50.5 100t-143.5 38v55q68 0 114.5 34.5t46.5 95.5
q0 62 -33.5 97t-102.5 35q-40 0 -71 -11.5t-49 -39.5t-18 -80v-510h-75z" />
    <glyph glyph-name="agrave" unicode="&#xe0;" horiz-adv-x="595" 
d="M321 570l-107 105h107l61 -105h-61zM276 -8q-73 0 -127.5 34.5t-84.5 93.5t-30 130q0 72 30 130.5t84.5 93t127.5 34.5q62 0 106.5 -24t72.5 -65v81h75v-500h-75v80q-28 -40 -72.5 -64t-106.5 -24zM286 60q56 0 94.5 26t58.5 69.5t20 94.5q0 52 -20 95t-58.5 69t-94.5 26
q-55 0 -95 -26t-61 -69t-21 -95q0 -51 21 -94.5t61 -69.5t95 -26z" />
    <glyph glyph-name="aacute" unicode="&#xe1;" horiz-adv-x="595" 
d="M244 570l61 105h107l-107 -105h-61zM276 -8q-73 0 -127.5 34.5t-84.5 93.5t-30 130q0 72 30 130.5t84.5 93t127.5 34.5q62 0 106.5 -24t72.5 -65v81h75v-500h-75v80q-28 -40 -72.5 -64t-106.5 -24zM286 60q56 0 94.5 26t58.5 69.5t20 94.5q0 52 -20 95t-58.5 69t-94.5 26
q-55 0 -95 -26t-61 -69t-21 -95q0 -51 21 -94.5t61 -69.5t95 -26z" />
    <glyph glyph-name="acircumflex" unicode="&#xe2;" horiz-adv-x="595" 
d="M157 570l98 105h87l97 -105h-82l-59 54l-59 -54h-82zM276 -8q-73 0 -127.5 34.5t-84.5 93.5t-30 130q0 72 30 130.5t84.5 93t127.5 34.5q62 0 106.5 -24t72.5 -65v81h75v-500h-75v80q-28 -40 -72.5 -64t-106.5 -24zM286 60q56 0 94.5 26t58.5 69.5t20 94.5q0 52 -20 95
t-58.5 69t-94.5 26q-55 0 -95 -26t-61 -69t-21 -95q0 -51 21 -94.5t61 -69.5t95 -26z" />
    <glyph glyph-name="atilde" unicode="&#xe3;" horiz-adv-x="595" 
d="M359 569q-33 0 -54.5 10t-40 20t-41.5 10t-34 -13t-16 -26h-31q5 37 26.5 67.5t70.5 30.5q32 0 53.5 -10t40 -20.5t41.5 -10.5q22 0 33.5 13.5t15.5 26.5h32q-5 -37 -26.5 -67.5t-69.5 -30.5zM276 -8q-73 0 -127.5 34.5t-84.5 93.5t-30 130q0 72 30 130.5t84.5 93
t127.5 34.5q62 0 106.5 -24t72.5 -65v81h75v-500h-75v80q-28 -40 -72.5 -64t-106.5 -24zM286 60q56 0 94.5 26t58.5 69.5t20 94.5q0 52 -20 95t-58.5 69t-94.5 26q-55 0 -95 -26t-61 -69t-21 -95q0 -51 21 -94.5t61 -69.5t95 -26z" />
    <glyph glyph-name="adieresis" unicode="&#xe4;" horiz-adv-x="595" 
d="M176 579v83h89v-83h-89zM333 579v83h89v-83h-89zM276 -8q-73 0 -127.5 34.5t-84.5 93.5t-30 130q0 72 30 130.5t84.5 93t127.5 34.5q62 0 106.5 -24t72.5 -65v81h75v-500h-75v80q-28 -40 -72.5 -64t-106.5 -24zM286 60q56 0 94.5 26t58.5 69.5t20 94.5q0 52 -20 95
t-58.5 69t-94.5 26q-55 0 -95 -26t-61 -69t-21 -95q0 -51 21 -94.5t61 -69.5t95 -26z" />
    <glyph glyph-name="aring" unicode="&#xe5;" horiz-adv-x="595" 
d="M297 556q-37 0 -63 26t-26 63q0 38 26 64t63 26q38 0 64.5 -26t26.5 -64q0 -37 -26.5 -63t-64.5 -26zM297 601q19 0 32 13t13 31q0 19 -13 32t-32 13q-17 0 -30 -13t-13 -32q0 -18 13 -31t30 -13zM276 -8q-73 0 -127.5 34.5t-84.5 93.5t-30 130q0 72 30 130.5t84.5 93
t127.5 34.5q62 0 106.5 -24t72.5 -65v81h75v-500h-75v80q-28 -40 -72.5 -64t-106.5 -24zM286 60q56 0 94.5 26t58.5 69.5t20 94.5q0 52 -20 95t-58.5 69t-94.5 26q-55 0 -95 -26t-61 -69t-21 -95q0 -51 21 -94.5t61 -69.5t95 -26z" />
    <glyph glyph-name="ae" unicode="&#xe6;" horiz-adv-x="977" 
d="M276 -8q-73 0 -127.5 34.5t-84.5 93.5t-30 130q0 72 30 130.5t84.5 93t127.5 34.5q62 0 106.5 -24t72.5 -65v81h75v-72q27 37 70 58.5t102 21.5q77 0 132.5 -34.5t85.5 -93t30 -130.5v-30h-419q6 -44 28 -80.5t60 -58t89 -21.5q56 0 93 27t56 70h80q-24 -73 -85.5 -119
t-149.5 -46q-59 0 -102 21t-70 58v-71h-75v80q-28 -40 -72.5 -64t-106.5 -24zM286 60q56 0 94.5 26t58.5 69.5t20 94.5q0 52 -20 95t-58.5 69t-94.5 26q-55 0 -95 -26t-61 -69t-21 -95q0 -51 21 -94.5t61 -69.5t95 -26zM532 290h340q-10 64 -54 107t-116 43t-115.5 -43
t-54.5 -107z" />
    <glyph glyph-name="ccedilla" unicode="&#xe7;" horiz-adv-x="544" 
d="M290 60q53 0 90.5 27t54.5 70h81q-20 -69 -77.5 -114t-139.5 -50l-24 -43q12 2 22 2q38 0 65 -20.5t27 -56.5q0 -42 -34 -61.5t-80 -19.5q-38 0 -68.5 12.5t-49.5 28.5l19 33q16 -11 37 -20.5t48 -9.5q23 0 39 8t16 28q0 15 -16 24t-37 9q-18 0 -35 -5l-21 17l47 74
q-67 6 -116.5 41.5t-76.5 92t-27 123.5q0 72 30.5 130.5t85.5 93t130 34.5q89 0 151.5 -46t84.5 -119h-81q-17 43 -54.5 70t-90.5 27q-55 0 -96 -26t-63 -69t-22 -95q0 -51 22 -94.5t63 -69.5t96 -26z" />
    <glyph glyph-name="egrave" unicode="&#xe8;" horiz-adv-x="557" 
d="M302 570l-107 105h107l61 -105h-61zM287 -8q-76 0 -133 34.5t-88.5 93.5t-31.5 130q0 72 30 130.5t86 93t132 34.5q77 0 132.5 -34.5t85.5 -93t30 -130.5v-30h-419q6 -44 28.5 -80.5t60.5 -58t88 -21.5q53 0 89 23.5t56 60.5h82q-26 -67 -82.5 -109.5t-145.5 -42.5z
M112 290h340q-10 64 -54 107t-116 43t-115.5 -43t-54.5 -107z" />
    <glyph glyph-name="eacute" unicode="&#xe9;" horiz-adv-x="557" 
d="M225 570l61 105h107l-107 -105h-61zM287 -8q-76 0 -133 34.5t-88.5 93.5t-31.5 130q0 72 30 130.5t86 93t132 34.5q77 0 132.5 -34.5t85.5 -93t30 -130.5v-30h-419q6 -44 28.5 -80.5t60.5 -58t88 -21.5q53 0 89 23.5t56 60.5h82q-26 -67 -82.5 -109.5t-145.5 -42.5z
M112 290h340q-10 64 -54 107t-116 43t-115.5 -43t-54.5 -107z" />
    <glyph glyph-name="ecircumflex" unicode="&#xea;" horiz-adv-x="557" 
d="M138 570l98 105h87l97 -105h-82l-59 54l-59 -54h-82zM287 -8q-76 0 -133 34.5t-88.5 93.5t-31.5 130q0 72 30 130.5t86 93t132 34.5q77 0 132.5 -34.5t85.5 -93t30 -130.5v-30h-419q6 -44 28.5 -80.5t60.5 -58t88 -21.5q53 0 89 23.5t56 60.5h82q-26 -67 -82.5 -109.5
t-145.5 -42.5zM112 290h340q-10 64 -54 107t-116 43t-115.5 -43t-54.5 -107z" />
    <glyph glyph-name="edieresis" unicode="&#xeb;" horiz-adv-x="557" 
d="M157 579v83h89v-83h-89zM314 579v83h89v-83h-89zM287 -8q-76 0 -133 34.5t-88.5 93.5t-31.5 130q0 72 30 130.5t86 93t132 34.5q77 0 132.5 -34.5t85.5 -93t30 -130.5v-30h-419q6 -44 28.5 -80.5t60.5 -58t88 -21.5q53 0 89 23.5t56 60.5h82q-26 -67 -82.5 -109.5
t-145.5 -42.5zM112 290h340q-10 64 -54 107t-116 43t-115.5 -43t-54.5 -107z" />
    <glyph glyph-name="igrave" unicode="&#xec;" horiz-adv-x="205" 
d="M126 570l-107 105h107l61 -105h-61zM65 0v500h75v-500h-75z" />
    <glyph glyph-name="iacute" unicode="&#xed;" horiz-adv-x="205" 
d="M49 570l61 105h107l-107 -105h-61zM65 0v500h75v-500h-75z" />
    <glyph glyph-name="icircumflex" unicode="&#xee;" horiz-adv-x="205" 
d="M-38 570l98 105h87l97 -105h-82l-59 54l-59 -54h-82zM65 0v500h75v-500h-75z" />
    <glyph glyph-name="idieresis" unicode="&#xef;" horiz-adv-x="205" 
d="M-19 579v83h89v-83h-89zM138 579v83h89v-83h-89zM65 0v500h75v-500h-75z" />
    <glyph glyph-name="eth" unicode="&#xf0;" horiz-adv-x="563" 
d="M286 -8q-82 0 -138.5 36t-85 95.5t-28.5 129.5q0 72 28 131t79.5 94.5t121.5 35.5q47 0 84 -15.5t62 -43.5q-23 46 -60 75t-71 52l-56 -37l-32 38l43 28q-16 9 -31.5 17.5t-32.5 15.5l27 71q53 -25 104 -59l75 50l32 -38l-65 -43q54 -42 96.5 -92t67 -114t24.5 -150
q0 -53 -16.5 -102.5t-48 -89t-76.5 -62.5t-103 -23zM282 59q56 0 94.5 27.5t58.5 71.5t20 95t-22 95.5t-62.5 71.5t-96.5 27q-53 0 -90 -26.5t-56 -70.5t-19 -97q0 -51 20 -95t59 -71.5t94 -27.5z" />
    <glyph glyph-name="ntilde" unicode="&#xf1;" horiz-adv-x="566" 
d="M344 569q-33 0 -54.5 10t-40 20t-41.5 10t-34 -13t-16 -26h-31q5 37 26.5 67.5t70.5 30.5q32 0 53.5 -10t40 -20.5t41.5 -10.5q22 0 33.5 13.5t15.5 26.5h32q-5 -37 -26.5 -67.5t-69.5 -30.5zM65 0v500h75v-78q27 36 66 61t100 25q52 0 97.5 -24.5t74 -73t28.5 -119.5
v-291h-75v289q0 68 -39 109.5t-101 41.5q-42 0 -76 -19t-54.5 -53.5t-20.5 -79.5v-288h-75z" />
    <glyph glyph-name="ograve" unicode="&#xf2;" horiz-adv-x="564" 
d="M305 570l-107 105h107l61 -105h-61zM282 -8q-76 0 -132 34.5t-86 93.5t-30 130q0 72 30 130.5t86 93t132 34.5q77 0 132.5 -34.5t85.5 -93t30 -130.5q0 -71 -30 -130t-85.5 -93.5t-132.5 -34.5zM282 60q56 0 94.5 26t58.5 69.5t20 94.5q0 52 -20 95t-58.5 69t-94.5 26
q-55 0 -94 -26t-59 -69t-20 -95q0 -51 20 -94.5t59 -69.5t94 -26z" />
    <glyph glyph-name="oacute" unicode="&#xf3;" horiz-adv-x="564" 
d="M228 570l61 105h107l-107 -105h-61zM282 -8q-76 0 -132 34.5t-86 93.5t-30 130q0 72 30 130.5t86 93t132 34.5q77 0 132.5 -34.5t85.5 -93t30 -130.5q0 -71 -30 -130t-85.5 -93.5t-132.5 -34.5zM282 60q56 0 94.5 26t58.5 69.5t20 94.5q0 52 -20 95t-58.5 69t-94.5 26
q-55 0 -94 -26t-59 -69t-20 -95q0 -51 20 -94.5t59 -69.5t94 -26z" />
    <glyph glyph-name="ocircumflex" unicode="&#xf4;" horiz-adv-x="564" 
d="M141 570l98 105h87l97 -105h-82l-59 54l-59 -54h-82zM282 -8q-76 0 -132 34.5t-86 93.5t-30 130q0 72 30 130.5t86 93t132 34.5q77 0 132.5 -34.5t85.5 -93t30 -130.5q0 -71 -30 -130t-85.5 -93.5t-132.5 -34.5zM282 60q56 0 94.5 26t58.5 69.5t20 94.5q0 52 -20 95
t-58.5 69t-94.5 26q-55 0 -94 -26t-59 -69t-20 -95q0 -51 20 -94.5t59 -69.5t94 -26z" />
    <glyph glyph-name="otilde" unicode="&#xf5;" horiz-adv-x="564" 
d="M343 569q-33 0 -54.5 10t-40 20t-41.5 10t-34 -13t-16 -26h-31q5 37 26.5 67.5t70.5 30.5q32 0 53.5 -10t40 -20.5t41.5 -10.5q22 0 33.5 13.5t15.5 26.5h32q-5 -37 -26.5 -67.5t-69.5 -30.5zM282 -8q-76 0 -132 34.5t-86 93.5t-30 130q0 72 30 130.5t86 93t132 34.5
q77 0 132.5 -34.5t85.5 -93t30 -130.5q0 -71 -30 -130t-85.5 -93.5t-132.5 -34.5zM282 60q56 0 94.5 26t58.5 69.5t20 94.5q0 52 -20 95t-58.5 69t-94.5 26q-55 0 -94 -26t-59 -69t-20 -95q0 -51 20 -94.5t59 -69.5t94 -26z" />
    <glyph glyph-name="odieresis" unicode="&#xf6;" horiz-adv-x="564" 
d="M160 579v83h89v-83h-89zM317 579v83h89v-83h-89zM282 -8q-76 0 -132 34.5t-86 93.5t-30 130q0 72 30 130.5t86 93t132 34.5q77 0 132.5 -34.5t85.5 -93t30 -130.5q0 -71 -30 -130t-85.5 -93.5t-132.5 -34.5zM282 60q56 0 94.5 26t58.5 69.5t20 94.5q0 52 -20 95t-58.5 69
t-94.5 26q-55 0 -94 -26t-59 -69t-20 -95q0 -51 20 -94.5t59 -69.5t94 -26z" />
    <glyph glyph-name="divide" unicode="&#xf7;" horiz-adv-x="550" 
d="M231 359v93h88v-93h-88zM38 200v69h474v-69h-474zM231 17v93h88v-93h-88z" />
    <glyph glyph-name="oslash" unicode="&#xf8;" horiz-adv-x="564" 
d="M96 -16l33 57q-46 35 -70.5 90t-24.5 119q0 72 30 130.5t86 93t132 34.5q56 0 104 -20l21 37h74l-41 -71q43 -35 66.5 -88t23.5 -116q0 -71 -30 -130t-85.5 -93.5t-132.5 -34.5q-52 0 -97 18l-15 -26h-74zM109 250q0 -43 14.5 -81t41.5 -65l186 323q-32 13 -69 13
q-55 0 -94 -26t-59 -69t-20 -95zM282 60q56 0 94.5 26t58.5 69t20 95q0 41 -13 77.5t-38 63.5l-184 -321q28 -10 62 -10z" />
    <glyph glyph-name="ugrave" unicode="&#xf9;" horiz-adv-x="566" 
d="M306 570l-107 105h107l61 -105h-61zM260 -8q-51 0 -97 24.5t-74.5 73t-28.5 119.5v291h75v-289q0 -68 39.5 -109.5t100.5 -41.5q42 0 76 19.5t54.5 53.5t20.5 79v288h75v-500h-75v78q-27 -36 -66 -61t-100 -25z" />
    <glyph glyph-name="uacute" unicode="&#xfa;" horiz-adv-x="566" 
d="M229 570l61 105h107l-107 -105h-61zM260 -8q-51 0 -97 24.5t-74.5 73t-28.5 119.5v291h75v-289q0 -68 39.5 -109.5t100.5 -41.5q42 0 76 19.5t54.5 53.5t20.5 79v288h75v-500h-75v78q-27 -36 -66 -61t-100 -25z" />
    <glyph glyph-name="ucircumflex" unicode="&#xfb;" horiz-adv-x="566" 
d="M142 570l98 105h87l97 -105h-82l-59 54l-59 -54h-82zM260 -8q-51 0 -97 24.5t-74.5 73t-28.5 119.5v291h75v-289q0 -68 39.5 -109.5t100.5 -41.5q42 0 76 19.5t54.5 53.5t20.5 79v288h75v-500h-75v78q-27 -36 -66 -61t-100 -25z" />
    <glyph glyph-name="udieresis" unicode="&#xfc;" horiz-adv-x="566" 
d="M161 579v83h89v-83h-89zM318 579v83h89v-83h-89zM260 -8q-51 0 -97 24.5t-74.5 73t-28.5 119.5v291h75v-289q0 -68 39.5 -109.5t100.5 -41.5q42 0 76 19.5t54.5 53.5t20.5 79v288h75v-500h-75v78q-27 -36 -66 -61t-100 -25z" />
    <glyph glyph-name="yacute" unicode="&#xfd;" horiz-adv-x="497" 
d="M195 570l61 105h107l-107 -105h-61zM117 -198l91 205l-204 493h83l161 -410l164 410h82l-296 -698h-81z" />
    <glyph glyph-name="thorn" unicode="&#xfe;" horiz-adv-x="594" 
d="M65 -198v898h75v-281q28 41 72.5 65t106.5 24q73 0 127.5 -34.5t84.5 -93t30 -130.5q0 -71 -30 -130t-84.5 -93.5t-127.5 -34.5q-62 0 -106.5 24t-72.5 64v-278h-75zM309 60q56 0 95.5 26t60.5 69.5t21 94.5q0 52 -21 95t-60.5 69t-95.5 26q-55 0 -94 -26t-59 -69
t-20 -95q0 -51 20 -94.5t59 -69.5t94 -26z" />
    <glyph glyph-name="ydieresis" unicode="&#xff;" horiz-adv-x="497" 
d="M127 579v83h89v-83h-89zM284 579v83h89v-83h-89zM117 -198l91 205l-204 493h83l161 -410l164 410h82l-296 -698h-81z" />
    <glyph glyph-name="Amacron" unicode="&#x100;" horiz-adv-x="662" 
d="M199 736v60h264v-60h-264zM3 0l281 662h94l281 -662h-83l-81 192h-328l-81 -192h-83zM196 261h270l-135 323z" />
    <glyph glyph-name="amacron" unicode="&#x101;" horiz-adv-x="595" 
d="M166 584v60h264v-60h-264zM276 -8q-73 0 -127.5 34.5t-84.5 93.5t-30 130q0 72 30 130.5t84.5 93t127.5 34.5q62 0 106.5 -24t72.5 -65v81h75v-500h-75v80q-28 -40 -72.5 -64t-106.5 -24zM286 60q56 0 94.5 26t58.5 69.5t20 94.5q0 52 -20 95t-58.5 69t-94.5 26
q-55 0 -95 -26t-61 -69t-21 -95q0 -51 21 -94.5t61 -69.5t95 -26z" />
    <glyph glyph-name="Abreve" unicode="&#x102;" horiz-adv-x="662" 
d="M332 717q-49 0 -84 28t-35 67q0 8 2 15l4 14h18q3 -28 30 -46.5t65 -18.5q37 0 64 18.5t30 46.5h18q6 -13 6 -29q0 -39 -34.5 -67t-83.5 -28zM3 0l281 662h94l281 -662h-83l-81 192h-328l-81 -192h-83zM196 261h270l-135 323z" />
    <glyph glyph-name="abreve" unicode="&#x103;" horiz-adv-x="595" 
d="M299 567q-49 0 -84 28t-35 67q0 8 2 15l4 14h18q3 -28 30 -46.5t65 -18.5q37 0 64 18.5t30 46.5h18q6 -13 6 -29q0 -39 -34.5 -67t-83.5 -28zM276 -8q-73 0 -127.5 34.5t-84.5 93.5t-30 130q0 72 30 130.5t84.5 93t127.5 34.5q62 0 106.5 -24t72.5 -65v81h75v-500h-75v80
q-28 -40 -72.5 -64t-106.5 -24zM286 60q56 0 94.5 26t58.5 69.5t20 94.5q0 52 -20 95t-58.5 69t-94.5 26q-55 0 -95 -26t-61 -69t-21 -95q0 -51 21 -94.5t61 -69.5t95 -26z" />
    <glyph glyph-name="Aogonek" unicode="&#x104;" horiz-adv-x="662" 
d="M487 -125q0 34 19 57.5t46.5 39t50.5 26.5h56q-15 -9 -37.5 -24t-40 -35t-17.5 -45q0 -24 19 -37t41 -13q20 0 36 11v-39q-15 -12 -35 -18t-41 -6q-37 0 -67 21t-30 62zM3 0l281 662h94l281 -662h-83l-81 192h-328l-81 -192h-83zM196 261h270l-135 323z" />
    <glyph glyph-name="aogonek" unicode="&#x105;" horiz-adv-x="595" 
d="M358 -123q0 34 19 57.5t46.5 39t50.5 26.5h56q-15 -9 -37.5 -24t-40 -35t-17.5 -45q0 -24 19 -37t41 -13q20 0 36 11v-39q-15 -12 -35 -18t-41 -6q-37 0 -67 21t-30 62zM276 -8q-73 0 -127.5 34.5t-84.5 93.5t-30 130q0 72 30 130.5t84.5 93t127.5 34.5q62 0 106.5 -24
t72.5 -65v81h75v-500h-75v80q-28 -40 -72.5 -64t-106.5 -24zM286 60q56 0 94.5 26t58.5 69.5t20 94.5q0 52 -20 95t-58.5 69t-94.5 26q-55 0 -95 -26t-61 -69t-21 -95q0 -51 21 -94.5t61 -69.5t95 -26z" />
    <glyph glyph-name="Cacute" unicode="&#x106;" horiz-adv-x="690" 
d="M311 725l61 105h107l-107 -105h-61zM359 -8q-99 0 -171 45.5t-110.5 122.5t-38.5 171t38.5 171t110.5 122.5t171 45.5q75 0 135 -26.5t102 -72.5t63 -107h-79q-25 61 -79 97t-136 36q-80 0 -136.5 -35.5t-85.5 -95.5t-29 -135q0 -74 29 -134.5t85.5 -96t136.5 -35.5
q82 0 136 36t79 97h79q-21 -60 -63 -106.5t-102 -73t-135 -26.5z" />
    <glyph glyph-name="cacute" unicode="&#x107;" horiz-adv-x="544" 
d="M218 570l61 105h107l-107 -105h-61zM280 -8q-75 0 -130 34.5t-85.5 93.5t-30.5 130q0 72 30.5 130.5t85.5 93t130 34.5q89 0 151.5 -46t84.5 -119h-81q-17 43 -54.5 70t-90.5 27q-55 0 -96 -26t-63 -69t-22 -95q0 -51 22 -94.5t63 -69.5t96 -26q53 0 90.5 27t54.5 70h81
q-22 -73 -84.5 -119t-151.5 -46z" />
    <glyph glyph-name="Ccircumflex" unicode="&#x108;" horiz-adv-x="690" 
d="M204 725l98 105h87l97 -105h-82l-59 54l-59 -54h-82zM359 -8q-99 0 -171 45.5t-110.5 122.5t-38.5 171t38.5 171t110.5 122.5t171 45.5q75 0 135 -26.5t102 -72.5t63 -107h-79q-25 61 -79 97t-136 36q-80 0 -136.5 -35.5t-85.5 -95.5t-29 -135q0 -74 29 -134.5t85.5 -96
t136.5 -35.5q82 0 136 36t79 97h79q-21 -60 -63 -106.5t-102 -73t-135 -26.5z" />
    <glyph glyph-name="ccircumflex" unicode="&#x109;" horiz-adv-x="544" 
d="M131 570l98 105h87l97 -105h-82l-59 54l-59 -54h-82zM280 -8q-75 0 -130 34.5t-85.5 93.5t-30.5 130q0 72 30.5 130.5t85.5 93t130 34.5q89 0 151.5 -46t84.5 -119h-81q-17 43 -54.5 70t-90.5 27q-55 0 -96 -26t-63 -69t-22 -95q0 -51 22 -94.5t63 -69.5t96 -26
q53 0 90.5 27t54.5 70h81q-22 -73 -84.5 -119t-151.5 -46z" />
    <glyph glyph-name="Cdotaccent" unicode="&#x10a;" horiz-adv-x="690" 
d="M301 732v83h89v-83h-89zM359 -8q-99 0 -171 45.5t-110.5 122.5t-38.5 171t38.5 171t110.5 122.5t171 45.5q75 0 135 -26.5t102 -72.5t63 -107h-79q-25 61 -79 97t-136 36q-80 0 -136.5 -35.5t-85.5 -95.5t-29 -135q0 -74 29 -134.5t85.5 -96t136.5 -35.5q82 0 136 36
t79 97h79q-21 -60 -63 -106.5t-102 -73t-135 -26.5z" />
    <glyph glyph-name="cdotaccent" unicode="&#x10b;" horiz-adv-x="544" 
d="M228 580v83h89v-83h-89zM280 -8q-75 0 -130 34.5t-85.5 93.5t-30.5 130q0 72 30.5 130.5t85.5 93t130 34.5q89 0 151.5 -46t84.5 -119h-81q-17 43 -54.5 70t-90.5 27q-55 0 -96 -26t-63 -69t-22 -95q0 -51 22 -94.5t63 -69.5t96 -26q53 0 90.5 27t54.5 70h81
q-22 -73 -84.5 -119t-151.5 -46z" />
    <glyph glyph-name="Ccaron" unicode="&#x10c;" horiz-adv-x="690" 
d="M302 725l-98 105h82l59 -54l59 54h82l-97 -105h-87zM359 -8q-99 0 -171 45.5t-110.5 122.5t-38.5 171t38.5 171t110.5 122.5t171 45.5q75 0 135 -26.5t102 -72.5t63 -107h-79q-25 61 -79 97t-136 36q-80 0 -136.5 -35.5t-85.5 -95.5t-29 -135q0 -74 29 -134.5t85.5 -96
t136.5 -35.5q82 0 136 36t79 97h79q-21 -60 -63 -106.5t-102 -73t-135 -26.5z" />
    <glyph glyph-name="ccaron" unicode="&#x10d;" horiz-adv-x="544" 
d="M229 570l-98 105h82l59 -54l59 54h82l-97 -105h-87zM280 -8q-75 0 -130 34.5t-85.5 93.5t-30.5 130q0 72 30.5 130.5t85.5 93t130 34.5q89 0 151.5 -46t84.5 -119h-81q-17 43 -54.5 70t-90.5 27q-55 0 -96 -26t-63 -69t-22 -95q0 -51 22 -94.5t63 -69.5t96 -26
q53 0 90.5 27t54.5 70h81q-22 -73 -84.5 -119t-151.5 -46z" />
    <glyph glyph-name="Dcaron" unicode="&#x10e;" horiz-adv-x="703" 
d="M309 725l-98 105h82l59 -54l59 54h82l-97 -105h-87zM81 0v662h279q59 0 113.5 -22.5t97.5 -65.5t68 -104t25 -139t-25 -139t-68 -104t-97.5 -65.5t-113.5 -22.5h-279zM156 71h201q71 0 123 36t80.5 95t28.5 129q0 71 -28.5 130t-80.5 94.5t-123 35.5h-201v-520z" />
    <glyph glyph-name="dcaron" unicode="&#x10f;" horiz-adv-x="595" 
d="M685 700l-35 -167h-55l14 167h76zM276 -8q-73 0 -127.5 34.5t-84.5 93.5t-30 130q0 72 30 130.5t84.5 93t127.5 34.5q62 0 106.5 -24t72.5 -65v281h75v-700h-75v80q-28 -40 -72.5 -64t-106.5 -24zM286 60q56 0 94.5 26t58.5 69.5t20 94.5q0 52 -20 95t-58.5 69t-94.5 26
q-55 0 -95 -26t-61 -69t-21 -95q0 -51 21 -94.5t61 -69.5t95 -26z" />
    <glyph glyph-name="Dcroat" unicode="&#x110;" horiz-adv-x="703" 
d="M81 0v298h-74v65h74v299h279q59 0 113.5 -22.5t97.5 -65.5t68 -104t25 -139t-25 -139t-68 -104t-97.5 -65.5t-113.5 -22.5h-279zM156 71h201q71 0 123 36t80.5 95t28.5 129q0 71 -28.5 130t-80.5 94.5t-123 35.5h-201v-228h199v-65h-199v-227z" />
    <glyph glyph-name="dcroat" unicode="&#x111;" horiz-adv-x="595" 
d="M276 -8q-73 0 -127.5 34.5t-84.5 93.5t-30 130q0 72 30 130.5t84.5 93t127.5 34.5q62 0 106.5 -24t72.5 -65v131h-120v66h120v84h75v-84h50v-66h-50v-550h-75v80q-28 -40 -72.5 -64t-106.5 -24zM286 60q56 0 94.5 26t58.5 69.5t20 94.5q0 52 -20 95t-58.5 69t-94.5 26
q-55 0 -95 -26t-61 -69t-21 -95q0 -51 21 -94.5t61 -69.5t95 -26z" />
    <glyph glyph-name="Emacron" unicode="&#x112;" horiz-adv-x="608" 
d="M202 736v60h264v-60h-264zM81 0v662h487v-72h-412v-222h368v-73h-368v-223h412v-72h-487z" />
    <glyph glyph-name="emacron" unicode="&#x113;" horiz-adv-x="557" 
d="M147 584v60h264v-60h-264zM287 -8q-76 0 -133 34.5t-88.5 93.5t-31.5 130q0 72 30 130.5t86 93t132 34.5q77 0 132.5 -34.5t85.5 -93t30 -130.5v-30h-419q6 -44 28.5 -80.5t60.5 -58t88 -21.5q53 0 89 23.5t56 60.5h82q-26 -67 -82.5 -109.5t-145.5 -42.5zM112 290h340
q-10 64 -54 107t-116 43t-115.5 -43t-54.5 -107z" />
    <glyph glyph-name="Ebreve" unicode="&#x114;" horiz-adv-x="608" 
d="M335 717q-49 0 -84 28t-35 67q0 8 2 15l4 14h18q3 -28 30 -46.5t65 -18.5q37 0 64 18.5t30 46.5h18q6 -13 6 -29q0 -39 -34.5 -67t-83.5 -28zM81 0v662h487v-72h-412v-222h368v-73h-368v-223h412v-72h-487z" />
    <glyph glyph-name="ebreve" unicode="&#x115;" horiz-adv-x="557" 
d="M280 567q-49 0 -84 28t-35 67q0 8 2 15l4 14h18q3 -28 30 -46.5t65 -18.5q37 0 64 18.5t30 46.5h18q6 -13 6 -29q0 -39 -34.5 -67t-83.5 -28zM287 -8q-76 0 -133 34.5t-88.5 93.5t-31.5 130q0 72 30 130.5t86 93t132 34.5q77 0 132.5 -34.5t85.5 -93t30 -130.5v-30h-419
q6 -44 28.5 -80.5t60.5 -58t88 -21.5q53 0 89 23.5t56 60.5h82q-26 -67 -82.5 -109.5t-145.5 -42.5zM112 290h340q-10 64 -54 107t-116 43t-115.5 -43t-54.5 -107z" />
    <glyph glyph-name="Edotaccent" unicode="&#x116;" horiz-adv-x="608" 
d="M290 732v83h89v-83h-89zM81 0v662h487v-72h-412v-222h368v-73h-368v-223h412v-72h-487z" />
    <glyph glyph-name="edotaccent" unicode="&#x117;" horiz-adv-x="557" 
d="M235 580v83h89v-83h-89zM287 -8q-76 0 -133 34.5t-88.5 93.5t-31.5 130q0 72 30 130.5t86 93t132 34.5q77 0 132.5 -34.5t85.5 -93t30 -130.5v-30h-419q6 -44 28.5 -80.5t60.5 -58t88 -21.5q53 0 89 23.5t56 60.5h82q-26 -67 -82.5 -109.5t-145.5 -42.5zM112 290h340
q-10 64 -54 107t-116 43t-115.5 -43t-54.5 -107z" />
    <glyph glyph-name="Eogonek" unicode="&#x118;" horiz-adv-x="608" 
d="M396 -123q0 34 19 57.5t46.5 39t50.5 26.5h56q-15 -9 -37.5 -24t-40 -35t-17.5 -45q0 -24 19 -37t41 -13q20 0 36 11v-39q-15 -12 -35 -18t-41 -6q-37 0 -67 21t-30 62zM81 0v662h487v-72h-412v-222h368v-73h-368v-223h412v-72h-487z" />
    <glyph glyph-name="eogonek" unicode="&#x119;" horiz-adv-x="557" 
d="M217 -123q0 43 26 70.5t57 44.5h-13q-76 0 -133 34.5t-88.5 93.5t-31.5 130q0 72 30 130.5t86 93t132 34.5q77 0 132.5 -34.5t85.5 -93t30 -130.5v-30h-419q6 -44 28.5 -80.5t60.5 -58t88 -21.5q53 0 89 23.5t56 60.5h82q-17 -44 -46.5 -77.5t-71.5 -52.5
q-18 -11 -42.5 -28t-42.5 -40t-18 -50q0 -24 19 -37t41 -13q20 0 36 11v-39q-15 -12 -35 -18t-41 -6q-37 0 -67 21t-30 62zM112 290h340q-10 64 -54 107t-116 43t-115.5 -43t-54.5 -107z" />
    <glyph glyph-name="Ecaron" unicode="&#x11a;" horiz-adv-x="608" 
d="M291 725l-98 105h82l59 -54l59 54h82l-97 -105h-87zM81 0v662h487v-72h-412v-222h368v-73h-368v-223h412v-72h-487z" />
    <glyph glyph-name="ecaron" unicode="&#x11b;" horiz-adv-x="557" 
d="M236 570l-98 105h82l59 -54l59 54h82l-97 -105h-87zM287 -8q-76 0 -133 34.5t-88.5 93.5t-31.5 130q0 72 30 130.5t86 93t132 34.5q77 0 132.5 -34.5t85.5 -93t30 -130.5v-30h-419q6 -44 28.5 -80.5t60.5 -58t88 -21.5q53 0 89 23.5t56 60.5h82q-26 -67 -82.5 -109.5
t-145.5 -42.5zM112 290h340q-10 64 -54 107t-116 43t-115.5 -43t-54.5 -107z" />
    <glyph glyph-name="Gcircumflex" unicode="&#x11c;" horiz-adv-x="723" 
d="M221 725l98 105h87l97 -105h-82l-59 54l-59 -54h-82zM363 -8q-101 0 -173.5 45.5t-111.5 122.5t-39 171t40 171t113.5 122.5t172.5 45.5q107 0 185.5 -52.5t115.5 -135.5h-82q-30 53 -83.5 84t-129.5 31q-80 0 -138 -35.5t-88.5 -95.5t-30.5 -135q0 -74 30 -134.5
t87.5 -96t137.5 -35.5q60 0 113.5 26t87 75t33.5 118h-242v68h311v-352h-69v117q-21 -32 -54 -60.5t-79.5 -46.5t-106.5 -18z" />
    <glyph glyph-name="gcircumflex" unicode="&#x11d;" horiz-adv-x="595" 
d="M157 570l98 105h87l97 -105h-82l-59 54l-59 -54h-82zM294 -206q-94 0 -153 40.5t-80 105.5h83q15 -37 52 -57.5t94 -20.5q86 0 125.5 40.5t39.5 117.5v69q-28 -40 -72.5 -64.5t-106.5 -24.5q-73 0 -127.5 33.5t-84.5 91.5t-30 129q0 72 30 129.5t84.5 91t127.5 33.5
q62 0 106.5 -23.5t72.5 -64.5v80h75v-485q0 -107 -61.5 -164t-174.5 -57zM286 68q55 0 93.5 25t59 67.5t20.5 93.5q0 52 -20.5 94t-59 67t-93.5 25t-95 -25t-61 -67t-21 -94q0 -51 21 -93.5t61 -67.5t95 -25z" />
    <glyph glyph-name="Gbreve" unicode="&#x11e;" horiz-adv-x="723" 
d="M363 717q-49 0 -84 28t-35 67q0 8 2 15l4 14h18q3 -28 30 -46.5t65 -18.5q37 0 64 18.5t30 46.5h18q6 -13 6 -29q0 -39 -34.5 -67t-83.5 -28zM363 -8q-101 0 -173.5 45.5t-111.5 122.5t-39 171t40 171t113.5 122.5t172.5 45.5q107 0 185.5 -52.5t115.5 -135.5h-82
q-30 53 -83.5 84t-129.5 31q-80 0 -138 -35.5t-88.5 -95.5t-30.5 -135q0 -74 30 -134.5t87.5 -96t137.5 -35.5q60 0 113.5 26t87 75t33.5 118h-242v68h311v-352h-69v117q-21 -32 -54 -60.5t-79.5 -46.5t-106.5 -18z" />
    <glyph glyph-name="gbreve" unicode="&#x11f;" horiz-adv-x="595" 
d="M299 567q-49 0 -84 28t-35 67q0 8 2 15l4 14h18q3 -28 30 -46.5t65 -18.5q37 0 64 18.5t30 46.5h18q6 -13 6 -29q0 -39 -34.5 -67t-83.5 -28zM294 -206q-94 0 -153 40.5t-80 105.5h83q15 -37 52 -57.5t94 -20.5q86 0 125.5 40.5t39.5 117.5v69q-28 -40 -72.5 -64.5
t-106.5 -24.5q-73 0 -127.5 33.5t-84.5 91.5t-30 129q0 72 30 129.5t84.5 91t127.5 33.5q62 0 106.5 -23.5t72.5 -64.5v80h75v-485q0 -107 -61.5 -164t-174.5 -57zM286 68q55 0 93.5 25t59 67.5t20.5 93.5q0 52 -20.5 94t-59 67t-93.5 25t-95 -25t-61 -67t-21 -94
q0 -51 21 -93.5t61 -67.5t95 -25z" />
    <glyph glyph-name="Gdotaccent" unicode="&#x120;" horiz-adv-x="723" 
d="M318 732v83h89v-83h-89zM363 -8q-101 0 -173.5 45.5t-111.5 122.5t-39 171t40 171t113.5 122.5t172.5 45.5q107 0 185.5 -52.5t115.5 -135.5h-82q-30 53 -83.5 84t-129.5 31q-80 0 -138 -35.5t-88.5 -95.5t-30.5 -135q0 -74 30 -134.5t87.5 -96t137.5 -35.5
q60 0 113.5 26t87 75t33.5 118h-242v68h311v-352h-69v117q-21 -32 -54 -60.5t-79.5 -46.5t-106.5 -18z" />
    <glyph glyph-name="gdotaccent" unicode="&#x121;" horiz-adv-x="595" 
d="M254 580v83h89v-83h-89zM294 -206q-94 0 -153 40.5t-80 105.5h83q15 -37 52 -57.5t94 -20.5q86 0 125.5 40.5t39.5 117.5v69q-28 -40 -72.5 -64.5t-106.5 -24.5q-73 0 -127.5 33.5t-84.5 91.5t-30 129q0 72 30 129.5t84.5 91t127.5 33.5q62 0 106.5 -23.5t72.5 -64.5v80
h75v-485q0 -107 -61.5 -164t-174.5 -57zM286 68q55 0 93.5 25t59 67.5t20.5 93.5q0 52 -20.5 94t-59 67t-93.5 25t-95 -25t-61 -67t-21 -94q0 -51 21 -93.5t61 -67.5t95 -25z" />
    <glyph glyph-name="uni0122" unicode="&#x122;" horiz-adv-x="723" 
d="M304 -198l44 150h73l-66 -150h-51zM363 -8q-101 0 -173.5 45.5t-111.5 122.5t-39 171t40 171t113.5 122.5t172.5 45.5q107 0 185.5 -52.5t115.5 -135.5h-82q-30 53 -83.5 84t-129.5 31q-80 0 -138 -35.5t-88.5 -95.5t-30.5 -135q0 -74 30 -134.5t87.5 -96t137.5 -35.5
q60 0 113.5 26t87 75t33.5 118h-242v68h311v-352h-69v117q-21 -32 -54 -60.5t-79.5 -46.5t-106.5 -18z" />
    <glyph glyph-name="uni0123" unicode="&#x123;" horiz-adv-x="595" 
d="M357 729l-44 -150h-73l66 150h51zM294 -206q-94 0 -153 40.5t-80 105.5h83q15 -37 52 -57.5t94 -20.5q86 0 125.5 40.5t39.5 117.5v69q-28 -40 -72.5 -64.5t-106.5 -24.5q-73 0 -127.5 33.5t-84.5 91.5t-30 129q0 72 30 129.5t84.5 91t127.5 33.5q62 0 106.5 -23.5
t72.5 -64.5v80h75v-485q0 -107 -61.5 -164t-174.5 -57zM286 68q55 0 93.5 25t59 67.5t20.5 93.5q0 52 -20.5 94t-59 67t-93.5 25t-95 -25t-61 -67t-21 -94q0 -51 21 -93.5t61 -67.5t95 -25z" />
    <glyph glyph-name="Hcircumflex" unicode="&#x124;" horiz-adv-x="697" 
d="M208 725l98 105h87l97 -105h-82l-59 54l-59 -54h-82zM81 0v662h75v-294h385v294h75v-662h-75v295h-385v-295h-75z" />
    <glyph glyph-name="hcircumflex" unicode="&#x125;" horiz-adv-x="566" 
d="M-39 763l98 105h87l97 -105h-82l-59 54l-59 -54h-82zM65 0v700h75v-278q27 36 66 61t100 25q52 0 97.5 -24.5t74 -73t28.5 -119.5v-291h-75v289q0 68 -39 109.5t-101 41.5q-42 0 -76 -19t-54.5 -53.5t-20.5 -79.5v-288h-75z" />
    <glyph glyph-name="Hbar" unicode="&#x126;" horiz-adv-x="697" 
d="M81 0v468h-46v70h46v124h75v-124h385v124h75v-124h46v-70h-46v-468h-75v295h-385v-295h-75zM156 368h385v100h-385v-100z" />
    <glyph glyph-name="hbar" unicode="&#x127;" horiz-adv-x="566" 
d="M65 0v546h-50v70h50v84h75v-84h120v-70h-120v-124q27 36 66 61t100 25q52 0 97.5 -24.5t74 -73t28.5 -119.5v-291h-75v289q0 68 -39 109.5t-101 41.5q-42 0 -76 -19t-54.5 -53.5t-20.5 -79.5v-288h-75z" />
    <glyph glyph-name="Itilde" unicode="&#x128;" horiz-adv-x="237" 
d="M189 723q-33 0 -54.5 10t-40 20t-41.5 10t-34 -13t-16 -26h-31q5 37 26.5 67.5t70.5 30.5q32 0 53.5 -10t40 -20.5t41.5 -10.5q22 0 33.5 13.5t15.5 26.5h32q-5 -37 -26.5 -67.5t-69.5 -30.5zM81 0v662h75v-662h-75z" />
    <glyph glyph-name="itilde" unicode="&#x129;" horiz-adv-x="205" 
d="M163 569q-33 0 -54.5 10t-40 20t-41.5 10t-34 -13t-16 -26h-31q5 37 26.5 67.5t70.5 30.5q32 0 53.5 -10t40 -20.5t41.5 -10.5q22 0 33.5 13.5t15.5 26.5h32q-5 -37 -26.5 -67.5t-69.5 -30.5zM65 0v500h75v-500h-75z" />
    <glyph glyph-name="Imacron" unicode="&#x12a;" horiz-adv-x="237" 
d="M-13 736v60h264v-60h-264zM81 0v662h75v-662h-75z" />
    <glyph glyph-name="imacron" unicode="&#x12b;" horiz-adv-x="205" 
d="M-29 584v60h264v-60h-264zM65 0v500h75v-500h-75z" />
    <glyph glyph-name="Ibreve" unicode="&#x12c;" horiz-adv-x="237" 
d="M120 717q-49 0 -84 28t-35 67q0 8 2 15l4 14h18q3 -28 30 -46.5t65 -18.5q37 0 64 18.5t30 46.5h18q6 -13 6 -29q0 -39 -34.5 -67t-83.5 -28zM81 0v662h75v-662h-75z" />
    <glyph glyph-name="ibreve" unicode="&#x12d;" horiz-adv-x="205" 
d="M103 567q-49 0 -84 28t-35 67q0 8 2 15l4 14h18q3 -28 30 -46.5t65 -18.5q37 0 64 18.5t30 46.5h18q6 -13 6 -29q0 -39 -34.5 -67t-83.5 -28zM65 0v500h75v-500h-75z" />
    <glyph glyph-name="Iogonek" unicode="&#x12e;" horiz-adv-x="237" 
d="M-16 -123q0 34 19 57.5t46.5 39t50.5 26.5h56q-15 -9 -37.5 -24t-40 -35t-17.5 -45q0 -24 19 -37t41 -13q20 0 36 11v-39q-15 -12 -35 -18t-41 -6q-37 0 -67 21t-30 62zM81 0v662h75v-662h-75z" />
    <glyph glyph-name="iogonek" unicode="&#x12f;" horiz-adv-x="205" 
d="M-33 -123q0 34 19 57.5t46.5 39t50.5 26.5h56q-15 -9 -37.5 -24t-40 -35t-17.5 -45q0 -24 19 -37t41 -13q20 0 36 11v-39q-15 -12 -35 -18t-41 -6q-37 0 -67 21t-30 62zM59 580v83h89v-83h-89zM65 0v500h75v-500h-75z" />
    <glyph glyph-name="Idotaccent" unicode="&#x130;" horiz-adv-x="237" 
d="M75 732v83h89v-83h-89zM81 0v662h75v-662h-75z" />
    <glyph glyph-name="dotlessi" unicode="&#x131;" horiz-adv-x="205" 
d="M65 0v500h75v-500h-75z" />
    <glyph glyph-name="IJ" unicode="&#x132;" horiz-adv-x="611" 
d="M81 0v662h75v-662h-75zM575 -8q-71 0 -118.5 27.5t-72.5 70t-30 87.5h78q4 -26 21 -52t48 -43t78 -17q45 0 72.5 14.5t41 38.5t18.5 51.5t5 52.5v440h75v-443q0 -58 -20.5 -110t-68 -84.5t-127.5 -32.5z" />
    <glyph glyph-name="ij" unicode="&#x133;" horiz-adv-x="514" 
d="M62 584v98h81v-98h-81zM65 0v500h75v-500h-75zM318 584v98h81v-98h-81zM321 -198v698h75v-698h-75z" />
    <glyph glyph-name="Jcircumflex" unicode="&#x134;" horiz-adv-x="527" 
d="M272 725l98 105h87l97 -105h-82l-59 54l-59 -54h-82zM236 -8q-71 0 -118.5 27.5t-72.5 70t-30 87.5h78q4 -26 21 -52t48 -43t78 -17q45 0 72.5 14.5t41 38.5t18.5 51.5t5 52.5v440h75v-443q0 -58 -20.5 -110t-68 -84.5t-127.5 -32.5z" />
    <glyph glyph-name="jcircumflex" unicode="&#x135;" horiz-adv-x="205" 
d="M-38 570l98 105h87l97 -105h-82l-59 54l-59 -54h-82zM65 -198v698h75v-698h-75z" />
    <glyph glyph-name="uni0136" unicode="&#x136;" horiz-adv-x="641" 
d="M263 -198l44 150h73l-66 -150h-51zM81 0v662h75v-345l368 345h106l-282 -266l298 -396h-94l-259 345l-137 -128v-217h-75z" />
    <glyph glyph-name="uni0137" unicode="&#x137;" horiz-adv-x="502" 
d="M170 -198l44 150h73l-66 -150h-51zM65 0v700h75v-448l241 248h105l-201 -197l216 -303h-92l-175 251l-94 -93v-158h-75z" />
    <glyph glyph-name="kgreenlandic" unicode="&#x138;" horiz-adv-x="502" 
d="M65 0v500h75v-248l241 248h105l-201 -197l216 -303h-92l-175 251l-94 -93v-158h-75z" />
    <glyph glyph-name="Lacute" unicode="&#x139;" horiz-adv-x="533" 
d="M85 725l61 105h107l-107 -105h-61zM81 0v662h75v-590h361v-72h-436z" />
    <glyph glyph-name="lacute" unicode="&#x13a;" horiz-adv-x="205" 
d="M69 763l61 105h107l-107 -105h-61zM65 0v700h75v-700h-75z" />
    <glyph glyph-name="uni013B" unicode="&#x13b;" horiz-adv-x="533" 
d="M229 -198l44 150h73l-66 -150h-51zM81 0v662h75v-590h361v-72h-436z" />
    <glyph glyph-name="uni013C" unicode="&#x13c;" horiz-adv-x="205" 
d="M22 -198l44 150h73l-66 -150h-51zM65 0v700h75v-700h-75z" />
    <glyph glyph-name="Lcaron" unicode="&#x13d;" horiz-adv-x="533" 
d="M516 664l-35 -167h-55l14 167h76zM81 0v662h75v-590h361v-72h-436z" />
    <glyph glyph-name="lcaron" unicode="&#x13e;" horiz-adv-x="205" 
d="M295 699l-35 -167h-55l14 167h76zM65 0v700h75v-700h-75z" />
    <glyph glyph-name="Ldot" unicode="&#x13f;" horiz-adv-x="533" 
d="M81 0v662h75v-590h361v-72h-436zM336 292v102h97v-102h-97z" />
    <glyph glyph-name="ldot" unicode="&#x140;" horiz-adv-x="205" 
d="M65 0v700h75v-700h-75zM159 292v102h97v-102h-97z" />
    <glyph glyph-name="Lslash" unicode="&#x141;" horiz-adv-x="533" 
d="M81 0v294l-74 -39v73l74 39v295h75v-256l185 96v-73l-185 -96v-261h361v-72h-436z" />
    <glyph glyph-name="lslash" unicode="&#x142;" horiz-adv-x="205" 
d="M65 0v354l-65 -34v73l65 34v273h75v-234l65 34v-73l-65 -34v-393h-75z" />
    <glyph glyph-name="Nacute" unicode="&#x143;" horiz-adv-x="733" 
d="M333 725l61 105h107l-107 -105h-61zM81 0v662h87l409 -557v557h75v-662h-87l-409 559v-559h-75z" />
    <glyph glyph-name="nacute" unicode="&#x144;" horiz-adv-x="566" 
d="M229 570l61 105h107l-107 -105h-61zM65 0v500h75v-78q27 36 66 61t100 25q52 0 97.5 -24.5t74 -73t28.5 -119.5v-291h-75v289q0 68 -39 109.5t-101 41.5q-42 0 -76 -19t-54.5 -53.5t-20.5 -79.5v-288h-75z" />
    <glyph glyph-name="uni0145" unicode="&#x145;" horiz-adv-x="733" 
d="M309 -198l44 150h73l-66 -150h-51zM81 0v662h87l409 -557v557h75v-662h-87l-409 559v-559h-75z" />
    <glyph glyph-name="uni0146" unicode="&#x146;" horiz-adv-x="566" 
d="M202 -198l44 150h73l-66 -150h-51zM65 0v500h75v-78q27 36 66 61t100 25q52 0 97.5 -24.5t74 -73t28.5 -119.5v-291h-75v289q0 68 -39 109.5t-101 41.5q-42 0 -76 -19t-54.5 -53.5t-20.5 -79.5v-288h-75z" />
    <glyph glyph-name="Ncaron" unicode="&#x147;" horiz-adv-x="733" 
d="M324 725l-98 105h82l59 -54l59 54h82l-97 -105h-87zM81 0v662h87l409 -557v557h75v-662h-87l-409 559v-559h-75z" />
    <glyph glyph-name="ncaron" unicode="&#x148;" horiz-adv-x="566" 
d="M240 570l-98 105h82l59 -54l59 54h82l-97 -105h-87zM65 0v500h75v-78q27 36 66 61t100 25q52 0 97.5 -24.5t74 -73t28.5 -119.5v-291h-75v289q0 68 -39 109.5t-101 41.5q-42 0 -76 -19t-54.5 -53.5t-20.5 -79.5v-288h-75z" />
    <glyph glyph-name="napostrophe" unicode="&#x149;" horiz-adv-x="690" 
d="M145 714l7 -11q-25 -97 -86 -234h-65q34 139 50 245h94zM136 0v500h75v-78q27 36 66 61t100 25q52 0 97.5 -24.5t74 -73t28.5 -119.5v-291h-75v289q0 68 -39 109.5t-101 41.5q-42 0 -76 -19t-54.5 -53.5t-20.5 -79.5v-288h-75z" />
    <glyph glyph-name="Eng" unicode="&#x14a;" horiz-adv-x="658" 
d="M81 0v661h75v-78q36 45 87.5 66.5t103.5 21.5q57 0 108.5 -22t85 -67.5t36.5 -117.5v0v-485v0q-1 -47 -18 -89.5t-56 -69t-104 -26.5q-56 0 -95 24.5t-59.5 62.5t-24.5 78h78q3 -21 15 -42.5t33.5 -35.5t52.5 -14q46 0 67.5 19.5t28.5 47.5t7 53v463q0 56 -25.5 88
t-65.5 46t-84 14q-43 0 -82 -16t-64 -48.5t-25 -81.5v-452h-75z" />
    <glyph glyph-name="eng" unicode="&#x14b;" horiz-adv-x="568" 
d="M65 0v500h75v-78q27 36 66 61t100 25q52 0 97.5 -24.5t74 -73t28.5 -119.5v-341q0 -39 -15 -74.5t-49 -58.5t-92 -23q-49 0 -82.5 22.5t-51.5 57.5t-21 71h75q3 -18 13 -37.5t27.5 -33t41.5 -13.5q33 0 50 15.5t23 37t6 39.5v336q0 68 -39 109.5t-101 41.5q-42 0 -76 -19
t-54.5 -53.5t-20.5 -79.5v-288h-75z" />
    <glyph glyph-name="Omacron" unicode="&#x14c;" horiz-adv-x="750" 
d="M243 736v60h264v-60h-264zM375 -8q-75 0 -137 26t-106.5 73t-68.5 108.5t-24 131.5q0 71 24 132t68.5 108t106.5 73t137 26t137 -26t106.5 -73t68.5 -108t24 -132q0 -70 -24 -131.5t-68.5 -108.5t-106.5 -73t-137 -26zM375 65q81 0 139.5 35.5t90 96t31.5 134.5
q0 75 -31.5 135t-90 95.5t-139.5 35.5q-80 0 -139 -35.5t-90.5 -95.5t-31.5 -135q0 -74 31.5 -134.5t90.5 -96t139 -35.5z" />
    <glyph glyph-name="omacron" unicode="&#x14d;" horiz-adv-x="564" 
d="M150 584v60h264v-60h-264zM282 -8q-76 0 -132 34.5t-86 93.5t-30 130q0 72 30 130.5t86 93t132 34.5q77 0 132.5 -34.5t85.5 -93t30 -130.5q0 -71 -30 -130t-85.5 -93.5t-132.5 -34.5zM282 60q56 0 94.5 26t58.5 69.5t20 94.5q0 52 -20 95t-58.5 69t-94.5 26
q-55 0 -94 -26t-59 -69t-20 -95q0 -51 20 -94.5t59 -69.5t94 -26z" />
    <glyph glyph-name="Obreve" unicode="&#x14e;" horiz-adv-x="750" 
d="M376 717q-49 0 -84 28t-35 67q0 8 2 15l4 14h18q3 -28 30 -46.5t65 -18.5q37 0 64 18.5t30 46.5h18q6 -13 6 -29q0 -39 -34.5 -67t-83.5 -28zM375 -8q-75 0 -137 26t-106.5 73t-68.5 108.5t-24 131.5q0 71 24 132t68.5 108t106.5 73t137 26t137 -26t106.5 -73t68.5 -108
t24 -132q0 -70 -24 -131.5t-68.5 -108.5t-106.5 -73t-137 -26zM375 65q81 0 139.5 35.5t90 96t31.5 134.5q0 75 -31.5 135t-90 95.5t-139.5 35.5q-80 0 -139 -35.5t-90.5 -95.5t-31.5 -135q0 -74 31.5 -134.5t90.5 -96t139 -35.5z" />
    <glyph glyph-name="obreve" unicode="&#x14f;" horiz-adv-x="564" 
d="M283 567q-49 0 -84 28t-35 67q0 8 2 15l4 14h18q3 -28 30 -46.5t65 -18.5q37 0 64 18.5t30 46.5h18q6 -13 6 -29q0 -39 -34.5 -67t-83.5 -28zM282 -8q-76 0 -132 34.5t-86 93.5t-30 130q0 72 30 130.5t86 93t132 34.5q77 0 132.5 -34.5t85.5 -93t30 -130.5
q0 -71 -30 -130t-85.5 -93.5t-132.5 -34.5zM282 60q56 0 94.5 26t58.5 69.5t20 94.5q0 52 -20 95t-58.5 69t-94.5 26q-55 0 -94 -26t-59 -69t-20 -95q0 -51 20 -94.5t59 -69.5t94 -26z" />
    <glyph glyph-name="Ohungarumlaut" unicode="&#x150;" horiz-adv-x="750" 
d="M243 715l61 105h107l-107 -105h-61zM399 715l61 105h107l-107 -105h-61zM375 -8q-75 0 -137 26t-106.5 73t-68.5 108.5t-24 131.5q0 71 24 132t68.5 108t106.5 73t137 26t137 -26t106.5 -73t68.5 -108t24 -132q0 -70 -24 -131.5t-68.5 -108.5t-106.5 -73t-137 -26z
M375 65q81 0 139.5 35.5t90 96t31.5 134.5q0 75 -31.5 135t-90 95.5t-139.5 35.5q-80 0 -139 -35.5t-90.5 -95.5t-31.5 -135q0 -74 31.5 -134.5t90.5 -96t139 -35.5z" />
    <glyph glyph-name="ohungarumlaut" unicode="&#x151;" horiz-adv-x="564" 
d="M146 570l61 105h107l-107 -105h-61zM302 570l61 105h107l-107 -105h-61zM282 -8q-76 0 -132 34.5t-86 93.5t-30 130q0 72 30 130.5t86 93t132 34.5q77 0 132.5 -34.5t85.5 -93t30 -130.5q0 -71 -30 -130t-85.5 -93.5t-132.5 -34.5zM282 60q56 0 94.5 26t58.5 69.5
t20 94.5q0 52 -20 95t-58.5 69t-94.5 26q-55 0 -94 -26t-59 -69t-20 -95q0 -51 20 -94.5t59 -69.5t94 -26z" />
    <glyph glyph-name="OE" unicode="&#x152;" horiz-adv-x="1144" 
d="M365 -8q-100 0 -173.5 45.5t-113 122.5t-39.5 171t39.5 171t113 122.5t173.5 45.5q83 0 145 -31.5t102 -85.5v109h492v-72h-417v-223h373v-73h-373v-222h417v-72h-492v108q-40 -53 -102 -84.5t-145 -31.5zM365 65q81 0 137 35.5t85 96t29 134.5q0 75 -29 135t-85 95.5
t-137 35.5q-80 0 -136.5 -35.5t-85.5 -95.5t-29 -135q0 -74 29 -134.5t85.5 -96t136.5 -35.5z" />
    <glyph glyph-name="oe" unicode="&#x153;" horiz-adv-x="972" 
d="M282 -8q-76 0 -132 34.5t-86 93.5t-30 130q0 72 30 130.5t86 93t132 34.5q74 0 126.5 -33.5t80.5 -88.5q29 55 81 88.5t127 33.5q77 0 132.5 -34.5t85.5 -93t30 -130.5v-30h-419q6 -44 28 -80.5t60 -58t89 -21.5q56 0 93 27t56 70h80q-24 -73 -85.5 -119t-149.5 -46
q-75 0 -127 33t-81 88q-28 -55 -80.5 -88t-126.5 -33zM282 60q56 0 94.5 26t58.5 69.5t20 94.5q0 52 -20 95t-58.5 69t-94.5 26q-55 0 -94 -26t-59 -69t-20 -95q0 -51 20 -94.5t59 -69.5t94 -26zM527 290h340q-10 64 -54 107t-116 43t-115.5 -43t-54.5 -107z" />
    <glyph glyph-name="Racute" unicode="&#x154;" horiz-adv-x="669" 
d="M301 725l61 105h107l-107 -105h-61zM81 0v662h317q102 0 162.5 -56t60.5 -151q0 -64 -24.5 -102t-61.5 -57.5t-74 -28.5l174 -267h-89l-160 254h-230v-254h-75zM156 325h229q36 0 73 11t62.5 39.5t25.5 79.5q0 63 -43 99.5t-114 36.5h-233v-266z" />
    <glyph glyph-name="racute" unicode="&#x155;" horiz-adv-x="345" 
d="M119 570l61 105h107l-107 -105h-61zM65 0v500h75v-123q4 13 15.5 34.5t33.5 43.5t55.5 37.5t79.5 15.5h5v-75h-9q-56 0 -96.5 -30.5t-62 -79t-21.5 -103.5v-220h-75z" />
    <glyph glyph-name="uni0156" unicode="&#x156;" horiz-adv-x="669" 
d="M277 -198l44 150h73l-66 -150h-51zM81 0v662h317q102 0 162.5 -56t60.5 -151q0 -64 -24.5 -102t-61.5 -57.5t-74 -28.5l174 -267h-89l-160 254h-230v-254h-75zM156 325h229q36 0 73 11t62.5 39.5t25.5 79.5q0 63 -43 99.5t-114 36.5h-233v-266z" />
    <glyph glyph-name="uni0157" unicode="&#x157;" horiz-adv-x="345" 
d="M22 -198l44 150h73l-66 -150h-51zM65 0v500h75v-123q4 13 15.5 34.5t33.5 43.5t55.5 37.5t79.5 15.5h5v-75h-9q-56 0 -96.5 -30.5t-62 -79t-21.5 -103.5v-220h-75z" />
    <glyph glyph-name="Rcaron" unicode="&#x158;" horiz-adv-x="669" 
d="M292 725l-98 105h82l59 -54l59 54h82l-97 -105h-87zM81 0v662h317q102 0 162.5 -56t60.5 -151q0 -64 -24.5 -102t-61.5 -57.5t-74 -28.5l174 -267h-89l-160 254h-230v-254h-75zM156 325h229q36 0 73 11t62.5 39.5t25.5 79.5q0 63 -43 99.5t-114 36.5h-233v-266z" />
    <glyph glyph-name="rcaron" unicode="&#x159;" horiz-adv-x="345" 
d="M130 570l-98 105h82l59 -54l59 54h82l-97 -105h-87zM65 0v500h75v-123q4 13 15.5 34.5t33.5 43.5t55.5 37.5t79.5 15.5h5v-75h-9q-56 0 -96.5 -30.5t-62 -79t-21.5 -103.5v-220h-75z" />
    <glyph glyph-name="Sacute" unicode="&#x15a;" horiz-adv-x="615" 
d="M274 725l61 105h107l-107 -105h-61zM318 -8q-98 0 -159 26.5t-91.5 73.5t-35.5 106h78q3 -48 32 -77.5t76.5 -43.5t104.5 -14q84 0 133 29.5t49 87.5q0 35 -24.5 56.5t-65 35.5t-88.5 25.5t-96.5 24.5t-89 33t-65 51.5t-24.5 80.5q0 81 62.5 132t186.5 51q88 0 145 -26.5
t85.5 -69.5t31.5 -93h-77q-6 50 -50 84.5t-135 34.5q-56 0 -91 -11t-53.5 -28.5t-25 -36.5t-6.5 -36q0 -33 24.5 -53.5t65 -34t89.5 -24.5t97.5 -24.5t89 -34t65 -52.5t24.5 -82q0 -92 -70 -141.5t-192 -49.5z" />
    <glyph glyph-name="sacute" unicode="&#x15b;" horiz-adv-x="482" 
d="M187 570l61 105h107l-107 -105h-61zM247 -8q-69 0 -116.5 23t-72.5 60.5t-28 81.5h78q3 -25 17.5 -48.5t44.5 -38t78 -14.5q15 0 37 3t42.5 11t34.5 24t14 41q0 31 -24 48t-62 26.5t-80.5 18.5t-80.5 23.5t-62 41t-24 72.5q0 68 49.5 105.5t146.5 37.5q66 0 107.5 -20.5
t63 -52.5t25.5 -69h-76q-4 32 -31.5 55t-90.5 23q-119 0 -119 -72q0 -30 24 -46t62 -25.5t80.5 -18t80.5 -23.5t62 -42.5t24 -74.5q0 -73 -55.5 -111.5t-148.5 -38.5z" />
    <glyph glyph-name="Scircumflex" unicode="&#x15c;" horiz-adv-x="615" 
d="M167 725l98 105h87l97 -105h-82l-59 54l-59 -54h-82zM318 -8q-98 0 -159 26.5t-91.5 73.5t-35.5 106h78q3 -48 32 -77.5t76.5 -43.5t104.5 -14q84 0 133 29.5t49 87.5q0 35 -24.5 56.5t-65 35.5t-88.5 25.5t-96.5 24.5t-89 33t-65 51.5t-24.5 80.5q0 81 62.5 132
t186.5 51q88 0 145 -26.5t85.5 -69.5t31.5 -93h-77q-6 50 -50 84.5t-135 34.5q-56 0 -91 -11t-53.5 -28.5t-25 -36.5t-6.5 -36q0 -33 24.5 -53.5t65 -34t89.5 -24.5t97.5 -24.5t89 -34t65 -52.5t24.5 -82q0 -92 -70 -141.5t-192 -49.5z" />
    <glyph glyph-name="scircumflex" unicode="&#x15d;" horiz-adv-x="482" 
d="M100 570l98 105h87l97 -105h-82l-59 54l-59 -54h-82zM247 -8q-69 0 -116.5 23t-72.5 60.5t-28 81.5h78q3 -25 17.5 -48.5t44.5 -38t78 -14.5q15 0 37 3t42.5 11t34.5 24t14 41q0 31 -24 48t-62 26.5t-80.5 18.5t-80.5 23.5t-62 41t-24 72.5q0 68 49.5 105.5t146.5 37.5
q66 0 107.5 -20.5t63 -52.5t25.5 -69h-76q-4 32 -31.5 55t-90.5 23q-119 0 -119 -72q0 -30 24 -46t62 -25.5t80.5 -18t80.5 -23.5t62 -42.5t24 -74.5q0 -73 -55.5 -111.5t-148.5 -38.5z" />
    <glyph glyph-name="Scedilla" unicode="&#x15e;" horiz-adv-x="615" 
d="M324 -206q-38 0 -68.5 12.5t-49.5 28.5l19 33q16 -11 37 -20.5t48 -9.5q23 0 39 8t16 28q0 15 -16 24t-37 9q-18 0 -35 -5l-21 17l69 108h43l-44 -77q12 2 22 2q38 0 65 -20.5t27 -56.5q0 -42 -34 -61.5t-80 -19.5zM318 -8q-98 0 -159 26.5t-91.5 73.5t-35.5 106h78
q3 -48 32 -77.5t76.5 -43.5t104.5 -14q84 0 133 29.5t49 87.5q0 35 -24.5 56.5t-65 35.5t-88.5 25.5t-96.5 24.5t-89 33t-65 51.5t-24.5 80.5q0 81 62.5 132t186.5 51q88 0 145 -26.5t85.5 -69.5t31.5 -93h-77q-6 50 -50 84.5t-135 34.5q-56 0 -91 -11t-53.5 -28.5
t-25 -36.5t-6.5 -36q0 -33 24.5 -53.5t65 -34t89.5 -24.5t97.5 -24.5t89 -34t65 -52.5t24.5 -82q0 -92 -70 -141.5t-192 -49.5z" />
    <glyph glyph-name="scedilla" unicode="&#x15f;" horiz-adv-x="482" 
d="M244 -206q-38 0 -68.5 12.5t-49.5 28.5l19 33q16 -11 37 -20.5t48 -9.5q23 0 39 8t16 28q0 15 -16 24t-37 9q-18 0 -35 -5l-21 17l69 108h43l-44 -77q12 2 22 2q38 0 65 -20.5t27 -56.5q0 -42 -34 -61.5t-80 -19.5zM247 -8q-69 0 -116.5 23t-72.5 60.5t-28 81.5h78
q3 -25 17.5 -48.5t44.5 -38t78 -14.5q15 0 37 3t42.5 11t34.5 24t14 41q0 31 -24 48t-62 26.5t-80.5 18.5t-80.5 23.5t-62 41t-24 72.5q0 68 49.5 105.5t146.5 37.5q66 0 107.5 -20.5t63 -52.5t25.5 -69h-76q-4 32 -31.5 55t-90.5 23q-119 0 -119 -72q0 -30 24 -46t62 -25.5
t80.5 -18t80.5 -23.5t62 -42.5t24 -74.5q0 -73 -55.5 -111.5t-148.5 -38.5z" />
    <glyph glyph-name="Scaron" unicode="&#x160;" horiz-adv-x="615" 
d="M265 725l-98 105h82l59 -54l59 54h82l-97 -105h-87zM318 -8q-98 0 -159 26.5t-91.5 73.5t-35.5 106h78q3 -48 32 -77.5t76.5 -43.5t104.5 -14q84 0 133 29.5t49 87.5q0 35 -24.5 56.5t-65 35.5t-88.5 25.5t-96.5 24.5t-89 33t-65 51.5t-24.5 80.5q0 81 62.5 132t186.5 51
q88 0 145 -26.5t85.5 -69.5t31.5 -93h-77q-6 50 -50 84.5t-135 34.5q-56 0 -91 -11t-53.5 -28.5t-25 -36.5t-6.5 -36q0 -33 24.5 -53.5t65 -34t89.5 -24.5t97.5 -24.5t89 -34t65 -52.5t24.5 -82q0 -92 -70 -141.5t-192 -49.5z" />
    <glyph glyph-name="scaron" unicode="&#x161;" horiz-adv-x="482" 
d="M198 570l-98 105h82l59 -54l59 54h82l-97 -105h-87zM247 -8q-69 0 -116.5 23t-72.5 60.5t-28 81.5h78q3 -25 17.5 -48.5t44.5 -38t78 -14.5q15 0 37 3t42.5 11t34.5 24t14 41q0 31 -24 48t-62 26.5t-80.5 18.5t-80.5 23.5t-62 41t-24 72.5q0 68 49.5 105.5t146.5 37.5
q66 0 107.5 -20.5t63 -52.5t25.5 -69h-76q-4 32 -31.5 55t-90.5 23q-119 0 -119 -72q0 -30 24 -46t62 -25.5t80.5 -18t80.5 -23.5t62 -42.5t24 -74.5q0 -73 -55.5 -111.5t-148.5 -38.5z" />
    <glyph glyph-name="uni0162" unicode="&#x162;" horiz-adv-x="565" 
d="M273 -206q-38 0 -68.5 12.5t-49.5 28.5l19 33q16 -11 37 -20.5t48 -9.5q23 0 39 8t16 28q0 15 -16 24t-37 9q-18 0 -35 -5l-21 17l69 108h43l-44 -77q12 2 22 2q38 0 65 -20.5t27 -56.5q0 -42 -34 -61.5t-80 -19.5zM245 0v591h-231v71h537v-71h-231v-591h-75z" />
    <glyph glyph-name="uni0163" unicode="&#x163;" horiz-adv-x="326" 
d="M159 -206q-38 0 -68.5 12.5t-49.5 28.5l19 33q16 -11 37 -20.5t48 -9.5q23 0 39 8t16 28q0 15 -16 24t-37 9q-18 0 -35 -5l-21 17l69 108h43l-44 -77q12 2 22 2q38 0 65 -20.5t27 -56.5q0 -42 -34 -61.5t-80 -19.5zM119 0v434h-102v66h102v179h75v-179h115v-66h-115v-434
h-75z" />
    <glyph glyph-name="Tcaron" unicode="&#x164;" horiz-adv-x="565" 
d="M240 725l-98 105h82l59 -54l59 54h82l-97 -105h-87zM245 0v591h-231v71h537v-71h-231v-591h-75z" />
    <glyph glyph-name="tcaron" unicode="&#x165;" horiz-adv-x="326" 
d="M416 700l-35 -167h-55l14 167h76zM119 0v434h-102v66h102v179h75v-179h115v-66h-115v-434h-75z" />
    <glyph glyph-name="Tbar" unicode="&#x166;" horiz-adv-x="565" 
d="M551 591h-231v-225h146v-70h-146v-296h-75v296h-146v70h146v225h-231v71h537v-71z" />
    <glyph glyph-name="tbar" unicode="&#x167;" horiz-adv-x="326" 
d="M119 0v243h-86v65h86v126h-102v66h102v179h75v-179h115v-66h-115v-126h86v-65h-86v-243h-75z" />
    <glyph glyph-name="Utilde" unicode="&#x168;" horiz-adv-x="709" 
d="M425 723q-33 0 -54.5 10t-40 20t-41.5 10t-34 -13t-16 -26h-31q5 37 26.5 67.5t70.5 30.5q32 0 53.5 -10t40 -20.5t41.5 -10.5q22 0 33.5 13.5t15.5 26.5h32q-5 -37 -26.5 -67.5t-69.5 -30.5zM354 -8q-82 0 -145.5 36.5t-99.5 102.5t-36 154v377h75v-379q0 -77 29.5 -125
t77 -70.5t99.5 -22.5q53 0 100 22.5t77 70.5t30 125v379h75v-377q0 -87 -36 -153t-99.5 -103t-146.5 -37z" />
    <glyph glyph-name="utilde" unicode="&#x169;" horiz-adv-x="566" 
d="M344 569q-33 0 -54.5 10t-40 20t-41.5 10t-34 -13t-16 -26h-31q5 37 26.5 67.5t70.5 30.5q32 0 53.5 -10t40 -20.5t41.5 -10.5q22 0 33.5 13.5t15.5 26.5h32q-5 -37 -26.5 -67.5t-69.5 -30.5zM260 -8q-51 0 -97 24.5t-74.5 73t-28.5 119.5v291h75v-289q0 -68 39.5 -109.5
t100.5 -41.5q42 0 76 19.5t54.5 53.5t20.5 79v288h75v-500h-75v78q-27 -36 -66 -61t-100 -25z" />
    <glyph glyph-name="Umacron" unicode="&#x16a;" horiz-adv-x="709" 
d="M223 736v60h264v-60h-264zM354 -8q-82 0 -145.5 36.5t-99.5 102.5t-36 154v377h75v-379q0 -77 29.5 -125t77 -70.5t99.5 -22.5q53 0 100 22.5t77 70.5t30 125v379h75v-377q0 -87 -36 -153t-99.5 -103t-146.5 -37z" />
    <glyph glyph-name="umacron" unicode="&#x16b;" horiz-adv-x="566" 
d="M151 584v60h264v-60h-264zM260 -8q-51 0 -97 24.5t-74.5 73t-28.5 119.5v291h75v-289q0 -68 39.5 -109.5t100.5 -41.5q42 0 76 19.5t54.5 53.5t20.5 79v288h75v-500h-75v78q-27 -36 -66 -61t-100 -25z" />
    <glyph glyph-name="Ubreve" unicode="&#x16c;" horiz-adv-x="709" 
d="M356 717q-49 0 -84 28t-35 67q0 8 2 15l4 14h18q3 -28 30 -46.5t65 -18.5q37 0 64 18.5t30 46.5h18q6 -13 6 -29q0 -39 -34.5 -67t-83.5 -28zM354 -8q-82 0 -145.5 36.5t-99.5 102.5t-36 154v377h75v-379q0 -77 29.5 -125t77 -70.5t99.5 -22.5q53 0 100 22.5t77 70.5
t30 125v379h75v-377q0 -87 -36 -153t-99.5 -103t-146.5 -37z" />
    <glyph glyph-name="ubreve" unicode="&#x16d;" horiz-adv-x="566" 
d="M284 567q-49 0 -84 28t-35 67q0 8 2 15l4 14h18q3 -28 30 -46.5t65 -18.5q37 0 64 18.5t30 46.5h18q6 -13 6 -29q0 -39 -34.5 -67t-83.5 -28zM260 -8q-51 0 -97 24.5t-74.5 73t-28.5 119.5v291h75v-289q0 -68 39.5 -109.5t100.5 -41.5q42 0 76 19.5t54.5 53.5t20.5 79
v288h75v-500h-75v78q-27 -36 -66 -61t-100 -25z" />
    <glyph glyph-name="Uring" unicode="&#x16e;" horiz-adv-x="709" 
d="M354 635q-37 0 -63 26t-26 63q0 38 26 64t63 26q38 0 64.5 -26t26.5 -64q0 -37 -26.5 -63t-64.5 -26zM354 680q19 0 32 13t13 31q0 19 -13 32t-32 13q-17 0 -30 -13t-13 -32q0 -18 13 -31t30 -13zM354 -8q-82 0 -145.5 36.5t-99.5 102.5t-36 154v377h75v-379
q0 -77 29.5 -125t77 -70.5t99.5 -22.5q53 0 100 22.5t77 70.5t30 125v379h75v-377q0 -87 -36 -153t-99.5 -103t-146.5 -37z" />
    <glyph glyph-name="uring" unicode="&#x16f;" horiz-adv-x="566" 
d="M282 556q-37 0 -63 26t-26 63q0 38 26 64t63 26q38 0 64.5 -26t26.5 -64q0 -37 -26.5 -63t-64.5 -26zM282 601q19 0 32 13t13 31q0 19 -13 32t-32 13q-17 0 -30 -13t-13 -32q0 -18 13 -31t30 -13zM260 -8q-51 0 -97 24.5t-74.5 73t-28.5 119.5v291h75v-289
q0 -68 39.5 -109.5t100.5 -41.5q42 0 76 19.5t54.5 53.5t20.5 79v288h75v-500h-75v78q-27 -36 -66 -61t-100 -25z" />
    <glyph glyph-name="Uhungarumlaut" unicode="&#x170;" horiz-adv-x="709" 
d="M223 715l61 105h107l-107 -105h-61zM379 715l61 105h107l-107 -105h-61zM354 -8q-82 0 -145.5 36.5t-99.5 102.5t-36 154v377h75v-379q0 -77 29.5 -125t77 -70.5t99.5 -22.5q53 0 100 22.5t77 70.5t30 125v379h75v-377q0 -87 -36 -153t-99.5 -103t-146.5 -37z" />
    <glyph glyph-name="uhungarumlaut" unicode="&#x171;" horiz-adv-x="566" 
d="M147 570l61 105h107l-107 -105h-61zM303 570l61 105h107l-107 -105h-61zM260 -8q-51 0 -97 24.5t-74.5 73t-28.5 119.5v291h75v-289q0 -68 39.5 -109.5t100.5 -41.5q42 0 76 19.5t54.5 53.5t20.5 79v288h75v-500h-75v78q-27 -36 -66 -61t-100 -25z" />
    <glyph glyph-name="Uogonek" unicode="&#x172;" horiz-adv-x="709" 
d="M561 662h75v-377q0 -78 -29 -139.5t-81 -100t-122 -49.5q-16 -10 -33.5 -23.5t-29.5 -30.5t-12 -38q0 -24 19 -37t41 -13q20 0 36 11v-39q-15 -12 -35 -18t-41 -6q-37 0 -67 21t-30 62t26.5 66t57.5 41q-77 5 -136.5 42t-93 101.5t-33.5 149.5v377h75v-379
q0 -77 29.5 -125t77 -70.5t99.5 -22.5q53 0 100 22.5t77 70.5t30 125v379z" />
    <glyph glyph-name="uogonek" unicode="&#x173;" horiz-adv-x="566" 
d="M466 -154q21 0 35 11v-39q-14 -12 -34 -18t-41 -6q-37 0 -67 21t-30 62q0 34 19 57.5t46.5 39t50.5 26.5h-19v78q-27 -36 -66 -61t-100 -25q-51 0 -97 24.5t-74.5 73t-28.5 119.5v291h75v-289q0 -68 39.5 -109.5t100.5 -41.5q42 0 76 19.5t54.5 53.5t20.5 79v288h75v-500
q-15 -9 -37.5 -24t-40 -35t-17.5 -45q0 -24 19 -37t41 -13z" />
    <glyph glyph-name="Wcircumflex" unicode="&#x174;" horiz-adv-x="958" 
d="M338 725l98 105h87l97 -105h-82l-59 54l-59 -54h-82zM215 0l-206 662h79l170 -556l178 556h86l178 -556l170 556h79l-206 -662h-85l-179 556l-179 -556h-85z" />
    <glyph glyph-name="wcircumflex" unicode="&#x175;" horiz-adv-x="746" 
d="M232 570l98 105h87l97 -105h-82l-59 54l-59 -54h-82zM162 0l-157 500h80l120 -407l127 407h82l127 -407l120 407h80l-157 -500h-86l-125 399l-125 -399h-86z" />
    <glyph glyph-name="Ycircumflex" unicode="&#x176;" horiz-adv-x="636" 
d="M178 725l98 105h87l97 -105h-82l-59 54l-59 -54h-82zM281 0v262l-278 400h91l224 -322l224 322h91l-277 -400v-262h-75z" />
    <glyph glyph-name="ycircumflex" unicode="&#x177;" horiz-adv-x="497" 
d="M108 570l98 105h87l97 -105h-82l-59 54l-59 -54h-82zM117 -198l91 205l-204 493h83l161 -410l164 410h82l-296 -698h-81z" />
    <glyph glyph-name="Ydieresis" unicode="&#x178;" horiz-adv-x="636" 
d="M196 730v83h89v-83h-89zM353 730v83h89v-83h-89zM281 0v262l-278 400h91l224 -322l224 322h91l-277 -400v-262h-75z" />
    <glyph glyph-name="Zacute" unicode="&#x179;" horiz-adv-x="584" 
d="M258 725l61 105h107l-107 -105h-61zM29 0v71l432 521h-426v70h518v-72l-432 -520h432v-70h-524z" />
    <glyph glyph-name="zacute" unicode="&#x17a;" horiz-adv-x="458" 
d="M175 570l61 105h107l-107 -105h-61zM31 0v71l299 360h-295v69h390v-70l-300 -360h300v-70h-394z" />
    <glyph glyph-name="Zdotaccent" unicode="&#x17b;" horiz-adv-x="584" 
d="M248 732v83h89v-83h-89zM29 0v71l432 521h-426v70h518v-72l-432 -520h432v-70h-524z" />
    <glyph glyph-name="zdotaccent" unicode="&#x17c;" horiz-adv-x="458" 
d="M185 580v83h89v-83h-89zM31 0v71l299 360h-295v69h390v-70l-300 -360h300v-70h-394z" />
    <glyph glyph-name="Zcaron" unicode="&#x17d;" horiz-adv-x="584" 
d="M249 725l-98 105h82l59 -54l59 54h82l-97 -105h-87zM29 0v71l432 521h-426v70h518v-72l-432 -520h432v-70h-524z" />
    <glyph glyph-name="zcaron" unicode="&#x17e;" horiz-adv-x="458" 
d="M186 570l-98 105h82l59 -54l59 54h82l-97 -105h-87zM31 0v71l299 360h-295v69h390v-70l-300 -360h300v-70h-394z" />
    <glyph glyph-name="longs" unicode="&#x17f;" horiz-adv-x="239" 
d="M99 0v434h-86v66h86v44q0 82 49.5 123t135.5 41h6v-71h-10q-52 0 -79 -23.5t-27 -75.5v-538h-75z" />
    <glyph glyph-name="uni0180" unicode="&#x180;" horiz-adv-x="594" 
d="M319 -8q-62 0 -106.5 24t-72.5 64v-80h-75v558h-58v65h58v77h75v-77h215v-65h-215v-139q28 41 72.5 65t106.5 24q73 0 127.5 -34.5t84.5 -93t30 -130.5q0 -71 -30 -130t-84.5 -93.5t-127.5 -34.5zM309 60q56 0 95.5 26t60.5 69.5t21 94.5q0 52 -21 95t-60.5 69t-95.5 26
q-55 0 -94 -26t-59 -69t-20 -95q0 -51 20 -94.5t59 -69.5t94 -26z" />
    <glyph glyph-name="uni0181" unicode="&#x181;" horiz-adv-x="785" 
d="M204 0v591q-70 0 -100 -30.5t-30 -81.5q0 -11 1 -22.5t3 -23.5h-68q-3 14 -4 28t-1 27q0 77 45 124t132 50h319q78 0 123.5 -27t65.5 -67.5t20 -80.5q0 -64 -27 -98.5t-62 -50.5q28 -9 56.5 -28.5t47.5 -52.5t19 -83q0 -74 -56.5 -124t-169.5 -50h-314zM279 366h222
q35 0 65.5 12t49.5 37.5t19 65.5q0 28 -12.5 53t-40 41t-73.5 16h-230v-225zM279 71h247q68 0 105.5 28.5t37.5 80.5q0 47 -36 82.5t-115 35.5h-239v-227z" />
    <glyph glyph-name="uni0182" unicode="&#x182;" horiz-adv-x="615" 
d="M564 209q0 -105 -63.5 -157t-194.5 -52h-209v714h424v-79h-334v-223h106q137 0 204 -48.5t67 -154.5zM187 77h110q92 0 133 31t41 101q0 68 -43 96.5t-146 28.5h-95v-257z" />
    <glyph glyph-name="uni0183" unicode="&#x183;" horiz-adv-x="615" 
d="M339 545q106 0 163.5 -73t57.5 -204q0 -133 -58.5 -205.5t-162.5 -72.5q-54 0 -96.5 19.5t-69.5 58.5h-7q-15 -59 -18 -68h-63v760h421v-74h-333v-111q0 -55 -5 -110h5q54 80 166 80zM324 472q-81 0 -116 -46t-35 -155v-4q0 -110 36 -157t117 -47q72 0 107.5 53t35.5 153
q0 102 -35.5 152.5t-109.5 50.5z" />
    <glyph glyph-name="uni0184" unicode="&#x184;" horiz-adv-x="634" 
d="M180 210q0 -77 37.5 -110t122.5 -33q80 0 115.5 35.5t35.5 102.5q0 69 -48 99t-140 30h-123v-124zM90 714h90v-302h134q129 0 199.5 -53t70.5 -154t-63.5 -158t-179.5 -57q-251 0 -251 220v504z" />
    <glyph glyph-name="uni0185" unicode="&#x185;" horiz-adv-x="611" 
d="M322 -10q-115 0 -177.5 72.5t-62.5 204.5v493h88v-185q0 -55 -5 -110h5q54 80 166 80q106 0 163.5 -73t57.5 -204q0 -134 -61 -206t-174 -72zM170 265q0 -96 40.5 -149t112.5 -53t107.5 53t35.5 153q0 102 -35.5 152.5t-109.5 50.5q-81 0 -116 -46t-35 -155v-6z" />
    <glyph glyph-name="uni0186" unicode="&#x186;" horiz-adv-x="690" 
d="M331 -8q99 0 171 45.5t110.5 122.5t38.5 171t-38.5 171t-110.5 122.5t-171 45.5q-75 0 -135 -26.5t-102 -72.5t-63 -107h79q25 61 79 97t136 36q80 0 136.5 -35.5t85.5 -95.5t29 -135q0 -74 -29 -134.5t-85.5 -96t-136.5 -35.5q-82 0 -136 36t-79 97h-79
q21 -60 63 -106.5t102 -73t135 -26.5z" />
    <glyph glyph-name="uni0187" unicode="&#x187;" horiz-adv-x="690" 
d="M359 -8q-99 0 -171 45.5t-110.5 122.5t-38.5 171t38.5 171t110 122.5t171.5 45.5q70 0 127 -23t98 -64v62q0 33 10 66t41.5 55.5t93.5 22.5q8 0 15 -0.5t15 -1.5v-68q-13 3 -24 3q-36 0 -52 -12.5t-20 -30t-4 -34.5v-181h-76q-25 61 -80.5 97t-137.5 36
q-80 0 -136.5 -35.5t-85.5 -95.5t-29 -135q0 -74 29 -134.5t85.5 -96t136.5 -35.5q82 0 136 36t79 97h79q-21 -60 -63 -106.5t-102 -73t-135 -26.5z" />
    <glyph glyph-name="uni0188" unicode="&#x188;" horiz-adv-x="581" 
d="M581 658q8 0 15 -0.5t15 -1.5v-68q-13 3 -24 3q-36 0 -52 -12.5t-20 -30t-4 -34.5v-171h-76q-17 43 -54.5 70t-90.5 27q-55 0 -96 -26t-63 -69t-22 -95q0 -51 22 -94.5t63 -69.5t96 -26q53 0 90.5 27t54.5 70h81q-22 -73 -84.5 -119t-151.5 -46q-75 0 -130 34.5
t-85.5 93.5t-30.5 130q0 72 30.5 130.5t85.5 93t130 34.5q47 0 86.5 -13.5t69.5 -38.5v58q0 33 10 66t41.5 55.5t93.5 22.5z" />
    <glyph glyph-name="uni0189" unicode="&#x189;" horiz-adv-x="703" 
d="M81 0v298h-74v65h74v299h279q59 0 113.5 -22.5t97.5 -65.5t68 -104t25 -139t-25 -139t-68 -104t-97.5 -65.5t-113.5 -22.5h-279zM156 71h201q71 0 123 36t80.5 95t28.5 129q0 71 -28.5 130t-80.5 94.5t-123 35.5h-201v-228h199v-65h-199v-227z" />
    <glyph glyph-name="uni018A" unicode="&#x18a;" horiz-adv-x="827" 
d="M204 0v591q-70 0 -100 -30.5t-30 -81.5q0 -11 1 -22.5t3 -23.5h-68q-3 14 -4 28t-1 27q0 77 45 124t132 50h301q59 0 113.5 -22.5t97.5 -65.5t68 -104t25 -139t-25 -139t-68 -104t-97.5 -65.5t-113.5 -22.5h-279zM279 71h201q71 0 123 36t80.5 95t28.5 129
q0 71 -28.5 130t-80.5 94.5t-123 35.5h-201v-520z" />
    <glyph glyph-name="uni018B" unicode="&#x18b;" horiz-adv-x="615" 
d="M428 335h-82q-106 0 -154 -32t-48 -101q0 -63 44 -94t139 -31h101v258zM518 714v-714h-199q-268 0 -268 198q0 103 73.5 158.5t211.5 55.5h92v223h-334v79h424z" />
    <glyph glyph-name="uni018C" unicode="&#x18c;" horiz-adv-x="615" 
d="M289 63q80 0 117 43.5t37 143.5v16q0 112 -37.5 159.5t-117.5 47.5q-68 0 -105 -54t-37 -154t37 -151t106 -51zM530 0h-71l-13 72h-4q-56 -82 -167 -82q-104 0 -162 72.5t-58 204.5q0 131 58 205t163 74q108 0 166 -79h6q-1 10 -3.5 39.5t-2.5 39.5v140h-333v74h421v-760
z" />
    <glyph glyph-name="uni018D" unicode="&#x18d;" horiz-adv-x="604" 
d="M341 294q66 -38 95 -77t29 -87q0 -64 -48 -102t-132 -38q-51 0 -97 11.5t-109 42.5l38 69q37 -21 79 -36t93 -15q40 0 63.5 18.5t23.5 50.5q0 34 -26.5 60t-107.5 70q-104 57 -146 117t-42 136q0 115 66 180.5t184 65.5q112 0 179 -60.5t67 -163.5q0 -87 -54 -149.5
t-155 -92.5zM145 515q0 -62 30 -105.5t96 -77.5q92 22 139.5 74t47.5 131q0 67 -41.5 108.5t-112.5 41.5q-77 0 -118 -44.5t-41 -127.5z" />
    <glyph glyph-name="uni018E" unicode="&#x18e;" horiz-adv-x="608" 
d="M527 0v662h-487v-72h412v-222h-368v-73h368v-223h-412v-72h487z" />
    <glyph glyph-name="uni018F" unicode="&#x18f;" horiz-adv-x="718" 
d="M41 374h562q-8 64 -39.5 114.5t-83.5 79.5t-121 29q-75 0 -130 -34.5t-85 -91.5h-79q35 89 112 144t182 55q72 0 130.5 -26t101 -73t65.5 -108t23 -132q0 -70 -23 -131.5t-65.5 -108.5t-101 -73t-130.5 -26t-130.5 26t-101 73t-65.5 108.5t-23 131.5q0 11 0.5 22t1.5 21z
M359 65q72 0 125 31.5t84.5 85.5t36.5 122h-492q5 -68 36.5 -122t84.5 -85.5t125 -31.5z" />
    <glyph glyph-name="uni0190" unicode="&#x190;" horiz-adv-x="570" 
d="M286 -8q-68 0 -123.5 25t-88.5 69.5t-33 103.5q0 53 32 97t90 66q-22 7 -45.5 28t-39 50.5t-15.5 62.5q0 77 61.5 126.5t167.5 49.5q65 0 110.5 -25t71.5 -63t30 -79h-73q-7 38 -43.5 66t-97.5 28q-75 0 -113.5 -29.5t-38.5 -76.5q0 -32 21 -56.5t55 -38t74 -13.5h87v-69
h-96q-48 0 -84.5 -17.5t-57.5 -46t-21 -62.5q0 -51 45 -87t125 -36q40 0 74.5 14.5t57.5 39.5t28 56h76q-5 -52 -37.5 -93t-84.5 -65.5t-114 -24.5z" />
    <glyph glyph-name="uni0191" unicode="&#x191;" horiz-adv-x="583" 
d="M81 0v662h478v-72h-403v-230h359v-73h-359v-306q0 -93 -50.5 -140t-126.5 -47q-13 0 -27 1t-28 4v68q12 -2 23.5 -3t22.5 -1q51 0 81 29t30 108z" />
    <glyph glyph-name="florin" unicode="&#x192;" horiz-adv-x="307" 
d="M29 -206q-7 0 -14.5 0.5t-15.5 1.5v68q14 -3 24 -3q36 0 52 12.5t20 30.5t4 34v496h-86v66h86v44q0 82 49.5 123t135.5 41h6v-71h-10q-52 0 -79 -23.5t-27 -75.5v-38h116v-66h-116v-496q0 -32 -10 -65.5t-41 -56t-94 -22.5z" />
    <glyph glyph-name="uni0193" unicode="&#x193;" horiz-adv-x="723" 
d="M361 352h311v-352h-69v117q-21 -32 -54 -60.5t-79.5 -46.5t-106.5 -18q-101 0 -173.5 45.5t-111.5 122.5t-39 171q0 70 22.5 131.5t64 108t101 73t132.5 26.5h6q68 0 123.5 -23t95.5 -63v61q0 33 10 66t41.5 55.5t93.5 22.5q8 0 15 -0.5t15 -1.5v-68q-13 3 -24 3
q-36 0 -52 -12.5t-20 -30t-4 -34.5v-181h-76q-25 60 -80 96.5t-135 36.5q-79 0 -136 -35.5t-87.5 -96t-30.5 -134.5t30 -134.5t87.5 -96t137.5 -35.5q60 0 113.5 26t87 75t33.5 118h-242v68z" />
    <glyph glyph-name="uni0194" unicode="&#x194;" horiz-adv-x="626" 
d="M235 -40q0 -41 20.5 -64.5t57.5 -23.5t57.5 23.5t20.5 64.5q0 15 -6 33.5t-23 51.5t-51 92q-33 -59 -49.5 -92.5t-21.5 -51.5t-5 -33zM3 662h86q72 -124 127.5 -217.5t96.5 -164.5q41 71 96.5 164.5t127.5 217.5h86q-95 -157 -160.5 -267t-109.5 -184q44 -77 68.5 -124.5
t34.5 -76.5t10 -52q0 -40 -17 -77t-51 -60.5t-85 -23.5t-85 23.5t-51 60.5t-17 77q0 23 9.5 52t33.5 75.5t67 121.5q-43 74 -108.5 185t-158.5 270z" />
    <glyph glyph-name="uni0195" unicode="&#x195;" horiz-adv-x="934" 
d="M639 63q67 0 96.5 36t29.5 113v324h88v-327q0 -114 -51 -166.5t-163 -52.5q-110 0 -162 48.5t-52 147.5v157q0 65 -26 97t-83 32q-74 0 -108.5 -45.5t-34.5 -149.5v-277h-88v760h88v-223q0 -44 -5 -75h6q24 42 66 62.5t90 20.5q91 0 137 -46.5t46 -149.5v-157
q0 -65 30.5 -97t95.5 -32z" />
    <glyph glyph-name="uni0196" unicode="&#x196;" horiz-adv-x="304" 
d="M248 61q11 0 22.5 1t23.5 3v-68q-14 -3 -28 -4t-27 -1q-76 0 -125 45t-49 132v493h75v-471q0 -70 28.5 -100t79.5 -30z" />
    <glyph glyph-name="uni0197" unicode="&#x197;" horiz-adv-x="237" 
d="M81 0v299h-74v65h74v298h75v-298h74v-65h-74v-299h-75z" />
    <glyph glyph-name="uni0198" unicode="&#x198;" horiz-adv-x="641" 
d="M425 506l-88 -95l309 -411h-94l-267 355l-129 -138v-217h-75v662h75v-345l218 240q50 55 86.5 84t82.5 29q56 0 87 -33.5t31 -95.5l-64 -14q-3 26 -12 48t-42 22q-27 0 -56 -28t-62 -63z" />
    <glyph glyph-name="uni0199" unicode="&#x199;" horiz-adv-x="502" 
d="M285 303l216 -303h-92l-175 251l-94 -93v-158h-75v564q0 33 10 66t41.5 55.5t93.5 22.5q8 0 15 -0.5t15 -1.5v-68q-13 3 -24 3q-36 0 -52 -12.5t-20 -30t-4 -34.5v-312l241 248h105z" />
    <glyph glyph-name="uni019A" unicode="&#x19a;" horiz-adv-x="261" 
d="M93 0v328h-86v65h86v307h75v-307h86v-65h-86v-328h-75z" />
    <glyph glyph-name="uni019B" unicode="&#x19b;" horiz-adv-x="600" 
d="M544 60q14 0 32 5v-69q-23 -5 -40 -5q-102 0 -152 124l-118 295l-161 -410h-83l202 487l-15 35q-2 6 -5 12t-6 13l-117 -47l-24 61l108 43q-12 15 -26.5 24.5t-31.5 9.5q-23 0 -45.5 -10t-29.5 -15v69q20 12 41 19t43 7q38 0 67.5 -21.5t51.5 -53.5l102 41l25 -61
l-94 -38q2 -4 4 -9l4 -10l42 -100l139 -328q17 -33 37.5 -50.5t49.5 -17.5z" />
    <glyph glyph-name="uni019C" unicode="&#x19c;" horiz-adv-x="905" 
d="M824 662v-670h-75v76q-17 -30 -54 -57t-98 -27q-49 0 -92 26.5t-67 74.5q-10 -17 -31.5 -41t-56 -42t-84.5 -18q-48 0 -90.5 25t-68.5 71.5t-26 109.5v472h75v-470q0 -63 36 -101.5t88 -38.5q56 0 95.5 37t39.5 104v469h75v-470q0 -63 36 -101.5t88 -38.5q56 0 95.5 37
t39.5 104v469h75z" />
    <glyph glyph-name="uni019D" unicode="&#x19d;" horiz-adv-x="639" 
d="M81 0v661h75v-78q36 45 87.5 66.5t103.5 21.5q59 0 111.5 -23t85.5 -71.5t33 -124.5v-473h-75v471q0 56 -25.5 88t-65.5 46t-84 14q-43 0 -82 -16t-64 -48.5t-25 -81.5v-471q0 -93 -50.5 -140t-126.5 -47q-13 0 -27 1t-28 4v68q12 -2 23.5 -3t22.5 -1q51 0 81 29t30 108z
" />
    <glyph glyph-name="uni019E" unicode="&#x19e;" horiz-adv-x="568" 
d="M65 0v500h75v-78q27 36 66 61t100 25q52 0 97.5 -24.5t74 -73t28.5 -119.5v-341q0 -39 -15 -74.5t-49 -58.5t-92 -23q-49 0 -82.5 22.5t-51.5 57.5t-21 71h75q3 -18 13 -37.5t27.5 -33t41.5 -13.5q33 0 50 15.5t23 37t6 39.5v336q0 68 -39 109.5t-101 41.5q-42 0 -76 -19
t-54.5 -53.5t-20.5 -79.5v-288h-75z" />
    <glyph glyph-name="uni019F" unicode="&#x19f;" horiz-adv-x="750" 
d="M375 -8q-75 0 -137 26t-106.5 73t-68.5 108.5t-24 131.5q0 71 24 132t68.5 108t106.5 73t137 26t137 -26t106.5 -73t68.5 -108t24 -132q0 -70 -24 -131.5t-68.5 -108.5t-106.5 -73t-137 -26zM375 597q-75 0 -130.5 -30.5t-89 -83.5t-39.5 -120h518q-6 67 -39.5 120
t-89 83.5t-130.5 30.5zM375 65q74 0 130 30.5t89 83.5t40 119h-518q7 -66 40 -119t89 -83.5t130 -30.5z" />
    <glyph glyph-name="Ohorn" unicode="&#x1a0;" horiz-adv-x="750" 
d="M375 -8q-75 0 -137 26t-106.5 73t-68.5 108.5t-24 131.5q0 71 24 132t68.5 108t106.5 73t137 26q40 0 78 -8h26q38 0 61 26.5t23 82.5h70q0 -57 -18 -96t-50 -59q68 -46 107 -120.5t39 -164.5q0 -70 -24 -131.5t-68.5 -108.5t-106.5 -73t-137 -26zM375 65
q81 0 139.5 35.5t90 96t31.5 134.5q0 75 -31.5 135t-90 95.5t-139.5 35.5q-80 0 -139 -35.5t-90.5 -95.5t-31.5 -135q0 -74 31.5 -134.5t90.5 -96t139 -35.5z" />
    <glyph glyph-name="ohorn" unicode="&#x1a1;" horiz-adv-x="564" 
d="M427 465q50 -34 76.5 -90.5t26.5 -124.5q0 -71 -30 -130t-85.5 -93.5t-132.5 -34.5q-76 0 -132 34.5t-86 93.5t-30 130q0 72 30 130.5t86 93t132 34.5h50q38 0 61 26t23 82h70q0 -52 -15.5 -90.5t-43.5 -60.5zM282 60q56 0 94.5 26t58.5 69.5t20 94.5q0 52 -20 95
t-58.5 69t-94.5 26q-55 0 -94 -26t-59 -69t-20 -95q0 -51 20 -94.5t59 -69.5t94 -26z" />
    <glyph glyph-name="uni01A2" unicode="&#x1a2;" horiz-adv-x="1075" 
d="M688 358q0 -173 -82.5 -270.5t-230.5 -97.5q-150 0 -232 96.5t-82 272.5q0 174 82 270t233 96q142 0 224 -91q28 43 78 67t110 24q102 0 149.5 -52.5t47.5 -165.5v-507h-90v507q0 70 -29 105t-92 35q-53 0 -86.5 -15t-52.5 -46q53 -92 53 -228zM156 358q0 -142 56 -216
t163 -74t162.5 73t55.5 217q0 143 -55 215.5t-162 72.5q-108 0 -164 -73.5t-56 -214.5z" />
    <glyph glyph-name="uni01A3" unicode="&#x1a3;" horiz-adv-x="845" 
d="M526 269q0 -132 -63.5 -205.5t-173.5 -73.5q-69 0 -122.5 34t-82.5 98t-29 147q0 130 62.5 203.5t173.5 73.5q106 0 169 -72q26 37 64 54.5t80 17.5q80 0 120 -47t40 -150v-589h-87v585q0 127 -92 127q-63 0 -94 -44q35 -63 35 -159zM146 269q0 -101 36.5 -153.5
t107.5 -52.5t108 52t37 154q0 101 -37 152t-108 51q-144 0 -144 -203z" />
    <glyph glyph-name="uni01A4" unicode="&#x1a4;" horiz-adv-x="751" 
d="M204 0v591q-70 0 -100 -30.5t-30 -81.5q0 -11 1 -22.5t3 -23.5h-68q-3 14 -4 28t-1 27q0 77 45 125.5t132 48.5h320q106 0 167 -57.5t61 -155.5t-61 -155.5t-167 -57.5h-223v-236h-75zM279 306h218q78 0 118 38t40 105q0 66 -40 104t-118 38h-218v-285z" />
    <glyph glyph-name="uni01A5" unicode="&#x1a5;" horiz-adv-x="595" 
d="M65 -198v762q0 33 10 66t41.5 55.5t93.5 22.5q8 0 15 -0.5t15 -1.5v-68q-13 3 -24 3q-36 0 -52 -12.5t-20 -30t-4 -34.5v-144q28 41 72.5 64.5t106.5 23.5q73 0 127.5 -34.5t84.5 -93t30 -130.5q0 -71 -30 -130t-84.5 -93.5t-127.5 -34.5q-62 0 -106.5 24.5t-72.5 64.5
v-279h-75zM309 60q56 0 95.5 26t60.5 69.5t21 94.5q0 52 -21 95t-60.5 69t-95.5 26q-55 0 -94 -26t-59 -69t-20 -95q0 -51 20 -94.5t59 -69.5t94 -26z" />
    <glyph glyph-name="uni01A6" unicode="&#x1a6;" horiz-adv-x="622" 
d="M187 271h107q87 0 127 34t40 102q0 67 -40.5 98t-131.5 31h-102v-265zM187 195v-195h-90v714h90v-100h107q133 0 196.5 -50.5t63.5 -152.5q0 -142 -143 -191l196 -320h-105l-173 295h-142z" />
    <glyph glyph-name="uni01A7" unicode="&#x1a7;" horiz-adv-x="548" 
d="M47 191q0 48 20 84t61 63.5t124 58.5q68 25 98.5 44t44 42t13.5 58q0 49 -36 76.5t-99 27.5q-72 0 -154 -38l-28 77q85 40 180 40q102 0 165 -49.5t63 -132.5q0 -76 -41.5 -125.5t-142.5 -86.5q-78 -28 -113 -48t-50 -43t-15 -56q0 -54 40.5 -84.5t120.5 -30.5
q91 0 200 47v-86q-34 -17 -85 -28t-111 -11q-120 0 -187.5 54t-67.5 147z" />
    <glyph glyph-name="uni01A8" unicode="&#x1a8;" horiz-adv-x="479" 
d="M45 148q0 37 15 64t46.5 48.5t99.5 46.5q88 34 113 53t25 49t-28 47.5t-83 17.5q-50 0 -132 -34l-30 70q81 36 156 36q98 0 149.5 -36.5t51.5 -105.5q0 -37 -14.5 -63t-45 -47t-106.5 -50q-53 -20 -81 -35.5t-39.5 -31t-11.5 -37.5q0 -39 32 -59t95 -20q84 0 170 43v-80
q-62 -34 -168 -34q-214 0 -214 158z" />
    <glyph glyph-name="uni01A9" unicode="&#x1a9;" horiz-adv-x="608" 
d="M535 662v-72h-344l249 -269l-254 -249h342v-72h-447v72l255 250l-248 268v72h447z" />
    <glyph glyph-name="uni01AA" unicode="&#x1aa;" horiz-adv-x="309" 
d="M67 542q-60 0 -91.5 29.5t-31.5 82.5q0 54 32.5 82.5t92.5 28.5q63 0 96.5 -36t33.5 -105v-696q0 -49 18 -72.5t59 -23.5q19 0 43.5 3t38.5 8v-67q-15 -7 -41.5 -11.5t-52.5 -4.5q-80 0 -116 41t-36 126v615h-45zM63 693q-21 0 -30 -12t-9 -27q0 -40 49 -40h39v13
q0 35 -12.5 50.5t-36.5 15.5z" />
    <glyph glyph-name="uni01AB" unicode="&#x1ab;" horiz-adv-x="360" 
d="M222 -240q-29 0 -60 12v73q22 -9 50 -9q48 0 48 52v102h-11q-157 0 -157 166v312h-76v42l77 35l35 114h52v-123h155v-68h-155v-310q0 -46 22.5 -71t61.5 -25q17 0 40 3.5t35 7.5v-180q0 -133 -117 -133z" />
    <glyph glyph-name="uni01AC" unicode="&#x1ac;" horiz-adv-x="629" 
d="M615 662v-72h-231v-590h-75v590h-105q-70 0 -100 -30t-30 -81q0 -11 1 -22.5t3 -23.5h-68q-3 14 -4 28t-1 27q0 77 45 124t132 50h433z" />
    <glyph glyph-name="uni01AD" unicode="&#x1ad;" horiz-adv-x="326" 
d="M194 136q0 -16 4 -34t20 -30.5t52 -12.5q11 0 24 3v-68q-8 -1 -15 -1.5t-15 -0.5q-62 0 -93.5 22.5t-41.5 56t-10 65.5v298h-102v66h102v64q0 33 10 66t41.5 55.5t93.5 22.5q8 0 15 -0.5t15 -1.5v-68q-13 3 -24 3q-36 0 -52 -12.5t-20 -30t-4 -34.5v-64h115v-66h-115
v-298z" />
    <glyph glyph-name="uni01AE" unicode="&#x1ae;" horiz-adv-x="565" 
d="M320 0q0 -79 30 -108t81 -29q11 0 22.5 1t23.5 3v-68q-14 -3 -28 -4t-27 -1q-76 0 -126.5 47t-50.5 140v610h-231v71h537v-71h-231v-591z" />
    <glyph glyph-name="Uhorn" unicode="&#x1af;" horiz-adv-x="709" 
d="M788 771q0 -88 -42 -133t-110 -46v-307q0 -87 -36 -153t-99.5 -103t-146.5 -37q-82 0 -145.5 36.5t-99.5 102.5t-36 154v377h75v-379q0 -77 29.5 -125t77 -70.5t99.5 -22.5q53 0 100 22.5t77 70.5t30 125v379h73q38 0 61 26.5t23 82.5h70z" />
    <glyph glyph-name="uhorn" unicode="&#x1b0;" horiz-adv-x="566" 
d="M600 609q0 -69 -27 -112t-72 -58v-439h-75v78q-27 -36 -66 -61t-100 -25q-51 0 -97 24.5t-74.5 73t-28.5 119.5v291h75v-289q0 -68 39.5 -109.5t100.5 -41.5q42 0 76 19.5t54.5 53.5t20.5 79v288h20q38 0 61 26.5t23 82.5h70z" />
    <glyph glyph-name="uni01B1" unicode="&#x1b1;" horiz-adv-x="746" 
d="M500 590q66 -20 108 -63t62.5 -100.5t20.5 -122.5q0 -58 -18.5 -113.5t-57.5 -100.5t-99 -71.5t-143 -26.5t-143 26.5t-99 71.5t-57.5 100.5t-18.5 113.5q0 65 20.5 122.5t62.5 100.5t108 63h-161v72h231v-100q-90 -19 -138 -86t-48 -168q0 -80 35.5 -134.5t91.5 -82
t116 -27.5q61 0 116.5 27.5t91 82t35.5 134.5q0 101 -48 168t-138 86v100h231v-72h-161z" />
    <glyph glyph-name="uni01B2" unicode="&#x1b2;" horiz-adv-x="702" 
d="M398 669q14 2 29.5 3.5t32.5 1.5q83 0 126 -57.5t43 -178.5q0 -91 -26 -171.5t-72.5 -142.5t-109 -97t-136.5 -35q-106 0 -159 51.5t-53 157.5v461h75v-444q0 -85 33.5 -119t107.5 -34q69 0 119 35t83 90.5t49 119.5t16 122q0 95 -26 134t-89 39q-10 0 -21.5 -1t-21.5 -3
v68z" />
    <glyph glyph-name="uni01B3" unicode="&#x1b3;" horiz-adv-x="722" 
d="M631 670q46 0 78.5 -29t32.5 -100l-60 -14q-4 30 -13 50t-41 20q-19 0 -39.5 -15t-39.5 -38.5t-35 -48.5l-158 -233v-262h-75v262l-278 400h91l224 -322l139 198q31 46 56.5 75t53 43t64.5 14z" />
    <glyph glyph-name="uni01B4" unicode="&#x1b4;" horiz-adv-x="652" 
d="M584 670q38 0 67.5 -24.5t40.5 -83.5l-56 -25q-8 26 -18.5 42.5t-34.5 16.5q-33 0 -53 -29.5t-36 -66.5l-296 -698h-81l91 205l-204 493h83l161 -410l163 408q21 50 43 88.5t52.5 61t77.5 22.5z" />
    <glyph glyph-name="uni01B5" unicode="&#x1b5;" horiz-adv-x="584" 
d="M29 0v71l189 228h-137v65h191l189 228h-426v70h518v-72l-188 -226h139v-65h-193l-190 -229h432v-70h-524z" />
    <glyph glyph-name="uni01B6" unicode="&#x1b6;" horiz-adv-x="458" 
d="M31 0v71l122 147h-95v65h149l123 148h-295v69h390v-70l-122 -147h97v-65h-152l-123 -148h300v-70h-394z" />
    <glyph glyph-name="uni01B7" unicode="&#x1b7;" horiz-adv-x="586" 
d="M208 259v69l175 262h-332v72h424v-72l-176 -260q70 -9 124 -45.5t84.5 -94t30.5 -127.5q0 -77 -35 -138t-95 -96t-137 -35q-89 0 -156 50t-94 131h80q22 -49 67 -78.5t103 -29.5q56 0 99.5 25t68 69.5t24.5 101.5q0 58 -26 102t-71.5 69.5t-104.5 24.5h-53z" />
    <glyph glyph-name="uni01B8" unicode="&#x1b8;" horiz-adv-x="586" 
d="M378 259v69l-175 262h332v72h-424v-72l176 -260q-70 -9 -124 -45.5t-84.5 -94t-30.5 -127.5q0 -77 35 -138t95 -96t137 -35q89 0 156 50t94 131h-80q-22 -49 -67 -78.5t-103 -29.5q-56 0 -99.5 25t-68 69.5t-24.5 101.5q0 58 26 102t71.5 69.5t104.5 24.5h53z" />
    <glyph glyph-name="uni01B9" unicode="&#x1b9;" horiz-adv-x="499" 
d="M336 167l-1 61l-144 206h244v66h-340v-61l148 -207q-58 -6 -102 -34t-68.5 -73.5t-24.5 -104.5q0 -64 27 -115.5t75.5 -81t113.5 -29.5q47 0 90.5 20t75.5 56t45 85h-79q-15 -41 -52.5 -64.5t-79.5 -23.5q-66 0 -103.5 43t-37.5 110t44.5 107t113.5 40h55z" />
    <glyph glyph-name="uni01BA" unicode="&#x1ba;" horiz-adv-x="498" 
d="M216 -167q84 0 160 36v-80q-60 -29 -161 -29q-90 0 -138.5 31t-48.5 88q0 62 46.5 91.5t137.5 29.5q80 0 114.5 27.5t34.5 94.5q0 60 -44.5 88t-142.5 28h-59v61l183 163h-270v74h394v-64l-187 -164q104 -5 159 -51.5t55 -133.5q0 -95 -59.5 -145.5t-175.5 -50.5
q-53 0 -78 -10.5t-25 -37.5q0 -21 26.5 -33.5t78.5 -12.5z" />
    <glyph glyph-name="uni01BB" unicode="&#x1bb;" horiz-adv-x="569" 
d="M78 419h241q27 44 39 82t12 81q0 50 -29.5 78t-82.5 28q-45 0 -81.5 -16.5t-73.5 -49.5l-47 59q93 84 204 84q94 0 147.5 -48.5t53.5 -132.5q0 -42 -10.5 -81.5t-35.5 -83.5h100v-70h-144q-11 -16 -23.5 -32.5t-201.5 -242.5v-4h374v-70h-472v73l175 215l47 61h-192v70z
" />
    <glyph glyph-name="uni01BC" unicode="&#x1bc;" horiz-adv-x="583" 
d="M224 634v-193h42q77 0 137 -27t93 -76.5t33 -116.5q0 -109 -76 -170t-212 -61q-126 0 -206 39v82q49 -23 104 -35t103 -12q97 0 145 41t48 117q0 68 -47 106.5t-130 38.5h-124v267h-79v80h444v-80h-275z" />
    <glyph glyph-name="uni01BD" unicode="&#x1bd;" horiz-adv-x="490" 
d="M198 462v-117h23q107 0 165.5 -46.5t58.5 -135.5q0 -82 -60.5 -127.5t-168.5 -45.5q-118 0 -183 35v79q89 -42 182 -42q69 0 106 26.5t37 79.5t-37.5 79t-115.5 26h-95v189h-62v74h364v-74h-214z" />
    <glyph glyph-name="uni01BE" unicode="&#x1be;" horiz-adv-x="462" 
d="M136 378v90h-91v42l92 35l35 114h52v-123h155v-68h-155v-92q0 -34 10.5 -49.5t36.5 -24.5q83 -31 115 -66.5t32 -87.5q0 -75 -56 -116.5t-158 -41.5q-105 0 -168 34v80q86 -43 170 -43q66 0 96.5 21.5t30.5 57.5q0 29 -24 49.5t-90 47.5q-47 20 -65 52t-18 89z" />
    <glyph glyph-name="uni01BF" unicode="&#x1bf;" horiz-adv-x="586" 
d="M173 -240h-88v776h72l12 -73h4q55 83 158 83q96 0 152 -59t56 -164q0 -91 -45.5 -164.5t-130 -117.5t-190.5 -51v-230zM173 62q131 17 203 85.5t72 173.5q0 69 -36 110t-99 41q-73 0 -106.5 -44t-33.5 -142v-224z" />
    <glyph glyph-name="uni01C0" unicode="&#x1c0;" horiz-adv-x="247" 
d="M86 -198v898h75v-898h-75z" />
    <glyph glyph-name="uni01C1" unicode="&#x1c1;" horiz-adv-x="398" 
d="M86 -198v898h75v-898h-75zM237 -198v898h75v-898h-75z" />
    <glyph glyph-name="uni01C2" unicode="&#x1c2;" horiz-adv-x="247" 
d="M247 328h-86v-82h86v-65h-86v-379h-75v379h-86v65h86v82h-86v65h86v307h75v-307h86v-65z" />
    <glyph glyph-name="uni01C3" unicode="&#x1c3;" horiz-adv-x="221" 
d="M83 183l-19 479h93l-19 -479h-55zM62 0v102h97v-102h-97z" />
    <glyph glyph-name="uni01C4" unicode="&#x1c4;" horiz-adv-x="1276" 
d="M941 725l-98 105h82l59 -54l59 54h82l-97 -105h-87zM721 0v71l432 521h-426v70h518v-72l-432 -520h432v-70h-524zM81 0v662h279q59 0 113.5 -22.5t97.5 -65.5t68 -104t25 -139t-25 -139t-68 -104t-97.5 -65.5t-113.5 -22.5h-279zM156 71h201q71 0 123 36t80.5 95
t28.5 129q0 71 -28.5 130t-80.5 94.5t-123 35.5h-201v-520z" />
    <glyph glyph-name="uni01C5" unicode="&#x1c5;" horiz-adv-x="1154" 
d="M81 0v662h279q59 0 113.5 -22.5t97.5 -65.5t68 -104t25 -139t-25 -139t-68 -104t-97.5 -65.5t-113.5 -22.5h-279zM156 71h201q71 0 123 36t80.5 95t28.5 129q0 71 -28.5 130t-80.5 94.5t-123 35.5h-201v-520zM882 570l-98 105h82l59 -54l59 54h82l-97 -105h-87zM727 0v71
l299 360h-295v69h390v-70l-300 -360h300v-70h-394z" />
    <glyph glyph-name="uni01C6" unicode="&#x1c6;" horiz-adv-x="1053" 
d="M276 -8q-73 0 -127.5 34.5t-84.5 93.5t-30 130q0 72 30 130.5t84.5 93t127.5 34.5q62 0 106.5 -24t72.5 -65v281h75v-700h-75v80q-28 -40 -72.5 -64t-106.5 -24zM286 60q56 0 94.5 26t58.5 69.5t20 94.5q0 52 -20 95t-58.5 69t-94.5 26q-55 0 -95 -26t-61 -69t-21 -95
q0 -51 21 -94.5t61 -69.5t95 -26zM781 570l-98 105h82l59 -54l59 54h82l-97 -105h-87zM626 0v71l299 360h-295v69h390v-70l-300 -360h300v-70h-394z" />
    <glyph glyph-name="uni01C7" unicode="&#x1c7;" horiz-adv-x="1060" 
d="M81 0v662h75v-590h361v-72h-436zM769 -8q-71 0 -118.5 27.5t-72.5 70t-30 87.5h78q4 -26 21 -52t48 -43t78 -17q45 0 72.5 14.5t41 38.5t18.5 51.5t5 52.5v440h75v-443q0 -58 -20.5 -110t-68 -84.5t-127.5 -32.5z" />
    <glyph glyph-name="uni01C8" unicode="&#x1c8;" horiz-adv-x="738" 
d="M81 0v662h75v-590h361v-72h-436zM595 584v98h81v-98h-81zM598 -198v698h75v-698h-75z" />
    <glyph glyph-name="uni01C9" unicode="&#x1c9;" horiz-adv-x="410" 
d="M65 0v700h75v-700h-75zM267 584v98h81v-98h-81zM270 -198v698h75v-698h-75z" />
    <glyph glyph-name="uni01CA" unicode="&#x1ca;" horiz-adv-x="1260" 
d="M81 0v662h87l409 -557v557h75v-662h-87l-409 559v-559h-75zM969 -8q-71 0 -118.5 27.5t-72.5 70t-30 87.5h78q4 -26 21 -52t48 -43t78 -17q45 0 72.5 14.5t41 38.5t18.5 51.5t5 52.5v440h75v-443q0 -58 -20.5 -110t-68 -84.5t-127.5 -32.5z" />
    <glyph glyph-name="uni01CB" unicode="&#x1cb;" horiz-adv-x="938" 
d="M81 0v662h87l409 -557v557h75v-662h-87l-409 559v-559h-75zM795 584v98h81v-98h-81zM798 -198v698h75v-698h-75z" />
    <glyph glyph-name="uni01CC" unicode="&#x1cc;" horiz-adv-x="771" 
d="M65 0v500h75v-78q27 36 66 61t100 25q52 0 97.5 -24.5t74 -73t28.5 -119.5v-291h-75v289q0 68 -39 109.5t-101 41.5q-42 0 -76 -19t-54.5 -53.5t-20.5 -79.5v-288h-75zM628 584v98h81v-98h-81zM631 -198v698h75v-698h-75z" />
    <glyph glyph-name="uni01CD" unicode="&#x1cd;" horiz-adv-x="662" 
d="M288 725l-98 105h82l59 -54l59 54h82l-97 -105h-87zM3 0l281 662h94l281 -662h-83l-81 192h-328l-81 -192h-83zM196 261h270l-135 323z" />
    <glyph glyph-name="uni01CE" unicode="&#x1ce;" horiz-adv-x="595" 
d="M255 570l-98 105h82l59 -54l59 54h82l-97 -105h-87zM276 -8q-73 0 -127.5 34.5t-84.5 93.5t-30 130q0 72 30 130.5t84.5 93t127.5 34.5q62 0 106.5 -24t72.5 -65v81h75v-500h-75v80q-28 -40 -72.5 -64t-106.5 -24zM286 60q56 0 94.5 26t58.5 69.5t20 94.5q0 52 -20 95
t-58.5 69t-94.5 26q-55 0 -95 -26t-61 -69t-21 -95q0 -51 21 -94.5t61 -69.5t95 -26z" />
    <glyph glyph-name="uni01CF" unicode="&#x1cf;" horiz-adv-x="237" 
d="M76 725l-98 105h82l59 -54l59 54h82l-97 -105h-87zM81 0v662h75v-662h-75z" />
    <glyph glyph-name="uni01D0" unicode="&#x1d0;" horiz-adv-x="205" 
d="M60 570l-98 105h82l59 -54l59 54h82l-97 -105h-87zM65 0v500h75v-500h-75z" />
    <glyph glyph-name="uni01D1" unicode="&#x1d1;" horiz-adv-x="750" 
d="M332 725l-98 105h82l59 -54l59 54h82l-97 -105h-87zM375 -8q-75 0 -137 26t-106.5 73t-68.5 108.5t-24 131.5q0 71 24 132t68.5 108t106.5 73t137 26t137 -26t106.5 -73t68.5 -108t24 -132q0 -70 -24 -131.5t-68.5 -108.5t-106.5 -73t-137 -26zM375 65q81 0 139.5 35.5
t90 96t31.5 134.5q0 75 -31.5 135t-90 95.5t-139.5 35.5q-80 0 -139 -35.5t-90.5 -95.5t-31.5 -135q0 -74 31.5 -134.5t90.5 -96t139 -35.5z" />
    <glyph glyph-name="uni01D2" unicode="&#x1d2;" horiz-adv-x="564" 
d="M239 570l-98 105h82l59 -54l59 54h82l-97 -105h-87zM282 -8q-76 0 -132 34.5t-86 93.5t-30 130q0 72 30 130.5t86 93t132 34.5q77 0 132.5 -34.5t85.5 -93t30 -130.5q0 -71 -30 -130t-85.5 -93.5t-132.5 -34.5zM282 60q56 0 94.5 26t58.5 69.5t20 94.5q0 52 -20 95
t-58.5 69t-94.5 26q-55 0 -94 -26t-59 -69t-20 -95q0 -51 20 -94.5t59 -69.5t94 -26z" />
    <glyph glyph-name="uni01D3" unicode="&#x1d3;" horiz-adv-x="709" 
d="M312 725l-98 105h82l59 -54l59 54h82l-97 -105h-87zM354 -8q-82 0 -145.5 36.5t-99.5 102.5t-36 154v377h75v-379q0 -77 29.5 -125t77 -70.5t99.5 -22.5q53 0 100 22.5t77 70.5t30 125v379h75v-377q0 -87 -36 -153t-99.5 -103t-146.5 -37z" />
    <glyph glyph-name="uni01D4" unicode="&#x1d4;" horiz-adv-x="566" 
d="M240 570l-98 105h82l59 -54l59 54h82l-97 -105h-87zM260 -8q-51 0 -97 24.5t-74.5 73t-28.5 119.5v291h75v-289q0 -68 39.5 -109.5t100.5 -41.5q42 0 76 19.5t54.5 53.5t20.5 79v288h75v-500h-75v78q-27 -36 -66 -61t-100 -25z" />
    <glyph glyph-name="uni01D5" unicode="&#x1d5;" horiz-adv-x="709" 
d="M223 858v60h264v-60h-264zM232 730v83h89v-83h-89zM389 730v83h89v-83h-89zM354 -8q-82 0 -145.5 36.5t-99.5 102.5t-36 154v377h75v-379q0 -77 29.5 -125t77 -70.5t99.5 -22.5q53 0 100 22.5t77 70.5t30 125v379h75v-377q0 -87 -36 -153t-99.5 -103t-146.5 -37z" />
    <glyph glyph-name="uni01D6" unicode="&#x1d6;" horiz-adv-x="566" 
d="M161 579v83h89v-83h-89zM318 579v83h89v-83h-89zM154 712v60h264v-60h-264zM260 -8q-51 0 -97 24.5t-74.5 73t-28.5 119.5v291h75v-289q0 -68 39.5 -109.5t100.5 -41.5q42 0 76 19.5t54.5 53.5t20.5 79v288h75v-500h-75v78q-27 -36 -66 -61t-100 -25z" />
    <glyph glyph-name="uni01D7" unicode="&#x1d7;" horiz-adv-x="709" 
d="M232 730v83h89v-83h-89zM389 730v83h89v-83h-89zM321 847l61 105h107l-107 -105h-61zM354 -8q-82 0 -145.5 36.5t-99.5 102.5t-36 154v377h75v-379q0 -77 29.5 -125t77 -70.5t99.5 -22.5q53 0 100 22.5t77 70.5t30 125v379h75v-377q0 -87 -36 -153t-99.5 -103t-146.5 -37
z" />
    <glyph glyph-name="uni01D8" unicode="&#x1d8;" horiz-adv-x="566" 
d="M161 579v83h89v-83h-89zM318 579v83h89v-83h-89zM232 698l61 105h107l-107 -105h-61zM260 -8q-51 0 -97 24.5t-74.5 73t-28.5 119.5v291h75v-289q0 -68 39.5 -109.5t100.5 -41.5q42 0 76 19.5t54.5 53.5t20.5 79v288h75v-500h-75v78q-27 -36 -66 -61t-100 -25z" />
    <glyph glyph-name="uni01D9" unicode="&#x1d9;" horiz-adv-x="709" 
d="M232 730v83h89v-83h-89zM389 730v83h89v-83h-89zM312 847l-98 105h82l59 -54l59 54h82l-97 -105h-87zM354 -8q-82 0 -145.5 36.5t-99.5 102.5t-36 154v377h75v-379q0 -77 29.5 -125t77 -70.5t99.5 -22.5q53 0 100 22.5t77 70.5t30 125v379h75v-377q0 -87 -36 -153
t-99.5 -103t-146.5 -37z" />
    <glyph glyph-name="uni01DA" unicode="&#x1da;" horiz-adv-x="566" 
d="M243 698l-98 105h82l59 -54l59 54h82l-97 -105h-87zM161 579v83h89v-83h-89zM318 579v83h89v-83h-89zM260 -8q-51 0 -97 24.5t-74.5 73t-28.5 119.5v291h75v-289q0 -68 39.5 -109.5t100.5 -41.5q42 0 76 19.5t54.5 53.5t20.5 79v288h75v-500h-75v78q-27 -36 -66 -61
t-100 -25z" />
    <glyph glyph-name="uni01DB" unicode="&#x1db;" horiz-adv-x="709" 
d="M328 847l-107 105h107l61 -105h-61zM232 730v83h89v-83h-89zM389 730v83h89v-83h-89zM354 -8q-82 0 -145.5 36.5t-99.5 102.5t-36 154v377h75v-379q0 -77 29.5 -125t77 -70.5t99.5 -22.5q53 0 100 22.5t77 70.5t30 125v379h75v-377q0 -87 -36 -153t-99.5 -103t-146.5 -37
z" />
    <glyph glyph-name="uni01DC" unicode="&#x1dc;" horiz-adv-x="566" 
d="M161 579v83h89v-83h-89zM318 579v83h89v-83h-89zM309 698l-107 105h107l61 -105h-61zM260 -8q-51 0 -97 24.5t-74.5 73t-28.5 119.5v291h75v-289q0 -68 39.5 -109.5t100.5 -41.5q42 0 76 19.5t54.5 53.5t20.5 79v288h75v-500h-75v78q-27 -36 -66 -61t-100 -25z" />
    <glyph glyph-name="uni01DD" unicode="&#x1dd;" horiz-adv-x="557" 
d="M277 508q76 0 133 -34.5t88.5 -93.5t31.5 -130q0 -72 -30 -130.5t-86 -93t-132 -34.5q-77 0 -132.5 34.5t-85.5 93t-30 130.5v30h419q-6 44 -28.5 80.5t-60.5 58t-88 21.5q-53 0 -89 -23.5t-56 -60.5h-82q26 67 82.5 109.5t145.5 42.5zM452 210h-340q10 -64 54 -107
t116 -43t115.5 43t54.5 107z" />
    <glyph glyph-name="uni01DE" unicode="&#x1de;" horiz-adv-x="662" 
d="M199 858v60h264v-60h-264zM208 730v83h89v-83h-89zM365 730v83h89v-83h-89zM3 0l281 662h94l281 -662h-83l-81 192h-328l-81 -192h-83zM196 261h270l-135 323z" />
    <glyph glyph-name="uni01DF" unicode="&#x1df;" horiz-adv-x="595" 
d="M176 579v83h89v-83h-89zM333 579v83h89v-83h-89zM169 712v60h264v-60h-264zM276 -8q-73 0 -127.5 34.5t-84.5 93.5t-30 130q0 72 30 130.5t84.5 93t127.5 34.5q62 0 106.5 -24t72.5 -65v81h75v-500h-75v80q-28 -40 -72.5 -64t-106.5 -24zM286 60q56 0 94.5 26t58.5 69.5
t20 94.5q0 52 -20 95t-58.5 69t-94.5 26q-55 0 -95 -26t-61 -69t-21 -95q0 -51 21 -94.5t61 -69.5t95 -26z" />
    <glyph glyph-name="uni01E0" unicode="&#x1e0;" horiz-adv-x="662" 
d="M200 848v60h264v-60h-264zM287 732v83h89v-83h-89zM3 0l281 662h94l281 -662h-83l-81 192h-328l-81 -192h-83zM196 261h270l-135 323z" />
    <glyph glyph-name="uni01E1" unicode="&#x1e1;" horiz-adv-x="595" 
d="M254 580v83h89v-83h-89zM167 712v60h264v-60h-264zM276 -8q-73 0 -127.5 34.5t-84.5 93.5t-30 130q0 72 30 130.5t84.5 93t127.5 34.5q62 0 106.5 -24t72.5 -65v81h75v-500h-75v80q-28 -40 -72.5 -64t-106.5 -24zM286 60q56 0 94.5 26t58.5 69.5t20 94.5q0 52 -20 95
t-58.5 69t-94.5 26q-55 0 -95 -26t-61 -69t-21 -95q0 -51 21 -94.5t61 -69.5t95 -26z" />
    <glyph glyph-name="uni01E2" unicode="&#x1e2;" horiz-adv-x="1022" 
d="M579 736v60h264v-60h-264zM-3 0l453 662h533v-72h-387v-222h343v-73h-343v-223h387v-72h-462v185h-309l-125 -185h-90zM259 254h262v336h-34z" />
    <glyph glyph-name="uni01E3" unicode="&#x1e3;" horiz-adv-x="977" 
d="M357 584v60h264v-60h-264zM276 -8q-73 0 -127.5 34.5t-84.5 93.5t-30 130q0 72 30 130.5t84.5 93t127.5 34.5q62 0 106.5 -24t72.5 -65v81h75v-72q27 37 70 58.5t102 21.5q77 0 132.5 -34.5t85.5 -93t30 -130.5v-30h-419q6 -44 28 -80.5t60 -58t89 -21.5q56 0 93 27
t56 70h80q-24 -73 -85.5 -119t-149.5 -46q-59 0 -102 21t-70 58v-71h-75v80q-28 -40 -72.5 -64t-106.5 -24zM286 60q56 0 94.5 26t58.5 69.5t20 94.5q0 52 -20 95t-58.5 69t-94.5 26q-55 0 -95 -26t-61 -69t-21 -95q0 -51 21 -94.5t61 -69.5t95 -26zM532 290h340
q-10 64 -54 107t-116 43t-115.5 -43t-54.5 -107z" />
    <glyph glyph-name="uni01E4" unicode="&#x1e4;" horiz-adv-x="723" 
d="M363 -8q-101 0 -173.5 45.5t-111.5 122.5t-39 171t40 171t113.5 122.5t172.5 45.5q107 0 185.5 -52.5t115.5 -135.5h-82q-30 53 -83.5 84t-129.5 31q-80 0 -138 -35.5t-88.5 -95.5t-30.5 -135q0 -74 30 -134.5t87.5 -96t137.5 -35.5q56 0 106.5 22.5t83.5 64.5h-198v65
h232q10 32 10 67h-242v68h311v-135h37v-65h-37v-152h-69v117q-21 -32 -54 -60.5t-79.5 -46.5t-106.5 -18z" />
    <glyph glyph-name="uni01E5" unicode="&#x1e5;" horiz-adv-x="595" 
d="M294 -206q-94 0 -153 40.5t-80 105.5h83q15 -37 52 -57.5t94 -20.5q101 0 140 58h-86v65h109q2 16 2 35v69q-28 -40 -72.5 -64.5t-106.5 -24.5q-73 0 -127.5 33.5t-84.5 91.5t-30 129q0 72 30 129.5t84.5 91t127.5 33.5q62 0 106.5 -23.5t72.5 -64.5v80h75v-485
q0 -16 -1 -30h62v-65h-77q-48 -126 -220 -126zM286 68q55 0 93.5 25t59 67.5t20.5 93.5q0 52 -20.5 94t-59 67t-93.5 25t-95 -25t-61 -67t-21 -94q0 -51 21 -93.5t61 -67.5t95 -25z" />
    <glyph glyph-name="Gcaron" unicode="&#x1e6;" horiz-adv-x="723" 
d="M319 725l-98 105h82l59 -54l59 54h82l-97 -105h-87zM363 -8q-101 0 -173.5 45.5t-111.5 122.5t-39 171t40 171t113.5 122.5t172.5 45.5q107 0 185.5 -52.5t115.5 -135.5h-82q-30 53 -83.5 84t-129.5 31q-80 0 -138 -35.5t-88.5 -95.5t-30.5 -135q0 -74 30 -134.5
t87.5 -96t137.5 -35.5q60 0 113.5 26t87 75t33.5 118h-242v68h311v-352h-69v117q-21 -32 -54 -60.5t-79.5 -46.5t-106.5 -18z" />
    <glyph glyph-name="gcaron" unicode="&#x1e7;" horiz-adv-x="595" 
d="M255 570l-98 105h82l59 -54l59 54h82l-97 -105h-87zM294 -206q-94 0 -153 40.5t-80 105.5h83q15 -37 52 -57.5t94 -20.5q86 0 125.5 40.5t39.5 117.5v69q-28 -40 -72.5 -64.5t-106.5 -24.5q-73 0 -127.5 33.5t-84.5 91.5t-30 129q0 72 30 129.5t84.5 91t127.5 33.5
q62 0 106.5 -23.5t72.5 -64.5v80h75v-485q0 -107 -61.5 -164t-174.5 -57zM286 68q55 0 93.5 25t59 67.5t20.5 93.5q0 52 -20.5 94t-59 67t-93.5 25t-95 -25t-61 -67t-21 -94q0 -51 21 -93.5t61 -67.5t95 -25z" />
    <glyph glyph-name="uni01E8" unicode="&#x1e8;" horiz-adv-x="641" 
d="M278 725l-98 105h82l59 -54l59 54h82l-97 -105h-87zM81 0v662h75v-345l368 345h106l-282 -266l298 -396h-94l-259 345l-137 -128v-217h-75z" />
    <glyph glyph-name="uni01E9" unicode="&#x1e9;" horiz-adv-x="502" 
d="M62 763l-98 105h82l59 -54l59 54h82l-97 -105h-87zM65 0v700h75v-448l241 248h105l-201 -197l216 -303h-92l-175 251l-94 -93v-158h-75z" />
    <glyph glyph-name="uni01EA" unicode="&#x1ea;" horiz-adv-x="750" 
d="M711 331q0 -82 -32.5 -151.5t-91.5 -117t-139 -63.5q-15 -8 -38.5 -23t-41.5 -36t-18 -46q0 -24 19 -37t41 -13q20 0 36 11v-39q-15 -12 -35 -18t-41 -6q-37 0 -67 21t-30 62q0 31 16.5 53t40.5 37.5t46 26.5h-1q-75 0 -137 26t-106.5 73t-68.5 108.5t-24 131.5
q0 71 24 132t68.5 108t106.5 73t137 26t137 -26t106.5 -73t68.5 -108t24 -132zM375 65q81 0 139.5 35.5t90 96t31.5 134.5q0 75 -31.5 135t-90 95.5t-139.5 35.5q-80 0 -139 -35.5t-90.5 -95.5t-31.5 -135q0 -74 31.5 -134.5t90.5 -96t139 -35.5z" />
    <glyph glyph-name="uni01EB" unicode="&#x1eb;" horiz-adv-x="564" 
d="M372 7q-18 -9 -43.5 -25.5t-45.5 -38.5t-20 -47q0 -24 19 -37t41 -13q20 0 36 11v-39q-15 -12 -35 -18t-41 -6q-37 0 -67 21t-30 62q0 30 15.5 51.5t38.5 37t45 26.5h-3q-76 0 -132 34.5t-86 93.5t-30 130q0 72 30 130.5t86 93t132 34.5q77 0 132.5 -34.5t85.5 -93
t30 -130.5q0 -84 -42 -150t-116 -93zM109 250q0 -51 20 -94.5t59 -69.5t94 -26q56 0 94.5 26t58.5 69.5t20 94.5q0 52 -20 95t-58.5 69t-94.5 26q-55 0 -94 -26t-59 -69t-20 -95z" />
    <glyph glyph-name="uni01EC" unicode="&#x1ec;" horiz-adv-x="750" 
d="M243 736v60h264v-60h-264zM711 331q0 -82 -32.5 -151.5t-91.5 -117t-139 -63.5q-15 -8 -38.5 -23t-41.5 -36t-18 -46q0 -24 19 -37t41 -13q20 0 36 11v-39q-15 -12 -35 -18t-41 -6q-37 0 -67 21t-30 62q0 31 16.5 53t40.5 37.5t46 26.5h-1q-75 0 -137 26t-106.5 73
t-68.5 108.5t-24 131.5q0 71 24 132t68.5 108t106.5 73t137 26t137 -26t106.5 -73t68.5 -108t24 -132zM375 65q81 0 139.5 35.5t90 96t31.5 134.5q0 75 -31.5 135t-90 95.5t-139.5 35.5q-80 0 -139 -35.5t-90.5 -95.5t-31.5 -135q0 -74 31.5 -134.5t90.5 -96t139 -35.5z" />
    <glyph glyph-name="uni01ED" unicode="&#x1ed;" horiz-adv-x="564" 
d="M150 584v60h264v-60h-264zM372 7q-18 -9 -43.5 -25.5t-45.5 -38.5t-20 -47q0 -24 19 -37t41 -13q20 0 36 11v-39q-15 -12 -35 -18t-41 -6q-37 0 -67 21t-30 62q0 30 15.5 51.5t38.5 37t45 26.5h-3q-76 0 -132 34.5t-86 93.5t-30 130q0 72 30 130.5t86 93t132 34.5
q77 0 132.5 -34.5t85.5 -93t30 -130.5q0 -84 -42 -150t-116 -93zM109 250q0 -51 20 -94.5t59 -69.5t94 -26q56 0 94.5 26t58.5 69.5t20 94.5q0 52 -20 95t-58.5 69t-94.5 26q-55 0 -94 -26t-59 -69t-20 -95z" />
    <glyph glyph-name="uni01EE" unicode="&#x1ee;" horiz-adv-x="586" 
d="M236 725l-98 105h82l59 -54l59 54h82l-97 -105h-87zM208 259v69l175 262h-332v72h424v-72l-176 -260q70 -9 124 -45.5t84.5 -94t30.5 -127.5q0 -77 -35 -138t-95 -96t-137 -35q-89 0 -156 50t-94 131h80q22 -49 67 -78.5t103 -29.5q56 0 99.5 25t68 69.5t24.5 101.5
q0 58 -26 102t-71.5 69.5t-104.5 24.5h-53z" />
    <glyph glyph-name="uni01EF" unicode="&#x1ef;" horiz-adv-x="499" 
d="M192 570l-98 105h82l59 -54l59 54h82l-97 -105h-87zM163 167l1 61l144 206h-244v66h340v-61l-148 -207q58 -6 102 -34t68.5 -73.5t24.5 -104.5q0 -64 -27 -115.5t-75.5 -81t-113.5 -29.5q-47 0 -90.5 20t-75.5 56t-45 85h79q15 -41 52.5 -64.5t79.5 -23.5q66 0 103.5 43
t37.5 110t-44.5 107t-113.5 40h-55z" />
    <glyph glyph-name="uni01F0" unicode="&#x1f0;" horiz-adv-x="257" 
d="M-20 570l-98 105h82l59 -54l59 54h82l-97 -105h-87zM65 -198v698h75v-698h-75z" />
    <glyph glyph-name="uni01F1" unicode="&#x1f1;" horiz-adv-x="1291" 
d="M81 0v662h279q59 0 113.5 -22.5t97.5 -65.5t68 -104t25 -139t-25 -139t-68 -104t-97.5 -65.5t-113.5 -22.5h-279zM156 71h201q71 0 123 36t80.5 95t28.5 129q0 71 -28.5 130t-80.5 94.5t-123 35.5h-201v-520zM749 0v71l432 521h-426v70h518v-72l-432 -520h432v-70h-524z
" />
    <glyph glyph-name="uni01F2" unicode="&#x1f2;" horiz-adv-x="1200" 
d="M81 0v662h279q59 0 113.5 -22.5t97.5 -65.5t68 -104t25 -139t-25 -139t-68 -104t-97.5 -65.5t-113.5 -22.5h-279zM156 71h201q71 0 123 36t80.5 95t28.5 129q0 71 -28.5 130t-80.5 94.5t-123 35.5h-201v-520zM761 0v71l299 360h-295v69h390v-70l-300 -360h300v-70h-394z
" />
    <glyph glyph-name="uni01F3" unicode="&#x1f3;" horiz-adv-x="1084" 
d="M276 -8q-73 0 -127.5 34.5t-84.5 93.5t-30 130q0 72 30 130.5t84.5 93t127.5 34.5q62 0 106.5 -24t72.5 -65v281h75v-700h-75v80q-28 -40 -72.5 -64t-106.5 -24zM286 60q56 0 94.5 26t58.5 69.5t20 94.5q0 52 -20 95t-58.5 69t-94.5 26q-55 0 -95 -26t-61 -69t-21 -95
q0 -51 21 -94.5t61 -69.5t95 -26zM646 0v71l299 360h-295v69h390v-70l-300 -360h300v-70h-394z" />
    <glyph glyph-name="uni01F4" unicode="&#x1f4;" horiz-adv-x="723" 
d="M328 725l61 105h107l-107 -105h-61zM363 -8q-101 0 -173.5 45.5t-111.5 122.5t-39 171t40 171t113.5 122.5t172.5 45.5q107 0 185.5 -52.5t115.5 -135.5h-82q-30 53 -83.5 84t-129.5 31q-80 0 -138 -35.5t-88.5 -95.5t-30.5 -135q0 -74 30 -134.5t87.5 -96t137.5 -35.5
q60 0 113.5 26t87 75t33.5 118h-242v68h311v-352h-69v117q-21 -32 -54 -60.5t-79.5 -46.5t-106.5 -18z" />
    <glyph glyph-name="uni01F5" unicode="&#x1f5;" horiz-adv-x="595" 
d="M244 570l61 105h107l-107 -105h-61zM294 -206q-94 0 -153 40.5t-80 105.5h83q15 -37 52 -57.5t94 -20.5q86 0 125.5 40.5t39.5 117.5v69q-28 -40 -72.5 -64.5t-106.5 -24.5q-73 0 -127.5 33.5t-84.5 91.5t-30 129q0 72 30 129.5t84.5 91t127.5 33.5q62 0 106.5 -23.5
t72.5 -64.5v80h75v-485q0 -107 -61.5 -164t-174.5 -57zM286 68q55 0 93.5 25t59 67.5t20.5 93.5q0 52 -20.5 94t-59 67t-93.5 25t-95 -25t-61 -67t-21 -94q0 -51 21 -93.5t61 -67.5t95 -25z" />
    <glyph glyph-name="uni01F6" unicode="&#x1f6;" horiz-adv-x="937" 
d="M187 333v-333h-90v714h90v-302h296v302h90v-550q0 -45 23 -70t70 -25q44 0 68 25t24 71v371h90v-371q0 -81 -49 -127.5t-136 -46.5q-85 0 -132.5 46t-47.5 129v167h-296z" />
    <glyph glyph-name="uni01F7" unicode="&#x1f7;" horiz-adv-x="661" 
d="M389 725q103 0 160 -64t57 -179q0 -161 -106.5 -284.5t-312.5 -207.5v-230h-90v955h71l15 -97h5q37 55 86.5 81t114.5 26zM187 74q161 67 245 171.5t84 235.5q0 81 -37 123.5t-106 42.5q-94 0 -140 -55.5t-46 -173.5v-344z" />
    <glyph glyph-name="uni01F8" unicode="&#x1f8;" horiz-adv-x="733" 
d="M340 725l-107 105h107l61 -105h-61zM81 0v662h87l409 -557v557h75v-662h-87l-409 559v-559h-75z" />
    <glyph glyph-name="uni01F9" unicode="&#x1f9;" horiz-adv-x="566" 
d="M306 570l-107 105h107l61 -105h-61zM65 0v500h75v-78q27 36 66 61t100 25q52 0 97.5 -24.5t74 -73t28.5 -119.5v-291h-75v289q0 68 -39 109.5t-101 41.5q-42 0 -76 -19t-54.5 -53.5t-20.5 -79.5v-288h-75z" />
    <glyph glyph-name="Aringacute" unicode="&#x1fa;" horiz-adv-x="662" 
d="M330 635q-37 0 -63 26t-26 63q0 38 26 64t63 26q38 0 64.5 -26t26.5 -64q0 -37 -26.5 -63t-64.5 -26zM330 680q19 0 32 13t13 31q0 19 -13 32t-32 13q-17 0 -30 -13t-13 -32q0 -18 13 -31t30 -13zM296 869l61 105h107l-107 -105h-61zM3 0l281 662h94l281 -662h-83
l-81 192h-328l-81 -192h-83zM196 261h270l-135 323z" />
    <glyph glyph-name="aringacute" unicode="&#x1fb;" horiz-adv-x="595" 
d="M297 556q-37 0 -63 26t-26 63q0 38 26 64t63 26q38 0 64.5 -26t26.5 -64q0 -37 -26.5 -63t-64.5 -26zM297 601q19 0 32 13t13 31q0 19 -13 32t-32 13q-17 0 -30 -13t-13 -32q0 -18 13 -31t30 -13zM243 765l61 105h107l-107 -105h-61zM276 -8q-73 0 -127.5 34.5
t-84.5 93.5t-30 130q0 72 30 130.5t84.5 93t127.5 34.5q62 0 106.5 -24t72.5 -65v81h75v-500h-75v80q-28 -40 -72.5 -64t-106.5 -24zM286 60q56 0 94.5 26t58.5 69.5t20 94.5q0 52 -20 95t-58.5 69t-94.5 26q-55 0 -95 -26t-61 -69t-21 -95q0 -51 21 -94.5t61 -69.5t95 -26z
" />
    <glyph glyph-name="AEacute" unicode="&#x1fc;" horiz-adv-x="1022" 
d="M677 725l61 105h107l-107 -105h-61zM-3 0l453 662h533v-72h-387v-222h343v-73h-343v-223h387v-72h-462v185h-309l-125 -185h-90zM259 254h262v336h-34z" />
    <glyph glyph-name="aeacute" unicode="&#x1fd;" horiz-adv-x="977" 
d="M435 570l61 105h107l-107 -105h-61zM276 -8q-73 0 -127.5 34.5t-84.5 93.5t-30 130q0 72 30 130.5t84.5 93t127.5 34.5q62 0 106.5 -24t72.5 -65v81h75v-72q27 37 70 58.5t102 21.5q77 0 132.5 -34.5t85.5 -93t30 -130.5v-30h-419q6 -44 28 -80.5t60 -58t89 -21.5
q56 0 93 27t56 70h80q-24 -73 -85.5 -119t-149.5 -46q-59 0 -102 21t-70 58v-71h-75v80q-28 -40 -72.5 -64t-106.5 -24zM286 60q56 0 94.5 26t58.5 69.5t20 94.5q0 52 -20 95t-58.5 69t-94.5 26q-55 0 -95 -26t-61 -69t-21 -95q0 -51 21 -94.5t61 -69.5t95 -26zM532 290h340
q-10 64 -54 107t-116 43t-115.5 -43t-54.5 -107z" />
    <glyph glyph-name="Oslashacute" unicode="&#x1fe;" horiz-adv-x="750" 
d="M341 725l61 105h107l-107 -105h-61zM122 -40l54 93q-65 46 -101 118.5t-36 159.5q0 71 24 132t68.5 108t106.5 73t137 26q38 0 73.5 -7t66.5 -21l33 58h74l-51 -89q66 -45 103 -118.5t37 -161.5q0 -70 -24 -131.5t-68.5 -108.5t-106.5 -73t-137 -26q-40 0 -76 7.5
t-68 21.5l-35 -61h-74zM114 331q0 -67 25.5 -122.5t72.5 -91.5l266 462q-47 18 -103 18q-80 0 -139 -35.5t-90.5 -95.5t-31.5 -135zM375 65q81 0 139.5 35.5t90 96t31.5 134.5q0 68 -26.5 124.5t-75.5 92.5l-266 -463q49 -20 107 -20z" />
    <glyph glyph-name="oslashacute" unicode="&#x1ff;" horiz-adv-x="564" 
d="M258 570l61 105h107l-107 -105h-61zM96 -16l33 57q-46 35 -70.5 90t-24.5 119q0 72 30 130.5t86 93t132 34.5q56 0 104 -20l21 37h74l-41 -71q43 -35 66.5 -88t23.5 -116q0 -71 -30 -130t-85.5 -93.5t-132.5 -34.5q-52 0 -97 18l-15 -26h-74zM109 250q0 -43 14.5 -81
t41.5 -65l186 323q-32 13 -69 13q-55 0 -94 -26t-59 -69t-20 -95zM282 60q56 0 94.5 26t58.5 69t20 95q0 41 -13 77.5t-38 63.5l-184 -321q28 -10 62 -10z" />
    <glyph glyph-name="uni0200" unicode="&#x200;" horiz-adv-x="662" 
d="M224 715l-107 105h107l61 -105h-61zM380 715l-107 105h107l61 -105h-61zM3 0l281 662h94l281 -662h-83l-81 192h-328l-81 -192h-83zM196 261h270l-135 323z" />
    <glyph glyph-name="uni0201" unicode="&#x201;" horiz-adv-x="595" 
d="M193 570l-107 105h107l61 -105h-61zM349 570l-107 105h107l61 -105h-61zM276 -8q-73 0 -127.5 34.5t-84.5 93.5t-30 130q0 72 30 130.5t84.5 93t127.5 34.5q62 0 106.5 -24t72.5 -65v81h75v-500h-75v80q-28 -40 -72.5 -64t-106.5 -24zM286 60q56 0 94.5 26t58.5 69.5
t20 94.5q0 52 -20 95t-58.5 69t-94.5 26q-55 0 -95 -26t-61 -69t-21 -95q0 -51 21 -94.5t61 -69.5t95 -26z" />
    <glyph glyph-name="uni0202" unicode="&#x202;" horiz-adv-x="662" 
d="M332 831q-49 0 -84 -28t-35 -67q0 -8 2 -15l4 -14h18q3 28 30 46.5t65 18.5q37 0 64 -18.5t30 -46.5h18q6 13 6 29q0 39 -34.5 67t-83.5 28zM3 0l281 662h94l281 -662h-83l-81 192h-328l-81 -192h-83zM196 261h270l-135 323z" />
    <glyph glyph-name="uni0203" unicode="&#x203;" horiz-adv-x="595" 
d="M299 678q-49 0 -84 -28t-35 -67q0 -8 2 -15l4 -14h18q3 28 30 46.5t65 18.5q37 0 64 -18.5t30 -46.5h18q6 13 6 29q0 39 -34.5 67t-83.5 28zM276 -8q-73 0 -127.5 34.5t-84.5 93.5t-30 130q0 72 30 130.5t84.5 93t127.5 34.5q62 0 106.5 -24t72.5 -65v81h75v-500h-75v80
q-28 -40 -72.5 -64t-106.5 -24zM286 60q56 0 94.5 26t58.5 69.5t20 94.5q0 52 -20 95t-58.5 69t-94.5 26q-55 0 -95 -26t-61 -69t-21 -95q0 -51 21 -94.5t61 -69.5t95 -26z" />
    <glyph glyph-name="uni0204" unicode="&#x204;" horiz-adv-x="608" 
d="M227 715l-107 105h107l61 -105h-61zM383 715l-107 105h107l61 -105h-61zM81 0v662h487v-72h-412v-222h368v-73h-368v-223h412v-72h-487z" />
    <glyph glyph-name="uni0205" unicode="&#x205;" horiz-adv-x="557" 
d="M174 570l-107 105h107l61 -105h-61zM330 570l-107 105h107l61 -105h-61zM287 -8q-76 0 -133 34.5t-88.5 93.5t-31.5 130q0 72 30 130.5t86 93t132 34.5q77 0 132.5 -34.5t85.5 -93t30 -130.5v-30h-419q6 -44 28.5 -80.5t60.5 -58t88 -21.5q53 0 89 23.5t56 60.5h82
q-26 -67 -82.5 -109.5t-145.5 -42.5zM112 290h340q-10 64 -54 107t-116 43t-115.5 -43t-54.5 -107z" />
    <glyph glyph-name="uni0206" unicode="&#x206;" horiz-adv-x="608" 
d="M335 831q-49 0 -84 -28t-35 -67q0 -8 2 -15l4 -14h18q3 28 30 46.5t65 18.5q37 0 64 -18.5t30 -46.5h18q6 13 6 29q0 39 -34.5 67t-83.5 28zM81 0v662h487v-72h-412v-222h368v-73h-368v-223h412v-72h-487z" />
    <glyph glyph-name="uni0207" unicode="&#x207;" horiz-adv-x="557" 
d="M280 678q-49 0 -84 -28t-35 -67q0 -8 2 -15l4 -14h18q3 28 30 46.5t65 18.5q37 0 64 -18.5t30 -46.5h18q6 13 6 29q0 39 -34.5 67t-83.5 28zM287 -8q-76 0 -133 34.5t-88.5 93.5t-31.5 130q0 72 30 130.5t86 93t132 34.5q77 0 132.5 -34.5t85.5 -93t30 -130.5v-30h-419
q6 -44 28.5 -80.5t60.5 -58t88 -21.5q53 0 89 23.5t56 60.5h82q-26 -67 -82.5 -109.5t-145.5 -42.5zM112 290h340q-10 64 -54 107t-116 43t-115.5 -43t-54.5 -107z" />
    <glyph glyph-name="uni0208" unicode="&#x208;" horiz-adv-x="237" 
d="M12 715l-107 105h107l61 -105h-61zM168 715l-107 105h107l61 -105h-61zM81 0v662h75v-662h-75z" />
    <glyph glyph-name="uni0209" unicode="&#x209;" horiz-adv-x="205" 
d="M-2 570l-107 105h107l61 -105h-61zM154 570l-107 105h107l61 -105h-61zM65 0v500h75v-500h-75z" />
    <glyph glyph-name="uni020A" unicode="&#x20a;" horiz-adv-x="237" 
d="M120 831q-49 0 -84 -28t-35 -67q0 -8 2 -15l4 -14h18q3 28 30 46.5t65 18.5q37 0 64 -18.5t30 -46.5h18q6 13 6 29q0 39 -34.5 67t-83.5 28zM81 0v662h75v-662h-75z" />
    <glyph glyph-name="uni020B" unicode="&#x20b;" horiz-adv-x="205" 
d="M103 678q-49 0 -84 -28t-35 -67q0 -8 2 -15l4 -14h18q3 28 30 46.5t65 18.5q37 0 64 -18.5t30 -46.5h18q6 13 6 29q0 39 -34.5 67t-83.5 28zM65 0v500h75v-500h-75z" />
    <glyph glyph-name="uni020C" unicode="&#x20c;" horiz-adv-x="750" 
d="M268 715l-107 105h107l61 -105h-61zM424 715l-107 105h107l61 -105h-61zM375 -8q-75 0 -137 26t-106.5 73t-68.5 108.5t-24 131.5q0 71 24 132t68.5 108t106.5 73t137 26t137 -26t106.5 -73t68.5 -108t24 -132q0 -70 -24 -131.5t-68.5 -108.5t-106.5 -73t-137 -26z
M375 65q81 0 139.5 35.5t90 96t31.5 134.5q0 75 -31.5 135t-90 95.5t-139.5 35.5q-80 0 -139 -35.5t-90.5 -95.5t-31.5 -135q0 -74 31.5 -134.5t90.5 -96t139 -35.5z" />
    <glyph glyph-name="uni020D" unicode="&#x20d;" horiz-adv-x="564" 
d="M177 570l-107 105h107l61 -105h-61zM333 570l-107 105h107l61 -105h-61zM282 -8q-76 0 -132 34.5t-86 93.5t-30 130q0 72 30 130.5t86 93t132 34.5q77 0 132.5 -34.5t85.5 -93t30 -130.5q0 -71 -30 -130t-85.5 -93.5t-132.5 -34.5zM282 60q56 0 94.5 26t58.5 69.5
t20 94.5q0 52 -20 95t-58.5 69t-94.5 26q-55 0 -94 -26t-59 -69t-20 -95q0 -51 20 -94.5t59 -69.5t94 -26z" />
    <glyph glyph-name="uni020E" unicode="&#x20e;" horiz-adv-x="750" 
d="M376 831q-49 0 -84 -28t-35 -67q0 -8 2 -15l4 -14h18q3 28 30 46.5t65 18.5q37 0 64 -18.5t30 -46.5h18q6 13 6 29q0 39 -34.5 67t-83.5 28zM375 -8q-75 0 -137 26t-106.5 73t-68.5 108.5t-24 131.5q0 71 24 132t68.5 108t106.5 73t137 26t137 -26t106.5 -73t68.5 -108
t24 -132q0 -70 -24 -131.5t-68.5 -108.5t-106.5 -73t-137 -26zM375 65q81 0 139.5 35.5t90 96t31.5 134.5q0 75 -31.5 135t-90 95.5t-139.5 35.5q-80 0 -139 -35.5t-90.5 -95.5t-31.5 -135q0 -74 31.5 -134.5t90.5 -96t139 -35.5z" />
    <glyph glyph-name="uni020F" unicode="&#x20f;" horiz-adv-x="564" 
d="M283 678q-49 0 -84 -28t-35 -67q0 -8 2 -15l4 -14h18q3 28 30 46.5t65 18.5q37 0 64 -18.5t30 -46.5h18q6 13 6 29q0 39 -34.5 67t-83.5 28zM282 -8q-76 0 -132 34.5t-86 93.5t-30 130q0 72 30 130.5t86 93t132 34.5q77 0 132.5 -34.5t85.5 -93t30 -130.5q0 -71 -30 -130
t-85.5 -93.5t-132.5 -34.5zM282 60q56 0 94.5 26t58.5 69.5t20 94.5q0 52 -20 95t-58.5 69t-94.5 26q-55 0 -94 -26t-59 -69t-20 -95q0 -51 20 -94.5t59 -69.5t94 -26z" />
    <glyph glyph-name="uni0210" unicode="&#x210;" horiz-adv-x="669" 
d="M228 715l-107 105h107l61 -105h-61zM384 715l-107 105h107l61 -105h-61zM81 0v662h317q102 0 162.5 -56t60.5 -151q0 -64 -24.5 -102t-61.5 -57.5t-74 -28.5l174 -267h-89l-160 254h-230v-254h-75zM156 325h229q36 0 73 11t62.5 39.5t25.5 79.5q0 63 -43 99.5t-114 36.5
h-233v-266z" />
    <glyph glyph-name="uni0211" unicode="&#x211;" horiz-adv-x="345" 
d="M68 570l-107 105h107l61 -105h-61zM224 570l-107 105h107l61 -105h-61zM65 0v500h75v-123q4 13 15.5 34.5t33.5 43.5t55.5 37.5t79.5 15.5h5v-75h-9q-56 0 -96.5 -30.5t-62 -79t-21.5 -103.5v-220h-75z" />
    <glyph glyph-name="uni0212" unicode="&#x212;" horiz-adv-x="669" 
d="M336 831q-49 0 -84 -28t-35 -67q0 -8 2 -15l4 -14h18q3 28 30 46.5t65 18.5q37 0 64 -18.5t30 -46.5h18q6 13 6 29q0 39 -34.5 67t-83.5 28zM81 0v662h317q102 0 162.5 -56t60.5 -151q0 -64 -24.5 -102t-61.5 -57.5t-74 -28.5l174 -267h-89l-160 254h-230v-254h-75z
M156 325h229q36 0 73 11t62.5 39.5t25.5 79.5q0 63 -43 99.5t-114 36.5h-233v-266z" />
    <glyph glyph-name="uni0213" unicode="&#x213;" horiz-adv-x="345" 
d="M174 678q-49 0 -84 -28t-35 -67q0 -8 2 -15l4 -14h18q3 28 30 46.5t65 18.5q37 0 64 -18.5t30 -46.5h18q6 13 6 29q0 39 -34.5 67t-83.5 28zM65 0v500h75v-123q4 13 15.5 34.5t33.5 43.5t55.5 37.5t79.5 15.5h5v-75h-9q-56 0 -96.5 -30.5t-62 -79t-21.5 -103.5v-220h-75z
" />
    <glyph glyph-name="uni0214" unicode="&#x214;" horiz-adv-x="709" 
d="M248 715l-107 105h107l61 -105h-61zM404 715l-107 105h107l61 -105h-61zM354 -8q-82 0 -145.5 36.5t-99.5 102.5t-36 154v377h75v-379q0 -77 29.5 -125t77 -70.5t99.5 -22.5q53 0 100 22.5t77 70.5t30 125v379h75v-377q0 -87 -36 -153t-99.5 -103t-146.5 -37z" />
    <glyph glyph-name="uni0215" unicode="&#x215;" horiz-adv-x="566" 
d="M178 570l-107 105h107l61 -105h-61zM334 570l-107 105h107l61 -105h-61zM260 -8q-51 0 -97 24.5t-74.5 73t-28.5 119.5v291h75v-289q0 -68 39.5 -109.5t100.5 -41.5q42 0 76 19.5t54.5 53.5t20.5 79v288h75v-500h-75v78q-27 -36 -66 -61t-100 -25z" />
    <glyph glyph-name="uni0216" unicode="&#x216;" horiz-adv-x="709" 
d="M356 831q-49 0 -84 -28t-35 -67q0 -8 2 -15l4 -14h18q3 28 30 46.5t65 18.5q37 0 64 -18.5t30 -46.5h18q6 13 6 29q0 39 -34.5 67t-83.5 28zM354 -8q-82 0 -145.5 36.5t-99.5 102.5t-36 154v377h75v-379q0 -77 29.5 -125t77 -70.5t99.5 -22.5q53 0 100 22.5t77 70.5
t30 125v379h75v-377q0 -87 -36 -153t-99.5 -103t-146.5 -37z" />
    <glyph glyph-name="uni0217" unicode="&#x217;" horiz-adv-x="566" 
d="M284 678q-49 0 -84 -28t-35 -67q0 -8 2 -15l4 -14h18q3 28 30 46.5t65 18.5q37 0 64 -18.5t30 -46.5h18q6 13 6 29q0 39 -34.5 67t-83.5 28zM260 -8q-51 0 -97 24.5t-74.5 73t-28.5 119.5v291h75v-289q0 -68 39.5 -109.5t100.5 -41.5q42 0 76 19.5t54.5 53.5t20.5 79v288
h75v-500h-75v78q-27 -36 -66 -61t-100 -25z" />
    <glyph glyph-name="uni0218" unicode="&#x218;" horiz-adv-x="615" 
d="M250 -198l44 150h73l-66 -150h-51zM318 -8q-98 0 -159 26.5t-91.5 73.5t-35.5 106h78q3 -48 32 -77.5t76.5 -43.5t104.5 -14q84 0 133 29.5t49 87.5q0 35 -24.5 56.5t-65 35.5t-88.5 25.5t-96.5 24.5t-89 33t-65 51.5t-24.5 80.5q0 81 62.5 132t186.5 51q88 0 145 -26.5
t85.5 -69.5t31.5 -93h-77q-6 50 -50 84.5t-135 34.5q-56 0 -91 -11t-53.5 -28.5t-25 -36.5t-6.5 -36q0 -33 24.5 -53.5t65 -34t89.5 -24.5t97.5 -24.5t89 -34t65 -52.5t24.5 -82q0 -92 -70 -141.5t-192 -49.5z" />
    <glyph glyph-name="uni0219" unicode="&#x219;" horiz-adv-x="482" 
d="M160 -198l44 150h73l-66 -150h-51zM247 -8q-69 0 -116.5 23t-72.5 60.5t-28 81.5h78q3 -25 17.5 -48.5t44.5 -38t78 -14.5q15 0 37 3t42.5 11t34.5 24t14 41q0 31 -24 48t-62 26.5t-80.5 18.5t-80.5 23.5t-62 41t-24 72.5q0 68 49.5 105.5t146.5 37.5q66 0 107.5 -20.5
t63 -52.5t25.5 -69h-76q-4 32 -31.5 55t-90.5 23q-119 0 -119 -72q0 -30 24 -46t62 -25.5t80.5 -18t80.5 -23.5t62 -42.5t24 -74.5q0 -73 -55.5 -111.5t-148.5 -38.5z" />
    <glyph glyph-name="uni021A" unicode="&#x21a;" horiz-adv-x="565" 
d="M198 -198l44 150h73l-66 -150h-51zM245 0v591h-231v71h537v-71h-231v-591h-75z" />
    <glyph glyph-name="uni021B" unicode="&#x21b;" horiz-adv-x="326" 
d="M75 -198l44 150h73l-66 -150h-51zM119 0v434h-102v66h102v179h75v-179h115v-66h-115v-434h-75z" />
    <glyph glyph-name="uni021C" unicode="&#x21c;" horiz-adv-x="587" 
d="M519 547q0 -69 -44.5 -113.5t-124.5 -56.5v-4q91 -12 137.5 -56t46.5 -115q0 -100 -75.5 -156t-212.5 -56q-128 0 -208 39v82q48 -23 103.5 -35t103.5 -12q97 0 146 35.5t49 102.5q0 64 -55 97t-165 33h-102v75h97q106 0 158.5 35.5t52.5 95.5q0 52 -39 82t-105 30
q-56 0 -100.5 -13t-97.5 -48l-43 61q103 74 242 74q110 0 173 -47.5t63 -129.5z" />
    <glyph glyph-name="uni021D" unicode="&#x21d;" horiz-adv-x="498" 
d="M193 228q70 0 111.5 35t41.5 90t-38.5 88t-103.5 33q-30 0 -60.5 -7.5t-72.5 -26.5l-30 70q44 21 83 28.5t85 7.5q103 0 162 -48t59 -133q0 -61 -31.5 -105t-95.5 -65q81 -21 121 -71t40 -123q0 -70 -33 -125.5t-93.5 -85.5t-138.5 -30q-116 0 -189 37v80
q44 -21 95 -32.5t98 -11.5q79 0 126 45t47 121q0 77 -51 118t-151 41h-79v70h98z" />
    <glyph glyph-name="uni021E" unicode="&#x21e;" horiz-adv-x="697" 
d="M306 725l-98 105h82l59 -54l59 54h82l-97 -105h-87zM81 0v662h75v-294h385v294h75v-662h-75v295h-385v-295h-75z" />
    <glyph glyph-name="uni021F" unicode="&#x21f;" horiz-adv-x="566" 
d="M59 763l-98 105h82l59 -54l59 54h82l-97 -105h-87zM65 0v700h75v-278q27 36 66 61t100 25q52 0 97.5 -24.5t74 -73t28.5 -119.5v-291h-75v289q0 68 -39 109.5t-101 41.5q-42 0 -76 -19t-54.5 -53.5t-20.5 -79.5v-288h-75z" />
    <glyph glyph-name="uni0220" unicode="&#x220;" horiz-adv-x="658" 
d="M81 0v661h75v-78q36 45 87.5 66.5t103.5 21.5q59 0 111.5 -23t85.5 -71.5t33 -124.5v-650h-75v648q0 56 -25.5 88t-65.5 46t-84 14q-43 0 -82 -16t-64 -48.5t-25 -81.5v-452h-75z" />
    <glyph glyph-name="uni0221" unicode="&#x221;" horiz-adv-x="615" 
d="M276 -8q-73 0 -127.5 34.5t-84.5 93.5t-30 130q0 72 30 130.5t84.5 93t127.5 34.5q62 0 106.5 -24t72.5 -65v281h75v-762q0 -16 4 -34t20.5 -30.5t51.5 -12.5q11 0 24 3v-68q-8 -1 -15 -1.5t-15 -0.5q-62 0 -93.5 22.5t-41.5 56t-10 65.5v142q-28 -40 -72.5 -64
t-106.5 -24zM286 60q56 0 94.5 26t58.5 69.5t20 94.5q0 52 -20 95t-58.5 69t-94.5 26q-55 0 -95 -26t-61 -69t-21 -95q0 -51 21 -94.5t61 -69.5t95 -26z" />
    <glyph glyph-name="uni0222" unicode="&#x222;" horiz-adv-x="750" 
d="M561 354q74 -25 112 -69t38 -98q0 -52 -38 -96.5t-112.5 -71.5t-185.5 -27q-110 0 -185 27t-113 71.5t-38 96.5q0 54 38 98t111 69q-44 22 -69.5 54.5t-25.5 72.5v181h75v-181q0 -34 30 -56.5t77.5 -33.5t99.5 -11q53 0 100 11t76.5 33.5t29.5 56.5v181h75v-181
q0 -40 -25 -72.5t-70 -54.5zM375 62q81 0 139.5 17t90 45.5t31.5 62.5q0 36 -31.5 65.5t-90 47t-139.5 17.5q-80 0 -139 -17.5t-90.5 -47t-31.5 -65.5q0 -34 31.5 -62.5t90.5 -45.5t139 -17z" />
    <glyph glyph-name="uni0223" unicode="&#x223;" horiz-adv-x="564" 
d="M407 352q59 -23 91 -67.5t32 -101.5q0 -53 -30.5 -96.5t-86.5 -69t-131 -25.5q-76 0 -132 25.5t-86 69t-30 96.5q0 55 32.5 100t91.5 69q-38 20 -62 53t-24 79v216h75v-214q0 -47 37.5 -79t97.5 -32t97.5 32t37.5 79v214h75v-216q0 -46 -23.5 -79t-61.5 -53zM282 62
q83 0 128 36t45 85q0 50 -45 85.5t-128 35.5t-128 -35.5t-45 -85.5q0 -49 45 -85t128 -36z" />
    <glyph glyph-name="uni0224" unicode="&#x224;" horiz-adv-x="571" 
d="M416 -198q-29 0 -60 12v73q22 -9 50 -9q48 0 48 52v150h79v-145q0 -133 -117 -133zM29 0v71l432 521h-426v70h518v-72l-432 -520h432v-70h-524z" />
    <glyph glyph-name="uni0225" unicode="&#x225;" horiz-adv-x="470" 
d="M431 -65q0 -133 -117 -133q-29 0 -60 12v73q22 -9 50 -9q48 0 48 52v70h-313v58l288 410h-271v68h368v-66l-284 -402h291v-133z" />
    <glyph glyph-name="uni0226" unicode="&#x226;" horiz-adv-x="662" 
d="M287 732v83h89v-83h-89zM3 0l281 662h94l281 -662h-83l-81 192h-328l-81 -192h-83zM196 261h270l-135 323z" />
    <glyph glyph-name="uni0227" unicode="&#x227;" horiz-adv-x="595" 
d="M254 580v83h89v-83h-89zM276 -8q-73 0 -127.5 34.5t-84.5 93.5t-30 130q0 72 30 130.5t84.5 93t127.5 34.5q62 0 106.5 -24t72.5 -65v81h75v-500h-75v80q-28 -40 -72.5 -64t-106.5 -24zM286 60q56 0 94.5 26t58.5 69.5t20 94.5q0 52 -20 95t-58.5 69t-94.5 26
q-55 0 -95 -26t-61 -69t-21 -95q0 -51 21 -94.5t61 -69.5t95 -26z" />
    <glyph glyph-name="uni0228" unicode="&#x228;" horiz-adv-x="608" 
d="M568 590h-412v-222h368v-73h-368v-223h412v-72h-204l-29 -51q12 2 22 2q38 0 65 -20.5t27 -56.5q0 -42 -34 -61.5t-80 -19.5q-38 0 -68.5 12.5t-49.5 28.5l19 33q16 -11 37 -20.5t48 -9.5q23 0 39 8t16 28q0 15 -16 24t-37 9q-18 0 -35 -5l-21 17l52 82h-238v662h487v-72
z" />
    <glyph glyph-name="uni0229" unicode="&#x229;" horiz-adv-x="557" 
d="M530 250v-30h-419q6 -44 28.5 -80.5t60.5 -58t88 -21.5q53 0 89 23.5t56 60.5h82q-25 -64 -76.5 -105t-132.5 -46l-24 -43q12 2 22 2q38 0 65 -20.5t27 -56.5q0 -42 -34 -61.5t-80 -19.5q-38 0 -68.5 12.5t-49.5 28.5l19 33q16 -11 37 -20.5t48 -9.5q23 0 39 8t16 28
q0 15 -16 24t-37 9q-18 0 -35 -5l-21 17l47 74q-69 6 -120 41.5t-79 92t-28 123.5q0 72 30 130.5t86 93t132 34.5q77 0 132.5 -34.5t85.5 -93t30 -130.5zM112 290h340q-10 64 -54 107t-116 43t-115.5 -43t-54.5 -107z" />
    <glyph glyph-name="uni022A" unicode="&#x22a;" horiz-adv-x="750" 
d="M243 858v60h264v-60h-264zM252 730v83h89v-83h-89zM409 730v83h89v-83h-89zM375 -8q-75 0 -137 26t-106.5 73t-68.5 108.5t-24 131.5q0 71 24 132t68.5 108t106.5 73t137 26t137 -26t106.5 -73t68.5 -108t24 -132q0 -70 -24 -131.5t-68.5 -108.5t-106.5 -73t-137 -26z
M375 65q81 0 139.5 35.5t90 96t31.5 134.5q0 75 -31.5 135t-90 95.5t-139.5 35.5q-80 0 -139 -35.5t-90.5 -95.5t-31.5 -135q0 -74 31.5 -134.5t90.5 -96t139 -35.5z" />
    <glyph glyph-name="uni022B" unicode="&#x22b;" horiz-adv-x="564" 
d="M160 579v83h89v-83h-89zM317 579v83h89v-83h-89zM153 712v60h264v-60h-264zM282 -8q-76 0 -132 34.5t-86 93.5t-30 130q0 72 30 130.5t86 93t132 34.5q77 0 132.5 -34.5t85.5 -93t30 -130.5q0 -71 -30 -130t-85.5 -93.5t-132.5 -34.5zM282 60q56 0 94.5 26t58.5 69.5
t20 94.5q0 52 -20 95t-58.5 69t-94.5 26q-55 0 -94 -26t-59 -69t-20 -95q0 -51 20 -94.5t59 -69.5t94 -26z" />
    <glyph glyph-name="uni022C" unicode="&#x22c;" horiz-adv-x="750" 
d="M445 723q-33 0 -54.5 10t-40 20t-41.5 10t-34 -13t-16 -26h-31q5 37 26.5 67.5t70.5 30.5q32 0 53.5 -10t40 -20.5t41.5 -10.5q22 0 33.5 13.5t15.5 26.5h32q-5 -37 -26.5 -67.5t-69.5 -30.5zM253 858v60h264v-60h-264zM375 -8q-75 0 -137 26t-106.5 73t-68.5 108.5
t-24 131.5q0 71 24 132t68.5 108t106.5 73t137 26t137 -26t106.5 -73t68.5 -108t24 -132q0 -70 -24 -131.5t-68.5 -108.5t-106.5 -73t-137 -26zM375 65q81 0 139.5 35.5t90 96t31.5 134.5q0 75 -31.5 135t-90 95.5t-139.5 35.5q-80 0 -139 -35.5t-90.5 -95.5t-31.5 -135
q0 -74 31.5 -134.5t90.5 -96t139 -35.5z" />
    <glyph glyph-name="uni022D" unicode="&#x22d;" horiz-adv-x="564" 
d="M151 727v60h264v-60h-264zM343 569q-33 0 -54.5 10t-40 20t-41.5 10t-34 -13t-16 -26h-31q5 37 26.5 67.5t70.5 30.5q32 0 53.5 -10t40 -20.5t41.5 -10.5q22 0 33.5 13.5t15.5 26.5h32q-5 -37 -26.5 -67.5t-69.5 -30.5zM282 -8q-76 0 -132 34.5t-86 93.5t-30 130
q0 72 30 130.5t86 93t132 34.5q77 0 132.5 -34.5t85.5 -93t30 -130.5q0 -71 -30 -130t-85.5 -93.5t-132.5 -34.5zM282 60q56 0 94.5 26t58.5 69.5t20 94.5q0 52 -20 95t-58.5 69t-94.5 26q-55 0 -94 -26t-59 -69t-20 -95q0 -51 20 -94.5t59 -69.5t94 -26z" />
    <glyph glyph-name="uni022E" unicode="&#x22e;" horiz-adv-x="750" 
d="M331 732v83h89v-83h-89zM375 -8q-75 0 -137 26t-106.5 73t-68.5 108.5t-24 131.5q0 71 24 132t68.5 108t106.5 73t137 26t137 -26t106.5 -73t68.5 -108t24 -132q0 -70 -24 -131.5t-68.5 -108.5t-106.5 -73t-137 -26zM375 65q81 0 139.5 35.5t90 96t31.5 134.5
q0 75 -31.5 135t-90 95.5t-139.5 35.5q-80 0 -139 -35.5t-90.5 -95.5t-31.5 -135q0 -74 31.5 -134.5t90.5 -96t139 -35.5z" />
    <glyph glyph-name="uni022F" unicode="&#x22f;" horiz-adv-x="564" 
d="M238 580v83h89v-83h-89zM282 -8q-76 0 -132 34.5t-86 93.5t-30 130q0 72 30 130.5t86 93t132 34.5q77 0 132.5 -34.5t85.5 -93t30 -130.5q0 -71 -30 -130t-85.5 -93.5t-132.5 -34.5zM282 60q56 0 94.5 26t58.5 69.5t20 94.5q0 52 -20 95t-58.5 69t-94.5 26q-55 0 -94 -26
t-59 -69t-20 -95q0 -51 20 -94.5t59 -69.5t94 -26z" />
    <glyph glyph-name="uni0230" unicode="&#x230;" horiz-adv-x="750" 
d="M244 848v60h264v-60h-264zM331 732v83h89v-83h-89zM375 -8q-75 0 -137 26t-106.5 73t-68.5 108.5t-24 131.5q0 71 24 132t68.5 108t106.5 73t137 26t137 -26t106.5 -73t68.5 -108t24 -132q0 -70 -24 -131.5t-68.5 -108.5t-106.5 -73t-137 -26zM375 65q81 0 139.5 35.5
t90 96t31.5 134.5q0 75 -31.5 135t-90 95.5t-139.5 35.5q-80 0 -139 -35.5t-90.5 -95.5t-31.5 -135q0 -74 31.5 -134.5t90.5 -96t139 -35.5z" />
    <glyph glyph-name="uni0231" unicode="&#x231;" horiz-adv-x="564" 
d="M238 580v83h89v-83h-89zM151 712v60h264v-60h-264zM282 -8q-76 0 -132 34.5t-86 93.5t-30 130q0 72 30 130.5t86 93t132 34.5q77 0 132.5 -34.5t85.5 -93t30 -130.5q0 -71 -30 -130t-85.5 -93.5t-132.5 -34.5zM282 60q56 0 94.5 26t58.5 69.5t20 94.5q0 52 -20 95
t-58.5 69t-94.5 26q-55 0 -94 -26t-59 -69t-20 -95q0 -51 20 -94.5t59 -69.5t94 -26z" />
    <glyph glyph-name="uni0232" unicode="&#x232;" horiz-adv-x="636" 
d="M187 736v60h264v-60h-264zM281 0v262l-278 400h91l224 -322l224 322h91l-277 -400v-262h-75z" />
    <glyph glyph-name="uni0233" unicode="&#x233;" horiz-adv-x="497" 
d="M117 584v60h264v-60h-264zM117 -198l91 205l-204 493h83l161 -410l164 410h82l-296 -698h-81z" />
    <glyph glyph-name="uni0234" unicode="&#x234;" horiz-adv-x="380" 
d="M85 760h88v-542q31 12 68 12q61 0 95.5 -33.5t34.5 -86.5q0 -56 -34.5 -88t-98.5 -32q-46 0 -79 17.5t-51 46.5q-15 -30 -34 -84l-67 30q36 98 78 151v609zM237 58q29 0 41.5 15t12.5 37q0 26 -15.5 39t-41.5 13q-30 0 -61 -24q3 -80 64 -80z" />
    <glyph glyph-name="uni0235" unicode="&#x235;" horiz-adv-x="745" 
d="M537 218q31 12 68 12q61 0 95.5 -33.5t34.5 -86.5q0 -56 -34 -88t-99 -32q-88 0 -129 64q-15 -28 -34 -84l-67 30q36 98 78 151v192q0 65 -29 97t-91 32q-83 0 -120 -45.5t-37 -148.5v-278h-88v536h71l13 -73h5q25 40 70 61.5t99 21.5q99 0 146.5 -48t47.5 -149v-131z
M601 58q25 0 39.5 13t14.5 39t-15 39t-42 13q-30 0 -61 -24q3 -80 64 -80z" />
    <glyph glyph-name="uni0236" unicode="&#x236;" horiz-adv-x="388" 
d="M92 468h-76v42l77 35l35 114h52v-123h155v-68h-155v-250q31 12 68 12q61 0 95.5 -33.5t34.5 -86.5q0 -56 -34 -88t-99 -32q-46 0 -78.5 17.5t-51.5 46.5q-15 -28 -34 -84l-67 30q37 99 78 151v317zM244 58q25 0 39.5 13t14.5 39t-15 39t-42 13q-30 0 -61 -24
q3 -80 64 -80z" />
    <glyph glyph-name="uni0237" unicode="&#x237;" horiz-adv-x="205" 
d="M65 -198v698h75v-698h-75z" />
    <glyph glyph-name="uni0238" unicode="&#x238;" horiz-adv-x="972" 
d="M292 -10q-115 0 -176 71t-61 206q0 131 58 205t163 74q108 0 166 -79h6q-2 13 -4 45t-2 60v188h88v-185q0 -55 -5 -110h5q54 80 166 80q106 0 163.5 -73t57.5 -204q0 -135 -62 -206.5t-177 -71.5q-138 0 -193 125q-56 -125 -193 -125zM679 63q147 0 147 206
q0 102 -35.5 152.5t-109.5 50.5q-81 0 -116 -46t-35 -155q0 -208 149 -208zM295 63q71 0 109.5 55t38.5 153q0 110 -37 156t-118 46q-68 0 -105 -54t-37 -154t38 -151t111 -51z" />
    <glyph glyph-name="uni0239" unicode="&#x239;" horiz-adv-x="972" 
d="M680 546q115 0 176 -71t61 -206q0 -131 -58 -205t-163 -74q-108 0 -166 79h-6l2 -17q4 -37 4 -88v-204h-88v201q0 55 5 110h-5q-52 -80 -166 -80q-105 0 -163 73t-58 204q0 135 62 206.5t177 71.5q137 0 193 -125q28 64 78.5 94.5t114.5 30.5zM293 473q-147 0 -147 -206
q0 -102 35.5 -152.5t109.5 -50.5q81 0 116 46t35 155q0 208 -149 208zM677 473q-70 0 -109 -54.5t-39 -153.5q0 -109 36.5 -155.5t118.5 -46.5q68 0 105 54t37 154t-37.5 151t-111.5 51z" />
    <glyph glyph-name="uni023A" unicode="&#x23a;" horiz-adv-x="662" 
d="M3 0l281 662h94l33 -77l59 140h70l-95 -222l214 -503h-83l-81 192h-182l-114 -267h-70l114 267h-76l-81 -192h-83zM196 261h76l98 230l-39 93zM466 261l-61 147l-63 -147h124z" />
    <glyph glyph-name="uni023B" unicode="&#x23b;" horiz-adv-x="690" 
d="M145 -75l47 110q-73 44 -113 122.5t-40 173.5q0 94 38.5 171t110.5 122.5t171 45.5q52 0 98 -13l29 68h70l-39 -92q51 -27 87 -70.5t55 -98.5h-79q-29 70 -91 104l-209 -491q39 -12 85 -12q82 0 136 36t79 97h79q-21 -60 -63 -106.5t-102 -73t-135 -26.5q-58 0 -108 17
l-36 -84h-70zM114 331q0 -72 27.5 -131.5t80.5 -94.5l207 485q-30 7 -64 7q-80 0 -136.5 -35.5t-85.5 -95.5t-29 -135z" />
    <glyph glyph-name="uni023C" unicode="&#x23c;" horiz-adv-x="544" 
d="M280 -8q-34 0 -65 8l-32 -75h-70l42 99q-57 33 -89 93t-32 133q0 72 30.5 130.5t85.5 93t130 34.5q40 0 76 -10l33 77h70l-44 -103q76 -45 101 -129h-81q-16 40 -47 64l-145 -341q22 -6 47 -6q53 0 90.5 27t54.5 70h81q-22 -73 -84.5 -119t-151.5 -46zM109 250
q0 -48 19.5 -89.5t55.5 -67.5l146 342q-19 5 -40 5q-55 0 -96 -26t-63 -69t-22 -95z" />
    <glyph glyph-name="uni023D" unicode="&#x23d;" horiz-adv-x="533" 
d="M81 0v298h-74v65h74v299h75v-299h199v-65h-199v-226h361v-72h-436z" />
    <glyph glyph-name="uni023E" unicode="&#x23e;" horiz-adv-x="565" 
d="M109 -75l136 319v347h-231v71h409l27 63h70l-27 -63h58v-71h-88l-143 -335v-256h-75v80l-66 -155h-70zM320 591v-171l73 171h-73z" />
    <glyph glyph-name="uni023F" unicode="&#x23f;" horiz-adv-x="479" 
d="M235 -9q18 -26 29 -74q17 -84 105 -84q19 0 41 4.5t31 8.5v-72q-34 -14 -81 -14q-80 0 -121.5 36.5t-56.5 120.5q-13 69 -75 86q-34 9 -55 21v80q88 -43 170 -43q66 0 96.5 21.5t30.5 57.5q0 32 -29 54t-103 50q-76 29 -106.5 50t-45 47t-14.5 63q0 66 53.5 104t147.5 38
q91 0 171 -36l-30 -70q-82 34 -147 34q-55 0 -83 -17.5t-28 -47.5q0 -29 24.5 -48.5t113.5 -53.5q67 -25 99 -46.5t47 -48t15 -64.5q0 -72 -51 -113t-148 -44z" />
    <glyph glyph-name="uni0240" unicode="&#x240;" horiz-adv-x="470" 
d="M140 68q55 -10 87 -46t50 -105q11 -44 39 -64t77 -20q34 0 66 11v-72q-29 -12 -72 -12q-82 0 -126.5 35t-68.5 122q-13 47 -39.5 65t-78.5 18h-35v58l288 410h-271v68h368v-66z" />
    <glyph glyph-name="uni0241" unicode="&#x241;" horiz-adv-x="591" 
d="M301 670q86 0 140 -26.5t79.5 -68t25.5 -86.5q0 -41 -15 -71.5t-38 -53.5t-49.5 -44t-49.5 -43t-38 -49t-15 -65v-163h-73v163q0 52 20.5 88.5t51 64t60.5 52.5t50.5 53.5t20.5 67.5q0 25 -14 51t-49.5 43.5t-100.5 17.5q-61 0 -102.5 -19t-63.5 -50t-26 -66h-75
q4 55 36 101.5t89.5 74.5t135.5 28z" />
    <glyph glyph-name="uni0242" unicode="&#x242;" horiz-adv-x="510" 
d="M260 508q72 0 117.5 -26.5t66.5 -68t21 -86.5q0 -44 -16.5 -73.5t-41 -52t-49.5 -44.5t-41.5 -49t-16.5 -67v-41h-73v41q0 46 17 78t42 56t49.5 45.5t41.5 47t17 59.5q0 25 -11.5 51t-39.5 43.5t-77 17.5t-82.5 -19t-52 -50t-21.5 -66h-71q3 55 30.5 101.5t76 74.5
t114.5 28z" />
    <glyph glyph-name="uni0243" unicode="&#x243;" horiz-adv-x="662" 
d="M81 0v152h-65v65h65v445h297q78 0 123.5 -27t65.5 -67.5t20 -80.5q0 -64 -27 -98.5t-62 -50.5q28 -9 56.5 -28.5t47.5 -52.5t19 -83q0 -74 -56.5 -124t-169.5 -50h-314zM156 366h222q35 0 65.5 12t49.5 37.5t19 65.5q0 28 -12.5 53t-40 41t-73.5 16h-230v-225zM156 71
h247q68 0 105.5 28.5t37.5 80.5q0 47 -36 82.5t-115 35.5h-239v-81h188v-65h-188v-81z" />
    <glyph glyph-name="uni0244" unicode="&#x244;" horiz-adv-x="709" 
d="M354 -8q-82 0 -145.5 36.5t-99.5 102.5t-36 154v13h-66v65h66v299h75v-299h413v299h75v-299h66v-65h-66v-13q0 -87 -36 -153t-99.5 -103t-146.5 -37zM148 283q0 -77 29.5 -125t77 -70.5t99.5 -22.5q53 0 100 22.5t77 70.5t30 125v15h-413v-15z" />
    <glyph glyph-name="uni0245" unicode="&#x245;" horiz-adv-x="628" 
d="M271 662l-268 -662h82l229 577l229 -577h82l-268 662h-86z" />
    <glyph glyph-name="uni0246" unicode="&#x246;" horiz-adv-x="608" 
d="M81 0v662h362l27 63h70l-27 -63h55v-72h-86l-94 -222h136v-73h-167l-95 -223h306v-72h-337l-32 -75h-70l32 75h-80zM156 368h162l94 222h-256v-222zM156 72h36l95 223h-131v-223z" />
    <glyph glyph-name="uni0247" unicode="&#x247;" horiz-adv-x="557" 
d="M287 -8q-38 0 -72 9l-32 -76h-70l43 101q-58 33 -90 92.5t-32 131.5t30 130.5t86 93t132 34.5q39 0 74 -10l33 77h70l-44 -103q55 -33 85 -92t30 -130v-30h-222l-65 -155q21 -5 45 -5q53 0 89 23.5t56 60.5h82q-26 -67 -82.5 -109.5t-145.5 -42.5zM112 290h156l61 144
q-22 6 -47 6q-72 0 -115.5 -43t-54.5 -107zM452 290q-6 36 -22.5 66t-42.5 50l-49 -116h114zM111 220q5 -40 23.5 -73t49.5 -55l54 128h-127z" />
    <glyph glyph-name="uni0248" unicode="&#x248;" horiz-adv-x="527" 
d="M236 -8q-71 0 -118.5 27.5t-72.5 70t-30 87.5h78q4 -26 21 -52t48 -43t78 -17q45 0 72.5 14.5t41 38.5t18.5 51.5t5 52.5v77h-167v65h167v298h75v-298h106v-65h-106v-80q0 -58 -20.5 -110t-68 -84.5t-127.5 -32.5z" />
    <glyph glyph-name="uni0249" unicode="&#x249;" horiz-adv-x="205" 
d="M62 584v98h81v-98h-81zM65 -198v416h-65v65h65v217h75v-217h65v-65h-65v-416h-75z" />
    <glyph glyph-name="uni024A" unicode="&#x24a;" horiz-adv-x="752" 
d="M671 8q0 -76 25 -110.5t77 -34.5v-69q-76 0 -126.5 47.5t-50.5 137.5v125q-41 -52 -102.5 -82t-138.5 -30q-71 0 -129 26t-100 73t-64.5 108.5t-22.5 131.5q0 71 22.5 132t64.5 108t100 73t129 26q77 0 138 -30.5t103 -82.5v105h75v-654zM355 65q75 0 129 35t83 95.5
t29 135.5t-29 135t-83 95.5t-129 35.5q-74 0 -128.5 -35.5t-83.5 -95.5t-29 -135q0 -74 29 -134.5t83.5 -96t128.5 -35.5z" />
    <glyph glyph-name="uni024B" unicode="&#x24b;" horiz-adv-x="595" 
d="M276 -8q-73 0 -127.5 34.5t-84.5 93.5t-30 130q0 72 30 130.5t84.5 93t127.5 34.5q62 0 106.5 -24t72.5 -65v81h75v-562q0 -16 4 -34t20 -30.5t52 -12.5q11 0 24 3v-68q-8 -1 -15 -1.5t-15 -0.5q-62 0 -93.5 22.5t-41.5 56t-10 65.5v142q-28 -40 -72.5 -64t-106.5 -24z
M286 60q56 0 94.5 26t58.5 69.5t20 94.5q0 52 -20 95t-58.5 69t-94.5 26q-55 0 -95 -26t-61 -69t-21 -95q0 -51 21 -94.5t61 -69.5t95 -26z" />
    <glyph glyph-name="uni024C" unicode="&#x24c;" horiz-adv-x="669" 
d="M81 0v254h-106v71h106v337h317q102 0 162.5 -56t60.5 -151q0 -64 -24.5 -102t-61.5 -57.5t-74 -28.5l174 -267h-89l-160 254h-230v-254h-75zM156 325h229q36 0 73 11t62.5 39.5t25.5 79.5q0 63 -43 99.5t-114 36.5h-233v-266z" />
    <glyph glyph-name="uni024D" unicode="&#x24d;" horiz-adv-x="345" 
d="M65 0v218h-65v65h65v217h75v-123q4 13 15.5 34.5t33.5 43.5t55.5 37.5t79.5 15.5h5v-75h-9q-68 0 -112.5 -43.5t-59.5 -106.5h97v-65h-105v-218h-75z" />
    <glyph glyph-name="uni024E" unicode="&#x24e;" horiz-adv-x="636" 
d="M281 0v262l-149 215h-132v65h86l-83 120h91l83 -120h282l83 120h91l-83 -120h86v-65h-131l-149 -215v-262h-75zM318 340l95 137h-190z" />
    <glyph glyph-name="uni024F" unicode="&#x24f;" horiz-adv-x="497" 
d="M117 -198l91 205l-87 211h-108v65h81l-90 217h83l85 -217h153l87 217h82l-92 -217h92v-65h-120l-176 -416h-81zM248 90l51 128h-101z" />
    <glyph glyph-name="uni2000" unicode="&#x2000;" horiz-adv-x="500" 
 />
    <glyph glyph-name="uni2001" unicode="&#x2001;" horiz-adv-x="1000" 
 />
    <glyph glyph-name="uni2002" unicode="&#x2002;" horiz-adv-x="500" 
 />
    <glyph glyph-name="uni2003" unicode="&#x2003;" horiz-adv-x="1000" 
 />
    <glyph glyph-name="uni2004" unicode="&#x2004;" horiz-adv-x="333" 
 />
    <glyph glyph-name="uni2005" unicode="&#x2005;" horiz-adv-x="250" 
 />
    <glyph glyph-name="uni2006" unicode="&#x2006;" horiz-adv-x="166" 
 />
    <glyph glyph-name="uni2007" unicode="&#x2007;" horiz-adv-x="550" 
 />
    <glyph glyph-name="uni2008" unicode="&#x2008;" horiz-adv-x="203" 
 />
    <glyph glyph-name="uni2009" unicode="&#x2009;" horiz-adv-x="200" 
 />
    <glyph glyph-name="uni200A" unicode="&#x200a;" horiz-adv-x="143" 
 />
    <glyph glyph-name="uni200B" unicode="&#x200b;" horiz-adv-x="0" 
 />
    <glyph glyph-name="uni200C" unicode="&#x200c;" horiz-adv-x="0" 
d="M-26 -166v954h52v-954h-52z" />
    <glyph glyph-name="uni200D" unicode="&#x200d;" horiz-adv-x="0" 
d="M36 646l110 -107l-37 -36l-83 82v-750h-52v750l-83 -82l-37 36l110 107l-110 106l37 36l109 -108l109 108l37 -37z" />
    <glyph glyph-name="uni200E" unicode="&#x200e;" horiz-adv-x="0" 
d="M212 583l-108 -107l-27 26l64 61h-121v-696h-40v735h161l-64 61l27 27z" />
    <glyph glyph-name="uni200F" unicode="&#x200f;" horiz-adv-x="0" 
d="M20 -133h-41v696h-121l65 -61l-27 -26l-109 107l109 107l27 -27l-65 -61h162v-735z" />
    <glyph glyph-name="uni2010" unicode="&#x2010;" horiz-adv-x="356" 
d="M55 259v73h250v-73h-250z" />
    <glyph glyph-name="figuredash" unicode="&#x2012;" horiz-adv-x="720" 
d="M55 262v67h610v-67h-610z" />
    <glyph glyph-name="endash" unicode="&#x2013;" horiz-adv-x="610" 
d="M55 262v67h500v-67h-500z" />
    <glyph glyph-name="emdash" unicode="&#x2014;" horiz-adv-x="1110" 
d="M55 262v67h1000v-67h-1000z" />
    <glyph glyph-name="uni2015" unicode="&#x2015;" horiz-adv-x="1110" 
d="M55 262v67h1000v-67h-1000z" />
    <glyph glyph-name="uni2016" unicode="&#x2016;" horiz-adv-x="550" 
d="M349 760h73v-1001h-73v1001zM130 760h73v-1001h-73v1001z" />
    <glyph glyph-name="underscoredbl" unicode="&#x2017;" horiz-adv-x="411" 
d="M413 -222h-415v64h415v-64zM413 -90h-415v64h415v-64z" />
    <glyph glyph-name="quoteleft" unicode="&#x2018;" horiz-adv-x="218" 
d="M36 475l88 213h68l-58 -213h-98z" />
    <glyph glyph-name="quoteright" unicode="&#x2019;" horiz-adv-x="211" 
d="M196 688l-88 -213h-68l58 213h98z" />
    <glyph glyph-name="quotesinglbase" unicode="&#x201a;" horiz-adv-x="220" 
d="M11 -111l58 213h98l-88 -213h-68z" />
    <glyph glyph-name="quotereversed" unicode="&#x201b;" horiz-adv-x="174" 
d="M114 714q18 -123 50 -245h-65q-22 46 -48.5 115.5t-38.5 118.5l7 11h95z" />
    <glyph glyph-name="quotedblleft" unicode="&#x201c;" horiz-adv-x="369" 
d="M187 475l88 213h68l-58 -213h-98zM36 477l88 213h68l-58 -213h-98z" />
    <glyph glyph-name="quotedblright" unicode="&#x201d;" horiz-adv-x="361" 
d="M346 688l-88 -213h-68l58 213h98zM196 688l-88 -213h-68l58 213h98z" />
    <glyph glyph-name="quotedblbase" unicode="&#x201e;" horiz-adv-x="370" 
d="M161 -111l58 213h98l-88 -213h-68zM11 -111l58 213h98l-88 -213h-68z" />
    <glyph glyph-name="uni201F" unicode="&#x201f;" horiz-adv-x="358" 
d="M297 714q18 -115 50 -245h-65q-22 46 -48 113.5t-39 120.5l7 11h95zM112 714q18 -115 50 -245h-64q-26 56 -51 123.5t-35 110.5l6 11h94z" />
    <glyph glyph-name="dagger" unicode="&#x2020;" horiz-adv-x="435" 
d="M187 -131v570h-149v61h149v162h61v-162h149v-61h-149v-570h-61z" />
    <glyph glyph-name="daggerdbl" unicode="&#x2021;" horiz-adv-x="435" 
d="M187 -131v162h-149v61h149v347h-149v61h149v162h61v-162h149v-61h-149v-347h149v-61h-149v-162h-61z" />
    <glyph glyph-name="bullet" unicode="&#x2022;" horiz-adv-x="340" 
d="M170 186q-37 0 -67.5 18t-48.5 48.5t-18 67.5t18 67.5t48.5 48.5t67.5 18t67.5 -18t48.5 -48.5t18 -67.5t-18 -67.5t-48.5 -48.5t-67.5 -18z" />
    <glyph glyph-name="ellipsis" unicode="&#x2026;" horiz-adv-x="787" 
d="M53 0v102h97v-102h-97zM345 0v102h97v-102h-97zM637 0v102h97v-102h-97z" />
    <glyph glyph-name="uni202A" unicode="&#x202a;" horiz-adv-x="0" 
d="M21 563v-696h-41v735h232v-39h-191z" />
    <glyph glyph-name="uni202B" unicode="&#x202b;" horiz-adv-x="0" 
d="M-212 563v39h232v-735h-41v696h-191z" />
    <glyph glyph-name="uni202C" unicode="&#x202c;" horiz-adv-x="0" 
d="M116 477h-95v-610h-42v610h-95v212h232v-212z" />
    <glyph glyph-name="uni202D" unicode="&#x202d;" horiz-adv-x="0" 
d="M116 477h-95v-610h-42v610h-95v212h232v-39h-193v-135h193v-38z" />
    <glyph glyph-name="uni202E" unicode="&#x202e;" horiz-adv-x="0" 
d="M-116 515h193v135h-193v39h232v-212h-95v-610h-42v610h-95v38z" />
    <glyph glyph-name="uni202F" unicode="&#x202f;" horiz-adv-x="200" 
 />
    <glyph glyph-name="perthousand" unicode="&#x2030;" horiz-adv-x="1193" 
d="M162 -12l459 682h63l-459 -682h-63zM193 288q-70 0 -110 48.5t-40 140.5q0 93 40 141.5t110 48.5q54 -1 87 -28t48 -70t15 -92q0 -92 -40.5 -140.5t-109.5 -48.5zM193 345q34 1 53 21t27 50.5t8 60.5q0 66 -23.5 99t-64.5 33q-42 0 -65.5 -33t-23.5 -99t23.5 -99
t65.5 -33zM654 -8q-70 0 -110 48.5t-40 140.5q0 93 40 141.5t110 48.5q54 -1 87 -28t48 -70t15 -92q0 -92 -40.5 -140.5t-109.5 -48.5zM1002 -8q-70 0 -110 48.5t-40 140.5q0 93 40 141.5t110 48.5q54 -1 87 -28t48 -70t15 -92q0 -92 -40.5 -140.5t-109.5 -48.5zM654 49
q34 1 53 21t27 50.5t8 60.5q0 66 -23.5 99t-64.5 33q-42 0 -65.5 -33t-23.5 -99t23.5 -99t65.5 -33zM1002 49q34 1 53 21t27 50.5t8 60.5q0 66 -23.5 99t-64.5 33q-42 0 -65.5 -33t-23.5 -99t23.5 -99t65.5 -33z" />
    <glyph glyph-name="minute" unicode="&#x2032;" horiz-adv-x="183" 
d="M66 443l-19 219h89l-19 -219h-51z" />
    <glyph glyph-name="second" unicode="&#x2033;" horiz-adv-x="317" 
d="M66 443l-19 219h89l-19 -219h-51zM200 443l-19 219h89l-19 -219h-51z" />
    <glyph glyph-name="uni2034" unicode="&#x2034;" horiz-adv-x="590" 
d="M526 714l-20 -258h-55l-20 258h95zM160 714l-20 -258h-55l-20 258h95zM343 714l-20 -258h-55l-20 258h95z" />
    <glyph glyph-name="guilsinglleft" unicode="&#x2039;" horiz-adv-x="303" 
d="M169 57l-130 202l130 202h89l-137 -202l137 -202h-89z" />
    <glyph glyph-name="guilsinglright" unicode="&#x203a;" horiz-adv-x="303" 
d="M45 57l137 202l-137 202h89l130 -202l-130 -202h-89z" />
    <glyph glyph-name="exclamdbl" unicode="&#x203c;" horiz-adv-x="499" 
d="M163 201h-57l-25 513h107zM72 54q0 32 16 49.5t46 17.5t46 -18t16 -49t-16.5 -49.5t-45.5 -18.5q-30 0 -46 18t-16 50zM393 201h-57l-25 513h107zM302 54q0 32 16 49.5t46 17.5t46 -18t16 -49t-16.5 -49.5t-45.5 -18.5q-30 0 -46 18t-16 50z" />
    <glyph glyph-name="uni203E" unicode="&#x203e;" horiz-adv-x="500" 
d="M503 760h-506v66h506v-66z" />
    <glyph glyph-name="fraction" unicode="&#x2044;" horiz-adv-x="468" 
d="M-8 -14l420 688h64l-420 -688h-64z" />
    <glyph glyph-name="uni2052" unicode="&#x2052;" horiz-adv-x="324" 
d="M323 662l-213 -662h-70l213 662h70zM28 560v102h97v-102h-97zM223 0v102h97v-102h-97z" />
    <glyph glyph-name="uni205E" unicode="&#x205e;" horiz-adv-x="268" 
d="M72 54q0 32 15.5 50t46.5 18q30 0 46 -17.5t16 -50.5t-16.5 -50.5t-45.5 -17.5q-30 0 -46 18t-16 50zM72 456q0 32 15.5 50t46.5 18q30 0 46 -17.5t16 -50.5q0 -32 -16.5 -50t-45.5 -18q-30 0 -46 18t-16 50zM72 255q0 33 16 50.5t46 17.5t46 -17.5t16 -50.5
q0 -32 -16.5 -50t-45.5 -18q-30 0 -46 18t-16 50zM72 657q0 32 15.5 50t46.5 18q30 0 46 -17.5t16 -50.5t-16.5 -50.5t-45.5 -17.5q-30 0 -46 18t-16 50z" />
    <glyph glyph-name="uni206A" unicode="&#x206a;" horiz-adv-x="0" 
d="M-116 515h95v135h-95v39h232v-39h-95v-135h95v-38h-95v-610h-42v610h-95v38z" />
    <glyph glyph-name="uni206B" unicode="&#x206b;" horiz-adv-x="0" 
d="M-77 515h154v135h-154v-135zM-116 477v212h232v-212h-95v-610h-42v610h-95z" />
    <glyph glyph-name="uni206C" unicode="&#x206c;" horiz-adv-x="0" 
d="M21 -133h-42v643l-96 179h234l-96 -179v-643z" />
    <glyph glyph-name="uni206D" unicode="&#x206d;" horiz-adv-x="0" 
d="M21 477v-610h-42v610h-96l117 215l117 -215h-96z" />
    <glyph glyph-name="uni206E" unicode="&#x206e;" horiz-adv-x="0" 
d="M21 -133h-42v627l-96 89l117 107l117 -107l-96 -89v-627zM62 583l-62 55l-62 -55l62 -55z" />
    <glyph glyph-name="uni206F" unicode="&#x206f;" horiz-adv-x="0" 
d="M-116 515h95v135h-95v39h137v-174h95v-38h-95v-610h-42v610h-95v38z" />
  </font>
</defs>
</svg>
