<?xml version="1.0" standalone="no"?>
<!DOCTYPE svg PUBLIC "-//W3C//DTD SVG 1.1//EN" "http://www.w3.org/Graphics/SVG/1.1/DTD/svg11.dtd" >
<svg xmlns="http://www.w3.org/2000/svg" xmlns:xlink="http://www.w3.org/1999/xlink" version="1.1">
<metadata>
Created by FontForge 20190801 at Mon Jun 26 10:14:31 2023
 By root
Copyright (c) 2010 Typeco. All rights reserved.
</metadata>
<defs>
<font id="ReenieBeanie" horiz-adv-x="284" >
  <font-face 
    font-family="Reenie Beanie"
    font-weight="500"
    font-stretch="normal"
    units-per-em="1000"
    panose-1="2 0 0 0 0 0 0 0 0 0"
    ascent="750"
    descent="-250"
    x-height="335"
    cap-height="502"
    bbox="-213 -314 1498 1059"
    underline-thickness="50"
    underline-position="-100"
    unicode-range="U+0001-206F"
  />
<missing-glyph horiz-adv-x="364" 
d="M33 0v666h265v-666h-265zM66 33h199v600h-199v-600z" />
    <glyph glyph-name=".notdef" horiz-adv-x="364" 
d="M33 0v666h265v-666h-265zM66 33h199v600h-199v-600z" />
    <glyph glyph-name="uni0000" 
 />
    <glyph glyph-name="uni0000" 
 />
    <glyph glyph-name="nonmarkingreturn" horiz-adv-x="333" 
 />
    <glyph glyph-name="uni0001" 
 />
    <glyph glyph-name="uni0002" 
 />
    <glyph glyph-name="uni0003" 
 />
    <glyph glyph-name="uni0004" 
 />
    <glyph glyph-name="uni0005" 
 />
    <glyph glyph-name="uni0006" 
 />
    <glyph glyph-name="uni0007" 
 />
    <glyph glyph-name="uni0008" 
 />
    <glyph glyph-name="uni0009" unicode="&#x9;" 
 />
    <glyph glyph-name="uni000A" unicode="&#xa;" 
 />
    <glyph glyph-name="uni000B" 
 />
    <glyph glyph-name="uni000C" 
 />
    <glyph glyph-name="CR" unicode="&#xd;" 
 />
    <glyph glyph-name="uni000E" 
 />
    <glyph glyph-name="uni000F" 
 />
    <glyph glyph-name="uni0010" 
 />
    <glyph glyph-name="uni0011" 
 />
    <glyph glyph-name="uni0012" 
 />
    <glyph glyph-name="uni0013" 
 />
    <glyph glyph-name="uni0014" 
 />
    <glyph glyph-name="uni0015" 
 />
    <glyph glyph-name="uni0016" 
 />
    <glyph glyph-name="uni0017" 
 />
    <glyph glyph-name="uni0018" 
 />
    <glyph glyph-name="uni0019" 
 />
    <glyph glyph-name="uni001A" 
 />
    <glyph glyph-name="uni001B" 
 />
    <glyph glyph-name="uni001C" 
 />
    <glyph glyph-name="uni001D" 
 />
    <glyph glyph-name="uni001E" 
 />
    <glyph glyph-name="uni001F" 
 />
    <glyph glyph-name="space" unicode=" " 
 />
    <glyph glyph-name="exclam" unicode="!" horiz-adv-x="227" 
d="M150 483q0 -9 -9 -39t-19.5 -66.5t-19 -71.5t-8.5 -55q0 -21 2 -34.5t4.5 -22.5t4.5 -15.5t2 -15.5q0 -20 -18 -20q-3 0 -6 4q-22 32 -26.5 63t-4.5 48q0 21 6 54.5t15 71t20.5 75t22.5 65.5q2 2 5 4t8 2q7 0 11 -5.5t6 -13t3 -15.5t1 -13zM183 34q0 -11 -6.5 -22.5
t-16.5 -11.5q-13 0 -24.5 13t-11.5 30q0 6 2.5 15.5t12.5 9.5q4 0 11 -1t14.5 -4.5t13 -10.5t5.5 -18z" />
    <glyph glyph-name="quotedbl" unicode="&#x22;" horiz-adv-x="233" 
d="M203 328q0 -4 -5 -12.5t-10 -8.5q-12 0 -20.5 17.5t-14 40t-7.5 43.5t-2 28q0 9 6.5 14t25.5 5q10 0 15.5 -15.5t8 -36.5t3 -42t0.5 -33zM106 319q0 -4 -1.5 -11t-4.5 -13.5t-7 -11.5t-8 -5q-10 0 -17 15t-11 36t-6 42.5t-2 33.5q0 35 6.5 46.5t21.5 11.5q13 0 16 -11.5
t3 -20.5q0 -11 1.5 -25.5t3.5 -30.5t3.5 -31t1.5 -25z" />
    <glyph glyph-name="numbersign" unicode="#" horiz-adv-x="635" 
d="M593 552q0 -3 -5 -17t-12 -30.5t-13 -31.5t-8 -21q8 0 16.5 -3t8.5 -9q0 -4 -1.5 -6.5t-9.5 -4.5q-6 -2 -11 -3t-9 -3.5t-6.5 -7t-5.5 -13.5q-8 -29 -20.5 -66.5t-25.5 -77.5q11 3 22 8t25 5q4 0 9.5 -2t5.5 -10t-6.5 -12t-16 -7t-20.5 -5.5t-21 -8.5q-4 -2 -6.5 -6.5
t-4.5 -9.5q-4 -13 -9 -39.5t-13 -53t-19 -46.5t-27 -20q-9 0 -11 5.5t-2 10.5q0 6 3.5 22t8 37t10 43t9.5 40q-11 0 -24.5 -3t-27.5 -7t-27 -8.5t-23 -8.5q-12 -32 -19.5 -66t-27.5 -64q-3 -4 -10 -4q-6 0 -10.5 7t-4.5 22q0 9 3 22t6.5 25.5t6.5 21.5t3 10q0 5 -6 5
q-11 0 -37 -10t-58.5 -22t-66.5 -22t-61 -10q-2 0 -9.5 1t-15 3.5t-13.5 5.5t-6 8q0 8 5 13.5t13 5.5q23 0 57 6.5t70 16.5t69.5 22t56.5 24q8 5 11.5 10t6.5 15l44 144q-14 -2 -48 -17.5t-73 -36t-75.5 -40.5t-55.5 -32q-8 6 -11 13.5t-3 14.5q0 6 12 16t31 21.5t43 23.5
t46.5 23t42 19t30.5 12q14 5 34.5 8t37.5 11q7 3 11 10.5t7 16.5q2 6 8.5 10t11.5 4q16 0 16 -11q0 -12 17 -12q20 0 38 5t25 7q12 3 18 7t11 12q8 14 14.5 33t14 36t16 29t20.5 12q8 0 14.5 -4.5t6.5 -10.5zM491 410q-26 -6 -53.5 -12.5t-52.5 -13.5q-16 -39 -29 -79.5
t-21 -82.5l104 24q6 16 13 36.5t14 42.5t13.5 44t11.5 41z" />
    <glyph glyph-name="dollar" unicode="$" horiz-adv-x="368" 
d="M383 582q0 -2 -5.5 -16.5t-14.5 -35t-18.5 -44t-18.5 -44t-14.5 -34t-5.5 -14.5q0 -4 4.5 -9t10 -11t10 -14.5t4.5 -19.5q0 -6 -4.5 -13t-13.5 -11q-2 5 -12 15.5t-16 14.5q-5 -8 -16 -33.5t-22.5 -54t-21 -51.5t-10.5 -26q11 -11 22.5 -22t20.5 -23t15 -26t6 -33
q0 -32 -27.5 -50t-61.5 -18q-4 0 -12 2t-15.5 4t-13.5 4l-6 2q-7 0 -16 -20t-19 -44.5t-20.5 -44.5t-20.5 -20q-8 0 -12 10.5t-4 11.5q0 14 7 32.5t16 36t16 32.5t7 21q0 3 -8 8.5t-17.5 13t-17.5 17t-8 20.5q0 8 7 20t18 12q3 0 7 -4t4 -7t-2.5 -6t-2.5 -6t4.5 -8.5
t10.5 -10.5t11.5 -9t8.5 -4q4 0 12 15t16 32.5t13.5 32.5l5.5 15q-2 1 -9.5 5.5t-16 10t-17 11.5t-12.5 10q-5 5 -8.5 13.5t-6 17t-4 16t-1.5 11.5q0 19 17 43.5t42 46t52.5 36t47.5 14.5q4 0 12 -2q12 25 25 60.5t26.5 67.5t27 55t27.5 23q18 0 18 -24zM242 351
q-8 -1 -25.5 -9.5t-35.5 -21.5t-31.5 -30t-13.5 -35q0 -5 3.5 -13t9 -16t12.5 -14t15 -6q3 0 13.5 22t22 49t21 50t9.5 24zM231 78q2 6 2 10q0 9 -4.5 19t-9.5 18t-9.5 13.5t-5.5 5.5q-12 -20 -22.5 -41.5t-21.5 -43.5q5 -3 13.5 -5t12.5 -2q15 0 28 7.5t17 18.5z" />
    <glyph glyph-name="percent" unicode="%" horiz-adv-x="626" 
d="M574 200q0 -15 -6.5 -42t-19 -53.5t-32 -46t-45.5 -19.5q-12 0 -25.5 2.5t-25 8.5t-18.5 16.5t-7 26.5q0 9 5 22t13 24.5t18.5 19.5t21.5 8q6 0 14 -5.5t8 -11.5q0 -7 -4.5 -14t-9.5 -14t-9.5 -14t-4.5 -15q0 -5 3.5 -8t5.5 -3q15 0 28 12t23.5 28t16.5 32.5t6 25.5
q0 5 -6 5q-3 0 -10.5 -4t-14.5 -4q-9 0 -14 8t-5 11q0 4 4 10t10 12t12 10t11 4q6 0 16 -1t19 -4.5t15.5 -10t6.5 -16.5zM569 631q-32 -52 -70 -107t-69 -112q-5 -9 -20 -37t-33.5 -64.5t-39 -76.5t-38 -74.5t-28.5 -58t-11 -26.5l-26 -54q-10 -20 -17.5 -38t-7.5 -19
q-7 -17 -12 -31q-5 -12 -8.5 -24t-3.5 -17q0 -3 3.5 -12.5t3.5 -12.5q0 -11 -10 -20.5t-15 -9.5q-19 0 -26.5 14t-7.5 28q0 21 16.5 65t41.5 99t55 114.5t57.5 113t48.5 94t28 56.5q0 1 -12 -2.5t-28.5 -8t-34 -8.5t-27.5 -4q-17 0 -31 3.5t-27 8t-26 8t-26 4.5
q-2 0 -7.5 -7t-13.5 -15.5t-19 -15.5t-24 -7q-26 0 -37.5 12t-11.5 26q0 16 8.5 34.5t22 34t30 25.5t33.5 10q9 0 22.5 -8t13.5 -16q0 -1 -4.5 -8t-10.5 -9q1 0 12.5 -5.5t28 -12t34 -12t31.5 -5.5q44 0 77 16t58 40.5t43 53t32 53t25.5 40.5t23.5 16q11 0 22.5 -8t11.5 -23
zM138 469q-11 0 -23.5 -11t-12.5 -28q0 -4 4 -4q3 0 8.5 6.5t11 14.5t9 15z" />
    <glyph glyph-name="ampersand" unicode="&#x26;" horiz-adv-x="536" 
d="M475 109q5 -2 8 -5.5t4.5 -8t0.5 -9.5q0 -7 -3 -12q-13 -33 -42 -51q-19 -14 -42 -15q-15 1 -29 6q-32 12 -61 31l-10 6l-4 -4q-42 -34 -96 -32q-54 0 -97 34q-20 13 -31 34t-12 45q0 13 3 25q14 55 45 100l9 13q-19 40 -27 84q-5 24 -5 48q0 46 19 88q12 28 34 49
q23 22 55 27q8 2 17 2q20 0 37 -10q15 -8 28 -19q25 -22 25 -56q0 -10 -2 -19q-11 -54 -43 -98q-3 -4 -7.5 -9.5t-11.5 -14t-13 -15.5q-21 -26 -25 -31v0q-7 -9 -15 -17l-11 -14l2 -6q4 -6 5 -8q28 -47 62 -90q22 -28 52 -46q25 30 40 66q6 15 6 31q0 17 -8 33q-2 5 -5 9
q-9 16 -27 17q-6 0 -11 -2l-12 -4h-6q-14 0 -19 13l-1 2v7q-1 12 9 18q6 7 15 8q12 4 24 4q30 0 51 -21q9 -7 16 -18q20 -30 20 -67q0 -22 -8 -43q-13 -34 -35 -63l-11 -15q25 -17 53 -27q8 -3 16 -3q14 1 25 11q10 10 16 23q4 8 10 14q5 5 11 7h4q5 0 8 -2zM198 516
q-26 -7 -41 -30q-21 -31 -24 -69q-2 -14 -2 -21q1 -47 19 -90l13 14q34 40 54 66q28 38 37 83q1 4 1 9q0 14 -11 23q-7 7 -16 12q-8 5 -18 5q-6 0 -12 -2zM108 140q-1 -6 -1 -11q1 -24 19 -39q16 -14 35 -21q22 -7 44 -7q24 0 45 10q6 2 11 6q-39 27 -67 65q-16 23 -20 29
l-32 48q-11 -18 -20 -38q-10 -20 -14 -42z" />
    <glyph glyph-name="quotesingle" unicode="'" horiz-adv-x="183" 
d="M132 554q0 -13 -5.5 -29.5t-12.5 -36t-12.5 -41t-5.5 -45.5q0 -34 -4 -44.5t-8 -10.5q-11 0 -17 7t-9 17t-4 20.5t-1 17.5q0 2 2.5 14.5t6.5 30.5t10 38.5t13 38t15.5 29t18.5 11.5q6 0 9.5 -7.5t3.5 -9.5z" />
    <glyph glyph-name="parenleft" unicode="(" horiz-adv-x="238" 
d="M177 479q3 0 15 -2t12 -7q0 -2 -5 -7l-7 -7q-20 -20 -38.5 -52.5t-32.5 -68t-22.5 -70t-8.5 -59.5q0 -26 5.5 -53t15 -49t22 -36t26.5 -14q3 0 7 3.5t8 4.5q5 0 7.5 -7t2.5 -14q0 -5 -6 -9t-13.5 -7t-15 -4.5t-9.5 -1.5q-14 0 -29 11.5t-28 34t-21.5 56t-8.5 77.5
q0 52 13.5 102.5t33 90t40.5 64t37 24.5z" />
    <glyph glyph-name="parenright" unicode=")" horiz-adv-x="286" 
d="M237 230q0 -51 -18.5 -92t-45 -69.5t-56.5 -43.5t-53 -15q-8 0 -15 2t-7 12q0 3 1.5 8.5t4.5 9.5q3 -2 10 -2q14 0 36 14.5t42.5 42t35.5 68.5t15 94q0 20 -5 43.5t-12 45.5t-14.5 39t-13.5 24q-3 3 -3 7q0 5 7 12.5t15 7.5q7 0 20 -12.5t25.5 -38t21.5 -64.5t9 -93z" />
    <glyph glyph-name="asterisk" unicode="*" horiz-adv-x="341" 
d="M328 444q0 -5 -12 -16.5t-27 -24.5t-28.5 -24.5t-16.5 -15.5q6 -1 15 -1.5t17.5 -2t14 -5t5.5 -10.5q0 -5 -9.5 -8.5t-12.5 -3.5q-14 0 -24 -0.5t-19 -2t-18 -4t-20 -5.5v-9q0 -9 11.5 -18.5t26 -19t26 -19t11.5 -18.5q0 -3 -3 -7t-7 -4q-7 0 -22 7t-31 17t-29.5 20
t-17.5 16q-19 -11 -31.5 -32.5t-26.5 -40.5q-12 0 -19.5 4t-7.5 15q0 20 17 40t31 38q-10 0 -26 2l-24 3q-11 1 -24.5 11t-13.5 22q0 5 6.5 8t13.5 3q8 0 22.5 -4t37.5 -4q7 0 9 3q-4 7 -8.5 22.5t-4.5 36.5q0 12 9.5 16.5t13.5 4.5q9 0 14.5 -9.5t9.5 -22t8.5 -25
t10.5 -18.5q2 2 20 18.5t40.5 35.5t42.5 34.5t25 15.5q7 0 16 -7.5t9 -10.5z" />
    <glyph glyph-name="plus" unicode="+" horiz-adv-x="322" 
d="M302 253q0 -3 -5.5 -7.5t-13.5 -8.5t-17.5 -7.5t-17.5 -4.5q-17 -4 -35 -5t-34 -4q8 -38 8 -75q0 -38 -9.5 -60t-23.5 -22q-6 0 -10.5 7.5t-4.5 19.5q0 3 2.5 12.5t2.5 18.5q0 2 -1 13.5t-2.5 26l-3 29t-2.5 21.5q-10 0 -25 -1.5t-18 -1.5q-14 0 -24.5 4t-10.5 20
q0 9 8 12q3 -3 7 -3q1 0 9.5 1.5t18 3.5t17 4.5t7.5 4.5t-3.5 20t-8 39.5t-8 42.5t-3.5 29q0 1 0.5 6t2 10t4.5 9t9 4q19 0 22 -12q8 -34 12.5 -61.5t8 -47t7 -30t11.5 -10.5q24 3 45 6l34 4t22 2q2 0 12.5 -2t10.5 -7z" />
    <glyph glyph-name="comma" unicode="," horiz-adv-x="178" 
d="M132 32q0 -11 -8.5 -32t-21.5 -42t-29.5 -36.5t-31.5 -15.5q-8 0 -13.5 6.5t-5.5 9.5q0 1 9.5 12.5t21.5 27.5t21.5 35t9.5 37q0 19 -4.5 28.5t-9.5 16t-9.5 12t-4.5 16.5q0 15 16 15t27 -10.5t18.5 -25t11 -29.5t3.5 -25z" />
    <glyph glyph-name="hyphen" unicode="-" horiz-adv-x="256" 
d="M211 224q0 -10 -16.5 -19.5t-37.5 -16.5t-40 -11.5t-24 -4.5q-18 0 -24.5 2t-11.5 13q-3 4 -6 9.5t-3 8.5q0 4 1.5 5t7.5 1q11 0 32.5 5t43 11t39.5 11t22 5q5 0 11 -7.5t6 -11.5z" />
    <glyph glyph-name="period" unicode="." horiz-adv-x="139" 
d="M104 64q0 -6 -6 -11.5t-13.5 -10t-14.5 -7t-8 -2.5q-9 0 -13.5 4.5t-7 10t-3 10.5t-0.5 7q0 4 2 10.5t6 12.5t9.5 10.5t12.5 4.5q13 0 24.5 -11t11.5 -28z" />
    <glyph glyph-name="slash" unicode="/" horiz-adv-x="307" 
d="M250 483q6 -2 6 -12q0 -2 -0.5 -3.5t-0.5 -2.5v-2q-23 -57 -43.5 -127t-44.5 -141t-52.5 -138t-66.5 -117q-8 -11 -10 -11q-3 0 -6.5 10.5t-3.5 12.5t28 73q13 33 28.5 76t32 90t32 93.5t29.5 86.5q8 24 17 45.5t17 37.5t14.5 25t10.5 9q2 0 5.5 -1.5t7.5 -3.5z" />
    <glyph glyph-name="zero" unicode="0" horiz-adv-x="357" 
d="M326 238q0 -42 -10.5 -72.5t-26 -52t-35 -35t-37.5 -21t-32.5 -10.5t-20.5 -3q-23 0 -44 10.5t-37 28.5t-25.5 42.5t-9.5 52.5q0 24 6 47.5t12.5 44t12.5 36.5t6 26q0 2 -0.5 5t-0.5 6q0 6 4 9q8 6 12.5 9t10.5 3q7 0 20 -3.5t18 -3.5h11.5t13.5 1l16 2q13 0 36 -4.5
t45.5 -17.5t38.5 -37t16 -63zM169 91q27 0 48 11.5t35.5 31.5t21.5 46.5t7 55.5q0 22 -8 38t-20.5 26t-28.5 14.5t-31 4.5q-20 0 -35 -3t-32 -3l-8 -24t-10 -31.5t-8.5 -32t-3.5 -27.5q0 -15 2.5 -34t10.5 -35t22.5 -27t37.5 -11z" />
    <glyph glyph-name="one" unicode="1" horiz-adv-x="289" 
d="M228 34q0 -10 -12.5 -16t-18.5 -6q-4 0 -11.5 3.5t-9.5 8.5q-11 39 -17.5 72t-11 64t-8 63t-8.5 70q-8 -3 -21 -11.5l-26 -17t-22.5 -15.5t-11.5 -7q-3 0 -5.5 8t-2.5 11q0 2 1.5 6.5t3.5 7.5t16.5 15.5t31 28t29.5 31t13 24.5q0 8 6 10t8 2q8 0 13 -6t8 -15t4.5 -18.5
t1.5 -15.5q0 -52 4.5 -87.5t10.5 -67.5q4 -35 10 -59.5t11.5 -41t9.5 -26.5t4 -15z" />
    <glyph glyph-name="two" unicode="2" horiz-adv-x="367" 
d="M311 68q0 -11 -9.5 -17t-15.5 -6q-9 0 -13.5 3t-10 7t-14 7t-24.5 3q-20 0 -35.5 -10t-29 -21.5t-26.5 -21.5t-27 -10q-17 0 -22 12t-5 31q0 4 13 29.5t30.5 56.5t33.5 59.5t22 39.5t17 31t22.5 40.5t19.5 36t8 18.5q0 7 -3 9t-6 2q-7 0 -30.5 -8t-50 -17t-50 -17
t-29.5 -8q-1 0 -6 5q-2 3 -3.5 6t-1.5 6q0 4 23.5 17t56.5 26.5t67.5 24t56.5 10.5q13 0 23 -8t10 -22q0 -15 -11 -41t-28 -57t-36.5 -64t-36.5 -60.5t-29 -47t-13 -24.5q7 4 18 7.5t22.5 6.5t22 5t16.5 2q8 0 22 -2t28 -6.5t24 -12.5t10 -20z" />
    <glyph glyph-name="three" unicode="3" horiz-adv-x="367" 
d="M317 340q0 -17 -17.5 -33t-38.5 -29.5t-39.5 -22t-21.5 -9.5q-12 -5 -12 -11q0 -4 8.5 -4.5t29.5 -8.5q12 -4 26 -10.5t26 -17t20 -26t8 -37.5q0 -23 -17 -44t-41.5 -37t-53 -25.5t-51.5 -9.5q-14 0 -28.5 2.5t-27 7.5t-20.5 13t-8 20q0 6 4.5 15.5t9.5 14.5
q12 -11 27.5 -17t39.5 -6q16 0 36.5 6.5t38.5 17t30 24t12 28.5q0 21 -21 30t-46 15.5t-46 15t-21 29.5q0 14 20.5 28t45.5 27t45.5 24.5t20.5 21.5q0 7 -13 7q-16 0 -35 -5t-36.5 -11t-32 -11t-21.5 -5q-14 0 -18.5 5t-4.5 17q0 7 10 13.5t25.5 12.5t34 10.5t35.5 8
t30.5 5.5t18.5 2q7 0 18.5 -1.5t22.5 -6t19.5 -12.5t8.5 -21z" />
    <glyph glyph-name="four" unicode="4" horiz-adv-x="396" 
d="M349 194q0 -5 -5.5 -12t-11.5 -9q-13 -6 -28 -6t-28 -1.5t-21.5 -7t-8.5 -21.5q0 -5 2 -23.5t4.5 -43t4.5 -52.5t2 -51q0 -6 -1 -13.5t-4 -14.5t-8 -12t-14 -5q-8 0 -12.5 8.5t-7 18.5t-3 19t-0.5 10t-0.5 19t-1 43.5t-1 54t-1.5 50.5q0 10 -5 10q-3 0 -14.5 -1.5
t-22.5 -1.5q-5 0 -22.5 1t-37.5 6.5t-35.5 16t-15.5 30.5q0 14 11 30t28 33t36 33.5t36 31.5t28 27t11 20v35q0 5 4.5 7t7.5 2q9 0 14.5 -7.5t8.5 -18t4 -20.5t1 -15q0 -27 0.5 -44.5t1.5 -32t1.5 -30t0.5 -39.5q0 -10 8 -10q3 0 12.5 2.5t21 5t21.5 5t14 2.5q11 0 18.5 -8
t7.5 -21zM204 258q0 16 -0.5 32t-4.5 24q-26 -26 -46 -47q-17 -18 -31.5 -35.5t-14.5 -22.5q13 -5 30 -6t30 -1q8 0 18.5 0.5t18.5 2.5v53z" />
    <glyph glyph-name="five" unicode="5" horiz-adv-x="353" 
d="M401 353q0 -4 -23 -12q-48 -15 -87 -26t-77 -28q-35 -16 -52 -28t-20 -12q-2 0 -4 1.5t-3 1.5q-5 -5 -16 -15.5t-16 -18.5q2 -2 6 -3t9 -2t11 -1q10 0 34 -4t49 -14t44.5 -28.5t19.5 -46.5q0 -17 -16.5 -30t-37 -22t-40 -13.5t-25.5 -4.5q-19 0 -34 15.5t-15 34.5
q0 4 6 4q7 0 15.5 -2.5t16.5 -2.5q2 0 14 2.5t25.5 8t24 12.5t10.5 16q0 6 -9.5 11t-21.5 9t-23.5 6t-16.5 2q-6 0 -12 -1t-20 -1q-9 0 -21 1.5t-23.5 6t-19.5 14t-8 24.5q0 7 12 24.5t28.5 35t33.5 31t28 13.5q3 0 4 -2.5t4 -2.5q15 7 40.5 17t53.5 19t55 15.5t44 6.5
q21 0 37 -2.5t16 -8.5z" />
    <glyph glyph-name="six" unicode="6" horiz-adv-x="304" 
d="M244 141q0 -20 -9.5 -42.5t-23.5 -42.5t-30 -33t-29 -13q-14 0 -31 10t-25 25q-2 5 -4 5q-4 0 -7.5 -4.5t-7.5 -4.5q-2 0 -5.5 6.5t-6.5 15t-5.5 16.5t-2.5 12q0 3 2.5 12.5t2.5 12.5v50q0 38 8.5 85.5t24 89.5t36.5 70.5t47 28.5q17 0 25 -7.5t8 -13.5t-5 -9t-10 -7
q-21 -17 -37.5 -43t-28 -56t-18 -61.5t-6.5 -59.5q5 5 13.5 11.5t18.5 12.5t21 10.5t20 4.5q20 0 32.5 -7.5t20 -19t10 -26t2.5 -28.5zM202 147q0 28 -20 28q-11 0 -23.5 -8.5t-23.5 -20t-18 -23.5t-7 -18q0 -5 4 -12.5t9 -14.5t11 -12.5t11 -5.5q10 0 20 10t18.5 23.5
t13.5 28.5t5 25z" />
    <glyph glyph-name="seven" unicode="7" horiz-adv-x="390" 
d="M329 322q0 -9 -8 -21t-18.5 -30t-22.5 -44.5t-20 -65.5q-5 -24 -6.5 -54t-11.5 -53q-5 -11 -13.5 -21t-20.5 -10q-8 0 -10.5 12t-2.5 20q0 13 6 45.5t15 70t20 73t21 53.5q-2 2 -5 3.5t-13 1.5l-16.5 -1.5t-38 -3t-43.5 -3t-34 -1.5q-19 0 -35 1t-28 5t-19 12t-7 22
q0 8 5.5 11t10.5 3q-1 0 23.5 -4.5t56.5 -4.5q56 0 103.5 6.5t67.5 14.5q6 2 7 2q3 0 8 -4q11 -6 20 -13.5t9 -21.5z" />
    <glyph glyph-name="eight" unicode="8" horiz-adv-x="416" 
d="M413 364q0 -13 -14.5 -30t-37 -34.5t-49 -34.5t-50 -31.5t-40.5 -24t-21 -12.5q7 -9 14.5 -25.5t14 -35.5t11 -37t4.5 -31q0 -16 -6.5 -29.5t-17.5 -23t-24.5 -15t-26.5 -5.5q-21 0 -41 5t-35 15t-24.5 25.5t-9.5 36.5q0 28 13.5 50.5t29.5 39t29.5 26t13.5 12.5
t-10.5 18t-23.5 36t-23.5 44.5t-10.5 42.5t9.5 34t25 25t35.5 15t41 5t42 -2.5t37 -9t26 -18t10 -30.5q0 -2 -3.5 -8.5t-9 -14t-11 -13.5t-9.5 -6q-6 0 -6 10q0 3 1.5 7.5t1.5 7.5q0 18 -19.5 25.5t-46.5 7.5q-9 0 -22 -2t-26 -7.5t-22 -15t-9 -23.5q0 -5 8 -20t18 -32
t19.5 -31.5t12.5 -18.5q21 11 47 27.5t58 32.5q22 11 43 25.5t37.5 27t27.5 21.5t13 9q3 0 4.5 -4t1.5 -6zM200 79q0 3 -2.5 17t-7 29.5t-11 28t-14.5 12.5q-4 0 -14.5 -8.5t-21 -20.5t-19 -25.5t-8.5 -22.5q0 -17 14 -33t40 -16q17 0 30.5 11t13.5 28z" />
    <glyph glyph-name="nine" unicode="9" horiz-adv-x="400" 
d="M346 339q0 -11 -8.5 -32.5t-20 -57t-23.5 -87t-18 -121.5q-1 -13 -1.5 -21t-1 -14t-0.5 -11.5v-12.5t1.5 -10.5t1.5 -8.5q0 -23 -24 -23q-11 0 -20.5 11t-8.5 24t4.5 48t9 77t12.5 83t15 66q-11 -6 -25 -12t-30 -10.5t-31 -7.5t-27 -3q-42 0 -70 29t-28 73q0 26 11.5 46
t29 33.5t37.5 20.5t37 7q41 0 66.5 -14t42.5 -62q1 -2 1.5 -5.5t0.5 -4.5q0 -4 -1.5 -7.5t-1.5 -7.5q0 -1 2 -7q11 6 18.5 22t18.5 29q2 0 7 -3t10.5 -7.5t9.5 -9.5t4 -9zM253 298q0 9 -3.5 22.5t-12 26t-22.5 21t-35 8.5q-15 0 -30 -5t-27 -13t-19.5 -19.5t-7.5 -24.5
q0 -29 18 -38.5t44 -9.5q13 0 29.5 3t31 7.5t24.5 10t10 11.5z" />
    <glyph glyph-name="colon" unicode=":" horiz-adv-x="195" 
d="M112 155q5 0 10.5 -6t9.5 -14t6.5 -17.5t2.5 -15.5q0 -11 -10.5 -19t-36.5 -8q-8 0 -16.5 5t-8.5 15q0 3 4.5 12.5t11 20t14 19t13.5 8.5zM126 279q0 -6 -6 -11.5t-13.5 -10t-14.5 -7t-8 -2.5q-9 0 -13.5 4.5t-7 10t-3 10.5t-0.5 7q0 4 2 10.5t6 12.5t9.5 10.5t12.5 4.5
q13 0 24.5 -11t11.5 -28z" />
    <glyph glyph-name="semicolon" unicode=";" horiz-adv-x="197" 
d="M140 64q0 -22 -6 -47t-19 -46.5t-34 -36t-52 -14.5q-10 0 -17.5 5.5t-7.5 17.5q0 11 7.5 15.5t15.5 4.5q4 0 3.5 -1.5t2.5 -1.5q27 0 37 21.5t15 47.5t10 47.5t22 21.5q14 0 18.5 -13.5t4.5 -20.5zM118 261q0 -6 -6 -11.5t-13.5 -10t-14.5 -7t-8 -2.5q-9 0 -13.5 4.5
t-7 10t-3 10.5t-0.5 7q0 4 2 10.5t6 12.5t9.5 10.5t12.5 4.5q13 0 24.5 -11t11.5 -28z" />
    <glyph glyph-name="less" unicode="&#x3c;" horiz-adv-x="467" 
d="M458 82q0 -5 -6.5 -11.5t-16.5 -6.5q-3 0 -9.5 -1t-9.5 -1q-44 0 -93.5 9t-106.5 9h-5t-9 -0.5t-16.5 -0.5h-27.5q-6 0 -23.5 2.5t-35.5 8t-32.5 14.5t-14.5 22q0 9 8 20t21.5 25.5t30 31t34.5 36.5q7 7 23.5 29t35.5 44.5t37 40.5t29 18q5 0 9.5 -4.5t4.5 -9.5
q0 -7 -4 -11q-14 -26 -35 -55t-44 -57.5t-46.5 -54t-42.5 -44.5q1 -1 9 -3t17.5 -3.5t18.5 -3t12 -1.5q8 0 70.5 -6t174.5 -14q3 0 10 2.5t10 2.5q11 0 17 -10.5t6 -16.5z" />
    <glyph glyph-name="equal" unicode="=" horiz-adv-x="388" 
d="M345 282q0 -8 -9 -12t-14 -4q-6 0 -26 -2t-47 -5.5t-56 -7.5t-54 -7.5t-41.5 -5.5t-17.5 -2q-5 0 -9.5 5t-4.5 11q0 5 3 8.5t5 5.5q7 4 43 13.5t117 15.5q19 1 30.5 1.5t21 1t19 0.5t24.5 2q5 0 10.5 -7t5.5 -11zM319 185q0 -5 -17 -12.5t-43.5 -15.5t-57 -16.5
t-57.5 -15.5t-46 -11t-22 -4q-17 0 -22 6.5t-5 21.5q0 11 3 14.5t7 3.5q5 0 8.5 -3t7.5 -3q3 0 18.5 3.5t37 8.5t46.5 11.5t47.5 11.5t39.5 8.5t23 3.5q11 0 21.5 -2t10.5 -10z" />
    <glyph glyph-name="greater" unicode="&#x3e;" horiz-adv-x="462" 
d="M407 151q13 -12 -11 -22t-85 -21q-35 -6 -71 -15.5t-68.5 -18.5t-58.5 -15.5t-39 -6.5q-11 0 -15 7t-4 12q0 7 17 15.5t43 16.5t58.5 16t63.5 14.5t56.5 11.5t39.5 7q-62 51 -118 112t-112 112q-4 3 -7 13t-3 14q0 6 4.5 11t12.5 7q4 0 18.5 -12.5t32.5 -30.5l37 -37
t33 -32z" />
    <glyph glyph-name="question" unicode="?" horiz-adv-x="392" 
d="M352 432q0 -18 -15 -37.5t-37 -40t-48 -41.5t-48 -41.5t-37 -39.5t-15 -35q0 -11 2.5 -23.5t7.5 -20.5q-5 -9 -10 -14t-13 -5q-7 0 -12.5 6t-9.5 15t-6.5 19t-2.5 18q0 23 6 38.5t18.5 29t30.5 27.5t42 32q18 14 36.5 30t33 31.5t24 30t9.5 26.5q0 10 -8.5 20t-22.5 17.5
t-33 12t-40 4.5q-47 0 -73.5 -7t-42.5 -7q-8 0 -16 4.5t-8 13.5q0 12 18 20t41.5 12t45 5.5t28.5 1.5q31 0 59 -9t49.5 -23t34 -32.5t12.5 -37.5zM221 6q0 -12 -12 -18.5t-22 -6.5q-9 0 -21 9.5t-12 18.5q0 3 0.5 8.5t3 11.5t6.5 10.5t11 4.5q3 0 10.5 -4.5t15.5 -10.5
t14 -12.5t6 -10.5z" />
    <glyph glyph-name="at" unicode="@" horiz-adv-x="532" 
d="M498 249q0 -17 -15.5 -38.5t-36.5 -41t-44 -33t-38 -13.5q-7 0 -17.5 4t-21 10t-21 13.5t-17.5 13.5q-4 -6 -10.5 -14t-14 -15.5t-15.5 -12.5t-15 -5q-17 0 -26.5 17t-9.5 31q0 20 11 47.5t26 53t31.5 43.5t27.5 18q8 0 15 -5.5t7 -12.5q0 -3 -5.5 -7.5t-8.5 -7.5
q-9 -9 -20 -24.5t-20.5 -32.5t-16.5 -33t-7 -25q0 -3 0.5 -7t2.5 -6q8 3 13.5 16.5t10.5 28.5t10.5 27t12.5 12q10 0 17 -6t11 -14.5t5.5 -16.5t1.5 -12q0 -5 4.5 -11t10.5 -12t12.5 -10t10.5 -4q18 0 36 8.5t34.5 22t31.5 31t27 34.5q2 -1 6 -4t4 -7zM484 439q0 -4 -2 -4
t-4 2q-11 8 -34 17.5t-58 9.5q-24 0 -56 -13t-66.5 -36.5t-67.5 -55t-59.5 -69t-42.5 -79t-16 -84.5q0 -23 6 -50.5t20 -51.5t38.5 -40t62.5 -16q25 0 46 5.5t36.5 11.5t25.5 11.5t14 5.5q7 0 7 -8q0 -14 -13 -25t-32.5 -19t-42 -12.5t-40.5 -4.5q-29 0 -58 10.5t-52 34
t-37.5 60t-14.5 88.5q0 53 17.5 101.5t46.5 90t65.5 75t74 57t73 36.5t61.5 13q18 0 36.5 -3t33 -9t23.5 -13.5t9 -16.5v-19z" />
    <glyph glyph-name="A" unicode="A" horiz-adv-x="406" 
d="M354 -44q1 -4 1 -7.5v-5.5q0 -10 -4.5 -14t-17.5 -4q-12 0 -16 4q-6 6 -16 31t-21 59t-21.5 73t-18.5 74q-11 -5 -30 -10.5t-39 -10.5q-23 -5 -48 -11q-9 -43 -13.5 -73.5t-8 -50t-9 -29t-17.5 -9.5q-8 0 -14 9t-6 27q0 9 5 42t11 73.5t12 80.5t8 63q1 12 6.5 39
t11.5 55.5t12 51.5t8 26q16 37 20.5 76t7 71.5t8.5 53t25 20.5q5 0 10.5 -8t10.5 -19t8 -21.5t4 -16.5t2.5 -24t3 -39.5t3 -42t2.5 -31.5q3 -33 9.5 -74t13.5 -77t13 -60.5t9 -24.5q4 0 10.5 2t12.5 2q8 0 8 -8t-4 -13t-8.5 -9t-8 -7t-3.5 -7q0 -8 9 -41l16 -59q2 -8 9 -27
t14.5 -39.5t13.5 -38t6 -21.5zM132 185q6 0 22 3.5t33 8.5t30 10t13 8t-3.5 15.5t-8 32t-9.5 44.5t-9 53q-2 18 -5 49t-6 61.5t-5 52.5l-2 22l-3 -14.5t-6.5 -32t-6 -33t-2.5 -17.5v-28q0 -2 -2.5 -17.5t-6.5 -39t-8.5 -51t-8.5 -52.5t-6.5 -44.5t-2.5 -26.5q0 -4 3 -4z" />
    <glyph glyph-name="B" unicode="B" horiz-adv-x="565" 
d="M516 301q0 -26 -12 -51t-30 -47t-39 -40.5t-38 -31.5q-18 -14 -42 -30t-46.5 -30t-39.5 -25.5t-21 -15.5l-29 -23q-5 -4 -11.5 -5t-10.5 -1q-7 0 -11 7.5t-4 15.5q0 6 11.5 21.5t26.5 26.5t37 22t60 35q19 12 46 31.5t51 42t41 47t17 47.5q0 9 -21.5 18.5t-60.5 9.5
q-40 0 -84 -12t-81.5 -26t-64.5 -26t-33 -12q3 -23 7.5 -56.5t9.5 -64.5q5 -36 11 -75h4q2 -10 8 -29t6 -30q0 -16 -12 -16q-6 0 -13.5 11t-15 26t-13 29.5t-7.5 20.5q-9 33 -17.5 76t-15 86.5t-10 82t-3.5 63.5q0 7 3.5 12t3.5 10t-2.5 7.5t-2.5 8.5q0 3 1.5 6.5t8.5 3.5
q7 -2 13.5 -2t11.5 -2.5t8 -8.5t3 -19v-6q0 -2 -0.5 -4.5t-0.5 -4.5q0 -17 1 -27t3 -10q3 0 21.5 14.5t44.5 36.5t56.5 49t58.5 52q11 10 30 28.5t37.5 39.5t32 39.5t13.5 28.5t-6 10q-8 0 -34 -7t-59 -18.5t-68 -26.5t-62 -31q-28 -19 -56 -42t-50.5 -43.5t-37 -35
t-15.5 -16.5q-2 -2 -2 -4t1.5 -5.5t1.5 -5.5q0 -3 -4 -5t-9 -2q-8 0 -20 3.5t-12 19.5q0 14 16 35t41.5 45t56.5 47.5t61 43.5q30 19 65.5 36.5t70 30.5t65.5 20.5t51 7.5q8 0 18 -2t19 -6t15 -10.5t6 -15.5q0 -27 -16 -55.5t-42 -57.5t-58.5 -58.5t-65 -57t-62.5 -53
t-50 -46.5q11 4 36 13.5t54.5 19t59.5 16.5t53 7q7 0 30 -1t48 -8t45 -22.5t20 -43.5z" />
    <glyph glyph-name="C" unicode="C" horiz-adv-x="522" 
d="M477 229q0 -14 -7.5 -29t-18.5 -30t-24 -28.5t-24 -23.5q-27 -24 -55.5 -45.5t-59 -38.5t-63.5 -27t-69 -10q-109 0 -109 112q0 11 9 43t23 73t33 86t39 82.5t39.5 61.5t36.5 24q11 0 16.5 -7t5.5 -15q-1 -6 -14 -25.5t-27 -39.5q-2 -3 -7 -10l-10 -14q-6 -8 -12 -17
q-4 -7 -17.5 -35.5t-28.5 -66t-27 -78t-12 -70.5q0 -17 7.5 -27t18 -15t22 -6.5t20.5 -1.5q37 0 78.5 16.5t79.5 43.5t70 62.5t50 73.5q4 7 8.5 9t8.5 2q8 0 14 -11t6 -18z" />
    <glyph glyph-name="D" unicode="D" horiz-adv-x="448" 
d="M404 300q0 -34 -12 -65t-34 -60t-51.5 -56.5t-64.5 -53.5q-37 -28 -86 -54t-98.5 -46.5t-93.5 -32.5t-71 -12q-18 0 -26.5 4.5t-8.5 20.5q0 11 8 26t16 15t11.5 -5t3.5 -11q0 -3 -0.5 -5t-0.5 -3v-2q38 4 101.5 23.5t151.5 67.5q38 21 75 49.5t66.5 61t47.5 68t18 69.5
q0 24 -24.5 49.5t-62 48t-81.5 39t-82 22.5q1 -5 3 -24.5t6 -45.5t9.5 -55.5t12.5 -54.5q8 -28 10.5 -41.5t3.5 -22.5q1 -10 3.5 -25.5t4 -32t3 -31t1.5 -22.5q0 -9 -3.5 -19t-8.5 -10q-12 0 -16.5 8.5t-8 29t-8.5 53.5t-19 81q-20 67 -28 126.5t-10 94.5l-4.5 0.5t-12 0.5
t-17 0.5t-17.5 0.5q-17 0 -31 -6.5t-23.5 -14.5t-16 -14.5t-8.5 -6.5q-7 0 -19.5 3.5t-12.5 13.5q0 13 12.5 26.5t30.5 24t39 17t39 6.5q30 0 70 -8t82.5 -22t84 -34t74.5 -44t53 -52t20 -58z" />
    <glyph glyph-name="E" unicode="E" horiz-adv-x="369" 
d="M331 353q1 -2 2 -2.5t1 -2.5q0 -6 -25 -22.5t-62 -37t-78 -41t-73 -33.5q0 -2 -2 -13t-2 -14v-19q0 -23 7 -45.5t21.5 -40.5t35.5 -29t49 -11q12 0 29.5 4.5t34 13t29.5 20.5t16 27q12 -1 14.5 -7t2.5 -8q0 -26 -12.5 -44.5t-31 -30t-39 -17t-36.5 -5.5q-86 0 -125 48
t-39 126q0 4 2 18t2 19q0 1 -4 2.5t-8.5 3.5t-8 6.5t-3.5 12.5t6 13t14 9l10 6q9 38 21.5 73.5t31.5 71.5q-8 0 -17 2t-9 14q0 14 16.5 31t38 32t42.5 25.5t30 10.5q4 0 5.5 -1.5t5.5 -1.5q8 0 20.5 3t26.5 7t26.5 7t20.5 3q9 0 13.5 -6t4.5 -13q0 -8 -10 -11.5t-18 -5.5
q-28 -5 -58.5 -17.5t-56.5 -27.5q-10 -11 -24 -31.5t-27 -46.5t-23.5 -54t-13.5 -53l17 8q77 37 125.5 58t75.5 21q5 0 9 -4z" />
    <glyph glyph-name="F" unicode="F" horiz-adv-x="336" 
d="M356 537q0 -4 -3 -6l-6 -4q-4 -2 -9 -3q-8 0 -14 1t-14 1q-11 0 -43.5 -12.5t-67.5 -31.5t-62.5 -40t-28.5 -37l12 -68q5 -26 8.5 -47t4.5 -21q2 1 13.5 8.5t28.5 17t37.5 20.5t39.5 20t35 15t25 6q7 0 12.5 -3t5.5 -11q0 -6 -14 -17t-35 -24t-45.5 -27.5t-45.5 -27
t-35 -23t-14 -15.5t3.5 -31.5t10 -58.5t15 -62t18.5 -42q2 -2 2 -6q0 -6 -8 -13.5t-14 -7.5q-8 0 -16.5 15t-15.5 38t-13.5 49t-11 49t-7.5 38t-4 15q-3 0 -14 -3.5t-23 -3.5q-9 0 -15.5 7.5t-6.5 15.5t5 14t12 11t15 9t14 8l-28 191q0 8 3 16.5t13 8.5q2 0 6 -4.5t6 -4.5
q3 2 26 20.5t56.5 40t72 39t71.5 17.5q13 0 28 -11t15 -25z" />
    <glyph glyph-name="G" unicode="G" horiz-adv-x="470" 
d="M439 234q0 -20 -2.5 -38t-11 -36.5t-23.5 -39.5t-39 -48q-29 -32 -68 -57t-87 -25q-30 0 -59.5 10t-52 30t-36.5 50t-14 70q0 64 24 134.5t67 151.5q28 53 52 93.5t47 68t46 41.5t49 14q20 0 34.5 -7.5t14.5 -29.5q0 -7 -3 -12.5t-9 -5.5q-8 0 -11.5 4.5t-19.5 4.5
q-27 0 -53 -25t-48.5 -57.5t-39 -64.5t-23.5 -47q-12 -25 -26.5 -59t-27.5 -70t-22 -69.5t-9 -55.5q0 -28 9.5 -49.5t25.5 -36.5t37.5 -22.5t45.5 -7.5q33 0 67.5 16t62 42t45 60t17.5 69t-18 58t-40 23q-14 0 -19.5 -4.5t-10.5 -11.5q-7 -11 -13 -18t-21 -12
q-24 -8 -37.5 -11.5t-19.5 -5.5l-8 -2q-6 0 -16.5 8.5t-10.5 13.5q0 18 21.5 34.5t48.5 30t52 21.5t31 8q30 0 49.5 -12t31 -31t16.5 -41.5t5 -43.5z" />
    <glyph glyph-name="H" unicode="H" horiz-adv-x="382" 
d="M333 285q0 -5 -4.5 -8t-10 -5t-11.5 -4.5t-9 -5.5l7 -47q6 -39 10.5 -76t4.5 -70q0 -26 -5.5 -46.5t-19.5 -20.5q-7 0 -12.5 17.5t-9 40t-5 45t-1.5 32.5q0 7 -1 22.5t-3 33t-4 33t-3 23.5q-17 -1 -46 -4.5t-71 -14.5v-12q0 -22 2 -48.5t4.5 -54t4.5 -55t2 -52.5
q0 -10 -2 -16.5t-9 -6.5q-12 0 -18.5 12t-9.5 28.5t-4.5 34.5l-2.5 30q-4 26 -6.5 60.5t-4.5 70.5q-4 0 -10 2.5t-12 6t-10 7.5t-4 9q0 12 11 19.5t24 12.5q-1 9 -1 19.5v36.5v32.5v49t0.5 60.5t0.5 67q1 8 5 19.5t13 11.5q7 0 12 -5.5t8 -13.5t4.5 -16.5t1.5 -14.5v-239
q9 0 24 1t31 2.5t31.5 3.5t25.5 4l-23 210q-1 7 -1.5 15t-0.5 13q0 20 5.5 32.5t16.5 12.5q14 0 17 -13t4 -38q1 -16 2 -31.5t3 -30.5l23 -169q12 0 24.5 -1.5t12.5 -10.5z" />
    <glyph glyph-name="I" unicode="I" horiz-adv-x="519" 
d="M512 143q0 -19 -23 -28t-53.5 -18.5t-58.5 -17t-49.5 -14t-26.5 -9.5v-5t1 -6l3 -24q0 -9 -2.5 -14t-10.5 -5q-9 0 -12.5 5.5t-6 13t-4 15.5t-5.5 12q-2 0 -16 -4t-35.5 -10t-48 -13.5t-51.5 -13.5t-47 -10t-34 -4q-27 0 -27 17q0 13 7.5 19t17.5 9q2 1 19.5 5t42.5 9.5
t53.5 12.5t53 13t40 11t15.5 7q0 6 -4.5 22t-8.5 30l-6 20q-14 64 -22 129t-13 128q-2 2 -5 2q-5 0 -26 -10t-45 -21.5t-44.5 -21.5t-24.5 -10q-7 0 -13.5 6t-6.5 12q0 8 13 18.5t32.5 22t43 22t45 19t37 13.5t20.5 5q8 0 21 3t28 7t30.5 7t27.5 3q13 0 13 -9q0 -5 -4 -8
l-29 -8q-11 -3 -23.5 -6.5t-23 -8t-17 -10t-6.5 -11.5q0 -25 5.5 -65.5t13 -87t16.5 -94.5t15 -90l179 46q6 1 12 3q5 2 10 3t9 1q9 0 9 -14z" />
    <glyph glyph-name="J" unicode="J" horiz-adv-x="366" 
d="M318 71q0 -54 -25 -71.5t-84 -17.5q-20 0 -47.5 5.5t-53 16.5t-43 27t-17.5 37q0 1 1.5 10.5t4.5 20t7.5 19t9.5 8.5q10 0 11.5 -5.5t1.5 -18.5q0 -18 12.5 -32t30.5 -24t38.5 -15t36.5 -5q13 0 26.5 1.5t24.5 6.5t17.5 14t6.5 24q0 13 -2.5 26.5t-10 35.5t-21.5 56.5
t-36 89.5q-47 116 -61 173.5t-15 61.5q-8 -1 -18 -5t-20.5 -8.5t-20.5 -8.5t-17 -7q-21 -8 -38 -18.5t-30 -20t-22 -16t-15 -6.5q-15 0 -18 14t-3 24q0 11 25 25.5t63 29.5t82.5 29.5t83.5 25.5t66 18t30 7q7 0 8.5 -4t1.5 -7q0 -6 -14.5 -14t-34 -17t-40.5 -17t-34 -13
l-11 -4q5 -8 9 -15t8.5 -18t11 -28.5t18.5 -45.5q22 -54 43 -108t37.5 -100.5t26 -82t9.5 -53.5z" />
    <glyph glyph-name="K" unicode="K" horiz-adv-x="468" 
d="M455 135q0 -10 -13.5 -16.5t-35.5 -6.5q-19 0 -59.5 4t-85.5 13t-85.5 22.5t-59.5 32.5q2 -8 7 -21.5t11 -29.5q11 -28 20.5 -56.5t9.5 -45.5q0 -32 -4.5 -48.5t-19.5 -16.5q-12 0 -17 10t-5 24v5t1 23q0 8 -1 16t-3 14q-16 39 -29.5 78.5t-25.5 87.5q-3 10 -6.5 25.5
t-6.5 41t-5 63t-2 91.5q0 42 7 64.5t17 22.5q9 0 15 -13.5t6 -25.5q0 -33 -0.5 -51t-0.5 -26q0 -31 3 -61.5t7 -56.5q4 -30 10 -57q12 25 26.5 53.5t30.5 57t32 56.5t31 53q10 17 22.5 29t23.5 12q8 0 18 -6.5t10 -17.5q0 -3 -1 -6.5t-2 -5.5q-5 -8 -11.5 -16t-11.5 -16
q-16 -23 -36 -52t-37.5 -57.5t-29.5 -53.5t-12 -40q0 -16 19 -28t47 -20.5t61.5 -14t62.5 -9t49.5 -5t22.5 -1.5q23 0 29.5 -3.5t6.5 -14.5z" />
    <glyph glyph-name="L" unicode="L" horiz-adv-x="384" 
d="M370 76q0 -7 -6 -11q-9 -6 -31 -17t-48.5 -23t-55.5 -25t-53 -23t-40.5 -16.5t-17.5 -6.5q-8 0 -17.5 18t-18.5 48.5t-17 71t-14.5 85.5t-10 91.5t-3.5 89.5q0 64 6.5 100t15 54t15.5 22.5t8 4.5q8 0 13 -7t5 -14q0 -4 -4 -14t-8.5 -28t-8 -46t-3.5 -68q0 -36 3.5 -75
t9.5 -77t13.5 -72t15.5 -60t15 -41.5t13 -15.5q1 0 13 5l30 12.5t39.5 15t43.5 13.5q10 3 23.5 6.5t25.5 6.5t21.5 5t11.5 2q16 0 16 -11z" />
    <glyph glyph-name="M" unicode="M" horiz-adv-x="513" 
d="M519 -54q2 -6 4 -11t3.5 -11t1.5 -11q0 -7 -5 -11.5t-11.5 -7.5t-12.5 -4t-7 -1q-6 0 -22 36.5t-34.5 102.5t-37.5 157t-31 200q-2 -23 -7.5 -53.5t-16.5 -57.5t-28.5 -45.5t-44.5 -18.5q-19 0 -43 20t-46.5 47.5t-41 56t-27.5 46.5q4 -44 13.5 -106t29.5 -131
q2 -7 4.5 -10.5t5 -7.5t4 -8.5t1.5 -13.5q0 -13 -10 -19t-19 -6q-5 0 -13 15.5t-17 40.5t-18 55.5t-16.5 60.5t-12.5 56.5t-5 42.5q0 26 2.5 36t7.5 15v61q0 14 7.5 21.5t19.5 7.5q10 0 23 -17t28.5 -43t32.5 -56t33.5 -56t32 -43t29.5 -17q13 0 25 24.5t22.5 64.5t18.5 91
t13 104q0 6 -1 13.5t-1 16.5q0 12 5.5 26t21.5 14q9 0 14.5 -5t7.5 -12.5t2.5 -15t0.5 -12.5q0 -8 -1.5 -26.5t-1.5 -56.5q0 -33 5 -76.5t13.5 -92t20 -100t25 -100.5t27 -92.5t27.5 -76.5z" />
    <glyph glyph-name="N" unicode="N" horiz-adv-x="473" 
d="M473 39q0 -10 -9 -18t-20 -8q-2 0 -6 2.5t-6 4.5q-42 40 -89 79t-95 80t-94.5 86t-87.5 98q13 -54 35 -114.5t42.5 -113.5t35.5 -91.5t15 -48.5q0 -12 -9.5 -19.5t-19.5 -7.5q-6 0 -13 12.5t-15.5 32.5t-17 44.5t-16.5 49t-15 46t-11 35.5l-27 81q-9 26 -18 53.5
t-16.5 51.5t-12 42t-4.5 24q0 11 3 22.5t11 11.5q5 0 7 -2.5t4 -2.5l12 5q5 0 17.5 -12.5t29 -32.5t35.5 -45t38.5 -49t37 -45t31.5 -33q22 -20 44 -38t44.5 -36.5t47.5 -39.5t55 -48q1 -1 5 -1q2 0 2 5v12q0 14 -8 50.5t-22.5 85t-33.5 104t-40.5 107t-45 93.5t-45.5 65
q-6 6 -8.5 18t-2.5 20q0 7 9.5 15.5t17.5 8.5q12 0 27 -24t32 -62.5t34.5 -86.5t34.5 -97q20 -58 37.5 -114.5t31 -105.5t22 -88t10.5 -61z" />
    <glyph glyph-name="O" unicode="O" horiz-adv-x="403" 
d="M360 258q2 -13 2.5 -21t0.5 -16q0 -25 -6.5 -59t-22 -64.5t-41 -52t-64.5 -21.5q-36 0 -68 20.5t-57 53t-39.5 73t-14.5 80.5q0 58 7.5 99.5t21.5 72.5q0 3 -3.5 6t-3.5 8t9.5 13t23 15.5t27 13t20.5 5.5q4 0 13.5 -4t24.5 -4q5 0 10 1t11 1q21 0 45.5 -19.5t46 -50.5
t37 -70.5t20.5 -79.5zM320 219q0 19 -8 54.5t-24 70t-38.5 60.5t-50.5 26q-2 0 -7.5 0.5t-12.5 1t-13 1t-7 0.5q-16 0 -27.5 -15t-19 -39t-11.5 -55t-4 -62q0 -11 6 -42.5t21.5 -65t41.5 -59.5t66 -26q27 0 44 16.5t26.5 40.5t13.5 49.5t4 43.5z" />
    <glyph glyph-name="P" unicode="P" horiz-adv-x="356" 
d="M313 474q0 -65 -15.5 -114t-35 -86.5t-38 -67t-24.5 -56.5q-5 -18 -22 -18q-2 0 -3 0.5t-3 0.5q7 -17 21 -38.5t28 -43.5t24.5 -43t10.5 -36q0 -8 -10.5 -15.5t-18.5 -7.5q-4 0 -6 5q-10 36 -37 77t-55.5 92t-50.5 115t-22 145q0 34 3.5 57.5t20.5 23.5q10 0 14 -6t4 -13
q0 -91 17 -160t38 -107l17 26q26 40 45 70.5t31 60t17.5 60.5t5.5 72q0 11 -2.5 24t-8 23.5t-13.5 17.5t-20 7q-16 0 -48.5 -9t-66.5 -24t-62 -33.5t-34 -37.5q-1 -2 -3 -5t-4 -3q-7 0 -15 11t-8 19q0 18 16 35t40.5 31t54.5 25.5t58 19t50.5 12t32.5 4.5q16 0 30.5 -9
t24.5 -24t16 -35t6 -42z" />
    <glyph glyph-name="Q" unicode="Q" horiz-adv-x="488" 
d="M476 96q0 -16 -9.5 -32t-25 -29t-35.5 -21t-41 -8q-9 0 -19.5 2.5t-19.5 5.5t-16 6t-9 5q-13 -12 -30 -20.5t-37 -8.5q-38 0 -72 25t-59 67t-39.5 97t-14.5 115q0 43 6.5 93t17.5 92.5t27 70.5t35 28q4 0 16 -3.5t12 -10.5q0 -3 -3 -5.5t-6 -4.5l-10 -10q12 3 27 6t32 3
q24 0 54 -25t55.5 -64t43 -87.5t17.5 -96.5q0 -77 -10.5 -129t-31.5 -94q3 -5 17.5 -8t21.5 -3q16 0 28 6t20.5 15t14 18.5t8.5 16.5q5 12 9 12q9 0 17.5 -6.5t8.5 -17.5zM239 207q0 -19 6 -40t14.5 -39t18.5 -30.5t19 -13.5q8 12 15.5 34.5t13 49.5t8.5 56t3 55
q0 42 -14.5 85.5t-35.5 78.5t-45.5 57.5t-45.5 22.5q-22 0 -38.5 -4t-36.5 -13q-9 -27 -14.5 -50t-9.5 -47t-5.5 -50.5t-1.5 -59.5q0 -51 13 -98t34 -83t46.5 -57t50.5 -21q20 0 33 10q-9 9 -22 25.5t-25 36t-20.5 40t-8.5 39.5q0 6 0.5 16.5t3 20.5t7 17.5t12.5 7.5
q7 0 11.5 -6t7.5 -13.5t4.5 -15.5t1.5 -11z" />
    <glyph glyph-name="R" unicode="R" horiz-adv-x="512" 
d="M592 -46q0 -7 -5 -15t-14 -8q-5 0 -11 3q-36 17 -84 27.5t-98.5 18.5t-98.5 17.5t-84 24.5q6 -13 12 -21l10.5 -14t7.5 -11.5t3 -14.5q0 -8 -6 -12t-12 -4q-12 0 -25.5 15t-27.5 38t-27.5 51.5t-24.5 55.5t-19 49.5t-11 34.5l-44 176q0 3 1.5 8t7.5 10q-4 8 -4 17
q0 28 32 51.5t77.5 40t95.5 25.5t85 9q10 0 30 -1.5t39.5 -7.5t34 -18.5t14.5 -34.5q0 -21 -21.5 -48t-53.5 -57t-69 -61.5t-69 -63t-53.5 -61t-21.5 -54.5q0 -19 16.5 -33.5t41.5 -25.5t54.5 -19t56 -13t46 -7.5t23.5 -2.5q13 0 45 -3t65.5 -10.5t59.5 -19.5t26 -31z
M399 463q0 7 -7 12.5t-18.5 9t-25 5t-26.5 1.5q-20 0 -48 -6t-56.5 -15t-52.5 -18t-35 -15q-21 -12 -41 -26.5t-20 -28.5q0 -2 3 -4t3 -7q0 -6 6 -30.5t14 -55t17.5 -60.5t17.5 -48q41 58 88.5 101.5t87.5 77t66.5 59t26.5 48.5z" />
    <glyph glyph-name="S" unicode="S" horiz-adv-x="456" 
d="M441 145q0 -45 -16 -70.5t-47 -47.5q-8 -5 -22 -12t-31 -13t-36 -10t-35 -4q-45 0 -68 9.5t-23 22.5q0 14 8 23t14 10l11 -8q5 -5 14 -10.5t29 -5.5q19 0 46 6.5t51.5 20t42 33.5t17.5 46q0 23 -34.5 42.5t-108.5 26.5q-38 3 -75 9.5t-66.5 18t-47.5 29t-18 43.5
q0 25 14 48t34.5 42.5t42.5 34.5t37 25q12 7 33.5 18.5t46 22t49 18t41.5 7.5q20 0 27 -11t7 -31q0 -17 -4 -36t-9 -37t-9.5 -31.5t-6.5 -17.5q-4 -9 -9 -12t-7 -3q-4 0 -4 5q0 3 1.5 11.5t4 20.5t4 26t1.5 28q0 22 -2 32t-16 10t-38 -7.5t-49 -18.5q-27 -12 -52.5 -31
t-45.5 -39t-32.5 -38.5t-12.5 -29.5q0 -12 16.5 -22.5t42 -18.5t56.5 -14t61 -9q25 -3 55 -8t56 -16t44 -29.5t18 -47.5z" />
    <glyph glyph-name="T" unicode="T" horiz-adv-x="427" 
d="M592 549q0 -7 -5.5 -11.5t-10.5 -4.5q-9 0 -28.5 -2t-42 -4.5t-44 -5t-34.5 -4.5q-4 0 -16.5 -1t-28 -2.5t-31 -3.5t-24.5 -3q-11 -2 -32 -7t-38 -10q-6 -2 -11 -3t-8 -2q-4 -1 -7 -2l54 -191q3 -9 10 -29t16.5 -44t20 -50t18.5 -48q5 -13 11 -32t11 -38.5t8.5 -35.5
t3.5 -22q0 -14 -8 -29.5t-21 -15.5q-12 0 -12 17v7q0 3 0.5 7t0.5 9q0 8 -6 27.5t-15 44t-19.5 52t-20 52t-16.5 42t-9 23.5q-3 8 -7.5 23t-10.5 34t-12.5 40.5t-12.5 42.5q-15 49 -33 107q-5 -1 -32.5 -4.5t-61.5 -7.5t-65 -7.5t-42 -3.5q-25 0 -32 8t-8 20q0 8 4 16.5
t11 8.5q8 0 12.5 -2.5t11.5 -2.5q2 0 20.5 2t44 5t53 6t48.5 5q5 0 10.5 0.5t10.5 1.5t10 1q0 3 3.5 13.5t7.5 10.5q10 0 16.5 -7.5t11.5 -10.5q7 1 21.5 4.5t31 6.5t32 5.5t26.5 3.5l117 7q15 1 34.5 2.5t38.5 3.5t33 3.5t19 1.5q9 -1 16 -6t7 -11z" />
    <glyph glyph-name="U" unicode="U" horiz-adv-x="399" 
d="M440 -46q0 -12 -6 -15.5t-14 -3.5q-6 0 -16 2q-5 1 -14.5 9.5t-20.5 19.5q-12 12 -26 27l-50 57q-2 -3 -9 -12.5t-17.5 -20t-24.5 -18.5t-30 -8q-11 0 -26.5 6.5t-31.5 18.5t-31.5 29t-26.5 38q-14 27 -23.5 56.5t-15 59.5t-7.5 59.5t-2 55.5q0 37 3.5 53t23.5 16
q8 0 12.5 -5.5t4.5 -11.5q0 -56 8 -113.5t23 -105t37.5 -77.5t52.5 -30q13 0 23 9.5t16.5 22.5t9.5 25t4 18q-6 14 -12.5 37.5t-11.5 51.5t-8 58t-3 58q0 43 0.5 70.5t3.5 43t9 21t17 5.5q6 0 11.5 -3.5t9 -7.5t5.5 -8t2 -5q0 -4 -2 -6.5t-2 -6.5q0 -8 2.5 -23t5.5 -31
q6 -32 11.5 -73t5.5 -95v-42q0 -8 8.5 -32.5t38.5 -71.5q20 -32 37.5 -51t28.5 -30q7 -6 12 -11.5t5 -8.5zM287 288q-1 6 -3 15t-4.5 18t-4 15l-1.5 6q0 -11 0.5 -26.5t2 -31t3.5 -30t5 -24.5q0 7 1 14q0 6 0.5 13.5t0.5 15.5v15z" />
    <glyph glyph-name="V" unicode="V" horiz-adv-x="334" 
d="M295 119q0 -13 -4 -35.5t-10 -44.5t-14 -38t-15 -16q-11 0 -32 19.5t-45 46.5t-46.5 56t-35.5 49q-17 26 -30.5 53t-23 52t-14.5 46.5t-5 36.5q0 13 7.5 22t13.5 9q9 0 13 -6.5t7 -18t7 -27.5t13 -36q10 -24 28.5 -55.5t40.5 -63.5t44.5 -60t41.5 -43q6 17 9 45t3 56
q0 26 -3 60.5t-8.5 71t-12.5 72t-14 64.5l-31 115q0 10 10 16.5t19 6.5q13 0 18 -5.5t6.5 -16.5t2 -27.5t5.5 -37.5q10 -47 19.5 -100.5t17.5 -104t13 -93.5t5 -68z" />
    <glyph glyph-name="W" unicode="W" horiz-adv-x="559" 
d="M519 112q0 -34 -18.5 -58t-63.5 -24q-31 0 -62.5 11t-61.5 29t-57.5 42t-49.5 50q-2 -9 -6 -26t-10 -34t-13.5 -29.5t-15.5 -12.5q-13 0 -28.5 13t-31 34.5t-30 49.5t-25.5 58q-29 83 -37 130.5t-8 51.5q0 6 2 11t9 5q11 0 16.5 -6.5t7.5 -16.5q5 -21 13.5 -48.5
t19 -56.5t22 -56.5t22.5 -49.5t21 -35.5t17 -13.5t10.5 11.5t5.5 26.5t2.5 29t0.5 19q-5 9 -7.5 21t-2.5 20q0 13 6.5 22t12.5 9q4 0 5.5 -1t4.5 -2q3 0 5 0.5t5 0.5q2 0 4.5 -1.5t5.5 -8.5q13 -34 37 -70t54 -65t65 -48t71 -19q13 0 24 8.5t11 22.5q0 42 -8.5 86t-23 90
t-33.5 93.5l-39 97.5q-17 42 -32.5 66.5t-27 39t-18.5 24t-7 23.5q0 17 12.5 25t26.5 8q8 0 18 -15.5t21 -40t22 -54.5l22 -60q16 -44 36 -94.5t37.5 -101t29.5 -97.5t12 -83z" />
    <glyph glyph-name="X" unicode="X" horiz-adv-x="412" 
d="M407 47q0 -11 -6.5 -13t-11.5 -2q-2 0 -26.5 22t-58 52t-67.5 60t-55 46q1 -14 3 -33.5t4 -38t3.5 -33t1.5 -20.5q0 -15 -6.5 -26t-20.5 -11q-10 0 -12.5 2.5t-4.5 13.5q-3 15 -6 40.5t-5 54t-3.5 55.5t-2.5 44l-20 24t-34.5 43t-41 54t-39.5 56t-30 49t-12 33
q0 8 8 19.5t17 11.5q8 0 23.5 -26t36.5 -61t45 -71.5t48 -58.5q2 19 1.5 36t0.5 33q0 8 1 29t3 47.5t5.5 54.5t10 51.5t15 38.5t21.5 15q8 0 10 -12t2 -16q0 -37 -4.5 -71t-9.5 -69.5t-9.5 -75.5t-4.5 -89v-6t2 -8q4 -9 23 -27t44.5 -40.5t54 -47.5t52.5 -49.5t39.5 -45
t15.5 -34.5z" />
    <glyph glyph-name="Y" unicode="Y" horiz-adv-x="314" 
d="M317 335q0 -14 -6.5 -20t-14.5 -6q-9 0 -17.5 3t-21.5 8l-15 6q-2 -5 -2.5 -12.5t-0.5 -12.5q0 -35 3 -76t7 -82t9.5 -80t9.5 -70.5t7 -53t3 -27.5v-25q0 -11 -2.5 -20t-10.5 -9q-15 0 -25.5 24.5t-17 56t-9.5 61t-3 39.5q0 7 -2.5 34t-5.5 60.5t-5.5 68t-2.5 58.5
q0 10 -0.5 22.5t-0.5 23.5v31q0 16 -22.5 33t-54.5 37.5t-66 47t-56 63.5q-3 1 -3 9q0 14 6 25t16 11q3 0 9 -7.5t15 -18.5t21 -24.5t27 -25.5q10 -9 28 -22.5t35.5 -26.5t30.5 -22.5t14 -9.5q4 0 5 8t1 10l5 60q5 51 12.5 92.5t7.5 72.5q0 3 -2 12t-2 12q0 6 4 9.5t9 5.5
q6 3 14 4q14 0 20 -10.5t6 -19.5q0 -36 -4.5 -70t-10 -68t-10 -69.5t-4.5 -74.5q0 -6 7 -12.5t17.5 -12t23.5 -11t25 -9.5z" />
    <glyph glyph-name="Z" unicode="Z" horiz-adv-x="563" 
d="M562 79q0 -11 -12 -17t-27 -6q-3 0 -9 0.5t-13 1.5t-12 2l-5 1q-34 0 -81 -11.5t-96.5 -25t-97.5 -25t-85 -11.5q-46 0 -67 11.5t-21 48.5q0 25 17 59t42 71t55 75.5t55 72.5t42 61.5t17 43.5q0 13 -19.5 20t-41.5 7q-12 0 -19.5 -1.5t-21 -3t-38.5 -2.5t-73 -1
q-15 0 -27.5 7.5t-12.5 17.5q0 7 9 17.5t15 11.5q3 0 16 -4t22 -4q43 0 71 -1t49 -3q10 -1 31 -0.5t42.5 -3.5t37.5 -14.5t16 -32.5q0 -18 -11.5 -43t-30 -53t-41 -58t-44.5 -58q-23 -30 -41.5 -53t-31 -43.5t-19.5 -38.5t-7 -37q0 -4 4 -6.5t10 -3.5t12 -1.5t10 -0.5
q16 0 62 9t105.5 20.5t123 20.5t114.5 9q11 0 19 -4.5t8 -20.5z" />
    <glyph glyph-name="bracketleft" unicode="[" horiz-adv-x="369" 
d="M156 437q-11 -18 -22.5 -54t-20.5 -76.5t-14.5 -79t-5.5 -60.5q0 -56 3.5 -86t17.5 -30q7 0 19.5 1.5t27.5 4.5t30 7t26 10q9 -1 11 -6t2 -7q0 -7 -14.5 -16t-34.5 -16.5t-41 -13t-34 -5.5q-8 0 -19.5 1t-15.5 8q-9 18 -13.5 53t-4.5 96q0 23 4.5 57t12.5 70.5t18.5 71.5
t22.5 62q-7 2 -12 3.5t-5 10.5q0 17 10 23t27 13q3 2 10.5 9.5t21.5 7.5q4 0 8 -1.5t7 -1.5q5 0 15.5 3t22 6.5t22 6.5t15.5 3q8 0 12 -5.5t4 -11.5q0 -7 -12 -13t-29 -12t-37 -14t-35 -19z" />
    <glyph glyph-name="backslash" unicode="\" horiz-adv-x="307" 
d="M34 483q4 2 7.5 3.5t5.5 1.5q4 0 10.5 -9t14.5 -25t17 -37.5t17 -45.5q13 -40 29 -86.5t32.5 -93.5t32 -90t28.5 -76q28 -71 28 -73t-3.5 -12.5t-6.5 -10.5q-2 0 -10 11q-38 50 -66.5 117t-52.5 138t-45 141t-43 127q-1 0 -1 2v6q0 10 6 12z" />
    <glyph glyph-name="bracketright" unicode="]" horiz-adv-x="548" 
d="M389 68q0 -8 -7 -15t-15.5 -13t-15.5 -11t-7 -9q0 -5 1 -10t1 -10q0 -17 -11 -17q-9 0 -12 4t-4.5 10t-2.5 11.5t-5 8.5q-4 0 -18 -5t-32.5 -11t-40 -11t-40.5 -5q-25 0 -25 15q0 11 7.5 17t16.5 9q1 0 20 4.5t42 10.5t42 12.5t19 10.5q0 5 -3 16t-6.5 22.5t-6.5 21
t-3 12.5q-7 33 -14 73t-12.5 81.5t-10 81.5t-7.5 73q-2 3 -7 3t-14.5 -3.5t-22 -9.5t-25.5 -13t-23 -13q-4 -2 -7 -2q-6 0 -12.5 5.5t-6.5 10.5q0 12 19.5 25.5t44.5 25t48.5 19t30.5 7.5q11 0 14.5 -2.5t3.5 -7.5t-1.5 -13t-1.5 -16q0 -2 1 -13t2.5 -25.5t3 -30t3.5 -25.5
l48 -297q11 2 25 6t20 4q7 0 7 -12z" />
    <glyph glyph-name="asciicircum" unicode="^" horiz-adv-x="576" 
d="M218 438q6 29 9.5 36t14.5 7q10 0 16 -7t14.5 -20.5t22 -34t39.5 -47.5q7 -9 32 -27.5t52.5 -38t49 -38t21.5 -27.5q0 -5 -4 -12t-11 -7q-9 0 -25 10t-36.5 26t-44 36t-45 40t-41 38t-31.5 31q-15 -60 -37.5 -121t-45.5 -118l-32 -82q-4 -2 -7 -4t-7 -2q-5 0 -11.5 4
t-6.5 10q0 8 6.5 28.5t15.5 45t18.5 48t15.5 38.5q6 16 14 40t16.5 50.5t15.5 52t12 45.5z" />
    <glyph glyph-name="underscore" unicode="_" horiz-adv-x="319" 
d="M339 -45q0 -5 -4.5 -12t-10.5 -8q-3 -1 -33.5 -4t-77.5 -3q-7 0 -29 1t-48 2.5t-51.5 3t-38.5 1.5q-5 0 -21.5 -1t-24.5 -1q-19 0 -19 15q0 9 5.5 13.5t13.5 6.5t16.5 2.5t15.5 0.5q16 0 42.5 -1t52.5 -2.5t47.5 -2.5t28.5 -1q14 0 30 1t32 2.5t30 3t24 1.5
q11 0 15.5 -6.5t4.5 -11.5z" />
    <glyph glyph-name="grave" unicode="`" horiz-adv-x="269" 
d="M57 548q3 3 7 3q5 0 12.5 -3.5t14.5 -8.5t21 -19.5t28 -31t26 -30.5t16 -17q1 -1 5 -2t9 -2.5t9 -3.5t4 -5q0 -8 -10.5 -19t-17.5 -11q-6 0 -19 7q-14 7 -32 26.5t-34.5 41.5t-28 42.5t-11.5 29.5q0 1 0.5 1.5t0.5 1.5z" />
    <glyph glyph-name="a" unicode="a" horiz-adv-x="487" 
d="M515 208q0 -18 -16.5 -44.5t-44.5 -51.5t-65 -42.5t-77 -17.5q-18 0 -38 6t-39 17.5t-34 28t-22 37.5q-6 -6 -14.5 -20t-18.5 -28.5t-22 -25t-25 -10.5t-21.5 13.5t-13.5 30t-7 31.5t-2 17q0 12 7 45.5t21 69.5t35.5 64t50.5 28q11 0 14.5 -9.5t3.5 -18.5v-30
q5 -4 10.5 -5.5t10 -4t7 -7.5t2.5 -16q0 -7 -1 -12.5t-1 -10.5q0 -26 4 -51t16 -44.5t33 -32t56 -12.5q44 0 74.5 18.5t51 41t32.5 41t20 18.5q13 0 13 -13zM164 252q0 4 -2 7.5t-2 6.5q0 4 2 7t2 8q0 3 -2 4.5t-2 3.5q-9 -2 -18.5 -17t-18 -35t-13.5 -40.5t-5 -33.5
q0 -7 4 -23t9 -21q17 35 31.5 68t14.5 65z" />
    <glyph glyph-name="b" unicode="b" horiz-adv-x="331" 
d="M278 199q0 -45 -10.5 -79t-25.5 -56.5t-30.5 -33.5t-25.5 -11q-14 0 -27 12.5t-13 23.5q0 16 13 16q5 0 10 -3.5t9 -5.5q17 14 32.5 46t15.5 91q0 24 -5 43t-11.5 32t-13.5 20t-10 7q-10 0 -19.5 -20t-16.5 -45.5t-11.5 -50t-4.5 -33.5q1 -6 2 -11l2 -10t1 -10
q0 -19 -13 -34t-25 -15q-6 0 -9.5 8.5t-5.5 21.5t-3.5 27t-3.5 25q-8 18 -21 57t-27.5 83.5t-27 86.5t-18.5 67q-14 54 -21.5 94.5t-12 71t-5.5 52.5t-1 37q0 9 7.5 14t13.5 5q9 0 13 -3.5t5.5 -14.5t3 -32t5.5 -56q2 -17 7.5 -47t14.5 -67t19.5 -77.5t22 -77.5t23 -68
t21.5 -49q9 36 22 65q11 24 27 44.5t39 20.5q9 0 24 -8t29.5 -27t25 -50t10.5 -76z" />
    <glyph glyph-name="c" unicode="c" horiz-adv-x="368" 
d="M328 182q0 -10 -3 -20.5t-6 -17.5q-2 -3 -18.5 -20.5t-41 -36.5t-55 -34.5t-58.5 -15.5q-17 0 -34.5 6t-32.5 19.5t-24.5 33.5t-9.5 49q0 48 16 87t32 62q7 11 18.5 22.5t22.5 21t20.5 15.5t13.5 6q9 0 16.5 -5t7.5 -10q0 -8 -4.5 -13.5t-12.5 -12t-19 -17t-23 -27.5
q-24 -33 -35.5 -67.5t-11.5 -60.5t19.5 -41.5t40.5 -15.5q38 0 67.5 17t50.5 38t34 38t19 17q11 0 11 -17z" />
    <glyph glyph-name="d" unicode="d" horiz-adv-x="360" 
d="M323 161q0 -5 -4.5 -9.5t-5.5 -9.5q0 -11 4.5 -21t4.5 -24q0 -13 -8 -13q-10 0 -14.5 -2.5t-15.5 -4.5q-6 0 -13 11q-4 5 -7 12q0 1 -5.5 -4t-18 -11.5t-34 -12t-54.5 -5.5q-28 0 -49 12.5t-34.5 32.5t-20 45.5t-6.5 51.5q0 24 5.5 45.5t15.5 38t25 26.5t35 10
q19 0 38 -12t34 -26t24.5 -25.5l9.5 -11.5q-14 78 -25 141q-5 27 -9.5 53.5t-8.5 47.5t-6.5 35.5t-2.5 17.5q-1 6 -2 21.5t-2 32.5t-2 31t-2 18l-7.5 25t-4.5 17q0 5 5 12.5t13 7.5q6 0 11 -1t9 -6t7.5 -15.5t6.5 -29.5q1 -10 6 -38t10 -61t10 -63t7 -44q5 -38 13.5 -82.5
t17.5 -85.5t18 -72.5t16 -42.5q2 -4 8 -5.5t8 -6.5zM249 141q-1 3 -12.5 25.5t-29 49t-39 47.5t-41.5 21q-17 0 -27.5 -26t-10.5 -60q0 -38 22.5 -61t50.5 -23q24 0 50 8t37 19z" />
    <glyph glyph-name="e" unicode="e" horiz-adv-x="349" 
d="M318 105q1 -2 1 -6q0 -6 -9 -18q-3 -4 -13 -13t-27 -18t-41.5 -16t-57.5 -7q-23 0 -45 10.5t-39 31t-28 51t-11 71.5q0 39 10 73t25.5 60t34.5 41t37 15q16 0 32.5 -6.5t30 -16.5t21.5 -22.5t8 -25.5q0 -15 -13.5 -31t-32.5 -29.5t-38 -22t-30 -8.5q-6 0 -10.5 5.5
t-4.5 13.5q0 14 12.5 22t27.5 14.5t27.5 15.5t12.5 25q0 2 -5 10t-27 8q-10 0 -23 -11.5t-25 -31t-20 -46t-8 -57.5q0 -26 9.5 -47t24.5 -35.5t35 -22.5t41 -8q15 0 32.5 6.5t33 14t27 14t14.5 6.5t6.5 -3t4.5 -6z" />
    <glyph glyph-name="f" unicode="f" horiz-adv-x="391" 
d="M367 717q1 -2 1 -7v-11q0 -7 -5 -7q-2 0 -5 1t-5 2q-18 8 -43.5 20.5t-57.5 12.5q-36 0 -58 -27t-33.5 -62.5t-15 -69.5t-3.5 -49q0 -11 3.5 -34.5t9.5 -48.5t14 -45.5t16 -25.5q6 0 21.5 1t25.5 1q17 0 32 -3t31 -3h12t16.5 -1t14.5 -3.5t6 -6.5q0 -5 -7 -9t-16 -6.5
t-18 -3.5t-14 -1t-13 0.5t-17.5 1.5t-18 1.5t-14.5 0.5q-16 0 -19.5 -3.5t-3.5 -13.5q0 -15 13.5 -40.5t29.5 -54.5t29.5 -60t13.5 -57q0 -5 -2.5 -18.5t-7 -27.5t-12.5 -25t-18 -11q-8 0 -14.5 4.5t-6.5 15.5q0 16 8.5 30t8.5 30q0 8 -7.5 27t-18.5 42.5t-24 49.5
t-24.5 47.5t-19.5 35.5t-9 15q-20 -7 -41 -14t-38 -21q-7 -7 -13 -7q-10 0 -18.5 8t-8.5 18q0 11 6.5 17.5t12.5 9.5q9 5 28 11t38 10q7 2 13 3.5t6 6.5q-3 10 -8.5 26.5t-11 39.5t-9.5 51.5t-4 61.5q0 36 8.5 76t27 73.5t46.5 55t67 21.5q18 0 40 -3.5t40.5 -10t31 -16
t12.5 -21.5z" />
    <glyph glyph-name="g" unicode="g" horiz-adv-x="331" 
d="M288 88q0 -11 -8 -15t-8 -11q-1 1 4 -11t9 -25q7 -27 12.5 -47t9 -37t5.5 -34t2 -38t-7 -43t-20 -39t-32 -28t-43 -11q-37 0 -58.5 15t-32.5 34t-14 37.5t-3 24.5q0 37 19 74t42 67t42 50t19 23l-11 33q-10 -12 -17.5 -26.5t-16 -27t-20 -21t-28.5 -8.5q-18 0 -36 11
t-32 33t-22.5 53t-8.5 72q0 23 7 57.5t22 66.5t37.5 54.5t52.5 22.5q17 0 31.5 -6t14.5 -15q0 -8 -3 -13t-8 -10q-3 2 -6.5 4t-9.5 2q-22 0 -39.5 -19.5t-29.5 -48t-18.5 -59.5t-6.5 -54q0 -51 17 -77.5t36 -26.5q9 0 19.5 13.5t20 30t16.5 31.5t8 18q2 10 2 23
q0 11 -0.5 24.5t-0.5 27.5q0 26 4 43.5t20 17.5t23 -9.5t7 -22.5q0 -9 -0.5 -21.5t-0.5 -24t-0.5 -20t-0.5 -10.5q0 -6 1.5 -17.5l3 -23t3 -21t2.5 -12.5l3 -9t4 -9q1 2 4 4.5t5 4.5q5 -3 9.5 -11.5t4.5 -9.5zM254 -39q-4 16 -9 32t-10 33q-17 -21 -32.5 -40.5t-28 -38.5
t-20 -39.5t-7.5 -43.5q0 -31 17.5 -51t38.5 -20q23 0 43.5 17t20.5 49q0 21 -1 35t-2.5 24.5t-4 20t-5.5 22.5z" />
    <glyph glyph-name="h" unicode="h" horiz-adv-x="384" 
d="M360 185q5 -5 5 -6q0 -2 -5.5 -12t-14.5 -21t-19.5 -19.5t-20.5 -8.5q-21 0 -34 8.5t-21.5 21.5t-13 28.5t-7.5 29.5q-2 7 -4 7q-3 0 -12 -21.5t-19.5 -47t-20 -47t-12.5 -21.5q-18 0 -30.5 15.5t-20 36t-11.5 42t-5 33.5q-3 27 -13 90t-17 153q-2 19 -4.5 34.5
t-5.5 34.5t-5 43t-2 59q0 2 1 13t3 24t6.5 23t10.5 10q7 0 13 -8.5t10.5 -19.5t6.5 -21t2 -14q0 -15 -2 -28t-2 -24q0 -15 2.5 -38t6.5 -47t7 -46.5t5 -36.5q0 -1 2 -14t4.5 -32.5t5 -42t5.5 -44t5.5 -38t3.5 -23.5q0 -3 1.5 -8.5t3 -12.5t3.5 -13t5 -9q6 12 15.5 37t20 51
t20 45.5t16.5 19.5q8 0 13 -3t13 -5q10 -4 10 -10.5t2 -15.5q2 -12 6.5 -31.5t10.5 -38t14 -31.5t16 -13q4 0 11 10.5t19 11.5q2 0 7 -2.5t10 -6.5z" />
    <glyph glyph-name="i" unicode="i" horiz-adv-x="155" 
d="M99 460q0 -2 -7 -8t-16.5 -12.5t-19.5 -11.5t-16 -5q-4 0 -10.5 0.5t-13 3.5t-11.5 8.5t-5 14.5q0 14 10 26.5t26 12.5q3 0 13.5 -2.5t21.5 -6.5t19.5 -9t8.5 -11zM132 86q0 -7 -10.5 -12t-15.5 -5q-10 0 -18 13t-14 30t-10 32.5t-6 21.5q-3 10 -8 24t-9.5 27t-7.5 23
t-3 11q0 14 5.5 26t13.5 12q9 0 19 -14t19.5 -35.5t17.5 -47t14 -48t9.5 -39t3.5 -19.5z" />
    <glyph glyph-name="j" unicode="j" horiz-adv-x="155" 
d="M89 456q0 -2 -5.5 -8t-13 -12.5t-15 -11.5t-11.5 -5q-16 0 -30.5 7t-14.5 19q0 5 1.5 12t5 13.5t9.5 11t15 4.5q6 0 16 -2.5t19.5 -7t16.5 -10t7 -10.5zM164 -94q0 -14 -8 -25.5t-19 -19.5t-23 -12.5t-20 -4.5q-24 0 -55.5 7.5t-59 24t-46.5 42t-19 62.5q0 4 2 7.5t7 3.5
q7 0 17.5 -15.5t28.5 -34.5t46 -34.5t72 -15.5q14 0 19.5 3t5.5 20q0 16 -4.5 35t-10.5 37.5t-11.5 35.5t-8.5 29q-1 3 -6.5 25.5t-11.5 52t-11 57.5t-5 41q0 7 2 19t13 12q5 0 11 -12.5t12.5 -31t12 -40.5t10 -41.5t7.5 -33.5t4 -17q2 -8 10 -29t16.5 -47.5t15.5 -53.5
t7 -46z" />
    <glyph glyph-name="k" unicode="k" horiz-adv-x="398" 
d="M395 107q0 -8 -2 -11.5t-10 -5.5q-9 -3 -22.5 -6.5t-29.5 -7t-32.5 -6t-30.5 -2.5q-17 0 -37.5 2t-39.5 6.5t-34.5 10t-22.5 13.5q5 -21 9 -42t6 -42q0 -5 -2.5 -8.5t-13.5 -3.5q-5 0 -9.5 2.5t-7.5 10.5q-9 20 -15 37.5t-10.5 35.5l-9.5 38t-12 44q-11 39 -23 83.5
t-22 85t-16 72t-6 44.5q0 6 0.5 16t3 19.5t7 16t12.5 6.5q5 0 10.5 -15.5t10 -34t8 -35t3.5 -17.5q4 -22 9.5 -48.5t11.5 -53.5t13 -51.5t15 -41.5q1 10 7 29t16 41t22.5 45.5t26 42.5t27 31t25.5 12q19 0 26.5 -5t7.5 -12q0 -6 -17 -23.5t-38 -46t-38 -67t-17 -85.5
q0 -17 9.5 -29.5t25 -20.5t35 -12.5t38.5 -4.5q17 0 37 1t37.5 2.5t30 2.5t15.5 1q5 0 9 -3t4 -10z" />
    <glyph glyph-name="l" unicode="l" horiz-adv-x="211" 
d="M173 29q0 -8 -6 -12t-14 -4q-9 0 -18.5 17t-18.5 43t-17 56.5t-14 57t-9.5 44.5t-3.5 20q0 4 -3.5 21t-9 53t-12 93.5t-13.5 142.5q0 9 3 23t14 14q14 0 21.5 -19t12 -47t6.5 -58.5t5 -53.5q4 -32 7.5 -58t7 -51.5t9 -53.5t13.5 -62l40 -166v0z" />
    <glyph glyph-name="m" unicode="m" horiz-adv-x="524" 
d="M484 94q0 -8 -5 -14t-12 -9.5t-14.5 -5.5t-12.5 -2q-21 0 -36 22.5t-25 50t-14.5 51.5t-4.5 26q-6 -11 -12.5 -37t-15.5 -52.5t-22.5 -47t-34.5 -20.5q-10 0 -19 12t-17 31t-15.5 43t-15 47t-14.5 43.5t-14 32.5q-6 -15 -10.5 -41t-7.5 -54.5t-5 -56.5t-2 -49
q0 -14 -7.5 -20t-15.5 -6q-11 0 -22 14.5t-22 37.5t-20.5 52t-17 58t-11.5 55.5t-4 44.5q0 13 1 24q1 9 1.5 17t0.5 9q0 3 -1.5 4t-1.5 5q0 3 7.5 9.5t15.5 6.5q14 0 18.5 -6t4.5 -14q0 -3 -0.5 -9t-0.5 -27q0 -14 5 -42t12 -57t14.5 -53.5t12.5 -30.5q2 4 2.5 9.5t1.5 8.5
l11 82q4 31 16.5 65.5t26.5 53.5q5 8 11 8t11 -9q17 -28 25.5 -55.5t15 -54t15 -53t26.5 -53.5q8 13 20 42.5t24.5 59.5t23.5 52.5t17 22.5q3 0 10 -1t10 -1q9 0 15 -20.5t10.5 -48l9 -55t10.5 -41.5q4 -10 12 -19t16 -17z" />
    <glyph glyph-name="n" unicode="n" horiz-adv-x="352" 
d="M340 123q0 -6 -4 -12t-9.5 -11t-12 -8.5t-11.5 -3.5q-17 0 -43.5 7.5t-42.5 23.5q-17 17 -30 40.5t-29 69.5q-11 -44 -25.5 -87t-46.5 -79q-2 -2 -6 -2q-7 0 -15 7t-8 14t-1.5 32.5t-3.5 57t-3.5 64t-1.5 53.5q0 10 1 26.5t6 28.5q1 2 7.5 8t14.5 6q7 0 8 -9t1 -20v-158
q0 -5 1.5 -14t4.5 -13q11 24 20.5 56.5t18.5 62t18 50t18 20.5q10 0 16 -4t10 -16q5 -29 8 -51.5t7.5 -40.5t13 -33.5t23.5 -28.5q14 -13 31.5 -19t30.5 -6q6 0 13 2.5t10 2.5q4 0 7.5 -7t3.5 -9z" />
    <glyph glyph-name="o" unicode="o" horiz-adv-x="280" 
d="M219 216q0 -22 -6 -42t-16 -35t-23.5 -23.5t-29.5 -8.5q-28 0 -44 16t-24.5 37t-11 42.5t-2.5 32.5q0 18 5.5 40.5t15 41.5t21.5 32t25 13q3 0 9.5 -2t13.5 -6t12.5 -10t7.5 -14q11 -1 22 -8t12 -11q8 -26 10.5 -52t2.5 -43zM174 234q0 15 -3 31.5t-12 33.5q-2 -1 -5 -1
q-4 0 -6.5 1t-4.5 1q-12 0 -19 -6.5t-10.5 -17t-4.5 -22.5t-1 -23t1 -24.5t4.5 -25.5t9.5 -20.5t16 -8.5t17 10.5t11 24.5t5.5 27.5t1.5 19.5z" />
    <glyph glyph-name="p" unicode="p" horiz-adv-x="377" 
d="M361 289q0 -26 -14.5 -50t-35.5 -44.5t-46 -38t-46 -30.5q-20 -14 -33 -23t-13 -14q0 -13 3 -36.5t7.5 -51t9 -56.5t6.5 -53q0 -1 1.5 -9t4 -18t4 -18.5t1.5 -10.5q0 -7 -0.5 -15.5t-3 -16t-7.5 -12.5t-13 -5q-11 0 -16 9.5t-5 18.5q0 2 0.5 4t0.5 5q0 11 -8 59
t-18 114.5t-18 143t-8 144.5q0 5 1 11.5t1 11.5q-10 -1 -29.5 -9t-38.5 -19.5t-33.5 -24t-14.5 -22.5h-7q-3 0 -7.5 4t-8 9t-6.5 10t-3 7q0 21 25 39.5t62.5 33t82.5 23t85 8.5q39 0 65.5 -9t42.5 -21.5t23 -25.5t7 -22zM312 292q0 10 -25 20.5t-59 10.5q-30 0 -44 -2
t-19 -4q-2 -16 -3 -38t-1 -45q0 -24 1.5 -46.5t3.5 -37.5q14 9 38.5 24.5t48.5 35t41.5 41t17.5 41.5z" />
    <glyph glyph-name="q" unicode="q" horiz-adv-x="295" 
d="M276 -93q0 -3 -1 -10t-3.5 -13.5t-7.5 -12t-13 -5.5q-23 0 -30 14t-7 31q0 4 -2 13t-4 20l-4 22t-2 19q0 15 -1.5 34t-4 38.5t-5 37.5t-4.5 32l-3 3q-11 -7 -19.5 -17t-17 -19t-18 -15t-22.5 -6q-18 0 -32 12.5t-23 29.5t-13.5 34.5t-4.5 27.5q0 22 9.5 50t26.5 52.5
t40.5 41.5t52.5 17q11 0 20 -6t16.5 -14.5t13 -17.5t9.5 -14q11 -13 17 -22.5t6 -23.5q0 -3 -3 -18t-3 -25q0 -41 2.5 -83.5t6.5 -79t8 -63.5t6 -37q2 -8 8 -10.5t6 -16.5zM189 243q-1 10 -7.5 25t-26.5 15q-17 0 -31 -14.5t-24 -34t-15 -38t-5 -27.5q0 -2 1.5 -9t4 -15
t6.5 -14t9 -6q12 0 27 16.5t28.5 37.5t23 40t9.5 24z" />
    <glyph glyph-name="r" unicode="r" horiz-adv-x="316" 
d="M276 305q0 -7 -6 -11.5t-14 -7.5t-16 -4.5t-13 -1.5q-15 0 -20 2t-8 2q-25 0 -40 -4t-23.5 -13t-11 -22.5t-2.5 -32.5q0 -32 2.5 -51t5 -31t5 -18.5t2.5 -12.5q0 -8 -8.5 -17t-15.5 -9q-12 0 -21.5 21.5t-16 51t-10.5 58.5t-4 44q0 17 3 32.5t8 27t11 18.5t12 7
q5 0 8 -3.5t5 -8t4.5 -8t6.5 -3.5q9 0 29 9t49 9q27 0 40.5 -1.5t26.5 -6.5q3 -1 7.5 -4.5t4.5 -10.5z" />
    <glyph glyph-name="s" unicode="s" horiz-adv-x="311" 
d="M265 132q0 -17 -11.5 -29.5t-29 -21t-38.5 -13.5t-40 -7.5t-33.5 -3t-18.5 -0.5q-22 0 -34 7t-12 25q0 6 1 10.5t8 4.5q3 0 10 -1.5t11 -1.5t25.5 1.5t46 5.5t44 11.5t19.5 19.5q0 2 -20.5 12.5t-61.5 35.5q-32 20 -45 40.5t-13 55.5q0 22 9.5 36t26 22t38 11.5t45.5 3.5
q2 0 12.5 -2t22.5 -6.5t21.5 -11t9.5 -14.5q0 -2 -3.5 -6t-11.5 -15q-3 1 -10.5 3t-17 4.5t-19.5 4t-16 1.5q-26 0 -42 -9.5t-16 -36.5q0 -13 10.5 -24t26.5 -20.5t34.5 -19t34.5 -20.5t26.5 -23.5t10.5 -28.5z" />
    <glyph glyph-name="t" unicode="t" horiz-adv-x="319" 
d="M305 452q-13 -15 -37 -29.5t-48 -26.5t-42 -20.5t-18 -11.5t4 -18t9.5 -35.5t11.5 -42.5t10 -39q2 -10 5 -26t5.5 -32t4.5 -28.5t2 -13.5q0 -15 -5 -31t-16 -16q-6 0 -11 5t-9 11.5t-6 12.5t-2 9q0 2 0.5 6t0.5 9q0 19 -6 55q-2 11 -8 34t-12 47q-7 28 -16 61
q-4 14 -5 14q-7 0 -23 -8l-23 -13q-22 -11 -41 -25l-32 -18l-15 -7q-16 -9 -18 -9q-14 1 -21 9q-8 11 -8 20q1 8 17 18q2 1 21 11l42 21q43 22 50 25q11 4 26 11l17 8q-9 46 -15 82q-5 31 -9.5 57t-4.5 28q0 13 5.5 19.5t12.5 6.5q11 0 14 -15q11 -54 20.5 -96t18.5 -68
q9 2 31 11.5t46 20.5t43.5 19.5t22.5 8.5q4 0 8 -4q4 -5 3 -7z" />
    <glyph glyph-name="u" unicode="u" horiz-adv-x="369" 
d="M369 166q0 -9 -12 -19t-28 -18.5t-32.5 -14.5t-24.5 -6q-9 0 -19.5 5t-20 12t-16.5 13t-9 8q-3 -3 -9 -12t-14.5 -19.5t-18 -18.5t-19.5 -8q-26 0 -45 28t-31.5 64t-19 69.5t-6.5 45.5q0 7 7.5 11.5t11.5 4.5q14 0 19 -9.5t5 -20.5q0 -9 5.5 -32t13.5 -47t17 -42.5
t16 -18.5q13 0 22.5 16.5t15.5 38t9 41t3 25.5q0 1 0.5 6.5t1.5 11.5t1.5 11t0.5 7q0 7 -3 9.5t-3 10.5q0 6 6 11.5t26 5.5q8 0 12.5 -4.5t6.5 -10.5t2.5 -11.5t0.5 -7.5q0 -1 -1 -14t-1.5 -28.5t-1.5 -29.5t-1 -17t3 -12t7.5 -18.5t10.5 -17t13 -7.5q12 0 22.5 3.5t20 8
t17.5 8t15 3.5q9 0 16.5 -4t7.5 -10z" />
    <glyph glyph-name="v" unicode="v" horiz-adv-x="282" 
d="M234 352q0 -3 -5 -26t-10 -52q-3 -17 -9.5 -50.5t-6.5 -101.5q0 -2 -0.5 -10.5t-3 -17.5t-7.5 -16.5t-15 -7.5q-9 0 -20 8q-25 18 -46 42t-36 52.5t-23 59.5t-8 63q0 4 5.5 7.5t8.5 3.5q15 0 23.5 -17t17 -41t20 -50.5t34.5 -45.5q3 4 5 15t3 19q1 7 3 27.5t4.5 43.5
t4 44t1.5 29q0 6 1 14t4.5 15t9.5 12t16 5q5 0 17 -6.5t12 -17.5z" />
    <glyph glyph-name="w" unicode="w" horiz-adv-x="387" 
d="M342 440q4 -1 4 -6q0 -7 -7 -14.5t-7 -16.5q0 -2 -0.5 -15t-0.5 -29t-0.5 -30t-0.5 -16v-99q0 -1 -1 -14t-3.5 -31t-5 -37.5t-5.5 -33.5q-1 -4 -5.5 -6t-10 -3.5t-10.5 -2t-6 -0.5q-11 0 -23.5 13t-23.5 29t-19 30t-9 16q-4 -14 -9 -28.5t-11 -26.5t-13.5 -20t-16.5 -8
q-12 0 -25 12t-26.5 31t-25.5 42.5t-21 45.5t-14.5 41t-5.5 30q0 4 4 10t11 6q14 0 20 -9q1 -1 6.5 -18t15.5 -40t23.5 -47.5t30.5 -41.5q7 13 11.5 29t7.5 31t4 27.5t1 20.5q-2 8 -3 16q-1 7 -1.5 14t-0.5 12q0 25 20 25q15 0 23 -9.5t12 -22t5.5 -24.5t3.5 -17
q8 -23 14.5 -43t22.5 -41q4 3 6.5 10.5t3.5 15.5t1 14.5v9.5v199q0 6 5 11t12 9t13.5 6.5t9.5 2.5q5 0 9.5 -3t10.5 -6z" />
    <glyph glyph-name="x" unicode="x" horiz-adv-x="367" 
d="M332 93q0 -19 -11.5 -26t-24.5 -7q-23 0 -52 20.5t-61 46.5q-1 -2 -5.5 -21.5t-12 -42.5t-18.5 -42t-25 -19q-10 0 -16 7.5t-6 10.5q0 7 7 26.5t15 42t15 42.5t7 29q0 4 -16 25t-35 49.5t-35 60.5t-16 59q0 7 6 14t11 7q6 0 16.5 -4.5t12.5 -12.5q10 -33 26 -70.5
t48 -72.5q3 11 7 30t9 41t10.5 44t11 40t10.5 29t10 11t15.5 -3.5t10.5 -14.5l-3 -16.5t-8 -39.5t-11 -49.5t-12 -47.5q-1 -3 -3.5 -11t-5 -17t-4.5 -16.5t-2 -9.5q0 -9 14.5 -21.5t32.5 -24t34.5 -19.5t20.5 -8q3 0 8 1t8 1q8 0 12.5 -9t4.5 -12z" />
    <glyph glyph-name="y" unicode="y" horiz-adv-x="282" 
d="M249 468q-13 -69 -24 -133q-5 -27 -10 -56.5t-9.5 -58t-8 -54t-5.5 -46.5q-4 -32 -6 -73t-4 -78q-2 -43 -2 -87q0 -9 -2 -20t-2 -22q0 -10 -4.5 -17t-13.5 -7q-8 0 -12.5 12.5t-7.5 29t-4 33t-1 23.5v19.5t1.5 34t4.5 59t9 95.5q0 1 -13.5 10t-33 22.5t-40 29.5t-34.5 31
q-2 2 -6 9t-4 17q0 5 5 10.5t11 5.5q4 0 8 -4q23 -20 53 -44.5t59 -44.5q2 18 8.5 55t13.5 79.5t13.5 82.5t9.5 64q0 4 2 13t6 18t9 15.5t11 6.5q3 0 13 -5.5t10 -24.5z" />
    <glyph glyph-name="z" unicode="z" horiz-adv-x="405" 
d="M406 205q0 -8 -1.5 -16t-6.5 -10q-20 -9 -52 -15.5t-59 -17.5q-17 -7 -42 -19t-52 -24t-52 -20.5t-41 -8.5q-13 0 -25 10t-12 21q0 20 18.5 48.5t43 58.5t48 57.5t33.5 44.5q-1 0 -3 1.5t-6 1.5q-31 -10 -58 -18q-23 -7 -47.5 -12.5t-39.5 -5.5q-10 0 -15.5 9t-5.5 20
q0 3 1.5 6t6.5 3q13 3 39.5 10t56.5 14.5t57.5 13t42.5 5.5q11 0 23.5 -8.5t19.5 -21.5l-149 -191l-6 -12q0 -4 3 -4q8 0 22.5 7t40 20t66 31t100.5 39q10 3 19 3q15 0 23.5 -7t8.5 -13z" />
    <glyph glyph-name="braceleft" unicode="{" horiz-adv-x="423" 
d="M91 244q0 16 17.5 32.5t38.5 30t39.5 22t21.5 9.5q5 2 10.5 7t5.5 8q0 1 -19 6t-42 17t-42 34t-19 59q0 23 11.5 48t32.5 46t51.5 35t69.5 14q13 0 28 -2.5t27.5 -7.5t20.5 -13t8 -20q0 -6 -3.5 -9t-8.5 -8q-12 11 -27.5 17t-39.5 6q-32 0 -55 -12.5t-37.5 -30.5
t-21.5 -38t-7 -35q0 -16 9.5 -26.5t24 -17.5t31.5 -12t31.5 -11t24 -14t9.5 -20q0 -14 -16 -27.5t-37 -26t-41 -23.5t-29 -20q17 2 37.5 7t39.5 10.5t34 10t22 4.5q14 0 18.5 -5t4.5 -18q0 -5 -10.5 -25t-24 -44t-27 -47t-18.5 -33q-6 -11 -17 -31t-22.5 -40.5t-19.5 -36
t-8 -18.5q0 -7 3 -9t6 -2q7 0 30.5 8t50 17t50 17t29.5 8q2 0 6.5 -6t4.5 -11t-23.5 -17.5t-56.5 -26t-67.5 -24t-56.5 -10.5q-13 0 -23 8t-10 22t9 36.5t23 49t31 55t32.5 53.5t27.5 44.5t17 28.5q-24 -8 -51 -13t-68 -5q-15 0 -27.5 4.5t-12.5 21.5z" />
    <glyph glyph-name="bar" unicode="|" horiz-adv-x="405" 
d="M271 -286q-1 -14 -22 -14q-9 0 -16.5 18t-14 44.5t-11.5 58t-8.5 59t-5 46t-1.5 20.5q0 6 -2 42.5t-4.5 92t-5.5 125t-5.5 141.5t-4.5 141.5t-2 125.5v186q0 10 5 22.5t16 12.5q14 -2 18 -23t4 -50v-17.5t-0.5 -35t-0.5 -68.5v-119q0 -21 2 -70t5 -112.5t7 -134t8 -134
t8 -114.5t7 -74l24 -169v0z" />
    <glyph glyph-name="braceright" unicode="}" horiz-adv-x="461" 
d="M357 371q0 -19 -15.5 -40t-34.5 -40t-34.5 -35t-15.5 -24q0 -1 11 -0.5t28 -1.5t36.5 -7t36.5 -16.5t28 -32t11 -51.5q0 -24 -10 -51.5t-31 -51.5t-52.5 -40t-74.5 -16q-17 0 -33.5 6t-16.5 23q0 4 2.5 7t5.5 9q18 -10 39 -10q34 0 57.5 13t37.5 32t20 40.5t6 37.5
q0 25 -11.5 37.5t-28.5 18t-37.5 6.5t-37.5 3t-28.5 8t-11.5 22q0 14 12.5 30.5t29 32.5t31.5 31t21 26q-22 -9 -43 -21t-38.5 -22.5t-30.5 -17.5t-19 -7t-11.5 5t-5.5 16q0 7 5 29.5t11.5 48.5t13 49.5t8.5 34.5q3 12 8 33t10.5 43t9.5 39.5t4 22.5q0 6 -3.5 8t-5.5 2
q-3 0 -23.5 -13.5t-44.5 -30t-46.5 -30.5t-29.5 -16q-2 -1 -7.5 3.5t-7.5 9.5q0 4 22 24.5t52 44t61.5 42.5t51.5 19q14 0 23 -9.5t9 -30.5q0 -17 -4.5 -42t-11.5 -52.5t-15 -56t-15.5 -53.5t-13.5 -44t-8 -28q11 4 25.5 13t31 17.5t35.5 15t39 6.5q8 0 16 -4t8 -14z" />
    <glyph glyph-name="asciitilde" unicode="~" horiz-adv-x="562" 
d="M516 235q0 -18 -7 -40t-21.5 -40.5t-36.5 -31t-52 -12.5q-24 0 -47.5 12.5t-45.5 30.5t-41 40t-34 40t-24.5 30.5t-12.5 12.5q-9 0 -28 -14.5t-38.5 -31.5t-34 -32t-15.5 -15q-11 -9 -20 -9q-5 0 -7.5 4t-2.5 9q0 12 19.5 34t45.5 44t51 38.5t36 16.5q17 0 39.5 -27
t48 -59.5t53 -59.5t55.5 -27q19 0 33 7.5t23.5 19.5t14 26t4.5 27q0 3 -1 7t-1 7q4 2 15 6t12 4q9 0 14.5 -6t5.5 -11z" />
    <glyph glyph-name="uni007F" 
 />
    <glyph glyph-name="uni00A0" unicode="&#xa0;" horiz-adv-x="0" 
 />
    <glyph glyph-name="exclamdown" unicode="&#xa1;" horiz-adv-x="261" 
d="M51 496q0 11 6.5 22.5t16.5 11.5q13 0 24.5 -13t11.5 -30q0 -6 -2.5 -15.5t-12.5 -9.5q-4 0 -11 1t-14.5 4.5t-13 10.5t-5.5 18zM189 -3q0 -8 -6 -12t-14 -4q-14 0 -23.5 16.5t-15.5 36.5t-8.5 38t-2.5 20t-2 18.5t-4.5 40.5t-5.5 52.5t-5.5 55t-4.5 47t-2 29.5v13
t1.5 15.5t4.5 13t8 5.5q8 0 15 -19t13 -47t10 -58.5t7 -53.5q8 -64 17.5 -119t17.5 -88z" />
    <glyph glyph-name="cent" unicode="&#xa2;" horiz-adv-x="368" 
d="M375 174q-5 -9 -13 -16.5t-13 -12.5q-2 -2 -14 -5.5t-29.5 -8t-39.5 -7.5t-44 -3q-24 0 -47 6t-40.5 18.5t-28.5 32t-11 47.5q0 14 3.5 28t12.5 29q22 39 49.5 63.5t55.5 38.5t53.5 19.5t43.5 5.5q13 0 19.5 -8t6.5 -15q0 -8 -7 -11.5t-18.5 -6t-27.5 -6t-34 -11.5
q-49 -23 -80.5 -55.5t-31.5 -58.5q0 -21 11 -34.5t27 -22t34.5 -12t32.5 -3.5q22 0 42 4.5t36.5 10t28.5 10t18 4.5q5 0 7 -3.5t2 -6.5q0 -5 -4 -10zM384 588q0 -2 -5.5 -15t-14 -31t-18.5 -38.5t-20 -38t-18 -29t-12 -11.5q-10 0 -13 8t-3 17t2 17q1 7 11 28.5t23 45t27 42
t25 18.5q7 0 11.5 -4t4.5 -9zM185 57q-3 -18 -12.5 -45t-19.5 -53q-12 -30 -26 -63q-2 -4 -8.5 -7t-14.5 -3q-11 0 -14 6t-3 14q0 16 6.5 35.5t16 41.5t20 45.5t17.5 47.5q3 11 9 24t17 13q9 0 12.5 -6.5t3.5 -16.5q0 -7 -1 -15.5t-3 -17.5z" />
    <glyph glyph-name="sterling" unicode="&#xa3;" horiz-adv-x="436" 
d="M272 196q0 -5 -13.5 -12.5t-34 -15t-45 -15.5t-46.5 -14q8 -29 20 -54t15 -55q21 5 47 10.5t51.5 10t49 7t39.5 2.5q5 0 16 -1t11 -9q0 -14 -12.5 -20.5t-38.5 -12.5t-66.5 -13.5t-96.5 -23.5q-3 -28 -14 -45.5t-34 -17.5q-16 0 -25.5 7t-9.5 26t6.5 36.5t26.5 28.5
q-2 22 -13 46t-20 66q-5 -2 -8 -2h-4q-18 0 -23 7t-5 24q0 13 3 16.5t7 3.5q5 0 8.5 -3.5t8.5 -3.5q3 0 6 1q-1 11 -1.5 23t-0.5 26q0 36 8.5 73.5t27 68t46.5 50t67 19.5q24 0 47 -6t41 -16t28.5 -24t10.5 -29q0 -7 -5 -7q-8 0 -20 6.5t-26 14.5t-31 14.5t-36 6.5
q-24 0 -41.5 -11.5t-30 -30t-20 -40.5t-11.5 -43.5t-5.5 -39.5t-1.5 -28v-16q16 4 34 9t34 9.5t28.5 7t18.5 2.5q12 0 22.5 -2.5t10.5 -10.5z" />
    <glyph glyph-name="currency" unicode="&#xa4;" horiz-adv-x="548" 
d="M449 103q-17 3 -32.5 7.5t-27.5 9.5q-16 -24 -36 -38.5t-38.5 -23t-34 -11.5t-21.5 -3h-10t-10 2q-4 -16 -9 -30t-10 -25q-6 -12 -12 -23q-2 -4 -8.5 -7t-14.5 -3q-11 0 -14 6t-3 14q0 14 2.5 22.5t6.5 16.5t10 18t12 28q-25 18 -40.5 48t-15.5 67q0 19 3.5 37.5
t8.5 35.5q-16 7 -34 15.5t-33 16.5t-25 15.5t-10 11.5q0 10 8 13t17 3t17 -2t30.5 -11t43.5 -22q5 13 8 23t3 18q0 2 -0.5 5t-0.5 6q0 6 4 9q8 6 12.5 9t10.5 3q7 0 20 -3.5t18 -3.5h11.5t13.5 1l16 2q8 0 19 -1.5t23 -4.5q2 7 8 22t15 30.5t19.5 27.5t21.5 12q7 0 11.5 -4
t4.5 -9q0 -2 -4 -12.5t-10.5 -24t-14 -29t-14.5 -27.5q23 -13 40 -37t17 -65q0 -42 -11 -73q9 -5 21.5 -11t36.5 -13q11 -3 24 -9t13 -17q0 -9 -6.5 -12.5t-16.5 -3.5q-7 0 -15.5 1t-17.5 3zM264 91q29 0 51.5 13.5t36.5 36.5q-4 5 -4 17q0 11 5.5 14t13.5 3q9 27 9 61
q0 22 -8 38t-20.5 26t-28.5 14.5t-31 4.5q-20 0 -35 -3t-32 -3l-17 -51q4 -5 4 -10q0 -6 -3.5 -10.5t-7.5 -5.5q-6 -21 -6 -38q0 -21 5 -46.5t22 -42.5q3 2 5.5 4t6.5 2q8 0 12 -6.5t4 -15.5q5 -2 18 -2z" />
    <glyph glyph-name="yen" unicode="&#xa5;" horiz-adv-x="401" 
d="M340 130q0 -3 -8.5 -8t-23 -10.5t-33.5 -11t-40 -11.5q4 -51 10 -87t6 -57q0 -11 -2 -17.5t-10 -6.5q-15 0 -23 8.5t-11.5 20.5t-4.5 25t-1 23q0 12 -1.5 28t-3.5 51q-37 -10 -65.5 -16t-31.5 -6q-17 0 -22 6.5t-5 21.5q0 11 3 13.5t7 2.5q5 0 12.5 -1.5t11.5 -1.5
q5 0 30.5 6t57.5 14l-5 54q-38 -5 -67 -9t-30 -4q-5 0 -9.5 5t-4.5 11q0 5 3 8.5t5 5.5q5 3 26 9.5t65 12.5q-14 20 -38.5 44.5t-48.5 49t-42 47t-18 39.5q0 14 8 24.5t16 10.5q6 0 17.5 -23t40.5 -55q9 -10 23.5 -26t28 -31t24 -26t12.5 -11q5 0 8 7.5t4 10.5l22 61
q9 27 14.5 44.5t8.5 32t4.5 28.5t1.5 32t8.5 21.5t18.5 3.5q11 0 15.5 -10t4.5 -17q0 -23 -8.5 -53.5t-19.5 -64.5t-23 -68.5t-18 -64.5q19 2 31.5 3t22.5 1h20.5t25.5 2q5 0 10.5 -7t5.5 -11q0 -8 -9 -12t-14 -4q-8 0 -36.5 -3t-63.5 -8v-25.5t1 -24.5q26 7 47 11.5t28 4.5
q11 0 21.5 -2t10.5 -10z" />
    <glyph glyph-name="brokenbar" unicode="&#xa6;" horiz-adv-x="405" 
d="M271 -286q-1 -14 -22 -14q-9 0 -16.5 18t-14 44.5t-11.5 58t-8.5 59t-5 46t-1.5 20.5q0 5 -1 28.5t-3 61t-4.5 86.5t-4.5 103q4 12 17 12q14 0 26 -12q3 -54 6.5 -107t6.5 -99t6 -81.5t6 -54.5zM210 522q0 -18 1 -55.5t3 -86.5q-2 -3 -6 -5q-8 -4 -15 -4q-11 0 -20 9
q-2 64 -3.5 124t-1.5 110v186q0 10 5 22.5t16 12.5q14 -2 18 -23t4 -50v-17.5t-0.5 -35t-0.5 -68.5v-119z" />
    <glyph glyph-name="section" unicode="&#xa7;" horiz-adv-x="311" 
d="M265 132q0 -17 -11.5 -29.5t-29 -21t-38.5 -13.5t-40 -7.5t-33.5 -3t-18.5 -0.5q-22 0 -34 7t-12 25q0 6 1 10.5t8 4.5q3 0 10 -1.5t11 -1.5t25.5 1.5t46 5.5t44 11.5t19.5 19.5q0 2 -20.5 12.5t-61.5 35.5q-32 20 -45 40.5t-13 55.5q0 26 16.5 40t38.5 22
q-13 7 -26 14.5t-23.5 16t-17.5 18.5t-7 22q0 26 19.5 42t44 24.5t47.5 11.5t29 3q22 0 34 -7t12 -25q0 -6 -1 -10.5t-8 -4.5q-3 0 -10 1.5t-11 1.5t-21 -2t-35.5 -7.5t-33 -14t-14.5 -20.5q0 -2 20.5 -12.5t61.5 -35.5q32 -20 45 -40.5t13 -55.5q0 -26 -13 -41t-35 -23
q26 -14 46.5 -30t20.5 -39zM197 280q0 15 -9.5 25.5t-26.5 10.5t-28 -13.5t-11 -34.5q0 -15 9.5 -25.5t26.5 -10.5t28 13.5t11 34.5z" />
    <glyph glyph-name="dieresis" unicode="&#xa8;" horiz-adv-x="275" 
d="M118 441q0 -2 -5 -8t-12.5 -12.5t-16 -11.5t-14.5 -5q-4 0 -10.5 0.5t-13 3.5t-11.5 8.5t-5 14.5q0 14 10 26.5t26 12.5q3 0 11.5 -2.5t17.5 -6.5t16 -9t7 -11zM241 444q0 -6 -6 -11.5t-13.5 -10t-14.5 -7t-8 -2.5q-9 0 -13.5 4.5t-7 10t-3 10.5t-0.5 7q0 4 2 10.5
t6 12.5t9.5 10.5t12.5 4.5q13 0 24.5 -11t11.5 -28z" />
    <glyph glyph-name="copyright" unicode="&#xa9;" horiz-adv-x="701" 
d="M589 354q0 -73 -18 -126t-46 -91t-61.5 -61.5t-65 -36.5t-56.5 -18t-36 -5q-40 0 -76.5 18t-64.5 49.5t-44.5 74t-16.5 91.5q0 42 10 83t22.5 76.5t22.5 64t10 45.5q0 5 -1 9.5t-1 9.5q0 8 6 14.5t13.5 11.5t15.5 8t12 3q6 0 15 -2t19 -4t18.5 -4t13.5 -2q8 0 20 0.5
t23 1.5q13 1 28 2q16 0 39.5 -3t50 -11.5t53 -23t47.5 -38t34.5 -57t13.5 -79.5zM306 56q48 0 92.5 23.5t78 64.5t54 96t20.5 117q0 48 -22.5 80.5t-54 52.5t-65.5 28.5t-57 8.5q-20 0 -37.5 -2t-33.5 -4l-32 -4t-34 -2q-5 -20 -16.5 -51t-23.5 -67t-21 -73t-9 -68
q0 -30 10 -65t30.5 -65t50.5 -50t70 -20zM483 283q0 -9 -3 -19t-6 -16q-2 -3 -16.5 -18.5t-37 -32.5t-49.5 -31t-53 -14q-15 0 -31.5 5.5t-30 17t-22 30t-8.5 44.5q0 43 15 79t29 56q7 10 17 20.5t20 19t18.5 14t12.5 5.5q8 0 14.5 -4.5t6.5 -8.5q0 -7 -4 -12t-11 -11.5
t-17 -15.5t-21 -25q-22 -30 -32.5 -61.5t-10.5 -54.5q0 -24 17.5 -37.5t37.5 -13.5q34 0 61 15.5t46 34t30.5 34t16.5 15.5q11 0 11 -15z" />
    <glyph glyph-name="ordfeminine" unicode="&#xaa;" horiz-adv-x="367" 
d="M349 365q0 -17 -16 -39t-38.5 -42t-46 -33.5t-38.5 -13.5q-14 0 -33.5 9.5t-32.5 26.5q-8 -11 -21.5 -25.5t-39.5 -14.5q-9 0 -17.5 5t-16 12t-12 15.5t-4.5 15.5q0 27 12 57t28.5 54.5t34 41t28.5 16.5q8 0 18.5 -9t10.5 -16q0 -3 -5.5 -7.5t-8.5 -7.5q-11 -9 -24 -25
t-24 -33.5t-18.5 -33.5t-7.5 -25q0 -3 3 -8t7 -5q11 1 17.5 14.5t11.5 29.5t9.5 29t11.5 13q10 0 17 -6t11 -14.5t5.5 -16.5t1.5 -12q0 -5 4.5 -11t10.5 -12t12.5 -10t10.5 -4q18 0 36 8.5t34.5 22t31.5 31t27 34.5q2 -1 6 -4t4 -7z" />
    <glyph glyph-name="guillemotleft" unicode="&#xab;" horiz-adv-x="412" 
d="M230 55q0 -9 -5.5 -11t-10.5 -2q-1 0 -5 2.5t-15.5 12t-32.5 27.5t-57 49l-5.5 5.5t-3.5 11.5v4.5t1.5 28t3.5 74.5t7 144q1 6 3 15.5t6 18.5t11 15t18 6q7 0 8.5 -11t1.5 -16q0 -37 -3.5 -62t-7.5 -49.5t-7.5 -54.5t-3.5 -78q0 -2 0.5 -5t2.5 -7q6 -12 21.5 -24.5
t31.5 -26.5t28.5 -30.5t12.5 -36.5zM361 121q0 -19 -11.5 -26t-24.5 -7q-23 0 -52 20.5t-61 46.5l-28 22q-9 6 -9 16q0 1 0.5 2t2 6t4.5 14.5t9 27.5q3 11 7 30t9 41t10.5 44t11 40t10.5 29t10 11t15.5 -3.5t10.5 -14.5l-3 -16.5t-8 -39.5t-11 -49.5t-12 -47.5
q-1 -3 -3.5 -11t-5 -17t-4.5 -16.5t-2 -9.5q0 -9 14.5 -21.5t32.5 -24t34.5 -19.5t20.5 -8q3 0 8 1t8 1q8 0 12.5 -9t4.5 -12z" />
    <glyph glyph-name="logicalnot" unicode="&#xac;" horiz-adv-x="415" 
d="M382 289q0 -21 -3 -47.5t-3 -46.5q0 -26 -5.5 -41.5t-19.5 -15.5q-7 0 -11.5 9.5t-6.5 23t-3 28t-1 24.5q0 13 0.5 17.5t1.5 14.5q-9 0 -34 -2t-55.5 -5t-61.5 -7.5t-53 -9.5l-44 -10q-3 0 -9 2t-12 5.5t-10.5 8t-4.5 9.5q0 14 10.5 23t24.5 9q11 0 35.5 1.5t55 4.5
t63 5.5t59.5 5.5t45 4.5t19 1.5q9 0 16 -2t7 -10z" />
    <glyph glyph-name="uni00AD" unicode="&#xad;" horiz-adv-x="350" 
d="M318 220q0 -5 -4.5 -12t-10.5 -8q-3 -1 -33.5 -4t-77.5 -3q-14 0 -35.5 1.5t-48.5 1.5q-5 0 -21 -3t-24 -3q-19 0 -19 15q0 11 8 17t17.5 9t19 3.5t12.5 0.5q33 0 50 -2.5t31 -2.5t30 1t32 2.5t30 3t24 1.5q11 0 15.5 -6.5t4.5 -11.5z" />
    <glyph glyph-name="registered" unicode="&#xae;" horiz-adv-x="701" 
d="M494 187q0 -5 -5 -12t-13 -7q-5 0 -9 2q-14 8 -31.5 12.5t-36 7.5t-37 5.5t-36.5 7.5q2 -3 6 -12.5t4 -13.5q0 -8 -5.5 -12t-10.5 -4q-10 0 -22 16.5t-23 38.5t-19.5 43.5t-10.5 30.5l-23 97q0 11 6 17.5t14 11.5q25 17 60 27.5t64 10.5q5 0 15.5 -0.5t21 -4.5t18 -11.5
t7.5 -20.5q0 -17 -19 -37.5t-43 -40.5t-46 -41t-22 -37q0 -10 14.5 -17t32.5 -11t34.5 -6t20.5 -2t19.5 -1.5t32 -6t29.5 -12t13 -18.5zM389 416q0 2 -8.5 3t-16.5 1q-14 0 -29 -4t-28.5 -9t-23 -9t-10.5 -5l-13 -9q0 -3 2 -12t5 -20.5t6 -24t6 -22.5q18 22 37.5 40
t35.5 31.5t26.5 23t10.5 16.5zM596 364q0 -73 -18 -126t-46 -91t-61.5 -61.5t-65 -36.5t-56.5 -18t-36 -5q-40 0 -76.5 18t-64.5 49.5t-44.5 74t-16.5 91.5q0 42 10 83t22.5 76.5t22.5 64t10 45.5q0 5 -1 9.5t-1 9.5q0 8 6 15t14 12t15.5 7.5t11.5 2.5q6 0 15 -2t19 -4
t18.5 -4t13.5 -2q8 0 20 0.5t23 1.5q13 1 28 2q16 0 39.5 -3t50 -11.5t53 -23t47.5 -38t34.5 -57t13.5 -79.5zM313 66q48 0 92.5 23.5t78 64.5t54 96t20.5 117q0 48 -22.5 80.5t-54 52.5t-65.5 28.5t-57 8.5q-20 0 -37.5 -2t-33.5 -4l-32 -4t-34 -2q-5 -20 -16.5 -51
t-23.5 -67t-21 -73t-9 -68q0 -30 10 -65t30.5 -65t50.5 -50t70 -20z" />
    <glyph glyph-name="macron" unicode="&#xaf;" horiz-adv-x="308" 
d="M283 464q-1 -5 -16.5 -9.5t-39 -8.5t-51.5 -7t-53.5 -5.5t-44.5 -3.5t-25 -1q-13 0 -19 7.5t-6 16.5q0 5 4 17t12 12q5 0 8 -4t7 -5q45 0 88.5 4t90.5 4q6 0 13.5 -1t14 -3t11.5 -5t6 -8z" />
    <glyph glyph-name="degree" unicode="&#xb0;" horiz-adv-x="312" 
d="M253 397q0 -16 -6.5 -44.5t-20 -56.5t-34.5 -49t-49 -21q-13 0 -27.5 2.5t-26.5 9t-19.5 17.5t-7.5 28q0 10 5.5 23.5t14 26t19.5 21t23 8.5q7 0 15.5 -5.5t8.5 -12.5q0 -8 -4.5 -15t-10.5 -14t-10.5 -15t-4.5 -17q0 -5 3 -8t5 -3q16 0 30.5 12.5t25.5 30t17.5 35
t6.5 26.5q0 6 -6 6q-3 0 -11.5 -4t-16.5 -4q-9 0 -14 8.5t-5 10.5q0 4 4.5 11t10.5 13t12.5 10.5t11.5 4.5q7 0 17.5 -1t20 -5t16.5 -10.5t7 -18.5z" />
    <glyph glyph-name="plusminus" unicode="&#xb1;" horiz-adv-x="394" 
d="M320 289q0 -3 -5.5 -7.5t-13.5 -8.5t-17.5 -7.5t-17.5 -4.5q-17 -4 -35 -5t-34 -4q1 -4 3 -13.5t4 -21l4 -23t2 -20.5q0 -19 -6.5 -33.5t-23.5 -14.5q-6 0 -11.5 4t-5.5 16q0 11 1 18.5t1 16.5q0 8 -3.5 27.5t-8.5 34.5q-10 0 -25 -1.5t-18 -1.5q-14 0 -25.5 3.5
t-11.5 14.5q0 9 5.5 12t11.5 3q1 0 9.5 1.5t18 3.5t17 4.5t7.5 4.5t-2.5 14.5l-5.5 27.5t-5.5 30.5t-2.5 23.5q0 1 0.5 6t2 10t4.5 9t9 4q19 0 22 -12q8 -34 11.5 -56t5.5 -35t4.5 -18t10.5 -5q24 3 45 6l34 4t22 2q2 0 12.5 -2t10.5 -7zM347 78q0 -8 -9 -12t-14 -4
q-6 0 -25 -2t-44 -5.5t-52 -7t-50 -7t-38.5 -5.5t-16.5 -2q-5 0 -9.5 5t-4.5 11q0 5 3 8.5t5 5.5q3 2 11 5.5t24 7.5t42 8t67 7q19 1 30.5 1.5t21 1t19 0.5t24.5 2q5 0 10.5 -7t5.5 -11z" />
    <glyph glyph-name="twosuperior" unicode="&#xb2;" horiz-adv-x="239" 
d="M206 275q0 -12 -9.5 -18t-15.5 -6t-9.5 2l-7 4t-8 4t-13.5 2q-11 0 -19.5 -6t-17.5 -13.5t-18 -13.5t-19 -6q-17 0 -22 10t-5 26q0 3 9 20.5t23.5 44.5t32.5 60t37 67q-50 -18 -70.5 -24.5t-24.5 -6.5q-2 0 -9 4t-7 16q0 4 16 13.5t38 19.5t45.5 18t38.5 8q11 0 20 -7.5
t9 -21.5q0 -11 -9.5 -32t-23 -45t-28 -48t-25.5 -41q9 3 17.5 4t13.5 1t15.5 -1.5t20.5 -5t17.5 -10.5t7.5 -18z" />
    <glyph glyph-name="threesuperior" unicode="&#xb3;" horiz-adv-x="239" 
d="M210 465q0 -10 -9.5 -20t-22.5 -18.5t-26.5 -15t-21.5 -10.5q12 -3 25 -9t23.5 -14.5t17.5 -19.5t7 -24q0 -16 -11.5 -30.5t-28.5 -26t-36 -18t-35 -6.5q-10 0 -21 2t-20.5 6.5t-15.5 11t-6 16.5q0 5 6.5 15.5t12.5 16.5q19 -18 42 -18q9 0 19.5 3t20.5 8.5t16.5 12
t6.5 14.5q0 9 -13 12.5t-28.5 7.5t-28.5 11.5t-13 24.5q0 15 23.5 27t56.5 30q-1 0 -4 1t-4 1q-11 0 -21 -3.5t-19 -7t-16 -7t-11 -3.5q-14 0 -19 4.5t-5 18.5q0 8 14.5 16t33.5 14t36 9.5t22 3.5q6 0 15 -1.5t17.5 -5t14.5 -10.5t6 -19z" />
    <glyph glyph-name="acute" unicode="&#xb4;" horiz-adv-x="268" 
d="M220 504q0 -8 -12 -23t-28.5 -31t-34 -29.5t-27.5 -18.5q-8 -4 -14 -5t-10 -1q-8 0 -20 9t-12 17q0 2 9 5.5t20 9.5q10 6 26.5 19.5l33 27t30 23.5t18.5 10q7 0 14 -4t7 -9z" />
    <glyph glyph-name="mu" unicode="&#xb5;" horiz-adv-x="623" 
d="M173 190q0 -127 120 -127q83 0 120 45.5t37 148.5v279h88v-536h-71l-14 72h-5q-53 -82 -161 -82q-71 0 -115 45h-4q5 -36 5 -119v-156h-88v776h88v-346z" />
    <glyph glyph-name="paragraph" unicode="&#xb6;" horiz-adv-x="737" 
d="M530 -175q0 -8 -6 -12t-14 -4q-7 0 -14 9.5t-13.5 25.5t-13 36.5t-12.5 41.5q-5 -1 -10 -1.5t-10 -0.5q-6 0 -11.5 0.5t-12.5 0.5q6 -18 11.5 -33.5t5.5 -17.5q0 -14 -3.5 -26t-11.5 -12q-7 0 -14 8.5t-13.5 22t-12.5 31t-12 35.5q-49 10 -103.5 30t-100.5 47.5t-76 61
t-30 70.5q0 34 12 65t34 60t51.5 56.5t64.5 53.5q37 28 86 54t98.5 46t93.5 32.5t71 12.5q18 0 26.5 -4.5t8.5 -20.5q0 -11 -8 -26t-16 -15t-11.5 5t-3.5 11v8q0 1 1 2q-25 -3 -61.5 -12t-84.5 -29q10 -10 16.5 -38t10.5 -61.5t6 -67t5 -54.5q4 -32 7.5 -58t7 -51.5t9 -53.5
t13.5 -62l2 -7q14 9 22.5 18t11.5 9q7 0 19.5 -3.5t12.5 -13.5q0 -16 -16 -31t-39 -26zM400 -28q-1 0 13.5 -1.5t31.5 -1.5q-8 31 -12 53.5t-4 24.5q0 8 -13.5 97.5t-27.5 260.5v11t2 11q-19 -8 -39.5 -18t-42.5 -22q-38 -21 -75 -49.5t-66.5 -61t-47.5 -68t-18 -69.5
q0 -24 24.5 -49.5t62 -48t81.5 -39t82 -22.5q-9 29 -16.5 63.5t-13.5 68t-10 63t-5 49.5q-2 10 -4 25.5t-3.5 32t-3 31t-1.5 22.5q0 9 3.5 19t8.5 10q12 0 19 -9t11.5 -30t8 -55t10.5 -83q10 -70 21.5 -125t23.5 -90z" />
    <glyph glyph-name="periodcentered" unicode="&#xb7;" horiz-adv-x="325" 
d="M196 198q0 -6 -6 -11.5t-13.5 -10t-14.5 -7t-8 -2.5q-9 0 -13.5 4.5t-7 10t-3 10.5t-0.5 7q0 4 2 10.5t6 12.5t9.5 10.5t12.5 4.5q13 0 24.5 -11t11.5 -28z" />
    <glyph glyph-name="cedilla" unicode="&#xb8;" horiz-adv-x="328" 
d="M147 70q1 -2 1 -6q0 -10 -7.5 -19.5t-15.5 -17.5l-13 -13t-10 -18q2 -4 6.5 -5t9.5 -1q3 0 17.5 1t20.5 1q7 0 23.5 -2.5t34 -10t30.5 -21t13 -35.5q0 -18 -14 -30.5t-32 -21t-34.5 -12.5t-21.5 -4q-17 0 -29.5 13t-12.5 30q0 3 5 3t12.5 -2t14.5 -2q2 0 12 2.5t21.5 7
t21 10.5t9.5 14q0 5 -5.5 9.5t-13.5 7.5t-16.5 5t-15.5 2q-13 0 -19.5 -1t-18.5 -1q-7 0 -17.5 1t-20.5 5.5t-17 12t-7 21.5q0 6 9.5 20.5t22.5 29t27 25.5t23 11q3 0 4.5 -3t2.5 -6z" />
    <glyph glyph-name="onesuperior" unicode="&#xb9;" horiz-adv-x="188" 
d="M154 270q0 -11 -12 -17t-17 -6q-14 0 -22 16.5t-12.5 39.5t-6.5 46.5t-4 38.5l-4 29q-6 -4 -13.5 -8.5t-14 -9t-11 -7t-5.5 -2.5q-4 0 -9 9t-5 13q0 2 4 9.5t15 17.5t19 21t14.5 20t12.5 14.5t13 5.5q8 0 13 -5t8 -12t4.5 -15t1.5 -13q0 -54 5 -88.5t10.5 -55t10.5 -29.5
t5 -12z" />
    <glyph glyph-name="ordmasculine" unicode="&#xba;" horiz-adv-x="250" 
d="M215 398q0 -16 -6.5 -44.5t-19.5 -56.5t-33.5 -48.5t-48.5 -20.5q-26 0 -47 12t-21 47q0 10 7 28.5t18 36.5t24 31.5t25 13.5q2 0 8 -2q1 4 5.5 10.5t10.5 12.5t12 10t11 4q7 0 16.5 -1t18 -4.5t14.5 -10t6 -18.5zM140 374q-8 -5 -17 -16.5t-17.5 -25.5t-14 -27.5
t-5.5 -21.5q0 -5 3 -8t5 -3q16 0 30.5 13.5t26 31.5t18 36.5t6.5 27.5q0 6 -6 6q-3 0 -13 -4.5t-16 -8.5z" />
    <glyph glyph-name="guillemotright" unicode="&#xbb;" horiz-adv-x="392" 
d="M305 294q6 -6 6 -16q0 -17 -12 -68.5t-20 -123.5q-2 -12 -8.5 -21t-17.5 -9t-14.5 5.5t-3.5 22.5q0 12 4.5 35.5t10.5 50.5t11.5 52.5t8.5 42.5q-3 8 -21 33.5t-38 56.5t-36 62t-16 50q0 5 6 17.5t18 12.5q2 0 6.5 -2t6.5 -6q13 -25 23 -48t21.5 -46.5t26.5 -48.5t38 -52
zM203 199q0 -2 -4.5 -22t-12 -43t-19 -41.5t-25.5 -18.5q-10 0 -16 7.5t-6 10.5q0 7 7.5 27.5t16 43.5t16 44t7.5 30q0 4 -16.5 24t-36 47.5t-36 59t-16.5 58.5q0 7 6 14t11 7q14 0 20.5 -7t10.5 -18q4 -15 9.5 -32.5t16 -37t27.5 -41t43 -45.5q2 -2 5 -6.5t3 -12.5z" />
    <glyph glyph-name="onequarter" unicode="&#xbc;" horiz-adv-x="572" 
d="M517 131q0 -14 -10 -19t-22 -6.5t-22 -3t-10 -7.5q0 -5 1 -17t2.5 -27t2.5 -31t1 -31q0 -9 -5 -23.5t-21 -14.5q-8 0 -13 5t-8 13.5t-4 18t-1 18.5v89h-17q-3 0 -15.5 1t-27 5t-25.5 12.5t-11 24.5q0 14 14.5 31.5t32.5 33t32.5 28t14.5 17.5v21q0 8 6 12t11 4
q10 0 16 -9.5t9 -23.5t4 -31t1 -33v-44q30 9 38 9q11 0 18.5 -5t7.5 -17zM362 494q6 -2 6 -12q0 -2 -0.5 -3.5t-0.5 -2.5v-2q-23 -57 -43.5 -127t-44.5 -141t-52.5 -138t-66.5 -117q-8 -11 -10 -11q-3 0 -6.5 10.5t-3.5 12.5t28 73q13 33 28.5 76t32 90t32 93.5t29.5 86.5
q8 24 17 45.5t17 37.5t14.5 25t10.5 9q2 0 5.5 -1.5t7.5 -3.5zM186 270q0 -11 -12 -17t-17 -6q-14 0 -22 16.5t-12.5 39.5t-6.5 46.5t-4 38.5l-4 29q-6 -4 -13.5 -8.5t-14 -9t-11 -7t-5.5 -2.5q-4 0 -9 9t-5 13q0 2 4 9.5t15 17.5t19 21t14.5 20t12.5 14.5t13 5.5q8 0 13 -5
t8 -12t4.5 -15t1.5 -13q0 -54 5 -88.5t10.5 -55t10.5 -29.5t5 -12zM407 194q-4 -4 -11.5 -12t-14.5 -16t-12.5 -15.5t-5.5 -10.5q10 -2 20 -2q7 0 13 0.5t11 1.5v54z" />
    <glyph glyph-name="onehalf" unicode="&#xbd;" horiz-adv-x="572" 
d="M186 270q0 -11 -12 -17t-17 -6q-14 0 -22 16.5t-12.5 39.5t-6.5 46.5t-4 38.5l-4 29q-6 -4 -13.5 -8.5t-14 -9t-11 -7t-5.5 -2.5q-4 0 -9 9t-5 13q0 2 4 9.5t15 17.5t19 21t14.5 20t12.5 14.5t13 5.5q8 0 13 -5t8 -12t4.5 -15t1.5 -13q0 -54 5 -88.5t10.5 -55t10.5 -29.5
t5 -12zM362 494q6 -2 6 -12q0 -2 -0.5 -3.5t-0.5 -2.5v-2q-23 -57 -43.5 -127t-44.5 -141t-52.5 -138t-66.5 -117q-8 -11 -10 -11q-3 0 -6.5 10.5t-3.5 12.5t28 73q13 33 28.5 76t32 90t32 93.5t29.5 86.5q8 24 17 45.5t17 37.5t14.5 25t10.5 9q2 0 5.5 -1.5t7.5 -3.5z
M503 29q0 -12 -9.5 -18t-15.5 -6t-9.5 2l-7 4t-8 4t-13.5 2q-11 0 -19.5 -6t-17.5 -13.5t-18 -13.5t-19 -6q-17 0 -22 10t-5 26q0 3 9 20.5t23.5 44.5t32.5 60t37 67q-50 -18 -70.5 -24.5t-24.5 -6.5q-2 0 -9 4t-7 16q0 4 16 13.5t38 19.5t45.5 18t38.5 8q11 0 20 -7.5
t9 -21.5q0 -11 -9.5 -32t-23 -45t-28 -48t-25.5 -41q9 3 17.5 4t13.5 1t15.5 -1.5t20.5 -5t17.5 -10.5t7.5 -18z" />
    <glyph glyph-name="threequarters" unicode="&#xbe;" horiz-adv-x="565" 
d="M517 131q0 -14 -10 -19t-22 -6.5t-22 -3t-10 -7.5q0 -5 1 -17t2.5 -27t2.5 -31t1 -31q0 -9 -5 -23.5t-21 -14.5q-8 0 -13 5t-8 13.5t-4 18t-1 18.5v89h-17q-3 0 -15.5 1t-27 5t-25.5 12.5t-11 24.5q0 14 14.5 31.5t32.5 33t32.5 28t14.5 17.5v21q0 8 6 12t11 4
q10 0 16 -9.5t9 -23.5t4 -31t1 -33v-44q30 9 38 9q11 0 18.5 -5t7.5 -17zM360 494q6 -2 6 -12q0 -2 -0.5 -3.5t-0.5 -2.5v-2q-23 -57 -43.5 -127t-44.5 -141t-52.5 -138t-66.5 -117q-8 -11 -10 -11q-3 0 -6.5 10.5t-3.5 12.5t28 73q13 33 28.5 76t32 90t32 93.5t29.5 86.5
q8 24 17 45.5t17 37.5t14.5 25t10.5 9q2 0 5.5 -1.5t7.5 -3.5zM223 465q0 -10 -9.5 -20t-22.5 -18.5t-26.5 -15t-21.5 -10.5q12 -3 25 -9t23.5 -14.5t17.5 -19.5t7 -24q0 -16 -11.5 -30.5t-28.5 -26t-36 -18t-35 -6.5q-10 0 -21 2t-20.5 6.5t-15.5 11t-6 16.5q0 5 6.5 15.5
t12.5 16.5q19 -18 42 -18q9 0 19.5 3t20.5 8.5t16.5 12t6.5 14.5q0 9 -13 12.5t-28.5 7.5t-28.5 11.5t-13 24.5q0 15 23.5 27t56.5 30q-1 0 -4 1t-4 1q-11 0 -21 -3.5t-19 -7t-16 -7t-11 -3.5q-14 0 -19 4.5t-5 18.5q0 8 14.5 16t33.5 14t36 9.5t22 3.5q6 0 15 -1.5t17.5 -5
t14.5 -10.5t6 -19zM407 194q-4 -4 -11.5 -12t-14.5 -16t-12.5 -15.5t-5.5 -10.5q9 -2 22 -2t22 2v54z" />
    <glyph glyph-name="questiondown" unicode="&#xbf;" horiz-adv-x="410" 
d="M338 93q0 -10 -3 -20.5t-6 -17.5q-2 -3 -16.5 -16.5t-37 -28.5t-50.5 -26.5t-56 -11.5q-17 0 -35 6.5t-33.5 19.5t-25.5 33.5t-10 49.5q0 37 11 65.5t26 50t31 37.5t27 29q20 23 36.5 40.5t16.5 34.5q0 11 -2.5 23.5t-7.5 20.5q5 9 10 14t13 5q7 0 12.5 -6t9.5 -15
t6.5 -19t2.5 -18q0 -18 -5 -32t-14 -25.5t-21 -23t-25 -24.5q-34 -34 -58.5 -72t-24.5 -86q0 -26 19.5 -42.5t40.5 -16.5q38 0 65.5 14t46 30.5t29.5 30.5t17 14q11 0 11 -17zM242 523q0 -2 -5 -8t-11.5 -12t-14.5 -10.5t-14 -4.5q-4 0 -10.5 0.5t-12.5 3t-10.5 7.5t-4.5 14
q0 13 9.5 25t24.5 12q3 0 11 -2.5t16.5 -6t15 -8.5t6.5 -10z" />
    <glyph glyph-name="Agrave" unicode="&#xc0;" horiz-adv-x="406" 
d="M354 -44q1 -4 1 -7.5v-5.5q0 -10 -4.5 -14t-17.5 -4q-12 0 -16 4q-6 6 -16 31t-21 59t-21.5 73t-18.5 74q-11 -5 -30 -10.5t-39 -10.5q-23 -5 -48 -11q-9 -43 -13.5 -73.5t-8 -50t-9 -29t-17.5 -9.5q-8 0 -14 9t-6 27q0 9 5 42t11 73.5t12 80.5t8 63q1 12 6.5 39
t11.5 55.5t12 51.5t8 26q16 37 20.5 76t7 71.5t8.5 53t25 20.5q5 0 10.5 -8t10.5 -19t8 -21.5t4 -16.5t2.5 -24t3 -39.5t3 -42t2.5 -31.5q3 -33 9.5 -74t13.5 -77t13 -60.5t9 -24.5q4 0 10.5 2t12.5 2q8 0 8 -8t-4 -13t-8.5 -9t-8 -7t-3.5 -7q0 -8 9 -41l16 -59q2 -8 9 -27
t14.5 -39.5t13.5 -38t6 -21.5zM132 185q6 0 22 3.5t33 8.5t30 10t13 8t-3.5 15.5t-8 32t-9.5 44.5t-9 53q-2 18 -5 49t-6 61.5t-5 52.5l-2 22l-3 -14.5t-6.5 -32t-6 -33t-2.5 -17.5v-28q0 -2 -2.5 -17.5t-6.5 -39t-8.5 -51t-8.5 -52.5t-6.5 -44.5t-2.5 -26.5q0 -4 3 -4z
M121 830q3 3 7 3q5 0 12.5 -3.5t14.5 -8.5t21 -19.5t28 -31t26 -30.5t16 -17q1 -1 5 -2t9 -2.5t9 -3.5t4 -5q0 -8 -10.5 -19t-17.5 -11q-6 0 -19 7q-14 7 -32 26.5t-34.5 41.5t-28 42.5t-11.5 29.5q0 1 0.5 1.5t0.5 1.5z" />
    <glyph glyph-name="Aacute" unicode="&#xc1;" horiz-adv-x="406" 
d="M354 -44q1 -4 1 -7.5v-5.5q0 -10 -4.5 -14t-17.5 -4q-12 0 -16 4q-6 6 -16 31t-21 59t-21.5 73t-18.5 74q-11 -5 -30 -10.5t-39 -10.5q-23 -5 -48 -11q-9 -43 -13.5 -73.5t-8 -50t-9 -29t-17.5 -9.5q-8 0 -14 9t-6 27q0 9 5 42t11 73.5t12 80.5t8 63q1 12 6.5 39
t11.5 55.5t12 51.5t8 26q16 37 20.5 76t7 71.5t8.5 53t25 20.5q5 0 10.5 -8t10.5 -19t8 -21.5t4 -16.5t2.5 -24t3 -39.5t3 -42t2.5 -31.5q3 -33 9.5 -74t13.5 -77t13 -60.5t9 -24.5q4 0 10.5 2t12.5 2q8 0 8 -8t-4 -13t-8.5 -9t-8 -7t-3.5 -7q0 -8 9 -41l16 -59q2 -8 9 -27
t14.5 -39.5t13.5 -38t6 -21.5zM132 185q6 0 22 3.5t33 8.5t30 10t13 8t-3.5 15.5t-8 32t-9.5 44.5t-9 53q-2 18 -5 49t-6 61.5t-5 52.5l-2 22l-3 -14.5t-6.5 -32t-6 -33t-2.5 -17.5v-28q0 -2 -2.5 -17.5t-6.5 -39t-8.5 -51t-8.5 -52.5t-6.5 -44.5t-2.5 -26.5q0 -4 3 -4z
M290 816q0 -8 -12 -23t-28.5 -31t-34 -29.5t-27.5 -18.5q-8 -4 -14 -5t-10 -1q-8 0 -20 9t-12 17q0 2 9 5.5t20 9.5q10 6 26.5 19.5l33 27t30 23.5t18.5 10q7 0 14 -4t7 -9z" />
    <glyph glyph-name="Acircumflex" unicode="&#xc2;" horiz-adv-x="406" 
d="M354 -44q1 -4 1 -7.5v-5.5q0 -10 -4.5 -14t-17.5 -4q-12 0 -16 4q-6 6 -16 31t-21 59t-21.5 73t-18.5 74q-11 -5 -30 -10.5t-39 -10.5q-23 -5 -48 -11q-9 -43 -13.5 -73.5t-8 -50t-9 -29t-17.5 -9.5q-8 0 -14 9t-6 27q0 9 5 42t11 73.5t12 80.5t8 63q1 12 6.5 39
t11.5 55.5t12 51.5t8 26q16 37 20.5 76t7 71.5t8.5 53t25 20.5q5 0 10.5 -8t10.5 -19t8 -21.5t4 -16.5t2.5 -24t3 -39.5t3 -42t2.5 -31.5q3 -33 9.5 -74t13.5 -77t13 -60.5t9 -24.5q4 0 10.5 2t12.5 2q8 0 8 -8t-4 -13t-8.5 -9t-8 -7t-3.5 -7q0 -8 9 -41l16 -59q2 -8 9 -27
t14.5 -39.5t13.5 -38t6 -21.5zM132 185q6 0 22 3.5t33 8.5t30 10t13 8t-3.5 15.5t-8 32t-9.5 44.5t-9 53q-2 18 -5 49t-6 61.5t-5 52.5l-2 22l-3 -14.5t-6.5 -32t-6 -33t-2.5 -17.5v-28q0 -2 -2.5 -17.5t-6.5 -39t-8.5 -51t-8.5 -52.5t-6.5 -44.5t-2.5 -26.5q0 -4 3 -4z
M328 651q-2 -1 -7.5 -3.5t-10.5 -2.5q-11 0 -21 4t-18 9q-17 9 -29.5 22.5t-22.5 27.5t-18 27t-14 20q-14 -17 -31 -32t-41 -30q-8 -4 -11 -4q-7 0 -10.5 5.5t-3.5 9.5q0 6 5 11q12 12 24 28t24 31t23 25t20 10q18 0 31.5 -14.5t27 -35t28.5 -42t37 -36.5q10 0 19 -4t9 -11
q0 -5 -4 -9z" />
    <glyph glyph-name="Atilde" unicode="&#xc3;" horiz-adv-x="406" 
d="M354 -44q1 -4 1 -7.5v-5.5q0 -10 -4.5 -14t-17.5 -4q-12 0 -16 4q-6 6 -16 31t-21 59t-21.5 73t-18.5 74q-11 -5 -30 -10.5t-39 -10.5q-23 -5 -48 -11q-9 -43 -13.5 -73.5t-8 -50t-9 -29t-17.5 -9.5q-8 0 -14 9t-6 27q0 9 5 42t11 73.5t12 80.5t8 63q1 12 6.5 39
t11.5 55.5t12 51.5t8 26q16 37 20.5 76t7 71.5t8.5 53t25 20.5q5 0 10.5 -8t10.5 -19t8 -21.5t4 -16.5t2.5 -24t3 -39.5t3 -42t2.5 -31.5q3 -33 9.5 -74t13.5 -77t13 -60.5t9 -24.5q4 0 10.5 2t12.5 2q8 0 8 -8t-4 -13t-8.5 -9t-8 -7t-3.5 -7q0 -8 9 -41l16 -59q2 -8 9 -27
t14.5 -39.5t13.5 -38t6 -21.5zM132 185q6 0 22 3.5t33 8.5t30 10t13 8t-3.5 15.5t-8 32t-9.5 44.5t-9 53q-2 18 -5 49t-6 61.5t-5 52.5l-2 22l-3 -14.5t-6.5 -32t-6 -33t-2.5 -17.5v-28q0 -2 -2.5 -17.5t-6.5 -39t-8.5 -51t-8.5 -52.5t-6.5 -44.5t-2.5 -26.5q0 -4 3 -4z
M321 747q0 -11 -4 -23t-12.5 -22.5t-21 -17.5t-29.5 -7q-13 0 -27 7t-27 17.5t-24.5 24t-20.5 27.5l-54 -42q-8 -6 -16 -6q-11 0 -13 4t-2 11q0 6 11.5 19.5t27 27t31 24t23.5 10.5q10 0 21 -12.5t22 -26.5q15 -19 26 -31t21 -12q11 0 14 11.5t3 21.5q0 2 -0.5 4t-0.5 4
q8 8 13.5 10.5t12.5 2.5q12 0 19 -10t7 -16z" />
    <glyph glyph-name="Adieresis" unicode="&#xc4;" horiz-adv-x="406" 
d="M354 -44q1 -4 1 -7.5v-5.5q0 -10 -4.5 -14t-17.5 -4q-12 0 -16 4q-6 6 -16 31t-21 59t-21.5 73t-18.5 74q-11 -5 -30 -10.5t-39 -10.5q-23 -5 -48 -11q-9 -43 -13.5 -73.5t-8 -50t-9 -29t-17.5 -9.5q-8 0 -14 9t-6 27q0 9 5 42t11 73.5t12 80.5t8 63q1 12 6.5 39
t11.5 55.5t12 51.5t8 26q16 37 20.5 76t7 71.5t8.5 53t25 20.5q5 0 10.5 -8t10.5 -19t8 -21.5t4 -16.5t2.5 -24t3 -39.5t3 -42t2.5 -31.5q3 -33 9.5 -74t13.5 -77t13 -60.5t9 -24.5q4 0 10.5 2t12.5 2q8 0 8 -8t-4 -13t-8.5 -9t-8 -7t-3.5 -7q0 -8 9 -41l16 -59q2 -8 9 -27
t14.5 -39.5t13.5 -38t6 -21.5zM132 185q6 0 22 3.5t33 8.5t30 10t13 8t-3.5 15.5t-8 32t-9.5 44.5t-9 53q-2 18 -5 49t-6 61.5t-5 52.5l-2 22l-3 -14.5t-6.5 -32t-6 -33t-2.5 -17.5v-28q0 -2 -2.5 -17.5t-6.5 -39t-8.5 -51t-8.5 -52.5t-6.5 -44.5t-2.5 -26.5q0 -4 3 -4z
M169 718q0 -2 -5 -8t-12.5 -12.5t-16 -11.5t-14.5 -5q-4 0 -10.5 0.5t-13 3.5t-11.5 8.5t-5 14.5q0 14 10 26.5t26 12.5q3 0 11.5 -2.5t17.5 -6.5t16 -9t7 -11zM292 721q0 -6 -6 -11.5t-13.5 -10t-14.5 -7t-8 -2.5q-9 0 -13.5 4.5t-7 10t-3 10.5t-0.5 7q0 4 2 10.5t6 12.5
t9.5 10.5t12.5 4.5q13 0 24.5 -11t11.5 -28z" />
    <glyph glyph-name="Aring" unicode="&#xc5;" horiz-adv-x="406" 
d="M248 746q8 -8 8 -22q0 -6 -3.5 -16.5t-10.5 -22t-17 -21.5t-23 -15q8 -11 13.5 -28.5t7.5 -25.5q1 -6 2.5 -24t3 -39.5t3 -42t2.5 -31.5q3 -33 9.5 -74t13.5 -77t13 -60.5t9 -24.5q4 0 10.5 2t12.5 2q8 0 8 -8t-4 -13t-8.5 -9t-8 -7t-3.5 -7q0 -8 9 -41l16 -59
q2 -8 9 -27t14.5 -39.5t13.5 -38t6 -21.5q1 -4 1 -7.5v-5.5q0 -10 -4.5 -14t-17.5 -4q-12 0 -16 4q-6 6 -16 31t-21 59t-21.5 73t-18.5 74q-11 -5 -30 -10.5t-39 -10.5q-23 -5 -48 -11q-9 -43 -13.5 -73.5t-8 -50t-9 -29t-17.5 -9.5q-8 0 -14 9t-6 27q0 9 5 42t11 73.5
t12 80.5t8 63q1 12 6.5 39t11.5 55.5t12 51.5t8 26q13 30 18 61t7 59t4.5 51t9.5 36q-19 3 -27.5 14t-8.5 23q0 16 8.5 34.5t22 34t30 25.5t33.5 10q9 0 22.5 -8t13.5 -16q0 -1 -4 -6.5t-10 -10.5zM132 185q6 0 22 3.5t33 8.5t30 10t13 8t-3.5 15.5t-8 32t-9.5 44.5t-9 53
q-2 18 -5 49t-6 61.5t-5 52.5l-2 22l-3 -14.5t-6.5 -32t-6 -33t-2.5 -17.5v-28q0 -2 -2.5 -17.5t-6.5 -39t-8.5 -51t-8.5 -52.5t-6.5 -44.5t-2.5 -26.5q0 -4 3 -4zM216 740q-1 0 -1.5 0.5t-1.5 0.5q-4 0 -10.5 -4.5t-12.5 -11.5t-10 -15t-4 -14q0 -11 7 -11q8 0 14.5 5.5
t11.5 13t7.5 16t2.5 14.5q0 4 -3 6z" />
    <glyph glyph-name="AE" unicode="&#xc6;" horiz-adv-x="562" 
d="M354 -44q1 -4 1 -7.5v-5.5q0 -10 -4.5 -14t-17.5 -4q-12 0 -16 4q-6 6 -19 37h-1q-11 0 -23 7.5t-12 18.5q0 6 7.5 7.5t15.5 3.5q-12 36 -24 80t-21 83q-11 -5 -30 -10.5t-39 -10.5q-23 -5 -48 -11q-9 -43 -13.5 -73.5t-8 -50t-9 -29t-17.5 -9.5q-8 0 -14 9t-6 27
q0 9 5 42t11 73.5t12 80.5t8 63q1 12 6.5 39t11.5 55.5t12 51.5t8 26q16 37 20.5 76t7 71.5t8.5 53t25 20.5q5 0 10.5 -8t10.5 -19t8 -21.5t4 -16.5t2.5 -24t3 -39.5t3 -42t2.5 -31.5l2 -22t3 -22q21 12 45.5 20.5t38.5 12.5q8 2 23.5 6t32.5 8t32.5 7t22.5 3q8 0 12 -4.5
t4 -10.5t-24.5 -16t-57.5 -22t-67.5 -25t-54.5 -26q4 -24 8 -47t8 -42.5t7.5 -33t6.5 -19.5q40 13 70 24t52.5 19.5t40 15t34.5 10.5q2 0 6 -1.5t4 -5.5q0 -6 -5 -9q-11 -8 -32 -20.5t-47.5 -26t-56 -27t-56.5 -24.5q0 -9 9 -39l16 -59q2 -8 9 -27.5t15 -40.5q33 9 70.5 24
t63.5 26q4 2 11 7t14 5q5 0 8.5 -5t3.5 -10q0 -8 -6 -12q-6 -5 -19.5 -12.5t-29 -15t-30 -14.5t-21.5 -10q-8 -4 -22 -9.5t-30 -10.5q6 -15 6 -21zM132 185q6 0 22 3.5t33 8.5t30 10t13 8t-3.5 15.5t-8 32t-9.5 44.5t-9 53q-2 18 -5 49t-6 61.5t-5 52.5l-2 22l-3 -14.5
t-6.5 -32t-6 -33t-2.5 -17.5v-28q0 -2 -2.5 -17.5t-6.5 -39t-8.5 -51t-8.5 -52.5t-6.5 -44.5t-2.5 -26.5q0 -4 3 -4z" />
    <glyph glyph-name="Ccedilla" unicode="&#xc7;" horiz-adv-x="522" 
d="M477 229q0 -14 -7.5 -29t-18.5 -30t-24 -28.5t-24 -23.5q-48 -42 -101 -76.5t-115 -42.5q-4 -6 -8.5 -11t-9.5 -10l-13 -13t-10 -18q2 -4 6.5 -5t9.5 -1q3 0 17.5 1t20.5 1q7 0 23.5 -2.5t34 -10t30.5 -21t13 -35.5q0 -18 -14 -30.5t-32 -21t-34.5 -12.5t-21.5 -4
q-17 0 -29.5 13t-12.5 30q0 3 5 3t12.5 -2t14.5 -2q2 0 12 2.5t21.5 7t21 10.5t9.5 14q0 5 -5.5 9.5t-13.5 7.5t-16.5 5t-15.5 2q-13 0 -19.5 -1t-18.5 -1q-7 0 -17.5 1t-20.5 5.5t-17 12t-7 21.5q0 7 10.5 22.5t24.5 31.5q-90 7 -90 111q0 11 9 43t23 73t33 86t39 82.5
t39.5 61.5t36.5 24q11 0 16.5 -7t5.5 -15q-1 -6 -14 -25.5t-27 -39.5q-2 -3 -7 -10l-10 -14q-6 -8 -12 -17q-4 -7 -17.5 -35.5t-28.5 -66t-27 -78t-12 -70.5q0 -17 7.5 -27t18 -15t22 -6.5t20.5 -1.5q37 0 78.5 16.5t79.5 43.5t70 62.5t50 73.5q4 7 8.5 9t8.5 2q8 0 14 -11
t6 -18z" />
    <glyph glyph-name="Egrave" unicode="&#xc8;" horiz-adv-x="369" 
d="M331 353q1 -2 2 -2.5t1 -2.5q0 -6 -25 -22.5t-62 -37t-78 -41t-73 -33.5q0 -2 -2 -13t-2 -14v-19q0 -23 7 -45.5t21.5 -40.5t35.5 -29t49 -11q12 0 29.5 4.5t34 13t29.5 20.5t16 27q12 -1 14.5 -7t2.5 -8q0 -26 -12.5 -44.5t-31 -30t-39 -17t-36.5 -5.5q-86 0 -125 48
t-39 126q0 4 2 18t2 19q0 1 -4 2.5t-8.5 3.5t-8 6.5t-3.5 12.5t6 13t14 9l10 6q9 38 21.5 73.5t31.5 71.5q-8 0 -17 2t-9 14q0 14 16.5 31t38 32t42.5 25.5t30 10.5q4 0 5.5 -1.5t5.5 -1.5q8 0 20.5 3t26.5 7t26.5 7t20.5 3q9 0 13.5 -6t4.5 -13q0 -8 -10 -11.5t-18 -5.5
q-28 -5 -58.5 -17.5t-56.5 -27.5q-10 -11 -24 -31.5t-27 -46.5t-23.5 -54t-13.5 -53l17 8q77 37 125.5 58t75.5 21q5 0 9 -4zM94 706q3 3 7 3q5 0 12.5 -3.5t14.5 -8.5t21 -19.5t28 -31t26 -30.5t16 -17q1 -1 5 -2t9 -2.5t9 -3.5t4 -5q0 -8 -10.5 -19t-17.5 -11q-6 0 -19 7
q-14 7 -32 26.5t-34.5 41.5t-28 42.5t-11.5 29.5q0 1 0.5 1.5t0.5 1.5z" />
    <glyph glyph-name="Eacute" unicode="&#xc9;" horiz-adv-x="369" 
d="M331 353q1 -2 2 -2.5t1 -2.5q0 -6 -25 -22.5t-62 -37t-78 -41t-73 -33.5q0 -2 -2 -13t-2 -14v-19q0 -23 7 -45.5t21.5 -40.5t35.5 -29t49 -11q12 0 29.5 4.5t34 13t29.5 20.5t16 27q12 -1 14.5 -7t2.5 -8q0 -26 -12.5 -44.5t-31 -30t-39 -17t-36.5 -5.5q-86 0 -125 48
t-39 126q0 4 2 18t2 19q0 1 -4 2.5t-8.5 3.5t-8 6.5t-3.5 12.5t6 13t14 9l10 6q9 38 21.5 73.5t31.5 71.5q-8 0 -17 2t-9 14q0 14 16.5 31t38 32t42.5 25.5t30 10.5q4 0 5.5 -1.5t5.5 -1.5q8 0 20.5 3t26.5 7t26.5 7t20.5 3q9 0 13.5 -6t4.5 -13q0 -8 -10 -11.5t-18 -5.5
q-28 -5 -58.5 -17.5t-56.5 -27.5q-10 -11 -24 -31.5t-27 -46.5t-23.5 -54t-13.5 -53l17 8q77 37 125.5 58t75.5 21q5 0 9 -4zM322 669q0 -8 -12 -23t-28.5 -31t-34 -29.5t-27.5 -18.5q-8 -4 -14 -5t-10 -1q-8 0 -20 9t-12 17q0 2 9 5.5t20 9.5q10 6 26.5 19.5l33 27t30 23.5
t18.5 10q7 0 14 -4t7 -9z" />
    <glyph glyph-name="Ecircumflex" unicode="&#xca;" horiz-adv-x="369" 
d="M331 353q1 -2 2 -2.5t1 -2.5q0 -6 -25 -22.5t-62 -37t-78 -41t-73 -33.5q0 -2 -2 -13t-2 -14v-19q0 -23 7 -45.5t21.5 -40.5t35.5 -29t49 -11q12 0 29.5 4.5t34 13t29.5 20.5t16 27q12 -1 14.5 -7t2.5 -8q0 -26 -12.5 -44.5t-31 -30t-39 -17t-36.5 -5.5q-86 0 -125 48
t-39 126q0 4 2 18t2 19q0 1 -4 2.5t-8.5 3.5t-8 6.5t-3.5 12.5t6 13t14 9l10 6q9 38 21.5 73.5t31.5 71.5q-8 0 -17 2t-9 14q0 14 16.5 31t38 32t42.5 25.5t30 10.5q4 0 5.5 -1.5t5.5 -1.5q8 0 20.5 3t26.5 7t26.5 7t20.5 3q9 0 13.5 -6t4.5 -13q0 -8 -10 -11.5t-18 -5.5
q-28 -5 -58.5 -17.5t-56.5 -27.5q-10 -11 -24 -31.5t-27 -46.5t-23.5 -54t-13.5 -53l17 8q77 37 125.5 58t75.5 21q5 0 9 -4zM346 561q-2 -1 -7.5 -3.5t-10.5 -2.5q-11 0 -21 4t-18 9q-17 9 -29.5 22.5t-22.5 27.5t-18 27t-14 20q-14 -17 -31 -32t-41 -30q-8 -4 -11 -4
q-7 0 -10.5 5.5t-3.5 9.5q0 6 5 11q12 12 24 28t24 31t23 25t20 10q18 0 31.5 -14.5t27 -35t28.5 -42t37 -36.5q10 0 19 -4t9 -11q0 -5 -4 -9z" />
    <glyph glyph-name="Edieresis" unicode="&#xcb;" horiz-adv-x="369" 
d="M331 353q1 -2 2 -2.5t1 -2.5q0 -6 -25 -22.5t-62 -37t-78 -41t-73 -33.5q0 -2 -2 -13t-2 -14v-19q0 -23 7 -45.5t21.5 -40.5t35.5 -29t49 -11q12 0 29.5 4.5t34 13t29.5 20.5t16 27q12 -1 14.5 -7t2.5 -8q0 -26 -12.5 -44.5t-31 -30t-39 -17t-36.5 -5.5q-86 0 -125 48
t-39 126q0 4 2 18t2 19q0 1 -4 2.5t-8.5 3.5t-8 6.5t-3.5 12.5t6 13t14 9l10 6q9 38 21.5 73.5t31.5 71.5q-8 0 -17 2t-9 14q0 14 16.5 31t38 32t42.5 25.5t30 10.5q4 0 5.5 -1.5t5.5 -1.5q8 0 20.5 3t26.5 7t26.5 7t20.5 3q9 0 13.5 -6t4.5 -13q0 -8 -10 -11.5t-18 -5.5
q-28 -5 -58.5 -17.5t-56.5 -27.5q-10 -11 -24 -31.5t-27 -46.5t-23.5 -54t-13.5 -53l17 8q77 37 125.5 58t75.5 21q5 0 9 -4zM180 601q0 -2 -5 -8t-12.5 -12.5t-16 -11.5t-14.5 -5q-4 0 -10.5 0.5t-13 3.5t-11.5 8.5t-5 14.5q0 14 10 26.5t26 12.5q3 0 11.5 -2.5t17.5 -6.5
t16 -9t7 -11zM303 604q0 -6 -6 -11.5t-13.5 -10t-14.5 -7t-8 -2.5q-9 0 -13.5 4.5t-7 10t-3 10.5t-0.5 7q0 4 2 10.5t6 12.5t9.5 10.5t12.5 4.5q13 0 24.5 -11t11.5 -28z" />
    <glyph glyph-name="Igrave" unicode="&#xcc;" horiz-adv-x="519" 
d="M512 143q0 -19 -23 -28t-53.5 -18.5t-58.5 -17t-49.5 -14t-26.5 -9.5v-5t1 -6l3 -24q0 -9 -2.5 -14t-10.5 -5q-9 0 -12.5 5.5t-6 13t-4 15.5t-5.5 12q-2 0 -16 -4t-35.5 -10t-48 -13.5t-51.5 -13.5t-47 -10t-34 -4q-27 0 -27 17q0 13 7.5 19t17.5 9q2 1 19.5 5t42.5 9.5
t53.5 12.5t53 13t40 11t15.5 7q0 6 -4.5 22t-8.5 30l-6 20q-14 64 -22 129t-13 128q-2 2 -5 2q-5 0 -26 -10t-45 -21.5t-44.5 -21.5t-24.5 -10q-7 0 -13.5 6t-6.5 12q0 8 13 18.5t32.5 22t43 22t45 19t37 13.5t20.5 5q8 0 21 3t28 7t30.5 7t27.5 3q13 0 13 -9q0 -5 -4 -8
l-29 -8q-11 -3 -23.5 -6.5t-23 -8t-17 -10t-6.5 -11.5q0 -25 5.5 -65.5t13 -87t16.5 -94.5t15 -90l179 46q6 1 12 3q5 2 10 3t9 1q9 0 9 -14zM87 681q3 3 7 3q5 0 12.5 -3.5t14.5 -8.5t21 -19.5t28 -31t26 -30.5t16 -17q1 -1 5 -2t9 -2.5t9 -3.5t4 -5q0 -8 -10.5 -19
t-17.5 -11q-6 0 -19 7q-14 7 -32 26.5t-34.5 41.5t-28 42.5t-11.5 29.5q0 1 0.5 1.5t0.5 1.5z" />
    <glyph glyph-name="Iacute" unicode="&#xcd;" horiz-adv-x="519" 
d="M512 143q0 -19 -23 -28t-53.5 -18.5t-58.5 -17t-49.5 -14t-26.5 -9.5v-5t1 -6l3 -24q0 -9 -2.5 -14t-10.5 -5q-9 0 -12.5 5.5t-6 13t-4 15.5t-5.5 12q-2 0 -16 -4t-35.5 -10t-48 -13.5t-51.5 -13.5t-47 -10t-34 -4q-27 0 -27 17q0 13 7.5 19t17.5 9q2 1 19.5 5t42.5 9.5
t53.5 12.5t53 13t40 11t15.5 7q0 6 -4.5 22t-8.5 30l-6 20q-14 64 -22 129t-13 128q-2 2 -5 2q-5 0 -26 -10t-45 -21.5t-44.5 -21.5t-24.5 -10q-7 0 -13.5 6t-6.5 12q0 8 13 18.5t32.5 22t43 22t45 19t37 13.5t20.5 5q8 0 21 3t28 7t30.5 7t27.5 3q13 0 13 -9q0 -5 -4 -8
l-29 -8q-11 -3 -23.5 -6.5t-23 -8t-17 -10t-6.5 -11.5q0 -25 5.5 -65.5t13 -87t16.5 -94.5t15 -90l179 46q6 1 12 3q5 2 10 3t9 1q9 0 9 -14zM295 635q0 -8 -12 -23t-28.5 -31t-34 -29.5t-27.5 -18.5q-8 -4 -14 -5t-10 -1q-8 0 -20 9t-12 17q0 2 9 5.5t20 9.5
q10 6 26.5 19.5l33 27t30 23.5t18.5 10q7 0 14 -4t7 -9z" />
    <glyph glyph-name="Icircumflex" unicode="&#xce;" horiz-adv-x="519" 
d="M512 143q0 -19 -23 -28t-53.5 -18.5t-58.5 -17t-49.5 -14t-26.5 -9.5v-5t1 -6l3 -24q0 -9 -2.5 -14t-10.5 -5q-9 0 -12.5 5.5t-6 13t-4 15.5t-5.5 12q-2 0 -16 -4t-35.5 -10t-48 -13.5t-51.5 -13.5t-47 -10t-34 -4q-27 0 -27 17q0 13 7.5 19t17.5 9q2 1 19.5 5t42.5 9.5
t53.5 12.5t53 13t40 11t15.5 7q0 6 -4.5 22t-8.5 30l-6 20q-14 64 -22 129t-13 128q-2 2 -5 2q-5 0 -26 -10t-45 -21.5t-44.5 -21.5t-24.5 -10q-7 0 -13.5 6t-6.5 12q0 8 13 18.5t32.5 22t43 22t45 19t37 13.5t20.5 5q8 0 21 3t28 7t30.5 7t27.5 3q13 0 13 -9q0 -5 -4 -8
l-29 -8q-11 -3 -23.5 -6.5t-23 -8t-17 -10t-6.5 -11.5q0 -25 5.5 -65.5t13 -87t16.5 -94.5t15 -90l179 46q6 1 12 3q5 2 10 3t9 1q9 0 9 -14zM311 541q-2 -1 -7.5 -3.5t-10.5 -2.5q-11 0 -21 4t-18 9q-17 9 -29.5 22.5t-22.5 27.5t-18 27t-14 20q-14 -17 -31 -32t-41 -30
q-8 -4 -11 -4q-7 0 -10.5 5.5t-3.5 9.5q0 6 5 11q12 12 24 28t24 31t23 25t20 10q18 0 31.5 -14.5t27 -35t28.5 -42t37 -36.5q10 0 19 -4t9 -11q0 -5 -4 -9z" />
    <glyph glyph-name="Idieresis" unicode="&#xcf;" horiz-adv-x="519" 
d="M512 143q0 -19 -23 -28t-53.5 -18.5t-58.5 -17t-49.5 -14t-26.5 -9.5v-5t1 -6l3 -24q0 -9 -2.5 -14t-10.5 -5q-9 0 -12.5 5.5t-6 13t-4 15.5t-5.5 12q-2 0 -16 -4t-35.5 -10t-48 -13.5t-51.5 -13.5t-47 -10t-34 -4q-27 0 -27 17q0 13 7.5 19t17.5 9q2 1 19.5 5t42.5 9.5
t53.5 12.5t53 13t40 11t15.5 7q0 6 -4.5 22t-8.5 30l-6 20q-14 64 -22 129t-13 128q-2 2 -5 2q-5 0 -26 -10t-45 -21.5t-44.5 -21.5t-24.5 -10q-7 0 -13.5 6t-6.5 12q0 8 13 18.5t32.5 22t43 22t45 19t37 13.5t20.5 5q8 0 21 3t28 7t30.5 7t27.5 3q13 0 13 -9q0 -5 -4 -8
l-29 -8q-11 -3 -23.5 -6.5t-23 -8t-17 -10t-6.5 -11.5q0 -25 5.5 -65.5t13 -87t16.5 -94.5t15 -90l179 46q6 1 12 3q5 2 10 3t9 1q9 0 9 -14zM174 570q0 -2 -5 -8t-12.5 -12.5t-16 -11.5t-14.5 -5q-4 0 -10.5 0.5t-13 3.5t-11.5 8.5t-5 14.5q0 14 10 26.5t26 12.5
q3 0 11.5 -2.5t17.5 -6.5t16 -9t7 -11zM297 573q0 -6 -6 -11.5t-13.5 -10t-14.5 -7t-8 -2.5q-9 0 -13.5 4.5t-7 10t-3 10.5t-0.5 7q0 4 2 10.5t6 12.5t9.5 10.5t12.5 4.5q13 0 24.5 -11t11.5 -28z" />
    <glyph glyph-name="Eth" unicode="&#xd0;" horiz-adv-x="448" 
d="M168 275q0 -6 -7.5 -11.5t-18.5 -10.5q4 -15 5 -23t1.5 -14t1 -12.5t3.5 -19.5q5 -23 7 -46t2 -36q0 -8 -3 -18t-8 -10q-9 0 -13.5 9t-7 23.5t-5 33.5t-7.5 39l-15 59q-20 -5 -35.5 -8.5t-19.5 -3.5q-15 0 -21 2t-10 11q-2 4 -5 8.5t-3 7.5q0 5 8 5q10 0 31.5 5t44.5 11
q-5 20 -9 37t-6 25q-2 11 -4.5 31.5t-4.5 42.5q-3 25 -6 54l-5 1t-13 2t-17.5 2t-17.5 1q-17 0 -30.5 -6.5t-24 -15t-17 -15t-8.5 -6.5q-6 0 -18 3.5t-12 12.5q0 13 12 26t30 23t39 16.5t39 6.5q29 0 69 -8t83 -22t84.5 -34t74.5 -44t53 -51.5t20 -57.5q0 -68 -45 -124.5
t-117 -110.5q-37 -28 -79.5 -51.5t-84.5 -40t-79.5 -25.5t-65.5 -9q-17 0 -25 4.5t-8 18.5q0 10 7.5 24.5t14.5 14.5t10 -4.5t3 -9.5q0 -3 -0.5 -5t-0.5 -4v-3q3 0 6 0.5t6 0.5q18 1 35.5 3t40 9t53 20.5t75.5 38.5q39 21 76.5 50t67 62t48 68.5t18.5 71.5q0 24 -25.5 50
t-63.5 49t-83 40t-84 23q0 -4 2 -22t5.5 -43t8.5 -54t12 -55q17 5 21 5t9.5 -6.5t5.5 -10.5z" />
    <glyph glyph-name="Ntilde" unicode="&#xd1;" horiz-adv-x="473" 
d="M473 39q0 -10 -9 -18t-20 -8q-2 0 -6 2.5t-6 4.5q-42 40 -89 79t-95 80t-94.5 86t-87.5 98q13 -54 35 -114.5t42.5 -113.5t35.5 -91.5t15 -48.5q0 -12 -9.5 -19.5t-19.5 -7.5q-6 0 -13 12.5t-15.5 32.5t-17 44.5t-16.5 49t-15 46t-11 35.5l-27 81q-9 26 -18 53.5
t-16.5 51.5t-12 42t-4.5 24q0 11 3 22.5t11 11.5q5 0 7 -2.5t4 -2.5l12 5q5 0 17.5 -12.5t29 -32.5t35.5 -45t38.5 -49t37 -45t31.5 -33q22 -20 44 -38t44.5 -36.5t47.5 -39.5t55 -48q1 -1 5 -1q2 0 2 5v12q0 14 -8 50.5t-22.5 85t-33.5 104t-40.5 107t-45 93.5t-45.5 65
q-6 6 -8.5 18t-2.5 20q0 7 9.5 15.5t17.5 8.5q12 0 27 -24t32 -62.5t34.5 -86.5t34.5 -97q20 -58 37.5 -114.5t31 -105.5t22 -88t10.5 -61zM197 593q0 -11 -4 -23t-12.5 -22.5t-21 -17.5t-29.5 -7q-13 0 -27 7t-27 17.5t-24.5 24t-20.5 27.5l-54 -42q-8 -6 -16 -6
q-11 0 -13 4t-2 11q0 6 11.5 19.5t27 27t31 24t23.5 10.5q10 0 21 -12.5t22 -26.5q15 -19 26 -31t21 -12q11 0 14 11.5t3 21.5q0 2 -0.5 4t-0.5 4q8 8 13.5 10.5t12.5 2.5q12 0 19 -10t7 -16z" />
    <glyph glyph-name="Ograve" unicode="&#xd2;" horiz-adv-x="403" 
d="M360 258q2 -13 2.5 -21t0.5 -16q0 -25 -6.5 -59t-22 -64.5t-41 -52t-64.5 -21.5q-36 0 -68 20.5t-57 53t-39.5 73t-14.5 80.5q0 58 7.5 99.5t21.5 72.5q0 3 -3.5 6t-3.5 8t9.5 13t23 15.5t27 13t20.5 5.5q4 0 13.5 -4t24.5 -4q5 0 10 1t11 1q21 0 45.5 -19.5t46 -50.5
t37 -70.5t20.5 -79.5zM320 219q0 19 -8 54.5t-24 70t-38.5 60.5t-50.5 26q-2 0 -7.5 0.5t-12.5 1t-13 1t-7 0.5q-16 0 -27.5 -15t-19 -39t-11.5 -55t-4 -62q0 -11 6 -42.5t21.5 -65t41.5 -59.5t66 -26q27 0 44 16.5t26.5 40.5t13.5 49.5t4 43.5zM54 674q3 3 7 3
q5 0 12.5 -3.5t14.5 -8.5t21 -19.5t28 -31t26 -30.5t16 -17q1 -1 5 -2t9 -2.5t9 -3.5t4 -5q0 -8 -10.5 -19t-17.5 -11q-6 0 -19 7q-14 7 -32 26.5t-34.5 41.5t-28 42.5t-11.5 29.5q0 1 0.5 1.5t0.5 1.5z" />
    <glyph glyph-name="Oacute" unicode="&#xd3;" horiz-adv-x="403" 
d="M360 258q2 -13 2.5 -21t0.5 -16q0 -25 -6.5 -59t-22 -64.5t-41 -52t-64.5 -21.5q-36 0 -68 20.5t-57 53t-39.5 73t-14.5 80.5q0 58 7.5 99.5t21.5 72.5q0 3 -3.5 6t-3.5 8t9.5 13t23 15.5t27 13t20.5 5.5q4 0 13.5 -4t24.5 -4q5 0 10 1t11 1q21 0 45.5 -19.5t46 -50.5
t37 -70.5t20.5 -79.5zM320 219q0 19 -8 54.5t-24 70t-38.5 60.5t-50.5 26q-2 0 -7.5 0.5t-12.5 1t-13 1t-7 0.5q-16 0 -27.5 -15t-19 -39t-11.5 -55t-4 -62q0 -11 6 -42.5t21.5 -65t41.5 -59.5t66 -26q27 0 44 16.5t26.5 40.5t13.5 49.5t4 43.5zM271 650q0 -8 -12 -23
t-28.5 -31t-34 -29.5t-27.5 -18.5q-8 -4 -14 -5t-10 -1q-8 0 -20 9t-12 17q0 2 9 5.5t20 9.5q10 6 26.5 19.5l33 27t30 23.5t18.5 10q7 0 14 -4t7 -9z" />
    <glyph glyph-name="Ocircumflex" unicode="&#xd4;" horiz-adv-x="403" 
d="M360 258q2 -13 2.5 -21t0.5 -16q0 -25 -6.5 -59t-22 -64.5t-41 -52t-64.5 -21.5q-36 0 -68 20.5t-57 53t-39.5 73t-14.5 80.5q0 58 7.5 99.5t21.5 72.5q0 3 -3.5 6t-3.5 8t9.5 13t23 15.5t27 13t20.5 5.5q4 0 13.5 -4t24.5 -4q5 0 10 1t11 1q21 0 45.5 -19.5t46 -50.5
t37 -70.5t20.5 -79.5zM320 219q0 19 -8 54.5t-24 70t-38.5 60.5t-50.5 26q-2 0 -7.5 0.5t-12.5 1t-13 1t-7 0.5q-16 0 -27.5 -15t-19 -39t-11.5 -55t-4 -62q0 -11 6 -42.5t21.5 -65t41.5 -59.5t66 -26q27 0 44 16.5t26.5 40.5t13.5 49.5t4 43.5zM299 514q-2 -1 -7.5 -3.5
t-10.5 -2.5q-11 0 -21 4t-18 9q-17 9 -29.5 22.5t-22.5 27.5t-18 27t-14 20q-14 -17 -31 -32t-41 -30q-8 -4 -11 -4q-7 0 -10.5 5.5t-3.5 9.5q0 6 5 11q12 12 24 28t24 31t23 25t20 10q18 0 31.5 -14.5t27 -35t28.5 -42t37 -36.5q10 0 19 -4t9 -11q0 -5 -4 -9z" />
    <glyph glyph-name="Otilde" unicode="&#xd5;" horiz-adv-x="403" 
d="M360 258q2 -13 2.5 -21t0.5 -16q0 -25 -6.5 -59t-22 -64.5t-41 -52t-64.5 -21.5q-36 0 -68 20.5t-57 53t-39.5 73t-14.5 80.5q0 58 7.5 99.5t21.5 72.5q0 3 -3.5 6t-3.5 8t9.5 13t23 15.5t27 13t20.5 5.5q4 0 13.5 -4t24.5 -4q5 0 10 1t11 1q21 0 45.5 -19.5t46 -50.5
t37 -70.5t20.5 -79.5zM320 219q0 19 -8 54.5t-24 70t-38.5 60.5t-50.5 26q-2 0 -7.5 0.5t-12.5 1t-13 1t-7 0.5q-16 0 -27.5 -15t-19 -39t-11.5 -55t-4 -62q0 -11 6 -42.5t21.5 -65t41.5 -59.5t66 -26q27 0 44 16.5t26.5 40.5t13.5 49.5t4 43.5zM309 593q0 -11 -4 -23
t-12.5 -22.5t-21 -17.5t-29.5 -7q-13 0 -27 7t-27 17.5t-24.5 24t-20.5 27.5l-54 -42q-8 -6 -16 -6q-11 0 -13 4t-2 11q0 6 11.5 19.5t27 27t31 24t23.5 10.5q10 0 21 -12.5t22 -26.5q15 -19 26 -31t21 -12q11 0 14 11.5t3 21.5q0 2 -0.5 4t-0.5 4q8 8 13.5 10.5t12.5 2.5
q12 0 19 -10t7 -16z" />
    <glyph glyph-name="Odieresis" unicode="&#xd6;" horiz-adv-x="403" 
d="M360 258q2 -13 2.5 -21t0.5 -16q0 -25 -6.5 -59t-22 -64.5t-41 -52t-64.5 -21.5q-36 0 -68 20.5t-57 53t-39.5 73t-14.5 80.5q0 58 7.5 99.5t21.5 72.5q0 3 -3.5 6t-3.5 8t9.5 13t23 15.5t27 13t20.5 5.5q4 0 13.5 -4t24.5 -4q5 0 10 1t11 1q21 0 45.5 -19.5t46 -50.5
t37 -70.5t20.5 -79.5zM320 219q0 19 -8 54.5t-24 70t-38.5 60.5t-50.5 26q-2 0 -7.5 0.5t-12.5 1t-13 1t-7 0.5q-16 0 -27.5 -15t-19 -39t-11.5 -55t-4 -62q0 -11 6 -42.5t21.5 -65t41.5 -59.5t66 -26q27 0 44 16.5t26.5 40.5t13.5 49.5t4 43.5zM160 565q0 -2 -5 -8
t-12.5 -12.5t-16 -11.5t-14.5 -5q-4 0 -10.5 0.5t-13 3.5t-11.5 8.5t-5 14.5q0 14 10 26.5t26 12.5q3 0 11.5 -2.5t17.5 -6.5t16 -9t7 -11zM283 568q0 -6 -6 -11.5t-13.5 -10t-14.5 -7t-8 -2.5q-9 0 -13.5 4.5t-7 10t-3 10.5t-0.5 7q0 4 2 10.5t6 12.5t9.5 10.5t12.5 4.5
q13 0 24.5 -11t11.5 -28z" />
    <glyph glyph-name="multiply" unicode="&#xd7;" horiz-adv-x="370" 
d="M80 133q0 11 14.5 31t31.5 40t31.5 36.5t14.5 20.5q0 7 -2.5 12.5t-8 14.5t-14.5 24t-22 42q-2 4 -2 6q0 4 5.5 12t13.5 8t14.5 -6.5l8.5 -8.5q7 -9 14.5 -21.5t14 -24.5t10.5 -20t5 -7q8 9 15 18.5t14.5 17.5t15.5 13.5t17 5.5q4 0 7 -4t5.5 -9.5t4 -10.5t1.5 -8
q0 -7 -5.5 -11.5t-14.5 -10.5t-20 -14.5t-23 -23.5q13 -24 21 -36.5t13 -18t7.5 -7t4.5 -3.5q9 -12 9 -23q0 -7 -5 -10.5t-10 -3.5q-10 0 -18.5 2.5t-17 9.5t-18 20.5t-20.5 35.5q-13 -7 -25 -22.5t-25 -31.5t-26.5 -28t-28.5 -12q-3 0 -5 2t-2 4z" />
    <glyph glyph-name="Oslash" unicode="&#xd8;" horiz-adv-x="403" 
d="M314 517q6 -2 6 -12q0 -19 -10 -40t-18 -43q25 -32 44 -75.5t24 -88.5q2 -13 2.5 -21t0.5 -16q0 -25 -6.5 -59t-22 -64.5t-41 -52t-64.5 -21.5q-38 0 -72 23q-20 -39 -45 -73q-8 -11 -10 -11q-3 0 -6.5 10.5t-3.5 12.5t28 73q1 6 5 13q-34 34 -54.5 82t-20.5 97
q0 58 7.5 99.5t21.5 72.5q0 3 -3.5 6t-3.5 8t9.5 13t23 15.5t27 13t20.5 5.5q4 0 13.5 -4t24.5 -4q5 0 10 1t11 1q11 0 23.5 -6t25.5 -17q13 30 24 48.5t17 18.5q2 0 5.5 -1.5t7.5 -3.5zM97 262q0 -7 2.5 -23t7.5 -36t14 -41.5t22 -40.5q12 33 26 69.5t27.5 74.5t26 75
t20.5 70q-10 9 -21 14.5t-23 5.5q-2 0 -7.5 0.5t-12.5 1t-13 1t-7 0.5q-16 0 -27.5 -15t-19 -39t-11.5 -55t-4 -62zM320 219q0 11 -3 29t-8.5 38.5t-14 42t-19.5 40.5q-22 -69 -45.5 -142.5t-53.5 -139.5q12 -8 25.5 -13t30.5 -5q27 0 44 16.5t26.5 40.5t13.5 49.5t4 43.5z
" />
    <glyph glyph-name="Ugrave" unicode="&#xd9;" horiz-adv-x="399" 
d="M440 -46q0 -12 -6 -15.5t-14 -3.5q-6 0 -16 2q-5 1 -14.5 9.5t-20.5 19.5q-12 12 -26 27l-50 57q-2 -3 -9 -12.5t-17.5 -20t-24.5 -18.5t-30 -8q-11 0 -26.5 6.5t-31.5 18.5t-31.5 29t-26.5 38q-14 27 -23.5 56.5t-15 59.5t-7.5 59.5t-2 55.5q0 37 3.5 53t23.5 16
q8 0 12.5 -5.5t4.5 -11.5q0 -56 8 -113.5t23 -105t37.5 -77.5t52.5 -30q13 0 23 9.5t16.5 22.5t9.5 25t4 18q-6 14 -12.5 37.5t-11.5 51.5t-8 58t-3 58q0 43 0.5 70.5t3.5 43t9 21t17 5.5q6 0 11.5 -3.5t9 -7.5t5.5 -8t2 -5q0 -4 -2 -6.5t-2 -6.5q0 -8 2.5 -23t5.5 -31
q6 -32 11.5 -73t5.5 -95v-42q0 -8 8.5 -32.5t38.5 -71.5q20 -32 37.5 -51t28.5 -30q7 -6 12 -11.5t5 -8.5zM287 288q-1 6 -3 15t-4.5 18t-4 15l-1.5 6q0 -11 0.5 -26.5t2 -31t3.5 -30t5 -24.5q0 7 1 14q0 6 0.5 13.5t0.5 15.5v15zM23 613q3 3 7 3q5 0 12.5 -3.5t14.5 -8.5
t21 -19.5t28 -31t26 -30.5t16 -17q1 -1 5 -2t9 -2.5t9 -3.5t4 -5q0 -8 -10.5 -19t-17.5 -11q-6 0 -19 7q-14 7 -32 26.5t-34.5 41.5t-28 42.5t-11.5 29.5q0 1 0.5 1.5t0.5 1.5z" />
    <glyph glyph-name="Uacute" unicode="&#xda;" horiz-adv-x="399" 
d="M440 -46q0 -12 -6 -15.5t-14 -3.5q-6 0 -16 2q-5 1 -14.5 9.5t-20.5 19.5q-12 12 -26 27l-50 57q-2 -3 -9 -12.5t-17.5 -20t-24.5 -18.5t-30 -8q-11 0 -26.5 6.5t-31.5 18.5t-31.5 29t-26.5 38q-14 27 -23.5 56.5t-15 59.5t-7.5 59.5t-2 55.5q0 37 3.5 53t23.5 16
q8 0 12.5 -5.5t4.5 -11.5q0 -56 8 -113.5t23 -105t37.5 -77.5t52.5 -30q13 0 23 9.5t16.5 22.5t9.5 25t4 18q-6 14 -12.5 37.5t-11.5 51.5t-8 58t-3 58q0 43 0.5 70.5t3.5 43t9 21t17 5.5q6 0 11.5 -3.5t9 -7.5t5.5 -8t2 -5q0 -4 -2 -6.5t-2 -6.5q0 -8 2.5 -23t5.5 -31
q6 -32 11.5 -73t5.5 -95v-42q0 -8 8.5 -32.5t38.5 -71.5q20 -32 37.5 -51t28.5 -30q7 -6 12 -11.5t5 -8.5zM287 288q-1 6 -3 15t-4.5 18t-4 15l-1.5 6q0 -11 0.5 -26.5t2 -31t3.5 -30t5 -24.5q0 7 1 14q0 6 0.5 13.5t0.5 15.5v15zM262 581q0 -8 -12 -23t-28.5 -31t-34 -29.5
t-27.5 -18.5q-8 -4 -14 -5t-10 -1q-8 0 -20 9t-12 17q0 2 9 5.5t20 9.5q10 6 26.5 19.5l33 27t30 23.5t18.5 10q7 0 14 -4t7 -9z" />
    <glyph glyph-name="Ucircumflex" unicode="&#xdb;" horiz-adv-x="399" 
d="M440 -46q0 -12 -6 -15.5t-14 -3.5q-6 0 -16 2q-5 1 -14.5 9.5t-20.5 19.5q-12 12 -26 27l-50 57q-2 -3 -9 -12.5t-17.5 -20t-24.5 -18.5t-30 -8q-11 0 -26.5 6.5t-31.5 18.5t-31.5 29t-26.5 38q-14 27 -23.5 56.5t-15 59.5t-7.5 59.5t-2 55.5q0 37 3.5 53t23.5 16
q8 0 12.5 -5.5t4.5 -11.5q0 -56 8 -113.5t23 -105t37.5 -77.5t52.5 -30q13 0 23 9.5t16.5 22.5t9.5 25t4 18q-6 14 -12.5 37.5t-11.5 51.5t-8 58t-3 58q0 43 0.5 70.5t3.5 43t9 21t17 5.5q6 0 11.5 -3.5t9 -7.5t5.5 -8t2 -5q0 -4 -2 -6.5t-2 -6.5q0 -8 2.5 -23t5.5 -31
q6 -32 11.5 -73t5.5 -95v-42q0 -8 8.5 -32.5t38.5 -71.5q20 -32 37.5 -51t28.5 -30q7 -6 12 -11.5t5 -8.5zM287 288q-1 6 -3 15t-4.5 18t-4 15l-1.5 6q0 -11 0.5 -26.5t2 -31t3.5 -30t5 -24.5q0 7 1 14q0 6 0.5 13.5t0.5 15.5v15zM285 502q-2 -1 -7.5 -3.5t-10.5 -2.5
q-11 0 -21 4t-18 9q-17 9 -29.5 22.5t-22.5 27.5t-18 27t-14 20q-14 -17 -31 -32t-41 -30q-8 -4 -11 -4q-7 0 -10.5 5.5t-3.5 9.5q0 6 5 11q12 12 24 28t24 31t23 25t20 10q18 0 31.5 -14.5t27 -35t28.5 -42t37 -36.5q10 0 19 -4t9 -11q0 -5 -4 -9z" />
    <glyph glyph-name="Udieresis" unicode="&#xdc;" horiz-adv-x="399" 
d="M440 -46q0 -12 -6 -15.5t-14 -3.5q-6 0 -16 2q-5 1 -14.5 9.5t-20.5 19.5q-12 12 -26 27l-50 57q-2 -3 -9 -12.5t-17.5 -20t-24.5 -18.5t-30 -8q-11 0 -26.5 6.5t-31.5 18.5t-31.5 29t-26.5 38q-14 27 -23.5 56.5t-15 59.5t-7.5 59.5t-2 55.5q0 37 3.5 53t23.5 16
q8 0 12.5 -5.5t4.5 -11.5q0 -56 8 -113.5t23 -105t37.5 -77.5t52.5 -30q13 0 23 9.5t16.5 22.5t9.5 25t4 18q-6 14 -12.5 37.5t-11.5 51.5t-8 58t-3 58q0 43 0.5 70.5t3.5 43t9 21t17 5.5q6 0 11.5 -3.5t9 -7.5t5.5 -8t2 -5q0 -4 -2 -6.5t-2 -6.5q0 -8 2.5 -23t5.5 -31
q6 -32 11.5 -73t5.5 -95v-42q0 -8 8.5 -32.5t38.5 -71.5q20 -32 37.5 -51t28.5 -30q7 -6 12 -11.5t5 -8.5zM287 288q-1 6 -3 15t-4.5 18t-4 15l-1.5 6q0 -11 0.5 -26.5t2 -31t3.5 -30t5 -24.5q0 7 1 14q0 6 0.5 13.5t0.5 15.5v15zM131 528q0 -2 -5 -8t-12.5 -12.5t-16 -11.5
t-14.5 -5q-4 0 -10.5 0.5t-13 3.5t-11.5 8.5t-5 14.5q0 14 10 26.5t26 12.5q3 0 11.5 -2.5t17.5 -6.5t16 -9t7 -11zM254 531q0 -6 -6 -11.5t-13.5 -10t-14.5 -7t-8 -2.5q-9 0 -13.5 4.5t-7 10t-3 10.5t-0.5 7q0 4 2 10.5t6 12.5t9.5 10.5t12.5 4.5q13 0 24.5 -11t11.5 -28z
" />
    <glyph glyph-name="Yacute" unicode="&#xdd;" horiz-adv-x="314" 
d="M317 335q0 -14 -6.5 -20t-14.5 -6q-9 0 -17.5 3t-21.5 8l-15 6q-2 -5 -2.5 -12.5t-0.5 -12.5q0 -35 3 -76t7 -82t9.5 -80t9.5 -70.5t7 -53t3 -27.5v-25q0 -11 -2.5 -20t-10.5 -9q-15 0 -25.5 24.5t-17 56t-9.5 61t-3 39.5q0 7 -2.5 34t-5.5 60.5t-5.5 68t-2.5 58.5
q0 10 -0.5 22.5t-0.5 23.5v31q0 16 -22.5 33t-54.5 37.5t-66 47t-56 63.5q-3 1 -3 9q0 14 6 25t16 11q3 0 9 -7.5t15 -18.5t21 -24.5t27 -25.5q10 -9 28 -22.5t35.5 -26.5t30.5 -22.5t14 -9.5q4 0 5 8t1 10l5 60q5 51 12.5 92.5t7.5 72.5q0 3 -2 12t-2 12q0 6 4 9.5t9 5.5
q6 3 14 4q14 0 20 -10.5t6 -19.5q0 -36 -4.5 -70t-10 -68t-10 -69.5t-4.5 -74.5q0 -6 7 -12.5t17.5 -12t23.5 -11t25 -9.5zM241 772q0 -8 -12 -23t-28.5 -31t-34 -29.5t-27.5 -18.5q-8 -4 -14 -5t-10 -1q-8 0 -20 9t-12 17q0 2 9 5.5t20 9.5q10 6 26.5 19.5l33 27t30 23.5
t18.5 10q7 0 14 -4t7 -9z" />
    <glyph glyph-name="Thorn" unicode="&#xde;" horiz-adv-x="376" 
d="M152 4q-2 11 -16 49.5t-33 95.5q-5 16 -9.5 33t-7.5 32t-4.5 25t-1.5 12q0 4 -3.5 21t-9 53t-12 93.5t-13.5 142.5q0 9 3 23t14 14t18.5 -15t12 -38t7 -49.5t4.5 -50.5q31 10 60 15.5t52 5.5q46 0 71 -12.5t36.5 -28t13.5 -29t2 -15.5q0 -39 -24.5 -78.5t-55.5 -73
t-59.5 -58.5t-37.5 -35l14 -46q11 -22 20 -50t9 -41q0 -11 -5 -22t-19 -11q-10 0 -18.5 9.5t-8.5 21.5q0 2 0.5 3.5t0.5 3.5zM287 394q-2 11 -23.5 17.5t-52.5 6.5q-34 0 -63.5 -7t-41.5 -12q3 -27 6.5 -51t7.5 -48.5t9.5 -52t13.5 -62.5q18 17 42.5 41.5t47.5 51.5t39 55
t16 51q0 3 -0.5 5.5t-0.5 4.5z" />
    <glyph glyph-name="germandbls" unicode="&#xdf;" horiz-adv-x="491" 
d="M440 243q13 -12 12 -30q0 -17 -7 -32q-7 -16 -17.5 -29t-23.5 -25q-11 -10 -23 -19l-18 -13q-14 -11 -31 -22q-17 -10 -35 -19q-13 -7 -28 -8q-8 0 -12 7q-3 6 -4 13q1 10 7 18q7 13 18 21q3 2 7 3q5 1 9 2q5 1 10 1q26 14 50 32q20 13 36 31q15 15 16 36q0 3 -10 6
q-14 4 -29 3q-21 0 -41 -6q-20 -7 -39 -15t-34 -14q-11 -6 -24 -7q-14 -1 -24 10q-6 8 -7 19q1 12 4 23q4 12 15 19q19 12 35 28q23 23 42 46q22 26 39 49q8 11 14 20v3q8 41 -6.5 79.5t-47.5 63.5q-11 7 -24 13q-14 7 -28 11q-15 5 -30 5q-36 1 -58 -27t-33 -62t-15 -69
q-3 -33 -3 -48q-1 -30 6 -60q5 -26 14 -52q10 -28 19 -47q4 -8 18 -41q7 -16 19 -39q14 -26 25 -54q13 -30 22 -60q10 -27 10 -56q0 -9 -2 -19q-3 -13 -7 -26.5t-13 -25.5q-6 -10 -17 -11q-10 1 -18 5q-10 4 -9 15q0 16 8 30t8 29q-2 25 -11 48q-9 27 -23 62q-13 33 -24 57
q-12 25 -15 30q-12 22 -21 47q-11 28 -19 58q-9 32 -13.5 65t-4.5 66q0 38 8 76t27 72q17 32 46 55q30 22 66 21q20 0 39 -4q19 -5 37 -12q13 -6 24 -14l1 -0.5l3 -1.5v0q1 -1 1.5 -1t1.5 -1v0q20 -14 38 -34t33.5 -48t14.5 -64t-22 -72v0q-3 -8 -6 -15q-12 -22 -29 -39
q-18 -19 -37 -35q-17 -14 -35 -31q21 10 49 21q23 9 47 11q5 0 20 -1q16 -2 31 -6q16 -4 28 -15z" />
    <glyph glyph-name="agrave" unicode="&#xe0;" horiz-adv-x="487" 
d="M515 208q0 -18 -16.5 -44.5t-44.5 -51.5t-65 -42.5t-77 -17.5q-18 0 -38 6t-39 17.5t-34 28t-22 37.5q-6 -6 -14.5 -20t-18.5 -28.5t-22 -25t-25 -10.5t-21.5 13.5t-13.5 30t-7 31.5t-2 17q0 12 7 45.5t21 69.5t35.5 64t50.5 28q11 0 14.5 -9.5t3.5 -18.5v-30
q5 -4 10.5 -5.5t10 -4t7 -7.5t2.5 -16q0 -7 -1 -12.5t-1 -10.5q0 -26 4 -51t16 -44.5t33 -32t56 -12.5q44 0 74.5 18.5t51 41t32.5 41t20 18.5q13 0 13 -13zM164 252q0 4 -2 7.5t-2 6.5q0 4 2 7t2 8q0 3 -2 4.5t-2 3.5q-9 -2 -18.5 -17t-18 -35t-13.5 -40.5t-5 -33.5
q0 -7 4 -23t9 -21q17 35 31.5 68t14.5 65zM56 548q3 3 7 3q5 0 12.5 -3.5t14.5 -8.5t21 -19.5t28 -31t26 -30.5t16 -17q1 -1 5 -2t9 -2.5t9 -3.5t4 -5q0 -8 -10.5 -19t-17.5 -11q-6 0 -19 7q-14 7 -32 26.5t-34.5 41.5t-28 42.5t-11.5 29.5q0 1 0.5 1.5t0.5 1.5z" />
    <glyph glyph-name="aacute" unicode="&#xe1;" horiz-adv-x="487" 
d="M515 208q0 -18 -16.5 -44.5t-44.5 -51.5t-65 -42.5t-77 -17.5q-18 0 -38 6t-39 17.5t-34 28t-22 37.5q-6 -6 -14.5 -20t-18.5 -28.5t-22 -25t-25 -10.5t-21.5 13.5t-13.5 30t-7 31.5t-2 17q0 12 7 45.5t21 69.5t35.5 64t50.5 28q11 0 14.5 -9.5t3.5 -18.5v-30
q5 -4 10.5 -5.5t10 -4t7 -7.5t2.5 -16q0 -7 -1 -12.5t-1 -10.5q0 -26 4 -51t16 -44.5t33 -32t56 -12.5q44 0 74.5 18.5t51 41t32.5 41t20 18.5q13 0 13 -13zM164 252q0 4 -2 7.5t-2 6.5q0 4 2 7t2 8q0 3 -2 4.5t-2 3.5q-9 -2 -18.5 -17t-18 -35t-13.5 -40.5t-5 -33.5
q0 -7 4 -23t9 -21q17 35 31.5 68t14.5 65zM289 504q0 -8 -12 -23t-28.5 -31t-34 -29.5t-27.5 -18.5q-8 -4 -14 -5t-10 -1q-8 0 -20 9t-12 17q0 2 9 5.5t20 9.5q10 6 26.5 19.5l33 27t30 23.5t18.5 10q7 0 14 -4t7 -9z" />
    <glyph glyph-name="acircumflex" unicode="&#xe2;" horiz-adv-x="487" 
d="M515 208q0 -18 -16.5 -44.5t-44.5 -51.5t-65 -42.5t-77 -17.5q-18 0 -38 6t-39 17.5t-34 28t-22 37.5q-6 -6 -14.5 -20t-18.5 -28.5t-22 -25t-25 -10.5t-21.5 13.5t-13.5 30t-7 31.5t-2 17q0 12 7 45.5t21 69.5t35.5 64t50.5 28q11 0 14.5 -9.5t3.5 -18.5v-30
q5 -4 10.5 -5.5t10 -4t7 -7.5t2.5 -16q0 -7 -1 -12.5t-1 -10.5q0 -26 4 -51t16 -44.5t33 -32t56 -12.5q44 0 74.5 18.5t51 41t32.5 41t20 18.5q13 0 13 -13zM164 252q0 4 -2 7.5t-2 6.5q0 4 2 7t2 8q0 3 -2 4.5t-2 3.5q-9 -2 -18.5 -17t-18 -35t-13.5 -40.5t-5 -33.5
q0 -7 4 -23t9 -21q17 35 31.5 68t14.5 65zM300 402q-2 -1 -7.5 -3.5t-10.5 -2.5q-11 0 -21 4t-18 9q-17 9 -29.5 22.5t-22.5 27.5t-18 27t-14 20q-14 -17 -31 -32t-41 -30q-8 -4 -11 -4q-7 0 -10.5 5.5t-3.5 9.5q0 6 5 11q12 12 24 28t24 31t23 25t20 10q18 0 31.5 -14.5
t27 -35t28.5 -42t37 -36.5q10 0 19 -4t9 -11q0 -5 -4 -9z" />
    <glyph glyph-name="atilde" unicode="&#xe3;" horiz-adv-x="487" 
d="M515 208q0 -18 -16.5 -44.5t-44.5 -51.5t-65 -42.5t-77 -17.5q-18 0 -38 6t-39 17.5t-34 28t-22 37.5q-6 -6 -14.5 -20t-18.5 -28.5t-22 -25t-25 -10.5t-21.5 13.5t-13.5 30t-7 31.5t-2 17q0 12 7 45.5t21 69.5t35.5 64t50.5 28q11 0 14.5 -9.5t3.5 -18.5v-30
q5 -4 10.5 -5.5t10 -4t7 -7.5t2.5 -16q0 -7 -1 -12.5t-1 -10.5q0 -26 4 -51t16 -44.5t33 -32t56 -12.5q44 0 74.5 18.5t51 41t32.5 41t20 18.5q13 0 13 -13zM164 252q0 4 -2 7.5t-2 6.5q0 4 2 7t2 8q0 3 -2 4.5t-2 3.5q-9 -2 -18.5 -17t-18 -35t-13.5 -40.5t-5 -33.5
q0 -7 4 -23t9 -21q17 35 31.5 68t14.5 65zM328 474q0 -11 -4 -23t-12.5 -22.5t-21 -17.5t-29.5 -7q-13 0 -27 7t-27 17.5t-24.5 24t-20.5 27.5l-54 -42q-8 -6 -16 -6q-11 0 -13 4t-2 11q0 6 11.5 19.5t27 27t31 24t23.5 10.5q10 0 21 -12.5t22 -26.5q15 -19 26 -31t21 -12
q11 0 14 11.5t3 21.5q0 2 -0.5 4t-0.5 4q8 8 13.5 10.5t12.5 2.5q12 0 19 -10t7 -16z" />
    <glyph glyph-name="adieresis" unicode="&#xe4;" horiz-adv-x="487" 
d="M515 208q0 -18 -16.5 -44.5t-44.5 -51.5t-65 -42.5t-77 -17.5q-18 0 -38 6t-39 17.5t-34 28t-22 37.5q-6 -6 -14.5 -20t-18.5 -28.5t-22 -25t-25 -10.5t-21.5 13.5t-13.5 30t-7 31.5t-2 17q0 12 7 45.5t21 69.5t35.5 64t50.5 28q11 0 14.5 -9.5t3.5 -18.5v-30
q5 -4 10.5 -5.5t10 -4t7 -7.5t2.5 -16q0 -7 -1 -12.5t-1 -10.5q0 -26 4 -51t16 -44.5t33 -32t56 -12.5q44 0 74.5 18.5t51 41t32.5 41t20 18.5q13 0 13 -13zM164 252q0 4 -2 7.5t-2 6.5q0 4 2 7t2 8q0 3 -2 4.5t-2 3.5q-9 -2 -18.5 -17t-18 -35t-13.5 -40.5t-5 -33.5
q0 -7 4 -23t9 -21q17 35 31.5 68t14.5 65zM129 441q0 -2 -5 -8t-12.5 -12.5t-16 -11.5t-14.5 -5q-4 0 -10.5 0.5t-13 3.5t-11.5 8.5t-5 14.5q0 14 10 26.5t26 12.5q3 0 11.5 -2.5t17.5 -6.5t16 -9t7 -11zM252 444q0 -6 -6 -11.5t-13.5 -10t-14.5 -7t-8 -2.5q-9 0 -13.5 4.5
t-7 10t-3 10.5t-0.5 7q0 4 2 10.5t6 12.5t9.5 10.5t12.5 4.5q13 0 24.5 -11t11.5 -28z" />
    <glyph glyph-name="aring" unicode="&#xe5;" horiz-adv-x="487" 
d="M515 208q0 -18 -16.5 -44.5t-44.5 -51.5t-65 -42.5t-77 -17.5q-18 0 -38 6t-39 17.5t-34 28t-22 37.5q-6 -6 -14.5 -20t-18.5 -28.5t-22 -25t-25 -10.5t-21.5 13.5t-13.5 30t-7 31.5t-2 17q0 12 7 45.5t21 69.5t35.5 64t50.5 28q11 0 14.5 -9.5t3.5 -18.5v-30
q5 -4 10.5 -5.5t10 -4t7 -7.5t2.5 -16q0 -7 -1 -12.5t-1 -10.5q0 -26 4 -51t16 -44.5t33 -32t56 -12.5q44 0 74.5 18.5t51 41t32.5 41t20 18.5q13 0 13 -13zM164 252q0 4 -2 7.5t-2 6.5q0 4 2 7t2 8q0 3 -2 4.5t-2 3.5q-9 -2 -18.5 -17t-18 -35t-13.5 -40.5t-5 -33.5
q0 -7 4 -23t9 -21q17 35 31.5 68t14.5 65zM233 498q8 -8 8 -22q0 -7 -5 -20.5t-14.5 -26.5t-23.5 -22.5t-32 -9.5q-26 0 -37.5 12t-11.5 26q0 16 8.5 34.5t22 34t30 25.5t33.5 10q9 0 22.5 -8t13.5 -16q0 -1 -4 -6.5t-10 -10.5zM201 492q-1 0 -1.5 0.5t-1.5 0.5
q-4 0 -10.5 -4.5t-12.5 -11.5t-10 -15t-4 -14q0 -11 7 -11q8 0 14.5 5.5t11.5 13t7.5 16t2.5 14.5q0 4 -3 6z" />
    <glyph glyph-name="ae" unicode="&#xe6;" horiz-adv-x="523" 
d="M497 133q1 -2 1 -6q0 -6 -9 -18q-3 -4 -13 -13t-27 -18t-41.5 -16t-57.5 -7q-29 0 -56.5 16.5t-44.5 50.5q-17 -43 -45 -69.5t-59 -26.5q-39 0 -61.5 24t-22.5 79q0 30 13.5 50.5t32.5 33t38 18.5t30 6q6 0 10.5 -5.5t4.5 -13.5q0 -14 -13.5 -18t-29 -9.5t-29 -19
t-13.5 -47.5q0 -26 14.5 -38t28.5 -12q10 0 23 11.5t25 31t20 46t8 57.5q0 26 -9.5 47t-24.5 35.5t-35 22.5t-41 8q-8 0 -17 -2.5t-17.5 -6t-15 -6t-9.5 -2.5q-5 0 -8.5 4.5t-3.5 10.5t9 18q6 8 30.5 19t60.5 11q29 0 56 -16.5t45 -49.5q16 42 41 68.5t49 26.5
q16 0 32.5 -6.5t30 -16.5t21.5 -22.5t8 -25.5q0 -15 -13.5 -31t-32.5 -29.5t-38 -22t-30 -8.5q-6 0 -10.5 5.5t-4.5 13.5q0 14 12.5 22t27.5 14.5t27.5 15.5t12.5 25q0 2 -5 10t-27 8q-10 0 -23 -11.5t-25 -31t-20 -46t-8 -57.5q0 -26 9.5 -47t24.5 -35.5t35 -22.5t41 -8
q15 0 32.5 6.5t33 14t27 14t14.5 6.5t6.5 -3t4.5 -6z" />
    <glyph glyph-name="ccedilla" unicode="&#xe7;" horiz-adv-x="368" 
d="M328 182q0 -10 -3 -20.5t-6 -17.5q-2 -3 -16.5 -18.5t-37 -33.5t-50.5 -34t-55 -20l-10 -11l-13 -13t-10 -18q2 -4 6.5 -5t9.5 -1q3 0 17.5 1t20.5 1q7 0 23.5 -2.5t34 -10t30.5 -21t13 -35.5q0 -18 -14 -30.5t-32 -21t-34.5 -12.5t-21.5 -4q-17 0 -29.5 13t-12.5 30
q0 3 5 3t12.5 -2t14.5 -2q2 0 12 2.5t21.5 7t21 10.5t9.5 14q0 5 -5.5 9.5t-13.5 7.5t-16.5 5t-15.5 2q-13 0 -19.5 -1t-18.5 -1q-7 0 -17.5 1t-20.5 5.5t-17 12t-7 21.5q0 6 9 20.5t22 28.5q-26 9 -47.5 33.5t-21.5 69.5q0 48 16 87t32 62q7 11 18.5 22.5t22.5 21
t20.5 15.5t13.5 6q9 0 16.5 -5t7.5 -10q0 -8 -4.5 -13.5t-12.5 -12t-19 -17t-23 -27.5q-24 -33 -35.5 -67.5t-11.5 -60.5t19.5 -41.5t40.5 -15.5q38 0 67.5 17t50.5 38t34 38t19 17q11 0 11 -17z" />
    <glyph glyph-name="egrave" unicode="&#xe8;" horiz-adv-x="349" 
d="M318 105q1 -2 1 -6q0 -6 -9 -18q-3 -4 -13 -13t-27 -18t-41.5 -16t-57.5 -7q-23 0 -45 10.5t-39 31t-28 51t-11 71.5q0 39 10 73t25.5 60t34.5 41t37 15q16 0 32.5 -6.5t30 -16.5t21.5 -22.5t8 -25.5q0 -15 -13.5 -31t-32.5 -29.5t-38 -22t-30 -8.5q-6 0 -10.5 5.5
t-4.5 13.5q0 14 12.5 22t27.5 14.5t27.5 15.5t12.5 25q0 2 -5 10t-27 8q-10 0 -23 -11.5t-25 -31t-20 -46t-8 -57.5q0 -26 9.5 -47t24.5 -35.5t35 -22.5t41 -8q15 0 32.5 6.5t33 14t27 14t14.5 6.5t6.5 -3t4.5 -6zM50 562q3 3 7 3q5 0 12.5 -3.5t14.5 -8.5t21 -19.5t28 -31
t26 -30.5t16 -17q1 -1 5 -2t9 -2.5t9 -3.5t4 -5q0 -8 -10.5 -19t-17.5 -11q-6 0 -19 7q-14 7 -32 26.5t-34.5 41.5t-28 42.5t-11.5 29.5q0 1 0.5 1.5t0.5 1.5z" />
    <glyph glyph-name="eacute" unicode="&#xe9;" horiz-adv-x="349" 
d="M318 105q1 -2 1 -6q0 -6 -9 -18q-3 -4 -13 -13t-27 -18t-41.5 -16t-57.5 -7q-23 0 -45 10.5t-39 31t-28 51t-11 71.5q0 39 10 73t25.5 60t34.5 41t37 15q16 0 32.5 -6.5t30 -16.5t21.5 -22.5t8 -25.5q0 -15 -13.5 -31t-32.5 -29.5t-38 -22t-30 -8.5q-6 0 -10.5 5.5
t-4.5 13.5q0 14 12.5 22t27.5 14.5t27.5 15.5t12.5 25q0 2 -5 10t-27 8q-10 0 -23 -11.5t-25 -31t-20 -46t-8 -57.5q0 -26 9.5 -47t24.5 -35.5t35 -22.5t41 -8q15 0 32.5 6.5t33 14t27 14t14.5 6.5t6.5 -3t4.5 -6zM261 528q0 -8 -12 -23t-28.5 -31t-34 -29.5t-27.5 -18.5
q-8 -4 -14 -5t-10 -1q-8 0 -20 9t-12 17q0 2 9 5.5t20 9.5q10 6 26.5 19.5l33 27t30 23.5t18.5 10q7 0 14 -4t7 -9z" />
    <glyph glyph-name="ecircumflex" unicode="&#xea;" horiz-adv-x="349" 
d="M318 105q1 -2 1 -6q0 -6 -9 -18q-3 -4 -13 -13t-27 -18t-41.5 -16t-57.5 -7q-23 0 -45 10.5t-39 31t-28 51t-11 71.5q0 39 10 73t25.5 60t34.5 41t37 15q16 0 32.5 -6.5t30 -16.5t21.5 -22.5t8 -25.5q0 -15 -13.5 -31t-32.5 -29.5t-38 -22t-30 -8.5q-6 0 -10.5 5.5
t-4.5 13.5q0 14 12.5 22t27.5 14.5t27.5 15.5t12.5 25q0 2 -5 10t-27 8q-10 0 -23 -11.5t-25 -31t-20 -46t-8 -57.5q0 -26 9.5 -47t24.5 -35.5t35 -22.5t41 -8q15 0 32.5 6.5t33 14t27 14t14.5 6.5t6.5 -3t4.5 -6zM308 402q-2 -1 -7.5 -3.5t-10.5 -2.5q-11 0 -21 4t-18 9
q-17 9 -29.5 22.5t-22.5 27.5t-18 27t-14 20q-14 -17 -31 -32t-41 -30q-8 -4 -11 -4q-7 0 -10.5 5.5t-3.5 9.5q0 6 5 11q12 12 24 28t24 31t23 25t20 10q18 0 31.5 -14.5t27 -35t28.5 -42t37 -36.5q10 0 19 -4t9 -11q0 -5 -4 -9z" />
    <glyph glyph-name="edieresis" unicode="&#xeb;" horiz-adv-x="349" 
d="M318 105q1 -2 1 -6q0 -6 -9 -18q-3 -4 -13 -13t-27 -18t-41.5 -16t-57.5 -7q-23 0 -45 10.5t-39 31t-28 51t-11 71.5q0 39 10 73t25.5 60t34.5 41t37 15q16 0 32.5 -6.5t30 -16.5t21.5 -22.5t8 -25.5q0 -15 -13.5 -31t-32.5 -29.5t-38 -22t-30 -8.5q-6 0 -10.5 5.5
t-4.5 13.5q0 14 12.5 22t27.5 14.5t27.5 15.5t12.5 25q0 2 -5 10t-27 8q-10 0 -23 -11.5t-25 -31t-20 -46t-8 -57.5q0 -26 9.5 -47t24.5 -35.5t35 -22.5t41 -8q15 0 32.5 6.5t33 14t27 14t14.5 6.5t6.5 -3t4.5 -6zM153 462q0 -2 -5 -8t-12.5 -12.5t-16 -11.5t-14.5 -5
q-4 0 -10.5 0.5t-13 3.5t-11.5 8.5t-5 14.5q0 14 10 26.5t26 12.5q3 0 11.5 -2.5t17.5 -6.5t16 -9t7 -11zM276 465q0 -6 -6 -11.5t-13.5 -10t-14.5 -7t-8 -2.5q-9 0 -13.5 4.5t-7 10t-3 10.5t-0.5 7q0 4 2 10.5t6 12.5t9.5 10.5t12.5 4.5q13 0 24.5 -11t11.5 -28z" />
    <glyph glyph-name="igrave" unicode="&#xec;" horiz-adv-x="155" 
d="M132 86q0 -7 -10.5 -12t-15.5 -5q-10 0 -18 13t-14 30t-10 32.5t-6 21.5q-3 10 -8 24t-9.5 27t-7.5 23t-3 11q0 14 5.5 26t13.5 12q9 0 19 -14t19.5 -35.5t17.5 -47t14 -48t9.5 -39t3.5 -19.5zM-111 548q3 3 7 3q5 0 12.5 -3.5t14.5 -8.5t21 -19.5t28 -31t26 -30.5
t16 -17q1 -1 5 -2t9 -2.5t9 -3.5t4 -5q0 -8 -10.5 -19t-17.5 -11q-6 0 -19 7q-14 7 -32 26.5t-34.5 41.5t-28 42.5t-11.5 29.5q0 1 0.5 1.5t0.5 1.5z" />
    <glyph glyph-name="iacute" unicode="&#xed;" horiz-adv-x="155" 
d="M132 86q0 -7 -10.5 -12t-15.5 -5q-10 0 -18 13t-14 30t-10 32.5t-6 21.5q-3 10 -8 24t-9.5 27t-7.5 23t-3 11q0 14 5.5 26t13.5 12q9 0 19 -14t19.5 -35.5t17.5 -47t14 -48t9.5 -39t3.5 -19.5zM157 504q0 -8 -12 -23t-28.5 -31t-34 -29.5t-27.5 -18.5q-8 -4 -14 -5
t-10 -1q-8 0 -20 9t-12 17q0 2 9 5.5t20 9.5q10 6 26.5 19.5l33 27t30 23.5t18.5 10q7 0 14 -4t7 -9z" />
    <glyph glyph-name="icircumflex" unicode="&#xee;" horiz-adv-x="155" 
d="M132 86q0 -7 -10.5 -12t-15.5 -5q-10 0 -18 13t-14 30t-10 32.5t-6 21.5q-3 10 -8 24t-9.5 27t-7.5 23t-3 11q0 14 5.5 26t13.5 12q9 0 19 -14t19.5 -35.5t17.5 -47t14 -48t9.5 -39t3.5 -19.5zM155 402q-2 -1 -7.5 -3.5t-10.5 -2.5q-11 0 -21 4t-18 9q-17 9 -29.5 22.5
t-22.5 27.5t-18 27t-14 20q-14 -17 -31 -32t-41 -30q-8 -4 -11 -4q-7 0 -10.5 5.5t-3.5 9.5q0 6 5 11q12 12 24 28t24 31t23 25t20 10q18 0 31.5 -14.5t27 -35t28.5 -42t37 -36.5q10 0 19 -4t9 -11q0 -5 -4 -9z" />
    <glyph glyph-name="idieresis" unicode="&#xef;" horiz-adv-x="155" 
d="M132 86q0 -7 -10.5 -12t-15.5 -5q-10 0 -18 13t-14 30t-10 32.5t-6 21.5q-3 10 -8 24t-9.5 27t-7.5 23t-3 11q0 14 5.5 26t13.5 12q9 0 19 -14t19.5 -35.5t17.5 -47t14 -48t9.5 -39t3.5 -19.5zM1 441q0 -2 -5 -8t-12.5 -12.5t-16 -11.5t-14.5 -5q-4 0 -10.5 0.5t-13 3.5
t-11.5 8.5t-5 14.5q0 14 10 26.5t26 12.5q3 0 11.5 -2.5t17.5 -6.5t16 -9t7 -11zM124 444q0 -6 -6 -11.5t-13.5 -10t-14.5 -7t-8 -2.5q-9 0 -13.5 4.5t-7 10t-3 10.5t-0.5 7q0 4 2 10.5t6 12.5t9.5 10.5t12.5 4.5q13 0 24.5 -11t11.5 -28z" />
    <glyph glyph-name="eth" unicode="&#xf0;" horiz-adv-x="334" 
d="M276 598q0 -11 -19 -33t-45 -45q13 -32 25 -67.5t20 -70t13 -66.5t5 -58v-65q0 -4 1 -9.5t3 -10.5t6 -17t4 -13q0 -4 -2.5 -11t-6.5 -13.5t-8 -11.5t-8 -5t-10 5.5t-12 5.5q-5 0 -12 -11q-10 -18 -30 -30t-37 -12q-15 0 -35 16.5t-37 41.5t-29 54t-12 54q0 18 3 35.5
t12 31.5t24.5 22.5t40.5 8.5q11 0 25.5 -6t28.5 -15t26 -20.5t18 -22.5q-1 51 -14.5 112t-37.5 116q-17 -14 -32 -24t-23 -15q-9 -5 -17 -6t-12 -1q-10 0 -23 9.5t-14 18.5l10 3l25 13q8 5 26.5 19t36.5 28q-14 25 -31 46t-36 35q-6 5 -11.5 9t-5.5 9t9 13t29 8t42.5 -25
t42.5 -64q21 17 39 30.5t23 13.5q8 0 15 -3t7 -7zM95 233q0 -14 7 -34t18 -39t25.5 -32t28.5 -13q6 0 15 7.5t16.5 18t13 21.5t5.5 18q0 8 -10 24t-25 31.5t-32 27.5t-32 12q-17 0 -23.5 -10.5t-6.5 -31.5z" />
    <glyph glyph-name="ntilde" unicode="&#xf1;" horiz-adv-x="352" 
d="M340 123q0 -6 -4 -12t-9.5 -11t-12 -8.5t-11.5 -3.5q-17 0 -43.5 7.5t-42.5 23.5q-17 17 -30 40.5t-29 69.5q-11 -44 -25.5 -87t-46.5 -79q-2 -2 -6 -2q-7 0 -15 7t-8 14t-1.5 32.5t-3.5 57t-3.5 64t-1.5 53.5q0 10 1 26.5t6 28.5q1 2 7.5 8t14.5 6q7 0 8 -9t1 -20v-158
q0 -5 1.5 -14t4.5 -13q11 24 20.5 56.5t18.5 62t18 50t18 20.5q10 0 16 -4t10 -16q5 -29 8 -51.5t7.5 -40.5t13 -33.5t23.5 -28.5q14 -13 31.5 -19t30.5 -6q6 0 13 2.5t10 2.5q4 0 7.5 -7t3.5 -9zM301 474q0 -11 -4 -23t-12.5 -22.5t-21 -17.5t-29.5 -7q-13 0 -27 7
t-27 17.5t-24.5 24t-20.5 27.5l-54 -42q-8 -6 -16 -6q-11 0 -13 4t-2 11q0 6 11.5 19.5t27 27t31 24t23.5 10.5q10 0 21 -12.5t22 -26.5q15 -19 26 -31t21 -12q11 0 14 11.5t3 21.5q0 2 -0.5 4t-0.5 4q8 8 13.5 10.5t12.5 2.5q12 0 19 -10t7 -16z" />
    <glyph glyph-name="ograve" unicode="&#xf2;" horiz-adv-x="280" 
d="M219 216q0 -22 -6 -42t-16 -35t-23.5 -23.5t-29.5 -8.5q-28 0 -44 16t-24.5 37t-11 42.5t-2.5 32.5q0 18 5.5 40.5t15 41.5t21.5 32t25 13q3 0 9.5 -2t13.5 -6t12.5 -10t7.5 -14q11 -1 22 -8t12 -11q8 -26 10.5 -52t2.5 -43zM174 234q0 15 -3 31.5t-12 33.5q-2 -1 -5 -1
q-4 0 -6.5 1t-4.5 1q-12 0 -19 -6.5t-10.5 -17t-4.5 -22.5t-1 -23t1 -24.5t4.5 -25.5t9.5 -20.5t16 -8.5t17 10.5t11 24.5t5.5 27.5t1.5 19.5zM31 551q3 3 7 3q5 0 12.5 -3.5t14.5 -8.5t21 -19.5t28 -31t26 -30.5t16 -17q1 -1 5 -2t9 -2.5t9 -3.5t4 -5q0 -8 -10.5 -19
t-17.5 -11q-6 0 -19 7q-14 7 -32 26.5t-34.5 41.5t-28 42.5t-11.5 29.5q0 1 0.5 1.5t0.5 1.5z" />
    <glyph glyph-name="oacute" unicode="&#xf3;" horiz-adv-x="280" 
d="M219 216q0 -22 -6 -42t-16 -35t-23.5 -23.5t-29.5 -8.5q-28 0 -44 16t-24.5 37t-11 42.5t-2.5 32.5q0 18 5.5 40.5t15 41.5t21.5 32t25 13q3 0 9.5 -2t13.5 -6t12.5 -10t7.5 -14q11 -1 22 -8t12 -11q8 -26 10.5 -52t2.5 -43zM174 234q0 15 -3 31.5t-12 33.5q-2 -1 -5 -1
q-4 0 -6.5 1t-4.5 1q-12 0 -19 -6.5t-10.5 -17t-4.5 -22.5t-1 -23t1 -24.5t4.5 -25.5t9.5 -20.5t16 -8.5t17 10.5t11 24.5t5.5 27.5t1.5 19.5zM252 508q0 -8 -12 -23t-28.5 -31t-34 -29.5t-27.5 -18.5q-8 -4 -14 -5t-10 -1q-8 0 -20 9t-12 17q0 2 9 5.5t20 9.5
q10 6 26.5 19.5l33 27t30 23.5t18.5 10q7 0 14 -4t7 -9z" />
    <glyph glyph-name="ocircumflex" unicode="&#xf4;" horiz-adv-x="280" 
d="M219 216q0 -22 -6 -42t-16 -35t-23.5 -23.5t-29.5 -8.5q-28 0 -44 16t-24.5 37t-11 42.5t-2.5 32.5q0 18 5.5 40.5t15 41.5t21.5 32t25 13q3 0 9.5 -2t13.5 -6t12.5 -10t7.5 -14q11 -1 22 -8t12 -11q8 -26 10.5 -52t2.5 -43zM174 234q0 15 -3 31.5t-12 33.5q-2 -1 -5 -1
q-4 0 -6.5 1t-4.5 1q-12 0 -19 -6.5t-10.5 -17t-4.5 -22.5t-1 -23t1 -24.5t4.5 -25.5t9.5 -20.5t16 -8.5t17 10.5t11 24.5t5.5 27.5t1.5 19.5zM281 402q-2 -1 -7.5 -3.5t-10.5 -2.5q-11 0 -21 4t-18 9q-17 9 -29.5 22.5t-22.5 27.5t-18 27t-14 20q-14 -17 -31 -32t-41 -30
q-8 -4 -11 -4q-7 0 -10.5 5.5t-3.5 9.5q0 6 5 11q12 12 24 28t24 31t23 25t20 10q18 0 31.5 -14.5t27 -35t28.5 -42t37 -36.5q10 0 19 -4t9 -11q0 -5 -4 -9z" />
    <glyph glyph-name="otilde" unicode="&#xf5;" horiz-adv-x="280" 
d="M219 216q0 -22 -6 -42t-16 -35t-23.5 -23.5t-29.5 -8.5q-28 0 -44 16t-24.5 37t-11 42.5t-2.5 32.5q0 18 5.5 40.5t15 41.5t21.5 32t25 13q3 0 9.5 -2t13.5 -6t12.5 -10t7.5 -14q11 -1 22 -8t12 -11q8 -26 10.5 -52t2.5 -43zM174 234q0 15 -3 31.5t-12 33.5q-2 -1 -5 -1
q-4 0 -6.5 1t-4.5 1q-12 0 -19 -6.5t-10.5 -17t-4.5 -22.5t-1 -23t1 -24.5t4.5 -25.5t9.5 -20.5t16 -8.5t17 10.5t11 24.5t5.5 27.5t1.5 19.5zM266 474q0 -11 -4 -23t-12.5 -22.5t-21 -17.5t-29.5 -7q-13 0 -27 7t-27 17.5t-24.5 24t-20.5 27.5l-54 -42q-8 -6 -16 -6
q-11 0 -13 4t-2 11q0 6 11.5 19.5t27 27t31 24t23.5 10.5q10 0 21 -12.5t22 -26.5q15 -19 26 -31t21 -12q11 0 14 11.5t3 21.5q0 2 -0.5 4t-0.5 4q8 8 13.5 10.5t12.5 2.5q12 0 19 -10t7 -16z" />
    <glyph glyph-name="odieresis" unicode="&#xf6;" horiz-adv-x="280" 
d="M219 216q0 -22 -6 -42t-16 -35t-23.5 -23.5t-29.5 -8.5q-28 0 -44 16t-24.5 37t-11 42.5t-2.5 32.5q0 18 5.5 40.5t15 41.5t21.5 32t25 13q3 0 9.5 -2t13.5 -6t12.5 -10t7.5 -14q11 -1 22 -8t12 -11q8 -26 10.5 -52t2.5 -43zM174 234q0 15 -3 31.5t-12 33.5q-2 -1 -5 -1
q-4 0 -6.5 1t-4.5 1q-12 0 -19 -6.5t-10.5 -17t-4.5 -22.5t-1 -23t1 -24.5t4.5 -25.5t9.5 -20.5t16 -8.5t17 10.5t11 24.5t5.5 27.5t1.5 19.5zM122 441q0 -2 -5 -8t-12.5 -12.5t-16 -11.5t-14.5 -5q-4 0 -10.5 0.5t-13 3.5t-11.5 8.5t-5 14.5q0 14 10 26.5t26 12.5
q3 0 11.5 -2.5t17.5 -6.5t16 -9t7 -11zM245 444q0 -6 -6 -11.5t-13.5 -10t-14.5 -7t-8 -2.5q-9 0 -13.5 4.5t-7 10t-3 10.5t-0.5 7q0 4 2 10.5t6 12.5t9.5 10.5t12.5 4.5q13 0 24.5 -11t11.5 -28z" />
    <glyph glyph-name="divide" unicode="&#xf7;" horiz-adv-x="358" 
d="M211 115q0 -11 -12.5 -20.5t-33.5 -9.5q-8 0 -16.5 5t-8.5 15q0 20 11.5 35.5t25.5 15.5q4 0 10 -4t11 -10t9 -13.5t4 -13.5zM207 306q0 -6 -6 -11.5t-13.5 -10t-14.5 -7t-8 -2.5q-9 0 -13.5 4.5t-7 10t-3 10.5t-0.5 7q0 4 2 10.5t6 12.5t9.5 10.5t12.5 4.5
q13 0 24.5 -11t11.5 -28zM308 242q0 -6 -3.5 -13t-8.5 -9q-8 -3 -37 -9.5t-72 -11.5q-14 -2 -35.5 -3t-48.5 -4q-5 -1 -21 -6.5t-27 -5.5q-7 0 -12 3t-5 13t7 16.5t16.5 10t18 5.5t11.5 2q33 4 50 3.5t31 1.5q29 4 61.5 13.5t54.5 9.5q11 0 15.5 -5.5t4.5 -10.5z" />
    <glyph glyph-name="oslash" unicode="&#xf8;" horiz-adv-x="400" 
d="M333 238q0 -42 -10.5 -72.5t-26 -52t-35 -35t-37.5 -21t-32.5 -10.5t-20.5 -3q-11 0 -16 1q-25 -49 -53 -88q-8 -10 -9 -10q-3 0 -6.5 9.5t-3.5 11.5t27 68l9 23q-28 17 -46 48t-18 71q0 24 6 47.5t12.5 44t12.5 36.5t6 26q0 2 -0.5 5t-0.5 6q0 9 11 15t16 6q7 0 20 -3.5
t18 -3.5h11.5t13.5 1l16 2q5 0 12 -0.5t15 -1.5q16 46 31.5 77.5t23.5 31.5q2 0 5.5 -1.5t7.5 -3.5q5 -3 5 -11t-4.5 -21.5t-10 -29t-11.5 -30t-9 -23.5q27 -11 49 -36.5t22 -72.5zM135 104q18 50 38 106.5t37 107.5q-3 1 -10 1q-20 0 -35 -3t-32 -3l-8 -24t-10 -31.5
t-8.5 -32t-3.5 -27.5q0 -23 6 -50.5t26 -43.5zM176 91q27 0 48 11.5t35.5 31.5t21.5 46.5t7 55.5q0 26 -11 43.5t-28 26.5q-16 -54 -34 -109t-39 -106z" />
    <glyph glyph-name="ugrave" unicode="&#xf9;" horiz-adv-x="369" 
d="M369 166q0 -9 -12 -19t-28 -18.5t-32.5 -14.5t-24.5 -6q-9 0 -19.5 5t-20 12t-16.5 13t-9 8q-3 -3 -9 -12t-14.5 -19.5t-18 -18.5t-19.5 -8q-26 0 -45 28t-31.5 64t-19 69.5t-6.5 45.5q0 7 7.5 11.5t11.5 4.5q14 0 19 -9.5t5 -20.5q0 -9 5.5 -32t13.5 -47t17 -42.5
t16 -18.5q13 0 22.5 16.5t15.5 38t9 41t3 25.5q0 1 0.5 6.5t1.5 11.5t1.5 11t0.5 7q0 7 -3 9.5t-3 10.5q0 6 6 11.5t26 5.5q8 0 12.5 -4.5t6.5 -10.5t2.5 -11.5t0.5 -7.5q0 -1 -1 -14t-1.5 -28.5t-1.5 -29.5t-1 -17t3 -12t7.5 -18.5t10.5 -17t13 -7.5q12 0 22.5 3.5t20 8
t17.5 8t15 3.5q9 0 16.5 -4t7.5 -10zM15 548q3 3 7 3q5 0 12.5 -3.5t14.5 -8.5t21 -19.5t28 -31t26 -30.5t16 -17q1 -1 5 -2t9 -2.5t9 -3.5t4 -5q0 -8 -10.5 -19t-17.5 -11q-6 0 -19 7q-14 7 -32 26.5t-34.5 41.5t-28 42.5t-11.5 29.5q0 1 0.5 1.5t0.5 1.5z" />
    <glyph glyph-name="uacute" unicode="&#xfa;" horiz-adv-x="369" 
d="M369 166q0 -9 -12 -19t-28 -18.5t-32.5 -14.5t-24.5 -6q-9 0 -19.5 5t-20 12t-16.5 13t-9 8q-3 -3 -9 -12t-14.5 -19.5t-18 -18.5t-19.5 -8q-26 0 -45 28t-31.5 64t-19 69.5t-6.5 45.5q0 7 7.5 11.5t11.5 4.5q14 0 19 -9.5t5 -20.5q0 -9 5.5 -32t13.5 -47t17 -42.5
t16 -18.5q13 0 22.5 16.5t15.5 38t9 41t3 25.5q0 1 0.5 6.5t1.5 11.5t1.5 11t0.5 7q0 7 -3 9.5t-3 10.5q0 6 6 11.5t26 5.5q8 0 12.5 -4.5t6.5 -10.5t2.5 -11.5t0.5 -7.5q0 -1 -1 -14t-1.5 -28.5t-1.5 -29.5t-1 -17t3 -12t7.5 -18.5t10.5 -17t13 -7.5q12 0 22.5 3.5t20 8
t17.5 8t15 3.5q9 0 16.5 -4t7.5 -10zM241 487q0 -8 -12 -23t-28.5 -31t-34 -29.5t-27.5 -18.5q-8 -4 -14 -5t-10 -1q-8 0 -20 9t-12 17q0 2 9 5.5t20 9.5q10 6 26.5 19.5l33 27t30 23.5t18.5 10q7 0 14 -4t7 -9z" />
    <glyph glyph-name="ucircumflex" unicode="&#xfb;" horiz-adv-x="369" 
d="M369 166q0 -9 -12 -19t-28 -18.5t-32.5 -14.5t-24.5 -6q-9 0 -19.5 5t-20 12t-16.5 13t-9 8q-3 -3 -9 -12t-14.5 -19.5t-18 -18.5t-19.5 -8q-26 0 -45 28t-31.5 64t-19 69.5t-6.5 45.5q0 7 7.5 11.5t11.5 4.5q14 0 19 -9.5t5 -20.5q0 -9 5.5 -32t13.5 -47t17 -42.5
t16 -18.5q13 0 22.5 16.5t15.5 38t9 41t3 25.5q0 1 0.5 6.5t1.5 11.5t1.5 11t0.5 7q0 7 -3 9.5t-3 10.5q0 6 6 11.5t26 5.5q8 0 12.5 -4.5t6.5 -10.5t2.5 -11.5t0.5 -7.5q0 -1 -1 -14t-1.5 -28.5t-1.5 -29.5t-1 -17t3 -12t7.5 -18.5t10.5 -17t13 -7.5q12 0 22.5 3.5t20 8
t17.5 8t15 3.5q9 0 16.5 -4t7.5 -10zM264 402q-2 -1 -7.5 -3.5t-10.5 -2.5q-11 0 -21 4t-18 9q-17 9 -29.5 22.5t-22.5 27.5t-18 27t-14 20q-14 -17 -31 -32t-41 -30q-8 -4 -11 -4q-7 0 -10.5 5.5t-3.5 9.5q0 6 5 11q12 12 24 28t24 31t23 25t20 10q18 0 31.5 -14.5t27 -35
t28.5 -42t37 -36.5q10 0 19 -4t9 -11q0 -5 -4 -9z" />
    <glyph glyph-name="udieresis" unicode="&#xfc;" horiz-adv-x="369" 
d="M369 166q0 -9 -12 -19t-28 -18.5t-32.5 -14.5t-24.5 -6q-9 0 -19.5 5t-20 12t-16.5 13t-9 8q-3 -3 -9 -12t-14.5 -19.5t-18 -18.5t-19.5 -8q-26 0 -45 28t-31.5 64t-19 69.5t-6.5 45.5q0 7 7.5 11.5t11.5 4.5q14 0 19 -9.5t5 -20.5q0 -9 5.5 -32t13.5 -47t17 -42.5
t16 -18.5q13 0 22.5 16.5t15.5 38t9 41t3 25.5q0 1 0.5 6.5t1.5 11.5t1.5 11t0.5 7q0 7 -3 9.5t-3 10.5q0 6 6 11.5t26 5.5q8 0 12.5 -4.5t6.5 -10.5t2.5 -11.5t0.5 -7.5q0 -1 -1 -14t-1.5 -28.5t-1.5 -29.5t-1 -17t3 -12t7.5 -18.5t10.5 -17t13 -7.5q12 0 22.5 3.5t20 8
t17.5 8t15 3.5q9 0 16.5 -4t7.5 -10zM128 441q0 -2 -5 -8t-12.5 -12.5t-16 -11.5t-14.5 -5q-4 0 -10.5 0.5t-13 3.5t-11.5 8.5t-5 14.5q0 14 10 26.5t26 12.5q3 0 11.5 -2.5t17.5 -6.5t16 -9t7 -11zM251 444q0 -6 -6 -11.5t-13.5 -10t-14.5 -7t-8 -2.5q-9 0 -13.5 4.5t-7 10
t-3 10.5t-0.5 7q0 4 2 10.5t6 12.5t9.5 10.5t12.5 4.5q13 0 24.5 -11t11.5 -28z" />
    <glyph glyph-name="yacute" unicode="&#xfd;" horiz-adv-x="282" 
d="M249 468q-13 -69 -24 -133q-5 -27 -10 -56.5t-9.5 -58t-8 -54t-5.5 -46.5q-4 -32 -6 -73t-4 -78q-2 -43 -2 -87q0 -9 -2 -20t-2 -22q0 -10 -4.5 -17t-13.5 -7q-8 0 -12.5 12.5t-7.5 29t-4 33t-1 23.5v19.5t1.5 34t4.5 59t9 95.5q0 1 -13.5 10t-33 22.5t-40 29.5t-34.5 31
q-2 2 -6 9t-4 17q0 5 5 10.5t11 5.5q4 0 8 -4q23 -20 53 -44.5t59 -44.5q2 18 8.5 55t13.5 79.5t13.5 82.5t9.5 64q0 4 2 13t6 18t9 15.5t11 6.5q3 0 13 -5.5t10 -24.5zM252 605q0 -8 -12 -23t-28.5 -31t-34 -29.5t-27.5 -18.5q-8 -4 -14 -5t-10 -1q-8 0 -20 9t-12 17
q0 2 9 5.5t20 9.5q10 6 26.5 19.5l33 27t30 23.5t18.5 10q7 0 14 -4t7 -9z" />
    <glyph glyph-name="thorn" unicode="&#xfe;" horiz-adv-x="344" 
d="M185 -198q0 -12 -6 -18t-15 -6q-7 0 -16 26t-19 64.5t-19 84.5t-16.5 85.5t-12 67t-4.5 29.5q0 4 -3 28.5t-7.5 62.5t-10 85.5t-10 98t-7.5 99.5t-3 90q0 10 2.5 25t16.5 15q11 0 15.5 -3t8.5 -21q4 -21 6.5 -50.5t4 -60.5t2.5 -61.5t4 -54.5q5 -38 7.5 -70.5t7.5 -62.5
q6 16 15 34.5t20.5 34t25.5 26t30 10.5q9 0 25 -8t31 -27t26.5 -50t11.5 -76q0 -36 -9 -64t-22 -46.5t-27.5 -28t-24.5 -9.5q-14 0 -28 10t-14 21q0 16 13 16q5 0 11 -1t10 -3q17 14 29.5 39.5t12.5 65.5q0 24 -6 43.5t-14.5 33.5t-16.5 21.5t-11 7.5q-10 0 -22.5 -18.5
t-23.5 -42.5t-19.5 -47.5t-9.5 -34.5q3 -25 8.5 -52t10.5 -59l42 -249v0z" />
    <glyph glyph-name="ydieresis" unicode="&#xff;" horiz-adv-x="282" 
d="M249 468q-13 -69 -24 -133q-5 -27 -10 -56.5t-9.5 -58t-8 -54t-5.5 -46.5q-4 -32 -6 -73t-4 -78q-2 -43 -2 -87q0 -9 -2 -20t-2 -22q0 -10 -4.5 -17t-13.5 -7q-8 0 -12.5 12.5t-7.5 29t-4 33t-1 23.5v19.5t1.5 34t4.5 59t9 95.5q0 1 -13.5 10t-33 22.5t-40 29.5t-34.5 31
q-2 2 -6 9t-4 17q0 5 5 10.5t11 5.5q4 0 8 -4q23 -20 53 -44.5t59 -44.5q2 18 8.5 55t13.5 79.5t13.5 82.5t9.5 64q0 4 2 13t6 18t9 15.5t11 6.5q3 0 13 -5.5t10 -24.5zM49 441q0 -2 -5 -8t-12.5 -12.5t-16 -11.5t-14.5 -5q-4 0 -10.5 0.5t-13 3.5t-11.5 8.5t-5 14.5
q0 14 10 26.5t26 12.5q3 0 11.5 -2.5t17.5 -6.5t16 -9t7 -11zM172 444q0 -6 -6 -11.5t-13.5 -10t-14.5 -7t-8 -2.5q-9 0 -13.5 4.5t-7 10t-3 10.5t-0.5 7q0 4 2 10.5t6 12.5t9.5 10.5t12.5 4.5q13 0 24.5 -11t11.5 -28z" />
    <glyph glyph-name="Amacron" unicode="&#x100;" horiz-adv-x="406" 
d="M354 -44q1 -4 1 -7.5v-5.5q0 -10 -4.5 -14t-17.5 -4q-12 0 -16 4q-6 6 -16 31t-21 59t-21.5 73t-18.5 74q-11 -5 -30 -10.5t-39 -10.5q-23 -5 -48 -11q-9 -43 -13.5 -73.5t-8 -50t-9 -29t-17.5 -9.5q-8 0 -14 9t-6 27q0 9 5 42t11 73.5t12 80.5t8 63q1 12 6.5 39
t11.5 55.5t12 51.5t8 26q16 37 20.5 76t7 71.5t8.5 53t25 20.5q5 0 10.5 -8t10.5 -19t8 -21.5t4 -16.5t2.5 -24t3 -39.5t3 -42t2.5 -31.5q3 -33 9.5 -74t13.5 -77t13 -60.5t9 -24.5q4 0 10.5 2t12.5 2q8 0 8 -8t-4 -13t-8.5 -9t-8 -7t-3.5 -7q0 -8 9 -41l16 -59q2 -8 9 -27
t14.5 -39.5t13.5 -38t6 -21.5zM132 185q6 0 22 3.5t33 8.5t30 10t13 8t-3.5 15.5t-8 32t-9.5 44.5t-9 53q-2 18 -5 49t-6 61.5t-5 52.5l-2 22l-3 -14.5t-6.5 -32t-6 -33t-2.5 -17.5v-28q0 -2 -2.5 -17.5t-6.5 -39t-8.5 -51t-8.5 -52.5t-6.5 -44.5t-2.5 -26.5q0 -4 3 -4z
M321 716q-1 -5 -16.5 -9.5t-39 -8.5t-51.5 -7t-53.5 -5.5t-44.5 -3.5t-25 -1q-13 0 -19 7.5t-6 16.5q0 5 4 17t12 12q5 0 8 -4t7 -5q45 0 88.5 4t90.5 4q6 0 13.5 -1t14 -3t11.5 -5t6 -8z" />
    <glyph glyph-name="amacron" unicode="&#x101;" horiz-adv-x="487" 
d="M515 208q0 -18 -16.5 -44.5t-44.5 -51.5t-65 -42.5t-77 -17.5q-18 0 -38 6t-39 17.5t-34 28t-22 37.5q-6 -6 -14.5 -20t-18.5 -28.5t-22 -25t-25 -10.5t-21.5 13.5t-13.5 30t-7 31.5t-2 17q0 12 7 45.5t21 69.5t35.5 64t50.5 28q11 0 14.5 -9.5t3.5 -18.5v-30
q5 -4 10.5 -5.5t10 -4t7 -7.5t2.5 -16q0 -7 -1 -12.5t-1 -10.5q0 -26 4 -51t16 -44.5t33 -32t56 -12.5q44 0 74.5 18.5t51 41t32.5 41t20 18.5q13 0 13 -13zM164 252q0 4 -2 7.5t-2 6.5q0 4 2 7t2 8q0 3 -2 4.5t-2 3.5q-9 -2 -18.5 -17t-18 -35t-13.5 -40.5t-5 -33.5
q0 -7 4 -23t9 -21q17 35 31.5 68t14.5 65zM290 464q-1 -5 -16.5 -9.5t-39 -8.5t-51.5 -7t-53.5 -5.5t-44.5 -3.5t-25 -1q-13 0 -19 7.5t-6 16.5q0 5 4 17t12 12q5 0 8 -4t7 -5q45 0 88.5 4t90.5 4q6 0 13.5 -1t14 -3t11.5 -5t6 -8z" />
    <glyph glyph-name="Abreve" unicode="&#x102;" horiz-adv-x="406" 
d="M354 -44q1 -4 1 -7.5v-5.5q0 -10 -4.5 -14t-17.5 -4q-12 0 -16 4q-6 6 -16 31t-21 59t-21.5 73t-18.5 74q-11 -5 -30 -10.5t-39 -10.5q-23 -5 -48 -11q-9 -43 -13.5 -73.5t-8 -50t-9 -29t-17.5 -9.5q-8 0 -14 9t-6 27q0 9 5 42t11 73.5t12 80.5t8 63q1 12 6.5 39
t11.5 55.5t12 51.5t8 26q16 37 20.5 76t7 71.5t8.5 53t25 20.5q5 0 10.5 -8t10.5 -19t8 -21.5t4 -16.5t2.5 -24t3 -39.5t3 -42t2.5 -31.5q3 -33 9.5 -74t13.5 -77t13 -60.5t9 -24.5q4 0 10.5 2t12.5 2q8 0 8 -8t-4 -13t-8.5 -9t-8 -7t-3.5 -7q0 -8 9 -41l16 -59q2 -8 9 -27
t14.5 -39.5t13.5 -38t6 -21.5zM132 185q6 0 22 3.5t33 8.5t30 10t13 8t-3.5 15.5t-8 32t-9.5 44.5t-9 53q-2 18 -5 49t-6 61.5t-5 52.5l-2 22l-3 -14.5t-6.5 -32t-6 -33t-2.5 -17.5v-28q0 -2 -2.5 -17.5t-6.5 -39t-8.5 -51t-8.5 -52.5t-6.5 -44.5t-2.5 -26.5q0 -4 3 -4z
M181 696q-10 0 -25 3.5t-29.5 11t-25 18.5t-10.5 27t15 16q11 0 16.5 -4.5t12 -9.5t16 -9.5t28.5 -4.5q18 0 37 9.5t35 21.5t27 21.5t13 9.5q3 0 9.5 -5.5t6.5 -13.5q0 -15 -13 -31.5t-32 -29.5t-41 -21.5t-40 -8.5z" />
    <glyph glyph-name="abreve" unicode="&#x103;" horiz-adv-x="487" 
d="M515 208q0 -18 -16.5 -44.5t-44.5 -51.5t-65 -42.5t-77 -17.5q-18 0 -38 6t-39 17.5t-34 28t-22 37.5q-6 -6 -14.5 -20t-18.5 -28.5t-22 -25t-25 -10.5t-21.5 13.5t-13.5 30t-7 31.5t-2 17q0 12 7 45.5t21 69.5t35.5 64t50.5 28q11 0 14.5 -9.5t3.5 -18.5v-30
q5 -4 10.5 -5.5t10 -4t7 -7.5t2.5 -16q0 -7 -1 -12.5t-1 -10.5q0 -26 4 -51t16 -44.5t33 -32t56 -12.5q44 0 74.5 18.5t51 41t32.5 41t20 18.5q13 0 13 -13zM164 252q0 4 -2 7.5t-2 6.5q0 4 2 7t2 8q0 3 -2 4.5t-2 3.5q-9 -2 -18.5 -17t-18 -35t-13.5 -40.5t-5 -33.5
q0 -7 4 -23t9 -21q17 35 31.5 68t14.5 65zM189 408q-10 0 -25 3.5t-29.5 11t-25 18.5t-10.5 27t15 16q11 0 16.5 -4.5t12 -9.5t16 -9.5t28.5 -4.5q18 0 37 9.5t35 21.5t27 21.5t13 9.5q3 0 9.5 -5.5t6.5 -13.5q0 -15 -13 -31.5t-32 -29.5t-41 -21.5t-40 -8.5z" />
    <glyph glyph-name="Aogonek" unicode="&#x104;" horiz-adv-x="406" 
d="M352 -256q0 -8 -1 -14t-7 -14q-2 -3 -9.5 -8t-19 -10t-25 -8.5t-28.5 -3.5q-13 0 -26.5 5t-25 14t-18.5 22.5t-7 31.5q0 21 8 41t19.5 38t24.5 33t23 25q10 11 24 22t28 19q-7 12 -16.5 37.5t-19.5 57.5t-19.5 67t-16.5 67q-11 -5 -30 -10.5t-39 -10.5q-23 -5 -48 -11
q-9 -43 -13.5 -73.5t-8 -50t-9 -29t-17.5 -9.5q-8 0 -14 9t-6 27q0 9 5 42t11 73.5t12 80.5t8 63q1 12 6.5 39t11.5 55.5t12 51.5t8 26q16 37 20.5 76t7 71.5t8.5 53t25 20.5q5 0 10.5 -8t10.5 -19t8 -21.5t4 -16.5t2.5 -24t3 -39.5t3 -42t2.5 -31.5q3 -33 9.5 -74t13.5 -77
t13 -60.5t9 -24.5q4 0 10.5 2t12.5 2q8 0 8 -8t-4 -13t-8.5 -9t-8 -7t-3.5 -7q0 -8 9 -41l16 -59q4 -14 11.5 -31t14.5 -35t12.5 -35.5t5.5 -32.5q0 -13 -7 -20q-7 -8 -20.5 -17.5t-34.5 -30.5q-29 -27 -47 -59t-18 -55q0 -18 13.5 -27.5t30.5 -9.5q15 0 26 3.5t19.5 8
t15 8.5t11.5 4q8 0 8 -9zM132 185q6 0 22 3.5t33 8.5t30 10t13 8t-3.5 15.5t-8 32t-9.5 44.5t-9 53q-2 18 -5 49t-6 61.5t-5 52.5l-2 22l-3 -14.5t-6.5 -32t-6 -33t-2.5 -17.5v-28q0 -2 -2.5 -17.5t-6.5 -39t-8.5 -51t-8.5 -52.5t-6.5 -44.5t-2.5 -26.5q0 -4 3 -4z" />
    <glyph glyph-name="aogonek" unicode="&#x105;" horiz-adv-x="487" 
d="M431 -91q0 -8 -1 -14t-7 -14q-2 -3 -9.5 -8t-19 -10t-25 -8.5t-28.5 -3.5q-13 0 -26.5 5t-25 14t-18.5 22.5t-7 31.5q0 19 6.5 37.5t16.5 35t22 31t22 25.5q-5 -1 -9.5 -1h-9.5q-18 0 -38 6t-39 17.5t-34 28t-22 37.5q-6 -6 -14.5 -20t-18.5 -28.5t-22 -25t-25 -10.5
t-21.5 13.5t-13.5 30t-7 31.5t-2 17q0 12 7 45.5t21 69.5t35.5 64t50.5 28q11 0 14.5 -9.5t3.5 -18.5v-30q5 -4 10.5 -5.5t10 -4t7 -7.5t2.5 -16q0 -7 -1 -12.5t-1 -10.5q0 -26 4 -51t16 -44.5t33 -32t56 -12.5q44 0 74.5 18.5t51 41t32.5 41t20 18.5q13 0 13 -13
q0 -12 -7 -27t-19 -31.5t-29 -33t-38 -29.5q-8 -7 -20.5 -16t-29.5 -26q-29 -27 -47 -59t-18 -55q0 -18 13.5 -27.5t30.5 -9.5q15 0 26 3.5t19.5 8t15 8.5t11.5 4q8 0 8 -9zM164 252q0 4 -2 7.5t-2 6.5q0 4 2 7t2 8q0 3 -2 4.5t-2 3.5q-9 -2 -18.5 -17t-18 -35t-13.5 -40.5
t-5 -33.5q0 -7 4 -23t9 -21q17 35 31.5 68t14.5 65z" />
    <glyph glyph-name="Cacute" unicode="&#x106;" horiz-adv-x="522" 
d="M477 229q0 -14 -7.5 -29t-18.5 -30t-24 -28.5t-24 -23.5q-27 -24 -55.5 -45.5t-59 -38.5t-63.5 -27t-69 -10q-109 0 -109 112q0 11 9 43t23 73t33 86t39 82.5t39.5 61.5t36.5 24q11 0 16.5 -7t5.5 -15q-1 -6 -14 -25.5t-27 -39.5q-2 -3 -7 -10l-10 -14q-6 -8 -12 -17
q-4 -7 -17.5 -35.5t-28.5 -66t-27 -78t-12 -70.5q0 -17 7.5 -27t18 -15t22 -6.5t20.5 -1.5q37 0 78.5 16.5t79.5 43.5t70 62.5t50 73.5q4 7 8.5 9t8.5 2q8 0 14 -11t6 -18zM325 647q0 -8 -12 -23t-28.5 -31t-34 -29.5t-27.5 -18.5q-8 -4 -14 -5t-10 -1q-8 0 -20 9t-12 17
q0 2 9 5.5t20 9.5q10 6 26.5 19.5l33 27t30 23.5t18.5 10q7 0 14 -4t7 -9z" />
    <glyph glyph-name="cacute" unicode="&#x107;" horiz-adv-x="368" 
d="M328 182q0 -10 -3 -20.5t-6 -17.5q-2 -3 -18.5 -20.5t-41 -36.5t-55 -34.5t-58.5 -15.5q-17 0 -34.5 6t-32.5 19.5t-24.5 33.5t-9.5 49q0 48 16 87t32 62q7 11 18.5 22.5t22.5 21t20.5 15.5t13.5 6q9 0 16.5 -5t7.5 -10q0 -8 -4.5 -13.5t-12.5 -12t-19 -17t-23 -27.5
q-24 -33 -35.5 -67.5t-11.5 -60.5t19.5 -41.5t40.5 -15.5q38 0 67.5 17t50.5 38t34 38t19 17q11 0 11 -17zM260 518q0 -8 -12 -23t-28.5 -31t-34 -29.5t-27.5 -18.5q-8 -4 -14 -5t-10 -1q-8 0 -20 9t-12 17q0 2 9 5.5t20 9.5q10 6 26.5 19.5l33 27t30 23.5t18.5 10
q7 0 14 -4t7 -9z" />
    <glyph glyph-name="Ccircumflex" unicode="&#x108;" horiz-adv-x="632" 
d="M451 580q-2 -1 -7.5 -3.5t-10.5 -2.5q-11 0 -21 4t-18 9q-17 9 -29.5 22.5t-22.5 27.5t-18 27t-14 20q-14 -17 -31 -32t-41 -30q-8 -4 -11 -4q-7 0 -10.5 5.5t-3.5 9.5q0 6 5 11q12 12 24 28t24 31t23 25t20 10q18 0 31.5 -14.5t27 -35t28.5 -42t37 -36.5q10 0 19 -4
t9 -11q0 -5 -4 -9zM477 229q0 -14 -7.5 -29t-18.5 -30t-24 -28.5t-24 -23.5q-27 -24 -55.5 -45.5t-59 -38.5t-63.5 -27t-69 -10q-109 0 -109 112q0 11 9 43t23 73t33 86t39 82.5t39.5 61.5t36.5 24q11 0 16.5 -7t5.5 -15q-1 -6 -14 -25.5t-27 -39.5q-2 -3 -7 -10l-10 -14
q-6 -8 -12 -17q-4 -7 -17.5 -35.5t-28.5 -66t-27 -78t-12 -70.5q0 -17 7.5 -27t18 -15t22 -6.5t20.5 -1.5q37 0 78.5 16.5t79.5 43.5t70 62.5t50 73.5q4 7 8.5 9t8.5 2q8 0 14 -11t6 -18z" />
    <glyph glyph-name="ccircumflex" unicode="&#x109;" horiz-adv-x="480" 
d="M355 402q-2 -1 -7.5 -3.5t-10.5 -2.5q-11 0 -21 4t-18 9q-17 9 -29.5 22.5t-22.5 27.5t-18 27t-14 20q-14 -17 -31 -32t-41 -30q-8 -4 -11 -4q-7 0 -10.5 5.5t-3.5 9.5q0 6 5 11q12 12 24 28t24 31t23 25t20 10q18 0 31.5 -14.5t27 -35t28.5 -42t37 -36.5q10 0 19 -4
t9 -11q0 -5 -4 -9zM328 182q0 -10 -3 -20.5t-6 -17.5q-2 -3 -18.5 -20.5t-41 -36.5t-55 -34.5t-58.5 -15.5q-17 0 -34.5 6t-32.5 19.5t-24.5 33.5t-9.5 49q0 48 16 87t32 62q7 11 18.5 22.5t22.5 21t20.5 15.5t13.5 6q9 0 16.5 -5t7.5 -10q0 -8 -4.5 -13.5t-12.5 -12
t-19 -17t-23 -27.5q-24 -33 -35.5 -67.5t-11.5 -60.5t19.5 -41.5t40.5 -15.5q38 0 67.5 17t50.5 38t34 38t19 17q11 0 11 -17z" />
    <glyph glyph-name="Cdot" unicode="&#x10a;" horiz-adv-x="632" 
d="M453 628q0 -6 -6 -11.5t-13.5 -10t-14.5 -7t-8 -2.5q-9 0 -13.5 4.5t-7 10t-3 10.5t-0.5 7q0 4 2 10.5t6 12.5t9.5 10.5t12.5 4.5q13 0 24.5 -11t11.5 -28zM477 229q0 -14 -7.5 -29t-18.5 -30t-24 -28.5t-24 -23.5q-27 -24 -55.5 -45.5t-59 -38.5t-63.5 -27t-69 -10
q-109 0 -109 112q0 11 9 43t23 73t33 86t39 82.5t39.5 61.5t36.5 24q11 0 16.5 -7t5.5 -15q-1 -6 -14 -25.5t-27 -39.5q-2 -3 -7 -10l-10 -14q-6 -8 -12 -17q-4 -7 -17.5 -35.5t-28.5 -66t-27 -78t-12 -70.5q0 -17 7.5 -27t18 -15t22 -6.5t20.5 -1.5q37 0 78.5 16.5
t79.5 43.5t70 62.5t50 73.5q4 7 8.5 9t8.5 2q8 0 14 -11t6 -18z" />
    <glyph glyph-name="cdot" unicode="&#x10b;" horiz-adv-x="480" 
d="M357 450q0 -6 -6 -11.5t-13.5 -10t-14.5 -7t-8 -2.5q-9 0 -13.5 4.5t-7 10t-3 10.5t-0.5 7q0 4 2 10.5t6 12.5t9.5 10.5t12.5 4.5q13 0 24.5 -11t11.5 -28zM328 182q0 -10 -3 -20.5t-6 -17.5q-2 -3 -18.5 -20.5t-41 -36.5t-55 -34.5t-58.5 -15.5q-17 0 -34.5 6
t-32.5 19.5t-24.5 33.5t-9.5 49q0 48 16 87t32 62q7 11 18.5 22.5t22.5 21t20.5 15.5t13.5 6q9 0 16.5 -5t7.5 -10q0 -8 -4.5 -13.5t-12.5 -12t-19 -17t-23 -27.5q-24 -33 -35.5 -67.5t-11.5 -60.5t19.5 -41.5t40.5 -15.5q38 0 67.5 17t50.5 38t34 38t19 17q11 0 11 -17z
" />
    <glyph glyph-name="Ccaron" unicode="&#x10c;" horiz-adv-x="522" 
d="M477 229q0 -14 -7.5 -29t-18.5 -30t-24 -28.5t-24 -23.5q-27 -24 -55.5 -45.5t-59 -38.5t-63.5 -27t-69 -10q-109 0 -109 112q0 11 9 43t23 73t33 86t39 82.5t39.5 61.5t36.5 24q11 0 16.5 -7t5.5 -15q-1 -6 -14 -25.5t-27 -39.5q-2 -3 -7 -10l-10 -14q-6 -8 -12 -17
q-4 -7 -17.5 -35.5t-28.5 -66t-27 -78t-12 -70.5q0 -17 7.5 -27t18 -15t22 -6.5t20.5 -1.5q37 0 78.5 16.5t79.5 43.5t70 62.5t50 73.5q4 7 8.5 9t8.5 2q8 0 14 -11t6 -18zM358 684q5 -5 5 -14q0 -8 -5.5 -16t-10.5 -15q-14 -16 -29.5 -33.5t-32.5 -32t-34 -24t-34 -9.5
q-12 0 -20 13t-13.5 32t-7.5 39.5t-2 35.5q0 9 2.5 15.5t13.5 6.5q9 0 11 -8q7 -29 15.5 -48.5t17.5 -33.5q8 5 18.5 13.5t21 19t20 21.5t16.5 21q7 9 10 17.5t16 8.5q6 0 13 -3.5t9 -5.5z" />
    <glyph glyph-name="ccaron" unicode="&#x10d;" horiz-adv-x="368" 
d="M328 182q0 -10 -3 -20.5t-6 -17.5q-2 -3 -18.5 -20.5t-41 -36.5t-55 -34.5t-58.5 -15.5q-17 0 -34.5 6t-32.5 19.5t-24.5 33.5t-9.5 49q0 48 16 87t32 62q7 11 18.5 22.5t22.5 21t20.5 15.5t13.5 6q9 0 16.5 -5t7.5 -10q0 -8 -4.5 -13.5t-12.5 -12t-19 -17t-23 -27.5
q-24 -33 -35.5 -67.5t-11.5 -60.5t19.5 -41.5t40.5 -15.5q38 0 67.5 17t50.5 38t34 38t19 17q11 0 11 -17zM266 547q5 -5 5 -14q0 -8 -5.5 -16t-10.5 -15q-14 -16 -29.5 -33.5t-32.5 -32t-34 -24t-34 -9.5q-12 0 -20 13t-13.5 32t-7.5 39.5t-2 35.5q0 9 2.5 15.5t13.5 6.5
q9 0 11 -8q7 -29 15.5 -48.5t17.5 -33.5q8 5 18.5 13.5t21 19t20 21.5t16.5 21q7 9 10 17.5t16 8.5q6 0 13 -3.5t9 -5.5z" />
    <glyph glyph-name="Dcaron" unicode="&#x10e;" horiz-adv-x="448" 
d="M404 300q0 -34 -12 -65t-34 -60t-51.5 -56.5t-64.5 -53.5q-37 -28 -86 -54t-98.5 -46.5t-93.5 -32.5t-71 -12q-18 0 -26.5 4.5t-8.5 20.5q0 11 8 26t16 15t11.5 -5t3.5 -11q0 -3 -0.5 -5t-0.5 -3v-2q38 4 101.5 23.5t151.5 67.5q38 21 75 49.5t66.5 61t47.5 68t18 69.5
q0 24 -24.5 49.5t-62 48t-81.5 39t-82 22.5q1 -5 3 -24.5t6 -45.5t9.5 -55.5t12.5 -54.5q8 -28 10.5 -41.5t3.5 -22.5q1 -10 3.5 -25.5t4 -32t3 -31t1.5 -22.5q0 -9 -3.5 -19t-8.5 -10q-12 0 -16.5 8.5t-8 29t-8.5 53.5t-19 81q-20 67 -28 126.5t-10 94.5l-4.5 0.5t-12 0.5
t-17 0.5t-17.5 0.5q-17 0 -31 -6.5t-23.5 -14.5t-16 -14.5t-8.5 -6.5q-7 0 -19.5 3.5t-12.5 13.5q0 13 12.5 26.5t30.5 24t39 17t39 6.5q30 0 70 -8t82.5 -22t84 -34t74.5 -44t53 -52t20 -58zM237 720q5 -5 5 -14q0 -8 -5.5 -16t-10.5 -15q-14 -16 -29.5 -33.5t-32.5 -32
t-34 -24t-34 -9.5q-12 0 -20 13t-13.5 32t-7.5 39.5t-2 35.5q0 9 2.5 15.5t13.5 6.5q9 0 11 -8q7 -29 15.5 -48.5t17.5 -33.5q8 5 18.5 13.5t21 19t20 21.5t16.5 21q7 9 10 17.5t16 8.5q6 0 13 -3.5t9 -5.5z" />
    <glyph glyph-name="dcaron" unicode="&#x10f;" horiz-adv-x="406" 
d="M323 161q0 -5 -4.5 -9.5t-5.5 -9.5q0 -11 4.5 -21t4.5 -24q0 -13 -8 -13q-10 0 -14.5 -2.5t-15.5 -4.5q-6 0 -13 11q-4 5 -7 12q0 1 -5.5 -4t-18 -11.5t-34 -12t-54.5 -5.5q-28 0 -49 12.5t-34.5 32.5t-20 45.5t-6.5 51.5q0 24 5.5 45.5t15.5 38t25 26.5t35 10
q19 0 38 -12t34 -26t24.5 -25.5l9.5 -11.5q-14 78 -25 141q-5 27 -9.5 53.5t-8.5 47.5t-6.5 35.5t-2.5 17.5q-1 6 -2 21.5t-2 32.5t-2 31t-2 18l-7.5 25t-4.5 17q0 5 5 12.5t13 7.5q6 0 11 -1t9 -6t7.5 -15.5t6.5 -29.5q1 -10 6 -38t10 -61t10 -63t7 -44q5 -38 13.5 -82.5
t17.5 -85.5t18 -72.5t16 -42.5q2 -4 8 -5.5t8 -6.5zM249 141q-1 3 -12.5 25.5t-29 49t-39 47.5t-41.5 21q-17 0 -27.5 -26t-10.5 -60q0 -38 22.5 -61t50.5 -23q24 0 50 8t37 19zM372 483q0 -18 -7.5 -33t-17.5 -25.5t-19 -16.5t-13 -6q-3 0 -7.5 4.5t-4.5 10.5q0 1 4 7
t9.5 14.5t9.5 20t4 24.5q0 26 -5 46.5t-13 40.5q-1 3 -2.5 7t-1.5 6q0 7 4.5 9t9.5 2q7 0 16 -12.5t16.5 -29.5t12.5 -36.5t5 -32.5z" />
    <glyph glyph-name="Dcroat" unicode="&#x110;" horiz-adv-x="448" 
d="M168 275q0 -6 -7.5 -11.5t-18.5 -10.5q4 -15 5 -23t1.5 -14t1 -12.5t3.5 -19.5q5 -23 7 -46t2 -36q0 -8 -3 -18t-8 -10q-9 0 -13.5 9t-7 23.5t-5 33.5t-7.5 39l-15 59q-20 -5 -35.5 -8.5t-19.5 -3.5q-15 0 -21 2t-10 11q-2 4 -5 8.5t-3 7.5q0 5 8 5q10 0 31.5 5t44.5 11
q-5 20 -9 37t-6 25q-2 11 -4.5 31.5t-4.5 42.5q-3 25 -6 54l-5 1t-13 2t-17.5 2t-17.5 1q-17 0 -30.5 -6.5t-24 -15t-17 -15t-8.5 -6.5q-6 0 -18 3.5t-12 12.5q0 13 12 26t30 23t39 16.5t39 6.5q29 0 69 -8t83 -22t84.5 -34t74.5 -44t53 -51.5t20 -57.5q0 -68 -45 -124.5
t-117 -110.5q-37 -28 -79.5 -51.5t-84.5 -40t-79.5 -25.5t-65.5 -9q-17 0 -25 4.5t-8 18.5q0 10 7.5 24.5t14.5 14.5t10 -4.5t3 -9.5q0 -3 -0.5 -5t-0.5 -4v-3q3 0 6 0.5t6 0.5q18 1 35.5 3t40 9t53 20.5t75.5 38.5q39 21 76.5 50t67 62t48 68.5t18.5 71.5q0 24 -25.5 50
t-63.5 49t-83 40t-84 23q0 -4 2 -22t5.5 -43t8.5 -54t12 -55q17 5 21 5t9.5 -6.5t5.5 -10.5z" />
    <glyph glyph-name="dcroat" unicode="&#x111;" horiz-adv-x="360" 
d="M276 480q0 -7 -10 -14t-24 -12q5 -38 13.5 -82t17.5 -84.5t18 -72t16 -42.5q2 -4 8 -5.5t8 -6.5q0 -5 -4.5 -9.5t-5.5 -9.5q0 -11 4.5 -21t4.5 -24q0 -13 -8 -13q-10 0 -14.5 -2.5t-15.5 -4.5q-6 0 -13 11q-4 5 -7 12q0 1 -5.5 -4t-18 -11.5t-34 -12t-54.5 -5.5
q-28 0 -49 12.5t-34.5 32.5t-20 45.5t-6.5 51.5q0 24 5.5 45.5t15.5 38t25 26.5t35 10q19 0 38 -12t34 -26t24.5 -25.5l9.5 -11.5q-6 29 -11 61q-5 27 -11 60t-11 65q-20 -5 -37 -8t-22 -3q-22 0 -30 2t-13 13q-4 4 -7 9t-3 8q0 4 1.5 5t8.5 1q14 0 40.5 5t53.5 11l-11 66
q-1 6 -2 21.5t-2 32.5t-2 31t-2 18l-7.5 25t-4.5 17q0 5 5 12.5t13 7.5q6 0 11 -1t9 -6t7.5 -15.5t6.5 -29.5l27 -168q8 2 13 3t7 1q5 0 12.5 -7t7.5 -11zM249 141q-1 3 -12.5 25.5t-29 49t-39 47.5t-41.5 21q-17 0 -27.5 -26t-10.5 -60q0 -38 22.5 -61t50.5 -23q24 0 50 8
t37 19z" />
    <glyph glyph-name="Emacron" unicode="&#x112;" horiz-adv-x="369" 
d="M331 353q1 -2 2 -2.5t1 -2.5q0 -6 -25 -22.5t-62 -37t-78 -41t-73 -33.5q0 -2 -2 -13t-2 -14v-19q0 -23 7 -45.5t21.5 -40.5t35.5 -29t49 -11q12 0 29.5 4.5t34 13t29.5 20.5t16 27q12 -1 14.5 -7t2.5 -8q0 -26 -12.5 -44.5t-31 -30t-39 -17t-36.5 -5.5q-86 0 -125 48
t-39 126q0 4 2 18t2 19q0 1 -4 2.5t-8.5 3.5t-8 6.5t-3.5 12.5t6 13t14 9l10 6q9 38 21.5 73.5t31.5 71.5q-8 0 -17 2t-9 14q0 14 16.5 31t38 32t42.5 25.5t30 10.5q4 0 5.5 -1.5t5.5 -1.5q8 0 20.5 3t26.5 7t26.5 7t20.5 3q9 0 13.5 -6t4.5 -13q0 -8 -10 -11.5t-18 -5.5
q-28 -5 -58.5 -17.5t-56.5 -27.5q-10 -11 -24 -31.5t-27 -46.5t-23.5 -54t-13.5 -53l17 8q77 37 125.5 58t75.5 21q5 0 9 -4zM331 595q-1 -5 -16.5 -9.5t-39 -8.5t-51.5 -7t-53.5 -5.5t-44.5 -3.5t-25 -1q-13 0 -19 7.5t-6 16.5q0 5 4 17t12 12q5 0 8 -4t7 -5q45 0 88.5 4
t90.5 4q6 0 13.5 -1t14 -3t11.5 -5t6 -8z" />
    <glyph glyph-name="emacron" unicode="&#x113;" horiz-adv-x="349" 
d="M318 105q1 -2 1 -6q0 -6 -9 -18q-3 -4 -13 -13t-27 -18t-41.5 -16t-57.5 -7q-23 0 -45 10.5t-39 31t-28 51t-11 71.5q0 39 10 73t25.5 60t34.5 41t37 15q16 0 32.5 -6.5t30 -16.5t21.5 -22.5t8 -25.5q0 -15 -13.5 -31t-32.5 -29.5t-38 -22t-30 -8.5q-6 0 -10.5 5.5
t-4.5 13.5q0 14 12.5 22t27.5 14.5t27.5 15.5t12.5 25q0 2 -5 10t-27 8q-10 0 -23 -11.5t-25 -31t-20 -46t-8 -57.5q0 -26 9.5 -47t24.5 -35.5t35 -22.5t41 -8q15 0 32.5 6.5t33 14t27 14t14.5 6.5t6.5 -3t4.5 -6zM272 456q-1 -5 -16.5 -9.5t-39 -8.5t-51.5 -7t-53.5 -5.5
t-44.5 -3.5t-25 -1q-13 0 -19 7.5t-6 16.5q0 5 4 17t12 12q5 0 8 -4t7 -5q45 0 88.5 4t90.5 4q6 0 13.5 -1t14 -3t11.5 -5t6 -8z" />
    <glyph glyph-name="Ebreve" unicode="&#x114;" horiz-adv-x="556" 
d="M242 586q-10 0 -25 3.5t-29.5 11t-25 18.5t-10.5 27t15 16q11 0 16.5 -4.5t12 -9.5t16 -9.5t28.5 -4.5q18 0 37 9.5t35 21.5t27 21.5t13 9.5q3 0 9.5 -5.5t6.5 -13.5q0 -15 -13 -31.5t-32 -29.5t-41 -21.5t-40 -8.5zM331 353q1 -2 2 -2.5t1 -2.5q0 -6 -25 -22.5t-62 -37
t-78 -41t-73 -33.5q0 -2 -2 -13t-2 -14v-19q0 -23 7 -45.5t21.5 -40.5t35.5 -29t49 -11q12 0 29.5 4.5t34 13t29.5 20.5t16 27q12 -1 14.5 -7t2.5 -8q0 -26 -12.5 -44.5t-31 -30t-39 -17t-36.5 -5.5q-86 0 -125 48t-39 126q0 4 2 18t2 19q0 1 -4 2.5t-8.5 3.5t-8 6.5
t-3.5 12.5t6 13t14 9l10 6q9 38 21.5 73.5t31.5 71.5q-8 0 -17 2t-9 14q0 14 16.5 31t38 32t42.5 25.5t30 10.5q4 0 5.5 -1.5t5.5 -1.5q8 0 20.5 3t26.5 7t26.5 7t20.5 3q9 0 13.5 -6t4.5 -13q0 -8 -10 -11.5t-18 -5.5q-28 -5 -58.5 -17.5t-56.5 -27.5q-10 -11 -24 -31.5
t-27 -46.5t-23.5 -54t-13.5 -53l17 8q77 37 125.5 58t75.5 21q5 0 9 -4z" />
    <glyph glyph-name="ebreve" unicode="&#x115;" horiz-adv-x="564" 
d="M222 408q-10 0 -25 3.5t-29.5 11t-25 18.5t-10.5 27t15 16q11 0 16.5 -4.5t12 -9.5t16 -9.5t28.5 -4.5q18 0 37 9.5t35 21.5t27 21.5t13 9.5q3 0 9.5 -5.5t6.5 -13.5q0 -15 -13 -31.5t-32 -29.5t-41 -21.5t-40 -8.5zM318 105q1 -2 1 -6q0 -6 -9 -18q-3 -4 -13 -13
t-27 -18t-41.5 -16t-57.5 -7q-23 0 -45 10.5t-39 31t-28 51t-11 71.5q0 39 10 73t25.5 60t34.5 41t37 15q16 0 32.5 -6.5t30 -16.5t21.5 -22.5t8 -25.5q0 -15 -13.5 -31t-32.5 -29.5t-38 -22t-30 -8.5q-6 0 -10.5 5.5t-4.5 13.5q0 14 12.5 22t27.5 14.5t27.5 15.5t12.5 25
q0 2 -5 10t-27 8q-10 0 -23 -11.5t-25 -31t-20 -46t-8 -57.5q0 -26 9.5 -47t24.5 -35.5t35 -22.5t41 -8q15 0 32.5 6.5t33 14t27 14t14.5 6.5t6.5 -3t4.5 -6z" />
    <glyph glyph-name="Edotaccent" unicode="&#x116;" horiz-adv-x="369" 
d="M331 353q1 -2 2 -2.5t1 -2.5q0 -6 -25 -22.5t-62 -37t-78 -41t-73 -33.5q0 -2 -2 -13t-2 -14v-19q0 -23 7 -45.5t21.5 -40.5t35.5 -29t49 -11q12 0 29.5 4.5t34 13t29.5 20.5t16 27q12 -1 14.5 -7t2.5 -8q0 -26 -12.5 -44.5t-31 -30t-39 -17t-36.5 -5.5q-86 0 -125 48
t-39 126q0 4 2 18t2 19q0 1 -4 2.5t-8.5 3.5t-8 6.5t-3.5 12.5t6 13t14 9l10 6q9 38 21.5 73.5t31.5 71.5q-8 0 -17 2t-9 14q0 14 16.5 31t38 32t42.5 25.5t30 10.5q4 0 5.5 -1.5t5.5 -1.5q8 0 20.5 3t26.5 7t26.5 7t20.5 3q9 0 13.5 -6t4.5 -13q0 -8 -10 -11.5t-18 -5.5
q-28 -5 -58.5 -17.5t-56.5 -27.5q-10 -11 -24 -31.5t-27 -46.5t-23.5 -54t-13.5 -53l17 8q77 37 125.5 58t75.5 21q5 0 9 -4zM233 600q0 -6 -6 -11.5t-13.5 -10t-14.5 -7t-8 -2.5q-9 0 -13.5 4.5t-7 10t-3 10.5t-0.5 7q0 4 2 10.5t6 12.5t9.5 10.5t12.5 4.5q13 0 24.5 -11
t11.5 -28z" />
    <glyph glyph-name="edotaccent" unicode="&#x117;" horiz-adv-x="349" 
d="M318 105q1 -2 1 -6q0 -6 -9 -18q-3 -4 -13 -13t-27 -18t-41.5 -16t-57.5 -7q-23 0 -45 10.5t-39 31t-28 51t-11 71.5q0 39 10 73t25.5 60t34.5 41t37 15q16 0 32.5 -6.5t30 -16.5t21.5 -22.5t8 -25.5q0 -15 -13.5 -31t-32.5 -29.5t-38 -22t-30 -8.5q-6 0 -10.5 5.5
t-4.5 13.5q0 14 12.5 22t27.5 14.5t27.5 15.5t12.5 25q0 2 -5 10t-27 8q-10 0 -23 -11.5t-25 -31t-20 -46t-8 -57.5q0 -26 9.5 -47t24.5 -35.5t35 -22.5t41 -8q15 0 32.5 6.5t33 14t27 14t14.5 6.5t6.5 -3t4.5 -6zM190 459q0 -6 -6 -11.5t-13.5 -10t-14.5 -7t-8 -2.5
q-9 0 -13.5 4.5t-7 10t-3 10.5t-0.5 7q0 4 2 10.5t6 12.5t9.5 10.5t12.5 4.5q13 0 24.5 -11t11.5 -28z" />
    <glyph glyph-name="Eogonek" unicode="&#x118;" horiz-adv-x="369" 
d="M358 -111q0 -8 -1 -14t-7 -14q-2 -3 -9.5 -8t-19 -10t-25 -8.5t-28.5 -3.5q-13 0 -26.5 5t-25 14t-18.5 22.5t-7 31.5q0 25 11 48.5t25 43.5q-4 0 -8 -0.5t-7 -0.5q-86 0 -125 48t-39 126q0 4 2 18t2 19q0 1 -4 2.5t-8.5 3.5t-8 6.5t-3.5 12.5t6 13t14 9l10 6
q9 38 21.5 73.5t31.5 71.5q-8 0 -17 2t-9 14q0 14 16.5 31t38 32t42.5 25.5t30 10.5q4 0 5.5 -1.5t5.5 -1.5q8 0 20.5 3t26.5 7t26.5 7t20.5 3q9 0 13.5 -6t4.5 -13q0 -8 -10 -11.5t-18 -5.5q-28 -5 -58.5 -17.5t-56.5 -27.5q-10 -11 -24 -31.5t-27 -46.5t-23.5 -54
t-13.5 -53l17 8q77 37 125.5 58t75.5 21q5 0 9 -4q1 -2 2 -2.5t1 -2.5q0 -6 -25 -22.5t-62 -37t-78 -41t-73 -33.5q0 -2 -2 -13t-2 -14v-19q0 -23 7 -45.5t21.5 -40.5t35.5 -29t49 -11q12 0 29.5 4.5t34 13t29.5 20.5t16 27q12 -1 17 -7.5t5 -8.5q0 -18 -10.5 -34t-24.5 -30
q-30 -29 -48.5 -61t-18.5 -55q0 -18 13.5 -27.5t30.5 -9.5q15 0 26 3.5t19.5 8t15 8.5t11.5 4q8 0 8 -9z" />
    <glyph glyph-name="eogonek" unicode="&#x119;" horiz-adv-x="349" 
d="M306 -111q0 -8 -1 -14t-7 -14q-2 -3 -9.5 -8t-19 -10t-25 -8.5t-28.5 -3.5q-13 0 -26.5 5t-25 14t-18.5 22.5t-7 31.5t6 35.5t15.5 34t20.5 30.5t21 25q-8 -1 -15.5 -1.5t-15.5 -0.5q-23 0 -45 10.5t-39 31t-28 51t-11 71.5q0 39 10 73t25.5 60t34.5 41t37 15
q16 0 32.5 -6.5t30 -16.5t21.5 -22.5t8 -25.5q0 -15 -13.5 -31t-32.5 -29.5t-38 -22t-30 -8.5q-6 0 -10.5 5.5t-4.5 13.5q0 14 12.5 22t27.5 14.5t27.5 15.5t12.5 25q0 2 -5 10t-27 8q-10 0 -23 -11.5t-25 -31t-20 -46t-8 -57.5q0 -26 9.5 -47t24.5 -35.5t35 -22.5t41 -8
q15 0 32.5 6.5t33 14t27 14t14.5 6.5q5 0 8.5 -5t3.5 -10q0 -7 -7 -16t-14 -15q-8 -7 -20.5 -16.5t-30.5 -26.5q-29 -27 -47 -59t-18 -55q0 -18 13.5 -27.5t30.5 -9.5q15 0 26 3.5t19.5 8t15 8.5t11.5 4q8 0 8 -9z" />
    <glyph glyph-name="Ecaron" unicode="&#x11a;" horiz-adv-x="369" 
d="M331 353q1 -2 2 -2.5t1 -2.5q0 -6 -25 -22.5t-62 -37t-78 -41t-73 -33.5q0 -2 -2 -13t-2 -14v-19q0 -23 7 -45.5t21.5 -40.5t35.5 -29t49 -11q12 0 29.5 4.5t34 13t29.5 20.5t16 27q12 -1 14.5 -7t2.5 -8q0 -26 -12.5 -44.5t-31 -30t-39 -17t-36.5 -5.5q-86 0 -125 48
t-39 126q0 4 2 18t2 19q0 1 -4 2.5t-8.5 3.5t-8 6.5t-3.5 12.5t6 13t14 9l10 6q9 38 21.5 73.5t31.5 71.5q-8 0 -17 2t-9 14q0 14 16.5 31t38 32t42.5 25.5t30 10.5q4 0 5.5 -1.5t5.5 -1.5q8 0 20.5 3t26.5 7t26.5 7t20.5 3q9 0 13.5 -6t4.5 -13q0 -8 -10 -11.5t-18 -5.5
q-28 -5 -58.5 -17.5t-56.5 -27.5q-10 -11 -24 -31.5t-27 -46.5t-23.5 -54t-13.5 -53l17 8q77 37 125.5 58t75.5 21q5 0 9 -4zM352 713q5 -5 5 -14q0 -8 -5.5 -16t-10.5 -15q-14 -16 -29.5 -33.5t-32.5 -32t-34 -24t-34 -9.5q-12 0 -20 13t-13.5 32t-7.5 39.5t-2 35.5
q0 9 2.5 15.5t13.5 6.5q9 0 11 -8q7 -29 15.5 -48.5t17.5 -33.5q8 5 18.5 13.5t21 19t20 21.5t16.5 21q7 9 10 17.5t16 8.5q6 0 13 -3.5t9 -5.5z" />
    <glyph glyph-name="ecaron" unicode="&#x11b;" horiz-adv-x="349" 
d="M318 105q1 -2 1 -6q0 -6 -9 -18q-3 -4 -13 -13t-27 -18t-41.5 -16t-57.5 -7q-23 0 -45 10.5t-39 31t-28 51t-11 71.5q0 39 10 73t25.5 60t34.5 41t37 15q16 0 32.5 -6.5t30 -16.5t21.5 -22.5t8 -25.5q0 -15 -13.5 -31t-32.5 -29.5t-38 -22t-30 -8.5q-6 0 -10.5 5.5
t-4.5 13.5q0 14 12.5 22t27.5 14.5t27.5 15.5t12.5 25q0 2 -5 10t-27 8q-10 0 -23 -11.5t-25 -31t-20 -46t-8 -57.5q0 -26 9.5 -47t24.5 -35.5t35 -22.5t41 -8q15 0 32.5 6.5t33 14t27 14t14.5 6.5t6.5 -3t4.5 -6zM272 572q5 -5 5 -14q0 -8 -5.5 -16t-10.5 -15
q-14 -16 -29.5 -33.5t-32.5 -32t-34 -24t-34 -9.5q-12 0 -20 13t-13.5 32t-7.5 39.5t-2 35.5q0 9 2.5 15.5t13.5 6.5q9 0 11 -8q7 -29 15.5 -48.5t17.5 -33.5q8 5 18.5 13.5t21 19t20 21.5t16.5 21q7 9 10 17.5t16 8.5q6 0 13 -3.5t9 -5.5z" />
    <glyph glyph-name="Gcircumflex" unicode="&#x11c;" horiz-adv-x="728" 
d="M476 580q-2 -1 -7.5 -3.5t-10.5 -2.5q-11 0 -21 4t-18 9q-17 9 -29.5 22.5t-22.5 27.5t-18 27t-14 20q-14 -17 -31 -32t-41 -30q-8 -4 -11 -4q-7 0 -10.5 5.5t-3.5 9.5q0 6 5 11q12 12 24 28t24 31t23 25t20 10q18 0 31.5 -14.5t27 -35t28.5 -42t37 -36.5q10 0 19 -4
t9 -11q0 -5 -4 -9zM439 234q0 -20 -2.5 -38t-11 -36.5t-23.5 -39.5t-39 -48q-29 -32 -68 -57t-87 -25q-30 0 -59.5 10t-52 30t-36.5 50t-14 70q0 64 24 134.5t67 151.5q28 53 52 93.5t47 68t46 41.5t49 14q20 0 34.5 -7.5t14.5 -29.5q0 -7 -3 -12.5t-9 -5.5q-8 0 -11.5 4.5
t-19.5 4.5q-27 0 -53 -25t-48.5 -57.5t-39 -64.5t-23.5 -47q-12 -25 -26.5 -59t-27.5 -70t-22 -69.5t-9 -55.5q0 -28 9.5 -49.5t25.5 -36.5t37.5 -22.5t45.5 -7.5q33 0 67.5 16t62 42t45 60t17.5 69t-18 58t-40 23q-14 0 -19.5 -4.5t-10.5 -11.5q-7 -11 -13 -18t-21 -12
q-24 -8 -37.5 -11.5t-19.5 -5.5l-8 -2q-6 0 -16.5 8.5t-10.5 13.5q0 18 21.5 34.5t48.5 30t52 21.5t31 8q30 0 49.5 -12t31 -31t16.5 -41.5t5 -43.5z" />
    <glyph glyph-name="gcircumflex" unicode="&#x11d;" horiz-adv-x="615" 
d="M368 402q-2 -1 -7.5 -3.5t-10.5 -2.5q-11 0 -21 4t-18 9q-17 9 -29.5 22.5t-22.5 27.5t-18 27t-14 20q-14 -17 -31 -32t-41 -30q-8 -4 -11 -4q-7 0 -10.5 5.5t-3.5 9.5q0 6 5 11q12 12 24 28t24 31t23 25t20 10q18 0 31.5 -14.5t27 -35t28.5 -42t37 -36.5q10 0 19 -4
t9 -11q0 -5 -4 -9zM288 88q0 -11 -8 -15t-8 -11q-1 1 4 -11t9 -25q7 -27 12.5 -47t9 -37t5.5 -34t2 -38t-7 -43t-20 -39t-32 -28t-43 -11q-37 0 -58.5 15t-32.5 34t-14 37.5t-3 24.5q0 37 19 74t42 67t42 50t19 23l-11 33q-10 -12 -17.5 -26.5t-16 -27t-20 -21t-28.5 -8.5
q-18 0 -36 11t-32 33t-22.5 53t-8.5 72q0 23 7 57.5t22 66.5t37.5 54.5t52.5 22.5q17 0 31.5 -6t14.5 -15q0 -8 -3 -13t-8 -10q-3 2 -6.5 4t-9.5 2q-22 0 -39.5 -19.5t-29.5 -48t-18.5 -59.5t-6.5 -54q0 -51 17 -77.5t36 -26.5q9 0 19.5 13.5t20 30t16.5 31.5t8 18
q2 10 2 23q0 11 -0.5 24.5t-0.5 27.5q0 26 4 43.5t20 17.5t23 -9.5t7 -22.5q0 -9 -0.5 -21.5t-0.5 -24t-0.5 -20t-0.5 -10.5q0 -6 1.5 -17.5l3 -23t3 -21t2.5 -12.5l3 -9t4 -9q1 2 4 4.5t5 4.5q5 -3 9.5 -11.5t4.5 -9.5zM254 -39q-4 16 -9 32t-10 33q-17 -21 -32.5 -40.5
t-28 -38.5t-20 -39.5t-7.5 -43.5q0 -31 17.5 -51t38.5 -20q23 0 43.5 17t20.5 49q0 21 -1 35t-2.5 24.5t-4 20t-5.5 22.5z" />
    <glyph glyph-name="Gbreve" unicode="&#x11e;" horiz-adv-x="728" 
d="M342 586q-10 0 -25 3.5t-29.5 11t-25 18.5t-10.5 27t15 16q11 0 16.5 -4.5t12 -9.5t16 -9.5t28.5 -4.5q18 0 37 9.5t35 21.5t27 21.5t13 9.5q3 0 9.5 -5.5t6.5 -13.5q0 -15 -13 -31.5t-32 -29.5t-41 -21.5t-40 -8.5zM439 234q0 -20 -2.5 -38t-11 -36.5t-23.5 -39.5
t-39 -48q-29 -32 -68 -57t-87 -25q-30 0 -59.5 10t-52 30t-36.5 50t-14 70q0 64 24 134.5t67 151.5q28 53 52 93.5t47 68t46 41.5t49 14q20 0 34.5 -7.5t14.5 -29.5q0 -7 -3 -12.5t-9 -5.5q-8 0 -11.5 4.5t-19.5 4.5q-27 0 -53 -25t-48.5 -57.5t-39 -64.5t-23.5 -47
q-12 -25 -26.5 -59t-27.5 -70t-22 -69.5t-9 -55.5q0 -28 9.5 -49.5t25.5 -36.5t37.5 -22.5t45.5 -7.5q33 0 67.5 16t62 42t45 60t17.5 69t-18 58t-40 23q-14 0 -19.5 -4.5t-10.5 -11.5q-7 -11 -13 -18t-21 -12q-24 -8 -37.5 -11.5t-19.5 -5.5l-8 -2q-6 0 -16.5 8.5
t-10.5 13.5q0 18 21.5 34.5t48.5 30t52 21.5t31 8q30 0 49.5 -12t31 -31t16.5 -41.5t5 -43.5z" />
    <glyph glyph-name="gbreve" unicode="&#x11f;" horiz-adv-x="615" 
d="M234 408q-10 0 -25 3.5t-29.5 11t-25 18.5t-10.5 27t15 16q11 0 16.5 -4.5t12 -9.5t16 -9.5t28.5 -4.5q18 0 37 9.5t35 21.5t27 21.5t13 9.5q3 0 9.5 -5.5t6.5 -13.5q0 -15 -13 -31.5t-32 -29.5t-41 -21.5t-40 -8.5zM288 88q0 -11 -8 -15t-8 -11q-1 1 4 -11t9 -25
q7 -27 12.5 -47t9 -37t5.5 -34t2 -38t-7 -43t-20 -39t-32 -28t-43 -11q-37 0 -58.5 15t-32.5 34t-14 37.5t-3 24.5q0 37 19 74t42 67t42 50t19 23l-11 33q-10 -12 -17.5 -26.5t-16 -27t-20 -21t-28.5 -8.5q-18 0 -36 11t-32 33t-22.5 53t-8.5 72q0 23 7 57.5t22 66.5
t37.5 54.5t52.5 22.5q17 0 31.5 -6t14.5 -15q0 -8 -3 -13t-8 -10q-3 2 -6.5 4t-9.5 2q-22 0 -39.5 -19.5t-29.5 -48t-18.5 -59.5t-6.5 -54q0 -51 17 -77.5t36 -26.5q9 0 19.5 13.5t20 30t16.5 31.5t8 18q2 10 2 23q0 11 -0.5 24.5t-0.5 27.5q0 26 4 43.5t20 17.5t23 -9.5
t7 -22.5q0 -9 -0.5 -21.5t-0.5 -24t-0.5 -20t-0.5 -10.5q0 -6 1.5 -17.5l3 -23t3 -21t2.5 -12.5l3 -9t4 -9q1 2 4 4.5t5 4.5q5 -3 9.5 -11.5t4.5 -9.5zM254 -39q-4 16 -9 32t-10 33q-17 -21 -32.5 -40.5t-28 -38.5t-20 -39.5t-7.5 -43.5q0 -31 17.5 -51t38.5 -20
q23 0 43.5 17t20.5 49q0 21 -1 35t-2.5 24.5t-4 20t-5.5 22.5z" />
    <glyph glyph-name="Gdot" unicode="&#x120;" horiz-adv-x="728" 
d="M478 628q0 -6 -6 -11.5t-13.5 -10t-14.5 -7t-8 -2.5q-9 0 -13.5 4.5t-7 10t-3 10.5t-0.5 7q0 4 2 10.5t6 12.5t9.5 10.5t12.5 4.5q13 0 24.5 -11t11.5 -28zM439 234q0 -20 -2.5 -38t-11 -36.5t-23.5 -39.5t-39 -48q-29 -32 -68 -57t-87 -25q-30 0 -59.5 10t-52 30
t-36.5 50t-14 70q0 64 24 134.5t67 151.5q28 53 52 93.5t47 68t46 41.5t49 14q20 0 34.5 -7.5t14.5 -29.5q0 -7 -3 -12.5t-9 -5.5q-8 0 -11.5 4.5t-19.5 4.5q-27 0 -53 -25t-48.5 -57.5t-39 -64.5t-23.5 -47q-12 -25 -26.5 -59t-27.5 -70t-22 -69.5t-9 -55.5
q0 -28 9.5 -49.5t25.5 -36.5t37.5 -22.5t45.5 -7.5q33 0 67.5 16t62 42t45 60t17.5 69t-18 58t-40 23q-14 0 -19.5 -4.5t-10.5 -11.5q-7 -11 -13 -18t-21 -12q-24 -8 -37.5 -11.5t-19.5 -5.5l-8 -2q-6 0 -16.5 8.5t-10.5 13.5q0 18 21.5 34.5t48.5 30t52 21.5t31 8
q30 0 49.5 -12t31 -31t16.5 -41.5t5 -43.5z" />
    <glyph glyph-name="gdot" unicode="&#x121;" horiz-adv-x="615" 
d="M370 450q0 -6 -6 -11.5t-13.5 -10t-14.5 -7t-8 -2.5q-9 0 -13.5 4.5t-7 10t-3 10.5t-0.5 7q0 4 2 10.5t6 12.5t9.5 10.5t12.5 4.5q13 0 24.5 -11t11.5 -28zM288 88q0 -11 -8 -15t-8 -11q-1 1 4 -11t9 -25q7 -27 12.5 -47t9 -37t5.5 -34t2 -38t-7 -43t-20 -39t-32 -28
t-43 -11q-37 0 -58.5 15t-32.5 34t-14 37.5t-3 24.5q0 37 19 74t42 67t42 50t19 23l-11 33q-10 -12 -17.5 -26.5t-16 -27t-20 -21t-28.5 -8.5q-18 0 -36 11t-32 33t-22.5 53t-8.5 72q0 23 7 57.5t22 66.5t37.5 54.5t52.5 22.5q17 0 31.5 -6t14.5 -15q0 -8 -3 -13t-8 -10
q-3 2 -6.5 4t-9.5 2q-22 0 -39.5 -19.5t-29.5 -48t-18.5 -59.5t-6.5 -54q0 -51 17 -77.5t36 -26.5q9 0 19.5 13.5t20 30t16.5 31.5t8 18q2 10 2 23q0 11 -0.5 24.5t-0.5 27.5q0 26 4 43.5t20 17.5t23 -9.5t7 -22.5q0 -9 -0.5 -21.5t-0.5 -24t-0.5 -20t-0.5 -10.5
q0 -6 1.5 -17.5l3 -23t3 -21t2.5 -12.5l3 -9t4 -9q1 2 4 4.5t5 4.5q5 -3 9.5 -11.5t4.5 -9.5zM254 -39q-4 16 -9 32t-10 33q-17 -21 -32.5 -40.5t-28 -38.5t-20 -39.5t-7.5 -43.5q0 -31 17.5 -51t38.5 -20q23 0 43.5 17t20.5 49q0 21 -1 35t-2.5 24.5t-4 20t-5.5 22.5z" />
    <glyph glyph-name="Gcommaaccent" unicode="&#x122;" horiz-adv-x="470" 
d="M336 -85q0 -22 -6 -47t-19 -46.5t-34 -36t-52 -14.5q-10 0 -17.5 5.5t-7.5 17.5q0 11 7.5 15.5t15.5 4.5q4 0 3.5 -1.5t2.5 -1.5q27 0 37 21.5t15 47.5t10 47.5t22 21.5q14 0 18.5 -13.5t4.5 -20.5zM439 234q0 -20 -2.5 -38t-11 -36.5t-23.5 -39.5t-39 -48
q-29 -32 -68 -57t-87 -25q-30 0 -59.5 10t-52 30t-36.5 50t-14 70q0 64 24 134.5t67 151.5q28 53 52 93.5t47 68t46 41.5t49 14q20 0 34.5 -7.5t14.5 -29.5q0 -7 -3 -12.5t-9 -5.5q-8 0 -11.5 4.5t-19.5 4.5q-27 0 -53 -25t-48.5 -57.5t-39 -64.5t-23.5 -47
q-12 -25 -26.5 -59t-27.5 -70t-22 -69.5t-9 -55.5q0 -28 9.5 -49.5t25.5 -36.5t37.5 -22.5t45.5 -7.5q33 0 67.5 16t62 42t45 60t17.5 69t-18 58t-40 23q-14 0 -19.5 -4.5t-10.5 -11.5q-7 -11 -13 -18t-21 -12q-24 -8 -37.5 -11.5t-19.5 -5.5l-8 -2q-6 0 -16.5 8.5
t-10.5 13.5q0 18 21.5 34.5t48.5 30t52 21.5t31 8q30 0 49.5 -12t31 -31t16.5 -41.5t5 -43.5z" />
    <glyph glyph-name="gcommaaccent" unicode="&#x123;" horiz-adv-x="331" 
d="M288 88q0 -11 -8 -15t-8 -11q-1 1 4 -11t9 -25q7 -27 12.5 -47t9 -37t5.5 -34t2 -38t-7 -43t-20 -39t-32 -28t-43 -11q-39 0 -60.5 16.5t-32 36.5t-13 38t-2.5 20q0 37 19 74t42 67t42 50t19 23l-11 33q-10 -12 -17.5 -26.5t-16 -27t-20 -21t-28.5 -8.5q-18 0 -36 11
t-32 33t-22.5 53t-8.5 72q0 23 7 57.5t22 66.5t37.5 54.5t52.5 22.5q17 0 31.5 -6t14.5 -15q0 -8 -3 -13t-8 -10q-3 2 -6.5 4t-9.5 2q-22 0 -39.5 -19.5t-29.5 -48t-18.5 -59.5t-6.5 -54q0 -51 17 -77.5t36 -26.5q9 0 19.5 13.5t20 30t16.5 31.5t8 18q2 10 2 23
q0 11 -0.5 24.5t-0.5 27.5q0 26 4 43.5t20 17.5t23 -9.5t7 -22.5q0 -9 -0.5 -21.5t-0.5 -24t-0.5 -20t-0.5 -10.5q0 -6 1.5 -17.5l3 -23t3 -21t2.5 -12.5l3 -9t4 -9q1 2 4 4.5t5 4.5q5 -3 9.5 -11.5t4.5 -9.5zM254 -39q-4 16 -9 32t-10 33q-17 -21 -32.5 -40.5t-28 -38.5
t-20 -39.5t-7.5 -43.5q0 -31 17.5 -51t38.5 -20q23 0 43.5 17t20.5 49q0 21 -1 35t-2.5 24.5t-4 20t-5.5 22.5zM164 659q0 -5 -7 -14t-15.5 -22.5t-15.5 -33t-7 -45.5q0 -27 6.5 -48.5t33.5 -42.5q0 -8 -6 -12t-13 -4q-17 0 -29 12t-20 29t-11.5 35.5t-3.5 32.5q0 19 8 40.5
t19.5 39.5t25 30t24.5 12q3 0 7 -3.5t4 -5.5z" />
    <glyph glyph-name="Hcircumflex" unicode="&#x124;" horiz-adv-x="741" 
d="M442 580q-2 -1 -7.5 -3.5t-10.5 -2.5q-11 0 -21 4t-18 9q-17 9 -29.5 22.5t-22.5 27.5t-18 27t-14 20q-14 -17 -31 -32t-41 -30q-8 -4 -11 -4q-7 0 -10.5 5.5t-3.5 9.5q0 6 5 11q12 12 24 28t24 31t23 25t20 10q18 0 31.5 -14.5t27 -35t28.5 -42t37 -36.5q10 0 19 -4
t9 -11q0 -5 -4 -9zM333 285q0 -5 -4.5 -8t-10 -5t-11.5 -4.5t-9 -5.5l7 -47q6 -39 10.5 -76t4.5 -70q0 -26 -5.5 -46.5t-19.5 -20.5q-7 0 -12.5 17.5t-9 40t-5 45t-1.5 32.5q0 7 -1 22.5t-3 33t-4 33t-3 23.5q-17 -1 -46 -4.5t-71 -14.5v-12q0 -22 2 -48.5t4.5 -54t4.5 -55
t2 -52.5q0 -10 -2 -16.5t-9 -6.5q-12 0 -18.5 12t-9.5 28.5t-4.5 34.5l-2.5 30q-4 26 -6.5 60.5t-4.5 70.5q-4 0 -10 2.5t-12 6t-10 7.5t-4 9q0 12 11 19.5t24 12.5q-1 9 -1 19.5v36.5v32.5v49t0.5 60.5t0.5 67q1 8 5 19.5t13 11.5q7 0 12 -5.5t8 -13.5t4.5 -16.5t1.5 -14.5
v-239q9 0 24 1t31 2.5t31.5 3.5t25.5 4l-23 210q-1 7 -1.5 15t-0.5 13q0 20 5.5 32.5t16.5 12.5q14 0 17 -13t4 -38q1 -16 2 -31.5t3 -30.5l23 -169q12 0 24.5 -1.5t12.5 -10.5z" />
    <glyph glyph-name="hcircumflex" unicode="&#x125;" horiz-adv-x="618" 
d="M201 626q-2 -1 -7.5 -3.5t-10.5 -2.5q-11 0 -21 4t-18 9q-17 9 -29.5 22.5t-22.5 27.5t-18 27t-14 20q-14 -17 -31 -32t-41 -30q-8 -4 -11 -4q-7 0 -10.5 5.5t-3.5 9.5q0 6 5 11q12 12 24 28t24 31t23 25t20 10q18 0 31.5 -14.5t27 -35t28.5 -42t37 -36.5q10 0 19 -4
t9 -11q0 -5 -4 -9zM360 185q5 -5 5 -6q0 -2 -5.5 -12t-14.5 -21t-19.5 -19.5t-20.5 -8.5q-21 0 -34 8.5t-21.5 21.5t-13 28.5t-7.5 29.5q-2 7 -4 7q-3 0 -12 -21.5t-19.5 -47t-20 -47t-12.5 -21.5q-18 0 -30.5 15.5t-20 36t-11.5 42t-5 33.5q-3 27 -13 90t-17 153
q-2 19 -4.5 34.5t-5.5 34.5t-5 43t-2 59q0 2 1 13t3 24t6.5 23t10.5 10q7 0 13 -8.5t10.5 -19.5t6.5 -21t2 -14q0 -15 -2 -28t-2 -24q0 -15 2.5 -38t6.5 -47t7 -46.5t5 -36.5q0 -1 2 -14t4.5 -32.5t5 -42t5.5 -44t5.5 -38t3.5 -23.5q0 -3 1.5 -8.5t3 -12.5t3.5 -13t5 -9
q6 12 15.5 37t20 51t20 45.5t16.5 19.5q8 0 13 -3t13 -5q10 -4 10 -10.5t2 -15.5q2 -12 6.5 -31.5t10.5 -38t14 -31.5t16 -13q4 0 11 10.5t19 11.5q2 0 7 -2.5t10 -6.5z" />
    <glyph glyph-name="Hbar" unicode="&#x126;" horiz-adv-x="741" 
d="M97 0v523h-97v72h97v119h90v-119h366v119h90v-119h97v-72h-97v-523h-90v333h-366v-333h-90zM187 412h366v111h-366v-111z" />
    <glyph glyph-name="hbar" unicode="&#x127;" horiz-adv-x="618" 
d="M173 760v-90h212v-66h-212v-87q0 -19 -1.5 -38.5t-3.5 -35.5h6q26 41 71 62t97 21q97 0 146 -47t49 -150v-329h-87v323q0 129 -120 129q-90 0 -123.5 -50t-33.5 -144v-258h-88v604h-76v66h76v90h88z" />
    <glyph glyph-name="Itilde" unicode="&#x128;" horiz-adv-x="339" 
d="M230 652q0 -11 -4 -23t-12.5 -22.5t-21 -17.5t-29.5 -7q-13 0 -27 7t-27 17.5t-24.5 24t-20.5 27.5l-54 -42q-8 -6 -16 -6q-11 0 -13 4t-2 11q0 6 11.5 19.5t27 27t31 24t23.5 10.5q10 0 21 -12.5t22 -26.5q15 -19 26 -31t21 -12q11 0 14 11.5t3 21.5q0 2 -0.5 4t-0.5 4
q8 8 13.5 10.5t12.5 2.5q12 0 19 -10t7 -16zM512 143q0 -19 -23 -28t-53.5 -18.5t-58.5 -17t-49.5 -14t-26.5 -9.5v-5t1 -6l3 -24q0 -9 -2.5 -14t-10.5 -5q-9 0 -12.5 5.5t-6 13t-4 15.5t-5.5 12q-2 0 -16 -4t-35.5 -10t-48 -13.5t-51.5 -13.5t-47 -10t-34 -4q-27 0 -27 17
q0 13 7.5 19t17.5 9q2 1 19.5 5t42.5 9.5t53.5 12.5t53 13t40 11t15.5 7q0 6 -4.5 22t-8.5 30l-6 20q-14 64 -22 129t-13 128q-2 2 -5 2q-5 0 -26 -10t-45 -21.5t-44.5 -21.5t-24.5 -10q-7 0 -13.5 6t-6.5 12q0 8 13 18.5t32.5 22t43 22t45 19t37 13.5t20.5 5q8 0 21 3t28 7
t30.5 7t27.5 3q13 0 13 -9q0 -5 -4 -8l-29 -8q-11 -3 -23.5 -6.5t-23 -8t-17 -10t-6.5 -11.5q0 -25 5.5 -65.5t13 -87t16.5 -94.5t15 -90l179 46q6 1 12 3q5 2 10 3t9 1q9 0 9 -14z" />
    <glyph glyph-name="itilde" unicode="&#x129;" horiz-adv-x="258" 
d="M189 474q0 -11 -4 -23t-12.5 -22.5t-21 -17.5t-29.5 -7q-13 0 -27 7t-27 17.5t-24.5 24t-20.5 27.5l-54 -42q-8 -6 -16 -6q-11 0 -13 4t-2 11q0 6 11.5 19.5t27 27t31 24t23.5 10.5q10 0 21 -12.5t22 -26.5q15 -19 26 -31t21 -12q11 0 14 11.5t3 21.5q0 2 -0.5 4t-0.5 4
q8 8 13.5 10.5t12.5 2.5q12 0 19 -10t7 -16zM132 86q0 -7 -10.5 -12t-15.5 -5q-10 0 -18 13t-14 30t-10 32.5t-6 21.5q-3 10 -8 24t-9.5 27t-7.5 23t-3 11q0 14 5.5 26t13.5 12q9 0 19 -14t19.5 -35.5t17.5 -47t14 -48t9.5 -39t3.5 -19.5z" />
    <glyph glyph-name="Imacron" unicode="&#x12a;" horiz-adv-x="519" 
d="M512 143q0 -19 -23 -28t-53.5 -18.5t-58.5 -17t-49.5 -14t-26.5 -9.5v-5t1 -6l3 -24q0 -9 -2.5 -14t-10.5 -5q-9 0 -12.5 5.5t-6 13t-4 15.5t-5.5 12q-2 0 -16 -4t-35.5 -10t-48 -13.5t-51.5 -13.5t-47 -10t-34 -4q-27 0 -27 17q0 13 7.5 19t17.5 9q2 1 19.5 5t42.5 9.5
t53.5 12.5t53 13t40 11t15.5 7q0 6 -4.5 22t-8.5 30l-6 20q-14 64 -22 129t-13 128q-2 2 -5 2q-5 0 -26 -10t-45 -21.5t-44.5 -21.5t-24.5 -10q-7 0 -13.5 6t-6.5 12q0 8 13 18.5t32.5 22t43 22t45 19t37 13.5t20.5 5q8 0 21 3t28 7t30.5 7t27.5 3q13 0 13 -9q0 -5 -4 -8
l-29 -8q-11 -3 -23.5 -6.5t-23 -8t-17 -10t-6.5 -11.5q0 -25 5.5 -65.5t13 -87t16.5 -94.5t15 -90l179 46q6 1 12 3q5 2 10 3t9 1q9 0 9 -14zM329 561q-1 -5 -16.5 -9.5t-39 -8.5t-51.5 -7t-53.5 -5.5t-44.5 -3.5t-25 -1q-13 0 -19 7.5t-6 16.5q0 5 4 17t12 12q5 0 8 -4
t7 -5q45 0 88.5 4t90.5 4q6 0 13.5 -1t14 -3t11.5 -5t6 -8z" />
    <glyph glyph-name="imacron" unicode="&#x12b;" horiz-adv-x="155" 
d="M132 86q0 -7 -10.5 -12t-15.5 -5q-10 0 -18 13t-14 30t-10 32.5t-6 21.5q-3 10 -8 24t-9.5 27t-7.5 23t-3 11q0 14 5.5 26t13.5 12q9 0 19 -14t19.5 -35.5t17.5 -47t14 -48t9.5 -39t3.5 -19.5zM174 387q-1 -5 -16.5 -9.5t-39 -8.5t-51.5 -7t-53.5 -5.5t-44.5 -3.5t-25 -1
q-13 0 -19 7.5t-6 16.5q0 5 4 17t12 12q5 0 8 -4t7 -5q45 0 88.5 4t90.5 4q6 0 13.5 -1t14 -3t11.5 -5t6 -8z" />
    <glyph glyph-name="Ibreve" unicode="&#x12c;" horiz-adv-x="339" 
d="M107 586q-10 0 -25 3.5t-29.5 11t-25 18.5t-10.5 27t15 16q11 0 16.5 -4.5t12 -9.5t16 -9.5t28.5 -4.5q18 0 37 9.5t35 21.5t27 21.5t13 9.5q3 0 9.5 -5.5t6.5 -13.5q0 -15 -13 -31.5t-32 -29.5t-41 -21.5t-40 -8.5zM512 143q0 -19 -23 -28t-53.5 -18.5t-58.5 -17
t-49.5 -14t-26.5 -9.5v-5t1 -6l3 -24q0 -9 -2.5 -14t-10.5 -5q-9 0 -12.5 5.5t-6 13t-4 15.5t-5.5 12q-2 0 -16 -4t-35.5 -10t-48 -13.5t-51.5 -13.5t-47 -10t-34 -4q-27 0 -27 17q0 13 7.5 19t17.5 9q2 1 19.5 5t42.5 9.5t53.5 12.5t53 13t40 11t15.5 7q0 6 -4.5 22
t-8.5 30l-6 20q-14 64 -22 129t-13 128q-2 2 -5 2q-5 0 -26 -10t-45 -21.5t-44.5 -21.5t-24.5 -10q-7 0 -13.5 6t-6.5 12q0 8 13 18.5t32.5 22t43 22t45 19t37 13.5t20.5 5q8 0 21 3t28 7t30.5 7t27.5 3q13 0 13 -9q0 -5 -4 -8l-29 -8q-11 -3 -23.5 -6.5t-23 -8t-17 -10
t-6.5 -11.5q0 -25 5.5 -65.5t13 -87t16.5 -94.5t15 -90l179 46q6 1 12 3q5 2 10 3t9 1q9 0 9 -14z" />
    <glyph glyph-name="ibreve" unicode="&#x12d;" horiz-adv-x="258" 
d="M66 408q-10 0 -25 3.5t-29.5 11t-25 18.5t-10.5 27t15 16q11 0 16.5 -4.5t12 -9.5t16 -9.5t28.5 -4.5q18 0 37 9.5t35 21.5t27 21.5t13 9.5q3 0 9.5 -5.5t6.5 -13.5q0 -15 -13 -31.5t-32 -29.5t-41 -21.5t-40 -8.5zM132 86q0 -7 -10.5 -12t-15.5 -5q-10 0 -18 13t-14 30
t-10 32.5t-6 21.5q-3 10 -8 24t-9.5 27t-7.5 23t-3 11q0 14 5.5 26t13.5 12q9 0 19 -14t19.5 -35.5t17.5 -47t14 -48t9.5 -39t3.5 -19.5z" />
    <glyph glyph-name="Iogonek" unicode="&#x12e;" horiz-adv-x="519" 
d="M334 -111q0 -8 -1 -14t-7 -14q-2 -3 -9.5 -8t-19 -10t-25 -8.5t-28.5 -3.5q-13 0 -26.5 5t-25 14t-18.5 22.5t-7 31.5q0 21 8 41t19.5 38t25 33.5t24.5 26.5q-18 -5 -48 -13.5t-61.5 -16.5t-59.5 -14t-43 -6q-27 0 -27 17q0 13 7.5 19t17.5 9q2 1 19.5 5t42.5 9.5
t53.5 12.5t53 13t40 11t15.5 7q0 6 -4.5 22t-8.5 30l-6 20q-14 64 -22 129t-13 128q-2 2 -5 2q-5 0 -26 -10t-45 -21.5t-44.5 -21.5t-24.5 -10q-7 0 -13.5 6t-6.5 12q0 8 13 18.5t32.5 22t43 22t45 19t37 13.5t20.5 5q8 0 21 3t28 7t30.5 7t27.5 3q13 0 13 -9q0 -5 -4 -8
l-29 -8q-11 -3 -23.5 -6.5t-23 -8t-17 -10t-6.5 -11.5q0 -25 5.5 -65.5t13 -87t16.5 -94.5t15 -90l179 46q6 1 12 3q5 2 10 3t9 1q9 0 9 -14q0 -19 -23 -28q-18 -8 -41.5 -15t-47.5 -14t-45.5 -13t-35.5 -10q-15 -12 -34 -29t-35.5 -36.5t-28 -41.5t-11.5 -45
q0 -18 13.5 -27.5t30.5 -9.5q15 0 26 3.5t19.5 8t15 8.5t11.5 4q8 0 8 -9z" />
    <glyph glyph-name="iogonek" unicode="&#x12f;" horiz-adv-x="155" 
d="M132 86q0 -2 -3.5 -6t-20.5 -21q-29 -27 -47 -59t-18 -55q0 -18 13.5 -27.5t30.5 -9.5q15 0 26 3.5t19.5 8t15 8.5t11.5 4q8 0 8 -9q0 -8 -1 -14t-7 -14q-2 -3 -9.5 -8t-19 -10t-25 -8.5t-28.5 -3.5q-13 0 -26.5 5t-25 14t-18.5 22.5t-7 31.5q0 21 8 41t19.5 38t24.5 33
t23 25l11 10q-6 9 -10.5 21.5t-8 24.5t-6 21.5t-3.5 13.5q-3 10 -8 24t-9.5 27t-7.5 23t-3 11q0 14 5.5 26t13.5 12q9 0 19 -14t19.5 -35.5t17.5 -47t14 -48t9.5 -39t3.5 -19.5zM99 460q0 -2 -7 -8t-16.5 -12.5t-19.5 -11.5t-16 -5q-4 0 -10.5 0.5t-13 3.5t-11.5 8.5
t-5 14.5q0 14 10 26.5t26 12.5q3 0 13.5 -2.5t21.5 -6.5t19.5 -9t8.5 -11z" />
    <glyph glyph-name="Idotaccent" unicode="&#x130;" horiz-adv-x="339" 
d="M243 628q0 -6 -6 -11.5t-13.5 -10t-14.5 -7t-8 -2.5q-9 0 -13.5 4.5t-7 10t-3 10.5t-0.5 7q0 4 2 10.5t6 12.5t9.5 10.5t12.5 4.5q13 0 24.5 -11t11.5 -28zM512 143q0 -19 -23 -28t-53.5 -18.5t-58.5 -17t-49.5 -14t-26.5 -9.5v-5t1 -6l3 -24q0 -9 -2.5 -14t-10.5 -5
q-9 0 -12.5 5.5t-6 13t-4 15.5t-5.5 12q-2 0 -16 -4t-35.5 -10t-48 -13.5t-51.5 -13.5t-47 -10t-34 -4q-27 0 -27 17q0 13 7.5 19t17.5 9q2 1 19.5 5t42.5 9.5t53.5 12.5t53 13t40 11t15.5 7q0 6 -4.5 22t-8.5 30l-6 20q-14 64 -22 129t-13 128q-2 2 -5 2q-5 0 -26 -10
t-45 -21.5t-44.5 -21.5t-24.5 -10q-7 0 -13.5 6t-6.5 12q0 8 13 18.5t32.5 22t43 22t45 19t37 13.5t20.5 5q8 0 21 3t28 7t30.5 7t27.5 3q13 0 13 -9q0 -5 -4 -8l-29 -8q-11 -3 -23.5 -6.5t-23 -8t-17 -10t-6.5 -11.5q0 -25 5.5 -65.5t13 -87t16.5 -94.5t15 -90l179 46
q6 1 12 3q5 2 10 3t9 1q9 0 9 -14z" />
    <glyph glyph-name="dotlessi" unicode="&#x131;" horiz-adv-x="155" 
d="M132 86q0 -7 -10.5 -12t-15.5 -5q-10 0 -18 13t-14 30t-10 32.5t-6 21.5q-3 10 -8 24t-9.5 27t-7.5 23t-3 11q0 14 5.5 26t13.5 12q9 0 19 -14t19.5 -35.5t17.5 -47t14 -48t9.5 -39t3.5 -19.5z" />
    <glyph glyph-name="IJ" unicode="&#x132;" horiz-adv-x="612" 
d="M512 143q0 -19 -23 -28t-53.5 -18.5t-58.5 -17t-49.5 -14t-26.5 -9.5v-5t1 -6l3 -24q0 -9 -2.5 -14t-10.5 -5q-9 0 -12.5 5.5t-6 13t-4 15.5t-5.5 12q-2 0 -16 -4t-35.5 -10t-48 -13.5t-51.5 -13.5t-47 -10t-34 -4q-27 0 -27 17q0 13 7.5 19t17.5 9q2 1 19.5 5t42.5 9.5
t53.5 12.5t53 13t40 11t15.5 7q0 6 -4.5 22t-8.5 30l-6 20q-14 64 -22 129t-13 128q-2 2 -5 2q-5 0 -26 -10t-45 -21.5t-44.5 -21.5t-24.5 -10q-7 0 -13.5 6t-6.5 12q0 8 13 18.5t32.5 22t43 22t45 19t37 13.5t20.5 5q8 0 21 3t28 7t30.5 7t27.5 3q13 0 13 -9q0 -5 -4 -8
l-29 -8q-11 -3 -23.5 -6.5t-23 -8t-17 -10t-6.5 -11.5q0 -25 5.5 -65.5t13 -87t16.5 -94.5t15 -90l179 46q6 1 12 3q5 2 10 3t9 1q9 0 9 -14zM657 71q0 -54 -25 -71.5t-84 -17.5q-20 0 -47.5 5.5t-53 16.5t-43 27t-17.5 37q0 1 1.5 10.5t4.5 20t7.5 19t9.5 8.5
q10 0 11.5 -5.5t1.5 -18.5q0 -18 12.5 -32t30.5 -24t38.5 -15t36.5 -5q13 0 26.5 1.5t24.5 6.5t17.5 14t6.5 24q0 13 -2.5 26.5t-10 35.5t-21.5 56.5t-36 89.5q-47 116 -61 173.5t-15 61.5q-8 -1 -18 -5t-20.5 -8.5t-20.5 -8.5t-17 -7q-21 -8 -38 -18.5t-30 -20t-22 -16
t-15 -6.5q-15 0 -18 14t-3 24q0 11 25 25.5t63 29.5t82.5 29.5t83.5 25.5t66 18t30 7q7 0 8.5 -4t1.5 -7q0 -6 -14.5 -14t-34 -17t-40.5 -17t-34 -13l-11 -4q5 -8 9 -15t8.5 -18t11 -28.5t18.5 -45.5q22 -54 43 -108t37.5 -100.5t26 -82t9.5 -53.5z" />
    <glyph glyph-name="ij" unicode="&#x133;" horiz-adv-x="516" 
d="M99 460q0 -2 -7 -8t-16.5 -12.5t-19.5 -11.5t-16 -5q-4 0 -10.5 0.5t-13 3.5t-11.5 8.5t-5 14.5q0 14 10 26.5t26 12.5q3 0 13.5 -2.5t21.5 -6.5t19.5 -9t8.5 -11zM132 86q0 -7 -10.5 -12t-15.5 -5q-10 0 -18 13t-14 30t-10 32.5t-6 21.5q-3 10 -8 24t-9.5 27t-7.5 23
t-3 11q0 14 5.5 26t13.5 12q9 0 19 -14t19.5 -35.5t17.5 -47t14 -48t9.5 -39t3.5 -19.5zM347 456q0 -2 -5.5 -8t-13 -12.5t-15 -11.5t-11.5 -5q-16 0 -30.5 7t-14.5 19q0 5 1.5 12t5 13.5t9.5 11t15 4.5q6 0 16 -2.5t19.5 -7t16.5 -10t7 -10.5zM422 -94q0 -14 -8 -25.5
t-19 -19.5t-23 -12.5t-20 -4.5q-24 0 -55.5 7.5t-59 24t-46.5 42t-19 62.5q0 4 2 7.5t7 3.5q7 0 17.5 -15.5t28.5 -34.5t46 -34.5t72 -15.5q14 0 19.5 3t5.5 20q0 16 -4.5 35t-10.5 37.5t-11.5 35.5t-8.5 29q-1 3 -6.5 25.5t-11.5 52t-11 57.5t-5 41q0 7 2 19t13 12
q5 0 11 -12.5t12.5 -31t12 -40.5t10 -41.5t7.5 -33.5t4 -17q2 -8 10 -29t16.5 -47.5t15.5 -53.5t7 -46z" />
    <glyph glyph-name="Jcircumflex" unicode="&#x134;" horiz-adv-x="273" 
d="M208 580q-2 -1 -7.5 -3.5t-10.5 -2.5q-11 0 -21 4t-18 9q-17 9 -29.5 22.5t-22.5 27.5t-18 27t-14 20q-14 -17 -31 -32t-41 -30q-8 -4 -11 -4q-7 0 -10.5 5.5t-3.5 9.5q0 6 5 11q12 12 24 28t24 31t23 25t20 10q18 0 31.5 -14.5t27 -35t28.5 -42t37 -36.5q10 0 19 -4
t9 -11q0 -5 -4 -9zM318 71q0 -54 -25 -71.5t-84 -17.5q-20 0 -47.5 5.5t-53 16.5t-43 27t-17.5 37q0 1 1.5 10.5t4.5 20t7.5 19t9.5 8.5q10 0 11.5 -5.5t1.5 -18.5q0 -18 12.5 -32t30.5 -24t38.5 -15t36.5 -5q13 0 26.5 1.5t24.5 6.5t17.5 14t6.5 24q0 13 -2.5 26.5
t-10 35.5t-21.5 56.5t-36 89.5q-47 116 -61 173.5t-15 61.5q-8 -1 -18 -5t-20.5 -8.5t-20.5 -8.5t-17 -7q-21 -8 -38 -18.5t-30 -20t-22 -16t-15 -6.5q-15 0 -18 14t-3 24q0 11 25 25.5t63 29.5t82.5 29.5t83.5 25.5t66 18t30 7q7 0 8.5 -4t1.5 -7q0 -6 -14.5 -14t-34 -17
t-40.5 -17t-34 -13l-11 -4q5 -8 9 -15t8.5 -18t11 -28.5t18.5 -45.5q22 -54 43 -108t37.5 -100.5t26 -82t9.5 -53.5z" />
    <glyph glyph-name="jcircumflex" unicode="&#x135;" horiz-adv-x="258" 
d="M200 402q-2 -1 -7.5 -3.5t-10.5 -2.5q-11 0 -21 4t-18 9q-17 9 -29.5 22.5t-22.5 27.5t-18 27t-14 20q-14 -17 -31 -32t-41 -30q-8 -4 -11 -4q-7 0 -10.5 5.5t-3.5 9.5q0 6 5 11q12 12 24 28t24 31t23 25t20 10q18 0 31.5 -14.5t27 -35t28.5 -42t37 -36.5q10 0 19 -4
t9 -11q0 -5 -4 -9zM22 -240q-26 0 -45 3.5t-32 8.5v71q15 -5 31 -7.5t35 -2.5q32 0 53 17.5t21 66.5v619h88v-616q0 -75 -36 -117.5t-115 -42.5z" />
    <glyph glyph-name="Kcommaaccent" unicode="&#x136;" horiz-adv-x="468" 
d="M331 -12q0 -22 -6 -47t-19 -46.5t-34 -36t-52 -14.5q-10 0 -17.5 5.5t-7.5 17.5q0 11 7.5 15.5t15.5 4.5q4 0 3.5 -1.5t2.5 -1.5q27 0 37 21.5t15 47.5t10 47.5t22 21.5q14 0 18.5 -13.5t4.5 -20.5zM455 135q0 -10 -13.5 -16.5t-35.5 -6.5q-19 0 -59.5 4t-85.5 13
t-85.5 22.5t-59.5 32.5q2 -8 7 -21.5t11 -29.5q11 -28 20.5 -56.5t9.5 -45.5q0 -32 -4.5 -48.5t-19.5 -16.5q-12 0 -17 10t-5 24v5t1 23q0 8 -1 16t-3 14q-16 39 -29.5 78.5t-25.5 87.5q-3 10 -6.5 25.5t-6.5 41t-5 63t-2 91.5q0 42 7 64.5t17 22.5q9 0 15 -13.5t6 -25.5
q0 -33 -0.5 -51t-0.5 -26q0 -31 3 -61.5t7 -56.5q4 -30 10 -57q12 25 26.5 53.5t30.5 57t32 56.5t31 53q10 17 22.5 29t23.5 12q8 0 18 -6.5t10 -17.5q0 -3 -1 -6.5t-2 -5.5q-5 -8 -11.5 -16t-11.5 -16q-16 -23 -36 -52t-37.5 -57.5t-29.5 -53.5t-12 -40q0 -16 19 -28
t47 -20.5t61.5 -14t62.5 -9t49.5 -5t22.5 -1.5q23 0 29.5 -3.5t6.5 -14.5z" />
    <glyph glyph-name="kcommaaccent" unicode="&#x137;" horiz-adv-x="398" 
d="M278 -23q0 -22 -6 -47t-19 -46.5t-34 -36t-52 -14.5q-10 0 -17.5 5.5t-7.5 17.5q0 11 7.5 15.5t15.5 4.5q4 0 3.5 -1.5t2.5 -1.5q27 0 37 21.5t15 47.5t10 47.5t22 21.5q14 0 18.5 -13.5t4.5 -20.5zM395 107q0 -8 -2 -11.5t-10 -5.5q-9 -3 -22.5 -6.5t-29.5 -7t-32.5 -6
t-30.5 -2.5q-17 0 -37.5 2t-39.5 6.5t-34.5 10t-22.5 13.5q5 -21 9 -42t6 -42q0 -5 -2.5 -8.5t-13.5 -3.5q-5 0 -9.5 2.5t-7.5 10.5q-9 20 -15 37.5t-10.5 35.5l-9.5 38t-12 44q-11 39 -23 83.5t-22 85t-16 72t-6 44.5q0 6 0.5 16t3 19.5t7 16t12.5 6.5q5 0 10.5 -15.5
t10 -34t8 -35t3.5 -17.5q4 -22 9.5 -48.5t11.5 -53.5t13 -51.5t15 -41.5q1 10 7 29t16 41t22.5 45.5t26 42.5t27 31t25.5 12q19 0 26.5 -5t7.5 -12q0 -6 -17 -23.5t-38 -46t-38 -67t-17 -85.5q0 -17 9.5 -29.5t25 -20.5t35 -12.5t38.5 -4.5q17 0 37 1t37.5 2.5t30 2.5
t15.5 1q5 0 9 -3t4 -10z" />
    <glyph glyph-name="kgreenlandic" unicode="&#x138;" horiz-adv-x="534" 
d="M509 536l-203 -237l219 -299h-105l-176 242l-66 -54v-188h-93v536h93v-139q0 -40 -2 -78t-4 -58h2q9 13 19.5 26.5t19.5 24.5l190 224h106z" />
    <glyph glyph-name="Lacute" unicode="&#x139;" horiz-adv-x="384" 
d="M370 76q0 -7 -6 -11q-9 -6 -31 -17t-48.5 -23t-55.5 -25t-53 -23t-40.5 -16.5t-17.5 -6.5q-8 0 -17.5 18t-18.5 48.5t-17 71t-14.5 85.5t-10 91.5t-3.5 89.5q0 64 6.5 100t15 54t15.5 22.5t8 4.5q8 0 13 -7t5 -14q0 -4 -4 -14t-8.5 -28t-8 -46t-3.5 -68q0 -36 3.5 -75
t9.5 -77t13.5 -72t15.5 -60t15 -41.5t13 -15.5q1 0 13 5l30 12.5t39.5 15t43.5 13.5q10 3 23.5 6.5t25.5 6.5t21.5 5t11.5 2q16 0 16 -11zM221 694q0 -8 -12 -23t-28.5 -31t-34 -29.5t-27.5 -18.5q-8 -4 -14 -5t-10 -1q-8 0 -20 9t-12 17q0 2 9 5.5t20 9.5q10 6 26.5 19.5
l33 27t30 23.5t18.5 10q7 0 14 -4t7 -9z" />
    <glyph glyph-name="lacute" unicode="&#x13a;" horiz-adv-x="211" 
d="M173 29q0 -8 -6 -12t-14 -4q-9 0 -18.5 17t-18.5 43t-17 56.5t-14 57t-9.5 44.5t-3.5 20q0 4 -3.5 21t-9 53t-12 93.5t-13.5 142.5q0 9 3 23t14 14q14 0 21.5 -19t12 -47t6.5 -58.5t5 -53.5q4 -32 7.5 -58t7 -51.5t9 -53.5t13.5 -62zM133 741q0 -8 -12 -23t-28.5 -31
t-34 -29.5t-27.5 -18.5q-8 -4 -14 -5t-10 -1q-8 0 -20 9t-12 17q0 2 9 5.5t20 9.5q10 6 26.5 19.5l33 27t30 23.5t18.5 10q7 0 14 -4t7 -9z" />
    <glyph glyph-name="Lcommaaccent" unicode="&#x13b;" horiz-adv-x="384" 
d="M297 -86q0 -22 -6 -47t-19 -46.5t-34 -36t-52 -14.5q-10 0 -17.5 5.5t-7.5 17.5q0 11 7.5 15.5t15.5 4.5q4 0 3.5 -1.5t2.5 -1.5q27 0 37 21.5t15 47.5t10 47.5t22 21.5q14 0 18.5 -13.5t4.5 -20.5zM370 76q0 -7 -6 -11q-9 -6 -31 -17t-48.5 -23t-55.5 -25t-53 -23
t-40.5 -16.5t-17.5 -6.5q-8 0 -17.5 18t-18.5 48.5t-17 71t-14.5 85.5t-10 91.5t-3.5 89.5q0 64 6.5 100t15 54t15.5 22.5t8 4.5q8 0 13 -7t5 -14q0 -4 -4 -14t-8.5 -28t-8 -46t-3.5 -68q0 -36 3.5 -75t9.5 -77t13.5 -72t15.5 -60t15 -41.5t13 -15.5q1 0 13 5l30 12.5
t39.5 15t43.5 13.5q10 3 23.5 6.5t25.5 6.5t21.5 5t11.5 2q16 0 16 -11z" />
    <glyph glyph-name="lcommaaccent" unicode="&#x13c;" horiz-adv-x="211" 
d="M225 -71q0 -22 -6 -47t-19 -46.5t-34 -36t-52 -14.5q-10 0 -17.5 5.5t-7.5 17.5q0 11 7.5 15.5t15.5 4.5q4 0 3.5 -1.5t2.5 -1.5q27 0 37 21.5t15 47.5t10 47.5t22 21.5q14 0 18.5 -13.5t4.5 -20.5zM173 29q0 -8 -6 -12t-14 -4q-9 0 -18.5 17t-18.5 43t-17 56.5t-14 57
t-9.5 44.5t-3.5 20q0 4 -3.5 21t-9 53t-12 93.5t-13.5 142.5q0 9 3 23t14 14q14 0 21.5 -19t12 -47t6.5 -58.5t5 -53.5q4 -32 7.5 -58t7 -51.5t9 -53.5t13.5 -62z" />
    <glyph glyph-name="Lcaron" unicode="&#x13d;" horiz-adv-x="384" 
d="M370 76q0 -7 -6 -11q-9 -6 -31 -17t-48.5 -23t-55.5 -25t-53 -23t-40.5 -16.5t-17.5 -6.5q-8 0 -17.5 18t-18.5 48.5t-17 71t-14.5 85.5t-10 91.5t-3.5 89.5q0 64 6.5 100t15 54t15.5 22.5t8 4.5q8 0 13 -7t5 -14q0 -4 -4 -14t-8.5 -28t-8 -46t-3.5 -68q0 -36 3.5 -75
t9.5 -77t13.5 -72t15.5 -60t15 -41.5t13 -15.5q1 0 13 5l30 12.5t39.5 15t43.5 13.5q10 3 23.5 6.5t25.5 6.5t21.5 5t11.5 2q16 0 16 -11zM303 384q0 -18 -7.5 -33t-17.5 -25.5t-19 -16.5t-13 -6q-3 0 -7.5 4.5t-4.5 10.5q0 1 4 7t9.5 14.5t9.5 20t4 24.5q0 26 -5 46.5
t-13 40.5q-1 3 -2.5 7t-1.5 6q0 7 4.5 9t9.5 2q7 0 16 -12.5t16.5 -29.5t12.5 -36.5t5 -32.5z" />
    <glyph glyph-name="lcaron" unicode="&#x13e;" horiz-adv-x="257" 
d="M173 29q0 -8 -6 -12t-14 -4q-9 0 -18.5 17t-18.5 43t-17 56.5t-14 57t-9.5 44.5t-3.5 20q0 4 -3.5 21t-9 53t-12 93.5t-13.5 142.5q0 9 3 23t14 14q14 0 21.5 -19t12 -47t6.5 -58.5t5 -53.5q4 -32 7.5 -58t7 -51.5t9 -53.5t13.5 -62zM219 385q0 -18 -7.5 -33t-17.5 -25.5
t-19 -16.5t-13 -6q-3 0 -7.5 4.5t-4.5 10.5q0 1 4 7t9.5 14.5t9.5 20t4 24.5q0 26 -5 46.5t-13 40.5q-1 3 -2.5 7t-1.5 6q0 7 4.5 9t9.5 2q7 0 16 -12.5t16.5 -29.5t12.5 -36.5t5 -32.5z" />
    <glyph glyph-name="Ldot" unicode="&#x13f;" horiz-adv-x="524" 
d="M453 126q0 -6 -6 -11.5t-13.5 -10t-14.5 -7t-8 -2.5q-9 0 -13.5 4.5t-7 10t-3 10.5t-0.5 7q0 4 2 10.5t6 12.5t9.5 10.5t12.5 4.5q13 0 24.5 -11t11.5 -28zM370 76q0 -7 -6 -11q-9 -6 -31 -17t-48.5 -23t-55.5 -25t-53 -23t-40.5 -16.5t-17.5 -6.5q-8 0 -17.5 18
t-18.5 48.5t-17 71t-14.5 85.5t-10 91.5t-3.5 89.5q0 64 6.5 100t15 54t15.5 22.5t8 4.5q8 0 13 -7t5 -14q0 -4 -4 -14t-8.5 -28t-8 -46t-3.5 -68q0 -36 3.5 -75t9.5 -77t13.5 -72t15.5 -60t15 -41.5t13 -15.5q1 0 13 5l30 12.5t39.5 15t43.5 13.5q10 3 23.5 6.5t25.5 6.5
t21.5 5t11.5 2q16 0 16 -11z" />
    <glyph glyph-name="ldot" unicode="&#x140;" horiz-adv-x="268" 
d="M333 148q0 -6 -6 -11.5t-13.5 -10t-14.5 -7t-8 -2.5q-9 0 -13.5 4.5t-7 10t-3 10.5t-0.5 7q0 4 2 10.5t6 12.5t9.5 10.5t12.5 4.5q13 0 24.5 -11t11.5 -28zM173 29q0 -8 -6 -12t-14 -4q-9 0 -18.5 17t-18.5 43t-17 56.5t-14 57t-9.5 44.5t-3.5 20q0 4 -3.5 21t-9 53
t-12 93.5t-13.5 142.5q0 9 3 23t14 14q14 0 21.5 -19t12 -47t6.5 -58.5t5 -53.5q4 -32 7.5 -58t7 -51.5t9 -53.5t13.5 -62l40 -166v0z" />
    <glyph glyph-name="Lslash" unicode="&#x141;" horiz-adv-x="384" 
d="M370 76q0 -7 -6 -11q-9 -6 -31 -17t-48.5 -23t-55.5 -25t-53 -23t-40.5 -16.5t-17.5 -6.5q-8 0 -17 16t-17.5 43.5t-16.5 64t-14 77.5q-5 -2 -9.5 -2h-6.5q-10 0 -23 9.5t-14 18.5l10 3l25 13q3 1 12 8q-5 38 -7.5 77t-2.5 76q0 64 6.5 100t15 54t15.5 22.5t8 4.5
q8 0 13 -7t5 -14q0 -4 -4 -14t-8.5 -28t-8 -46t-3.5 -68q0 -30 2.5 -63t7.5 -65q11 9 21 17t18 14q12 10 24 19.5t22.5 17l17.5 12.5t10 5q8 0 15 -3t7 -7q0 -9 -13 -25.5t-32 -35t-41.5 -37.5t-40.5 -32q6 -33 13 -62t14 -50t13.5 -33.5t11.5 -12.5q1 0 13 5l30 12.5
t39.5 15t43.5 13.5q10 3 23.5 6.5t25.5 6.5t21.5 5t11.5 2q16 0 16 -11z" />
    <glyph glyph-name="lslash" unicode="&#x142;" horiz-adv-x="211" 
d="M199 289q0 -6 -6.5 -15.5t-16.5 -20.5t-22.5 -22.5t-24.5 -20.5q2 -10 4 -15l40 -166q0 -8 -6 -12t-14 -4q-9 0 -18.5 16.5t-18.5 41.5t-17 55t-14 56q-5 -1 -12 -1q-8 0 -20 9t-12 17q0 2 9 5.5t20 9.5l6 4q-2 11 -3 17.5t-1 7.5q0 4 -3.5 21t-9 53t-12 93.5
t-13.5 142.5q0 9 3 23t14 14q14 0 21.5 -19t12 -47t6.5 -58.5t5 -53.5q6 -47 10.5 -83.5t12.5 -76.5q19 16 36 29t23 13q7 0 14 -4t7 -9z" />
    <glyph glyph-name="Nacute" unicode="&#x143;" horiz-adv-x="473" 
d="M473 39q0 -10 -9 -18t-20 -8q-2 0 -6 2.5t-6 4.5q-42 40 -89 79t-95 80t-94.5 86t-87.5 98q13 -54 35 -114.5t42.5 -113.5t35.5 -91.5t15 -48.5q0 -12 -9.5 -19.5t-19.5 -7.5q-6 0 -13 12.5t-15.5 32.5t-17 44.5t-16.5 49t-15 46t-11 35.5l-27 81q-9 26 -18 53.5
t-16.5 51.5t-12 42t-4.5 24q0 11 3 22.5t11 11.5q5 0 7 -2.5t4 -2.5l12 5q5 0 17.5 -12.5t29 -32.5t35.5 -45t38.5 -49t37 -45t31.5 -33q22 -20 44 -38t44.5 -36.5t47.5 -39.5t55 -48q1 -1 5 -1q2 0 2 5v12q0 14 -8 50.5t-22.5 85t-33.5 104t-40.5 107t-45 93.5t-45.5 65
q-6 6 -8.5 18t-2.5 20q0 7 9.5 15.5t17.5 8.5q12 0 27 -24t32 -62.5t34.5 -86.5t34.5 -97q20 -58 37.5 -114.5t31 -105.5t22 -88t10.5 -61zM222 718q0 -8 -12 -23t-28.5 -31t-34 -29.5t-27.5 -18.5q-8 -4 -14 -5t-10 -1q-8 0 -20 9t-12 17q0 2 9 5.5t20 9.5q10 6 26.5 19.5
l33 27t30 23.5t18.5 10q7 0 14 -4t7 -9z" />
    <glyph glyph-name="nacute" unicode="&#x144;" horiz-adv-x="352" 
d="M340 123q0 -6 -4 -12t-9.5 -11t-12 -8.5t-11.5 -3.5q-17 0 -43.5 7.5t-42.5 23.5q-17 17 -30 40.5t-29 69.5q-11 -44 -25.5 -87t-46.5 -79q-2 -2 -6 -2q-7 0 -15 7t-8 14t-1.5 32.5t-3.5 57t-3.5 64t-1.5 53.5q0 10 1 26.5t6 28.5q1 2 7.5 8t14.5 6q7 0 8 -9t1 -20v-158
q0 -5 1.5 -14t4.5 -13q11 24 20.5 56.5t18.5 62t18 50t18 20.5q10 0 16 -4t10 -16q5 -29 8 -51.5t7.5 -40.5t13 -33.5t23.5 -28.5q14 -13 31.5 -19t30.5 -6q6 0 13 2.5t10 2.5q4 0 7.5 -7t3.5 -9zM255 504q0 -8 -12 -23t-28.5 -31t-34 -29.5t-27.5 -18.5q-8 -4 -14 -5
t-10 -1q-8 0 -20 9t-12 17q0 2 9 5.5t20 9.5q10 6 26.5 19.5l33 27t30 23.5t18.5 10q7 0 14 -4t7 -9z" />
    <glyph glyph-name="Ncommaaccent" unicode="&#x145;" horiz-adv-x="473" 
d="M378 -67q0 -22 -6 -47t-19 -46.5t-34 -36t-52 -14.5q-10 0 -17.5 5.5t-7.5 17.5q0 11 7.5 15.5t15.5 4.5q4 0 3.5 -1.5t2.5 -1.5q27 0 37 21.5t15 47.5t10 47.5t22 21.5q14 0 18.5 -13.5t4.5 -20.5zM473 39q0 -10 -9 -18t-20 -8q-2 0 -6 2.5t-6 4.5q-42 40 -89 79t-95 80
t-94.5 86t-87.5 98q13 -54 35 -114.5t42.5 -113.5t35.5 -91.5t15 -48.5q0 -12 -9.5 -19.5t-19.5 -7.5q-6 0 -13 12.5t-15.5 32.5t-17 44.5t-16.5 49t-15 46t-11 35.5l-27 81q-9 26 -18 53.5t-16.5 51.5t-12 42t-4.5 24q0 11 3 22.5t11 11.5q5 0 7 -2.5t4 -2.5l12 5
q5 0 17.5 -12.5t29 -32.5t35.5 -45t38.5 -49t37 -45t31.5 -33q22 -20 44 -38t44.5 -36.5t47.5 -39.5t55 -48q1 -1 5 -1q2 0 2 5v12q0 14 -8 50.5t-22.5 85t-33.5 104t-40.5 107t-45 93.5t-45.5 65q-6 6 -8.5 18t-2.5 20q0 7 9.5 15.5t17.5 8.5q12 0 27 -24t32 -62.5
t34.5 -86.5t34.5 -97q20 -58 37.5 -114.5t31 -105.5t22 -88t10.5 -61z" />
    <glyph glyph-name="ncommaaccent" unicode="&#x146;" horiz-adv-x="352" 
d="M205 4q0 -22 -6 -47t-19 -46.5t-34 -36t-52 -14.5q-10 0 -17.5 5.5t-7.5 17.5q0 11 7.5 15.5t15.5 4.5q4 0 3.5 -1.5t2.5 -1.5q27 0 37 21.5t15 47.5t10 47.5t22 21.5q14 0 18.5 -13.5t4.5 -20.5zM340 123q0 -6 -4 -12t-9.5 -11t-12 -8.5t-11.5 -3.5q-17 0 -43.5 7.5
t-42.5 23.5q-17 17 -30 40.5t-29 69.5q-11 -44 -25.5 -87t-46.5 -79q-2 -2 -6 -2q-7 0 -15 7t-8 14t-1.5 32.5t-3.5 57t-3.5 64t-1.5 53.5q0 10 1 26.5t6 28.5q1 2 7.5 8t14.5 6q7 0 8 -9t1 -20v-158q0 -5 1.5 -14t4.5 -13q11 24 20.5 56.5t18.5 62t18 50t18 20.5
q10 0 16 -4t10 -16q5 -29 8 -51.5t7.5 -40.5t13 -33.5t23.5 -28.5q14 -13 31.5 -19t30.5 -6q6 0 13 2.5t10 2.5q4 0 7.5 -7t3.5 -9z" />
    <glyph glyph-name="Ncaron" unicode="&#x147;" horiz-adv-x="473" 
d="M473 39q0 -10 -9 -18t-20 -8q-2 0 -6 2.5t-6 4.5q-42 40 -89 79t-95 80t-94.5 86t-87.5 98q13 -54 35 -114.5t42.5 -113.5t35.5 -91.5t15 -48.5q0 -12 -9.5 -19.5t-19.5 -7.5q-6 0 -13 12.5t-15.5 32.5t-17 44.5t-16.5 49t-15 46t-11 35.5l-27 81q-9 26 -18 53.5
t-16.5 51.5t-12 42t-4.5 24q0 11 3 22.5t11 11.5q5 0 7 -2.5t4 -2.5l12 5q5 0 17.5 -12.5t29 -32.5t35.5 -45t38.5 -49t37 -45t31.5 -33q22 -20 44 -38t44.5 -36.5t47.5 -39.5t55 -48q1 -1 5 -1q2 0 2 5v12q0 14 -8 50.5t-22.5 85t-33.5 104t-40.5 107t-45 93.5t-45.5 65
q-6 6 -8.5 18t-2.5 20q0 7 9.5 15.5t17.5 8.5q12 0 27 -24t32 -62.5t34.5 -86.5t34.5 -97q20 -58 37.5 -114.5t31 -105.5t22 -88t10.5 -61zM217 754q5 -5 5 -14q0 -8 -5.5 -16t-10.5 -15q-14 -16 -29.5 -33.5t-32.5 -32t-34 -24t-34 -9.5q-12 0 -20 13t-13.5 32t-7.5 39.5
t-2 35.5q0 9 2.5 15.5t13.5 6.5q9 0 11 -8q7 -29 15.5 -48.5t17.5 -33.5q8 5 18.5 13.5t21 19t20 21.5t16.5 21q7 9 10 17.5t16 8.5q6 0 13 -3.5t9 -5.5z" />
    <glyph glyph-name="ncaron" unicode="&#x148;" horiz-adv-x="352" 
d="M340 123q0 -6 -4 -12t-9.5 -11t-12 -8.5t-11.5 -3.5q-17 0 -43.5 7.5t-42.5 23.5q-17 17 -30 40.5t-29 69.5q-11 -44 -25.5 -87t-46.5 -79q-2 -2 -6 -2q-7 0 -15 7t-8 14t-1.5 32.5t-3.5 57t-3.5 64t-1.5 53.5q0 10 1 26.5t6 28.5q1 2 7.5 8t14.5 6q7 0 8 -9t1 -20v-158
q0 -5 1.5 -14t4.5 -13q11 24 20.5 56.5t18.5 62t18 50t18 20.5q10 0 16 -4t10 -16q5 -29 8 -51.5t7.5 -40.5t13 -33.5t23.5 -28.5q14 -13 31.5 -19t30.5 -6q6 0 13 2.5t10 2.5q4 0 7.5 -7t3.5 -9zM265 537q5 -5 5 -14q0 -8 -5.5 -16t-10.5 -15q-14 -16 -29.5 -33.5
t-32.5 -32t-34 -24t-34 -9.5q-12 0 -20 13t-13.5 32t-7.5 39.5t-2 35.5q0 9 2.5 15.5t13.5 6.5q9 0 11 -8q7 -29 15.5 -48.5t17.5 -33.5q8 5 18.5 13.5t21 19t20 21.5t16.5 21q7 9 10 17.5t16 8.5q6 0 13 -3.5t9 -5.5z" />
    <glyph glyph-name="napostrophe" unicode="&#x149;" horiz-adv-x="688" 
d="M410 123q0 -6 -4 -12t-9.5 -11t-12 -8.5t-11.5 -3.5q-17 0 -43.5 7.5t-42.5 23.5q-17 17 -30 40.5t-29 69.5q-11 -44 -25.5 -87t-46.5 -79q-2 -2 -6 -2q-7 0 -15 7t-8 14t-1.5 32.5t-3.5 57t-3.5 64t-1.5 53.5q0 10 1 26.5t6 28.5q1 2 7.5 8t14.5 6q7 0 8 -9t1 -20v-158
q0 -5 1.5 -14t4.5 -13q11 24 20.5 56.5t18.5 62t18 50t18 20.5q10 0 16 -4t10 -16q5 -29 8 -51.5t7.5 -40.5t13 -33.5t23.5 -28.5q14 -13 31.5 -19t30.5 -6q6 0 13 2.5t10 2.5q4 0 7.5 -7t3.5 -9zM106 300q0 -18 -7.5 -33t-17.5 -25.5t-19 -16.5t-13 -6q-3 0 -7.5 4.5
t-4.5 10.5q0 1 4 7t9.5 14.5t9.5 20t4 24.5q0 26 -5 46.5t-13 40.5q-1 3 -2.5 7t-1.5 6q0 7 4.5 9t9.5 2q7 0 16 -12.5t16.5 -29.5t12.5 -36.5t5 -32.5z" />
    <glyph glyph-name="Eng" unicode="&#x14a;" horiz-adv-x="760" 
d="M475 -190q-25 0 -44 3.5t-32 9.5v76q16 -5 35 -7.5t41 -2.5q25 0 49 9.5t39 33.5t16 68l-403 593h-4q2 -19 3.5 -54t3 -75t1.5 -77v-387h-83v714h104l381 -572h4q-3 32 -5 88t-2 112v372h84v-708q0 -100 -51 -148t-137 -48z" />
    <glyph glyph-name="eng" unicode="&#x14b;" horiz-adv-x="618" 
d="M394 -240q-24 0 -41 3.5t-30 8.5v71q13 -5 27.5 -7.5t32.5 -2.5q29 0 48 17.5t19 66.5v427q0 128 -119 128q-89 0 -123.5 -49.5t-34.5 -143.5v-279h-88v536h71l14 -73h5q26 42 70.5 62.5t96.5 20.5q98 0 147 -46.5t49 -149.5v-430q0 -75 -35 -117.5t-109 -42.5z" />
    <glyph glyph-name="Omacron" unicode="&#x14c;" horiz-adv-x="403" 
d="M360 258q2 -13 2.5 -21t0.5 -16q0 -25 -6.5 -59t-22 -64.5t-41 -52t-64.5 -21.5q-36 0 -68 20.5t-57 53t-39.5 73t-14.5 80.5q0 58 7.5 99.5t21.5 72.5q0 3 -3.5 6t-3.5 8t9.5 13t23 15.5t27 13t20.5 5.5q4 0 13.5 -4t24.5 -4q5 0 10 1t11 1q21 0 45.5 -19.5t46 -50.5
t37 -70.5t20.5 -79.5zM320 219q0 19 -8 54.5t-24 70t-38.5 60.5t-50.5 26q-2 0 -7.5 0.5t-12.5 1t-13 1t-7 0.5q-16 0 -27.5 -15t-19 -39t-11.5 -55t-4 -62q0 -11 6 -42.5t21.5 -65t41.5 -59.5t66 -26q27 0 44 16.5t26.5 40.5t13.5 49.5t4 43.5zM289 570q-1 -5 -16.5 -9.5
t-39 -8.5t-51.5 -7t-53.5 -5.5t-44.5 -3.5t-25 -1q-13 0 -19 7.5t-6 16.5q0 5 4 17t12 12q5 0 8 -4t7 -5q45 0 88.5 4t90.5 4q6 0 13.5 -1t14 -3t11.5 -5t6 -8z" />
    <glyph glyph-name="omacron" unicode="&#x14d;" horiz-adv-x="280" 
d="M219 216q0 -22 -6 -42t-16 -35t-23.5 -23.5t-29.5 -8.5q-28 0 -44 16t-24.5 37t-11 42.5t-2.5 32.5q0 18 5.5 40.5t15 41.5t21.5 32t25 13q3 0 9.5 -2t13.5 -6t12.5 -10t7.5 -14q11 -1 22 -8t12 -11q8 -26 10.5 -52t2.5 -43zM174 234q0 15 -3 31.5t-12 33.5q-2 -1 -5 -1
q-4 0 -6.5 1t-4.5 1q-12 0 -19 -6.5t-10.5 -17t-4.5 -22.5t-1 -23t1 -24.5t4.5 -25.5t9.5 -20.5t16 -8.5t17 10.5t11 24.5t5.5 27.5t1.5 19.5zM269 437q-1 -5 -16.5 -9.5t-39 -8.5t-51.5 -7t-53.5 -5.5t-44.5 -3.5t-25 -1q-13 0 -19 7.5t-6 16.5q0 5 4 17t12 12q5 0 8 -4
t7 -5q45 0 88.5 4t90.5 4q6 0 13.5 -1t14 -3t11.5 -5t6 -8z" />
    <glyph glyph-name="Obreve" unicode="&#x14e;" horiz-adv-x="781" 
d="M328 586q-10 0 -25 3.5t-29.5 11t-25 18.5t-10.5 27t15 16q11 0 16.5 -4.5t12 -9.5t16 -9.5t28.5 -4.5q18 0 37 9.5t35 21.5t27 21.5t13 9.5q3 0 9.5 -5.5t6.5 -13.5q0 -15 -13 -31.5t-32 -29.5t-41 -21.5t-40 -8.5zM360 258q2 -13 2.5 -21t0.5 -16q0 -25 -6.5 -59
t-22 -64.5t-41 -52t-64.5 -21.5q-36 0 -68 20.5t-57 53t-39.5 73t-14.5 80.5q0 58 7.5 99.5t21.5 72.5q0 3 -3.5 6t-3.5 8t9.5 13t23 15.5t27 13t20.5 5.5q4 0 13.5 -4t24.5 -4q5 0 10 1t11 1q21 0 45.5 -19.5t46 -50.5t37 -70.5t20.5 -79.5zM320 219q0 19 -8 54.5t-24 70
t-38.5 60.5t-50.5 26q-2 0 -7.5 0.5t-12.5 1t-13 1t-7 0.5q-16 0 -27.5 -15t-19 -39t-11.5 -55t-4 -62q0 -11 6 -42.5t21.5 -65t41.5 -59.5t66 -26q27 0 44 16.5t26.5 40.5t13.5 49.5t4 43.5z" />
    <glyph glyph-name="obreve" unicode="&#x14f;" horiz-adv-x="605" 
d="M240 408q-10 0 -25 3.5t-29.5 11t-25 18.5t-10.5 27t15 16q11 0 16.5 -4.5t12 -9.5t16 -9.5t28.5 -4.5q18 0 37 9.5t35 21.5t27 21.5t13 9.5q3 0 9.5 -5.5t6.5 -13.5q0 -15 -13 -31.5t-32 -29.5t-41 -21.5t-40 -8.5zM219 216q0 -22 -6 -42t-16 -35t-23.5 -23.5
t-29.5 -8.5q-28 0 -44 16t-24.5 37t-11 42.5t-2.5 32.5q0 18 5.5 40.5t15 41.5t21.5 32t25 13q3 0 9.5 -2t13.5 -6t12.5 -10t7.5 -14q11 -1 22 -8t12 -11q8 -26 10.5 -52t2.5 -43zM174 234q0 15 -3 31.5t-12 33.5q-2 -1 -5 -1q-4 0 -6.5 1t-4.5 1q-12 0 -19 -6.5t-10.5 -17
t-4.5 -22.5t-1 -23t1 -24.5t4.5 -25.5t9.5 -20.5t16 -8.5t17 10.5t11 24.5t5.5 27.5t1.5 19.5z" />
    <glyph glyph-name="Ohungarumlaut" unicode="&#x150;" horiz-adv-x="403" 
d="M360 258q2 -13 2.5 -21t0.5 -16q0 -25 -6.5 -59t-22 -64.5t-41 -52t-64.5 -21.5q-36 0 -68 20.5t-57 53t-39.5 73t-14.5 80.5q0 58 7.5 99.5t21.5 72.5q0 3 -3.5 6t-3.5 8t9.5 13t23 15.5t27 13t20.5 5.5q4 0 13.5 -4t24.5 -4q5 0 10 1t11 1q21 0 45.5 -19.5t46 -50.5
t37 -70.5t20.5 -79.5zM320 219q0 19 -8 54.5t-24 70t-38.5 60.5t-50.5 26q-2 0 -7.5 0.5t-12.5 1t-13 1t-7 0.5q-16 0 -27.5 -15t-19 -39t-11.5 -55t-4 -62q0 -11 6 -42.5t21.5 -65t41.5 -59.5t66 -26q27 0 44 16.5t26.5 40.5t13.5 49.5t4 43.5zM228 680q0 -10 -11.5 -29
t-27.5 -40t-32 -38.5t-25 -24.5q-5 -4 -13.5 -7.5t-9.5 -3.5q-8 0 -21 6.5t-14 14.5q-1 2 7.5 7t17.5 13t25 27t33 39t32 35t21 15t12 -3t6 -11zM370 638q0 -8 -12 -23t-28.5 -31t-34 -29.5t-27.5 -18.5q-8 -4 -14 -5t-10 -1q-8 0 -15.5 6t-7.5 14q0 2 4.5 8.5t15.5 12.5
q10 6 26.5 19.5l33 27t30 23.5t18.5 10q7 0 14 -4t7 -9z" />
    <glyph glyph-name="ohungarumlaut" unicode="&#x151;" horiz-adv-x="280" 
d="M219 216q0 -22 -6 -42t-16 -35t-23.5 -23.5t-29.5 -8.5q-28 0 -44 16t-24.5 37t-11 42.5t-2.5 32.5q0 18 5.5 40.5t15 41.5t21.5 32t25 13q3 0 9.5 -2t13.5 -6t12.5 -10t7.5 -14q11 -1 22 -8t12 -11q8 -26 10.5 -52t2.5 -43zM174 234q0 15 -3 31.5t-12 33.5q-2 -1 -5 -1
q-4 0 -6.5 1t-4.5 1q-12 0 -19 -6.5t-10.5 -17t-4.5 -22.5t-1 -23t1 -24.5t4.5 -25.5t9.5 -20.5t16 -8.5t17 10.5t11 24.5t5.5 27.5t1.5 19.5zM208 546q0 -10 -11.5 -29t-27.5 -40t-32 -38.5t-25 -24.5q-5 -4 -13.5 -7.5t-9.5 -3.5q-8 0 -21 6.5t-14 14.5q-1 2 7.5 7
t17.5 13t25 27t33 39t32 35t21 15t12 -3t6 -11zM350 504q0 -8 -12 -23t-28.5 -31t-34 -29.5t-27.5 -18.5q-8 -4 -14 -5t-10 -1q-8 0 -15.5 6t-7.5 14q0 2 4.5 8.5t15.5 12.5q10 6 26.5 19.5l33 27t30 23.5t18.5 10q7 0 14 -4t7 -9z" />
    <glyph glyph-name="OE" unicode="&#x152;" horiz-adv-x="627" 
d="M602 353q1 -2 2 -2.5t1 -2.5q0 -6 -25 -22.5t-62 -37t-78 -41t-73 -33.5q0 -2 -2 -13t-2 -14v-19q0 -23 7 -45.5t21.5 -40.5t35.5 -29t49 -11q12 0 29.5 4.5t34 13t29.5 20.5t16 27q12 -1 14.5 -7t2.5 -8q0 -26 -12.5 -44.5t-31 -30t-39 -17t-36.5 -5.5q-63 0 -100 25
t-52 70q-16 -28 -41 -47t-61 -19t-68 20.5t-57 53t-39.5 73t-14.5 80.5q0 58 7.5 99.5t21.5 72.5q0 3 -3.5 6t-3.5 8t9.5 13t23 15.5t27 13t20.5 5.5q4 0 13.5 -4t24.5 -4q5 0 10 1t11 1q17 0 36.5 -13t38 -34.5t34 -50.5t26.5 -60q13 42 36 84q-8 0 -17 2t-9 14
q0 14 16.5 31t38 32t42.5 25.5t30 10.5q4 0 5.5 -1.5t5.5 -1.5q8 0 20.5 3t26.5 7t26.5 7t20.5 3q9 0 13.5 -6t4.5 -13q0 -8 -10 -11.5t-18 -5.5q-28 -5 -58.5 -17.5t-56.5 -27.5q-10 -11 -24 -31.5t-27 -46.5t-23.5 -54t-13.5 -53l17 8q77 37 125.5 58t75.5 21q5 0 9 -4z
M232 69q25 0 41.5 14.5t26.5 36t14.5 45.5t5.5 43q-5 2 -13 6t-8 17q0 12 17 21q-5 25 -14.5 56t-24.5 58t-34.5 45.5t-43.5 18.5q-2 0 -7.5 0.5t-12.5 1t-13 1t-7 0.5q-16 0 -27.5 -15t-19 -39t-11.5 -55t-4 -62q0 -11 6 -42.5t21.5 -65t41.5 -59.5t66 -26z" />
    <glyph glyph-name="oe" unicode="&#x153;" horiz-adv-x="461" 
d="M434 105q1 -2 1 -6q0 -6 -9 -18q-3 -4 -13 -13t-27 -18t-41.5 -16t-57.5 -7q-35 0 -67.5 25t-46.5 74q-19 -19 -43 -19q-28 0 -44 16t-24.5 37t-11 42.5t-2.5 32.5q0 18 5.5 40.5t15 41.5t21.5 32t25 13q3 0 9.5 -2t13.5 -6t12.5 -10t7.5 -14q11 -1 22 -8t12 -11
q16 32 37.5 50.5t41.5 18.5q16 0 32.5 -6.5t30 -16.5t21.5 -22.5t8 -25.5q0 -15 -13.5 -31t-32.5 -29.5t-38 -22t-30 -8.5q-6 0 -10.5 5.5t-4.5 13.5q0 14 12.5 22t27.5 14.5t27.5 15.5t12.5 25q0 2 -5 10t-27 8q-10 0 -23 -11.5t-25 -31t-20 -46t-8 -57.5q0 -26 9.5 -47
t24.5 -35.5t35 -22.5t41 -8q15 0 32.5 6.5t33 14t27 14t14.5 6.5t6.5 -3t4.5 -6zM160 234q0 15 -3 31.5t-12 33.5q-2 -1 -5 -1q-4 0 -6.5 1t-4.5 1q-12 0 -19 -6.5t-10.5 -17t-4.5 -22.5t-1 -23t1 -24.5t4.5 -25.5t9.5 -20.5t16 -8.5t17 10.5t11 24.5t5.5 27.5t1.5 19.5z
" />
    <glyph glyph-name="Racute" unicode="&#x154;" horiz-adv-x="512" 
d="M592 -46q0 -7 -5 -15t-14 -8q-5 0 -11 3q-36 17 -84 27.5t-98.5 18.5t-98.5 17.5t-84 24.5q6 -13 12 -21l10.5 -14t7.5 -11.5t3 -14.5q0 -8 -6 -12t-12 -4q-12 0 -25.5 15t-27.5 38t-27.5 51.5t-24.5 55.5t-19 49.5t-11 34.5l-44 176q0 3 1.5 8t7.5 10q-4 8 -4 17
q0 28 32 51.5t77.5 40t95.5 25.5t85 9q10 0 30 -1.5t39.5 -7.5t34 -18.5t14.5 -34.5q0 -21 -21.5 -48t-53.5 -57t-69 -61.5t-69 -63t-53.5 -61t-21.5 -54.5q0 -19 16.5 -33.5t41.5 -25.5t54.5 -19t56 -13t46 -7.5t23.5 -2.5q13 0 45 -3t65.5 -10.5t59.5 -19.5t26 -31z
M399 463q0 7 -7 12.5t-18.5 9t-25 5t-26.5 1.5q-20 0 -48 -6t-56.5 -15t-52.5 -18t-35 -15q-21 -12 -41 -26.5t-20 -28.5q0 -2 3 -4t3 -7q0 -6 6 -30.5t14 -55t17.5 -60.5t17.5 -48q41 58 88.5 101.5t87.5 77t66.5 59t26.5 48.5zM307 671q0 -8 -12 -23t-28.5 -31t-34 -29.5
t-27.5 -18.5q-8 -4 -14 -5t-10 -1q-8 0 -20 9t-12 17q0 2 9 5.5t20 9.5q10 6 26.5 19.5l33 27t30 23.5t18.5 10q7 0 14 -4t7 -9z" />
    <glyph glyph-name="racute" unicode="&#x155;" horiz-adv-x="316" 
d="M276 305q0 -7 -6 -11.5t-14 -7.5t-16 -4.5t-13 -1.5q-15 0 -20 2t-8 2q-25 0 -40 -4t-23.5 -13t-11 -22.5t-2.5 -32.5q0 -32 2.5 -51t5 -31t5 -18.5t2.5 -12.5q0 -8 -8.5 -17t-15.5 -9q-12 0 -21.5 21.5t-16 51t-10.5 58.5t-4 44q0 17 3 32.5t8 27t11 18.5t12 7
q5 0 8 -3.5t5 -8t4.5 -8t6.5 -3.5q9 0 29 9t49 9q27 0 40.5 -1.5t26.5 -6.5q3 -1 7.5 -4.5t4.5 -10.5zM279 504q0 -8 -12 -23t-28.5 -31t-34 -29.5t-27.5 -18.5q-8 -4 -14 -5t-10 -1q-8 0 -20 9t-12 17q0 2 9 5.5t20 9.5q10 6 26.5 19.5l33 27t30 23.5t18.5 10q7 0 14 -4
t7 -9z" />
    <glyph glyph-name="Rcommaaccent" unicode="&#x156;" horiz-adv-x="512" 
d="M447 -119q0 -22 -6 -47t-19 -46.5t-34 -36t-52 -14.5q-10 0 -17.5 5.5t-7.5 17.5q0 11 7.5 15.5t15.5 4.5q4 0 3.5 -1.5t2.5 -1.5q27 0 37 21.5t15 47.5t10 47.5t22 21.5q14 0 18.5 -13.5t4.5 -20.5zM592 -46q0 -7 -5 -15t-14 -8q-5 0 -11 3q-36 17 -84 27.5t-98.5 18.5
t-98.5 17.5t-84 24.5q6 -13 12 -21l10.5 -14t7.5 -11.5t3 -14.5q0 -8 -6 -12t-12 -4q-12 0 -25.5 15t-27.5 38t-27.5 51.5t-24.5 55.5t-19 49.5t-11 34.5l-44 176q0 3 1.5 8t7.5 10q-4 8 -4 17q0 28 32 51.5t77.5 40t95.5 25.5t85 9q10 0 30 -1.5t39.5 -7.5t34 -18.5
t14.5 -34.5q0 -21 -21.5 -48t-53.5 -57t-69 -61.5t-69 -63t-53.5 -61t-21.5 -54.5q0 -19 16.5 -33.5t41.5 -25.5t54.5 -19t56 -13t46 -7.5t23.5 -2.5q13 0 45 -3t65.5 -10.5t59.5 -19.5t26 -31zM399 463q0 7 -7 12.5t-18.5 9t-25 5t-26.5 1.5q-20 0 -48 -6t-56.5 -15
t-52.5 -18t-35 -15q-21 -12 -41 -26.5t-20 -28.5q0 -2 3 -4t3 -7q0 -6 6 -30.5t14 -55t17.5 -60.5t17.5 -48q41 58 88.5 101.5t87.5 77t66.5 59t26.5 48.5z" />
    <glyph glyph-name="rcommaaccent" unicode="&#x157;" horiz-adv-x="316" 
d="M168 -15q0 -22 -6 -47t-19 -46.5t-34 -36t-52 -14.5q-10 0 -17.5 5.5t-7.5 17.5q0 11 7.5 15.5t15.5 4.5q4 0 3.5 -1.5t2.5 -1.5q27 0 37 21.5t15 47.5t10 47.5t22 21.5q14 0 18.5 -13.5t4.5 -20.5zM276 305q0 -7 -6 -11.5t-14 -7.5t-16 -4.5t-13 -1.5q-15 0 -20 2t-8 2
q-25 0 -40 -4t-23.5 -13t-11 -22.5t-2.5 -32.5q0 -32 2.5 -51t5 -31t5 -18.5t2.5 -12.5q0 -8 -8.5 -17t-15.5 -9q-12 0 -21.5 21.5t-16 51t-10.5 58.5t-4 44q0 17 3 32.5t8 27t11 18.5t12 7q5 0 8 -3.5t5 -8t4.5 -8t6.5 -3.5q9 0 29 9t49 9q27 0 40.5 -1.5t26.5 -6.5
q3 -1 7.5 -4.5t4.5 -10.5z" />
    <glyph glyph-name="Rcaron" unicode="&#x158;" horiz-adv-x="512" 
d="M592 -46q0 -7 -5 -15t-14 -8q-5 0 -11 3q-36 17 -84 27.5t-98.5 18.5t-98.5 17.5t-84 24.5q6 -13 12 -21l10.5 -14t7.5 -11.5t3 -14.5q0 -8 -6 -12t-12 -4q-12 0 -25.5 15t-27.5 38t-27.5 51.5t-24.5 55.5t-19 49.5t-11 34.5l-44 176q0 3 1.5 8t7.5 10q-4 8 -4 17
q0 28 32 51.5t77.5 40t95.5 25.5t85 9q10 0 30 -1.5t39.5 -7.5t34 -18.5t14.5 -34.5q0 -21 -21.5 -48t-53.5 -57t-69 -61.5t-69 -63t-53.5 -61t-21.5 -54.5q0 -19 16.5 -33.5t41.5 -25.5t54.5 -19t56 -13t46 -7.5t23.5 -2.5q13 0 45 -3t65.5 -10.5t59.5 -19.5t26 -31z
M399 463q0 7 -7 12.5t-18.5 9t-25 5t-26.5 1.5q-20 0 -48 -6t-56.5 -15t-52.5 -18t-35 -15q-21 -12 -41 -26.5t-20 -28.5q0 -2 3 -4t3 -7q0 -6 6 -30.5t14 -55t17.5 -60.5t17.5 -48q41 58 88.5 101.5t87.5 77t66.5 59t26.5 48.5zM316 708q5 -5 5 -14q0 -8 -5.5 -16
t-10.5 -15q-14 -16 -29.5 -33.5t-32.5 -32t-34 -24t-34 -9.5q-12 0 -20 13t-13.5 32t-7.5 39.5t-2 35.5q0 9 2.5 15.5t13.5 6.5q9 0 11 -8q7 -29 15.5 -48.5t17.5 -33.5q8 5 18.5 13.5t21 19t20 21.5t16.5 21q7 9 10 17.5t16 8.5q6 0 13 -3.5t9 -5.5z" />
    <glyph glyph-name="rcaron" unicode="&#x159;" horiz-adv-x="316" 
d="M276 305q0 -7 -6 -11.5t-14 -7.5t-16 -4.5t-13 -1.5q-15 0 -20 2t-8 2q-25 0 -40 -4t-23.5 -13t-11 -22.5t-2.5 -32.5q0 -32 2.5 -51t5 -31t5 -18.5t2.5 -12.5q0 -8 -8.5 -17t-15.5 -9q-12 0 -21.5 21.5t-16 51t-10.5 58.5t-4 44q0 17 3 32.5t8 27t11 18.5t12 7
q5 0 8 -3.5t5 -8t4.5 -8t6.5 -3.5q9 0 29 9t49 9q27 0 40.5 -1.5t26.5 -6.5q3 -1 7.5 -4.5t4.5 -10.5zM281 537q5 -5 5 -14q0 -8 -5.5 -16t-10.5 -15q-14 -16 -29.5 -33.5t-32.5 -32t-34 -24t-34 -9.5q-12 0 -20 13t-13.5 32t-7.5 39.5t-2 35.5q0 9 2.5 15.5t13.5 6.5
q9 0 11 -8q7 -29 15.5 -48.5t17.5 -33.5q8 5 18.5 13.5t21 19t20 21.5t16.5 21q7 9 10 17.5t16 8.5q6 0 13 -3.5t9 -5.5z" />
    <glyph glyph-name="Sacute" unicode="&#x15a;" horiz-adv-x="456" 
d="M441 145q0 -45 -16 -70.5t-47 -47.5q-8 -5 -22 -12t-31 -13t-36 -10t-35 -4q-45 0 -68 9.5t-23 22.5q0 14 8 23t14 10l11 -8q5 -5 14 -10.5t29 -5.5q19 0 46 6.5t51.5 20t42 33.5t17.5 46q0 23 -34.5 42.5t-108.5 26.5q-38 3 -75 9.5t-66.5 18t-47.5 29t-18 43.5
q0 25 14 48t34.5 42.5t42.5 34.5t37 25q12 7 33.5 18.5t46 22t49 18t41.5 7.5q20 0 27 -11t7 -31q0 -17 -4 -36t-9 -37t-9.5 -31.5t-6.5 -17.5q-4 -9 -9 -12t-7 -3q-4 0 -4 5q0 3 1.5 11.5t4 20.5t4 26t1.5 28q0 22 -2 32t-16 10t-38 -7.5t-49 -18.5q-27 -12 -52.5 -31
t-45.5 -39t-32.5 -38.5t-12.5 -29.5q0 -12 16.5 -22.5t42 -18.5t56.5 -14t61 -9q25 -3 55 -8t56 -16t44 -29.5t18 -47.5zM329 644q0 -8 -12 -23t-28.5 -31t-34 -29.5t-27.5 -18.5q-8 -4 -14 -5t-10 -1q-8 0 -20 9t-12 17q0 2 9 5.5t20 9.5q10 6 26.5 19.5l33 27t30 23.5
t18.5 10q7 0 14 -4t7 -9z" />
    </font>
</defs>
</svg>
