<?xml version="1.0" standalone="no"?>
<!DOCTYPE svg PUBLIC "-//W3C//DTD SVG 1.1//EN" "http://www.w3.org/Graphics/SVG/1.1/DTD/svg11.dtd" >
<svg xmlns="http://www.w3.org/2000/svg" xmlns:xlink="http://www.w3.org/1999/xlink" version="1.1">
<metadata>
Created by FontForge 20190801 at Tue May  4 08:59:35 2021
 By root
Copyright 2018 The Roboto Slab Project Authors (https://github.com/googlefonts/robotoslab)
</metadata>
<defs>
<font id="RobotoSlab-Thin" horiz-adv-x="490" >
  <font-face 
    font-family="Roboto Slab Thin"
    font-weight="250"
    font-stretch="normal"
    units-per-em="2048"
    panose-1="0 0 0 0 0 0 0 0 0 0"
    ascent="1638"
    descent="-410"
    x-height="1082"
    cap-height="1456"
    bbox="-213 -531 1963 2002"
    underline-thickness="100"
    underline-position="-200"
    unicode-range="U+0001-206F"
  />
<missing-glyph horiz-adv-x="748" 
d="M68 0v1365h544v-1365h-544zM136 68h408v1229h-408v-1229z" />
    <glyph glyph-name=".notdef" horiz-adv-x="748" 
d="M68 0v1365h544v-1365h-544zM136 68h408v1229h-408v-1229z" />
    <glyph glyph-name="uni0000" 
 />
    <glyph glyph-name="uni0000" 
 />
    <glyph glyph-name="nonmarkingreturn" horiz-adv-x="682" 
 />
    <glyph glyph-name="uni0001" 
 />
    <glyph glyph-name="uni0002" 
 />
    <glyph glyph-name="uni0003" 
 />
    <glyph glyph-name="uni0004" 
 />
    <glyph glyph-name="uni0005" 
 />
    <glyph glyph-name="uni0006" 
 />
    <glyph glyph-name="uni0007" 
 />
    <glyph glyph-name="uni0008" 
 />
    <glyph glyph-name="uni0009" unicode="&#x9;" 
 />
    <glyph glyph-name="uni000A" unicode="&#xa;" 
 />
    <glyph glyph-name="uni000B" 
 />
    <glyph glyph-name="uni000C" 
 />
    <glyph glyph-name="CR" unicode="&#xd;" 
 />
    <glyph glyph-name="uni000E" 
 />
    <glyph glyph-name="uni000F" 
 />
    <glyph glyph-name="uni0010" 
 />
    <glyph glyph-name="uni0011" 
 />
    <glyph glyph-name="uni0012" 
 />
    <glyph glyph-name="uni0013" 
 />
    <glyph glyph-name="uni0014" 
 />
    <glyph glyph-name="uni0015" 
 />
    <glyph glyph-name="uni0016" 
 />
    <glyph glyph-name="uni0017" 
 />
    <glyph glyph-name="uni0018" 
 />
    <glyph glyph-name="uni0019" 
 />
    <glyph glyph-name="uni001A" 
 />
    <glyph glyph-name="uni001B" 
 />
    <glyph glyph-name="uni001C" 
 />
    <glyph glyph-name="uni001D" 
 />
    <glyph glyph-name="uni001E" 
 />
    <glyph glyph-name="uni001F" 
 />
    <glyph glyph-name="space" unicode=" " 
 />
    <glyph glyph-name="exclam" unicode="!" horiz-adv-x="437" 
d="M163 478v978h54v-978h-54zM143 0v134h95v-134h-95z" />
    <glyph glyph-name="quotedbl" unicode="&#x22;" horiz-adv-x="602" 
d="M166 1122l15 267v171h55v-169l-20 -269h-50zM347 1122l15 267v171h55v-169l-20 -269h-50z" />
    <glyph glyph-name="numbersign" unicode="#" horiz-adv-x="1246" 
d="M260 0l74 410h-271v52h281l95 524h-300v54h310l75 416h56l-76 -416h365l76 416h56l-76 -416h254v-54h-264l-96 -524h285v-52h-294l-75 -410h-56l75 410h-364l-74 -410h-56zM400 462h363l96 524h-365z" />
    <glyph glyph-name="dollar" unicode="$" horiz-adv-x="1086" 
d="M521 -208v187q-126 4 -226.5 50t-157.5 138.5t-54 235.5l2 6h46q0 -133 56 -216t149.5 -122t205.5 -39q109 0 190 42.5t126 113.5t45 156q0 87 -33.5 147.5t-114.5 110t-223 100.5q-143 47 -233 99t-132.5 125t-42.5 184q0 160 104.5 259.5t281.5 106.5v187h55v-187
q181 -10 281.5 -120.5t97.5 -303.5l-2 -5h-47q0 166 -95 271.5t-265 105.5q-174 0 -265.5 -91.5t-91.5 -220.5q0 -87 30.5 -149t111 -111t229.5 -98q140 -49 230.5 -101t134 -124.5t43.5 -182.5q0 -161 -104 -258.5t-277 -107.5v-188h-55z" />
    <glyph glyph-name="percent" unicode="%" horiz-adv-x="1457" 
d="M388 131l-45 31l711 1138l45 -31zM1106 -21q-81 0 -142.5 40t-96 108t-34.5 152v78q0 83 34.5 151t95.5 108.5t141 40.5t141.5 -40t96 -108t34.5 -152v-78q0 -84 -34.5 -152t-95.5 -108t-140 -40zM1106 34q103 0 159 72t56 173v78q0 106 -56 175.5t-161 69.5
q-103 0 -159.5 -70t-56.5 -175v-78q0 -101 56 -173t162 -72zM351 800q-81 0 -143 40t-96.5 107.5t-34.5 151.5v77q0 84 34.5 152.5t96 108.5t141.5 40q79 0 140.5 -40t96 -108.5t34.5 -152.5v-77q0 -84 -34.5 -151.5t-95 -107.5t-139.5 -40zM351 855q102 0 158 72t56 172v77
q0 100 -56.5 173t-159.5 73t-160 -73.5t-57 -172.5v-77q0 -100 56.5 -172t162.5 -72z" />
    <glyph glyph-name="ampersand" unicode="&#x26;" horiz-adv-x="1253" 
d="M508 -21q-135 0 -232 45.5t-149.5 129t-52.5 198.5q0 114 67.5 211t188.5 199q13 11 25.5 21t25.5 20q-82 103 -121 188t-39 176q0 99 37 168.5t105 105.5t163 36q88 0 149.5 -32.5t94 -91.5t32.5 -138q0 -84 -38.5 -142.5t-108.5 -114.5l-202 -161l475 -540
q54 76 84.5 171t30.5 204h55q0 -125 -35 -227.5t-98 -188.5l185 -211l-2 -5h-60l-157 177q-76 -79 -176.5 -138.5t-246.5 -59.5zM508 33q110 0 211 47.5t177 135.5l-483 548l-52 -41q-137 -118 -185 -205.5t-48 -165.5q0 -134 98 -226.5t282 -92.5zM421 834l209 166
q60 50 88 103.5t28 111.5q0 94 -56.5 151t-163.5 57q-120 0 -185 -72.5t-65 -181.5q0 -79 35 -163t110 -172z" />
    <glyph glyph-name="quotesingle" unicode="'" horiz-adv-x="421" 
d="M166 1122l15 267v171h55v-169l-20 -269h-50z" />
    <glyph glyph-name="parenleft" unicode="(" horiz-adv-x="615" 
d="M525 -463q-86 53 -160.5 153.5t-131 237t-88 299t-31.5 339.5v20q0 169 32 331t88.5 301.5t131 243t159.5 154.5h6l16 -36q-76 -51 -144.5 -151.5t-121.5 -236t-83 -290t-30 -312.5v-26q0 -159 30 -313.5t83 -290t121.5 -236t144.5 -151.5l-16 -36h-6z" />
    <glyph glyph-name="parenright" unicode=")" horiz-adv-x="608" 
d="M27 -463l-16 36q76 51 144.5 151.5t121 236t83 290t30.5 313.5v26q0 158 -30.5 312.5t-83 290t-121 236t-144.5 151.5l16 36h6q84 -51 158.5 -154.5t131.5 -243t89 -301.5t32 -331v-20q0 -177 -32 -339.5t-88 -299t-130.5 -237t-160.5 -153.5h-6z" />
    <glyph glyph-name="asterisk" unicode="*" horiz-adv-x="948" 
d="M710 664l-242 322l-228 -325l-45 32l234 324l-363 124l18 54l362 -133l1 394h56l-7 -395l352 143l20 -53l-360 -137l249 -317z" />
    <glyph glyph-name="plus" unicode="+" horiz-adv-x="1145" 
d="M535 146v503h-462v53h462v504h55v-504h481v-53h-481v-503h-55z" />
    <glyph glyph-name="comma" unicode="," horiz-adv-x="383" 
d="M129 -255l-37 32q46 61 67.5 117.5t21.5 130.5v134h54v-132q0 -88 -28 -158t-78 -124z" />
    <glyph glyph-name="hyphen" unicode="-" horiz-adv-x="789" 
d="M154 599v54h470v-54h-470z" />
    <glyph glyph-name="period" unicode="." horiz-adv-x="444" 
d="M145 0v130h86v-130h-86z" />
    <glyph glyph-name="slash" unicode="/" horiz-adv-x="776" 
d="M0 -125l608 1581h59l-608 -1581h-59z" />
    <glyph glyph-name="zero" unicode="0" horiz-adv-x="1150" 
d="M566 -21q-211 0 -328 155.5t-117 439.5v308q0 284 116 439.5t327 155.5t327.5 -155.5t116.5 -439.5v-308q0 -285 -115.5 -440t-326.5 -155zM566 33q189 0 288.5 145t99.5 398v306q0 254 -100 397.5t-290 143.5t-289.5 -143.5t-99.5 -397.5v-306q0 -252 100.5 -397.5
t290.5 -145.5z" />
    <glyph glyph-name="one" unicode="1" horiz-adv-x="821" 
d="M108 0v54h293v1352l-338 -76v50l392 84v-1410h293v-54h-640z" />
    <glyph glyph-name="two" unicode="2" horiz-adv-x="1104" 
d="M106 0v54l477 550q91 105 148.5 189.5t85 156t27.5 136.5q0 159 -88 248t-257 89q-179 0 -277 -105t-98 -272h-46l-2 6q-3 118 48.5 214.5t148 153.5t226.5 57q121 0 211 -46t139.5 -133.5t49.5 -211.5q0 -81 -35.5 -162.5t-102.5 -174t-162 -203.5l-417 -487l2 -5h739
v239h54v-293h-871z" />
    <glyph glyph-name="three" unicode="3" horiz-adv-x="1098" 
d="M539 -21q-123 0 -230.5 49t-172 143t-61.5 228l2 6h46q0 -108 54.5 -192t148.5 -132t213 -48q180 0 280 92.5t100 256.5q0 170 -114.5 251.5t-310.5 81.5h-111v56h111q122 0 210 42t135.5 113t47.5 160q0 147 -90.5 242t-266.5 95q-108 0 -193 -43t-134 -121.5
t-49 -183.5h-46l-2 6q-3 118 52.5 207t153 139t218.5 50q188 0 299.5 -106.5t111.5 -288.5q0 -115 -72.5 -206t-195.5 -131q142 -35 221 -127t79 -232q0 -127 -55 -218t-153 -140t-226 -49z" />
    <glyph glyph-name="four" unicode="4" horiz-adv-x="1170" 
d="M606 0v54h163v343h-706v30l695 1029h65v-1005h252v-54h-252v-343h163v-54h-380zM147 451h622v929l-6 2l-78 -129z" />
    <glyph glyph-name="five" unicode="5" horiz-adv-x="1061" 
d="M503 -21q-118 0 -211 45t-145.5 133.5t-49.5 219.5l2 6h47q0 -172 96 -261t261 -89q194 0 284.5 107t90.5 322q0 184 -90.5 290t-253.5 106q-160 0 -251.5 -53.5t-131.5 -158.5l-41 16l78 794h700v-191h-54v138h-597l-61 -618q42 42 87.5 70t109 43t160.5 18
q116 3 206.5 -52t142 -158t51.5 -242q0 -149 -46.5 -257.5t-141.5 -168t-242 -59.5z" />
    <glyph glyph-name="six" unicode="6" horiz-adv-x="1107" 
d="M555 -21q-129 0 -226.5 67.5t-152.5 195.5t-55 310v328q0 195 58.5 328t161 201t233.5 68q76 0 148.5 -16.5t136.5 -53.5l-21 -51q-66 38 -122.5 52.5t-141.5 14.5q-175 0 -287 -134.5t-112 -407.5v-175q47 109 150.5 180t239.5 71q131 0 225.5 -61.5t145 -173.5
t50.5 -262q0 -138 -55.5 -246.5t-153 -171.5t-222.5 -63zM555 32q111 0 196 58t133 155.5t48 214.5q0 202 -96 322.5t-278 120.5q-102 0 -189.5 -48t-140.5 -127t-53 -174v-3q0 -247 104 -383t276 -136z" />
    <glyph glyph-name="seven" unicode="7" horiz-adv-x="1104" 
d="M385 0l6 91q29 263 101 494.5t185.5 435t263.5 381.5h-811v-239h-54v293h930v-54q-108 -125 -200.5 -267t-165.5 -303.5t-122.5 -346t-72.5 -394.5l-6 -91h-54z" />
    <glyph glyph-name="eight" unicode="8" horiz-adv-x="1123" 
d="M557 -21q-137 0 -242 46.5t-164 136t-59 217.5q0 133 84.5 231t224.5 135q-122 37 -195 127.5t-73 213.5t54 210.5t149.5 134t218.5 46.5q122 0 217.5 -47t150.5 -134.5t55 -209.5t-74.5 -213t-195.5 -128q139 -38 225.5 -136t86.5 -230q0 -128 -59.5 -217.5t-164 -136
t-239.5 -46.5zM557 33q117 0 209.5 41t145.5 117t53 183q0 103 -54 180.5t-147 120.5t-209 43q-118 0 -210.5 -43t-145.5 -120.5t-53 -180.5q0 -161 115 -251t296 -90zM557 772q105 0 188 39.5t131 111t48 168.5q0 95 -49 170t-133 118.5t-187 43.5q-161 0 -264.5 -90.5
t-103.5 -241.5q0 -146 104 -232.5t266 -86.5z" />
    <glyph glyph-name="nine" unicode="9" horiz-adv-x="1125" 
d="M501 -21q-78 0 -156 16t-157 47l16 57q75 -34 143 -50t154 -16q188 0 293.5 138t105.5 407v123q-56 -109 -158.5 -171t-229.5 -62q-125 0 -221.5 66t-151.5 177.5t-55 246.5q0 143 56 261t154.5 188t225.5 70q133 0 232.5 -60t154.5 -183t55 -311v-343q0 -199 -56 -333
t-159.5 -201t-245.5 -67zM512 521q148 0 248 85.5t140 204.5v111q0 256 -102.5 378.5t-273.5 122.5q-112 0 -197 -65t-133 -171t-48 -229q0 -119 45.5 -218t127.5 -159t193 -60z" />
    <glyph glyph-name="colon" unicode=":" horiz-adv-x="364" 
d="M118 0v130h86v-130h-86zM118 949v130h86v-130h-86z" />
    <glyph glyph-name="semicolon" unicode=";" horiz-adv-x="364" 
d="M125 952v130h86v-130h-86zM113 -255l-37 32q46 61 67.5 117.5t21.5 130.5v134h54v-132q0 -88 -28 -158t-78 -124z" />
    <glyph glyph-name="less" unicode="&#x3c;" horiz-adv-x="1027" 
d="M913 136l-837 379v50l837 378v-58l-661 -308l-119 -37v-6l119 -36l661 -303v-59z" />
    <glyph glyph-name="equal" unicode="=" horiz-adv-x="1127" 
d="M147 843v54h834v-54h-834zM147 436v54h834v-54h-834z" />
    <glyph glyph-name="greater" unicode="&#x3e;" horiz-adv-x="1052" 
d="M125 137v59l660 307l118 36v6l-118 37l-660 304v58l836 -378v-50z" />
    <glyph glyph-name="question" unicode="?" horiz-adv-x="901" 
d="M362 400q0 59 4 97.5t16.5 68t37.5 58.5t67 68q81 77 131 136.5t73 124.5t23 159q0 146 -78 229t-221 83q-142 0 -220 -84.5t-81 -223.5h-46l-3 6q-1 113 43.5 192.5t124 121t182.5 41.5q164 0 258.5 -101t94.5 -266q0 -94 -27.5 -169.5t-83.5 -144.5t-142 -146
q-43 -38 -64.5 -70t-28 -72.5t-6.5 -107.5h-54zM358 0v106h82v-106h-82z" />
    <glyph glyph-name="at" unicode="@" horiz-adv-x="1799" 
d="M857 -453q-248 0 -425 113t-267.5 321.5t-78.5 496.5q12 283 124 492.5t304 325t444 115.5q262 0 436 -105.5t258 -304t72 -478.5q-6 -146 -55 -270t-138 -199t-217 -75q-83 0 -135 61t-61 169q-110 -230 -332 -230q-136 0 -203 119t-48 318q16 167 76 291t153.5 192.5
t207.5 68.5q83 0 135 -27.5t115 -82.5l-2 -27l-47 -538q-7 -101 12.5 -157.5t55.5 -79t76 -22.5q158 0 248.5 134.5t101.5 354.5q20 396 -158 615t-555 219q-232 0 -410.5 -109.5t-284 -307t-119.5 -462.5q-13 -257 67 -455t246 -309.5t410 -111.5q99 0 185.5 21t148.5 57
l24 -44q-62 -40 -164.5 -64.5t-199.5 -24.5zM784 33q108 0 194 66.5t144 245.5q1 7 1 13t1 13l40 460q-34 39 -82.5 60.5t-112.5 21.5q-142 0 -248 -126.5t-132 -370.5q-19 -167 31.5 -275t163.5 -108z" />
    <glyph glyph-name="A" unicode="A" horiz-adv-x="1472" 
d="M55 0v54h107l524 1402h66l525 -1402h107v-54h-309v54h143l-143 381h-712l-142 -381h143v-54h-309zM383 489h672l-305 820l-28 82h-6l-27 -82z" />
    <glyph glyph-name="B" unicode="B" horiz-adv-x="1247" 
d="M71 0v54h163v1348h-163v54h163h383q226 0 351 -93t125 -280q0 -130 -67 -219t-189 -111q91 -12 164 -62.5t115.5 -126t42.5 -163.5q0 -191 -123.5 -296t-326.5 -105h-638zM288 54h421q184 0 290 91t106 254q0 89 -45.5 161.5t-132 115.5t-208.5 43h-431v-665zM288 773
h349q199 0 300 77.5t101 236.5q0 156 -106.5 235.5t-314.5 79.5h-329v-629z" />
    <glyph glyph-name="C" unicode="C" horiz-adv-x="1348" 
d="M794 -21q-212 0 -360.5 93.5t-226 260t-77.5 386.5v18q0 220 80 386.5t223.5 260t333.5 93.5q158 0 259 -40t190 -118v-257h-55v234q-54 41 -108.5 69t-122 43t-163.5 15q-172 0 -303.5 -86t-205.5 -240t-74 -358v-20q0 -204 72.5 -358.5t208.5 -241t326 -86.5
q110 0 212 28t173 76v235h55v-269q-94 -63 -204 -93.5t-233 -30.5z" />
    <glyph glyph-name="D" unicode="D" horiz-adv-x="1386" 
d="M71 0v54h163v1348h-163v54h163h395q179 0 318.5 -92.5t220 -254.5t80.5 -372v-18q0 -210 -80.5 -372t-220 -254.5t-318.5 -92.5h-558zM288 54h341q163 0 290.5 86.5t201 237t73.5 341.5v21q0 190 -73.5 339.5t-201 236t-290.5 86.5h-341v-1348z" />
    <glyph glyph-name="E" unicode="E" horiz-adv-x="1270" 
d="M71 0v54h163v1348h-163v54h1019v-293h-54v239h-748v-616h630v-54h-630v-678h778v239h54v-293h-1049z" />
    <glyph glyph-name="F" unicode="F" horiz-adv-x="1246" 
d="M71 0v54h163v1348h-163v54h1065v-293h-54v239h-794v-630h646v-56h-646v-662h163v-54h-380z" />
    <glyph glyph-name="G" unicode="G" horiz-adv-x="1417" 
d="M770 -21q-199 0 -342.5 93.5t-220.5 260.5t-77 387v38q0 213 81 375t222 253t321 91q154 0 261.5 -41.5t197.5 -111.5v-252h-54v224q-74 58 -166.5 92.5t-238.5 34.5q-162 0 -291 -84.5t-204 -233.5t-75 -345v-40q0 -203 69.5 -358t200 -242t314.5 -87q134 0 242 32.5
t184 75.5v424h-315v55h369v-509q-91 -55 -207 -93.5t-271 -38.5z" />
    <glyph glyph-name="H" unicode="H" horiz-adv-x="1506" 
d="M71 0v54h163v1348h-163v54h380v-54h-163v-653h930v653h-163v54h163h54h163v-54h-163v-1348h163v-54h-380v54h163v641h-930v-641h163v-54h-380z" />
    <glyph glyph-name="I" unicode="I" horiz-adv-x="522" 
d="M71 0v54h163v1348h-163v54h380v-54h-163v-1348h163v-54h-380z" />
    <glyph glyph-name="J" unicode="J" horiz-adv-x="1137" 
d="M471 -21q-133 0 -229.5 47.5t-147.5 140t-48 228.5l2 6h46q0 -178 97 -273t280 -95q102 0 182.5 47.5t126.5 135t46 206.5v980h-186v54h403v-54h-163v-980q0 -135 -52 -234.5t-144.5 -154t-212.5 -54.5z" />
    <glyph glyph-name="K" unicode="K" horiz-adv-x="1388" 
d="M270 391l-20 62l841 944l-2 5h-168v54h361v-54h-115zM71 0v54h163v1348h-163v54h380v-54h-163v-1348h163v-54h-380zM967 0v54h163l3 6l-542 743l50 29l569 -778h118v-54h-361z" />
    <glyph glyph-name="L" unicode="L" horiz-adv-x="1161" 
d="M71 0v54h163v1348h-163v54h163h55h163v-54h-163v-1348h693v239h54v-293h-965z" />
    <glyph glyph-name="M" unicode="M" horiz-adv-x="1824" 
d="M71 0v54h163v1348h-163v54h163h77l596 -1370h6l598 1370h242v-54h-163v-1348h163v-54h-380v54h163v791v516l-6 2l-598 -1363h-43l-595 1356l-6 -2v-482v-818h163v-54h-380z" />
    <glyph glyph-name="N" unicode="N" horiz-adv-x="1517" 
d="M71 0v54h163v1348h-163v54h163h55l934 -1353l6 2v1297h-163v54h217h163v-54h-163v-1402h-54l-934 1356l-6 -2v-1300h163v-54h-381z" />
    <glyph glyph-name="O" unicode="O" horiz-adv-x="1488" 
d="M740 -21q-136 0 -248 52.5t-193 150t-125 233.5t-44 304v18q0 168 43.5 304t124.5 233.5t192.5 150t247.5 52.5q135 0 247 -52.5t193.5 -150t125.5 -233.5t44 -304v-18q0 -168 -44 -304.5t-124.5 -233.5t-192.5 -149.5t-247 -52.5zM740 33q169 0 293.5 85t192.5 239.5
t68 361.5v20q0 206 -68.5 360t-193.5 239t-294 85q-168 0 -292 -85t-192.5 -239t-68.5 -360v-20q0 -207 68.5 -361.5t193 -239.5t293.5 -85z" />
    <glyph glyph-name="P" unicode="P" horiz-adv-x="1255" 
d="M71 0v54h163v1348h-163v54h163h405q151 0 256 -51.5t159.5 -145t54.5 -218.5q0 -127 -54.5 -220.5t-159.5 -144.5t-256 -51h-351v-571h163v-54h-380zM288 679h351q207 0 311.5 103t104.5 257q0 158 -104 260.5t-312 102.5h-351v-723z" />
    <glyph glyph-name="Q" unicode="Q" horiz-adv-x="1478" 
d="M1308 -206l-329 234q-55 -25 -115 -37t-124 -12q-136 0 -248 52.5t-193 150t-125 233.5t-44 304v18q0 168 43.5 304t124.5 233.5t192.5 150t247.5 52.5q135 0 247 -52.5t193.5 -150t125.5 -233.5t44 -304v-18q0 -232 -83.5 -404.5t-231.5 -258.5l310 -221zM740 33
q169 0 293.5 85t192.5 239.5t68 361.5v20q0 206 -68.5 360t-193.5 239t-294 85q-168 0 -292 -85t-192.5 -239t-68.5 -360v-20q0 -207 68.5 -361.5t193 -239.5t293.5 -85z" />
    <glyph glyph-name="R" unicode="R" horiz-adv-x="1364" 
d="M71 -1v54h163v1348h-163v54h585q154 0 260.5 -44.5t162 -131t55.5 -214.5q0 -122 -60.5 -207.5t-169 -130t-252.5 -44.5h-364v-630h163v-54h-380zM1067 -1l-305 719h54l287 -665h133v-54h-169zM288 737h363q221 0 325 94t104 234q0 163 -106.5 249.5t-317.5 86.5h-368
v-664z" />
    <glyph glyph-name="S" unicode="S" horiz-adv-x="1183" 
d="M589 -21q-117 0 -243.5 37t-245.5 117v257h54v-226q108 -68 219 -99.5t216 -31.5q128 0 227 40t155.5 111.5t56.5 164.5q0 92 -43.5 160t-141.5 121t-264 99t-264 98t-140.5 124t-42.5 178q0 104 56 182t157.5 122t236.5 44q141 0 254.5 -42t198.5 -113v-234h-54v204
q-78 65 -180 98t-219 33q-127 0 -215.5 -40.5t-134.5 -107t-46 -144.5q0 -82 33 -144.5t121 -111.5t254 -94q242 -65 365.5 -161.5t123.5 -268.5q0 -115 -64.5 -198.5t-176 -128.5t-253.5 -45z" />
    <glyph glyph-name="T" unicode="T" horiz-adv-x="1277" 
d="M447 0v54h163v1348h-476v-239h-54v293h1114v-293h-54v239h-476v-1348h163v-54h-380z" />
    <glyph glyph-name="U" unicode="U" horiz-adv-x="1441" 
d="M721 -21q-149 0 -261 56.5t-174.5 166t-62.5 267.5v933h-163v54h380v-54h-163v-933q0 -137 56.5 -234.5t156.5 -149.5t231 -52q130 0 230 52t156.5 149.5t56.5 234.5v933h-163v54h380v-54h-163v-933q0 -159 -63 -268t-175 -165.5t-259 -56.5z" />
    <glyph glyph-name="V" unicode="V" horiz-adv-x="1434" 
d="M686 0l-524 1402h-107v54h319v-54h-153l469 -1260l26 -79h6l26 79l469 1260h-153v54h319v-54h-107l-524 -1402h-66z" />
    <glyph glyph-name="W" unicode="W" horiz-adv-x="2000" 
d="M517 0l-359 1402h-101v54h320v-54h-160l269 -1072l63 -229h6l63 229l364 1126h60l362 -1126l62 -229h6l65 229l266 1072h-159v54h319v-54h-101l-358 -1402h-61l-381 1214l-48 145h-6l-46 -145l-384 -1214h-61z" />
    <glyph glyph-name="X" unicode="X" horiz-adv-x="1384" 
d="M57 0v54h115l486 689l-466 659h-115v54h348v-54h-166l432 -617l433 617h-165v54h347v-54h-115l-465 -659l486 -689h115v-54h-347v54h165l-454 647l-453 -647h165v-54h-346z" />
    <glyph glyph-name="Y" unicode="Y" horiz-adv-x="1429" 
d="M526 0v54h163v499l-515 849h-119v54h326v-54h-141l449 -755l26 -50l1 2l26 48l451 755h-141v54h326v-54h-120l-514 -849v-499h163v-54h-381z" />
    <glyph glyph-name="Z" unicode="Z" horiz-adv-x="1220" 
d="M92 0v44l929 1359h-835v-240h-54v293h964v-38l-930 -1364h908v239h54v-293h-1036z" />
    <glyph glyph-name="bracketleft" unicode="[" horiz-adv-x="527" 
d="M157 -312v1976h283v-54h-229v-1868h229v-54h-283z" />
    <glyph glyph-name="backslash" unicode="\" horiz-adv-x="784" 
d="M644 -125l-608 1581h58l608 -1581h-58z" />
    <glyph glyph-name="bracketright" unicode="]" horiz-adv-x="505" 
d="M23 -312v54h228v1868h-228v54h283v-1976h-283z" />
    <glyph glyph-name="asciicircum" unicode="^" horiz-adv-x="828" 
d="M71 729l299 727h52l299 -727h-61l-222 543l-40 114h-6l-43 -114l-219 -543h-59z" />
    <glyph glyph-name="underscore" unicode="_" horiz-adv-x="1134" 
d="M119 -54v54h846v-54h-846z" />
    <glyph glyph-name="grave" unicode="`" horiz-adv-x="326" 
d="M286 1329l-2 -5h-45l-199 231l2 5h64z" />
    <glyph glyph-name="a" unicode="a" horiz-adv-x="1116" 
d="M417 -21q-142 0 -227.5 81.5t-85.5 213.5q0 97 58.5 171.5t165 116.5t250.5 42h249v138q0 135 -78 221t-245 86q-88 0 -161 -33t-124 -80v-177h-54v206q67 62 149.5 99.5t190.5 37.5q187 0 281.5 -97.5t94.5 -264.5v-522q0 -42 3.5 -83t11.5 -81h150v-54h-197
q-13 71 -17.5 108.5t-4.5 90.5q-61 -98 -167.5 -159t-242.5 -61zM417 32q123 0 238 69t172 191v257h-246q-191 0 -307 -77.5t-116 -201.5q0 -101 73 -169.5t186 -68.5z" />
    <glyph glyph-name="b" unicode="b" horiz-adv-x="1088" 
d="M578 -21q-129 0 -223.5 52.5t-147.5 141.5l-7 -173h-45v1506h-163v54h217v-675q54 101 146 159t221 58q127 0 218.5 -68.5t140.5 -194.5t49 -297v-21q0 -167 -48.5 -288.5t-139.5 -187.5t-218 -66zM579 33q171 0 260 132t89 356v21q0 150 -40 264t-118.5 178t-192.5 64
q-158 0 -244.5 -80.5t-123.5 -197.5v-496q39 -110 132.5 -175.5t237.5 -65.5z" />
    <glyph glyph-name="c" unicode="c" horiz-adv-x="1082" 
d="M540 -21q-124 0 -223 68t-156 189.5t-57 283.5v42q0 162 55.5 283.5t153.5 189t225 67.5q122 0 219.5 -51.5t162.5 -125.5v-232h-54v212q-64 68 -145 105.5t-182 37.5q-114 0 -200 -62t-133.5 -171.5t-47.5 -252.5v-42q0 -144 48 -254t134.5 -171.5t202.5 -61.5
q139 0 233.5 71t112.5 219h46l2 -6q-12 -111 -65 -186.5t-137.5 -113.5t-194.5 -38z" />
    <glyph glyph-name="d" unicode="d" horiz-adv-x="1205" 
d="M510 -21q-127 0 -218 66t-139.5 187.5t-48.5 288.5v21q0 171 48.5 297t140 194.5t219.5 68.5t220 -58.5t147 -160.5v623h-163v54h163h54v-1506h163v-54h-215l-2 173q-53 -89 -147 -141.5t-222 -52.5zM509 33q141 0 234.5 64t135.5 171v507q-39 116 -126 194.5t-242 78.5
q-115 0 -193 -64t-118 -178t-40 -264v-21q0 -224 88.5 -356t260.5 -132z" />
    <glyph glyph-name="e" unicode="e" horiz-adv-x="1084" 
d="M564 -21q-130 0 -232 66.5t-161 184t-59 270.5v64q0 155 57 276.5t156.5 191.5t225.5 70q122 0 213.5 -54.5t142 -153.5t50.5 -234v-83h-791v-77q0 -134 51 -239.5t141 -166.5t206 -61q103 0 182.5 35.5t141.5 96.5l29 -42q-67 -64 -152 -104t-201 -40zM177 631h726v33
q0 110 -43.5 197t-122.5 137t-186 50q-102 0 -184 -54t-133 -147t-60 -210z" />
    <glyph glyph-name="f" unicode="f" horiz-adv-x="722" 
d="M114 0v54h163v973h-188v55h188v178q0 153 74.5 237t208.5 84q33 0 65.5 -4t62.5 -13l-8 -52q-32 8 -56.5 11.5t-62.5 3.5q-108 0 -169 -71t-61 -196v-178h286v-55h-286v-973h163v-54h-380z" />
    <glyph glyph-name="g" unicode="g" horiz-adv-x="1155" 
d="M524 -437q-79 0 -164.5 16.5t-149.5 45.5l16 54q73 -32 141 -47.5t155 -15.5q173 0 264.5 106.5t91.5 291.5v157q-54 -88 -147.5 -140t-220.5 -52t-218 66t-139.5 188t-48.5 288v21q0 172 48.5 297.5t140 194t219.5 68.5t220.5 -59t146.5 -161l8 200h46v-1068
q0 -138 -49.5 -239.5t-141 -156.5t-218.5 -55zM509 33q144 0 236.5 66t132.5 177v491q-38 119 -123.5 200t-243.5 81q-114 0 -192.5 -64t-119 -178t-40.5 -264v-21q0 -224 89 -356t261 -132zM913 1028l-7 54h170v-54h-163z" />
    <glyph glyph-name="h" unicode="h" horiz-adv-x="1278" 
d="M62 0v54h163v1452h-163v54h217v-706q50 118 147 183t237 65q169 0 256.5 -107t87.5 -337v-604h163v-54h-381v54h163v606q0 213 -78.5 300.5t-209.5 87.5q-175 0 -268 -104.5t-117 -267.5v-622h163v-54h-380z" />
    <glyph glyph-name="i" unicode="i" horiz-adv-x="609" 
d="M234 1420v140h72v-140h-72zM89 0v54h163v974h-163v54h217v-1028h163v-54h-380z" />
    <glyph glyph-name="j" unicode="j" horiz-adv-x="563" 
d="M315 1420v140h72v-140h-72zM108 -437q-30 0 -56 5t-56 15l13 52q18 -6 45.5 -12t53.5 -6q110 0 170.5 76.5t60.5 217.5v1117h-163v54h217v-1171q0 -167 -75 -257.5t-210 -90.5z" />
    <glyph glyph-name="k" unicode="k" horiz-adv-x="1154" 
d="M62 0v54h163v1452h-163v54h217v-1506h163v-54h-380zM761 0v54h126l2 5l-399 555l38 35l436 -595h117v-54h-320zM269 346l-18 54l587 622l-2 6h-119v54h321v-54h-122z" />
    <glyph glyph-name="l" unicode="l" horiz-adv-x="581" 
d="M82 0v54h163v1452h-163v54h217v-1506h163v-54h-380z" />
    <glyph glyph-name="m" unicode="m" horiz-adv-x="1980" 
d="M89 0v54h163v974h-163v54h210l7 -223q49 115 141 179t224 64q140 0 227.5 -71.5t120.5 -220.5q43 138 140.5 215.5t243.5 77.5q179 0 272 -117t93 -368v-563h163v-54h-381v54h163v565q0 235 -84 332t-224 97q-172 0 -260 -103.5t-108 -263.5v-628h163v-54h-381v54h163
v565q0 236 -84 332.5t-225 96.5q-168 0 -255 -98.5t-111 -255.5v-640h163v-54h-381z" />
    <glyph glyph-name="n" unicode="n" horiz-adv-x="1320" 
d="M89 0v54h163v974h-163v54h209l7 -223q49 116 143 179.5t232 63.5q177 0 265.5 -111.5t88.5 -353.5v-583h163v-54h-380v54h163v585q0 225 -80.5 317t-218.5 92q-175 0 -264 -104.5t-111 -267.5v-622h163v-54h-380z" />
    <glyph glyph-name="o" unicode="o" horiz-adv-x="1155" 
d="M579 -21q-141 0 -248 69t-167 191t-60 281v42q0 159 60 280.5t166.5 190.5t246.5 69q141 0 247.5 -69t166.5 -190.5t60 -280.5v-42q0 -159 -60 -281t-166.5 -191t-245.5 -69zM579 33q127 0 221 65.5t145.5 176t51.5 245.5v42q0 133 -52 243.5t-146.5 176.5t-221.5 66
t-221.5 -66t-146 -176.5t-51.5 -243.5v-42q0 -136 51.5 -246.5t146 -175.5t223.5 -65z" />
    <glyph glyph-name="p" unicode="p" horiz-adv-x="1161" 
d="M65 -416v54h163v1390h-163v54h205l11 -194q54 100 147 157t221 57q127 0 218.5 -68.5t140.5 -194.5t49 -297v-21q0 -167 -48.5 -288.5t-139.5 -187.5t-218 -66t-221.5 51t-147.5 138v-530h163v-54h-380zM652 33q171 0 260.5 132t89.5 356v21q0 150 -40.5 264t-119 178
t-192.5 64q-157 0 -244 -79t-124 -194v-506q40 -108 134 -172t236 -64z" />
    <glyph glyph-name="q" unicode="q" horiz-adv-x="1136" 
d="M716 -416v54h163v532q-54 -88 -148 -139.5t-221 -51.5t-218 66t-139.5 187.5t-48.5 288.5v21q0 171 48.5 297t140 194.5t219.5 68.5q127 0 219.5 -57.5t147.5 -158.5l5 196h49v-1444h163v-54h-380zM509 33q143 0 236.5 65.5t133.5 175.5v494q-38 115 -126 197.5
t-242 82.5q-115 0 -193 -64t-118 -178t-40 -264v-21q0 -224 88.5 -356t260.5 -132z" />
    <glyph glyph-name="r" unicode="r" horiz-adv-x="823" 
d="M89 0v54h163v974h-163v54h207l10 -188v-37q45 116 134 180.5t219 64.5q23 0 52.5 -4t43.5 -8l-6 -48l-90 7q-145 0 -235.5 -93.5t-117.5 -246.5v-655h163v-54h-380z" />
    <glyph glyph-name="s" unicode="s" horiz-adv-x="1009" 
d="M487 -21q-118 0 -217.5 38t-166.5 105v193h54v-163q59 -63 146 -91t184 -28q150 0 238 70t88 162q0 86 -73.5 156.5t-256.5 110.5q-191 40 -272.5 105t-81.5 189q0 78 42 140.5t120.5 99t186.5 36.5q116 0 204.5 -40t149.5 -107v-202h-54v175q-52 58 -123 89t-177 31
q-147 0 -221 -68t-74 -152q0 -58 24.5 -102t92.5 -78.5t199 -63.5q182 -40 275 -115t93 -205q0 -127 -104 -206t-276 -79z" />
    <glyph glyph-name="t" unicode="t" horiz-adv-x="719" 
d="M487 -21q-109 0 -165.5 71t-56.5 229v748h-200v55h200v292h55v-292h266v-55h-266v-748q0 -133 45 -189.5t119 -56.5q32 0 57 2t69 7l10 -49q-30 -8 -61.5 -11t-71.5 -3z" />
    <glyph glyph-name="u" unicode="u" horiz-adv-x="1202" 
d="M533 -21q-164 0 -255 118.5t-91 367.5v563h-143v54h143h54v-619q0 -220 77.5 -325t212.5 -105q169 0 254.5 83t110.5 220v692h-163v54h163h55v-1028h163v-54h-208l-8 194q-51 -103 -140.5 -159t-224.5 -56z" />
    <glyph glyph-name="v" unicode="v" horiz-adv-x="1165" 
d="M569 0l-399 1028h-118v54h318v-54h-142l313 -799l51 -146h6l52 146l312 799h-142v54h318v-54h-118l-399 -1028h-52z" />
    <glyph glyph-name="w" unicode="w" horiz-adv-x="1787" 
d="M492 0l-318 1028h-122v54h332v-54h-148l217 -715l65 -221l6 -1l70 222l257 769h55l264 -769l75 -223l6 1l67 222l216 715h-148v54h333v-54h-123l-319 -1028h-55l-282 813l-59 181h-6l-55 -181l-273 -813h-55z" />
    <glyph glyph-name="x" unicode="x" horiz-adv-x="1192" 
d="M82 0v54h126l361 501l-341 473h-126v54h318v-54h-124l307 -426l306 426h-124v54h318v-54h-126l-341 -473l361 -501h126v-54h-317v54h124l-328 454l-327 -454h124v-54h-317z" />
    <glyph glyph-name="y" unicode="y" horiz-adv-x="1185" 
d="M283 -437q-19 0 -42 3.5t-34 7.5l9 51q11 -3 33 -6t34 -3q92 0 143.5 54t91.5 160l65 176l-410 1022h-118v54h319v-54h-142l335 -832l40 -108h6l359 940h-142v54h320v-54h-118l-460 -1208q-29 -76 -63.5 -134t-87.5 -90.5t-138 -32.5z" />
    <glyph glyph-name="z" unicode="z" horiz-adv-x="1077" 
d="M120 0v44l711 983h-656v-238h-54v293h783v-48l-711 -980h716v239h54v-293h-843z" />
    <glyph glyph-name="braceleft" unicode="{" horiz-adv-x="693" 
d="M632 -441q-173 55 -246 173t-73 288v245q0 132 -61 205t-189 73v66q128 0 189 72t61 204v247q0 171 73 290.5t246 174.5l15 -45q-143 -46 -211.5 -155.5t-68.5 -264.5v-247q0 -120 -52 -202t-159 -107q107 -26 159 -109t52 -202v-245q0 -154 70.5 -260t214.5 -155z" />
    <glyph glyph-name="bar" unicode="|" horiz-adv-x="405" 
d="M150 -270v1726h54v-1726h-54z" />
    <glyph glyph-name="braceright" unicode="}" horiz-adv-x="692" 
d="M46 -441l-19 46q143 49 213.5 155t70.5 260v245q0 119 51.5 202t159.5 109q-108 25 -159.5 107t-51.5 202v247q0 155 -68.5 264.5t-210.5 155.5l14 45q172 -55 245.5 -174.5t73.5 -290.5v-247q0 -132 61 -204t189 -72v-66q-128 0 -189 -73.5t-61 -204.5v-245
q0 -171 -73 -288.5t-246 -172.5z" />
    <glyph glyph-name="asciitilde" unicode="~" horiz-adv-x="1368" 
d="M952 443q-87 0 -158.5 38t-162.5 121q-68 59 -127.5 88.5t-120.5 29.5q-89 0 -146 -68t-57 -190l-59 12q0 85 33.5 153t92.5 107.5t136 39.5q86 0 158.5 -39.5t164.5 -120.5q67 -62 125 -90t121 -28q86 0 144.5 70.5t58.5 186.5l61 -13q0 -81 -34.5 -148.5t-94.5 -108
t-135 -40.5z" />
    <glyph glyph-name="uni007F" 
 />
    <glyph glyph-name="uni00A0" unicode="&#xa0;" 
 />
    <glyph glyph-name="exclamdown" unicode="&#xa1;" horiz-adv-x="437" 
d="M219 604v-978h54v978h-54zM199 1082v-134h95v134h-95z" />
    <glyph glyph-name="cent" unicode="&#xa2;" horiz-adv-x="1063" 
d="M576 -245v224q-137 2 -234 70t-149 189t-52 282v42q0 160 52 281t149.5 189t233.5 70v216h55v-218q106 -10 196 -59.5t147 -125.5v-232h-54v212q-57 70 -143.5 111.5t-195.5 41.5q-127 0 -213 -62t-129.5 -171.5t-43.5 -252.5v-42q0 -144 43.5 -254t130 -171.5
t214.5 -61.5q91 0 170.5 33.5t128 100t48.5 166.5h46l2 -6q3 -97 -44 -171t-126.5 -119t-176.5 -55v-227h-55z" />
    <glyph glyph-name="sterling" unicode="&#xa3;" horiz-adv-x="1151" 
d="M132 0v54h10q59 11 98.5 75t59 155t19.5 182l-8 201h-243v54h241l-11 319q0 204 101 320.5t270 116.5q175 0 256 -102t78 -280l-2 -5h-47q0 176 -73.5 254.5t-211.5 78.5q-147 0 -232 -100t-85 -283l11 -319h478v-54h-476l8 -201q0 -125 -36 -235.5t-102 -176.5h755v239
h54v-293h-912z" />
    <glyph glyph-name="currency" unicode="&#xa4;" horiz-adv-x="1461" 
d="M1319 -27l-180 183q-82 -84 -188.5 -130t-225.5 -46q-120 0 -226.5 45.5t-188.5 128.5l-176 -180l-40 39l179 182q-69 84 -106.5 189.5t-37.5 223.5q0 122 40 230.5t114 193.5l-189 193l40 39l188 -192q80 77 183.5 119.5t219.5 42.5q114 0 217.5 -43t185.5 -121l191 195
l41 -40l-193 -196q72 -85 112 -193t40 -228q0 -117 -37 -221.5t-104 -187.5l182 -186zM725 33q111 0 208.5 44.5t172 124t117 183.5t42.5 223t-42.5 222.5t-117 182.5t-172 123.5t-208.5 44.5t-209 -44.5t-173 -123.5t-117 -182.5t-42 -222.5t42 -223t117 -183.5t173 -124
t209 -44.5z" />
    <glyph glyph-name="yen" unicode="&#xa5;" horiz-adv-x="1381" 
d="M499 0v54h163v272h-450v55h450v240h-450v55h421l-453 726h-121v54h315v-54h-129l418 -664l24 -51h5l24 51l417 664h-129v54h316v-54h-121l-455 -726h424v-55h-452v-240h452v-55h-452v-272h163v-54h-380z" />
    <glyph glyph-name="brokenbar" unicode="&#xa6;" horiz-adv-x="432" 
d="M150 -270v752h54v-752h-54zM150 698v758h54v-758h-54z" />
    <glyph glyph-name="section" unicode="&#xa7;" horiz-adv-x="1197" 
d="M569 -495q-137 0 -246.5 45t-172.5 139.5t-60 241.5l2 5l46 2q0 -133 58.5 -216.5t156.5 -123t216 -39.5q185 0 290 80.5t105 209.5q0 80 -34 136t-118.5 98.5t-235.5 82.5q-163 39 -271 88t-161.5 120.5t-53.5 176.5q0 108 76 179t211 92q-122 48 -182 120.5t-60 187.5
q0 105 56 183t157.5 121t238.5 43q214 0 333 -111.5t115 -313.5l-2 -6h-46q0 108 -48 193.5t-137.5 134.5t-214.5 49q-197 0 -297.5 -81.5t-100.5 -208.5q0 -84 33 -140.5t119 -100t244 -88.5q168 -43 273.5 -89t155 -113t49.5 -171q0 -105 -82 -176t-222 -91
q131 -50 195.5 -122t64.5 -191q0 -161 -122 -253.5t-328 -92.5zM662 196q161 1 254 67t93 165q0 82 -40.5 139.5t-138.5 104t-271 94.5q-30 6 -57 13.5t-51 16.5q-152 -7 -229.5 -74t-77.5 -169q0 -87 36.5 -142.5t133.5 -100t279 -95.5q17 -4 34.5 -9t34.5 -10z" />
    <glyph glyph-name="dieresis" unicode="&#xa8;" horiz-adv-x="472" 
d="M360 1422v138h72v-138h-72zM40 1422v138h73v-138h-73z" />
    <glyph glyph-name="copyright" unicode="&#xa9;" horiz-adv-x="1596" 
d="M802 -21q-147 0 -276 57.5t-226.5 159.5t-152.5 238.5t-55 294.5t55 293.5t152 237.5t226 159t277 57q147 0 276 -57t226.5 -159t152.5 -237.5t55 -293.5t-55 -294.5t-152.5 -238.5t-226.5 -159.5t-276 -57.5zM802 34q135 0 253 53.5t208.5 149t141.5 221.5t51 271
q0 144 -51 270t-141 220.5t-208.5 148t-253.5 53.5t-254 -53.5t-208.5 -148t-140.5 -220.5t-51 -270q0 -145 51 -271t140.5 -221.5t208.5 -149t254 -53.5zM795 282q-144 0 -232 107t-88 280v119q0 172 88.5 279.5t231.5 107.5q139 0 218 -79.5t76 -227.5l-3 -6h-44
q0 129 -64 194.5t-183 65.5q-123 0 -194 -95t-71 -238v-120q0 -145 70.5 -238.5t194.5 -93.5q120 0 183 63.5t63 195.5h44l3 -6q3 -150 -75.5 -229t-217.5 -79z" />
    <glyph glyph-name="ordfeminine" unicode="&#xaa;" horiz-adv-x="860" 
d="M355 692q-119 0 -184 61t-65 167q0 101 74 157t215 56h220v69q0 105 -51 163t-148 58q-114 0 -175.5 -47t-61.5 -138l-46 5l-2 6q-5 98 74.5 163t210.5 65q115 0 184.5 -71.5t69.5 -204.5v-314q0 -48 6 -92.5t20 -88.5h-58q-10 28 -15.5 58.5t-6.5 61.5
q-40 -58 -106.5 -96t-154.5 -38zM356 747q58 0 112.5 22t94 57t52.5 74v177h-219q-113 0 -174.5 -44t-61.5 -109q0 -84 48 -130.5t148 -46.5z" />
    <glyph glyph-name="guillemotleft" unicode="&#xab;" horiz-adv-x="905" 
d="M400 146l-295 370v19l295 370h70l-294 -380l294 -379h-70zM687 146l-295 370v19l295 370h70l-294 -380l294 -379h-70z" />
    <glyph glyph-name="logicalnot" unicode="&#xac;" horiz-adv-x="1104" 
d="M860 396v304h-739v53h793v-357h-54z" />
    <glyph glyph-name="uni00AD" unicode="&#xad;" horiz-adv-x="789" 
d="M154 599v54h470v-54h-470z" />
    <glyph glyph-name="registered" unicode="&#xae;" horiz-adv-x="1595" 
d="M802 -21q-148 0 -277 57.5t-226 159.5t-152 238.5t-55 294.5t55 293.5t152 237.5t226 159t277 57q147 0 276 -57t226.5 -159t152.5 -237.5t55 -293.5t-55 -294.5t-152.5 -238.5t-226.5 -159.5t-276 -57.5zM802 34q135 0 253 53.5t208.5 149t141.5 221.5t51 271
q0 144 -51 270t-141 220.5t-208.5 148t-253.5 53.5t-254 -53.5t-209 -148t-141 -220.5t-51 -270q0 -145 51 -271t141 -221.5t209 -149t254 -53.5zM570 316v850h239q143 0 216 -61t73 -179q0 -73 -40 -125t-113 -81q70 -22 101 -75.5t31 -129.5v-56q0 -38 4 -71.5t13 -55.5
v-16h-59q-10 21 -12 61.5t-2 82.5v54q0 94 -42 134t-142 40h-212v-372h-55zM625 744h205q91 0 152 48t61 135q0 96 -52.5 140t-181.5 44h-184v-367z" />
    <glyph glyph-name="macron" unicode="&#xaf;" horiz-adv-x="707" 
d="M40 1420v53h627v-53h-627z" />
    <glyph glyph-name="degree" unicode="&#xb0;" horiz-adv-x="739" 
d="M360 1000q-65 0 -118.5 31.5t-85.5 85t-32 120.5q0 65 32 119.5t85.5 87.5t118.5 33q63 0 116 -33t84.5 -87.5t31.5 -119.5q0 -67 -31.5 -120.5t-84.5 -85t-116 -31.5zM360 1056q76 0 126 51t50 131q0 79 -50 131.5t-126 52.5q-78 0 -129.5 -53t-51.5 -132t51.5 -130
t129.5 -51z" />
    <glyph glyph-name="plusminus" unicode="&#xb1;" horiz-adv-x="1104" 
d="M536 289v462h-443v54h443v462h54v-462h419v-54h-419v-462h-54zM133 88v54h835v-54h-835z" />
    <glyph glyph-name="uni00B2" unicode="&#xb2;" horiz-adv-x="807" 
d="M657 667v55h-475l-2 6l265 235q61 59 103.5 107.5t64.5 92.5t22 91q0 110 -66.5 167.5t-181.5 57.5q-83 0 -144 -31.5t-93.5 -84t-29.5 -115.5l3 -6h48q0 80 56 131t160 51q96 0 144 -45.5t48 -123.5q0 -51 -31.5 -102t-114.5 -131l-327 -300v-55h551z" />
    <glyph glyph-name="uni00B3" unicode="&#xb3;" horiz-adv-x="831" 
d="M376 1103h-114v-56h114q110 0 165.5 -40t55.5 -126q0 -80 -58 -125.5t-164 -45.5q-101 0 -163.5 50t-62.5 128h-48l-2 -6q-3 -73 34 -124t101 -77t141 -26q123 0 200.5 60.5t77.5 167.5q0 150 -151 193q65 24 101 72t36 109q0 106 -71 163.5t-193 57.5q-114 0 -191 -60
t-71 -154l2 -6h46q0 74 61 119.5t153 45.5q104 0 156.5 -45t52.5 -118q0 -157 -208 -157z" />
    <glyph glyph-name="acute" unicode="&#xb4;" horiz-adv-x="326" 
d="M40 1329l180 231h64l2 -5l-199 -231h-45z" />
    <glyph glyph-name="uni00B5" unicode="&#xb5;" horiz-adv-x="1282" 
d="M229 -416v1444h-163v54h163h52v-642q0 -223 85 -315t221 -92q184 0 268 93t102 263v639h-163v54h217v-1028h163v-54h-204l-11 205q-48 -109 -138 -167.5t-225 -58.5q-103 0 -185.5 45t-129.5 147v-587h-52z" />
    <glyph glyph-name="paragraph" unicode="&#xb6;" horiz-adv-x="1044" 
d="M532 0v54h163v466h-125q-156 0 -266 59t-168 164.5t-58 244.5q0 138 58.5 243.5t168.5 165t265 59.5h342v-54h-163v-1348h163v-54h-380z" />
    <glyph glyph-name="periodcentered" unicode="&#xb7;" horiz-adv-x="480" 
d="M176 636v130h86v-130h-86z" />
    <glyph glyph-name="cedilla" unicode="&#xb8;" horiz-adv-x="470" 
d="M47 -435l-7 49q104 0 180.5 36t76.5 105q0 64 -45.5 89t-163.5 35l25 121h53l-11 -76q91 -7 144 -45.5t53 -123.5q0 -87 -79 -138.5t-226 -51.5z" />
    <glyph glyph-name="uni00B9" unicode="&#xb9;" horiz-adv-x="471" 
d="M308 665v812l-220 -23v-56l166 14v-747h54z" />
    <glyph glyph-name="ordmasculine" unicode="&#xba;" horiz-adv-x="904" 
d="M427 691q-141 0 -223.5 92.5t-82.5 241.5v117q0 148 82 241.5t222 93.5t222.5 -93.5t82.5 -241.5v-117q0 -149 -82 -241.5t-221 -92.5zM427 745q120 0 185 78.5t65 201.5v117q0 122 -65 201.5t-187 79.5q-121 0 -185.5 -79.5t-64.5 -201.5v-117q0 -125 63 -202.5
t189 -77.5z" />
    <glyph glyph-name="guillemotright" unicode="&#xbb;" horiz-adv-x="897" 
d="M105 171l293 379l-293 390h70l294 -380v-19l-294 -370h-70zM395 171l293 379l-293 390h70l294 -380v-19l-294 -370h-70z" />
    <glyph glyph-name="onequarter" unicode="&#xbc;" horiz-adv-x="1533" 
d="M1190 0v186h-442v36l435 579h62v-560h176v-55h-176v-186h-55zM831 241h359v481l-6 2l-36 -60zM316 664v747l-166 -14v56l220 23v-812h-54zM338 139l-45 31l711 1138l45 -31z" />
    <glyph glyph-name="onehalf" unicode="&#xbd;" horiz-adv-x="1447" 
d="M887 0v55l327 300q83 80 114.5 131t31.5 102q0 78 -48 123.5t-144 45.5q-104 0 -160 -51t-56 -131h-48l-3 6q-3 63 29.5 115.5t93.5 84t144 31.5q115 0 181.5 -57.5t66.5 -167.5q0 -47 -22 -91t-64.5 -92.5t-103.5 -107.5l-265 -235l2 -6h475v-55h-551zM316 664v747
l-166 -14v56l220 23v-812h-54zM350 139l-45 31l711 1138l45 -31z" />
    <glyph glyph-name="threequarters" unicode="&#xbe;" horiz-adv-x="1653" 
d="M1415 0v186h-442v36l435 579h62v-560h176v-55h-176v-186h-55zM1056 241h359v481l-6 2l-36 -60zM407 656q-77 0 -141 26t-101 77t-34 124l2 6h48q0 -78 62.5 -128t163.5 -50q106 0 164 45.5t58 125.5q0 86 -55.5 126t-165.5 40h-114v56h114q208 0 208 157q0 73 -52.5 118
t-156.5 45q-92 0 -153 -45.5t-61 -119.5h-46l-2 6q-6 94 71 154t191 60q122 0 193 -57.5t71 -163.5q0 -61 -36 -109t-101 -72q151 -43 151 -193q0 -107 -77.5 -167.5t-200.5 -60.5zM565 139l-45 31l711 1138l45 -31z" />
    <glyph glyph-name="questiondown" unicode="&#xbf;" horiz-adv-x="839" 
d="M464 683q0 -59 -4 -97.5t-16.5 -68t-37.5 -58.5t-67 -68q-81 -77 -131 -136.5t-73 -124.5t-23 -159q0 -146 78 -229t221 -83q142 0 220 84.5t81 223.5h46l3 -6q1 -113 -43.5 -192.5t-124 -121t-182.5 -41.5q-164 0 -258.5 101t-94.5 266q0 94 27.5 169.5t83.5 144.5
t142 146q43 38 64.5 70t28 72.5t6.5 107.5h54zM468 1083v-106h-82v106h82z" />
    <glyph glyph-name="Agrave" unicode="&#xc0;" horiz-adv-x="1472" 
d="M779 1592l-2 -5h-45l-199 231l2 5h64zM55 0v54h107l524 1402h66l525 -1402h107v-54h-309v54h143l-143 381h-712l-142 -381h143v-54h-309zM383 489h672l-305 820l-28 82h-6l-27 -82z" />
    <glyph glyph-name="Aacute" unicode="&#xc1;" horiz-adv-x="1472" 
d="M659 1592l180 231h64l2 -5l-199 -231h-45zM55 0v54h107l524 1402h66l525 -1402h107v-54h-309v54h143l-143 381h-712l-142 -381h143v-54h-309zM383 489h672l-305 820l-28 82h-6l-27 -82z" />
    <glyph glyph-name="Acircumflex" unicode="&#xc2;" horiz-adv-x="1472" 
d="M467 1600v17l218 206h65l221 -210v-13h-60l-195 186l-190 -186h-59zM55 0v54h107l524 1402h66l525 -1402h107v-54h-309v54h143l-143 381h-712l-142 -381h143v-54h-309zM383 489h672l-305 820l-28 82h-6l-27 -82z" />
    <glyph glyph-name="Atilde" unicode="&#xc3;" horiz-adv-x="1472" 
d="M452 1635h-53q0 55 22.5 95.5t60 63.5t82.5 23q58 0 112.5 -31t104.5 -62.5t94 -31.5q41 0 75.5 34.5t34.5 96.5h53q0 -54 -22 -96t-58 -65.5t-80 -23.5q-57 0 -111.5 31.5t-105.5 63t-98 31.5q-43 0 -77 -33t-34 -96zM55 0v54h107l524 1402h66l525 -1402h107v-54h-309
v54h143l-143 381h-712l-142 -381h143v-54h-309zM383 489h672l-305 820l-28 82h-6l-27 -82z" />
    <glyph glyph-name="Adieresis" unicode="&#xc4;" horiz-adv-x="1472" 
d="M842 1685v138h72v-138h-72zM522 1685v138h73v-138h-73zM55 0v54h107l524 1402h66l525 -1402h107v-54h-309v54h143l-143 381h-712l-142 -381h143v-54h-309zM383 489h672l-305 820l-28 82h-6l-27 -82z" />
    <glyph glyph-name="Aring" unicode="&#xc5;" horiz-adv-x="1472" 
d="M719 1475q-72 0 -121.5 48.5t-49.5 121.5q0 74 49.5 124t121.5 50q71 0 121 -50t50 -124q0 -73 -50 -121.5t-121 -48.5zM719 1529q51 0 84 32t33 84q0 53 -33 86.5t-84 33.5t-84 -33.5t-33 -86.5q0 -52 33 -84t84 -32zM55 0v54h107l524 1402h66l525 -1402h107v-54h-309
v54h143l-143 381h-712l-142 -381h143v-54h-309zM383 489h672l-305 820l-28 82h-6l-27 -82z" />
    <glyph glyph-name="AE" unicode="&#xc6;" horiz-adv-x="2026" 
d="M51 0v54h119l849 1402h776v-293h-54v239h-642l26 -616h588v-54h-586l28 -678h647v239h54v-293h-915v54h160l-15 371h-628l-223 -371h131v-54h-315zM490 478h594l-39 924l-5 1l-57 -105z" />
    <glyph glyph-name="Ccedilla" unicode="&#xc7;" horiz-adv-x="1348" 
d="M629 -435l-7 49q104 0 180.5 36t76.5 105q0 64 -45.5 89t-163.5 35l25 121h53l-11 -76q91 -7 144 -45.5t53 -123.5q0 -87 -79 -138.5t-226 -51.5zM794 -21q-212 0 -360.5 93.5t-226 260t-77.5 386.5v18q0 220 80 386.5t223.5 260t333.5 93.5q158 0 259 -40t190 -118v-257
h-55v234q-54 41 -108.5 69t-122 43t-163.5 15q-172 0 -303.5 -86t-205.5 -240t-74 -358v-20q0 -204 72.5 -358.5t208.5 -241t326 -86.5q110 0 212 28t173 76v235h55v-269q-94 -63 -204 -93.5t-233 -30.5z" />
    <glyph glyph-name="Egrave" unicode="&#xc8;" horiz-adv-x="1270" 
d="M695 1592l-2 -5h-45l-199 231l2 5h64zM71 0v54h163v1348h-163v54h1019v-293h-54v239h-748v-616h630v-54h-630v-678h778v239h54v-293h-1049z" />
    <glyph glyph-name="Eacute" unicode="&#xc9;" horiz-adv-x="1270" 
d="M575 1592l180 231h64l2 -5l-199 -231h-45zM71 0v54h163v1348h-163v54h1019v-293h-54v239h-748v-616h630v-54h-630v-678h778v239h54v-293h-1049z" />
    <glyph glyph-name="Ecircumflex" unicode="&#xca;" horiz-adv-x="1270" 
d="M383 1600v17l218 206h65l221 -210v-13h-60l-195 186l-190 -186h-59zM71 0v54h163v1348h-163v54h1019v-293h-54v239h-748v-616h630v-54h-630v-678h778v239h54v-293h-1049z" />
    <glyph glyph-name="Edieresis" unicode="&#xcb;" horiz-adv-x="1270" 
d="M758 1685v138h72v-138h-72zM438 1685v138h73v-138h-73zM71 0v54h163v1348h-163v54h1019v-293h-54v239h-748v-616h630v-54h-630v-678h778v239h54v-293h-1049z" />
    <glyph glyph-name="Igrave" unicode="&#xcc;" horiz-adv-x="522" 
d="M321 1592l-2 -5h-45l-199 231l2 5h64zM71 0v54h163v1348h-163v54h380v-54h-163v-1348h163v-54h-380z" />
    <glyph glyph-name="Iacute" unicode="&#xcd;" horiz-adv-x="522" 
d="M201 1592l180 231h64l2 -5l-199 -231h-45zM71 0v54h163v1348h-163v54h380v-54h-163v-1348h163v-54h-380z" />
    <glyph glyph-name="Icircumflex" unicode="&#xce;" horiz-adv-x="522" 
d="M9 1600v17l218 206h65l221 -210v-13h-60l-195 186l-190 -186h-59zM71 0v54h163v1348h-163v54h380v-54h-163v-1348h163v-54h-380z" />
    <glyph glyph-name="Idieresis" unicode="&#xcf;" horiz-adv-x="522" 
d="M384 1685v138h72v-138h-72zM64 1685v138h73v-138h-73zM71 0v54h163v1348h-163v54h380v-54h-163v-1348h163v-54h-380z" />
    <glyph glyph-name="Eth" unicode="&#xd0;" horiz-adv-x="1386" 
d="M71 716v54h521v-54h-521zM71 0v54h163v1348h-163v54h163h395q179 0 318.5 -92.5t220 -254.5t80.5 -372v-18q0 -210 -80.5 -372t-220 -254.5t-318.5 -92.5h-558zM288 54h341q163 0 290.5 86.5t201 237t73.5 341.5v21q0 190 -73.5 339.5t-201 236t-290.5 86.5h-341v-1348z
" />
    <glyph glyph-name="Ntilde" unicode="&#xd1;" horiz-adv-x="1517" 
d="M492 1635h-53q0 55 22.5 95.5t60 63.5t82.5 23q58 0 112.5 -31t104.5 -62.5t94 -31.5q41 0 75.5 34.5t34.5 96.5h53q0 -54 -22 -96t-58 -65.5t-80 -23.5q-57 0 -111.5 31.5t-105.5 63t-98 31.5q-43 0 -77 -33t-34 -96zM71 0v54h163v1348h-163v54h163h55l934 -1353l6 2
v1297h-163v54h217h163v-54h-163v-1402h-54l-934 1356l-6 -2v-1300h163v-54h-381z" />
    <glyph glyph-name="Ograve" unicode="&#xd2;" horiz-adv-x="1488" 
d="M798 1592l-2 -5h-45l-199 231l2 5h64zM740 -21q-136 0 -248 52.5t-193 150t-125 233.5t-44 304v18q0 168 43.5 304t124.5 233.5t192.5 150t247.5 52.5q135 0 247 -52.5t193.5 -150t125.5 -233.5t44 -304v-18q0 -168 -44 -304.5t-124.5 -233.5t-192.5 -149.5t-247 -52.5z
M740 33q169 0 293.5 85t192.5 239.5t68 361.5v20q0 206 -68.5 360t-193.5 239t-294 85q-168 0 -292 -85t-192.5 -239t-68.5 -360v-20q0 -207 68.5 -361.5t193 -239.5t293.5 -85z" />
    <glyph glyph-name="Oacute" unicode="&#xd3;" horiz-adv-x="1488" 
d="M678 1592l180 231h64l2 -5l-199 -231h-45zM740 -21q-136 0 -248 52.5t-193 150t-125 233.5t-44 304v18q0 168 43.5 304t124.5 233.5t192.5 150t247.5 52.5q135 0 247 -52.5t193.5 -150t125.5 -233.5t44 -304v-18q0 -168 -44 -304.5t-124.5 -233.5t-192.5 -149.5
t-247 -52.5zM740 33q169 0 293.5 85t192.5 239.5t68 361.5v20q0 206 -68.5 360t-193.5 239t-294 85q-168 0 -292 -85t-192.5 -239t-68.5 -360v-20q0 -207 68.5 -361.5t193 -239.5t293.5 -85z" />
    <glyph glyph-name="Ocircumflex" unicode="&#xd4;" horiz-adv-x="1488" 
d="M486 1600v17l218 206h65l221 -210v-13h-60l-195 186l-190 -186h-59zM740 -21q-136 0 -248 52.5t-193 150t-125 233.5t-44 304v18q0 168 43.5 304t124.5 233.5t192.5 150t247.5 52.5q135 0 247 -52.5t193.5 -150t125.5 -233.5t44 -304v-18q0 -168 -44 -304.5
t-124.5 -233.5t-192.5 -149.5t-247 -52.5zM740 33q169 0 293.5 85t192.5 239.5t68 361.5v20q0 206 -68.5 360t-193.5 239t-294 85q-168 0 -292 -85t-192.5 -239t-68.5 -360v-20q0 -207 68.5 -361.5t193 -239.5t293.5 -85z" />
    <glyph glyph-name="Otilde" unicode="&#xd5;" horiz-adv-x="1488" 
d="M471 1635h-53q0 55 22.5 95.5t60 63.5t82.5 23q58 0 112.5 -31t104.5 -62.5t94 -31.5q41 0 75.5 34.5t34.5 96.5h53q0 -54 -22 -96t-58 -65.5t-80 -23.5q-57 0 -111.5 31.5t-105.5 63t-98 31.5q-43 0 -77 -33t-34 -96zM740 -21q-136 0 -248 52.5t-193 150t-125 233.5
t-44 304v18q0 168 43.5 304t124.5 233.5t192.5 150t247.5 52.5q135 0 247 -52.5t193.5 -150t125.5 -233.5t44 -304v-18q0 -168 -44 -304.5t-124.5 -233.5t-192.5 -149.5t-247 -52.5zM740 33q169 0 293.5 85t192.5 239.5t68 361.5v20q0 206 -68.5 360t-193.5 239t-294 85
q-168 0 -292 -85t-192.5 -239t-68.5 -360v-20q0 -207 68.5 -361.5t193 -239.5t293.5 -85z" />
    <glyph glyph-name="Odieresis" unicode="&#xd6;" horiz-adv-x="1488" 
d="M861 1685v138h72v-138h-72zM541 1685v138h73v-138h-73zM740 -21q-136 0 -248 52.5t-193 150t-125 233.5t-44 304v18q0 168 43.5 304t124.5 233.5t192.5 150t247.5 52.5q135 0 247 -52.5t193.5 -150t125.5 -233.5t44 -304v-18q0 -168 -44 -304.5t-124.5 -233.5
t-192.5 -149.5t-247 -52.5zM740 33q169 0 293.5 85t192.5 239.5t68 361.5v20q0 206 -68.5 360t-193.5 239t-294 85q-168 0 -292 -85t-192.5 -239t-68.5 -360v-20q0 -207 68.5 -361.5t193 -239.5t293.5 -85z" />
    <glyph glyph-name="multiply" unicode="&#xd7;" horiz-adv-x="1044" 
d="M118 252l-39 37l384 393l-357 364l39 39l356 -364l357 364l39 -39l-357 -364l385 -393l-39 -37l-384 391z" />
    <glyph glyph-name="Oslash" unicode="&#xd8;" horiz-adv-x="1488" 
d="M212 -57l997 1570h66l-997 -1570h-66zM740 -21q-136 0 -248 52.5t-193 150t-125 233.5t-44 304v18q0 168 43.5 304t124.5 233.5t192.5 150t247.5 52.5q135 0 247 -52.5t193.5 -150t125.5 -233.5t44 -304v-18q0 -168 -44 -304.5t-124.5 -233.5t-192.5 -149.5t-247 -52.5z
M740 33q169 0 293.5 85t192.5 239.5t68 361.5v20q0 206 -68.5 360t-193.5 239t-294 85q-168 0 -292 -85t-192.5 -239t-68.5 -360v-20q0 -207 68.5 -361.5t193 -239.5t293.5 -85z" />
    <glyph glyph-name="Ugrave" unicode="&#xd9;" horiz-adv-x="1441" 
d="M781 1592l-2 -5h-45l-199 231l2 5h64zM721 -21q-149 0 -261 56.5t-174.5 166t-62.5 267.5v933h-163v54h380v-54h-163v-933q0 -137 56.5 -234.5t156.5 -149.5t231 -52q130 0 230 52t156.5 149.5t56.5 234.5v933h-163v54h380v-54h-163v-933q0 -159 -63 -268t-175 -165.5
t-259 -56.5z" />
    <glyph glyph-name="Uacute" unicode="&#xda;" horiz-adv-x="1441" 
d="M661 1592l180 231h64l2 -5l-199 -231h-45zM721 -21q-149 0 -261 56.5t-174.5 166t-62.5 267.5v933h-163v54h380v-54h-163v-933q0 -137 56.5 -234.5t156.5 -149.5t231 -52q130 0 230 52t156.5 149.5t56.5 234.5v933h-163v54h380v-54h-163v-933q0 -159 -63 -268
t-175 -165.5t-259 -56.5z" />
    <glyph glyph-name="Ucircumflex" unicode="&#xdb;" horiz-adv-x="1441" 
d="M469 1600v17l218 206h65l221 -210v-13h-60l-195 186l-190 -186h-59zM721 -21q-149 0 -261 56.5t-174.5 166t-62.5 267.5v933h-163v54h380v-54h-163v-933q0 -137 56.5 -234.5t156.5 -149.5t231 -52q130 0 230 52t156.5 149.5t56.5 234.5v933h-163v54h380v-54h-163v-933
q0 -159 -63 -268t-175 -165.5t-259 -56.5z" />
    <glyph glyph-name="Udieresis" unicode="&#xdc;" horiz-adv-x="1441" 
d="M844 1685v138h72v-138h-72zM524 1685v138h73v-138h-73zM721 -21q-149 0 -261 56.5t-174.5 166t-62.5 267.5v933h-163v54h380v-54h-163v-933q0 -137 56.5 -234.5t156.5 -149.5t231 -52q130 0 230 52t156.5 149.5t56.5 234.5v933h-163v54h380v-54h-163v-933
q0 -159 -63 -268t-175 -165.5t-259 -56.5z" />
    <glyph glyph-name="Yacute" unicode="&#xdd;" horiz-adv-x="1429" 
d="M655 1592l180 231h64l2 -5l-199 -231h-45zM526 0v54h163v499l-515 849h-119v54h326v-54h-141l449 -755l26 -50l1 2l26 48l451 755h-141v54h326v-54h-120l-514 -849v-499h163v-54h-381z" />
    <glyph glyph-name="Thorn" unicode="&#xde;" horiz-adv-x="1240" 
d="M70 0v54h163v1348h-163v54h217h163v-54h-163v-259h371q212 0 331 -113t119 -292q0 -180 -119 -292t-331 -112h-371v-280h163v-54h-380zM287 388h371q130 0 218 48t133 127.5t45 172.5q0 96 -44.5 176.5t-132.5 128.5t-219 48h-371v-701z" />
    <glyph glyph-name="germandbls" unicode="&#xdf;" horiz-adv-x="1243" 
d="M778 -21q-58 0 -120 12t-113.5 32.5t-78.5 44.5l25 49q42 -34 122.5 -59.5t156.5 -25.5q128 0 210 71.5t82 182.5q0 75 -39 132t-96.5 105.5t-115 98.5t-96.5 110t-39 140q0 50 18 105.5t41.5 113t41.5 114t18 108.5q0 91 -64 152.5t-177 61.5q-127 0 -204.5 -87.5
t-77.5 -250.5v-1189h-217v54h163v1135q0 126 40 213.5t114.5 133t179.5 45.5q85 0 152 -33t106 -93t39 -142q0 -61 -18 -120t-41.5 -114.5t-41.5 -108t-18 -100.5q0 -68 39 -121.5t96.5 -101t115 -98.5t96.5 -114t39 -149q0 -97 -49 -165.5t-126 -105t-163 -36.5z" />
    <glyph glyph-name="agrave" unicode="&#xe0;" horiz-adv-x="1116" 
d="M575 1329l-2 -5h-45l-199 231l2 5h64zM417 -21q-142 0 -227.5 81.5t-85.5 213.5q0 97 58.5 171.5t165 116.5t250.5 42h249v138q0 135 -78 221t-245 86q-88 0 -161 -33t-124 -80v-177h-54v206q67 62 149.5 99.5t190.5 37.5q187 0 281.5 -97.5t94.5 -264.5v-522
q0 -42 3.5 -83t11.5 -81h150v-54h-197q-13 71 -17.5 108.5t-4.5 90.5q-61 -98 -167.5 -159t-242.5 -61zM417 32q123 0 238 69t172 191v257h-246q-191 0 -307 -77.5t-116 -201.5q0 -101 73 -169.5t186 -68.5z" />
    <glyph glyph-name="aacute" unicode="&#xe1;" horiz-adv-x="1116" 
d="M455 1329l180 231h64l2 -5l-199 -231h-45zM417 -21q-142 0 -227.5 81.5t-85.5 213.5q0 97 58.5 171.5t165 116.5t250.5 42h249v138q0 135 -78 221t-245 86q-88 0 -161 -33t-124 -80v-177h-54v206q67 62 149.5 99.5t190.5 37.5q187 0 281.5 -97.5t94.5 -264.5v-522
q0 -42 3.5 -83t11.5 -81h150v-54h-197q-13 71 -17.5 108.5t-4.5 90.5q-61 -98 -167.5 -159t-242.5 -61zM417 32q123 0 238 69t172 191v257h-246q-191 0 -307 -77.5t-116 -201.5q0 -101 73 -169.5t186 -68.5z" />
    <glyph glyph-name="acircumflex" unicode="&#xe2;" horiz-adv-x="1116" 
d="M263 1337v17l218 206h65l221 -210v-13h-60l-195 186l-190 -186h-59zM417 -21q-142 0 -227.5 81.5t-85.5 213.5q0 97 58.5 171.5t165 116.5t250.5 42h249v138q0 135 -78 221t-245 86q-88 0 -161 -33t-124 -80v-177h-54v206q67 62 149.5 99.5t190.5 37.5q187 0 281.5 -97.5
t94.5 -264.5v-522q0 -42 3.5 -83t11.5 -81h150v-54h-197q-13 71 -17.5 108.5t-4.5 90.5q-61 -98 -167.5 -159t-242.5 -61zM417 32q123 0 238 69t172 191v257h-246q-191 0 -307 -77.5t-116 -201.5q0 -101 73 -169.5t186 -68.5z" />
    <glyph glyph-name="atilde" unicode="&#xe3;" horiz-adv-x="1116" 
d="M248 1372h-53q0 55 22.5 95.5t60 63.5t82.5 23q58 0 112.5 -31t104.5 -62.5t94 -31.5q41 0 75.5 34.5t34.5 96.5h53q0 -54 -22 -96t-58 -65.5t-80 -23.5q-57 0 -111.5 31.5t-105.5 63t-98 31.5q-43 0 -77 -33t-34 -96zM417 -21q-142 0 -227.5 81.5t-85.5 213.5
q0 97 58.5 171.5t165 116.5t250.5 42h249v138q0 135 -78 221t-245 86q-88 0 -161 -33t-124 -80v-177h-54v206q67 62 149.5 99.5t190.5 37.5q187 0 281.5 -97.5t94.5 -264.5v-522q0 -42 3.5 -83t11.5 -81h150v-54h-197q-13 71 -17.5 108.5t-4.5 90.5q-61 -98 -167.5 -159
t-242.5 -61zM417 32q123 0 238 69t172 191v257h-246q-191 0 -307 -77.5t-116 -201.5q0 -101 73 -169.5t186 -68.5z" />
    <glyph glyph-name="adieresis" unicode="&#xe4;" horiz-adv-x="1116" 
d="M638 1422v138h72v-138h-72zM318 1422v138h73v-138h-73zM417 -21q-142 0 -227.5 81.5t-85.5 213.5q0 97 58.5 171.5t165 116.5t250.5 42h249v138q0 135 -78 221t-245 86q-88 0 -161 -33t-124 -80v-177h-54v206q67 62 149.5 99.5t190.5 37.5q187 0 281.5 -97.5t94.5 -264.5
v-522q0 -42 3.5 -83t11.5 -81h150v-54h-197q-13 71 -17.5 108.5t-4.5 90.5q-61 -98 -167.5 -159t-242.5 -61zM417 32q123 0 238 69t172 191v257h-246q-191 0 -307 -77.5t-116 -201.5q0 -101 73 -169.5t186 -68.5z" />
    <glyph glyph-name="aring" unicode="&#xe5;" horiz-adv-x="1116" 
d="M515 1212q-72 0 -121.5 48.5t-49.5 121.5q0 74 49.5 124t121.5 50q71 0 121 -50t50 -124q0 -73 -50 -121.5t-121 -48.5zM515 1266q51 0 84 32t33 84q0 53 -33 86.5t-84 33.5t-84 -33.5t-33 -86.5q0 -52 33 -84t84 -32zM417 -21q-142 0 -227.5 81.5t-85.5 213.5
q0 97 58.5 171.5t165 116.5t250.5 42h249v138q0 135 -78 221t-245 86q-88 0 -161 -33t-124 -80v-177h-54v206q67 62 149.5 99.5t190.5 37.5q187 0 281.5 -97.5t94.5 -264.5v-522q0 -42 3.5 -83t11.5 -81h150v-54h-197q-13 71 -17.5 108.5t-4.5 90.5q-61 -98 -167.5 -159
t-242.5 -61zM417 32q123 0 238 69t172 191v257h-246q-191 0 -307 -77.5t-116 -201.5q0 -101 73 -169.5t186 -68.5z" />
    <glyph glyph-name="ae" unicode="&#xe6;" horiz-adv-x="1795" 
d="M417 -21q-142 0 -227.5 85.5t-85.5 223.5q0 102 58.5 179.5t165 121t250.5 43.5h249v110q0 135 -78 221t-245 86q-88 0 -161 -33t-124 -80v-177h-54v206q67 62 149.5 99.5t190.5 37.5q164 0 256.5 -73t111.5 -200q27 80 86 141.5t138.5 96.5t166.5 35q126 0 216.5 -53.5
t139 -152.5t48.5 -236v-83h-787v-77q0 -208 99 -337.5t299 -129.5q102 0 186.5 34.5t145.5 96.5l30 -42q-65 -66 -148.5 -104.5t-213.5 -38.5q-290 0 -409 269q-70 -121 -187 -195t-266 -74zM417 32q84 0 166.5 33t151 95t107.5 149q-7 47 -11 95.5t-4 97.5v75h-246
q-191 0 -307 -81.5t-116 -211.5q0 -107 73 -179.5t186 -72.5zM883 632h731v32q0 168 -91.5 276t-258.5 108q-108 0 -191.5 -53.5t-133 -146t-58.5 -211.5z" />
    <glyph glyph-name="ccedilla" unicode="&#xe7;" horiz-adv-x="1082" 
d="M423 -435l-7 49q104 0 180.5 36t76.5 105q0 64 -45.5 89t-163.5 35l25 121h53l-11 -76q91 -7 144 -45.5t53 -123.5q0 -87 -79 -138.5t-226 -51.5zM540 -21q-124 0 -223 68t-156 189.5t-57 283.5v42q0 162 55.5 283.5t153.5 189t225 67.5q122 0 219.5 -51.5t162.5 -125.5
v-232h-54v212q-64 68 -145 105.5t-182 37.5q-114 0 -200 -62t-133.5 -171.5t-47.5 -252.5v-42q0 -144 48 -254t134.5 -171.5t202.5 -61.5q139 0 233.5 71t112.5 219h46l2 -6q-12 -111 -65 -186.5t-137.5 -113.5t-194.5 -38z" />
    <glyph glyph-name="egrave" unicode="&#xe8;" horiz-adv-x="1084" 
d="M613 1329l-2 -5h-45l-199 231l2 5h64zM564 -21q-130 0 -232 66.5t-161 184t-59 270.5v64q0 155 57 276.5t156.5 191.5t225.5 70q122 0 213.5 -54.5t142 -153.5t50.5 -234v-83h-791v-77q0 -134 51 -239.5t141 -166.5t206 -61q103 0 182.5 35.5t141.5 96.5l29 -42
q-67 -64 -152 -104t-201 -40zM177 631h726v33q0 110 -43.5 197t-122.5 137t-186 50q-102 0 -184 -54t-133 -147t-60 -210z" />
    <glyph glyph-name="eacute" unicode="&#xe9;" horiz-adv-x="1084" 
d="M493 1329l180 231h64l2 -5l-199 -231h-45zM564 -21q-130 0 -232 66.5t-161 184t-59 270.5v64q0 155 57 276.5t156.5 191.5t225.5 70q122 0 213.5 -54.5t142 -153.5t50.5 -234v-83h-791v-77q0 -134 51 -239.5t141 -166.5t206 -61q103 0 182.5 35.5t141.5 96.5l29 -42
q-67 -64 -152 -104t-201 -40zM177 631h726v33q0 110 -43.5 197t-122.5 137t-186 50q-102 0 -184 -54t-133 -147t-60 -210z" />
    <glyph glyph-name="ecircumflex" unicode="&#xea;" horiz-adv-x="1084" 
d="M301 1337v17l218 206h65l221 -210v-13h-60l-195 186l-190 -186h-59zM564 -21q-130 0 -232 66.5t-161 184t-59 270.5v64q0 155 57 276.5t156.5 191.5t225.5 70q122 0 213.5 -54.5t142 -153.5t50.5 -234v-83h-791v-77q0 -134 51 -239.5t141 -166.5t206 -61
q103 0 182.5 35.5t141.5 96.5l29 -42q-67 -64 -152 -104t-201 -40zM177 631h726v33q0 110 -43.5 197t-122.5 137t-186 50q-102 0 -184 -54t-133 -147t-60 -210z" />
    <glyph glyph-name="edieresis" unicode="&#xeb;" horiz-adv-x="1084" 
d="M676 1422v138h72v-138h-72zM356 1422v138h73v-138h-73zM564 -21q-130 0 -232 66.5t-161 184t-59 270.5v64q0 155 57 276.5t156.5 191.5t225.5 70q122 0 213.5 -54.5t142 -153.5t50.5 -234v-83h-791v-77q0 -134 51 -239.5t141 -166.5t206 -61q103 0 182.5 35.5t141.5 96.5
l29 -42q-67 -64 -152 -104t-201 -40zM177 631h726v33q0 110 -43.5 197t-122.5 137t-186 50q-102 0 -184 -54t-133 -147t-60 -210z" />
    <glyph glyph-name="igrave" unicode="&#xec;" horiz-adv-x="609" 
d="M331 1329l-2 -5h-45l-199 231l2 5h64zM89 0v54h163v974h-163v54h217v-1028h163v-54h-380z" />
    <glyph glyph-name="iacute" unicode="&#xed;" horiz-adv-x="609" 
d="M211 1329l180 231h64l2 -5l-199 -231h-45zM89 0v54h163v974h-163v54h217v-1028h163v-54h-380z" />
    <glyph glyph-name="icircumflex" unicode="&#xee;" horiz-adv-x="609" 
d="M19 1337v17l218 206h65l221 -210v-13h-60l-195 186l-190 -186h-59zM89 0v54h163v974h-163v54h217v-1028h163v-54h-380z" />
    <glyph glyph-name="idieresis" unicode="&#xef;" horiz-adv-x="609" 
d="M394 1422v138h72v-138h-72zM74 1422v138h73v-138h-73zM89 0v54h163v974h-163v54h217v-1028h163v-54h-380z" />
    <glyph glyph-name="eth" unicode="&#xf0;" horiz-adv-x="1170" 
d="M534 -21q-133 0 -236 61.5t-161.5 167.5t-58.5 238q0 161 55.5 274t160.5 173t252 60q125 0 226.5 -46.5t153.5 -127.5l5 4q-16 163 -73 286t-148 213l-338 -193l-28 48l323 185q-50 41 -108 76.5t-126 68.5l20 50q77 -37 143 -78t121 -88l280 160l29 -48l-266 -152
q120 -122 178 -290.5t58 -405.5v-80q0 -163 -60 -288.5t-164.5 -196.5t-237.5 -71zM538 37q119 0 210 63.5t142.5 176t51.5 258.5v82v59q-40 92 -139 155.5t-257 63.5q-139 0 -230.5 -56.5t-137 -158t-45.5 -234.5q0 -109 49.5 -202.5t140.5 -150t215 -56.5z" />
    <glyph glyph-name="ntilde" unicode="&#xf1;" horiz-adv-x="1320" 
d="M393 1372h-53q0 55 22.5 95.5t60 63.5t82.5 23q58 0 112.5 -31t104.5 -62.5t94 -31.5q41 0 75.5 34.5t34.5 96.5h53q0 -54 -22 -96t-58 -65.5t-80 -23.5q-57 0 -111.5 31.5t-105.5 63t-98 31.5q-43 0 -77 -33t-34 -96zM89 0v54h163v974h-163v54h209l7 -223
q49 116 143 179.5t232 63.5q177 0 265.5 -111.5t88.5 -353.5v-583h163v-54h-380v54h163v585q0 225 -80.5 317t-218.5 92q-175 0 -264 -104.5t-111 -267.5v-622h163v-54h-380z" />
    <glyph glyph-name="ograve" unicode="&#xf2;" horiz-adv-x="1155" 
d="M638 1329l-2 -5h-45l-199 231l2 5h64zM579 -21q-141 0 -248 69t-167 191t-60 281v42q0 159 60 280.5t166.5 190.5t246.5 69q141 0 247.5 -69t166.5 -190.5t60 -280.5v-42q0 -159 -60 -281t-166.5 -191t-245.5 -69zM579 33q127 0 221 65.5t145.5 176t51.5 245.5v42
q0 133 -52 243.5t-146.5 176.5t-221.5 66t-221.5 -66t-146 -176.5t-51.5 -243.5v-42q0 -136 51.5 -246.5t146 -175.5t223.5 -65z" />
    <glyph glyph-name="oacute" unicode="&#xf3;" horiz-adv-x="1155" 
d="M518 1329l180 231h64l2 -5l-199 -231h-45zM579 -21q-141 0 -248 69t-167 191t-60 281v42q0 159 60 280.5t166.5 190.5t246.5 69q141 0 247.5 -69t166.5 -190.5t60 -280.5v-42q0 -159 -60 -281t-166.5 -191t-245.5 -69zM579 33q127 0 221 65.5t145.5 176t51.5 245.5v42
q0 133 -52 243.5t-146.5 176.5t-221.5 66t-221.5 -66t-146 -176.5t-51.5 -243.5v-42q0 -136 51.5 -246.5t146 -175.5t223.5 -65z" />
    <glyph glyph-name="ocircumflex" unicode="&#xf4;" horiz-adv-x="1155" 
d="M326 1337v17l218 206h65l221 -210v-13h-60l-195 186l-190 -186h-59zM579 -21q-141 0 -248 69t-167 191t-60 281v42q0 159 60 280.5t166.5 190.5t246.5 69q141 0 247.5 -69t166.5 -190.5t60 -280.5v-42q0 -159 -60 -281t-166.5 -191t-245.5 -69zM579 33q127 0 221 65.5
t145.5 176t51.5 245.5v42q0 133 -52 243.5t-146.5 176.5t-221.5 66t-221.5 -66t-146 -176.5t-51.5 -243.5v-42q0 -136 51.5 -246.5t146 -175.5t223.5 -65z" />
    <glyph glyph-name="otilde" unicode="&#xf5;" horiz-adv-x="1155" 
d="M311 1372h-53q0 55 22.5 95.5t60 63.5t82.5 23q58 0 112.5 -31t104.5 -62.5t94 -31.5q41 0 75.5 34.5t34.5 96.5h53q0 -54 -22 -96t-58 -65.5t-80 -23.5q-57 0 -111.5 31.5t-105.5 63t-98 31.5q-43 0 -77 -33t-34 -96zM579 -21q-141 0 -248 69t-167 191t-60 281v42
q0 159 60 280.5t166.5 190.5t246.5 69q141 0 247.5 -69t166.5 -190.5t60 -280.5v-42q0 -159 -60 -281t-166.5 -191t-245.5 -69zM579 33q127 0 221 65.5t145.5 176t51.5 245.5v42q0 133 -52 243.5t-146.5 176.5t-221.5 66t-221.5 -66t-146 -176.5t-51.5 -243.5v-42
q0 -136 51.5 -246.5t146 -175.5t223.5 -65z" />
    <glyph glyph-name="odieresis" unicode="&#xf6;" horiz-adv-x="1155" 
d="M701 1422v138h72v-138h-72zM381 1422v138h73v-138h-73zM579 -21q-141 0 -248 69t-167 191t-60 281v42q0 159 60 280.5t166.5 190.5t246.5 69q141 0 247.5 -69t166.5 -190.5t60 -280.5v-42q0 -159 -60 -281t-166.5 -191t-245.5 -69zM579 33q127 0 221 65.5t145.5 176
t51.5 245.5v42q0 133 -52 243.5t-146.5 176.5t-221.5 66t-221.5 -66t-146 -176.5t-51.5 -243.5v-42q0 -136 51.5 -246.5t146 -175.5t223.5 -65z" />
    <glyph glyph-name="divide" unicode="&#xf7;" horiz-adv-x="1148" 
d="M74 686v52h998v-52h-998zM536 241v122h96v-122h-96zM536 1020v122h96v-122h-96z" />
    <glyph glyph-name="oslash" unicode="&#xf8;" horiz-adv-x="1155" 
d="M185 -141l723 1364h63l-723 -1364h-63zM579 -21q-141 0 -248 69t-167 191t-60 281v42q0 159 60 280.5t166.5 190.5t246.5 69q141 0 247.5 -69t166.5 -190.5t60 -280.5v-42q0 -159 -60 -281t-166.5 -191t-245.5 -69zM579 33q127 0 221 65.5t145.5 176t51.5 245.5v42
q0 133 -52 243.5t-146.5 176.5t-221.5 66t-221.5 -66t-146 -176.5t-51.5 -243.5v-42q0 -136 51.5 -246.5t146 -175.5t223.5 -65z" />
    <glyph glyph-name="ugrave" unicode="&#xf9;" horiz-adv-x="1202" 
d="M661 1329l-2 -5h-45l-199 231l2 5h64zM533 -21q-164 0 -255 118.5t-91 367.5v563h-143v54h143h54v-619q0 -220 77.5 -325t212.5 -105q169 0 254.5 83t110.5 220v692h-163v54h163h55v-1028h163v-54h-208l-8 194q-51 -103 -140.5 -159t-224.5 -56z" />
    <glyph glyph-name="uacute" unicode="&#xfa;" horiz-adv-x="1202" 
d="M541 1329l180 231h64l2 -5l-199 -231h-45zM533 -21q-164 0 -255 118.5t-91 367.5v563h-143v54h143h54v-619q0 -220 77.5 -325t212.5 -105q169 0 254.5 83t110.5 220v692h-163v54h163h55v-1028h163v-54h-208l-8 194q-51 -103 -140.5 -159t-224.5 -56z" />
    <glyph glyph-name="ucircumflex" unicode="&#xfb;" horiz-adv-x="1202" 
d="M349 1337v17l218 206h65l221 -210v-13h-60l-195 186l-190 -186h-59zM533 -21q-164 0 -255 118.5t-91 367.5v563h-143v54h143h54v-619q0 -220 77.5 -325t212.5 -105q169 0 254.5 83t110.5 220v692h-163v54h163h55v-1028h163v-54h-208l-8 194q-51 -103 -140.5 -159
t-224.5 -56z" />
    <glyph glyph-name="udieresis" unicode="&#xfc;" horiz-adv-x="1202" 
d="M724 1422v138h72v-138h-72zM404 1422v138h73v-138h-73zM533 -21q-164 0 -255 118.5t-91 367.5v563h-143v54h143h54v-619q0 -220 77.5 -325t212.5 -105q169 0 254.5 83t110.5 220v692h-163v54h163h55v-1028h163v-54h-208l-8 194q-51 -103 -140.5 -159t-224.5 -56z" />
    <glyph glyph-name="yacute" unicode="&#xfd;" horiz-adv-x="1185" 
d="M533 1329l180 231h64l2 -5l-199 -231h-45zM283 -437q-19 0 -42 3.5t-34 7.5l9 51q11 -3 33 -6t34 -3q92 0 143.5 54t91.5 160l65 176l-410 1022h-118v54h319v-54h-142l335 -832l40 -108h6l359 940h-142v54h320v-54h-118l-460 -1208q-29 -76 -63.5 -134t-87.5 -90.5
t-138 -32.5z" />
    <glyph glyph-name="thorn" unicode="&#xfe;" horiz-adv-x="1161" 
d="M65 -416v54h163v1868h-163v54h217v-671q54 99 147 156t220 57t218.5 -68.5t140.5 -194.5t49 -297v-21q0 -167 -48.5 -288.5t-139.5 -187.5t-218 -66t-221.5 51t-147.5 138v-530h163v-54h-380zM652 33q171 0 260.5 132t89.5 356v21q0 150 -40.5 264t-119 178t-192.5 64
q-157 0 -244 -79t-124 -194v-506q40 -108 134 -172t236 -64z" />
    <glyph glyph-name="ydieresis" unicode="&#xff;" horiz-adv-x="1185" 
d="M716 1422v138h72v-138h-72zM396 1422v138h73v-138h-73zM283 -437q-19 0 -42 3.5t-34 7.5l9 51q11 -3 33 -6t34 -3q92 0 143.5 54t91.5 160l65 176l-410 1022h-118v54h319v-54h-142l335 -832l40 -108h6l359 940h-142v54h320v-54h-118l-460 -1208q-29 -76 -63.5 -134
t-87.5 -90.5t-138 -32.5z" />
    <glyph glyph-name="Amacron" unicode="&#x100;" horiz-adv-x="1472" 
d="M405 1683v53h627v-53h-627zM55 0v54h107l524 1402h66l525 -1402h107v-54h-309v54h143l-143 381h-712l-142 -381h143v-54h-309zM383 489h672l-305 820l-28 82h-6l-27 -82z" />
    <glyph glyph-name="amacron" unicode="&#x101;" horiz-adv-x="1116" 
d="M201 1420v53h627v-53h-627zM417 -21q-142 0 -227.5 81.5t-85.5 213.5q0 97 58.5 171.5t165 116.5t250.5 42h249v138q0 135 -78 221t-245 86q-88 0 -161 -33t-124 -80v-177h-54v206q67 62 149.5 99.5t190.5 37.5q187 0 281.5 -97.5t94.5 -264.5v-522q0 -42 3.5 -83
t11.5 -81h150v-54h-197q-13 71 -17.5 108.5t-4.5 90.5q-61 -98 -167.5 -159t-242.5 -61zM417 32q123 0 238 69t172 191v257h-246q-191 0 -307 -77.5t-116 -201.5q0 -101 73 -169.5t186 -68.5z" />
    <glyph glyph-name="Abreve" unicode="&#x102;" horiz-adv-x="1472" 
d="M720 1581q-129 0 -202.5 66t-72.5 170l2 6h52q0 -84 53 -136t168 -52q110 0 165 53t55 135h52l2 -6q0 -104 -73 -170t-201 -66zM55 0v54h107l524 1402h66l525 -1402h107v-54h-309v54h143l-143 381h-712l-142 -381h143v-54h-309zM383 489h672l-305 820l-28 82h-6l-27 -82z
" />
    <glyph glyph-name="abreve" unicode="&#x103;" horiz-adv-x="1116" 
d="M516 1318q-129 0 -202.5 66t-72.5 170l2 6h52q0 -84 53 -136t168 -52q110 0 165 53t55 135h52l2 -6q0 -104 -73 -170t-201 -66zM417 -21q-142 0 -227.5 81.5t-85.5 213.5q0 97 58.5 171.5t165 116.5t250.5 42h249v138q0 135 -78 221t-245 86q-88 0 -161 -33t-124 -80
v-177h-54v206q67 62 149.5 99.5t190.5 37.5q187 0 281.5 -97.5t94.5 -264.5v-522q0 -42 3.5 -83t11.5 -81h150v-54h-197q-13 71 -17.5 108.5t-4.5 90.5q-61 -98 -167.5 -159t-242.5 -61zM417 32q123 0 238 69t172 191v257h-246q-191 0 -307 -77.5t-116 -201.5
q0 -101 73 -169.5t186 -68.5z" />
    <glyph glyph-name="Aogonek" unicode="&#x104;" horiz-adv-x="1472" 
d="M1324 -423q-74 0 -121 45.5t-47 127.5q0 65 40 127.5t136 142.5l52 -20q-89 -79 -131.5 -132.5t-42.5 -117.5q0 -37 22 -78t92 -41q32 0 56.5 10.5t49.5 27.5l16 -48q-24 -18 -54 -31t-68 -13zM55 0v54h107l524 1402h66l525 -1402h107v-54h-309v54h143l-143 381h-712
l-142 -381h143v-54h-309zM383 489h672l-305 820l-28 82h-6l-27 -82z" />
    <glyph glyph-name="aogonek" unicode="&#x105;" horiz-adv-x="1116" 
d="M986 -423q-74 0 -121 45.5t-47 127.5q0 65 40 127.5t136 142.5l52 -20q-89 -79 -131.5 -132.5t-42.5 -117.5q0 -37 22 -78t92 -41q32 0 56.5 10.5t49.5 27.5l16 -48q-24 -18 -54 -31t-68 -13zM417 -21q-142 0 -227.5 81.5t-85.5 213.5q0 97 58.5 171.5t165 116.5
t250.5 42h249v138q0 135 -78 221t-245 86q-88 0 -161 -33t-124 -80v-177h-54v206q67 62 149.5 99.5t190.5 37.5q187 0 281.5 -97.5t94.5 -264.5v-522q0 -42 3.5 -83t11.5 -81h150v-54h-197q-13 71 -17.5 108.5t-4.5 90.5q-61 -98 -167.5 -159t-242.5 -61zM417 32
q123 0 238 69t172 191v257h-246q-191 0 -307 -77.5t-116 -201.5q0 -101 73 -169.5t186 -68.5z" />
    <glyph glyph-name="Cacute" unicode="&#x106;" horiz-adv-x="1348" 
d="M687 1592l180 231h64l2 -5l-199 -231h-45zM794 -21q-212 0 -360.5 93.5t-226 260t-77.5 386.5v18q0 220 80 386.5t223.5 260t333.5 93.5q158 0 259 -40t190 -118v-257h-55v234q-54 41 -108.5 69t-122 43t-163.5 15q-172 0 -303.5 -86t-205.5 -240t-74 -358v-20
q0 -204 72.5 -358.5t208.5 -241t326 -86.5q110 0 212 28t173 76v235h55v-269q-94 -63 -204 -93.5t-233 -30.5z" />
    <glyph glyph-name="cacute" unicode="&#x107;" horiz-adv-x="1082" 
d="M481 1329l180 231h64l2 -5l-199 -231h-45zM540 -21q-124 0 -223 68t-156 189.5t-57 283.5v42q0 162 55.5 283.5t153.5 189t225 67.5q122 0 219.5 -51.5t162.5 -125.5v-232h-54v212q-64 68 -145 105.5t-182 37.5q-114 0 -200 -62t-133.5 -171.5t-47.5 -252.5v-42
q0 -144 48 -254t134.5 -171.5t202.5 -61.5q139 0 233.5 71t112.5 219h46l2 -6q-12 -111 -65 -186.5t-137.5 -113.5t-194.5 -38z" />
    <glyph glyph-name="Ccircumflex" unicode="&#x108;" horiz-adv-x="1348" 
d="M495 1600v17l218 206h65l221 -210v-13h-60l-195 186l-190 -186h-59zM794 -21q-212 0 -360.5 93.5t-226 260t-77.5 386.5v18q0 220 80 386.5t223.5 260t333.5 93.5q158 0 259 -40t190 -118v-257h-55v234q-54 41 -108.5 69t-122 43t-163.5 15q-172 0 -303.5 -86
t-205.5 -240t-74 -358v-20q0 -204 72.5 -358.5t208.5 -241t326 -86.5q110 0 212 28t173 76v235h55v-269q-94 -63 -204 -93.5t-233 -30.5z" />
    <glyph glyph-name="ccircumflex" unicode="&#x109;" horiz-adv-x="1082" 
d="M289 1337v17l218 206h65l221 -210v-13h-60l-195 186l-190 -186h-59zM540 -21q-124 0 -223 68t-156 189.5t-57 283.5v42q0 162 55.5 283.5t153.5 189t225 67.5q122 0 219.5 -51.5t162.5 -125.5v-232h-54v212q-64 68 -145 105.5t-182 37.5q-114 0 -200 -62t-133.5 -171.5
t-47.5 -252.5v-42q0 -144 48 -254t134.5 -171.5t202.5 -61.5q139 0 233.5 71t112.5 219h46l2 -6q-12 -111 -65 -186.5t-137.5 -113.5t-194.5 -38z" />
    <glyph glyph-name="Cdotaccent" unicode="&#x10a;" horiz-adv-x="1348" 
d="M710 1683v140h72v-140h-72zM794 -21q-212 0 -360.5 93.5t-226 260t-77.5 386.5v18q0 220 80 386.5t223.5 260t333.5 93.5q158 0 259 -40t190 -118v-257h-55v234q-54 41 -108.5 69t-122 43t-163.5 15q-172 0 -303.5 -86t-205.5 -240t-74 -358v-20q0 -204 72.5 -358.5
t208.5 -241t326 -86.5q110 0 212 28t173 76v235h55v-269q-94 -63 -204 -93.5t-233 -30.5z" />
    <glyph glyph-name="cdotaccent" unicode="&#x10b;" horiz-adv-x="1082" 
d="M504 1420v140h72v-140h-72zM540 -21q-124 0 -223 68t-156 189.5t-57 283.5v42q0 162 55.5 283.5t153.5 189t225 67.5q122 0 219.5 -51.5t162.5 -125.5v-232h-54v212q-64 68 -145 105.5t-182 37.5q-114 0 -200 -62t-133.5 -171.5t-47.5 -252.5v-42q0 -144 48 -254
t134.5 -171.5t202.5 -61.5q139 0 233.5 71t112.5 219h46l2 -6q-12 -111 -65 -186.5t-137.5 -113.5t-194.5 -38z" />
    <glyph glyph-name="Ccaron" unicode="&#x10c;" horiz-adv-x="1348" 
d="M999 1823v-17l-218 -206h-65l-221 210v13h60l195 -186l190 186h59zM794 -21q-212 0 -360.5 93.5t-226 260t-77.5 386.5v18q0 220 80 386.5t223.5 260t333.5 93.5q158 0 259 -40t190 -118v-257h-55v234q-54 41 -108.5 69t-122 43t-163.5 15q-172 0 -303.5 -86t-205.5 -240
t-74 -358v-20q0 -204 72.5 -358.5t208.5 -241t326 -86.5q110 0 212 28t173 76v235h55v-269q-94 -63 -204 -93.5t-233 -30.5z" />
    <glyph glyph-name="ccaron" unicode="&#x10d;" horiz-adv-x="1082" 
d="M793 1560v-17l-218 -206h-65l-221 210v13h60l195 -186l190 186h59zM540 -21q-124 0 -223 68t-156 189.5t-57 283.5v42q0 162 55.5 283.5t153.5 189t225 67.5q122 0 219.5 -51.5t162.5 -125.5v-232h-54v212q-64 68 -145 105.5t-182 37.5q-114 0 -200 -62t-133.5 -171.5
t-47.5 -252.5v-42q0 -144 48 -254t134.5 -171.5t202.5 -61.5q139 0 233.5 71t112.5 219h46l2 -6q-12 -111 -65 -186.5t-137.5 -113.5t-194.5 -38z" />
    <glyph glyph-name="Dcaron" unicode="&#x10e;" horiz-adv-x="1386" 
d="M925 1823v-17l-218 -206h-65l-221 210v13h60l195 -186l190 186h59zM71 0v54h163v1348h-163v54h163h395q179 0 318.5 -92.5t220 -254.5t80.5 -372v-18q0 -210 -80.5 -372t-220 -254.5t-318.5 -92.5h-558zM288 54h341q163 0 290.5 86.5t201 237t73.5 341.5v21
q0 190 -73.5 339.5t-201 236t-290.5 86.5h-341v-1348z" />
    <glyph glyph-name="dcaron" unicode="&#x10f;" horiz-adv-x="1205" 
d="M1088 1284l-37 32q32 44 46.5 83.5t14.5 95.5v65h54v-63q0 -67 -21 -119.5t-57 -93.5zM510 -21q-127 0 -218 66t-139.5 187.5t-48.5 288.5v21q0 171 48.5 297t140 194.5t219.5 68.5t220 -58.5t147 -160.5v623h-163v54h163h54v-1506h163v-54h-215l-2 173
q-53 -89 -147 -141.5t-222 -52.5zM509 33q141 0 234.5 64t135.5 171v507q-39 116 -126 194.5t-242 78.5q-115 0 -193 -64t-118 -178t-40 -264v-21q0 -224 88.5 -356t260.5 -132z" />
    <glyph glyph-name="Dcroat" unicode="&#x110;" horiz-adv-x="1386" 
d="M71 716v54h521v-54h-521zM71 0v54h163v1348h-163v54h163h395q179 0 318.5 -92.5t220 -254.5t80.5 -372v-18q0 -210 -80.5 -372t-220 -254.5t-318.5 -92.5h-558zM288 54h341q163 0 290.5 86.5t201 237t73.5 341.5v21q0 190 -73.5 339.5t-201 236t-290.5 86.5h-341v-1348z
" />
    <glyph glyph-name="dcroat" unicode="&#x111;" horiz-adv-x="1205" 
d="M575 1258v54h521v-54h-521zM510 -21q-127 0 -218 66t-139.5 187.5t-48.5 288.5v21q0 171 48.5 297t140 194.5t219.5 68.5t220 -58.5t147 -160.5v623h-163v54h163h54v-1506h163v-54h-215l-2 173q-53 -89 -147 -141.5t-222 -52.5zM509 33q141 0 234.5 64t135.5 171v507
q-39 116 -126 194.5t-242 78.5q-115 0 -193 -64t-118 -178t-40 -264v-21q0 -224 88.5 -356t260.5 -132z" />
    <glyph glyph-name="Emacron" unicode="&#x112;" horiz-adv-x="1270" 
d="M321 1683v53h627v-53h-627zM71 0v54h163v1348h-163v54h1019v-293h-54v239h-748v-616h630v-54h-630v-678h778v239h54v-293h-1049z" />
    <glyph glyph-name="emacron" unicode="&#x113;" horiz-adv-x="1084" 
d="M239 1420v53h627v-53h-627zM564 -21q-130 0 -232 66.5t-161 184t-59 270.5v64q0 155 57 276.5t156.5 191.5t225.5 70q122 0 213.5 -54.5t142 -153.5t50.5 -234v-83h-791v-77q0 -134 51 -239.5t141 -166.5t206 -61q103 0 182.5 35.5t141.5 96.5l29 -42q-67 -64 -152 -104
t-201 -40zM177 631h726v33q0 110 -43.5 197t-122.5 137t-186 50q-102 0 -184 -54t-133 -147t-60 -210z" />
    <glyph glyph-name="Ebreve" unicode="&#x114;" horiz-adv-x="1270" 
d="M636 1581q-129 0 -202.5 66t-72.5 170l2 6h52q0 -84 53 -136t168 -52q110 0 165 53t55 135h52l2 -6q0 -104 -73 -170t-201 -66zM71 0v54h163v1348h-163v54h1019v-293h-54v239h-748v-616h630v-54h-630v-678h778v239h54v-293h-1049z" />
    <glyph glyph-name="ebreve" unicode="&#x115;" horiz-adv-x="1084" 
d="M554 1318q-129 0 -202.5 66t-72.5 170l2 6h52q0 -84 53 -136t168 -52q110 0 165 53t55 135h52l2 -6q0 -104 -73 -170t-201 -66zM564 -21q-130 0 -232 66.5t-161 184t-59 270.5v64q0 155 57 276.5t156.5 191.5t225.5 70q122 0 213.5 -54.5t142 -153.5t50.5 -234v-83h-791
v-77q0 -134 51 -239.5t141 -166.5t206 -61q103 0 182.5 35.5t141.5 96.5l29 -42q-67 -64 -152 -104t-201 -40zM177 631h726v33q0 110 -43.5 197t-122.5 137t-186 50q-102 0 -184 -54t-133 -147t-60 -210z" />
    <glyph glyph-name="Edotaccent" unicode="&#x116;" horiz-adv-x="1270" 
d="M598 1683v140h72v-140h-72zM71 0v54h163v1348h-163v54h1019v-293h-54v239h-748v-616h630v-54h-630v-678h778v239h54v-293h-1049z" />
    <glyph glyph-name="edotaccent" unicode="&#x117;" horiz-adv-x="1084" 
d="M516 1420v140h72v-140h-72zM564 -21q-130 0 -232 66.5t-161 184t-59 270.5v64q0 155 57 276.5t156.5 191.5t225.5 70q122 0 213.5 -54.5t142 -153.5t50.5 -234v-83h-791v-77q0 -134 51 -239.5t141 -166.5t206 -61q103 0 182.5 35.5t141.5 96.5l29 -42q-67 -64 -152 -104
t-201 -40zM177 631h726v33q0 110 -43.5 197t-122.5 137t-186 50q-102 0 -184 -54t-133 -147t-60 -210z" />
    <glyph glyph-name="Eogonek" unicode="&#x118;" horiz-adv-x="1270" 
d="M1060 -423q-74 0 -121 45.5t-47 127.5q0 65 40 127.5t136 142.5l52 -20q-89 -79 -131.5 -132.5t-42.5 -117.5q0 -37 22 -78t92 -41q32 0 56.5 10.5t49.5 27.5l16 -48q-24 -18 -54 -31t-68 -13zM71 0v54h163v1348h-163v54h1019v-293h-54v239h-748v-616h630v-54h-630v-678
h778v239h54v-293h-1049z" />
    <glyph glyph-name="eogonek" unicode="&#x119;" horiz-adv-x="1084" 
d="M789 -423q-77 0 -127 49t-50 152q0 87 46.5 163.5t158.5 153.5l35 -26q-95 -76 -140.5 -140.5t-45.5 -150.5q0 -58 23.5 -102.5t99.5 -44.5q35 0 59.5 10.5t49.5 27.5l16 -48q-24 -18 -54 -31t-71 -13zM564 -21q-130 0 -232 66.5t-161 184t-59 270.5v64q0 155 57 276.5
t156.5 191.5t225.5 70q122 0 213.5 -54.5t142 -153.5t50.5 -234v-83h-791v-77q0 -134 51 -239.5t141 -166.5t206 -61q103 0 182.5 35.5t141.5 96.5l29 -42q-67 -64 -152 -104t-201 -40zM177 631h726v33q0 110 -43.5 197t-122.5 137t-186 50q-102 0 -184 -54t-133 -147
t-60 -210z" />
    <glyph glyph-name="Ecaron" unicode="&#x11a;" horiz-adv-x="1270" 
d="M887 1823v-17l-218 -206h-65l-221 210v13h60l195 -186l190 186h59zM71 0v54h163v1348h-163v54h1019v-293h-54v239h-748v-616h630v-54h-630v-678h778v239h54v-293h-1049z" />
    <glyph glyph-name="ecaron" unicode="&#x11b;" horiz-adv-x="1084" 
d="M805 1560v-17l-218 -206h-65l-221 210v13h60l195 -186l190 186h59zM564 -21q-130 0 -232 66.5t-161 184t-59 270.5v64q0 155 57 276.5t156.5 191.5t225.5 70q122 0 213.5 -54.5t142 -153.5t50.5 -234v-83h-791v-77q0 -134 51 -239.5t141 -166.5t206 -61q103 0 182.5 35.5
t141.5 96.5l29 -42q-67 -64 -152 -104t-201 -40zM177 631h726v33q0 110 -43.5 197t-122.5 137t-186 50q-102 0 -184 -54t-133 -147t-60 -210z" />
    <glyph glyph-name="Gcircumflex" unicode="&#x11c;" horiz-adv-x="1417" 
d="M457 1600v17l218 206h65l221 -210v-13h-60l-195 186l-190 -186h-59zM770 -21q-199 0 -342.5 93.5t-220.5 260.5t-77 387v38q0 213 81 375t222 253t321 91q154 0 261.5 -41.5t197.5 -111.5v-252h-54v224q-74 58 -166.5 92.5t-238.5 34.5q-162 0 -291 -84.5t-204 -233.5
t-75 -345v-40q0 -203 69.5 -358t200 -242t314.5 -87q134 0 242 32.5t184 75.5v424h-315v55h369v-509q-91 -55 -207 -93.5t-271 -38.5z" />
    <glyph glyph-name="gcircumflex" unicode="&#x11d;" horiz-adv-x="1155" 
d="M307 1337v17l218 206h65l221 -210v-13h-60l-195 186l-190 -186h-59zM524 -437q-79 0 -164.5 16.5t-149.5 45.5l16 54q73 -32 141 -47.5t155 -15.5q173 0 264.5 106.5t91.5 291.5v157q-54 -88 -147.5 -140t-220.5 -52t-218 66t-139.5 188t-48.5 288v21q0 172 48.5 297.5
t140 194t219.5 68.5t220.5 -59t146.5 -161l8 200h46v-1068q0 -138 -49.5 -239.5t-141 -156.5t-218.5 -55zM509 33q144 0 236.5 66t132.5 177v491q-38 119 -123.5 200t-243.5 81q-114 0 -192.5 -64t-119 -178t-40.5 -264v-21q0 -224 89 -356t261 -132zM913 1028l-7 54h170
v-54h-163z" />
    <glyph glyph-name="Gbreve" unicode="&#x11e;" horiz-adv-x="1417" 
d="M710 1581q-129 0 -202.5 66t-72.5 170l2 6h52q0 -84 53 -136t168 -52q110 0 165 53t55 135h52l2 -6q0 -104 -73 -170t-201 -66zM770 -21q-199 0 -342.5 93.5t-220.5 260.5t-77 387v38q0 213 81 375t222 253t321 91q154 0 261.5 -41.5t197.5 -111.5v-252h-54v224
q-74 58 -166.5 92.5t-238.5 34.5q-162 0 -291 -84.5t-204 -233.5t-75 -345v-40q0 -203 69.5 -358t200 -242t314.5 -87q134 0 242 32.5t184 75.5v424h-315v55h369v-509q-91 -55 -207 -93.5t-271 -38.5z" />
    <glyph glyph-name="gbreve" unicode="&#x11f;" horiz-adv-x="1155" 
d="M560 1318q-129 0 -202.5 66t-72.5 170l2 6h52q0 -84 53 -136t168 -52q110 0 165 53t55 135h52l2 -6q0 -104 -73 -170t-201 -66zM524 -437q-79 0 -164.5 16.5t-149.5 45.5l16 54q73 -32 141 -47.5t155 -15.5q173 0 264.5 106.5t91.5 291.5v157q-54 -88 -147.5 -140
t-220.5 -52t-218 66t-139.5 188t-48.5 288v21q0 172 48.5 297.5t140 194t219.5 68.5t220.5 -59t146.5 -161l8 200h46v-1068q0 -138 -49.5 -239.5t-141 -156.5t-218.5 -55zM509 33q144 0 236.5 66t132.5 177v491q-38 119 -123.5 200t-243.5 81q-114 0 -192.5 -64t-119 -178
t-40.5 -264v-21q0 -224 89 -356t261 -132zM913 1028l-7 54h170v-54h-163z" />
    <glyph glyph-name="Gdotaccent" unicode="&#x120;" horiz-adv-x="1417" 
d="M672 1683v140h72v-140h-72zM770 -21q-199 0 -342.5 93.5t-220.5 260.5t-77 387v38q0 213 81 375t222 253t321 91q154 0 261.5 -41.5t197.5 -111.5v-252h-54v224q-74 58 -166.5 92.5t-238.5 34.5q-162 0 -291 -84.5t-204 -233.5t-75 -345v-40q0 -203 69.5 -358t200 -242
t314.5 -87q134 0 242 32.5t184 75.5v424h-315v55h369v-509q-91 -55 -207 -93.5t-271 -38.5z" />
    <glyph glyph-name="gdotaccent" unicode="&#x121;" horiz-adv-x="1155" 
d="M522 1420v140h72v-140h-72zM524 -437q-79 0 -164.5 16.5t-149.5 45.5l16 54q73 -32 141 -47.5t155 -15.5q173 0 264.5 106.5t91.5 291.5v157q-54 -88 -147.5 -140t-220.5 -52t-218 66t-139.5 188t-48.5 288v21q0 172 48.5 297.5t140 194t219.5 68.5t220.5 -59t146.5 -161
l8 200h46v-1068q0 -138 -49.5 -239.5t-141 -156.5t-218.5 -55zM509 33q144 0 236.5 66t132.5 177v491q-38 119 -123.5 200t-243.5 81q-114 0 -192.5 -64t-119 -178t-40.5 -264v-21q0 -224 89 -356t261 -132zM913 1028l-7 54h170v-54h-163z" />
    <glyph glyph-name="uni0122" unicode="&#x122;" horiz-adv-x="1417" 
d="M711 -531l-37 32q32 44 46.5 83.5t14.5 95.5v65h54v-63q0 -67 -21 -119.5t-57 -93.5zM770 -21q-199 0 -342.5 93.5t-220.5 260.5t-77 387v38q0 213 81 375t222 253t321 91q154 0 261.5 -41.5t197.5 -111.5v-252h-54v224q-74 58 -166.5 92.5t-238.5 34.5
q-162 0 -291 -84.5t-204 -233.5t-75 -345v-40q0 -203 69.5 -358t200 -242t314.5 -87q134 0 242 32.5t184 75.5v424h-315v55h369v-509q-91 -55 -207 -93.5t-271 -38.5z" />
    <glyph glyph-name="uni0123" unicode="&#x123;" horiz-adv-x="1155" 
d="M579 1640l37 -32q-31 -43 -46 -83t-15 -96v-65h-54v63q0 68 21 120.5t57 92.5zM524 -437q-79 0 -164.5 16.5t-149.5 45.5l16 54q73 -32 141 -47.5t155 -15.5q173 0 264.5 106.5t91.5 291.5v157q-54 -88 -147.5 -140t-220.5 -52t-218 66t-139.5 188t-48.5 288v21
q0 172 48.5 297.5t140 194t219.5 68.5t220.5 -59t146.5 -161l8 200h46v-1068q0 -138 -49.5 -239.5t-141 -156.5t-218.5 -55zM509 33q144 0 236.5 66t132.5 177v491q-38 119 -123.5 200t-243.5 81q-114 0 -192.5 -64t-119 -178t-40.5 -264v-21q0 -224 89 -356t261 -132z
M913 1028l-7 54h170v-54h-163z" />
    <glyph glyph-name="Hcircumflex" unicode="&#x124;" horiz-adv-x="1506" 
d="M501 1600v17l218 206h65l221 -210v-13h-60l-195 186l-190 -186h-59zM71 0v54h163v1348h-163v54h380v-54h-163v-653h930v653h-163v54h163h54h163v-54h-163v-1348h163v-54h-380v54h163v641h-930v-641h163v-54h-380z" />
    <glyph glyph-name="hcircumflex" unicode="&#x125;" horiz-adv-x="1278" 
d="M5 1711v17l218 206h65l221 -210v-13h-60l-195 186l-190 -186h-59zM62 0v54h163v1452h-163v54h217v-706q50 118 147 183t237 65q169 0 256.5 -107t87.5 -337v-604h163v-54h-381v54h163v606q0 213 -78.5 300.5t-209.5 87.5q-175 0 -268 -104.5t-117 -267.5v-622h163v-54
h-380z" />
    <glyph glyph-name="Hbar" unicode="&#x126;" horiz-adv-x="1506" 
d="M71 1028v54h1364v-54h-1364zM71 0v54h163v1348h-163v54h380v-54h-163v-653h930v653h-163v54h163h54h163v-54h-163v-1348h163v-54h-380v54h163v641h-930v-641h163v-54h-380z" />
    <glyph glyph-name="hbar" unicode="&#x127;" horiz-adv-x="1278" 
d="M62 1258v54h521v-54h-521zM62 0v54h163v1452h-163v54h217v-706q50 118 147 183t237 65q169 0 256.5 -107t87.5 -337v-604h163v-54h-381v54h163v606q0 213 -78.5 300.5t-209.5 87.5q-175 0 -268 -104.5t-117 -267.5v-622h163v-54h-380z" />
    <glyph glyph-name="Itilde" unicode="&#x128;" horiz-adv-x="522" 
d="M-6 1635h-53q0 55 22.5 95.5t60 63.5t82.5 23q58 0 112.5 -31t104.5 -62.5t94 -31.5q41 0 75.5 34.5t34.5 96.5h53q0 -54 -22 -96t-58 -65.5t-80 -23.5q-57 0 -111.5 31.5t-105.5 63t-98 31.5q-43 0 -77 -33t-34 -96zM71 0v54h163v1348h-163v54h380v-54h-163v-1348h163
v-54h-380z" />
    <glyph glyph-name="itilde" unicode="&#x129;" horiz-adv-x="609" 
d="M4 1372h-53q0 55 22.5 95.5t60 63.5t82.5 23q58 0 112.5 -31t104.5 -62.5t94 -31.5q41 0 75.5 34.5t34.5 96.5h53q0 -54 -22 -96t-58 -65.5t-80 -23.5q-57 0 -111.5 31.5t-105.5 63t-98 31.5q-43 0 -77 -33t-34 -96zM89 0v54h163v974h-163v54h217v-1028h163v-54h-380z
" />
    <glyph glyph-name="Imacron" unicode="&#x12a;" horiz-adv-x="522" 
d="M-53 1683v53h627v-53h-627zM71 0v54h163v1348h-163v54h380v-54h-163v-1348h163v-54h-380z" />
    <glyph glyph-name="imacron" unicode="&#x12b;" horiz-adv-x="609" 
d="M-43 1420v53h627v-53h-627zM89 0v54h163v974h-163v54h217v-1028h163v-54h-380z" />
    <glyph glyph-name="Ibreve" unicode="&#x12c;" horiz-adv-x="522" 
d="M262 1581q-129 0 -202.5 66t-72.5 170l2 6h52q0 -84 53 -136t168 -52q110 0 165 53t55 135h52l2 -6q0 -104 -73 -170t-201 -66zM71 0v54h163v1348h-163v54h380v-54h-163v-1348h163v-54h-380z" />
    <glyph glyph-name="ibreve" unicode="&#x12d;" horiz-adv-x="609" 
d="M272 1318q-129 0 -202.5 66t-72.5 170l2 6h52q0 -84 53 -136t168 -52q110 0 165 53t55 135h52l2 -6q0 -104 -73 -170t-201 -66zM89 0v54h163v974h-163v54h217v-1028h163v-54h-380z" />
    <glyph glyph-name="Iogonek" unicode="&#x12e;" horiz-adv-x="522" 
d="M391 -423q-74 0 -121 45.5t-47 127.5q0 65 40 127.5t136 142.5l52 -20q-89 -79 -131.5 -132.5t-42.5 -117.5q0 -37 22 -78t92 -41q32 0 56.5 10.5t49.5 27.5l16 -48q-24 -18 -54 -31t-68 -13zM71 0v54h163v1348h-163v54h380v-54h-163v-1348h163v-54h-380z" />
    <glyph glyph-name="iogonek" unicode="&#x12f;" horiz-adv-x="609" 
d="M409 -423q-74 0 -121 45.5t-47 127.5q0 65 40 127.5t136 142.5l52 -20q-89 -79 -131.5 -132.5t-42.5 -117.5q0 -37 22 -78t92 -41q32 0 56.5 10.5t49.5 27.5l16 -48q-24 -18 -54 -31t-68 -13zM234 1420v140h72v-140h-72zM89 0v54h163v974h-163v54h217v-1028h163v-54h-380
z" />
    <glyph glyph-name="Idotaccent" unicode="&#x130;" horiz-adv-x="522" 
d="M224 1683v140h72v-140h-72zM71 0v54h163v1348h-163v54h380v-54h-163v-1348h163v-54h-380z" />
    <glyph glyph-name="dotlessi" unicode="&#x131;" horiz-adv-x="609" 
d="M89 0v54h163v974h-163v54h217v-1028h163v-54h-380z" />
    <glyph glyph-name="IJ" unicode="&#x132;" horiz-adv-x="1659" 
d="M71 0v54h163v1348h-163v54h380v-54h-163v-1348h163v-54h-380zM993 -21q-133 0 -229.5 47.5t-147.5 140t-48 228.5l2 6h46q0 -178 97 -273t280 -95q102 0 182.5 47.5t126.5 135t46 206.5v980h-186v54h403v-54h-163v-980q0 -135 -52 -234.5t-144.5 -154t-212.5 -54.5z" />
    <glyph glyph-name="ij" unicode="&#x133;" horiz-adv-x="1172" 
d="M234 1420v140h72v-140h-72zM89 0v54h163v974h-163v54h217v-1028h163v-54h-380zM924 1420v140h72v-140h-72zM717 -437q-30 0 -56 5t-56 15l13 52q18 -6 45.5 -12t53.5 -6q110 0 170.5 76.5t60.5 217.5v1117h-163v54h217v-1171q0 -167 -75 -257.5t-210 -90.5z" />
    <glyph glyph-name="Jcircumflex" unicode="&#x134;" horiz-adv-x="1137" 
d="M596 1600v17l218 206h65l221 -210v-13h-60l-195 186l-190 -186h-59zM471 -21q-133 0 -229.5 47.5t-147.5 140t-48 228.5l2 6h46q0 -178 97 -273t280 -95q102 0 182.5 47.5t126.5 135t46 206.5v980h-186v54h403v-54h-163v-980q0 -135 -52 -234.5t-144.5 -154t-212.5 -54.5
z" />
    <glyph glyph-name="jcircumflex" unicode="&#x135;" horiz-adv-x="563" 
d="M100 1337v17l218 206h65l221 -210v-13h-60l-195 186l-190 -186h-59zM108 -437q-30 0 -56 5t-56 15l13 52q18 -6 45.5 -12t53.5 -6q110 0 170.5 76.5t60.5 217.5v1117h-163v54h217v-1171q0 -167 -75 -257.5t-210 -90.5z" />
    <glyph glyph-name="uni0136" unicode="&#x136;" horiz-adv-x="1388" 
d="M656 -531l-37 32q32 44 46.5 83.5t14.5 95.5v65h54v-63q0 -67 -21 -119.5t-57 -93.5zM270 391l-20 62l841 944l-2 5h-168v54h361v-54h-115zM71 0v54h163v1348h-163v54h380v-54h-163v-1348h163v-54h-380zM967 0v54h163l3 6l-542 743l50 29l569 -778h118v-54h-361z" />
    <glyph glyph-name="uni0137" unicode="&#x137;" horiz-adv-x="1154" 
d="M539 -531l-37 32q32 44 46.5 83.5t14.5 95.5v65h54v-63q0 -67 -21 -119.5t-57 -93.5zM62 0v54h163v1452h-163v54h217v-1506h163v-54h-380zM761 0v54h126l2 5l-399 555l38 35l436 -595h117v-54h-320zM269 346l-18 54l587 622l-2 6h-119v54h321v-54h-122z" />
    <glyph glyph-name="kgreenlandic" unicode="&#x138;" horiz-adv-x="1163" 
d="M269 346l-18 54l593 622l-2 6h-119v54h321v-54h-122zM62 0v54h163v974h-163v54h217v-1028h163v-54h-380zM931 0l-441 614l38 35l436 -595h117v-54h-150z" />
    <glyph glyph-name="Lacute" unicode="&#x139;" horiz-adv-x="1161" 
d="M202 1592l180 231h64l2 -5l-199 -231h-45zM71 0v54h163v1348h-163v54h163h55h163v-54h-163v-1348h693v239h54v-293h-965z" />
    <glyph glyph-name="lacute" unicode="&#x13a;" horiz-adv-x="581" 
d="M217 1703l180 231h64l2 -5l-199 -231h-45zM82 0v54h163v1452h-163v54h217v-1506h163v-54h-380z" />
    <glyph glyph-name="uni013B" unicode="&#x13b;" horiz-adv-x="1161" 
d="M543 -531l-37 32q32 44 46.5 83.5t14.5 95.5v65h54v-63q0 -67 -21 -119.5t-57 -93.5zM71 0v54h163v1348h-163v54h163h55h163v-54h-163v-1348h693v239h54v-293h-965z" />
    <glyph glyph-name="uni013C" unicode="&#x13c;" horiz-adv-x="581" 
d="M253 -531l-37 32q32 44 46.5 83.5t14.5 95.5v65h54v-63q0 -67 -21 -119.5t-57 -93.5zM82 0v54h163v1452h-163v54h217v-1506h163v-54h-380z" />
    <glyph glyph-name="Lcaron" unicode="&#x13d;" horiz-adv-x="1161" 
d="M960 1180l-37 32q32 44 46.5 83.5t14.5 95.5v65h54v-63q0 -67 -21 -119.5t-57 -93.5zM71 0v54h163v1348h-163v54h163h55h163v-54h-163v-1348h693v239h54v-293h-965z" />
    <glyph glyph-name="lcaron" unicode="&#x13e;" horiz-adv-x="581" 
d="M454 1284l-37 32q32 44 46.5 83.5t14.5 95.5v65h54v-63q0 -67 -21 -119.5t-57 -93.5zM82 0v54h163v1452h-163v54h217v-1506h163v-54h-380z" />
    <glyph glyph-name="Ldot" unicode="&#x13f;" horiz-adv-x="1161" 
d="M71 0v54h163v1348h-163v54h163h55h163v-54h-163v-1348h693v239h54v-293h-965zM782 636v130h86v-130h-86z" />
    <glyph glyph-name="ldot" unicode="&#x140;" horiz-adv-x="581" 
d="M82 0v54h163v1452h-163v54h217v-1506h163v-54h-380zM442 636v130h86v-130h-86z" />
    <glyph glyph-name="Lslash" unicode="&#x141;" horiz-adv-x="1161" 
d="M64 648v57l590 187v-57zM71 0v54h163v1348h-163v54h163h55h163v-54h-163v-1348h693v239h54v-293h-965z" />
    <glyph glyph-name="lslash" unicode="&#x142;" horiz-adv-x="581" 
d="M47 684v59l460 187v-59zM82 0v54h163v1452h-163v54h217v-1506h163v-54h-380z" />
    <glyph glyph-name="Nacute" unicode="&#x143;" horiz-adv-x="1517" 
d="M699 1592l180 231h64l2 -5l-199 -231h-45zM71 0v54h163v1348h-163v54h163h55l934 -1353l6 2v1297h-163v54h217h163v-54h-163v-1402h-54l-934 1356l-6 -2v-1300h163v-54h-381z" />
    <glyph glyph-name="nacute" unicode="&#x144;" horiz-adv-x="1320" 
d="M600 1329l180 231h64l2 -5l-199 -231h-45zM89 0v54h163v974h-163v54h209l7 -223q49 116 143 179.5t232 63.5q177 0 265.5 -111.5t88.5 -353.5v-583h163v-54h-380v54h163v585q0 225 -80.5 317t-218.5 92q-175 0 -264 -104.5t-111 -267.5v-622h163v-54h-380z" />
    <glyph glyph-name="uni0145" unicode="&#x145;" horiz-adv-x="1517" 
d="M721 -531l-37 32q32 44 46.5 83.5t14.5 95.5v65h54v-63q0 -67 -21 -119.5t-57 -93.5zM71 0v54h163v1348h-163v54h163h55l934 -1353l6 2v1297h-163v54h217h163v-54h-163v-1402h-54l-934 1356l-6 -2v-1300h163v-54h-381z" />
    <glyph glyph-name="uni0146" unicode="&#x146;" horiz-adv-x="1320" 
d="M622 -531l-37 32q32 44 46.5 83.5t14.5 95.5v65h54v-63q0 -67 -21 -119.5t-57 -93.5zM89 0v54h163v974h-163v54h209l7 -223q49 116 143 179.5t232 63.5q177 0 265.5 -111.5t88.5 -353.5v-583h163v-54h-380v54h163v585q0 225 -80.5 317t-218.5 92q-175 0 -264 -104.5
t-111 -267.5v-622h163v-54h-380z" />
    <glyph glyph-name="Ncaron" unicode="&#x147;" horiz-adv-x="1517" 
d="M1011 1823v-17l-218 -206h-65l-221 210v13h60l195 -186l190 186h59zM71 0v54h163v1348h-163v54h163h55l934 -1353l6 2v1297h-163v54h217h163v-54h-163v-1402h-54l-934 1356l-6 -2v-1300h163v-54h-381z" />
    <glyph glyph-name="ncaron" unicode="&#x148;" horiz-adv-x="1320" 
d="M912 1560v-17l-218 -206h-65l-221 210v13h60l195 -186l190 186h59zM89 0v54h163v974h-163v54h209l7 -223q49 116 143 179.5t232 63.5q177 0 265.5 -111.5t88.5 -353.5v-583h163v-54h-380v54h163v585q0 225 -80.5 317t-218.5 92q-175 0 -264 -104.5t-111 -267.5v-622h163
v-54h-380z" />
    <glyph glyph-name="napostrophe" unicode="&#x149;" horiz-adv-x="1320" 
d="M95 1284l-37 32q32 44 46.5 83.5t14.5 95.5v65h54v-63q0 -67 -21 -119.5t-57 -93.5zM89 0v54h163v974h-163v54h209l7 -223q49 116 143 179.5t232 63.5q177 0 265.5 -111.5t88.5 -353.5v-583h163v-54h-380v54h163v585q0 225 -80.5 317t-218.5 92q-175 0 -264 -104.5
t-111 -267.5v-622h163v-54h-380z" />
    <glyph glyph-name="Eng" unicode="&#x14a;" horiz-adv-x="1537" 
d="M998 -437q-30 0 -56 5t-56 15l13 52q18 -7 45 -12.5t54 -5.5q110 0 170.5 77t60.5 217v89l-936 1356l-6 -2v-1300h163v-54h-380v54h163v1348h-163v54h217l936 -1355l6 2v1299h-163v54h380v-54h-163v-1491q0 -167 -75.5 -257.5t-209.5 -90.5z" />
    <glyph glyph-name="eng" unicode="&#x14b;" horiz-adv-x="1225" 
d="M752 -437q-36 0 -67 5t-66 15l13 52q21 -7 55 -13t65 -6q110 0 170.5 77.5t60.5 217.5v728q0 225 -80 317t-219 92q-174 0 -264 -103t-113 -265v-626h163v-54h-380v54h163v974h-163v54h211l6 -224q49 116 143 180t233 64q177 0 265.5 -111.5t88.5 -353.5v-726
q0 -167 -75.5 -257.5t-209.5 -90.5z" />
    <glyph glyph-name="Omacron" unicode="&#x14c;" horiz-adv-x="1488" 
d="M424 1683v53h627v-53h-627zM740 -21q-136 0 -248 52.5t-193 150t-125 233.5t-44 304v18q0 168 43.5 304t124.5 233.5t192.5 150t247.5 52.5q135 0 247 -52.5t193.5 -150t125.5 -233.5t44 -304v-18q0 -168 -44 -304.5t-124.5 -233.5t-192.5 -149.5t-247 -52.5zM740 33
q169 0 293.5 85t192.5 239.5t68 361.5v20q0 206 -68.5 360t-193.5 239t-294 85q-168 0 -292 -85t-192.5 -239t-68.5 -360v-20q0 -207 68.5 -361.5t193 -239.5t293.5 -85z" />
    <glyph glyph-name="omacron" unicode="&#x14d;" horiz-adv-x="1155" 
d="M264 1420v53h627v-53h-627zM579 -21q-141 0 -248 69t-167 191t-60 281v42q0 159 60 280.5t166.5 190.5t246.5 69q141 0 247.5 -69t166.5 -190.5t60 -280.5v-42q0 -159 -60 -281t-166.5 -191t-245.5 -69zM579 33q127 0 221 65.5t145.5 176t51.5 245.5v42q0 133 -52 243.5
t-146.5 176.5t-221.5 66t-221.5 -66t-146 -176.5t-51.5 -243.5v-42q0 -136 51.5 -246.5t146 -175.5t223.5 -65z" />
    <glyph glyph-name="Obreve" unicode="&#x14e;" horiz-adv-x="1488" 
d="M739 1581q-129 0 -202.5 66t-72.5 170l2 6h52q0 -84 53 -136t168 -52q110 0 165 53t55 135h52l2 -6q0 -104 -73 -170t-201 -66zM740 -21q-136 0 -248 52.5t-193 150t-125 233.5t-44 304v18q0 168 43.5 304t124.5 233.5t192.5 150t247.5 52.5q135 0 247 -52.5t193.5 -150
t125.5 -233.5t44 -304v-18q0 -168 -44 -304.5t-124.5 -233.5t-192.5 -149.5t-247 -52.5zM740 33q169 0 293.5 85t192.5 239.5t68 361.5v20q0 206 -68.5 360t-193.5 239t-294 85q-168 0 -292 -85t-192.5 -239t-68.5 -360v-20q0 -207 68.5 -361.5t193 -239.5t293.5 -85z" />
    <glyph glyph-name="obreve" unicode="&#x14f;" horiz-adv-x="1155" 
d="M579 1318q-129 0 -202.5 66t-72.5 170l2 6h52q0 -84 53 -136t168 -52q110 0 165 53t55 135h52l2 -6q0 -104 -73 -170t-201 -66zM579 -21q-141 0 -248 69t-167 191t-60 281v42q0 159 60 280.5t166.5 190.5t246.5 69q141 0 247.5 -69t166.5 -190.5t60 -280.5v-42
q0 -159 -60 -281t-166.5 -191t-245.5 -69zM579 33q127 0 221 65.5t145.5 176t51.5 245.5v42q0 133 -52 243.5t-146.5 176.5t-221.5 66t-221.5 -66t-146 -176.5t-51.5 -243.5v-42q0 -136 51.5 -246.5t146 -175.5t223.5 -65z" />
    <glyph glyph-name="Ohungarumlaut" unicode="&#x150;" horiz-adv-x="1488" 
d="M772 1587l-2 6l214 230h68l2 -6l-231 -230h-51zM537 1590l-2 5l179 228h64l3 -6l-196 -227h-48zM740 -21q-136 0 -248 52.5t-193 150t-125 233.5t-44 304v18q0 168 43.5 304t124.5 233.5t192.5 150t247.5 52.5q135 0 247 -52.5t193.5 -150t125.5 -233.5t44 -304v-18
q0 -168 -44 -304.5t-124.5 -233.5t-192.5 -149.5t-247 -52.5zM740 33q169 0 293.5 85t192.5 239.5t68 361.5v20q0 206 -68.5 360t-193.5 239t-294 85q-168 0 -292 -85t-192.5 -239t-68.5 -360v-20q0 -207 68.5 -361.5t193 -239.5t293.5 -85z" />
    <glyph glyph-name="ohungarumlaut" unicode="&#x151;" horiz-adv-x="1155" 
d="M612 1324l-2 6l214 230h68l2 -6l-231 -230h-51zM377 1327l-2 5l179 228h64l3 -6l-196 -227h-48zM579 -21q-141 0 -248 69t-167 191t-60 281v42q0 159 60 280.5t166.5 190.5t246.5 69q141 0 247.5 -69t166.5 -190.5t60 -280.5v-42q0 -159 -60 -281t-166.5 -191t-245.5 -69
zM579 33q127 0 221 65.5t145.5 176t51.5 245.5v42q0 133 -52 243.5t-146.5 176.5t-221.5 66t-221.5 -66t-146 -176.5t-51.5 -243.5v-42q0 -136 51.5 -246.5t146 -175.5t223.5 -65z" />
    <glyph glyph-name="OE" unicode="&#x152;" horiz-adv-x="2028" 
d="M786 -21q-152 0 -273 52.5t-206.5 150t-131 233.5t-45.5 304v18q0 168 45 304t130 233.5t206 150t273 52.5q59 0 130.5 -8t133.5 -23l-20 -53q-60 15 -124.5 22.5t-119.5 7.5q-189 0 -323 -85t-205 -239t-71 -360v-20q0 -208 71.5 -362t206 -239t323.5 -85q55 0 119 7.5
t123 22.5l20 -54q-61 -14 -132 -22t-130 -8zM926 0l66 44v1368l-66 44h952v-293h-54v239h-778v-616h630v-54h-630v-678h778v239h54v-293h-952z" />
    <glyph glyph-name="oe" unicode="&#x153;" horiz-adv-x="1994" 
d="M579 -21q-141 0 -248 69t-167 191t-60 281v42q0 159 60 280.5t166.5 190.5t246.5 69q165 0 284.5 -96t165.5 -259q45 161 161 258t265 97q122 0 215.5 -54.5t146 -153.5t52.5 -234v-83h-811v-77q0 -131 53 -236.5t143.5 -168t203.5 -62.5q81 0 143.5 14.5t111 44
t87.5 73.5l29 -42q-64 -71 -155.5 -107.5t-215.5 -36.5q-97 0 -184 44t-151 123.5t-95 184.5q-47 -163 -165.5 -257.5t-281.5 -94.5zM579 33q127 0 221 65.5t145.5 176t51.5 245.5v42q0 133 -52 243.5t-146.5 176.5t-221.5 66t-221.5 -66t-146 -176.5t-51.5 -243.5v-42
q0 -136 51.5 -246.5t146 -175.5t223.5 -65zM1067 631h746v33q0 110 -45.5 197t-126.5 137t-188 50t-191.5 -54t-136.5 -147t-61 -210z" />
    <glyph glyph-name="Racute" unicode="&#x154;" horiz-adv-x="1364" 
d="M622 1592l180 231h64l2 -5l-199 -231h-45zM71 -1v54h163v1348h-163v54h585q154 0 260.5 -44.5t162 -131t55.5 -214.5q0 -122 -60.5 -207.5t-169 -130t-252.5 -44.5h-364v-630h163v-54h-380zM1067 -1l-305 719h54l287 -665h133v-54h-169zM288 737h363q221 0 325 94
t104 234q0 163 -106.5 249.5t-317.5 86.5h-368v-664z" />
    <glyph glyph-name="racute" unicode="&#x155;" horiz-adv-x="823" 
d="M352 1329l180 231h64l2 -5l-199 -231h-45zM89 0v54h163v974h-163v54h207l10 -188v-37q45 116 134 180.5t219 64.5q23 0 52.5 -4t43.5 -8l-6 -48l-90 7q-145 0 -235.5 -93.5t-117.5 -246.5v-655h163v-54h-380z" />
    <glyph glyph-name="uni0156" unicode="&#x156;" horiz-adv-x="1364" 
d="M644 -531l-37 32q32 44 46.5 83.5t14.5 95.5v65h54v-63q0 -67 -21 -119.5t-57 -93.5zM71 -1v54h163v1348h-163v54h585q154 0 260.5 -44.5t162 -131t55.5 -214.5q0 -122 -60.5 -207.5t-169 -130t-252.5 -44.5h-364v-630h163v-54h-380zM1067 -1l-305 719h54l287 -665h133
v-54h-169zM288 737h363q221 0 325 94t104 234q0 163 -106.5 249.5t-317.5 86.5h-368v-664z" />
    <glyph glyph-name="uni0157" unicode="&#x157;" horiz-adv-x="823" 
d="M240 -531l-37 32q32 44 46.5 83.5t14.5 95.5v65h54v-63q0 -67 -21 -119.5t-57 -93.5zM89 0v54h163v974h-163v54h207l10 -188v-37q45 116 134 180.5t219 64.5q23 0 52.5 -4t43.5 -8l-6 -48l-90 7q-145 0 -235.5 -93.5t-117.5 -246.5v-655h163v-54h-380z" />
    <glyph glyph-name="Rcaron" unicode="&#x158;" horiz-adv-x="1364" 
d="M934 1823v-17l-218 -206h-65l-221 210v13h60l195 -186l190 186h59zM71 -1v54h163v1348h-163v54h585q154 0 260.5 -44.5t162 -131t55.5 -214.5q0 -122 -60.5 -207.5t-169 -130t-252.5 -44.5h-364v-630h163v-54h-380zM1067 -1l-305 719h54l287 -665h133v-54h-169zM288 737
h363q221 0 325 94t104 234q0 163 -106.5 249.5t-317.5 86.5h-368v-664z" />
    <glyph glyph-name="rcaron" unicode="&#x159;" horiz-adv-x="823" 
d="M664 1560v-17l-218 -206h-65l-221 210v13h60l195 -186l190 186h59zM89 0v54h163v974h-163v54h207l10 -188v-37q45 116 134 180.5t219 64.5q23 0 52.5 -4t43.5 -8l-6 -48l-90 7q-145 0 -235.5 -93.5t-117.5 -246.5v-655h163v-54h-380z" />
    <glyph glyph-name="Sacute" unicode="&#x15a;" horiz-adv-x="1183" 
d="M532 1592l180 231h64l2 -5l-199 -231h-45zM589 -21q-117 0 -243.5 37t-245.5 117v257h54v-226q108 -68 219 -99.5t216 -31.5q128 0 227 40t155.5 111.5t56.5 164.5q0 92 -43.5 160t-141.5 121t-264 99t-264 98t-140.5 124t-42.5 178q0 104 56 182t157.5 122t236.5 44
q141 0 254.5 -42t198.5 -113v-234h-54v204q-78 65 -180 98t-219 33q-127 0 -215.5 -40.5t-134.5 -107t-46 -144.5q0 -82 33 -144.5t121 -111.5t254 -94q242 -65 365.5 -161.5t123.5 -268.5q0 -115 -64.5 -198.5t-176 -128.5t-253.5 -45z" />
    <glyph glyph-name="sacute" unicode="&#x15b;" horiz-adv-x="1009" 
d="M445 1329l180 231h64l2 -5l-199 -231h-45zM487 -21q-118 0 -217.5 38t-166.5 105v193h54v-163q59 -63 146 -91t184 -28q150 0 238 70t88 162q0 86 -73.5 156.5t-256.5 110.5q-191 40 -272.5 105t-81.5 189q0 78 42 140.5t120.5 99t186.5 36.5q116 0 204.5 -40t149.5 -107
v-202h-54v175q-52 58 -123 89t-177 31q-147 0 -221 -68t-74 -152q0 -58 24.5 -102t92.5 -78.5t199 -63.5q182 -40 275 -115t93 -205q0 -127 -104 -206t-276 -79z" />
    <glyph glyph-name="Scircumflex" unicode="&#x15c;" horiz-adv-x="1183" 
d="M340 1600v17l218 206h65l221 -210v-13h-60l-195 186l-190 -186h-59zM589 -21q-117 0 -243.5 37t-245.5 117v257h54v-226q108 -68 219 -99.5t216 -31.5q128 0 227 40t155.5 111.5t56.5 164.5q0 92 -43.5 160t-141.5 121t-264 99t-264 98t-140.5 124t-42.5 178
q0 104 56 182t157.5 122t236.5 44q141 0 254.5 -42t198.5 -113v-234h-54v204q-78 65 -180 98t-219 33q-127 0 -215.5 -40.5t-134.5 -107t-46 -144.5q0 -82 33 -144.5t121 -111.5t254 -94q242 -65 365.5 -161.5t123.5 -268.5q0 -115 -64.5 -198.5t-176 -128.5t-253.5 -45z
" />
    <glyph glyph-name="scircumflex" unicode="&#x15d;" horiz-adv-x="1009" 
d="M253 1337v17l218 206h65l221 -210v-13h-60l-195 186l-190 -186h-59zM487 -21q-118 0 -217.5 38t-166.5 105v193h54v-163q59 -63 146 -91t184 -28q150 0 238 70t88 162q0 86 -73.5 156.5t-256.5 110.5q-191 40 -272.5 105t-81.5 189q0 78 42 140.5t120.5 99t186.5 36.5
q116 0 204.5 -40t149.5 -107v-202h-54v175q-52 58 -123 89t-177 31q-147 0 -221 -68t-74 -152q0 -58 24.5 -102t92.5 -78.5t199 -63.5q182 -40 275 -115t93 -205q0 -127 -104 -206t-276 -79z" />
    <glyph glyph-name="Scedilla" unicode="&#x15e;" horiz-adv-x="1183" 
d="M474 -435l-7 49q104 0 180.5 36t76.5 105q0 64 -45.5 89t-163.5 35l25 121h53l-11 -76q91 -7 144 -45.5t53 -123.5q0 -87 -79 -138.5t-226 -51.5zM589 -21q-117 0 -243.5 37t-245.5 117v257h54v-226q108 -68 219 -99.5t216 -31.5q128 0 227 40t155.5 111.5t56.5 164.5
q0 92 -43.5 160t-141.5 121t-264 99t-264 98t-140.5 124t-42.5 178q0 104 56 182t157.5 122t236.5 44q141 0 254.5 -42t198.5 -113v-234h-54v204q-78 65 -180 98t-219 33q-127 0 -215.5 -40.5t-134.5 -107t-46 -144.5q0 -82 33 -144.5t121 -111.5t254 -94
q242 -65 365.5 -161.5t123.5 -268.5q0 -115 -64.5 -198.5t-176 -128.5t-253.5 -45z" />
    <glyph glyph-name="scedilla" unicode="&#x15f;" horiz-adv-x="1009" 
d="M386 -435l-7 49q104 0 180.5 36t76.5 105q0 64 -45.5 89t-163.5 35l25 121h53l-11 -76q91 -7 144 -45.5t53 -123.5q0 -87 -79 -138.5t-226 -51.5zM487 -21q-118 0 -217.5 38t-166.5 105v193h54v-163q59 -63 146 -91t184 -28q150 0 238 70t88 162q0 86 -73.5 156.5
t-256.5 110.5q-191 40 -272.5 105t-81.5 189q0 78 42 140.5t120.5 99t186.5 36.5q116 0 204.5 -40t149.5 -107v-202h-54v175q-52 58 -123 89t-177 31q-147 0 -221 -68t-74 -152q0 -58 24.5 -102t92.5 -78.5t199 -63.5q182 -40 275 -115t93 -205q0 -127 -104 -206t-276 -79z
" />
    <glyph glyph-name="Scaron" unicode="&#x160;" horiz-adv-x="1183" 
d="M844 1823v-17l-218 -206h-65l-221 210v13h60l195 -186l190 186h59zM589 -21q-117 0 -243.5 37t-245.5 117v257h54v-226q108 -68 219 -99.5t216 -31.5q128 0 227 40t155.5 111.5t56.5 164.5q0 92 -43.5 160t-141.5 121t-264 99t-264 98t-140.5 124t-42.5 178q0 104 56 182
t157.5 122t236.5 44q141 0 254.5 -42t198.5 -113v-234h-54v204q-78 65 -180 98t-219 33q-127 0 -215.5 -40.5t-134.5 -107t-46 -144.5q0 -82 33 -144.5t121 -111.5t254 -94q242 -65 365.5 -161.5t123.5 -268.5q0 -115 -64.5 -198.5t-176 -128.5t-253.5 -45z" />
    <glyph glyph-name="scaron" unicode="&#x161;" horiz-adv-x="1009" 
d="M757 1560v-17l-218 -206h-65l-221 210v13h60l195 -186l190 186h59zM487 -21q-118 0 -217.5 38t-166.5 105v193h54v-163q59 -63 146 -91t184 -28q150 0 238 70t88 162q0 86 -73.5 156.5t-256.5 110.5q-191 40 -272.5 105t-81.5 189q0 78 42 140.5t120.5 99t186.5 36.5
q116 0 204.5 -40t149.5 -107v-202h-54v175q-52 58 -123 89t-177 31q-147 0 -221 -68t-74 -152q0 -58 24.5 -102t92.5 -78.5t199 -63.5q182 -40 275 -115t93 -205q0 -127 -104 -206t-276 -79z" />
    <glyph glyph-name="uni0162" unicode="&#x162;" horiz-adv-x="1277" 
d="M521 -435l-7 49q104 0 180.5 36t76.5 105q0 64 -45.5 89t-163.5 35l25 121h53l-11 -76q91 -7 144 -45.5t53 -123.5q0 -87 -79 -138.5t-226 -51.5zM447 0v54h163v1348h-476v-239h-54v293h1114v-293h-54v239h-476v-1348h163v-54h-380z" />
    <glyph glyph-name="uni0163" unicode="&#x163;" horiz-adv-x="719" 
d="M345 -435l-7 49q104 0 180.5 36t76.5 105q0 64 -45.5 89t-163.5 35l25 121h53l-11 -76q91 -7 144 -45.5t53 -123.5q0 -87 -79 -138.5t-226 -51.5zM487 -21q-109 0 -165.5 71t-56.5 229v748h-200v55h200v292h55v-292h266v-55h-266v-748q0 -133 45 -189.5t119 -56.5
q32 0 57 2t69 7l10 -49q-30 -8 -61.5 -11t-71.5 -3z" />
    <glyph glyph-name="Tcaron" unicode="&#x164;" horiz-adv-x="1277" 
d="M891 1823v-17l-218 -206h-65l-221 210v13h60l195 -186l190 186h59zM447 0v54h163v1348h-476v-239h-54v293h1114v-293h-54v239h-476v-1348h163v-54h-380z" />
    <glyph glyph-name="tcaron" unicode="&#x165;" horiz-adv-x="719" 
d="M548 1284l-37 32q32 44 46.5 83.5t14.5 95.5v65h54v-63q0 -67 -21 -119.5t-57 -93.5zM487 -21q-109 0 -165.5 71t-56.5 229v748h-200v55h200v292h55v-292h266v-55h-266v-748q0 -133 45 -189.5t119 -56.5q32 0 57 2t69 7l10 -49q-30 -8 -61.5 -11t-71.5 -3z" />
    <glyph glyph-name="Tbar" unicode="&#x166;" horiz-adv-x="1277" 
d="M378 708v54h521v-54h-521zM447 0v54h163v1348h-476v-239h-54v293h1114v-293h-54v239h-476v-1348h163v-54h-380z" />
    <glyph glyph-name="tbar" unicode="&#x167;" horiz-adv-x="719" 
d="M64 635v54h521v-54h-521zM487 -21q-109 0 -165.5 71t-56.5 229v748h-200v55h200v292h55v-292h266v-55h-266v-748q0 -133 45 -189.5t119 -56.5q32 0 57 2t69 7l10 -49q-30 -8 -61.5 -11t-71.5 -3z" />
    <glyph glyph-name="Utilde" unicode="&#x168;" horiz-adv-x="1441" 
d="M454 1635h-53q0 55 22.5 95.5t60 63.5t82.5 23q58 0 112.5 -31t104.5 -62.5t94 -31.5q41 0 75.5 34.5t34.5 96.5h53q0 -54 -22 -96t-58 -65.5t-80 -23.5q-57 0 -111.5 31.5t-105.5 63t-98 31.5q-43 0 -77 -33t-34 -96zM721 -21q-149 0 -261 56.5t-174.5 166t-62.5 267.5
v933h-163v54h380v-54h-163v-933q0 -137 56.5 -234.5t156.5 -149.5t231 -52q130 0 230 52t156.5 149.5t56.5 234.5v933h-163v54h380v-54h-163v-933q0 -159 -63 -268t-175 -165.5t-259 -56.5z" />
    <glyph glyph-name="utilde" unicode="&#x169;" horiz-adv-x="1202" 
d="M334 1372h-53q0 55 22.5 95.5t60 63.5t82.5 23q58 0 112.5 -31t104.5 -62.5t94 -31.5q41 0 75.5 34.5t34.5 96.5h53q0 -54 -22 -96t-58 -65.5t-80 -23.5q-57 0 -111.5 31.5t-105.5 63t-98 31.5q-43 0 -77 -33t-34 -96zM533 -21q-164 0 -255 118.5t-91 367.5v563h-143v54
h143h54v-619q0 -220 77.5 -325t212.5 -105q169 0 254.5 83t110.5 220v692h-163v54h163h55v-1028h163v-54h-208l-8 194q-51 -103 -140.5 -159t-224.5 -56z" />
    <glyph glyph-name="Umacron" unicode="&#x16a;" horiz-adv-x="1441" 
d="M407 1683v53h627v-53h-627zM721 -21q-149 0 -261 56.5t-174.5 166t-62.5 267.5v933h-163v54h380v-54h-163v-933q0 -137 56.5 -234.5t156.5 -149.5t231 -52q130 0 230 52t156.5 149.5t56.5 234.5v933h-163v54h380v-54h-163v-933q0 -159 -63 -268t-175 -165.5t-259 -56.5z
" />
    <glyph glyph-name="umacron" unicode="&#x16b;" horiz-adv-x="1202" 
d="M287 1420v53h627v-53h-627zM533 -21q-164 0 -255 118.5t-91 367.5v563h-143v54h143h54v-619q0 -220 77.5 -325t212.5 -105q169 0 254.5 83t110.5 220v692h-163v54h163h55v-1028h163v-54h-208l-8 194q-51 -103 -140.5 -159t-224.5 -56z" />
    <glyph glyph-name="Ubreve" unicode="&#x16c;" horiz-adv-x="1441" 
d="M722 1581q-129 0 -202.5 66t-72.5 170l2 6h52q0 -84 53 -136t168 -52q110 0 165 53t55 135h52l2 -6q0 -104 -73 -170t-201 -66zM721 -21q-149 0 -261 56.5t-174.5 166t-62.5 267.5v933h-163v54h380v-54h-163v-933q0 -137 56.5 -234.5t156.5 -149.5t231 -52q130 0 230 52
t156.5 149.5t56.5 234.5v933h-163v54h380v-54h-163v-933q0 -159 -63 -268t-175 -165.5t-259 -56.5z" />
    <glyph glyph-name="ubreve" unicode="&#x16d;" horiz-adv-x="1202" 
d="M602 1318q-129 0 -202.5 66t-72.5 170l2 6h52q0 -84 53 -136t168 -52q110 0 165 53t55 135h52l2 -6q0 -104 -73 -170t-201 -66zM533 -21q-164 0 -255 118.5t-91 367.5v563h-143v54h143h54v-619q0 -220 77.5 -325t212.5 -105q169 0 254.5 83t110.5 220v692h-163v54h163h55
v-1028h163v-54h-208l-8 194q-51 -103 -140.5 -159t-224.5 -56z" />
    <glyph glyph-name="Uring" unicode="&#x16e;" horiz-adv-x="1441" 
d="M721 1475q-72 0 -121.5 48.5t-49.5 121.5q0 74 49.5 124t121.5 50q71 0 121 -50t50 -124q0 -73 -50 -121.5t-121 -48.5zM721 1529q51 0 84 32t33 84q0 53 -33 86.5t-84 33.5t-84 -33.5t-33 -86.5q0 -52 33 -84t84 -32zM721 -21q-149 0 -261 56.5t-174.5 166t-62.5 267.5
v933h-163v54h380v-54h-163v-933q0 -137 56.5 -234.5t156.5 -149.5t231 -52q130 0 230 52t156.5 149.5t56.5 234.5v933h-163v54h380v-54h-163v-933q0 -159 -63 -268t-175 -165.5t-259 -56.5z" />
    <glyph glyph-name="uring" unicode="&#x16f;" horiz-adv-x="1202" 
d="M601 1212q-72 0 -121.5 48.5t-49.5 121.5q0 74 49.5 124t121.5 50q71 0 121 -50t50 -124q0 -73 -50 -121.5t-121 -48.5zM601 1266q51 0 84 32t33 84q0 53 -33 86.5t-84 33.5t-84 -33.5t-33 -86.5q0 -52 33 -84t84 -32zM533 -21q-164 0 -255 118.5t-91 367.5v563h-143v54
h143h54v-619q0 -220 77.5 -325t212.5 -105q169 0 254.5 83t110.5 220v692h-163v54h163h55v-1028h163v-54h-208l-8 194q-51 -103 -140.5 -159t-224.5 -56z" />
    <glyph glyph-name="Uhungarumlaut" unicode="&#x170;" horiz-adv-x="1441" 
d="M755 1587l-2 6l214 230h68l2 -6l-231 -230h-51zM520 1590l-2 5l179 228h64l3 -6l-196 -227h-48zM721 -21q-149 0 -261 56.5t-174.5 166t-62.5 267.5v933h-163v54h380v-54h-163v-933q0 -137 56.5 -234.5t156.5 -149.5t231 -52q130 0 230 52t156.5 149.5t56.5 234.5v933
h-163v54h380v-54h-163v-933q0 -159 -63 -268t-175 -165.5t-259 -56.5z" />
    <glyph glyph-name="uhungarumlaut" unicode="&#x171;" horiz-adv-x="1202" 
d="M635 1324l-2 6l214 230h68l2 -6l-231 -230h-51zM400 1327l-2 5l179 228h64l3 -6l-196 -227h-48zM533 -21q-164 0 -255 118.5t-91 367.5v563h-143v54h143h54v-619q0 -220 77.5 -325t212.5 -105q169 0 254.5 83t110.5 220v692h-163v54h163h55v-1028h163v-54h-208l-8 194
q-51 -103 -140.5 -159t-224.5 -56z" />
    <glyph glyph-name="Uogonek" unicode="&#x172;" horiz-adv-x="1441" 
d="M759 -423q-74 0 -121 45.5t-47 127.5q0 65 40 127.5t136 142.5l52 -20q-89 -79 -131.5 -132.5t-42.5 -117.5q0 -37 22 -78t92 -41q32 0 56.5 10.5t49.5 27.5l16 -48q-24 -18 -54 -31t-68 -13zM721 -21q-149 0 -261 56.5t-174.5 166t-62.5 267.5v933h-163v54h380v-54h-163
v-933q0 -137 56.5 -234.5t156.5 -149.5t231 -52q130 0 230 52t156.5 149.5t56.5 234.5v933h-163v54h380v-54h-163v-933q0 -159 -63 -268t-175 -165.5t-259 -56.5z" />
    <glyph glyph-name="uogonek" unicode="&#x173;" horiz-adv-x="1202" 
d="M1054 -423q-74 0 -121 45.5t-47 127.5q0 65 40 127.5t136 142.5l52 -20q-89 -79 -131.5 -132.5t-42.5 -117.5q0 -37 22 -78t92 -41q32 0 56.5 10.5t49.5 27.5l16 -48q-24 -18 -54 -31t-68 -13zM533 -21q-164 0 -255 118.5t-91 367.5v563h-143v54h143h54v-619
q0 -220 77.5 -325t212.5 -105q169 0 254.5 83t110.5 220v692h-163v54h163h55v-1028h163v-54h-208l-8 194q-51 -103 -140.5 -159t-224.5 -56z" />
    <glyph glyph-name="Wcircumflex" unicode="&#x174;" horiz-adv-x="2000" 
d="M761 1600v17l218 206h65l221 -210v-13h-60l-195 186l-190 -186h-59zM517 0l-359 1402h-101v54h320v-54h-160l269 -1072l63 -229h6l63 229l364 1126h60l362 -1126l62 -229h6l65 229l266 1072h-159v54h319v-54h-101l-358 -1402h-61l-381 1214l-48 145h-6l-46 -145
l-384 -1214h-61z" />
    <glyph glyph-name="wcircumflex" unicode="&#x175;" horiz-adv-x="1787" 
d="M642 1337v17l218 206h65l221 -210v-13h-60l-195 186l-190 -186h-59zM492 0l-318 1028h-122v54h332v-54h-148l217 -715l65 -221l6 -1l70 222l257 769h55l264 -769l75 -223l6 1l67 222l216 715h-148v54h333v-54h-123l-319 -1028h-55l-282 813l-59 181h-6l-55 -181
l-273 -813h-55z" />
    <glyph glyph-name="Ycircumflex" unicode="&#x176;" horiz-adv-x="1429" 
d="M463 1600v17l218 206h65l221 -210v-13h-60l-195 186l-190 -186h-59zM526 0v54h163v499l-515 849h-119v54h326v-54h-141l449 -755l26 -50l1 2l26 48l451 755h-141v54h326v-54h-120l-514 -849v-499h163v-54h-381z" />
    <glyph glyph-name="ycircumflex" unicode="&#x177;" horiz-adv-x="1185" 
d="M341 1337v17l218 206h65l221 -210v-13h-60l-195 186l-190 -186h-59zM283 -437q-19 0 -42 3.5t-34 7.5l9 51q11 -3 33 -6t34 -3q92 0 143.5 54t91.5 160l65 176l-410 1022h-118v54h319v-54h-142l335 -832l40 -108h6l359 940h-142v54h320v-54h-118l-460 -1208
q-29 -76 -63.5 -134t-87.5 -90.5t-138 -32.5z" />
    <glyph glyph-name="Ydieresis" unicode="&#x178;" horiz-adv-x="1429" 
d="M838 1685v138h72v-138h-72zM518 1685v138h73v-138h-73zM526 0v54h163v499l-515 849h-119v54h326v-54h-141l449 -755l26 -50l1 2l26 48l451 755h-141v54h326v-54h-120l-514 -849v-499h163v-54h-381z" />
    <glyph glyph-name="Zacute" unicode="&#x179;" horiz-adv-x="1220" 
d="M550 1592l180 231h64l2 -5l-199 -231h-45zM92 0v44l929 1359h-835v-240h-54v293h964v-38l-930 -1364h908v239h54v-293h-1036z" />
    <glyph glyph-name="zacute" unicode="&#x17a;" horiz-adv-x="1077" 
d="M479 1329l180 231h64l2 -5l-199 -231h-45zM120 0v44l711 983h-656v-238h-54v293h783v-48l-711 -980h716v239h54v-293h-843z" />
    <glyph glyph-name="Zdotaccent" unicode="&#x17b;" horiz-adv-x="1220" 
d="M573 1683v140h72v-140h-72zM92 0v44l929 1359h-835v-240h-54v293h964v-38l-930 -1364h908v239h54v-293h-1036z" />
    <glyph glyph-name="zdotaccent" unicode="&#x17c;" horiz-adv-x="1077" 
d="M502 1420v140h72v-140h-72zM120 0v44l711 983h-656v-238h-54v293h783v-48l-711 -980h716v239h54v-293h-843z" />
    <glyph glyph-name="Zcaron" unicode="&#x17d;" horiz-adv-x="1220" 
d="M862 1823v-17l-218 -206h-65l-221 210v13h60l195 -186l190 186h59zM92 0v44l929 1359h-835v-240h-54v293h964v-38l-930 -1364h908v239h54v-293h-1036z" />
    <glyph glyph-name="zcaron" unicode="&#x17e;" horiz-adv-x="1077" 
d="M791 1560v-17l-218 -206h-65l-221 210v13h60l195 -186l190 186h59zM120 0v44l711 983h-656v-238h-54v293h783v-48l-711 -980h716v239h54v-293h-843z" />
    <glyph glyph-name="longs" unicode="&#x17f;" horiz-adv-x="699" 
d="M57 0v54h163v1206q0 154 74 237.5t208 83.5q34 0 66.5 -4t61.5 -13l-8 -52q-30 8 -55.5 11.5t-63.5 3.5q-108 0 -168.5 -70.5t-60.5 -196.5v-1206h163v-54h-380z" />
    <glyph glyph-name="uni0180" unicode="&#x180;" horiz-adv-x="615" 
d="M339 545q106 0 163.5 -73t57.5 -204q0 -133 -58.5 -205.5t-162.5 -72.5q-54 0 -96.5 19.5t-69.5 58.5h-7q-15 -59 -18 -68h-63v605h-76v66h76v89h88v-89h213v-66h-213v-30q0 -55 -5 -110h5q54 80 166 80zM324 472q-81 0 -116 -46t-35 -155v-4q0 -110 36 -157t117 -47
q72 0 107.5 53t35.5 153q0 102 -35.5 152.5t-109.5 50.5z" />
    <glyph glyph-name="uni0181" unicode="&#x181;" horiz-adv-x="729" 
d="M151 637q-61 0 -61 -50q0 -30 10 -54h-79q-4 10 -7.5 26.5t-3.5 28.5q0 65 34.5 95.5t106.5 30.5h230q144 0 207.5 -43t63.5 -134q0 -63 -34.5 -104.5t-101.5 -53.5v-5q82 -14 121 -57t39 -114q0 -96 -66 -149.5t-182 -53.5h-251v637h-26zM267 410h132q84 0 122 27t38 90
q0 59 -41.5 84.5t-132.5 25.5h-118v-227zM267 335v-259h144q86 0 127.5 33.5t41.5 100.5q0 64 -44 94.5t-132 30.5h-137z" />
    <glyph glyph-name="uni0182" unicode="&#x182;" horiz-adv-x="615" 
d="M70 0v54h163v1348h-163v54h1025v-293h-54v239h-754v-614h369q151 0 256.5 -49t160 -137.5t54.5 -207.5q0 -120 -54.5 -208.5t-160 -137t-256.5 -48.5h-586zM287 54h369q209 0 312.5 96t103.5 246q0 144 -104 241t-312 97h-369v-680z" />
    <glyph glyph-name="uni0183" unicode="&#x183;" horiz-adv-x="615" 
d="M339 545q106 0 163.5 -73t57.5 -204q0 -133 -58.5 -205.5t-162.5 -72.5q-54 0 -96.5 19.5t-69.5 58.5h-7q-15 -59 -18 -68h-63v760h421v-74h-333v-111q0 -55 -5 -110h5q54 80 166 80zM324 472q-81 0 -116 -46t-35 -155v-4q0 -110 36 -157t117 -47q72 0 107.5 53t35.5 153
q0 102 -35.5 152.5t-109.5 50.5z" />
    <glyph glyph-name="uni0184" unicode="&#x184;" horiz-adv-x="634" 
d="M180 210q0 -77 37.5 -110t122.5 -33q80 0 115.5 35.5t35.5 102.5q0 69 -48 99t-140 30h-123v-124zM90 714h90v-302h134q129 0 199.5 -53t70.5 -154t-63.5 -158t-179.5 -57q-251 0 -251 220v504z" />
    <glyph glyph-name="uni0185" unicode="&#x185;" horiz-adv-x="611" 
d="M322 -10q-115 0 -177.5 72.5t-62.5 204.5v493h88v-185q0 -55 -5 -110h5q54 80 166 80q106 0 163.5 -73t57.5 -204q0 -134 -61 -206t-174 -72zM170 265q0 -96 40.5 -149t112.5 -53t107.5 53t35.5 153q0 102 -35.5 152.5t-109.5 50.5q-81 0 -116 -46t-35 -155v-6z" />
    <glyph glyph-name="uni0186" unicode="&#x186;" horiz-adv-x="631" 
d="M243 724q158 0 243 -96t85 -272q0 -110 -39.5 -192.5t-114.5 -128t-174 -45.5q-55 0 -98 6.5t-86 22.5v78q94 -28 170 -28q115 0 181 77t66 211q0 137 -63.5 212.5t-183.5 75.5q-77 0 -162 -39l-36 76q84 42 212 42z" />
    <glyph glyph-name="uni0187" unicode="&#x187;" horiz-adv-x="631" 
d="M403 645q-115 0 -181 -77t-66 -211q0 -138 64 -213t182 -75q76 0 171 28v-78q-45 -17 -87 -23t-97 -6q-158 0 -243 96t-85 272q0 110 41 193t118.5 128t183.5 45q61 0 117 -14v14q0 64 27 99t88 35q30 0 60 -13v-72q-24 10 -52 10q-47 0 -47 -48v-51l-36 -78
q-33 15 -71.5 27t-86.5 12z" />
    <glyph glyph-name="uni0188" unicode="&#x188;" horiz-adv-x="502" 
d="M300 -10q-116 0 -180.5 71t-64.5 204q0 135 65.5 208t185.5 73q27 0 65 -6v91q0 64 26.5 99t88.5 35q29 0 60 -13v-73q-23 10 -52 10q-47 0 -47 -48v-124l-27 -73q-68 25 -116 25q-81 0 -119.5 -51t-38.5 -152q0 -97 38.5 -148.5t114.5 -51.5q71 0 139 31v-78
q-55 -29 -138 -29z" />
    <glyph glyph-name="uni0189" unicode="&#x189;" horiz-adv-x="729" 
d="M71 716v54h521v-54h-521zM71 0v54h163v1348h-163v54h163h395q179 0 318.5 -92.5t220 -254.5t80.5 -372v-18q0 -210 -80.5 -372t-220 -254.5t-318.5 -92.5h-558zM288 54h341q163 0 290.5 86.5t201 237t73.5 341.5v21q0 190 -73.5 339.5t-201 236t-290.5 86.5h-341v-1348z
" />
    <glyph glyph-name="uni018A" unicode="&#x18a;" horiz-adv-x="810" 
d="M654 361q0 136 -67 206t-203 70h-117v-560h97q290 0 290 284zM397 714q168 0 260 -92.5t92 -257.5q0 -177 -96.5 -270.5t-276.5 -93.5h-199v637h-26q-61 0 -61 -50q0 -30 10 -54h-79q-4 10 -7.5 26.5t-3.5 28.5q0 65 34.5 95.5t106.5 30.5h246z" />
    <glyph glyph-name="uni018B" unicode="&#x18b;" horiz-adv-x="615" 
d="M428 335h-82q-106 0 -154 -32t-48 -101q0 -63 44 -94t139 -31h101v258zM518 714v-714h-199q-268 0 -268 198q0 103 73.5 158.5t211.5 55.5h92v223h-334v79h424z" />
    <glyph glyph-name="uni018C" unicode="&#x18c;" horiz-adv-x="615" 
d="M289 63q80 0 117 43.5t37 143.5v16q0 112 -37.5 159.5t-117.5 47.5q-68 0 -105 -54t-37 -154t37 -151t106 -51zM530 0h-71l-13 72h-4q-56 -82 -167 -82q-104 0 -162 72.5t-58 204.5q0 131 58 205t163 74q108 0 166 -79h6q-1 10 -3.5 39.5t-2.5 39.5v140h-333v74h421v-760
z" />
    <glyph glyph-name="uni018D" unicode="&#x18d;" horiz-adv-x="604" 
d="M341 294q66 -38 95 -77t29 -87q0 -64 -48 -102t-132 -38q-51 0 -97 11.5t-109 42.5l38 69q37 -21 79 -36t93 -15q40 0 63.5 18.5t23.5 50.5q0 34 -26.5 60t-107.5 70q-104 57 -146 117t-42 136q0 115 66 180.5t184 65.5q112 0 179 -60.5t67 -163.5q0 -87 -54 -149.5
t-155 -92.5zM145 515q0 -62 30 -105.5t96 -77.5q92 22 139.5 74t47.5 131q0 67 -41.5 108.5t-112.5 41.5q-77 0 -118 -44.5t-41 -127.5z" />
    <glyph glyph-name="uni018E" unicode="&#x18e;" horiz-adv-x="556" 
d="M60 79h309v255h-291v78h291v223h-309v79h399v-714h-399v79z" />
    <glyph glyph-name="uni018F" unicode="&#x18f;" horiz-adv-x="1388" 
d="M676 -21q-182 0 -316.5 74.5t-208 211.5t-73.5 323v123h1117v124q0 174 -60.5 306.5t-181.5 207t-303 74.5q-141 0 -255.5 -41t-199.5 -113l-30 43q88 75 198.5 120t286.5 45q190 0 323.5 -80.5t204.5 -224.5t71 -337v-172q0 -200 -74.5 -354.5t-203.5 -242t-295 -87.5z
M676 33q157 0 272.5 81t179 221t62.5 316l-2 5h-1056v-72q0 -159 65.5 -283.5t187.5 -196t291 -71.5z" />
    <glyph glyph-name="uni0190" unicode="&#x190;" horiz-adv-x="587" 
d="M87 547q0 82 60.5 129.5t166.5 47.5q64 0 124 -18.5t109 -55.5l-43 -61q-52 36 -94 48.5t-94 12.5q-63 0 -99.5 -30.5t-36.5 -81.5q0 -60 48 -95.5t145 -35.5h97v-75h-102q-110 0 -165 -33t-55 -97q0 -67 48.5 -102.5t139.5 -35.5q105 0 214 52v-82q-90 -44 -219 -44
q-135 0 -206 52t-71 153q0 76 46.5 121t137.5 57v4q-72 12 -111.5 56.5t-39.5 113.5z" />
    <glyph glyph-name="uni0191" unicode="&#x191;" horiz-adv-x="519" 
d="M45 -240q-32 0 -56 13v76q21 -10 45 -10q35 0 49 20t14 62v793h399v-79h-309v-253h290v-79h-290v-386q0 -157 -142 -157z" />
    <glyph glyph-name="florin" unicode="&#x192;" horiz-adv-x="780" 
d="M109 -437q-30 0 -56 5t-56 15l13 52q18 -6 45.5 -12t53.5 -6q110 0 170.5 76.5t60.5 217.5v1116h-188v55h188v178q0 153 74.5 237t208.5 84q33 0 65.5 -4t62.5 -13l-8 -52q-32 8 -56.5 11.5t-62.5 3.5q-108 0 -169 -71t-61 -196v-178h286v-55h-286v-1116
q0 -167 -75 -257.5t-210 -90.5z" />
    <glyph glyph-name="uni0193" unicode="&#x193;" horiz-adv-x="728" 
d="M407 377h247v-350q-57 -18 -115.5 -27.5t-135.5 -9.5q-163 0 -252.5 97t-89.5 270q0 112 44.5 195.5t128 127.5t197.5 44q71 0 137 -17v17q0 64 27 99t88 35q29 0 60 -13v-72q-24 10 -52 10q-47 0 -47 -48v-53l-34 -78q-94 41 -184 41q-127 0 -199 -77t-72 -211
q0 -142 68.5 -215.5t200.5 -73.5q72 0 140 17v212h-157v80z" />
    <glyph glyph-name="uni0194" unicode="&#x194;" horiz-adv-x="569" 
d="M334 108q33 -65 50 -121t17 -94q0 -59 -32 -96t-84 -37q-54 0 -85 37.5t-31 95.5q0 78 67 214l-236 607h94q89 -237 136.5 -362t54.5 -167q10 51 50 158l140 371h95zM319 -105q0 26 -8.5 62t-25.5 68q-19 -38 -26.5 -72t-7.5 -56q0 -31 9.5 -45t24.5 -14q34 0 34 57z" />
    <glyph glyph-name="uni0195" unicode="&#x195;" horiz-adv-x="934" 
d="M639 63q67 0 96.5 36t29.5 113v324h88v-327q0 -114 -51 -166.5t-163 -52.5q-110 0 -162 48.5t-52 147.5v157q0 65 -26 97t-83 32q-74 0 -108.5 -45.5t-34.5 -149.5v-277h-88v760h88v-223q0 -44 -5 -75h6q24 42 66 62.5t90 20.5q91 0 137 -46.5t46 -149.5v-157
q0 -65 30.5 -97t95.5 -32z" />
    <glyph glyph-name="uni0196" unicode="&#x196;" horiz-adv-x="348" 
d="M179 714v-549q0 -48 18 -72t59 -24q21 0 44 3.5t38 7.5v-74q-13 -6 -40 -11t-55 -5q-80 0 -116.5 41.5t-36.5 125.5v557h89z" />
    <glyph glyph-name="uni0197" unicode="&#x197;" horiz-adv-x="338" 
d="M298 0h-258v52l84 19v256h-90v78h90v237l-84 20v52h258v-52l-84 -20v-237h90v-78h-90v-256l84 -19v-52z" />
    <glyph glyph-name="uni0198" unicode="&#x198;" horiz-adv-x="619" 
d="M327 405l292 -405h-106q-30 40 -121 172q-71 103 -126 170l-79 -77v-265h-90v714h90v-360q28 35 60 72q21 24 185 225q29 38 54.5 53.5t66.5 15.5q30 0 50 -8v-70q-21 3 -44 3q-17 0 -31.5 -10t-36.5 -36z" />
    <glyph glyph-name="uni0199" unicode="&#x199;" horiz-adv-x="534" 
d="M172 363l-4 -87h4l30 38l34 41l171 181h103l-217 -229l232 -307h-106l-186 250l-61 -53v-197h-87v625q0 140 121 140q33 0 65 -13v-73q-23 10 -52 10q-23 0 -35 -13t-12 -45v-268z" />
    <glyph glyph-name="uni019A" unicode="&#x19a;" horiz-adv-x="257" 
d="M173 420h70v-66h-70v-354h-88v354h-70v66h70v340h88v-340z" />
    <glyph glyph-name="uni019B" unicode="&#x19b;" horiz-adv-x="541" 
d="M-6 0l231 526l-23 64l-106 -32l-19 63l99 30q-13 22 -29.5 32t-45.5 10q-30 0 -56 -6v71q33 8 66 8q53 0 87 -21t59 -69l109 33l19 -63l-102 -32l179 -498q10 -28 21.5 -41t28.5 -13q12 0 30 5v-65q-24 -12 -57 -12q-36 0 -58 18t-38 63l-73 205q-42 119 -50 159h-4
q-16 -62 -55 -154l-122 -281h-91z" />
    <glyph glyph-name="uni019C" unicode="&#x19c;" horiz-adv-x="1029" 
d="M180 714v-506q0 -70 29 -105t92 -35q84 0 124.5 47t40.5 147v452h90v-506q0 -70 29 -105t94 -35q84 0 123.5 49.5t39.5 164.5v432h90v-714h-71l-15 82h-5q-25 -42 -74 -67t-107 -25q-68 0 -110.5 24.5t-64.5 75.5h-5q-28 -48 -79.5 -74t-113.5 -26q-103 0 -150 53
t-47 165v506h90z" />
    <glyph glyph-name="uni019D" unicode="&#x19d;" horiz-adv-x="759" 
d="M97 714h104l22 -35l235 -362l124 -194h4q-1 12 -4 84t-3 104v403h84v-714h-105l-382 593h-4l2 -40q6 -89 6 -154v-482q0 -83 -34 -120t-101 -37q-32 0 -56 13v76q21 -10 45 -10q35 0 49 20t14 62v793z" />
    <glyph glyph-name="uni019E" unicode="&#x19e;" horiz-adv-x="618" 
d="M956 -416v1055q0 225 -80 317t-219 92q-174 0 -264 -103t-113 -265v-680h-55l1 955q0 45 -19.5 64t-58.5 19q-35 0 -67 -8.5t-65 -24.5l-20 46q27 15 68.5 28t83.5 13q72 0 102 -31t30 -105v-48.5v-48.5q49 116 143.5 179.5t232.5 63.5q177 0 265.5 -111.5t88.5 -353.5
v-1053h-54z" />
    <glyph glyph-name="uni019F" unicode="&#x19f;" horiz-adv-x="782" 
d="M730 -21q-181 0 -318.5 92t-214.5 258.5t-77 389.5v18q0 223 76.5 389.5t213.5 258.5t318 92t318.5 -92t214.5 -258.5t77 -389.5v-18q0 -224 -76.5 -390.5t-213.5 -258t-318 -91.5zM730 33q166 0 289 82.5t191 231.5t69 349l-3 5h-1094l-2 -5q1 -200 69 -349
t191.5 -231.5t289.5 -82.5zM182 755h1094l2 5q0 199 -68.5 348t-192 232t-289.5 83t-289 -82.5t-191 -232t-69 -348.5z" />
    <glyph glyph-name="Ohorn" unicode="&#x1a0;" horiz-adv-x="1488" 
d="M1161 1220v53q127 0 180 69.5t53 198.5h54q0 -97 -28.5 -169t-91.5 -112t-167 -40zM740 -21q-136 0 -248 52.5t-193 150t-125 233.5t-44 304v18q0 168 43.5 304t124.5 233.5t192.5 150t247.5 52.5q135 0 247 -52.5t193.5 -150t125.5 -233.5t44 -304v-18
q0 -168 -44 -304.5t-124.5 -233.5t-192.5 -149.5t-247 -52.5zM740 33q169 0 293.5 85t192.5 239.5t68 361.5v20q0 206 -68.5 360t-193.5 239t-294 85q-168 0 -292 -85t-192.5 -239t-68.5 -360v-20q0 -207 68.5 -361.5t193 -239.5t293.5 -85z" />
    <glyph glyph-name="ohorn" unicode="&#x1a1;" horiz-adv-x="1163" 
d="M901 900v53q82 0 128.5 24.5t66 78t19.5 140.5h55q0 -102 -27.5 -168t-86.5 -97.5t-155 -30.5zM579 -21q-141 0 -248 69t-167 191t-60 281v42q0 159 60 280.5t166.5 190.5t246.5 69q141 0 247.5 -69t166.5 -190.5t60 -280.5v-42q0 -159 -60 -281t-166.5 -191t-245.5 -69z
M579 33q127 0 221 65.5t145.5 176t51.5 245.5v42q0 133 -52 243.5t-146.5 176.5t-221.5 66t-221.5 -66t-146 -176.5t-51.5 -243.5v-42q0 -136 51.5 -246.5t146 -175.5t223.5 -65z" />
    <glyph glyph-name="uni01A2" unicode="&#x1a2;" horiz-adv-x="1075" 
d="M688 358q0 -173 -82.5 -270.5t-230.5 -97.5q-150 0 -232 96.5t-82 272.5q0 174 82 270t233 96q142 0 224 -91q28 43 78 67t110 24q102 0 149.5 -52.5t47.5 -165.5v-507h-90v507q0 70 -29 105t-92 35q-53 0 -86.5 -15t-52.5 -46q53 -92 53 -228zM156 358q0 -142 56 -216
t163 -74t162.5 73t55.5 217q0 143 -55 215.5t-162 72.5q-108 0 -164 -73.5t-56 -214.5z" />
    <glyph glyph-name="uni01A3" unicode="&#x1a3;" horiz-adv-x="845" 
d="M526 269q0 -132 -63.5 -205.5t-173.5 -73.5q-69 0 -122.5 34t-82.5 98t-29 147q0 130 62.5 203.5t173.5 73.5q106 0 169 -72q26 37 64 54.5t80 17.5q80 0 120 -47t40 -150v-589h-87v585q0 127 -92 127q-63 0 -94 -44q35 -63 35 -159zM146 269q0 -101 36.5 -153.5
t107.5 -52.5t108 52t37 154q0 101 -37 152t-108 51q-144 0 -144 -203z" />
    <glyph glyph-name="uni01A4" unicode="&#x1a4;" horiz-adv-x="685" 
d="M267 355h72q106 0 154 34.5t48 110.5q0 69 -44.5 103t-138.5 34h-91v-282zM366 714q268 0 268 -210q0 -109 -74.5 -167.5t-210.5 -58.5h-82v-278h-90v637h-26q-61 0 -61 -50q0 -30 10 -54h-79q-4 10 -7.5 26.5t-3.5 28.5q0 65 34.5 95.5t106.5 30.5h215z" />
    <glyph glyph-name="uni01A5" unicode="&#x1a5;" horiz-adv-x="615" 
d="M207 765q33 0 65 -13v-73q-23 10 -52 10q-23 0 -35 -13t-12 -45v-80q0 -30 -4 -68l-2 -20h6q31 44 72 63.5t95 19.5q104 0 162 -72.5t58 -204.5q0 -131 -58 -205t-163 -74q-108 0 -166 78h-6l2 -20q4 -38 4 -68v-220h-88l1 865q0 140 121 140zM324 472q-80 0 -115 -45
t-36 -141v-17q0 -109 36 -157.5t117 -48.5q67 0 105 54.5t38 152.5t-38 150t-107 52z" />
    <glyph glyph-name="uni01A6" unicode="&#x1a6;" horiz-adv-x="622" 
d="M187 271h107q87 0 127 34t40 102q0 67 -40.5 98t-131.5 31h-102v-265zM187 195v-195h-90v714h90v-100h107q133 0 196.5 -50.5t63.5 -152.5q0 -142 -143 -191l196 -320h-105l-173 295h-142z" />
    <glyph glyph-name="uni01A7" unicode="&#x1a7;" horiz-adv-x="548" 
d="M47 191q0 48 20 84t61 63.5t124 58.5q68 25 98.5 44t44 42t13.5 58q0 49 -36 76.5t-99 27.5q-72 0 -154 -38l-28 77q85 40 180 40q102 0 165 -49.5t63 -132.5q0 -76 -41.5 -125.5t-142.5 -86.5q-78 -28 -113 -48t-50 -43t-15 -56q0 -54 40.5 -84.5t120.5 -30.5
q91 0 200 47v-86q-34 -17 -85 -28t-111 -11q-120 0 -187.5 54t-67.5 147z" />
    <glyph glyph-name="uni01A8" unicode="&#x1a8;" horiz-adv-x="479" 
d="M45 148q0 37 15 64t46.5 48.5t99.5 46.5q88 34 113 53t25 49t-28 47.5t-83 17.5q-50 0 -132 -34l-30 70q81 36 156 36q98 0 149.5 -36.5t51.5 -105.5q0 -37 -14.5 -63t-45 -47t-106.5 -50q-53 -20 -81 -35.5t-39.5 -31t-11.5 -37.5q0 -39 32 -59t95 -20q84 0 170 43v-80
q-62 -34 -168 -34q-214 0 -214 158z" />
    <glyph glyph-name="uni01A9" unicode="&#x1a9;" horiz-adv-x="569" 
d="M79 0v44l547 743l-547 625v44h932v-293h-54v240h-788l-2 -5l511 -583v-47l-523 -714h25h837v239h54v-293h-992z" />
    <glyph glyph-name="uni01AA" unicode="&#x1aa;" horiz-adv-x="309" 
d="M67 542q-60 0 -91.5 29.5t-31.5 82.5q0 54 32.5 82.5t92.5 28.5q63 0 96.5 -36t33.5 -105v-696q0 -49 18 -72.5t59 -23.5q19 0 43.5 3t38.5 8v-67q-15 -7 -41.5 -11.5t-52.5 -4.5q-80 0 -116 41t-36 126v615h-45zM63 693q-21 0 -30 -12t-9 -27q0 -40 49 -40h39v13
q0 35 -12.5 50.5t-36.5 15.5z" />
    <glyph glyph-name="uni01AB" unicode="&#x1ab;" horiz-adv-x="360" 
d="M222 -240q-29 0 -60 12v73q22 -9 50 -9q48 0 48 52v102h-11q-157 0 -157 166v312h-76v42l77 35l35 114h52v-123h155v-68h-155v-310q0 -46 22.5 -71t61.5 -25q17 0 40 3.5t35 7.5v-180q0 -133 -117 -133z" />
    <glyph glyph-name="uni01AC" unicode="&#x1ac;" horiz-adv-x="576" 
d="M151 635q-61 0 -61 -48q0 -30 10 -54h-79q-4 10 -7.5 26.5t-3.5 28.5q0 65 34.5 95.5t106.5 30.5h414v-79h-222v-635h-90v635h-102z" />
    <glyph glyph-name="uni01AD" unicode="&#x1ad;" horiz-adv-x="360" 
d="M180 536h155v-68h-155v-310q0 -46 22.5 -71t61.5 -25q17 0 40 3.5t35 7.5v-67q-12 -5 -38 -10.5t-52 -5.5q-157 0 -157 166v312h-76v42l77 35v66q0 154 147 154q39 0 77 -13v-73q-11 4 -34.5 7t-42.5 3q-32 0 -46 -17t-14 -51v-85z" />
    <glyph glyph-name="uni01AE" unicode="&#x1ae;" horiz-adv-x="556" 
d="M233 635h-223v79h535v-79h-222v-714q0 -42 14.5 -62t48.5 -20q24 0 45 10v-76q-24 -13 -63 -13q-68 0 -101.5 37t-33.5 120v718z" />
    <glyph glyph-name="Uhorn" unicode="&#x1af;" horiz-adv-x="1540" 
d="M721 -21q-149 0 -261 56.5t-174.5 166t-62.5 267.5v933h-163v54h380v-54h-163v-933q0 -137 56.5 -234.5t156.5 -149.5t231 -52q130 0 230 52t156.5 149.5t56.5 234.5v933h-163v54h217v-987q0 -159 -63 -268t-175 -165.5t-259 -56.5zM1199 1193l6 63q140 -4 192.5 68
t52.5 227h50v-5q3 -175 -67 -263t-234 -90z" />
    <glyph glyph-name="uhorn" unicode="&#x1b0;" horiz-adv-x="1209" 
d="M932 900v53q82 0 128.5 24.5t66 78t19.5 140.5h55q0 -102 -27.5 -168t-86.5 -97.5t-155 -30.5zM533 -21q-164 0 -255 118.5t-91 367.5v563h-143v54h143h54v-619q0 -220 77.5 -325t212.5 -105q169 0 254.5 83t110.5 220v692h-163v54h163h55v-1028h163v-54h-208l-8 194
q-51 -103 -140.5 -159t-224.5 -56z" />
    <glyph glyph-name="uni01B1" unicode="&#x1b1;" horiz-adv-x="782" 
d="M391 68q114 0 173 62t59 183q0 110 -40.5 189t-126.5 140v72h288v-79h-178q74 -57 113 -141t39 -184q0 -150 -87 -235.5t-240 -85.5q-155 0 -241.5 85t-86.5 235q0 100 39 185t112 141h-177v79h288v-72q-87 -62 -127.5 -142t-40.5 -187q0 -120 59.5 -182.5t174.5 -62.5z
" />
    <glyph glyph-name="uni01B2" unicode="&#x1b2;" horiz-adv-x="600" 
d="M571 580q0 -53 -45 -157l-181 -423h-90l-255 714h94l162 -466q31 -88 45 -156q8 30 27 73q21 50 32 81l85 203q36 88 36 125q0 39 -16 55t-47 16q-24 0 -45 -10v76q22 13 63 13q135 0 135 -144z" />
    <glyph glyph-name="uni01B3" unicode="&#x1b3;" horiz-adv-x="565" 
d="M39 649q-21 0 -39 -8v73q28 11 60 11q37 0 59.5 -17.5t40.5 -57.5l128 -287l181 351h97l-233 -437v-277h-90v273l-162 341q-18 35 -42 35z" />
    <glyph glyph-name="uni01B4" unicode="&#x1b4;" horiz-adv-x="541" 
d="M485 546q33 0 57 -12v-65q-18 5 -30 5q-18 0 -28.5 -13t-21.5 -41l-183 -494q-32 -87 -79 -126.5t-116 -39.5q-37 0 -73 8v70q24 -6 59 -6q85 0 121 95l26 71l-216 538h94l116 -305q37 -100 45 -146h4q8 36 48 147l76 217q19 54 41 75.5t60 21.5z" />
    <glyph glyph-name="uni01B5" unicode="&#x1b5;" horiz-adv-x="571" 
d="M79 407h184l151 227h-364v80h473v-68l-159 -239h122v-71h-169l-170 -256h386v-80h-495v68l178 268h-137v71z" />
    <glyph glyph-name="uni01B6" unicode="&#x1b6;" horiz-adv-x="470" 
d="M57 313h161l109 155h-271v68h368v-66l-111 -157h101v-70h-151l-123 -175h291v-68h-392v58l130 185h-112v70z" />
    <glyph glyph-name="uni01B7" unicode="&#x1b7;" horiz-adv-x="583" 
d="M291 440q68 -2 122.5 -30t85 -76.5t30.5 -112.5q0 -109 -76 -170t-212 -61q-126 0 -206 39v82q49 -23 104 -35t103 -12q97 0 145 41t48 117q0 69 -49.5 107t-143.5 38h-62v65l206 202h-331v80h444v-71z" />
    <glyph glyph-name="uni01B8" unicode="&#x1b8;" horiz-adv-x="583" 
d="M85 643v71h444v-80h-330l205 -202v-65h-78q-84 0 -130.5 -40.5t-46.5 -113.5q0 -71 49.5 -110t143.5 -39q49 0 103.5 11.5t103.5 35.5v-82q-45 -21 -98.5 -30t-119.5 -9q-87 0 -149 27t-94.5 77t-32.5 117q0 68 30 119t84.5 79.5t123.5 30.5z" />
    <glyph glyph-name="uni01B9" unicode="&#x1b9;" horiz-adv-x="498" 
d="M61 472v64h409v-74h-306l219 -243v-61h-59q-101 0 -151.5 -42.5t-50.5 -124.5q0 -71 47 -114.5t126 -43.5q100 0 189 42v-80q-68 -35 -196 -35q-113 0 -183.5 63t-70.5 166q0 105 64.5 168t181.5 71z" />
    <glyph glyph-name="uni01BA" unicode="&#x1ba;" horiz-adv-x="498" 
d="M216 -167q84 0 160 36v-80q-60 -29 -161 -29q-90 0 -138.5 31t-48.5 88q0 62 46.5 91.5t137.5 29.5q80 0 114.5 27.5t34.5 94.5q0 60 -44.5 88t-142.5 28h-59v61l183 163h-270v74h394v-64l-187 -164q104 -5 159 -51.5t55 -133.5q0 -95 -59.5 -145.5t-175.5 -50.5
q-53 0 -78 -10.5t-25 -37.5q0 -21 26.5 -33.5t78.5 -12.5z" />
    <glyph glyph-name="uni01BB" unicode="&#x1bb;" horiz-adv-x="569" 
d="M78 419h241q27 44 39 82t12 81q0 50 -29.5 78t-82.5 28q-45 0 -81.5 -16.5t-73.5 -49.5l-47 59q93 84 204 84q94 0 147.5 -48.5t53.5 -132.5q0 -42 -10.5 -81.5t-35.5 -83.5h100v-70h-144q-11 -16 -23.5 -32.5t-201.5 -242.5v-4h374v-70h-472v73l175 215l47 61h-192v70z
" />
    <glyph glyph-name="uni01BC" unicode="&#x1bc;" horiz-adv-x="583" 
d="M224 634v-193h42q77 0 137 -27t93 -76.5t33 -116.5q0 -109 -76 -170t-212 -61q-126 0 -206 39v82q49 -23 104 -35t103 -12q97 0 145 41t48 117q0 68 -47 106.5t-130 38.5h-124v267h-79v80h444v-80h-275z" />
    <glyph glyph-name="uni01BD" unicode="&#x1bd;" 
d="M198 462v-117h23q107 0 165.5 -46.5t58.5 -135.5q0 -82 -60.5 -127.5t-168.5 -45.5q-118 0 -183 35v79q89 -42 182 -42q69 0 106 26.5t37 79.5t-37.5 79t-115.5 26h-95v189h-62v74h364v-74h-214z" />
    <glyph glyph-name="uni01BE" unicode="&#x1be;" horiz-adv-x="462" 
d="M136 378v90h-91v42l92 35l35 114h52v-123h155v-68h-155v-92q0 -34 10.5 -49.5t36.5 -24.5q83 -31 115 -66.5t32 -87.5q0 -75 -56 -116.5t-158 -41.5q-105 0 -168 34v80q86 -43 170 -43q66 0 96.5 21.5t30.5 57.5q0 29 -24 49.5t-90 47.5q-47 20 -65 52t-18 89z" />
    <glyph glyph-name="uni01BF" unicode="&#x1bf;" horiz-adv-x="586" 
d="M173 -240h-88v776h72l12 -73h4q55 83 158 83q96 0 152 -59t56 -164q0 -91 -45.5 -164.5t-130 -117.5t-190.5 -51v-230zM173 62q131 17 203 85.5t72 173.5q0 69 -36 110t-99 41q-73 0 -106.5 -44t-33.5 -142v-224z" />
    <glyph glyph-name="uni01C0" unicode="&#x1c0;" horiz-adv-x="516" 
d="M297 -240h-78v1000h78v-1000z" />
    <glyph glyph-name="uni01C1" unicode="&#x1c1;" horiz-adv-x="516" 
d="M169 -240h-78v1000h78v-1000zM426 -240h-78v1000h78v-1000z" />
    <glyph glyph-name="uni01C2" unicode="&#x1c2;" horiz-adv-x="516" 
d="M65 402h154v358h78v-358h154v-72h-154v-124h154v-72h-154v-374h-78v374h-154v72h154v124h-154v72z" />
    <glyph glyph-name="uni01C3" unicode="&#x1c3;" horiz-adv-x="269" 
d="M163 201h-57l-25 513h107zM72 54q0 32 16 49.5t46 17.5t46 -18t16 -49t-16.5 -49.5t-45.5 -18.5q-30 0 -46 18t-16 50z" />
    <glyph glyph-name="uni01C4" unicode="&#x1c4;" horiz-adv-x="1291" 
d="M1244 1725v-17l-218 -206h-65l-221 210v13h60l195 -186l190 186h59zM71 0v54h163v1348h-163v54h163h395q179 0 318.5 -92.5t220 -254.5t80.5 -372v-18q0 -210 -80.5 -372t-220 -254.5t-318.5 -92.5h-558zM288 54h341q163 0 290.5 86.5t201 237t73.5 341.5v21
q0 190 -73.5 339.5t-201 236t-290.5 86.5h-341v-1348zM812 0v44l929 1359h-835v-240h-54v293h964v-38l-930 -1364h908v239h54v-293h-1036z" />
    <glyph glyph-name="uni01C5" unicode="&#x1c5;" horiz-adv-x="1200" 
d="M1217 1560v-17l-218 -206h-65l-221 210v13h60l195 -186l190 186h59zM71 0v54h163v1348h-163v54h163h395q179 0 318.5 -92.5t220 -254.5t80.5 -372v-18q0 -210 -80.5 -372t-220 -254.5t-318.5 -92.5h-558zM288 54h341q163 0 290.5 86.5t201 237t73.5 341.5v21
q0 190 -73.5 339.5t-201 236t-290.5 86.5h-341v-1348zM850 0v44l711 983h-656v-238h-54v293h783v-48l-711 -980h716v239h54v-293h-843z" />
    <glyph glyph-name="uni01C6" unicode="&#x1c6;" horiz-adv-x="1084" 
d="M1104 1560v-17l-218 -206h-65l-221 210v13h60l195 -186l190 186h59zM510 -21q-127 0 -218 66t-139.5 187.5t-48.5 288.5v21q0 171 48.5 297t140 194.5t219.5 68.5t220 -58.5t147 -160.5v623h-163v54h163h54v-1506h163v-54h-215l-2 173q-53 -89 -147 -141.5t-222 -52.5z
M509 33q141 0 234.5 64t135.5 171v507q-39 116 -126 194.5t-242 78.5q-115 0 -193 -64t-118 -178t-40 -264v-21q0 -224 88.5 -356t260.5 -132zM735 0v44l711 983h-656v-238h-54v293h783v-48l-711 -980h716v239h54v-293h-843z" />
    <glyph glyph-name="uni01C7" unicode="&#x1c7;" horiz-adv-x="796" 
d="M71 0v54h163v1348h-163v54h163h55h163v-54h-163v-1348h693v239h54v-293h-965zM995 -21q-133 0 -229.5 47.5t-147.5 140t-48 228.5l2 6h46q0 -178 97 -273t280 -95q102 0 182.5 47.5t126.5 135t46 206.5v980h-186v54h403v-54h-163v-980q0 -135 -52 -234.5t-144.5 -154
t-212.5 -54.5z" />
    <glyph glyph-name="uni01C8" unicode="&#x1c8;" horiz-adv-x="782" 
d="M71 0v54h163v1348h-163v54h163h55h163v-54h-163v-1348h693v239h54v-293h-965zM839 1420v140h72v-140h-72zM632 -437q-30 0 -56 5t-56 15l13 52q18 -6 45.5 -12t53.5 -6q110 0 170.5 76.5t60.5 217.5v1117h-163v54h217v-1171q0 -167 -75 -257.5t-210 -90.5z" />
    <glyph glyph-name="uni01C9" unicode="&#x1c9;" horiz-adv-x="516" 
d="M82 0v54h163v1452h-163v54h217v-1506h163v-54h-380zM573 1420v140h72v-140h-72zM366 -437q-30 0 -56 5t-56 15l13 52q18 -6 45.5 -12t53.5 -6q110 0 170.5 76.5t60.5 217.5v1117h-163v54h217v-1171q0 -167 -75 -257.5t-210 -90.5z" />
    <glyph glyph-name="uni01CA" unicode="&#x1ca;" horiz-adv-x="1033" 
d="M71 0v54h163v1348h-163v54h163h55l934 -1353l6 2v1297h-163v54h217h163v-54h-163v-1402h-54l-934 1356l-6 -2v-1300h163v-54h-381zM1231 -21q-133 0 -229.5 47.5t-147.5 140t-48 228.5l2 6h46q0 -178 97 -273t280 -95q102 0 182.5 47.5t126.5 135t46 206.5v980h-186v54
h403v-54h-163v-980q0 -135 -52 -234.5t-144.5 -154t-212.5 -54.5z" />
    <glyph glyph-name="uni01CB" unicode="&#x1cb;" horiz-adv-x="1018" 
d="M71 0v54h163v1348h-163v54h163h55l934 -1353l6 2v1297h-163v54h217h163v-54h-163v-1402h-54l-934 1356l-6 -2v-1300h163v-54h-381zM1075 1420v140h72v-140h-72zM868 -437q-30 0 -56 5t-56 15l13 52q18 -6 45.5 -12t53.5 -6q110 0 170.5 76.5t60.5 217.5v1117h-163v54h217
v-1171q0 -167 -75 -257.5t-210 -90.5z" />
    <glyph glyph-name="uni01CC" unicode="&#x1cc;" horiz-adv-x="875" 
d="M89 0v54h163v974h-163v54h209l7 -223q49 116 143 179.5t232 63.5q177 0 265.5 -111.5t88.5 -353.5v-583h163v-54h-380v54h163v585q0 225 -80.5 317t-218.5 92q-175 0 -264 -104.5t-111 -267.5v-622h163v-54h-380zM933 1420v140h72v-140h-72zM726 -437q-30 0 -56 5t-56 15
l13 52q18 -6 45.5 -12t53.5 -6q110 0 170.5 76.5t60.5 217.5v1117h-163v54h217v-1171q0 -167 -75 -257.5t-210 -90.5z" />
    <glyph glyph-name="uni01CD" unicode="&#x1cd;" horiz-adv-x="639" 
d="M567 1738v-17l-218 -206h-65l-221 210v13h60l195 -186l190 186h59zM55 0v54h107l524 1402h66l525 -1402h107v-54h-309v54h143l-143 381h-712l-142 -381h143v-54h-309zM383 489h672l-305 820l-28 82h-6l-27 -82z" />
    <glyph glyph-name="uni01CE" unicode="&#x1ce;" horiz-adv-x="561" 
d="M529 1560v-17l-218 -206h-65l-221 210v13h60l195 -186l190 186h59zM417 -21q-142 0 -227.5 81.5t-85.5 213.5q0 97 58.5 171.5t165 116.5t250.5 42h249v138q0 135 -78 221t-245 86q-88 0 -161 -33t-124 -80v-177h-54v206q67 62 149.5 99.5t190.5 37.5q187 0 281.5 -97.5
t94.5 -264.5v-522q0 -42 3.5 -83t11.5 -81h150v-54h-197q-13 71 -17.5 108.5t-4.5 90.5q-61 -98 -167.5 -159t-242.5 -61zM417 32q123 0 238 69t172 191v257h-246q-191 0 -307 -77.5t-116 -201.5q0 -101 73 -169.5t186 -68.5z" />
    <glyph glyph-name="uni01CF" unicode="&#x1cf;" horiz-adv-x="338" 
d="M419 1738v-17l-218 -206h-65l-221 210v13h60l195 -186l190 186h59zM71 0v54h163v1348h-163v54h380v-54h-163v-1348h163v-54h-380z" />
    <glyph glyph-name="uni01D0" unicode="&#x1d0;" horiz-adv-x="257" 
d="M377 1560v-17l-218 -206h-65l-221 210v13h60l195 -186l190 186h59zM89 0v54h163v974h-163v54h217v-1028h163v-54h-380z" />
    <glyph glyph-name="uni01D1" unicode="&#x1d1;" horiz-adv-x="780" 
d="M638 1738v-17l-218 -206h-65l-221 210v13h60l195 -186l190 186h59zM740 -21q-136 0 -248 52.5t-193 150t-125 233.5t-44 304v18q0 168 43.5 304t124.5 233.5t192.5 150t247.5 52.5q135 0 247 -52.5t193.5 -150t125.5 -233.5t44 -304v-18q0 -168 -44 -304.5t-124.5 -233.5
t-192.5 -149.5t-247 -52.5zM740 33q169 0 293.5 85t192.5 239.5t68 361.5v20q0 206 -68.5 360t-193.5 239t-294 85q-168 0 -292 -85t-192.5 -239t-68.5 -360v-20q0 -207 68.5 -361.5t193 -239.5t293.5 -85z" />
    <glyph glyph-name="uni01D2" unicode="&#x1d2;" horiz-adv-x="604" 
d="M550 1560v-17l-218 -206h-65l-221 210v13h60l195 -186l190 186h59zM579 -21q-141 0 -248 69t-167 191t-60 281v42q0 159 60 280.5t166.5 190.5t246.5 69q141 0 247.5 -69t166.5 -190.5t60 -280.5v-42q0 -159 -60 -281t-166.5 -191t-245.5 -69zM579 33q127 0 221 65.5
t145.5 176t51.5 245.5v42q0 133 -52 243.5t-146.5 176.5t-221.5 66t-221.5 -66t-146 -176.5t-51.5 -243.5v-42q0 -136 51.5 -246.5t146 -175.5t223.5 -65z" />
    <glyph glyph-name="uni01D3" unicode="&#x1d3;" horiz-adv-x="730" 
d="M613 1738v-17l-218 -206h-65l-221 210v13h60l195 -186l190 186h59zM721 -21q-149 0 -261 56.5t-174.5 166t-62.5 267.5v933h-163v54h380v-54h-163v-933q0 -137 56.5 -234.5t156.5 -149.5t231 -52q130 0 230 52t156.5 149.5t56.5 234.5v933h-163v54h380v-54h-163v-933
q0 -159 -63 -268t-175 -165.5t-259 -56.5z" />
    <glyph glyph-name="uni01D4" unicode="&#x1d4;" horiz-adv-x="618" 
d="M557 1560v-17l-218 -206h-65l-221 210v13h60l195 -186l190 186h59zM533 -21q-164 0 -255 118.5t-91 367.5v563h-143v54h143h54v-619q0 -220 77.5 -325t212.5 -105q169 0 254.5 83t110.5 220v692h-163v54h163h55v-1028h163v-54h-208l-8 194q-51 -103 -140.5 -159
t-224.5 -56z" />
    <glyph glyph-name="uni01D5" unicode="&#x1d5;" horiz-adv-x="730" 
d="M508 815q0 -23 -12.5 -36t-34.5 -13t-34.5 13t-12.5 36q0 26 14 38t33 12q20 0 33.5 -12t13.5 -38zM320 815q0 -26 -13.5 -37.5t-32.5 -11.5q-22 0 -34.5 13t-12.5 36q0 26 14 38t33 12t32.5 -12t13.5 -38zM219 1001h297v-71h-297v71zM721 -21q-149 0 -261 56.5
t-174.5 166t-62.5 267.5v933h-163v54h380v-54h-163v-933q0 -137 56.5 -234.5t156.5 -149.5t231 -52q130 0 230 52t156.5 149.5t56.5 234.5v933h-163v54h380v-54h-163v-933q0 -159 -63 -268t-175 -165.5t-259 -56.5z" />
    <glyph glyph-name="uni01D6" unicode="&#x1d6;" horiz-adv-x="618" 
d="M447 650q0 -23 -12.5 -36t-34.5 -13t-34.5 13t-12.5 36q0 26 14 38t33 12q20 0 33.5 -12t13.5 -38zM259 650q0 -26 -13.5 -37.5t-32.5 -11.5q-22 0 -34.5 13t-12.5 36q0 26 14 38t33 12t32.5 -12t13.5 -38zM158 836h297v-71h-297v71zM533 -21q-164 0 -255 118.5
t-91 367.5v563h-143v54h143h54v-619q0 -220 77.5 -325t212.5 -105q169 0 254.5 83t110.5 220v692h-163v54h163h55v-1028h163v-54h-208l-8 194q-51 -103 -140.5 -159t-224.5 -56z" />
    <glyph glyph-name="uni01D7" unicode="&#x1d7;" horiz-adv-x="730" 
d="M499 815q0 -23 -12.5 -36t-34.5 -13t-34.5 13t-12.5 36q0 26 14 38t33 12q20 0 33.5 -12t13.5 -38zM311 815q0 -26 -13.5 -37.5t-32.5 -11.5q-22 0 -34.5 13t-12.5 36q0 26 14 38t33 12t32.5 -12t13.5 -38zM305 903q73 84 96 133h105v-10q-28 -43 -142 -135h-59v12z
M721 -21q-149 0 -261 56.5t-174.5 166t-62.5 267.5v933h-163v54h380v-54h-163v-933q0 -137 56.5 -234.5t156.5 -149.5t231 -52q130 0 230 52t156.5 149.5t56.5 234.5v933h-163v54h380v-54h-163v-933q0 -159 -63 -268t-175 -165.5t-259 -56.5z" />
    <glyph glyph-name="uni01D8" unicode="&#x1d8;" horiz-adv-x="618" 
d="M446 650q0 -23 -12.5 -36t-34.5 -13t-34.5 13t-12.5 36q0 26 14 38t33 12q20 0 33.5 -12t13.5 -38zM258 650q0 -26 -13.5 -37.5t-32.5 -11.5q-22 0 -34.5 13t-12.5 36q0 26 14 38t33 12t32.5 -12t13.5 -38zM252 738q73 84 96 133h105v-10q-28 -43 -142 -135h-59v12z
M533 -21q-164 0 -255 118.5t-91 367.5v563h-143v54h143h54v-619q0 -220 77.5 -325t212.5 -105q169 0 254.5 83t110.5 220v692h-163v54h163h55v-1028h163v-54h-208l-8 194q-51 -103 -140.5 -159t-224.5 -56z" />
    <glyph glyph-name="uni01D9" unicode="&#x1d9;" horiz-adv-x="730" 
d="M504 815q0 -23 -12.5 -36t-34.5 -13t-34.5 13t-12.5 36q0 26 14 38t33 12q20 0 33.5 -12t13.5 -38zM316 815q0 -26 -13.5 -37.5t-32.5 -11.5q-22 0 -34.5 13t-12.5 36q0 26 14 38t33 12t32.5 -12t13.5 -38zM195 1046h60q26 -17 54 -36t53 -46q27 27 55 46t54 36h62v-13
l-32 -31q-73 -69 -93 -106h-90q-21 36 -92 106l-31 31v13zM721 -21q-149 0 -261 56.5t-174.5 166t-62.5 267.5v933h-163v54h380v-54h-163v-933q0 -137 56.5 -234.5t156.5 -149.5t231 -52q130 0 230 52t156.5 149.5t56.5 234.5v933h-163v54h380v-54h-163v-933
q0 -159 -63 -268t-175 -165.5t-259 -56.5z" />
    <glyph glyph-name="uni01DA" unicode="&#x1da;" horiz-adv-x="618" 
d="M444 650q0 -23 -12.5 -36t-34.5 -13t-34.5 13t-12.5 36q0 26 14 38t33 12q20 0 33.5 -12t13.5 -38zM256 650q0 -26 -13.5 -37.5t-32.5 -11.5q-22 0 -34.5 13t-12.5 36q0 26 14 38t33 12t32.5 -12t13.5 -38zM135 881h60q26 -17 54 -36t53 -46q27 27 55 46t54 36h62v-13
l-32 -31q-73 -69 -93 -106h-90q-21 36 -92 106l-31 31v13zM533 -21q-164 0 -255 118.5t-91 367.5v563h-143v54h143h54v-619q0 -220 77.5 -325t212.5 -105q169 0 254.5 83t110.5 220v692h-163v54h163h55v-1028h163v-54h-208l-8 194q-51 -103 -140.5 -159t-224.5 -56z" />
    <glyph glyph-name="uni01DB" unicode="&#x1db;" horiz-adv-x="730" 
d="M500 815q0 -23 -12.5 -36t-34.5 -13t-34.5 13t-12.5 36q0 26 14 38t33 12q20 0 33.5 -12t13.5 -38zM312 815q0 -26 -13.5 -37.5t-32.5 -11.5q-22 0 -34.5 13t-12.5 36q0 26 14 38t33 12t32.5 -12t13.5 -38zM414 891h-59q-114 91 -142 135v10h105q23 -49 96 -133v-12z
M721 -21q-149 0 -261 56.5t-174.5 166t-62.5 267.5v933h-163v54h380v-54h-163v-933q0 -137 56.5 -234.5t156.5 -149.5t231 -52q130 0 230 52t156.5 149.5t56.5 234.5v933h-163v54h380v-54h-163v-933q0 -159 -63 -268t-175 -165.5t-259 -56.5z" />
    <glyph glyph-name="uni01DC" unicode="&#x1dc;" horiz-adv-x="618" 
d="M447 650q0 -23 -12.5 -36t-34.5 -13t-34.5 13t-12.5 36q0 26 14 38t33 12q20 0 33.5 -12t13.5 -38zM259 650q0 -26 -13.5 -37.5t-32.5 -11.5q-22 0 -34.5 13t-12.5 36q0 26 14 38t33 12t32.5 -12t13.5 -38zM361 726h-59q-114 91 -142 135v10h105q23 -49 96 -133v-12z
M533 -21q-164 0 -255 118.5t-91 367.5v563h-143v54h143h54v-619q0 -220 77.5 -325t212.5 -105q169 0 254.5 83t110.5 220v692h-163v54h163h55v-1028h163v-54h-208l-8 194q-51 -103 -140.5 -159t-224.5 -56z" />
    <glyph glyph-name="uni01DD" unicode="&#x1dd;" horiz-adv-x="563" 
d="M251 546q121 0 189.5 -73t68.5 -201q0 -129 -64 -205.5t-173 -76.5q-101 0 -161 65.5t-60 176.5v53h367q-2 91 -46 138.5t-125 47.5q-43 0 -81.5 -7.5t-90.5 -29.5v77q44 19 83.5 27t92.5 8zM273 62q63 0 99.5 40.5t43.5 112.5h-273q1 -74 34.5 -113.5t95.5 -39.5z" />
    <glyph glyph-name="uni01DE" unicode="&#x1de;" horiz-adv-x="639" 
d="M460 815q0 -23 -12.5 -36t-34.5 -13t-34.5 13t-12.5 36q0 26 14 38t33 12q20 0 33.5 -12t13.5 -38zM272 815q0 -26 -13.5 -37.5t-32.5 -11.5q-22 0 -34.5 13t-12.5 36q0 26 14 38t33 12t32.5 -12t13.5 -38zM171 1001h297v-71h-297v71zM55 0v54h107l524 1402h66l525 -1402
h107v-54h-309v54h143l-143 381h-712l-142 -381h143v-54h-309zM383 489h672l-305 820l-28 82h-6l-27 -82z" />
    <glyph glyph-name="uni01DF" unicode="&#x1df;" horiz-adv-x="561" 
d="M426 650q0 -23 -12.5 -36t-34.5 -13t-34.5 13t-12.5 36q0 26 14 38t33 12q20 0 33.5 -12t13.5 -38zM238 650q0 -26 -13.5 -37.5t-32.5 -11.5q-22 0 -34.5 13t-12.5 36q0 26 14 38t33 12t32.5 -12t13.5 -38zM137 836h297v-71h-297v71zM417 -21q-142 0 -227.5 81.5
t-85.5 213.5q0 97 58.5 171.5t165 116.5t250.5 42h249v138q0 135 -78 221t-245 86q-88 0 -161 -33t-124 -80v-177h-54v206q67 62 149.5 99.5t190.5 37.5q187 0 281.5 -97.5t94.5 -264.5v-522q0 -42 3.5 -83t11.5 -81h150v-54h-197q-13 71 -17.5 108.5t-4.5 90.5
q-61 -98 -167.5 -159t-242.5 -61zM417 32q123 0 238 69t172 191v257h-246q-191 0 -307 -77.5t-116 -201.5q0 -101 73 -169.5t186 -68.5z" />
    <glyph glyph-name="uni01E0" unicode="&#x1e0;" horiz-adv-x="639" 
d="M269 826q0 29 15 42.5t37 13.5q23 0 37 -15t14 -41t-14.5 -41t-36.5 -15t-37 13.5t-15 42.5zM171 1001h297v-71h-297v71zM55 0v54h107l524 1402h66l525 -1402h107v-54h-309v54h143l-143 381h-712l-142 -381h143v-54h-309zM383 489h672l-305 820l-28 82h-6l-27 -82z" />
    <glyph glyph-name="uni01E1" unicode="&#x1e1;" horiz-adv-x="561" 
d="M235 662q0 29 15 42.5t37 13.5q23 0 37 -15t14 -41t-14.5 -41t-36.5 -15t-37 13.5t-15 42.5zM137 837h297v-71h-297v71zM417 -21q-142 0 -227.5 81.5t-85.5 213.5q0 97 58.5 171.5t165 116.5t250.5 42h249v138q0 135 -78 221t-245 86q-88 0 -161 -33t-124 -80v-177h-54
v206q67 62 149.5 99.5t190.5 37.5q187 0 281.5 -97.5t94.5 -264.5v-522q0 -42 3.5 -83t11.5 -81h150v-54h-197q-13 71 -17.5 108.5t-4.5 90.5q-61 -98 -167.5 -159t-242.5 -61zM417 32q123 0 238 69t172 191v257h-246q-191 0 -307 -77.5t-116 -201.5q0 -101 73 -169.5
t186 -68.5z" />
    <glyph glyph-name="uni01E2" unicode="&#x1e2;" horiz-adv-x="880" 
d="M241 1585v53h627v-53h-627zM51 0v54h119l849 1402h776v-293h-54v239h-642l26 -616h588v-54h-586l28 -678h647v239h54v-293h-915v54h160l-15 371h-628l-223 -371h131v-54h-315zM490 478h594l-39 924l-5 1l-57 -105z" />
    <glyph glyph-name="uni01E3" unicode="&#x1e3;" horiz-adv-x="863" 
d="M177 1420v53h627v-53h-627zM417 -21q-142 0 -227.5 85.5t-85.5 223.5q0 102 58.5 179.5t165 121t250.5 43.5h249v110q0 135 -78 221t-245 86q-88 0 -161 -33t-124 -80v-177h-54v206q67 62 149.5 99.5t190.5 37.5q164 0 256.5 -73t111.5 -200q27 80 86 141.5t138.5 96.5
t166.5 35q126 0 216.5 -53.5t139 -152.5t48.5 -236v-83h-787v-77q0 -208 99 -337.5t299 -129.5q102 0 186.5 34.5t145.5 96.5l30 -42q-65 -66 -148.5 -104.5t-213.5 -38.5q-290 0 -409 269q-70 -121 -187 -195t-266 -74zM417 32q84 0 166.5 33t151 95t107.5 149
q-7 47 -11 95.5t-4 97.5v75h-246q-191 0 -307 -81.5t-116 -211.5q0 -107 73 -179.5t186 -72.5zM883 632h731v32q0 168 -91.5 276t-258.5 108q-108 0 -191.5 -53.5t-133 -146t-58.5 -211.5z" />
    <glyph glyph-name="uni01E4" unicode="&#x1e4;" horiz-adv-x="728" 
d="M407 377h247v-150h64v-71h-64v-129q-57 -18 -115.5 -27.5t-135.5 -9.5q-163 0 -252.5 97t-89.5 270q0 112 44.5 195.5t128 127.5t197.5 44t213 -42l-34 -78q-94 41 -184 41q-127 0 -199 -77t-72 -211q0 -142 68.5 -215.5t200.5 -73.5q72 0 140 17v71h-147v71h147v70h-157
v80z" />
    <glyph glyph-name="uni01E5" unicode="&#x1e5;" horiz-adv-x="615" 
d="M443 15l3 66h-4q-54 -81 -166 -81q-105 0 -163 71t-58 201q0 128 58 201t162 73q109 0 168 -81h5l12 71h70v-545q0 -20 -2 -37h57v-71h-72q-47 -123 -223 -123q-117 0 -193 34v81q78 -42 198 -42q77 0 117 50h-149v71h178l2 30v31zM289 72q83 0 119 42.5t36 136.5v16
q0 107 -37 156t-120 49q-68 0 -104.5 -50.5t-36.5 -150.5q0 -199 143 -199z" />
    <glyph glyph-name="Gcaron" unicode="&#x1e6;" horiz-adv-x="728" 
d="M665 1725v-17l-218 -206h-65l-221 210v13h60l195 -186l190 186h59zM770 -21q-199 0 -342.5 93.5t-220.5 260.5t-77 387v38q0 213 81 375t222 253t321 91q154 0 261.5 -41.5t197.5 -111.5v-252h-54v224q-74 58 -166.5 92.5t-238.5 34.5q-162 0 -291 -84.5t-204 -233.5
t-75 -345v-40q0 -203 69.5 -358t200 -242t314.5 -87q134 0 242 32.5t184 75.5v424h-315v55h369v-509q-91 -55 -207 -93.5t-271 -38.5z" />
    <glyph glyph-name="gcaron" unicode="&#x1e7;" horiz-adv-x="615" 
d="M555 1560v-17l-218 -206h-65l-221 210v13h60l195 -186l190 186h59zM524 -437q-79 0 -164.5 16.5t-149.5 45.5l16 54q73 -32 141 -47.5t155 -15.5q173 0 264.5 106.5t91.5 291.5v157q-54 -88 -147.5 -140t-220.5 -52t-218 66t-139.5 188t-48.5 288v21q0 172 48.5 297.5
t140 194t219.5 68.5t220.5 -59t146.5 -161l8 200h46v-1068q0 -138 -49.5 -239.5t-141 -156.5t-218.5 -55zM509 33q144 0 236.5 66t132.5 177v491q-38 119 -123.5 200t-243.5 81q-114 0 -192.5 -64t-119 -178t-40.5 -264v-21q0 -224 89 -356t261 -132zM913 1028l-7 54h170
v-54h-163z" />
    <glyph glyph-name="uni01E8" unicode="&#x1e8;" horiz-adv-x="619" 
d="M581 1725v-17l-218 -206h-65l-221 210v13h60l195 -186l190 186h59zM270 391l-20 62l841 944l-2 5h-168v54h361v-54h-115zM71 0v54h163v1348h-163v54h380v-54h-163v-1348h163v-54h-380zM967 0v54h163l3 6l-542 743l50 29l569 -778h118v-54h-361z" />
    <glyph glyph-name="uni01E9" unicode="&#x1e9;" horiz-adv-x="534" 
d="M545 1745v-17l-218 -206h-65l-221 210v13h60l195 -186l190 186h59zM62 0v54h163v1452h-163v54h217v-1506h163v-54h-380zM761 0v54h126l2 5l-399 555l38 35l436 -595h117v-54h-320zM269 346l-18 54l587 622l-2 6h-119v54h321v-54h-122z" />
    <glyph glyph-name="uni01EA" unicode="&#x1ea;" horiz-adv-x="780" 
d="M519 -423q-74 0 -121 45.5t-47 127.5q0 65 40 127.5t136 142.5l52 -20q-89 -79 -131.5 -132.5t-42.5 -117.5q0 -37 22 -78t92 -41q32 0 56.5 10.5t49.5 27.5l16 -48q-24 -18 -54 -31t-68 -13zM740 -21q-136 0 -248 52.5t-193 150t-125 233.5t-44 304v18q0 168 43.5 304
t124.5 233.5t192.5 150t247.5 52.5q135 0 247 -52.5t193.5 -150t125.5 -233.5t44 -304v-18q0 -168 -44 -304.5t-124.5 -233.5t-192.5 -149.5t-247 -52.5zM740 33q169 0 293.5 85t192.5 239.5t68 361.5v20q0 206 -68.5 360t-193.5 239t-294 85q-168 0 -292 -85t-192.5 -239
t-68.5 -360v-20q0 -207 68.5 -361.5t193 -239.5t293.5 -85z" />
    <glyph glyph-name="uni01EB" unicode="&#x1eb;" horiz-adv-x="604" 
d="M421 -423q-74 0 -121 45.5t-47 127.5q0 65 40 127.5t136 142.5l52 -20q-89 -79 -131.5 -132.5t-42.5 -117.5q0 -37 22 -78t92 -41q32 0 56.5 10.5t49.5 27.5l16 -48q-24 -18 -54 -31t-68 -13zM579 -21q-141 0 -248 69t-167 191t-60 281v42q0 159 60 280.5t166.5 190.5
t246.5 69q141 0 247.5 -69t166.5 -190.5t60 -280.5v-42q0 -159 -60 -281t-166.5 -191t-245.5 -69zM579 33q127 0 221 65.5t145.5 176t51.5 245.5v42q0 133 -52 243.5t-146.5 176.5t-221.5 66t-221.5 -66t-146 -176.5t-51.5 -243.5v-42q0 -136 51.5 -246.5t146 -175.5
t223.5 -65z" />
    <glyph glyph-name="uni01EC" unicode="&#x1ec;" horiz-adv-x="780" 
d="M519 -423q-74 0 -121 45.5t-47 127.5q0 65 40 127.5t136 142.5l52 -20q-89 -79 -131.5 -132.5t-42.5 -117.5q0 -37 22 -78t92 -41q32 0 56.5 10.5t49.5 27.5l16 -48q-24 -18 -54 -31t-68 -13zM136 1585v53h627v-53h-627zM740 -21q-136 0 -248 52.5t-193 150t-125 233.5
t-44 304v18q0 168 43.5 304t124.5 233.5t192.5 150t247.5 52.5q135 0 247 -52.5t193.5 -150t125.5 -233.5t44 -304v-18q0 -168 -44 -304.5t-124.5 -233.5t-192.5 -149.5t-247 -52.5zM740 33q169 0 293.5 85t192.5 239.5t68 361.5v20q0 206 -68.5 360t-193.5 239t-294 85
q-168 0 -292 -85t-192.5 -239t-68.5 -360v-20q0 -207 68.5 -361.5t193 -239.5t293.5 -85z" />
    <glyph glyph-name="uni01ED" unicode="&#x1ed;" horiz-adv-x="604" 
d="M421 -423q-74 0 -121 45.5t-47 127.5q0 65 40 127.5t136 142.5l52 -20q-89 -79 -131.5 -132.5t-42.5 -117.5q0 -37 22 -78t92 -41q32 0 56.5 10.5t49.5 27.5l16 -48q-24 -18 -54 -31t-68 -13zM48 1420v53h627v-53h-627zM579 -21q-141 0 -248 69t-167 191t-60 281v42
q0 159 60 280.5t166.5 190.5t246.5 69q141 0 247.5 -69t166.5 -190.5t60 -280.5v-42q0 -159 -60 -281t-166.5 -191t-245.5 -69zM579 33q127 0 221 65.5t145.5 176t51.5 245.5v42q0 133 -52 243.5t-146.5 176.5t-221.5 66t-221.5 -66t-146 -176.5t-51.5 -243.5v-42
q0 -136 51.5 -246.5t146 -175.5t223.5 -65z" />
    <glyph glyph-name="uni01EE" unicode="&#x1ee;" horiz-adv-x="583" 
d="M520 1725v-17l-218 -206h-65l-221 210v13h60l195 -186l190 186h59zM291 440q68 -2 122.5 -30t85 -76.5t30.5 -112.5q0 -109 -76 -170t-212 -61q-126 0 -206 39v82q49 -23 104 -35t103 -12q97 0 145 41t48 117q0 69 -49.5 107t-143.5 38h-62v65l206 202h-331v80h444v-71z
" />
    <glyph glyph-name="uni01EF" unicode="&#x1ef;" horiz-adv-x="498" 
d="M526 -395q-121 0 -224 49t-163.5 142.5t-57.5 226.5l2 6h48q0 -108 49.5 -191.5t138.5 -131t207 -47.5q180 0 280 92.5t100 255.5q0 203 -110 300t-304 97h-71v56l482 562l-2 5h-751v-238h-54v293h869l3 -68l-482 -562q236 0 355 -117.5t119 -323.5q0 -125 -55 -216.5
t-153 -140.5t-226 -49zM475 1560v-17l-218 -206h-65l-221 210v13h60l195 -186l190 186h59z" />
    <glyph glyph-name="uni01F0" unicode="&#x1f0;" horiz-adv-x="563" 
d="M604 1560v-17l-218 -206h-65l-221 210v13h60l195 -186l190 186h59zM108 -437q-30 0 -56 5t-56 15l13 52q18 -6 45.5 -12t53.5 -6q110 0 170.5 76.5t60.5 217.5v1117h-163v54h217v-1171q0 -167 -75 -257.5t-210 -90.5z" />
    <glyph glyph-name="uni01F1" unicode="&#x1f1;" horiz-adv-x="1291" 
d="M71 0v54h163v1348h-163v54h163h395q179 0 318.5 -92.5t220 -254.5t80.5 -372v-18q0 -210 -80.5 -372t-220 -254.5t-318.5 -92.5h-558zM288 54h341q163 0 290.5 86.5t201 237t73.5 341.5v21q0 190 -73.5 339.5t-201 236t-290.5 86.5h-341v-1348zM812 0v44l929 1359h-835
v-240h-54v293h964v-38l-930 -1364h908v239h54v-293h-1036z" />
    <glyph glyph-name="uni01F2" unicode="&#x1f2;" horiz-adv-x="1200" 
d="M71 0v54h163v1348h-163v54h163h395q179 0 318.5 -92.5t220 -254.5t80.5 -372v-18q0 -210 -80.5 -372t-220 -254.5t-318.5 -92.5h-558zM288 54h341q163 0 290.5 86.5t201 237t73.5 341.5v21q0 190 -73.5 339.5t-201 236t-290.5 86.5h-341v-1348zM850 0v44l711 983h-656
v-238h-54v293h783v-48l-711 -980h716v239h54v-293h-843z" />
    <glyph glyph-name="uni01F3" unicode="&#x1f3;" horiz-adv-x="1084" 
d="M510 -21q-127 0 -218 66t-139.5 187.5t-48.5 288.5v21q0 171 48.5 297t140 194.5t219.5 68.5t220 -58.5t147 -160.5v623h-163v54h163h54v-1506h163v-54h-215l-2 173q-53 -89 -147 -141.5t-222 -52.5zM509 33q141 0 234.5 64t135.5 171v507q-39 116 -126 194.5t-242 78.5
q-115 0 -193 -64t-118 -178t-40 -264v-21q0 -224 88.5 -356t260.5 -132zM735 0v44l711 983h-656v-238h-54v293h783v-48l-711 -980h716v239h54v-293h-843z" />
    <glyph glyph-name="uni01F4" unicode="&#x1f4;" horiz-adv-x="728" 
d="M770 -21q-199 0 -342.5 93.5t-220.5 260.5t-77 387v38q0 213 81 375t222 253t321 91q154 0 261.5 -41.5t197.5 -111.5v-252h-54v224q-74 58 -166.5 92.5t-238.5 34.5q-162 0 -291 -84.5t-204 -233.5t-75 -345v-40q0 -203 69.5 -358t200 -242t314.5 -87q134 0 242 32.5
t184 75.5v424h-315v55h369v-509q-91 -55 -207 -93.5t-271 -38.5zM214 1494l180 231h64l2 -5l-199 -231h-45z" />
    <glyph glyph-name="uni01F5" unicode="&#x1f5;" horiz-adv-x="615" 
d="M524 -437q-79 0 -164.5 16.5t-149.5 45.5l16 54q73 -32 141 -47.5t155 -15.5q173 0 264.5 106.5t91.5 291.5v157q-54 -88 -147.5 -140t-220.5 -52t-218 66t-139.5 188t-48.5 288v21q0 172 48.5 297.5t140 194t219.5 68.5t220.5 -59t146.5 -161l8 200h46v-1068
q0 -138 -49.5 -239.5t-141 -156.5t-218.5 -55zM509 33q144 0 236.5 66t132.5 177v491q-38 119 -123.5 200t-243.5 81q-114 0 -192.5 -64t-119 -178t-40.5 -264v-21q0 -224 89 -356t261 -132zM913 1028l-7 54h170v-54h-163zM76 1329l180 231h64l2 -5l-199 -231h-45z" />
    <glyph glyph-name="uni01F6" unicode="&#x1f6;" horiz-adv-x="937" 
d="M187 333v-333h-90v714h90v-302h296v302h90v-550q0 -45 23 -70t70 -25q44 0 68 25t24 71v371h90v-371q0 -81 -49 -127.5t-136 -46.5q-85 0 -132.5 46t-47.5 129v167h-296z" />
    <glyph glyph-name="uni01F7" unicode="&#x1f7;" horiz-adv-x="661" 
d="M389 725q103 0 160 -64t57 -179q0 -161 -106.5 -284.5t-312.5 -207.5v-230h-90v955h71l15 -97h5q37 55 86.5 81t114.5 26zM187 74q161 67 245 171.5t84 235.5q0 81 -37 123.5t-106 42.5q-94 0 -140 -55.5t-46 -173.5v-344z" />
    <glyph glyph-name="uni01F8" unicode="&#x1f8;" horiz-adv-x="759" 
d="M71 0v54h163v1348h-163v54h163h55l934 -1353l6 2v1297h-163v54h217h163v-54h-163v-1402h-54l-934 1356l-6 -2v-1300h163v-54h-381zM336 1494l-2 -5h-45l-199 231l2 5h64z" />
    <glyph glyph-name="uni01F9" unicode="&#x1f9;" horiz-adv-x="618" 
d="M89 0v54h163v974h-163v54h209l7 -223q49 116 143 179.5t232 63.5q177 0 265.5 -111.5t88.5 -353.5v-583h163v-54h-380v54h163v585q0 225 -80.5 317t-218.5 92q-175 0 -264 -104.5t-111 -267.5v-622h163v-54h-380zM275 1329l-2 -5h-45l-199 231l2 5h64z" />
    <glyph glyph-name="Aringacute" unicode="&#x1fa;" horiz-adv-x="1472" 
d="M719 1404q-67 0 -114 45.5t-47 114.5t47 116.5t114 47.5t114 -47.5t47 -116.5t-47 -114.5t-114 -45.5zM719 1458q47 0 77 29.5t30 76.5q0 49 -30 79.5t-77 30.5q-46 0 -76.5 -30.5t-30.5 -79.5q0 -47 30.5 -76.5t76.5 -29.5zM672 1788l139 214h64l2 -5l-158 -214h-45z
M55 0v54h107l524 1402h66l525 -1402h107v-54h-309v54h143l-143 381h-712l-142 -381h143v-54h-309zM383 489h672l-305 820l-28 82h-6l-27 -82z" />
    <glyph glyph-name="aringacute" unicode="&#x1fb;" horiz-adv-x="1116" 
d="M515 1068q-72 0 -121.5 48.5t-49.5 121.5q0 74 49.5 124t121.5 50q71 0 121 -50t50 -124q0 -73 -50 -121.5t-121 -48.5zM515 1122q51 0 84 32t33 84q0 53 -33 86.5t-84 33.5t-84 -33.5t-33 -86.5q0 -52 33 -84t84 -32zM468 1502l139 214h64l2 -5l-158 -214h-45zM417 -21
q-142 0 -227.5 81.5t-85.5 213.5q0 97 58.5 171.5t165 116.5t250.5 42h249v138q0 135 -78 221t-245 86q-88 0 -161 -33t-124 -80v-177h-54v206q67 62 149.5 99.5t190.5 37.5q187 0 281.5 -97.5t94.5 -264.5v-522q0 -42 3.5 -83t11.5 -81h150v-54h-197q-13 71 -17.5 108.5
t-4.5 90.5q-61 -98 -167.5 -159t-242.5 -61zM417 32q123 0 238 69t172 191v257h-246q-191 0 -307 -77.5t-116 -201.5q0 -101 73 -169.5t186 -68.5z" />
    <glyph glyph-name="AEacute" unicode="&#x1fc;" horiz-adv-x="2026" 
d="M1037 1592l180 231h64l2 -5l-199 -231h-45zM51 0v54h119l849 1402h776v-293h-54v239h-642l26 -616h588v-54h-586l28 -678h647v239h54v-293h-915v54h160l-15 371h-628l-223 -371h131v-54h-315zM490 478h594l-39 924l-5 1l-57 -105z" />
    <glyph glyph-name="aeacute" unicode="&#x1fd;" horiz-adv-x="1795" 
d="M837 1329l180 231h64l2 -5l-199 -231h-45zM417 -21q-142 0 -227.5 85.5t-85.5 223.5q0 102 58.5 179.5t165 121t250.5 43.5h249v110q0 135 -78 221t-245 86q-88 0 -161 -33t-124 -80v-177h-54v206q67 62 149.5 99.5t190.5 37.5q164 0 256.5 -73t111.5 -200
q27 80 86 141.5t138.5 96.5t166.5 35q126 0 216.5 -53.5t139 -152.5t48.5 -236v-83h-787v-77q0 -208 99 -337.5t299 -129.5q102 0 186.5 34.5t145.5 96.5l30 -42q-65 -66 -148.5 -104.5t-213.5 -38.5q-290 0 -409 269q-70 -121 -187 -195t-266 -74zM417 32q84 0 166.5 33
t151 95t107.5 149q-7 47 -11 95.5t-4 97.5v75h-246q-191 0 -307 -81.5t-116 -211.5q0 -107 73 -179.5t186 -72.5zM883 632h731v32q0 168 -91.5 276t-258.5 108q-108 0 -191.5 -53.5t-133 -146t-58.5 -211.5z" />
    <glyph glyph-name="Oslashacute" unicode="&#x1fe;" horiz-adv-x="1488" 
d="M678 1592l180 231h64l2 -5l-199 -231h-45zM740 -21q-136 0 -248 52.5t-193 150t-125 233.5t-44 304v18q0 168 43.5 304t124.5 233.5t192.5 150t247.5 52.5q135 0 247 -52.5t193.5 -150t125.5 -233.5t44 -304v-18q0 -168 -44 -304.5t-124.5 -233.5t-192.5 -149.5
t-247 -52.5zM740 33q169 0 293.5 85t192.5 239.5t68 361.5v20q0 206 -68.5 360t-193.5 239t-294 85q-168 0 -292 -85t-192.5 -239t-68.5 -360v-20q0 -207 68.5 -361.5t193 -239.5t293.5 -85zM212 -57l997 1570h66l-997 -1570h-66z" />
    <glyph glyph-name="oslashacute" unicode="&#x1ff;" horiz-adv-x="1155" 
d="M518 1329l180 231h64l2 -5l-199 -231h-45zM579 -21q-141 0 -248 69t-167 191t-60 281v42q0 159 60 280.5t166.5 190.5t246.5 69q141 0 247.5 -69t166.5 -190.5t60 -280.5v-42q0 -159 -60 -281t-166.5 -191t-245.5 -69zM579 33q127 0 221 65.5t145.5 176t51.5 245.5v42
q0 133 -52 243.5t-146.5 176.5t-221.5 66t-221.5 -66t-146 -176.5t-51.5 -243.5v-42q0 -136 51.5 -246.5t146 -175.5t223.5 -65zM185 -141l723 1364h63l-723 -1364h-63z" />
    <glyph glyph-name="uni0200" unicode="&#x200;" horiz-adv-x="639" 
d="M930 1489h-51l-231 230l2 6h68l214 -230zM1165 1492h-48l-196 227l3 6h64l179 -228zM55 0v54h107l524 1402h66l525 -1402h107v-54h-309v54h143l-143 381h-712l-142 -381h143v-54h-309zM383 489h672l-305 820l-28 82h-6l-27 -82z" />
    <glyph glyph-name="uni0201" unicode="&#x201;" horiz-adv-x="561" 
d="M896 1324h-51l-231 230l2 6h68l214 -230zM1131 1327h-48l-196 227l3 6h64l179 -228zM417 -21q-142 0 -227.5 81.5t-85.5 213.5q0 97 58.5 171.5t165 116.5t250.5 42h249v138q0 135 -78 221t-245 86q-88 0 -161 -33t-124 -80v-177h-54v206q67 62 149.5 99.5t190.5 37.5
q187 0 281.5 -97.5t94.5 -264.5v-522q0 -42 3.5 -83t11.5 -81h150v-54h-197q-13 71 -17.5 108.5t-4.5 90.5q-61 -98 -167.5 -159t-242.5 -61zM417 32q123 0 238 69t172 191v257h-246q-191 0 -307 -77.5t-116 -201.5q0 -101 73 -169.5t186 -68.5z" />
    <glyph glyph-name="uni0202" unicode="&#x202;" horiz-adv-x="639" 
d="M322 905q69 0 108.5 -33.5t44.5 -100.5h-54q-4 36 -25 49.5t-76 13.5q-50 0 -73.5 -15.5t-27.5 -47.5h-55q5 63 47.5 98.5t110.5 35.5zM55 0v54h107l524 1402h66l525 -1402h107v-54h-309v54h143l-143 381h-712l-142 -381h143v-54h-309zM383 489h672l-305 820l-28 82h-6
l-27 -82z" />
    <glyph glyph-name="uni0203" unicode="&#x203;" horiz-adv-x="561" 
d="M293 740q69 0 108.5 -33.5t44.5 -100.5h-54q-4 36 -25 49.5t-76 13.5q-50 0 -73.5 -15.5t-27.5 -47.5h-55q5 63 47.5 98.5t110.5 35.5zM417 -21q-142 0 -227.5 81.5t-85.5 213.5q0 97 58.5 171.5t165 116.5t250.5 42h249v138q0 135 -78 221t-245 86q-88 0 -161 -33
t-124 -80v-177h-54v206q67 62 149.5 99.5t190.5 37.5q187 0 281.5 -97.5t94.5 -264.5v-522q0 -42 3.5 -83t11.5 -81h150v-54h-197q-13 71 -17.5 108.5t-4.5 90.5q-61 -98 -167.5 -159t-242.5 -61zM417 32q123 0 238 69t172 191v257h-246q-191 0 -307 -77.5t-116 -201.5
q0 -101 73 -169.5t186 -68.5z" />
    <glyph glyph-name="uni0204" unicode="&#x204;" horiz-adv-x="556" 
d="M918 1489h-51l-231 230l2 6h68l214 -230zM1153 1492h-48l-196 227l3 6h64l179 -228zM71 0v54h163v1348h-163v54h1019v-293h-54v239h-748v-616h630v-54h-630v-678h778v239h54v-293h-1049z" />
    <glyph glyph-name="uni0205" unicode="&#x205;" horiz-adv-x="563" 
d="M912 1324h-51l-231 230l2 6h68l214 -230zM1147 1327h-48l-196 227l3 6h64l179 -228zM564 -21q-130 0 -232 66.5t-161 184t-59 270.5v64q0 155 57 276.5t156.5 191.5t225.5 70q122 0 213.5 -54.5t142 -153.5t50.5 -234v-83h-791v-77q0 -134 51 -239.5t141 -166.5t206 -61
q103 0 182.5 35.5t141.5 96.5l29 -42q-67 -64 -152 -104t-201 -40zM177 631h726v33q0 110 -43.5 197t-122.5 137t-186 50q-102 0 -184 -54t-133 -147t-60 -210z" />
    <glyph glyph-name="uni0206" unicode="&#x206;" horiz-adv-x="556" 
d="M300 905q69 0 108.5 -33.5t44.5 -100.5h-54q-4 36 -25 49.5t-76 13.5q-50 0 -73.5 -15.5t-27.5 -47.5h-55q5 63 47.5 98.5t110.5 35.5zM71 0v54h163v1348h-163v54h1019v-293h-54v239h-748v-616h630v-54h-630v-678h778v239h54v-293h-1049z" />
    <glyph glyph-name="uni0207" unicode="&#x207;" horiz-adv-x="563" 
d="M294 740q69 0 108.5 -33.5t44.5 -100.5h-54q-4 36 -25 49.5t-76 13.5q-50 0 -73.5 -15.5t-27.5 -47.5h-55q5 63 47.5 98.5t110.5 35.5zM564 -21q-130 0 -232 66.5t-161 184t-59 270.5v64q0 155 57 276.5t156.5 191.5t225.5 70q122 0 213.5 -54.5t142 -153.5t50.5 -234
v-83h-791v-77q0 -134 51 -239.5t141 -166.5t206 -61q103 0 182.5 35.5t141.5 96.5l29 -42q-67 -64 -152 -104t-201 -40zM177 631h726v33q0 110 -43.5 197t-122.5 137t-186 50q-102 0 -184 -54t-133 -147t-60 -210z" />
    <glyph glyph-name="uni0208" unicode="&#x208;" horiz-adv-x="338" 
d="M780 1489h-51l-231 230l2 6h68l214 -230zM1015 1492h-48l-196 227l3 6h64l179 -228zM71 0v54h163v1348h-163v54h380v-54h-163v-1348h163v-54h-380z" />
    <glyph glyph-name="uni0209" unicode="&#x209;" horiz-adv-x="257" 
d="M739 1324h-51l-231 230l2 6h68l214 -230zM974 1327h-48l-196 227l3 6h64l179 -228zM89 0v54h163v974h-163v54h217v-1028h163v-54h-380z" />
    <glyph glyph-name="uni020A" unicode="&#x20a;" horiz-adv-x="338" 
d="M172 905q69 0 108.5 -33.5t44.5 -100.5h-54q-4 36 -25 49.5t-76 13.5q-50 0 -73.5 -15.5t-27.5 -47.5h-55q5 63 47.5 98.5t110.5 35.5zM71 0v54h163v1348h-163v54h380v-54h-163v-1348h163v-54h-380z" />
    <glyph glyph-name="uni020B" unicode="&#x20b;" horiz-adv-x="257" 
d="M131 740q69 0 108.5 -33.5t44.5 -100.5h-54q-4 36 -25 49.5t-76 13.5q-50 0 -73.5 -15.5t-27.5 -47.5h-55q5 63 47.5 98.5t110.5 35.5zM89 0v54h163v974h-163v54h217v-1028h163v-54h-380z" />
    <glyph glyph-name="uni020C" unicode="&#x20c;" horiz-adv-x="780" 
d="M1002 1489h-51l-231 230l2 6h68l214 -230zM1237 1492h-48l-196 227l3 6h64l179 -228zM740 -21q-136 0 -248 52.5t-193 150t-125 233.5t-44 304v18q0 168 43.5 304t124.5 233.5t192.5 150t247.5 52.5q135 0 247 -52.5t193.5 -150t125.5 -233.5t44 -304v-18
q0 -168 -44 -304.5t-124.5 -233.5t-192.5 -149.5t-247 -52.5zM740 33q169 0 293.5 85t192.5 239.5t68 361.5v20q0 206 -68.5 360t-193.5 239t-294 85q-168 0 -292 -85t-192.5 -239t-68.5 -360v-20q0 -207 68.5 -361.5t193 -239.5t293.5 -85z" />
    <glyph glyph-name="uni020D" unicode="&#x20d;" horiz-adv-x="604" 
d="M919 1324h-51l-231 230l2 6h68l214 -230zM1154 1327h-48l-196 227l3 6h64l179 -228zM579 -21q-141 0 -248 69t-167 191t-60 281v42q0 159 60 280.5t166.5 190.5t246.5 69q141 0 247.5 -69t166.5 -190.5t60 -280.5v-42q0 -159 -60 -281t-166.5 -191t-245.5 -69zM579 33
q127 0 221 65.5t145.5 176t51.5 245.5v42q0 133 -52 243.5t-146.5 176.5t-221.5 66t-221.5 -66t-146 -176.5t-51.5 -243.5v-42q0 -136 51.5 -246.5t146 -175.5t223.5 -65z" />
    <glyph glyph-name="uni020E" unicode="&#x20e;" horiz-adv-x="780" 
d="M393 905q69 0 108.5 -33.5t44.5 -100.5h-54q-4 36 -25 49.5t-76 13.5q-50 0 -73.5 -15.5t-27.5 -47.5h-55q5 63 47.5 98.5t110.5 35.5zM740 -21q-136 0 -248 52.5t-193 150t-125 233.5t-44 304v18q0 168 43.5 304t124.5 233.5t192.5 150t247.5 52.5q135 0 247 -52.5
t193.5 -150t125.5 -233.5t44 -304v-18q0 -168 -44 -304.5t-124.5 -233.5t-192.5 -149.5t-247 -52.5zM740 33q169 0 293.5 85t192.5 239.5t68 361.5v20q0 206 -68.5 360t-193.5 239t-294 85q-168 0 -292 -85t-192.5 -239t-68.5 -360v-20q0 -207 68.5 -361.5t193 -239.5
t293.5 -85z" />
    <glyph glyph-name="uni020F" unicode="&#x20f;" horiz-adv-x="604" 
d="M305 740q69 0 108.5 -33.5t44.5 -100.5h-54q-4 36 -25 49.5t-76 13.5q-50 0 -73.5 -15.5t-27.5 -47.5h-55q5 63 47.5 98.5t110.5 35.5zM579 -21q-141 0 -248 69t-167 191t-60 281v42q0 159 60 280.5t166.5 190.5t246.5 69q141 0 247.5 -69t166.5 -190.5t60 -280.5v-42
q0 -159 -60 -281t-166.5 -191t-245.5 -69zM579 33q127 0 221 65.5t145.5 176t51.5 245.5v42q0 133 -52 243.5t-146.5 176.5t-221.5 66t-221.5 -66t-146 -176.5t-51.5 -243.5v-42q0 -136 51.5 -246.5t146 -175.5t223.5 -65z" />
    <glyph glyph-name="uni0210" unicode="&#x210;" horiz-adv-x="622" 
d="M921 1489h-51l-231 230l2 6h68l214 -230zM1156 1492h-48l-196 227l3 6h64l179 -228zM71 -1v54h163v1348h-163v54h585q154 0 260.5 -44.5t162 -131t55.5 -214.5q0 -122 -60.5 -207.5t-169 -130t-252.5 -44.5h-364v-630h163v-54h-380zM1067 -1l-305 719h54l287 -665h133
v-54h-169zM288 737h363q221 0 325 94t104 234q0 163 -106.5 249.5t-317.5 86.5h-368v-664z" />
    <glyph glyph-name="uni0211" unicode="&#x211;" horiz-adv-x="413" 
d="M857 1324h-51l-231 230l2 6h68l214 -230zM1092 1327h-48l-196 227l3 6h64l179 -228zM89 0v54h163v974h-163v54h207l10 -188v-37q45 116 134 180.5t219 64.5q23 0 52.5 -4t43.5 -8l-6 -48l-90 7q-145 0 -235.5 -93.5t-117.5 -246.5v-655h163v-54h-380z" />
    <glyph glyph-name="uni0212" unicode="&#x212;" horiz-adv-x="622" 
d="M313 905q69 0 108.5 -33.5t44.5 -100.5h-54q-4 36 -25 49.5t-76 13.5q-50 0 -73.5 -15.5t-27.5 -47.5h-55q5 63 47.5 98.5t110.5 35.5zM71 -1v54h163v1348h-163v54h585q154 0 260.5 -44.5t162 -131t55.5 -214.5q0 -122 -60.5 -207.5t-169 -130t-252.5 -44.5h-364v-630
h163v-54h-380zM1067 -1l-305 719h54l287 -665h133v-54h-169zM288 737h363q221 0 325 94t104 234q0 163 -106.5 249.5t-317.5 86.5h-368v-664z" />
    <glyph glyph-name="uni0213" unicode="&#x213;" horiz-adv-x="413" 
d="M244 740q69 0 108.5 -33.5t44.5 -100.5h-54q-4 36 -25 49.5t-76 13.5q-50 0 -73.5 -15.5t-27.5 -47.5h-55q5 63 47.5 98.5t110.5 35.5zM89 0v54h163v974h-163v54h207l10 -188v-37q45 116 134 180.5t219 64.5q23 0 52.5 -4t43.5 -8l-6 -48l-90 7q-145 0 -235.5 -93.5
t-117.5 -246.5v-655h163v-54h-380z" />
    <glyph glyph-name="uni0214" unicode="&#x214;" horiz-adv-x="730" 
d="M990 1489h-51l-231 230l2 6h68l214 -230zM1225 1492h-48l-196 227l3 6h64l179 -228zM721 -21q-149 0 -261 56.5t-174.5 166t-62.5 267.5v933h-163v54h380v-54h-163v-933q0 -137 56.5 -234.5t156.5 -149.5t231 -52q130 0 230 52t156.5 149.5t56.5 234.5v933h-163v54h380
v-54h-163v-933q0 -159 -63 -268t-175 -165.5t-259 -56.5z" />
    <glyph glyph-name="uni0215" unicode="&#x215;" horiz-adv-x="618" 
d="M919 1324h-51l-231 230l2 6h68l214 -230zM1154 1327h-48l-196 227l3 6h64l179 -228zM533 -21q-164 0 -255 118.5t-91 367.5v563h-143v54h143h54v-619q0 -220 77.5 -325t212.5 -105q169 0 254.5 83t110.5 220v692h-163v54h163h55v-1028h163v-54h-208l-8 194
q-51 -103 -140.5 -159t-224.5 -56z" />
    <glyph glyph-name="uni0216" unicode="&#x216;" horiz-adv-x="730" 
d="M368 905q69 0 108.5 -33.5t44.5 -100.5h-54q-4 36 -25 49.5t-76 13.5q-50 0 -73.5 -15.5t-27.5 -47.5h-55q5 63 47.5 98.5t110.5 35.5zM721 -21q-149 0 -261 56.5t-174.5 166t-62.5 267.5v933h-163v54h380v-54h-163v-933q0 -137 56.5 -234.5t156.5 -149.5t231 -52
q130 0 230 52t156.5 149.5t56.5 234.5v933h-163v54h380v-54h-163v-933q0 -159 -63 -268t-175 -165.5t-259 -56.5z" />
    <glyph glyph-name="uni0217" unicode="&#x217;" horiz-adv-x="618" 
d="M311 740q69 0 108.5 -33.5t44.5 -100.5h-54q-4 36 -25 49.5t-76 13.5q-50 0 -73.5 -15.5t-27.5 -47.5h-55q5 63 47.5 98.5t110.5 35.5zM533 -21q-164 0 -255 118.5t-91 367.5v563h-143v54h143h54v-619q0 -220 77.5 -325t212.5 -105q169 0 254.5 83t110.5 220v692h-163v54
h163h55v-1028h163v-54h-208l-8 194q-51 -103 -140.5 -159t-224.5 -56z" />
    <glyph glyph-name="uni0218" unicode="&#x218;" horiz-adv-x="1183" 
d="M554 -531l-37 32q32 44 46.5 83.5t14.5 95.5v65h54v-63q0 -67 -21 -119.5t-57 -93.5zM589 -21q-117 0 -243.5 37t-245.5 117v257h54v-226q108 -68 219 -99.5t216 -31.5q128 0 227 40t155.5 111.5t56.5 164.5q0 92 -43.5 160t-141.5 121t-264 99t-264 98t-140.5 124
t-42.5 178q0 104 56 182t157.5 122t236.5 44q141 0 254.5 -42t198.5 -113v-234h-54v204q-78 65 -180 98t-219 33q-127 0 -215.5 -40.5t-134.5 -107t-46 -144.5q0 -82 33 -144.5t121 -111.5t254 -94q242 -65 365.5 -161.5t123.5 -268.5q0 -115 -64.5 -198.5t-176 -128.5
t-253.5 -45z" />
    <glyph glyph-name="uni0219" unicode="&#x219;" horiz-adv-x="1009" 
d="M466 -531l-37 32q32 44 46.5 83.5t14.5 95.5v65h54v-63q0 -67 -21 -119.5t-57 -93.5zM487 -21q-118 0 -217.5 38t-166.5 105v193h54v-163q59 -63 146 -91t184 -28q150 0 238 70t88 162q0 86 -73.5 156.5t-256.5 110.5q-191 40 -272.5 105t-81.5 189q0 78 42 140.5
t120.5 99t186.5 36.5q116 0 204.5 -40t149.5 -107v-202h-54v175q-52 58 -123 89t-177 31q-147 0 -221 -68t-74 -152q0 -58 24.5 -102t92.5 -78.5t199 -63.5q182 -40 275 -115t93 -205q0 -127 -104 -206t-276 -79z" />
    <glyph glyph-name="uni021A" unicode="&#x21a;" horiz-adv-x="1277" 
d="M601 -531l-37 32q32 44 46.5 83.5t14.5 95.5v65h54v-63q0 -67 -21 -119.5t-57 -93.5zM447 0v54h163v1348h-476v-239h-54v293h1114v-293h-54v239h-476v-1348h163v-54h-380z" />
    <glyph glyph-name="uni021B" unicode="&#x21b;" horiz-adv-x="719" 
d="M425 -531l-37 32q32 44 46.5 83.5t14.5 95.5v65h54v-63q0 -67 -21 -119.5t-57 -93.5zM487 -21q-109 0 -165.5 71t-56.5 229v748h-200v55h200v292h55v-292h266v-55h-266v-748q0 -133 45 -189.5t119 -56.5q32 0 57 2t69 7l10 -49q-30 -8 -61.5 -11t-71.5 -3z" />
    <glyph glyph-name="uni021C" unicode="&#x21c;" horiz-adv-x="587" 
d="M572 -21q-134 0 -248 49t-182.5 142.5t-65.5 227.5l2 6h46q0 -109 57 -192.5t158 -131t233 -47.5q219 0 340.5 92.5t121.5 256.5q0 174 -117 253.5t-350 79.5h-184v56h184q228 0 336 82t108 234q0 153 -110 244.5t-329 91.5q-144 0 -256 -53.5t-178 -143.5v-214h-55v234
q73 107 201.5 169t287.5 62q229 0 361 -102t132 -292q0 -118 -75.5 -208.5t-215.5 -129.5q158 -34 236 -124.5t78 -234.5q0 -127 -65.5 -218t-181.5 -140t-269 -49z" />
    <glyph glyph-name="uni021D" unicode="&#x21d;" horiz-adv-x="498" 
d="M193 228q70 0 111.5 35t41.5 90t-38.5 88t-103.5 33q-30 0 -60.5 -7.5t-72.5 -26.5l-30 70q44 21 83 28.5t85 7.5q103 0 162 -48t59 -133q0 -61 -31.5 -105t-95.5 -65q81 -21 121 -71t40 -123q0 -70 -33 -125.5t-93.5 -85.5t-138.5 -30q-116 0 -189 37v80
q44 -21 95 -32.5t98 -11.5q79 0 126 45t47 121q0 77 -51 118t-151 41h-79v70h98z" />
    <glyph glyph-name="uni021E" unicode="&#x21e;" horiz-adv-x="741" 
d="M618 1725v-17l-218 -206h-65l-221 210v13h60l195 -186l190 186h59zM71 0v54h163v1348h-163v54h380v-54h-163v-653h930v653h-163v54h163h54h163v-54h-163v-1348h163v-54h-380v54h163v641h-930v-641h163v-54h-380z" />
    <glyph glyph-name="uni021F" unicode="&#x21f;" horiz-adv-x="618" 
d="M582 1745v-17l-218 -206h-65l-221 210v13h60l195 -186l190 186h59zM62 0v54h163v1452h-163v54h217v-706q50 118 147 183t237 65q169 0 256.5 -107t87.5 -337v-604h163v-54h-381v54h163v606q0 213 -78.5 300.5t-209.5 87.5q-175 0 -268 -104.5t-117 -267.5v-622h163v-54
h-380z" />
    <glyph glyph-name="uni0220" unicode="&#x220;" horiz-adv-x="741" 
d="M392 647q-205 0 -205 -224v-423h-90v715h71l15 -92h5q32 45 93 73.5t122 28.5q247 0 247 -264v-701h-90v701q0 97 -41 141.5t-127 44.5z" />
    <glyph glyph-name="uni0221" unicode="&#x221;" horiz-adv-x="615" 
d="M530 -72q0 -52 12 -74t45 -22q36 0 57 11v-67q-23 -16 -76 -16q-126 0 -126 167v63q0 12 2.5 41t3.5 38h-6q-58 -79 -166 -79q-105 0 -163 73t-58 204t58 205t163 74q108 0 166 -79h6q-1 10 -3.5 39.5t-2.5 39.5v214h88v-832zM289 63q80 0 117 43.5t37 143.5v16
q0 112 -37.5 159.5t-117.5 47.5q-68 0 -105 -54t-37 -154t37 -151t106 -51z" />
    <glyph glyph-name="uni0222" unicode="&#x222;" horiz-adv-x="670" 
d="M335 470q74 0 113 41t39 115v88h90v-88q0 -145 -115 -193q74 -23 112.5 -74t38.5 -127q0 -112 -74.5 -177t-205.5 -65q-81 0 -143.5 29.5t-97 85t-34.5 127.5q0 157 149 202q-113 46 -113 192v88h90v-88q0 -74 39 -115t112 -41zM153 232q0 -82 46 -123t136 -41
t136.5 41.5t46.5 122.5q0 161 -184 161q-181 0 -181 -161z" />
    <glyph glyph-name="uni0223" unicode="&#x223;" horiz-adv-x="604" 
d="M303 485q67 0 96.5 36t29.5 113v126h88v-129q0 -77 -23 -121t-74 -63q65 -25 98 -78t33 -130q0 -117 -67 -183t-183 -66q-111 0 -178.5 67.5t-67.5 181.5q0 162 130 209q-51 19 -73.5 63.5t-22.5 119.5v129h88v-126q0 -77 29.5 -113t96.5 -36zM146 239q0 -86 39.5 -131
t117.5 -45q77 0 117 44.5t40 131.5t-41 130t-117 43q-77 0 -116.5 -43.5t-39.5 -129.5z" />
    <glyph glyph-name="uni0224" unicode="&#x224;" horiz-adv-x="571" 
d="M416 -198q-29 0 -60 12v73q22 -9 50 -9q48 0 48 52v150h79v-145q0 -133 -117 -133zM92 0v44l929 1359h-835v-240h-54v293h964v-38l-930 -1364h908v239h54v-293h-1036z" />
    <glyph glyph-name="uni0225" unicode="&#x225;" horiz-adv-x="470" 
d="M431 -65q0 -133 -117 -133q-29 0 -60 12v73q22 -9 50 -9q48 0 48 52v70h-313v58l288 410h-271v68h368v-66l-284 -402h291v-133z" />
    <glyph glyph-name="uni0226" unicode="&#x226;" horiz-adv-x="639" 
d="M230 1585v140h72v-140h-72zM55 0v54h107l524 1402h66l525 -1402h107v-54h-309v54h143l-143 381h-712l-142 -381h143v-54h-309zM383 489h672l-305 820l-28 82h-6l-27 -82z" />
    <glyph glyph-name="uni0227" unicode="&#x227;" horiz-adv-x="561" 
d="M191 1420v140h72v-140h-72zM417 -21q-142 0 -227.5 81.5t-85.5 213.5q0 97 58.5 171.5t165 116.5t250.5 42h249v138q0 135 -78 221t-245 86q-88 0 -161 -33t-124 -80v-177h-54v206q67 62 149.5 99.5t190.5 37.5q187 0 281.5 -97.5t94.5 -264.5v-522q0 -42 3.5 -83
t11.5 -81h150v-54h-197q-13 71 -17.5 108.5t-4.5 90.5q-61 -98 -167.5 -159t-242.5 -61zM417 32q123 0 238 69t172 191v257h-246q-191 0 -307 -77.5t-116 -201.5q0 -101 73 -169.5t186 -68.5z" />
    <glyph glyph-name="uni0228" unicode="&#x228;" horiz-adv-x="556" 
d="M71 0v54h163v1348h-163v54h1019v-293h-54v239h-748v-616h630v-54h-630v-678h778v239h54v-293h-1049zM232 -435l-7 49q104 0 180.5 36t76.5 105q0 64 -45.5 89t-163.5 35l25 121h53l-11 -76q91 -7 144 -45.5t53 -123.5q0 -87 -79 -138.5t-226 -51.5z" />
    <glyph glyph-name="uni0229" unicode="&#x229;" horiz-adv-x="563" 
d="M564 -21q-130 0 -232 66.5t-161 184t-59 270.5v64q0 155 57 276.5t156.5 191.5t225.5 70q122 0 213.5 -54.5t142 -153.5t50.5 -234v-83h-791v-77q0 -134 51 -239.5t141 -166.5t206 -61q103 0 182.5 35.5t141.5 96.5l29 -42q-67 -64 -152 -104t-201 -40zM177 631h726v33
q0 110 -43.5 197t-122.5 137t-186 50q-102 0 -184 -54t-133 -147t-60 -210zM226 -435l-7 49q104 0 180.5 36t76.5 105q0 64 -45.5 89t-163.5 35l25 121h53l-11 -76q91 -7 144 -45.5t53 -123.5q0 -87 -79 -138.5t-226 -51.5z" />
    <glyph glyph-name="uni022A" unicode="&#x22a;" horiz-adv-x="780" 
d="M531 828q0 -23 -12.5 -36t-34.5 -13t-34.5 13t-12.5 36q0 26 14 38t33 12q20 0 33.5 -12t13.5 -38zM343 828q0 -26 -13.5 -37.5t-32.5 -11.5q-22 0 -34.5 13t-12.5 36q0 26 14 38t33 12t32.5 -12t13.5 -38zM242 1014h297v-71h-297v71zM740 -21q-136 0 -248 52.5t-193 150
t-125 233.5t-44 304v18q0 168 43.5 304t124.5 233.5t192.5 150t247.5 52.5q135 0 247 -52.5t193.5 -150t125.5 -233.5t44 -304v-18q0 -168 -44 -304.5t-124.5 -233.5t-192.5 -149.5t-247 -52.5zM740 33q169 0 293.5 85t192.5 239.5t68 361.5v20q0 206 -68.5 360t-193.5 239
t-294 85q-168 0 -292 -85t-192.5 -239t-68.5 -360v-20q0 -207 68.5 -361.5t193 -239.5t293.5 -85z" />
    <glyph glyph-name="uni022B" unicode="&#x22b;" horiz-adv-x="604" 
d="M443 650q0 -23 -12.5 -36t-34.5 -13t-34.5 13t-12.5 36q0 26 14 38t33 12q20 0 33.5 -12t13.5 -38zM255 650q0 -26 -13.5 -37.5t-32.5 -11.5q-22 0 -34.5 13t-12.5 36q0 26 14 38t33 12t32.5 -12t13.5 -38zM154 836h297v-71h-297v71zM579 -21q-141 0 -248 69t-167 191
t-60 281v42q0 159 60 280.5t166.5 190.5t246.5 69q141 0 247.5 -69t166.5 -190.5t60 -280.5v-42q0 -159 -60 -281t-166.5 -191t-245.5 -69zM579 33q127 0 221 65.5t145.5 176t51.5 245.5v42q0 133 -52 243.5t-146.5 176.5t-221.5 66t-221.5 -66t-146 -176.5t-51.5 -243.5
v-42q0 -136 51.5 -246.5t146 -175.5t223.5 -65z" />
    <glyph glyph-name="uni022C" unicode="&#x22c;" horiz-adv-x="780" 
d="M461 784q-19 0 -38 7.5t-36.5 16.5t-35 16.5t-32.5 7.5q-19 0 -29 -11t-17 -38h-51q5 55 30.5 84.5t66.5 29.5q21 0 40.5 -7.5t37 -16.5t34 -16.5t31.5 -7.5q21 0 30 13t16 36h50q-5 -55 -30 -84.5t-67 -29.5zM241 1014h297v-71h-297v71zM740 -21q-136 0 -248 52.5
t-193 150t-125 233.5t-44 304v18q0 168 43.5 304t124.5 233.5t192.5 150t247.5 52.5q135 0 247 -52.5t193.5 -150t125.5 -233.5t44 -304v-18q0 -168 -44 -304.5t-124.5 -233.5t-192.5 -149.5t-247 -52.5zM740 33q169 0 293.5 85t192.5 239.5t68 361.5v20q0 206 -68.5 360
t-193.5 239t-294 85q-168 0 -292 -85t-192.5 -239t-68.5 -360v-20q0 -207 68.5 -361.5t193 -239.5t293.5 -85z" />
    <glyph glyph-name="uni022D" unicode="&#x22d;" horiz-adv-x="604" 
d="M373 606q-19 0 -38 7.5t-36.5 16.5t-35 16.5t-32.5 7.5q-19 0 -29 -11t-17 -38h-51q5 55 30.5 84.5t66.5 29.5q21 0 40.5 -7.5t37 -16.5t34 -16.5t31.5 -7.5q21 0 30 13t16 36h50q-5 -55 -30 -84.5t-67 -29.5zM153 836h297v-71h-297v71zM579 -21q-141 0 -248 69t-167 191
t-60 281v42q0 159 60 280.5t166.5 190.5t246.5 69q141 0 247.5 -69t166.5 -190.5t60 -280.5v-42q0 -159 -60 -281t-166.5 -191t-245.5 -69zM579 33q127 0 221 65.5t145.5 176t51.5 245.5v42q0 133 -52 243.5t-146.5 176.5t-221.5 66t-221.5 -66t-146 -176.5t-51.5 -243.5
v-42q0 -136 51.5 -246.5t146 -175.5t223.5 -65z" />
    <glyph glyph-name="uni022E" unicode="&#x22e;" horiz-adv-x="780" 
d="M301 1585v140h72v-140h-72zM740 -21q-136 0 -248 52.5t-193 150t-125 233.5t-44 304v18q0 168 43.5 304t124.5 233.5t192.5 150t247.5 52.5q135 0 247 -52.5t193.5 -150t125.5 -233.5t44 -304v-18q0 -168 -44 -304.5t-124.5 -233.5t-192.5 -149.5t-247 -52.5zM740 33
q169 0 293.5 85t192.5 239.5t68 361.5v20q0 206 -68.5 360t-193.5 239t-294 85q-168 0 -292 -85t-192.5 -239t-68.5 -360v-20q0 -207 68.5 -361.5t193 -239.5t293.5 -85z" />
    <glyph glyph-name="uni022F" unicode="&#x22f;" horiz-adv-x="604" 
d="M213 1420v140h72v-140h-72zM579 -21q-141 0 -248 69t-167 191t-60 281v42q0 159 60 280.5t166.5 190.5t246.5 69q141 0 247.5 -69t166.5 -190.5t60 -280.5v-42q0 -159 -60 -281t-166.5 -191t-245.5 -69zM579 33q127 0 221 65.5t145.5 176t51.5 245.5v42q0 133 -52 243.5
t-146.5 176.5t-221.5 66t-221.5 -66t-146 -176.5t-51.5 -243.5v-42q0 -136 51.5 -246.5t146 -175.5t223.5 -65z" />
    <glyph glyph-name="uni0230" unicode="&#x230;" horiz-adv-x="780" 
d="M339 826q0 29 15 42.5t37 13.5q23 0 37 -15t14 -41t-14.5 -41t-36.5 -15t-37 13.5t-15 42.5zM241 1001h297v-71h-297v71zM740 -21q-136 0 -248 52.5t-193 150t-125 233.5t-44 304v18q0 168 43.5 304t124.5 233.5t192.5 150t247.5 52.5q135 0 247 -52.5t193.5 -150
t125.5 -233.5t44 -304v-18q0 -168 -44 -304.5t-124.5 -233.5t-192.5 -149.5t-247 -52.5zM740 33q169 0 293.5 85t192.5 239.5t68 361.5v20q0 206 -68.5 360t-193.5 239t-294 85q-168 0 -292 -85t-192.5 -239t-68.5 -360v-20q0 -207 68.5 -361.5t193 -239.5t293.5 -85z" />
    <glyph glyph-name="uni0231" unicode="&#x231;" horiz-adv-x="604" 
d="M252 662q0 29 15 42.5t37 13.5q23 0 37 -15t14 -41t-14.5 -41t-36.5 -15t-37 13.5t-15 42.5zM154 837h297v-71h-297v71zM579 -21q-141 0 -248 69t-167 191t-60 281v42q0 159 60 280.5t166.5 190.5t246.5 69q141 0 247.5 -69t166.5 -190.5t60 -280.5v-42q0 -159 -60 -281
t-166.5 -191t-245.5 -69zM579 33q127 0 221 65.5t145.5 176t51.5 245.5v42q0 133 -52 243.5t-146.5 176.5t-221.5 66t-221.5 -66t-146 -176.5t-51.5 -243.5v-42q0 -136 51.5 -246.5t146 -175.5t223.5 -65z" />
    <glyph glyph-name="uni0232" unicode="&#x232;" horiz-adv-x="565" 
d="M29 1585v53h627v-53h-627zM526 0v54h163v499l-515 849h-119v54h326v-54h-141l449 -755l26 -50l1 2l26 48l451 755h-141v54h326v-54h-120l-514 -849v-499h163v-54h-381z" />
    <glyph glyph-name="uni0233" unicode="&#x233;" horiz-adv-x="509" 
d="M1 1420v53h627v-53h-627zM283 -437q-19 0 -42 3.5t-34 7.5l9 51q11 -3 33 -6t34 -3q92 0 143.5 54t91.5 160l65 176l-410 1022h-118v54h319v-54h-142l335 -832l40 -108h6l359 940h-142v54h320v-54h-118l-460 -1208q-29 -76 -63.5 -134t-87.5 -90.5t-138 -32.5z" />
    <glyph glyph-name="uni0234" unicode="&#x234;" horiz-adv-x="380" 
d="M85 760h88v-542q31 12 68 12q61 0 95.5 -33.5t34.5 -86.5q0 -56 -34.5 -88t-98.5 -32q-46 0 -79 17.5t-51 46.5q-15 -30 -34 -84l-67 30q36 98 78 151v609zM237 58q29 0 41.5 15t12.5 37q0 26 -15.5 39t-41.5 13q-30 0 -61 -24q3 -80 64 -80z" />
    <glyph glyph-name="uni0235" unicode="&#x235;" horiz-adv-x="745" 
d="M537 218q31 12 68 12q61 0 95.5 -33.5t34.5 -86.5q0 -56 -34 -88t-99 -32q-88 0 -129 64q-15 -28 -34 -84l-67 30q36 98 78 151v192q0 65 -29 97t-91 32q-83 0 -120 -45.5t-37 -148.5v-278h-88v536h71l13 -73h5q25 40 70 61.5t99 21.5q99 0 146.5 -48t47.5 -149v-131z
M601 58q25 0 39.5 13t14.5 39t-15 39t-42 13q-30 0 -61 -24q3 -80 64 -80z" />
    <glyph glyph-name="uni0236" unicode="&#x236;" horiz-adv-x="388" 
d="M92 468h-76v42l77 35l35 114h52v-123h155v-68h-155v-250q31 12 68 12q61 0 95.5 -33.5t34.5 -86.5q0 -56 -34 -88t-99 -32q-46 0 -78.5 17.5t-51.5 46.5q-15 -28 -34 -84l-67 30q37 99 78 151v317zM244 58q25 0 39.5 13t14.5 39t-15 39t-42 13q-30 0 -61 -24
q3 -80 64 -80z" />
    <glyph glyph-name="uni0237" unicode="&#x237;" horiz-adv-x="563" 
d="M108 -437q-30 0 -56 5t-56 15l13 52q18 -6 45.5 -12t53.5 -6q110 0 170.5 76.5t60.5 217.5v1117h-163v54h217v-1171q0 -167 -75 -257.5t-210 -90.5z" />
    <glyph glyph-name="uni0238" unicode="&#x238;" horiz-adv-x="972" 
d="M292 -10q-115 0 -176 71t-61 206q0 131 58 205t163 74q108 0 166 -79h6q-2 13 -4 45t-2 60v188h88v-185q0 -55 -5 -110h5q54 80 166 80q106 0 163.5 -73t57.5 -204q0 -135 -62 -206.5t-177 -71.5q-138 0 -193 125q-56 -125 -193 -125zM679 63q147 0 147 206
q0 102 -35.5 152.5t-109.5 50.5q-81 0 -116 -46t-35 -155q0 -208 149 -208zM295 63q71 0 109.5 55t38.5 153q0 110 -37 156t-118 46q-68 0 -105 -54t-37 -154t38 -151t111 -51z" />
    <glyph glyph-name="uni0239" unicode="&#x239;" horiz-adv-x="972" 
d="M680 546q115 0 176 -71t61 -206q0 -131 -58 -205t-163 -74q-108 0 -166 79h-6l2 -17q4 -37 4 -88v-204h-88v201q0 55 5 110h-5q-52 -80 -166 -80q-105 0 -163 73t-58 204q0 135 62 206.5t177 71.5q137 0 193 -125q28 64 78.5 94.5t114.5 30.5zM293 473q-147 0 -147 -206
q0 -102 35.5 -152.5t109.5 -50.5q81 0 116 46t35 155q0 208 -149 208zM677 473q-70 0 -109 -54.5t-39 -153.5q0 -109 36.5 -155.5t118.5 -46.5q68 0 105 54t37 154t-37.5 151t-111.5 51z" />
    <glyph glyph-name="uni023A" unicode="&#x23a;" horiz-adv-x="639" 
d="M499 760l-74 -212l213 -548h-93l-86 221h-148l-102 -296h-67l103 296h-69l-85 -221h-91l279 717h81l30 -78l42 121h67zM273 301l77 222q-20 55 -32 101q-15 -59 -31 -107l-81 -216h67zM384 430l-45 -129h93z" />
    <glyph glyph-name="uni023B" unicode="&#x23b;" horiz-adv-x="631" 
d="M559 760l-19 -55q30 -8 61 -23l-36 -76q-36 16 -53 21l-190 -548q36 -10 80 -10q76 0 171 28v-78q-45 -17 -87 -23t-97 -6q-46 0 -94 10l-26 -75h-67l33 95q-85 40 -129.5 126.5t-44.5 211.5q0 110 41 193t118.5 128t183.5 45q38 0 74 -5l14 41h67zM403 645
q-115 0 -181 -77t-66 -211q0 -183 108 -252l187 536q-19 4 -48 4z" />
    <glyph glyph-name="uni023C" unicode="&#x23c;" horiz-adv-x="479" 
d="M479 760l-81 -226q28 -8 49 -17l-27 -73q-31 11 -48 15l-136 -382q28 -11 63 -11q71 0 139 31v-78q-56 -29 -138 -29q-45 0 -91 13l-75 -211h-67l85 239q-97 70 -97 234q0 135 65.5 208t185.5 73h15l14 -1l77 215h67zM146 266q0 -97 37 -147l125 350h-4q-81 0 -119.5 -51
t-38.5 -152z" />
    <glyph glyph-name="uni023D" unicode="&#x23d;" horiz-adv-x="523" 
d="M10 403h87v311h90v-311h170v-71h-170v-252h312v-80h-402v332h-87v71z" />
    <glyph glyph-name="uni023E" unicode="&#x23e;" horiz-adv-x="556" 
d="M520 760l-22 -46h47v-79h-83l-139 -299v-336h-90v142l-101 -217h-70l171 368v342h-223v79h418l22 46h70zM323 487l69 148h-69v-148z" />
    <glyph glyph-name="uni023F" unicode="&#x23f;" horiz-adv-x="479" 
d="M235 -9q18 -26 29 -74q17 -84 105 -84q19 0 41 4.5t31 8.5v-72q-34 -14 -81 -14q-80 0 -121.5 36.5t-56.5 120.5q-13 69 -75 86q-34 9 -55 21v80q88 -43 170 -43q66 0 96.5 21.5t30.5 57.5q0 32 -29 54t-103 50q-76 29 -106.5 50t-45 47t-14.5 63q0 66 53.5 104t147.5 38
q91 0 171 -36l-30 -70q-82 34 -147 34q-55 0 -83 -17.5t-28 -47.5q0 -29 24.5 -48.5t113.5 -53.5q67 -25 99 -46.5t47 -48t15 -64.5q0 -72 -51 -113t-148 -44z" />
    <glyph glyph-name="uni0240" unicode="&#x240;" horiz-adv-x="470" 
d="M140 68q55 -10 87 -46t50 -105q11 -44 39 -64t77 -20q34 0 66 11v-72q-29 -12 -72 -12q-82 0 -126.5 35t-68.5 122q-13 47 -39.5 65t-78.5 18h-35v58l288 410h-271v68h368v-66z" />
    <glyph glyph-name="uni0241" unicode="&#x241;" horiz-adv-x="448" 
d="M124 0v322q88 27 140.5 82t52.5 126q0 56 -33.5 85.5t-96.5 29.5q-36 0 -79.5 -13.5t-72.5 -35.5l-33 72q37 26 87 41t102 15q103 0 162 -51t59 -140q0 -82 -50.5 -149.5t-147.5 -112.5v-271h-90z" />
    <glyph glyph-name="uni0242" unicode="&#x242;" horiz-adv-x="436" 
d="M124 0v144q87 27 136.5 82t49.5 126q0 121 -123 121q-34 0 -72 -13t-70 -36l-33 66q77 56 179 56q100 0 154.5 -49.5t54.5 -141.5q0 -81 -49 -148t-139 -109v-98h-88z" />
    <glyph glyph-name="uni0243" unicode="&#x243;" horiz-adv-x="649" 
d="M97 171h-82v78h82v465h204q144 0 207.5 -43t63.5 -134q0 -63 -35 -104.5t-101 -53.5v-5q83 -14 121.5 -57t38.5 -114q0 -96 -65.5 -149.5t-182.5 -53.5h-251v171zM187 335v-86h148v-78h-148v-95h144q86 0 127.5 33.5t41.5 100.5q0 64 -44 94.5t-132 30.5h-137zM187 410
h132q84 0 122 27t38 90q0 59 -41.5 84.5t-132.5 25.5h-118v-227z" />
    <glyph glyph-name="uni0244" unicode="&#x244;" horiz-adv-x="730" 
d="M640 714v-282h81v-78h-81v-102q0 -122 -73.5 -192t-204.5 -70q-129 0 -200.5 70.5t-71.5 193.5v100h-80v78h80v282h90v-282h371v282h89zM367 68q88 0 136 47.5t48 136.5v102h-371v-103q0 -87 46.5 -135t140.5 -48z" />
    <glyph glyph-name="uni0245" unicode="&#x245;" horiz-adv-x="607" 
d="M52 0v54h107l514 1402h65l515 -1402h107v-54h-309v54h143l-459 1250l-27 84h-6l-27 -84l-457 -1250h143v-54h-309z" />
    <glyph glyph-name="uni0246" unicode="&#x246;" horiz-adv-x="556" 
d="M459 760l-12 -46h49v-79h-69l-57 -223h108v-78h-128l-64 -255h210v-79h-230l-19 -75h-65l19 75h-104v714h285l12 46h65zM187 412h119l56 223h-175v-223zM187 79h34l65 255h-99v-255z" />
    <glyph glyph-name="uni0247" unicode="&#x247;" horiz-adv-x="563" 
d="M77 -208l83 240q-105 70 -105 232q0 129 64 205.5t173 76.5q15 0 44 -4l76 218h67l-82 -237q55 -28 85.5 -84.5t30.5 -134.5v-53h-210l-60 -173q30 -13 74 -13q43 0 81.5 7.5t90.5 29.5v-77q-44 -19 -83.5 -27t-92.5 -8q-52 0 -96 14l-73 -212h-67zM291 474
q-63 0 -99.5 -40.5t-43.5 -112.5h112l52 151zM421 321q-2 90 -50 128l-44 -128h94zM146 251q2 -88 43 -135l47 135h-90z" />
    <glyph glyph-name="uni0248" unicode="&#x248;" horiz-adv-x="272" 
d="M-4 -190q-46 0 -74 13v76q35 -10 72 -10q49 0 73.5 29.5t24.5 85.5v310h-82v78h82v322h90v-322h81v-78h-81v-303q0 -97 -48 -149t-138 -52z" />
    <glyph glyph-name="uni0249" unicode="&#x249;" horiz-adv-x="257" 
d="M22 -240q-46 0 -77 12v71q34 -10 66 -10q38 0 56 21t18 63v331h-75v71h75v217h88v-217h75v-71h-75v-328q0 -80 -38.5 -120t-112.5 -40zM78 681q0 29 15 42.5t37 13.5q21 0 36 -13.5t15 -42.5t-15.5 -42.5t-35.5 -13.5q-22 0 -37 13.5t-15 42.5z" />
    <glyph glyph-name="uni024A" unicode="&#x24a;" horiz-adv-x="767" 
d="M361 646q-97 0 -151.5 -76t-54.5 -213q0 -135 54 -212t153 -77q77 0 125 22.5t70 67t22 122.5v154q0 79 -22.5 123.5t-70.5 66.5t-125 22zM579 20q0 26 4 72h-5q-28 -47 -84 -74.5t-136 -27.5q-91 0 -158.5 44.5t-103 128t-35.5 195.5q0 172 80 269t222 97q70 0 128 -27
t87 -75h5l15 92h71v-793q0 -42 14 -62t49 -20q24 0 45 10v-76q-23 -13 -56 -13q-142 0 -142 157v103z" />
    <glyph glyph-name="uni024B" unicode="&#x24b;" horiz-adv-x="615" 
d="M290 63q79 0 115 43t38 142v18q0 111 -37 159t-118 48q-69 0 -105.5 -54t-36.5 -154q0 -98 36.5 -150t107.5 -52zM442 -11q0 54 5 83h-6q-56 -82 -168 -82q-104 0 -161 73.5t-57 203.5q0 131 58.5 205t162.5 74q110 0 167 -83h4l13 73h70v-608q0 -55 11 -75.5t38 -20.5
q31 0 50 11v-67q-21 -16 -70 -16q-117 0 -117 167v62z" />
    <glyph glyph-name="uni024C" unicode="&#x24c;" horiz-adv-x="622" 
d="M187 295v-295h-90v295h-87v76h87v343h197q133 0 196.5 -50.5t63.5 -152.5q0 -142 -143 -191l196 -320h-105l-173 295h-142zM187 371h107q87 0 127 34t40 102q0 67 -40.5 98t-131.5 31h-102v-265z" />
    <glyph glyph-name="uni024D" unicode="&#x24d;" horiz-adv-x="413" 
d="M299 248h-126v-248h-88v248h-75v71h75v217h72l10 -98h4q31 53 73 80.5t91 27.5q36 0 63 -6l-11 -81q-30 7 -58 7q-57 0 -100.5 -40.5t-53.5 -106.5h124v-71z" />
    <glyph glyph-name="uni024E" unicode="&#x24e;" horiz-adv-x="565" 
d="M165 586h236l68 128h97l-70 -128h60v-78h-102l-126 -231v-277h-90v273l-127 235h-101v78h59l-69 128h98zM283 363l77 145h-154z" />
    <glyph glyph-name="uni024F" unicode="&#x24f;" horiz-adv-x="509" 
d="M100 288h-90v71h62l-71 177h94l67 -177h189l64 177h95l-67 -177h57v-71h-84l-137 -362q-34 -89 -80.5 -127.5t-114.5 -38.5q-37 0 -73 8v70q24 -6 59 -6q42 0 71 23t48 72l28 71zM260 85q12 52 66 203h-137q31 -81 46 -124t21 -79h4z" />
    <glyph glyph-name="uni2000" unicode="&#x2000;" horiz-adv-x="1044" 
 />
    <glyph glyph-name="uni2001" unicode="&#x2001;" horiz-adv-x="2089" 
 />
    <glyph glyph-name="uni2002" unicode="&#x2002;" horiz-adv-x="1044" 
 />
    <glyph glyph-name="uni2003" unicode="&#x2003;" horiz-adv-x="2089" 
 />
    <glyph glyph-name="uni2004" unicode="&#x2004;" horiz-adv-x="697" 
 />
    <glyph glyph-name="uni2005" unicode="&#x2005;" horiz-adv-x="522" 
 />
    <glyph glyph-name="uni2006" unicode="&#x2006;" horiz-adv-x="348" 
 />
    <glyph glyph-name="uni2007" unicode="&#x2007;" horiz-adv-x="1151" 
 />
    <glyph glyph-name="uni2008" unicode="&#x2008;" horiz-adv-x="560" 
 />
    <glyph glyph-name="uni2009" unicode="&#x2009;" horiz-adv-x="418" 
 />
    <glyph glyph-name="uni200A" unicode="&#x200a;" horiz-adv-x="209" 
 />
    <glyph glyph-name="uni200B" unicode="&#x200b;" horiz-adv-x="0" 
 />
    <glyph glyph-name="uni200C" unicode="&#x200c;" horiz-adv-x="0" 
d="M-26 -166v954h52v-954h-52z" />
    <glyph glyph-name="uni200D" unicode="&#x200d;" horiz-adv-x="0" 
d="M36 646l110 -107l-37 -36l-83 82v-750h-52v750l-83 -82l-37 36l110 107l-110 106l37 36l109 -108l109 108l37 -37z" />
    <glyph glyph-name="uni200E" unicode="&#x200e;" horiz-adv-x="0" 
d="M212 583l-108 -107l-27 26l64 61h-121v-696h-40v735h161l-64 61l27 27z" />
    <glyph glyph-name="uni200F" unicode="&#x200f;" horiz-adv-x="0" 
d="M20 -133h-41v696h-121l65 -61l-27 -26l-109 107l109 107l27 -27l-65 -61h162v-735z" />
    <glyph glyph-name="figuredash" unicode="&#x2012;" horiz-adv-x="571" 
d="M40 321v73h492v-73h-492z" />
    <glyph glyph-name="endash" unicode="&#x2013;" horiz-adv-x="1412" 
d="M161 721v54h1086v-54h-1086z" />
    <glyph glyph-name="emdash" unicode="&#x2014;" horiz-adv-x="1673" 
d="M165 721v54h1336v-54h-1336z" />
    <glyph glyph-name="uni2015" unicode="&#x2015;" horiz-adv-x="1673" 
d="M165 721v54h1336v-54h-1336z" />
    <glyph glyph-name="uni2016" unicode="&#x2016;" horiz-adv-x="550" 
d="M349 760h73v-1001h-73v1001zM130 760h73v-1001h-73v1001z" />
    <glyph glyph-name="underscoredbl" unicode="&#x2017;" horiz-adv-x="923" 
d="M197 -287v54h846v-54h-846zM197 -54v54h846v-54h-846z" />
    <glyph glyph-name="quoteleft" unicode="&#x2018;" horiz-adv-x="320" 
d="M101 1128v168q0 59 12.5 109.5t36 93.5t57.5 79l37 -32q-47 -61 -68 -117.5t-21 -130.5v-170h-54z" />
    <glyph glyph-name="quoteright" unicode="&#x2019;" horiz-adv-x="320" 
d="M114 1111l-37 32q46 60 67.5 116.5t21.5 131.5v169h54v-167q0 -59 -12.5 -110t-36.5 -94t-57 -78z" />
    <glyph glyph-name="quotesinglbase" unicode="&#x201a;" horiz-adv-x="383" 
d="M129 -255l-37 32q46 61 67.5 117.5t21.5 130.5v134h54v-132q0 -88 -28 -158t-78 -124z" />
    <glyph glyph-name="quotereversed" unicode="&#x201b;" horiz-adv-x="320" 
d="M206 1111l37 32q-46 60 -67.5 116.5t-21.5 131.5v169h-54v-167q0 -59 12.5 -110t36.5 -94t57 -78z" />
    <glyph glyph-name="quotedblleft" unicode="&#x201c;" horiz-adv-x="500" 
d="M101 1128v168q0 59 12.5 109.5t36 93.5t57.5 79l37 -32q-47 -61 -68 -117.5t-21 -130.5v-170h-54zM281 1128v168q0 59 12.5 109.5t36 93.5t57.5 79l37 -32q-47 -61 -68 -117.5t-21 -130.5v-170h-54z" />
    <glyph glyph-name="quotedblright" unicode="&#x201d;" horiz-adv-x="502" 
d="M114 1111l-37 32q46 60 67.5 116.5t21.5 131.5v169h54v-167q0 -59 -12.5 -110t-36.5 -94t-57 -78zM296 1111l-37 32q46 60 67.5 116.5t21.5 131.5v169h54v-167q0 -59 -12.5 -110t-36.5 -94t-57 -78z" />
    <glyph glyph-name="quotedblbase" unicode="&#x201e;" horiz-adv-x="554" 
d="M129 -255l-37 32q46 61 67.5 117.5t21.5 130.5v134h54v-132q0 -88 -28 -158t-78 -124zM300 -255l-37 32q46 61 67.5 117.5t21.5 130.5v134h54v-132q0 -88 -28 -158t-78 -124z" />
    <glyph glyph-name="uni201F" unicode="&#x201f;" horiz-adv-x="358" 
d="M297 714q18 -115 50 -245h-65q-22 46 -48 113.5t-39 120.5l7 11h95zM112 714q18 -115 50 -245h-64q-26 56 -51 123.5t-35 110.5l6 11h94z" />
    <glyph glyph-name="dagger" unicode="&#x2020;" horiz-adv-x="1124" 
d="M538 0v1024h-475v58h475v374h54v-374h461v-58h-461v-1024h-54z" />
    <glyph glyph-name="daggerdbl" unicode="&#x2021;" horiz-adv-x="1139" 
d="M524 -416v416h-453v54h453v973h-453v55h453v374h55v-374h481v-55h-481v-973h481v-54h-481v-416h-55z" />
    <glyph glyph-name="bullet" unicode="&#x2022;" horiz-adv-x="655" 
d="M302 545q-77 0 -122 44t-45 114v70q0 70 45 115t121 45t122 -45.5t46 -114.5v-70q0 -70 -45.5 -114t-121.5 -44z" />
    <glyph glyph-name="twodotenleader" unicode="&#x2025;" horiz-adv-x="893" 
d="M183 0v130h86v-130h-86zM567 0v130h86v-130h-86z" />
    <glyph glyph-name="ellipsis" unicode="&#x2026;" horiz-adv-x="1255" 
d="M183 0v130h86v-130h-86zM567 0v130h86v-130h-86zM936 0v130h86v-130h-86z" />
    <glyph glyph-name="uni202A" unicode="&#x202a;" horiz-adv-x="0" 
d="M21 563v-696h-41v735h232v-39h-191z" />
    <glyph glyph-name="uni202B" unicode="&#x202b;" horiz-adv-x="0" 
d="M-212 563v39h232v-735h-41v696h-191z" />
    <glyph glyph-name="uni202C" unicode="&#x202c;" horiz-adv-x="0" 
d="M116 477h-95v-610h-42v610h-95v212h232v-212z" />
    <glyph glyph-name="uni202D" unicode="&#x202d;" horiz-adv-x="0" 
d="M116 477h-95v-610h-42v610h-95v212h232v-39h-193v-135h193v-38z" />
    <glyph glyph-name="uni202E" unicode="&#x202e;" horiz-adv-x="0" 
d="M-116 515h193v135h-193v39h232v-212h-95v-610h-42v610h-95v38z" />
    <glyph glyph-name="uni202F" unicode="&#x202f;" horiz-adv-x="200" 
 />
    <glyph glyph-name="perthousand" unicode="&#x2030;" horiz-adv-x="1957" 
d="M439 131l-45 31l711 1138l45 -31zM349 800q-81 0 -142.5 40t-96 107.5t-34.5 151.5v77q0 84 34.5 152.5t95.5 108.5t141 40q79 0 140.5 -40t96.5 -108.5t35 -152.5v-77q0 -84 -34.5 -151.5t-95.5 -107.5t-140 -40zM349 855q104 0 159.5 72t55.5 172v77q0 100 -57 173
t-160 73q-102 0 -159 -73.5t-57 -172.5v-77q0 -100 56.5 -172t161.5 -72zM1103 -21q-80 0 -141.5 40t-96 108t-34.5 152v78q0 83 34.5 151t95.5 108.5t140 40.5q87 0 151 -48.5t94 -127.5q32 79 99 127.5t154 48.5q80 0 141.5 -40t96 -108t34.5 -152v-78q0 -84 -34.5 -152
t-95.5 -108t-140 -40q-88 0 -155.5 48t-99.5 128q-30 -80 -93.5 -128t-149.5 -48zM1103 34q103 0 159.5 72t56.5 173v78q0 106 -56 175.5t-162 69.5q-103 0 -159 -70t-56 -175v-78q0 -101 56.5 -173t160.5 -72zM1591 34q103 0 158.5 72t55.5 173v78q0 106 -55.5 175.5
t-160.5 69.5q-104 0 -159.5 -69.5t-55.5 -175.5v-78q0 -101 56 -173t161 -72z" />
    <glyph glyph-name="minute" unicode="&#x2032;" horiz-adv-x="421" 
d="M166 1122l15 267v171h55v-169l-20 -269h-50z" />
    <glyph glyph-name="second" unicode="&#x2033;" horiz-adv-x="665" 
d="M166 1122l15 267v171h55v-169l-20 -269h-50zM347 1122l15 267v171h55v-169l-20 -269h-50z" />
    <glyph glyph-name="uni2034" unicode="&#x2034;" horiz-adv-x="590" 
d="M526 714l-20 -258h-55l-20 258h95zM160 714l-20 -258h-55l-20 258h95zM343 714l-20 -258h-55l-20 258h95z" />
    <glyph glyph-name="guilsinglleft" unicode="&#x2039;" horiz-adv-x="559" 
d="M363 181l-295 370v19l295 370h70l-294 -380l294 -379h-70z" />
    <glyph glyph-name="guilsinglright" unicode="&#x203a;" horiz-adv-x="557" 
d="M83 171l293 379l-293 390h70l294 -380v-19l-294 -370h-70z" />
    <glyph glyph-name="exclamdbl" unicode="&#x203c;" horiz-adv-x="874" 
d="M163 478v978h54v-978h-54zM143 0v134h95v-134h-95zM600 478v978h54v-978h-54zM580 0v134h95v-134h-95z" />
    <glyph glyph-name="uni203E" unicode="&#x203e;" horiz-adv-x="500" 
d="M503 760h-506v66h506v-66z" />
    <glyph glyph-name="fraction" unicode="&#x2044;" horiz-adv-x="871" 
d="M87 131l-45 31l711 1138l45 -31z" />
    <glyph glyph-name="uni205E" unicode="&#x205e;" horiz-adv-x="268" 
d="M72 54q0 32 15.5 50t46.5 18q30 0 46 -17.5t16 -50.5t-16.5 -50.5t-45.5 -17.5q-30 0 -46 18t-16 50zM72 456q0 32 15.5 50t46.5 18q30 0 46 -17.5t16 -50.5q0 -32 -16.5 -50t-45.5 -18q-30 0 -46 18t-16 50zM72 255q0 33 16 50.5t46 17.5t46 -17.5t16 -50.5
q0 -32 -16.5 -50t-45.5 -18q-30 0 -46 18t-16 50zM72 657q0 32 15.5 50t46.5 18q30 0 46 -17.5t16 -50.5t-16.5 -50.5t-45.5 -17.5q-30 0 -46 18t-16 50z" />
    <glyph glyph-name="uni206A" unicode="&#x206a;" horiz-adv-x="0" 
d="M-116 515h95v135h-95v39h232v-39h-95v-135h95v-38h-95v-610h-42v610h-95v38z" />
    <glyph glyph-name="uni206B" unicode="&#x206b;" horiz-adv-x="0" 
d="M-77 515h154v135h-154v-135zM-116 477v212h232v-212h-95v-610h-42v610h-95z" />
    <glyph glyph-name="uni206C" unicode="&#x206c;" horiz-adv-x="0" 
d="M21 -133h-42v643l-96 179h234l-96 -179v-643z" />
    <glyph glyph-name="uni206D" unicode="&#x206d;" horiz-adv-x="0" 
d="M21 477v-610h-42v610h-96l117 215l117 -215h-96z" />
    <glyph glyph-name="uni206E" unicode="&#x206e;" horiz-adv-x="0" 
d="M21 -133h-42v627l-96 89l117 107l117 -107l-96 -89v-627zM62 583l-62 55l-62 -55l62 -55z" />
    <glyph glyph-name="uni206F" unicode="&#x206f;" horiz-adv-x="0" 
d="M-116 515h95v135h-95v39h137v-174h95v-38h-95v-610h-42v610h-95v38z" />
  </font>
</defs>
</svg>
