<?xml version="1.0" standalone="no"?>
<!DOCTYPE svg PUBLIC "-//W3C//DTD SVG 1.1//EN" "http://www.w3.org/Graphics/SVG/1.1/DTD/svg11.dtd" >
<svg xmlns="http://www.w3.org/2000/svg" xmlns:xlink="http://www.w3.org/1999/xlink" version="1.1">
<metadata>
Created by FontForge 20190801 at Tue May  4 08:59:34 2021
 By root
Copyright 2018 The Roboto Slab Project Authors (https://github.com/googlefonts/robotoslab)
</metadata>
<defs>
<font id="RobotoSlab-Light" horiz-adv-x="499" >
  <font-face 
    font-family="Roboto Slab Light"
    font-weight="300"
    font-stretch="normal"
    units-per-em="2048"
    panose-1="0 0 0 0 0 0 0 0 0 0"
    ascent="1638"
    descent="-410"
    x-height="1082"
    cap-height="1456"
    bbox="-213 -534 2006 2018"
    underline-thickness="100"
    underline-position="-200"
    unicode-range="U+0001-206F"
  />
<missing-glyph horiz-adv-x="748" 
d="M68 0v1365h544v-1365h-544zM136 68h408v1229h-408v-1229z" />
    <glyph glyph-name=".notdef" horiz-adv-x="748" 
d="M68 0v1365h544v-1365h-544zM136 68h408v1229h-408v-1229z" />
    <glyph glyph-name="uni0000" 
 />
    <glyph glyph-name="uni0000" 
 />
    <glyph glyph-name="nonmarkingreturn" horiz-adv-x="682" 
 />
    <glyph glyph-name="uni0001" 
 />
    <glyph glyph-name="uni0002" 
 />
    <glyph glyph-name="uni0003" 
 />
    <glyph glyph-name="uni0004" 
 />
    <glyph glyph-name="uni0005" 
 />
    <glyph glyph-name="uni0006" 
 />
    <glyph glyph-name="uni0007" 
 />
    <glyph glyph-name="uni0008" 
 />
    <glyph glyph-name="uni0009" unicode="&#x9;" 
 />
    <glyph glyph-name="uni000A" unicode="&#xa;" 
 />
    <glyph glyph-name="uni000B" 
 />
    <glyph glyph-name="uni000C" 
 />
    <glyph glyph-name="CR" unicode="&#xd;" 
 />
    <glyph glyph-name="uni000E" 
 />
    <glyph glyph-name="uni000F" 
 />
    <glyph glyph-name="uni0010" 
 />
    <glyph glyph-name="uni0011" 
 />
    <glyph glyph-name="uni0012" 
 />
    <glyph glyph-name="uni0013" 
 />
    <glyph glyph-name="uni0014" 
 />
    <glyph glyph-name="uni0015" 
 />
    <glyph glyph-name="uni0016" 
 />
    <glyph glyph-name="uni0017" 
 />
    <glyph glyph-name="uni0018" 
 />
    <glyph glyph-name="uni0019" 
 />
    <glyph glyph-name="uni001A" 
 />
    <glyph glyph-name="uni001B" 
 />
    <glyph glyph-name="uni001C" 
 />
    <glyph glyph-name="uni001D" 
 />
    <glyph glyph-name="uni001E" 
 />
    <glyph glyph-name="uni001F" 
 />
    <glyph glyph-name="space" unicode=" " 
 />
    <glyph glyph-name="exclam" unicode="!" horiz-adv-x="458" 
d="M154 478v978h120v-978h-120zM143 0v166h142v-166h-142z" />
    <glyph glyph-name="quotedbl" unicode="&#x22;" horiz-adv-x="680" 
d="M166 1091l8 283v186h103v-194l-39 -275h-72zM407 1091l8 283v186h103v-194l-39 -275h-72z" />
    <glyph glyph-name="numbersign" unicode="#" horiz-adv-x="1246" 
d="M241 0l76 410h-254v93h273l82 442h-279v95h298l78 416h100l-79 -416h314l79 416h100l-79 -416h229v-95h-247l-83 -442h255v-93h-273l-77 -410h-100l77 410h-314l-77 -410h-99zM436 503h313l83 442h-314z" />
    <glyph glyph-name="dollar" unicode="$" horiz-adv-x="1097" 
d="M497 -208v189q-120 8 -215 56.5t-148.5 141.5t-50.5 234l2 5h112q0 -118 46.5 -192t125 -108t173.5 -34q98 0 170 35.5t111 98t39 141.5q0 74 -30.5 129t-102 99.5t-193.5 87.5q-139 44 -229.5 99t-134.5 132t-44 189q0 163 100 264.5t272 114.5v203h103v-203
q174 -17 271 -131.5t95 -311.5l-7 -2h-109q0 152 -80 247.5t-224 95.5q-148 0 -224.5 -77.5t-76.5 -196.5q0 -77 28.5 -132t100 -99t200.5 -87q138 -47 228 -101.5t133.5 -130.5t43.5 -187q0 -166 -103.5 -265.5t-279.5 -114.5v-189h-102z" />
    <glyph glyph-name="percent" unicode="%" horiz-adv-x="1458" 
d="M404 121l-75 48l711 1138l75 -48zM1096 -21q-86 0 -150.5 40t-100.5 108t-36 152v78q0 83 36 151t100 108.5t149 40.5t149.5 -40t100.5 -108t36 -152v-78q0 -84 -36 -152t-100 -108t-148 -40zM1096 65q89 0 138 62.5t49 151.5v78q0 91 -49 152.5t-140 61.5
q-90 0 -139 -61.5t-49 -152.5v-78q0 -89 49 -151.5t141 -62.5zM364 800q-86 0 -150.5 40t-100.5 107.5t-36 151.5v77q0 84 35.5 152.5t100 108.5t149.5 40t149.5 -40t100 -108.5t35.5 -152.5v-77q0 -84 -35.5 -151.5t-99.5 -107.5t-148 -40zM364 886q89 0 137.5 62.5
t48.5 150.5v77q0 88 -49 151.5t-139 63.5t-139 -64t-49 -151v-77q0 -88 49 -150.5t141 -62.5z" />
    <glyph glyph-name="ampersand" unicode="&#x26;" horiz-adv-x="1270" 
d="M526 -21q-139 0 -240 48.5t-156.5 136.5t-55.5 206q0 117 67.5 211t195.5 191q8 7 16 13l16 12q-80 101 -118.5 182.5t-38.5 168.5q0 105 40 178.5t114.5 112t178.5 38.5q96 0 166 -37t108.5 -101t38.5 -146q0 -91 -45 -155.5t-130 -128.5l-159 -124l412 -480
q48 71 75 159t27 187h111q0 -128 -36.5 -235t-105.5 -194l185 -217l-2 -5h-138l-123 142q-78 -70 -177 -116.5t-226 -46.5zM526 79q93 0 179.5 37t156.5 106l-427 495l-46 -35q-116 -95 -155.5 -170.5t-39.5 -141.5q0 -124 85.5 -207.5t246.5 -83.5zM460 860l176 134
q59 44 83.5 93.5t24.5 105.5q0 79 -52.5 131t-146.5 52q-102 0 -157.5 -65t-55.5 -161q0 -67 31.5 -139t96.5 -151z" />
    <glyph glyph-name="quotesingle" unicode="'" horiz-adv-x="439" 
d="M166 1091l8 283v186h103v-194l-39 -275h-72z" />
    <glyph glyph-name="parenleft" unicode="(" horiz-adv-x="637" 
d="M563 -463q-87 50 -167.5 148t-144 234t-100.5 302t-37 352v15q0 182 37.5 348t101 303.5t144 237.5t166.5 148h6l26 -73q-73 -53 -138 -146.5t-115.5 -220.5t-79 -277.5t-28.5 -316.5v-20q0 -166 28.5 -316.5t78.5 -277.5t115.5 -222t138.5 -149l-26 -69h-6z" />
    <glyph glyph-name="parenright" unicode=")" horiz-adv-x="629" 
d="M37 -463l-26 69q72 52 137 146.5t115 222t79.5 279t29.5 317.5v20q0 164 -30 315t-80 279t-115 223t-136 148l26 69h6q85 -48 165.5 -148t144.5 -237.5t101.5 -303.5t37.5 -348v-15q0 -186 -37.5 -352t-101 -302t-144 -234t-166.5 -148h-6z" />
    <glyph glyph-name="asterisk" unicode="*" horiz-adv-x="953" 
d="M684 638l-214 306l-204 -304l-85 60l217 301l-332 108l32 100l332 -123l-4 370h104l-8 -373l325 127l33 -100l-334 -115l223 -295z" />
    <glyph glyph-name="plus" unicode="+" horiz-adv-x="1145" 
d="M507 146v483h-434v110h434v467h120v-467h444v-110h-444v-483h-120z" />
    <glyph glyph-name="comma" unicode="," horiz-adv-x="393" 
d="M131 -281l-71 52q47 66 69.5 131t22.5 143v143h120v-140q0 -93 -37.5 -180t-103.5 -149z" />
    <glyph glyph-name="hyphen" unicode="-" horiz-adv-x="793" 
d="M154 571v100h479v-100h-479z" />
    <glyph glyph-name="period" unicode="." horiz-adv-x="467" 
d="M145 0v163h137v-163h-137z" />
    <glyph glyph-name="slash" unicode="/" horiz-adv-x="798" 
d="M0 -125l608 1581h108l-607 -1581h-109z" />
    <glyph glyph-name="zero" unicode="0" horiz-adv-x="1158" 
d="M575 -21q-213 0 -333.5 152.5t-120.5 433.5v325q0 282 119.5 434.5t332.5 152.5t333 -152.5t120 -434.5v-325q0 -282 -119 -434t-332 -152zM575 79q162 0 246.5 122.5t84.5 346.5v362q0 224 -85 345t-248 121q-162 0 -247 -121t-85 -345v-362q0 -223 86 -346t248 -123z
" />
    <glyph glyph-name="one" unicode="1" horiz-adv-x="832" 
d="M114 0v87l262 13v1232l-288 -43v84l408 87v-1360l261 -13v-87h-643z" />
    <glyph glyph-name="two" unicode="2" horiz-adv-x="1116" 
d="M102 0v91l477 541q88 101 141 177.5t76.5 140.5t23.5 126q0 136 -77.5 218t-225.5 82q-155 0 -241 -92t-86 -247h-112l-2 6q-3 122 50.5 220.5t154.5 156t239 57.5q129 0 223.5 -49t146 -138t51.5 -210q0 -81 -33.5 -161.5t-97.5 -168.5t-155 -190l-401 -455l2 -5h637
l7 206h106v-306h-904z" />
    <glyph glyph-name="three" unicode="3" horiz-adv-x="1102" 
d="M535 -21q-128 0 -234 49t-167.5 140.5t-58.5 220.5l2 6h112q0 -93 44 -164.5t122 -111.5t180 -40q154 0 241 81.5t87 230.5q0 154 -91 227.5t-259 73.5h-139v101h139q106 0 177.5 36.5t108 100t36.5 147.5q0 137 -77 218t-228 81q-94 0 -166 -37t-113 -105t-41 -159h-112
l-2 6q-3 114 52.5 203.5t155 141t226.5 51.5q194 0 309.5 -107t115.5 -297q0 -103 -64 -193.5t-181 -133.5q137 -39 205 -131t68 -220q0 -130 -57 -223t-158.5 -143t-232.5 -50z" />
    <glyph glyph-name="four" unicode="4" horiz-adv-x="1178" 
d="M582 0v87l163 13v269h-682v67l671 1020h131v-987h228v-100h-228v-269l163 -13v-87h-446zM205 469h540v816l-6 2l-51 -94z" />
    <glyph glyph-name="five" unicode="5" horiz-adv-x="1070" 
d="M512 -21q-121 0 -216 45t-148.5 133.5t-50.5 219.5l2 6h107q0 -147 83.5 -225.5t222.5 -78.5q162 0 242.5 98.5t80.5 284.5q0 164 -81 262.5t-225 98.5q-140 0 -213.5 -45t-105.5 -135l-98 17l81 796h731v-236h-97l-9 127h-522l-54 -522q36 33 76.5 56.5t94 36.5
t128.5 15q124 2 217.5 -55t145.5 -163.5t52 -250.5q0 -148 -49.5 -256.5t-148 -168.5t-246.5 -60z" />
    <glyph glyph-name="six" unicode="6" horiz-adv-x="1124" 
d="M582 -21q-135 0 -239 68.5t-163 198.5t-59 316v267q0 211 63.5 355.5t175.5 218.5t256 74q75 0 148 -16.5t129 -48.5l-29 -96q-57 31 -113 45.5t-135 14.5q-165 0 -267 -125.5t-105 -380.5l2 -96q51 83 144 135.5t210 52.5q130 0 225.5 -61.5t146.5 -172t51 -254.5
t-55.5 -255.5t-155 -175.5t-230.5 -64zM582 79q97 0 169.5 52.5t112 142.5t39.5 200q0 175 -85 283t-242 108q-86 0 -158 -34.5t-119 -92.5t-58 -130v-56q0 -226 95 -349.5t246 -123.5z" />
    <glyph glyph-name="seven" unicode="7" horiz-adv-x="1115" 
d="M372 0l11 121q28 248 96 463t175 405.5t253 365.5h-717l-7 -205h-107v306h955v-101q-119 -139 -208.5 -277.5t-153 -286t-104 -312.5t-62.5 -358l-11 -121h-120z" />
    <glyph glyph-name="eight" unicode="8" horiz-adv-x="1127" 
d="M561 -21q-140 0 -245.5 47t-164.5 138t-59 222q0 128 79.5 224.5t213.5 136.5q-116 39 -184 127.5t-68 206.5q0 126 54 214.5t150 135t222 46.5q125 0 221.5 -47t152 -135.5t55.5 -213.5q0 -118 -70 -206.5t-185 -127.5q133 -41 214.5 -137t81.5 -224q0 -131 -60 -222
t-165.5 -138t-242.5 -47zM561 79q101 0 179.5 37t123.5 105.5t45 163.5q0 92 -46 162.5t-125 110t-179 39.5q-101 0 -179.5 -39.5t-123 -109.5t-44.5 -163q0 -144 97 -225t252 -81zM561 797q89 0 158 35.5t109 99.5t40 150q0 85 -41 151.5t-111 104.5t-157 38
q-135 0 -220.5 -80t-85.5 -214q0 -130 86 -207.5t222 -77.5z" />
    <glyph glyph-name="nine" unicode="9" horiz-adv-x="1138" 
d="M506 -21q-77 0 -156 15.5t-150 45.5l22 100q69 -32 134.5 -46.5t149.5 -14.5q166 0 261 124.5t97 380.5l-2 69q-49 -90 -137.5 -140t-198.5 -50q-133 0 -232.5 62.5t-154.5 174.5t-55 258q0 147 58 264.5t158.5 186t226.5 68.5q142 0 246 -61.5t161.5 -186t57.5 -311.5
v-306q0 -212 -60 -352.5t-169 -210.5t-257 -70zM526 563q130 0 217.5 67.5t123.5 165.5v131q0 227 -89 338t-246 111q-94 0 -167 -56.5t-115 -151t-42 -210.5q0 -113 39 -202t110.5 -141t168.5 -52z" />
    <glyph glyph-name="colon" unicode=":" horiz-adv-x="389" 
d="M130 0v163h137v-163h-137zM130 917v163h137v-163h-137z" />
    <glyph glyph-name="semicolon" unicode=";" horiz-adv-x="392" 
d="M135 919v163h137v-163h-137zM136 -281l-71 52q47 66 69.5 131t22.5 143v143h120v-140q0 -93 -37.5 -180t-103.5 -149z" />
    <glyph glyph-name="less" unicode="&#x3c;" horiz-adv-x="1022" 
d="M903 123l-827 379v95l827 378v-124l-614 -273l-103 -28v-6l103 -28l614 -269v-124z" />
    <glyph glyph-name="equal" unicode="=" horiz-adv-x="1127" 
d="M147 834v105h834v-105h-834zM147 423v104h834v-104h-834z" />
    <glyph glyph-name="greater" unicode="&#x3e;" horiz-adv-x="1056" 
d="M125 114v122l631 275l103 28v6l-103 29l-631 271v122l845 -378v-96z" />
    <glyph glyph-name="question" unicode="?" horiz-adv-x="925" 
d="M361 405q0 65 4.5 107.5t18 74t40.5 63t74 73.5q76 71 121 128.5t65 116.5t20 134q0 128 -68 199t-193 71q-119 0 -190 -68.5t-73 -187.5h-112l-3 6q-1 110 47 190t134 122.5t197 42.5q179 0 280 -101t101 -272q0 -91 -28 -164t-84.5 -143t-142.5 -151q-39 -37 -58 -68
t-24.5 -70t-5.5 -103h-120zM358 0v153h139v-153h-139z" />
    <glyph glyph-name="at" unicode="@" horiz-adv-x="1809" 
d="M860 -453q-251 0 -428.5 113t-267.5 321.5t-78 496.5q12 283 122.5 495t300 329.5t439.5 117.5q258 0 433 -109t260 -312t74 -486q-6 -144 -56 -265.5t-143.5 -195t-230.5 -73.5q-78 0 -130.5 52t-68.5 145q-105 -197 -312 -197q-131 0 -199 119.5t-49 317.5
q15 170 74 296t150 195.5t203 69.5q93 0 150.5 -26.5t126.5 -81.5v-16l-49 -560q-6 -88 10 -138t47 -70.5t68 -20.5q142 0 225 125t92 324q19 390 -151 606.5t-528 216.5q-220 0 -386.5 -107.5t-264 -300.5t-109.5 -450q-13 -254 63.5 -444.5t233 -296.5t384.5 -106
q94 0 182 21.5t150 56.5l31 -73q-65 -41 -168 -65t-200 -24zM801 76q87 0 158 47.5t122 172.5q0 9 0.5 18.5t1.5 20.5l44 496q-31 27 -70 41.5t-88 14.5q-134 0 -221.5 -118.5t-111.5 -352.5q-15 -155 27.5 -247.5t137.5 -92.5z" />
    <glyph glyph-name="A" unicode="A" horiz-adv-x="1500" 
d="M62 0v87l107 7l517 1362h114l513 -1362l107 -7v-87h-359v87l128 9l-121 329h-653l-122 -329l128 -9v-87h-359zM454 530h575l-263 715l-20 59h-6l-21 -59z" />
    <glyph glyph-name="B" unicode="B" horiz-adv-x="1282" 
d="M76 0v87l163 13v1255l-163 13v88h163h420q227 0 354 -95.5t127 -287.5q0 -114 -64.5 -197.5t-177.5 -112.5q90 -15 158.5 -66t107 -126.5t38.5 -164.5q0 -196 -126.5 -301t-337.5 -105h-662zM359 100h379q161 0 252.5 80t91.5 224q0 87 -37 154.5t-110 105.5t-178 38
h-398v-602zM359 803h335q156 0 240.5 70t84.5 204q0 139 -91.5 208.5t-268.5 69.5h-300v-552z" />
    <glyph glyph-name="C" unicode="C" horiz-adv-x="1321" 
d="M769 -21q-216 0 -363.5 94.5t-223 261.5t-75.5 383v19q0 218 78.5 384.5t222.5 261t338 94.5q150 0 258.5 -42t192.5 -115v-283h-102l-10 232q-44 33 -92.5 56t-108 35.5t-138.5 12.5q-159 0 -275.5 -80.5t-180 -223t-63.5 -330.5v-21q0 -194 64.5 -337t186 -221
t292.5 -78q92 0 177.5 23t144.5 61l10 220h101v-290q-89 -58 -200.5 -87.5t-233.5 -29.5z" />
    <glyph glyph-name="D" unicode="D" horiz-adv-x="1372" 
d="M76 0v87l163 13v1255l-163 13v88h163h400q186 0 327 -92.5t221.5 -254t80.5 -369.5v-24q0 -207 -79 -368.5t-219.5 -254.5t-325.5 -93h-568zM359 100h280q152 0 266 81.5t178.5 221t64.5 313.5v26q0 176 -64.5 314.5t-178.5 218.5t-266 80h-280v-1255z" />
    <glyph glyph-name="E" unicode="E" horiz-adv-x="1287" 
d="M76 0v87l163 13v1255l-163 13v88h1046v-319h-102l-10 220h-651v-551h587v-100h-587v-609h682l10 222h101v-319h-1076z" />
    <glyph glyph-name="F" unicode="F" horiz-adv-x="1251" 
d="M76 0v87l163 13v1255l-163 13v88h1078v-319h-102l-10 219h-683v-572h593v-101h-593v-583l163 -13v-87h-446z" />
    <glyph glyph-name="G" unicode="G" horiz-adv-x="1384" 
d="M755 -21q-200 0 -345.5 93.5t-224 260t-78.5 385.5v32q0 216 80.5 379.5t221.5 255.5t320 92q161 0 273.5 -40.5t199.5 -108.5v-271h-103l-10 218q-63 46 -145.5 72t-205.5 26q-145 0 -260.5 -78.5t-183 -218t-67.5 -324.5v-34q0 -189 62.5 -332.5t180 -223.5t284.5 -80
q118 0 208 26t156 62v386l-299 4v97h419v-534q-78 -57 -195 -100.5t-288 -43.5z" />
    <glyph glyph-name="H" unicode="H" horiz-adv-x="1539" 
d="M76 0v87l163 13v1255l-163 13v88h446v-88l-163 -13v-583h822v583l-163 13v88h163h120h163v-88l-163 -13v-1255l163 -13v-87h-446v87l163 13v571h-822v-571l163 -13v-87h-446z" />
    <glyph glyph-name="I" unicode="I" horiz-adv-x="597" 
d="M76 0v87l163 13v1255l-163 13v88h446v-88l-163 -13v-1255l163 -13v-87h-446z" />
    <glyph glyph-name="J" unicode="J" horiz-adv-x="1152" 
d="M486 -21q-128 0 -225.5 47.5t-152 142.5t-56.5 235l2 6h112q2 -163 83.5 -246t234.5 -83q94 0 161.5 41.5t104 117.5t36.5 178v937l-189 12v89h472v-88l-163 -13v-937q0 -133 -50.5 -231.5t-145 -153t-224.5 -54.5z" />
    <glyph glyph-name="K" unicode="K" horiz-adv-x="1440" 
d="M342 405l-59 90l772 862l1 5l-141 6v88h410v-88l-125 -11zM76 0v87l163 13v1255l-163 13v88h446v-88l-163 -13v-1255l163 -13v-87h-446zM955 0v87l143 7l1 3l-478 658l78 88l549 -744l126 -12v-87h-419z" />
    <glyph glyph-name="L" unicode="L" horiz-adv-x="1184" 
d="M76 0v87l163 13v1255l-163 13v88h163h120h163v-88l-163 -13v-1256h611l11 235h98v-334h-1003z" />
    <glyph glyph-name="M" unicode="M" horiz-adv-x="1897" 
d="M82 0v87l163 13v1255l-163 13v88h163h162l538 -1248h6l531 1248h333v-88l-163 -13v-1255l163 -13v-87h-446v87l167 13v621v560l-5 1l-540 -1258h-84l-546 1254l-6 -2l4 -541v-635l169 -13v-87h-446z" />
    <glyph glyph-name="N" unicode="N" horiz-adv-x="1552" 
d="M77 0v87l163 13v1255l-163 13v88h163h121l832 -1252l6 2v1149l-170 13v88h283h163v-88l-163 -13v-1355h-112l-841 1257l-6 -2v-1155l170 -13v-87h-446z" />
    <glyph glyph-name="O" unicode="O" horiz-adv-x="1425" 
d="M710 -21q-138 0 -250 53t-192 151t-123 233.5t-43 301.5v19q0 166 42.5 301.5t122.5 234t192 151.5t250 53q141 0 253.5 -53t192 -151.5t121 -234t41.5 -301.5v-19q0 -166 -41.5 -301.5t-120.5 -233.5t-191.5 -151t-253.5 -53zM710 84q158 0 266.5 79t164.5 222t56 333
v21q0 190 -56.5 332t-165.5 221.5t-266 79.5q-151 0 -260 -79.5t-167.5 -222t-58.5 -331.5v-21q0 -190 58.5 -333t168 -222t260.5 -79z" />
    <glyph glyph-name="P" unicode="P" horiz-adv-x="1274" 
d="M76 0v87l163 13v1255l-163 13v88h163h451q154 0 261 -53t163 -148.5t56 -223.5q0 -129 -56 -224.5t-163 -148t-261 -52.5h-331v-506l163 -13v-87h-446zM359 706h331q180 0 270 92.5t90 230.5q0 141 -89.5 233.5t-270.5 92.5h-331v-649z" />
    <glyph glyph-name="Q" unicode="Q" horiz-adv-x="1431" 
d="M1275 -224l-339 245q-53 -21 -110 -31.5t-116 -10.5q-138 0 -250 53t-192 151.5t-123 234t-43 300.5v19q0 166 42.5 301.5t122.5 234t191.5 151.5t249.5 53q141 0 253.5 -53t192 -151.5t121 -234t41.5 -301.5v-19q0 -216 -66.5 -382t-205.5 -257l301 -213zM710 84
q156 0 264.5 79t165 222t56.5 333v21q0 190 -56.5 332t-165.5 221.5t-266 79.5q-150 0 -259 -79.5t-167.5 -222t-58.5 -331.5v-21q0 -190 58.5 -333t167.5 -222t261 -79z" />
    <glyph glyph-name="R" unicode="R" horiz-adv-x="1374" 
d="M76 -1v88l163 13v1255l-163 13v87h614q156 0 264 -46t164.5 -134t56.5 -217q0 -125 -58.5 -211t-164 -130.5t-247.5 -45.5l-346 -3v-568l163 -13v-88h-446zM1055 -1l-313 723l120 1l278 -627l119 -8v-89h-204zM359 768h319q195 0 286 80t91 211q0 141 -91 218.5
t-274 77.5h-331v-587z" />
    <glyph glyph-name="S" unicode="S" horiz-adv-x="1194" 
d="M597 -21q-125 0 -249.5 38t-240.5 118v282h100l15 -227q88 -55 183 -82t192 -27q115 0 200.5 35.5t133 99t47.5 146.5q0 80 -38.5 140.5t-125 106.5t-234.5 84q-159 41 -259.5 96t-148 132.5t-47.5 184.5q0 109 58 192.5t162.5 131t243.5 47.5q147 0 262.5 -44
t195.5 -113v-260h-99l-15 206q-63 51 -149 80t-195 29q-107 0 -184 -35.5t-118.5 -95.5t-41.5 -136q0 -73 33 -128.5t114 -98t227 -81.5q237 -61 358 -164.5t121 -271.5q0 -116 -63.5 -202.5t-176.5 -134.5t-261 -48z" />
    <glyph glyph-name="T" unicode="T" horiz-adv-x="1337" 
d="M444 0v87l163 13v1258h-409l-13 -222h-98v320h1159v-320h-97l-14 222h-408v-1258l163 -13v-87h-446z" />
    <glyph glyph-name="U" unicode="U" horiz-adv-x="1478" 
d="M737 -21q-150 0 -264.5 57.5t-179.5 167t-65 265.5v886l-163 13v88h446v-88l-163 -13v-886q0 -124 49.5 -210.5t137.5 -132t203 -45.5t204 45t139 131.5t50 211.5v886l-163 13v88h446v-88l-163 -13v-886q0 -159 -64.5 -268t-180.5 -165.5t-269 -56.5z" />
    <glyph glyph-name="V" unicode="V" horiz-adv-x="1468" 
d="M678 0l-507 1361l-111 7v88h384v-88l-144 -9l403 -1106l30 -96h6l30 96l409 1106l-151 9v88h384v-88l-112 -7l-507 -1361h-114z" />
    <glyph glyph-name="W" unicode="W" horiz-adv-x="2060" 
d="M525 0l-350 1361l-111 7v88h390v-88l-156 -10l233 -947l54 -210h6l61 209l331 1046h112l332 -1046l59 -214h6l59 214l230 948l-161 10v88h386v-88l-107 -7l-343 -1361h-119l-351 1119l-45 146h-6l-43 -146l-353 -1119h-114z" />
    <glyph glyph-name="X" unicode="X" horiz-adv-x="1451" 
d="M68 0v87l120 10l470 644l-444 617l-121 10v88h405v-88l-152 -6l381 -539l374 539l-153 6v88h406v-88l-123 -10l-433 -617l464 -644l121 -10v-87h-407v87l154 6l-404 567l-403 -567l151 -6v-87h-406z" />
    <glyph glyph-name="Y" unicode="Y" horiz-adv-x="1444" 
d="M500 0v87l163 13v442l-484 818l-119 8v88h407v-88l-153 -8l385 -671l23 -45l1 2l24 43l392 671l-155 8v88h402v-88l-123 -8l-480 -811v-449l163 -13v-87h-446z" />
    <glyph glyph-name="Z" unicode="Z" horiz-adv-x="1209" 
d="M91 0v92l850 1264h-711l-8 -216h-102v316h966v-87l-852 -1269h774l9 224h101v-324h-1027z" />
    <glyph glyph-name="bracketleft" unicode="[" horiz-adv-x="548" 
d="M157 -312v1976h330v-101h-210v-1774h210v-101h-330z" />
    <glyph glyph-name="backslash" unicode="\" horiz-adv-x="810" 
d="M644 -125l-608 1581h117l608 -1581h-117z" />
    <glyph glyph-name="bracketright" unicode="]" horiz-adv-x="527" 
d="M23 -312v101h210v1774h-210v101h330v-1976h-330z" />
    <glyph glyph-name="asciicircum" unicode="^" horiz-adv-x="845" 
d="M71 729l299 727h90l298 -727h-116l-197 486l-29 93h-6l-30 -93l-193 -486h-116z" />
    <glyph glyph-name="underscore" unicode="_" horiz-adv-x="1150" 
d="M119 -100v100h881v-100h-881z" />
    <glyph glyph-name="grave" unicode="`" horiz-adv-x="404" 
d="M364 1310l-5 -3h-88l-231 248l2 5h141z" />
    <glyph glyph-name="a" unicode="a" horiz-adv-x="1123" 
d="M420 -21q-154 0 -241 82t-87 222q0 100 58 175.5t164.5 117.5t252.5 42h224v124q0 117 -69.5 188.5t-209.5 71.5q-79 0 -141.5 -25.5t-108.5 -64.5l-10 -165h-99v226q70 60 159 94.5t202 34.5q191 0 294 -96t103 -266v-522q0 -32 2 -63.5t7 -62.5l129 -5v-87h-236
q-12 59 -16.5 95t-5.5 81q-59 -87 -156 -142t-215 -55zM434 84q111 0 210.5 58.5t146.5 155.5v228h-225q-166 0 -260 -71.5t-94 -175.5q0 -87 60 -141t162 -54z" />
    <glyph glyph-name="b" unicode="b" horiz-adv-x="1114" 
d="M611 -21q-119 0 -205.5 47t-139.5 131l-12 -157h-103v1459l-163 13v88h283v-643q53 87 137.5 136t200.5 49q130 0 223 -70.5t142.5 -198.5t49.5 -301v-21q0 -162 -49.5 -281t-142 -185t-221.5 -66zM588 82q156 0 235.5 116.5t79.5 312.5v21q0 139 -35.5 244t-106 164
t-175.5 59q-127 0 -202.5 -63.5t-112.5 -160.5v-488q38 -94 118 -149.5t199 -55.5z" />
    <glyph glyph-name="c" unicode="c" horiz-adv-x="1075" 
d="M551 -21q-135 0 -238.5 68t-162 190t-58.5 283v42q0 158 56.5 280t159.5 191t242 69q126 0 224 -47.5t164 -122.5l2 -245h-100l-16 202q-50 53 -117 82.5t-154 29.5q-102 0 -179 -57t-119.5 -156.5t-42.5 -225.5v-42q0 -132 42 -231.5t118 -154.5t180 -55q121 0 202 63.5
t98 187.5h107l2 -6q-9 -102 -60.5 -180t-140 -121.5t-209.5 -43.5z" />
    <glyph glyph-name="d" unicode="d" horiz-adv-x="1211" 
d="M505 -21q-129 0 -222 66t-142 185t-49 281v21q0 173 49 301t142.5 198.5t223.5 70.5q113 0 196.5 -48t137.5 -134v539l-163 13v88h163h120v-1460l163 -13v-87h-270l-9 153q-53 -82 -139 -128t-201 -46zM527 82q117 0 195 53t119 144v505q-39 94 -114 154.5t-198 60.5
q-105 0 -175 -59t-105.5 -164t-35.5 -244v-21q0 -196 78.5 -312.5t235.5 -116.5z" />
    <glyph glyph-name="e" unicode="e" horiz-adv-x="1072" 
d="M565 -21q-139 0 -245 67.5t-166 187t-60 275.5v55q0 155 60 276.5t162.5 191.5t228.5 70q133 0 227.5 -57t145 -160.5t50.5 -243.5v-102h-750l-2 -44q1 -120 44.5 -214t122 -148t182.5 -54q102 0 179.5 32.5t136.5 88.5l51 -82q-63 -60 -152.5 -99.5t-214.5 -39.5z
M226 639h622v30q0 95 -36.5 170.5t-104 118.5t-162.5 43q-86 0 -155 -46.5t-112.5 -127t-53.5 -182.5z" />
    <glyph glyph-name="f" unicode="f" horiz-adv-x="723" 
d="M94 0v87l163 13v885h-180v97h180v159q0 162 81.5 251t228.5 89q34 0 69.5 -4.5t71.5 -14.5l-16 -97q-25 6 -52.5 9.5t-60.5 3.5q-98 0 -150 -62t-52 -175v-159h263v-97h-263v-885l173 -13v-87h-456z" />
    <glyph glyph-name="g" unicode="g" horiz-adv-x="1156" 
d="M536 -437q-79 0 -167 19t-154 51l32 100q64 -31 135.5 -48t151.5 -17q154 0 231.5 91.5t77.5 254.5v132q-54 -79 -138.5 -123t-196.5 -44q-130 0 -223 66t-143 185.5t-50 280.5v21q0 173 50 301t143.5 198.5t224.5 70.5q116 0 201 -50t138 -140l13 170h101v-1068
q0 -139 -50.5 -240t-146.5 -156t-230 -55zM530 82q118 0 195.5 54t117.5 148v495q-38 95 -112 157.5t-199 62.5q-105 0 -176 -59.5t-107 -164.5t-36 -243v-21q0 -196 79.5 -312.5t237.5 -116.5zM939 979l-39 103h202v-87z" />
    <glyph glyph-name="h" unicode="h" horiz-adv-x="1295" 
d="M56 0v87l163 13v1359l-163 13v88h283v-667q53 99 142.5 154t210.5 55q171 0 262.5 -105.5t91.5 -329.5v-567l163 -13v-87h-446v87l163 13v569q0 177 -69 253.5t-192 76.5q-132 0 -212.5 -74t-113.5 -192v-633l163 -13v-87h-446z" />
    <glyph glyph-name="i" unicode="i" horiz-adv-x="629" 
d="M228 1387v173h134v-173h-134zM79 0v87l163 13v881l-163 13v88h283v-982l163 -13v-87h-446z" />
    <glyph glyph-name="j" unicode="j" horiz-adv-x="545" 
d="M250 1387v173h134v-173h-134zM84 -437q-31 0 -57 5t-55 14l13 97q16 -5 46.5 -10t52.5 -5q86 0 134.5 65t48.5 182v1070l-163 13v88h283v-1171q0 -167 -80 -257.5t-223 -90.5z" />
    <glyph glyph-name="k" unicode="k" horiz-adv-x="1215" 
d="M63 0v87l163 13v1359l-163 13v88h283v-1460l163 -13v-87h-446zM760 0v87l119 6l-1 5l-359 485l68 91l436 -576l135 -11v-87h-398zM334 331l-43 100l533 551l1 6l-118 6v88h388v-88l-130 -12z" />
    <glyph glyph-name="l" unicode="l" horiz-adv-x="614" 
d="M74 0v87l163 13v1359l-163 13v88h283v-1460l163 -13v-87h-446z" />
    <glyph glyph-name="m" unicode="m" horiz-adv-x="1979" 
d="M82 0v87l163 13v881l-163 13v88h270l10 -185q50 97 137.5 151t208.5 54q125 0 208 -61.5t119 -188.5q46 117 137.5 184t221.5 67q173 0 267.5 -115.5t94.5 -356.5v-530l163 -13v-87h-447v87l163 13v532q0 201 -70.5 284t-195.5 83q-141 0 -217 -89.5t-91 -226.5v-584
l163 -13v-87h-447v87l163 13v533q0 197 -71.5 281.5t-196.5 84.5q-132 0 -205.5 -70t-100.5 -186v-643l163 -13v-87h-447z" />
    <glyph glyph-name="n" unicode="n" horiz-adv-x="1331" 
d="M82 0v87l163 13v881l-163 13v88h269l10 -194q52 102 140 158t210 56q176 0 268 -107.5t92 -336.5v-558l163 -13v-87h-446v87l163 13v557q0 188 -69 265t-197 77q-134 0 -212 -75t-108 -196v-628l163 -13v-87h-446z" />
    <glyph glyph-name="o" unicode="o" horiz-adv-x="1141" 
d="M572 -21q-146 0 -253.5 69.5t-167 193t-59.5 282.5v33q0 159 59.5 282t167 193t251.5 70q145 0 252.5 -70t167 -192.5t59.5 -282.5v-33q0 -160 -59.5 -283t-167 -192.5t-250.5 -69.5zM572 79q111 0 191 59t123 160t43 226v33q0 124 -43 225t-123.5 160t-192.5 59
t-192.5 -59t-123 -160t-42.5 -225v-33q0 -126 42.5 -226.5t123 -159.5t194.5 -59z" />
    <glyph glyph-name="p" unicode="p" horiz-adv-x="1178" 
d="M55 -416v88l159 13v1296l-163 13v88h263l15 -165q54 88 139.5 136.5t201.5 48.5q130 0 223.5 -70.5t143 -198.5t49.5 -301v-21q0 -162 -49.5 -281t-142 -185t-221.5 -66q-115 0 -200.5 43t-138.5 120v-457l167 -13v-88h-446zM645 79q157 0 238.5 118t81.5 314v21
q0 138 -37 243t-108.5 164.5t-176.5 59.5q-123 0 -197.5 -60t-111.5 -152v-516q38 -89 116 -140.5t195 -51.5z" />
    <glyph glyph-name="q" unicode="q" horiz-adv-x="1137" 
d="M673 -416v88l163 13v454q-53 -76 -137 -118t-194 -42q-129 0 -222 66t-142 185t-49 281v21q0 173 49 301t142.5 198.5t223.5 70.5q112 0 196 -47.5t138 -132.5l10 160h105v-1397l158 -13v-88h-441zM527 79q115 0 192 52t117 142v516q-39 90 -113 151t-194 61
q-105 0 -175 -59.5t-105.5 -165t-35.5 -244.5v-21q0 -196 78.5 -314t235.5 -118z" />
    <glyph glyph-name="r" unicode="r" horiz-adv-x="837" 
d="M81 0v87l163 13v881l-163 13v88h268l13 -165l1 -29q46 101 125 157.5t189 56.5q27 0 57.5 -4.5t44.5 -9.5l-15 -110l-111 7q-115 3 -188 -66t-101 -183v-636l163 -13v-87h-446z" />
    <glyph glyph-name="s" unicode="s" horiz-adv-x="1015" 
d="M499 -21q-114 0 -211.5 30.5t-183.5 88.5l-1 222h98l17 -159q58 -45 129 -65t152 -20q136 0 207 59t71 140q0 76 -63.5 134.5t-225.5 94.5q-194 42 -280.5 112t-86.5 195q0 82 46 148t130.5 104.5t198.5 38.5q119 0 207 -34.5t151 -92.5l5 -222h-98l-14 160
q-45 43 -105 66.5t-146 23.5q-122 0 -188 -56.5t-66 -131.5q0 -49 20.5 -85.5t79 -65.5t170.5 -55q203 -46 294 -124.5t91 -203.5q0 -132 -102.5 -217t-295.5 -85z" />
    <glyph glyph-name="t" unicode="t" horiz-adv-x="724" 
d="M473 -19q-114 0 -177 70.5t-63 227.5v706h-187v97h187v278h120v-278h252v-97h-252v-706q0 -108 38.5 -155.5t102.5 -47.5q34 0 67 4.5t68 9.5l18 -86q-36 -11 -82 -17t-92 -6z" />
    <glyph glyph-name="u" unicode="u" horiz-adv-x="1222" 
d="M541 -21q-170 0 -264.5 116t-94.5 360v526l-134 13v88h134h120v-629q0 -198 65 -284.5t188 -86.5q139 0 217 64.5t107 173.5v661l-154 13v88h154h121v-982l145 -13v-87h-251l-10 178q-51 -95 -136.5 -147t-206.5 -52z" />
    <glyph glyph-name="v" unicode="v" horiz-adv-x="1184" 
d="M548 0l-393 987l-115 7v88h381v-88l-142 -9l280 -714l40 -119h6l43 119l271 714l-144 9v88h381v-88l-117 -7l-383 -987h-108z" />
    <glyph glyph-name="w" unicode="w" horiz-adv-x="1804" 
d="M476 0l-302 988l-122 6v88h385v-88l-141 -10l186 -634l50 -178h6l58 178l247 732h106l246 -731l62 -190l6 1l58 189l186 634l-142 9v88h381v-88l-122 -8l-301 -986h-116l-253 738l-55 178l-6 -1l-54 -177l-255 -738h-108z" />
    <glyph glyph-name="x" unicode="x" horiz-adv-x="1197" 
d="M64 0v87l123 11l343 453l-329 433l-117 10v88h366v-88l-116 -5l268 -357l264 357l-120 5v88h363v-88l-118 -10l-319 -431l350 -455l119 -11v-87h-382v87l127 5l-286 378l-283 -378l121 -5v-87h-374z" />
    <glyph glyph-name="y" unicode="y" horiz-adv-x="1188" 
d="M295 -437q-21 0 -50.5 4.5t-44.5 8.5l14 99q14 -2 39.5 -4.5t37.5 -2.5q78 0 124 51.5t84 146.5l56 147l-397 974l-117 7v88h381v-88l-137 -9l278 -698l45 -123h6l309 821l-141 9v88h378v-88l-115 -7l-444 -1161q-30 -76 -68 -136t-95 -93.5t-143 -33.5z" />
    <glyph glyph-name="z" unicode="z" horiz-adv-x="1056" 
d="M105 0v87l655 895h-539l-12 -212h-97v312h800v-88l-658 -896h599l12 213h97v-311h-857z" />
    <glyph glyph-name="braceleft" unicode="{" horiz-adv-x="697" 
d="M632 -405q-184 55 -261 173.5t-77 288.5v227q0 123 -56.5 191t-174.5 68v103q118 0 174.5 67.5t56.5 190.5v228q0 171 77 290.5t261 174.5l26 -78q-128 -41 -186 -142t-58 -245v-228q0 -113 -47.5 -194t-144.5 -116q97 -35 144.5 -116.5t47.5 -193.5v-227
q0 -143 59 -241.5t188 -141.5z" />
    <glyph glyph-name="bar" unicode="|" horiz-adv-x="426" 
d="M150 -270v1726h102v-1726h-102z" />
    <glyph glyph-name="braceright" unicode="}" horiz-adv-x="696" 
d="M56 -405l-29 79q127 43 186.5 141.5t59.5 241.5v227q0 113 48.5 195t150.5 115q-102 33 -150.5 114t-48.5 196v228q0 144 -58.5 245t-184.5 142l26 78q182 -55 259.5 -174.5t77.5 -290.5v-228q0 -123 56.5 -190.5t174.5 -67.5v-103q-118 0 -174.5 -68.5t-56.5 -190.5
v-227q0 -170 -77.5 -288.5t-259.5 -173.5z" />
    <glyph glyph-name="asciitilde" unicode="~" horiz-adv-x="1376" 
d="M952 424q-88 0 -160.5 35.5t-160.5 114.5q-64 54 -119 81t-110 27q-79 0 -131.5 -61t-52.5 -162l-97 15q0 88 36 159t99.5 112.5t145.5 41.5q87 0 160.5 -37t162.5 -113q63 -57 116.5 -82.5t110.5 -25.5q77 0 131 64t54 162l98 -15q0 -86 -37 -158t-101 -115t-145 -43z
" />
    <glyph glyph-name="uni007F" 
 />
    <glyph glyph-name="uni00A0" unicode="&#xa0;" 
 />
    <glyph glyph-name="exclamdown" unicode="&#xa1;" horiz-adv-x="458" 
d="M184 604v-978h120v978h-120zM173 1082v-166h142v166h-142z" />
    <glyph glyph-name="cent" unicode="&#xa2;" horiz-adv-x="1088" 
d="M526 -245v230q-129 13 -218.5 84t-136.5 187t-47 264v42q0 147 47 262.5t137 186.5t218 85v222h120v-219q105 -11 192.5 -56.5t144.5 -115.5l4 -236h-101l-20 193q-47 53 -119 85t-162 32q-116 0 -191.5 -56.5t-112.5 -156t-37 -226.5v-42q0 -129 36.5 -228.5t112.5 -156
t193 -56.5q79 0 148 31t111 88.5t42 138.5h107l2 -6q3 -90 -44 -164t-127.5 -122.5t-178.5 -61.5v-228h-120z" />
    <glyph glyph-name="sterling" unicode="&#xa3;" horiz-adv-x="1164" 
d="M132 0v100h10q46 10 77 67t46.5 137.5t15.5 161.5l-7 177h-206v101h202l-10 296q0 204 106 320.5t284 116.5q186 0 280.5 -103t90.5 -279l-2 -5h-112q0 149 -69 217.5t-188 68.5q-125 0 -197.5 -88t-72.5 -248l10 -296h451v-101h-447l7 -177q0 -109 -26.5 -206
t-75.5 -160h661l7 206h106v-306h-941z" />
    <glyph glyph-name="currency" unicode="&#xa4;" horiz-adv-x="1461" 
d="M1273 -27l-158 161q-80 -74 -180 -114t-210 -40q-112 0 -211.5 39.5t-179.5 112.5l-155 -158l-85 85l160 162q-60 81 -92.5 179.5t-32.5 207.5q0 113 34.5 214.5t99.5 183.5l-169 173l85 85l167 -171q78 67 175 104t204 37q106 0 202.5 -37.5t175.5 -105.5l170 174
l87 -86l-173 -176q63 -82 97.5 -183t34.5 -212q0 -108 -32 -205.5t-91 -177.5l164 -166zM725 89q99 0 185.5 40.5t153 112t104 165.5t37.5 201t-37.5 200.5t-104 164.5t-153 111t-185.5 40q-100 0 -187.5 -40t-154 -111t-103.5 -164.5t-37 -200.5t37 -201t103.5 -165.5
t154 -112t187.5 -40.5z" />
    <glyph glyph-name="yen" unicode="&#xa5;" horiz-adv-x="1383" 
d="M468 0v87l163 13v226h-415v86h415v206h-415v87h370l-398 654l-129 9v88h374v-88l-110 -7l346 -579l23 -46l4 3l21 43l345 579l-109 7v88h374v-88l-129 -9l-399 -654h372v-87h-420v-206h420v-86h-420v-226l163 -13v-87h-446z" />
    <glyph glyph-name="brokenbar" unicode="&#xa6;" horiz-adv-x="462" 
d="M150 -270v770h120v-770h-120zM150 698v758h120v-758h-120z" />
    <glyph glyph-name="section" unicode="&#xa7;" horiz-adv-x="1214" 
d="M587 -495q-142 0 -255.5 45t-179 139.5t-62.5 241.5l2 5l112 2q0 -115 52 -188.5t139 -108.5t192 -35q163 0 256 70.5t93 182.5q0 71 -32.5 120t-113 88t-224.5 80q-161 40 -266.5 91.5t-157.5 126.5t-52 186q0 100 62.5 171t175.5 101q-97 49 -145 120t-48 178
q0 108 58 188t163.5 124t248.5 44q223 0 347 -111.5t120 -313.5l-2 -6h-112q0 95 -42.5 169.5t-121 117.5t-189.5 43q-173 0 -261.5 -71t-88.5 -182q0 -75 30.5 -125t111 -89t230.5 -81q166 -44 270.5 -94t153.5 -121.5t49 -181.5q0 -100 -66 -170.5t-182 -99.5
q103 -51 153.5 -121t50.5 -179q0 -166 -127 -261t-342 -95zM723 216q121 10 189.5 68.5t68.5 143.5q0 72 -36 122.5t-124 92.5t-244 87q-38 9 -71.5 19t-63.5 22q-115 -13 -173.5 -72t-58.5 -146q0 -78 32.5 -128t119 -89.5t249.5 -85.5q34 -9 61 -17t51 -17z" />
    <glyph glyph-name="dieresis" unicode="&#xa8;" horiz-adv-x="582" 
d="M408 1388v172h134v-172h-134zM40 1388v172h135v-172h-135z" />
    <glyph glyph-name="copyright" unicode="&#xa9;" horiz-adv-x="1596" 
d="M802 -21q-147 0 -276 57.5t-226.5 159.5t-152.5 238.5t-55 294.5t55 293.5t152 237.5t226 159t277 57q147 0 276 -57t226.5 -159t152.5 -237.5t55 -293.5t-55 -294.5t-152.5 -238.5t-226.5 -159.5t-276 -57.5zM802 64q129 0 241.5 51t199 142.5t135 212t48.5 259.5
q0 138 -48.5 258.5t-134.5 210.5t-199 141t-242 51t-242.5 -50.5t-199.5 -141t-134 -211t-48 -258.5q0 -139 48 -259.5t134 -212t199.5 -142.5t242.5 -51zM792 282q-152 0 -243 106.5t-91 280.5v119q0 172 91.5 279.5t242.5 107.5q147 0 230 -79.5t80 -227.5l-3 -6h-91
q0 113 -55.5 168.5t-160.5 55.5q-110 0 -172 -83.5t-62 -213.5v-120q0 -132 61.5 -214.5t172.5 -82.5q106 0 160.5 54t54.5 170h91l3 -6q3 -150 -79.5 -229t-229.5 -79z" />
    <glyph glyph-name="ordfeminine" unicode="&#xaa;" horiz-adv-x="876" 
d="M355 692q-119 0 -184 61t-65 167q0 105 78.5 163t229.5 58h182v61q0 86 -41 132.5t-120 46.5q-92 0 -142 -37.5t-50 -109.5l-100 9l-2 6q-5 98 77 163t217 65q123 0 197 -71.5t74 -204.5v-314q0 -49 6 -93.5t20 -87.5h-112q-10 25 -15 52.5t-7 55.5q-37 -52 -98.5 -87
t-144.5 -35zM375 786q47 0 93 18t81 47t47 61v146h-181q-96 0 -148.5 -39t-52.5 -95q0 -66 39.5 -102t121.5 -36z" />
    <glyph glyph-name="guillemotleft" unicode="&#xab;" horiz-adv-x="919" 
d="M378 133l-295 378v19l295 379h106l-276 -389l276 -387h-106zM687 133l-295 378v19l295 379h106l-276 -389l276 -387h-106z" />
    <glyph glyph-name="logicalnot" unicode="&#xac;" horiz-adv-x="1112" 
d="M813 386v285h-692v105h812v-390h-120z" />
    <glyph glyph-name="uni00AD" unicode="&#xad;" horiz-adv-x="793" 
d="M154 571v100h479v-100h-479z" />
    <glyph glyph-name="registered" unicode="&#xae;" horiz-adv-x="1595" 
d="M802 -21q-148 0 -277 57.5t-226 159.5t-152 238.5t-55 294.5t55 293.5t152 237.5t226 159t277 57q147 0 276 -57t226.5 -159t152.5 -237.5t55 -293.5t-55 -294.5t-152.5 -238.5t-226.5 -159.5t-276 -57.5zM802 64q129 0 241.5 51t199 142.5t135 212t48.5 259.5
q0 138 -48.5 258.5t-134.5 210.5t-199 141t-242 51t-242.5 -50.5t-199.5 -141t-134.5 -211t-48.5 -258.5q0 -139 48.5 -259.5t134.5 -212t199.5 -142.5t242.5 -51zM541 316v850h258q147 0 226 -63t79 -185q0 -67 -36.5 -117t-104.5 -80q68 -24 98.5 -77t30.5 -129v-56
q0 -39 3.5 -72t13.5 -55v-16h-103q-9 21 -11 61.5t-2 82.5v54q0 84 -38 121t-128 37h-187v-356h-99zM640 762h180q79 1 133 41.5t54 112.5q0 86 -46.5 123t-161.5 37h-159v-314z" />
    <glyph glyph-name="macron" unicode="&#xaf;" horiz-adv-x="750" 
d="M40 1388v96h670v-96h-670z" />
    <glyph glyph-name="degree" unicode="&#xb0;" horiz-adv-x="747" 
d="M369 981q-68 0 -123.5 33t-88.5 88.5t-33 124.5q0 68 33.5 124.5t89 91t122.5 34.5q66 0 121 -34.5t88 -91t33 -124.5q0 -69 -33 -124.5t-88 -88.5t-121 -33zM369 1071q65 0 108.5 44t43.5 113q0 68 -43.5 113.5t-108.5 45.5q-66 0 -110.5 -46t-44.5 -114t44.5 -112
t110.5 -44z" />
    <glyph glyph-name="plusminus" unicode="&#xb1;" horiz-adv-x="1082" 
d="M499 289v439h-414v101h414v438h111v-438h391v-101h-391v-439h-111zM129 50v100h835v-100h-835z" />
    <glyph glyph-name="uni00B2" unicode="&#xb2;" horiz-adv-x="816" 
d="M683 667v90h-422l-2 6l213 188q69 65 112.5 112t64 89.5t20.5 92.5q0 113 -71 173.5t-195 60.5q-88 0 -153 -31.5t-99.5 -85t-30.5 -118.5l2 -6h100q0 66 47 108.5t134 42.5q79 0 117.5 -39t38.5 -104q0 -47 -27 -92t-103 -115l-316 -282v-90h570z" />
    <glyph glyph-name="uni00B3" unicode="&#xb3;" horiz-adv-x="837" 
d="M398 1119h-123v-89h123q93 0 139.5 -34.5t46.5 -109.5q0 -65 -50.5 -103t-140.5 -38q-84 0 -135 40t-51 103h-101l-1 -6q-4 -73 35 -124t105.5 -77t147.5 -26q134 0 217 61t83 170q0 145 -149 190q64 25 100 72t36 105q0 108 -77 166.5t-210 58.5q-120 0 -200.5 -60
t-74.5 -154l2 -6h100q0 59 49 94.5t124 35.5q88 0 133 -37.5t45 -96.5q0 -135 -173 -135z" />
    <glyph glyph-name="acute" unicode="&#xb4;" horiz-adv-x="404" 
d="M40 1310l182 250h140l2 -5l-231 -248h-88z" />
    <glyph glyph-name="uni00B5" unicode="&#xb5;" horiz-adv-x="1297" 
d="M229 -416v1397l-163 13v88h163h118v-633q0 -207 71.5 -288.5t191.5 -81.5q145 0 218.5 67t97.5 191v644l-163 13v88h283v-982l163 -13v-87h-267l-10 161q-46 -89 -124 -135.5t-189 -46.5q-89 0 -158.5 32t-113.5 103v-530h-118z" />
    <glyph glyph-name="paragraph" unicode="&#xb6;" horiz-adv-x="1065" 
d="M513 0v87l163 13v420h-106q-156 0 -266 59t-168 164.5t-58 244.5q0 138 58.5 243.5t168.5 165t265 59.5h389v-88l-163 -13v-1255l163 -13v-87h-446z" />
    <glyph glyph-name="periodcentered" unicode="&#xb7;" horiz-adv-x="497" 
d="M169 633v163h137v-163h-137z" />
    <glyph glyph-name="cedilla" unicode="&#xb8;" horiz-adv-x="470" 
d="M47 -435l-7 77q90 0 151 30.5t61 88.5q0 57 -41 78.5t-145 30.5l32 145h93l-15 -83q80 -9 128 -48t48 -121q0 -90 -79 -144t-226 -54z" />
    <glyph glyph-name="uni00B9" unicode="&#xb9;" horiz-adv-x="506" 
d="M349 665v812l-258 -23v-92l148 8v-705h110z" />
    <glyph glyph-name="ordmasculine" unicode="&#xba;" horiz-adv-x="921" 
d="M446 691q-149 0 -237 92.5t-88 241.5v117q0 148 87.5 241.5t235.5 93.5t236 -93.5t88 -241.5v-117q0 -149 -87.5 -241.5t-234.5 -92.5zM446 785q103 0 158 67t55 173v117q0 104 -55.5 171.5t-159.5 67.5t-159.5 -67.5t-55.5 -171.5v-117q0 -108 54.5 -174t162.5 -66z" />
    <glyph glyph-name="guillemotright" unicode="&#xbb;" horiz-adv-x="916" 
d="M105 162l275 388l-275 394h106l294 -384v-19l-294 -379h-106zM420 162l275 388l-275 394h106l294 -384v-19l-294 -379h-106z" />
    <glyph glyph-name="onequarter" unicode="&#xbc;" horiz-adv-x="1491" 
d="M1199 0v170h-430l-4 67l428 564h114v-541h153v-90h-153v-170h-108zM894 260h305v402l-6 2l-25 -43zM313 664v705l-148 -8v92l257 23v-812h-109zM381 129l-75 48l711 1138l75 -48z" />
    <glyph glyph-name="onehalf" unicode="&#xbd;" horiz-adv-x="1462" 
d="M907 0v90l316 282q76 70 103 115t27 92q0 65 -38.5 104t-117.5 39q-87 0 -134 -42.5t-47 -108.5h-100l-2 6q-4 65 30.5 118t99.5 85t153 32q124 0 195 -60.5t71 -173.5q0 -50 -20.5 -92.5t-64 -89.5t-112.5 -112l-213 -188l2 -6h422v-90h-570zM313 664v705l-148 -8v92
l257 23v-812h-109zM393 129l-75 48l711 1138l75 -48z" />
    <glyph glyph-name="threequarters" unicode="&#xbe;" horiz-adv-x="1670" 
d="M1408 0v170h-430l-4 67l428 564h114v-541h153v-90h-153v-170h-108zM1103 260h305v402l-6 2l-25 -43zM418 656q-81 0 -147.5 26t-105.5 77t-35 124l1 6h101q0 -63 51 -103t135 -40q90 0 140.5 38t50.5 103q0 75 -46.5 109.5t-139.5 34.5h-123v89h123q173 0 173 135
q0 59 -45 96.5t-133 37.5q-75 0 -124 -35.5t-49 -94.5h-100l-2 6q-6 94 74.5 154t200.5 60q133 0 210 -58.5t77 -166.5q0 -58 -36 -105t-100 -72q149 -45 149 -190q0 -109 -83 -170t-217 -61zM588 129l-75 48l711 1138l75 -48z" />
    <glyph glyph-name="questiondown" unicode="&#xbf;" horiz-adv-x="863" 
d="M521 678q0 -65 -4.5 -107.5t-18 -74t-40.5 -63t-74 -73.5q-76 -71 -121 -128.5t-65 -116.5t-20 -134q0 -128 68 -199t193 -71q119 0 190 68.5t73 187.5h112l3 -6q1 -110 -47 -190t-134 -122.5t-197 -42.5q-179 0 -280 101t-101 272q0 91 28 164t84.5 143t142.5 151
q39 37 58 68t24.5 70t5.5 103h120zM524 1083v-153h-139v153h139z" />
    <glyph glyph-name="Agrave" unicode="&#xc0;" horiz-adv-x="1500" 
d="M830 1587l-5 -3h-88l-231 248l2 5h141zM62 0v87l107 7l517 1362h114l513 -1362l107 -7v-87h-359v87l128 9l-121 329h-653l-122 -329l128 -9v-87h-359zM454 530h575l-263 715l-20 59h-6l-21 -59z" />
    <glyph glyph-name="Aacute" unicode="&#xc1;" horiz-adv-x="1500" 
d="M654 1587l182 250h140l2 -5l-231 -248h-88zM62 0v87l107 7l517 1362h114l513 -1362l107 -7v-87h-359v87l128 9l-121 329h-653l-122 -329l128 -9v-87h-359zM454 530h575l-263 715l-20 59h-6l-21 -59z" />
    <glyph glyph-name="Acircumflex" unicode="&#xc2;" horiz-adv-x="1500" 
d="M465 1596v21l231 220h90l233 -223v-18h-106l-173 168l-169 -168h-106zM62 0v87l107 7l517 1362h114l513 -1362l107 -7v-87h-359v87l128 9l-121 329h-653l-122 -329l128 -9v-87h-359zM454 530h575l-263 715l-20 59h-6l-21 -59z" />
    <glyph glyph-name="Atilde" unicode="&#xc3;" horiz-adv-x="1500" 
d="M488 1618l-78 10q0 59 25 105.5t67 74t93 27.5q52 0 105 -28.5t101.5 -57t88.5 -28.5q41 0 73.5 33.5t32.5 89.5l78 -13q0 -59 -25 -105.5t-66 -73t-92 -26.5q-53 0 -106 28t-101.5 56.5t-89.5 28.5q-42 0 -74 -32.5t-32 -88.5zM62 0v87l107 7l517 1362h114l513 -1362
l107 -7v-87h-359v87l128 9l-121 329h-653l-122 -329l128 -9v-87h-359zM454 530h575l-263 715l-20 59h-6l-21 -59z" />
    <glyph glyph-name="Adieresis" unicode="&#xc4;" horiz-adv-x="1500" 
d="M859 1665v172h134v-172h-134zM491 1665v172h135v-172h-135zM62 0v87l107 7l517 1362h114l513 -1362l107 -7v-87h-359v87l128 9l-121 329h-653l-122 -329l128 -9v-87h-359zM454 530h575l-263 715l-20 59h-6l-21 -59z" />
    <glyph glyph-name="Aring" unicode="&#xc5;" horiz-adv-x="1500" 
d="M743 1495q-79 0 -133.5 51t-54.5 130t54.5 132t133.5 53q78 0 132.5 -53t54.5 -132t-54.5 -130t-132.5 -51zM743 1566q47 0 78.5 30.5t31.5 79.5t-31.5 81.5t-78.5 32.5q-48 0 -79.5 -32.5t-31.5 -81.5q0 -48 32 -79t79 -31zM62 0v87l107 7l517 1362h114l513 -1362
l107 -7v-87h-359v87l128 9l-121 329h-653l-122 -329l128 -9v-87h-359zM454 530h575l-263 715l-20 59h-6l-21 -59z" />
    <glyph glyph-name="AE" unicode="&#xc6;" horiz-adv-x="2058" 
d="M51 0v87l129 9l823 1360h864v-306h-106l-7 205h-580l23 -546h589v-101h-585l25 -608h589l8 206h106v-306h-981v87l158 13l-12 290h-594l-176 -296l108 -7v-87h-381zM564 502h526l-35 825l-5 1l-35 -63z" />
    <glyph glyph-name="Ccedilla" unicode="&#xc7;" horiz-adv-x="1321" 
d="M622 -435l-7 77q90 0 151 30.5t61 88.5q0 57 -41 78.5t-145 30.5l32 145h93l-15 -83q80 -9 128 -48t48 -121q0 -90 -79 -144t-226 -54zM769 -21q-216 0 -363.5 94.5t-223 261.5t-75.5 383v19q0 218 78.5 384.5t222.5 261t338 94.5q150 0 258.5 -42t192.5 -115v-283h-102
l-10 232q-44 33 -92.5 56t-108 35.5t-138.5 12.5q-159 0 -275.5 -80.5t-180 -223t-63.5 -330.5v-21q0 -194 64.5 -337t186 -221t292.5 -78q92 0 177.5 23t144.5 61l10 220h101v-290q-89 -58 -200.5 -87.5t-233.5 -29.5z" />
    <glyph glyph-name="Egrave" unicode="&#xc8;" horiz-adv-x="1287" 
d="M731 1587l-5 -3h-88l-231 248l2 5h141zM76 0v87l163 13v1255l-163 13v88h1046v-319h-102l-10 220h-651v-551h587v-100h-587v-609h682l10 222h101v-319h-1076z" />
    <glyph glyph-name="Eacute" unicode="&#xc9;" horiz-adv-x="1287" 
d="M555 1587l182 250h140l2 -5l-231 -248h-88zM76 0v87l163 13v1255l-163 13v88h1046v-319h-102l-10 220h-651v-551h587v-100h-587v-609h682l10 222h101v-319h-1076z" />
    <glyph glyph-name="Ecircumflex" unicode="&#xca;" horiz-adv-x="1287" 
d="M366 1596v21l231 220h90l233 -223v-18h-106l-173 168l-169 -168h-106zM76 0v87l163 13v1255l-163 13v88h1046v-319h-102l-10 220h-651v-551h587v-100h-587v-609h682l10 222h101v-319h-1076z" />
    <glyph glyph-name="Edieresis" unicode="&#xcb;" horiz-adv-x="1287" 
d="M760 1665v172h134v-172h-134zM392 1665v172h135v-172h-135zM76 0v87l163 13v1255l-163 13v88h1046v-319h-102l-10 220h-651v-551h587v-100h-587v-609h682l10 222h101v-319h-1076z" />
    <glyph glyph-name="Igrave" unicode="&#xcc;" horiz-adv-x="597" 
d="M386 1587l-5 -3h-88l-231 248l2 5h141zM76 0v87l163 13v1255l-163 13v88h446v-88l-163 -13v-1255l163 -13v-87h-446z" />
    <glyph glyph-name="Iacute" unicode="&#xcd;" horiz-adv-x="597" 
d="M210 1587l182 250h140l2 -5l-231 -248h-88zM76 0v87l163 13v1255l-163 13v88h446v-88l-163 -13v-1255l163 -13v-87h-446z" />
    <glyph glyph-name="Icircumflex" unicode="&#xce;" horiz-adv-x="597" 
d="M21 1596v21l231 220h90l233 -223v-18h-106l-173 168l-169 -168h-106zM76 0v87l163 13v1255l-163 13v88h446v-88l-163 -13v-1255l163 -13v-87h-446z" />
    <glyph glyph-name="Idieresis" unicode="&#xcf;" horiz-adv-x="597" 
d="M415 1665v172h134v-172h-134zM47 1665v172h135v-172h-135zM76 0v87l163 13v1255l-163 13v88h446v-88l-163 -13v-1255l163 -13v-87h-446z" />
    <glyph glyph-name="Eth" unicode="&#xd0;" horiz-adv-x="1372" 
d="M76 687v101h559v-101h-559zM76 0v87l163 13v1255l-163 13v88h163h400q186 0 327 -92.5t221.5 -254t80.5 -369.5v-24q0 -207 -79 -368.5t-219.5 -254.5t-325.5 -93h-568zM359 100h280q152 0 266 81.5t178.5 221t64.5 313.5v26q0 176 -64.5 314.5t-178.5 218.5t-266 80
h-280v-1255z" />
    <glyph glyph-name="Ntilde" unicode="&#xd1;" horiz-adv-x="1552" 
d="M522 1618l-78 10q0 59 25 105.5t67 74t93 27.5q52 0 105 -28.5t101.5 -57t88.5 -28.5q41 0 73.5 33.5t32.5 89.5l78 -13q0 -59 -25 -105.5t-66 -73t-92 -26.5q-53 0 -106 28t-101.5 56.5t-89.5 28.5q-42 0 -74 -32.5t-32 -88.5zM77 0v87l163 13v1255l-163 13v88h163h121
l832 -1252l6 2v1149l-170 13v88h283h163v-88l-163 -13v-1355h-112l-841 1257l-6 -2v-1155l170 -13v-87h-446z" />
    <glyph glyph-name="Ograve" unicode="&#xd2;" horiz-adv-x="1425" 
d="M797 1587l-5 -3h-88l-231 248l2 5h141zM710 -21q-138 0 -250 53t-192 151t-123 233.5t-43 301.5v19q0 166 42.5 301.5t122.5 234t192 151.5t250 53q141 0 253.5 -53t192 -151.5t121 -234t41.5 -301.5v-19q0 -166 -41.5 -301.5t-120.5 -233.5t-191.5 -151t-253.5 -53z
M710 84q158 0 266.5 79t164.5 222t56 333v21q0 190 -56.5 332t-165.5 221.5t-266 79.5q-151 0 -260 -79.5t-167.5 -222t-58.5 -331.5v-21q0 -190 58.5 -333t168 -222t260.5 -79z" />
    <glyph glyph-name="Oacute" unicode="&#xd3;" horiz-adv-x="1425" 
d="M621 1587l182 250h140l2 -5l-231 -248h-88zM710 -21q-138 0 -250 53t-192 151t-123 233.5t-43 301.5v19q0 166 42.5 301.5t122.5 234t192 151.5t250 53q141 0 253.5 -53t192 -151.5t121 -234t41.5 -301.5v-19q0 -166 -41.5 -301.5t-120.5 -233.5t-191.5 -151t-253.5 -53z
M710 84q158 0 266.5 79t164.5 222t56 333v21q0 190 -56.5 332t-165.5 221.5t-266 79.5q-151 0 -260 -79.5t-167.5 -222t-58.5 -331.5v-21q0 -190 58.5 -333t168 -222t260.5 -79z" />
    <glyph glyph-name="Ocircumflex" unicode="&#xd4;" horiz-adv-x="1425" 
d="M432 1596v21l231 220h90l233 -223v-18h-106l-173 168l-169 -168h-106zM710 -21q-138 0 -250 53t-192 151t-123 233.5t-43 301.5v19q0 166 42.5 301.5t122.5 234t192 151.5t250 53q141 0 253.5 -53t192 -151.5t121 -234t41.5 -301.5v-19q0 -166 -41.5 -301.5
t-120.5 -233.5t-191.5 -151t-253.5 -53zM710 84q158 0 266.5 79t164.5 222t56 333v21q0 190 -56.5 332t-165.5 221.5t-266 79.5q-151 0 -260 -79.5t-167.5 -222t-58.5 -331.5v-21q0 -190 58.5 -333t168 -222t260.5 -79z" />
    <glyph glyph-name="Otilde" unicode="&#xd5;" horiz-adv-x="1425" 
d="M455 1618l-78 10q0 59 25 105.5t67 74t93 27.5q52 0 105 -28.5t101.5 -57t88.5 -28.5q41 0 73.5 33.5t32.5 89.5l78 -13q0 -59 -25 -105.5t-66 -73t-92 -26.5q-53 0 -106 28t-101.5 56.5t-89.5 28.5q-42 0 -74 -32.5t-32 -88.5zM710 -21q-138 0 -250 53t-192 151
t-123 233.5t-43 301.5v19q0 166 42.5 301.5t122.5 234t192 151.5t250 53q141 0 253.5 -53t192 -151.5t121 -234t41.5 -301.5v-19q0 -166 -41.5 -301.5t-120.5 -233.5t-191.5 -151t-253.5 -53zM710 84q158 0 266.5 79t164.5 222t56 333v21q0 190 -56.5 332t-165.5 221.5
t-266 79.5q-151 0 -260 -79.5t-167.5 -222t-58.5 -331.5v-21q0 -190 58.5 -333t168 -222t260.5 -79z" />
    <glyph glyph-name="Odieresis" unicode="&#xd6;" horiz-adv-x="1425" 
d="M826 1665v172h134v-172h-134zM458 1665v172h135v-172h-135zM710 -21q-138 0 -250 53t-192 151t-123 233.5t-43 301.5v19q0 166 42.5 301.5t122.5 234t192 151.5t250 53q141 0 253.5 -53t192 -151.5t121 -234t41.5 -301.5v-19q0 -166 -41.5 -301.5t-120.5 -233.5
t-191.5 -151t-253.5 -53zM710 84q158 0 266.5 79t164.5 222t56 333v21q0 190 -56.5 332t-165.5 221.5t-266 79.5q-151 0 -260 -79.5t-167.5 -222t-58.5 -331.5v-21q0 -190 58.5 -333t168 -222t260.5 -79z" />
    <glyph glyph-name="multiply" unicode="&#xd7;" horiz-adv-x="1056" 
d="M158 240l-79 78l358 365l-343 351l79 79l342 -350l343 350l79 -79l-343 -351l358 -365l-79 -78l-358 363z" />
    <glyph glyph-name="Oslash" unicode="&#xd8;" horiz-adv-x="1425" 
d="M171 -74l978 1589h104l-978 -1589h-104zM710 -21q-138 0 -250 53t-192 151t-123 233.5t-43 301.5v19q0 166 42.5 301.5t122.5 234t192 151.5t250 53q141 0 253.5 -53t192 -151.5t121 -234t41.5 -301.5v-19q0 -166 -41.5 -301.5t-120.5 -233.5t-191.5 -151t-253.5 -53z
M710 84q158 0 266.5 79t164.5 222t56 333v21q0 190 -56.5 332t-165.5 221.5t-266 79.5q-151 0 -260 -79.5t-167.5 -222t-58.5 -331.5v-21q0 -190 58.5 -333t168 -222t260.5 -79z" />
    <glyph glyph-name="Ugrave" unicode="&#xd9;" horiz-adv-x="1478" 
d="M827 1587l-5 -3h-88l-231 248l2 5h141zM737 -21q-150 0 -264.5 57.5t-179.5 167t-65 265.5v886l-163 13v88h446v-88l-163 -13v-886q0 -124 49.5 -210.5t137.5 -132t203 -45.5t204 45t139 131.5t50 211.5v886l-163 13v88h446v-88l-163 -13v-886q0 -159 -64.5 -268
t-180.5 -165.5t-269 -56.5z" />
    <glyph glyph-name="Uacute" unicode="&#xda;" horiz-adv-x="1478" 
d="M651 1587l182 250h140l2 -5l-231 -248h-88zM737 -21q-150 0 -264.5 57.5t-179.5 167t-65 265.5v886l-163 13v88h446v-88l-163 -13v-886q0 -124 49.5 -210.5t137.5 -132t203 -45.5t204 45t139 131.5t50 211.5v886l-163 13v88h446v-88l-163 -13v-886q0 -159 -64.5 -268
t-180.5 -165.5t-269 -56.5z" />
    <glyph glyph-name="Ucircumflex" unicode="&#xdb;" horiz-adv-x="1478" 
d="M462 1596v21l231 220h90l233 -223v-18h-106l-173 168l-169 -168h-106zM737 -21q-150 0 -264.5 57.5t-179.5 167t-65 265.5v886l-163 13v88h446v-88l-163 -13v-886q0 -124 49.5 -210.5t137.5 -132t203 -45.5t204 45t139 131.5t50 211.5v886l-163 13v88h446v-88l-163 -13
v-886q0 -159 -64.5 -268t-180.5 -165.5t-269 -56.5z" />
    <glyph glyph-name="Udieresis" unicode="&#xdc;" horiz-adv-x="1478" 
d="M856 1665v172h134v-172h-134zM488 1665v172h135v-172h-135zM737 -21q-150 0 -264.5 57.5t-179.5 167t-65 265.5v886l-163 13v88h446v-88l-163 -13v-886q0 -124 49.5 -210.5t137.5 -132t203 -45.5t204 45t139 131.5t50 211.5v886l-163 13v88h446v-88l-163 -13v-886
q0 -159 -64.5 -268t-180.5 -165.5t-269 -56.5z" />
    <glyph glyph-name="Yacute" unicode="&#xdd;" horiz-adv-x="1444" 
d="M634 1587l182 250h140l2 -5l-231 -248h-88zM500 0v87l163 13v442l-484 818l-119 8v88h407v-88l-153 -8l385 -671l23 -45l1 2l24 43l392 671l-155 8v88h402v-88l-123 -8l-480 -811v-449l163 -13v-87h-446z" />
    <glyph glyph-name="Thorn" unicode="&#xde;" horiz-adv-x="1257" 
d="M70 0v87l163 13v1255l-163 13v88h283h163v-88l-163 -13v-203h324q221 0 345 -115t124 -299q0 -185 -124 -299.5t-345 -114.5h-324v-224l163 -13v-87h-446zM353 424h324q115 0 192.5 42.5t117 113.5t39.5 156q0 87 -39.5 159t-117 114.5t-192.5 42.5h-324v-628z" />
    <glyph glyph-name="germandbls" unicode="&#xdf;" horiz-adv-x="1264" 
d="M802 -21q-57 0 -118 11t-111 29.5t-77 40.5l34 99q42 -31 115.5 -55.5t142.5 -24.5q119 0 186.5 60t67.5 156q0 66 -37 120.5t-92 103.5t-109.5 99.5t-91.5 108t-37 128.5q0 50 19 102t45 106.5t45 110t19 109.5q0 86 -57 142t-153 56q-115 0 -185 -84t-70 -239v-1158
h-283v87l163 13v1058q0 135 46 229.5t128.5 144t195.5 49.5q96 0 170 -35.5t117 -102t43 -160.5q0 -69 -19 -128.5t-43.5 -111.5t-43.5 -98.5t-19 -88.5q0 -55 37.5 -103t92.5 -94.5t110 -99t92 -116.5t37 -148q0 -101 -48 -171.5t-129.5 -107.5t-182.5 -37z" />
    <glyph glyph-name="agrave" unicode="&#xe0;" horiz-adv-x="1123" 
d="M611 1310l-5 -3h-88l-231 248l2 5h141zM420 -21q-154 0 -241 82t-87 222q0 100 58 175.5t164.5 117.5t252.5 42h224v124q0 117 -69.5 188.5t-209.5 71.5q-79 0 -141.5 -25.5t-108.5 -64.5l-10 -165h-99v226q70 60 159 94.5t202 34.5q191 0 294 -96t103 -266v-522
q0 -32 2 -63.5t7 -62.5l129 -5v-87h-236q-12 59 -16.5 95t-5.5 81q-59 -87 -156 -142t-215 -55zM434 84q111 0 210.5 58.5t146.5 155.5v228h-225q-166 0 -260 -71.5t-94 -175.5q0 -87 60 -141t162 -54z" />
    <glyph glyph-name="aacute" unicode="&#xe1;" horiz-adv-x="1123" 
d="M436 1310l182 250h140l2 -5l-231 -248h-88zM420 -21q-154 0 -241 82t-87 222q0 100 58 175.5t164.5 117.5t252.5 42h224v124q0 117 -69.5 188.5t-209.5 71.5q-79 0 -141.5 -25.5t-108.5 -64.5l-10 -165h-99v226q70 60 159 94.5t202 34.5q191 0 294 -96t103 -266v-522
q0 -32 2 -63.5t7 -62.5l129 -5v-87h-236q-12 59 -16.5 95t-5.5 81q-59 -87 -156 -142t-215 -55zM434 84q111 0 210.5 58.5t146.5 155.5v228h-225q-166 0 -260 -71.5t-94 -175.5q0 -87 60 -141t162 -54z" />
    <glyph glyph-name="acircumflex" unicode="&#xe2;" horiz-adv-x="1123" 
d="M246 1319v21l231 220h90l233 -223v-18h-106l-173 168l-169 -168h-106zM420 -21q-154 0 -241 82t-87 222q0 100 58 175.5t164.5 117.5t252.5 42h224v124q0 117 -69.5 188.5t-209.5 71.5q-79 0 -141.5 -25.5t-108.5 -64.5l-10 -165h-99v226q70 60 159 94.5t202 34.5
q191 0 294 -96t103 -266v-522q0 -32 2 -63.5t7 -62.5l129 -5v-87h-236q-12 59 -16.5 95t-5.5 81q-59 -87 -156 -142t-215 -55zM434 84q111 0 210.5 58.5t146.5 155.5v228h-225q-166 0 -260 -71.5t-94 -175.5q0 -87 60 -141t162 -54z" />
    <glyph glyph-name="atilde" unicode="&#xe3;" horiz-adv-x="1123" 
d="M269 1341l-78 10q0 59 25 105.5t67 74t93 27.5q52 0 105 -28.5t101.5 -57t88.5 -28.5q41 0 73.5 33.5t32.5 89.5l78 -13q0 -59 -25 -105.5t-66 -73t-92 -26.5q-53 0 -106 28t-101.5 56.5t-89.5 28.5q-42 0 -74 -32.5t-32 -88.5zM420 -21q-154 0 -241 82t-87 222
q0 100 58 175.5t164.5 117.5t252.5 42h224v124q0 117 -69.5 188.5t-209.5 71.5q-79 0 -141.5 -25.5t-108.5 -64.5l-10 -165h-99v226q70 60 159 94.5t202 34.5q191 0 294 -96t103 -266v-522q0 -32 2 -63.5t7 -62.5l129 -5v-87h-236q-12 59 -16.5 95t-5.5 81
q-59 -87 -156 -142t-215 -55zM434 84q111 0 210.5 58.5t146.5 155.5v228h-225q-166 0 -260 -71.5t-94 -175.5q0 -87 60 -141t162 -54z" />
    <glyph glyph-name="adieresis" unicode="&#xe4;" horiz-adv-x="1123" 
d="M640 1388v172h134v-172h-134zM272 1388v172h135v-172h-135zM420 -21q-154 0 -241 82t-87 222q0 100 58 175.5t164.5 117.5t252.5 42h224v124q0 117 -69.5 188.5t-209.5 71.5q-79 0 -141.5 -25.5t-108.5 -64.5l-10 -165h-99v226q70 60 159 94.5t202 34.5q191 0 294 -96
t103 -266v-522q0 -32 2 -63.5t7 -62.5l129 -5v-87h-236q-12 59 -16.5 95t-5.5 81q-59 -87 -156 -142t-215 -55zM434 84q111 0 210.5 58.5t146.5 155.5v228h-225q-166 0 -260 -71.5t-94 -175.5q0 -87 60 -141t162 -54z" />
    <glyph glyph-name="aring" unicode="&#xe5;" horiz-adv-x="1123" 
d="M524 1218q-79 0 -133.5 51t-54.5 130t54.5 132t133.5 53q78 0 132.5 -53t54.5 -132t-54.5 -130t-132.5 -51zM524 1289q47 0 78.5 30.5t31.5 79.5t-31.5 81.5t-78.5 32.5q-48 0 -79.5 -32.5t-31.5 -81.5q0 -48 32 -79t79 -31zM420 -21q-154 0 -241 82t-87 222
q0 100 58 175.5t164.5 117.5t252.5 42h224v124q0 117 -69.5 188.5t-209.5 71.5q-79 0 -141.5 -25.5t-108.5 -64.5l-10 -165h-99v226q70 60 159 94.5t202 34.5q191 0 294 -96t103 -266v-522q0 -32 2 -63.5t7 -62.5l129 -5v-87h-236q-12 59 -16.5 95t-5.5 81
q-59 -87 -156 -142t-215 -55zM434 84q111 0 210.5 58.5t146.5 155.5v228h-225q-166 0 -260 -71.5t-94 -175.5q0 -87 60 -141t162 -54z" />
    <glyph glyph-name="ae" unicode="&#xe6;" horiz-adv-x="1768" 
d="M425 -21q-157 0 -245 85.5t-88 229.5q0 102 58 179t164.5 120t253.5 43h223v106q0 117 -69.5 188.5t-209.5 71.5q-78 0 -140.5 -25.5t-109.5 -64.5l-9 -165h-100v226q70 60 159.5 94.5t201.5 34.5q145 0 236 -58.5t123 -164.5q35 67 91 117.5t127.5 78t148.5 27.5
q134 0 228.5 -56t144.5 -159.5t50 -247.5v-100h-751l-1 -44q0 -185 90 -300.5t269 -115.5q103 0 179 31.5t144 88.5l48 -87q-60 -56 -148.5 -94.5t-222.5 -38.5q-281 0 -418 242q-70 -113 -179.5 -177.5t-247.5 -64.5zM434 84q77 0 149 30t130.5 84t90.5 126
q-6 48 -9.5 90.5t-3.5 88.5v41h-225q-165 0 -259.5 -73.5t-94.5 -180.5q0 -87 60 -146.5t162 -59.5zM914 636h629v31q0 147 -77 240.5t-226 93.5q-93 0 -164 -46.5t-113.5 -127.5t-50.5 -186z" />
    <glyph glyph-name="ccedilla" unicode="&#xe7;" horiz-adv-x="1075" 
d="M441 -435l-7 77q90 0 151 30.5t61 88.5q0 57 -41 78.5t-145 30.5l32 145h93l-15 -83q80 -9 128 -48t48 -121q0 -90 -79 -144t-226 -54zM551 -21q-135 0 -238.5 68t-162 190t-58.5 283v42q0 158 56.5 280t159.5 191t242 69q126 0 224 -47.5t164 -122.5l2 -245h-100
l-16 202q-50 53 -117 82.5t-154 29.5q-102 0 -179 -57t-119.5 -156.5t-42.5 -225.5v-42q0 -132 42 -231.5t118 -154.5t180 -55q121 0 202 63.5t98 187.5h107l2 -6q-9 -102 -60.5 -180t-140 -121.5t-209.5 -43.5z" />
    <glyph glyph-name="egrave" unicode="&#xe8;" horiz-adv-x="1072" 
d="M633 1310l-5 -3h-88l-231 248l2 5h141zM565 -21q-139 0 -245 67.5t-166 187t-60 275.5v55q0 155 60 276.5t162.5 191.5t228.5 70q133 0 227.5 -57t145 -160.5t50.5 -243.5v-102h-750l-2 -44q1 -120 44.5 -214t122 -148t182.5 -54q102 0 179.5 32.5t136.5 88.5l51 -82
q-63 -60 -152.5 -99.5t-214.5 -39.5zM226 639h622v30q0 95 -36.5 170.5t-104 118.5t-162.5 43q-86 0 -155 -46.5t-112.5 -127t-53.5 -182.5z" />
    <glyph glyph-name="eacute" unicode="&#xe9;" horiz-adv-x="1072" 
d="M457 1310l182 250h140l2 -5l-231 -248h-88zM565 -21q-139 0 -245 67.5t-166 187t-60 275.5v55q0 155 60 276.5t162.5 191.5t228.5 70q133 0 227.5 -57t145 -160.5t50.5 -243.5v-102h-750l-2 -44q1 -120 44.5 -214t122 -148t182.5 -54q102 0 179.5 32.5t136.5 88.5l51 -82
q-63 -60 -152.5 -99.5t-214.5 -39.5zM226 639h622v30q0 95 -36.5 170.5t-104 118.5t-162.5 43q-86 0 -155 -46.5t-112.5 -127t-53.5 -182.5z" />
    <glyph glyph-name="ecircumflex" unicode="&#xea;" horiz-adv-x="1072" 
d="M268 1319v21l231 220h90l233 -223v-18h-106l-173 168l-169 -168h-106zM565 -21q-139 0 -245 67.5t-166 187t-60 275.5v55q0 155 60 276.5t162.5 191.5t228.5 70q133 0 227.5 -57t145 -160.5t50.5 -243.5v-102h-750l-2 -44q1 -120 44.5 -214t122 -148t182.5 -54
q102 0 179.5 32.5t136.5 88.5l51 -82q-63 -60 -152.5 -99.5t-214.5 -39.5zM226 639h622v30q0 95 -36.5 170.5t-104 118.5t-162.5 43q-86 0 -155 -46.5t-112.5 -127t-53.5 -182.5z" />
    <glyph glyph-name="edieresis" unicode="&#xeb;" horiz-adv-x="1072" 
d="M662 1388v172h134v-172h-134zM294 1388v172h135v-172h-135zM565 -21q-139 0 -245 67.5t-166 187t-60 275.5v55q0 155 60 276.5t162.5 191.5t228.5 70q133 0 227.5 -57t145 -160.5t50.5 -243.5v-102h-750l-2 -44q1 -120 44.5 -214t122 -148t182.5 -54q102 0 179.5 32.5
t136.5 88.5l51 -82q-63 -60 -152.5 -99.5t-214.5 -39.5zM226 639h622v30q0 95 -36.5 170.5t-104 118.5t-162.5 43q-86 0 -155 -46.5t-112.5 -127t-53.5 -182.5z" />
    <glyph glyph-name="igrave" unicode="&#xec;" horiz-adv-x="629" 
d="M383 1310l-5 -3h-88l-231 248l2 5h141zM79 0v87l163 13v881l-163 13v88h283v-982l163 -13v-87h-446z" />
    <glyph glyph-name="iacute" unicode="&#xed;" horiz-adv-x="629" 
d="M207 1310l182 250h140l2 -5l-231 -248h-88zM79 0v87l163 13v881l-163 13v88h283v-982l163 -13v-87h-446z" />
    <glyph glyph-name="icircumflex" unicode="&#xee;" horiz-adv-x="629" 
d="M18 1319v21l231 220h90l233 -223v-18h-106l-173 168l-169 -168h-106zM79 0v87l163 13v881l-163 13v88h283v-982l163 -13v-87h-446z" />
    <glyph glyph-name="idieresis" unicode="&#xef;" horiz-adv-x="629" 
d="M412 1388v172h134v-172h-134zM44 1388v172h135v-172h-135zM79 0v87l163 13v881l-163 13v88h283v-982l163 -13v-87h-446z" />
    <glyph glyph-name="eth" unicode="&#xf0;" horiz-adv-x="1180" 
d="M553 -21q-139 0 -246 63t-168 170.5t-61 242.5q0 157 59 271t166.5 176.5t252.5 62.5q105 0 194 -40t141 -108l5 5q-18 133 -68 236.5t-126 181.5l-308 -176l-50 73l287 164q-44 33 -93 60.5t-105 52.5l38 103q77 -30 143.5 -68.5t124.5 -85.5l258 148l51 -73l-242 -139
q112 -121 170 -288.5t58 -387.5v-88q0 -163 -63 -288.5t-171.5 -196.5t-246.5 -71zM557 81q105 0 185.5 58.5t126 161t45.5 234.5v90v55q-38 76 -128.5 129t-229.5 53q-115 0 -195 -52.5t-121 -144.5t-41 -210q0 -99 43.5 -184.5t124 -137.5t190.5 -52z" />
    <glyph glyph-name="ntilde" unicode="&#xf1;" horiz-adv-x="1331" 
d="M412 1341l-78 10q0 59 25 105.5t67 74t93 27.5q52 0 105 -28.5t101.5 -57t88.5 -28.5q41 0 73.5 33.5t32.5 89.5l78 -13q0 -59 -25 -105.5t-66 -73t-92 -26.5q-53 0 -106 28t-101.5 56.5t-89.5 28.5q-42 0 -74 -32.5t-32 -88.5zM82 0v87l163 13v881l-163 13v88h269
l10 -194q52 102 140 158t210 56q176 0 268 -107.5t92 -336.5v-558l163 -13v-87h-446v87l163 13v557q0 188 -69 265t-197 77q-134 0 -212 -75t-108 -196v-628l163 -13v-87h-446z" />
    <glyph glyph-name="ograve" unicode="&#xf2;" horiz-adv-x="1141" 
d="M658 1310l-5 -3h-88l-231 248l2 5h141zM572 -21q-146 0 -253.5 69.5t-167 193t-59.5 282.5v33q0 159 59.5 282t167 193t251.5 70q145 0 252.5 -70t167 -192.5t59.5 -282.5v-33q0 -160 -59.5 -283t-167 -192.5t-250.5 -69.5zM572 79q111 0 191 59t123 160t43 226v33
q0 124 -43 225t-123.5 160t-192.5 59t-192.5 -59t-123 -160t-42.5 -225v-33q0 -126 42.5 -226.5t123 -159.5t194.5 -59z" />
    <glyph glyph-name="oacute" unicode="&#xf3;" horiz-adv-x="1141" 
d="M482 1310l182 250h140l2 -5l-231 -248h-88zM572 -21q-146 0 -253.5 69.5t-167 193t-59.5 282.5v33q0 159 59.5 282t167 193t251.5 70q145 0 252.5 -70t167 -192.5t59.5 -282.5v-33q0 -160 -59.5 -283t-167 -192.5t-250.5 -69.5zM572 79q111 0 191 59t123 160t43 226v33
q0 124 -43 225t-123.5 160t-192.5 59t-192.5 -59t-123 -160t-42.5 -225v-33q0 -126 42.5 -226.5t123 -159.5t194.5 -59z" />
    <glyph glyph-name="ocircumflex" unicode="&#xf4;" horiz-adv-x="1141" 
d="M293 1319v21l231 220h90l233 -223v-18h-106l-173 168l-169 -168h-106zM572 -21q-146 0 -253.5 69.5t-167 193t-59.5 282.5v33q0 159 59.5 282t167 193t251.5 70q145 0 252.5 -70t167 -192.5t59.5 -282.5v-33q0 -160 -59.5 -283t-167 -192.5t-250.5 -69.5zM572 79
q111 0 191 59t123 160t43 226v33q0 124 -43 225t-123.5 160t-192.5 59t-192.5 -59t-123 -160t-42.5 -225v-33q0 -126 42.5 -226.5t123 -159.5t194.5 -59z" />
    <glyph glyph-name="otilde" unicode="&#xf5;" horiz-adv-x="1141" 
d="M316 1341l-78 10q0 59 25 105.5t67 74t93 27.5q52 0 105 -28.5t101.5 -57t88.5 -28.5q41 0 73.5 33.5t32.5 89.5l78 -13q0 -59 -25 -105.5t-66 -73t-92 -26.5q-53 0 -106 28t-101.5 56.5t-89.5 28.5q-42 0 -74 -32.5t-32 -88.5zM572 -21q-146 0 -253.5 69.5t-167 193
t-59.5 282.5v33q0 159 59.5 282t167 193t251.5 70q145 0 252.5 -70t167 -192.5t59.5 -282.5v-33q0 -160 -59.5 -283t-167 -192.5t-250.5 -69.5zM572 79q111 0 191 59t123 160t43 226v33q0 124 -43 225t-123.5 160t-192.5 59t-192.5 -59t-123 -160t-42.5 -225v-33
q0 -126 42.5 -226.5t123 -159.5t194.5 -59z" />
    <glyph glyph-name="odieresis" unicode="&#xf6;" horiz-adv-x="1141" 
d="M687 1388v172h134v-172h-134zM319 1388v172h135v-172h-135zM572 -21q-146 0 -253.5 69.5t-167 193t-59.5 282.5v33q0 159 59.5 282t167 193t251.5 70q145 0 252.5 -70t167 -192.5t59.5 -282.5v-33q0 -160 -59.5 -283t-167 -192.5t-250.5 -69.5zM572 79q111 0 191 59
t123 160t43 226v33q0 124 -43 225t-123.5 160t-192.5 59t-192.5 -59t-123 -160t-42.5 -225v-33q0 -126 42.5 -226.5t123 -159.5t194.5 -59z" />
    <glyph glyph-name="divide" unicode="&#xf7;" horiz-adv-x="1148" 
d="M74 645v115h998v-115h-998zM508 213v159h143v-159h-143zM508 1010v160h143v-160h-143z" />
    <glyph glyph-name="oslash" unicode="&#xf8;" horiz-adv-x="1141" 
d="M176 -136l696 1354h93l-696 -1354h-93zM572 -21q-146 0 -253.5 69.5t-167 193t-59.5 282.5v33q0 159 59.5 282t167 193t251.5 70q145 0 252.5 -70t167 -192.5t59.5 -282.5v-33q0 -160 -59.5 -283t-167 -192.5t-250.5 -69.5zM572 79q111 0 191 59t123 160t43 226v33
q0 124 -43 225t-123.5 160t-192.5 59t-192.5 -59t-123 -160t-42.5 -225v-33q0 -126 42.5 -226.5t123 -159.5t194.5 -59z" />
    <glyph glyph-name="ugrave" unicode="&#xf9;" horiz-adv-x="1222" 
d="M691 1310l-5 -3h-88l-231 248l2 5h141zM541 -21q-170 0 -264.5 116t-94.5 360v526l-134 13v88h134h120v-629q0 -198 65 -284.5t188 -86.5q139 0 217 64.5t107 173.5v661l-154 13v88h154h121v-982l145 -13v-87h-251l-10 178q-51 -95 -136.5 -147t-206.5 -52z" />
    <glyph glyph-name="uacute" unicode="&#xfa;" horiz-adv-x="1222" 
d="M515 1310l182 250h140l2 -5l-231 -248h-88zM541 -21q-170 0 -264.5 116t-94.5 360v526l-134 13v88h134h120v-629q0 -198 65 -284.5t188 -86.5q139 0 217 64.5t107 173.5v661l-154 13v88h154h121v-982l145 -13v-87h-251l-10 178q-51 -95 -136.5 -147t-206.5 -52z" />
    <glyph glyph-name="ucircumflex" unicode="&#xfb;" horiz-adv-x="1222" 
d="M326 1319v21l231 220h90l233 -223v-18h-106l-173 168l-169 -168h-106zM541 -21q-170 0 -264.5 116t-94.5 360v526l-134 13v88h134h120v-629q0 -198 65 -284.5t188 -86.5q139 0 217 64.5t107 173.5v661l-154 13v88h154h121v-982l145 -13v-87h-251l-10 178
q-51 -95 -136.5 -147t-206.5 -52z" />
    <glyph glyph-name="udieresis" unicode="&#xfc;" horiz-adv-x="1222" 
d="M720 1388v172h134v-172h-134zM352 1388v172h135v-172h-135zM541 -21q-170 0 -264.5 116t-94.5 360v526l-134 13v88h134h120v-629q0 -198 65 -284.5t188 -86.5q139 0 217 64.5t107 173.5v661l-154 13v88h154h121v-982l145 -13v-87h-251l-10 178q-51 -95 -136.5 -147
t-206.5 -52z" />
    <glyph glyph-name="yacute" unicode="&#xfd;" horiz-adv-x="1188" 
d="M506 1310l182 250h140l2 -5l-231 -248h-88zM295 -437q-21 0 -50.5 4.5t-44.5 8.5l14 99q14 -2 39.5 -4.5t37.5 -2.5q78 0 124 51.5t84 146.5l56 147l-397 974l-117 7v88h381v-88l-137 -9l278 -698l45 -123h6l309 821l-141 9v88h378v-88l-115 -7l-444 -1161
q-30 -76 -68 -136t-95 -93.5t-143 -33.5z" />
    <glyph glyph-name="thorn" unicode="&#xfe;" horiz-adv-x="1173" 
d="M47 -416v88l163 13v1774l-163 13v88h283v-637q53 84 138 131.5t199 47.5q129 0 222.5 -70.5t142.5 -198.5t49 -301v-21q0 -162 -49 -281t-141.5 -185t-221.5 -66q-115 0 -200.5 43t-138.5 121v-458l163 -13v-88h-446zM641 79q157 0 238.5 118t81.5 314v21
q0 138 -36.5 243t-108 164.5t-177.5 59.5q-123 0 -197.5 -60.5t-111.5 -152.5v-514q38 -89 116.5 -141t194.5 -52z" />
    <glyph glyph-name="ydieresis" unicode="&#xff;" horiz-adv-x="1188" 
d="M711 1388v172h134v-172h-134zM343 1388v172h135v-172h-135zM295 -437q-21 0 -50.5 4.5t-44.5 8.5l14 99q14 -2 39.5 -4.5t37.5 -2.5q78 0 124 51.5t84 146.5l56 147l-397 974l-117 7v88h381v-88l-137 -9l278 -698l45 -123h6l309 821l-141 9v88h378v-88l-115 -7
l-444 -1161q-30 -76 -68 -136t-95 -93.5t-143 -33.5z" />
    <glyph glyph-name="Amacron" unicode="&#x100;" horiz-adv-x="1500" 
d="M407 1665v96h670v-96h-670zM62 0v87l107 7l517 1362h114l513 -1362l107 -7v-87h-359v87l128 9l-121 329h-653l-122 -329l128 -9v-87h-359zM454 530h575l-263 715l-20 59h-6l-21 -59z" />
    <glyph glyph-name="amacron" unicode="&#x101;" horiz-adv-x="1123" 
d="M188 1388v96h670v-96h-670zM420 -21q-154 0 -241 82t-87 222q0 100 58 175.5t164.5 117.5t252.5 42h224v124q0 117 -69.5 188.5t-209.5 71.5q-79 0 -141.5 -25.5t-108.5 -64.5l-10 -165h-99v226q70 60 159 94.5t202 34.5q191 0 294 -96t103 -266v-522q0 -32 2 -63.5
t7 -62.5l129 -5v-87h-236q-12 59 -16.5 95t-5.5 81q-59 -87 -156 -142t-215 -55zM434 84q111 0 210.5 58.5t146.5 155.5v228h-225q-166 0 -260 -71.5t-94 -175.5q0 -87 60 -141t162 -54z" />
    <glyph glyph-name="Abreve" unicode="&#x102;" horiz-adv-x="1500" 
d="M743 1574q-137 0 -215 71.5t-77 185.5l2 6h97q0 -78 46.5 -127t146.5 -49q96 0 143.5 49.5t47.5 126.5h98l2 -6q-1 -114 -78.5 -185.5t-212.5 -71.5zM62 0v87l107 7l517 1362h114l513 -1362l107 -7v-87h-359v87l128 9l-121 329h-653l-122 -329l128 -9v-87h-359zM454 530
h575l-263 715l-20 59h-6l-21 -59z" />
    <glyph glyph-name="abreve" unicode="&#x103;" horiz-adv-x="1123" 
d="M525 1297q-137 0 -215 71.5t-77 185.5l2 6h97q0 -78 46.5 -127t146.5 -49q96 0 143.5 49.5t47.5 126.5h98l2 -6q-1 -114 -78.5 -185.5t-212.5 -71.5zM420 -21q-154 0 -241 82t-87 222q0 100 58 175.5t164.5 117.5t252.5 42h224v124q0 117 -69.5 188.5t-209.5 71.5
q-79 0 -141.5 -25.5t-108.5 -64.5l-10 -165h-99v226q70 60 159 94.5t202 34.5q191 0 294 -96t103 -266v-522q0 -32 2 -63.5t7 -62.5l129 -5v-87h-236q-12 59 -16.5 95t-5.5 81q-59 -87 -156 -142t-215 -55zM434 84q111 0 210.5 58.5t146.5 155.5v228h-225q-166 0 -260 -71.5
t-94 -175.5q0 -87 60 -141t162 -54z" />
    <glyph glyph-name="Aogonek" unicode="&#x104;" horiz-adv-x="1500" 
d="M1347 -427q-89 0 -143 50t-54 139q0 72 49 139t160 136l61 -37q-80 -67 -121 -117.5t-41 -109.5q0 -40 22 -73t83 -33q30 0 54 9t49 23l24 -82q-30 -19 -65 -31.5t-78 -12.5zM62 0v87l107 7l517 1362h114l513 -1362l107 -7v-87h-359v87l128 9l-121 329h-653l-122 -329
l128 -9v-87h-359zM454 530h575l-263 715l-20 59h-6l-21 -59z" />
    <glyph glyph-name="aogonek" unicode="&#x105;" horiz-adv-x="1123" 
d="M976 -427q-89 0 -143 50t-54 139q0 72 49 139t160 136l61 -37q-80 -67 -121 -117.5t-41 -109.5q0 -40 22 -73t83 -33q30 0 54 9t49 23l24 -82q-30 -19 -65 -31.5t-78 -12.5zM420 -21q-154 0 -241 82t-87 222q0 100 58 175.5t164.5 117.5t252.5 42h224v124
q0 117 -69.5 188.5t-209.5 71.5q-79 0 -141.5 -25.5t-108.5 -64.5l-10 -165h-99v226q70 60 159 94.5t202 34.5q191 0 294 -96t103 -266v-522q0 -32 2 -63.5t7 -62.5l129 -5v-87h-236q-12 59 -16.5 95t-5.5 81q-59 -87 -156 -142t-215 -55zM434 84q111 0 210.5 58.5
t146.5 155.5v228h-225q-166 0 -260 -71.5t-94 -175.5q0 -87 60 -141t162 -54z" />
    <glyph glyph-name="Cacute" unicode="&#x106;" horiz-adv-x="1321" 
d="M642 1587l182 250h140l2 -5l-231 -248h-88zM769 -21q-216 0 -363.5 94.5t-223 261.5t-75.5 383v19q0 218 78.5 384.5t222.5 261t338 94.5q150 0 258.5 -42t192.5 -115v-283h-102l-10 232q-44 33 -92.5 56t-108 35.5t-138.5 12.5q-159 0 -275.5 -80.5t-180 -223
t-63.5 -330.5v-21q0 -194 64.5 -337t186 -221t292.5 -78q92 0 177.5 23t144.5 61l10 220h101v-290q-89 -58 -200.5 -87.5t-233.5 -29.5z" />
    <glyph glyph-name="cacute" unicode="&#x107;" horiz-adv-x="1075" 
d="M460 1310l182 250h140l2 -5l-231 -248h-88zM551 -21q-135 0 -238.5 68t-162 190t-58.5 283v42q0 158 56.5 280t159.5 191t242 69q126 0 224 -47.5t164 -122.5l2 -245h-100l-16 202q-50 53 -117 82.5t-154 29.5q-102 0 -179 -57t-119.5 -156.5t-42.5 -225.5v-42
q0 -132 42 -231.5t118 -154.5t180 -55q121 0 202 63.5t98 187.5h107l2 -6q-9 -102 -60.5 -180t-140 -121.5t-209.5 -43.5z" />
    <glyph glyph-name="Ccircumflex" unicode="&#x108;" horiz-adv-x="1321" 
d="M453 1596v21l231 220h90l233 -223v-18h-106l-173 168l-169 -168h-106zM769 -21q-216 0 -363.5 94.5t-223 261.5t-75.5 383v19q0 218 78.5 384.5t222.5 261t338 94.5q150 0 258.5 -42t192.5 -115v-283h-102l-10 232q-44 33 -92.5 56t-108 35.5t-138.5 12.5
q-159 0 -275.5 -80.5t-180 -223t-63.5 -330.5v-21q0 -194 64.5 -337t186 -221t292.5 -78q92 0 177.5 23t144.5 61l10 220h101v-290q-89 -58 -200.5 -87.5t-233.5 -29.5z" />
    <glyph glyph-name="ccircumflex" unicode="&#x109;" horiz-adv-x="1075" 
d="M271 1319v21l231 220h90l233 -223v-18h-106l-173 168l-169 -168h-106zM551 -21q-135 0 -238.5 68t-162 190t-58.5 283v42q0 158 56.5 280t159.5 191t242 69q126 0 224 -47.5t164 -122.5l2 -245h-100l-16 202q-50 53 -117 82.5t-154 29.5q-102 0 -179 -57t-119.5 -156.5
t-42.5 -225.5v-42q0 -132 42 -231.5t118 -154.5t180 -55q121 0 202 63.5t98 187.5h107l2 -6q-9 -102 -60.5 -180t-140 -121.5t-209.5 -43.5z" />
    <glyph glyph-name="Cdotaccent" unicode="&#x10a;" horiz-adv-x="1321" 
d="M662 1664v173h134v-173h-134zM769 -21q-216 0 -363.5 94.5t-223 261.5t-75.5 383v19q0 218 78.5 384.5t222.5 261t338 94.5q150 0 258.5 -42t192.5 -115v-283h-102l-10 232q-44 33 -92.5 56t-108 35.5t-138.5 12.5q-159 0 -275.5 -80.5t-180 -223t-63.5 -330.5v-21
q0 -194 64.5 -337t186 -221t292.5 -78q92 0 177.5 23t144.5 61l10 220h101v-290q-89 -58 -200.5 -87.5t-233.5 -29.5z" />
    <glyph glyph-name="cdotaccent" unicode="&#x10b;" horiz-adv-x="1075" 
d="M480 1387v173h134v-173h-134zM551 -21q-135 0 -238.5 68t-162 190t-58.5 283v42q0 158 56.5 280t159.5 191t242 69q126 0 224 -47.5t164 -122.5l2 -245h-100l-16 202q-50 53 -117 82.5t-154 29.5q-102 0 -179 -57t-119.5 -156.5t-42.5 -225.5v-42q0 -132 42 -231.5
t118 -154.5t180 -55q121 0 202 63.5t98 187.5h107l2 -6q-9 -102 -60.5 -180t-140 -121.5t-209.5 -43.5z" />
    <glyph glyph-name="Ccaron" unicode="&#x10c;" horiz-adv-x="1321" 
d="M1007 1837v-21l-231 -220h-90l-233 222v19h107l172 -168l170 168h105zM769 -21q-216 0 -363.5 94.5t-223 261.5t-75.5 383v19q0 218 78.5 384.5t222.5 261t338 94.5q150 0 258.5 -42t192.5 -115v-283h-102l-10 232q-44 33 -92.5 56t-108 35.5t-138.5 12.5
q-159 0 -275.5 -80.5t-180 -223t-63.5 -330.5v-21q0 -194 64.5 -337t186 -221t292.5 -78q92 0 177.5 23t144.5 61l10 220h101v-290q-89 -58 -200.5 -87.5t-233.5 -29.5z" />
    <glyph glyph-name="ccaron" unicode="&#x10d;" horiz-adv-x="1075" 
d="M825 1560v-21l-231 -220h-90l-233 222v19h107l172 -168l170 168h105zM551 -21q-135 0 -238.5 68t-162 190t-58.5 283v42q0 158 56.5 280t159.5 191t242 69q126 0 224 -47.5t164 -122.5l2 -245h-100l-16 202q-50 53 -117 82.5t-154 29.5q-102 0 -179 -57t-119.5 -156.5
t-42.5 -225.5v-42q0 -132 42 -231.5t118 -154.5t180 -55q121 0 202 63.5t98 187.5h107l2 -6q-9 -102 -60.5 -180t-140 -121.5t-209.5 -43.5z" />
    <glyph glyph-name="Dcaron" unicode="&#x10e;" horiz-adv-x="1372" 
d="M952 1837v-21l-231 -220h-90l-233 222v19h107l172 -168l170 168h105zM76 0v87l163 13v1255l-163 13v88h163h400q186 0 327 -92.5t221.5 -254t80.5 -369.5v-24q0 -207 -79 -368.5t-219.5 -254.5t-325.5 -93h-568zM359 100h280q152 0 266 81.5t178.5 221t64.5 313.5v26
q0 176 -64.5 314.5t-178.5 218.5t-266 80h-280v-1255z" />
    <glyph glyph-name="dcaron" unicode="&#x10f;" horiz-adv-x="1211" 
d="M1115 1236l-60 51q34 47 49.5 91.5t15.5 104.5v77h112v-74q0 -78 -29.5 -140t-87.5 -110zM505 -21q-129 0 -222 66t-142 185t-49 281v21q0 173 49 301t142.5 198.5t223.5 70.5q113 0 196.5 -48t137.5 -134v539l-163 13v88h163h120v-1460l163 -13v-87h-270l-9 153
q-53 -82 -139 -128t-201 -46zM527 82q117 0 195 53t119 144v505q-39 94 -114 154.5t-198 60.5q-105 0 -175 -59t-105.5 -164t-35.5 -244v-21q0 -196 78.5 -312.5t235.5 -116.5z" />
    <glyph glyph-name="Dcroat" unicode="&#x110;" horiz-adv-x="1372" 
d="M76 687v101h559v-101h-559zM76 0v87l163 13v1255l-163 13v88h163h400q186 0 327 -92.5t221.5 -254t80.5 -369.5v-24q0 -207 -79 -368.5t-219.5 -254.5t-325.5 -93h-568zM359 100h280q152 0 266 81.5t178.5 221t64.5 313.5v26q0 176 -64.5 314.5t-178.5 218.5t-266 80
h-280v-1255z" />
    <glyph glyph-name="dcroat" unicode="&#x111;" horiz-adv-x="1211" 
d="M565 1210v101h559v-101h-559zM505 -21q-129 0 -222 66t-142 185t-49 281v21q0 173 49 301t142.5 198.5t223.5 70.5q113 0 196.5 -48t137.5 -134v539l-163 13v88h163h120v-1460l163 -13v-87h-270l-9 153q-53 -82 -139 -128t-201 -46zM527 82q117 0 195 53t119 144v505
q-39 94 -114 154.5t-198 60.5q-105 0 -175 -59t-105.5 -164t-35.5 -244v-21q0 -196 78.5 -312.5t235.5 -116.5z" />
    <glyph glyph-name="Emacron" unicode="&#x112;" horiz-adv-x="1287" 
d="M308 1665v96h670v-96h-670zM76 0v87l163 13v1255l-163 13v88h1046v-319h-102l-10 220h-651v-551h587v-100h-587v-609h682l10 222h101v-319h-1076z" />
    <glyph glyph-name="emacron" unicode="&#x113;" horiz-adv-x="1072" 
d="M209 1388v96h670v-96h-670zM565 -21q-139 0 -245 67.5t-166 187t-60 275.5v55q0 155 60 276.5t162.5 191.5t228.5 70q133 0 227.5 -57t145 -160.5t50.5 -243.5v-102h-750l-2 -44q1 -120 44.5 -214t122 -148t182.5 -54q102 0 179.5 32.5t136.5 88.5l51 -82
q-63 -60 -152.5 -99.5t-214.5 -39.5zM226 639h622v30q0 95 -36.5 170.5t-104 118.5t-162.5 43q-86 0 -155 -46.5t-112.5 -127t-53.5 -182.5z" />
    <glyph glyph-name="Ebreve" unicode="&#x114;" horiz-adv-x="1287" 
d="M644 1574q-137 0 -215 71.5t-77 185.5l2 6h97q0 -78 46.5 -127t146.5 -49q96 0 143.5 49.5t47.5 126.5h98l2 -6q-1 -114 -78.5 -185.5t-212.5 -71.5zM76 0v87l163 13v1255l-163 13v88h1046v-319h-102l-10 220h-651v-551h587v-100h-587v-609h682l10 222h101v-319h-1076z
" />
    <glyph glyph-name="ebreve" unicode="&#x115;" horiz-adv-x="1072" 
d="M546 1297q-137 0 -215 71.5t-77 185.5l2 6h97q0 -78 46.5 -127t146.5 -49q96 0 143.5 49.5t47.5 126.5h98l2 -6q-1 -114 -78.5 -185.5t-212.5 -71.5zM565 -21q-139 0 -245 67.5t-166 187t-60 275.5v55q0 155 60 276.5t162.5 191.5t228.5 70q133 0 227.5 -57t145 -160.5
t50.5 -243.5v-102h-750l-2 -44q1 -120 44.5 -214t122 -148t182.5 -54q102 0 179.5 32.5t136.5 88.5l51 -82q-63 -60 -152.5 -99.5t-214.5 -39.5zM226 639h622v30q0 95 -36.5 170.5t-104 118.5t-162.5 43q-86 0 -155 -46.5t-112.5 -127t-53.5 -182.5z" />
    <glyph glyph-name="Edotaccent" unicode="&#x116;" horiz-adv-x="1287" 
d="M575 1664v173h134v-173h-134zM76 0v87l163 13v1255l-163 13v88h1046v-319h-102l-10 220h-651v-551h587v-100h-587v-609h682l10 222h101v-319h-1076z" />
    <glyph glyph-name="edotaccent" unicode="&#x117;" horiz-adv-x="1072" 
d="M477 1387v173h134v-173h-134zM565 -21q-139 0 -245 67.5t-166 187t-60 275.5v55q0 155 60 276.5t162.5 191.5t228.5 70q133 0 227.5 -57t145 -160.5t50.5 -243.5v-102h-750l-2 -44q1 -120 44.5 -214t122 -148t182.5 -54q102 0 179.5 32.5t136.5 88.5l51 -82
q-63 -60 -152.5 -99.5t-214.5 -39.5zM226 639h622v30q0 95 -36.5 170.5t-104 118.5t-162.5 43q-86 0 -155 -46.5t-112.5 -127t-53.5 -182.5z" />
    <glyph glyph-name="Eogonek" unicode="&#x118;" horiz-adv-x="1287" 
d="M1079 -427q-89 0 -143 50t-54 139q0 72 49 139t160 136l61 -37q-80 -67 -121 -117.5t-41 -109.5q0 -40 22 -73t83 -33q30 0 54 9t49 23l24 -82q-30 -19 -65 -31.5t-78 -12.5zM76 0v87l163 13v1255l-163 13v88h1046v-319h-102l-10 220h-651v-551h587v-100h-587v-609h682
l10 222h101v-319h-1076z" />
    <glyph glyph-name="eogonek" unicode="&#x119;" horiz-adv-x="1072" 
d="M770 -427q-86 0 -142 53t-56 157q0 94 56.5 174t182.5 147l51 -40q-89 -66 -135.5 -127.5t-46.5 -143.5q0 -54 23.5 -90t88.5 -36q33 0 57 9t49 23l24 -82q-30 -19 -66 -31.5t-86 -12.5zM565 -21q-139 0 -245 67.5t-166 187t-60 275.5v55q0 155 60 276.5t162.5 191.5
t228.5 70q133 0 227.5 -57t145 -160.5t50.5 -243.5v-102h-750l-2 -44q1 -120 44.5 -214t122 -148t182.5 -54q102 0 179.5 32.5t136.5 88.5l51 -82q-63 -60 -152.5 -99.5t-214.5 -39.5zM226 639h622v30q0 95 -36.5 170.5t-104 118.5t-162.5 43q-86 0 -155 -46.5t-112.5 -127
t-53.5 -182.5z" />
    <glyph glyph-name="Ecaron" unicode="&#x11a;" horiz-adv-x="1287" 
d="M920 1837v-21l-231 -220h-90l-233 222v19h107l172 -168l170 168h105zM76 0v87l163 13v1255l-163 13v88h1046v-319h-102l-10 220h-651v-551h587v-100h-587v-609h682l10 222h101v-319h-1076z" />
    <glyph glyph-name="ecaron" unicode="&#x11b;" horiz-adv-x="1072" 
d="M822 1560v-21l-231 -220h-90l-233 222v19h107l172 -168l170 168h105zM565 -21q-139 0 -245 67.5t-166 187t-60 275.5v55q0 155 60 276.5t162.5 191.5t228.5 70q133 0 227.5 -57t145 -160.5t50.5 -243.5v-102h-750l-2 -44q1 -120 44.5 -214t122 -148t182.5 -54
q102 0 179.5 32.5t136.5 88.5l51 -82q-63 -60 -152.5 -99.5t-214.5 -39.5zM226 639h622v30q0 95 -36.5 170.5t-104 118.5t-162.5 43q-86 0 -155 -46.5t-112.5 -127t-53.5 -182.5z" />
    <glyph glyph-name="Gcircumflex" unicode="&#x11c;" horiz-adv-x="1384" 
d="M415 1596v21l231 220h90l233 -223v-18h-106l-173 168l-169 -168h-106zM755 -21q-200 0 -345.5 93.5t-224 260t-78.5 385.5v32q0 216 80.5 379.5t221.5 255.5t320 92q161 0 273.5 -40.5t199.5 -108.5v-271h-103l-10 218q-63 46 -145.5 72t-205.5 26q-145 0 -260.5 -78.5
t-183 -218t-67.5 -324.5v-34q0 -189 62.5 -332.5t180 -223.5t284.5 -80q118 0 208 26t156 62v386l-299 4v97h419v-534q-78 -57 -195 -100.5t-288 -43.5z" />
    <glyph glyph-name="gcircumflex" unicode="&#x11d;" horiz-adv-x="1156" 
d="M294 1319v21l231 220h90l233 -223v-18h-106l-173 168l-169 -168h-106zM536 -437q-79 0 -167 19t-154 51l32 100q64 -31 135.5 -48t151.5 -17q154 0 231.5 91.5t77.5 254.5v132q-54 -79 -138.5 -123t-196.5 -44q-130 0 -223 66t-143 185.5t-50 280.5v21q0 173 50 301
t143.5 198.5t224.5 70.5q116 0 201 -50t138 -140l13 170h101v-1068q0 -139 -50.5 -240t-146.5 -156t-230 -55zM530 82q118 0 195.5 54t117.5 148v495q-38 95 -112 157.5t-199 62.5q-105 0 -176 -59.5t-107 -164.5t-36 -243v-21q0 -196 79.5 -312.5t237.5 -116.5zM939 979
l-39 103h202v-87z" />
    <glyph glyph-name="Gbreve" unicode="&#x11e;" horiz-adv-x="1384" 
d="M693 1574q-137 0 -215 71.5t-77 185.5l2 6h97q0 -78 46.5 -127t146.5 -49q96 0 143.5 49.5t47.5 126.5h98l2 -6q-1 -114 -78.5 -185.5t-212.5 -71.5zM755 -21q-200 0 -345.5 93.5t-224 260t-78.5 385.5v32q0 216 80.5 379.5t221.5 255.5t320 92q161 0 273.5 -40.5
t199.5 -108.5v-271h-103l-10 218q-63 46 -145.5 72t-205.5 26q-145 0 -260.5 -78.5t-183 -218t-67.5 -324.5v-34q0 -189 62.5 -332.5t180 -223.5t284.5 -80q118 0 208 26t156 62v386l-299 4v97h419v-534q-78 -57 -195 -100.5t-288 -43.5z" />
    <glyph glyph-name="gbreve" unicode="&#x11f;" horiz-adv-x="1156" 
d="M572 1297q-137 0 -215 71.5t-77 185.5l2 6h97q0 -78 46.5 -127t146.5 -49q96 0 143.5 49.5t47.5 126.5h98l2 -6q-1 -114 -78.5 -185.5t-212.5 -71.5zM536 -437q-79 0 -167 19t-154 51l32 100q64 -31 135.5 -48t151.5 -17q154 0 231.5 91.5t77.5 254.5v132
q-54 -79 -138.5 -123t-196.5 -44q-130 0 -223 66t-143 185.5t-50 280.5v21q0 173 50 301t143.5 198.5t224.5 70.5q116 0 201 -50t138 -140l13 170h101v-1068q0 -139 -50.5 -240t-146.5 -156t-230 -55zM530 82q118 0 195.5 54t117.5 148v495q-38 95 -112 157.5t-199 62.5
q-105 0 -176 -59.5t-107 -164.5t-36 -243v-21q0 -196 79.5 -312.5t237.5 -116.5zM939 979l-39 103h202v-87z" />
    <glyph glyph-name="Gdotaccent" unicode="&#x120;" horiz-adv-x="1384" 
d="M624 1664v173h134v-173h-134zM755 -21q-200 0 -345.5 93.5t-224 260t-78.5 385.5v32q0 216 80.5 379.5t221.5 255.5t320 92q161 0 273.5 -40.5t199.5 -108.5v-271h-103l-10 218q-63 46 -145.5 72t-205.5 26q-145 0 -260.5 -78.5t-183 -218t-67.5 -324.5v-34
q0 -189 62.5 -332.5t180 -223.5t284.5 -80q118 0 208 26t156 62v386l-299 4v97h419v-534q-78 -57 -195 -100.5t-288 -43.5z" />
    <glyph glyph-name="gdotaccent" unicode="&#x121;" horiz-adv-x="1156" 
d="M503 1387v173h134v-173h-134zM536 -437q-79 0 -167 19t-154 51l32 100q64 -31 135.5 -48t151.5 -17q154 0 231.5 91.5t77.5 254.5v132q-54 -79 -138.5 -123t-196.5 -44q-130 0 -223 66t-143 185.5t-50 280.5v21q0 173 50 301t143.5 198.5t224.5 70.5q116 0 201 -50
t138 -140l13 170h101v-1068q0 -139 -50.5 -240t-146.5 -156t-230 -55zM530 82q118 0 195.5 54t117.5 148v495q-38 95 -112 157.5t-199 62.5q-105 0 -176 -59.5t-107 -164.5t-36 -243v-21q0 -196 79.5 -312.5t237.5 -116.5zM939 979l-39 103h202v-87z" />
    <glyph glyph-name="uni0122" unicode="&#x122;" horiz-adv-x="1384" 
d="M667 -534l-60 52q34 46 49.5 90.5t15.5 105.5v76h112v-74q0 -78 -29.5 -139.5t-87.5 -110.5zM755 -21q-200 0 -345.5 93.5t-224 260t-78.5 385.5v32q0 216 80.5 379.5t221.5 255.5t320 92q161 0 273.5 -40.5t199.5 -108.5v-271h-103l-10 218q-63 46 -145.5 72t-205.5 26
q-145 0 -260.5 -78.5t-183 -218t-67.5 -324.5v-34q0 -189 62.5 -332.5t180 -223.5t284.5 -80q118 0 208 26t156 62v386l-299 4v97h419v-534q-78 -57 -195 -100.5t-288 -43.5z" />
    <glyph glyph-name="uni0123" unicode="&#x123;" horiz-adv-x="1156" 
d="M601 1658l59 -51q-33 -47 -49 -91.5t-16 -104.5v-77h-112v74q0 79 29.5 140.5t88.5 109.5zM536 -437q-79 0 -167 19t-154 51l32 100q64 -31 135.5 -48t151.5 -17q154 0 231.5 91.5t77.5 254.5v132q-54 -79 -138.5 -123t-196.5 -44q-130 0 -223 66t-143 185.5t-50 280.5
v21q0 173 50 301t143.5 198.5t224.5 70.5q116 0 201 -50t138 -140l13 170h101v-1068q0 -139 -50.5 -240t-146.5 -156t-230 -55zM530 82q118 0 195.5 54t117.5 148v495q-38 95 -112 157.5t-199 62.5q-105 0 -176 -59.5t-107 -164.5t-36 -243v-21q0 -196 79.5 -312.5
t237.5 -116.5zM939 979l-39 103h202v-87z" />
    <glyph glyph-name="Hcircumflex" unicode="&#x124;" horiz-adv-x="1539" 
d="M492 1596v21l231 220h90l233 -223v-18h-106l-173 168l-169 -168h-106zM76 0v87l163 13v1255l-163 13v88h446v-88l-163 -13v-583h822v583l-163 13v88h163h120h163v-88l-163 -13v-1255l163 -13v-87h-446v87l163 13v571h-822v-571l163 -13v-87h-446z" />
    <glyph glyph-name="hcircumflex" unicode="&#x125;" horiz-adv-x="1295" 
d="M8 1693v21l231 220h90l233 -223v-18h-106l-173 168l-169 -168h-106zM56 0v87l163 13v1359l-163 13v88h283v-667q53 99 142.5 154t210.5 55q171 0 262.5 -105.5t91.5 -329.5v-567l163 -13v-87h-446v87l163 13v569q0 177 -69 253.5t-192 76.5q-132 0 -212.5 -74
t-113.5 -192v-633l163 -13v-87h-446z" />
    <glyph glyph-name="Hbar" unicode="&#x126;" horiz-adv-x="1539" 
d="M81 994v96h1377v-96h-1377zM76 0v87l163 13v1255l-163 13v88h446v-88l-163 -13v-583h822v583l-163 13v88h163h120h163v-88l-163 -13v-1255l163 -13v-87h-446v87l163 13v571h-822v-571l163 -13v-87h-446z" />
    <glyph glyph-name="hbar" unicode="&#x127;" horiz-adv-x="1295" 
d="M56 1210v101h559v-101h-559zM56 0v87l163 13v1359l-163 13v88h283v-667q53 99 142.5 154t210.5 55q171 0 262.5 -105.5t91.5 -329.5v-567l163 -13v-87h-446v87l163 13v569q0 177 -69 253.5t-192 76.5q-132 0 -212.5 -74t-113.5 -192v-633l163 -13v-87h-446z" />
    <glyph glyph-name="Itilde" unicode="&#x128;" horiz-adv-x="597" 
d="M44 1618l-78 10q0 59 25 105.5t67 74t93 27.5q52 0 105 -28.5t101.5 -57t88.5 -28.5q41 0 73.5 33.5t32.5 89.5l78 -13q0 -59 -25 -105.5t-66 -73t-92 -26.5q-53 0 -106 28t-101.5 56.5t-89.5 28.5q-42 0 -74 -32.5t-32 -88.5zM76 0v87l163 13v1255l-163 13v88h446v-88
l-163 -13v-1255l163 -13v-87h-446z" />
    <glyph glyph-name="itilde" unicode="&#x129;" horiz-adv-x="629" 
d="M41 1341l-78 10q0 59 25 105.5t67 74t93 27.5q52 0 105 -28.5t101.5 -57t88.5 -28.5q41 0 73.5 33.5t32.5 89.5l78 -13q0 -59 -25 -105.5t-66 -73t-92 -26.5q-53 0 -106 28t-101.5 56.5t-89.5 28.5q-42 0 -74 -32.5t-32 -88.5zM79 0v87l163 13v881l-163 13v88h283v-982
l163 -13v-87h-446z" />
    <glyph glyph-name="Imacron" unicode="&#x12a;" horiz-adv-x="597" 
d="M-37 1665v96h670v-96h-670zM76 0v87l163 13v1255l-163 13v88h446v-88l-163 -13v-1255l163 -13v-87h-446z" />
    <glyph glyph-name="imacron" unicode="&#x12b;" horiz-adv-x="629" 
d="M-40 1388v96h670v-96h-670zM79 0v87l163 13v881l-163 13v88h283v-982l163 -13v-87h-446z" />
    <glyph glyph-name="Ibreve" unicode="&#x12c;" horiz-adv-x="597" 
d="M299 1574q-137 0 -215 71.5t-77 185.5l2 6h97q0 -78 46.5 -127t146.5 -49q96 0 143.5 49.5t47.5 126.5h98l2 -6q-1 -114 -78.5 -185.5t-212.5 -71.5zM76 0v87l163 13v1255l-163 13v88h446v-88l-163 -13v-1255l163 -13v-87h-446z" />
    <glyph glyph-name="ibreve" unicode="&#x12d;" horiz-adv-x="629" 
d="M296 1297q-137 0 -215 71.5t-77 185.5l2 6h97q0 -78 46.5 -127t146.5 -49q96 0 143.5 49.5t47.5 126.5h98l2 -6q-1 -114 -78.5 -185.5t-212.5 -71.5zM79 0v87l163 13v881l-163 13v88h283v-982l163 -13v-87h-446z" />
    <glyph glyph-name="Iogonek" unicode="&#x12e;" horiz-adv-x="597" 
d="M449 -427q-89 0 -143 50t-54 139q0 72 49 139t160 136l61 -37q-80 -67 -121 -117.5t-41 -109.5q0 -40 22 -73t83 -33q30 0 54 9t49 23l24 -82q-30 -19 -65 -31.5t-78 -12.5zM76 0v87l163 13v1255l-163 13v88h446v-88l-163 -13v-1255l163 -13v-87h-446z" />
    <glyph glyph-name="iogonek" unicode="&#x12f;" horiz-adv-x="629" 
d="M452 -427q-89 0 -143 50t-54 139q0 72 49 139t160 136l61 -37q-80 -67 -121 -117.5t-41 -109.5q0 -40 22 -73t83 -33q30 0 54 9t49 23l24 -82q-30 -19 -65 -31.5t-78 -12.5zM228 1387v173h134v-173h-134zM79 0v87l163 13v881l-163 13v88h283v-982l163 -13v-87h-446z" />
    <glyph glyph-name="Idotaccent" unicode="&#x130;" horiz-adv-x="597" 
d="M230 1664v173h134v-173h-134zM76 0v87l163 13v1255l-163 13v88h446v-88l-163 -13v-1255l163 -13v-87h-446z" />
    <glyph glyph-name="dotlessi" unicode="&#x131;" horiz-adv-x="629" 
d="M79 0v87l163 13v881l-163 13v88h283v-982l163 -13v-87h-446z" />
    <glyph glyph-name="IJ" unicode="&#x132;" horiz-adv-x="1745" 
d="M76 0v87l163 13v1255l-163 13v88h446v-88l-163 -13v-1255l163 -13v-87h-446zM1073 -21q-128 0 -225.5 47.5t-152 142.5t-56.5 235l2 6h112q2 -163 83.5 -246t234.5 -83q94 0 161.5 41.5t104 117.5t36.5 178v937l-189 12v89h472v-88l-163 -13v-937q0 -133 -50.5 -231.5
t-145 -153t-224.5 -54.5z" />
    <glyph glyph-name="ij" unicode="&#x133;" horiz-adv-x="1205" 
d="M228 1387v173h134v-173h-134zM79 0v87l163 13v881l-163 13v88h283v-982l163 -13v-87h-446zM889 1387v173h134v-173h-134zM723 -437q-31 0 -57 5t-55 14l13 97q16 -5 46.5 -10t52.5 -5q86 0 134.5 65t48.5 182v1070l-163 13v88h283v-1171q0 -167 -80 -257.5t-223 -90.5z
" />
    <glyph glyph-name="Jcircumflex" unicode="&#x134;" horiz-adv-x="1152" 
d="M565 1596v21l231 220h90l233 -223v-18h-106l-173 168l-169 -168h-106zM486 -21q-128 0 -225.5 47.5t-152 142.5t-56.5 235l2 6h112q2 -163 83.5 -246t234.5 -83q94 0 161.5 41.5t104 117.5t36.5 178v937l-189 12v89h472v-88l-163 -13v-937q0 -133 -50.5 -231.5t-145 -153
t-224.5 -54.5z" />
    <glyph glyph-name="jcircumflex" unicode="&#x135;" horiz-adv-x="545" 
d="M40 1319v21l231 220h90l233 -223v-18h-106l-173 168l-169 -168h-106zM84 -437q-31 0 -57 5t-55 14l13 97q16 -5 46.5 -10t52.5 -5q86 0 134.5 65t48.5 182v1070l-163 13v88h283v-1171q0 -167 -80 -257.5t-223 -90.5z" />
    <glyph glyph-name="uni0136" unicode="&#x136;" horiz-adv-x="1440" 
d="M673 -534l-60 52q34 46 49.5 90.5t15.5 105.5v76h112v-74q0 -78 -29.5 -139.5t-87.5 -110.5zM342 405l-59 90l772 862l1 5l-141 6v88h410v-88l-125 -11zM76 0v87l163 13v1255l-163 13v88h446v-88l-163 -13v-1255l163 -13v-87h-446zM955 0v87l143 7l1 3l-478 658l78 88
l549 -744l126 -12v-87h-419z" />
    <glyph glyph-name="uni0137" unicode="&#x137;" horiz-adv-x="1215" 
d="M561 -534l-60 52q34 46 49.5 90.5t15.5 105.5v76h112v-74q0 -78 -29.5 -139.5t-87.5 -110.5zM63 0v87l163 13v1359l-163 13v88h283v-1460l163 -13v-87h-446zM760 0v87l119 6l-1 5l-359 485l68 91l436 -576l135 -11v-87h-398zM334 331l-43 100l533 551l1 6l-118 6v88h388
v-88l-130 -12z" />
    <glyph glyph-name="kgreenlandic" unicode="&#x138;" horiz-adv-x="1206" 
d="M334 331l-43 100l536 551l1 6l-117 6v88h387v-88l-129 -12zM63 0v87l163 13v881l-163 13v88h283v-982l163 -13v-87h-446zM939 0l-421 583l69 91l424 -576l118 -11v-87h-190z" />
    <glyph glyph-name="Lacute" unicode="&#x139;" horiz-adv-x="1184" 
d="M216 1587l182 250h140l2 -5l-231 -248h-88zM76 0v87l163 13v1255l-163 13v88h163h120h163v-88l-163 -13v-1256h611l11 235h98v-334h-1003z" />
    <glyph glyph-name="lacute" unicode="&#x13a;" horiz-adv-x="614" 
d="M212 1684l182 250h140l2 -5l-231 -248h-88zM74 0v87l163 13v1359l-163 13v88h283v-1460l163 -13v-87h-446z" />
    <glyph glyph-name="uni013B" unicode="&#x13b;" horiz-adv-x="1184" 
d="M545 -534l-60 52q34 46 49.5 90.5t15.5 105.5v76h112v-74q0 -78 -29.5 -139.5t-87.5 -110.5zM76 0v87l163 13v1255l-163 13v88h163h120h163v-88l-163 -13v-1256h611l11 235h98v-334h-1003z" />
    <glyph glyph-name="uni013C" unicode="&#x13c;" horiz-adv-x="614" 
d="M260 -534l-60 52q34 46 49.5 90.5t15.5 105.5v76h112v-74q0 -78 -29.5 -139.5t-87.5 -110.5zM74 0v87l163 13v1359l-163 13v88h283v-1460l163 -13v-87h-446z" />
    <glyph glyph-name="Lcaron" unicode="&#x13d;" horiz-adv-x="1184" 
d="M966 1132l-60 51q34 47 49.5 91.5t15.5 104.5v77h112v-74q0 -78 -29.5 -140t-87.5 -110zM76 0v87l163 13v1255l-163 13v88h163h120h163v-88l-163 -13v-1256h611l11 235h98v-334h-1003z" />
    <glyph glyph-name="lcaron" unicode="&#x13e;" horiz-adv-x="614" 
d="M511 1236l-60 51q34 47 49.5 91.5t15.5 104.5v77h112v-74q0 -78 -29.5 -140t-87.5 -110zM74 0v87l163 13v1359l-163 13v88h283v-1460l163 -13v-87h-446z" />
    <glyph glyph-name="Ldot" unicode="&#x13f;" horiz-adv-x="1184" 
d="M76 0v87l163 13v1255l-163 13v88h163h120h163v-88l-163 -13v-1256h611l11 235h98v-334h-1003zM836 633v163h137v-163h-137z" />
    <glyph glyph-name="ldot" unicode="&#x140;" horiz-adv-x="614" 
d="M74 0v87l163 13v1359l-163 13v88h283v-1460l163 -13v-87h-446zM503 633v163h137v-163h-137z" />
    <glyph glyph-name="Lslash" unicode="&#x141;" horiz-adv-x="1184" 
d="M74 615v107l590 187v-107zM76 0v87l163 13v1255l-163 13v88h163h120h163v-88l-163 -13v-1256h611l11 235h98v-334h-1003z" />
    <glyph glyph-name="lslash" unicode="&#x142;" horiz-adv-x="614" 
d="M63 635v108l474 187v-108zM74 0v87l163 13v1359l-163 13v88h283v-1460l163 -13v-87h-446z" />
    <glyph glyph-name="Nacute" unicode="&#x143;" horiz-adv-x="1552" 
d="M688 1587l182 250h140l2 -5l-231 -248h-88zM77 0v87l163 13v1255l-163 13v88h163h121l832 -1252l6 2v1149l-170 13v88h283h163v-88l-163 -13v-1355h-112l-841 1257l-6 -2v-1155l170 -13v-87h-446z" />
    <glyph glyph-name="nacute" unicode="&#x144;" horiz-adv-x="1331" 
d="M579 1310l182 250h140l2 -5l-231 -248h-88zM82 0v87l163 13v881l-163 13v88h269l10 -194q52 102 140 158t210 56q176 0 268 -107.5t92 -336.5v-558l163 -13v-87h-446v87l163 13v557q0 188 -69 265t-197 77q-134 0 -212 -75t-108 -196v-628l163 -13v-87h-446z" />
    <glyph glyph-name="uni0145" unicode="&#x145;" horiz-adv-x="1552" 
d="M729 -534l-60 52q34 46 49.5 90.5t15.5 105.5v76h112v-74q0 -78 -29.5 -139.5t-87.5 -110.5zM77 0v87l163 13v1255l-163 13v88h163h121l832 -1252l6 2v1149l-170 13v88h283h163v-88l-163 -13v-1355h-112l-841 1257l-6 -2v-1155l170 -13v-87h-446z" />
    <glyph glyph-name="uni0146" unicode="&#x146;" horiz-adv-x="1331" 
d="M620 -534l-60 52q34 46 49.5 90.5t15.5 105.5v76h112v-74q0 -78 -29.5 -139.5t-87.5 -110.5zM82 0v87l163 13v881l-163 13v88h269l10 -194q52 102 140 158t210 56q176 0 268 -107.5t92 -336.5v-558l163 -13v-87h-446v87l163 13v557q0 188 -69 265t-197 77
q-134 0 -212 -75t-108 -196v-628l163 -13v-87h-446z" />
    <glyph glyph-name="Ncaron" unicode="&#x147;" horiz-adv-x="1552" 
d="M1053 1837v-21l-231 -220h-90l-233 222v19h107l172 -168l170 168h105zM77 0v87l163 13v1255l-163 13v88h163h121l832 -1252l6 2v1149l-170 13v88h283h163v-88l-163 -13v-1355h-112l-841 1257l-6 -2v-1155l170 -13v-87h-446z" />
    <glyph glyph-name="ncaron" unicode="&#x148;" horiz-adv-x="1331" 
d="M944 1560v-21l-231 -220h-90l-233 222v19h107l172 -168l170 168h105zM82 0v87l163 13v881l-163 13v88h269l10 -194q52 102 140 158t210 56q176 0 268 -107.5t92 -336.5v-558l163 -13v-87h-446v87l163 13v557q0 188 -69 265t-197 77q-134 0 -212 -75t-108 -196v-628
l163 -13v-87h-446z" />
    <glyph glyph-name="napostrophe" unicode="&#x149;" horiz-adv-x="1331" 
d="M123 1236l-60 52q34 46 49.5 90.5t15.5 105.5v76h112v-74q0 -78 -29.5 -139.5t-87.5 -110.5zM82 0v87l163 13v881l-163 13v88h269l10 -194q52 102 140 158t210 56q176 0 268 -107.5t92 -336.5v-558l163 -13v-87h-446v87l163 13v557q0 188 -69 265t-197 77
q-134 0 -212 -75t-108 -196v-628l163 -13v-87h-446z" />
    <glyph glyph-name="Eng" unicode="&#x14a;" horiz-adv-x="1547" 
d="M1002 -437q-30 0 -56 5t-56 14l14 97q15 -6 45.5 -10.5t52.5 -4.5q88 0 136 65t48 182v89l-827 1243l-6 -2v-1141l163 -13v-87h-446v87l163 13v1255l-163 13v88h283l827 -1243l6 2v1140l-163 13v88h446v-88l-163 -13v-1444q0 -167 -80.5 -257.5t-223.5 -90.5z" />
    <glyph glyph-name="eng" unicode="&#x14b;" horiz-adv-x="1243" 
d="M773 -437q-34 0 -63 5t-61 14l13 102q18 -6 52 -11t59 -5q87 0 135.5 63.5t48.5 179.5v746q0 188 -69.5 265t-198.5 77q-133 0 -209.5 -70.5t-106.5 -184.5v-644l163 -13v-87h-446v87l163 13v881l-163 13v88h270l9 -189q52 99 139.5 154t208.5 55q175 0 267.5 -107.5
t92.5 -336.5v-747q0 -167 -80.5 -257.5t-223.5 -90.5z" />
    <glyph glyph-name="Omacron" unicode="&#x14c;" horiz-adv-x="1425" 
d="M374 1665v96h670v-96h-670zM710 -21q-138 0 -250 53t-192 151t-123 233.5t-43 301.5v19q0 166 42.5 301.5t122.5 234t192 151.5t250 53q141 0 253.5 -53t192 -151.5t121 -234t41.5 -301.5v-19q0 -166 -41.5 -301.5t-120.5 -233.5t-191.5 -151t-253.5 -53zM710 84
q158 0 266.5 79t164.5 222t56 333v21q0 190 -56.5 332t-165.5 221.5t-266 79.5q-151 0 -260 -79.5t-167.5 -222t-58.5 -331.5v-21q0 -190 58.5 -333t168 -222t260.5 -79z" />
    <glyph glyph-name="omacron" unicode="&#x14d;" horiz-adv-x="1141" 
d="M235 1388v96h670v-96h-670zM572 -21q-146 0 -253.5 69.5t-167 193t-59.5 282.5v33q0 159 59.5 282t167 193t251.5 70q145 0 252.5 -70t167 -192.5t59.5 -282.5v-33q0 -160 -59.5 -283t-167 -192.5t-250.5 -69.5zM572 79q111 0 191 59t123 160t43 226v33q0 124 -43 225
t-123.5 160t-192.5 59t-192.5 -59t-123 -160t-42.5 -225v-33q0 -126 42.5 -226.5t123 -159.5t194.5 -59z" />
    <glyph glyph-name="Obreve" unicode="&#x14e;" horiz-adv-x="1425" 
d="M710 1574q-137 0 -215 71.5t-77 185.5l2 6h97q0 -78 46.5 -127t146.5 -49q96 0 143.5 49.5t47.5 126.5h98l2 -6q-1 -114 -78.5 -185.5t-212.5 -71.5zM710 -21q-138 0 -250 53t-192 151t-123 233.5t-43 301.5v19q0 166 42.5 301.5t122.5 234t192 151.5t250 53
q141 0 253.5 -53t192 -151.5t121 -234t41.5 -301.5v-19q0 -166 -41.5 -301.5t-120.5 -233.5t-191.5 -151t-253.5 -53zM710 84q158 0 266.5 79t164.5 222t56 333v21q0 190 -56.5 332t-165.5 221.5t-266 79.5q-151 0 -260 -79.5t-167.5 -222t-58.5 -331.5v-21
q0 -190 58.5 -333t168 -222t260.5 -79z" />
    <glyph glyph-name="obreve" unicode="&#x14f;" horiz-adv-x="1141" 
d="M572 1297q-137 0 -215 71.5t-77 185.5l2 6h97q0 -78 46.5 -127t146.5 -49q96 0 143.5 49.5t47.5 126.5h98l2 -6q-1 -114 -78.5 -185.5t-212.5 -71.5zM572 -21q-146 0 -253.5 69.5t-167 193t-59.5 282.5v33q0 159 59.5 282t167 193t251.5 70q145 0 252.5 -70t167 -192.5
t59.5 -282.5v-33q0 -160 -59.5 -283t-167 -192.5t-250.5 -69.5zM572 79q111 0 191 59t123 160t43 226v33q0 124 -43 225t-123.5 160t-192.5 59t-192.5 -59t-123 -160t-42.5 -225v-33q0 -126 42.5 -226.5t123 -159.5t194.5 -59z" />
    <glyph glyph-name="Ohungarumlaut" unicode="&#x150;" horiz-adv-x="1425" 
d="M724 1584l-2 6l226 247h142l2 -6l-262 -247h-106zM475 1586l-4 3l181 248h132l3 -6l-217 -245h-95zM710 -21q-138 0 -250 53t-192 151t-123 233.5t-43 301.5v19q0 166 42.5 301.5t122.5 234t192 151.5t250 53q141 0 253.5 -53t192 -151.5t121 -234t41.5 -301.5v-19
q0 -166 -41.5 -301.5t-120.5 -233.5t-191.5 -151t-253.5 -53zM710 84q158 0 266.5 79t164.5 222t56 333v21q0 190 -56.5 332t-165.5 221.5t-266 79.5q-151 0 -260 -79.5t-167.5 -222t-58.5 -331.5v-21q0 -190 58.5 -333t168 -222t260.5 -79z" />
    <glyph glyph-name="ohungarumlaut" unicode="&#x151;" horiz-adv-x="1141" 
d="M585 1307l-2 6l226 247h142l2 -6l-262 -247h-106zM336 1309l-4 3l181 248h132l3 -6l-217 -245h-95zM572 -21q-146 0 -253.5 69.5t-167 193t-59.5 282.5v33q0 159 59.5 282t167 193t251.5 70q145 0 252.5 -70t167 -192.5t59.5 -282.5v-33q0 -160 -59.5 -283t-167 -192.5
t-250.5 -69.5zM572 79q111 0 191 59t123 160t43 226v33q0 124 -43 225t-123.5 160t-192.5 59t-192.5 -59t-123 -160t-42.5 -225v-33q0 -126 42.5 -226.5t123 -159.5t194.5 -59z" />
    <glyph glyph-name="OE" unicode="&#x152;" horiz-adv-x="2009" 
d="M753 -21q-153 0 -273.5 53t-204.5 151t-128.5 233.5t-44.5 301.5v19q0 166 44 301.5t128 234t204.5 151.5t273.5 53q69 0 149.5 -11.5t160.5 -32.5l-11 -124q-70 30 -148 46.5t-151 16.5q-170 0 -288.5 -79.5t-179.5 -222t-61 -331.5v-21q0 -190 61.5 -333t180 -222
t288.5 -79q73 0 150.5 15.5t147.5 45.5l11 -123q-80 -20 -160 -31.5t-149 -11.5zM891 0l61 95v1266l-61 95h979v-319h-107l-8 218h-683v-549h596v-100h-596v-606h689l7 219h107v-319h-984z" />
    <glyph glyph-name="oe" unicode="&#x153;" horiz-adv-x="1925" 
d="M571 -21q-145 0 -252.5 69.5t-167 193t-59.5 282.5v33q0 159 59.5 282t166.5 193t251 70q149 0 259.5 -77t165.5 -211q54 132 161 210t238 78q133 0 229 -57t147 -160.5t51 -243.5v-102h-760l-2 -44q1 -118 45.5 -212t123 -149t181.5 -55q75 0 134.5 14t106.5 41t85 66
l51 -82q-62 -65 -154.5 -102t-222.5 -37q-92 0 -173.5 35t-143.5 98.5t-99 149.5q-55 -132 -164.5 -207.5t-256.5 -75.5zM571 79q112 0 192 59t123 160t43 226v33q0 124 -43.5 225t-124 160t-192.5 59t-192 -59t-122.5 -160t-42.5 -225v-33q0 -126 42.5 -226.5t123 -159.5
t193.5 -59zM1068 639h632v30q0 95 -37 170.5t-106 118.5t-164 43q-88 0 -158.5 -46.5t-114.5 -127t-54 -182.5z" />
    <glyph glyph-name="Racute" unicode="&#x154;" horiz-adv-x="1374" 
d="M599 1587l182 250h140l2 -5l-231 -248h-88zM76 -1v88l163 13v1255l-163 13v87h614q156 0 264 -46t164.5 -134t56.5 -217q0 -125 -58.5 -211t-164 -130.5t-247.5 -45.5l-346 -3v-568l163 -13v-88h-446zM1055 -1l-313 723l120 1l278 -627l119 -8v-89h-204zM359 768h319
q195 0 286 80t91 211q0 141 -91 218.5t-274 77.5h-331v-587z" />
    <glyph glyph-name="racute" unicode="&#x155;" horiz-adv-x="837" 
d="M342 1310l182 250h140l2 -5l-231 -248h-88zM81 0v87l163 13v881l-163 13v88h268l13 -165l1 -29q46 101 125 157.5t189 56.5q27 0 57.5 -4.5t44.5 -9.5l-15 -110l-111 7q-115 3 -188 -66t-101 -183v-636l163 -13v-87h-446z" />
    <glyph glyph-name="uni0156" unicode="&#x156;" horiz-adv-x="1374" 
d="M640 -534l-60 52q34 46 49.5 90.5t15.5 105.5v76h112v-74q0 -78 -29.5 -139.5t-87.5 -110.5zM76 -1v88l163 13v1255l-163 13v87h614q156 0 264 -46t164.5 -134t56.5 -217q0 -125 -58.5 -211t-164 -130.5t-247.5 -45.5l-346 -3v-568l163 -13v-88h-446zM1055 -1l-313 723
l120 1l278 -627l119 -8v-89h-204zM359 768h319q195 0 286 80t91 211q0 141 -91 218.5t-274 77.5h-331v-587z" />
    <glyph glyph-name="uni0157" unicode="&#x157;" horiz-adv-x="837" 
d="M260 -534l-60 52q34 46 49.5 90.5t15.5 105.5v76h112v-74q0 -78 -29.5 -139.5t-87.5 -110.5zM81 0v87l163 13v881l-163 13v88h268l13 -165l1 -29q46 101 125 157.5t189 56.5q27 0 57.5 -4.5t44.5 -9.5l-15 -110l-111 7q-115 3 -188 -66t-101 -183v-636l163 -13v-87h-446z
" />
    <glyph glyph-name="Rcaron" unicode="&#x158;" horiz-adv-x="1374" 
d="M964 1837v-21l-231 -220h-90l-233 222v19h107l172 -168l170 168h105zM76 -1v88l163 13v1255l-163 13v87h614q156 0 264 -46t164.5 -134t56.5 -217q0 -125 -58.5 -211t-164 -130.5t-247.5 -45.5l-346 -3v-568l163 -13v-88h-446zM1055 -1l-313 723l120 1l278 -627l119 -8
v-89h-204zM359 768h319q195 0 286 80t91 211q0 141 -91 218.5t-274 77.5h-331v-587z" />
    <glyph glyph-name="rcaron" unicode="&#x159;" horiz-adv-x="837" 
d="M707 1560v-21l-231 -220h-90l-233 222v19h107l172 -168l170 168h105zM81 0v87l163 13v881l-163 13v88h268l13 -165l1 -29q46 101 125 157.5t189 56.5q27 0 57.5 -4.5t44.5 -9.5l-15 -110l-111 7q-115 3 -188 -66t-101 -183v-636l163 -13v-87h-446z" />
    <glyph glyph-name="Sacute" unicode="&#x15a;" horiz-adv-x="1194" 
d="M509 1587l182 250h140l2 -5l-231 -248h-88zM597 -21q-125 0 -249.5 38t-240.5 118v282h100l15 -227q88 -55 183 -82t192 -27q115 0 200.5 35.5t133 99t47.5 146.5q0 80 -38.5 140.5t-125 106.5t-234.5 84q-159 41 -259.5 96t-148 132.5t-47.5 184.5q0 109 58 192.5
t162.5 131t243.5 47.5q147 0 262.5 -44t195.5 -113v-260h-99l-15 206q-63 51 -149 80t-195 29q-107 0 -184 -35.5t-118.5 -95.5t-41.5 -136q0 -73 33 -128.5t114 -98t227 -81.5q237 -61 358 -164.5t121 -271.5q0 -116 -63.5 -202.5t-176.5 -134.5t-261 -48z" />
    <glyph glyph-name="sacute" unicode="&#x15b;" horiz-adv-x="1015" 
d="M420 1310l182 250h140l2 -5l-231 -248h-88zM499 -21q-114 0 -211.5 30.5t-183.5 88.5l-1 222h98l17 -159q58 -45 129 -65t152 -20q136 0 207 59t71 140q0 76 -63.5 134.5t-225.5 94.5q-194 42 -280.5 112t-86.5 195q0 82 46 148t130.5 104.5t198.5 38.5q119 0 207 -34.5
t151 -92.5l5 -222h-98l-14 160q-45 43 -105 66.5t-146 23.5q-122 0 -188 -56.5t-66 -131.5q0 -49 20.5 -85.5t79 -65.5t170.5 -55q203 -46 294 -124.5t91 -203.5q0 -132 -102.5 -217t-295.5 -85z" />
    <glyph glyph-name="Scircumflex" unicode="&#x15c;" horiz-adv-x="1194" 
d="M320 1596v21l231 220h90l233 -223v-18h-106l-173 168l-169 -168h-106zM597 -21q-125 0 -249.5 38t-240.5 118v282h100l15 -227q88 -55 183 -82t192 -27q115 0 200.5 35.5t133 99t47.5 146.5q0 80 -38.5 140.5t-125 106.5t-234.5 84q-159 41 -259.5 96t-148 132.5
t-47.5 184.5q0 109 58 192.5t162.5 131t243.5 47.5q147 0 262.5 -44t195.5 -113v-260h-99l-15 206q-63 51 -149 80t-195 29q-107 0 -184 -35.5t-118.5 -95.5t-41.5 -136q0 -73 33 -128.5t114 -98t227 -81.5q237 -61 358 -164.5t121 -271.5q0 -116 -63.5 -202.5
t-176.5 -134.5t-261 -48z" />
    <glyph glyph-name="scircumflex" unicode="&#x15d;" horiz-adv-x="1015" 
d="M230 1319v21l231 220h90l233 -223v-18h-106l-173 168l-169 -168h-106zM499 -21q-114 0 -211.5 30.5t-183.5 88.5l-1 222h98l17 -159q58 -45 129 -65t152 -20q136 0 207 59t71 140q0 76 -63.5 134.5t-225.5 94.5q-194 42 -280.5 112t-86.5 195q0 82 46 148t130.5 104.5
t198.5 38.5q119 0 207 -34.5t151 -92.5l5 -222h-98l-14 160q-45 43 -105 66.5t-146 23.5q-122 0 -188 -56.5t-66 -131.5q0 -49 20.5 -85.5t79 -65.5t170.5 -55q203 -46 294 -124.5t91 -203.5q0 -132 -102.5 -217t-295.5 -85z" />
    <glyph glyph-name="Scedilla" unicode="&#x15e;" horiz-adv-x="1194" 
d="M489 -435l-7 77q90 0 151 30.5t61 88.5q0 57 -41 78.5t-145 30.5l32 145h93l-15 -83q80 -9 128 -48t48 -121q0 -90 -79 -144t-226 -54zM597 -21q-125 0 -249.5 38t-240.5 118v282h100l15 -227q88 -55 183 -82t192 -27q115 0 200.5 35.5t133 99t47.5 146.5
q0 80 -38.5 140.5t-125 106.5t-234.5 84q-159 41 -259.5 96t-148 132.5t-47.5 184.5q0 109 58 192.5t162.5 131t243.5 47.5q147 0 262.5 -44t195.5 -113v-260h-99l-15 206q-63 51 -149 80t-195 29q-107 0 -184 -35.5t-118.5 -95.5t-41.5 -136q0 -73 33 -128.5t114 -98
t227 -81.5q237 -61 358 -164.5t121 -271.5q0 -116 -63.5 -202.5t-176.5 -134.5t-261 -48z" />
    <glyph glyph-name="scedilla" unicode="&#x15f;" horiz-adv-x="1015" 
d="M399 -435l-7 77q90 0 151 30.5t61 88.5q0 57 -41 78.5t-145 30.5l32 145h93l-15 -83q80 -9 128 -48t48 -121q0 -90 -79 -144t-226 -54zM499 -21q-114 0 -211.5 30.5t-183.5 88.5l-1 222h98l17 -159q58 -45 129 -65t152 -20q136 0 207 59t71 140q0 76 -63.5 134.5
t-225.5 94.5q-194 42 -280.5 112t-86.5 195q0 82 46 148t130.5 104.5t198.5 38.5q119 0 207 -34.5t151 -92.5l5 -222h-98l-14 160q-45 43 -105 66.5t-146 23.5q-122 0 -188 -56.5t-66 -131.5q0 -49 20.5 -85.5t79 -65.5t170.5 -55q203 -46 294 -124.5t91 -203.5
q0 -132 -102.5 -217t-295.5 -85z" />
    <glyph glyph-name="Scaron" unicode="&#x160;" horiz-adv-x="1194" 
d="M874 1837v-21l-231 -220h-90l-233 222v19h107l172 -168l170 168h105zM597 -21q-125 0 -249.5 38t-240.5 118v282h100l15 -227q88 -55 183 -82t192 -27q115 0 200.5 35.5t133 99t47.5 146.5q0 80 -38.5 140.5t-125 106.5t-234.5 84q-159 41 -259.5 96t-148 132.5
t-47.5 184.5q0 109 58 192.5t162.5 131t243.5 47.5q147 0 262.5 -44t195.5 -113v-260h-99l-15 206q-63 51 -149 80t-195 29q-107 0 -184 -35.5t-118.5 -95.5t-41.5 -136q0 -73 33 -128.5t114 -98t227 -81.5q237 -61 358 -164.5t121 -271.5q0 -116 -63.5 -202.5
t-176.5 -134.5t-261 -48z" />
    <glyph glyph-name="scaron" unicode="&#x161;" horiz-adv-x="1015" 
d="M784 1560v-21l-231 -220h-90l-233 222v19h107l172 -168l170 168h105zM499 -21q-114 0 -211.5 30.5t-183.5 88.5l-1 222h98l17 -159q58 -45 129 -65t152 -20q136 0 207 59t71 140q0 76 -63.5 134.5t-225.5 94.5q-194 42 -280.5 112t-86.5 195q0 82 46 148t130.5 104.5
t198.5 38.5q119 0 207 -34.5t151 -92.5l5 -222h-98l-14 160q-45 43 -105 66.5t-146 23.5q-122 0 -188 -56.5t-66 -131.5q0 -49 20.5 -85.5t79 -65.5t170.5 -55q203 -46 294 -124.5t91 -203.5q0 -132 -102.5 -217t-295.5 -85z" />
    <glyph glyph-name="uni0162" unicode="&#x162;" horiz-adv-x="1337" 
d="M561 -435l-7 77q90 0 151 30.5t61 88.5q0 57 -41 78.5t-145 30.5l32 145h93l-15 -83q80 -9 128 -48t48 -121q0 -90 -79 -144t-226 -54zM444 0v87l163 13v1258h-409l-13 -222h-98v320h1159v-320h-97l-14 222h-408v-1258l163 -13v-87h-446z" />
    <glyph glyph-name="uni0163" unicode="&#x163;" horiz-adv-x="724" 
d="M332 -435l-7 77q90 0 151 30.5t61 88.5q0 57 -41 78.5t-145 30.5l32 145h93l-15 -83q80 -9 128 -48t48 -121q0 -90 -79 -144t-226 -54zM473 -19q-114 0 -177 70.5t-63 227.5v706h-187v97h187v278h120v-278h252v-97h-252v-706q0 -108 38.5 -155.5t102.5 -47.5q34 0 67 4.5
t68 9.5l18 -86q-36 -11 -82 -17t-92 -6z" />
    <glyph glyph-name="Tcaron" unicode="&#x164;" horiz-adv-x="1337" 
d="M945 1837v-21l-231 -220h-90l-233 222v19h107l172 -168l170 168h105zM444 0v87l163 13v1258h-409l-13 -222h-98v320h1159v-320h-97l-14 222h-408v-1258l163 -13v-87h-446z" />
    <glyph glyph-name="tcaron" unicode="&#x165;" horiz-adv-x="724" 
d="M562 1236l-60 51q34 47 49.5 91.5t15.5 104.5v77h112v-74q0 -78 -29.5 -140t-87.5 -110zM473 -19q-114 0 -177 70.5t-63 227.5v706h-187v97h187v278h120v-278h252v-97h-252v-706q0 -108 38.5 -155.5t102.5 -47.5q34 0 67 4.5t68 9.5l18 -86q-36 -11 -82 -17t-92 -6z" />
    <glyph glyph-name="Tbar" unicode="&#x166;" horiz-adv-x="1337" 
d="M389 681v101h559v-101h-559zM444 0v87l163 13v1258h-409l-13 -222h-98v320h1159v-320h-97l-14 222h-408v-1258l163 -13v-87h-446z" />
    <glyph glyph-name="tbar" unicode="&#x167;" horiz-adv-x="724" 
d="M45 614v101h559v-101h-559zM473 -19q-114 0 -177 70.5t-63 227.5v706h-187v97h187v278h120v-278h252v-97h-252v-706q0 -108 38.5 -155.5t102.5 -47.5q34 0 67 4.5t68 9.5l18 -86q-36 -11 -82 -17t-92 -6z" />
    <glyph glyph-name="Utilde" unicode="&#x168;" horiz-adv-x="1478" 
d="M485 1618l-78 10q0 59 25 105.5t67 74t93 27.5q52 0 105 -28.5t101.5 -57t88.5 -28.5q41 0 73.5 33.5t32.5 89.5l78 -13q0 -59 -25 -105.5t-66 -73t-92 -26.5q-53 0 -106 28t-101.5 56.5t-89.5 28.5q-42 0 -74 -32.5t-32 -88.5zM737 -21q-150 0 -264.5 57.5t-179.5 167
t-65 265.5v886l-163 13v88h446v-88l-163 -13v-886q0 -124 49.5 -210.5t137.5 -132t203 -45.5t204 45t139 131.5t50 211.5v886l-163 13v88h446v-88l-163 -13v-886q0 -159 -64.5 -268t-180.5 -165.5t-269 -56.5z" />
    <glyph glyph-name="utilde" unicode="&#x169;" horiz-adv-x="1222" 
d="M349 1341l-78 10q0 59 25 105.5t67 74t93 27.5q52 0 105 -28.5t101.5 -57t88.5 -28.5q41 0 73.5 33.5t32.5 89.5l78 -13q0 -59 -25 -105.5t-66 -73t-92 -26.5q-53 0 -106 28t-101.5 56.5t-89.5 28.5q-42 0 -74 -32.5t-32 -88.5zM541 -21q-170 0 -264.5 116t-94.5 360v526
l-134 13v88h134h120v-629q0 -198 65 -284.5t188 -86.5q139 0 217 64.5t107 173.5v661l-154 13v88h154h121v-982l145 -13v-87h-251l-10 178q-51 -95 -136.5 -147t-206.5 -52z" />
    <glyph glyph-name="Umacron" unicode="&#x16a;" horiz-adv-x="1478" 
d="M404 1665v96h670v-96h-670zM737 -21q-150 0 -264.5 57.5t-179.5 167t-65 265.5v886l-163 13v88h446v-88l-163 -13v-886q0 -124 49.5 -210.5t137.5 -132t203 -45.5t204 45t139 131.5t50 211.5v886l-163 13v88h446v-88l-163 -13v-886q0 -159 -64.5 -268t-180.5 -165.5
t-269 -56.5z" />
    <glyph glyph-name="umacron" unicode="&#x16b;" horiz-adv-x="1222" 
d="M268 1388v96h670v-96h-670zM541 -21q-170 0 -264.5 116t-94.5 360v526l-134 13v88h134h120v-629q0 -198 65 -284.5t188 -86.5q139 0 217 64.5t107 173.5v661l-154 13v88h154h121v-982l145 -13v-87h-251l-10 178q-51 -95 -136.5 -147t-206.5 -52z" />
    <glyph glyph-name="Ubreve" unicode="&#x16c;" horiz-adv-x="1478" 
d="M740 1574q-137 0 -215 71.5t-77 185.5l2 6h97q0 -78 46.5 -127t146.5 -49q96 0 143.5 49.5t47.5 126.5h98l2 -6q-1 -114 -78.5 -185.5t-212.5 -71.5zM737 -21q-150 0 -264.5 57.5t-179.5 167t-65 265.5v886l-163 13v88h446v-88l-163 -13v-886q0 -124 49.5 -210.5
t137.5 -132t203 -45.5t204 45t139 131.5t50 211.5v886l-163 13v88h446v-88l-163 -13v-886q0 -159 -64.5 -268t-180.5 -165.5t-269 -56.5z" />
    <glyph glyph-name="ubreve" unicode="&#x16d;" horiz-adv-x="1222" 
d="M604 1297q-137 0 -215 71.5t-77 185.5l2 6h97q0 -78 46.5 -127t146.5 -49q96 0 143.5 49.5t47.5 126.5h98l2 -6q-1 -114 -78.5 -185.5t-212.5 -71.5zM541 -21q-170 0 -264.5 116t-94.5 360v526l-134 13v88h134h120v-629q0 -198 65 -284.5t188 -86.5q139 0 217 64.5
t107 173.5v661l-154 13v88h154h121v-982l145 -13v-87h-251l-10 178q-51 -95 -136.5 -147t-206.5 -52z" />
    <glyph glyph-name="Uring" unicode="&#x16e;" horiz-adv-x="1478" 
d="M740 1495q-79 0 -133.5 51t-54.5 130t54.5 132t133.5 53q78 0 132.5 -53t54.5 -132t-54.5 -130t-132.5 -51zM740 1566q47 0 78.5 30.5t31.5 79.5t-31.5 81.5t-78.5 32.5q-48 0 -79.5 -32.5t-31.5 -81.5q0 -48 32 -79t79 -31zM737 -21q-150 0 -264.5 57.5t-179.5 167
t-65 265.5v886l-163 13v88h446v-88l-163 -13v-886q0 -124 49.5 -210.5t137.5 -132t203 -45.5t204 45t139 131.5t50 211.5v886l-163 13v88h446v-88l-163 -13v-886q0 -159 -64.5 -268t-180.5 -165.5t-269 -56.5z" />
    <glyph glyph-name="uring" unicode="&#x16f;" horiz-adv-x="1222" 
d="M604 1218q-79 0 -133.5 51t-54.5 130t54.5 132t133.5 53q78 0 132.5 -53t54.5 -132t-54.5 -130t-132.5 -51zM604 1289q47 0 78.5 30.5t31.5 79.5t-31.5 81.5t-78.5 32.5q-48 0 -79.5 -32.5t-31.5 -81.5q0 -48 32 -79t79 -31zM541 -21q-170 0 -264.5 116t-94.5 360v526
l-134 13v88h134h120v-629q0 -198 65 -284.5t188 -86.5q139 0 217 64.5t107 173.5v661l-154 13v88h154h121v-982l145 -13v-87h-251l-10 178q-51 -95 -136.5 -147t-206.5 -52z" />
    <glyph glyph-name="Uhungarumlaut" unicode="&#x170;" horiz-adv-x="1478" 
d="M754 1584l-2 6l226 247h142l2 -6l-262 -247h-106zM505 1586l-4 3l181 248h132l3 -6l-217 -245h-95zM737 -21q-150 0 -264.5 57.5t-179.5 167t-65 265.5v886l-163 13v88h446v-88l-163 -13v-886q0 -124 49.5 -210.5t137.5 -132t203 -45.5t204 45t139 131.5t50 211.5v886
l-163 13v88h446v-88l-163 -13v-886q0 -159 -64.5 -268t-180.5 -165.5t-269 -56.5z" />
    <glyph glyph-name="uhungarumlaut" unicode="&#x171;" horiz-adv-x="1222" 
d="M618 1307l-2 6l226 247h142l2 -6l-262 -247h-106zM369 1309l-4 3l181 248h132l3 -6l-217 -245h-95zM541 -21q-170 0 -264.5 116t-94.5 360v526l-134 13v88h134h120v-629q0 -198 65 -284.5t188 -86.5q139 0 217 64.5t107 173.5v661l-154 13v88h154h121v-982l145 -13v-87
h-251l-10 178q-51 -95 -136.5 -147t-206.5 -52z" />
    <glyph glyph-name="Uogonek" unicode="&#x172;" horiz-adv-x="1478" 
d="M785 -427q-89 0 -143 50t-54 139q0 72 49 139t160 136l61 -37q-80 -67 -121 -117.5t-41 -109.5q0 -40 22 -73t83 -33q30 0 54 9t49 23l24 -82q-30 -19 -65 -31.5t-78 -12.5zM737 -21q-150 0 -264.5 57.5t-179.5 167t-65 265.5v886l-163 13v88h446v-88l-163 -13v-886
q0 -124 49.5 -210.5t137.5 -132t203 -45.5t204 45t139 131.5t50 211.5v886l-163 13v88h446v-88l-163 -13v-886q0 -159 -64.5 -268t-180.5 -165.5t-269 -56.5z" />
    <glyph glyph-name="uogonek" unicode="&#x173;" horiz-adv-x="1222" 
d="M1072 -427q-89 0 -143 50t-54 139q0 72 49 139t160 136l61 -37q-80 -67 -121 -117.5t-41 -109.5q0 -40 22 -73t83 -33q30 0 54 9t49 23l24 -82q-30 -19 -65 -31.5t-78 -12.5zM541 -21q-170 0 -264.5 116t-94.5 360v526l-134 13v88h134h120v-629q0 -198 65 -284.5
t188 -86.5q139 0 217 64.5t107 173.5v661l-154 13v88h154h121v-982l145 -13v-87h-251l-10 178q-51 -95 -136.5 -147t-206.5 -52z" />
    <glyph glyph-name="Wcircumflex" unicode="&#x174;" horiz-adv-x="2060" 
d="M760 1596v21l231 220h90l233 -223v-18h-106l-173 168l-169 -168h-106zM525 0l-350 1361l-111 7v88h390v-88l-156 -10l233 -947l54 -210h6l61 209l331 1046h112l332 -1046l59 -214h6l59 214l230 948l-161 10v88h386v-88l-107 -7l-343 -1361h-119l-351 1119l-45 146h-6
l-43 -146l-353 -1119h-114z" />
    <glyph glyph-name="wcircumflex" unicode="&#x175;" horiz-adv-x="1804" 
d="M625 1319v21l231 220h90l233 -223v-18h-106l-173 168l-169 -168h-106zM476 0l-302 988l-122 6v88h385v-88l-141 -10l186 -634l50 -178h6l58 178l247 732h106l246 -731l62 -190l6 1l58 189l186 634l-142 9v88h381v-88l-122 -8l-301 -986h-116l-253 738l-55 178l-6 -1
l-54 -177l-255 -738h-108z" />
    <glyph glyph-name="Ycircumflex" unicode="&#x176;" horiz-adv-x="1444" 
d="M445 1596v21l231 220h90l233 -223v-18h-106l-173 168l-169 -168h-106zM500 0v87l163 13v442l-484 818l-119 8v88h407v-88l-153 -8l385 -671l23 -45l1 2l24 43l392 671l-155 8v88h402v-88l-123 -8l-480 -811v-449l163 -13v-87h-446z" />
    <glyph glyph-name="ycircumflex" unicode="&#x177;" horiz-adv-x="1188" 
d="M317 1319v21l231 220h90l233 -223v-18h-106l-173 168l-169 -168h-106zM295 -437q-21 0 -50.5 4.5t-44.5 8.5l14 99q14 -2 39.5 -4.5t37.5 -2.5q78 0 124 51.5t84 146.5l56 147l-397 974l-117 7v88h381v-88l-137 -9l278 -698l45 -123h6l309 821l-141 9v88h378v-88l-115 -7
l-444 -1161q-30 -76 -68 -136t-95 -93.5t-143 -33.5z" />
    <glyph glyph-name="Ydieresis" unicode="&#x178;" horiz-adv-x="1444" 
d="M839 1665v172h134v-172h-134zM471 1665v172h135v-172h-135zM500 0v87l163 13v442l-484 818l-119 8v88h407v-88l-153 -8l385 -671l23 -45l1 2l24 43l392 671l-155 8v88h402v-88l-123 -8l-480 -811v-449l163 -13v-87h-446z" />
    <glyph glyph-name="Zacute" unicode="&#x179;" horiz-adv-x="1209" 
d="M510 1587l182 250h140l2 -5l-231 -248h-88zM91 0v92l850 1264h-711l-8 -216h-102v316h966v-87l-852 -1269h774l9 224h101v-324h-1027z" />
    <glyph glyph-name="zacute" unicode="&#x17a;" horiz-adv-x="1056" 
d="M440 1310l182 250h140l2 -5l-231 -248h-88zM105 0v87l655 895h-539l-12 -212h-97v312h800v-88l-658 -896h599l12 213h97v-311h-857z" />
    <glyph glyph-name="Zdotaccent" unicode="&#x17b;" horiz-adv-x="1209" 
d="M531 1664v173h134v-173h-134zM91 0v92l850 1264h-711l-8 -216h-102v316h966v-87l-852 -1269h774l9 224h101v-324h-1027z" />
    <glyph glyph-name="zdotaccent" unicode="&#x17c;" horiz-adv-x="1056" 
d="M460 1387v173h134v-173h-134zM105 0v87l655 895h-539l-12 -212h-97v312h800v-88l-658 -896h599l12 213h97v-311h-857z" />
    <glyph glyph-name="Zcaron" unicode="&#x17d;" horiz-adv-x="1209" 
d="M875 1837v-21l-231 -220h-90l-233 222v19h107l172 -168l170 168h105zM91 0v92l850 1264h-711l-8 -216h-102v316h966v-87l-852 -1269h774l9 224h101v-324h-1027z" />
    <glyph glyph-name="zcaron" unicode="&#x17e;" horiz-adv-x="1056" 
d="M805 1560v-21l-231 -220h-90l-233 222v19h107l172 -168l170 168h105zM105 0v87l655 895h-539l-12 -212h-97v312h800v-88l-658 -896h599l12 213h97v-311h-857z" />
    <glyph glyph-name="longs" unicode="&#x17f;" horiz-adv-x="715" 
d="M57 0v87l163 13v1141q0 163 81.5 251.5t228.5 88.5q34 0 67.5 -4.5t68.5 -14.5l-16 -95q-25 7 -49 10t-56 3q-98 0 -151.5 -63t-53.5 -176v-1141l163 -13v-87h-446z" />
    <glyph glyph-name="uni0180" unicode="&#x180;" horiz-adv-x="615" 
d="M339 545q106 0 163.5 -73t57.5 -204q0 -133 -58.5 -205.5t-162.5 -72.5q-54 0 -96.5 19.5t-69.5 58.5h-7q-15 -59 -18 -68h-63v605h-76v66h76v89h88v-89h213v-66h-213v-30q0 -55 -5 -110h5q54 80 166 80zM324 472q-81 0 -116 -46t-35 -155v-4q0 -110 36 -157t117 -47
q72 0 107.5 53t35.5 153q0 102 -35.5 152.5t-109.5 50.5z" />
    <glyph glyph-name="uni0181" unicode="&#x181;" horiz-adv-x="729" 
d="M151 637q-61 0 -61 -50q0 -30 10 -54h-79q-4 10 -7.5 26.5t-3.5 28.5q0 65 34.5 95.5t106.5 30.5h230q144 0 207.5 -43t63.5 -134q0 -63 -34.5 -104.5t-101.5 -53.5v-5q82 -14 121 -57t39 -114q0 -96 -66 -149.5t-182 -53.5h-251v637h-26zM267 410h132q84 0 122 27t38 90
q0 59 -41.5 84.5t-132.5 25.5h-118v-227zM267 335v-259h144q86 0 127.5 33.5t41.5 100.5q0 64 -44 94.5t-132 30.5h-137z" />
    <glyph glyph-name="uni0182" unicode="&#x182;" horiz-adv-x="615" 
d="M65 0v87l163 13v1255l-163 13v88h1040v-306h-107l-7 205h-638v-534h364q154 0 261 -50.5t163.5 -142t56.5 -216.5t-56.5 -217.5t-164 -143.5t-260.5 -51h-652zM353 100h364q181 0 270.5 88.5t89.5 225.5q0 132 -89.5 219.5t-270.5 87.5h-364v-621z" />
    <glyph glyph-name="uni0183" unicode="&#x183;" horiz-adv-x="615" 
d="M339 545q106 0 163.5 -73t57.5 -204q0 -133 -58.5 -205.5t-162.5 -72.5q-54 0 -96.5 19.5t-69.5 58.5h-7q-15 -59 -18 -68h-63v760h421v-74h-333v-111q0 -55 -5 -110h5q54 80 166 80zM324 472q-81 0 -116 -46t-35 -155v-4q0 -110 36 -157t117 -47q72 0 107.5 53t35.5 153
q0 102 -35.5 152.5t-109.5 50.5z" />
    <glyph glyph-name="uni0184" unicode="&#x184;" horiz-adv-x="634" 
d="M180 210q0 -77 37.5 -110t122.5 -33q80 0 115.5 35.5t35.5 102.5q0 69 -48 99t-140 30h-123v-124zM90 714h90v-302h134q129 0 199.5 -53t70.5 -154t-63.5 -158t-179.5 -57q-251 0 -251 220v504z" />
    <glyph glyph-name="uni0185" unicode="&#x185;" horiz-adv-x="611" 
d="M322 -10q-115 0 -177.5 72.5t-62.5 204.5v493h88v-185q0 -55 -5 -110h5q54 80 166 80q106 0 163.5 -73t57.5 -204q0 -134 -61 -206t-174 -72zM170 265q0 -96 40.5 -149t112.5 -53t107.5 53t35.5 153q0 102 -35.5 152.5t-109.5 50.5q-81 0 -116 -46t-35 -155v-6z" />
    <glyph glyph-name="uni0186" unicode="&#x186;" horiz-adv-x="631" 
d="M243 724q158 0 243 -96t85 -272q0 -110 -39.5 -192.5t-114.5 -128t-174 -45.5q-55 0 -98 6.5t-86 22.5v78q94 -28 170 -28q115 0 181 77t66 211q0 137 -63.5 212.5t-183.5 75.5q-77 0 -162 -39l-36 76q84 42 212 42z" />
    <glyph glyph-name="uni0187" unicode="&#x187;" horiz-adv-x="631" 
d="M403 645q-115 0 -181 -77t-66 -211q0 -138 64 -213t182 -75q76 0 171 28v-78q-45 -17 -87 -23t-97 -6q-158 0 -243 96t-85 272q0 110 41 193t118.5 128t183.5 45q61 0 117 -14v14q0 64 27 99t88 35q30 0 60 -13v-72q-24 10 -52 10q-47 0 -47 -48v-51l-36 -78
q-33 15 -71.5 27t-86.5 12z" />
    <glyph glyph-name="uni0188" unicode="&#x188;" horiz-adv-x="502" 
d="M300 -10q-116 0 -180.5 71t-64.5 204q0 135 65.5 208t185.5 73q27 0 65 -6v91q0 64 26.5 99t88.5 35q29 0 60 -13v-73q-23 10 -52 10q-47 0 -47 -48v-124l-27 -73q-68 25 -116 25q-81 0 -119.5 -51t-38.5 -152q0 -97 38.5 -148.5t114.5 -51.5q71 0 139 31v-78
q-55 -29 -138 -29z" />
    <glyph glyph-name="uni0189" unicode="&#x189;" horiz-adv-x="729" 
d="M76 687v101h559v-101h-559zM76 0v87l163 13v1255l-163 13v88h163h400q186 0 327 -92.5t221.5 -254t80.5 -369.5v-24q0 -207 -79 -368.5t-219.5 -254.5t-325.5 -93h-568zM359 100h280q152 0 266 81.5t178.5 221t64.5 313.5v26q0 176 -64.5 314.5t-178.5 218.5t-266 80
h-280v-1255z" />
    <glyph glyph-name="uni018A" unicode="&#x18a;" horiz-adv-x="810" 
d="M654 361q0 136 -67 206t-203 70h-117v-560h97q290 0 290 284zM397 714q168 0 260 -92.5t92 -257.5q0 -177 -96.5 -270.5t-276.5 -93.5h-199v637h-26q-61 0 -61 -50q0 -30 10 -54h-79q-4 10 -7.5 26.5t-3.5 28.5q0 65 34.5 95.5t106.5 30.5h246z" />
    <glyph glyph-name="uni018B" unicode="&#x18b;" horiz-adv-x="615" 
d="M428 335h-82q-106 0 -154 -32t-48 -101q0 -63 44 -94t139 -31h101v258zM518 714v-714h-199q-268 0 -268 198q0 103 73.5 158.5t211.5 55.5h92v223h-334v79h424z" />
    <glyph glyph-name="uni018C" unicode="&#x18c;" horiz-adv-x="615" 
d="M289 63q80 0 117 43.5t37 143.5v16q0 112 -37.5 159.5t-117.5 47.5q-68 0 -105 -54t-37 -154t37 -151t106 -51zM530 0h-71l-13 72h-4q-56 -82 -167 -82q-104 0 -162 72.5t-58 204.5q0 131 58 205t163 74q108 0 166 -79h6q-1 10 -3.5 39.5t-2.5 39.5v140h-333v74h421v-760
z" />
    <glyph glyph-name="uni018D" unicode="&#x18d;" horiz-adv-x="604" 
d="M341 294q66 -38 95 -77t29 -87q0 -64 -48 -102t-132 -38q-51 0 -97 11.5t-109 42.5l38 69q37 -21 79 -36t93 -15q40 0 63.5 18.5t23.5 50.5q0 34 -26.5 60t-107.5 70q-104 57 -146 117t-42 136q0 115 66 180.5t184 65.5q112 0 179 -60.5t67 -163.5q0 -87 -54 -149.5
t-155 -92.5zM145 515q0 -62 30 -105.5t96 -77.5q92 22 139.5 74t47.5 131q0 67 -41.5 108.5t-112.5 41.5q-77 0 -118 -44.5t-41 -127.5z" />
    <glyph glyph-name="uni018E" unicode="&#x18e;" horiz-adv-x="556" 
d="M60 79h309v255h-291v78h291v223h-309v79h399v-714h-399v79z" />
    <glyph glyph-name="uni018F" unicode="&#x18f;" horiz-adv-x="1394" 
d="M687 -21q-192 0 -328 77t-208.5 219.5t-72.5 338.5v117h1066v92q0 163 -56 288t-168.5 195t-282.5 70q-128 0 -227.5 -32.5t-181.5 -88.5l-39 87q72 57 178 96t270 39q198 0 338 -82t214.5 -229t74.5 -343v-168q0 -197 -76 -349.5t-206.5 -239.5t-294.5 -87zM687 79
q137 0 238 72.5t157.5 198t58.5 285.5l-1 4h-942v-54q0 -149 55.5 -263.5t164 -178.5t269.5 -64z" />
    <glyph glyph-name="uni0190" unicode="&#x190;" horiz-adv-x="587" 
d="M87 547q0 82 60.5 129.5t166.5 47.5q64 0 124 -18.5t109 -55.5l-43 -61q-52 36 -94 48.5t-94 12.5q-63 0 -99.5 -30.5t-36.5 -81.5q0 -60 48 -95.5t145 -35.5h97v-75h-102q-110 0 -165 -33t-55 -97q0 -67 48.5 -102.5t139.5 -35.5q105 0 214 52v-82q-90 -44 -219 -44
q-135 0 -206 52t-71 153q0 76 46.5 121t137.5 57v4q-72 12 -111.5 56.5t-39.5 113.5z" />
    <glyph glyph-name="uni0191" unicode="&#x191;" horiz-adv-x="519" 
d="M45 -240q-32 0 -56 13v76q21 -10 45 -10q35 0 49 20t14 62v793h399v-79h-309v-253h290v-79h-290v-386q0 -157 -142 -157z" />
    <glyph glyph-name="florin" unicode="&#x192;" horiz-adv-x="774" 
d="M109 -437q-31 0 -57 5t-55 14l13 97q16 -5 46.5 -10t52.5 -5q86 0 134.5 65t48.5 182v1074h-179v97h179v159q0 162 82 251t229 89q33 0 66.5 -4.5t69.5 -14.5l-16 -97q-25 6 -50 9.5t-58 3.5q-99 0 -151 -62t-52 -175v-159h245v-97h-245v-1074q0 -167 -80 -257.5
t-223 -90.5z" />
    <glyph glyph-name="uni0193" unicode="&#x193;" horiz-adv-x="728" 
d="M407 377h247v-350q-57 -18 -115.5 -27.5t-135.5 -9.5q-163 0 -252.5 97t-89.5 270q0 112 44.5 195.5t128 127.5t197.5 44q71 0 137 -17v17q0 64 27 99t88 35q29 0 60 -13v-72q-24 10 -52 10q-47 0 -47 -48v-53l-34 -78q-94 41 -184 41q-127 0 -199 -77t-72 -211
q0 -142 68.5 -215.5t200.5 -73.5q72 0 140 17v212h-157v80z" />
    <glyph glyph-name="uni0194" unicode="&#x194;" horiz-adv-x="569" 
d="M334 108q33 -65 50 -121t17 -94q0 -59 -32 -96t-84 -37q-54 0 -85 37.5t-31 95.5q0 78 67 214l-236 607h94q89 -237 136.5 -362t54.5 -167q10 51 50 158l140 371h95zM319 -105q0 26 -8.5 62t-25.5 68q-19 -38 -26.5 -72t-7.5 -56q0 -31 9.5 -45t24.5 -14q34 0 34 57z" />
    <glyph glyph-name="uni0195" unicode="&#x195;" horiz-adv-x="934" 
d="M639 63q67 0 96.5 36t29.5 113v324h88v-327q0 -114 -51 -166.5t-163 -52.5q-110 0 -162 48.5t-52 147.5v157q0 65 -26 97t-83 32q-74 0 -108.5 -45.5t-34.5 -149.5v-277h-88v760h88v-223q0 -44 -5 -75h6q24 42 66 62.5t90 20.5q91 0 137 -46.5t46 -149.5v-157
q0 -65 30.5 -97t95.5 -32z" />
    <glyph glyph-name="uni0196" unicode="&#x196;" horiz-adv-x="348" 
d="M179 714v-549q0 -48 18 -72t59 -24q21 0 44 3.5t38 7.5v-74q-13 -6 -40 -11t-55 -5q-80 0 -116.5 41.5t-36.5 125.5v557h89z" />
    <glyph glyph-name="uni0197" unicode="&#x197;" horiz-adv-x="338" 
d="M298 0h-258v52l84 19v256h-90v78h90v237l-84 20v52h258v-52l-84 -20v-237h90v-78h-90v-256l84 -19v-52z" />
    <glyph glyph-name="uni0198" unicode="&#x198;" horiz-adv-x="619" 
d="M327 405l292 -405h-106q-30 40 -121 172q-71 103 -126 170l-79 -77v-265h-90v714h90v-360q28 35 60 72q21 24 185 225q29 38 54.5 53.5t66.5 15.5q30 0 50 -8v-70q-21 3 -44 3q-17 0 -31.5 -10t-36.5 -36z" />
    <glyph glyph-name="uni0199" unicode="&#x199;" horiz-adv-x="534" 
d="M172 363l-4 -87h4l30 38l34 41l171 181h103l-217 -229l232 -307h-106l-186 250l-61 -53v-197h-87v625q0 140 121 140q33 0 65 -13v-73q-23 10 -52 10q-23 0 -35 -13t-12 -45v-268z" />
    <glyph glyph-name="uni019A" unicode="&#x19a;" horiz-adv-x="257" 
d="M173 420h70v-66h-70v-354h-88v354h-70v66h70v340h88v-340z" />
    <glyph glyph-name="uni019B" unicode="&#x19b;" horiz-adv-x="541" 
d="M-6 0l231 526l-23 64l-106 -32l-19 63l99 30q-13 22 -29.5 32t-45.5 10q-30 0 -56 -6v71q33 8 66 8q53 0 87 -21t59 -69l109 33l19 -63l-102 -32l179 -498q10 -28 21.5 -41t28.5 -13q12 0 30 5v-65q-24 -12 -57 -12q-36 0 -58 18t-38 63l-73 205q-42 119 -50 159h-4
q-16 -62 -55 -154l-122 -281h-91z" />
    <glyph glyph-name="uni019C" unicode="&#x19c;" horiz-adv-x="1029" 
d="M180 714v-506q0 -70 29 -105t92 -35q84 0 124.5 47t40.5 147v452h90v-506q0 -70 29 -105t94 -35q84 0 123.5 49.5t39.5 164.5v432h90v-714h-71l-15 82h-5q-25 -42 -74 -67t-107 -25q-68 0 -110.5 24.5t-64.5 75.5h-5q-28 -48 -79.5 -74t-113.5 -26q-103 0 -150 53
t-47 165v506h90z" />
    <glyph glyph-name="uni019D" unicode="&#x19d;" horiz-adv-x="759" 
d="M97 714h104l22 -35l235 -362l124 -194h4q-1 12 -4 84t-3 104v403h84v-714h-105l-382 593h-4l2 -40q6 -89 6 -154v-482q0 -83 -34 -120t-101 -37q-32 0 -56 13v76q21 -10 45 -10q35 0 49 20t14 62v793z" />
    <glyph glyph-name="uni019E" unicode="&#x19e;" horiz-adv-x="618" 
d="M917 -416v1073q0 188 -69.5 266t-197.5 78q-133 0 -210 -70.5t-107 -185.5v-745h-120v893q0 51 -19.5 71t-56.5 20q-28 0 -57 -8t-53 -19l-31 90q33 21 79.5 35.5t93.5 14.5q76 0 115 -33t44 -105q1 -16 1.5 -32.5t1.5 -31.5q51 98 138.5 152.5t207.5 54.5
q177 0 268.5 -105t91.5 -339v-1074h-120z" />
    <glyph glyph-name="uni019F" unicode="&#x19f;" horiz-adv-x="782" 
d="M722 -21q-184 0 -324 94t-218.5 260.5t-78.5 384.5v19q0 218 78 385t218 261t324 94q187 0 329 -94t222 -261t80 -385v-19q0 -218 -79.5 -385t-221.5 -260.5t-329 -93.5zM722 82q151 0 262.5 73t174 205t66.5 308l-2 5h-993l-2 -5q5 -176 66 -307.5t170.5 -205
t257.5 -73.5zM229 774h994l2 5q-3 177 -65.5 310.5t-174.5 208.5t-264 75q-149 0 -259 -74.5t-171 -208.5t-64 -311z" />
    <glyph glyph-name="Ohorn" unicode="&#x1a0;" horiz-adv-x="1425" 
d="M1080 1205v91q125 0 173.5 73t47.5 196h112q0 -107 -33.5 -188t-106 -126.5t-193.5 -45.5zM710 -21q-138 0 -250 53t-192 151t-123 233.5t-43 301.5v19q0 166 42.5 301.5t122.5 234t192 151.5t250 53q141 0 253.5 -53t192 -151.5t121 -234t41.5 -301.5v-19
q0 -166 -41.5 -301.5t-120.5 -233.5t-191.5 -151t-253.5 -53zM710 84q158 0 266.5 79t164.5 222t56 333v21q0 190 -56.5 332t-165.5 221.5t-266 79.5q-151 0 -260 -79.5t-167.5 -222t-58.5 -331.5v-21q0 -190 58.5 -333t168 -222t260.5 -79z" />
    <glyph glyph-name="ohorn" unicode="&#x1a1;" horiz-adv-x="1163" 
d="M862 872v84q82 0 125.5 26t60 79.5t16.5 136.5h103q0 -104 -29.5 -177t-95.5 -111.5t-180 -37.5zM572 -21q-146 0 -253.5 69.5t-167 193t-59.5 282.5v33q0 159 59.5 282t167 193t251.5 70q145 0 252.5 -70t167 -192.5t59.5 -282.5v-33q0 -160 -59.5 -283t-167 -192.5
t-250.5 -69.5zM572 79q111 0 191 59t123 160t43 226v33q0 124 -43 225t-123.5 160t-192.5 59t-192.5 -59t-123 -160t-42.5 -225v-33q0 -126 42.5 -226.5t123 -159.5t194.5 -59z" />
    <glyph glyph-name="uni01A2" unicode="&#x1a2;" horiz-adv-x="1075" 
d="M688 358q0 -173 -82.5 -270.5t-230.5 -97.5q-150 0 -232 96.5t-82 272.5q0 174 82 270t233 96q142 0 224 -91q28 43 78 67t110 24q102 0 149.5 -52.5t47.5 -165.5v-507h-90v507q0 70 -29 105t-92 35q-53 0 -86.5 -15t-52.5 -46q53 -92 53 -228zM156 358q0 -142 56 -216
t163 -74t162.5 73t55.5 217q0 143 -55 215.5t-162 72.5q-108 0 -164 -73.5t-56 -214.5z" />
    <glyph glyph-name="uni01A3" unicode="&#x1a3;" horiz-adv-x="845" 
d="M526 269q0 -132 -63.5 -205.5t-173.5 -73.5q-69 0 -122.5 34t-82.5 98t-29 147q0 130 62.5 203.5t173.5 73.5q106 0 169 -72q26 37 64 54.5t80 17.5q80 0 120 -47t40 -150v-589h-87v585q0 127 -92 127q-63 0 -94 -44q35 -63 35 -159zM146 269q0 -101 36.5 -153.5
t107.5 -52.5t108 52t37 154q0 101 -37 152t-108 51q-144 0 -144 -203z" />
    <glyph glyph-name="uni01A4" unicode="&#x1a4;" horiz-adv-x="685" 
d="M267 355h72q106 0 154 34.5t48 110.5q0 69 -44.5 103t-138.5 34h-91v-282zM366 714q268 0 268 -210q0 -109 -74.5 -167.5t-210.5 -58.5h-82v-278h-90v637h-26q-61 0 -61 -50q0 -30 10 -54h-79q-4 10 -7.5 26.5t-3.5 28.5q0 65 34.5 95.5t106.5 30.5h215z" />
    <glyph glyph-name="uni01A5" unicode="&#x1a5;" horiz-adv-x="615" 
d="M207 765q33 0 65 -13v-73q-23 10 -52 10q-23 0 -35 -13t-12 -45v-80q0 -30 -4 -68l-2 -20h6q31 44 72 63.5t95 19.5q104 0 162 -72.5t58 -204.5q0 -131 -58 -205t-163 -74q-108 0 -166 78h-6l2 -20q4 -38 4 -68v-220h-88l1 865q0 140 121 140zM324 472q-80 0 -115 -45
t-36 -141v-17q0 -109 36 -157.5t117 -48.5q67 0 105 54.5t38 152.5t-38 150t-107 52z" />
    <glyph glyph-name="uni01A6" unicode="&#x1a6;" horiz-adv-x="622" 
d="M187 271h107q87 0 127 34t40 102q0 67 -40.5 98t-131.5 31h-102v-265zM187 195v-195h-90v714h90v-100h107q133 0 196.5 -50.5t63.5 -152.5q0 -142 -143 -191l196 -320h-105l-173 295h-142z" />
    <glyph glyph-name="uni01A7" unicode="&#x1a7;" horiz-adv-x="548" 
d="M47 191q0 48 20 84t61 63.5t124 58.5q68 25 98.5 44t44 42t13.5 58q0 49 -36 76.5t-99 27.5q-72 0 -154 -38l-28 77q85 40 180 40q102 0 165 -49.5t63 -132.5q0 -76 -41.5 -125.5t-142.5 -86.5q-78 -28 -113 -48t-50 -43t-15 -56q0 -54 40.5 -84.5t120.5 -30.5
q91 0 200 47v-86q-34 -17 -85 -28t-111 -11q-120 0 -187.5 54t-67.5 147z" />
    <glyph glyph-name="uni01A8" unicode="&#x1a8;" horiz-adv-x="479" 
d="M45 148q0 37 15 64t46.5 48.5t99.5 46.5q88 34 113 53t25 49t-28 47.5t-83 17.5q-50 0 -132 -34l-30 70q81 36 156 36q98 0 149.5 -36.5t51.5 -105.5q0 -37 -14.5 -63t-45 -47t-106.5 -50q-53 -20 -81 -35.5t-39.5 -31t-11.5 -37.5q0 -39 32 -59t95 -20q84 0 170 43v-80
q-62 -34 -168 -34q-214 0 -214 158z" />
    <glyph glyph-name="uni01A9" unicode="&#x1a9;" horiz-adv-x="569" 
d="M79 0v92l516 668l-516 604v92h952v-306h-107l-7 206h-676l-3 -5l481 -571v-36l-487 -641l14 -2h727l7 205h106v-306h-1007z" />
    <glyph glyph-name="uni01AA" unicode="&#x1aa;" horiz-adv-x="309" 
d="M67 542q-60 0 -91.5 29.5t-31.5 82.5q0 54 32.5 82.5t92.5 28.5q63 0 96.5 -36t33.5 -105v-696q0 -49 18 -72.5t59 -23.5q19 0 43.5 3t38.5 8v-67q-15 -7 -41.5 -11.5t-52.5 -4.5q-80 0 -116 41t-36 126v615h-45zM63 693q-21 0 -30 -12t-9 -27q0 -40 49 -40h39v13
q0 35 -12.5 50.5t-36.5 15.5z" />
    <glyph glyph-name="uni01AB" unicode="&#x1ab;" horiz-adv-x="360" 
d="M222 -240q-29 0 -60 12v73q22 -9 50 -9q48 0 48 52v102h-11q-157 0 -157 166v312h-76v42l77 35l35 114h52v-123h155v-68h-155v-310q0 -46 22.5 -71t61.5 -25q17 0 40 3.5t35 7.5v-180q0 -133 -117 -133z" />
    <glyph glyph-name="uni01AC" unicode="&#x1ac;" horiz-adv-x="576" 
d="M151 635q-61 0 -61 -48q0 -30 10 -54h-79q-4 10 -7.5 26.5t-3.5 28.5q0 65 34.5 95.5t106.5 30.5h414v-79h-222v-635h-90v635h-102z" />
    <glyph glyph-name="uni01AD" unicode="&#x1ad;" horiz-adv-x="360" 
d="M180 536h155v-68h-155v-310q0 -46 22.5 -71t61.5 -25q17 0 40 3.5t35 7.5v-67q-12 -5 -38 -10.5t-52 -5.5q-157 0 -157 166v312h-76v42l77 35v66q0 154 147 154q39 0 77 -13v-73q-11 4 -34.5 7t-42.5 3q-32 0 -46 -17t-14 -51v-85z" />
    <glyph glyph-name="uni01AE" unicode="&#x1ae;" horiz-adv-x="556" 
d="M233 635h-223v79h535v-79h-222v-714q0 -42 14.5 -62t48.5 -20q24 0 45 10v-76q-24 -13 -63 -13q-68 0 -101.5 37t-33.5 120v718z" />
    <glyph glyph-name="Uhorn" unicode="&#x1af;" horiz-adv-x="1625" 
d="M745 -21q-154 0 -270.5 56.5t-181.5 166t-65 267.5v886l-163 13v88h446v-88l-163 -13v-886q0 -125 50.5 -212t139.5 -132.5t207 -45.5q120 0 211 45.5t142.5 132.5t51.5 212v886l-163 13v88h283v-987q0 -159 -66.5 -268t-184.5 -165.5t-274 -56.5zM1236 1151l4 102
q139 -4 193 69.5t54 227.5h107v-5q3 -193 -82 -292.5t-276 -101.5z" />
    <glyph glyph-name="uhorn" unicode="&#x1b0;" horiz-adv-x="1269" 
d="M966 872v84q82 0 125.5 26t60 79.5t16.5 136.5h103q0 -104 -29.5 -177t-95.5 -111.5t-180 -37.5zM541 -21q-170 0 -264.5 116t-94.5 360v526l-134 13v88h134h120v-629q0 -198 65 -284.5t188 -86.5q139 0 217 64.5t107 173.5v661l-154 13v88h154h121v-982l145 -13v-87
h-251l-10 178q-51 -95 -136.5 -147t-206.5 -52z" />
    <glyph glyph-name="uni01B1" unicode="&#x1b1;" horiz-adv-x="782" 
d="M391 68q114 0 173 62t59 183q0 110 -40.5 189t-126.5 140v72h288v-79h-178q74 -57 113 -141t39 -184q0 -150 -87 -235.5t-240 -85.5q-155 0 -241.5 85t-86.5 235q0 100 39 185t112 141h-177v79h288v-72q-87 -62 -127.5 -142t-40.5 -187q0 -120 59.5 -182.5t174.5 -62.5z
" />
    <glyph glyph-name="uni01B2" unicode="&#x1b2;" horiz-adv-x="600" 
d="M571 580q0 -53 -45 -157l-181 -423h-90l-255 714h94l162 -466q31 -88 45 -156q8 30 27 73q21 50 32 81l85 203q36 88 36 125q0 39 -16 55t-47 16q-24 0 -45 -10v76q22 13 63 13q135 0 135 -144z" />
    <glyph glyph-name="uni01B3" unicode="&#x1b3;" horiz-adv-x="565" 
d="M39 649q-21 0 -39 -8v73q28 11 60 11q37 0 59.5 -17.5t40.5 -57.5l128 -287l181 351h97l-233 -437v-277h-90v273l-162 341q-18 35 -42 35z" />
    <glyph glyph-name="uni01B4" unicode="&#x1b4;" horiz-adv-x="541" 
d="M485 546q33 0 57 -12v-65q-18 5 -30 5q-18 0 -28.5 -13t-21.5 -41l-183 -494q-32 -87 -79 -126.5t-116 -39.5q-37 0 -73 8v70q24 -6 59 -6q85 0 121 95l26 71l-216 538h94l116 -305q37 -100 45 -146h4q8 36 48 147l76 217q19 54 41 75.5t60 21.5z" />
    <glyph glyph-name="uni01B5" unicode="&#x1b5;" horiz-adv-x="571" 
d="M79 407h184l151 227h-364v80h473v-68l-159 -239h122v-71h-169l-170 -256h386v-80h-495v68l178 268h-137v71z" />
    <glyph glyph-name="uni01B6" unicode="&#x1b6;" horiz-adv-x="470" 
d="M57 313h161l109 155h-271v68h368v-66l-111 -157h101v-70h-151l-123 -175h291v-68h-392v58l130 185h-112v70z" />
    <glyph glyph-name="uni01B7" unicode="&#x1b7;" horiz-adv-x="583" 
d="M291 440q68 -2 122.5 -30t85 -76.5t30.5 -112.5q0 -109 -76 -170t-212 -61q-126 0 -206 39v82q49 -23 104 -35t103 -12q97 0 145 41t48 117q0 69 -49.5 107t-143.5 38h-62v65l206 202h-331v80h444v-71z" />
    <glyph glyph-name="uni01B8" unicode="&#x1b8;" horiz-adv-x="583" 
d="M85 643v71h444v-80h-330l205 -202v-65h-78q-84 0 -130.5 -40.5t-46.5 -113.5q0 -71 49.5 -110t143.5 -39q49 0 103.5 11.5t103.5 35.5v-82q-45 -21 -98.5 -30t-119.5 -9q-87 0 -149 27t-94.5 77t-32.5 117q0 68 30 119t84.5 79.5t123.5 30.5z" />
    <glyph glyph-name="uni01B9" unicode="&#x1b9;" horiz-adv-x="498" 
d="M61 472v64h409v-74h-306l219 -243v-61h-59q-101 0 -151.5 -42.5t-50.5 -124.5q0 -71 47 -114.5t126 -43.5q100 0 189 42v-80q-68 -35 -196 -35q-113 0 -183.5 63t-70.5 166q0 105 64.5 168t181.5 71z" />
    <glyph glyph-name="uni01BA" unicode="&#x1ba;" horiz-adv-x="498" 
d="M216 -167q84 0 160 36v-80q-60 -29 -161 -29q-90 0 -138.5 31t-48.5 88q0 62 46.5 91.5t137.5 29.5q80 0 114.5 27.5t34.5 94.5q0 60 -44.5 88t-142.5 28h-59v61l183 163h-270v74h394v-64l-187 -164q104 -5 159 -51.5t55 -133.5q0 -95 -59.5 -145.5t-175.5 -50.5
q-53 0 -78 -10.5t-25 -37.5q0 -21 26.5 -33.5t78.5 -12.5z" />
    <glyph glyph-name="uni01BB" unicode="&#x1bb;" horiz-adv-x="569" 
d="M78 419h241q27 44 39 82t12 81q0 50 -29.5 78t-82.5 28q-45 0 -81.5 -16.5t-73.5 -49.5l-47 59q93 84 204 84q94 0 147.5 -48.5t53.5 -132.5q0 -42 -10.5 -81.5t-35.5 -83.5h100v-70h-144q-11 -16 -23.5 -32.5t-201.5 -242.5v-4h374v-70h-472v73l175 215l47 61h-192v70z
" />
    <glyph glyph-name="uni01BC" unicode="&#x1bc;" horiz-adv-x="583" 
d="M224 634v-193h42q77 0 137 -27t93 -76.5t33 -116.5q0 -109 -76 -170t-212 -61q-126 0 -206 39v82q49 -23 104 -35t103 -12q97 0 145 41t48 117q0 68 -47 106.5t-130 38.5h-124v267h-79v80h444v-80h-275z" />
    <glyph glyph-name="uni01BD" unicode="&#x1bd;" horiz-adv-x="490" 
d="M198 462v-117h23q107 0 165.5 -46.5t58.5 -135.5q0 -82 -60.5 -127.5t-168.5 -45.5q-118 0 -183 35v79q89 -42 182 -42q69 0 106 26.5t37 79.5t-37.5 79t-115.5 26h-95v189h-62v74h364v-74h-214z" />
    <glyph glyph-name="uni01BE" unicode="&#x1be;" horiz-adv-x="462" 
d="M136 378v90h-91v42l92 35l35 114h52v-123h155v-68h-155v-92q0 -34 10.5 -49.5t36.5 -24.5q83 -31 115 -66.5t32 -87.5q0 -75 -56 -116.5t-158 -41.5q-105 0 -168 34v80q86 -43 170 -43q66 0 96.5 21.5t30.5 57.5q0 29 -24 49.5t-90 47.5q-47 20 -65 52t-18 89z" />
    <glyph glyph-name="uni01BF" unicode="&#x1bf;" horiz-adv-x="586" 
d="M173 -240h-88v776h72l12 -73h4q55 83 158 83q96 0 152 -59t56 -164q0 -91 -45.5 -164.5t-130 -117.5t-190.5 -51v-230zM173 62q131 17 203 85.5t72 173.5q0 69 -36 110t-99 41q-73 0 -106.5 -44t-33.5 -142v-224z" />
    <glyph glyph-name="uni01C0" unicode="&#x1c0;" horiz-adv-x="516" 
d="M297 -240h-78v1000h78v-1000z" />
    <glyph glyph-name="uni01C1" unicode="&#x1c1;" horiz-adv-x="516" 
d="M169 -240h-78v1000h78v-1000zM426 -240h-78v1000h78v-1000z" />
    <glyph glyph-name="uni01C2" unicode="&#x1c2;" horiz-adv-x="516" 
d="M65 402h154v358h78v-358h154v-72h-154v-124h154v-72h-154v-374h-78v374h-154v72h154v124h-154v72z" />
    <glyph glyph-name="uni01C3" unicode="&#x1c3;" horiz-adv-x="269" 
d="M163 201h-57l-25 513h107zM72 54q0 32 16 49.5t46 17.5t46 -18t16 -49t-16.5 -49.5t-45.5 -18.5q-30 0 -46 18t-16 50z" />
    <glyph glyph-name="uni01C4" unicode="&#x1c4;" horiz-adv-x="1291" 
d="M1294 1725v-21l-231 -220h-90l-233 222v19h107l172 -168l170 168h105zM76 0v87l163 13v1255l-163 13v88h163h400q186 0 327 -92.5t221.5 -254t80.5 -369.5v-24q0 -207 -79 -368.5t-219.5 -254.5t-325.5 -93h-568zM359 100h280q152 0 266 81.5t178.5 221t64.5 313.5v26
q0 176 -64.5 314.5t-178.5 218.5t-266 80h-280v-1255zM811 0v92l850 1264h-711l-8 -216h-102v316h966v-87l-852 -1269h774l9 224h101v-324h-1027z" />
    <glyph glyph-name="uni01C5" unicode="&#x1c5;" horiz-adv-x="1200" 
d="M1267 1560v-21l-231 -220h-90l-233 222v19h107l172 -168l170 168h105zM76 0v87l163 13v1255l-163 13v88h163h400q186 0 327 -92.5t221.5 -254t80.5 -369.5v-24q0 -207 -79 -368.5t-219.5 -254.5t-325.5 -93h-568zM359 100h280q152 0 266 81.5t178.5 221t64.5 313.5v26
q0 176 -64.5 314.5t-178.5 218.5t-266 80h-280v-1255zM835 0v87l655 895h-539l-12 -212h-97v312h800v-88l-658 -896h599l12 213h97v-311h-857z" />
    <glyph glyph-name="uni01C6" unicode="&#x1c6;" horiz-adv-x="1084" 
d="M1154 1560v-21l-231 -220h-90l-233 222v19h107l172 -168l170 168h105zM505 -21q-129 0 -222 66t-142 185t-49 281v21q0 173 49 301t142.5 198.5t223.5 70.5q113 0 196.5 -48t137.5 -134v539l-163 13v88h163h120v-1460l163 -13v-87h-270l-9 153q-53 -82 -139 -128
t-201 -46zM527 82q117 0 195 53t119 144v505q-39 94 -114 154.5t-198 60.5q-105 0 -175 -59t-105.5 -164t-35.5 -244v-21q0 -196 78.5 -312.5t235.5 -116.5zM720 0v87l655 895h-539l-12 -212h-97v312h800v-88l-658 -896h599l12 213h97v-311h-857z" />
    <glyph glyph-name="uni01C7" unicode="&#x1c7;" horiz-adv-x="796" 
d="M76 0v87l163 13v1255l-163 13v88h163h120h163v-88l-163 -13v-1256h611l11 235h98v-334h-1003zM1010 -21q-128 0 -225.5 47.5t-152 142.5t-56.5 235l2 6h112q2 -163 83.5 -246t234.5 -83q94 0 161.5 41.5t104 117.5t36.5 178v937l-189 12v89h472v-88l-163 -13v-937
q0 -133 -50.5 -231.5t-145 -153t-224.5 -54.5z" />
    <glyph glyph-name="uni01C8" unicode="&#x1c8;" horiz-adv-x="782" 
d="M76 0v87l163 13v1255l-163 13v88h163h120h163v-88l-163 -13v-1256h611l11 235h98v-334h-1003zM774 1387v173h134v-173h-134zM608 -437q-31 0 -57 5t-55 14l13 97q16 -5 46.5 -10t52.5 -5q86 0 134.5 65t48.5 182v1070l-163 13v88h283v-1171q0 -167 -80 -257.5t-223 -90.5
z" />
    <glyph glyph-name="uni01C9" unicode="&#x1c9;" horiz-adv-x="516" 
d="M74 0v87l163 13v1359l-163 13v88h283v-1460l163 -13v-87h-446zM508 1387v173h134v-173h-134zM342 -437q-31 0 -57 5t-55 14l13 97q16 -5 46.5 -10t52.5 -5q86 0 134.5 65t48.5 182v1070l-163 13v88h283v-1171q0 -167 -80 -257.5t-223 -90.5z" />
    <glyph glyph-name="uni01CA" unicode="&#x1ca;" horiz-adv-x="1033" 
d="M77 0v87l163 13v1255l-163 13v88h163h121l832 -1252l6 2v1149l-170 13v88h283h163v-88l-163 -13v-1355h-112l-841 1257l-6 -2v-1155l170 -13v-87h-446zM1246 -21q-128 0 -225.5 47.5t-152 142.5t-56.5 235l2 6h112q2 -163 83.5 -246t234.5 -83q94 0 161.5 41.5t104 117.5
t36.5 178v937l-189 12v89h472v-88l-163 -13v-937q0 -133 -50.5 -231.5t-145 -153t-224.5 -54.5z" />
    <glyph glyph-name="uni01CB" unicode="&#x1cb;" horiz-adv-x="1018" 
d="M77 0v87l163 13v1255l-163 13v88h163h121l832 -1252l6 2v1149l-170 13v88h283h163v-88l-163 -13v-1355h-112l-841 1257l-6 -2v-1155l170 -13v-87h-446zM1010 1387v173h134v-173h-134zM844 -437q-31 0 -57 5t-55 14l13 97q16 -5 46.5 -10t52.5 -5q86 0 134.5 65t48.5 182
v1070l-163 13v88h283v-1171q0 -167 -80 -257.5t-223 -90.5z" />
    <glyph glyph-name="uni01CC" unicode="&#x1cc;" horiz-adv-x="875" 
d="M82 0v87l163 13v881l-163 13v88h269l10 -194q52 102 140 158t210 56q176 0 268 -107.5t92 -336.5v-558l163 -13v-87h-446v87l163 13v557q0 188 -69 265t-197 77q-134 0 -212 -75t-108 -196v-628l163 -13v-87h-446zM868 1387v173h134v-173h-134zM702 -437q-31 0 -57 5
t-55 14l13 97q16 -5 46.5 -10t52.5 -5q86 0 134.5 65t48.5 182v1070l-163 13v88h283v-1171q0 -167 -80 -257.5t-223 -90.5z" />
    <glyph glyph-name="uni01CD" unicode="&#x1cd;" horiz-adv-x="639" 
d="M617 1738v-21l-231 -220h-90l-233 222v19h107l172 -168l170 168h105zM62 0v87l107 7l517 1362h114l513 -1362l107 -7v-87h-359v87l128 9l-121 329h-653l-122 -329l128 -9v-87h-359zM454 530h575l-263 715l-20 59h-6l-21 -59z" />
    <glyph glyph-name="uni01CE" unicode="&#x1ce;" horiz-adv-x="561" 
d="M579 1560v-21l-231 -220h-90l-233 222v19h107l172 -168l170 168h105zM420 -21q-154 0 -241 82t-87 222q0 100 58 175.5t164.5 117.5t252.5 42h224v124q0 117 -69.5 188.5t-209.5 71.5q-79 0 -141.5 -25.5t-108.5 -64.5l-10 -165h-99v226q70 60 159 94.5t202 34.5
q191 0 294 -96t103 -266v-522q0 -32 2 -63.5t7 -62.5l129 -5v-87h-236q-12 59 -16.5 95t-5.5 81q-59 -87 -156 -142t-215 -55zM434 84q111 0 210.5 58.5t146.5 155.5v228h-225q-166 0 -260 -71.5t-94 -175.5q0 -87 60 -141t162 -54z" />
    <glyph glyph-name="uni01CF" unicode="&#x1cf;" horiz-adv-x="338" 
d="M469 1738v-21l-231 -220h-90l-233 222v19h107l172 -168l170 168h105zM76 0v87l163 13v1255l-163 13v88h446v-88l-163 -13v-1255l163 -13v-87h-446z" />
    <glyph glyph-name="uni01D0" unicode="&#x1d0;" horiz-adv-x="257" 
d="M427 1560v-21l-231 -220h-90l-233 222v19h107l172 -168l170 168h105zM79 0v87l163 13v881l-163 13v88h283v-982l163 -13v-87h-446z" />
    <glyph glyph-name="uni01D1" unicode="&#x1d1;" horiz-adv-x="780" 
d="M688 1738v-21l-231 -220h-90l-233 222v19h107l172 -168l170 168h105zM710 -21q-138 0 -250 53t-192 151t-123 233.5t-43 301.5v19q0 166 42.5 301.5t122.5 234t192 151.5t250 53q141 0 253.5 -53t192 -151.5t121 -234t41.5 -301.5v-19q0 -166 -41.5 -301.5t-120.5 -233.5
t-191.5 -151t-253.5 -53zM710 84q158 0 266.5 79t164.5 222t56 333v21q0 190 -56.5 332t-165.5 221.5t-266 79.5q-151 0 -260 -79.5t-167.5 -222t-58.5 -331.5v-21q0 -190 58.5 -333t168 -222t260.5 -79z" />
    <glyph glyph-name="uni01D2" unicode="&#x1d2;" horiz-adv-x="604" 
d="M600 1560v-21l-231 -220h-90l-233 222v19h107l172 -168l170 168h105zM572 -21q-146 0 -253.5 69.5t-167 193t-59.5 282.5v33q0 159 59.5 282t167 193t251.5 70q145 0 252.5 -70t167 -192.5t59.5 -282.5v-33q0 -160 -59.5 -283t-167 -192.5t-250.5 -69.5zM572 79
q111 0 191 59t123 160t43 226v33q0 124 -43 225t-123.5 160t-192.5 59t-192.5 -59t-123 -160t-42.5 -225v-33q0 -126 42.5 -226.5t123 -159.5t194.5 -59z" />
    <glyph glyph-name="uni01D3" unicode="&#x1d3;" horiz-adv-x="730" 
d="M663 1738v-21l-231 -220h-90l-233 222v19h107l172 -168l170 168h105zM737 -21q-150 0 -264.5 57.5t-179.5 167t-65 265.5v886l-163 13v88h446v-88l-163 -13v-886q0 -124 49.5 -210.5t137.5 -132t203 -45.5t204 45t139 131.5t50 211.5v886l-163 13v88h446v-88l-163 -13
v-886q0 -159 -64.5 -268t-180.5 -165.5t-269 -56.5z" />
    <glyph glyph-name="uni01D4" unicode="&#x1d4;" horiz-adv-x="618" 
d="M607 1560v-21l-231 -220h-90l-233 222v19h107l172 -168l170 168h105zM541 -21q-170 0 -264.5 116t-94.5 360v526l-134 13v88h134h120v-629q0 -198 65 -284.5t188 -86.5q139 0 217 64.5t107 173.5v661l-154 13v88h154h121v-982l145 -13v-87h-251l-10 178
q-51 -95 -136.5 -147t-206.5 -52z" />
    <glyph glyph-name="uni01D5" unicode="&#x1d5;" horiz-adv-x="730" 
d="M508 815q0 -23 -12.5 -36t-34.5 -13t-34.5 13t-12.5 36q0 26 14 38t33 12q20 0 33.5 -12t13.5 -38zM320 815q0 -26 -13.5 -37.5t-32.5 -11.5q-22 0 -34.5 13t-12.5 36q0 26 14 38t33 12t32.5 -12t13.5 -38zM219 1001h297v-71h-297v71zM737 -21q-150 0 -264.5 57.5
t-179.5 167t-65 265.5v886l-163 13v88h446v-88l-163 -13v-886q0 -124 49.5 -210.5t137.5 -132t203 -45.5t204 45t139 131.5t50 211.5v886l-163 13v88h446v-88l-163 -13v-886q0 -159 -64.5 -268t-180.5 -165.5t-269 -56.5z" />
    <glyph glyph-name="uni01D6" unicode="&#x1d6;" horiz-adv-x="618" 
d="M447 650q0 -23 -12.5 -36t-34.5 -13t-34.5 13t-12.5 36q0 26 14 38t33 12q20 0 33.5 -12t13.5 -38zM259 650q0 -26 -13.5 -37.5t-32.5 -11.5q-22 0 -34.5 13t-12.5 36q0 26 14 38t33 12t32.5 -12t13.5 -38zM158 836h297v-71h-297v71zM541 -21q-170 0 -264.5 116
t-94.5 360v526l-134 13v88h134h120v-629q0 -198 65 -284.5t188 -86.5q139 0 217 64.5t107 173.5v661l-154 13v88h154h121v-982l145 -13v-87h-251l-10 178q-51 -95 -136.5 -147t-206.5 -52z" />
    <glyph glyph-name="uni01D7" unicode="&#x1d7;" horiz-adv-x="730" 
d="M499 815q0 -23 -12.5 -36t-34.5 -13t-34.5 13t-12.5 36q0 26 14 38t33 12q20 0 33.5 -12t13.5 -38zM311 815q0 -26 -13.5 -37.5t-32.5 -11.5q-22 0 -34.5 13t-12.5 36q0 26 14 38t33 12t32.5 -12t13.5 -38zM305 903q73 84 96 133h105v-10q-28 -43 -142 -135h-59v12z
M737 -21q-150 0 -264.5 57.5t-179.5 167t-65 265.5v886l-163 13v88h446v-88l-163 -13v-886q0 -124 49.5 -210.5t137.5 -132t203 -45.5t204 45t139 131.5t50 211.5v886l-163 13v88h446v-88l-163 -13v-886q0 -159 -64.5 -268t-180.5 -165.5t-269 -56.5z" />
    <glyph glyph-name="uni01D8" unicode="&#x1d8;" horiz-adv-x="618" 
d="M446 650q0 -23 -12.5 -36t-34.5 -13t-34.5 13t-12.5 36q0 26 14 38t33 12q20 0 33.5 -12t13.5 -38zM258 650q0 -26 -13.5 -37.5t-32.5 -11.5q-22 0 -34.5 13t-12.5 36q0 26 14 38t33 12t32.5 -12t13.5 -38zM252 738q73 84 96 133h105v-10q-28 -43 -142 -135h-59v12z
M541 -21q-170 0 -264.5 116t-94.5 360v526l-134 13v88h134h120v-629q0 -198 65 -284.5t188 -86.5q139 0 217 64.5t107 173.5v661l-154 13v88h154h121v-982l145 -13v-87h-251l-10 178q-51 -95 -136.5 -147t-206.5 -52z" />
    <glyph glyph-name="uni01D9" unicode="&#x1d9;" horiz-adv-x="730" 
d="M504 815q0 -23 -12.5 -36t-34.5 -13t-34.5 13t-12.5 36q0 26 14 38t33 12q20 0 33.5 -12t13.5 -38zM316 815q0 -26 -13.5 -37.5t-32.5 -11.5q-22 0 -34.5 13t-12.5 36q0 26 14 38t33 12t32.5 -12t13.5 -38zM195 1046h60q26 -17 54 -36t53 -46q27 27 55 46t54 36h62v-13
l-32 -31q-73 -69 -93 -106h-90q-21 36 -92 106l-31 31v13zM737 -21q-150 0 -264.5 57.5t-179.5 167t-65 265.5v886l-163 13v88h446v-88l-163 -13v-886q0 -124 49.5 -210.5t137.5 -132t203 -45.5t204 45t139 131.5t50 211.5v886l-163 13v88h446v-88l-163 -13v-886
q0 -159 -64.5 -268t-180.5 -165.5t-269 -56.5z" />
    <glyph glyph-name="uni01DA" unicode="&#x1da;" horiz-adv-x="618" 
d="M444 650q0 -23 -12.5 -36t-34.5 -13t-34.5 13t-12.5 36q0 26 14 38t33 12q20 0 33.5 -12t13.5 -38zM256 650q0 -26 -13.5 -37.5t-32.5 -11.5q-22 0 -34.5 13t-12.5 36q0 26 14 38t33 12t32.5 -12t13.5 -38zM135 881h60q26 -17 54 -36t53 -46q27 27 55 46t54 36h62v-13
l-32 -31q-73 -69 -93 -106h-90q-21 36 -92 106l-31 31v13zM541 -21q-170 0 -264.5 116t-94.5 360v526l-134 13v88h134h120v-629q0 -198 65 -284.5t188 -86.5q139 0 217 64.5t107 173.5v661l-154 13v88h154h121v-982l145 -13v-87h-251l-10 178q-51 -95 -136.5 -147
t-206.5 -52z" />
    <glyph glyph-name="uni01DB" unicode="&#x1db;" horiz-adv-x="730" 
d="M500 815q0 -23 -12.5 -36t-34.5 -13t-34.5 13t-12.5 36q0 26 14 38t33 12q20 0 33.5 -12t13.5 -38zM312 815q0 -26 -13.5 -37.5t-32.5 -11.5q-22 0 -34.5 13t-12.5 36q0 26 14 38t33 12t32.5 -12t13.5 -38zM414 891h-59q-114 91 -142 135v10h105q23 -49 96 -133v-12z
M737 -21q-150 0 -264.5 57.5t-179.5 167t-65 265.5v886l-163 13v88h446v-88l-163 -13v-886q0 -124 49.5 -210.5t137.5 -132t203 -45.5t204 45t139 131.5t50 211.5v886l-163 13v88h446v-88l-163 -13v-886q0 -159 -64.5 -268t-180.5 -165.5t-269 -56.5z" />
    <glyph glyph-name="uni01DC" unicode="&#x1dc;" horiz-adv-x="618" 
d="M447 650q0 -23 -12.5 -36t-34.5 -13t-34.5 13t-12.5 36q0 26 14 38t33 12q20 0 33.5 -12t13.5 -38zM259 650q0 -26 -13.5 -37.5t-32.5 -11.5q-22 0 -34.5 13t-12.5 36q0 26 14 38t33 12t32.5 -12t13.5 -38zM361 726h-59q-114 91 -142 135v10h105q23 -49 96 -133v-12z
M541 -21q-170 0 -264.5 116t-94.5 360v526l-134 13v88h134h120v-629q0 -198 65 -284.5t188 -86.5q139 0 217 64.5t107 173.5v661l-154 13v88h154h121v-982l145 -13v-87h-251l-10 178q-51 -95 -136.5 -147t-206.5 -52z" />
    <glyph glyph-name="uni01DD" unicode="&#x1dd;" horiz-adv-x="563" 
d="M251 546q121 0 189.5 -73t68.5 -201q0 -129 -64 -205.5t-173 -76.5q-101 0 -161 65.5t-60 176.5v53h367q-2 91 -46 138.5t-125 47.5q-43 0 -81.5 -7.5t-90.5 -29.5v77q44 19 83.5 27t92.5 8zM273 62q63 0 99.5 40.5t43.5 112.5h-273q1 -74 34.5 -113.5t95.5 -39.5z" />
    <glyph glyph-name="uni01DE" unicode="&#x1de;" horiz-adv-x="639" 
d="M460 815q0 -23 -12.5 -36t-34.5 -13t-34.5 13t-12.5 36q0 26 14 38t33 12q20 0 33.5 -12t13.5 -38zM272 815q0 -26 -13.5 -37.5t-32.5 -11.5q-22 0 -34.5 13t-12.5 36q0 26 14 38t33 12t32.5 -12t13.5 -38zM171 1001h297v-71h-297v71zM62 0v87l107 7l517 1362h114
l513 -1362l107 -7v-87h-359v87l128 9l-121 329h-653l-122 -329l128 -9v-87h-359zM454 530h575l-263 715l-20 59h-6l-21 -59z" />
    <glyph glyph-name="uni01DF" unicode="&#x1df;" horiz-adv-x="561" 
d="M426 650q0 -23 -12.5 -36t-34.5 -13t-34.5 13t-12.5 36q0 26 14 38t33 12q20 0 33.5 -12t13.5 -38zM238 650q0 -26 -13.5 -37.5t-32.5 -11.5q-22 0 -34.5 13t-12.5 36q0 26 14 38t33 12t32.5 -12t13.5 -38zM137 836h297v-71h-297v71zM420 -21q-154 0 -241 82t-87 222
q0 100 58 175.5t164.5 117.5t252.5 42h224v124q0 117 -69.5 188.5t-209.5 71.5q-79 0 -141.5 -25.5t-108.5 -64.5l-10 -165h-99v226q70 60 159 94.5t202 34.5q191 0 294 -96t103 -266v-522q0 -32 2 -63.5t7 -62.5l129 -5v-87h-236q-12 59 -16.5 95t-5.5 81
q-59 -87 -156 -142t-215 -55zM434 84q111 0 210.5 58.5t146.5 155.5v228h-225q-166 0 -260 -71.5t-94 -175.5q0 -87 60 -141t162 -54z" />
    <glyph glyph-name="uni01E0" unicode="&#x1e0;" horiz-adv-x="639" 
d="M269 826q0 29 15 42.5t37 13.5q23 0 37 -15t14 -41t-14.5 -41t-36.5 -15t-37 13.5t-15 42.5zM171 1001h297v-71h-297v71zM62 0v87l107 7l517 1362h114l513 -1362l107 -7v-87h-359v87l128 9l-121 329h-653l-122 -329l128 -9v-87h-359zM454 530h575l-263 715l-20 59h-6
l-21 -59z" />
    <glyph glyph-name="uni01E1" unicode="&#x1e1;" horiz-adv-x="561" 
d="M235 662q0 29 15 42.5t37 13.5q23 0 37 -15t14 -41t-14.5 -41t-36.5 -15t-37 13.5t-15 42.5zM137 837h297v-71h-297v71zM420 -21q-154 0 -241 82t-87 222q0 100 58 175.5t164.5 117.5t252.5 42h224v124q0 117 -69.5 188.5t-209.5 71.5q-79 0 -141.5 -25.5t-108.5 -64.5
l-10 -165h-99v226q70 60 159 94.5t202 34.5q191 0 294 -96t103 -266v-522q0 -32 2 -63.5t7 -62.5l129 -5v-87h-236q-12 59 -16.5 95t-5.5 81q-59 -87 -156 -142t-215 -55zM434 84q111 0 210.5 58.5t146.5 155.5v228h-225q-166 0 -260 -71.5t-94 -175.5q0 -87 60 -141
t162 -54z" />
    <glyph glyph-name="uni01E2" unicode="&#x1e2;" horiz-adv-x="880" 
d="M241 1553v96h670v-96h-670zM51 0v87l129 9l823 1360h864v-306h-106l-7 205h-580l23 -546h589v-101h-585l25 -608h589l8 206h106v-306h-981v87l158 13l-12 290h-594l-176 -296l108 -7v-87h-381zM564 502h526l-35 825l-5 1l-35 -63z" />
    <glyph glyph-name="uni01E3" unicode="&#x1e3;" horiz-adv-x="863" 
d="M177 1388v96h670v-96h-670zM425 -21q-157 0 -245 85.5t-88 229.5q0 102 58 179t164.5 120t253.5 43h223v106q0 117 -69.5 188.5t-209.5 71.5q-78 0 -140.5 -25.5t-109.5 -64.5l-9 -165h-100v226q70 60 159.5 94.5t201.5 34.5q145 0 236 -58.5t123 -164.5q35 67 91 117.5
t127.5 78t148.5 27.5q134 0 228.5 -56t144.5 -159.5t50 -247.5v-100h-751l-1 -44q0 -185 90 -300.5t269 -115.5q103 0 179 31.5t144 88.5l48 -87q-60 -56 -148.5 -94.5t-222.5 -38.5q-281 0 -418 242q-70 -113 -179.5 -177.5t-247.5 -64.5zM434 84q77 0 149 30t130.5 84
t90.5 126q-6 48 -9.5 90.5t-3.5 88.5v41h-225q-165 0 -259.5 -73.5t-94.5 -180.5q0 -87 60 -146.5t162 -59.5zM914 636h629v31q0 147 -77 240.5t-226 93.5q-93 0 -164 -46.5t-113.5 -127.5t-50.5 -186z" />
    <glyph glyph-name="uni01E4" unicode="&#x1e4;" horiz-adv-x="728" 
d="M407 377h247v-150h64v-71h-64v-129q-57 -18 -115.5 -27.5t-135.5 -9.5q-163 0 -252.5 97t-89.5 270q0 112 44.5 195.5t128 127.5t197.5 44t213 -42l-34 -78q-94 41 -184 41q-127 0 -199 -77t-72 -211q0 -142 68.5 -215.5t200.5 -73.5q72 0 140 17v71h-147v71h147v70h-157
v80z" />
    <glyph glyph-name="uni01E5" unicode="&#x1e5;" horiz-adv-x="615" 
d="M443 15l3 66h-4q-54 -81 -166 -81q-105 0 -163 71t-58 201q0 128 58 201t162 73q109 0 168 -81h5l12 71h70v-545q0 -20 -2 -37h57v-71h-72q-47 -123 -223 -123q-117 0 -193 34v81q78 -42 198 -42q77 0 117 50h-149v71h178l2 30v31zM289 72q83 0 119 42.5t36 136.5v16
q0 107 -37 156t-120 49q-68 0 -104.5 -50.5t-36.5 -150.5q0 -199 143 -199z" />
    <glyph glyph-name="Gcaron" unicode="&#x1e6;" horiz-adv-x="728" 
d="M715 1725v-21l-231 -220h-90l-233 222v19h107l172 -168l170 168h105zM755 -21q-200 0 -345.5 93.5t-224 260t-78.5 385.5v32q0 216 80.5 379.5t221.5 255.5t320 92q161 0 273.5 -40.5t199.5 -108.5v-271h-103l-10 218q-63 46 -145.5 72t-205.5 26q-145 0 -260.5 -78.5
t-183 -218t-67.5 -324.5v-34q0 -189 62.5 -332.5t180 -223.5t284.5 -80q118 0 208 26t156 62v386l-299 4v97h419v-534q-78 -57 -195 -100.5t-288 -43.5z" />
    <glyph glyph-name="gcaron" unicode="&#x1e7;" horiz-adv-x="615" 
d="M605 1560v-21l-231 -220h-90l-233 222v19h107l172 -168l170 168h105zM536 -437q-79 0 -167 19t-154 51l32 100q64 -31 135.5 -48t151.5 -17q154 0 231.5 91.5t77.5 254.5v132q-54 -79 -138.5 -123t-196.5 -44q-130 0 -223 66t-143 185.5t-50 280.5v21q0 173 50 301
t143.5 198.5t224.5 70.5q116 0 201 -50t138 -140l13 170h101v-1068q0 -139 -50.5 -240t-146.5 -156t-230 -55zM530 82q118 0 195.5 54t117.5 148v495q-38 95 -112 157.5t-199 62.5q-105 0 -176 -59.5t-107 -164.5t-36 -243v-21q0 -196 79.5 -312.5t237.5 -116.5zM939 979
l-39 103h202v-87z" />
    <glyph glyph-name="uni01E8" unicode="&#x1e8;" horiz-adv-x="619" 
d="M631 1725v-21l-231 -220h-90l-233 222v19h107l172 -168l170 168h105zM342 405l-59 90l772 862l1 5l-141 6v88h410v-88l-125 -11zM76 0v87l163 13v1255l-163 13v88h446v-88l-163 -13v-1255l163 -13v-87h-446zM955 0v87l143 7l1 3l-478 658l78 88l549 -744l126 -12v-87
h-419z" />
    <glyph glyph-name="uni01E9" unicode="&#x1e9;" horiz-adv-x="534" 
d="M595 1745v-21l-231 -220h-90l-233 222v19h107l172 -168l170 168h105zM63 0v87l163 13v1359l-163 13v88h283v-1460l163 -13v-87h-446zM760 0v87l119 6l-1 5l-359 485l68 91l436 -576l135 -11v-87h-398zM334 331l-43 100l533 551l1 6l-118 6v88h388v-88l-130 -12z" />
    <glyph glyph-name="uni01EA" unicode="&#x1ea;" horiz-adv-x="780" 
d="M548 -427q-89 0 -143 50t-54 139q0 72 49 139t160 136l61 -37q-80 -67 -121 -117.5t-41 -109.5q0 -40 22 -73t83 -33q30 0 54 9t49 23l24 -82q-30 -19 -65 -31.5t-78 -12.5zM710 -21q-138 0 -250 53t-192 151t-123 233.5t-43 301.5v19q0 166 42.5 301.5t122.5 234
t192 151.5t250 53q141 0 253.5 -53t192 -151.5t121 -234t41.5 -301.5v-19q0 -166 -41.5 -301.5t-120.5 -233.5t-191.5 -151t-253.5 -53zM710 84q158 0 266.5 79t164.5 222t56 333v21q0 190 -56.5 332t-165.5 221.5t-266 79.5q-151 0 -260 -79.5t-167.5 -222t-58.5 -331.5
v-21q0 -190 58.5 -333t168 -222t260.5 -79z" />
    <glyph glyph-name="uni01EB" unicode="&#x1eb;" horiz-adv-x="604" 
d="M450 -427q-89 0 -143 50t-54 139q0 72 49 139t160 136l61 -37q-80 -67 -121 -117.5t-41 -109.5q0 -40 22 -73t83 -33q30 0 54 9t49 23l24 -82q-30 -19 -65 -31.5t-78 -12.5zM572 -21q-146 0 -253.5 69.5t-167 193t-59.5 282.5v33q0 159 59.5 282t167 193t251.5 70
q145 0 252.5 -70t167 -192.5t59.5 -282.5v-33q0 -160 -59.5 -283t-167 -192.5t-250.5 -69.5zM572 79q111 0 191 59t123 160t43 226v33q0 124 -43 225t-123.5 160t-192.5 59t-192.5 -59t-123 -160t-42.5 -225v-33q0 -126 42.5 -226.5t123 -159.5t194.5 -59z" />
    <glyph glyph-name="uni01EC" unicode="&#x1ec;" horiz-adv-x="780" 
d="M548 -427q-89 0 -143 50t-54 139q0 72 49 139t160 136l61 -37q-80 -67 -121 -117.5t-41 -109.5q0 -40 22 -73t83 -33q30 0 54 9t49 23l24 -82q-30 -19 -65 -31.5t-78 -12.5zM136 1553v96h670v-96h-670zM710 -21q-138 0 -250 53t-192 151t-123 233.5t-43 301.5v19
q0 166 42.5 301.5t122.5 234t192 151.5t250 53q141 0 253.5 -53t192 -151.5t121 -234t41.5 -301.5v-19q0 -166 -41.5 -301.5t-120.5 -233.5t-191.5 -151t-253.5 -53zM710 84q158 0 266.5 79t164.5 222t56 333v21q0 190 -56.5 332t-165.5 221.5t-266 79.5q-151 0 -260 -79.5
t-167.5 -222t-58.5 -331.5v-21q0 -190 58.5 -333t168 -222t260.5 -79z" />
    <glyph glyph-name="uni01ED" unicode="&#x1ed;" horiz-adv-x="604" 
d="M450 -427q-89 0 -143 50t-54 139q0 72 49 139t160 136l61 -37q-80 -67 -121 -117.5t-41 -109.5q0 -40 22 -73t83 -33q30 0 54 9t49 23l24 -82q-30 -19 -65 -31.5t-78 -12.5zM48 1388v96h670v-96h-670zM572 -21q-146 0 -253.5 69.5t-167 193t-59.5 282.5v33
q0 159 59.5 282t167 193t251.5 70q145 0 252.5 -70t167 -192.5t59.5 -282.5v-33q0 -160 -59.5 -283t-167 -192.5t-250.5 -69.5zM572 79q111 0 191 59t123 160t43 226v33q0 124 -43 225t-123.5 160t-192.5 59t-192.5 -59t-123 -160t-42.5 -225v-33q0 -126 42.5 -226.5
t123 -159.5t194.5 -59z" />
    <glyph glyph-name="uni01EE" unicode="&#x1ee;" horiz-adv-x="583" 
d="M570 1725v-21l-231 -220h-90l-233 222v19h107l172 -168l170 168h105zM291 440q68 -2 122.5 -30t85 -76.5t30.5 -112.5q0 -109 -76 -170t-212 -61q-126 0 -206 39v82q49 -23 104 -35t103 -12q97 0 145 41t48 117q0 69 -49.5 107t-143.5 38h-62v65l206 202h-331v80h444v-71
z" />
    <glyph glyph-name="uni01EF" unicode="&#x1ef;" horiz-adv-x="498" 
d="M541 -395q-127 0 -233 48.5t-168 142t-59 227.5l2 6h113q0 -93 43 -166t121 -115t181 -42q157 0 246.5 84t89.5 226q0 181 -96.5 266t-275.5 85h-106v101l425 507l-3 5h-601l-6 -204h-107v306h869l2 -92l-443 -530q226 -8 344 -123t118 -317q0 -128 -58 -221.5
t-161 -143.5t-237 -50zM525 1560v-21l-231 -220h-90l-233 222v19h107l172 -168l170 168h105z" />
    <glyph glyph-name="uni01F0" unicode="&#x1f0;" horiz-adv-x="545" 
d="M594 1560v-21l-231 -220h-90l-233 222v19h107l172 -168l170 168h105zM84 -437q-31 0 -57 5t-55 14l13 97q16 -5 46.5 -10t52.5 -5q86 0 134.5 65t48.5 182v1070l-163 13v88h283v-1171q0 -167 -80 -257.5t-223 -90.5z" />
    <glyph glyph-name="uni01F1" unicode="&#x1f1;" horiz-adv-x="1291" 
d="M76 0v87l163 13v1255l-163 13v88h163h400q186 0 327 -92.5t221.5 -254t80.5 -369.5v-24q0 -207 -79 -368.5t-219.5 -254.5t-325.5 -93h-568zM359 100h280q152 0 266 81.5t178.5 221t64.5 313.5v26q0 176 -64.5 314.5t-178.5 218.5t-266 80h-280v-1255zM811 0v92l850 1264
h-711l-8 -216h-102v316h966v-87l-852 -1269h774l9 224h101v-324h-1027z" />
    <glyph glyph-name="uni01F2" unicode="&#x1f2;" horiz-adv-x="1200" 
d="M76 0v87l163 13v1255l-163 13v88h163h400q186 0 327 -92.5t221.5 -254t80.5 -369.5v-24q0 -207 -79 -368.5t-219.5 -254.5t-325.5 -93h-568zM359 100h280q152 0 266 81.5t178.5 221t64.5 313.5v26q0 176 -64.5 314.5t-178.5 218.5t-266 80h-280v-1255zM835 0v87l655 895
h-539l-12 -212h-97v312h800v-88l-658 -896h599l12 213h97v-311h-857z" />
    <glyph glyph-name="uni01F3" unicode="&#x1f3;" horiz-adv-x="1084" 
d="M505 -21q-129 0 -222 66t-142 185t-49 281v21q0 173 49 301t142.5 198.5t223.5 70.5q113 0 196.5 -48t137.5 -134v539l-163 13v88h163h120v-1460l163 -13v-87h-270l-9 153q-53 -82 -139 -128t-201 -46zM527 82q117 0 195 53t119 144v505q-39 94 -114 154.5t-198 60.5
q-105 0 -175 -59t-105.5 -164t-35.5 -244v-21q0 -196 78.5 -312.5t235.5 -116.5zM720 0v87l655 895h-539l-12 -212h-97v312h800v-88l-658 -896h599l12 213h97v-311h-857z" />
    <glyph glyph-name="uni01F4" unicode="&#x1f4;" horiz-adv-x="728" 
d="M755 -21q-200 0 -345.5 93.5t-224 260t-78.5 385.5v32q0 216 80.5 379.5t221.5 255.5t320 92q161 0 273.5 -40.5t199.5 -108.5v-271h-103l-10 218q-63 46 -145.5 72t-205.5 26q-145 0 -260.5 -78.5t-183 -218t-67.5 -324.5v-34q0 -189 62.5 -332.5t180 -223.5t284.5 -80
q118 0 208 26t156 62v386l-299 4v97h419v-534q-78 -57 -195 -100.5t-288 -43.5zM214 1475l182 250h140l2 -5l-231 -248h-88z" />
    <glyph glyph-name="uni01F5" unicode="&#x1f5;" horiz-adv-x="615" 
d="M536 -437q-79 0 -167 19t-154 51l32 100q64 -31 135.5 -48t151.5 -17q154 0 231.5 91.5t77.5 254.5v132q-54 -79 -138.5 -123t-196.5 -44q-130 0 -223 66t-143 185.5t-50 280.5v21q0 173 50 301t143.5 198.5t224.5 70.5q116 0 201 -50t138 -140l13 170h101v-1068
q0 -139 -50.5 -240t-146.5 -156t-230 -55zM530 82q118 0 195.5 54t117.5 148v495q-38 95 -112 157.5t-199 62.5q-105 0 -176 -59.5t-107 -164.5t-36 -243v-21q0 -196 79.5 -312.5t237.5 -116.5zM939 979l-39 103h202v-87zM76 1310l182 250h140l2 -5l-231 -248h-88z" />
    <glyph glyph-name="uni01F6" unicode="&#x1f6;" horiz-adv-x="937" 
d="M187 333v-333h-90v714h90v-302h296v302h90v-550q0 -45 23 -70t70 -25q44 0 68 25t24 71v371h90v-371q0 -81 -49 -127.5t-136 -46.5q-85 0 -132.5 46t-47.5 129v167h-296z" />
    <glyph glyph-name="uni01F7" unicode="&#x1f7;" horiz-adv-x="661" 
d="M389 725q103 0 160 -64t57 -179q0 -161 -106.5 -284.5t-312.5 -207.5v-230h-90v955h71l15 -97h5q37 55 86.5 81t114.5 26zM187 74q161 67 245 171.5t84 235.5q0 81 -37 123.5t-106 42.5q-94 0 -140 -55.5t-46 -173.5v-344z" />
    <glyph glyph-name="uni01F8" unicode="&#x1f8;" horiz-adv-x="759" 
d="M77 0v87l163 13v1255l-163 13v88h163h121l832 -1252l6 2v1149l-170 13v88h283h163v-88l-163 -13v-1355h-112l-841 1257l-6 -2v-1155l170 -13v-87h-446zM414 1475l-5 -3h-88l-231 248l2 5h141z" />
    <glyph glyph-name="uni01F9" unicode="&#x1f9;" horiz-adv-x="618" 
d="M82 0v87l163 13v881l-163 13v88h269l10 -194q52 102 140 158t210 56q176 0 268 -107.5t92 -336.5v-558l163 -13v-87h-446v87l163 13v557q0 188 -69 265t-197 77q-134 0 -212 -75t-108 -196v-628l163 -13v-87h-446zM353 1310l-5 -3h-88l-231 248l2 5h141z" />
    <glyph glyph-name="Aringacute" unicode="&#x1fa;" horiz-adv-x="1500" 
d="M743 1387q-75 0 -127.5 49t-52.5 124t52.5 126.5t127.5 51.5t127 -51t52 -127q0 -75 -52 -124t-127 -49zM743 1458q45 0 74 28.5t29 73.5q0 47 -29 77t-74 30q-44 0 -73.5 -30t-29.5 -77q0 -44 30 -73t73 -29zM682 1796l132 222h123l2 -6l-172 -219h-80zM62 0v87l107 7
l517 1362h114l513 -1362l107 -7v-87h-359v87l128 9l-121 329h-653l-122 -329l128 -9v-87h-359zM454 530h575l-263 715l-20 59h-6l-21 -59z" />
    <glyph glyph-name="aringacute" unicode="&#x1fb;" horiz-adv-x="1123" 
d="M524 1071q-78 0 -132 50t-54 129q0 77 54 129.5t132 52.5q76 0 130 -52t54 -130q0 -79 -54 -129t-130 -50zM524 1141q46 0 77 30.5t31 78.5t-31 79.5t-77 31.5q-47 0 -78 -31.5t-31 -79.5q0 -47 31 -78t78 -31zM462 1507l132 221h124l2 -5l-172 -219h-80zM420 -21
q-154 0 -241 82t-87 222q0 100 58 175.5t164.5 117.5t252.5 42h224v124q0 117 -69.5 188.5t-209.5 71.5q-79 0 -141.5 -25.5t-108.5 -64.5l-10 -165h-99v226q70 60 159 94.5t202 34.5q191 0 294 -96t103 -266v-522q0 -32 2 -63.5t7 -62.5l129 -5v-87h-236q-12 59 -16.5 95
t-5.5 81q-59 -87 -156 -142t-215 -55zM434 84q111 0 210.5 58.5t146.5 155.5v228h-225q-166 0 -260 -71.5t-94 -175.5q0 -87 60 -141t162 -54z" />
    <glyph glyph-name="AEacute" unicode="&#x1fc;" horiz-adv-x="2058" 
d="M1037 1587l182 250h140l2 -5l-231 -248h-88zM51 0v87l129 9l823 1360h864v-306h-106l-7 205h-580l23 -546h589v-101h-585l25 -608h589l8 206h106v-306h-981v87l158 13l-12 290h-594l-176 -296l108 -7v-87h-381zM564 502h526l-35 825l-5 1l-35 -63z" />
    <glyph glyph-name="aeacute" unicode="&#x1fd;" horiz-adv-x="1768" 
d="M807 1310l182 250h140l2 -5l-231 -248h-88zM425 -21q-157 0 -245 85.5t-88 229.5q0 102 58 179t164.5 120t253.5 43h223v106q0 117 -69.5 188.5t-209.5 71.5q-78 0 -140.5 -25.5t-109.5 -64.5l-9 -165h-100v226q70 60 159.5 94.5t201.5 34.5q145 0 236 -58.5t123 -164.5
q35 67 91 117.5t127.5 78t148.5 27.5q134 0 228.5 -56t144.5 -159.5t50 -247.5v-100h-751l-1 -44q0 -185 90 -300.5t269 -115.5q103 0 179 31.5t144 88.5l48 -87q-60 -56 -148.5 -94.5t-222.5 -38.5q-281 0 -418 242q-70 -113 -179.5 -177.5t-247.5 -64.5zM434 84
q77 0 149 30t130.5 84t90.5 126q-6 48 -9.5 90.5t-3.5 88.5v41h-225q-165 0 -259.5 -73.5t-94.5 -180.5q0 -87 60 -146.5t162 -59.5zM914 636h629v31q0 147 -77 240.5t-226 93.5q-93 0 -164 -46.5t-113.5 -127.5t-50.5 -186z" />
    <glyph glyph-name="Oslashacute" unicode="&#x1fe;" horiz-adv-x="1425" 
d="M621 1587l182 250h140l2 -5l-231 -248h-88zM710 -21q-138 0 -250 53t-192 151t-123 233.5t-43 301.5v19q0 166 42.5 301.5t122.5 234t192 151.5t250 53q141 0 253.5 -53t192 -151.5t121 -234t41.5 -301.5v-19q0 -166 -41.5 -301.5t-120.5 -233.5t-191.5 -151t-253.5 -53z
M710 84q158 0 266.5 79t164.5 222t56 333v21q0 190 -56.5 332t-165.5 221.5t-266 79.5q-151 0 -260 -79.5t-167.5 -222t-58.5 -331.5v-21q0 -190 58.5 -333t168 -222t260.5 -79zM171 -74l978 1589h104l-978 -1589h-104z" />
    <glyph glyph-name="oslashacute" unicode="&#x1ff;" horiz-adv-x="1141" 
d="M482 1310l182 250h140l2 -5l-231 -248h-88zM572 -21q-146 0 -253.5 69.5t-167 193t-59.5 282.5v33q0 159 59.5 282t167 193t251.5 70q145 0 252.5 -70t167 -192.5t59.5 -282.5v-33q0 -160 -59.5 -283t-167 -192.5t-250.5 -69.5zM572 79q111 0 191 59t123 160t43 226v33
q0 124 -43 225t-123.5 160t-192.5 59t-192.5 -59t-123 -160t-42.5 -225v-33q0 -126 42.5 -226.5t123 -159.5t194.5 -59zM176 -136l696 1354h93l-696 -1354h-93z" />
    <glyph glyph-name="uni0200" unicode="&#x200;" horiz-adv-x="639" 
d="M1017 1472h-107l-262 247l2 6h142l227 -247zM1265 1474h-95l-216 245l2 6h132l181 -248zM62 0v87l107 7l517 1362h114l513 -1362l107 -7v-87h-359v87l128 9l-121 329h-653l-122 -329l128 -9v-87h-359zM454 530h575l-263 715l-20 59h-6l-21 -59z" />
    <glyph glyph-name="uni0201" unicode="&#x201;" horiz-adv-x="561" 
d="M983 1307h-107l-262 247l2 6h142l227 -247zM1231 1309h-95l-216 245l2 6h132l181 -248zM420 -21q-154 0 -241 82t-87 222q0 100 58 175.5t164.5 117.5t252.5 42h224v124q0 117 -69.5 188.5t-209.5 71.5q-79 0 -141.5 -25.5t-108.5 -64.5l-10 -165h-99v226q70 60 159 94.5
t202 34.5q191 0 294 -96t103 -266v-522q0 -32 2 -63.5t7 -62.5l129 -5v-87h-236q-12 59 -16.5 95t-5.5 81q-59 -87 -156 -142t-215 -55zM434 84q111 0 210.5 58.5t146.5 155.5v228h-225q-166 0 -260 -71.5t-94 -175.5q0 -87 60 -141t162 -54z" />
    <glyph glyph-name="uni0202" unicode="&#x202;" horiz-adv-x="639" 
d="M322 905q69 0 108.5 -33.5t44.5 -100.5h-54q-4 36 -25 49.5t-76 13.5q-50 0 -73.5 -15.5t-27.5 -47.5h-55q5 63 47.5 98.5t110.5 35.5zM62 0v87l107 7l517 1362h114l513 -1362l107 -7v-87h-359v87l128 9l-121 329h-653l-122 -329l128 -9v-87h-359zM454 530h575l-263 715
l-20 59h-6l-21 -59z" />
    <glyph glyph-name="uni0203" unicode="&#x203;" horiz-adv-x="561" 
d="M293 740q69 0 108.5 -33.5t44.5 -100.5h-54q-4 36 -25 49.5t-76 13.5q-50 0 -73.5 -15.5t-27.5 -47.5h-55q5 63 47.5 98.5t110.5 35.5zM420 -21q-154 0 -241 82t-87 222q0 100 58 175.5t164.5 117.5t252.5 42h224v124q0 117 -69.5 188.5t-209.5 71.5q-79 0 -141.5 -25.5
t-108.5 -64.5l-10 -165h-99v226q70 60 159 94.5t202 34.5q191 0 294 -96t103 -266v-522q0 -32 2 -63.5t7 -62.5l129 -5v-87h-236q-12 59 -16.5 95t-5.5 81q-59 -87 -156 -142t-215 -55zM434 84q111 0 210.5 58.5t146.5 155.5v228h-225q-166 0 -260 -71.5t-94 -175.5
q0 -87 60 -141t162 -54z" />
    <glyph glyph-name="uni0204" unicode="&#x204;" horiz-adv-x="556" 
d="M1005 1472h-107l-262 247l2 6h142l227 -247zM1253 1474h-95l-216 245l2 6h132l181 -248zM76 0v87l163 13v1255l-163 13v88h1046v-319h-102l-10 220h-651v-551h587v-100h-587v-609h682l10 222h101v-319h-1076z" />
    <glyph glyph-name="uni0205" unicode="&#x205;" horiz-adv-x="563" 
d="M999 1307h-107l-262 247l2 6h142l227 -247zM1247 1309h-95l-216 245l2 6h132l181 -248zM565 -21q-139 0 -245 67.5t-166 187t-60 275.5v55q0 155 60 276.5t162.5 191.5t228.5 70q133 0 227.5 -57t145 -160.5t50.5 -243.5v-102h-750l-2 -44q1 -120 44.5 -214t122 -148
t182.5 -54q102 0 179.5 32.5t136.5 88.5l51 -82q-63 -60 -152.5 -99.5t-214.5 -39.5zM226 639h622v30q0 95 -36.5 170.5t-104 118.5t-162.5 43q-86 0 -155 -46.5t-112.5 -127t-53.5 -182.5z" />
    <glyph glyph-name="uni0206" unicode="&#x206;" horiz-adv-x="556" 
d="M300 905q69 0 108.5 -33.5t44.5 -100.5h-54q-4 36 -25 49.5t-76 13.5q-50 0 -73.5 -15.5t-27.5 -47.5h-55q5 63 47.5 98.5t110.5 35.5zM76 0v87l163 13v1255l-163 13v88h1046v-319h-102l-10 220h-651v-551h587v-100h-587v-609h682l10 222h101v-319h-1076z" />
    <glyph glyph-name="uni0207" unicode="&#x207;" horiz-adv-x="563" 
d="M294 740q69 0 108.5 -33.5t44.5 -100.5h-54q-4 36 -25 49.5t-76 13.5q-50 0 -73.5 -15.5t-27.5 -47.5h-55q5 63 47.5 98.5t110.5 35.5zM565 -21q-139 0 -245 67.5t-166 187t-60 275.5v55q0 155 60 276.5t162.5 191.5t228.5 70q133 0 227.5 -57t145 -160.5t50.5 -243.5
v-102h-750l-2 -44q1 -120 44.5 -214t122 -148t182.5 -54q102 0 179.5 32.5t136.5 88.5l51 -82q-63 -60 -152.5 -99.5t-214.5 -39.5zM226 639h622v30q0 95 -36.5 170.5t-104 118.5t-162.5 43q-86 0 -155 -46.5t-112.5 -127t-53.5 -182.5z" />
    <glyph glyph-name="uni0208" unicode="&#x208;" horiz-adv-x="338" 
d="M867 1472h-107l-262 247l2 6h142l227 -247zM1115 1474h-95l-216 245l2 6h132l181 -248zM76 0v87l163 13v1255l-163 13v88h446v-88l-163 -13v-1255l163 -13v-87h-446z" />
    <glyph glyph-name="uni0209" unicode="&#x209;" horiz-adv-x="257" 
d="M826 1307h-107l-262 247l2 6h142l227 -247zM1074 1309h-95l-216 245l2 6h132l181 -248zM79 0v87l163 13v881l-163 13v88h283v-982l163 -13v-87h-446z" />
    <glyph glyph-name="uni020A" unicode="&#x20a;" horiz-adv-x="338" 
d="M172 905q69 0 108.5 -33.5t44.5 -100.5h-54q-4 36 -25 49.5t-76 13.5q-50 0 -73.5 -15.5t-27.5 -47.5h-55q5 63 47.5 98.5t110.5 35.5zM76 0v87l163 13v1255l-163 13v88h446v-88l-163 -13v-1255l163 -13v-87h-446z" />
    <glyph glyph-name="uni020B" unicode="&#x20b;" horiz-adv-x="257" 
d="M131 740q69 0 108.5 -33.5t44.5 -100.5h-54q-4 36 -25 49.5t-76 13.5q-50 0 -73.5 -15.5t-27.5 -47.5h-55q5 63 47.5 98.5t110.5 35.5zM79 0v87l163 13v881l-163 13v88h283v-982l163 -13v-87h-446z" />
    <glyph glyph-name="uni020C" unicode="&#x20c;" horiz-adv-x="780" 
d="M1089 1472h-107l-262 247l2 6h142l227 -247zM1337 1474h-95l-216 245l2 6h132l181 -248zM710 -21q-138 0 -250 53t-192 151t-123 233.5t-43 301.5v19q0 166 42.5 301.5t122.5 234t192 151.5t250 53q141 0 253.5 -53t192 -151.5t121 -234t41.5 -301.5v-19
q0 -166 -41.5 -301.5t-120.5 -233.5t-191.5 -151t-253.5 -53zM710 84q158 0 266.5 79t164.5 222t56 333v21q0 190 -56.5 332t-165.5 221.5t-266 79.5q-151 0 -260 -79.5t-167.5 -222t-58.5 -331.5v-21q0 -190 58.5 -333t168 -222t260.5 -79z" />
    <glyph glyph-name="uni020D" unicode="&#x20d;" horiz-adv-x="604" 
d="M1006 1307h-107l-262 247l2 6h142l227 -247zM1254 1309h-95l-216 245l2 6h132l181 -248zM572 -21q-146 0 -253.5 69.5t-167 193t-59.5 282.5v33q0 159 59.5 282t167 193t251.5 70q145 0 252.5 -70t167 -192.5t59.5 -282.5v-33q0 -160 -59.5 -283t-167 -192.5
t-250.5 -69.5zM572 79q111 0 191 59t123 160t43 226v33q0 124 -43 225t-123.5 160t-192.5 59t-192.5 -59t-123 -160t-42.5 -225v-33q0 -126 42.5 -226.5t123 -159.5t194.5 -59z" />
    <glyph glyph-name="uni020E" unicode="&#x20e;" horiz-adv-x="780" 
d="M393 905q69 0 108.5 -33.5t44.5 -100.5h-54q-4 36 -25 49.5t-76 13.5q-50 0 -73.5 -15.5t-27.5 -47.5h-55q5 63 47.5 98.5t110.5 35.5zM710 -21q-138 0 -250 53t-192 151t-123 233.5t-43 301.5v19q0 166 42.5 301.5t122.5 234t192 151.5t250 53q141 0 253.5 -53
t192 -151.5t121 -234t41.5 -301.5v-19q0 -166 -41.5 -301.5t-120.5 -233.5t-191.5 -151t-253.5 -53zM710 84q158 0 266.5 79t164.5 222t56 333v21q0 190 -56.5 332t-165.5 221.5t-266 79.5q-151 0 -260 -79.5t-167.5 -222t-58.5 -331.5v-21q0 -190 58.5 -333t168 -222
t260.5 -79z" />
    <glyph glyph-name="uni020F" unicode="&#x20f;" horiz-adv-x="604" 
d="M305 740q69 0 108.5 -33.5t44.5 -100.5h-54q-4 36 -25 49.5t-76 13.5q-50 0 -73.5 -15.5t-27.5 -47.5h-55q5 63 47.5 98.5t110.5 35.5zM572 -21q-146 0 -253.5 69.5t-167 193t-59.5 282.5v33q0 159 59.5 282t167 193t251.5 70q145 0 252.5 -70t167 -192.5t59.5 -282.5
v-33q0 -160 -59.5 -283t-167 -192.5t-250.5 -69.5zM572 79q111 0 191 59t123 160t43 226v33q0 124 -43 225t-123.5 160t-192.5 59t-192.5 -59t-123 -160t-42.5 -225v-33q0 -126 42.5 -226.5t123 -159.5t194.5 -59z" />
    <glyph glyph-name="uni0210" unicode="&#x210;" horiz-adv-x="622" 
d="M1008 1472h-107l-262 247l2 6h142l227 -247zM1256 1474h-95l-216 245l2 6h132l181 -248zM76 -1v88l163 13v1255l-163 13v87h614q156 0 264 -46t164.5 -134t56.5 -217q0 -125 -58.5 -211t-164 -130.5t-247.5 -45.5l-346 -3v-568l163 -13v-88h-446zM1055 -1l-313 723l120 1
l278 -627l119 -8v-89h-204zM359 768h319q195 0 286 80t91 211q0 141 -91 218.5t-274 77.5h-331v-587z" />
    <glyph glyph-name="uni0211" unicode="&#x211;" horiz-adv-x="413" 
d="M944 1307h-107l-262 247l2 6h142l227 -247zM1192 1309h-95l-216 245l2 6h132l181 -248zM81 0v87l163 13v881l-163 13v88h268l13 -165l1 -29q46 101 125 157.5t189 56.5q27 0 57.5 -4.5t44.5 -9.5l-15 -110l-111 7q-115 3 -188 -66t-101 -183v-636l163 -13v-87h-446z" />
    <glyph glyph-name="uni0212" unicode="&#x212;" horiz-adv-x="622" 
d="M313 905q69 0 108.5 -33.5t44.5 -100.5h-54q-4 36 -25 49.5t-76 13.5q-50 0 -73.5 -15.5t-27.5 -47.5h-55q5 63 47.5 98.5t110.5 35.5zM76 -1v88l163 13v1255l-163 13v87h614q156 0 264 -46t164.5 -134t56.5 -217q0 -125 -58.5 -211t-164 -130.5t-247.5 -45.5l-346 -3
v-568l163 -13v-88h-446zM1055 -1l-313 723l120 1l278 -627l119 -8v-89h-204zM359 768h319q195 0 286 80t91 211q0 141 -91 218.5t-274 77.5h-331v-587z" />
    <glyph glyph-name="uni0213" unicode="&#x213;" horiz-adv-x="413" 
d="M244 740q69 0 108.5 -33.5t44.5 -100.5h-54q-4 36 -25 49.5t-76 13.5q-50 0 -73.5 -15.5t-27.5 -47.5h-55q5 63 47.5 98.5t110.5 35.5zM81 0v87l163 13v881l-163 13v88h268l13 -165l1 -29q46 101 125 157.5t189 56.5q27 0 57.5 -4.5t44.5 -9.5l-15 -110l-111 7
q-115 3 -188 -66t-101 -183v-636l163 -13v-87h-446z" />
    <glyph glyph-name="uni0214" unicode="&#x214;" horiz-adv-x="730" 
d="M1077 1472h-107l-262 247l2 6h142l227 -247zM1325 1474h-95l-216 245l2 6h132l181 -248zM737 -21q-150 0 -264.5 57.5t-179.5 167t-65 265.5v886l-163 13v88h446v-88l-163 -13v-886q0 -124 49.5 -210.5t137.5 -132t203 -45.5t204 45t139 131.5t50 211.5v886l-163 13v88
h446v-88l-163 -13v-886q0 -159 -64.5 -268t-180.5 -165.5t-269 -56.5z" />
    <glyph glyph-name="uni0215" unicode="&#x215;" horiz-adv-x="618" 
d="M1006 1307h-107l-262 247l2 6h142l227 -247zM1254 1309h-95l-216 245l2 6h132l181 -248zM541 -21q-170 0 -264.5 116t-94.5 360v526l-134 13v88h134h120v-629q0 -198 65 -284.5t188 -86.5q139 0 217 64.5t107 173.5v661l-154 13v88h154h121v-982l145 -13v-87h-251
l-10 178q-51 -95 -136.5 -147t-206.5 -52z" />
    <glyph glyph-name="uni0216" unicode="&#x216;" horiz-adv-x="730" 
d="M368 905q69 0 108.5 -33.5t44.5 -100.5h-54q-4 36 -25 49.5t-76 13.5q-50 0 -73.5 -15.5t-27.5 -47.5h-55q5 63 47.5 98.5t110.5 35.5zM737 -21q-150 0 -264.5 57.5t-179.5 167t-65 265.5v886l-163 13v88h446v-88l-163 -13v-886q0 -124 49.5 -210.5t137.5 -132t203 -45.5
t204 45t139 131.5t50 211.5v886l-163 13v88h446v-88l-163 -13v-886q0 -159 -64.5 -268t-180.5 -165.5t-269 -56.5z" />
    <glyph glyph-name="uni0217" unicode="&#x217;" horiz-adv-x="618" 
d="M311 740q69 0 108.5 -33.5t44.5 -100.5h-54q-4 36 -25 49.5t-76 13.5q-50 0 -73.5 -15.5t-27.5 -47.5h-55q5 63 47.5 98.5t110.5 35.5zM541 -21q-170 0 -264.5 116t-94.5 360v526l-134 13v88h134h120v-629q0 -198 65 -284.5t188 -86.5q139 0 217 64.5t107 173.5v661
l-154 13v88h154h121v-982l145 -13v-87h-251l-10 178q-51 -95 -136.5 -147t-206.5 -52z" />
    <glyph glyph-name="uni0218" unicode="&#x218;" horiz-adv-x="1194" 
d="M550 -534l-60 52q34 46 49.5 90.5t15.5 105.5v76h112v-74q0 -78 -29.5 -139.5t-87.5 -110.5zM597 -21q-125 0 -249.5 38t-240.5 118v282h100l15 -227q88 -55 183 -82t192 -27q115 0 200.5 35.5t133 99t47.5 146.5q0 80 -38.5 140.5t-125 106.5t-234.5 84
q-159 41 -259.5 96t-148 132.5t-47.5 184.5q0 109 58 192.5t162.5 131t243.5 47.5q147 0 262.5 -44t195.5 -113v-260h-99l-15 206q-63 51 -149 80t-195 29q-107 0 -184 -35.5t-118.5 -95.5t-41.5 -136q0 -73 33 -128.5t114 -98t227 -81.5q237 -61 358 -164.5t121 -271.5
q0 -116 -63.5 -202.5t-176.5 -134.5t-261 -48z" />
    <glyph glyph-name="uni0219" unicode="&#x219;" horiz-adv-x="1015" 
d="M460 -534l-60 52q34 46 49.5 90.5t15.5 105.5v76h112v-74q0 -78 -29.5 -139.5t-87.5 -110.5zM499 -21q-114 0 -211.5 30.5t-183.5 88.5l-1 222h98l17 -159q58 -45 129 -65t152 -20q136 0 207 59t71 140q0 76 -63.5 134.5t-225.5 94.5q-194 42 -280.5 112t-86.5 195
q0 82 46 148t130.5 104.5t198.5 38.5q119 0 207 -34.5t151 -92.5l5 -222h-98l-14 160q-45 43 -105 66.5t-146 23.5q-122 0 -188 -56.5t-66 -131.5q0 -49 20.5 -85.5t79 -65.5t170.5 -55q203 -46 294 -124.5t91 -203.5q0 -132 -102.5 -217t-295.5 -85z" />
    <glyph glyph-name="uni021A" unicode="&#x21a;" horiz-adv-x="1337" 
d="M621 -534l-60 52q34 46 49.5 90.5t15.5 105.5v76h112v-74q0 -78 -29.5 -139.5t-87.5 -110.5zM444 0v87l163 13v1258h-409l-13 -222h-98v320h1159v-320h-97l-14 222h-408v-1258l163 -13v-87h-446z" />
    <glyph glyph-name="uni021B" unicode="&#x21b;" horiz-adv-x="724" 
d="M392 -534l-60 52q34 46 49.5 90.5t15.5 105.5v76h112v-74q0 -78 -29.5 -139.5t-87.5 -110.5zM473 -19q-114 0 -177 70.5t-63 227.5v706h-187v97h187v278h120v-278h252v-97h-252v-706q0 -108 38.5 -155.5t102.5 -47.5q34 0 67 4.5t68 9.5l18 -86q-36 -11 -82 -17t-92 -6z
" />
    <glyph glyph-name="uni021C" unicode="&#x21c;" horiz-adv-x="587" 
d="M576 -21q-136 0 -251 48.5t-183.5 142t-65.5 228.5l2 6h112q0 -94 48 -167t135 -115.5t205 -42.5q185 0 294.5 84.5t109.5 234.5q0 149 -101 221t-300 72h-175v103h175q194 0 286 74t92 207q0 136 -97 218.5t-290 82.5q-126 0 -220 -42.5t-150 -112.5l-17 -210h-94v245
q68 95 196 158t293 63q231 0 365 -103t134 -288q0 -120 -69.5 -208.5t-195.5 -131.5q142 -38 215 -127t73 -224q0 -130 -66.5 -223t-185 -143t-274.5 -50z" />
    <glyph glyph-name="uni021D" unicode="&#x21d;" horiz-adv-x="498" 
d="M193 228q70 0 111.5 35t41.5 90t-38.5 88t-103.5 33q-30 0 -60.5 -7.5t-72.5 -26.5l-30 70q44 21 83 28.5t85 7.5q103 0 162 -48t59 -133q0 -61 -31.5 -105t-95.5 -65q81 -21 121 -71t40 -123q0 -70 -33 -125.5t-93.5 -85.5t-138.5 -30q-116 0 -189 37v80
q44 -21 95 -32.5t98 -11.5q79 0 126 45t47 121q0 77 -51 118t-151 41h-79v70h98z" />
    <glyph glyph-name="uni021E" unicode="&#x21e;" horiz-adv-x="741" 
d="M668 1725v-21l-231 -220h-90l-233 222v19h107l172 -168l170 168h105zM76 0v87l163 13v1255l-163 13v88h446v-88l-163 -13v-583h822v583l-163 13v88h163h120h163v-88l-163 -13v-1255l163 -13v-87h-446v87l163 13v571h-822v-571l163 -13v-87h-446z" />
    <glyph glyph-name="uni021F" unicode="&#x21f;" horiz-adv-x="618" 
d="M632 1745v-21l-231 -220h-90l-233 222v19h107l172 -168l170 168h105zM56 0v87l163 13v1359l-163 13v88h283v-667q53 99 142.5 154t210.5 55q171 0 262.5 -105.5t91.5 -329.5v-567l163 -13v-87h-446v87l163 13v569q0 177 -69 253.5t-192 76.5q-132 0 -212.5 -74
t-113.5 -192v-633l163 -13v-87h-446z" />
    <glyph glyph-name="uni0220" unicode="&#x220;" horiz-adv-x="741" 
d="M392 647q-205 0 -205 -224v-423h-90v715h71l15 -92h5q32 45 93 73.5t122 28.5q247 0 247 -264v-701h-90v701q0 97 -41 141.5t-127 44.5z" />
    <glyph glyph-name="uni0221" unicode="&#x221;" horiz-adv-x="615" 
d="M530 -72q0 -52 12 -74t45 -22q36 0 57 11v-67q-23 -16 -76 -16q-126 0 -126 167v63q0 12 2.5 41t3.5 38h-6q-58 -79 -166 -79q-105 0 -163 73t-58 204t58 205t163 74q108 0 166 -79h6q-1 10 -3.5 39.5t-2.5 39.5v214h88v-832zM289 63q80 0 117 43.5t37 143.5v16
q0 112 -37.5 159.5t-117.5 47.5q-68 0 -105 -54t-37 -154t37 -151t106 -51z" />
    <glyph glyph-name="uni0222" unicode="&#x222;" horiz-adv-x="670" 
d="M335 470q74 0 113 41t39 115v88h90v-88q0 -145 -115 -193q74 -23 112.5 -74t38.5 -127q0 -112 -74.5 -177t-205.5 -65q-81 0 -143.5 29.5t-97 85t-34.5 127.5q0 157 149 202q-113 46 -113 192v88h90v-88q0 -74 39 -115t112 -41zM153 232q0 -82 46 -123t136 -41
t136.5 41.5t46.5 122.5q0 161 -184 161q-181 0 -181 -161z" />
    <glyph glyph-name="uni0223" unicode="&#x223;" horiz-adv-x="604" 
d="M303 485q67 0 96.5 36t29.5 113v126h88v-129q0 -77 -23 -121t-74 -63q65 -25 98 -78t33 -130q0 -117 -67 -183t-183 -66q-111 0 -178.5 67.5t-67.5 181.5q0 162 130 209q-51 19 -73.5 63.5t-22.5 119.5v129h88v-126q0 -77 29.5 -113t96.5 -36zM146 239q0 -86 39.5 -131
t117.5 -45q77 0 117 44.5t40 131.5t-41 130t-117 43q-77 0 -116.5 -43.5t-39.5 -129.5z" />
    <glyph glyph-name="uni0224" unicode="&#x224;" horiz-adv-x="571" 
d="M416 -198q-29 0 -60 12v73q22 -9 50 -9q48 0 48 52v150h79v-145q0 -133 -117 -133zM91 0v92l850 1264h-711l-8 -216h-102v316h966v-87l-852 -1269h774l9 224h101v-324h-1027z" />
    <glyph glyph-name="uni0225" unicode="&#x225;" horiz-adv-x="470" 
d="M431 -65q0 -133 -117 -133q-29 0 -60 12v73q22 -9 50 -9q48 0 48 52v70h-313v58l288 410h-271v68h368v-66l-284 -402h291v-133z" />
    <glyph glyph-name="uni0226" unicode="&#x226;" horiz-adv-x="639" 
d="M230 1552v173h134v-173h-134zM62 0v87l107 7l517 1362h114l513 -1362l107 -7v-87h-359v87l128 9l-121 329h-653l-122 -329l128 -9v-87h-359zM454 530h575l-263 715l-20 59h-6l-21 -59z" />
    <glyph glyph-name="uni0227" unicode="&#x227;" horiz-adv-x="561" 
d="M191 1387v173h134v-173h-134zM420 -21q-154 0 -241 82t-87 222q0 100 58 175.5t164.5 117.5t252.5 42h224v124q0 117 -69.5 188.5t-209.5 71.5q-79 0 -141.5 -25.5t-108.5 -64.5l-10 -165h-99v226q70 60 159 94.5t202 34.5q191 0 294 -96t103 -266v-522q0 -32 2 -63.5
t7 -62.5l129 -5v-87h-236q-12 59 -16.5 95t-5.5 81q-59 -87 -156 -142t-215 -55zM434 84q111 0 210.5 58.5t146.5 155.5v228h-225q-166 0 -260 -71.5t-94 -175.5q0 -87 60 -141t162 -54z" />
    <glyph glyph-name="uni0228" unicode="&#x228;" horiz-adv-x="556" 
d="M76 0v87l163 13v1255l-163 13v88h1046v-319h-102l-10 220h-651v-551h587v-100h-587v-609h682l10 222h101v-319h-1076zM232 -435l-7 77q90 0 151 30.5t61 88.5q0 57 -41 78.5t-145 30.5l32 145h93l-15 -83q80 -9 128 -48t48 -121q0 -90 -79 -144t-226 -54z" />
    <glyph glyph-name="uni0229" unicode="&#x229;" horiz-adv-x="563" 
d="M565 -21q-139 0 -245 67.5t-166 187t-60 275.5v55q0 155 60 276.5t162.5 191.5t228.5 70q133 0 227.5 -57t145 -160.5t50.5 -243.5v-102h-750l-2 -44q1 -120 44.5 -214t122 -148t182.5 -54q102 0 179.5 32.5t136.5 88.5l51 -82q-63 -60 -152.5 -99.5t-214.5 -39.5z
M226 639h622v30q0 95 -36.5 170.5t-104 118.5t-162.5 43q-86 0 -155 -46.5t-112.5 -127t-53.5 -182.5zM226 -435l-7 77q90 0 151 30.5t61 88.5q0 57 -41 78.5t-145 30.5l32 145h93l-15 -83q80 -9 128 -48t48 -121q0 -90 -79 -144t-226 -54z" />
    <glyph glyph-name="uni022A" unicode="&#x22a;" horiz-adv-x="780" 
d="M531 828q0 -23 -12.5 -36t-34.5 -13t-34.5 13t-12.5 36q0 26 14 38t33 12q20 0 33.5 -12t13.5 -38zM343 828q0 -26 -13.5 -37.5t-32.5 -11.5q-22 0 -34.5 13t-12.5 36q0 26 14 38t33 12t32.5 -12t13.5 -38zM242 1014h297v-71h-297v71zM710 -21q-138 0 -250 53t-192 151
t-123 233.5t-43 301.5v19q0 166 42.5 301.5t122.5 234t192 151.5t250 53q141 0 253.5 -53t192 -151.5t121 -234t41.5 -301.5v-19q0 -166 -41.5 -301.5t-120.5 -233.5t-191.5 -151t-253.5 -53zM710 84q158 0 266.5 79t164.5 222t56 333v21q0 190 -56.5 332t-165.5 221.5
t-266 79.5q-151 0 -260 -79.5t-167.5 -222t-58.5 -331.5v-21q0 -190 58.5 -333t168 -222t260.5 -79z" />
    <glyph glyph-name="uni022B" unicode="&#x22b;" horiz-adv-x="604" 
d="M443 650q0 -23 -12.5 -36t-34.5 -13t-34.5 13t-12.5 36q0 26 14 38t33 12q20 0 33.5 -12t13.5 -38zM255 650q0 -26 -13.5 -37.5t-32.5 -11.5q-22 0 -34.5 13t-12.5 36q0 26 14 38t33 12t32.5 -12t13.5 -38zM154 836h297v-71h-297v71zM572 -21q-146 0 -253.5 69.5
t-167 193t-59.5 282.5v33q0 159 59.5 282t167 193t251.5 70q145 0 252.5 -70t167 -192.5t59.5 -282.5v-33q0 -160 -59.5 -283t-167 -192.5t-250.5 -69.5zM572 79q111 0 191 59t123 160t43 226v33q0 124 -43 225t-123.5 160t-192.5 59t-192.5 -59t-123 -160t-42.5 -225v-33
q0 -126 42.5 -226.5t123 -159.5t194.5 -59z" />
    <glyph glyph-name="uni022C" unicode="&#x22c;" horiz-adv-x="780" 
d="M461 784q-19 0 -38 7.5t-36.5 16.5t-35 16.5t-32.5 7.5q-19 0 -29 -11t-17 -38h-51q5 55 30.5 84.5t66.5 29.5q21 0 40.5 -7.5t37 -16.5t34 -16.5t31.5 -7.5q21 0 30 13t16 36h50q-5 -55 -30 -84.5t-67 -29.5zM241 1014h297v-71h-297v71zM710 -21q-138 0 -250 53
t-192 151t-123 233.5t-43 301.5v19q0 166 42.5 301.5t122.5 234t192 151.5t250 53q141 0 253.5 -53t192 -151.5t121 -234t41.5 -301.5v-19q0 -166 -41.5 -301.5t-120.5 -233.5t-191.5 -151t-253.5 -53zM710 84q158 0 266.5 79t164.5 222t56 333v21q0 190 -56.5 332
t-165.5 221.5t-266 79.5q-151 0 -260 -79.5t-167.5 -222t-58.5 -331.5v-21q0 -190 58.5 -333t168 -222t260.5 -79z" />
    <glyph glyph-name="uni022D" unicode="&#x22d;" horiz-adv-x="604" 
d="M373 606q-19 0 -38 7.5t-36.5 16.5t-35 16.5t-32.5 7.5q-19 0 -29 -11t-17 -38h-51q5 55 30.5 84.5t66.5 29.5q21 0 40.5 -7.5t37 -16.5t34 -16.5t31.5 -7.5q21 0 30 13t16 36h50q-5 -55 -30 -84.5t-67 -29.5zM153 836h297v-71h-297v71zM572 -21q-146 0 -253.5 69.5
t-167 193t-59.5 282.5v33q0 159 59.5 282t167 193t251.5 70q145 0 252.5 -70t167 -192.5t59.5 -282.5v-33q0 -160 -59.5 -283t-167 -192.5t-250.5 -69.5zM572 79q111 0 191 59t123 160t43 226v33q0 124 -43 225t-123.5 160t-192.5 59t-192.5 -59t-123 -160t-42.5 -225v-33
q0 -126 42.5 -226.5t123 -159.5t194.5 -59z" />
    <glyph glyph-name="uni022E" unicode="&#x22e;" horiz-adv-x="780" 
d="M301 1552v173h134v-173h-134zM710 -21q-138 0 -250 53t-192 151t-123 233.5t-43 301.5v19q0 166 42.5 301.5t122.5 234t192 151.5t250 53q141 0 253.5 -53t192 -151.5t121 -234t41.5 -301.5v-19q0 -166 -41.5 -301.5t-120.5 -233.5t-191.5 -151t-253.5 -53zM710 84
q158 0 266.5 79t164.5 222t56 333v21q0 190 -56.5 332t-165.5 221.5t-266 79.5q-151 0 -260 -79.5t-167.5 -222t-58.5 -331.5v-21q0 -190 58.5 -333t168 -222t260.5 -79z" />
    <glyph glyph-name="uni022F" unicode="&#x22f;" horiz-adv-x="604" 
d="M213 1387v173h134v-173h-134zM572 -21q-146 0 -253.5 69.5t-167 193t-59.5 282.5v33q0 159 59.5 282t167 193t251.5 70q145 0 252.5 -70t167 -192.5t59.5 -282.5v-33q0 -160 -59.5 -283t-167 -192.5t-250.5 -69.5zM572 79q111 0 191 59t123 160t43 226v33q0 124 -43 225
t-123.5 160t-192.5 59t-192.5 -59t-123 -160t-42.5 -225v-33q0 -126 42.5 -226.5t123 -159.5t194.5 -59z" />
    <glyph glyph-name="uni0230" unicode="&#x230;" horiz-adv-x="780" 
d="M339 826q0 29 15 42.5t37 13.5q23 0 37 -15t14 -41t-14.5 -41t-36.5 -15t-37 13.5t-15 42.5zM241 1001h297v-71h-297v71zM710 -21q-138 0 -250 53t-192 151t-123 233.5t-43 301.5v19q0 166 42.5 301.5t122.5 234t192 151.5t250 53q141 0 253.5 -53t192 -151.5t121 -234
t41.5 -301.5v-19q0 -166 -41.5 -301.5t-120.5 -233.5t-191.5 -151t-253.5 -53zM710 84q158 0 266.5 79t164.5 222t56 333v21q0 190 -56.5 332t-165.5 221.5t-266 79.5q-151 0 -260 -79.5t-167.5 -222t-58.5 -331.5v-21q0 -190 58.5 -333t168 -222t260.5 -79z" />
    <glyph glyph-name="uni0231" unicode="&#x231;" horiz-adv-x="604" 
d="M252 662q0 29 15 42.5t37 13.5q23 0 37 -15t14 -41t-14.5 -41t-36.5 -15t-37 13.5t-15 42.5zM154 837h297v-71h-297v71zM572 -21q-146 0 -253.5 69.5t-167 193t-59.5 282.5v33q0 159 59.5 282t167 193t251.5 70q145 0 252.5 -70t167 -192.5t59.5 -282.5v-33
q0 -160 -59.5 -283t-167 -192.5t-250.5 -69.5zM572 79q111 0 191 59t123 160t43 226v33q0 124 -43 225t-123.5 160t-192.5 59t-192.5 -59t-123 -160t-42.5 -225v-33q0 -126 42.5 -226.5t123 -159.5t194.5 -59z" />
    <glyph glyph-name="uni0232" unicode="&#x232;" horiz-adv-x="565" 
d="M29 1553v96h670v-96h-670zM500 0v87l163 13v442l-484 818l-119 8v88h407v-88l-153 -8l385 -671l23 -45l1 2l24 43l392 671l-155 8v88h402v-88l-123 -8l-480 -811v-449l163 -13v-87h-446z" />
    <glyph glyph-name="uni0233" unicode="&#x233;" horiz-adv-x="509" 
d="M1 1388v96h670v-96h-670zM295 -437q-21 0 -50.5 4.5t-44.5 8.5l14 99q14 -2 39.5 -4.5t37.5 -2.5q78 0 124 51.5t84 146.5l56 147l-397 974l-117 7v88h381v-88l-137 -9l278 -698l45 -123h6l309 821l-141 9v88h378v-88l-115 -7l-444 -1161q-30 -76 -68 -136t-95 -93.5
t-143 -33.5z" />
    <glyph glyph-name="uni0234" unicode="&#x234;" horiz-adv-x="380" 
d="M85 760h88v-542q31 12 68 12q61 0 95.5 -33.5t34.5 -86.5q0 -56 -34.5 -88t-98.5 -32q-46 0 -79 17.5t-51 46.5q-15 -30 -34 -84l-67 30q36 98 78 151v609zM237 58q29 0 41.5 15t12.5 37q0 26 -15.5 39t-41.5 13q-30 0 -61 -24q3 -80 64 -80z" />
    <glyph glyph-name="uni0235" unicode="&#x235;" horiz-adv-x="745" 
d="M537 218q31 12 68 12q61 0 95.5 -33.5t34.5 -86.5q0 -56 -34 -88t-99 -32q-88 0 -129 64q-15 -28 -34 -84l-67 30q36 98 78 151v192q0 65 -29 97t-91 32q-83 0 -120 -45.5t-37 -148.5v-278h-88v536h71l13 -73h5q25 40 70 61.5t99 21.5q99 0 146.5 -48t47.5 -149v-131z
M601 58q25 0 39.5 13t14.5 39t-15 39t-42 13q-30 0 -61 -24q3 -80 64 -80z" />
    <glyph glyph-name="uni0236" unicode="&#x236;" horiz-adv-x="388" 
d="M92 468h-76v42l77 35l35 114h52v-123h155v-68h-155v-250q31 12 68 12q61 0 95.5 -33.5t34.5 -86.5q0 -56 -34 -88t-99 -32q-46 0 -78.5 17.5t-51.5 46.5q-15 -28 -34 -84l-67 30q37 99 78 151v317zM244 58q25 0 39.5 13t14.5 39t-15 39t-42 13q-30 0 -61 -24
q3 -80 64 -80z" />
    <glyph glyph-name="uni0237" unicode="&#x237;" horiz-adv-x="545" 
d="M84 -437q-31 0 -57 5t-55 14l13 97q16 -5 46.5 -10t52.5 -5q86 0 134.5 65t48.5 182v1070l-163 13v88h283v-1171q0 -167 -80 -257.5t-223 -90.5z" />
    <glyph glyph-name="uni0238" unicode="&#x238;" horiz-adv-x="972" 
d="M292 -10q-115 0 -176 71t-61 206q0 131 58 205t163 74q108 0 166 -79h6q-2 13 -4 45t-2 60v188h88v-185q0 -55 -5 -110h5q54 80 166 80q106 0 163.5 -73t57.5 -204q0 -135 -62 -206.5t-177 -71.5q-138 0 -193 125q-56 -125 -193 -125zM679 63q147 0 147 206
q0 102 -35.5 152.5t-109.5 50.5q-81 0 -116 -46t-35 -155q0 -208 149 -208zM295 63q71 0 109.5 55t38.5 153q0 110 -37 156t-118 46q-68 0 -105 -54t-37 -154t38 -151t111 -51z" />
    <glyph glyph-name="uni0239" unicode="&#x239;" horiz-adv-x="972" 
d="M680 546q115 0 176 -71t61 -206q0 -131 -58 -205t-163 -74q-108 0 -166 79h-6l2 -17q4 -37 4 -88v-204h-88v201q0 55 5 110h-5q-52 -80 -166 -80q-105 0 -163 73t-58 204q0 135 62 206.5t177 71.5q137 0 193 -125q28 64 78.5 94.5t114.5 30.5zM293 473q-147 0 -147 -206
q0 -102 35.5 -152.5t109.5 -50.5q81 0 116 46t35 155q0 208 -149 208zM677 473q-70 0 -109 -54.5t-39 -153.5q0 -109 36.5 -155.5t118.5 -46.5q68 0 105 54t37 154t-37.5 151t-111.5 51z" />
    <glyph glyph-name="uni023A" unicode="&#x23a;" horiz-adv-x="639" 
d="M499 760l-74 -212l213 -548h-93l-86 221h-148l-102 -296h-67l103 296h-69l-85 -221h-91l279 717h81l30 -78l42 121h67zM273 301l77 222q-20 55 -32 101q-15 -59 -31 -107l-81 -216h67zM384 430l-45 -129h93z" />
    <glyph glyph-name="uni023B" unicode="&#x23b;" horiz-adv-x="631" 
d="M559 760l-19 -55q30 -8 61 -23l-36 -76q-36 16 -53 21l-190 -548q36 -10 80 -10q76 0 171 28v-78q-45 -17 -87 -23t-97 -6q-46 0 -94 10l-26 -75h-67l33 95q-85 40 -129.5 126.5t-44.5 211.5q0 110 41 193t118.5 128t183.5 45q38 0 74 -5l14 41h67zM403 645
q-115 0 -181 -77t-66 -211q0 -183 108 -252l187 536q-19 4 -48 4z" />
    <glyph glyph-name="uni023C" unicode="&#x23c;" horiz-adv-x="479" 
d="M479 760l-81 -226q28 -8 49 -17l-27 -73q-31 11 -48 15l-136 -382q28 -11 63 -11q71 0 139 31v-78q-56 -29 -138 -29q-45 0 -91 13l-75 -211h-67l85 239q-97 70 -97 234q0 135 65.5 208t185.5 73h15l14 -1l77 215h67zM146 266q0 -97 37 -147l125 350h-4q-81 0 -119.5 -51
t-38.5 -152z" />
    <glyph glyph-name="uni023D" unicode="&#x23d;" horiz-adv-x="523" 
d="M10 403h87v311h90v-311h170v-71h-170v-252h312v-80h-402v332h-87v71z" />
    <glyph glyph-name="uni023E" unicode="&#x23e;" horiz-adv-x="556" 
d="M520 760l-22 -46h47v-79h-83l-139 -299v-336h-90v142l-101 -217h-70l171 368v342h-223v79h418l22 46h70zM323 487l69 148h-69v-148z" />
    <glyph glyph-name="uni023F" unicode="&#x23f;" horiz-adv-x="479" 
d="M235 -9q18 -26 29 -74q17 -84 105 -84q19 0 41 4.5t31 8.5v-72q-34 -14 -81 -14q-80 0 -121.5 36.5t-56.5 120.5q-13 69 -75 86q-34 9 -55 21v80q88 -43 170 -43q66 0 96.5 21.5t30.5 57.5q0 32 -29 54t-103 50q-76 29 -106.5 50t-45 47t-14.5 63q0 66 53.5 104t147.5 38
q91 0 171 -36l-30 -70q-82 34 -147 34q-55 0 -83 -17.5t-28 -47.5q0 -29 24.5 -48.5t113.5 -53.5q67 -25 99 -46.5t47 -48t15 -64.5q0 -72 -51 -113t-148 -44z" />
    <glyph glyph-name="uni0240" unicode="&#x240;" horiz-adv-x="470" 
d="M140 68q55 -10 87 -46t50 -105q11 -44 39 -64t77 -20q34 0 66 11v-72q-29 -12 -72 -12q-82 0 -126.5 35t-68.5 122q-13 47 -39.5 65t-78.5 18h-35v58l288 410h-271v68h368v-66z" />
    <glyph glyph-name="uni0241" unicode="&#x241;" horiz-adv-x="448" 
d="M124 0v322q88 27 140.5 82t52.5 126q0 56 -33.5 85.5t-96.5 29.5q-36 0 -79.5 -13.5t-72.5 -35.5l-33 72q37 26 87 41t102 15q103 0 162 -51t59 -140q0 -82 -50.5 -149.5t-147.5 -112.5v-271h-90z" />
    <glyph glyph-name="uni0242" unicode="&#x242;" horiz-adv-x="436" 
d="M124 0v144q87 27 136.5 82t49.5 126q0 121 -123 121q-34 0 -72 -13t-70 -36l-33 66q77 56 179 56q100 0 154.5 -49.5t54.5 -141.5q0 -81 -49 -148t-139 -109v-98h-88z" />
    <glyph glyph-name="uni0243" unicode="&#x243;" horiz-adv-x="649" 
d="M97 171h-82v78h82v465h204q144 0 207.5 -43t63.5 -134q0 -63 -35 -104.5t-101 -53.5v-5q83 -14 121.5 -57t38.5 -114q0 -96 -65.5 -149.5t-182.5 -53.5h-251v171zM187 335v-86h148v-78h-148v-95h144q86 0 127.5 33.5t41.5 100.5q0 64 -44 94.5t-132 30.5h-137zM187 410
h132q84 0 122 27t38 90q0 59 -41.5 84.5t-132.5 25.5h-118v-227z" />
    <glyph glyph-name="uni0244" unicode="&#x244;" horiz-adv-x="730" 
d="M640 714v-282h81v-78h-81v-102q0 -122 -73.5 -192t-204.5 -70q-129 0 -200.5 70.5t-71.5 193.5v100h-80v78h80v282h90v-282h371v282h89zM367 68q88 0 136 47.5t48 136.5v102h-371v-103q0 -87 46.5 -135t140.5 -48z" />
    <glyph glyph-name="uni0245" unicode="&#x245;" horiz-adv-x="607" 
d="M52 0v87l106 7l499 1362h114l500 -1362l106 -7v-87h-359v87l128 9l-402 1111l-27 81h-6l-29 -85l-400 -1107l129 -9v-87h-359z" />
    <glyph glyph-name="uni0246" unicode="&#x246;" horiz-adv-x="556" 
d="M459 760l-12 -46h49v-79h-69l-57 -223h108v-78h-128l-64 -255h210v-79h-230l-19 -75h-65l19 75h-104v714h285l12 46h65zM187 412h119l56 223h-175v-223zM187 79h34l65 255h-99v-255z" />
    <glyph glyph-name="uni0247" unicode="&#x247;" horiz-adv-x="563" 
d="M77 -208l83 240q-105 70 -105 232q0 129 64 205.5t173 76.5q15 0 44 -4l76 218h67l-82 -237q55 -28 85.5 -84.5t30.5 -134.5v-53h-210l-60 -173q30 -13 74 -13q43 0 81.5 7.5t90.5 29.5v-77q-44 -19 -83.5 -27t-92.5 -8q-52 0 -96 14l-73 -212h-67zM291 474
q-63 0 -99.5 -40.5t-43.5 -112.5h112l52 151zM421 321q-2 90 -50 128l-44 -128h94zM146 251q2 -88 43 -135l47 135h-90z" />
    <glyph glyph-name="uni0248" unicode="&#x248;" horiz-adv-x="272" 
d="M-4 -190q-46 0 -74 13v76q35 -10 72 -10q49 0 73.5 29.5t24.5 85.5v310h-82v78h82v322h90v-322h81v-78h-81v-303q0 -97 -48 -149t-138 -52z" />
    <glyph glyph-name="uni0249" unicode="&#x249;" horiz-adv-x="257" 
d="M22 -240q-46 0 -77 12v71q34 -10 66 -10q38 0 56 21t18 63v331h-75v71h75v217h88v-217h75v-71h-75v-328q0 -80 -38.5 -120t-112.5 -40zM78 681q0 29 15 42.5t37 13.5q21 0 36 -13.5t15 -42.5t-15.5 -42.5t-35.5 -13.5q-22 0 -37 13.5t-15 42.5z" />
    <glyph glyph-name="uni024A" unicode="&#x24a;" horiz-adv-x="767" 
d="M361 646q-97 0 -151.5 -76t-54.5 -213q0 -135 54 -212t153 -77q77 0 125 22.5t70 67t22 122.5v154q0 79 -22.5 123.5t-70.5 66.5t-125 22zM579 20q0 26 4 72h-5q-28 -47 -84 -74.5t-136 -27.5q-91 0 -158.5 44.5t-103 128t-35.5 195.5q0 172 80 269t222 97q70 0 128 -27
t87 -75h5l15 92h71v-793q0 -42 14 -62t49 -20q24 0 45 10v-76q-23 -13 -56 -13q-142 0 -142 157v103z" />
    <glyph glyph-name="uni024B" unicode="&#x24b;" horiz-adv-x="615" 
d="M290 63q79 0 115 43t38 142v18q0 111 -37 159t-118 48q-69 0 -105.5 -54t-36.5 -154q0 -98 36.5 -150t107.5 -52zM442 -11q0 54 5 83h-6q-56 -82 -168 -82q-104 0 -161 73.5t-57 203.5q0 131 58.5 205t162.5 74q110 0 167 -83h4l13 73h70v-608q0 -55 11 -75.5t38 -20.5
q31 0 50 11v-67q-21 -16 -70 -16q-117 0 -117 167v62z" />
    <glyph glyph-name="uni024C" unicode="&#x24c;" horiz-adv-x="622" 
d="M187 295v-295h-90v295h-87v76h87v343h197q133 0 196.5 -50.5t63.5 -152.5q0 -142 -143 -191l196 -320h-105l-173 295h-142zM187 371h107q87 0 127 34t40 102q0 67 -40.5 98t-131.5 31h-102v-265z" />
    <glyph glyph-name="uni024D" unicode="&#x24d;" horiz-adv-x="413" 
d="M299 248h-126v-248h-88v248h-75v71h75v217h72l10 -98h4q31 53 73 80.5t91 27.5q36 0 63 -6l-11 -81q-30 7 -58 7q-57 0 -100.5 -40.5t-53.5 -106.5h124v-71z" />
    <glyph glyph-name="uni024E" unicode="&#x24e;" horiz-adv-x="565" 
d="M165 586h236l68 128h97l-70 -128h60v-78h-102l-126 -231v-277h-90v273l-127 235h-101v78h59l-69 128h98zM283 363l77 145h-154z" />
    <glyph glyph-name="uni024F" unicode="&#x24f;" horiz-adv-x="509" 
d="M100 288h-90v71h62l-71 177h94l67 -177h189l64 177h95l-67 -177h57v-71h-84l-137 -362q-34 -89 -80.5 -127.5t-114.5 -38.5q-37 0 -73 8v70q24 -6 59 -6q42 0 71 23t48 72l28 71zM260 85q12 52 66 203h-137q31 -81 46 -124t21 -79h4z" />
    <glyph glyph-name="uni2000" unicode="&#x2000;" horiz-adv-x="1044" 
 />
    <glyph glyph-name="uni2001" unicode="&#x2001;" horiz-adv-x="2089" 
 />
    <glyph glyph-name="uni2002" unicode="&#x2002;" horiz-adv-x="1044" 
 />
    <glyph glyph-name="uni2003" unicode="&#x2003;" horiz-adv-x="2089" 
 />
    <glyph glyph-name="uni2004" unicode="&#x2004;" horiz-adv-x="697" 
 />
    <glyph glyph-name="uni2005" unicode="&#x2005;" horiz-adv-x="522" 
 />
    <glyph glyph-name="uni2006" unicode="&#x2006;" horiz-adv-x="348" 
 />
    <glyph glyph-name="uni2007" unicode="&#x2007;" horiz-adv-x="1151" 
 />
    <glyph glyph-name="uni2008" unicode="&#x2008;" horiz-adv-x="560" 
 />
    <glyph glyph-name="uni2009" unicode="&#x2009;" horiz-adv-x="418" 
 />
    <glyph glyph-name="uni200A" unicode="&#x200a;" horiz-adv-x="209" 
 />
    <glyph glyph-name="uni200B" unicode="&#x200b;" horiz-adv-x="0" 
 />
    <glyph glyph-name="uni200C" unicode="&#x200c;" horiz-adv-x="0" 
d="M-26 -166v954h52v-954h-52z" />
    <glyph glyph-name="uni200D" unicode="&#x200d;" horiz-adv-x="0" 
d="M36 646l110 -107l-37 -36l-83 82v-750h-52v750l-83 -82l-37 36l110 107l-110 106l37 36l109 -108l109 108l37 -37z" />
    <glyph glyph-name="uni200E" unicode="&#x200e;" horiz-adv-x="0" 
d="M212 583l-108 -107l-27 26l64 61h-121v-696h-40v735h161l-64 61l27 27z" />
    <glyph glyph-name="uni200F" unicode="&#x200f;" horiz-adv-x="0" 
d="M20 -133h-41v696h-121l65 -61l-27 -26l-109 107l109 107l27 -27l-65 -61h162v-735z" />
    <glyph glyph-name="figuredash" unicode="&#x2012;" horiz-adv-x="571" 
d="M40 321v73h492v-73h-492z" />
    <glyph glyph-name="endash" unicode="&#x2013;" horiz-adv-x="1406" 
d="M161 687v101h1086v-101h-1086z" />
    <glyph glyph-name="emdash" unicode="&#x2014;" horiz-adv-x="1645" 
d="M165 687v101h1336v-101h-1336z" />
    <glyph glyph-name="uni2015" unicode="&#x2015;" horiz-adv-x="1645" 
d="M165 687v101h1336v-101h-1336z" />
    <glyph glyph-name="uni2016" unicode="&#x2016;" horiz-adv-x="550" 
d="M349 760h73v-1001h-73v1001zM130 760h73v-1001h-73v1001z" />
    <glyph glyph-name="underscoredbl" unicode="&#x2017;" horiz-adv-x="1034" 
d="M162 -343v100h881v-100h-881zM162 -100v100h881v-100h-881z" />
    <glyph glyph-name="quoteleft" unicode="&#x2018;" horiz-adv-x="365" 
d="M99 1078v172q0 62 16.5 122t48 112.5t75.5 93.5l71 -50q-47 -67 -69 -132t-22 -144v-174h-120z" />
    <glyph glyph-name="quoteright" unicode="&#x2019;" horiz-adv-x="365" 
d="M134 1057l-72 51q47 65 69.5 130t22.5 145v177h120v-175q0 -63 -17 -123t-48.5 -112.5t-74.5 -92.5z" />
    <glyph glyph-name="quotesinglbase" unicode="&#x201a;" horiz-adv-x="393" 
d="M131 -281l-71 52q47 66 69.5 131t22.5 143v143h120v-140q0 -93 -37.5 -180t-103.5 -149z" />
    <glyph glyph-name="quotereversed" unicode="&#x201b;" horiz-adv-x="403" 
d="M213 1057l72 51q-47 65 -69.5 130t-22.5 145v177h-120v-175q0 -63 17 -123t48.5 -112.5t74.5 -92.5z" />
    <glyph glyph-name="quotedblleft" unicode="&#x201c;" horiz-adv-x="613" 
d="M99 1078v172q0 62 16.5 122t48 112.5t75.5 93.5l71 -50q-47 -67 -69 -132t-22 -144v-174h-120zM346 1078v172q0 62 16.5 122t48 112.5t75.5 93.5l71 -50q-47 -67 -69 -132t-22 -144v-174h-120z" />
    <glyph glyph-name="quotedblright" unicode="&#x201d;" horiz-adv-x="617" 
d="M140 1057l-72 51q47 65 69.5 130t22.5 145v177h120v-175q0 -63 -17 -123t-48.5 -112.5t-74.5 -92.5zM385 1057l-72 51q47 65 69.5 130t22.5 145v177h120v-175q0 -63 -17 -123t-48.5 -112.5t-74.5 -92.5z" />
    <glyph glyph-name="quotedblbase" unicode="&#x201e;" horiz-adv-x="626" 
d="M131 -281l-71 52q47 66 69.5 131t22.5 143v143h120v-140q0 -93 -37.5 -180t-103.5 -149zM364 -281l-71 52q47 66 69.5 131t22.5 143v143h120v-140q0 -93 -37.5 -180t-103.5 -149z" />
    <glyph glyph-name="uni201F" unicode="&#x201f;" horiz-adv-x="358" 
d="M297 714q18 -115 50 -245h-65q-22 46 -48 113.5t-39 120.5l7 11h95zM112 714q18 -115 50 -245h-64q-26 56 -51 123.5t-35 110.5l6 11h94z" />
    <glyph glyph-name="dagger" unicode="&#x2020;" horiz-adv-x="1124" 
d="M500 0v979h-437v103h437v374h120v-374h433v-103h-433v-979h-120z" />
    <glyph glyph-name="daggerdbl" unicode="&#x2021;" horiz-adv-x="1139" 
d="M496 -416v416h-425v100h425v880h-425v102h425v374h120v-374h444v-102h-444v-880h444v-100h-444v-416h-120z" />
    <glyph glyph-name="bullet" unicode="&#x2022;" horiz-adv-x="672" 
d="M320 540q-85 0 -135 49t-50 128v65q0 79 50 129t134 50q85 0 136 -50.5t51 -128.5v-65q0 -79 -50.5 -128t-135.5 -49z" />
    <glyph glyph-name="twodotenleader" unicode="&#x2025;" horiz-adv-x="913" 
d="M166 0v163h137v-163h-137zM577 0v163h137v-163h-137z" />
    <glyph glyph-name="ellipsis" unicode="&#x2026;" horiz-adv-x="1297" 
d="M166 0v163h137v-163h-137zM577 0v163h137v-163h-137zM969 0v163h137v-163h-137z" />
    <glyph glyph-name="uni202A" unicode="&#x202a;" horiz-adv-x="0" 
d="M21 563v-696h-41v735h232v-39h-191z" />
    <glyph glyph-name="uni202B" unicode="&#x202b;" horiz-adv-x="0" 
d="M-212 563v39h232v-735h-41v696h-191z" />
    <glyph glyph-name="uni202C" unicode="&#x202c;" horiz-adv-x="0" 
d="M116 477h-95v-610h-42v610h-95v212h232v-212z" />
    <glyph glyph-name="uni202D" unicode="&#x202d;" horiz-adv-x="0" 
d="M116 477h-95v-610h-42v610h-95v212h232v-39h-193v-135h193v-38z" />
    <glyph glyph-name="uni202E" unicode="&#x202e;" horiz-adv-x="0" 
d="M-116 515h193v135h-193v39h232v-212h-95v-610h-42v610h-95v38z" />
    <glyph glyph-name="uni202F" unicode="&#x202f;" horiz-adv-x="200" 
 />
    <glyph glyph-name="perthousand" unicode="&#x2030;" horiz-adv-x="1961" 
d="M440 121l-74 48l711 1138l74 -48zM362 800q-85 0 -149.5 40t-100.5 107.5t-36 151.5v77q0 84 35.5 152.5t99.5 108.5t149 40t149.5 -40t100.5 -108.5t36 -152.5v-77q0 -84 -35.5 -151.5t-99.5 -107.5t-149 -40zM362 886q90 0 138.5 62.5t48.5 150.5v77q0 88 -49.5 151.5
t-139.5 63.5q-89 0 -138 -64t-49 -151v-77q0 -88 49 -150.5t140 -62.5zM1117 -21q-86 0 -150.5 40t-100 108t-35.5 152v78q0 83 35.5 151t99.5 108.5t149 40.5q81 0 142.5 -40.5t94.5 -108.5q34 68 97 108.5t144 40.5q86 0 150.5 -40t100 -108t35.5 -152v-78
q0 -84 -35.5 -152t-99.5 -108t-149 -40q-82 0 -145.5 40t-97.5 108q-33 -68 -94 -108t-141 -40zM1117 65q89 0 138 62.5t49 151.5v78q0 91 -49 152.5t-140 61.5q-90 0 -138.5 -61.5t-48.5 -152.5v-78q0 -89 49 -151.5t140 -62.5zM1590 65q89 0 137.5 62.5t48.5 151.5v78
q0 91 -48.5 152.5t-139.5 61.5q-90 0 -138.5 -61.5t-48.5 -152.5v-78q0 -89 49 -151.5t140 -62.5z" />
    <glyph glyph-name="minute" unicode="&#x2032;" horiz-adv-x="439" 
d="M166 1091l8 283v186h103v-194l-39 -275h-72z" />
    <glyph glyph-name="second" unicode="&#x2033;" horiz-adv-x="711" 
d="M166 1091l8 283v186h103v-194l-39 -275h-72zM407 1091l8 283v186h103v-194l-39 -275h-72z" />
    <glyph glyph-name="uni2034" unicode="&#x2034;" horiz-adv-x="590" 
d="M526 714l-20 -258h-55l-20 258h95zM160 714l-20 -258h-55l-20 258h95zM343 714l-20 -258h-55l-20 258h95z" />
    <glyph glyph-name="guilsinglleft" unicode="&#x2039;" horiz-adv-x="575" 
d="M363 168l-295 378v19l295 379h106l-276 -389l276 -387h-106z" />
    <glyph glyph-name="guilsinglright" unicode="&#x203a;" horiz-adv-x="574" 
d="M83 162l275 388l-275 394h106l294 -384v-19l-294 -379h-106z" />
    <glyph glyph-name="exclamdbl" unicode="&#x203c;" horiz-adv-x="916" 
d="M154 478v978h120v-978h-120zM143 0v166h142v-166h-142zM612 478v978h120v-978h-120zM601 0v166h142v-166h-142z" />
    <glyph glyph-name="uni203E" unicode="&#x203e;" horiz-adv-x="500" 
d="M503 760h-506v66h506v-66z" />
    <glyph glyph-name="fraction" unicode="&#x2044;" horiz-adv-x="884" 
d="M117 121l-75 48l711 1138l75 -48z" />
    <glyph glyph-name="uni205E" unicode="&#x205e;" horiz-adv-x="268" 
d="M72 54q0 32 15.5 50t46.5 18q30 0 46 -17.5t16 -50.5t-16.5 -50.5t-45.5 -17.5q-30 0 -46 18t-16 50zM72 456q0 32 15.5 50t46.5 18q30 0 46 -17.5t16 -50.5q0 -32 -16.5 -50t-45.5 -18q-30 0 -46 18t-16 50zM72 255q0 33 16 50.5t46 17.5t46 -17.5t16 -50.5
q0 -32 -16.5 -50t-45.5 -18q-30 0 -46 18t-16 50zM72 657q0 32 15.5 50t46.5 18q30 0 46 -17.5t16 -50.5t-16.5 -50.5t-45.5 -17.5q-30 0 -46 18t-16 50z" />
    <glyph glyph-name="uni206A" unicode="&#x206a;" horiz-adv-x="0" 
d="M-116 515h95v135h-95v39h232v-39h-95v-135h95v-38h-95v-610h-42v610h-95v38z" />
    <glyph glyph-name="uni206B" unicode="&#x206b;" horiz-adv-x="0" 
d="M-77 515h154v135h-154v-135zM-116 477v212h232v-212h-95v-610h-42v610h-95z" />
    <glyph glyph-name="uni206C" unicode="&#x206c;" horiz-adv-x="0" 
d="M21 -133h-42v643l-96 179h234l-96 -179v-643z" />
    <glyph glyph-name="uni206D" unicode="&#x206d;" horiz-adv-x="0" 
d="M21 477v-610h-42v610h-96l117 215l117 -215h-96z" />
    <glyph glyph-name="uni206E" unicode="&#x206e;" horiz-adv-x="0" 
d="M21 -133h-42v627l-96 89l117 107l117 -107l-96 -89v-627zM62 583l-62 55l-62 -55l62 -55z" />
    <glyph glyph-name="uni206F" unicode="&#x206f;" horiz-adv-x="0" 
d="M-116 515h95v135h-95v39h137v-174h95v-38h-95v-610h-42v610h-95v38z" />
  </font>
</defs>
</svg>
