<?xml version="1.0" standalone="no"?>
<!DOCTYPE svg PUBLIC "-//W3C//DTD SVG 1.1//EN" "http://www.w3.org/Graphics/SVG/1.1/DTD/svg11.dtd" >
<svg xmlns="http://www.w3.org/2000/svg" xmlns:xlink="http://www.w3.org/1999/xlink" version="1.1">
<metadata>
Created by FontForge 20190801 at Mon Feb  8 12:18:34 2021
 By root
Holytramp
</metadata>
<defs>
<font id="Rosemary-Regular" horiz-adv-x="200" >
  <font-face 
    font-family="Rosemary"
    font-weight="400"
    font-stretch="normal"
    units-per-em="1000"
    panose-1="0 0 5 0 0 0 0 0 0 0"
    ascent="800"
    descent="-200"
    x-height="346"
    cap-height="695"
    bbox="-213 -360 1273 1046"
    underline-thickness="50"
    underline-position="-100"
    unicode-range="U+0001-206F"
  />
<missing-glyph horiz-adv-x="364" 
d="M33 0v666h265v-666h-265zM66 33h199v600h-199v-600z" />
    <glyph glyph-name=".notdef" horiz-adv-x="364" 
d="M33 0v666h265v-666h-265zM66 33h199v600h-199v-600z" />
    <glyph glyph-name="uni0000" 
 />
    <glyph glyph-name="uni0000" 
 />
    <glyph glyph-name="uni000D" unicode="&#xd;" 
 />
    <glyph glyph-name="uni0001" 
 />
    <glyph glyph-name="uni0002" 
 />
    <glyph glyph-name="uni0003" 
 />
    <glyph glyph-name="uni0004" 
 />
    <glyph glyph-name="uni0005" 
 />
    <glyph glyph-name="uni0006" 
 />
    <glyph glyph-name="uni0007" 
 />
    <glyph glyph-name="uni0008" 
 />
    <glyph glyph-name="uni0009" unicode="&#x9;" 
 />
    <glyph glyph-name="uni000A" unicode="&#xa;" 
 />
    <glyph glyph-name="uni000B" 
 />
    <glyph glyph-name="uni000C" 
 />
    <glyph glyph-name="uni000E" 
 />
    <glyph glyph-name="uni000F" 
 />
    <glyph glyph-name="uni0010" 
 />
    <glyph glyph-name="uni0011" 
 />
    <glyph glyph-name="uni0012" 
 />
    <glyph glyph-name="uni0013" 
 />
    <glyph glyph-name="uni0014" 
 />
    <glyph glyph-name="uni0015" 
 />
    <glyph glyph-name="uni0016" 
 />
    <glyph glyph-name="uni0017" 
 />
    <glyph glyph-name="uni0018" 
 />
    <glyph glyph-name="uni0019" 
 />
    <glyph glyph-name="uni001A" 
 />
    <glyph glyph-name="uni001B" 
 />
    <glyph glyph-name="uni001C" 
 />
    <glyph glyph-name="uni001D" 
 />
    <glyph glyph-name="uni001E" 
 />
    <glyph glyph-name="uni001F" 
 />
    <glyph glyph-name="space" unicode=" " 
 />
    <glyph glyph-name="exclam" unicode="!" horiz-adv-x="38" 
d="M22 170l-4 4q0 1 -2 4.5t-2 5.5q-2 4 -4 14q-2 12 -4 36q-3 21 -5 63q0 2 -0.5 6t-0.5 6v18q2 22 0 32v13q2 17 2 50q0 23 1 35q0 10 1 16q4 29 6 57q0 6 1 9l3 45v40q-1 19 3 57q0 9 4 16q0 2 3 2q2 0 2 -2q2 -4 2 -5q0 -15 1 -22q0 -23 2 -30q0 -2 0.5 -6.5t0.5 -6.5
q0 -9 0.5 -26t0.5 -26q0 -8 -0.5 -23.5t-0.5 -23.5v-90v-79v-69q0 -9 2 -27q3 -17 0 -32q-3 -18 0 -34q3 -13 -3 -25q-1 -2 -4.5 -3t-4.5 1zM25 -1q-11 0 -16 9q-3 7 -3 18q0 8 5 14q3 5 8 3q17 -8 19 -31q0 -11 -13 -13z" />
    <glyph glyph-name="quotedbl" unicode="&#x22;" horiz-adv-x="105" 
d="M9 480l-4 4q-1 3 -1.5 102.5t0.5 114.5q0 9 4 16q0 2 3 2q2 0 2 -2q2 -4 2 -5q0 -15 1 -22q0 -23 2 -30q0 -2 0.5 -6.5t0.5 -6.5l2 -140q3 -13 -3 -25q-1 -2 -4.5 -3t-4.5 1zM89 480l-4 4q-1 3 -1.5 102.5t0.5 114.5q0 9 4 16q0 2 3 2q2 0 2 -2q2 -4 2 -5q0 -15 1 -22
q0 -23 2 -30q0 -2 0.5 -6.5t0.5 -6.5l2 -140q3 -13 -3 -25q-1 -2 -4.5 -3t-4.5 1z" />
    <glyph glyph-name="numbersign" unicode="#" horiz-adv-x="652" 
d="M480 394l-29 -152h133v-66h-146l-34 -176h-70l35 176h-140l-34 -176h-69l33 176h-125v66h137l31 152h-132v65h143l34 173h70l-33 -173h140l34 173h69l-34 -173h126v-65h-139zM242 242h139l30 152h-140z" />
    <glyph glyph-name="dollar" unicode="$" horiz-adv-x="303" 
d="M155 -61q-3 0 -5 4q-8 14 -11 25q-2 6 -2 8q-4 12 -16 12q-10 -1 -31 -1q-17 0 -42 7q-15 5 -30 20q-2 1 -4 5q-3 5 -1 10q3 4 9 4q4 0 12 -2q30 -6 45 -10q19 -4 46 -2q7 0 7 8v13t-1 13q-1 3 -6 58q0 5 -1.5 15t-2.5 15q-1 6 -1 17v28q-1 3 -1.5 10t-0.5 10
q-2 12 -4 37t-4 38v19q-2 16 -4 24q0 6 -7 8q-6 2 -43 20q-23 13 -31 27l-12 14q-9 13 -12 30q0 3 -0.5 8.5t-0.5 7.5q0 21 5 46q4 17 16 40q3 6 9 12q6 7 20 21q12 10 27 18q18 8 27 11q15 7 16 20q1 8 5 29q0 3 3 3t5 -1q4 -4 4 -9q-2 -8 -2 -10v-12q0 -8 7 -8q5 -1 14 -1
q26 1 55 -10l13 -6q12 -6 16 -19q5 -12 7 -15q0 -2 -1 -2l-1 -1q-3 1 -8 2.5t-7 2.5l-3 3q-2 2 -5 5.5t-4 5.5q-6 10 -20 15q-3 1 -9 1v-3l-18 6q-10 5 -27 3q-14 -3 -15 -16q-1 -5 -1 -17q0 -26 -1 -39q0 -12 -1 -17q-1 -7 1 -21q4 -20 1 -42q0 -12 -1 -17q0 -14 -1 -21
q-2 -10 2 -32q1 -6 7 -7q14 -4 22 -5q6 -2 20 -4q25 -5 44 -18q6 -5 13 -8q8 -4 15 -12q17 -21 24 -41q3 -11 9 -20q4 -8 10 -24q3 -15 3 -17q3 -18 7 -47q2 -16 0 -48q-1 -6 -3.5 -19t-3.5 -20q0 -5 -3 -8q-4 -7 -14 -19q-4 -5 -11 -13t-8 -9q-6 -6 -18 -11
q-5 -3 -16.5 -7.5t-17.5 -6.5l-8 -3q-9 -5 -28 -7q-15 -1 -15 -17q0 -2 0.5 -8t0.5 -9q0 -2 2 -10q0 -7 -4 -7zM98 362q7 0 7 8v3q-3 25 0 50q1 4 1 12q1 20 1 59q0 31 3 46q0 3 0.5 8.5t1.5 8.5q0 2 0.5 6t0.5 6t-2.5 3.5t-3.5 0.5q-7 -2 -19 -8q-5 -3 -13.5 -8t-12.5 -8
q-8 -6 -12 -10l-18 -25q-9 -13 -12 -32q-3 -12 -5 -40v-4q0 -28 21 -46q14 -12 44 -27l3 -2q10 -2 15 -1zM161 24h5q24 5 42 13l14 7q39 18 51 59q7 21 9 55q-1 3 -1.5 10t-0.5 10q-2 14 -2 20q0 8 -6 20q-17 32 -20 39q-10 23 -23 36q-17 20 -42 29q-6 2 -13 3.5t-15.5 3
t-13.5 2.5h-8q-10 -2 -8 -10q0 -6 1 -10q2 -10 2 -17l3 -44q0 -17 1 -26t3.5 -27t3.5 -27q0 -16 3 -33q3 -39 3 -41q0 -1 0.5 -4.5t0.5 -5.5t1 -6t1 -6q0 -7 1.5 -21.5t2.5 -22.5q0 -2 1 -3q3 -3 4 -3z" />
    <glyph glyph-name="percent" unicode="%" horiz-adv-x="338" 
d="M10 2q-2 -1 -3.5 -1t-3 1.5t-1.5 2.5q0 3 -0.5 10t-1.5 10h1v8q-1 14 7 29q8 19 20 41q1 2 6 13.5t8 17.5l6 11q3 6 13 25t15 30l14 24q1 3 3.5 8.5t3.5 7.5q2 4 7.5 14.5t8.5 16.5q19 32 40 73q4 9 14 27q2 4 28 50q17 32 20 38q25 54 37 92q7 23 25 65q1 6 5 11
q3 4 16 28q12 21 27 39q4 4 6 5q1 1 4 1t3 -4q2 -9 -4 -16q-6 -9 -16 -29q-2 -4 -5.5 -12t-4.5 -12l-9 -23q-2 -3 -4.5 -10t-3.5 -10q-2 -8 -4 -11q-13 -27 -23 -64q-18 -52 -35 -85q-34 -68 -52 -101q-1 -3 -3.5 -7.5t-3.5 -7.5q-18 -41 -34 -67t-24 -44q-12 -26 -17 -39
q-8 -17 -17 -34q-15 -25 -23 -48q-8 -21 -30 -59q-7 -11 -15 -15zM118 508q-27 10 -33 37q-11 50 23 92q9 12 29 15h8q21 -4 41 -19q10 -9 15 -21l6 -21q2 -5 2 -13q1 -15 -3 -25q-1 -4 -7 -12q-17 -19 -31 -27q-24 -15 -50 -6zM125 527h6q9 0 29 6q3 2 9 8q10 16 14 33
q2 6 -3 11q-6 6 -8 9l-21 21q-6 7 -17 10q-9 4 -18 -3q-15 -12 -17 -31q-3 -13 -3 -26q-3 -33 29 -38zM239 37q-17 -2 -37 15q-5 5 -7 8q-16 26 -11 53q7 24 12 31l3 6q1 8 15 16q18 10 41 8q5 0 11 -3q7 -2 21 -8q1 -1 11 -8q20 -16 18 -46q0 -24 -15 -42q-2 -2 -3 -4
q-16 -26 -59 -26zM236 59q20 1 40 12q4 1 7 6q8 8 10 21q1 10 0 20q0 17 -16 28q-8 4 -22 14q-9 6 -19 -2l-15 -9q-7 -4 -15 -16q-10 -15 -8 -34v-14q2 -8 5 -11q13 -17 33 -15z" />
    <glyph glyph-name="ampersand" unicode="&#x26;" horiz-adv-x="443" 
d="M132 0q-35 3 -67 25l-9 5q-30 17 -41 45q-7 16 -8 20q-7 17 -7 41q3 66 38 109q32 40 78 75q1 1 3.5 2.5t3.5 2.5q8 6 5 13q0 1 -1 3t-1 3q-11 31 -23 95q-7 43 -6 70q3 58 26 105q17 32 48 57q18 14 52 22q7 2 20 0l23 -3q43 -5 66 -35q13 -16 21 -31q13 -23 18 -57
q1 -11 -2 -25q-5 -18 -13 -30l-8 -12t-10 -14q-38 -49 -69 -75q-5 -5 -16 -13t-13 -10l-39 -28q-2 -2 -8 -5.5t-8 -5.5q-3 -2 -7.5 -6t-5.5 -4q-7 -7 -4 -16q3 -11 9 -22q25 -50 59 -98q1 -1 11 -14q4 -4 11 -12t13 -14.5t12 -12.5q8 -9 30 -23q6 -5 12 0q21 14 28 28l6 9
q16 17 38 59q12 23 34 71l5 6q1 1 4 1q2 0 2 -3q1 -2 1 -6q-2 -6 -4 -10q-29 -72 -37 -89q-6 -16 -7 -20q-7 -19 -19 -30q-12 -12 -25 -30q-7 -8 4 -15q11 -8 25 -16q12 -8 36 -22l6 -6q1 -1 0 -3t-2 -3q-9 -4 -22 -2q-3 1 -7 2.5t-6 1.5q-2 1 -22.5 9.5t-29.5 14.5
q-1 0 -2 1q-12 7 -17.5 6.5t-18.5 -10.5q-4 -4 -18.5 -14.5t-21.5 -17.5q-4 -3 -14 -9q-23 -14 -57 -26q-31 -10 -52 -4zM166 356q3 1 9 5q17 10 79 58q2 1 4 3.5t4 3.5q12 11 32 37q10 11 28 35q8 14 14 26q7 12 5 29q0 3 -0.5 8.5t-0.5 8.5q-3 23 -13 40q-7 14 -27 36
q-7 8 -15 11q-28 11 -54 11q-17 0 -29 -8q-35 -22 -52 -52q-21 -39 -22 -81q-2 -45 3 -75q8 -46 14 -69q1 -5 7 -22q4 -11 14 -5zM162 29q20 0 36 9q4 2 8.5 4t9.5 5t8 4q18 10 19 11q8 5 21.5 15.5t15.5 12.5q10 8 10.5 12t-8.5 13l-5 5q-22 17 -53 52q-24 29 -39 53
q-21 34 -42 74q-1 3 -5 9q-4 4 -8 2l-4 -2q-32 -24 -44 -40q-5 -6 -23 -31t-25 -56q-9 -32 -1 -67q3 -16 12 -30q4 -8 14 -15q5 -2 12.5 -7t9.5 -6q28 -19 72 -26q3 -1 9 -1z" />
    <glyph glyph-name="quotesingle" unicode="'" horiz-adv-x="25" 
d="M9 480l-4 4q-1 3 -1.5 102.5t0.5 114.5q0 9 4 16q0 2 3 2q2 0 2 -2q2 -4 2 -5q0 -15 1 -22q0 -23 2 -30q0 -2 0.5 -6.5t0.5 -6.5l2 -140q3 -13 -3 -25q-1 -2 -4.5 -3t-4.5 1z" />
    <glyph glyph-name="parenleft" unicode="(" horiz-adv-x="143" 
d="M121 0q-12 0 -23 8q-12 10 -21 24q-22 34 -30 65q-4 16 -20 65q-14 43 -22 91q-1 5 -1 15q0 26 -1 39q0 33 -1 49q-4 26 0 53q2 12 2 19q0 17 4 30l3 17q7 27 11 37q2 5 5 15.5t4 12.5q12 32 23 45l6 9q4 11 16 29q14 24 15 28q2 4 4 6q18 26 28 38q3 3 10 5l2 -1
q1 -1 2 -1q10 -7 5 -15q-1 -2 -10 -17q-2 -3 -6.5 -8.5t-6.5 -8.5q-11 -13 -17 -26l-7 -12q-2 -3 -8 -13.5t-9 -15.5v-1l-1 -1q-5 -16 -19 -37q-2 -2 -2 -5q-1 -4 -6.5 -17t-6.5 -21l-4 -13l-6 -24q-1 -2 -1 -5q-6 -19 -6 -87q2 -11 3 -31t3 -31q1 -2 1 -7q2 -32 5 -50
q1 -2 1 -5q0 -14 6 -38q17 -57 18 -59t2.5 -6.5t2.5 -6.5q0 -3 2 -9q6 -12 12 -42q1 -6 4.5 -16t5.5 -16q5 -14 15 -26l16 -18q2 -2 2 -3v-5q-2 -2 -4 -2z" />
    <glyph glyph-name="parenright" unicode=")" horiz-adv-x="154" 
d="M44 -2q-1 0 -2 1l-2 1q-10 7 -6 15q2 4 9 17q2 4 6 9.5t5 8.5q10 14 15 27q1 2 3 6.5t3 6.5q3 5 8 15.5t7 14.5v1l1 1q4 16 16 39q2 2 2 5q1 3 5 16.5t5 22.5l3 13q1 4 2.5 12t1.5 12q1 2 1 5q2 11 3 23t0 20.5t-2.5 23t-1.5 20.5q-2 10 -5 31t-5 31q-2 2 -2 7
q-4 32 -9 49q-1 2 -1 5q-1 14 -9 38q-18 49 -22 57l-6 13q0 2 -3 8q-6 10 -15 41l-12 32q-7 14 -17 24l-17 17q-3 1 -3 3v5q2 2 4 2q13 1 23 -6q9 -6 23 -22q23 -30 35 -63q6 -20 25 -63q17 -40 28 -89q2 -5 2 -15q2 -26 4 -39q1 -8 2.5 -24.5t2.5 -24.5q7 -29 4 -53
q-1 -6 -1 -19q2 -17 -1 -30q-1 -3 -1.5 -8.5t-0.5 -8.5q-5 -28 -8 -38q-2 -4 -7 -28q-10 -32 -20 -47q-1 -3 -5 -9q-3 -13 -14 -31l-5 -11q-6 -11 -8 -18q0 -3 -3 -6q-13 -22 -25 -40q-2 -2 -10 -6z" />
    <glyph glyph-name="asterisk" unicode="*" horiz-adv-x="183" 
d="M152 495q-8 2 -11 6q-10 11 -28 33l-18 24q-2 3 -7 3t-7 -3q-3 -2 -7 -8q-10 -20 -45 -45q-4 -3 -10 -1q-5 2 -5 6q0 7 1 10q12 32 29 51l6 9q4 7 -3 9l-26 8q-13 4 -20 17q-1 3 1 6t5 3q11 2 29 -4l29 -6q8 -2 10 7q0 2 0.5 4.5t0.5 3.5q0 13 1 19v22q0 3 2 13
q1 8 6 9.5t11 -3.5q2 -1 6 -5q8 -8 7 -19q-2 -9 -4 -27v-13q0 -11 10 -11h8q3 1 17.5 3.5t22.5 3.5h13q4 -1 6 -5q4 -5 -1 -10q-8 -6 -12 -7q-5 -2 -15.5 -4t-15.5 -4q-5 -1 -15 -5q-6 -4 -4 -10q4 -9 16 -25q13 -16 23 -39q1 -1 2 -4l1 -3q1 -3 -2.5 -6t-6.5 -3z" />
    <glyph glyph-name="plus" unicode="+" horiz-adv-x="296" 
d="M143 107q-3 0 -3 2q-3 6 -5 20q0 4 -0.5 11.5t-0.5 11.5q0 24 -2 36q-1 8 1 23v8q0 4 -4 4q-2 1 -5 1q-9 1 -27 1h-48q-12 0 -25 5q-3 1 -8 2.5t-7 2.5q-8 5 -9 13q0 9 8 9q9 1 26 1q36 0 54 1h8q12 3 26 1h6q5 0 5 4q1 2 1 6v16q-1 14 0 40.5t1 34.5q0 5 1 7q2 12 0 24
q-1 2 -1 6q2 7 9 9q1 0 5 -2q3 -2 5 -7v-10v-55q0 -5 0.5 -17t0.5 -18q0 -13 1 -19v-11q2 -9 10 -9q2 -1 7 -1h11q15 -3 45 -3q10 0 30 -2q8 -1 26 -1q3 -1 9 -1q4 -2 2 -6l-2 -2q-10 -10 -26 -12q-18 0 -27 -2q-2 0 -6 0.5t-7 0.5q-35 3 -63 -2q-6 -1 -8 -8q-2 -8 -2 -14
v-46q0 -4 -0.5 -11t-0.5 -10q-2 -18 -6 -27q0 -2 -2 -4h-1q-1 -1 -2 -1z" />
    <glyph glyph-name="comma" unicode="," horiz-adv-x="28" 
d="M13 -47q-5 2 -5 6q0 1 0.5 2.5t0.5 2.5l-1 4q-4 2 -5 3q-5 5 -3 11q0 7 6 7q17 4 20 -12q1 -1 1 -4l1 -5v-4q0 -14 -15 -11z" />
    <glyph glyph-name="hyphen" unicode="-" horiz-adv-x="444" 
d="M409 191q5 -3 5 -10t-10 -9h-3l-2 -1q-54 -9 -93 -5q-11 1 -31 1h-85h-3l-11 3q-2 1 -9 1h-23v-1h-14h-68q-14 0 -22 10q-1 1 0 4t2 4q6 2 8 2q6 0 18 1.5t19 2.5q14 1 42 3.5t42 3.5q8 1 -8 1q13 0 20 1q15 3 90 5q1 0 37 3q7 0 21 0.5t21 0.5q21 1 40 -10q2 -1 8 -5z
" />
    <glyph glyph-name="period" unicode="." horiz-adv-x="41" 
d="M21 0q-11 0 -16 8q-1 1 -2 3t-2 3q-3 8 1 15q3 4 7 7q5 5 11 3q9 -4 12 -8l6 -8q2 -2 2 -5q2 -3 0 -5q-6 -9 -16 -13h-3z" />
    <glyph glyph-name="slash" unicode="/" horiz-adv-x="389" 
d="M1 -6l-1 1v2q0 4 2 8q3 5 8 17t8 18q4 7 10 19.5t11.5 22.5t11.5 18q15 21 43 63q10 13 15 25l57 99q5 7 8 14q10 20 17 30q5 8 6 11q4 10 13.5 27t11.5 21q16 30 22 46q0 1 1.5 4.5t2.5 5.5q9 15 37 70l13 24q2 4 4.5 8.5t5 10.5t4.5 9q12 26 16 32l9 18q14 32 35 61
q8 10 14 14h3v-3q-7 -10 -38 -76q-3 -7 -12 -26.5t-14 -29.5q-14 -31 -19 -39q-3 -5 -7.5 -15t-6.5 -15q-2 -3 -15 -32.5t-21 -43.5q-7 -13 -11 -25q-6 -16 -22 -46q-2 -3 -10 -19q-9 -23 -21 -42l-6 -12q-8 -22 -27 -54q-2 -2 -2 -4q-4 -7 -11.5 -20.5t-13.5 -24.5t-11 -21
q-16 -28 -26 -40q-17 -21 -41 -57q-7 -12 -8 -14q-10 -19 -28 -31l-15 -9h-2z" />
    <glyph glyph-name="zero" unicode="0" horiz-adv-x="283" 
d="M109 1q-9 1 -18 6q-31 23 -34 25q-4 3 -10 13q-19 35 -29 69q-4 9 -5 16q-8 46 -7 83v12q-2 22 -1 32q0 23 3 46q2 17 8 51q0 2 0.5 6.5t0.5 6.5q0 7 5 45q1 7 3.5 26t3.5 29q1 8 5 19q16 44 19 51q1 1 6 17q12 41 39 90q8 17 24 35q12 12 22 13l7 3q14 4 18 3.5t16 -8.5
q12 -7 22 -20q1 -2 7 -10t8 -13l12 -17q14 -17 26 -44l3 -13q2 -6 5.5 -21t5.5 -23q2 -17 1 -25q-2 -15 1 -27q2 -10 2 -30v-151q0 -6 -5 -41q-4 -33 -7 -53q-10 -54 -14 -65q-1 -3 -2.5 -9.5t-2.5 -9.5q-4 -17 -14 -35q-10 -16 -16 -23q-33 -39 -35 -41q-9 -10 -25 -15
q-19 -5 -48 -3zM130 16q22 -3 38 15q16 16 23 25q16 24 26 47q5 8 9 27q4 14 10 42q6 24 7 36q2 14 4 40q0 9 1 13q3 16 3 32q0 11 5 63v21q-2 8 0 24q2 17 0 25q-1 10 -1 31q0 39 -4 58q-1 5 -1 14q0 16 -4 28q-1 4 -7 20t-10 24t-5 13q-8 20 -30 48q-4 5 -14 13
q-12 9 -27 6q-14 -1 -22 -14q-16 -22 -20 -32q-19 -39 -29 -70q-20 -63 -30 -123q-2 -12 -2 -18q0 -8 -3 -32.5t-2 -38.5q0 -19 -7 -33q-4 -9 -4 -20q-2 -32 -2 -46v-4q2 -11 2 -49q-1 -12 1.5 -34t2.5 -27q0 -2 2 -10q3 -19 25 -67q8 -16 19 -27q20 -21 46 -20z" />
    <glyph glyph-name="one" unicode="1" horiz-adv-x="146" 
d="M82 0q-3 0 -5 1l-4 6q-4 12 -4 19q-5 33 -5 62q-2 18 -2 28q0 8 1 11q0 4 0.5 12.5t0.5 12.5q-1 30 5 64l6 41q0 4 1.5 12.5t2.5 13.5q2 13 5.5 37.5t5.5 35.5q0 8 1 13t1 13t1 13q1 3 1 10t1 11v49q-1 14 2 32q4 27 5 43q2 11 8 41l3 20v8l-1 1l-2 1q-1 0 -2 -1l-3 -3
q-9 -13 -25 -39q-9 -12 -10 -13q-6 -7 -18.5 -20.5t-18.5 -20.5q-8 -11 -25 -16q-2 1 -3 1q0 2 1 2l4 6q16 16 23 25q14 16 22 24q12 14 39 51q19 27 34 81q0 4 3 9q2 2 5 2q1 1 3 -0.5t2 -3.5q1 -12 -3 -22q-4 -15 -5 -20q-4 -17 -4 -40q1 -17 -2 -39q-1 -5 -2 -20t-3 -23
v-17q1 -22 -2 -47q-4 -18 0 -43q4 -26 0 -51q-2 -14 -1 -21q0 -20 -6 -60l-3 -22q0 -7 -2 -15q-5 -16 -5 -40q-5 -50 -7 -60q-6 -27 -8 -84q0 -14 -2 -21v-18q0 -4 1 -11.5t1 -11.5q0 -3 -2 -5q0 -4 -4 -4z" />
    <glyph glyph-name="two" unicode="2" horiz-adv-x="306" 
d="M114 0q-37 2 -70 18q-8 4 -16 12q-11 12 -19 30q-6 11 -4 25q1 6 3.5 19.5t3.5 19.5q4 14 8 21q6 10 7 15q4 15 24 48q22 34 28 42t18 21.5t13 15.5l10 12q14 22 41 50l10 12q16 20 48 62q17 22 27 46l15 33q0 2 1 3q15 42 11 81q-2 20 -9 38l-11 21q-9 20 -28 26l-27 9
q-6 2 -11 1q-25 -2 -43 -12q-38 -21 -53 -62q-9 -22 -12 -55q-2 -1 -3 -1t-1 1q-2 2 -2 3v7q1 4 1 12.5t1 12.5q0 1 1 6t2 8q7 30 29 53q19 19 35 29q19 12 36 12q1 0 3.5 0.5t4.5 0.5q15 4 34 -3l11 -5.5t10 -4.5q19 -9 30 -26q14 -19 22 -46q2 -4 2 -7q1 -7 2.5 -22
t2.5 -22q0 -8 -1 -12q-7 -36 -10 -49t-11 -26l-4 -8q-1 -5 -7 -15q-1 -2 -2 -5t-2 -4q-7 -17 -32 -52l-20 -24q-1 -1 -3.5 -4t-3.5 -5q-3 -6 -7 -11.5t-9 -11.5t-8 -10l-4 -4q-14 -14 -37.5 -43.5t-27.5 -34.5q-24 -29 -62 -95q-3 -7 -9 -20.5t-8 -18.5q-3 -9 -5 -28
q-1 -26 23 -44q24 -16 49 -16q10 0 32 -2q20 -2 41 0q4 1 13 1.5t13 0.5h11q24 4 61 -2q3 -1 9.5 -1t9.5 -1q1 0 5 -0.5t6 -0.5q2 -2 1 -3q0 -1 -0.5 -1t-0.5 -1l-7 -1q-9 -1 -28 -1h-19q-11 0 -16 -1t-16 -2t-16 -2q-13 -2 -61 -2h-23z" />
    <glyph glyph-name="three" unicode="3" horiz-adv-x="416" 
d="M153 8q-19 0 -39 3q-27 4 -38 5q-15 2 -53 15q-5 2 -7 7q-2 4 -11 8v2q0 1 1 2q11 5 23 3q17 -1 33 0q6 1 16 -3q9 -4 23 -4q48 0 72 1q4 0 34 5l23 6q33 7 84 35q17 9 27 25q32 44 40 92l3 18q0 3 1 10t1 11q3 21 -4 46q-9 31 -34 60q-10 11 -23 18q-35 20 -47 25
q-31 12 -62 8q-9 -1 -49 -11q-20 -6 -34 -19q-3 -3 -9 -7q-7 -4 -13 3q-7 13 -5 23q1 2 1 8q-2 17 15 23q21 9 26 10q9 2 25 10q28 15 63 50q9 9 14 12q17 10 36 38q2 2 2 3q16 40 8 76q-6 26 -30 42q-26 18 -54 22q-10 2 -14 1q-43 -5 -73 -17q-20 -8 -35 -21
q-13 -9 -17 -24q-4 -12 -7 -17q-1 -3 -5 -7q-2 -1 -3 0l-3 3v4q7 24 17 39q7 11 23 23q21 14 50 22q38 10 58 12q9 2 20 0q28 -7 45 -18q10 -6 16 -9q28 -16 38 -58q1 -2 1 -6q4 -27 0 -48q-6 -36 -28 -65q-18 -23 -40 -43t-41 -33q-2 -3 -1 -4q0 -2 2 -2h21q4 -1 11 -1
t11 -1q24 -3 40 -14q5 -2 51 -29q10 -7 17 -15q18 -22 25 -34q11 -16 14 -34l6 -25v-11q-2 -28 -2 -42q-2 -34 -13 -61q-15 -34 -24 -45q-1 -1 -3 -5q-9 -20 -36 -41q-4 -4 -6 -5q-50 -25 -59 -28q-34 -10 -51 -13q-13 -3 -14 -3q-20 -6 -50 -6z" />
    <glyph glyph-name="four" unicode="4" horiz-adv-x="258" 
d="M219 -2q-4 0 -6 5q-5 12 -7 28l-6 61q-1 6 -1 17q-3 41 -3 43v16v12l3 114v63q0 9 2 31q0 6 0.5 17.5t0.5 17.5l3 30q1 5 1 17q-1 10 -10 14q-40 14 -75 6l-16 -3q-23 -5 -36 -22q-2 -1 -6 -5q-16 -18 -23 -32q-3 -7 -13 -19q-1 -3 -5.5 -3t-6.5 3q-4 4 -4 8q-7 23 -5 39
q1 4 1 13q2 22 2 34q2 36 4 53q3 30 9 64q4 24 7 36q5 17 2 31q-1 3 1 8l1 1l2 1q1 0 2 -1q3 -9 11 -27q3 -9 1 -23l-9 -82q-1 -5 -1 -16q0 -5 -0.5 -13.5t-1 -15.5t-1.5 -14q-1 -5 1 -17q3 -10 11 -5q10 6 15 8q28 14 61 16h21q31 0 52 -8q3 -1 8 -1q3 0 3 2q2 2 2 5
q1 15 7 47q2 9 4 27t10 54q8 28 8 42q0 1 0.5 3t0.5 3q1 1 2.5 2t2.5 0q8 -4 8 -13v-7q-1 -8 -3.5 -21.5t-3.5 -19.5q-2 -11 -4 -29q0 -10 -2 -30q0 -3 -0.5 -10t-0.5 -11l-3 -22q-2 -23 0 -35q2 -8 -1 -15q-3 -4 -3 -9l-3 -45v-2q-1 -13 -1.5 -40.5t-2.5 -42.5v-3.5v-4.5
v-3q2 -12 2 -34v-27q0 -13 -2 -39q-2 -17 -2 -49v-63q0 -34 3 -51q2 -15 0 -45q0 -6 -1 -8q-1 -3 -3 -5t-3 -1z" />
    <glyph glyph-name="five" unicode="5" horiz-adv-x="369" 
d="M204 -2q-7 -1 -15 2q-16 7 -40 9q-14 2 -40 12q-7 2 -19 7.5t-19 8.5q-10 4 -21 15q-11 10 -28 23q-1 1 -1 4q-1 1 1 2t3 0q1 0 3 -0.5t3 -0.5l15 -6q16 -6 25 -7q3 -1 14 -5q30 -11 50 -16q43 -9 84 1q11 2 24 15q14 15 23 30q6 13 12 39q7 37 5 111q-1 23 -13 48
q-28 59 -29 61q-2 4 -8 12q-33 44 -78 57q-26 9 -52 4q-25 -4 -37 -10q-10 -4 -14 -14l-6 -17q-2 -5 -5 -6q-7 -6 -17 -4q-2 0 -5 3q-7 8 -9 18q-6 25 -5 48q1 9 1.5 24t0.5 19q-2 38 -2 50v16q3 35 9 70q3 23 -3 40l-6 22q-1 5 4 9t10 3q1 -1 3 -1t3 -1q25 -13 75 -25
q3 0 19 -2.5t25 -1.5q8 0 12 -1q51 -3 103 0q23 1 46 6q8 1 17.5 2.5t20.5 3.5t18 3q3 0 3 -2q0 -3 -1 -3q-9 -9 -20 -10q-11 -3 -25 -8l-36 -6q-25 -5 -46 -5q-6 0 -16 -2q-21 -3 -42 0q-22 3 -45 3q-1 0 -52 6q-16 1 -35 10q-10 4 -15 5q-3 0 -3 -2q0 -8 2 -12
q3 -14 3 -28q-1 -22 -1 -67v-2q0 -6 -1 -25.5t0 -30.5q1 -10 1 -57v-11t1 -11q0 -5 1 -6q1 0 6 2q40 26 88 23q6 0 16 -2q44 -12 68 -35q21 -18 30 -29q11 -13 16 -24q9 -15 37 -72q4 -7 16 -52q1 -4 1 -12l3 -50v-13q-3 -40 -12 -77q-3 -13 -9 -23q-16 -23 -38 -36
q-17 -10 -52 -16z" />
    <glyph glyph-name="six" unicode="6" horiz-adv-x="292" 
d="M97 0q-16 -4 -30 7q-15 14 -24 26q-22 33 -29 69q-4 20 -5 31q-2 13 -4 77v12q-2 69 11 117q12 50 33 97l20 50q2 9 12 25q13 20 33 44q8 9 16.5 20t18.5 25t16 21q23 31 57 51q5 2 13 8t10 7l13 9q5 2 5 -2v-5q-1 -2 -4 -5q-36 -36 -47 -45q-12 -10 -17 -17
q-16 -20 -24 -31q-15 -23 -17 -26q-6 -10 -14 -20q-10 -12 -28 -38q-2 -2 -7 -12q-3 -5 -7.5 -14t-6.5 -12q-10 -19 -17 -46q-3 -16 -10 -28q0 -1 -2 -4t-2 -5q-4 -15 -16 -43l-3 -9q-1 -9 -4.5 -26t-5.5 -25q-3 -18 -7 -54v-20q2 -20 2 -30v-5t1 -5q1 -7 4 -45
q3 -31 20 -61l1 -2q18 -30 54 -30q25 -2 46 9q36 16 61 46q24 32 26 35q10 13 14 26q7 20 13 58v12q-2 26 -4 37q-3 19 -15 32q-16 16 -25 23q-6 4 -20 12l-22 9q-14 5 -31 2q-11 -2 -21 -6q-26 -11 -42 -29q-13 -13 -25 -28q-3 -3 -8.5 -9.5t-8.5 -9.5t-3 -1q-2 0 -2 3
q0 1 1 2q18 38 37 58l1 1q41 31 72 37q1 0 3 0.5t3 0.5q45 0 71 -20l36 -30q5 -4 7 -12q1 -6 11 -33q8 -22 5 -43l-3 -32q0 -13 -5 -26q-12 -30 -20 -43l-3.5 -7t-4.5 -7q-6 -12 -10 -17q-4 -8 -14 -22q-11 -16 -21 -23q-4 -2 -12 -8q-9 -7 -31 -17q-24 -10 -44 -9
q-14 0 -21 -2z" />
    <glyph glyph-name="seven" unicode="7" horiz-adv-x="391" 
d="M46 0q-1 0 -3 2q-1 2 -1 6q-2 16 2 29q2 6 5.5 16t6.5 18.5t6 16.5q4 8 16 40q1 2 2.5 6.5t2.5 6.5q12 25 21 65q2 6 4.5 13t5.5 15.5t5 13.5q6 17 20 49l9 22q1 1 -0.5 3.5t-2.5 2.5q-38 0 -57 -3q-11 -3 -35 -5q-14 -2 -21 -5q-8 -3 -16 4q-6 6 -9 10q-3 3 -2.5 7.5
t4.5 5.5q12 6 18 8q20 6 30 8q14 4 21 4q5 0 35.5 3t46.5 1q7 -1 11 6l3.5 7t4.5 7q13 30 32 65l25 48q9 17 29 49q15 22 32 49q7 9 19 27q16 23 30 37q5 6 15 20q2 0 0 2l-2 2q-26 -6 -38 -9l-23 -6q-23 -8 -42 -7h-6q-1 0 -47 -6q-20 -2 -48 1l-55 6q-28 2 -40 4
q-22 3 -39 13q-1 0 -1 3q1 1 2 1q5 -1 14 -2.5t13 -2.5q6 -1 40 -4q25 -1 53 -6q22 -3 45 0l25 3q71 8 79 10q16 4 48 8q22 4 34 9q7 5 11 -4q4 -7 1 -12q-2 -7 -7 -11q-12 -10 -22 -24q-5 -8 -20 -30t-22 -34q-28 -42 -47 -86q-14 -30 -23 -45l-4 -6q-3 -6 -15.5 -32
t-17.5 -41l-3 -8q0 -6 3 -6q3 -2 9 -4q11 -2 27 -12q4 -3 14 -7q5 -5 3 -9q-2 -6 -6 -7q-3 -1 -8 -1q-11 1 -35 5q-7 0 -11 1q-8 0 -13 -8q-1 -1 -2.5 -4t-2.5 -5.5t-2 -4.5q-7 -18 -23 -54q-28 -64 -33 -83l-3 -9q-4 -8 -9.5 -22.5t-7.5 -19.5q-11 -26 -26 -59
q-7 -16 -23 -48q-2 -4 -4 -6q-1 -1 -5 -1z" />
    <glyph glyph-name="eight" unicode="8" horiz-adv-x="293" 
d="M166 -2q-21 -3 -45 4q-42 11 -62 27q-2 2 -5 4.5t-5 5t-4 4.5l-24 35q-22 35 -14 76q14 67 37 112q11 27 40 70q22 36 44 59q4 4 22 24q4 5 10 15q2 6 1 9q-10 41 -20 56q-12 18 -21 50v1q-1 2 -1 3q-5 46 -5 53q0 27 16 49q8 12 18 21l15 15q5 5 12 5q32 0 53 -10l14 -6
q13 -5 27 -19q9 -9 10 -18q4 -14 4 -23q1 -13 1 -38q0 -6 -2 -18q-9 -39 -14 -56q-2 -10 -4 -13q-16 -28 -28 -39q-18 -20 -29 -28l-3 -3q-4 -4 -4 -10l3 -10q4 -11 5 -20q2 -11 6.5 -30.5t5.5 -22.5q3 -14 17 -59q2 -8 11 -37t13 -45l6 -20q11 -34 18 -62q5 -21 0 -38
q-7 -27 -19 -46q-9 -15 -27 -21t-38 -6h-25h-10zM193 471l3 2l30 30q6 8 9 13q19 34 25 62q4 12 4 29q1 24 -18 45q-9 9 -18 14q-29 13 -32 14q-6 2 -11 0q-14 -1 -23 -14q-18 -27 -18 -52q1 -3 1 -10q-3 -24 6 -53q13 -43 33 -79q3 -5 9 -1zM184 14q6 -1 38 4q15 3 24 18
q11 18 16 43q3 16 -1 30q-10 40 -18 60l-3 13q-2 6 -5.5 19t-5.5 20q-16 48 -26 83q-5 16 -8 29l-12 47q-1 4 -4 7q0 1 -3 1q-4 -2 -5 -3q-2 -2 -5.5 -6.5t-5.5 -6.5q-23 -25 -30 -38q-5 -8 -15.5 -22.5t-14.5 -20.5q-3 -4 -9 -14q-23 -43 -34 -74q-10 -25 -11 -31
q-4 -11 -8 -37q-1 -10 0 -20q3 -31 24 -60q14 -14 19 -16q23 -11 32 -13l36 -9q10 -3 35 -3z" />
    <glyph glyph-name="nine" unicode="9" horiz-adv-x="362" 
d="M230 0q-30 -2 -54 1q-6 0 -9 1q-42 11 -62 23q-4 2 -13.5 7.5t-14.5 7.5q-30 17 -44 47q-8 16 -8 19t2 3h3l3 -3q2 0 2 -3q10 -15 25 -25l4 -4q26 -23 75 -39l30 -9q4 -1 12 -1l21 -3q4 0 10.5 -0.5t9.5 -0.5q22 2 34 18q23 34 30 52q19 47 22 77q2 12 4 32q6 36 7 54
q3 18 3 55v55v85v11l-3 3h-2q-7 -9 -45 -47q-15 -15 -42 -33q-20 -12 -44 -14q-47 -1 -92 12q-1 1 -4 1q-13 5 -32 19t-28 24l-12 17q-5 6 -11 22q-4 15 -1 34q5 29 19 50q14 25 42 55q27 26 77 58q54 25 61 26q37 9 40 9q21 4 44 -7q6 -2 16 -10q6 -4 0 -7q-5 -4 -11 -2
q-5 2 -10 5q-8 5 -25 5q-22 1 -52 -11q-32 -17 -38 -20q-12 -5 -23 -18l-13 -12q-18 -14 -46 -48q-5 -5 -13 -15q-23 -23 -32 -48q-2 -7 -10 -21q-8 -17 2 -38q8 -15 21 -25q17 -13 30 -19q27 -11 55 -17q8 -2 15 -2q16 0 24 -1q20 0 35 8q34 18 50 35l17 16q17 15 27 33
q1 1 2.5 3.5t2.5 3.5q9 11 9 34v53q0 23 -7 54q-3 10 -10 15q-1 1 -4.5 4t-5.5 5v3q1 1 2 1q6 -2 18 -8q17 -6 21 -21q4 -12 10 -36l6 -23q3 -13 1 -23q-3 -8 -1 -23q2 -8 2 -24v-18.5t1 -18.5q0 -6 1 -16t1 -16q0 -5 -1 -15t-1 -16q-1 -33 -1 -98q0 -27 -2 -40
q-1 -4 -1.5 -11.5t-0.5 -9.5q0 -13 -3 -28q-1 -8 -5 -31q-3 -19 -15 -50l-18 -46q-9 -24 -25 -49q-11 -16 -35 -28q-3 -1 -19 -4z" />
    <glyph glyph-name="colon" unicode=":" horiz-adv-x="102" 
d="M53 398q-28 0 -40 19q-2 3 -5 9t-4 7q-10 18 2 38q6 11 16 18q12 11 28 6q23 -8 30 -19l15 -20q4 -6 6 -14q2 -6 -1 -11q-13 -23 -39 -32q-3 -1 -8 -1zM53 -10q-28 0 -40 19q-2 3 -5 9t-4 7q-10 18 2 38q6 11 16 18q12 11 28 6q23 -8 30 -19l15 -20q4 -6 6 -14
q2 -6 -1 -11q-13 -23 -39 -32q-3 -1 -8 -1z" />
    <glyph glyph-name="semicolon" unicode=";" horiz-adv-x="103" 
d="M54 339q-28 0 -40 19q-2 3 -5 9t-4 7q-10 18 2 38q6 11 16 18q12 11 28 6q23 -8 30 -19l15 -20q4 -6 6 -14q2 -6 -1 -11q-13 -23 -39 -32q-3 -1 -8 -1zM57 -11q-5 2 -5 6q0 1 0.5 2.5t0.5 2.5l-1 4q-4 2 -5 3q-5 5 -3 11q0 7 6 7q17 4 20 -12q1 -1 1 -4l1 -5v-4
q0 -14 -15 -11z" />
    <glyph glyph-name="less" unicode="&#x3c;" horiz-adv-x="550" 
d="M501 77l-451 207v49l451 235v-78l-359 -178l359 -157v-78zM221 622z" />
    <glyph glyph-name="equal" unicode="=" horiz-adv-x="446" 
d="M337 341q-11 1 -31 1h-85h-3q-17 4 -49.5 4h-40.5h-23v-1h-14h-68q-14 0 -22 10q-1 1 0 4t2 4q6 2 8 2q6 0 18 1.5t19 2.5q14 1 42 3.5t42 3.5q21 1 62 1q13 0 20 1q15 2 90 5q1 0 37 3q7 0 21 0.5t21 0.5q21 1 40 -10q2 -1 8 -5l9 -6q5 -3 5 -10t-10 -9q-1 0 -3 -1h-2
q-54 -9 -93 -5zM338 161q-11 1 -31 1h-85h-3q-17 4 -50 4h-40h-23v-1h-14h-68q-14 0 -22 10q-1 1 0 4t2 4q6 2 8 2q6 0 18 1.5t19 2.5q14 1 42 3.5t42 3.5q21 1 62 1q13 0 20 1q15 2 90 5q1 0 37 3q7 0 21 0.5t21 0.5q21 1 40 -10q2 -1 8 -5l9 -6q5 -3 5 -10t-10 -9
q-1 0 -3 -1h-2q-54 -9 -93 -5z" />
    <glyph glyph-name="greater" unicode="&#x3e;" horiz-adv-x="550" 
d="M50 155l359 157l-359 178v78l451 -235v-49l-451 -207v78zM221 622z" />
    <glyph glyph-name="question" unicode="?" horiz-adv-x="203" 
d="M41 180q-1 -1 -2.5 0t-2.5 2t-3.5 5.5t-3.5 7.5q-11 28 -11 58q-1 15 5 41q6 22 20 64q5 13 12 23l34 46q5 7 14.5 20.5t14.5 20.5q7 11 12 26q11 32 27 67l3 9q4 25 5 40q1 8 -2 18q-7 20 -14 30q-5 7 -15 14q-16 9 -44 11q-10 1 -23 -6q-24 -14 -35 -37q-9 -20 -15 -40
q0 -2 -0.5 -5t-0.5 -4q4 -33 15 -55q0 -1 1 -2q3 -6 0 -8q-4 -1 -8 3l-12 12q-6 7 -9 18q-6 22 1 47l12 39q7 21 27 35q11 7 21 11q30 12 68 0q21 -5 33 -17q25 -27 31 -51q1 -3 4 -14q5 -15 1 -28q-1 -4 -1 -13q0 -21 -13 -51q-5 -11 -6 -14q-2 -10 -8.5 -27t-7.5 -21
q-5 -12 -16 -27q-7 -10 -21.5 -28.5t-21.5 -27.5q-20 -27 -28 -48l-15 -37q-8 -19 -11 -37q-4 -20 -8 -31q-3 -7 -2 -14q0 -3 1 -8t1 -7q0 -3 -1 -5q0 -1 -2 -5zM33 1q-12 8 -16 15q-1 4 0 9q5 7 12 8q1 1 3 1q18 -4 18 -22q0 -2 -1 -4q-4 -6 -9 -7q-4 -2 -7 0z" />
    <glyph glyph-name="at" unicode="@" horiz-adv-x="701" 
d="M268 8q-29 1 -58 6q-8 2 -12 2q-6 0 -12 1t-13.5 2.5l-12.5 2.5q-17 2 -49 16q-6 3 -18.5 9.5t-19.5 9.5q-12 7 -18 15q-10 12 -17 17q-3 2 -9 8q-4 4 -5 6q-12 23 -15 33l-6 22q-5 26 -1 47q1 5 1 15q0 17 5 37q1 3 2.5 9.5t2.5 9.5q6 28 19 53q9 20 20 40q10 19 26 39
l9 12q1 1 2.5 3t2.5 3q5 4 14.5 12.5t14.5 12.5q30 23 67 35q27 10 61 16q5 2 19 4q13 1 25 0q3 -1 10 -1.5t10 -0.5q1 0 44 -3q1 0 4 -0.5t5 -0.5q6 -2 18 -4q9 0 16 -4q1 0 4 -1.5t4 -1.5q11 -2 29 -10q36 -17 62 -34q27 -20 37 -44q12 -25 15 -32q1 -4 3.5 -13t4.5 -14
q7 -26 15 -80q1 -3 1 -11q-6 -34 -12 -49q-8 -18 -10 -22q-8 -10 -12 -19q-2 -6 -12 -12q-9 -5 -22 -10q-6 -3 -19 -1q-21 3 -35 16q-17 14 -28 32q-2 3 -7 15q-6 16 -7 20q0 1 -1 2t-2 0l-2 -1q-11 -23 -16 -28l-6 -9q-24 -27 -61 -53q-4 -3 -14 -7q-12 -4 -19 -5
q-43 -9 -74 -4q-22 4 -33 7q-20 5 -39 21q-32 29 -52 63q-9 13 -12 30v7q-1 8 0 8q1 5 4.5 22t6.5 26q1 6 4 11q13 31 31 53q6 8 14 14q10 9 30 25q30 24 69 32q7 1 15 0q2 0 5.5 -0.5t5.5 -0.5q12 0 36 -4q7 -2 19.5 -6t17.5 -5l27 -17q3 -2 9 -7t9 -7q8 -7 14 -22
q3 -6 -2 -11q-3 -3 -6 -1l-13 13q-12 14 -25 19l-13 6q-11 7 -37 13q-13 3 -14 3q-8 3 -37 5q-13 3 -28 -5q-18 -8 -36 -23q-26 -22 -38 -34q-13 -13 -21 -32q-14 -31 -19 -70q-3 -21 9 -41q13 -24 30 -35q7 -5 21 -17q10 -6 14 -9q8 -5 20 -7q22 -5 55 -3q38 3 68 18
q12 8 17 13l25 24q5 4 10 12q12 22 14 28q4 13 9 18q3 3 3 11q0 22 -1 33q-3 24 -1 56q1 8 0 15v8q1 3 4 4q5 2 7 -2q3 -3 3 -5q1 -3 1 -8v-8q1 -7 0 -7q0 -21 7 -39q3 -11 1 -18v-11q1 -12 5 -36q2 -12 6 -22q10 -27 29 -54q9 -12 23 -12q21 2 35 12q6 4 14 18q10 22 13 34
q1 5 1 15v16.5t1 17.5q0 6 -5 36l-9 40q-1 2 -2 5.5t-1 5.5l-12 29q-13 29 -45 49q-17 12 -36 21q-20 8 -31 11q-6 1 -23 5q-13 3 -28 3q-9 0 -13 1q-13 3 -30 1q-17 0 -26 2q-6 2 -20 0l-10 -1q-13 0 -39 -6h-2q-14 -1 -40 -13l-15 -8q-7 -3 -19 -11q-3 -3 -12 -9.5
t-14 -11.5q-18 -18 -23 -27q-1 -1 -8 -14.5t-11 -20.5q-1 -1 -2 -4t-2 -5q-10 -14 -19 -40l-15 -45q-7 -23 -9 -45q0 -8 -1 -12q-3 -26 2 -46l6 -20q3 -16 15 -28q16 -16 25 -23q3 -2 9 -8q12 -10 23 -15l12 -6q10 -4 21 -7q24 -5 32 -7q14 -3 74 -13q4 -1 12 -1h29
q3 0 14 -0.5t17 -1.5q6 -2 13 0q4 1 11 2.5t10 2.5l35 6q54 10 97 25q1 0 11 3q12 4 18 8q2 1 13 7q14 6 21 11q14 8 21 11l7 3q16 9 46 27q20 12 40 32q6 6 20 18l11 11h4q0 -1 1 -1q3 -5 1 -7q-5 -4 -12.5 -13.5t-11.5 -14.5q-6 -6 -8 -9q-10 -14 -27 -29q-13 -13 -24 -19
q-7 -4 -13 -8l-10 -7q-3 -2 -15.5 -8.5t-19.5 -9.5q-14 -5 -40 -19q-11 -6 -35 -12t-35 -10q-39 -13 -87 -19q-12 -2 -18 -1h-23.5h-28.5h-24z" />
    <glyph glyph-name="A" unicode="A" horiz-adv-x="494" 
d="M124 5q-5 0 -7 2q-5 8 -5 9q-4 8 -6 19q-4 46 -4 70q0 20 -1 30v15q-1 4 -1 13.5t-1 14.5v6q0 14 -7 91q0 1 -1 4t-1 5q-2 6 -9 6q-1 0 -4 -0.5t-5 -0.5q-5 -1 -13.5 -3.5t-11.5 -3.5q-16 -6 -23 -8q-15 -4 -15 3q-1 6 11 11q1 1 2 1q22 9 45 15q10 2 15 4q6 4 7 9
q0 2 0.5 6.5t0.5 6.5l3 57q2 24 7 44l9 33q4 16 11 31q5 11 14.5 32t10.5 24q9 23 22 44q22 40 39 63q11 15 34 32q7 5 14 5q19 6 27 -14q3 -6 8 -29q4 -44 9 -504q1 -12 5 -33t5 -26q3 -10 12 -26q1 -3 5 -9q13 -21 34 -21q2 0 4.5 -0.5t3.5 -0.5q33 3 56 22q31 25 46 47
q18 26 22 32q17 22 18 22q0 -1 -1 -2q0 -1 -1 -3.5t-1 -3.5q-29 -51 -33 -56q-21 -31 -41 -46q-26 -21 -55 -25q-30 -5 -53 15q-15 13 -23 27q-6 12 -7 18q-3 8 -10 34q-9 49 -10 81q-2 55 0 74q0 23 -2 34l-1 7q-1 3 -7 6q-4 2 -7 2t-10 0.5t-11 0.5q-68 -5 -76 -7t-26 -4
q-4 -1 -12 -5q-1 -1 -3 -5v-9q2 -20 4 -30q1 -8 1 -24q0 -10 -1 -31t-1 -32q0 -9 1 -28t1 -28q1 -9 1 -27q-1 -37 3 -76q0 -6 -4 -7zM126 318q10 2 13 2q11 2 80 10q30 4 44 4q9 0 9 7q0 8 1 11l-2 281q0 18 -3 33q-1 4 -5 12q-7 7 -14 3q-12 -9 -23 -24q-16 -22 -42 -66
l-15 -27q-15 -32 -39 -100q-12 -33 -13 -61q-2 -11 0 -23q3 -16 1 -37v-19q0 -3 3 -5t5 -1z" />
    <glyph glyph-name="B" unicode="B" horiz-adv-x="419" 
d="M135 0q-6 -2 -8 4l-3 5q-1 2 -1 6q-6 38 -5 56q4 163 4 269v10q0 12 -9 16q-15 8 -23 19q-12 12 -12 29v8q2 31 26 47q2 1 4.5 2.5t5.5 2.5t4 2q8 4 8 13q1 5 1 14q0 11 -0.5 33t-0.5 33q1 19 1 56q0 10 4 15q1 3 5 3q2 0 5 -3q1 -1 1 -3t1 -3l3 -23q1 -3 1 -8
q0 -16 4 -50q0 -9 1 -14q2 -6 4 -38q0 -6 1 -10q0 -5 6 -7l26 -9q8 -2 12 -4q12 -4 19 -5q20 -3 41 -14q6 -4 17.5 -9t13.5 -6q6 -3 10 4q6 14 7 22q8 34 5 74q-1 21 -10 51q-13 30 -32 45q-3 3 -11 9q-6 4 -10 7t-7 5t-6.5 3.5t-5.5 2.5t-6.5 2.5t-6.5 2t-9 2.5t-11 3
q-10 2 -14 1l-56 -6q-3 0 -7 -2q-34 -10 -49 -18q-6 -4 -9 -5q-16 -6 -29 -18l-12 -9q-5 -4 -13 -4q-5 0 -5 6q0 10 9 19q30 25 40 30q26 13 36 16q9 4 51.5 10t48.5 5q14 -2 20 -4q12 -3 24 -9q11 -7 35 -19q25 -13 42 -41q20 -33 21 -64q0 -6 2 -18q3 -24 0 -46
q-5 -39 -14 -67q0 -1 -0.5 -2.5t-0.5 -2.5q-1 -7 2 -12q2 -3 6.5 -8.5t6.5 -8.5q46 -60 47 -62q9 -14 16 -26q1 -2 2 -5t2 -7t2 -6q4 -14 8 -40q3 -17 3 -68q0 -11 -1 -15q-7 -28 -10 -37q0 -1 -1.5 -5t-2.5 -6q-7 -25 -29 -49q-30 -32 -75 -48q-32 -11 -71 -3q-4 0 -23 6
q-7 2 -5 5q0 1 6 4h34q23 0 34 4l5 2l6 3q6 2 13 5t15 7t13 7q16 9 28 19q4 3 7.5 6.5t7 8t5.5 7.5t4.5 9t4 8.5t4.5 9.5t3.5 9.5t3.5 11t4 10.5q1 3 1 10q3 26 3 51q0 6 -1 8q-9 51 -23 80q-6 12 -14 20l-13 12q-5 5 -13 15q-6 10 -20 28q-1 2 -5 6q-6 6 -11 3
q-14 -5 -28 -15q-5 -4 -17 -10q-15 -8 -30 -9q-10 -1 -27 -3.5t-25 -3.5l-8 -2q-7 0 -7 -8v-10v-40q-4 -108 -4 -144q0 -14 -4 -40v-5q-5 -66 -5 -74q0 -15 -2 -22q-2 -4 -6 -5zM166 367q24 -2 43 5l24 9q19 7 36 22q6 6 9 10q4 3 0 7l-6 6q-6 5 -25.5 13.5t-27.5 9.5
q-4 1 -11.5 2.5t-11.5 2.5l-21 6q-19 4 -20 -15v-32v-28v-8q2 -8 11 -10zM115 384q2 -2 4.5 -0.5t2.5 4.5q0 6 1.5 22.5t2.5 26.5q0 8 -1 14q0 1 -2 2t-3 0q-1 0 -3 -1h-2q-12 -6 -18 -25q-3 -11 2.5 -24t15.5 -19z" />
    <glyph glyph-name="C" unicode="C" horiz-adv-x="484" 
d="M173 1q-3 1 -11 6t-17.5 10.5t-11.5 6.5q-12 10 -18 14q-16 11 -23 17q-3 3 -8.5 10t-7.5 10q-19 20 -34 52q-20 43 -27 90q-9 65 -10 84v66q0 61 9 84l6 16q14 26 22 55q7 27 26 52q11 15 23 34q14 19 41 43q18 16 46 33q22 14 48 14t62 -9q12 -3 22 -16q3 -5 3 -13
q-2 -5 -6 -3q-2 0 -4 2q-9 6 -27 11q-5 1 -14.5 4t-15.5 4q-29 5 -43 -1q-36 -15 -59 -37q-13 -12 -23 -27q-3 -5 -10 -14.5t-9 -12.5q-3 -5 -13.5 -19t-15.5 -23q-4 -8 -16 -40q-3 -6 -7.5 -19t-6.5 -20q-13 -37 -12 -110q23 -177 42 -217l12 -24q15 -32 35 -52l24 -23
q16 -14 35 -17q41 -8 75 5q18 6 50 22l7 4q4 2 45 31q12 9 31 30q24 27 51 51q4 4 29 24q3 3 9 3h1q1 0 1.5 -1.5t-0.5 -2.5q-5 -8 -7 -9q-7 -6 -18 -20t-18 -21q-1 -1 -6.5 -8t-14.5 -19t-14 -18l-3 -3q-4 -3 -16 -14t-18 -16t-16.5 -12t-20.5 -12q-38 -18 -57 -26
q-13 -6 -49.5 -9.5t-46.5 0.5z" />
    <glyph glyph-name="D" unicode="D" horiz-adv-x="450" 
d="M204 13q-6 0 -6 5q0 3 2 5q6 4 9 5l29 9q15 5 43 19q4 2 9 5t11.5 7t9.5 6q17 10 35 31q15 19 30 44q20 35 23 41q7 16 12 33q2 9 13 70q2 12 -1 21q-5 26 -12 49l-15 52q-11 36 -12 38l-3 7q-12 33 -32 69q-15 28 -32 48q-6 6 -29 25q-26 16 -38 24q-18 11 -45 21l-15 6
q-38 16 -88 18q-31 0 -57 -13l-17 -8.5t-14 -7.5q-5 -2 -6 -2l-1 1q-3 3 -1 4q13 16 23 22l18 11q3 2 9 4q45 13 73 11q28 -3 52 -13l50 -21q23 -10 39 -23q13 -10 41 -28q17 -11 31 -30q23 -29 52 -78q9 -14 16 -35q2 -10 8 -31t9 -33q8 -27 17 -78q2 -20 1 -30
q-7 -56 -17 -97l-3 -8q-19 -35 -23 -41l-21 -33q-13 -21 -33 -36l-15 -13q-28 -25 -60 -35q-25 -9 -61 -16q-3 -1 -8 -1zM111 12q-4 6 -2 27q0 6 -2 41v96q0 4 -0.5 11t-0.5 10q0 34 1 64t1 50v80v64q0 1 0.5 4.5t0.5 5.5q0 9 1 26.5t1.5 31.5t0.5 26q0 34 3 51q1 6 1 20
q0 6 3 15.5t3 14.5q0 3 2 3h4q3 -3 3 -5q2 -10 2 -16v-70q0 -26 3 -53q1 -14 1 -43q1 -29 1 -86q0 -17 1 -25q2 -32 0 -49q-1 -7 -1 -22q-1 -36 -1 -107q0 -9 -1 -25l-1.5 -24t0.5 -16v-16q0 -8 -0.5 -24t-0.5 -23q0 -11 -2 -29q-2 -11 -8 -14t-13 6z" />
    <glyph glyph-name="E" unicode="E" horiz-adv-x="422" 
d="M132 0q-40 2 -66 26q-26 26 -35 42l-5 6q-21 52 -21 74q0 18 6 56q6 57 15 85q7 22 10 28q4 10 14 32q3 6 11 18q3 6 11 16q6 7 1 15q-12 17 -12 42q0 6 -2 14q-3 22 1 41q2 21 11 50q6 20 19 36q28 32 44 47q26 26 62 43q1 1 3.5 2t3.5 2q25 14 73 22q26 4 40 -5
q16 -11 21 -23q10 -23 -2 -41q-13 -19 -34 -36h-2q-1 0 -1 3q2 5 4 7q3 5 11 13q6 6 8 9q11 15 6 36l-2 3q-16 27 -43 22q-43 -8 -81 -28l-18 -11q-36 -21 -54 -45q-23 -26 -36 -58q-8 -26 -10 -40q-3 -24 -3 -25v-12q0 -5 1 -17t1 -18q0 -11 4 -19q5 -9 12 -5q2 0 6 2
q25 13 61 13h2q2 -1 3 -1q15 -2 13 -16q-2 -15 -7 -27q-7 -12 -22 -17q-27 -8 -52 4q-3 2 -9 4q-7 3 -10 -2q-4 -5 -10 -15q-3 -5 -5 -10q-30 -73 -34 -127q-3 -54 -3 -57q0 -27 2 -42q7 -35 33 -62q23 -25 60 -31q6 -2 13 0q42 4 60 9l30 9q51 21 78 38l15 8q27 16 43 31
q31 29 57 44h3q3 0 2 -2t-3 -4q-31 -40 -45 -54q-8 -8 -17 -14l-51 -32q-13 -8 -39 -20.5t-29 -14.5q-17 -6 -19 -6q-52 -11 -55 -12q-24 -4 -37 -3zM129 379q17 -1 27 15q3 3 1 7q-3 3 -7 3h-3l-2 -1l-17 -3q-10 -1 -18 -7q-4 -5 0 -9q7 -5 19 -5z" />
    <glyph glyph-name="F" unicode="F" horiz-adv-x="396" 
d="M110 3q-3 -3 -4 3q-10 36 -10 54v48q0 3 -0.5 9.5t-0.5 10.5q-2 8 0 14q1 22 0.5 49t-1.5 64t-1 43q0 10 1 16q2 14 2 42q0 34 3 50q0 1 0.5 3t0.5 3q-1 29 5 87q3 31 5 94q0 1 3 28q2 26 -2 38q-3 9 -12 9l-40 -6q-2 0 -5 -1t-5 -1q-16 -6 -42 0q-2 2 -2 3q0 2 2 4
q3 3 8 5l29 11q26 9 82 17h9q9 0 28.5 -1t29.5 -1q26 -2 50 -6q30 -4 60 -12l31 -6q11 -2 33 -10l43 -18q11 -5 19 -14q1 0 1 -3q0 -1 -2 -1q-14 -2 -28 3q-22 7 -45 9q-20 3 -40 9q-8 2 -22.5 5.5t-20.5 5.5q-8 0 -12 1q-9 0 -14 1q-11 2 -30 3t-24 2q-8 1 -23 1t-22 1
q-15 0 -15 -16q0 -6 2 -16q2 -17 0 -33q-2 -11 -2 -34l-3 -36q-1 -17 -1 -52q-1 -17 -1 -51q0 -8 -2 -26q-2 -14 0 -26q0 -4 7 -4h2q28 8 31 9l50 9q22 3 44 0l48 -6q1 0 3 -2q0 -2 -2 -4q0 -2 -3 -2q-18 -5 -34 -5q-11 0 -33.5 -0.5t-34.5 -0.5q-10 0 -14 -1l-49 -12l-6 -3
q-4 -1 -6 -7q-2 -12 -2 -16q2 -54 2 -78q0 -39 1 -58q1 -16 -1 -50q-2 -29 0 -58q0 -8 -5 -51q-2 -10 -2 -16q0 -11 -11 -20z" />
    <glyph glyph-name="G" unicode="G" horiz-adv-x="480" 
d="M248 -166q-2 0 -31 12q-17 8 -22 24q-8 21 -1 40q2 3 3 9q22 42 49 63q4 3 11 9t11 9q5 10 5 12q0 3 -1 7.5t-1 7.5q0 7 -5 4q-23 -13 -40 -21q-7 -4 -17 -6l-10 -2.5t-9 -1.5h-6q-28 2 -33 4q-12 1 -27 9q-14 4 -28 16q-29 25 -40 44q-13 15 -14 17q-13 19 -14 20
q-12 27 -13 29q-10 19 -10 44v41v31q0 11 2 33q1 6 2 19t2 20t5.5 47.5t6.5 46.5q0 1 1 8t2 11q3 8 6.5 22.5t4.5 18.5q10 43 29 85q2 2 4.5 6t2.5 5l21 33l7 10q10 7 14 15q2 5 5 7q4 3 11.5 10t9.5 9q8 6 14 7q3 2 8.5 4t8.5 3q10 3 24 1q4 -1 15.5 -3.5t17.5 -4.5
q12 -2 16 -5q19 -6 40 -30q1 -1 3 -3.5t3 -4.5l11 -21v-2q1 -2 1 -3q3 -15 5 -30q0 -5 -1 -7q0 -1 -2 -2.5t-3 -0.5q-3 0 -5 2q-1 5 -3.5 12.5t-3.5 12.5l-3 9q-10 30 -40 43q-20 8 -44 16q-25 8 -49 -10q-4 -2 -5 -3q-28 -30 -39 -47l-10 -15q-8 -8 -13 -25
q-33 -111 -35 -133q-3 -7 -3 -16q-4 -26 -4 -36q0 -9 -5 -46q0 -2 -0.5 -9t-0.5 -10q0 -1 -3 -23q-1 -6 -1 -17v-72q0 -19 7 -36q13 -25 15 -28l9 -13.5t11.5 -17t9.5 -14.5q7 -11 26 -35q9 -10 49 -17.5t53 -1.5q22 7 36 17q6 4 9 8q5 10 4 18q-5 32 -7 38q-6 15 -1 35
q0 5 2 17q3 23 15 41q3 5 8 9q25 14 51 8q10 -1 14 -11q9 -26 7 -43q-5 -26 -15 -41q0 -2 -2 -5t-3 -5q-3 -8 -13 -20q-2 -3 -10 -12t-12 -15q-3 -4 -3 -12l4 -25q0 -1 2 -2t3 0q3 1 5 3q3 2 7 6l6 6q23 23 34 33q2 1 3.5 2.5t2.5 1.5q9 12 31 36q5 7 16.5 19.5t14.5 16.5
q14 15 42 51q7 9 24 29l4 1q1 -1 1 -4q-1 -1 -2 -4t-2 -5q-2 -3 -4.5 -9t-5.5 -11t-6 -9q-1 -1 -5.5 -10t-8.5 -13q-12 -15 -26 -29q-15 -17 -26 -32q-12 -15 -43 -44q-2 -3 -7 -8q-19 -21 -47 -43q-13 -10 -9 -24q1 -9 8 -40q1 -10 5 -25q7 -18 9 -38q1 -21 -14 -41
q-6 -6 -11 -7q-9 -4 -52 -4zM292 94l6 6q7 8 18 28q10 17 16 54q0 7 -6 13q-7 7 -17.5 6.5t-17.5 -8.5q-9 -9 -11 -23q0 -5 -0.5 -15.5t-1.5 -15.5v-4q1 -20 9 -40q0 -1 2 -1.5t3 0.5zM260 -145h4q8 -2 21 6q12 4 14 20v12q0 2 -5 18q-6 15 -9 33q-1 2 -1.5 5.5t-1 7.5
t-0.5 6q0 3 -1.5 8.5t-2.5 8.5q-3 3 -5 1q-3 0 -5 -2q-26 -26 -29 -30q-18 -21 -24 -41q-3 -10 -3 -22q2 -14 14 -21q19 -8 34 -10z" />
    <glyph glyph-name="H" unicode="H" horiz-adv-x="372" 
d="M48 0q-8 -2 -14 4l-6 6q-26 38 -22 73q6 50 29 100q16 31 18 35q5 8 5 15v16q0 9 0.5 26t0.5 25q0 1 0.5 3t0.5 3q-2 20 -4 60q-1 2 -1 7l-3 57q-1 24 -5 72l-3 51q-1 17 -5 56q0 4 -1 5q-1 3 -3 1q-2 -1 -6 -5l-11 -6q-4 -2 -7 0q-4 0 -4 3l1 4q2 3 7 4q3 2 8 7t7 6
q6 6 8 17q0 12 1 18q2 20 11 28q13 13 24 -3q5 -9 0 -22q-7 -16 -12 -22q-8 -10 -6 -27q2 -7 3.5 -20t3.5 -20q0 -1 3 -32q0 -8 2 -26q4 -36 6 -72q0 -6 1.5 -20t2.5 -21q0 -3 0.5 -9t0.5 -9q-1 -16 4 -68q0 -6 1 -9q3 -12 1 -25q-1 -10 6 0q4 6 10 16q16 23 48 71
q3 5 9.5 15.5t9.5 15.5q30 46 44 69q11 14 11 32q-1 35 2 80q3 29 13 65q2 5 8 15q7 11 20 14q7 2 16 -1q1 -1 5.5 -3.5t7.5 -3.5q8 -3 8 -11q0 -31 -1 -37l-12 -47q0 -1 -3 -10q-2 -4 -9.5 -21t-11.5 -26q-3 -9 -13 -23q-6 -11 -6 -22v-117q1 -19 5 -57v-9q0 -9 2 -26
t2 -22q2 -16 2 -24q0 -33 7 -79q1 -3 1 -9t1 -9q1 -9 11 -54q2 -11 10 -13t14 4q30 28 37 38q10 14 28 44q10 15 14 28q0 2 2 4q3 3 5 -4q2 -11 -1 -21q-11 -28 -13 -38q-3 -10 -11 -20l-40 -43q-11 -9 -20 -9q-18 -3 -22 -2q-13 0 -19 12q-3 5 -7 17q-5 15 -14 69
q-1 5 -3.5 22t-3.5 26v10q-1 10 -2 29.5t-2 28.5q-7 98 -7 159q0 19 -1 29q0 4 -2 4q-2 1 -4 -3q-15 -21 -26 -41q-30 -45 -42 -61q-5 -7 -10.5 -15t-12 -18t-10.5 -15q-19 -27 -30 -60q-4 -12 -3 -18q0 -29 1 -44q2 -26 2 -38v-42q0 -8 -2 -22.5t-2 -19.5t-3 -10
q-2 -7 -8 -19q-6 -14 -22 -16zM244 526q22 37 27 54q6 22 10 33q3 10 3 30q0 7 -7 14q-5 5 -11 1q-7 -5 -13 -19q-2 -6 -4 -16q-7 -30 -7 -39v-46q0 -9 2 -12zM41 26q6 -3 9 2q3 4 5 11q3 12 5 36v48v49q0 1 -0.5 3.5t-0.5 4.5h-1h-2l-5 -8q-12 -26 -19 -48q-9 -30 -10 -53
q0 -22 13 -39z" />
    <glyph glyph-name="I" unicode="I" horiz-adv-x="464" 
d="M153 1q-24 6 -36 8q-12 3 -34 27q-12 12 -12 24q0 2 2 6q4 9 30 21q21 11 39 12q21 2 38 -4q10 -4 12.5 -2.5t2.5 12.5q-1 10 -3.5 29.5t-2.5 28.5q-1 19 -3 41q-1 9 -25 160.5t-27 164.5t-3 50v16q0 7 -6 8q-2 1 -6 1q-40 6 -59 10q-31 5 -48 17q-4 3 -6 9v6q2 2 7 -1
q2 -2 12 -4q24 -6 37 -10q1 0 3.5 -0.5t4.5 -0.5q10 -1 27 -3.5t22 -3.5q2 0 5.5 -0.5t4.5 -0.5q6 2 9 7l6 12q8 18 9 20q15 31 49 34q51 3 93 -12l3 -2q6 -4 3 -9q-14 -24 -20 -29q-1 -1 -3.5 -4t-3.5 -4q-8 -12 -25 -15l-53 -12q-3 0 -10 -1t-10 -1q-2 -1 -8 -1
q-8 -2 -11 -11q-2 -6 -2 -11q-3 -20 0 -40q3 -22 3 -23q0 -2 2 -10q28 -155 32 -169q5 -20 11 -62q6 -33 6 -35q5 -25 6 -28l13 -100q3 -15 3 -30q0 -12 10 -15q15 -3 48 -18q24 -12 62 -5l17 3q8 1 16 8q23 15 49 36q24 18 36 30q1 1 7 5h2q1 -1 1 -3q-6 -16 -13 -23
q-18 -16 -31 -32q-5 -6 -19 -16l-12 -11q-6 -7 -16 -10l-25 -6q-7 -2 -29 -2q-21 -1 -47 11q-3 2 -11 6q-7 4 -39 14q-8 3 -9 -5q-1 -2 -4 -11t-5 -14q-1 -1 -2.5 -3.5t-2.5 -3.5q-10 -16 -25 -20q-21 -5 -36 0zM173 626h7l29 3q13 2 39 8q14 4 25 20q4 5 -2 10q-4 4 -15 6
q-26 6 -51 3q-6 0 -14 -2t-11 -9q-4 -8 -6 -11q-3 -6 -7 -16q-4 -11 6 -12zM150 33q15 0 25 3q11 2 15 10q4 10 5 14q3 6 0 12q0 1 -0.5 2.5t-1.5 2.5q-7 3 -15 3q-24 1 -57 -4l-18 -6q-3 -2 -7 -6q-5 -7 0 -12q1 -1 3.5 -2.5t3.5 -2.5q14 -10 20 -12t27 -2z" />
    <glyph glyph-name="J" unicode="J" horiz-adv-x="399" 
d="M70 598q-14 7 -16 25t0 27q4 19 23 31l4 3q20 10 33 11q24 4 37 3q43 -2 63 -8q16 -4 61 -13q4 -1 11 -1t10 -1q13 -1 57 4q37 7 37 0q0 -3 -16 -9q-25 -10 -54 -13q-23 0 -42 4q-5 1 -14 2t-14 3l-33 9q-3 1 -34 6q-13 2 -37.5 2h-30.5q-12 0 -22 -7q-1 -1 -4 -2.5
t-4 -2.5q-13 -8 -17 -21q-8 -19 2 -34q4 -6 7 -11q2 -2 0 -6q-1 -3 -7 -1zM87 1q-36 3 -60 27q-6 6 -11 18q-9 23 -10 41q-1 5 1 15q13 36 22 50q21 31 53 34q6 0 18.5 1t18.5 1q8 0 26 -4l19 -6q10 -2 10 7v6.5v7v5.5l2 104q1 104 2.5 208.5t0.5 118.5v9q2 4 3 4q2 0 4 -3
l3 -4q6 -26 6 -39q2 -28 4 -42q1 -14 7.5 -169t6.5 -188v-26v-14q0 -6 5 -9q12 -8 36 -22q20 -10 42 -12q24 -2 53 14q20 12 38 33q0 1 2 3q1 1 2 2.5l2 3t2 2.5t3 1q1 0 0.5 -1.5t-2 -5.5t-1.5 -5q-5 -11 -17 -23q-17 -15 -27 -21q-32 -18 -70 -10q-21 4 -43 16q-6 4 -18 8
q-2 1 -4 -2v-1l-1 -2q-3 -21 -3 -44q0 -3 -2 -11q-1 -9 -5 -22q-7 -21 -24 -38l-4 -3q-7 -2 -17 -6t-14 -5t-11 -3t-12.5 -1.5t-14.5 0.5t-21 2zM125 24q18 -1 33 12.5t21 30.5q1 2 1.5 5.5t0.5 5.5q1 5 -2 30q-2 8 -2 26v13q0 11 -10 14q-12 4 -34 10q-4 1 -12 1
q-17 1 -49 -3q-4 0 -12 -4q-20 -12 -25 -30q-5 -13 -10 -29q-3 -9 -1 -21q3 -17 11 -35q10 -22 31 -23q54 -3 59 -3z" />
    <glyph glyph-name="K" unicode="K" horiz-adv-x="409" 
d="M79 2q-21 2 -36 12q-10 6 -12 9q-1 2 -4 5q-15 15 -18 40q-5 36 -3 59q4 33 14 50l27 48q7 15 25 33l17 18q6 6 6 15q0 10 -4 30q-1 9 -2 26t-2 25q-1 12 -2 35.5t-2 35.5q-5 44 -3 113v18q1 12 1.5 37t0.5 37q1 21 11 43q0 1 1 3q5 7 8 5q1 -1 1 -8q-2 -16 -2 -23
l-1 -36q0 -36 1 -36q0 -7 1.5 -24.5t0.5 -27.5q0 -6 0.5 -20t0.5 -20q0 -5 0.5 -10t1.5 -11.5t1 -10.5q0 -5 1 -14.5t1.5 -17.5t0.5 -15v-7q6 -23 6 -69v-33q0 -6 2 -7t4.5 1t3.5 2l12 11q4 4 12 11.5t12 11.5q8 8 12 17q18 32 52 77q10 14 30 44q15 20 24 54q11 33 14 77
q0 5 1 15.5t1 15.5q0 29 5 31q3 1 3 -15q1 -7 2.5 -19t1.5 -18q3 -26 -1 -49q-8 -34 -13 -51q-8 -23 -16 -36q-16 -28 -33 -50q-9 -12 -25 -38q-4 -8 -13 -22.5t-13 -21.5q0 -2 -6 -10q-44 -45 -49 -48q-2 -1 -6 -5q-8 -9 -2 -18q2 -4 6.5 -11t5.5 -9q26 -42 32 -56
q14 -28 22 -41l9 -19q16 -43 47 -70q18 -16 44 -21q18 -3 34 6q28 16 41 35q1 1 9.5 11.5t12.5 16.5q2 2 2 3q2 7 10 17t10 14q0 1 2 3q4 2 5 1q2 -1 0 -5q-3 -5 -13 -37q-4 -14 -8 -23q0 -1 -1 -5t-2 -6q-6 -11 -18 -20q-12 -12 -27 -21q-27 -15 -40 -16q-10 -1 -22 4
q-41 18 -53 28q-12 9 -18 18q-14 22 -20 33q-4 8 -13.5 26t-14.5 27q-10 18 -22 38l-3.5 7t-3.5 8q-3 6 -6.5 12.5t-8 14.5t-6.5 12q0 2 -3 2t-1 -4q0 -9 3 -20q1 -8 1 -25q0 -28 1 -42q0 -3 0.5 -8.5t0.5 -8.5q2 -22 0 -33q-1 -4 -1 -11q0 -11 -4 -31q-1 -1 -1 -5
q-6 -26 -14 -47q-4 -8 -14 -15q-1 -1 -12 -1zM78 25q8 -1 12 5q7 21 7 28q1 5 2.5 15t1.5 14q3 15 3 30q0 11 -1.5 33t-2.5 34q-2 55 -1 66v2q0 1 -1.5 2t-2.5 0q-3 0 -4 -3l-21 -24q-5 -6 -12.5 -19t-8.5 -15q-7 -10 -13 -25q-12 -24 -9 -53q-2 -17 5 -43q4 -16 15 -32
q7 -9 14 -11t17 -4z" />
    <glyph glyph-name="L" unicode="L" horiz-adv-x="393" 
d="M67 2q-18 4 -34 23q-14 14 -14 29q-2 23 11 38l4.5 4.5l5.5 5.5l5 5q9 8 27 10q5 0 7 -1q8 -1 10 1t3 9q0 22 -2 33q-2 12 0 24q0 8 1.5 24t2.5 25q2 18 2 27v157v98q0 4 -0.5 12t-0.5 12q0 1 -2 3q-3 0 -4 -2q-7 -7 -13 -16q-2 -3 -6 -11l-24 -45q-8 -15 -24 -29
q-6 -6 -14 -8h-2q-2 2 0 3q6 6 28 44q17 31 22 38l6 11q7 15 20 30l5 6q9 10 9 25q-1 14 3 42q3 17 11 35q6 14 22 30q3 3 10 5q8 2 16 0q11 -3 11 -13q2 -18 -2 -29q-5 -15 -10 -25q-14 -27 -26 -42q-11 -12 -11 -32q-3 -36 -1 -80q0 -8 1 -22t1.5 -25.5t0.5 -21.5v-47
v-81.5v-53.5q0 -8 -2 -28q-3 -23 0 -45q0 -5 1 -15.5t1 -15.5q0 -14 1 -22q0 -7 7 -14l14 -12q7 -4 13 -12q11 -13 25 -17l28 -9q14 -5 34 -2q35 5 73 27q3 2 25 15l36 21l22 9q1 -1 -8 -10q-55 -42 -63 -47q-12 -9 -27 -15q-4 -2 -11.5 -5.5t-11.5 -4.5q-26 -9 -44 -11
t-44 5q-34 12 -50 21l-6 3q-7 4 -9 -3q-1 -2 -4 -10q-3 -11 -13 -15l-6 -3q-4 -1 -11.5 -5.5t-12.5 -4.5h-12zM117 608q2 -2 4 2q4 4 7.5 8.5t7.5 10t6 8.5q10 14 14 40q0 5 -5 7q-8 0 -11 -3l-7 -7q-18 -24 -18 -54v-7q0 -3 2 -5zM80 27l11 8q3 3 5 16v7v8q0 10 -10 16
q-2 1 -8.5 4.5t-10.5 5.5q-18 7 -28 -12q-15 -32 15 -51q2 -1 5.5 -1.5t11.5 -1.5t9 1z" />
    <glyph glyph-name="M" unicode="M" horiz-adv-x="522" 
d="M403 -3q-6 1 -11 5q-26 17 -34 34l-6 13q-2 7 -7 18.5t-6 15.5q-4 10 -4 16q-7 40 -7 70q0 1 -1 10.5t-2 14.5q10 304 10 325q0 28 2 42q2 10 0 30l-6 52q0 6 -4 18q-2 4 -2 5q-3 3 -7 1q-11 -9 -15 -18q-2 -5 -10.5 -23t-11.5 -28q-6 -16 -10 -24q-3 -8 -11 -26l-3 -7
q-4 -6 -19 -50q-11 -35 -11 -57v-58q0 -18 -2 -26q-1 -6 -1 -17q0 -14 -1 -21q0 -21 -12 -45q-1 -4 -8 -6q-8 -3 -14 0l-12 6q-15 7 -19 25q-2 6 -1 10q0 27 5 39q2 4 4 12q9 39 25 74q2 5 7 22l3 11q2 29 -3 50q-6 21 -8 53q0 8 -1 11q-2 10 -2 31q0 5 -1.5 16.5t-2.5 17.5
q-2 11 -8 19l-4 4q-6 4 -10 0l-3 -3q-24 -38 -30 -53q-1 -2 -3.5 -8.5t-3.5 -10.5q-9 -21 -21 -42q-14 -27 -24 -52q-2 -5 -5.5 -14.5t-4.5 -14.5l-9 -21q-13 -23 -13 -51q-1 -10 -1 -32q0 -6 -2 -18q-1 -8 -1 -25l-6 -171q3 -24 0 -49q-2 -24 -2 -38q0 -30 -8 -53l-2 -5
l-1 -1h-2q-3 0 -3 2q-2 2 -2 5t-0.5 8t-0.5 8q1 22 -5 66q0 3 -0.5 9t-0.5 9q-1 200 -2 215v5q0 16 0.5 46.5t0.5 45.5q4 122 4 166q0 6 3.5 48t3.5 49v4q3 8 7 3q11 -6 11 -18q0 -3 0.5 -9.5t0.5 -9.5v-45q0 -8 2 -26q1 -8 2.5 -24t2.5 -24t2.5 -23t2.5 -22q0 -1 1 -1t1 1
q3 3 10 17q1 5 5 15q5 18 21 52q12 24 21 48q10 20 28 48q4 7 11 12q21 19 43 2q12 -8 19 -26q3 -7 10 -31l2 -14q3 -19 3 -20q5 -26 4 -46q0 -1 0.5 -2t1.5 0q1 0 1 1q14 31 17 38q1 4 3.5 12t4.5 12q14 37 19 46q12 21 35 36q11 6 23 6q4 -1 12 -1q15 -3 18 -16
q10 -50 10 -62t2 -32q1 -12 0 -22q-3 -18 -3 -54l-10 -315q0 -18 1 -21q1 -7 1.5 -15.5t1 -18.5t0.5 -15v-2q0 -6 1 -8q3 -10 5 -28t4 -26q2 -9 16 -32q2 -3 8 -7q9 -6 19 -2l8 4q20 14 28 24q14 16 28 34q4 6 6 8q16 18 23 28q2 3 6 7l4 -1v-2v-3q-8 -18 -14 -25l-6 -11
q-5 -15 -20 -30q-2 -2 -4.5 -4t-5 -5t-4.5 -5q-10 -14 -20 -21l-6 -6q-14 -17 -38 -12zM184 286q8 0 10 6q2 4 2 5q5 30 5 36v50q0 3 -1 3q-2 0 -3 -1q-6 -10 -9 -16q-1 -5 -5 -15t-5 -15q-5 -18 -5 -34q0 -7 1 -11q2 -8 10 -8z" />
    <glyph glyph-name="N" unicode="N" horiz-adv-x="411" 
d="M28 0q-1 0 -3 2l-1 1q-9 47 -9 64q1 6 0 16.5t-1 13.5q-1 7 -1 22q-5 195 -5 366q0 10 -2 30v37v62q-1 22 -1 65q0 11 4 18q2 2 3 2q1 1 2.5 0t1.5 -2l3 -9q1 -2 1 -7v-11q0 -21 4 -37q3 -15 3 -29q0 -8 1 -17t2.5 -20t2.5 -17q2 -18 2 -29q0 -5 2 -17q0 -1 1 -2.5
t2 -0.5q3 0 3 2q2 2 4 6q30 54 46 80q9 15 36 56q5 8 26 29l15 11q9 6 24 8h19q21 0 30 -23q1 -2 1 -5t1 -4q5 -23 7 -27q1 -4 1 -13q1 -7 1 -21t1 -21q0 -2 0.5 -6t0.5 -5v-15q-1 -10 -1 -30q0 -10 -0.5 -32t-1.5 -100.5t-3 -195.5q7 -34 7 -72q0 -15 1 -22q0 -9 3 -16
q4 -12 5 -18q3 -11 10 -18q4 -6 14 -8h13q16 2 27 11q16 16 23 26q7 12 23 36q8 13 12 25q1 3 11 28q2 1 3 1q2 0 2 -3q5 -16 -1 -30q-1 -3 -5 -12.5t-6 -13.5q-3 -8 -7 -13q-6 -10 -18 -28q-2 -3 -7 -8l-21 -21q-17 -16 -41 -13l-18 3q-17 3 -27 16q-12 17 -16 33
q-4 10 -4 16q-1 6 -3.5 23t-3.5 26q-1 7 -1.5 14.5t-1 16.5t-0.5 14q0 6 -1 9l2 283q3 21 3 42q0 16 2 44q3 22 0 45q-6 36 -6 38q-1 3 -4 14q-4 8 -6 10q-7 10 -18 5q-5 -1 -11 -6l-14 -14q-19 -20 -30 -38l-27 -42l-6 -9q-2 -3 -6 -8.5t-6 -8.5q-5 -11 -18 -30.5
l-15 -22.5q-6 -10 -9 -14q-8 -8 -10 -22q-2 -24 -1 -31t1 -20q0 -221 -2 -245q0 -5 0.5 -28t1 -49.5t0.5 -34.5q0 -12 -1 -19q-2 -21 -11 -34q-2 -2 -3 -2z" />
    <glyph glyph-name="O" unicode="O" horiz-adv-x="572" 
d="M168 0l-24 3q-42 7 -63 29q-6 6 -28.5 35t-25.5 36q-2 3 -4 8t-4 8q-9 18 -12 38q-2 13 -2 82t2 80q2 10 4.5 30t3.5 29q3 22 11 47l6 14q24 42 36 62l39 63q7 12 15 20q5 5 8 9q5 8 31 34q7 8 34 28q2 1 11.5 8.5t14.5 11.5q3 3 9 7q14 8 28 14q8 3 15 3q6 -2 9 -4
q2 -1 2 -3.5t-2 -3.5l-5 -3q-25 -5 -47 -29l-15 -14q-15 -14 -20 -24q-2 -4 -7 -9q-8 -9 -46 -70q-32 -50 -51 -83q-4 -8 -7 -12q-8 -12 -24 -56.5t-17 -58.5q0 -9 -2 -27q-1 -6 -1.5 -12.5t-1 -14t-0.5 -11.5t-0.5 -12.5t-1.5 -12.5q-2 -24 -2 -35q0 -13 4.5 -46t9.5 -43
q5 -8 13 -24q5 -11 15 -22q3 -3 7.5 -8.5t6.5 -7.5q9 -11 15 -15q17 -14 37 -15q29 -4 69 5q6 2 26 7q22 7 35 17q4 4 12.5 9.5t12.5 9.5q10 8 14 13q35 33 51 51q37 43 50 72q14 31 26 48q5 10 8 19l6 17q5 22 13 38q6 14 9 26q0 6 -6 6q-6 -1 -18.5 -1t-18.5 -1
q-6 0 -9 -1q-26 -3 -56 4q-8 2 -24 8q-51 18 -74 82q-11 31 -8 74q0 4 2 10q13 44 16 51q8 18 21 30q2 2 16.5 13.5t21.5 18.5q4 4 19 14q9 5 25 15q12 8 30 8q29 -3 34 -4q17 -5 29 -15q6 -6 22 -20q1 0 1 -1q3 -4 15.5 -18.5t18.5 -23.5q7 -9 9 -21q0 -5 2 -13q2 -5 2 -16
q2 -26 -3 -44q-1 -5 -2 -10.5t-2 -12.5t-2 -11q-5 -35 -15 -68q0 -1 -0.5 -3t-0.5 -3q0 -2 1 -3q0 -1 5 -1q4 2 5 3q13 9 16 11q13 11 55 44q15 12 49 34l87 57q5 3 47 32q21 11 23 10l-19 -14l-81 -59q-1 -1 -3.5 -3t-3.5 -3q-5 -5 -11 -10t-14 -10t-12 -8
q-3 -3 -20.5 -15.5t-26.5 -19.5l-60 -48q-22 -18 -36 -23q-8 -2 -12 -13l-30 -94q-2 -8 -4 -11q-3 -6 -12.5 -28.5t-16.5 -33.5q-3 -3 -10 -18q-6 -12 -16 -22q-5 -4 -20.5 -22.5t-18.5 -20.5q-5 -5 -16 -15.5t-16 -15.5q-9 -10 -28 -29q-11 -11 -27 -19q-12 -6 -17 -9
q-11 -5 -20 -8l-29 -9q-19 -6 -46 -8h-13zM402 372q26 -1 62 4q7 1 16 5q5 1 7 7q1 1 1 4t1 5q1 7 7 37.5t10.5 58.5t4.5 37v23q0 9 -5 19q-12 20 -13 22q-2 3 -11 13.5t-14 15.5q-18 20 -41 24q-9 1 -17 0q-40 -14 -58 -27q-4 -4 -12.5 -10t-10.5 -7q-12 -9 -19 -22
q-7 -9 -10 -23q-7 -17 -10 -41q-5 -24 1 -44l4 -19q6 -32 34 -52l16 -13q12 -7 14 -8q25 -9 43 -9z" />
    <glyph glyph-name="P" unicode="P" horiz-adv-x="377" 
d="M135 2q-2 -2 -5 -1t-4 3q-9 24 -10 44q-4 68 -4 205v78v33q0 13 1 52.5t0 60.5q0 15 1 22q2 15 2 43q0 20 3 39q1 6 1 18v41q2 18 2 26q1 8 -2.5 11t-10.5 1q-10 -1 -21 -7q-5 -1 -14 -5.5t-14 -5.5q-12 -5 -25 -15q-18 -13 -20 -14t-7 -1q-2 0 -3 2t0 3q2 4 4 6
q35 35 73 50q6 2 16 4q11 2 29 4q39 2 67 -2q31 -2 81 -19q25 -8 45 -27q7 -9 16 -16q10 -10 16 -25q2 -5 5 -14l5.5 -16.5t4.5 -14.5q7 -32 4 -52q-2 -6 -2 -20q0 -28 -13 -57q-4 -8 -5 -12q-13 -34 -39 -58l-21 -21q-8 -8 -13 -10q-3 -1 -13.5 -5.5t-15.5 -6.5
q-2 -1 -7 -2l-6 -1q-11 -1 -33 1q-16 1 -29 11q-8 6 -6.5 9.5t11.5 0.5q14 -2 21 -2q18 -2 36 6q7 4 19 7q13 3 30 17q25 20 41 55q14 35 18 56q10 49 1 86q-1 3 -2.5 8t-1.5 6q-6 18 -15 32q-14 25 -39 41q-9 6 -19 9q-44 13 -86 14q-3 0 -9.5 1t-10.5 1q-7 1 -22 1
q-6 0 -6 -6t1 -17t1.5 -20t0.5 -17q0 -11 2 -31v-80q0 -39 4 -70q4 -34 4 -100q0 -51 2 -76q1 -7 1 -20q-1 -18 0 -34v-26q1 -11 1 -35q0 -1 1 -3v-2q0 -14 -1 -43t-1 -44q-2 -25 -7 -44q-1 -7 -8 -10z" />
    <glyph glyph-name="Q" unicode="Q" horiz-adv-x="674" 
d="M184 0q-27 0 -48 11q-4 3 -19 10.5t-22 12.5q-20 11 -32 34l-15 27q-3 6 -3 7q-10 22 -19 47q-4 11 -12.5 79t-7.5 79q1 43 12 85q6 28 11 43q6 22 11 32q9 23 29 69q17 40 42 74q14 19 40 40q11 7 19 14q16 12 64 29q32 8 58 3q10 -2 38 -8l5 -2q1 -1 1 -3q0 -3 -2 -3
q-8 -2 -24 0q-16 3 -50 3q-22 -2 -39 -10q-28 -12 -57 -32q-28 -19 -44 -45q-10 -15 -21 -37q-8 -15 -14 -32.5t-13.5 -41t-10.5 -33.5q-15 -43 -23 -82q-1 -3 -1 -9q-10 -72 10 -177q3 -19 12 -37q3 -6 16 -34l12 -21q7 -12 20 -22q23 -18 57 -24q6 -1 23.5 -5t23.5 -4.5
t24 0.5q4 1 13 1q2 0 13 1t18 2q35 5 53 15q13 7 40.5 29.5t36.5 37.5q2 6 -1 9q-24 22 -39 28l-39 15q-34 11 -66 7h-3q-3 0 -3 4q2 4 4 4q4 3 8 4h12q42 -4 67 -14l14 -6q25 -8 46 -23q19 -14 32 3q5 7 10.5 20t9.5 20q12 21 28 92l3 22q4 11 -8 14q-4 1 -10 1q-3 1 -11 1
h-43q-2 0 -7.5 1t-8.5 1q-16 2 -23 2q-24 2 -44 13l-30 18q-1 1 -3.5 3t-4.5 3q-30 26 -46 55q-17 31 -20 64q-1 27 11 52q13 27 29 46q3 4 10 11q2 2 6.5 5t8 5.5t6.5 4.5q17 10 52.5 27t43.5 16q7 -1 32 -19q7 -11 19 -23q8 -8 17 -26q14 -25 23 -47q3 -7 18.5 -84
t15.5 -85q2 -7 7 -5q4 2 11 4.5t10 3.5q60 21 56 8q-5 -10 -24 -21q-6 -3 -17.5 -7t-13.5 -5t-8.5 -3.5t-10.5 -4.5q-6 -3 -6 -9q-1 -4 -1 -13q0 -19 -6 -39q-6 -21 -9 -44q0 -8 -8 -24l-31 -72l-11 -17q-3 -7 2 -12l6 -4q26 -14 48 -21q11 -3 22 -3h39q6 0 20.5 0.5
t20.5 1.5h63q16 -5 -9 -9q-5 -1 -19 -2l-29 -4q-34 -8 -50 -9l-33 3q-37 6 -65 22l-24 12q-9 3 -14 -2q-14 -12 -20 -19q-5 -4 -15 -14q-16 -12 -29 -17q-9 -5 -25.5 -12.5t-21.5 -10.5q-19 -11 -57 -15l-28 -3q-2 0 -6 -0.5t-7 -0.5h-48zM436 343q5 1 14 1t14 1q23 0 29 2
q4 2 4 6l-9 65q-13 68 -38 147q-10 26 -50 44q-14 5 -25 -1q-5 -3 -15.5 -8.5t-15.5 -8.5q-26 -13 -38 -24q-15 -15 -23 -22q-17 -17 -20 -45q-3 -48 19 -84q13 -19 31 -34q2 -1 5 -3.5t5.5 -4.5t4.5 -4q6 -6 20 -12q7 -3 42 -10q19 -5 46 -5z" />
    <glyph glyph-name="R" unicode="R" horiz-adv-x="481" 
d="M129 3q-4 -6 -8 1q-2 2 -4 11q-4 21 -3 43v32q0 31 4 55q1 10 1 32v357q0 6 1 32t2.5 59t1.5 42v5q0 9 -2.5 11t-11.5 1q-12 -1 -31 -7t-35 -13q-6 -2 -21 -12q-4 -3 -10 -1.5t-7 7.5v3q1 1 5 3q36 22 81 33q3 1 8 1q36 2 55 2q32 -2 48 -5h1q16 -2 27 -7t23 -14t22 -14
q7 -5 14 -11l24 -25q13 -12 29 -44l19 -76q4 -10 6 -43q0 -6 -1.5 -17.5t-1.5 -13.5q-3 -24 -13 -53q-3 -12 -13 -20q-13 -14 -26 -21q-3 -2 -7 -6t-6 -5q-3 -3 -1 -6q2 -8 18 -75.5t17 -73.5q2 -11 7 -32t7 -32q0 -3 1 -9t1 -9q6 -27 22 -43q7 -7 16 -4q14 4 20 8
q17 13 24 25l39 62q7 10 9 23q4 11 5 11t1 -13q0 -12 2 -17q2 -9 -3 -17q-8 -16 -16 -28q-39 -55 -51 -63q-24 -15 -46 -9q-12 6 -16 10q-14 14 -20 25q-4 7 -7 14q-10 32 -18 68q-1 5 -3.5 15t-3.5 15q-2 9 -4 27q-1 9 -5 34l-12 69q0 1 -0.5 2.5t-1.5 2.5q-2 5 -7 4h-3
q-12 -2 -18 -1q-24 0 -56 9q-1 1 -3.5 2.5t-3.5 2.5q-14 10 -20 15q-7 5 -7 -2v-12q3 -17 0 -70.5t-6 -74.5q-1 -5 -3 -13.5t-2 -12.5q-1 -7 -3.5 -19.5t-3.5 -18.5l-6 -42q-5 -24 -4 -42q0 -9 -1 -14q0 -8 -5 -13zM295 349q3 2 9 7.5t8 7.5q12 11 17 30q7 38 4 69
q-5 66 -24 108q0 2 -1 2q-5 18 -20 36q-3 4 -10 12t-10 12q-12 15 -33 27q-6 3 -18 7.5t-16 6.5q-20 8 -48 8h-10q-7 0 -3 -6q2 -2 6.5 -25.5t8.5 -47t4 -24.5q2 -14 0 -26q-1 -17 -0.5 -66.5t1.5 -60.5v-11q0 -17 1 -20q0 -1 1 -1.5t2 0.5q1 0 2.5 2t2.5 2q18 13 32 14
q33 3 51 -16q17 -17 26 -34q4 -8 6 -10q4 -6 11 -3zM243 334q7 0 23 4q8 2 5 9q-3 14 -11 20q-6 7 -18 19q-4 4 -12 10q-18 11 -36.5 4.5t-25.5 -23.5q-2 -3 -2 -10t4 -10q19 -16 33.5 -19.5t39.5 -3.5z" />
    <glyph glyph-name="S" unicode="S" horiz-adv-x="379" 
d="M170 0q-14 2 -42 8h-4q-55 20 -82 44l-18 16q-6 6 -9 14l-9 34q-1 2 -1 4l3 51l1 1q3 0 3 -2l3 -9q2 -9 4 -23q1 -10 6 -21l6 -16q4 -14 15 -25q24 -21 47 -26q18 -6 27 -8q7 -1 21 -3.5t21 -3.5q2 -1 5.5 -1h5.5q12 -3 33 1q17 3 27 11q3 2 22 13q19 9 31 26q2 2 5.5 7
t5.5 7q15 15 22 47q2 6 5 19t5 20q13 49 2 109q-5 29 -20 54q-19 30 -45 54q-5 5 -15 13q-11 8 -21 10q-60 21 -68 23q-7 1 -29 8q-23 6 -37 23q-27 30 -34 57q-2 6 -2 11q2 30 5 39q9 39 39 66q9 9 35 24l10 6q28 16 66 13q27 -2 44 -8q18 -5 29 -19q5 -6 17 -18
q9 -9 15 -21q5 -11 3 -19q-2 -10 -4 -15q-2 -1 -3 -1q-2 0 -2 1l-3 7q-3 15 -11 25q-4 6 -6 10q-20 32 -60 40q-23 6 -50 1q-10 -3 -11 -3q-24 -13 -31 -20q-4 -3 -13 -10t-13 -11q-15 -16 -24 -38l-3 -7q-8 -16 -6 -44q0 -11 6 -18q9 -14 20 -29q16 -17 39 -25q18 -4 27 -7
q12 -3 28 -8q10 -2 30 -8q12 -2 27 -10q21 -10 52 -35q11 -10 20 -29l12 -22q20 -38 26 -86q4 -27 0 -70q-2 -12 -2 -19q-2 -17 -7 -31q-11 -26 -17 -47q-4 -15 -19 -32l-6.5 -6.5t-6.5 -7.5l-27 -26q-15 -16 -43 -25q-3 -1 -10 -1l-21 -3q-17 -4 -41 0z" />
    <glyph glyph-name="T" unicode="T" horiz-adv-x="372" 
d="M220 1l-30 6q-12 3 -17 10q-13 15 -21 33q-4 11 -8 35q-4 21 -4 80q0 7 0.5 19t0.5 19q0 26 2 38q5 53 4 68q0 17 3 32v13q0 5 -5 5q-4 0 -5 -1q-25 -5 -46 -13q-11 -5 -25 -9q-14 -3 -25 -12q-2 -2 -5 -2q-4 -4 -7 2l-1 5q2 2 6.5 5t8 5.5t6.5 4.5q19 10 35 17
q20 10 39 14q16 5 19 6q9 1 9 12q0 2 0.5 6t0.5 7l15 221q1 4 2 9.5t1 6.5q0 7 -1 9q-2 8 -9 11q-2 0 -7.5 1.5t-8.5 1.5q-22 2 -35 4q-17 2 -32 0q-18 0 -38 -11q-16 -9 -25 -24l-5 -8h-4q-2 0 -2 2q-3 10 4 19q9 11 18 16q33 19 62 18h24q12 0 18 -1q45 -7 74 -6
q8 0 26 -2q38 -4 63 1q28 4 43 8q7 2 8 -4q0 -11 -16 -15l-4 -1q-4 0 -14 -1.5t-15 -2.5q-8 -2 -12 -2q-44 0 -57 2q-10 1 -31 1q-3 0 -5 -1q-7 0 -7 -7q0 -2 -0.5 -6.5t-0.5 -6.5q2 -21 -2 -36q-1 -4 -1 -11l3 -71q3 -48 -2 -86q-1 -11 -1 -34q0 -10 9 -8q7 0 21.5 2
t21.5 2q15 2 22 1q16 -3 32 2h2q3 0 3 -1q2 -2 0 -3q-8 -14 -25 -16h-4q-12 1 -52 -4q-14 0 -23 -5q-8 -3 -10 -12q0 -6 -2 -23.5t-2 -27.5q0 -1 -3 -40v-18l-3 -27q0 -3 -0.5 -8.5t-0.5 -8.5v-53q-3 -40 -3 -41q-1 -12 0 -22l3 -20q3 -23 26 -38q20 -12 40 -9q11 2 21 6
q21 11 36 25q4 4 7 6q24 17 56 59q14 20 19 31q1 1 2.5 2t2.5 0q2 -2 2 -3q2 -4 2 -7t-2 -7q-1 -3 -5 -14q-15 -28 -25 -38q-20 -22 -33 -30q-6 -7 -14 -13t-18.5 -13t-15.5 -11q-14 -9 -35 -14q-7 -1 -13 0z" />
    <glyph glyph-name="U" unicode="U" horiz-adv-x="504" 
d="M129 0q-3 0 -11 2q-10 5 -25 10q-16 6 -25 21q-2 5 -9 17t-10 19q-4 8 -9.5 34t-11 54.5t-6.5 32.5q-3 14 -9 77.5t-6 71.5v85q4 96 12 148q3 16 7 50q4 48 9 64q1 2 1 5t1 4q2 4 6 4q1 1 2.5 -1t1.5 -3q1 -3 1 -9q0 -37 -4 -125v-79v-13q-3 -26 -3 -106q2 -13 11 -106.5
t10 -97.5q6 -35 6 -37q0 -9 3 -18q11 -44 19 -59q1 -1 2.5 -4t2.5 -4l3 -4q26 -18 46 -9l14 6q23 18 27 22q5 6 7 6q12 9 26 35l5 14q22 52 39 87q3 7 13 46q1 2 1.5 6.5t0.5 6.5q1 9 0 18q-2 16 -2 25q0 16 -3 31q-2 6 -4.5 18t-3.5 18q-4 20 -4 29v114v50q0 24 11 59
q6 16 22 24q12 6 28 13q8 4 14 -5l4 -7q4 -7 6 -10q3 -4 8 -13t6 -11q8 -14 12 -47v-8q-3 -13 -6 -38.5t-6 -37.5q-2 -14 -2 -22q-2 -12 -2 -18q-3 -22 -10 -39q-3 -7 -10 -41q-2 -9 -4 -26t-4 -26q-4 -16 -7 -23q-2 -6 -10 -43v-11l7 -40q1 -1 2 -3.5t1 -3.5q4 -7 8 -22
t7 -21q3 -9 3 -18q2 -17 9 -32q6 -12 8 -18q5 -11 14 -17q4 -4 12.5 -4.5t12.5 3.5q2 1 6 5l18 18q1 1 10 13q14 20 26 34q35 41 37 43q6 7 20 21q0 1 1 1t2 -1v-1q0 -1 -0.5 -2t-0.5 -2q-21 -32 -25 -38q-7 -14 -8 -17q-4 -8 -22.5 -30.5t-24.5 -28.5q-1 -1 -19 -22
q-9 -11 -20 -12l-18 -3q-4 -1 -11 -1q-14 2 -19 11l-12 18l-8 16q-11 18 -14 40l-6 29q-4 14 -7 20q-2 3 -3.5 6.5t-3 8t-2.5 6.5l-1 1q-3 0 -3 -1q-20 -32 -25 -51q-10 -31 -31 -62q-1 -3 -12 -16l-37 -37l-13 -6q-14 -8 -39 -10zM294 340h1h2l3 11q5 21 7 28q10 40 16 61
q3 15 3 16q3 31 12 59q7 20 7 43q0 27 -17 61q-3 6 -9 6q-17 3 -26 -10q-13 -20 -13 -36q0 -4 -0.5 -14t-0.5 -15q1 -31 1 -92q0 -41 3 -62q4 -34 8 -49z" />
    <glyph glyph-name="V" unicode="V" horiz-adv-x="339" 
d="M333 699l1 -1q0 -1 -0.5 -4t-1.5 -4q-10 -24 -15 -50l-9 -42q-1 -3 -1.5 -9.5t-1.5 -10.5q-5 -14 -11 -186t-6 -219q0 -43 -9 -103q-1 -7 -0.5 -20.5t-0.5 -20.5q-2 -6 -6 -12q-6 -6 -9 -10q-7 -7 -16 -7h-1q-18 0 -27 15q-3 4 -7 12q-7 14 -17 42t-12 32l-9 23
q-3 7 -7 19q-11 30 -24 60q-5 9 -11 29t-11 29q-2 6 -10 22.5t-14 31t-16 44t-19 66.5q0 2 -1 5.5t-1 4.5q-1 4 -8.5 36t-12.5 49q-5 18 -17 54l-6 23q-1 5 -3 14.5t-3 13.5l-3 14q-1 6 -1.5 18.5t-0.5 18.5q0 3 2 7q0 4 6 4q4 -2 5 -4t1 -7l6 -27q8 -39 30 -97q3 -9 10 -28
t10 -29q0 -2 2 -8q3 -16 19 -67q2 -10 10 -28q6 -16 9 -33q3 -15 15 -43q8 -20 13 -30q3 -9 11 -25q2 -4 5 -12t5 -12q16 -38 25 -57q15 -28 24 -55q2 -6 4 -9q4 -8 16 -40q0 -2 2 -6q2 -2 3 -2q3 0 3 2q2 3 4 11q9 39 11 53q2 8 2 24q0 5 2 96t2 109q0 7 1 11
q2 16 2.5 33.5t0.5 39v33.5q0 34 -1 50q0 21 7 51q1 4 3.5 12t3.5 12q14 48 37 79q8 12 15 15h2z" />
    <glyph glyph-name="W" unicode="W" horiz-adv-x="570" 
d="M564 699l1 -1q0 -1 -0.5 -4t-1.5 -4q-10 -24 -15 -50l-9 -42q-1 -3 -1.5 -10t-1.5 -10q-5 -14 -11 -186t-6 -219q0 -43 -9 -103q-1 -7 -0.5 -20.5t-0.5 -20.5q-1 -6 -6 -12q-6 -6 -9 -10q-7 -7 -16 -7h-1q-18 0 -27 15q-3 4 -7 12q-7 14 -17 42t-12 32l-9 23q-3 7 -7 19
q-10 30 -24 60q-5 9 -11 29t-11 29q-2 5 -10 21.5t-13.5 30t-15 41.5t-18.5 63q-7 -180 -7 -244q0 -43 -9 -103q-1 -7 -0.5 -20.5t-0.5 -20.5q-2 -6 -6 -12q-6 -6 -9 -10q-7 -7 -16 -7h-1q-18 0 -27 15q-3 4 -7 12q-7 14 -17 42t-12 32l-9 23q-3 7 -7 19q-11 30 -24 60
q-5 9 -11 29t-11 29q-2 6 -10 22.5t-14 31t-16 44t-19 66.5q0 2 -1 5.5t-1 4.5q-1 4 -8.5 36t-12.5 49q-5 18 -17 54l-6 23q-1 5 -3 14.5t-3 13.5l-3 14q-1 6 -1.5 18.5t-0.5 18.5q0 3 2 7q0 4 6 4q4 -2 5 -4t1 -7l6 -27q8 -39 30 -97q3 -9 10 -28t10 -29q0 -2 2 -8
q3 -16 19 -67q2 -10 10 -28q6 -16 9 -33q3 -15 15 -43q8 -20 13 -30q3 -9 11 -25q2 -4 5 -12t5 -12q16 -38 25 -57q15 -28 24 -55q2 -6 4 -9q4 -8 16 -40q0 -2 2 -6q2 -2 3 -2q3 0 3 2q2 3 4 11q9 39 11 53q2 8 2 24q0 5 2 96t2 109q0 7 1 11q2 16 2.5 33.5t0.5 39v33.5
q0 34 -1 50v7q-2 6 -6 18.5t-6 18.5l-6 23q-1 4 -3 14t-3 14l-3 14q-1 6 -1.5 18.5t-0.5 18.5q0 3 2 7q0 4 6 4q4 -2 5 -4t1 -7q0 -4 1 -8.5t2.5 -10t2.5 -8.5q4 -23 18 -62q1 6 5 18q14 48 37 79q8 12 15 15h2l1 -1q0 -1 -0.5 -4t-1.5 -4q-10 -24 -15 -50l-9 -42
q-1 -3 -1.5 -9.5t-1.5 -10.5q-3 -7 -6 -65q3 -6 7 -18q0 -2 2 -8q3 -16 19 -67q2 -10 10 -28q6 -16 9 -33q3 -15 15 -43q8 -20 13 -30q3 -9 11 -25q1 -4 5 -12t5 -12q16 -38 25 -57q15 -28 24 -55q2 -6 4 -9q4 -8 16 -40q0 -2 2 -6q2 -2 3 -2q3 0 3 2q2 3 4 11q9 39 11 53
q2 8 2 24q0 5 2 96t2 109q0 7 1 11q2 16 2.5 33.5t0.5 39v33.5q0 34 -1 50q0 21 7 51q1 4 3.5 12t3.5 12q14 48 37 79q8 12 15 15h2z" />
    <glyph glyph-name="X" unicode="X" horiz-adv-x="515" 
d="M19 -4q-8 -2 -13 6q-2 2 0 5q2 5 4 7q11 11 48 55q3 4 7 8t9 8.5t8 7.5q16 16 22 31q3 6 11.5 24t13.5 28q4 10 23 46q6 14 13 34q2 7 -1 13l-5 10q-8 17 -24.5 49.5t-24.5 48.5q-5 9 -13.5 27.5t-12.5 27.5q-4 11 -12 22q-18 32 -25 56l-18 52q-1 5 -3 13q-9 57 -8 92
v17q0 3 2 7q0 3 4 3q1 1 2 0.5t1 -1.5q3 -1 3 -5q8 -20 9 -31l3 -27q1 -2 1 -5q20 -69 26 -83l3 -9q9 -45 40 -84q9 -11 23 -37q15 -29 30 -53l12 -20q1 -3 4 -4q3 0 3 1l3 7q5 30 21 90q2 9 6.5 27.5t7.5 27.5q14 60 22 90q6 27 23 52l31 43q1 1 2.5 2t2.5 0t1 -5
q-1 -9 -9 -23q-7 -15 -23 -55q-5 -14 -11 -44l-9 -42q-9 -42 -13 -56l-5.5 -22t-4.5 -22q-6 -28 -8 -38q-3 -12 -8 -35t-8 -34q-5 -19 5 -35q4 -6 10 -20l9 -21q2 -6 7 -15.5t6 -12.5q14 -28 26 -55q10 -22 25 -48q3 -4 9.5 -13t9.5 -13q8 -10 13 -17l18 -24q7 -9 18 -7
q29 4 51 28q29 31 51 71l19 33q9 16 23 33l4 2q3 0 1 -5q0 -1 -1 -3.5t-1 -3.5q-14 -27 -28 -65q-5 -13 -11 -22q-14 -22 -22 -32q-24 -34 -58 -48l-14 -6q-9 -5 -27.5 1t-32.5 19q-12 10 -21 24q-2 3 -22 31q-27 39 -41 72q-5 13 -19 37l-18 30q-2 3 -5 5h-3l-3 -3
q-4 -9 -32 -63q-11 -19 -31 -57q-5 -13 -7 -16q-7 -15 -16 -23q-5 -4 -13 -12q-1 0 -3 -2q-3 -3 -11.5 -8.5t-11.5 -11.5l-24 -19q-7 -7 -15 -8z" />
    <glyph glyph-name="Y" unicode="Y" horiz-adv-x="513" 
d="M262 1l-32 5q-11 1 -19 9q-16 13 -32 31q-12 15 -12 36q0 14 10 27q8 10 20 18q25 18 54 30q7 4 21 10q11 5 9 16q0 12 -1 17q0 14 -3 27l-6 50q-2 13 -4 35q0 7 -2.5 27t-2.5 31v8q-2 10 -4 58q0 5 -2 15q-2 9 -11 4q-3 -2 -7.5 -5.5t-6.5 -4.5l-42 -28q-10 -8 -21 -8
q-4 0 -14 -2q-4 0 -11 -0.5t-10 -0.5q-27 -1 -50 17t-34 42q-12 24 -17 37q-13 28 -18 71l-3 29q0 9 -1 13q-5 51 -4 66q0 3 -0.5 7t-0.5 7q0 1 2 3q1 1 2.5 0.5t2.5 -1.5q12 -8 13 -21q1 -3 1 -9q2 -14 2 -21q2 -10 2 -16q0 -18 5 -40q9 -43 14 -61q4 -14 8 -21
q2 -3 4.5 -9t3.5 -9q5 -14 23 -38q15 -19 39 -19q5 0 14 0.5t13 0.5q2 0 4 0.5t4 0.5q42 14 59 29l12 9q10 9 18 23q2 2 2 9q-2 11 -2 52q0 25 8 52q2 4 4.5 11.5l3.5 10.5q5 14 11 22q9 13 24 19q12 4 23 0q1 0 3 -1.5t4 -2.5q23 -11 26 -35q8 -43 -14 -72q-16 -24 -25 -35
q-16 -20 -26 -29q-7 -6 -7 -15v-19t0.5 -22t2.5 -19q1 -4 1.5 -11.5t0.5 -9.5q3 -19 3 -56q0 -20 6 -56l9 -48q5 -22 5 -38q0 -6 2 -16q2 -6 9 -6t21 2l23 3q7 0 21 2q2 0 4.5 0.5t3.5 0.5q27 0 50 4l25 3q4 0 12.5 1t12.5 1q15 2 17 2q2 -2 2 -3v-2q-1 0 -1 -0.5t-1 -0.5
q-17 -9 -33 -10l-21 -3q-17 -4 -29 -5l-52 -6q-5 -1 -17 -1q-6 -1 -17 -2.5t-16 -2.5q-3 0 -5 -2q-5 -2 -6 -7v-2q1 -9 2.5 -36.5t2.5 -34.5q1 -21 -5 -43q-1 -6 -5 -18q-6 -16 -23 -19t-29 -1zM289 523q1 0 3 2q23 18 46 55q16 28 1 63q-7 16 -26 18q-15 1 -23 -11
q-12 -19 -14 -46q-1 -16 -1 -47q2 -16 6 -32q1 -2 4 -3t4 1zM246 24q16 -2 33 0q7 0 10 7q4 5 4 13q-3 30 -5 83q0 1 -3 19q-2 8 -9 6q-6 -3 -18 -7l-42 -21q-14 -7 -28 -21q-10 -9 -10.5 -22t11.5 -26l3 -2q29 -20 39 -25q10 -4 15 -4z" />
    <glyph glyph-name="Z" unicode="Z" horiz-adv-x="558" 
d="M75 2q-20 -8 -37 4q-1 1 -3 2l-2 2q-18 22 -22 30q-8 18 -5 41q3 12 11 20q17 17 35 21q22 4 32 4h19q12 0 16 11q1 1 1 3t1 3q18 61 22 83q2 13 6 23l6 19q9 33 13 43l39 108q15 42 38 86q6 12 16.5 34.5t12.5 27.5q7 18 13 31q1 7 -4 10l-4 1q-46 14 -134 52
q-4 2 -11.5 5t-11.5 5q-18 7 -45 4.5t-42 -14.5q-4 -3 -12 -7h-3t-3 -1q-5 0 -3 5q0 2 1 3q15 15 30 22q10 5 19 5q4 0 13 0.5t13 0.5q33 3 70 -14q5 -2 13.5 -7t11.5 -6q1 0 2.5 -1t2.5 -1q59 -26 93 -33q2 -1 5 -1q11 -3 17 7l9 15q6 12 20 24q6 5 9.5 7t6.5 4t6.5 3
t5 1.5t8.5 1.5t11 2q6 1 39 4q6 2 11 0q8 -1 13.5 -7.5t4.5 -14.5q-3 -17 -12 -27l-9 -10q-9 -13 -28 -20q-10 -4 -23 -7q-13 -4 -31 -4q-3 0 -10.5 -0.5t-11.5 -0.5q-11 0 -16 -11q-6 -19 -17 -44q-13 -35 -24 -69q-13 -37 -21 -51q-8 -17 -17 -46q-4 -12 -11 -36t-11 -36
q-3 -10 -9.5 -29t-9.5 -28q-4 -10 -5 -15q-9 -34 -29 -84q-5 -13 -10 -34q-2 -7 5 -9q20 -8 22 -9q6 -2 37.5 -14.5t48.5 -18.5l10 -3q21 -5 65 -15q5 -1 15 1q26 7 54 20q5 2 13 8q34 20 57 35q14 9 42 29q24 17 31 21q1 1 4 2l3 1h2v-2q0 -3 -1 -3q-7 -9 -16 -16l-36 -30
q-7 -6 -22 -17t-22 -16q-38 -27 -76 -41q-3 -2 -11 -4t-11 -4q-17 -3 -29 -2q-10 2 -28.5 5.5t-26.5 4.5q-38 7 -79 28q-2 1 -6.5 2.5t-6.5 2.5l-31 12q-6 2 -10 2q-3 2 -7 -2q-3 -6 -4 -7q-12 -26 -22 -46l-6 -12q-10 -16 -27 -22zM329 623q15 0 19 1q3 0 7 0.5t6 0.5
q22 -1 53 17q11 7 13 23q0 8 -8 10h-7q-13 1 -37 -3q-15 -3 -24 -10q-17 -14 -25 -29l-2 -3q-2 -7 5 -7zM59 25q6 -4 14 0q11 7 14 14q12 20 21 55q2 10 -8 12q-4 2 -7 2h-32q-2 0 -17 -5q-11 -7 -12 -17q-11 -34 27 -61z" />
    <glyph glyph-name="bracketleft" unicode="[" horiz-adv-x="179" 
d="M33 0q-5 -3 -10 2q-6 5 -9 13q-15 47 -14 77q1 11 1 32q0 30 1 45q0 13 1 20q0 8 2 22q0 21 3 40q1 8 1 23q0 7 0.5 20t1 24t1.5 20q1 10 1 57q0 48 1 73q0 10 1 16q5 27 0 56q0 3 -0.5 10t-1.5 10q0 12 -2 34q-1 10 0 21q2 8 4 22q5 18 0 36q-1 4 -1 14q-1 3 2 6t6 3h12
q10 -3 23 -1q28 4 62 1l22 -3q7 -2 19 -6q4 -1 4.5 -6t-2.5 -8q-10 -8 -20 -7q-9 1 -24.5 1h-24.5q-10 1 -28 -3q-8 -3 -12 -10q-8 -14 -6 -29q0 -6 2 -14q5 -20 0 -38q-5 -23 -1 -59q5 -26 0 -52q-1 -9 -1 -28q-1 -22 -1 -66v-66q0 -14 -2 -40q0 -6 -0.5 -16.5t-0.5 -16.5
q0 -21 -3 -44q-1 -7 -1 -20q-1 -37 -1 -111q0 -10 1 -14q0 -9 11 -11q22 0 44 3q45 5 80 -3q2 0 4 -2q1 0 1.5 -2t-0.5 -3q-1 0 -2.5 -1.5t-2.5 -1.5q-6 -3 -12 -3h-26q-31 0 -47 -3q-4 -1 -14 -1q-29 -4 -42 -12z" />
    <glyph glyph-name="backslash" unicode="\" horiz-adv-x="319" 
d="M305 0q-8 0 -15 7q-4 6 -6 10q-10 14 -18 32q-22 51 -34 84q-3 9 -8 19q-14 28 -24 57q-8 20 -22 49q-8 17 -22 53q-8 22 -26 64l-29 74q-3 9 -8 19q-26 54 -38 80q-14 32 -19 49l-3.5 10.5t-3.5 11.5q-10 21 -14 42q-3 11 -9 21q-6 8 -6 14q0 2 1 3h3q2 0 2 -1l16 -24
q5 -7 14 -27q1 -5 5.5 -14.5t5.5 -14.5q3 -7 8.5 -22t8.5 -23q6 -16 10 -23q4 -8 13 -25t13 -26q3 -8 14 -27.5t15 -31.5q7 -11 13 -24t12.5 -30t10.5 -25q6 -14 10 -21q6 -12 15.5 -34t11.5 -27q18 -42 25 -52q5 -9 25 -54q10 -22 16 -33q4 -6 9 -17.5t6 -13.5q3 -9 11 -27
l3 -7q6 -22 18 -51q2 -3 4 -11q2 -5 -1.5 -9t-8.5 -4h-4z" />
    <glyph glyph-name="bracketright" unicode="]" horiz-adv-x="179" 
d="M66 -2q-12 2 -22 2l-19 6q-3 2 -4 6.5t3 7.5q8 8 20 8q4 -2 23.5 -1.5t25.5 0.5q3 0 27 3q8 5 12 10q8 14 6 30q0 8 -3 14q-4 17 1 38q4 26 -1 59q-5 26 0 52q1 9 1 27q1 23 0.5 67t-0.5 65q-1 8 2 40v34q0 6 2 44l2 19q0 75 -1 112q0 10 -1 14q0 8 -11 10q-7 0 -44 -2
q-47 -7 -80 2q-2 -1 -4 1q-2 1 -1 5l2 2l2 2q3 1 7.5 2t5.5 1q16 0 25 -1q39 2 48 4q3 1 14 1q34 8 42 13q7 2 10 -3q6 -3 9 -12q15 -47 14 -77v-31q0 -31 -1 -46q0 -13 -1 -20q1 -10 -2 -22q1 -18 -2 -40q-1 -8 -1 -23q0 -43 -2 -64q-1 -19 -1 -57v-73q1 -7 0 -16
q-5 -29 1 -56q0 -14 1 -20q0 -18 3 -33v-22q-2 -8 -4 -22q-4 -22 1 -36v-14q1 -3 -1.5 -6t-5.5 -3h-13q-9 3 -22 1q-27 -5 -63 -2z" />
    <glyph glyph-name="asciicircum" unicode="^" horiz-adv-x="550" 
d="M29 268l224 451h50l218 -451h-78l-165 359l-170 -359h-79z" />
    <glyph glyph-name="underscore" unicode="_" horiz-adv-x="622" 
d="M470 -120q-14 1 -43 1q-40 1 -119 1h-4q-5 5 -63 5h-63h-32v-2h-19q-32 1 -95 1q-22 0 -31 14q-2 2 -1 6t3 5l11 3q34 4 51 5q43 4 119 10q14 1 43 1t44 1q18 0 27 1q28 5 127 7q8 1 25 2.5t26 1.5q10 1 29.5 1t29.5 1q30 1 57 -15l23 -15q5 -4 7 -14q0 -3 -4.5 -7
t-9.5 -5q-6 -2 -8 -2q-74 -12 -130 -7z" />
    <glyph glyph-name="grave" unicode="`" horiz-adv-x="580" 
d="M390 606h-59q-37 29 -80.5 76t-61.5 74v10h105q16 -32 44.5 -76.5t51.5 -71.5v-12z" />
    <glyph glyph-name="a" unicode="a" horiz-adv-x="388" 
d="M113 0q-30 5 -36 7q-24 7 -36 20q-10 8 -18 18q-14 14 -17 34q-7 29 -8 50q0 1 -3 56q0 23 8 47q1 4 5 17q8 26 32 52l10 10q30 27 70 35q21 3 42 3q2 -1 6 -1t6 -1q1 0 2 -0.5t2 -0.5q7 -2 15 -3.5t11.5 -2t10 -3.5t13.5 -8q14 -9 34 -35q7 -8 21 -44q5 -12 5 -24v-27
v-10q0 -26 -5 -45q-5 -18 -5 -56q2 -20 8 -32q3 -9 9 -15q10 -8 20 -3l15 9q2 2 7 12l21 49q4 12 13.5 35t14.5 34q0 1 5 8q0 2 4 4q1 1 3 0.5t2 -2.5v-8q-3 -22 -9 -43q0 -2 -1.5 -7t-1.5 -8q-2 -13 -11 -30q-6 -10 -11 -28q-5 -14 -15 -23q-3 -4 -12 -11q-5 -5 -15 -8
q-3 -2 -8 -2q-25 3 -37 19q-9 14 -12 30q-1 2 -2.5 6.5t-2.5 6.5q0 2 -2.5 2.5t-4.5 -1.5l-1 -1q-1 -1 -1 -2q-2 -2 -8.5 -10.5t-10.5 -12.5q-3 -6 -8 -9l-17 -14q-38 -22 -52 -26q-15 -4 -19 -5q-14 -3 -25 -2zM127 24q9 0 29 6q18 5 31 15q29 23 50 55q5 5 9 15
q11 31 12 46q0 1 3 17q5 35 -4 60l-6 21q-1 5 -5 15q-1 3 -2.5 6.5t-3.5 8t-3 6.5q-4 13 -17 20q-12 5 -23 12q-22 11 -44 11q-19 0 -50 -9q-21 -8 -32 -16q-18 -15 -37 -38q-3 -3 -5 -7q-14 -32 -16 -51q-3 -41 -2 -51q2 -18 2 -26q4 -38 10 -55q10 -28 36 -46
q29 -18 68 -15z" />
    <glyph glyph-name="b" unicode="b" horiz-adv-x="304" 
d="M77 0q-2 0 -25 6q-6 3 -12 10q-26 28 -29 65q-4 35 -7 49q-5 24 -3 59q1 9 0 18q0 3 -0.5 9t-0.5 9q0 31 -3 62q-1 18 -1 55q1 11 -3 49.5t-5 44.5q0 2 -0.5 6t-0.5 6q-2 16 -4 26q-5 25 -1 44q1 7 2.5 22t2.5 23q1 6 3.5 16.5t2.5 12.5t2 6q2 3 8.5 16.5t11.5 19.5
l23 33q3 3 8 9t8 9q9 9 24 12h9q10 -1 24 -9q6 -2 9 -10l1 -7q2 -10 4 -34q0 -9 -1 -14q0 -8 -2 -22q0 -3 -0.5 -8.5t-1.5 -8.5q-4 -25 -5 -34q-16 -46 -19 -63q0 -4 -8 -24q-23 -49 -25 -52q-10 -15 -23 -42q-1 -2 -3 -4q-4 -6 -8 -2q-3 1 -3 6q0 1 1 3t1 3l6 15
q5 10 10.5 22t12 27t10.5 23l3 10q8 24 11 36q3 11 11 33q3 6 5 18q1 9 5 25q7 26 5 69q-1 12 -12 20q-10 6 -20 2q-7 -3 -13 -8q-24 -19 -37 -45q-12 -23 -19 -60v-1l-1 -1q0 -10 -2 -31t-2 -31q0 -36 7 -67q3 -13 7 -41v-68v-27q1 -13 3 -37q1 -2 2 -2t3 2l4 7q8 14 14 20
q10 9 48 47l11 9q3 3 10 5q2 0 6.5 1t8 1.5t6.5 0.5q8 1 17 0q4 0 16 -2q10 0 17 -6q13 -11 16 -16q6 -8 11 -13q6 -7 9 -17q8 -24 9 -38q2 -18 1 -26q0 -1 0.5 -4t0.5 -5v-3v-4v-3q-2 -31 -7 -46q-4 -9 -7 -25q-6 -25 -20 -55l-3 -8q0 -1 2 -3q1 0 3 -1q6 0 18 4
q44 21 68 53l3 4q10 10 19 26l5 8q2 1 3 1l2 -3v-1q-1 -14 -11 -29q-18 -24 -28 -35q-8 -10 -24 -20q-30 -17 -59 -27q-3 0 -7 -2q-12 -4 -17 -7l-12 -12l-25 -22l-12 -6q-3 -1 -8.5 -2.5t-6.5 -1.5q-11 -4 -27 -2zM139 63q1 0 4 0.5t5 0.5q5 -1 13 9q12 15 18 31
q14 37 19 63q0 1 0.5 4t0.5 5q3 10 8 44q1 5 1 15t-9 37q-1 2 -3 4q-12 18 -18 26q-3 6 -8 11q-4 4 -22.5 11t-22.5 6q-16 -2 -27 -10l-18 -14q-1 0 -6.5 -5.5t-9.5 -7.5l-12 -12q-4 -6 -6 -8q-14 -17 -18 -37q-3 -6 -3 -12q0 -2 -0.5 -8t-0.5 -9q-3 -21 1 -39q8 -28 15 -40
q4 -7 13.5 -19.5t13.5 -18.5q3 -4 6 -6q6 -6 10 -8q24 -13 32 -13q4 -1 24 0zM82 22q20 -1 39 8q9 4 13 10q2 3 -2 5l-15 3q-10 2 -30 8q-23 9 -40 29q-5 7 -18 20l-1 1q-2 -2 -2 -3v-5q0 -4 1 -7q2 -25 16 -44q11 -16 33 -24q2 -1 6 -1z" />
    <glyph glyph-name="c" unicode="c" horiz-adv-x="290" 
d="M111 0q-25 3 -42 16q-7 4 -19 12q-14 6 -21 18q-11 16 -11 17q-14 26 -19 40q-7 16 -9 41v12q-1 19 7 42q3 13 7 23q6 16 10 24q12 24 17 36q6 16 22 32q17 16 43 28q8 4 13 5q13 3 32 1q8 -3 10 -4q4 -2 8.5 -4t10.5 -5t9 -5q9 -3 12 -14q0 -3 -1 -4q0 -2 -2 -2t-3 1
l-6 3q-6 6 -26 15q-19 10 -38 4q-22 -7 -37 -19q-22 -16 -37 -47q-1 -1 -2 -4t-2.5 -5.5t-2.5 -4.5q-9 -15 -17 -47q-8 -35 -5 -56q2 -12 15 -46q1 -2 3 -6.5t3.5 -8t2.5 -6.5q8 -14 14 -19l21 -21q10 -8 19 -11q3 -1 6.5 -2.5t5.5 -1.5q5 -2 33 3t39 10q6 4 9 5
q7 5 20 15.5t20 15.5q7 7 12 11q15 10 28 29q7 12 15 27q4 7 10 21q1 3 5 7h5q2 -2 2 -4q0 -5 -2 -13q-4 -7 -13 -25.5t-15 -27.5q-10 -12 -15 -17q-20 -18 -29 -28q-13 -15 -43 -34q-1 0 -3 -1.5t-4 -2.5q-19 -13 -43 -18q-14 -2 -21 0h-1z" />
    <glyph glyph-name="d" unicode="d" horiz-adv-x="464" 
d="M156 3q-30 2 -54 13q-4 1 -17 5q-22 8 -47 26q-12 10 -23 25q-22 28 -24 66q-2 17 0 34q1 3 1.5 10.5t0.5 9.5q5 37 26 82q8 12 11 15q33 28 57 39q37 13 44 10q37 -7 48 -11l33 -18q4 -1 7 -6q10 -12 20 -19q11 -13 12 -16q12 -22 18 -35q1 -2 5 -6l1 -1l2 2v6
q-1 4 -2 12.5t-2 13.5q0 6 -6 102q-1 9 -1 26t-1 25q0 22 -4 39q-2 7 -2 21q-6 48 -6 50q-2 12 -2 17q-1 6 -1 16t-1 16q-3 29 3 58q2 9 4 29q2 10 17 26.5t20 18.5q18 7 25 -11q9 -21 10 -38q0 -1 1 -8t2 -11q2 -12 2 -41v-11q0 -21 -2 -63q0 -10 -1 -15v-15q1 -20 -4 -46
q0 -10 -2 -26q-4 -25 -10 -73q-2 -10 -2 -17q-1 -10 -2 -41t-3 -49q-1 -5 -1 -42q-3 -18 5 -30q9 -18 30 -43l10 -11q11 -10 25 -14q10 -2 17 1q23 12 30 22q13 18 14 20q2 3 15.5 23t16.5 24q3 3 5 4q-6 -23 -14 -33q-1 -1 -2.5 -4.5t-2.5 -4.5l-21 -36q-12 -16 -25 -22
q-25 -15 -51 -4q-19 9 -29 23q-14 14 -19 17q-2 1 -3.5 0t-1.5 -2l-3 -20l-3 -18q-5 -26 -22 -42q-13 -16 -30 -22q-6 -4 -10 -6q-35 -21 -81 -16zM289 353q0 1 1 3q3 11 5 32q9 63 9 86q0 11 2 33l6 93q0 3 0.5 7t0.5 6q0 33 -2 49q0 8 -4 15q-2 13 -16 8q-2 0 -8 -3
q-9 -6 -12 -17q-2 -6 -4 -16q-6 -38 -4 -58q1 -4 1.5 -13t0.5 -13q2 -52 8 -78v-10q1 -11 4.5 -32.5t4.5 -32.5q4 -26 4 -38q2 -14 2 -19q0 -1 1 -2zM171 23q5 0 15 0.5t15 0.5q19 4 27 9q7 3 21 12q23 15 27 42q2 4 4 14q3 11 1 24q0 2 -0.5 3.5t-1 7.5t-1.5 16
q-11 37 -11 38q-2 10 -16.5 29.5t-17.5 24.5q-11 23 -32 42q-15 12 -36 22q-43 19 -88 -4q-6 -3 -11 -8q-18 -16 -26 -32q-3 -7 -6 -14.5t-6.5 -16.5t-5.5 -14l-3 -15q-2 -49 -2 -58q1 -22 15 -50q8 -12 16 -18q6 -3 20 -13t23 -15q23 -12 55 -24q16 -4 25 -3z" />
    <glyph glyph-name="e" unicode="e" horiz-adv-x="356" 
d="M121 0q-32 1 -61 20q-6 5 -13 8q-9 5 -24 20q-2 2 -6 8q-12 22 -21 48q-6 18 -6 29q0 35 3 52q1 27 18 66q13 30 39 53q8 8 24 17l25 12q2 1 7 3t7 3q14 3 37 7q4 0 8 0.5t9 1.5t8 1q14 0 21 -1q10 -2 16 -2q13 -3 28 -14q12 -9 30 -35q6 -8 3 -17q-2 -18 -7 -27
q-2 -3 -4 -7q-2 -8 -11 -17l-9 -9q-10 -13 -32 -21q-22 -6 -54 -20q-15 -6 -37 -8q-18 -1 -34 3q-14 4 -21 4q-4 0 -7 3q-1 1 -0.5 3.5t1.5 2.5q4 1 10 1q3 -1 8.5 -2.5t7.5 -1.5q12 -4 26 -1q12 2 18 4q6 1 19 4.5t21 5.5q18 5 42 19q4 2 11 11q3 5 9 14t10 13q6 11 2 21
q0 2 -2 8q-3 11 -14 17q-11 9 -30 12q-21 4 -47 4q-43 0 -76 -31q-30 -30 -43 -55q-4 -9 -9 -27q0 -1 -1 -3q-2 -4 -2 -6q-2 -12 -4 -34q-1 -7 -1 -19q0 -2 -0.5 -6t-0.5 -6q-2 -29 8 -46q4 -12 12 -25q2 -3 13 -12q5 -3 13.5 -9t11.5 -8q23 -14 46 -14q1 0 10 1t14 1
q18 0 31 5q19 6 46 22l18 11q3 2 7.5 6t5.5 4l11 11q11 10 17 14q0 1 2 2.5t3 2.5q22 23 34 42q2 3 14 23q7 12 21 23q6 6 14 1q2 -1 2 -3l-1 -2l-1 -1q-1 -2 -2 -3l-2 -1q-1 0 -2 -1q-5 -7 -8 -13q-2 -5 -8.5 -18.5t-10.5 -20.5l-1 -1q-31 -38 -50 -57q-10 -10 -19 -15
q-18 -13 -56 -33q-11 -6 -30 -13q-6 -2 -12 -2h-42z" />
    <glyph glyph-name="f" unicode="f" horiz-adv-x="226" 
d="M61 1q-16 6 -23 10q-19 14 -24 30q0 2 -2.5 10t-3.5 13l-3 12l-3 21q-1 12 -2.5 36.5t-2.5 37.5q0 19 -2 28q-1 6 -1 18q0 7 -1 21.5t-1 21.5q-3 11 -2 60t1 60v12q1 7 1.5 15.5t1 18.5t0.5 15q0 16 2 25q1 6 1 19q2 26 4 39q2 9 4 25t2 18q8 40 15 61q11 32 17 43
q9 16 14 20q3 3 5 4q1 2 11.5 1.5t12.5 -2.5q6 -6 9 -14q4 -14 4 -21l3 -16q2 -22 -1 -39l-6 -44q-1 -5 -3.5 -24t-4.5 -29l-3 -16q-2 -15 -7 -24q-3 -5 -7 -15q-5 -13 -17 -37l-9 -20q-2 -3 -6.5 -8.5t-6.5 -8.5l-2 -3q-7 -7 -9 -24v-7v-81q0 -9 2 -29q2 -24 2 -35
q0 -9 6 -75t8 -76q4 -10 7 -15q6 -13 23 -15q24 -3 43 13q14 14 21 31q3 8 0 17t-10 21.5t-9 17.5q-5 10 -9 28q-4 13 -7 18q-4 7 -7.5 13.5t-6.5 11l-7 10.5q-1 1 -4 4.5t-4 5.5q-3 7 -12 19t-12 18q-4 12 -4 18q0 12 1 17q11 54 41 10q9 -16 11 -23q2 -8 10 -23.5
t11 -23.5q7 -23 10 -37q3 -16 12 -31q12 -23 38 -29q15 -4 32 2q12 5 16 16l4 10l9 15l3 3q1 1 2.5 1t1.5 -1q2 -2 2 -3q-5 -24 -15 -38q-11 -18 -30 -19q-1 0 -4 -1t-5 -1q-16 -5 -38 8q-4 2 -12 8q-7 4 -9 -4q-1 -2 11 -25q10 -20 11 -32q0 -6 -1.5 -10t-6 -10.5
t-6.5 -9.5q-8 -12 -20 -20q-8 -6 -22 -11q-18 -5 -32 -1zM17 390q3 0 3 1q3 5 10 25q11 29 20 46q4 10 5 15q15 65 15 67t0.5 4.5t0.5 3.5q1 3 9 41q5 19 2 44q-2 18 -2 27q0 3 -2 9q-2 7 -10 5q-10 -2 -14 -10q-10 -21 -12 -35q-2 -13 -8 -39q-6 -25 -7 -40q0 -5 -2.5 -25
t-1.5 -31q0 -1 -0.5 -3.5t-0.5 -4.5q-7 -56 -7 -72q1 -9 1 -26zM92 208q-1 3 -26 57l-4 6q-2 2 -5 1.5t-4 -2.5q-5 -10 1 -17q15 -18 18 -25q11 -16 20 -20z" />
    <glyph glyph-name="g" unicode="g" horiz-adv-x="425" 
d="M193 -350q-3 0 -10.5 1t-12.5 0h-3q-20 6 -30 12q-6 3 -9 9q-10 17 -11 20q-13 25 -7 50q9 42 31 77q23 39 59 75q4 4 12.5 13t13.5 13q10 10 9 24q0 39 1 58v32q0 10 2 26t1 25l-1 1q-3 0 -4 -1q-2 -2 -3 -4q-16 -25 -48 -41q-3 -2 -10.5 -6t-9.5 -5q-29 -16 -59 -13
q-2 1 -6 1q-12 -1 -29 7l-25 12q-41 21 -49 67q-4 16 -4 35v14q-2 13 5 55q2 22 18 50l8 14q18 33 43 49q14 12 61 28q26 2 39 0q7 0 14 -5q9 -6 27 -14q34 -18 47 -33q3 -3 9 -7q6 -6 9 -10q11 -12 11 -33q0 -17 1 -26q1 -5 -1 -11q-2 -4 -7 -31q-1 -11 -7 -33t-4 -34
q-1 -6 -1.5 -26.5t-2.5 -31.5q-5 -72 -4 -91l1 -1q0 -1 1.5 -2t3.5 0q4 2 6 4q4 4 11.5 10.5t13.5 12t11 10.5q2 2 6 10l2 3l1 1l19 18l5 9q15 20 23 39l11 20q7 12 19 38q2 6 24 49q11 19 13 27q2 2 3 2q1 1 2.5 -0.5t1.5 -2.5q1 -2 1 -6l-1 -7q-10 -36 -19 -53
q-2 -4 -5.5 -12t-5.5 -12q0 -3 -2 -5q-6 -11 -17 -32.5t-17 -32.5q-3 -7 -11 -19q-1 -1 -2 -3.5t-2 -3.5l-3 -3q-2 -3 -7 -8.5t-10 -11.5q-11 -14 -49 -52q-7 -8 -23 -24q-3 -4 -3 -9q0 -12 1 -19q0 -20 -2 -30q-1 -2 -1 -5t-1 -4q-2 -36 -4 -54q-2 -15 -4 -45q0 -1 -0.5 -4
t-0.5 -5q-6 -26 -8 -35q-1 -4 -14 -39q-7 -12 -18 -16q-7 -2 -9 -7q0 -2 -4 -2zM141 44q18 4 24 9q7 4 19 12q21 14 31 30q2 4 8 10q10 17 14 31q2 9 5.5 27.5t5.5 27.5q1 3 1 9v29q2 14 -9 25q-1 2 -3 4q-27 29 -47 43q-17 12 -32 17q-18 7 -40 2q-31 -9 -49 -24
q-9 -9 -12 -14l-11 -18q-13 -20 -20 -50l-6 -33q-1 -4 -1 -13q1 -4 1.5 -12.5t0.5 -12.5q0 -15 1 -22q2 -26 15 -42q22 -28 59 -34q20 -4 45 -1zM177 -323q26 0 34 21q6 14 7 20q8 40 10 61q1 9 2.5 25.5t1.5 24.5q2 18 2 27q0 4 0.5 10.5t1 12t1.5 10.5v4q0 1 -2 3
q-2 0 -3 -1q-3 -1 -4 -4q-4 -4 -13 -14t-14 -15q-18 -20 -40 -52q-15 -20 -24 -52q-1 -4 -2 -9.5t-1 -6.5l3 -21q1 -18 19 -36q10 -8 21 -8z" />
    <glyph glyph-name="h" unicode="h" horiz-adv-x="313" 
d="M217 0q-13 2 -21 11q-12 14 -15 27q-8 43 -4 70q2 24 2 37q0 10 2 30q1 8 2.5 24.5t2.5 24.5v5q3 11 -1 40q-4 26 -13 38q-1 2 -4 5q-6 6 -13 6q-2 0 -4.5 -0.5t-3.5 -0.5q-12 -4 -27 -13q-3 -2 -7 -6q-2 -3 -11 -16q-6 -10 -21 -26q-9 -10 -19 -27q-5 -6 -12 -18.5
t-9 -15.5l-6 -13q-3 -7 -3 -22q0 -5 -1.5 -13.5t-1.5 -12.5q-3 -43 -3 -44q-1 -6 -1 -18q0 -30 -4 -54q0 -6 -2 -8q-4 -4 -6 0q0 1 -1.5 2.5t-1.5 2.5q0 5 -1.5 19.5t-0.5 22.5v5q0 9 -1 26.5t-1 26.5q0 13 -1 19q-2 12 -2 37q0 87 -1 105v11v63v12q0 13 -1 20q0 4 -0.5 11
t-0.5 11q-1 26 -1 76q0 20 -2 30q-1 4 -1 14q-1 12 -1 37q0 29 -2 44q-1 13 -1 40q0 20 -2 30v15q0 3 2 7q1 2 3.5 2t4.5 -2q2 0 2 -2l3 -9q8 -42 9 -64q0 -16 1 -25v-8q1 -7 1.5 -14.5t1 -17t0.5 -14.5v-7q4 -42 7 -63q7 -91 7 -135v-5q0 -1 3 -67q0 -2 2 -8l2 -1l5 3
q0 1 8 11q13 19 35 37q2 1 5.5 4t4.5 3q4 4 18 12q15 9 42 5q11 -2 18 -7q7 -4 10 -10q16 -31 18 -38q0 -2 1 -3q4 -12 4 -19q0 -3 1.5 -21t-0.5 -21q-7 -40 -10 -55q-1 -4 -1 -12q0 -4 -0.5 -10.5t-1 -12t-1.5 -10.5q-1 -2 0 -12t2 -15q1 -14 2 -18l10 -20q4 -8 12 -16
q8 -6 10 -6q8 -5 17 0q7 4 11 11q29 36 39 80q2 7 6.5 20t5.5 17q0 1 2 3t4 1q7 -2 7 -7l-2 -11q-3 -9 -5 -27q-2 -12 -4 -19q-2 -6 -2 -9q0 -8 -4 -15q-5 -7 -14.5 -23t-14.5 -23q-1 -4 -6 -6q-12 -10 -27 -15q-9 -3 -27 -3z" />
    <glyph glyph-name="i" unicode="i" horiz-adv-x="159" 
d="M-11 390q-13 2 -14 3q-1 0 -6 7q-1 4 6 14q14 7 20 7q5 0 8.5 -4.5t3.5 -9.5q0 -1 -3 -10q-5 -11 -15 -7zM37 -1q-16 2 -27 20q-12 19 -14 30q-2 10 -10.5 143.5t-9.5 137.5q-3 12 0 28q0 6 2 8q4 4 6 4q18 0 18 -1v-5l6 -36q2 -9 5 -121t5 -122l6 -26q0 -6 4 -18
q6 -17 26 -26q12 -6 20 2q20 15 24 22q20 28 28 46q8 12 12 20q2 6 7 18t7 18q4 4 4 6l4 2q11 -5 8 -14q-2 -10 -10 -30q-17 -28 -20 -32q-4 -7 -13 -20t-13 -20q-12 -14 -26 -26q-1 -1 -5.5 -4t-8.5 -4h-35z" />
    <glyph glyph-name="j" unicode="j" horiz-adv-x="160" 
d="M0 521l-10 2q-2 0 -4 4q-1 3 4 8q8 4 14 4q8 0 8 -8q0 -2 -2 -6q-3 -6 -10 -4zM-79 -197q-29 -8 -65 12q-12 6 -23 22q-4 8 -2 13q6 28 13 40q8 12 13 17q10 11 31 32q19 19 30 27q7 6 20 17.5t17 14.5q3 3 6 5.5t7.5 6t6.5 5.5q7 5 7 13q0 3 2 7q4 11 6 42v51v201
q-1 18 -1 53q1 7 0 19.5t-1 16.5q-4 45 2 73v1q1 2 1 3q2 2 3 2q2 0 3 -1q5 -11 9 -14q4 -2 6 -11q0 -3 0.5 -7t0.5 -6v-48l3 -33v-13v-27q1 -20 1 -62v-37q2 -57 -1 -102q-2 -30 -2 -43q-2 -27 -4 -32v-11q0 -2 2 -3t3 0t2 1t1.5 0.5t1.5 0.5l18 14q23 18 53 36q12 8 17 14
q9 10 24 22q12 9 21 21q3 5 16 18q2 2 5 -1q3 -10 1 -19q-5 -14 -15 -24q-5 -4 -15 -14.5t-16 -15.5q-2 -2 -7 -7.5t-8 -8.5q-15 -13 -21 -16q-2 0 -4 -2q-5 -4 -15.5 -10.5t-15.5 -10.5q-4 -3 -44 -32q-9 -6 -11 -18q-2 -10 -4 -32q0 -10 1 -15q2 -15 -1 -34
q-6 -34 -13 -51q-15 -30 -30 -43q-10 -8 -14 -10q-9 -4 -12 -5q-2 -1 -5 -1t-4 -1zM-82 -180q3 0 4 1q29 9 41 28q6 10 11 26q8 31 8 72v23q0 9 -10 5q-6 -2 -8 -4l-18 -14q-4 -3 -13 -9.5t-13 -9.5q-23 -15 -48 -44l-21 -27q-5 -6 -3 -16l1 -7q1 -7 9 -12q1 0 3.5 -1.5
t4.5 -2.5q19 -8 52 -8z" />
    <glyph glyph-name="k" unicode="k" horiz-adv-x="306" 
d="M10 0q-2 -1 -4 0t-2 2q-1 1 -1 2l-1 1v2q-5 28 -5 51v7l-13 542v50q0 14 5 31l2 4l2 4q1 1 3 2t3 0q3 -3 3 -4v-6q0 -38 3 -58q1 -4 1 -12q3 -35 3 -37q1 -3 1 -10v-10q0 -53 5 -106q2 -16 2 -46q0 -27 -3 -41v-7q-2 -72 -1 -108l1 -2v-3l1 -1h3q18 16 25 25q16 21 17 23
q4 5 12.5 14t11.5 12q22 23 65 41q18 6 35 0q8 -3 9 -12q1 -4 -1 -12q-4 -10 -12 -18q-3 -4 -10 -6q-10 -2 -12 9v9q0 2 1 4t1 4q0 1 -1.5 2.5t-2.5 0.5h-3q-30 -15 -40 -24q-2 -2 -8 -7t-9 -8q-16 -13 -25 -29q-3 -5 -13 -17q-4 -6 -34 -52l-2 -3q-10 -13 -1 -26
q7 -10 19 -30l12 -22q3 -6 26 -42q8 -8 13 -12q3 -4 10 -10t9 -8q18 -18 51 -23q20 -3 40 5q13 5 16 7q10 5 17 12q32 35 36 40l7 10q3 6 8 11q8 8 15 24q2 5 11 26q0 1 3 1q2 0 2 -3q0 -15 -6 -27q-9 -22 -17 -33q-3 -5 -24 -37q-21 -26 -45 -43q-16 -12 -36 -12
q-19 0 -28 1q-6 0 -14 2q-4 2 -13.5 5.5t-14.5 5.5q-15 7 -29 21q-28 27 -37.5 39.5t-33.5 51.5q0 2 -3 2q-2 -1 -2 -2q1 -6 1 -19t1 -20q0 -9 2 -27v-58q1 -7 -7 -13z" />
    <glyph glyph-name="l" unicode="l" horiz-adv-x="210" 
d="M85 0q-29 -7 -60 11q-9 7 -13 15q-16 27 -18 59q0 9 -2 29q0 2 -0.5 5t-0.5 4q0 17 -0.5 50.5t-0.5 50.5q1 55 1 82q0 23 2 35q1 6 1 36v18q0 11 -1 17q-1 19 0 38q1 5 1 13.5t1 12.5q0 9 2 25q2 21 -1 37q-3 21 0 42q0 3 1 9t1 9q0 11 1 16q3 24 16 48q9 17 30 29
q5 3 9 3q12 1 30 -6l1 -1q19 -19 20 -34q1 -20 -2 -44q-2 -9 -5.5 -26t-4.5 -24q-6 -29 -15 -57q-3 -8 -7 -24q-5 -25 -19 -54q-10 -19 -11 -23q-6 -12 -8 -18q-3 -8 -7 -13q-6 -6 -6 -17v-18q0 -13 -1 -19q-1 -16 0 -32v-33v-9q0 -17 2 -51q0 -32 2 -48q1 -8 1 -24
q0 -1 1 -16.5t2 -23.5q1 -3 1.5 -10t0.5 -10q0 -13 8 -26t20 -14q38 -7 65 12l5 5q27 31 36 50q16 32 22 49q6 18 23 45q4 6 9 7q2 0 2 -2q2 -3 0 -5q-1 -3 -3.5 -10t-3.5 -11q-8 -20 -9 -22q-9 -28 -22 -52q-11 -22 -22 -34l-9 -12q-8 -11 -21 -22q-6 -4 -10 -5
q-22 -10 -34 -12zM20 393q3 0 3 1q6 13 16 41q6 12 9 26q1 6 14 53l6 26q3 18 9 52q3 15 7 45q3 18 -13 28l-15 6q-7 2 -16 -3q-11 -8 -17 -24q-5 -12 -6 -25q0 -10 -1 -16q-3 -17 -1 -38q1 -4 1 -11q-2 -10 0 -29q1 -5 1 -15v-49v-24v-22q0 -3 0.5 -9t0.5 -9v-1l1 -2z" />
    <glyph glyph-name="m" unicode="m" horiz-adv-x="318" 
d="M19 1q-15 9 -17 19q0 2 -0.5 5t-0.5 4q-1 11 -3.5 133.5t-2.5 139.5q1 6 1.5 18t0.5 15q1 6 2 9.5t3.5 5.5t6.5 -1q4 -2 2 -4q-2 -3 -2 -8q4 -11 6 -44q0 -17 5 -37l3 -2l4 2l3 8q2 5 7 14.5t7 13.5q12 22 26 36l4 4q12 9 29 6q7 -1 12 -10q5 -11 7 -26q1 -4 1 -12
q0 -2 3 -2q2 0 2 1q2 3 7 13t9 14q3 3 5 7q4 10 15 18l4 3q7 5 16 4l4 -3q2 -2 4 -4.5t3 -3.5q7 -7 12 -19q6 -17 6 -37q-1 -9 1 -28q1 -10 1 -32q1 -16 -1 -48q-1 -4 -1 -11q1 -10 1 -29.5t1 -28.5v-28q0 -19 2 -28q2 -10 2 -17q0 -2 2 -8q2 -12 12 -4l6 3q19 18 32 36
q5 6 20.5 43t20.5 54q0 3 3 9q2 3 7 3q4 0 5 -3q2 -4 2 -5q0 -11 -1 -16l-6 -23q0 -5 -3 -8q-14 -29 -18 -37q0 -1 -2 -3q-11 -20 -32 -43l-20 -19q-4 -4 -6 -5q-11 -9 -21 0q-7 5 -10 10q-6 11 -7 13q-12 28 -13 55q0 9 -2 25q0 3 -0.5 7.5t-0.5 6.5v64q0 6 2 16q1 6 1 36
q1 11 1 33t2 33q1 14 -8 26q-6 8 -13 0q-4 -2 -8 -9q-24 -38 -36 -75q-2 -5 -2 -16v-47q1 -6 1 -9q-1 -12 -1 -36q0 -13 -3 -18q-3 -7 -10 -10q-18 -10 -29 11q-7 16 -3 34q5 23 13 42l3 7q3 8 3 14q0 19 -1 28q-2 11 0 23q1 7 1 45v3q0 7 -6 9q-5 1 -9 -3q-18 -19 -27 -38
q-3 -4 -6.5 -11l-5.5 -11q-7 -15 -15 -29q-10 -16 -9 -32q0 -7 0.5 -21t0.5 -21v-1q1 -9 2 -27.5t3 -27.5v-5q0 -14 0.5 -41t0.5 -41q0 -2 -0.5 -5.5t-0.5 -5.5q-2 -7 -9 -5zM100 130q2 2 3 4q1 1 1 3t1 3v15q0 3 -0.5 10t-1.5 10q0 3 -2 1q-1 -2 -2.5 -4t-2.5 -4.5l-3 -7.5
q-2 -7 -2 -21q0 -1 1 -3t1 -3q3 -5 7 -3z" />
    <glyph glyph-name="n" unicode="n" horiz-adv-x="241" 
d="M172 0q-22 0 -37 21q-13 19 -17 37q-12 48 -12 74v36v42v36q0 2 3 32q2 22 2 33q0 12 -6 21q-3 5 -6 2q-3 0 -5 -2q-3 -3 -9 -11l-13 -21q0 -1 -5 -8q-4 -11 -14.5 -30.5t-13.5 -25.5l-15 -34q-2 -4 -2 -14v-55q0 -15 3 -32q7 -45 0 -89v-2q-3 -8 -10 -8t-9 7q-4 8 -6 24
q-1 15 -5 50q-2 20 -2 30l-3 35q0 4 0.5 11t0.5 10l1 77q0 56 1 85q0 2 0.5 6t0.5 7q5 1 6 0q8 -24 8 -38q-1 -23 8 -58l2 -2q3 0 4 1l4 8l9 21q8 19 32 51q11 12 24 19q4 0 8 2q19 2 25 -14q4 -9 4 -23q1 -11 1 -32v-59q1 -6 1 -18q2 -9 2 -28v-27q0 -23 3 -34q1 -2 1 -7
q1 -7 2.5 -23t1.5 -23q2 -12 4 -17q3 -9 8 -12q9 -11 22 -6q2 0 13 6q13 10 21 19q5 7 8 14q1 2 2.5 6t2.5 6q16 56 19 72q2 8 4 12q0 2 3 2q2 -2 2 -3q2 -4 2 -5q0 -23 -2 -34q-5 -17 -6 -33q-1 -13 -10 -27q-5 -8 -15 -26q-2 -3 -6 -7q-5 -3 -21 -19l-5 -5q-8 -4 -14 -3z
" />
    <glyph glyph-name="o" unicode="o" horiz-adv-x="413" 
d="M95 1q-15 0 -34 12l-5 5q-20 13 -31 36q-1 2 -4.5 6.5t-4.5 6.5q-10 11 -17 33q-9 41 -9 71q2 44 20 78q7 13 13 26q4 11 13 20q18 20 29 28q21 15 53 24q11 4 28 2q2 0 3 -1q0 -1 2 -3q0 -3 -2 -3q-3 -3 -5 -4q-5 -1 -13 -3.5t-10 -3.5q-9 -2 -37 -16q-2 -2 -4 -3
q-27 -16 -42 -51q-3 -5 -7.5 -15t-6.5 -15q-9 -20 -8 -40q0 -21 2 -31q0 -10 1 -16q2 -20 4 -31q2 -8 4 -13q1 -3 4.5 -11t5.5 -13q5 -11 16 -26q11 -12 29 -22q10 -5 20 -5q4 0 14 -0.5t14 -0.5q10 0 28 6q32 10 68 39l4 4q8 8 -2 14q-3 1 -11 5q-39 19 -65 50
q-8 10 -15 23l-5 9q-10 16 -14 50q0 9 -2 27q-1 10 0 19q2 10 2 14q2 6 4 10q9 19 25 34q10 8 19 8q18 2 33 -1q5 -1 16 -2.5t16 -2.5h3l2 -1q6 -2 17.5 -5t16.5 -5q10 -4 16 -9q3 -2 5 -5q12 -20 14 -31l3.5 -17.5t3.5 -19.5q5 -33 -3 -57l-21 -59q-1 -3 -4.5 -9t-4.5 -8
l-3 -7q-2 -5 2 -5h2q2 -1 3 -1q40 0 66 25q18 16 26 25q23 23 29 35q11 14 15 20q1 1 5 6t7 7q0 -2 -0.5 -6t-1.5 -6q-17 -38 -25 -51q-5 -10 -6 -11q-10 -8 -20 -24q-2 -4 -12.5 -11.5t-12.5 -7.5q-4 -2 -14 -5.5t-15 -5.5q-8 -3 -24 -5h-28q-5 0 -10 -5q-5 -8 -34 -32
l-26 -17q-5 -2 -14.5 -7t-13.5 -7q-2 -1 -15 -4q-29 -3 -64 -1zM233 99q13 -4 19 6q2 2 4 8q20 44 27 83q4 28 -4 60q-3 12 -7 19q-2 5 -7 8q-16 10 -25 14q-7 3 -20.5 7t-17.5 5q-2 1 -29 6q-6 2 -10 -1q-20 -13 -24 -39q-2 -12 -4 -17q-1 -2 -1 -5q-2 -31 0 -45
q0 -6 3 -12q3 -8 11 -24q17 -28 28 -38q20 -16 31 -24q11 -10 26 -11z" />
    <glyph glyph-name="p" unicode="p" horiz-adv-x="418" 
d="M9 330h1l-1 -1v1zM427 193q1 -2 1 -7l-1 -7q-3 -10 -22 -43l-3 -3q-36 -34 -40 -36q-10 -8 -18 -9q-12 -4 -18 -5q-4 0 -7.5 -1t-8 -2.5l-7.5 -2.5q-26 -5 -33 -4q-9 0 -13 -7q0 -1 -2 -3q-8 -17 -32 -33q-2 -2 -8 -4q-19 -8 -35 -18t-36 -7q-6 1 -18 5q-19 6 -23 6
q-10 4 -15 8q-5 3 -5 9q-6 28 -2 46q4 15 22 33q5 5 19 9q18 4 40 1q13 -3 39 -7q6 -1 17 -2.5t16 -2.5q7 0 11 5q2 2 8 9l9 10.5t6.5 9.5t4.5 11q0 1 3 17q3 18 3 55q0 4 -1 6q-2 11 -12.5 26.5t-20.5 22.5q-9 6 -11 7q-18 10 -41 15q-29 7 -40 4t-33 -7q-28 -4 -57 -26
q-1 -1 -3.5 -4t-3.5 -4q-4 -4 -10 -12.5t-10 -12.5q-4 -8 -4 -12q-2 -10 -1 -15l3 -35q4 -33 5 -46l3 -30q1 -8 1 -26q0 -8 2 -20.5t2 -24.5q0 -8 -0.5 -24t-0.5 -24q0 -20 3 -41v-26q0 -6 -1 -17t-1 -16q0 -64 -3 -95q0 -2 0.5 -6.5t0.5 -6.5q1 -9 1 -54q0 -6 -0.5 -18.5
t-0.5 -18.5q0 -5 -0.5 -10.5t-1.5 -12t-1 -10.5v-2q-2 -7 -3 -7q-4 1 -6 7q-4 18 -4 28v35v52q0 15 -3 30q0 2 -10 217t-11 224q-1 4 -1 29q-3 31 -3 32q-3 15 5 29q0 1 2 5l1 1l3 -3l3 -3q5 -7 5 -15q2 -12 4 -32v-4t1 -5.5t3 -3.5q1 0 12 7q19 15 25 20q16 11 34 19
q32 12 57 17q37 5 54 1l16 -6q5 -2 10 -5q1 -1 11.5 -9.5t16.5 -12.5q12 -10 16 -18q9 -15 10 -17q8 -16 10 -34t2 -28q1 0 0 -7v-7q-2 -16 -2 -23q0 -21 -5 -37q-2 -8 -2 -14q2 -6 7 -6t7 1q8 2 44 16q4 2 7 5q26 18 43 41q10 16 16 23l4 6q1 1 4 1q2 -2 2 -3zM221 72
q4 7 -2 12q-9 7 -20 9q-24 4 -35 7q-13 2 -24 -1q-18 -3 -27 -18q-10 -17 -6 -43q2 -6 6 -7q3 -3 8 -3q8 -1 18 -1h12q23 -3 52 20q3 2 5 5q6 10 10 14z" />
    <glyph glyph-name="q" unicode="q" horiz-adv-x="430" 
d="M284 -353q-11 -2 -20 1q-12 3 -22 13q-9 11 -13 20q-11 24 -16 52t-1 74q1 8 2 17.5t2 20.5t2 17q0 12 3 24q1 8 3.5 25t3.5 27q2 10 4.5 28t3.5 27q2 18 4 25l6 31q1 2 1 6l-1 2q0 1 -1 1q-1 2 -3 0q-1 0 -2.5 -1.5t-2.5 -1.5l-18 -13q-34 -19 -57 -27q-26 -9 -64 -7
l-4 1q-37 11 -57 29q-23 21 -28 27q-11 15 -14 28q-5 17 -5 31q0 33 4 60q2 7 4 25l6 26q6 26 24 42l25 23q13 11 27 17q18 7 21 9q4 2 22 10q10 5 40 9q0 1 5 1l4 -1q16 -2 22 -4q14 0 23 -7q2 -1 6.5 -4t8 -5t6.5 -3q19 -9 34 -31q13 -18 21 -35q10 -20 10.5 -22t-2.5 -25
q-1 -10 -1 -30q0 -2 -1 -7.5t-1 -8.5q-8 -36 -13 -55q-4 -14 -4 -23q-1 -3 -1 -8t-1 -7q-2 -8 -10 -32t-10 -37q-1 -3 -1 -10v-9q-1 -8 -2.5 -24t-2.5 -24q-1 -11 -2.5 -23t-3.5 -26.5t-3 -22.5q-1 -5 -1 -15q0 -8 -2 -24q-3 -16 -1 -48q0 -6 1.5 -17.5t2.5 -17.5
q0 -8 9 -35q4 -14 7 -21q1 -4 5 -10q10 -18 30 -6q8 7 12 14q8 24 10 36q2 8 4 24q3 18 2 33q-1 6 -1 39q-1 20 -1 61q0 12 -1 17q-2 11 -2 52q2 55 24 104l6 14q4 12 8 17q9 13 25 41q26 38 30 44q17 24 19 30l3 3l2 1h3q2 -2 2 -5q0 -5 -3 -9q-6 -11 -20 -33
q-27 -39 -50 -82q-30 -57 -30 -116v-36q0 -10 1 -14q10 -78 8 -94q0 -2 -1 -9.5t0 -11.5q0 -19 -6 -57q-4 -23 -16 -51q-5 -14 -15 -23q-12 -10 -24 -10zM105 35q15 -1 56 7t51 19q5 5 13 17.5t11 16.5q13 18 19 38q4 15 11 35q5 13 8 43.5t1 34.5q-3 6 -16 22l-13 13
q-28 24 -40 27q-13 5 -24 5q-42 2 -78 -12q-41 -18 -74 -87q-17 -36 -14 -67v-32q0 -22 11 -31q5 -4 17 -14.5t17 -14.5q8 -6 22 -12q15 -7 22 -8z" />
    <glyph glyph-name="r" unicode="r" horiz-adv-x="193" 
d="M13 2q-9 5 -11 14q0 5 -2 19t-2 22t-0.5 24t-0.5 24q0 4 -0.5 11.5t-1.5 11.5v18v7q-1 11 0.5 33t0.5 33q-1 6 -1.5 17.5t-0.5 17.5q-1 10 -1 30v32v9.5t-0.5 5.5t0.5 3.5t1.5 3t4.5 4t8 7.5h2q1 0 1 -1q-2 -16 2 -28q4 -28 4 -43q0 -5 1 -7h2h1q1 0 1 1q8 15 24 29
q3 3 20 19q12 11 35 18q2 1 7 1q15 0 21 -13q3 -9 7 -27l3 -21q1 -5 -1 -16q-3 -40 2 -70l3 -13q4 -15 22 -13q14 2 20 9q1 3 5 5q4 3 11 1q6 -2 3 -8q0 -2 -1 -4q-11 -19 -30 -26q-16 -7 -31 -1t-22 21q-5 8 -9 26q-5 28 -5 49v39q0 14 -9 32q0 1 -2.5 2t-3.5 0q-1 0 -2 -1
q-32 -26 -49 -58l-3 -5q-3 -9 -11 -25q-5 -9 -5 -22q1 -22 1 -65l3 -97v-24l-1 -7q-4 -8 -10 -4z" />
    <glyph glyph-name="s" unicode="s" horiz-adv-x="290" 
d="M145 -1q-6 0 -17.5 2.5t-16.5 2.5q-4 0 -10 4q-15 9 -15 27q1 10 9 30q26 39 68 53q3 2 16 7q7 4 5 11v1l-1 1q-2 4 -8.5 18t-11.5 21q-11 14 -21 32q-7 13 -15 23q-4 5 -14.5 19t-17.5 21q-2 4 -18 22q-5 3 -7 -1v-2q-5 -9 -10 -22l-40 -74q-6 -11 -20.5 -31t-20.5 -29
q-6 -10 -11 -15q-6 -6 -6 1q1 16 20 44q16 24 45 82q10 21 28 63q5 14 6 28q0 10 6 10t8 -7l9 -24q5 -15 14 -24l7 -8q18 -24 38 -43q12 -12 17 -22l8 -12q21 -33 32 -59q1 -2 2.5 -4t2 -3.5t2 -3t3 -2t4.5 -0.5q26 6 36 12q8 4 16 12q2 2 6 7t7.5 8.5t7.5 5.5q2 1 4 3
q5 2 7 -3q3 -10 -2 -16q-24 -28 -44 -33q-2 -1 -14 -4.5t-18 -4.5q-7 -3 -5 -10q0 -2 2 -6q0 -3 1 -5q9 -28 0 -58q-2 -9 -9 -15q-3 -4 -10 -11q-13 -13 -32 -16zM135 23h8q31 5 46 23q12 15 14 35q0 7 -1 9l-6 16q-4 9 -12 6q-18 -4 -33 -15q-25 -13 -42 -46q-3 -6 -3 -12
q0 -8 7 -12q8 -6 22 -4z" />
    <glyph glyph-name="t" unicode="t" horiz-adv-x="181" 
d="M80 1q-14 -3 -25 1q-14 4 -27 17q-21 25 -24 63q-1 4 -1 12v11q-2 10 -4 58v19q1 27 0 54v6q-3 12 -3 48q0 12 -2 34l-2 20q0 6 -1 9q0 5 -6 5q-16 2 -23 0h-11q-1 0 -5 2q-1 1 -1 3t1 3q4 2 5 2q9 2 23 4h5q10 1 10 11v13v27q0 9 2 27q3 25 0 52q-1 7 -1 23q-3 49 -4 56
v14l-3 27q-2 13 1 25q4 12 5 19t8 12l12 10q1 1 10 7q10 5 23 2q21 -6 37 -19q5 -3 6 -9q10 -32 9 -49v-16q0 -18 -5 -30q-1 -2 -1 -5t-1 -4q-3 -20 -11 -45l-3 -14q-3 -22 -11 -45q-9 -29 -26 -65q-1 -3 -4 -6q-1 -1 -3.5 -1.5t-3.5 0.5q-1 2 -3 4q-6 11 -3 23q2 8 8 24
q4 10 10 30q1 3 12 46l2.5 7.5t2.5 8.5t1 8q6 24 10 36q3 8 3 16v27q0 5 -5 30q0 4 -3 7q-7 10 -19 16q-6 3 -14 0q-14 -6 -17 -15q-6 -13 -6 -28l7 -96q0 -6 2 -59.5t2 -66.5q0 -15 4 -27q2 -7 9 -7q17 0 25 -1q9 0 11 -8q0 -5 -4 -5q-2 -1 -4 0q-16 2 -25 1h-3l-2 -1
q-4 -1 -6 -7v-3q2 -28 4 -40q2 -43 3 -79.5t2 -59t2 -40.5t1 -26.5t0.5 -15t0.5 -9v-4.5q0 -14 4 -25q5 -15 14 -23q4 -4 20 -5.5t23 3.5q6 6 9 10q12 14 17 21q4 5 10 15q16 30 24 44q1 1 1 2q26 42 31 48l3 2q2 0 2 -4q-21 -50 -32 -69q-7 -9 -13 -22q-7 -14 -18 -28
l-11 -15l-12 -15q-6 -6 -12 -7q-2 -1 -3.5 -2.5t-2.5 -1.5q-6 -2 -7 -2z" />
    <glyph glyph-name="u" unicode="u" horiz-adv-x="305" 
d="M99 5q-18 -9 -36 1q-25 15 -38 42q-10 19 -15 43q0 2 -0.5 6.5t-1.5 6.5l-2 14q-3 21 0 42q2 12 2 18t3 24q0 5 2 15q9 49 17 76q12 36 16 46q2 4 4 7q2 4 6 2t3 -5q0 -4 -1 -5q-15 -54 -19 -74q-2 -3 -2 -11q-2 -12 -6 -84.5t-2 -78.5q3 -9 3 -11q1 -3 3.5 -11t4.5 -12
q11 -22 27 -32q8 -5 15 -5q11 0 17 7q27 29 40 51q4 9 3 17q-2 7 -4 21q-1 10 -1 29v59q0 41 5 71q1 2 1.5 5t0.5 5q1 12 9 38q2 5 9 11.5t12 6.5q6 0 9 -1q22 -5 22 -28q0 -21 -3 -31q-4 -21 -5 -29q-1 -9 -3.5 -26t-3.5 -24q-2 -10 -2 -23l-3 -16l-3 -15t-2 -15
q-1 -10 -8 -22q-3 -9 0 -17q0 -4 1 -6l12 -34q6 -16 16 -27q6 -9 17 -5q21 10 25 14q18 16 27 29q2 3 5.5 8t4.5 6l3 6q21 34 29 77l1 2q0 1 1 1q0 1 1 1t3 -1q1 -2 1 -5v-10q-1 -10 -11 -44l-3 -7q-20 -33 -34 -51q-9 -12 -31 -30q-6 -4 -23 -10q-23 -3 -40 14
q-11 11 -18 24q-1 3 -5 9q-1 2 -2.5 2t-2.5 -2q-3 0 -3 -2q-14 -18 -21 -26q-10 -13 -26 -21zM168 195q4 -2 4 2q0 1 0.5 2t0.5 2q1 2 1 8q0 24 9 48q0 1 1.5 6t1.5 8q5 25 5 30v10q-2 4 -3 7q-8 8 -13 -1t-6 -21q-4 -25 -5 -40q-1 -2 -1 -6q0 -8 0.5 -23.5t0.5 -22.5l1 -7
l1 -1q2 0 2 -1z" />
    <glyph glyph-name="v" unicode="v" horiz-adv-x="262" 
d="M79 5q-22 9 -31 25q-2 5 -6.5 12.5t-6.5 12.5q-10 22 -14 34q-2 9 -24.5 86.5t-25.5 91.5q-7 26 -7 47q0 2 -3 17q0 2 -0.5 5.5t-0.5 5.5q0 5 4 5q6 0 7 -3q0 -2 1 -3q8 -32 11 -48q4 -14 7 -20q2 -7 6.5 -20t7.5 -20l2 -4l2 -4q7 -15 10 -34q0 -7 5 -19q3 -14 16 -50
q0 -2 2 -6q10 -25 15 -53q4 -17 17 -33l1 -1q8 -8 14 0q9 12 12 20q2 4 5.5 12t5.5 12q10 22 14 43q6 26 11 39q5 14 2 26q-2 13 -4 35q-3 16 -7 54q-3 22 0 43q2 13 11 20q4 2 11 9t18 7q6 1 11 -2q11 -6 15 -20q2 -7 2 -20q0 -2 -3 -29q-3 -20 -11 -41q-1 -3 -2 -6.5
t-2 -8t-2 -6.5q0 -2 -3.5 -19.5t-5.5 -26.5q0 -2 -1 -5t-1 -5q-4 -16 7 -30q4 -5 14 -13q5 -5 12 -3q14 3 20 11q20 20 23 24q7 9 25 29q1 1 4 1q1 0 2 -3q2 -3 0 -8q-6 -16 -13 -23q-5 -5 -13.5 -14.5t-12.5 -13.5q-15 -13 -31 -17q-14 -3 -25 4l-12 11q-1 1 -3.5 2.5
t-3.5 2.5t-2.5 0.5t-1.5 -1.5q-2 -4 -2 -5q-7 -13 -9 -23l-21 -48q-10 -20 -14 -29q-10 -17 -28 -9zM150 225h1h2q0 1 2 3q9 28 16 63q0 5 1 9q0 2 -1 5t-1 5q-4 15 -18 9l-6 -3q-2 -2 -4 -6q-5 -16 -4 -29q3 -31 10 -53z" />
    <glyph glyph-name="w" unicode="w" horiz-adv-x="361" 
d="M65 4q-13 6 -23 17q-11 16 -17 33q-10 23 -11 45q0 2 -2 8q-5 42 -5 52v9q-7 33 -6 56l-6 49q-2 7 -2.5 19.5t-1.5 17.5q-3 14 0 27q0 2 2 2h3q0 -1 1.5 -2.5t1.5 -2.5q2 -1 4 -6q8 -45 8 -50q1 -13 5 -37q2 -9 2 -28q0 -16 3 -32q2 -9 4 -29q0 -5 2 -9q3 -9 5.5 -19.5
t5 -23.5t4.5 -20q1 -3 2 -7t2 -7q0 -5 2 -6q7 -14 17 -29q3 -4 9 -7q6 0 10 2q6 4 9 11l12 23q7 14 4 33q-1 1 -4 11q-3 8 -10 37q-3 22 4 42q1 4 3 9t5 11.5t4 9.5q3 6 9 9q3 3 8 3h3q10 -2 13.5 -5t4.5 -12q2 -14 2 -21v-5v-6v-5q1 -26 -7 -56q-4 -18 -10 -33
q-6 -13 -1 -26q3 -12 8 -19q10 -17 28 -12q11 3 17 13q4 8 5 12q12 28 16 42q3 8 6.5 23t4.5 20q2 12 -3 18q-8 14 -16 44q-8 33 -8 60q0 5 0.5 17t0.5 17q0 13 4 22q5 13 15 31q3 7 11 5h2q18 -3 30.5 -15.5t13.5 -29.5q3 -28 -2 -51q-4 -16 -10 -48q-2 -22 -8 -37v-2
q-4 -13 -3 -17.5t10 -15.5q12 -15 32 -15l17 3q2 1 5.5 2t5.5 1q17 4 30 19q20 26 22 28q0 1 1 1.5t2 -0.5q1 0 1 -2v-5q-1 -1 -2.5 -3t-2.5 -3l-7 -13q-6 -13 -21 -22q-8 -6 -14 -10q-13 -8 -33 -11h-6q-20 0 -33 10q-8 6 -10.5 6.5t-4 -1.5t-4.5 -10q-12 -35 -14 -42
t-10 -24q-2 -2 -3.5 -4.5t-3 -5.5l-2.5 -5q-5 -11 -19 -16q-1 -1 -3 -1t-3 -1q-14 -6 -30 2q-14 9 -22 18q-2 4 -4 6q-1 1 -3 0.5t-2 -1.5q-1 -1 -2 -2.5l-2 -3t-2 -3.5q-5 -9 -14 -17q-12 -10 -29 -4zM225 185q1 -1 3 0q2 2 3 7.5t2 6.5q2 22 4 30q1 4 3 30q0 21 -7 39
l-2 4q-2 2 -3 2q-2 2 -6 -2q-4 -9 -5 -11q0 -1 -1.5 -7t-1.5 -10q-4 -42 8 -85q2 -4 3 -4zM123 113q2 -1 3 0.5t2 5.5q0 1 1 5t1 6q0 6 5 41q0 2 0.5 5.5t1.5 5.5q0 11 -2 15q-1 2 -4.5 3t-4.5 -1q-1 0 -1 -1q-17 -22 -13 -43q1 -16 8 -38q2 -4 3 -4z" />
    <glyph glyph-name="x" unicode="x" horiz-adv-x="225" 
d="M-6 0q-6 0 -3 7v1q2 3 28 61q7 22 16 38q0 12 -3 18q-5 7 -12.5 21.5t-9.5 18.5q-15 24 -17 59q-3 41 2 72v14q0 9 5 49l3 7q0 3 6 3q16 -18 11 -36q-3 -5 -1 -12q1 -4 1 -14q0 -2 -0.5 -6t-0.5 -6q0 -13 -2 -45q-1 -2 -1 -7q2 -56 27 -93q1 -2 3 -3.5t3 -3.5q5 -5 6 -3
q11 11 16 20q2 3 14.5 18t16.5 21q12 12 17 27q3 11 9 22q12 40 17 69q0 2 1.5 16.5t1.5 20.5q0 8 6 8l2 -1q7 -13 9 -31q0 -1 -1 -4v-2q-2 -6 -4 -31q-1 -9 -9 -43q-7 -29 -24 -65q-7 -11 -21 -23q-24 -29 -34 -39q-7 -5 0 -10q2 -1 4 -2.5t3 -2.5q5 -5 12 -14t11 -13
q24 -24 37 -29q5 -2 10 0q3 1 5 3t4 3q1 0 2.5 2t3.5 3q3 6 12.5 18.5t13.5 20.5q22 43 30 68l8 12l7 3v-3v-9q-10 -21 -15 -44v-4q-2 -6 -7.5 -16.5t-7.5 -15.5q-6 -20 -15 -31q-3 -2 -6.5 -8t-4.5 -7q-13 -14 -16 -16.5t-26 -13.5q-5 -1 -17 11l-26 24q-9 15 -10 17
q-18 18 -21 20q-4 6 -9 -1q-1 -2 -1 -3q-18 -35 -25 -52q-7 -15 -18 -26q-7 -8 -16 -7z" />
    <glyph glyph-name="y" unicode="y" horiz-adv-x="394" 
d="M174 -339q-22 14 -26 21q-15 26 -9 54q6 22 10 33q1 5 5 14t6 13q8 18 19 34l6 9q9 11 11 28q3 23 3 45v115q0 22 -4 41q-3 3 -5 1l-3 -2q-7 -10 -31 -30q-30 -24 -69 -21q-11 2 -20 6q-19 12 -33 30q-30 36 -37 90q-3 33 -3 65q0 1 -0.5 5t-0.5 6q-3 22 -3 68v48
q0 3 0.5 9t0.5 9q2 8 11 8q8 0 8 -7q0 -5 -0.5 -15t-0.5 -16q0 -27 2 -41q2 -7 0 -21q-3 -27 0 -52q1 -3 1 -9q0 -10 8 -79q5 -32 23 -54q4 -5 14 -13q27 -19 58 -5q34 16 49 39l25 30q8 9 5 21q-2 12 -2 37v22q-1 31 7 71q0 6 3 12q0 2 2.5 10t3.5 13q3 13 20 34q4 4 12 7
q7 1 14 -3q7 -6 10 -12q3 -5 2 -12q0 -3 -0.5 -10t-0.5 -11q0 -5 -0.5 -15t-1 -18.5t-1.5 -15.5q-1 -5 -1.5 -15t-1.5 -15q-2 -10 -10 -35l-15 -38q-4 -10 -7 -14q-6 -8 -6 -23q1 -13 1 -39v-10.5v-12v-9.5v-45q-1 -21 2 -49q1 -10 1 -30l1 -7q1 -1 2 -1h1l5 5
q4 6 12.5 15.5t12.5 15.5q6 7 31 39q25 34 49 78q21 35 37 80q1 1 6 26l6 24q0 2 4 6q2 2 5 1q5 -5 5 -7q2 -6 2 -10q0 -16 -5 -34q-10 -38 -30 -73q-7 -12 -14 -25q-28 -49 -65 -95q-12 -18 -27 -33q-5 -6 -37 -51q-4 -5 -4 -14q0 -38 1 -45q4 -21 0 -43q-1 -9 -1 -28
q0 -21 -1 -31q0 -11 -5 -24q-4 -8 -8 -10q-19 -11 -34 -10zM219 167q3 -2 7 6q1 2 2.5 6.5t2.5 6.5l8 29q6 34 6 52q0 5 0.5 13.5t1 15.5t1.5 14v5q0 2 -2 3.5t-4 -0.5q-3 -1 -7 -5q-12 -20 -14 -33q-4 -28 -4 -41v-27v-39q0 -4 2 -6zM180 -315q11 2 14 12q9 24 8 40
q-4 28 0 41q0 15 -4 37q0 2 -2 2h-2l-10 -15q-5 -8 -19 -44q-5 -15 -7 -35q-1 -12 4 -26q3 -6 8 -10q4 -4 10 -2z" />
    <glyph glyph-name="z" unicode="z" horiz-adv-x="227" 
d="M-17 0q-12 -2 -19 7q-6 11 -2 21q1 3 9 11l6 3q11 6 11 18v17q0 38 4 66q3 25 12 49q1 3 3.5 8.5t3.5 8.5q10 20 16 27q10 15 12 17q18 27 38 45q6 6 9 8q2 4 2 8q1 1 0 2.5t-2 2.5q0 1 -1 1q-30 4 -45 4q-25 2 -43 -13q-6 -3 -7 -3q-1 -1 -5 -1q-3 -1 -5 2.5t0 5.5l2 5
q9 11 23 14q15 5 36 5l28 -3q24 -2 35 -2q12 2 17 7q3 3 8 5q8 6 12 -3q3 -5 0 -8q-3 -5 -6 -6q-9 -8 -17 -17q-12 -11 -35 -34q-18 -19 -32 -43l-10 -18q-18 -26 -23 -50q-5 -40 -5 -46t-2 -18q-2 -7 -7 -44q0 -6 5 -8l18 -6q4 -1 13.5 -3.5t14.5 -4.5q4 -1 20 -8
q2 -1 11 -5q15 -6 32 2q4 1 11 4.5l9 4.5l4 4q2 3 11.5 12.5t13.5 16.5l9 14q14 20 20 30l6 11q17 38 19 48q2 2 2 3h4q5 -3 8 -8q3 -6 0 -11q-1 -1 -8 -19q-2 -5 -6.5 -14.5t-8.5 -17.5t-7 -15q-4 -6 -10 -14q-31 -40 -34 -43q-18 -21 -41 -28q-20 -6 -37 2q-10 4 -14 7
q-8 5 -23 11q-7 2 -21 8l-12 3q-9 2 -9 -6q-2 -6 -2 -10l-3 -9q-2 -6 -6 -7q-1 0 -10 -3zM-26 17h1h3q3 3 3 10l-3 1q-4 -1 -5 -4.5t1 -6.5z" />
    <glyph glyph-name="braceleft" unicode="{" horiz-adv-x="202" 
d="M127 0q-25 0 -47 12q-15 8 -25 17q-29 24 -28 58q1 3 1 8t1 7q2 22 6 41q5 28 5 51q0 11 1 16q6 38 -2 78q-2 13 -8 39l-6 18q-5 11 -14 14q-1 0 -5 2q-5 3 -5 8q-3 11 4 21q8 9 27 50q10 24 7 52q-2 17 -4 47q-2 15 -4 45q-2 37 12 63q18 34 48 45q1 0 1 0.5t1 0.5
q19 9 40 3q8 -2 5 -5q-1 -3 -4 -4q-11 -5 -22 -6q-25 -3 -37 -23q-10 -15 -11 -17q-12 -19 -11 -39l6 -63q0 -2 0.5 -7.5t0.5 -8.5q2 -14 2 -23q2 -8 2 -12q4 -45 -23 -85q-2 -3 -4.5 -6.5t-5.5 -8t-5 -6.5q-3 -4 0 -9q1 -2 5 -6q16 -24 26 -57l9 -37q3 -18 3 -37
q0 -26 -2 -39q-2 -14 -2 -42q0 -23 -8 -42q-5 -15 -5 -37q2 -17 11 -31q5 -6 11 -11q19 -12 37 -12q24 -2 41 1q22 4 48 1l2 -2q0 -1 -1 -1q-2 -2 -7.5 -5.5t-6.5 -4.5q-7 -5 -13 -5z" />
    <glyph glyph-name="bar" unicode="|" horiz-adv-x="539" 
d="M234 832h72v-998h-72v998zM172 622zM170 896zM234 -268z" />
    <glyph glyph-name="braceright" unicode="}" horiz-adv-x="198" 
d="M61 10q-6 2 -6 5q3 3 5 4q10 5 22 5q26 5 37 23q8 12 11 17q13 18 12 40q-4 38 -5 62q0 2 -1 7.5t0 8.5q-2 14 -2 23q-2 8 -2 12q-4 44 24 85l16 21q2 3 -1 9q-2 4 -4 5q-15 22 -26 58q-5 22 -8 37q-4 26 -3 37q0 26 3 39q2 14 2 42q0 23 8 42q4 9 6 37q-1 16 -10 31
l-5 5q-4 5 -7 7q-22 12 -36 12q-24 2 -42 -1q-24 -5 -48 0q0 1 -1 2q0 1 1 1q1 1 6.5 4.5t7.5 5.5q9 5 12 4l48 6q23 0 46 -12q17 -10 25 -18q29 -24 28 -59q-2 -5 -2 -15q-1 -14 -7 -40q-5 -21 -5 -51q0 -6 -2 -16q-6 -36 1 -78q1 -7 3.5 -20t3.5 -19q1 -3 3.5 -9t3.5 -9
q4 -12 14 -14q2 -2 5 -2q3 -3 5 -9q2 -8 -4 -21q-7 -8 -29 -49q-10 -28 -7 -52l3 -47q2 -15 4 -45q2 -35 -13 -63q-18 -34 -48 -45h-3q-18 -10 -39 -3z" />
    <glyph glyph-name="asciitilde" unicode="~" horiz-adv-x="456" 
d="M279 221q-24 1 -45 12q-33 14 -41 19q-34 20 -77 26q-28 4 -62 -6q-15 -3 -26 -16l-15 -15q-3 -3 -7 -3q-3 0 -5 2q-1 1 -1 5q0 3 2 5q11 12 26 24q9 7 21 10q39 11 66 7q29 -3 49 -11q13 -4 17 -5q12 -4 25 -12q5 -3 24 -13q41 -19 85 -2q15 7 24 13l34 19q22 12 44 22
l32 15q1 1 3.5 1t3.5 1q-1 -8 -11 -18l-29 -24q-1 -1 -4 -3t-5 -4q-25 -15 -46 -29q-36 -23 -82 -20z" />
    <glyph glyph-name="uni007F" 
 />
    <glyph glyph-name="exclamdown" unicode="&#xa1;" horiz-adv-x="269" 
d="M104 330h58l25 -512h-108zM196 478q0 -33 -16 -50t-46 -17t-46 17t-16 50q0 32 16.5 50t45.5 18t45.5 -17.5t16.5 -50.5z" />
    <glyph glyph-name="cent" unicode="&#xa2;" horiz-adv-x="368" 
d="M162 -33l-6 11q-1 2 -3 7.5t-3 8.5q-2 4 -9 6q-10 0 -16 -1q-34 -1 -59 24q-9 8 -21 26q-14 26 -21 45q-6 19 -6 23q0 2 -6 35q-2 6 -2 10q0 9 -1 19t-2.5 21.5t-2.5 18.5q-2 11 -4 33v21q4 29 7 47q2 14 7.5 42t8.5 42q7 39 18 78q1 2 2.5 6.5t2.5 6.5l22 42q5 10 16 23
q13 16 30 23q2 2 8 4.5t8 3.5q3 2 5 7v10q1 7 1 20q0 14 7 32q1 3 4 3q1 0 4 -3q3 -9 3 -19q0 -2 -0.5 -7t-1.5 -7q0 -3 -0.5 -9t-0.5 -9q0 -11 12 -10q22 3 44 -8l22 -11q5 -3 13 -9.5t10 -8.5q4 -4 4 -11q0 -3 -2 -5t-7 0q-1 0 -3 2t-3 4q-4 8 -21 18q-12 7 -45 13
q-7 1 -17 -2q-6 -1 -6 -7q-1 -2 -1 -7v-35v-11v-40q0 -4 1 -12t1 -12q0 -7 -2 -25v-31q0 -2 1 -3q2 -14 2 -40v-32q0 -11 -2 -35q-3 -20 -1 -45q3 -42 3 -82v-6t1 -5q2 -14 0 -42q-2 -11 0 -22q2 -10 2 -30q0 -10 4 -28q2 -6 8 -4q3 0 7 2q41 15 64 31q23 15 63 34
q29 14 46 27l16 10q1 0 2 -1q2 0 0 -2q-17 -23 -43 -38q-23 -12 -49 -30q-15 -9 -43 -27q-12 -7 -36 -17q-2 -1 -6.5 -3t-8 -3.5t-6.5 -2.5q-7 -3 -7 -12l3 -12q0 -1 0.5 -4.5t0.5 -5.5q1 -4 -3 -8q-1 -1 -3.5 -1t-3.5 1zM121 20l16 3q5 0 5 6q0 4 -1 6q-1 4 -2 12t-2 12
q-5 46 -5 52q0 10 -1 15q-2 18 -2 26q0 2 -0.5 7t-1.5 7q-1 8 -1 25q-1 9 -1.5 37.5t-2.5 44.5q0 50 2 64q1 8 1 25q1 9 1 27v27q0 12 1 19q0 3 0.5 11t0.5 11q1 14 1 42q0 3 0.5 9t0.5 9l3 31h-1v21q0 3 -3 4.5t-5 -0.5l-9 -6q-4 -3 -12.5 -10t-12.5 -11q-5 -3 -6 -7
q-8 -14 -9 -16q-10 -24 -14 -36q-2 -5 -4 -15l-12 -80q-1 -10 -3.5 -29t-3.5 -28q0 -1 -1 -5t-1 -5q-8 -34 -8 -64v-11q4 -26 5 -39q4 -28 5 -42q1 -21 8 -46q8 -29 24 -59q10 -16 23 -28q9 -9 22 -14q4 -2 6 -2z" />
    <glyph glyph-name="sterling" unicode="&#xa3;" horiz-adv-x="571" 
d="M334 723q93 0 177 -41l-31 -70q-82 38 -144 38q-57 0 -87 -29.5t-30 -95.5v-139h204v-66h-204v-104q0 -47 -15.5 -80.5t-52.5 -55.5h384v-80h-503v74q99 23 99 141v105h-96v66h96v148q0 88 55 138.5t148 50.5z" />
    <glyph glyph-name="currency" unicode="&#xa4;" horiz-adv-x="571" 
d="M90 353q0 57 35 110l-66 68l49 47l66 -64q49 35 112 35q59 0 110 -35l67 64l48 -47l-64 -67q35 -54 35 -111q0 -63 -35 -112l63 -66l-47 -47l-67 64q-50 -34 -110 -34q-64 0 -112 35l-66 -64l-48 47l65 66q-35 53 -35 111zM157 353q0 -54 37.5 -91.5t91.5 -37.5t92 37
t38 92q0 56 -38 93.5t-92 37.5t-91.5 -38t-37.5 -93z" />
    <glyph glyph-name="yen" unicode="&#xa5;" horiz-adv-x="290" 
d="M151 0q-10 -7 -14 4q-8 21 -11 41l-5 47q-1 4 -1 13q-3 18 -1 56q1 5 1 16q1 45 1 135v11q0 14 -13 14q-6 0 -16.5 0.5t-15.5 0.5q-9 0 -13 1q-11 2 -15 10q-4 6 3 8q30 6 50 8q6 0 9 1q6 0 6 6q4 21 -3 37q-2 4 -6 4q-4 1 -13 1l-12 -2q-24 0 -44 -3q-9 -1 -18 0
q-10 0 -13 11q-2 7 4 9l7 3q30 8 46 11q8 2 22 4q2 1 5 1t4 1q7 4 3 11q-6 8 -7 15q0 1 -1 3q-24 54 -32 66q-4 5 -10 15q-4 6 -10 18q-1 3 -3.5 7.5t-4 8t-3.5 6.5l-8 17q-6 16 -10 24l-3 9q-2 13 -6 27v4q0 4 4 4q14 0 22 -11q7 -10 8 -19q2 -10 13 -33q7 -13 19 -41
q12 -23 30 -49q5 -7 18 -31q2 -3 6 -11q7 -11 14 0q10 13 16 23q3 5 7 15l12 24q37 57 40 61q7 9 18.5 27t16.5 24q11 16 25 27l5 3q10 6 14 -5q4 -7 1 -14q-1 -2 -8 -16.5t-12 -21.5l-6 -8q-4 -9 -22 -37q-2 -3 -6 -11q-3 -7 -11 -19q-9 -10 -14 -27q-5 -14 -13 -22
q-5 -7 -10 -16q-2 -3 -13 -22q-5 -8 -5 -14q-2 -6 5 -8h2q2 -1 3 -1l55 -9h2q14 -3 6 -14q0 -1 -2 -2.5t-2 -2.5q-4 -6 -13 -6q-4 1 -13 1t-13 1q-14 2 -28 0q-3 0 -7 -2q-8 -2 -8 -9q0 -20 1 -30q0 -7 8 -9q5 -1 15 -2.5t15 -1.5q21 -2 37 -7q25 -8 42 -10q3 0 9 -2
q3 0 3 -4l-4 -4q-14 -6 -35 -3q-2 0 -6 1t-7 1q-21 5 -41 2q-4 -1 -11.5 -1.5t-10.5 -0.5h-7q-7 -2 -7 -8q-1 -12 0 -24q4 -23 0 -47q0 -2 -0.5 -5.5t-0.5 -5.5q0 -11 -0.5 -34t-0.5 -35q0 -11 0.5 -34.5t0.5 -35.5q0 -10 5 -53q4 -22 -4 -47q-2 -5 -6 -8z" />
    <glyph glyph-name="brokenbar" unicode="&#xa6;" horiz-adv-x="550" 
d="M239 760h73v-381h-73v381zM239 140h73v-381h-73v381z" />
    <glyph glyph-name="section" unicode="&#xa7;" horiz-adv-x="513" 
d="M67 395q0 42 21 75t58 51q-36 20 -56 47t-20 68q0 60 50.5 94.5t146.5 34.5q45 0 82 -7t89 -27l-27 -67q-47 19 -80.5 26t-69.5 7q-56 0 -82.5 -14.5t-26.5 -44.5q0 -27 28 -47.5t104 -47.5q89 -33 126 -70t37 -90q0 -88 -75 -133q74 -39 74 -110q0 -69 -57.5 -107
t-160.5 -38t-169 33v75q42 -19 88.5 -30t84.5 -11q62 0 96 18t34 53q0 30 -26 49t-103 49q-96 36 -131 72.5t-35 91.5zM142 405q0 -25 13 -43.5t43 -35.5t109 -47q64 37 64 91q0 40 -34 66.5t-123 54.5q-32 -9 -52 -33t-20 -53z" />
    <glyph glyph-name="dieresis" unicode="&#xa8;" horiz-adv-x="580" 
d="M149 681q0 26 13.5 37.5t33.5 11.5q19 0 33 -11.5t14 -37.5t-14 -38t-33 -12q-20 0 -33.5 12t-13.5 38zM337 681q0 26 13.5 37.5t32.5 11.5t33 -11.5t14 -37.5t-14 -38t-33 -12t-32.5 12t-13.5 38z" />
    <glyph glyph-name="copyright" unicode="&#xa9;" horiz-adv-x="832" 
d="M436 515q-58 0 -91 -41.5t-33 -116.5q0 -77 28.5 -118t94.5 -41q46 0 105 23v-64q-29 -13 -53 -18.5t-56 -5.5q-94 0 -145.5 58.5t-51.5 165.5q0 102 54 162.5t147 60.5q63 0 123 -30l-29 -61q-52 26 -93 26zM49 357q0 98 48.5 183t134 134.5t184.5 49.5q98 0 183.5 -49
t134.5 -134t49 -184q0 -96 -47.5 -180.5t-132.5 -135.5t-187 -51q-101 0 -186.5 50.5t-133 135t-47.5 181.5zM102 357q0 -84 42 -157t115 -115t157 -42t157 42t115 115t42 157t-42 156.5t-115 115t-157 42.5t-156.5 -42t-115 -115t-42.5 -157z" />
    <glyph glyph-name="ordfeminine" unicode="&#xaa;" horiz-adv-x="356" 
d="M261 389l-12 42q-46 -48 -114 -48q-47 0 -75 24.5t-28 74.5t38.5 76t119.5 29l56 2v22q0 30 -19 44.5t-52 14.5q-49 0 -101 -26q-13 30 -22 49q60 29 125 29t98 -27t33 -86v-220h-47zM96 482q0 -48 54 -48q96 0 96 87v23l-48 -2q-54 -2 -78 -16t-24 -44z" />
    <glyph glyph-name="guillemotleft" unicode="&#xab;" horiz-adv-x="508" 
d="M40 270l168 201l63 -36l-140 -171l140 -171l-63 -37l-168 201v13zM238 270l170 201l62 -36l-140 -171l140 -171l-62 -37l-170 201v13z" />
    <glyph glyph-name="logicalnot" unicode="&#xac;" horiz-adv-x="571" 
d="M520 388v-260h-71v189h-399v71h470z" />
    <glyph glyph-name="uni00AD" unicode="&#xad;" horiz-adv-x="321" 
d="M40 229v78h242v-78h-242z" />
    <glyph glyph-name="registered" unicode="&#xae;" horiz-adv-x="832" 
d="M355 373h50q40 0 61.5 19.5t21.5 51.5q0 36 -20 51.5t-64 15.5h-49v-138zM565 446q0 -41 -21 -70.5t-57 -43.5l116 -194h-86l-100 173h-62v-173h-76v437h128q82 0 120 -32t38 -97zM49 357q0 98 48.5 183t134 134.5t184.5 49.5q98 0 183.5 -49t134.5 -134t49 -184
q0 -96 -47.5 -180.5t-132.5 -135.5t-187 -51q-101 0 -186.5 50.5t-133 135t-47.5 181.5zM102 357q0 -84 42 -157t115 -115t157 -42t157 42t115 115t42 157t-42 156.5t-115 115t-157 42.5t-156.5 -42t-115 -115t-42.5 -157z" />
    <glyph glyph-name="macron" unicode="&#xaf;" horiz-adv-x="339" 
d="M409 191q5 -3 5 -10t-10 -9h-3l-2 -1q-54 -9 -93 -5q-11 1 -31 1h-85h-3l-11 3q-2 1 -9 1h-23v-1h-14h-68q-14 0 -22 10q-1 1 0 4t2 4q6 2 8 2q6 0 18 1.5t19 2.5q14 1 42 3.5t42 3.5q8 1 -8 1q13 0 20 1q15 3 90 5q1 0 37 3q7 0 21 0.5t21 0.5q21 1 40 -10q2 -1 8 -5z
" />
    <glyph glyph-name="degree" unicode="&#xb0;" horiz-adv-x="428" 
d="M60 570q0 66 45 110t109 44q65 0 109.5 -45t44.5 -109t-45 -108.5t-109 -44.5q-63 0 -108.5 44t-45.5 109zM120 570q0 -39 28 -66.5t67 -27.5q40 0 66.5 28t26.5 66q0 39 -27 66.5t-66 27.5t-67 -27t-28 -67z" />
    <glyph glyph-name="plusminus" unicode="&#xb1;" horiz-adv-x="571" 
d="M321 391h199v-71h-199v-206h-72v206h-199v71h199v207h72v-207zM50 0v71h470v-71h-470z" />
    <glyph glyph-name="uni00B2" unicode="&#xb2;" horiz-adv-x="350" 
d="M306 286h-282v54l115 112q62 60 79.5 87.5t17.5 61.5q0 32 -18.5 48t-48.5 16t-54.5 -11.5t-50.5 -31.5l-35 46q65 55 141 55q64 0 100.5 -32t36.5 -86q0 -22 -6 -41.5t-18.5 -39.5t-33 -42.5t-138.5 -133.5h195v-62z" />
    <glyph glyph-name="uni00B3" unicode="&#xb3;" horiz-adv-x="350" 
d="M308 613q0 -74 -74 -102q87 -21 87 -102q0 -62 -45 -96.5t-128 -34.5q-74 0 -131 28v63q69 -34 132 -34q100 0 100 76q0 69 -110 69h-57v55h57q50 0 73.5 19t23.5 51q0 29 -19 45t-51 16q-51 0 -111 -38l-36 46q36 27 71 38t75 11q66 0 104.5 -29.5t38.5 -80.5z" />
    <glyph glyph-name="acute" unicode="&#xb4;" horiz-adv-x="580" 
d="M189 618q19 23 47.5 66.5t47.5 81.5h106v-10q-21 -31 -66.5 -78.5t-76.5 -71.5h-58v12z" />
    <glyph glyph-name="mu" unicode="&#xb5;" horiz-adv-x="623" 
d="M173 190q0 -127 120 -127q83 0 120 45.5t37 148.5v279h88v-536h-71l-14 72h-5q-53 -82 -161 -82q-71 0 -115 45h-4q5 -36 5 -119v-156h-88v776h88v-346z" />
    <glyph glyph-name="paragraph" unicode="&#xb6;" horiz-adv-x="654" 
d="M549 -127h-58v831h-102v-831h-58v400q-30 -9 -71 -9q-105 0 -155 61t-50 184q0 127 53.5 189t166.5 62h274v-887z" />
    <glyph glyph-name="periodcentered" unicode="&#xb7;" horiz-adv-x="102" 
d="M53 221q-28 0 -40 19q-2 3 -5 9t-4 7q-10 18 2 38q6 11 16 18q12 11 28 6q23 -8 30 -19l15 -20q4 -6 6 -14q2 -6 -1 -11q-13 -23 -39 -32q-3 -1 -8 -1z" />
    <glyph glyph-name="cedilla" unicode="&#xb8;" horiz-adv-x="225" 
d="M212 -139q0 -48 -37 -74.5t-111 -26.5q-32 0 -50 5v55q18 -5 53 -5q37 0 55.5 9.5t18.5 34.5q0 43 -91 55l43 86h58l-26 -53q87 -19 87 -86z" />
    <glyph glyph-name="uni00B9" unicode="&#xb9;" horiz-adv-x="350" 
d="M167 714h73v-428h-71v276q0 33 4 89q-15 -14 -26.5 -23t-74.5 -55l-35 49z" />
    <glyph glyph-name="ordmasculine" unicode="&#xba;" horiz-adv-x="375" 
d="M345 553q0 -80 -42 -125t-116 -45q-71 0 -113 45t-42 125q0 81 41 125t116 44q73 0 114.5 -44.5t41.5 -124.5zM95 553q0 -59 21.5 -88t71.5 -29q49 0 71 29t22 88t-22 87.5t-71 28.5t-71 -28.5t-22 -87.5z" />
    <glyph glyph-name="guillemotright" unicode="&#xbb;" horiz-adv-x="508" 
d="M469 257l-170 -201l-62 37l140 171l-140 171l62 36l170 -201v-13zM270 257l-169 -201l-62 37l140 171l-140 171l62 36l169 -201v-13z" />
    <glyph glyph-name="onequarter" unicode="&#xbc;" horiz-adv-x="790" 
d="M736 96h-61v-96h-75v96h-195v52l197 283h73v-275h61v-60zM600 156v93q0 52 3 101q-4 -9 -48 -77l-80 -117h125zM323 1v1l-1 2q0 4 2 8q3 5 8 17t8 18q4 7 10 19.5t11.5 22.5t11.5 18q15 21 43 63q10 13 15 25q6 11 17.5 31t21 36.5t18.5 31.5q5 7 8 14q10 20 17 30
q5 8 6 11q4 10 13.5 27t11.5 21q16 30 22 46q0 1 1.5 4.5t2.5 5.5q9 15 37 70l13 24l14 28q12 26 16 32l9 18q14 32 35 61q8 10 14 14h3v-3q-7 -10 -38 -76q-3 -7 -12 -26.5t-14 -29.5q-14 -31 -19 -39q-3 -5 -7.5 -15t-6.5 -15q-2 -3 -15 -32.5t-21 -43.5q-7 -13 -11 -25
q-6 -16 -22 -46q-2 -3 -10 -19q-9 -22 -21 -42l-6 -12q-8 -22 -27 -54q-2 -2 -2 -4l-36 -66q-16 -28 -26 -40q-17 -21 -41 -57q-7 -12 -8 -14q-10 -19 -28 -31l-15 -9h-2zM165 714h73v-428h-71v276q0 33 4 89q-15 -14 -26.5 -23t-74.5 -55l-35 49z" />
    <glyph glyph-name="onehalf" unicode="&#xbd;" horiz-adv-x="790" 
d="M293 1v1l-1 2q0 4 2 8q3 5 8 17t8 18q4 7 10 19.5t11.5 22.5t11.5 18q15 21 43 63q10 13 15 25q6 11 17.5 31t21 36.5t18.5 31.5q5 7 8 14q10 20 17 30q5 8 6 11q4 10 13.5 27t11.5 21q16 30 22 46q0 1 1.5 4.5t2.5 5.5q9 15 37 70l13 24l14 28q12 26 16 32l9 18
q14 32 35 61q8 10 14 14h3v-3q-7 -10 -38 -76q-3 -7 -12 -26.5t-14 -29.5q-14 -31 -19 -39q-3 -5 -7.5 -15t-6.5 -15q-2 -3 -15 -32.5t-21 -43.5q-7 -13 -11 -25q-6 -16 -22 -46q-2 -3 -10 -19q-9 -22 -21 -42l-6 -12q-8 -22 -27 -54q-2 -2 -2 -4l-36 -66q-16 -28 -26 -40
q-17 -21 -41 -57q-7 -12 -8 -14q-10 -19 -28 -31l-15 -9h-2zM152 714h73v-428h-71v276q0 33 4 89q-15 -14 -26.5 -23t-74.5 -55l-35 49zM727 0h-282v54l115 112q62 60 79.5 87.5t17.5 61.5q0 32 -18.5 48t-48.5 16t-54.5 -11.5t-50.5 -31.5l-35 46q65 55 141 55
q64 0 100.5 -32t36.5 -86q0 -22 -6 -41.5t-18.5 -39.5t-33 -42.5t-138.5 -133.5h195v-62z" />
    <glyph glyph-name="threequarters" unicode="&#xbe;" horiz-adv-x="790" 
d="M772 96h-61v-96h-75v96h-195v52l197 283h73v-275h61v-60zM636 156v93q0 52 3 101q-4 -9 -48 -77l-80 -117h125zM367 1v1l-1 2q0 4 2 8q3 5 8 17t8 18q4 7 10 19.5t11.5 22.5t11.5 18q15 21 43 63q10 13 15 25q6 11 17.5 31t21 36.5t18.5 31.5q5 7 8 14q10 20 17 30
q5 8 6 11q4 10 13.5 27t11.5 21q16 30 22 46q0 1 1.5 4.5t2.5 5.5q9 15 37 70l13 24l14 28q12 26 16 32l9 18q14 32 35 61q8 10 14 14h3v-3q-7 -10 -38 -76q-3 -7 -12 -26.5t-14 -29.5q-14 -31 -19 -39q-3 -5 -7.5 -15t-6.5 -15q-2 -3 -15 -32.5t-21 -43.5q-7 -13 -11 -25
q-6 -16 -22 -46q-2 -3 -10 -19q-9 -22 -21 -42l-6 -12q-8 -22 -27 -54q-2 -2 -2 -4l-36 -66q-16 -28 -26 -40q-17 -21 -41 -57q-7 -12 -8 -14q-10 -19 -28 -31l-15 -9h-2zM307 613q0 -74 -74 -102q87 -21 87 -102q0 -62 -45 -96.5t-128 -34.5q-74 0 -131 28v63
q69 -34 132 -34q100 0 100 76q0 69 -110 69h-57v55h57q50 0 73.5 19t23.5 51q0 29 -19 45t-51 16q-51 0 -111 -38l-36 46q36 27 71 38t75 11q66 0 104.5 -29.5t38.5 -80.5z" />
    <glyph glyph-name="questiondown" unicode="&#xbf;" horiz-adv-x="434" 
d="M294 330v-26q0 -57 -18 -93.5t-67 -77.5q-65 -54 -82 -81t-17 -68q0 -47 31 -73.5t89 -26.5q78 0 161 43l31 -71q-97 -48 -195 -48q-95 0 -148.5 45.5t-53.5 128.5q0 36 9.5 63.5t29.5 52.5t79 75q50 44 65 71t15 70v16h71zM317 478q0 -67 -62 -67q-30 0 -45.5 17.5
t-15.5 49.5q0 36 17.5 52t43.5 16t44 -16t18 -52z" />
    <glyph glyph-name="Agrave" unicode="&#xc0;" horiz-adv-x="639" 
d="M124 5q-5 0 -7 2q-5 8 -5 9q-4 8 -6 19q-4 46 -4 70q0 20 -1 30v15q-1 4 -1 13.5t-1 14.5v6q0 14 -7 91q0 1 -1 4t-1 5q-2 6 -9 6q-1 0 -4 -0.5t-5 -0.5q-5 -1 -13.5 -3.5t-11.5 -3.5q-16 -6 -23 -8q-15 -4 -15 3q-1 6 11 11q1 1 2 1q22 9 45 15q10 2 15 4q6 4 7 9
q0 2 0.5 6.5t0.5 6.5l3 57q2 24 7 44l9 33q4 16 11 31q5 11 14.5 32t10.5 24q9 23 22 44q22 40 39 63q11 15 34 32q7 5 14 5q19 6 27 -14q3 -6 8 -29q4 -44 9 -504q1 -12 5 -33t5 -26q3 -10 12 -26q1 -3 5 -9q13 -21 34 -21q2 0 4.5 -0.5t3.5 -0.5q33 3 56 22q31 25 46 47
q18 26 22 32q17 22 18 22q0 -1 -1 -2q0 -1 -1 -3.5t-1 -3.5q-29 -51 -33 -56q-21 -31 -41 -46q-26 -21 -55 -25q-30 -5 -53 15q-15 13 -23 27q-6 12 -7 18q-3 8 -10 34q-9 49 -10 81q-2 55 0 74q0 23 -2 34l-1 7q-1 3 -7 6q-4 2 -7 2t-10 0.5t-11 0.5q-68 -5 -76 -7t-26 -4
q-4 -1 -12 -5q-1 -1 -3 -5v-9q2 -20 4 -30q1 -8 1 -24q0 -10 -1 -31t-1 -32q0 -9 1 -28t1 -28q1 -9 1 -27q-1 -37 3 -76q0 -6 -4 -7zM126 318q10 2 13 2q11 2 80 10q30 4 44 4q9 0 9 7q0 8 1 11l-2 281q0 18 -3 33q-1 4 -5 12q-7 7 -14 3q-12 -9 -23 -24q-16 -22 -42 -66
l-15 -27q-15 -32 -39 -100q-12 -33 -13 -61q-2 -11 0 -23q3 -16 1 -37v-19q0 -3 3 -5t5 -1zM364 771h-59q-37 29 -80.5 76t-61.5 74v10h105q16 -32 44.5 -76.5t51.5 -71.5v-12z" />
    <glyph glyph-name="Aacute" unicode="&#xc1;" horiz-adv-x="639" 
d="M124 5q-5 0 -7 2q-5 8 -5 9q-4 8 -6 19q-4 46 -4 70q0 20 -1 30v15q-1 4 -1 13.5t-1 14.5v6q0 14 -7 91q0 1 -1 4t-1 5q-2 6 -9 6q-1 0 -4 -0.5t-5 -0.5q-5 -1 -13.5 -3.5t-11.5 -3.5q-16 -6 -23 -8q-15 -4 -15 3q-1 6 11 11q1 1 2 1q22 9 45 15q10 2 15 4q6 4 7 9
q0 2 0.5 6.5t0.5 6.5l3 57q2 24 7 44l9 33q4 16 11 31q5 11 14.5 32t10.5 24q9 23 22 44q22 40 39 63q11 15 34 32q7 5 14 5q19 6 27 -14q3 -6 8 -29q4 -44 9 -504q1 -12 5 -33t5 -26q3 -10 12 -26q1 -3 5 -9q13 -21 34 -21q2 0 4.5 -0.5t3.5 -0.5q33 3 56 22q31 25 46 47
q18 26 22 32q17 22 18 22q0 -1 -1 -2q0 -1 -1 -3.5t-1 -3.5q-29 -51 -33 -56q-21 -31 -41 -46q-26 -21 -55 -25q-30 -5 -53 15q-15 13 -23 27q-6 12 -7 18q-3 8 -10 34q-9 49 -10 81q-2 55 0 74q0 23 -2 34l-1 7q-1 3 -7 6q-4 2 -7 2t-10 0.5t-11 0.5q-68 -5 -76 -7t-26 -4
q-4 -1 -12 -5q-1 -1 -3 -5v-9q2 -20 4 -30q1 -8 1 -24q0 -10 -1 -31t-1 -32q0 -9 1 -28t1 -28q1 -9 1 -27q-1 -37 3 -76q0 -6 -4 -7zM126 318q10 2 13 2q11 2 80 10q30 4 44 4q9 0 9 7q0 8 1 11l-2 281q0 18 -3 33q-1 4 -5 12q-7 7 -14 3q-12 -9 -23 -24q-16 -22 -42 -66
l-15 -27q-15 -32 -39 -100q-12 -33 -13 -61q-2 -11 0 -23q3 -16 1 -37v-19q0 -3 3 -5t5 -1zM257 783q19 23 47.5 66.5t47.5 81.5h106v-10q-21 -31 -66.5 -78.5t-76.5 -71.5h-58v12z" />
    <glyph glyph-name="Acircumflex" unicode="&#xc2;" horiz-adv-x="639" 
d="M146 782q61 65 86 96.5t37 52.5h90q25 -49 125 -149v-11h-62q-44 26 -109 90q-64 -62 -107 -90h-60v11zM124 5q-5 0 -7 2q-5 8 -5 9q-4 8 -6 19q-4 46 -4 70q0 20 -1 30v15q-1 4 -1 13.5t-1 14.5v6q0 14 -7 91q0 1 -1 4t-1 5q-2 6 -9 6q-1 0 -4 -0.5t-5 -0.5
q-5 -1 -13.5 -3.5t-11.5 -3.5q-16 -6 -23 -8q-15 -4 -15 3q-1 6 11 11q1 1 2 1q22 9 45 15q10 2 15 4q6 4 7 9q0 2 0.5 6.5t0.5 6.5l3 57q2 24 7 44l9 33q4 16 11 31q5 11 14.5 32t10.5 24q9 23 22 44q22 40 39 63q11 15 34 32q7 5 14 5q19 6 27 -14q3 -6 8 -29
q4 -44 9 -504q1 -12 5 -33t5 -26q3 -10 12 -26q1 -3 5 -9q13 -21 34 -21q2 0 4.5 -0.5t3.5 -0.5q33 3 56 22q31 25 46 47q18 26 22 32q17 22 18 22q0 -1 -1 -2q0 -1 -1 -3.5t-1 -3.5q-29 -51 -33 -56q-21 -31 -41 -46q-26 -21 -55 -25q-30 -5 -53 15q-15 13 -23 27
q-6 12 -7 18q-3 8 -10 34q-9 49 -10 81q-2 55 0 74q0 23 -2 34l-1 7q-1 3 -7 6q-4 2 -7 2t-10 0.5t-11 0.5q-68 -5 -76 -7t-26 -4q-4 -1 -12 -5q-1 -1 -3 -5v-9q2 -20 4 -30q1 -8 1 -24q0 -10 -1 -31t-1 -32q0 -9 1 -28t1 -28q1 -9 1 -27q-1 -37 3 -76q0 -6 -4 -7zM126 318
q10 2 13 2q11 2 80 10q30 4 44 4q9 0 9 7q0 8 1 11l-2 281q0 18 -3 33q-1 4 -5 12q-7 7 -14 3q-12 -9 -23 -24q-16 -22 -42 -66l-15 -27q-15 -32 -39 -100q-12 -33 -13 -61q-2 -11 0 -23q3 -16 1 -37v-19q0 -3 3 -5t5 -1z" />
    <glyph glyph-name="Atilde" unicode="&#xc3;" horiz-adv-x="639" 
d="M390 772q-21 0 -41 9t-39.5 19.5t-37 19.5t-34.5 9q-24 0 -36 -14.5t-19 -43.5h-51q6 60 34 94t76 34q22 0 42.5 -9t39.5 -19.5t37 -19.5t33 -9q23 0 35.5 14.5t19.5 43.5h50q-6 -58 -34 -93t-75 -35zM124 5q-5 0 -7 2q-5 8 -5 9q-4 8 -6 19q-4 46 -4 70q0 20 -1 30v15
q-1 4 -1 13.5t-1 14.5v6q0 14 -7 91q0 1 -1 4t-1 5q-2 6 -9 6q-1 0 -4 -0.5t-5 -0.5q-5 -1 -13.5 -3.5t-11.5 -3.5q-16 -6 -23 -8q-15 -4 -15 3q-1 6 11 11q1 1 2 1q22 9 45 15q10 2 15 4q6 4 7 9q0 2 0.5 6.5t0.5 6.5l3 57q2 24 7 44l9 33q4 16 11 31q5 11 14.5 32t10.5 24
q9 23 22 44q22 40 39 63q11 15 34 32q7 5 14 5q19 6 27 -14q3 -6 8 -29q4 -44 9 -504q1 -12 5 -33t5 -26q3 -10 12 -26q1 -3 5 -9q13 -21 34 -21q2 0 4.5 -0.5t3.5 -0.5q33 3 56 22q31 25 46 47q18 26 22 32q17 22 18 22q0 -1 -1 -2q0 -1 -1 -3.5t-1 -3.5q-29 -51 -33 -56
q-21 -31 -41 -46q-26 -21 -55 -25q-30 -5 -53 15q-15 13 -23 27q-6 12 -7 18q-3 8 -10 34q-9 49 -10 81q-2 55 0 74q0 23 -2 34l-1 7q-1 3 -7 6q-4 2 -7 2t-10 0.5t-11 0.5q-68 -5 -76 -7t-26 -4q-4 -1 -12 -5q-1 -1 -3 -5v-9q2 -20 4 -30q1 -8 1 -24q0 -10 -1 -31t-1 -32
q0 -9 1 -28t1 -28q1 -9 1 -27q-1 -37 3 -76q0 -6 -4 -7zM126 318q10 2 13 2q11 2 80 10q30 4 44 4q9 0 9 7q0 8 1 11l-2 281q0 18 -3 33q-1 4 -5 12q-7 7 -14 3q-12 -9 -23 -24q-16 -22 -42 -66l-15 -27q-15 -32 -39 -100q-12 -33 -13 -61q-2 -11 0 -23q3 -16 1 -37v-19
q0 -3 3 -5t5 -1z" />
    <glyph glyph-name="Adieresis" unicode="&#xc4;" horiz-adv-x="494" 
d="M310 721l-10 2q-2 0 -4 4q-1 3 4 8q8 4 14 4q8 0 8 -8q0 -2 -2 -6q-3 -6 -10 -4zM190 721l-10 2q-2 0 -4 4q-1 3 4 8q8 4 14 4q8 0 8 -8q0 -2 -2 -6q-3 -6 -10 -4zM124 5q-5 0 -7 2q-5 8 -5 9q-4 8 -6 19q-4 46 -4 70q0 20 -1 30v15q-1 4 -1 13.5t-1 14.5v6q0 14 -7 91
q0 1 -1 4t-1 5q-2 6 -9 6q-1 0 -4 -0.5t-5 -0.5q-5 -1 -13.5 -3.5t-11.5 -3.5q-16 -6 -23 -8q-15 -4 -15 3q-1 6 11 11q1 1 2 1q22 9 45 15q10 2 15 4q6 4 7 9q0 2 0.5 6.5t0.5 6.5l3 57q2 24 7 44l9 33q4 16 11 31q5 11 14.5 32t10.5 24q9 23 22 44q22 40 39 63
q11 15 34 32q7 5 14 5q19 6 27 -14q3 -6 8 -29q4 -44 9 -504q1 -12 5 -33t5 -26q3 -10 12 -26q1 -3 5 -9q13 -21 34 -21q2 0 4.5 -0.5t3.5 -0.5q33 3 56 22q31 25 46 47q18 26 22 32q17 22 18 22q0 -1 -1 -2q0 -1 -1 -3.5t-1 -3.5q-29 -51 -33 -56q-21 -31 -41 -46
q-26 -21 -55 -25q-30 -5 -53 15q-15 13 -23 27q-6 12 -7 18q-3 8 -10 34q-9 49 -10 81q-2 55 0 74q0 23 -2 34l-1 7q-1 3 -7 6q-4 2 -7 2t-10 0.5t-11 0.5q-68 -5 -76 -7t-26 -4q-4 -1 -12 -5q-1 -1 -3 -5v-9q2 -20 4 -30q1 -8 1 -24q0 -10 -1 -31t-1 -32q0 -9 1 -28t1 -28
q1 -9 1 -27q-1 -37 3 -76q0 -6 -4 -7zM126 318q10 2 13 2q11 2 80 10q30 4 44 4q9 0 9 7q0 8 1 11l-2 281q0 18 -3 33q-1 4 -5 12q-7 7 -14 3q-12 -9 -23 -24q-16 -22 -42 -66l-15 -27q-15 -32 -39 -100q-12 -33 -13 -61q-2 -11 0 -23q3 -16 1 -37v-19q0 -3 3 -5t5 -1z" />
    <glyph glyph-name="Aring" unicode="&#xc5;" horiz-adv-x="639" 
d="M428 774q0 -34 -14.5 -58t-39.5 -36l264 -680h-93l-86 221h-283l-85 -221h-91l263 677q-26 12 -40.5 36.5t-14.5 59.5q0 48 29.5 76.5t79.5 28.5t80.5 -29t30.5 -75zM432 301l-80 216l-34 107q-15 -59 -31 -107l-81 -216h226zM373 773q0 26 -16 41t-40 15t-40 -15
t-16 -41t14.5 -41t41.5 -15q25 0 40.5 15t15.5 41z" />
    <glyph glyph-name="AE" unicode="&#xc6;" horiz-adv-x="880" 
d="M821 0h-372v221h-250l-107 -221h-93l339 714h483v-79h-282v-223h263v-78h-263v-255h282v-79zM234 301h215v333h-58z" />
    <glyph glyph-name="Ccedilla" unicode="&#xc7;" horiz-adv-x="631" 
d="M173 1q-3 1 -11 6t-17.5 10.5t-11.5 6.5q-12 10 -18 14q-16 11 -23 17q-3 3 -8.5 10t-7.5 10q-19 20 -34 52q-20 43 -27 90q-9 65 -10 84v66q0 61 9 84l6 16q14 26 22 55q7 27 26 52q11 15 23 34q14 19 41 43q18 16 46 33q22 14 48 14t62 -9q12 -3 22 -16q3 -5 3 -13
q-2 -5 -6 -3q-2 0 -4 2q-9 6 -27 11q-5 1 -14.5 4t-15.5 4q-29 5 -43 -1q-36 -15 -59 -37q-13 -12 -23 -27q-3 -5 -10 -14.5t-9 -12.5q-3 -5 -13.5 -19t-15.5 -23q-4 -8 -16 -40q-3 -6 -7.5 -19t-6.5 -20q-13 -37 -12 -110q23 -177 42 -217l12 -24q15 -32 35 -52l24 -23
q16 -14 35 -17q41 -8 75 5q18 6 50 22l7 4q4 2 45 31q12 9 31 30q24 27 51 51q4 4 29 24q3 3 9 3h1q1 0 1.5 -1.5t-0.5 -2.5q-5 -8 -7 -9q-7 -6 -18 -20t-18 -21q-1 -1 -6.5 -8t-14.5 -19t-14 -18l-3 -3q-4 -3 -16 -14t-18 -16t-16.5 -12t-20.5 -12q-38 -18 -57 -26
q-13 -6 -49.5 -9.5t-46.5 0.5zM464 -139q0 -48 -37 -74.5t-111 -26.5q-32 0 -50 5v55q18 -5 53 -5q37 0 55.5 9.5t18.5 34.5q0 43 -91 55l43 86h58l-26 -53q87 -19 87 -86z" />
    <glyph glyph-name="Egrave" unicode="&#xc8;" horiz-adv-x="556" 
d="M132 0q-40 2 -66 26q-26 26 -35 42l-5 6q-21 52 -21 74q0 18 6 56q6 57 15 85q7 22 10 28q4 10 14 32q3 6 11 18q3 6 11 16q6 7 1 15q-12 17 -12 42q0 6 -2 14q-3 22 1 41q2 21 11 50q6 20 19 36q28 32 44 47q26 26 62 43q1 1 3.5 2t3.5 2q25 14 73 22q26 4 40 -5
q16 -11 21 -23q10 -23 -2 -41q-13 -19 -34 -36h-2q-1 0 -1 3q2 5 4 7q3 5 11 13q6 6 8 9q11 15 6 36l-2 3q-16 27 -43 22q-43 -8 -81 -28l-18 -11q-36 -21 -54 -45q-23 -26 -36 -58q-8 -26 -10 -40q-3 -24 -3 -25v-12q0 -5 1 -17t1 -18q0 -11 4 -19q5 -9 12 -5q2 0 6 2
q25 13 61 13h2q2 -1 3 -1q15 -2 13 -16q-2 -15 -7 -27q-7 -12 -22 -17q-27 -8 -52 4q-3 2 -9 4q-7 3 -10 -2q-4 -5 -10 -15q-3 -5 -5 -10q-30 -73 -34 -127q-3 -54 -3 -57q0 -27 2 -42q7 -35 33 -62q23 -25 60 -31q6 -2 13 0q42 4 60 9l30 9q51 21 78 38l15 8q27 16 43 31
q31 29 57 44h3q3 0 2 -2t-3 -4q-31 -40 -45 -54q-8 -8 -17 -14l-51 -32q-13 -8 -39 -20.5t-29 -14.5q-17 -6 -19 -6q-52 -11 -55 -12q-24 -4 -37 -3zM129 379q17 -1 27 15q3 3 1 7q-3 3 -7 3h-3l-2 -1l-17 -3q-10 -1 -18 -7q-4 -5 0 -9q7 -5 19 -5zM354 771h-59
q-37 29 -80.5 76t-61.5 74v10h105q16 -32 44.5 -76.5t51.5 -71.5v-12z" />
    <glyph glyph-name="Eacute" unicode="&#xc9;" horiz-adv-x="556" 
d="M132 0q-40 2 -66 26q-26 26 -35 42l-5 6q-21 52 -21 74q0 18 6 56q6 57 15 85q7 22 10 28q4 10 14 32q3 6 11 18q3 6 11 16q6 7 1 15q-12 17 -12 42q0 6 -2 14q-3 22 1 41q2 21 11 50q6 20 19 36q28 32 44 47q26 26 62 43q1 1 3.5 2t3.5 2q25 14 73 22q26 4 40 -5
q16 -11 21 -23q10 -23 -2 -41q-13 -19 -34 -36h-2q-1 0 -1 3q2 5 4 7q3 5 11 13q6 6 8 9q11 15 6 36l-2 3q-16 27 -43 22q-43 -8 -81 -28l-18 -11q-36 -21 -54 -45q-23 -26 -36 -58q-8 -26 -10 -40q-3 -24 -3 -25v-12q0 -5 1 -17t1 -18q0 -11 4 -19q5 -9 12 -5q2 0 6 2
q25 13 61 13h2q2 -1 3 -1q15 -2 13 -16q-2 -15 -7 -27q-7 -12 -22 -17q-27 -8 -52 4q-3 2 -9 4q-7 3 -10 -2q-4 -5 -10 -15q-3 -5 -5 -10q-30 -73 -34 -127q-3 -54 -3 -57q0 -27 2 -42q7 -35 33 -62q23 -25 60 -31q6 -2 13 0q42 4 60 9l30 9q51 21 78 38l15 8q27 16 43 31
q31 29 57 44h3q3 0 2 -2t-3 -4q-31 -40 -45 -54q-8 -8 -17 -14l-51 -32q-13 -8 -39 -20.5t-29 -14.5q-17 -6 -19 -6q-52 -11 -55 -12q-24 -4 -37 -3zM129 379q17 -1 27 15q3 3 1 7q-3 3 -7 3h-3l-2 -1l-17 -3q-10 -1 -18 -7q-4 -5 0 -9q7 -5 19 -5zM221 783q19 23 47.5 66.5
t47.5 81.5h106v-10q-21 -31 -66.5 -78.5t-76.5 -71.5h-58v12z" />
    <glyph glyph-name="Ecircumflex" unicode="&#xca;" horiz-adv-x="556" 
d="M125 782q61 65 86 96.5t37 52.5h90q25 -49 125 -149v-11h-62q-44 26 -109 90q-64 -62 -107 -90h-60v11zM132 0q-40 2 -66 26q-26 26 -35 42l-5 6q-21 52 -21 74q0 18 6 56q6 57 15 85q7 22 10 28q4 10 14 32q3 6 11 18q3 6 11 16q6 7 1 15q-12 17 -12 42q0 6 -2 14
q-3 22 1 41q2 21 11 50q6 20 19 36q28 32 44 47q26 26 62 43q1 1 3.5 2t3.5 2q25 14 73 22q26 4 40 -5q16 -11 21 -23q10 -23 -2 -41q-13 -19 -34 -36h-2q-1 0 -1 3q2 5 4 7q3 5 11 13q6 6 8 9q11 15 6 36l-2 3q-16 27 -43 22q-43 -8 -81 -28l-18 -11q-36 -21 -54 -45
q-23 -26 -36 -58q-8 -26 -10 -40q-3 -24 -3 -25v-12q0 -5 1 -17t1 -18q0 -11 4 -19q5 -9 12 -5q2 0 6 2q25 13 61 13h2q2 -1 3 -1q15 -2 13 -16q-2 -15 -7 -27q-7 -12 -22 -17q-27 -8 -52 4q-3 2 -9 4q-7 3 -10 -2q-4 -5 -10 -15q-3 -5 -5 -10q-30 -73 -34 -127
q-3 -54 -3 -57q0 -27 2 -42q7 -35 33 -62q23 -25 60 -31q6 -2 13 0q42 4 60 9l30 9q51 21 78 38l15 8q27 16 43 31q31 29 57 44h3q3 0 2 -2t-3 -4q-31 -40 -45 -54q-8 -8 -17 -14l-51 -32q-13 -8 -39 -20.5t-29 -14.5q-17 -6 -19 -6q-52 -11 -55 -12q-24 -4 -37 -3zM129 379
q17 -1 27 15q3 3 1 7q-3 3 -7 3h-3l-2 -1l-17 -3q-10 -1 -18 -7q-4 -5 0 -9q7 -5 19 -5z" />
    <glyph glyph-name="Edieresis" unicode="&#xcb;" horiz-adv-x="556" 
d="M132 0q-40 2 -66 26q-26 26 -35 42l-5 6q-21 52 -21 74q0 18 6 56q6 57 15 85q7 22 10 28q4 10 14 32q3 6 11 18q3 6 11 16q6 7 1 15q-12 17 -12 42q0 6 -2 14q-3 22 1 41q2 21 11 50q6 20 19 36q28 32 44 47q26 26 62 43q1 1 3.5 2t3.5 2q25 14 73 22q26 4 40 -5
q16 -11 21 -23q10 -23 -2 -41q-13 -19 -34 -36h-2q-1 0 -1 3q2 5 4 7q3 5 11 13q6 6 8 9q11 15 6 36l-2 3q-16 27 -43 22q-43 -8 -81 -28l-18 -11q-36 -21 -54 -45q-23 -26 -36 -58q-8 -26 -10 -40q-3 -24 -3 -25v-12q0 -5 1 -17t1 -18q0 -11 4 -19q5 -9 12 -5q2 0 6 2
q25 13 61 13h2q2 -1 3 -1q15 -2 13 -16q-2 -15 -7 -27q-7 -12 -22 -17q-27 -8 -52 4q-3 2 -9 4q-7 3 -10 -2q-4 -5 -10 -15q-3 -5 -5 -10q-30 -73 -34 -127q-3 -54 -3 -57q0 -27 2 -42q7 -35 33 -62q23 -25 60 -31q6 -2 13 0q42 4 60 9l30 9q51 21 78 38l15 8q27 16 43 31
q31 29 57 44h3q3 0 2 -2t-3 -4q-31 -40 -45 -54q-8 -8 -17 -14l-51 -32q-13 -8 -39 -20.5t-29 -14.5q-17 -6 -19 -6q-52 -11 -55 -12q-24 -4 -37 -3zM129 379q17 -1 27 15q3 3 1 7q-3 3 -7 3h-3l-2 -1l-17 -3q-10 -1 -18 -7q-4 -5 0 -9q7 -5 19 -5zM156 846q0 26 13.5 37.5
t33.5 11.5q19 0 33 -11.5t14 -37.5t-14 -38t-33 -12q-20 0 -33.5 12t-13.5 38zM344 846q0 26 13.5 37.5t32.5 11.5t33 -11.5t14 -37.5t-14 -38t-33 -12t-32.5 12t-13.5 38z" />
    <glyph glyph-name="Igrave" unicode="&#xcc;" horiz-adv-x="338" 
d="M153 1q-24 6 -36 8q-12 3 -34 27q-12 12 -12 24q0 2 2 6q4 9 30 21q21 11 39 12q21 2 38 -4q10 -4 12.5 -2.5t2.5 12.5q-1 10 -3.5 29.5t-2.5 28.5q-1 19 -3 41q-1 9 -25 160.5t-27 164.5t-3 50v16q0 7 -6 8q-2 1 -6 1q-40 6 -59 10q-31 5 -48 17q-4 3 -6 9v6q2 2 7 -1
q2 -2 12 -4q24 -6 37 -10q1 0 3.5 -0.5t4.5 -0.5q10 -1 27 -3.5t22 -3.5q2 0 5.5 -0.5t4.5 -0.5q6 2 9 7l6 12q8 18 9 20q15 31 49 34q51 3 93 -12l3 -2q6 -4 3 -9q-14 -24 -20 -29q-1 -1 -3.5 -4t-3.5 -4q-8 -12 -25 -15l-53 -12q-3 0 -10 -1t-10 -1q-2 -1 -8 -1
q-8 -2 -11 -11q-2 -6 -2 -11q-3 -20 0 -40q3 -22 3 -23q0 -2 2 -10q28 -155 32 -169q5 -20 11 -62q6 -33 6 -35q5 -25 6 -28l13 -100q3 -15 3 -30q0 -12 10 -15q15 -3 48 -18q24 -12 62 -5l17 3q8 1 16 8q23 15 49 36q24 18 36 30q1 1 7 5h2q1 -1 1 -3q-6 -16 -13 -23
q-18 -16 -31 -32q-5 -6 -19 -16l-12 -11q-6 -7 -16 -10l-25 -6q-7 -2 -29 -2q-21 -1 -47 11q-3 2 -11 6q-7 4 -39 14q-8 3 -9 -5q-1 -2 -4 -11t-5 -14q-1 -1 -2.5 -3.5t-2.5 -3.5q-10 -16 -25 -20q-21 -5 -36 0zM173 626h7l29 3q13 2 39 8q14 4 25 20q4 5 -2 10q-4 4 -15 6
q-26 6 -51 3q-6 0 -14 -2t-11 -9q-4 -8 -6 -11q-3 -6 -7 -16q-4 -11 6 -12zM150 33q15 0 25 3q11 2 15 10q4 10 5 14q3 6 0 12q0 1 -0.5 2.5t-1.5 2.5q-7 3 -15 3q-24 1 -57 -4l-18 -6q-3 -2 -7 -6q-5 -7 0 -12q1 -1 3.5 -2.5t3.5 -2.5q14 -10 20 -12t27 -2zM230 771h-59
q-37 29 -80.5 76t-61.5 74v10h105q16 -32 44.5 -76.5t51.5 -71.5v-12z" />
    <glyph glyph-name="Iacute" unicode="&#xcd;" horiz-adv-x="338" 
d="M153 1q-24 6 -36 8q-12 3 -34 27q-12 12 -12 24q0 2 2 6q4 9 30 21q21 11 39 12q21 2 38 -4q10 -4 12.5 -2.5t2.5 12.5q-1 10 -3.5 29.5t-2.5 28.5q-1 19 -3 41q-1 9 -25 160.5t-27 164.5t-3 50v16q0 7 -6 8q-2 1 -6 1q-40 6 -59 10q-31 5 -48 17q-4 3 -6 9v6q2 2 7 -1
q2 -2 12 -4q24 -6 37 -10q1 0 3.5 -0.5t4.5 -0.5q10 -1 27 -3.5t22 -3.5q2 0 5.5 -0.5t4.5 -0.5q6 2 9 7l6 12q8 18 9 20q15 31 49 34q51 3 93 -12l3 -2q6 -4 3 -9q-14 -24 -20 -29q-1 -1 -3.5 -4t-3.5 -4q-8 -12 -25 -15l-53 -12q-3 0 -10 -1t-10 -1q-2 -1 -8 -1
q-8 -2 -11 -11q-2 -6 -2 -11q-3 -20 0 -40q3 -22 3 -23q0 -2 2 -10q28 -155 32 -169q5 -20 11 -62q6 -33 6 -35q5 -25 6 -28l13 -100q3 -15 3 -30q0 -12 10 -15q15 -3 48 -18q24 -12 62 -5l17 3q8 1 16 8q23 15 49 36q24 18 36 30q1 1 7 5h2q1 -1 1 -3q-6 -16 -13 -23
q-18 -16 -31 -32q-5 -6 -19 -16l-12 -11q-6 -7 -16 -10l-25 -6q-7 -2 -29 -2q-21 -1 -47 11q-3 2 -11 6q-7 4 -39 14q-8 3 -9 -5q-1 -2 -4 -11t-5 -14q-1 -1 -2.5 -3.5t-2.5 -3.5q-10 -16 -25 -20q-21 -5 -36 0zM173 626h7l29 3q13 2 39 8q14 4 25 20q4 5 -2 10q-4 4 -15 6
q-26 6 -51 3q-6 0 -14 -2t-11 -9q-4 -8 -6 -11q-3 -6 -7 -16q-4 -11 6 -12zM150 33q15 0 25 3q11 2 15 10q4 10 5 14q3 6 0 12q0 1 -0.5 2.5t-1.5 2.5q-7 3 -15 3q-24 1 -57 -4l-18 -6q-3 -2 -7 -6q-5 -7 0 -12q1 -1 3.5 -2.5t3.5 -2.5q14 -10 20 -12t27 -2zM115 783
q19 23 47.5 66.5t47.5 81.5h106v-10q-21 -31 -66.5 -78.5t-76.5 -71.5h-58v12z" />
    <glyph glyph-name="Icircumflex" unicode="&#xce;" horiz-adv-x="338" 
d="M-1 782q61 65 86 96.5t37 52.5h90q25 -49 125 -149v-11h-62q-44 26 -109 90q-64 -62 -107 -90h-60v11zM153 1q-24 6 -36 8q-12 3 -34 27q-12 12 -12 24q0 2 2 6q4 9 30 21q21 11 39 12q21 2 38 -4q10 -4 12.5 -2.5t2.5 12.5q-1 10 -3.5 29.5t-2.5 28.5q-1 19 -3 41
q-1 9 -25 160.5t-27 164.5t-3 50v16q0 7 -6 8q-2 1 -6 1q-40 6 -59 10q-31 5 -48 17q-4 3 -6 9v6q2 2 7 -1q2 -2 12 -4q24 -6 37 -10q1 0 3.5 -0.5t4.5 -0.5q10 -1 27 -3.5t22 -3.5q2 0 5.5 -0.5t4.5 -0.5q6 2 9 7l6 12q8 18 9 20q15 31 49 34q51 3 93 -12l3 -2q6 -4 3 -9
q-14 -24 -20 -29q-1 -1 -3.5 -4t-3.5 -4q-8 -12 -25 -15l-53 -12q-3 0 -10 -1t-10 -1q-2 -1 -8 -1q-8 -2 -11 -11q-2 -6 -2 -11q-3 -20 0 -40q3 -22 3 -23q0 -2 2 -10q28 -155 32 -169q5 -20 11 -62q6 -33 6 -35q5 -25 6 -28l13 -100q3 -15 3 -30q0 -12 10 -15q15 -3 48 -18
q24 -12 62 -5l17 3q8 1 16 8q23 15 49 36q24 18 36 30q1 1 7 5h2q1 -1 1 -3q-6 -16 -13 -23q-18 -16 -31 -32q-5 -6 -19 -16l-12 -11q-6 -7 -16 -10l-25 -6q-7 -2 -29 -2q-21 -1 -47 11q-3 2 -11 6q-7 4 -39 14q-8 3 -9 -5q-1 -2 -4 -11t-5 -14q-1 -1 -2.5 -3.5t-2.5 -3.5
q-10 -16 -25 -20q-21 -5 -36 0zM173 626h7l29 3q13 2 39 8q14 4 25 20q4 5 -2 10q-4 4 -15 6q-26 6 -51 3q-6 0 -14 -2t-11 -9q-4 -8 -6 -11q-3 -6 -7 -16q-4 -11 6 -12zM150 33q15 0 25 3q11 2 15 10q4 10 5 14q3 6 0 12q0 1 -0.5 2.5t-1.5 2.5q-7 3 -15 3q-24 1 -57 -4
l-18 -6q-3 -2 -7 -6q-5 -7 0 -12q1 -1 3.5 -2.5t3.5 -2.5q14 -10 20 -12t27 -2z" />
    <glyph glyph-name="Idieresis" unicode="&#xcf;" horiz-adv-x="338" 
d="M153 1q-24 6 -36 8q-12 3 -34 27q-12 12 -12 24q0 2 2 6q4 9 30 21q21 11 39 12q21 2 38 -4q10 -4 12.5 -2.5t2.5 12.5q-1 10 -3.5 29.5t-2.5 28.5q-1 19 -3 41q-1 9 -25 160.5t-27 164.5t-3 50v16q0 7 -6 8q-2 1 -6 1q-40 6 -59 10q-31 5 -48 17q-4 3 -6 9v6q2 2 7 -1
q2 -2 12 -4q24 -6 37 -10q1 0 3.5 -0.5t4.5 -0.5q10 -1 27 -3.5t22 -3.5q2 0 5.5 -0.5t4.5 -0.5q6 2 9 7l6 12q8 18 9 20q15 31 49 34q51 3 93 -12l3 -2q6 -4 3 -9q-14 -24 -20 -29q-1 -1 -3.5 -4t-3.5 -4q-8 -12 -25 -15l-53 -12q-3 0 -10 -1t-10 -1q-2 -1 -8 -1
q-8 -2 -11 -11q-2 -6 -2 -11q-3 -20 0 -40q3 -22 3 -23q0 -2 2 -10q28 -155 32 -169q5 -20 11 -62q6 -33 6 -35q5 -25 6 -28l13 -100q3 -15 3 -30q0 -12 10 -15q15 -3 48 -18q24 -12 62 -5l17 3q8 1 16 8q23 15 49 36q24 18 36 30q1 1 7 5h2q1 -1 1 -3q-6 -16 -13 -23
q-18 -16 -31 -32q-5 -6 -19 -16l-12 -11q-6 -7 -16 -10l-25 -6q-7 -2 -29 -2q-21 -1 -47 11q-3 2 -11 6q-7 4 -39 14q-8 3 -9 -5q-1 -2 -4 -11t-5 -14q-1 -1 -2.5 -3.5t-2.5 -3.5q-10 -16 -25 -20q-21 -5 -36 0zM173 626h7l29 3q13 2 39 8q14 4 25 20q4 5 -2 10q-4 4 -15 6
q-26 6 -51 3q-6 0 -14 -2t-11 -9q-4 -8 -6 -11q-3 -6 -7 -16q-4 -11 6 -12zM150 33q15 0 25 3q11 2 15 10q4 10 5 14q3 6 0 12q0 1 -0.5 2.5t-1.5 2.5q-7 3 -15 3q-24 1 -57 -4l-18 -6q-3 -2 -7 -6q-5 -7 0 -12q1 -1 3.5 -2.5t3.5 -2.5q14 -10 20 -12t27 -2zM29 846
q0 26 13.5 37.5t33.5 11.5q19 0 33 -11.5t14 -37.5t-14 -38t-33 -12q-20 0 -33.5 12t-13.5 38zM217 846q0 26 13.5 37.5t32.5 11.5t33 -11.5t14 -37.5t-14 -38t-33 -12t-32.5 12t-13.5 38z" />
    <glyph glyph-name="Eth" unicode="&#xd0;" horiz-adv-x="729" 
d="M669 364q0 -175 -96 -269.5t-278 -94.5h-191v314h-74v78h74v322h213q167 0 259.5 -92t92.5 -258zM574 361q0 137 -68 206.5t-202 69.5h-110v-245h178v-78h-178v-237h90q290 0 290 284z" />
    <glyph glyph-name="Ntilde" unicode="&#xd1;" horiz-adv-x="759" 
d="M459 772q-21 0 -41 9t-39.5 19.5t-37 19.5t-34.5 9q-24 0 -36 -14.5t-19 -43.5h-51q6 60 34 94t76 34q22 0 42.5 -9t39.5 -19.5t37 -19.5t33 -9q23 0 35.5 14.5t19.5 43.5h50q-6 -58 -34 -93t-75 -35zM28 0q-1 0 -3 2l-1 1q-9 47 -9 64q1 6 0 16.5t-1 13.5q-1 7 -1 22
q-5 195 -5 366q0 10 -2 30v37v62q-1 22 -1 65q0 11 4 18q2 2 3 2q1 1 2.5 0t1.5 -2l3 -9q1 -2 1 -7v-11q0 -21 4 -37q3 -15 3 -29q0 -8 1 -17t2.5 -20t2.5 -17q2 -18 2 -29q0 -5 2 -17q0 -1 1 -2.5t2 -0.5q3 0 3 2q2 2 4 6q30 54 46 80q9 15 36 56q5 8 26 29l15 11q9 6 24 8
h19q21 0 30 -23q1 -2 1 -5t1 -4q5 -23 7 -27q1 -4 1 -13q1 -7 1 -21t1 -21q0 -2 0.5 -6t0.5 -5v-15q-1 -10 -1 -30q0 -10 -0.5 -32t-1.5 -100.5t-3 -195.5q7 -34 7 -72q0 -15 1 -22q0 -9 3 -16q4 -12 5 -18q3 -11 10 -18q4 -6 14 -8h13q16 2 27 11q16 16 23 26q7 12 23 36
q8 13 12 25q1 3 11 28q2 1 3 1q2 0 2 -3q5 -16 -1 -30q-1 -3 -5 -12.5t-6 -13.5q-3 -8 -7 -13q-6 -10 -18 -28q-2 -3 -7 -8l-21 -21q-17 -16 -41 -13l-18 3q-17 3 -27 16q-12 17 -16 33q-4 10 -4 16q-1 6 -3.5 23t-3.5 26q-1 7 -1.5 14.5t-1 16.5t-0.5 14q0 6 -1 9l2 283
q3 21 3 42q0 16 2 44q3 22 0 45q-6 36 -6 38q-1 3 -4 14q-4 8 -6 10q-7 10 -18 5q-5 -1 -11 -6l-14 -14q-19 -20 -30 -38l-27 -42l-6 -9q-2 -3 -6 -8.5t-6 -8.5q-5 -11 -18 -30.5l-15 -22.5q-6 -10 -9 -14q-8 -8 -10 -22q-2 -24 -1 -31t1 -20q0 -221 -2 -245q0 -5 0.5 -28
t1 -49.5t0.5 -34.5q0 -12 -1 -19q-2 -21 -11 -34q-2 -2 -3 -2z" />
    <glyph glyph-name="Ograve" unicode="&#xd2;" horiz-adv-x="780" 
d="M168 0l-24 3q-42 7 -63 29q-6 6 -28.5 35t-25.5 36q-2 3 -4 8t-4 8q-9 18 -12 38q-2 13 -2 82t2 80q2 10 4.5 30t3.5 29q3 22 11 47l6 14q24 42 36 62l39 63q7 12 15 20q5 5 8 9q5 8 31 34q7 8 34 28q2 1 11.5 8.5t14.5 11.5q3 3 9 7q14 8 28 14q8 3 15 3q6 -2 9 -4
q2 -1 2 -3.5t-2 -3.5l-5 -3q-25 -5 -47 -29l-15 -14q-15 -14 -20 -24q-2 -4 -7 -9q-8 -9 -46 -70q-32 -50 -51 -83q-4 -8 -7 -12q-8 -12 -24 -56.5t-17 -58.5q0 -9 -2 -27q-1 -6 -1.5 -12.5t-1 -14t-0.5 -11.5t-0.5 -12.5t-1.5 -12.5q-2 -24 -2 -35q0 -13 4.5 -46t9.5 -43
q5 -8 13 -24q5 -11 15 -22q3 -3 7.5 -8.5t6.5 -7.5q9 -11 15 -15q17 -14 37 -15q29 -4 69 5q6 2 26 7q22 7 35 17q4 4 12.5 9.5t12.5 9.5q10 8 14 13q35 33 51 51q37 43 50 72q14 31 26 48q5 10 8 19l6 17q5 22 13 38q6 14 9 26q0 6 -6 6q-6 -1 -18.5 -1t-18.5 -1
q-6 0 -9 -1q-26 -3 -56 4q-8 2 -24 8q-51 18 -74 82q-11 31 -8 74q0 4 2 10q13 44 16 51q8 18 21 30q2 2 16.5 13.5t21.5 18.5q4 4 19 14q9 5 25 15q12 8 30 8q29 -3 34 -4q17 -5 29 -15q6 -6 22 -20q1 0 1 -1q3 -4 15.5 -18.5t18.5 -23.5q7 -9 9 -21q0 -5 2 -13q2 -5 2 -16
q2 -26 -3 -44q-1 -5 -2 -10.5t-2 -12.5t-2 -11q-5 -35 -15 -68q0 -1 -0.5 -3t-0.5 -3q0 -2 1 -3q0 -1 5 -1q4 2 5 3q13 9 16 11q13 11 55 44q15 12 49 34l87 57q5 3 47 32q21 11 23 10l-19 -14l-81 -59q-1 -1 -3.5 -3t-3.5 -3q-5 -5 -11 -10t-14 -10t-12 -8
q-3 -3 -20.5 -15.5t-26.5 -19.5l-60 -48q-22 -18 -36 -23q-8 -2 -12 -13l-30 -94q-2 -8 -4 -11q-3 -6 -12.5 -28.5t-16.5 -33.5q-3 -3 -10 -18q-6 -12 -16 -22q-5 -4 -20.5 -22.5t-18.5 -20.5q-5 -5 -16 -15.5t-16 -15.5q-9 -10 -28 -29q-11 -11 -27 -19q-12 -6 -17 -9
q-11 -5 -20 -8l-29 -9q-19 -6 -46 -8h-13zM402 372q26 -1 62 4q7 1 16 5q5 1 7 7q1 1 1 4t1 5q1 7 7 37.5t10.5 58.5t4.5 37v23q0 9 -5 19q-12 20 -13 22q-2 3 -11 13.5t-14 15.5q-18 20 -41 24q-9 1 -17 0q-40 -14 -58 -27q-4 -4 -12.5 -10t-10.5 -7q-12 -9 -19 -22
q-7 -9 -10 -23q-7 -17 -10 -41q-5 -24 1 -44l4 -19q6 -32 34 -52l16 -13q12 -7 14 -8q25 -9 43 -9zM448 771h-59q-37 29 -80.5 76t-61.5 74v10h105q16 -32 44.5 -76.5t51.5 -71.5v-12z" />
    <glyph glyph-name="Oacute" unicode="&#xd3;" horiz-adv-x="780" 
d="M168 0l-24 3q-42 7 -63 29q-6 6 -28.5 35t-25.5 36q-2 3 -4 8t-4 8q-9 18 -12 38q-2 13 -2 82t2 80q2 10 4.5 30t3.5 29q3 22 11 47l6 14q24 42 36 62l39 63q7 12 15 20q5 5 8 9q5 8 31 34q7 8 34 28q2 1 11.5 8.5t14.5 11.5q3 3 9 7q14 8 28 14q8 3 15 3q6 -2 9 -4
q2 -1 2 -3.5t-2 -3.5l-5 -3q-25 -5 -47 -29l-15 -14q-15 -14 -20 -24q-2 -4 -7 -9q-8 -9 -46 -70q-32 -50 -51 -83q-4 -8 -7 -12q-8 -12 -24 -56.5t-17 -58.5q0 -9 -2 -27q-1 -6 -1.5 -12.5t-1 -14t-0.5 -11.5t-0.5 -12.5t-1.5 -12.5q-2 -24 -2 -35q0 -13 4.5 -46t9.5 -43
q5 -8 13 -24q5 -11 15 -22q3 -3 7.5 -8.5t6.5 -7.5q9 -11 15 -15q17 -14 37 -15q29 -4 69 5q6 2 26 7q22 7 35 17q4 4 12.5 9.5t12.5 9.5q10 8 14 13q35 33 51 51q37 43 50 72q14 31 26 48q5 10 8 19l6 17q5 22 13 38q6 14 9 26q0 6 -6 6q-6 -1 -18.5 -1t-18.5 -1
q-6 0 -9 -1q-26 -3 -56 4q-8 2 -24 8q-51 18 -74 82q-11 31 -8 74q0 4 2 10q13 44 16 51q8 18 21 30q2 2 16.5 13.5t21.5 18.5q4 4 19 14q9 5 25 15q12 8 30 8q29 -3 34 -4q17 -5 29 -15q6 -6 22 -20q1 0 1 -1q3 -4 15.5 -18.5t18.5 -23.5q7 -9 9 -21q0 -5 2 -13q2 -5 2 -16
q2 -26 -3 -44q-1 -5 -2 -10.5t-2 -12.5t-2 -11q-5 -35 -15 -68q0 -1 -0.5 -3t-0.5 -3q0 -2 1 -3q0 -1 5 -1q4 2 5 3q13 9 16 11q13 11 55 44q15 12 49 34l87 57q5 3 47 32q21 11 23 10l-19 -14l-81 -59q-1 -1 -3.5 -3t-3.5 -3q-5 -5 -11 -10t-14 -10t-12 -8
q-3 -3 -20.5 -15.5t-26.5 -19.5l-60 -48q-22 -18 -36 -23q-8 -2 -12 -13l-30 -94q-2 -8 -4 -11q-3 -6 -12.5 -28.5t-16.5 -33.5q-3 -3 -10 -18q-6 -12 -16 -22q-5 -4 -20.5 -22.5t-18.5 -20.5q-5 -5 -16 -15.5t-16 -15.5q-9 -10 -28 -29q-11 -11 -27 -19q-12 -6 -17 -9
q-11 -5 -20 -8l-29 -9q-19 -6 -46 -8h-13zM402 372q26 -1 62 4q7 1 16 5q5 1 7 7q1 1 1 4t1 5q1 7 7 37.5t10.5 58.5t4.5 37v23q0 9 -5 19q-12 20 -13 22q-2 3 -11 13.5t-14 15.5q-18 20 -41 24q-9 1 -17 0q-40 -14 -58 -27q-4 -4 -12.5 -10t-10.5 -7q-12 -9 -19 -22
q-7 -9 -10 -23q-7 -17 -10 -41q-5 -24 1 -44l4 -19q6 -32 34 -52l16 -13q12 -7 14 -8q25 -9 43 -9zM321 783q19 23 47.5 66.5t47.5 81.5h106v-10q-21 -31 -66.5 -78.5t-76.5 -71.5h-58v12z" />
    <glyph glyph-name="Ocircumflex" unicode="&#xd4;" horiz-adv-x="780" 
d="M215 782q61 65 86 96.5t37 52.5h90q25 -49 125 -149v-11h-62q-44 26 -109 90q-64 -62 -107 -90h-60v11zM168 0l-24 3q-42 7 -63 29q-6 6 -28.5 35t-25.5 36q-2 3 -4 8t-4 8q-9 18 -12 38q-2 13 -2 82t2 80q2 10 4.5 30t3.5 29q3 22 11 47l6 14q24 42 36 62l39 63
q7 12 15 20q5 5 8 9q5 8 31 34q7 8 34 28q2 1 11.5 8.5t14.5 11.5q3 3 9 7q14 8 28 14q8 3 15 3q6 -2 9 -4q2 -1 2 -3.5t-2 -3.5l-5 -3q-25 -5 -47 -29l-15 -14q-15 -14 -20 -24q-2 -4 -7 -9q-8 -9 -46 -70q-32 -50 -51 -83q-4 -8 -7 -12q-8 -12 -24 -56.5t-17 -58.5
q0 -9 -2 -27q-1 -6 -1.5 -12.5t-1 -14t-0.5 -11.5t-0.5 -12.5t-1.5 -12.5q-2 -24 -2 -35q0 -13 4.5 -46t9.5 -43q5 -8 13 -24q5 -11 15 -22q3 -3 7.5 -8.5t6.5 -7.5q9 -11 15 -15q17 -14 37 -15q29 -4 69 5q6 2 26 7q22 7 35 17q4 4 12.5 9.5t12.5 9.5q10 8 14 13
q35 33 51 51q37 43 50 72q14 31 26 48q5 10 8 19l6 17q5 22 13 38q6 14 9 26q0 6 -6 6q-6 -1 -18.5 -1t-18.5 -1q-6 0 -9 -1q-26 -3 -56 4q-8 2 -24 8q-51 18 -74 82q-11 31 -8 74q0 4 2 10q13 44 16 51q8 18 21 30q2 2 16.5 13.5t21.5 18.5q4 4 19 14q9 5 25 15q12 8 30 8
q29 -3 34 -4q17 -5 29 -15q6 -6 22 -20q1 0 1 -1q3 -4 15.5 -18.5t18.5 -23.5q7 -9 9 -21q0 -5 2 -13q2 -5 2 -16q2 -26 -3 -44q-1 -5 -2 -10.5t-2 -12.5t-2 -11q-5 -35 -15 -68q0 -1 -0.5 -3t-0.5 -3q0 -2 1 -3q0 -1 5 -1q4 2 5 3q13 9 16 11q13 11 55 44q15 12 49 34
l87 57q5 3 47 32q21 11 23 10l-19 -14l-81 -59q-1 -1 -3.5 -3t-3.5 -3q-5 -5 -11 -10t-14 -10t-12 -8q-3 -3 -20.5 -15.5t-26.5 -19.5l-60 -48q-22 -18 -36 -23q-8 -2 -12 -13l-30 -94q-2 -8 -4 -11q-3 -6 -12.5 -28.5t-16.5 -33.5q-3 -3 -10 -18q-6 -12 -16 -22
q-5 -4 -20.5 -22.5t-18.5 -20.5q-5 -5 -16 -15.5t-16 -15.5q-9 -10 -28 -29q-11 -11 -27 -19q-12 -6 -17 -9q-11 -5 -20 -8l-29 -9q-19 -6 -46 -8h-13zM402 372q26 -1 62 4q7 1 16 5q5 1 7 7q1 1 1 4t1 5q1 7 7 37.5t10.5 58.5t4.5 37v23q0 9 -5 19q-12 20 -13 22
q-2 3 -11 13.5t-14 15.5q-18 20 -41 24q-9 1 -17 0q-40 -14 -58 -27q-4 -4 -12.5 -10t-10.5 -7q-12 -9 -19 -22q-7 -9 -10 -23q-7 -17 -10 -41q-5 -24 1 -44l4 -19q6 -32 34 -52l16 -13q12 -7 14 -8q25 -9 43 -9z" />
    <glyph glyph-name="Otilde" unicode="&#xd5;" horiz-adv-x="780" 
d="M461 772q-21 0 -41 9t-39.5 19.5t-37 19.5t-34.5 9q-24 0 -36 -14.5t-19 -43.5h-51q6 60 34 94t76 34q22 0 42.5 -9t39.5 -19.5t37 -19.5t33 -9q23 0 35.5 14.5t19.5 43.5h50q-6 -58 -34 -93t-75 -35zM168 0l-24 3q-42 7 -63 29q-6 6 -28.5 35t-25.5 36q-2 3 -4 8t-4 8
q-9 18 -12 38q-2 13 -2 82t2 80q2 10 4.5 30t3.5 29q3 22 11 47l6 14q24 42 36 62l39 63q7 12 15 20q5 5 8 9q5 8 31 34q7 8 34 28q2 1 11.5 8.5t14.5 11.5q3 3 9 7q14 8 28 14q8 3 15 3q6 -2 9 -4q2 -1 2 -3.5t-2 -3.5l-5 -3q-25 -5 -47 -29l-15 -14q-15 -14 -20 -24
q-2 -4 -7 -9q-8 -9 -46 -70q-32 -50 -51 -83q-4 -8 -7 -12q-8 -12 -24 -56.5t-17 -58.5q0 -9 -2 -27q-1 -6 -1.5 -12.5t-1 -14t-0.5 -11.5t-0.5 -12.5t-1.5 -12.5q-2 -24 -2 -35q0 -13 4.5 -46t9.5 -43q5 -8 13 -24q5 -11 15 -22q3 -3 7.5 -8.5t6.5 -7.5q9 -11 15 -15
q17 -14 37 -15q29 -4 69 5q6 2 26 7q22 7 35 17q4 4 12.5 9.5t12.5 9.5q10 8 14 13q35 33 51 51q37 43 50 72q14 31 26 48q5 10 8 19l6 17q5 22 13 38q6 14 9 26q0 6 -6 6q-6 -1 -18.5 -1t-18.5 -1q-6 0 -9 -1q-26 -3 -56 4q-8 2 -24 8q-51 18 -74 82q-11 31 -8 74q0 4 2 10
q13 44 16 51q8 18 21 30q2 2 16.5 13.5t21.5 18.5q4 4 19 14q9 5 25 15q12 8 30 8q29 -3 34 -4q17 -5 29 -15q6 -6 22 -20q1 0 1 -1q3 -4 15.5 -18.5t18.5 -23.5q7 -9 9 -21q0 -5 2 -13q2 -5 2 -16q2 -26 -3 -44q-1 -5 -2 -10.5t-2 -12.5t-2 -11q-5 -35 -15 -68
q0 -1 -0.5 -3t-0.5 -3q0 -2 1 -3q0 -1 5 -1q4 2 5 3q13 9 16 11q13 11 55 44q15 12 49 34l87 57q5 3 47 32q21 11 23 10l-19 -14l-81 -59q-1 -1 -3.5 -3t-3.5 -3q-5 -5 -11 -10t-14 -10t-12 -8q-3 -3 -20.5 -15.5t-26.5 -19.5l-60 -48q-22 -18 -36 -23q-8 -2 -12 -13
l-30 -94q-2 -8 -4 -11q-3 -6 -12.5 -28.5t-16.5 -33.5q-3 -3 -10 -18q-6 -12 -16 -22q-5 -4 -20.5 -22.5t-18.5 -20.5q-5 -5 -16 -15.5t-16 -15.5q-9 -10 -28 -29q-11 -11 -27 -19q-12 -6 -17 -9q-11 -5 -20 -8l-29 -9q-19 -6 -46 -8h-13zM402 372q26 -1 62 4q7 1 16 5
q5 1 7 7q1 1 1 4t1 5q1 7 7 37.5t10.5 58.5t4.5 37v23q0 9 -5 19q-12 20 -13 22q-2 3 -11 13.5t-14 15.5q-18 20 -41 24q-9 1 -17 0q-40 -14 -58 -27q-4 -4 -12.5 -10t-10.5 -7q-12 -9 -19 -22q-7 -9 -10 -23q-7 -17 -10 -41q-5 -24 1 -44l4 -19q6 -32 34 -52l16 -13
q12 -7 14 -8q25 -9 43 -9z" />
    <glyph glyph-name="Odieresis" unicode="&#xd6;" horiz-adv-x="572" 
d="M450 741l-10 2q-2 0 -4 4q-1 3 4 8q8 4 14 4q8 0 8 -8q0 -2 -2 -6q-3 -6 -10 -4zM330 741l-10 2q-2 0 -4 4q-1 3 4 8q8 4 14 4q8 0 8 -8q0 -2 -2 -6q-3 -6 -10 -4zM168 0l-24 3q-42 7 -63 29q-6 6 -28.5 35t-25.5 36q-2 3 -4 8t-4 8q-9 18 -12 38q-2 13 -2 82t2 80
q2 10 4.5 30t3.5 29q3 22 11 47l6 14q24 42 36 62l39 63q7 12 15 20q5 5 8 9q5 8 31 34q7 8 34 28q2 1 11.5 8.5t14.5 11.5q3 3 9 7q14 8 28 14q8 3 15 3q6 -2 9 -4q2 -1 2 -3.5t-2 -3.5l-5 -3q-25 -5 -47 -29l-15 -14q-15 -14 -20 -24q-2 -4 -7 -9q-8 -9 -46 -70
q-32 -50 -51 -83q-4 -8 -7 -12q-8 -12 -24 -56.5t-17 -58.5q0 -9 -2 -27q-1 -6 -1.5 -12.5t-1 -14t-0.5 -11.5t-0.5 -12.5t-1.5 -12.5q-2 -24 -2 -35q0 -13 4.5 -46t9.5 -43q5 -8 13 -24q5 -11 15 -22q3 -3 7.5 -8.5t6.5 -7.5q9 -11 15 -15q17 -14 37 -15q29 -4 69 5
q6 2 26 7q22 7 35 17q4 4 12.5 9.5t12.5 9.5q10 8 14 13q35 33 51 51q37 43 50 72q14 31 26 48q5 10 8 19l6 17q5 22 13 38q6 14 9 26q0 6 -6 6q-6 -1 -18.5 -1t-18.5 -1q-6 0 -9 -1q-26 -3 -56 4q-8 2 -24 8q-51 18 -74 82q-11 31 -8 74q0 4 2 10q13 44 16 51q8 18 21 30
q2 2 16.5 13.5t21.5 18.5q4 4 19 14q9 5 25 15q12 8 30 8q29 -3 34 -4q17 -5 29 -15q6 -6 22 -20q1 0 1 -1q3 -4 15.5 -18.5t18.5 -23.5q7 -9 9 -21q0 -5 2 -13q2 -5 2 -16q2 -26 -3 -44q-1 -5 -2 -10.5t-2 -12.5t-2 -11q-5 -35 -15 -68q0 -1 -0.5 -3t-0.5 -3q0 -2 1 -3
q0 -1 5 -1q4 2 5 3q13 9 16 11q13 11 55 44q15 12 49 34l87 57q5 3 47 32q21 11 23 10l-19 -14l-81 -59q-1 -1 -3.5 -3t-3.5 -3q-5 -5 -11 -10t-14 -10t-12 -8q-3 -3 -20.5 -15.5t-26.5 -19.5l-60 -48q-22 -18 -36 -23q-8 -2 -12 -13l-30 -94q-2 -8 -4 -11
q-3 -6 -12.5 -28.5t-16.5 -33.5q-3 -3 -10 -18q-6 -12 -16 -22q-5 -4 -20.5 -22.5t-18.5 -20.5q-5 -5 -16 -15.5t-16 -15.5q-9 -10 -28 -29q-11 -11 -27 -19q-12 -6 -17 -9q-11 -5 -20 -8l-29 -9q-19 -6 -46 -8h-13zM402 372q26 -1 62 4q7 1 16 5q5 1 7 7q1 1 1 4t1 5
q1 7 7 37.5t10.5 58.5t4.5 37v23q0 9 -5 19q-12 20 -13 22q-2 3 -11 13.5t-14 15.5q-18 20 -41 24q-9 1 -17 0q-40 -14 -58 -27q-4 -4 -12.5 -10t-10.5 -7q-12 -9 -19 -22q-7 -9 -10 -23q-7 -17 -10 -41q-5 -24 1 -44l4 -19q6 -32 34 -52l16 -13q12 -7 14 -8q25 -9 43 -9z
" />
    <glyph glyph-name="multiply" unicode="&#xd7;" horiz-adv-x="220" 
d="M207 118q-14 0 -27 10q-15 15 -20 18l-9 10q-21 26 -45 43q-5 3 -12 0q-8 -6 -11 -9q-11 -10 -33 -32l-15 -14q-12 -10 -24 -15q0 -1 -4 -1q-2 0 -3 1v4q3 8 10 17q2 2 7.5 8t8.5 9l24 27q5 6 17 16q3 3 6 5q1 3 0 6q-1 2 -3 4q-12 14 -19 20l-33 34q-9 8 -14 21l-8 14
q-1 9 3 16q7 6 12 1q7 -6 19 -18q26 -26 39 -38q4 -4 6 -5q8 -5 19 -18l4 -4q1 -1 3 -1.5t3 0.5q3 1 5 3q1 1 4 3.5t5 4.5t3 4q9 10 28 27.5t26 24.5q3 3 5 4q7 5 17 17q2 4 4 5q8 3 13 0q0 -1 2 -5q0 -6 -2 -8l-7 -7l-12 -12l-14.5 -14.5l-12.5 -12.5q-4 -4 -11.5 -12.5
t-12.5 -13.5q-9 -9 -13 -14l-3.5 -3.5t-3.5 -4.5q-5 -7 0 -13l4 -6q1 -1 4 -3.5t4 -3.5q13 -18 30 -34l20 -23q4 -6 17 -19q2 -3 6 -7q2 -4 -3 -6h-3z" />
    <glyph glyph-name="Oslash" unicode="&#xd8;" horiz-adv-x="780" 
d="M720 358q0 -171 -86.5 -269.5t-242.5 -98.5q-113 0 -185 47l-48 -68l-61 40l52 74q-88 97 -88 276q0 174 85.5 270t245.5 96q100 0 178 -45l46 66l61 -41l-51 -71q94 -99 94 -276zM625 358q0 129 -51 202l-320 -454q56 -38 137 -38q115 0 174.5 73t59.5 217zM156 358
q0 -126 47 -198l319 451q-53 35 -130 35q-116 0 -176 -73.5t-60 -214.5z" />
    <glyph glyph-name="Ugrave" unicode="&#xd9;" horiz-adv-x="730" 
d="M129 0q-3 0 -11 2q-10 5 -25 10q-16 6 -25 21q-2 5 -9 17t-10 19q-4 8 -9.5 34t-11 54.5t-6.5 32.5q-3 14 -9 77.5t-6 71.5v85q4 96 12 148q3 16 7 50q4 48 9 64q1 2 1 5t1 4q2 4 6 4q1 1 2.5 -1t1.5 -3q1 -3 1 -9q0 -37 -4 -125v-79v-13q-3 -26 -3 -106q2 -13 11 -106.5
t10 -97.5q6 -35 6 -37q0 -9 3 -18q11 -44 19 -59q1 -1 2.5 -4t2.5 -4l3 -4q26 -18 46 -9l14 6q23 18 27 22q5 6 7 6q12 9 26 35l5 14q22 52 39 87q3 7 13 46q1 2 1.5 6.5t0.5 6.5q1 9 0 18q-2 16 -2 25q0 16 -3 31q-2 6 -4.5 18t-3.5 18q-4 20 -4 29v114v50q0 24 11 59
q6 16 22 24q12 6 28 13q8 4 14 -5l4 -7q4 -7 6 -10q3 -4 8 -13t6 -11q8 -14 12 -47v-8q-3 -13 -6 -38.5t-6 -37.5q-2 -14 -2 -22q-2 -12 -2 -18q-3 -22 -10 -39q-3 -7 -10 -41q-2 -9 -4 -26t-4 -26q-4 -16 -7 -23q-2 -6 -10 -43v-11l7 -40q1 -1 2 -3.5t1 -3.5q4 -7 8 -22
t7 -21q3 -9 3 -18q2 -17 9 -32q6 -12 8 -18q5 -11 14 -17q4 -4 12.5 -4.5t12.5 3.5q2 1 6 5l18 18q1 1 10 13q14 20 26 34q35 41 37 43q6 7 20 21q0 1 1 1t2 -1v-1q0 -1 -0.5 -2t-0.5 -2q-21 -32 -25 -38q-7 -14 -8 -17q-4 -8 -22.5 -30.5t-24.5 -28.5q-1 -1 -19 -22
q-9 -11 -20 -12l-18 -3q-4 -1 -11 -1q-14 2 -19 11l-12 18l-8 16q-11 18 -14 40l-6 29q-4 14 -7 20q-2 3 -3.5 6.5t-3 8t-2.5 6.5l-1 1q-3 0 -3 -1q-20 -32 -25 -51q-10 -31 -31 -62q-1 -3 -12 -16l-37 -37l-13 -6q-14 -8 -39 -10zM294 340h1h2l3 11q5 21 7 28q10 40 16 61
q3 15 3 16q3 31 12 59q7 20 7 43q0 27 -17 61q-3 6 -9 6q-17 3 -26 -10q-13 -20 -13 -36q0 -4 -0.5 -14t-0.5 -15q1 -31 1 -92q0 -41 3 -62q4 -34 8 -49zM422 771h-59q-37 29 -80.5 76t-61.5 74v10h105q16 -32 44.5 -76.5t51.5 -71.5v-12z" />
    <glyph glyph-name="Uacute" unicode="&#xda;" horiz-adv-x="730" 
d="M129 0q-3 0 -11 2q-10 5 -25 10q-16 6 -25 21q-2 5 -9 17t-10 19q-4 8 -9.5 34t-11 54.5t-6.5 32.5q-3 14 -9 77.5t-6 71.5v85q4 96 12 148q3 16 7 50q4 48 9 64q1 2 1 5t1 4q2 4 6 4q1 1 2.5 -1t1.5 -3q1 -3 1 -9q0 -37 -4 -125v-79v-13q-3 -26 -3 -106q2 -13 11 -106.5
t10 -97.5q6 -35 6 -37q0 -9 3 -18q11 -44 19 -59q1 -1 2.5 -4t2.5 -4l3 -4q26 -18 46 -9l14 6q23 18 27 22q5 6 7 6q12 9 26 35l5 14q22 52 39 87q3 7 13 46q1 2 1.5 6.5t0.5 6.5q1 9 0 18q-2 16 -2 25q0 16 -3 31q-2 6 -4.5 18t-3.5 18q-4 20 -4 29v114v50q0 24 11 59
q6 16 22 24q12 6 28 13q8 4 14 -5l4 -7q4 -7 6 -10q3 -4 8 -13t6 -11q8 -14 12 -47v-8q-3 -13 -6 -38.5t-6 -37.5q-2 -14 -2 -22q-2 -12 -2 -18q-3 -22 -10 -39q-3 -7 -10 -41q-2 -9 -4 -26t-4 -26q-4 -16 -7 -23q-2 -6 -10 -43v-11l7 -40q1 -1 2 -3.5t1 -3.5q4 -7 8 -22
t7 -21q3 -9 3 -18q2 -17 9 -32q6 -12 8 -18q5 -11 14 -17q4 -4 12.5 -4.5t12.5 3.5q2 1 6 5l18 18q1 1 10 13q14 20 26 34q35 41 37 43q6 7 20 21q0 1 1 1t2 -1v-1q0 -1 -0.5 -2t-0.5 -2q-21 -32 -25 -38q-7 -14 -8 -17q-4 -8 -22.5 -30.5t-24.5 -28.5q-1 -1 -19 -22
q-9 -11 -20 -12l-18 -3q-4 -1 -11 -1q-14 2 -19 11l-12 18l-8 16q-11 18 -14 40l-6 29q-4 14 -7 20q-2 3 -3.5 6.5t-3 8t-2.5 6.5l-1 1q-3 0 -3 -1q-20 -32 -25 -51q-10 -31 -31 -62q-1 -3 -12 -16l-37 -37l-13 -6q-14 -8 -39 -10zM294 340h1h2l3 11q5 21 7 28q10 40 16 61
q3 15 3 16q3 31 12 59q7 20 7 43q0 27 -17 61q-3 6 -9 6q-17 3 -26 -10q-13 -20 -13 -36q0 -4 -0.5 -14t-0.5 -15q1 -31 1 -92q0 -41 3 -62q4 -34 8 -49zM293 783q19 23 47.5 66.5t47.5 81.5h106v-10q-21 -31 -66.5 -78.5t-76.5 -71.5h-58v12z" />
    <glyph glyph-name="Ucircumflex" unicode="&#xdb;" horiz-adv-x="730" 
d="M189 782q61 65 86 96.5t37 52.5h90q25 -49 125 -149v-11h-62q-44 26 -109 90q-64 -62 -107 -90h-60v11zM129 0q-3 0 -11 2q-10 5 -25 10q-16 6 -25 21q-2 5 -9 17t-10 19q-4 8 -9.5 34t-11 54.5t-6.5 32.5q-3 14 -9 77.5t-6 71.5v85q4 96 12 148q3 16 7 50q4 48 9 64
q1 2 1 5t1 4q2 4 6 4q1 1 2.5 -1t1.5 -3q1 -3 1 -9q0 -37 -4 -125v-79v-13q-3 -26 -3 -106q2 -13 11 -106.5t10 -97.5q6 -35 6 -37q0 -9 3 -18q11 -44 19 -59q1 -1 2.5 -4t2.5 -4l3 -4q26 -18 46 -9l14 6q23 18 27 22q5 6 7 6q12 9 26 35l5 14q22 52 39 87q3 7 13 46
q1 2 1.5 6.5t0.5 6.5q1 9 0 18q-2 16 -2 25q0 16 -3 31q-2 6 -4.5 18t-3.5 18q-4 20 -4 29v114v50q0 24 11 59q6 16 22 24q12 6 28 13q8 4 14 -5l4 -7q4 -7 6 -10q3 -4 8 -13t6 -11q8 -14 12 -47v-8q-3 -13 -6 -38.5t-6 -37.5q-2 -14 -2 -22q-2 -12 -2 -18q-3 -22 -10 -39
q-3 -7 -10 -41q-2 -9 -4 -26t-4 -26q-4 -16 -7 -23q-2 -6 -10 -43v-11l7 -40q1 -1 2 -3.5t1 -3.5q4 -7 8 -22t7 -21q3 -9 3 -18q2 -17 9 -32q6 -12 8 -18q5 -11 14 -17q4 -4 12.5 -4.5t12.5 3.5q2 1 6 5l18 18q1 1 10 13q14 20 26 34q35 41 37 43q6 7 20 21q0 1 1 1t2 -1v-1
q0 -1 -0.5 -2t-0.5 -2q-21 -32 -25 -38q-7 -14 -8 -17q-4 -8 -22.5 -30.5t-24.5 -28.5q-1 -1 -19 -22q-9 -11 -20 -12l-18 -3q-4 -1 -11 -1q-14 2 -19 11l-12 18l-8 16q-11 18 -14 40l-6 29q-4 14 -7 20q-2 3 -3.5 6.5t-3 8t-2.5 6.5l-1 1q-3 0 -3 -1q-20 -32 -25 -51
q-10 -31 -31 -62q-1 -3 -12 -16l-37 -37l-13 -6q-14 -8 -39 -10zM294 340h1h2l3 11q5 21 7 28q10 40 16 61q3 15 3 16q3 31 12 59q7 20 7 43q0 27 -17 61q-3 6 -9 6q-17 3 -26 -10q-13 -20 -13 -36q0 -4 -0.5 -14t-0.5 -15q1 -31 1 -92q0 -41 3 -62q4 -34 8 -49z" />
    <glyph glyph-name="Udieresis" unicode="&#xdc;" horiz-adv-x="504" 
d="M250 741l-10 2q-2 0 -4 4q-1 3 4 8q8 4 14 4q8 0 8 -8q0 -2 -2 -6q-3 -6 -10 -4zM130 741l-10 2q-2 0 -4 4q-1 3 4 8q8 4 14 4q8 0 8 -8q0 -2 -2 -6q-3 -6 -10 -4zM129 0q-3 0 -11 2q-10 5 -25 10q-16 6 -25 21q-2 5 -9 17t-10 19q-4 8 -9.5 34t-11 54.5t-6.5 32.5
q-3 14 -9 77.5t-6 71.5v85q4 96 12 148q3 16 7 50q4 48 9 64q1 2 1 5t1 4q2 4 6 4q1 1 2.5 -1t1.5 -3q1 -3 1 -9q0 -37 -4 -125v-79v-13q-3 -26 -3 -106q2 -13 11 -106.5t10 -97.5q6 -35 6 -37q0 -9 3 -18q11 -44 19 -59q1 -1 2.5 -4t2.5 -4l3 -4q26 -18 46 -9l14 6
q23 18 27 22q5 6 7 6q12 9 26 35l5 14q22 52 39 87q3 7 13 46q1 2 1.5 6.5t0.5 6.5q1 9 0 18q-2 16 -2 25q0 16 -3 31q-2 6 -4.5 18t-3.5 18q-4 20 -4 29v114v50q0 24 11 59q6 16 22 24q12 6 28 13q8 4 14 -5l4 -7q4 -7 6 -10q3 -4 8 -13t6 -11q8 -14 12 -47v-8
q-3 -13 -6 -38.5t-6 -37.5q-2 -14 -2 -22q-2 -12 -2 -18q-3 -22 -10 -39q-3 -7 -10 -41q-2 -9 -4 -26t-4 -26q-4 -16 -7 -23q-2 -6 -10 -43v-11l7 -40q1 -1 2 -3.5t1 -3.5q4 -7 8 -22t7 -21q3 -9 3 -18q2 -17 9 -32q6 -12 8 -18q5 -11 14 -17q4 -4 12.5 -4.5t12.5 3.5
q2 1 6 5l18 18q1 1 10 13q14 20 26 34q35 41 37 43q6 7 20 21q0 1 1 1t2 -1v-1q0 -1 -0.5 -2t-0.5 -2q-21 -32 -25 -38q-7 -14 -8 -17q-4 -8 -22.5 -30.5t-24.5 -28.5q-1 -1 -19 -22q-9 -11 -20 -12l-18 -3q-4 -1 -11 -1q-14 2 -19 11l-12 18l-8 16q-11 18 -14 40l-6 29
q-4 14 -7 20q-2 3 -3.5 6.5t-3 8t-2.5 6.5l-1 1q-3 0 -3 -1q-20 -32 -25 -51q-10 -31 -31 -62q-1 -3 -12 -16l-37 -37l-13 -6q-14 -8 -39 -10zM294 340h1h2l3 11q5 21 7 28q10 40 16 61q3 15 3 16q3 31 12 59q7 20 7 43q0 27 -17 61q-3 6 -9 6q-17 3 -26 -10
q-13 -20 -13 -36q0 -4 -0.5 -14t-0.5 -15q1 -31 1 -92q0 -41 3 -62q4 -34 8 -49z" />
    <glyph glyph-name="Yacute" unicode="&#xdd;" horiz-adv-x="565" 
d="M262 1l-32 5q-11 1 -19 9q-16 13 -32 31q-12 15 -12 36q0 14 10 27q8 10 20 18q25 18 54 30q7 4 21 10q11 5 9 16q0 12 -1 17q0 14 -3 27l-6 50q-2 13 -4 35q0 7 -2.5 27t-2.5 31v8q-2 10 -4 58q0 5 -2 15q-2 9 -11 4q-3 -2 -7.5 -5.5t-6.5 -4.5l-42 -28q-10 -8 -21 -8
q-4 0 -14 -2q-4 0 -11 -0.5t-10 -0.5q-27 -1 -50 17t-34 42q-12 24 -17 37q-13 28 -18 71l-3 29q0 9 -1 13q-5 51 -4 66q0 3 -0.5 7t-0.5 7q0 1 2 3q1 1 2.5 0.5t2.5 -1.5q12 -8 13 -21q1 -3 1 -9q2 -14 2 -21q2 -10 2 -16q0 -18 5 -40q9 -43 14 -61q4 -14 8 -21
q2 -3 4.5 -9t3.5 -9q5 -14 23 -38q15 -19 39 -19q5 0 14 0.5t13 0.5q2 0 4 0.5t4 0.5q42 14 59 29l12 9q10 9 18 23q2 2 2 9q-2 11 -2 52q0 25 8 52q2 4 4.5 11.5l3.5 10.5q5 14 11 22q9 13 24 19q12 4 23 0q1 0 3 -1.5t4 -2.5q23 -11 26 -35q8 -43 -14 -72q-16 -24 -25 -35
q-16 -20 -26 -29q-7 -6 -7 -15v-19t0.5 -22t2.5 -19q1 -4 1.5 -11.5t0.5 -9.5q3 -19 3 -56q0 -20 6 -56l9 -48q5 -22 5 -38q0 -6 2 -16q2 -6 9 -6t21 2l23 3q7 0 21 2q2 0 4.5 0.5t3.5 0.5q27 0 50 4l25 3q4 0 12.5 1t12.5 1q15 2 17 2q2 -2 2 -3v-2q-1 0 -1 -0.5t-1 -0.5
q-17 -9 -33 -10l-21 -3q-17 -4 -29 -5l-52 -6q-5 -1 -17 -1q-6 -1 -17 -2.5t-16 -2.5q-3 0 -5 -2q-5 -2 -6 -7v-2q1 -9 2.5 -36.5t2.5 -34.5q1 -21 -5 -43q-1 -6 -5 -18q-6 -16 -23 -19t-29 -1zM289 523q1 0 3 2q23 18 46 55q16 28 1 63q-7 16 -26 18q-15 1 -23 -11
q-12 -19 -14 -46q-1 -16 -1 -47q2 -16 6 -32q1 -2 4 -3t4 1zM246 24q16 -2 33 0q7 0 10 7q4 5 4 13q-3 30 -5 83q0 1 -3 19q-2 8 -9 6q-6 -3 -18 -7l-42 -21q-14 -7 -28 -21q-10 -9 -10.5 -22t11.5 -26l3 -2q29 -20 39 -25q10 -4 15 -4zM216 783q19 23 47.5 66.5t47.5 81.5
h106v-10q-21 -31 -66.5 -78.5t-76.5 -71.5h-58v12z" />
    <glyph glyph-name="Thorn" unicode="&#xde;" horiz-adv-x="604" 
d="M554 382q0 -110 -73.5 -168.5t-212.5 -58.5h-81v-155h-90v714h90v-124h96q137 0 204 -51.5t67 -156.5zM187 231h72q108 0 155 34.5t47 111.5q0 70 -44.5 103t-140.5 33h-89v-282z" />
    <glyph glyph-name="germandbls" unicode="&#xdf;" horiz-adv-x="232" 
d="M4 157l3 29q1 5 0 19.5t-1 19.5q0 3 4 1.5t4 0.5q0 8 12 23q11 13 20 23q2 2 6 8l12 12q4 2 9.5 7.5t6.5 5.5l18 14q11 8 27 10q4 1 22.5 -6t22.5 -11q5 -5 8 -11q6 -8 18 -26q2 -2 3 -4q9 -27 9 -37t-1 -15q-5 -34 -8 -44q0 -2 -0.5 -5t-0.5 -4q-5 -26 -19 -63
q-6 -16 -12 -24q-1 -1 -9 -11l-12 -15q0 -1 -4 -6t-5 -6q-3 -5 -16 -12q-19 -9 -39 -8q-4 0 -6 1q-35 17 -36 -7q0 -7 12 -10q23 -6 25 -6q16 -2 27 2q1 0 6.5 1.5t8.5 2.5l12 6l25 22q2 2 6 5t6 6l12 12q1 1 2 3.5t2.5 4.5t2.5 2q-1 0 0 2.5t3 5.5l1 3l3 8q14 30 20 55
q3 16 7 25q5 15 7 46v3v4v3q0 2 -0.5 5t-0.5 4q1 8 -1 26q-1 14 -9 38q-3 10 -9 17q-5 5 -11 13q-3 5 -16 16q-7 6 -17 6q-12 2 -16 2q-8 1 -17 0q-3 0 -6.5 -0.5t-8 -1.5t-6.5 -1q-7 -2 -10 -5l-11 -9q-3 -3 -23 -22.5t-25 -24.5q-3 -3 -6 -5t-6.5 -4.5t-4.5 -3.5l-9 -7
l1 -3q2 -2 3 -4l1 -2l-2 2q-2 24 -3 37v27v68q-4 28 -7 41q-7 31 -7 67q0 10 2 31t2 31l1 1v1q7 37 19 60q13 26 37 45q5 4 13 8q9 5 24 1q14 -4 24 -22q14 -27 6 -59q-1 -2 -3 -24q-1 -10 -3 -18q-1 -5 -3 -16t-4 -17t-8 -24.5t-8 -23.5l-3 -10q-4 -9 -23.5 -59t-26.5 -63
l-39 -76q0 -1 -26 -220t-26 -220q0 -4 3 -6q4 -4 8 2q1 1 27 219t26 219q32 68 56 103q6 10 26 56l20 46q8 18 14 37q11 39 13 49q1 5 2.5 21.5t2.5 22.5q0 2 0.5 8.5t1.5 9.5v18q0 9 -4 19q-5 13 -16 28l-5 7q-6 5 -16 10q-3 2 -25 4q-9 1 -12 0q-15 -3 -24 -12
q-3 -3 -8 -9t-8 -9l-23 -33q-5 -6 -11.5 -19.5t-8.5 -16.5q-2 -4 -2 -6t-2.5 -12.5t-3.5 -16.5q-1 -8 -2.5 -23t-2.5 -22q-4 -19 1 -44q2 -10 4 -26q0 -2 0.5 -6t0.5 -6q1 -6 5 -44.5t3 -49.5q0 -37 1 -55q3 -31 3 -62q0 -3 0.5 -9t0.5 -9q1 -4 0 -18t3 -32z" />
    <glyph glyph-name="agrave" unicode="&#xe0;" horiz-adv-x="561" 
d="M113 0q-30 5 -36 7q-24 7 -36 20q-10 8 -18 18q-14 14 -17 34q-7 29 -8 50q0 1 -3 56q0 23 8 47q1 4 5 17q8 26 32 52l10 10q30 27 70 35q21 3 42 3q2 -1 6 -1t6 -1q1 0 2 -0.5t2 -0.5q7 -2 15 -3.5t11.5 -2t10 -3.5t13.5 -8q14 -9 34 -35q7 -8 21 -44q5 -12 5 -24v-27
v-10q0 -26 -5 -45q-5 -18 -5 -56q2 -20 8 -32q3 -9 9 -15q10 -8 20 -3l15 9q2 2 7 12l21 49q4 12 13.5 35t14.5 34q0 1 5 8q0 2 4 4q1 1 3 0.5t2 -2.5v-8q-3 -22 -9 -43q0 -2 -1.5 -7t-1.5 -8q-2 -13 -11 -30q-6 -10 -11 -28q-5 -14 -15 -23q-3 -4 -12 -11q-5 -5 -15 -8
q-3 -2 -8 -2q-25 3 -37 19q-9 14 -12 30q-1 2 -2.5 6.5t-2.5 6.5q0 2 -2.5 2.5t-4.5 -1.5l-1 -1q-1 -1 -1 -2q-2 -2 -8.5 -10.5t-10.5 -12.5q-3 -6 -8 -9l-17 -14q-38 -22 -52 -26q-15 -4 -19 -5q-14 -3 -25 -2zM127 24q9 0 29 6q18 5 31 15q29 23 50 55q5 5 9 15
q11 31 12 46q0 1 3 17q5 35 -4 60l-6 21q-1 5 -5 15q-1 3 -2.5 6.5t-3.5 8t-3 6.5q-4 13 -17 20q-12 5 -23 12q-22 11 -44 11q-19 0 -50 -9q-21 -8 -32 -16q-18 -15 -37 -38q-3 -3 -5 -7q-14 -32 -16 -51q-3 -41 -2 -51q2 -18 2 -26q4 -38 10 -55q10 -28 36 -46
q29 -18 68 -15zM335 606h-59q-37 29 -80.5 76t-61.5 74v10h105q16 -32 44.5 -76.5t51.5 -71.5v-12z" />
    <glyph glyph-name="aacute" unicode="&#xe1;" horiz-adv-x="561" 
d="M113 0q-30 5 -36 7q-24 7 -36 20q-10 8 -18 18q-14 14 -17 34q-7 29 -8 50q0 1 -3 56q0 23 8 47q1 4 5 17q8 26 32 52l10 10q30 27 70 35q21 3 42 3q2 -1 6 -1t6 -1q1 0 2 -0.5t2 -0.5q7 -2 15 -3.5t11.5 -2t10 -3.5t13.5 -8q14 -9 34 -35q7 -8 21 -44q5 -12 5 -24v-27
v-10q0 -26 -5 -45q-5 -18 -5 -56q2 -20 8 -32q3 -9 9 -15q10 -8 20 -3l15 9q2 2 7 12l21 49q4 12 13.5 35t14.5 34q0 1 5 8q0 2 4 4q1 1 3 0.5t2 -2.5v-8q-3 -22 -9 -43q0 -2 -1.5 -7t-1.5 -8q-2 -13 -11 -30q-6 -10 -11 -28q-5 -14 -15 -23q-3 -4 -12 -11q-5 -5 -15 -8
q-3 -2 -8 -2q-25 3 -37 19q-9 14 -12 30q-1 2 -2.5 6.5t-2.5 6.5q0 2 -2.5 2.5t-4.5 -1.5l-1 -1q-1 -1 -1 -2q-2 -2 -8.5 -10.5t-10.5 -12.5q-3 -6 -8 -9l-17 -14q-38 -22 -52 -26q-15 -4 -19 -5q-14 -3 -25 -2zM127 24q9 0 29 6q18 5 31 15q29 23 50 55q5 5 9 15
q11 31 12 46q0 1 3 17q5 35 -4 60l-6 21q-1 5 -5 15q-1 3 -2.5 6.5t-3.5 8t-3 6.5q-4 13 -17 20q-12 5 -23 12q-22 11 -44 11q-19 0 -50 -9q-21 -8 -32 -16q-18 -15 -37 -38q-3 -3 -5 -7q-14 -32 -16 -51q-3 -41 -2 -51q2 -18 2 -26q4 -38 10 -55q10 -28 36 -46
q29 -18 68 -15zM213 618q19 23 47.5 66.5t47.5 81.5h106v-10q-21 -31 -66.5 -78.5t-76.5 -71.5h-58v12z" />
    <glyph glyph-name="acircumflex" unicode="&#xe2;" horiz-adv-x="561" 
d="M109 617q61 65 86 96.5t37 52.5h90q25 -49 125 -149v-11h-62q-44 26 -109 90q-64 -62 -107 -90h-60v11zM113 0q-30 5 -36 7q-24 7 -36 20q-10 8 -18 18q-14 14 -17 34q-7 29 -8 50q0 1 -3 56q0 23 8 47q1 4 5 17q8 26 32 52l10 10q30 27 70 35q21 3 42 3q2 -1 6 -1t6 -1
q1 0 2 -0.5t2 -0.5q7 -2 15 -3.5t11.5 -2t10 -3.5t13.5 -8q14 -9 34 -35q7 -8 21 -44q5 -12 5 -24v-27v-10q0 -26 -5 -45q-5 -18 -5 -56q2 -20 8 -32q3 -9 9 -15q10 -8 20 -3l15 9q2 2 7 12l21 49q4 12 13.5 35t14.5 34q0 1 5 8q0 2 4 4q1 1 3 0.5t2 -2.5v-8q-3 -22 -9 -43
q0 -2 -1.5 -7t-1.5 -8q-2 -13 -11 -30q-6 -10 -11 -28q-5 -14 -15 -23q-3 -4 -12 -11q-5 -5 -15 -8q-3 -2 -8 -2q-25 3 -37 19q-9 14 -12 30q-1 2 -2.5 6.5t-2.5 6.5q0 2 -2.5 2.5t-4.5 -1.5l-1 -1q-1 -1 -1 -2q-2 -2 -8.5 -10.5t-10.5 -12.5q-3 -6 -8 -9l-17 -14
q-38 -22 -52 -26q-15 -4 -19 -5q-14 -3 -25 -2zM127 24q9 0 29 6q18 5 31 15q29 23 50 55q5 5 9 15q11 31 12 46q0 1 3 17q5 35 -4 60l-6 21q-1 5 -5 15q-1 3 -2.5 6.5t-3.5 8t-3 6.5q-4 13 -17 20q-12 5 -23 12q-22 11 -44 11q-19 0 -50 -9q-21 -8 -32 -16q-18 -15 -37 -38
q-3 -3 -5 -7q-14 -32 -16 -51q-3 -41 -2 -51q2 -18 2 -26q4 -38 10 -55q10 -28 36 -46q29 -18 68 -15z" />
    <glyph glyph-name="atilde" unicode="&#xe3;" horiz-adv-x="561" 
d="M356 607q-21 0 -41 9t-39.5 19.5t-37 19.5t-34.5 9q-24 0 -36 -14.5t-19 -43.5h-51q6 60 34 94t76 34q22 0 42.5 -9t39.5 -19.5t37 -19.5t33 -9q23 0 35.5 14.5t19.5 43.5h50q-6 -58 -34 -93t-75 -35zM113 0q-30 5 -36 7q-24 7 -36 20q-10 8 -18 18q-14 14 -17 34
q-7 29 -8 50q0 1 -3 56q0 23 8 47q1 4 5 17q8 26 32 52l10 10q30 27 70 35q21 3 42 3q2 -1 6 -1t6 -1q1 0 2 -0.5t2 -0.5q7 -2 15 -3.5t11.5 -2t10 -3.5t13.5 -8q14 -9 34 -35q7 -8 21 -44q5 -12 5 -24v-27v-10q0 -26 -5 -45q-5 -18 -5 -56q2 -20 8 -32q3 -9 9 -15
q10 -8 20 -3l15 9q2 2 7 12l21 49q4 12 13.5 35t14.5 34q0 1 5 8q0 2 4 4q1 1 3 0.5t2 -2.5v-8q-3 -22 -9 -43q0 -2 -1.5 -7t-1.5 -8q-2 -13 -11 -30q-6 -10 -11 -28q-5 -14 -15 -23q-3 -4 -12 -11q-5 -5 -15 -8q-3 -2 -8 -2q-25 3 -37 19q-9 14 -12 30q-1 2 -2.5 6.5
t-2.5 6.5q0 2 -2.5 2.5t-4.5 -1.5l-1 -1q-1 -1 -1 -2q-2 -2 -8.5 -10.5t-10.5 -12.5q-3 -6 -8 -9l-17 -14q-38 -22 -52 -26q-15 -4 -19 -5q-14 -3 -25 -2zM127 24q9 0 29 6q18 5 31 15q29 23 50 55q5 5 9 15q11 31 12 46q0 1 3 17q5 35 -4 60l-6 21q-1 5 -5 15
q-1 3 -2.5 6.5t-3.5 8t-3 6.5q-4 13 -17 20q-12 5 -23 12q-22 11 -44 11q-19 0 -50 -9q-21 -8 -32 -16q-18 -15 -37 -38q-3 -3 -5 -7q-14 -32 -16 -51q-3 -41 -2 -51q2 -18 2 -26q4 -38 10 -55q10 -28 36 -46q29 -18 68 -15z" />
    <glyph glyph-name="adieresis" unicode="&#xe4;" horiz-adv-x="388" 
d="M200 391l-10 2q-2 0 -4 4q-1 3 4 8q8 4 14 4q8 0 8 -8q0 -2 -2 -6q-3 -6 -10 -4zM120 391l-10 2q-2 0 -4 4q-1 3 4 8q8 4 14 4q8 0 8 -8q0 -2 -2 -6q-3 -6 -10 -4zM113 0q-30 5 -36 7q-24 7 -36 20q-10 8 -18 18q-14 14 -17 34q-7 29 -8 50q0 1 -3 56q0 23 8 47q1 4 5 17
q8 26 32 52l10 10q30 27 70 35q21 3 42 3q2 -1 6 -1t6 -1q1 0 2 -0.5t2 -0.5q7 -2 15 -3.5t11.5 -2t10 -3.5t13.5 -8q14 -9 34 -35q7 -8 21 -44q5 -12 5 -24v-27v-10q0 -26 -5 -45q-5 -18 -5 -56q2 -20 8 -32q3 -9 9 -15q10 -8 20 -3l15 9q2 2 7 12l21 49q4 12 13.5 35
t14.5 34q0 1 5 8q0 2 4 4q1 1 3 0.5t2 -2.5v-8q-3 -22 -9 -43q0 -2 -1.5 -7t-1.5 -8q-2 -13 -11 -30q-6 -10 -11 -28q-5 -14 -15 -23q-3 -4 -12 -11q-5 -5 -15 -8q-3 -2 -8 -2q-25 3 -37 19q-9 14 -12 30q-1 2 -2.5 6.5t-2.5 6.5q0 2 -2.5 2.5t-4.5 -1.5l-1 -1q-1 -1 -1 -2
q-2 -2 -8.5 -10.5t-10.5 -12.5q-3 -6 -8 -9l-17 -14q-38 -22 -52 -26q-15 -4 -19 -5q-14 -3 -25 -2zM127 24q9 0 29 6q18 5 31 15q29 23 50 55q5 5 9 15q11 31 12 46q0 1 3 17q5 35 -4 60l-6 21q-1 5 -5 15q-1 3 -2.5 6.5t-3.5 8t-3 6.5q-4 13 -17 20q-12 5 -23 12
q-22 11 -44 11q-19 0 -50 -9q-21 -8 -32 -16q-18 -15 -37 -38q-3 -3 -5 -7q-14 -32 -16 -51q-3 -41 -2 -51q2 -18 2 -26q4 -38 10 -55q10 -28 36 -46q29 -18 68 -15z" />
    <glyph glyph-name="aring" unicode="&#xe5;" horiz-adv-x="561" 
d="M397 713q0 -49 -30.5 -78t-80.5 -29t-79.5 28.5t-29.5 77.5q0 48 29.5 76.5t79.5 28.5q49 0 80 -29t31 -75zM342 712q0 26 -16 41t-40 15t-40 -15t-16 -41t14.5 -41t41.5 -15q25 0 40.5 15t15.5 41zM113 0q-30 5 -36 7q-24 7 -36 20q-10 8 -18 18q-14 14 -17 34
q-7 29 -8 50q0 1 -3 56q0 23 8 47q1 4 5 17q8 26 32 52l10 10q30 27 70 35q21 3 42 3q2 -1 6 -1t6 -1q1 0 2 -0.5t2 -0.5q7 -2 15 -3.5t11.5 -2t10 -3.5t13.5 -8q14 -9 34 -35q7 -8 21 -44q5 -12 5 -24v-27v-10q0 -26 -5 -45q-5 -18 -5 -56q2 -20 8 -32q3 -9 9 -15
q10 -8 20 -3l15 9q2 2 7 12l21 49q4 12 13.5 35t14.5 34q0 1 5 8q0 2 4 4q1 1 3 0.5t2 -2.5v-8q-3 -22 -9 -43q0 -2 -1.5 -7t-1.5 -8q-2 -13 -11 -30q-6 -10 -11 -28q-5 -14 -15 -23q-3 -4 -12 -11q-5 -5 -15 -8q-3 -2 -8 -2q-25 3 -37 19q-9 14 -12 30q-1 2 -2.5 6.5
t-2.5 6.5q0 2 -2.5 2.5t-4.5 -1.5l-1 -1q-1 -1 -1 -2q-2 -2 -8.5 -10.5t-10.5 -12.5q-3 -6 -8 -9l-17 -14q-38 -22 -52 -26q-15 -4 -19 -5q-14 -3 -25 -2zM127 24q9 0 29 6q18 5 31 15q29 23 50 55q5 5 9 15q11 31 12 46q0 1 3 17q5 35 -4 60l-6 21q-1 5 -5 15
q-1 3 -2.5 6.5t-3.5 8t-3 6.5q-4 13 -17 20q-12 5 -23 12q-22 11 -44 11q-19 0 -50 -9q-21 -8 -32 -16q-18 -15 -37 -38q-3 -3 -5 -7q-14 -32 -16 -51q-3 -41 -2 -51q2 -18 2 -26q4 -38 10 -55q10 -28 36 -46q29 -18 68 -15z" />
    <glyph glyph-name="ae" unicode="&#xe6;" horiz-adv-x="863" 
d="M46 149q0 163 244 171l90 3v34q0 60 -27.5 88.5t-84.5 28.5q-68 0 -150 -41l-27 66q35 20 84.5 33t99.5 13q62 0 102.5 -20.5t61.5 -65.5q26 42 67.5 64.5t96.5 22.5q96 0 153 -66t57 -174v-54h-343q4 -187 155 -187q43 0 80.5 8t83.5 29v-77q-43 -19 -80 -27t-87 -8
q-142 0 -203 113q-40 -61 -88.5 -87t-114.5 -26q-80 0 -125 42t-45 117zM137 148q0 -45 25.5 -66t67.5 -21q68 0 108 40t40 113v48l-75 -3q-86 -3 -126 -29t-40 -82zM602 474q-58 0 -91 -39t-39 -114h248q0 74 -30.5 113.5t-87.5 39.5z" />
    <glyph glyph-name="ccedilla" unicode="&#xe7;" horiz-adv-x="479" 
d="M111 0q-25 3 -42 16q-7 4 -19 12q-14 6 -21 18q-11 16 -11 17q-14 26 -19 40q-7 16 -9 41v12q-1 19 7 42q3 13 7 23q6 16 10 24q12 24 17 36q6 16 22 32q17 16 43 28q8 4 13 5q13 3 32 1q8 -3 10 -4q4 -2 8.5 -4t10.5 -5t9 -5q9 -3 12 -14q0 -3 -1 -4q0 -2 -2 -2t-3 1
l-6 3q-6 6 -26 15q-19 10 -38 4q-22 -7 -37 -19q-22 -16 -37 -47q-1 -1 -2 -4t-2.5 -5.5t-2.5 -4.5q-9 -15 -17 -47q-8 -35 -5 -56q2 -12 15 -46q1 -2 3 -6.5t3.5 -8t2.5 -6.5q8 -14 14 -19l21 -21q10 -8 19 -11q3 -1 6.5 -2.5t5.5 -1.5q5 -2 33 3t39 10q6 4 9 5
q7 5 20 15.5t20 15.5q7 7 12 11q15 10 28 29q7 12 15 27q4 7 10 21q1 3 5 7h5q2 -2 2 -4q0 -5 -2 -13q-4 -7 -13 -25.5t-15 -27.5q-10 -12 -15 -17q-20 -18 -29 -28q-13 -15 -43 -34q-1 0 -3 -1.5t-4 -2.5q-19 -13 -43 -18q-14 -2 -21 0h-1zM374 -139q0 -48 -37 -74.5
t-111 -26.5q-32 0 -50 5v55q18 -5 53 -5q37 0 55.5 9.5t18.5 34.5q0 43 -91 55l43 86h58l-26 -53q87 -19 87 -86z" />
    <glyph glyph-name="egrave" unicode="&#xe8;" horiz-adv-x="563" 
d="M121 0q-32 1 -61 20q-6 5 -13 8q-9 5 -24 20q-2 2 -6 8q-12 22 -21 48q-6 18 -6 29q0 35 3 52q1 27 18 66q13 30 39 53q8 8 24 17l25 12q2 1 7 3t7 3q14 3 37 7q4 0 8 0.5t9 1.5t8 1q14 0 21 -1q10 -2 16 -2q13 -3 28 -14q12 -9 30 -35q6 -8 3 -17q-2 -18 -7 -27
q-2 -3 -4 -7q-2 -8 -11 -17l-9 -9q-10 -13 -32 -21q-22 -6 -54 -20q-15 -6 -37 -8q-18 -1 -34 3q-14 4 -21 4q-4 0 -7 3q-1 1 -0.5 3.5t1.5 2.5q4 1 10 1q3 -1 8.5 -2.5t7.5 -1.5q12 -4 26 -1q12 2 18 4q6 1 19 4.5t21 5.5q18 5 42 19q4 2 11 11q3 5 9 14t10 13q6 11 2 21
q0 2 -2 8q-3 11 -14 17q-11 9 -30 12q-21 4 -47 4q-43 0 -76 -31q-30 -30 -43 -55q-4 -9 -9 -27q0 -1 -1 -3q-2 -4 -2 -6q-2 -12 -4 -34q-1 -7 -1 -19q0 -2 -0.5 -6t-0.5 -6q-2 -29 8 -46q4 -12 12 -25q2 -3 13 -12q5 -3 13.5 -9t11.5 -8q23 -14 46 -14q1 0 10 1t14 1
q18 0 31 5q19 6 46 22l18 11q3 2 7.5 6t5.5 4l11 11q11 10 17 14q0 1 2 2.5t3 2.5q22 23 34 42q2 3 14 23q7 12 21 23q6 6 14 1q2 -1 2 -3l-1 -2l-1 -1q-1 -2 -2 -3l-2 -1q-1 0 -2 -1q-5 -7 -8 -13q-2 -5 -8.5 -18.5t-10.5 -20.5l-1 -1q-31 -38 -50 -57q-10 -10 -19 -15
q-18 -13 -56 -33q-11 -6 -30 -13q-6 -2 -12 -2h-42zM353 606h-59q-37 29 -80.5 76t-61.5 74v10h105q16 -32 44.5 -76.5t51.5 -71.5v-12z" />
    <glyph glyph-name="eacute" unicode="&#xe9;" horiz-adv-x="563" 
d="M121 0q-32 1 -61 20q-6 5 -13 8q-9 5 -24 20q-2 2 -6 8q-12 22 -21 48q-6 18 -6 29q0 35 3 52q1 27 18 66q13 30 39 53q8 8 24 17l25 12q2 1 7 3t7 3q14 3 37 7q4 0 8 0.5t9 1.5t8 1q14 0 21 -1q10 -2 16 -2q13 -3 28 -14q12 -9 30 -35q6 -8 3 -17q-2 -18 -7 -27
q-2 -3 -4 -7q-2 -8 -11 -17l-9 -9q-10 -13 -32 -21q-22 -6 -54 -20q-15 -6 -37 -8q-18 -1 -34 3q-14 4 -21 4q-4 0 -7 3q-1 1 -0.5 3.5t1.5 2.5q4 1 10 1q3 -1 8.5 -2.5t7.5 -1.5q12 -4 26 -1q12 2 18 4q6 1 19 4.5t21 5.5q18 5 42 19q4 2 11 11q3 5 9 14t10 13q6 11 2 21
q0 2 -2 8q-3 11 -14 17q-11 9 -30 12q-21 4 -47 4q-43 0 -76 -31q-30 -30 -43 -55q-4 -9 -9 -27q0 -1 -1 -3q-2 -4 -2 -6q-2 -12 -4 -34q-1 -7 -1 -19q0 -2 -0.5 -6t-0.5 -6q-2 -29 8 -46q4 -12 12 -25q2 -3 13 -12q5 -3 13.5 -9t11.5 -8q23 -14 46 -14q1 0 10 1t14 1
q18 0 31 5q19 6 46 22l18 11q3 2 7.5 6t5.5 4l11 11q11 10 17 14q0 1 2 2.5t3 2.5q22 23 34 42q2 3 14 23q7 12 21 23q6 6 14 1q2 -1 2 -3l-1 -2l-1 -1q-1 -2 -2 -3l-2 -1q-1 0 -2 -1q-5 -7 -8 -13q-2 -5 -8.5 -18.5t-10.5 -20.5l-1 -1q-31 -38 -50 -57q-10 -10 -19 -15
q-18 -13 -56 -33q-11 -6 -30 -13q-6 -2 -12 -2h-42zM228 618q19 23 47.5 66.5t47.5 81.5h106v-10q-21 -31 -66.5 -78.5t-76.5 -71.5h-58v12z" />
    <glyph glyph-name="ecircumflex" unicode="&#xea;" horiz-adv-x="563" 
d="M124 617q61 65 86 96.5t37 52.5h90q25 -49 125 -149v-11h-62q-44 26 -109 90q-64 -62 -107 -90h-60v11zM121 0q-32 1 -61 20q-6 5 -13 8q-9 5 -24 20q-2 2 -6 8q-12 22 -21 48q-6 18 -6 29q0 35 3 52q1 27 18 66q13 30 39 53q8 8 24 17l25 12q2 1 7 3t7 3q14 3 37 7
q4 0 8 0.5t9 1.5t8 1q14 0 21 -1q10 -2 16 -2q13 -3 28 -14q12 -9 30 -35q6 -8 3 -17q-2 -18 -7 -27q-2 -3 -4 -7q-2 -8 -11 -17l-9 -9q-10 -13 -32 -21q-22 -6 -54 -20q-15 -6 -37 -8q-18 -1 -34 3q-14 4 -21 4q-4 0 -7 3q-1 1 -0.5 3.5t1.5 2.5q4 1 10 1q3 -1 8.5 -2.5
t7.5 -1.5q12 -4 26 -1q12 2 18 4q6 1 19 4.5t21 5.5q18 5 42 19q4 2 11 11q3 5 9 14t10 13q6 11 2 21q0 2 -2 8q-3 11 -14 17q-11 9 -30 12q-21 4 -47 4q-43 0 -76 -31q-30 -30 -43 -55q-4 -9 -9 -27q0 -1 -1 -3q-2 -4 -2 -6q-2 -12 -4 -34q-1 -7 -1 -19q0 -2 -0.5 -6
t-0.5 -6q-2 -29 8 -46q4 -12 12 -25q2 -3 13 -12q5 -3 13.5 -9t11.5 -8q23 -14 46 -14q1 0 10 1t14 1q18 0 31 5q19 6 46 22l18 11q3 2 7.5 6t5.5 4l11 11q11 10 17 14q0 1 2 2.5t3 2.5q22 23 34 42q2 3 14 23q7 12 21 23q6 6 14 1q2 -1 2 -3l-1 -2l-1 -1q-1 -2 -2 -3l-2 -1
q-1 0 -2 -1q-5 -7 -8 -13q-2 -5 -8.5 -18.5t-10.5 -20.5l-1 -1q-31 -38 -50 -57q-10 -10 -19 -15q-18 -13 -56 -33q-11 -6 -30 -13q-6 -2 -12 -2h-42z" />
    <glyph glyph-name="edieresis" unicode="&#xeb;" horiz-adv-x="563" 
d="M121 0q-32 1 -61 20q-6 5 -13 8q-9 5 -24 20q-2 2 -6 8q-12 22 -21 48q-6 18 -6 29q0 35 3 52q1 27 18 66q13 30 39 53q8 8 24 17l25 12q2 1 7 3t7 3q14 3 37 7q4 0 8 0.5t9 1.5t8 1q14 0 21 -1q10 -2 16 -2q13 -3 28 -14q12 -9 30 -35q6 -8 3 -17q-2 -18 -7 -27
q-2 -3 -4 -7q-2 -8 -11 -17l-9 -9q-10 -13 -32 -21q-22 -6 -54 -20q-15 -6 -37 -8q-18 -1 -34 3q-14 4 -21 4q-4 0 -7 3q-1 1 -0.5 3.5t1.5 2.5q4 1 10 1q3 -1 8.5 -2.5t7.5 -1.5q12 -4 26 -1q12 2 18 4q6 1 19 4.5t21 5.5q18 5 42 19q4 2 11 11q3 5 9 14t10 13q6 11 2 21
q0 2 -2 8q-3 11 -14 17q-11 9 -30 12q-21 4 -47 4q-43 0 -76 -31q-30 -30 -43 -55q-4 -9 -9 -27q0 -1 -1 -3q-2 -4 -2 -6q-2 -12 -4 -34q-1 -7 -1 -19q0 -2 -0.5 -6t-0.5 -6q-2 -29 8 -46q4 -12 12 -25q2 -3 13 -12q5 -3 13.5 -9t11.5 -8q23 -14 46 -14q1 0 10 1t14 1
q18 0 31 5q19 6 46 22l18 11q3 2 7.5 6t5.5 4l11 11q11 10 17 14q0 1 2 2.5t3 2.5q22 23 34 42q2 3 14 23q7 12 21 23q6 6 14 1q2 -1 2 -3l-1 -2l-1 -1q-1 -2 -2 -3l-2 -1q-1 0 -2 -1q-5 -7 -8 -13q-2 -5 -8.5 -18.5t-10.5 -20.5l-1 -1q-31 -38 -50 -57q-10 -10 -19 -15
q-18 -13 -56 -33q-11 -6 -30 -13q-6 -2 -12 -2h-42zM154 681q0 26 13.5 37.5t33.5 11.5q19 0 33 -11.5t14 -37.5t-14 -38t-33 -12q-20 0 -33.5 12t-13.5 38zM342 681q0 26 13.5 37.5t32.5 11.5t33 -11.5t14 -37.5t-14 -38t-33 -12t-32.5 12t-13.5 38z" />
    <glyph glyph-name="igrave" unicode="&#xec;" horiz-adv-x="257" 
d="M173 0h-88v536h88v-536zM180 606h-59q-37 29 -80.5 76t-61.5 74v10h105q16 -32 44.5 -76.5t51.5 -71.5v-12z" />
    <glyph glyph-name="iacute" unicode="&#xed;" horiz-adv-x="257" 
d="M173 0h-88v536h88v-536zM82 618q19 23 47.5 66.5t47.5 81.5h106v-10q-21 -31 -66.5 -78.5t-76.5 -71.5h-58v12z" />
    <glyph glyph-name="icircumflex" unicode="&#xee;" horiz-adv-x="257" 
d="M-40 617q61 65 86 96.5t37 52.5h90q25 -49 125 -149v-11h-62q-44 26 -109 90q-64 -62 -107 -90h-60v11zM173 0h-88v536h88v-536z" />
    <glyph glyph-name="idieresis" unicode="&#xef;" horiz-adv-x="257" 
d="M173 0h-88v536h88v-536zM-11 681q0 26 13.5 37.5t33.5 11.5q19 0 33 -11.5t14 -37.5t-14 -38t-33 -12q-20 0 -33.5 12t-13.5 38zM177 681q0 26 13.5 37.5t32.5 11.5t33 -11.5t14 -37.5t-14 -38t-33 -12t-32.5 12t-13.5 38z" />
    <glyph glyph-name="eth" unicode="&#xf0;" horiz-adv-x="604" 
d="M551 275q0 -138 -65 -211.5t-185 -73.5q-110 0 -178 66.5t-68 176.5q0 112 63.5 176t171.5 64q110 0 156 -58l4 2q-29 104 -124 191l-130 -75l-38 55l112 64q-42 28 -90 53l36 60q76 -36 126 -72l115 67l38 -54l-99 -57q74 -68 114.5 -164.5t40.5 -209.5zM462 251
q0 70 -43 110.5t-116 40.5q-81 0 -120 -42.5t-39 -129.5q0 -81 41 -124.5t118 -43.5q83 0 121 48.5t38 140.5z" />
    <glyph glyph-name="ntilde" unicode="&#xf1;" horiz-adv-x="618" 
d="M392 607q-21 0 -41 9t-39.5 19.5t-37 19.5t-34.5 9q-24 0 -36 -14.5t-19 -43.5h-51q6 60 34 94t76 34q22 0 42.5 -9t39.5 -19.5t37 -19.5t33 -9q23 0 35.5 14.5t19.5 43.5h50q-6 -58 -34 -93t-75 -35zM172 0q-22 0 -37 21q-13 19 -17 37q-12 48 -12 74v36v42v36q0 2 3 32
q2 22 2 33q0 12 -6 21q-3 5 -6 2q-3 0 -5 -2q-3 -3 -9 -11l-13 -21q0 -1 -5 -8q-4 -11 -14.5 -30.5t-13.5 -25.5l-15 -34q-2 -4 -2 -14v-55q0 -15 3 -32q7 -45 0 -89v-2q-3 -8 -10 -8t-9 7q-4 8 -6 24q-1 15 -5 50q-2 20 -2 30l-3 35q0 4 0.5 11t0.5 10l1 77q0 56 1 85
q0 2 0.5 6t0.5 7q5 1 6 0q8 -24 8 -38q-1 -23 8 -58l2 -2q3 0 4 1l4 8l9 21q8 19 32 51q11 12 24 19q4 0 8 2q19 2 25 -14q4 -9 4 -23q1 -11 1 -32v-59q1 -6 1 -18q2 -9 2 -28v-27q0 -23 3 -34q1 -2 1 -7q1 -7 2.5 -23t1.5 -23q2 -12 4 -17q3 -9 8 -12q9 -11 22 -6q2 0 13 6
q13 10 21 19q5 7 8 14q1 2 2.5 6t2.5 6q16 56 19 72q2 8 4 12q0 2 3 2q2 -2 2 -3q2 -4 2 -5q0 -23 -2 -34q-5 -17 -6 -33q-1 -13 -10 -27q-5 -8 -15 -26q-2 -3 -6 -7q-5 -3 -21 -19l-5 -5q-8 -4 -14 -3z" />
    <glyph glyph-name="ograve" unicode="&#xf2;" horiz-adv-x="604" 
d="M95 1q-15 0 -34 12l-5 5q-20 13 -31 36q-1 2 -4.5 6.5t-4.5 6.5q-10 11 -17 33q-9 41 -9 71q2 44 20 78q7 13 13 26q4 11 13 20q18 20 29 28q21 15 53 24q11 4 28 2q2 0 3 -1q0 -1 2 -3q0 -3 -2 -3q-3 -3 -5 -4q-5 -1 -13 -3.5t-10 -3.5q-9 -2 -37 -16q-2 -2 -4 -3
q-27 -16 -42 -51q-3 -5 -7.5 -15t-6.5 -15q-9 -20 -8 -40q0 -21 2 -31q0 -10 1 -16q2 -20 4 -31q2 -8 4 -13q1 -3 4.5 -11t5.5 -13q5 -11 16 -26q11 -12 29 -22q10 -5 20 -5q4 0 14 -0.5t14 -0.5q10 0 28 6q32 10 68 39l4 4q8 8 -2 14q-3 1 -11 5q-39 19 -65 50
q-8 10 -15 23l-5 9q-10 16 -14 50q0 9 -2 27q-1 10 0 19q2 10 2 14q2 6 4 10q9 19 25 34q10 8 19 8q18 2 33 -1q5 -1 16 -2.5t16 -2.5h3l2 -1q6 -2 17.5 -5t16.5 -5q10 -4 16 -9q3 -2 5 -5q12 -20 14 -31l3.5 -17.5t3.5 -19.5q5 -33 -3 -57l-21 -59q-1 -3 -4.5 -9t-4.5 -8
l-3 -7q-2 -5 2 -5h2q2 -1 3 -1q40 0 66 25q18 16 26 25q23 23 29 35q11 14 15 20q1 1 5 6t7 7q0 -2 -0.5 -6t-1.5 -6q-17 -38 -25 -51q-5 -10 -6 -11q-10 -8 -20 -24q-2 -4 -12.5 -11.5t-12.5 -7.5q-4 -2 -14 -5.5t-15 -5.5q-8 -3 -24 -5h-28q-5 0 -10 -5q-5 -8 -34 -32
l-26 -17q-5 -2 -14.5 -7t-13.5 -7q-2 -1 -15 -4q-29 -3 -64 -1zM233 99q13 -4 19 6q2 2 4 8q20 44 27 83q4 28 -4 60q-3 12 -7 19q-2 5 -7 8q-16 10 -25 14q-7 3 -20.5 7t-17.5 5q-2 1 -29 6q-6 2 -10 -1q-20 -13 -24 -39q-2 -12 -4 -17q-1 -2 -1 -5q-2 -31 0 -45
q0 -6 3 -12q3 -8 11 -24q17 -28 28 -38q20 -16 31 -24q11 -10 26 -11zM367 606h-59q-37 29 -80.5 76t-61.5 74v10h105q16 -32 44.5 -76.5t51.5 -71.5v-12z" />
    <glyph glyph-name="oacute" unicode="&#xf3;" horiz-adv-x="604" 
d="M95 1q-15 0 -34 12l-5 5q-20 13 -31 36q-1 2 -4.5 6.5t-4.5 6.5q-10 11 -17 33q-9 41 -9 71q2 44 20 78q7 13 13 26q4 11 13 20q18 20 29 28q21 15 53 24q11 4 28 2q2 0 3 -1q0 -1 2 -3q0 -3 -2 -3q-3 -3 -5 -4q-5 -1 -13 -3.5t-10 -3.5q-9 -2 -37 -16q-2 -2 -4 -3
q-27 -16 -42 -51q-3 -5 -7.5 -15t-6.5 -15q-9 -20 -8 -40q0 -21 2 -31q0 -10 1 -16q2 -20 4 -31q2 -8 4 -13q1 -3 4.5 -11t5.5 -13q5 -11 16 -26q11 -12 29 -22q10 -5 20 -5q4 0 14 -0.5t14 -0.5q10 0 28 6q32 10 68 39l4 4q8 8 -2 14q-3 1 -11 5q-39 19 -65 50
q-8 10 -15 23l-5 9q-10 16 -14 50q0 9 -2 27q-1 10 0 19q2 10 2 14q2 6 4 10q9 19 25 34q10 8 19 8q18 2 33 -1q5 -1 16 -2.5t16 -2.5h3l2 -1q6 -2 17.5 -5t16.5 -5q10 -4 16 -9q3 -2 5 -5q12 -20 14 -31l3.5 -17.5t3.5 -19.5q5 -33 -3 -57l-21 -59q-1 -3 -4.5 -9t-4.5 -8
l-3 -7q-2 -5 2 -5h2q2 -1 3 -1q40 0 66 25q18 16 26 25q23 23 29 35q11 14 15 20q1 1 5 6t7 7q0 -2 -0.5 -6t-1.5 -6q-17 -38 -25 -51q-5 -10 -6 -11q-10 -8 -20 -24q-2 -4 -12.5 -11.5t-12.5 -7.5q-4 -2 -14 -5.5t-15 -5.5q-8 -3 -24 -5h-28q-5 0 -10 -5q-5 -8 -34 -32
l-26 -17q-5 -2 -14.5 -7t-13.5 -7q-2 -1 -15 -4q-29 -3 -64 -1zM233 99q13 -4 19 6q2 2 4 8q20 44 27 83q4 28 -4 60q-3 12 -7 19q-2 5 -7 8q-16 10 -25 14q-7 3 -20.5 7t-17.5 5q-2 1 -29 6q-6 2 -10 -1q-20 -13 -24 -39q-2 -12 -4 -17q-1 -2 -1 -5q-2 -31 0 -45
q0 -6 3 -12q3 -8 11 -24q17 -28 28 -38q20 -16 31 -24q11 -10 26 -11zM233 618q19 23 47.5 66.5t47.5 81.5h106v-10q-21 -31 -66.5 -78.5t-76.5 -71.5h-58v12z" />
    <glyph glyph-name="ocircumflex" unicode="&#xf4;" horiz-adv-x="604" 
d="M133 617q61 65 86 96.5t37 52.5h90q25 -49 125 -149v-11h-62q-44 26 -109 90q-64 -62 -107 -90h-60v11zM95 1q-15 0 -34 12l-5 5q-20 13 -31 36q-1 2 -4.5 6.5t-4.5 6.5q-10 11 -17 33q-9 41 -9 71q2 44 20 78q7 13 13 26q4 11 13 20q18 20 29 28q21 15 53 24q11 4 28 2
q2 0 3 -1q0 -1 2 -3q0 -3 -2 -3q-3 -3 -5 -4q-5 -1 -13 -3.5t-10 -3.5q-9 -2 -37 -16q-2 -2 -4 -3q-27 -16 -42 -51q-3 -5 -7.5 -15t-6.5 -15q-9 -20 -8 -40q0 -21 2 -31q0 -10 1 -16q2 -20 4 -31q2 -8 4 -13q1 -3 4.5 -11t5.5 -13q5 -11 16 -26q11 -12 29 -22q10 -5 20 -5
q4 0 14 -0.5t14 -0.5q10 0 28 6q32 10 68 39l4 4q8 8 -2 14q-3 1 -11 5q-39 19 -65 50q-8 10 -15 23l-5 9q-10 16 -14 50q0 9 -2 27q-1 10 0 19q2 10 2 14q2 6 4 10q9 19 25 34q10 8 19 8q18 2 33 -1q5 -1 16 -2.5t16 -2.5h3l2 -1q6 -2 17.5 -5t16.5 -5q10 -4 16 -9
q3 -2 5 -5q12 -20 14 -31l3.5 -17.5t3.5 -19.5q5 -33 -3 -57l-21 -59q-1 -3 -4.5 -9t-4.5 -8l-3 -7q-2 -5 2 -5h2q2 -1 3 -1q40 0 66 25q18 16 26 25q23 23 29 35q11 14 15 20q1 1 5 6t7 7q0 -2 -0.5 -6t-1.5 -6q-17 -38 -25 -51q-5 -10 -6 -11q-10 -8 -20 -24
q-2 -4 -12.5 -11.5t-12.5 -7.5q-4 -2 -14 -5.5t-15 -5.5q-8 -3 -24 -5h-28q-5 0 -10 -5q-5 -8 -34 -32l-26 -17q-5 -2 -14.5 -7t-13.5 -7q-2 -1 -15 -4q-29 -3 -64 -1zM233 99q13 -4 19 6q2 2 4 8q20 44 27 83q4 28 -4 60q-3 12 -7 19q-2 5 -7 8q-16 10 -25 14q-7 3 -20.5 7
t-17.5 5q-2 1 -29 6q-6 2 -10 -1q-20 -13 -24 -39q-2 -12 -4 -17q-1 -2 -1 -5q-2 -31 0 -45q0 -6 3 -12q3 -8 11 -24q17 -28 28 -38q20 -16 31 -24q11 -10 26 -11z" />
    <glyph glyph-name="otilde" unicode="&#xf5;" horiz-adv-x="604" 
d="M379 607q-21 0 -41 9t-39.5 19.5t-37 19.5t-34.5 9q-24 0 -36 -14.5t-19 -43.5h-51q6 60 34 94t76 34q22 0 42.5 -9t39.5 -19.5t37 -19.5t33 -9q23 0 35.5 14.5t19.5 43.5h50q-6 -58 -34 -93t-75 -35zM95 1q-15 0 -34 12l-5 5q-20 13 -31 36q-1 2 -4.5 6.5t-4.5 6.5
q-10 11 -17 33q-9 41 -9 71q2 44 20 78q7 13 13 26q4 11 13 20q18 20 29 28q21 15 53 24q11 4 28 2q2 0 3 -1q0 -1 2 -3q0 -3 -2 -3q-3 -3 -5 -4q-5 -1 -13 -3.5t-10 -3.5q-9 -2 -37 -16q-2 -2 -4 -3q-27 -16 -42 -51q-3 -5 -7.5 -15t-6.5 -15q-9 -20 -8 -40q0 -21 2 -31
q0 -10 1 -16q2 -20 4 -31q2 -8 4 -13q1 -3 4.5 -11t5.5 -13q5 -11 16 -26q11 -12 29 -22q10 -5 20 -5q4 0 14 -0.5t14 -0.5q10 0 28 6q32 10 68 39l4 4q8 8 -2 14q-3 1 -11 5q-39 19 -65 50q-8 10 -15 23l-5 9q-10 16 -14 50q0 9 -2 27q-1 10 0 19q2 10 2 14q2 6 4 10
q9 19 25 34q10 8 19 8q18 2 33 -1q5 -1 16 -2.5t16 -2.5h3l2 -1q6 -2 17.5 -5t16.5 -5q10 -4 16 -9q3 -2 5 -5q12 -20 14 -31l3.5 -17.5t3.5 -19.5q5 -33 -3 -57l-21 -59q-1 -3 -4.5 -9t-4.5 -8l-3 -7q-2 -5 2 -5h2q2 -1 3 -1q40 0 66 25q18 16 26 25q23 23 29 35
q11 14 15 20q1 1 5 6t7 7q0 -2 -0.5 -6t-1.5 -6q-17 -38 -25 -51q-5 -10 -6 -11q-10 -8 -20 -24q-2 -4 -12.5 -11.5t-12.5 -7.5q-4 -2 -14 -5.5t-15 -5.5q-8 -3 -24 -5h-28q-5 0 -10 -5q-5 -8 -34 -32l-26 -17q-5 -2 -14.5 -7t-13.5 -7q-2 -1 -15 -4q-29 -3 -64 -1zM233 99
q13 -4 19 6q2 2 4 8q20 44 27 83q4 28 -4 60q-3 12 -7 19q-2 5 -7 8q-16 10 -25 14q-7 3 -20.5 7t-17.5 5q-2 1 -29 6q-6 2 -10 -1q-20 -13 -24 -39q-2 -12 -4 -17q-1 -2 -1 -5q-2 -31 0 -45q0 -6 3 -12q3 -8 11 -24q17 -28 28 -38q20 -16 31 -24q11 -10 26 -11z" />
    <glyph glyph-name="odieresis" unicode="&#xf6;" horiz-adv-x="413" 
d="M240 391l-10 2q-2 0 -4 4q-1 3 4 8q8 4 14 4q8 0 8 -8q0 -2 -2 -6q-3 -6 -10 -4zM160 391l-10 2q-2 0 -4 4q-1 3 4 8q8 4 14 4q8 0 8 -8q0 -2 -2 -6q-3 -6 -10 -4zM95 1q-15 0 -34 12l-5 5q-20 13 -31 36q-1 2 -4.5 6.5t-4.5 6.5q-10 11 -17 33q-9 41 -9 71q2 44 20 78
q7 13 13 26q4 11 13 20q18 20 29 28q21 15 53 24q11 4 28 2q2 0 3 -1q0 -1 2 -3q0 -3 -2 -3q-3 -3 -5 -4q-5 -1 -13 -3.5t-10 -3.5q-9 -2 -37 -16q-2 -2 -4 -3q-27 -16 -42 -51q-3 -5 -7.5 -15t-6.5 -15q-9 -20 -8 -40q0 -21 2 -31q0 -10 1 -16q2 -20 4 -31q2 -8 4 -13
q1 -3 4.5 -11t5.5 -13q5 -11 16 -26q11 -12 29 -22q10 -5 20 -5q4 0 14 -0.5t14 -0.5q10 0 28 6q32 10 68 39l4 4q8 8 -2 14q-3 1 -11 5q-39 19 -65 50q-8 10 -15 23l-5 9q-10 16 -14 50q0 9 -2 27q-1 10 0 19q2 10 2 14q2 6 4 10q9 19 25 34q10 8 19 8q18 2 33 -1
q5 -1 16 -2.5t16 -2.5h3l2 -1q6 -2 17.5 -5t16.5 -5q10 -4 16 -9q3 -2 5 -5q12 -20 14 -31l3.5 -17.5t3.5 -19.5q5 -33 -3 -57l-21 -59q-1 -3 -4.5 -9t-4.5 -8l-3 -7q-2 -5 2 -5h2q2 -1 3 -1q40 0 66 25q18 16 26 25q23 23 29 35q11 14 15 20q1 1 5 6t7 7q0 -2 -0.5 -6
t-1.5 -6q-17 -38 -25 -51q-5 -10 -6 -11q-10 -8 -20 -24q-2 -4 -12.5 -11.5t-12.5 -7.5q-4 -2 -14 -5.5t-15 -5.5q-8 -3 -24 -5h-28q-5 0 -10 -5q-5 -8 -34 -32l-26 -17q-5 -2 -14.5 -7t-13.5 -7q-2 -1 -15 -4q-29 -3 -64 -1zM233 99q13 -4 19 6q2 2 4 8q20 44 27 83
q4 28 -4 60q-3 12 -7 19q-2 5 -7 8q-16 10 -25 14q-7 3 -20.5 7t-17.5 5q-2 1 -29 6q-6 2 -10 -1q-20 -13 -24 -39q-2 -12 -4 -17q-1 -2 -1 -5q-2 -31 0 -45q0 -6 3 -12q3 -8 11 -24q17 -28 28 -38q20 -16 31 -24q11 -10 26 -11z" />
    <glyph glyph-name="divide" unicode="&#xf7;" horiz-adv-x="550" 
d="M50 286v73h451v-73h-451zM219 156q0 17 4.5 28.5t12 19t17.5 10.5t22 3q11 0 21.5 -3t18 -10.5t12 -19t4.5 -28.5q0 -16 -4.5 -27.5t-12 -19t-18 -11t-21.5 -3.5q-12 0 -22 3.5t-17.5 11t-12 19t-4.5 27.5zM219 497q0 17 4.5 28.5t12 19t17.5 10.5t22 3q11 0 21.5 -3
t18 -10.5t12 -19t4.5 -28.5q0 -16 -4.5 -27.5t-12 -19t-18 -11t-21.5 -3.5q-12 0 -22 3.5t-17.5 11t-12 19t-4.5 27.5zM221 622z" />
    <glyph glyph-name="oslash" unicode="&#xf8;" horiz-adv-x="604" 
d="M551 269q0 -131 -66.5 -205t-183.5 -74q-74 0 -129 33l-40 -56l-58 39l45 62q-64 76 -64 201q0 131 65.5 204t183.5 73q74 0 131 -36l39 56l59 -38l-45 -63q63 -76 63 -196zM146 269q0 -81 24 -128l220 306q-36 25 -88 25q-156 0 -156 -203zM460 269q0 74 -23 123
l-220 -306q34 -23 86 -23q77 0 117 52.5t40 153.5z" />
    <glyph glyph-name="ugrave" unicode="&#xf9;" horiz-adv-x="618" 
d="M99 5q-18 -9 -36 1q-25 15 -38 42q-10 19 -15 43q0 2 -0.5 6.5t-1.5 6.5l-2 14q-3 21 0 42q2 12 2 18t3 24q0 5 2 15q9 49 17 76q12 36 16 46q2 4 4 7q2 4 6 2t3 -5q0 -4 -1 -5q-15 -54 -19 -74q-2 -3 -2 -11q-2 -12 -6 -84.5t-2 -78.5q3 -9 3 -11q1 -3 3.5 -11t4.5 -12
q11 -22 27 -32q8 -5 15 -5q11 0 17 7q27 29 40 51q4 9 3 17q-2 7 -4 21q-1 10 -1 29v59q0 41 5 71q1 2 1.5 5t0.5 5q1 12 9 38q2 5 9 11.5t12 6.5q6 0 9 -1q22 -5 22 -28q0 -21 -3 -31q-4 -21 -5 -29q-1 -9 -3.5 -26t-3.5 -24q-2 -10 -2 -23l-3 -16l-3 -15t-2 -15
q-1 -10 -8 -22q-3 -9 0 -17q0 -4 1 -6l12 -34q6 -16 16 -27q6 -9 17 -5q21 10 25 14q18 16 27 29q2 3 5.5 8t4.5 6l3 6q21 34 29 77l1 2q0 1 1 1q0 1 1 1t3 -1q1 -2 1 -5v-10q-1 -10 -11 -44l-3 -7q-20 -33 -34 -51q-9 -12 -31 -30q-6 -4 -23 -10q-23 -3 -40 14
q-11 11 -18 24q-1 3 -5 9q-1 2 -2.5 2t-2.5 -2q-3 0 -3 -2q-14 -18 -21 -26q-10 -13 -26 -21zM168 195q4 -2 4 2q0 1 0.5 2t0.5 2q1 2 1 8q0 24 9 48q0 1 1.5 6t1.5 8q5 25 5 30v10q-2 4 -3 7q-8 8 -13 -1t-6 -21q-4 -25 -5 -40q-1 -2 -1 -6q0 -8 0.5 -23.5t0.5 -22.5l1 -7
l1 -1q2 0 2 -1zM360 606h-59q-37 29 -80.5 76t-61.5 74v10h105q16 -32 44.5 -76.5t51.5 -71.5v-12z" />
    <glyph glyph-name="uacute" unicode="&#xfa;" horiz-adv-x="618" 
d="M99 5q-18 -9 -36 1q-25 15 -38 42q-10 19 -15 43q0 2 -0.5 6.5t-1.5 6.5l-2 14q-3 21 0 42q2 12 2 18t3 24q0 5 2 15q9 49 17 76q12 36 16 46q2 4 4 7q2 4 6 2t3 -5q0 -4 -1 -5q-15 -54 -19 -74q-2 -3 -2 -11q-2 -12 -6 -84.5t-2 -78.5q3 -9 3 -11q1 -3 3.5 -11t4.5 -12
q11 -22 27 -32q8 -5 15 -5q11 0 17 7q27 29 40 51q4 9 3 17q-2 7 -4 21q-1 10 -1 29v59q0 41 5 71q1 2 1.5 5t0.5 5q1 12 9 38q2 5 9 11.5t12 6.5q6 0 9 -1q22 -5 22 -28q0 -21 -3 -31q-4 -21 -5 -29q-1 -9 -3.5 -26t-3.5 -24q-2 -10 -2 -23l-3 -16l-3 -15t-2 -15
q-1 -10 -8 -22q-3 -9 0 -17q0 -4 1 -6l12 -34q6 -16 16 -27q6 -9 17 -5q21 10 25 14q18 16 27 29q2 3 5.5 8t4.5 6l3 6q21 34 29 77l1 2q0 1 1 1q0 1 1 1t3 -1q1 -2 1 -5v-10q-1 -10 -11 -44l-3 -7q-20 -33 -34 -51q-9 -12 -31 -30q-6 -4 -23 -10q-23 -3 -40 14
q-11 11 -18 24q-1 3 -5 9q-1 2 -2.5 2t-2.5 -2q-3 0 -3 -2q-14 -18 -21 -26q-10 -13 -26 -21zM168 195q4 -2 4 2q0 1 0.5 2t0.5 2q1 2 1 8q0 24 9 48q0 1 1.5 6t1.5 8q5 25 5 30v10q-2 4 -3 7q-8 8 -13 -1t-6 -21q-4 -25 -5 -40q-1 -2 -1 -6q0 -8 0.5 -23.5t0.5 -22.5l1 -7
l1 -1q2 0 2 -1zM246 618q19 23 47.5 66.5t47.5 81.5h106v-10q-21 -31 -66.5 -78.5t-76.5 -71.5h-58v12z" />
    <glyph glyph-name="ucircumflex" unicode="&#xfb;" horiz-adv-x="618" 
d="M137 617q61 65 86 96.5t37 52.5h90q25 -49 125 -149v-11h-62q-44 26 -109 90q-64 -62 -107 -90h-60v11zM99 5q-18 -9 -36 1q-25 15 -38 42q-10 19 -15 43q0 2 -0.5 6.5t-1.5 6.5l-2 14q-3 21 0 42q2 12 2 18t3 24q0 5 2 15q9 49 17 76q12 36 16 46q2 4 4 7q2 4 6 2t3 -5
q0 -4 -1 -5q-15 -54 -19 -74q-2 -3 -2 -11q-2 -12 -6 -84.5t-2 -78.5q3 -9 3 -11q1 -3 3.5 -11t4.5 -12q11 -22 27 -32q8 -5 15 -5q11 0 17 7q27 29 40 51q4 9 3 17q-2 7 -4 21q-1 10 -1 29v59q0 41 5 71q1 2 1.5 5t0.5 5q1 12 9 38q2 5 9 11.5t12 6.5q6 0 9 -1
q22 -5 22 -28q0 -21 -3 -31q-4 -21 -5 -29q-1 -9 -3.5 -26t-3.5 -24q-2 -10 -2 -23l-3 -16l-3 -15t-2 -15q-1 -10 -8 -22q-3 -9 0 -17q0 -4 1 -6l12 -34q6 -16 16 -27q6 -9 17 -5q21 10 25 14q18 16 27 29q2 3 5.5 8t4.5 6l3 6q21 34 29 77l1 2q0 1 1 1q0 1 1 1t3 -1
q1 -2 1 -5v-10q-1 -10 -11 -44l-3 -7q-20 -33 -34 -51q-9 -12 -31 -30q-6 -4 -23 -10q-23 -3 -40 14q-11 11 -18 24q-1 3 -5 9q-1 2 -2.5 2t-2.5 -2q-3 0 -3 -2q-14 -18 -21 -26q-10 -13 -26 -21zM168 195q4 -2 4 2q0 1 0.5 2t0.5 2q1 2 1 8q0 24 9 48q0 1 1.5 6t1.5 8
q5 25 5 30v10q-2 4 -3 7q-8 8 -13 -1t-6 -21q-4 -25 -5 -40q-1 -2 -1 -6q0 -8 0.5 -23.5t0.5 -22.5l1 -7l1 -1q2 0 2 -1z" />
    <glyph glyph-name="udieresis" unicode="&#xfc;" horiz-adv-x="305" 
d="M170 391l-10 2q-2 0 -4 4q-1 3 4 8q8 4 14 4q8 0 8 -8q0 -2 -2 -6q-3 -6 -10 -4zM90 391l-10 2q-2 0 -4 4q-1 3 4 8q8 4 14 4q8 0 8 -8q0 -2 -2 -6q-3 -6 -10 -4zM99 5q-18 -9 -36 1q-25 15 -38 42q-10 19 -15 43q0 2 -0.5 6.5t-1.5 6.5l-2 14q-3 21 0 42q2 12 2 18t3 24
q0 5 2 15q9 49 17 76q12 36 16 46q2 4 4 7q2 4 6 2t3 -5q0 -4 -1 -5q-15 -54 -19 -74q-2 -3 -2 -11q-2 -12 -6 -84.5t-2 -78.5q3 -9 3 -11q1 -3 3.5 -11t4.5 -12q11 -22 27 -32q8 -5 15 -5q11 0 17 7q27 29 40 51q4 9 3 17q-2 7 -4 21q-1 10 -1 29v59q0 41 5 71q1 2 1.5 5
t0.5 5q1 12 9 38q2 5 9 11.5t12 6.5q6 0 9 -1q22 -5 22 -28q0 -21 -3 -31q-4 -21 -5 -29q-1 -9 -3.5 -26t-3.5 -24q-2 -10 -2 -23l-3 -16l-3 -15t-2 -15q-1 -10 -8 -22q-3 -9 0 -17q0 -4 1 -6l12 -34q6 -16 16 -27q6 -9 17 -5q21 10 25 14q18 16 27 29q2 3 5.5 8t4.5 6l3 6
q21 34 29 77l1 2q0 1 1 1q0 1 1 1t3 -1q1 -2 1 -5v-10q-1 -10 -11 -44l-3 -7q-20 -33 -34 -51q-9 -12 -31 -30q-6 -4 -23 -10q-23 -3 -40 14q-11 11 -18 24q-1 3 -5 9q-1 2 -2.5 2t-2.5 -2q-3 0 -3 -2q-14 -18 -21 -26q-10 -13 -26 -21zM168 195q4 -2 4 2q0 1 0.5 2t0.5 2
q1 2 1 8q0 24 9 48q0 1 1.5 6t1.5 8q5 25 5 30v10q-2 4 -3 7q-8 8 -13 -1t-6 -21q-4 -25 -5 -40q-1 -2 -1 -6q0 -8 0.5 -23.5t0.5 -22.5l1 -7l1 -1q2 0 2 -1z" />
    <glyph glyph-name="yacute" unicode="&#xfd;" horiz-adv-x="509" 
d="M174 -339q-22 14 -26 21q-15 26 -9 54q6 22 10 33q1 5 5 14t6 13q8 18 19 34l6 9q9 11 11 28q3 23 3 45v115q0 22 -4 41q-3 3 -5 1l-3 -2q-7 -10 -31 -30q-30 -24 -69 -21q-11 2 -20 6q-19 12 -33 30q-30 36 -37 90q-3 33 -3 65q0 1 -0.5 5t-0.5 6q-3 22 -3 68v48
q0 3 0.5 9t0.5 9q2 8 11 8q8 0 8 -7q0 -5 -0.5 -15t-0.5 -16q0 -27 2 -41q2 -7 0 -21q-3 -27 0 -52q1 -3 1 -9q0 -10 8 -79q5 -32 23 -54q4 -5 14 -13q27 -19 58 -5q34 16 49 39l25 30q8 9 5 21q-2 12 -2 37v22q-1 31 7 71q0 6 3 12q0 2 2.5 10t3.5 13q3 13 20 34q4 4 12 7
q7 1 14 -3q7 -6 10 -12q3 -5 2 -12q0 -3 -0.5 -10t-0.5 -11q0 -5 -0.5 -15t-1 -18.5t-1.5 -15.5q-1 -5 -1.5 -15t-1.5 -15q-2 -10 -10 -35l-15 -38q-4 -10 -7 -14q-6 -8 -6 -23q1 -13 1 -39v-10.5v-12v-9.5v-45q-1 -21 2 -49q1 -10 1 -30l1 -7q1 -1 2 -1h1l5 5
q4 6 12.5 15.5t12.5 15.5q6 7 31 39q25 34 49 78q21 35 37 80q1 1 6 26l6 24q0 2 4 6q2 2 5 1q5 -5 5 -7q2 -6 2 -10q0 -16 -5 -34q-10 -38 -30 -73q-7 -12 -14 -25q-28 -49 -65 -95q-12 -18 -27 -33q-5 -6 -37 -51q-4 -5 -4 -14q0 -38 1 -45q4 -21 0 -43q-1 -9 -1 -28
q0 -21 -1 -31q0 -11 -5 -24q-4 -8 -8 -10q-19 -11 -34 -10zM219 167q3 -2 7 6q1 2 2.5 6.5t2.5 6.5l8 29q6 34 6 52q0 5 0.5 13.5t1 15.5t1.5 14v5q0 2 -2 3.5t-4 -0.5q-3 -1 -7 -5q-12 -20 -14 -33q-4 -28 -4 -41v-27v-39q0 -4 2 -6zM180 -315q11 2 14 12q9 24 8 40
q-4 28 0 41q0 15 -4 37q0 2 -2 2h-2l-10 -15q-5 -8 -19 -44q-5 -15 -7 -35q-1 -12 4 -26q3 -6 8 -10q4 -4 10 -2zM200 618q19 23 47.5 66.5t47.5 81.5h106v-10q-21 -31 -66.5 -78.5t-76.5 -71.5h-58v12z" />
    <glyph glyph-name="thorn" unicode="&#xfe;" horiz-adv-x="615" 
d="M174 464q33 44 73.5 63t92.5 19q104 0 162 -73t58 -204t-58 -205t-162 -74q-108 0 -167 78h-6q6 -64 6 -84v-224h-88v1000h88v-224q0 -34 -3 -72h4zM325 472q-79 0 -115 -43.5t-37 -140.5v-19q0 -109 36 -157.5t117 -48.5q143 0 143 207q0 102 -35 152t-109 50z" />
    <glyph glyph-name="ydieresis" unicode="&#xff;" horiz-adv-x="509" 
d="M174 -339q-22 14 -26 21q-15 26 -9 54q6 22 10 33q1 5 5 14t6 13q8 18 19 34l6 9q9 11 11 28q3 23 3 45v115q0 22 -4 41q-3 3 -5 1l-3 -2q-7 -10 -31 -30q-30 -24 -69 -21q-11 2 -20 6q-19 12 -33 30q-30 36 -37 90q-3 33 -3 65q0 1 -0.5 5t-0.5 6q-3 22 -3 68v48
q0 3 0.5 9t0.5 9q2 8 11 8q8 0 8 -7q0 -5 -0.5 -15t-0.5 -16q0 -27 2 -41q2 -7 0 -21q-3 -27 0 -52q1 -3 1 -9q0 -10 8 -79q5 -32 23 -54q4 -5 14 -13q27 -19 58 -5q34 16 49 39l25 30q8 9 5 21q-2 12 -2 37v22q-1 31 7 71q0 6 3 12q0 2 2.5 10t3.5 13q3 13 20 34q4 4 12 7
q7 1 14 -3q7 -6 10 -12q3 -5 2 -12q0 -3 -0.5 -10t-0.5 -11q0 -5 -0.5 -15t-1 -18.5t-1.5 -15.5q-1 -5 -1.5 -15t-1.5 -15q-2 -10 -10 -35l-15 -38q-4 -10 -7 -14q-6 -8 -6 -23q1 -13 1 -39v-10.5v-12v-9.5v-45q-1 -21 2 -49q1 -10 1 -30l1 -7q1 -1 2 -1h1l5 5
q4 6 12.5 15.5t12.5 15.5q6 7 31 39q25 34 49 78q21 35 37 80q1 1 6 26l6 24q0 2 4 6q2 2 5 1q5 -5 5 -7q2 -6 2 -10q0 -16 -5 -34q-10 -38 -30 -73q-7 -12 -14 -25q-28 -49 -65 -95q-12 -18 -27 -33q-5 -6 -37 -51q-4 -5 -4 -14q0 -38 1 -45q4 -21 0 -43q-1 -9 -1 -28
q0 -21 -1 -31q0 -11 -5 -24q-4 -8 -8 -10q-19 -11 -34 -10zM219 167q3 -2 7 6q1 2 2.5 6.5t2.5 6.5l8 29q6 34 6 52q0 5 0.5 13.5t1 15.5t1.5 14v5q0 2 -2 3.5t-4 -0.5q-3 -1 -7 -5q-12 -20 -14 -33q-4 -28 -4 -41v-27v-39q0 -4 2 -6zM180 -315q11 2 14 12q9 24 8 40
q-4 28 0 41q0 15 -4 37q0 2 -2 2h-2l-10 -15q-5 -8 -19 -44q-5 -15 -7 -35q-1 -12 4 -26q3 -6 8 -10q4 -4 10 -2zM114 681q0 26 13.5 37.5t33.5 11.5q19 0 33 -11.5t14 -37.5t-14 -38t-33 -12q-20 0 -33.5 12t-13.5 38zM302 681q0 26 13.5 37.5t32.5 11.5t33 -11.5t14 -37.5
t-14 -38t-33 -12t-32.5 12t-13.5 38z" />
    <glyph glyph-name="Amacron" unicode="&#x100;" horiz-adv-x="639" 
d="M178 842h297v-71h-297v71zM124 5q-5 0 -7 2q-5 8 -5 9q-4 8 -6 19q-4 46 -4 70q0 20 -1 30v15q-1 4 -1 13.5t-1 14.5v6q0 14 -7 91q0 1 -1 4t-1 5q-2 6 -9 6q-1 0 -4 -0.5t-5 -0.5q-5 -1 -13.5 -3.5t-11.5 -3.5q-16 -6 -23 -8q-15 -4 -15 3q-1 6 11 11q1 1 2 1
q22 9 45 15q10 2 15 4q6 4 7 9q0 2 0.5 6.5t0.5 6.5l3 57q2 24 7 44l9 33q4 16 11 31q5 11 14.5 32t10.5 24q9 23 22 44q22 40 39 63q11 15 34 32q7 5 14 5q19 6 27 -14q3 -6 8 -29q4 -44 9 -504q1 -12 5 -33t5 -26q3 -10 12 -26q1 -3 5 -9q13 -21 34 -21q2 0 4.5 -0.5
t3.5 -0.5q33 3 56 22q31 25 46 47q18 26 22 32q17 22 18 22q0 -1 -1 -2q0 -1 -1 -3.5t-1 -3.5q-29 -51 -33 -56q-21 -31 -41 -46q-26 -21 -55 -25q-30 -5 -53 15q-15 13 -23 27q-6 12 -7 18q-3 8 -10 34q-9 49 -10 81q-2 55 0 74q0 23 -2 34l-1 7q-1 3 -7 6q-4 2 -7 2
t-10 0.5t-11 0.5q-68 -5 -76 -7t-26 -4q-4 -1 -12 -5q-1 -1 -3 -5v-9q2 -20 4 -30q1 -8 1 -24q0 -10 -1 -31t-1 -32q0 -9 1 -28t1 -28q1 -9 1 -27q-1 -37 3 -76q0 -6 -4 -7zM126 318q10 2 13 2q11 2 80 10q30 4 44 4q9 0 9 7q0 8 1 11l-2 281q0 18 -3 33q-1 4 -5 12
q-7 7 -14 3q-12 -9 -23 -24q-16 -22 -42 -66l-15 -27q-15 -32 -39 -100q-12 -33 -13 -61q-2 -11 0 -23q3 -16 1 -37v-19q0 -3 3 -5t5 -1z" />
    <glyph glyph-name="amacron" unicode="&#x101;" horiz-adv-x="561" 
d="M143 677h297v-71h-297v71zM113 0q-30 5 -36 7q-24 7 -36 20q-10 8 -18 18q-14 14 -17 34q-7 29 -8 50q0 1 -3 56q0 23 8 47q1 4 5 17q8 26 32 52l10 10q30 27 70 35q21 3 42 3q2 -1 6 -1t6 -1q1 0 2 -0.5t2 -0.5q7 -2 15 -3.5t11.5 -2t10 -3.5t13.5 -8q14 -9 34 -35
q7 -8 21 -44q5 -12 5 -24v-27v-10q0 -26 -5 -45q-5 -18 -5 -56q2 -20 8 -32q3 -9 9 -15q10 -8 20 -3l15 9q2 2 7 12l21 49q4 12 13.5 35t14.5 34q0 1 5 8q0 2 4 4q1 1 3 0.5t2 -2.5v-8q-3 -22 -9 -43q0 -2 -1.5 -7t-1.5 -8q-2 -13 -11 -30q-6 -10 -11 -28q-5 -14 -15 -23
q-3 -4 -12 -11q-5 -5 -15 -8q-3 -2 -8 -2q-25 3 -37 19q-9 14 -12 30q-1 2 -2.5 6.5t-2.5 6.5q0 2 -2.5 2.5t-4.5 -1.5l-1 -1q-1 -1 -1 -2q-2 -2 -8.5 -10.5t-10.5 -12.5q-3 -6 -8 -9l-17 -14q-38 -22 -52 -26q-15 -4 -19 -5q-14 -3 -25 -2zM127 24q9 0 29 6q18 5 31 15
q29 23 50 55q5 5 9 15q11 31 12 46q0 1 3 17q5 35 -4 60l-6 21q-1 5 -5 15q-1 3 -2.5 6.5t-3.5 8t-3 6.5q-4 13 -17 20q-12 5 -23 12q-22 11 -44 11q-19 0 -50 -9q-21 -8 -32 -16q-18 -15 -37 -38q-3 -3 -5 -7q-14 -32 -16 -51q-3 -41 -2 -51q2 -18 2 -26q4 -38 10 -55
q10 -28 36 -46q29 -18 68 -15z" />
    <glyph glyph-name="Abreve" unicode="&#x102;" horiz-adv-x="639" 
d="M316 771q-69 0 -108.5 33.5t-44.5 100.5h54q4 -35 24.5 -49t76.5 -14q49 0 73 15.5t28 47.5h55q-6 -64 -48 -99t-110 -35zM124 5q-5 0 -7 2q-5 8 -5 9q-4 8 -6 19q-4 46 -4 70q0 20 -1 30v15q-1 4 -1 13.5t-1 14.5v6q0 14 -7 91q0 1 -1 4t-1 5q-2 6 -9 6q-1 0 -4 -0.5
t-5 -0.5q-5 -1 -13.5 -3.5t-11.5 -3.5q-16 -6 -23 -8q-15 -4 -15 3q-1 6 11 11q1 1 2 1q22 9 45 15q10 2 15 4q6 4 7 9q0 2 0.5 6.5t0.5 6.5l3 57q2 24 7 44l9 33q4 16 11 31q5 11 14.5 32t10.5 24q9 23 22 44q22 40 39 63q11 15 34 32q7 5 14 5q19 6 27 -14q3 -6 8 -29
q4 -44 9 -504q1 -12 5 -33t5 -26q3 -10 12 -26q1 -3 5 -9q13 -21 34 -21q2 0 4.5 -0.5t3.5 -0.5q33 3 56 22q31 25 46 47q18 26 22 32q17 22 18 22q0 -1 -1 -2q0 -1 -1 -3.5t-1 -3.5q-29 -51 -33 -56q-21 -31 -41 -46q-26 -21 -55 -25q-30 -5 -53 15q-15 13 -23 27
q-6 12 -7 18q-3 8 -10 34q-9 49 -10 81q-2 55 0 74q0 23 -2 34l-1 7q-1 3 -7 6q-4 2 -7 2t-10 0.5t-11 0.5q-68 -5 -76 -7t-26 -4q-4 -1 -12 -5q-1 -1 -3 -5v-9q2 -20 4 -30q1 -8 1 -24q0 -10 -1 -31t-1 -32q0 -9 1 -28t1 -28q1 -9 1 -27q-1 -37 3 -76q0 -6 -4 -7zM126 318
q10 2 13 2q11 2 80 10q30 4 44 4q9 0 9 7q0 8 1 11l-2 281q0 18 -3 33q-1 4 -5 12q-7 7 -14 3q-12 -9 -23 -24q-16 -22 -42 -66l-15 -27q-15 -32 -39 -100q-12 -33 -13 -61q-2 -11 0 -23q3 -16 1 -37v-19q0 -3 3 -5t5 -1z" />
    <glyph glyph-name="abreve" unicode="&#x103;" horiz-adv-x="561" 
d="M281 606q-69 0 -108.5 33.5t-44.5 100.5h54q4 -35 24.5 -49t76.5 -14q49 0 73 15.5t28 47.5h55q-6 -64 -48 -99t-110 -35zM113 0q-30 5 -36 7q-24 7 -36 20q-10 8 -18 18q-14 14 -17 34q-7 29 -8 50q0 1 -3 56q0 23 8 47q1 4 5 17q8 26 32 52l10 10q30 27 70 35
q21 3 42 3q2 -1 6 -1t6 -1q1 0 2 -0.5t2 -0.5q7 -2 15 -3.5t11.5 -2t10 -3.5t13.5 -8q14 -9 34 -35q7 -8 21 -44q5 -12 5 -24v-27v-10q0 -26 -5 -45q-5 -18 -5 -56q2 -20 8 -32q3 -9 9 -15q10 -8 20 -3l15 9q2 2 7 12l21 49q4 12 13.5 35t14.5 34q0 1 5 8q0 2 4 4q1 1 3 0.5
t2 -2.5v-8q-3 -22 -9 -43q0 -2 -1.5 -7t-1.5 -8q-2 -13 -11 -30q-6 -10 -11 -28q-5 -14 -15 -23q-3 -4 -12 -11q-5 -5 -15 -8q-3 -2 -8 -2q-25 3 -37 19q-9 14 -12 30q-1 2 -2.5 6.5t-2.5 6.5q0 2 -2.5 2.5t-4.5 -1.5l-1 -1q-1 -1 -1 -2q-2 -2 -8.5 -10.5t-10.5 -12.5
q-3 -6 -8 -9l-17 -14q-38 -22 -52 -26q-15 -4 -19 -5q-14 -3 -25 -2zM127 24q9 0 29 6q18 5 31 15q29 23 50 55q5 5 9 15q11 31 12 46q0 1 3 17q5 35 -4 60l-6 21q-1 5 -5 15q-1 3 -2.5 6.5t-3.5 8t-3 6.5q-4 13 -17 20q-12 5 -23 12q-22 11 -44 11q-19 0 -50 -9
q-21 -8 -32 -16q-18 -15 -37 -38q-3 -3 -5 -7q-14 -32 -16 -51q-3 -41 -2 -51q2 -18 2 -26q4 -38 10 -55q10 -28 36 -46q29 -18 68 -15z" />
    <glyph glyph-name="Aogonek" unicode="&#x104;" horiz-adv-x="639" 
d="M540 -116q0 -22 12 -33.5t33 -11.5t48 6v-56q-34 -9 -62 -9q-103 0 -103 94q0 68 78 126h62q-34 -32 -51 -58.5t-17 -57.5zM124 5q-5 0 -7 2q-5 8 -5 9q-4 8 -6 19q-4 46 -4 70q0 20 -1 30v15q-1 4 -1 13.5t-1 14.5v6q0 14 -7 91q0 1 -1 4t-1 5q-2 6 -9 6q-1 0 -4 -0.5
t-5 -0.5q-5 -1 -13.5 -3.5t-11.5 -3.5q-16 -6 -23 -8q-15 -4 -15 3q-1 6 11 11q1 1 2 1q22 9 45 15q10 2 15 4q6 4 7 9q0 2 0.5 6.5t0.5 6.5l3 57q2 24 7 44l9 33q4 16 11 31q5 11 14.5 32t10.5 24q9 23 22 44q22 40 39 63q11 15 34 32q7 5 14 5q19 6 27 -14q3 -6 8 -29
q4 -44 9 -504q1 -12 5 -33t5 -26q3 -10 12 -26q1 -3 5 -9q13 -21 34 -21q2 0 4.5 -0.5t3.5 -0.5q33 3 56 22q31 25 46 47q18 26 22 32q17 22 18 22q0 -1 -1 -2q0 -1 -1 -3.5t-1 -3.5q-29 -51 -33 -56q-21 -31 -41 -46q-26 -21 -55 -25q-30 -5 -53 15q-15 13 -23 27
q-6 12 -7 18q-3 8 -10 34q-9 49 -10 81q-2 55 0 74q0 23 -2 34l-1 7q-1 3 -7 6q-4 2 -7 2t-10 0.5t-11 0.5q-68 -5 -76 -7t-26 -4q-4 -1 -12 -5q-1 -1 -3 -5v-9q2 -20 4 -30q1 -8 1 -24q0 -10 -1 -31t-1 -32q0 -9 1 -28t1 -28q1 -9 1 -27q-1 -37 3 -76q0 -6 -4 -7zM126 318
q10 2 13 2q11 2 80 10q30 4 44 4q9 0 9 7q0 8 1 11l-2 281q0 18 -3 33q-1 4 -5 12q-7 7 -14 3q-12 -9 -23 -24q-16 -22 -42 -66l-15 -27q-15 -32 -39 -100q-12 -33 -13 -61q-2 -11 0 -23q3 -16 1 -37v-19q0 -3 3 -5t5 -1z" />
    <glyph glyph-name="aogonek" unicode="&#x105;" horiz-adv-x="561" 
d="M410 -116q0 -22 12 -33.5t33 -11.5t48 6v-56q-34 -9 -62 -9q-103 0 -103 94q0 68 78 126h62q-34 -32 -51 -58.5t-17 -57.5zM113 0q-30 5 -36 7q-24 7 -36 20q-10 8 -18 18q-14 14 -17 34q-7 29 -8 50q0 1 -3 56q0 23 8 47q1 4 5 17q8 26 32 52l10 10q30 27 70 35
q21 3 42 3q2 -1 6 -1t6 -1q1 0 2 -0.5t2 -0.5q7 -2 15 -3.5t11.5 -2t10 -3.5t13.5 -8q14 -9 34 -35q7 -8 21 -44q5 -12 5 -24v-27v-10q0 -26 -5 -45q-5 -18 -5 -56q2 -20 8 -32q3 -9 9 -15q10 -8 20 -3l15 9q2 2 7 12l21 49q4 12 13.5 35t14.5 34q0 1 5 8q0 2 4 4q1 1 3 0.5
t2 -2.5v-8q-3 -22 -9 -43q0 -2 -1.5 -7t-1.5 -8q-2 -13 -11 -30q-6 -10 -11 -28q-5 -14 -15 -23q-3 -4 -12 -11q-5 -5 -15 -8q-3 -2 -8 -2q-25 3 -37 19q-9 14 -12 30q-1 2 -2.5 6.5t-2.5 6.5q0 2 -2.5 2.5t-4.5 -1.5l-1 -1q-1 -1 -1 -2q-2 -2 -8.5 -10.5t-10.5 -12.5
q-3 -6 -8 -9l-17 -14q-38 -22 -52 -26q-15 -4 -19 -5q-14 -3 -25 -2zM127 24q9 0 29 6q18 5 31 15q29 23 50 55q5 5 9 15q11 31 12 46q0 1 3 17q5 35 -4 60l-6 21q-1 5 -5 15q-1 3 -2.5 6.5t-3.5 8t-3 6.5q-4 13 -17 20q-12 5 -23 12q-22 11 -44 11q-19 0 -50 -9
q-21 -8 -32 -16q-18 -15 -37 -38q-3 -3 -5 -7q-14 -32 -16 -51q-3 -41 -2 -51q2 -18 2 -26q4 -38 10 -55q10 -28 36 -46q29 -18 68 -15z" />
    <glyph glyph-name="Cacute" unicode="&#x106;" horiz-adv-x="631" 
d="M173 1q-3 1 -11 6t-17.5 10.5t-11.5 6.5q-12 10 -18 14q-16 11 -23 17q-3 3 -8.5 10t-7.5 10q-19 20 -34 52q-20 43 -27 90q-9 65 -10 84v66q0 61 9 84l6 16q14 26 22 55q7 27 26 52q11 15 23 34q14 19 41 43q18 16 46 33q22 14 48 14t62 -9q12 -3 22 -16q3 -5 3 -13
q-2 -5 -6 -3q-2 0 -4 2q-9 6 -27 11q-5 1 -14.5 4t-15.5 4q-29 5 -43 -1q-36 -15 -59 -37q-13 -12 -23 -27q-3 -5 -10 -14.5t-9 -12.5q-3 -5 -13.5 -19t-15.5 -23q-4 -8 -16 -40q-3 -6 -7.5 -19t-6.5 -20q-13 -37 -12 -110q23 -177 42 -217l12 -24q15 -32 35 -52l24 -23
q16 -14 35 -17q41 -8 75 5q18 6 50 22l7 4q4 2 45 31q12 9 31 30q24 27 51 51q4 4 29 24q3 3 9 3h1q1 0 1.5 -1.5t-0.5 -2.5q-5 -8 -7 -9q-7 -6 -18 -20t-18 -21q-1 -1 -6.5 -8t-14.5 -19t-14 -18l-3 -3q-4 -3 -16 -14t-18 -16t-16.5 -12t-20.5 -12q-38 -18 -57 -26
q-13 -6 -49.5 -9.5t-46.5 0.5zM318 783q19 23 47.5 66.5t47.5 81.5h106v-10q-21 -31 -66.5 -78.5t-76.5 -71.5h-58v12z" />
    <glyph glyph-name="cacute" unicode="&#x107;" horiz-adv-x="479" 
d="M111 0q-25 3 -42 16q-7 4 -19 12q-14 6 -21 18q-11 16 -11 17q-14 26 -19 40q-7 16 -9 41v12q-1 19 7 42q3 13 7 23q6 16 10 24q12 24 17 36q6 16 22 32q17 16 43 28q8 4 13 5q13 3 32 1q8 -3 10 -4q4 -2 8.5 -4t10.5 -5t9 -5q9 -3 12 -14q0 -3 -1 -4q0 -2 -2 -2t-3 1
l-6 3q-6 6 -26 15q-19 10 -38 4q-22 -7 -37 -19q-22 -16 -37 -47q-1 -1 -2 -4t-2.5 -5.5t-2.5 -4.5q-9 -15 -17 -47q-8 -35 -5 -56q2 -12 15 -46q1 -2 3 -6.5t3.5 -8t2.5 -6.5q8 -14 14 -19l21 -21q10 -8 19 -11q3 -1 6.5 -2.5t5.5 -1.5q5 -2 33 3t39 10q6 4 9 5
q7 5 20 15.5t20 15.5q7 7 12 11q15 10 28 29q7 12 15 27q4 7 10 21q1 3 5 7h5q2 -2 2 -4q0 -5 -2 -13q-4 -7 -13 -25.5t-15 -27.5q-10 -12 -15 -17q-20 -18 -29 -28q-13 -15 -43 -34q-1 0 -3 -1.5t-4 -2.5q-19 -13 -43 -18q-14 -2 -21 0h-1zM224 618q19 23 47.5 66.5
t47.5 81.5h106v-10q-21 -31 -66.5 -78.5t-76.5 -71.5h-58v12z" />
    <glyph glyph-name="Ccircumflex" unicode="&#x108;" horiz-adv-x="631" 
d="M220 782q61 65 86 96.5t37 52.5h90q25 -49 125 -149v-11h-62q-44 26 -109 90q-64 -62 -107 -90h-60v11zM173 1q-3 1 -11 6t-17.5 10.5t-11.5 6.5q-12 10 -18 14q-16 11 -23 17q-3 3 -8.5 10t-7.5 10q-19 20 -34 52q-20 43 -27 90q-9 65 -10 84v66q0 61 9 84l6 16
q14 26 22 55q7 27 26 52q11 15 23 34q14 19 41 43q18 16 46 33q22 14 48 14t62 -9q12 -3 22 -16q3 -5 3 -13q-2 -5 -6 -3q-2 0 -4 2q-9 6 -27 11q-5 1 -14.5 4t-15.5 4q-29 5 -43 -1q-36 -15 -59 -37q-13 -12 -23 -27q-3 -5 -10 -14.5t-9 -12.5q-3 -5 -13.5 -19t-15.5 -23
q-4 -8 -16 -40q-3 -6 -7.5 -19t-6.5 -20q-13 -37 -12 -110q23 -177 42 -217l12 -24q15 -32 35 -52l24 -23q16 -14 35 -17q41 -8 75 5q18 6 50 22l7 4q4 2 45 31q12 9 31 30q24 27 51 51q4 4 29 24q3 3 9 3h1q1 0 1.5 -1.5t-0.5 -2.5q-5 -8 -7 -9q-7 -6 -18 -20t-18 -21
q-1 -1 -6.5 -8t-14.5 -19t-14 -18l-3 -3q-4 -3 -16 -14t-18 -16t-16.5 -12t-20.5 -12q-38 -18 -57 -26q-13 -6 -49.5 -9.5t-46.5 0.5z" />
    <glyph glyph-name="ccircumflex" unicode="&#x109;" horiz-adv-x="479" 
d="M118 617q61 65 86 96.5t37 52.5h90q25 -49 125 -149v-11h-62q-44 26 -109 90q-64 -62 -107 -90h-60v11zM111 0q-25 3 -42 16q-7 4 -19 12q-14 6 -21 18q-11 16 -11 17q-14 26 -19 40q-7 16 -9 41v12q-1 19 7 42q3 13 7 23q6 16 10 24q12 24 17 36q6 16 22 32q17 16 43 28
q8 4 13 5q13 3 32 1q8 -3 10 -4q4 -2 8.5 -4t10.5 -5t9 -5q9 -3 12 -14q0 -3 -1 -4q0 -2 -2 -2t-3 1l-6 3q-6 6 -26 15q-19 10 -38 4q-22 -7 -37 -19q-22 -16 -37 -47q-1 -1 -2 -4t-2.5 -5.5t-2.5 -4.5q-9 -15 -17 -47q-8 -35 -5 -56q2 -12 15 -46q1 -2 3 -6.5t3.5 -8
t2.5 -6.5q8 -14 14 -19l21 -21q10 -8 19 -11q3 -1 6.5 -2.5t5.5 -1.5q5 -2 33 3t39 10q6 4 9 5q7 5 20 15.5t20 15.5q7 7 12 11q15 10 28 29q7 12 15 27q4 7 10 21q1 3 5 7h5q2 -2 2 -4q0 -5 -2 -13q-4 -7 -13 -25.5t-15 -27.5q-10 -12 -15 -17q-20 -18 -29 -28
q-13 -15 -43 -34q-1 0 -3 -1.5t-4 -2.5q-19 -13 -43 -18q-14 -2 -21 0h-1z" />
    <glyph glyph-name="Cdotaccent" unicode="&#x10a;" horiz-adv-x="631" 
d="M337 846q0 29 15 42.5t37 13.5q21 0 36 -13.5t15 -42.5t-15.5 -42.5t-35.5 -13.5q-22 0 -37 13.5t-15 42.5zM173 1q-3 1 -11 6t-17.5 10.5t-11.5 6.5q-12 10 -18 14q-16 11 -23 17q-3 3 -8.5 10t-7.5 10q-19 20 -34 52q-20 43 -27 90q-9 65 -10 84v66q0 61 9 84l6 16
q14 26 22 55q7 27 26 52q11 15 23 34q14 19 41 43q18 16 46 33q22 14 48 14t62 -9q12 -3 22 -16q3 -5 3 -13q-2 -5 -6 -3q-2 0 -4 2q-9 6 -27 11q-5 1 -14.5 4t-15.5 4q-29 5 -43 -1q-36 -15 -59 -37q-13 -12 -23 -27q-3 -5 -10 -14.5t-9 -12.5q-3 -5 -13.5 -19t-15.5 -23
q-4 -8 -16 -40q-3 -6 -7.5 -19t-6.5 -20q-13 -37 -12 -110q23 -177 42 -217l12 -24q15 -32 35 -52l24 -23q16 -14 35 -17q41 -8 75 5q18 6 50 22l7 4q4 2 45 31q12 9 31 30q24 27 51 51q4 4 29 24q3 3 9 3h1q1 0 1.5 -1.5t-0.5 -2.5q-5 -8 -7 -9q-7 -6 -18 -20t-18 -21
q-1 -1 -6.5 -8t-14.5 -19t-14 -18l-3 -3q-4 -3 -16 -14t-18 -16t-16.5 -12t-20.5 -12q-38 -18 -57 -26q-13 -6 -49.5 -9.5t-46.5 0.5z" />
    <glyph glyph-name="cdotaccent" unicode="&#x10b;" horiz-adv-x="479" 
d="M241 681q0 29 15 42.5t37 13.5q21 0 36 -13.5t15 -42.5t-15.5 -42.5t-35.5 -13.5q-22 0 -37 13.5t-15 42.5zM111 0q-25 3 -42 16q-7 4 -19 12q-14 6 -21 18q-11 16 -11 17q-14 26 -19 40q-7 16 -9 41v12q-1 19 7 42q3 13 7 23q6 16 10 24q12 24 17 36q6 16 22 32
q17 16 43 28q8 4 13 5q13 3 32 1q8 -3 10 -4q4 -2 8.5 -4t10.5 -5t9 -5q9 -3 12 -14q0 -3 -1 -4q0 -2 -2 -2t-3 1l-6 3q-6 6 -26 15q-19 10 -38 4q-22 -7 -37 -19q-22 -16 -37 -47q-1 -1 -2 -4t-2.5 -5.5t-2.5 -4.5q-9 -15 -17 -47q-8 -35 -5 -56q2 -12 15 -46q1 -2 3 -6.5
t3.5 -8t2.5 -6.5q8 -14 14 -19l21 -21q10 -8 19 -11q3 -1 6.5 -2.5t5.5 -1.5q5 -2 33 3t39 10q6 4 9 5q7 5 20 15.5t20 15.5q7 7 12 11q15 10 28 29q7 12 15 27q4 7 10 21q1 3 5 7h5q2 -2 2 -4q0 -5 -2 -13q-4 -7 -13 -25.5t-15 -27.5q-10 -12 -15 -17q-20 -18 -29 -28
q-13 -15 -43 -34q-1 0 -3 -1.5t-4 -2.5q-19 -13 -43 -18q-14 -2 -21 0h-1z" />
    <glyph glyph-name="Ccaron" unicode="&#x10c;" horiz-adv-x="631" 
d="M220 931h60q56 -36 107 -92q62 62 109 92h62v-13q-100 -100 -125 -147h-90q-29 50 -123 147v13zM173 1q-3 1 -11 6t-17.5 10.5t-11.5 6.5q-12 10 -18 14q-16 11 -23 17q-3 3 -8.5 10t-7.5 10q-19 20 -34 52q-20 43 -27 90q-9 65 -10 84v66q0 61 9 84l6 16q14 26 22 55
q7 27 26 52q11 15 23 34q14 19 41 43q18 16 46 33q22 14 48 14t62 -9q12 -3 22 -16q3 -5 3 -13q-2 -5 -6 -3q-2 0 -4 2q-9 6 -27 11q-5 1 -14.5 4t-15.5 4q-29 5 -43 -1q-36 -15 -59 -37q-13 -12 -23 -27q-3 -5 -10 -14.5t-9 -12.5q-3 -5 -13.5 -19t-15.5 -23q-4 -8 -16 -40
q-3 -6 -7.5 -19t-6.5 -20q-13 -37 -12 -110q23 -177 42 -217l12 -24q15 -32 35 -52l24 -23q16 -14 35 -17q41 -8 75 5q18 6 50 22l7 4q4 2 45 31q12 9 31 30q24 27 51 51q4 4 29 24q3 3 9 3h1q1 0 1.5 -1.5t-0.5 -2.5q-5 -8 -7 -9q-7 -6 -18 -20t-18 -21q-1 -1 -6.5 -8
t-14.5 -19t-14 -18l-3 -3q-4 -3 -16 -14t-18 -16t-16.5 -12t-20.5 -12q-38 -18 -57 -26q-13 -6 -49.5 -9.5t-46.5 0.5z" />
    <glyph glyph-name="ccaron" unicode="&#x10d;" horiz-adv-x="479" 
d="M122 766h60q56 -36 107 -92q62 62 109 92h62v-13q-100 -100 -125 -147h-90q-29 50 -123 147v13zM111 0q-25 3 -42 16q-7 4 -19 12q-14 6 -21 18q-11 16 -11 17q-14 26 -19 40q-7 16 -9 41v12q-1 19 7 42q3 13 7 23q6 16 10 24q12 24 17 36q6 16 22 32q17 16 43 28
q8 4 13 5q13 3 32 1q8 -3 10 -4q4 -2 8.5 -4t10.5 -5t9 -5q9 -3 12 -14q0 -3 -1 -4q0 -2 -2 -2t-3 1l-6 3q-6 6 -26 15q-19 10 -38 4q-22 -7 -37 -19q-22 -16 -37 -47q-1 -1 -2 -4t-2.5 -5.5t-2.5 -4.5q-9 -15 -17 -47q-8 -35 -5 -56q2 -12 15 -46q1 -2 3 -6.5t3.5 -8
t2.5 -6.5q8 -14 14 -19l21 -21q10 -8 19 -11q3 -1 6.5 -2.5t5.5 -1.5q5 -2 33 3t39 10q6 4 9 5q7 5 20 15.5t20 15.5q7 7 12 11q15 10 28 29q7 12 15 27q4 7 10 21q1 3 5 7h5q2 -2 2 -4q0 -5 -2 -13q-4 -7 -13 -25.5t-15 -27.5q-10 -12 -15 -17q-20 -18 -29 -28
q-13 -15 -43 -34q-1 0 -3 -1.5t-4 -2.5q-19 -13 -43 -18q-14 -2 -21 0h-1z" />
    <glyph glyph-name="Dcaron" unicode="&#x10e;" horiz-adv-x="729" 
d="M170 931h60q56 -36 107 -92q62 62 109 92h62v-13q-100 -100 -125 -147h-90q-29 50 -123 147v13zM204 13q-6 0 -6 5q0 3 2 5q6 4 9 5l29 9q15 5 43 19q4 2 9 5t11.5 7t9.5 6q17 10 35 31q15 19 30 44q20 35 23 41q7 16 12 33q2 9 13 70q2 12 -1 21q-5 26 -12 49l-15 52
q-11 36 -12 38l-3 7q-12 33 -32 69q-15 28 -32 48q-6 6 -29 25q-26 16 -38 24q-18 11 -45 21l-15 6q-38 16 -88 18q-31 0 -57 -13l-17 -8.5t-14 -7.5q-5 -2 -6 -2l-1 1q-3 3 -1 4q13 16 23 22l18 11q3 2 9 4q45 13 73 11q28 -3 52 -13l50 -21q23 -10 39 -23q13 -10 41 -28
q17 -11 31 -30q23 -29 52 -78q9 -14 16 -35q2 -10 8 -31t9 -33q8 -27 17 -78q2 -20 1 -30q-7 -56 -17 -97l-3 -8q-19 -35 -23 -41l-21 -33q-13 -21 -33 -36l-15 -13q-28 -25 -60 -35q-25 -9 -61 -16q-3 -1 -8 -1zM111 12q-4 6 -2 27q0 6 -2 41v96q0 4 -0.5 11t-0.5 10
q0 34 1 64t1 50v80v64q0 1 0.5 4.5t0.5 5.5q0 9 1 26.5t1.5 31.5t0.5 26q0 34 3 51q1 6 1 20q0 6 3 15.5t3 14.5q0 3 2 3h4q3 -3 3 -5q2 -10 2 -16v-70q0 -26 3 -53q1 -14 1 -43q1 -29 1 -86q0 -17 1 -25q2 -32 0 -49q-1 -7 -1 -22q-1 -36 -1 -107q0 -9 -1 -25l-1.5 -24
t0.5 -16v-16q0 -8 -0.5 -24t-0.5 -23q0 -11 -2 -29q-2 -11 -8 -14t-13 6z" />
    </font>
</defs>
</svg>
