<?xml version="1.0" standalone="no"?>
<!DOCTYPE svg PUBLIC "-//W3C//DTD SVG 1.1//EN" "http://www.w3.org/Graphics/SVG/1.1/DTD/svg11.dtd" >
<svg xmlns="http://www.w3.org/2000/svg" xmlns:xlink="http://www.w3.org/1999/xlink" version="1.1">
<metadata>
Created by FontForge 20190801 at Tue May  4 08:59:36 2021
 By root
Copyright (c) 2018 by 50Fox. All rights reserved.
</metadata>
<defs>
<font id="SevilleScriptAltSlant" horiz-adv-x="190" >
  <font-face 
    font-family="Seville Script Alt Slant"
    font-weight="400"
    font-stretch="normal"
    units-per-em="1000"
    panose-1="2 0 5 6 0 0 0 2 0 4"
    ascent="750"
    descent="-250"
    x-height="168"
    cap-height="752"
    bbox="-402.762 -631 1335.06 1046"
    underline-thickness="50"
    underline-position="-100"
    unicode-range="U+0001-206F"
  />
<missing-glyph horiz-adv-x="364" 
d="M33 0v666h265v-666h-265zM66 33h199v600h-199v-600z" />
    <glyph glyph-name=".notdef" horiz-adv-x="364" 
d="M33 0v666h265v-666h-265zM66 33h199v600h-199v-600z" />
    <glyph glyph-name=".null" horiz-adv-x="0" 
 />
    <glyph glyph-name="nonmarkingreturn" unicode="&#xd;" 
 />
    <glyph glyph-name="NULL" 
 />
    <glyph glyph-name="NULL" 
 />
    <glyph glyph-name="uni0001" 
 />
    <glyph glyph-name="uni0002" 
 />
    <glyph glyph-name="uni0003" 
 />
    <glyph glyph-name="uni0004" 
 />
    <glyph glyph-name="uni0005" 
 />
    <glyph glyph-name="uni0006" 
 />
    <glyph glyph-name="uni0007" 
 />
    <glyph glyph-name="uni0008" 
 />
    <glyph glyph-name="uni0009" unicode="&#x9;" 
 />
    <glyph glyph-name="uni000A" unicode="&#xa;" 
 />
    <glyph glyph-name="uni000B" 
 />
    <glyph glyph-name="uni000C" 
 />
    <glyph glyph-name="uni000E" 
 />
    <glyph glyph-name="uni000F" 
 />
    <glyph glyph-name="uni0010" 
 />
    <glyph glyph-name="uni0011" 
 />
    <glyph glyph-name="uni0012" 
 />
    <glyph glyph-name="uni0013" 
 />
    <glyph glyph-name="uni0014" 
 />
    <glyph glyph-name="uni0015" 
 />
    <glyph glyph-name="uni0016" 
 />
    <glyph glyph-name="uni0017" 
 />
    <glyph glyph-name="uni0018" 
 />
    <glyph glyph-name="uni0019" 
 />
    <glyph glyph-name="uni001A" 
 />
    <glyph glyph-name="uni001B" 
 />
    <glyph glyph-name="uni001C" 
 />
    <glyph glyph-name="uni001D" 
 />
    <glyph glyph-name="uni001E" 
 />
    <glyph glyph-name="uni001F" 
 />
    <glyph glyph-name="space" unicode=" " 
 />
    <glyph glyph-name="exclam" unicode="!" horiz-adv-x="204" 
d="M357 698q-2 -5 -3 -10t-3 -10q-12 -35 -28 -68l-32 -66q-29 -60 -57.5 -118.5t-56.5 -118.5q-23 -48 -42.5 -97t-36.5 -99q-7 -22 -12.5 -43.5t-12.5 -43.5q-1 -7 1 -12q4 -4 2 -10t-3 -12t-4 -12q-3 -10 -15 -11q-9 0 -9 10q-2 6 -1.5 12t1.5 12q2 11 3.5 20.5t3.5 20.5
l14 53l1 4q8 25 15.5 49.5t16.5 49.5q19 54 42.5 106t49.5 104q18 35 37 69.5t37 69.5q19 36 37 72.5t38 73.5l4 8q2 2 4.5 3.5t4.5 1.5q2 -1 3.5 -3.5t0.5 -4.5zM32 -117q11 -2 11 -11l1 -14q-3 -13 -8.5 -22.5t-12.5 -18.5q-6 -7 -18 -7q-8 3 -7 13v9t2 9q0 8 5 16
q3 4 5 8t6 9q7 9 16 9z" />
    <glyph glyph-name="quotedbl" unicode="&#x22;" horiz-adv-x="140" 
d="M213 698q3 -6 2.5 -13t-2.5 -17q-3 -14 -11 -25.5t-19 -22.5q-9 -10 -20 -18t-22 -17q-8 -4 -10 -4q-4 0 -5 3q-3 3 -1 6q2 6 5 8l32 38q8 10 13.5 19.5t7.5 20.5q1 3 1.5 6t0.5 8q1 5 4.5 8.5t6.5 5.5q1 0 2 0.5t2 0.5q9 0 13 -7zM245 702q10 0 15.5 -8.5t2.5 -21.5
q-2 -10 -8.5 -19.5t-14.5 -19.5l-32 -35l-5 -3q-3 -3 -8 -3q-3 0 -4 1q-4 3 -4 9l2 4l11 17q8 11 15 22l14 22q5 5 5 9q1 4 -2 9q0 2 -0.5 3t-0.5 3q2 9 14 11z" />
    <glyph glyph-name="numbersign" unicode="#" horiz-adv-x="645" 
d="M371 399l119 8q5 0 10 5l18 28t19 28q14 20 27 38.5t27 38.5l33 45q3 4 6 7.5t7 6.5q4 4 8 4q3 0 4 -2q2 -2 2 -6q0 -2 -4 -6q-3 -3 -3 -5q-26 -42 -50.5 -83.5t-49.5 -83.5l-6 -12q1 -3 5 -3h69q17 -2 34 -6t32 -11l8 -6q3 -5 2 -8q0 -1 -2 -5q-3 -6 -11 -6q-4 0 -8 0.5
t-8 0.5q-19 2 -37.5 4t-37.5 3q-15 2 -30 1.5t-30 0.5q-8 0 -12 -8l-64 -110q-2 -6 4 -6q11 1 21.5 1.5t21.5 0.5h7q7 0 13 0.5t13 0.5q13 0 26 -1.5t25 -5.5l13 -6q4 -4 4 -10q-2 -6 -6 -8t-8 -3q-8 0 -15.5 0.5t-15.5 0.5h-74l-44 -3q-7 0 -10 -6q-48 -86 -93 -171
q-6 -10 -10.5 -20t-9.5 -21q-7 -10 -15 -11q-9 0 -11 9q0 8 1 12q13 30 25 58.5t26 56.5q10 20 20.5 40.5t20.5 40.5l1 4q0 2 -1 2q-31 -3 -59.5 -6t-57.5 -7q-10 0 -14 -10q-14 -30 -29 -60l-30 -60q-7 -14 -12.5 -29t-11.5 -30l-7 -29q-1 -4 -1.5 -7t-5.5 -5
q-1 0 -1.5 -0.5t-1.5 -0.5q-6 0 -8 6q-6 14 -3 29l1 4q7 26 17 51t22 51q8 19 16.5 37.5t18.5 37.5q1 2 1 3t1 2q0 3 -3 3q-1 0 -2 -0.5t-3 -0.5q-32 -6 -64 -12.5t-64 -13.5q-5 -1 -8 -2.5t-8 -3.5q-5 -1 -11 -2t-11 -1q-5 2 -4 6q0 3 4 7q5 3 9 5l8 4q42 17 83.5 28.5
t84.5 19.5q8 3 13 10q15 29 30.5 57t31.5 57q2 4 2 5q0 3 -2 3q-1 0 -2 -0.5t-3 -0.5q-45 -5 -90.5 -14t-91.5 -21l-20 -6q-3 -1 -4.5 -2t-3.5 -2q-1 -1 -3 -1q-3 0 -3 1q-2 2 0 4q1 3 3.5 5t4.5 3q13 6 25.5 12.5t25.5 11.5q84 31 170 43q19 3 30 21q25 38 51.5 74t56.5 71
q7 9 14.5 18t15.5 17q3 3 7 6t8 5t6 2q5 0 7 -7v-3q-1 -4 -7 -5q-5 -2 -6 -5q-15 -20 -29.5 -40t-28.5 -40q-17 -24 -32 -49t-31 -50l-5 -7h8zM465 372q-5 0 -10.5 -0.5t-10.5 -0.5l-46 -4l-46 -4q-8 -1 -11 -3.5t-7 -7.5q-15 -28 -29.5 -55t-30.5 -54q0 -2 -1 -3.5t-1 -3.5
h6q29 3 57 6t57 5q8 2 12 9l70 116h-9z" />
    <glyph glyph-name="dollar" unicode="$" horiz-adv-x="291" 
d="M60 -89q3 16 6.5 30.5t7.5 28.5q2 7 0 8.5t-6 1.5q-15 1 -28.5 3.5t-24.5 12.5q-9 9 -9 23q-1 5 -0.5 8.5t1.5 8.5q1 9 6 18q1 7 6 7q1 0 3 -2.5t1 -4.5l-2 -21q-4 -21 15 -29q15 -4 31 -4h10q5 0 5.5 2.5t1.5 5.5l19 64q14 48 29.5 94.5t32.5 93.5q1 7 -3 10l-36 30
q-8 7 -14.5 15t-12.5 18q-8 19 -4 36q3 16 15 31q26 33 56.5 58t68.5 39q6 2 12 3t11 3q7 1 8 7l27 62q2 6 4 9q2 4 6 4q2 0 4 -4q0 -2 0.5 -5t-0.5 -5q-5 -17 -9.5 -30.5t-9.5 -27.5q-1 -1 0 -5.5t4 -4.5q14 -3 24 -9t17 -18q6 -13 3 -31q-2 -8 -6 -17t-9 -17l-8 -10
l-8 -10q-4 -2 -5 -2q-2 0 -2 5q0 1 2 4t3 5q7 8 11 16.5t7 18.5q3 16 -8 25q-7 6 -15.5 8.5t-17.5 4.5q-6 0 -9 -7l-69 -181l-1 -4q-2 -7 4 -10q13 -10 24 -22t19 -27q22 -39 12 -86q-5 -23 -15.5 -43.5t-26.5 -39.5q-48 -58 -112 -73q-8 -2 -9 -9q-3 -16 -7 -32t-9 -32
q0 -4 2 -8q2 -3 2 -10q-1 -2 -1 -3t-2 -3q-6 -7 -12 -7q-10 0 -10 9q-2 12 0 23zM116 9q55 22 90 74q20 28 26 56q4 17 1 38q-3 20 -11.5 34.5t-22.5 27.5l-11 10q-23 -61 -43 -121t-38 -122zM176 296q19 45 37 88t36 88q-3 0 -4 -1q-8 -4 -17 -7.5t-17 -8.5
q-24 -15 -46 -34q-9 -8 -17.5 -17t-17.5 -19q-5 -7 -7 -17q-2 -9 0 -15t5 -11q8 -12 18.5 -21.5t22.5 -18.5z" />
    <glyph glyph-name="percent" unicode="%" horiz-adv-x="248" 
d="M333 539q-2 -6 -3 -9.5t-6 -3.5q-1 0 -1.5 -1.5t-2.5 -2.5l-72 -112q-35 -54 -67 -109t-62 -112l-7 -12q-25 -48 -49 -95.5t-47 -97.5l-7 -17q-1 -2 -3.5 -5t-3.5 -3q-2 0 -5 3q-4 4 -2 13l1 5q9 23 17.5 45.5t19.5 45.5q35 86 80 165q30 54 62.5 106t69.5 101
q17 23 34.5 46t34.5 46q2 2 4 4.5t5 4.5q4 3 8 3q2 0 2 -3v-5zM128 446q2 7 0 10q-2 4 -1 7q0 2 1 3t2 3q4 5 7.5 10t7.5 9q25 23 50 29q3 1 7 1q19 0 19 -25v-7.5t-1 -8.5l-2 -6l-2 -6q-14 -42 -42 -76q-5 -7 -11 -12.5t-14 -9.5q-8 -3 -13 -3q-8 0 -13.5 5t-6.5 16
q-1 7 -0.5 14t1.5 15zM162 468q-5 -12 -9 -24l-8 -24l-1 -15q-1 -5 1 -5l4 2l4 4q12 14 20.5 30.5t15.5 34.5l2 10q-3 5 -4 5q-17 0 -25 -18zM143 130q2 -3 5 -5t5 -4q7 -8 7 -19.5t-2 -23.5q-11 -46 -38 -80q-5 -7 -11.5 -12.5t-14.5 -7.5q-2 0 -2.5 -0.5t-2.5 -0.5
q-17 0 -19 21l1 28q5 17 12 32.5t15 30.5l22 32q2 3 5.5 5.5t5.5 4.5q4 3 6 3q4 0 6 -4zM137 77q1 5 1.5 11t0.5 11q0 7 -4 7t-8 -6q-2 -2 -2.5 -3.5t-2.5 -3.5q-9 -17 -17 -34t-13 -37q0 -2 -0.5 -5t-0.5 -5q0 -8 3 -9q2 0 4.5 1.5t4.5 3.5t3.5 4t3.5 4q20 29 27 61z" />
    <glyph glyph-name="ampersand" unicode="&#x26;" horiz-adv-x="315" 
d="M367 531q-4 -16 -11 -30.5t-15 -29.5q-2 -2 -2 -3q-23 -38 -48 -73t-52 -70l-98 -122q-2 -2 -2 -3.5t-1 -3.5q0 -40 7 -75.5t20 -68.5q2 -4 4 -4l4 2l107 58q3 2 5.5 3t5.5 2q5 0 5 -2q3 0 0 -3q0 -3 -1 -4q-3 -3 -6.5 -5.5t-7.5 -4.5q-24 -17 -49.5 -31t-51.5 -27
q-4 -3 -5 -5q0 -4 1 -5q11 -17 21 -35.5t21 -35.5q9 -15 24 -31q11 -11 25 -11q6 0 7 -1q1 -2 2.5 -3t1.5 -3q-2 -5 -7 -5q-14 2 -26.5 6t-22.5 13q-13 13 -23.5 27.5t-19.5 29.5l-24 40q-2 4 -5 4l-4 -2q-20 -8 -40 -14.5t-40 -9.5q-3 0 -5.5 -0.5t-5.5 -0.5
q-11 0 -20.5 3.5t-14.5 12.5q-14 20 -8 48l1 5q6 20 14.5 39t21.5 37l53 65q3 4 5 10l1 4q0 17 1.5 35t5.5 35q1 5 2.5 10.5t2.5 11.5q19 65 59 130q34 55 84 99q13 11 26.5 20t29.5 14q5 2 9.5 3t8.5 1q19 -1 26.5 -11t4.5 -26q1 -3 -1 -9zM139 252q7 3 10 8q8 10 16 19.5
t17 19.5q31 38 61 75t57 77q11 17 21 34t18 35q4 7 5 14q1 4 1 12q-2 10 -9 10q-1 0 -2.5 -0.5t-2.5 -0.5q-8 -1 -19 -7q-13 -6 -23.5 -14.5t-20.5 -19.5q-31 -30 -54 -64t-40 -72q-8 -18 -14.5 -36.5t-10.5 -36.5l-2 -11q-2 -11 -4 -21t-4 -21zM145 36q-14 30 -22 61.5
t-13 66.5l-5 -5l-44 -55q-7 -10 -13 -23.5t-10 -24.5q-1 -6 -1.5 -12.5t-0.5 -12.5q3 -18 23 -18q6 0 9 1q23 3 40 9q9 2 18 5.5t19 7.5z" />
    <glyph glyph-name="quotesingle" unicode="'" horiz-adv-x="45" 
d="M152 702q10 0 15.5 -8.5t2.5 -21.5q-2 -10 -8.5 -19.5t-14.5 -19.5l-32 -35l-5 -3q-3 -3 -8 -3q-3 0 -4 1q-4 3 -4 9l2 4l11 17q8 11 15 22l14 22q5 5 5 9q1 4 -2 9q0 2 -0.5 3t-0.5 3q2 9 14 11z" />
    <glyph glyph-name="parenleft" unicode="(" horiz-adv-x="132" 
d="M308 766l-10 -16l-10 -16q-54 -92 -96 -187t-74 -196q-12 -38 -22.5 -76.5t-18.5 -76.5q-6 -22 -9 -46q-8 -46 -12.5 -91.5t-6.5 -90.5q-1 -26 -1 -52t4 -51q3 -14 7 -22q0 -4 4 -4q3 0 5 2q1 1 3.5 1.5t4.5 0.5q5 -5 3 -13q-7 -22 -26 -22q-5 0 -7 1q-8 4 -12.5 12.5
t-7.5 18.5q-5 17 -6.5 35t-2.5 37q-2 47 1 93.5t8 94.5q6 48 15 95q3 11 5.5 22t5.5 22q27 109 68 213.5t98 204.5q13 23 27 45.5t28 45.5q3 5 7 10t9 10q4 5 9 8.5t10 5.5q7 0 10 -5t2 -11l-2 -5l-2 -2q-4 2 -8 5z" />
    <glyph glyph-name="parenright" unicode=")" horiz-adv-x="171" 
d="M-25 -172q5 8 10.5 16t10.5 16q53 92 95 187t73 196q12 38 23 76.5t19 76.5q2 11 4 23t4 23q8 46 12.5 91.5t6.5 90.5q2 26 1.5 52t-4.5 51q-1 6 -2.5 11.5t-3.5 10.5q-2 4 -4 4q-3 0 -6 -2q-2 -2 -7 -2q-3 2 -3.5 6t-0.5 7q7 22 26 22q5 0 7 -1q8 -4 12.5 -12.5
t7.5 -18.5q5 -17 6.5 -35t2.5 -37q2 -47 -1 -93.5t-8 -94.5q-3 -23 -6.5 -47t-8.5 -48q-2 -11 -4.5 -22t-5.5 -22q-27 -109 -68 -213.5t-98 -204.5q-14 -23 -28 -45.5t-28 -45.5q-7 -12 -15 -20q-8 -9 -19 -14q-7 0 -10 5t-1 11q0 3 2 5q1 1 1 2l4 -2t4 -3z" />
    <glyph glyph-name="asterisk" unicode="*" horiz-adv-x="171" 
d="M168 636q-5 1 -11 1h-6q-5 0 -7 1q-9 2 -7 11q4 11 11 12l25 5h9l-4 32q0 2 0.5 3t-0.5 3q2 8 9 12q1 1 4 1q5 0 8 -5t5 -9.5t4 -9.5l4 -9l5 9q5 7 8.5 13.5t7.5 12.5t10 6q1 -1 3 -3.5t1 -4.5l-6 -28l27 12q9 0 10 -5q2 -3 0 -5q0 -3 -5 -8l-31 -21q0 -3 6 -4t9 -2
q5 -1 9 -1.5t8 -2.5q10 -3 8 -11q-5 -10 -15 -11q-5 0 -8.5 0.5t-8.5 0.5h-17l8 -33q0 -2 0.5 -3.5t-0.5 -3.5q-1 -8 -6 -11q-1 -1 -4 -1q-4 0 -7 3l-19 20q0 -2 -1 -4l-2 -4q-2 -5 -4 -9.5t-4 -9.5q-4 -7 -8 -7q-8 0 -8 8q2 8 3 14.5t2 13.5l2 9l-10 -9l-18 -14
q-3 -2 -8 -2q-6 0 -7 2q-5 3 -3 10q3 6 6 10l6 8q3 5 7.5 9t9.5 9z" />
    <glyph glyph-name="plus" unicode="+" horiz-adv-x="197" 
d="M101 194l1 5q1 5 -9 5h-11h-13.5t-12.5 1q-1 0 -6.5 3.5t-3.5 8.5q3 13 17 14l26 3q5 0 9.5 0.5t9.5 0.5q6 1 9 7l27 55q2 5 5 8.5t6 7.5q7 7 12 7q1 0 1.5 -0.5t1.5 -0.5q6 -3 5 -10q-2 -9 -5.5 -16t-5.5 -14q-5 -8 -8 -16.5t-6 -17.5q-2 -2 -2 -4q-2 -3 6 -3
q29 0 52 -14q2 -2 6 -7q0 -2 0.5 -3t-0.5 -3q-2 -10 -13 -10q-4 0 -6 1q-12 4 -25 4.5t-26 0.5q-6 0 -9 -7l-13 -43q-2 -6 1 -9q3 -8 2 -16q-3 -11 -11 -19q-8 -6 -15 -6q-8 0 -11 9q-2 5 -1 9.5t1 9.5l4 16q-1 0 -1 1v3q2 7 6 20.5t6 18.5z" />
    <glyph glyph-name="comma" unicode="," horiz-adv-x="88" 
d="M61 -20q-8 -29 -28 -52l-33 -36q-7 -7 -13 -7q-4 0 -5 1q-6 1 -4 10q1 2 1 3t2 3l34 61q5 8 8 20q1 5 1 8.5v8.5q-2 2 -1.5 4.5t0.5 4.5q2 6 6.5 11t11.5 6q12 0 17 -9q8 -14 3 -37z" />
    <glyph glyph-name="hyphen" unicode="-" horiz-adv-x="218" 
d="M76 205q-8 2 -6 10t11 11q8 2 12 2q23 2 47 3t47 1q13 -1 25 -4l24 -6q3 -1 4 -4t1 -6q-1 -3 -5 -7q-7 -5 -11 -5q-5 -1 -8.5 -1h-7.5h-8t-8 1q-22 0 -44 0.5t-45 1.5h-18z" />
    <glyph glyph-name="period" unicode="." horiz-adv-x="93" 
d="M51 -1q-2 -4 -3.5 -7.5t-3.5 -7.5q-10 -13 -26 -13q-10 2 -16 6.5t-4 9.5q6 19 22 29q7 6 16 6q12 0 15 -10q1 -3 0.5 -6t-0.5 -7z" />
    <glyph glyph-name="slash" unicode="/" horiz-adv-x="232" 
d="M-47 -122q28 66 57.5 130t62.5 129q20 41 40.5 81t42.5 80q33 61 68.5 120.5t73.5 119.5q30 47 61 93t62 93q2 3 8 9q2 1 6 1q7 -2 5 -6q-2 -10 -4 -14l-38 -69q-34 -60 -70 -119t-71 -119q-40 -71 -78.5 -141.5t-73.5 -142.5l-144 -289q-2 -3 -2.5 -6t-2.5 -7
q-5 -11 -14 -11q-11 0 -9 12l1 6l2 6q3 9 17 44z" />
    <glyph glyph-name="zero" unicode="0" horiz-adv-x="207" 
d="M256 428q-2 -11 -3 -20t-3 -19q-4 -19 -9 -37t-11 -35q-8 -22 -20.5 -52.5t-28 -64t-32 -67t-30.5 -61.5t-25 -47t-15 -24q-8 -8 -16 -14.5t-17 -8.5q-2 0 -2.5 -0.5t-2.5 -0.5q-20 0 -25 28q-2 12 -2.5 24.5t0.5 25.5q2 16 4.5 31.5t5.5 30.5q7 33 18 67q12 39 24.5 78
t25.5 78q1 4 1 7.5t1 6.5t0.5 5.5t0.5 4.5q14 61 48 105q0 1 1 2t2 3q7 14 16.5 23.5t19.5 17.5q16 15 32 15q15 0 26.5 -13t15.5 -36q5 -28 0 -53zM42 54v-15t1 -15q0 -10 5 -10q4 0 8 4q4 3 7.5 6.5l8.5 8.5q15 20 27 42.5t23 46.5q50 107 85 221q9 27 15 54q4 21 6 42
q1 11 0.5 21.5t-5.5 18.5q-6 14 -19 14q-5 0 -8 -1q-8 -3 -14 -8.5t-14 -13.5q-18 -18 -28 -46q-20 -57 -37.5 -113.5t-32.5 -114.5q-5 -17 -9 -34.5t-8 -34.5q-3 -14 -5.5 -29t-4.5 -29z" />
    <glyph glyph-name="one" unicode="1" horiz-adv-x="125" 
d="M176 487q-7 -10 -14 -19.5t-13 -20.5l-47 -76q-1 -5 -1 -10q-9 -15 -18 -19q-5 0 -5 4.5t1 7.5l6 15q20 40 42 77t49 71l12 11q6 6 11 6q4 0 6 -1q7 -5 5 -19l-4 -14t-4 -15q-20 -49 -39.5 -97t-38.5 -97l-38 -102t-37 -102q-7 -18 -12 -36t-10 -37q-1 -5 -1 -8.5v-6.5
q-1 -3 -0.5 -5.5t-0.5 -5.5q-4 -14 -13 -16q-12 0 -12 10v14t2 15q6 24 11.5 48.5t12.5 48.5q11 32 21 64t22 64q15 39 31 77t33 76q11 23 21.5 46.5t21.5 46.5q0 1 0.5 2t-0.5 3z" />
    <glyph glyph-name="two" unicode="2" horiz-adv-x="214" 
d="M24 24q11 3 21 7q22 8 43.5 15t43.5 9q5 1 9 1h8q3 0 6 -0.5t2 -5.5q-1 -8 -9 -10t-15 -4t-15 -5l-86 -33q-8 -3 -14.5 -6t-13.5 -5q-2 -1 -4 -1q-8 0 -13 6.5t-3 17.5q3 15 11 28q12 22 24.5 43.5t26.5 42.5l127 198q33 50 59 98q8 14 14.5 28t12.5 28l1 4q1 5 1 16
q-5 -1 -9 -1.5t-9 -2.5q-21 -11 -38.5 -26.5t-32.5 -34.5q-34 -41 -55 -91l-4 -7q-1 -6 0 -8t6 -4q2 -1 4.5 -0.5t3.5 -1.5q4 -4 2 -9q0 -1 -2.5 -2.5t-4.5 -1.5q-3 0 -6.5 0.5t-6.5 0.5q-15 2 -14 17q1 3 1 6.5t1 6.5q1 5 2.5 9.5t3.5 9.5q17 42 41.5 78.5t59.5 65.5
q12 10 24 17t26 11q4 2 7 2h4q36 0 28 -43l-1 -5q-4 -17 -11 -33t-15 -31q-22 -44 -46.5 -85t-50.5 -83z" />
    <glyph glyph-name="three" unicode="3" horiz-adv-x="206" 
d="M144 308q8 2 17.5 4t17.5 3h6q20 0 28 -17t4 -42q-1 -4 -1 -7t-1 -6q-3 -14 -8 -28t-11 -28q0 -1 -0.5 -1.5t-0.5 -1.5q-35 -78 -87 -140q-11 -14 -23 -25t-26 -19q-22 -14 -42 -14q-4 0 -7.5 0.5t-8.5 1.5l-5 3q-4 4 -6.5 9t-0.5 12q3 11 9 19t11 10q5 0 7 -2l-2 -10
l-7 -11q2 -1 5 -2t5 -1q19 3 40 19q17 14 31.5 31t27.5 36q17 26 33 53.5t27 56.5q6 16 9 33l3 11q3 24 -14 24h-4q-14 -2 -28 -9t-28 -15l-14 -8t-13 -7q-8 -2 -9 -2q-11 0 -11 18q2 8 4.5 12.5t6.5 8.5l33 38q30 35 58.5 70t54.5 75l15 28l3 6q2 10 -7 10q-27 -5 -48 -24
q-7 -6 -14 -13t-13 -15q-4 -4 -6.5 -8.5t-5.5 -9.5l4 -5q-3 -2 -5.5 -4.5l-4.5 -4.5t-5 -2q-4 0 -4 6q-1 3 0 6.5t2 7.5l1 6q4 13 11 23.5t16 20.5q15 17 31 28t34 16q10 2 17 2h6q12 -2 16 -12.5t1 -26.5q-1 -3 -1.5 -6.5t-2.5 -7.5q-9 -21 -22 -42q-17 -29 -37.5 -55
t-40.5 -52z" />
    <glyph glyph-name="four" unicode="4" horiz-adv-x="205" 
d="M184 260q7 3 12 5t11 4q13 4 28 6q12 0 9 -14q-2 -2 -3 -4.5t-3 -3.5q-5 0 -5 2q-2 0 -3.5 0.5t-3.5 0.5q-10 0 -21.5 -8.5t-20.5 -10.5q-12 -5 -19 -21q-13 -36 -26.5 -72t-27.5 -73q-5 -14 -9 -28t-9 -28q-1 -3 -1 -6q2 2 3 4.5t3 4.5q6 6 10 6t2 -6q-6 -26 -24 -40
q-6 -3 -9 -3q-10 0 -10 12q-1 5 -0.5 11t1.5 11q4 17 8 33t9 33l40 124l-10 -6q-12 -8 -23 -13t-24 -7h-5q-23 0 -20 31q2 8 3.5 16t5.5 16q8 20 17 40t19 40l38 78t39 79l3 12q0 4 2 6q5 8 10 16.5t10 16.5q5 7 10 7q3 0 4.5 -3t2.5 -6q1 -4 -1 -10l-1 -4q-11 -25 -20 -49
t-20 -48q-20 -42 -39.5 -82.5t-38.5 -82.5q-7 -15 -11 -28q-3 -9 2 -9q2 0 3 1q6 2 12 4.5t12 5.5l30 16q5 2 10 11l119 273q3 1 4.5 2.5l3.5 3.5q4 4 7 4q7 0 5 -8v-8q-1 -2 -2 -4.5t-1 -4.5q-12 -32 -24.5 -64t-25.5 -64l-44 -107q-1 -2 -1 -4t-2 -6z" />
    <glyph glyph-name="five" unicode="5" horiz-adv-x="218" 
d="M113 203q-5 -1 -9.5 -1h-9.5h-8q-13 2 -19.5 12.5t-2.5 27.5l3 9q8 22 17 43.5t18 42.5q13 32 26 62.5t27 62.5q1 7 -2 9q-8 2 -7 8q1 1 3.5 5t4.5 7q1 1 6 4q9 3 15 15q0 2 2 3t4 3l3 -6q2 -4 4 -4q12 3 24 4t24 1h29q18 0 39 3q19 3 39 15q1 0 1.5 1t1.5 1
q2 0 3.5 -0.5t3.5 -0.5q-1 -2 -1.5 -5t-2.5 -4q-8 -5 -16 -10.5t-16 -8.5q-25 -7 -53 -10l-64 -5q-5 0 -9 -1t-9 -2q-5 -3 -5 -7q-12 -45 -29.5 -87.5t-34.5 -85.5q-5 -13 -9.5 -25.5t-9.5 -25.5q-2 -6 -2 -7q-3 -13 5 -13l57 7q3 1 6.5 1h6.5q12 0 22 -7q12 -8 15 -22
t-1 -30l-1 -4q-10 -38 -29.5 -70t-45.5 -61q-14 -17 -30.5 -32t-34.5 -24q-15 -7 -28 -8h-4q-15 0 -22 11.5t-3 31.5q3 15 9 27.5t13 23.5l35 54q2 2 3 3.5t3 2.5q1 1 5 1q2 0 2.5 -2.5t-0.5 -4.5q-3 -7 -8 -14l-4 -7l-22 -38t-17 -39l-2 -7q-1 -5 -1 -9t4 -7q1 -3 6 -3
q3 0 5.5 1t5.5 3q17 9 31.5 22t27.5 28q21 23 38 49t29 56q2 5 3.5 11.5t3.5 12.5q1 19 -16 19h-7q-1 1 -5 0t-12 -2.5t-22 -3.5z" />
    <glyph glyph-name="six" unicode="6" horiz-adv-x="177" 
d="M241 496q-6 7 -10 7t-12 -12q-10 -15 -20 -30.5t-18 -32.5q-26 -53 -48 -106.5t-40 -107.5q-2 -2 -2 -4.5t-1 -4.5l18 8q10 4 19 6.5t18 2.5q2 0 3.5 -0.5t3.5 -0.5q36 -5 33 -48q0 -9 -3 -18q-2 -12 -7 -24.5t-10 -23.5q-14 -29 -30.5 -55t-38.5 -49q-11 -11 -22 -18.5
t-24 -11.5q-3 -1 -9 -1q-18 0 -28 16q-9 22 -5 47l4 22l4 22q2 8 4 16.5t4 16.5q14 54 34 105.5t43 103.5q14 33 30 65.5t35 64.5q8 14 17.5 27t20.5 26q6 9 19 16q4 3 10 3q4 0 9 -5q3 -7 2 -14q-1 -2 -1 -4t-2 -4zM41 45q1 -7 0 -13.5t1 -12.5q0 -12 7 -12q1 0 9 4
q19 14 32 30q14 16 24.5 33t19.5 36q6 11 11 22.5t7 22.5q1 2 1 5t1 5q3 25 -17 27h-9q-22 0 -42 -13q-5 -3 -9 -12q-3 -7 -5 -13.5t-4 -13.5q-7 -24 -13 -47.5t-14 -47.5z" />
    <glyph glyph-name="seven" unicode="7" horiz-adv-x="187" 
d="M78 193q-7 -3 -14 -8q-5 -3 -7 -3q-4 0 -5 4q-1 2 -0.5 2.5t0.5 2.5q2 6 6 10q22 22 45 28q16 3 23 20l85 159q7 14 13.5 29t9.5 30l3 14q2 21 -11 21q-2 0 -8 -2q-19 -8 -38 -19q-5 -3 -14 -8.5t-19.5 -12t-19.5 -12.5t-14 -9l-6 -4t-7 -4q-3 0 -5 0.5t-4 0.5q2 3 2.5 6
t2.5 5q3 4 6.5 7t6.5 6q7 6 19.5 15t26 17.5t26.5 16t22 11.5q12 6 26 9h5q10 0 17 -7.5t8 -21.5q1 -8 0 -16t-3 -16t-4 -15t-4 -15q-13 -33 -28 -64.5t-30 -62.5q-18 -33 -34 -65l-3 -5q-1 -2 5 -4q5 -1 15 -1h15q2 0 3 -1t3 -1q-2 -7 -5 -7q-8 -4 -15 -4q-6 -1 -12 -1.5
t-12 -0.5q-8 0 -12 -9l-100 -191q2 -2 1.5 -2.5t-0.5 -1.5q-1 -7 2 -10q2 -2 0 -8q-1 -6 -4.5 -11.5t-6.5 -10.5q-1 -4 -5.5 -6t-7.5 -2t-4 1q-9 3 -7 14q0 2 0.5 5t0.5 5q1 2 1.5 5t2.5 5q9 22 17.5 43.5t18.5 42.5q13 28 26 55.5t26 54.5q2 6 4 9q-6 -2 -13 -5.5t-12 -6.5
z" />
    <glyph glyph-name="eight" unicode="8" horiz-adv-x="201" 
d="M95 225q-18 11 -21.5 30t1.5 43l1 6q6 26 17.5 51t25.5 48q21 33 45.5 61.5t53.5 51.5q8 6 15.5 11t15.5 9t16 4q21 0 19 -28q-1 -4 -1 -7.5t-1 -7.5q-1 -5 -2.5 -10.5t-3.5 -10.5q-11 -26 -21.5 -53t-22.5 -53q-15 -34 -31.5 -67.5t-33.5 -67.5q-1 -2 -1 -3t-1 -3
q0 -6 1 -9q8 -12 9 -26t-3 -30l-2 -12q-7 -20 -15.5 -39t-19.5 -37t-22.5 -35t-24.5 -34q-8 -11 -17.5 -19.5t-18.5 -15.5q-14 -9 -22 -9q-19 0 -24 24q-6 21 1 47l2 9q10 39 27 75.5t40 71.5l22 32zM100 292q-2 -9 -1 -16.5t6 -12.5t9.5 -8.5t10.5 -3.5q5 0 10 3q4 2 5 2
q6 0 4 -8q-1 -8 5 -10q2 0 4 3t3 5q23 47 44 97q14 32 27.5 64.5t25.5 64.5q2 5 3.5 10.5t2.5 10.5q1 4 1 7.5t1 7.5q3 10 -2 10q-4 0 -7 -3q-8 -3 -15 -9q-36 -28 -64 -63t-50 -77q-7 -14 -12.5 -28t-8.5 -28q-1 -5 -1.5 -9t-0.5 -9zM28 19q-1 -5 -0.5 -10.5t0.5 -10.5
q2 -8 7 -8t9 4q5 4 8.5 7.5l8.5 8.5q32 39 57 88q8 15 14.5 30t11.5 32q1 5 1 9.5v9.5q-1 9 -6 13.5t-8 12.5q-2 2 -4 2.5t-4 2.5q-3 3 -6 3t-8 -8q-20 -29 -36 -59.5t-28 -62.5q-8 -21 -15 -46q-1 -5 -1.5 -9t-0.5 -9z" />
    <glyph glyph-name="nine" unicode="9" horiz-adv-x="223" 
d="M233 441q-19 -22 -37 -43.5t-38 -41.5q-8 -9 -17.5 -16.5t-19.5 -15.5q-5 -4 -9.5 -5.5t-9.5 -2.5q-11 0 -16 9.5t-3 24.5q0 5 2 15q3 14 8.5 27.5t12.5 26.5q28 61 78 95q6 5 13 8t15 5q2 1 6 1q9 0 14 -9t3 -24l-4 -16q-2 4 -2 5q3 23 -13 23q-5 0 -7 -1
q-20 -8 -39 -31q-13 -14 -24.5 -30t-19.5 -35q-5 -9 -9 -19.5t-8 -20.5l-2 -8q-1 -5 -1 -8.5t3 -3.5q2 0 7 3q8 7 16.5 14.5t16.5 15.5q17 18 33 37t33 37q8 9 16 17l16 16q9 9 18 9q14 0 14 -26q1 -15 -2 -31l-6 -32l-3 -13q-9 -43 -22 -84.5t-28 -83.5q-17 -48 -37.5 -93
t-48.5 -87q-17 -26 -36.5 -46t-42.5 -31l-10 -4t-10 -3h-6q-23 0 -24 36q0 14 3 29q3 16 9 31q12 29 26.5 54t29.5 50q0 1 0.5 1.5t0.5 1.5q4 4 6 4q1 0 2.5 -3t0.5 -5v-4q-7 -12 -13.5 -23.5t-11.5 -23.5q-11 -18 -19.5 -36.5t-13.5 -38.5q-5 -19 -2 -34q3 -11 10 -11
q3 0 5 1q11 4 22 13t21 20q20 21 35.5 47t29.5 54q29 58 52 119t40 124q3 9 5.5 19t4.5 20l8 39q1 4 1 14z" />
    <glyph glyph-name="colon" unicode=":" horiz-adv-x="60" 
d="M76 213q9 -1 11 -14l-1 -6q-2 -11 -9.5 -18t-16.5 -10q-1 0 -2.5 -0.5t-2.5 -0.5q-7 0 -8 9v19l2 5q5 1 7 4.5t4 5.5q5 7 12 7q1 0 2 -0.5t2 -0.5zM81 277q-13 4 -9 20q0 4 2 6l4 9q3 8 12 12q1 0 2.5 0.5t2.5 0.5q4 0 8 -6q3 -4 6 -7t1 -9l-1 -4q-2 -7 -6 -11.5t-9 -8.5
q-3 -2 -6.5 -2h-6.5z" />
    <glyph glyph-name="semicolon" unicode=";" horiz-adv-x="65" 
d="M83 205q5 -6 5.5 -13.5t-1.5 -15.5q-2 -6 -3.5 -12t-4.5 -11q-14 -25 -37 -42l-6 -3q-4 -2 -6 -2q-4 0 -5 3q-2 3 -1 5q0 2 1 3.5t2 3.5q22 23 28 52l1 17q-1 2 -0.5 3t0.5 3q2 8 8 11q4 2 9 2q7 0 10 -4zM84 279q-6 1 -10.5 3t-5.5 7q-2 5 0 10q2 8 9 14q7 7 19 14
q2 2 6 2q7 0 9 -6q2 -2 1 -5.5t-2 -7.5q-2 -8 -5 -15.5t-8 -10.5q-4 -2 -7 -2.5t-6 -2.5z" />
    <glyph glyph-name="less" unicode="&#x3c;" horiz-adv-x="164" 
d="M91 229q3 -2 5.5 -2.5t4.5 -2.5q14 -8 27 -16.5t27 -17.5q4 -2 8 -4.5t7 -5.5q6 -2 4 -8q-2 -5 -10 -7h-4q-13 0 -27 7q-19 10 -37.5 19.5t-38.5 18.5q-12 7 -9 18q1 7 10 14q8 6 16.5 11.5t17.5 11.5q23 16 47 32t47 33l5 4q6 2 8 2q5 0 9 -4q3 -3 1 -9q0 -4 -4 -8
l-8 -9q-26 -19 -50.5 -38t-51.5 -36q0 -1 -1 -1q-1 -1 -1.5 -1t-1.5 -1z" />
    <glyph glyph-name="equal" unicode="=" horiz-adv-x="266" 
d="M273 235q0 -1 0.5 -1.5t0.5 -2.5q-2 -4 -4 -5q-6 -3 -17 -3q-8 5 -16 6t-17 1q-7 0 -13.5 -0.5t-13.5 -0.5q-24 -1 -48 -1.5t-48 -0.5h-6.5t-6.5 1q-18 3 -15 12q2 11 20 13q8 2 16.5 2.5t17.5 1.5l74 4q22 0 37.5 -2.5t26.5 -10.5q10 -4 12 -13zM243 186q5 -2 8 -3.5
t2 -6.5q-1 -6 -14 -9q-1 -1 -6 -1q-3 0 -3 4h-93q-13 0 -25 -1t-25 -1h-19q-16 3 -14 14q3 11 20 14q11 2 22.5 3t22.5 2q8 0 17 1t19 1q9 0 16.5 -1t17.5 -1q11 -1 21.5 -4.5t21.5 -6.5z" />
    <glyph glyph-name="greater" unicode="&#x3e;" horiz-adv-x="168" 
d="M155 272q-2 2 -5 2.5t-5 2.5q-13 8 -26.5 16.5t-26.5 17.5q-10 5 -15 10q-5 2 -5 8q2 4 5 5l6 2h4q8 0 14 -2t12 -5q20 -10 38.5 -19.5t37.5 -18.5q12 -6 10 -18l-3.5 -7t-6.5 -7q-8 -6 -17 -11.5t-17 -11.5q-24 -16 -47.5 -32t-46.5 -33l-6 -4q-4 -2 -7 -2q-6 0 -10 4
q-1 2 -1 9l2 4l2 4l9 9q25 19 49.5 38t52.5 36z" />
    <glyph glyph-name="question" unicode="?" horiz-adv-x="303" 
d="M437 690q1 -13 -2 -28q-3 -17 -9 -31q-14 -34 -30.5 -66t-34.5 -64l-104 -180q-50 -84 -90 -171q-14 -32 -27.5 -64.5t-23.5 -65.5q-5 -13 -8 -26t-5 -26q-2 -6 1 -9q3 -7 2 -11q0 -3 -4 -7q-7 -5 -12 -5q-7 0 -8 4q-4 5 -6 15q-1 13 2 28q1 5 2.5 9.5t2.5 9.5
q11 38 24.5 74t28.5 72q13 31 27 60.5t30 59.5q26 48 53 94t55 93q19 31 37.5 62t36.5 63q10 17 18 34.5t14 35.5q1 4 2 7.5t2 7.5q1 5 1.5 11t-0.5 11q-3 15 -13 15q-5 0 -11 -3l-18 -10t-17 -11q-74 -56 -129 -134q-8 -13 -16 -26.5t-13 -27.5l-2 -7q-1 -5 -1.5 -8.5
t-0.5 -8.5q0 -7 9 -7q1 0 1.5 0.5t1.5 0.5t2 -0.5t2 -0.5q-12 -9 -21 -9q-8 0 -11 12q-4 14 -1 31q1 7 5 16q8 22 20.5 41.5t26.5 37.5q23 29 48.5 55t55.5 49q12 9 25.5 17.5t27.5 13.5q9 4 20 4q10 0 17 -4q10 -5 13 -13.5t4 -19.5zM82 -129q2 -3 2.5 -6.5t1.5 -6.5
q2 -5 0 -10q-1 -4 -5 -12q-2 -2 -5.5 -7.5t-5.5 -5.5q-5 -2 -10 -3t-12 -2q-8 0 -12 10q-2 4 -2 8.5v8.5q6 26 32 29q1 0 2 0.5t2 0.5q2 1 4 1q6 0 8 -5z" />
    <glyph glyph-name="at" unicode="@" horiz-adv-x="473" 
d="M36 173q10 45 28.5 80.5t44.5 67.5q70 87 169 131q29 13 59.5 20.5t60.5 7.5h14q25 -2 45.5 -10t34.5 -27q20 -27 14 -67l-1 -8q-6 -28 -19.5 -52.5t-33.5 -47.5q-12 -16 -26.5 -30t-31.5 -25q-11 -7 -22 -11t-23 -4q-26 2 -35 20q-4 6 -6.5 12.5t-5.5 13.5q-2 6 -4 6
q-1 0 -7 -4q-11 -8 -21.5 -15.5t-21.5 -15.5q-14 -11 -28 -21t-30 -18q-8 -4 -15.5 -6.5t-15.5 -2.5q-14 0 -20.5 8t-4.5 22l1 4q2 11 7.5 21.5t13.5 21.5q42 54 101 66q5 1 8.5 1.5t7.5 0.5q3 0 5.5 -0.5t5.5 -0.5q19 -3 27 -23q3 -11 11 -21q5 -5 7 -11.5t4 -11.5l2 -7
q8 -14 20 -14q6 0 15 3q11 5 20.5 12t17.5 15q42 40 64 91q2 5 3.5 11t2.5 11q2 10 2.5 19t-2.5 19q-5 23 -20.5 34t-38.5 15q-6 1 -12 1h-11q-43 0 -89 -20q-65 -27 -119 -76q-35 -31 -61.5 -66t-42.5 -77q-4 -10 -6.5 -19.5t-4.5 -19.5q-5 -21 -5 -41t7 -40q21 -62 91 -65
h4q31 0 59.5 11t57.5 30q28 18 56 41q29 24 56 50.5t48 58.5q11 16 21.5 32.5t21.5 32.5q2 5 3 5q8 4 9 4t3.5 -3t2.5 -5q-2 -5 -3 -9t-3 -8q-32 -66 -87 -124q-18 -18 -36 -34.5t-38 -32.5q-23 -18 -46.5 -34.5t-49.5 -27.5q-44 -19 -83 -19q-23 0 -47 8q-68 23 -80 99
q-6 35 0 63zM304 276q-4 15 -18 19q-3 1 -9 1q-5 0 -11 -1t-11 -3q-59 -21 -91 -78q-2 -4 -3 -7.5t-2 -8.5q-2 -8 5 -8q1 0 1.5 0.5t1.5 0.5q2 1 5.5 1.5t6.5 2.5q17 8 31.5 19t30.5 22q14 11 29 23t34 17z" />
    <glyph glyph-name="A" unicode="A" horiz-adv-x="368" 
d="M336 164q-2 -10 -4.5 -19.5t-4.5 -19.5q-9 -45 -15 -89t-7 -89q1 -16 3 -31.5t5 -31.5q-1 -3 1 -5q0 -2 0.5 -4.5t-0.5 -4.5q-2 -6 -7 -9q-6 -3 -9 -3q-5 0 -11 6q-19 17 -19 42q-2 21 -2.5 41.5t1.5 40.5q3 36 8 72t11 72q5 29 10 57t12 57q1 11 -9 11q-50 -5 -98 -12.5
t-96 -17.5q-15 -3 -18 -16q-8 -43 -9.5 -83.5t3.5 -79.5l5 -21q5 -13 19 -13q4 0 7.5 -2t2.5 -7q-2 -6 -5.5 -7.5t-6.5 -1.5h-5q-12 2 -18 8t-8 16q-10 22 -13.5 49t-3.5 53.5t2.5 50.5t4.5 39l1 6h-2q1 0 -7 -2q-25 -8 -50 -14.5t-49 -20.5q-1 -1 -5 -1q-6 0 -4 5
q0 2 3 6.5t8 6.5l34 16t35 16q7 3 19 6.5t20 5.5q18 87 68.5 188.5t131.5 207.5q43 49 94 91q13 10 28 19t30 16q19 8 34 8q28 0 35 -33q1 -6 2 -12.5t-1 -14.5q-3 -14 -5.5 -27t-5.5 -27q-11 -54 -29 -106t-35 -104q-1 -3 -2 -5.5t-2 -5.5l-41 -136v-4q-3 -9 11 -9h32
q23 0 46.5 -1.5t45.5 -6.5q13 -2 24 -6q3 -2 4 -4.5t3 -4.5q-4 -2 -7 -4t-6 -2l-58 4q-24 0 -48.5 -0.5t-47.5 -0.5q-7 0 -8.5 -3t-2.5 -8zM457 692q-2 5 -1.5 8.5t1.5 8.5l1 20q0 19 -14 19q-5 0 -17 -5q-27 -14 -50 -33q-34 -28 -64 -60t-56 -67q-18 -24 -42 -61.5
t-47 -81.5t-42.5 -93t-29.5 -95q2 1 3 0.5t9 1.5q28 5 56 10.5t56 10.5q11 3 22.5 4.5t22.5 3.5h24q10 0 19.5 2t11.5 11q3 12 6.5 24.5t8.5 23.5z" />
    <glyph glyph-name="B" unicode="B" horiz-adv-x="467" 
d="M128 366q11 18 22.5 36t24.5 36q41 63 86 121.5t99 112.5q20 20 42 37t46 31q18 10 32 10q9 0 18 -6q8 -6 9.5 -15t-0.5 -19q0 -7 -3 -13q-11 -26 -24.5 -50t-30.5 -47q-26 -35 -52.5 -68.5t-52.5 -67.5l-7 -8l23 8q17 7 34.5 11t34.5 4h8.5t8.5 -1q30 -5 47 -22t23 -45
q5 -20 4 -40.5t-6 -42.5q-1 -11 -6 -25q-5 -17 -10.5 -34.5t-12.5 -34.5q-14 -38 -33 -73.5t-41 -70.5q-34 -54 -73.5 -103t-87.5 -93q-23 -20 -48 -38.5t-54 -28.5q-12 -4 -24 -4q-20 0 -32.5 12t-10.5 32q1 4 1 7t1 7q2 5 3 10t3 10q11 27 27 51t35 47q30 35 61.5 67
t67.5 61q35 27 71.5 49.5t76.5 36.5q10 3 14 12q26 58 39 115q4 18 4 35.5t-5 34.5q-14 41 -57 41q-10 0 -15 -1q-28 -5 -54 -16.5t-51 -28.5q-15 -10 -30 -21.5t-29 -22.5q-5 -4 -9.5 -8t-9.5 -7q-7 -4 -14 -4q-8 0 -10 5q-2 3 -2 9q2 7 8 13l42 44q40 41 76.5 82t71.5 86
q18 24 35 48.5t31 50.5l12 29q2 7 -1 9q-1 1 -3 1q-4 0 -6 -2q-9 0 -18 -6.5t-17.5 -15.5t-16.5 -17.5t-14 -12.5q-38 -37 -71.5 -77.5t-65.5 -82.5q-42 -57 -79 -114.5t-70 -118.5q-12 -23 -23 -47.5t-18 -49.5q-2 -8 -5 -11q-7 -10 -15 -10q-13 1 -16 10q-1 4 1 12l2 9
q4 12 13.5 47t22 81.5t26.5 98t25.5 97t20.5 78t11 41.5q0 2 3 9t7.5 14.5t11 13.5t15.5 6q12 0 8 -13q0 -7 -6 -11q-5 -4 -7 -14q-4 -14 -7 -28.5t-6 -28.5l-12 -57q-8 -35 -17 -70.5t-18 -70.5zM422 188q-5 -2 -8 -2.5t-6 -2.5q-23 -14 -45.5 -27.5t-44.5 -29.5
q-38 -28 -72 -60.5t-64 -69.5q-17 -20 -31 -39.5t-24 -42.5q-6 -15 -9 -30l-2 -10q-1 -14 12 -14q5 0 8 1l14 6t12 7q17 14 33.5 27t31.5 28q114 109 190 248q2 2 2.5 4.5t2.5 6.5z" />
    <glyph glyph-name="C" unicode="C" horiz-adv-x="347" 
d="M9 47q13 54 31 103.5t39 97.5q79 173 196 332q24 34 52 65.5t60 59.5q14 11 27.5 20.5t30.5 15.5q11 4 22 4q31 0 37 -34q3 -24 -3 -50l-2 -10t-3 -10q-14 -45 -35 -88t-45 -86q-4 -5 -7.5 -10.5t-8.5 -10.5q-2 -3 -5.5 -4t-5.5 -3q-1 2 1 8v4q10 20 20 39t20 39
q14 30 27 60.5t20 62.5q1 5 1 8.5t2 8.5q2 20 -1 36q-3 15 -16 15q-7 0 -14 -3q-17 -6 -30.5 -16.5t-27.5 -23.5q-46 -45 -83 -96.5t-70 -105.5q-45 -74 -82 -148.5t-65 -152.5q-9 -27 -16.5 -54.5t-15.5 -54.5q-2 -6 -3 -12.5t-3 -12.5q-8 -38 -5 -70q3 -22 12 -40
q9 -12 22 -17.5t27 -5.5q31 0 69.5 21t76.5 52.5t71.5 69.5t56.5 72q12 7 16 7t3 -7q0 -3 -4 -11q-17 -29 -50.5 -70t-75.5 -79t-88 -65t-88 -27q-33 0 -59 20q-18 14 -27 40q-7 19 -7.5 39.5t1.5 41.5q2 11 3.5 20.5t1.5 15.5z" />
    <glyph glyph-name="D" unicode="D" horiz-adv-x="301" 
d="M292 169q6 3 9 3q4 0 4 -7q-2 -5 -6.5 -11t-10.5 -9q-14 -8 -29 -17t-29 -19q-7 -3 -10 -10q-28 -41 -58.5 -79.5t-66.5 -73.5q-16 -16 -32.5 -30t-35.5 -24q-15 -8 -30 -9q-11 0 -16.5 7.5t-3.5 18.5q3 13 10 23t15 21q20 25 44 46.5t50 41.5l30 22t31 22q5 4 8 8t6 9
q29 43 56 87t50 89q29 57 57.5 114.5t41.5 117.5q6 13 9 27q6 30 7 59.5t-5 58.5q-5 21 -16.5 36t-34.5 19q-2 0 -4 0.5t-4 0.5q-13 0 -26.5 -4.5t-26.5 -10.5q-25 -12 -47.5 -28.5t-42.5 -35.5q-11 -9 -14 -23q-6 -28 -11.5 -55.5t-11.5 -55.5l-24 -111q-3 -14 -6.5 -28.5
t-7.5 -29.5l-3 -15q-8 -42 -15.5 -83.5t-15.5 -83.5q-5 -23 -8 -45t-8 -45q-3 -12 -10 -24q-2 -3 -7 -6t-8 -3q-3 1 -6 5t-3 7q0 15 1.5 30t3.5 31q5 44 10.5 87t12.5 87q5 24 9.5 48t9.5 48q3 17 7 33.5t8 33.5q7 31 15 61.5t17 62.5q1 2 1.5 4t1.5 4q-29 -35 -51.5 -70
t-42.5 -73l7 -4q-5 -7 -10.5 -13.5t-11.5 -13.5q-2 -2 -6 -2q-5 0 -5 6v13q1 2 1 4t2 4q12 32 28.5 62.5t36.5 59.5q15 21 31.5 41.5t32.5 40.5q8 11 11 21.5t7 21.5q2 6 4.5 13t5.5 15l1 6q4 13 14 13q6 0 7 -3.5t2 -8.5q-1 -6 -0.5 -11.5t0.5 -13.5l14 10q21 17 42.5 30
t46.5 22q24 9 46 9q52 0 73 -50q13 -27 15 -57t0 -62q-3 -32 -9 -62q-8 -39 -21.5 -77.5t-30.5 -76.5q-23 -52 -49.5 -101.5t-55.5 -98.5q-2 -3 -3.5 -6.5t-3.5 -6.5q11 5 21 10.5t20 11.5zM16 -74q28 21 51 45.5t43 51.5q-28 -21 -52.5 -44.5t-41.5 -52.5z" />
    <glyph glyph-name="E" unicode="E" horiz-adv-x="432" 
d="M282 365q-18 -5 -37 -10l-38 -10q-17 -4 -33.5 -6.5t-32.5 -2.5q-15 0 -28 3q-31 6 -43.5 27t-6.5 51q2 10 5 17q11 30 30 57t40 52q43 49 89 88q43 36 88 66t95 52q23 11 46.5 17t48.5 6q21 -2 34 -9q29 -16 20 -53q-1 -5 -3 -10.5t-4 -10.5q-9 -20 -21 -38t-23 -37
q-7 -11 -14.5 -21.5t-15.5 -21.5l-13 -25q-2 -3 -5 -6t-6 -4q-3 0 -6.5 2t-3.5 4q-3 4 -1 11q0 2 1 3t1 3q11 18 21.5 35t21.5 34q11 18 21 36.5t15 38.5q7 36 -28 36q-25 0 -46.5 -8.5t-41.5 -19.5q-30 -15 -57.5 -33.5t-54.5 -38.5q-68 -54 -122 -117q-14 -17 -27 -35.5
t-24 -37.5q-6 -9 -9.5 -19t-5.5 -21q-7 -37 30 -39h13q18 0 36.5 2.5t37.5 7.5q42 11 83 25t82 32q5 2 8.5 3t7.5 1q5 0 10 -3q9 -5 7 -13q-2 -5 -8 -10q-8 -7 -16 -12.5t-16 -11.5q-24 -18 -49.5 -36t-48.5 -38q-67 -57 -126 -118.5t-110 -133.5q-20 -30 -37 -61t-29 -63
l-6 -16t-5 -16q-3 -16 0 -31q3 -26 26 -26q42 0 88.5 15.5t93 40t90.5 56t82.5 62.5t69 59t49.5 47q3 6 11 6q6 0 10.5 -3t3.5 -7q-1 -2 -4 -5q-20 -20 -51.5 -50t-71.5 -64t-86.5 -67.5t-95.5 -60.5t-99 -44t-97 -17q-35 0 -53.5 24t-10.5 63l2 9q8 38 25 73t39 69
q35 57 79 108t95 99q25 23 51.5 45t52.5 45z" />
    <glyph glyph-name="F" unicode="F" horiz-adv-x="244" 
d="M0 133q0 -1 -0.5 -1.5t-0.5 -1.5l-2 -10q-1 -4 -10 -4.5t-11 -0.5t-3 4t0 7q2 7 7.5 15.5t10.5 13.5q12 14 26 26t27 25q9 9 12 18q22 85 49 167.5t59 166.5l2 11q-9 -2 -29 -12t-42 -22.5t-41.5 -25.5t-27.5 -20q11 2 21 3t21 3l-1 -4l-12 -3q-10 -4 -19.5 -6.5
t-20.5 -6.5q-4 -2 -7 -3t-6 -1q-4 0 -8 4q-4 5 -2 13q2 7 7 11q8 10 17 18.5t19 16.5q34 26 71 48t75 40q11 5 17 18q8 20 16.5 41t17.5 41l3 6q4 3 6.5 6.5t6.5 3.5q8 -1 8.5 -14t0.5 -19l-2 -11q-3 0 -5.5 0.5t-5.5 1.5q-5 -12 -9 -24.5t-8 -26.5l46 18q118 47 242 61
q22 3 44 3t38 -4q11 -3 20.5 -7.5t19.5 -9.5q6 -2 8 -9q0 -2 0.5 -5t0.5 -5q-1 -1 -1 -1.5t-1 -1.5q-2 -2 -6 -2.5t-7 -1.5q-1 0 -2 0.5t-2 0.5q-12 7 -25.5 9.5t-27.5 2.5q-17 0 -36 -3q-30 -4 -61.5 -10.5t-69 -17.5t-84 -27.5t-106.5 -40.5q-10 -4 -13 -14l-53 -167
q-9 -30 -16.5 -60t-15.5 -61q-2 -6 -3.5 -12t-3.5 -11q-1 -3 -1 -5.5t-1 -7.5q18 12 31 18q13 8 26 15t27 13q8 5 15.5 6.5t15.5 1.5t19 -3q2 -2 3.5 -5t3.5 -5q-3 -2 -6.5 -4.5t-5.5 -2.5q-20 0 -36.5 -7.5t-31.5 -17.5l-32 -22l-32 -22q-7 -5 -9 -15q-5 -30 -11 -60
t-10 -60q-5 -33 -8 -66t-5 -66q-1 -17 1.5 -34.5t4.5 -34.5q0 -12 15 -14q9 0 11 -7v-4q-1 -3 -2.5 -5.5t-3.5 -4.5q-12 -12 -27 -12q-9 0 -17 4.5t-12 12.5q-9 18 -11.5 38t-2.5 40q2 38 5.5 75t6.5 75q2 20 5.5 41t6.5 41q0 2 -0.5 2.5t0.5 2.5q-1 0 -1.5 0.5t-1.5 0.5z
" />
    <glyph glyph-name="G" unicode="G" horiz-adv-x="439" 
d="M386 239l-34 -10l-34 -10q-10 -3 -19 -4.5t-20 -3.5q-10 0 -12 11v5q1 9 11 12q32 15 63.5 27.5t65.5 19.5q4 1 10 1q11 0 18.5 -4.5t15.5 -9.5q6 -4 2 -15q-2 -10 -6 -17.5t-6 -14.5l-13 -28q-30 -66 -58.5 -129.5t-56.5 -129.5q-11 -23 -17.5 -46.5t-14.5 -47.5
q-2 -5 -2 -10.5t-1 -10.5q2 0 3 -1q3 5 5.5 8.5t6.5 6.5q2 2 4.5 3t4.5 3q4 -6 3 -9q-3 -22 -26 -33q-5 -3 -10 -3q-11 0 -14 12q-2 7 -2 14.5t1 15.5q5 22 9.5 43.5t9.5 43.5q11 42 27.5 82.5t34.5 81.5l16 34l16 34q1 2 2 5t2 5q-4 0 -6.5 -3t-4.5 -5q-35 -38 -70 -75.5
t-71 -75.5q-19 -20 -40 -37.5t-45 -31.5q-13 -8 -26.5 -14.5t-28.5 -8.5q-4 -1 -12 -1q-21 0 -36.5 10.5t-20.5 29.5q-7 20 -6.5 40.5t4.5 41.5l3 14q8 41 23.5 81t32.5 79q64 140 151 267q33 49 68.5 96t77.5 89q20 20 41 37t45 29q22 12 44 12q30 0 47 -24q8 -12 8.5 -27
t-1.5 -30q-2 -11 -3.5 -21t-3.5 -21q-5 -26 -13 -52.5t-17 -52.5q-2 -4 -2 -6v-3q2 -6 2 -8q-1 -3 -4 -4q-8 -5 -15 -5q-5 0 -7.5 4t-1.5 7l1 7q2 7 3.5 13.5t3.5 13.5q5 16 8.5 32t7.5 33q8 35 8 64q-1 16 -8 32q-3 13 -19 13q-3 0 -9 -2q-23 -10 -42 -23
q-29 -22 -53.5 -48.5t-46.5 -55.5q-82 -108 -144.5 -222t-107.5 -235q-18 -43 -27 -88l-2 -7q-5 -27 -2 -50q2 -26 22 -26q9 0 23 6q27 11 49 30t42 39q33 34 65 68.5t64 69.5z" />
    <glyph glyph-name="H" unicode="H" horiz-adv-x="375" 
d="M35 133q-11 -6 -21 -11.5t-19 -11.5l-52 -31q-2 -2 -8 -4q-5 -3 -8 -3q-6 0 -6 4q-2 4 0 9q0 2 1 3.5t2 3.5q11 13 25 21q20 13 40.5 25.5t41.5 24.5q10 7 14 17q19 76 41.5 151t51.5 150q13 32 27.5 63t28.5 63l4 10q2 4 6 8t9 6q9 0 11 -6q5 -3 3 -10q0 -3 -4 -9
q-6 -11 -10 -22l-8 -22l-12 -31q-17 -44 -33.5 -87t-32.5 -87q-7 -20 -13.5 -39t-11.5 -39l-23 -80l-3 -12q9 2 11 4q51 23 102.5 39.5t103.5 24.5q12 1 13 12q1 3 2 5.5t2 5.5q8 27 16.5 54t18.5 54q20 60 42.5 118.5t51.5 117.5q17 36 36 71.5t38 71.5q9 16 21 16h4
q6 -3 5 -13q-1 -2 -2 -5t-3 -7q-29 -60 -55 -120t-48 -122q-18 -51 -35 -100.5t-34 -100.5l-11 -37l-1 -4q-1 -8 10 -9h21t20 -2q17 -3 14 -21q-4 -11 -8 -12q-5 0 -9 4q-4 2 -7 4.5t-7 2.5q-9 0 -17.5 -1t-17.5 -2q-9 0 -14 -11q-13 -49 -24.5 -97t-22.5 -96
q-3 -17 -6.5 -33.5t-6.5 -33.5q-4 -20 -4 -44v-3q-2 -11 -1 -17.5t2 -14.5q2 -5 2 -12q-1 -5 -6 -10q-6 -6 -15 -6q-5 0 -8 3q-4 5 -7 9.5t-4 10.5q-1 17 -0.5 35t2.5 36q5 43 12.5 85t16.5 85l10 43q3 12 6.5 24.5t5.5 25.5q1 9 -4 9q-1 0 -2 -0.5t-2 -0.5
q-51 -14 -101.5 -30t-101.5 -39q-12 -6 -15 -16q-2 -19 -4.5 -35.5t-4.5 -33.5q-2 -18 14 -24q3 -1 4 -4l2 -6q-3 -2 -6 -3.5t-6 -2.5q-22 0 -28 17q-6 16 -6 37q-1 11 1 23.5t4 26.5z" />
    <glyph glyph-name="I" unicode="I" horiz-adv-x="113" 
d="M238 723q-5 -5 -10 -9t-10 -9q-29 -31 -53 -64.5t-45 -68.5q-17 -30 -32.5 -60.5t-26.5 -62.5q-2 -8 -4 -15l-4 -14q-2 -8 -2.5 -15t-1.5 -14q-2 -17 3 -29.5t21 -18.5q15 -6 17 -25q-2 9 -7 12t-12 3h-6.5t-7.5 -1h-4q-10 0 -15.5 5t-10.5 12q-8 14 -9 30.5t2 34.5l2 7
q6 29 17 57t25 56q23 47 52 90.5t67 82.5q14 15 32 30q10 8 20 11q5 2 8.5 3t6.5 1q18 0 20 -19t-1 -34q-8 -41 -21.5 -80.5t-27.5 -79.5q-35 -96 -69 -190.5t-68 -190.5q-14 -41 -27 -81t-27 -80l-3 -9l-8 -27q-2 -7 -2 -13t2 -12t2 -11q-4 -11 -11 -17q-2 -2 -5.5 -4
t-5.5 -2q-1 0 -1.5 0.5t-1.5 0.5q-10 2 -10 12q1 8 1.5 14.5t2.5 14.5l2 10l18 69l1 5q11 36 21 72t23 72q40 112 80 222.5t81 222.5q8 22 13.5 44t12.5 45q1 4 1 8v8q-1 0 -2 0.5t-2 0.5z" />
    <glyph glyph-name="J" unicode="J" horiz-adv-x="322" 
d="M573 765q-6 -17 -13 -32.5t-14 -32.5q0 -1 -2 -5q-1 -10 9 -17q13 -9 18.5 -19t2.5 -24q-2 -10 -6 -18q-3 -5 -6.5 -9.5t-9.5 -4.5q-8 0 -6 9q0 2 1 4.5t1 4.5l2 4t1 4q4 16 -8 27q-3 2 -9 4q-3 -3 -6 -9q-29 -63 -59.5 -127t-58.5 -127l-12 -24l-1 -2v-1q0 -1 -1.5 -2.5
t-1.5 -3.5q-1 -1 3 -7q0 -2 -0.5 -5t-2.5 -3q-9 -3 -12.5 -9.5t-7.5 -12.5q-30 -60 -62.5 -117.5t-70.5 -114.5q-29 -43 -60.5 -84t-71.5 -78q-14 -13 -29.5 -24.5t-33.5 -21.5q-23 -13 -45 -13q-8 0 -16.5 2.5t-15.5 8.5q-11 8 -14 20t-2 26q0 16 3 34q6 25 18 51
q52 118 158 209q32 26 64.5 50.5t68.5 43.5q18 10 37 16.5t39 14.5q1 1 7 4.5t8 7.5l146 288q4 8 6 14q1 5 -3 6.5t-15 3.5q-67 0 -129.5 -12t-116.5 -26.5t-97.5 -26.5t-71.5 -12q-5 0 -9 0.5t-9 1.5q-10 2 -14 10t-2 16q3 12 15 12q7 0 13 -3q3 -3 15 -3q15 0 41.5 5
t60.5 13t72.5 16.5t77 16.5t75 13t65.5 5q25 0 45 -5l1 1l4 8q7 15 14 28t13 25q2 2 8 7t10 5q3 0 2 -4zM336 334q-14 -7 -29.5 -14t-31.5 -15q-32 -17 -60 -38.5t-55 -45.5q-57 -50 -98 -106.5t-63 -122.5q-2 -7 -4 -13.5t-4 -13.5q-2 -9 -3 -18t1 -18q5 -20 17 -20
q7 0 21 7q21 13 38 27q38 33 68 70.5t58 76.5q39 56 74.5 113.5t68.5 116.5l5 11z" />
    <glyph glyph-name="K" unicode="K" horiz-adv-x="365" 
d="M111 207q11 9 22.5 17.5t21.5 19.5q20 23 40.5 45.5t37.5 46.5q48 66 94 132.5t92 132.5q22 31 43.5 61t44.5 61q3 4 5.5 7.5t6.5 5.5q2 2 6 3.5t7 1.5q1 0 1.5 -0.5t1.5 -0.5q4 -1 4 -6q-1 -2 -2 -3.5t-2 -3.5q-5 -7 -9 -13t-6 -12q-3 -5 -4 -9t-3 -9q-2 -2 -3 -4t-3 -4
q-4 -4 -8 -7t-6 -8q-37 -58 -73.5 -115.5t-74.5 -115.5q-27 -43 -56 -85t-62 -81q-21 -25 -45 -46.5t-53 -36.5l-6 -5l28 -26q32 -30 62.5 -61t62.5 -60q59 -55 134 -86q28 -11 59 -11q18 0 31 8.5t24 23.5q6 9 11 22q2 4 4 7t7 3q4 -1 6.5 -5t1.5 -7q-8 -32 -33.5 -54
t-57.5 -24h-9q-26 0 -48.5 6.5t-44.5 16.5q-57 26 -105 62.5t-90 81.5l-69 75l-2.5 2.5t-3.5 2.5q-4 -9 -6.5 -17t-4.5 -16l-62 -200q0 -8 -1 -12q0 -2 -0.5 -5t-0.5 -5q-4 -15 -16 -32q-5 -10 -18 -10q-2 0 -2.5 0.5t-2.5 0.5q-13 3 -13 16q0 9 3 20q8 31 16.5 62t16.5 62
l36 123q12 40 24 79.5t26 79.5q18 52 37 103t39 103q16 42 31.5 82.5t32.5 82.5l2 9q0 4 3 9q2 4 5.5 7.5t6.5 3.5q8 0 10 -8q2 -10 0 -21q-8 -28 -16 -55.5t-17 -56.5l-110 -329q2 -7 0 -13q0 -1 -2 -7z" />
    <glyph glyph-name="L" unicode="L" horiz-adv-x="308" 
d="M-45 -98q-6 -3 -11 -4.5t-7 -7.5q-1 -4 -3.5 -6t-4.5 -2q-4 -1 -12 -1t-12 1q-10 4 -8 14q1 2 1 2.5t1 2.5q5 5 9.5 10t9.5 8q10 6 20.5 10.5t20.5 10.5q7 4 11 11q14 38 27 76t28 76q19 46 41 96.5t44.5 102.5t44.5 102.5t42 96.5l16 39q10 23 18.5 46.5t13.5 46.5l2 7
q2 8 2 15.5v15.5q-2 15 -14 15q-4 0 -10 -3q-14 -5 -27 -11.5t-24 -14.5q-112 -82 -187 -194q-1 -3 2 -3t3 -3q-1 -1 -2 -3t-3 -4q-5 -5 -13 -11q-6 -4 -10 -4q-1 0 -1.5 0.5t-1.5 0.5q-5 5 -3 11q1 7 6 15q23 40 51 76t61 70q23 23 48 44.5t53 38.5q17 10 33 17t34 7
q21 0 32 -18q7 -15 6.5 -32.5t-3.5 -34.5l-1 -8q-9 -42 -24.5 -83.5t-32.5 -82.5q-17 -39 -36 -83.5t-38.5 -89.5t-39 -89t-35.5 -83q-15 -35 -29.5 -71t-28.5 -72l-2 -10l11 2q52 14 102.5 23t101.5 12q76 4 150 6q9 0 17.5 -2t16.5 -5q13 -6 11 -22q-2 -6 -6 -12
q-7 -10 -17 -10q-8 0 -12 7q-3 6 -13 6q-7 0 -13 0.5t-13 0.5q-30 0 -60.5 -2.5t-60.5 -6.5q-42 -5 -82 -11t-82 -13q-14 -2 -28.5 -5.5t-28.5 -6.5q-11 -3 -14 -14q-1 -4 -2 -7t-1 -6q-1 -10 4 -12q7 -6 6 -11q-2 -5 -6 -9q-10 -8 -20 -8q-13 0 -16 12q-2 7 -2 14v15
q-1 2 -0.5 4t0.5 5z" />
    <glyph glyph-name="M" unicode="M" horiz-adv-x="633" 
d="M161 559q-7 -11 -13.5 -21.5t-8.5 -23.5l-1 -5q-3 -9 -13 -17q-4 -4 -9 -4q-4 0 -7 3t-2 8q-1 2 -0.5 4.5t0.5 4.5q1 2 1.5 4t1.5 4q8 23 19 44t25 41q3 4 6.5 8t6.5 7q12 9 20 9q14 0 16 -17q1 -16 -2 -38q-4 -15 -9 -34t-15.5 -58.5t-29 -107t-49.5 -179.5
q-2 -6 -2.5 -11.5t-1.5 -11.5l58 109q41 78 82.5 154.5t89.5 151.5q16 25 34 49l36 48q3 4 7 7l8 6q11 8 21 8q16 0 19 -18q1 -20 -3 -39q-8 -35 -17 -70l-18 -70l-24 -90q-4 -17 -8 -34.5t-8 -34.5l-2 -10q2 -1 8 5.5t8 10.5l87 133q45 69 92 135t103 129q14 15 29.5 28.5
t29.5 27.5q5 5 10.5 8t10.5 5q12 5 18 5q9 0 15.5 -5.5t7.5 -16.5q0 -5 -0.5 -11t-0.5 -12l-4 -17q-7 -31 -17 -61.5t-21 -61.5l-44 -126t-43 -126q-14 -40 -26.5 -79.5t-24.5 -78.5q-9 -26 -16 -53t-14 -53q-7 -28 -13.5 -56t-12.5 -56l-5 -26q-7 -35 -10.5 -70t-0.5 -70
q0 -9 3 -18q2 -8 10 -8q2 0 5.5 3t6.5 5q7 11 14 11q3 0 3 -1q8 -3 6 -11q0 -2 -2 -6q-10 -23 -32 -27q-4 -1 -7 -1.5t-7 -0.5q-15 0 -22 9q-16 17 -14 43q0 24 0.5 48.5t2.5 49.5q4 38 10.5 75.5t14.5 75.5q4 19 8 37.5t9 37.5q8 34 17.5 67t19.5 67q20 68 45 134l50 132
q15 41 31 81t30 81q5 15 9 30t9 29l-4 2l-11 -8q-29 -28 -53.5 -57.5t-48.5 -60.5q-25 -33 -49 -66t-48 -67q-32 -45 -62 -90t-61 -90q-9 -12 -18 -23t-20 -21q-12 -12 -25 -12q-8 0 -13.5 5t-7.5 14q-5 25 0 51l2 14t3 14q7 35 17.5 69.5t21.5 69.5q8 24 14 48.5t13 48.5
q0 2 1 5t2 5l1 5q0 2 0.5 4t-0.5 4l-16 -22q-45 -69 -86 -139.5t-79 -142.5q-39 -74 -77 -147.5t-76 -148.5q-2 -4 -4.5 -7.5t-5.5 -7.5q-13 -16 -27 -16q-12 2 -16 7.5t-5 13.5q0 18 3 36l5 24q8 42 19 82.5t25 82.5z" />
    <glyph glyph-name="N" unicode="N" horiz-adv-x="386" 
d="M80 89q6 11 12 20.5t11 20.5q42 80 87 158t95 156q38 60 78 118t89 112q15 18 33 33q13 12 26 12q18 0 20 -25q0 -17 -4 -32q-1 -6 -2.5 -11.5t-3.5 -10.5l-112 -278q-14 -35 -28 -70.5t-27 -71.5q-8 -22 -14.5 -43.5t-11.5 -43.5l-3 -14q-8 -34 -11 -65q-2 -12 2.5 -21
t18.5 -10q2 0 4 -3t3 -5q-1 -7 -7 -11q-7 -7 -19 -7q-10 0 -18 5q-15 9 -18 32q-4 20 -2.5 40.5t6.5 41.5q28 135 87 269q27 61 53.5 122t53.5 123l9 26q-2 0 -3 1q-5 -6 -9.5 -12t-9.5 -12q-38 -51 -73.5 -103.5t-70.5 -106.5q-54 -85 -103.5 -171t-97.5 -174l-100 -188
q-5 -8 -11 -11t-11 -3q-12 0 -21 10.5t-6 24.5q10 46 24 91.5t30.5 91t34 90.5t33.5 90q20 56 40.5 111t40.5 111q8 26 13.5 51.5t13.5 51.5v9h-2q-5 0 -7 -4.5t-7 -8.5q-26 -30 -42.5 -63t-30.5 -68q-4 -10 -7 -20t-6 -21q-2 -8 6 -8q7 0 7 -5q-1 -4 -6 -9q-11 -7 -19 -7
q-10 0 -10 20q0 6 1 12t3 12q5 25 15 47q0 2 2 6q13 34 30 65t42 60q11 12 21 20q12 9 22 9q15 0 18 -15q3 -8 4 -18t0 -19q-3 -16 -6 -31t-7 -31q-2 -11 -4.5 -23t-5.5 -23q-11 -39 -24.5 -78.5t-26.5 -78.5z" />
    <glyph glyph-name="O" unicode="O" horiz-adv-x="304" 
d="M204 549q-8 -9 -15.5 -17.5t-14.5 -18.5l-51 -73q-2 -3 -4 -6.5t-5 -5.5q-4 -4 -11 -4q-5 2 -5 7q1 2 0.5 4t0.5 4q2 6 4 10q23 42 50.5 81.5t64.5 74.5q10 9 19 17t20 16q16 11 29 25.5t27 29.5t29 28.5t33 23.5q16 9 32 9q25 0 36 -25l9 -29l-2 -13q-1 0 -2 -0.5
t-2 -0.5q0 2 -1 2.5t-1 1.5q0 11 -4.5 18t-10.5 14q-9 11 -21 11q-10 0 -20 -7q-12 -8 -23.5 -17t-23.5 -18q1 0 2 -0.5t3 -0.5q5 0 11 1.5t11 2.5q10 2 15 2q30 0 47 -28q14 -20 17.5 -44.5t1.5 -50.5q-1 -17 -2.5 -34t-5.5 -34q-6 -28 -15 -55.5t-20 -55.5
q-51 -137 -141 -262q-22 -29 -45.5 -56t-52.5 -49q-22 -18 -51 -29q-15 -7 -30 -7q-33 0 -49 32q-9 19 -11 40.5t0 44.5q1 14 3.5 29t5.5 29q5 22 11 43.5t14 43.5q26 74 60.5 144.5t77.5 139.5zM72 162q-2 -8 -4 -19t-3 -24q-2 -17 -2 -33.5t6 -32.5q8 -20 27 -20
q10 0 19 5q18 7 35 20q25 20 44.5 43.5t36.5 48.5q67 95 108 196q18 42 32 83t23 83q6 23 9 49q2 20 1.5 39t-8.5 36q-4 8 -9.5 13.5t-15.5 5.5h-4q-29 -5 -53.5 -15.5t-42.5 -38.5l-17 -26q-33 -50 -60.5 -101t-50.5 -105q-23 -50 -41 -100t-30 -107z" />
    <glyph glyph-name="P" unicode="P" horiz-adv-x="248" 
d="M180 617q-9 -10 -19 -19t-18 -20q-5 -7 -8.5 -14t-11.5 -12q-3 -2 -6 -3.5t-5 -1.5q-1 0 -3 5t-1 9q2 5 5 11t8 11q18 19 36.5 37t35.5 36q10 10 18 23l23 45q3 5 6 8.5t8 3.5q9 -1 10 -6t0 -10l-9 -24q7 4 12 6q23 11 45 19t45 8h4q33 0 54 -15.5t31 -43.5q16 -44 3 -97
q-2 -12 -6 -24q-14 -53 -39.5 -101t-58.5 -95q-30 -42 -65 -80t-77 -71q-27 -21 -55.5 -38t-59.5 -29q-10 -3 -11 -12l-8 -35q-5 -25 -9 -49.5t-5 -49.5q0 -17 3 -33v-11q-2 -10 -9 -12q-11 0 -11 2q-5 8 -9.5 16t-4.5 17q-2 15 -1.5 30t2.5 31q2 23 6 45t8 45q1 4 -0.5 7.5
t-3.5 5.5q-21 11 -18 38q0 5 0.5 8.5t1.5 8.5q4 17 11 32.5t19 30.5q4 5 8.5 9.5t9.5 7.5q9 6 11 14q21 81 46 162t60 162l4 11q-1 0 -1 0.5t-1 0.5zM81 175q5 2 7.5 2.5t4.5 2.5q16 10 31 19.5t30 20.5q33 25 62 54.5t56 61.5q42 49 75 100.5t54 109.5q3 10 6 19.5t5 19.5
q3 14 4 27.5t-1 27.5q-3 18 -11.5 32.5t-25.5 22.5q-15 7 -34 7q-21 0 -43 -8q-13 -5 -26 -12t-26 -13q-15 -7 -23 -26q-16 -48 -33.5 -94.5t-32.5 -94.5q-12 -36 -23 -72.5t-21 -73.5l-28 -107q-1 -5 -3 -11.5t-4 -14.5zM46 177q3 12 8 30t8 30q-7 -6 -14 -18t-9 -23
q-4 -16 7 -19z" />
    <glyph glyph-name="Q" unicode="Q" horiz-adv-x="315" 
d="M421 497q-17 -71 -39.5 -134t-51.5 -124q-18 -38 -39 -75.5t-46 -72.5q-5 -5 -8 -10t-7 -10q-3 -3 -5 -7q-1 -4 7 -6q22 -8 41.5 -17.5t36.5 -23.5q8 -7 13.5 -15.5t10.5 -16.5q1 -1 1 -3q-1 -2 -3 -8q-7 0 -10 1l-6 7q-23 23 -52 34t-62 16q-4 0 -7.5 -2.5t-5.5 -4.5
q-11 -8 -21 -16.5t-21 -14.5q-18 -12 -36 -12q-14 0 -24.5 9.5t-12.5 26.5q-2 20 -6 38.5t-12 35.5q-12 26 -12 55.5t3 59.5q2 17 4.5 34t6.5 34l3 15q14 56 35 110t50 108q20 37 42 71t51 66q14 15 29 28t32 23q28 14 50 14q40 0 61 -36q13 -24 16.5 -51t1.5 -56
q-2 -20 -4 -38.5t-4 -31.5zM75 107q2 5 2 10.5t2 10.5q7 29 13.5 57t14.5 57q12 44 27 87t34 86q8 19 17.5 36.5t24.5 33.5q10 10 21.5 16t22.5 6q5 0 8 -1t4 -4t2 -5q-2 -2 -5 -3.5t-5 -1.5q-7 0 -13 -1.5t-11 -6.5l-10.5 -10.5t-7.5 -11.5q-9 -15 -17 -30.5t-13 -31.5
q-13 -35 -23.5 -70t-21.5 -70l-10 -48q-1 -3 -1.5 -3.5l-1.5 -1.5q-2 -7 -4 -13.5t-4 -13.5q-5 -22 -8.5 -44t-5.5 -44q-1 -10 11 -12l58 -9q2 -1 4.5 -1h4.5q7 0 16 13q53 71 86 151q15 36 29 72.5t27 73.5q8 24 15 47.5t12 47.5q9 39 12 78q2 26 -0.5 50t-13.5 46
q-10 20 -30 20q-12 0 -25 -6q-13 -7 -23 -15q-19 -15 -35 -32.5t-30 -37.5q-28 -40 -50 -82t-41 -87q-17 -41 -31 -81t-22 -81q-8 -37 -10 -77q-2 -17 -1 -32.5t6 -30.5zM160 36v4q-12 3 -24.5 5.5t-25.5 4.5q-1 0 -3.5 -2t-2.5 -3q1 -7 1.5 -13t2.5 -11q3 -8 11 -8q2 0 8 2
q8 4 15 9t15 10z" />
    <glyph glyph-name="R" unicode="R" horiz-adv-x="347" 
d="M139 203q13 -15 24 -30q22 -29 43 -59t44 -58q26 -30 56.5 -55t69.5 -42q9 -4 18.5 -6.5t20.5 -2.5q17 0 32 7q7 3 13 7t14 8q2 2 4.5 3.5t5.5 2.5q1 0 2 0.5t3 0.5q4 0 6 -2q0 -1 0.5 -3t-0.5 -4q0 -2 -2 -4q-16 -24 -44 -35q-23 -10 -45 -10q-13 0 -25 2.5t-24 7.5
q-36 15 -66.5 36.5t-57.5 47.5q-22 20 -40 42t-35 45q-5 8 -11 16.5t-11 16.5l-29 44q-2 2 -5 3t-5 3q-6 -6 -7 -11l-45 -150l-1 -4q-4 -11 8 -11q9 0 7 -8q-1 -2 -1 -3.5t-2 -3.5q-4 -6 -10 -8.5t-13 -3.5q-18 0 -22 13q-2 8 -3 17t1 18q2 12 4.5 24t4.5 25q3 12 5.5 24.5
t7.5 25.5q13 42 25.5 82.5t27.5 82.5q9 24 18 49t20.5 54.5t25 66t30.5 84.5l4 12t6 12q14 26 23 52.5t17 53.5q1 3 4 6t5 7q3 -3 6 -5.5t4 -5.5q0 -7 -0.5 -14t-1.5 -16l9 8q18 17 38 31t44 22q19 7 33 7q22 0 36 -14q11 -12 12.5 -27.5t-1.5 -32.5l-3 -17q-8 -39 -24 -76
t-35 -74q-23 -45 -50 -88t-61 -84q-16 -20 -34.5 -39t-36.5 -38l-4 -4q-6 -6 -12.5 -10.5t-14.5 -10.5zM109 235q1 -1 3 -1q7 4 14 11q20 23 40.5 45.5t39.5 45.5q45 55 81 113t64 121q17 43 26 83q4 18 -2 27.5t-20 9.5q-10 0 -21 -4l-7 -3q-21 -9 -38 -22.5t-33 -29.5
q-14 -14 -23.5 -28.5t-13.5 -31.5l-1 -4q-3 -19 -9 -34l-19 -56q-17 -51 -33.5 -100t-33.5 -100z" />
    <glyph glyph-name="S" unicode="S" horiz-adv-x="353" 
d="M256 80q-17 34 -43 53q-29 22 -58 42t-58 41q-17 13 -33 25.5t-30 27.5q-37 40 -26 91q6 31 31 67q15 21 33 40t37 36q43 36 88 65.5t94 52.5q29 13 57.5 22.5t58.5 11.5h9q22 0 42 -6q41 -16 31 -60q-2 -5 -3.5 -11t-4.5 -12q-12 -24 -27.5 -46.5t-32.5 -44.5
q-1 -2 -1.5 -2.5t-1.5 -2.5l-3 2l1 7q4 16 15 33.5t18 30.5q5 11 9.5 22.5t7.5 23.5q3 14 -1 22t-14 13q-15 6 -31 6q-14 0 -27 -3q-33 -8 -64.5 -22t-62.5 -32q-48 -28 -91 -61.5t-81 -75.5q-25 -26 -42 -59q-8 -15 -11 -26q-6 -29 14 -55q14 -19 33.5 -32.5t39.5 -27.5
q28 -20 56 -38.5t54 -40.5q14 -11 24 -26.5t21 -29.5q4 -4 5 -4l6 2l40 16l40 16l4.5 1.5t3.5 0.5q6 2 9 2q5 0 5 -4q-1 -6 -4.5 -8t-6.5 -4l-80 -36q-10 -5 -11 -11q-1 -2 -1 -7q3 -24 -1 -44q-5 -21 -16 -40.5t-27 -38.5q-69 -78 -160 -96q-3 -1 -6.5 -1h-6.5q-13 0 -25 3
q-12 4 -16.5 14.5t-2.5 23.5l1 5q7 21 20.5 38t29.5 33q31 29 64 51t68 43zM263 51q0 7 -4 7q-3 0 -7 -3l-79 -50q-24 -17 -46 -34.5t-42 -39.5q-9 -10 -16.5 -20t-10.5 -22q-5 -18 11 -18h7q16 0 33 5q57 19 102 64q18 18 31 38t19 44z" />
    <glyph glyph-name="T" unicode="T" horiz-adv-x="333" 
d="M162 30q13 59 28 111t31 103q18 56 39.5 110.5t47.5 108.5q17 35 32.5 68.5t33.5 68.5q2 2 2.5 4t1.5 4q0 4 -5 4h-5q-76 -12 -151.5 -26.5t-150.5 -36.5q-9 -2 -14 -10q-5 -6 -13 -9t-16 -3q-12 0 -18 7q-4 6 -3 11q2 8 9 12q10 6 20.5 12t20.5 8q49 13 97 25.5t98 23.5
q37 8 74 14.5t75 13.5q11 3 16 12q2 4 5 8t7 7q8 4 14 4q5 -1 6 -5t0 -8q-1 -6 0 -7.5t4 -1.5h5q33 5 65.5 8t64.5 3h20q31 0 60 -4t55 -16q9 -5 17 -10.5t12 -16.5q3 -9 1 -16q-3 -15 -17 -23q-1 -1 -5 -1t-4 1q-5 20 -18 26t-29 10q-2 0 -3 0.5t-2 0.5t-1 0.5t-1 0.5
t-1.5 0.5t-1.5 0.5q-2 0 -3 0.5t-3 0.5q-15 3 -30.5 4t-31.5 1q-13 0 -28 -3q-34 0 -68.5 -4t-69.5 -6q-8 -1 -12.5 -3.5t-7.5 -10.5q-37 -75 -69.5 -149.5t-59.5 -151.5q-14 -41 -28 -81t-26 -82q-11 -39 -21 -78.5t-20 -79.5l-1 -5q-2 -8 8 -8q3 0 6 -3.5t4 -7.5
q0 -2 0.5 -5t-0.5 -5q-4 -19 -24 -28q-6 -2 -11 -2q-13 0 -16 17q-1 9 -1.5 18.5t1.5 19.5q2 16 4.5 31t4.5 24z" />
    <glyph glyph-name="U" unicode="U" horiz-adv-x="386" 
d="M401 466q-19 -30 -37 -60t-38 -60q-39 -62 -79 -123t-81 -123q-23 -35 -55 -61q-10 -8 -19.5 -12.5t-20.5 -4.5q-8 0 -14 3q-11 5 -17 14.5t-8 21.5q-2 14 -1.5 28.5t2.5 28.5q1 16 6 33q2 11 4 20.5t6 20.5q13 40 25.5 79.5t26.5 80.5q5 14 10 27.5t10 27.5q1 2 0.5 5.5
t-2.5 4.5q-10 5 -13.5 14.5t-3.5 20.5q-1 14 0.5 26.5t4.5 26.5q3 15 8 30.5t11 30.5q8 22 19 43t28 41q1 2 2.5 4t3.5 4q12 10 20 10q11 0 16 -11q2 -6 4.5 -12.5t0.5 -13.5q-2 -15 -4.5 -30t-5.5 -29l-4 -19q-4 -15 -9 -33.5t-15 -50.5l-44 -138q-9 -29 -18 -57t-17 -57
q-8 -28 -15.5 -55t-14.5 -55q-2 -9 -1.5 -18.5t1.5 -19.5q2 -11 9 -11q4 0 13 6q17 12 29 26.5t23 30.5q8 12 17.5 26.5t24.5 38t38 60t58.5 94t86.5 139.5t121 196q9 13 20 13h4q10 -3 7 -17l-1 -4q-8 -21 -16.5 -42t-17.5 -42q-28 -64 -52.5 -128t-44.5 -130
q-14 -43 -26 -85.5t-23 -86.5q-4 -14 -7.5 -27.5t-6.5 -27.5q-14 -68 -18 -134q0 -5 -0.5 -9.5t0.5 -9.5q1 -4 1 -7.5t5 -3.5q1 0 7 2q6 0 7.5 -2.5t1.5 -7.5q-2 -10 -10 -15.5t-16 -5.5q-4 0 -5 1q-13 3 -17 16q-6 21 -6 44q2 28 4.5 56t7.5 56q4 23 8 45.5t9 45.5l7 33
q11 45 25 90t31 90q8 21 15.5 42t14.5 42zM187 627q-4 -4 -6 -10q-17 -26 -29.5 -52.5t-18.5 -54.5l-1 -5q-3 -14 -3 -27q-2 -11 -1 -21.5t1 -20.5q1 0 1.5 0.5t1.5 0.5q14 38 27.5 76t21.5 76q2 9 3 18t3 20z" />
    <glyph glyph-name="V" unicode="V" horiz-adv-x="223" 
d="M110 102q30 71 65.5 139t73.5 136q33 59 68.5 115.5t75.5 112.5q36 51 76.5 98.5t86.5 92.5q5 5 8 5q2 0 3 0.5t3 0.5q5 0 7 -3q1 -1 0 -4q0 -2 -1 -4l-2 -4q-13 -16 -25.5 -31t-25.5 -30q-54 -63 -99.5 -129t-86.5 -135q-61 -103 -114.5 -206.5t-98.5 -210.5
q-6 -14 -11.5 -26.5t-12.5 -25.5q-6 -12 -16 -20t-24 -9h-4q-10 0 -17 7t-8 20q-2 19 -4 37.5t0 38.5q2 24 5.5 48.5t6.5 48.5q2 18 6 36t6 35q4 9 -4 13q-27 17 -27 51q-2 33 6 65q12 57 43 108q6 11 13.5 21.5t15.5 21.5q8 12 24 12h4q13 -1 15 -17q0 -9 0.5 -18.5
t-1.5 -18.5q-5 -39 -12 -78l-21 -120q-1 -7 -0.5 -9.5t5.5 -2.5q2 0 3.5 0.5t3.5 0.5q5 0 11 1t11 2q15 0 12 -9q-1 -3 -5.5 -6t-8.5 -4q-7 -2 -13.5 -2.5t-14.5 -1.5t-11 -9l-26 -197q2 -2 2 -4.5t1 -4.5l4 9q3 7 10 21.5t19 42.5zM58 278q2 0 4 1l3 14q7 33 15.5 67
t15.5 68q2 7 2.5 13.5t1.5 13.5q1 5 2 9.5t2 8.5t2 9q-2 0 -7 -7.5t-6 -9.5q-22 -43 -34 -91l-3 -15q-4 -16 -5 -31t1 -30q0 -5 2 -10z" />
    <glyph glyph-name="W" unicode="W" horiz-adv-x="510" 
d="M253 239l-121 -251q-16 -32 -33.5 -63t-40.5 -60q-12 -15 -30 -28q-11 -7 -24 -7q-20 0 -27 18q-4 8 -5 17t-1 18q0 14 2 29t5 30t7 29.5t10 29.5q18 57 38 113.5t40 113.5q0 2 2 4q4 10 5 14q0 2 0.5 3t-0.5 3q-1 4 -6 5t-10 3q-21 8 -18 31q2 11 3.5 21t3.5 20
q2 6 3 12t3 12q14 46 33 91t44 90q18 35 39.5 68.5t49.5 64.5q2 2 5 4.5t6 4.5t7 3t7 1q15 0 17 -15q2 -10 0.5 -20t-3.5 -20l-3 -16q-30 -100 -68 -198t-72 -198q-21 -62 -40.5 -122.5t-39.5 -121.5q-7 -19 -12 -37t-10 -37q-1 -5 -1 -9.5v-9.5q0 -2 5 3t7 6q10 14 20 28.5
t18 30.5q26 50 50.5 99t49.5 100q0 1 2 5l5 11q18 36 37.5 73t41.5 71q5 8 10 15t10 15q6 7 12.5 12.5t15.5 5.5q11 -1 15.5 -7t4.5 -14v-6q1 -28 0 -56q-3 -53 -7.5 -105.5t-1.5 -104.5q1 -15 4 -28.5t8 -27.5q3 -13 14 -13q8 0 20 9q24 19 38 48l7 13l26 54t24 55
q22 56 41 111t39 111q12 37 24.5 74t23.5 74l6 15q8 26 15.5 53t15.5 53l24 86q4 13 13 13q7 0 8 -4t-1 -10q-7 -32 -14 -65t-15 -65q-9 -35 -19 -69t-21 -69q-11 -36 -22.5 -72t-24.5 -71q-20 -56 -39.5 -110.5t-40.5 -109.5q-11 -29 -26 -57.5t-35 -54.5q-7 -9 -15.5 -17
t-16.5 -16q-22 -17 -43 -17q-30 0 -44 31q-9 21 -12 44.5t-1 47.5q2 45 5 88.5t5 88.5l3 41l-1 -1t-4.5 -6t-10 -16.5t-18.5 -32.5zM229 628q-2 0 -3 1q-4 -4 -5 -7q-5 -6 -9 -12t-7 -12q-42 -63 -74 -128t-52 -134l-3 -13q-2 -8 -3 -15t-2 -15q-1 -5 4 -9.5t11 -4.5
q8 1 9 5.5t3 8.5q19 48 38.5 95t37.5 95q14 36 27.5 72.5t27.5 72.5z" />
    <glyph glyph-name="X" unicode="X" horiz-adv-x="400" 
d="M235 327q62 79 128.5 153t140.5 143q27 26 54.5 50t56.5 47q16 14 34 26t35 24q2 1 3 2t3 1q1 0 2 1q1 0 1 1q5 2 9.5 4t8.5 2q3 0 8 -3q6 -5 6 -11t-2 -12l-4 -20q-2 -3 -5 -6.5t-6 -4.5q-5 0 -5.5 3.5t0.5 8.5t2.5 10t3.5 13q-5 -3 -8 -4.5t-6 -3.5q-26 -21 -51 -41
t-50 -43q-107 -98 -200 -209q-45 -54 -88.5 -108.5t-87.5 -108.5q-2 -2 -4 -8v-5q7 -50 17.5 -98t28.5 -93q7 -17 16 -32.5t26 -26.5q10 -7 21 -7q19 0 36 18q6 8 16 8q3 0 4 -1q3 -3 3 -10q-1 -2 -1 -3t-2 -3q-7 -13 -17.5 -21.5t-23.5 -13.5q-7 -3 -13.5 -4t-12.5 -1
q-13 0 -23.5 4.5t-20.5 11.5q-20 14 -32 34t-21 43q-14 32 -22.5 65t-15.5 68q-1 3 -1 6.5t-2 8.5l-8 -9q-48 -69 -95.5 -137t-89.5 -140q-13 -21 -24 -43l-22 -44q-2 -2 -2 -3.5t-1 -3.5q-1 -5 2 -11q2 -6 1 -8q-1 -6 -10 -10q-6 -2 -10 -2q-7 0 -12 3t-6 10q-2 11 0 23
l1 5q8 21 18.5 40.5t21.5 39.5l14 25q39 74 86.5 142.5t97.5 137.5l20 27q5 6 7 16q2 8 1 12q-20 137 -8 278q3 35 7.5 69t11.5 69l1 5q3 13 8 25.5t10 24.5q2 5 5 9l6 8q7 9 19 9q7 0 12 -4q4 -4 3 -8q-2 -6 -9 -8q-8 -2 -10.5 -6.5t-3.5 -10.5l-4 -19q-7 -32 -10 -62.5
t-4 -62.5q-2 -66 -1 -130t7 -127q0 -6 3 -18z" />
    <glyph glyph-name="Y" unicode="Y" horiz-adv-x="343" 
d="M382 513q-9 -14 -18 -27.5t-19 -27.5q-14 -20 -36 -50.5t-47.5 -65t-52.5 -70.5t-50.5 -67t-42 -53.5t-26.5 -29.5q-11 -11 -23.5 -18.5t-28.5 -8.5q-19 0 -26 12q-11 22 -10 56t9 70q7 33 17 62.5t19 47.5q1 4 3.5 8t5.5 8q2 3 8.5 6.5t11.5 3.5q1 0 5 -2q3 -3 2 -6
q0 -2 -1.5 -3.5l-3.5 -3.5q-5 -3 -5 -9q-6 -18 -13 -42.5t-13 -50.5q-8 -35 -10.5 -67t3.5 -49q3 -5 5 -5q5 0 13 8q5 5 19.5 23t34.5 44t43 57t45.5 61.5t42.5 57.5t33 46l117 168q2 3 4.5 5.5l4.5 4.5q10 10 21 10q18 -3 18 -16q2 -10 1 -14q-5 -21 -9.5 -42.5t-9.5 -42.5
q-1 -5 -2.5 -10t-2.5 -10q-11 -42 -21 -82t-23 -81q-6 -19 -21 -67.5t-36.5 -112.5t-48 -136.5t-55 -139.5t-57.5 -122.5t-55 -85.5q-18 -19 -39 -32q-13 -8 -26 -8q-20 0 -30 18q-6 15 -8.5 32t2.5 36q0 13 12 15q8 0 10 -3.5t3 -8.5q2 -11 4 -21.5t6 -21.5q3 -9 8 -9t13 9
q23 27 49 78t53 114t53 133t49 134.5t40.5 117.5t27.5 83l8 24q12 39 23.5 78t22.5 78v13z" />
    <glyph glyph-name="Z" unicode="Z" horiz-adv-x="336" 
d="M434 594q-6 -26 -17 -49.5t-25 -46.5q-40 -70 -87 -136t-97 -132l-167 -219q-12 -16 -24 -31.5t-23 -32.5q-7 -13 -8 -15q-2 -6 8 -6q6 0 9 1q20 2 38.5 5.5t37.5 7.5q51 11 101 21t101 20q22 4 42.5 5.5t41.5 2.5h14q19 0 36 -3.5t33 -13.5q8 -4 10 -8q1 -2 0.5 -5
t0.5 -5q-6 -2 -9 -2q-10 3 -18.5 6.5t-16.5 5.5q-18 3 -35 3q-16 0 -31.5 -2t-32.5 -4q-70 -11 -139 -27.5t-138 -35.5q-15 -4 -30 -6.5t-29 -2.5h-4q-20 0 -29 12t-5 31q2 8 4 12q9 22 22 42t29 39l242 312q35 45 67.5 91t61.5 94q2 2 2 3q12 20 21.5 39t14.5 40
q6 29 -16 29q-4 0 -12 -2q-16 -4 -32.5 -10t-31.5 -14q-56 -29 -104.5 -66.5t-91.5 -83.5q-7 -8 -13.5 -16t-11.5 -16q-2 -2 -2.5 -4t-1.5 -4q-2 -9 11 -12q3 -1 7.5 -1.5t2.5 -5.5q0 -1 -5.5 -3.5t-9.5 -2.5q-13 1 -19.5 7.5t-4.5 17.5q1 5 6 13q10 16 21.5 30.5t23.5 28.5
q42 43 88.5 78.5t97.5 62.5q22 11 42.5 19.5t42.5 8.5q25 0 35.5 -14t7.5 -38z" />
    <glyph glyph-name="bracketleft" unicode="[" horiz-adv-x="106" 
d="M19 -61l-15 -87q-2 -16 9.5 -19t23.5 -3q14 0 25 3t28 14l7 2v-8q-2 -8 -11 -14t-20.5 -9.5t-23.5 -5.5t-20 -2q-20 0 -29 7.5t-12 20t-1.5 28t4.5 31.5q0 7 1 11q7 47 16 94t19 94l4 19l120 447q7 25 14.5 62.5t18 73t23.5 61t31 25.5q19 0 34 -10.5t20 -27.5
q-2 0 -3 -0.5t-3 -0.5t-8 1.5t-13 3.5t-13.5 4t-10.5 3q-6 0 -11 -7t-9 -17.5t-7.5 -23.5t-5.5 -24l-15 -69l-66 -249l-30 -108t-26 -106l-17 -78z" />
    <glyph glyph-name="backslash" unicode="\" horiz-adv-x="166" 
d="M116 -4q-2 25 -3 49.5t-2 49.5q-2 47 -2.5 93t2.5 93q2 38 5 74.5t8 73.5q7 58 15.5 115t17.5 115l2 12q1 8 1.5 15t0.5 14q1 2 0 3.5t-1 3.5q-2 10 -2 15v13.5t1 13.5q1 9 9 12q1 1 4 1q8 0 8 -5q3 -5 5 -10t2 -11q-1 -20 -2 -39t-3 -39q-8 -82 -16.5 -164t-16.5 -164
q-5 -49 -7 -97t0 -96q0 -29 0.5 -57t2.5 -56q1 -15 3 -29.5t4 -28.5q2 -5 4 -9.5t7 -6.5t3 -7q0 -3 -4 -7q-7 -5 -13 -5q-10 0 -15 7q-8 15 -11 30q-2 7 -3.5 14t-3.5 14z" />
    <glyph glyph-name="bracketright" unicode="]" horiz-adv-x="158" 
d="M252 742q3 16 -9 19t-24 3q-14 0 -25 -3t-28 -14l-7 -2v4t1 4q1 8 10 14t20.5 9.5t23.5 5.5t20 2q21 0 30.5 -9t12.5 -23.5t1 -32t-6 -33.5q-7 -47 -16 -94t-20 -94l-124 -466q-7 -25 -14.5 -62.5t-18 -73t-23.5 -61t-31 -25.5q-19 0 -33.5 10.5t-19.5 27.5q2 0 3 0.5
t3 0.5q4 0 20 -5.5t24 -6.5q6 0 11 7t9 17.5t7.5 23.5t5.5 24l15 69l67 249l28 108t27 106l14 53z" />
    <glyph glyph-name="asciicircum" unicode="^" horiz-adv-x="175" 
d="M253 741q-1 -2 -1.5 -2t-1.5 -1q-21 -24 -45 -44.5t-48 -40.5q-2 -2 -4.5 -3.5t-4.5 -3.5q-6 -3 -10 -3q-6 0 -7 3q-4 4 -2 10q0 2 1 3.5t2 3.5l4 5l83 80l15 15t15 14q7 7 15 7q11 0 14 -13q8 -32 12.5 -49t7 -25t2.5 -9.5v-1.5q2 -6 2.5 -11.5t-1.5 -11.5q0 -2 -1 -3.5
t-1 -3.5q-2 -9 -8 -9t-8 5l-5 17q-6 15 -11 30.5t-10 30.5z" />
    <glyph glyph-name="underscore" unicode="_" horiz-adv-x="220" 
d="M34 -44q-6 0 -10 2q-8 2 -6 10t10 11l13 3q23 2 47 3.5t47 1.5q13 0 25 -3t24 -5q4 -1 5 -4t0 -6q-2 -6 -5 -8q-6 -4 -11 -4q-8 -1 -15.5 -1.5t-15.5 -0.5q-23 0 -45 0.5t-45 0.5h-18z" />
    <glyph glyph-name="grave" unicode="`" horiz-adv-x="76" 
d="M150 687q1 2 4 2q5 0 5 -4l12 -40q3 -12 11.5 -27.5t6.5 -23.5q-3 -13 -13 -13q-9 0 -15.5 13t-10.5 30t-5.5 33t-0.5 22z" />
    <glyph glyph-name="a" unicode="a" horiz-adv-x="272" 
d="M308 124q4 3 11 6t12 3t4 -4q-1 -3 -5 -8.5t-14 -13.5q-11 -10 -26.5 -21.5t-32.5 -22t-34 -17.5t-31 -7q-23 0 -30 18.5t-1 47.5q3 17 10 33q-10 -10 -27.5 -26.5t-37.5 -32.5t-40 -27.5t-34 -11.5q-17 2 -21 12t-1 26q4 17 15 37.5t25.5 38t31 29t31.5 11.5q8 0 16 -5
q13 -8 16.5 -19t1.5 -19q-4 -14 -10 -14t-6 11q-1 20 -13 20q-9 0 -21 -11.5t-23.5 -27t-20.5 -31.5t-11 -25q-1 -6 1 -8q1 -1 4 -1q11 0 31.5 15t41.5 34.5t39 38t24 25.5q7 9 16 9t14 -9t3 -17q-8 -17 -13.5 -32t-7.5 -27q-3 -15 -0.5 -24.5t15.5 -10.5q25 2 50 20t44 35z
" />
    <glyph glyph-name="b" unicode="b" horiz-adv-x="265" 
d="M304 145q4 1 6.5 1.5t4.5 0.5q10 0 8 -7q-2 -9 -17 -14q-29 -8 -58.5 -26t-54.5 -37q-17 -31 -39 -54t-42 -26h-4q-3 0 -5.5 0.5t-5.5 1.5q-4 4 -3 14q2 9 10 20q5 8 18.5 19.5t31.5 23.5q11 17 19 34t12 32q6 34 -14 39q-2 0 -2.5 0.5t-2.5 0.5q-14 0 -29.5 -13
t-30.5 -30.5t-27.5 -36t-19.5 -29.5q-1 -1 -1 -1.5t-1 -1.5q-9 -6 -18 -6q-11 0 -16 10t-3 24q9 82 27 169q2 6 4 12.5t4 14.5l13 60q5 19 14 50.5t21.5 70t26.5 80t29.5 79t31.5 69t31 49.5q9 9 16 9q2 0 8 -2q11 -5 12 -13t0 -20q-1 -11 -3.5 -26.5t-6.5 -34.5l-1 -6
q-22 -103 -68 -210.5t-99 -206.5q-15 -68 -21 -138q10 14 23.5 32t30 34.5t34 28t34.5 11.5q5 0 8 -1q18 -3 27 -21t3 -46q-2 -8 -4.5 -15.5t-5.5 -15.5q32 18 59 32t36 16zM94 296q20 43 39.5 89t36.5 91.5t30.5 88.5t21.5 80l1 6q5 20 7 35.5t3 26.5q-11 -19 -23 -48.5
t-24.5 -65t-25 -73.5t-23 -73.5t-19 -65.5t-13.5 -49z" />
    <glyph glyph-name="c" unicode="c" horiz-adv-x="212" 
d="M253 134q4 5 8 5q3 0 5.5 -3t1.5 -8q-2 -4 -4 -6q-15 -19 -35.5 -38t-43.5 -35t-47.5 -27t-46.5 -14q-3 0 -6 -0.5t-6 -0.5q-42 2 -55 26.5t-5 57.5q4 18 13 37.5t22.5 36t30.5 27t35 10.5q17 0 26 -11.5t7 -28.5q-2 -8 -7.5 -18.5t-12.5 -10.5q-8 0 -11 7t-1 15q1 3 3 7
t2 6q2 5 -1.5 8t-8.5 3q-11 0 -20.5 -7t-18 -18t-14.5 -24.5t-9 -26.5q-5 -27 2.5 -49.5t34.5 -22.5q20 0 43 10t45 25.5t41.5 33.5t32.5 34z" />
    <glyph glyph-name="d" unicode="d" horiz-adv-x="248" 
d="M226 -95q8 -2 10 -6t1 -11q-2 -6 -7 -11.5t-15 -7.5q-6 0 -12 2.5t-8 7.5q-20 36 -21.5 102.5t9.5 148.5q-38 -52 -75.5 -83t-72.5 -31q-21 0 -28 14t-3 35q4 20 17 43t32 42.5t42 32.5t48 13q11 0 18 -8.5t5 -21.5q-2 -9 -7 -9l-4 2q-6 6 -15 6q-17 0 -34.5 -12.5
t-32.5 -30t-25.5 -36.5t-13.5 -31q-3 -14 6 -14q33 0 72 37.5t78 97.5l6 36t7 36q13 60 29.5 119.5t35.5 114t39.5 101t41.5 80.5q5 9 12 19t15.5 18.5t17.5 14t19 5.5q11 0 10 -11.5t-3 -25.5q-1 -6 -2 -13t-3 -14l-3 -12q-9 -44 -26.5 -98t-40.5 -112t-51.5 -116
t-58.5 -109l-5 -8q-9 -48 -14.5 -92.5t-7 -83t2 -69t12.5 -49.5q2 -2 3 -2zM370 654q-16 -29 -33 -71.5t-33.5 -93.5t-32 -108t-28.5 -115q26 47 49 98t42.5 100.5t34 95.5t22.5 84q5 20 6 37q1 4 1.5 7t0.5 7q-8 -8 -16 -19t-13 -22z" />
    <glyph glyph-name="e" unicode="e" horiz-adv-x="209" 
d="M51 94q-3 -8 -3 -14q-6 -27 3.5 -38.5t26.5 -11.5h5q21 2 44 12.5t45.5 26t42.5 33.5t35 34q5 5 11 5t5 -7q-2 -5 -7 -13q-15 -18 -37 -37t-47.5 -35t-51 -27.5t-46.5 -14.5q-5 -1 -8.5 -1h-7.5q-33 0 -43 22.5t-4 53.5l1 4q6 30 23 61t37 48q14 13 27 13q12 0 18 -11.5
t2 -28.5q-4 -18 -20 -38.5t-51 -35.5zM61 119q21 10 31.5 24t13.5 24q3 13 -4 13q-6 0 -14 -11q-13 -16 -27 -50z" />
    <glyph glyph-name="f" unicode="f" horiz-adv-x="173" 
d="M102 280q3 7 7.5 9.5t9.5 2.5q9 0 16 -9t4 -20q-2 -7 -5.5 -12t-6.5 -5q-5 0 -13.5 -17t-18 -43t-20.5 -57t-21.5 -60.5t-19 -53t-14.5 -33.5q12 6 32.5 19.5t46.5 32.5t55 43.5t58 52.5q4 4 9 4t7.5 -3.5t0.5 -8.5q0 -4 -3 -6q-71 -69 -127.5 -108t-91.5 -64l-5 -13
q22 -16 34.5 -42t16.5 -58.5t1.5 -70t-10.5 -75.5q-11 -51 -30 -100t-40 -87q-20 -35 -42.5 -51.5t-39.5 -16.5t-26 14.5t-11 40t2.5 61.5t13.5 78q12 56 30 120t40 129.5t45 129t45 118t40.5 96t30.5 63.5zM-6 -97q-3 -10 -14.5 -46.5t-26 -85.5t-29.5 -104t-25 -101
q-10 -48 -12 -78.5t9 -31.5q14 0 31.5 20.5t34.5 54t32 76.5t24 87q7 32 10 63t1 58.5t-10.5 50t-24.5 37.5z" />
    <glyph glyph-name="g" unicode="g" horiz-adv-x="338" 
d="M226 46q7 51 6.5 73.5t-11.5 22.5q-8 0 -20 -9t-32 -26l-18 -16q-42 -36 -67 -53.5t-50 -17.5q-21 0 -27.5 12t-3.5 31q4 18 16 38.5t29.5 38.5t37.5 29.5t40 11.5q15 0 29 -8t25 -28q29 26 54 26q21 0 32.5 -23t7.5 -71q26 16 53 29t55 24q3 1 9 1q5 0 8.5 -1.5
t3.5 -3.5q0 -1 -4.5 -4.5t-8.5 -5.5q-30 -11 -60 -28.5t-60 -37.5q-2 -15 -4.5 -29.5t-5.5 -29.5q-16 -73 -43.5 -145t-62.5 -137.5t-74 -122t-77 -98t-72.5 -65t-60.5 -23.5q-19 0 -29.5 12t-14.5 26q-6 22 -5.5 45t5.5 49q9 45 33 94t57 98.5t73 97t81.5 89.5t81.5 76.5
t74 58.5zM222 15q-57 -43 -116 -101.5t-109.5 -123t-87.5 -132t-50 -128.5q-9 -41 -5 -75q0 -11 5 -20t15 -11q2 0 3.5 -0.5t3.5 -0.5q20 0 49.5 24t62 65t66.5 96t64.5 117.5t55 129t37.5 129.5q2 8 3 15.5t3 15.5zM165 134q-6 9 -14.5 13t-16.5 4q-16 0 -32.5 -10.5
t-30 -25.5t-23.5 -31t-12 -26q-3 -11 4 -11q11 0 26.5 8.5t32 21t32 26t26.5 24.5z" />
    <glyph glyph-name="h" unicode="h" horiz-adv-x="321" 
d="M228 735q7 9 16 9q2 0 3.5 -0.5t3.5 -1.5q11 -5 12.5 -12.5t0.5 -18.5q-2 -14 -4 -29t-7 -34l-1 -6q-22 -103 -68 -210.5t-99 -207.5q-4 -17 -7 -36.5t-6 -37.5t-4.5 -34t-2.5 -26v-5q10 12 25 28t31.5 30t33 24t30.5 10q17 0 24.5 -10t9.5 -25t1 -33t0 -33.5t5.5 -26
t18.5 -11.5q14 0 28.5 9.5t28 22.5t25 26.5t19.5 22.5l8 9q10 11 16 11t4 -9q-2 -8 -7 -14q-12 -15 -28.5 -32t-34 -31.5t-35.5 -24t-33 -9.5q-29 0 -41 20t-16 44t-3 44t-1 20q-20 0 -48.5 -28t-62.5 -67q-9 -5 -19 -5q-11 0 -15.5 10t-2.5 24q8 81 27 169q4 20 9 41t10 43
q5 23 14 56.5t21 71t26.5 77.5t30.5 77t32 68t32 51zM228 648q5 20 7 35.5t3 26.5q-11 -19 -23 -48.5t-24.5 -65t-24.5 -73.5t-22.5 -73.5t-19 -65.5t-13.5 -49l-11 -42q20 43 39.5 89t36 91.5t30 88.5t21.5 80z" />
    <glyph glyph-name="i" unicode="i" horiz-adv-x="183" 
d="M92 325q4 20 13.5 29t18.5 9h4q8 -2 13 -12t2 -24q-5 -20 -13.5 -28t-17.5 -8q-5 0 -6 1q-8 3 -12.5 12t-1.5 21zM86 177q0 -2 -1 -4l-2 -4q-4 -12 -10 -32.5t-11 -42.5q-5 -24 -5 -43.5t12 -19.5q17 0 38 11t42 26.5t39 32.5t30 28q4 4 11.5 7.5t12.5 3.5q4 0 3 -4
q0 -5 -16 -22q-14 -13 -35.5 -32t-45.5 -36t-49 -29.5t-44 -12.5q-18 0 -26.5 11t-10.5 28.5t0.5 38t6.5 40.5q4 15 7 27.5t6 21.5q2 8 14 14t23 6q5 0 9 -3t2 -11z" />
    <glyph glyph-name="j" unicode="j" horiz-adv-x="138" 
d="M96 317q5 21 14 30t18 9q1 0 2 -0.5t2 -0.5q9 -2 14 -11t2 -23q-3 -13 -10 -25.5t-19 -12.5q-2 0 -8 2q-8 3 -12.5 12t-2.5 20zM-164 -112q41 48 86 89.5t93 76.5q10 35 16.5 64t11.5 51l6 24q0 3 6.5 7.5t13.5 6.5q4 1 10 1q7 0 12.5 -3t3.5 -11q-5 -20 -10.5 -46
t-13.5 -58q50 31 103 51q4 1 10 1q10 0 12 -5q-1 -2 -4 -4.5t-11 -5.5q-29 -11 -58.5 -26t-58.5 -34q-14 -52 -33.5 -112.5t-43 -123.5t-51 -126t-59 -118.5t-66.5 -100.5t-73 -74q-58 -43 -96 -43q-28 0 -39 25t-1 74q11 51 35 107t56 111.5t69 107.5t74 94zM7 24
q-42 -32 -80.5 -70t-73.5 -80q-35 -41 -70 -89.5t-65 -100.5t-53.5 -105.5t-35.5 -102.5l-2 -8q-15 -77 25 -77q29 0 76 43q30 26 58.5 66.5t55 89.5t50 104.5t44.5 112.5t39 112.5t32 104.5z" />
    <glyph glyph-name="k" unicode="k" horiz-adv-x="255" 
d="M306 136q1 -1 1 -4q-2 -6 -11 -17q-28 -33 -63.5 -53t-68.5 -20q-2 0 -4.5 0.5t-4.5 0.5q-20 2 -26 13.5t-3 26.5q2 6 4.5 12t5.5 12q20 29 31.5 44.5t12.5 20.5q0 3 -2 3q-4 0 -15.5 -10.5t-27.5 -33.5t-34.5 -60t-36.5 -90q-2 -7 -7.5 -10t-12.5 -3q-11 0 -20 6.5
t-11 20.5q-2 26 2.5 64t14.5 85l6 28t7 29q-2 -1 -7 -1q-13 0 -11 8q0 3 6 6q5 2 10 5.5t10 8.5q21 78 49 160.5t58 154t58.5 125t50.5 72.5q8 8 16 8q11 0 16.5 -13t2.5 -28l-3 -14q-11 -53 -31.5 -112.5t-47.5 -119.5t-59 -116.5t-66 -102.5q-5 -19 -10 -37.5t-9 -36.5
q-8 -38 -13 -74t-12 -76q14 48 32.5 82.5t38 56t37 31.5t29.5 10h4q19 -3 15 -28q-3 -14 -17 -37t-41 -55q2 -4 10 -7t20 -3q21 0 51 13t60 51q5 7 12 7q4 0 4 -3zM275 712q-22 -38 -48 -95.5t-50 -118.5t-43 -117.5t-28 -92.5q23 35 48 85.5t48 106t41.5 110.5t27.5 98
q1 6 1.5 12.5t2.5 11.5z" />
    <glyph glyph-name="l" unicode="l" horiz-adv-x="187" 
d="M290 729q10 9 16 9q10 0 14 -13t2 -27l-3 -13q-11 -53 -38.5 -119.5t-61.5 -134t-71 -130t-67 -108.5q-6 -20 -11.5 -39t-9.5 -37q-5 -24 -7.5 -44.5t-1 -36t7.5 -24.5t17 -9q19 0 54.5 29t92.5 98q9 10 16 10t5 -5q0 -1 -4 -7q-66 -85 -111.5 -121.5t-72.5 -36.5
q-31 0 -38 43t9 115q3 15 7 31t9 33q9 31 26 77.5t38 99.5t44.5 108.5t48 105t47.5 88t43 58.5zM298 702q-16 -23 -33.5 -56.5t-36 -73.5t-37 -83.5t-35 -85t-30.5 -78.5t-23 -64q21 36 50.5 91t57.5 115t51 118t32 101z" />
    <glyph glyph-name="m" unicode="m" horiz-adv-x="417" 
d="M151 70q4 0 17 13.5t30 31.5t36.5 37.5t35.5 31.5q17 13 31 13q11 0 17.5 -8t4.5 -24q-8 -47 -2 -70.5t29 -24.5q18 0 50 20.5t62 47.5q6 6 12 6q5 0 5 -7q-2 -7 -8 -13q-19 -18 -39 -34t-39.5 -28.5t-37.5 -20t-33 -7.5q-64 0 -46 124q1 3 -11.5 -9.5l-30.5 -30.5
l-37 -37t-31 -29q-8 -7 -18 -12t-18 -5q-12 0 -16 15q-3 11 -3 25t2 26q-18 -20 -41 -47t-39 -48q-5 -5 -11 -5t-12 4.5t-7 12.5q-1 7 0.5 17t3.5 21q7 31 20.5 67t27.5 57q6 10 13 14t13 4q8 0 13 -4.5t3 -10.5q0 -7 -10 -11q-14 -23 -26.5 -58t-20.5 -67q10 13 22 28
t23.5 28.5t22.5 24.5t19 16q7 4 13 4q8 0 13.5 -5t3.5 -13l-2 -11q-3 -12 -4.5 -26.5t0.5 -22.5z" />
    <glyph glyph-name="n" unicode="n" horiz-adv-x="298" 
d="M86 172q-12 -20 -20.5 -43.5t-13.5 -46.5q-2 -5 -2 -10.5t-2 -10.5q13 17 30 36.5t36 37t37 30t32 15.5h4q13 0 17 -17t7 -37.5t10 -37.5t25 -17q14 0 34.5 11.5t52.5 40.5q10 8 16 8q7 0 5 -5q0 -5 -6 -9q-25 -26 -56 -44t-60 -18q-26 0 -45.5 20t-23.5 71
q-39 -28 -66 -61.5t-42 -55.5q-5 -6 -17 -6q-9 0 -16.5 4.5t-9.5 13.5q-1 13 5 42q5 24 14.5 51t21.5 46q6 10 13 14t13 4q8 0 13 -5t3 -11t-9 -10z" />
    <glyph glyph-name="o" unicode="o" horiz-adv-x="159" 
d="M104 119q-21 9 -28 28q-11 -19 -16.5 -34.5t-7.5 -27.5q-7 -34 5 -38q11 0 25 19t22 53zM104 141q-12 9 -15 26q13 -1 15 -26zM127 131q5 -1 15 -1q14 0 28.5 3t25.5 8q1 0 2 0.5t2 0.5q4 0 4 -5q-2 -5 -8 -7q-8 -5 -26.5 -9.5t-36.5 -4.5h-8q-9 -42 -31 -63t-42 -23h-4
q-17 0 -27.5 14.5t-4.5 43.5q3 13 9 28t17 32q11 20 24.5 29t24.5 9q16 0 26.5 -15t9.5 -40z" />
    <glyph glyph-name="p" unicode="p" horiz-adv-x="236" 
d="M268 128q2 1 4 1q7 0 5 -7q0 -6 -8 -9q-29 -14 -59 -30.5t-44 -27.5q-22 -32 -43.5 -47t-32.5 -15q-5 0 -6 1q-5 3 -3 11t11 18.5t26 21.5q6 5 13.5 16t15 24.5t13 27t7.5 22.5q3 12 -3 12t-20 -13q-29 -26 -59 -69.5t-59 -97.5q-13 -58 -28.5 -114.5t-34.5 -113.5
t-41.5 -116t-49.5 -122q-2 -7 -8.5 -10.5t-13.5 -3.5h-4q-1 0 -1 0.5t-1 0.5q-8 5 -7.5 22.5t6.5 45.5q7 34 21.5 79.5t34 96.5t43.5 104.5t50 104.5q11 58 22.5 118t22.5 127q2 5 10 11.5t16 6.5q11 0 8 -15q-7 -41 -14 -78.5t-15 -74.5q23 37 44 66.5t41 48.5q16 15 36 15
q16 0 26.5 -11t5.5 -33v-4q-2 -8 -5.5 -17t-9.5 -19q14 8 38 21t50 25zM-133 -453q33 79 57.5 150.5t42.5 142.5q-18 -41 -33.5 -81t-28 -76t-21.5 -67t-13 -53z" />
    <glyph glyph-name="q" unicode="q" horiz-adv-x="253" 
d="M200 135l-49 -110q21 12 36.5 22.5t30.5 21t30 22.5t34 26q5 4 9 4q6 0 6 -8q-2 -6 -6 -9q-44 -32 -80 -58t-68 -49q14 -25 12 -72.5t-14 -106.5q-12 -54 -30.5 -111t-41.5 -107t-48 -88.5t-49 -55.5q-20 -13 -34 -13q-10 0 -16 7t-6 24q-1 16 5 44q8 38 25.5 90.5
t40.5 111t48.5 119t49.5 115t44 99.5t32 71q-32 -29 -56.5 -48t-43.5 -30q-20 -12 -36 -12q-14 0 -20.5 9.5t-4.5 24.5q1 2 1.5 4t1.5 4q5 15 15.5 30t24 28t30.5 21t35 8q14 0 29 -6q2 -5 1 -10q-2 -5 -4 -8.5t-6 -3.5q-1 0 -2 0.5t-2 0.5q-6 2 -11 2q-14 0 -28.5 -8.5
t-27 -20.5t-21 -25t-10.5 -22t4 -10q6 0 17 5.5t28.5 18.5t42 35t58.5 54q2 3 6 4.5t7 1.5q8 0 12.5 -7t1.5 -19q0 -4 -3 -10zM127 -29q-35 -81 -65 -155.5t-53.5 -137t-38.5 -109.5t-21 -73q-6 -29 1 -29q2 0 3 1q19 13 44 52.5t49.5 92t45.5 112t32 113.5q9 42 10 76.5
t-7 56.5z" />
    <glyph glyph-name="r" unicode="r" horiz-adv-x="187" 
d="M-39 51q16 4 37.5 26.5t41.5 52t36.5 61t21.5 54.5q1 5 1 9v8l2 7q2 13 9 19t16 6q11 0 23 -9.5t20.5 -26.5t11.5 -41.5t-3 -55.5l-6 -24q-3 -8 -12.5 -32t-21.5 -55.5t-23 -64.5t-16 -57q-4 -17 -3 -28t8 -11q3 0 4 0.5t2 0.5q7 0 5 -8q-1 -5 -4.5 -9.5t-7.5 -4.5
q-13 0 -19.5 7.5t-9 20.5t-0.5 30.5t6 37.5q5 25 13.5 52.5t17.5 52t16.5 44t10.5 30.5q1 2 1.5 5t1.5 5q4 11 6.5 20t4.5 17q4 19 -1.5 32t-25.5 30q-1 -2 -0.5 -4.5t-0.5 -5.5q-5 -21 -19 -49.5t-34.5 -57t-44 -53t-45.5 -38.5q-11 -6 -18 -6q-13 0 -11 6q0 3 9 7z" />
    <glyph glyph-name="s" unicode="s" horiz-adv-x="200" 
d="M-12 -87q6 -3 11 -3q11 1 24.5 10.5t25.5 23t21.5 29t12.5 27.5q1 6 1.5 11.5t-0.5 10.5q-1 -4 -15 -13.5t-31.5 -21.5t-32.5 -25.5t-18 -25.5l-1 -4q-2 -8 -1 -12.5t3 -6.5zM75 46q-10 17 -22 30q-14 17 -22.5 35t-3.5 45l1 4q1 8 5 17.5t9.5 18.5t13 15.5t16.5 9.5
q9 0 13 -6t3 -11q-2 -3 -4 -3q-10 0 -16.5 -9.5t-8.5 -20.5q-3 -22 7.5 -39.5t20.5 -30.5q11 -13 15 -18t8 -12l1 -3q36 22 70.5 38.5t54.5 25.5q1 1 4 1q5 0 7 -7q1 -2 1 -6q-2 -6 -7 -9q-19 -9 -52.5 -26t-69.5 -39q7 -18 2 -46q-5 -21 -16.5 -40.5t-28.5 -35.5
t-37.5 -25.5t-41.5 -10.5q-17 0 -26 8q-6 5 -7 13t1 16q4 19 16 36.5t28 33t33.5 28.5t32.5 23z" />
    <glyph glyph-name="t" unicode="t" horiz-adv-x="195" 
d="M412 515q9 -2 12 -9t1 -15t-6.5 -14t-10.5 -6q-1 0 -1.5 0.5t-1.5 0.5q-20 8 -60.5 11.5t-91.5 3.5h-27.5t-27.5 -1q-24 -63 -52.5 -123.5t-60.5 -118.5q-4 -20 -7.5 -42.5t-6.5 -45t-4 -42t-1 -33.5q1 -24 5 -43t14 -19q20 0 56.5 26.5t91.5 88.5q6 6 11 6q4 0 6 -2
q2 -4 1 -7q0 -4 -5 -9q-60 -67 -100.5 -97.5t-66.5 -30.5q-25 0 -36 25t-14 56q-3 32 4.5 85t18.5 107q5 25 11 47.5t11 42.5q5 19 14 51.5t23 71.5q-62 -6 -113 -16.5t-79 -25.5q-12 -8 -19 -10.5t-12 -2.5q-10 0 -7 8q2 10 15 16q32 17 92 31.5t130 25.5q12 36 25.5 73
t27.5 71t28.5 61t28.5 44q7 9 16 9q3 0 7 -2q11 -5 12.5 -14t-0.5 -20q-1 -11 -2.5 -26t-6.5 -34q-8 -38 -19.5 -76t-25.5 -76q63 6 117 6q26 0 48 -1.5t38 -5.5zM238 729q-9 -16 -19 -40t-20.5 -53t-21.5 -61.5t-21 -63.5l28 3q14 38 24.5 74t17.5 68l2 12q5 20 7.5 35.5
t2.5 25.5zM100 313q20 41 38 84t34 87q-6 0 -12 -0.5t-12 -0.5q-12 -40 -21.5 -73.5t-15.5 -54.5z" />
    <glyph glyph-name="u" unicode="u" horiz-adv-x="258" 
d="M291 131q2 2 6.5 3.5t7.5 1.5q5 0 5 -4q-2 -6 -10 -14q-30 -32 -63 -53t-56 -21q-21 0 -29 18.5t-7 40.5q-10 -13 -21.5 -26.5t-23.5 -25t-24 -19t-23 -7.5h-4q-13 0 -20 7t-9.5 17.5t-2.5 22.5t2 22l1 4q5 22 16 43.5t22 41.5q7 11 16 11q8 0 13 -8.5t3 -16.5
q-23 -39 -35 -77q-1 -3 -2 -6.5t-2 -6.5q-2 -12 -1.5 -22t7.5 -10q11 1 26 13.5t29 29t25.5 32.5t16.5 25q4 9 15 9q8 0 14.5 -6t4.5 -17q-2 -6 -4.5 -14.5t-4.5 -16.5q-3 -16 -1.5 -27.5t15.5 -11.5q17 1 44.5 21.5t53.5 46.5z" />
    <glyph glyph-name="v" unicode="v" horiz-adv-x="184" 
d="M80 172q-9 -12 -15 -44q-6 -28 -8 -58.5t4 -45.5q5 5 12.5 14.5t15.5 21t15.5 24l13.5 22.5q0 4 2 14q3 14 10.5 29.5t16.5 17.5q2 0 3 0.5t2 0.5q7 0 9 -5t0 -12q-2 -11 -8.5 -23t-11.5 -18q5 -5 16 -5q12 0 28 6.5t30 18.5q7 5 12 5q8 0 6 -5q0 -1 -1 -2t-2 -3
q-17 -19 -40 -28t-41 -9q-14 0 -19 4q-26 -38 -42 -58.5t-30 -27.5q-4 -2 -7 -2q-7 0 -12 5q-6 6 -9.5 21.5t-4.5 35t0.5 41t5.5 39.5q3 20 11 33q7 11 14.5 15t14.5 4q9 0 14.5 -5t3.5 -11t-9 -10z" />
    <glyph glyph-name="w" unicode="w" horiz-adv-x="244" 
d="M76 185q2 1 5 1q8 0 12 -5t3 -10q-2 -6 -8 -7q-6 -2 -13.5 -15t-15 -30.5t-14 -37.5t-9.5 -35q-2 -12 -2 -19.5t4 -7.5q6 0 16 12t21 28.5t22.5 34.5t20.5 31t21 13q8 0 13 -6.5t4 -17.5q-2 -21 0.5 -42t10.5 -21q5 0 11 9t11 21t9.5 23t6.5 15q-7 10 -4 25q3 13 11 23.5
t14 10.5q8 0 8 -12.5t-2 -23.5q-2 -5 -3 -8.5t-1 -5.5q6 -2 14 -2t17.5 2.5t22.5 10.5q4 2 6 2q8 0 6 -5q0 -3 -5 -7q-14 -10 -33 -15.5t-31 -5.5h-5q-3 -8 -9 -21t-14.5 -26t-18 -22t-19.5 -10q-16 0 -26 17t-8 56q-2 -5 -9.5 -17.5t-17 -26t-20 -26.5t-19.5 -20
q-17 -14 -32 -14q-17 0 -21 17q-3 8 -2.5 20t3.5 26q4 19 11.5 39.5t17 38.5t20 30.5t20.5 15.5z" />
    <glyph glyph-name="x" unicode="x" horiz-adv-x="197" 
d="M224 117q11 10 16 10q7 0 5 -8q-2 -6 -5 -8q-17 -18 -35.5 -33.5t-38 -27t-38.5 -18.5t-36 -7q-20 0 -33 9.5t-21 24.5q-18 -23 -30.5 -43t-15.5 -34q-2 -8 -6.5 -11.5t-9.5 -3.5t-9 4t-3 9q5 20 23.5 47t42.5 56q-5 26 -3 54.5t7 51.5q2 12 8 17t12 5q8 0 14 -6t4 -14
q-2 -6 -5 -9q-6 -39 -6 -65q3 3 15.5 15t26 25t25.5 23.5t15 10.5q4 0 8.5 -3.5t3.5 -8.5q-1 -2 -3 -4q-15 -11 -39 -34t-48 -51q7 -41 44 -41q48 1 115 68z" />
    <glyph glyph-name="y" unicode="y" horiz-adv-x="287" 
d="M253 105q0 -5 -2 -15q20 14 41 26.5t42 23.5q4 2 9 2q10 0 8 -7q0 -6 -14 -11q-23 -14 -45.5 -28.5t-45.5 -30.5l-2 -13q-8 -38 -25.5 -94t-42 -119.5t-55.5 -129t-66 -122t-73 -98.5t-77 -59q-19 -8 -34 -8q-17 0 -28.5 9t-15.5 28q-8 31 1 75q9 43 32.5 92.5t55.5 100
t70.5 100.5t77.5 94.5t76.5 80t67.5 58.5q6 29 9 58q-22 -13 -52 -31.5t-63 -34.5q-23 -10 -40 -10q-21 0 -35 12.5t-9 36.5l1 7q3 13 8 28t12 29q8 13 16 13t14.5 -7.5t5.5 -12.5q-3 -15 -11.5 -31t-11.5 -30t0.5 -19.5t11.5 -5.5q10 0 24.5 7t31 17.5t32 21.5t27.5 20
l14 10q13 10 28 10t25 -11.5t7 -31.5zM202 29q-28 -23 -62 -58t-69.5 -77.5t-70 -90t-63.5 -96t-50.5 -95t-29.5 -86.5q-7 -32 -4 -61q1 -24 21 -24q10 0 27 9q33 19 66 60.5t64 95.5t59 115t50.5 119t38.5 108t23 81z" />
    <glyph glyph-name="z" unicode="z" horiz-adv-x="191" 
d="M187 162q-28 -15 -53 -37.5t-45.5 -44.5t-36.5 -41.5t-25 -28.5q20 11 46.5 17t52.5 8q3 0 6 0.5t5 0.5q14 0 19.5 -4t4.5 -7q-2 -4 -6 -4q-32 -1 -68 -8.5t-62 -21.5q-2 -1 -6 -1q-8 0 -16 8.5t-6 16.5q0 1 0.5 1.5t0.5 1.5q18 29 42 56q20 23 47.5 49.5t62.5 48.5
q-17 -2 -35 -3t-35 -1h-13t-12 1q-9 1 -13.5 5.5t-2.5 9.5q0 6 8 6q12 -2 24 -3t26 -1q29 0 61 3q2 0 5 0.5t5 0.5h4q13 0 18 -7t4 -13q-2 -6 -7 -8z" />
    <glyph glyph-name="braceleft" unicode="{" horiz-adv-x="142" 
d="M100 -190q-23 4 -40 18t-24 41q-11 38 -12.5 77.5t3.5 82.5q3 25 7 49.5t8 49.5l8 48l8 48q2 18 -1 32v3q-2 6 0 12q1 2 2 5t2 5l16 27q16 26 26.5 53.5t18.5 56.5l46 151q20 61 54 113q17 25 36 47.5t43 39.5q5 4 11 7.5t13 5.5q6 2 9 2q11 0 13 -8q2 -6 1 -11
q0 -4 -4 -4q-1 0 -4.5 2t-6.5 2t-8 -4q-20 -14 -36 -32t-30 -38q-23 -34 -39 -69.5t-28 -73.5q-1 -3 -2 -6.5t-2 -6.5q-12 -40 -23.5 -79.5t-25.5 -79.5q-9 -27 -22 -53.5t-31 -50.5q-2 -4 -2 -8q4 -17 2.5 -35t-4.5 -36q-5 -26 -9.5 -52.5t-9.5 -52.5q-7 -38 -10.5 -76
t-1.5 -74q2 -17 5 -33.5t6 -32.5q4 -17 15 -27.5t25 -15.5q6 -2 9 -2q8 0 17 11q2 2 5 2.5t5 2.5q0 -2 0.5 -4.5t-0.5 -4.5q-12 -24 -38 -24z" />
    <glyph glyph-name="bar" unicode="|" horiz-adv-x="125" 
d="M-3 -17q6 26 12.5 51t14.5 51q14 48 29 95t33 94q27 73 60 147q51 111 105 222l19 40v8l4 16q2 7 4.5 13.5t5.5 13.5q3 9 11 9q10 0 10 -8v-9.5t-1 -9.5l-1 -4q-7 -20 -14 -39t-15 -39q-35 -81 -69.5 -161t-68.5 -161q-21 -48 -38.5 -96.5t-32.5 -97.5
q-9 -27 -16.5 -54.5t-15.5 -53.5q-1 -2 -1.5 -4t-1.5 -4l-4 -18l-4 -22l-4 -22q-3 -12 4 -19q2 -4 1 -6q0 -5 -7 -8q-2 -1 -6 -1q-5 0 -10 3t-6 9q-3 15 -1 34q0 8 1.5 15.5t2.5 15.5z" />
    <glyph glyph-name="braceright" unicode="}" horiz-adv-x="175" 
d="M183 784q23 -4 40 -18t25 -41q19 -75 9 -160q-3 -25 -7 -49.5t-8 -49.5q-4 -24 -8.5 -48t-8.5 -48q-1 -8 -0.5 -16t1.5 -16q0 -1 0.5 -1.5t0.5 -1.5q0 -8 -1 -12q0 -4 -4 -10l-16 -27q-16 -26 -26.5 -53.5t-18.5 -56.5l-46 -151q-20 -61 -54 -113q-17 -25 -36 -47.5
t-42 -39.5q-5 -4 -11 -7.5t-12 -5.5q-8 -2 -10 -2q-10 0 -13 8q-2 6 -1 11q2 4 4 4q1 0 4.5 -2t6.5 -2t8 4q20 14 35.5 32t29.5 38q23 34 39.5 69.5t27.5 73.5q1 3 2 6.5t2 6.5q12 40 24 79.5t25 79.5q9 27 22 53.5t31 50.5q1 2 1.5 4t1.5 4q-4 17 -2.5 35t4.5 36
q4 26 9 52.5t9 52.5q7 38 11 76t1 74q-2 17 -4.5 33.5t-6.5 32.5q-4 17 -14.5 27.5t-25.5 15.5q-6 2 -8 2q-7 0 -18 -11q-2 -2 -4.5 -2.5t-5.5 -2.5q0 2 -0.5 4.5t0.5 4.5q12 24 38 24z" />
    <glyph glyph-name="asciitilde" unicode="~" horiz-adv-x="268" 
d="M196 176q-21 3 -32 11l-13.5 13.5t-13.5 12.5q-4 4 -7 8t-7 7q-6 6 -14 6q-4 0 -14 -5q-7 -5 -13.5 -10.5t-12.5 -10.5q-3 -2 -5 -5t-4 -5q-6 -4 -11 -4q-2 1 -3 2.5t-3 3.5q-2 1 0 3q3 14 13.5 26t29.5 21q14 7 29 7q19 0 32 -10q6 -4 11 -8.5t11 -9.5q5 -5 9 -8.5
t9 -7.5q9 -7 14 -7q7 0 16 6q11 6 21.5 13t21.5 15q5 4 10 8.5t11 8.5q7 5 11 5q2 0 6 -2l4 -4t1 -4q-2 -6 -8.5 -14.5t-11.5 -13.5q-25 -25 -61 -41q-5 -2 -12 -3.5t-14 -3.5z" />
    <glyph glyph-name="uni007F" 
 />
    <glyph glyph-name="exclamdown" unicode="&#xa1;" horiz-adv-x="269" 
d="M104 330h58l25 -512h-108zM196 478q0 -33 -16 -50t-46 -17t-46 17t-16 50q0 32 16.5 50t45.5 18t45.5 -17.5t16.5 -50.5z" />
    <glyph glyph-name="cent" unicode="&#xa2;" horiz-adv-x="304" 
d="M256 393q-10 -20 -19.5 -39.5t-20.5 -39.5q7 0 12 2l10 4q10 3 20 5.5t20 2.5h5q21 -2 27 -21q1 -2 2 -4.5t2 -4.5q-1 -7 -3 -10h-4t-4 1q-9 14 -25 14q-5 0 -8 -1q-18 -4 -35.5 -12.5t-34.5 -19.5q-36 -23 -67.5 -53t-59.5 -65q-6 -8 -9 -15q-2 -2 -2 -3.5t-1 -3.5
q-2 -11 9 -14q9 -3 20 -3q36 2 72 11.5t72 32.5q8 4 14 10t12 11q2 2 3 3.5t3 1.5q3 1 6 1t2 -1q3 -3 1 -9q-1 -3 -3.5 -6t-4.5 -5q-28 -34 -66 -48q-17 -7 -34 -12.5t-34 -10.5q-7 -3 -8 -9l-29 -90q-4 -11 -12 -13q-10 0 -10 10q2 8 2 14t2 12l19 61q1 7 -3 7h-36
q-16 2 -25 13t-7 28l1 6q4 19 16 35q12 20 27 36.5t32 31.5t35 29.5t37 25.5q2 2 4.5 5t4.5 6l52 91q5 9 16 18q4 3 9 3q3 0 4 -1q2 -2 2.5 -6t1.5 -8q-1 -5 -6 -5q-2 0 -3.5 0.5t-2.5 0.5z" />
    <glyph glyph-name="pound sign" unicode="&#xa3;" horiz-adv-x="421" 
d="M401 -70q-1 -6 -9 -8q-13 -4 -27 -4q-15 0 -24 5l-230 57q-4 1 -5.5 1.5t-3.5 0.5q-4 0 -7.5 -3t-7.5 -6l-4 -3q-29 -29 -61 -33h-4q-11 0 -20 6q-8 5 -6 17q2 8 8 16q18 15 43 23q8 2 15 3.5t15 2.5q8 0 13 9q9 14 17.5 28.5t15.5 28.5q11 22 19 44.5t14 45.5l-20 -3
q-8 -2 -17 -5.5t-17 -5.5q-4 -2 -6 -2q-10 0 -8 8q0 1 2 3q6 8 10 10q15 10 30.5 15t30.5 7q5 23 7.5 45t4.5 44q3 21 5.5 41.5t7.5 41.5l6 24q8 28 20.5 54t33.5 49q17 19 36.5 29.5t42.5 11.5q25 0 37.5 -17t9.5 -43q-1 -4 -1 -11q-2 -11 -7 -21.5t-11 -21.5l-15 -31
l-5 -5q-3 3 -3 6q1 5 3 9.5t3 9.5q5 13 9 26.5t7 27.5q3 15 -3.5 27t-17.5 15q-4 1 -11 1q-16 0 -33 -11q-12 -8 -20.5 -18.5t-15.5 -22.5q-14 -22 -22 -44.5t-13 -45.5l-13 -102q0 -7 -0.5 -14t-1.5 -15l-8 -35h68q4 0 7 -1t6 -1.5t2 -5.5q-3 -8 -11 -8q-7 -2 -13 -2.5
t-12 -1.5q-13 -2 -26 -3.5t-26 -3.5q-2 -5 -3.5 -11t-2.5 -11q-10 -35 -24.5 -68t-35.5 -65q-2 -2 -2 -4q-1 -2 3 -3q37 -6 72 -17l70 -22q23 -8 46.5 -15t46.5 -13q7 -2 13.5 -2h14.5h13q5 0 6 -4zM24 -34q9 0 15 4.5t13 6.5q-9 -1 -17 -4t-11 -7z" />
    <glyph glyph-name="currency" unicode="&#xa4;" horiz-adv-x="246" 
d="M138 247q-2 -2 -7.5 -6t-12 -8.5t-12 -8.5t-8.5 -5q-5 -3 -10 -3q-3 0 -7 2q-4 4 -2 9q0 2 4 8l30 30q1 2 2 3.5t1 3.5q1 7 -2 7t-5 -1q-9 -2 -17.5 -3t-16.5 -2q-8 0 -12 3q-1 2 -2.5 4t-0.5 4q0 2 2 3.5t4 3.5l59 20q7 3 9 6q0 3 -4 7l-20 23q-2 7 -1 12t4.5 7t7.5 2
q7 -1 11 -4l21 -18q7 0 17 6.5t15 11.5q3 9 7.5 18t9.5 18q2 4 3.5 6.5t6.5 2.5q9 0 9 -8q-1 -8 -2.5 -15t-3.5 -15l-1 -5q3 -3 4 -3q3 0 4.5 -0.5t3.5 -0.5q7 0 14 6q4 3 8.5 8.5t8.5 7.5q4 3 9 3t7 -3q3 -4 2 -8q0 -3 -3 -6q-3 -5 -7.5 -9.5t-8.5 -9.5l-2 -2l-1 -1
q-9 -9 -11 -14q1 0 7.5 0.5t11.5 0.5h19q5 0 9 -4q1 -1 1 -4q-2 -7 -10 -9l-28 -6q-5 -1 -16.5 -4.5t-14.5 -8.5q0 -1 -1 -2.5t-1 -3.5q-2 -8 3 -14l26 -40q3 -5 2 -9q0 -2 -2 -4q-3 -4 -9 -4q-3 0 -5 1q-7 5 -12.5 9t-10.5 9q-4 3 -7.5 7t-7.5 8q-3 3 -5 3q-1 0 -7 -4.5
t-8 -9.5q-4 -8 -6 -16t-5 -16q-3 -13 -7 -23q-4 -11 -16 -13q-12 0 -12 12q0 7 1 14l2 14q-1 3 0 7.5t2 9.5zM148 285q-2 -11 4 -15q1 -1 4 -1t5.5 1.5t6.5 3.5q14 9 22.5 20t16.5 25q2 2 2 3t1 3q2 8 -8 8q-6 0 -14 -4q-14 -7 -25 -16t-14 -24z" />
    <glyph glyph-name="yen" unicode="&#xa5;" horiz-adv-x="227" 
d="M310 505q-23 -35 -46 -70.5t-43 -73.5l-34 -66t-34 -67q4 0 7.5 0.5t7.5 0.5l27 -5q10 -3 9 -13q0 -2 -2.5 -6t-3.5 -4q-4 0 -6 2q-3 1 -5.5 2.5t-5.5 1.5h-4q-9 0 -18 -2t-19 -5l-13 -31q3 0 6 1q14 -2 31.5 -8.5t19.5 -8.5q4 -2 3 -7q-5 -7 -13 -7q-6 1 -12 1.5
t-12 0.5h-6q-8 0 -15 -1.5t-15 -3.5l-17 -53q-7 -22 -12 -43t-10 -43q-1 -5 -1 -9.5v-9.5v-6q-2 -4 -3.5 -6.5t-6.5 -4.5q-4 -2 -6 -2q-7 0 -10 7q-3 6 -3 13q0 10 0.5 19.5t1.5 18.5q2 14 5 27t5 26q3 14 6.5 26.5t8.5 26.5l-21 -7q-5 -3 -14 -3q-7 0 -8 5q-2 2 -1.5 3.5
t0.5 3.5q0 4 4 7q3 5 10 9q11 5 21 9.5t21 8.5l11 27l-23 -7q-11 -3 -23 -3q-8 0 -10 11q2 9 12 13q9 4 18.5 7.5t19.5 6.5q5 2 11 4.5t13 7.5q1 6 -2 11t-5 11q-6 29 -8 58t-2 59q0 24 0.5 48.5t1.5 48.5l1 5q1 3 1 6t2 6q4 8 11 8q5 0 7 -7q1 -12 2.5 -24.5t1.5 -24.5
l6 -123q0 -10 1 -19.5t4 -19.5l6 11q24 46 51 90.5t58 87.5q10 14 19.5 27t23.5 24q3 2 8 3.5t6 1.5q4 0 4 -3v-3q0 -1 -0.5 -1.5t-0.5 -1.5z" />
    <glyph glyph-name="brokenbar" unicode="&#xa6;" horiz-adv-x="139" 
d="M71 227q3 11 8 14.5t10 3.5q8 0 15 -5.5t6 -7.5t-2 -5t-1 -5q-9 -27 -17 -53t-16 -53l-86 -299l-3 -13q-3 -11 -14 -14q-8 0 -10 10l-1 5q2 14 4.5 26.5t5.5 25.5q15 67 32 133t37 133zM293 750q0 -2 0.5 -4.5t-0.5 -5.5l-1 -4l-12 -36t-13 -36q-24 -63 -48 -125.5
t-47 -125.5q-11 -29 -21 -59l-20 -60q-2 -5 -10.5 -7.5t-16.5 -2.5q-5 0 -9.5 1.5t-3.5 4.5q43 130 96 254q21 50 43 99t44 99q4 8 6 10q6 4 9 4q4 -2 4 -6z" />
    <glyph glyph-name="section" unicode="&#xa7;" horiz-adv-x="214" 
d="M90 365q-19 17 -14 44q3 13 10 25q11 20 26.5 35.5t33.5 29.5q17 13 34.5 23t37.5 15q17 5 31 5q9 0 13 -1q37 -10 30 -47q-1 -2 -1.5 -5t-2.5 -5q-3 -9 -7.5 -17.5t-8.5 -16.5l-10 -19q-1 -2 -3 -3t-3 -2q-3 3 -4 5l2 8q4 9 8 18.5t7 18.5q0 2 1 5l2 6q1 4 1 11
q1 19 -21 21h-5q-10 0 -19 -2.5t-19 -6.5q-54 -27 -91 -73q-8 -12 -14 -23q-2 -6 -2 -8q-3 -15 9 -24q8 -7 17.5 -10.5t20.5 -7.5q14 -5 27 -9.5t27 -9.5q12 -5 22.5 -13t16.5 -21q5 -13 2 -26l-3 -9q-6 -17 -17 -31.5t-24 -28.5q-7 -9 -18 -19q-1 -1 -3 -5v-4q5 -4 7 -12
q1 -3 4 -3q2 0 4 1l28 11q1 0 1.5 0.5t1.5 0.5q2 0 3.5 0.5t3.5 0.5t5 -3q-1 -4 -3.5 -5.5t-4.5 -3.5l-33 -16q-5 -3 -5 -7q0 -13 -3 -26q-3 -16 -10 -31t-16 -29q-27 -39 -62 -68t-77 -50q-14 -7 -27.5 -12.5t-29.5 -7.5q-4 -1 -7.5 -1h-6.5q-6 0 -12 1t-11 5q-15 8 -10 27
l1 5q5 13 13 23t18 20q16 17 34 31.5t36 28.5l8 6q23 18 47 35t50 31l28 15q5 2 6 5v5q-8 19 -24 26q-14 6 -28.5 11.5t-28.5 10.5q-14 4 -28 12q-22 12 -17 37q1 4 3 8t4 9q6 13 15.5 24t19.5 22q7 8 13.5 15t14.5 15zM217 288q-1 2 -1 5t-1 6q-2 7 -7.5 11.5t-10.5 8.5
q-17 10 -35.5 15t-36.5 12q-4 0 -7 -3q-7 -7 -12.5 -13.5t-10.5 -13.5q-17 -21 -30 -42q-2 -4 -3.5 -6.5t-2.5 -5.5q-3 -11 11 -19q6 -3 12.5 -5.5t13.5 -4.5q14 -5 27.5 -10t27.5 -11q1 -1 4 -1q5 0 8 4l35 38q6 7 11 15.5t8 19.5zM147 133q-41 -23 -77.5 -49.5
t-71.5 -57.5q-10 -8 -19 -17.5t-18 -18.5q-5 -5 -8.5 -11.5t-6.5 -12.5q0 -1 -0.5 -1.5t-0.5 -1.5q-2 -7 7 -7h8q9 3 18.5 5.5t18.5 6.5q49 22 94 62q18 17 33 35t26 39q7 13 10 26q2 6 1 11z" />
    <glyph glyph-name="dieresis" unicode="&#xa8;" horiz-adv-x="93" 
d="M176 682q2 -7 -1 -15q-1 -10 -16 -13q-14 0 -16 11q-1 3 1 14q5 16 17 16q5 0 10 -4t5 -9zM225 685q2 -2 1.5 -5t-0.5 -5q-5 -20 -20 -20q-9 0 -12 8q0 2 -0.5 4t0.5 4q2 8 8 14t14 6q7 0 9 -6z" />
    <glyph glyph-name="copyright" unicode="&#xa9;" horiz-adv-x="397" 
d="M431 347q0 -5 -0.5 -8.5t-1.5 -8.5q-4 -20 -19 -50t-37.5 -63.5t-52 -67.5t-62.5 -61t-69 -44t-71 -17q-30 0 -48.5 15.5t-27 39t-8.5 51.5t5 54l2 9q6 25 16 51.5t24 52t32.5 47.5t42.5 38q11 7 24 8.5t21 7.5l10 8q28 19 51 30t59 11q21 0 41.5 -7t36 -20t25 -32.5
t7.5 -43.5zM164 369q-38 -32 -58 -80t-30 -94q-6 -26 -7.5 -51t4 -45t19 -32.5t37.5 -12.5t52 16t56.5 41.5t55.5 57t48.5 62t36 57.5t18.5 44q4 21 -2.5 37t-20 27.5t-32 17t-38.5 5.5q-38 0 -64.5 -16t-53.5 -39l-6 -5q-5 -4 -11.5 -11.5t-11.5 -15t-9 -13t-5 -5.5
q-5 0 -5 5t1 9q2 11 10 20.5t16 20.5zM263 184q4 -2 2 -8l-2 -4q-21 -25 -51 -40.5t-60 -15.5q-27 0 -36 22.5t-3 51.5q4 19 17.5 43.5t32.5 46.5t41 37.5t44 15.5q14 0 21.5 -9.5t4.5 -23.5q0 -2 -1 -3t-2 -3q-5 2 -10 6.5t-13 4.5q-14 0 -30.5 -12t-31 -29.5t-26 -37.5
t-14.5 -36q-4 -18 0 -30t22 -12q20 0 40.5 9t37.5 24q5 5 11 5q2 0 6 -2z" />
    <glyph glyph-name="ordfeminine" unicode="&#xaa;" horiz-adv-x="356" 
d="M261 389l-12 42q-46 -48 -114 -48q-47 0 -75 24.5t-28 74.5t38.5 76t119.5 29l56 2v22q0 30 -19 44.5t-52 14.5q-49 0 -101 -26q-13 30 -22 49q60 29 125 29t98 -27t33 -86v-220h-47zM96 482q0 -48 54 -48q96 0 96 87v23l-48 -2q-54 -2 -78 -16t-24 -44z" />
    <glyph glyph-name="guillemotleft" unicode="&#xab;" horiz-adv-x="266" 
d="M53 253q3 9 14 18q11 8 21.5 15.5t21.5 15.5q23 16 45 31.5t44 32.5q5 2 6 4q4 3 8 3q3 0 5 -3q2 -2 2 -6q-1 -2 -2 -3.5t-3 -3.5q-4 -5 -8 -8.5t-8 -7.5l-51 -44q-12 -10 -24 -18.5t-24 -17.5l-11 -8q-4 -4 -4 -5t3 -4l41 -29q14 -10 26.5 -22t19.5 -29q2 -3 2 -6.5
v-7.5q0 -1 -2.5 -4t-5.5 -5q-4 0 -7 3q-21 29 -52 48q-13 8 -24.5 16t-23.5 17t-9 28zM153 253q3 9 14 18q11 8 21.5 15.5t21.5 15.5q23 16 45 31.5t44 32.5q5 2 6 4q4 3 8 3q3 0 5 -3q2 -2 2 -6q-1 -2 -2 -3.5t-3 -3.5q-4 -5 -8 -8.5t-8 -7.5l-51 -44q-12 -10 -24 -18.5
t-24 -17.5l-11 -8q-4 -4 -4 -5t3 -4l41 -29q14 -10 26.5 -22t19.5 -29q2 -3 2 -6.5v-7.5q0 -1 -2.5 -4t-5.5 -5q-4 0 -7 3q-21 29 -52 48q-13 8 -24.5 16t-23.5 17t-9 28z" />
    <glyph glyph-name="logicalnot" unicode="&#xac;" horiz-adv-x="324" 
d="M361 287l2 -2q0 -1 -3 -4q0 -2 1 -3q-1 -2 -2 -4.5t-1 -4.5q-14 -35 -31 -60q-6 -11 -13 -21t-14 -21l-1 -6q-2 -2 -3 -7q-2 -2 -5 -2q-6 0 -9 3q-2 2 -3 6.5t1 9.5q7 17 14 30l39 66q2 4 4 6q-3 0 -7 -0.5t-8 -0.5q-32 0 -63 -0.5t-63 -0.5q-20 0 -40 -0.5t-40 -0.5
h-22.5t-21.5 1q-14 1 -14 5l3 3q8 7 33 10q23 2 44 3t41 1h24q35 -1 70 -1t69 -2h4l6 3q3 0 5 -2z" />
    <glyph glyph-name="uni00AD" unicode="&#xad;" horiz-adv-x="218" 
d="M76 205q-8 2 -6 10t11 11q8 2 12 2q23 2 47 3t47 1q13 -1 25 -4l24 -6q3 -1 4 -4t1 -6q-1 -3 -5 -7q-7 -5 -11 -5q-5 -1 -8.5 -1h-7.5h-8t-8 1q-22 0 -44 0.5t-45 1.5h-18z" />
    <glyph glyph-name="registered" unicode="&#xae;" horiz-adv-x="173" 
d="M298 662q-2 -13 -7.5 -24.5t-12.5 -23.5l-16 -22t-18 -20q-11 -11 -25 -18.5t-31 -7.5q-20 0 -34 16q-13 14 -16.5 33t-2.5 40q1 5 1.5 8.5t1.5 7.5q2 11 5.5 20t9.5 19q8 14 19 24t28 16q4 1 7.5 1.5t8.5 0.5h6q7 -1 13 -1t11 -2q8 -2 15.5 -4t14.5 -6q16 -7 21 -21
t2 -32zM276 657q7 26 -7 40q-5 4 -11 6.5t-11 5.5q-1 0 -2 1h-1q-3 0 -5 -5q-1 5 -4 6.5t-6 1.5h-10q-6 0 -12.5 -1.5t-13.5 -6.5q-6 -5 -10 -10t-8 -11q-10 -19 -13 -34q-2 -8 -2 -12q-2 -17 1 -33t13 -28q10 -10 19 -10q5 0 9.5 1t9.5 5q2 0 6 2q20 17 27.5 22.5t6.5 4.5
q0 -2 -6.5 -7t-9.5 -5q-2 0 -4 1q-10 0 -15 8l-12 18q-4 6 -7 9l-6 -17q-4 -7 -10 -7t-4 8v11q2 8 2.5 15.5t2.5 15.5q1 4 1.5 8t2.5 8l4 11q1 2 4.5 4.5t4.5 2.5q5 0 5 -5q1 -1 1 -2t1 -2l4 3q5 2 8.5 4.5t8.5 4.5h6q5 0 9 -3.5t3 -10.5l-1 -6q-4 -18 -20 -34q-1 -1 -1 -4
v-4q5 -7 9 -14t9 -14q12 14 21 28t13 30zM219 662q-15 -9 -16 -13q0 -2 0.5 -2t0.5 -2q10 2 15 17z" />
    <glyph glyph-name="macron" unicode="&#xaf;" horiz-adv-x="339" 
d="M76 205q-8 2 -6 10t11 11q8 2 12 2q23 2 47 3t47 1q13 -1 25 -4l24 -6q3 -1 4 -4t1 -6q-1 -3 -5 -7q-7 -5 -11 -5q-5 -1 -8.5 -1h-7.5h-8t-8 1q-22 0 -44 0.5t-45 1.5h-18z" />
    <glyph glyph-name="degree" unicode="&#xb0;" horiz-adv-x="89" 
d="M143 673q5 17 17 31t32 24q6 3 10 3q6 0 11 -6q0 -2 4 -2q16 -3 13 -19q-2 -7 -4.5 -13.5t-5.5 -11.5l-12 -16t-13 -15q-14 -14 -28 -14q-4 0 -8 2q-22 8 -16 37zM196 695q-9 -5 -16 -11t-12 -13q-1 -3 1 -7h3t2 1q7 7 12.5 14t9.5 16z" />
    <glyph glyph-name="plusminus" unicode="&#xb1;" horiz-adv-x="197" 
d="M126 265l1 5q1 5 -9 5h-11h-13.5t-12.5 1q-1 0 -6.5 3.5t-3.5 8.5q3 13 17 14l26 3q5 0 10 0.5t10 0.5q5 1 8 7l27 55q2 5 5 8.5t6 7.5q7 7 12 7q1 0 1.5 -0.5t1.5 -0.5q6 -3 5 -10q-2 -9 -5.5 -16t-5.5 -14q-4 -8 -7.5 -16.5t-6.5 -17.5q-2 -2 -2 -4q-2 -3 6 -3
q29 0 52 -14q2 -2 6 -7q0 -2 0.5 -3t-0.5 -3q-2 -10 -13 -10q-4 0 -5 1q-12 4 -25 4.5t-26 0.5q-7 0 -10 -7l-13 -43q-2 -6 1 -9q3 -8 2 -16q-3 -11 -11 -19q-8 -6 -15 -6q-8 0 -11 9q-1 5 -0.5 9.5t0.5 9.5l4 16v1v3q1 7 5 20.5t6 18.5zM41 134q-8 2 -6 10t10 11q4 1 7 1.5
t6 0.5q23 2 47 3t47 1q13 -1 24.5 -4t24.5 -6q6 -2 4 -10q0 -3 -4 -7q-7 -5 -11 -5q-5 -1 -8.5 -1h-7.5h-8t-8 1q-22 0 -44 0.5t-45 1.5h-18z" />
    <glyph glyph-name="uni00B2" unicode="&#xb2;" horiz-adv-x="350" 
d="M306 286h-282v54l115 112q62 60 79.5 87.5t17.5 61.5q0 32 -18.5 48t-48.5 16t-54.5 -11.5t-50.5 -31.5l-35 46q65 55 141 55q64 0 100.5 -32t36.5 -86q0 -22 -6 -41.5t-18.5 -39.5t-33 -42.5t-138.5 -133.5h195v-62z" />
    <glyph glyph-name="uni00B3" unicode="&#xb3;" horiz-adv-x="350" 
d="M308 613q0 -74 -74 -102q87 -21 87 -102q0 -62 -45 -96.5t-128 -34.5q-74 0 -131 28v63q69 -34 132 -34q100 0 100 76q0 69 -110 69h-57v55h57q50 0 73.5 19t23.5 51q0 29 -19 45t-51 16q-51 0 -111 -38l-36 46q36 27 71 38t75 11q66 0 104.5 -29.5t38.5 -80.5z" />
    <glyph glyph-name="acute" unicode="&#xb4;" horiz-adv-x="82" 
d="M177 729q-10 0 -8 12q2 8 6 14q11 17 25.5 30t30.5 24l14 9q3 1 5.5 2t4.5 1t4 -0.5t2 -2.5q0 -6 -2 -8l-38 -34l-13 -14q-1 -2 -2.5 -4t-1.5 -4q0 -1 -0.5 -1.5t0.5 -2.5q-2 -8 -11.5 -14.5t-15.5 -6.5z" />
    <glyph glyph-name="mu" unicode="&#xb5;" horiz-adv-x="177" 
d="M190 223q-3 -14 -15 -31q-26 -39 -48 -58t-38 -19q-6 0 -12 4q-13 9 -13 28t5 41l4 18q-11 -38 -23 -75t-21 -75l-4 -23q-1 -4 1 -12q1 -2 0.5 -2.5t-0.5 -2.5q-2 -5 -5 -7q-4 -2 -6 -2q-4 0 -5 3q-3 1 -3 6l1 21q2 13 4.5 25t5.5 25q15 74 45 145q3 6 5.5 12t6.5 11l2 2
q1 1 1 2q0 4 6 6l3 3q2 1 7 1q3 0 3 -1q3 -2 3 -5v-7q0 -2 0.5 -3.5t-0.5 -4.5q-1 -12 -3.5 -25t-5.5 -27q-5 -24 -3 -34t8 -10t15.5 8t19 19t16.5 21.5t9 15.5q5 9 14 16t15 7q9 0 6 -12z" />
    <glyph glyph-name="paragraph" unicode="&#xb6;" horiz-adv-x="654" 
d="M549 -127h-58v831h-102v-831h-58v400q-30 -9 -71 -9q-105 0 -155 61t-50 184q0 127 53.5 189t166.5 62h274v-887z" />
    <glyph glyph-name="periodcentered" unicode="&#xb7;" horiz-adv-x="101" 
d="M140 274q-2 -9 -7 -16t-11 -14t-16 -7q-3 0 -9 2q-10 4 -13.5 14.5t-1.5 21.5l1 4q0 2 2 3.5t3 1.5q4 0 5.5 2t3.5 4l10 8t10 7q6 3 10 3q7 0 12 -8q4 -9 1 -26z" />
    <glyph glyph-name="cedilla" unicode="&#xb8;" horiz-adv-x="82" 
d="M7 -77q-10 0 -15 7t-3 18l1 4q6 14 18 23q1 1 5 1q0 -2 0.5 -3t-0.5 -3l-9 -12q-4 -6 -4 -11q0 -8 6 -8q1 0 1.5 0.5t1.5 0.5q11 3 19.5 12t10.5 20q1 8 -2 17l-2 4q-4 12 -3 20q3 10 13 20q5 5 10 8.5t10 7.5q3 3 7 3q2 0 2 -2q1 -2 0 -3q0 -4 -2 -6l-16 -18
q-6 -8 -6 -12q-1 -5 3 -12q9 -15 6 -31q-5 -19 -20.5 -32t-31.5 -13z" />
    <glyph glyph-name="uni00B9" unicode="&#xb9;" horiz-adv-x="350" 
d="M167 714h73v-428h-71v276q0 33 4 89q-15 -14 -26.5 -23t-74.5 -55l-35 49z" />
    <glyph glyph-name="ordmasculine" unicode="&#xba;" horiz-adv-x="375" 
d="M345 553q0 -80 -42 -125t-116 -45q-71 0 -113 45t-42 125q0 81 41 125t116 44q73 0 114.5 -44.5t41.5 -124.5zM95 553q0 -59 21.5 -88t71.5 -29q49 0 71 29t22 88t-22 87.5t-71 28.5t-71 -28.5t-22 -87.5z" />
    <glyph glyph-name="guillemotright" unicode="&#xbb;" horiz-adv-x="265" 
d="M301 261q-1 -5 -5 -9.5t-9 -8.5q-11 -8 -21 -15.5t-21 -15.5q-23 -16 -45 -31.5t-45 -32.5q-4 -2 -6 -4q-3 -3 -8 -3q-2 0 -5 3q-2 4 -2 6q3 5 5 7q4 5 8 8.5t8 7.5l52 44q11 10 23.5 18.5t23.5 17.5l11 8q4 4 4 5q0 2 -3 4l-41 29q-14 10 -26.5 22t-19.5 29q-2 4 -2 14
q0 1 2.5 4t5.5 5q5 0 7 -3q20 -27 52 -48q13 -8 24.5 -16t23.5 -17q13 -10 9 -28zM201 261q-1 -5 -5 -9.5t-9 -8.5q-11 -8 -21 -15.5t-21 -15.5q-23 -16 -45 -31.5t-45 -32.5q-4 -2 -6 -4q-3 -3 -8 -3q-2 0 -5 3q-2 4 -2 6q3 5 5 7q4 5 8 8.5t8 7.5l52 44q11 10 23.5 18.5
t23.5 17.5l11 8q4 4 4 5q0 2 -3 4l-41 29q-14 10 -26.5 22t-19.5 29q-2 4 -2 14q0 1 2.5 4t5.5 5q5 0 7 -3q20 -27 52 -48q13 -8 24.5 -16t23.5 -17q13 -10 9 -28z" />
    <glyph glyph-name="onequarter" unicode="&#xbc;" horiz-adv-x="790" 
d="M736 96h-61v-96h-75v96h-195v52l197 283h73v-275h61v-60zM600 156v93q0 52 3 101q-4 -9 -48 -77l-80 -117h125zM637 714l-436 -714h-75l436 714h75zM165 714h73v-428h-71v276q0 33 4 89q-15 -14 -26.5 -23t-74.5 -55l-35 49z" />
    <glyph glyph-name="onehalf" unicode="&#xbd;" horiz-adv-x="790" 
d="M607 714l-436 -714h-75l436 714h75zM152 714h73v-428h-71v276q0 33 4 89q-15 -14 -26.5 -23t-74.5 -55l-35 49zM727 0h-282v54l115 112q62 60 79.5 87.5t17.5 61.5q0 32 -18.5 48t-48.5 16t-54.5 -11.5t-50.5 -31.5l-35 46q65 55 141 55q64 0 100.5 -32t36.5 -86
q0 -22 -6 -41.5t-18.5 -39.5t-33 -42.5t-138.5 -133.5h195v-62z" />
    <glyph glyph-name="threequarters" unicode="&#xbe;" horiz-adv-x="790" 
d="M772 96h-61v-96h-75v96h-195v52l197 283h73v-275h61v-60zM636 156v93q0 52 3 101q-4 -9 -48 -77l-80 -117h125zM681 714l-436 -714h-75l436 714h75zM307 613q0 -74 -74 -102q87 -21 87 -102q0 -62 -45 -96.5t-128 -34.5q-74 0 -131 28v63q69 -34 132 -34q100 0 100 76
q0 69 -110 69h-57v55h57q50 0 73.5 19t23.5 51q0 29 -19 45t-51 16q-51 0 -111 -38l-36 46q36 27 71 38t75 11q66 0 104.5 -29.5t38.5 -80.5z" />
    <glyph glyph-name="questiondown" unicode="&#xbf;" horiz-adv-x="434" 
d="M294 330v-26q0 -57 -18 -93.5t-67 -77.5q-65 -54 -82 -81t-17 -68q0 -47 31 -73.5t89 -26.5q78 0 161 43l31 -71q-97 -48 -195 -48q-95 0 -148.5 45.5t-53.5 128.5q0 36 9.5 63.5t29.5 52.5t79 75q50 44 65 71t15 70v16h71zM317 478q0 -67 -62 -67q-30 0 -45.5 17.5
t-15.5 49.5q0 36 17.5 52t43.5 16t44 -16t18 -52z" />
    <glyph glyph-name="Agrave" unicode="&#xc0;" horiz-adv-x="639" 
d="M336 164q-2 -10 -4.5 -19.5t-4.5 -19.5q-9 -45 -15 -89t-7 -89q1 -16 3 -31.5t5 -31.5q-1 -3 1 -5q0 -2 0.5 -4.5t-0.5 -4.5q-2 -6 -7 -9q-6 -3 -9 -3q-5 0 -11 6q-19 17 -19 42q-2 21 -2.5 41.5t1.5 40.5q3 36 8 72t11 72q5 29 10 57t12 57q1 11 -9 11q-50 -5 -98 -12.5
t-96 -17.5q-15 -3 -18 -16q-8 -43 -9.5 -83.5t3.5 -79.5l5 -21q5 -13 19 -13q4 0 7.5 -2t2.5 -7q-2 -6 -5.5 -7.5t-6.5 -1.5h-5q-12 2 -18 8t-8 16q-10 22 -13.5 49t-3.5 53.5t2.5 50.5t4.5 39l1 6h-2q1 0 -7 -2q-25 -8 -50 -14.5t-49 -20.5q-1 -1 -5 -1q-6 0 -4 5
q0 2 3 6.5t8 6.5l34 16t35 16q7 3 19 6.5t20 5.5q18 87 68.5 188.5t131.5 207.5q43 49 94 91q13 10 28 19t30 16q19 8 34 8q28 0 35 -33q1 -6 2 -12.5t-1 -14.5q-3 -14 -5.5 -27t-5.5 -27q-11 -54 -29 -106t-35 -104q-1 -3 -2 -5.5t-2 -5.5l-41 -136v-4q-3 -9 11 -9h32
q23 0 46.5 -1.5t45.5 -6.5q13 -2 24 -6q3 -2 4 -4.5t3 -4.5q-4 -2 -7 -4t-6 -2l-58 4q-24 0 -48.5 -0.5t-47.5 -0.5q-7 0 -8.5 -3t-2.5 -8zM457 692q-2 5 -1.5 8.5t1.5 8.5l1 20q0 19 -14 19q-5 0 -17 -5q-27 -14 -50 -33q-34 -28 -64 -60t-56 -67q-18 -24 -42 -61.5
t-47 -81.5t-42.5 -93t-29.5 -95q2 1 3 0.5t9 1.5q28 5 56 10.5t56 10.5q11 3 22.5 4.5t22.5 3.5h24q10 0 19.5 2t11.5 11q3 12 6.5 24.5t8.5 23.5zM124 852q1 2 4 2q5 0 5 -4l12 -40q3 -12 11.5 -27.5t6.5 -23.5q-3 -13 -13 -13q-9 0 -15.5 13t-10.5 30t-5.5 33t-0.5 22z
" />
    <glyph glyph-name="Aacute" unicode="&#xc1;" horiz-adv-x="368" 
d="M336 164q-2 -10 -4.5 -19.5t-4.5 -19.5q-9 -45 -15 -89t-7 -89q1 -16 3 -31.5t5 -31.5q-1 -3 1 -5q0 -2 0.5 -4.5t-0.5 -4.5q-2 -6 -7 -9q-6 -3 -9 -3q-5 0 -11 6q-19 17 -19 42q-2 21 -2.5 41.5t1.5 40.5q3 36 8 72t11 72q5 29 10 57t12 57q1 11 -9 11q-50 -5 -98 -12.5
t-96 -17.5q-15 -3 -18 -16q-8 -43 -9.5 -83.5t3.5 -79.5l5 -21q5 -13 19 -13q4 0 7.5 -2t2.5 -7q-2 -6 -5.5 -7.5t-6.5 -1.5h-5q-12 2 -18 8t-8 16q-10 22 -13.5 49t-3.5 53.5t2.5 50.5t4.5 39l1 6h-2q1 0 -7 -2q-25 -8 -50 -14.5t-49 -20.5q-1 -1 -5 -1q-6 0 -4 5
q0 2 3 6.5t8 6.5l34 16t35 16q7 3 19 6.5t20 5.5q18 87 68.5 188.5t131.5 207.5q43 49 94 91q13 10 28 19t30 16q19 8 34 8q28 0 35 -33q1 -6 2 -12.5t-1 -14.5q-3 -14 -5.5 -27t-5.5 -27q-11 -54 -29 -106t-35 -104q-1 -3 -2 -5.5t-2 -5.5l-41 -136v-4q-3 -9 11 -9h32
q23 0 46.5 -1.5t45.5 -6.5q13 -2 24 -6q3 -2 4 -4.5t3 -4.5q-4 -2 -7 -4t-6 -2l-58 4q-24 0 -48.5 -0.5t-47.5 -0.5q-7 0 -8.5 -3t-2.5 -8zM457 692q-2 5 -1.5 8.5t1.5 8.5l1 20q0 19 -14 19q-5 0 -17 -5q-27 -14 -50 -33q-34 -28 -64 -60t-56 -67q-18 -24 -42 -61.5
t-47 -81.5t-42.5 -93t-29.5 -95q2 1 3 0.5t9 1.5q28 5 56 10.5t56 10.5q11 3 22.5 4.5t22.5 3.5h24q10 0 19.5 2t11.5 11q3 12 6.5 24.5t8.5 23.5zM450.302 804.68q-10.9209 0 -8.73633 12.5215q2.18359 8.34766 6.55273 14.6094q12.0127 17.7383 27.8486 31.3027
q15.835 13.5654 33.3086 25.043l15.29 9.3916q3.27637 1.04395 6.00586 2.08691q2.73047 1.04297 4.91504 1.04297q2.18359 0 4.36816 -0.521484t2.18457 -2.6084q0 -6.26074 -2.18457 -8.34766l-41.5 -35.4775l-14.1973 -14.6084q-1.0918 -2.08691 -2.73047 -4.17383
q-1.6377 -2.08691 -1.6377 -4.17383q0 -1.04395 -0.545898 -1.56543q-0.546875 -0.521484 0.545898 -2.6084q-2.18457 -8.34766 -12.5596 -15.1299q-10.375 -6.7832 -16.9277 -6.7832z" />
    <glyph glyph-name="Acircumflex" unicode="&#xc2;" horiz-adv-x="368" 
d="M458 840l-17 -23q-2 -2 -4 -4.5t-5 -2.5q-7 0 -5 7q3 16 16.5 35.5t24.5 34.5l25 30q8 6 12 6q13 0 11 -13l-18 -85q1 -2 0.5 -3.5t1.5 -3.5q2 3 4 5.5t6 2.5q2 -2 3 -4t0 -5q-2 -8 -8.5 -12.5t-11.5 -4.5q-8 0 -9.5 12.5t-0.5 27.5t3 27.5l2 12.5q-1 0 -5.5 -7
t-24.5 -33zM336 164q-2 -10 -4.5 -19.5t-4.5 -19.5q-9 -45 -15 -89t-7 -89q1 -16 3 -31.5t5 -31.5q-1 -3 1 -5q0 -2 0.5 -4.5t-0.5 -4.5q-2 -6 -7 -9q-6 -3 -9 -3q-5 0 -11 6q-19 17 -19 42q-2 21 -2.5 41.5t1.5 40.5q3 36 8 72t11 72q5 29 10 57t12 57q1 11 -9 11
q-50 -5 -98 -12.5t-96 -17.5q-15 -3 -18 -16q-8 -43 -9.5 -83.5t3.5 -79.5l5 -21q5 -13 19 -13q4 0 7.5 -2t2.5 -7q-2 -6 -5.5 -7.5t-6.5 -1.5h-5q-12 2 -18 8t-8 16q-10 22 -13.5 49t-3.5 53.5t2.5 50.5t4.5 39l1 6h-2q1 0 -7 -2q-25 -8 -50 -14.5t-49 -20.5q-1 -1 -5 -1
q-6 0 -4 5q0 2 3 6.5t8 6.5l34 16t35 16q7 3 19 6.5t20 5.5q18 87 68.5 188.5t131.5 207.5q43 49 94 91q13 10 28 19t30 16q19 8 34 8q28 0 35 -33q1 -6 2 -12.5t-1 -14.5q-3 -14 -5.5 -27t-5.5 -27q-11 -54 -29 -106t-35 -104q-1 -3 -2 -5.5t-2 -5.5l-41 -136v-4
q-3 -9 11 -9h32q23 0 46.5 -1.5t45.5 -6.5q13 -2 24 -6q3 -2 4 -4.5t3 -4.5q-4 -2 -7 -4t-6 -2l-58 4q-24 0 -48.5 -0.5t-47.5 -0.5q-7 0 -8.5 -3t-2.5 -8zM457 692q-2 5 -1.5 8.5t1.5 8.5l1 20q0 19 -14 19q-5 0 -17 -5q-27 -14 -50 -33q-34 -28 -64 -60t-56 -67
q-18 -24 -42 -61.5t-47 -81.5t-42.5 -93t-29.5 -95q2 1 3 0.5t9 1.5q28 5 56 10.5t56 10.5q11 3 22.5 4.5t22.5 3.5h24q10 0 19.5 2t11.5 11q3 12 6.5 24.5t8.5 23.5z" />
    <glyph glyph-name="Atilde" unicode="&#xc3;" horiz-adv-x="639" 
d="M390 772q-21 0 -41 9t-39.5 19.5t-37 19.5t-34.5 9q-24 0 -36 -14.5t-19 -43.5h-51q6 60 34 94t76 34q22 0 42.5 -9t39.5 -19.5t37 -19.5t33 -9q23 0 35.5 14.5t19.5 43.5h50q-6 -58 -34 -93t-75 -35zM336 164q-2 -10 -4.5 -19.5t-4.5 -19.5q-9 -45 -15 -89t-7 -89
q1 -16 3 -31.5t5 -31.5q-1 -3 1 -5q0 -2 0.5 -4.5t-0.5 -4.5q-2 -6 -7 -9q-6 -3 -9 -3q-5 0 -11 6q-19 17 -19 42q-2 21 -2.5 41.5t1.5 40.5q3 36 8 72t11 72q5 29 10 57t12 57q1 11 -9 11q-50 -5 -98 -12.5t-96 -17.5q-15 -3 -18 -16q-8 -43 -9.5 -83.5t3.5 -79.5l5 -21
q5 -13 19 -13q4 0 7.5 -2t2.5 -7q-2 -6 -5.5 -7.5t-6.5 -1.5h-5q-12 2 -18 8t-8 16q-10 22 -13.5 49t-3.5 53.5t2.5 50.5t4.5 39l1 6h-2q1 0 -7 -2q-25 -8 -50 -14.5t-49 -20.5q-1 -1 -5 -1q-6 0 -4 5q0 2 3 6.5t8 6.5l34 16t35 16q7 3 19 6.5t20 5.5q18 87 68.5 188.5
t131.5 207.5q43 49 94 91q13 10 28 19t30 16q19 8 34 8q28 0 35 -33q1 -6 2 -12.5t-1 -14.5q-3 -14 -5.5 -27t-5.5 -27q-11 -54 -29 -106t-35 -104q-1 -3 -2 -5.5t-2 -5.5l-41 -136v-4q-3 -9 11 -9h32q23 0 46.5 -1.5t45.5 -6.5q13 -2 24 -6q3 -2 4 -4.5t3 -4.5q-4 -2 -7 -4
t-6 -2l-58 4q-24 0 -48.5 -0.5t-47.5 -0.5q-7 0 -8.5 -3t-2.5 -8zM457 692q-2 5 -1.5 8.5t1.5 8.5l1 20q0 19 -14 19q-5 0 -17 -5q-27 -14 -50 -33q-34 -28 -64 -60t-56 -67q-18 -24 -42 -61.5t-47 -81.5t-42.5 -93t-29.5 -95q2 1 3 0.5t9 1.5q28 5 56 10.5t56 10.5
q11 3 22.5 4.5t22.5 3.5h24q10 0 19.5 2t11.5 11q3 12 6.5 24.5t8.5 23.5z" />
    <glyph glyph-name="Adieresis" unicode="&#xc4;" horiz-adv-x="368" 
d="M336 164q-2 -10 -4.5 -19.5t-4.5 -19.5q-9 -45 -15 -89t-7 -89q1 -16 3 -31.5t5 -31.5q-1 -3 1 -5q0 -2 0.5 -4.5t-0.5 -4.5q-2 -6 -7 -9q-6 -3 -9 -3q-5 0 -11 6q-19 17 -19 42q-2 21 -2.5 41.5t1.5 40.5q3 36 8 72t11 72q5 29 10 57t12 57q1 11 -9 11q-50 -5 -98 -12.5
t-96 -17.5q-15 -3 -18 -16q-8 -43 -9.5 -83.5t3.5 -79.5l5 -21q5 -13 19 -13q4 0 7.5 -2t2.5 -7q-2 -6 -5.5 -7.5t-6.5 -1.5h-5q-12 2 -18 8t-8 16q-10 22 -13.5 49t-3.5 53.5t2.5 50.5t4.5 39l1 6h-2q1 0 -7 -2q-25 -8 -50 -14.5t-49 -20.5q-1 -1 -5 -1q-6 0 -4 5
q0 2 3 6.5t8 6.5l34 16t35 16q7 3 19 6.5t20 5.5q18 87 68.5 188.5t131.5 207.5q43 49 94 91q13 10 28 19t30 16q19 8 34 8q28 0 35 -33q1 -6 2 -12.5t-1 -14.5q-3 -14 -5.5 -27t-5.5 -27q-11 -54 -29 -106t-35 -104q-1 -3 -2 -5.5t-2 -5.5l-41 -136v-4q-3 -9 11 -9h32
q23 0 46.5 -1.5t45.5 -6.5q13 -2 24 -6q3 -2 4 -4.5t3 -4.5q-4 -2 -7 -4t-6 -2l-58 4q-24 0 -48.5 -0.5t-47.5 -0.5q-7 0 -8.5 -3t-2.5 -8zM457 692q-2 5 -1.5 8.5t1.5 8.5l1 20q0 19 -14 19q-5 0 -17 -5q-27 -14 -50 -33q-34 -28 -64 -60t-56 -67q-18 -24 -42 -61.5
t-47 -81.5t-42.5 -93t-29.5 -95q2 1 3 0.5t9 1.5q28 5 56 10.5t56 10.5q11 3 22.5 4.5t22.5 3.5h24q10 0 19.5 2t11.5 11q3 12 6.5 24.5t8.5 23.5zM455.372 831.897q2.6748 -9.39062 -1.33691 -20.1221q-1.33789 -13.415 -21.3975 -17.4395q-18.7236 0 -21.3975 14.7559
q-1.33789 4.02441 1.33691 18.7812q6.68652 21.4639 22.7344 21.4639q6.6875 0 13.374 -5.36621t6.68652 -12.0732zM520.901 835.922q2.6748 -2.68262 2.00684 -6.70703q-0.668945 -4.02539 -0.668945 -6.70801q-6.68652 -26.8301 -26.7471 -26.8301
q-12.0361 0 -16.0479 10.7324q0 2.68262 -0.668945 5.36621q-0.668945 2.68262 0.668945 5.36523q2.6748 10.7324 10.6982 18.7812q8.02441 8.04883 18.7227 8.04883q9.3623 0 12.0361 -8.04883z" />
    <glyph glyph-name="Aring" unicode="&#xc5;" horiz-adv-x="639" 
d="M428 774q0 -34 -14.5 -58t-39.5 -36l264 -680h-93l-86 221h-283l-85 -221h-91l263 677q-26 12 -40.5 36.5t-14.5 59.5q0 48 29.5 76.5t79.5 28.5t80.5 -29t30.5 -75zM432 301l-80 216l-34 107q-15 -59 -31 -107l-81 -216h226zM373 773q0 26 -16 41t-40 15t-40 -15
t-16 -41t14.5 -41t41.5 -15q25 0 40.5 15t15.5 41z" />
    <glyph glyph-name="AE" unicode="&#xc6;" horiz-adv-x="880" 
d="M821 0h-372v221h-250l-107 -221h-93l339 714h483v-79h-282v-223h263v-78h-263v-255h282v-79zM234 301h215v333h-58z" />
    <glyph glyph-name="Ccedilla" unicode="&#xc7;" horiz-adv-x="347" 
d="M9 47q13 54 31 103.5t39 97.5q79 173 196 332q24 34 52 65.5t60 59.5q14 11 27.5 20.5t30.5 15.5q11 4 22 4q31 0 37 -34q3 -24 -3 -50l-2 -10t-3 -10q-14 -45 -35 -88t-45 -86q-4 -5 -7.5 -10.5t-8.5 -10.5q-2 -3 -5.5 -4t-5.5 -3q-1 2 1 8v4q10 20 20 39t20 39
q14 30 27 60.5t20 62.5q1 5 1 8.5t2 8.5q2 20 -1 36q-3 15 -16 15q-7 0 -14 -3q-17 -6 -30.5 -16.5t-27.5 -23.5q-46 -45 -83 -96.5t-70 -105.5q-45 -74 -82 -148.5t-65 -152.5q-9 -27 -16.5 -54.5t-15.5 -54.5q-2 -6 -3 -12.5t-3 -12.5q-8 -38 -5 -70q3 -22 12 -40
q9 -12 22 -17.5t27 -5.5q31 0 69.5 21t76.5 52.5t71.5 69.5t56.5 72q12 7 16 7t3 -7q0 -3 -4 -11q-17 -29 -50.5 -70t-75.5 -79t-88 -65t-88 -27q-33 0 -59 20q-18 14 -27 40q-7 19 -7.5 39.5t1.5 41.5q2 11 3.5 20.5t1.5 15.5zM54.1816 -269.1q-14.5449 0 -21.8184 8.73633
q-7.27246 8.73633 -4.36328 22.4648l1.45508 4.99219q8.72656 17.4727 26.1816 28.7051q1.4541 1.24805 7.27246 1.24805q0 -2.49609 0.726562 -3.74414q0.727539 -1.24805 -0.726562 -3.74414l-13.0908 -14.9766q-5.81836 -7.48828 -5.81836 -13.7285
q0 -9.98438 8.72754 -9.98438q1.4541 0 2.18164 0.624023t2.18164 0.624023q16 3.74414 28.3633 14.9766t15.2725 24.9609q1.45508 9.98438 -2.90918 21.2168l-2.90918 4.99219q-5.81738 14.9766 -4.36328 24.9609q4.36328 12.4805 18.9092 24.9609
q7.27246 6.24023 14.5449 10.6084t14.5449 9.36035q4.36426 3.74414 10.1826 3.74414q2.9082 0 2.9082 -2.49609q1.45508 -2.49609 0 -3.74414q0 -4.99219 -2.9082 -7.48828l-23.2734 -22.4648q-8.72656 -9.98438 -8.72656 -14.9766q-1.45508 -6.24023 4.36328 -14.9766
q13.0908 -18.7207 8.72754 -38.6895q-7.27246 -23.7129 -29.8184 -39.9375q-22.5449 -16.2246 -45.8174 -16.2246z" />
    <glyph glyph-name="Egrave" unicode="&#xc8;" horiz-adv-x="556" 
d="M282 365q-18 -5 -37 -10l-38 -10q-17 -4 -33.5 -6.5t-32.5 -2.5q-15 0 -28 3q-31 6 -43.5 27t-6.5 51q2 10 5 17q11 30 30 57t40 52q43 49 89 88q43 36 88 66t95 52q23 11 46.5 17t48.5 6q21 -2 34 -9q29 -16 20 -53q-1 -5 -3 -10.5t-4 -10.5q-9 -20 -21 -38t-23 -37
q-7 -11 -14.5 -21.5t-15.5 -21.5l-13 -25q-2 -3 -5 -6t-6 -4q-3 0 -6.5 2t-3.5 4q-3 4 -1 11q0 2 1 3t1 3q11 18 21.5 35t21.5 34q11 18 21 36.5t15 38.5q7 36 -28 36q-25 0 -46.5 -8.5t-41.5 -19.5q-30 -15 -57.5 -33.5t-54.5 -38.5q-68 -54 -122 -117q-14 -17 -27 -35.5
t-24 -37.5q-6 -9 -9.5 -19t-5.5 -21q-7 -37 30 -39h13q18 0 36.5 2.5t37.5 7.5q42 11 83 25t82 32q5 2 8.5 3t7.5 1q5 0 10 -3q9 -5 7 -13q-2 -5 -8 -10q-8 -7 -16 -12.5t-16 -11.5q-24 -18 -49.5 -36t-48.5 -38q-67 -57 -126 -118.5t-110 -133.5q-20 -30 -37 -61t-29 -63
l-6 -16t-5 -16q-3 -16 0 -31q3 -26 26 -26q42 0 88.5 15.5t93 40t90.5 56t82.5 62.5t69 59t49.5 47q3 6 11 6q6 0 10.5 -3t3.5 -7q-1 -2 -4 -5q-20 -20 -51.5 -50t-71.5 -64t-86.5 -67.5t-95.5 -60.5t-99 -44t-97 -17q-35 0 -53.5 24t-10.5 63l2 9q8 38 25 73t39 69
q35 57 79 108t95 99q25 23 51.5 45t52.5 45zM114 852q1 2 4 2q5 0 5 -4l12 -40q3 -12 11.5 -27.5t6.5 -23.5q-3 -13 -13 -13q-9 0 -15.5 13t-10.5 30t-5.5 33t-0.5 22z" />
    <glyph glyph-name="Eacute" unicode="&#xc9;" horiz-adv-x="432" 
d="M282 365q-18 -5 -37 -10l-38 -10q-17 -4 -33.5 -6.5t-32.5 -2.5q-15 0 -28 3q-31 6 -43.5 27t-6.5 51q2 10 5 17q11 30 30 57t40 52q43 49 89 88q43 36 88 66t95 52q23 11 46.5 17t48.5 6q21 -2 34 -9q29 -16 20 -53q-1 -5 -3 -10.5t-4 -10.5q-9 -20 -21 -38t-23 -37
q-7 -11 -14.5 -21.5t-15.5 -21.5l-13 -25q-2 -3 -5 -6t-6 -4q-3 0 -6.5 2t-3.5 4q-3 4 -1 11q0 2 1 3t1 3q11 18 21.5 35t21.5 34q11 18 21 36.5t15 38.5q7 36 -28 36q-25 0 -46.5 -8.5t-41.5 -19.5q-30 -15 -57.5 -33.5t-54.5 -38.5q-68 -54 -122 -117q-14 -17 -27 -35.5
t-24 -37.5q-6 -9 -9.5 -19t-5.5 -21q-7 -37 30 -39h13q18 0 36.5 2.5t37.5 7.5q42 11 83 25t82 32q5 2 8.5 3t7.5 1q5 0 10 -3q9 -5 7 -13q-2 -5 -8 -10q-8 -7 -16 -12.5t-16 -11.5q-24 -18 -49.5 -36t-48.5 -38q-67 -57 -126 -118.5t-110 -133.5q-20 -30 -37 -61t-29 -63
l-6 -16t-5 -16q-3 -16 0 -31q3 -26 26 -26q42 0 88.5 15.5t93 40t90.5 56t82.5 62.5t69 59t49.5 47q3 6 11 6q6 0 10.5 -3t3.5 -7q-1 -2 -4 -5q-20 -20 -51.5 -50t-71.5 -64t-86.5 -67.5t-95.5 -60.5t-99 -44t-97 -17q-35 0 -53.5 24t-10.5 63l2 9q8 38 25 73t39 69
q35 57 79 108t95 99q25 23 51.5 45t52.5 45zM500.916 807.851q-12.3672 0 -9.89453 15.6514q2.47461 10.4346 7.42188 18.2607q13.6045 22.1729 31.5381 39.1299q17.9346 16.9561 37.7236 31.3037l17.3145 11.7383q3.71094 1.30469 6.80273 2.6084
q3.0918 1.30469 5.56641 1.30469q2.47266 0 4.94727 -0.652344q2.47266 -0.652344 2.47266 -3.26074q0 -7.8252 -2.47266 -10.4346l-47 -44.3467l-16.0781 -18.2607q-1.23633 -2.6084 -3.0918 -5.2168q-1.85547 -2.60938 -1.85547 -5.21777q0 -1.30371 -0.618164 -1.95605
t0.618164 -3.26074q-2.47363 -10.4346 -14.2236 -18.9131q-11.749 -8.47754 -19.1709 -8.47754z" />
    <glyph glyph-name="Ecircumflex" unicode="&#xca;" horiz-adv-x="556" 
d="M163 820l-17 -23q-2 -2 -4 -4.5t-5 -2.5q-7 0 -5 7q3 16 16.5 35.5t24.5 34.5l25 30q8 6 12 6q13 0 11 -13l-18 -85q1 -2 0.5 -3.5t1.5 -3.5q2 3 4 5.5t6 2.5q2 -2 3 -4t0 -5q-2 -8 -8.5 -12.5t-11.5 -4.5q-8 0 -9.5 12.5t-0.5 27.5t3 27.5l2 12.5q-1 0 -5.5 -7
t-24.5 -33zM282 365q-18 -5 -37 -10l-38 -10q-17 -4 -33.5 -6.5t-32.5 -2.5q-15 0 -28 3q-31 6 -43.5 27t-6.5 51q2 10 5 17q11 30 30 57t40 52q43 49 89 88q43 36 88 66t95 52q23 11 46.5 17t48.5 6q21 -2 34 -9q29 -16 20 -53q-1 -5 -3 -10.5t-4 -10.5q-9 -20 -21 -38
t-23 -37q-7 -11 -14.5 -21.5t-15.5 -21.5l-13 -25q-2 -3 -5 -6t-6 -4q-3 0 -6.5 2t-3.5 4q-3 4 -1 11q0 2 1 3t1 3q11 18 21.5 35t21.5 34q11 18 21 36.5t15 38.5q7 36 -28 36q-25 0 -46.5 -8.5t-41.5 -19.5q-30 -15 -57.5 -33.5t-54.5 -38.5q-68 -54 -122 -117
q-14 -17 -27 -35.5t-24 -37.5q-6 -9 -9.5 -19t-5.5 -21q-7 -37 30 -39h13q18 0 36.5 2.5t37.5 7.5q42 11 83 25t82 32q5 2 8.5 3t7.5 1q5 0 10 -3q9 -5 7 -13q-2 -5 -8 -10q-8 -7 -16 -12.5t-16 -11.5q-24 -18 -49.5 -36t-48.5 -38q-67 -57 -126 -118.5t-110 -133.5
q-20 -30 -37 -61t-29 -63l-6 -16t-5 -16q-3 -16 0 -31q3 -26 26 -26q42 0 88.5 15.5t93 40t90.5 56t82.5 62.5t69 59t49.5 47q3 6 11 6q6 0 10.5 -3t3.5 -7q-1 -2 -4 -5q-20 -20 -51.5 -50t-71.5 -64t-86.5 -67.5t-95.5 -60.5t-99 -44t-97 -17q-35 0 -53.5 24t-10.5 63l2 9
q8 38 25 73t39 69q35 57 79 108t95 99q25 23 51.5 45t52.5 45z" />
    <glyph glyph-name="Edieresis" unicode="&#xcb;" horiz-adv-x="432" 
d="M282 365q-18 -5 -37 -10l-38 -10q-17 -4 -33.5 -6.5t-32.5 -2.5q-15 0 -28 3q-31 6 -43.5 27t-6.5 51q2 10 5 17q11 30 30 57t40 52q43 49 89 88q43 36 88 66t95 52q23 11 46.5 17t48.5 6q21 -2 34 -9q29 -16 20 -53q-1 -5 -3 -10.5t-4 -10.5q-9 -20 -21 -38t-23 -37
q-7 -11 -14.5 -21.5t-15.5 -21.5l-13 -25q-2 -3 -5 -6t-6 -4q-3 0 -6.5 2t-3.5 4q-3 4 -1 11q0 2 1 3t1 3q11 18 21.5 35t21.5 34q11 18 21 36.5t15 38.5q7 36 -28 36q-25 0 -46.5 -8.5t-41.5 -19.5q-30 -15 -57.5 -33.5t-54.5 -38.5q-68 -54 -122 -117q-14 -17 -27 -35.5
t-24 -37.5q-6 -9 -9.5 -19t-5.5 -21q-7 -37 30 -39h13q18 0 36.5 2.5t37.5 7.5q42 11 83 25t82 32q5 2 8.5 3t7.5 1q5 0 10 -3q9 -5 7 -13q-2 -5 -8 -10q-8 -7 -16 -12.5t-16 -11.5q-24 -18 -49.5 -36t-48.5 -38q-67 -57 -126 -118.5t-110 -133.5q-20 -30 -37 -61t-29 -63
l-6 -16t-5 -16q-3 -16 0 -31q3 -26 26 -26q42 0 88.5 15.5t93 40t90.5 56t82.5 62.5t69 59t49.5 47q3 6 11 6q6 0 10.5 -3t3.5 -7q-1 -2 -4 -5q-20 -20 -51.5 -50t-71.5 -64t-86.5 -67.5t-95.5 -60.5t-99 -44t-97 -17q-35 0 -53.5 24t-10.5 63l2 9q8 38 25 73t39 69
q35 57 79 108t95 99q25 23 51.5 45t52.5 45zM425.142 844.922q3.22852 -12.6338 -1.61426 -27.0732q-1.61426 -18.0488 -25.8311 -23.4629q-22.6025 0 -25.8311 19.8535q-1.61426 5.41406 1.61426 25.2676q8.07227 28.8779 27.4453 28.8779q8.07227 0 16.1445 -7.21875
q8.07227 -7.21973 8.07227 -16.2441zM504.249 850.336q3.22949 -3.60938 2.42188 -9.02344q-0.807617 -5.41504 -0.807617 -9.02441q-8.07227 -36.0977 -32.2881 -36.0977q-14.5303 0 -19.374 14.4385q0 3.61035 -0.806641 7.21973q-0.807617 3.60938 0.806641 7.21973
q3.22949 14.4385 12.916 25.2676q9.68652 10.8301 22.6016 10.8301q11.3018 0 14.5303 -10.8301z" />
    <glyph glyph-name="Igrave" unicode="&#xcc;" horiz-adv-x="338" 
d="M238 723q-5 -5 -10 -9t-10 -9q-29 -31 -53 -64.5t-45 -68.5q-17 -30 -32.5 -60.5t-26.5 -62.5q-2 -8 -4 -15l-4 -14q-2 -8 -2.5 -15t-1.5 -14q-2 -17 3 -29.5t21 -18.5q15 -6 17 -25q-2 9 -7 12t-12 3h-6.5t-7.5 -1h-4q-10 0 -15.5 5t-10.5 12q-8 14 -9 30.5t2 34.5l2 7
q6 29 17 57t25 56q23 47 52 90.5t67 82.5q14 15 32 30q10 8 20 11q5 2 8.5 3t6.5 1q18 0 20 -19t-1 -34q-8 -41 -21.5 -80.5t-27.5 -79.5q-35 -96 -69 -190.5t-68 -190.5q-14 -41 -27 -81t-27 -80l-3 -9l-8 -27q-2 -7 -2 -13t2 -12t2 -11q-4 -11 -11 -17q-2 -2 -5.5 -4
t-5.5 -2q-1 0 -1.5 0.5t-1.5 0.5q-10 2 -10 12q1 8 1.5 14.5t2.5 14.5l2 10l18 69l1 5q11 36 21 72t23 72q40 112 80 222.5t81 222.5q8 22 13.5 44t12.5 45q1 4 1 8v8q-1 0 -2 0.5t-2 0.5zM-10 852q1 2 4 2q5 0 5 -4l12 -40q3 -12 11.5 -27.5t6.5 -23.5q-3 -13 -13 -13
q-9 0 -15.5 13t-10.5 30t-5.5 33t-0.5 22z" />
    <glyph glyph-name="Iacute" unicode="&#xcd;" horiz-adv-x="113" 
d="M238 723q-5 -5 -10 -9t-10 -9q-29 -31 -53 -64.5t-45 -68.5q-17 -30 -32.5 -60.5t-26.5 -62.5q-2 -8 -4 -15l-4 -14q-2 -8 -2.5 -15t-1.5 -14q-2 -17 3 -29.5t21 -18.5q15 -6 17 -25q-2 9 -7 12t-12 3h-6.5t-7.5 -1h-4q-10 0 -15.5 5t-10.5 12q-8 14 -9 30.5t2 34.5l2 7
q6 29 17 57t25 56q23 47 52 90.5t67 82.5q14 15 32 30q10 8 20 11q5 2 8.5 3t6.5 1q18 0 20 -19t-1 -34q-8 -41 -21.5 -80.5t-27.5 -79.5q-35 -96 -69 -190.5t-68 -190.5q-14 -41 -27 -81t-27 -80l-3 -9l-8 -27q-2 -7 -2 -13t2 -12t2 -11q-4 -11 -11 -17q-2 -2 -5.5 -4
t-5.5 -2q-1 0 -1.5 0.5t-1.5 0.5q-10 2 -10 12q1 8 1.5 14.5t2.5 14.5l2 10l18 69l1 5q11 36 21 72t23 72q40 112 80 222.5t81 222.5q8 22 13.5 44t12.5 45q1 4 1 8v8q-1 0 -2 0.5t-2 0.5zM258.261 789.686q-12.1055 0 -9.68457 14.2168q2.4209 9.47754 7.2627 16.5869
q13.3164 20.1406 30.8682 35.542q17.5527 15.4023 36.9209 28.4346l16.9473 10.6621q3.63184 1.18555 6.65723 2.37012q3.02637 1.18457 5.44727 1.18457q2.42188 0 4.84277 -0.592773q2.4209 -0.591797 2.4209 -2.96191q0 -7.1084 -2.4209 -9.47754l-46 -40.2812
l-15.7363 -16.5869q-1.21094 -2.37012 -3.02637 -4.73926t-1.81543 -4.73926q0 -1.18457 -0.605469 -1.77637q-0.605469 -0.592773 0.605469 -2.96191q-2.4209 -9.47852 -13.9209 -17.1797q-11.5 -7.7002 -18.7627 -7.7002z" />
    <glyph glyph-name="Icircumflex" unicode="&#xce;" horiz-adv-x="113" 
d="M262 819l-17 -23q-2 -2 -4 -4.5t-5 -2.5q-7 0 -5 7q3 16 16.5 35.5t24.5 34.5l25 30q8 6 12 6q13 0 11 -13l-18 -85q1 -2 0.5 -3.5t1.5 -3.5q2 3 4 5.5t6 2.5q2 -2 3 -4t0 -5q-2 -8 -8.5 -12.5t-11.5 -4.5q-8 0 -9.5 12.5t-0.5 27.5t3 27.5l2 12.5q-1 0 -5.5 -7
t-24.5 -33zM238 723q-5 -5 -10 -9t-10 -9q-29 -31 -53 -64.5t-45 -68.5q-17 -30 -32.5 -60.5t-26.5 -62.5q-2 -8 -4 -15l-4 -14q-2 -8 -2.5 -15t-1.5 -14q-2 -17 3 -29.5t21 -18.5q15 -6 17 -25q-2 9 -7 12t-12 3h-6.5t-7.5 -1h-4q-10 0 -15.5 5t-10.5 12q-8 14 -9 30.5
t2 34.5l2 7q6 29 17 57t25 56q23 47 52 90.5t67 82.5q14 15 32 30q10 8 20 11q5 2 8.5 3t6.5 1q18 0 20 -19t-1 -34q-8 -41 -21.5 -80.5t-27.5 -79.5q-35 -96 -69 -190.5t-68 -190.5q-14 -41 -27 -81t-27 -80l-3 -9l-8 -27q-2 -7 -2 -13t2 -12t2 -11q-4 -11 -11 -17
q-2 -2 -5.5 -4t-5.5 -2q-1 0 -1.5 0.5t-1.5 0.5q-10 2 -10 12q1 8 1.5 14.5t2.5 14.5l2 10l18 69l1 5q11 36 21 72t23 72q40 112 80 222.5t81 222.5q8 22 13.5 44t12.5 45q1 4 1 8v8q-1 0 -2 0.5t-2 0.5z" />
    <glyph glyph-name="Idieresis" unicode="&#xcf;" horiz-adv-x="338" 
d="M238 723q-5 -5 -10 -9t-10 -9q-29 -31 -53 -64.5t-45 -68.5q-17 -30 -32.5 -60.5t-26.5 -62.5q-2 -8 -4 -15l-4 -14q-2 -8 -2.5 -15t-1.5 -14q-2 -17 3 -29.5t21 -18.5q15 -6 17 -25q-2 9 -7 12t-12 3h-6.5t-7.5 -1h-4q-10 0 -15.5 5t-10.5 12q-8 14 -9 30.5t2 34.5l2 7
q6 29 17 57t25 56q23 47 52 90.5t67 82.5q14 15 32 30q10 8 20 11q5 2 8.5 3t6.5 1q18 0 20 -19t-1 -34q-8 -41 -21.5 -80.5t-27.5 -79.5q-35 -96 -69 -190.5t-68 -190.5q-14 -41 -27 -81t-27 -80l-3 -9l-8 -27q-2 -7 -2 -13t2 -12t2 -11q-4 -11 -11 -17q-2 -2 -5.5 -4
t-5.5 -2q-1 0 -1.5 0.5t-1.5 0.5q-10 2 -10 12q1 8 1.5 14.5t2.5 14.5l2 10l18 69l1 5q11 36 21 72t23 72q40 112 80 222.5t81 222.5q8 22 13.5 44t12.5 45q1 4 1 8v8q-1 0 -2 0.5t-2 0.5zM56 847q2 -7 -1 -15q-1 -10 -16 -13q-14 0 -16 11q-1 3 1 14q5 16 17 16q5 0 10 -4
t5 -9zM105 850q2 -2 1.5 -5t-0.5 -5q-5 -20 -20 -20q-9 0 -12 8q0 2 -0.5 4t0.5 4q2 8 8 14t14 6q7 0 9 -6z" />
    <glyph glyph-name="Eth" unicode="&#xd0;" horiz-adv-x="729" 
d="M669 364q0 -175 -96 -269.5t-278 -94.5h-191v314h-74v78h74v322h213q167 0 259.5 -92t92.5 -258zM574 361q0 137 -68 206.5t-202 69.5h-110v-245h178v-78h-178v-237h90q290 0 290 284z" />
    <glyph glyph-name="Ntilde" unicode="&#xd1;" horiz-adv-x="759" 
d="M459 772q-21 0 -41 9t-39.5 19.5t-37 19.5t-34.5 9q-24 0 -36 -14.5t-19 -43.5h-51q6 60 34 94t76 34q22 0 42.5 -9t39.5 -19.5t37 -19.5t33 -9q23 0 35.5 14.5t19.5 43.5h50q-6 -58 -34 -93t-75 -35zM80 89q6 11 12 20.5t11 20.5q42 80 87 158t95 156q38 60 78 118
t89 112q15 18 33 33q13 12 26 12q18 0 20 -25q0 -17 -4 -32q-1 -6 -2.5 -11.5t-3.5 -10.5l-112 -278q-14 -35 -28 -70.5t-27 -71.5q-8 -22 -14.5 -43.5t-11.5 -43.5l-3 -14q-8 -34 -11 -65q-2 -12 2.5 -21t18.5 -10q2 0 4 -3t3 -5q-1 -7 -7 -11q-7 -7 -19 -7q-10 0 -18 5
q-15 9 -18 32q-4 20 -2.5 40.5t6.5 41.5q28 135 87 269q27 61 53.5 122t53.5 123l9 26q-2 0 -3 1q-5 -6 -9.5 -12t-9.5 -12q-38 -51 -73.5 -103.5t-70.5 -106.5q-54 -85 -103.5 -171t-97.5 -174l-100 -188q-5 -8 -11 -11t-11 -3q-12 0 -21 10.5t-6 24.5q10 46 24 91.5
t30.5 91t34 90.5t33.5 90q20 56 40.5 111t40.5 111q8 26 13.5 51.5t13.5 51.5v9h-2q-5 0 -7 -4.5t-7 -8.5q-26 -30 -42.5 -63t-30.5 -68q-4 -10 -7 -20t-6 -21q-2 -8 6 -8q7 0 7 -5q-1 -4 -6 -9q-11 -7 -19 -7q-10 0 -10 20q0 6 1 12t3 12q5 25 15 47q0 2 2 6q13 34 30 65
t42 60q11 12 21 20q12 9 22 9q15 0 18 -15q3 -8 4 -18t0 -19q-3 -16 -6 -31t-7 -31q-2 -11 -4.5 -23t-5.5 -23q-11 -39 -24.5 -78.5t-26.5 -78.5z" />
    <glyph glyph-name="Ograve" unicode="&#xd2;" horiz-adv-x="780" 
d="M204 549q-8 -9 -15.5 -17.5t-14.5 -18.5l-51 -73q-2 -3 -4 -6.5t-5 -5.5q-4 -4 -11 -4q-5 2 -5 7q1 2 0.5 4t0.5 4q2 6 4 10q23 42 50.5 81.5t64.5 74.5q10 9 19 17t20 16q16 11 29 25.5t27 29.5t29 28.5t33 23.5q16 9 32 9q25 0 36 -25l9 -29l-2 -13q-1 0 -2 -0.5
t-2 -0.5q0 2 -1 2.5t-1 1.5q0 11 -4.5 18t-10.5 14q-9 11 -21 11q-10 0 -20 -7q-12 -8 -23.5 -17t-23.5 -18q1 0 2 -0.5t3 -0.5q5 0 11 1.5t11 2.5q10 2 15 2q30 0 47 -28q14 -20 17.5 -44.5t1.5 -50.5q-1 -17 -2.5 -34t-5.5 -34q-6 -28 -15 -55.5t-20 -55.5
q-51 -137 -141 -262q-22 -29 -45.5 -56t-52.5 -49q-22 -18 -51 -29q-15 -7 -30 -7q-33 0 -49 32q-9 19 -11 40.5t0 44.5q1 14 3.5 29t5.5 29q5 22 11 43.5t14 43.5q26 74 60.5 144.5t77.5 139.5zM72 162q-2 -8 -4 -19t-3 -24q-2 -17 -2 -33.5t6 -32.5q8 -20 27 -20
q10 0 19 5q18 7 35 20q25 20 44.5 43.5t36.5 48.5q67 95 108 196q18 42 32 83t23 83q6 23 9 49q2 20 1.5 39t-8.5 36q-4 8 -9.5 13.5t-15.5 5.5h-4q-29 -5 -53.5 -15.5t-42.5 -38.5l-17 -26q-33 -50 -60.5 -101t-50.5 -105q-23 -50 -41 -100t-30 -107zM208 852q1 2 4 2
q5 0 5 -4l12 -40q3 -12 11.5 -27.5t6.5 -23.5q-3 -13 -13 -13q-9 0 -15.5 13t-10.5 30t-5.5 33t-0.5 22z" />
    <glyph glyph-name="Oacute" unicode="&#xd3;" horiz-adv-x="304" 
d="M204 549q-8 -9 -15.5 -17.5t-14.5 -18.5l-51 -73q-2 -3 -4 -6.5t-5 -5.5q-4 -4 -11 -4q-5 2 -5 7q1 2 0.5 4t0.5 4q2 6 4 10q23 42 50.5 81.5t64.5 74.5q10 9 19 17t20 16q16 11 29 25.5t27 29.5t29 28.5t33 23.5q16 9 32 9q25 0 36 -25l9 -29l-2 -13q-1 0 -2 -0.5
t-2 -0.5q0 2 -1 2.5t-1 1.5q0 11 -4.5 18t-10.5 14q-9 11 -21 11q-10 0 -20 -7q-12 -8 -23.5 -17t-23.5 -18q1 0 2 -0.5t3 -0.5q5 0 11 1.5t11 2.5q10 2 15 2q30 0 47 -28q14 -20 17.5 -44.5t1.5 -50.5q-1 -17 -2.5 -34t-5.5 -34q-6 -28 -15 -55.5t-20 -55.5
q-51 -137 -141 -262q-22 -29 -45.5 -56t-52.5 -49q-22 -18 -51 -29q-15 -7 -30 -7q-33 0 -49 32q-9 19 -11 40.5t0 44.5q1 14 3.5 29t5.5 29q5 22 11 43.5t14 43.5q26 74 60.5 144.5t77.5 139.5zM72 162q-2 -8 -4 -19t-3 -24q-2 -17 -2 -33.5t6 -32.5q8 -20 27 -20
q10 0 19 5q18 7 35 20q25 20 44.5 43.5t36.5 48.5q67 95 108 196q18 42 32 83t23 83q6 23 9 49q2 20 1.5 39t-8.5 36q-4 8 -9.5 13.5t-15.5 5.5h-4q-29 -5 -53.5 -15.5t-42.5 -38.5l-17 -26q-33 -50 -60.5 -101t-50.5 -105q-23 -50 -41 -100t-30 -107zM419.281 780.005
q-11.7109 0 -9.36816 13.6953q2.3418 9.13086 7.02637 15.9785q12.8818 19.4023 29.8623 34.2393t35.7178 27.3906l16.3955 10.2715q3.5127 1.1416 6.44043 2.2832q2.92773 1.14062 5.27051 1.14062q2.3418 0 4.68457 -0.570312q2.3418 -0.570312 2.3418 -2.85352
q0 -6.84766 -2.3418 -9.12988l-44.502 -38.8037l-15.2236 -15.9785q-1.1709 -2.2832 -2.92773 -4.56543t-1.75684 -4.56543q0 -1.14062 -0.584961 -1.71191q-0.585938 -0.570312 0.584961 -2.85254q-2.3418 -9.13086 -13.4668 -16.5488q-11.126 -7.41895 -18.1523 -7.41895z
" />
    <glyph glyph-name="Ocircumflex" unicode="&#xd4;" horiz-adv-x="304" 
d="M416 815l-17 -23q-2 -2 -4 -4.5t-5 -2.5q-7 0 -5 7q3 16 16.5 35.5t24.5 34.5l25 30q8 6 12 6q13 0 11 -13l-18 -85q1 -2 0.5 -3.5t1.5 -3.5q2 3 4 5.5t6 2.5q2 -2 3 -4t0 -5q-2 -8 -8.5 -12.5t-11.5 -4.5q-8 0 -9.5 12.5t-0.5 27.5t3 27.5l2 12.5q-1 0 -5.5 -7
t-24.5 -33zM204 549q-8 -9 -15.5 -17.5t-14.5 -18.5l-51 -73q-2 -3 -4 -6.5t-5 -5.5q-4 -4 -11 -4q-5 2 -5 7q1 2 0.5 4t0.5 4q2 6 4 10q23 42 50.5 81.5t64.5 74.5q10 9 19 17t20 16q16 11 29 25.5t27 29.5t29 28.5t33 23.5q16 9 32 9q25 0 36 -25l9 -29l-2 -13
q-1 0 -2 -0.5t-2 -0.5q0 2 -1 2.5t-1 1.5q0 11 -4.5 18t-10.5 14q-9 11 -21 11q-10 0 -20 -7q-12 -8 -23.5 -17t-23.5 -18q1 0 2 -0.5t3 -0.5q5 0 11 1.5t11 2.5q10 2 15 2q30 0 47 -28q14 -20 17.5 -44.5t1.5 -50.5q-1 -17 -2.5 -34t-5.5 -34q-6 -28 -15 -55.5t-20 -55.5
q-51 -137 -141 -262q-22 -29 -45.5 -56t-52.5 -49q-22 -18 -51 -29q-15 -7 -30 -7q-33 0 -49 32q-9 19 -11 40.5t0 44.5q1 14 3.5 29t5.5 29q5 22 11 43.5t14 43.5q26 74 60.5 144.5t77.5 139.5zM72 162q-2 -8 -4 -19t-3 -24q-2 -17 -2 -33.5t6 -32.5q8 -20 27 -20
q10 0 19 5q18 7 35 20q25 20 44.5 43.5t36.5 48.5q67 95 108 196q18 42 32 83t23 83q6 23 9 49q2 20 1.5 39t-8.5 36q-4 8 -9.5 13.5t-15.5 5.5h-4q-29 -5 -53.5 -15.5t-42.5 -38.5l-17 -26q-33 -50 -60.5 -101t-50.5 -105q-23 -50 -41 -100t-30 -107z" />
    <glyph glyph-name="Otilde" unicode="&#xd5;" horiz-adv-x="780" 
d="M461 772q-21 0 -41 9t-39.5 19.5t-37 19.5t-34.5 9q-24 0 -36 -14.5t-19 -43.5h-51q6 60 34 94t76 34q22 0 42.5 -9t39.5 -19.5t37 -19.5t33 -9q23 0 35.5 14.5t19.5 43.5h50q-6 -58 -34 -93t-75 -35zM204 549q-8 -9 -15.5 -17.5t-14.5 -18.5l-51 -73q-2 -3 -4 -6.5
t-5 -5.5q-4 -4 -11 -4q-5 2 -5 7q1 2 0.5 4t0.5 4q2 6 4 10q23 42 50.5 81.5t64.5 74.5q10 9 19 17t20 16q16 11 29 25.5t27 29.5t29 28.5t33 23.5q16 9 32 9q25 0 36 -25l9 -29l-2 -13q-1 0 -2 -0.5t-2 -0.5q0 2 -1 2.5t-1 1.5q0 11 -4.5 18t-10.5 14q-9 11 -21 11
q-10 0 -20 -7q-12 -8 -23.5 -17t-23.5 -18q1 0 2 -0.5t3 -0.5q5 0 11 1.5t11 2.5q10 2 15 2q30 0 47 -28q14 -20 17.5 -44.5t1.5 -50.5q-1 -17 -2.5 -34t-5.5 -34q-6 -28 -15 -55.5t-20 -55.5q-51 -137 -141 -262q-22 -29 -45.5 -56t-52.5 -49q-22 -18 -51 -29
q-15 -7 -30 -7q-33 0 -49 32q-9 19 -11 40.5t0 44.5q1 14 3.5 29t5.5 29q5 22 11 43.5t14 43.5q26 74 60.5 144.5t77.5 139.5zM72 162q-2 -8 -4 -19t-3 -24q-2 -17 -2 -33.5t6 -32.5q8 -20 27 -20q10 0 19 5q18 7 35 20q25 20 44.5 43.5t36.5 48.5q67 95 108 196
q18 42 32 83t23 83q6 23 9 49q2 20 1.5 39t-8.5 36q-4 8 -9.5 13.5t-15.5 5.5h-4q-29 -5 -53.5 -15.5t-42.5 -38.5l-17 -26q-33 -50 -60.5 -101t-50.5 -105q-23 -50 -41 -100t-30 -107z" />
    <glyph glyph-name="Odieresis" unicode="&#xd6;" horiz-adv-x="304" 
d="M204 549q-8 -9 -15.5 -17.5t-14.5 -18.5l-51 -73q-2 -3 -4 -6.5t-5 -5.5q-4 -4 -11 -4q-5 2 -5 7q1 2 0.5 4t0.5 4q2 6 4 10q23 42 50.5 81.5t64.5 74.5q10 9 19 17t20 16q16 11 29 25.5t27 29.5t29 28.5t33 23.5q16 9 32 9q25 0 36 -25l9 -29l-2 -13q-1 0 -2 -0.5
t-2 -0.5q0 2 -1 2.5t-1 1.5q0 11 -4.5 18t-10.5 14q-9 11 -21 11q-10 0 -20 -7q-12 -8 -23.5 -17t-23.5 -18q1 0 2 -0.5t3 -0.5q5 0 11 1.5t11 2.5q10 2 15 2q30 0 47 -28q14 -20 17.5 -44.5t1.5 -50.5q-1 -17 -2.5 -34t-5.5 -34q-6 -28 -15 -55.5t-20 -55.5
q-51 -137 -141 -262q-22 -29 -45.5 -56t-52.5 -49q-22 -18 -51 -29q-15 -7 -30 -7q-33 0 -49 32q-9 19 -11 40.5t0 44.5q1 14 3.5 29t5.5 29q5 22 11 43.5t14 43.5q26 74 60.5 144.5t77.5 139.5zM72 162q-2 -8 -4 -19t-3 -24q-2 -17 -2 -33.5t6 -32.5q8 -20 27 -20
q10 0 19 5q18 7 35 20q25 20 44.5 43.5t36.5 48.5q67 95 108 196q18 42 32 83t23 83q6 23 9 49q2 20 1.5 39t-8.5 36q-4 8 -9.5 13.5t-15.5 5.5h-4q-29 -5 -53.5 -15.5t-42.5 -38.5l-17 -26q-33 -50 -60.5 -101t-50.5 -105q-23 -50 -41 -100t-30 -107zM370.526 819.934
q2.50586 -10.7559 -1.25293 -23.0479q-1.25293 -15.3662 -20.0479 -19.9756q-17.542 0 -20.0479 16.9023q-1.25293 4.60938 1.25293 21.5117q6.26465 24.585 21.3008 24.585q6.26465 0 12.5303 -6.14648q6.26465 -6.14551 6.26465 -13.8291zM431.923 824.544
q2.50586 -3.07324 1.87988 -7.68262q-0.626953 -4.61035 -0.626953 -7.68359q-6.26465 -30.7305 -25.0596 -30.7305q-11.2773 0 -15.0361 12.292q0 3.07324 -0.625977 6.14648q-0.626953 3.07324 0.625977 6.14648q2.50586 12.292 10.0244 21.5117
q7.51758 9.21875 17.542 9.21875q8.77051 0 11.2764 -9.21875z" />
    <glyph glyph-name="multiply" unicode="&#xd7;" horiz-adv-x="147" 
d="M108 204q-8 -8 -14.5 -15.5t-13.5 -14.5q-5 -6 -11.5 -12t-13.5 -12q-6 -6 -13 -6q-5 0 -6 2q-4 3 -4 9q2 5 6 11q10 16 23 29.5t26 27.5q4 4 4 7q1 2 -1 7l-25 40l-2 4t0 4q0 2 2 4q5 5 9 5q3 0 5 -1q10 -3 16.5 -9.5t12.5 -14.5l9 -14q2 2 4 3.5t3 3.5l41 39q7 5 14 7
q14 0 12 -11q-4 -8 -8 -12l-47 -50q-2 -2 -2 -3t-1 -3v-5q5 -11 9.5 -21.5t9.5 -21.5q0 -4 5 -6q1 -2 2 -3.5t0 -4.5q-3 -10 -11 -10t-11 4l-23 32q-4 6 -6 11z" />
    <glyph glyph-name="Oslash" unicode="&#xd8;" horiz-adv-x="780" 
d="M720 358q0 -171 -86.5 -269.5t-242.5 -98.5q-113 0 -185 47l-48 -68l-61 40l52 74q-88 97 -88 276q0 174 85.5 270t245.5 96q100 0 178 -45l46 66l61 -41l-51 -71q94 -99 94 -276zM625 358q0 129 -51 202l-320 -454q56 -38 137 -38q115 0 174.5 73t59.5 217zM156 358
q0 -126 47 -198l319 451q-53 35 -130 35q-116 0 -176 -73.5t-60 -214.5z" />
    <glyph glyph-name="Ugrave" unicode="&#xd9;" horiz-adv-x="730" 
d="M401 466q-19 -30 -37 -60t-38 -60q-39 -62 -79 -123t-81 -123q-23 -35 -55 -61q-10 -8 -19.5 -12.5t-20.5 -4.5q-8 0 -14 3q-11 5 -17 14.5t-8 21.5q-2 14 -1.5 28.5t2.5 28.5q1 16 6 33q2 11 4 20.5t6 20.5q13 40 25.5 79.5t26.5 80.5q5 14 10 27.5t10 27.5q1 2 0.5 5.5
t-2.5 4.5q-10 5 -13.5 14.5t-3.5 20.5q-1 14 0.5 26.5t4.5 26.5q3 15 8 30.5t11 30.5q8 22 19 43t28 41q1 2 2.5 4t3.5 4q12 10 20 10q11 0 16 -11q2 -6 4.5 -12.5t0.5 -13.5q-2 -15 -4.5 -30t-5.5 -29l-4 -19q-4 -15 -9 -33.5t-15 -50.5l-44 -138q-9 -29 -18 -57t-17 -57
q-8 -28 -15.5 -55t-14.5 -55q-2 -9 -1.5 -18.5t1.5 -19.5q2 -11 9 -11q4 0 13 6q17 12 29 26.5t23 30.5q8 12 17.5 26.5t24.5 38t38 60t58.5 94t86.5 139.5t121 196q9 13 20 13h4q10 -3 7 -17l-1 -4q-8 -21 -16.5 -42t-17.5 -42q-28 -64 -52.5 -128t-44.5 -130
q-14 -43 -26 -85.5t-23 -86.5q-4 -14 -7.5 -27.5t-6.5 -27.5q-14 -68 -18 -134q0 -5 -0.5 -9.5t0.5 -9.5q1 -4 1 -7.5t5 -3.5q1 0 7 2q6 0 7.5 -2.5t1.5 -7.5q-2 -10 -10 -15.5t-16 -5.5q-4 0 -5 1q-13 3 -17 16q-6 21 -6 44q2 28 4.5 56t7.5 56q4 23 8 45.5t9 45.5l7 33
q11 45 25 90t31 90q8 21 15.5 42t14.5 42zM187 627q-4 -4 -6 -10q-17 -26 -29.5 -52.5t-18.5 -54.5l-1 -5q-3 -14 -3 -27q-2 -11 -1 -21.5t1 -20.5q1 0 1.5 0.5t1.5 0.5q14 38 27.5 76t21.5 76q2 9 3 18t3 20zM182 852q1 2 4 2q5 0 5 -4l12 -40q3 -12 11.5 -27.5t6.5 -23.5
q-3 -13 -13 -13q-9 0 -15.5 13t-10.5 30t-5.5 33t-0.5 22z" />
    <glyph glyph-name="Uacute" unicode="&#xda;" horiz-adv-x="386" 
d="M401 466q-19 -30 -37 -60t-38 -60q-39 -62 -79 -123t-81 -123q-23 -35 -55 -61q-10 -8 -19.5 -12.5t-20.5 -4.5q-8 0 -14 3q-11 5 -17 14.5t-8 21.5q-2 14 -1.5 28.5t2.5 28.5q1 16 6 33q2 11 4 20.5t6 20.5q13 40 25.5 79.5t26.5 80.5q5 14 10 27.5t10 27.5q1 2 0.5 5.5
t-2.5 4.5q-10 5 -13.5 14.5t-3.5 20.5q-1 14 0.5 26.5t4.5 26.5q3 15 8 30.5t11 30.5q8 22 19 43t28 41q1 2 2.5 4t3.5 4q12 10 20 10q11 0 16 -11q2 -6 4.5 -12.5t0.5 -13.5q-2 -15 -4.5 -30t-5.5 -29l-4 -19q-4 -15 -9 -33.5t-15 -50.5l-44 -138q-9 -29 -18 -57t-17 -57
q-8 -28 -15.5 -55t-14.5 -55q-2 -9 -1.5 -18.5t1.5 -19.5q2 -11 9 -11q4 0 13 6q17 12 29 26.5t23 30.5q8 12 17.5 26.5t24.5 38t38 60t58.5 94t86.5 139.5t121 196q9 13 20 13h4q10 -3 7 -17l-1 -4q-8 -21 -16.5 -42t-17.5 -42q-28 -64 -52.5 -128t-44.5 -130
q-14 -43 -26 -85.5t-23 -86.5q-4 -14 -7.5 -27.5t-6.5 -27.5q-14 -68 -18 -134q0 -5 -0.5 -9.5t0.5 -9.5q1 -4 1 -7.5t5 -3.5q1 0 7 2q6 0 7.5 -2.5t1.5 -7.5q-2 -10 -10 -15.5t-16 -5.5q-4 0 -5 1q-13 3 -17 16q-6 21 -6 44q2 28 4.5 56t7.5 56q4 23 8 45.5t9 45.5l7 33
q11 45 25 90t31 90q8 21 15.5 42t14.5 42zM187 627q-4 -4 -6 -10q-17 -26 -29.5 -52.5t-18.5 -54.5l-1 -5q-3 -14 -3 -27q-2 -11 -1 -21.5t1 -20.5q1 0 1.5 0.5t1.5 0.5q14 38 27.5 76t21.5 76q2 9 3 18t3 20zM346.261 683.734q-12.1055 0 -9.68457 15.9141
q2.4209 10.6084 7.2627 18.5654q13.3164 22.5439 30.8682 39.7832q17.5527 17.2393 36.9209 31.8262l16.9473 11.9355q3.63184 1.32617 6.65723 2.65234q3.02637 1.32617 5.44727 1.32617q2.42188 0 4.84277 -0.663086t2.4209 -3.31543q0 -7.95703 -2.4209 -10.6094
l-46 -45.0869l-15.7363 -18.5664q-1.21094 -2.65234 -3.02637 -5.30371q-1.81543 -2.65234 -1.81543 -5.30469q0 -1.32617 -0.605469 -1.98926t0.605469 -3.31543q-2.4209 -10.6084 -13.9209 -19.2285t-18.7627 -8.62012z" />
    <glyph glyph-name="Ucircumflex" unicode="&#xdb;" horiz-adv-x="730" 
d="M227 820l-17 -23q-2 -2 -4 -4.5t-5 -2.5q-7 0 -5 7q3 16 16.5 35.5t24.5 34.5l25 30q8 6 12 6q13 0 11 -13l-18 -85q1 -2 0.5 -3.5t1.5 -3.5q2 3 4 5.5t6 2.5q2 -2 3 -4t0 -5q-2 -8 -8.5 -12.5t-11.5 -4.5q-8 0 -9.5 12.5t-0.5 27.5t3 27.5l2 12.5q-1 0 -5.5 -7
t-24.5 -33zM401 466q-19 -30 -37 -60t-38 -60q-39 -62 -79 -123t-81 -123q-23 -35 -55 -61q-10 -8 -19.5 -12.5t-20.5 -4.5q-8 0 -14 3q-11 5 -17 14.5t-8 21.5q-2 14 -1.5 28.5t2.5 28.5q1 16 6 33q2 11 4 20.5t6 20.5q13 40 25.5 79.5t26.5 80.5q5 14 10 27.5t10 27.5
q1 2 0.5 5.5t-2.5 4.5q-10 5 -13.5 14.5t-3.5 20.5q-1 14 0.5 26.5t4.5 26.5q3 15 8 30.5t11 30.5q8 22 19 43t28 41q1 2 2.5 4t3.5 4q12 10 20 10q11 0 16 -11q2 -6 4.5 -12.5t0.5 -13.5q-2 -15 -4.5 -30t-5.5 -29l-4 -19q-4 -15 -9 -33.5t-15 -50.5l-44 -138
q-9 -29 -18 -57t-17 -57q-8 -28 -15.5 -55t-14.5 -55q-2 -9 -1.5 -18.5t1.5 -19.5q2 -11 9 -11q4 0 13 6q17 12 29 26.5t23 30.5q8 12 17.5 26.5t24.5 38t38 60t58.5 94t86.5 139.5t121 196q9 13 20 13h4q10 -3 7 -17l-1 -4q-8 -21 -16.5 -42t-17.5 -42q-28 -64 -52.5 -128
t-44.5 -130q-14 -43 -26 -85.5t-23 -86.5q-4 -14 -7.5 -27.5t-6.5 -27.5q-14 -68 -18 -134q0 -5 -0.5 -9.5t0.5 -9.5q1 -4 1 -7.5t5 -3.5q1 0 7 2q6 0 7.5 -2.5t1.5 -7.5q-2 -10 -10 -15.5t-16 -5.5q-4 0 -5 1q-13 3 -17 16q-6 21 -6 44q2 28 4.5 56t7.5 56q4 23 8 45.5
t9 45.5l7 33q11 45 25 90t31 90q8 21 15.5 42t14.5 42zM187 627q-4 -4 -6 -10q-17 -26 -29.5 -52.5t-18.5 -54.5l-1 -5q-3 -14 -3 -27q-2 -11 -1 -21.5t1 -20.5q1 0 1.5 0.5t1.5 0.5q14 38 27.5 76t21.5 76q2 9 3 18t3 20z" />
    <glyph glyph-name="Udieresis" unicode="&#xdc;" horiz-adv-x="386" 
d="M401 466q-19 -30 -37 -60t-38 -60q-39 -62 -79 -123t-81 -123q-23 -35 -55 -61q-10 -8 -19.5 -12.5t-20.5 -4.5q-8 0 -14 3q-11 5 -17 14.5t-8 21.5q-2 14 -1.5 28.5t2.5 28.5q1 16 6 33q2 11 4 20.5t6 20.5q13 40 25.5 79.5t26.5 80.5q5 14 10 27.5t10 27.5q1 2 0.5 5.5
t-2.5 4.5q-10 5 -13.5 14.5t-3.5 20.5q-1 14 0.5 26.5t4.5 26.5q3 15 8 30.5t11 30.5q8 22 19 43t28 41q1 2 2.5 4t3.5 4q12 10 20 10q11 0 16 -11q2 -6 4.5 -12.5t0.5 -13.5q-2 -15 -4.5 -30t-5.5 -29l-4 -19q-4 -15 -9 -33.5t-15 -50.5l-44 -138q-9 -29 -18 -57t-17 -57
q-8 -28 -15.5 -55t-14.5 -55q-2 -9 -1.5 -18.5t1.5 -19.5q2 -11 9 -11q4 0 13 6q17 12 29 26.5t23 30.5q8 12 17.5 26.5t24.5 38t38 60t58.5 94t86.5 139.5t121 196q9 13 20 13h4q10 -3 7 -17l-1 -4q-8 -21 -16.5 -42t-17.5 -42q-28 -64 -52.5 -128t-44.5 -130
q-14 -43 -26 -85.5t-23 -86.5q-4 -14 -7.5 -27.5t-6.5 -27.5q-14 -68 -18 -134q0 -5 -0.5 -9.5t0.5 -9.5q1 -4 1 -7.5t5 -3.5q1 0 7 2q6 0 7.5 -2.5t1.5 -7.5q-2 -10 -10 -15.5t-16 -5.5q-4 0 -5 1q-13 3 -17 16q-6 21 -6 44q2 28 4.5 56t7.5 56q4 23 8 45.5t9 45.5l7 33
q11 45 25 90t31 90q8 21 15.5 42t14.5 42zM187 627q-4 -4 -6 -10q-17 -26 -29.5 -52.5t-18.5 -54.5l-1 -5q-3 -14 -3 -27q-2 -11 -1 -21.5t1 -20.5q1 0 1.5 0.5t1.5 0.5q14 38 27.5 76t21.5 76q2 9 3 18t3 20zM353.731 738.584q2.74707 -10.9268 -1.37305 -23.4141
q-1.37402 -15.6104 -21.9756 -20.293q-19.2295 0 -21.9756 17.1709q-1.37402 4.68262 1.37305 21.8535q6.86719 24.9756 23.3486 24.9756q6.86816 0 13.7354 -6.24414q6.86719 -6.24316 6.86719 -14.0488zM421.031 743.268q2.74707 -3.12207 2.06055 -7.80469
q-0.686523 -4.68359 -0.686523 -7.80566q-6.86719 -31.2188 -27.4697 -31.2188q-12.3613 0 -16.4814 12.4873q0 3.12207 -0.686523 6.24414q-0.6875 3.12207 0.686523 6.24414q2.74707 12.4873 10.9873 21.8535q8.24121 9.36523 19.2285 9.36523q9.61523 0 12.3613 -9.36523
z" />
    <glyph glyph-name="Yacute" unicode="&#xdd;" horiz-adv-x="343" 
d="M382 513q-9 -14 -18 -27.5t-19 -27.5q-14 -20 -36 -50.5t-47.5 -65t-52.5 -70.5t-50.5 -67t-42 -53.5t-26.5 -29.5q-11 -11 -23.5 -18.5t-28.5 -8.5q-19 0 -26 12q-11 22 -10 56t9 70q7 33 17 62.5t19 47.5q1 4 3.5 8t5.5 8q2 3 8.5 6.5t11.5 3.5q1 0 5 -2q3 -3 2 -6
q0 -2 -1.5 -3.5l-3.5 -3.5q-5 -3 -5 -9q-6 -18 -13 -42.5t-13 -50.5q-8 -35 -10.5 -67t3.5 -49q3 -5 5 -5q5 0 13 8q5 5 19.5 23t34.5 44t43 57t45.5 61.5t42.5 57.5t33 46l117 168q2 3 4.5 5.5l4.5 4.5q10 10 21 10q18 -3 18 -16q2 -10 1 -14q-5 -21 -9.5 -42.5t-9.5 -42.5
q-1 -5 -2.5 -10t-2.5 -10q-11 -42 -21 -82t-23 -81q-6 -19 -21 -67.5t-36.5 -112.5t-48 -136.5t-55 -139.5t-57.5 -122.5t-55 -85.5q-18 -19 -39 -32q-13 -8 -26 -8q-20 0 -30 18q-6 15 -8.5 32t2.5 36q0 13 12 15q8 0 10 -3.5t3 -8.5q2 -11 4 -21.5t6 -21.5q3 -9 8 -9t13 9
q23 27 49 78t53 114t53 133t49 134.5t40.5 117.5t27.5 83l8 24q12 39 23.5 78t22.5 78v13zM268.916 609.851q-12.3672 0 -9.89453 15.6514q2.47461 10.4346 7.42188 18.2607q13.6045 22.1729 31.5381 39.1299q17.9346 16.9561 37.7236 31.3037l17.3145 11.7383
q3.71094 1.30469 6.80273 2.6084q3.0918 1.30469 5.56641 1.30469q2.47266 0 4.94727 -0.652344q2.47266 -0.652344 2.47266 -3.26074q0 -7.8252 -2.47266 -10.4346l-47 -44.3467l-16.0781 -18.2607q-1.23633 -2.6084 -3.0918 -5.2168q-1.85547 -2.60938 -1.85547 -5.21777
q0 -1.30371 -0.618164 -1.95605t0.618164 -3.26074q-2.47363 -10.4346 -14.2236 -18.9131q-11.749 -8.47754 -19.1709 -8.47754z" />
    <glyph glyph-name="Thorn" unicode="&#xde;" horiz-adv-x="604" 
d="M554 382q0 -110 -73.5 -168.5t-212.5 -58.5h-81v-155h-90v714h90v-124h96q137 0 204 -51.5t67 -156.5zM187 231h72q108 0 155 34.5t47 111.5q0 70 -44.5 103t-140.5 33h-89v-282z" />
    <glyph glyph-name="germandbls" unicode="&#xdf;" horiz-adv-x="276" 
d="M247 150q8 -18 4 -33q-5 -24 -26.5 -45t-50 -37.5t-57.5 -26t-49 -9.5q-14 0 -22 6t-6 18l1 5q10 21 29 40.5t41.5 36t46.5 30.5t45 23l-6 5q-14 8 -26.5 18.5t-8.5 27.5l2 6t3 7l55 107q12 23 26 48.5t27 51t23 50t15 45.5q4 23 -3 23q-12 0 -31 -18.5t-39.5 -45.5
t-40 -57.5t-32.5 -54.5q-47 -84 -80.5 -168.5t-62.5 -177.5q-5 -26 -12 -50.5t-12 -48.5q-4 -18 -5.5 -36t-6.5 -37l-4 -20q-2 -11 -3 -19.5t3 -19.5q-3 -3 -7 -3t-6 6t-2 15t0.5 19t0.5 18v4l8 97q8 26 13 52t11 52q16 60 39 125.5t53.5 128.5t67.5 119.5t80 98.5
q16 15 36 30.5t37 15.5q10 0 15 -5t6.5 -12.5t0.5 -16.5t-2 -16q-8 -36 -23.5 -73.5t-35.5 -74.5t-42 -73.5t-41 -70.5l-4 -12l-4 -12q-1 -7 3.5 -12.5t11 -9.5t14.5 -7.5t14 -6.5q5 0 8 1l61 13q2 1 7 1q8 0 18 -5l3 -2l1 -9q-4 -2 -6 -2q-5 1 -9.5 1.5t-8.5 0.5
q-11 0 -23 -3l-34 -9zM224 123q-1 3 -1.5 13t-5.5 10q-2 0 -6 -2q-38 -20 -77 -46t-65 -61q-1 -3 -3.5 -5.5t-3.5 -6.5q-1 -8 9 -8q18 0 43 9.5t48 24.5t40.5 34t21.5 38z" />
    <glyph glyph-name="agrave" unicode="&#xe0;" horiz-adv-x="561" 
d="M308 124q4 3 11 6t12 3t4 -4q-1 -3 -5 -8.5t-14 -13.5q-11 -10 -26.5 -21.5t-32.5 -22t-34 -17.5t-31 -7q-23 0 -30 18.5t-1 47.5q3 17 10 33q-10 -10 -27.5 -26.5t-37.5 -32.5t-40 -27.5t-34 -11.5q-17 2 -21 12t-1 26q4 17 15 37.5t25.5 38t31 29t31.5 11.5q8 0 16 -5
q13 -8 16.5 -19t1.5 -19q-4 -14 -10 -14t-6 11q-1 20 -13 20q-9 0 -21 -11.5t-23.5 -27t-20.5 -31.5t-11 -25q-1 -6 1 -8q1 -1 4 -1q11 0 31.5 15t41.5 34.5t39 38t24 25.5q7 9 16 9t14 -9t3 -17q-8 -17 -13.5 -32t-7.5 -27q-3 -15 -0.5 -24.5t15.5 -10.5q25 2 50 20t44 35z
M95 687q1 2 4 2q5 0 5 -4l12 -40q3 -12 11.5 -27.5t6.5 -23.5q-3 -13 -13 -13q-9 0 -15.5 13t-10.5 30t-5.5 33t-0.5 22z" />
    <glyph glyph-name="aacute" unicode="&#xe1;" horiz-adv-x="272" 
d="M308 124q4 3 11 6t12 3t4 -4q-1 -3 -5 -8.5t-14 -13.5q-11 -10 -26.5 -21.5t-32.5 -22t-34 -17.5t-31 -7q-23 0 -30 18.5t-1 47.5q3 17 10 33q-10 -10 -27.5 -26.5t-37.5 -32.5t-40 -27.5t-34 -11.5q-17 2 -21 12t-1 26q4 17 15 37.5t25.5 38t31 29t31.5 11.5q8 0 16 -5
q13 -8 16.5 -19t1.5 -19q-4 -14 -10 -14t-6 11q-1 20 -13 20q-9 0 -21 -11.5t-23.5 -27t-20.5 -31.5t-11 -25q-1 -6 1 -8q1 -1 4 -1q11 0 31.5 15t41.5 34.5t39 38t24 25.5q7 9 16 9t14 -9t3 -17q-8 -17 -13.5 -32t-7.5 -27q-3 -15 -0.5 -24.5t15.5 -10.5q25 2 50 20t44 35z
M154.698 225.595q-9.0791 0 -7.26367 10.957q1.81641 7.30371 5.44727 12.7822q9.9873 15.5215 23.1514 27.3906q13.165 11.8691 27.6914 21.9121l12.71 8.21777q2.72363 0.913086 4.99414 1.82617q2.26953 0.913086 4.08496 0.913086q1.81641 0 3.63184 -0.457031
q1.81543 -0.456055 1.81543 -2.28223q0 -5.47852 -1.81543 -7.30469l-34.5 -31.042l-11.8027 -12.7832q-0.908203 -1.82617 -2.26953 -3.65137q-1.3623 -1.82617 -1.3623 -3.65234q0 -0.913086 -0.454102 -1.37012q-0.453125 -0.456055 0.454102 -2.28223
q-1.81543 -7.30371 -10.4404 -13.2383q-8.625 -5.93555 -14.0723 -5.93555z" />
    <glyph glyph-name="acircumflex" unicode="&#xe2;" horiz-adv-x="272" 
d="M193 263l-15 -15q-2 -1 -4 -3t-4 -2q-6 0 -5 5q3 10 15 22.5t22 22.5l22 19q7 4 10 4q12 0 10 -8l-16 -55q1 -1 0.5 -2t1.5 -2q2 1 3.5 3t5.5 2q2 -2 2.5 -3t-0.5 -3q-1 -5 -7 -8t-10 -3q-7 0 -8.5 8t-0.5 17.5t2.5 17.5l1.5 8q-1 0 -5 -4.5t-21 -20.5zM308 124q4 3 11 6
t12 3t4 -4q-1 -3 -5 -8.5t-14 -13.5q-11 -10 -26.5 -21.5t-32.5 -22t-34 -17.5t-31 -7q-23 0 -30 18.5t-1 47.5q3 17 10 33q-10 -10 -27.5 -26.5t-37.5 -32.5t-40 -27.5t-34 -11.5q-17 2 -21 12t-1 26q4 17 15 37.5t25.5 38t31 29t31.5 11.5q8 0 16 -5q13 -8 16.5 -19
t1.5 -19q-4 -14 -10 -14t-6 11q-1 20 -13 20q-9 0 -21 -11.5t-23.5 -27t-20.5 -31.5t-11 -25q-1 -6 1 -8q1 -1 4 -1q11 0 31.5 15t41.5 34.5t39 38t24 25.5q7 9 16 9t14 -9t3 -17q-8 -17 -13.5 -32t-7.5 -27q-3 -15 -0.5 -24.5t15.5 -10.5q25 2 50 20t44 35z" />
    <glyph glyph-name="atilde" unicode="&#xe3;" horiz-adv-x="561" 
d="M356 607q-21 0 -41 9t-39.5 19.5t-37 19.5t-34.5 9q-24 0 -36 -14.5t-19 -43.5h-51q6 60 34 94t76 34q22 0 42.5 -9t39.5 -19.5t37 -19.5t33 -9q23 0 35.5 14.5t19.5 43.5h50q-6 -58 -34 -93t-75 -35zM308 124q4 3 11 6t12 3t4 -4q-1 -3 -5 -8.5t-14 -13.5
q-11 -10 -26.5 -21.5t-32.5 -22t-34 -17.5t-31 -7q-23 0 -30 18.5t-1 47.5q3 17 10 33q-10 -10 -27.5 -26.5t-37.5 -32.5t-40 -27.5t-34 -11.5q-17 2 -21 12t-1 26q4 17 15 37.5t25.5 38t31 29t31.5 11.5q8 0 16 -5q13 -8 16.5 -19t1.5 -19q-4 -14 -10 -14t-6 11
q-1 20 -13 20q-9 0 -21 -11.5t-23.5 -27t-20.5 -31.5t-11 -25q-1 -6 1 -8q1 -1 4 -1q11 0 31.5 15t41.5 34.5t39 38t24 25.5q7 9 16 9t14 -9t3 -17q-8 -17 -13.5 -32t-7.5 -27q-3 -15 -0.5 -24.5t15.5 -10.5q25 2 50 20t44 35z" />
    <glyph glyph-name="adieresis" unicode="&#xe4;" horiz-adv-x="272" 
d="M308 124q4 3 11 6t12 3t4 -4q-1 -3 -5 -8.5t-14 -13.5q-11 -10 -26.5 -21.5t-32.5 -22t-34 -17.5t-31 -7q-23 0 -30 18.5t-1 47.5q3 17 10 33q-10 -10 -27.5 -26.5t-37.5 -32.5t-40 -27.5t-34 -11.5q-17 2 -21 12t-1 26q4 17 15 37.5t25.5 38t31 29t31.5 11.5q8 0 16 -5
q13 -8 16.5 -19t1.5 -19q-4 -14 -10 -14t-6 11q-1 20 -13 20q-9 0 -21 -11.5t-23.5 -27t-20.5 -31.5t-11 -25q-1 -6 1 -8q1 -1 4 -1q11 0 31.5 15t41.5 34.5t39 38t24 25.5q7 9 16 9t14 -9t3 -17q-8 -17 -13.5 -32t-7.5 -27q-3 -15 -0.5 -24.5t15.5 -10.5q25 2 50 20t44 35z
M162 259q2 -7 -1 -15q-1 -10 -16 -13q-14 0 -16 11q-1 3 1 14q5 16 17 16q5 0 10 -4t5 -9zM211 262q2 -2 1.5 -5t-0.5 -5q-5 -20 -20 -20q-9 0 -12 8q0 2 -0.5 4t0.5 4q2 8 8 14t14 6q7 0 9 -6z" />
    <glyph glyph-name="aring" unicode="&#xe5;" horiz-adv-x="561" 
d="M142 673q5 17 17 31t32 24q6 3 10 3q6 0 11 -6q0 -2 4 -2q16 -3 13 -19q-2 -7 -4.5 -13.5t-5.5 -11.5l-12 -16t-13 -15q-14 -14 -28 -14q-4 0 -8 2q-22 8 -16 37zM204 706q-9 -2 -23.5 -16.5t-19.5 -26.5q0 -5 1 -7h3t2 1q16 8 25.5 24t11.5 25zM308 124q4 3 11 6t12 3
t4 -4q-1 -3 -5 -8.5t-14 -13.5q-11 -10 -26.5 -21.5t-32.5 -22t-34 -17.5t-31 -7q-23 0 -30 18.5t-1 47.5q3 17 10 33q-10 -10 -27.5 -26.5t-37.5 -32.5t-40 -27.5t-34 -11.5q-17 2 -21 12t-1 26q4 17 15 37.5t25.5 38t31 29t31.5 11.5q8 0 16 -5q13 -8 16.5 -19t1.5 -19
q-4 -14 -10 -14t-6 11q-1 20 -13 20q-9 0 -21 -11.5t-23.5 -27t-20.5 -31.5t-11 -25q-1 -6 1 -8q1 -1 4 -1q11 0 31.5 15t41.5 34.5t39 38t24 25.5q7 9 16 9t14 -9t3 -17q-8 -17 -13.5 -32t-7.5 -27q-3 -15 -0.5 -24.5t15.5 -10.5q25 2 50 20t44 35z" />
    <glyph glyph-name="ae" unicode="&#xe6;" horiz-adv-x="863" 
d="M46 149q0 163 244 171l90 3v34q0 60 -27.5 88.5t-84.5 28.5q-68 0 -150 -41l-27 66q35 20 84.5 33t99.5 13q62 0 102.5 -20.5t61.5 -65.5q26 42 67.5 64.5t96.5 22.5q96 0 153 -66t57 -174v-54h-343q4 -187 155 -187q43 0 80.5 8t83.5 29v-77q-43 -19 -80 -27t-87 -8
q-142 0 -203 113q-40 -61 -88.5 -87t-114.5 -26q-80 0 -125 42t-45 117zM137 148q0 -45 25.5 -66t67.5 -21q68 0 108 40t40 113v48l-75 -3q-86 -3 -126 -29t-40 -82zM602 474q-58 0 -91 -39t-39 -114h248q0 74 -30.5 113.5t-87.5 39.5z" />
    <glyph glyph-name="ccedilla" unicode="&#xe7;" horiz-adv-x="212" 
d="M253 134q4 5 8 5q3 0 5.5 -3t1.5 -8q-2 -4 -4 -6q-15 -19 -35.5 -38t-43.5 -35t-47.5 -27t-46.5 -14q-3 0 -6 -0.5t-6 -0.5q-42 2 -55 26.5t-5 57.5q4 18 13 37.5t22.5 36t30.5 27t35 10.5q17 0 26 -11.5t7 -28.5q-2 -8 -7.5 -18.5t-12.5 -10.5q-8 0 -11 7t-1 15q1 3 3 7
t2 6q2 5 -1.5 8t-8.5 3q-11 0 -20.5 -7t-18 -18t-14.5 -24.5t-9 -26.5q-5 -27 2.5 -49.5t34.5 -22.5q20 0 43 10t45 25.5t41.5 33.5t32.5 34zM40 -106q-10 0 -15 7t-3 18l1 4q6 14 18 23q1 1 5 1q0 -2 0.5 -3t-0.5 -3l-9 -12q-4 -6 -4 -11q0 -8 6 -8q1 0 1.5 0.5t1.5 0.5
q11 3 19.5 12t10.5 20q1 8 -2 17l-2 4q-4 12 -3 20q3 10 13 20q5 5 10 8.5t10 7.5q3 3 7 3q2 0 2 -2q1 -2 0 -3q0 -4 -2 -6l-16 -18q-6 -8 -6 -12q-1 -5 3 -12q9 -15 6 -31q-5 -19 -20.5 -32t-31.5 -13z" />
    <glyph glyph-name="egrave" unicode="&#xe8;" horiz-adv-x="563" 
d="M51 94q-3 -8 -3 -14q-6 -27 3.5 -38.5t26.5 -11.5h5q21 2 44 12.5t45.5 26t42.5 33.5t35 34q5 5 11 5t5 -7q-2 -5 -7 -13q-15 -18 -37 -37t-47.5 -35t-51 -27.5t-46.5 -14.5q-5 -1 -8.5 -1h-7.5q-33 0 -43 22.5t-4 53.5l1 4q6 30 23 61t37 48q14 13 27 13q12 0 18 -11.5
t2 -28.5q-4 -18 -20 -38.5t-51 -35.5zM61 119q21 10 31.5 24t13.5 24q3 13 -4 13q-6 0 -14 -11q-13 -16 -27 -50zM113 687q1 2 4 2q5 0 5 -4l12 -40q3 -12 11.5 -27.5t6.5 -23.5q-3 -13 -13 -13q-9 0 -15.5 13t-10.5 30t-5.5 33t-0.5 22z" />
    <glyph glyph-name="eacute" unicode="&#xe9;" horiz-adv-x="209" 
d="M51 94q-3 -8 -3 -14q-6 -27 3.5 -38.5t26.5 -11.5h5q21 2 44 12.5t45.5 26t42.5 33.5t35 34q5 5 11 5t5 -7q-2 -5 -7 -13q-15 -18 -37 -37t-47.5 -35t-51 -27.5t-46.5 -14.5q-5 -1 -8.5 -1h-7.5q-33 0 -43 22.5t-4 53.5l1 4q6 30 23 61t37 48q14 13 27 13q12 0 18 -11.5
t2 -28.5q-4 -18 -20 -38.5t-51 -35.5zM61 119q21 10 31.5 24t13.5 24q3 13 -4 13q-6 0 -14 -11q-13 -16 -27 -50zM102.739 233.995q-7.89453 0 -6.31543 10.3047q1.5791 6.86914 4.7373 12.0215q8.68359 14.5977 20.1318 25.7607q11.4473 11.1631 24.0791 20.6094
l11.0527 7.72852q2.36816 0.858398 4.34277 1.7168q1.97363 0.859375 3.55273 0.859375q1.57812 0 3.15723 -0.429688t1.5791 -2.14648q0 -5.15234 -1.5791 -6.87012l-30 -29.1963l-10.2637 -12.0215q-0.789062 -1.7168 -1.97363 -3.43457t-1.18457 -3.43457
q0 -0.859375 -0.394531 -1.28809q-0.394531 -0.429688 0.394531 -2.14746q-1.5791 -6.86914 -9.0791 -12.4512q-7.5 -5.58105 -12.2373 -5.58105z" />
    <glyph glyph-name="ecircumflex" unicode="&#xea;" horiz-adv-x="563" 
d="M162 655l-17 -23q-2 -2 -4 -4.5t-5 -2.5q-7 0 -5 7q3 16 16.5 35.5t24.5 34.5l25 30q8 6 12 6q13 0 11 -13l-18 -85q1 -2 0.5 -3.5t1.5 -3.5q2 3 4 5.5t6 2.5q2 -2 3 -4t0 -5q-2 -8 -8.5 -12.5t-11.5 -4.5q-8 0 -9.5 12.5t-0.5 27.5t3 27.5l2 12.5q-1 0 -5.5 -7
t-24.5 -33zM51 94q-3 -8 -3 -14q-6 -27 3.5 -38.5t26.5 -11.5h5q21 2 44 12.5t45.5 26t42.5 33.5t35 34q5 5 11 5t5 -7q-2 -5 -7 -13q-15 -18 -37 -37t-47.5 -35t-51 -27.5t-46.5 -14.5q-5 -1 -8.5 -1h-7.5q-33 0 -43 22.5t-4 53.5l1 4q6 30 23 61t37 48q14 13 27 13
q12 0 18 -11.5t2 -28.5q-4 -18 -20 -38.5t-51 -35.5zM61 119q21 10 31.5 24t13.5 24q3 13 -4 13q-6 0 -14 -11q-13 -16 -27 -50z" />
    <glyph glyph-name="edieresis" unicode="&#xeb;" horiz-adv-x="209" 
d="M51 94q-3 -8 -3 -14q-6 -27 3.5 -38.5t26.5 -11.5h5q21 2 44 12.5t45.5 26t42.5 33.5t35 34q5 5 11 5t5 -7q-2 -5 -7 -13q-15 -18 -37 -37t-47.5 -35t-51 -27.5t-46.5 -14.5q-5 -1 -8.5 -1h-7.5q-33 0 -43 22.5t-4 53.5l1 4q6 30 23 61t37 48q14 13 27 13q12 0 18 -11.5
t2 -28.5q-4 -18 -20 -38.5t-51 -35.5zM61 119q21 10 31.5 24t13.5 24q3 13 -4 13q-6 0 -14 -11q-13 -16 -27 -50zM115 260q2 -7 -1 -15q-1 -10 -16 -13q-14 0 -16 11q-1 3 1 14q5 16 17 16q5 0 10 -4t5 -9zM164 263q2 -2 1.5 -5t-0.5 -5q-5 -20 -20 -20q-9 0 -12 8
q0 2 -0.5 4t0.5 4q2 8 8 14t14 6q7 0 9 -6z" />
    <glyph glyph-name="igrave" unicode="&#xec;" horiz-adv-x="257" 
d="M173 0h-88v536h88v-536zM-60 687q1 2 4 2q5 0 5 -4l12 -40q3 -12 11.5 -27.5t6.5 -23.5q-3 -13 -13 -13q-9 0 -15.5 13t-10.5 30t-5.5 33t-0.5 22z" />
    <glyph glyph-name="iacute" unicode="&#xed;" horiz-adv-x="183" 
d="M86 177q0 -2 -1 -4l-2 -4q-4 -12 -10 -32.5t-11 -42.5q-5 -24 -5 -43.5t12 -19.5q17 0 38 11t42 26.5t39 32.5t30 28q4 4 11.5 7.5t12.5 3.5q4 0 3 -4q0 -5 -16 -22q-14 -13 -35.5 -32t-45.5 -36t-49 -29.5t-44 -12.5q-18 0 -26.5 11t-10.5 28.5t0.5 38t6.5 40.5
q4 15 7 27.5t6 21.5q2 8 14 14t23 6q5 0 9 -3t2 -11zM82 248q-10 0 -8 12q2 8 6 14q11 17 25.5 30t30.5 24l14 9q3 1 5.5 2t4.5 1t4 -0.5t2 -2.5q0 -6 -2 -8l-38 -34l-13 -14q-1 -2 -2.5 -4t-1.5 -4q0 -1 -0.5 -1.5t0.5 -2.5q-2 -8 -11.5 -14.5t-15.5 -6.5z" />
    <glyph glyph-name="icircumflex" unicode="&#xee;" horiz-adv-x="183" 
d="M86 177q0 -2 -1 -4l-2 -4q-4 -12 -10 -32.5t-11 -42.5q-5 -24 -5 -43.5t12 -19.5q17 0 38 11t42 26.5t39 32.5t30 28q4 4 11.5 7.5t12.5 3.5q4 0 3 -4q0 -5 -16 -22q-14 -13 -35.5 -32t-45.5 -36t-49 -29.5t-44 -12.5q-18 0 -26.5 11t-10.5 28.5t0.5 38t6.5 40.5
q4 15 7 27.5t6 21.5q2 8 14 14t23 6q5 0 9 -3t2 -11zM116 269l-15 -16q-2 -2 -4 -3.5t-4 -1.5q-5 0 -5 5q3 11 14.5 25t22.5 25l22 21q6 4 10 4q12 0 10 -9l-16 -60q1 -2 0.5 -3t1.5 -2l3.5 3.5t5.5 1.5q3 -3 2 -6q-1 -5 -6.5 -8.5t-10.5 -3.5q-7 0 -8.5 9t-0.5 19.5
t2.5 19.5l1.5 9q-1 0 -5 -5t-21 -24z" />
    <glyph glyph-name="idieresis" unicode="&#xef;" horiz-adv-x="257" 
d="M173 0h-88v536h88v-536zM16 682q2 -7 -1 -15q-1 -10 -16 -13q-14 0 -16 11q-1 3 1 14q5 16 17 16q5 0 10 -4t5 -9zM65 685q2 -2 1.5 -5t-0.5 -5q-5 -20 -20 -20q-9 0 -12 8q0 2 -0.5 4t0.5 4q2 8 8 14t14 6q7 0 9 -6z" />
    <glyph glyph-name="eth" unicode="&#xf0;" horiz-adv-x="604" 
d="M551 275q0 -138 -65 -211.5t-185 -73.5q-110 0 -178 66.5t-68 176.5q0 112 63.5 176t171.5 64q110 0 156 -58l4 2q-29 104 -124 191l-130 -75l-38 55l112 64q-42 28 -90 53l36 60q76 -36 126 -72l115 67l38 -54l-99 -57q74 -68 114.5 -164.5t40.5 -209.5zM462 251
q0 70 -43 110.5t-116 40.5q-81 0 -120 -42.5t-39 -129.5q0 -81 41 -124.5t118 -43.5q83 0 121 48.5t38 140.5z" />
    <glyph glyph-name="ntilde" unicode="&#xf1;" horiz-adv-x="618" 
d="M392 607q-21 0 -41 9t-39.5 19.5t-37 19.5t-34.5 9q-24 0 -36 -14.5t-19 -43.5h-51q6 60 34 94t76 34q22 0 42.5 -9t39.5 -19.5t37 -19.5t33 -9q23 0 35.5 14.5t19.5 43.5h50q-6 -58 -34 -93t-75 -35zM86 172q-12 -20 -20.5 -43.5t-13.5 -46.5q-2 -5 -2 -10.5t-2 -10.5
q13 17 30 36.5t36 37t37 30t32 15.5h4q13 0 17 -17t7 -37.5t10 -37.5t25 -17q14 0 34.5 11.5t52.5 40.5q10 8 16 8q7 0 5 -5q0 -5 -6 -9q-25 -26 -56 -44t-60 -18q-26 0 -45.5 20t-23.5 71q-39 -28 -66 -61.5t-42 -55.5q-5 -6 -17 -6q-9 0 -16.5 4.5t-9.5 13.5q-1 13 5 42
q5 24 14.5 51t21.5 46q6 10 13 14t13 4q8 0 13 -5t3 -11t-9 -10z" />
    <glyph glyph-name="ograve" unicode="&#xf2;" horiz-adv-x="604" 
d="M104 119q-21 9 -28 28q-11 -19 -16.5 -34.5t-7.5 -27.5q-7 -34 5 -38q11 0 25 19t22 53zM104 141q-12 9 -15 26q13 -1 15 -26zM127 131q5 -1 15 -1q14 0 28.5 3t25.5 8q1 0 2 0.5t2 0.5q4 0 4 -5q-2 -5 -8 -7q-8 -5 -26.5 -9.5t-36.5 -4.5h-8q-9 -42 -31 -63t-42 -23h-4
q-17 0 -27.5 14.5t-4.5 43.5q3 13 9 28t17 32q11 20 24.5 29t24.5 9q16 0 26.5 -15t9.5 -40zM127 687q1 2 4 2q5 0 5 -4l12 -40q3 -12 11.5 -27.5t6.5 -23.5q-3 -13 -13 -13q-9 0 -15.5 13t-10.5 30t-5.5 33t-0.5 22z" />
    <glyph glyph-name="oacute" unicode="&#xf3;" horiz-adv-x="159" 
d="M104 119q-21 9 -28 28q-11 -19 -16.5 -34.5t-7.5 -27.5q-7 -34 5 -38q11 0 25 19t22 53zM104 141q-12 9 -15 26q13 -1 15 -26zM127 131q5 -1 15 -1q14 0 28.5 3t25.5 8q1 0 2 0.5t2 0.5q4 0 4 -5q-2 -5 -8 -7q-8 -5 -26.5 -9.5t-36.5 -4.5h-8q-9 -42 -31 -63t-42 -23h-4
q-17 0 -27.5 14.5t-4.5 43.5q3 13 9 28t17 32q11 20 24.5 29t24.5 9q16 0 26.5 -15t9.5 -40zM109.739 208.67q-7.89453 0 -6.31543 9.13086q1.5791 6.08691 4.7373 10.6514q8.68359 12.9346 20.1318 22.8262q11.4473 9.8916 24.0791 18.2607l11.0527 6.84766
q2.36816 0.760742 4.34277 1.52148q1.97363 0.761719 3.55273 0.761719q1.57812 0 3.15723 -0.380859t1.5791 -1.90234q0 -4.56445 -1.5791 -6.08691l-30 -25.8691l-10.2637 -10.6523q-0.789062 -1.52148 -1.97363 -3.04297q-1.18457 -1.52246 -1.18457 -3.04395
q0 -0.760742 -0.394531 -1.14062q-0.394531 -0.380859 0.394531 -1.90234q-1.5791 -6.08691 -9.0791 -11.0332q-7.5 -4.94531 -12.2373 -4.94531z" />
    <glyph glyph-name="ocircumflex" unicode="&#xf4;" horiz-adv-x="159" 
d="M105 230l-12 -16q-1 -2 -2.5 -3.5t-3.5 -1.5q-5 0 -4 5q3 11 12 24.5t17 24.5l18 21q5 4 8 4q9 0 8 -9l-13 -60q1 -1 0.5 -2t0.5 -2l3.5 3.5t3.5 1.5q2 -1 2.5 -2.5t-0.5 -3.5q-1 -6 -5.5 -9t-7.5 -3q-6 0 -7 8.5t-0.5 19t2 19.5l1.5 9q-1 0 -4 -5t-17 -23zM104 119
q-21 9 -28 28q-11 -19 -16.5 -34.5t-7.5 -27.5q-7 -34 5 -38q11 0 25 19t22 53zM104 141q-12 9 -15 26q13 -1 15 -26zM127 131q5 -1 15 -1q14 0 28.5 3t25.5 8q1 0 2 0.5t2 0.5q4 0 4 -5q-2 -5 -8 -7q-8 -5 -26.5 -9.5t-36.5 -4.5h-8q-9 -42 -31 -63t-42 -23h-4
q-17 0 -27.5 14.5t-4.5 43.5q3 13 9 28t17 32q11 20 24.5 29t24.5 9q16 0 26.5 -15t9.5 -40z" />
    <glyph glyph-name="otilde" unicode="&#xf5;" horiz-adv-x="604" 
d="M379 607q-21 0 -41 9t-39.5 19.5t-37 19.5t-34.5 9q-24 0 -36 -14.5t-19 -43.5h-51q6 60 34 94t76 34q22 0 42.5 -9t39.5 -19.5t37 -19.5t33 -9q23 0 35.5 14.5t19.5 43.5h50q-6 -58 -34 -93t-75 -35zM104 119q-21 9 -28 28q-11 -19 -16.5 -34.5t-7.5 -27.5q-7 -34 5 -38
q11 0 25 19t22 53zM104 141q-12 9 -15 26q13 -1 15 -26zM127 131q5 -1 15 -1q14 0 28.5 3t25.5 8q1 0 2 0.5t2 0.5q4 0 4 -5q-2 -5 -8 -7q-8 -5 -26.5 -9.5t-36.5 -4.5h-8q-9 -42 -31 -63t-42 -23h-4q-17 0 -27.5 14.5t-4.5 43.5q3 13 9 28t17 32q11 20 24.5 29t24.5 9
q16 0 26.5 -15t9.5 -40z" />
    <glyph glyph-name="odieresis" unicode="&#xf6;" horiz-adv-x="159" 
d="M104 119q-21 9 -28 28q-11 -19 -16.5 -34.5t-7.5 -27.5q-7 -34 5 -38q11 0 25 19t22 53zM104 141q-12 9 -15 26q13 -1 15 -26zM127 131q5 -1 15 -1q14 0 28.5 3t25.5 8q1 0 2 0.5t2 0.5q4 0 4 -5q-2 -5 -8 -7q-8 -5 -26.5 -9.5t-36.5 -4.5h-8q-9 -42 -31 -63t-42 -23h-4
q-17 0 -27.5 14.5t-4.5 43.5q3 13 9 28t17 32q11 20 24.5 29t24.5 9q16 0 26.5 -15t9.5 -40zM82.1924 233.091q1.63867 -6.48828 -0.819336 -13.9023q-0.819336 -9.26855 -13.1084 -12.0488q-11.4697 0 -13.1084 10.1953q-0.819336 2.78027 0.819336 12.9746
q4.09668 14.8291 13.9277 14.8291q4.09668 0 8.19238 -3.70703q4.09668 -3.70703 4.09668 -8.34082zM122.337 235.871q1.63867 -1.85352 1.22852 -4.63477q-0.40918 -2.78027 -0.40918 -4.63379q-4.09668 -18.5361 -16.3857 -18.5361q-7.37305 0 -9.83105 7.41406
q0 1.85449 -0.410156 3.70801q-0.40918 1.85352 0.410156 3.70703q1.63867 7.41406 6.55371 12.9756q4.91602 5.56055 11.4697 5.56055q5.73535 0 7.37402 -5.56055z" />
    <glyph glyph-name="divide" unicode="&#xf7;" horiz-adv-x="157" 
d="M67 233q-6 2 -4 8t7 8l11 2q19 2 38.5 3t38.5 1q11 0 21 -2t19 -4q7 0 5 -8q-1 -2 -2 -2.5t-2 -2.5q-5 -3 -9 -3q-6 -1 -12 -1h-14h-87zM135 213q9 -1 11 -14l-1 -6q-2 -11 -9.5 -18t-16.5 -10q-1 0 -2.5 -0.5t-2.5 -0.5q-7 0 -8 9v19l2 5q5 1 7 4.5t4 5.5q5 7 12 7
q1 0 2 -0.5t2 -0.5zM140 277q-13 4 -9 20q0 4 2 6l4 9q3 8 12 12q1 0 2.5 0.5t2.5 0.5q4 0 8 -6q3 -4 6 -7t1 -9l-1 -4q-2 -7 -6 -11.5t-9 -8.5q-3 -2 -6.5 -2h-6.5z" />
    <glyph glyph-name="oslash" unicode="&#xf8;" horiz-adv-x="604" 
d="M551 269q0 -131 -66.5 -205t-183.5 -74q-74 0 -129 33l-40 -56l-58 39l45 62q-64 76 -64 201q0 131 65.5 204t183.5 73q74 0 131 -36l39 56l59 -38l-45 -63q63 -76 63 -196zM146 269q0 -81 24 -128l220 306q-36 25 -88 25q-156 0 -156 -203zM460 269q0 74 -23 123
l-220 -306q34 -23 86 -23q77 0 117 52.5t40 153.5z" />
    <glyph glyph-name="ugrave" unicode="&#xf9;" horiz-adv-x="618" 
d="M291 131q2 2 6.5 3.5t7.5 1.5q5 0 5 -4q-2 -6 -10 -14q-30 -32 -63 -53t-56 -21q-21 0 -29 18.5t-7 40.5q-10 -13 -21.5 -26.5t-23.5 -25t-24 -19t-23 -7.5h-4q-13 0 -20 7t-9.5 17.5t-2.5 22.5t2 22l1 4q5 22 16 43.5t22 41.5q7 11 16 11q8 0 13 -8.5t3 -16.5
q-23 -39 -35 -77q-1 -3 -2 -6.5t-2 -6.5q-2 -12 -1.5 -22t7.5 -10q11 1 26 13.5t29 29t25.5 32.5t16.5 25q4 9 15 9q8 0 14.5 -6t4.5 -17q-2 -6 -4.5 -14.5t-4.5 -16.5q-3 -16 -1.5 -27.5t15.5 -11.5q17 1 44.5 21.5t53.5 46.5zM120 687q1 2 4 2q5 0 5 -4l12 -40
q3 -12 11.5 -27.5t6.5 -23.5q-3 -13 -13 -13q-9 0 -15.5 13t-10.5 30t-5.5 33t-0.5 22z" />
    <glyph glyph-name="uacute" unicode="&#xfa;" horiz-adv-x="258" 
d="M291 131q2 2 6.5 3.5t7.5 1.5q5 0 5 -4q-2 -6 -10 -14q-30 -32 -63 -53t-56 -21q-21 0 -29 18.5t-7 40.5q-10 -13 -21.5 -26.5t-23.5 -25t-24 -19t-23 -7.5h-4q-13 0 -20 7t-9.5 17.5t-2.5 22.5t2 22l1 4q5 22 16 43.5t22 41.5q7 11 16 11q8 0 13 -8.5t3 -16.5
q-23 -39 -35 -77q-1 -3 -2 -6.5t-2 -6.5q-2 -12 -1.5 -22t7.5 -10q11 1 26 13.5t29 29t25.5 32.5t16.5 25q4 9 15 9q8 0 14.5 -6t4.5 -17q-2 -6 -4.5 -14.5t-4.5 -16.5q-3 -16 -1.5 -27.5t15.5 -11.5q17 1 44.5 21.5t53.5 46.5zM133.396 200.234
q-8.15723 0 -6.52637 9.91406q1.63184 6.6084 4.89551 11.5654q8.97363 14.0439 20.8027 24.7832t24.8818 19.8262l11.4209 7.43555q2.44727 0.826172 4.48633 1.65234q2.04004 0.826172 3.67188 0.826172q1.63086 0 3.2627 -0.413086t1.63184 -2.06543
q0 -4.95703 -1.63184 -6.60938l-31 -28.0869l-10.6055 -11.5664q-0.81543 -1.65234 -2.03906 -3.30371q-1.22461 -1.65234 -1.22461 -3.30469q0 -0.826172 -0.407227 -1.23926q-0.408203 -0.413086 0.407227 -2.06543q-1.63086 -6.6084 -9.38086 -11.9785t-12.6455 -5.37012
z" />
    <glyph glyph-name="ucircumflex" unicode="&#xfb;" horiz-adv-x="618" 
d="M175 655l-17 -23q-2 -2 -4 -4.5t-5 -2.5q-7 0 -5 7q3 16 16.5 35.5t24.5 34.5l25 30q8 6 12 6q13 0 11 -13l-18 -85q1 -2 0.5 -3.5t1.5 -3.5q2 3 4 5.5t6 2.5q2 -2 3 -4t0 -5q-2 -8 -8.5 -12.5t-11.5 -4.5q-8 0 -9.5 12.5t-0.5 27.5t3 27.5l2 12.5q-1 0 -5.5 -7
t-24.5 -33zM291 131q2 2 6.5 3.5t7.5 1.5q5 0 5 -4q-2 -6 -10 -14q-30 -32 -63 -53t-56 -21q-21 0 -29 18.5t-7 40.5q-10 -13 -21.5 -26.5t-23.5 -25t-24 -19t-23 -7.5h-4q-13 0 -20 7t-9.5 17.5t-2.5 22.5t2 22l1 4q5 22 16 43.5t22 41.5q7 11 16 11q8 0 13 -8.5t3 -16.5
q-23 -39 -35 -77q-1 -3 -2 -6.5t-2 -6.5q-2 -12 -1.5 -22t7.5 -10q11 1 26 13.5t29 29t25.5 32.5t16.5 25q4 9 15 9q8 0 14.5 -6t4.5 -17q-2 -6 -4.5 -14.5t-4.5 -16.5q-3 -16 -1.5 -27.5t15.5 -11.5q17 1 44.5 21.5t53.5 46.5z" />
    <glyph glyph-name="udieresis" unicode="&#xfc;" horiz-adv-x="258" 
d="M291 131q2 2 6.5 3.5t7.5 1.5q5 0 5 -4q-2 -6 -10 -14q-30 -32 -63 -53t-56 -21q-21 0 -29 18.5t-7 40.5q-10 -13 -21.5 -26.5t-23.5 -25t-24 -19t-23 -7.5h-4q-13 0 -20 7t-9.5 17.5t-2.5 22.5t2 22l1 4q5 22 16 43.5t22 41.5q7 11 16 11q8 0 13 -8.5t3 -16.5
q-23 -39 -35 -77q-1 -3 -2 -6.5t-2 -6.5q-2 -12 -1.5 -22t7.5 -10q11 1 26 13.5t29 29t25.5 32.5t16.5 25q4 9 15 9q8 0 14.5 -6t4.5 -17q-2 -6 -4.5 -14.5t-4.5 -16.5q-3 -16 -1.5 -27.5t15.5 -11.5q17 1 44.5 21.5t53.5 46.5zM145 238q2 -7 -1 -15q-1 -10 -16 -13
q-14 0 -16 11q-1 3 1 14q5 16 17 16q5 0 10 -4t5 -9zM194 241q2 -2 1.5 -5t-0.5 -5q-5 -20 -20 -20q-9 0 -12 8q0 2 -0.5 4t0.5 4q2 8 8 14t14 6q7 0 9 -6z" />
    <glyph glyph-name="yacute" unicode="&#xfd;" horiz-adv-x="287" 
d="M253 105q0 -5 -2 -15q20 14 41 26.5t42 23.5q4 2 9 2q10 0 8 -7q0 -6 -14 -11q-23 -14 -45.5 -28.5t-45.5 -30.5l-2 -13q-8 -38 -25.5 -94t-42 -119.5t-55.5 -129t-66 -122t-73 -98.5t-77 -59q-19 -8 -34 -8q-17 0 -28.5 9t-15.5 28q-8 31 1 75q9 43 32.5 92.5t55.5 100
t70.5 100.5t77.5 94.5t76.5 80t67.5 58.5q6 29 9 58q-22 -13 -52 -31.5t-63 -34.5q-23 -10 -40 -10q-21 0 -35 12.5t-9 36.5l1 7q3 13 8 28t12 29q8 13 16 13t14.5 -7.5t5.5 -12.5q-3 -15 -11.5 -31t-11.5 -30t0.5 -19.5t11.5 -5.5q10 0 24.5 7t31 17.5t32 21.5t27.5 20
l14 10q13 10 28 10t25 -11.5t7 -31.5zM202 29q-28 -23 -62 -58t-69.5 -77.5t-70 -90t-63.5 -96t-50.5 -95t-29.5 -86.5q-7 -32 -4 -61q1 -24 21 -24q10 0 27 9q33 19 66 60.5t64 95.5t59 115t50.5 119t38.5 108t23 81zM156 204q-10 0 -8 12q2 8 6 14q11 17 25.5 30t30.5 24
l14 9q3 1 5.5 2t4.5 1t4 -0.5t2 -2.5q0 -6 -2 -8l-38 -34l-13 -14q-1 -2 -2.5 -4t-1.5 -4q0 -1 -0.5 -1.5t0.5 -2.5q-2 -8 -11.5 -14.5t-15.5 -6.5z" />
    <glyph glyph-name="thorn" unicode="&#xfe;" horiz-adv-x="615" 
d="M174 464q33 44 73.5 63t92.5 19q104 0 162 -73t58 -204t-58 -205t-162 -74q-108 0 -167 78h-6q6 -64 6 -84v-224h-88v1000h88v-224q0 -34 -3 -72h4zM325 472q-79 0 -115 -43.5t-37 -140.5v-19q0 -109 36 -157.5t117 -48.5q143 0 143 207q0 102 -35 152t-109 50z" />
    <glyph glyph-name="ydieresis" unicode="&#xff;" horiz-adv-x="509" 
d="M253 105q0 -5 -2 -15q20 14 41 26.5t42 23.5q4 2 9 2q10 0 8 -7q0 -6 -14 -11q-23 -14 -45.5 -28.5t-45.5 -30.5l-2 -13q-8 -38 -25.5 -94t-42 -119.5t-55.5 -129t-66 -122t-73 -98.5t-77 -59q-19 -8 -34 -8q-17 0 -28.5 9t-15.5 28q-8 31 1 75q9 43 32.5 92.5t55.5 100
t70.5 100.5t77.5 94.5t76.5 80t67.5 58.5q6 29 9 58q-22 -13 -52 -31.5t-63 -34.5q-23 -10 -40 -10q-21 0 -35 12.5t-9 36.5l1 7q3 13 8 28t12 29q8 13 16 13t14.5 -7.5t5.5 -12.5q-3 -15 -11.5 -31t-11.5 -30t0.5 -19.5t11.5 -5.5q10 0 24.5 7t31 17.5t32 21.5t27.5 20
l14 10q13 10 28 10t25 -11.5t7 -31.5zM202 29q-28 -23 -62 -58t-69.5 -77.5t-70 -90t-63.5 -96t-50.5 -95t-29.5 -86.5q-7 -32 -4 -61q1 -24 21 -24q10 0 27 9q33 19 66 60.5t64 95.5t59 115t50.5 119t38.5 108t23 81zM141 682q2 -7 -1 -15q-1 -10 -16 -13q-14 0 -16 11
q-1 3 1 14q5 16 17 16q5 0 10 -4t5 -9zM190 685q2 -2 1.5 -5t-0.5 -5q-5 -20 -20 -20q-9 0 -12 8q0 2 -0.5 4t0.5 4q2 8 8 14t14 6q7 0 9 -6z" />
    <glyph glyph-name="Amacron" unicode="&#x100;" horiz-adv-x="639" 
d="M178 842h297v-71h-297v71zM336 164q-2 -10 -4.5 -19.5t-4.5 -19.5q-9 -45 -15 -89t-7 -89q1 -16 3 -31.5t5 -31.5q-1 -3 1 -5q0 -2 0.5 -4.5t-0.5 -4.5q-2 -6 -7 -9q-6 -3 -9 -3q-5 0 -11 6q-19 17 -19 42q-2 21 -2.5 41.5t1.5 40.5q3 36 8 72t11 72q5 29 10 57t12 57
q1 11 -9 11q-50 -5 -98 -12.5t-96 -17.5q-15 -3 -18 -16q-8 -43 -9.5 -83.5t3.5 -79.5l5 -21q5 -13 19 -13q4 0 7.5 -2t2.5 -7q-2 -6 -5.5 -7.5t-6.5 -1.5h-5q-12 2 -18 8t-8 16q-10 22 -13.5 49t-3.5 53.5t2.5 50.5t4.5 39l1 6h-2q1 0 -7 -2q-25 -8 -50 -14.5t-49 -20.5
q-1 -1 -5 -1q-6 0 -4 5q0 2 3 6.5t8 6.5l34 16t35 16q7 3 19 6.5t20 5.5q18 87 68.5 188.5t131.5 207.5q43 49 94 91q13 10 28 19t30 16q19 8 34 8q28 0 35 -33q1 -6 2 -12.5t-1 -14.5q-3 -14 -5.5 -27t-5.5 -27q-11 -54 -29 -106t-35 -104q-1 -3 -2 -5.5t-2 -5.5l-41 -136
v-4q-3 -9 11 -9h32q23 0 46.5 -1.5t45.5 -6.5q13 -2 24 -6q3 -2 4 -4.5t3 -4.5q-4 -2 -7 -4t-6 -2l-58 4q-24 0 -48.5 -0.5t-47.5 -0.5q-7 0 -8.5 -3t-2.5 -8zM457 692q-2 5 -1.5 8.5t1.5 8.5l1 20q0 19 -14 19q-5 0 -17 -5q-27 -14 -50 -33q-34 -28 -64 -60t-56 -67
q-18 -24 -42 -61.5t-47 -81.5t-42.5 -93t-29.5 -95q2 1 3 0.5t9 1.5q28 5 56 10.5t56 10.5q11 3 22.5 4.5t22.5 3.5h24q10 0 19.5 2t11.5 11q3 12 6.5 24.5t8.5 23.5z" />
    <glyph glyph-name="amacron" unicode="&#x101;" horiz-adv-x="561" 
d="M143 677h297v-71h-297v71zM308 124q4 3 11 6t12 3t4 -4q-1 -3 -5 -8.5t-14 -13.5q-11 -10 -26.5 -21.5t-32.5 -22t-34 -17.5t-31 -7q-23 0 -30 18.5t-1 47.5q3 17 10 33q-10 -10 -27.5 -26.5t-37.5 -32.5t-40 -27.5t-34 -11.5q-17 2 -21 12t-1 26q4 17 15 37.5t25.5 38
t31 29t31.5 11.5q8 0 16 -5q13 -8 16.5 -19t1.5 -19q-4 -14 -10 -14t-6 11q-1 20 -13 20q-9 0 -21 -11.5t-23.5 -27t-20.5 -31.5t-11 -25q-1 -6 1 -8q1 -1 4 -1q11 0 31.5 15t41.5 34.5t39 38t24 25.5q7 9 16 9t14 -9t3 -17q-8 -17 -13.5 -32t-7.5 -27q-3 -15 -0.5 -24.5
t15.5 -10.5q25 2 50 20t44 35z" />
    <glyph glyph-name="Abreve" unicode="&#x102;" horiz-adv-x="368" 
d="M519 854q2 -9 0 -17q-3 -16 -21 -28q-11 -10 -33 -10h-9q-15 1 -19 7.5t-7 14.5q-1 5 -2.5 10t1.5 12q2 4 10 11.5t13 7.5q3 0 3 -7q-3 -7 -2 -16t1 -12q2 -7 11 -10q7 0 18 6q17 10 19 22q2 3 1 4t-1 4q2 5 6 11q8 -6 11 -10zM336 164q-2 -10 -4.5 -19.5t-4.5 -19.5
q-9 -45 -15 -89t-7 -89q1 -16 3 -31.5t5 -31.5q-1 -3 1 -5q0 -2 0.5 -4.5t-0.5 -4.5q-2 -6 -7 -9q-6 -3 -9 -3q-5 0 -11 6q-19 17 -19 42q-2 21 -2.5 41.5t1.5 40.5q3 36 8 72t11 72q5 29 10 57t12 57q1 11 -9 11q-50 -5 -98 -12.5t-96 -17.5q-15 -3 -18 -16
q-8 -43 -9.5 -83.5t3.5 -79.5l5 -21q5 -13 19 -13q4 0 7.5 -2t2.5 -7q-2 -6 -5.5 -7.5t-6.5 -1.5h-5q-12 2 -18 8t-8 16q-10 22 -13.5 49t-3.5 53.5t2.5 50.5t4.5 39l1 6h-2q1 0 -7 -2q-25 -8 -50 -14.5t-49 -20.5q-1 -1 -5 -1q-6 0 -4 5q0 2 3 6.5t8 6.5l34 16t35 16
q7 3 19 6.5t20 5.5q18 87 68.5 188.5t131.5 207.5q43 49 94 91q13 10 28 19t30 16q19 8 34 8q28 0 35 -33q1 -6 2 -12.5t-1 -14.5q-3 -14 -5.5 -27t-5.5 -27q-11 -54 -29 -106t-35 -104q-1 -3 -2 -5.5t-2 -5.5l-41 -136v-4q-3 -9 11 -9h32q23 0 46.5 -1.5t45.5 -6.5
q13 -2 24 -6q3 -2 4 -4.5t3 -4.5q-4 -2 -7 -4t-6 -2l-58 4q-24 0 -48.5 -0.5t-47.5 -0.5q-7 0 -8.5 -3t-2.5 -8zM457 692q-2 5 -1.5 8.5t1.5 8.5l1 20q0 19 -14 19q-5 0 -17 -5q-27 -14 -50 -33q-34 -28 -64 -60t-56 -67q-18 -24 -42 -61.5t-47 -81.5t-42.5 -93t-29.5 -95
q2 1 3 0.5t9 1.5q28 5 56 10.5t56 10.5q11 3 22.5 4.5t22.5 3.5h24q10 0 19.5 2t11.5 11q3 12 6.5 24.5t8.5 23.5z" />
    <glyph glyph-name="abreve" unicode="&#x103;" horiz-adv-x="272" 
d="M189 265q1 -6 0 -12q-2 -11 -15 -20q-8 -7 -24 -7h-6q-11 1 -14 5.5t-5 10.5q-1 3 -2 6.5t1 8.5q2 3 7.5 8.5t9.5 5.5q2 0 2 -5q-2 -5 -1.5 -11.5t0.5 -8.5q2 -5 8 -7q5 0 13 4q12 7 14 16q1 2 0.5 2.5t-0.5 2.5q1 4 4 8q6 -4 8 -7zM308 124q4 3 11 6t12 3t4 -4
q-1 -3 -5 -8.5t-14 -13.5q-11 -10 -26.5 -21.5t-32.5 -22t-34 -17.5t-31 -7q-23 0 -30 18.5t-1 47.5q3 17 10 33q-10 -10 -27.5 -26.5t-37.5 -32.5t-40 -27.5t-34 -11.5q-17 2 -21 12t-1 26q4 17 15 37.5t25.5 38t31 29t31.5 11.5q8 0 16 -5q13 -8 16.5 -19t1.5 -19
q-4 -14 -10 -14t-6 11q-1 20 -13 20q-9 0 -21 -11.5t-23.5 -27t-20.5 -31.5t-11 -25q-1 -6 1 -8q1 -1 4 -1q11 0 31.5 15t41.5 34.5t39 38t24 25.5q7 9 16 9t14 -9t3 -17q-8 -17 -13.5 -32t-7.5 -27q-3 -15 -0.5 -24.5t15.5 -10.5q25 2 50 20t44 35z" />
    <glyph glyph-name="Aogonek" unicode="&#x104;" horiz-adv-x="368" 
d="M623 -436q-4 -28 -35 -41q-9 -6 -21 -6q-13 0 -23 10q-13 13 -9 35q1 7 4.5 12.5t7.5 11.5q9 12 25 25q11 8 12 15q0 9 -2 13q-3 8 -6.5 13t-5.5 12q-2 3 -0.5 8t1.5 9q3 0 7 1t6 1q4 0 6 -2q10 -8 15 -22.5t2 -30.5q-4 -17 -17 -32q-6 -4 -10 -9t-8 -11q-5 -9 -6 -13
q-2 -7 4 -13q5 -3 9 -3q11 0 19 9q4 6 7 11.5t7 11.5q2 1 7 1t7 -3zM336 164q-2 -10 -4.5 -19.5t-4.5 -19.5q-9 -45 -15 -89t-7 -89q1 -16 3 -31.5t5 -31.5q-1 -3 1 -5q0 -2 0.5 -4.5t-0.5 -4.5q-2 -6 -7 -9q-6 -3 -9 -3q-5 0 -11 6q-19 17 -19 42q-2 21 -2.5 41.5t1.5 40.5
q3 36 8 72t11 72q5 29 10 57t12 57q1 11 -9 11q-50 -5 -98 -12.5t-96 -17.5q-15 -3 -18 -16q-8 -43 -9.5 -83.5t3.5 -79.5l5 -21q5 -13 19 -13q4 0 7.5 -2t2.5 -7q-2 -6 -5.5 -7.5t-6.5 -1.5h-5q-12 2 -18 8t-8 16q-10 22 -13.5 49t-3.5 53.5t2.5 50.5t4.5 39l1 6h-2
q1 0 -7 -2q-25 -8 -50 -14.5t-49 -20.5q-1 -1 -5 -1q-6 0 -4 5q0 2 3 6.5t8 6.5l34 16t35 16q7 3 19 6.5t20 5.5q18 87 68.5 188.5t131.5 207.5q43 49 94 91q13 10 28 19t30 16q19 8 34 8q28 0 35 -33q1 -6 2 -12.5t-1 -14.5q-3 -14 -5.5 -27t-5.5 -27q-11 -54 -29 -106
t-35 -104q-1 -3 -2 -5.5t-2 -5.5l-41 -136v-4q-3 -9 11 -9h32q23 0 46.5 -1.5t45.5 -6.5q13 -2 24 -6q3 -2 4 -4.5t3 -4.5q-4 -2 -7 -4t-6 -2l-58 4q-24 0 -48.5 -0.5t-47.5 -0.5q-7 0 -8.5 -3t-2.5 -8zM457 692q-2 5 -1.5 8.5t1.5 8.5l1 20q0 19 -14 19q-5 0 -17 -5
q-27 -14 -50 -33q-34 -28 -64 -60t-56 -67q-18 -24 -42 -61.5t-47 -81.5t-42.5 -93t-29.5 -95q2 1 3 0.5t9 1.5q28 5 56 10.5t56 10.5q11 3 22.5 4.5t22.5 3.5h24q10 0 19.5 2t11.5 11q3 12 6.5 24.5t8.5 23.5z" />
    <glyph glyph-name="aogonek" unicode="&#x105;" horiz-adv-x="272" 
d="M208 -17q-3 -20 -26 -29q-7 -4 -16 -4q-10 0 -17 7q-10 9 -7 24q1 5 3.5 9t5.5 8q7 8 19 17q8 6 9 11q0 6 -2 9q-2 5 -4.5 8.5t-4.5 8.5q-1 2 0 5.5t1 6.5q2 0 5 0.5t5 0.5q3 0 4 -1q8 -6 11.5 -16t1.5 -21q-3 -12 -13 -22q-4 -3 -7 -6.5t-6 -7.5q-4 -6 -5 -9q-1 -5 3 -9
q4 -2 7 -2q8 0 14 6q3 4 5.5 8t5.5 8q1 1 5 1t5 -2zM308 124q4 3 11 6t12 3t4 -4q-1 -3 -5 -8.5t-14 -13.5q-11 -10 -26.5 -21.5t-32.5 -22t-34 -17.5t-31 -7q-23 0 -30 18.5t-1 47.5q3 17 10 33q-10 -10 -27.5 -26.5t-37.5 -32.5t-40 -27.5t-34 -11.5q-17 2 -21 12t-1 26
q4 17 15 37.5t25.5 38t31 29t31.5 11.5q8 0 16 -5q13 -8 16.5 -19t1.5 -19q-4 -14 -10 -14t-6 11q-1 20 -13 20q-9 0 -21 -11.5t-23.5 -27t-20.5 -31.5t-11 -25q-1 -6 1 -8q1 -1 4 -1q11 0 31.5 15t41.5 34.5t39 38t24 25.5q7 9 16 9t14 -9t3 -17q-8 -17 -13.5 -32t-7.5 -27
q-3 -15 -0.5 -24.5t15.5 -10.5q25 2 50 20t44 35z" />
    <glyph glyph-name="Cacute" unicode="&#x106;" horiz-adv-x="347" 
d="M9 47q13 54 31 103.5t39 97.5q79 173 196 332q24 34 52 65.5t60 59.5q14 11 27.5 20.5t30.5 15.5q11 4 22 4q31 0 37 -34q3 -24 -3 -50l-2 -10t-3 -10q-14 -45 -35 -88t-45 -86q-4 -5 -7.5 -10.5t-8.5 -10.5q-2 -3 -5.5 -4t-5.5 -3q-1 2 1 8v4q10 20 20 39t20 39
q14 30 27 60.5t20 62.5q1 5 1 8.5t2 8.5q2 20 -1 36q-3 15 -16 15q-7 0 -14 -3q-17 -6 -30.5 -16.5t-27.5 -23.5q-46 -45 -83 -96.5t-70 -105.5q-45 -74 -82 -148.5t-65 -152.5q-9 -27 -16.5 -54.5t-15.5 -54.5q-2 -6 -3 -12.5t-3 -12.5q-8 -38 -5 -70q3 -22 12 -40
q9 -12 22 -17.5t27 -5.5q31 0 69.5 21t76.5 52.5t71.5 69.5t56.5 72q12 7 16 7t3 -7q0 -3 -4 -11q-17 -29 -50.5 -70t-75.5 -79t-88 -65t-88 -27q-33 0 -59 20q-18 14 -27 40q-7 19 -7.5 39.5t1.5 41.5q2 11 3.5 20.5t1.5 15.5zM502.938 763.085q-11.9736 0 -9.5791 13.5654
q2.39453 9.04297 7.18457 15.8262q13.1709 19.2168 30.5332 33.9131q17.3623 14.6953 36.5205 27.1299l16.7637 10.1738q3.5918 1.13086 6.58496 2.26074q2.99414 1.13086 5.38867 1.13086t4.78906 -0.56543q2.39551 -0.56543 2.39551 -2.82617
q0 -6.78223 -2.39551 -9.04297l-45.5 -38.4355l-15.5664 -15.8252q-1.19727 -2.26074 -2.99316 -4.52246q-1.7959 -2.26074 -1.7959 -4.52148q0 -1.12988 -0.599609 -1.69531q-0.598633 -0.56543 0.599609 -2.82617q-2.39551 -9.04395 -13.7705 -16.3916t-18.5596 -7.34766z
" />
    <glyph glyph-name="cacute" unicode="&#x107;" horiz-adv-x="212" 
d="M253 134q4 5 8 5q3 0 5.5 -3t1.5 -8q-2 -4 -4 -6q-15 -19 -35.5 -38t-43.5 -35t-47.5 -27t-46.5 -14q-3 0 -6 -0.5t-6 -0.5q-42 2 -55 26.5t-5 57.5q4 18 13 37.5t22.5 36t30.5 27t35 10.5q17 0 26 -11.5t7 -28.5q-2 -8 -7.5 -18.5t-12.5 -10.5q-8 0 -11 7t-1 15q1 3 3 7
t2 6q2 5 -1.5 8t-8.5 3q-11 0 -20.5 -7t-18 -18t-14.5 -24.5t-9 -26.5q-5 -27 2.5 -49.5t34.5 -22.5q20 0 43 10t45 25.5t41.5 33.5t32.5 34zM152 233q-10 0 -8 12q2 8 6 14q11 17 25.5 30t30.5 24l14 9q3 1 5.5 2t4.5 1t4 -0.5t2 -2.5q0 -6 -2 -8l-38 -34l-13 -14
q-1 -2 -2.5 -4t-1.5 -4q0 -1 -0.5 -1.5t0.5 -2.5q-2 -8 -11.5 -14.5t-15.5 -6.5z" />
    <glyph glyph-name="Ccircumflex" unicode="&#x108;" horiz-adv-x="631" 
d="M258 820l-17 -23q-2 -2 -4 -4.5t-5 -2.5q-7 0 -5 7q3 16 16.5 35.5t24.5 34.5l25 30q8 6 12 6q13 0 11 -13l-18 -85q1 -2 0.5 -3.5t1.5 -3.5q2 3 4 5.5t6 2.5q2 -2 3 -4t0 -5q-2 -8 -8.5 -12.5t-11.5 -4.5q-8 0 -9.5 12.5t-0.5 27.5t3 27.5l2 12.5q-1 0 -5.5 -7
t-24.5 -33zM9 47q13 54 31 103.5t39 97.5q79 173 196 332q24 34 52 65.5t60 59.5q14 11 27.5 20.5t30.5 15.5q11 4 22 4q31 0 37 -34q3 -24 -3 -50l-2 -10t-3 -10q-14 -45 -35 -88t-45 -86q-4 -5 -7.5 -10.5t-8.5 -10.5q-2 -3 -5.5 -4t-5.5 -3q-1 2 1 8v4q10 20 20 39t20 39
q14 30 27 60.5t20 62.5q1 5 1 8.5t2 8.5q2 20 -1 36q-3 15 -16 15q-7 0 -14 -3q-17 -6 -30.5 -16.5t-27.5 -23.5q-46 -45 -83 -96.5t-70 -105.5q-45 -74 -82 -148.5t-65 -152.5q-9 -27 -16.5 -54.5t-15.5 -54.5q-2 -6 -3 -12.5t-3 -12.5q-8 -38 -5 -70q3 -22 12 -40
q9 -12 22 -17.5t27 -5.5q31 0 69.5 21t76.5 52.5t71.5 69.5t56.5 72q12 7 16 7t3 -7q0 -3 -4 -11q-17 -29 -50.5 -70t-75.5 -79t-88 -65t-88 -27q-33 0 -59 20q-18 14 -27 40q-7 19 -7.5 39.5t1.5 41.5q2 11 3.5 20.5t1.5 15.5z" />
    <glyph glyph-name="ccircumflex" unicode="&#x109;" horiz-adv-x="479" 
d="M156 655l-17 -23q-2 -2 -4 -4.5t-5 -2.5q-7 0 -5 7q3 16 16.5 35.5t24.5 34.5l25 30q8 6 12 6q13 0 11 -13l-18 -85q1 -2 0.5 -3.5t1.5 -3.5q2 3 4 5.5t6 2.5q2 -2 3 -4t0 -5q-2 -8 -8.5 -12.5t-11.5 -4.5q-8 0 -9.5 12.5t-0.5 27.5t3 27.5l2 12.5q-1 0 -5.5 -7
t-24.5 -33zM253 134q4 5 8 5q3 0 5.5 -3t1.5 -8q-2 -4 -4 -6q-15 -19 -35.5 -38t-43.5 -35t-47.5 -27t-46.5 -14q-3 0 -6 -0.5t-6 -0.5q-42 2 -55 26.5t-5 57.5q4 18 13 37.5t22.5 36t30.5 27t35 10.5q17 0 26 -11.5t7 -28.5q-2 -8 -7.5 -18.5t-12.5 -10.5q-8 0 -11 7t-1 15
q1 3 3 7t2 6q2 5 -1.5 8t-8.5 3q-11 0 -20.5 -7t-18 -18t-14.5 -24.5t-9 -26.5q-5 -27 2.5 -49.5t34.5 -22.5q20 0 43 10t45 25.5t41.5 33.5t32.5 34z" />
    <glyph glyph-name="Cdotaccent" unicode="&#x10a;" horiz-adv-x="631" 
d="M435 847q2 -7 -1 -15q-1 -10 -16 -13q-14 0 -16 11q-1 3 1 14q5 16 17 16q5 0 10 -4t5 -9zM9 47q13 54 31 103.5t39 97.5q79 173 196 332q24 34 52 65.5t60 59.5q14 11 27.5 20.5t30.5 15.5q11 4 22 4q31 0 37 -34q3 -24 -3 -50l-2 -10t-3 -10q-14 -45 -35 -88t-45 -86
q-4 -5 -7.5 -10.5t-8.5 -10.5q-2 -3 -5.5 -4t-5.5 -3q-1 2 1 8v4q10 20 20 39t20 39q14 30 27 60.5t20 62.5q1 5 1 8.5t2 8.5q2 20 -1 36q-3 15 -16 15q-7 0 -14 -3q-17 -6 -30.5 -16.5t-27.5 -23.5q-46 -45 -83 -96.5t-70 -105.5q-45 -74 -82 -148.5t-65 -152.5
q-9 -27 -16.5 -54.5t-15.5 -54.5q-2 -6 -3 -12.5t-3 -12.5q-8 -38 -5 -70q3 -22 12 -40q9 -12 22 -17.5t27 -5.5q31 0 69.5 21t76.5 52.5t71.5 69.5t56.5 72q12 7 16 7t3 -7q0 -3 -4 -11q-17 -29 -50.5 -70t-75.5 -79t-88 -65t-88 -27q-33 0 -59 20q-18 14 -27 40
q-7 19 -7.5 39.5t1.5 41.5q2 11 3.5 20.5t1.5 15.5z" />
    <glyph glyph-name="cdotaccent" unicode="&#x10b;" horiz-adv-x="479" 
d="M339 682q2 -7 -1 -15q-1 -10 -16 -13q-14 0 -16 11q-1 3 1 14q5 16 17 16q5 0 10 -4t5 -9zM253 134q4 5 8 5q3 0 5.5 -3t1.5 -8q-2 -4 -4 -6q-15 -19 -35.5 -38t-43.5 -35t-47.5 -27t-46.5 -14q-3 0 -6 -0.5t-6 -0.5q-42 2 -55 26.5t-5 57.5q4 18 13 37.5t22.5 36
t30.5 27t35 10.5q17 0 26 -11.5t7 -28.5q-2 -8 -7.5 -18.5t-12.5 -10.5q-8 0 -11 7t-1 15q1 3 3 7t2 6q2 5 -1.5 8t-8.5 3q-11 0 -20.5 -7t-18 -18t-14.5 -24.5t-9 -26.5q-5 -27 2.5 -49.5t34.5 -22.5q20 0 43 10t45 25.5t41.5 33.5t32.5 34z" />
    <glyph glyph-name="Ccaron" unicode="&#x10c;" horiz-adv-x="347" 
d="M506 867l-4.5 -25.5t-2.5 -13.5t0 -6q8 9 15 19t15 19q5 6 11.5 12t12.5 11q6 3 10 3q7 0 8 -4q2 -7 1 -12q0 -3 -2 -6t-4 -5q-4 -2 -6 -2q-3 1 -3 5l1 5l-6 -4l-31 -44q-6 -8 -11.5 -16.5t-11.5 -16.5t-15 -8q-7 1 -9 12q1 2 0.5 3t0.5 3q1 8 1 14.5t2 14.5q0 5 1 11
t3 11q4 24 15 48q2 3 3 5.5t6 2.5t5 -3t1 -6l-6 -27v0zM9 47q13 54 31 103.5t39 97.5q79 173 196 332q24 34 52 65.5t60 59.5q14 11 27.5 20.5t30.5 15.5q11 4 22 4q31 0 37 -34q3 -24 -3 -50l-2 -10t-3 -10q-14 -45 -35 -88t-45 -86q-4 -5 -7.5 -10.5t-8.5 -10.5
q-2 -3 -5.5 -4t-5.5 -3q-1 2 1 8v4q10 20 20 39t20 39q14 30 27 60.5t20 62.5q1 5 1 8.5t2 8.5q2 20 -1 36q-3 15 -16 15q-7 0 -14 -3q-17 -6 -30.5 -16.5t-27.5 -23.5q-46 -45 -83 -96.5t-70 -105.5q-45 -74 -82 -148.5t-65 -152.5q-9 -27 -16.5 -54.5t-15.5 -54.5
q-2 -6 -3 -12.5t-3 -12.5q-8 -38 -5 -70q3 -22 12 -40q9 -12 22 -17.5t27 -5.5q31 0 69.5 21t76.5 52.5t71.5 69.5t56.5 72q12 7 16 7t3 -7q0 -3 -4 -11q-17 -29 -50.5 -70t-75.5 -79t-88 -65t-88 -27q-33 0 -59 20q-18 14 -27 40q-7 19 -7.5 39.5t1.5 41.5q2 11 3.5 20.5
t1.5 15.5z" />
    <glyph glyph-name="ccaron" unicode="&#x10d;" horiz-adv-x="212" 
d="M146 301q-3 -13 -4 -20t-2 -11t0 -5q7 7 12.5 15t11.5 16q4 4 9.5 9t9.5 9q5 2 9 2q5 0 6 -3q2 -5 1 -9q0 -3 -1.5 -5.5t-3.5 -3.5q-3 -2 -5 -2q-2 1 -2 4v4l-4 -3l-25 -35q-5 -7 -9.5 -13.5t-9.5 -13.5q-4 -6 -12 -6q-5 1 -7 10q1 1 0.5 2t0.5 2q1 7 1 12t1 12
q0 4 1 8.5t3 8.5q3 19 12 39l2 4t5 2t4 -2.5t1 -4.5l-5 -22v0zM253 134q4 5 8 5q3 0 5.5 -3t1.5 -8q-2 -4 -4 -6q-15 -19 -35.5 -38t-43.5 -35t-47.5 -27t-46.5 -14q-3 0 -6 -0.5t-6 -0.5q-42 2 -55 26.5t-5 57.5q4 18 13 37.5t22.5 36t30.5 27t35 10.5q17 0 26 -11.5
t7 -28.5q-2 -8 -7.5 -18.5t-12.5 -10.5q-8 0 -11 7t-1 15q1 3 3 7t2 6q2 5 -1.5 8t-8.5 3q-11 0 -20.5 -7t-18 -18t-14.5 -24.5t-9 -26.5q-5 -27 2.5 -49.5t34.5 -22.5q20 0 43 10t45 25.5t41.5 33.5t32.5 34z" />
    <glyph glyph-name="Dcaron" unicode="&#x10e;" horiz-adv-x="301" 
d="M373 883q-4 -20 -5.5 -30t-3.5 -15q-1 -6 0 -7q10 10 18 21.5t17 22.5q6 7 13.5 14t14.5 12q7 4 12 4q8 0 9 -5q2 -8 1 -14q0 -3 -2 -6.5t-5 -5.5q-4 -3 -7 -3q-3 1 -3 6l1 6l-7 -5l-36 -51q-7 -9 -13.5 -19t-13.5 -19t-17 -9q-8 1 -11 14q1 2 0.5 3t0.5 3q2 10 2 17.5
t2 16.5q0 6 1 13t4 13q4 27 17 55l3.5 7t7.5 3q5 0 5 -3.5t2 -7.5l-7 -31v0zM292 169q6 3 9 3q4 0 4 -7q-2 -5 -6.5 -11t-10.5 -9q-14 -8 -29 -17t-29 -19q-7 -3 -10 -10q-28 -41 -58.5 -79.5t-66.5 -73.5q-16 -16 -32.5 -30t-35.5 -24q-15 -8 -30 -9q-11 0 -16.5 7.5
t-3.5 18.5q3 13 10 23t15 21q20 25 44 46.5t50 41.5l30 22t31 22q5 4 8 8t6 9q29 43 56 87t50 89q29 57 57.5 114.5t41.5 117.5q6 13 9 27q6 30 7 59.5t-5 58.5q-5 21 -16.5 36t-34.5 19q-2 0 -4 0.5t-4 0.5q-13 0 -26.5 -4.5t-26.5 -10.5q-25 -12 -47.5 -28.5t-42.5 -35.5
q-11 -9 -14 -23q-6 -28 -11.5 -55.5t-11.5 -55.5l-24 -111q-3 -14 -6.5 -28.5t-7.5 -29.5l-3 -15q-8 -42 -15.5 -83.5t-15.5 -83.5q-5 -23 -8 -45t-8 -45q-3 -12 -10 -24q-2 -3 -7 -6t-8 -3q-3 1 -6 5t-3 7q0 15 1.5 30t3.5 31q5 44 10.5 87t12.5 87q5 24 9.5 48t9.5 48
q3 17 7 33.5t8 33.5q7 31 15 61.5t17 62.5q1 2 1.5 4t1.5 4q-29 -35 -51.5 -70t-42.5 -73l7 -4q-5 -7 -10.5 -13.5t-11.5 -13.5q-2 -2 -6 -2q-5 0 -5 6v13q1 2 1 4t2 4q12 32 28.5 62.5t36.5 59.5q15 21 31.5 41.5t32.5 40.5q8 11 11 21.5t7 21.5q2 6 4.5 13t5.5 15l1 6
q4 13 14 13q6 0 7 -3.5t2 -8.5q-1 -6 -0.5 -11.5t0.5 -13.5l14 10q21 17 42.5 30t46.5 22q24 9 46 9q52 0 73 -50q13 -27 15 -57t0 -62q-3 -32 -9 -62q-8 -39 -21.5 -77.5t-30.5 -76.5q-23 -52 -49.5 -101.5t-55.5 -98.5q-2 -3 -3.5 -6.5t-3.5 -6.5q11 5 21 10.5t20 11.5z
M16 -74q28 21 51 45.5t43 51.5q-28 -21 -52.5 -44.5t-41.5 -52.5z" />
    <glyph glyph-name="dcaron" unicode="&#x10f;" horiz-adv-x="297" 
d="M226 -95q8 -2 10 -6t1 -11q-2 -6 -7 -11.5t-15 -7.5q-6 0 -12 2.5t-8 7.5q-20 36 -21.5 102.5t9.5 148.5q-38 -52 -75.5 -83t-72.5 -31q-21 0 -28 14t-3 35q4 20 17 43t32 42.5t42 32.5t48 13q11 0 18 -8.5t5 -21.5q-2 -9 -7 -9l-4 2q-6 6 -15 6q-17 0 -34.5 -12.5
t-32.5 -30t-25.5 -36.5t-13.5 -31q-3 -14 6 -14q33 0 72 37.5t78 97.5l6 36t7 36q13 60 29.5 119.5t35.5 114t39.5 101t41.5 80.5q5 9 12 19t15.5 18.5t17.5 14t19 5.5q11 0 10 -11.5t-3 -25.5q-1 -6 -2 -13t-3 -14l-3 -12q-9 -44 -26.5 -98t-40.5 -112t-51.5 -116
t-58.5 -109l-5 -8q-9 -48 -14.5 -92.5t-7 -83t2 -69t12.5 -49.5q2 -2 3 -2zM370 654q-16 -29 -33 -71.5t-33.5 -93.5t-32 -108t-28.5 -115q26 47 49 98t42.5 100.5t34 95.5t22.5 84q5 20 6 37q1 4 1.5 7t0.5 7q-8 -8 -16 -19t-13 -22zM467 704q10 0 15.5 -8.5t2.5 -21.5
q-2 -10 -8.5 -19.5t-14.5 -19.5l-32 -35l-5 -3q-3 -3 -8 -3q-3 0 -4 1q-4 3 -4 9l2 4l11 17q8 11 15 22l14 22q5 5 5 9q1 4 -2 9q0 2 -0.5 3t-0.5 3q2 9 14 11z" />
    <glyph glyph-name="Dcroat" unicode="&#x110;" horiz-adv-x="301" 
d="M292 169q6 3 9 3q4 0 4 -7q-2 -5 -6.5 -11t-10.5 -9q-14 -8 -29 -17t-29 -19q-7 -3 -10 -10q-28 -41 -58.5 -79.5t-66.5 -73.5q-16 -16 -32.5 -30t-35.5 -24q-15 -8 -30 -9q-11 0 -16.5 7.5t-3.5 18.5q3 13 10 23t15 21q20 25 44 46.5t50 41.5l30 22t31 22q5 4 8 8t6 9
q29 43 56 87t50 89q29 57 57.5 114.5t41.5 117.5q6 13 9 27q6 30 7 59.5t-5 58.5q-5 21 -16.5 36t-34.5 19q-2 0 -4 0.5t-4 0.5q-13 0 -26.5 -4.5t-26.5 -10.5q-25 -12 -47.5 -28.5t-42.5 -35.5q-11 -9 -14 -23q-6 -28 -11.5 -55.5t-11.5 -55.5l-24 -111q-3 -14 -6.5 -28.5
t-7.5 -29.5l-3 -15q-8 -42 -15.5 -83.5t-15.5 -83.5q-5 -23 -8 -45t-8 -45q-3 -12 -10 -24q-2 -3 -7 -6t-8 -3q-3 1 -6 5t-3 7q0 15 1.5 30t3.5 31q5 44 10.5 87t12.5 87q5 24 9.5 48t9.5 48q3 17 7 33.5t8 33.5q7 31 15 61.5t17 62.5q1 2 1.5 4t1.5 4q-29 -35 -51.5 -70
t-42.5 -73l7 -4q-5 -7 -10.5 -13.5t-11.5 -13.5q-2 -2 -6 -2q-5 0 -5 6v13q1 2 1 4t2 4q12 32 28.5 62.5t36.5 59.5q15 21 31.5 41.5t32.5 40.5q8 11 11 21.5t7 21.5q2 6 4.5 13t5.5 15l1 6q4 13 14 13q6 0 7 -3.5t2 -8.5q-1 -6 -0.5 -11.5t0.5 -13.5l14 10q21 17 42.5 30
t46.5 22q24 9 46 9q52 0 73 -50q13 -27 15 -57t0 -62q-3 -32 -9 -62q-8 -39 -21.5 -77.5t-30.5 -76.5q-23 -52 -49.5 -101.5t-55.5 -98.5q-2 -3 -3.5 -6.5t-3.5 -6.5q11 5 21 10.5t20 11.5zM16 -74q28 21 51 45.5t43 51.5q-28 -21 -52.5 -44.5t-41.5 -52.5z" />
    <glyph glyph-name="dcroat" unicode="&#x111;" horiz-adv-x="248" 
d="M226 -95q8 -2 10 -6t1 -11q-2 -6 -7 -11.5t-15 -7.5q-6 0 -12 2.5t-8 7.5q-20 36 -21.5 102.5t9.5 148.5q-38 -52 -75.5 -83t-72.5 -31q-21 0 -28 14t-3 35q4 20 17 43t32 42.5t42 32.5t48 13q11 0 18 -8.5t5 -21.5q-2 -9 -7 -9l-4 2q-6 6 -15 6q-17 0 -34.5 -12.5
t-32.5 -30t-25.5 -36.5t-13.5 -31q-3 -14 6 -14q33 0 72 37.5t78 97.5l6 36t7 36q13 60 29.5 119.5t35.5 114t39.5 101t41.5 80.5q5 9 12 19t15.5 18.5t17.5 14t19 5.5q11 0 10 -11.5t-3 -25.5q-1 -6 -2 -13t-3 -14l-3 -12q-9 -44 -26.5 -98t-40.5 -112t-51.5 -116
t-58.5 -109l-5 -8q-9 -48 -14.5 -92.5t-7 -83t2 -69t12.5 -49.5q2 -2 3 -2zM370 654q-16 -29 -33 -71.5t-33.5 -93.5t-32 -108t-28.5 -115q26 47 49 98t42.5 100.5t34 95.5t22.5 84q5 20 6 37q1 4 1.5 7t0.5 7q-8 -8 -16 -19t-13 -22zM140 229q-8 2 -6 10t11 11q8 2 12 2
q23 2 47 3t47 1q13 -1 25 -4l24 -6q3 -1 4 -4t1 -6q-1 -3 -5 -7q-7 -5 -11 -5q-5 -1 -8.5 -1h-7.5h-8t-8 1q-22 0 -44 0.5t-45 1.5h-18z" />
    <glyph glyph-name="Emacron" unicode="&#x112;" horiz-adv-x="556" 
d="M148 842h297v-71h-297v71zM282 365q-18 -5 -37 -10l-38 -10q-17 -4 -33.5 -6.5t-32.5 -2.5q-15 0 -28 3q-31 6 -43.5 27t-6.5 51q2 10 5 17q11 30 30 57t40 52q43 49 89 88q43 36 88 66t95 52q23 11 46.5 17t48.5 6q21 -2 34 -9q29 -16 20 -53q-1 -5 -3 -10.5t-4 -10.5
q-9 -20 -21 -38t-23 -37q-7 -11 -14.5 -21.5t-15.5 -21.5l-13 -25q-2 -3 -5 -6t-6 -4q-3 0 -6.5 2t-3.5 4q-3 4 -1 11q0 2 1 3t1 3q11 18 21.5 35t21.5 34q11 18 21 36.5t15 38.5q7 36 -28 36q-25 0 -46.5 -8.5t-41.5 -19.5q-30 -15 -57.5 -33.5t-54.5 -38.5
q-68 -54 -122 -117q-14 -17 -27 -35.5t-24 -37.5q-6 -9 -9.5 -19t-5.5 -21q-7 -37 30 -39h13q18 0 36.5 2.5t37.5 7.5q42 11 83 25t82 32q5 2 8.5 3t7.5 1q5 0 10 -3q9 -5 7 -13q-2 -5 -8 -10q-8 -7 -16 -12.5t-16 -11.5q-24 -18 -49.5 -36t-48.5 -38q-67 -57 -126 -118.5
t-110 -133.5q-20 -30 -37 -61t-29 -63l-6 -16t-5 -16q-3 -16 0 -31q3 -26 26 -26q42 0 88.5 15.5t93 40t90.5 56t82.5 62.5t69 59t49.5 47q3 6 11 6q6 0 10.5 -3t3.5 -7q-1 -2 -4 -5q-20 -20 -51.5 -50t-71.5 -64t-86.5 -67.5t-95.5 -60.5t-99 -44t-97 -17q-35 0 -53.5 24
t-10.5 63l2 9q8 38 25 73t39 69q35 57 79 108t95 99q25 23 51.5 45t52.5 45z" />
    <glyph glyph-name="emacron" unicode="&#x113;" horiz-adv-x="563" 
d="M150 677h297v-71h-297v71zM51 94q-3 -8 -3 -14q-6 -27 3.5 -38.5t26.5 -11.5h5q21 2 44 12.5t45.5 26t42.5 33.5t35 34q5 5 11 5t5 -7q-2 -5 -7 -13q-15 -18 -37 -37t-47.5 -35t-51 -27.5t-46.5 -14.5q-5 -1 -8.5 -1h-7.5q-33 0 -43 22.5t-4 53.5l1 4q6 30 23 61t37 48
q14 13 27 13q12 0 18 -11.5t2 -28.5q-4 -18 -20 -38.5t-51 -35.5zM61 119q21 10 31.5 24t13.5 24q3 13 -4 13q-6 0 -14 -11q-13 -16 -27 -50z" />
    <glyph glyph-name="Ebreve" unicode="&#x114;" horiz-adv-x="556" 
d="M212 838q1 -6 0 -12q-2 -11 -15 -20q-8 -7 -24 -7h-6q-11 1 -14 5.5t-5 10.5q-1 3 -2 6.5t1 8.5q2 3 7.5 8.5t9.5 5.5q2 0 2 -5q-2 -5 -1.5 -11.5t0.5 -8.5q2 -5 8 -7q5 0 13 4q12 7 14 16q1 2 0.5 2.5t-0.5 2.5q1 4 4 8q6 -4 8 -7zM282 365q-18 -5 -37 -10l-38 -10
q-17 -4 -33.5 -6.5t-32.5 -2.5q-15 0 -28 3q-31 6 -43.5 27t-6.5 51q2 10 5 17q11 30 30 57t40 52q43 49 89 88q43 36 88 66t95 52q23 11 46.5 17t48.5 6q21 -2 34 -9q29 -16 20 -53q-1 -5 -3 -10.5t-4 -10.5q-9 -20 -21 -38t-23 -37q-7 -11 -14.5 -21.5t-15.5 -21.5
l-13 -25q-2 -3 -5 -6t-6 -4q-3 0 -6.5 2t-3.5 4q-3 4 -1 11q0 2 1 3t1 3q11 18 21.5 35t21.5 34q11 18 21 36.5t15 38.5q7 36 -28 36q-25 0 -46.5 -8.5t-41.5 -19.5q-30 -15 -57.5 -33.5t-54.5 -38.5q-68 -54 -122 -117q-14 -17 -27 -35.5t-24 -37.5q-6 -9 -9.5 -19
t-5.5 -21q-7 -37 30 -39h13q18 0 36.5 2.5t37.5 7.5q42 11 83 25t82 32q5 2 8.5 3t7.5 1q5 0 10 -3q9 -5 7 -13q-2 -5 -8 -10q-8 -7 -16 -12.5t-16 -11.5q-24 -18 -49.5 -36t-48.5 -38q-67 -57 -126 -118.5t-110 -133.5q-20 -30 -37 -61t-29 -63l-6 -16t-5 -16q-3 -16 0 -31
q3 -26 26 -26q42 0 88.5 15.5t93 40t90.5 56t82.5 62.5t69 59t49.5 47q3 6 11 6q6 0 10.5 -3t3.5 -7q-1 -2 -4 -5q-20 -20 -51.5 -50t-71.5 -64t-86.5 -67.5t-95.5 -60.5t-99 -44t-97 -17q-35 0 -53.5 24t-10.5 63l2 9q8 38 25 73t39 69q35 57 79 108t95 99q25 23 51.5 45
t52.5 45z" />
    <glyph glyph-name="ebreve" unicode="&#x115;" horiz-adv-x="563" 
d="M205 673q1 -6 0 -12q-2 -11 -15 -20q-8 -7 -24 -7h-6q-11 1 -14 5.5t-5 10.5q-1 3 -2 6.5t1 8.5q2 3 7.5 8.5t9.5 5.5q2 0 2 -5q-2 -5 -1.5 -11.5t0.5 -8.5q2 -5 8 -7q5 0 13 4q12 7 14 16q1 2 0.5 2.5t-0.5 2.5q1 4 4 8q6 -4 8 -7zM51 94q-3 -8 -3 -14q-6 -27 3.5 -38.5
t26.5 -11.5h5q21 2 44 12.5t45.5 26t42.5 33.5t35 34q5 5 11 5t5 -7q-2 -5 -7 -13q-15 -18 -37 -37t-47.5 -35t-51 -27.5t-46.5 -14.5q-5 -1 -8.5 -1h-7.5q-33 0 -43 22.5t-4 53.5l1 4q6 30 23 61t37 48q14 13 27 13q12 0 18 -11.5t2 -28.5q-4 -18 -20 -38.5t-51 -35.5z
M61 119q21 10 31.5 24t13.5 24q3 13 -4 13q-6 0 -14 -11q-13 -16 -27 -50z" />
    <glyph glyph-name="Edotaccent" unicode="&#x116;" horiz-adv-x="556" 
d="M351 833q2 -7 -1 -15q-1 -10 -16 -13q-14 0 -16 11q-1 3 1 14q5 16 17 16q5 0 10 -4t5 -9zM282 365q-18 -5 -37 -10l-38 -10q-17 -4 -33.5 -6.5t-32.5 -2.5q-15 0 -28 3q-31 6 -43.5 27t-6.5 51q2 10 5 17q11 30 30 57t40 52q43 49 89 88q43 36 88 66t95 52
q23 11 46.5 17t48.5 6q21 -2 34 -9q29 -16 20 -53q-1 -5 -3 -10.5t-4 -10.5q-9 -20 -21 -38t-23 -37q-7 -11 -14.5 -21.5t-15.5 -21.5l-13 -25q-2 -3 -5 -6t-6 -4q-3 0 -6.5 2t-3.5 4q-3 4 -1 11q0 2 1 3t1 3q11 18 21.5 35t21.5 34q11 18 21 36.5t15 38.5q7 36 -28 36
q-25 0 -46.5 -8.5t-41.5 -19.5q-30 -15 -57.5 -33.5t-54.5 -38.5q-68 -54 -122 -117q-14 -17 -27 -35.5t-24 -37.5q-6 -9 -9.5 -19t-5.5 -21q-7 -37 30 -39h13q18 0 36.5 2.5t37.5 7.5q42 11 83 25t82 32q5 2 8.5 3t7.5 1q5 0 10 -3q9 -5 7 -13q-2 -5 -8 -10
q-8 -7 -16 -12.5t-16 -11.5q-24 -18 -49.5 -36t-48.5 -38q-67 -57 -126 -118.5t-110 -133.5q-20 -30 -37 -61t-29 -63l-6 -16t-5 -16q-3 -16 0 -31q3 -26 26 -26q42 0 88.5 15.5t93 40t90.5 56t82.5 62.5t69 59t49.5 47q3 6 11 6q6 0 10.5 -3t3.5 -7q-1 -2 -4 -5
q-20 -20 -51.5 -50t-71.5 -64t-86.5 -67.5t-95.5 -60.5t-99 -44t-97 -17q-35 0 -53.5 24t-10.5 63l2 9q8 38 25 73t39 69q35 57 79 108t95 99q25 23 51.5 45t52.5 45z" />
    <glyph glyph-name="edotaccent" unicode="&#x117;" horiz-adv-x="563" 
d="M341 682q2 -7 -1 -15q-1 -10 -16 -13q-14 0 -16 11q-1 3 1 14q5 16 17 16q5 0 10 -4t5 -9zM51 94q-3 -8 -3 -14q-6 -27 3.5 -38.5t26.5 -11.5h5q21 2 44 12.5t45.5 26t42.5 33.5t35 34q5 5 11 5t5 -7q-2 -5 -7 -13q-15 -18 -37 -37t-47.5 -35t-51 -27.5t-46.5 -14.5
q-5 -1 -8.5 -1h-7.5q-33 0 -43 22.5t-4 53.5l1 4q6 30 23 61t37 48q14 13 27 13q12 0 18 -11.5t2 -28.5q-4 -18 -20 -38.5t-51 -35.5zM61 119q21 10 31.5 24t13.5 24q3 13 -4 13q-6 0 -14 -11q-13 -16 -27 -50z" />
    <glyph glyph-name="Eogonek" unicode="&#x118;" horiz-adv-x="432" 
d="M88 -253q-4 -25 -32 -37q-9 -5 -20 -5q-12 0 -21 9q-12 12 -8 31q1 6 4 11t7 10q8 11 23 22q10 8 11 14q0 8 -2 12q-3 6 -6 10.5t-5 10.5q-2 3 -0.5 7.5t1.5 8.5q2 0 6 0.5t6 0.5q4 0 5 -1q10 -8 14.5 -20.5t1.5 -26.5q-4 -16 -16 -29q-5 -3 -8.5 -7.5t-7.5 -9.5
q-5 -8 -6 -12q-1 -6 4 -11q5 -3 8 -3q10 0 17 8q4 5 7 10t7 10q1 1 6 1t6 -2zM282 365q-18 -5 -37 -10l-38 -10q-17 -4 -33.5 -6.5t-32.5 -2.5q-15 0 -28 3q-31 6 -43.5 27t-6.5 51q2 10 5 17q11 30 30 57t40 52q43 49 89 88q43 36 88 66t95 52q23 11 46.5 17t48.5 6
q21 -2 34 -9q29 -16 20 -53q-1 -5 -3 -10.5t-4 -10.5q-9 -20 -21 -38t-23 -37q-7 -11 -14.5 -21.5t-15.5 -21.5l-13 -25q-2 -3 -5 -6t-6 -4q-3 0 -6.5 2t-3.5 4q-3 4 -1 11q0 2 1 3t1 3q11 18 21.5 35t21.5 34q11 18 21 36.5t15 38.5q7 36 -28 36q-25 0 -46.5 -8.5
t-41.5 -19.5q-30 -15 -57.5 -33.5t-54.5 -38.5q-68 -54 -122 -117q-14 -17 -27 -35.5t-24 -37.5q-6 -9 -9.5 -19t-5.5 -21q-7 -37 30 -39h13q18 0 36.5 2.5t37.5 7.5q42 11 83 25t82 32q5 2 8.5 3t7.5 1q5 0 10 -3q9 -5 7 -13q-2 -5 -8 -10q-8 -7 -16 -12.5t-16 -11.5
q-24 -18 -49.5 -36t-48.5 -38q-67 -57 -126 -118.5t-110 -133.5q-20 -30 -37 -61t-29 -63l-6 -16t-5 -16q-3 -16 0 -31q3 -26 26 -26q42 0 88.5 15.5t93 40t90.5 56t82.5 62.5t69 59t49.5 47q3 6 11 6q6 0 10.5 -3t3.5 -7q-1 -2 -4 -5q-20 -20 -51.5 -50t-71.5 -64
t-86.5 -67.5t-95.5 -60.5t-99 -44t-97 -17q-35 0 -53.5 24t-10.5 63l2 9q8 38 25 73t39 69q35 57 79 108t95 99q25 23 51.5 45t52.5 45z" />
    <glyph glyph-name="eogonek" unicode="&#x119;" horiz-adv-x="209" 
d="M76 -51q-3 -20 -26 -29q-7 -4 -16 -4q-10 0 -17 7q-10 9 -7 24q1 5 3.5 9t5.5 8q7 8 19 17q8 6 9 11q0 6 -2 9q-2 5 -4.5 8.5t-4.5 8.5q-1 2 0 5.5t1 6.5q2 0 5 0.5t5 0.5q3 0 4 -1q8 -6 11.5 -16t1.5 -21q-3 -12 -13 -22q-4 -3 -7 -6.5t-6 -7.5q-4 -6 -5 -9q-1 -5 3 -9
q4 -2 7 -2q8 0 14 6q3 4 5.5 8t5.5 8q1 1 5 1t5 -2zM51 94q-3 -8 -3 -14q-6 -27 3.5 -38.5t26.5 -11.5h5q21 2 44 12.5t45.5 26t42.5 33.5t35 34q5 5 11 5t5 -7q-2 -5 -7 -13q-15 -18 -37 -37t-47.5 -35t-51 -27.5t-46.5 -14.5q-5 -1 -8.5 -1h-7.5q-33 0 -43 22.5t-4 53.5
l1 4q6 30 23 61t37 48q14 13 27 13q12 0 18 -11.5t2 -28.5q-4 -18 -20 -38.5t-51 -35.5zM61 119q21 10 31.5 24t13.5 24q3 13 -4 13q-6 0 -14 -11q-13 -16 -27 -50z" />
    <glyph glyph-name="Ecaron" unicode="&#x11a;" horiz-adv-x="432" 
d="M540 895l-6 -27t-4 -14q-2 -6 0 -7q12 10 22.5 20.5t22.5 19.5q7 7 17 13t19 12q9 3 15 3q10 0 12 -4q3 -8 2 -13q0 -3 -3 -6.5t-7 -5.5q-6 -2 -8 -2q-5 1 -5 5l1 6l-8 -4l-47 -47q-9 -8 -17 -17t-18 -18q-8 -8 -22 -8q-10 1 -14 12q2 3 1 4t1 3q2 8 2 15t2 15q0 6 2 12
l4 12q6 25 23 50q3 4 4.5 6.5t8.5 2.5q8 0 8 -3.5t2 -6.5l-10 -28v0zM282 365q-18 -5 -37 -10l-38 -10q-17 -4 -33.5 -6.5t-32.5 -2.5q-15 0 -28 3q-31 6 -43.5 27t-6.5 51q2 10 5 17q11 30 30 57t40 52q43 49 89 88q43 36 88 66t95 52q23 11 46.5 17t48.5 6q21 -2 34 -9
q29 -16 20 -53q-1 -5 -3 -10.5t-4 -10.5q-9 -20 -21 -38t-23 -37q-7 -11 -14.5 -21.5t-15.5 -21.5l-13 -25q-2 -3 -5 -6t-6 -4q-3 0 -6.5 2t-3.5 4q-3 4 -1 11q0 2 1 3t1 3q11 18 21.5 35t21.5 34q11 18 21 36.5t15 38.5q7 36 -28 36q-25 0 -46.5 -8.5t-41.5 -19.5
q-30 -15 -57.5 -33.5t-54.5 -38.5q-68 -54 -122 -117q-14 -17 -27 -35.5t-24 -37.5q-6 -9 -9.5 -19t-5.5 -21q-7 -37 30 -39h13q18 0 36.5 2.5t37.5 7.5q42 11 83 25t82 32q5 2 8.5 3t7.5 1q5 0 10 -3q9 -5 7 -13q-2 -5 -8 -10q-8 -7 -16 -12.5t-16 -11.5q-24 -18 -49.5 -36
t-48.5 -38q-67 -57 -126 -118.5t-110 -133.5q-20 -30 -37 -61t-29 -63l-6 -16t-5 -16q-3 -16 0 -31q3 -26 26 -26q42 0 88.5 15.5t93 40t90.5 56t82.5 62.5t69 59t49.5 47q3 6 11 6q6 0 10.5 -3t3.5 -7q-1 -2 -4 -5q-20 -20 -51.5 -50t-71.5 -64t-86.5 -67.5t-95.5 -60.5
t-99 -44t-97 -17q-35 0 -53.5 24t-10.5 63l2 9q8 38 25 73t39 69q35 57 79 108t95 99q25 23 51.5 45t52.5 45z" />
    <glyph glyph-name="ecaron" unicode="&#x11b;" horiz-adv-x="209" 
d="M153 293q-2 -11 -3 -16t-2 -8t0 -4q6 6 11.5 12t11.5 12q3 3 8 6.5t10 6.5q4 2 7 2q6 0 6 -2q2 -4 1 -7q0 -2 -1.5 -4t-2.5 -3q-3 -1 -5 -1t-2 3v3l-4 -3l-23 -26q-5 -5 -9 -10.5t-9 -9.5q-4 -5 -11 -5q-5 0 -7 7q1 1 0.5 1.5t0.5 2.5q1 4 1 8t1 9q0 3 1 7t2 7
q3 14 11 29q2 2 2.5 3.5t4.5 1.5t4 -2t1 -4l-5 -16v0zM51 94q-3 -8 -3 -14q-6 -27 3.5 -38.5t26.5 -11.5h5q21 2 44 12.5t45.5 26t42.5 33.5t35 34q5 5 11 5t5 -7q-2 -5 -7 -13q-15 -18 -37 -37t-47.5 -35t-51 -27.5t-46.5 -14.5q-5 -1 -8.5 -1h-7.5q-33 0 -43 22.5t-4 53.5
l1 4q6 30 23 61t37 48q14 13 27 13q12 0 18 -11.5t2 -28.5q-4 -18 -20 -38.5t-51 -35.5zM61 119q21 10 31.5 24t13.5 24q3 13 -4 13q-6 0 -14 -11q-13 -16 -27 -50z" />
    <glyph glyph-name="Gcircumflex" unicode="&#x11c;" horiz-adv-x="728" 
d="M286 820l-17 -23q-2 -2 -4 -4.5t-5 -2.5q-7 0 -5 7q3 16 16.5 35.5t24.5 34.5l25 30q8 6 12 6q13 0 11 -13l-18 -85q1 -2 0.5 -3.5t1.5 -3.5q2 3 4 5.5t6 2.5q2 -2 3 -4t0 -5q-2 -8 -8.5 -12.5t-11.5 -4.5q-8 0 -9.5 12.5t-0.5 27.5t3 27.5l2 12.5q-1 0 -5.5 -7
t-24.5 -33zM386 239l-34 -10l-34 -10q-10 -3 -19 -4.5t-20 -3.5q-10 0 -12 11v5q1 9 11 12q32 15 63.5 27.5t65.5 19.5q4 1 10 1q11 0 18.5 -4.5t15.5 -9.5q6 -4 2 -15q-2 -10 -6 -17.5t-6 -14.5l-13 -28q-30 -66 -58.5 -129.5t-56.5 -129.5q-11 -23 -17.5 -46.5
t-14.5 -47.5q-2 -5 -2 -10.5t-1 -10.5q2 0 3 -1q3 5 5.5 8.5t6.5 6.5q2 2 4.5 3t4.5 3q4 -6 3 -9q-3 -22 -26 -33q-5 -3 -10 -3q-11 0 -14 12q-2 7 -2 14.5t1 15.5q5 22 9.5 43.5t9.5 43.5q11 42 27.5 82.5t34.5 81.5l16 34l16 34q1 2 2 5t2 5q-4 0 -6.5 -3t-4.5 -5
q-35 -38 -70 -75.5t-71 -75.5q-19 -20 -40 -37.5t-45 -31.5q-13 -8 -26.5 -14.5t-28.5 -8.5q-4 -1 -12 -1q-21 0 -36.5 10.5t-20.5 29.5q-7 20 -6.5 40.5t4.5 41.5l3 14q8 41 23.5 81t32.5 79q64 140 151 267q33 49 68.5 96t77.5 89q20 20 41 37t45 29q22 12 44 12
q30 0 47 -24q8 -12 8.5 -27t-1.5 -30q-2 -11 -3.5 -21t-3.5 -21q-5 -26 -13 -52.5t-17 -52.5q-2 -4 -2 -6v-3q2 -6 2 -8q-1 -3 -4 -4q-8 -5 -15 -5q-5 0 -7.5 4t-1.5 7l1 7q2 7 3.5 13.5t3.5 13.5q5 16 8.5 32t7.5 33q8 35 8 64q-1 16 -8 32q-3 13 -19 13q-3 0 -9 -2
q-23 -10 -42 -23q-29 -22 -53.5 -48.5t-46.5 -55.5q-82 -108 -144.5 -222t-107.5 -235q-18 -43 -27 -88l-2 -7q-5 -27 -2 -50q2 -26 22 -26q9 0 23 6q27 11 49 30t42 39q33 34 65 68.5t64 69.5z" />
    <glyph glyph-name="gcircumflex" unicode="&#x11d;" horiz-adv-x="615" 
d="M170 655l-17 -23q-2 -2 -4 -4.5t-5 -2.5q-7 0 -5 7q3 16 16.5 35.5t24.5 34.5l25 30q8 6 12 6q13 0 11 -13l-18 -85q1 -2 0.5 -3.5t1.5 -3.5q2 3 4 5.5t6 2.5q2 -2 3 -4t0 -5q-2 -8 -8.5 -12.5t-11.5 -4.5q-8 0 -9.5 12.5t-0.5 27.5t3 27.5l2 12.5q-1 0 -5.5 -7
t-24.5 -33zM226 46q7 51 6.5 73.5t-11.5 22.5q-8 0 -20 -9t-32 -26l-18 -16q-42 -36 -67 -53.5t-50 -17.5q-21 0 -27.5 12t-3.5 31q4 18 16 38.5t29.5 38.5t37.5 29.5t40 11.5q15 0 29 -8t25 -28q29 26 54 26q21 0 32.5 -23t7.5 -71q26 16 53 29t55 24q3 1 9 1q5 0 8.5 -1.5
t3.5 -3.5q0 -1 -4.5 -4.5t-8.5 -5.5q-30 -11 -60 -28.5t-60 -37.5q-2 -15 -4.5 -29.5t-5.5 -29.5q-16 -73 -43.5 -145t-62.5 -137.5t-74 -122t-77 -98t-72.5 -65t-60.5 -23.5q-19 0 -29.5 12t-14.5 26q-6 22 -5.5 45t5.5 49q9 45 33 94t57 98.5t73 97t81.5 89.5t81.5 76.5
t74 58.5zM222 15q-57 -43 -116 -101.5t-109.5 -123t-87.5 -132t-50 -128.5q-9 -41 -5 -75q0 -11 5 -20t15 -11q2 0 3.5 -0.5t3.5 -0.5q20 0 49.5 24t62 65t66.5 96t64.5 117.5t55 129t37.5 129.5q2 8 3 15.5t3 15.5zM165 134q-6 9 -14.5 13t-16.5 4q-16 0 -32.5 -10.5
t-30 -25.5t-23.5 -31t-12 -26q-3 -11 4 -11q11 0 26.5 8.5t32 21t32 26t26.5 24.5z" />
    <glyph glyph-name="Gbreve" unicode="&#x11e;" horiz-adv-x="728" 
d="M327 838q1 -6 0 -12q-2 -11 -15 -20q-8 -7 -24 -7h-6q-11 1 -14 5.5t-5 10.5q-1 3 -2 6.5t1 8.5q2 3 7.5 8.5t9.5 5.5q2 0 2 -5q-2 -5 -1.5 -11.5t0.5 -8.5q2 -5 8 -7q5 0 13 4q12 7 14 16q1 2 0.5 2.5t-0.5 2.5q1 4 4 8q6 -4 8 -7zM386 239l-34 -10l-34 -10
q-10 -3 -19 -4.5t-20 -3.5q-10 0 -12 11v5q1 9 11 12q32 15 63.5 27.5t65.5 19.5q4 1 10 1q11 0 18.5 -4.5t15.5 -9.5q6 -4 2 -15q-2 -10 -6 -17.5t-6 -14.5l-13 -28q-30 -66 -58.5 -129.5t-56.5 -129.5q-11 -23 -17.5 -46.5t-14.5 -47.5q-2 -5 -2 -10.5t-1 -10.5q2 0 3 -1
q3 5 5.5 8.5t6.5 6.5q2 2 4.5 3t4.5 3q4 -6 3 -9q-3 -22 -26 -33q-5 -3 -10 -3q-11 0 -14 12q-2 7 -2 14.5t1 15.5q5 22 9.5 43.5t9.5 43.5q11 42 27.5 82.5t34.5 81.5l16 34l16 34q1 2 2 5t2 5q-4 0 -6.5 -3t-4.5 -5q-35 -38 -70 -75.5t-71 -75.5q-19 -20 -40 -37.5
t-45 -31.5q-13 -8 -26.5 -14.5t-28.5 -8.5q-4 -1 -12 -1q-21 0 -36.5 10.5t-20.5 29.5q-7 20 -6.5 40.5t4.5 41.5l3 14q8 41 23.5 81t32.5 79q64 140 151 267q33 49 68.5 96t77.5 89q20 20 41 37t45 29q22 12 44 12q30 0 47 -24q8 -12 8.5 -27t-1.5 -30q-2 -11 -3.5 -21
t-3.5 -21q-5 -26 -13 -52.5t-17 -52.5q-2 -4 -2 -6v-3q2 -6 2 -8q-1 -3 -4 -4q-8 -5 -15 -5q-5 0 -7.5 4t-1.5 7l1 7q2 7 3.5 13.5t3.5 13.5q5 16 8.5 32t7.5 33q8 35 8 64q-1 16 -8 32q-3 13 -19 13q-3 0 -9 -2q-23 -10 -42 -23q-29 -22 -53.5 -48.5t-46.5 -55.5
q-82 -108 -144.5 -222t-107.5 -235q-18 -43 -27 -88l-2 -7q-5 -27 -2 -50q2 -26 22 -26q9 0 23 6q27 11 49 30t42 39q33 34 65 68.5t64 69.5z" />
    <glyph glyph-name="gbreve" unicode="&#x11f;" horiz-adv-x="615" 
d="M213 673q1 -6 0 -12q-2 -11 -15 -20q-8 -7 -24 -7h-6q-11 1 -14 5.5t-5 10.5q-1 3 -2 6.5t1 8.5q2 3 7.5 8.5t9.5 5.5q2 0 2 -5q-2 -5 -1.5 -11.5t0.5 -8.5q2 -5 8 -7q5 0 13 4q12 7 14 16q1 2 0.5 2.5t-0.5 2.5q1 4 4 8q6 -4 8 -7zM226 46q7 51 6.5 73.5t-11.5 22.5
q-8 0 -20 -9t-32 -26l-18 -16q-42 -36 -67 -53.5t-50 -17.5q-21 0 -27.5 12t-3.5 31q4 18 16 38.5t29.5 38.5t37.5 29.5t40 11.5q15 0 29 -8t25 -28q29 26 54 26q21 0 32.5 -23t7.5 -71q26 16 53 29t55 24q3 1 9 1q5 0 8.5 -1.5t3.5 -3.5q0 -1 -4.5 -4.5t-8.5 -5.5
q-30 -11 -60 -28.5t-60 -37.5q-2 -15 -4.5 -29.5t-5.5 -29.5q-16 -73 -43.5 -145t-62.5 -137.5t-74 -122t-77 -98t-72.5 -65t-60.5 -23.5q-19 0 -29.5 12t-14.5 26q-6 22 -5.5 45t5.5 49q9 45 33 94t57 98.5t73 97t81.5 89.5t81.5 76.5t74 58.5zM222 15q-57 -43 -116 -101.5
t-109.5 -123t-87.5 -132t-50 -128.5q-9 -41 -5 -75q0 -11 5 -20t15 -11q2 0 3.5 -0.5t3.5 -0.5q20 0 49.5 24t62 65t66.5 96t64.5 117.5t55 129t37.5 129.5q2 8 3 15.5t3 15.5zM165 134q-6 9 -14.5 13t-16.5 4q-16 0 -32.5 -10.5t-30 -25.5t-23.5 -31t-12 -26q-3 -11 4 -11
q11 0 26.5 8.5t32 21t32 26t26.5 24.5z" />
    <glyph glyph-name="Gdotaccent" unicode="&#x120;" horiz-adv-x="728" 
d="M469 847q2 -7 -1 -15q-1 -10 -16 -13q-14 0 -16 11q-1 3 1 14q5 16 17 16q5 0 10 -4t5 -9zM386 239l-34 -10l-34 -10q-10 -3 -19 -4.5t-20 -3.5q-10 0 -12 11v5q1 9 11 12q32 15 63.5 27.5t65.5 19.5q4 1 10 1q11 0 18.5 -4.5t15.5 -9.5q6 -4 2 -15q-2 -10 -6 -17.5
t-6 -14.5l-13 -28q-30 -66 -58.5 -129.5t-56.5 -129.5q-11 -23 -17.5 -46.5t-14.5 -47.5q-2 -5 -2 -10.5t-1 -10.5q2 0 3 -1q3 5 5.5 8.5t6.5 6.5q2 2 4.5 3t4.5 3q4 -6 3 -9q-3 -22 -26 -33q-5 -3 -10 -3q-11 0 -14 12q-2 7 -2 14.5t1 15.5q5 22 9.5 43.5t9.5 43.5
q11 42 27.5 82.5t34.5 81.5l16 34l16 34q1 2 2 5t2 5q-4 0 -6.5 -3t-4.5 -5q-35 -38 -70 -75.5t-71 -75.5q-19 -20 -40 -37.5t-45 -31.5q-13 -8 -26.5 -14.5t-28.5 -8.5q-4 -1 -12 -1q-21 0 -36.5 10.5t-20.5 29.5q-7 20 -6.5 40.5t4.5 41.5l3 14q8 41 23.5 81t32.5 79
q64 140 151 267q33 49 68.5 96t77.5 89q20 20 41 37t45 29q22 12 44 12q30 0 47 -24q8 -12 8.5 -27t-1.5 -30q-2 -11 -3.5 -21t-3.5 -21q-5 -26 -13 -52.5t-17 -52.5q-2 -4 -2 -6v-3q2 -6 2 -8q-1 -3 -4 -4q-8 -5 -15 -5q-5 0 -7.5 4t-1.5 7l1 7q2 7 3.5 13.5t3.5 13.5
q5 16 8.5 32t7.5 33q8 35 8 64q-1 16 -8 32q-3 13 -19 13q-3 0 -9 -2q-23 -10 -42 -23q-29 -22 -53.5 -48.5t-46.5 -55.5q-82 -108 -144.5 -222t-107.5 -235q-18 -43 -27 -88l-2 -7q-5 -27 -2 -50q2 -26 22 -26q9 0 23 6q27 11 49 30t42 39q33 34 65 68.5t64 69.5z" />
    <glyph glyph-name="gdotaccent" unicode="&#x121;" horiz-adv-x="615" 
d="M345 682q2 -7 -1 -15q-1 -10 -16 -13q-14 0 -16 11q-1 3 1 14q5 16 17 16q5 0 10 -4t5 -9zM226 46q7 51 6.5 73.5t-11.5 22.5q-8 0 -20 -9t-32 -26l-18 -16q-42 -36 -67 -53.5t-50 -17.5q-21 0 -27.5 12t-3.5 31q4 18 16 38.5t29.5 38.5t37.5 29.5t40 11.5q15 0 29 -8
t25 -28q29 26 54 26q21 0 32.5 -23t7.5 -71q26 16 53 29t55 24q3 1 9 1q5 0 8.5 -1.5t3.5 -3.5q0 -1 -4.5 -4.5t-8.5 -5.5q-30 -11 -60 -28.5t-60 -37.5q-2 -15 -4.5 -29.5t-5.5 -29.5q-16 -73 -43.5 -145t-62.5 -137.5t-74 -122t-77 -98t-72.5 -65t-60.5 -23.5
q-19 0 -29.5 12t-14.5 26q-6 22 -5.5 45t5.5 49q9 45 33 94t57 98.5t73 97t81.5 89.5t81.5 76.5t74 58.5zM222 15q-57 -43 -116 -101.5t-109.5 -123t-87.5 -132t-50 -128.5q-9 -41 -5 -75q0 -11 5 -20t15 -11q2 0 3.5 -0.5t3.5 -0.5q20 0 49.5 24t62 65t66.5 96t64.5 117.5
t55 129t37.5 129.5q2 8 3 15.5t3 15.5zM165 134q-6 9 -14.5 13t-16.5 4q-16 0 -32.5 -10.5t-30 -25.5t-23.5 -31t-12 -26q-3 -11 4 -11q11 0 26.5 8.5t32 21t32 26t26.5 24.5z" />
    <glyph glyph-name="uni0122" unicode="&#x122;" horiz-adv-x="728" 
d="M322 -209q11 25 24 70.5t17 77.5h87v-9q-8 -31 -31.5 -76.5t-48.5 -74.5h-48v12zM386 239l-34 -10l-34 -10q-10 -3 -19 -4.5t-20 -3.5q-10 0 -12 11v5q1 9 11 12q32 15 63.5 27.5t65.5 19.5q4 1 10 1q11 0 18.5 -4.5t15.5 -9.5q6 -4 2 -15q-2 -10 -6 -17.5t-6 -14.5
l-13 -28q-30 -66 -58.5 -129.5t-56.5 -129.5q-11 -23 -17.5 -46.5t-14.5 -47.5q-2 -5 -2 -10.5t-1 -10.5q2 0 3 -1q3 5 5.5 8.5t6.5 6.5q2 2 4.5 3t4.5 3q4 -6 3 -9q-3 -22 -26 -33q-5 -3 -10 -3q-11 0 -14 12q-2 7 -2 14.5t1 15.5q5 22 9.5 43.5t9.5 43.5q11 42 27.5 82.5
t34.5 81.5l16 34l16 34q1 2 2 5t2 5q-4 0 -6.5 -3t-4.5 -5q-35 -38 -70 -75.5t-71 -75.5q-19 -20 -40 -37.5t-45 -31.5q-13 -8 -26.5 -14.5t-28.5 -8.5q-4 -1 -12 -1q-21 0 -36.5 10.5t-20.5 29.5q-7 20 -6.5 40.5t4.5 41.5l3 14q8 41 23.5 81t32.5 79q64 140 151 267
q33 49 68.5 96t77.5 89q20 20 41 37t45 29q22 12 44 12q30 0 47 -24q8 -12 8.5 -27t-1.5 -30q-2 -11 -3.5 -21t-3.5 -21q-5 -26 -13 -52.5t-17 -52.5q-2 -4 -2 -6v-3q2 -6 2 -8q-1 -3 -4 -4q-8 -5 -15 -5q-5 0 -7.5 4t-1.5 7l1 7q2 7 3.5 13.5t3.5 13.5q5 16 8.5 32t7.5 33
q8 35 8 64q-1 16 -8 32q-3 13 -19 13q-3 0 -9 -2q-23 -10 -42 -23q-29 -22 -53.5 -48.5t-46.5 -55.5q-82 -108 -144.5 -222t-107.5 -235q-18 -43 -27 -88l-2 -7q-5 -27 -2 -50q2 -26 22 -26q9 0 23 6q27 11 49 30t42 39q33 34 65 68.5t64 69.5z" />
    <glyph glyph-name="uni0123" unicode="&#x123;" horiz-adv-x="615" 
d="M379 754q-13 -29 -26 -74.5t-16 -73.5h-87v9q7 27 31.5 74t48.5 77h49v-12zM226 46q7 51 6.5 73.5t-11.5 22.5q-8 0 -20 -9t-32 -26l-18 -16q-42 -36 -67 -53.5t-50 -17.5q-21 0 -27.5 12t-3.5 31q4 18 16 38.5t29.5 38.5t37.5 29.5t40 11.5q15 0 29 -8t25 -28
q29 26 54 26q21 0 32.5 -23t7.5 -71q26 16 53 29t55 24q3 1 9 1q5 0 8.5 -1.5t3.5 -3.5q0 -1 -4.5 -4.5t-8.5 -5.5q-30 -11 -60 -28.5t-60 -37.5q-2 -15 -4.5 -29.5t-5.5 -29.5q-16 -73 -43.5 -145t-62.5 -137.5t-74 -122t-77 -98t-72.5 -65t-60.5 -23.5q-19 0 -29.5 12
t-14.5 26q-6 22 -5.5 45t5.5 49q9 45 33 94t57 98.5t73 97t81.5 89.5t81.5 76.5t74 58.5zM222 15q-57 -43 -116 -101.5t-109.5 -123t-87.5 -132t-50 -128.5q-9 -41 -5 -75q0 -11 5 -20t15 -11q2 0 3.5 -0.5t3.5 -0.5q20 0 49.5 24t62 65t66.5 96t64.5 117.5t55 129
t37.5 129.5q2 8 3 15.5t3 15.5zM165 134q-6 9 -14.5 13t-16.5 4q-16 0 -32.5 -10.5t-30 -25.5t-23.5 -31t-12 -26q-3 -11 4 -11q11 0 26.5 8.5t32 21t32 26t26.5 24.5z" />
    <glyph glyph-name="Hcircumflex" unicode="&#x124;" horiz-adv-x="741" 
d="M238 820l-17 -23q-2 -2 -4 -4.5t-5 -2.5q-7 0 -5 7q3 16 16.5 35.5t24.5 34.5l25 30q8 6 12 6q13 0 11 -13l-18 -85q1 -2 0.5 -3.5t1.5 -3.5q2 3 4 5.5t6 2.5q2 -2 3 -4t0 -5q-2 -8 -8.5 -12.5t-11.5 -4.5q-8 0 -9.5 12.5t-0.5 27.5t3 27.5l2 12.5q-1 0 -5.5 -7
t-24.5 -33zM35 133q-11 -6 -21 -11.5t-19 -11.5l-52 -31q-2 -2 -8 -4q-5 -3 -8 -3q-6 0 -6 4q-2 4 0 9q0 2 1 3.5t2 3.5q11 13 25 21q20 13 40.5 25.5t41.5 24.5q10 7 14 17q19 76 41.5 151t51.5 150q13 32 27.5 63t28.5 63l4 10q2 4 6 8t9 6q9 0 11 -6q5 -3 3 -10
q0 -3 -4 -9q-6 -11 -10 -22l-8 -22l-12 -31q-17 -44 -33.5 -87t-32.5 -87q-7 -20 -13.5 -39t-11.5 -39l-23 -80l-3 -12q9 2 11 4q51 23 102.5 39.5t103.5 24.5q12 1 13 12q1 3 2 5.5t2 5.5q8 27 16.5 54t18.5 54q20 60 42.5 118.5t51.5 117.5q17 36 36 71.5t38 71.5
q9 16 21 16h4q6 -3 5 -13q-1 -2 -2 -5t-3 -7q-29 -60 -55 -120t-48 -122q-18 -51 -35 -100.5t-34 -100.5l-11 -37l-1 -4q-1 -8 10 -9h21t20 -2q17 -3 14 -21q-4 -11 -8 -12q-5 0 -9 4q-4 2 -7 4.5t-7 2.5q-9 0 -17.5 -1t-17.5 -2q-9 0 -14 -11q-13 -49 -24.5 -97t-22.5 -96
q-3 -17 -6.5 -33.5t-6.5 -33.5q-4 -20 -4 -44v-3q-2 -11 -1 -17.5t2 -14.5q2 -5 2 -12q-1 -5 -6 -10q-6 -6 -15 -6q-5 0 -8 3q-4 5 -7 9.5t-4 10.5q-1 17 -0.5 35t2.5 36q5 43 12.5 85t16.5 85l10 43q3 12 6.5 24.5t5.5 25.5q1 9 -4 9q-1 0 -2 -0.5t-2 -0.5
q-51 -14 -101.5 -30t-101.5 -39q-12 -6 -15 -16q-2 -19 -4.5 -35.5t-4.5 -33.5q-2 -18 14 -24q3 -1 4 -4l2 -6q-3 -2 -6 -3.5t-6 -2.5q-22 0 -28 17q-6 16 -6 37q-1 11 1 23.5t4 26.5z" />
    <glyph glyph-name="hcircumflex" unicode="&#x125;" horiz-adv-x="618" 
d="M181 847l-17 -23q-2 -2 -4 -4.5t-5 -2.5q-7 0 -5 7q3 16 16.5 35.5t24.5 34.5l25 30q8 6 12 6q13 0 11 -13l-18 -85q1 -2 0.5 -3.5t1.5 -3.5q2 3 4 5.5t6 2.5q2 -2 3 -4t0 -5q-2 -8 -8.5 -12.5t-11.5 -4.5q-8 0 -9.5 12.5t-0.5 27.5t3 27.5l2 12.5q-1 0 -5.5 -7
t-24.5 -33zM228 735q7 9 16 9q2 0 3.5 -0.5t3.5 -1.5q11 -5 12.5 -12.5t0.5 -18.5q-2 -14 -4 -29t-7 -34l-1 -6q-22 -103 -68 -210.5t-99 -207.5q-4 -17 -7 -36.5t-6 -37.5t-4.5 -34t-2.5 -26v-5q10 12 25 28t31.5 30t33 24t30.5 10q17 0 24.5 -10t9.5 -25t1 -33t0 -33.5
t5.5 -26t18.5 -11.5q14 0 28.5 9.5t28 22.5t25 26.5t19.5 22.5l8 9q10 11 16 11t4 -9q-2 -8 -7 -14q-12 -15 -28.5 -32t-34 -31.5t-35.5 -24t-33 -9.5q-29 0 -41 20t-16 44t-3 44t-1 20q-20 0 -48.5 -28t-62.5 -67q-9 -5 -19 -5q-11 0 -15.5 10t-2.5 24q8 81 27 169
q4 20 9 41t10 43q5 23 14 56.5t21 71t26.5 77.5t30.5 77t32 68t32 51zM228 648q5 20 7 35.5t3 26.5q-11 -19 -23 -48.5t-24.5 -65t-24.5 -73.5t-22.5 -73.5t-19 -65.5t-13.5 -49l-11 -42q20 43 39.5 89t36 91.5t30 88.5t21.5 80z" />
    <glyph glyph-name="Hbar" unicode="&#x126;" horiz-adv-x="741" 
d="M97 595v119h90v-119h366v119h90v-119h97v-72h-97v-523h-90v333h-366v-333h-90v523h-97v72h97zM553 412v111h-366v-111h366z" />
    <glyph glyph-name="hbar" unicode="&#x127;" horiz-adv-x="618" 
d="M450 0v323q0 65 -29 97t-91 32q-83 0 -120 -45t-37 -149v-258h-88v604h-76v66h76v90h88v-90h212v-66h-212v-87q0 -43 -5 -74h6q26 42 70.5 62.5t97.5 20.5q97 0 146 -47t49 -150v-329h-87z" />
    <glyph glyph-name="Itilde" unicode="&#x128;" horiz-adv-x="338" 
d="M244 772q-21 0 -41 9t-39.5 19.5t-37 19.5t-34.5 9q-24 0 -36 -14.5t-19 -43.5h-51q6 60 34 94t76 34q22 0 42.5 -9t39.5 -19.5t37 -19.5t33 -9q23 0 35.5 14.5t19.5 43.5h50q-6 -58 -34 -93t-75 -35zM238 723q-5 -5 -10 -9t-10 -9q-29 -31 -53 -64.5t-45 -68.5
q-17 -30 -32.5 -60.5t-26.5 -62.5q-2 -8 -4 -15l-4 -14q-2 -8 -2.5 -15t-1.5 -14q-2 -17 3 -29.5t21 -18.5q15 -6 17 -25q-2 9 -7 12t-12 3h-6.5t-7.5 -1h-4q-10 0 -15.5 5t-10.5 12q-8 14 -9 30.5t2 34.5l2 7q6 29 17 57t25 56q23 47 52 90.5t67 82.5q14 15 32 30
q10 8 20 11q5 2 8.5 3t6.5 1q18 0 20 -19t-1 -34q-8 -41 -21.5 -80.5t-27.5 -79.5q-35 -96 -69 -190.5t-68 -190.5q-14 -41 -27 -81t-27 -80l-3 -9l-8 -27q-2 -7 -2 -13t2 -12t2 -11q-4 -11 -11 -17q-2 -2 -5.5 -4t-5.5 -2q-1 0 -1.5 0.5t-1.5 0.5q-10 2 -10 12
q1 8 1.5 14.5t2.5 14.5l2 10l18 69l1 5q11 36 21 72t23 72q40 112 80 222.5t81 222.5q8 22 13.5 44t12.5 45q1 4 1 8v8q-1 0 -2 0.5t-2 0.5z" />
    <glyph glyph-name="itilde" unicode="&#x129;" horiz-adv-x="257" 
d="M204 607q-21 0 -41 9t-39.5 19.5t-37 19.5t-34.5 9q-24 0 -36 -14.5t-19 -43.5h-51q6 60 34 94t76 34q22 0 42.5 -9t39.5 -19.5t37 -19.5t33 -9q23 0 35.5 14.5t19.5 43.5h50q-6 -58 -34 -93t-75 -35zM173 0h-88v536h88v-536z" />
    <glyph glyph-name="Imacron" unicode="&#x12a;" horiz-adv-x="338" 
d="M21 842h297v-71h-297v71zM238 723q-5 -5 -10 -9t-10 -9q-29 -31 -53 -64.5t-45 -68.5q-17 -30 -32.5 -60.5t-26.5 -62.5q-2 -8 -4 -15l-4 -14q-2 -8 -2.5 -15t-1.5 -14q-2 -17 3 -29.5t21 -18.5q15 -6 17 -25q-2 9 -7 12t-12 3h-6.5t-7.5 -1h-4q-10 0 -15.5 5t-10.5 12
q-8 14 -9 30.5t2 34.5l2 7q6 29 17 57t25 56q23 47 52 90.5t67 82.5q14 15 32 30q10 8 20 11q5 2 8.5 3t6.5 1q18 0 20 -19t-1 -34q-8 -41 -21.5 -80.5t-27.5 -79.5q-35 -96 -69 -190.5t-68 -190.5q-14 -41 -27 -81t-27 -80l-3 -9l-8 -27q-2 -7 -2 -13t2 -12t2 -11
q-4 -11 -11 -17q-2 -2 -5.5 -4t-5.5 -2q-1 0 -1.5 0.5t-1.5 0.5q-10 2 -10 12q1 8 1.5 14.5t2.5 14.5l2 10l18 69l1 5q11 36 21 72t23 72q40 112 80 222.5t81 222.5q8 22 13.5 44t12.5 45q1 4 1 8v8q-1 0 -2 0.5t-2 0.5z" />
    <glyph glyph-name="imacron" unicode="&#x12b;" horiz-adv-x="257" 
d="M-18 677h297v-71h-297v71zM173 0h-88v536h88v-536z" />
    <glyph glyph-name="Ibreve" unicode="&#x12c;" horiz-adv-x="338" 
d="M81 838q1 -6 0 -12q-2 -11 -15 -20q-8 -7 -24 -7h-6q-11 1 -14 5.5t-5 10.5q-1 3 -2 6.5t1 8.5q2 3 7.5 8.5t9.5 5.5q2 0 2 -5q-2 -5 -1.5 -11.5t0.5 -8.5q2 -5 8 -7q5 0 13 4q12 7 14 16q1 2 0.5 2.5t-0.5 2.5q1 4 4 8q6 -4 8 -7zM238 723q-5 -5 -10 -9t-10 -9
q-29 -31 -53 -64.5t-45 -68.5q-17 -30 -32.5 -60.5t-26.5 -62.5q-2 -8 -4 -15l-4 -14q-2 -8 -2.5 -15t-1.5 -14q-2 -17 3 -29.5t21 -18.5q15 -6 17 -25q-2 9 -7 12t-12 3h-6.5t-7.5 -1h-4q-10 0 -15.5 5t-10.5 12q-8 14 -9 30.5t2 34.5l2 7q6 29 17 57t25 56q23 47 52 90.5
t67 82.5q14 15 32 30q10 8 20 11q5 2 8.5 3t6.5 1q18 0 20 -19t-1 -34q-8 -41 -21.5 -80.5t-27.5 -79.5q-35 -96 -69 -190.5t-68 -190.5q-14 -41 -27 -81t-27 -80l-3 -9l-8 -27q-2 -7 -2 -13t2 -12t2 -11q-4 -11 -11 -17q-2 -2 -5.5 -4t-5.5 -2q-1 0 -1.5 0.5t-1.5 0.5
q-10 2 -10 12q1 8 1.5 14.5t2.5 14.5l2 10l18 69l1 5q11 36 21 72t23 72q40 112 80 222.5t81 222.5q8 22 13.5 44t12.5 45q1 4 1 8v8q-1 0 -2 0.5t-2 0.5z" />
    <glyph glyph-name="ibreve" unicode="&#x12d;" horiz-adv-x="257" 
d="M39 673q1 -6 0 -12q-2 -11 -15 -20q-8 -7 -24 -7h-6q-11 1 -14 5.5t-5 10.5q-1 3 -2 6.5t1 8.5q2 3 7.5 8.5t9.5 5.5q2 0 2 -5q-2 -5 -1.5 -11.5t0.5 -8.5q2 -5 8 -7q5 0 13 4q12 7 14 16q1 2 0.5 2.5t-0.5 2.5q1 4 4 8q6 -4 8 -7zM173 0h-88v536h88v-536z" />
    <glyph glyph-name="Iogonek" unicode="&#x12e;" horiz-adv-x="338" 
d="M356 -193q-3 -20 -26 -29q-7 -4 -16 -4q-10 0 -17 7q-10 9 -7 24q1 5 3.5 9t5.5 8q7 8 19 17q8 6 9 11q0 6 -2 9q-2 5 -4.5 8.5t-4.5 8.5q-1 2 0 5.5t1 6.5q2 0 5 0.5t5 0.5q3 0 4 -1q8 -6 11.5 -16t1.5 -21q-3 -12 -13 -22q-4 -3 -7 -6.5t-6 -7.5q-4 -6 -5 -9
q-1 -5 3 -9q4 -2 7 -2q8 0 14 6q3 4 5.5 8t5.5 8q1 1 5 1t5 -2zM238 723q-5 -5 -10 -9t-10 -9q-29 -31 -53 -64.5t-45 -68.5q-17 -30 -32.5 -60.5t-26.5 -62.5q-2 -8 -4 -15l-4 -14q-2 -8 -2.5 -15t-1.5 -14q-2 -17 3 -29.5t21 -18.5q15 -6 17 -25q-2 9 -7 12t-12 3h-6.5
t-7.5 -1h-4q-10 0 -15.5 5t-10.5 12q-8 14 -9 30.5t2 34.5l2 7q6 29 17 57t25 56q23 47 52 90.5t67 82.5q14 15 32 30q10 8 20 11q5 2 8.5 3t6.5 1q18 0 20 -19t-1 -34q-8 -41 -21.5 -80.5t-27.5 -79.5q-35 -96 -69 -190.5t-68 -190.5q-14 -41 -27 -81t-27 -80l-3 -9l-8 -27
q-2 -7 -2 -13t2 -12t2 -11q-4 -11 -11 -17q-2 -2 -5.5 -4t-5.5 -2q-1 0 -1.5 0.5t-1.5 0.5q-10 2 -10 12q1 8 1.5 14.5t2.5 14.5l2 10l18 69l1 5q11 36 21 72t23 72q40 112 80 222.5t81 222.5q8 22 13.5 44t12.5 45q1 4 1 8v8q-1 0 -2 0.5t-2 0.5z" />
    <glyph glyph-name="iogonek" unicode="&#x12f;" horiz-adv-x="257" 
d="M293 -193q-3 -20 -26 -29q-7 -4 -16 -4q-10 0 -17 7q-10 9 -7 24q1 5 3.5 9t5.5 8q7 8 19 17q8 6 9 11q0 6 -2 9q-2 5 -4.5 8.5t-4.5 8.5q-1 2 0 5.5t1 6.5q2 0 5 0.5t5 0.5q3 0 4 -1q8 -6 11.5 -16t1.5 -21q-3 -12 -13 -22q-4 -3 -7 -6.5t-6 -7.5q-4 -6 -5 -9
q-1 -5 3 -9q4 -2 7 -2q8 0 14 6q3 4 5.5 8t5.5 8q1 1 5 1t5 -2zM92 325q4 20 13.5 29t18.5 9h4q8 -2 13 -12t2 -24q-5 -20 -13.5 -28t-17.5 -8q-5 0 -6 1q-8 3 -12.5 12t-1.5 21zM86 177q0 -2 -1 -4l-2 -4q-4 -12 -10 -32.5t-11 -42.5q-5 -24 -5 -43.5t12 -19.5q17 0 38 11
t42 26.5t39 32.5t30 28q4 4 11.5 7.5t12.5 3.5q4 0 3 -4q0 -5 -16 -22q-14 -13 -35.5 -32t-45.5 -36t-49 -29.5t-44 -12.5q-18 0 -26.5 11t-10.5 28.5t0.5 38t6.5 40.5q4 15 7 27.5t6 21.5q2 8 14 14t23 6q5 0 9 -3t2 -11z" />
    <glyph glyph-name="Idotaccent" unicode="&#x130;" horiz-adv-x="338" 
d="M215 847q2 -7 -1 -15q-1 -10 -16 -13q-14 0 -16 11q-1 3 1 14q5 16 17 16q5 0 10 -4t5 -9zM238 723q-5 -5 -10 -9t-10 -9q-29 -31 -53 -64.5t-45 -68.5q-17 -30 -32.5 -60.5t-26.5 -62.5q-2 -8 -4 -15l-4 -14q-2 -8 -2.5 -15t-1.5 -14q-2 -17 3 -29.5t21 -18.5
q15 -6 17 -25q-2 9 -7 12t-12 3h-6.5t-7.5 -1h-4q-10 0 -15.5 5t-10.5 12q-8 14 -9 30.5t2 34.5l2 7q6 29 17 57t25 56q23 47 52 90.5t67 82.5q14 15 32 30q10 8 20 11q5 2 8.5 3t6.5 1q18 0 20 -19t-1 -34q-8 -41 -21.5 -80.5t-27.5 -79.5q-35 -96 -69 -190.5t-68 -190.5
q-14 -41 -27 -81t-27 -80l-3 -9l-8 -27q-2 -7 -2 -13t2 -12t2 -11q-4 -11 -11 -17q-2 -2 -5.5 -4t-5.5 -2q-1 0 -1.5 0.5t-1.5 0.5q-10 2 -10 12q1 8 1.5 14.5t2.5 14.5l2 10l18 69l1 5q11 36 21 72t23 72q40 112 80 222.5t81 222.5q8 22 13.5 44t12.5 45q1 4 1 8v8
q-1 0 -2 0.5t-2 0.5z" />
    <glyph glyph-name="dotlessi" unicode="&#x131;" horiz-adv-x="257" 
d="M173 0h-88v536h88v-536z" />
    <glyph glyph-name="IJ" unicode="&#x132;" horiz-adv-x="611" 
d="M238 723q-5 -5 -10 -9t-10 -9q-29 -31 -53 -64.5t-45 -68.5q-17 -30 -32.5 -60.5t-26.5 -62.5q-2 -8 -4 -15l-4 -14q-2 -8 -2.5 -15t-1.5 -14q-2 -17 3 -29.5t21 -18.5q15 -6 17 -25q-2 9 -7 12t-12 3h-6.5t-7.5 -1h-4q-10 0 -15.5 5t-10.5 12q-8 14 -9 30.5t2 34.5l2 7
q6 29 17 57t25 56q23 47 52 90.5t67 82.5q14 15 32 30q10 8 20 11q5 2 8.5 3t6.5 1q18 0 20 -19t-1 -34q-8 -41 -21.5 -80.5t-27.5 -79.5q-35 -96 -69 -190.5t-68 -190.5q-14 -41 -27 -81t-27 -80l-3 -9l-8 -27q-2 -7 -2 -13t2 -12t2 -11q-4 -11 -11 -17q-2 -2 -5.5 -4
t-5.5 -2q-1 0 -1.5 0.5t-1.5 0.5q-10 2 -10 12q1 8 1.5 14.5t2.5 14.5l2 10l18 69l1 5q11 36 21 72t23 72q40 112 80 222.5t81 222.5q8 22 13.5 44t12.5 45q1 4 1 8v8q-1 0 -2 0.5t-2 0.5zM912 765q-6 -17 -13 -32.5t-14 -32.5q0 -1 -2 -5q-1 -10 9 -17q13 -9 18.5 -19
t2.5 -24q-2 -10 -6 -18q-3 -5 -6.5 -9.5t-9.5 -4.5q-8 0 -6 9q0 2 1 4.5t1 4.5l2 4t1 4q4 16 -8 27q-3 2 -9 4q-3 -3 -6 -9q-29 -63 -59.5 -127t-58.5 -127l-12 -24l-1 -2v-1q0 -1 -1.5 -2.5t-1.5 -3.5q-1 -1 3 -7q0 -2 -0.5 -5t-2.5 -3q-9 -3 -12.5 -9.5t-7.5 -12.5
q-30 -60 -62.5 -117.5t-70.5 -114.5q-29 -43 -60.5 -84t-71.5 -78q-14 -13 -29.5 -24.5t-33.5 -21.5q-23 -13 -45 -13q-8 0 -16.5 2.5t-15.5 8.5q-11 8 -14 20t-2 26q0 16 3 34q6 25 18 51q52 118 158 209q32 26 64.5 50.5t68.5 43.5q18 10 37 16.5t39 14.5q1 1 7 4.5t8 7.5
l146 288q4 8 6 14q1 5 -3 6.5t-15 3.5q-67 0 -129.5 -12t-116.5 -26.5t-97.5 -26.5t-71.5 -12q-5 0 -9 0.5t-9 1.5q-10 2 -14 10t-2 16q3 12 15 12q7 0 13 -3q3 -3 15 -3q15 0 41.5 5t60.5 13t72.5 16.5t77 16.5t75 13t65.5 5q25 0 45 -5l1 1l4 8q7 15 14 28t13 25q2 2 8 7
t10 5q3 0 2 -4zM675 334q-14 -7 -29.5 -14t-31.5 -15q-32 -17 -60 -38.5t-55 -45.5q-57 -50 -98 -106.5t-63 -122.5q-2 -7 -4 -13.5t-4 -13.5q-2 -9 -3 -18t1 -18q5 -20 17 -20q7 0 21 7q21 13 38 27q38 33 68 70.5t58 76.5q39 56 74.5 113.5t68.5 116.5l5 11z" />
    <glyph glyph-name="ij" unicode="&#x133;" horiz-adv-x="514" 
d="M92 325q4 20 13.5 29t18.5 9h4q8 -2 13 -12t2 -24q-5 -20 -13.5 -28t-17.5 -8q-5 0 -6 1q-8 3 -12.5 12t-1.5 21zM86 177q0 -2 -1 -4l-2 -4q-4 -12 -10 -32.5t-11 -42.5q-5 -24 -5 -43.5t12 -19.5q17 0 38 11t42 26.5t39 32.5t30 28q4 4 11.5 7.5t12.5 3.5q4 0 3 -4
q0 -5 -16 -22q-14 -13 -35.5 -32t-45.5 -36t-49 -29.5t-44 -12.5q-18 0 -26.5 11t-10.5 28.5t0.5 38t6.5 40.5q4 15 7 27.5t6 21.5q2 8 14 14t23 6q5 0 9 -3t2 -11zM352 317q5 21 14 30t18 9q1 0 2 -0.5t2 -0.5q9 -2 14 -11t2 -23q-3 -13 -10 -25.5t-19 -12.5q-2 0 -8 2
q-8 3 -12.5 12t-2.5 20zM92 -112q41 48 86 89.5t93 76.5q10 35 16.5 64t11.5 51l6 24q0 3 6.5 7.5t13.5 6.5q4 1 10 1q7 0 12.5 -3t3.5 -11q-5 -20 -10.5 -46t-13.5 -58q50 31 103 51q4 1 10 1q10 0 12 -5q-1 -2 -4 -4.5t-11 -5.5q-29 -11 -58.5 -26t-58.5 -34
q-14 -52 -33.5 -112.5t-43 -123.5t-51 -126t-59 -118.5t-66.5 -100.5t-73 -74q-58 -43 -96 -43q-28 0 -39 25t-1 74q11 51 35 107t56 111.5t69 107.5t74 94zM263 24q-42 -32 -80.5 -70t-73.5 -80q-35 -41 -70 -89.5t-65 -100.5t-53.5 -105.5t-35.5 -102.5l-2 -8
q-15 -77 25 -77q29 0 76 43q30 26 58.5 66.5t55 89.5t50 104.5t44.5 112.5t39 112.5t32 104.5z" />
    </font>
</defs>
</svg>
