<?xml version="1.0" standalone="no"?>
<!DOCTYPE svg PUBLIC "-//W3C//DTD SVG 1.1//EN" "http://www.w3.org/Graphics/SVG/1.1/DTD/svg11.dtd" >
<svg xmlns="http://www.w3.org/2000/svg" xmlns:xlink="http://www.w3.org/1999/xlink" version="1.1">
<metadata>
Created by FontForge 20190801 at Mon Feb  8 12:18:51 2021
 By root
Roman Jokiranta
</metadata>
<defs>
<font id="Signature-Sans" horiz-adv-x="300" >
  <font-face 
    font-family="Signature Sans"
    font-weight="400"
    font-stretch="normal"
    units-per-em="1000"
    panose-1="0 0 5 0 0 0 0 0 0 0"
    ascent="800"
    descent="-200"
    x-height="696"
    cap-height="699"
    bbox="-213 -241 1285.44 1046"
    underline-thickness="50"
    underline-position="-100"
    unicode-range="U+0001-206F"
  />
<missing-glyph horiz-adv-x="364" 
d="M33 0v666h265v-666h-265zM66 33h199v600h-199v-600z" />
    <glyph glyph-name=".notdef" horiz-adv-x="364" 
d="M33 0v666h265v-666h-265zM66 33h199v600h-199v-600z" />
    <glyph glyph-name="uni0000" 
 />
    <glyph glyph-name="uni0000" 
 />
    <glyph glyph-name="uni000D" unicode="&#xd;" 
 />
    <glyph glyph-name="uni0001" 
 />
    <glyph glyph-name="uni0002" 
 />
    <glyph glyph-name="uni0003" 
 />
    <glyph glyph-name="uni0004" 
 />
    <glyph glyph-name="uni0005" 
 />
    <glyph glyph-name="uni0006" 
 />
    <glyph glyph-name="uni0007" 
 />
    <glyph glyph-name="uni0008" 
 />
    <glyph glyph-name="uni0009" unicode="&#x9;" 
 />
    <glyph glyph-name="uni000A" unicode="&#xa;" 
 />
    <glyph glyph-name="uni000B" 
 />
    <glyph glyph-name="uni000C" 
 />
    <glyph glyph-name="uni000E" 
 />
    <glyph glyph-name="uni000F" 
 />
    <glyph glyph-name="uni0010" 
 />
    <glyph glyph-name="uni0011" 
 />
    <glyph glyph-name="uni0012" 
 />
    <glyph glyph-name="uni0013" 
 />
    <glyph glyph-name="uni0014" 
 />
    <glyph glyph-name="uni0015" 
 />
    <glyph glyph-name="uni0016" 
 />
    <glyph glyph-name="uni0017" 
 />
    <glyph glyph-name="uni0018" 
 />
    <glyph glyph-name="uni0019" 
 />
    <glyph glyph-name="uni001A" 
 />
    <glyph glyph-name="uni001B" 
 />
    <glyph glyph-name="uni001C" 
 />
    <glyph glyph-name="uni001D" 
 />
    <glyph glyph-name="uni001E" 
 />
    <glyph glyph-name="uni001F" 
 />
    <glyph glyph-name="space" unicode=" " 
 />
    <glyph glyph-name="exclam" unicode="!" horiz-adv-x="118" 
d="M13 490l2 -95l2 -62q0 -57 2 -86q0 -18 5 -40q4 -13 14 -20.5t24 -7.5q23 0 35 19q5 9 7 20.5t3 22.5l2 86l1 73q2 60 2 91q1 14 1 43q1 28 1 83v34q0 24 -17 37q-15 13 -42 11q-32 -3 -40 -30q-4 -11 -4 -77l1 -39zM17 17.5q17 -17.5 42 -17.5t42 17.5t17 43.5t-17 43.5
t-42 17.5t-42 -17.5t-17 -43.5t17 -43.5z" />
    <glyph glyph-name="quotedbl" unicode="&#x22;" horiz-adv-x="253" 
d="M114.5 691q-14.5 11 -30.5 9q-30 -7 -44 -39q-17 -47 -34 -73q-6 -10 -6 -23q0 -9 4 -16q9 -13 28 -13q8 0 12 1q35 11 61 45q13 17 20.5 36.5t7.5 34.5q0 7 -1 10q-3 17 -17.5 28zM234.5 691q-14.5 11 -30.5 9q-30 -7 -44 -39q-17 -47 -34 -73q-6 -10 -6 -23q0 -9 4 -16
q9 -13 28 -13q8 0 12 1q35 11 61 45q13 17 20.5 36.5t7.5 34.5q0 7 -1 10q-3 17 -17.5 28z" />
    <glyph glyph-name="numbersign" unicode="#" horiz-adv-x="553" 
d="M283 160q4 -10 2 -25l-12 -86q-2 -13 3.5 -25t16.5 -19q8 -5 20 -5q17 0 29 9q17 12 22 41q6 30 16 90q3 12 7.5 20t13.5 12q12 5 25 5q7 1 21 1q5 0 13.5 1t14.5 2q18 2 27.5 14t9.5 30q0 14 -7.5 24.5t-20.5 14.5q-15 4 -45 6q-16 2 -24 11t-6 25q4 29 14 87
q3 17 11 25.5t24 10.5q7 1 21 1q6 0 18 1t20 2q17 3 26.5 14.5t9.5 27.5q0 15 -8.5 26.5t-23.5 15.5q-10 2 -22.5 3t-17.5 1q-11 2 -18 5.5t-10 12.5q-2 10 -2 14l1 9l10 70q1 5 1 14q0 15 -7 26q-10 18 -36 18q-14 0 -27 -8q-20 -11 -23 -36l-17 -88q-4 -29 -26 -34
q-20 -3 -38 -2q-14 0 -24 7q-7 5 -8.5 13t-0.5 20q1 11 5 33l6 37q1 5 1 14q0 15 -7 26q-5 9 -15 13.5t-22 4.5q-14 0 -27 -8q-19 -13 -24 -42l-5 -27q-6 -36 -10 -54q-1 -11 -10 -25q-5 -7 -13.5 -9.5t-21.5 -3.5q-5 0 -17 -1t-22 -3q-28 -8 -31 -35l-1 -9q0 -22 20 -33
q10 -6 35 -10q21 -2 28.5 -11t5.5 -29q-8 -54 -13 -81q-4 -20 -14 -29q-6 -5 -13 -7t-19 -3q-7 -1 -20.5 -2t-22.5 -4q-14 -3 -21.5 -14.5t-7.5 -27.5q0 -13 7 -23.5t19 -14.5q8 -3 19.5 -4.5t15.5 -2.5q17 -2 23.5 -9.5t5.5 -23.5q0 -8 -1.5 -19t-2.5 -19q-1 -9 -4.5 -30
t-3.5 -39q0 -16 12 -27t28 -11q20 0 33 12t17 33l17 94q4 29 23 35q7 3 23 4t24 0q23 -2 28 -17zM213 305l15 89q6 36 43 36q17 0 26 -1q33 -3 29 -35q-6 -49 -15 -94q-6 -28 -38 -30h-17q-47 0 -43 35z" />
    <glyph glyph-name="dollar" unicode="$" horiz-adv-x="517" 
d="M469 84q-51 -62 -146 -77q-10 -2 -28 -4l3 -69q-8 -27 -40 -30q-27 -2 -42 11q-17 13 -17 37l4 52q-41 7 -71 20q-38 15 -67 44q-54 52 -64 124q-1 4 -1 13q0 12 4 20q13 25 42 25q21 0 33.5 -9.5t20.5 -32.5q2 -6 7.5 -20.5t11.5 -24.5q22 -38 72 -51q38 -10 69 -10
q44 0 85 16q51 20 65 66q4 12 4 26q0 29 -19 51q-21 23 -59 30q-25 4 -73 8q-40 2 -70.5 5.5t-58.5 12.5q-46 16 -76 45q-52 49 -52 131q0 72 55 132q40 44 107 62q23 7 51 10l-3 67q8 27 40 30q27 2 42 -11q17 -13 17 -37l-4 -50q55 -7 94 -28q57 -29 84 -77q8 -14 8 -27
q0 -11 -6 -23q-20 -32 -49 -32q-17 0 -32 20q-10 12 -21 24t-23 19q-30 20 -70 23q-20 2 -30 2h-6q-40 0 -76 -13q-55 -20 -71 -66q-4 -12 -4 -27q0 -26 14.5 -46t40.5 -29q30 -11 73 -13q10 -1 39.5 -2.5t54 -5t45.5 -9.5q63 -17 98 -57q43 -47 43 -120q0 -68 -48 -125z
" />
    <glyph glyph-name="percent" unicode="%" horiz-adv-x="641" 
d="M420 442l-11 -21q-48 -89 -70 -127q-26 -45 -47 -83l-28 -50l-74 -132q-18 -30 -48 -30q-11 0 -19.5 5.5t-11.5 14.5q-2 8 -2 11q0 9 6 23l51 94l37 68l13 24l72 135q-7 -14 62 111l39 72l26 47q22 40 34 60q18 33 52 33q14 0 23.5 -7t10.5 -18l1 -6q0 -10 -8 -26
l-50 -91zM64 322q-34 22 -49 66q-12 34 -14 78v10q0 45 2 71t11 52q18 56 63 76q25 13 65 13q32 0 55 -9q47 -18 69 -74q13 -33 16 -81q3 -73 -11 -137q-9 -43 -55 -67q-31 -18 -79 -18q-44 0 -73 20zM118.5 388q11.5 -7 23.5 -7q31 0 44 36q7 21 8 45.5t1 30.5v13
q-1 9 -2 22.5t-4 31.5q-5 27 -22 40q-12 9 -26 9q-13 0 -24 -8t-17 -21q-10 -23 -12 -63q0 -37 1 -56q0 -31 12 -54q6 -12 17.5 -19zM629 92q-9 -43 -55 -67q-31 -18 -79 -18q-44 0 -73 20q-34 22 -49 66q-12 34 -14 78v10q0 45 2 71t11 52q18 56 63 76q25 13 65 13
q32 0 55 -9q47 -18 69 -74q13 -33 16 -81q3 -73 -11 -137zM553 211q-1 9 -2 22.5t-4 31.5q-5 27 -22 40q-12 9 -26 9q-13 0 -24 -8t-17 -21q-10 -23 -12 -63q0 -37 1 -56q0 -31 12 -54q6 -12 17.5 -19t23.5 -7q31 0 44 36q7 21 8 45.5t1 30.5v13z" />
    <glyph glyph-name="ampersand" unicode="&#x26;" horiz-adv-x="519" 
d="M327 -175q0 -14 1 -21q4 -33 29 -41q12 -4 20 -4q28 0 39 23q5 9 6.5 18t1.5 24v245q0 147 1 221q0 18 8 27t26 11q5 1 16 2.5t18 4.5q12 4 19 14t7 23q0 23 -18 33q-16 10 -44 10h-167q-44 2 -69 11q-69 27 -81 88q-2 12 -2 18q0 22 13 41.5t34 28.5q34 14 71 11
q18 -1 27 -8.5t12 -24.5l2 -16q3 -31 27 -41q12 -5 23 -5q17 0 30 9.5t16 29.5q2 30 2 43l-1 29q-2 38 -35 51q-19 6 -57 16q-33 6 -67 6q-39 0 -71 -8q-65 -19 -95 -61q-33 -46 -33 -99q0 -22 6 -46q8 -34 39 -75q1 -1 6 -8t5 -14t-4 -12q-5 -10 -16 -16q-43 -36 -61 -87
q-11 -36 -11 -70q0 -65 33 -112q30 -45 88 -71q44 -20 98 -20q17 0 25 1q17 2 30.5 4.5t22.5 4.5q22 3 28 -19q2 -14 2 -21v-74v-74zM318 175q-7 -32 -27 -51q-26 -27 -68 -27q-41 0 -70 22q-44 34 -44 93q0 29 12 54q19 36 63 52q34 11 75 11q12 0 38 -2q28 -3 29 -31v-32
q2 -56 -8 -89z" />
    <glyph glyph-name="quotesingle" unicode="'" horiz-adv-x="133" 
d="M114.5 691q-14.5 11 -30.5 9q-30 -7 -44 -39q-17 -47 -34 -73q-6 -10 -6 -23q0 -9 4 -16q9 -13 28 -13q8 0 12 1q35 11 61 45q13 17 20.5 36.5t7.5 34.5q0 7 -1 10q-3 17 -17.5 28z" />
    <glyph glyph-name="parenleft" unicode="(" horiz-adv-x="234" 
d="M5 284q10 -104 60 -197q38 -72 89 -113q27 -24 56 -20q11 1 17.5 7t6.5 15q0 8 -5 16q-4 7 -10.5 15t-9.5 12q-45 52 -74 124q-29 70 -38 153q-2 38 -2 56q0 19 2 55q10 89 39 160q24 58 59 101l15 19q13 16 18 23q6 9 6 17q0 10 -8 16.5t-23 6.5q-19 0 -35 -10
q-14 -8 -25.5 -19t-27.5 -29q-56 -68 -86 -157q-27 -85 -29 -182q2 -46 5 -69z" />
    <glyph glyph-name="parenright" unicode=")" horiz-adv-x="235" 
d="M235 374l-3 31q-8 59 -9 64q-13 80 -54 150q-36 67 -85 109q-27 23 -53 22q-16 0 -26 -11q-4 -5 -4 -13q0 -9 7 -18q12 -16 19 -24l13 -16q46 -59 73 -138q28 -86 28 -167q0 -19 -1 -29q-2 -50 -10 -93q-22 -118 -89 -205q-37 -47 -34 -43q-7 -8 -7 -18t9.5 -16.5
t24.5 -6.5q18 0 35 11q29 19 59 58q46 57 75 138q32 90 32 193v22z" />
    <glyph glyph-name="asterisk" unicode="*" horiz-adv-x="298" 
d="M162 697q-4 1 -11 1q-14 0 -24 -10q-10 -11 -10 -31l1 -43q0 -8 -4 -13.5t-10 -5.5q-11 0 -21 3q-9 3 -23 9t-26 6q-15 0 -24.5 -11.5t-6.5 -27.5q5 -18 26 -27l22 -7q14 -3 22 -7q16 -6 15 -19q-1 -8 -8 -16l-30 -41q-6 -9 -6 -18q0 -14 9 -23q11 -11 24 -11q16 0 29 16
q6 8 13.5 20.5t13.5 20.5q9 13 19 13q6 0 9.5 -3t7.5 -9q3 -4 25 -37q8 -10 15.5 -15.5t17.5 -5.5q13 0 23 9.5t10 22.5q0 15 -12 30q-5 7 -13.5 17.5t-12.5 18.5q-6 8 -6 13q0 11 14 17l25 8q11 3 21 7t17 11t7 21q0 16 -10 25q-9 8 -22 8q-4 0 -14 -2q-12 -4 -21.5 -8
t-18.5 -7q-7 -3 -13 -3q-14 0 -16 20q-1 6 -1 16q0 3 0.5 11t-0.5 17v13q-5 20 -22 27z" />
    <glyph glyph-name="plus" unicode="+" horiz-adv-x="295" 
d="M273 313q-12 -5 -36 -7h-46v-36v-1q0 -27 -6 -40q-13 -24 -40 -24q-24 0 -37 22q-5 12 -7 36v43h-35q-27 0 -41 6q-22 12 -25 36q0 29 23 40q16 8 37 8h42v38q0 25 7 41q12 22 36 25q29 0 40 -24q7 -14 7 -37v-43h38q27 0 40 -6q25 -12 25 -40q0 -24 -22 -37z" />
    <glyph glyph-name="comma" unicode="," horiz-adv-x="133" 
d="M114.5 108q-14.5 11 -30.5 9q-30 -7 -44 -39q-17 -47 -34 -73q-6 -11 -6 -23q0 -9 4 -16q9 -14 28 -14q4 0 12 2q35 11 61 45q13 17 20.5 36.5t7.5 34.5q0 7 -1 10q-3 17 -17.5 28z" />
    <glyph glyph-name="hyphen" unicode="-" horiz-adv-x="295" 
d="M273 313q-12 -5 -36 -7h-39h-25h-48h-23h-36q-27 0 -41 6q-22 12 -25 36q0 29 23 40q16 8 37 8h117h52h1q27 0 40 -6q25 -12 25 -40q0 -24 -22 -37z" />
    <glyph glyph-name="period" unicode="." horiz-adv-x="118" 
d="M17 17.5q17 -17.5 42 -17.5t42 17.5t17 43.5t-17 43.5t-42 17.5t-42 -17.5t-17 -43.5t17 -43.5z" />
    <glyph glyph-name="slash" unicode="/" horiz-adv-x="390" 
d="M373 855q-13 16 -31 16q-10 0 -20 -5q-10 -6 -16 -18.5t-8 -15.5l-42 -130l-15 -44q-47 -143 -64 -201q-6 -18 -14 -40q-35 -102 -55 -168l-46 -142q-11 -31 -31 -93l-29 -94q-2 -12 -2 -19q0 -35 30 -60q15 -10 26 -10q18 0 31 19q3 5 7.5 15t7.5 18q24 79 51 159l19 59
l69 220q39 124 88 274l22 67q22 69 35 117q4 12 4 27q0 24 -15 45z" />
    <glyph glyph-name="zero" unicode="0" horiz-adv-x="626" 
d="M555 385l-1 23q-5 70 -21 123q-23 69 -65 110q-37 35 -80 48q-34 11 -75 11q-34 0 -63 -7q-61 -12 -102 -55t-60 -117q-18 -69 -18 -164q0 -39 2 -58q6 -69 13 -108q13 -68 50 -116q37 -45 89 -62q39 -14 85 -14q22 0 44 3q81 12 131 73q38 48 53 111q17 64 19 177
q-1 5 -1 22zM435 214q-13 -51 -36 -79q-16 -21 -39 -32t-48 -11q-45 0 -75 29q-24 22 -38 61q-16 41 -19 100q-3 50 -3 84q2 85 17 137q14 47 41 74q30 29 80 29q38 0 67 -23q26 -20 44 -65q16 -43 19 -101q2 -28 2 -41l1 -21q-2 -93 -13 -141z" />
    <glyph glyph-name="one" unicode="1" horiz-adv-x="480" 
d="M308 624q0 19 -1 28q-1 19 -12 31t-28 15q-27 3 -51 -9q-30 -14 -71 -36q-45 -26 -58 -35q-17 -12 -17 -33q0 -22 18 -36q10 -7 22 -7t25 5q6 2 18 7t22 8q8 2 11 2q16 0 19 -21q2 -12 2 -37v-319q0 -39 -1 -58q0 -30 -31 -35l-16 -2l-16 -2q-17 -4 -26.5 -15t-9.5 -29
q0 -23 18 -35q14 -10 43 -10l91 -1l91 1q16 0 28 4q32 8 32 43q0 24 -20 36q-11 7 -25.5 8t-16.5 1q-34 1 -38 32q-2 12 -2 18v243v238z" />
    <glyph glyph-name="two" unicode="2" horiz-adv-x="602" 
d="M384 0q66 0 98 1q21 1 34 11.5t14 28.5q2 13 2 39q0 21 -1 31q-1 22 -14.5 33t-33.5 11q-19 0 -30.5 -9.5t-19.5 -25.5q-8 -19 -21 -24q-18 -4 -26 -4h-65q-9 0 -29 4q-12 2 -12 13l2 8q4 8 7 11l49 51l75 77q34 38 59 78q44 68 44 145q0 23 -2 35q-16 106 -110 156
q-50 27 -110 27q-10 0 -32 -2q-84 -8 -145 -47q-35 -22 -42 -49q-5 -18 -5 -32q0 -9 2 -25q2 -23 15.5 -34.5t32.5 -11.5q13 0 22 4q22 9 27 39q7 36 33 47q35 16 74 16q16 0 32 -3q40 -6 64 -33q18 -18 25.5 -41.5t7.5 -52.5q0 -52 -36 -104q-27 -40 -85 -99l-99 -98
l-22 -23l-43 -45q-20 -24 -27 -38q-5 -9 -5 -21q0 -24 19 -35q15 -9 41 -9h161h75z" />
    <glyph glyph-name="three" unicode="3" horiz-adv-x="583" 
d="M349 6q32 7 61 22q56 31 83 84q20 40 20 89q0 101 -74 160q-17 12 -15 26q2 10 12 24q43 54 43 112q0 17 -5 40q-19 79 -86 112q-42 21 -95 21q-78 0 -151 -42q-27 -18 -35 -38q-8 -19 -8 -43q0 -16 3 -31q3 -17 15.5 -26.5t32.5 -9.5t35 14q6 7 8.5 14.5t4.5 19.5
q5 30 27 39q26 10 56 10q17 0 34 -3q30 -6 47 -29q14 -22 14 -44q0 -12 -5 -29q-15 -49 -67 -76l-20 -9q-9 -3 -25 -11q-22 -13 -22 -38q2 -27 26 -35q11 -4 24.5 -6.5t19.5 -3.5q49 -8 75 -41q22 -27 22 -66q0 -43 -19.5 -71.5t-57.5 -40.5q-24 -8 -52 -8q-36 0 -69 13
q-22 7 -31 24q-4 8 -8 26q-5 20 -14.5 30t-26.5 12q-4 1 -10 1q-18 0 -30.5 -10.5t-14.5 -28.5q-1 -12 -1 -27v-21q2 -22 15 -38q15 -20 52 -39q65 -33 139 -35q41 0 73 7z" />
    <glyph glyph-name="four" unicode="4" horiz-adv-x="664" 
d="M488 625q0 9 -2 27q-4 39 -38 46q-10 2 -29 2q-36 0 -56 -23q-15 -18 -34 -45l-165 -243l-21 -31q-8 -12 -19 -27.5t-23 -34.5q-15 -21 -23 -38t-8 -37q0 -17 9 -30t27 -17q15 -3 32 -3h50h50q66 0 99 -1q16 0 27 -4q9 -3 14.5 -12t5.5 -21q0 -18 -6.5 -27t-22.5 -13
q-8 -1 -22 -5q-24 -9 -29 -35q-3 -28 18 -42q14 -10 42 -10l71 -1l71 1q15 0 23 1q20 4 30 16.5t10 28.5q0 13 -7 25q-6 9 -15.5 13t-22.5 7q-14 4 -19 7q-16 8 -16 35q0 14 8 23.5t22 11.5q9 1 17.5 2t17.5 2q17 3 28 14t12 28q2 17 -6 31t-24 19q-12 3 -40 5q-31 3 -35 32
q-1 5 -1 17v155v151zM222 290q0 8 6 17q18 28 56 84q16 21 46 65l18 26q8 9 17 17q3 3 6 3q6 0 8 -7q5 -15 5 -28q1 -45 1 -136q0 -21 -2 -32q-4 -26 -35 -28q-7 -1 -22 -1l-80 1q-24 2 -24 19z" />
    <glyph glyph-name="five" unicode="5" horiz-adv-x="612" 
d="M125 676q-8 -14 -8 -38v-220q0 -22 1 -34q1 -22 14 -34.5t36 -12.5q24 0 49 17q41 26 86 26q38 0 66 -17.5t46 -50.5q20 -37 20 -75q0 -11 -4 -35q-16 -76 -87 -98q-29 -10 -61 -10q-34 0 -75 13q-34 13 -39 44q-1 14 -8 29q-12 22 -40 22q-20 0 -33.5 -9.5t-15.5 -28.5
q-2 -14 -2 -42q2 -38 30 -59q35 -27 86 -45q53 -18 106 -18q24 0 37 2q93 11 152 71q25 26 40 60q21 51 21 105q0 111 -77 178q-60 54 -147 54q-23 0 -67 -8l-9 -1q-12 0 -18.5 6.5t-7.5 20.5q-1 23 -1 75q0 10 4 24q5 12 14.5 16t23.5 4h107q22 0 32 -11q4 -4 8.5 -11.5
t6.5 -11.5q14 -27 43 -27q6 0 10 1q33 3 39 38q3 18 3 38q0 10 -2 32q-3 31 -27 40q-16 6 -34 6q-228 0 -276 -1q-29 0 -42 -24z" />
    <glyph glyph-name="six" unicode="6" horiz-adv-x="597" 
d="M527 246q-3 53 -26 96q-30 54 -83 82q-49 26 -105 26q-22 0 -50 -5l-51 -13l-6 -1q-8 0 -12 6t-3 15q1 13 5 30t9 29q21 48 55 72q35 25 80 25q35 0 43 -19l8 -21q4 -16 16.5 -24.5t29.5 -8.5q19 0 32 10.5t15 30.5q1 9 1 28q0 18 -1 27q-3 31 -28 43q-21 12 -45 18
q-28 9 -67 9q-23 0 -46 -3q-97 -12 -156 -87q-36 -49 -52 -114q-20 -77 -20 -184q0 -43 4 -76q6 -74 37 -131q34 -62 95 -87q47 -19 96 -19q43 0 86 15q76 28 114 103q25 49 25 112v16zM191 315q18 21 54 35q28 11 53 11q19 0 43 -7q59 -19 74 -80q6 -22 6 -46
q0 -34 -13 -64q-30 -71 -112 -71q-34 0 -60 19q-29 21 -46 63q-14 39 -14 87q-2 34 15 53z" />
    <glyph glyph-name="seven" unicode="7" horiz-adv-x="590" 
d="M214 700q-63 0 -94 -1q-21 -1 -34 -11.5t-14 -29.5q-2 -13 -2 -39q0 -22 1 -32q2 -21 14.5 -33t32.5 -12q38 0 50 36q11 28 37 29l22 1q86 0 129 -1q12 0 21 -3q15 -6 15 -20q0 -3 -2 -11l-30 -85l-73 -195l-62 -164q-11 -31 -41 -35l-26 -5q-26 -8 -31 -35
q-3 -27 17 -43q14 -10 44 -10l70 -1l70 1q14 0 27 3q17 3 26.5 15t9.5 28q0 15 -9 27q-8 10 -32 19q-19 7 -19 22q0 11 3 21q40 108 61 162l60 159q34 88 50 132q15 38 15 61q0 34 -24 42q-15 6 -38 8h-162h-82z" />
    <glyph glyph-name="eight" unicode="8" horiz-adv-x="603" 
d="M332 1q52 3 93 21q63 27 90 84q18 39 18 81q0 66 -40 112q-12 13 -48 45q-11 11 -11 21q0 9 5 15q6 9 15 18q48 56 48 122q0 91 -74 143q-51 36 -129 36q-30 1 -70 -9q-78 -22 -111 -90q-20 -41 -20 -91q0 -41 19 -79q10 -18 24.5 -34t16.5 -19q10 -10 10 -20
q0 -8 -6 -14q-5 -6 -11 -11q-32 -24 -49 -47q-32 -42 -32 -96q0 -14 1 -21q12 -106 110 -147q27 -12 56.5 -16.5t66.5 -4.5q17 0 28 1zM236 587q24 19 63 19q30 0 52 -11q46 -21 46 -81q0 -39 -30 -66q-16 -15 -36 -27q-12 -6 -23 -6q-13 0 -29 7q-38 17 -58 43
q-18 23 -16 51q0 47 31 71zM409.5 137q-14.5 -18 -39.5 -29q-34 -15 -71 -15q-38 0 -75 19q-46 24 -46 72q-1 33 25 63q32 35 76 50q9 3 17 3q14 0 36 -9q40 -19 60 -37q16 -15 24 -33t8 -44q0 -22 -14.5 -40z" />
    <glyph glyph-name="nine" unicode="9" horiz-adv-x="600" 
d="M152 288q59 -43 131 -43q28 0 57 6q14 3 25.5 6.5t20.5 5.5l6 1q9 0 13 -5.5t3 -14.5q-1 -20 -10 -42q-16 -49 -53 -77q-42 -31 -101 -31q-17 0 -26 1q-8 1 -24.5 2.5t-27.5 0.5q-19 -1 -29.5 -13.5t-10.5 -29.5q0 -8 4 -18q9 -21 37 -28q36 -8 81 -8q50 0 90 11
q63 17 104 62q44 47 64 119q22 80 24 186q0 40 -3 80q-8 75 -36 128q-35 66 -101 92q-40 18 -90 18q-20 0 -41 -3q-114 -17 -164 -116q-25 -47 -25 -107q0 -21 3 -41q11 -90 79 -142zM407 380q-42 -46 -107 -46q-31 0 -58 13q-45 22 -59 74q-6 24 -6 47q0 38 18 74
q33 62 106 62q35 0 62 -20q31 -22 46 -64q14 -40 14 -79q1 -3 1 -9q0 -35 -17 -52z" />
    <glyph glyph-name="colon" unicode=":" horiz-adv-x="118" 
d="M17 596.5q17 -17.5 42 -17.5t42 17.5t17 43.5t-17 43.5t-42 17.5t-42 -17.5t-17 -43.5t17 -43.5zM17 17.5q17 -17.5 42 -17.5t42 17.5t17 43.5t-17 43.5t-42 17.5t-42 -17.5t-17 -43.5t17 -43.5z" />
    <glyph glyph-name="semicolon" unicode=";" horiz-adv-x="149" 
d="M48 595.5q17 -17.5 42 -17.5t42 17.5t17 43.5t-17 43.5t-42 17.5t-42 -17.5t-17 -43.5t17 -43.5zM114.5 108q-14.5 11 -30.5 9q-30 -7 -44 -39q-17 -47 -34 -73q-6 -11 -6 -23q0 -9 4 -16q9 -14 28 -14q4 0 12 2q35 11 61 45q13 17 20.5 36.5t7.5 34.5q0 7 -1 10
q-3 17 -17.5 28z" />
    <glyph glyph-name="less" unicode="&#x3c;" horiz-adv-x="550" 
d="M501 77l-451 207v49l451 235v-78l-359 -178l359 -157v-78zM221 622z" />
    <glyph glyph-name="equal" unicode="=" horiz-adv-x="295" 
d="M273 383q-12 -5 -36 -7h-39h-25h-48h-23h-36q-27 0 -41 6q-22 12 -25 36q0 29 23 40q16 8 37 8h117h52h1q27 0 40 -6q25 -12 25 -40q0 -24 -22 -37zM273 243q-12 -5 -36 -7h-39h-25h-48h-23h-36q-27 0 -41 6q-22 12 -25 36q0 29 23 40q16 8 37 8h117h52h1q27 0 40 -6
q25 -12 25 -40q0 -24 -22 -37z" />
    <glyph glyph-name="greater" unicode="&#x3e;" horiz-adv-x="550" 
d="M50 155l359 157l-359 178v78l451 -235v-49l-451 -207v78zM221 622z" />
    <glyph glyph-name="question" unicode="?" horiz-adv-x="379" 
d="M106 254q4 -32 8 -49q4 -13 16.5 -22t25.5 -7q33 5 38 38q2 30 2 46l1 23q0 27 14 37q6 5 37 24q57 33 90 76q41 54 41 114q0 28 -11 56q-21 59 -78 88q-47 22 -100 22q-43 0 -79 -11q-57 -15 -93 -44q-18 -13 -18 -35q0 -10 5 -20q12 -22 35 -22q9 0 18 3q8 3 21 9
t21 10q39 18 76 18q7 0 23 -2q34 -5 54 -27t20 -54q0 -16 -4 -29q-12 -41 -50 -65q-28 -19 -78 -45q-43 -23 -40 -65zM189 103q-17 17 -42 17q-23 0 -40 -17.5t-17 -41.5q0 -26 16.5 -43.5t41.5 -17.5t41.5 17t16.5 43t-17 43z" />
    <glyph glyph-name="at" unicode="@" horiz-adv-x="673" 
d="M673 401q0 -65 -22 -118q-25 -62 -71 -93q-40 -24 -77 -24q-34 0 -68 20q-16 8 -27 8q-12 0 -30 -8q-37 -19 -81 -19q-60 0 -100 38q-46 42 -46 116q0 53 27 109q29 56 89 89q45 25 104 28l17 1q44 0 78 -12q27 -10 36 -27q9 -15 9 -32q0 -9 -1 -13q-6 -40 -10 -59
l-13 -91q-2 -14 -2 -21l1 -14q2 -9 8 -15t15 -6q3 0 11 2q26 10 40 37q23 42 23 102q0 65 -27 112q-21 42 -57 66q-38 26 -82 29q-22 2 -34 2q-69 0 -132 -30q-72 -37 -110 -107q-40 -72 -40 -162q0 -72 38 -123q44 -60 128 -84q42 -12 89 -12h9q40 1 91 21q22 10 39 10h8
q29 -6 36 -33q2 -8 2 -12q0 -20 -19 -36q-19 -15 -57 -25h-1q-44 -13 -99 -16h-17q-86 0 -158 30q-92 38 -142 113q-40 63 -46 132l-2 22v8q1 96 42 185q29 61 70 102q75 75 183 99q50 9 88 9h6q62 0 114 -19q43 -18 80 -53q76 -73 88 -184q2 -28 2 -42zM412 431
q0 16 -15 20q-7 2 -17 4h-4l-14 -1q-33 -1 -63 -19q-26 -16 -40 -45.5t-14 -60.5q0 -17 2 -24q4 -22 20 -36.5t36 -14.5h1q30 0 56.5 19.5t31.5 47.5q8 31 18 95l2 10v5z" />
    <glyph glyph-name="A" unicode="A" horiz-adv-x="623" 
d="M221 548q-2 -7 -4 -12l-48 -131q-13 -39 -41 -115l-61 -168q-14 -36 -24 -70q-3 -7 -3 -15q0 -15 13 -27q10 -10 33 -10t37 10q16 13 27 39l15 41q6 18 20 54q6 13 16 25q7 8 17 10.5t24 2.5h97h49q38 0 52 -37q21 -56 37 -97q10 -28 27 -39t44 -9q15 1 24.5 9.5
t10.5 22.5v7q0 11 -3 21l-13 37l-18 51l-64 175l-19 55l-52 145l-14 39q-8 20 -16.5 44t-18.5 51q-6 19 -18.5 30.5t-30.5 12.5q-19 1 -28.5 -4.5t-18 -23t-26.5 -65.5l-18 -47q-2 -5 -4 -12zM250 309q0 6 1 9q8 30 18 56l9 25q19 50 24 55q4 7 12 7q7 0 11 -8
q14 -28 19 -42q14 -36 31 -88q3 -6 3 -13q0 -9 -9 -17q-8 -5 -23 -7l-28 -1q-31 0 -47 2q-21 3 -21 22z" />
    <glyph glyph-name="B" unicode="B" horiz-adv-x="617" 
d="M90 10q16 -11 42 -11l67 1q45 0 135 2q59 2 106 23q70 33 94 101q12 36 12 73q0 11 -2 33q-9 71 -62 121q-14 12 -14 27q0 14 6 27q17 46 17 91q0 26 -4 46q-18 93 -102 133q-46 23 -108 23l-84 1h-13q-53 0 -75 -6t-28.5 -24.5t-6.5 -63.5v-71q0 -397 1 -481
q0 -31 19 -45zM184 587.5q8 8.5 26 8.5q43 1 97 -2q32 -3 54 -25q26 -26 26 -72q0 -30 -14 -52q-20 -32 -64 -39q-28 -3 -56 -3q-17 0 -49 2q-15 1 -23 11t-8 27v59q0 49 1 59q2 18 10 26.5zM208 299h103q45 -2 75 -13q28 -11 42.5 -33t14.5 -51q0 -37 -18 -60
q-20 -25 -56 -32q-24 -4 -76 -8l-37 -1l-37 1q-15 0 -26 4t-15 13t-5 22q0 104 1 127q3 29 34 31z" />
    <glyph glyph-name="C" unicode="C" horiz-adv-x="685" 
d="M372 700q-45 -1 -89 -15q-81 -25 -148 -95q-37 -39 -62 -90q-33 -67 -33 -151q0 -14 2 -38q6 -65 38 -125q21 -40 59 -81q46 -46 101 -72q67 -33 147 -33q19 0 55 4q53 8 95 29q46 22 73 49q14 14 14 32q0 14 -8 26q-17 25 -42 25q-11 0 -23 -6q-11 -5 -31 -19
q-60 -38 -131 -38q-82 0 -147 48q-48 37 -74 86q-25 51 -25 109q0 12 2 34q16 138 139 196q50 24 101 24q40 0 82 -14q25 -8 47.5 -22t25.5 -16q22 -14 35.5 -21t25.5 -7q21 0 36 21q8 13 8 26q0 14 -6.5 24t-18.5 21q-33 31 -78 54q-72 37 -154 35h-16z" />
    <glyph glyph-name="D" unicode="D" horiz-adv-x="702" 
d="M61 20q15 -19 47 -19q29 -1 87 -1l51 1q33 0 101 2q58 3 118 32q61 30 111 86q49 55 68 116q18 53 18 115q0 21 -1 32q-7 78 -46 143q-29 47 -71 84q-36 32 -78 54q-71 35 -160 35l-108 1h-13q-67 0 -93 -6.5t-34 -27t-8 -72.5v-59v-480q0 -21 11 -36zM153 566
q5 31 35 31h82h41q66 0 116 -28q29 -14 54 -38q50 -46 68 -106q11 -33 11 -75q0 -60 -26 -111q-22 -44 -68 -82q-56 -45 -129 -53q-26 -2 -38 -2h-100q-13 0 -28 5q-19 8 -19 35l-1 406q0 6 2 18z" />
    <glyph glyph-name="E" unicode="E" horiz-adv-x="576" 
d="M90 12q9 -7 19 -9t25 -3h155t155 1q19 0 38 8q12 6 18.5 19.5t4.5 29.5q-5 33 -31 40q-20 5 -38 5q-149 0 -224 1q-28 0 -35 19q-4 16 -4 25q0 78 1 118q0 27 29 32q9 2 26 2h109q25 0 39 8q11 6 17.5 17t6.5 25q0 38 -32 48q-16 4 -37 4q-40 1 -120 1q-17 0 -27 9
t-11 25l-1 64l1 63q0 27 28 32q6 2 19 2h212q16 0 32 3q30 6 36 34q2 12 2 17q0 22 -17 36q-14 12 -44 12l-158 1h-19q-96 0 -134 -6.5t-49.5 -26.5t-11.5 -71v-61l1 -480q0 -30 19 -44z" />
    <glyph glyph-name="F" unicode="F" horiz-adv-x="543" 
d="M82 20q14 -18 38 -18q41 0 49 35q4 15 4 33v190q2 28 20 35q11 4 28 4q41 1 122 1q22 0 36 9q21 13 21 42q0 18 -9 31t-26 17q-15 3 -33 3q-9 1 -29 1h-30h-60q-27 0 -35 19q-5 11 -5 27v102q0 16 5 26q7 20 37 20q9 1 27 1h27h53q88 0 132 1q22 0 35.5 13.5t13.5 36.5
q0 30 -24 43q-14 8 -38 8l-158 1h-13q-100 0 -139 -7.5t-50 -30t-11 -81.5v-48q0 -394 1 -478q0 -24 11 -36z" />
    <glyph glyph-name="G" unicode="G" horiz-adv-x="773" 
d="M472 379q-11 -14 -11 -31q0 -10 5 -25q10 -24 45 -26q21 -1 64 -1q11 0 21 -3q19 -4 19 -22q0 -12 -5 -22q-23 -58 -76 -97q-65 -49 -146 -49q-96 0 -164 62q-38 33 -62 83q-19 46 -19 92q0 45 8 77q17 72 79 124q67 57 155 57q11 0 33 -2q58 -7 111 -43
q13 -7 20.5 -10.5t18.5 -3.5q23 0 40 22q11 13 11 27t-6 23t-18 19q-40 33 -94 52q-53 18 -114 18q-21 0 -32 -1q-65 -6 -121 -34q-60 -28 -109 -84q-37 -42 -58 -92q-27 -64 -27 -143q0 -81 35 -153q28 -56 76 -101q45 -42 100 -65q66 -27 135 -27q23 0 45 3q110 13 195 93
q53 50 79 112q31 72 27 143q-1 16 -10 27t-24 15q-13 4 -33 4l-58 1q-62 0 -96 -2q-27 0 -39 -17z" />
    <glyph glyph-name="H" unicode="H" horiz-adv-x="611" 
d="M541 627q0 20 -2 30q-1 16 -10 26.5t-23 13.5q-6 2 -17 2q-25 0 -39 -18q-10 -14 -10 -43q-1 -67 -1 -210q0 -32 -33 -35q-18 -2 -26 -2q-57 1 -172 1q-31 1 -35 31q-1 6 -1 18q0 127 -1 187q0 18 -1 26q-1 25 -15.5 35.5t-36.5 10.5q-14 0 -28 -10.5t-16 -34.5
q-3 -46 -3 -171l-1 -347v-86q0 -22 10 -36q15 -18 38 -18q41 0 50 36q3 15 3 32q1 12 1 36v37v72q0 30 1 45q2 29 29 33q10 2 29 2q115 0 172 -1q32 0 35 -32q2 -20 2 -29v-96q0 -56 1 -83q1 -41 44 -49q19 -2 34 7.5t19 28.5q3 17 3 32v278v281z" />
    <glyph glyph-name="I" unicode="I" horiz-adv-x="242" 
d="M70 41q0 -19 15 -30t36 -11t36 11.5t15 32.5v611q0 21 -15.5 32.5t-36.5 11.5q-20 0 -35 -11.5t-15 -32.5v-614z" />
    <glyph glyph-name="J" unicode="J" horiz-adv-x="588" 
d="M518 626q0 10 -2 28q-1 15 -9 26t-20 16q-9 4 -21 4q-32 0 -42 -21.5t-10 -68.5l1 -70v-290q-2 -38 -12 -65q-17 -49 -61 -69q-29 -14 -64 -14q-19 0 -42 5q-50 13 -71 54q-14 27 -22 76q0 3 -2 17t-9 25q-13 22 -42 22q-20 0 -33 -10t-16 -29l-1 -15q0 -74 33 -134
q39 -75 115 -100q39 -14 86 -14q22 0 44 3q123 18 177 134q23 50 23 116v187v187z" />
    <glyph glyph-name="K" unicode="K" horiz-adv-x="578" 
d="M70 287q0 -158 1 -237q0 -23 13 -36.5t38 -13.5q17 0 30 9t17 26q3 17 3 32q1 38 1 115q0 22 11 40q11 16 24 16q9 0 21 -10q8 -7 22 -23l111 -129q23 -27 46 -52q23 -26 63 -26q7 0 23 2q23 4 28 21q1 3 1 8q0 10 -9 23q-7 9 -38 48l-119 139q1 -1 -19 22q3 -4 -40 49
q-9 12 -9 28t8 29q12 16 26 32l63 75l34 40l28 33l56 66q21 26 29 39q5 10 5 17q0 16 -16 24q-7 4 -25 6q-4 1 -13 1q-40 0 -67 -32l-86 -100q-72 -86 -109 -128q-10 -12 -27 -26q-3 -2 -7 -2q-10 0 -11 10q-4 24 -4 36v56v111q0 33 -10 54t-43 21q-19 0 -33 -15t-14 -44
l-1 -160q-2 -128 -2 -176v-18z" />
    <glyph glyph-name="L" unicode="L" horiz-adv-x="545" 
d="M79 22q8 -13 23 -17q15 -5 36 -5h317q23 1 36.5 14.5t13.5 38.5q0 17 -9.5 29.5t-26.5 16.5q-16 3 -33 3q-150 0 -225 1q-28 0 -35 19q-4 12 -4 29v472q0 39 -14.5 58.5t-37.5 19.5q-10 0 -23 -5q-10 -4 -18.5 -17t-8.5 -29l1 -598q0 -17 8 -30z" />
    <glyph glyph-name="M" unicode="M" horiz-adv-x="673" 
d="M603 633q0 6 -2 22q-3 28 -26 39q-13 6 -29 6q-17 0 -33.5 -8t-28.5 -23q-49 -65 -81 -114q-10 -15 -25 -33.5t-20 -25.5q-9 -13 -21 -13q-7 0 -15 6q-11 9 -16 17l-35 49q-38 57 -79 109q-14 18 -33 27t-38 9q-18 0 -31.5 -8t-16.5 -22q-3 -13 -3 -56v-63v-271
q0 -153 1 -229q0 -43 44 -51q18 -2 32.5 6.5t20.5 24.5q3 11 5 36v345v54q2 16 4 26q3 10 10 10q4 0 9 -5q16 -15 26 -30l42 -56q13 -19 41 -57q12 -16 31 -16q7 0 10 1q14 5 27 21l71 97q10 14 32 38q4 4 9 4q7 0 10 -10q2 -6 2 -9l3 -60v-366q0 -21 10 -35q16 -21 48 -18
q31 2 39 27q5 18 5 34q1 94 1 287v284z" />
    <glyph glyph-name="N" unicode="N" horiz-adv-x="614" 
d="M544 464q0 126 -1 186q0 22 -13 36t-37 14q-17 0 -30 -9t-17 -26q-3 -16 -3 -32q-1 -115 -1 -350q0 -13 -6 -35q-1 -5 -5 -6.5t-8 2.5q-19 24 -23 30q-31 55 -56 101l-40 75q-26 50 -40 74l-74 133q-10 18 -32 30t-43 12q-29 0 -37 -15t-8 -61l1 -73v-458q0 -30 1 -44
q1 -23 13.5 -36.5t36.5 -13.5q17 0 30 9t17 26q4 13 4 32q0 233 1 350q0 12 5 27q1 5 5.5 6.5t7.5 -2.5q13 -12 20 -26l92 -162q38 -70 116 -208q10 -19 22 -32q18 -20 53 -18q17 0 29.5 10t16.5 26q3 17 3 31v280v117z" />
    <glyph glyph-name="O" unicode="O" horiz-adv-x="777" 
d="M215.5 650q-80.5 -47 -128 -127.5t-47.5 -172.5q0 -94 47.5 -174.5t127.5 -128t173 -47.5q94 0 174.5 48t127.5 128t47 172q0 94 -48 174.5t-128.5 127.5t-172.5 46q-92 1 -172.5 -46zM175 470q33 57 90 90.5t124 33.5q64 0 120.5 -33t90.5 -90t34 -124q0 -64 -33 -120
t-89 -90t-122 -34t-123.5 33.5t-91 89.5t-32.5 122q-1 65 32 122z" />
    <glyph glyph-name="P" unicode="P" horiz-adv-x="589" 
d="M86 13.5q14 -13.5 39 -13.5q15 0 27 8.5t16 22.5q5 15 5 37q1 62 1 185q0 27 19 35q8 3 28 5l44 1q31 0 89 2q55 3 105 32q63 37 80 100q10 36 10 72q0 10 -2 32q-8 61 -49 104q-30 30 -73 44q-50 18 -128 20l-108 1h-20q-46 0 -66 -4.5t-26.5 -18t-6.5 -45.5l1 -82
q0 -414 1 -500q0 -24 14 -37.5zM210 597h64h31q50 -2 79 -11q29 -10 45 -31.5t16 -52.5q0 -38 -18 -65q-19 -27 -59 -34q-44 -6 -66 -7l-43 -1l-43 1q-13 0 -27 7q-15 8 -15 32q0 109 1 131q3 31 35 31z" />
    <glyph glyph-name="Q" unicode="Q" horiz-adv-x="776" 
d="M733 387q-7 73 -41 132q-37 64 -93 107q-45 35 -96 53q-54 19 -114 19q-21 0 -32 -1q-68 -6 -126 -35q-56 -29 -100 -78q-52 -56 -73 -122q-18 -54 -18 -113q0 -24 3 -47q8 -68 40 -124q31 -53 78 -94q38 -35 88 -57q63 -28 136 -28q68 0 110 17q20 8 44 19.5t32 15.5
q10 5 23 5q16 0 27 -10q4 -4 14 -10q17 -12 31 -12q15 0 30 12q21 18 21 37q0 10 -5 19.5t-17 25.5q-13 16 -13 31q0 8 5 20l14 26q33 70 35 152zM191 497q57 76 142 93q30 6 58 6q89 0 160 -62q70 -64 80 -156q2 -22 2 -33q0 -50 -20 -94q-10 -22 -38 -29q-49 -11 -57 -59
q-3 -17 -13 -27.5t-27 -17.5q-45 -17 -91 -17q-79 0 -139 44q-91 65 -104 170l-1 15v16q-2 86 48 151z" />
    <glyph glyph-name="R" unicode="R" horiz-adv-x="615" 
d="M70 301l1 -249q0 -23 14 -36.5t39 -13.5q15 0 27.5 8.5t16.5 22.5q3 11 5 36v131q0 16 3 32q3 12 13 12q5 0 10 -4q15 -11 25 -23l63 -67q28 -32 44 -48l23 -25l17 -18l33 -35q25 -24 61 -24q14 0 34 5q20 6 20 24q0 6 -3 13q-5 11 -13 21l-76 83q-56 60 -83 91
q-14 15 -25 33q-2 2 -2 8q0 13 9 16q12 4 19 5q68 9 106 30q62 35 83 96q11 33 11 73q0 60 -24 101q-29 51 -92 77q-59 24 -138 24l-110 1h-5q-57 0 -77.5 -9t-24.5 -35t-4 -106v-250zM209 597h64h32q49 -2 81 -13q27 -9 41.5 -31.5t14.5 -52.5q0 -34 -14 -54
q-18 -28 -63 -39q-35 -7 -89 -7h-61q-19 0 -28 8q-12 8 -14 31q0 105 2 127q1 31 34 31z" />
    <glyph glyph-name="S" unicode="S" horiz-adv-x="657" 
d="M356 2.5q21 1.5 37 4.5q95 15 146 77q48 57 48 125q0 73 -43 120q-35 40 -98 57q-26 7 -52.5 10t-51.5 4.5t-35 2.5q-43 2 -73 13q-26 9 -40.5 29t-14.5 46q0 15 4 27q16 46 71 66q33 13 76 13q12 0 36 -2q40 -3 70 -23q12 -7 23 -19t21 -24q15 -20 32 -20q29 0 49 32
q6 12 6 23q0 13 -8 27q-27 48 -84 77q-58 31 -139 31q-54 0 -98 -12q-67 -18 -107 -62q-55 -60 -55 -132q0 -82 52 -131q30 -29 76 -45q28 -9 58.5 -12.5t70.5 -5.5q48 -4 73 -8q38 -7 59 -30q19 -22 19 -51q0 -14 -4 -26q-14 -46 -65 -66q-41 -16 -85 -16q-31 0 -69 10
q-50 13 -72 51q-6 10 -11.5 24.5t-7.5 20.5q-8 23 -20.5 32.5t-33.5 9.5q-31 0 -42 -25q-4 -8 -4 -20q0 -9 1 -13q10 -72 64 -124q29 -29 67 -44q53 -22 125 -24q8 1 29 2.5z" />
    <glyph glyph-name="T" unicode="T" horiz-adv-x="562" 
d="M332 538q0 32 5.5 44t18.5 12l81 -1q33 0 50.5 4.5t26 17.5t8.5 41q0 13 -7.5 22.5t-20.5 13.5q-17 6 -34 6h-338q-23 0 -34 -1q-22 -2 -35 -12.5t-13 -30.5q0 -37 10 -48t42 -13h19h55h35q11 0 17.5 -7t8.5 -18q2 -14 2 -20l1 -202v-239q0 -38 1 -57q1 -23 14 -36.5
t38 -13.5q16 0 28.5 8t16.5 23q4 16 4 36v80v160v231z" />
    <glyph glyph-name="U" unicode="U" horiz-adv-x="615" 
d="M545 620q0 22 -1 33q-3 33 -27 43q-12 5 -22 5q-13 0 -24 -5t-17 -14q-11 -15 -11 -42l-1 -381q-2 -45 -15 -80q-20 -55 -72 -69q-22 -7 -48 -7q-19 0 -42 5q-41 10 -65 46q-15 23 -22 63q-6 36 -6 108v296q0 22 -1 32q-1 22 -14.5 35t-35.5 13q-29 0 -43 -23
q-8 -16 -8 -44v-324q0 -27 4 -81q5 -68 32 -116q38 -72 113 -99q45 -14 88 -14q35 0 64 7q108 24 149 128q23 61 25 145v185v155z" />
    <glyph glyph-name="V" unicode="V" horiz-adv-x="607" 
d="M523 701q-14 0 -26 -4q-27 -9 -37 -41q-14 -39 -40 -119l-42 -129q-9 -28 -20.5 -64.5t-26.5 -80.5q-4 -12 -16 -34q-3 -7 -8 -7t-10 6q-6 6 -9 15l-39 115q-28 85 -47 146l-48 145q-7 23 -20 36q-16 16 -43 16q-26 0 -38.5 -11.5t-9.5 -33.5q1 -12 9 -36l18 -56
q34 -107 40 -128q12 -40 40 -120q6 -20 20 -60q13 -43 25 -77l45 -135q10 -29 35 -39q13 -5 31 -5q12 0 18 1q27 5 38 25q10 21 18 42q18 53 52 159q17 50 22 64q39 116 52 161q6 21 40 125l15 45q9 31 9 42q0 17 -14 27q-16 10 -33 10z" />
    <glyph glyph-name="W" unicode="W" horiz-adv-x="848" 
d="M334 290q-5 -11 -13 -35q-6 -16 -15 -30q-3 -6 -9 -6t-9 5q-8 14 -11 22q-19 58 -54 171q-54 174 -73 231q-9 27 -21 37q-19 16 -41 16q-11 0 -26 -5q-20 -8 -22 -29q0 -15 4 -27q7 -24 23 -72l13 -41q13 -41 68 -216q36 -120 83 -261q9 -27 28 -39q19 -11 38 -11
q21 0 39 12.5t25 33.5q10 26 16.5 45.5t10.5 32.5l10 31q10 24 17 36q3 6 9 6t10 -6l3 -5q10 -24 14 -36l20 -57q3 -11 17 -50q10 -29 35 -37q12 -4 26 -4q9 0 14 1q23 2 37 17q13 14 20 41l56 168q39 116 62 198q14 53 60 192q6 18 9 36q1 3 1 9q0 21 -20 31q-10 5 -26 5
q-13 0 -24 -4q-26 -8 -37 -40q-10 -28 -64 -202l-60 -191q-3 -10 -9 -22t-8 -17t-8 -5t-9 4q-7 10 -11 20q-4 12 -8 21.5t-7 16.5q-11 26 -17 44t-9 38q-6 43 -24.5 66t-42.5 23q-22 0 -40.5 -21t-24.5 -58q-7 -36 -25 -83z" />
    <glyph glyph-name="X" unicode="X" horiz-adv-x="627" 
d="M184 33q11 17 42 67l62 100q4 7 11 14t15 7q10 0 19 -13q23 -32 39 -61l69 -111q24 -37 65 -37q14 0 27 3q12 2 18 10t6 19q0 7 -1 10q-4 14 -13 28q-48 81 -146 241q-11 17 -11 40q0 19 9 34l45 74l81 133q24 39 32 57q4 8 4 18q0 23 -23 29q-12 3 -24 3q-17 0 -29 -4
q-24 -8 -41 -35l-90 -145q-10 -16 -23 -32q-6 -6 -13 -6t-12 5q-9 8 -15 18q-28 44 -82 132q-2 4 -11.5 19t-20.5 27q-18 21 -50 21q-18 0 -31 -4q-10 -3 -16 -13.5t-6 -22.5q0 -7 1 -10q2 -7 6.5 -12.5t7.5 -9.5q94 -154 140 -231q10 -16 15 -27t5 -22q0 -14 -12 -34
l-67 -109l-68 -110q-17 -28 -25 -48q-3 -7 -3 -15q0 -20 20 -26q6 -3 14.5 -4t13.5 -2q43 0 66 35z" />
    <glyph glyph-name="Y" unicode="Y" horiz-adv-x="571" 
d="M235 54q0 -22 10 -35q14 -19 46 -19q36 2 45 31q5 20 5 37v238q0 29 16 58l60 98l78 129q22 35 34 60q4 8 4 17q0 24 -28 30q-11 2 -35 2q-33 -3 -56 -38l-74 -121l-36 -55q-7 -9 -16 -9q-8 0 -15 6q-8 8 -10 13l-32 52l-51 82q-23 37 -32 48q-19 23 -56 23q-15 0 -30 -5
q-11 -5 -16.5 -14t-2.5 -20q4 -17 14 -35l152 -249q25 -39 25 -73v-188q0 -42 1 -63z" />
    <glyph glyph-name="Z" unicode="Z" horiz-adv-x="625" 
d="M90 689q-18 -13 -18 -39q0 -40 30 -48q20 -5 38 -5h224q16 0 28 -4q7 -1 10 -6.5t1 -12.5q-4 -13 -9 -21l-103 -145q-34 -50 -104 -148l-96 -137q-21 -31 -21 -63q0 -9 1 -14q3 -33 31 -41q20 -5 38 -5h175h107q7 1 21 1h20h42q44 3 48 43q1 4 1 11q0 24 -18 34t-45 12
t-84 2h-145q-8 0 -24 2q-16 3 -16 16q0 3 2 9q1 4 5 12l54 77l139 197l105 149q32 44 28 84q-2 33 -26 43q-15 7 -36 7h-108h-260q-21 0 -35 -10z" />
    <glyph glyph-name="bracketleft" unicode="[" horiz-adv-x="211" 
d="M0 -2q0 -10 2 -30q4 -36 30 -44q12 -4 43 -6q11 -1 33 -1q21 0 32 1q21 0 37 4q14 3 22.5 12t10.5 23l1 8q0 24 -22 35q-13 5 -41 9q-15 3 -22.5 6.5t-10.5 13.5q-5 13 -5 32q-1 187 -1 560l1 36q2 30 27 36q11 2 33 4q19 4 29.5 15.5t10.5 28.5t-11 29.5t-30 13.5
q-46 2 -70 2l-50 -1q-15 -1 -26.5 -8.5t-15.5 -21.5q-5 -14 -7 -44v-359v-354z" />
    <glyph glyph-name="backslash" unicode="\" horiz-adv-x="394" 
d="M343 -160q10 -2 13 -2q12 0 21 6t14 16q3 7 3 16t-1 15t-2 11q-23 77 -40 130l-25 82q-11 38 -50 164q-12 38 -20 67q-10 31 -20.5 67t-23.5 76q-8 26 -43 140q-9 33 -29 97l-30 93q-18 43 -67 49q-20 1 -31.5 -10t-11.5 -31q4 -21 7 -35l68 -219l44 -139q16 -54 25 -81
q44 -139 77 -247l29 -94q9 -25 14 -44q19 -57 25 -73q13 -41 50 -52z" />
    <glyph glyph-name="bracketright" unicode="]" horiz-adv-x="211" 
d="M212 704q0 21 -1 31q-5 36 -30 43q-14 5 -44 7q-15 1 -25.5 0.5t-17.5 -0.5h-22q-26 -2 -37 -4q-28 -6 -33 -38q-2 -12 3.5 -23.5t17.5 -16.5q9 -4 22 -6.5t19 -3.5q13 -2 21.5 -6t11.5 -14q5 -12 5 -32q1 -186 1 -559l-1 -37q-1 -31 -33 -37l-27 -3q-19 -3 -29.5 -14.5
t-10.5 -29.5q0 -17 11 -29.5t30 -13.5q17 -1 51 -1q46 0 69 1q16 0 27.5 8t15.5 23q6 21 6 43v358v354z" />
    <glyph glyph-name="asciicircum" unicode="^" horiz-adv-x="392" 
d="M133 654q-10 -21 -42 -93l-20 -44q-9 -19 -36 -78.5t-31 -72.5q-4 -12 -4 -20q0 -11 7 -21q10 -16 37 -16q13 0 25 6q18 11 33 40q22 47 48.5 102t33.5 66q6 11 13 11q8 0 15 -10q5 -5 8 -13q60 -130 77 -162q18 -34 54 -34q17 1 28.5 10.5t12.5 24.5q2 17 -7 34l-65 146
l-62 130q-10 20 -26.5 30t-35.5 10q-16 0 -32 -8q-21 -10 -31 -38z" />
    <glyph glyph-name="underscore" unicode="_" horiz-adv-x="445" 
d="M423 -114q-12 -5 -36 -7h-39h-25h-198h-23h-36q-27 0 -41 6q-22 12 -25 36q0 28 23 40q16 8 37 8h267h52h1q27 0 40 -6q25 -13 25 -40q0 -24 -22 -37z" />
    <glyph glyph-name="grave" unicode="`" horiz-adv-x="580" 
d="M390 606h-59q-37 29 -80.5 76t-61.5 74v10h105q16 -32 44.5 -76.5t51.5 -71.5v-12z" />
    <glyph glyph-name="a" unicode="a" horiz-adv-x="623" 
d="M221 548q-2 -7 -4 -12l-48 -131q-13 -39 -41 -115l-61 -168q-14 -36 -24 -70q-3 -7 -3 -15q0 -15 13 -27q10 -10 33 -10t37 10q16 13 27 39l15 41q6 18 20 54q6 13 16 25q7 8 17 10.5t24 2.5h97h49q38 0 52 -37q21 -56 37 -97q10 -28 27 -39t44 -9q15 1 24.5 9.5
t10.5 22.5v7q0 11 -3 21l-13 37l-18 51l-64 175l-19 55l-52 145l-14 39q-8 20 -16.5 44t-18.5 51q-6 19 -18.5 30.5t-30.5 12.5q-19 1 -28.5 -4.5t-18 -23t-26.5 -65.5l-18 -47q-2 -5 -4 -12zM250 309q0 6 1 9q8 30 18 56l9 25q19 50 24 55q4 7 12 7q7 0 11 -8
q14 -28 19 -42q14 -36 31 -88q3 -6 3 -13q0 -9 -9 -17q-8 -5 -23 -7l-28 -1q-31 0 -47 2q-21 3 -21 22z" />
    <glyph glyph-name="b" unicode="b" horiz-adv-x="617" 
d="M90 10q16 -11 42 -11l67 1q45 0 135 2q59 2 106 23q70 33 94 101q12 36 12 73q0 11 -2 33q-9 71 -62 121q-14 12 -14 27q0 14 6 27q17 46 17 91q0 26 -4 46q-18 93 -102 133q-46 23 -108 23l-84 1h-13q-53 0 -75 -6t-28.5 -24.5t-6.5 -63.5v-71q0 -397 1 -481
q0 -31 19 -45zM184 587.5q8 8.5 26 8.5q43 1 97 -2q32 -3 54 -25q26 -26 26 -72q0 -30 -14 -52q-20 -32 -64 -39q-28 -3 -56 -3q-17 0 -49 2q-15 1 -23 11t-8 27v59q0 49 1 59q2 18 10 26.5zM208 299h103q45 -2 75 -13q28 -11 42.5 -33t14.5 -51q0 -37 -18 -60
q-20 -25 -56 -32q-24 -4 -76 -8l-37 -1l-37 1q-15 0 -26 4t-15 13t-5 22q0 104 1 127q3 29 34 31z" />
    <glyph glyph-name="c" unicode="c" horiz-adv-x="685" 
d="M372 700q-45 -1 -89 -15q-81 -25 -148 -95q-37 -39 -62 -90q-33 -67 -33 -151q0 -14 2 -38q6 -65 38 -125q21 -40 59 -81q46 -46 101 -72q67 -33 147 -33q19 0 55 4q53 8 95 29q46 22 73 49q14 14 14 32q0 14 -8 26q-17 25 -42 25q-11 0 -23 -6q-11 -5 -31 -19
q-60 -38 -131 -38q-82 0 -147 48q-48 37 -74 86q-25 51 -25 109q0 12 2 34q16 138 139 196q50 24 101 24q40 0 82 -14q25 -8 47.5 -22t25.5 -16q22 -14 35.5 -21t25.5 -7q21 0 36 21q8 13 8 26q0 14 -6.5 24t-18.5 21q-33 31 -78 54q-72 37 -154 35h-16z" />
    <glyph glyph-name="d" unicode="d" horiz-adv-x="702" 
d="M61 20q15 -19 47 -19q29 -1 87 -1l51 1q33 0 101 2q58 3 118 32q61 30 111 86q49 55 68 116q18 53 18 115q0 21 -1 32q-7 78 -46 143q-29 47 -71 84q-36 32 -78 54q-71 35 -160 35l-108 1h-13q-67 0 -93 -6.5t-34 -27t-8 -72.5v-59v-480q0 -21 11 -36zM153 566
q5 31 35 31h82h41q66 0 116 -28q29 -14 54 -38q50 -46 68 -106q11 -33 11 -75q0 -60 -26 -111q-22 -44 -68 -82q-56 -45 -129 -53q-26 -2 -38 -2h-100q-13 0 -28 5q-19 8 -19 35l-1 406q0 6 2 18z" />
    <glyph glyph-name="e" unicode="e" horiz-adv-x="576" 
d="M90 12q9 -7 19 -9t25 -3h155t155 1q19 0 38 8q12 6 18.5 19.5t4.5 29.5q-5 33 -31 40q-20 5 -38 5q-149 0 -224 1q-28 0 -35 19q-4 16 -4 25q0 78 1 118q0 27 29 32q9 2 26 2h109q25 0 39 8q11 6 17.5 17t6.5 25q0 38 -32 48q-16 4 -37 4q-40 1 -120 1q-17 0 -27 9
t-11 25l-1 64l1 63q0 27 28 32q6 2 19 2h212q16 0 32 3q30 6 36 34q2 12 2 17q0 22 -17 36q-14 12 -44 12l-158 1h-19q-96 0 -134 -6.5t-49.5 -26.5t-11.5 -71v-61l1 -480q0 -30 19 -44z" />
    <glyph glyph-name="f" unicode="f" horiz-adv-x="543" 
d="M82 20q14 -18 38 -18q41 0 49 35q4 15 4 33v190q2 28 20 35q11 4 28 4q41 1 122 1q22 0 36 9q21 13 21 42q0 18 -9 31t-26 17q-15 3 -33 3q-9 1 -29 1h-30h-60q-27 0 -35 19q-5 11 -5 27v102q0 16 5 26q7 20 37 20q9 1 27 1h27h53q88 0 132 1q22 0 35.5 13.5t13.5 36.5
q0 30 -24 43q-14 8 -38 8l-158 1h-13q-100 0 -139 -7.5t-50 -30t-11 -81.5v-48q0 -394 1 -478q0 -24 11 -36z" />
    <glyph glyph-name="g" unicode="g" horiz-adv-x="773" 
d="M472 379q-11 -14 -11 -31q0 -10 5 -25q10 -24 45 -26q21 -1 64 -1q11 0 21 -3q19 -4 19 -22q0 -12 -5 -22q-23 -58 -76 -97q-65 -49 -146 -49q-96 0 -164 62q-38 33 -62 83q-19 46 -19 92q0 45 8 77q17 72 79 124q67 57 155 57q11 0 33 -2q58 -7 111 -43
q13 -7 20.5 -10.5t18.5 -3.5q23 0 40 22q11 13 11 27t-6 23t-18 19q-40 33 -94 52q-53 18 -114 18q-21 0 -32 -1q-65 -6 -121 -34q-60 -28 -109 -84q-37 -42 -58 -92q-27 -64 -27 -143q0 -81 35 -153q28 -56 76 -101q45 -42 100 -65q66 -27 135 -27q23 0 45 3q110 13 195 93
q53 50 79 112q31 72 27 143q-1 16 -10 27t-24 15q-13 4 -33 4l-58 1q-62 0 -96 -2q-27 0 -39 -17z" />
    <glyph glyph-name="h" unicode="h" horiz-adv-x="611" 
d="M541 627q0 20 -2 30q-1 16 -10 26.5t-23 13.5q-6 2 -17 2q-25 0 -39 -18q-10 -14 -10 -43q-1 -67 -1 -210q0 -32 -33 -35q-18 -2 -26 -2q-57 1 -172 1q-31 1 -35 31q-1 6 -1 18q0 127 -1 187q0 18 -1 26q-1 25 -15.5 35.5t-36.5 10.5q-14 0 -28 -10.5t-16 -34.5
q-3 -46 -3 -171l-1 -347v-86q0 -22 10 -36q15 -18 38 -18q41 0 50 36q3 15 3 32q1 12 1 36v37v72q0 30 1 45q2 29 29 33q10 2 29 2q115 0 172 -1q32 0 35 -32q2 -20 2 -29v-96q0 -56 1 -83q1 -41 44 -49q19 -2 34 7.5t19 28.5q3 17 3 32v278v281z" />
    <glyph glyph-name="i" unicode="i" horiz-adv-x="242" 
d="M70 41q0 -19 15 -30t36 -11t36 11.5t15 32.5v611q0 21 -15.5 32.5t-36.5 11.5q-20 0 -35 -11.5t-15 -32.5v-614z" />
    <glyph glyph-name="j" unicode="j" horiz-adv-x="588" 
d="M518 626q0 10 -2 28q-1 15 -9 26t-20 16q-9 4 -21 4q-32 0 -42 -21.5t-10 -68.5l1 -70v-290q-2 -38 -12 -65q-17 -49 -61 -69q-29 -14 -64 -14q-19 0 -42 5q-50 13 -71 54q-14 27 -22 76q0 3 -2 17t-9 25q-13 22 -42 22q-20 0 -33 -10t-16 -29l-1 -15q0 -74 33 -134
q39 -75 115 -100q39 -14 86 -14q22 0 44 3q123 18 177 134q23 50 23 116v187v187z" />
    <glyph glyph-name="k" unicode="k" horiz-adv-x="578" 
d="M70 287q0 -158 1 -237q0 -23 13 -36.5t38 -13.5q17 0 30 9t17 26q3 17 3 32q1 38 1 115q0 22 11 40q11 16 24 16q9 0 21 -10q8 -7 22 -23l111 -129q23 -27 46 -52q23 -26 63 -26q7 0 23 2q23 4 28 21q1 3 1 8q0 10 -9 23q-7 9 -38 48l-119 139q1 -1 -19 22q3 -4 -40 49
q-9 12 -9 28t8 29q12 16 26 32l63 75l34 40l28 33l56 66q21 26 29 39q5 10 5 17q0 16 -16 24q-7 4 -25 6q-4 1 -13 1q-40 0 -67 -32l-86 -100q-72 -86 -109 -128q-10 -12 -27 -26q-3 -2 -7 -2q-10 0 -11 10q-4 24 -4 36v56v111q0 33 -10 54t-43 21q-19 0 -33 -15t-14 -44
l-1 -160q-2 -128 -2 -176v-18z" />
    <glyph glyph-name="l" unicode="l" horiz-adv-x="545" 
d="M79 22q8 -13 23 -17q15 -5 36 -5h317q23 1 36.5 14.5t13.5 38.5q0 17 -9.5 29.5t-26.5 16.5q-16 3 -33 3q-150 0 -225 1q-28 0 -35 19q-4 12 -4 29v472q0 39 -14.5 58.5t-37.5 19.5q-10 0 -23 -5q-10 -4 -18.5 -17t-8.5 -29l1 -598q0 -17 8 -30z" />
    <glyph glyph-name="m" unicode="m" horiz-adv-x="673" 
d="M603 633q0 6 -2 22q-3 28 -26 39q-13 6 -29 6q-17 0 -33.5 -8t-28.5 -23q-49 -65 -81 -114q-10 -15 -25 -33.5t-20 -25.5q-9 -13 -21 -13q-7 0 -15 6q-11 9 -16 17l-35 49q-38 57 -79 109q-14 18 -33 27t-38 9q-18 0 -31.5 -8t-16.5 -22q-3 -13 -3 -56v-63v-271
q0 -153 1 -229q0 -43 44 -51q18 -2 32.5 6.5t20.5 24.5q3 11 5 36v345v54q2 16 4 26q3 10 10 10q4 0 9 -5q16 -15 26 -30l42 -56q13 -19 41 -57q12 -16 31 -16q7 0 10 1q14 5 27 21l71 97q10 14 32 38q4 4 9 4q7 0 10 -10q2 -6 2 -9l3 -60v-366q0 -21 10 -35q16 -21 48 -18
q31 2 39 27q5 18 5 34q1 94 1 287v284z" />
    <glyph glyph-name="n" unicode="n" horiz-adv-x="614" 
d="M544 464q0 126 -1 186q0 22 -13 36t-37 14q-17 0 -30 -9t-17 -26q-3 -16 -3 -32q-1 -115 -1 -350q0 -13 -6 -35q-1 -5 -5 -6.5t-8 2.5q-19 24 -23 30q-31 55 -56 101l-40 75q-26 50 -40 74l-74 133q-10 18 -32 30t-43 12q-29 0 -37 -15t-8 -61l1 -73v-458q0 -30 1 -44
q1 -23 13.5 -36.5t36.5 -13.5q17 0 30 9t17 26q4 13 4 32q0 233 1 350q0 12 5 27q1 5 5.5 6.5t7.5 -2.5q13 -12 20 -26l92 -162q38 -70 116 -208q10 -19 22 -32q18 -20 53 -18q17 0 29.5 10t16.5 26q3 17 3 31v280v117z" />
    <glyph glyph-name="o" unicode="o" horiz-adv-x="777" 
d="M215.5 650q-80.5 -47 -128 -127.5t-47.5 -172.5q0 -94 47.5 -174.5t127.5 -128t173 -47.5q94 0 174.5 48t127.5 128t47 172q0 94 -48 174.5t-128.5 127.5t-172.5 46q-92 1 -172.5 -46zM175 470q33 57 90 90.5t124 33.5q64 0 120.5 -33t90.5 -90t34 -124q0 -64 -33 -120
t-89 -90t-122 -34t-123.5 33.5t-91 89.5t-32.5 122q-1 65 32 122z" />
    <glyph glyph-name="p" unicode="p" horiz-adv-x="589" 
d="M86 13.5q14 -13.5 39 -13.5q15 0 27 8.5t16 22.5q5 15 5 37q1 62 1 185q0 27 19 35q8 3 28 5l44 1q31 0 89 2q55 3 105 32q63 37 80 100q10 36 10 72q0 10 -2 32q-8 61 -49 104q-30 30 -73 44q-50 18 -128 20l-108 1h-20q-46 0 -66 -4.5t-26.5 -18t-6.5 -45.5l1 -82
q0 -414 1 -500q0 -24 14 -37.5zM210 597h64h31q50 -2 79 -11q29 -10 45 -31.5t16 -52.5q0 -38 -18 -65q-19 -27 -59 -34q-44 -6 -66 -7l-43 -1l-43 1q-13 0 -27 7q-15 8 -15 32q0 109 1 131q3 31 35 31z" />
    <glyph glyph-name="q" unicode="q" horiz-adv-x="776" 
d="M733 387q-8 76 -41 133q-37 64 -93 107q-45 35 -96 53q-54 19 -114 19q-21 0 -32 -1q-68 -6 -126 -35q-56 -29 -100 -78q-52 -57 -73 -127q-18 -61 -18 -114q0 -21 3 -42q8 -68 40 -124q31 -53 78 -94q38 -35 88 -57q63 -28 136 -28q68 0 110 17q20 8 44 19.5t32 15.5
q10 5 23 5q16 0 27 -10q4 -4 14 -10q17 -12 31 -12q15 0 30 12q21 18 21 37q0 10 -5 19.5t-17 25.5q-13 16 -13 31q0 8 5 20l14 26q33 70 35 152zM191 493q54 80 142 98q30 6 58 6q89 0 160 -62q34 -31 54.5 -71t25.5 -86q2 -22 2 -33q0 -50 -20 -94q-10 -22 -38 -29
q-49 -11 -57 -59q-3 -17 -13 -27.5t-27 -17.5q-45 -17 -91 -17q-79 0 -139 44q-91 65 -104 170l-1 15v16q-1 73 48 147z" />
    <glyph glyph-name="r" unicode="r" horiz-adv-x="615" 
d="M70 301l1 -249q0 -23 14 -36.5t39 -13.5q15 0 27.5 8.5t16.5 22.5q3 11 5 36v131q0 16 3 32q3 12 13 12q5 0 10 -4q15 -11 25 -23l63 -67q28 -32 44 -48l23 -25l17 -18l33 -35q25 -24 61 -24q14 0 34 5q20 6 20 24q0 6 -3 13q-5 11 -13 21l-76 83q-56 60 -83 91
q-14 15 -25 33q-2 2 -2 8q0 13 9 16q12 4 19 5q68 9 106 30q62 35 83 96q11 33 11 73q0 60 -24 101q-29 51 -92 77q-59 24 -138 24l-110 1h-5q-57 0 -77.5 -9t-24.5 -35t-4 -106v-250zM209 597h64h32q49 -2 81 -13q27 -9 41.5 -31.5t14.5 -52.5q0 -34 -14 -54
q-18 -28 -63 -39q-35 -7 -89 -7h-61q-19 0 -28 8q-12 8 -14 31q0 105 2 127q1 31 34 31z" />
    <glyph glyph-name="s" unicode="s" horiz-adv-x="657" 
d="M356 2.5q21 1.5 37 4.5q95 15 146 77q48 57 48 125q0 73 -43 120q-35 40 -98 57q-26 7 -52.5 10t-51.5 4.5t-35 2.5q-43 2 -73 13q-26 9 -40.5 29t-14.5 46q0 15 4 27q16 46 71 66q33 13 76 13q12 0 36 -2q40 -3 70 -23q12 -7 23 -19t21 -24q15 -20 32 -20q29 0 49 32
q6 12 6 23q0 13 -8 27q-27 48 -84 77q-58 31 -139 31q-54 0 -98 -12q-67 -18 -107 -62q-55 -60 -55 -132q0 -82 52 -131q30 -29 76 -45q28 -9 58.5 -12.5t70.5 -5.5q48 -4 73 -8q38 -7 59 -30q19 -22 19 -51q0 -14 -4 -26q-14 -46 -65 -66q-41 -16 -85 -16q-31 0 -69 10
q-50 13 -72 51q-6 10 -11.5 24.5t-7.5 20.5q-8 23 -20.5 32.5t-33.5 9.5q-31 0 -42 -25q-4 -8 -4 -20q0 -9 1 -13q10 -72 64 -124q29 -29 67 -44q53 -22 125 -24q8 1 29 2.5z" />
    <glyph glyph-name="t" unicode="t" horiz-adv-x="562" 
d="M332 538q0 32 5.5 44t18.5 12l81 -1q33 0 50.5 4.5t26 17.5t8.5 41q0 13 -7.5 22.5t-20.5 13.5q-17 6 -34 6h-338q-23 0 -34 -1q-22 -2 -35 -12.5t-13 -30.5q0 -37 10 -48t42 -13h19h55h35q11 0 17.5 -7t8.5 -18q2 -14 2 -20l1 -202v-239q0 -38 1 -57q1 -23 14 -36.5
t38 -13.5q16 0 28.5 8t16.5 23q4 16 4 36v80v160v231z" />
    <glyph glyph-name="u" unicode="u" horiz-adv-x="615" 
d="M545 620q0 22 -1 33q-3 33 -27 43q-12 5 -22 5q-13 0 -24 -5t-17 -14q-11 -15 -11 -42l-1 -381q-2 -45 -15 -80q-20 -55 -72 -69q-22 -7 -48 -7q-19 0 -42 5q-41 10 -65 46q-15 23 -22 63q-6 36 -6 108v296q0 22 -1 32q-1 22 -14.5 35t-35.5 13q-29 0 -43 -23
q-8 -16 -8 -44v-324q2 -54 4 -81q5 -68 32 -116q38 -72 113 -99q45 -14 88 -14q35 0 64 7q108 24 149 128q23 61 25 145v175v165z" />
    <glyph glyph-name="v" unicode="v" horiz-adv-x="607" 
d="M523 701q-14 0 -26 -4q-27 -9 -37 -41q-14 -39 -40 -119l-42 -129q-9 -28 -20.5 -64.5t-26.5 -80.5q-4 -12 -16 -34q-3 -7 -8 -7t-10 6q-6 6 -9 15l-39 115q-28 85 -47 146l-48 145q-7 23 -20 36q-16 16 -43 16q-26 0 -38.5 -11.5t-9.5 -33.5q1 -12 9 -36l18 -56
q34 -107 40 -128q12 -40 40 -120q6 -20 20 -60q13 -43 25 -77l45 -135q10 -29 35 -39q13 -5 31 -5q12 0 18 1q27 5 38 25q10 21 18 42q18 53 52 159l19 56q41 124 55 169q6 21 40 125l15 45q9 31 9 42q0 17 -14 27q-16 10 -33 10z" />
    <glyph glyph-name="w" unicode="w" horiz-adv-x="848" 
d="M334 290q-5 -11 -13 -35q-6 -16 -15 -30q-3 -6 -9 -6t-9 5q-8 14 -11 22q-19 58 -54 171q-54 174 -73 231q-9 27 -21 37q-19 16 -41 16q-11 0 -26 -5q-20 -8 -22 -29q0 -15 4 -27q7 -24 23 -72l13 -41q13 -41 68 -216q36 -120 83 -261q9 -27 28 -39q19 -11 38 -11
q21 0 39 12.5t25 33.5q10 26 16.5 45.5t10.5 32.5l10 31q10 24 17 36q3 6 9 6t10 -6l3 -5q10 -24 14 -36l20 -57q3 -11 17 -50q10 -29 35 -37q12 -4 26 -4q9 0 14 1q23 2 37 17q13 14 20 41l56 168q39 116 62 198q14 53 60 192q6 18 9 36q1 3 1 9q0 21 -20 31q-10 5 -26 5
q-13 0 -24 -4q-26 -8 -37 -40q-10 -28 -64 -202l-60 -191q-3 -10 -9 -22t-8 -17t-8 -5t-9 4q-7 10 -11 20q-4 12 -8 21.5t-7 16.5q-11 26 -17 44t-9 38q-6 43 -24.5 66t-42.5 23q-22 0 -40.5 -21t-24.5 -58q-7 -36 -25 -83z" />
    <glyph glyph-name="x" unicode="x" horiz-adv-x="627" 
d="M184 33q11 17 42 67l62 100q4 7 11 14t15 7q10 0 19 -13q23 -32 39 -61l69 -111q24 -37 65 -37q14 0 27 3q12 2 18 10t6 19q0 7 -1 10q-4 14 -13 28q-48 81 -146 241q-11 17 -11 40q0 19 9 34l45 74l81 133q24 39 32 57q4 8 4 18q0 23 -23 29q-12 3 -24 3q-17 0 -29 -4
q-24 -8 -41 -35l-90 -145q-10 -16 -23 -32q-6 -6 -13 -6t-12 5q-9 8 -15 18q-28 44 -82 132q-2 4 -11.5 19t-20.5 27q-18 21 -50 21q-18 0 -31 -4q-10 -3 -16 -13.5t-6 -22.5q0 -7 1 -10q2 -7 6.5 -12.5t7.5 -9.5q94 -154 140 -231q10 -16 15 -27t5 -22q0 -14 -12 -34
l-67 -109l-68 -110q-17 -28 -25 -48q-3 -7 -3 -15q0 -20 20 -26q6 -3 14.5 -4t13.5 -2q43 0 66 35z" />
    <glyph glyph-name="y" unicode="y" horiz-adv-x="571" 
d="M235 54q0 -22 10 -35q14 -19 46 -19q36 2 45 31q5 20 5 37v238q0 29 16 58l60 98l78 129q22 35 34 60q4 8 4 17q0 24 -28 30q-11 2 -35 2q-33 -3 -56 -38l-74 -121l-36 -55q-7 -9 -16 -9q-8 0 -15 6q-8 8 -10 13l-32 52l-51 82q-23 37 -32 48q-19 23 -56 23q-15 0 -30 -5
q-11 -5 -16.5 -14t-2.5 -20q4 -17 14 -35l152 -249q25 -39 25 -73v-188q0 -42 1 -63z" />
    <glyph glyph-name="z" unicode="z" horiz-adv-x="625" 
d="M90 689q-18 -13 -18 -39q0 -40 30 -48q20 -5 38 -5h224q16 0 28 -4q7 -1 10 -6.5t1 -12.5q-4 -13 -9 -21l-103 -145q-34 -50 -104 -148l-96 -137q-21 -31 -21 -63q0 -9 1 -14q3 -33 31 -41q20 -5 38 -5h175h107q7 1 21 1h20h42q44 3 48 43q1 4 1 11q0 24 -18 34t-45 12
t-84 2h-145q-8 0 -24 2q-16 3 -16 16q0 3 2 9q1 4 5 12l54 77l139 197l105 149q32 44 28 84q-2 33 -26 43q-15 7 -36 7h-108h-260q-21 0 -35 -10z" />
    <glyph glyph-name="braceleft" unicode="{" horiz-adv-x="258" 
d="M135 -52q41 -24 77 -24q33 0 42 24q4 8 4 17q0 12 -8 25q-10 12 -33 21q-48 21 -56 67q-5 27 -7 61q-1 20 -0.5 35.5t0.5 26.5q1 14 1 41q-2 42 -12 72q-7 21 -7 37q0 11 3 21q8 27 9 32q8 35 8 78l-1 36l-1 39q0 32 4 57q9 47 41 66q12 7 21 11t15 7q26 16 22 44
q-3 26 -29 34q-12 2 -17 2q-14 0 -29 -5q-82 -23 -112 -98q-15 -37 -17 -101v-76v-38q0 -42 -33 -69q-21 -16 -21 -40q0 -22 19 -39q15 -12 27 -33q7 -12 8 -24.5t1 -36.5l1 -42q0 -74 3 -100q11 -87 77 -128z" />
    <glyph glyph-name="bar" unicode="|" horiz-adv-x="111" 
d="M47 -182q11 -7 24 -7q17 0 28 12q8 11 10 24.5t2 15.5q0 91 -1 136q0 172 -1 258v110q0 73 -1 109v83v165q0 35 -2 97q-4 47 -50 67q-9 3 -16 3q-13 0 -23 -7.5t-14 -22.5q-1 -6 -2 -16.5t-1 -19.5l2 -229l2 -231q2 -158 2 -238l1 -119q1 -17 1 -52q0 -12 0.5 -29.5
t2.5 -41.5q0 -42 33 -64z" />
    <glyph glyph-name="braceright" unicode="}" horiz-adv-x="259" 
d="M103 461q2 -45 13 -76q7 -19 7 -35q0 -9 -1 -13l-10 -34q-9 -35 -9 -83l1 -45l1 -32q0 -36 -7 -65q-10 -41 -44 -60q-5 -2 -16.5 -7.5t-19.5 -11.5q-18 -14 -18 -33q0 -17 14 -31q12 -12 32 -12l10 1q96 17 132 102q17 43 17 109v35v69q0 32 13 49q5 7 27 29q14 16 14 34
q0 19 -14 35q-5 5 -14.5 15t-15.5 18q-7 10 -8.5 21t-2.5 33q0 17 1 25q0 6 0.5 15.5t-0.5 22.5q0 49 -4 89q-10 87 -78 129q-44 27 -84 24q-17 -1 -28 -13.5t-11 -28.5q0 -10 6 -21q6 -9 14.5 -14.5t21.5 -11.5q43 -17 55 -59q7 -25 7 -55q0 -15 -1 -23v-91z" />
    <glyph glyph-name="asciitilde" unicode="~" horiz-adv-x="550" 
d="M259 288q-18 8 -31.5 13.5t-24.5 8.5t-21 4t-21 1q-14 0 -28.5 -4.5t-29 -12.5t-28 -18.5t-25.5 -23.5v79q49 53 121 53q14 0 26 -1t25.5 -4.5t30 -9.5t39.5 -16q18 -8 31.5 -13t25 -8t21 -4.5t20.5 -1.5q14 0 28.5 4.5t29 12.5t28 19t25.5 23v-79q-48 -53 -121 -53
q-14 0 -26.5 1.5t-26 4.5t-29.5 9t-39 16zM221 622z" />
    <glyph glyph-name="uni007F" 
 />
    <glyph glyph-name="exclamdown" unicode="&#xa1;" horiz-adv-x="269" 
d="M104 330h58l25 -512h-108zM196 478q0 -33 -16 -50t-46 -17t-46 17t-16 50q0 32 16.5 50t45.5 18t45.5 -17.5t16.5 -50.5z" />
    <glyph glyph-name="cent" unicode="&#xa2;" horiz-adv-x="571" 
d="M476 117q-55 -28 -124 -30v-97h-67v100q-100 15 -147 82.5t-47 189.5q0 248 194 278v84h68v-80q74 -3 132 -29l-26 -73q-70 26 -119 26q-82 0 -120.5 -51t-38.5 -154q0 -104 39 -151.5t116 -47.5q43 0 76 8.5t64 21.5v-77z" />
    <glyph glyph-name="sterling" unicode="&#xa3;" horiz-adv-x="571" 
d="M334 723q93 0 177 -41l-31 -70q-82 38 -144 38q-57 0 -87 -29.5t-30 -95.5v-139h204v-66h-204v-104q0 -47 -15.5 -80.5t-52.5 -55.5h384v-80h-503v74q99 23 99 141v105h-96v66h96v148q0 88 55 138.5t148 50.5z" />
    <glyph glyph-name="currency" unicode="&#xa4;" horiz-adv-x="571" 
d="M90 353q0 57 35 110l-66 68l49 47l66 -64q49 35 112 35q59 0 110 -35l67 64l48 -47l-64 -67q35 -54 35 -111q0 -63 -35 -112l63 -66l-47 -47l-67 64q-50 -34 -110 -34q-64 0 -112 35l-66 -64l-48 47l65 66q-35 53 -35 111zM157 353q0 -54 37.5 -91.5t91.5 -37.5t92 37
t38 92q0 56 -38 93.5t-92 37.5t-91.5 -38t-37.5 -93z" />
    <glyph glyph-name="yen" unicode="&#xa5;" horiz-adv-x="571" 
d="M285 365l179 349h92l-201 -375h124v-64h-151v-82h151v-64h-151v-129h-86v129h-151v64h151v82h-151v64h122l-199 375h93z" />
    <glyph glyph-name="brokenbar" unicode="&#xa6;" horiz-adv-x="550" 
d="M239 760h73v-381h-73v381zM239 140h73v-381h-73v381z" />
    <glyph glyph-name="section" unicode="&#xa7;" horiz-adv-x="513" 
d="M67 395q0 42 21 75t58 51q-36 20 -56 47t-20 68q0 60 50.5 94.5t146.5 34.5q45 0 82 -7t89 -27l-27 -67q-47 19 -80.5 26t-69.5 7q-56 0 -82.5 -14.5t-26.5 -44.5q0 -27 28 -47.5t104 -47.5q89 -33 126 -70t37 -90q0 -88 -75 -133q74 -39 74 -110q0 -69 -57.5 -107
t-160.5 -38t-169 33v75q42 -19 88.5 -30t84.5 -11q62 0 96 18t34 53q0 30 -26 49t-103 49q-96 36 -131 72.5t-35 91.5zM142 405q0 -25 13 -43.5t43 -35.5t109 -47q64 37 64 91q0 40 -34 66.5t-123 54.5q-32 -9 -52 -33t-20 -53z" />
    <glyph glyph-name="dieresis" unicode="&#xa8;" horiz-adv-x="580" 
d="M149 681q0 26 13.5 37.5t33.5 11.5q19 0 33 -11.5t14 -37.5t-14 -38t-33 -12q-20 0 -33.5 12t-13.5 38zM337 681q0 26 13.5 37.5t32.5 11.5t33 -11.5t14 -37.5t-14 -38t-33 -12t-32.5 12t-13.5 38z" />
    <glyph glyph-name="copyright" unicode="&#xa9;" horiz-adv-x="832" 
d="M436 515q-58 0 -91 -41.5t-33 -116.5q0 -77 28.5 -118t94.5 -41q46 0 105 23v-64q-29 -13 -53 -18.5t-56 -5.5q-94 0 -145.5 58.5t-51.5 165.5q0 102 54 162.5t147 60.5q63 0 123 -30l-29 -61q-52 26 -93 26zM49 357q0 98 48.5 183t134 134.5t184.5 49.5q98 0 183.5 -49
t134.5 -134t49 -184q0 -96 -47.5 -180.5t-132.5 -135.5t-187 -51q-101 0 -186.5 50.5t-133 135t-47.5 181.5zM102 357q0 -84 42 -157t115 -115t157 -42t157 42t115 115t42 157t-42 156.5t-115 115t-157 42.5t-156.5 -42t-115 -115t-42.5 -157z" />
    <glyph glyph-name="ordfeminine" unicode="&#xaa;" horiz-adv-x="356" 
d="M261 389l-12 42q-46 -48 -114 -48q-47 0 -75 24.5t-28 74.5t38.5 76t119.5 29l56 2v22q0 30 -19 44.5t-52 14.5q-49 0 -101 -26q-13 30 -22 49q60 29 125 29t98 -27t33 -86v-220h-47zM96 482q0 -48 54 -48q96 0 96 87v23l-48 -2q-54 -2 -78 -16t-24 -44z" />
    <glyph glyph-name="guillemotleft" unicode="&#xab;" horiz-adv-x="827" 
d="M44 290q30 -15 92 -43l119 -55l61 -28l90 -42l21 -9q7 -3 19.5 -9t22.5 -9q12 -4 20 -4q11 0 21 7q17 12 17 37q0 15 -6 25q-11 18 -39 33l-166 77q-30 15 -92 43q-36 18 -48 26q-11 6 -11 14q0 7 10 15q5 4 13 7q26 13 78 37l25 12l103 47l18 9q61 28 80 38q35 18 35 54
q-1 17 -10 28.5t-24 12.5t-35 -6l-174 -79q-37 -18 -113 -52l-131 -61q-40 -19 -40 -62q0 -16 6 -31q10 -20 38 -32zM344 290q30 -15 92 -43l119 -55l61 -28l90 -42l21 -9q7 -3 19.5 -9t22.5 -9q12 -4 20 -4q11 0 21 7q17 12 17 37q0 15 -6 25q-11 18 -39 33l-166 77
q-30 15 -92 43q-36 18 -48 26q-11 6 -11 14q0 7 10 15q5 4 13 7q26 13 78 37l25 12l103 47l18 9q61 28 80 38q35 18 35 54q-1 17 -10 28.5t-24 12.5t-35 -6l-174 -79q-37 -18 -113 -52l-131 -61q-40 -19 -40 -62q0 -16 6 -31q10 -20 38 -32z" />
    <glyph glyph-name="logicalnot" unicode="&#xac;" horiz-adv-x="571" 
d="M520 388v-260h-71v189h-399v71h470z" />
    <glyph glyph-name="uni00AD" unicode="&#xad;" horiz-adv-x="321" 
d="M40 229v78h242v-78h-242z" />
    <glyph glyph-name="registered" unicode="&#xae;" horiz-adv-x="832" 
d="M355 373h50q40 0 61.5 19.5t21.5 51.5q0 36 -20 51.5t-64 15.5h-49v-138zM565 446q0 -41 -21 -70.5t-57 -43.5l116 -194h-86l-100 173h-62v-173h-76v437h128q82 0 120 -32t38 -97zM49 357q0 98 48.5 183t134 134.5t184.5 49.5q98 0 183.5 -49t134.5 -134t49 -184
q0 -96 -47.5 -180.5t-132.5 -135.5t-187 -51q-101 0 -186.5 50.5t-133 135t-47.5 181.5zM102 357q0 -84 42 -157t115 -115t157 -42t157 42t115 115t42 157t-42 156.5t-115 115t-157 42.5t-156.5 -42t-115 -115t-42.5 -157z" />
    <glyph glyph-name="macron" unicode="&#xaf;" horiz-adv-x="339" 
d="M273 313q-12 -5 -36 -7h-39h-25h-48h-23h-36q-27 0 -41 6q-22 12 -25 36q0 29 23 40q16 8 37 8h117h52h1q27 0 40 -6q25 -12 25 -40q0 -24 -22 -37z" />
    <glyph glyph-name="degree" unicode="&#xb0;" horiz-adv-x="428" 
d="M60 570q0 66 45 110t109 44q65 0 109.5 -45t44.5 -109t-45 -108.5t-109 -44.5q-63 0 -108.5 44t-45.5 109zM120 570q0 -39 28 -66.5t67 -27.5q40 0 66.5 28t26.5 66q0 39 -27 66.5t-66 27.5t-67 -27t-28 -67z" />
    <glyph glyph-name="plusminus" unicode="&#xb1;" horiz-adv-x="571" 
d="M321 391h199v-71h-199v-206h-72v206h-199v71h199v207h72v-207zM50 0v71h470v-71h-470z" />
    <glyph glyph-name="uni00B2" unicode="&#xb2;" horiz-adv-x="350" 
d="M306 286h-282v54l115 112q62 60 79.5 87.5t17.5 61.5q0 32 -18.5 48t-48.5 16t-54.5 -11.5t-50.5 -31.5l-35 46q65 55 141 55q64 0 100.5 -32t36.5 -86q0 -22 -6 -41.5t-18.5 -39.5t-33 -42.5t-138.5 -133.5h195v-62z" />
    <glyph glyph-name="uni00B3" unicode="&#xb3;" horiz-adv-x="350" 
d="M308 613q0 -74 -74 -102q87 -21 87 -102q0 -62 -45 -96.5t-128 -34.5q-74 0 -131 28v63q69 -34 132 -34q100 0 100 76q0 69 -110 69h-57v55h57q50 0 73.5 19t23.5 51q0 29 -19 45t-51 16q-51 0 -111 -38l-36 46q36 27 71 38t75 11q66 0 104.5 -29.5t38.5 -80.5z" />
    <glyph glyph-name="acute" unicode="&#xb4;" horiz-adv-x="580" 
d="M189 618q19 23 47.5 66.5t47.5 81.5h106v-10q-21 -31 -66.5 -78.5t-76.5 -71.5h-58v12z" />
    <glyph glyph-name="mu" unicode="&#xb5;" horiz-adv-x="623" 
d="M173 190q0 -127 120 -127q83 0 120 45.5t37 148.5v279h88v-536h-71l-14 72h-5q-53 -82 -161 -82q-71 0 -115 45h-4q5 -36 5 -119v-156h-88v776h88v-346z" />
    <glyph glyph-name="paragraph" unicode="&#xb6;" horiz-adv-x="654" 
d="M549 -127h-58v831h-102v-831h-58v400q-30 -9 -71 -9q-105 0 -155 61t-50 184q0 127 53.5 189t166.5 62h274v-887z" />
    <glyph glyph-name="periodcentered" unicode="&#xb7;" horiz-adv-x="118" 
d="M17 307.5q17 -17.5 42 -17.5t42 17.5t17 43.5t-17 43.5t-42 17.5t-42 -17.5t-17 -43.5t17 -43.5z" />
    <glyph glyph-name="cedilla" unicode="&#xb8;" horiz-adv-x="225" 
d="M212 -139q0 -48 -37 -74.5t-111 -26.5q-32 0 -50 5v55q18 -5 53 -5q37 0 55.5 9.5t18.5 34.5q0 43 -91 55l43 86h58l-26 -53q87 -19 87 -86z" />
    <glyph glyph-name="uni00B9" unicode="&#xb9;" horiz-adv-x="350" 
d="M167 714h73v-428h-71v276q0 33 4 89q-15 -14 -26.5 -23t-74.5 -55l-35 49z" />
    <glyph glyph-name="ordmasculine" unicode="&#xba;" horiz-adv-x="375" 
d="M345 553q0 -80 -42 -125t-116 -45q-71 0 -113 45t-42 125q0 81 41 125t116 44q73 0 114.5 -44.5t41.5 -124.5zM95 553q0 -59 21.5 -88t71.5 -29q49 0 71 29t22 88t-22 87.5t-71 28.5t-71 -28.5t-22 -87.5z" />
    <glyph glyph-name="guillemotright" unicode="&#xbb;" horiz-adv-x="827" 
d="M483 412q-30 15 -92 43l-119 55l-61 28l-90 42l-21 9q-7 3 -19.5 9t-22.5 9q-12 4 -20 4q-11 0 -21 -7q-17 -12 -17 -37q0 -14 6 -25q11 -18 39 -33l166 -77q30 -15 92 -43q36 -18 48 -26q11 -5 11 -14q0 -8 -10 -15q-5 -4 -13 -7q-26 -13 -78 -37l-25 -12l-103 -47
l-18 -9q-61 -28 -80 -38q-35 -18 -35 -54q1 -17 10 -28.5t24 -12.5t35 6l174 79q37 18 113 52l131 61q40 19 40 62q0 16 -6 31q-10 20 -38 32zM783 412q-30 15 -92 43l-119 55l-61 28l-90 42l-21 9q-7 3 -19.5 9t-22.5 9q-12 4 -20 4q-11 0 -21 -7q-17 -12 -17 -37
q0 -14 6 -25q11 -18 39 -33l166 -77q30 -15 92 -43q36 -18 48 -26q11 -5 11 -14q0 -8 -10 -15q-5 -4 -13 -7q-26 -13 -78 -37l-25 -12l-103 -47l-18 -9q-61 -28 -80 -38q-35 -18 -35 -54q1 -17 10 -28.5t24 -12.5t35 6l174 79q37 18 113 52l131 61q40 19 40 62q0 16 -6 31
q-10 20 -38 32z" />
    <glyph glyph-name="onequarter" unicode="&#xbc;" horiz-adv-x="790" 
d="M736 96h-61v-96h-75v96h-195v52l197 283h73v-275h61v-60zM600 156v93q0 52 3 101q-4 -9 -48 -77l-80 -117h125zM637 714l-436 -714h-75l436 714h75zM165 714h73v-428h-71v276q0 33 4 89q-15 -14 -26.5 -23t-74.5 -55l-35 49z" />
    <glyph glyph-name="onehalf" unicode="&#xbd;" horiz-adv-x="790" 
d="M607 714l-436 -714h-75l436 714h75zM152 714h73v-428h-71v276q0 33 4 89q-15 -14 -26.5 -23t-74.5 -55l-35 49zM727 0h-282v54l115 112q62 60 79.5 87.5t17.5 61.5q0 32 -18.5 48t-48.5 16t-54.5 -11.5t-50.5 -31.5l-35 46q65 55 141 55q64 0 100.5 -32t36.5 -86
q0 -22 -6 -41.5t-18.5 -39.5t-33 -42.5t-138.5 -133.5h195v-62z" />
    <glyph glyph-name="threequarters" unicode="&#xbe;" horiz-adv-x="790" 
d="M772 96h-61v-96h-75v96h-195v52l197 283h73v-275h61v-60zM636 156v93q0 52 3 101q-4 -9 -48 -77l-80 -117h125zM681 714l-436 -714h-75l436 714h75zM307 613q0 -74 -74 -102q87 -21 87 -102q0 -62 -45 -96.5t-128 -34.5q-74 0 -131 28v63q69 -34 132 -34q100 0 100 76
q0 69 -110 69h-57v55h57q50 0 73.5 19t23.5 51q0 29 -19 45t-51 16q-51 0 -111 -38l-36 46q36 27 71 38t75 11q66 0 104.5 -29.5t38.5 -80.5z" />
    <glyph glyph-name="questiondown" unicode="&#xbf;" horiz-adv-x="434" 
d="M294 330v-26q0 -57 -18 -93.5t-67 -77.5q-65 -54 -82 -81t-17 -68q0 -47 31 -73.5t89 -26.5q78 0 161 43l31 -71q-97 -48 -195 -48q-95 0 -148.5 45.5t-53.5 128.5q0 36 9.5 63.5t29.5 52.5t79 75q50 44 65 71t15 70v16h71zM317 478q0 -67 -62 -67q-30 0 -45.5 17.5
t-15.5 49.5q0 36 17.5 52t43.5 16t44 -16t18 -52z" />
    <glyph glyph-name="Agrave" unicode="&#xc0;" horiz-adv-x="639" 
d="M221 548q-2 -7 -4 -12l-48 -131q-13 -39 -41 -115l-61 -168q-14 -36 -24 -70q-3 -7 -3 -15q0 -15 13 -27q10 -10 33 -10t37 10q16 13 27 39l15 41q6 18 20 54q6 13 16 25q7 8 17 10.5t24 2.5h97h49q38 0 52 -37q21 -56 37 -97q10 -28 27 -39t44 -9q15 1 24.5 9.5
t10.5 22.5v7q0 11 -3 21l-13 37l-18 51l-64 175l-19 55l-52 145l-14 39q-8 20 -16.5 44t-18.5 51q-6 19 -18.5 30.5t-30.5 12.5q-19 1 -28.5 -4.5t-18 -23t-26.5 -65.5l-18 -47q-2 -5 -4 -12zM250 309q0 6 1 9q8 30 18 56l9 25q19 50 24 55q4 7 12 7q7 0 11 -8
q14 -28 19 -42q14 -36 31 -88q3 -6 3 -13q0 -9 -9 -17q-8 -5 -23 -7l-28 -1q-31 0 -47 2q-21 3 -21 22zM364 771h-59q-37 29 -80.5 76t-61.5 74v10h105q16 -32 44.5 -76.5t51.5 -71.5v-12z" />
    <glyph glyph-name="Aacute" unicode="&#xc1;" horiz-adv-x="639" 
d="M221 548q-2 -7 -4 -12l-48 -131q-13 -39 -41 -115l-61 -168q-14 -36 -24 -70q-3 -7 -3 -15q0 -15 13 -27q10 -10 33 -10t37 10q16 13 27 39l15 41q6 18 20 54q6 13 16 25q7 8 17 10.5t24 2.5h97h49q38 0 52 -37q21 -56 37 -97q10 -28 27 -39t44 -9q15 1 24.5 9.5
t10.5 22.5v7q0 11 -3 21l-13 37l-18 51l-64 175l-19 55l-52 145l-14 39q-8 20 -16.5 44t-18.5 51q-6 19 -18.5 30.5t-30.5 12.5q-19 1 -28.5 -4.5t-18 -23t-26.5 -65.5l-18 -47q-2 -5 -4 -12zM250 309q0 6 1 9q8 30 18 56l9 25q19 50 24 55q4 7 12 7q7 0 11 -8
q14 -28 19 -42q14 -36 31 -88q3 -6 3 -13q0 -9 -9 -17q-8 -5 -23 -7l-28 -1q-31 0 -47 2q-21 3 -21 22zM257 783q19 23 47.5 66.5t47.5 81.5h106v-10q-21 -31 -66.5 -78.5t-76.5 -71.5h-58v12z" />
    <glyph glyph-name="Acircumflex" unicode="&#xc2;" horiz-adv-x="639" 
d="M146 782q61 65 86 96.5t37 52.5h90q25 -49 125 -149v-11h-62q-44 26 -109 90q-64 -62 -107 -90h-60v11zM221 548q-2 -7 -4 -12l-48 -131q-13 -39 -41 -115l-61 -168q-14 -36 -24 -70q-3 -7 -3 -15q0 -15 13 -27q10 -10 33 -10t37 10q16 13 27 39l15 41q6 18 20 54
q6 13 16 25q7 8 17 10.5t24 2.5h97h49q38 0 52 -37q21 -56 37 -97q10 -28 27 -39t44 -9q15 1 24.5 9.5t10.5 22.5v7q0 11 -3 21l-13 37l-18 51l-64 175l-19 55l-52 145l-14 39q-8 20 -16.5 44t-18.5 51q-6 19 -18.5 30.5t-30.5 12.5q-19 1 -28.5 -4.5t-18 -23t-26.5 -65.5
l-18 -47q-2 -5 -4 -12zM250 309q0 6 1 9q8 30 18 56l9 25q19 50 24 55q4 7 12 7q7 0 11 -8q14 -28 19 -42q14 -36 31 -88q3 -6 3 -13q0 -9 -9 -17q-8 -5 -23 -7l-28 -1q-31 0 -47 2q-21 3 -21 22z" />
    <glyph glyph-name="Atilde" unicode="&#xc3;" horiz-adv-x="639" 
d="M390 772q-21 0 -41 9t-39.5 19.5t-37 19.5t-34.5 9q-24 0 -36 -14.5t-19 -43.5h-51q6 60 34 94t76 34q22 0 42.5 -9t39.5 -19.5t37 -19.5t33 -9q23 0 35.5 14.5t19.5 43.5h50q-6 -58 -34 -93t-75 -35zM221 548q-2 -7 -4 -12l-48 -131q-13 -39 -41 -115l-61 -168
q-14 -36 -24 -70q-3 -7 -3 -15q0 -15 13 -27q10 -10 33 -10t37 10q16 13 27 39l15 41q6 18 20 54q6 13 16 25q7 8 17 10.5t24 2.5h97h49q38 0 52 -37q21 -56 37 -97q10 -28 27 -39t44 -9q15 1 24.5 9.5t10.5 22.5v7q0 11 -3 21l-13 37l-18 51l-64 175l-19 55l-52 145l-14 39
q-8 20 -16.5 44t-18.5 51q-6 19 -18.5 30.5t-30.5 12.5q-19 1 -28.5 -4.5t-18 -23t-26.5 -65.5l-18 -47q-2 -5 -4 -12zM250 309q0 6 1 9q8 30 18 56l9 25q19 50 24 55q4 7 12 7q7 0 11 -8q14 -28 19 -42q14 -36 31 -88q3 -6 3 -13q0 -9 -9 -17q-8 -5 -23 -7l-28 -1
q-31 0 -47 2q-21 3 -21 22z" />
    <glyph glyph-name="Adieresis" unicode="&#xc4;" horiz-adv-x="623" 
d="M376.5 770q11.5 -12 28.5 -12q18 0 29.5 12t11.5 30t-11.5 30t-29.5 12q-17 0 -28.5 -12t-11.5 -30t11.5 -30zM176.5 770q11.5 -12 28.5 -12q18 0 29.5 12t11.5 30t-11.5 30t-29.5 12q-17 0 -28.5 -12t-11.5 -30t11.5 -30zM221 548q-2 -7 -4 -12l-48 -131
q-13 -39 -41 -115l-61 -168q-14 -36 -24 -70q-3 -7 -3 -15q0 -15 13 -27q10 -10 33 -10t37 10q16 13 27 39l15 41q6 18 20 54q6 13 16 25q7 8 17 10.5t24 2.5h97h49q38 0 52 -37q21 -56 37 -97q10 -28 27 -39t44 -9q15 1 24.5 9.5t10.5 22.5v7q0 11 -3 21l-13 37l-18 51
l-64 175l-19 55l-52 145l-14 39q-8 20 -16.5 44t-18.5 51q-6 19 -18.5 30.5t-30.5 12.5q-19 1 -28.5 -4.5t-18 -23t-26.5 -65.5l-18 -47q-2 -5 -4 -12zM250 309q0 6 1 9q8 30 18 56l9 25q19 50 24 55q4 7 12 7q7 0 11 -8q14 -28 19 -42q14 -36 31 -88q3 -6 3 -13
q0 -9 -9 -17q-8 -5 -23 -7l-28 -1q-31 0 -47 2q-21 3 -21 22z" />
    <glyph glyph-name="Aring" unicode="&#xc5;" horiz-adv-x="639" 
d="M428 774q0 -34 -14.5 -58t-39.5 -36l264 -680h-93l-86 221h-283l-85 -221h-91l263 677q-26 12 -40.5 36.5t-14.5 59.5q0 48 29.5 76.5t79.5 28.5t80.5 -29t30.5 -75zM432 301l-80 216l-34 107q-15 -59 -31 -107l-81 -216h226zM373 773q0 26 -16 41t-40 15t-40 -15
t-16 -41t14.5 -41t41.5 -15q25 0 40.5 15t15.5 41z" />
    <glyph glyph-name="AE" unicode="&#xc6;" horiz-adv-x="880" 
d="M821 0h-372v221h-250l-107 -221h-93l339 714h483v-79h-282v-223h263v-78h-263v-255h282v-79zM234 301h215v333h-58z" />
    <glyph glyph-name="Ccedilla" unicode="&#xc7;" horiz-adv-x="631" 
d="M372 700q-45 -1 -89 -15q-81 -25 -148 -95q-37 -39 -62 -90q-33 -67 -33 -151q0 -14 2 -38q6 -65 38 -125q21 -40 59 -81q46 -46 101 -72q67 -33 147 -33q19 0 55 4q53 8 95 29q46 22 73 49q14 14 14 32q0 14 -8 26q-17 25 -42 25q-11 0 -23 -6q-11 -5 -31 -19
q-60 -38 -131 -38q-82 0 -147 48q-48 37 -74 86q-25 51 -25 109q0 12 2 34q16 138 139 196q50 24 101 24q40 0 82 -14q25 -8 47.5 -22t25.5 -16q22 -14 35.5 -21t25.5 -7q21 0 36 21q8 13 8 26q0 14 -6.5 24t-18.5 21q-33 31 -78 54q-72 37 -154 35h-16zM464 -139
q0 -48 -37 -74.5t-111 -26.5q-32 0 -50 5v55q18 -5 53 -5q37 0 55.5 9.5t18.5 34.5q0 43 -91 55l43 86h58l-26 -53q87 -19 87 -86z" />
    <glyph glyph-name="Egrave" unicode="&#xc8;" horiz-adv-x="556" 
d="M90 12q9 -7 19 -9t25 -3h155t155 1q19 0 38 8q12 6 18.5 19.5t4.5 29.5q-5 33 -31 40q-20 5 -38 5q-149 0 -224 1q-28 0 -35 19q-4 16 -4 25q0 78 1 118q0 27 29 32q9 2 26 2h109q25 0 39 8q11 6 17.5 17t6.5 25q0 38 -32 48q-16 4 -37 4q-40 1 -120 1q-17 0 -27 9
t-11 25l-1 64l1 63q0 27 28 32q6 2 19 2h212q16 0 32 3q30 6 36 34q2 12 2 17q0 22 -17 36q-14 12 -44 12l-158 1h-19q-96 0 -134 -6.5t-49.5 -26.5t-11.5 -71v-61l1 -480q0 -30 19 -44zM354 771h-59q-37 29 -80.5 76t-61.5 74v10h105q16 -32 44.5 -76.5t51.5 -71.5v-12z
" />
    <glyph glyph-name="Eacute" unicode="&#xc9;" horiz-adv-x="556" 
d="M90 12q9 -7 19 -9t25 -3h155t155 1q19 0 38 8q12 6 18.5 19.5t4.5 29.5q-5 33 -31 40q-20 5 -38 5q-149 0 -224 1q-28 0 -35 19q-4 16 -4 25q0 78 1 118q0 27 29 32q9 2 26 2h109q25 0 39 8q11 6 17.5 17t6.5 25q0 38 -32 48q-16 4 -37 4q-40 1 -120 1q-17 0 -27 9
t-11 25l-1 64l1 63q0 27 28 32q6 2 19 2h212q16 0 32 3q30 6 36 34q2 12 2 17q0 22 -17 36q-14 12 -44 12l-158 1h-19q-96 0 -134 -6.5t-49.5 -26.5t-11.5 -71v-61l1 -480q0 -30 19 -44zM221 783q19 23 47.5 66.5t47.5 81.5h106v-10q-21 -31 -66.5 -78.5t-76.5 -71.5h-58v12
z" />
    <glyph glyph-name="Ecircumflex" unicode="&#xca;" horiz-adv-x="556" 
d="M125 782q61 65 86 96.5t37 52.5h90q25 -49 125 -149v-11h-62q-44 26 -109 90q-64 -62 -107 -90h-60v11zM90 12q9 -7 19 -9t25 -3h155t155 1q19 0 38 8q12 6 18.5 19.5t4.5 29.5q-5 33 -31 40q-20 5 -38 5q-149 0 -224 1q-28 0 -35 19q-4 16 -4 25q0 78 1 118q0 27 29 32
q9 2 26 2h109q25 0 39 8q11 6 17.5 17t6.5 25q0 38 -32 48q-16 4 -37 4q-40 1 -120 1q-17 0 -27 9t-11 25l-1 64l1 63q0 27 28 32q6 2 19 2h212q16 0 32 3q30 6 36 34q2 12 2 17q0 22 -17 36q-14 12 -44 12l-158 1h-19q-96 0 -134 -6.5t-49.5 -26.5t-11.5 -71v-61l1 -480
q0 -30 19 -44z" />
    <glyph glyph-name="Edieresis" unicode="&#xcb;" horiz-adv-x="556" 
d="M90 12q9 -7 19 -9t25 -3h155t155 1q19 0 38 8q12 6 18.5 19.5t4.5 29.5q-5 33 -31 40q-20 5 -38 5q-149 0 -224 1q-28 0 -35 19q-4 16 -4 25q0 78 1 118q0 27 29 32q9 2 26 2h109q25 0 39 8q11 6 17.5 17t6.5 25q0 38 -32 48q-16 4 -37 4q-40 1 -120 1q-17 0 -27 9
t-11 25l-1 64l1 63q0 27 28 32q6 2 19 2h212q16 0 32 3q30 6 36 34q2 12 2 17q0 22 -17 36q-14 12 -44 12l-158 1h-19q-96 0 -134 -6.5t-49.5 -26.5t-11.5 -71v-61l1 -480q0 -30 19 -44zM156 846q0 26 13.5 37.5t33.5 11.5q19 0 33 -11.5t14 -37.5t-14 -38t-33 -12
q-20 0 -33.5 12t-13.5 38zM344 846q0 26 13.5 37.5t32.5 11.5t33 -11.5t14 -37.5t-14 -38t-33 -12t-32.5 12t-13.5 38z" />
    <glyph glyph-name="Igrave" unicode="&#xcc;" horiz-adv-x="338" 
d="M70 41q0 -19 15 -30t36 -11t36 11.5t15 32.5v611q0 21 -15.5 32.5t-36.5 11.5q-20 0 -35 -11.5t-15 -32.5v-614zM230 771h-59q-37 29 -80.5 76t-61.5 74v10h105q16 -32 44.5 -76.5t51.5 -71.5v-12z" />
    <glyph glyph-name="Iacute" unicode="&#xcd;" horiz-adv-x="338" 
d="M70 41q0 -19 15 -30t36 -11t36 11.5t15 32.5v611q0 21 -15.5 32.5t-36.5 11.5q-20 0 -35 -11.5t-15 -32.5v-614zM115 783q19 23 47.5 66.5t47.5 81.5h106v-10q-21 -31 -66.5 -78.5t-76.5 -71.5h-58v12z" />
    <glyph glyph-name="Icircumflex" unicode="&#xce;" horiz-adv-x="338" 
d="M-1 782q61 65 86 96.5t37 52.5h90q25 -49 125 -149v-11h-62q-44 26 -109 90q-64 -62 -107 -90h-60v11zM70 41q0 -19 15 -30t36 -11t36 11.5t15 32.5v611q0 21 -15.5 32.5t-36.5 11.5q-20 0 -35 -11.5t-15 -32.5v-614z" />
    <glyph glyph-name="Idieresis" unicode="&#xcf;" horiz-adv-x="338" 
d="M70 41q0 -19 15 -30t36 -11t36 11.5t15 32.5v611q0 21 -15.5 32.5t-36.5 11.5q-20 0 -35 -11.5t-15 -32.5v-614zM29 846q0 26 13.5 37.5t33.5 11.5q19 0 33 -11.5t14 -37.5t-14 -38t-33 -12q-20 0 -33.5 12t-13.5 38zM217 846q0 26 13.5 37.5t32.5 11.5t33 -11.5
t14 -37.5t-14 -38t-33 -12t-32.5 12t-13.5 38z" />
    <glyph glyph-name="Eth" unicode="&#xd0;" horiz-adv-x="729" 
d="M669 364q0 -175 -96 -269.5t-278 -94.5h-191v314h-74v78h74v322h213q167 0 259.5 -92t92.5 -258zM574 361q0 137 -68 206.5t-202 69.5h-110v-245h178v-78h-178v-237h90q290 0 290 284z" />
    <glyph glyph-name="Ntilde" unicode="&#xd1;" horiz-adv-x="759" 
d="M459 772q-21 0 -41 9t-39.5 19.5t-37 19.5t-34.5 9q-24 0 -36 -14.5t-19 -43.5h-51q6 60 34 94t76 34q22 0 42.5 -9t39.5 -19.5t37 -19.5t33 -9q23 0 35.5 14.5t19.5 43.5h50q-6 -58 -34 -93t-75 -35zM544 464q0 126 -1 186q0 22 -13 36t-37 14q-17 0 -30 -9t-17 -26
q-3 -16 -3 -32q-1 -115 -1 -350q0 -13 -6 -35q-1 -5 -5 -6.5t-8 2.5q-19 24 -23 30q-31 55 -56 101l-40 75q-26 50 -40 74l-74 133q-10 18 -32 30t-43 12q-29 0 -37 -15t-8 -61l1 -73v-458q0 -30 1 -44q1 -23 13.5 -36.5t36.5 -13.5q17 0 30 9t17 26q4 13 4 32q0 233 1 350
q0 12 5 27q1 5 5.5 6.5t7.5 -2.5q13 -12 20 -26l92 -162q38 -70 116 -208q10 -19 22 -32q18 -20 53 -18q17 0 29.5 10t16.5 26q3 17 3 31v280v117z" />
    <glyph glyph-name="Ograve" unicode="&#xd2;" horiz-adv-x="780" 
d="M215.5 650q-80.5 -47 -128 -127.5t-47.5 -172.5q0 -94 47.5 -174.5t127.5 -128t173 -47.5q94 0 174.5 48t127.5 128t47 172q0 94 -48 174.5t-128.5 127.5t-172.5 46q-92 1 -172.5 -46zM175 470q33 57 90 90.5t124 33.5q64 0 120.5 -33t90.5 -90t34 -124q0 -64 -33 -120
t-89 -90t-122 -34t-123.5 33.5t-91 89.5t-32.5 122q-1 65 32 122zM448 771h-59q-37 29 -80.5 76t-61.5 74v10h105q16 -32 44.5 -76.5t51.5 -71.5v-12z" />
    <glyph glyph-name="Oacute" unicode="&#xd3;" horiz-adv-x="780" 
d="M215.5 650q-80.5 -47 -128 -127.5t-47.5 -172.5q0 -94 47.5 -174.5t127.5 -128t173 -47.5q94 0 174.5 48t127.5 128t47 172q0 94 -48 174.5t-128.5 127.5t-172.5 46q-92 1 -172.5 -46zM175 470q33 57 90 90.5t124 33.5q64 0 120.5 -33t90.5 -90t34 -124q0 -64 -33 -120
t-89 -90t-122 -34t-123.5 33.5t-91 89.5t-32.5 122q-1 65 32 122zM321 783q19 23 47.5 66.5t47.5 81.5h106v-10q-21 -31 -66.5 -78.5t-76.5 -71.5h-58v12z" />
    <glyph glyph-name="Ocircumflex" unicode="&#xd4;" horiz-adv-x="780" 
d="M215 782q61 65 86 96.5t37 52.5h90q25 -49 125 -149v-11h-62q-44 26 -109 90q-64 -62 -107 -90h-60v11zM215.5 650q-80.5 -47 -128 -127.5t-47.5 -172.5q0 -94 47.5 -174.5t127.5 -128t173 -47.5q94 0 174.5 48t127.5 128t47 172q0 94 -48 174.5t-128.5 127.5t-172.5 46
q-92 1 -172.5 -46zM175 470q33 57 90 90.5t124 33.5q64 0 120.5 -33t90.5 -90t34 -124q0 -64 -33 -120t-89 -90t-122 -34t-123.5 33.5t-91 89.5t-32.5 122q-1 65 32 122z" />
    <glyph glyph-name="Otilde" unicode="&#xd5;" horiz-adv-x="780" 
d="M461 772q-21 0 -41 9t-39.5 19.5t-37 19.5t-34.5 9q-24 0 -36 -14.5t-19 -43.5h-51q6 60 34 94t76 34q22 0 42.5 -9t39.5 -19.5t37 -19.5t33 -9q23 0 35.5 14.5t19.5 43.5h50q-6 -58 -34 -93t-75 -35zM215.5 650q-80.5 -47 -128 -127.5t-47.5 -172.5q0 -94 47.5 -174.5
t127.5 -128t173 -47.5q94 0 174.5 48t127.5 128t47 172q0 94 -48 174.5t-128.5 127.5t-172.5 46q-92 1 -172.5 -46zM175 470q33 57 90 90.5t124 33.5q64 0 120.5 -33t90.5 -90t34 -124q0 -64 -33 -120t-89 -90t-122 -34t-123.5 33.5t-91 89.5t-32.5 122q-1 65 32 122z" />
    <glyph glyph-name="Odieresis" unicode="&#xd6;" horiz-adv-x="777" 
d="M436.5 770q11.5 -12 28.5 -12q18 0 29.5 12t11.5 30t-11.5 30t-29.5 12q-17 0 -28.5 -12t-11.5 -30t11.5 -30zM236.5 770q11.5 -12 28.5 -12q18 0 29.5 12t11.5 30t-11.5 30t-29.5 12q-17 0 -28.5 -12t-11.5 -30t11.5 -30zM215.5 650q-80.5 -47 -128 -127.5t-47.5 -172.5
q0 -94 47.5 -174.5t127.5 -128t173 -47.5q94 0 174.5 48t127.5 128t47 172q0 94 -48 174.5t-128.5 127.5t-172.5 46q-92 1 -172.5 -46zM175 470q33 57 90 90.5t124 33.5q64 0 120.5 -33t90.5 -90t34 -124q0 -64 -33 -120t-89 -90t-122 -34t-123.5 33.5t-91 89.5t-32.5 122
q-1 65 32 122z" />
    <glyph glyph-name="multiply" unicode="&#xd7;" horiz-adv-x="237" 
d="M191 233q-8 0 -12 1q-15 7 -30 21l-33 33l-25 -25l-1 -1q-2 -2 -11.5 -11t-21.5 -12q-10 -2 -14 -2q-17 0 -29 11q-14 14 -14 30q0 4 2 14q5 12 21 30l28 28l2 3l-24 25q-19 19 -24 33q-2 5 -2 15q0 17 10 28q14 14 32 14q4 0 12 -2q18 -7 32 -21l29 -30l2 1l26 25
q17 17 34 24q8 2 13 2q17 0 30 -10q14 -14 14 -31q0 -7 -3 -15q-6 -15 -22 -31l-31 -30l27 -27q19 -19 24 -33q2 -10 2 -15q0 -17 -11 -28q-13 -14 -32 -14z" />
    <glyph glyph-name="Oslash" unicode="&#xd8;" horiz-adv-x="780" 
d="M720 358q0 -171 -86.5 -269.5t-242.5 -98.5q-113 0 -185 47l-48 -68l-61 40l52 74q-88 97 -88 276q0 174 85.5 270t245.5 96q100 0 178 -45l46 66l61 -41l-51 -71q94 -99 94 -276zM625 358q0 129 -51 202l-320 -454q56 -38 137 -38q115 0 174.5 73t59.5 217zM156 358
q0 -126 47 -198l319 451q-53 35 -130 35q-116 0 -176 -73.5t-60 -214.5z" />
    <glyph glyph-name="Ugrave" unicode="&#xd9;" horiz-adv-x="730" 
d="M545 620q0 22 -1 33q-3 33 -27 43q-12 5 -22 5q-13 0 -24 -5t-17 -14q-11 -15 -11 -42l-1 -381q-2 -45 -15 -80q-20 -55 -72 -69q-22 -7 -48 -7q-19 0 -42 5q-41 10 -65 46q-15 23 -22 63q-6 36 -6 108v296q0 22 -1 32q-1 22 -14.5 35t-35.5 13q-29 0 -43 -23
q-8 -16 -8 -44v-324q0 -27 4 -81q5 -68 32 -116q38 -72 113 -99q45 -14 88 -14q35 0 64 7q108 24 149 128q23 61 25 145v185v155zM422 771h-59q-37 29 -80.5 76t-61.5 74v10h105q16 -32 44.5 -76.5t51.5 -71.5v-12z" />
    <glyph glyph-name="Uacute" unicode="&#xda;" horiz-adv-x="730" 
d="M545 620q0 22 -1 33q-3 33 -27 43q-12 5 -22 5q-13 0 -24 -5t-17 -14q-11 -15 -11 -42l-1 -381q-2 -45 -15 -80q-20 -55 -72 -69q-22 -7 -48 -7q-19 0 -42 5q-41 10 -65 46q-15 23 -22 63q-6 36 -6 108v296q0 22 -1 32q-1 22 -14.5 35t-35.5 13q-29 0 -43 -23
q-8 -16 -8 -44v-324q0 -27 4 -81q5 -68 32 -116q38 -72 113 -99q45 -14 88 -14q35 0 64 7q108 24 149 128q23 61 25 145v185v155zM293 783q19 23 47.5 66.5t47.5 81.5h106v-10q-21 -31 -66.5 -78.5t-76.5 -71.5h-58v12z" />
    <glyph glyph-name="Ucircumflex" unicode="&#xdb;" horiz-adv-x="730" 
d="M189 782q61 65 86 96.5t37 52.5h90q25 -49 125 -149v-11h-62q-44 26 -109 90q-64 -62 -107 -90h-60v11zM545 620q0 22 -1 33q-3 33 -27 43q-12 5 -22 5q-13 0 -24 -5t-17 -14q-11 -15 -11 -42l-1 -381q-2 -45 -15 -80q-20 -55 -72 -69q-22 -7 -48 -7q-19 0 -42 5
q-41 10 -65 46q-15 23 -22 63q-6 36 -6 108v296q0 22 -1 32q-1 22 -14.5 35t-35.5 13q-29 0 -43 -23q-8 -16 -8 -44v-324q0 -27 4 -81q5 -68 32 -116q38 -72 113 -99q45 -14 88 -14q35 0 64 7q108 24 149 128q23 61 25 145v185v155z" />
    <glyph glyph-name="Udieresis" unicode="&#xdc;" horiz-adv-x="615" 
d="M376.5 770q11.5 -12 28.5 -12q18 0 29.5 12t11.5 30t-11.5 30t-29.5 12q-17 0 -28.5 -12t-11.5 -30t11.5 -30zM176.5 770q11.5 -12 28.5 -12q18 0 29.5 12t11.5 30t-11.5 30t-29.5 12q-17 0 -28.5 -12t-11.5 -30t11.5 -30zM545 620q0 22 -1 33q-3 33 -27 43q-12 5 -22 5
q-13 0 -24 -5t-17 -14q-11 -15 -11 -42l-1 -381q-2 -45 -15 -80q-20 -55 -72 -69q-22 -7 -48 -7q-19 0 -42 5q-41 10 -65 46q-15 23 -22 63q-6 36 -6 108v296q0 22 -1 32q-1 22 -14.5 35t-35.5 13q-29 0 -43 -23q-8 -16 -8 -44v-324q0 -27 4 -81q5 -68 32 -116
q38 -72 113 -99q45 -14 88 -14q35 0 64 7q108 24 149 128q23 61 25 145v185v155z" />
    <glyph glyph-name="Yacute" unicode="&#xdd;" horiz-adv-x="565" 
d="M235 54q0 -22 10 -35q14 -19 46 -19q36 2 45 31q5 20 5 37v238q0 29 16 58l60 98l78 129q22 35 34 60q4 8 4 17q0 24 -28 30q-11 2 -35 2q-33 -3 -56 -38l-74 -121l-36 -55q-7 -9 -16 -9q-8 0 -15 6q-8 8 -10 13l-32 52l-51 82q-23 37 -32 48q-19 23 -56 23q-15 0 -30 -5
q-11 -5 -16.5 -14t-2.5 -20q4 -17 14 -35l152 -249q25 -39 25 -73v-188q0 -42 1 -63zM216 783q19 23 47.5 66.5t47.5 81.5h106v-10q-21 -31 -66.5 -78.5t-76.5 -71.5h-58v12z" />
    <glyph glyph-name="Thorn" unicode="&#xde;" horiz-adv-x="604" 
d="M554 382q0 -110 -73.5 -168.5t-212.5 -58.5h-81v-155h-90v714h90v-124h96q137 0 204 -51.5t67 -156.5zM187 231h72q108 0 155 34.5t47 111.5q0 70 -44.5 103t-140.5 33h-89v-282z" />
    <glyph glyph-name="germandbls" unicode="&#xdf;" horiz-adv-x="473" 
d="M155 -71q0 -14 -1 -21q-4 -33 -29 -41q-12 -4 -20 -4q-28 0 -39 23q-5 9 -6.5 18t-1.5 24v245q0 147 -1 221q0 18 -8 27t-26 11q-5 1 -16 2.5t-18 4.5q-12 4 -19 14t-7 23q0 23 18 33q16 10 44 10h167q44 2 69 11q69 27 81 88q2 12 2 18q0 22 -13 41.5t-34 28.5
q-34 14 -71 11q-18 -1 -27 -8.5t-12 -24.5l-2 -16q-3 -31 -27 -41q-12 -5 -23 -5q-17 0 -30 9.5t-16 29.5q-2 30 -2 43l1 29q2 38 35 51q19 6 57 16q33 6 67 6q39 0 71 -8q65 -19 95 -61q33 -46 33 -99q0 -22 -6 -46q-8 -34 -39 -75q-1 -1 -6 -8t-5 -14t4 -12q5 -10 16 -16
q43 -36 61 -87q11 -36 11 -70q0 -65 -33 -112q-30 -45 -88 -71q-44 -20 -98 -20q-17 0 -25 1q-17 2 -30.5 4.5t-22.5 4.5q-22 3 -28 -19q-2 -14 -2 -21v-74v-74zM164 279q7 -32 27 -51q26 -27 68 -27q41 0 70 22q44 34 44 93q0 29 -12 54q-19 36 -63 52q-34 11 -75 11
q-12 0 -38 -2q-28 -3 -29 -31v-32q-2 -56 8 -89z" />
    <glyph glyph-name="agrave" unicode="&#xe0;" horiz-adv-x="561" 
d="M221 548q-2 -7 -4 -12l-48 -131q-13 -39 -41 -115l-61 -168q-14 -36 -24 -70q-3 -7 -3 -15q0 -15 13 -27q10 -10 33 -10t37 10q16 13 27 39l15 41q6 18 20 54q6 13 16 25q7 8 17 10.5t24 2.5h97h49q38 0 52 -37q21 -56 37 -97q10 -28 27 -39t44 -9q15 1 24.5 9.5
t10.5 22.5v7q0 11 -3 21l-13 37l-18 51l-64 175l-19 55l-52 145l-14 39q-8 20 -16.5 44t-18.5 51q-6 19 -18.5 30.5t-30.5 12.5q-19 1 -28.5 -4.5t-18 -23t-26.5 -65.5l-18 -47q-2 -5 -4 -12zM250 309q0 6 1 9q8 30 18 56l9 25q19 50 24 55q4 7 12 7q7 0 11 -8
q14 -28 19 -42q14 -36 31 -88q3 -6 3 -13q0 -9 -9 -17q-8 -5 -23 -7l-28 -1q-31 0 -47 2q-21 3 -21 22zM335 606h-59q-37 29 -80.5 76t-61.5 74v10h105q16 -32 44.5 -76.5t51.5 -71.5v-12z" />
    <glyph glyph-name="aacute" unicode="&#xe1;" horiz-adv-x="561" 
d="M221 548q-2 -7 -4 -12l-48 -131q-13 -39 -41 -115l-61 -168q-14 -36 -24 -70q-3 -7 -3 -15q0 -15 13 -27q10 -10 33 -10t37 10q16 13 27 39l15 41q6 18 20 54q6 13 16 25q7 8 17 10.5t24 2.5h97h49q38 0 52 -37q21 -56 37 -97q10 -28 27 -39t44 -9q15 1 24.5 9.5
t10.5 22.5v7q0 11 -3 21l-13 37l-18 51l-64 175l-19 55l-52 145l-14 39q-8 20 -16.5 44t-18.5 51q-6 19 -18.5 30.5t-30.5 12.5q-19 1 -28.5 -4.5t-18 -23t-26.5 -65.5l-18 -47q-2 -5 -4 -12zM250 309q0 6 1 9q8 30 18 56l9 25q19 50 24 55q4 7 12 7q7 0 11 -8
q14 -28 19 -42q14 -36 31 -88q3 -6 3 -13q0 -9 -9 -17q-8 -5 -23 -7l-28 -1q-31 0 -47 2q-21 3 -21 22zM213 618q19 23 47.5 66.5t47.5 81.5h106v-10q-21 -31 -66.5 -78.5t-76.5 -71.5h-58v12z" />
    <glyph glyph-name="acircumflex" unicode="&#xe2;" horiz-adv-x="561" 
d="M109 617q61 65 86 96.5t37 52.5h90q25 -49 125 -149v-11h-62q-44 26 -109 90q-64 -62 -107 -90h-60v11zM221 548q-2 -7 -4 -12l-48 -131q-13 -39 -41 -115l-61 -168q-14 -36 -24 -70q-3 -7 -3 -15q0 -15 13 -27q10 -10 33 -10t37 10q16 13 27 39l15 41q6 18 20 54
q6 13 16 25q7 8 17 10.5t24 2.5h97h49q38 0 52 -37q21 -56 37 -97q10 -28 27 -39t44 -9q15 1 24.5 9.5t10.5 22.5v7q0 11 -3 21l-13 37l-18 51l-64 175l-19 55l-52 145l-14 39q-8 20 -16.5 44t-18.5 51q-6 19 -18.5 30.5t-30.5 12.5q-19 1 -28.5 -4.5t-18 -23t-26.5 -65.5
l-18 -47q-2 -5 -4 -12zM250 309q0 6 1 9q8 30 18 56l9 25q19 50 24 55q4 7 12 7q7 0 11 -8q14 -28 19 -42q14 -36 31 -88q3 -6 3 -13q0 -9 -9 -17q-8 -5 -23 -7l-28 -1q-31 0 -47 2q-21 3 -21 22z" />
    <glyph glyph-name="atilde" unicode="&#xe3;" horiz-adv-x="561" 
d="M356 607q-21 0 -41 9t-39.5 19.5t-37 19.5t-34.5 9q-24 0 -36 -14.5t-19 -43.5h-51q6 60 34 94t76 34q22 0 42.5 -9t39.5 -19.5t37 -19.5t33 -9q23 0 35.5 14.5t19.5 43.5h50q-6 -58 -34 -93t-75 -35zM221 548q-2 -7 -4 -12l-48 -131q-13 -39 -41 -115l-61 -168
q-14 -36 -24 -70q-3 -7 -3 -15q0 -15 13 -27q10 -10 33 -10t37 10q16 13 27 39l15 41q6 18 20 54q6 13 16 25q7 8 17 10.5t24 2.5h97h49q38 0 52 -37q21 -56 37 -97q10 -28 27 -39t44 -9q15 1 24.5 9.5t10.5 22.5v7q0 11 -3 21l-13 37l-18 51l-64 175l-19 55l-52 145l-14 39
q-8 20 -16.5 44t-18.5 51q-6 19 -18.5 30.5t-30.5 12.5q-19 1 -28.5 -4.5t-18 -23t-26.5 -65.5l-18 -47q-2 -5 -4 -12zM250 309q0 6 1 9q8 30 18 56l9 25q19 50 24 55q4 7 12 7q7 0 11 -8q14 -28 19 -42q14 -36 31 -88q3 -6 3 -13q0 -9 -9 -17q-8 -5 -23 -7l-28 -1
q-31 0 -47 2q-21 3 -21 22z" />
    <glyph glyph-name="adieresis" unicode="&#xe4;" horiz-adv-x="623" 
d="M376.5 770q11.5 -12 28.5 -12q18 0 29.5 12t11.5 30t-11.5 30t-29.5 12q-17 0 -28.5 -12t-11.5 -30t11.5 -30zM176.5 770q11.5 -12 28.5 -12q18 0 29.5 12t11.5 30t-11.5 30t-29.5 12q-17 0 -28.5 -12t-11.5 -30t11.5 -30zM221 548q-2 -7 -4 -12l-48 -131
q-13 -39 -41 -115l-61 -168q-14 -36 -24 -70q-3 -7 -3 -15q0 -15 13 -27q10 -10 33 -10t37 10q16 13 27 39l15 41q6 18 20 54q6 13 16 25q7 8 17 10.5t24 2.5h97h49q38 0 52 -37q21 -56 37 -97q10 -28 27 -39t44 -9q15 1 24.5 9.5t10.5 22.5v7q0 11 -3 21l-13 37l-18 51
l-64 175l-19 55l-52 145l-14 39q-8 20 -16.5 44t-18.5 51q-6 19 -18.5 30.5t-30.5 12.5q-19 1 -28.5 -4.5t-18 -23t-26.5 -65.5l-18 -47q-2 -5 -4 -12zM250 309q0 6 1 9q8 30 18 56l9 25q19 50 24 55q4 7 12 7q7 0 11 -8q14 -28 19 -42q14 -36 31 -88q3 -6 3 -13
q0 -9 -9 -17q-8 -5 -23 -7l-28 -1q-31 0 -47 2q-21 3 -21 22z" />
    <glyph glyph-name="aring" unicode="&#xe5;" horiz-adv-x="561" 
d="M397 713q0 -49 -30.5 -78t-80.5 -29t-79.5 28.5t-29.5 77.5q0 48 29.5 76.5t79.5 28.5q49 0 80 -29t31 -75zM342 712q0 26 -16 41t-40 15t-40 -15t-16 -41t14.5 -41t41.5 -15q25 0 40.5 15t15.5 41zM221 548q-2 -7 -4 -12l-48 -131q-13 -39 -41 -115l-61 -168
q-14 -36 -24 -70q-3 -7 -3 -15q0 -15 13 -27q10 -10 33 -10t37 10q16 13 27 39l15 41q6 18 20 54q6 13 16 25q7 8 17 10.5t24 2.5h97h49q38 0 52 -37q21 -56 37 -97q10 -28 27 -39t44 -9q15 1 24.5 9.5t10.5 22.5v7q0 11 -3 21l-13 37l-18 51l-64 175l-19 55l-52 145l-14 39
q-8 20 -16.5 44t-18.5 51q-6 19 -18.5 30.5t-30.5 12.5q-19 1 -28.5 -4.5t-18 -23t-26.5 -65.5l-18 -47q-2 -5 -4 -12zM250 309q0 6 1 9q8 30 18 56l9 25q19 50 24 55q4 7 12 7q7 0 11 -8q14 -28 19 -42q14 -36 31 -88q3 -6 3 -13q0 -9 -9 -17q-8 -5 -23 -7l-28 -1
q-31 0 -47 2q-21 3 -21 22z" />
    <glyph glyph-name="ae" unicode="&#xe6;" horiz-adv-x="863" 
d="M46 149q0 163 244 171l90 3v34q0 60 -27.5 88.5t-84.5 28.5q-68 0 -150 -41l-27 66q35 20 84.5 33t99.5 13q62 0 102.5 -20.5t61.5 -65.5q26 42 67.5 64.5t96.5 22.5q96 0 153 -66t57 -174v-54h-343q4 -187 155 -187q43 0 80.5 8t83.5 29v-77q-43 -19 -80 -27t-87 -8
q-142 0 -203 113q-40 -61 -88.5 -87t-114.5 -26q-80 0 -125 42t-45 117zM137 148q0 -45 25.5 -66t67.5 -21q68 0 108 40t40 113v48l-75 -3q-86 -3 -126 -29t-40 -82zM602 474q-58 0 -91 -39t-39 -114h248q0 74 -30.5 113.5t-87.5 39.5z" />
    <glyph glyph-name="ccedilla" unicode="&#xe7;" horiz-adv-x="479" 
d="M372 700q-45 -1 -89 -15q-81 -25 -148 -95q-37 -39 -62 -90q-33 -67 -33 -151q0 -14 2 -38q6 -65 38 -125q21 -40 59 -81q46 -46 101 -72q67 -33 147 -33q19 0 55 4q53 8 95 29q46 22 73 49q14 14 14 32q0 14 -8 26q-17 25 -42 25q-11 0 -23 -6q-11 -5 -31 -19
q-60 -38 -131 -38q-82 0 -147 48q-48 37 -74 86q-25 51 -25 109q0 12 2 34q16 138 139 196q50 24 101 24q40 0 82 -14q25 -8 47.5 -22t25.5 -16q22 -14 35.5 -21t25.5 -7q21 0 36 21q8 13 8 26q0 14 -6.5 24t-18.5 21q-33 31 -78 54q-72 37 -154 35h-16zM374 -139
q0 -48 -37 -74.5t-111 -26.5q-32 0 -50 5v55q18 -5 53 -5q37 0 55.5 9.5t18.5 34.5q0 43 -91 55l43 86h58l-26 -53q87 -19 87 -86z" />
    <glyph glyph-name="egrave" unicode="&#xe8;" horiz-adv-x="563" 
d="M90 12q9 -7 19 -9t25 -3h155t155 1q19 0 38 8q12 6 18.5 19.5t4.5 29.5q-5 33 -31 40q-20 5 -38 5q-149 0 -224 1q-28 0 -35 19q-4 16 -4 25q0 78 1 118q0 27 29 32q9 2 26 2h109q25 0 39 8q11 6 17.5 17t6.5 25q0 38 -32 48q-16 4 -37 4q-40 1 -120 1q-17 0 -27 9
t-11 25l-1 64l1 63q0 27 28 32q6 2 19 2h212q16 0 32 3q30 6 36 34q2 12 2 17q0 22 -17 36q-14 12 -44 12l-158 1h-19q-96 0 -134 -6.5t-49.5 -26.5t-11.5 -71v-61l1 -480q0 -30 19 -44zM353 606h-59q-37 29 -80.5 76t-61.5 74v10h105q16 -32 44.5 -76.5t51.5 -71.5v-12z
" />
    <glyph glyph-name="eacute" unicode="&#xe9;" horiz-adv-x="563" 
d="M90 12q9 -7 19 -9t25 -3h155t155 1q19 0 38 8q12 6 18.5 19.5t4.5 29.5q-5 33 -31 40q-20 5 -38 5q-149 0 -224 1q-28 0 -35 19q-4 16 -4 25q0 78 1 118q0 27 29 32q9 2 26 2h109q25 0 39 8q11 6 17.5 17t6.5 25q0 38 -32 48q-16 4 -37 4q-40 1 -120 1q-17 0 -27 9
t-11 25l-1 64l1 63q0 27 28 32q6 2 19 2h212q16 0 32 3q30 6 36 34q2 12 2 17q0 22 -17 36q-14 12 -44 12l-158 1h-19q-96 0 -134 -6.5t-49.5 -26.5t-11.5 -71v-61l1 -480q0 -30 19 -44zM228 618q19 23 47.5 66.5t47.5 81.5h106v-10q-21 -31 -66.5 -78.5t-76.5 -71.5h-58v12
z" />
    <glyph glyph-name="ecircumflex" unicode="&#xea;" horiz-adv-x="563" 
d="M124 617q61 65 86 96.5t37 52.5h90q25 -49 125 -149v-11h-62q-44 26 -109 90q-64 -62 -107 -90h-60v11zM90 12q9 -7 19 -9t25 -3h155t155 1q19 0 38 8q12 6 18.5 19.5t4.5 29.5q-5 33 -31 40q-20 5 -38 5q-149 0 -224 1q-28 0 -35 19q-4 16 -4 25q0 78 1 118q0 27 29 32
q9 2 26 2h109q25 0 39 8q11 6 17.5 17t6.5 25q0 38 -32 48q-16 4 -37 4q-40 1 -120 1q-17 0 -27 9t-11 25l-1 64l1 63q0 27 28 32q6 2 19 2h212q16 0 32 3q30 6 36 34q2 12 2 17q0 22 -17 36q-14 12 -44 12l-158 1h-19q-96 0 -134 -6.5t-49.5 -26.5t-11.5 -71v-61l1 -480
q0 -30 19 -44z" />
    <glyph glyph-name="edieresis" unicode="&#xeb;" horiz-adv-x="563" 
d="M90 12q9 -7 19 -9t25 -3h155t155 1q19 0 38 8q12 6 18.5 19.5t4.5 29.5q-5 33 -31 40q-20 5 -38 5q-149 0 -224 1q-28 0 -35 19q-4 16 -4 25q0 78 1 118q0 27 29 32q9 2 26 2h109q25 0 39 8q11 6 17.5 17t6.5 25q0 38 -32 48q-16 4 -37 4q-40 1 -120 1q-17 0 -27 9
t-11 25l-1 64l1 63q0 27 28 32q6 2 19 2h212q16 0 32 3q30 6 36 34q2 12 2 17q0 22 -17 36q-14 12 -44 12l-158 1h-19q-96 0 -134 -6.5t-49.5 -26.5t-11.5 -71v-61l1 -480q0 -30 19 -44zM154 681q0 26 13.5 37.5t33.5 11.5q19 0 33 -11.5t14 -37.5t-14 -38t-33 -12
q-20 0 -33.5 12t-13.5 38zM342 681q0 26 13.5 37.5t32.5 11.5t33 -11.5t14 -37.5t-14 -38t-33 -12t-32.5 12t-13.5 38z" />
    <glyph glyph-name="igrave" unicode="&#xec;" horiz-adv-x="257" 
d="M173 0h-88v536h88v-536zM180 606h-59q-37 29 -80.5 76t-61.5 74v10h105q16 -32 44.5 -76.5t51.5 -71.5v-12z" />
    <glyph glyph-name="iacute" unicode="&#xed;" horiz-adv-x="257" 
d="M173 0h-88v536h88v-536zM82 618q19 23 47.5 66.5t47.5 81.5h106v-10q-21 -31 -66.5 -78.5t-76.5 -71.5h-58v12z" />
    <glyph glyph-name="icircumflex" unicode="&#xee;" horiz-adv-x="257" 
d="M-40 617q61 65 86 96.5t37 52.5h90q25 -49 125 -149v-11h-62q-44 26 -109 90q-64 -62 -107 -90h-60v11zM173 0h-88v536h88v-536z" />
    <glyph glyph-name="idieresis" unicode="&#xef;" horiz-adv-x="257" 
d="M173 0h-88v536h88v-536zM-11 681q0 26 13.5 37.5t33.5 11.5q19 0 33 -11.5t14 -37.5t-14 -38t-33 -12q-20 0 -33.5 12t-13.5 38zM177 681q0 26 13.5 37.5t32.5 11.5t33 -11.5t14 -37.5t-14 -38t-33 -12t-32.5 12t-13.5 38z" />
    <glyph glyph-name="eth" unicode="&#xf0;" horiz-adv-x="604" 
d="M551 275q0 -138 -65 -211.5t-185 -73.5q-110 0 -178 66.5t-68 176.5q0 112 63.5 176t171.5 64q110 0 156 -58l4 2q-29 104 -124 191l-130 -75l-38 55l112 64q-42 28 -90 53l36 60q76 -36 126 -72l115 67l38 -54l-99 -57q74 -68 114.5 -164.5t40.5 -209.5zM462 251
q0 70 -43 110.5t-116 40.5q-81 0 -120 -42.5t-39 -129.5q0 -81 41 -124.5t118 -43.5q83 0 121 48.5t38 140.5z" />
    <glyph glyph-name="ntilde" unicode="&#xf1;" horiz-adv-x="618" 
d="M392 607q-21 0 -41 9t-39.5 19.5t-37 19.5t-34.5 9q-24 0 -36 -14.5t-19 -43.5h-51q6 60 34 94t76 34q22 0 42.5 -9t39.5 -19.5t37 -19.5t33 -9q23 0 35.5 14.5t19.5 43.5h50q-6 -58 -34 -93t-75 -35zM544 464q0 126 -1 186q0 22 -13 36t-37 14q-17 0 -30 -9t-17 -26
q-3 -16 -3 -32q-1 -115 -1 -350q0 -13 -6 -35q-1 -5 -5 -6.5t-8 2.5q-19 24 -23 30q-31 55 -56 101l-40 75q-26 50 -40 74l-74 133q-10 18 -32 30t-43 12q-29 0 -37 -15t-8 -61l1 -73v-458q0 -30 1 -44q1 -23 13.5 -36.5t36.5 -13.5q17 0 30 9t17 26q4 13 4 32q0 233 1 350
q0 12 5 27q1 5 5.5 6.5t7.5 -2.5q13 -12 20 -26l92 -162q38 -70 116 -208q10 -19 22 -32q18 -20 53 -18q17 0 29.5 10t16.5 26q3 17 3 31v280v117z" />
    <glyph glyph-name="ograve" unicode="&#xf2;" horiz-adv-x="604" 
d="M215.5 650q-80.5 -47 -128 -127.5t-47.5 -172.5q0 -94 47.5 -174.5t127.5 -128t173 -47.5q94 0 174.5 48t127.5 128t47 172q0 94 -48 174.5t-128.5 127.5t-172.5 46q-92 1 -172.5 -46zM175 470q33 57 90 90.5t124 33.5q64 0 120.5 -33t90.5 -90t34 -124q0 -64 -33 -120
t-89 -90t-122 -34t-123.5 33.5t-91 89.5t-32.5 122q-1 65 32 122zM367 606h-59q-37 29 -80.5 76t-61.5 74v10h105q16 -32 44.5 -76.5t51.5 -71.5v-12z" />
    <glyph glyph-name="oacute" unicode="&#xf3;" horiz-adv-x="604" 
d="M215.5 650q-80.5 -47 -128 -127.5t-47.5 -172.5q0 -94 47.5 -174.5t127.5 -128t173 -47.5q94 0 174.5 48t127.5 128t47 172q0 94 -48 174.5t-128.5 127.5t-172.5 46q-92 1 -172.5 -46zM175 470q33 57 90 90.5t124 33.5q64 0 120.5 -33t90.5 -90t34 -124q0 -64 -33 -120
t-89 -90t-122 -34t-123.5 33.5t-91 89.5t-32.5 122q-1 65 32 122zM233 618q19 23 47.5 66.5t47.5 81.5h106v-10q-21 -31 -66.5 -78.5t-76.5 -71.5h-58v12z" />
    <glyph glyph-name="ocircumflex" unicode="&#xf4;" horiz-adv-x="604" 
d="M133 617q61 65 86 96.5t37 52.5h90q25 -49 125 -149v-11h-62q-44 26 -109 90q-64 -62 -107 -90h-60v11zM215.5 650q-80.5 -47 -128 -127.5t-47.5 -172.5q0 -94 47.5 -174.5t127.5 -128t173 -47.5q94 0 174.5 48t127.5 128t47 172q0 94 -48 174.5t-128.5 127.5t-172.5 46
q-92 1 -172.5 -46zM175 470q33 57 90 90.5t124 33.5q64 0 120.5 -33t90.5 -90t34 -124q0 -64 -33 -120t-89 -90t-122 -34t-123.5 33.5t-91 89.5t-32.5 122q-1 65 32 122z" />
    <glyph glyph-name="otilde" unicode="&#xf5;" horiz-adv-x="604" 
d="M379 607q-21 0 -41 9t-39.5 19.5t-37 19.5t-34.5 9q-24 0 -36 -14.5t-19 -43.5h-51q6 60 34 94t76 34q22 0 42.5 -9t39.5 -19.5t37 -19.5t33 -9q23 0 35.5 14.5t19.5 43.5h50q-6 -58 -34 -93t-75 -35zM215.5 650q-80.5 -47 -128 -127.5t-47.5 -172.5q0 -94 47.5 -174.5
t127.5 -128t173 -47.5q94 0 174.5 48t127.5 128t47 172q0 94 -48 174.5t-128.5 127.5t-172.5 46q-92 1 -172.5 -46zM175 470q33 57 90 90.5t124 33.5q64 0 120.5 -33t90.5 -90t34 -124q0 -64 -33 -120t-89 -90t-122 -34t-123.5 33.5t-91 89.5t-32.5 122q-1 65 32 122z" />
    <glyph glyph-name="odieresis" unicode="&#xf6;" horiz-adv-x="777" 
d="M436.5 770q11.5 -12 28.5 -12q18 0 29.5 12t11.5 30t-11.5 30t-29.5 12q-17 0 -28.5 -12t-11.5 -30t11.5 -30zM236.5 770q11.5 -12 28.5 -12q18 0 29.5 12t11.5 30t-11.5 30t-29.5 12q-17 0 -28.5 -12t-11.5 -30t11.5 -30zM215.5 650q-80.5 -47 -128 -127.5t-47.5 -172.5
q0 -94 47.5 -174.5t127.5 -128t173 -47.5q94 0 174.5 48t127.5 128t47 172q0 94 -48 174.5t-128.5 127.5t-172.5 46q-92 1 -172.5 -46zM175 470q33 57 90 90.5t124 33.5q64 0 120.5 -33t90.5 -90t34 -124q0 -64 -33 -120t-89 -90t-122 -34t-123.5 33.5t-91 89.5t-32.5 122
q-1 65 32 122z" />
    <glyph glyph-name="divide" unicode="&#xf7;" horiz-adv-x="550" 
d="M50 286v73h451v-73h-451zM219 156q0 17 4.5 28.5t12 19t17.5 10.5t22 3q11 0 21.5 -3t18 -10.5t12 -19t4.5 -28.5q0 -16 -4.5 -27.5t-12 -19t-18 -11t-21.5 -3.5q-12 0 -22 3.5t-17.5 11t-12 19t-4.5 27.5zM219 497q0 17 4.5 28.5t12 19t17.5 10.5t22 3q11 0 21.5 -3
t18 -10.5t12 -19t4.5 -28.5q0 -16 -4.5 -27.5t-12 -19t-18 -11t-21.5 -3.5q-12 0 -22 3.5t-17.5 11t-12 19t-4.5 27.5zM221 622z" />
    <glyph glyph-name="oslash" unicode="&#xf8;" horiz-adv-x="604" 
d="M551 269q0 -131 -66.5 -205t-183.5 -74q-74 0 -129 33l-40 -56l-58 39l45 62q-64 76 -64 201q0 131 65.5 204t183.5 73q74 0 131 -36l39 56l59 -38l-45 -63q63 -76 63 -196zM146 269q0 -81 24 -128l220 306q-36 25 -88 25q-156 0 -156 -203zM460 269q0 74 -23 123
l-220 -306q34 -23 86 -23q77 0 117 52.5t40 153.5z" />
    <glyph glyph-name="ugrave" unicode="&#xf9;" horiz-adv-x="618" 
d="M545 620q0 22 -1 33q-3 33 -27 43q-12 5 -22 5q-13 0 -24 -5t-17 -14q-11 -15 -11 -42l-1 -381q-2 -45 -15 -80q-20 -55 -72 -69q-22 -7 -48 -7q-19 0 -42 5q-41 10 -65 46q-15 23 -22 63q-6 36 -6 108v296q0 22 -1 32q-1 22 -14.5 35t-35.5 13q-29 0 -43 -23
q-8 -16 -8 -44v-324q2 -54 4 -81q5 -68 32 -116q38 -72 113 -99q45 -14 88 -14q35 0 64 7q108 24 149 128q23 61 25 145v175v165zM360 606h-59q-37 29 -80.5 76t-61.5 74v10h105q16 -32 44.5 -76.5t51.5 -71.5v-12z" />
    <glyph glyph-name="uacute" unicode="&#xfa;" horiz-adv-x="618" 
d="M545 620q0 22 -1 33q-3 33 -27 43q-12 5 -22 5q-13 0 -24 -5t-17 -14q-11 -15 -11 -42l-1 -381q-2 -45 -15 -80q-20 -55 -72 -69q-22 -7 -48 -7q-19 0 -42 5q-41 10 -65 46q-15 23 -22 63q-6 36 -6 108v296q0 22 -1 32q-1 22 -14.5 35t-35.5 13q-29 0 -43 -23
q-8 -16 -8 -44v-324q2 -54 4 -81q5 -68 32 -116q38 -72 113 -99q45 -14 88 -14q35 0 64 7q108 24 149 128q23 61 25 145v175v165zM246 618q19 23 47.5 66.5t47.5 81.5h106v-10q-21 -31 -66.5 -78.5t-76.5 -71.5h-58v12z" />
    <glyph glyph-name="ucircumflex" unicode="&#xfb;" horiz-adv-x="618" 
d="M137 617q61 65 86 96.5t37 52.5h90q25 -49 125 -149v-11h-62q-44 26 -109 90q-64 -62 -107 -90h-60v11zM545 620q0 22 -1 33q-3 33 -27 43q-12 5 -22 5q-13 0 -24 -5t-17 -14q-11 -15 -11 -42l-1 -381q-2 -45 -15 -80q-20 -55 -72 -69q-22 -7 -48 -7q-19 0 -42 5
q-41 10 -65 46q-15 23 -22 63q-6 36 -6 108v296q0 22 -1 32q-1 22 -14.5 35t-35.5 13q-29 0 -43 -23q-8 -16 -8 -44v-324q2 -54 4 -81q5 -68 32 -116q38 -72 113 -99q45 -14 88 -14q35 0 64 7q108 24 149 128q23 61 25 145v175v165z" />
    <glyph glyph-name="udieresis" unicode="&#xfc;" horiz-adv-x="615" 
d="M376.5 770q11.5 -12 28.5 -12q18 0 29.5 12t11.5 30t-11.5 30t-29.5 12q-17 0 -28.5 -12t-11.5 -30t11.5 -30zM176.5 770q11.5 -12 28.5 -12q18 0 29.5 12t11.5 30t-11.5 30t-29.5 12q-17 0 -28.5 -12t-11.5 -30t11.5 -30zM545 620q0 22 -1 33q-3 33 -27 43q-12 5 -22 5
q-13 0 -24 -5t-17 -14q-11 -15 -11 -42l-1 -381q-2 -45 -15 -80q-20 -55 -72 -69q-22 -7 -48 -7q-19 0 -42 5q-41 10 -65 46q-15 23 -22 63q-6 36 -6 108v296q0 22 -1 32q-1 22 -14.5 35t-35.5 13q-29 0 -43 -23q-8 -16 -8 -44v-324q0 -27 4 -81q5 -68 32 -116
q38 -72 113 -99q45 -14 88 -14q35 0 64 7q108 24 149 128q23 61 25 145v185v155z" />
    <glyph glyph-name="yacute" unicode="&#xfd;" horiz-adv-x="509" 
d="M235 54q0 -22 10 -35q14 -19 46 -19q36 2 45 31q5 20 5 37v238q0 29 16 58l60 98l78 129q22 35 34 60q4 8 4 17q0 24 -28 30q-11 2 -35 2q-33 -3 -56 -38l-74 -121l-36 -55q-7 -9 -16 -9q-8 0 -15 6q-8 8 -10 13l-32 52l-51 82q-23 37 -32 48q-19 23 -56 23q-15 0 -30 -5
q-11 -5 -16.5 -14t-2.5 -20q4 -17 14 -35l152 -249q25 -39 25 -73v-188q0 -42 1 -63zM200 618q19 23 47.5 66.5t47.5 81.5h106v-10q-21 -31 -66.5 -78.5t-76.5 -71.5h-58v12z" />
    <glyph glyph-name="thorn" unicode="&#xfe;" horiz-adv-x="615" 
d="M174 464q33 44 73.5 63t92.5 19q104 0 162 -73t58 -204t-58 -205t-162 -74q-108 0 -167 78h-6q6 -64 6 -84v-224h-88v1000h88v-224q0 -34 -3 -72h4zM325 472q-79 0 -115 -43.5t-37 -140.5v-19q0 -109 36 -157.5t117 -48.5q143 0 143 207q0 102 -35 152t-109 50z" />
    <glyph glyph-name="ydieresis" unicode="&#xff;" horiz-adv-x="509" 
d="M235 54q0 -22 10 -35q14 -19 46 -19q36 2 45 31q5 20 5 37v238q0 29 16 58l60 98l78 129q22 35 34 60q4 8 4 17q0 24 -28 30q-11 2 -35 2q-33 -3 -56 -38l-74 -121l-36 -55q-7 -9 -16 -9q-8 0 -15 6q-8 8 -10 13l-32 52l-51 82q-23 37 -32 48q-19 23 -56 23q-15 0 -30 -5
q-11 -5 -16.5 -14t-2.5 -20q4 -17 14 -35l152 -249q25 -39 25 -73v-188q0 -42 1 -63zM114 681q0 26 13.5 37.5t33.5 11.5q19 0 33 -11.5t14 -37.5t-14 -38t-33 -12q-20 0 -33.5 12t-13.5 38zM302 681q0 26 13.5 37.5t32.5 11.5t33 -11.5t14 -37.5t-14 -38t-33 -12t-32.5 12
t-13.5 38z" />
    <glyph glyph-name="Amacron" unicode="&#x100;" horiz-adv-x="639" 
d="M178 842h297v-71h-297v71zM221 548q-2 -7 -4 -12l-48 -131q-13 -39 -41 -115l-61 -168q-14 -36 -24 -70q-3 -7 -3 -15q0 -15 13 -27q10 -10 33 -10t37 10q16 13 27 39l15 41q6 18 20 54q6 13 16 25q7 8 17 10.5t24 2.5h97h49q38 0 52 -37q21 -56 37 -97q10 -28 27 -39
t44 -9q15 1 24.5 9.5t10.5 22.5v7q0 11 -3 21l-13 37l-18 51l-64 175l-19 55l-52 145l-14 39q-8 20 -16.5 44t-18.5 51q-6 19 -18.5 30.5t-30.5 12.5q-19 1 -28.5 -4.5t-18 -23t-26.5 -65.5l-18 -47q-2 -5 -4 -12zM250 309q0 6 1 9q8 30 18 56l9 25q19 50 24 55q4 7 12 7
q7 0 11 -8q14 -28 19 -42q14 -36 31 -88q3 -6 3 -13q0 -9 -9 -17q-8 -5 -23 -7l-28 -1q-31 0 -47 2q-21 3 -21 22z" />
    <glyph glyph-name="amacron" unicode="&#x101;" horiz-adv-x="561" 
d="M143 677h297v-71h-297v71zM221 548q-2 -7 -4 -12l-48 -131q-13 -39 -41 -115l-61 -168q-14 -36 -24 -70q-3 -7 -3 -15q0 -15 13 -27q10 -10 33 -10t37 10q16 13 27 39l15 41q6 18 20 54q6 13 16 25q7 8 17 10.5t24 2.5h97h49q38 0 52 -37q21 -56 37 -97q10 -28 27 -39
t44 -9q15 1 24.5 9.5t10.5 22.5v7q0 11 -3 21l-13 37l-18 51l-64 175l-19 55l-52 145l-14 39q-8 20 -16.5 44t-18.5 51q-6 19 -18.5 30.5t-30.5 12.5q-19 1 -28.5 -4.5t-18 -23t-26.5 -65.5l-18 -47q-2 -5 -4 -12zM250 309q0 6 1 9q8 30 18 56l9 25q19 50 24 55q4 7 12 7
q7 0 11 -8q14 -28 19 -42q14 -36 31 -88q3 -6 3 -13q0 -9 -9 -17q-8 -5 -23 -7l-28 -1q-31 0 -47 2q-21 3 -21 22z" />
    <glyph glyph-name="Abreve" unicode="&#x102;" horiz-adv-x="639" 
d="M316 771q-69 0 -108.5 33.5t-44.5 100.5h54q4 -35 24.5 -49t76.5 -14q49 0 73 15.5t28 47.5h55q-6 -64 -48 -99t-110 -35zM221 548q-2 -7 -4 -12l-48 -131q-13 -39 -41 -115l-61 -168q-14 -36 -24 -70q-3 -7 -3 -15q0 -15 13 -27q10 -10 33 -10t37 10q16 13 27 39l15 41
q6 18 20 54q6 13 16 25q7 8 17 10.5t24 2.5h97h49q38 0 52 -37q21 -56 37 -97q10 -28 27 -39t44 -9q15 1 24.5 9.5t10.5 22.5v7q0 11 -3 21l-13 37l-18 51l-64 175l-19 55l-52 145l-14 39q-8 20 -16.5 44t-18.5 51q-6 19 -18.5 30.5t-30.5 12.5q-19 1 -28.5 -4.5t-18 -23
t-26.5 -65.5l-18 -47q-2 -5 -4 -12zM250 309q0 6 1 9q8 30 18 56l9 25q19 50 24 55q4 7 12 7q7 0 11 -8q14 -28 19 -42q14 -36 31 -88q3 -6 3 -13q0 -9 -9 -17q-8 -5 -23 -7l-28 -1q-31 0 -47 2q-21 3 -21 22z" />
    <glyph glyph-name="abreve" unicode="&#x103;" horiz-adv-x="561" 
d="M281 606q-69 0 -108.5 33.5t-44.5 100.5h54q4 -35 24.5 -49t76.5 -14q49 0 73 15.5t28 47.5h55q-6 -64 -48 -99t-110 -35zM221 548q-2 -7 -4 -12l-48 -131q-13 -39 -41 -115l-61 -168q-14 -36 -24 -70q-3 -7 -3 -15q0 -15 13 -27q10 -10 33 -10t37 10q16 13 27 39l15 41
q6 18 20 54q6 13 16 25q7 8 17 10.5t24 2.5h97h49q38 0 52 -37q21 -56 37 -97q10 -28 27 -39t44 -9q15 1 24.5 9.5t10.5 22.5v7q0 11 -3 21l-13 37l-18 51l-64 175l-19 55l-52 145l-14 39q-8 20 -16.5 44t-18.5 51q-6 19 -18.5 30.5t-30.5 12.5q-19 1 -28.5 -4.5t-18 -23
t-26.5 -65.5l-18 -47q-2 -5 -4 -12zM250 309q0 6 1 9q8 30 18 56l9 25q19 50 24 55q4 7 12 7q7 0 11 -8q14 -28 19 -42q14 -36 31 -88q3 -6 3 -13q0 -9 -9 -17q-8 -5 -23 -7l-28 -1q-31 0 -47 2q-21 3 -21 22z" />
    <glyph glyph-name="Aogonek" unicode="&#x104;" horiz-adv-x="639" 
d="M540 -116q0 -22 12 -33.5t33 -11.5t48 6v-56q-34 -9 -62 -9q-103 0 -103 94q0 68 78 126h62q-34 -32 -51 -58.5t-17 -57.5zM221 548q-2 -7 -4 -12l-48 -131q-13 -39 -41 -115l-61 -168q-14 -36 -24 -70q-3 -7 -3 -15q0 -15 13 -27q10 -10 33 -10t37 10q16 13 27 39l15 41
q6 18 20 54q6 13 16 25q7 8 17 10.5t24 2.5h97h49q38 0 52 -37q21 -56 37 -97q10 -28 27 -39t44 -9q15 1 24.5 9.5t10.5 22.5v7q0 11 -3 21l-13 37l-18 51l-64 175l-19 55l-52 145l-14 39q-8 20 -16.5 44t-18.5 51q-6 19 -18.5 30.5t-30.5 12.5q-19 1 -28.5 -4.5t-18 -23
t-26.5 -65.5l-18 -47q-2 -5 -4 -12zM250 309q0 6 1 9q8 30 18 56l9 25q19 50 24 55q4 7 12 7q7 0 11 -8q14 -28 19 -42q14 -36 31 -88q3 -6 3 -13q0 -9 -9 -17q-8 -5 -23 -7l-28 -1q-31 0 -47 2q-21 3 -21 22z" />
    <glyph glyph-name="aogonek" unicode="&#x105;" horiz-adv-x="561" 
d="M410 -116q0 -22 12 -33.5t33 -11.5t48 6v-56q-34 -9 -62 -9q-103 0 -103 94q0 68 78 126h62q-34 -32 -51 -58.5t-17 -57.5zM221 548q-2 -7 -4 -12l-48 -131q-13 -39 -41 -115l-61 -168q-14 -36 -24 -70q-3 -7 -3 -15q0 -15 13 -27q10 -10 33 -10t37 10q16 13 27 39l15 41
q6 18 20 54q6 13 16 25q7 8 17 10.5t24 2.5h97h49q38 0 52 -37q21 -56 37 -97q10 -28 27 -39t44 -9q15 1 24.5 9.5t10.5 22.5v7q0 11 -3 21l-13 37l-18 51l-64 175l-19 55l-52 145l-14 39q-8 20 -16.5 44t-18.5 51q-6 19 -18.5 30.5t-30.5 12.5q-19 1 -28.5 -4.5t-18 -23
t-26.5 -65.5l-18 -47q-2 -5 -4 -12zM250 309q0 6 1 9q8 30 18 56l9 25q19 50 24 55q4 7 12 7q7 0 11 -8q14 -28 19 -42q14 -36 31 -88q3 -6 3 -13q0 -9 -9 -17q-8 -5 -23 -7l-28 -1q-31 0 -47 2q-21 3 -21 22z" />
    <glyph glyph-name="Cacute" unicode="&#x106;" horiz-adv-x="631" 
d="M372 700q-45 -1 -89 -15q-81 -25 -148 -95q-37 -39 -62 -90q-33 -67 -33 -151q0 -14 2 -38q6 -65 38 -125q21 -40 59 -81q46 -46 101 -72q67 -33 147 -33q19 0 55 4q53 8 95 29q46 22 73 49q14 14 14 32q0 14 -8 26q-17 25 -42 25q-11 0 -23 -6q-11 -5 -31 -19
q-60 -38 -131 -38q-82 0 -147 48q-48 37 -74 86q-25 51 -25 109q0 12 2 34q16 138 139 196q50 24 101 24q40 0 82 -14q25 -8 47.5 -22t25.5 -16q22 -14 35.5 -21t25.5 -7q21 0 36 21q8 13 8 26q0 14 -6.5 24t-18.5 21q-33 31 -78 54q-72 37 -154 35h-16zM318 783
q19 23 47.5 66.5t47.5 81.5h106v-10q-21 -31 -66.5 -78.5t-76.5 -71.5h-58v12z" />
    <glyph glyph-name="cacute" unicode="&#x107;" horiz-adv-x="479" 
d="M372 700q-45 -1 -89 -15q-81 -25 -148 -95q-37 -39 -62 -90q-33 -67 -33 -151q0 -14 2 -38q6 -65 38 -125q21 -40 59 -81q46 -46 101 -72q67 -33 147 -33q19 0 55 4q53 8 95 29q46 22 73 49q14 14 14 32q0 14 -8 26q-17 25 -42 25q-11 0 -23 -6q-11 -5 -31 -19
q-60 -38 -131 -38q-82 0 -147 48q-48 37 -74 86q-25 51 -25 109q0 12 2 34q16 138 139 196q50 24 101 24q40 0 82 -14q25 -8 47.5 -22t25.5 -16q22 -14 35.5 -21t25.5 -7q21 0 36 21q8 13 8 26q0 14 -6.5 24t-18.5 21q-33 31 -78 54q-72 37 -154 35h-16zM224 618
q19 23 47.5 66.5t47.5 81.5h106v-10q-21 -31 -66.5 -78.5t-76.5 -71.5h-58v12z" />
    <glyph glyph-name="Ccircumflex" unicode="&#x108;" horiz-adv-x="631" 
d="M220 782q61 65 86 96.5t37 52.5h90q25 -49 125 -149v-11h-62q-44 26 -109 90q-64 -62 -107 -90h-60v11zM372 700q-45 -1 -89 -15q-81 -25 -148 -95q-37 -39 -62 -90q-33 -67 -33 -151q0 -14 2 -38q6 -65 38 -125q21 -40 59 -81q46 -46 101 -72q67 -33 147 -33q19 0 55 4
q53 8 95 29q46 22 73 49q14 14 14 32q0 14 -8 26q-17 25 -42 25q-11 0 -23 -6q-11 -5 -31 -19q-60 -38 -131 -38q-82 0 -147 48q-48 37 -74 86q-25 51 -25 109q0 12 2 34q16 138 139 196q50 24 101 24q40 0 82 -14q25 -8 47.5 -22t25.5 -16q22 -14 35.5 -21t25.5 -7
q21 0 36 21q8 13 8 26q0 14 -6.5 24t-18.5 21q-33 31 -78 54q-72 37 -154 35h-16z" />
    <glyph glyph-name="ccircumflex" unicode="&#x109;" horiz-adv-x="479" 
d="M118 617q61 65 86 96.5t37 52.5h90q25 -49 125 -149v-11h-62q-44 26 -109 90q-64 -62 -107 -90h-60v11zM372 700q-45 -1 -89 -15q-81 -25 -148 -95q-37 -39 -62 -90q-33 -67 -33 -151q0 -14 2 -38q6 -65 38 -125q21 -40 59 -81q46 -46 101 -72q67 -33 147 -33q19 0 55 4
q53 8 95 29q46 22 73 49q14 14 14 32q0 14 -8 26q-17 25 -42 25q-11 0 -23 -6q-11 -5 -31 -19q-60 -38 -131 -38q-82 0 -147 48q-48 37 -74 86q-25 51 -25 109q0 12 2 34q16 138 139 196q50 24 101 24q40 0 82 -14q25 -8 47.5 -22t25.5 -16q22 -14 35.5 -21t25.5 -7
q21 0 36 21q8 13 8 26q0 14 -6.5 24t-18.5 21q-33 31 -78 54q-72 37 -154 35h-16z" />
    <glyph glyph-name="Cdotaccent" unicode="&#x10a;" horiz-adv-x="631" 
d="M337 846q0 29 15 42.5t37 13.5q21 0 36 -13.5t15 -42.5t-15.5 -42.5t-35.5 -13.5q-22 0 -37 13.5t-15 42.5zM372 700q-45 -1 -89 -15q-81 -25 -148 -95q-37 -39 -62 -90q-33 -67 -33 -151q0 -14 2 -38q6 -65 38 -125q21 -40 59 -81q46 -46 101 -72q67 -33 147 -33
q19 0 55 4q53 8 95 29q46 22 73 49q14 14 14 32q0 14 -8 26q-17 25 -42 25q-11 0 -23 -6q-11 -5 -31 -19q-60 -38 -131 -38q-82 0 -147 48q-48 37 -74 86q-25 51 -25 109q0 12 2 34q16 138 139 196q50 24 101 24q40 0 82 -14q25 -8 47.5 -22t25.5 -16q22 -14 35.5 -21
t25.5 -7q21 0 36 21q8 13 8 26q0 14 -6.5 24t-18.5 21q-33 31 -78 54q-72 37 -154 35h-16z" />
    <glyph glyph-name="cdotaccent" unicode="&#x10b;" horiz-adv-x="479" 
d="M241 681q0 29 15 42.5t37 13.5q21 0 36 -13.5t15 -42.5t-15.5 -42.5t-35.5 -13.5q-22 0 -37 13.5t-15 42.5zM372 700q-45 -1 -89 -15q-81 -25 -148 -95q-37 -39 -62 -90q-33 -67 -33 -151q0 -14 2 -38q6 -65 38 -125q21 -40 59 -81q46 -46 101 -72q67 -33 147 -33
q19 0 55 4q53 8 95 29q46 22 73 49q14 14 14 32q0 14 -8 26q-17 25 -42 25q-11 0 -23 -6q-11 -5 -31 -19q-60 -38 -131 -38q-82 0 -147 48q-48 37 -74 86q-25 51 -25 109q0 12 2 34q16 138 139 196q50 24 101 24q40 0 82 -14q25 -8 47.5 -22t25.5 -16q22 -14 35.5 -21
t25.5 -7q21 0 36 21q8 13 8 26q0 14 -6.5 24t-18.5 21q-33 31 -78 54q-72 37 -154 35h-16z" />
    <glyph glyph-name="Ccaron" unicode="&#x10c;" horiz-adv-x="631" 
d="M220 931h60q56 -36 107 -92q62 62 109 92h62v-13q-100 -100 -125 -147h-90q-29 50 -123 147v13zM372 700q-45 -1 -89 -15q-81 -25 -148 -95q-37 -39 -62 -90q-33 -67 -33 -151q0 -14 2 -38q6 -65 38 -125q21 -40 59 -81q46 -46 101 -72q67 -33 147 -33q19 0 55 4
q53 8 95 29q46 22 73 49q14 14 14 32q0 14 -8 26q-17 25 -42 25q-11 0 -23 -6q-11 -5 -31 -19q-60 -38 -131 -38q-82 0 -147 48q-48 37 -74 86q-25 51 -25 109q0 12 2 34q16 138 139 196q50 24 101 24q40 0 82 -14q25 -8 47.5 -22t25.5 -16q22 -14 35.5 -21t25.5 -7
q21 0 36 21q8 13 8 26q0 14 -6.5 24t-18.5 21q-33 31 -78 54q-72 37 -154 35h-16z" />
    <glyph glyph-name="ccaron" unicode="&#x10d;" horiz-adv-x="479" 
d="M122 766h60q56 -36 107 -92q62 62 109 92h62v-13q-100 -100 -125 -147h-90q-29 50 -123 147v13zM372 700q-45 -1 -89 -15q-81 -25 -148 -95q-37 -39 -62 -90q-33 -67 -33 -151q0 -14 2 -38q6 -65 38 -125q21 -40 59 -81q46 -46 101 -72q67 -33 147 -33q19 0 55 4
q53 8 95 29q46 22 73 49q14 14 14 32q0 14 -8 26q-17 25 -42 25q-11 0 -23 -6q-11 -5 -31 -19q-60 -38 -131 -38q-82 0 -147 48q-48 37 -74 86q-25 51 -25 109q0 12 2 34q16 138 139 196q50 24 101 24q40 0 82 -14q25 -8 47.5 -22t25.5 -16q22 -14 35.5 -21t25.5 -7
q21 0 36 21q8 13 8 26q0 14 -6.5 24t-18.5 21q-33 31 -78 54q-72 37 -154 35h-16z" />
    <glyph glyph-name="Dcaron" unicode="&#x10e;" horiz-adv-x="729" 
d="M170 931h60q56 -36 107 -92q62 62 109 92h62v-13q-100 -100 -125 -147h-90q-29 50 -123 147v13zM61 20q15 -19 47 -19q29 -1 87 -1l51 1q33 0 101 2q58 3 118 32q61 30 111 86q49 55 68 116q18 53 18 115q0 21 -1 32q-7 78 -46 143q-29 47 -71 84q-36 32 -78 54
q-71 35 -160 35l-108 1h-13q-67 0 -93 -6.5t-34 -27t-8 -72.5v-59v-480q0 -21 11 -36zM153 566q5 31 35 31h82h41q66 0 116 -28q29 -14 54 -38q50 -46 68 -106q11 -33 11 -75q0 -60 -26 -111q-22 -44 -68 -82q-56 -45 -129 -53q-26 -2 -38 -2h-100q-13 0 -28 5q-19 8 -19 35
l-1 406q0 6 2 18z" />
    <glyph glyph-name="dcaron" unicode="&#x10f;" horiz-adv-x="615" 
d="M575 612q11 32 20.5 77.5t12.5 70.5h87v-9q-6 -26 -27 -71t-45 -80h-48v12zM61 20q15 -19 47 -19q29 -1 87 -1l51 1q33 0 101 2q58 3 118 32q61 30 111 86q49 55 68 116q18 53 18 115q0 21 -1 32q-7 78 -46 143q-29 47 -71 84q-36 32 -78 54q-71 35 -160 35l-108 1h-13
q-67 0 -93 -6.5t-34 -27t-8 -72.5v-59v-480q0 -21 11 -36zM153 566q5 31 35 31h82h41q66 0 116 -28q29 -14 54 -38q50 -46 68 -106q11 -33 11 -75q0 -60 -26 -111q-22 -44 -68 -82q-56 -45 -129 -53q-26 -2 -38 -2h-100q-13 0 -28 5q-19 8 -19 35l-1 406q0 6 2 18z" />
    <glyph glyph-name="Dcroat" unicode="&#x110;" horiz-adv-x="729" 
d="M669 364q0 -175 -96 -269.5t-278 -94.5h-191v314h-74v78h74v322h213q167 0 259.5 -92t92.5 -258zM574 361q0 137 -68 206.5t-202 69.5h-110v-245h178v-78h-178v-237h90q290 0 290 284z" />
    <glyph glyph-name="dcroat" unicode="&#x111;" horiz-adv-x="617" 
d="M275 -10q-104 0 -162 72t-58 203q0 132 57.5 205t162.5 73q109 0 167 -79h6q-1 7 -3.5 33.5t-2.5 46.5v61h-213v66h213v89h88v-89h76v-66h-76v-605h-72l-13 72h-4q-56 -82 -166 -82zM290 63q80 0 116.5 43t36.5 142v17q0 112 -37 158.5t-118 46.5q-68 0 -104.5 -52
t-36.5 -154q0 -96 35 -148.5t108 -52.5z" />
    <glyph glyph-name="Emacron" unicode="&#x112;" horiz-adv-x="556" 
d="M148 842h297v-71h-297v71zM90 12q9 -7 19 -9t25 -3h155t155 1q19 0 38 8q12 6 18.5 19.5t4.5 29.5q-5 33 -31 40q-20 5 -38 5q-149 0 -224 1q-28 0 -35 19q-4 16 -4 25q0 78 1 118q0 27 29 32q9 2 26 2h109q25 0 39 8q11 6 17.5 17t6.5 25q0 38 -32 48q-16 4 -37 4
q-40 1 -120 1q-17 0 -27 9t-11 25l-1 64l1 63q0 27 28 32q6 2 19 2h212q16 0 32 3q30 6 36 34q2 12 2 17q0 22 -17 36q-14 12 -44 12l-158 1h-19q-96 0 -134 -6.5t-49.5 -26.5t-11.5 -71v-61l1 -480q0 -30 19 -44z" />
    <glyph glyph-name="emacron" unicode="&#x113;" horiz-adv-x="563" 
d="M150 677h297v-71h-297v71zM90 12q9 -7 19 -9t25 -3h155t155 1q19 0 38 8q12 6 18.5 19.5t4.5 29.5q-5 33 -31 40q-20 5 -38 5q-149 0 -224 1q-28 0 -35 19q-4 16 -4 25q0 78 1 118q0 27 29 32q9 2 26 2h109q25 0 39 8q11 6 17.5 17t6.5 25q0 38 -32 48q-16 4 -37 4
q-40 1 -120 1q-17 0 -27 9t-11 25l-1 64l1 63q0 27 28 32q6 2 19 2h212q16 0 32 3q30 6 36 34q2 12 2 17q0 22 -17 36q-14 12 -44 12l-158 1h-19q-96 0 -134 -6.5t-49.5 -26.5t-11.5 -71v-61l1 -480q0 -30 19 -44z" />
    <glyph glyph-name="Ebreve" unicode="&#x114;" horiz-adv-x="556" 
d="M299 771q-69 0 -108.5 33.5t-44.5 100.5h54q4 -35 24.5 -49t76.5 -14q49 0 73 15.5t28 47.5h55q-6 -64 -48 -99t-110 -35zM90 12q9 -7 19 -9t25 -3h155t155 1q19 0 38 8q12 6 18.5 19.5t4.5 29.5q-5 33 -31 40q-20 5 -38 5q-149 0 -224 1q-28 0 -35 19q-4 16 -4 25
q0 78 1 118q0 27 29 32q9 2 26 2h109q25 0 39 8q11 6 17.5 17t6.5 25q0 38 -32 48q-16 4 -37 4q-40 1 -120 1q-17 0 -27 9t-11 25l-1 64l1 63q0 27 28 32q6 2 19 2h212q16 0 32 3q30 6 36 34q2 12 2 17q0 22 -17 36q-14 12 -44 12l-158 1h-19q-96 0 -134 -6.5t-49.5 -26.5
t-11.5 -71v-61l1 -480q0 -30 19 -44z" />
    <glyph glyph-name="ebreve" unicode="&#x115;" horiz-adv-x="563" 
d="M292 606q-69 0 -108.5 33.5t-44.5 100.5h54q4 -35 24.5 -49t76.5 -14q49 0 73 15.5t28 47.5h55q-6 -64 -48 -99t-110 -35zM90 12q9 -7 19 -9t25 -3h155t155 1q19 0 38 8q12 6 18.5 19.5t4.5 29.5q-5 33 -31 40q-20 5 -38 5q-149 0 -224 1q-28 0 -35 19q-4 16 -4 25
q0 78 1 118q0 27 29 32q9 2 26 2h109q25 0 39 8q11 6 17.5 17t6.5 25q0 38 -32 48q-16 4 -37 4q-40 1 -120 1q-17 0 -27 9t-11 25l-1 64l1 63q0 27 28 32q6 2 19 2h212q16 0 32 3q30 6 36 34q2 12 2 17q0 22 -17 36q-14 12 -44 12l-158 1h-19q-96 0 -134 -6.5t-49.5 -26.5
t-11.5 -71v-61l1 -480q0 -30 19 -44z" />
    <glyph glyph-name="Edotaccent" unicode="&#x116;" horiz-adv-x="556" 
d="M253 832q0 29 15 42.5t37 13.5q21 0 36 -13.5t15 -42.5t-15.5 -42.5t-35.5 -13.5q-22 0 -37 13.5t-15 42.5zM90 12q9 -7 19 -9t25 -3h155t155 1q19 0 38 8q12 6 18.5 19.5t4.5 29.5q-5 33 -31 40q-20 5 -38 5q-149 0 -224 1q-28 0 -35 19q-4 16 -4 25q0 78 1 118
q0 27 29 32q9 2 26 2h109q25 0 39 8q11 6 17.5 17t6.5 25q0 38 -32 48q-16 4 -37 4q-40 1 -120 1q-17 0 -27 9t-11 25l-1 64l1 63q0 27 28 32q6 2 19 2h212q16 0 32 3q30 6 36 34q2 12 2 17q0 22 -17 36q-14 12 -44 12l-158 1h-19q-96 0 -134 -6.5t-49.5 -26.5t-11.5 -71
v-61l1 -480q0 -30 19 -44z" />
    <glyph glyph-name="edotaccent" unicode="&#x117;" horiz-adv-x="563" 
d="M243 681q0 29 15 42.5t37 13.5q21 0 36 -13.5t15 -42.5t-15.5 -42.5t-35.5 -13.5q-22 0 -37 13.5t-15 42.5zM90 12q9 -7 19 -9t25 -3h155t155 1q19 0 38 8q12 6 18.5 19.5t4.5 29.5q-5 33 -31 40q-20 5 -38 5q-149 0 -224 1q-28 0 -35 19q-4 16 -4 25q0 78 1 118
q0 27 29 32q9 2 26 2h109q25 0 39 8q11 6 17.5 17t6.5 25q0 38 -32 48q-16 4 -37 4q-40 1 -120 1q-17 0 -27 9t-11 25l-1 64l1 63q0 27 28 32q6 2 19 2h212q16 0 32 3q30 6 36 34q2 12 2 17q0 22 -17 36q-14 12 -44 12l-158 1h-19q-96 0 -134 -6.5t-49.5 -26.5t-11.5 -71
v-61l1 -480q0 -30 19 -44z" />
    <glyph glyph-name="Eogonek" unicode="&#x118;" horiz-adv-x="556" 
d="M392 -116q0 -22 12 -33.5t33 -11.5t48 6v-56q-34 -9 -62 -9q-103 0 -103 94q0 68 78 126h62q-34 -32 -51 -58.5t-17 -57.5zM90 12q9 -7 19 -9t25 -3h155t155 1q19 0 38 8q12 6 18.5 19.5t4.5 29.5q-5 33 -31 40q-20 5 -38 5q-149 0 -224 1q-28 0 -35 19q-4 16 -4 25
q0 78 1 118q0 27 29 32q9 2 26 2h109q25 0 39 8q11 6 17.5 17t6.5 25q0 38 -32 48q-16 4 -37 4q-40 1 -120 1q-17 0 -27 9t-11 25l-1 64l1 63q0 27 28 32q6 2 19 2h212q16 0 32 3q30 6 36 34q2 12 2 17q0 22 -17 36q-14 12 -44 12l-158 1h-19q-96 0 -134 -6.5t-49.5 -26.5
t-11.5 -71v-61l1 -480q0 -30 19 -44z" />
    <glyph glyph-name="eogonek" unicode="&#x119;" horiz-adv-x="563" 
d="M387 -102q0 -22 12 -33.5t33 -11.5t48 6v-56q-34 -9 -62 -9q-103 0 -103 94q0 68 78 126h62q-34 -32 -51 -58.5t-17 -57.5zM90 12q9 -7 19 -9t25 -3h155t155 1q19 0 38 8q12 6 18.5 19.5t4.5 29.5q-5 33 -31 40q-20 5 -38 5q-149 0 -224 1q-28 0 -35 19q-4 16 -4 25
q0 78 1 118q0 27 29 32q9 2 26 2h109q25 0 39 8q11 6 17.5 17t6.5 25q0 38 -32 48q-16 4 -37 4q-40 1 -120 1q-17 0 -27 9t-11 25l-1 64l1 63q0 27 28 32q6 2 19 2h212q16 0 32 3q30 6 36 34q2 12 2 17q0 22 -17 36q-14 12 -44 12l-158 1h-19q-96 0 -134 -6.5t-49.5 -26.5
t-11.5 -71v-61l1 -480q0 -30 19 -44z" />
    <glyph glyph-name="Ecaron" unicode="&#x11a;" horiz-adv-x="556" 
d="M133 931h60q56 -36 107 -92q62 62 109 92h62v-13q-100 -100 -125 -147h-90q-29 50 -123 147v13zM90 12q9 -7 19 -9t25 -3h155t155 1q19 0 38 8q12 6 18.5 19.5t4.5 29.5q-5 33 -31 40q-20 5 -38 5q-149 0 -224 1q-28 0 -35 19q-4 16 -4 25q0 78 1 118q0 27 29 32
q9 2 26 2h109q25 0 39 8q11 6 17.5 17t6.5 25q0 38 -32 48q-16 4 -37 4q-40 1 -120 1q-17 0 -27 9t-11 25l-1 64l1 63q0 27 28 32q6 2 19 2h212q16 0 32 3q30 6 36 34q2 12 2 17q0 22 -17 36q-14 12 -44 12l-158 1h-19q-96 0 -134 -6.5t-49.5 -26.5t-11.5 -71v-61l1 -480
q0 -30 19 -44z" />
    <glyph glyph-name="ecaron" unicode="&#x11b;" horiz-adv-x="563" 
d="M126 766h60q56 -36 107 -92q62 62 109 92h62v-13q-100 -100 -125 -147h-90q-29 50 -123 147v13zM90 12q9 -7 19 -9t25 -3h155t155 1q19 0 38 8q12 6 18.5 19.5t4.5 29.5q-5 33 -31 40q-20 5 -38 5q-149 0 -224 1q-28 0 -35 19q-4 16 -4 25q0 78 1 118q0 27 29 32
q9 2 26 2h109q25 0 39 8q11 6 17.5 17t6.5 25q0 38 -32 48q-16 4 -37 4q-40 1 -120 1q-17 0 -27 9t-11 25l-1 64l1 63q0 27 28 32q6 2 19 2h212q16 0 32 3q30 6 36 34q2 12 2 17q0 22 -17 36q-14 12 -44 12l-158 1h-19q-96 0 -134 -6.5t-49.5 -26.5t-11.5 -71v-61l1 -480
q0 -30 19 -44z" />
    <glyph glyph-name="Gcircumflex" unicode="&#x11c;" horiz-adv-x="728" 
d="M248 782q61 65 86 96.5t37 52.5h90q25 -49 125 -149v-11h-62q-44 26 -109 90q-64 -62 -107 -90h-60v11zM472 379q-11 -14 -11 -31q0 -10 5 -25q10 -24 45 -26q21 -1 64 -1q11 0 21 -3q19 -4 19 -22q0 -12 -5 -22q-23 -58 -76 -97q-65 -49 -146 -49q-96 0 -164 62
q-38 33 -62 83q-19 46 -19 92q0 45 8 77q17 72 79 124q67 57 155 57q11 0 33 -2q58 -7 111 -43q13 -7 20.5 -10.5t18.5 -3.5q23 0 40 22q11 13 11 27t-6 23t-18 19q-40 33 -94 52q-53 18 -114 18q-21 0 -32 -1q-65 -6 -121 -34q-60 -28 -109 -84q-37 -42 -58 -92
q-27 -64 -27 -143q0 -81 35 -153q28 -56 76 -101q45 -42 100 -65q66 -27 135 -27q23 0 45 3q110 13 195 93q53 50 79 112q31 72 27 143q-1 16 -10 27t-24 15q-13 4 -33 4l-58 1q-62 0 -96 -2q-27 0 -39 -17z" />
    <glyph glyph-name="gcircumflex" unicode="&#x11d;" horiz-adv-x="615" 
d="M132 617q61 65 86 96.5t37 52.5h90q25 -49 125 -149v-11h-62q-44 26 -109 90q-64 -62 -107 -90h-60v11zM472 379q-11 -14 -11 -31q0 -10 5 -25q10 -24 45 -26q21 -1 64 -1q11 0 21 -3q19 -4 19 -22q0 -12 -5 -22q-23 -58 -76 -97q-65 -49 -146 -49q-96 0 -164 62
q-38 33 -62 83q-19 46 -19 92q0 45 8 77q17 72 79 124q67 57 155 57q11 0 33 -2q58 -7 111 -43q13 -7 20.5 -10.5t18.5 -3.5q23 0 40 22q11 13 11 27t-6 23t-18 19q-40 33 -94 52q-53 18 -114 18q-21 0 -32 -1q-65 -6 -121 -34q-60 -28 -109 -84q-37 -42 -58 -92
q-27 -64 -27 -143q0 -81 35 -153q28 -56 76 -101q45 -42 100 -65q66 -27 135 -27q23 0 45 3q110 13 195 93q53 50 79 112q31 72 27 143q-1 16 -10 27t-24 15q-13 4 -33 4l-58 1q-62 0 -96 -2q-27 0 -39 -17z" />
    <glyph glyph-name="Gbreve" unicode="&#x11e;" horiz-adv-x="728" 
d="M414 771q-69 0 -108.5 33.5t-44.5 100.5h54q4 -35 24.5 -49t76.5 -14q49 0 73 15.5t28 47.5h55q-6 -64 -48 -99t-110 -35zM472 379q-11 -14 -11 -31q0 -10 5 -25q10 -24 45 -26q21 -1 64 -1q11 0 21 -3q19 -4 19 -22q0 -12 -5 -22q-23 -58 -76 -97q-65 -49 -146 -49
q-96 0 -164 62q-38 33 -62 83q-19 46 -19 92q0 45 8 77q17 72 79 124q67 57 155 57q11 0 33 -2q58 -7 111 -43q13 -7 20.5 -10.5t18.5 -3.5q23 0 40 22q11 13 11 27t-6 23t-18 19q-40 33 -94 52q-53 18 -114 18q-21 0 -32 -1q-65 -6 -121 -34q-60 -28 -109 -84
q-37 -42 -58 -92q-27 -64 -27 -143q0 -81 35 -153q28 -56 76 -101q45 -42 100 -65q66 -27 135 -27q23 0 45 3q110 13 195 93q53 50 79 112q31 72 27 143q-1 16 -10 27t-24 15q-13 4 -33 4l-58 1q-62 0 -96 -2q-27 0 -39 -17z" />
    <glyph glyph-name="gbreve" unicode="&#x11f;" horiz-adv-x="615" 
d="M300 606q-69 0 -108.5 33.5t-44.5 100.5h54q4 -35 24.5 -49t76.5 -14q49 0 73 15.5t28 47.5h55q-6 -64 -48 -99t-110 -35zM472 379q-11 -14 -11 -31q0 -10 5 -25q10 -24 45 -26q21 -1 64 -1q11 0 21 -3q19 -4 19 -22q0 -12 -5 -22q-23 -58 -76 -97q-65 -49 -146 -49
q-96 0 -164 62q-38 33 -62 83q-19 46 -19 92q0 45 8 77q17 72 79 124q67 57 155 57q11 0 33 -2q58 -7 111 -43q13 -7 20.5 -10.5t18.5 -3.5q23 0 40 22q11 13 11 27t-6 23t-18 19q-40 33 -94 52q-53 18 -114 18q-21 0 -32 -1q-65 -6 -121 -34q-60 -28 -109 -84
q-37 -42 -58 -92q-27 -64 -27 -143q0 -81 35 -153q28 -56 76 -101q45 -42 100 -65q66 -27 135 -27q23 0 45 3q110 13 195 93q53 50 79 112q31 72 27 143q-1 16 -10 27t-24 15q-13 4 -33 4l-58 1q-62 0 -96 -2q-27 0 -39 -17z" />
    <glyph glyph-name="Gdotaccent" unicode="&#x120;" horiz-adv-x="728" 
d="M371 846q0 29 15 42.5t37 13.5q21 0 36 -13.5t15 -42.5t-15.5 -42.5t-35.5 -13.5q-22 0 -37 13.5t-15 42.5zM472 379q-11 -14 -11 -31q0 -10 5 -25q10 -24 45 -26q21 -1 64 -1q11 0 21 -3q19 -4 19 -22q0 -12 -5 -22q-23 -58 -76 -97q-65 -49 -146 -49q-96 0 -164 62
q-38 33 -62 83q-19 46 -19 92q0 45 8 77q17 72 79 124q67 57 155 57q11 0 33 -2q58 -7 111 -43q13 -7 20.5 -10.5t18.5 -3.5q23 0 40 22q11 13 11 27t-6 23t-18 19q-40 33 -94 52q-53 18 -114 18q-21 0 -32 -1q-65 -6 -121 -34q-60 -28 -109 -84q-37 -42 -58 -92
q-27 -64 -27 -143q0 -81 35 -153q28 -56 76 -101q45 -42 100 -65q66 -27 135 -27q23 0 45 3q110 13 195 93q53 50 79 112q31 72 27 143q-1 16 -10 27t-24 15q-13 4 -33 4l-58 1q-62 0 -96 -2q-27 0 -39 -17z" />
    <glyph glyph-name="gdotaccent" unicode="&#x121;" horiz-adv-x="615" 
d="M247 681q0 29 15 42.5t37 13.5q21 0 36 -13.5t15 -42.5t-15.5 -42.5t-35.5 -13.5q-22 0 -37 13.5t-15 42.5zM472 379q-11 -14 -11 -31q0 -10 5 -25q10 -24 45 -26q21 -1 64 -1q11 0 21 -3q19 -4 19 -22q0 -12 -5 -22q-23 -58 -76 -97q-65 -49 -146 -49q-96 0 -164 62
q-38 33 -62 83q-19 46 -19 92q0 45 8 77q17 72 79 124q67 57 155 57q11 0 33 -2q58 -7 111 -43q13 -7 20.5 -10.5t18.5 -3.5q23 0 40 22q11 13 11 27t-6 23t-18 19q-40 33 -94 52q-53 18 -114 18q-21 0 -32 -1q-65 -6 -121 -34q-60 -28 -109 -84q-37 -42 -58 -92
q-27 -64 -27 -143q0 -81 35 -153q28 -56 76 -101q45 -42 100 -65q66 -27 135 -27q23 0 45 3q110 13 195 93q53 50 79 112q31 72 27 143q-1 16 -10 27t-24 15q-13 4 -33 4l-58 1q-62 0 -96 -2q-27 0 -39 -17z" />
    <glyph glyph-name="uni0122" unicode="&#x122;" horiz-adv-x="728" 
d="M322 -209q11 25 24 70.5t17 77.5h87v-9q-8 -31 -31.5 -76.5t-48.5 -74.5h-48v12zM472 379q-11 -14 -11 -31q0 -10 5 -25q10 -24 45 -26q21 -1 64 -1q11 0 21 -3q19 -4 19 -22q0 -12 -5 -22q-23 -58 -76 -97q-65 -49 -146 -49q-96 0 -164 62q-38 33 -62 83q-19 46 -19 92
q0 45 8 77q17 72 79 124q67 57 155 57q11 0 33 -2q58 -7 111 -43q13 -7 20.5 -10.5t18.5 -3.5q23 0 40 22q11 13 11 27t-6 23t-18 19q-40 33 -94 52q-53 18 -114 18q-21 0 -32 -1q-65 -6 -121 -34q-60 -28 -109 -84q-37 -42 -58 -92q-27 -64 -27 -143q0 -81 35 -153
q28 -56 76 -101q45 -42 100 -65q66 -27 135 -27q23 0 45 3q110 13 195 93q53 50 79 112q31 72 27 143q-1 16 -10 27t-24 15q-13 4 -33 4l-58 1q-62 0 -96 -2q-27 0 -39 -17z" />
    <glyph glyph-name="uni0123" unicode="&#x123;" horiz-adv-x="615" 
d="M379 754q-13 -29 -26 -74.5t-16 -73.5h-87v9q7 27 31.5 74t48.5 77h49v-12zM472 379q-11 -14 -11 -31q0 -10 5 -25q10 -24 45 -26q21 -1 64 -1q11 0 21 -3q19 -4 19 -22q0 -12 -5 -22q-23 -58 -76 -97q-65 -49 -146 -49q-96 0 -164 62q-38 33 -62 83q-19 46 -19 92
q0 45 8 77q17 72 79 124q67 57 155 57q11 0 33 -2q58 -7 111 -43q13 -7 20.5 -10.5t18.5 -3.5q23 0 40 22q11 13 11 27t-6 23t-18 19q-40 33 -94 52q-53 18 -114 18q-21 0 -32 -1q-65 -6 -121 -34q-60 -28 -109 -84q-37 -42 -58 -92q-27 -64 -27 -143q0 -81 35 -153
q28 -56 76 -101q45 -42 100 -65q66 -27 135 -27q23 0 45 3q110 13 195 93q53 50 79 112q31 72 27 143q-1 16 -10 27t-24 15q-13 4 -33 4l-58 1q-62 0 -96 -2q-27 0 -39 -17z" />
    <glyph glyph-name="Hcircumflex" unicode="&#x124;" horiz-adv-x="741" 
d="M200 782q61 65 86 96.5t37 52.5h90q25 -49 125 -149v-11h-62q-44 26 -109 90q-64 -62 -107 -90h-60v11zM541 627q0 20 -2 30q-1 16 -10 26.5t-23 13.5q-6 2 -17 2q-25 0 -39 -18q-10 -14 -10 -43q-1 -67 -1 -210q0 -32 -33 -35q-18 -2 -26 -2q-57 1 -172 1q-31 1 -35 31
q-1 6 -1 18q0 127 -1 187q0 18 -1 26q-1 25 -15.5 35.5t-36.5 10.5q-14 0 -28 -10.5t-16 -34.5q-3 -46 -3 -171l-1 -347v-86q0 -22 10 -36q15 -18 38 -18q41 0 50 36q3 15 3 32q1 12 1 36v37v72q0 30 1 45q2 29 29 33q10 2 29 2q115 0 172 -1q32 0 35 -32q2 -20 2 -29v-96
q0 -56 1 -83q1 -41 44 -49q19 -2 34 7.5t19 28.5q3 17 3 32v278v281z" />
    <glyph glyph-name="hcircumflex" unicode="&#x125;" horiz-adv-x="618" 
d="M143 809q61 65 86 96.5t37 52.5h90q25 -49 125 -149v-11h-62q-44 26 -109 90q-64 -62 -107 -90h-60v11zM541 627q0 20 -2 30q-1 16 -10 26.5t-23 13.5q-6 2 -17 2q-25 0 -39 -18q-10 -14 -10 -43q-1 -67 -1 -210q0 -32 -33 -35q-18 -2 -26 -2q-57 1 -172 1q-31 1 -35 31
q-1 6 -1 18q0 127 -1 187q0 18 -1 26q-1 25 -15.5 35.5t-36.5 10.5q-14 0 -28 -10.5t-16 -34.5q-3 -46 -3 -171l-1 -347v-86q0 -22 10 -36q15 -18 38 -18q41 0 50 36q3 15 3 32q1 12 1 36v37v72q0 30 1 45q2 29 29 33q10 2 29 2q115 0 172 -1q32 0 35 -32q2 -20 2 -29v-96
q0 -56 1 -83q1 -41 44 -49q19 -2 34 7.5t19 28.5q3 17 3 32v278v281z" />
    <glyph glyph-name="Hbar" unicode="&#x126;" horiz-adv-x="741" 
d="M97 595v119h90v-119h366v119h90v-119h97v-72h-97v-523h-90v333h-366v-333h-90v523h-97v72h97zM553 412v111h-366v-111h366z" />
    <glyph glyph-name="hbar" unicode="&#x127;" horiz-adv-x="618" 
d="M450 0v323q0 65 -29 97t-91 32q-83 0 -120 -45t-37 -149v-258h-88v604h-76v66h76v90h88v-90h212v-66h-212v-87q0 -43 -5 -74h6q26 42 70.5 62.5t97.5 20.5q97 0 146 -47t49 -150v-329h-87z" />
    <glyph glyph-name="Itilde" unicode="&#x128;" horiz-adv-x="338" 
d="M244 772q-21 0 -41 9t-39.5 19.5t-37 19.5t-34.5 9q-24 0 -36 -14.5t-19 -43.5h-51q6 60 34 94t76 34q22 0 42.5 -9t39.5 -19.5t37 -19.5t33 -9q23 0 35.5 14.5t19.5 43.5h50q-6 -58 -34 -93t-75 -35zM70 41q0 -19 15 -30t36 -11t36 11.5t15 32.5v611q0 21 -15.5 32.5
t-36.5 11.5q-20 0 -35 -11.5t-15 -32.5v-614z" />
    <glyph glyph-name="itilde" unicode="&#x129;" horiz-adv-x="257" 
d="M204 607q-21 0 -41 9t-39.5 19.5t-37 19.5t-34.5 9q-24 0 -36 -14.5t-19 -43.5h-51q6 60 34 94t76 34q22 0 42.5 -9t39.5 -19.5t37 -19.5t33 -9q23 0 35.5 14.5t19.5 43.5h50q-6 -58 -34 -93t-75 -35zM173 0h-88v536h88v-536z" />
    <glyph glyph-name="Imacron" unicode="&#x12a;" horiz-adv-x="338" 
d="M21 842h297v-71h-297v71zM70 41q0 -19 15 -30t36 -11t36 11.5t15 32.5v611q0 21 -15.5 32.5t-36.5 11.5q-20 0 -35 -11.5t-15 -32.5v-614z" />
    <glyph glyph-name="imacron" unicode="&#x12b;" horiz-adv-x="257" 
d="M-18 677h297v-71h-297v71zM173 0h-88v536h88v-536z" />
    <glyph glyph-name="Ibreve" unicode="&#x12c;" horiz-adv-x="338" 
d="M168 771q-69 0 -108.5 33.5t-44.5 100.5h54q4 -35 24.5 -49t76.5 -14q49 0 73 15.5t28 47.5h55q-6 -64 -48 -99t-110 -35zM70 41q0 -19 15 -30t36 -11t36 11.5t15 32.5v611q0 21 -15.5 32.5t-36.5 11.5q-20 0 -35 -11.5t-15 -32.5v-614z" />
    <glyph glyph-name="ibreve" unicode="&#x12d;" horiz-adv-x="257" 
d="M126 606q-69 0 -108.5 33.5t-44.5 100.5h54q4 -35 24.5 -49t76.5 -14q49 0 73 15.5t28 47.5h55q-6 -64 -48 -99t-110 -35zM173 0h-88v536h88v-536z" />
    <glyph glyph-name="Iogonek" unicode="&#x12e;" horiz-adv-x="338" 
d="M160 -116q0 -22 12 -33.5t33 -11.5t48 6v-56q-34 -9 -62 -9q-103 0 -103 94q0 68 78 126h62q-34 -32 -51 -58.5t-17 -57.5zM70 41q0 -19 15 -30t36 -11t36 11.5t15 32.5v611q0 21 -15.5 32.5t-36.5 11.5q-20 0 -35 -11.5t-15 -32.5v-614z" />
    <glyph glyph-name="iogonek" unicode="&#x12f;" horiz-adv-x="257" 
d="M97 -116q0 -22 12 -33.5t33 -11.5t48 6v-56q-34 -9 -62 -9q-103 0 -103 94q0 68 78 126h62q-34 -32 -51 -58.5t-17 -57.5zM70 41q0 -19 15 -30t36 -11t36 11.5t15 32.5v611q0 21 -15.5 32.5t-36.5 11.5q-20 0 -35 -11.5t-15 -32.5v-614z" />
    <glyph glyph-name="Idotaccent" unicode="&#x130;" horiz-adv-x="338" 
d="M117 846q0 29 15 42.5t37 13.5q21 0 36 -13.5t15 -42.5t-15.5 -42.5t-35.5 -13.5q-22 0 -37 13.5t-15 42.5zM70 41q0 -19 15 -30t36 -11t36 11.5t15 32.5v611q0 21 -15.5 32.5t-36.5 11.5q-20 0 -35 -11.5t-15 -32.5v-614z" />
    <glyph glyph-name="dotlessi" unicode="&#x131;" horiz-adv-x="257" 
d="M173 0h-88v536h88v-536z" />
    <glyph glyph-name="IJ" unicode="&#x132;" horiz-adv-x="611" 
d="M70 41q0 -19 15 -30t36 -11t36 11.5t15 32.5v611q0 21 -15.5 32.5t-36.5 11.5q-20 0 -35 -11.5t-15 -32.5v-614zM857 626q0 10 -2 28q-1 15 -9 26t-20 16q-9 4 -21 4q-32 0 -42 -21.5t-10 -68.5l1 -70v-290q-2 -38 -12 -65q-17 -49 -61 -69q-29 -14 -64 -14q-19 0 -42 5
q-50 13 -71 54q-14 27 -22 76q0 3 -2 17t-9 25q-13 22 -42 22q-20 0 -33 -10t-16 -29l-1 -15q0 -74 33 -134q39 -75 115 -100q39 -14 86 -14q22 0 44 3q123 18 177 134q23 50 23 116v187v187z" />
    <glyph glyph-name="ij" unicode="&#x133;" horiz-adv-x="514" 
d="M70 41q0 -19 15 -30t36 -11t36 11.5t15 32.5v611q0 21 -15.5 32.5t-36.5 11.5q-20 0 -35 -11.5t-15 -32.5v-614zM774 626q0 10 -2 28q-1 15 -9 26t-20 16q-9 4 -21 4q-32 0 -42 -21.5t-10 -68.5l1 -70v-290q-2 -38 -12 -65q-17 -49 -61 -69q-29 -14 -64 -14q-19 0 -42 5
q-50 13 -71 54q-14 27 -22 76q0 3 -2 17t-9 25q-13 22 -42 22q-20 0 -33 -10t-16 -29l-1 -15q0 -74 33 -134q39 -75 115 -100q39 -14 86 -14q22 0 44 3q123 18 177 134q23 50 23 116v187v187z" />
    <glyph glyph-name="Jcircumflex" unicode="&#x134;" horiz-adv-x="272" 
d="M-31 782q61 65 86 96.5t37 52.5h90q25 -49 125 -149v-11h-62q-44 26 -109 90q-64 -62 -107 -90h-60v11zM518 626q0 10 -2 28q-1 15 -9 26t-20 16q-9 4 -21 4q-32 0 -42 -21.5t-10 -68.5l1 -70v-290q-2 -38 -12 -65q-17 -49 -61 -69q-29 -14 -64 -14q-19 0 -42 5
q-50 13 -71 54q-14 27 -22 76q0 3 -2 17t-9 25q-13 22 -42 22q-20 0 -33 -10t-16 -29l-1 -15q0 -74 33 -134q39 -75 115 -100q39 -14 86 -14q22 0 44 3q123 18 177 134q23 50 23 116v187v187z" />
    <glyph glyph-name="jcircumflex" unicode="&#x135;" horiz-adv-x="257" 
d="M-42 617q61 65 86 96.5t37 52.5h90q25 -49 125 -149v-11h-62q-44 26 -109 90q-64 -62 -107 -90h-60v11zM22 -240q-46 0 -77 12v71q34 -10 66 -10q38 0 56 21t18 63v619h88v-616q0 -80 -38.5 -120t-112.5 -40z" />
    <glyph glyph-name="uni0136" unicode="&#x136;" horiz-adv-x="619" 
d="M246 -209q11 25 24 70.5t17 77.5h87v-9q-8 -31 -31.5 -76.5t-48.5 -74.5h-48v12zM70 287q0 -158 1 -237q0 -23 13 -36.5t38 -13.5q17 0 30 9t17 26q3 17 3 32q1 38 1 115q0 22 11 40q11 16 24 16q9 0 21 -10q8 -7 22 -23l111 -129q23 -27 46 -52q23 -26 63 -26q7 0 23 2
q23 4 28 21q1 3 1 8q0 10 -9 23q-7 9 -38 48l-119 139q1 -1 -19 22q3 -4 -40 49q-9 12 -9 28t8 29q12 16 26 32l63 75l34 40l28 33l56 66q21 26 29 39q5 10 5 17q0 16 -16 24q-7 4 -25 6q-4 1 -13 1q-40 0 -67 -32l-86 -100q-72 -86 -109 -128q-10 -12 -27 -26q-3 -2 -7 -2
q-10 0 -11 10q-4 24 -4 36v56v111q0 33 -10 54t-43 21q-19 0 -33 -15t-14 -44l-1 -160q-2 -128 -2 -176v-18z" />
    <glyph glyph-name="uni0137" unicode="&#x137;" horiz-adv-x="534" 
d="M203 -209q11 25 24 70.5t17 77.5h87v-9q-8 -31 -31.5 -76.5t-48.5 -74.5h-48v12zM70 287q0 -158 1 -237q0 -23 13 -36.5t38 -13.5q17 0 30 9t17 26q3 17 3 32q1 38 1 115q0 22 11 40q11 16 24 16q9 0 21 -10q8 -7 22 -23l111 -129q23 -27 46 -52q23 -26 63 -26q7 0 23 2
q23 4 28 21q1 3 1 8q0 10 -9 23q-7 9 -38 48l-119 139q1 -1 -19 22q3 -4 -40 49q-9 12 -9 28t8 29q12 16 26 32l63 75l34 40l28 33l56 66q21 26 29 39q5 10 5 17q0 16 -16 24q-7 4 -25 6q-4 1 -13 1q-40 0 -67 -32l-86 -100q-72 -86 -109 -128q-10 -12 -27 -26q-3 -2 -7 -2
q-10 0 -11 10q-4 24 -4 36v56v111q0 33 -10 54t-43 21q-19 0 -33 -15t-14 -44l-1 -160q-2 -128 -2 -176v-18z" />
    <glyph glyph-name="kgreenlandic" unicode="&#x138;" horiz-adv-x="534" 
d="M403 536h106l-203 -237l219 -299h-105l-176 242l-66 -54v-188h-93v536h93v-139q0 -68 -6 -135l41 50z" />
    <glyph glyph-name="Lacute" unicode="&#x139;" horiz-adv-x="523" 
d="M79 22q8 -13 23 -17q15 -5 36 -5h317q23 1 36.5 14.5t13.5 38.5q0 17 -9.5 29.5t-26.5 16.5q-16 3 -33 3q-150 0 -225 1q-28 0 -35 19q-4 12 -4 29v472q0 39 -14.5 58.5t-37.5 19.5q-10 0 -23 -5q-10 -4 -18.5 -17t-8.5 -29l1 -598q0 -17 8 -30zM118 783q19 23 47.5 66.5
t47.5 81.5h106v-10q-21 -31 -66.5 -78.5t-76.5 -71.5h-58v12z" />
    <glyph glyph-name="lacute" unicode="&#x13a;" horiz-adv-x="257" 
d="M79 22q8 -13 23 -17q15 -5 36 -5h317q23 1 36.5 14.5t13.5 38.5q0 17 -9.5 29.5t-26.5 16.5q-16 3 -33 3q-150 0 -225 1q-28 0 -35 19q-4 12 -4 29v472q0 39 -14.5 58.5t-37.5 19.5q-10 0 -23 -5q-10 -4 -18.5 -17t-8.5 -29l1 -598q0 -17 8 -30zM81 811q19 23 47.5 66.5
t47.5 81.5h106v-10q-21 -31 -66.5 -78.5t-76.5 -71.5h-58v12z" />
    <glyph glyph-name="uni013B" unicode="&#x13b;" horiz-adv-x="523" 
d="M204 -209q11 25 24 70.5t17 77.5h87v-9q-8 -31 -31.5 -76.5t-48.5 -74.5h-48v12zM79 22q8 -13 23 -17q15 -5 36 -5h317q23 1 36.5 14.5t13.5 38.5q0 17 -9.5 29.5t-26.5 16.5q-16 3 -33 3q-150 0 -225 1q-28 0 -35 19q-4 12 -4 29v472q0 39 -14.5 58.5t-37.5 19.5
q-10 0 -23 -5q-10 -4 -18.5 -17t-8.5 -29l1 -598q0 -17 8 -30z" />
    <glyph glyph-name="uni013C" unicode="&#x13c;" horiz-adv-x="257" 
d="M45 -209q11 25 24 70.5t17 77.5h87v-9q-8 -31 -31.5 -76.5t-48.5 -74.5h-48v12zM79 22q8 -13 23 -17q15 -5 36 -5h317q23 1 36.5 14.5t13.5 38.5q0 17 -9.5 29.5t-26.5 16.5q-16 3 -33 3q-150 0 -225 1q-28 0 -35 19q-4 12 -4 29v472q0 39 -14.5 58.5t-37.5 19.5
q-10 0 -23 -5q-10 -4 -18.5 -17t-8.5 -29l1 -598q0 -17 8 -30z" />
    <glyph glyph-name="Lcaron" unicode="&#x13d;" horiz-adv-x="523" 
d="M333 567q11 32 20.5 77.5t12.5 70.5h87v-9q-6 -26 -27 -71t-45 -80h-48v12zM79 22q8 -13 23 -17q15 -5 36 -5h317q23 1 36.5 14.5t13.5 38.5q0 17 -9.5 29.5t-26.5 16.5q-16 3 -33 3q-150 0 -225 1q-28 0 -35 19q-4 12 -4 29v472q0 39 -14.5 58.5t-37.5 19.5
q-10 0 -23 -5q-10 -4 -18.5 -17t-8.5 -29l1 -598q0 -17 8 -30z" />
    <glyph glyph-name="lcaron" unicode="&#x13e;" horiz-adv-x="257" 
d="M219 612q11 32 20.5 77.5t12.5 70.5h87v-9q-6 -26 -27 -71t-45 -80h-48v12zM79 22q8 -13 23 -17q15 -5 36 -5h317q23 1 36.5 14.5t13.5 38.5q0 17 -9.5 29.5t-26.5 16.5q-16 3 -33 3q-150 0 -225 1q-28 0 -35 19q-4 12 -4 29v472q0 39 -14.5 58.5t-37.5 19.5
q-10 0 -23 -5q-10 -4 -18.5 -17t-8.5 -29l1 -598q0 -17 8 -30z" />
    <glyph glyph-name="Ldot" unicode="&#x13f;" horiz-adv-x="523" 
d="M332 357q0 29 15 42.5t37 13.5q21 0 36 -13.5t15 -42.5t-15.5 -42.5t-35.5 -13.5q-22 0 -37 13.5t-15 42.5zM79 22q8 -13 23 -17q15 -5 36 -5h317q23 1 36.5 14.5t13.5 38.5q0 17 -9.5 29.5t-26.5 16.5q-16 3 -33 3q-150 0 -225 1q-28 0 -35 19q-4 12 -4 29v472
q0 39 -14.5 58.5t-37.5 19.5q-10 0 -23 -5q-10 -4 -18.5 -17t-8.5 -29l1 -598q0 -17 8 -30z" />
    <glyph glyph-name="ldot" unicode="&#x140;" horiz-adv-x="325" 
d="M240 333q0 29 15 42.5t37 13.5q21 0 36 -13.5t15 -42.5t-15.5 -42.5t-35.5 -13.5q-22 0 -37 13.5t-15 42.5zM79 22q8 -13 23 -17q15 -5 36 -5h317q23 1 36.5 14.5t13.5 38.5q0 17 -9.5 29.5t-26.5 16.5q-16 3 -33 3q-150 0 -225 1q-28 0 -35 19q-4 12 -4 29v472
q0 39 -14.5 58.5t-37.5 19.5q-10 0 -23 -5q-10 -4 -18.5 -17t-8.5 -29l1 -598q0 -17 8 -30z" />
    <glyph glyph-name="Lslash" unicode="&#x141;" horiz-adv-x="523" 
d="M97 0v247l-49 -28l-35 60l84 50v385h90v-332l137 81l36 -63l-173 -100v-220h312v-80h-402z" />
    <glyph glyph-name="lslash" unicode="&#x142;" horiz-adv-x="257" 
d="M166 425l64 44l37 -59l-101 -68v-342h-88v285l-51 -32l-36 59l87 56v392h88v-335z" />
    <glyph glyph-name="Nacute" unicode="&#x143;" horiz-adv-x="759" 
d="M544 464q0 126 -1 186q0 22 -13 36t-37 14q-17 0 -30 -9t-17 -26q-3 -16 -3 -32q-1 -115 -1 -350q0 -13 -6 -35q-1 -5 -5 -6.5t-8 2.5q-19 24 -23 30q-31 55 -56 101l-40 75q-26 50 -40 74l-74 133q-10 18 -32 30t-43 12q-29 0 -37 -15t-8 -61l1 -73v-458q0 -30 1 -44
q1 -23 13.5 -36.5t36.5 -13.5q17 0 30 9t17 26q4 13 4 32q0 233 1 350q0 12 5 27q1 5 5.5 6.5t7.5 -2.5q13 -12 20 -26l92 -162q38 -70 116 -208q10 -19 22 -32q18 -20 53 -18q17 0 29.5 10t16.5 26q3 17 3 31v280v117zM318 783q19 23 47.5 66.5t47.5 81.5h106v-10
q-21 -31 -66.5 -78.5t-76.5 -71.5h-58v12z" />
    <glyph glyph-name="nacute" unicode="&#x144;" horiz-adv-x="618" 
d="M544 464q0 126 -1 186q0 22 -13 36t-37 14q-17 0 -30 -9t-17 -26q-3 -16 -3 -32q-1 -115 -1 -350q0 -13 -6 -35q-1 -5 -5 -6.5t-8 2.5q-19 24 -23 30q-31 55 -56 101l-40 75q-26 50 -40 74l-74 133q-10 18 -32 30t-43 12q-29 0 -37 -15t-8 -61l1 -73v-458q0 -30 1 -44
q1 -23 13.5 -36.5t36.5 -13.5q17 0 30 9t17 26q4 13 4 32q0 233 1 350q0 12 5 27q1 5 5.5 6.5t7.5 -2.5q13 -12 20 -26l92 -162q38 -70 116 -208q10 -19 22 -32q18 -20 53 -18q17 0 29.5 10t16.5 26q3 17 3 31v280v117zM250 618q19 23 47.5 66.5t47.5 81.5h106v-10
q-21 -31 -66.5 -78.5t-76.5 -71.5h-58v12z" />
    <glyph glyph-name="uni0145" unicode="&#x145;" horiz-adv-x="759" 
d="M281 -209q11 25 24 70.5t17 77.5h87v-9q-8 -31 -31.5 -76.5t-48.5 -74.5h-48v12zM544 464q0 126 -1 186q0 22 -13 36t-37 14q-17 0 -30 -9t-17 -26q-3 -16 -3 -32q-1 -115 -1 -350q0 -13 -6 -35q-1 -5 -5 -6.5t-8 2.5q-19 24 -23 30q-31 55 -56 101l-40 75q-26 50 -40 74
l-74 133q-10 18 -32 30t-43 12q-29 0 -37 -15t-8 -61l1 -73v-458q0 -30 1 -44q1 -23 13.5 -36.5t36.5 -13.5q17 0 30 9t17 26q4 13 4 32q0 233 1 350q0 12 5 27q1 5 5.5 6.5t7.5 -2.5q13 -12 20 -26l92 -162q38 -70 116 -208q10 -19 22 -32q18 -20 53 -18q17 0 29.5 10
t16.5 26q3 17 3 31v280v117z" />
    <glyph glyph-name="uni0146" unicode="&#x146;" horiz-adv-x="618" 
d="M222 -209q11 25 24 70.5t17 77.5h87v-9q-8 -31 -31.5 -76.5t-48.5 -74.5h-48v12zM544 464q0 126 -1 186q0 22 -13 36t-37 14q-17 0 -30 -9t-17 -26q-3 -16 -3 -32q-1 -115 -1 -350q0 -13 -6 -35q-1 -5 -5 -6.5t-8 2.5q-19 24 -23 30q-31 55 -56 101l-40 75q-26 50 -40 74
l-74 133q-10 18 -32 30t-43 12q-29 0 -37 -15t-8 -61l1 -73v-458q0 -30 1 -44q1 -23 13.5 -36.5t36.5 -13.5q17 0 30 9t17 26q4 13 4 32q0 233 1 350q0 12 5 27q1 5 5.5 6.5t7.5 -2.5q13 -12 20 -26l92 -162q38 -70 116 -208q10 -19 22 -32q18 -20 53 -18q17 0 29.5 10
t16.5 26q3 17 3 31v280v117z" />
    <glyph glyph-name="Ncaron" unicode="&#x147;" horiz-adv-x="759" 
d="M211 931h60q56 -36 107 -92q62 62 109 92h62v-13q-100 -100 -125 -147h-90q-29 50 -123 147v13zM544 464q0 126 -1 186q0 22 -13 36t-37 14q-17 0 -30 -9t-17 -26q-3 -16 -3 -32q-1 -115 -1 -350q0 -13 -6 -35q-1 -5 -5 -6.5t-8 2.5q-19 24 -23 30q-31 55 -56 101l-40 75
q-26 50 -40 74l-74 133q-10 18 -32 30t-43 12q-29 0 -37 -15t-8 -61l1 -73v-458q0 -30 1 -44q1 -23 13.5 -36.5t36.5 -13.5q17 0 30 9t17 26q4 13 4 32q0 233 1 350q0 12 5 27q1 5 5.5 6.5t7.5 -2.5q13 -12 20 -26l92 -162q38 -70 116 -208q10 -19 22 -32q18 -20 53 -18
q17 0 29.5 10t16.5 26q3 17 3 31v280v117z" />
    <glyph glyph-name="ncaron" unicode="&#x148;" horiz-adv-x="618" 
d="M144 766h60q56 -36 107 -92q62 62 109 92h62v-13q-100 -100 -125 -147h-90q-29 50 -123 147v13zM544 464q0 126 -1 186q0 22 -13 36t-37 14q-17 0 -30 -9t-17 -26q-3 -16 -3 -32q-1 -115 -1 -350q0 -13 -6 -35q-1 -5 -5 -6.5t-8 2.5q-19 24 -23 30q-31 55 -56 101l-40 75
q-26 50 -40 74l-74 133q-10 18 -32 30t-43 12q-29 0 -37 -15t-8 -61l1 -73v-458q0 -30 1 -44q1 -23 13.5 -36.5t36.5 -13.5q17 0 30 9t17 26q4 13 4 32q0 233 1 350q0 12 5 27q1 5 5.5 6.5t7.5 -2.5q13 -12 20 -26l92 -162q38 -70 116 -208q10 -19 22 -32q18 -20 53 -18
q17 0 29.5 10t16.5 26q3 17 3 31v280v117z" />
    <glyph glyph-name="napostrophe" unicode="&#x149;" horiz-adv-x="690" 
d="M145 714l7 -11q-25 -97 -86 -234h-65q34 139 50 245h94zM615 464q0 126 -1 186q0 22 -13 36t-37 14q-17 0 -30 -9t-17 -26q-3 -16 -3 -32q-1 -115 -1 -350q0 -13 -6 -35q-1 -5 -5 -6.5t-8 2.5q-19 24 -23 30q-31 55 -56 101l-40 75q-26 50 -40 74l-74 133q-10 18 -32 30
t-43 12q-29 0 -37 -15t-8 -61l1 -73v-458q0 -30 1 -44q1 -23 13.5 -36.5t36.5 -13.5q17 0 30 9t17 26q4 13 4 32q0 233 1 350q0 12 5 27q1 5 5.5 6.5t7.5 -2.5q13 -12 20 -26l92 -162q38 -70 116 -208q10 -19 22 -32q18 -20 53 -18q17 0 29.5 10t16.5 26q3 17 3 31v280v117z
" />
    <glyph glyph-name="Eng" unicode="&#x14a;" horiz-adv-x="759" 
d="M475 -190q-48 0 -76 13v76q35 -10 76 -10q50 0 76.5 28.5t27.5 82.5l-403 593h-4q8 -125 8 -206v-387h-83v714h104l381 -572h4q-7 75 -7 200v372h84v-708q0 -96 -48.5 -146t-139.5 -50z" />
    <glyph glyph-name="eng" unicode="&#x14b;" horiz-adv-x="618" 
d="M394 -240q-42 0 -71 12v71q29 -10 60 -10q67 0 67 84v427q0 65 -29 96.5t-90 31.5q-83 0 -120.5 -45.5t-37.5 -147.5v-279h-88v536h71l14 -73h5q25 40 69 61.5t98 21.5q99 0 147.5 -46.5t48.5 -149.5v-430q0 -75 -35 -117.5t-109 -42.5z" />
    <glyph glyph-name="Omacron" unicode="&#x14c;" horiz-adv-x="780" 
d="M242 842h297v-71h-297v71zM215.5 650q-80.5 -47 -128 -127.5t-47.5 -172.5q0 -94 47.5 -174.5t127.5 -128t173 -47.5q94 0 174.5 48t127.5 128t47 172q0 94 -48 174.5t-128.5 127.5t-172.5 46q-92 1 -172.5 -46zM175 470q33 57 90 90.5t124 33.5q64 0 120.5 -33t90.5 -90
t34 -124q0 -64 -33 -120t-89 -90t-122 -34t-123.5 33.5t-91 89.5t-32.5 122q-1 65 32 122z" />
    <glyph glyph-name="omacron" unicode="&#x14d;" horiz-adv-x="604" 
d="M154 677h297v-71h-297v71zM215.5 650q-80.5 -47 -128 -127.5t-47.5 -172.5q0 -94 47.5 -174.5t127.5 -128t173 -47.5q94 0 174.5 48t127.5 128t47 172q0 94 -48 174.5t-128.5 127.5t-172.5 46q-92 1 -172.5 -46zM175 470q33 57 90 90.5t124 33.5q64 0 120.5 -33t90.5 -90
t34 -124q0 -64 -33 -120t-89 -90t-122 -34t-123.5 33.5t-91 89.5t-32.5 122q-1 65 32 122z" />
    <glyph glyph-name="Obreve" unicode="&#x14e;" horiz-adv-x="780" 
d="M387 771q-69 0 -108.5 33.5t-44.5 100.5h54q4 -35 24.5 -49t76.5 -14q49 0 73 15.5t28 47.5h55q-6 -64 -48 -99t-110 -35zM215.5 650q-80.5 -47 -128 -127.5t-47.5 -172.5q0 -94 47.5 -174.5t127.5 -128t173 -47.5q94 0 174.5 48t127.5 128t47 172q0 94 -48 174.5
t-128.5 127.5t-172.5 46q-92 1 -172.5 -46zM175 470q33 57 90 90.5t124 33.5q64 0 120.5 -33t90.5 -90t34 -124q0 -64 -33 -120t-89 -90t-122 -34t-123.5 33.5t-91 89.5t-32.5 122q-1 65 32 122z" />
    <glyph glyph-name="obreve" unicode="&#x14f;" horiz-adv-x="604" 
d="M299 606q-69 0 -108.5 33.5t-44.5 100.5h54q4 -35 24.5 -49t76.5 -14q49 0 73 15.5t28 47.5h55q-6 -64 -48 -99t-110 -35zM215.5 650q-80.5 -47 -128 -127.5t-47.5 -172.5q0 -94 47.5 -174.5t127.5 -128t173 -47.5q94 0 174.5 48t127.5 128t47 172q0 94 -48 174.5
t-128.5 127.5t-172.5 46q-92 1 -172.5 -46zM175 470q33 57 90 90.5t124 33.5q64 0 120.5 -33t90.5 -90t34 -124q0 -64 -33 -120t-89 -90t-122 -34t-123.5 33.5t-91 89.5t-32.5 122q-1 65 32 122z" />
    <glyph glyph-name="Ohungarumlaut" unicode="&#x150;" horiz-adv-x="780" 
d="M246 783q17 22 42.5 65.5t44.5 82.5h96v-10q-16 -27 -58.5 -75t-74.5 -75h-50v12zM422 783q23 32 49 76.5t38 71.5h96v-10q-16 -27 -58.5 -75t-74.5 -75h-50v12zM215.5 650q-80.5 -47 -128 -127.5t-47.5 -172.5q0 -94 47.5 -174.5t127.5 -128t173 -47.5q94 0 174.5 48
t127.5 128t47 172q0 94 -48 174.5t-128.5 127.5t-172.5 46q-92 1 -172.5 -46zM175 470q33 57 90 90.5t124 33.5q64 0 120.5 -33t90.5 -90t34 -124q0 -64 -33 -120t-89 -90t-122 -34t-123.5 33.5t-91 89.5t-32.5 122q-1 65 32 122z" />
    <glyph glyph-name="ohungarumlaut" unicode="&#x151;" horiz-adv-x="604" 
d="M154 618q17 22 42.5 65.5t44.5 82.5h96v-10q-16 -27 -58.5 -75t-74.5 -75h-50v12zM330 618q23 32 49 76.5t38 71.5h96v-10q-16 -27 -58.5 -75t-74.5 -75h-50v12zM215.5 650q-80.5 -47 -128 -127.5t-47.5 -172.5q0 -94 47.5 -174.5t127.5 -128t173 -47.5q94 0 174.5 48
t127.5 128t47 172q0 94 -48 174.5t-128.5 127.5t-172.5 46q-92 1 -172.5 -46zM175 470q33 57 90 90.5t124 33.5q64 0 120.5 -33t90.5 -90t34 -124q0 -64 -33 -120t-89 -90t-122 -34t-123.5 33.5t-91 89.5t-32.5 122q-1 65 32 122z" />
    <glyph glyph-name="OE" unicode="&#x152;" horiz-adv-x="928" 
d="M868 0h-380q-50 -10 -97 -10q-159 0 -244.5 96.5t-85.5 272.5q0 175 84 270.5t241 95.5q52 0 96 -11h386v-79h-287v-223h268v-78h-268v-255h287v-79zM394 646q-118 0 -178.5 -73.5t-60.5 -214.5t60.5 -215.5t177.5 -74.5q57 0 99 17v545q-41 16 -98 16z" />
    <glyph glyph-name="oe" unicode="&#x153;" horiz-adv-x="945" 
d="M699 -10q-142 0 -204 111q-31 -55 -82 -83t-117 -28q-110 0 -176 75.5t-66 203.5q0 130 64.5 203t180.5 73q63 0 113 -28t80 -82q29 53 76 81.5t109 28.5q100 0 158.5 -64.5t58.5 -176.5v-53h-356q4 -186 162 -186q44 0 81.5 7.5t88.5 29.5v-77q-45 -20 -83 -27.5
t-88 -7.5zM146 269q0 -102 35.5 -154t115.5 -52q78 0 114 51t36 151q0 104 -36.5 155.5t-115.5 51.5t-114 -51.5t-35 -151.5zM676 473q-60 0 -95 -38.5t-41 -113.5h261q0 74 -31.5 113t-93.5 39z" />
    <glyph glyph-name="Racute" unicode="&#x154;" horiz-adv-x="622" 
d="M70 301l1 -249q0 -23 14 -36.5t39 -13.5q15 0 27.5 8.5t16.5 22.5q3 11 5 36v131q0 16 3 32q3 12 13 12q5 0 10 -4q15 -11 25 -23l63 -67q28 -32 44 -48l23 -25l17 -18l33 -35q25 -24 61 -24q14 0 34 5q20 6 20 24q0 6 -3 13q-5 11 -13 21l-76 83q-56 60 -83 91
q-14 15 -25 33q-2 2 -2 8q0 13 9 16q12 4 19 5q68 9 106 30q62 35 83 96q11 33 11 73q0 60 -24 101q-29 51 -92 77q-59 24 -138 24l-110 1h-5q-57 0 -77.5 -9t-24.5 -35t-4 -106v-250zM209 597h64h32q49 -2 81 -13q27 -9 41.5 -31.5t14.5 -52.5q0 -34 -14 -54
q-18 -28 -63 -39q-35 -7 -89 -7h-61q-19 0 -28 8q-12 8 -14 31q0 105 2 127q1 31 34 31zM249 783q19 23 47.5 66.5t47.5 81.5h106v-10q-21 -31 -66.5 -78.5t-76.5 -71.5h-58v12z" />
    <glyph glyph-name="racute" unicode="&#x155;" horiz-adv-x="413" 
d="M70 301l1 -249q0 -23 14 -36.5t39 -13.5q15 0 27.5 8.5t16.5 22.5q3 11 5 36v131q0 16 3 32q3 12 13 12q5 0 10 -4q15 -11 25 -23l63 -67q28 -32 44 -48l23 -25l17 -18l33 -35q25 -24 61 -24q14 0 34 5q20 6 20 24q0 6 -3 13q-5 11 -13 21l-76 83q-56 60 -83 91
q-14 15 -25 33q-2 2 -2 8q0 13 9 16q12 4 19 5q68 9 106 30q62 35 83 96q11 33 11 73q0 60 -24 101q-29 51 -92 77q-59 24 -138 24l-110 1h-5q-57 0 -77.5 -9t-24.5 -35t-4 -106v-250zM209 597h64h32q49 -2 81 -13q27 -9 41.5 -31.5t14.5 -52.5q0 -34 -14 -54
q-18 -28 -63 -39q-35 -7 -89 -7h-61q-19 0 -28 8q-12 8 -14 31q0 105 2 127q1 31 34 31zM174 618q19 23 47.5 66.5t47.5 81.5h106v-10q-21 -31 -66.5 -78.5t-76.5 -71.5h-58v12z" />
    <glyph glyph-name="uni0156" unicode="&#x156;" horiz-adv-x="622" 
d="M242 -209q11 25 24 70.5t17 77.5h87v-9q-8 -31 -31.5 -76.5t-48.5 -74.5h-48v12zM70 301l1 -249q0 -23 14 -36.5t39 -13.5q15 0 27.5 8.5t16.5 22.5q3 11 5 36v131q0 16 3 32q3 12 13 12q5 0 10 -4q15 -11 25 -23l63 -67q28 -32 44 -48l23 -25l17 -18l33 -35
q25 -24 61 -24q14 0 34 5q20 6 20 24q0 6 -3 13q-5 11 -13 21l-76 83q-56 60 -83 91q-14 15 -25 33q-2 2 -2 8q0 13 9 16q12 4 19 5q68 9 106 30q62 35 83 96q11 33 11 73q0 60 -24 101q-29 51 -92 77q-59 24 -138 24l-110 1h-5q-57 0 -77.5 -9t-24.5 -35t-4 -106v-250z
M209 597h64h32q49 -2 81 -13q27 -9 41.5 -31.5t14.5 -52.5q0 -34 -14 -54q-18 -28 -63 -39q-35 -7 -89 -7h-61q-19 0 -28 8q-12 8 -14 31q0 105 2 127q1 31 34 31z" />
    <glyph glyph-name="uni0157" unicode="&#x157;" horiz-adv-x="413" 
d="M48 -209q11 25 24 70.5t17 77.5h87v-9q-8 -31 -31.5 -76.5t-48.5 -74.5h-48v12zM70 301l1 -249q0 -23 14 -36.5t39 -13.5q15 0 27.5 8.5t16.5 22.5q3 11 5 36v131q0 16 3 32q3 12 13 12q5 0 10 -4q15 -11 25 -23l63 -67q28 -32 44 -48l23 -25l17 -18l33 -35
q25 -24 61 -24q14 0 34 5q20 6 20 24q0 6 -3 13q-5 11 -13 21l-76 83q-56 60 -83 91q-14 15 -25 33q-2 2 -2 8q0 13 9 16q12 4 19 5q68 9 106 30q62 35 83 96q11 33 11 73q0 60 -24 101q-29 51 -92 77q-59 24 -138 24l-110 1h-5q-57 0 -77.5 -9t-24.5 -35t-4 -106v-250z
M209 597h64h32q49 -2 81 -13q27 -9 41.5 -31.5t14.5 -52.5q0 -34 -14 -54q-18 -28 -63 -39q-35 -7 -89 -7h-61q-19 0 -28 8q-12 8 -14 31q0 105 2 127q1 31 34 31z" />
    <glyph glyph-name="Rcaron" unicode="&#x158;" horiz-adv-x="622" 
d="M141 931h60q56 -36 107 -92q62 62 109 92h62v-13q-100 -100 -125 -147h-90q-29 50 -123 147v13zM70 301l1 -249q0 -23 14 -36.5t39 -13.5q15 0 27.5 8.5t16.5 22.5q3 11 5 36v131q0 16 3 32q3 12 13 12q5 0 10 -4q15 -11 25 -23l63 -67q28 -32 44 -48l23 -25l17 -18
l33 -35q25 -24 61 -24q14 0 34 5q20 6 20 24q0 6 -3 13q-5 11 -13 21l-76 83q-56 60 -83 91q-14 15 -25 33q-2 2 -2 8q0 13 9 16q12 4 19 5q68 9 106 30q62 35 83 96q11 33 11 73q0 60 -24 101q-29 51 -92 77q-59 24 -138 24l-110 1h-5q-57 0 -77.5 -9t-24.5 -35t-4 -106
v-250zM209 597h64h32q49 -2 81 -13q27 -9 41.5 -31.5t14.5 -52.5q0 -34 -14 -54q-18 -28 -63 -39q-35 -7 -89 -7h-61q-19 0 -28 8q-12 8 -14 31q0 105 2 127q1 31 34 31z" />
    <glyph glyph-name="rcaron" unicode="&#x159;" horiz-adv-x="413" 
d="M62 766h60q56 -36 107 -92q62 62 109 92h62v-13q-100 -100 -125 -147h-90q-29 50 -123 147v13zM70 301l1 -249q0 -23 14 -36.5t39 -13.5q15 0 27.5 8.5t16.5 22.5q3 11 5 36v131q0 16 3 32q3 12 13 12q5 0 10 -4q15 -11 25 -23l63 -67q28 -32 44 -48l23 -25l17 -18
l33 -35q25 -24 61 -24q14 0 34 5q20 6 20 24q0 6 -3 13q-5 11 -13 21l-76 83q-56 60 -83 91q-14 15 -25 33q-2 2 -2 8q0 13 9 16q12 4 19 5q68 9 106 30q62 35 83 96q11 33 11 73q0 60 -24 101q-29 51 -92 77q-59 24 -138 24l-110 1h-5q-57 0 -77.5 -9t-24.5 -35t-4 -106
v-250zM209 597h64h32q49 -2 81 -13q27 -9 41.5 -31.5t14.5 -52.5q0 -34 -14 -54q-18 -28 -63 -39q-35 -7 -89 -7h-61q-19 0 -28 8q-12 8 -14 31q0 105 2 127q1 31 34 31z" />
    <glyph glyph-name="Sacute" unicode="&#x15a;" horiz-adv-x="548" 
d="M356 2.5q21 1.5 37 4.5q95 15 146 77q48 57 48 125q0 73 -43 120q-35 40 -98 57q-26 7 -52.5 10t-51.5 4.5t-35 2.5q-43 2 -73 13q-26 9 -40.5 29t-14.5 46q0 15 4 27q16 46 71 66q33 13 76 13q12 0 36 -2q40 -3 70 -23q12 -7 23 -19t21 -24q15 -20 32 -20q29 0 49 32
q6 12 6 23q0 13 -8 27q-27 48 -84 77q-58 31 -139 31q-54 0 -98 -12q-67 -18 -107 -62q-55 -60 -55 -132q0 -82 52 -131q30 -29 76 -45q28 -9 58.5 -12.5t70.5 -5.5q48 -4 73 -8q38 -7 59 -30q19 -22 19 -51q0 -14 -4 -26q-14 -46 -65 -66q-41 -16 -85 -16q-31 0 -69 10
q-50 13 -72 51q-6 10 -11.5 24.5t-7.5 20.5q-8 23 -20.5 32.5t-33.5 9.5q-31 0 -42 -25q-4 -8 -4 -20q0 -9 1 -13q10 -72 64 -124q29 -29 67 -44q53 -22 125 -24q8 1 29 2.5zM227 783q19 23 47.5 66.5t47.5 81.5h106v-10q-21 -31 -66.5 -78.5t-76.5 -71.5h-58v12z" />
    <glyph glyph-name="sacute" unicode="&#x15b;" horiz-adv-x="479" 
d="M356 2.5q21 1.5 37 4.5q95 15 146 77q48 57 48 125q0 73 -43 120q-35 40 -98 57q-26 7 -52.5 10t-51.5 4.5t-35 2.5q-43 2 -73 13q-26 9 -40.5 29t-14.5 46q0 15 4 27q16 46 71 66q33 13 76 13q12 0 36 -2q40 -3 70 -23q12 -7 23 -19t21 -24q15 -20 32 -20q29 0 49 32
q6 12 6 23q0 13 -8 27q-27 48 -84 77q-58 31 -139 31q-54 0 -98 -12q-67 -18 -107 -62q-55 -60 -55 -132q0 -82 52 -131q30 -29 76 -45q28 -9 58.5 -12.5t70.5 -5.5q48 -4 73 -8q38 -7 59 -30q19 -22 19 -51q0 -14 -4 -26q-14 -46 -65 -66q-41 -16 -85 -16q-31 0 -69 10
q-50 13 -72 51q-6 10 -11.5 24.5t-7.5 20.5q-8 23 -20.5 32.5t-33.5 9.5q-31 0 -42 -25q-4 -8 -4 -20q0 -9 1 -13q10 -72 64 -124q29 -29 67 -44q53 -22 125 -24q8 1 29 2.5zM181 618q19 23 47.5 66.5t47.5 81.5h106v-10q-21 -31 -66.5 -78.5t-76.5 -71.5h-58v12z" />
    <glyph glyph-name="Scircumflex" unicode="&#x15c;" horiz-adv-x="548" 
d="M116 782q61 65 86 96.5t37 52.5h90q25 -49 125 -149v-11h-62q-44 26 -109 90q-64 -62 -107 -90h-60v11zM356 2.5q21 1.5 37 4.5q95 15 146 77q48 57 48 125q0 73 -43 120q-35 40 -98 57q-26 7 -52.5 10t-51.5 4.5t-35 2.5q-43 2 -73 13q-26 9 -40.5 29t-14.5 46
q0 15 4 27q16 46 71 66q33 13 76 13q12 0 36 -2q40 -3 70 -23q12 -7 23 -19t21 -24q15 -20 32 -20q29 0 49 32q6 12 6 23q0 13 -8 27q-27 48 -84 77q-58 31 -139 31q-54 0 -98 -12q-67 -18 -107 -62q-55 -60 -55 -132q0 -82 52 -131q30 -29 76 -45q28 -9 58.5 -12.5
t70.5 -5.5q48 -4 73 -8q38 -7 59 -30q19 -22 19 -51q0 -14 -4 -26q-14 -46 -65 -66q-41 -16 -85 -16q-31 0 -69 10q-50 13 -72 51q-6 10 -11.5 24.5t-7.5 20.5q-8 23 -20.5 32.5t-33.5 9.5q-31 0 -42 -25q-4 -8 -4 -20q0 -9 1 -13q10 -72 64 -124q29 -29 67 -44
q53 -22 125 -24q8 1 29 2.5z" />
    <glyph glyph-name="scircumflex" unicode="&#x15d;" horiz-adv-x="479" 
d="M77 617q61 65 86 96.5t37 52.5h90q25 -49 125 -149v-11h-62q-44 26 -109 90q-64 -62 -107 -90h-60v11zM356 2.5q21 1.5 37 4.5q95 15 146 77q48 57 48 125q0 73 -43 120q-35 40 -98 57q-26 7 -52.5 10t-51.5 4.5t-35 2.5q-43 2 -73 13q-26 9 -40.5 29t-14.5 46q0 15 4 27
q16 46 71 66q33 13 76 13q12 0 36 -2q40 -3 70 -23q12 -7 23 -19t21 -24q15 -20 32 -20q29 0 49 32q6 12 6 23q0 13 -8 27q-27 48 -84 77q-58 31 -139 31q-54 0 -98 -12q-67 -18 -107 -62q-55 -60 -55 -132q0 -82 52 -131q30 -29 76 -45q28 -9 58.5 -12.5t70.5 -5.5
q48 -4 73 -8q38 -7 59 -30q19 -22 19 -51q0 -14 -4 -26q-14 -46 -65 -66q-41 -16 -85 -16q-31 0 -69 10q-50 13 -72 51q-6 10 -11.5 24.5t-7.5 20.5q-8 23 -20.5 32.5t-33.5 9.5q-31 0 -42 -25q-4 -8 -4 -20q0 -9 1 -13q10 -72 64 -124q29 -29 67 -44q53 -22 125 -24
q8 1 29 2.5z" />
    <glyph glyph-name="Scedilla" unicode="&#x15e;" horiz-adv-x="548" 
d="M356 2.5q21 1.5 37 4.5q95 15 146 77q48 57 48 125q0 73 -43 120q-35 40 -98 57q-26 7 -52.5 10t-51.5 4.5t-35 2.5q-43 2 -73 13q-26 9 -40.5 29t-14.5 46q0 15 4 27q16 46 71 66q33 13 76 13q12 0 36 -2q40 -3 70 -23q12 -7 23 -19t21 -24q15 -20 32 -20q29 0 49 32
q6 12 6 23q0 13 -8 27q-27 48 -84 77q-58 31 -139 31q-54 0 -98 -12q-67 -18 -107 -62q-55 -60 -55 -132q0 -82 52 -131q30 -29 76 -45q28 -9 58.5 -12.5t70.5 -5.5q48 -4 73 -8q38 -7 59 -30q19 -22 19 -51q0 -14 -4 -26q-14 -46 -65 -66q-41 -16 -85 -16q-31 0 -69 10
q-50 13 -72 51q-6 10 -11.5 24.5t-7.5 20.5q-8 23 -20.5 32.5t-33.5 9.5q-31 0 -42 -25q-4 -8 -4 -20q0 -9 1 -13q10 -72 64 -124q29 -29 67 -44q53 -22 125 -24q8 1 29 2.5zM358 -139q0 -48 -37 -74.5t-111 -26.5q-32 0 -50 5v55q18 -5 53 -5q37 0 55.5 9.5t18.5 34.5
q0 43 -91 55l43 86h58l-26 -53q87 -19 87 -86z" />
    <glyph glyph-name="scedilla" unicode="&#x15f;" horiz-adv-x="479" 
d="M356 2.5q21 1.5 37 4.5q95 15 146 77q48 57 48 125q0 73 -43 120q-35 40 -98 57q-26 7 -52.5 10t-51.5 4.5t-35 2.5q-43 2 -73 13q-26 9 -40.5 29t-14.5 46q0 15 4 27q16 46 71 66q33 13 76 13q12 0 36 -2q40 -3 70 -23q12 -7 23 -19t21 -24q15 -20 32 -20q29 0 49 32
q6 12 6 23q0 13 -8 27q-27 48 -84 77q-58 31 -139 31q-54 0 -98 -12q-67 -18 -107 -62q-55 -60 -55 -132q0 -82 52 -131q30 -29 76 -45q28 -9 58.5 -12.5t70.5 -5.5q48 -4 73 -8q38 -7 59 -30q19 -22 19 -51q0 -14 -4 -26q-14 -46 -65 -66q-41 -16 -85 -16q-31 0 -69 10
q-50 13 -72 51q-6 10 -11.5 24.5t-7.5 20.5q-8 23 -20.5 32.5t-33.5 9.5q-31 0 -42 -25q-4 -8 -4 -20q0 -9 1 -13q10 -72 64 -124q29 -29 67 -44q53 -22 125 -24q8 1 29 2.5zM320 -139q0 -48 -37 -74.5t-111 -26.5q-32 0 -50 5v55q18 -5 53 -5q37 0 55.5 9.5t18.5 34.5
q0 43 -91 55l43 86h58l-26 -53q87 -19 87 -86z" />
    <glyph glyph-name="Scaron" unicode="&#x160;" horiz-adv-x="548" 
d="M114 931h60q56 -36 107 -92q62 62 109 92h62v-13q-100 -100 -125 -147h-90q-29 50 -123 147v13zM356 2.5q21 1.5 37 4.5q95 15 146 77q48 57 48 125q0 73 -43 120q-35 40 -98 57q-26 7 -52.5 10t-51.5 4.5t-35 2.5q-43 2 -73 13q-26 9 -40.5 29t-14.5 46q0 15 4 27
q16 46 71 66q33 13 76 13q12 0 36 -2q40 -3 70 -23q12 -7 23 -19t21 -24q15 -20 32 -20q29 0 49 32q6 12 6 23q0 13 -8 27q-27 48 -84 77q-58 31 -139 31q-54 0 -98 -12q-67 -18 -107 -62q-55 -60 -55 -132q0 -82 52 -131q30 -29 76 -45q28 -9 58.5 -12.5t70.5 -5.5
q48 -4 73 -8q38 -7 59 -30q19 -22 19 -51q0 -14 -4 -26q-14 -46 -65 -66q-41 -16 -85 -16q-31 0 -69 10q-50 13 -72 51q-6 10 -11.5 24.5t-7.5 20.5q-8 23 -20.5 32.5t-33.5 9.5q-31 0 -42 -25q-4 -8 -4 -20q0 -9 1 -13q10 -72 64 -124q29 -29 67 -44q53 -22 125 -24
q8 1 29 2.5z" />
    <glyph glyph-name="scaron" unicode="&#x161;" horiz-adv-x="479" 
d="M83 766h60q56 -36 107 -92q62 62 109 92h62v-13q-100 -100 -125 -147h-90q-29 50 -123 147v13zM356 2.5q21 1.5 37 4.5q95 15 146 77q48 57 48 125q0 73 -43 120q-35 40 -98 57q-26 7 -52.5 10t-51.5 4.5t-35 2.5q-43 2 -73 13q-26 9 -40.5 29t-14.5 46q0 15 4 27
q16 46 71 66q33 13 76 13q12 0 36 -2q40 -3 70 -23q12 -7 23 -19t21 -24q15 -20 32 -20q29 0 49 32q6 12 6 23q0 13 -8 27q-27 48 -84 77q-58 31 -139 31q-54 0 -98 -12q-67 -18 -107 -62q-55 -60 -55 -132q0 -82 52 -131q30 -29 76 -45q28 -9 58.5 -12.5t70.5 -5.5
q48 -4 73 -8q38 -7 59 -30q19 -22 19 -51q0 -14 -4 -26q-14 -46 -65 -66q-41 -16 -85 -16q-31 0 -69 10q-50 13 -72 51q-6 10 -11.5 24.5t-7.5 20.5q-8 23 -20.5 32.5t-33.5 9.5q-31 0 -42 -25q-4 -8 -4 -20q0 -9 1 -13q10 -72 64 -124q29 -29 67 -44q53 -22 125 -24
q8 1 29 2.5z" />
    <glyph glyph-name="uni0162" unicode="&#x162;" horiz-adv-x="556" 
d="M332 538q0 32 5.5 44t18.5 12l81 -1q33 0 50.5 4.5t26 17.5t8.5 41q0 13 -7.5 22.5t-20.5 13.5q-17 6 -34 6h-338q-23 0 -34 -1q-22 -2 -35 -12.5t-13 -30.5q0 -37 10 -48t42 -13h19h55h35q11 0 17.5 -7t8.5 -18q2 -14 2 -20l1 -202v-239q0 -38 1 -57q1 -23 14 -36.5
t38 -13.5q16 0 28.5 8t16.5 23q4 16 4 36v80v160v231zM371 -139q0 -48 -37 -74.5t-111 -26.5q-32 0 -50 5v55q18 -5 53 -5q37 0 55.5 9.5t18.5 34.5q0 43 -91 55l43 86h58l-26 -53q87 -19 87 -86z" />
    <glyph glyph-name="uni0163" unicode="&#x163;" horiz-adv-x="360" 
d="M332 538q0 32 5.5 44t18.5 12l81 -1q33 0 50.5 4.5t26 17.5t8.5 41q0 13 -7.5 22.5t-20.5 13.5q-17 6 -34 6h-338q-23 0 -34 -1q-22 -2 -35 -12.5t-13 -30.5q0 -37 10 -48t42 -13h19h55h35q11 0 17.5 -7t8.5 -18q2 -14 2 -20l1 -202v-239q0 -38 1 -57q1 -23 14 -36.5
t38 -13.5q16 0 28.5 8t16.5 23q4 16 4 36v80v160v231zM312 -139q0 -48 -37 -74.5t-111 -26.5q-32 0 -50 5v55q18 -5 53 -5q37 0 55.5 9.5t18.5 34.5q0 43 -91 55l43 86h58l-26 -53q87 -19 87 -86z" />
    <glyph glyph-name="Tcaron" unicode="&#x164;" horiz-adv-x="556" 
d="M110 931h60q56 -36 107 -92q62 62 109 92h62v-13q-100 -100 -125 -147h-90q-29 50 -123 147v13zM332 538q0 32 5.5 44t18.5 12l81 -1q33 0 50.5 4.5t26 17.5t8.5 41q0 13 -7.5 22.5t-20.5 13.5q-17 6 -34 6h-338q-23 0 -34 -1q-22 -2 -35 -12.5t-13 -30.5q0 -37 10 -48
t42 -13h19h55h35q11 0 17.5 -7t8.5 -18q2 -14 2 -20l1 -202v-239q0 -38 1 -57q1 -23 14 -36.5t38 -13.5q16 0 28.5 8t16.5 23q4 16 4 36v80v160v231z" />
    <glyph glyph-name="tcaron" unicode="&#x165;" horiz-adv-x="360" 
d="M246 612q11 32 20.5 77.5t12.5 70.5h87v-9q-6 -26 -27 -71t-45 -80h-48v12zM332 538q0 32 5.5 44t18.5 12l81 -1q33 0 50.5 4.5t26 17.5t8.5 41q0 13 -7.5 22.5t-20.5 13.5q-17 6 -34 6h-338q-23 0 -34 -1q-22 -2 -35 -12.5t-13 -30.5q0 -37 10 -48t42 -13h19h55h35
q11 0 17.5 -7t8.5 -18q2 -14 2 -20l1 -202v-239q0 -38 1 -57q1 -23 14 -36.5t38 -13.5q16 0 28.5 8t16.5 23q4 16 4 36v80v160v231z" />
    <glyph glyph-name="Tbar" unicode="&#x166;" horiz-adv-x="556" 
d="M232 399v235h-222v80h535v-80h-223v-235h148v-74h-148v-325h-90v325h-149v74h149z" />
    <glyph glyph-name="tbar" unicode="&#x167;" horiz-adv-x="360" 
d="M266 62q42 0 73 11v-67q-13 -6 -39 -11t-54 -5q-154 0 -154 171v119h-68v66h68v122h-76v42l77 35l35 114h52v-123h155v-68h-155v-122h146v-66h-146v-114q0 -52 21 -78t65 -26z" />
    <glyph glyph-name="Utilde" unicode="&#x168;" horiz-adv-x="730" 
d="M440 772q-21 0 -41 9t-39.5 19.5t-37 19.5t-34.5 9q-24 0 -36 -14.5t-19 -43.5h-51q6 60 34 94t76 34q22 0 42.5 -9t39.5 -19.5t37 -19.5t33 -9q23 0 35.5 14.5t19.5 43.5h50q-6 -58 -34 -93t-75 -35zM545 620q0 22 -1 33q-3 33 -27 43q-12 5 -22 5q-13 0 -24 -5t-17 -14
q-11 -15 -11 -42l-1 -381q-2 -45 -15 -80q-20 -55 -72 -69q-22 -7 -48 -7q-19 0 -42 5q-41 10 -65 46q-15 23 -22 63q-6 36 -6 108v296q0 22 -1 32q-1 22 -14.5 35t-35.5 13q-29 0 -43 -23q-8 -16 -8 -44v-324q0 -27 4 -81q5 -68 32 -116q38 -72 113 -99q45 -14 88 -14
q35 0 64 7q108 24 149 128q23 61 25 145v185v155z" />
    <glyph glyph-name="utilde" unicode="&#x169;" horiz-adv-x="618" 
d="M383 607q-21 0 -41 9t-39.5 19.5t-37 19.5t-34.5 9q-24 0 -36 -14.5t-19 -43.5h-51q6 60 34 94t76 34q22 0 42.5 -9t39.5 -19.5t37 -19.5t33 -9q23 0 35.5 14.5t19.5 43.5h50q-6 -58 -34 -93t-75 -35zM545 620q0 22 -1 33q-3 33 -27 43q-12 5 -22 5q-13 0 -24 -5t-17 -14
q-11 -15 -11 -42l-1 -381q-2 -45 -15 -80q-20 -55 -72 -69q-22 -7 -48 -7q-19 0 -42 5q-41 10 -65 46q-15 23 -22 63q-6 36 -6 108v296q0 22 -1 32q-1 22 -14.5 35t-35.5 13q-29 0 -43 -23q-8 -16 -8 -44v-324q2 -54 4 -81q5 -68 32 -116q38 -72 113 -99q45 -14 88 -14
q35 0 64 7q108 24 149 128q23 61 25 145v175v165z" />
    <glyph glyph-name="Umacron" unicode="&#x16a;" horiz-adv-x="730" 
d="M217 842h297v-71h-297v71zM545 620q0 22 -1 33q-3 33 -27 43q-12 5 -22 5q-13 0 -24 -5t-17 -14q-11 -15 -11 -42l-1 -381q-2 -45 -15 -80q-20 -55 -72 -69q-22 -7 -48 -7q-19 0 -42 5q-41 10 -65 46q-15 23 -22 63q-6 36 -6 108v296q0 22 -1 32q-1 22 -14.5 35t-35.5 13
q-29 0 -43 -23q-8 -16 -8 -44v-324q0 -27 4 -81q5 -68 32 -116q38 -72 113 -99q45 -14 88 -14q35 0 64 7q108 24 149 128q23 61 25 145v185v155z" />
    <glyph glyph-name="umacron" unicode="&#x16b;" horiz-adv-x="618" 
d="M159 677h297v-71h-297v71zM545 620q0 22 -1 33q-3 33 -27 43q-12 5 -22 5q-13 0 -24 -5t-17 -14q-11 -15 -11 -42l-1 -381q-2 -45 -15 -80q-20 -55 -72 -69q-22 -7 -48 -7q-19 0 -42 5q-41 10 -65 46q-15 23 -22 63q-6 36 -6 108v296q0 22 -1 32q-1 22 -14.5 35t-35.5 13
q-29 0 -43 -23q-8 -16 -8 -44v-324q2 -54 4 -81q5 -68 32 -116q38 -72 113 -99q45 -14 88 -14q35 0 64 7q108 24 149 128q23 61 25 145v175v165z" />
    <glyph glyph-name="Ubreve" unicode="&#x16c;" horiz-adv-x="730" 
d="M361 771q-69 0 -108.5 33.5t-44.5 100.5h54q4 -35 24.5 -49t76.5 -14q49 0 73 15.5t28 47.5h55q-6 -64 -48 -99t-110 -35zM545 620q0 22 -1 33q-3 33 -27 43q-12 5 -22 5q-13 0 -24 -5t-17 -14q-11 -15 -11 -42l-1 -381q-2 -45 -15 -80q-20 -55 -72 -69q-22 -7 -48 -7
q-19 0 -42 5q-41 10 -65 46q-15 23 -22 63q-6 36 -6 108v296q0 22 -1 32q-1 22 -14.5 35t-35.5 13q-29 0 -43 -23q-8 -16 -8 -44v-324q0 -27 4 -81q5 -68 32 -116q38 -72 113 -99q45 -14 88 -14q35 0 64 7q108 24 149 128q23 61 25 145v185v155z" />
    <glyph glyph-name="ubreve" unicode="&#x16d;" horiz-adv-x="618" 
d="M303 606q-69 0 -108.5 33.5t-44.5 100.5h54q4 -35 24.5 -49t76.5 -14q49 0 73 15.5t28 47.5h55q-6 -64 -48 -99t-110 -35zM545 620q0 22 -1 33q-3 33 -27 43q-12 5 -22 5q-13 0 -24 -5t-17 -14q-11 -15 -11 -42l-1 -381q-2 -45 -15 -80q-20 -55 -72 -69q-22 -7 -48 -7
q-19 0 -42 5q-41 10 -65 46q-15 23 -22 63q-6 36 -6 108v296q0 22 -1 32q-1 22 -14.5 35t-35.5 13q-29 0 -43 -23q-8 -16 -8 -44v-324q2 -54 4 -81q5 -68 32 -116q38 -72 113 -99q45 -14 88 -14q35 0 64 7q108 24 149 128q23 61 25 145v175v165z" />
    <glyph glyph-name="Uring" unicode="&#x16e;" horiz-adv-x="730" 
d="M475 878q0 -49 -30.5 -78t-80.5 -29t-79.5 28.5t-29.5 77.5q0 48 29.5 76.5t79.5 28.5q49 0 80 -29t31 -75zM420 877q0 26 -16 41t-40 15t-40 -15t-16 -41t14.5 -41t41.5 -15q25 0 40.5 15t15.5 41zM545 620q0 22 -1 33q-3 33 -27 43q-12 5 -22 5q-13 0 -24 -5t-17 -14
q-11 -15 -11 -42l-1 -381q-2 -45 -15 -80q-20 -55 -72 -69q-22 -7 -48 -7q-19 0 -42 5q-41 10 -65 46q-15 23 -22 63q-6 36 -6 108v296q0 22 -1 32q-1 22 -14.5 35t-35.5 13q-29 0 -43 -23q-8 -16 -8 -44v-324q0 -27 4 -81q5 -68 32 -116q38 -72 113 -99q45 -14 88 -14
q35 0 64 7q108 24 149 128q23 61 25 145v185v155z" />
    <glyph glyph-name="uring" unicode="&#x16f;" horiz-adv-x="618" 
d="M417 713q0 -49 -30.5 -78t-80.5 -29t-79.5 28.5t-29.5 77.5q0 48 29.5 76.5t79.5 28.5q49 0 80 -29t31 -75zM362 712q0 26 -16 41t-40 15t-40 -15t-16 -41t14.5 -41t41.5 -15q25 0 40.5 15t15.5 41zM545 620q0 22 -1 33q-3 33 -27 43q-12 5 -22 5q-13 0 -24 -5t-17 -14
q-11 -15 -11 -42l-1 -381q-2 -45 -15 -80q-20 -55 -72 -69q-22 -7 -48 -7q-19 0 -42 5q-41 10 -65 46q-15 23 -22 63q-6 36 -6 108v296q0 22 -1 32q-1 22 -14.5 35t-35.5 13q-29 0 -43 -23q-8 -16 -8 -44v-324q2 -54 4 -81q5 -68 32 -116q38 -72 113 -99q45 -14 88 -14
q35 0 64 7q108 24 149 128q23 61 25 145v175v165z" />
    <glyph glyph-name="Uhungarumlaut" unicode="&#x170;" horiz-adv-x="730" 
d="M221 783q17 22 42.5 65.5t44.5 82.5h96v-10q-16 -27 -58.5 -75t-74.5 -75h-50v12zM397 783q23 32 49 76.5t38 71.5h96v-10q-16 -27 -58.5 -75t-74.5 -75h-50v12zM545 620q0 22 -1 33q-3 33 -27 43q-12 5 -22 5q-13 0 -24 -5t-17 -14q-11 -15 -11 -42l-1 -381
q-2 -45 -15 -80q-20 -55 -72 -69q-22 -7 -48 -7q-19 0 -42 5q-41 10 -65 46q-15 23 -22 63q-6 36 -6 108v296q0 22 -1 32q-1 22 -14.5 35t-35.5 13q-29 0 -43 -23q-8 -16 -8 -44v-324q0 -27 4 -81q5 -68 32 -116q38 -72 113 -99q45 -14 88 -14q35 0 64 7q108 24 149 128
q23 61 25 145v185v155z" />
    <glyph glyph-name="uhungarumlaut" unicode="&#x171;" horiz-adv-x="618" 
d="M164 618q17 22 42.5 65.5t44.5 82.5h96v-10q-16 -27 -58.5 -75t-74.5 -75h-50v12zM340 618q23 32 49 76.5t38 71.5h96v-10q-16 -27 -58.5 -75t-74.5 -75h-50v12zM545 620q0 22 -1 33q-3 33 -27 43q-12 5 -22 5q-13 0 -24 -5t-17 -14q-11 -15 -11 -42l-1 -381
q-2 -45 -15 -80q-20 -55 -72 -69q-22 -7 -48 -7q-19 0 -42 5q-41 10 -65 46q-15 23 -22 63q-6 36 -6 108v296q0 22 -1 32q-1 22 -14.5 35t-35.5 13q-29 0 -43 -23q-8 -16 -8 -44v-324q2 -54 4 -81q5 -68 32 -116q38 -72 113 -99q45 -14 88 -14q35 0 64 7q108 24 149 128
q23 61 25 145v175v165z" />
    <glyph glyph-name="Uogonek" unicode="&#x172;" horiz-adv-x="730" 
d="M356 -116q0 -22 12 -33.5t33 -11.5t48 6v-56q-34 -9 -62 -9q-103 0 -103 94q0 68 78 126h62q-34 -32 -51 -58.5t-17 -57.5zM545 620q0 22 -1 33q-3 33 -27 43q-12 5 -22 5q-13 0 -24 -5t-17 -14q-11 -15 -11 -42l-1 -381q-2 -45 -15 -80q-20 -55 -72 -69q-22 -7 -48 -7
q-19 0 -42 5q-41 10 -65 46q-15 23 -22 63q-6 36 -6 108v296q0 22 -1 32q-1 22 -14.5 35t-35.5 13q-29 0 -43 -23q-8 -16 -8 -44v-324q0 -27 4 -81q5 -68 32 -116q38 -72 113 -99q45 -14 88 -14q35 0 64 7q108 24 149 128q23 61 25 145v185v155z" />
    <glyph glyph-name="uogonek" unicode="&#x173;" horiz-adv-x="618" 
d="M458 -116q0 -22 12 -33.5t33 -11.5t48 6v-56q-34 -9 -62 -9q-103 0 -103 94q0 68 78 126h62q-34 -32 -51 -58.5t-17 -57.5zM545 620q0 22 -1 33q-3 33 -27 43q-12 5 -22 5q-13 0 -24 -5t-17 -14q-11 -15 -11 -42l-1 -381q-2 -45 -15 -80q-20 -55 -72 -69q-22 -7 -48 -7
q-19 0 -42 5q-41 10 -65 46q-15 23 -22 63q-6 36 -6 108v296q0 22 -1 32q-1 22 -14.5 35t-35.5 13q-29 0 -43 -23q-8 -16 -8 -44v-324q2 -54 4 -81q5 -68 32 -116q38 -72 113 -99q45 -14 88 -14q35 0 64 7q108 24 149 128q23 61 25 145v175v165z" />
    <glyph glyph-name="Wcircumflex" unicode="&#x174;" horiz-adv-x="930" 
d="M294 782q61 65 86 96.5t37 52.5h90q25 -49 125 -149v-11h-62q-44 26 -109 90q-64 -62 -107 -90h-60v11zM334 290q-5 -11 -13 -35q-6 -16 -15 -30q-3 -6 -9 -6t-9 5q-8 14 -11 22q-19 58 -54 171q-54 174 -73 231q-9 27 -21 37q-19 16 -41 16q-11 0 -26 -5q-20 -8 -22 -29
q0 -15 4 -27q7 -24 23 -72l13 -41q13 -41 68 -216q36 -120 83 -261q9 -27 28 -39q19 -11 38 -11q21 0 39 12.5t25 33.5q10 26 16.5 45.5t10.5 32.5l10 31q10 24 17 36q3 6 9 6t10 -6l3 -5q10 -24 14 -36l20 -57q3 -11 17 -50q10 -29 35 -37q12 -4 26 -4q9 0 14 1q23 2 37 17
q13 14 20 41l56 168q39 116 62 198q14 53 60 192q6 18 9 36q1 3 1 9q0 21 -20 31q-10 5 -26 5q-13 0 -24 -4q-26 -8 -37 -40q-10 -28 -64 -202l-60 -191q-3 -10 -9 -22t-8 -17t-8 -5t-9 4q-7 10 -11 20q-4 12 -8 21.5t-7 16.5q-11 26 -17 44t-9 38q-6 43 -24.5 66t-42.5 23
q-22 0 -40.5 -21t-24.5 -58q-7 -36 -25 -83z" />
    <glyph glyph-name="wcircumflex" unicode="&#x175;" horiz-adv-x="786" 
d="M224 617q61 65 86 96.5t37 52.5h90q25 -49 125 -149v-11h-62q-44 26 -109 90q-64 -62 -107 -90h-60v11zM334 290q-5 -11 -13 -35q-6 -16 -15 -30q-3 -6 -9 -6t-9 5q-8 14 -11 22q-19 58 -54 171q-54 174 -73 231q-9 27 -21 37q-19 16 -41 16q-11 0 -26 -5q-20 -8 -22 -29
q0 -15 4 -27q7 -24 23 -72l13 -41q13 -41 68 -216q36 -120 83 -261q9 -27 28 -39q19 -11 38 -11q21 0 39 12.5t25 33.5q10 26 16.5 45.5t10.5 32.5l10 31q10 24 17 36q3 6 9 6t10 -6l3 -5q10 -24 14 -36l20 -57q3 -11 17 -50q10 -29 35 -37q12 -4 26 -4q9 0 14 1q23 2 37 17
q13 14 20 41l56 168q39 116 62 198q14 53 60 192q6 18 9 36q1 3 1 9q0 21 -20 31q-10 5 -26 5q-13 0 -24 -4q-26 -8 -37 -40q-10 -28 -64 -202l-60 -191q-3 -10 -9 -22t-8 -17t-8 -5t-9 4q-7 10 -11 20q-4 12 -8 21.5t-7 16.5q-11 26 -17 44t-9 38q-6 43 -24.5 66t-42.5 23
q-22 0 -40.5 -21t-24.5 -58q-7 -36 -25 -83z" />
    <glyph glyph-name="Ycircumflex" unicode="&#x176;" horiz-adv-x="565" 
d="M114 782q61 65 86 96.5t37 52.5h90q25 -49 125 -149v-11h-62q-44 26 -109 90q-64 -62 -107 -90h-60v11zM235 54q0 -22 10 -35q14 -19 46 -19q36 2 45 31q5 20 5 37v238q0 29 16 58l60 98l78 129q22 35 34 60q4 8 4 17q0 24 -28 30q-11 2 -35 2q-33 -3 -56 -38l-74 -121
l-36 -55q-7 -9 -16 -9q-8 0 -15 6q-8 8 -10 13l-32 52l-51 82q-23 37 -32 48q-19 23 -56 23q-15 0 -30 -5q-11 -5 -16.5 -14t-2.5 -20q4 -17 14 -35l152 -249q25 -39 25 -73v-188q0 -42 1 -63z" />
    <glyph glyph-name="ycircumflex" unicode="&#x177;" horiz-adv-x="509" 
d="M89 617q61 65 86 96.5t37 52.5h90q25 -49 125 -149v-11h-62q-44 26 -109 90q-64 -62 -107 -90h-60v11zM235 54q0 -22 10 -35q14 -19 46 -19q36 2 45 31q5 20 5 37v238q0 29 16 58l60 98l78 129q22 35 34 60q4 8 4 17q0 24 -28 30q-11 2 -35 2q-33 -3 -56 -38l-74 -121
l-36 -55q-7 -9 -16 -9q-8 0 -15 6q-8 8 -10 13l-32 52l-51 82q-23 37 -32 48q-19 23 -56 23q-15 0 -30 -5q-11 -5 -16.5 -14t-2.5 -20q4 -17 14 -35l152 -249q25 -39 25 -73v-188q0 -42 1 -63z" />
    <glyph glyph-name="Ydieresis" unicode="&#x178;" horiz-adv-x="565" 
d="M235 54q0 -22 10 -35q14 -19 46 -19q36 2 45 31q5 20 5 37v238q0 29 16 58l60 98l78 129q22 35 34 60q4 8 4 17q0 24 -28 30q-11 2 -35 2q-33 -3 -56 -38l-74 -121l-36 -55q-7 -9 -16 -9q-8 0 -15 6q-8 8 -10 13l-32 52l-51 82q-23 37 -32 48q-19 23 -56 23q-15 0 -30 -5
q-11 -5 -16.5 -14t-2.5 -20q4 -17 14 -35l152 -249q25 -39 25 -73v-188q0 -42 1 -63zM144 846q0 26 13.5 37.5t33.5 11.5q19 0 33 -11.5t14 -37.5t-14 -38t-33 -12q-20 0 -33.5 12t-13.5 38zM332 846q0 26 13.5 37.5t32.5 11.5t33 -11.5t14 -37.5t-14 -38t-33 -12t-32.5 12
t-13.5 38z" />
    <glyph glyph-name="Zacute" unicode="&#x179;" horiz-adv-x="571" 
d="M90 689q-18 -13 -18 -39q0 -40 30 -48q20 -5 38 -5h224q16 0 28 -4q7 -1 10 -6.5t1 -12.5q-4 -13 -9 -21l-103 -145q-34 -50 -104 -148l-96 -137q-21 -31 -21 -63q0 -9 1 -14q3 -33 31 -41q20 -5 38 -5h175h107q7 1 21 1h20h42q44 3 48 43q1 4 1 11q0 24 -18 34t-45 12
t-84 2h-145q-8 0 -24 2q-16 3 -16 16q0 3 2 9q1 4 5 12l54 77l139 197l105 149q32 44 28 84q-2 33 -26 43q-15 7 -36 7h-108h-260q-21 0 -35 -10zM221 783q19 23 47.5 66.5t47.5 81.5h106v-10q-21 -31 -66.5 -78.5t-76.5 -71.5h-58v12z" />
    <glyph glyph-name="zacute" unicode="&#x17a;" horiz-adv-x="470" 
d="M90 689q-18 -13 -18 -39q0 -40 30 -48q20 -5 38 -5h224q16 0 28 -4q7 -1 10 -6.5t1 -12.5q-4 -13 -9 -21l-103 -145q-34 -50 -104 -148l-96 -137q-21 -31 -21 -63q0 -9 1 -14q3 -33 31 -41q20 -5 38 -5h175h107q7 1 21 1h20h42q44 3 48 43q1 4 1 11q0 24 -18 34t-45 12
t-84 2h-145q-8 0 -24 2q-16 3 -16 16q0 3 2 9q1 4 5 12l54 77l139 197l105 149q32 44 28 84q-2 33 -26 43q-15 7 -36 7h-108h-260q-21 0 -35 -10zM181 618q19 23 47.5 66.5t47.5 81.5h106v-10q-21 -31 -66.5 -78.5t-76.5 -71.5h-58v12z" />
    <glyph glyph-name="Zdotaccent" unicode="&#x17b;" horiz-adv-x="571" 
d="M233 846q0 29 15 42.5t37 13.5q21 0 36 -13.5t15 -42.5t-15.5 -42.5t-35.5 -13.5q-22 0 -37 13.5t-15 42.5zM90 689q-18 -13 -18 -39q0 -40 30 -48q20 -5 38 -5h224q16 0 28 -4q7 -1 10 -6.5t1 -12.5q-4 -13 -9 -21l-103 -145q-34 -50 -104 -148l-96 -137
q-21 -31 -21 -63q0 -9 1 -14q3 -33 31 -41q20 -5 38 -5h175h107q7 1 21 1h20h42q44 3 48 43q1 4 1 11q0 24 -18 34t-45 12t-84 2h-145q-8 0 -24 2q-16 3 -16 16q0 3 2 9q1 4 5 12l54 77l139 197l105 149q32 44 28 84q-2 33 -26 43q-15 7 -36 7h-108h-260q-21 0 -35 -10z" />
    <glyph glyph-name="zdotaccent" unicode="&#x17c;" horiz-adv-x="470" 
d="M185 681q0 29 15 42.5t37 13.5q21 0 36 -13.5t15 -42.5t-15.5 -42.5t-35.5 -13.5q-22 0 -37 13.5t-15 42.5zM90 689q-18 -13 -18 -39q0 -40 30 -48q20 -5 38 -5h224q16 0 28 -4q7 -1 10 -6.5t1 -12.5q-4 -13 -9 -21l-103 -145q-34 -50 -104 -148l-96 -137
q-21 -31 -21 -63q0 -9 1 -14q3 -33 31 -41q20 -5 38 -5h175h107q7 1 21 1h20h42q44 3 48 43q1 4 1 11q0 24 -18 34t-45 12t-84 2h-145q-8 0 -24 2q-16 3 -16 16q0 3 2 9q1 4 5 12l54 77l139 197l105 149q32 44 28 84q-2 33 -26 43q-15 7 -36 7h-108h-260q-21 0 -35 -10z" />
    <glyph glyph-name="Zcaron" unicode="&#x17d;" horiz-adv-x="571" 
d="M119 931h60q56 -36 107 -92q62 62 109 92h62v-13q-100 -100 -125 -147h-90q-29 50 -123 147v13zM90 689q-18 -13 -18 -39q0 -40 30 -48q20 -5 38 -5h224q16 0 28 -4q7 -1 10 -6.5t1 -12.5q-4 -13 -9 -21l-103 -145q-34 -50 -104 -148l-96 -137q-21 -31 -21 -63
q0 -9 1 -14q3 -33 31 -41q20 -5 38 -5h175h107q7 1 21 1h20h42q44 3 48 43q1 4 1 11q0 24 -18 34t-45 12t-84 2h-145q-8 0 -24 2q-16 3 -16 16q0 3 2 9q1 4 5 12l54 77l139 197l105 149q32 44 28 84q-2 33 -26 43q-15 7 -36 7h-108h-260q-21 0 -35 -10z" />
    <glyph glyph-name="zcaron" unicode="&#x17e;" horiz-adv-x="470" 
d="M68 766h60q56 -36 107 -92q62 62 109 92h62v-13q-100 -100 -125 -147h-90q-29 50 -123 147v13zM90 689q-18 -13 -18 -39q0 -40 30 -48q20 -5 38 -5h224q16 0 28 -4q7 -1 10 -6.5t1 -12.5q-4 -13 -9 -21l-103 -145q-34 -50 -104 -148l-96 -137q-21 -31 -21 -63q0 -9 1 -14
q3 -33 31 -41q20 -5 38 -5h175h107q7 1 21 1h20h42q44 3 48 43q1 4 1 11q0 24 -18 34t-45 12t-84 2h-145q-8 0 -24 2q-16 3 -16 16q0 3 2 9q1 4 5 12l54 77l139 197l105 149q32 44 28 84q-2 33 -26 43q-15 7 -36 7h-108h-260q-21 0 -35 -10z" />
    <glyph glyph-name="longs" unicode="&#x17f;" horiz-adv-x="326" 
d="M261 692q-46 0 -67 -28.5t-21 -86.5v-577h-88v577q0 188 177 188q49 0 100 -19l-23 -69q-44 15 -78 15z" />
    <glyph glyph-name="uni0180" unicode="&#x180;" horiz-adv-x="615" 
d="M339 545q106 0 163.5 -73t57.5 -204q0 -133 -58.5 -205.5t-162.5 -72.5q-54 0 -96.5 19.5t-69.5 58.5h-7q-15 -59 -18 -68h-63v605h-76v66h76v89h88v-89h213v-66h-213v-30q0 -55 -5 -110h5q54 80 166 80zM324 472q-81 0 -116 -46t-35 -155v-4q0 -110 36 -157t117 -47
q72 0 107.5 53t35.5 153q0 102 -35.5 152.5t-109.5 50.5z" />
    <glyph glyph-name="uni0181" unicode="&#x181;" horiz-adv-x="729" 
d="M151 637q-61 0 -61 -50q0 -30 10 -54h-79q-4 10 -7.5 26.5t-3.5 28.5q0 65 34.5 95.5t106.5 30.5h230q144 0 207.5 -43t63.5 -134q0 -63 -34.5 -104.5t-101.5 -53.5v-5q82 -14 121 -57t39 -114q0 -96 -66 -149.5t-182 -53.5h-251v637h-26zM267 410h132q84 0 122 27t38 90
q0 59 -41.5 84.5t-132.5 25.5h-118v-227zM267 335v-259h144q86 0 127.5 33.5t41.5 100.5q0 64 -44 94.5t-132 30.5h-137z" />
    <glyph glyph-name="uni0182" unicode="&#x182;" horiz-adv-x="615" 
d="M564 209q0 -105 -63.5 -157t-194.5 -52h-209v714h424v-79h-334v-223h106q137 0 204 -48.5t67 -154.5zM187 77h110q92 0 133 31t41 101q0 68 -43 96.5t-146 28.5h-95v-257z" />
    <glyph glyph-name="uni0183" unicode="&#x183;" horiz-adv-x="615" 
d="M339 545q106 0 163.5 -73t57.5 -204q0 -133 -58.5 -205.5t-162.5 -72.5q-54 0 -96.5 19.5t-69.5 58.5h-7q-15 -59 -18 -68h-63v760h421v-74h-333v-111q0 -55 -5 -110h5q54 80 166 80zM324 472q-81 0 -116 -46t-35 -155v-4q0 -110 36 -157t117 -47q72 0 107.5 53t35.5 153
q0 102 -35.5 152.5t-109.5 50.5z" />
    <glyph glyph-name="uni0184" unicode="&#x184;" horiz-adv-x="634" 
d="M180 210q0 -77 37.5 -110t122.5 -33q80 0 115.5 35.5t35.5 102.5q0 69 -48 99t-140 30h-123v-124zM90 714h90v-302h134q129 0 199.5 -53t70.5 -154t-63.5 -158t-179.5 -57q-251 0 -251 220v504z" />
    <glyph glyph-name="uni0185" unicode="&#x185;" horiz-adv-x="611" 
d="M322 -10q-115 0 -177.5 72.5t-62.5 204.5v493h88v-185q0 -55 -5 -110h5q54 80 166 80q106 0 163.5 -73t57.5 -204q0 -134 -61 -206t-174 -72zM170 265q0 -96 40.5 -149t112.5 -53t107.5 53t35.5 153q0 102 -35.5 152.5t-109.5 50.5q-81 0 -116 -46t-35 -155v-6z" />
    <glyph glyph-name="uni0186" unicode="&#x186;" horiz-adv-x="631" 
d="M243 724q158 0 243 -96t85 -272q0 -110 -39.5 -192.5t-114.5 -128t-174 -45.5q-55 0 -98 6.5t-86 22.5v78q94 -28 170 -28q115 0 181 77t66 211q0 137 -63.5 212.5t-183.5 75.5q-77 0 -162 -39l-36 76q84 42 212 42z" />
    <glyph glyph-name="uni0187" unicode="&#x187;" horiz-adv-x="631" 
d="M403 645q-115 0 -181 -77t-66 -211q0 -138 64 -213t182 -75q76 0 171 28v-78q-45 -17 -87 -23t-97 -6q-158 0 -243 96t-85 272q0 110 41 193t118.5 128t183.5 45q61 0 117 -14v14q0 64 27 99t88 35q30 0 60 -13v-72q-24 10 -52 10q-47 0 -47 -48v-51l-36 -78
q-33 15 -71.5 27t-86.5 12z" />
    <glyph glyph-name="uni0188" unicode="&#x188;" horiz-adv-x="502" 
d="M300 -10q-116 0 -180.5 71t-64.5 204q0 135 65.5 208t185.5 73q27 0 65 -6v91q0 64 26.5 99t88.5 35q29 0 60 -13v-73q-23 10 -52 10q-47 0 -47 -48v-124l-27 -73q-68 25 -116 25q-81 0 -119.5 -51t-38.5 -152q0 -97 38.5 -148.5t114.5 -51.5q71 0 139 31v-78
q-55 -29 -138 -29z" />
    <glyph glyph-name="uni0189" unicode="&#x189;" horiz-adv-x="729" 
d="M669 364q0 -175 -96 -269.5t-278 -94.5h-191v314h-74v78h74v322h213q167 0 259.5 -92t92.5 -258zM574 361q0 137 -68 206.5t-202 69.5h-110v-245h178v-78h-178v-237h90q290 0 290 284z" />
    <glyph glyph-name="uni018A" unicode="&#x18a;" horiz-adv-x="810" 
d="M654 361q0 136 -67 206t-203 70h-117v-560h97q290 0 290 284zM397 714q168 0 260 -92.5t92 -257.5q0 -177 -96.5 -270.5t-276.5 -93.5h-199v637h-26q-61 0 -61 -50q0 -30 10 -54h-79q-4 10 -7.5 26.5t-3.5 28.5q0 65 34.5 95.5t106.5 30.5h246z" />
    <glyph glyph-name="uni018B" unicode="&#x18b;" horiz-adv-x="615" 
d="M428 335h-82q-106 0 -154 -32t-48 -101q0 -63 44 -94t139 -31h101v258zM518 714v-714h-199q-268 0 -268 198q0 103 73.5 158.5t211.5 55.5h92v223h-334v79h424z" />
    <glyph glyph-name="uni018C" unicode="&#x18c;" horiz-adv-x="615" 
d="M289 63q80 0 117 43.5t37 143.5v16q0 112 -37.5 159.5t-117.5 47.5q-68 0 -105 -54t-37 -154t37 -151t106 -51zM530 0h-71l-13 72h-4q-56 -82 -167 -82q-104 0 -162 72.5t-58 204.5q0 131 58 205t163 74q108 0 166 -79h6q-1 10 -3.5 39.5t-2.5 39.5v140h-333v74h421v-760
z" />
    <glyph glyph-name="uni018D" unicode="&#x18d;" horiz-adv-x="604" 
d="M341 294q66 -38 95 -77t29 -87q0 -64 -48 -102t-132 -38q-51 0 -97 11.5t-109 42.5l38 69q37 -21 79 -36t93 -15q40 0 63.5 18.5t23.5 50.5q0 34 -26.5 60t-107.5 70q-104 57 -146 117t-42 136q0 115 66 180.5t184 65.5q112 0 179 -60.5t67 -163.5q0 -87 -54 -149.5
t-155 -92.5zM145 515q0 -62 30 -105.5t96 -77.5q92 22 139.5 74t47.5 131q0 67 -41.5 108.5t-112.5 41.5q-77 0 -118 -44.5t-41 -127.5z" />
    <glyph glyph-name="uni018E" unicode="&#x18e;" horiz-adv-x="556" 
d="M60 79h309v255h-291v78h291v223h-309v79h399v-714h-399v79z" />
    <glyph glyph-name="uni018F" unicode="&#x18f;" horiz-adv-x="738" 
d="M332 646q-110 0 -228 -41v82q61 21 114 29.5t116 8.5q162 0 252.5 -97.5t90.5 -271.5q0 -171 -85 -268.5t-237 -97.5q-147 0 -221.5 92t-74.5 275v34h523q-8 126 -71 190.5t-179 64.5zM355 69q100 0 159.5 63.5t67.5 179.5h-427q0 -125 49 -184t151 -59z" />
    <glyph glyph-name="uni0190" unicode="&#x190;" horiz-adv-x="587" 
d="M87 547q0 82 60.5 129.5t166.5 47.5q64 0 124 -18.5t109 -55.5l-43 -61q-52 36 -94 48.5t-94 12.5q-63 0 -99.5 -30.5t-36.5 -81.5q0 -60 48 -95.5t145 -35.5h97v-75h-102q-110 0 -165 -33t-55 -97q0 -67 48.5 -102.5t139.5 -35.5q105 0 214 52v-82q-90 -44 -219 -44
q-135 0 -206 52t-71 153q0 76 46.5 121t137.5 57v4q-72 12 -111.5 56.5t-39.5 113.5z" />
    <glyph glyph-name="uni0191" unicode="&#x191;" horiz-adv-x="519" 
d="M45 -240q-32 0 -56 13v76q21 -10 45 -10q35 0 49 20t14 62v793h399v-79h-309v-253h290v-79h-290v-386q0 -157 -142 -157z" />
    <glyph glyph-name="florin" unicode="&#x192;" horiz-adv-x="571" 
d="M161 -240q-36 0 -68 9v73q34 -9 63 -9q45 0 63.5 23.5t18.5 79.5v470h-105v41l105 30v65q0 94 39.5 138t129.5 44q45 0 103 -21l-22 -68q-50 16 -78 16q-46 0 -65 -24.5t-19 -83.5v-69h135v-68h-133v-470q0 -91 -40 -133.5t-127 -42.5z" />
    <glyph glyph-name="uni0193" unicode="&#x193;" horiz-adv-x="728" 
d="M407 377h247v-350q-57 -18 -115.5 -27.5t-135.5 -9.5q-163 0 -252.5 97t-89.5 270q0 112 44.5 195.5t128 127.5t197.5 44q71 0 137 -17v17q0 64 27 99t88 35q29 0 60 -13v-72q-24 10 -52 10q-47 0 -47 -48v-53l-34 -78q-94 41 -184 41q-127 0 -199 -77t-72 -211
q0 -142 68.5 -215.5t200.5 -73.5q72 0 140 17v212h-157v80z" />
    <glyph glyph-name="uni0194" unicode="&#x194;" horiz-adv-x="569" 
d="M334 108q33 -65 50 -121t17 -94q0 -59 -32 -96t-84 -37q-54 0 -85 37.5t-31 95.5q0 78 67 214l-236 607h94q89 -237 136.5 -362t54.5 -167q10 51 50 158l140 371h95zM319 -105q0 26 -8.5 62t-25.5 68q-19 -38 -26.5 -72t-7.5 -56q0 -31 9.5 -45t24.5 -14q34 0 34 57z" />
    <glyph glyph-name="uni0195" unicode="&#x195;" horiz-adv-x="934" 
d="M639 63q67 0 96.5 36t29.5 113v324h88v-327q0 -114 -51 -166.5t-163 -52.5q-110 0 -162 48.5t-52 147.5v157q0 65 -26 97t-83 32q-74 0 -108.5 -45.5t-34.5 -149.5v-277h-88v760h88v-223q0 -44 -5 -75h6q24 42 66 62.5t90 20.5q91 0 137 -46.5t46 -149.5v-157
q0 -65 30.5 -97t95.5 -32z" />
    <glyph glyph-name="uni0196" unicode="&#x196;" horiz-adv-x="348" 
d="M179 714v-549q0 -48 18 -72t59 -24q21 0 44 3.5t38 7.5v-74q-13 -6 -40 -11t-55 -5q-80 0 -116.5 41.5t-36.5 125.5v557h89z" />
    <glyph glyph-name="uni0197" unicode="&#x197;" horiz-adv-x="338" 
d="M298 0h-258v52l84 19v256h-90v78h90v237l-84 20v52h258v-52l-84 -20v-237h90v-78h-90v-256l84 -19v-52z" />
    <glyph glyph-name="uni0198" unicode="&#x198;" horiz-adv-x="619" 
d="M327 405l292 -405h-106q-30 40 -121 172q-71 103 -126 170l-79 -77v-265h-90v714h90v-360q28 35 60 72q21 24 185 225q29 38 54.5 53.5t66.5 15.5q30 0 50 -8v-70q-21 3 -44 3q-17 0 -31.5 -10t-36.5 -36z" />
    <glyph glyph-name="uni0199" unicode="&#x199;" horiz-adv-x="534" 
d="M172 363l-4 -87h4l30 38l34 41l171 181h103l-217 -229l232 -307h-106l-186 250l-61 -53v-197h-87v625q0 140 121 140q33 0 65 -13v-73q-23 10 -52 10q-23 0 -35 -13t-12 -45v-268z" />
    <glyph glyph-name="uni019A" unicode="&#x19a;" horiz-adv-x="257" 
d="M173 420h70v-66h-70v-354h-88v354h-70v66h70v340h88v-340z" />
    <glyph glyph-name="uni019B" unicode="&#x19b;" horiz-adv-x="541" 
d="M-6 0l231 526l-23 64l-106 -32l-19 63l99 30q-13 22 -29.5 32t-45.5 10q-30 0 -56 -6v71q33 8 66 8q53 0 87 -21t59 -69l109 33l19 -63l-102 -32l179 -498q10 -28 21.5 -41t28.5 -13q12 0 30 5v-65q-24 -12 -57 -12q-36 0 -58 18t-38 63l-73 205q-42 119 -50 159h-4
q-16 -62 -55 -154l-122 -281h-91z" />
    <glyph glyph-name="uni019C" unicode="&#x19c;" horiz-adv-x="1029" 
d="M180 714v-506q0 -70 29 -105t92 -35q84 0 124.5 47t40.5 147v452h90v-506q0 -70 29 -105t94 -35q84 0 123.5 49.5t39.5 164.5v432h90v-714h-71l-15 82h-5q-25 -42 -74 -67t-107 -25q-68 0 -110.5 24.5t-64.5 75.5h-5q-28 -48 -79.5 -74t-113.5 -26q-103 0 -150 53
t-47 165v506h90z" />
    <glyph glyph-name="uni019D" unicode="&#x19d;" horiz-adv-x="759" 
d="M97 714h104l22 -35l235 -362l124 -194h4q-1 12 -4 84t-3 104v403h84v-714h-105l-382 593h-4l2 -40q6 -89 6 -154v-482q0 -83 -34 -120t-101 -37q-32 0 -56 13v76q21 -10 45 -10q35 0 49 20t14 62v793z" />
    <glyph glyph-name="uni019E" unicode="&#x19e;" horiz-adv-x="618" 
d="M450 -240v583q0 64 -28.5 96.5t-91.5 32.5q-83 0 -120 -46.5t-37 -147.5v-278h-88v536h71l13 -73h5q25 40 70 61.5t99 21.5q99 0 146.5 -48t47.5 -149v-589h-87z" />
    <glyph glyph-name="uni019F" unicode="&#x19f;" horiz-adv-x="782" 
d="M720 358q0 -171 -86.5 -269.5t-242.5 -98.5q-158 0 -244 96.5t-86 272.5q0 174 85.5 270t245.5 96q155 0 241.5 -97.5t86.5 -269.5zM391 68q108 0 167.5 65t65.5 192h-467q6 -127 65.5 -192t168.5 -65zM392 646q-106 0 -165.5 -61.5t-69.5 -181.5h466q-9 121 -67.5 182
t-163.5 61z" />
    <glyph glyph-name="Ohorn" unicode="&#x1a0;" horiz-adv-x="784" 
d="M719 358q0 -173 -86.5 -270.5t-241.5 -97.5q-158 0 -244 96t-86 273q0 176 86 271t245 95t247 -104q33 9 48.5 39.5t15.5 99.5h95l7 -11q-15 -78 -47.5 -120.5t-83.5 -61.5q45 -85 45 -209zM156 358q0 -142 59.5 -216t175.5 -74t174.5 73t58.5 217q0 143 -58.5 215.5
t-173.5 72.5q-118 0 -177 -73.5t-59 -214.5z" />
    <glyph glyph-name="ohorn" unicode="&#x1a1;" horiz-adv-x="616" 
d="M551 269q0 -131 -66.5 -205t-183.5 -74q-73 0 -129 34t-86.5 97.5t-30.5 147.5q0 131 65.5 204t183.5 73q53 0 97.5 -18t76.5 -51q24 7 38.5 23.5t21.5 41t7 76.5h94l7 -11q-16 -79 -46.5 -121.5t-82.5 -61.5q34 -69 34 -155zM146 269q0 -105 38.5 -155.5t118.5 -50.5
q83 0 120 52t37 154q0 100 -38 151.5t-120 51.5q-83 0 -119.5 -51.5t-36.5 -151.5z" />
    <glyph glyph-name="uni01A2" unicode="&#x1a2;" horiz-adv-x="1075" 
d="M688 358q0 -173 -82.5 -270.5t-230.5 -97.5q-150 0 -232 96.5t-82 272.5q0 174 82 270t233 96q142 0 224 -91q28 43 78 67t110 24q102 0 149.5 -52.5t47.5 -165.5v-507h-90v507q0 70 -29 105t-92 35q-53 0 -86.5 -15t-52.5 -46q53 -92 53 -228zM156 358q0 -142 56 -216
t163 -74t162.5 73t55.5 217q0 143 -55 215.5t-162 72.5q-108 0 -164 -73.5t-56 -214.5z" />
    <glyph glyph-name="uni01A3" unicode="&#x1a3;" horiz-adv-x="845" 
d="M526 269q0 -132 -63.5 -205.5t-173.5 -73.5q-69 0 -122.5 34t-82.5 98t-29 147q0 130 62.5 203.5t173.5 73.5q106 0 169 -72q26 37 64 54.5t80 17.5q80 0 120 -47t40 -150v-589h-87v585q0 127 -92 127q-63 0 -94 -44q35 -63 35 -159zM146 269q0 -101 36.5 -153.5
t107.5 -52.5t108 52t37 154q0 101 -37 152t-108 51q-144 0 -144 -203z" />
    <glyph glyph-name="uni01A4" unicode="&#x1a4;" horiz-adv-x="685" 
d="M267 355h72q106 0 154 34.5t48 110.5q0 69 -44.5 103t-138.5 34h-91v-282zM366 714q268 0 268 -210q0 -109 -74.5 -167.5t-210.5 -58.5h-82v-278h-90v637h-26q-61 0 -61 -50q0 -30 10 -54h-79q-4 10 -7.5 26.5t-3.5 28.5q0 65 34.5 95.5t106.5 30.5h215z" />
    <glyph glyph-name="uni01A5" unicode="&#x1a5;" horiz-adv-x="615" 
d="M207 765q33 0 65 -13v-73q-23 10 -52 10q-23 0 -35 -13t-12 -45v-80q0 -30 -4 -68l-2 -20h6q31 44 72 63.5t95 19.5q104 0 162 -72.5t58 -204.5q0 -131 -58 -205t-163 -74q-108 0 -166 78h-6l2 -20q4 -38 4 -68v-220h-88l1 865q0 140 121 140zM324 472q-80 0 -115 -45
t-36 -141v-17q0 -109 36 -157.5t117 -48.5q67 0 105 54.5t38 152.5t-38 150t-107 52z" />
    <glyph glyph-name="uni01A6" unicode="&#x1a6;" horiz-adv-x="622" 
d="M187 271h107q87 0 127 34t40 102q0 67 -40.5 98t-131.5 31h-102v-265zM187 195v-195h-90v714h90v-100h107q133 0 196.5 -50.5t63.5 -152.5q0 -142 -143 -191l196 -320h-105l-173 295h-142z" />
    <glyph glyph-name="uni01A7" unicode="&#x1a7;" horiz-adv-x="548" 
d="M47 191q0 48 20 84t61 63.5t124 58.5q68 25 98.5 44t44 42t13.5 58q0 49 -36 76.5t-99 27.5q-72 0 -154 -38l-28 77q85 40 180 40q102 0 165 -49.5t63 -132.5q0 -76 -41.5 -125.5t-142.5 -86.5q-78 -28 -113 -48t-50 -43t-15 -56q0 -54 40.5 -84.5t120.5 -30.5
q91 0 200 47v-86q-34 -17 -85 -28t-111 -11q-120 0 -187.5 54t-67.5 147z" />
    <glyph glyph-name="uni01A8" unicode="&#x1a8;" horiz-adv-x="479" 
d="M45 148q0 37 15 64t46.5 48.5t99.5 46.5q88 34 113 53t25 49t-28 47.5t-83 17.5q-50 0 -132 -34l-30 70q81 36 156 36q98 0 149.5 -36.5t51.5 -105.5q0 -37 -14.5 -63t-45 -47t-106.5 -50q-53 -20 -81 -35.5t-39.5 -31t-11.5 -37.5q0 -39 32 -59t95 -20q84 0 170 43v-80
q-62 -34 -168 -34q-214 0 -214 158z" />
    <glyph glyph-name="uni01A9" unicode="&#x1a9;" horiz-adv-x="569" 
d="M36 0v74l234 299l-228 266v75h475v-80h-325l-47 1l225 -261l-235 -296l163 1h248v-79h-510z" />
    <glyph glyph-name="uni01AA" unicode="&#x1aa;" horiz-adv-x="309" 
d="M67 542q-60 0 -91.5 29.5t-31.5 82.5q0 54 32.5 82.5t92.5 28.5q63 0 96.5 -36t33.5 -105v-696q0 -49 18 -72.5t59 -23.5q19 0 43.5 3t38.5 8v-67q-15 -7 -41.5 -11.5t-52.5 -4.5q-80 0 -116 41t-36 126v615h-45zM63 693q-21 0 -30 -12t-9 -27q0 -40 49 -40h39v13
q0 35 -12.5 50.5t-36.5 15.5z" />
    <glyph glyph-name="uni01AB" unicode="&#x1ab;" horiz-adv-x="360" 
d="M222 -240q-29 0 -60 12v73q22 -9 50 -9q48 0 48 52v102h-11q-157 0 -157 166v312h-76v42l77 35l35 114h52v-123h155v-68h-155v-310q0 -46 22.5 -71t61.5 -25q17 0 40 3.5t35 7.5v-180q0 -133 -117 -133z" />
    <glyph glyph-name="uni01AC" unicode="&#x1ac;" horiz-adv-x="576" 
d="M151 635q-61 0 -61 -48q0 -30 10 -54h-79q-4 10 -7.5 26.5t-3.5 28.5q0 65 34.5 95.5t106.5 30.5h414v-79h-222v-635h-90v635h-102z" />
    <glyph glyph-name="uni01AD" unicode="&#x1ad;" horiz-adv-x="360" 
d="M180 536h155v-68h-155v-310q0 -46 22.5 -71t61.5 -25q17 0 40 3.5t35 7.5v-67q-12 -5 -38 -10.5t-52 -5.5q-157 0 -157 166v312h-76v42l77 35v66q0 154 147 154q39 0 77 -13v-73q-11 4 -34.5 7t-42.5 3q-32 0 -46 -17t-14 -51v-85z" />
    <glyph glyph-name="uni01AE" unicode="&#x1ae;" horiz-adv-x="556" 
d="M233 635h-223v79h535v-79h-222v-714q0 -42 14.5 -62t48.5 -20q24 0 45 10v-76q-24 -13 -63 -13q-68 0 -101.5 37t-33.5 120v718z" />
    <glyph glyph-name="Uhorn" unicode="&#x1af;" horiz-adv-x="779" 
d="M640 714v-97q40 5 59 37t19 106h93l7 -11q-16 -90 -59 -135.5t-119 -58.5v-303q0 -125 -70.5 -193.5t-200.5 -68.5q-133 0 -206 70.5t-73 193.5v460h90v-464q0 -86 47.5 -134t143.5 -48q88 0 134 46.5t46 136.5v463h89z" />
    <glyph glyph-name="uhorn" unicode="&#x1b0;" horiz-adv-x="673" 
d="M168 535v-344q0 -65 29 -96.5t90 -31.5q83 0 120.5 46t37.5 148v278h88v-59q39 6 57 37.5t18 105.5h93l7 -11q-16 -93 -59 -139.5t-116 -54.5v-414h-72l-13 71h-4q-24 -39 -67.5 -60t-100.5 -21q-98 0 -147.5 46.5t-49.5 148.5v350h89z" />
    <glyph glyph-name="uni01B1" unicode="&#x1b1;" horiz-adv-x="782" 
d="M391 68q114 0 173 62t59 183q0 110 -40.5 189t-126.5 140v72h288v-79h-178q74 -57 113 -141t39 -184q0 -150 -87 -235.5t-240 -85.5q-155 0 -241.5 85t-86.5 235q0 100 39 185t112 141h-177v79h288v-72q-87 -62 -127.5 -142t-40.5 -187q0 -120 59.5 -182.5t174.5 -62.5z
" />
    <glyph glyph-name="uni01B2" unicode="&#x1b2;" horiz-adv-x="600" 
d="M571 580q0 -53 -45 -157l-181 -423h-90l-255 714h94l162 -466q31 -88 45 -156q8 30 27 73q21 50 32 81l85 203q36 88 36 125q0 39 -16 55t-47 16q-24 0 -45 -10v76q22 13 63 13q135 0 135 -144z" />
    <glyph glyph-name="uni01B3" unicode="&#x1b3;" horiz-adv-x="565" 
d="M39 649q-21 0 -39 -8v73q28 11 60 11q37 0 59.5 -17.5t40.5 -57.5l128 -287l181 351h97l-233 -437v-277h-90v273l-162 341q-18 35 -42 35z" />
    <glyph glyph-name="uni01B4" unicode="&#x1b4;" horiz-adv-x="541" 
d="M485 546q33 0 57 -12v-65q-18 5 -30 5q-18 0 -28.5 -13t-21.5 -41l-183 -494q-32 -87 -79 -126.5t-116 -39.5q-37 0 -73 8v70q24 -6 59 -6q85 0 121 95l26 71l-216 538h94l116 -305q37 -100 45 -146h4q8 36 48 147l76 217q19 54 41 75.5t60 21.5z" />
    <glyph glyph-name="uni01B5" unicode="&#x1b5;" horiz-adv-x="571" 
d="M79 407h184l151 227h-364v80h473v-68l-159 -239h122v-71h-169l-170 -256h386v-80h-495v68l178 268h-137v71z" />
    <glyph glyph-name="uni01B6" unicode="&#x1b6;" horiz-adv-x="470" 
d="M57 313h161l109 155h-271v68h368v-66l-111 -157h101v-70h-151l-123 -175h291v-68h-392v58l130 185h-112v70z" />
    <glyph glyph-name="uni01B7" unicode="&#x1b7;" horiz-adv-x="583" 
d="M291 440q68 -2 122.5 -30t85 -76.5t30.5 -112.5q0 -109 -76 -170t-212 -61q-126 0 -206 39v82q49 -23 104 -35t103 -12q97 0 145 41t48 117q0 69 -49.5 107t-143.5 38h-62v65l206 202h-331v80h444v-71z" />
    <glyph glyph-name="uni01B8" unicode="&#x1b8;" horiz-adv-x="583" 
d="M85 643v71h444v-80h-330l205 -202v-65h-78q-84 0 -130.5 -40.5t-46.5 -113.5q0 -71 49.5 -110t143.5 -39q49 0 103.5 11.5t103.5 35.5v-82q-45 -21 -98.5 -30t-119.5 -9q-87 0 -149 27t-94.5 77t-32.5 117q0 68 30 119t84.5 79.5t123.5 30.5z" />
    <glyph glyph-name="uni01B9" unicode="&#x1b9;" horiz-adv-x="498" 
d="M61 472v64h409v-74h-306l219 -243v-61h-59q-101 0 -151.5 -42.5t-50.5 -124.5q0 -71 47 -114.5t126 -43.5q100 0 189 42v-80q-68 -35 -196 -35q-113 0 -183.5 63t-70.5 166q0 105 64.5 168t181.5 71z" />
    <glyph glyph-name="uni01BA" unicode="&#x1ba;" horiz-adv-x="498" 
d="M216 -167q84 0 160 36v-80q-60 -29 -161 -29q-90 0 -138.5 31t-48.5 88q0 62 46.5 91.5t137.5 29.5q80 0 114.5 27.5t34.5 94.5q0 60 -44.5 88t-142.5 28h-59v61l183 163h-270v74h394v-64l-187 -164q104 -5 159 -51.5t55 -133.5q0 -95 -59.5 -145.5t-175.5 -50.5
q-53 0 -78 -10.5t-25 -37.5q0 -21 26.5 -33.5t78.5 -12.5z" />
    <glyph glyph-name="uni01BB" unicode="&#x1bb;" horiz-adv-x="569" 
d="M78 419h241q27 44 39 82t12 81q0 50 -29.5 78t-82.5 28q-45 0 -81.5 -16.5t-73.5 -49.5l-47 59q93 84 204 84q94 0 147.5 -48.5t53.5 -132.5q0 -42 -10.5 -81.5t-35.5 -83.5h100v-70h-144q-11 -16 -23.5 -32.5t-201.5 -242.5v-4h374v-70h-472v73l175 215l47 61h-192v70z
" />
    <glyph glyph-name="uni01BC" unicode="&#x1bc;" horiz-adv-x="583" 
d="M224 634v-193h42q77 0 137 -27t93 -76.5t33 -116.5q0 -109 -76 -170t-212 -61q-126 0 -206 39v82q49 -23 104 -35t103 -12q97 0 145 41t48 117q0 68 -47 106.5t-130 38.5h-124v267h-79v80h444v-80h-275z" />
    <glyph glyph-name="uni01BD" unicode="&#x1bd;" horiz-adv-x="490" 
d="M198 462v-117h23q107 0 165.5 -46.5t58.5 -135.5q0 -82 -60.5 -127.5t-168.5 -45.5q-118 0 -183 35v79q89 -42 182 -42q69 0 106 26.5t37 79.5t-37.5 79t-115.5 26h-95v189h-62v74h364v-74h-214z" />
    <glyph glyph-name="uni01BE" unicode="&#x1be;" horiz-adv-x="462" 
d="M136 378v90h-91v42l92 35l35 114h52v-123h155v-68h-155v-92q0 -34 10.5 -49.5t36.5 -24.5q83 -31 115 -66.5t32 -87.5q0 -75 -56 -116.5t-158 -41.5q-105 0 -168 34v80q86 -43 170 -43q66 0 96.5 21.5t30.5 57.5q0 29 -24 49.5t-90 47.5q-47 20 -65 52t-18 89z" />
    <glyph glyph-name="uni01BF" unicode="&#x1bf;" horiz-adv-x="586" 
d="M173 -240h-88v776h72l12 -73h4q55 83 158 83q96 0 152 -59t56 -164q0 -91 -45.5 -164.5t-130 -117.5t-190.5 -51v-230zM173 62q131 17 203 85.5t72 173.5q0 69 -36 110t-99 41q-73 0 -106.5 -44t-33.5 -142v-224z" />
    <glyph glyph-name="uni01C0" unicode="&#x1c0;" horiz-adv-x="516" 
d="M297 -240h-78v1000h78v-1000z" />
    <glyph glyph-name="uni01C1" unicode="&#x1c1;" horiz-adv-x="516" 
d="M169 -240h-78v1000h78v-1000zM426 -240h-78v1000h78v-1000z" />
    <glyph glyph-name="uni01C2" unicode="&#x1c2;" horiz-adv-x="516" 
d="M65 402h154v358h78v-358h154v-72h-154v-124h154v-72h-154v-374h-78v374h-154v72h154v124h-154v72z" />
    <glyph glyph-name="uni01C3" unicode="&#x1c3;" horiz-adv-x="269" 
d="M163 201h-57l-25 513h107zM72 54q0 32 16 49.5t46 17.5t46 -18t16 -49t-16.5 -49.5t-45.5 -18.5q-30 0 -46 18t-16 50z" />
    <glyph glyph-name="uni01C4" unicode="&#x1c4;" horiz-adv-x="1291" 
d="M827 931h60q56 -36 107 -92q62 62 109 92h62v-13q-100 -100 -125 -147h-90q-29 50 -123 147v13zM61 20q15 -19 47 -19q29 -1 87 -1l51 1q33 0 101 2q58 3 118 32q61 30 111 86q49 55 68 116q18 53 18 115q0 21 -1 32q-7 78 -46 143q-29 47 -71 84q-36 32 -78 54
q-71 35 -160 35l-108 1h-13q-67 0 -93 -6.5t-34 -27t-8 -72.5v-59v-480q0 -21 11 -36zM153 566q5 31 35 31h82h41q66 0 116 -28q29 -14 54 -38q50 -46 68 -106q11 -33 11 -75q0 -60 -26 -111q-22 -44 -68 -82q-56 -45 -129 -53q-26 -2 -38 -2h-100q-13 0 -28 5q-19 8 -19 35
l-1 406q0 6 2 18zM810 689q-18 -13 -18 -39q0 -40 30 -48q20 -5 38 -5h224q16 0 28 -4q7 -1 10 -6.5t1 -12.5q-4 -13 -9 -21l-103 -145q-34 -50 -104 -148l-96 -137q-21 -31 -21 -63q0 -9 1 -14q3 -33 31 -41q20 -5 38 -5h175h107q7 1 21 1h20h42q44 3 48 43q1 4 1 11
q0 24 -18 34t-45 12t-84 2h-145q-8 0 -24 2q-16 3 -16 16q0 3 2 9q1 4 5 12l54 77l139 197l105 149q32 44 28 84q-2 33 -26 43q-15 7 -36 7h-108h-260q-21 0 -35 -10z" />
    <glyph glyph-name="uni01C5" unicode="&#x1c5;" horiz-adv-x="1200" 
d="M800 766h60q56 -36 107 -92q62 62 109 92h62v-13q-100 -100 -125 -147h-90q-29 50 -123 147v13zM61 20q15 -19 47 -19q29 -1 87 -1l51 1q33 0 101 2q58 3 118 32q61 30 111 86q49 55 68 116q18 53 18 115q0 21 -1 32q-7 78 -46 143q-29 47 -71 84q-36 32 -78 54
q-71 35 -160 35l-108 1h-13q-67 0 -93 -6.5t-34 -27t-8 -72.5v-59v-480q0 -21 11 -36zM153 566q5 31 35 31h82h41q66 0 116 -28q29 -14 54 -38q50 -46 68 -106q11 -33 11 -75q0 -60 -26 -111q-22 -44 -68 -82q-56 -45 -129 -53q-26 -2 -38 -2h-100q-13 0 -28 5q-19 8 -19 35
l-1 406q0 6 2 18zM820 689q-18 -13 -18 -39q0 -40 30 -48q20 -5 38 -5h224q16 0 28 -4q7 -1 10 -6.5t1 -12.5q-4 -13 -9 -21l-103 -145q-34 -50 -104 -148l-96 -137q-21 -31 -21 -63q0 -9 1 -14q3 -33 31 -41q20 -5 38 -5h175h107q7 1 21 1h20h42q44 3 48 43q1 4 1 11
q0 24 -18 34t-45 12t-84 2h-145q-8 0 -24 2q-16 3 -16 16q0 3 2 9q1 4 5 12l54 77l139 197l105 149q32 44 28 84q-2 33 -26 43q-15 7 -36 7h-108h-260q-21 0 -35 -10z" />
    <glyph glyph-name="uni01C6" unicode="&#x1c6;" horiz-adv-x="1084" 
d="M687 766h60q56 -36 107 -92q62 62 109 92h62v-13q-100 -100 -125 -147h-90q-29 50 -123 147v13zM61 20q15 -19 47 -19q29 -1 87 -1l51 1q33 0 101 2q58 3 118 32q61 30 111 86q49 55 68 116q18 53 18 115q0 21 -1 32q-7 78 -46 143q-29 47 -71 84q-36 32 -78 54
q-71 35 -160 35l-108 1h-13q-67 0 -93 -6.5t-34 -27t-8 -72.5v-59v-480q0 -21 11 -36zM153 566q5 31 35 31h82h41q66 0 116 -28q29 -14 54 -38q50 -46 68 -106q11 -33 11 -75q0 -60 -26 -111q-22 -44 -68 -82q-56 -45 -129 -53q-26 -2 -38 -2h-100q-13 0 -28 5q-19 8 -19 35
l-1 406q0 6 2 18zM705 689q-18 -13 -18 -39q0 -40 30 -48q20 -5 38 -5h224q16 0 28 -4q7 -1 10 -6.5t1 -12.5q-4 -13 -9 -21l-103 -145q-34 -50 -104 -148l-96 -137q-21 -31 -21 -63q0 -9 1 -14q3 -33 31 -41q20 -5 38 -5h175h107q7 1 21 1h20h42q44 3 48 43q1 4 1 11
q0 24 -18 34t-45 12t-84 2h-145q-8 0 -24 2q-16 3 -16 16q0 3 2 9q1 4 5 12l54 77l139 197l105 149q32 44 28 84q-2 33 -26 43q-15 7 -36 7h-108h-260q-21 0 -35 -10z" />
    <glyph glyph-name="uni01C7" unicode="&#x1c7;" horiz-adv-x="796" 
d="M79 22q8 -13 23 -17q15 -5 36 -5h317q23 1 36.5 14.5t13.5 38.5q0 17 -9.5 29.5t-26.5 16.5q-16 3 -33 3q-150 0 -225 1q-28 0 -35 19q-4 12 -4 29v472q0 39 -14.5 58.5t-37.5 19.5q-10 0 -23 -5q-10 -4 -18.5 -17t-8.5 -29l1 -598q0 -17 8 -30zM1042 626q0 10 -2 28
q-1 15 -9 26t-20 16q-9 4 -21 4q-32 0 -42 -21.5t-10 -68.5l1 -70v-290q-2 -38 -12 -65q-17 -49 -61 -69q-29 -14 -64 -14q-19 0 -42 5q-50 13 -71 54q-14 27 -22 76q0 3 -2 17t-9 25q-13 22 -42 22q-20 0 -33 -10t-16 -29l-1 -15q0 -74 33 -134q39 -75 115 -100
q39 -14 86 -14q22 0 44 3q123 18 177 134q23 50 23 116v187v187z" />
    <glyph glyph-name="uni01C8" unicode="&#x1c8;" horiz-adv-x="782" 
d="M79 22q8 -13 23 -17q15 -5 36 -5h317q23 1 36.5 14.5t13.5 38.5q0 17 -9.5 29.5t-26.5 16.5q-16 3 -33 3q-150 0 -225 1q-28 0 -35 19q-4 12 -4 29v472q0 39 -14.5 58.5t-37.5 19.5q-10 0 -23 -5q-10 -4 -18.5 -17t-8.5 -29l1 -598q0 -17 8 -30zM1042 626q0 10 -2 28
q-1 15 -9 26t-20 16q-9 4 -21 4q-32 0 -42 -21.5t-10 -68.5l1 -70v-290q-2 -38 -12 -65q-17 -49 -61 -69q-29 -14 -64 -14q-19 0 -42 5q-50 13 -71 54q-14 27 -22 76q0 3 -2 17t-9 25q-13 22 -42 22q-20 0 -33 -10t-16 -29l-1 -15q0 -74 33 -134q39 -75 115 -100
q39 -14 86 -14q22 0 44 3q123 18 177 134q23 50 23 116v187v187z" />
    <glyph glyph-name="uni01C9" unicode="&#x1c9;" horiz-adv-x="516" 
d="M79 22q8 -13 23 -17q15 -5 36 -5h317q23 1 36.5 14.5t13.5 38.5q0 17 -9.5 29.5t-26.5 16.5q-16 3 -33 3q-150 0 -225 1q-28 0 -35 19q-4 12 -4 29v472q0 39 -14.5 58.5t-37.5 19.5q-10 0 -23 -5q-10 -4 -18.5 -17t-8.5 -29l1 -598q0 -17 8 -30zM776 626q0 10 -2 28
q-1 15 -9 26t-20 16q-9 4 -21 4q-32 0 -42 -21.5t-10 -68.5l1 -70v-290q-2 -38 -12 -65q-17 -49 -61 -69q-29 -14 -64 -14q-19 0 -42 5q-50 13 -71 54q-14 27 -22 76q0 3 -2 17t-9 25q-13 22 -42 22q-20 0 -33 -10t-16 -29l-1 -15q0 -74 33 -134q39 -75 115 -100
q39 -14 86 -14q22 0 44 3q123 18 177 134q23 50 23 116v187v187z" />
    <glyph glyph-name="uni01CA" unicode="&#x1ca;" horiz-adv-x="1033" 
d="M544 464q0 126 -1 186q0 22 -13 36t-37 14q-17 0 -30 -9t-17 -26q-3 -16 -3 -32q-1 -115 -1 -350q0 -13 -6 -35q-1 -5 -5 -6.5t-8 2.5q-19 24 -23 30q-31 55 -56 101l-40 75q-26 50 -40 74l-74 133q-10 18 -32 30t-43 12q-29 0 -37 -15t-8 -61l1 -73v-458q0 -30 1 -44
q1 -23 13.5 -36.5t36.5 -13.5q17 0 30 9t17 26q4 13 4 32q0 233 1 350q0 12 5 27q1 5 5.5 6.5t7.5 -2.5q13 -12 20 -26l92 -162q38 -70 116 -208q10 -19 22 -32q18 -20 53 -18q17 0 29.5 10t16.5 26q3 17 3 31v280v117zM1278 626q0 10 -2 28q-1 15 -9 26t-20 16q-9 4 -21 4
q-32 0 -42 -21.5t-10 -68.5l1 -70v-290q-2 -38 -12 -65q-17 -49 -61 -69q-29 -14 -64 -14q-19 0 -42 5q-50 13 -71 54q-14 27 -22 76q0 3 -2 17t-9 25q-13 22 -42 22q-20 0 -33 -10t-16 -29l-1 -15q0 -74 33 -134q39 -75 115 -100q39 -14 86 -14q22 0 44 3q123 18 177 134
q23 50 23 116v187v187z" />
    <glyph glyph-name="uni01CB" unicode="&#x1cb;" horiz-adv-x="1018" 
d="M544 464q0 126 -1 186q0 22 -13 36t-37 14q-17 0 -30 -9t-17 -26q-3 -16 -3 -32q-1 -115 -1 -350q0 -13 -6 -35q-1 -5 -5 -6.5t-8 2.5q-19 24 -23 30q-31 55 -56 101l-40 75q-26 50 -40 74l-74 133q-10 18 -32 30t-43 12q-29 0 -37 -15t-8 -61l1 -73v-458q0 -30 1 -44
q1 -23 13.5 -36.5t36.5 -13.5q17 0 30 9t17 26q4 13 4 32q0 233 1 350q0 12 5 27q1 5 5.5 6.5t7.5 -2.5q13 -12 20 -26l92 -162q38 -70 116 -208q10 -19 22 -32q18 -20 53 -18q17 0 29.5 10t16.5 26q3 17 3 31v280v117zM1278 626q0 10 -2 28q-1 15 -9 26t-20 16q-9 4 -21 4
q-32 0 -42 -21.5t-10 -68.5l1 -70v-290q-2 -38 -12 -65q-17 -49 -61 -69q-29 -14 -64 -14q-19 0 -42 5q-50 13 -71 54q-14 27 -22 76q0 3 -2 17t-9 25q-13 22 -42 22q-20 0 -33 -10t-16 -29l-1 -15q0 -74 33 -134q39 -75 115 -100q39 -14 86 -14q22 0 44 3q123 18 177 134
q23 50 23 116v187v187z" />
    <glyph glyph-name="uni01CC" unicode="&#x1cc;" horiz-adv-x="875" 
d="M544 464q0 126 -1 186q0 22 -13 36t-37 14q-17 0 -30 -9t-17 -26q-3 -16 -3 -32q-1 -115 -1 -350q0 -13 -6 -35q-1 -5 -5 -6.5t-8 2.5q-19 24 -23 30q-31 55 -56 101l-40 75q-26 50 -40 74l-74 133q-10 18 -32 30t-43 12q-29 0 -37 -15t-8 -61l1 -73v-458q0 -30 1 -44
q1 -23 13.5 -36.5t36.5 -13.5q17 0 30 9t17 26q4 13 4 32q0 233 1 350q0 12 5 27q1 5 5.5 6.5t7.5 -2.5q13 -12 20 -26l92 -162q38 -70 116 -208q10 -19 22 -32q18 -20 53 -18q17 0 29.5 10t16.5 26q3 17 3 31v280v117zM1136 626q0 10 -2 28q-1 15 -9 26t-20 16q-9 4 -21 4
q-32 0 -42 -21.5t-10 -68.5l1 -70v-290q-2 -38 -12 -65q-17 -49 -61 -69q-29 -14 -64 -14q-19 0 -42 5q-50 13 -71 54q-14 27 -22 76q0 3 -2 17t-9 25q-13 22 -42 22q-20 0 -33 -10t-16 -29l-1 -15q0 -74 33 -134q39 -75 115 -100q39 -14 86 -14q22 0 44 3q123 18 177 134
q23 50 23 116v187v187z" />
    <glyph glyph-name="uni01CD" unicode="&#x1cd;" horiz-adv-x="639" 
d="M150 944h60q56 -36 107 -92q62 62 109 92h62v-13q-100 -100 -125 -147h-90q-29 50 -123 147v13zM221 548q-2 -7 -4 -12l-48 -131q-13 -39 -41 -115l-61 -168q-14 -36 -24 -70q-3 -7 -3 -15q0 -15 13 -27q10 -10 33 -10t37 10q16 13 27 39l15 41q6 18 20 54q6 13 16 25
q7 8 17 10.5t24 2.5h97h49q38 0 52 -37q21 -56 37 -97q10 -28 27 -39t44 -9q15 1 24.5 9.5t10.5 22.5v7q0 11 -3 21l-13 37l-18 51l-64 175l-19 55l-52 145l-14 39q-8 20 -16.5 44t-18.5 51q-6 19 -18.5 30.5t-30.5 12.5q-19 1 -28.5 -4.5t-18 -23t-26.5 -65.5l-18 -47
q-2 -5 -4 -12zM250 309q0 6 1 9q8 30 18 56l9 25q19 50 24 55q4 7 12 7q7 0 11 -8q14 -28 19 -42q14 -36 31 -88q3 -6 3 -13q0 -9 -9 -17q-8 -5 -23 -7l-28 -1q-31 0 -47 2q-21 3 -21 22z" />
    <glyph glyph-name="uni01CE" unicode="&#x1ce;" horiz-adv-x="561" 
d="M112 766h60q56 -36 107 -92q62 62 109 92h62v-13q-100 -100 -125 -147h-90q-29 50 -123 147v13zM221 548q-2 -7 -4 -12l-48 -131q-13 -39 -41 -115l-61 -168q-14 -36 -24 -70q-3 -7 -3 -15q0 -15 13 -27q10 -10 33 -10t37 10q16 13 27 39l15 41q6 18 20 54q6 13 16 25
q7 8 17 10.5t24 2.5h97h49q38 0 52 -37q21 -56 37 -97q10 -28 27 -39t44 -9q15 1 24.5 9.5t10.5 22.5v7q0 11 -3 21l-13 37l-18 51l-64 175l-19 55l-52 145l-14 39q-8 20 -16.5 44t-18.5 51q-6 19 -18.5 30.5t-30.5 12.5q-19 1 -28.5 -4.5t-18 -23t-26.5 -65.5l-18 -47
q-2 -5 -4 -12zM250 309q0 6 1 9q8 30 18 56l9 25q19 50 24 55q4 7 12 7q7 0 11 -8q14 -28 19 -42q14 -36 31 -88q3 -6 3 -13q0 -9 -9 -17q-8 -5 -23 -7l-28 -1q-31 0 -47 2q-21 3 -21 22z" />
    <glyph glyph-name="uni01CF" unicode="&#x1cf;" horiz-adv-x="338" 
d="M2 944h60q56 -36 107 -92q62 62 109 92h62v-13q-100 -100 -125 -147h-90q-29 50 -123 147v13zM70 41q0 -19 15 -30t36 -11t36 11.5t15 32.5v611q0 21 -15.5 32.5t-36.5 11.5q-20 0 -35 -11.5t-15 -32.5v-614z" />
    <glyph glyph-name="uni01D0" unicode="&#x1d0;" horiz-adv-x="257" 
d="M-40 766h60q56 -36 107 -92q62 62 109 92h62v-13q-100 -100 -125 -147h-90q-29 50 -123 147v13zM173 0h-88v536h88v-536z" />
    <glyph glyph-name="uni01D1" unicode="&#x1d1;" horiz-adv-x="780" 
d="M221 944h60q56 -36 107 -92q62 62 109 92h62v-13q-100 -100 -125 -147h-90q-29 50 -123 147v13zM215.5 650q-80.5 -47 -128 -127.5t-47.5 -172.5q0 -94 47.5 -174.5t127.5 -128t173 -47.5q94 0 174.5 48t127.5 128t47 172q0 94 -48 174.5t-128.5 127.5t-172.5 46
q-92 1 -172.5 -46zM175 470q33 57 90 90.5t124 33.5q64 0 120.5 -33t90.5 -90t34 -124q0 -64 -33 -120t-89 -90t-122 -34t-123.5 33.5t-91 89.5t-32.5 122q-1 65 32 122z" />
    <glyph glyph-name="uni01D2" unicode="&#x1d2;" horiz-adv-x="604" 
d="M133 766h60q56 -36 107 -92q62 62 109 92h62v-13q-100 -100 -125 -147h-90q-29 50 -123 147v13zM215.5 650q-80.5 -47 -128 -127.5t-47.5 -172.5q0 -94 47.5 -174.5t127.5 -128t173 -47.5q94 0 174.5 48t127.5 128t47 172q0 94 -48 174.5t-128.5 127.5t-172.5 46
q-92 1 -172.5 -46zM175 470q33 57 90 90.5t124 33.5q64 0 120.5 -33t90.5 -90t34 -124q0 -64 -33 -120t-89 -90t-122 -34t-123.5 33.5t-91 89.5t-32.5 122q-1 65 32 122z" />
    <glyph glyph-name="uni01D3" unicode="&#x1d3;" horiz-adv-x="730" 
d="M196 944h60q56 -36 107 -92q62 62 109 92h62v-13q-100 -100 -125 -147h-90q-29 50 -123 147v13zM545 620q0 22 -1 33q-3 33 -27 43q-12 5 -22 5q-13 0 -24 -5t-17 -14q-11 -15 -11 -42l-1 -381q-2 -45 -15 -80q-20 -55 -72 -69q-22 -7 -48 -7q-19 0 -42 5q-41 10 -65 46
q-15 23 -22 63q-6 36 -6 108v296q0 22 -1 32q-1 22 -14.5 35t-35.5 13q-29 0 -43 -23q-8 -16 -8 -44v-324q0 -27 4 -81q5 -68 32 -116q38 -72 113 -99q45 -14 88 -14q35 0 64 7q108 24 149 128q23 61 25 145v185v155z" />
    <glyph glyph-name="uni01D4" unicode="&#x1d4;" horiz-adv-x="618" 
d="M140 766h60q56 -36 107 -92q62 62 109 92h62v-13q-100 -100 -125 -147h-90q-29 50 -123 147v13zM545 620q0 22 -1 33q-3 33 -27 43q-12 5 -22 5q-13 0 -24 -5t-17 -14q-11 -15 -11 -42l-1 -381q-2 -45 -15 -80q-20 -55 -72 -69q-22 -7 -48 -7q-19 0 -42 5q-41 10 -65 46
q-15 23 -22 63q-6 36 -6 108v296q0 22 -1 32q-1 22 -14.5 35t-35.5 13q-29 0 -43 -23q-8 -16 -8 -44v-324q2 -54 4 -81q5 -68 32 -116q38 -72 113 -99q45 -14 88 -14q35 0 64 7q108 24 149 128q23 61 25 145v175v165z" />
    <glyph glyph-name="uni01D5" unicode="&#x1d5;" horiz-adv-x="730" 
d="M508 815q0 -23 -12.5 -36t-34.5 -13t-34.5 13t-12.5 36q0 26 14 38t33 12q20 0 33.5 -12t13.5 -38zM320 815q0 -26 -13.5 -37.5t-32.5 -11.5q-22 0 -34.5 13t-12.5 36q0 26 14 38t33 12t32.5 -12t13.5 -38zM219 1001h297v-71h-297v71zM545 620q0 22 -1 33q-3 33 -27 43
q-12 5 -22 5q-13 0 -24 -5t-17 -14q-11 -15 -11 -42l-1 -381q-2 -45 -15 -80q-20 -55 -72 -69q-22 -7 -48 -7q-19 0 -42 5q-41 10 -65 46q-15 23 -22 63q-6 36 -6 108v296q0 22 -1 32q-1 22 -14.5 35t-35.5 13q-29 0 -43 -23q-8 -16 -8 -44v-324q0 -27 4 -81q5 -68 32 -116
q38 -72 113 -99q45 -14 88 -14q35 0 64 7q108 24 149 128q23 61 25 145v185v155z" />
    <glyph glyph-name="uni01D6" unicode="&#x1d6;" horiz-adv-x="618" 
d="M447 650q0 -23 -12.5 -36t-34.5 -13t-34.5 13t-12.5 36q0 26 14 38t33 12q20 0 33.5 -12t13.5 -38zM259 650q0 -26 -13.5 -37.5t-32.5 -11.5q-22 0 -34.5 13t-12.5 36q0 26 14 38t33 12t32.5 -12t13.5 -38zM158 836h297v-71h-297v71zM545 620q0 22 -1 33q-3 33 -27 43
q-12 5 -22 5q-13 0 -24 -5t-17 -14q-11 -15 -11 -42l-1 -381q-2 -45 -15 -80q-20 -55 -72 -69q-22 -7 -48 -7q-19 0 -42 5q-41 10 -65 46q-15 23 -22 63q-6 36 -6 108v296q0 22 -1 32q-1 22 -14.5 35t-35.5 13q-29 0 -43 -23q-8 -16 -8 -44v-324q2 -54 4 -81q5 -68 32 -116
q38 -72 113 -99q45 -14 88 -14q35 0 64 7q108 24 149 128q23 61 25 145v175v165z" />
    <glyph glyph-name="uni01D7" unicode="&#x1d7;" horiz-adv-x="730" 
d="M499 815q0 -23 -12.5 -36t-34.5 -13t-34.5 13t-12.5 36q0 26 14 38t33 12q20 0 33.5 -12t13.5 -38zM311 815q0 -26 -13.5 -37.5t-32.5 -11.5q-22 0 -34.5 13t-12.5 36q0 26 14 38t33 12t32.5 -12t13.5 -38zM305 903q73 84 96 133h105v-10q-28 -43 -142 -135h-59v12z
M545 620q0 22 -1 33q-3 33 -27 43q-12 5 -22 5q-13 0 -24 -5t-17 -14q-11 -15 -11 -42l-1 -381q-2 -45 -15 -80q-20 -55 -72 -69q-22 -7 -48 -7q-19 0 -42 5q-41 10 -65 46q-15 23 -22 63q-6 36 -6 108v296q0 22 -1 32q-1 22 -14.5 35t-35.5 13q-29 0 -43 -23q-8 -16 -8 -44
v-324q0 -27 4 -81q5 -68 32 -116q38 -72 113 -99q45 -14 88 -14q35 0 64 7q108 24 149 128q23 61 25 145v185v155z" />
    <glyph glyph-name="uni01D8" unicode="&#x1d8;" horiz-adv-x="618" 
d="M446 650q0 -23 -12.5 -36t-34.5 -13t-34.5 13t-12.5 36q0 26 14 38t33 12q20 0 33.5 -12t13.5 -38zM258 650q0 -26 -13.5 -37.5t-32.5 -11.5q-22 0 -34.5 13t-12.5 36q0 26 14 38t33 12t32.5 -12t13.5 -38zM252 738q73 84 96 133h105v-10q-28 -43 -142 -135h-59v12z
M545 620q0 22 -1 33q-3 33 -27 43q-12 5 -22 5q-13 0 -24 -5t-17 -14q-11 -15 -11 -42l-1 -381q-2 -45 -15 -80q-20 -55 -72 -69q-22 -7 -48 -7q-19 0 -42 5q-41 10 -65 46q-15 23 -22 63q-6 36 -6 108v296q0 22 -1 32q-1 22 -14.5 35t-35.5 13q-29 0 -43 -23q-8 -16 -8 -44
v-324q2 -54 4 -81q5 -68 32 -116q38 -72 113 -99q45 -14 88 -14q35 0 64 7q108 24 149 128q23 61 25 145v175v165z" />
    <glyph glyph-name="uni01D9" unicode="&#x1d9;" horiz-adv-x="730" 
d="M504 815q0 -23 -12.5 -36t-34.5 -13t-34.5 13t-12.5 36q0 26 14 38t33 12q20 0 33.5 -12t13.5 -38zM316 815q0 -26 -13.5 -37.5t-32.5 -11.5q-22 0 -34.5 13t-12.5 36q0 26 14 38t33 12t32.5 -12t13.5 -38zM195 1046h60q26 -17 54 -36t53 -46q27 27 55 46t54 36h62v-13
l-32 -31q-73 -69 -93 -106h-90q-21 36 -92 106l-31 31v13zM545 620q0 22 -1 33q-3 33 -27 43q-12 5 -22 5q-13 0 -24 -5t-17 -14q-11 -15 -11 -42l-1 -381q-2 -45 -15 -80q-20 -55 -72 -69q-22 -7 -48 -7q-19 0 -42 5q-41 10 -65 46q-15 23 -22 63q-6 36 -6 108v296
q0 22 -1 32q-1 22 -14.5 35t-35.5 13q-29 0 -43 -23q-8 -16 -8 -44v-324q0 -27 4 -81q5 -68 32 -116q38 -72 113 -99q45 -14 88 -14q35 0 64 7q108 24 149 128q23 61 25 145v185v155z" />
    <glyph glyph-name="uni01DA" unicode="&#x1da;" horiz-adv-x="618" 
d="M444 650q0 -23 -12.5 -36t-34.5 -13t-34.5 13t-12.5 36q0 26 14 38t33 12q20 0 33.5 -12t13.5 -38zM256 650q0 -26 -13.5 -37.5t-32.5 -11.5q-22 0 -34.5 13t-12.5 36q0 26 14 38t33 12t32.5 -12t13.5 -38zM135 881h60q26 -17 54 -36t53 -46q27 27 55 46t54 36h62v-13
l-32 -31q-73 -69 -93 -106h-90q-21 36 -92 106l-31 31v13zM545 620q0 22 -1 33q-3 33 -27 43q-12 5 -22 5q-13 0 -24 -5t-17 -14q-11 -15 -11 -42l-1 -381q-2 -45 -15 -80q-20 -55 -72 -69q-22 -7 -48 -7q-19 0 -42 5q-41 10 -65 46q-15 23 -22 63q-6 36 -6 108v296
q0 22 -1 32q-1 22 -14.5 35t-35.5 13q-29 0 -43 -23q-8 -16 -8 -44v-324q2 -54 4 -81q5 -68 32 -116q38 -72 113 -99q45 -14 88 -14q35 0 64 7q108 24 149 128q23 61 25 145v175v165z" />
    <glyph glyph-name="uni01DB" unicode="&#x1db;" horiz-adv-x="730" 
d="M500 815q0 -23 -12.5 -36t-34.5 -13t-34.5 13t-12.5 36q0 26 14 38t33 12q20 0 33.5 -12t13.5 -38zM312 815q0 -26 -13.5 -37.5t-32.5 -11.5q-22 0 -34.5 13t-12.5 36q0 26 14 38t33 12t32.5 -12t13.5 -38zM414 891h-59q-114 91 -142 135v10h105q23 -49 96 -133v-12z
M545 620q0 22 -1 33q-3 33 -27 43q-12 5 -22 5q-13 0 -24 -5t-17 -14q-11 -15 -11 -42l-1 -381q-2 -45 -15 -80q-20 -55 -72 -69q-22 -7 -48 -7q-19 0 -42 5q-41 10 -65 46q-15 23 -22 63q-6 36 -6 108v296q0 22 -1 32q-1 22 -14.5 35t-35.5 13q-29 0 -43 -23q-8 -16 -8 -44
v-324q0 -27 4 -81q5 -68 32 -116q38 -72 113 -99q45 -14 88 -14q35 0 64 7q108 24 149 128q23 61 25 145v185v155z" />
    <glyph glyph-name="uni01DC" unicode="&#x1dc;" horiz-adv-x="618" 
d="M447 650q0 -23 -12.5 -36t-34.5 -13t-34.5 13t-12.5 36q0 26 14 38t33 12q20 0 33.5 -12t13.5 -38zM259 650q0 -26 -13.5 -37.5t-32.5 -11.5q-22 0 -34.5 13t-12.5 36q0 26 14 38t33 12t32.5 -12t13.5 -38zM361 726h-59q-114 91 -142 135v10h105q23 -49 96 -133v-12z
M545 620q0 22 -1 33q-3 33 -27 43q-12 5 -22 5q-13 0 -24 -5t-17 -14q-11 -15 -11 -42l-1 -381q-2 -45 -15 -80q-20 -55 -72 -69q-22 -7 -48 -7q-19 0 -42 5q-41 10 -65 46q-15 23 -22 63q-6 36 -6 108v296q0 22 -1 32q-1 22 -14.5 35t-35.5 13q-29 0 -43 -23q-8 -16 -8 -44
v-324q2 -54 4 -81q5 -68 32 -116q38 -72 113 -99q45 -14 88 -14q35 0 64 7q108 24 149 128q23 61 25 145v175v165z" />
    </font>
</defs>
</svg>
