<?xml version="1.0" standalone="no"?>
<!DOCTYPE svg PUBLIC "-//W3C//DTD SVG 1.1//EN" "http://www.w3.org/Graphics/SVG/1.1/DTD/svg11.dtd" >
<svg xmlns="http://www.w3.org/2000/svg" xmlns:xlink="http://www.w3.org/1999/xlink" version="1.1">
<metadata>
Created by FontForge 20190801 at Mon Feb  8 12:18:58 2021
 By root
Copyright (c) 2017 by Skyla Design. All rights reserved.
</metadata>
<defs>
<font id="Sookie-Regular" horiz-adv-x="349" >
  <font-face 
    font-family="Sookie"
    font-weight="400"
    font-stretch="normal"
    units-per-em="1000"
    panose-1="0 0 0 0 0 0 0 0 0 0"
    ascent="715"
    descent="-285"
    x-height="479"
    cap-height="678"
    bbox="-213 -266 1176.25 1046"
    underline-thickness="50"
    underline-position="-100"
    unicode-range="U+0001-206F"
  />
<missing-glyph horiz-adv-x="364" 
d="M33 0v666h265v-666h-265zM66 33h199v600h-199v-600z" />
    <glyph glyph-name=".notdef" horiz-adv-x="364" 
d="M33 0v666h265v-666h-265zM66 33h199v600h-199v-600z" />
    <glyph glyph-name="uni0000" 
 />
    <glyph glyph-name="uni0000" 
 />
    <glyph glyph-name="uni000D" unicode="&#xd;" 
 />
    <glyph glyph-name="uni0001" 
 />
    <glyph glyph-name="uni0002" 
 />
    <glyph glyph-name="uni0003" 
 />
    <glyph glyph-name="uni0004" 
 />
    <glyph glyph-name="uni0005" 
 />
    <glyph glyph-name="uni0006" 
 />
    <glyph glyph-name="uni0007" 
 />
    <glyph glyph-name="uni0008" 
 />
    <glyph glyph-name="uni0009" unicode="&#x9;" 
 />
    <glyph glyph-name="uni000A" unicode="&#xa;" 
 />
    <glyph glyph-name="uni000B" 
 />
    <glyph glyph-name="uni000C" 
 />
    <glyph glyph-name="uni000E" 
 />
    <glyph glyph-name="uni000F" 
 />
    <glyph glyph-name="uni0010" 
 />
    <glyph glyph-name="uni0011" 
 />
    <glyph glyph-name="uni0012" 
 />
    <glyph glyph-name="uni0013" 
 />
    <glyph glyph-name="uni0014" 
 />
    <glyph glyph-name="uni0015" 
 />
    <glyph glyph-name="uni0016" 
 />
    <glyph glyph-name="uni0017" 
 />
    <glyph glyph-name="uni0018" 
 />
    <glyph glyph-name="uni0019" 
 />
    <glyph glyph-name="uni001A" 
 />
    <glyph glyph-name="uni001B" 
 />
    <glyph glyph-name="uni001C" 
 />
    <glyph glyph-name="uni001D" 
 />
    <glyph glyph-name="uni001E" 
 />
    <glyph glyph-name="uni001F" 
 />
    <glyph glyph-name="space" unicode=" " 
 />
    <glyph glyph-name="exclam" unicode="!" horiz-adv-x="191" 
d="M142 633q0 -42 -1 -63v-9q-1 -10 -4 -24.5t-3 -24.5l-1 -57v-53q0 -5 -1 -28t-6 -44q-3 -11 -3 -35l-1 -63q-1 -21 -1 -62q0 -14 -7 -32t-27 -27q-6 -3 -15 -3q-11 0 -21 4.5t-14 12.5q-16 30 -17 55v16l1 56q0 7 -0.5 16.5t0.5 22.5v17t5 26q2 4 2 14q0 28 2 84l1 42v16
q0 16 5 27q2 34 2 52v63q2 17 15 24q7 5 22.5 8t28.5 4q16 0 26 -10q13 -10 12 -25zM116 66q8 -15 8 -30q0 -17 -6.5 -28.5t-19.5 -14.5q-8 -2 -16 -2.5t-16 -2.5q-13 -1 -22 7.5t-17 23.5q-3 6 -3 15q0 16 7 23q10 13 25 18q20 5 42 5q10 1 18 -14z" />
    <glyph glyph-name="quotedbl" unicode="&#x22;" horiz-adv-x="203" 
d="M160 602q-10 -22 -31 -40q-4 -4 -11 -5.5t-12 0.5q-14 5 -15 13q-1 2 -1 5q-1 3 -1 8t1 8l4 8t4 11l7 24q1 2 1 6q0 8 -6 9q-6 2 -8 6t-3 5l-1 3q0 7 6 16q3 5 6.5 7t4.5 3q10 7 19 7q3 0 13 -2q13 -4 25 -18q5 -6 6 -14.5t1 -16.5q3 -22 -9 -43zM69 663l-4 -23
q-5 -24 -21 -58q-1 -1 -4 -7.5t-9 -8.5q-2 -1 -6 -1q-9 0 -16 5q-11 8 -17 27q-2 6 -2 10q0 5 2 13l11 39q-2 5 -7 14.5t-2 16.5q2 5 7 11.5t9 7.5q5 2 13 2.5t12 0.5q7 0 12 -5t7 -6q17 -14 15 -38z" />
    <glyph glyph-name="numbersign" unicode="#" horiz-adv-x="561" 
d="M118.5 176q-8.5 0 -15.5 3q-6 1 -10 10t-3 18q0 6 3.5 14.5t7.5 11.5q4 2 16 6q9 2 15 3t8.5 2t2.5 4q-1 6 -2.5 16.5t-3.5 15.5q-5 5 -7 6q-12 2 -20 2q-7 0 -17 -0.5t-23 0.5q-24 1 -36.5 5.5t-20.5 20.5q-4 7 -4 15q0 9 4 15q8 19 22 24.5t39 7.5q4 0 12.5 1t13.5 2
q8 2 14.5 2.5t14.5 2.5q1 0 8 1t12 9q4 15 4 33q0 17 6 51q4 19 6 39q1 19 14 47q2 5 8 5q3 1 10 1q12 0 19 -4q10 -5 12 -15q2 -26 2 -39q0 -18 -3 -38q-1 -4 -4 -19.5t-3 -28.5q0 -24 13 -24q19 0 41.5 3t23.5 12q2 14 6 26q1 3 4 16.5t2 26.5q-1 7 -1 22q0 18 4 56
q1 9 3 32.5t9 36.5q6 10 14 13t26 4q10 0 15 -1q10 -2 15 -11q9 -16 11 -38q1 -5 1 -16q0 -16 -1 -24l-1 -24l-4 -85v-7q0 -6 2 -18q0 -2 2 -4t5 -2q20 -2 50 -2h35q8 0 20 -2q6 -2 9 -5q8 -13 8 -26q0 -10 -6 -22q-2 -6 -6 -7q-15 -10 -28.5 -13.5t-37.5 -6.5
q-18 -2 -41 -6.5t-23 -7.5q-1 -3 0 -20t1 -21q1 -5 4.5 -8.5t8.5 -3.5q21 0 35 -2t24 -11q9 -9 9 -22q0 -9 -4 -15q-1 -2 -4.5 -7.5t-8.5 -7.5q-9 -6 -20 -8t-13 -2q-3 0 -13.5 -2t-18.5 -7q-7 -5 -8 -13v-52q-1 -9 -1 -28q0 -13 1 -20q2 -10 2 -28q0 -24 -8 -44
q-1 -5 -9 -11q-14 -10 -22 -13h-4q-4 0 -10 2q-11 5 -16 19q-24 60 -28 110q0 6 0.5 21t-1.5 26.5t-10 14.5q-2 1 -6 1q-6 0 -14.5 -2t-12.5 -3q-2 0 -6 -0.5t-9 -2.5q-6 -3 -6 -7q-1 -5 -1 -14q0 -7 1 -10q4 -14 8 -42q4 -32 9 -47q4 -10 -6.5 -19t-21.5 -7q-23 5 -32 21
q-19 37 -29 70q-5 20 -14 68q-9 1 -17.5 1zM271 243q3 1 6 4.5t3 6.5q4 29 5 40l1 5q0 8 -10 7l-26 -6q-18 -4 -26 -7q-1 0 -5 -1t-6 -3t-3 -6q-2 -10 -2 -17q0 -24 13 -27l7 -1q7 0 14 1t13 1q10 3 16 3z" />
    <glyph glyph-name="dollar" unicode="$" horiz-adv-x="340" 
d="M243 40q-12 -8 -36 -22q2 -29 -4 -47q-5 -12 -17.5 -19.5t-24.5 -4.5q-9 3 -17 15q-2 4 -2 29l-27 -8q-3 -1 -9 -1q-18 0 -33 14t-15 32q2 26 4 39q3 22 20 34q11 9 33 25q9 7 18 12t17 10q17 11 17 28q0 9 -2 13q-23 58 -47.5 101t-60.5 77q-47 45 -48 108
q0 8 -1.5 15.5t-1.5 15.5q1 23 7 41t21 32q3 1 7 5q20 28 51 38l-1 15q0 9 3 18q3 10 11.5 16.5t18.5 6.5q4 0 10 -3t10 -8q3 -6 5 -39q7 0 17 -2q5 -1 37 -7q2 -1 15.5 -4.5t27.5 -9.5q26 -13 26 -36q0 -15 -11 -32q-4 -5 -21 -12q-11 -4 -26 -4l-20 1q-7 1 -20 1
t-25 -10.5t-16 -24.5q-1 -3 -1 -11q0 -12 6 -19q6 -8 12 -13.5t10 -10.5q65 -80 106 -161q32 -62 32 -127q0 -68 -55 -106z" />
    <glyph glyph-name="percent" unicode="%" horiz-adv-x="576" 
d="M429.5 445.5q-13.5 -28.5 -16.5 -34.5l-23 -52l-77 -168q-24 -53 -44 -84q-8 -12 -12.5 -27t-5.5 -19q-1 -5 -9 -23l-9 -24q-1 -3 -3 -14.5t-10 -20.5q-13 -17 -28 -17q-18 0 -35 22q-16 19 -14 43q2 53 152 365q23 49 23 50q3 7 11.5 25t10.5 34q0 2 -3 5q-2 2 -4 2
q-3 0 -5 -1q-25 -15 -55 -24.5t-36 -11.5q-20 -8 -30 -13q-3 -1 -5.5 -6t-1.5 -8q5 -16 5 -41q0 -9 -2 -29q-3 -19 -7 -32q-2 -7 -4 -17t-4 -16q-10 -24 -45 -51q-18 -14 -39 -14q-18 0 -37 10q-31 15 -48 48q-9 16 -12 32t-6 47q-1 7 -1 21q0 15 3 30q1 6 3 11.5t3 10.5
q2 5 3 12.5t2 12.5q9 29 24 45q27 30 56 41q10 3 16 2q7 0 27 -6q19 -3 32 -19q4 -7 19 -9q17 -1 42 8q33 12 48.5 20t33.5 19q28 17 37 21q12 5 28.5 20t23.5 27q6 11 18 11h27q22 -1 38 -29q4 -9 2 -22q0 -5 -2 -11q-24 -40 -35 -94q-6 -29 -19.5 -57.5zM135 437
q-2 12 -2 21q0 4 -1 11t-3 8q-1 1 -3 1t-4 -2.5t-3 -3.5q-6 -7 -12 -23q-4 -10 -11 -37q-5 -30 -5 -38q0 -20 8 -32q6 -11 11 -11q9 -1 16 13.5t8 25.5q2 11 2 34q1 12 -1 33zM541 157q0 -57 -35 -106q-23 -32 -55 -51q-27 -16 -50 -16q-37 0 -50 39q-11 32 -11 74
q0 37 8.5 72t24.5 64q17 33 43 39q5 1 13 1q12 0 25 -3.5t16 -4.5q22 -5 36.5 -15t22.5 -31q12 -31 12 -62zM452.5 100.5q9.5 13.5 9.5 40.5q0 12 -3 28q-3 19 -20 19q-10 0 -19.5 -8t-12.5 -22l-4 -32q-1 -7 -1 -22q0 -32 13 -32q5 0 14 6q14 9 23.5 22.5z" />
    <glyph glyph-name="ampersand" unicode="&#x26;" horiz-adv-x="477" 
d="M269 120q-32 -39 -41 -53q-20 -31 -56 -51q-41 -23 -79 -20q-15 0 -32 10q-23 15 -40 46.5t-20 60.5q-1 7 -1 20q0 63 37 137q24 53 46 81q13 18 39 66q2 2 2 5q0 2 -3 11q-1 4 -9 14q-31 46 -32 98l-1 28q0 44 31 74q8 8 31 24q8 5 17 5q5 0 15 -2q12 -4 26 -11.5
t21 -15.5q64 -63 76 -145q1 -4 1 -11q0 -33 -30 -91q-3 -7 -8 -15.5t-10 -19.5q-3 -6 -3 -13q0 -6 3 -14l21 -33q3 -3 6 -3q5 0 8 3q20 19 40 42.5t23 27.5q15 19 27 26q18 14 23 19q9 9 22 9q5 0 8 -1q8 -1 14.5 -10.5t5.5 -17.5q-5 -21 -15 -38q-11 -18 -17 -26t-20 -25
q-17 -20 -30 -42l-21 -30q-10 -13 -10 -31q0 -13 5 -22q3 -7 12.5 -28t20.5 -36q9 -14 19 -39q2 -8 2 -11q0 -10 -8 -20l-15 -17q-8 -8 -19 -8q-20 0 -38 24.5t-28 47.5l-6 16q-1 2 -2.5 4t-2.5 4zM143 129q2 0 7 5l66 81l5 9q3 6 3 12q0 12 -12 22q-2 2 -7 2.5t-8 -1.5
q-13 -8 -21 -19t-20 -33q-3 -6 -11.5 -20t-10.5 -26l-1 -5l1 -8q2 -19 9 -19zM155 584q-8 0 -8 -11q0 -27 9 -53q1 -3 5 -15.5t12 -12.5q9 0 13 13.5t4 28.5l-1 9q-3 17 -15 30q-6 8 -17 11h-2z" />
    <glyph glyph-name="quotesingle" unicode="'" horiz-adv-x="101" 
d="M69 606q-12 -23 -31 -40q-4 -3 -11 -4.5t-12 0.5q-14 5 -15 14l-1 3q-2 11 0 17q6 12 8 19l7 24v4q0 4 -3.5 6t-9.5 4q-5 2 -7 6l-3 6q-1 1 -1 4q0 8 5 15q4 5 11 10q10 7 22 7q2 0 17 -3q12 -3 24 -18q6 -7 7.5 -15.5t1.5 -21.5q0 -17 -9 -37z" />
    <glyph glyph-name="parenleft" unicode="(" horiz-adv-x="244" 
d="M158.5 678q8.5 2 27.5 1q1 0 6.5 -2t10.5 -8q21 -12 21 -43q0 -11 -1 -17q-3 -17 -11 -25q-16 -17 -29 -52q-10 -24 -24 -74q-5 -19 -5.5 -43.5t-0.5 -33.5q-2 -26 -2 -79q0 -112 43 -208q6 -12 27 -61q2 -6 2 -11q0 -8 -3.5 -16t-9.5 -13q-10 -9 -22 -9q-7 0 -16 3
q-24 11 -36 29q-14 20 -21 33q-24 52 -37.5 92t-18.5 82q-9 27 -9 75q0 18 -1 27q0 11 -1 19t-2 14q-1 7 -2 20t-1 23q0 14 4 40q0 6 2 20q7 75 37 152q10 26 28 38q5 3 23 19q13 6 21.5 8z" />
    <glyph glyph-name="parenright" unicode=")" horiz-adv-x="272" 
d="M205 302q-3 -114 -37 -214q-3 -9 -10 -24.5t-10 -27.5q-12 -33 -43 -57q-13 -10 -27 -10q-8 0 -16 4t-11 10q-3 8 -8 22.5t-8 24.5q-1 4 -1 12q0 15 8 32t11 25q7 16 11 28t7 20q9 24 16 58q2 8 2.5 14t0.5 10q2 22 5 32q8 21 8 55l1 66q0 45 -6 74q-21 98 -59 156
q-3 5 -5 10t-5 10q-5 10 -5 19q0 13 6 22q7 13 20 15.5t36 1.5q18 0 28 -16q15 -23 26 -44l10 -18l24 -50q17 -31 22 -67q2 -18 4 -25q8 -54 8 -82q0 -23 -1 -35q0 -17 -2 -51z" />
    <glyph glyph-name="asterisk" unicode="*" horiz-adv-x="310" 
d="M175 646q2 8 8 18.5t9 17.5q5 11 20 11q14 0 22 -8q5 -3 5 -6q5 -13 5 -23q0 -9 -4 -16q-16 -34 -26 -50q-1 -1 -1 -3q0 -3 2 -5.5t6 -2.5l17 1q18 0 30 -6q9 -5 11 -12q1 -2 1 -7q0 -12 -9 -17q-21 -11 -41 -17q-11 -3 -14 -15q2 -5 5.5 -12t7.5 -16q8 -14 11 -21l6 -15
v-4q0 -7 -4 -13t-11 -8q-8 -2 -11 -2q-10 0 -20 8q-20 18 -25 25t-15 14q-1 1 -4.5 1t-6.5 -2q-17 -16 -29 -43l-24 -59q-2 -7 -6 -11q-1 -3 -5 -5t-8 -2q-14 4 -22 10q-3 1 -5 6q-3 14 -3 26q0 15 5 25l6 18t9 20q4 7 7.5 18t5.5 15q2 3 2 9q0 7 -11 6q-6 0 -20 -2
q-7 0 -11.5 1t-8.5 2q-21 4 -30 29q-1 1 -1 4q0 5 2.5 10.5t6.5 6.5q33 13 55 13q10 0 15 -1l12 1q3 0 5.5 3.5t1.5 5.5l-2 8l-12 25q-12 18 -12 50q0 3 2 6t4 4q9 3 18 3q6 0 9 -1q9 -3 17 -11l33 -35q14 14 20 30z" />
    <glyph glyph-name="plus" unicode="+" horiz-adv-x="377" 
d="M263 146l-1 -37q0 -10 1 -20t1 -21q0 -28 -25 -64l-4 -3h-5h-8q-16 0 -24 8q-20 20 -25 51.5t-6 82.5q0 23 -1 33q-1 12 -7 16.5t-17 4.5q-12 0 -18 -1q-16 -3 -36 -3q-36 0 -57 12q-10 5 -16.5 18t-3.5 25q1 7 7.5 11.5t16.5 8.5q22 10 45 11q10 1 23.5 1.5t22.5 2.5
q11 1 22 9q4 3 4 32q0 44 -4 84q-2 28 -9 45q-1 2 -1 5q0 6 5.5 12t11.5 10q11 8 25 8q3 0 11 -2q20 -8 32 -24q7 -8 9 -19.5t3 -15.5q12 -43 17 -98q2 -16 2 -23q0 -5 3.5 -9.5t8.5 -4.5q28 -2 41 -7q2 -1 6 -2.5t8 -4.5q5 -3 8 -12.5t3 -16.5q0 -14 -3.5 -22.5
t-14.5 -16.5q-3 -2 -23.5 -6t-26.5 -8q1 -16 -1 -50z" />
    <glyph glyph-name="comma" unicode="," horiz-adv-x="120" 
d="M96.5 36.5q1.5 -8.5 1.5 -21.5q0 -18 -9 -37q-12 -24 -31 -40q-4 -3 -11 -4.5t-12 0.5q-14 5 -15 13q-1 2 -1 5q-2 10 0 15q7 16 8 20l7 24v4q0 4 -3.5 6t-9.5 4q-5 2 -7 6l-3 6q-1 1 -1 4q0 5 5 15q4 5 11 10q8 6 23 6q6 0 16 -2q12 -3 24 -18q6 -7 7.5 -15.5z" />
    <glyph glyph-name="hyphen" unicode="-" horiz-adv-x="259" 
d="M232 290q2 -8 -1 -11q-4 -8 -8 -12q-5 -3 -11 -9t-13 -7q-9 -2 -19 -5t-25 -2q-6 0 -9 0.5t-5 0.5q-5 0 -9 -1q-36 -6 -54 -6q-7 0 -23 2q-26 3 -46 25q-9 9 -9 25q0 8 5 16t12 9l12 1q11 0 24.5 2t19.5 3l58 5q7 1 16 3.5t20 2.5q7 0 21 -2q18 -3 25 -7.5t15 -21.5
q2 -3 4 -11z" />
    <glyph glyph-name="period" unicode="." horiz-adv-x="116" 
d="M94 44q3 -11 1 -20q-1 -4 -3 -17t-7 -19t-15 -11t-22 -5q-15 0 -26 7.5t-12 21.5q-1 31 14 56q4 7 9.5 9t22.5 4q21 -7 28 -11t10 -15z" />
    <glyph glyph-name="slash" unicode="/" horiz-adv-x="395" 
d="M6 78q11 29 39.5 93.5t41.5 85.5q13 20 23 38q46 84 78 169q9 24 52 99q9 16 31 57q13 25 36 46q6 5 16 8q7 3 13 1q7 -2 13.5 -6t14.5 -7q7 -2 11.5 -10t2.5 -15q-5 -24 -17 -36l-4 -3q-13 -12 -25.5 -33.5t-30.5 -57.5l-15 -29l-14 -26q-15 -29 -28 -52
q-11 -18 -37 -71l-34 -68l-63 -136l-10 -22q-16 -34 -22 -52q-8 -21 -26 -41q-10 -10 -23 -10q-10 0 -18 6t-9 15l-2 22q0 19 6 35z" />
    <glyph glyph-name="zero" unicode="0" horiz-adv-x="398" 
d="M20 309q0 54 2 79t9 48.5t27 78.5q26 74 95 100q15 5 18 9q6 8 14 12.5t17.5 8t15.5 5.5q14 6 25 6q14 0 26 -8q6 -4 15 -9t15 -8q16 -11 20 -27q23 -75 29 -98q2 -9 4 -27q1 -9 2 -22.5t4 -31.5l3 -22q2 -11 4 -31q1 -17 0.5 -29.5t-0.5 -20.5v-25v-48q0 -3 -1 -20.5
t-7 -32.5q-3 -7 -4 -17.5t-2 -16.5q-19 -95 -90 -146q-29 -21 -69 -21q-15 0 -30 3q-4 1 -12 5q-6 4 -22 14t-28 19t-21 20q-23 28 -33 59q-19 65 -22.5 86.5t-3.5 87.5v13v7zM213 115l35 57q13 20 14 40q1 6 2 15t1 21l-2 228q0 15 -6 43q-1 6 -5 14l-6 12q-2 2 -6.5 4
t-8.5 2t-8 -2q-15 -8 -23.5 -14.5t-12.5 -15.5q-43 -86 -43 -157q0 -36 9 -90l6 -46q3 -22 17 -71l9 -33q1 -4 7 -9t8 -7q11 6 13 9z" />
    <glyph glyph-name="one" unicode="1" horiz-adv-x="304" 
d="M173.5 6q-7.5 3 -13.5 12q-9 14 -19 41q-5 15 -7 33.5t-2.5 35t-0.5 21.5v21q0 36 1 54l7 51q5 33 5 99l2 22q0 11 -5 13q-13 6 -36 -12q-14 -12 -42 -23q-12 -4 -18 -5q-6 -2 -13 -2t-12.5 6.5t-6.5 8.5q-7 8 -10 15q-3 6 -3 14q0 13 6 20q5 7 14 16t15 16q8 8 17 21
t15 20q27 36 66 71l39 30q2 1 8 5.5t12 4.5q4 0 7.5 -3t7.5 -5q23 -10 31 -23q8 -16 12 -46q2 -14 2 -22l-1 -30q-1 -18 -1 -54v-27q0 -18 -1 -27q-1 -16 -3 -28.5t-3 -21.5q-3 -27 -3 -53l1 -54q2 -31 -2 -64q-6 -38 -8 -53q-1 -11 -1 -31q-1 -7 -1 -21q-1 -20 -17 -36
q-2 -3 -5 -6.5t-6 -5t-9 -1.5q-11 0 -18.5 3z" />
    <glyph glyph-name="two" unicode="2" horiz-adv-x="426" 
d="M118 5q-24 0 -40.5 2t-31.5 9q-16 9 -24 26q-4 7 -6 12.5t-3 8.5q-7 18 -8 23q-5 18 -5 32q0 28 16 58q2 3 14 23q7 8 11 17q4 7 11 19t13 20q9 12 18 21q13 16 14 17l31 35q22 28 32 43q18 28 29 41q10 13 20.5 30.5t14.5 23.5q5 8 13 24q1 2 1 7q0 9 -5.5 15.5
t-14.5 5.5q-8 -1 -16 -8q-14 -8 -20 -13q-14 -11 -42 -35q-24 -22 -33 -27q-8 -6 -17 -2t-20 13q-2 2 -9.5 8t-12 13t-4.5 14q0 8 7 17q3 5 6 10.5t8 12.5q24 35 59 58.5t77 34.5q18 4 28 4q11 0 21 -3q17 -4 41 -21q6 -4 14 -12l13 -13l25 -27q30 -32 30 -60q0 -20 -17 -48
q-1 -2 -11 -17q-2 -4 -17 -29q-4 -7 -21 -36t-34 -52q-17 -24 -39.5 -49t-27.5 -31q-48 -52 -70 -80l-15 -20q-11 -13 -14 -21q-1 -2 -1 -7q0 -8 5 -14.5t13 -7.5q3 -1 8 -1q8 0 20 2.5t21 3.5q8 0 22 1t24 2q27 3 33 3q14 0 21 -4q17 -10 21 -21q3 -15 2 -20q0 -2 -5 -5
t-6 -4q-4 -4 -9 -6t-7 -3q-40 -14 -70 -14z" />
    <glyph glyph-name="three" unicode="3" horiz-adv-x="353" 
d="M96 13q-7 2 -18 11q-14 10 -20 16q-18 15 -24 37q-6 20 -6 31q0 20 23 37q8 8 13 8q13 0 23 -5q9 -3 14 -9t9 -13t6 -11q1 -1 4 -7.5t9 -9.5q6 -2 9 -2q8 0 12 3q5 3 15 16l15 24q20 30 24 47q3 13 3 29v20q-2 26 -18 35q-9 5 -16 4q-18 -4 -27 -5q-5 -1 -18 -4.5
t-24 -3.5q-12 0 -25.5 7.5t-18.5 18.5q-6 10 -7 24.5t-2 20.5q-2 26 10 49q6 10 15.5 22t13.5 17q6 7 13 16t16 20l34 34q1 2 6.5 9t4.5 12q-2 9 -23 9q-13 0 -31 -2.5t-26 -3.5q-5 -1 -15 -1q-8 0 -24 2q-9 2 -15.5 8t-14.5 17q-3 4 -7.5 9.5t-6.5 8.5q-1 2 -1 5q0 9 7 14
q5 4 12.5 7t10.5 4l27 9q23 5 51 7q56 2 86 -9q21 -9 43 -24q23 -16 32 -34q6 -14 6 -38q-1 -13 -9.5 -27t-10.5 -18q-15 -30 -43 -90q-2 -3 -1 -4l5 -5l20 -20q6 -6 17.5 -16.5t18.5 -19.5q14 -17 23 -37q9 -22 9 -36q0 -7 -1 -10q-2 -7 -3 -18.5t-2 -18.5q-1 -8 -5 -19
l-6 -20q-7 -24 -11 -34q-7 -15 -18 -31l-21 -28q-4 -5 -11 -14t-13 -14q-9 -6 -31 -12t-35 -6q-25 0 -51 12z" />
    <glyph glyph-name="four" unicode="4" horiz-adv-x="390" 
d="M231 7q-12 11 -21 27t-10 30q0 59 -1 89q0 21 -6 29q-6 9 -22 13q-11 2 -25.5 1.5t-20.5 -0.5q-33 0 -49 1h-16.5t-24.5 5q-14 7 -20 19t-9 26t-5 21q-1 4 -1 11q0 12 3.5 25t4.5 18q4 17 20 47t25 45q19 34 52 81l29 38q7 10 27 43q8 12 14 19t17 11q8 4 20 4
q6 -1 23 -8q6 -3 19.5 -9t23.5 -12q16 -9 18 -33q3 -22 5 -130q0 -115 5 -145q0 -4 7 -12.5t7 -26.5q0 -12 -6 -19t-7 -9q-2 -8 -2 -23q0 -32 2 -74q2 -40 2 -64q0 -23 -9 -35q-14 -17 -33 -17q-20 0 -36 14zM142 354q-4 -7 -14 -21q-8 -10 -15 -21.5t-10 -23.5
q-1 -2 -3.5 -9.5t-2.5 -12.5q0 -10 9 -13q12 -4 30 -4q14 0 20 1q18 0 23 4q10 7 10 18q0 65 -1 98q0 19 -5 29q0 1 -2 1q-8 0 -39 -46z" />
    <glyph glyph-name="five" unicode="5" horiz-adv-x="370" 
d="M124 16q-8 5 -27 14.5t-30 21.5q-10 12 -18 29t-9 31q-4 20 11.5 37t36.5 17q15 0 24 -8t20 -25q12 -18 19 -24q12 -9 19 -9q12 0 22.5 20t12.5 23q18 31 21 80q2 38 1 56q0 9 -2 27q0 2 -1 10t-5 13q-6 9 -14 9q-5 0 -11.5 -3t-8.5 -4q-26 -12 -43 -24q-6 -4 -16.5 -14
t-22.5 -12h-2q-5 0 -15 6q-10 4 -20 11q-23 15 -38.5 43.5t-22.5 59.5q-5 26 -5 78v22q0 30 4 51q4 16 7 24q4 14 9 20q9 9 32 11q8 1 22 1h22q11 1 31 5q8 2 24 4q21 1 61 -5q32 -5 48.5 -8t32.5 -12q18 -11 22 -26q3 -20 -7 -39q-7 -11 -24 -11l-15 1q-9 0 -35 2
q-22 3 -45 3q-37 0 -55 -14q-4 -3 -7 -10q-14 -35 -14 -60t18 -31l5 -1q8 0 18 4q5 1 13 3.5t13 3.5q29 3 52 -9q12 -7 32 -25q13 -13 20.5 -27.5t14.5 -35.5q14 -41 18 -99q2 -28 2 -43q0 -40 -12 -68q-21 -45 -53 -77q-10 -10 -16 -13q-5 -3 -11.5 -4.5t-9.5 -2.5
q-27 -9 -47 -9q-25 0 -46 12z" />
    <glyph glyph-name="six" unicode="6" horiz-adv-x="352" 
d="M86 32q-31 29 -43 70q-3 10 -8 22l-9 26q-6 20 -6 54l1 49v26q0 6 1 34.5t6 52.5q11 50 33.5 111t47.5 103q12 20 27 36q19 19 38 22q11 1 22 -4.5t16 -15.5q2 -4 4 -19v-27q-1 -12 -10 -46q-1 -5 -20 -64l-12 -35q-1 -5 -3 -11.5t-4 -13.5v-2q0 -9 8 -17q7 -5 20 -5
l21 1q14 0 22 -6q22 -18 32 -28q9 -10 25 -38q2 -4 9.5 -18t9.5 -27q3 -13 3 -28q0 -44 -29 -119q-20 -54 -46.5 -87.5t-71.5 -33.5q-42 0 -84 38zM136.5 153.5q-0.5 -20.5 2.5 -36.5q5 -22 18 -38l5.5 -5.5t11.5 -4.5h2q10 0 15 8q8 17 14 45l10 52q5 30 4 53
q0 3 -0.5 12.5t-3.5 17t-8 11.5q-7 5 -14 5q-10 0 -24 -8q-9 -6 -16 -19q-10 -18 -12 -28q-4 -11 -4 -36q0 -8 -0.5 -28.5z" />
    <glyph glyph-name="seven" unicode="7" horiz-adv-x="371" 
d="M135.5 -10.5q-10.5 4.5 -14.5 12.5q-5 8 -7 13.5t-4 15.5q-6 24 -6 38l1 11q7 55 8 73q1 16 1 49q1 10 -3.5 20t-13.5 11q-9 2 -24 3.5t-25 6.5t-15 17q-2 6 -2 12q0 9 3 12q5 6 15 7.5t13 2.5l16 3q6 2 11.5 4t11.5 4q11 2 21.5 12t12.5 21q2 9 4.5 21.5t4.5 29.5l4 26
q2 7 4 25q3 21 3 26q0 14 -6 20q-6 7 -17 3q-4 -2 -10.5 -6t-10.5 -7q-30 -13 -45 -12q-9 1 -16 5.5t-12.5 9.5t-7.5 7q-23 23 -28 37q-2 8 -2 13q0 15 8 20q8 7 23.5 11.5t22.5 7.5q13 5 30 9.5t25 6.5l25 6q23 6 40 6q24 0 54 -11q11 -3 21.5 -8t17.5 -12q6 -5 12 -19
q6 -12 9 -25q8 -26 8 -48v-13q0 -16 -4 -27q-8 -28 -13 -42q-5 -13 -7 -20q-7 -16 -10 -26q-1 -3 -1 -9q0 -13 15 -16q3 -1 14 0.5t22 1.5q19 0 27 -7q3 -3 4 -11.5t1 -12.5q0 -5 -2 -11q-3 -14 -9.5 -20.5t-22.5 -9.5l-52 -10q-10 -2 -18 -8.5t-11 -16.5l-2 -12l-2 -12
q-1 -9 -5 -27q-2 -9 -5.5 -21.5t-6.5 -28.5q-9 -49 -17 -76q-10 -31 -12 -37q-1 -1 -6 -12t-15 -11q-12 0 -22.5 4.5z" />
    <glyph glyph-name="eight" unicode="8" 
d="M34.5 403q-1.5 8 -2.5 12t-2 11.5t-1 13.5t1 10q1 8 3.5 19.5t3.5 18.5q5 34 16 59q18 44 50 70q24 18 43 19q6 0 13 -2t10 -3q8 -2 14 -2.5t10 -0.5q21 -3 32 -16q11 -10 19 -33l18 -49q9 -29 9 -41q1 -8 -0.5 -19.5t-2.5 -17.5q-4 -33 -12 -47q-3 -5 -10 -13.5
t-7 -15.5q1 -4 13.5 -19t13.5 -18q3 -6 6 -10.5t5 -8.5q6 -10 9 -23l7 -21q2 -9 3.5 -20.5t1.5 -20.5q0 -83 -5 -109q-2 -15 -14 -46t-21 -42t-25 -22q-27 -20 -64 -20q-13 0 -26 3q-34 7 -71 52q-29 32 -44 71q-18 49 -18 80q0 11 1 17q0 4 3 26t12 41q5 11 17 31
q3 7 6.5 15.5t7.5 17.5q-4 8 -10 19.5t-9 20.5q-2 5 -3.5 13zM121 281q0 -25 -3 -51q-2 -32 -2 -49q1 -7 0.5 -12t-0.5 -9q0 -8 2 -22q3 -23 20 -49q8 -12 17 -12q6 0 10 7q17 33 26 65q11 44 11 64v28q0 39 -1 58q-1 6 -2.5 12t-6.5 9q-2 1 -9 8t-15 6q-21 -1 -35 -19
q-12 -12 -12 -34zM170 535q-3 7 -9 7q-4 0 -7 -4.5t-4 -6.5q-8 -13 -13 -34q-3 -13 -3 -26q0 -14 4 -26q2 -13 7 -18q8 -8 18 -8q7 0 10 4q11 14 11 41q0 4 -3 37q-1 16 -11 34z" />
    <glyph glyph-name="nine" unicode="9" horiz-adv-x="362" 
d="M143 20q-10 12 -12 19q-1 2 -1 5q0 5 2.5 11t3.5 8l20 50l27 62q1 3 5 10.5t6 14.5q1 3 3.5 6.5t-0.5 6.5q-3 5 -26 4.5t-26 0.5q-22 3 -37 13q-7 4 -15 12t-15 13q-14 10 -30 33q-28 38 -28 103q0 13 2 41l1 41v24q0 16 1 24q5 26 22 60q7 15 18 24.5t30 21.5
q3 2 14.5 9t22.5 10q8 2 12 2q8 0 28 -6q2 0 16 -2h15q19 0 30 -3q13 -4 21 -9q6 -2 11 -9t7 -9q4 -5 17.5 -18t16.5 -23q4 -11 5.5 -26.5t2.5 -21.5q1 -14 6 -28q5 -20 6 -38q3 -88 -20 -186l-12 -50q-6 -21 -21 -61t-27 -68q-3 -10 -17 -39q-2 -5 -7.5 -19t-12.5 -22
q-5 -5 -14.5 -9.5t-16.5 -4.5q-14 0 -34 23zM187 564l-15 -14q-8 -10 -21 -38q-5 -10 -8 -24t-5 -20q-7 -27 -7 -64q0 -34 6 -64q1 -10 8 -20q6 -12 12 -16q6 -2 9 -2q11 0 25 14q12 12 19 26.5t15 37.5q8 24 10 36t4 38q-1 16 -4 35.5t-4 27.5q-1 6 -2 18t-4 20
q-2 7 -7 12.5t-13 5.5q-7 0 -18 -9z" />
    <glyph glyph-name="colon" unicode=":" horiz-adv-x="146" 
d="M110 250q0 -13 -11 -22q-1 -1 -13 -10l-13 -7q-10 -7 -21 -7q-13 0 -28 10q-8 6 -10 18q-1 5 -2.5 12t-1.5 12q0 18 24 39q14 13 29 13q17 0 38 -21q6 -7 7 -17.5t2 -14.5v-5zM93.5 70.5q5.5 -7.5 5.5 -25.5v-9q-2 -18 -2 -23q-1 -10 -9 -16.5t-18 -6.5q-11 0 -31 10
q-13 6 -18 20q-2 6 -3.5 13t-3.5 13q-1 3 -1 8q0 7 4.5 14t11.5 9q11 6 25 9q2 1 6 1q6 0 10 -2q18 -7 23.5 -14.5z" />
    <glyph glyph-name="semicolon" unicode=";" horiz-adv-x="161" 
d="M36 234q-1 5 -2.5 11.5t-1.5 10.5q0 16 22 35q12 11 25 11q18 0 35 -19q6 -6 6.5 -15.5t0.5 -12.5l1 -5q0 -11 -10 -19l-12 -9l-12 -6q-8 -5 -18 -5q-12 0 -25 8q-7 4 -9 15zM116.5 36.5q1.5 -8.5 1.5 -21.5q0 -17 -9 -37q-12 -23 -31 -40q-4 -3 -11 -4.5t-12 0.5
q-14 5 -15 13q-1 2 -1 5q-2 10 0 15q7 16 8 20l7 24v4q0 4 -3.5 6t-9.5 4q-5 2 -7 6l-3 6q-1 1 -1 4q0 5 5 15q4 5 11 10q8 6 23 6q6 0 16 -2q12 -3 24 -18q6 -7 7.5 -15.5z" />
    <glyph glyph-name="less" unicode="&#x3c;" horiz-adv-x="268" 
d="M223.5 453.5q-2.5 -9.5 -3.5 -15.5q-2 -5 -6.5 -20.5t-10.5 -27.5l-19 -29q-4 -5 -10.5 -15t-10.5 -18q-5 -9 -10 -20.5t-8 -17.5q-2 -3 -9 -14.5t-5 -19.5q3 -29 22 -57q32 -44 52 -65q23 -26 23 -57l-1 -11q-1 -6 -5.5 -11.5t-10.5 -6.5q-7 -3 -16 -3q-10 0 -18 4
q-18 9 -24 16l-24 24t-28 34q-3 4 -17 21q-12 14 -17 21l-14 27q-6 12 -14 26q-11 22 -11 49q0 12 1 18q0 5 4 15q3 7 8 19.5t10 20.5l25 38q35 53 50 72q14 19 30 39q7 10 24 17q8 4 17 4q20 0 28 -26q2 -5 2 -15q-1 -6 -3.5 -15.5z" />
    <glyph glyph-name="equal" unicode="=" horiz-adv-x="320" 
d="M293 367.5q1 -6.5 -1 -11.5q-2 -2 -4 -5.5t-5 -7.5q-16 -14 -32 -18q-8 -2 -24.5 -6.5t-36.5 -3.5q-25 0 -38 -2q-6 -1 -27 -5t-39 -4q-11 0 -16 1q-29 5 -49 25q-11 11 -11 26q0 10 5 18.5t12 9.5q4 1 13 1q10 1 23.5 3.5t22.5 3.5q13 3 23 4t17 2l21 3q40 7 52 7h7
q16 0 30.5 -5t28 -12.5t20.5 -10.5l3 -4q4 -2 5 -8.5zM269 227q0 -9 -1 -13q-2 -9 -7 -12.5t-11 -5t-9 -2.5q-14 -4 -52 -6q-6 0 -21.5 -1t-27.5 -3q-35 -5 -58 -4q-27 10 -39 19.5t-17 34.5v2q0 6 3.5 11.5t8.5 6.5q52 12 107 12q21 0 31 -1q17 -1 41 -6.5t39 -12.5
q11 -6 13 -19z" />
    <glyph glyph-name="greater" unicode="&#x3e;" horiz-adv-x="304" 
d="M138 313q-12 9 -18 14l-69 62l-7 8q-10 13 -10 34l1 10q1 13 7.5 24t19.5 10q10 -2 14 -2q16 -1 36 -16q19 -15 57 -47q7 -6 17 -15t24 -20q22 -17 32 -48l5 -14q4 -14 4 -20q0 -14 -8 -28q-24 -47 -36 -64l-30 -44l-30 -45q-22 -29 -31 -50q-4 -10 -13 -21
q-16 -18 -33 -18q-8 0 -25 5q-3 2 -7 7q-8 14 -8 30q0 13 4 22q17 43 38 74q46 68 68 102q2 4 8.5 12.5t6.5 18.5q-5 10 -17 19z" />
    <glyph glyph-name="question" unicode="?" horiz-adv-x="362" 
d="M331 548q0 -11 -1 -17q-2 -11 -8.5 -22t-9.5 -15q-11 -7 -27 -27q-5 -9 -15 -19q-20 -20 -26 -37q-2 -7 -11 -18q-26 -28 -58 -83q-6 -11 -20 -33q-19 -31 -20 -59q-1 -16 -1 -48q-1 -12 -13 -24t-25 -12q-7 0 -21 2q-19 5 -25 23q-5 14 -6 26q-2 10 -2 26q-1 56 22 107
q22 51 56 86q24 24 49 67q6 11 20 31q3 5 32 47q2 3 4 15q1 2 -2.5 7t-5.5 5q-6 2 -10 1q-44 -5 -69 -30l-13 -16q-18 -22 -51 -34q-8 -2 -12 -2q-13 0 -22 8q-20 17 -20 41q0 12 4 20q14 36 45 55q36 22 74 35q29 10 61 10q21 0 40 -3q29 -4 44 -23l11 -11q32 -35 32 -79z
M145 53.5q6 -17.5 5 -29.5v-2q0 -10 -10 -17q-18 -13 -37 -16q-3 -1 -8 -1q-11 0 -22 4.5t-16 11.5q-3 4 -5.5 12.5t-4.5 12.5t0.5 18.5t6.5 17.5q7 6 16 8t13 3q5 1 9.5 2t9.5 2q8 3 13 3q9 0 16 -6q8 -6 14 -23.5z" />
    <glyph glyph-name="at" unicode="@" horiz-adv-x="621" 
d="M359 219q-27 -43 -45 -64t-50 -41q-10 -6 -25 -6q-17 0 -39 9q-22 8 -33.5 32t-11.5 57q0 28 10 65q18 63 47.5 99t89.5 50q3 1 18 4.5t27 3.5q4 0 10 -2q28 -14 40 -36q5 -9 9.5 -13t12.5 -5q10 -2 13 -13q2 -7 6.5 -21.5t4.5 -26.5q-1 -14 5 -44l4 -23q4 -26 15 -36
q17 12 21.5 52t4.5 88q0 47 -26.5 84t-68.5 59q-31 16 -61 16q-35 0 -68 -20t-73 -57q-30 -28 -49 -70t-25 -89q-6 -44 -6 -70q0 -57 21 -91q17 -28 48 -51t60 -23q3 0 25 6q37 11 53 11q39 0 36 -43q-2 -17 -11 -24q-47 -44 -98 -44q-23 0 -45 7q-51 15 -89.5 55
t-58.5 94.5t-20 113.5q0 11 2 33q3 32 10 64.5t19 55.5q47 94 126.5 158t169.5 64q49 0 81 -18t47 -28t29 -26t25 -43q27 -63 27 -140q0 -39 -7 -71q-6 -28 -21.5 -63t-38 -60t-47.5 -25q-29 0 -55 36q-11 14 -20.5 48.5t-10.5 34.5q-8 -1 -14 -13zM269.5 209.5
q6.5 3.5 14.5 15.5q13 17 22 27q47 47 47 77q0 9 -4 14q-2 4 -4.5 4.5t-7.5 -2.5q-19 -11 -35 -27q-4 -3 -18.5 -16t-20.5 -23q-19 -34 -24 -46q-3 -6 -3 -12t2.5 -10t5.5 -4q19 -1 25.5 2.5z" />
    <glyph glyph-name="A" unicode="A" horiz-adv-x="467" 
d="M395 128q0 -34 -26 -73q-6 -10 -18 -10q-4 0 -10 2q-29 11 -40 31l-27 46q-10 17 -12 43q-2 34 -4 50l-2 23q-1 5 -8 8.5t-12 0.5l-59 -33q-24 -11 -26 -41q-4 -41 -16 -99l-8 -45q-1 -10 -11 -44q-4 -12 -14 -20t-22 -8q-3 0 -11 2q-33 11 -51 33t-18 61q0 19 8 59
q5 25 14 88l7 50q1 9 3 29.5t6 30.5l11 41q7 30 17 92q7 38 24 87q14 40 40 90q7 15 28 45q23 34 60 34q13 0 20 -2q25 -7 54 -22q20 -11 31 -42q17 -40 19 -60q1 -21 9 -63q6 -24 9 -50q2 -26 2 -39q1 -20 3 -41t7 -38q7 -23 9 -69q0 -7 0.5 -17.5t2.5 -24.5q8 -67 10 -93
q1 -4 1 -12zM211 543q-4 -8 -10 -26q-5 -14 -11 -42q-13 -69 -17 -111q-1 -5 5.5 -9t12.5 -3l38 16q8 4 12 12.5t1 17.5q-8 26 -12 80q-2 24 -4 38q0 3 -1 13.5t-4 14.5q-6 7 -10 -1z" />
    <glyph glyph-name="B" unicode="B" horiz-adv-x="428" 
d="M266 372l20 -2q24 -3 45 -22.5t23 -41.5q1 -7 1 -22q0 -27 -7 -52q-13 -45 -37 -85.5t-60 -88.5q-3 -4 -9.5 -9t-9.5 -7q-22 -16 -42 -16q-18 0 -42 16l-7.5 7.5t-11.5 3.5q-3 -1 -8 -6t-9 -7l-5 -1q-6 0 -14 3.5t-12 5.5q-14 7 -26 21q-19 23 -29.5 57t-18.5 78
q-7 37 -7 97q0 38 1 57l3 83q2 54 12 94q3 15 3.5 35.5t0.5 30.5q1 19 16 47q6 11 16 17t22 6q9 0 19 -5q9 -4 19 -11.5t16 -11.5q16 6 24 8q38 13 61 23q31 12 78 12q36 0 57 -35q7 -12 7 -23q0 -6 -1 -9q-27 -88 -68 -151l-47 -70q-2 -4 -10 -22q11 -2 37 -4zM128 152
q5 -13 17 -16q10 -3 21 -3q24 0 38 20q22 29 36 65q2 5 7.5 17t4.5 23q-2 11 -10 21q-1 2 -6 2q-6 0 -9 -1q-8 -1 -16 -6l-48 -33l-20 -14q-12 -7 -16.5 -19t-2.5 -33q0 -8 4 -23zM186.5 502.5q22.5 32.5 40.5 68.5l6 16v2q0 3 -2.5 5.5t-6.5 2.5q-13 -1 -23 -6t-18.5 -10.5
t-10.5 -7.5q-43 -30 -48 -84q-3 -36 -3 -52q0 -18 3 -18q40 51 62.5 83.5z" />
    <glyph glyph-name="C" unicode="C" horiz-adv-x="432" 
d="M270 682q20 0 35.5 -9.5t24.5 -27.5q4 -7 4 -15q0 -9 -4 -17q-9 -19 -36 -33q-10 -4 -16 -4q-25 1 -41 -10.5t-33 -34.5q-58 -82 -69 -168q-15 -37 -15 -91q0 -17 2 -49q1 -14 5 -32t6 -26q9 -40 49 -75q18 -15 46 -15q24 0 40 12q17 14 31 28l25 22q13 11 26 20q4 2 9 0
q11 -3 20.5 -13.5t10.5 -21.5q2 -25 -7 -40q-50 -80 -130 -114q-23 -10 -48 -10q-26 0 -49 10q-85 35 -124 107q-8 17 -10 23q-3 17 -7 29q-13 49 -14 83l-1 51q0 45 6 75q5 26 13.5 56t11.5 40l6 22q14 56 42 99q14 23 36 50q14 18 13 16q16 20 25 28q45 36 80 36
q9 0 14 -1h23z" />
    <glyph glyph-name="D" unicode="D" horiz-adv-x="407" 
d="M50 121q-12 34 -12 88l1 33q0 55 -3 85q-1 19 -0.5 33.5t0.5 24.5q2 29 0 56v44v92q0 8 -9 26q-10 16 -10 27q0 22 21 35.5t45 14.5q18 1 31.5 0.5t22.5 -0.5q29 0 52.5 -13t49.5 -37q8 -7 17.5 -21t15.5 -21q25 -31 38 -68t21 -85q4 -25 5 -34q2 -22 2 -34
q0 -46 -15 -91q-26 -74 -80 -150q-18 -25 -27 -33l-112 -104q-13 -12 -35 -12q-15 0 -27.5 6t-19.5 18t-7 22q0 11 5 18q8 13 20.5 28.5t18.5 22.5zM143 440q0 -23 1 -44t1 -25q-4 -59 -5 -91l-3 -45l-1 -18q0 -16 8 -24q1 -1 3.5 0t4.5 3q28 33 39 50t15 35.5t7 57.5l2 34
l1 15q0 44 -21 83q-14 24 -22 36q-3 4 -13 9q-4 0 -5 -1q-12 -6 -12 -75z" />
    <glyph glyph-name="E" unicode="E" horiz-adv-x="407" 
d="M6 423v10q0 7 1 10q8 24 8 52q0 34 -10 64v3q0 5 4 12t7 9l8 4l49 12q106 24 158 43q22 9 47 9q7 0 23 -2q22 -3 35 -26q4 -7 4 -17q0 -15 -7 -19q-16 -14 -29 -22q-79 -47 -159 -60q-4 -1 -9.5 -8.5t-5.5 -12.5q0 -33 1 -49q1 -10 7.5 -16.5t16.5 -7.5h18q11 0 17 -1
q14 -3 25 -10q13 -6 23.5 -20.5t7.5 -22.5q-8 -33 -43 -46q-8 -3 -17 -3q-26 -1 -36.5 -4t-14 -10.5t-3.5 -26.5l1 -119q0 -29 21 -52q8 -11 19 -11q6 0 12 3q23 14 53 48q16 18 28.5 29.5t27.5 19.5q4 2 10 2q9 0 15 -5q42 -32 42 -63q0 -23 -27 -58q-44 -60 -117 -84
q-14 -4 -21 -4q-6 0 -14 2q-51 11 -95.5 33t-57.5 57q-15 38 -22 62.5t-7 53.5q0 36 2 114z" />
    <glyph glyph-name="F" unicode="F" horiz-adv-x="385" 
d="M340 572q-4 -15 -17 -24t-29 -10q-30 -2 -45 -2l-22 -1q-18 -2 -30 -14t-12 -29l1 -20q2 -26 2 -39q1 -34 3 -44.5t13 -13.5t43 -2q12 0 24 -3q10 -1 20 -14.5t10 -25.5q0 -19 -17 -33q-6 -3 -12 -5t-11 -5q-37 -15 -46 -19q-13 -7 -14 -19q-2 -42 -2 -64q0 -58 12 -102
q3 -10 3 -21q0 -17 -9 -35q-4 -7 -10 -23q-5 -10 -14.5 -15t-21.5 -5q-11 0 -20.5 4.5t-14.5 12.5q-59 84 -59 204q0 7 0.5 17.5t-0.5 24.5q-1 9 -8.5 18.5t-9.5 14.5q-6 14 -6 28q0 21 10 35q2 3 7.5 10.5t5.5 13.5q0 67 -1 101q-2 33 -26 49q-19 13 -30 29q-7 8 -7 20
q0 19 18 29q4 2 10.5 6t12.5 5q36 13 100 26q12 2 21 4.5t15 4.5q17 5 36 9t35 4q19 0 55 -12l20 -6q15 -4 22 -23q2 -18 -5 -41z" />
    <glyph glyph-name="G" unicode="G" horiz-adv-x="467" 
d="M242 321.5q0 13.5 -1 21.5q-4 15 -12 22q-5 4 -17.5 10t-20 13t-11.5 22q-3 5 -3 9q0 11 7 14q42 22 91.5 30t110.5 9q13 0 21 -14q6 -10 6 -26q0 -14 -4.5 -26t-13.5 -18l-20 -16q-17 -13 -17 -37q0 -13 2 -37q2 -38 2 -57q0 -34 -10 -76q-20 -83 -87 -131
q-43 -30 -74 -39q-7 -3 -18 -3q-9 0 -15 3q-28 15 -44.5 26t-29.5 28l-26 34q-53 73 -55 167l-1 36q-2 52 -2 79q0 41 4 73q5 47 21.5 92t42.5 83q58 87 145 84q18 0 32 -15.5t14 -34.5q0 -16 -7 -29.5t-20 -20.5q-6 -4 -24 -8q-24 -7 -38 -32q-32 -59 -32 -140q0 -41 7 -97
q8 -72 7 -107q0 -16 5 -30.5t15 -35.5q6 -11 14 -11q10 0 21 17.5t19.5 39.5t9.5 31q2 17 7 74q-1 10 -1 23.5z" />
    <glyph glyph-name="H" unicode="H" horiz-adv-x="533" 
d="M465 110q1 -27 -2.5 -48t-12.5 -42q-5 -11 -22 -11q-9 0 -17.5 2.5t-12.5 6.5q-12 12 -21 28.5t-21 42.5q-20 43 -24 85l-3 19q-1 6 -7.5 12t-11.5 6l-25 -1q-17 0 -49 -2q-8 0 -16 -9t-8 -17l-2 -49q0 -15 -2 -49q-1 -53 -40 -96q-4 -4 -23 -4q-12 0 -15 2t-7.5 5.5
t-7.5 6.5q-22 30 -30.5 63t-14.5 86l-1 55q1 15 -2 19.5t-13 6.5q-11 2 -24 8q-10 4 -17 15.5t-8 13.5q-5 8 -5 20q0 21 14 33q5 4 12.5 8.5t11.5 6.5q3 2 13.5 8.5t11.5 9.5q7 29 7 70q0 145 1 216q1 13 5 39q3 13 16.5 22.5t28.5 9.5q9 0 16 -4q2 -1 7.5 -4t7.5 -7
q5 -8 16.5 -26t14.5 -33l7 -28q13 -48 14 -77q0 -44 1 -77t2 -56q2 -28 2 -44q0 -5 7.5 -11t12.5 -5q50 2 91 18q6 2 10.5 8t4.5 14q2 52 2 79q2 58 2 88q1 9 8.5 16t16.5 8q37 4 60 -34q12 -18 19 -45q14 -56 18 -114.5t4 -136.5v-127z" />
    <glyph glyph-name="I" unicode="I" horiz-adv-x="247" 
d="M162 230l1 -80q0 -58 -9 -102q-6 -26 -31 -40q-10 -5 -19 -5q-25 0 -44.5 35t-30 79.5t-9.5 66.5l1 46l-1 96q0 52 4 95q3 37 3 110l2 83q9 43 11 49q1 4 5.5 8.5t8.5 4.5q12 2 20 2q9 0 17 -3q19 -7 40 -27q10 -8 16 -25q1 -3 6 -16.5t5 -25.5l3 -261z" />
    <glyph glyph-name="J" unicode="J" horiz-adv-x="379" 
d="M18 544q-3 9 -3 18q0 15 7 27.5t18 16.5q14 4 20 7q25 8 61.5 19.5t85.5 25.5q10 3 22 4.5t17 2.5q24 2 35 5q10 2 15 2q15 0 38 -9q12 -6 18 -24q2 -6 5.5 -15.5t3.5 -16.5q0 -26 -19 -43q-9 -7 -23 -15t-22 -12q-17 -11 -17 -34l-1 -126q1 -71 -15 -139t-46 -150
q-23 -60 -56 -93q-9 -9 -31 -9q-23 0 -47 8.5t-35 21.5q-22 26 -35.5 49.5t-13.5 47.5q0 16 7 31.5t19 24.5q11 10 22 10q8 0 15 -6t16 -18q6 -8 12 -8q7 0 12 7q24 43 40.5 109.5t17.5 120.5q1 28 1 84q0 11 -7.5 17t-17.5 4q-16 -4 -34 -4q-30 0 -50 14q-23 14 -35 45z
" />
    <glyph glyph-name="K" unicode="K" horiz-adv-x="426" 
d="M253 327l18 -22q30 -36 45 -57q21 -28 51 -82q8 -13 8 -36q0 -27 -12 -51q-6 -12 -15.5 -19t-18.5 -7q-7 0 -12 4q-58 38 -88 81q-46 69 -78 100l-4 2q-5 0 -8 -10q-6 -18 -6 -34q0 -9 2 -27t2 -28q0 -43 -17 -84t-52 -54q-1 -1 -5 -1t-9 3q-28 28 -42 65q-6 19 -5 29
q1 9 1 27q0 19 -4 59l-2 27q-2 21 -2 63q0 50 5.5 111t11.5 118l9 81q3 22 16 35q9 9 13 6q3 -1 18 -8.5t27 -20.5q26 -31 22 -71q-1 -21 -1 -62q1 -5 4.5 -9.5t4.5 -5.5t3 -0.5t3 1.5q16 24 47 53q23 20 63 74q14 20 28 37q2 3 28 37q15 20 33 20q9 0 21 -5q9 -4 16 -18.5
t7 -28.5q1 -36 -13 -82q-5 -21 -29 -49l-63 -76q-18 -19 -32 -60q8 -20 11 -25z" />
    <glyph glyph-name="L" unicode="L" horiz-adv-x="355" 
d="M144 160q0 -16 3.5 -26t16.5 -15q8 -2 11 -2q12 0 26 9q6 4 18.5 12.5t23.5 13.5q12 6 25 6q11 0 23 -3q11 -3 19.5 -14t9.5 -22q2 -27 -13 -46q-32 -38 -91 -56q-15 -5 -39 -3q-68 10 -106 50q-41 42 -56 95.5t-15 123.5q0 25 2 73t2 71v149q2 38 4 59q1 13 14 24.5
t27 12.5q33 0 49 -1q16 -2 29 -16.5t15 -31.5l1 -29v-207q0 -152 1 -227z" />
    <glyph glyph-name="M" unicode="M" horiz-adv-x="598" 
d="M138 270l-1 -113q0 -46 3 -93q3 -23 -18 -37q-16 -10 -31 -10q-28 0 -41 37q-9 22 -15.5 50t-8.5 36q-3 9 -3 30q-3 104 -3 207q0 50 2 150l1 22q1 28 8 38t32 19l24 10q8 2 13 2q9 -1 19 -4.5t20 -8.5l22 -9q16 -6 30 -38q23 -55 28 -88q2 -10 5.5 -35t10 -45t17.5 -37
l6 -3l3 -1q2 0 3.5 2t2.5 5q8 15 9 20q11 45 26.5 84.5t45.5 107.5q8 16 22 48q9 19 20 29q32 29 67 45q1 1 4 1q2 0 8 -3q27 -15 39 -49q2 -9 1 -15q-9 -22 -9 -55q0 -20 4 -56l3 -30l3 -37q9 -103 17 -162q5 -39 6 -81q1 -41 4 -71t11 -58q2 -8 2 -13q0 -17 -14 -36
l-14 -16q-14 -14 -31 -14t-29 17q-19 29 -26.5 60.5t-14.5 83.5l-5 46q-2 32 -4 46q-1 11 -5 33q-6 34 -6 51q0 5 0.5 18.5t-1 23.5t-5.5 15q-3 3 -6 2t-4 -5q-30 -78 -43 -118q-11 -28 -32 -56q-19 -23 -47 -23q-26 0 -41 16q-22 24 -35.5 41t-24.5 38q-3 6 -7 12.5
t-10 7.5q-7 -12 -7 -34z" />
    <glyph glyph-name="N" unicode="N" horiz-adv-x="494" 
d="M115.5 390q1.5 -22 1.5 -27l-4 -74q-6 -88 -6 -131l1 -35q1 -12 1 -34q0 -17 -3.5 -30.5t-11.5 -30.5q-2 -6 -20 -6q-10 0 -19.5 2t-13.5 6l-6 6q-6 11 -9 40q-4 23 -4 51v22q-1 22 -1 67v33l1 99l-1 45q-1 13 -1 37q0 27 4 51q2 10 4 28q2 26 6.5 43.5t15.5 28.5
q5 5 15 7t14 6q13 12 32 12q14 0 27 -7t20 -20q16 -26 27 -49q5 -13 22 -61q10 -27 11 -31q20 -59 32 -99t21 -81q3 -18 15 -47q14 -38 16 -53q3 -5 5 -5q5 0 6 3q1 2 5 8.5t4 12.5q2 22 2 66q0 63 -3 124q-4 95 -32 203q-1 8 -0.5 14t0.5 11q2 36 27 55q14 10 32 18
q10 5 17 5q14 0 25 -20l16 -37q29 -68 29 -127q0 -51 2 -149l1 -74q0 -24 -10 -70l-6 -27q-10 -48 -22 -88q-7 -27 -19.5 -45t-34.5 -36q-10 -9 -23 -9q-7 0 -10 2q-7 3 -21 7t-21 7.5t-13 12.5q-19 28 -29.5 45t-18.5 37q-30 81 -63 211q-6 26 -22 78q-2 4 -4 13t-6 16
q-1 -8 0.5 -30z" />
    <glyph glyph-name="O" unicode="O" horiz-adv-x="407" 
d="M181 684q19 0 38 -5.5t33 -14.5q11 -8 19 -18.5t18 -27.5q10 -18 16 -26q11 -15 25 -51q10 -24 18 -53q19 -58 20 -104q0 -36 3 -72l1 -10q0 -9 -1 -16.5t-2 -13.5q-2 -24 -2 -36q0 -5 -2 -29.5t-9 -47.5q-7 -20 -8 -26q-9 -25 -14 -44q-10 -38 -40 -70q-35 -38 -75 -38
l-11 1l-25 2q-15 0 -30 10q-73 51 -109 140q-24 61 -24 122q0 38 1.5 62t8.5 48q4 14 5.5 30t2.5 21q4 41 11 61q9 28 16 63q7 36 20 61q3 7 15 23q15 21 18 29q5 8 9 12q19 18 54 18zM171 528q-6 -5 -7 -19.5t-1 -17.5q-6 -35 -9 -68l-2 -22q-6 -72 -13 -107q-1 -3 -0.5 -8
t0.5 -8q-3 -43 7 -93q5 -31 9.5 -47t15.5 -32q3 -4 9 -4q9 0 12 5l16 28q17 29 23 61.5t6 73.5q0 118 -48 244q-6 17 -13 16q-3 0 -5 -2z" />
    <glyph glyph-name="P" unicode="P" horiz-adv-x="390" 
d="M351 437q-17 -42 -68 -87q-17 -17 -55 -47l-19 -17q-12 -12 -36 -32q-1 -1 -2 -7t-1 -9l-5 -18q-1 -3 -1 -18q0 -31 3 -67q1 -8 1 -25q0 -22 -1 -33l1 -39q0 -40 -37 -69q-12 -9 -24 -9t-21 9q-12 12 -14 15q-11 15 -18 32t-12.5 34t-7.5 24q-6 22 -7.5 50.5t-2.5 37.5
l-1 64l1 63q1 14 0.5 24.5t-0.5 17.5v21q1 21 0.5 37t-0.5 27v31l1 65q0 24 -8 72q-6 40 -7 60v3q0 16 15 22q59 18 100 18q8 0 26 -2q7 -1 22 -1q18 0 27 -2q119 -25 151 -141q9 -30 9 -59q0 -22 -9 -45zM140 452q5 -46 6 -52t7 -12l7 -7t3 -1q5 0 8 3q56 51 80 107
q3 8 3 18q0 12 -3.5 22.5t-9.5 13.5q-7 3 -28.5 13.5t-37.5 10.5q-12 0 -18 -6q-13 -11 -16 -25.5t-3 -30.5v-24q2 -20 2 -30z" />
    <glyph glyph-name="Q" unicode="Q" horiz-adv-x="438" 
d="M369 19q-8 -4 -13 -3q-46 13 -75 42q-9 8 -17 17l-21 -22q-24 -26 -51 -34q-8 -3 -23 -3q-10 0 -38 8q-28 6 -56 34q-23 23 -39 43q-12 17 -17 38q-19 73 -19 140q0 55 12 124q2 11 4 31q1 5 4.5 32t12.5 51l9 26q6 20 10 30q16 42 57 57q36 14 54 23q21 11 45 11
q16 0 36 -5q47 -12 64 -48l51 -105q10 -22 10 -40q0 -16 2 -48q3 -31 3 -65q0 -74 -28 -150q-8 -24 -21 -49q23 -34 43 -55q20 -22 20 -51q0 -20 -19 -29zM222 125q-10 18 -14 28q-6 15 -20 34q-16 23 -22 41q-1 1 -1 5q0 6 3 11.5t7 6.5q8 4 12 5q12 2 19 2h5l14 -3
q7 -1 14 -5q18 -9 33 -21q4 19 4 42q0 14 -1 21q1 6 1 19q0 47 -16.5 116t-34.5 113q-2 5 -7 12t-8 11q-4 4 -8 5q-2 1 -5 1q-8 0 -12 -7q-3 -7 -10.5 -19t-9.5 -22q-4 -22 -11 -55q-9 -43 -14 -75t-4 -64q0 -8 -3.5 -21.5t-4.5 -21.5q-3 -20 -2 -35l7 -42l6 -29
q7 -33 41 -59q5 -4 16 -4q12 0 22 6z" />
    <glyph glyph-name="R" unicode="R" horiz-adv-x="447" 
d="M253 271q57 -45 72 -56q19 -13 32 -24.5t21 -27.5q7 -14 13.5 -24.5t11.5 -18.5q3 -4 3 -11q0 -10 -7 -18t-17 -9l-15 -1q-9 0 -18 3q-35 12 -59 29q-66 45 -74 50l-37 25q-14 11 -31 11q-11 -2 -13 -9q-1 -3 -3 -10.5t-2 -13.5v-50q0 -33 -1 -50q0 -9 -4 -25
q-1 -8 -12.5 -16t-19.5 -6q-51 7 -75 58q-6 12 -6 33q-2 172 -2 259q0 51 2 151l1 75q0 34 1 50l4 31q0 2 0.5 8t2.5 10t7 5q18 6 37 6t36 -7q15 -5 29 -29q8 -15 27 -15q10 0 24.5 0.5t34.5 -0.5q45 -1 82 -28t50 -70q8 -25 12 -42t4 -35q0 -27 -9 -47.5t-31 -35.5
q-42 -29 -70 -41q-29 -14 -73 -28q22 -14 72 -56zM181 438q-1 -1 19 16q14 13 24 19q8 6 11 12q4 8 8 24v2q0 8 -5.5 14.5t-12.5 7.5l-33 1q-28 -2 -40.5 -8t-17 -19t-4.5 -41q1 -10 0.5 -16.5t-0.5 -13.5q0 -1 1.5 -11.5t9.5 -8.5q16 5 40 22z" />
    <glyph glyph-name="S" unicode="S" horiz-adv-x="424" 
d="M309 668q7 -7 7 -18q0 -17 -12 -25q-3 -2 -10.5 -7.5t-14.5 -6.5q-18 -3 -35 -3l-24 -2q-14 -1 -25 -12t-13 -27q-1 -6 -1 -17q0 -19 9 -31l21 -30q19 -28 32.5 -46t30.5 -33q22 -21 39 -45.5t38 -62.5q14 -26 22 -39q4 -8 8 -28q2 -20 1 -30q-1 -46 -3.5 -62t-13 -30.5
t-42.5 -44.5q-26 -24 -49 -39t-51 -22q-15 -3 -43 -13q-25 -9 -32 -11q-30 -8 -57 -8q-74 0 -89 76q-2 10 -2 15q0 18 11 32q20 27 43 42.5t54 19.5q26 4 78 22q11 3 25 8q5 1 27 14q10 6 16 18t6 24q0 11 -4 18q-15 29 -46 64l-122 142q-26 32 -26 73q0 14 3 29l6 20
q6 18 7 28q3 20 13.5 34.5t29.5 29.5q37 32 80 28q59 0 108 -44z" />
    <glyph glyph-name="T" unicode="T" horiz-adv-x="488" 
d="M95 538q-33 10 -52 20q-13 6 -36 29q-7 6 -7 18q0 9 5 17.5t12 12.5q2 1 4.5 2.5t4.5 1.5q76 24 137 29q75 5 126 5q48 0 104 -3q30 -2 52 -19q17 -12 15 -32q0 -13 -6.5 -23t-18.5 -14q-40 -13 -69 -20t-58 -10q-21 -2 -28.5 -12t-6.5 -33q0 -12 4 -34q1 -6 2 -14.5
t1 -20.5q0 -9 -1 -14q13 -26 13 -65q0 -12 -2 -36l-1 -35l1 -92q1 -7 -1 -26l-1 -23q0 -22 6 -33q6 -12 6 -26q0 -36 -39 -91q-6 -6 -14 -10t-15 -4q-5 0 -10 3q-37 27 -54 61.5t-20.5 67.5t-5.5 104l-4 100q-4 84 -5 126q0 15 -2 47l-1 33q-5 2 -35 13z" />
    <glyph glyph-name="U" unicode="U" horiz-adv-x="467" 
d="M387.5 289.5q-8.5 -60.5 -24.5 -141.5l-2 -8t-3 -8l-11 -23q-19 -43 -36 -66q-20 -23 -37 -28q-4 -2 -10.5 -4t-9.5 -4q-28 -15 -57 -15q-43 0 -87 36q-2 1 -6 3.5t-6 6.5l-17 25q-22 32 -33 52.5t-18 46.5q-27 102 -28 173q-2 60 -2 178q0 17 9 27.5t23 11.5q5 0 7 1
q35 5 59 -42q6 -10 6 -25l2 -54q0 -36 4 -52q8 -37 8 -97q1 -30 7 -56.5t19 -71.5q1 -5 11 -22q3 -5 10 -6t10 3t9.5 11.5t9.5 14.5q22 57 30 130q2 17 4 49q4 54 11 80q5 19 6.5 38.5t1.5 49.5q0 23 1 35t1 35v36q0 14 4.5 29t10.5 29q1 4 5 6.5t7 2.5q12 0 36 -2
q24 -3 35 -28q22 -49 40 -104q7 -19 9 -52q1 -17 0.5 -30.5t-0.5 -22.5v-27q0 -60 -8.5 -120.5z" />
    <glyph glyph-name="V" unicode="V" horiz-adv-x="473" 
d="M73 681q14 -2 25.5 -13t12.5 -24q1 -18 7 -59q6 -46 7 -68q2 -111 15 -184q1 -5 9 -58q1 -14 5 -37q7 -33 18 -72l9 -36q3 -10 13 -7q4 0 6 5q12 22 14 28q10 36 16 54q12 36 16 54l9 32q8 28 9 31l8 32q21 85 39 146.5t43 118.5q2 5 14 19q3 5 12 5q11 0 16 -7
q7 -12 8 -14l8 -18l8 -18q11 -24 11 -47q0 -12 -3 -24q-6 -23 -8.5 -50t-3.5 -37q-4 -28 -18 -82l-7 -27l-10 -35q-12 -37 -17 -66q-5 -28 -14.5 -54.5t-26.5 -69.5q-12 -28 -17 -42q-14 -35 -37 -62q-3 -4 -9 -12.5t-12.5 -13t-14.5 -4.5q-36 0 -59 19q-69 55 -103 140
q-21 53 -32 116l-4 23q-18 93 -22 143q0 17 -1 26q0 25 -1 38q-3 30 -5 91q-1 15 -2 37.5t-4 52.5v2q0 15 18 23q8 3 18.5 4.5t15.5 2.5q20 -2 21 -2z" />
    <glyph glyph-name="W" unicode="W" horiz-adv-x="593" 
d="M544 491q0 -67 -7 -128.5t-23 -170.5l-6 -41l-3 -25q-6 -58 -17 -92q-2 -9 -14 -32q-10 -17 -24 -20q-24 -4 -36 -4q-29 0 -49 27q-23 33 -37 56.5t-23 50.5l-9 29q-6 23 -11.5 37t-14.5 26q-1 3 -6 3q-2 -1 -6 -5q-1 -1 -4 -6t-3 -10q-5 -29 -15 -55.5t-27 -61.5
q-10 -22 -29.5 -35.5t-40.5 -13.5q-12 0 -21 4q-34 12 -61 54l-8 16q-21 45 -27.5 62t-9 36.5t-4.5 67.5l-8 222l1 27q0 10 8 18t18 8q2 0 8 -2q40 -19 56 -61q18 -45 23 -78q6 -43 20 -127q1 -12 10 -10q4 0 6 4q6 7 11.5 17.5t7.5 15.5q11 22 15 28q10 17 28 38
q12 14 17 21q16 22 41 22q11 0 22 -7.5t15 -18.5q6 -14 9 -26q5 -26 14 -50.5t23 -57.5l11 -27q1 -2 3 -4t3 -1q7 0 12 5t9 15l15 52q21 81 33 188q2 18 2 26l-1 19l-4 111q-2 20 13 31q21 18 38 28q5 4 14 4q12 0 21.5 -8t10.5 -20q1 -8 2 -19.5t1 -17.5q0 -16 4 -50
q1 -6 2 -12.5t1 -13.5q1 -20 1 -58z" />
    <glyph glyph-name="X" unicode="X" horiz-adv-x="424" 
d="M196.5 499.5q4.5 8.5 6.5 14.5q7 14 15 35.5t11 29.5q10 29 29 58q12 15 28 15q5 1 16 1q34 0 53.5 -12t28.5 -45q0 -2 -1.5 -18.5t-8.5 -23.5q-10 -20 -19 -35q-12 -21 -18 -36l-18 -47q-6 -15 -25.5 -65.5t-39.5 -92.5q-1 -2 -0.5 -4.5t0.5 -5.5l14 -25q17 -32 30 -51
q16 -24 28.5 -53t14.5 -34q10 -26 16 -39q2 -4 2 -7q0 -10 -13 -21q-8 -8 -19 -8q-6 0 -11 3q-7 5 -17.5 18.5t-15.5 18.5q-11 14 -28 45q-18 31 -25 40q-6 8 -17 8t-18 -10q-11 -15 -10 -13q-13 -22 -45 -92q-10 -25 -25 -55q-3 -9 -10 -16.5t-9 -9.5q-4 -6 -15 -6
q-9 0 -14 5q-10 10 -11 12q-7 15 -16 30t-19 25q-4 4 -7 10.5t-5 10.5q-9 15 -9 32q0 13 4 24q31 83 68 140q34 50 50 97q-24 121 -45 213q-2 7 -7 20t-5 24q0 12 12.5 21.5t23.5 5.5q12 -5 15 -8q38 -29 49 -63l6 -20q8 -37 18 -51q3 2 7.5 10.5z" />
    <glyph glyph-name="Y" unicode="Y" horiz-adv-x="398" 
d="M133.5 -19q-7.5 3 -16.5 12q-11 13 -11 30q0 12 7 26q24 41 54 49q16 6 27 26l24 55q6 12 9 25q11 53 17 88q4 26 4 40q0 7 -2 21l-16 -24q-22 -34 -38 -53.5t-37 -31.5q-13 -3 -27 -3q-26 0 -49 13q-55 31 -71 119q-8 47 -8 106q0 54 7 102q2 14 12 21q12 9 24 9
q9 0 19 -6q21 -14 28 -45q6 -25 6 -65q0 -7 0.5 -17.5t2.5 -24.5q2 -12 2 -36q0 -19 1 -28q1 -7 9 -23q2 -4 5 -4t6 4q2 3 6.5 8.5t6.5 11.5q8 24 16 40q14 32 24 66q7 21 18 44q13 27 18 44q11 38 32 59.5t52 34.5q6 2 10 2q3 0 9 -2q16 -4 20 -20q10 -46 14.5 -83.5
t3.5 -75.5q-1 -41 -5 -123l-6 -123q-2 -37 -9 -72.5t-20 -87.5q-8 -29 -21.5 -47t-40.5 -40q-17 -14 -38.5 -23t-40.5 -9q-14 0 -26 6q-4 2 -11.5 5z" />
    <glyph glyph-name="Z" unicode="Z" horiz-adv-x="445" 
d="M287 576q0 5 -12 5q-18 0 -40 -5l-26 -7q-10 -2 -22.5 -3t-17.5 -1l-10 -1q-24 0 -40.5 14t-30.5 38q-5 8 -5 21q0 8 1 12q0 4 4.5 9.5t7.5 5.5l20 3h23.5t37.5 6q14 5 34 5q41 3 82 9q21 4 47 4q41 0 74 -15q16 -7 30 -18q9 -9 10 -17q3 -22 2 -40q0 -12 -7 -19
q-8 -8 -22 -28l-17 -21l-14 -15q-8 -5 -16 -15q-4 -5 -27 -35l-30 -33l-38 -44q-40 -43 -66 -77q-42 -53 -81 -123q-3 -6 -9 -14t-10 -14q-6 -12 -8 -19l-2 -9q0 -9 11 -9q12 0 28.5 7t19.5 8q14 6 38 11q30 8 44 14q11 4 23 4q19 0 42 -13q17 -11 17 -27q0 -13 -10 -26
q-16 -19 -43 -34q-28 -15 -69 -29t-99 -26q-12 -2 -17 -2q-22 0 -43 12q-20 12 -27 30q-1 5 -4.5 17t-8.5 22q-11 25 -11 54q0 33 16 65q28 62 58 100t44 58l44 57q26 32 41 46q29 29 61 71l15 18q1 2 4 5t4 6v2z" />
    <glyph glyph-name="bracketleft" unicode="[" horiz-adv-x="273" 
d="M103 686q4 1 10.5 0.5t10.5 -0.5q6 0 26.5 0.5t36.5 -4t28 -15.5q12 -10 12 -26q0 -19 -18 -30q-3 -3 -12 -5l-36 -2q-4 -1 -8.5 -5.5t-5.5 -9.5l-1 -9q1 -39 1 -116l1 -65q2 -84 2 -125q0 -61 -2 -91q0 -8 -1 -31.5t-5 -43t-11 -35.5q-2 -4 0 -8q2 -5 5 -7q12 -2 19 -2
q13 0 24 4l6 2t7 2t11 1q12 0 18.5 -7t6.5 -17q0 -11 -7 -22.5t-19 -17.5q-11 -5 -24 -7t-26 -3l-26 -2q-8 -1 -24 -1t-23 5.5t-10.5 12.5t-5.5 10q-24 41 -24 99q0 19 4 59q4 39 4 84l-1 85v182l1 45q-1 7 -2 16.5t-1 22.5q0 10 1 14q1 6 4 13t4 9q7 13 19 24q19 14 29 16z
" />
    <glyph glyph-name="backslash" unicode="\" horiz-adv-x="302" 
d="M254 -1q-10 -10 -19 -10q-8 0 -16 8q-19 21 -30 53q-5 16 -14.5 39.5t-13.5 34.5q-12 26 -23 58l-34 94q-45 119 -63 185l-5 23q-1 10 -5 23q-9 36 -14 50q-7 18 -10 40l-6 25q-1 3 -1 7.5v6.5q0 10 10.5 18t19.5 9q27 2 37 -24l10 -21q10 -19 15.5 -32.5t6.5 -30.5
l12 -33q6 -17 20 -51q23 -57 65 -175q5 -16 26 -74q7 -20 17 -64q3 -10 11 -31.5t11 -29.5q7 -20 7 -45q0 -11 -1 -16q-2 -23 -13 -37z" />
    <glyph glyph-name="bracketright" unicode="]" horiz-adv-x="287" 
d="M125 1q-9 0 -31 -4q-8 -1 -19 -1h-16q-10 0 -25 9t-20 17q-3 5 -3 10q0 15 22 29t37 13q8 0 22 2q4 0 6 5q1 2 1 5q-1 24 5 74q4 34 5 50q0 9 1 15t2 10q1 5 2 14.5t1 16.5v59q2 154 2 229v42l-1 13q0 4 -3.5 7.5t-7.5 3.5q-14 1 -40 1l-35 2q-13 0 -21.5 10.5t-8.5 22.5
q0 13 8 18.5t25 13.5q9 3 18 3q8 0 14.5 -1t11.5 -2q16 -1 47 -1q4 -1 13 -1q19 0 45 -17q4 -3 8 -10q16 -27 16 -49v-180q0 -27 -7 -64q-2 -16 -2 -23l1 -31l1 -55q0 -54 -8 -95q-6 -28 -6 -57q0 -8 1.5 -17.5t1.5 -18.5q0 -6 -2 -14q-1 -7 -6.5 -21t-10.5 -17
q-20 -16 -44 -16z" />
    <glyph glyph-name="asciicircum" unicode="^" horiz-adv-x="308" 
d="M145 487q-17 -35 -22 -47q-15 -38 -33 -60q-14 -18 -40 -18q-20 0 -36 10q-6 4 -10 11.5t-4 15.5q0 4 2 10q3 11 9 21l39 79q25 51 56 96q4 7 10.5 19t13.5 20q4 5 18 14q15 13 18 16q7 8 20 8t20 -5q14 -12 20 -19q10 -12 10 -25q1 -8 0.5 -14t-0.5 -10q1 -31 13 -93
l3 -22q1 -6 5 -27.5t11 -38.5q1 -4 6.5 -17t5.5 -23q0 -15 -10 -25q-9 -10 -21 -10q-7 0 -13 3q-16 10 -20 18q-29 52 -37 68q-9 16 -15 35l-8 30q-1 -3 -11 -20z" />
    <glyph glyph-name="underscore" unicode="_" horiz-adv-x="280" 
d="M254 -6q-2 -7 -8.5 -11t-12.5 -3q-4 0 -9.5 -1t-9.5 0l-9 1q-9 0 -27 -4q-5 -1 -11.5 -2t-15.5 -1q-10 1 -44 -2l-26 -1l-22 1h-13q-14 0 -22 6q-7 4 -10.5 13t-3.5 18q0 15 8 26l0.5 0.5l0.5 0.5q10 12 13 12q4 0 13 -6q9 -4 21 -4l99 1q30 -2 45 -4l23 -2q10 0 16 -13
q1 -4 3.5 -9t3.5 -9q0 -3 -2 -7z" />
    <glyph glyph-name="grave" unicode="`" horiz-adv-x="111" 
d="M36.5 525.5q-8.5 4.5 -14.5 11.5q-11 13 -13 17q-3 8 -11 22q-2 4 -3.5 11.5t-3.5 10.5q-2 4 -9 19q-2 3 -2 10t2 10q3 9 14 11q7 2 13 0q5 0 8 -3q9 -5 14 -16q3 -6 10.5 -23t12.5 -32q3 -8 9 -16l4 -8q4 -10 2 -15q-5 -11 -16 -13q-8 -1 -16.5 3.5z" />
    <glyph glyph-name="a" unicode="a" horiz-adv-x="488" 
d="M66 -25q-39 10 -52 51q-10 32 -13 60q-1 8 -1 23q0 28 6 53q13 61 38 119t62 121q12 19 23 31q32 37 74 37q9 0 14 -1q7 -1 18.5 -4t19.5 -3q7 0 18 2.5t19 3.5q16 1 29.5 -9.5t14.5 -25.5q3 -20 9 -40q11 -41 10 -66q0 -8 5.5 -23t6.5 -21q26 -146 91 -251q5 -8 5 -17
q0 -12 -8.5 -23t-21.5 -14q-10 -3 -19 -3q-18 0 -32 11q-28 20 -46 51q-32 57 -50 112q-2 4 -5 6t-7 1q-9 -4 -10 -9q-9 -26 -19 -59q-10 -27 -21 -44.5t-31 -28.5q-2 -2 -10 -12q-22 -35 -69 -35q-22 0 -48 7zM210.5 352.5q0.5 3.5 -0.5 6.5q-5 10 -7 11q-1 1 -4 1
q-5 0 -9 -7l-14 -35l-34 -86q-14 -32 -16 -51q-2 -16 -4.5 -28t-4.5 -20q-6 -21 -9 -42v-4q0 -6 2 -18q0 -4 4 -4q5 -2 7 2q21 26 34 58.5t23 73.5q4 13 5 22q13 57 24 89q3 14 3 23q0 5 0.5 8.5z" />
    <glyph glyph-name="b" unicode="b" horiz-adv-x="388" 
d="M155 326q13 14 21 23l24 27q14 15 30.5 24t31.5 9q29 0 47 -29q10 -14 12 -24l6 -22q12 -41 16 -68q2 -11 2 -33q0 -38 -12 -74l-27 -89q-5 -22 -25 -40q-26 -25 -61 -25q-12 0 -24 3q-6 2 -14 8.5t-13 10.5q-7 -1 -10.5 -11t-5.5 -14q-14 -27 -44 -27q-15 0 -28.5 7.5
t-20.5 20.5q-7 12 -13 25t-8 26q-8 75 -14 107t-6 61q0 77 -8 165q-3 32 -3 62q0 18 -2 52q-1 7 -1 22q0 31 10 93q2 6 4 22q3 11 7 20q9 22 28 23h6q36 0 54 -22t23 -68q2 -16 2 -50v-22q0 -7 -0.5 -18t0.5 -26q0 -102 1 -153l1 -13q1 3 14 17zM199 87l7 3q14 12 20.5 33
t11.5 53q2 18 4 25q4 13 4 30q0 15 -3 30q-2 11 -8 9q-2 0 -6.5 0.5t-6.5 -1.5q-1 -2 -6.5 -7.5t-9.5 -16.5l-8 -22q-11 -27 -16 -51q-2 -10 -4 -28l-5 -29l-3 -24v-7q-2 -4 -1 -8q0 -3 2 -2q2 2 7 4.5t9 3.5q-1 0 12 5z" />
    <glyph glyph-name="c" unicode="c" horiz-adv-x="315" 
d="M19 282q22 88 51 139q22 40 57 53l19 9q12 6 18 8q13 5 25 5q21 0 40.5 -10t29.5 -26q7 -10 7 -22q0 -14 -11 -26t-24 -13q-5 -1 -14 -1l-25 1q-20 0 -35 -18q-11 -13 -15 -23q-21 -45 -25 -90q-2 -26 -2 -40q-2 -32 -4 -49q-2 -22 -2 -31q0 -31 15 -58q7 -10 18 -10
q7 0 11 4q41 36 62 71q8 14 25 22q5 3 11 3q4 0 8 -2q24 -18 29 -51l1 -4q0 -5 -4 -15q-26 -57 -59 -90q-4 -4 -9 -10.5t-9 -9.5q-16 -16 -42 -18l-20 -1q-39 0 -64 14.5t-53 52.5q-29 40 -29 103q0 51 19 133z" />
    <glyph glyph-name="d" unicode="d" horiz-adv-x="407" 
d="M333 678q9 -3 15 -12q15 -32 15 -58v-88v-44q-1 -29 -6 -58q-6 -48 -6 -73q0 -16 1 -24q10 -83 11 -128q0 -13 2 -39q2 -40 2 -59q0 -15 -2 -45q-1 -13 -1 -29.5v-23.5q-1 -8 -9 -13.5t-16 -4.5q-38 9 -49 39q-30 79 -41 170q0 -1 -7 -10.5t-9 -11.5q-5 -12 -9 -29.5
t-6 -26.5q-21 -67 -74 -117q-8 -8 -17 -11t-20 -5t-18 -4h-2q-2 0 -11 3q-19 6 -34.5 21t-24.5 34q-7 13 -9.5 25.5t-3.5 26.5t-2 23q-2 18 -2 26q0 36 16 86q12 38 23.5 64.5t29.5 50.5q27 36 77 36q30 0 57 -12l8 -4t11 -4q3 0 6 2t5 4q11 19 15 50q3 30 3 60q2 48 2 74
q0 39 15 105q4 27 33 41zM92 69q4 1 6 3q24 20 38 45q26 46 62 132q2 5 2 11v8v2q0 8 -6.5 13.5t-14.5 3.5q-26 -7 -40 -22q-12 -14 -23 -30t-16 -31q-18 -52 -18 -99q0 -18 3 -38q3 1 7 2z" />
    <glyph glyph-name="e" unicode="e" horiz-adv-x="357" 
d="M323 90q0 -12 -5 -27q-11 -34 -45 -54q-22 -13 -61 -22q-7 -2 -21 -2q-23 0 -43 10q-32 15 -53 36q-46 46 -63 90q-32 79 -32 147q0 31 5 56q5 23 12 43q3 7 5.5 17t3.5 15q4 22 8 31q15 34 46 52q39 22 83 22q38 0 58 -20q4 -4 16 -13t17 -15q5 -7 8 -21.5t3 -26.5
q0 -3 -2 -29q0 -14 -5 -29q-7 -35 -23 -56q-22 -27 -56 -43l-60 -24q-8 -3 -13.5 -10.5t-3.5 -14.5q6 -32 15.5 -56t26.5 -44l9 -10q4 -4 13 -4q7 0 11 3l31 23l24 22q22 20 54 17q14 -1 21 -7t10 -20q0 -3 1 -9t2 -10q3 -9 3 -17zM104 345q0 -10 2 -12.5t3 -3.5q5 -8 14 -8
q3 0 9 2q21 13 35 39.5t12 43.5q-3 9 -10 14q-3 2 -9 2q-13 0 -21 -9q-5 -6 -14.5 -17t-14.5 -21t-6 -22v-8z" />
    <glyph glyph-name="f" unicode="f" horiz-adv-x="323" 
d="M99 -7.5q-11 5.5 -15 14.5q-26 67 -27 123q-2 54 -2 82q1 23 -1 38.5t-13 24.5q-21 4 -30 10t-10 26q-1 2 -1 7q0 6 1.5 12.5t3.5 7.5q7 8 21 10.5t18 5.5q10 8 13 16q12 42 13 66q0 6 1 15t0 15q-2 41 9.5 78t33.5 85q24 52 81 58q5 1 14 1t13 -1q42 -2 55 -33
q3 -8 3.5 -17.5t1.5 -16.5q0 -5 -3 -12t-5 -8q-12 -8 -32 -10q-22 -2 -32 -10q-12 -10 -16 -23q-9 -26 -18 -103l-7 -49v-7q0 -20 9 -19q8 -2 13 -2l12 1q37 0 58 -30q3 -4 5 -10t1 -10q-3 -20 -13 -28.5t-32 -18.5q-9 -3 -25 -7t-26 -10q-7 -6 -11 -11t-4 -12v-71
q0 -50 1 -71q0 -11 5 -26l3 -12t2 -15q0 -29 -23 -50q-6 -6 -21 -8q-13 -1 -24 4.5z" />
    <glyph glyph-name="g" unicode="g" horiz-adv-x="400" 
d="M216 127q-14 -18 -19 -24q-21 -25 -62 -42q-28 -15 -43 -15q-10 0 -18.5 4t-23.5 13q-12 7 -21 23q-29 54 -29 117q0 57 22 113.5t59 102.5q19 21 37 28q2 1 15 6.5t25 5.5q4 0 12 -2q12 -5 26 -5h17q41 0 91 -33q21 -13 27.5 -37t6.5 -57v-37q0 -37 4 -56q5 -24 5 -57
q0 -38 -12 -114l-6 -40l-6 -42q-7 -57 -17 -94t-36 -68q-29 -35 -76 -55q-21 -9 -42 -9l-13 1q-21 2 -30 13.5t-13 23.5t-5 16q-3 9 -3 20l1 25q0 41 46 55h2q4 0 10 -4t16 -19q7 -11 19 -11q14 0 21 13q27 48 34 126l4 43q6 48 6 72q0 19 -1 28q-16 -10 -30 -28z
M127.5 165.5q21.5 11.5 30.5 23.5q12 17 27 34l21 25l14 17q13 14 20 26t9 33q2 4 2 11q0 19 -6 20q-7 2 -13 0q-4 -2 -22 -9.5t-32 -16t-23 -17.5q-50 -52 -60 -137v-4q0 -10 5 -11q6 -6 27.5 5.5z" />
    <glyph glyph-name="h" unicode="h" horiz-adv-x="431" 
d="M242 219q-6 -5 -10.5 -16t-6.5 -16q-5 -12 -17 -36l-17 -37q-6 -12 -11 -29q-7 -23 -17 -40q-1 -2 -11 -17q-2 -4 -17 -29q-18 -28 -51 -28q-19 0 -35 12t-23 32q-7 23 -16 58l-8 29q-1 6 -1 21q-1 28 -1 84v15q0 9 1 13q10 36 10 97v39q0 39 2 58q16 149 22 217
q2 27 23 38q2 1 8.5 4t13.5 3t12 -4q4 -2 7 -2.5t5 -0.5q27 -13 27 -42v-176v-219q0 -5 4 -5t8 4q5 6 10 15.5t7 12.5q26 48 63 84q14 13 34.5 23.5t37.5 10.5q27 0 34 -30q8 -36 11 -53q10 -56 19 -84l47 -160q2 -8 2 -11q0 -13 -10 -28q-16 -23 -40 -23q-8 0 -19 3
q-6 2 -10 7q-23 30 -31 60q-10 41 -31 107l-10 32q-2 6 -5.5 8.5t-7.5 0.5z" />
    <glyph glyph-name="i" unicode="i" horiz-adv-x="185" 
d="M133 81q0 -11 -1 -17l-5 -35q-2 -11 -15.5 -20.5t-23.5 -5.5q-36 12 -47 44l-15 42q-7 19 -9 42.5t-3 32.5q-4 24 -4 54q0 18 1 27l3 34q1 12 2 29.5t4 40.5q2 10 7.5 21.5t7.5 14.5q4 10 14.5 15t19.5 2q22 -7 41 -29q4 -4 6 -14q1 -6 5 -27t5 -40q1 -13 1 -40t-1 -41
q0 -11 -0.5 -26.5t0.5 -35.5q1 -12 5 -41q2 -18 2 -27zM23 517q-4 6 -6.5 12t-2.5 15q0 18 9 34t24 16q16 -2 24 -4q17 -5 27.5 -20.5t10.5 -36.5q0 -18 -8 -34q-2 -5 -7 -9t-10 -5q-4 -1 -11 -1q-27 0 -44 24z" />
    <glyph glyph-name="j" unicode="j" horiz-adv-x="250" 
d="M187 120q2 -89 -10 -146q-15 -73 -34 -110q-17 -32 -40.5 -47t-60.5 -15q-14 0 -22 1q-11 1 -28.5 9.5t-25.5 15.5q-20 17 -29.5 32t-18.5 43q-1 3 -4.5 12.5t-3.5 17.5q0 10 7 17q10 8 24 8q5 0 9 -2q8 -4 12 -7q3 -2 7.5 -6.5t7.5 -8.5q25 -27 59 -27q20 2 27 19
q22 47 25 94q0 4 1 21.5t7 33.5q2 6 2 10q0 5 -2 11q-8 20 -8 48q1 83 1 248q0 11 7 19t18 11h4q6 0 9 -1q16 -7 23.5 -12t10.5 -14q13 -37 19 -62.5t7 -69.5v-36v-72v-35zM59 609q1 6 3 10q5 10 16 13q8 2 13 2q18 0 29 -16q12 -18 21 -36q4 -10 4 -14q0 -12 -10 -25
t-26 -13q-8 0 -11 2q-33 17 -41 53q-1 4 -0.5 7.5t0.5 6.5q1 4 2 10z" />
    <glyph glyph-name="k" unicode="k" horiz-adv-x="340" 
d="M11 507l-1 67v55q1 32 28 48q10 6 19 6q12 0 25 -10q22 -16 24 -45q1 -11 1 -33t1 -33t1 -33l-1 -64q0 -22 1 -33q1 -8 2 -24t1 -49q0 -57 10 -47q11 12 31 41q16 20 49 38q11 4 16 0q14 -8 12 -22q-5 -36 -11.5 -61t-20.5 -47q-4 -6 -30 -50q-2 -4 -2 -8q0 -10 7 -17
l9 -8q51 -29 99 -40q6 -1 12 -1.5t12 -1.5q26 -10 33 -36q2 -6 2 -9q0 -4 -2 -10q-5 -20 -16 -28q-14 -10 -21 -11q-13 -3 -26 -3q-19 0 -37.5 4.5t-46.5 13.5q-5 1 -11 5.5t-10 6.5q-24 16 -36 23q-7 3 -17 1q-3 -1 -5 -3t-3 -5q-1 -4 -1 -12q0 -5 1 -8q2 -10 2 -14
q0 -17 -14 -36q-7 -11 -22 -11q-17 0 -24 14q-23 41 -29 88l-4 35q-1 7 -5 44t-2 70q2 60 2 92l-1 65z" />
    <glyph glyph-name="l" unicode="l" horiz-adv-x="300" 
d="M28 501l-1 30q-1 10 -1 29q0 22 4 39q4 16 5 37t2 31q1 12 9.5 19.5t20.5 9.5q18 1 30.5 -4.5t25.5 -19.5q27 -28 30 -68q3 -30 5 -91q0 -17 1 -29t2 -20q4 -38 3 -56v-30q0 -69 7 -165l3 -58q2 -31 28 -41l35 -16q14 -5 20.5 -17.5t6.5 -27.5q0 -11 -4 -22t-10 -17
q-15 -18 -38 -23q-22 -3 -46 -3q-10 0 -22 5q-21 11 -42 36q-9 9 -10 12l-12 29q-20 44 -24 62q-17 66 -22 131.5t-6 164.5v29v44z" />
    <glyph glyph-name="m" unicode="m" horiz-adv-x="627" 
d="M570 94q-1 -13 -6 -28l-7 -21q-3 -11 -18 -22q-5 -5 -12 -5q-8 0 -15 7q-13 17 -19 39.5t-12 57.5q-4 26 -7 40q-3 15 -6.5 29.5t-10.5 24.5q-6 8 -16.5 -10t-12.5 -27q-9 -28 -24.5 -53.5t-38.5 -57.5q-12 -18 -29 -18q-16 0 -28 17l-13 17q-15 19 -16 45q-1 48 -8 106
l-2 27q0 44 -9 63q-4 9 -9 11h-2q-5 0 -8 -5q-17 -33 -37 -76q-1 -2 -3 -6.5t-2 -9.5q-1 -17 -6 -34t-6 -22q-6 -16 -8 -25q-5 -18 -10 -49q-3 -11 -7 -33q-15 -66 -50 -91q-9 -6 -17 -6q-11 0 -21 10l-24 25q-16 24 -19 42l-5 21q-17 70 -18 113q0 8 -3.5 22t-3.5 20l-1 24
q0 20 4 36l1 10q0 5 -2 15q-3 11 -3 21q0 23 14 43q7 13 17.5 22.5t21.5 9.5q3 0 9 -2q15 -7 22.5 -28t9.5 -43q1 -13 0.5 -23t-0.5 -17q0 -47 9 -47q10 0 22 40q7 24 16 42.5t27 51.5l21 39l4 6q31 42 67 42q49 0 61 -51q2 -8 9 -38t11.5 -55.5t5.5 -48.5q0 -4 7 -11
q0 -2 5 3q13 16 25 40l16 32q12 22 30 23l29 1q27 -1 46 -22t27 -60l5 -25q2 -10 5 -30.5t8 -35.5q4 -15 10 -51q3 -24 8 -43z" />
    <glyph glyph-name="n" unicode="n" horiz-adv-x="428" 
d="M194 234q-5 -19 -7.5 -42t-3.5 -31q-4 -39 -9 -65t-16 -51q-18 -40 -57 -40q-33 0 -50 42q-7 16 -14.5 38t-10.5 32l-9 26q-4 10 -4 15l-4 35q-9 59 -9 99q0 19 1 29l4 24q2 8 4 24l2 33q0 22 1 33q1 10 5 19t11 13q17 14 32 19q9 3 17 3q17 0 30 -13t20 -36
q8 -28 12 -55v-7q0 -11 -1 -17l-7 -31q0 -8 3 -16q5 1 8 5t4.5 8t3.5 7q13 24 16 28l33 51q22 38 64 56q8 4 17 4q18 0 31 -19q27 -36 30 -86q0 -5 0.5 -11t-0.5 -14q-4 -77 29 -165q9 -24 16.5 -53.5t9.5 -38.5q2 -12 2 -18q0 -20 -13 -43q-11 -19 -26 -19q-16 0 -28 22
q-16 30 -25 56l-9 28q-26 73 -36 123q-6 26 -10 38q-1 3 -4 6l-5 5q-35 2 -48 -50z" />
    <glyph glyph-name="o" unicode="o" horiz-adv-x="379" 
d="M94.5 511.5q1.5 7.5 3.5 12.5q5 13 17 16q16 3 34 3q42 0 75 -18q13 -6 39 -26q8 -6 11.5 -12t6.5 -13t4 -10q2 -6 5.5 -15t6.5 -21q3 -11 4 -25.5t1 -18.5q1 -14 5 -31t6 -24q3 -16 5 -49q1 -14 0.5 -24.5t-0.5 -17.5v-20q0 -25 1 -37q4 -49 -24 -111q-6 -14 -18 -27
t-14 -15q-4 -4 -14 -15t-22 -16q-14 -6 -38 -6l-34 1q-30 1 -50 15t-50 45q-11 13 -22 38t-15 33q-18 38 -18 63q0 101 1 152q2 51 20.5 99.5t56.5 55.5q3 0 7 3t7 4q1 4 2.5 11.5zM156.5 103.5q5.5 6.5 6.5 8.5q19 23 24 62q4 32 4 74q0 32 -4 96q0 16 -2 48q0 6 -3 13
t-4 10q-5 11 -17 11q-7 0 -12 -4q-46 -35 -49 -87q-3 -51 -3 -151q0 -47 35 -85q7 -7 13 -4q6 2 11.5 8.5z" />
    <glyph glyph-name="p" unicode="p" horiz-adv-x="409" 
d="M352 359q0 -29 -5 -66q-5 -31 -9.5 -51.5t-13.5 -39.5q-16 -39 -47 -57q-14 -8 -27 -8q-11 0 -23 6q-31 15 -47 38q-1 2 -3.5 3.5t-4.5 2.5q-4 -2 -4 -6q-14 -76 -20 -114q-2 -10 -2 -14q1 -26 -3 -54t-5 -34q-2 -16 -2 -23q-4 -38 -8 -56q-3 -18 -10 -65l-3 -22
q-1 -8 -2 -18.5t-3.5 -15.5t-10.5 -6q-3 -1 -9 -1q-13 0 -26.5 5.5t-19.5 14.5q-14 19 -20 40q-5 19 -6.5 36.5t-1.5 44.5q0 28 -1 43l-4 103q-1 6 -1 17q0 8 1 12q6 24 6 59v43q0 13 -3 25q-1 5 -2 11.5t-1 15.5q0 4 2 14q3 18 3 36q-1 14 -1 40q0 60 9 105q5 25 19 54
q8 15 23 25q5 4 12 4q5 0 13 -4q4 -2 5 -4q5 -6 7.5 -13.5t3.5 -16.5t3 -19v-4q0 -5 -1 -11.5t-1 -12.5q-1 -67 7 -150q4 13 9 34q4 18 13 38q20 44 67 98q5 7 15.5 14.5t15.5 11.5q14 13 36 13q9 0 13 -1q31 -6 45 -20t20 -49q3 -25 3 -51zM273.5 378.5q-2.5 7.5 -6.5 8.5
h-2q-7 0 -14 -9q-30 -37 -47.5 -69.5t-27.5 -74.5q-1 -3 -1 -7q0 -5 2.5 -8t3.5 -2q24 4 38 13.5t23 25.5q2 3 9.5 14t10.5 23q2 6 8 27.5t6 42.5q0 8 -2.5 15.5z" />
    <glyph glyph-name="q" unicode="q" horiz-adv-x="454" 
d="M182 -183q-4 94 -4 141q0 48 3 96q2 30 5 47q3 15 4 34.5t1 25.5q0 9 -6 9l-6 -3q-7 -7 -9 -10q-12 -24 -33 -37t-53 -22q-8 -3 -15 -3q-16 0 -29 12q-14 11 -27 29q-9 12 -10 25q-3 26 -3 53t4 48q15 78 38 121q15 29 34 42t54 26q4 2 10 4t14 6q10 4 34 4q16 0 46 -2
q5 3 17 12q6 6 17 11q12 5 25 -5t13 -23q0 -6 -1.5 -12.5t-1.5 -13.5q-1 -29 -1 -87v-56q0 -47 -3 -70l-6 -45q-14 -93 -14 -101q24 53 39 74q3 3 10.5 13.5t17 19.5t20.5 15q6 3 12 3q11 0 21 -6t14 -16q1 -2 0.5 -5.5t-2.5 -5.5q-3 -5 -15 -19l-15 -20
q-23 -31 -33.5 -54.5t-24.5 -67.5l-8 -24l-20 -64q-8 -28 -20 -64q-7 -21 -10.5 -35.5t-3.5 -29.5q0 -5 -0.5 -17t-4 -19t-12.5 -12q-3 -2 -10 -2q-11 0 -15 5q-27 31 -34 56q-3 9 -3 19zM97 196q0 -2 1.5 -3t2.5 -1q6 0 8 1q16 11 25.5 25t21.5 39q9 18 37 64q2 4 15 24.5
t14 27.5l1 1q0 2 -2.5 5.5t-3.5 4.5q-2 2 -6 2q-22 0 -41 -12q-33 -20 -52 -50t-23 -64l-3 -36z" />
    <glyph glyph-name="r" unicode="r" horiz-adv-x="409" 
d="M305 320q-7 7 -15 21q-9 17 -17 17q-9 0 -26 -20q-51 -54 -65 -138l-6 -29q-12 -52 -13 -80q-1 -20 -7.5 -36.5t-19.5 -45.5q-7 -13 -23 -15h-6q-10 0 -15 1q-21 2 -34 24q-2 5 -16 34t-21 60q-9 37 -10 63q-3 47 -3 93q0 61 6 187q1 15 9.5 26t19.5 13q13 2 41 2
q9 0 17 -10t9 -22v-24q1 -17 1 -52v-52q0 -11 7 -9q3 0 6 3l32 52q7 12 22 25l14 15q25 29 47 38q21 10 38 17q14 4 21 4q31 0 52 -34q7 -14 8 -21q3 -16 3 -33q0 -25 -7 -46q-4 -13 -10 -20t-19 -14q-13 -1 -20 6z" />
    <glyph glyph-name="s" unicode="s" horiz-adv-x="264" 
d="M129 363q7 -15 21 -31q16 -21 27.5 -44t26.5 -59q14 -32 14 -69q0 -40 -19 -84q-11 -26 -25 -49q-19 -31 -44 -42q-9 -4 -22 -12q-10 -7 -20 -11q-10 -5 -26 -5q-18 0 -30 15l-7 12q-10 14 -10 31q0 16 11 33q4 4 10.5 12t10.5 15l12 18q10 14 16 21q11 13 14.5 27.5
t3.5 36.5q0 42 -32 82q-25 20 -38 47.5t-21 65.5q-2 14 -2 19q0 19 7 34q15 40 41 63q14 14 27 19q11 4 38 9q18 2 27 2q5 0 12 -1.5t13 -2.5l25 -3q10 -2 18 -14.5t8 -24.5q0 -8 -2 -11q-9 -19 -19 -28q-5 -5 -15.5 -12t-17.5 -13q-12 -9 -21 -21q-13 -16 -13 -22
q0 -2 1 -3z" />
    <glyph glyph-name="t" unicode="t" horiz-adv-x="323" 
d="M42 264q-7 1 -8 1q-10 0 -17 4t-12 20q-5 13 -5 24q0 14 6 18l19 11q16 8 21 12q7 5 8.5 11t2.5 18q0 8 0.5 21t2.5 30q2 22 4 32l3 20l2 67v41q1 22 19 49q6 10 20 10q7 0 11 -2q5 -3 11 -6.5t14 -8.5q16 -12 24 -32q10 -27 10 -58q0 -47 -1.5 -78t-8.5 -62v-4
q0 -15 14 -18q4 -1 12 -1q30 -7 40 -10l11 -4q15 -7 15 -25q0 -10 -5 -15q-10 -12 -16 -17q-7 -5 -15 -7.5t-26 -4.5q-19 -4 -25.5 -13t-6.5 -30q0 -9 1 -21t1 -29q1 -40 20 -79q8 -18 13.5 -21t26.5 -3q11 0 17 -1q11 -1 20 -12q12 -17 17 -44q2 -5 0 -11q-5 -25 -21.5 -39
t-39.5 -14q-11 0 -23 3q-13 4 -32 13q-32 17 -51 47q-58 97 -58 194q0 5 -1 9t-1 8q-6 6 -13 7z" />
    <glyph glyph-name="u" unicode="u" horiz-adv-x="448" 
d="M135 334q-5 -13 -6 -15q-4 -12 -10 -36q-11 -42 -16 -67q-5 -27 -5 -47q0 -22 6 -25q6 -5 28 28q10 14 20 37q19 42 63 124q10 19 18.5 45.5t13 43.5t7.5 26q6 21 25 37q6 5 14 13t13 12q14 10 24 10t27 -13q23 -19 23 -51l-1 -12q0 -3 -1 -7.5t-2 -7.5q-11 -22 -11 -62
v-83l-1 -47q0 -22 2 -32q1 -8 5 -24q6 -28 6 -33q0 -4 1 -23t7 -37q4 -13 8 -47q1 -9 -5 -18t-14 -12q-3 -1 -8 -1q-10 0 -18 8q-23 23 -34 59l-22 76l-18 65l-25 -53q-12 -28 -19 -42q-18 -37 -31.5 -60.5t-31.5 -44.5q-21 -25 -53 -35q-5 -2 -16 -2q-26 0 -41 22
q-19 28 -31.5 52.5t-17.5 51.5q-1 7 -3 16.5t-3 22.5q-2 22 -2 33q0 30 4 56.5t13 77.5q3 18 12 38t12 28q8 16 26 26q6 3 11 3q6 0 9 -2q35 -16 51 -54q2 -5 -3 -18z" />
    <glyph glyph-name="v" unicode="v" horiz-adv-x="409" 
d="M0.5 426q0.5 10 2.5 24q1 8 10 16.5t20 10.5q10 2 21 -3.5t15 -14.5q4 -8 5 -13q8 -31 15 -67l15 -64q3 -12 6.5 -28.5t5.5 -24.5q16 -74 31 -110q1 -3 4 -5.5t5 -2.5q7 2 11 8q3 10 9 28.5t9 32.5q31 154 72 266l27 65q6 17 18 25t31 10q4 0 7 1q10 1 19.5 -6.5
t11.5 -17.5q3 -12 3 -26q0 -11 -3 -23q-7 -28 -10 -37q-9 -42 -20 -72q-25 -74 -39 -150q-7 -37 -22 -98l-10 -40q-7 -37 -34 -85q-18 -34 -52 -34q-18 0 -33 7q-23 9 -39 29t-32 49q-27 46 -49 130q-9 36 -12.5 55.5t-2.5 41.5q0 18 -5 28q-9 20 -9 54l-2 24q0 7 0.5 17z
" />
    <glyph glyph-name="w" unicode="w" horiz-adv-x="518" 
d="M353 143q5 15 6 22l3 48q1 7 2 21t1 25q2 76 7 112q4 34 4 53q0 30 -6 57l-2 16q0 9 5 14t19 10q4 2 11 2t14 -4q11 -5 16 -13q22 -35 23 -62l1 -22q3 -25 2 -45q0 -233 -1 -349q0 -25 -8 -40q-12 -21 -39 -34q-13 -6 -25 -6q-19 0 -37 16q-26 23 -42 52q-33 60 -56 122
q-3 7 -10 6q-8 -2 -11.5 -10.5t-5 -17.5t-2.5 -13q-6 -19 -16.5 -40.5t-13.5 -26.5q-12 -21 -32 -43q-13 -15 -38 -26q-13 -5 -23 -5q-16 0 -29.5 8.5t-20.5 24.5q-49 105 -49 202q0 30 8 90l6 55q1 13 7.5 29t8.5 22q2 4 6.5 7t9.5 3q11 1 34 1q26 0 28 -29q2 -38 -6 -114
q-5 -39 -5 -92q0 -25 2 -75l3 -4q2 1 6 2.5t5 3.5q15 22 19 43q5 24 14 45t27 54q14 29 43 51q14 11 31 11q11 0 26 -5q6 -1 10 -8q11 -22 15 -44q10 -52 36 -101q4 -9 11 -13l0.5 -0.5l0.5 -0.5q2 0 7 15z" />
    <glyph glyph-name="x" unicode="x" horiz-adv-x="343" 
d="M170.5 387q9.5 21 13.5 29q12 28 42 48q11 8 20 8q13 0 28 -18q8 -9 8 -20q0 -6 -3 -14q-45 -97 -88 -168q1 -4 1.5 -8.5t2.5 -6.5q20 -31 52 -97q20 -41 39 -70q10 -16 10 -31q0 -18 -14 -38q-3 -5 -4 -6q-1 0 -6.5 -3.5t-12.5 -1.5q-18 1 -40 18t-41 41l-21 29
q-6 9 -18 9q-8 0 -13 -6q-31 -39 -45 -66q-11 -24 -26 -53q-4 -7 -9 -10q-7 -4 -13 -2q-23 8 -30 38q-3 14 -3 28q0 22 8 38l50 107q8 18 11 27q3 8 3 16q0 7 -3 13q-4 8 -17 38.5t-27 55.5q-25 44 -25 101l1 20q2 22 18 30q9 4 17 7.5t15 6.5t14 3q10 0 19 -6t14 -17
q8 -15 20 -47q2 -5 6.5 -18t9.5 -23q1 -5 6.5 -9.5t7.5 -6.5q13 14 22.5 35z" />
    <glyph glyph-name="y" unicode="y" horiz-adv-x="400" 
d="M324 71l-9 -50q-13 -73 -43 -158q-24 -62 -56 -93q-2 -2 -7 -6.5t-9 -5.5l-22 -7q-45 -17 -75 -17q-21 0 -36 8.5t-21 24.5q-11 29 -16.5 50.5t-5.5 43.5q0 12 1 19q5 22 19 36q11 10 24 10q15 0 29 -18q7 -10 9 -25q2 -8 3 -19t1 -15q1 -6 5 -9.5t9 -3.5q13 0 22 15
t14.5 30t7.5 20q15 41 21 82q5 31 12 59q1 7 7 35.5t7 54.5q0 5 -6 11l-1 -2.5t-2 -4.5q-11 -11 -15 -16q-8 -11 -19 -21q-22 -19 -50 -19h-13q-9 0 -14 -1l-10 -1q-19 0 -28.5 9.5t-17 23t-10.5 19.5q-4 5 -8 19l-7 31q-12 50 -13 76q-1 21 -1 64q0 31 1 46q0 6 1.5 28
t6 39.5t13.5 24.5q6 5 11 10.5t9.5 8t13.5 2.5q17 -2 24 -11q4 -6 10 -18l9 -18q10 -19 10 -41q0 -14 -4 -26q-11 -35 -9 -91q0 -25 2 -39t13 -4q15 14 26 35.5t25 56.5q26 58 36 88q2 7 9 26t14.5 33t18.5 26q10 10 28 10q11 0 22.5 -5t16.5 -12q31 -40 34 -88
q1 -18 0.5 -32t-0.5 -23v-27q0 -151 -17 -248z" />
    <glyph glyph-name="z" unicode="z" horiz-adv-x="383" 
d="M149 410q-12 0 -36 -6q-21 -7 -38 -7q-27 0 -41 14q-7 6 -15.5 13t-14.5 15q-1 1 -2.5 8t-1.5 11q1 13 15 25.5t26 9.5q25 -5 44 -4q10 1 18.5 3t15.5 3q28 6 42 7q13 1 38 1q32 0 47 -2q26 -1 45 -24q11 -13 11 -27q2 -19 -6 -36q-2 -5 -4.5 -11t-5.5 -14
q-13 -31 -22 -50.5t-24 -36.5q-31 -35 -52.5 -75.5t-49.5 -103.5l-2 -8q0 -7 5.5 -11t15.5 -3q18 1 54 1q9 0 36.5 1t49.5 4h3q10 0 26 -6q12 -4 18 -12t6 -19q0 -8 -3 -16q-10 -27 -43 -37q-21 -8 -41 -8q-29 0 -57.5 -6t-67.5 -18q-21 -6 -42 -6q-8 0 -24 2
q-10 1 -19.5 10.5t-11.5 18.5q-1 7 -1.5 18.5t-2.5 18.5q-9 22 -9 51q0 44 26 99q35 76 95 168q1 2 9 14t11 25q-9 6 -20 6z" />
    <glyph glyph-name="braceleft" unicode="{" horiz-adv-x="319" 
d="M298 40l-1 -4q-19 -34 -68 -52q-9 -4 -20.5 -5t-14.5 -1l-8 -1q-11 0 -27 7q-26 12 -37 36q-16 36 -24 75q-4 21 -4 46v30l1 32q0 21 -5 35q-4 10 -12 11q-6 2 -17 3.5t-18 4.5q-9 4 -12 10.5t-6 20.5q-3 8 3 19.5t16 28.5q8 11 18 21q12 13 19 22.5t10 20.5q3 10 4 13
q8 15 8 34q0 13 -6 41q-4 19 -5 31q-1 16 3 36t5 29q4 33 19 58.5t43 33.5q20 4 30 4q7 0 19 -2q15 -2 25.5 -6t15.5 -12q2 -2 1.5 -7t-0.5 -7q0 -7 -3 -13q-7 -12 -18 -16q-8 -1 -15 0l-6 2t-7 2l-3 1q-3 0 -6.5 -2.5t-4.5 -3.5q-12 -12 -14 -15q-4 -6 -5 -14t-1 -10
q-2 -22 -2 -34t1 -18l7 -66q2 -20 2 -31q0 -56 -34 -97q-1 -2 -2 -6t-1 -6q1 -1 1 -2.5t1 -1.5q14 -12 19.5 -27t8.5 -36q6 -36 6 -84q0 -16 -2 -32q-3 -24 -3 -35q0 -47 27 -51q3 -1 10 -1q9 0 16 3l15 8q2 1 13.5 9t22.5 8q7 0 12 -5q8 -8 11 -19q2 -8 -1 -13z" />
    <glyph glyph-name="bar" unicode="|" horiz-adv-x="216" 
d="M132.5 663q7.5 -10 5.5 -25q-3 -21 -3 -44l1 -44q2 -32 1 -47q0 -11 1 -17q4 -29 9.5 -183.5t3.5 -181.5q3 -16 3 -38.5v-29.5q0 -10 -3.5 -24.5t-4.5 -21.5q-2 -8 -14 -13q-2 -1 -9 -1q-10 0 -22.5 3t-16.5 5q-2 2 -5.5 3t-8.5 7q-5 5 -6.5 20.5t-2.5 20.5q-1 9 -5 27
t-3 28q1 8 1 25l-1 50l-4 132l-5 210q0 42 -3 84q0 22 2 33q2 10 6.5 17t14.5 12q-2 -1 13 10q8 4 13 4q4 0 10 -2q4 -2 5 -2q20 -7 27.5 -17z" />
    <glyph glyph-name="braceright" unicode="}" horiz-adv-x="259" 
d="M64 -13q-17 1 -29 19q-11 17 -11 30q0 16 15 24q10 7 23 12q23 10 41 31t21 43q2 28 -13 74q-2 6 -4.5 14t-4.5 18q-4 22 -4 32q0 14 2 21t7.5 19.5t5.5 20.5t-4 13q-4 8 -15 21q-3 5 -11 15.5t-9 17.5q-3 11 -3 22q0 16 8 48q3 14 17 39q10 20 13 30q2 6 2 13q0 9 -3 27
q-2 7 -10.5 9.5t-17 2.5h-12.5t-16.5 1.5t-22.5 5t-15 8.5l-6 6q-8 11 -8 20l1 14q0 16 15.5 21t39.5 6q59 3 103 -38q7 -6 11 -13.5t5 -9.5q11 -19 11 -39q0 -13 -5 -35q-3 -12 -19 -44l-9 -19q-4 -9 -8 -20.5t-4 -21.5q0 -17 13 -26q13 -11 36 -16q11 -2 21 -16
q6 -7 6 -18q0 -10 -6 -18q-2 -4 -5.5 -7t-5.5 -7q-7 -6 -11 -14q-7 -7 -7 -20q-1 -37 12 -82q5 -15 5 -58q0 -25 -2 -45l-7 -34q-5 -22 -35 -50q-22 -20 -51 -35q-6 -3 -20 -7q-2 -1 -7.5 -3t-10.5 -2h-2z" />
    <glyph glyph-name="asciitilde" unicode="~" horiz-adv-x="385" 
d="M264.5 381q2.5 12 2.5 29q0 10 -6 32q-6 24 -6 36q0 16 8 25q12 14 27 14t28 -15q28 -35 33 -58q2 -7 2 -24q0 -24 -6.5 -49t-17.5 -42q-18 -27 -45 -37q-11 -4 -24 -4q-32 0 -58 18q-16 11 -26 24q-1 1 -14 17q-18 19 -26 35q-1 2 -9 7q-1 1 -4 1q-5 0 -6 -4l-2 -18
q-3 -24 -24 -38q-7 -5 -20 -5q-11 0 -16 1l-4 2q-32 20 -31 49q0 11 2 37q2 25 15.5 43t37.5 36q12 11 34 11q23 2 39 -10q21 -17 37 -41q4 -6 10 -20q3 -5 8 -14t10 -15l13 -17q10 -17 23 -27q1 -1 4 -1q9 10 11.5 22z" />
    <glyph glyph-name="uni007F" 
 />
    <glyph glyph-name="exclamdown" unicode="&#xa1;" horiz-adv-x="191" 
d="M20 -229l1 63q1 3 1 9q1 8 3.5 22.5t2.5 25.5q0 18 2 58v53q0 43 6 72q3 12 3.5 28.5t0.5 24.5q1 36 1 107q0 14 7 33q8 17 27 26q6 3 15 3q11 0 21.5 -4.5t14.5 -12.5q16 -34 16 -55v-16q1 -19 0.5 -33t-0.5 -23v-39q0 -5 -0.5 -18.5t-5.5 -24.5q-2 -7 -2 -24l-2 -116
v-15q0 -17 -6 -28q0 -18 -2 -52v-63q0 -16 -15 -24q-7 -5 -22 -8t-28 -4q-16 0 -27 10q-12 10 -12 25zM46 339q-8 16 -7 32q0 16 7 26.5t18 13.5l33 5q13 1 21.5 -7t17.5 -24q2 -4 2 -15q0 -17 -6 -23q-12 -14 -25 -18q-22 -5 -43 -5q-10 -1 -18 15z" />
    <glyph glyph-name="cent" unicode="&#xa2;" horiz-adv-x="332" 
d="M276 186q-7 -16 -22 -43q-22 -45 -75 -56q0 -19 -5 -33q-4 -11 -15 -18t-22 -4q-9 3 -16 14q-2 4 -2 43q-16 6 -33 18q-6 4 -9 7q-45 61 -46 116q-1 21 -1 63q0 55 27 129q11 34 44 60q9 8 29 22q0 25 9 42q4 8 13 13.5t18 5.5q4 0 10 -2q9 -3 15 -15q1 -1 1 -7
q0 -11 -1 -17l3 -1q17 -5 38 -14q21 -10 27 -29q9 -27 9 -38q0 -8 -3 -16q-4 -12 -15.5 -21t-24.5 -9l-34 1q-24 0 -39 -21q-6 -10 -11.5 -21t-6.5 -21q0 -7 -2.5 -17.5t-3.5 -18.5v-11q0 -18 1 -26q0 -20 5 -43q1 -3 4.5 -19.5t10.5 -24.5q3 -4 8 -4q11 0 23.5 17.5
t14.5 20.5q25 32 44 46q5 3 9 3q10 0 18.5 -13t10.5 -25v-1q2 -16 -5 -32z" />
    <glyph glyph-name="sterling" unicode="&#xa3;" horiz-adv-x="486" 
d="M47.5 -2q-5.5 5 -11.5 14q-6 10 -6 22t9 34q18 44 21 63q12 56 12 86l-1 22q-18 -2 -23 -2q-15 0 -25 10q-3 3 -3 16q0 16 7 24q5 6 14 9t18 4q7 1 13.5 2.5t7.5 5.5q3 12 3 37q0 14 -1 20l-3 25q-7 68 -7 89q1 11 0.5 18t-0.5 10v28q1 16 10.5 38t20.5 35q35 40 80 40
q20 0 38 -9.5t39 -26.5q16 -13 22 -33q2 -5 2 -14q0 -16 -9.5 -31t-23.5 -24q-9 -5 -19 -2l-22 7h-3q-4 0 -8 -2.5t-6 -5.5q-8 -16 -10.5 -34.5t-3.5 -21.5l-3 -23q0 -2 -4 -24.5t-4 -43.5q0 -31 13 -28l36 8q46 8 72 19q10 4 33 4q35 0 26 -19q-8 -20 -30 -35.5t-44 -22.5
q-45 -16 -93 -41q-10 -6 -11 -16q-8 -67 -24 -131l-3 -10q2 -1 4 -2.5t4 -1.5q14 0 22 -1l23 -1q29 0 47 9q15 7 30.5 16t26.5 20q14 12 50 53q13 16 33 16l10 -1q5 -1 9 -5t5 -8q2 -18 2 -28q0 -19 -3 -39q-3 -23 -21 -45q-21 -25 -50 -45.5t-57 -26.5q-10 -2 -31 -2t-55 2
q-7 1 -16.5 4t-17.5 4q-18 2 -27 2q-17 0 -32 -3q-5 -1 -16 -6t-18 -6q-2 -1 -5 0q-7 0 -12.5 5z" />
    <glyph glyph-name="currency" unicode="&#xa4;" horiz-adv-x="571" 
d="M90 353q0 57 35 110l-66 68l49 47l66 -64q49 35 112 35q59 0 110 -35l67 64l48 -47l-64 -67q35 -54 35 -111q0 -63 -35 -112l63 -66l-47 -47l-67 64q-50 -34 -110 -34q-64 0 -112 35l-66 -64l-48 47l65 66q-35 53 -35 111zM157 353q0 -54 37.5 -91.5t91.5 -37.5t92 37
t38 92q0 56 -38 93.5t-92 37.5t-91.5 -38t-37.5 -93z" />
    <glyph glyph-name="yen" unicode="&#xa5;" horiz-adv-x="411" 
d="M268 219q6 0 10 -5q8 -11 8 -27q0 -14 -6 -23q-16 -21 -34 -26q-28 -7 -46 -13q-11 -4 -13 -17l-1 -16l1 -16q1 -8 2.5 -16t2.5 -16q4 -27 -22 -46q-4 -2 -10 -2q-27 10 -35 31q-7 20 -8 26q-4 17 -7 38q-1 11 -4 26q-2 2 -5 2q-4 0 -13 -3.5t-12 -3.5q-16 0 -24 8
q-5 5 -9 15t-5 18q0 8 4 15q10 18 29 22q4 1 20 4t19 6q1 2 1.5 6.5t-0.5 8.5q0 3 -1.5 8.5t-3.5 6.5q-5 1 -9.5 0.5t-7.5 -0.5h-8q-5 0 -10.5 -0.5l-16.5 -1.5q-19 0 -27.5 9.5t-20.5 32.5q-1 2 -4 13q-2 4 -2 9q0 12 17 18q9 3 26 6q20 3 32 7q9 3 9 8q0 4 -3 11
q-23 58 -43 163l-13 69q-2 6 -2 10l-1 14q0 16 7.5 23.5t28.5 11.5q5 1 11.5 0.5t10.5 -0.5q13 -2 17 -11q10 -17 11 -22l2 -14l2 -14q1 -9 5 -29q3 -9 5 -22.5t4 -20.5q6 -36 11 -53l6 -20q1 -3 4.5 -10t2.5 -10l12 31q5 10 10 25q18 54 64 132q24 39 73 76q7 5 14 8
q12 4 17 4q16 0 30 -17q10 -16 10 -36q0 -22 -11 -35q-5 -6 -10 -13.5t-12 -15.5q-22 -22 -37.5 -46t-40.5 -67q-14 -22 -22 -33l-12 -17l-18 -27q-23 -35 -20 -37q3 -1 21 1.5t27 4.5l21 1q6 0 8 -1q14 -4 19 -10.5t8 -20.5q3 -9 3 -20q0 -25 -15 -33q-10 -6 -23.5 -8.5
t-17.5 -3.5q-8 -1 -22 -5l-26 -6q-3 0 -9 -3t-4 -9q1 -5 2.5 -10.5t6.5 -7.5q6 -2 10 -2q8 0 19 3t15 4l20 5z" />
    <glyph glyph-name="brokenbar" unicode="&#xa6;" horiz-adv-x="550" 
d="M239 760h73v-381h-73v381zM239 140h73v-381h-73v381z" />
    <glyph glyph-name="section" unicode="&#xa7;" horiz-adv-x="513" 
d="M67 395q0 42 21 75t58 51q-36 20 -56 47t-20 68q0 60 50.5 94.5t146.5 34.5q45 0 82 -7t89 -27l-27 -67q-47 19 -80.5 26t-69.5 7q-56 0 -82.5 -14.5t-26.5 -44.5q0 -27 28 -47.5t104 -47.5q89 -33 126 -70t37 -90q0 -88 -75 -133q74 -39 74 -110q0 -69 -57.5 -107
t-160.5 -38t-169 33v75q42 -19 88.5 -30t84.5 -11q62 0 96 18t34 53q0 30 -26 49t-103 49q-96 36 -131 72.5t-35 91.5zM142 405q0 -25 13 -43.5t43 -35.5t109 -47q64 37 64 91q0 40 -34 66.5t-123 54.5q-32 -9 -52 -33t-20 -53z" />
    <glyph glyph-name="dieresis" unicode="&#xa8;" horiz-adv-x="201" 
d="M69.5 590q7.5 -12 7.5 -25q0 -34 -32 -34q-20 0 -32.5 11t-12.5 28q0 14 11 30q6 7 14 6q10 -2 17 -2.5t12 -0.5q8 -1 15.5 -13zM179 567q0 -9 -9 -15q-2 -1 -4 -3t-5 -4q-3 -1 -9 -5q-8 -5 -16 -5t-20 7q-5 4 -7 13q-1 3 -2 7.5t-1 9.5q0 14 18 29q11 9 21 9
q14 0 27 -15q5 -5 5.5 -12.5t0.5 -10.5z" />
    <glyph glyph-name="copyright" unicode="&#xa9;" horiz-adv-x="450" 
d="M403 543q0 -54 -9 -94q-22 -109 -100 -127q-6 -2 -18.5 -6t-22.5 -5q-9 -1 -21.5 -3.5t-20.5 -2.5q-36 0 -63 11q-52 23 -68 61q-14 32 -22 58.5t-8 53.5l1 14l5 74q1 6 3 10t3 7q11 35 39.5 60.5t61 39t52.5 14.5q39 1 61 -4.5t38 -14t24 -11.5q13 -6 22 -18
q4 -6 12.5 -17t12.5 -21q20 -49 18 -79zM339 466.5q6 25.5 4 45.5l-3 35q0 45 -32 85q-9 11 -23 17.5t-29 6.5q-9 0 -18 -3q-30 -10 -49 -24q-23 -16 -31 -35.5t-16 -55.5q-2 -8 -2 -25q0 -5 0.5 -15t-0.5 -17q0 -50 19 -83v-2q2 -4 8 -12t12 -11q4 -2 15 -9t21 -8
q4 -1 13 -1q18 0 36 5q21 6 36 22t23 36q10 23 16 48.5zM300 470v0q1 -9 -6 -20t-8 -14q-13 -21 -45 -26q-3 -1 -9 -1q-15 0 -33 11l-4 3q-24 25 -25 52v29q0 25 14 58q6 14 22 27q16 11 33 17q10 4 18 1l19 -6q11 -5 14 -13q3 -6 4.5 -12.5t-1.5 -11.5q-1 -6 -7 -10t-13 -4
h-18q-14 0 -20 -9q-1 -1 -5 -7t-4 -12q0 -4 -1.5 -8.5l-2.5 -7.5l1 -17q0 -10 3 -19q2 -14 7 -20l4 -2q6 0 12.5 8.5t7.5 9.5q16 16 23 20q1 1 4 1q5 0 9.5 -5.5t5.5 -10.5z" />
    <glyph glyph-name="ordfeminine" unicode="&#xaa;" horiz-adv-x="356" 
d="M261 389l-12 42q-46 -48 -114 -48q-47 0 -75 24.5t-28 74.5t38.5 76t119.5 29l56 2v22q0 30 -19 44.5t-52 14.5q-49 0 -101 -26q-13 30 -22 49q60 29 125 29t98 -27t33 -86v-220h-47zM96 482q0 -48 54 -48q96 0 96 87v23l-48 -2q-54 -2 -78 -16t-24 -44z" />
    <glyph glyph-name="guillemotleft" unicode="&#xab;" horiz-adv-x="508" 
d="M40 270l168 201l63 -36l-140 -171l140 -171l-63 -37l-168 201v13zM238 270l170 201l62 -36l-140 -171l140 -171l-62 -37l-170 201v13z" />
    <glyph glyph-name="logicalnot" unicode="&#xac;" horiz-adv-x="571" 
d="M520 388v-260h-71v189h-399v71h470z" />
    <glyph glyph-name="uni00AD" unicode="&#xad;" horiz-adv-x="321" 
d="M40 229v78h242v-78h-242z" />
    <glyph glyph-name="registered" unicode="&#xae;" horiz-adv-x="446" 
d="M393 543q0 -54 -9 -94q-22 -109 -100 -127q-6 -2 -18.5 -6t-22.5 -5q-9 -1 -21.5 -3.5t-20.5 -2.5q-36 0 -63 11q-52 23 -68 61q-14 32 -22 58.5t-8 53.5l1 14l5 74q1 6 3 10t3 7q11 35 39.5 60.5t61 39t52.5 14.5q39 1 61 -4.5t38 -14t24 -11.5q13 -6 22 -18
q4 -6 12.5 -17t12.5 -21q20 -49 18 -79zM329 466.5q6 25.5 4 45.5l-3 35q0 45 -32 85q-9 11 -23 17.5t-29 6.5q-9 0 -18 -3q-30 -10 -49 -24q-23 -16 -31 -35.5t-16 -55.5q-2 -8 -2 -25q0 -5 0.5 -15t-0.5 -17q0 -50 19 -83v-2q2 -4 8 -12t12 -11q4 -2 15 -9t21 -8
q4 -1 13 -1q18 0 36 5q21 6 36 22t23 36q10 23 16 48.5zM302.5 430q2.5 -3 4.5 -6l1 -3q0 -3 -2.5 -5.5t-6.5 -3.5q-8 0 -12 1q-10 3 -21 9l-39 24q-6 3 -11 3q-3 0 -5 -3q-2 -4 -2 -7v-32l-1 -8q-1 -2 -5 -4.5t-7 -2.5q-17 3 -27 19q-2 6 -2 10v82q0 48 1 72v16q0 3 2 9v4
t3 4q4 1 12 1q9 0 14 -2q6 -1 10 -9q3 -5 10 -5l21 1q16 -1 29 -9.5t18 -21.5q6 -18 5 -26q0 -17 -13 -25q-15 -9 -26 -13q-11 -5 -25 -9l23 -16q20 -16 28 -20q13 -7 19 -16q2 -5 4.5 -8zM228 525q12 9 15 11l4 4q2 4 2 7v2q0 2 -2 4t-4 2t-5 0.5t-7 -0.5q-14 -1 -18 -5
t-4 -16q1 -3 0.5 -5.5t-0.5 -4.5q1 -1 1.5 -4t2.5 -2q7 3 15 7z" />
    <glyph glyph-name="macron" unicode="&#xaf;" horiz-adv-x="339" 
d="M232 290q2 -8 -1 -11q-4 -8 -8 -12q-5 -3 -11 -9t-13 -7q-9 -2 -19 -5t-25 -2q-6 0 -9 0.5t-5 0.5q-5 0 -9 -1q-36 -6 -54 -6q-7 0 -23 2q-26 3 -46 25q-9 9 -9 25q0 8 5 16t12 9l12 1q11 0 24.5 2t19.5 3l58 5q7 1 16 3.5t20 2.5q7 0 21 -2q18 -3 25 -7.5t15 -21.5
q2 -3 4 -11z" />
    <glyph glyph-name="degree" unicode="&#xb0;" horiz-adv-x="253" 
d="M209 537q-4 -10 -18 -26q-1 -2 -4.5 -8.5t-9.5 -10.5q-7 -4 -23 -8q-12 -4 -27 -4q-21 0 -38 10l-19 9q-43 19 -48 65q-2 18 -2 25q0 27 8 57q8 29 36 45q14 8 43 12q20 4 31 4q9 0 19 -3q34 -9 46.5 -24t15.5 -48l-1 -13q2 -50 -9 -82zM137 524q14 5 22.5 17.5t9.5 24.5
q3 21 3 44q2 12 2 19q0 13 -6 19q-1 2 -7 10t-13.5 12t-15.5 2q-20 -6 -23 -21q-7 -28 -10 -35q-5 -17 -5 -32q0 -10 4 -32q2 -14 11 -20q14 -11 25 -9q2 0 3 1z" />
    <glyph glyph-name="plusminus" unicode="&#xb1;" horiz-adv-x="571" 
d="M321 391h199v-71h-199v-206h-72v206h-199v71h199v207h72v-207zM50 0v71h470v-71h-470z" />
    <glyph glyph-name="uni00B2" unicode="&#xb2;" horiz-adv-x="350" 
d="M306 286h-282v54l115 112q62 60 79.5 87.5t17.5 61.5q0 32 -18.5 48t-48.5 16t-54.5 -11.5t-50.5 -31.5l-35 46q65 55 141 55q64 0 100.5 -32t36.5 -86q0 -22 -6 -41.5t-18.5 -39.5t-33 -42.5t-138.5 -133.5h195v-62z" />
    <glyph glyph-name="uni00B3" unicode="&#xb3;" horiz-adv-x="350" 
d="M308 613q0 -74 -74 -102q87 -21 87 -102q0 -62 -45 -96.5t-128 -34.5q-74 0 -131 28v63q69 -34 132 -34q100 0 100 76q0 69 -110 69h-57v55h57q50 0 73.5 19t23.5 51q0 29 -19 45t-51 16q-51 0 -111 -38l-36 46q36 27 71 38t75 11q66 0 104.5 -29.5t38.5 -80.5z" />
    <glyph glyph-name="acute" unicode="&#xb4;" horiz-adv-x="125" 
d="M99 618q0 -5 -2 -11q0 -4 -3 -7q-12 -20 -29 -41.5t-31 -31.5q-4 -4 -12 -7q-1 -1 -6 -1t-9.5 2.5t-5.5 7.5l-1 14q1 11 6.5 21t7.5 14q19 34 44 65q5 8 14 6q13 -1 22 -13q5 -7 5 -18z" />
    <glyph glyph-name="mu" unicode="&#xb5;" horiz-adv-x="623" 
d="M173 190q0 -127 120 -127q83 0 120 45.5t37 148.5v279h88v-536h-71l-14 72h-5q-53 -82 -161 -82q-71 0 -115 45h-4q5 -36 5 -119v-156h-88v776h88v-346z" />
    <glyph glyph-name="paragraph" unicode="&#xb6;" horiz-adv-x="654" 
d="M549 -127h-58v831h-102v-831h-58v400q-30 -9 -71 -9q-105 0 -155 61t-50 184q0 127 53.5 189t166.5 62h274v-887z" />
    <glyph glyph-name="periodcentered" unicode="&#xb7;" horiz-adv-x="128" 
d="M100 250q0 -13 -11 -22q-3 -3 -6.5 -5t-6.5 -5l-13 -7q-10 -7 -21 -7q-13 0 -28 10q-8 6 -10 18q-1 5 -2.5 12t-1.5 12q0 19 24 40q13 12 28 12q18 0 39 -21q6 -7 7 -17.5t2 -14.5v-5z" />
    <glyph glyph-name="cedilla" unicode="&#xb8;" horiz-adv-x="116" 
d="M8 -143q-5 0 -7 7q-1 3 -1 11q0 1 1 8t6 11q2 2 6.5 3t8.5 3q1 0 7 2q11 4 17 11q1 2 2 4.5t0 4.5q-1 9 -9 6l-7.5 -2.5t-7.5 -0.5l-2 1q-8 3 -12 12q-2 6 -2 8q0 3 2 13q4 19 12 42l5 10l1 2q5 9 15 11q2 1 5 1q4 0 14 -4q8 -4 9 -10q1 -2 1 -5t-1.5 -7t-1.5 -6
q-6 -14 -10 -21v-4q3 -5 5 -5q1 -1 2.5 -1t2.5 -1q4 -2 7 -2q13 -6 19 -23q2 -10 2 -17q0 -18 -9 -30q-1 -2 -9 -10q-12 -10 -18 -14q-10 -7 -19 -8q-6 -2 -19 -2z" />
    <glyph glyph-name="uni00B9" unicode="&#xb9;" horiz-adv-x="350" 
d="M167 714h73v-428h-71v276q0 33 4 89q-15 -14 -26.5 -23t-74.5 -55l-35 49z" />
    <glyph glyph-name="ordmasculine" unicode="&#xba;" horiz-adv-x="375" 
d="M345 553q0 -80 -42 -125t-116 -45q-71 0 -113 45t-42 125q0 81 41 125t116 44q73 0 114.5 -44.5t41.5 -124.5zM95 553q0 -59 21.5 -88t71.5 -29q49 0 71 29t22 88t-22 87.5t-71 28.5t-71 -28.5t-22 -87.5z" />
    <glyph glyph-name="guillemotright" unicode="&#xbb;" horiz-adv-x="508" 
d="M469 257l-170 -201l-62 37l140 171l-140 171l62 36l170 -201v-13zM270 257l-169 -201l-62 37l140 171l-140 171l62 36l169 -201v-13z" />
    <glyph glyph-name="onequarter" unicode="&#xbc;" horiz-adv-x="790" 
d="M736 96h-61v-96h-75v96h-195v52l197 283h73v-275h61v-60zM600 156v93q0 52 3 101q-4 -9 -48 -77l-80 -117h125zM637 714l-436 -714h-75l436 714h75zM165 714h73v-428h-71v276q0 33 4 89q-15 -14 -26.5 -23t-74.5 -55l-35 49z" />
    <glyph glyph-name="onehalf" unicode="&#xbd;" horiz-adv-x="790" 
d="M607 714l-436 -714h-75l436 714h75zM152 714h73v-428h-71v276q0 33 4 89q-15 -14 -26.5 -23t-74.5 -55l-35 49zM727 0h-282v54l115 112q62 60 79.5 87.5t17.5 61.5q0 32 -18.5 48t-48.5 16t-54.5 -11.5t-50.5 -31.5l-35 46q65 55 141 55q64 0 100.5 -32t36.5 -86
q0 -22 -6 -41.5t-18.5 -39.5t-33 -42.5t-138.5 -133.5h195v-62z" />
    <glyph glyph-name="threequarters" unicode="&#xbe;" horiz-adv-x="790" 
d="M772 96h-61v-96h-75v96h-195v52l197 283h73v-275h61v-60zM636 156v93q0 52 3 101q-4 -9 -48 -77l-80 -117h125zM681 714l-436 -714h-75l436 714h75zM307 613q0 -74 -74 -102q87 -21 87 -102q0 -62 -45 -96.5t-128 -34.5q-74 0 -131 28v63q69 -34 132 -34q100 0 100 76
q0 69 -110 69h-57v55h57q50 0 73.5 19t23.5 51q0 29 -19 45t-51 16q-51 0 -111 -38l-36 46q36 27 71 38t75 11q66 0 104.5 -29.5t38.5 -80.5z" />
    <glyph glyph-name="questiondown" unicode="&#xbf;" horiz-adv-x="345" 
d="M0 -144q0 11 1 17q1 11 8.5 21.5t10.5 15.5q13 9 27 29q6 9 14 17q11 11 17.5 19t9.5 19q3 9 11 17q26 29 60 88l18 29q19 31 20 58q1 16 1 48q1 13 13 24.5t25 11.5q14 0 20 -2q21 -7 26 -23q4 -12 6 -26q1 -6 1 -14t1 -12q1 -52 -22 -107q-23 -52 -57 -86
q-21 -21 -48 -67q-6 -11 -20 -31q-29 -42 -32 -47q-2 -2 -3 -7t-2 -8q0 -3 3 -7t5 -5l11 -1q43 5 68 30l14 16q17 22 50 34q6 3 13 3q11 0 21 -8q20 -16 20 -42q0 -10 -3 -19q-13 -35 -45 -56q-37 -22 -74 -35q-29 -10 -61 -10q-20 0 -40 3q-30 5 -45 23l-10 12
q-33 33 -33 78zM186.5 350q-5.5 17 -5.5 30q0 11 11 20q20 13 37 15q3 1 8 1q11 0 22 -4.5t15 -11.5q3 -4 5.5 -11.5t5.5 -13.5q2 -3 -1 -18t-7 -18q-7 -6 -15.5 -8t-12.5 -3l-10 -2l-10 -2q-4 -2 -12 -2q-11 0 -17 5q-8 6 -13.5 23z" />
    <glyph glyph-name="Agrave" unicode="&#xc0;" horiz-adv-x="467" 
d="M395 128q0 -34 -26 -73q-6 -10 -18 -10q-4 0 -10 2q-29 11 -40 31l-27 46q-10 17 -12 43q-2 34 -4 50l-2 23q-1 5 -8 8.5t-12 0.5l-59 -33q-24 -11 -26 -41q-4 -41 -16 -99l-8 -45q-1 -10 -11 -44q-4 -12 -14 -20t-22 -8q-3 0 -11 2q-33 11 -51 33t-18 61q0 19 8 59
q5 25 14 88l7 50q1 9 3 29.5t6 30.5l11 41q7 30 17 92q7 38 24 87q14 40 40 90q7 15 28 45q23 34 60 34q13 0 20 -2q25 -7 54 -22q20 -11 31 -42q17 -40 19 -60q1 -21 9 -63q6 -24 9 -50q2 -26 2 -39q1 -20 3 -41t7 -38q7 -23 9 -69q0 -7 0.5 -17.5t2.5 -24.5q8 -67 10 -93
q1 -4 1 -12zM211 543q-4 -8 -10 -26q-5 -14 -11 -42q-13 -69 -17 -111q-1 -5 5.5 -9t12.5 -3l38 16q8 4 12 12.5t1 17.5q-8 26 -12 80q-2 24 -4 38q0 3 -1 13.5t-4 14.5q-6 7 -10 -1zM224.5 759.5q-8.5 4.5 -14.5 11.5q-11 14 -13 17q-3 8 -11 22q-2 4 -3.5 11.5t-3.5 10.5
q-2 4 -9 19q-2 6 -2 10t2 10q3 9 14 11q7 2 13 0q5 0 8 -3q9 -5 14 -16q3 -6 10.5 -23t12.5 -32q3 -8 9 -16l4 -8q4 -10 2 -15q-5 -11 -16 -13q-8 -1 -16.5 3.5z" />
    <glyph glyph-name="Aacute" unicode="&#xc1;" horiz-adv-x="467" 
d="M282 852q0 -5 -2 -11q0 -4 -3 -7q-12 -20 -29 -41.5t-31 -31.5q-4 -4 -12 -7q-1 -1 -6 -1t-9.5 2.5t-5.5 7.5l-1 14q1 11 6.5 21t7.5 14q19 34 44 65q5 8 14 6q13 -1 22 -13q5 -7 5 -18zM211 543q-4 -8 -10 -26q-5 -14 -11 -42q-13 -69 -17 -111q-1 -5 5.5 -9t12.5 -3
l38 16q8 4 12 12.5t1 17.5q-8 26 -12 80q-2 24 -4 38q0 3 -1 13.5t-4 14.5q-6 7 -10 -1zM395 128q0 -34 -26 -73q-6 -10 -18 -10q-4 0 -10 2q-29 11 -40 31l-27 46q-10 17 -12 43q-2 34 -4 50l-2 23q-1 5 -8 8.5t-12 0.5l-59 -33q-24 -11 -26 -41q-4 -41 -16 -99l-8 -45
q-1 -10 -11 -44q-4 -12 -14 -20t-22 -8q-3 0 -11 2q-33 11 -51 33t-18 61q0 19 8 59q5 25 14 88l7 50q1 9 3 29.5t6 30.5l11 41q7 30 17 92q7 38 24 87q14 40 40 90q7 15 28 45q23 34 60 34q13 0 20 -2q25 -7 54 -22q20 -11 31 -42q17 -40 19 -60q1 -21 9 -63q6 -24 9 -50
q2 -26 2 -39q1 -20 3 -41t7 -38q7 -23 9 -69q0 -7 0.5 -17.5t2.5 -24.5q8 -67 10 -93q1 -4 1 -12z" />
    <glyph glyph-name="Acircumflex" unicode="&#xc2;" horiz-adv-x="467" 
d="M395 128q0 -34 -26 -73q-6 -10 -18 -10q-4 0 -10 2q-29 11 -40 31l-27 46q-10 17 -12 43q-2 34 -4 50l-2 23q-1 5 -8 8.5t-12 0.5l-59 -33q-24 -11 -26 -41q-4 -41 -16 -99l-8 -45q-1 -10 -11 -44q-4 -12 -14 -20t-22 -8q-3 0 -11 2q-33 11 -51 33t-18 61q0 19 8 59
q5 25 14 88l7 50q1 9 3 29.5t6 30.5l11 41q7 30 17 92q7 38 24 87q14 40 40 90q7 15 28 45q23 34 60 34q13 0 20 -2q25 -7 54 -22q20 -11 31 -42q17 -40 19 -60q1 -21 9 -63q6 -24 9 -50q2 -26 2 -39q1 -20 3 -41t7 -38q7 -23 9 -69q0 -7 0.5 -17.5t2.5 -24.5q8 -67 10 -93
q1 -4 1 -12zM211 543q-4 -8 -10 -26q-5 -14 -11 -42q-13 -69 -17 -111q-1 -5 5.5 -9t12.5 -3l38 16q8 4 12 12.5t1 17.5q-8 26 -12 80q-2 24 -4 38q0 3 -1 13.5t-4 14.5q-6 7 -10 -1zM301 739q-5 -8 -15 -8q-8 0 -13 6q-17 22 -22 33q-2 5 -6.5 15t-8.5 17q0 1 -2 1h-0.5
h-0.5l-3 -4l-9 -22l-10 -21q-3 -10 -18 -19q-6 -2 -9 -2q-12 0 -18 9q-5 8 -5 11q6 12 8 19q2 5 3.5 9.5t3.5 9.5l24 47q7 10 23 21l12 6t11 5h2q5 0 9 -4q2 -3 4.5 -7t5.5 -9q4 -11 5 -20q6 -29 21 -52l3 -6l10 -25z" />
    <glyph glyph-name="Atilde" unicode="&#xc3;" horiz-adv-x="467" 
d="M243 741q-14 9 -22 36q-3 11 -9 22q-4 11 -9 13q-1 1 -3 1q-4 0 -5.5 -6.5t-1.5 -7.5q-2 -8 -2 -13q0 -11 -3 -18t-11 -12q-4 -4 -11 -4q-13 0 -16 16q-3 11 -3 20q0 29 28 55v0v1q14 9 32 9q11 0 21 -5q3 -2 10 -9q3 -4 9 -19t7 -23t4 -18q3 -8 9 -8q9 0 19 10q3 3 3 8
q0 7 -1 11q-1 5 -3 11.5t-2 10.5v3q0 13 6 17q10 8 18 8t12 -12t4 -29q2 -10 2 -16q0 -4 -2 -16q-1 -14 -13 -25t-27 -15q-7 -3 -16 -3q-14 0 -24 7zM211 543q-4 -8 -10 -26q-5 -14 -11 -42q-13 -69 -17 -111q-1 -5 5.5 -9t12.5 -3l38 16q8 4 12 12.5t1 17.5q-8 26 -12 80
q-2 24 -4 38q0 3 -1 13.5t-4 14.5q-6 7 -10 -1zM395 128q0 -34 -26 -73q-6 -10 -18 -10q-4 0 -10 2q-29 11 -40 31l-27 46q-10 17 -12 43q-2 34 -4 50l-2 23q-1 5 -8 8.5t-12 0.5l-59 -33q-24 -11 -26 -41q-4 -41 -16 -99l-8 -45q-1 -10 -11 -44q-4 -12 -14 -20t-22 -8
q-3 0 -11 2q-33 11 -51 33t-18 61q0 19 8 59q5 25 14 88l7 50q1 9 3 29.5t6 30.5l11 41q7 30 17 92q7 38 24 87q14 40 40 90q7 15 28 45q23 34 60 34q13 0 20 -2q25 -7 54 -22q20 -11 31 -42q17 -40 19 -60q1 -21 9 -63q6 -24 9 -50q2 -26 2 -39q1 -20 3 -41t7 -38
q7 -23 9 -69q0 -7 0.5 -17.5t2.5 -24.5q8 -67 10 -93q1 -4 1 -12z" />
    <glyph glyph-name="Adieresis" unicode="&#xc4;" horiz-adv-x="467" 
d="M313 781q0 -9 -9 -15q-2 -1 -4 -3t-5 -4q-3 -1 -9 -5q-8 -5 -16 -5t-20 7q-5 4 -7 13q-1 3 -2 7.5t-1 9.5q0 14 18 29q11 9 21 9q14 0 27 -15q5 -5 5.5 -12.5t0.5 -10.5zM203.5 804q7.5 -12 7.5 -25q0 -34 -32 -34q-20 0 -32.5 11t-12.5 28q0 14 11 30q6 7 14 6
q10 -2 17 -2.5t12 -0.5q8 -1 15.5 -13zM211 543q-4 -8 -10 -26q-5 -14 -11 -42q-13 -69 -17 -111q-1 -5 5.5 -9t12.5 -3l38 16q8 4 12 12.5t1 17.5q-8 26 -12 80q-2 24 -4 38q0 3 -1 13.5t-4 14.5q-6 7 -10 -1zM395 128q0 -34 -26 -73q-6 -10 -18 -10q-4 0 -10 2
q-29 11 -40 31l-27 46q-10 17 -12 43q-2 34 -4 50l-2 23q-1 5 -8 8.5t-12 0.5l-59 -33q-24 -11 -26 -41q-4 -41 -16 -99l-8 -45q-1 -10 -11 -44q-4 -12 -14 -20t-22 -8q-3 0 -11 2q-33 11 -51 33t-18 61q0 19 8 59q5 25 14 88l7 50q1 9 3 29.5t6 30.5l11 41q7 30 17 92
q7 38 24 87q14 40 40 90q7 15 28 45q23 34 60 34q13 0 20 -2q25 -7 54 -22q20 -11 31 -42q17 -40 19 -60q1 -21 9 -63q6 -24 9 -50q2 -26 2 -39q1 -20 3 -41t7 -38q7 -23 9 -69q0 -7 0.5 -17.5t2.5 -24.5q8 -67 10 -93q1 -4 1 -12z" />
    <glyph glyph-name="Aring" unicode="&#xc5;" horiz-adv-x="467" 
d="M260 778q4 4 4 8q-1 7 -5 21q-6 19 -24 19q-5 0 -13 -4q-8 -5 -14 -13t-6 -17q0 -10 10.5 -17.5t22.5 -7.5q11 0 17 5q4 2 8 6zM285 809.5q2 -10.5 2 -27.5q0 -24 -22 -37q-14 -8 -36 -8q-15 0 -29.5 5t-23.5 14q-14 17 -14 35q0 6 1 9q2 14 8.5 22t19.5 18q3 2 7 6t10 8
q6 3 22 3q12 1 24.5 -6.5t21.5 -19.5q7 -11 9 -21.5zM211 543q-4 -8 -10 -26q-5 -14 -11 -42q-13 -69 -17 -111q-1 -5 5.5 -9t12.5 -3l38 16q8 4 12 12.5t1 17.5q-8 26 -12 80q-2 24 -4 38q0 3 -1 13.5t-4 14.5q-6 7 -10 -1zM395 128q0 -34 -26 -73q-6 -10 -18 -10
q-4 0 -10 2q-29 11 -40 31l-27 46q-10 17 -12 43q-2 34 -4 50l-2 23q-1 5 -8 8.5t-12 0.5l-59 -33q-24 -11 -26 -41q-4 -41 -16 -99l-8 -45q-1 -10 -11 -44q-4 -12 -14 -20t-22 -8q-3 0 -11 2q-33 11 -51 33t-18 61q0 19 8 59q5 25 14 88l7 50q1 9 3 29.5t6 30.5l11 41
q7 30 17 92q7 38 24 87q14 40 40 90q7 15 28 45q23 34 60 34q13 0 20 -2q25 -7 54 -22q20 -11 31 -42q17 -40 19 -60q1 -21 9 -63q6 -24 9 -50q2 -26 2 -39q1 -20 3 -41t7 -38q7 -23 9 -69q0 -7 0.5 -17.5t2.5 -24.5q8 -67 10 -93q1 -4 1 -12z" />
    <glyph glyph-name="AE" unicode="&#xc6;" horiz-adv-x="696" 
d="M645 139q0 -13 -6.5 -26.5t-20.5 -32.5q-44 -60 -118 -84q-14 -4 -21 -4q-6 0 -14 2q-47 11 -82.5 27t-60.5 43q-29 31 -47 71.5t-19 81.5q0 5 -7.5 9t-12.5 1l-20 -10q-26 -14 -40 -20q-25 -12 -28 -41q-6 -48 -20 -112q-3 -10 -14 -44q-4 -11 -14 -18.5t-22 -7.5
q-3 0 -11 2q-65 23 -65 107q0 25 4.5 51t13.5 66q6 21 9 39l5 25q3 23 7 34q6 18 13 41q12 46 21 91q8 40 28 86q16 36 43 89q9 15 31 43q23 31 57 31q12 0 24 -3q22 -6 53 -24q17 -10 28 -39q9 2 66.5 15.5t108.5 32.5q24 9 48 9q7 0 23 -2q22 -3 35 -26q4 -7 4 -17
q0 -15 -7 -19q-23 -18 -29 -22q-75 -45 -159 -60q-5 -1 -10.5 -8.5t-5.5 -12.5q0 -33 1 -49q1 -10 7.5 -16.5t16.5 -7.5h18q12 0 17 -1q10 -1 26 -9q13 -7 23 -21.5t8 -22.5q-10 -33 -43 -46q-9 -3 -18 -3q-25 -1 -35.5 -4t-14.5 -10t-4 -24q0 -32 1 -48q0 -12 0.5 -30.5
t-0.5 -43.5q0 -26 21 -52q11 -11 21 -11q6 0 10 3q14 9 28 22t26 26q17 19 29 30t27 19q3 2 10 2q9 0 15 -5q42 -32 42 -62zM247 358q4 9 2 17q-9 30 -9 83l-2 36q0 23 -4 29q-5 6 -9.5 -1t-7.5 -15t-4 -11q-4 -10 -13 -42q-17 -73 -22 -109q-1 -5 5.5 -9.5t12.5 -3.5
q13 4 39 14q8 3 12 12z" />
    <glyph glyph-name="Ccedilla" unicode="&#xc7;" horiz-adv-x="432" 
d="M383 82q-50 -80 -130 -114q-24 -10 -53 -10q-2 -5 -4 -11t-5 -12q-1 -2 1 -4q2 -4 5 -4l6 -2l8 -1q17 -5 22 -20q5 -13 5 -25q0 -13 -6 -23q-6 -8 -10 -11l-17 -16q-12 -8 -20 -11q-9 -3 -20 -3q-5 -1 -16 -1q-3 0 -9 6q-2 4 -2 12v5q0 9 5 14q2 2 7.5 4t8.5 4l7 3
q14 7 18 12l1 10q-2 7 -11 5q-12 -5 -16 -5l-2 1q-9 1 -14 10q-3 6 -3 12l1 10q2 25 8 42q2 6 4 11q-83 36 -120 105q-8 17 -10 23q-3 17 -7 29q-13 49 -14 83l-1 51q0 45 6 75q5 24 12.5 52t10.5 39l8 28q15 56 42 98q14 23 36 50q6 7 17.5 21.5t21.5 22.5q43 36 79 36
q9 0 14 -1h23q20 0 35.5 -9.5t24.5 -27.5q4 -7 4 -15q0 -9 -4 -17q-8 -18 -36 -33q-10 -4 -16 -4q-25 1 -41 -10t-33 -35q-56 -80 -69 -168q-15 -37 -15 -91q0 -17 2 -49q2 -15 6 -33t5 -25q5 -22 17 -39.5t32 -35.5q18 -15 46 -15q24 0 40 12q17 14 31 28l25 22
q13 11 26 20q4 2 9 0q11 -2 20.5 -13t10.5 -22q2 -25 -7 -40z" />
    <glyph glyph-name="Egrave" unicode="&#xc8;" horiz-adv-x="407" 
d="M6 423v10q0 7 1 10q8 24 8 52q0 34 -10 64v3q0 5 4 12t7 9l8 4l49 12q106 24 158 43q22 9 47 9q7 0 23 -2q22 -3 35 -26q4 -7 4 -17q0 -15 -7 -19q-16 -14 -29 -22q-79 -47 -159 -60q-4 -1 -9.5 -8.5t-5.5 -12.5q0 -33 1 -49q1 -10 7.5 -16.5t16.5 -7.5h18q11 0 17 -1
q14 -3 25 -10q13 -6 23.5 -20.5t7.5 -22.5q-8 -33 -43 -46q-8 -3 -17 -3q-26 -1 -36.5 -4t-14 -10.5t-3.5 -26.5l1 -119q0 -29 21 -52q8 -11 19 -11q6 0 12 3q23 14 53 48q16 18 28.5 29.5t27.5 19.5q4 2 10 2q9 0 15 -5q42 -32 42 -63q0 -23 -27 -58q-44 -60 -117 -84
q-14 -4 -21 -4q-6 0 -14 2q-51 11 -95.5 33t-57.5 57q-15 38 -22 62.5t-7 53.5q0 36 2 114zM135.5 677.5q-8.5 4.5 -14.5 11.5q-11 14 -13 17q-3 8 -11 22q-2 4 -3.5 11.5t-3.5 10.5q-2 4 -9 19q-2 6 -2 10t2 10q3 9 14 11q7 2 13 0q5 0 8 -3q9 -5 14 -16q3 -6 10.5 -23
t12.5 -32q3 -8 9 -16l4 -8q4 -10 2 -15q-5 -11 -16 -13q-8 -1 -16.5 3.5z" />
    <glyph glyph-name="Eacute" unicode="&#xc9;" horiz-adv-x="407" 
d="M228 765q0 -5 -2 -11q0 -4 -3 -7q-12 -20 -29 -41.5t-31 -31.5q-4 -4 -12 -7q-1 -1 -6 -1t-9.5 2.5t-5.5 7.5l-1 14q1 11 6.5 21t7.5 14q19 34 44 65q5 8 14 6q13 -1 22 -13q5 -7 5 -18zM6 423v10q0 7 1 10q8 24 8 52q0 34 -10 64v3q0 5 4 12t7 9l8 4l49 12
q106 24 158 43q22 9 47 9q7 0 23 -2q22 -3 35 -26q4 -7 4 -17q0 -15 -7 -19q-16 -14 -29 -22q-79 -47 -159 -60q-4 -1 -9.5 -8.5t-5.5 -12.5q0 -33 1 -49q1 -10 7.5 -16.5t16.5 -7.5h18q11 0 17 -1q14 -3 25 -10q13 -6 23.5 -20.5t7.5 -22.5q-8 -33 -43 -46q-8 -3 -17 -3
q-26 -1 -36.5 -4t-14 -10.5t-3.5 -26.5l1 -119q0 -29 21 -52q8 -11 19 -11q6 0 12 3q23 14 53 48q16 18 28.5 29.5t27.5 19.5q4 2 10 2q9 0 15 -5q42 -32 42 -63q0 -23 -27 -58q-44 -60 -117 -84q-14 -4 -21 -4q-6 0 -14 2q-51 11 -95.5 33t-57.5 57q-15 38 -22 62.5
t-7 53.5q0 36 2 114z" />
    <glyph glyph-name="Ecircumflex" unicode="&#xca;" horiz-adv-x="407" 
d="M6 423v10q0 7 1 10q8 24 8 52q0 34 -10 64v3q0 5 4 12t7 9l8 4l49 12q106 24 158 43q22 9 47 9q7 0 23 -2q22 -3 35 -26q4 -7 4 -17q0 -15 -7 -19q-16 -14 -29 -22q-79 -47 -159 -60q-4 -1 -9.5 -8.5t-5.5 -12.5q0 -33 1 -49q1 -10 7.5 -16.5t16.5 -7.5h18q11 0 17 -1
q14 -3 25 -10q13 -6 23.5 -20.5t7.5 -22.5q-8 -33 -43 -46q-8 -3 -17 -3q-26 -1 -36.5 -4t-14 -10.5t-3.5 -26.5l1 -119q0 -29 21 -52q8 -11 19 -11q6 0 12 3q23 14 53 48q16 18 28.5 29.5t27.5 19.5q4 2 10 2q9 0 15 -5q42 -32 42 -63q0 -23 -27 -58q-44 -60 -117 -84
q-14 -4 -21 -4q-6 0 -14 2q-51 11 -95.5 33t-57.5 57q-15 38 -22 62.5t-7 53.5q0 36 2 114zM224 689q-5 -8 -15 -8q-9 0 -13 6q-17 22 -22 33q-2 5 -6.5 15t-8.5 17q0 1 -2 1h-0.5h-0.5l-3 -4l-9 -22l-10 -21q-3 -10 -18 -19q-6 -2 -9 -2q-12 0 -18 9q-5 8 -5 11q6 12 8 19
q2 5 3.5 9.5t3.5 9.5l24 47q7 10 23 21l12 6t11 5h2q5 0 9 -4q2 -3 4.5 -7t5.5 -9q4 -11 5 -20q6 -29 21 -52l3 -6l10 -25z" />
    <glyph glyph-name="Edieresis" unicode="&#xcb;" horiz-adv-x="407" 
d="M293 801q0 -9 -9 -15q-2 -1 -4 -3t-5 -4q-3 -1 -9 -5q-8 -5 -16 -5t-20 7q-5 4 -7 13q-1 3 -2 7.5t-1 9.5q0 14 18 29q11 9 21 9q14 0 27 -15q5 -5 5.5 -12.5t0.5 -10.5zM183.5 824q7.5 -12 7.5 -25q0 -34 -32 -34q-20 0 -32.5 11t-12.5 28q0 14 11 30q6 7 14 6
q10 -2 17 -2.5t12 -0.5q8 -1 15.5 -13zM6 423v10q0 7 1 10q8 24 8 52q0 34 -10 64v3q0 5 4 12t7 9l8 4l49 12q106 24 158 43q22 9 47 9q7 0 23 -2q22 -3 35 -26q4 -7 4 -17q0 -15 -7 -19q-16 -14 -29 -22q-79 -47 -159 -60q-4 -1 -9.5 -8.5t-5.5 -12.5q0 -33 1 -49
q1 -10 7.5 -16.5t16.5 -7.5h18q11 0 17 -1q14 -3 25 -10q13 -6 23.5 -20.5t7.5 -22.5q-8 -33 -43 -46q-8 -3 -17 -3q-26 -1 -36.5 -4t-14 -10.5t-3.5 -26.5l1 -119q0 -29 21 -52q8 -11 19 -11q6 0 12 3q23 14 53 48q16 18 28.5 29.5t27.5 19.5q4 2 10 2q9 0 15 -5
q42 -32 42 -63q0 -23 -27 -58q-44 -60 -117 -84q-14 -4 -21 -4q-6 0 -14 2q-51 11 -95.5 33t-57.5 57q-15 38 -22 62.5t-7 53.5q0 36 2 114z" />
    <glyph glyph-name="Igrave" unicode="&#xcc;" horiz-adv-x="247" 
d="M162 230l1 -80q0 -58 -9 -102q-6 -26 -31 -40q-10 -5 -19 -5q-25 0 -44.5 35t-30 79.5t-9.5 66.5l1 46l-1 96q0 52 4 95q3 37 3 110l2 83q9 43 11 49q1 4 5.5 8.5t8.5 4.5q12 2 20 2q9 0 17 -3q19 -7 40 -27q10 -8 16 -25q1 -3 6 -16.5t5 -25.5l3 -261zM84.5 742.5
q-8.5 4.5 -14.5 11.5q-11 14 -13 17q-3 8 -11 22q-2 4 -3.5 11.5t-3.5 10.5q-2 4 -9 19q-2 6 -2 10t2 10q3 9 14 11q7 2 13 0q5 0 8 -3q9 -5 14 -16q3 -6 10.5 -23t12.5 -32q3 -8 9 -16l4 -8q4 -10 2 -15q-5 -11 -16 -13q-8 -1 -16.5 3.5z" />
    <glyph glyph-name="Iacute" unicode="&#xcd;" horiz-adv-x="247" 
d="M162 230l1 -80q0 -58 -9 -102q-6 -26 -31 -40q-10 -5 -19 -5q-25 0 -44.5 35t-30 79.5t-9.5 66.5l1 46l-1 96q0 52 4 95q3 37 3 110l2 83q9 43 11 49q1 4 5.5 8.5t8.5 4.5q12 2 20 2q9 0 17 -3q19 -7 40 -27q10 -8 16 -25q1 -3 6 -16.5t5 -25.5l3 -261zM148 832
q0 -5 -2 -11q0 -4 -3 -7q-12 -20 -29 -41.5t-31 -31.5q-4 -4 -12 -7q-1 -1 -6 -1t-9.5 2.5t-5.5 7.5l-1 14q1 11 6.5 21t7.5 14q19 34 44 65q5 8 14 6q13 -1 22 -13q5 -7 5 -18z" />
    <glyph glyph-name="Icircumflex" unicode="&#xce;" horiz-adv-x="247" 
d="M162 230l1 -80q0 -58 -9 -102q-6 -26 -31 -40q-10 -5 -19 -5q-25 0 -44.5 35t-30 79.5t-9.5 66.5l1 46l-1 96q0 52 4 95q3 37 3 110l2 83q9 43 11 49q1 4 5.5 8.5t8.5 4.5q12 2 20 2q9 0 17 -3q19 -7 40 -27q10 -8 16 -25q1 -3 6 -16.5t5 -25.5l3 -261zM155 741
q-5 -8 -15 -8q-9 0 -13 6q-17 22 -22 33q-2 5 -6.5 15t-8.5 17q0 1 -2 1h-0.5h-0.5l-3 -4l-9 -22l-10 -21q-3 -10 -18 -19q-6 -2 -9 -2q-12 0 -18 9q-5 8 -5 11q6 12 8 19q2 5 3.5 9.5t3.5 9.5l24 47q7 10 23 21l12 6t11 5h2q5 0 9 -4q2 -3 4.5 -7t5.5 -9q4 -11 5 -20
q6 -29 21 -52l3 -6l10 -25z" />
    <glyph glyph-name="Idieresis" unicode="&#xcf;" horiz-adv-x="247" 
d="M162 230l1 -80q0 -58 -9 -102q-6 -26 -31 -40q-10 -5 -19 -5q-25 0 -44.5 35t-30 79.5t-9.5 66.5l1 46l-1 96q0 52 4 95q3 37 3 110l2 83q9 43 11 49q1 4 5.5 8.5t8.5 4.5q12 2 20 2q9 0 17 -3q19 -7 40 -27q10 -8 16 -25q1 -3 6 -16.5t5 -25.5l3 -261zM68.5 798
q7.5 -12 7.5 -25q0 -34 -32 -34q-20 0 -32.5 11t-12.5 28q0 14 11 30q6 7 14 6q10 -2 17 -2.5t12 -0.5q8 -1 15.5 -13zM178 775q0 -9 -9 -15q-2 -1 -4 -3t-5 -4q-3 -1 -9 -5q-8 -5 -16 -5t-20 7q-5 4 -7 13q-1 3 -2 7.5t-1 9.5q0 14 18 29q11 9 21 9q14 0 27 -15
q5 -5 5.5 -12.5t0.5 -10.5z" />
    <glyph glyph-name="Eth" unicode="&#xd0;" horiz-adv-x="729" 
d="M669 364q0 -175 -96 -269.5t-278 -94.5h-191v314h-74v78h74v322h213q167 0 259.5 -92t92.5 -258zM574 361q0 137 -68 206.5t-202 69.5h-110v-245h178v-78h-178v-237h90q290 0 290 284z" />
    <glyph glyph-name="Ntilde" unicode="&#xd1;" horiz-adv-x="494" 
d="M115.5 390q1.5 -22 1.5 -27l-4 -74q-6 -88 -6 -131l1 -35q1 -12 1 -34q0 -17 -3.5 -30.5t-11.5 -30.5q-2 -6 -20 -6q-10 0 -19.5 2t-13.5 6l-6 6q-6 11 -9 40q-4 23 -4 51v22q-1 22 -1 67v33l1 99l-1 45q-1 13 -1 37q0 27 4 51q2 10 4 28q2 26 6.5 43.5t15.5 28.5
q5 5 15 7t14 6q13 12 32 12q14 0 27 -7t20 -20q16 -26 27 -49q5 -13 22 -61q10 -27 11 -31q20 -59 32 -99t21 -81q3 -18 15 -47q14 -38 16 -53q3 -5 5 -5q5 0 6 3q1 2 5 8.5t4 12.5q2 22 2 66q0 63 -3 124q-4 95 -32 203q-1 8 -0.5 14t0.5 11q2 36 27 55q14 10 32 18
q10 5 17 5q14 0 25 -20l16 -37q29 -68 29 -127q0 -51 2 -149l1 -74q0 -24 -10 -70l-6 -27q-10 -48 -22 -88q-7 -27 -19.5 -45t-34.5 -36q-10 -9 -23 -9q-7 0 -10 2q-7 3 -21 7t-21 7.5t-13 12.5q-19 28 -29.5 45t-18.5 37q-30 81 -63 211q-6 26 -22 78q-2 4 -4 13t-6 16
q-1 -8 0.5 -30zM202 680q-14 9 -22 36q-3 11 -9 22q-4 11 -9 13q-1 1 -3 1q-4 0 -5.5 -6.5t-1.5 -7.5q-2 -8 -2 -13q0 -11 -3 -18t-11 -12q-4 -4 -11 -4q-13 0 -16 16q-3 11 -3 20q0 29 28 55v0v1q14 9 32 9q11 0 21 -5q3 -2 10 -9q3 -4 9 -19t7 -23t4 -18q3 -8 9 -8
q9 0 19 10q3 3 3 8q0 7 -1 11q-1 5 -3 11.5t-2 10.5v3q0 13 6 17q10 8 18 8t12 -12t4 -29q2 -10 2 -16q0 -4 -2 -16q-1 -14 -13 -25t-27 -15q-8 -3 -16 -3q-14 0 -24 7z" />
    <glyph glyph-name="Ograve" unicode="&#xd2;" horiz-adv-x="407" 
d="M181 684q19 0 38 -5.5t33 -14.5q11 -8 19 -18.5t18 -27.5q10 -18 16 -26q11 -15 25 -51q10 -24 18 -53q19 -58 20 -104q0 -36 3 -72l1 -10q0 -9 -1 -16.5t-2 -13.5q-2 -24 -2 -36q0 -5 -2 -29.5t-9 -47.5q-7 -20 -8 -26q-9 -25 -14 -44q-10 -38 -40 -70q-35 -38 -75 -38
l-11 1l-25 2q-15 0 -30 10q-73 51 -109 140q-24 61 -24 122q0 38 1.5 62t8.5 48q4 14 5.5 30t2.5 21q4 41 11 61q9 28 16 63q7 36 20 61q3 7 15 23q15 21 18 29q5 8 9 12q19 18 54 18zM171 528q-6 -5 -7 -19.5t-1 -17.5q-6 -35 -9 -68l-2 -22q-6 -72 -13 -107q-1 -3 -0.5 -8
t0.5 -8q-3 -43 7 -93q5 -31 9.5 -47t15.5 -32q3 -4 9 -4q9 0 12 5l16 28q17 29 23 61.5t6 73.5q0 118 -48 244q-6 17 -13 16q-3 0 -5 -2zM182.5 734.5q-8.5 4.5 -14.5 11.5q-11 14 -13 17q-3 8 -11 22q-2 4 -3.5 11.5t-3.5 10.5q-2 4 -9 19q-2 6 -2 10t2 10q3 9 14 11
q7 2 13 0q5 0 8 -3q9 -5 14 -16q3 -6 10.5 -23t12.5 -32q3 -8 9 -16l4 -8q4 -10 2 -15q-5 -11 -16 -13q-8 -1 -16.5 3.5z" />
    <glyph glyph-name="Oacute" unicode="&#xd3;" horiz-adv-x="407" 
d="M256 822q0 -5 -2 -11q0 -4 -3 -7q-12 -20 -29 -41.5t-31 -31.5q-4 -4 -12 -7q-1 -1 -6 -1t-9.5 2.5t-5.5 7.5l-1 14q1 11 6.5 21t7.5 14q19 34 44 65q5 8 14 6q13 -1 22 -13q5 -7 5 -18zM171 528q-6 -5 -7 -19.5t-1 -17.5q-6 -35 -9 -68l-2 -22q-6 -72 -13 -107
q-1 -3 -0.5 -8t0.5 -8q-3 -43 7 -93q5 -31 9.5 -47t15.5 -32q3 -4 9 -4q9 0 12 5l16 28q17 29 23 61.5t6 73.5q0 118 -48 244q-6 17 -13 16q-3 0 -5 -2zM181 684q19 0 38 -5.5t33 -14.5q11 -8 19 -18.5t18 -27.5q10 -18 16 -26q11 -15 25 -51q10 -24 18 -53q19 -58 20 -104
q0 -36 3 -72l1 -10q0 -9 -1 -16.5t-2 -13.5q-2 -24 -2 -36q0 -5 -2 -29.5t-9 -47.5q-7 -20 -8 -26q-9 -25 -14 -44q-10 -38 -40 -70q-35 -38 -75 -38l-11 1l-25 2q-15 0 -30 10q-73 51 -109 140q-24 61 -24 122q0 38 1.5 62t8.5 48q4 14 5.5 30t2.5 21q4 41 11 61
q9 28 16 63q7 36 20 61q3 7 15 23q15 21 18 29q5 8 9 12q19 18 54 18z" />
    <glyph glyph-name="Ocircumflex" unicode="&#xd4;" horiz-adv-x="407" 
d="M181 684q19 0 38 -5.5t33 -14.5q11 -8 19 -18.5t18 -27.5q10 -18 16 -26q11 -15 25 -51q10 -24 18 -53q19 -58 20 -104q0 -36 3 -72l1 -10q0 -9 -1 -16.5t-2 -13.5q-2 -24 -2 -36q0 -5 -2 -29.5t-9 -47.5q-7 -20 -8 -26q-9 -25 -14 -44q-10 -38 -40 -70q-35 -38 -75 -38
l-11 1l-25 2q-15 0 -30 10q-73 51 -109 140q-24 61 -24 122q0 38 1.5 62t8.5 48q4 14 5.5 30t2.5 21q4 41 11 61q9 28 16 63q7 36 20 61q3 7 15 23q15 21 18 29q5 8 9 12q19 18 54 18zM171 528q-6 -5 -7 -19.5t-1 -17.5q-6 -35 -9 -68l-2 -22q-6 -72 -13 -107q-1 -3 -0.5 -8
t0.5 -8q-3 -43 7 -93q5 -31 9.5 -47t15.5 -32q3 -4 9 -4q9 0 12 5l16 28q17 29 23 61.5t6 73.5q0 118 -48 244q-6 17 -13 16q-3 0 -5 -2zM263 733q-5 -8 -15 -8q-9 0 -13 6q-17 22 -22 33q-2 5 -6.5 15t-8.5 17q0 1 -2 1h-0.5h-0.5l-3 -4l-9 -22l-10 -21q-3 -10 -18 -19
q-6 -2 -9 -2q-12 0 -18 9q-5 8 -5 11q6 12 8 19q2 5 3.5 9.5t3.5 9.5l24 47q7 10 23 21l12 6t11 5h2q5 0 9 -4q2 -3 4.5 -7t5.5 -9q4 -11 5 -20q6 -29 21 -52l3 -6l10 -25z" />
    <glyph glyph-name="Otilde" unicode="&#xd5;" horiz-adv-x="407" 
d="M181 684q19 0 38 -5.5t33 -14.5q11 -8 19 -18.5t18 -27.5q10 -18 16 -26q11 -15 25 -51q10 -24 18 -53q19 -58 20 -104q0 -36 3 -72l1 -10q0 -9 -1 -16.5t-2 -13.5q-2 -24 -2 -36q0 -5 -2 -29.5t-9 -47.5q-7 -20 -8 -26q-9 -25 -14 -44q-10 -38 -40 -70q-35 -38 -75 -38
l-11 1l-25 2q-15 0 -30 10q-73 51 -109 140q-24 61 -24 122q0 38 1.5 62t8.5 48q4 14 5.5 30t2.5 21q4 41 11 61q9 28 16 63q7 36 20 61q3 7 15 23q15 21 18 29q5 8 9 12q19 18 54 18zM171 528q-6 -5 -7 -19.5t-1 -17.5q-6 -35 -9 -68l-2 -22q-6 -72 -13 -107q-1 -3 -0.5 -8
t0.5 -8q-3 -43 7 -93q5 -31 9.5 -47t15.5 -32q3 -4 9 -4q9 0 12 5l16 28q17 29 23 61.5t6 73.5q0 118 -48 244q-6 17 -13 16q-3 0 -5 -2zM202 740q-14 9 -22 36q-3 11 -9 22q-4 11 -9 13q-1 1 -3 1q-4 0 -5.5 -6.5t-1.5 -7.5q-2 -8 -2 -13q0 -11 -3 -18t-11 -12
q-4 -4 -11 -4q-13 0 -16 16q-3 11 -3 20q0 29 28 55v0v1q14 9 32 9q11 0 21 -5q3 -2 10 -9q3 -4 9 -19t7 -23t4 -18q3 -8 9 -8q9 0 19 10q3 3 3 8q0 7 -1 11q-1 5 -3 11.5t-2 10.5v3q0 13 6 17q10 8 18 8t12 -12t4 -29q2 -10 2 -16q0 -4 -2 -16q-1 -14 -13 -25t-27 -15
q-8 -3 -16 -3q-14 0 -24 7z" />
    <glyph glyph-name="Odieresis" unicode="&#xd6;" horiz-adv-x="407" 
d="M279 783q0 -9 -9 -15q-2 -1 -4 -3t-5 -4q-3 -1 -9 -5q-8 -5 -16 -5t-20 7q-5 4 -7 13q-1 3 -2 7.5t-1 9.5q0 14 18 29q11 9 21 9q14 0 27 -15q5 -5 5.5 -12.5t0.5 -10.5zM169.5 806q7.5 -12 7.5 -25q0 -34 -32 -34q-20 0 -32.5 11t-12.5 28q0 14 11 30q6 7 14 6
q10 -2 17 -2.5t12 -0.5q8 -1 15.5 -13zM171 528q-6 -5 -7 -19.5t-1 -17.5q-6 -35 -9 -68l-2 -22q-6 -72 -13 -107q-1 -3 -0.5 -8t0.5 -8q-3 -43 7 -93q5 -31 9.5 -47t15.5 -32q3 -4 9 -4q9 0 12 5l16 28q17 29 23 61.5t6 73.5q0 118 -48 244q-6 17 -13 16q-3 0 -5 -2z
M181 684q19 0 38 -5.5t33 -14.5q11 -8 19 -18.5t18 -27.5q10 -18 16 -26q11 -15 25 -51q10 -24 18 -53q19 -58 20 -104q0 -36 3 -72l1 -10q0 -9 -1 -16.5t-2 -13.5q-2 -24 -2 -36q0 -5 -2 -29.5t-9 -47.5q-7 -20 -8 -26q-9 -25 -14 -44q-10 -38 -40 -70q-35 -38 -75 -38
l-11 1l-25 2q-15 0 -30 10q-73 51 -109 140q-24 61 -24 122q0 38 1.5 62t8.5 48q4 14 5.5 30t2.5 21q4 41 11 61q9 28 16 63q7 36 20 61q3 7 15 23q15 21 18 29q5 8 9 12q19 18 54 18z" />
    <glyph glyph-name="multiply" unicode="&#xd7;" horiz-adv-x="360" 
d="M129 72q-9 -20 -13 -27q-12 -26 -40 -46q-10 -7 -19 -7q-12 0 -26 17q-8 11 -8 19q0 5 3 13q46 97 83 159q-2 14 -3 15q-15 21 -39 69l-11 22q-17 36 -37 67q-9 15 -9 28q0 18 13 37q2 4 4 5q1 1 6.5 4t11.5 2q17 -1 38.5 -17.5t37.5 -39.5l21 -27q5 -8 16 -8q9 0 13 5
q30 37 42 63q16 34 25 50q4 7 9 10q3 2 6.5 2t5.5 -1q23 -9 28 -36q3 -13 3 -26q0 -20 -8 -36q-20 -45 -47 -101q-5 -12 -10 -26q-3 -7 -3 -15q0 -7 3 -13q3 -8 15.5 -36.5t25.5 -51.5q24 -44 24 -97l-1 -19q-2 -21 -17 -27q-20 -10 -30 -14q-6 -3 -13 -3q-21 0 -32 22
q-9 17 -19 45l-14 39q-2 3 -6.5 7t-7.5 8q-12 -14 -21 -34z" />
    <glyph glyph-name="Oslash" unicode="&#xd8;" horiz-adv-x="407" 
d="M379.5 648q4.5 -8 2.5 -16q-5 -23 -17 -35l-4 -3q-19 -17 -39 -56q7 -16 17 -50q20 -62 20 -104q0 -36 3 -72l1 -10q0 -9 -1 -16.5t-2 -13.5q-2 -24 -2 -36q0 -5 -2 -29.5t-9 -47.5q-7 -20 -8 -26q-9 -25 -14 -44q-10 -38 -40 -70q-35 -38 -75 -38l-11 1l-25 2
q-15 0 -30 10q-33 24 -61 57l-1 -4q-8 -21 -26 -41q-10 -10 -23 -10q-11 0 -18.5 6t-8.5 15l-2 22q0 17 6 35q3 9 25 61q-24 61 -24 121q0 38 1.5 62t8.5 48q4 14 5.5 30t2.5 21q4 41 11 61q10 29 16 64q7 35 20 60q3 7 15 23q15 21 18 29q5 8 9 12q19 18 54 18
q19 0 38 -5.5t33 -14.5q18 -12 35 -43q14 24 33 41q6 5 16 8q7 3 13 1q7 -2 13.5 -6t14.5 -7q7 -2 11.5 -10zM145 423l-8 -88q36 73 55 125l4 8q-9 27 -16 46q-6 17 -13 16q-3 0 -5 -2q-6 -5 -7 -19.5t-1 -17.5q-6 -35 -9 -68zM222 348q-2 -5 -5 -11l-6 -12l-34 -68l-13 -29
q-9 -18 -25 -54q4 -23 8.5 -38t14.5 -30q3 -4 9 -4q9 0 12 6l17 27q16 28 21.5 60t5.5 73q0 48 -5 80z" />
    <glyph glyph-name="Ugrave" unicode="&#xd9;" horiz-adv-x="467" 
d="M387.5 289.5q-8.5 -60.5 -24.5 -141.5l-2 -8t-3 -8l-11 -23q-19 -43 -36 -66q-20 -23 -37 -28q-4 -2 -10.5 -4t-9.5 -4q-28 -15 -57 -15q-43 0 -87 36q-2 1 -6 3.5t-6 6.5l-17 25q-22 32 -33 52.5t-18 46.5q-27 102 -28 173q-2 60 -2 178q0 17 9 27.5t23 11.5q5 0 7 1
q35 5 59 -42q6 -10 6 -25l2 -54q0 -36 4 -52q8 -37 8 -97q1 -30 7 -56.5t19 -71.5q1 -5 11 -22q3 -5 10 -6t10 3t9.5 11.5t9.5 14.5q22 57 30 130q2 17 4 49q4 54 11 80q5 19 6.5 38.5t1.5 49.5q0 23 1 35t1 35v36q0 14 4.5 29t10.5 29q1 4 5 6.5t7 2.5q12 0 36 -2
q24 -3 35 -28q22 -49 40 -104q7 -19 9 -52q1 -17 0.5 -30.5t-0.5 -22.5v-27q0 -60 -8.5 -120.5zM137.5 689.5q-8.5 4.5 -14.5 11.5q-11 14 -13 17q-3 8 -11 22q-2 4 -3.5 11.5t-3.5 10.5q-2 4 -9 19q-2 6 -2 10t2 10q3 9 14 11q7 2 13 0q5 0 8 -3q9 -5 14 -16q3 -6 10.5 -23
t12.5 -32q3 -8 9 -16l4 -8q4 -10 2 -15q-5 -11 -16 -13q-8 -1 -16.5 3.5z" />
    <glyph glyph-name="Uacute" unicode="&#xda;" horiz-adv-x="467" 
d="M212 771q0 -5 -2 -11q0 -4 -3 -7q-12 -20 -29 -41.5t-31 -31.5q-4 -4 -12 -7q-1 -1 -6 -1t-9.5 2.5t-5.5 7.5l-1 14q1 11 6.5 21t7.5 14q19 34 44 65q5 8 14 6q13 -1 22 -13q5 -7 5 -18zM387.5 289.5q-8.5 -60.5 -24.5 -141.5l-2 -8t-3 -8l-11 -23q-19 -43 -36 -66
q-20 -23 -37 -28q-4 -2 -10.5 -4t-9.5 -4q-28 -15 -57 -15q-43 0 -87 36q-2 1 -6 3.5t-6 6.5l-17 25q-22 32 -33 52.5t-18 46.5q-27 102 -28 173q-2 60 -2 178q0 17 9 27.5t23 11.5q5 0 7 1q35 5 59 -42q6 -10 6 -25l2 -54q0 -36 4 -52q8 -37 8 -97q1 -30 7 -56.5t19 -71.5
q1 -5 11 -22q3 -5 10 -6t10 3t9.5 11.5t9.5 14.5q22 57 30 130q2 17 4 49q4 54 11 80q5 19 6.5 38.5t1.5 49.5q0 23 1 35t1 35v36q0 14 4.5 29t10.5 29q1 4 5 6.5t7 2.5q12 0 36 -2q24 -3 35 -28q22 -49 40 -104q7 -19 9 -52q1 -17 0.5 -30.5t-0.5 -22.5v-27
q0 -60 -8.5 -120.5z" />
    <glyph glyph-name="Ucircumflex" unicode="&#xdb;" horiz-adv-x="467" 
d="M219 687q-5 -8 -15 -8q-9 0 -13 6q-17 22 -22 33q-2 5 -6.5 15t-8.5 17q0 1 -2 1h-0.5h-0.5l-3 -4l-9 -22l-10 -21q-3 -10 -18 -19q-6 -2 -9 -2q-12 0 -18 9q-5 8 -5 11q6 12 8 19q2 5 3.5 9.5t3.5 9.5l24 47q7 10 23 21l12 6t11 5h2q5 0 9 -4q2 -3 4.5 -7t5.5 -9
q4 -11 5 -20q6 -29 21 -52l3 -6l10 -25zM387.5 289.5q-8.5 -60.5 -24.5 -141.5l-2 -8t-3 -8l-11 -23q-19 -43 -36 -66q-20 -23 -37 -28q-4 -2 -10.5 -4t-9.5 -4q-28 -15 -57 -15q-43 0 -87 36q-2 1 -6 3.5t-6 6.5l-17 25q-22 32 -33 52.5t-18 46.5q-27 102 -28 173
q-2 60 -2 178q0 17 9 27.5t23 11.5q5 0 7 1q35 5 59 -42q6 -10 6 -25l2 -54q0 -36 4 -52q8 -37 8 -97q1 -30 7 -56.5t19 -71.5q1 -5 11 -22q3 -5 10 -6t10 3t9.5 11.5t9.5 14.5q22 57 30 130q2 17 4 49q4 54 11 80q5 19 6.5 38.5t1.5 49.5q0 23 1 35t1 35v36q0 14 4.5 29
t10.5 29q1 4 5 6.5t7 2.5q12 0 36 -2q24 -3 35 -28q22 -49 40 -104q7 -19 9 -52q1 -17 0.5 -30.5t-0.5 -22.5v-27q0 -60 -8.5 -120.5z" />
    <glyph glyph-name="Udieresis" unicode="&#xdc;" horiz-adv-x="467" 
d="M396 437q0 9 0.5 22.5t-0.5 30.5q-2 33 -9 52q-18 55 -40 104q-11 25 -35 28q-24 2 -36 2q-3 0 -7 -2.5t-5 -6.5q-6 -14 -10.5 -29t-4.5 -29v-36q0 -23 -1 -35t-1 -35q0 -30 -1.5 -49.5t-6.5 -38.5q-7 -26 -11 -80q-2 -32 -4 -49q-8 -73 -30 -130q-3 -7 -9.5 -14.5
t-9.5 -11.5q-3 -3 -7 -3q-10 0 -13 6q-10 17 -11 22q-13 45 -19 71.5t-7 56.5q0 60 -8 97q-4 16 -4 52l-2 54q0 15 -6 25q-24 47 -59 42q-2 -1 -7 -1q-14 -1 -23 -11.5t-9 -27.5q0 -118 2 -178q1 -71 28 -173q7 -26 18 -46.5t33 -52.5l17 -25q2 -4 6 -6.5t6 -3.5
q44 -36 87 -36q29 0 57 15q3 2 9.5 4t10.5 4q17 5 37 28q17 23 36 66l11 23q2 4 3 8l2 8q16 81 24.5 141.5t8.5 120.5v27zM133.5 758q7.5 -12 7.5 -25q0 -34 -32 -34q-20 0 -32.5 11t-12.5 28q0 14 11 30q6 7 14 6q10 -2 17 -2.5t12 -0.5q8 -1 15.5 -13zM243 735
q0 -9 -9 -15q-2 -1 -4 -3t-5 -4q-3 -1 -9 -5q-8 -5 -16 -5t-20 7q-5 4 -7 13q-1 3 -2 7.5t-1 9.5q0 14 18 29q10 9 21 9q14 0 27 -15q5 -5 5.5 -12.5t0.5 -10.5z" />
    <glyph glyph-name="Yacute" unicode="&#xdd;" horiz-adv-x="398" 
d="M171 -30q19 0 40.5 9t38.5 23q27 22 40.5 40t21.5 47q13 52 20 87.5t9 72.5l6 123q4 82 5 123q1 38 -3.5 75.5t-14.5 83.5q-4 16 -20 20q-6 2 -9 2q-4 0 -10 -2q-31 -13 -52 -34.5t-32 -59.5q-5 -17 -18 -44q-11 -23 -18 -44q-10 -34 -24 -66q-8 -16 -16 -40
q-2 -6 -6.5 -11.5t-6.5 -8.5q-3 -4 -6 -4t-5 4q-8 16 -9 23q-1 9 -1 28q0 24 -2 36q-2 14 -2.5 24.5t-0.5 17.5q0 40 -6 65q-7 31 -28 45q-10 6 -19 6q-12 0 -24 -9q-10 -7 -12 -21q-7 -48 -7 -102q0 -59 8 -106q16 -88 71 -119q23 -13 49 -13q14 0 27 3q21 12 37 31.5
t38 53.5l16 24q2 -14 2 -21q0 -14 -4 -40q-6 -35 -17 -88q-3 -13 -9 -25l-24 -55q-11 -20 -27 -26q-30 -8 -54 -49q-7 -14 -7 -26q0 -17 11 -30q9 -9 16.5 -12t11.5 -5q12 -6 26 -6zM215 771q0 -5 -2 -11q0 -4 -3 -7q-12 -20 -29 -41.5t-31 -31.5q-4 -4 -12 -7q-1 -1 -6 -1
t-9.5 2.5t-5.5 7.5l-1 14q1 11 6.5 21t7.5 14q19 34 44 65q5 8 14 6q13 -1 22 -13q5 -7 5 -18z" />
    <glyph glyph-name="Thorn" unicode="&#xde;" horiz-adv-x="604" 
d="M554 382q0 -110 -73.5 -168.5t-212.5 -58.5h-81v-155h-90v714h90v-124h96q137 0 204 -51.5t67 -156.5zM187 231h72q108 0 155 34.5t47 111.5q0 70 -44.5 103t-140.5 33h-89v-282z" />
    <glyph glyph-name="germandbls" unicode="&#xdf;" horiz-adv-x="411" 
d="M362 235q7 -39 7 -67q-1 -29 -16.5 -63.5t-41.5 -58t-57 -23.5q-7 0 -23 4q-27 9 -51 24.5t-23 35.5q2 15 10 22q8 8 26 16q14 7 22.5 13.5t13.5 17.5q7 17 7 44q0 28 -8 56.5t-20 43.5l-18 23q-11 14 -17 36.5t-6 49.5q0 51 20 96q2 3 2 12q0 12 -6.5 22t-16.5 7l-19 1
t-21 -43q0 -11 -3 -22q0 -4 -1.5 -13t-0.5 -17q0 -9 -2 -21.5t-3 -21.5q-2 -36 -2 -53q0 -9 -0.5 -22t-2.5 -31q-5 -62 -5 -112q0 -70 8 -150q2 -20 -4.5 -35.5t-23.5 -18.5h-2h-4h-2l-11 3q-23 11 -34.5 19.5t-17.5 20.5q-15 28 -15 81l1 39q1 11 1 32q1 43 1 127v53
q0 26 5 53.5t6 35.5l3 25q3 37 10 66q5 18 12 37.5t16 33.5q10 15 36 34l10 7.5t12 10.5q36 33 86 33q9 0 31 -2q30 -5 54 -23t31 -45q5 -19 5 -44q0 -14 -2 -40q-2 -23 -8 -48t-7 -31q-15 -56 -16 -90q0 -17 7.5 -28t22.5 -25q19 -15 27 -29q11 -19 18 -58z" />
    <glyph glyph-name="agrave" unicode="&#xe0;" horiz-adv-x="488" 
d="M66 -25q-39 10 -52 51q-10 32 -13 60q-1 8 -1 23q0 28 6 53q13 61 38 119t62 121q12 19 23 31q32 37 74 37q9 0 14 -1q7 -1 18.5 -4t19.5 -3q7 0 18 2.5t19 3.5q16 1 29.5 -9.5t14.5 -25.5q3 -20 9 -40q11 -41 10 -66q0 -8 5.5 -23t6.5 -21q26 -146 91 -251q5 -8 5 -17
q0 -12 -8.5 -23t-21.5 -14q-10 -3 -19 -3q-18 0 -32 11q-28 20 -46 51q-32 57 -50 112q-2 4 -5 6t-7 1q-9 -4 -10 -9q-9 -26 -19 -59q-10 -27 -21 -44.5t-31 -28.5q-2 -2 -10 -12q-22 -35 -69 -35q-22 0 -48 7zM210.5 352.5q0.5 3.5 -0.5 6.5q-5 10 -7 11q-1 1 -4 1
q-5 0 -9 -7l-14 -35l-34 -86q-14 -32 -16 -51q-2 -16 -4.5 -28t-4.5 -20q-6 -21 -9 -42v-4q0 -6 2 -18q0 -4 4 -4q5 -2 7 2q21 26 34 58.5t23 73.5q4 13 5 22q13 57 24 89q3 14 3 23q0 5 0.5 8.5zM235.5 525.5q-8.5 4.5 -14.5 11.5q-11 14 -13 17q-3 8 -11 22
q-2 4 -3.5 11.5t-3.5 10.5q-2 4 -9 19q-2 6 -2 10t2 10q3 9 14 11q7 2 13 0q5 0 8 -3q9 -5 14 -16q3 -6 10.5 -23t12.5 -32q3 -8 9 -16l4 -8q4 -10 2 -15q-5 -11 -16 -13q-8 -1 -16.5 3.5z" />
    <glyph glyph-name="aacute" unicode="&#xe1;" horiz-adv-x="488" 
d="M292 618q0 -5 -2 -11q0 -4 -3 -7q-12 -20 -29 -41.5t-31 -31.5q-4 -4 -12 -7q-1 -1 -6 -1t-9.5 2.5t-5.5 7.5l-1 14q1 11 6.5 21t7.5 14q19 34 44 65q5 8 14 6q13 -1 22 -13q5 -7 5 -18zM210.5 352.5q0.5 3.5 -0.5 6.5q-5 10 -7 11q-1 1 -4 1q-5 0 -9 -7l-14 -35l-34 -86
q-14 -32 -16 -51q-2 -16 -4.5 -28t-4.5 -20q-6 -21 -9 -42v-4q0 -6 2 -18q0 -4 4 -4q5 -2 7 2q21 26 34 58.5t23 73.5q4 13 5 22q13 57 24 89q3 14 3 23q0 5 0.5 8.5zM66 -25q-39 10 -52 51q-10 32 -13 60q-1 8 -1 23q0 28 6 53q13 61 38 119t62 121q12 19 23 31
q32 37 74 37q9 0 14 -1q7 -1 18.5 -4t19.5 -3q7 0 18 2.5t19 3.5q16 1 29.5 -9.5t14.5 -25.5q3 -20 9 -40q11 -41 10 -66q0 -8 5.5 -23t6.5 -21q26 -146 91 -251q5 -8 5 -17q0 -12 -8.5 -23t-21.5 -14q-10 -3 -19 -3q-18 0 -32 11q-28 20 -46 51q-32 57 -50 112q-2 4 -5 6
t-7 1q-9 -4 -10 -9q-9 -26 -19 -59q-10 -27 -21 -44.5t-31 -28.5q-2 -2 -10 -12q-22 -35 -69 -35q-22 0 -48 7z" />
    <glyph glyph-name="acircumflex" unicode="&#xe2;" horiz-adv-x="488" 
d="M66 -25q-39 10 -52 51q-10 32 -13 60q-1 8 -1 23q0 28 6 53q13 61 38 119t62 121q12 19 23 31q32 37 74 37q9 0 14 -1q7 -1 18.5 -4t19.5 -3q7 0 18 2.5t19 3.5q16 1 29.5 -9.5t14.5 -25.5q3 -20 9 -40q11 -41 10 -66q0 -8 5.5 -23t6.5 -21q26 -146 91 -251q5 -8 5 -17
q0 -12 -8.5 -23t-21.5 -14q-10 -3 -19 -3q-18 0 -32 11q-28 20 -46 51q-32 57 -50 112q-2 4 -5 6t-7 1q-9 -4 -10 -9q-9 -26 -19 -59q-10 -27 -21 -44.5t-31 -28.5q-2 -2 -10 -12q-22 -35 -69 -35q-22 0 -48 7zM210.5 352.5q0.5 3.5 -0.5 6.5q-5 10 -7 11q-1 1 -4 1
q-5 0 -9 -7l-14 -35l-34 -86q-14 -32 -16 -51q-2 -16 -4.5 -28t-4.5 -20q-6 -21 -9 -42v-4q0 -6 2 -18q0 -4 4 -4q5 -2 7 2q21 26 34 58.5t23 73.5q4 13 5 22q13 57 24 89q3 14 3 23q0 5 0.5 8.5zM311 525q-5 -8 -15 -8q-9 0 -13 6q-17 22 -22 33q-2 5 -6.5 15t-8.5 17
q0 1 -2 1h-0.5h-0.5l-3 -4l-9 -22l-10 -21q-3 -10 -18 -19q-6 -2 -9 -2q-12 0 -18 9q-5 8 -5 11q6 12 8 19q2 5 3.5 9.5t3.5 9.5l24 47q7 10 23 21l12 6t11 5h2q5 0 9 -4q2 -3 4.5 -7t5.5 -9q4 -11 5 -20q6 -29 21 -52l3 -6l10 -25z" />
    <glyph glyph-name="atilde" unicode="&#xe3;" horiz-adv-x="488" 
d="M253 527q-14 9 -22 36q-3 11 -9 22q-4 11 -9 13q-1 1 -3 1q-4 0 -5.5 -6.5t-1.5 -7.5q-2 -8 -2 -13q0 -11 -3 -18t-11 -12q-4 -4 -11 -4q-13 0 -16 16q-3 11 -3 20q0 29 28 55v0v1q14 9 32 9q11 0 21 -5q3 -2 10 -9q3 -4 9 -19t7 -23t4 -18q3 -8 9 -8q9 0 19 10q3 3 3 8
q0 7 -1 11q-1 5 -3 11.5t-2 10.5v3q0 13 6 17q10 8 18 8t12 -12t4 -29q2 -10 2 -16q0 -4 -2 -16q-1 -14 -13 -25t-27 -15q-8 -3 -16 -3q-14 0 -24 7zM210.5 352.5q0.5 3.5 -0.5 6.5q-5 10 -7 11q-1 1 -4 1q-5 0 -9 -7l-14 -35l-34 -86q-14 -32 -16 -51q-2 -16 -4.5 -28
t-4.5 -20q-6 -21 -9 -42v-4q0 -6 2 -18q0 -4 4 -4q5 -2 7 2q21 26 34 58.5t23 73.5q4 13 5 22q13 57 24 89q3 14 3 23q0 5 0.5 8.5zM66 -25q-39 10 -52 51q-10 32 -13 60q-1 8 -1 23q0 28 6 53q13 61 38 119t62 121q12 19 23 31q32 37 74 37q9 0 14 -1q7 -1 18.5 -4t19.5 -3
q7 0 18 2.5t19 3.5q16 1 29.5 -9.5t14.5 -25.5q3 -20 9 -40q11 -41 10 -66q0 -8 5.5 -23t6.5 -21q26 -146 91 -251q5 -8 5 -17q0 -12 -8.5 -23t-21.5 -14q-10 -3 -19 -3q-18 0 -32 11q-28 20 -46 51q-32 57 -50 112q-2 4 -5 6t-7 1q-9 -4 -10 -9q-9 -26 -19 -59
q-10 -27 -21 -44.5t-31 -28.5q-2 -2 -10 -12q-22 -35 -69 -35q-22 0 -48 7z" />
    <glyph glyph-name="adieresis" unicode="&#xe4;" horiz-adv-x="488" 
d="M334 567q0 -9 -9 -15q-2 -1 -4 -3t-5 -4q-3 -1 -9 -5q-8 -5 -16 -5t-20 7q-5 4 -7 13q-1 3 -2 7.5t-1 9.5q0 14 18 29q11 9 21 9q14 0 27 -15q5 -5 5.5 -12.5t0.5 -10.5zM224.5 590q7.5 -12 7.5 -25q0 -34 -32 -34q-20 0 -32.5 11t-12.5 28q0 14 11 30q6 7 14 6
q10 -2 17 -2.5t12 -0.5q8 -1 15.5 -13zM210.5 352.5q0.5 3.5 -0.5 6.5q-5 10 -7 11q-1 1 -4 1q-5 0 -9 -7l-14 -35l-34 -86q-14 -32 -16 -51q-2 -16 -4.5 -28t-4.5 -20q-6 -21 -9 -42v-4q0 -6 2 -18q0 -4 4 -4q5 -2 7 2q21 26 34 58.5t23 73.5q4 13 5 22q13 57 24 89
q3 14 3 23q0 5 0.5 8.5zM66 -25q-39 10 -52 51q-10 32 -13 60q-1 8 -1 23q0 28 6 53q13 61 38 119t62 121q12 19 23 31q32 37 74 37q9 0 14 -1q7 -1 18.5 -4t19.5 -3q7 0 18 2.5t19 3.5q16 1 29.5 -9.5t14.5 -25.5q3 -20 9 -40q11 -41 10 -66q0 -8 5.5 -23t6.5 -21
q26 -146 91 -251q5 -8 5 -17q0 -12 -8.5 -23t-21.5 -14q-10 -3 -19 -3q-18 0 -32 11q-28 20 -46 51q-32 57 -50 112q-2 4 -5 6t-7 1q-9 -4 -10 -9q-9 -26 -19 -59q-10 -27 -21 -44.5t-31 -28.5q-2 -2 -10 -12q-22 -35 -69 -35q-22 0 -48 7z" />
    <glyph glyph-name="aring" unicode="&#xe5;" horiz-adv-x="488" 
d="M280 554q4 4 4 8q-1 7 -5 21q-6 19 -24 19q-5 0 -13 -4q-8 -5 -14 -13t-6 -17q0 -10 10.5 -17.5t22.5 -7.5q11 0 17 5q4 2 8 6zM305 585.5q2 -10.5 2 -27.5q0 -24 -22 -37q-14 -8 -36 -8q-15 0 -29.5 5t-23.5 14q-14 17 -14 35q0 6 1 9q2 14 8.5 22t19.5 18q3 2 7 6t10 8
q6 3 22 3q12 1 24.5 -6.5t21.5 -19.5q7 -11 9 -21.5zM210.5 352.5q0.5 3.5 -0.5 6.5q-5 10 -7 11q-1 1 -4 1q-5 0 -9 -7l-14 -35l-34 -86q-14 -32 -16 -51q-2 -16 -4.5 -28t-4.5 -20q-6 -21 -9 -42v-4q0 -6 2 -18q0 -4 4 -4q5 -2 7 2q21 26 34 58.5t23 73.5q4 13 5 22
q13 57 24 89q3 14 3 23q0 5 0.5 8.5zM66 -25q-39 10 -52 51q-10 32 -13 60q-1 8 -1 23q0 28 6 53q13 61 38 119t62 121q12 19 23 31q32 37 74 37q9 0 14 -1q7 -1 18.5 -4t19.5 -3q7 0 18 2.5t19 3.5q16 1 29.5 -9.5t14.5 -25.5q3 -20 9 -40q11 -41 10 -66q0 -8 5.5 -23
t6.5 -21q26 -146 91 -251q5 -8 5 -17q0 -12 -8.5 -23t-21.5 -14q-10 -3 -19 -3q-18 0 -32 11q-28 20 -46 51q-32 57 -50 112q-2 4 -5 6t-7 1q-9 -4 -10 -9q-9 -26 -19 -59q-10 -27 -21 -44.5t-31 -28.5q-2 -2 -10 -12q-22 -35 -69 -35q-22 0 -48 7z" />
    <glyph glyph-name="ae" unicode="&#xe6;" horiz-adv-x="595" 
d="M545 91q0 -13 -5 -28q-11 -34 -45 -54q-22 -13 -61 -22q-7 -2 -21 -2q-23 0 -42 10q-28 13 -54 36q-46 46 -63 90l-3 7q-6 -18 -7 -25q-5 -21 -12 -35t-24 -27q-5 -3 -7 -10q-16 -30 -66 -43q-14 -4 -42 -8l-11 -1q-31 0 -49 20q-14 16 -23 35q-10 22 -10 45
q0 42 13.5 87.5t38.5 98.5q5 11 16 26q30 40 79 48l13 3q0 24 -1 36q-2 26 -10 48l-1 2l-12 -11q-5 -4 -14 -18l-0.5 -0.5l-0.5 -0.5q-9 -16 -21 -22q-12 -5 -23 -5q-16 0 -28 10.5t-12 23.5q0 6 3 12q12 24 28 40q20 22 42 35t50 13q19 0 35.5 -9t26.5 -25q11 -18 16 -43
q4 -15 6 -46q1 6 5 21t8 27q13 34 46 52q38 22 78 22q21 0 35.5 -4t26.5 -16q4 -4 16.5 -13t17.5 -15q10 -14 10 -48q0 -3 -2 -29q0 -11 -4 -29q-9 -37 -24 -56q-19 -26 -56 -43q-8 -4 -40 -16l-20 -8q-7 -3 -12.5 -10.5t-4.5 -14.5q6 -32 15.5 -56t26.5 -44l9 -10
q4 -4 13 -4q7 0 11 3q15 9 31 24l24 21q23 20 54 17q14 -1 21.5 -7t9.5 -20q2 -12 4 -19q2 -12 2 -16zM326 347q0 -12 2.5 -15t3.5 -3q5 -8 14 -8q2 0 8 2q19 12 33 36.5t14 42.5q0 6 -3 11t-7 7q-3 2 -9 2q-14 0 -20 -9q-5 -5 -15 -16t-15 -21.5t-6 -22.5v-6zM164 245
l-1 12l-3 9q-6 6 -9 6q-9 0 -11 -8l-8 -30q-6 -20 -16 -60l-4 -16t-2 -21q1 -5 1 -16q0 -10 -1 -23.5t0 -23.5q0 -4 6 -14q0 -2 5 -2q5 3 6 4q26 40 30 100q2 45 7 79v4z" />
    <glyph glyph-name="ccedilla" unicode="&#xe7;" horiz-adv-x="315" 
d="M289 122q0 -6 -4 -14q-26 -57 -59 -90q-4 -4 -8.5 -9.5t-9.5 -10.5q-16 -16 -42 -18l-15 -1q-5 -15 -7 -19q0 -3 1 -4q2 -4 4 -5l6 -1l7 -2q14 -4 20 -21q5 -12 5 -24q0 -14 -7 -24q-1 -2 -9 -10q-11 -11 -16 -15q-12 -8 -19 -10q-9 -3 -19 -3q-4 -1 -7.5 -0.5t-6.5 0.5
q-2 0 -4.5 2t-3.5 4q-2 4 -2 12q0 14 5 19q2 2 7 3.5t8 3.5l6 3q11 3 17 12q1 2 1.5 5t-0.5 5q-1 8 -9 5q-12 -5 -15 -4h-2q-8 3 -13 11q-2 6 -2 12.5v8.5q2 22 9 41q-21 6 -38.5 20.5t-37.5 41.5q-29 40 -29 103q0 51 19 133q22 87 50 139q23 40 58 54q8 3 19 8t18 8
q13 5 25 5q21 0 40.5 -10t29.5 -26q7 -10 7 -22q0 -14 -11 -26t-24 -13q-5 -1 -14 -1q-13 0 -19 1q-24 3 -41 -18q-11 -13 -15 -23q-21 -45 -25 -90q-2 -26 -2 -40q-2 -32 -4 -49q-2 -20 -2 -29q0 -33 15 -60q3 -4 8 -7t10 -3q7 0 11 4q41 36 62 71q8 12 25 23q3 2 10 2
q6 0 8 -2q25 -18 30 -51q1 -2 1 -5z" />
    <glyph glyph-name="egrave" unicode="&#xe8;" horiz-adv-x="357" 
d="M323 90q0 -12 -5 -27q-11 -34 -45 -54q-22 -13 -61 -22q-7 -2 -21 -2q-23 0 -43 10q-32 15 -53 36q-46 46 -63 90q-32 79 -32 147q0 31 5 56q5 23 12 43q3 7 5.5 17t3.5 15q4 22 8 31q15 34 46 52q39 22 83 22q38 0 58 -20q4 -4 16 -13t17 -15q5 -7 8 -21.5t3 -26.5
q0 -3 -2 -29q0 -14 -5 -29q-7 -35 -23 -56q-22 -27 -56 -43l-60 -24q-8 -3 -13.5 -10.5t-3.5 -14.5q6 -32 15.5 -56t26.5 -44l9 -10q4 -4 13 -4q7 0 11 3l31 23l24 22q22 20 54 17q14 -1 21 -7t10 -20q0 -3 1 -9t2 -10q3 -9 3 -17zM104 345q0 -10 2 -12.5t3 -3.5q5 -8 14 -8
q3 0 9 2q21 13 35 39.5t12 43.5q-3 9 -10 14q-3 2 -9 2q-13 0 -21 -9q-5 -6 -14.5 -17t-14.5 -21t-6 -22v-8zM121.5 550.5q-8.5 4.5 -14.5 11.5q-11 13 -13 17q-3 8 -11 22q-2 4 -3.5 11.5t-3.5 10.5q-2 4 -9 19q-2 6 -2 10t2 10q3 9 14 11q7 2 13 0q5 0 8 -3q9 -5 14 -16
q3 -6 10.5 -23t12.5 -32q3 -8 9 -16l4 -8q4 -10 2 -15q-5 -11 -16 -13q-8 -1 -16.5 3.5z" />
    <glyph glyph-name="eacute" unicode="&#xe9;" horiz-adv-x="357" 
d="M197 647q0 -5 -2 -11q0 -4 -3 -7q-12 -20 -29 -41.5t-31 -31.5q-4 -4 -12 -7q-1 -1 -6 -1t-9.5 2.5t-5.5 7.5l-1 14q1 11 6.5 21t7.5 14q19 34 44 65q5 8 14 6q13 -1 22 -13q5 -7 5 -18zM104 345q0 -10 2 -12.5t3 -3.5q5 -8 14 -8q3 0 9 2q21 13 35 39.5t12 43.5
q-3 9 -10 14q-3 2 -9 2q-13 0 -21 -9q-5 -6 -14.5 -17t-14.5 -21t-6 -22v-8zM323 90q0 -12 -5 -27q-11 -34 -45 -54q-22 -13 -61 -22q-7 -2 -21 -2q-23 0 -43 10q-32 15 -53 36q-46 46 -63 90q-32 79 -32 147q0 31 5 56q5 23 12 43q3 7 5.5 17t3.5 15q4 22 8 31q15 34 46 52
q39 22 83 22q38 0 58 -20q4 -4 16 -13t17 -15q5 -7 8 -21.5t3 -26.5q0 -3 -2 -29q0 -14 -5 -29q-7 -35 -23 -56q-22 -27 -56 -43l-60 -24q-8 -3 -13.5 -10.5t-3.5 -14.5q6 -32 15.5 -56t26.5 -44l9 -10q4 -4 13 -4q7 0 11 3l31 23l24 22q22 20 54 17q14 -1 21 -7t10 -20
q0 -3 1 -9t2 -10q3 -9 3 -17z" />
    <glyph glyph-name="ecircumflex" unicode="&#xea;" horiz-adv-x="357" 
d="M323 90q0 -12 -5 -27q-11 -34 -45 -54q-22 -13 -61 -22q-7 -2 -21 -2q-23 0 -43 10q-32 15 -53 36q-46 46 -63 90q-32 79 -32 147q0 31 5 56q5 23 12 43q3 7 5.5 17t3.5 15q4 22 8 31q15 34 46 52q39 22 83 22q38 0 58 -20q4 -4 16 -13t17 -15q5 -7 8 -21.5t3 -26.5
q0 -3 -2 -29q0 -14 -5 -29q-7 -35 -23 -56q-22 -27 -56 -43l-60 -24q-8 -3 -13.5 -10.5t-3.5 -14.5q6 -32 15.5 -56t26.5 -44l9 -10q4 -4 13 -4q7 0 11 3l31 23l24 22q22 20 54 17q14 -1 21 -7t10 -20q0 -3 1 -9t2 -10q3 -9 3 -17zM104 345q0 -10 2 -12.5t3 -3.5q5 -8 14 -8
q3 0 9 2q21 13 35 39.5t12 43.5q-3 9 -10 14q-3 2 -9 2q-13 0 -21 -9q-5 -6 -14.5 -17t-14.5 -21t-6 -22v-8zM212 553q-5 -8 -15 -8q-9 0 -13 6q-17 22 -22 33q-2 5 -6.5 15t-8.5 17q0 1 -2 1h-0.5h-0.5l-3 -4l-9 -22l-10 -21q-3 -10 -18 -19q-6 -2 -9 -2q-12 0 -18 9
q-5 8 -5 11q6 12 8 19q2 5 3.5 9.5t3.5 9.5l24 47q7 10 23 21l12 6t11 5h2q5 0 9 -4q2 -3 4.5 -7t5.5 -9q4 -11 5 -20q6 -29 21 -52l3 -6l10 -25z" />
    <glyph glyph-name="edieresis" unicode="&#xeb;" horiz-adv-x="357" 
d="M268 567q0 -9 -9 -15q-2 -1 -4 -3t-5 -4q-3 -1 -9 -5q-8 -5 -16 -5t-20 7q-5 4 -7 13q-1 3 -2 7.5t-1 9.5q0 14 18 29q11 9 21 9q14 0 27 -15q5 -5 5.5 -12.5t0.5 -10.5zM158.5 590q7.5 -12 7.5 -25q0 -34 -32 -34q-20 0 -32.5 11t-12.5 28q0 14 11 30q6 7 14 6
q10 -2 17 -2.5t12 -0.5q8 -1 15.5 -13zM104 345q0 -10 2 -12.5t3 -3.5q5 -8 14 -8q3 0 9 2q21 13 35 39.5t12 43.5q-3 9 -10 14q-3 2 -9 2q-13 0 -21 -9q-5 -6 -14.5 -17t-14.5 -21t-6 -22v-8zM323 90q0 -12 -5 -27q-11 -34 -45 -54q-22 -13 -61 -22q-7 -2 -21 -2
q-23 0 -43 10q-32 15 -53 36q-46 46 -63 90q-32 79 -32 147q0 31 5 56q5 23 12 43q3 7 5.5 17t3.5 15q4 22 8 31q15 34 46 52q39 22 83 22q38 0 58 -20q4 -4 16 -13t17 -15q5 -7 8 -21.5t3 -26.5q0 -3 -2 -29q0 -14 -5 -29q-7 -35 -23 -56q-22 -27 -56 -43l-60 -24
q-8 -3 -13.5 -10.5t-3.5 -14.5q6 -32 15.5 -56t26.5 -44l9 -10q4 -4 13 -4q7 0 11 3l31 23l24 22q22 20 54 17q14 -1 21 -7t10 -20q0 -3 1 -9t2 -10q3 -9 3 -17z" />
    <glyph glyph-name="igrave" unicode="&#xec;" horiz-adv-x="185" 
d="M133 81q0 -11 -1 -17l-5 -35q-2 -11 -15.5 -20.5t-23.5 -5.5q-36 12 -47 44l-15 42q-7 19 -9 42.5t-3 32.5q-4 24 -4 54q0 18 1 27l3 34q1 12 2 29.5t4 40.5q2 10 7.5 21.5t7.5 14.5q4 10 14.5 15t19.5 2q22 -7 41 -29q4 -4 6 -14q1 -6 5 -27t5 -40q1 -13 1 -40t-1 -41
q0 -11 -0.5 -26.5t0.5 -35.5q1 -12 5 -41q2 -18 2 -27zM71.5 463.5q-8.5 4.5 -14.5 11.5q-11 13 -13 17q-3 8 -11 22q-2 4 -3.5 11.5t-3.5 10.5q-2 4 -9 19q-2 6 -2 10t2 10q3 9 14 11q7 2 13 0q5 0 8 -3q9 -5 14 -16q3 -6 10.5 -23t12.5 -32q3 -8 9 -16l4 -8q4 -10 2 -15
q-5 -11 -16 -13q-8 -1 -16.5 3.5z" />
    <glyph glyph-name="iacute" unicode="&#xed;" horiz-adv-x="185" 
d="M133 81q0 -11 -1 -17l-5 -35q-2 -11 -15.5 -20.5t-23.5 -5.5q-36 12 -47 44l-15 42q-7 19 -9 42.5t-3 32.5q-4 24 -4 54q0 18 1 27l3 34q1 12 2 29.5t4 40.5q2 10 7.5 21.5t7.5 14.5q4 10 14.5 15t19.5 2q22 -7 41 -29q4 -4 6 -14q1 -6 5 -27t5 -40q1 -13 1 -40t-1 -41
q0 -11 -0.5 -26.5t0.5 -35.5q1 -12 5 -41q2 -18 2 -27zM128 573q0 -5 -2 -11q0 -4 -3 -7q-12 -20 -29 -41.5t-31 -31.5q-4 -4 -12 -7q-1 -1 -6 -1t-9.5 2.5t-5.5 7.5l-1 14q1 11 6.5 21t7.5 14q19 34 44 65q5 8 14 6q13 -1 22 -13q5 -7 5 -18z" />
    <glyph glyph-name="icircumflex" unicode="&#xee;" horiz-adv-x="185" 
d="M133 81q0 -11 -1 -17l-5 -35q-2 -11 -15.5 -20.5t-23.5 -5.5q-36 12 -47 44l-15 42q-7 19 -9 42.5t-3 32.5q-4 24 -4 54q0 18 1 27l3 34q1 12 2 29.5t4 40.5q2 10 7.5 21.5t7.5 14.5q4 10 14.5 15t19.5 2q22 -7 41 -29q4 -4 6 -14q1 -6 5 -27t5 -40q1 -13 1 -40t-1 -41
q0 -11 -0.5 -26.5t0.5 -35.5q1 -12 5 -41q2 -18 2 -27zM136 471q-5 -8 -15 -8q-8 0 -13 6q-17 22 -22 33q-2 5 -6.5 15t-8.5 17q0 1 -2 1h-0.5h-0.5l-3 -4l-9 -22l-10 -21q-3 -10 -18 -19q-6 -2 -9 -2q-12 0 -18 9q-5 8 -5 11q6 12 8 19q2 5 3.5 9.5t3.5 9.5l24 47
q7 10 23 21l12 6t11 5h2q5 0 9 -4q2 -3 4.5 -7t5.5 -9q4 -11 5 -20q6 -29 21 -52l3 -6l10 -25z" />
    <glyph glyph-name="idieresis" unicode="&#xef;" horiz-adv-x="200" 
d="M148 81q0 -11 -1 -17l-5 -35q-2 -11 -15.5 -20.5t-23.5 -5.5q-36 12 -47 44l-15 42q-7 19 -9 42.5t-3 32.5q-4 24 -4 54q0 18 1 27l3 34q1 12 2 29.5t4 40.5q2 10 7.5 21.5t7.5 14.5q4 10 14.5 15t19.5 2q22 -7 41 -29q4 -4 6 -14q1 -6 5 -27t5 -40q1 -13 1 -40t-1 -41
q0 -11 -0.5 -26.5t0.5 -35.5q1 -12 5 -41q2 -18 2 -27zM68.5 522q7.5 -12 7.5 -25q0 -34 -32 -34q-20 0 -32.5 11t-12.5 28q0 14 11 30q6 7 14 6q10 -2 17 -2.5t12 -0.5q8 -1 15.5 -13zM178 499q0 -9 -9 -15q-2 -1 -4 -3t-5 -4q-3 -1 -9 -5q-8 -5 -16 -5t-20 7q-5 4 -7 13
q-1 3 -2 7.5t-1 9.5q0 14 18 29q11 9 21 9q14 0 27 -15q5 -5 5.5 -12.5t0.5 -10.5z" />
    <glyph glyph-name="eth" unicode="&#xf0;" horiz-adv-x="604" 
d="M551 275q0 -138 -65 -211.5t-185 -73.5q-110 0 -178 66.5t-68 176.5q0 112 63.5 176t171.5 64q110 0 156 -58l4 2q-29 104 -124 191l-130 -75l-38 55l112 64q-42 28 -90 53l36 60q76 -36 126 -72l115 67l38 -54l-99 -57q74 -68 114.5 -164.5t40.5 -209.5zM462 251
q0 70 -43 110.5t-116 40.5q-81 0 -120 -42.5t-39 -129.5q0 -81 41 -124.5t118 -43.5q83 0 121 48.5t38 140.5z" />
    <glyph glyph-name="ntilde" unicode="&#xf1;" horiz-adv-x="428" 
d="M194 234q-5 -19 -7.5 -42t-3.5 -31q-4 -39 -9 -65t-16 -51q-18 -40 -57 -40q-33 0 -50 42q-7 16 -14.5 38t-10.5 32l-9 26q-4 10 -4 15l-4 35q-9 59 -9 99q0 19 1 29l4 24q2 8 4 24l2 33q0 22 1 33q1 10 5 19t11 13q17 14 32 19q9 3 17 3q17 0 30 -13t20 -36
q8 -28 12 -55v-7q0 -11 -1 -17l-7 -31q0 -8 3 -16q5 1 8 5t4.5 8t3.5 7q13 24 16 28l33 51q22 38 64 56q8 4 17 4q18 0 31 -19q27 -36 30 -86q0 -5 0.5 -11t-0.5 -14q-4 -77 29 -165q9 -24 16.5 -53.5t9.5 -38.5q2 -12 2 -18q0 -20 -13 -43q-11 -19 -26 -19q-16 0 -28 22
q-16 30 -25 56l-9 28q-26 73 -36 123q-6 26 -10 38q-1 3 -4 6l-5 5q-35 2 -48 -50zM223 527q-14 9 -22 36q-3 11 -9 22q-4 11 -9 13q-1 1 -3 1q-4 0 -5.5 -6.5t-1.5 -7.5q-2 -8 -2 -13q0 -11 -3 -18t-11 -12q-4 -4 -11 -4q-13 0 -16 16q-3 11 -3 20q0 29 28 55v0v1
q14 9 32 9q11 0 21 -5q3 -2 10 -9q3 -4 9 -19t7 -23t4 -18q3 -8 9 -8q9 0 19 10q3 3 3 8q0 7 -1 11q-1 5 -3 11.5t-2 10.5v3q0 13 6 17q10 8 18 8t12 -12t4 -29q2 -10 2 -16q0 -4 -2 -16q-1 -14 -13 -25t-27 -15q-8 -3 -16 -3q-14 0 -24 7z" />
    <glyph glyph-name="ograve" unicode="&#xf2;" horiz-adv-x="379" 
d="M94.5 511.5q1.5 7.5 3.5 12.5q5 13 17 16q16 3 34 3q42 0 75 -18q13 -6 39 -26q8 -6 11.5 -12t6.5 -13t4 -10q2 -6 5.5 -15t6.5 -21q3 -11 4 -25.5t1 -18.5q1 -14 5 -31t6 -24q3 -16 5 -49q1 -14 0.5 -24.5t-0.5 -17.5v-20q0 -25 1 -37q4 -49 -24 -111q-6 -14 -18 -27
t-14 -15q-4 -4 -14 -15t-22 -16q-14 -6 -38 -6l-34 1q-30 1 -50 15t-50 45q-11 13 -22 38t-15 33q-18 38 -18 63q0 101 1 152q2 51 20.5 99.5t56.5 55.5q3 0 7 3t7 4q1 4 2.5 11.5zM156.5 103.5q5.5 6.5 6.5 8.5q19 23 24 62q4 32 4 74q0 32 -4 96q0 16 -2 48q0 6 -3 13
t-4 10q-5 11 -17 11q-7 0 -12 -4q-46 -35 -49 -87q-3 -51 -3 -151q0 -47 35 -85q7 -7 13 -4q6 2 11.5 8.5zM157.5 590.5q-8.5 4.5 -14.5 11.5q-11 14 -13 17q-3 8 -11 22q-2 4 -3.5 11.5t-3.5 10.5q-2 4 -9 19q-2 6 -2 10t2 10q3 9 14 11q7 2 13 0q5 0 8 -3q9 -5 14 -16
q3 -6 10.5 -23t12.5 -32q3 -8 9 -16l4 -8q4 -10 2 -15q-5 -11 -16 -13q-8 -1 -16.5 3.5z" />
    <glyph glyph-name="oacute" unicode="&#xf3;" horiz-adv-x="379" 
d="M232 678q0 -5 -2 -11q0 -4 -3 -7q-12 -20 -29 -41.5t-31 -31.5q-4 -4 -12 -7q-1 -1 -6 -1t-9.5 2.5t-5.5 7.5l-1 14q1 11 6.5 21t7.5 14q19 34 44 65q5 8 14 6q13 -1 22 -13q5 -7 5 -18zM156.5 103.5q5.5 6.5 6.5 8.5q19 23 24 62q4 32 4 74q0 32 -4 96q0 16 -2 48
q0 6 -3 13t-4 10q-5 11 -17 11q-7 0 -12 -4q-46 -35 -49 -87q-3 -51 -3 -151q0 -47 35 -85q7 -7 13 -4q6 2 11.5 8.5zM94.5 511.5q1.5 7.5 3.5 12.5q5 13 17 16q16 3 34 3q42 0 75 -18q13 -6 39 -26q8 -6 11.5 -12t6.5 -13t4 -10q2 -6 5.5 -15t6.5 -21q3 -11 4 -25.5
t1 -18.5q1 -14 5 -31t6 -24q3 -16 5 -49q1 -14 0.5 -24.5t-0.5 -17.5v-20q0 -25 1 -37q4 -49 -24 -111q-6 -14 -18 -27t-14 -15q-4 -4 -14 -15t-22 -16q-14 -6 -38 -6l-34 1q-30 1 -50 15t-50 45q-11 13 -22 38t-15 33q-18 38 -18 63q0 101 1 152q2 51 20.5 99.5t56.5 55.5
q3 0 7 3t7 4q1 4 2.5 11.5z" />
    <glyph glyph-name="ocircumflex" unicode="&#xf4;" horiz-adv-x="379" 
d="M94.5 511.5q1.5 7.5 3.5 12.5q5 13 17 16q16 3 34 3q42 0 75 -18q13 -6 39 -26q8 -6 11.5 -12t6.5 -13t4 -10q2 -6 5.5 -15t6.5 -21q3 -11 4 -25.5t1 -18.5q1 -14 5 -31t6 -24q3 -16 5 -49q1 -14 0.5 -24.5t-0.5 -17.5v-20q0 -25 1 -37q4 -49 -24 -111q-6 -14 -18 -27
t-14 -15q-4 -4 -14 -15t-22 -16q-14 -6 -38 -6l-34 1q-30 1 -50 15t-50 45q-11 13 -22 38t-15 33q-18 38 -18 63q0 101 1 152q2 51 20.5 99.5t56.5 55.5q3 0 7 3t7 4q1 4 2.5 11.5zM156.5 103.5q5.5 6.5 6.5 8.5q19 23 24 62q4 32 4 74q0 32 -4 96q0 16 -2 48q0 6 -3 13
t-4 10q-5 11 -17 11q-7 0 -12 -4q-46 -35 -49 -87q-3 -51 -3 -151q0 -47 35 -85q7 -7 13 -4q6 2 11.5 8.5zM227 583q-5 -8 -15 -8q-9 0 -13 6q-17 22 -22 33q-2 5 -6.5 15t-8.5 17q0 1 -2 1h-0.5h-0.5l-3 -4l-9 -22l-10 -21q-3 -10 -18 -19q-6 -2 -9 -2q-12 0 -18 9
q-5 8 -5 11q6 12 8 19q2 5 3.5 9.5t3.5 9.5l24 47q7 10 23 21l12 6t11 5h2q5 0 9 -4q2 -3 4.5 -7t5.5 -9q4 -11 5 -20q6 -29 21 -52l3 -6l10 -25z" />
    <glyph glyph-name="otilde" unicode="&#xf5;" horiz-adv-x="379" 
d="M94.5 511.5q1.5 7.5 3.5 12.5q5 13 17 16q16 3 34 3q42 0 75 -18q13 -6 39 -26q8 -6 11.5 -12t6.5 -13t4 -10q2 -6 5.5 -15t6.5 -21q3 -11 4 -25.5t1 -18.5q1 -14 5 -31t6 -24q3 -16 5 -49q1 -14 0.5 -24.5t-0.5 -17.5v-20q0 -25 1 -37q4 -49 -24 -111q-6 -14 -18 -27
t-14 -15q-4 -4 -14 -15t-22 -16q-14 -6 -38 -6l-34 1q-30 1 -50 15t-50 45q-11 13 -22 38t-15 33q-18 38 -18 63q0 101 1 152q2 51 20.5 99.5t56.5 55.5q3 0 7 3t7 4q1 4 2.5 11.5zM156.5 103.5q5.5 6.5 6.5 8.5q19 23 24 62q4 32 4 74q0 32 -4 96q0 16 -2 48q0 6 -3 13
t-4 10q-5 11 -17 11q-7 0 -12 -4q-46 -35 -49 -87q-3 -51 -3 -151q0 -47 35 -85q7 -7 13 -4q6 2 11.5 8.5zM169 580q-14 9 -22 36q-3 11 -9 22q-4 11 -9 13q-1 1 -3 1q-4 0 -5.5 -6.5t-1.5 -7.5q-2 -8 -2 -13q0 -11 -3 -18t-11 -12q-4 -4 -11 -4q-13 0 -16 16q-3 11 -3 20
q0 29 28 55v0v1q14 9 32 9q11 0 21 -5q3 -2 10 -9q3 -4 9 -19t7 -23t4 -18q3 -8 9 -8q9 0 19 10q3 3 3 8q0 7 -1 11q-1 5 -3 11.5t-2 10.5v3q0 13 6 17q10 8 18 8t12 -12t4 -29q2 -10 2 -16q0 -4 -2 -16q-1 -14 -13 -25t-27 -15q-7 -3 -16 -3q-14 0 -24 7z" />
    <glyph glyph-name="odieresis" unicode="&#xf6;" horiz-adv-x="379" 
d="M245 624q0 -9 -9 -15q-2 -1 -4 -3t-5 -4q-3 -1 -9 -5q-8 -5 -16 -5t-20 7q-5 4 -7 13q-1 3 -2 7.5t-1 9.5q0 14 18 29q11 9 21 9q14 0 27 -15q5 -5 5.5 -12.5t0.5 -10.5zM135.5 647q7.5 -12 7.5 -25q0 -34 -32 -34q-20 0 -32.5 11t-12.5 28q0 14 11 30q6 7 14 6
q10 -2 17 -2.5t12 -0.5q8 -1 15.5 -13zM156.5 103.5q5.5 6.5 6.5 8.5q19 23 24 62q4 32 4 74q0 32 -4 96q0 16 -2 48q0 6 -3 13t-4 10q-5 11 -17 11q-7 0 -12 -4q-46 -35 -49 -87q-3 -51 -3 -151q0 -47 35 -85q7 -7 13 -4q6 2 11.5 8.5zM94.5 511.5q1.5 7.5 3.5 12.5
q5 13 17 16q16 3 34 3q42 0 75 -18q13 -6 39 -26q8 -6 11.5 -12t6.5 -13t4 -10q2 -6 5.5 -15t6.5 -21q3 -11 4 -25.5t1 -18.5q1 -14 5 -31t6 -24q3 -16 5 -49q1 -14 0.5 -24.5t-0.5 -17.5v-20q0 -25 1 -37q4 -49 -24 -111q-6 -14 -18 -27t-14 -15q-4 -4 -14 -15t-22 -16
q-14 -6 -38 -6l-34 1q-30 1 -50 15t-50 45q-11 13 -22 38t-15 33q-18 38 -18 63q0 101 1 152q2 51 20.5 99.5t56.5 55.5q3 0 7 3t7 4q1 4 2.5 11.5z" />
    <glyph glyph-name="divide" unicode="&#xf7;" horiz-adv-x="550" 
d="M50 286v73h451v-73h-451zM219 156q0 17 4.5 28.5t12 19t17.5 10.5t22 3q11 0 21.5 -3t18 -10.5t12 -19t4.5 -28.5q0 -16 -4.5 -27.5t-12 -19t-18 -11t-21.5 -3.5q-12 0 -22 3.5t-17.5 11t-12 19t-4.5 27.5zM219 497q0 17 4.5 28.5t12 19t17.5 10.5t22 3q11 0 21.5 -3
t18 -10.5t12 -19t4.5 -28.5q0 -16 -4.5 -27.5t-12 -19t-18 -11t-21.5 -3.5q-12 0 -22 3.5t-17.5 11t-12 19t-4.5 27.5zM221 622z" />
    <glyph glyph-name="oslash" unicode="&#xf8;" horiz-adv-x="379" 
d="M288 456l9 -28q3 -11 4 -25.5t1 -18.5q2 -15 6 -32t5 -23q3 -16 5 -49q1 -14 0.5 -24.5t-0.5 -17.5v-20q0 -25 1 -37q4 -49 -24 -111q-8 -18 -32 -42q-4 -4 -14 -15t-22 -16q-14 -6 -38 -6l-34 1q-23 1 -41 10t-36 26q-6 -15 -23 -34q-10 -10 -22 -10q-11 0 -19 6t-9 15
l-2 22q0 17 6 35l18 43l-8 18q-19 36 -19 63q0 102 1 152q2 51 20.5 99.5t56.5 55.5q3 0 7 3t7 4q1 4 2.5 12t3.5 13q5 12 17 15q18 3 34 3q41 0 75 -17l9 -6q11 17 29 34q6 5 16 8q7 3 13 1q7 -2 13.5 -6t14.5 -7q7 -2 11.5 -10t2.5 -15q-5 -24 -18 -36l-3 -3
q-10 -8 -24 -30zM97 252q25 43 46 100q7 18 33 66q-5 8 -15 8q-7 0 -12 -4q-46 -35 -49 -87zM191 273l-14 -28l-40 -85q-9 -23 -19 -42q4 -7 14 -19q7 -7 13 -4q6 2 11.5 8.5t6.5 8.5q19 23 24 62q6 46 4 99z" />
    <glyph glyph-name="ugrave" unicode="&#xf9;" horiz-adv-x="448" 
d="M135 334q-5 -13 -6 -15q-4 -12 -10 -36q-11 -42 -16 -67q-5 -27 -5 -47q0 -22 6 -25q6 -5 28 28q10 14 20 37q19 42 63 124q10 19 18.5 45.5t13 43.5t7.5 26q6 21 25 37q6 5 14 13t13 12q14 10 24 10t27 -13q23 -19 23 -51l-1 -12q0 -3 -1 -7.5t-2 -7.5q-11 -22 -11 -62
v-83l-1 -47q0 -22 2 -32q1 -8 5 -24q6 -28 6 -33q0 -4 1 -23t7 -37q4 -13 8 -47q1 -9 -5 -18t-14 -12q-3 -1 -8 -1q-10 0 -18 8q-23 23 -34 59l-22 76l-18 65l-25 -53q-12 -28 -19 -42q-18 -37 -31.5 -60.5t-31.5 -44.5q-21 -25 -53 -35q-5 -2 -16 -2q-26 0 -41 22
q-19 28 -31.5 52.5t-17.5 51.5q-1 7 -3 16.5t-3 22.5q-2 22 -2 33q0 30 4 56.5t13 77.5q3 18 12 38t12 28q8 16 26 26q6 3 11 3q6 0 9 -2q35 -16 51 -54q2 -5 -3 -18zM177.5 506.5q-8.5 4.5 -14.5 11.5q-11 14 -13 17q-3 8 -11 22q-2 4 -3.5 11.5t-3.5 10.5q-2 4 -9 19
q-2 6 -2 10t2 10q3 9 14 11q7 2 13 0q5 0 8 -3q9 -5 14 -16q3 -6 10.5 -23t12.5 -32q3 -8 9 -16l4 -8q4 -10 2 -15q-5 -11 -16 -13q-8 -1 -16.5 3.5z" />
    <glyph glyph-name="uacute" unicode="&#xfa;" horiz-adv-x="448" 
d="M242 594q0 -5 -2 -11q0 -4 -3 -7q-12 -20 -29 -41.5t-31 -31.5q-4 -4 -12 -7q-1 -1 -6 -1t-9.5 2.5t-5.5 7.5l-1 14q1 11 6.5 21t7.5 14q19 34 44 65q5 8 14 6q13 -1 22 -13q5 -7 5 -18zM135 334q-5 -13 -6 -15q-4 -12 -10 -36q-11 -42 -16 -67q-5 -27 -5 -47
q0 -22 6 -25q6 -5 28 28q10 14 20 37q19 42 63 124q10 19 18.5 45.5t13 43.5t7.5 26q6 21 25 37q6 5 14 13t13 12q14 10 24 10t27 -13q23 -19 23 -51l-1 -12q0 -3 -1 -7.5t-2 -7.5q-11 -22 -11 -62v-83l-1 -47q0 -22 2 -32q1 -8 5 -24q6 -28 6 -33q0 -4 1 -23t7 -37
q4 -13 8 -47q1 -9 -5 -18t-14 -12q-3 -1 -8 -1q-10 0 -18 8q-23 23 -34 59l-22 76l-18 65l-25 -53q-12 -28 -19 -42q-18 -37 -31.5 -60.5t-31.5 -44.5q-21 -25 -53 -35q-5 -2 -16 -2q-26 0 -41 22q-19 28 -31.5 52.5t-17.5 51.5q-1 7 -3 16.5t-3 22.5q-2 22 -2 33
q0 30 4 56.5t13 77.5q3 18 12 38t12 28q8 16 26 26q6 3 11 3q6 0 9 -2q35 -16 51 -54q2 -5 -3 -18z" />
    <glyph glyph-name="ucircumflex" unicode="&#xfb;" horiz-adv-x="448" 
d="M257 527q-5 -8 -15 -8q-9 0 -13 6q-17 22 -22 33q-2 5 -6.5 15t-8.5 17q0 1 -2 1h-0.5h-0.5l-3 -4l-9 -22l-10 -21q-3 -10 -18 -19q-6 -2 -9 -2q-12 0 -18 9q-5 8 -5 11q6 12 8 19q2 5 3.5 9.5t3.5 9.5l24 47q7 10 23 21l12 6t11 5h2q5 0 9 -4q2 -3 4.5 -7t5.5 -9
q4 -11 5 -20q6 -29 21 -52l3 -6l10 -25zM135 334q-5 -13 -6 -15q-4 -12 -10 -36q-11 -42 -16 -67q-5 -27 -5 -47q0 -22 6 -25q6 -5 28 28q10 14 20 37q19 42 63 124q10 19 18.5 45.5t13 43.5t7.5 26q6 21 25 37q6 5 14 13t13 12q14 10 24 10t27 -13q23 -19 23 -51l-1 -12
q0 -3 -1 -7.5t-2 -7.5q-11 -22 -11 -62v-83l-1 -47q0 -22 2 -32q1 -8 5 -24q6 -28 6 -33q0 -4 1 -23t7 -37q4 -13 8 -47q1 -9 -5 -18t-14 -12q-3 -1 -8 -1q-10 0 -18 8q-23 23 -34 59l-22 76l-18 65l-25 -53q-12 -28 -19 -42q-18 -37 -31.5 -60.5t-31.5 -44.5
q-21 -25 -53 -35q-5 -2 -16 -2q-26 0 -41 22q-19 28 -31.5 52.5t-17.5 51.5q-1 7 -3 16.5t-3 22.5q-2 22 -2 33q0 30 4 56.5t13 77.5q3 18 12 38t12 28q8 16 26 26q6 3 11 3q6 0 9 -2q35 -16 51 -54q2 -5 -3 -18z" />
    <glyph glyph-name="udieresis" unicode="&#xfc;" horiz-adv-x="448" 
d="M87 406q-3 2 -9 2q-5 0 -11 -3q-18 -10 -26 -26q-3 -8 -12 -28t-12 -38q-9 -51 -13 -77.5t-4 -56.5q0 -11 2 -33q1 -13 3 -22.5t3 -16.5q5 -27 17.5 -51.5t31.5 -52.5q15 -22 41 -22q11 0 16 2q32 10 53 35q18 21 31.5 44.5t31.5 60.5q7 14 19 42l25 53l18 -65l22 -76
q11 -36 34 -59q11 -11 26 -7q8 3 14 12t5 18q-4 34 -8 47q-6 18 -7 37t-1 23q0 5 -6 33q-4 16 -5 24q-2 10 -2 32l1 47v83q0 40 11 62q1 3 2 7.5t1 7.5l1 12q0 32 -23 51q-17 13 -27 13t-24 -10q-5 -4 -13 -12t-14 -13q-19 -16 -25 -37q-3 -9 -9.5 -34t-14 -45t-15.5 -36
q-44 -82 -63 -124q-10 -23 -20 -37q-22 -33 -28 -28q-6 3 -6 25q0 20 5 47q5 25 16 67q6 24 10 36q1 2 6 15t3 18q-16 38 -51 54zM161.5 581q7.5 -12 7.5 -25q0 -34 -32 -34q-20 0 -32.5 11t-12.5 28q0 14 11 30q6 7 14 6q10 -2 17 -2.5t12 -0.5q8 -1 15.5 -13zM271 558
q0 -9 -9 -15q-2 -1 -4 -3t-5 -4q-3 -1 -9 -5q-8 -5 -16 -5t-20 7q-5 4 -7 13q-1 3 -2 7.5t-1 9.5q0 14 18 29q10 9 21 9q14 0 27 -15q5 -5 5.5 -12.5t0.5 -10.5z" />
    <glyph glyph-name="yacute" unicode="&#xfd;" horiz-adv-x="400" 
d="M341 346q0 9 0.5 23t-0.5 32q-3 48 -34 88q-5 7 -16.5 12t-22.5 5q-18 0 -28 -10q-13 -15 -20.5 -30.5t-13.5 -31.5t-8 -23q-10 -30 -36 -88q-14 -35 -25 -56.5t-26 -35.5t-15 31q0 38 1 59.5t8 43.5q4 12 4 26q0 22 -10 41l-9 18q-6 12 -10 18q-7 9 -24 11
q-9 0 -13.5 -2.5t-9.5 -8t-11 -10.5q-11 -9 -15 -29t-5 -38.5t-1 -24.5q-1 -15 -1 -46q0 -43 1 -64q1 -26 13 -76l7 -31q4 -14 8 -19q3 -6 11.5 -21.5t19 -23t25.5 -7.5l10 1q7 2 15.5 1.5t11.5 -0.5q28 0 50 19q11 10 19 21q4 5 15 16q1 2 2 4.5l1 2.5q6 -6 6 -11
q-1 -26 -7 -54.5t-7 -35.5q-7 -28 -12 -59q-6 -41 -21 -82q-2 -5 -7.5 -20.5t-13 -27t-16.5 -15.5q-4 -2 -7 -2q-5 0 -9 3.5t-5 9.5q0 4 -1 15t-3 19q-2 15 -9 25q-13 18 -29 18q-13 0 -24 -10q-14 -14 -19 -36q-1 -7 -1 -19q0 -22 5.5 -43.5t16.5 -50.5q6 -16 21 -24.5
t36 -8.5q30 0 75 17l22 7q4 1 9 5.5t7 6.5q32 31 56 93q30 85 43 158l9 50q17 97 17 248v27zM248 618q0 -5 -2 -11q0 -4 -3 -7q-12 -20 -29 -41.5t-31 -31.5q-4 -4 -12 -7q-1 -1 -6 -1t-9.5 2.5t-5.5 7.5l-1 14q1 11 6.5 21t7.5 14q19 34 44 65q5 8 14 6q13 -1 22 -13
q5 -7 5 -18z" />
    <glyph glyph-name="thorn" unicode="&#xfe;" horiz-adv-x="615" 
d="M174 464q33 44 73.5 63t92.5 19q104 0 162 -73t58 -204t-58 -205t-162 -74q-108 0 -167 78h-6q6 -64 6 -84v-224h-88v1000h88v-224q0 -34 -3 -72h4zM325 472q-79 0 -115 -43.5t-37 -140.5v-19q0 -109 36 -157.5t117 -48.5q143 0 143 207q0 102 -35 152t-109 50z" />
    <glyph glyph-name="ydieresis" unicode="&#xff;" horiz-adv-x="400" 
d="M341 346q0 9 0.5 23t-0.5 32q-3 48 -34 88q-5 7 -16.5 12t-22.5 5q-18 0 -28 -10q-13 -15 -20.5 -30.5t-13.5 -31.5t-8 -23q-10 -30 -36 -88q-14 -35 -25 -56.5t-26 -35.5t-15 31q0 38 1 59.5t8 43.5q4 12 4 26q0 22 -10 41l-9 18q-6 12 -10 18q-7 9 -24 11
q-9 0 -13.5 -2.5t-9.5 -8t-11 -10.5q-11 -9 -15 -29t-5 -38.5t-1 -24.5q-1 -15 -1 -46q0 -43 1 -64q1 -26 13 -76l7 -31q4 -14 8 -19q3 -6 11.5 -21.5t19 -23t25.5 -7.5l10 1q7 2 15.5 1.5t11.5 -0.5q28 0 50 19q11 10 19 21q4 5 15 16q1 2 2 4.5l1 2.5q6 -6 6 -11
q-1 -26 -7 -54.5t-7 -35.5q-7 -28 -12 -59q-6 -41 -21 -82q-2 -5 -7.5 -20.5t-13 -27t-16.5 -15.5q-4 -2 -7 -2q-5 0 -9 3.5t-5 9.5q0 4 -1 15t-3 19q-2 15 -9 25q-13 18 -29 18q-13 0 -24 -10q-14 -14 -19 -36q-1 -7 -1 -19q0 -22 5.5 -43.5t16.5 -50.5q6 -16 21 -24.5
t36 -8.5q30 0 75 17l22 7q4 1 9 5.5t7 6.5q32 31 56 93q30 85 43 158l9 50q17 97 17 248v27zM139.5 583q7.5 -12 7.5 -25q0 -34 -32 -34q-20 0 -32.5 11t-12.5 28q0 14 11 30q6 7 14 6q10 -2 17 -2.5t12 -0.5q8 -1 15.5 -13zM249 560q0 -9 -9 -15q-2 -1 -4 -3t-5 -4
q-3 -1 -9 -5q-8 -5 -16 -5t-20 7q-5 4 -7 13q-1 3 -2 7.5t-1 9.5q0 14 18 29q11 9 21 9q14 0 27 -15q5 -5 5.5 -12.5t0.5 -10.5z" />
    <glyph glyph-name="Amacron" unicode="&#x100;" horiz-adv-x="639" 
d="M178 842h297v-71h-297v71zM395 128q0 -34 -26 -73q-6 -10 -18 -10q-4 0 -10 2q-29 11 -40 31l-27 46q-10 17 -12 43q-2 34 -4 50l-2 23q-1 5 -8 8.5t-12 0.5l-59 -33q-24 -11 -26 -41q-4 -41 -16 -99l-8 -45q-1 -10 -11 -44q-4 -12 -14 -20t-22 -8q-3 0 -11 2
q-33 11 -51 33t-18 61q0 19 8 59q5 25 14 88l7 50q1 9 3 29.5t6 30.5l11 41q7 30 17 92q7 38 24 87q14 40 40 90q7 15 28 45q23 34 60 34q13 0 20 -2q25 -7 54 -22q20 -11 31 -42q17 -40 19 -60q1 -21 9 -63q6 -24 9 -50q2 -26 2 -39q1 -20 3 -41t7 -38q7 -23 9 -69
q0 -7 0.5 -17.5t2.5 -24.5q8 -67 10 -93q1 -4 1 -12zM211 543q-4 -8 -10 -26q-5 -14 -11 -42q-13 -69 -17 -111q-1 -5 5.5 -9t12.5 -3l38 16q8 4 12 12.5t1 17.5q-8 26 -12 80q-2 24 -4 38q0 3 -1 13.5t-4 14.5q-6 7 -10 -1z" />
    <glyph glyph-name="amacron" unicode="&#x101;" horiz-adv-x="561" 
d="M143 677h297v-71h-297v71zM66 -25q-39 10 -52 51q-10 32 -13 60q-1 8 -1 23q0 28 6 53q13 61 38 119t62 121q12 19 23 31q32 37 74 37q9 0 14 -1q7 -1 18.5 -4t19.5 -3q7 0 18 2.5t19 3.5q16 1 29.5 -9.5t14.5 -25.5q3 -20 9 -40q11 -41 10 -66q0 -8 5.5 -23t6.5 -21
q26 -146 91 -251q5 -8 5 -17q0 -12 -8.5 -23t-21.5 -14q-10 -3 -19 -3q-18 0 -32 11q-28 20 -46 51q-32 57 -50 112q-2 4 -5 6t-7 1q-9 -4 -10 -9q-9 -26 -19 -59q-10 -27 -21 -44.5t-31 -28.5q-2 -2 -10 -12q-22 -35 -69 -35q-22 0 -48 7zM210.5 352.5q0.5 3.5 -0.5 6.5
q-5 10 -7 11q-1 1 -4 1q-5 0 -9 -7l-14 -35l-34 -86q-14 -32 -16 -51q-2 -16 -4.5 -28t-4.5 -20q-6 -21 -9 -42v-4q0 -6 2 -18q0 -4 4 -4q5 -2 7 2q21 26 34 58.5t23 73.5q4 13 5 22q13 57 24 89q3 14 3 23q0 5 0.5 8.5z" />
    <glyph glyph-name="Abreve" unicode="&#x102;" horiz-adv-x="467" 
d="M395 128q0 -34 -26 -73q-6 -10 -18 -10q-4 0 -10 2q-29 11 -40 31l-27 46q-10 17 -12 43q-2 34 -4 50l-2 23q-1 5 -8 8.5t-12 0.5l-59 -33q-24 -11 -26 -41q-4 -41 -16 -99l-8 -45q-1 -10 -11 -44q-4 -12 -14 -20t-22 -8q-3 0 -11 2q-33 11 -51 33t-18 61q0 19 8 59
q5 25 14 88l7 50q1 9 3 29.5t6 30.5l11 41q7 30 17 92q7 38 24 87q14 40 40 90q7 15 28 45q23 34 60 34q13 0 20 -2q25 -7 54 -22q20 -11 31 -42q17 -40 19 -60q1 -21 9 -63q6 -24 9 -50q2 -26 2 -39q1 -20 3 -41t7 -38q7 -23 9 -69q0 -7 0.5 -17.5t2.5 -24.5q8 -67 10 -93
q1 -4 1 -12zM211 543q-4 -8 -10 -26q-5 -14 -11 -42q-13 -69 -17 -111q-1 -5 5.5 -9t12.5 -3l38 16q8 4 12 12.5t1 17.5q-8 26 -12 80q-2 24 -4 38q0 3 -1 13.5t-4 14.5q-6 7 -10 -1zM185 740q-13 6 -24 15q-5 3 -13 11q-9 9 -9 24q0 8 1 11l8 29q2 7 4 9q2 4 9 6t14 2
q6 0 14 -2q5 -3 7.5 -5.5t2.5 -7.5q0 -12 -6 -36q-1 -2 -1 -7q0 -6 2 -9q4 -10 18 -10q15 -2 22 -1q5 0 11 4q13 8 10 22q0 3 -4 11q-7 14 -5 19q0 3 2 5q4 6 14 6q6 0 12.5 -3t8.5 -7q3 -6 4 -12.5t1 -8.5q2 -16 1 -24q0 -6 -3 -14q-5 -11 -12 -14q-24 -15 -44 -15h-16h-11
q-12 0 -18 2z" />
    <glyph glyph-name="abreve" unicode="&#x103;" horiz-adv-x="488" 
d="M66 -25q-39 10 -52 51q-10 32 -13 60q-1 8 -1 23q0 28 6 53q13 61 38 119t62 121q12 19 23 31q32 37 74 37q9 0 14 -1q7 -1 18.5 -4t19.5 -3q7 0 18 2.5t19 3.5q16 1 29.5 -9.5t14.5 -25.5q3 -20 9 -40q11 -41 10 -66q0 -8 5.5 -23t6.5 -21q26 -146 91 -251q5 -8 5 -17
q0 -12 -8.5 -23t-21.5 -14q-10 -3 -19 -3q-18 0 -32 11q-28 20 -46 51q-32 57 -50 112q-2 4 -5 6t-7 1q-9 -4 -10 -9q-9 -26 -19 -59q-10 -27 -21 -44.5t-31 -28.5q-2 -2 -10 -12q-22 -35 -69 -35q-22 0 -48 7zM210.5 352.5q0.5 3.5 -0.5 6.5q-5 10 -7 11q-1 1 -4 1
q-5 0 -9 -7l-14 -35l-34 -86q-14 -32 -16 -51q-2 -16 -4.5 -28t-4.5 -20q-6 -21 -9 -42v-4q0 -6 2 -18q0 -4 4 -4q5 -2 7 2q21 26 34 58.5t23 73.5q4 13 5 22q13 57 24 89q3 14 3 23q0 5 0.5 8.5zM215 520q-14 6 -24 15q-5 3 -13 11q-9 9 -9 24q0 8 1 11l8 29q2 7 4 9
q2 4 9 6t14 2q6 0 14 -2q5 -3 7.5 -5.5t2.5 -7.5q0 -12 -6 -36q-1 -2 -1 -7q0 -6 2 -9q4 -10 18 -10q15 -2 22 -1q5 0 11 4q13 8 10 22q0 3 -4 11q-7 14 -5 19q0 3 2 5q5 6 14 6q6 0 12.5 -3t8.5 -7q3 -6 4 -12.5t1 -8.5q2 -16 1 -24q0 -6 -3 -14q-5 -11 -12 -14
q-24 -15 -44 -15h-16h-11q-12 0 -18 2z" />
    <glyph glyph-name="Aogonek" unicode="&#x104;" horiz-adv-x="639" 
d="M540 -116q0 -22 12 -33.5t33 -11.5t48 6v-56q-34 -9 -62 -9q-103 0 -103 94q0 68 78 126h62q-34 -32 -51 -58.5t-17 -57.5zM395 128q0 -34 -26 -73q-6 -10 -18 -10q-4 0 -10 2q-29 11 -40 31l-27 46q-10 17 -12 43q-2 34 -4 50l-2 23q-1 5 -8 8.5t-12 0.5l-59 -33
q-24 -11 -26 -41q-4 -41 -16 -99l-8 -45q-1 -10 -11 -44q-4 -12 -14 -20t-22 -8q-3 0 -11 2q-33 11 -51 33t-18 61q0 19 8 59q5 25 14 88l7 50q1 9 3 29.5t6 30.5l11 41q7 30 17 92q7 38 24 87q14 40 40 90q7 15 28 45q23 34 60 34q13 0 20 -2q25 -7 54 -22q20 -11 31 -42
q17 -40 19 -60q1 -21 9 -63q6 -24 9 -50q2 -26 2 -39q1 -20 3 -41t7 -38q7 -23 9 -69q0 -7 0.5 -17.5t2.5 -24.5q8 -67 10 -93q1 -4 1 -12zM211 543q-4 -8 -10 -26q-5 -14 -11 -42q-13 -69 -17 -111q-1 -5 5.5 -9t12.5 -3l38 16q8 4 12 12.5t1 17.5q-8 26 -12 80
q-2 24 -4 38q0 3 -1 13.5t-4 14.5q-6 7 -10 -1z" />
    <glyph glyph-name="aogonek" unicode="&#x105;" horiz-adv-x="561" 
d="M410 -116q0 -22 12 -33.5t33 -11.5t48 6v-56q-34 -9 -62 -9q-103 0 -103 94q0 68 78 126h62q-34 -32 -51 -58.5t-17 -57.5zM66 -25q-39 10 -52 51q-10 32 -13 60q-1 8 -1 23q0 28 6 53q13 61 38 119t62 121q12 19 23 31q32 37 74 37q9 0 14 -1q7 -1 18.5 -4t19.5 -3
q7 0 18 2.5t19 3.5q16 1 29.5 -9.5t14.5 -25.5q3 -20 9 -40q11 -41 10 -66q0 -8 5.5 -23t6.5 -21q26 -146 91 -251q5 -8 5 -17q0 -12 -8.5 -23t-21.5 -14q-10 -3 -19 -3q-18 0 -32 11q-28 20 -46 51q-32 57 -50 112q-2 4 -5 6t-7 1q-9 -4 -10 -9q-9 -26 -19 -59
q-10 -27 -21 -44.5t-31 -28.5q-2 -2 -10 -12q-22 -35 -69 -35q-22 0 -48 7zM210.5 352.5q0.5 3.5 -0.5 6.5q-5 10 -7 11q-1 1 -4 1q-5 0 -9 -7l-14 -35l-34 -86q-14 -32 -16 -51q-2 -16 -4.5 -28t-4.5 -20q-6 -21 -9 -42v-4q0 -6 2 -18q0 -4 4 -4q5 -2 7 2q21 26 34 58.5
t23 73.5q4 13 5 22q13 57 24 89q3 14 3 23q0 5 0.5 8.5z" />
    <glyph glyph-name="Cacute" unicode="&#x106;" horiz-adv-x="432" 
d="M305 829q0 -5 -2 -11q0 -4 -3 -7q-12 -20 -29 -41.5t-31 -31.5q-4 -4 -12 -7q-1 -1 -6 -1t-9.5 2.5t-5.5 7.5l-1 14q1 11 6.5 21t7.5 14q19 34 44 65q5 8 14 6q13 -1 22 -13q5 -7 5 -18zM270 682q20 0 35.5 -9.5t24.5 -27.5q4 -7 4 -15q0 -9 -4 -17q-9 -19 -36 -33
q-10 -4 -16 -4q-25 1 -41 -10.5t-33 -34.5q-58 -82 -69 -168q-15 -37 -15 -91q0 -17 2 -49q1 -14 5 -32t6 -26q9 -40 49 -75q18 -15 46 -15q24 0 40 12q17 14 31 28l25 22q13 11 26 20q4 2 9 0q11 -3 20.5 -13.5t10.5 -21.5q2 -25 -7 -40q-50 -80 -130 -114q-23 -10 -48 -10
q-26 0 -49 10q-85 35 -124 107q-8 17 -10 23q-3 17 -7 29q-13 49 -14 83l-1 51q0 45 6 75q5 26 13.5 56t11.5 40l6 22q14 56 42 99q14 23 36 50q14 18 13 16q16 20 25 28q45 36 80 36q9 0 14 -1h23z" />
    <glyph glyph-name="cacute" unicode="&#x107;" horiz-adv-x="315" 
d="M238 625q0 -5 -2 -11q0 -4 -3 -7q-12 -20 -29 -41.5t-31 -31.5q-4 -4 -12 -7q-1 -1 -6 -1t-9.5 2.5t-5.5 7.5l-1 14q1 11 6.5 21t7.5 14q19 34 44 65q5 8 14 6q13 -1 22 -13q5 -7 5 -18zM19 282q22 88 51 139q22 40 57 53l19 9q12 6 18 8q13 5 25 5q21 0 40.5 -10
t29.5 -26q7 -10 7 -22q0 -14 -11 -26t-24 -13q-5 -1 -14 -1l-25 1q-20 0 -35 -18q-11 -13 -15 -23q-21 -45 -25 -90q-2 -26 -2 -40q-2 -32 -4 -49q-2 -22 -2 -31q0 -31 15 -58q7 -10 18 -10q7 0 11 4q41 36 62 71q8 14 25 22q5 3 11 3q4 0 8 -2q24 -18 29 -51l1 -4
q0 -5 -4 -15q-26 -57 -59 -90q-4 -4 -9 -10.5t-9 -9.5q-16 -16 -42 -18l-20 -1q-39 0 -64 14.5t-53 52.5q-29 40 -29 103q0 51 19 133z" />
    <glyph glyph-name="Ccircumflex" unicode="&#x108;" horiz-adv-x="432" 
d="M270 682q20 0 35.5 -9.5t24.5 -27.5q4 -7 4 -15q0 -9 -4 -17q-9 -19 -36 -33q-10 -4 -16 -4q-25 1 -41 -10.5t-33 -34.5q-58 -82 -69 -168q-15 -37 -15 -91q0 -17 2 -49q1 -14 5 -32t6 -26q9 -40 49 -75q18 -15 46 -15q24 0 40 12q17 14 31 28l25 22q13 11 26 20q4 2 9 0
q11 -3 20.5 -13.5t10.5 -21.5q2 -25 -7 -40q-50 -80 -130 -114q-23 -10 -48 -10q-26 0 -49 10q-85 35 -124 107q-8 17 -10 23q-3 17 -7 29q-13 49 -14 83l-1 51q0 45 6 75q5 26 13.5 56t11.5 40l6 22q14 56 42 99q14 23 36 50q14 18 13 16q16 20 25 28q45 36 80 36
q9 0 14 -1h23zM316 738q-5 -8 -15 -8q-8 0 -13 6q-17 22 -22 33q-2 5 -6.5 15t-8.5 17q0 1 -2 1h-0.5h-0.5l-3 -4l-9 -22l-10 -21q-3 -10 -18 -19q-6 -2 -9 -2q-12 0 -18 9q-5 8 -5 11q6 12 8 19q2 5 3.5 9.5t3.5 9.5l24 47q7 10 23 21l12 6t11 5h2q5 0 9 -4q2 -3 4.5 -7
t5.5 -9q4 -11 5 -20q6 -29 21 -52l3 -6l10 -25z" />
    <glyph glyph-name="ccircumflex" unicode="&#x109;" horiz-adv-x="315" 
d="M19 282q22 88 51 139q22 40 57 53l19 9q12 6 18 8q13 5 25 5q21 0 40.5 -10t29.5 -26q7 -10 7 -22q0 -14 -11 -26t-24 -13q-5 -1 -14 -1l-25 1q-20 0 -35 -18q-11 -13 -15 -23q-21 -45 -25 -90q-2 -26 -2 -40q-2 -32 -4 -49q-2 -22 -2 -31q0 -31 15 -58q7 -10 18 -10
q7 0 11 4q41 36 62 71q8 14 25 22q5 3 11 3q4 0 8 -2q24 -18 29 -51l1 -4q0 -5 -4 -15q-26 -57 -59 -90q-4 -4 -9 -10.5t-9 -9.5q-16 -16 -42 -18l-20 -1q-39 0 -64 14.5t-53 52.5q-29 40 -29 103q0 51 19 133zM238 540q-5 -8 -15 -8q-8 0 -13 6q-17 22 -22 33q-2 5 -6.5 15
t-8.5 17q0 1 -2 1h-0.5h-0.5l-3 -4l-9 -22l-10 -21q-3 -10 -18 -19q-6 -2 -9 -2q-12 0 -18 9q-5 8 -5 11q6 12 8 19q2 5 3.5 9.5t3.5 9.5l24 47q7 10 23 21l12 6t11 5h2q5 0 9 -4q2 -3 4.5 -7t5.5 -9q4 -11 5 -20q6 -29 21 -52l3 -6l10 -25z" />
    <glyph glyph-name="Cdotaccent" unicode="&#x10a;" horiz-adv-x="432" 
d="M233 683q-35 0 -80 -36q-9 -8 -25 -28q1 2 -13 -16q-22 -27 -36 -50q-28 -43 -42 -99l-6 -22q-3 -10 -11.5 -40t-13.5 -56q-6 -30 -6 -75l1 -51q1 -34 14 -83q4 -12 7 -29q2 -6 10 -23q39 -72 124 -107q23 -10 49 -10q25 0 48 10q80 34 130 114q9 15 7 40
q-1 11 -10.5 21.5t-20.5 13.5q-5 2 -9 0q-13 -9 -26 -20l-25 -22q-14 -14 -31 -28q-16 -12 -40 -12q-28 0 -46 15q-40 35 -49 75q-2 8 -6 26t-5 32q-2 32 -2 49q0 54 15 91q11 86 69 168q17 23 33 34.5t41 10.5q6 0 16 4q27 14 36 33q4 8 4 17q0 8 -4 15q-17 32 -52 37
q-8 1 -16 0.5t-15 -0.5q-5 1 -14 1zM269.5 789q7.5 -12 7.5 -25q0 -34 -32 -34q-20 0 -32.5 11t-12.5 28q0 14 11 30q6 7 14 6q10 -2 17 -2.5t12 -0.5q8 -1 15.5 -13z" />
    <glyph glyph-name="cdotaccent" unicode="&#x10b;" horiz-adv-x="315" 
d="M29 46q28 -38 53 -52.5t64 -14.5l20 1q26 2 42 18q4 3 9 9.5t9 10.5q33 33 59 90q5 14 3 19q-5 33 -29 51q-4 2 -8 2q-6 0 -11 -3q-17 -8 -25 -22q-21 -35 -62 -71q-4 -4 -11 -4q-11 0 -18 10q-15 27 -15 58q0 9 2 31q2 17 4 49q0 14 2 40q4 45 25 90q4 10 15 23
q15 18 35 18l26 -1q9 0 13 1q13 1 24 13t11 26q0 12 -7 22q-10 16 -29.5 26t-40.5 10q-12 0 -25 -5q-6 -2 -18 -8l-19 -9q-35 -13 -57 -53q-29 -51 -51 -139q-19 -82 -19 -133q0 -63 29 -103zM213.5 601q7.5 -12 7.5 -25q0 -34 -32 -34q-20 0 -32.5 11t-12.5 28q0 14 11 30
q6 7 14 6q10 -2 17 -2.5t12 -0.5q8 -1 15.5 -13z" />
    <glyph glyph-name="Ccaron" unicode="&#x10c;" horiz-adv-x="432" 
d="M270 682q20 0 35.5 -9.5t24.5 -27.5q4 -7 4 -15q0 -9 -4 -17q-9 -19 -36 -33q-10 -4 -16 -4q-25 1 -41 -10.5t-33 -34.5q-58 -82 -69 -168q-15 -37 -15 -91q0 -17 2 -49q1 -14 5 -32t6 -26q9 -40 49 -75q18 -15 46 -15q24 0 40 12q17 14 31 28l25 22q13 11 26 20q4 2 9 0
q11 -3 20.5 -13.5t10.5 -21.5q2 -25 -7 -40q-50 -80 -130 -114q-23 -10 -48 -10q-26 0 -49 10q-85 35 -124 107q-8 17 -10 23q-3 17 -7 29q-13 49 -14 83l-1 51q0 45 6 75q5 26 13.5 56t11.5 40l6 22q14 56 42 99q14 23 36 50q14 18 13 16q16 20 25 28q45 36 80 36
q9 0 14 -1h23zM191 873q5 8 16 8q7 0 12 -5q16 -22 22 -34q8 -22 14 -32q0 -1 2 -1h2l2 4q2 5 4.5 10.5t5.5 11.5l9 21q4 10 19 19q4 2 8 2q13 0 19 -9q4 -6 5 -11l-9 -18q-4 -14 -7 -20q-10 -22 -24 -46q-6 -12 -23 -22q-4 -2 -22 -10q-1 -1 -3 -1q-6 0 -8 4q-8 10 -10 16
q-4 15 -5 20q-6 29 -21 52l-4 6l-9 25z" />
    <glyph glyph-name="ccaron" unicode="&#x10d;" horiz-adv-x="315" 
d="M19 282q22 88 51 139q22 40 57 53l19 9q12 6 18 8q13 5 25 5q21 0 40.5 -10t29.5 -26q7 -10 7 -22q0 -14 -11 -26t-24 -13q-5 -1 -14 -1l-25 1q-20 0 -35 -18q-11 -13 -15 -23q-21 -45 -25 -90q-2 -26 -2 -40q-2 -32 -4 -49q-2 -22 -2 -31q0 -31 15 -58q7 -10 18 -10
q7 0 11 4q41 36 62 71q8 14 25 22q5 3 11 3q4 0 8 -2q24 -18 29 -51l1 -4q0 -5 -4 -15q-26 -57 -59 -90q-4 -4 -9 -10.5t-9 -9.5q-16 -16 -42 -18l-20 -1q-39 0 -64 14.5t-53 52.5q-29 40 -29 103q0 51 19 133zM125 660q5 8 16 8q7 0 12 -5q16 -22 22 -34q8 -22 14 -32
q0 -1 2 -1h2l2 4q2 5 4.5 10.5t5.5 11.5l9 21q4 10 19 19q4 2 8 2q13 0 19 -9q4 -6 5 -11l-9 -18q-4 -14 -7 -20q-10 -22 -24 -46q-6 -12 -23 -22q-4 -2 -22 -10q-1 -1 -3 -1q-6 0 -8 4q-8 10 -10 16q-4 15 -5 20q-6 29 -21 52l-4 6l-9 25z" />
    <glyph glyph-name="Dcaron" unicode="&#x10e;" horiz-adv-x="407" 
d="M76 852q5 8 16 8q7 0 12 -5q16 -22 22 -34q8 -22 14 -32q0 -1 2 -1h2l2 4q2 5 4.5 10.5t5.5 11.5l9 21q4 10 19 19q4 2 8 2q13 0 19 -9q4 -6 5 -11l-9 -18q-4 -14 -7 -20q-10 -22 -24 -46q-6 -12 -23 -22q-4 -2 -22 -10q-1 -1 -3 -1q-6 0 -8 4q-8 10 -10 16q-4 15 -5 20
q-6 29 -21 52l-4 6l-9 25zM143 440q0 -23 1 -44t1 -25q-4 -59 -5 -91l-3 -45l-1 -18q0 -16 8 -24q1 -1 3.5 0t4.5 3q28 33 39 50t15 35.5t7 57.5l2 34l1 15q0 44 -21 83q-14 24 -22 36q-3 4 -13 9q-4 0 -5 -1q-12 -6 -12 -75zM50 121q-12 34 -12 88l1 33q0 55 -3 85
q-1 19 -0.5 33.5t0.5 24.5q2 29 0 56v44v92q0 8 -9 26q-10 16 -10 27q0 22 21 35.5t45 14.5q18 1 31.5 0.5t22.5 -0.5q29 0 52.5 -13t49.5 -37q8 -7 17.5 -21t15.5 -21q25 -31 38 -68t21 -85q4 -25 5 -34q2 -22 2 -34q0 -46 -15 -91q-26 -74 -80 -150q-18 -25 -27 -33
l-112 -104q-13 -12 -35 -12q-15 0 -27.5 6t-19.5 18t-7 22q0 11 5 18q8 13 20.5 28.5t18.5 22.5z" />
    <glyph glyph-name="dcaron" unicode="&#x10f;" horiz-adv-x="508" 
d="M474.5 694q1.5 -7 2 -11.5t0.5 -7.5q2 -23 -10 -43q-12 -22 -34 -40q-4 -4 -12 -5.5t-13 0.5q-15 5 -16 13q-1 2 -1 5q-1 3 -1 8t1 8q8 17 9 19l4 12l4 12v3q0 4 -4 6.5t-10 4.5t-8 6.5t-3 5.5t-1 4q0 7 6 15q5 6 12 10q10 7 23 7q4 0 19 -3q14 -2 26 -17q5 -5 6.5 -12z
M92 69q4 1 6 3q24 20 38 45q26 46 62 132q2 5 2 11v8v2q0 8 -6.5 13.5t-14.5 3.5q-26 -7 -40 -22q-12 -14 -23 -30t-16 -31q-18 -52 -18 -99q0 -18 3 -38q3 1 7 2zM333 678q9 -3 15 -12q15 -32 15 -58v-88v-44q-1 -29 -6 -58q-6 -48 -6 -73q0 -16 1 -24q10 -83 11 -128
q0 -13 2 -39q2 -40 2 -59q0 -15 -2 -45q-1 -13 -1 -29.5v-23.5q-1 -8 -9 -13.5t-16 -4.5q-38 9 -49 39q-30 79 -41 170q0 -1 -7 -10.5t-9 -11.5q-5 -12 -9 -29.5t-6 -26.5q-21 -67 -74 -117q-8 -8 -17 -11t-20 -5t-18 -4h-2q-2 0 -11 3q-19 6 -34.5 21t-24.5 34
q-7 13 -9.5 25.5t-3.5 26.5t-2 23q-2 18 -2 26q0 36 16 86q12 38 23.5 64.5t29.5 50.5q27 36 77 36q30 0 57 -12l8 -4t11 -4q3 0 6 2t5 4q11 19 15 50q3 30 3 60q2 48 2 74q0 39 15 105q4 27 33 41z" />
    <glyph glyph-name="Dcroat" unicode="&#x110;" horiz-adv-x="729" 
d="M669 364q0 -175 -96 -269.5t-278 -94.5h-191v314h-74v78h74v322h213q167 0 259.5 -92t92.5 -258zM574 361q0 137 -68 206.5t-202 69.5h-110v-245h178v-78h-178v-237h90q290 0 290 284z" />
    <glyph glyph-name="dcroat" unicode="&#x111;" horiz-adv-x="617" 
d="M275 -10q-104 0 -162 72t-58 203q0 132 57.5 205t162.5 73q109 0 167 -79h6q-1 7 -3.5 33.5t-2.5 46.5v61h-213v66h213v89h88v-89h76v-66h-76v-605h-72l-13 72h-4q-56 -82 -166 -82zM290 63q80 0 116.5 43t36.5 142v17q0 112 -37 158.5t-118 46.5q-68 0 -104.5 -52
t-36.5 -154q0 -96 35 -148.5t108 -52.5z" />
    <glyph glyph-name="Emacron" unicode="&#x112;" horiz-adv-x="556" 
d="M148 842h297v-71h-297v71zM6 423v10q0 7 1 10q8 24 8 52q0 34 -10 64v3q0 5 4 12t7 9l8 4l49 12q106 24 158 43q22 9 47 9q7 0 23 -2q22 -3 35 -26q4 -7 4 -17q0 -15 -7 -19q-16 -14 -29 -22q-79 -47 -159 -60q-4 -1 -9.5 -8.5t-5.5 -12.5q0 -33 1 -49q1 -10 7.5 -16.5
t16.5 -7.5h18q11 0 17 -1q14 -3 25 -10q13 -6 23.5 -20.5t7.5 -22.5q-8 -33 -43 -46q-8 -3 -17 -3q-26 -1 -36.5 -4t-14 -10.5t-3.5 -26.5l1 -119q0 -29 21 -52q8 -11 19 -11q6 0 12 3q23 14 53 48q16 18 28.5 29.5t27.5 19.5q4 2 10 2q9 0 15 -5q42 -32 42 -63
q0 -23 -27 -58q-44 -60 -117 -84q-14 -4 -21 -4q-6 0 -14 2q-51 11 -95.5 33t-57.5 57q-15 38 -22 62.5t-7 53.5q0 36 2 114z" />
    <glyph glyph-name="emacron" unicode="&#x113;" horiz-adv-x="563" 
d="M150 677h297v-71h-297v71zM323 90q0 -12 -5 -27q-11 -34 -45 -54q-22 -13 -61 -22q-7 -2 -21 -2q-23 0 -43 10q-32 15 -53 36q-46 46 -63 90q-32 79 -32 147q0 31 5 56q5 23 12 43q3 7 5.5 17t3.5 15q4 22 8 31q15 34 46 52q39 22 83 22q38 0 58 -20q4 -4 16 -13t17 -15
q5 -7 8 -21.5t3 -26.5q0 -3 -2 -29q0 -14 -5 -29q-7 -35 -23 -56q-22 -27 -56 -43l-60 -24q-8 -3 -13.5 -10.5t-3.5 -14.5q6 -32 15.5 -56t26.5 -44l9 -10q4 -4 13 -4q7 0 11 3l31 23l24 22q22 20 54 17q14 -1 21 -7t10 -20q0 -3 1 -9t2 -10q3 -9 3 -17zM104 345
q0 -10 2 -12.5t3 -3.5q5 -8 14 -8q3 0 9 2q21 13 35 39.5t12 43.5q-3 9 -10 14q-3 2 -9 2q-13 0 -21 -9q-5 -6 -14.5 -17t-14.5 -21t-6 -22v-8z" />
    <glyph glyph-name="Ebreve" unicode="&#x114;" horiz-adv-x="407" 
d="M6 423v10q0 7 1 10q8 24 8 52q0 34 -10 64v3q0 5 4 12t7 9l8 4l49 12q106 24 158 43q22 9 47 9q7 0 23 -2q22 -3 35 -26q4 -7 4 -17q0 -15 -7 -19q-16 -14 -29 -22q-79 -47 -159 -60q-4 -1 -9.5 -8.5t-5.5 -12.5q0 -33 1 -49q1 -10 7.5 -16.5t16.5 -7.5h18q11 0 17 -1
q14 -3 25 -10q13 -6 23.5 -20.5t7.5 -22.5q-8 -33 -43 -46q-8 -3 -17 -3q-26 -1 -36.5 -4t-14 -10.5t-3.5 -26.5l1 -119q0 -29 21 -52q8 -11 19 -11q6 0 12 3q23 14 53 48q16 18 28.5 29.5t27.5 19.5q4 2 10 2q9 0 15 -5q42 -32 42 -63q0 -23 -27 -58q-44 -60 -117 -84
q-14 -4 -21 -4q-6 0 -14 2q-51 11 -95.5 33t-57.5 57q-15 38 -22 62.5t-7 53.5q0 36 2 114zM129 686q-14 6 -24 15q-5 3 -13 11q-9 9 -9 24q0 8 1 11l8 29q2 7 4 9q2 4 9 6t14 2q6 0 14 -2q5 -3 7.5 -5.5t2.5 -7.5q0 -12 -6 -36q-1 -2 -1 -7q0 -6 2 -9q4 -10 18 -10
q15 -2 22 -1q5 0 11 4q13 8 10 22q0 3 -4 11q-7 14 -5 19q0 3 2 5q5 6 14 6q6 0 12.5 -3t8.5 -7q3 -6 4 -12.5t1 -8.5q2 -16 1 -24q0 -6 -3 -14q-5 -11 -12 -14q-24 -15 -44 -15h-16h-11q-12 0 -18 2z" />
    <glyph glyph-name="ebreve" unicode="&#x115;" horiz-adv-x="357" 
d="M323 90q0 -12 -5 -27q-11 -34 -45 -54q-22 -13 -61 -22q-7 -2 -21 -2q-23 0 -43 10q-32 15 -53 36q-46 46 -63 90q-32 79 -32 147q0 31 5 56q5 23 12 43q3 7 5.5 17t3.5 15q4 22 8 31q15 34 46 52q39 22 83 22q38 0 58 -20q4 -4 16 -13t17 -15q5 -7 8 -21.5t3 -26.5
q0 -3 -2 -29q0 -14 -5 -29q-7 -35 -23 -56q-22 -27 -56 -43l-60 -24q-8 -3 -13.5 -10.5t-3.5 -14.5q6 -32 15.5 -56t26.5 -44l9 -10q4 -4 13 -4q7 0 11 3l31 23l24 22q22 20 54 17q14 -1 21 -7t10 -20q0 -3 1 -9t2 -10q3 -9 3 -17zM104 345q0 -10 2 -12.5t3 -3.5q5 -8 14 -8
q3 0 9 2q21 13 35 39.5t12 43.5q-3 9 -10 14q-3 2 -9 2q-13 0 -21 -9q-5 -6 -14.5 -17t-14.5 -21t-6 -22v-8zM115 558q-13 6 -24 15q-5 3 -13 11q-9 9 -9 24q0 8 1 11l8 29q2 7 4 9q2 4 9 6t14 2q6 0 14 -2q5 -3 7.5 -5.5t2.5 -7.5q0 -12 -6 -36q-1 -2 -1 -7q0 -6 2 -9
q4 -10 18 -10q15 -2 22 -1q5 0 11 4q13 8 10 22q0 3 -4 11q-7 14 -5 19q0 3 2 5q5 6 14 6q6 0 12.5 -3t8.5 -7q3 -6 4 -12.5t1 -8.5q2 -16 1 -24q0 -6 -3 -14q-5 -11 -12 -14q-24 -15 -44 -15h-16h-11q-12 0 -18 2z" />
    <glyph glyph-name="Edotaccent" unicode="&#x116;" horiz-adv-x="407" 
d="M178.5 725q7.5 -12 7.5 -25q0 -34 -32 -34q-20 0 -32.5 11t-12.5 28q0 14 11 30q6 7 14 6q10 -2 17 -2.5t12 -0.5q8 -1 15.5 -13zM6 423v10q0 7 1 10q8 24 8 52q0 34 -10 64v3q0 5 4 12t7 9l8 4l49 12q106 24 158 43q22 9 47 9q7 0 23 -2q22 -3 35 -26q4 -7 4 -17
q0 -15 -7 -19q-16 -14 -29 -22q-79 -47 -159 -60q-4 -1 -9.5 -8.5t-5.5 -12.5q0 -33 1 -49q1 -10 7.5 -16.5t16.5 -7.5h18q11 0 17 -1q14 -3 25 -10q13 -6 23.5 -20.5t7.5 -22.5q-8 -33 -43 -46q-8 -3 -17 -3q-26 -1 -36.5 -4t-14 -10.5t-3.5 -26.5l1 -119q0 -29 21 -52
q8 -11 19 -11q6 0 12 3q23 14 53 48q16 18 28.5 29.5t27.5 19.5q4 2 10 2q9 0 15 -5q42 -32 42 -63q0 -23 -27 -58q-44 -60 -117 -84q-14 -4 -21 -4q-6 0 -14 2q-51 11 -95.5 33t-57.5 57q-15 38 -22 62.5t-7 53.5q0 36 2 114z" />
    <glyph glyph-name="edotaccent" unicode="&#x117;" horiz-adv-x="357" 
d="M155.5 611q7.5 -12 7.5 -25q0 -34 -32 -34q-20 0 -32.5 11t-12.5 28q0 14 11 30q6 7 14 6q10 -2 17 -2.5t12 -0.5q8 -1 15.5 -13zM104 345q0 -10 2 -12.5t3 -3.5q5 -8 14 -8q3 0 9 2q21 13 35 39.5t12 43.5q-3 9 -10 14q-3 2 -9 2q-13 0 -21 -9q-5 -6 -14.5 -17
t-14.5 -21t-6 -22v-8zM323 90q0 -12 -5 -27q-11 -34 -45 -54q-22 -13 -61 -22q-7 -2 -21 -2q-23 0 -43 10q-32 15 -53 36q-46 46 -63 90q-32 79 -32 147q0 31 5 56q5 23 12 43q3 7 5.5 17t3.5 15q4 22 8 31q15 34 46 52q39 22 83 22q38 0 58 -20q4 -4 16 -13t17 -15
q5 -7 8 -21.5t3 -26.5q0 -3 -2 -29q0 -14 -5 -29q-7 -35 -23 -56q-22 -27 -56 -43l-60 -24q-8 -3 -13.5 -10.5t-3.5 -14.5q6 -32 15.5 -56t26.5 -44l9 -10q4 -4 13 -4q7 0 11 3l31 23l24 22q22 20 54 17q14 -1 21 -7t10 -20q0 -3 1 -9t2 -10q3 -9 3 -17z" />
    <glyph glyph-name="Eogonek" unicode="&#x118;" horiz-adv-x="556" 
d="M392 -116q0 -22 12 -33.5t33 -11.5t48 6v-56q-34 -9 -62 -9q-103 0 -103 94q0 68 78 126h62q-34 -32 -51 -58.5t-17 -57.5zM6 423v10q0 7 1 10q8 24 8 52q0 34 -10 64v3q0 5 4 12t7 9l8 4l49 12q106 24 158 43q22 9 47 9q7 0 23 -2q22 -3 35 -26q4 -7 4 -17q0 -15 -7 -19
q-16 -14 -29 -22q-79 -47 -159 -60q-4 -1 -9.5 -8.5t-5.5 -12.5q0 -33 1 -49q1 -10 7.5 -16.5t16.5 -7.5h18q11 0 17 -1q14 -3 25 -10q13 -6 23.5 -20.5t7.5 -22.5q-8 -33 -43 -46q-8 -3 -17 -3q-26 -1 -36.5 -4t-14 -10.5t-3.5 -26.5l1 -119q0 -29 21 -52q8 -11 19 -11
q6 0 12 3q23 14 53 48q16 18 28.5 29.5t27.5 19.5q4 2 10 2q9 0 15 -5q42 -32 42 -63q0 -23 -27 -58q-44 -60 -117 -84q-14 -4 -21 -4q-6 0 -14 2q-51 11 -95.5 33t-57.5 57q-15 38 -22 62.5t-7 53.5q0 36 2 114z" />
    <glyph glyph-name="eogonek" unicode="&#x119;" horiz-adv-x="563" 
d="M387 -102q0 -22 12 -33.5t33 -11.5t48 6v-56q-34 -9 -62 -9q-103 0 -103 94q0 68 78 126h62q-34 -32 -51 -58.5t-17 -57.5zM323 90q0 -12 -5 -27q-11 -34 -45 -54q-22 -13 -61 -22q-7 -2 -21 -2q-23 0 -43 10q-32 15 -53 36q-46 46 -63 90q-32 79 -32 147q0 31 5 56
q5 23 12 43q3 7 5.5 17t3.5 15q4 22 8 31q15 34 46 52q39 22 83 22q38 0 58 -20q4 -4 16 -13t17 -15q5 -7 8 -21.5t3 -26.5q0 -3 -2 -29q0 -14 -5 -29q-7 -35 -23 -56q-22 -27 -56 -43l-60 -24q-8 -3 -13.5 -10.5t-3.5 -14.5q6 -32 15.5 -56t26.5 -44l9 -10q4 -4 13 -4
q7 0 11 3l31 23l24 22q22 20 54 17q14 -1 21 -7t10 -20q0 -3 1 -9t2 -10q3 -9 3 -17zM104 345q0 -10 2 -12.5t3 -3.5q5 -8 14 -8q3 0 9 2q21 13 35 39.5t12 43.5q-3 9 -10 14q-3 2 -9 2q-13 0 -21 -9q-5 -6 -14.5 -17t-14.5 -21t-6 -22v-8z" />
    <glyph glyph-name="Ecaron" unicode="&#x11a;" horiz-adv-x="407" 
d="M6 423v10q0 7 1 10q8 24 8 52q0 34 -10 64v3q0 5 4 12t7 9l8 4l49 12q106 24 158 43q22 9 47 9q7 0 23 -2q22 -3 35 -26q4 -7 4 -17q0 -15 -7 -19q-16 -14 -29 -22q-79 -47 -159 -60q-4 -1 -9.5 -8.5t-5.5 -12.5q0 -33 1 -49q1 -10 7.5 -16.5t16.5 -7.5h18q11 0 17 -1
q14 -3 25 -10q13 -6 23.5 -20.5t7.5 -22.5q-8 -33 -43 -46q-8 -3 -17 -3q-26 -1 -36.5 -4t-14 -10.5t-3.5 -26.5l1 -119q0 -29 21 -52q8 -11 19 -11q6 0 12 3q23 14 53 48q16 18 28.5 29.5t27.5 19.5q4 2 10 2q9 0 15 -5q42 -32 42 -63q0 -23 -27 -58q-44 -60 -117 -84
q-14 -4 -21 -4q-6 0 -14 2q-51 11 -95.5 33t-57.5 57q-15 38 -22 62.5t-7 53.5q0 36 2 114zM87 817q5 8 16 8q7 0 12 -5q16 -22 22 -34q8 -22 14 -32q0 -1 2 -1h2l2 4q2 5 4.5 10.5t5.5 11.5l9 21q4 10 19 19q4 2 8 2q13 0 19 -9q4 -6 5 -11l-9 -18q-4 -14 -7 -20
q-10 -22 -24 -46q-6 -12 -23 -22q-4 -2 -22 -10q-1 -1 -3 -1q-6 0 -8 4q-8 10 -10 16q-4 15 -5 20q-6 29 -21 52l-4 6l-9 25z" />
    <glyph glyph-name="ecaron" unicode="&#x11b;" horiz-adv-x="357" 
d="M323 90q0 -12 -5 -27q-11 -34 -45 -54q-22 -13 -61 -22q-7 -2 -21 -2q-23 0 -43 10q-32 15 -53 36q-46 46 -63 90q-32 79 -32 147q0 31 5 56q5 23 12 43q3 7 5.5 17t3.5 15q4 22 8 31q15 34 46 52q39 22 83 22q38 0 58 -20q4 -4 16 -13t17 -15q5 -7 8 -21.5t3 -26.5
q0 -3 -2 -29q0 -14 -5 -29q-7 -35 -23 -56q-22 -27 -56 -43l-60 -24q-8 -3 -13.5 -10.5t-3.5 -14.5q6 -32 15.5 -56t26.5 -44l9 -10q4 -4 13 -4q7 0 11 3l31 23l24 22q22 20 54 17q14 -1 21 -7t10 -20q0 -3 1 -9t2 -10q3 -9 3 -17zM104 345q0 -10 2 -12.5t3 -3.5q5 -8 14 -8
q3 0 9 2q21 13 35 39.5t12 43.5q-3 9 -10 14q-3 2 -9 2q-13 0 -21 -9q-5 -6 -14.5 -17t-14.5 -21t-6 -22v-8zM60 669q5 8 16 8q7 0 12 -5q16 -22 22 -34q8 -22 14 -32q0 -1 2 -1h2l2 4q2 5 4.5 10.5t5.5 11.5l9 21q4 10 19 19q4 2 8 2q13 0 19 -9q4 -6 5 -11l-9 -18
q-4 -14 -7 -20q-10 -22 -24 -46q-6 -12 -23 -22q-4 -2 -22 -10q-1 -1 -3 -1q-6 0 -8 4q-8 10 -10 16q-4 15 -5 20q-6 29 -21 52l-4 6l-9 25z" />
    <glyph glyph-name="Gcircumflex" unicode="&#x11c;" horiz-adv-x="467" 
d="M242 321.5q0 13.5 -1 21.5q-4 15 -12 22q-5 4 -17.5 10t-20 13t-11.5 22q-3 5 -3 9q0 11 7 14q42 22 91.5 30t110.5 9q13 0 21 -14q6 -10 6 -26q0 -14 -4.5 -26t-13.5 -18l-20 -16q-17 -13 -17 -37q0 -13 2 -37q2 -38 2 -57q0 -34 -10 -76q-20 -83 -87 -131
q-43 -30 -74 -39q-7 -3 -18 -3q-9 0 -15 3q-28 15 -44.5 26t-29.5 28l-26 34q-53 73 -55 167l-1 36q-2 52 -2 79q0 41 4 73q5 47 21.5 92t42.5 83q58 87 145 84q18 0 32 -15.5t14 -34.5q0 -16 -7 -29.5t-20 -20.5q-6 -4 -24 -8q-24 -7 -38 -32q-32 -59 -32 -140q0 -41 7 -97
q8 -72 7 -107q0 -16 5 -30.5t15 -35.5q6 -11 14 -11q10 0 21 17.5t19.5 39.5t9.5 31q2 17 7 74q-1 10 -1 23.5zM242 741q-5 -8 -15 -8q-9 0 -13 6q-17 22 -22 33q-2 5 -6.5 15t-8.5 17q0 1 -2 1h-0.5h-0.5l-3 -4l-9 -22l-10 -21q-3 -10 -18 -19q-6 -2 -9 -2q-12 0 -18 9
q-5 8 -5 11q6 12 8 19q2 5 3.5 9.5t3.5 9.5l24 47q7 10 23 21l12 6t11 5h2q5 0 9 -4q2 -3 4.5 -7t5.5 -9q4 -11 5 -20q6 -29 21 -52l3 -6l10 -25z" />
    <glyph glyph-name="gcircumflex" unicode="&#x11d;" horiz-adv-x="400" 
d="M216 127q-14 -18 -19 -24q-21 -25 -62 -42q-28 -15 -43 -15q-10 0 -18.5 4t-23.5 13q-12 7 -21 23q-29 54 -29 117q0 57 22 113.5t59 102.5q19 21 37 28q2 1 15 6.5t25 5.5q4 0 12 -2q12 -5 26 -5h17q41 0 91 -33q21 -13 27.5 -37t6.5 -57v-37q0 -37 4 -56q5 -24 5 -57
q0 -38 -12 -114l-6 -40l-6 -42q-7 -57 -17 -94t-36 -68q-29 -35 -76 -55q-21 -9 -42 -9l-13 1q-21 2 -30 13.5t-13 23.5t-5 16q-3 9 -3 20l1 25q0 41 46 55h2q4 0 10 -4t16 -19q7 -11 19 -11q14 0 21 13q27 48 34 126l4 43q6 48 6 72q0 19 -1 28q-16 -10 -30 -28z
M127.5 165.5q21.5 11.5 30.5 23.5q12 17 27 34l21 25l14 17q13 14 20 26t9 33q2 4 2 11q0 19 -6 20q-7 2 -13 0q-4 -2 -22 -9.5t-32 -16t-23 -17.5q-50 -52 -60 -137v-4q0 -10 5 -11q6 -6 27.5 5.5zM267 525q-5 -8 -15 -8q-9 0 -13 6q-17 22 -22 33q-2 5 -6.5 15t-8.5 17
q0 1 -2 1h-0.5h-0.5l-3 -4l-9 -22l-10 -21q-3 -10 -18 -19q-6 -2 -9 -2q-12 0 -18 9q-5 8 -5 11q6 12 8 19q2 5 3.5 9.5t3.5 9.5l24 47q7 10 23 21l12 6t11 5h2q5 0 9 -4q2 -3 4.5 -7t5.5 -9q4 -11 5 -20q6 -29 21 -52l3 -6l10 -25z" />
    <glyph glyph-name="Gbreve" unicode="&#x11e;" horiz-adv-x="728" 
d="M177 685q-14 6 -24 15q-5 3 -13 11q-9 9 -9 24q0 8 1 11l8 29q2 7 4 9q2 4 9 6t14 2q6 0 14 -2q6 -3 8 -5.5t2 -7.5q0 -12 -6 -36q-1 -2 -1 -7q0 -6 2 -9q4 -10 18 -10q15 -2 22 -1q5 0 11 4q13 8 10 22q0 3 -4 11q-7 14 -5 19q0 3 2 5q4 6 14 6q6 0 12.5 -3t8.5 -7
q3 -6 4 -12.5t1 -8.5q2 -16 1 -24q0 -6 -3 -14q-5 -11 -12 -14q-24 -15 -44 -15h-16h-11q-12 0 -18 2zM242 321.5q0 13.5 -1 21.5q-4 15 -12 22q-5 4 -17.5 10t-20 13t-11.5 22q-3 5 -3 9q0 11 7 14q42 22 91.5 30t110.5 9q13 0 21 -14q6 -10 6 -26q0 -14 -4.5 -26
t-13.5 -18l-20 -16q-17 -13 -17 -37q0 -13 2 -37q2 -38 2 -57q0 -34 -10 -76q-20 -83 -87 -131q-43 -30 -74 -39q-7 -3 -18 -3q-9 0 -15 3q-28 15 -44.5 26t-29.5 28l-26 34q-53 73 -55 167l-1 36q-2 52 -2 79q0 41 4 73q5 47 21.5 92t42.5 83q58 87 145 84q18 0 32 -15.5
t14 -34.5q0 -16 -7 -29.5t-20 -20.5q-6 -4 -24 -8q-24 -7 -38 -32q-32 -59 -32 -140q0 -41 7 -97q8 -72 7 -107q0 -16 5 -30.5t15 -35.5q6 -11 14 -11q10 0 21 17.5t19.5 39.5t9.5 31q2 17 7 74q-1 10 -1 23.5z" />
    <glyph glyph-name="gbreve" unicode="&#x11f;" horiz-adv-x="615" 
d="M63 520q-14 6 -24 15q-5 3 -13 11q-9 9 -9 24q0 8 1 11l8 29q2 7 4 9q2 4 9 6t14 2q6 0 14 -2q6 -3 8 -5.5t2 -7.5q0 -12 -6 -36q-1 -2 -1 -7q0 -6 2 -9q4 -10 18 -10q15 -2 22 -1q5 0 11 4q13 8 10 22q0 3 -4 11q-7 14 -5 19q0 3 2 5q4 6 14 6q6 0 12.5 -3t8.5 -7
q3 -6 4 -12.5t1 -8.5q2 -16 1 -24q0 -6 -3 -14q-5 -11 -12 -14q-24 -15 -44 -15h-16h-11q-12 0 -18 2zM216 127q-14 -18 -19 -24q-21 -25 -62 -42q-28 -15 -43 -15q-10 0 -18.5 4t-23.5 13q-12 7 -21 23q-29 54 -29 117q0 57 22 113.5t59 102.5q19 21 37 28q2 1 15 6.5
t25 5.5q4 0 12 -2q12 -5 26 -5h17q41 0 91 -33q21 -13 27.5 -37t6.5 -57v-37q0 -37 4 -56q5 -24 5 -57q0 -38 -12 -114l-6 -40l-6 -42q-7 -57 -17 -94t-36 -68q-29 -35 -76 -55q-21 -9 -42 -9l-13 1q-21 2 -30 13.5t-13 23.5t-5 16q-3 9 -3 20l1 25q0 41 46 55h2q4 0 10 -4
t16 -19q7 -11 19 -11q14 0 21 13q27 48 34 126l4 43q6 48 6 72q0 19 -1 28q-16 -10 -30 -28zM127.5 165.5q21.5 11.5 30.5 23.5q12 17 27 34l21 25l14 17q13 14 20 26t9 33q2 4 2 11q0 19 -6 20q-7 2 -13 0q-4 -2 -22 -9.5t-32 -16t-23 -17.5q-50 -52 -60 -137v-4
q0 -10 5 -11q6 -6 27.5 5.5z" />
    <glyph glyph-name="Gdotaccent" unicode="&#x120;" horiz-adv-x="467" 
d="M236 224q-1 -9 -9.5 -31t-19.5 -39.5t-21 -17.5q-8 0 -14 11q-20 40 -20 70q0 28 -3 60t-4 41q-7 58 -7 99q0 81 32 140q14 25 38 32q18 4 24 8q13 7 20 20.5t7 29.5q0 19 -14 34.5t-32 15.5q-87 3 -145 -84q-26 -38 -42.5 -83t-21.5 -92q-4 -32 -4 -73q0 -27 2 -79
l1 -36q2 -94 55 -167l26 -34q13 -17 29.5 -28t44.5 -26q6 -3 15 -3q11 0 18 3q31 9 74 39q67 48 87 131q10 42 10 76q0 19 -2 57q-2 24 -2 37q0 24 17 37l20 16q9 6 13.5 18t4.5 26q0 16 -6 26q-8 14 -21 14q-61 -1 -110.5 -9t-91.5 -30q-7 -3 -7 -14q0 -4 3 -9
q4 -16 12 -23t20 -12.5t17 -9.5q8 -7 12 -22q1 -8 1 -21.5t1 -23.5q-5 -57 -7 -74zM209.5 811q7.5 -12 7.5 -25q0 -34 -32 -34q-20 0 -32.5 11t-12.5 28q0 14 11 30q6 7 14 6q10 -2 17 -2.5t12 -0.5q8 -1 15.5 -13z" />
    <glyph glyph-name="gdotaccent" unicode="&#x121;" horiz-adv-x="400" 
d="M247 127q0 -24 -6 -72l-4 -43q-7 -78 -34 -126q-7 -13 -21 -13q-12 0 -19 11q-10 15 -16 19q-1 1 -5 3t-7 1q-46 -14 -46 -55l-1 -25q0 -11 3 -20q1 -4 6 -19t15.5 -24t26.5 -10l13 -1q21 0 42 9q47 20 76 55q26 31 36 68t17 94l6 42l6 40q12 76 12 114q0 33 -5 57
q-5 25 -5 58v39q0 31 -6.5 53.5t-26.5 36.5q-50 33 -91 33h-17t-26 5q-8 2 -12 2q-12 0 -25 -5.5t-15 -6.5q-18 -7 -37 -28q-37 -46 -59 -102.5t-22 -113.5q0 -63 29 -117q9 -16 21 -23q15 -9 23.5 -13t18.5 -4q15 0 43 15q41 17 62 42q5 6 19 24t30 28q1 -9 1 -28zM95 166
q-1 5 0 9q10 85 60 137q11 12 27.5 20.5t31 14.5t18.5 8q6 2 13 0q6 -1 6 -20q0 -7 -2 -11q-2 -21 -9 -33t-20 -26l-14 -17l-21 -25q-15 -17 -27 -34q-9 -12 -30.5 -23.5t-27.5 -5.5q-4 1 -5 6zM231.5 590q7.5 -12 7.5 -25q0 -34 -32 -34q-20 0 -32.5 11t-12.5 28
q0 14 11 30q6 7 14 6q10 -2 17 -2.5t12 -0.5q8 -1 15.5 -13z" />
    <glyph glyph-name="uni0122" unicode="&#x122;" horiz-adv-x="728" 
d="M322 -209q11 25 24 70.5t17 77.5h87v-9q-8 -31 -31.5 -76.5t-48.5 -74.5h-48v12zM242 321.5q0 13.5 -1 21.5q-4 15 -12 22q-5 4 -17.5 10t-20 13t-11.5 22q-3 5 -3 9q0 11 7 14q42 22 91.5 30t110.5 9q13 0 21 -14q6 -10 6 -26q0 -14 -4.5 -26t-13.5 -18l-20 -16
q-17 -13 -17 -37q0 -13 2 -37q2 -38 2 -57q0 -34 -10 -76q-20 -83 -87 -131q-43 -30 -74 -39q-7 -3 -18 -3q-9 0 -15 3q-28 15 -44.5 26t-29.5 28l-26 34q-53 73 -55 167l-1 36q-2 52 -2 79q0 41 4 73q5 47 21.5 92t42.5 83q58 87 145 84q18 0 32 -15.5t14 -34.5
q0 -16 -7 -29.5t-20 -20.5q-6 -4 -24 -8q-24 -7 -38 -32q-32 -59 -32 -140q0 -41 7 -97q8 -72 7 -107q0 -16 5 -30.5t15 -35.5q6 -11 14 -11q10 0 21 17.5t19.5 39.5t9.5 31q2 17 7 74q-1 10 -1 23.5z" />
    <glyph glyph-name="uni0123" unicode="&#x123;" horiz-adv-x="615" 
d="M379 754q-13 -29 -26 -74.5t-16 -73.5h-87v9q7 27 31.5 74t48.5 77h49v-12zM216 127q-14 -18 -19 -24q-21 -25 -62 -42q-28 -15 -43 -15q-10 0 -18.5 4t-23.5 13q-12 7 -21 23q-29 54 -29 117q0 57 22 113.5t59 102.5q19 21 37 28q2 1 15 6.5t25 5.5q4 0 12 -2
q12 -5 26 -5h17q41 0 91 -33q21 -13 27.5 -37t6.5 -57v-37q0 -37 4 -56q5 -24 5 -57q0 -38 -12 -114l-6 -40l-6 -42q-7 -57 -17 -94t-36 -68q-29 -35 -76 -55q-21 -9 -42 -9l-13 1q-21 2 -30 13.5t-13 23.5t-5 16q-3 9 -3 20l1 25q0 41 46 55h2q4 0 10 -4t16 -19
q7 -11 19 -11q14 0 21 13q27 48 34 126l4 43q6 48 6 72q0 19 -1 28q-16 -10 -30 -28zM127.5 165.5q21.5 11.5 30.5 23.5q12 17 27 34l21 25l14 17q13 14 20 26t9 33q2 4 2 11q0 19 -6 20q-7 2 -13 0q-4 -2 -22 -9.5t-32 -16t-23 -17.5q-50 -52 -60 -137v-4q0 -10 5 -11
q6 -6 27.5 5.5z" />
    <glyph glyph-name="Hcircumflex" unicode="&#x124;" horiz-adv-x="741" 
d="M213 690q-5 -8 -15 -8q-9 0 -13 6q-17 22 -22 33q-2 5 -6.5 15t-8.5 17q0 1 -2 1h-0.5h-0.5l-3 -4l-9 -22l-10 -21q-3 -10 -18 -19q-6 -2 -9 -2q-12 0 -18 9q-5 8 -5 11q6 12 8 19q2 5 3.5 9.5t3.5 9.5l24 47q7 10 23 21l12 6t11 5h2q5 0 9 -4q2 -3 4.5 -7t5.5 -9
q4 -11 5 -20q6 -29 21 -52l3 -6l10 -25zM465 110q1 -27 -2.5 -48t-12.5 -42q-5 -11 -22 -11q-9 0 -17.5 2.5t-12.5 6.5q-12 12 -21 28.5t-21 42.5q-20 43 -24 85l-3 19q-1 6 -7.5 12t-11.5 6l-25 -1q-17 0 -49 -2q-8 0 -16 -9t-8 -17l-2 -49q0 -15 -2 -49q-1 -53 -40 -96
q-4 -4 -23 -4q-12 0 -15 2t-7.5 5.5t-7.5 6.5q-22 30 -30.5 63t-14.5 86l-1 55q1 15 -2 19.5t-13 6.5q-11 2 -24 8q-10 4 -17 15.5t-8 13.5q-5 8 -5 20q0 21 14 33q5 4 12.5 8.5t11.5 6.5q3 2 13.5 8.5t11.5 9.5q7 29 7 70q0 145 1 216q1 13 5 39q3 13 16.5 22.5t28.5 9.5
q9 0 16 -4q2 -1 7.5 -4t7.5 -7q5 -8 16.5 -26t14.5 -33l7 -28q13 -48 14 -77q0 -44 1 -77t2 -56q2 -28 2 -44q0 -5 7.5 -11t12.5 -5q50 2 91 18q6 2 10.5 8t4.5 14q2 52 2 79q2 58 2 88q1 9 8.5 16t16.5 8q37 4 60 -34q12 -18 19 -45q14 -56 18 -114.5t4 -136.5v-127z" />
    <glyph glyph-name="hcircumflex" unicode="&#x125;" horiz-adv-x="618" 
d="M156 717q-5 -8 -15 -8q-9 0 -13 6q-17 22 -22 33q-2 5 -6.5 15t-8.5 17q0 1 -2 1h-0.5h-0.5l-3 -4l-9 -22l-10 -21q-3 -10 -18 -19q-6 -2 -9 -2q-12 0 -18 9q-5 8 -5 11q6 12 8 19q2 5 3.5 9.5t3.5 9.5l24 47q7 10 23 21l12 6t11 5h2q5 0 9 -4q2 -3 4.5 -7t5.5 -9
q4 -11 5 -20q6 -29 21 -52l3 -6l10 -25zM242 219q-6 -5 -10.5 -16t-6.5 -16q-5 -12 -17 -36l-17 -37q-6 -12 -11 -29q-7 -23 -17 -40q-1 -2 -11 -17q-2 -4 -17 -29q-18 -28 -51 -28q-19 0 -35 12t-23 32q-7 23 -16 58l-8 29q-1 6 -1 21q-1 28 -1 84v15q0 9 1 13q10 36 10 97
v39q0 39 2 58q16 149 22 217q2 27 23 38q2 1 8.5 4t13.5 3t12 -4q4 -2 7 -2.5t5 -0.5q27 -13 27 -42v-176v-219q0 -5 4 -5t8 4q5 6 10 15.5t7 12.5q26 48 63 84q14 13 34.5 23.5t37.5 10.5q27 0 34 -30q8 -36 11 -53q10 -56 19 -84l47 -160q2 -8 2 -11q0 -13 -10 -28
q-16 -23 -40 -23q-8 0 -19 3q-6 2 -10 7q-23 30 -31 60q-10 41 -31 107l-10 32q-2 6 -5.5 8.5t-7.5 0.5z" />
    <glyph glyph-name="Hbar" unicode="&#x126;" horiz-adv-x="741" 
d="M97 595v119h90v-119h366v119h90v-119h97v-72h-97v-523h-90v333h-366v-333h-90v523h-97v72h97zM553 412v111h-366v-111h366z" />
    <glyph glyph-name="hbar" unicode="&#x127;" horiz-adv-x="618" 
d="M450 0v323q0 65 -29 97t-91 32q-83 0 -120 -45t-37 -149v-258h-88v604h-76v66h76v90h88v-90h212v-66h-212v-87q0 -43 -5 -74h6q26 42 70.5 62.5t97.5 20.5q97 0 146 -47t49 -150v-329h-87z" />
    <glyph glyph-name="Itilde" unicode="&#x128;" horiz-adv-x="338" 
d="M-34 692q-14 9 -22 36q-3 11 -9 22q-4 11 -9 13q-1 1 -3 1q-4 0 -5.5 -6.5t-1.5 -7.5q-2 -8 -2 -13q0 -11 -3 -18t-11 -12q-4 -4 -11 -4q-13 0 -16 16q-3 11 -3 20q0 29 28 55v0v1q14 9 32 9q11 0 21 -5q3 -2 10 -9q3 -4 9 -19t7 -23t4 -18q3 -8 9 -8q9 0 19 10q3 3 3 8
q0 7 -1 11q-1 5 -3 11.5t-2 10.5v3q0 13 6 17q10 8 18 8t12 -12t4 -29q2 -10 2 -16q0 -4 -2 -16q-1 -14 -13 -25t-27 -15q-8 -3 -16 -3q-14 0 -24 7zM162 230l1 -80q0 -58 -9 -102q-6 -26 -31 -40q-10 -5 -19 -5q-25 0 -44.5 35t-30 79.5t-9.5 66.5l1 46l-1 96q0 52 4 95
q3 37 3 110l2 83q9 43 11 49q1 4 5.5 8.5t8.5 4.5q12 2 20 2q9 0 17 -3q19 -7 40 -27q10 -8 16 -25q1 -3 6 -16.5t5 -25.5l3 -261z" />
    <glyph glyph-name="itilde" unicode="&#x129;" horiz-adv-x="257" 
d="M-74 527q-14 9 -22 36q-3 11 -9 22q-4 11 -9 13q-1 1 -3 1q-4 0 -5.5 -6.5t-1.5 -7.5q-2 -8 -2 -13q0 -11 -3 -18t-11 -12q-4 -4 -11 -4q-13 0 -16 16q-3 11 -3 20q0 29 28 55v0v1q14 9 32 9q11 0 21 -5q3 -2 10 -9q3 -4 9 -19t7 -23t4 -18q3 -8 9 -8q9 0 19 10q3 3 3 8
q0 7 -1 11q-1 5 -3 11.5t-2 10.5v3q0 13 6 17q10 8 18 8t12 -12t4 -29q2 -10 2 -16q0 -4 -2 -16q-1 -14 -13 -25t-27 -15q-8 -3 -16 -3q-14 0 -24 7zM133 81q0 -11 -1 -17l-5 -35q-2 -11 -15.5 -20.5t-23.5 -5.5q-36 12 -47 44l-15 42q-7 19 -9 42.5t-3 32.5q-4 24 -4 54
q0 18 1 27l3 34q1 12 2 29.5t4 40.5q2 10 7.5 21.5t7.5 14.5q4 10 14.5 15t19.5 2q22 -7 41 -29q4 -4 6 -14q1 -6 5 -27t5 -40q1 -13 1 -40t-1 -41q0 -11 -0.5 -26.5t0.5 -35.5q1 -12 5 -41q2 -18 2 -27z" />
    <glyph glyph-name="Imacron" unicode="&#x12a;" horiz-adv-x="338" 
d="M21 842h297v-71h-297v71zM162 230l1 -80q0 -58 -9 -102q-6 -26 -31 -40q-10 -5 -19 -5q-25 0 -44.5 35t-30 79.5t-9.5 66.5l1 46l-1 96q0 52 4 95q3 37 3 110l2 83q9 43 11 49q1 4 5.5 8.5t8.5 4.5q12 2 20 2q9 0 17 -3q19 -7 40 -27q10 -8 16 -25q1 -3 6 -16.5t5 -25.5
l3 -261z" />
    <glyph glyph-name="imacron" unicode="&#x12b;" horiz-adv-x="257" 
d="M-18 677h297v-71h-297v71zM133 81q0 -11 -1 -17l-5 -35q-2 -11 -15.5 -20.5t-23.5 -5.5q-36 12 -47 44l-15 42q-7 19 -9 42.5t-3 32.5q-4 24 -4 54q0 18 1 27l3 34q1 12 2 29.5t4 40.5q2 10 7.5 21.5t7.5 14.5q4 10 14.5 15t19.5 2q22 -7 41 -29q4 -4 6 -14q1 -6 5 -27
t5 -40q1 -13 1 -40t-1 -41q0 -11 -0.5 -26.5t0.5 -35.5q1 -12 5 -41q2 -18 2 -27z" />
    <glyph glyph-name="Ibreve" unicode="&#x12c;" horiz-adv-x="338" 
d="M-69 685q-14 6 -24 15q-5 3 -13 11q-9 9 -9 24q0 8 1 11l8 29q2 7 4 9q2 4 9 6t14 2q6 0 14 -2q6 -3 8 -5.5t2 -7.5q0 -12 -6 -36q-1 -2 -1 -7q0 -6 2 -9q4 -10 18 -10q15 -2 22 -1q5 0 11 4q13 8 10 22q0 3 -4 11q-7 14 -5 19q0 3 2 5q4 6 14 6q6 0 12.5 -3t8.5 -7
q3 -6 4 -12.5t1 -8.5q2 -16 1 -24q0 -6 -3 -14q-5 -11 -12 -14q-24 -15 -44 -15h-16h-11q-12 0 -18 2zM162 230l1 -80q0 -58 -9 -102q-6 -26 -31 -40q-10 -5 -19 -5q-25 0 -44.5 35t-30 79.5t-9.5 66.5l1 46l-1 96q0 52 4 95q3 37 3 110l2 83q9 43 11 49q1 4 5.5 8.5
t8.5 4.5q12 2 20 2q9 0 17 -3q19 -7 40 -27q10 -8 16 -25q1 -3 6 -16.5t5 -25.5l3 -261z" />
    <glyph glyph-name="ibreve" unicode="&#x12d;" horiz-adv-x="257" 
d="M-111 520q-14 6 -24 15q-5 3 -13 11q-9 9 -9 24q0 8 1 11l8 29q2 7 4 9q2 4 9 6t14 2q6 0 14 -2q6 -3 8 -5.5t2 -7.5q0 -12 -6 -36q-1 -2 -1 -7q0 -6 2 -9q4 -10 18 -10q15 -2 22 -1q5 0 11 4q13 8 10 22q0 3 -4 11q-7 14 -5 19q0 3 2 5q4 6 14 6q6 0 12.5 -3t8.5 -7
q3 -6 4 -12.5t1 -8.5q2 -16 1 -24q0 -6 -3 -14q-5 -11 -12 -14q-24 -15 -44 -15h-16h-11q-12 0 -18 2zM133 81q0 -11 -1 -17l-5 -35q-2 -11 -15.5 -20.5t-23.5 -5.5q-36 12 -47 44l-15 42q-7 19 -9 42.5t-3 32.5q-4 24 -4 54q0 18 1 27l3 34q1 12 2 29.5t4 40.5
q2 10 7.5 21.5t7.5 14.5q4 10 14.5 15t19.5 2q22 -7 41 -29q4 -4 6 -14q1 -6 5 -27t5 -40q1 -13 1 -40t-1 -41q0 -11 -0.5 -26.5t0.5 -35.5q1 -12 5 -41q2 -18 2 -27z" />
    <glyph glyph-name="Iogonek" unicode="&#x12e;" horiz-adv-x="338" 
d="M160 -116q0 -22 12 -33.5t33 -11.5t48 6v-56q-34 -9 -62 -9q-103 0 -103 94q0 68 78 126h62q-34 -32 -51 -58.5t-17 -57.5zM162 230l1 -80q0 -58 -9 -102q-6 -26 -31 -40q-10 -5 -19 -5q-25 0 -44.5 35t-30 79.5t-9.5 66.5l1 46l-1 96q0 52 4 95q3 37 3 110l2 83
q9 43 11 49q1 4 5.5 8.5t8.5 4.5q12 2 20 2q9 0 17 -3q19 -7 40 -27q10 -8 16 -25q1 -3 6 -16.5t5 -25.5l3 -261z" />
    <glyph glyph-name="iogonek" unicode="&#x12f;" horiz-adv-x="257" 
d="M97 -116q0 -22 12 -33.5t33 -11.5t48 6v-56q-34 -9 -62 -9q-103 0 -103 94q0 68 78 126h62q-34 -32 -51 -58.5t-17 -57.5zM133 81q0 -11 -1 -17l-5 -35q-2 -11 -15.5 -20.5t-23.5 -5.5q-36 12 -47 44l-15 42q-7 19 -9 42.5t-3 32.5q-4 24 -4 54q0 18 1 27l3 34
q1 12 2 29.5t4 40.5q2 10 7.5 21.5t7.5 14.5q4 10 14.5 15t19.5 2q22 -7 41 -29q4 -4 6 -14q1 -6 5 -27t5 -40q1 -13 1 -40t-1 -41q0 -11 -0.5 -26.5t0.5 -35.5q1 -12 5 -41q2 -18 2 -27zM23 517q-4 6 -6.5 12t-2.5 15q0 18 9 34t24 16q16 -2 24 -4q17 -5 27.5 -20.5
t10.5 -36.5q0 -18 -8 -34q-2 -5 -7 -9t-10 -5q-4 -1 -11 -1q-27 0 -44 24z" />
    <glyph glyph-name="Idotaccent" unicode="&#x130;" horiz-adv-x="338" 
d="M118.5 755q7.5 -12 7.5 -25q0 -34 -32 -34q-20 0 -32.5 11t-12.5 28q0 14 11 30q6 7 14 6q10 -2 17 -2.5t12 -0.5q8 -1 15.5 -13zM162 230l1 -80q0 -58 -9 -102q-6 -26 -31 -40q-10 -5 -19 -5q-25 0 -44.5 35t-30 79.5t-9.5 66.5l1 46l-1 96q0 52 4 95q3 37 3 110l2 83
q9 43 11 49q1 4 5.5 8.5t8.5 4.5q12 2 20 2q9 0 17 -3q19 -7 40 -27q10 -8 16 -25q1 -3 6 -16.5t5 -25.5l3 -261z" />
    <glyph glyph-name="dotlessi" unicode="&#x131;" horiz-adv-x="185" 
d="M133 81q0 -11 -1 -17l-5 -35q-2 -11 -15.5 -20.5t-23.5 -5.5q-36 12 -47 44l-15 42q-7 19 -9 42.5t-3 32.5q-4 24 -4 54q0 18 1 27l3 34q1 12 2 29.5t4 40.5q2 10 7.5 21.5t7.5 14.5q4 10 14.5 15t19.5 2q22 -7 41 -29q4 -4 6 -14q1 -6 5 -27t5 -40q1 -13 1 -40t-1 -41
q0 -11 -0.5 -26.5t0.5 -35.5q1 -12 5 -41q2 -18 2 -27z" />
    <glyph glyph-name="IJ" unicode="&#x132;" horiz-adv-x="611" 
d="M162 230l1 -80q0 -58 -9 -102q-6 -26 -31 -40q-10 -5 -19 -5q-25 0 -44.5 35t-30 79.5t-9.5 66.5l1 46l-1 96q0 52 4 95q3 37 3 110l2 83q9 43 11 49q1 4 5.5 8.5t8.5 4.5q12 2 20 2q9 0 17 -3q19 -7 40 -27q10 -8 16 -25q1 -3 6 -16.5t5 -25.5l3 -261zM357 544
q-3 9 -3 18q0 15 7 27.5t18 16.5q14 4 20 7q25 8 61.5 19.5t85.5 25.5q10 3 22 4.5t17 2.5q24 2 35 5q10 2 15 2q15 0 38 -9q12 -6 18 -24q2 -6 5.5 -15.5t3.5 -16.5q0 -26 -19 -43q-9 -7 -23 -15t-22 -12q-17 -11 -17 -34l-1 -126q1 -71 -15 -139t-46 -150q-23 -60 -56 -93
q-9 -9 -31 -9q-23 0 -47 8.5t-35 21.5q-22 26 -35.5 49.5t-13.5 47.5q0 16 7 31.5t19 24.5q11 10 22 10q8 0 15 -6t16 -18q6 -8 12 -8q7 0 12 7q24 43 40.5 109.5t17.5 120.5q1 28 1 84q0 11 -7.5 17t-17.5 4q-16 -4 -34 -4q-30 0 -50 14q-23 14 -35 45z" />
    <glyph glyph-name="ij" unicode="&#x133;" horiz-adv-x="514" 
d="M133 81q0 -11 -1 -17l-5 -35q-2 -11 -15.5 -20.5t-23.5 -5.5q-36 12 -47 44l-15 42q-7 19 -9 42.5t-3 32.5q-4 24 -4 54q0 18 1 27l3 34q1 12 2 29.5t4 40.5q2 10 7.5 21.5t7.5 14.5q4 10 14.5 15t19.5 2q22 -7 41 -29q4 -4 6 -14q1 -6 5 -27t5 -40q1 -13 1 -40t-1 -41
q0 -11 -0.5 -26.5t0.5 -35.5q1 -12 5 -41q2 -18 2 -27zM23 517q-4 6 -6.5 12t-2.5 15q0 18 9 34t24 16q16 -2 24 -4q17 -5 27.5 -20.5t10.5 -36.5q0 -18 -8 -34q-2 -5 -7 -9t-10 -5q-4 -1 -11 -1q-27 0 -44 24zM443 120q2 -89 -10 -146q-15 -73 -34 -110q-17 -32 -40.5 -47
t-60.5 -15q-14 0 -22 1q-11 1 -28.5 9.5t-25.5 15.5q-20 17 -29.5 32t-18.5 43q-1 3 -4.5 12.5t-3.5 17.5q0 10 7 17q10 8 24 8q5 0 9 -2q8 -4 12 -7q3 -2 7.5 -6.5t7.5 -8.5q25 -27 59 -27q20 2 27 19q22 47 25 94q0 4 1 21.5t7 33.5q2 6 2 10q0 5 -2 11q-8 20 -8 48
q1 83 1 248q0 11 7 19t18 11h4q6 0 9 -1q16 -7 23.5 -12t10.5 -14q13 -37 19 -62.5t7 -69.5v-36v-72v-35zM315 609q1 6 3 10q5 10 16 13q8 2 13 2q18 0 29 -16q12 -18 21 -36q4 -10 4 -14q0 -12 -10 -25t-26 -13q-8 0 -11 2q-33 17 -41 53q-1 4 -0.5 7.5t0.5 6.5q1 4 2 10z
" />
    <glyph glyph-name="Jcircumflex" unicode="&#x134;" horiz-adv-x="272" 
d="M-18 690q-5 -8 -15 -8q-9 0 -13 6q-17 22 -22 33q-2 5 -6.5 15t-8.5 17q0 1 -2 1h-0.5h-0.5l-3 -4l-9 -22l-10 -21q-3 -10 -18 -19q-6 -2 -9 -2q-12 0 -18 9q-5 8 -5 11q6 12 8 19q2 5 3.5 9.5t3.5 9.5l24 47q7 10 23 21l12 6t11 5h2q5 0 9 -4q2 -3 4.5 -7t5.5 -9
q4 -11 5 -20q6 -29 21 -52l3 -6l10 -25zM18 544q-3 9 -3 18q0 15 7 27.5t18 16.5q14 4 20 7q25 8 61.5 19.5t85.5 25.5q10 3 22 4.5t17 2.5q24 2 35 5q10 2 15 2q15 0 38 -9q12 -6 18 -24q2 -6 5.5 -15.5t3.5 -16.5q0 -26 -19 -43q-9 -7 -23 -15t-22 -12q-17 -11 -17 -34
l-1 -126q1 -71 -15 -139t-46 -150q-23 -60 -56 -93q-9 -9 -31 -9q-23 0 -47 8.5t-35 21.5q-22 26 -35.5 49.5t-13.5 47.5q0 16 7 31.5t19 24.5q11 10 22 10q8 0 15 -6t16 -18q6 -8 12 -8q7 0 12 7q24 43 40.5 109.5t17.5 120.5q1 28 1 84q0 11 -7.5 17t-17.5 4
q-16 -4 -34 -4q-30 0 -50 14q-23 14 -35 45z" />
    <glyph glyph-name="jcircumflex" unicode="&#x135;" horiz-adv-x="257" 
d="M-29 525q-5 -8 -15 -8q-9 0 -13 6q-17 22 -22 33q-2 5 -6.5 15t-8.5 17q0 1 -2 1h-0.5h-0.5l-3 -4l-9 -22l-10 -21q-3 -10 -18 -19q-6 -2 -9 -2q-12 0 -18 9q-5 8 -5 11q6 12 8 19q2 5 3.5 9.5t3.5 9.5l24 47q7 10 23 21l12 6t11 5h2q5 0 9 -4q2 -3 4.5 -7t5.5 -9
q4 -11 5 -20q6 -29 21 -52l3 -6l10 -25zM22 -240q-46 0 -77 12v71q34 -10 66 -10q38 0 56 21t18 63v619h88v-616q0 -80 -38.5 -120t-112.5 -40z" />
    <glyph glyph-name="uni0136" unicode="&#x136;" horiz-adv-x="619" 
d="M246 -209q11 25 24 70.5t17 77.5h87v-9q-8 -31 -31.5 -76.5t-48.5 -74.5h-48v12zM253 327l18 -22q30 -36 45 -57q21 -28 51 -82q8 -13 8 -36q0 -27 -12 -51q-6 -12 -15.5 -19t-18.5 -7q-7 0 -12 4q-58 38 -88 81q-46 69 -78 100l-4 2q-5 0 -8 -10q-6 -18 -6 -34
q0 -9 2 -27t2 -28q0 -43 -17 -84t-52 -54q-1 -1 -5 -1t-9 3q-28 28 -42 65q-6 19 -5 29q1 9 1 27q0 19 -4 59l-2 27q-2 21 -2 63q0 50 5.5 111t11.5 118l9 81q3 22 16 35q9 9 13 6q3 -1 18 -8.5t27 -20.5q26 -31 22 -71q-1 -21 -1 -62q1 -5 4.5 -9.5t4.5 -5.5t3 -0.5t3 1.5
q16 24 47 53q23 20 63 74q14 20 28 37q2 3 28 37q15 20 33 20q9 0 21 -5q9 -4 16 -18.5t7 -28.5q1 -36 -13 -82q-5 -21 -29 -49l-63 -76q-18 -19 -32 -60q8 -20 11 -25z" />
    <glyph glyph-name="uni0137" unicode="&#x137;" horiz-adv-x="534" 
d="M203 -209q11 25 24 70.5t17 77.5h87v-9q-8 -31 -31.5 -76.5t-48.5 -74.5h-48v12zM11 507l-1 67v55q1 32 28 48q10 6 19 6q12 0 25 -10q22 -16 24 -45q1 -11 1 -33t1 -33t1 -33l-1 -64q0 -22 1 -33q1 -8 2 -24t1 -49q0 -57 10 -47q11 12 31 41q16 20 49 38q11 4 16 0
q14 -8 12 -22q-5 -36 -11.5 -61t-20.5 -47q-4 -6 -30 -50q-2 -4 -2 -8q0 -10 7 -17l9 -8q51 -29 99 -40q6 -1 12 -1.5t12 -1.5q26 -10 33 -36q2 -6 2 -9q0 -4 -2 -10q-5 -20 -16 -28q-14 -10 -21 -11q-13 -3 -26 -3q-19 0 -37.5 4.5t-46.5 13.5q-5 1 -11 5.5t-10 6.5
q-24 16 -36 23q-7 3 -17 1q-3 -1 -5 -3t-3 -5q-1 -4 -1 -12q0 -5 1 -8q2 -10 2 -14q0 -17 -14 -36q-7 -11 -22 -11q-17 0 -24 14q-23 41 -29 88l-4 35q-1 7 -5 44t-2 70q2 60 2 92l-1 65z" />
    <glyph glyph-name="kgreenlandic" unicode="&#x138;" horiz-adv-x="534" 
d="M403 536h106l-203 -237l219 -299h-105l-176 242l-66 -54v-188h-93v536h93v-139q0 -68 -6 -135l41 50z" />
    <glyph glyph-name="Lacute" unicode="&#x139;" horiz-adv-x="523" 
d="M144 160q0 -16 3.5 -26t16.5 -15q8 -2 11 -2q12 0 26 9q6 4 18.5 12.5t23.5 13.5q12 6 25 6q11 0 23 -3q11 -3 19.5 -14t9.5 -22q2 -27 -13 -46q-32 -38 -91 -56q-15 -5 -39 -3q-68 10 -106 50q-41 42 -56 95.5t-15 123.5q0 25 2 73t2 71v149q2 38 4 59q1 13 14 24.5
t27 12.5q33 0 49 -1q16 -2 29 -16.5t15 -31.5l1 -29v-207q0 -152 1 -227zM28 783q0 -5 -2 -11q0 -4 -3 -7q-12 -20 -29 -41.5t-31 -31.5q-4 -4 -12 -7q-1 -1 -6 -1t-9.5 2.5t-5.5 7.5l-1 14q1 11 6.5 21t7.5 14q19 34 44 65q5 8 14 6q13 -1 22 -13q5 -7 5 -18z" />
    <glyph glyph-name="lacute" unicode="&#x13a;" horiz-adv-x="257" 
d="M28 501l-1 30q-1 10 -1 29q0 22 4 39q4 16 5 37t2 31q1 12 9.5 19.5t20.5 9.5q18 1 30.5 -4.5t25.5 -19.5q27 -28 30 -68q3 -30 5 -91q0 -17 1 -29t2 -20q4 -38 3 -56v-30q0 -69 7 -165l3 -58q2 -31 28 -41l35 -16q14 -5 20.5 -17.5t6.5 -27.5q0 -11 -4 -22t-10 -17
q-15 -18 -38 -23q-22 -3 -46 -3q-10 0 -22 5q-21 11 -42 36q-9 9 -10 12l-12 29q-20 44 -24 62q-17 66 -22 131.5t-6 164.5v29v44zM-9 811q0 -5 -2 -11q0 -4 -3 -7q-12 -20 -29 -41.5t-31 -31.5q-4 -4 -12 -7q-1 -1 -6 -1t-9.5 2.5t-5.5 7.5l-1 14q1 11 6.5 21t7.5 14
q19 34 44 65q5 8 14 6q13 -1 22 -13q5 -7 5 -18z" />
    <glyph glyph-name="uni013B" unicode="&#x13b;" horiz-adv-x="523" 
d="M204 -209q11 25 24 70.5t17 77.5h87v-9q-8 -31 -31.5 -76.5t-48.5 -74.5h-48v12zM144 160q0 -16 3.5 -26t16.5 -15q8 -2 11 -2q12 0 26 9q6 4 18.5 12.5t23.5 13.5q12 6 25 6q11 0 23 -3q11 -3 19.5 -14t9.5 -22q2 -27 -13 -46q-32 -38 -91 -56q-15 -5 -39 -3
q-68 10 -106 50q-41 42 -56 95.5t-15 123.5q0 25 2 73t2 71v149q2 38 4 59q1 13 14 24.5t27 12.5q33 0 49 -1q16 -2 29 -16.5t15 -31.5l1 -29v-207q0 -152 1 -227z" />
    <glyph glyph-name="uni013C" unicode="&#x13c;" horiz-adv-x="257" 
d="M45 -209q11 25 24 70.5t17 77.5h87v-9q-8 -31 -31.5 -76.5t-48.5 -74.5h-48v12zM28 501l-1 30q-1 10 -1 29q0 22 4 39q4 16 5 37t2 31q1 12 9.5 19.5t20.5 9.5q18 1 30.5 -4.5t25.5 -19.5q27 -28 30 -68q3 -30 5 -91q0 -17 1 -29t2 -20q4 -38 3 -56v-30q0 -69 7 -165
l3 -58q2 -31 28 -41l35 -16q14 -5 20.5 -17.5t6.5 -27.5q0 -11 -4 -22t-10 -17q-15 -18 -38 -23q-22 -3 -46 -3q-10 0 -22 5q-21 11 -42 36q-9 9 -10 12l-12 29q-20 44 -24 62q-17 66 -22 131.5t-6 164.5v29v44z" />
    <glyph glyph-name="Lcaron" unicode="&#x13d;" horiz-adv-x="523" 
d="M333 567q11 32 20.5 77.5t12.5 70.5h87v-9q-6 -26 -27 -71t-45 -80h-48v12zM144 160q0 -16 3.5 -26t16.5 -15q8 -2 11 -2q12 0 26 9q6 4 18.5 12.5t23.5 13.5q12 6 25 6q11 0 23 -3q11 -3 19.5 -14t9.5 -22q2 -27 -13 -46q-32 -38 -91 -56q-15 -5 -39 -3q-68 10 -106 50
q-41 42 -56 95.5t-15 123.5q0 25 2 73t2 71v149q2 38 4 59q1 13 14 24.5t27 12.5q33 0 49 -1q16 -2 29 -16.5t15 -31.5l1 -29v-207q0 -152 1 -227z" />
    <glyph glyph-name="lcaron" unicode="&#x13e;" horiz-adv-x="257" 
d="M219 612q11 32 20.5 77.5t12.5 70.5h87v-9q-6 -26 -27 -71t-45 -80h-48v12zM28 501l-1 30q-1 10 -1 29q0 22 4 39q4 16 5 37t2 31q1 12 9.5 19.5t20.5 9.5q18 1 30.5 -4.5t25.5 -19.5q27 -28 30 -68q3 -30 5 -91q0 -17 1 -29t2 -20q4 -38 3 -56v-30q0 -69 7 -165l3 -58
q2 -31 28 -41l35 -16q14 -5 20.5 -17.5t6.5 -27.5q0 -11 -4 -22t-10 -17q-15 -18 -38 -23q-22 -3 -46 -3q-10 0 -22 5q-21 11 -42 36q-9 9 -10 12l-12 29q-20 44 -24 62q-17 66 -22 131.5t-6 164.5v29v44z" />
    <glyph glyph-name="Ldot" unicode="&#x13f;" horiz-adv-x="523" 
d="M333.5 266q7.5 -12 7.5 -25q0 -34 -32 -34q-20 0 -32.5 11t-12.5 28q0 14 11 30q6 7 14 6q10 -2 17 -2.5t12 -0.5q8 -1 15.5 -13zM144 160q0 -16 3.5 -26t16.5 -15q8 -2 11 -2q12 0 26 9q6 4 18.5 12.5t23.5 13.5q12 6 25 6q11 0 23 -3q11 -3 19.5 -14t9.5 -22
q2 -27 -13 -46q-32 -38 -91 -56q-15 -5 -39 -3q-68 10 -106 50q-41 42 -56 95.5t-15 123.5q0 25 2 73t2 71v149q2 38 4 59q1 13 14 24.5t27 12.5q33 0 49 -1q16 -2 29 -16.5t15 -31.5l1 -29v-207q0 -152 1 -227z" />
    <glyph glyph-name="ldot" unicode="&#x140;" horiz-adv-x="325" 
d="M241.5 242q7.5 -12 7.5 -25q0 -34 -32 -34q-20 0 -32.5 11t-12.5 28q0 14 11 30q6 7 14 6q10 -2 17 -2.5t12 -0.5q8 -1 15.5 -13zM28 501l-1 30q-1 10 -1 29q0 22 4 39q4 16 5 37t2 31q1 12 9.5 19.5t20.5 9.5q18 1 30.5 -4.5t25.5 -19.5q27 -28 30 -68q3 -30 5 -91
q0 -17 1 -29t2 -20q4 -38 3 -56v-30q0 -69 7 -165l3 -58q2 -31 28 -41l35 -16q14 -5 20.5 -17.5t6.5 -27.5q0 -11 -4 -22t-10 -17q-15 -18 -38 -23q-22 -3 -46 -3q-10 0 -22 5q-21 11 -42 36q-9 9 -10 12l-12 29q-20 44 -24 62q-17 66 -22 131.5t-6 164.5v29v44z" />
    <glyph glyph-name="Lslash" unicode="&#x141;" horiz-adv-x="523" 
d="M97 0v247l-49 -28l-35 60l84 50v385h90v-332l137 81l36 -63l-173 -100v-220h312v-80h-402z" />
    <glyph glyph-name="lslash" unicode="&#x142;" horiz-adv-x="257" 
d="M166 425l64 44l37 -59l-101 -68v-342h-88v285l-51 -32l-36 59l87 56v392h88v-335z" />
    <glyph glyph-name="Nacute" unicode="&#x143;" horiz-adv-x="494" 
d="M268 775q0 -5 -2 -11q0 -4 -3 -7q-12 -20 -29 -41.5t-31 -31.5q-4 -4 -12 -7q-1 -1 -6 -1t-9.5 2.5t-5.5 7.5l-1 14q1 11 6.5 21t7.5 14q19 34 44 65q5 8 14 6q13 -1 22 -13q5 -7 5 -18zM115.5 390q1.5 -22 1.5 -27l-4 -74q-6 -88 -6 -131l1 -35q1 -12 1 -34
q0 -17 -3.5 -30.5t-11.5 -30.5q-2 -6 -20 -6q-10 0 -19.5 2t-13.5 6l-6 6q-6 11 -9 40q-4 23 -4 51v22q-1 22 -1 67v33l1 99l-1 45q-1 13 -1 37q0 27 4 51q2 10 4 28q2 26 6.5 43.5t15.5 28.5q5 5 15 7t14 6q13 12 32 12q14 0 27 -7t20 -20q16 -26 27 -49q5 -13 22 -61
q10 -27 11 -31q20 -59 32 -99t21 -81q3 -18 15 -47q14 -38 16 -53q3 -5 5 -5q5 0 6 3q1 2 5 8.5t4 12.5q2 22 2 66q0 63 -3 124q-4 95 -32 203q-1 8 -0.5 14t0.5 11q2 36 27 55q14 10 32 18q10 5 17 5q14 0 25 -20l16 -37q29 -68 29 -127q0 -51 2 -149l1 -74q0 -24 -10 -70
l-6 -27q-10 -48 -22 -88q-7 -27 -19.5 -45t-34.5 -36q-10 -9 -23 -9q-7 0 -10 2q-7 3 -21 7t-21 7.5t-13 12.5q-19 28 -29.5 45t-18.5 37q-30 81 -63 211q-6 26 -22 78q-2 4 -4 13t-6 16q-1 -8 0.5 -30z" />
    <glyph glyph-name="nacute" unicode="&#x144;" horiz-adv-x="428" 
d="M262 618q0 -5 -2 -11q0 -4 -3 -7q-12 -20 -29 -41.5t-31 -31.5q-4 -4 -12 -7q-1 -1 -6 -1t-9.5 2.5t-5.5 7.5l-1 14q1 11 6.5 21t7.5 14q19 34 44 65q5 8 14 6q13 -1 22 -13q5 -7 5 -18zM194 234q-5 -19 -7.5 -42t-3.5 -31q-4 -39 -9 -65t-16 -51q-18 -40 -57 -40
q-33 0 -50 42q-7 16 -14.5 38t-10.5 32l-9 26q-4 10 -4 15l-4 35q-9 59 -9 99q0 19 1 29l4 24q2 8 4 24l2 33q0 22 1 33q1 10 5 19t11 13q17 14 32 19q9 3 17 3q17 0 30 -13t20 -36q8 -28 12 -55v-7q0 -11 -1 -17l-7 -31q0 -8 3 -16q5 1 8 5t4.5 8t3.5 7q13 24 16 28l33 51
q22 38 64 56q8 4 17 4q18 0 31 -19q27 -36 30 -86q0 -5 0.5 -11t-0.5 -14q-4 -77 29 -165q9 -24 16.5 -53.5t9.5 -38.5q2 -12 2 -18q0 -20 -13 -43q-11 -19 -26 -19q-16 0 -28 22q-16 30 -25 56l-9 28q-26 73 -36 123q-6 26 -10 38q-1 3 -4 6l-5 5q-35 2 -48 -50z" />
    <glyph glyph-name="uni0145" unicode="&#x145;" horiz-adv-x="759" 
d="M281 -209q11 25 24 70.5t17 77.5h87v-9q-8 -31 -31.5 -76.5t-48.5 -74.5h-48v12zM115.5 390q1.5 -22 1.5 -27l-4 -74q-6 -88 -6 -131l1 -35q1 -12 1 -34q0 -17 -3.5 -30.5t-11.5 -30.5q-2 -6 -20 -6q-10 0 -19.5 2t-13.5 6l-6 6q-6 11 -9 40q-4 23 -4 51v22q-1 22 -1 67
v33l1 99l-1 45q-1 13 -1 37q0 27 4 51q2 10 4 28q2 26 6.5 43.5t15.5 28.5q5 5 15 7t14 6q13 12 32 12q14 0 27 -7t20 -20q16 -26 27 -49q5 -13 22 -61q10 -27 11 -31q20 -59 32 -99t21 -81q3 -18 15 -47q14 -38 16 -53q3 -5 5 -5q5 0 6 3q1 2 5 8.5t4 12.5q2 22 2 66
q0 63 -3 124q-4 95 -32 203q-1 8 -0.5 14t0.5 11q2 36 27 55q14 10 32 18q10 5 17 5q14 0 25 -20l16 -37q29 -68 29 -127q0 -51 2 -149l1 -74q0 -24 -10 -70l-6 -27q-10 -48 -22 -88q-7 -27 -19.5 -45t-34.5 -36q-10 -9 -23 -9q-7 0 -10 2q-7 3 -21 7t-21 7.5t-13 12.5
q-19 28 -29.5 45t-18.5 37q-30 81 -63 211q-6 26 -22 78q-2 4 -4 13t-6 16q-1 -8 0.5 -30z" />
    <glyph glyph-name="uni0146" unicode="&#x146;" horiz-adv-x="618" 
d="M222 -209q11 25 24 70.5t17 77.5h87v-9q-8 -31 -31.5 -76.5t-48.5 -74.5h-48v12zM194 234q-5 -19 -7.5 -42t-3.5 -31q-4 -39 -9 -65t-16 -51q-18 -40 -57 -40q-33 0 -50 42q-7 16 -14.5 38t-10.5 32l-9 26q-4 10 -4 15l-4 35q-9 59 -9 99q0 19 1 29l4 24q2 8 4 24l2 33
q0 22 1 33q1 10 5 19t11 13q17 14 32 19q9 3 17 3q17 0 30 -13t20 -36q8 -28 12 -55v-7q0 -11 -1 -17l-7 -31q0 -8 3 -16q5 1 8 5t4.5 8t3.5 7q13 24 16 28l33 51q22 38 64 56q8 4 17 4q18 0 31 -19q27 -36 30 -86q0 -5 0.5 -11t-0.5 -14q-4 -77 29 -165q9 -24 16.5 -53.5
t9.5 -38.5q2 -12 2 -18q0 -20 -13 -43q-11 -19 -26 -19q-16 0 -28 22q-16 30 -25 56l-9 28q-26 73 -36 123q-6 26 -10 38q-1 3 -4 6l-5 5q-35 2 -48 -50z" />
    <glyph glyph-name="Ncaron" unicode="&#x147;" horiz-adv-x="494" 
d="M141 810q5 8 16 8q7 0 12 -5q16 -22 22 -34q8 -22 14 -32q0 -1 2 -1h2l2 4q2 5 4.5 10.5t5.5 11.5l9 21q4 10 19 19q4 2 8 2q13 0 19 -9q4 -6 5 -11l-9 -18q-4 -14 -7 -20q-10 -22 -24 -46q-6 -12 -23 -22q-4 -2 -22 -10q-1 -1 -3 -1q-6 0 -8 4q-8 10 -10 16q-4 15 -5 20
q-6 29 -21 52l-4 6l-9 25zM115.5 390q1.5 -22 1.5 -27l-4 -74q-6 -88 -6 -131l1 -35q1 -12 1 -34q0 -17 -3.5 -30.5t-11.5 -30.5q-2 -6 -20 -6q-10 0 -19.5 2t-13.5 6l-6 6q-6 11 -9 40q-4 23 -4 51v22q-1 22 -1 67v33l1 99l-1 45q-1 13 -1 37q0 27 4 51q2 10 4 28
q2 26 6.5 43.5t15.5 28.5q5 5 15 7t14 6q13 12 32 12q14 0 27 -7t20 -20q16 -26 27 -49q5 -13 22 -61q10 -27 11 -31q20 -59 32 -99t21 -81q3 -18 15 -47q14 -38 16 -53q3 -5 5 -5q5 0 6 3q1 2 5 8.5t4 12.5q2 22 2 66q0 63 -3 124q-4 95 -32 203q-1 8 -0.5 14t0.5 11
q2 36 27 55q14 10 32 18q10 5 17 5q14 0 25 -20l16 -37q29 -68 29 -127q0 -51 2 -149l1 -74q0 -24 -10 -70l-6 -27q-10 -48 -22 -88q-7 -27 -19.5 -45t-34.5 -36q-10 -9 -23 -9q-7 0 -10 2q-7 3 -21 7t-21 7.5t-13 12.5q-19 28 -29.5 45t-18.5 37q-30 81 -63 211
q-6 26 -22 78q-2 4 -4 13t-6 16q-1 -8 0.5 -30z" />
    <glyph glyph-name="ncaron" unicode="&#x148;" horiz-adv-x="428" 
d="M146 650q5 8 16 8q7 0 12 -5q16 -22 22 -34q8 -22 14 -32q0 -1 2 -1h2l2 4q2 5 4.5 10.5t5.5 11.5l9 21q4 10 19 19q4 2 8 2q13 0 19 -9q4 -6 5 -11l-9 -18q-4 -14 -7 -20q-10 -22 -24 -46q-6 -12 -23 -22q-4 -2 -22 -10q-1 -1 -3 -1q-6 0 -8 4q-8 10 -10 16q-4 15 -5 20
q-6 29 -21 52l-4 6l-9 25zM194 234q-5 -19 -7.5 -42t-3.5 -31q-4 -39 -9 -65t-16 -51q-18 -40 -57 -40q-33 0 -50 42q-7 16 -14.5 38t-10.5 32l-9 26q-4 10 -4 15l-4 35q-9 59 -9 99q0 19 1 29l4 24q2 8 4 24l2 33q0 22 1 33q1 10 5 19t11 13q17 14 32 19q9 3 17 3
q17 0 30 -13t20 -36q8 -28 12 -55v-7q0 -11 -1 -17l-7 -31q0 -8 3 -16q5 1 8 5t4.5 8t3.5 7q13 24 16 28l33 51q22 38 64 56q8 4 17 4q18 0 31 -19q27 -36 30 -86q0 -5 0.5 -11t-0.5 -14q-4 -77 29 -165q9 -24 16.5 -53.5t9.5 -38.5q2 -12 2 -18q0 -20 -13 -43
q-11 -19 -26 -19q-16 0 -28 22q-16 30 -25 56l-9 28q-26 73 -36 123q-6 26 -10 38q-1 3 -4 6l-5 5q-35 2 -48 -50z" />
    <glyph glyph-name="napostrophe" unicode="&#x149;" horiz-adv-x="690" 
d="M145 714l7 -11q-25 -97 -86 -234h-65q34 139 50 245h94zM265 234q-5 -19 -7.5 -42t-3.5 -31q-4 -39 -9 -65t-16 -51q-18 -40 -57 -40q-33 0 -50 42q-7 16 -14.5 38t-10.5 32l-9 26q-4 10 -4 15l-4 35q-9 59 -9 99q0 19 1 29l4 24q2 8 4 24l2 33q0 22 1 33q1 10 5 19
t11 13q17 14 32 19q9 3 17 3q17 0 30 -13t20 -36q8 -28 12 -55v-7q0 -11 -1 -17l-7 -31q0 -8 3 -16q5 1 8 5t4.5 8t3.5 7q13 24 16 28l33 51q22 38 64 56q8 4 17 4q18 0 31 -19q27 -36 30 -86q0 -5 0.5 -11t-0.5 -14q-4 -77 29 -165q9 -24 16.5 -53.5t9.5 -38.5q2 -12 2 -18
q0 -20 -13 -43q-11 -19 -26 -19q-16 0 -28 22q-16 30 -25 56l-9 28q-26 73 -36 123q-6 26 -10 38q-1 3 -4 6l-5 5q-35 2 -48 -50z" />
    <glyph glyph-name="Eng" unicode="&#x14a;" horiz-adv-x="759" 
d="M475 -190q-48 0 -76 13v76q35 -10 76 -10q50 0 76.5 28.5t27.5 82.5l-403 593h-4q8 -125 8 -206v-387h-83v714h104l381 -572h4q-7 75 -7 200v372h84v-708q0 -96 -48.5 -146t-139.5 -50z" />
    <glyph glyph-name="eng" unicode="&#x14b;" horiz-adv-x="618" 
d="M394 -240q-42 0 -71 12v71q29 -10 60 -10q67 0 67 84v427q0 65 -29 96.5t-90 31.5q-83 0 -120.5 -45.5t-37.5 -147.5v-279h-88v536h71l14 -73h5q25 40 69 61.5t98 21.5q99 0 147.5 -46.5t48.5 -149.5v-430q0 -75 -35 -117.5t-109 -42.5z" />
    <glyph glyph-name="Omacron" unicode="&#x14c;" horiz-adv-x="780" 
d="M242 842h297v-71h-297v71zM181 684q19 0 38 -5.5t33 -14.5q11 -8 19 -18.5t18 -27.5q10 -18 16 -26q11 -15 25 -51q10 -24 18 -53q19 -58 20 -104q0 -36 3 -72l1 -10q0 -9 -1 -16.5t-2 -13.5q-2 -24 -2 -36q0 -5 -2 -29.5t-9 -47.5q-7 -20 -8 -26q-9 -25 -14 -44
q-10 -38 -40 -70q-35 -38 -75 -38l-11 1l-25 2q-15 0 -30 10q-73 51 -109 140q-24 61 -24 122q0 38 1.5 62t8.5 48q4 14 5.5 30t2.5 21q4 41 11 61q9 28 16 63q7 36 20 61q3 7 15 23q15 21 18 29q5 8 9 12q19 18 54 18zM171 528q-6 -5 -7 -19.5t-1 -17.5q-6 -35 -9 -68
l-2 -22q-6 -72 -13 -107q-1 -3 -0.5 -8t0.5 -8q-3 -43 7 -93q5 -31 9.5 -47t15.5 -32q3 -4 9 -4q9 0 12 5l16 28q17 29 23 61.5t6 73.5q0 118 -48 244q-6 17 -13 16q-3 0 -5 -2z" />
    <glyph glyph-name="omacron" unicode="&#x14d;" horiz-adv-x="604" 
d="M154 677h297v-71h-297v71zM94.5 511.5q1.5 7.5 3.5 12.5q5 13 17 16q16 3 34 3q42 0 75 -18q13 -6 39 -26q8 -6 11.5 -12t6.5 -13t4 -10q2 -6 5.5 -15t6.5 -21q3 -11 4 -25.5t1 -18.5q1 -14 5 -31t6 -24q3 -16 5 -49q1 -14 0.5 -24.5t-0.5 -17.5v-20q0 -25 1 -37
q4 -49 -24 -111q-6 -14 -18 -27t-14 -15q-4 -4 -14 -15t-22 -16q-14 -6 -38 -6l-34 1q-30 1 -50 15t-50 45q-11 13 -22 38t-15 33q-18 38 -18 63q0 101 1 152q2 51 20.5 99.5t56.5 55.5q3 0 7 3t7 4q1 4 2.5 11.5zM156.5 103.5q5.5 6.5 6.5 8.5q19 23 24 62q4 32 4 74
q0 32 -4 96q0 16 -2 48q0 6 -3 13t-4 10q-5 11 -17 11q-7 0 -12 -4q-46 -35 -49 -87q-3 -51 -3 -151q0 -47 35 -85q7 -7 13 -4q6 2 11.5 8.5z" />
    <glyph glyph-name="Obreve" unicode="&#x14e;" horiz-adv-x="407" 
d="M181 684q19 0 38 -5.5t33 -14.5q11 -8 19 -18.5t18 -27.5q10 -18 16 -26q11 -15 25 -51q10 -24 18 -53q19 -58 20 -104q0 -36 3 -72l1 -10q0 -9 -1 -16.5t-2 -13.5q-2 -24 -2 -36q0 -5 -2 -29.5t-9 -47.5q-7 -20 -8 -26q-9 -25 -14 -44q-10 -38 -40 -70q-35 -38 -75 -38
l-11 1l-25 2q-15 0 -30 10q-73 51 -109 140q-24 61 -24 122q0 38 1.5 62t8.5 48q4 14 5.5 30t2.5 21q4 41 11 61q9 28 16 63q7 36 20 61q3 7 15 23q15 21 18 29q5 8 9 12q19 18 54 18zM171 528q-6 -5 -7 -19.5t-1 -17.5q-6 -35 -9 -68l-2 -22q-6 -72 -13 -107q-1 -3 -0.5 -8
t0.5 -8q-3 -43 7 -93q5 -31 9.5 -47t15.5 -32q3 -4 9 -4q9 0 12 5l16 28q17 29 23 61.5t6 73.5q0 118 -48 244q-6 17 -13 16q-3 0 -5 -2zM174 754q-14 6 -24 15q-5 3 -13 11q-9 9 -9 24q0 8 1 11l8 29q2 7 4 9q2 4 9 6t14 2q6 0 14 -2q6 -3 8 -5.5t2 -7.5q0 -12 -6 -36
q-1 -2 -1 -7q0 -6 2 -9q4 -10 18 -10q14 -2 22 -1q5 0 11 4q13 8 10 22q0 3 -4 11q-7 14 -5 19q0 3 2 5q5 6 14 6q6 0 12.5 -3t8.5 -7q3 -6 4 -12.5t1 -8.5q2 -16 1 -24q0 -6 -3 -14q-5 -11 -12 -14q-24 -15 -44 -15h-16h-11q-12 0 -18 2z" />
    <glyph glyph-name="obreve" unicode="&#x14f;" horiz-adv-x="379" 
d="M94.5 511.5q1.5 7.5 3.5 12.5q5 13 17 16q16 3 34 3q42 0 75 -18q13 -6 39 -26q8 -6 11.5 -12t6.5 -13t4 -10q2 -6 5.5 -15t6.5 -21q3 -11 4 -25.5t1 -18.5q1 -14 5 -31t6 -24q3 -16 5 -49q1 -14 0.5 -24.5t-0.5 -17.5v-20q0 -25 1 -37q4 -49 -24 -111q-6 -14 -18 -27
t-14 -15q-4 -4 -14 -15t-22 -16q-14 -6 -38 -6l-34 1q-30 1 -50 15t-50 45q-11 13 -22 38t-15 33q-18 38 -18 63q0 101 1 152q2 51 20.5 99.5t56.5 55.5q3 0 7 3t7 4q1 4 2.5 11.5zM156.5 103.5q5.5 6.5 6.5 8.5q19 23 24 62q4 32 4 74q0 32 -4 96q0 16 -2 48q0 6 -3 13
t-4 10q-5 11 -17 11q-7 0 -12 -4q-46 -35 -49 -87q-3 -51 -3 -151q0 -47 35 -85q7 -7 13 -4q6 2 11.5 8.5zM130 587q-14 6 -24 15q-5 3 -13 11q-9 9 -9 24q0 8 1 11l8 29q2 7 4 9q2 4 9 6t14 2q6 0 14 -2q6 -3 8 -5.5t2 -7.5q0 -12 -6 -36q-1 -2 -1 -7q0 -6 2 -9
q4 -10 18 -10q15 -2 22 -1q5 0 11 4q13 8 10 22q0 3 -4 11q-7 14 -5 19q0 3 2 5q5 6 14 6q6 0 12.5 -3t8.5 -7q3 -6 4 -12.5t1 -8.5q2 -16 1 -24q0 -6 -3 -14q-5 -11 -12 -14q-24 -15 -44 -15h-16h-11q-12 0 -18 2z" />
    <glyph glyph-name="Ohungarumlaut" unicode="&#x150;" horiz-adv-x="407" 
d="M311 834q0 -7 -1 -10l-3 -7q-35 -53 -61 -73q-3 -3 -6 -4.5l-5 -2.5t-6 -1q-14 0 -17 10v14q1 11 6.5 21t7.5 14q25 42 44 65q5 8 14 6q13 -1 22 -13q5 -8 5 -19zM208 854q2 -6 2 -9q0 -5 -2 -11q-7 -15 -9 -19q-2 -3 -3.5 -10.5t-3.5 -11.5l-12 -22q-3 -7 -12 -17
q-6 -7 -14.5 -11.5t-16.5 -3.5q-11 2 -16 13q-1 1 -1 4q0 4 1 6.5t2 4.5l4 8q5 6 8 16q5 14 13 30.5t11 24.5q5 11 14 16q3 3 7 3q7 1 14 0q11 -2 14 -11zM171 528q-6 -5 -7 -19.5t-1 -17.5q-6 -35 -9 -68l-2 -22q-6 -72 -13 -107q-1 -3 -0.5 -8t0.5 -8q-3 -43 7 -93
q5 -31 9.5 -47t15.5 -32q3 -4 9 -4q9 0 12 5l16 28q17 29 23 61.5t6 73.5q0 118 -48 244q-6 17 -13 16q-3 0 -5 -2zM181 684q19 0 38 -5.5t33 -14.5q11 -8 19 -18.5t18 -27.5q10 -18 16 -26q11 -15 25 -51q10 -24 18 -53q19 -58 20 -104q0 -36 3 -72l1 -10q0 -9 -1 -16.5
t-2 -13.5q-2 -24 -2 -36q0 -5 -2 -29.5t-9 -47.5q-7 -20 -8 -26q-9 -25 -14 -44q-10 -38 -40 -70q-35 -38 -75 -38l-11 1l-25 2q-15 0 -30 10q-73 51 -109 140q-24 61 -24 122q0 38 1.5 62t8.5 48q4 14 5.5 30t2.5 21q4 41 11 61q9 28 16 63q7 36 20 61q3 7 15 23
q15 21 18 29q5 8 9 12q19 18 54 18z" />
    <glyph glyph-name="ohungarumlaut" unicode="&#x151;" horiz-adv-x="379" 
d="M258 688q0 -7 -1 -10l-3 -7q-35 -53 -61 -73q-3 -3 -6 -4.5l-5 -2.5t-6 -1q-14 0 -17 10v14q1 11 6.5 21t7.5 14q25 42 44 65q5 8 14 6q13 -1 22 -13q5 -8 5 -19zM155 708q2 -6 2 -9q0 -5 -2 -11q-7 -15 -9 -19q-2 -3 -3.5 -10.5t-3.5 -11.5l-12 -22q-3 -6 -12 -17
q-6 -7 -14.5 -11.5t-16.5 -3.5q-11 2 -16 13q-1 1 -1 4q0 4 1 6.5t2 4.5l4 8q5 6 8 16q5 14 13 30.5t11 24.5q5 11 14 16q3 3 7 3q7 1 14 0q11 -2 14 -11zM156.5 103.5q5.5 6.5 6.5 8.5q19 23 24 62q4 32 4 74q0 32 -4 96q0 16 -2 48q0 6 -3 13t-4 10q-5 11 -17 11
q-7 0 -12 -4q-46 -35 -49 -87q-3 -51 -3 -151q0 -47 35 -85q7 -7 13 -4q6 2 11.5 8.5zM94.5 511.5q1.5 7.5 3.5 12.5q5 13 17 16q16 3 34 3q42 0 75 -18q13 -6 39 -26q8 -6 11.5 -12t6.5 -13t4 -10q2 -6 5.5 -15t6.5 -21q3 -11 4 -25.5t1 -18.5q1 -14 5 -31t6 -24
q3 -16 5 -49q1 -14 0.5 -24.5t-0.5 -17.5v-20q0 -25 1 -37q4 -49 -24 -111q-6 -14 -18 -27t-14 -15q-4 -4 -14 -15t-22 -16q-14 -6 -38 -6l-34 1q-30 1 -50 15t-50 45q-11 13 -22 38t-15 33q-18 38 -18 63q0 101 1 152q2 51 20.5 99.5t56.5 55.5q3 0 7 3t7 4q1 4 2.5 11.5z
" />
    <glyph glyph-name="OE" unicode="&#x152;" horiz-adv-x="659" 
d="M626 119q0 -12 -6.5 -25.5t-20.5 -32.5q-46 -60 -118 -84q-14 -4 -21 -4q-6 0 -14 2q-97 22 -136 63q-15 -18 -16 -19q-35 -38 -75 -38l-11 1l-25 2q-15 0 -30 10q-73 53 -109 140q-24 60 -24 127q0 36 1.5 59t8.5 46q4 14 5.5 30t2.5 21q4 41 11 61q10 29 16 64
q7 35 20 60q3 7 15 23q15 21 18 29q5 8 9 12q19 18 54 18q19 0 38 -5.5t33 -14.5q11 -8 19 -18.5t18 -27.5q10 -18 16 -26l1 -1l33 8q39 9 80.5 19.5t75.5 23.5q23 9 47 9q9 0 23 -2q21 -3 36 -26q3 -6 3 -16q0 -14 -7 -20q-16 -14 -29 -22q-79 -47 -159 -60
q-4 -1 -9.5 -8.5t-5.5 -12.5q0 -33 1 -49q1 -10 7.5 -16.5t16.5 -7.5h18q12 0 17 -1q9 -1 25 -9q14 -7 24 -21.5t7 -22.5q-8 -33 -43 -46q-3 -1 -8.5 -2t-8.5 -1q-25 -1 -35.5 -3.5t-14.5 -9.5t-4 -23l1 -25v-99q0 -28 21 -52q8 -11 19 -11q6 0 12 3q23 14 53 48
q16 18 28.5 29.5t27.5 19.5q4 2 11 2q9 0 14 -5q43 -33 43 -63zM189 514q-6 17 -13 16q-3 0 -5 -2q-6 -5 -7 -19.5t-1 -17.5q-6 -35 -9 -68q-2 -18 -2 -26q-6 -70 -12 -103q-1 -3 -0.5 -8t-0.5 -8q-3 -43 7 -93q5 -31 9.5 -47t15.5 -32q3 -4 9 -4q9 0 12 6q6 9 16 27
q17 29 23 61.5t6 73.5q0 118 -48 244z" />
    <glyph glyph-name="oe" unicode="&#x153;" horiz-adv-x="586" 
d="M553 91q0 -10 -6 -28q-10 -33 -44 -54q-24 -13 -61 -22q-7 -2 -21 -2q-23 0 -43 10q-29 14 -53 36q-20 20 -28 30q-10 -15 -28 -33q-4 -4 -14 -15t-22 -16q-14 -6 -38 -6l-34 1q-30 1 -50.5 15.5t-49.5 44.5q-12 14 -23 39.5t-13 31.5q-19 36 -19 63q0 102 1 152
q2 51 20.5 99.5t56.5 55.5q3 0 7 3t7 4q1 4 2.5 12t3.5 13q5 12 17 15q18 3 34 3q41 0 75 -17q13 -7 39 -27q9 -7 13 -13.5t8 -18.5q10 10 20 15q38 22 78 22q21 0 36 -4t27 -16q4 -4 16 -13t17 -15q5 -7 8 -21.5t3 -26.5q-2 -26 -2 -29q0 -6 -5 -29q-9 -36 -23 -56
q-21 -27 -57 -43q-16 -8 -40 -16l-20 -8q-8 -3 -12.5 -10.5t-3.5 -14.5q11 -64 42 -100q1 -2 9 -10q4 -4 13 -4q7 0 11 3q15 11 30 24l25 21q22 20 54 17q14 -1 21 -7t9 -20q1 -5 2 -9.5t2 -9.5q3 -7 3 -16zM333 348q0 -12 2.5 -15t3.5 -4q5 -8 14 -8q2 0 8 2
q21 13 35.5 39.5t12.5 43.5q-3 10 -11 14q-3 2 -9 2q-12 0 -20 -9q-5 -7 -15 -17.5t-15 -20.5t-6 -22v-5zM197 249q0 41 -3 81q-2 42 -2 62q-1 6 -8 23q-5 11 -17 11q-7 0 -12 -4q-46 -35 -49 -87q-3 -51 -3 -151q0 -47 35 -85q7 -7 13 -4q6 2 11.5 8.5t6.5 8.5q19 23 24 62
q4 33 4 75z" />
    <glyph glyph-name="Racute" unicode="&#x154;" horiz-adv-x="447" 
d="M244 839q0 -5 -2 -11q0 -4 -3 -7q-12 -20 -29 -41.5t-31 -31.5q-4 -4 -12 -7q-1 -1 -6 -1t-9.5 2.5t-5.5 7.5l-1 14q1 11 6.5 21t7.5 14q19 34 44 65q5 8 14 6q13 -1 22 -13q5 -7 5 -18zM181 438q-1 -1 19 16q14 13 24 19q8 6 11 12q4 8 8 24v2q0 8 -5.5 14.5t-12.5 7.5
l-33 1q-28 -2 -40.5 -8t-17 -19t-4.5 -41q1 -10 0.5 -16.5t-0.5 -13.5q0 -1 1.5 -11.5t9.5 -8.5q16 5 40 22zM253 271q57 -45 72 -56q19 -13 32 -24.5t21 -27.5q7 -14 13.5 -24.5t11.5 -18.5q3 -4 3 -11q0 -10 -7 -18t-17 -9l-15 -1q-9 0 -18 3q-35 12 -59 29q-66 45 -74 50
l-37 25q-14 11 -31 11q-11 -2 -13 -9q-1 -3 -3 -10.5t-2 -13.5v-50q0 -33 -1 -50q0 -9 -4 -25q-1 -8 -12.5 -16t-19.5 -6q-51 7 -75 58q-6 12 -6 33q-2 172 -2 259q0 51 2 151l1 75q0 34 1 50l4 31q0 2 0.5 8t2.5 10t7 5q18 6 37 6t36 -7q15 -5 29 -29q8 -15 27 -15
q10 0 24.5 0.5t34.5 -0.5q45 -1 82 -28t50 -70q8 -25 12 -42t4 -35q0 -27 -9 -47.5t-31 -35.5q-42 -29 -70 -41q-29 -14 -73 -28q22 -14 72 -56z" />
    <glyph glyph-name="racute" unicode="&#x155;" horiz-adv-x="409" 
d="M253 618q0 -5 -2 -11q0 -4 -3 -7q-12 -20 -29 -41.5t-31 -31.5q-4 -4 -12 -7q-1 -1 -6 -1t-9.5 2.5t-5.5 7.5l-1 14q1 11 6.5 21t7.5 14q19 34 44 65q5 8 14 6q13 -1 22 -13q5 -7 5 -18zM305 320q-7 7 -15 21q-9 17 -17 17q-9 0 -26 -20q-51 -54 -65 -138l-6 -29
q-12 -52 -13 -80q-1 -20 -7.5 -36.5t-19.5 -45.5q-7 -13 -23 -15h-6q-10 0 -15 1q-21 2 -34 24q-2 5 -16 34t-21 60q-9 37 -10 63q-3 47 -3 93q0 61 6 187q1 15 9.5 26t19.5 13q13 2 41 2q9 0 17 -10t9 -22v-24q1 -17 1 -52v-52q0 -11 7 -9q3 0 6 3l32 52q7 12 22 25l14 15
q25 29 47 38q21 10 38 17q14 4 21 4q31 0 52 -34q7 -14 8 -21q3 -16 3 -33q0 -25 -7 -46q-4 -13 -10 -20t-19 -14q-13 -1 -20 6z" />
    <glyph glyph-name="uni0156" unicode="&#x156;" horiz-adv-x="622" 
d="M242 -209q11 25 24 70.5t17 77.5h87v-9q-8 -31 -31.5 -76.5t-48.5 -74.5h-48v12zM253 271q57 -45 72 -56q19 -13 32 -24.5t21 -27.5q7 -14 13.5 -24.5t11.5 -18.5q3 -4 3 -11q0 -10 -7 -18t-17 -9l-15 -1q-9 0 -18 3q-35 12 -59 29q-66 45 -74 50l-37 25q-14 11 -31 11
q-11 -2 -13 -9q-1 -3 -3 -10.5t-2 -13.5v-50q0 -33 -1 -50q0 -9 -4 -25q-1 -8 -12.5 -16t-19.5 -6q-51 7 -75 58q-6 12 -6 33q-2 172 -2 259q0 51 2 151l1 75q0 34 1 50l4 31q0 2 0.5 8t2.5 10t7 5q18 6 37 6t36 -7q15 -5 29 -29q8 -15 27 -15q10 0 24.5 0.5t34.5 -0.5
q45 -1 82 -28t50 -70q8 -25 12 -42t4 -35q0 -27 -9 -47.5t-31 -35.5q-42 -29 -70 -41q-29 -14 -73 -28q22 -14 72 -56zM181 438q-1 -1 19 16q14 13 24 19q8 6 11 12q4 8 8 24v2q0 8 -5.5 14.5t-12.5 7.5l-33 1q-28 -2 -40.5 -8t-17 -19t-4.5 -41q1 -10 0.5 -16.5t-0.5 -13.5
q0 -1 1.5 -11.5t9.5 -8.5q16 5 40 22z" />
    <glyph glyph-name="uni0157" unicode="&#x157;" horiz-adv-x="413" 
d="M48 -209q11 25 24 70.5t17 77.5h87v-9q-8 -31 -31.5 -76.5t-48.5 -74.5h-48v12zM305 320q-7 7 -15 21q-9 17 -17 17q-9 0 -26 -20q-51 -54 -65 -138l-6 -29q-12 -52 -13 -80q-1 -20 -7.5 -36.5t-19.5 -45.5q-7 -13 -23 -15h-6q-10 0 -15 1q-21 2 -34 24q-2 5 -16 34
t-21 60q-9 37 -10 63q-3 47 -3 93q0 61 6 187q1 15 9.5 26t19.5 13q13 2 41 2q9 0 17 -10t9 -22v-24q1 -17 1 -52v-52q0 -11 7 -9q3 0 6 3l32 52q7 12 22 25l14 15q25 29 47 38q21 10 38 17q14 4 21 4q31 0 52 -34q7 -14 8 -21q3 -16 3 -33q0 -25 -7 -46q-4 -13 -10 -20
t-19 -14q-13 -1 -20 6z" />
    <glyph glyph-name="Rcaron" unicode="&#x158;" horiz-adv-x="447" 
d="M253 271q57 -45 72 -56q19 -13 32 -24.5t21 -27.5q7 -14 13.5 -24.5t11.5 -18.5q3 -4 3 -11q0 -10 -7 -18t-17 -9l-15 -1q-9 0 -18 3q-35 12 -59 29q-66 45 -74 50l-37 25q-14 11 -31 11q-11 -2 -13 -9q-1 -3 -3 -10.5t-2 -13.5v-50q0 -33 -1 -50q0 -9 -4 -25
q-1 -8 -12.5 -16t-19.5 -6q-51 7 -75 58q-6 12 -6 33q-2 172 -2 259q0 51 2 151l1 75q0 34 1 50l4 31q0 2 0.5 8t2.5 10t7 5q18 6 37 6t36 -7q15 -5 29 -29q8 -15 27 -15q10 0 24.5 0.5t34.5 -0.5q45 -1 82 -28t50 -70q8 -25 12 -42t4 -35q0 -27 -9 -47.5t-31 -35.5
q-42 -29 -70 -41q-29 -14 -73 -28q22 -14 72 -56zM181 438q-1 -1 19 16q14 13 24 19q8 6 11 12q4 8 8 24v2q0 8 -5.5 14.5t-12.5 7.5l-33 1q-28 -2 -40.5 -8t-17 -19t-4.5 -41q1 -10 0.5 -16.5t-0.5 -13.5q0 -1 1.5 -11.5t9.5 -8.5q16 5 40 22zM125 858q5 8 16 8q7 0 12 -5
q16 -22 22 -34q8 -22 14 -32q0 -1 2 -1h2l2 4q2 5 4.5 10.5t5.5 11.5l9 21q4 10 19 19q4 2 8 2q13 0 19 -9q4 -6 5 -11l-9 -18q-4 -14 -7 -20q-10 -22 -24 -46q-6 -12 -23 -22q-4 -2 -22 -10q-1 -1 -3 -1q-6 0 -8 4q-8 10 -10 16q-4 15 -5 20q-6 29 -21 52l-4 6l-9 25z" />
    </font>
</defs>
</svg>
