<?xml version="1.0" standalone="no"?>
<!DOCTYPE svg PUBLIC "-//W3C//DTD SVG 1.1//EN" "http://www.w3.org/Graphics/SVG/1.1/DTD/svg11.dtd" >
<svg xmlns="http://www.w3.org/2000/svg" xmlns:xlink="http://www.w3.org/1999/xlink" version="1.1">
<metadata>
Created by FontForge 20190801 at Mon Feb  8 12:19:14 2021
 By root
Copyright (c) 2011-2012, Sorkin Type Co (www.sorkintype.com)with Reserved Font Name "Supermercado".
</metadata>
<defs>
<font id="Supermercado-Regular" horiz-adv-x="1023" >
  <font-face 
    font-family="Supermercado"
    font-weight="400"
    font-stretch="normal"
    units-per-em="2048"
    panose-1="2 1 6 4 3 1 0 4 8 4"
    ascent="1638"
    descent="-410"
    x-height="1066"
    cap-height="1359"
    bbox="-436 -526 2384 2142"
    underline-thickness="181"
    underline-position="-174"
    unicode-range="U+0001-206F"
  />
<missing-glyph horiz-adv-x="748" 
d="M68 0v1365h544v-1365h-544zM136 68h408v1229h-408v-1229z" />
    <glyph glyph-name=".notdef" horiz-adv-x="748" 
d="M68 0v1365h544v-1365h-544zM136 68h408v1229h-408v-1229z" />
    <glyph glyph-name="uni0000" horiz-adv-x="513" 
 />
    <glyph glyph-name="uni0000" horiz-adv-x="513" 
 />
    <glyph glyph-name="uni000D" unicode="&#xd;" horiz-adv-x="513" 
 />
    <glyph glyph-name="uni0001" horiz-adv-x="513" 
 />
    <glyph glyph-name="uni0002" horiz-adv-x="513" 
 />
    <glyph glyph-name="uni0003" horiz-adv-x="513" 
 />
    <glyph glyph-name="uni0004" horiz-adv-x="513" 
 />
    <glyph glyph-name="uni0005" horiz-adv-x="513" 
 />
    <glyph glyph-name="uni0006" horiz-adv-x="513" 
 />
    <glyph glyph-name="uni0007" horiz-adv-x="513" 
 />
    <glyph glyph-name="uni0008" horiz-adv-x="513" 
 />
    <glyph glyph-name="uni0009" unicode="&#x9;" horiz-adv-x="513" 
 />
    <glyph glyph-name="uni000A" unicode="&#xa;" horiz-adv-x="513" 
 />
    <glyph glyph-name="uni000B" horiz-adv-x="513" 
 />
    <glyph glyph-name="uni000C" horiz-adv-x="513" 
 />
    <glyph glyph-name="uni000E" horiz-adv-x="513" 
 />
    <glyph glyph-name="uni000F" horiz-adv-x="513" 
 />
    <glyph glyph-name="uni0010" horiz-adv-x="513" 
 />
    <glyph glyph-name="uni0011" horiz-adv-x="513" 
 />
    <glyph glyph-name="uni0012" horiz-adv-x="513" 
 />
    <glyph glyph-name="uni0013" horiz-adv-x="513" 
 />
    <glyph glyph-name="uni0014" horiz-adv-x="513" 
 />
    <glyph glyph-name="uni0015" horiz-adv-x="513" 
 />
    <glyph glyph-name="uni0016" horiz-adv-x="513" 
 />
    <glyph glyph-name="uni0017" horiz-adv-x="513" 
 />
    <glyph glyph-name="uni0018" horiz-adv-x="513" 
 />
    <glyph glyph-name="uni0019" horiz-adv-x="513" 
 />
    <glyph glyph-name="uni001A" horiz-adv-x="513" 
 />
    <glyph glyph-name="uni001B" horiz-adv-x="513" 
 />
    <glyph glyph-name="uni001C" horiz-adv-x="513" 
 />
    <glyph glyph-name="uni001D" horiz-adv-x="513" 
 />
    <glyph glyph-name="uni001E" horiz-adv-x="513" 
 />
    <glyph glyph-name="uni001F" horiz-adv-x="513" 
 />
    <glyph glyph-name="space" unicode=" " horiz-adv-x="513" 
 />
    <glyph glyph-name="exclam" unicode="!" horiz-adv-x="513" 
d="M113 1182q-11 132 76 180q30 17 74 17t75.5 -17t51.5 -44q40 -55 33 -136l-59 -660q-4 -39 -31.5 -66.5t-67.5 -27.5t-66 27t-30 67zM265 248q55 0 94 -40q41 -40 41 -81t-11 -65t-30 -42q-39 -40 -94 -40t-94 40q-41 40 -41 80q0 68 40 108t95 40z" />
    <glyph glyph-name="quotedbl" unicode="&#x22;" horiz-adv-x="1026" 
d="M179 1178q-6 24 -6 48t10 49t28 44q38 40 81 40t68 -11t43 -30q40 -39 40 -96q0 -22 -4 -44l-49 -301q-5 -32 -27 -55.5t-56 -23.5t-55 23.5t-26 55.5zM588 1178q-6 24 -6 48t10 49t28 44q38 40 81 40t68 -11t43 -30q40 -39 40 -96q0 -22 -4 -44l-49 -301
q-5 -32 -27 -55.5t-56 -23.5t-55 23.5t-26 55.5z" />
    <glyph glyph-name="numbersign" unicode="#" 
d="M545 429h-140l-43 -369q-5 -38 -34 -61t-57.5 -19t-44 13t-26.5 23q-23 31 -19 65l41 348h-124q-35 0 -54 19q-34 34 -34 71.5t25.5 64t62.5 26.5h145l20 169h-119q-35 0 -54 19q-34 34 -34 71.5t25.5 64t62.5 26.5h140l40 338q4 39 26 56q39 29 67.5 25.5t44 -12.5
t26.5 -23q22 -30 18 -67l-38 -317h139l40 338q4 39 26 56q39 29 67.5 25.5t44 -12.5t25.5 -23q23 -30 19 -67l-38 -317h114q35 0 55 -20q33 -33 33 -70.5t-25.5 -64t-62.5 -26.5h-135l-20 -169h109q35 0 55 -20q33 -33 33 -70.5t-25.5 -64t-62.5 -26.5h-131l-43 -369
q-5 -38 -34 -61t-57.5 -19t-44 13t-25.5 23q-24 31 -20 65zM427 610h139l20 169h-139z" />
    <glyph glyph-name="dollar" unicode="$" 
d="M570 1319h134q37 0 63.5 -26.5t26.5 -54t-7 -44t-19 -28.5q-29 -27 -64 -27h-134v-315l65 -19q99 -29 161 -109q66 -85 66 -200v-160q0 -125 -75 -202t-217 -91v-68q0 -27 -16 -44.5t-40 -17t-40 17t-16 41.5v68h-164q-37 0 -63.5 26.5t-26.5 54t7 44t19 28.5
q29 27 64 27h164v405l-91 26q-144 41 -191 182q-15 45 -15 96v94q0 124 77 201.5t220 91.5v83q0 24 16.5 40.5t40.5 16.5t39.5 -16.5t15.5 -39.5v-81zM570 226q76 23 76 112v144q0 74 -76 110v-366zM377 958q0 -40 18.5 -64t62.5 -38v277q-35 -12 -58 -43t-23 -70v-62z" />
    <glyph glyph-name="percent" unicode="%" horiz-adv-x="1698" 
d="M1036 1361q24 56 83 56q52 0 79 -41q14 -23 14 -45t-8 -41l-556 -1309q-23 -55 -81 -55q-52 0 -79 42q-15 24 -15 46.5t7 37.5zM148 1147q0 106 72 169t208 63q200 0 261 -137q19 -43 19 -96v-269q0 -107 -72.5 -169t-206.5 -62t-207.5 62.5t-73.5 171.5v267zM521 1143
q0 39 -27 66.5t-66.5 27.5t-66.5 -27.5t-27 -66.5v-270q0 -41 27 -62.5t66.5 -21.5t66.5 21.5t27 62.5v270zM989 482q0 106 72 169t208 63q200 0 261 -137q19 -43 19 -96v-269q0 -107 -72.5 -169t-206.5 -62t-207.5 62.5t-73.5 171.5v267zM1362 478q0 39 -27 66.5
t-66.5 27.5t-66.5 -27.5t-27 -66.5v-270q0 -41 27 -62.5t66.5 -21.5t66.5 21.5t27 62.5v270z" />
    <glyph glyph-name="ampersand" unicode="&#x26;" horiz-adv-x="1193" 
d="M852 423q36 -55 36 -125t-24.5 -124.5t-71.5 -93.5q-97 -80 -269 -80q-263 0 -342 172q-25 55 -25 124v253q0 142 96 212q30 22 68 40q-74 40 -100 81q-48 73 -48 171v32q0 135 92 213q96 81 263 81q160 0 253 -79q90 -77 92 -212v-15q0 -49 -25 -74q-44 -44 -92 -44
q-49 0 -75 25q-43 44 -43 93v15q-2 47 -25 70q-41 41 -75.5 41t-56 -9t-37.5 -25q-34 -34 -34 -84v-62q0 -69 64 -105q17 -9 44.5 -15t53 -31t25.5 -66.5t-25.5 -67t-54 -31.5t-49 -15.5t-37.5 -24.5q-38 -35 -38 -80v-296q0 -76 80 -99q24 -7 53.5 -7t56.5 9t47 25
q42 34 42 75.5t-13 62.5t-29 40q-42 50 -42 84t9 55t25 37q34 34 84 34h145q44 0 68 27q40 45 40 92v64q0 50 26 74q44 43 81 43t58.5 -9t36.5 -25q35 -36 35 -83v-67q0 -122 -87 -209t-209 -87h-47z" />
    <glyph glyph-name="quotesingle" unicode="'" horiz-adv-x="513" 
d="M128 1178q-6 24 -6 48t10 49t28 44q38 40 81 40t68 -11t43 -30q40 -39 40 -96q0 -22 -4 -44l-49 -301q-5 -32 -27 -55.5t-56 -23.5t-55 23.5t-26 55.5z" />
    <glyph glyph-name="parenleft" unicode="(" 
d="M530 375q0 -273 108 -427q30 -42 54 -66q37 -40 37 -70t-7 -47t-20 -30q-28 -28 -58 -28t-55 11.5t-56.5 36t-64.5 63.5t-65 93t-57 123q-54 155 -54 346v507q0 354 176 562q94 111 168 111q40 0 66.5 -27.5t26.5 -55.5q0 -51 -30.5 -83.5t-60.5 -75t-54 -101.5
q-54 -133 -54 -325v-517z" />
    <glyph glyph-name="parenright" unicode=")" 
d="M491 375q0 -273 -108 -427q-30 -42 -54 -66q-37 -40 -37 -70t7 -47t20 -30q28 -28 58 -28t55 11.5t56.5 36t64.5 63.5t65 93t57 123q54 155 54 346v507q0 354 -176 562q-94 111 -168 111q-40 0 -66.5 -27.5t-26.5 -55.5q0 -51 30.5 -83.5t60.5 -75t54 -101.5
q54 -133 54 -325v-517z" />
    <glyph glyph-name="asterisk" unicode="*" horiz-adv-x="808" 
d="M477 1139l85 44q30 17 60 17q64 0 85 -61q6 -18 6 -44.5t-28.5 -50.5t-66.5 -30l-90 -14l69 -68q39 -39 39 -70q0 -56 -31.5 -78.5t-60.5 -22.5q-59 0 -91 66l-44 86l-44 -87q-33 -67 -92 -67q-28 0 -50 17q-41 30 -41 62q0 54 39 93l66 66l-95 15q-65 11 -88 56
q-8 15 -8 33t8 42t31 39t51.5 15t60.5 -16l82 -42l-15 96q-11 81 42 113q18 11 45.5 11t46.5 -11t30 -28q23 -34 14 -85z" />
    <glyph glyph-name="plus" unicode="+" 
d="M545.5 172q-16.5 -7 -35 -7t-35 7t-29.5 19q-26 25 -26 62v272h-238q-35 0 -54 19q-34 34 -34 62t7 44.5t19 29.5q25 26 62 26h238v263q0 35 20 55q33 33 61 33t44.5 -7t28.5 -19q27 -25 27 -62v-263h239q35 0 54 -20q34 -33 34 -61t-7 -44.5t-19 -28.5q-25 -27 -62 -27
h-239v-272q0 -35 -19.5 -54.5t-36 -26.5z" />
    <glyph glyph-name="comma" unicode="," horiz-adv-x="513" 
d="M206 -62q0 43 -30 70q-55 48 -55 108q0 55 39 94q38 38 86 38t77.5 -18t48.5 -46q35 -55 35 -136q0 -155 -88 -247q-54 -52 -89 -52t-54 21t-19 44t7.5 37t17.5 27q24 34 24 60z" />
    <glyph glyph-name="hyphen" unicode="-" 
d="M911 650.5q7 -16.5 7 -35t-7 -35t-19 -28.5q-25 -27 -62 -27h-638q-35 0 -54 19q-34 34 -34 62t7 44.5t19 29.5q25 26 62 26h638q35 0 54.5 -19.5t26.5 -36z" />
    <glyph glyph-name="period" unicode="." horiz-adv-x="513" 
d="M257 248q55 0 95 -40t40 -81t-11 -65t-29 -42q-40 -40 -95 -40t-95 40t-40 80q0 68 40 108t95 40z" />
    <glyph glyph-name="slash" unicode="/" 
d="M663 1470q10 38 42.5 56.5t69.5 8.5t55.5 -42t8.5 -70l-461 -1715q-9 -37 -41 -55.5t-59.5 -11t-42 19t-23.5 26.5q-19 34 -9 68z" />
    <glyph glyph-name="zero" unicode="0" 
d="M156 1085q0 135 92 213q96 81 263 81q166 0 261 -81q94 -79 94 -215v-809q0 -209 -204 -272q-66 -21 -150.5 -21t-150.5 20.5t-111 58.5q-94 80 -94 217v808zM629 1080q0 50 -25 75q-44 44 -93 44t-75 -25q-43 -44 -43 -94v-812q0 -51 33.5 -78.5t84 -27.5t84.5 27.5
t34 78.5v812z" />
    <glyph glyph-name="one" unicode="1" horiz-adv-x="678" 
d="M13 1233.5q-7 16.5 -7 44.5t25.5 54.5t62.5 26.5h274q38 0 63.5 -26.5t25.5 -63.5v-1172q0 -48 -25 -73q-44 -44 -81 -44t-59 9.5t-38 24.5q-35 34 -35 83v1081h-125q-35 0 -54.5 19.5t-26.5 36z" />
    <glyph glyph-name="two" unicode="2" 
d="M526 1359q160 0 253 -111q83 -100 83 -251q0 -168 -122 -319q-37 -45 -80 -93l-159 -178q-60 -66 -76 -100q-27 -56 -27 -126h372q35 0 54 -19q34 -34 34 -71.5t-25.5 -64t-62.5 -26.5h-491q-49 0 -75 26q-43 43 -43 94v2q0 154 33.5 230t77.5 135.5t114 135.5l174 189
q32 34 53.5 87.5t21.5 102t-13.5 81t-35.5 53.5q-44 42 -104 42h-196q-36 0 -56 20q-34 34 -34 71t26.5 63.5t63.5 26.5h240z" />
    <glyph glyph-name="three" unicode="3" 
d="M569 854q28 15 69.5 15t80 -21.5t67.5 -60.5q60 -83 60 -214v-279q0 -129 -87 -208q-95 -86 -268 -86h-238q-35 0 -55 20q-33 33 -33 70.5t25.5 64t62.5 26.5h238q49 0 75 25q43 44 43 94v270q0 64 -23 93q-39 46 -71 46t-47.5 -8.5t-29.5 -18.5q-36 -27 -60.5 -27
t-41.5 7.5t-30 20.5q-27 27 -27 52q0 40 17 65l265 378h-348q-35 0 -55 20q-33 33 -33 70.5t25.5 64t62.5 26.5h528q45 0 75 -28t30 -57q0 -51 -18 -74z" />
    <glyph glyph-name="four" unicode="4" 
d="M989 364q0 -60 -56 -84q-16 -7 -35 -7h-60v-176q0 -48 -25 -73q-44 -44 -81 -44t-59 9.5t-38 24.5q-35 34 -35 83v176h-410q-52 0 -79 53q-18 33 -7 71l267 893q11 39 43.5 62t60.5 23t56 -9t49.5 -40.5t21.5 -60.5t-6 -48l-254 -764h258v341q0 49 25 76q43 44 95 44
q50 0 74 -26q44 -45 44 -94v-341h60q37 0 57 -19q34 -32 34 -70z" />
    <glyph glyph-name="five" unicode="5" 
d="M146 1239q0 79 72 111q21 9 46 9h501q37 0 62.5 -26.5t25.5 -54.5t-7 -44.5t-19 -28.5q-27 -27 -62 -27h-391v-328q0 -19 10.5 -25.5t20.5 -6.5t18 8.5t27 27.5q59 57 166 57t180 -87q71 -87 71 -209v-321q0 -129 -87 -208q-95 -86 -268 -86h-241q-35 0 -55 20
q-33 33 -33 70.5t25.5 64t62.5 26.5h241q49 0 74 25q44 44 44 94v312q0 76 -80 110q-23 9 -59 9t-65.5 -21.5t-44 -52.5t-46 -49.5t-61.5 -18.5t-52.5 10t-39.5 27q-36 36 -36 87v526z" />
    <glyph glyph-name="six" unicode="6" 
d="M644 1359q37 0 63.5 -26.5t26.5 -54t-7 -44t-19 -28.5q-29 -27 -64 -27h-78q-68 0 -118 -57q-55 -62 -55 -175v-88q0 -19 10.5 -25.5t20.5 -6.5t18 9l17 16q68 68 156 68q107 0 179 -88q72 -86 72 -208v-349q0 -135 -92 -213q-96 -81 -263 -81q-166 0 -261 81
q-94 79 -94 215v660q0 175 92 292q103 130 284 130h112zM629 621q0 50 -25 75q-44 44 -80.5 44t-57.5 -7.5t-38 -21.5q-35 -30 -35 -78v-353q0 -50 25 -75q44 -44 93 -44t75 25q43 44 43 94v341z" />
    <glyph glyph-name="seven" unicode="7" horiz-adv-x="855" 
d="M447 65q-11 -39 -43.5 -62t-60.5 -23t-56 9t-49.5 40.5t-21.5 60t6 48.5l335 1041h-357q-37 0 -57 19q-34 32 -34 70q0 60 55 84q17 7 36 7h497q54 0 83 -39q26 -38 14 -84z" />
    <glyph glyph-name="eight" unicode="8" 
d="M718 710q155 -60 155 -223v-210q0 -137 -97 -216.5t-265 -79.5t-265 79.5t-97 216.5v210q0 163 154 223q-69 39 -96 80q-46 72 -46 169v124q0 136 93 215q94 81 257 81t257 -81q93 -79 93 -215v-124q0 -139 -85 -209q-26 -22 -58 -40zM638 507q0 49 -27 75
q-47 44 -101 44q-53 0 -81 -26q-47 -42 -47 -93v-240q0 -51 36.5 -78.5t91 -27.5t91.5 27.5t37 78.5v240zM623 1080q0 78 -67 110q-21 9 -59 9t-69 -34.5t-31 -84.5v-187q0 -51 33 -78.5t68 -27.5t55.5 7t36.5 20q33 30 33 79v187z" />
    <glyph glyph-name="nine" unicode="9" 
d="M456 0q-37 0 -63.5 26.5t-26.5 54t7 44t19 28.5q29 27 62 27t64 16t56 48q55 70 55 198v78q0 19 -10.5 25.5t-20.5 6.5t-18 -8l-17 -17q-68 -68 -156 -68q-107 0 -179 87t-72 209v330q0 135 92 213q96 81 263 81q166 0 261 -81q94 -79 94 -215v-631q0 -187 -92 -312
q-104 -140 -284 -140h-34zM393 758q0 -50 25 -75q44 -44 80.5 -44t57.5 7.5t38 21.5q35 30 35 78v334q0 50 -25 75q-44 44 -93 44t-75 -25q-43 -44 -43 -94v-322z" />
    <glyph glyph-name="colon" unicode=":" horiz-adv-x="513" 
d="M257 248q55 0 95 -40t40 -81t-11 -65t-29 -42q-40 -40 -95 -40t-95 40t-40 80q0 68 40 108t95 40zM257 1085q55 0 95 -40t40 -81t-11 -65t-29 -42q-40 -40 -95 -40t-95 40t-40 80q0 68 40 108t95 40z" />
    <glyph glyph-name="semicolon" unicode=";" horiz-adv-x="513" 
d="M257 1085q55 0 95 -40t40 -81t-11 -65t-29 -42q-40 -40 -95 -40t-95 40t-40 80q0 68 40 108t95 40zM206 -62q0 43 -30 70q-55 48 -55 108q0 55 39 94q38 38 86 38t77.5 -18t48.5 -46q35 -55 35 -136q0 -155 -88 -247q-54 -52 -89 -52t-54 21t-19 44t7.5 37t17.5 27
q24 34 24 60z" />
    <glyph glyph-name="less" unicode="&#x3c;" 
d="M852 238q-22 -12 -45.5 -12t-42.5 12l-637 367q-43 24 -43 81q0 49 43 74l637 367q19 12 42 12q54 0 79 -46q13 -22 13 -46q0 -51 -43 -76l-501 -289l501 -288q43 -25 43 -77.5t-46 -78.5z" />
    <glyph glyph-name="equal" unicode="=" 
d="M911 469.5q7 -16.5 7 -35t-7 -35t-19 -29.5q-25 -26 -62 -26h-638q-35 0 -54 20q-34 33 -34 61t7 44.5t19 28.5q25 27 62 27h638q35 0 54.5 -19.5t26.5 -36zM911 831.5q7 -16.5 7 -35t-7 -35t-19 -29.5q-25 -26 -62 -26h-638q-35 0 -54 20q-34 33 -34 61t7 44.5t19 28.5
q25 27 62 27h638q35 0 54.5 -19.5t26.5 -36z" />
    <glyph glyph-name="greater" unicode="&#x3e;" 
d="M172 238q22 -12 45.5 -12t42.5 12l637 367q43 24 43 81q0 49 -43 74l-637 367q-19 12 -42 12q-54 0 -79 -46q-13 -22 -13 -46q0 -51 43 -76l501 -289l-501 -288q-43 -25 -43 -77.5t46 -78.5z" />
    <glyph glyph-name="question" unicode="?" horiz-adv-x="1026" 
d="M287 599q0 192 215 309l62 33q62 32 62 96v22q0 49 -26 75q-44 44 -93 44h-256q-35 0 -56 20q-34 32 -34 69.5t26.5 64t63.5 26.5h258q165 0 261 -80q92 -79 92 -216v-34q0 -165 -206 -278l-46 -26q-63 -35 -88 -96q-9 -21 -9 -42v-27q0 -46 -24 -70q-41 -41 -76.5 -41
t-56.5 9t-36 24q-33 33 -33 78v40zM399 249q55 0 95 -39q40 -41 40 -82t-11 -65t-29 -43q-40 -39 -95 -39t-95 39q-40 41 -40 82q0 67 40 107t95 40z" />
    <glyph glyph-name="at" unicode="@" horiz-adv-x="1698" 
d="M1121.5 -195.5q16.5 -16.5 16.5 -40.5t-16.5 -39.5t-39.5 -15.5h-242q-292 0 -458 115q-164 114 -164 311v891q0 198 161 312q165 117 460 117q301 0 472 -117q169 -117 169 -314v-744q0 -102 -64 -164q-62 -61 -178.5 -61t-180.5 77q-8 9 -15 9q-15 0 -21 -9
q-64 -77 -197 -77q-109 0 -184 61q-76 64 -76 167v574q0 93 63 160t147 67q86 0 146 -65q5 -6 15 -6q13 0 18 12t11 20.5t16 16.5q24 22 51 22t45 -7t32 -19q32 -29 32 -66v-717q0 -43 40 -75q38 -30 75 -30t60.5 25t23.5 70v759q0 147 -133 233q-133 87 -370 87
q-227 0 -354 -86q-124 -85 -124 -232v-876q0 -153 126 -240q128 -88 353 -88l245 -1q23 0 39.5 -16.5zM948 863q0 37 -24 54q-39 29 -68.5 29t-45.5 -7t-28 -19q-26 -28 -26 -66v-579q0 -39 26.5 -60t54.5 -21t46.5 5t32.5 15q32 23 32 61v588z" />
    <glyph glyph-name="A" unicode="A" horiz-adv-x="1193" 
d="M427 1148q0 30 -29 30h-116q-45 0 -68 -26q-40 -45 -40 -92v-57q0 -78 -73 -108q-22 -9 -46.5 -9t-46 9t-36.5 25q-35 34 -35 83v60q0 122 87 209t209 87h456q166 0 261 -81q94 -79 94 -215v-965q0 -76 -72 -108q-21 -9 -45.5 -9t-46.5 9.5t-38 25.5q-35 33 -35 82v335
h-237v-335q0 -48 -26 -74q-43 -43 -80 -43t-59 9.5t-38 25.5q-34 32 -34 82v335h-72q-35 0 -55 19q-33 34 -33 71.5t25.5 64t62.5 26.5h72v341q0 95 85 175q9 8 9 18zM570 614h237v445q0 50 -25 75q-44 44 -81.5 44t-59 -9.5t-37.5 -25.5q-34 -34 -34 -83v-446z" />
    <glyph glyph-name="B" unicode="B" horiz-adv-x="1191" 
d="M231 0q-37 0 -57 19q-34 32 -34 60.5t7 45t19 29.5q28 27 65 27h102v774q0 95 85 175q9 8 9 17.5t-6.5 20t-25.5 10.5h-112q-45 0 -68 -26q-40 -45 -40 -92v-57q0 -78 -73 -108q-22 -9 -46.5 -9t-46 9t-37.5 25q-34 34 -34 83v60q0 122 87 209t209 87h463q236 0 317 -162
q28 -56 28 -134v-211q0 -165 -162 -226q67 -39 93 -80q46 -71 46 -166v-84q0 -123 -86 -209q-87 -87 -209 -87h-493zM570 722h119q76 0 107 72q10 21 10 47v220q0 47 -25 73q-42 44 -81.5 44t-61.5 -9.5t-37 -26.5q-31 -34 -31 -81v-339zM664 181q49 0 74 25q45 45 45 94
v124q0 49 -25 74q-44 44 -94 44h-94v-361h94z" />
    <glyph glyph-name="C" unicode="C" horiz-adv-x="1026" 
d="M646 1027.5q13 21.5 13 49.5t-10 49.5t-28 37.5q-39 35 -99 35t-94.5 -34.5t-34.5 -84.5v-812q0 -51 33.5 -78.5t84 -27.5t84.5 27.5t34 78.5v65q0 50 25 75q43 43 80 43t59 -9t38 -25q35 -35 35 -84v-59q0 -209 -204 -272q-66 -21 -150.5 -21t-150.5 20.5t-111 58.5
q-94 80 -94 217v808q0 135 92 213q96 81 263 81q172 0 269 -81q96 -79 96 -214q0 -211 -108 -285q-33 -23 -66.5 -23t-55 9t-37.5 25q-34 32 -34 73t13 62.5t29 41t29 41z" />
    <glyph glyph-name="D" unicode="D" horiz-adv-x="1193" 
d="M174 1003q0 -78 -73 -108q-22 -9 -46.5 -9t-46 9t-37.5 25q-34 32 -34 83v60q0 122 87 209t209 87h513q122 0 209 -87q86 -86 86 -209v-767q0 -123 -86 -209q-87 -87 -209 -87h-525q-37 0 -57 19q-34 32 -34 60.5t7 45t19 29.5q28 27 65 27h112v775q0 95 85 175
q9 8 9 17.5t-6.5 20t-25.5 10.5h-113q-44 0 -68 -27q-40 -45 -40 -92v-57zM570 181h119q47 0 73 25q43 41 43 92v762q0 50 -25 75q-44 44 -81 44t-59 -9.5t-38 -25.5q-32 -34 -32 -83v-880z" />
    <glyph glyph-name="E" unicode="E" horiz-adv-x="1024" 
d="M520 1379q86 0 154 -20t114 -59q96 -79 96 -216q0 -211 -108 -285q-33 -23 -66.5 -23t-55 9t-37.5 25q-34 32 -34 73t13 62.5t29 40.5q42 52 42 101t-37.5 80t-100.5 31t-102 -27.5t-39 -78.5v-307q0 -49 25 -75q42 -44 92 -44h18q38 0 63.5 -26.5t25.5 -64t-25.5 -63.5
t-57 -26t-53 -9t-37.5 -25q-34 -34 -34 -84v-70q0 -50 25 -75q43 -43 93 -43q45 0 68 24q42 44 42 80t9 57.5t25 37.5q35 35 84 35q48 0 73 -26q44 -43 44 -101.5t-23.5 -113t-67.5 -93.5q-92 -80 -254 -80q-167 0 -263 80q-92 79 -92 214v30q0 136 84 208q25 22 57 40
q-86 34 -121.5 89.5t-35.5 134.5v287q0 137 97 216.5t271 79.5z" />
    <glyph glyph-name="F" unicode="F" horiz-adv-x="1025" 
d="M543 1149q0 30 -29 30h-115q-44 0 -68 -27q-40 -45 -40 -92v-57q0 -78 -73 -108q-22 -9 -46.5 -9t-46 9t-37.5 25q-34 34 -34 83v60q0 122 87 209t209 87h586q38 0 63.5 -26.5t25.5 -54.5t-7 -44.5t-19 -28.5q-26 -26 -63 -26h-141q-45 0 -69 -25q-41 -44 -41 -93v-350
h192q37 0 57 -19q34 -32 34 -60.5t-7 -45t-19 -28.5q-27 -27 -65 -27h-192v-235q0 -123 -86 -209q-87 -87 -209 -87h-116q-38 0 -64 26t-26 63.5t26 64.5t64 27h57q49 0 75 25q43 41 43 92v233h-44q-37 0 -57 19q-34 32 -34 60.5t7 45t19 28.5q27 27 65 27h44v245
q0 95 85 175q9 8 9 18z" />
    <glyph glyph-name="G" unicode="G" horiz-adv-x="1022" 
d="M646 1027.5q13 21.5 13 49.5t-10 49.5t-28 37.5q-39 35 -99 35t-94.5 -34.5t-34.5 -84.5v-812q0 -51 34 -78.5t84 -27.5t84 27.5t34 78.5v172q0 50 25 75q43 43 80 43t59 -9t38 -25q35 -35 35 -84v-583q0 -123 -86 -209q-87 -87 -208 -87h-118q-38 0 -64 26t-26 63.5
t26 64.5t64 27h57q49 0 75 24q43 42 43 93v182q0 19 -10.5 25.5t-20.5 6.5t-18 -9l-17 -16q-68 -68 -156 -68q-107 0 -179 88q-72 86 -72 208v809q0 135 92 213q96 81 263 81q172 0 269 -81q96 -79 96 -214q0 -211 -108 -285q-33 -23 -66.5 -23t-55 9t-37.5 25
q-34 32 -34 73t13 62.5t29 41t29 41z" />
    <glyph glyph-name="H" unicode="H" horiz-adv-x="1364" 
d="M309 488.5q-7 16.5 -7 44.5t25.5 54.5t62.5 26.5h70v565h-45q-51 0 -82.5 -33t-31.5 -86v-57q0 -78 -73 -108q-22 -9 -46.5 -9t-46 9t-37.5 25q-34 34 -34 83v60q0 123 88 209q88 87 208 87h218q49 0 74 -25q44 -44 44 -95v-625h239v625q0 79 71 111q22 9 47.5 9
t46.5 -9.5t37 -25.5q34 -34 34 -85v-1122q0 -75 -71 -107q-21 -10 -46.5 -10t-47 9.5t-37.5 24.5q-34 33 -34 83v316h-239v-137q0 -123 -86 -209q-87 -87 -209 -87h-116q-38 0 -64 26t-26 63.5t26 64.5t64 27h57q49 0 75 25q43 41 43 92v135h-70q-35 0 -54.5 19.5t-26.5 36z
" />
    <glyph glyph-name="I" unicode="I" horiz-adv-x="855" 
d="M267 1003q0 -78 -73 -108q-22 -9 -46.5 -9t-46 9t-37.5 25q-34 34 -34 83v60q0 123 88 209q88 87 208 87h218q49 0 74 -25q44 -44 44 -95v-943q0 -123 -86 -209q-87 -87 -209 -87h-116q-38 0 -64 26t-26 63.5t26 64.5t64 27h57q49 0 75 25q43 41 43 92v881h-45
q-48 0 -73 -26q-41 -44 -41 -93v-57z" />
    <glyph glyph-name="J" unicode="J" horiz-adv-x="855" 
d="M436 1179h-31q-50 0 -75 -25q-44 -44 -44 -94v-57q0 -78 -73 -108q-22 -9 -46.5 -9t-46 9t-36.5 25q-35 34 -35 83v60q0 123 87 209q89 87 209 87h209q49 0 74 -25q44 -44 44 -95v-1417q0 -122 -87 -209t-210 -87h-156q-58 0 -83 54q-7 17 -7 36q0 36 19 57q33 34 71 34
h98q50 0 75 25q44 44 44 92v1355z" />
    <glyph glyph-name="K" unicode="K" horiz-adv-x="1360" 
d="M1003 634q148 -58 148 -220v-29q0 -233 105 -368q32 -42 60 -73q44 -49 44 -91q0 -66 -60 -92q-19 -8 -36 -8q-61 0 -129 62t-113 142q-109 191 -109 468q0 49 -25 75q-42 44 -92 44h-117v-446q0 -48 -25 -74q-44 -43 -81 -43t-59 9.5t-38 25.5q-35 33 -35 82v1081h-52
q-44 0 -68 -27q-40 -45 -40 -92v-57q0 -78 -73 -108q-22 -9 -46.5 -9t-46 9t-37.5 25q-34 34 -34 83v60q0 122 87 209t209 87h221q50 0 74 -25q44 -46 44 -95v-515h116q48 0 73 26q44 43 44 94v395q0 49 26 76q42 44 94 44q50 0 74 -25q44 -46 44 -95v-353q0 -141 -87 -212
q-27 -22 -60 -40z" />
    <glyph glyph-name="L" unicode="L" horiz-adv-x="1025" 
d="M360 210q0 -30 29 -30h249q44 0 67 26q41 45 41 81t9 57t25 37q36 34 73 34t58.5 -9t37.5 -25q34 -34 34 -90t-23.5 -110t-63.5 -94q-87 -87 -209 -87h-589q-35 0 -54 20q-34 33 -34 70.5t25.5 64t56.5 26.5t52.5 8.5t37.5 23.5q34 32 34 80v770q0 123 88 209
q88 87 208 87h146q59 0 83 -55q7 -17 7 -45t-26 -54t-64 -26h-86q-50 0 -76 -25q-43 -44 -43 -94v-658q0 -88 -68 -156q-25 -22 -25 -36z" />
    <glyph glyph-name="M" unicode="M" horiz-adv-x="1706" 
d="M185 1003q0 -78 -73 -108q-22 -9 -46.5 -9t-46 9t-37.5 25q-34 34 -34 83v60q0 123 88 209q88 87 208 87h218q64 0 101 -57q11 -16 23.5 -16t21.5 8l17 17q55 48 97 58t87.5 10t96.5 -29t89 -77q9 -11 21 -11q20 0 41.5 32.5t70.5 58.5t113 26t116.5 -23.5t90.5 -63.5
q83 -86 83 -209v-985q0 -76 -72 -108q-22 -9 -46.5 -9t-46 9.5t-36.5 25.5q-35 34 -35 82v982q0 49 -25 74q-45 45 -82.5 45t-58.5 -9.5t-37 -25.5q-36 -36 -36 -82v-984q0 -76 -72 -108q-21 -9 -45.5 -9t-46.5 9.5t-38 25.5q-35 33 -35 82v982q0 49 -25 74q-45 45 -93 45
q-49 0 -75 -23q-46 -42 -46 -97v-783q0 -123 -86 -209q-87 -87 -209 -87h-86q-38 0 -64 26t-26 63.5t26 64.5t64 27h27q49 0 75 25q43 41 43 92v881h-45q-48 -2 -72 -27q-42 -44 -42 -92v-57z" />
    <glyph glyph-name="N" unicode="N" horiz-adv-x="1193" 
d="M192 1003q0 -78 -73 -108q-22 -9 -46.5 -9t-46 9t-36.5 25q-35 34 -35 83v60q0 123 87 209q89 87 209 87h200q59 0 95 -49q15 -24 28.5 -24t21.5 8l18 17q73 68 168 68q108 0 186 -87q76 -86 76 -209l1 -985q0 -76 -71 -108q-22 -9 -46.5 -9t-46.5 9.5t-38 25.5
q-35 33 -35 82l-1 982q0 50 -25 75q-44 44 -92 44t-74 -23q-47 -42 -47 -89v-791q0 -123 -86 -209q-87 -87 -209 -87h-86q-38 0 -64 26t-26 63.5t26 64.5t64 27h27q49 0 75 25q43 41 43 92v881h-27q-48 -2 -72 -27q-42 -44 -42 -92v-57z" />
    <glyph glyph-name="O" unicode="O" horiz-adv-x="1022" 
d="M373 1126.5q-10 -21.5 -10 -49.5t13 -49.5t29 -41.5q42 -51 42 -84.5t-9 -55t-25 -36.5q-35 -34 -80.5 -34t-79 23t-57.5 63q-50 85 -50 222q0 135 96 214q97 81 269 81q167 0 263 -81q92 -78 92 -213v-808q0 -137 -94 -217q-93 -79 -261 -79t-263 79q-92 77 -92 214v326
q0 49 26 74q43 44 80.5 44t59 -9t37.5 -25q34 -34 34 -84v-332q0 -51 34 -78.5t84.5 -27.5t84 27.5t33.5 78.5v812q0 50 -34.5 84.5t-79 34.5t-70.5 -9.5t-44 -25.5t-28 -37.5z" />
    <glyph glyph-name="P" unicode="P" horiz-adv-x="1193" 
d="M-54 1063q0 122 87 209t209 87h523q121 0 206 -87q83 -85 83 -209v-293q0 -124 -86 -210t-209 -86h-180v-376q0 -76 -71 -108q-22 -9 -46.5 -9t-46.5 9.5t-38 25.5q-35 33 -35 82v858q0 95 86 175q8 8 8 17.5t-6.5 20t-25.5 10.5h-113q-44 0 -68 -27q-40 -45 -40 -92v-57
q0 -78 -73 -108q-22 -9 -46.5 -9t-46 9t-37.5 25q-34 34 -34 83v60zM579 652h122q49 0 73 26q44 45 44 94v288q0 48 -25 74q-42 45 -80 45t-60.5 -9.5t-38.5 -25.5q-35 -33 -35 -83v-409z" />
    <glyph glyph-name="Q" unicode="Q" horiz-adv-x="1022" 
d="M773 211q0 -30 29 -30h64q57 0 82 -55q8 -17 8 -36q0 -59 -56 -83q-16 -7 -34 -7h-616q-35 0 -54 20q-34 33 -34 70.5t25.5 64t62.5 26.5h261q48 0 83 26t35 75v798q0 50 -25 75q-44 44 -82 44t-61.5 -9.5t-40.5 -25.5q-37 -33 -37 -84v-412q0 -42 29 -77.5t42 -57
t13 -49.5t-9 -49.5t-25 -36.5q-35 -34 -84 -34q-88 0 -140.5 79.5t-52.5 228.5v413q0 135 92 213q96 81 263 81q166 0 261 -81q94 -79 94 -215v-680q0 -88 -68 -156l-16 -17q-9 -8 -9 -19z" />
    <glyph glyph-name="R" unicode="R" horiz-adv-x="1191" 
d="M888 634q148 -58 148 -220v-29q0 -233 105 -371q32 -42 61 -72q44 -46 44 -88q0 -40 -22 -63q-36 -38 -71 -38t-66.5 15t-83 62t-97.5 127q-108 191 -108 468q0 49 -25 75q-42 44 -92 44h-118v-446q0 -76 -71 -108q-22 -9 -46.5 -9t-46.5 9.5t-38 25.5q-35 33 -35 82v858
q0 92 68 157l18 18q8 9 8 18t-6.5 19.5t-25.5 10.5h-113q-44 0 -68 -27q-40 -45 -40 -92v-57q0 -78 -73 -108q-22 -9 -46.5 -9t-46 9t-37.5 25q-34 34 -34 83v60q0 122 87 209t209 87h519q120 0 205 -87q84 -86 84 -209l1 -177q2 -174 -147 -252zM563 724h117q49 0 74 26
q44 43 44 94v216q0 48 -25 74q-42 45 -93.5 44.5t-84 -34.5t-32.5 -83v-337z" />
    <glyph glyph-name="S" unicode="S" horiz-adv-x="1026" 
d="M609 1032.5q13 19.5 13 46t-9.5 48t-26.5 37.5q-39 35 -83 35t-70.5 -13t-46.5 -37q-42 -50 -42 -136q0 -112 67 -199q20 -26 43 -44l227 -182q139 -116 139 -276q0 -132 -97 -224q-94 -88 -219 -88h-141q-37 0 -64 26t-27 54t7.5 44.5t20.5 29.5q27 27 63 27h84
q61 0 98 31.5t37 74.5q0 71 -63 128l-171 140q-122 99 -172 186q-56 99 -56 254q0 181 99 283q97 101 271 101q163 0 256 -81.5t93 -223.5q0 -120 -50 -198q-51 -80 -133 -80q-49 0 -75 24q-43 42 -43 81.5t13 58.5t29 36t29 36.5z" />
    <glyph glyph-name="T" unicode="T" horiz-adv-x="855" 
d="M500 956q0 95 86 175q8 8 8 17.5t-6.5 20t-25.5 10.5h-218q-44 0 -68 -27q-40 -45 -40 -92v-57q0 -78 -73 -108q-22 -9 -46.5 -9t-46 9t-36.5 25q-35 34 -35 83v60q0 122 87 209t209 87h551q38 0 63.5 -26.5t25.5 -54.5t-7 -44.5t-19 -28.5q-26 -26 -56 -26t-50 -9.5
t-35 -25.5q-32 -34 -32 -83v-765q0 -123 -86 -209q-87 -87 -209 -87h-116q-38 0 -64 26t-26 63.5t26 64.5t64 27h57q49 0 75 25q43 41 43 92v658z" />
    <glyph glyph-name="U" unicode="U" horiz-adv-x="1362" 
d="M1007.5 1369.5q21.5 9.5 46 9.5t46 -9.5t37.5 -25.5q35 -33 35 -82v-1161q0 -49 -26 -76q-65 -67 -138 -36q-41 17 -62 60q-12 25 -26 25t-22 -8l-18 -17q-28 -26 -64 -47t-91.5 -21t-103.5 23.5t-83 63.5q-77 86 -77 209v902h-46q-48 0 -73 -26q-41 -44 -41 -93v-57
q0 -78 -73 -108q-22 -9 -46.5 -9t-46 9t-37.5 25q-34 32 -34 83v60q0 122 87 209t209 87h218q49 0 75 -25q45 -43 45 -92v-962q0 -50 25 -75q44 -44 92 -44q79 0 110 62q10 20 10 45v994q0 49 25.5 73.5t47 34z" />
    <glyph glyph-name="V" unicode="V" horiz-adv-x="1193" 
d="M173 1003q0 -78 -73 -108q-22 -9 -46.5 -9t-46 9t-37.5 25q-34 34 -34 83v60q0 123 88 209q88 87 208 87h208q43 0 79.5 -23.5t45.5 -67.5l97 -465q7 -35 18.5 -87.5t23.5 -117.5q27 -138 43 -287q26 245 80 489l101 468q8 40 40 62q57 38 101 27t68 -42.5t24 -61.5
t-4 -45l-286 -1130q-11 -42 -43.5 -69.5t-68 -27.5t-56 8t-37.5 21q-35 29 -45 71l-279 1098h-55q-48 0 -73 -26q-41 -44 -41 -93v-57z" />
    <glyph glyph-name="W" unicode="W" horiz-adv-x="1706" 
d="M1287 1259q0 49 25 76q43 44 95 44q50 0 74 -25q43 -45 43 -95l-1 -985q0 -133 -93 -214q-90 -79 -232 -79q-159 0 -243 100q-11 12 -23 12t-23 -12q-84 -100 -244 -100q-142 0 -231 79q-94 83 -94 217v902h-43q-48 0 -73 -26q-41 -44 -41 -93v-57q0 -78 -73 -108
q-22 -9 -46.5 -9t-46 9t-37.5 25q-34 34 -34 83v60q0 123 88 209q88 87 208 87h218q50 0 74 -25q43 -45 43 -95v-971q0 -51 33.5 -78.5t83 -27.5t84.5 26.5t35 79.5v991q0 49 25 76q43 44 95 44q50 0 74 -25q43 -45 43 -95v-991q0 -53 34 -79.5t84 -26.5t84 27.5t34 78.5z
" />
    <glyph glyph-name="X" unicode="X" horiz-adv-x="1192" 
d="M332 484q0 160 148 220q-74 40 -100 81q-48 73 -48 171v223h-46q-48 0 -73 -26q-41 -44 -41 -93v-57q0 -78 -73 -108q-22 -9 -46.5 -9t-46 9t-36.5 25q-35 34 -35 83v60q0 123 87 209q89 87 209 87h218q50 0 75 -25q44 -44 44 -95v-327q0 -50 25 -75q43 -43 97 -43
q75 0 106 72q10 21 10 46v347q0 79 72 111q21 9 46.5 9t46.5 -9.5t37 -25.5q34 -34 34 -85v-303q0 -140 -88 -212q-27 -22 -60 -40q148 -60 148 -220v-386q0 -75 -71 -108q-21 -9 -46.5 -9t-47 9.5t-37.5 25.5q-34 32 -34 82v397q0 49 -24 75q-43 44 -80.5 44t-59.5 -9
t-38 -25q-36 -34 -36 -85v-397q0 -76 -72 -108q-22 -9 -47 -9q-49 0 -74 25q-43 43 -43 92v386z" />
    <glyph glyph-name="Y" unicode="Y" horiz-adv-x="1361" 
d="M1005.5 1369.5q21.5 9.5 46 9.5t46.5 -9.5t38 -25.5q35 -33 35 -82v-966q0 -122 -89 -209q-88 -87 -210 -87h-177q-38 0 -64.5 26t-26.5 64t26.5 64.5t64.5 26.5h118q79 0 111 71q9 22 9 46v137q0 19 -10.5 25.5t-20.5 6.5t-18 -9l-17 -16q-68 -68 -158 -68
q-107 0 -179 87q-71 86 -71 209v509h-44q-48 0 -73 -26q-41 -44 -41 -93v-57q0 -78 -73 -108q-22 -9 -46.5 -9t-46 9t-37.5 25q-34 34 -34 83v60q0 123 88 209q88 87 208 87h217q48 0 74 -25q45 -43 45 -92v-569q0 -49 26 -75q44 -44 80.5 -44t57.5 7.5t38 21.5q35 30 35 78
v601q0 49 25.5 73.5t47 34z" />
    <glyph glyph-name="Z" unicode="Z" horiz-adv-x="1026" 
d="M649 0q-85 0 -158 68l-17 17q-9 8 -22 8q-16 0 -27 -25q-34 -68 -108 -68q-50 0 -74 26q-44 45 -44 84.5t14 65.5l434 1003h-204q-44 0 -68 -27q-40 -45 -40 -92v-57q0 -78 -73 -108q-22 -9 -46.5 -9t-46 9t-37.5 25q-34 34 -34 83v60q0 122 87 209t209 87h62
q85 0 158 -68l18 -17q8 -8 20 -8q17 0 28 25q34 68 108 68q50 0 74 -25q44 -46 44 -86t-14 -65l-435 -1003h361q58 0 84 -56q7 -16 7 -44t-27 -54t-64 -26h-169z" />
    <glyph glyph-name="bracketleft" unicode="[" 
d="M730 -145.5q7 -16.5 7 -44.5t-25.5 -54.5t-62.5 -26.5h-274q-38 0 -63.5 26.5t-25.5 63.5v1631q0 37 25.5 63.5t63.5 26.5h274q37 0 62.5 -26.5t25.5 -54.5t-7 -44.5t-19 -28.5q-27 -27 -62 -27h-125v-1449h125q35 0 54.5 -19.5t26.5 -36z" />
    <glyph glyph-name="backslash" unicode="\" 
d="M379 1470q-10 38 -42.5 56.5t-69.5 8.5t-55.5 -42t-8.5 -70l461 -1715q9 -37 41 -55.5t59.5 -11t42 19t23.5 26.5q19 34 9 68z" />
    <glyph glyph-name="bracketright" unicode="]" 
d="M292 -145.5q-7 -16.5 -7 -44.5t25.5 -54.5t62.5 -26.5h274q38 0 63.5 26.5t25.5 63.5v1631q0 37 -25.5 63.5t-63.5 26.5h-274q-37 0 -62.5 -26.5t-25.5 -54.5t7 -44.5t19 -28.5q27 -27 62 -27h125v-1449h-125q-35 0 -54.5 -19.5t-26.5 -36z" />
    <glyph glyph-name="asciicircum" unicode="^" 
d="M904 732q9 -20 9 -40q0 -46 -38 -67q-20 -12 -41 -12q-43 0 -71 39l-252 365l-251 -365q-28 -39 -60.5 -39t-51.5 11q-38 23 -38 68q0 20 9 40l250 536q52 110 138 110q97 0 147 -110z" />
    <glyph glyph-name="underscore" unicode="_" horiz-adv-x="1530" 
d="M-2 -252q-27 0 -43 16t-15.5 40t17 40t41.5 16h1533q24 0 40.5 -16.5t16.5 -40.5t-17 -39.5t-40 -15.5h-1533z" />
    <glyph glyph-name="grave" unicode="`" horiz-adv-x="1767" 
d="M974 1289q17 -23 17 -48.5t-13 -39.5q-22 -22 -48 -22t-50 16l-220 154q-63 43 -63 113q0 44 25 70q42 41 79 41q68 0 116 -66z" />
    <glyph glyph-name="a" unicode="a" 
d="M244 975q0 60 56 84q16 7 35 7h236q122 0 209 -87t87 -209v-673q0 -76 -72 -107q-22 -10 -48 -10t-44.5 8.5t-31.5 19.5q-11 10 -22 28.5t-17 27.5t-19 9t-21 -9l-16 -17q-67 -67 -157 -67q-107 0 -185 88q-78 87 -78 208v138q0 122 87 209q86 86 209 86h178v58
q0 50 -25 75q-44 44 -93 44h-177q-37 0 -57 19q-34 32 -34 70zM393 278q0 -51 25 -75q44 -42 81 -42t58.5 7t37.5 20q35 28 35 74v268h-118q-51 0 -76 -25q-43 -43 -43 -93v-134z" />
    <glyph glyph-name="b" unicode="b" 
d="M156 1419q0 77 72 109q22 10 47 10t46.5 -9.5t37.5 -25.5q35 -35 35 -84v-394q0 -19 10.5 -25.5t20 -6.5t17.5 8.5t26 26.5q59 59 149 59q106 0 179 -87q71 -87 71 -211v-494q0 -121 -87 -208t-208 -87h-296q-50 0 -76 25q-44 42 -44 94v1300zM630 788q0 76 -72 108
q-21 9 -58 9t-70 -31t-36 -78v-616h118q50 0 75 25q43 43 43 94v489z" />
    <glyph glyph-name="c" unicode="c" 
d="M621 853q-43 53 -105 53q-54 0 -80 -26q-43 -43 -43 -93v-489q0 -51 25 -75q44 -42 93 -42h246q59 0 83 -57q7 -16 7 -34.5t-7 -35t-19 -28.5q-26 -26 -64 -26h-305q-122 0 -209 87t-87 209v496q0 129 87 208q95 86 268 86q233 0 311 -108q25 -33 25 -66.5t-9 -55
t-25 -37.5q-34 -34 -77 -34q-70 0 -115 68z" />
    <glyph glyph-name="d" unicode="d" 
d="M867 97q0 -76 -72 -107q-22 -10 -48 -10t-45 8t-32 18q-18 16 -25.5 31t-13.5 25.5t-18 10.5t-21 -9l-18 -17q-65 -67 -155 -67q-108 0 -186 88q-77 86 -77 208v494q0 122 87 209t209 87h178v354q0 50 25 75q43 43 93 43q51 0 76 -25q43 -43 43 -93v-1323zM393 267
q0 -51 33.5 -78.5t71 -27.5t59 7t37.5 20q36 28 36 74v624h-119q-49 0 -75 -26q-43 -43 -43 -93v-500z" />
    <glyph glyph-name="e" unicode="e" 
d="M752 154q26 -27 26 -64.5t-26 -63.5t-64 -26h-236q-122 0 -209 87t-87 209v491q0 136 92 217q96 82 264 82q166 0 262 -82q93 -82 93 -219v-280q0 -50 -25 -75q-43 -43 -94 -43h-355v-89q0 -51 25 -75q44 -42 93 -42h177q38 0 64 -27zM630 787q0 50 -25 75q-44 44 -93 44
q-50 0 -76 -26q-43 -43 -43 -93v-225h237v225z" />
    <glyph glyph-name="f" unicode="f" horiz-adv-x="850" 
d="M524 97q0 -49 -25 -74q-43 -43 -93 -43q-48 0 -74 25q-44 42 -44 92v793h-76q-57 0 -81 54q-7 16 -7 34q0 57 54 81q16 7 34 7h76v175q0 125 86 211t209 86h112q58 0 82 -56q7 -16 7 -44t-25.5 -53.5t-63.5 -25.5h-53q-48 0 -74 -25q-44 -45 -44 -95v-173h154
q35 0 54 -19q32 -32 32 -69q0 -57 -52 -81q-16 -7 -34 -7h-154v-793z" />
    <glyph glyph-name="g" unicode="g" 
d="M867 -178q0 -123 -87 -209q-89 -87 -210 -87h-177q-38 0 -64.5 26t-26.5 64t26.5 64.5t64.5 26.5h118q50 0 75 25q43 43 43 92v217q0 19 -10.5 25.5t-20.5 6.5t-18 -9l-17 -16q-68 -68 -156 -68q-107 0 -179 88q-72 86 -72 208v494q0 122 87 209t209 87h295q79 0 111 -73
q9 -22 9 -47v-1124zM393 279q0 -50 25 -75q44 -44 80.5 -44t57.5 7.5t38 21.5q35 30 35 78v619h-118q-49 0 -75 -26q-43 -43 -43 -93v-488z" />
    <glyph glyph-name="h" unicode="h" 
d="M321.5 -10.5q-21.5 -9.5 -46 -9.5t-46.5 9t-38 25q-35 35 -35 83v1323q0 49 26 74q43 44 80.5 44t59 -9t37.5 -25q35 -35 35 -84v-395q0 -19 10.5 -25.5t20.5 -6.5t19 9l16 16q68 68 157 68q108 0 179 -88q71 -87 71 -208v-693q0 -76 -71 -107q-22 -10 -46.5 -10t-46.5 9
t-38 25q-35 35 -35 83v690q0 50 -25 75q-44 44 -80.5 44t-57.5 -7.5t-37 -21.5q-36 -30 -36 -78v-702q0 -49 -25.5 -73.5t-47 -34z" />
    <glyph glyph-name="i" unicode="i" horiz-adv-x="678" 
d="M219 966q0 49 25 76q43 44 95 44q50 0 74 -26q44 -45 44 -94v-869q0 -48 -25 -73q-44 -44 -81 -44t-59 9.5t-38 24.5q-35 34 -35 83v869zM339 1538q55 0 95 -40t40 -81t-11 -65t-29 -42q-40 -40 -95 -40t-95 40t-40 80q0 68 40 108t95 40z" />
    <glyph glyph-name="j" unicode="j" horiz-adv-x="684" 
d="M220 966q0 50 25 76q42 44 93 44t75 -26q43 -44 43 -94v-1144q0 -124 -86 -209q-89 -87 -210 -87h-116q-58 0 -82 54q-8 17 -8 36q0 36 20 57q32 34 70 34h58q50 0 75 25q43 43 43 92v1142zM214.5 1349q-10.5 24 -10.5 51.5t10.5 52t29.5 43.5q39 39 80.5 39t66 -10.5
t43.5 -28.5q39 -40 39 -81.5t-10.5 -65.5t-28.5 -43q-40 -39 -81.5 -39t-66 10.5t-43 29t-29 42.5z" />
    <glyph glyph-name="k" unicode="k" 
d="M687 602q178 -72 178 -265v-240q0 -49 -25 -73q-68 -66 -140 -34q-73 31 -73 107v237q0 50 -25 75q-44 44 -92 44h-116v-356q0 -48 -26 -73q-43 -44 -80 -44t-59 9.5t-38 24.5q-35 34 -35 83v1321q0 49 26 76q42 44 94 44q50 0 74 -26q44 -45 44 -94v-785h72l188 388
q14 32 44 49.5t61 17.5t59 -14.5t44.5 -43.5t16.5 -60.5t-14 -56.5z" />
    <glyph glyph-name="l" unicode="l" horiz-adv-x="678" 
d="M437 298q0 -51 25 -75q44 -42 93 -42h10q37 0 57 -20q34 -34 34 -62t-7 -44.5t-19 -28.5q-28 -26 -65 -26h-69q-122 0 -209 87t-87 209v1124q0 50 25 75q43 43 93 43q51 0 76 -25q43 -43 43 -93v-1122z" />
    <glyph glyph-name="m" unicode="m" horiz-adv-x="1535" 
d="M339.5 -10.5q-21.5 -9.5 -46 -9.5t-46 9t-37.5 25q-35 35 -35 83v869q0 49 25 76q43 44 81.5 44t57.5 -8t32 -20q17 -15 25.5 -32t14 -25t18 -8t21.5 8l17 17q73 68 146 68q129 0 213 -106q8 -11 20 -11q21 0 42.5 32.5t69.5 58.5t112 26t116.5 -23.5t91.5 -64.5
q82 -86 82 -208v-693q0 -76 -72 -107q-22 -10 -46.5 -10t-46 9t-37.5 25q-34 36 -34 83v690q0 50 -25 75q-44 44 -81 44t-58 -9.5t-38 -26.5q-35 -35 -35 -81v-692q0 -76 -71 -107q-22 -10 -46.5 -10t-46.5 9t-38 25q-35 35 -35 83v690q0 50 -25 75q-44 44 -92 44
q-80 0 -111 -62q-10 -20 -10 -45v-702q0 -49 -25.5 -73.5t-47 -34z" />
    <glyph glyph-name="n" unicode="n" 
d="M320.5 -10.5q-21.5 -9.5 -46 -9.5t-46 9t-37.5 25q-35 35 -35 83v869q0 49 26 76q42 44 80.5 44t57 -8.5t31.5 -19.5q19 -16 26.5 -32.5t13.5 -24.5t18.5 -8t20.5 8.5t26 26.5q60 58 131.5 58t119.5 -23.5t83 -64.5q77 -87 77 -208v-693q0 -76 -71 -107
q-22 -10 -46.5 -10t-46.5 9t-38 25q-35 35 -35 83v690q0 49 -24 75q-43 44 -92 44q-80 0 -111 -62q-10 -20 -10 -45v-702q0 -49 -25.5 -73.5t-47 -34z" />
    <glyph glyph-name="o" unicode="o" 
d="M156 792q0 135 92 214q96 80 264 80q166 0 262 -80q93 -80 93 -216v-517q0 -209 -204 -273q-66 -20 -150.5 -20t-150.5 20.5t-112 59.5q-94 78 -94 216v516zM630 787q0 50 -25 75q-44 44 -93 44q-50 0 -76 -26q-43 -43 -43 -93v-520q0 -51 34 -78.5t84.5 -27.5t84.5 27.5
t34 78.5v520z" />
    <glyph glyph-name="p" unicode="p" 
d="M156 966q0 50 25 76q42 44 81 44t58 -8.5t32 -19.5q16 -13 24 -31t14.5 -26t18.5 -8t20 8.5t26 26.5q60 58 131.5 58t119 -23.5t83.5 -64.5q78 -87 78 -208v-494q0 -123 -87 -209q-89 -87 -210 -87h-177v-356q0 -50 -25 -75q-43 -43 -94 -43q-50 0 -75 25q-43 43 -43 93
v1322zM629 799q0 49 -33.5 78t-71 29t-59 -7.5t-37.5 -20.5q-35 -30 -35 -74v-623h118q49 0 75 25q43 41 43 92v501z" />
    <glyph glyph-name="q" unicode="q" 
d="M794 -465q-22 -9 -46.5 -9t-46 9t-37.5 25q-35 35 -35 84v397q0 19 -10.5 25.5t-20.5 6.5t-18 -9l-17 -16q-68 -68 -156 -68q-107 0 -179 88q-72 86 -72 208v494q0 122 87 209t209 87h295q79 0 111 -73q9 -22 9 -47v-1302q0 -49 -25.5 -74.5t-47.5 -34.5zM393 279
q0 -50 25 -75q44 -44 80.5 -44t57.5 7.5t38 21.5q35 30 35 78v619h-118q-49 0 -75 -26q-43 -43 -43 -93v-488z" />
    <glyph glyph-name="r" unicode="r" horiz-adv-x="852" 
d="M620 1086q25 0 49 -7t45 -22q48 -35 48 -97q0 -50 -26 -75q-45 -43 -84 -43q-50 0 -91 32q-32 21 -72 21t-63 -25.5t-23 -64.5v-707q0 -48 -25 -74q-45 -44 -81.5 -44t-58 9.5t-37.5 25.5q-35 35 -35 83v868q0 49 26 76q42 44 80.5 44t57.5 -8.5t32 -19.5
q18 -16 26 -32.5t13.5 -24.5t18 -8t20.5 8l18 17q78 68 162 68z" />
    <glyph glyph-name="s" unicode="s" 
d="M223 26q-27 26 -27 54t7.5 44.5t20.5 29.5q27 27 63 27h221q61 0 98 34.5t37 85.5t-28 82.5t-69 44.5l-180 50q-93 28 -148 104q-56 77 -56 163t25.5 142t68.5 96q89 83 220 83h244q38 0 63 -26.5t25 -64.5t-25 -63.5t-63 -25.5h-225q-51 0 -79.5 -30t-28.5 -71
q0 -64 71 -96l196 -57q158 -53 210 -200q17 -50 17 -115t-26.5 -124t-70.5 -102q-93 -91 -219 -91h-278q-37 0 -64 26z" />
    <glyph glyph-name="t" unicode="t" horiz-adv-x="849" 
d="M734 154q25 -27 25 -64.5t-25 -63.5t-63 -26h-120q-122 0 -209 87q-86 86 -86 209v594h-118q-57 0 -81 54q-7 16 -7 34q0 57 54 81q16 7 34 7h118v208q0 79 72 110q21 10 46 10q49 0 74 -26q44 -43 44 -94v-208h181q35 0 54 -19q32 -32 32 -68.5t-25 -62.5t-61 -26h-181
v-592q0 -50 26 -74q44 -43 92 -43h61q38 0 63 -27z" />
    <glyph glyph-name="u" unicode="u" 
d="M702.5 1076.5q21.5 9.5 46 9.5t46 -9t37.5 -25q35 -35 35 -83v-869q0 -49 -25 -76q-43 -44 -81.5 -44t-57.5 8.5t-31 19.5q-19 16 -26.5 32.5t-13.5 24.5t-18.5 8t-20.5 -8.5t-26 -26.5q-60 -58 -131.5 -58t-119.5 23.5t-84 64.5q-76 87 -76 208v693q0 76 72 107
q21 10 45.5 10t46.5 -9t38 -25q35 -35 35 -83v-690q0 -50 25 -75q44 -44 92 -44q79 0 110 62q10 20 10 45v702q0 49 25.5 73.5t47 34z" />
    <glyph glyph-name="v" unicode="v" 
d="M104 945q-4 13 -4 32.5t8.5 39.5t22.5 35q30 34 62.5 34t51.5 -6t35 -16q36 -24 44 -62l60 -224q9 -38 24 -90l34 -116q46 -164 73 -301q17 85 35 161q44 185 60 247l89 323q12 57 78 78q19 6 40.5 6t41.5 -9.5t34 -25.5q30 -34 30 -64t-4 -42l-282 -867
q-12 -41 -44 -69.5t-67.5 -28.5t-56 8t-37.5 22q-32 28 -45 71z" />
    <glyph glyph-name="w" unicode="w" horiz-adv-x="1535" 
d="M1123 966q0 49 25 76q43 44 95 44q50 0 74 -26q43 -44 43 -94v-693q0 -133 -92 -214q-91 -79 -233 -79q-162 0 -244 100q-26 22 -46 0q-84 -100 -244 -100q-141 0 -232 80q-94 82 -94 216v690q0 49 25 76q43 44 95 44q50 0 74 -26q43 -44 43 -94v-699q0 -51 34 -78.5
t83.5 -27.5t84.5 26.5t35 79.5v698q0 49 25 76q43 44 95 44q50 0 74 -25q43 -45 43 -95v-698q0 -53 34.5 -79.5t84.5 -26.5t84 27.5t34 78.5v699z" />
    <glyph glyph-name="x" unicode="x" 
d="M157 342q0 160 148 220q-74 40 -100 81q-48 73 -48 171v152q0 50 25 76q42 44 92 44t76 -26q43 -43 43 -94v-196q0 -49 25 -75q41 -43 96 -43q75 0 106 72q10 21 10 46v196q0 79 72 110q21 10 46.5 10t46.5 -9.5t37 -25.5q34 -34 34 -85v-152q0 -140 -88 -212
q-27 -22 -60 -40q148 -60 148 -220v-245q0 -49 -25 -74q-43 -43 -80.5 -43t-59 9t-37.5 25q-34 34 -34 83v256q0 49 -24 75q-43 44 -80.5 44t-59.5 -9t-38 -25q-35 -33 -35 -85v-256q0 -49 -25 -74q-43 -43 -94 -43t-75 25q-42 44 -42 92v245z" />
    <glyph glyph-name="y" unicode="y" 
d="M701.5 1076.5q21.5 9.5 46 9.5t46.5 -9t38 -25q35 -35 35 -83v-1147q0 -123 -87 -209q-89 -87 -211 -87h-177q-38 0 -64.5 26t-26.5 64t26.5 64.5t64.5 26.5h118q51 0 76 25q43 43 43 92v217q0 19 -10.5 25.5t-20.5 6.5t-18 -9l-17 -16q-68 -68 -157 -68q-108 0 -179 88
q-71 87 -71 208v693q0 76 72 107q21 10 45.5 10t46.5 -9t38 -25q35 -35 35 -83v-690q0 -49 25 -75q42 -44 79 -44t58.5 7.5t38.5 21.5q35 30 35 78v702q0 49 25.5 73.5t47 34z" />
    <glyph glyph-name="z" unicode="z" horiz-adv-x="854" 
d="M80 975q0 60 56 84q16 7 35 7h466q53 0 89 -36q35 -35 35 -73.5t-17 -66.5l-405 -709h331q36 0 56 -20q35 -35 35 -72t-27 -63t-64 -26h-481q-82 0 -113 74q-8 20 -8 38q0 36 17 64l405 710h-319q-37 0 -57 19q-34 32 -34 70z" />
    <glyph glyph-name="braceleft" unicode="{" 
d="M193.5 701.5q25.5 26.5 52.5 31t44.5 13.5t31.5 24q33 35 33 82v234q0 187 93 312q103 140 283 140h34q37 0 63.5 -26.5t26.5 -54t-7 -44t-20 -28.5q-28 -27 -61.5 -27t-64 -16t-55.5 -48q-55 -70 -55 -198v-210q0 -140 -88 -212q-27 -22 -60 -40q72 -39 99 -81
q49 -75 49 -171v-211q0 -188 110 -246q31 -16 56 -16t41.5 -7.5t28.5 -19.5q27 -25 27 -62.5t-26.5 -64t-63.5 -26.5h-34q-180 0 -283 140q-93 125 -93 312v235q0 47 -23 72q-37 39 -75 46t-63.5 32.5t-25.5 67t25.5 68z" />
    <glyph glyph-name="bar" unicode="|" horiz-adv-x="678" 
d="M303.5 1531q16.5 7 35 7t35 -7t28.5 -19q27 -25 27 -62v-1721q0 -35 -19 -55q-34 -33 -62 -33t-44.5 7t-29.5 19q-26 25 -26 62v1721q0 35 19.5 54.5t36 26.5z" />
    <glyph glyph-name="braceright" unicode="}" 
d="M828.5 701.5q-25.5 26.5 -52.5 31t-44.5 13.5t-31.5 24q-33 35 -33 82v234q0 187 -93 312q-103 140 -283 140h-34q-37 0 -63.5 -26.5t-26.5 -54t7 -44t20 -28.5q28 -27 61.5 -27t64 -16t55.5 -48q55 -70 55 -198v-210q0 -140 88 -212q27 -22 60 -40q-72 -39 -99 -81
q-49 -75 -49 -171v-211q0 -188 -110 -246q-31 -16 -56 -16t-41.5 -7.5t-28.5 -19.5q-27 -25 -27 -62.5t26.5 -64t63.5 -26.5h34q180 0 283 140q93 125 93 312v235q0 47 23 72q37 39 75 46t63.5 32.5t25.5 67t-25.5 68z" />
    <glyph glyph-name="asciitilde" unicode="~" 
d="M783 588q22 18 55 18q31 0 50 -19t19 -49t-24.5 -62t-54 -64t-63.5 -55q-74 -50 -162 -50q-110 0 -206 106l-17 17q-9 9 -20 9q-13 0 -45 -26l-75 -57q-22 -18 -55 -18q-31 0 -50 19t-19 49t24 62.5t53.5 64.5t63.5 55q72 49 163 49q92 0 164 -65q22 -20 36 -35l24 -23
q8 -9 19 -9q13 0 45 26z" />
    <glyph glyph-name="uni007F" horiz-adv-x="513" 
 />
    <glyph glyph-name="nonbreakingspace" unicode="&#xa0;" horiz-adv-x="402" 
 />
    <glyph glyph-name="exclamdown" unicode="&#xa1;" horiz-adv-x="513" 
d="M418 177q11 -132 -75 -180q-31 -17 -75 -17t-75.5 17t-51.5 45q-40 54 -33 135l59 660q4 39 31.5 66.5t67.5 27.5t66 -27t30 -67zM266 1111q-55 0 -95 39q-40 41 -40 82t11 65t29 43q40 39 95 39t95 -39q40 -41 40 -82q0 -67 -40 -107t-95 -40z" />
    <glyph glyph-name="cent" unicode="&#xa2;" 
d="M622 984v-670h135q59 0 83 -56q7 -17 7 -35.5t-7 -35t-19 -28.5q-26 -26 -64 -26h-135v-72q0 -27 -16 -44.5t-40 -17t-40 17t-16 41.5v75h-38q-122 0 -209 87t-87 209v496q0 125 82 203q88 85 252 91v83q0 24 16.5 40.5t40.5 16.5t39.5 -16.5t15.5 -39.5v-91
q102 -15 163.5 -61t61.5 -115q0 -50 -25 -75q-43 -43 -98.5 -43t-101.5 66zM413 431q0 -45 27.5 -76.5t69.5 -38.5v721q-42 -8 -69.5 -40t-27.5 -77v-489z" />
    <glyph glyph-name="sterling" unicode="&#xa3;" 
d="M453 206q0 -30 28 -30h356q55 0 79 -54q7 -16 7 -34q0 -57 -53 -81q-15 -7 -33 -7h-646q-38 0 -64 26t-26 63.5t26 64.5t57.5 27t53 9t37.5 24q34 33 34 84v310h-109q-27 0 -44.5 16t-17 40t17 40t41.5 16h112v343q0 122 87 209t209 87h115q59 0 83 -55q7 -17 7 -45
t-26 -54t-64 -26h-55q-50 0 -75 -25q-44 -44 -44 -94v-340h196q24 0 40.5 -16.5t16.5 -40.5t-16.5 -39.5t-39.5 -15.5h-197v-210q0 -88 -68 -156l-16 -16q-9 -9 -9 -20z" />
    <glyph glyph-name="currency" unicode="&#xa4;" 
d="M227 1048q93 87 282.5 87t286.5 -87l149 149q18 18 41 18t39.5 -16t16.5 -40t-20 -43l-160 -161q23 -57 23 -127v-292q0 -71 -21 -126l158 -158q20 -19 20 -43t-16.5 -40t-39.5 -16t-41 18l-144 144q-91 -85 -284.5 -85t-288.5 91l-150 -150q-18 -18 -41 -18t-39.5 16
t-16.5 40t20 43l164 165q-20 49 -20 120v292q0 69 19 122l-163 165q-20 19 -20 43t16.5 40t39.5 16t41 -18zM650 774q0 89 -23 123q-41 59 -120 59q-104 0 -121 -108q-6 -33 -6 -74v-183q0 -89 23 -123q41 -59 120 -59q104 0 121 107q6 34 6 75v183z" />
    <glyph glyph-name="yen" unicode="&#xa5;" 
d="M391 348h-199q-27 0 -44.5 16t-17 40t17 40t41.5 16h191l-33 103h-155q-27 0 -44.5 16t-17 40t17 40t41.5 16h122l-174 543q-6 23 -6 36t7.5 32.5t21.5 35.5q32 37 75 37t77 -23t45 -61l49 -174q61 -216 105 -487q47 286 106 487l51 174q18 58 79 78q18 6 40.5 6
t42.5 -10.5t34 -26.5q29 -33 29 -60t-5 -44l-177 -543h125q24 0 40.5 -16.5t16.5 -40.5t-16.5 -39.5t-39.5 -15.5h-163l-33 -103h195q24 0 40.5 -16.5t16.5 -40.5t-16.5 -39.5t-39.5 -15.5h-208v-250q0 -48 -25 -74q-44 -43 -81 -43t-59 9.5t-38 25.5q-35 33 -35 82v250z
" />
    <glyph glyph-name="brokenbar" unicode="&#xa6;" horiz-adv-x="678" 
d="M303.5 1531q16.5 7 35 7t35 -7t28.5 -19q27 -25 27 -62v-670q0 -35 -19 -54q-34 -34 -62 -34t-44.5 7t-29.5 19q-26 25 -26 62v670q0 35 19.5 54.5t36 26.5zM303.5 480q16.5 7 35 7t35 -7t28.5 -19q27 -25 27 -62v-670q0 -35 -19 -55q-34 -33 -62 -33t-44.5 7t-29.5 19
q-26 25 -26 62v670q0 35 19.5 54.5t36 26.5z" />
    <glyph glyph-name="section" unicode="&#xa7;" 
d="M722 323q129 -84 129 -249q0 -134 -94 -221q-89 -83 -220 -83h-224q-38 0 -63 26.5t-25 64.5t25 63.5t63 25.5h205q51 0 79.5 30t28.5 71q0 73 -71 96l-176 57q-106 34 -167 122q-61 86 -61 187q0 193 150 293q-129 84 -129 249q0 134 94 221q89 83 220 83h224
q38 0 63 -26.5t25 -64.5t-25 -63.5t-63 -25.5h-205q-51 0 -79.5 -30t-28.5 -71q0 -73 71 -96l176 -57q159 -53 210 -205q17 -53 17 -116q0 -179 -149 -281zM367 563q0 -65 43 -111q41 -45 101 -45q61 0 103 45q42 46 42 111t-42 111q-43 46 -103 46q-59 0 -101 -46
q-43 -46 -43 -111z" />
    <glyph glyph-name="dieresis" unicode="&#xa8;" horiz-adv-x="1696" 
d="M649 1445q55 0 95 -39q40 -41 40 -82t-11 -65t-29 -43q-40 -39 -95 -39t-95 39q-40 41 -40 82q0 67 40 107t95 40zM920.5 1259q-10.5 24 -10.5 51.5t10.5 52t29.5 43.5q39 39 80.5 39t66 -10.5t43.5 -28.5q39 -40 39 -81.5t-10.5 -65.5t-28.5 -43q-40 -39 -81.5 -39
t-66 10.5t-43 29t-29 42.5z" />
    <glyph glyph-name="copyright" unicode="&#xa9;" horiz-adv-x="1698" 
d="M1409 362q0 -175 -143 -277q-147 -104 -409 -104q-267 0 -419 104q-150 103 -150 279v613q0 175 144 277q146 104 408 104q267 0 419 -104q150 -103 150 -279v-613zM1285 975q0 131 -117 207q-120 77 -331 77q-202 0 -314 -77q-110 -75 -110 -205v-613q0 -131 117 -207
q120 -77 330 -77q308 0 397 166q28 52 28 116v613zM928 884q-23 37 -59.5 37t-60 -24t-23.5 -57v-335q0 -33 23.5 -57t57.5 -24h155q26 0 43.5 -18t17.5 -43.5t-17.5 -43.5t-43.5 -18h-196q-83 0 -142.5 59.5t-59.5 142.5v340q0 87 60 143q64 58 183 58q95 0 139 -25
q77 -43 77 -100q0 -33 -22.5 -57t-53.5 -24q-45 0 -78 46z" />
    <glyph glyph-name="ordfeminine" unicode="&#xaa;" horiz-adv-x="845" 
d="M269 420q-27 0 -44.5 16t-17 40t17 40t41.5 16l292 -1q24 0 41 -16t16.5 -40t-17 -39.5t-39.5 -15.5h-290zM260 1263.5q-17 16.5 -17 40t17 40t41 16.5h149q77 0 131.5 -54.5t54.5 -131.5v-424q0 -30 -21.5 -52t-46 -22t-36.5 5.5t-19.5 12.5t-12 14.5t-6.5 11.5
q-8 15 -18 15q-7 0 -24 -17q-42 -42 -87 -42t-75 15t-52 41q-50 56 -50 131v87q0 77 54.5 131.5t132.5 54.5h112v36q0 32 -21.5 53.5t-53.5 21.5h-111q-24 0 -41 16.5zM337 864q0 -31 21.5 -52.5t53 -21.5t53.5 17t22 47v169h-75q-32 0 -53.5 -21.5t-21.5 -53.5v-84z" />
    <glyph glyph-name="guillemotleft" unicode="&#xab;" horiz-adv-x="1533" 
d="M324 435q-55 50 -55 92t16.5 64t38.5 42l296 298q22 20 47.5 20t43.5 -15q21 -21 21 -47.5t-14 -45.5l-204 -309l204 -309q14 -19 14 -38q0 -34 -19.5 -52t-45 -18t-47.5 20zM796 435q-55 50 -55 92t16.5 64t38.5 42l296 298q22 20 47.5 20t43.5 -15q21 -21 21 -47.5
t-14 -45.5l-204 -309l204 -309q14 -19 14 -38q0 -34 -19.5 -52t-45 -18t-47.5 20z" />
    <glyph glyph-name="logicalnot" unicode="&#xac;" 
d="M862.5 218q-16.5 -7 -35 -7t-35 7t-28.5 19q-27 25 -27 62v226h-545q-35 0 -54 19q-34 34 -34 62t7 44.5t19 29.5q25 26 62 26h638q35 0 54 -20q34 -33 34 -70v-317q0 -35 -19.5 -54.5t-36 -26.5z" />
    <glyph glyph-name="uni00AD" unicode="&#xad;" horiz-adv-x="1274" 
d="M1037 720.5q7 -16.5 7 -35t-7 -35t-19 -28.5q-25 -27 -62 -27h-638q-35 0 -54 19q-34 34 -34 62t7 44.5t19 29.5q25 26 62 26h638q35 0 54.5 -19.5t26.5 -36z" />
    <glyph glyph-name="registered" unicode="&#xae;" horiz-adv-x="1698" 
d="M1005 654q102 -42 102 -151v-122q0 -34 -24 -57t-58 -23t-57.5 23t-23.5 57v130q0 35 -23.5 58t-56.5 23h-79v-211q0 -34 -24 -57t-58 -23t-57.5 23t-23.5 57v583q0 33 23.5 57t58.5 24h161q115 0 178.5 -54.5t63.5 -147.5v-17q0 -119 -102 -172zM785 715h79
q34 0 57.5 23t23.5 58v45q0 33 -23.5 57t-57.5 24h-79v-207zM1409 362q0 -175 -143 -277q-147 -104 -409 -104q-267 0 -419 104q-150 103 -150 279v613q0 175 144 277q146 104 408 104q267 0 419 -104q150 -103 150 -279v-613zM1285 975q0 131 -117 207q-120 77 -331 77
q-202 0 -314 -77q-110 -75 -110 -205v-613q0 -131 117 -207q120 -77 330 -77q308 0 397 166q28 52 28 116v613z" />
    <glyph glyph-name="macron" unicode="&#xaf;" horiz-adv-x="1493" 
d="M1129 1357.5q7 -16.5 7 -35t-7 -35t-19 -29.5q-25 -26 -62 -26h-403q-35 0 -55 20q-33 33 -33 61t7 44.5t19 28.5q25 27 62 27h403q35 0 54.5 -19.5t26.5 -36z" />
    <glyph glyph-name="degree" unicode="&#xb0;" horiz-adv-x="845" 
d="M424 851q-108 0 -188 78q-78 77 -78 185q0 110 78 187q81 79 188 79t186 -79q77 -77 77 -187q0 -109 -77 -186t-186 -77zM468 1219.5q-21 9.5 -45 9.5t-45 -9t-36 -24q-34 -34 -34 -69.5t9.5 -56t25.5 -36.5q35 -33 69 -33t55 9.5t37 25.5q36 34 36 67.5t-9.5 54.5
t-25.5 36.5t-37 25z" />
    <glyph glyph-name="plusminus" unicode="&#xb1;" 
d="M545.5 572q-16.5 -7 -35 -7t-35 7t-29.5 19q-26 25 -26 62v217h-228q-35 0 -54 20q-34 33 -34 61t7 44.5t19 28.5q25 27 62 27h228v208q0 35 20 55q33 33 61 33t44.5 -7t28.5 -19q27 -25 27 -62v-208h229q35 0 54 -19q34 -34 34 -62t-7 -44.5t-19 -29.5q-25 -26 -62 -26
h-229v-217q0 -35 -19.5 -54.5t-36 -26.5zM911 280.5q7 -16.5 7 -35t-7 -35t-19 -28.5q-25 -27 -62 -27h-638q-35 0 -54 19q-34 34 -34 62t7 44.5t19 29.5q25 26 62 26h638q35 0 54.5 -19.5t26.5 -36z" />
    <glyph glyph-name="twosuperior" unicode="&#xb2;" horiz-adv-x="845" 
d="M472 1359q111 0 174 -61q56 -54 56 -131.5t-42.5 -129.5t-114.5 -91l-136 -74q-50 -27 -62 -65h288q27 0 47 -21t20 -50t-20 -49.5t-48 -20.5h-400q-62 0 -85 56q-7 17 -7 47t6 62t25 61q36 54 145 117l152 89q45 25 45 64q0 20 -15.5 38t-44.5 18h-217q-29 0 -49 20.5
t-20 49.5t20 50t49 21h234z" />
    <glyph glyph-name="threesuperior" unicode="&#xb3;" horiz-adv-x="845" 
d="M174 736q0 29 20.5 50t49.5 21h178q39 0 66 22.5t27 63.5v63q0 33 -19 47q-32 24 -58.5 24t-39 -4.5t-23.5 -10.5q-29 -14 -52 -14t-39 16t-16 34q0 33 22 51l141 119h-219q-30 0 -50 20.5t-20 49.5t20 50t50 21h433q24 0 40.5 -16.5t16.5 -36.5q0 -32 -22 -48l-189 -157
q21 8 53.5 8t61.5 -11t50 -31q46 -42 46 -109v-61q0 -107 -72.5 -169t-207.5 -62h-178q-29 0 -49.5 20.5t-20.5 49.5z" />
    <glyph glyph-name="acute" unicode="&#xb4;" horiz-adv-x="1331" 
d="M754 1507q48 66 111 66q42 0 67 -25q42 -42 42 -80q0 -76 -63 -119l-220 -154q-24 -16 -43 -16q-34 0 -51 18t-17 43.5t17 48.5z" />
    <glyph glyph-name="paragraph" unicode="&#xb6;" horiz-adv-x="1275" 
d="M176 1063q0 124 80 209q81 87 202 87l714 -1q60 0 84 -56q7 -16 7 -34.5t-7 -35t-20 -28.5q-27 -26 -64 -26h-13v-1353q0 -35 -19 -55q-34 -33 -62 -33t-44.5 7t-29.5 19q-26 25 -26 62v1353h-229v-1353q0 -35 -19 -55q-34 -33 -62 -33t-44.5 7t-29.5 19q-26 25 -26 62
v363q0 19 -10.5 25.5t-20.5 6.5t-19 -8q-21 -22 -37.5 -38.5t-30.5 -25.5q-32 -21 -80.5 -21t-84 23.5t-59.5 63.5q-50 82 -50 209v640z" />
    <glyph glyph-name="periodcentered" unicode="&#xb7;" horiz-adv-x="513" 
d="M257 752q55 0 95 -40t40 -81t-11 -65t-29 -42q-40 -40 -95 -40t-95 40t-40 80q0 68 40 108t95 40z" />
    <glyph glyph-name="cedilla" unicode="&#xb8;" horiz-adv-x="1227" 
d="M484 -204q-27 0 -44 16t-17 40t14 57l50 114h134l-50 -115q92 0 145 -52q49 -46 49 -121q0 -119 -123 -159q-42 -14 -98 -14h-161q-23 0 -39 16.5t-16 40t16 40t39 16.5h121q32 0 52.5 18.5t20.5 43t-19.5 42t-47.5 17.5h-26z" />
    <glyph glyph-name="onesuperior" unicode="&#xb9;" horiz-adv-x="845" 
d="M212 1288q0 29 20 50t49 21h161q30 0 50 -20.5t20 -49.5v-551q0 -62 -56 -85q-17 -7 -46.5 -7t-56.5 27t-27 65v480h-45q-29 0 -49 20.5t-20 49.5z" />
    <glyph glyph-name="ordmasculine" unicode="&#xba;" horiz-adv-x="845" 
d="M278 420q-27 0 -44.5 16t-17 40t17 40t41.5 16h292q24 0 40.5 -16.5t16.5 -40.5t-16.5 -39.5t-39.5 -15.5h-290zM189 1188q0 131 129 172q42 13 95.5 13t95 -13t70.5 -38q59 -49 59 -135v-327q0 -132 -128 -172q-42 -13 -95.5 -13t-95 13t-70.5 38q-60 50 -60 136v326z
M489 1185q0 49 -45 69q-14 6 -30 6q-30 0 -47 -16q-28 -26 -28 -59v-328q0 -33 21.5 -50t53.5 -17t53.5 17t21.5 50v328z" />
    <glyph glyph-name="guillemotright" unicode="&#xbb;" horiz-adv-x="1533" 
d="M697 435q55 50 55 92t-16.5 64t-38.5 42l-296 298q-22 20 -47.5 20t-43.5 -15q-21 -21 -21 -47.5t14 -45.5l204 -309l-204 -309q-14 -19 -14 -38q0 -34 19.5 -52t45 -18t47.5 20zM1169 435q55 50 55 92t-16.5 64t-38.5 42l-296 298q-22 20 -47.5 20t-43.5 -15
q-21 -21 -21 -47.5t14 -45.5l204 -309l-204 -309q-14 -19 -14 -38q0 -34 19.5 -52t45 -18t47.5 20z" />
    <glyph glyph-name="onequarter" unicode="&#xbc;" horiz-adv-x="1687" 
d="M987 1361q24 56 83 56q52 0 78 -41q15 -23 15 -45t-8 -41l-556 -1309q-23 -55 -81 -55q-52 0 -79 42q-15 24 -15 46.5t7 37.5zM1601 183q0 -29 -20 -49.5t-49 -20.5h-46v-60q0 -38 -26.5 -65t-56 -27t-46.5 7t-29 20q-27 26 -27 65v60h-291q-38 0 -58 32.5t-6 64.5
l187 451q9 21 31.5 36.5t45 15.5t47.5 -9t38.5 -34.5t13.5 -46.5t-7 -37l-164 -332h163v126q0 59 55 84q17 8 36.5 8t36.5 -7t30 -19q27 -26 27 -66v-126h46q28 0 48.5 -21t20.5 -50zM188 1288q0 29 20 50t49 21h161q30 0 50 -20.5t20 -49.5v-551q0 -62 -56 -85
q-17 -7 -46.5 -7t-56.5 27t-27 65v480h-45q-29 0 -49 20.5t-20 49.5z" />
    <glyph glyph-name="onehalf" unicode="&#xbd;" horiz-adv-x="1687" 
d="M188 1288q0 29 20 50t49 21h161q30 0 50 -20.5t20 -49.5v-551q0 -62 -56 -85q-17 -7 -46.5 -7t-56.5 27t-27 65v480h-45q-29 0 -49 20.5t-20 49.5zM1350 693q111 0 174 -61q56 -54 56 -131.5t-42.5 -129.5t-114.5 -91l-136 -74q-50 -27 -62 -65h288q27 0 47 -21t20 -50
t-20 -49.5t-48 -20.5h-400q-62 0 -85 56q-7 17 -7 47t6 62t25 61q36 54 145 117l152 89q45 25 45 64q0 20 -15.5 38t-44.5 18h-217q-29 0 -49 20.5t-20 49.5t20 50t49 21h234zM987 1361q24 56 83 56q52 0 78 -41q15 -23 15 -45t-8 -41l-556 -1309q-23 -55 -81 -55
q-52 0 -79 42q-15 24 -15 46.5t7 37.5z" />
    <glyph glyph-name="threequarters" unicode="&#xbe;" horiz-adv-x="1687" 
d="M105 736q0 29 20.5 50t49.5 21h178q39 0 66 22.5t27 63.5v63q0 33 -20 47q-31 24 -57.5 24t-39 -4.5t-23.5 -10.5q-29 -14 -52 -14t-39 16t-16 34q0 33 22 51l141 119h-219q-30 0 -50 20.5t-20 49.5t20 50t50 21h433q24 0 40.5 -16.5t16.5 -36.5q0 -32 -22 -48l-189 -157
q21 8 53.5 8t61.5 -11t51 -31q45 -42 45 -109v-61q0 -107 -72.5 -169t-207.5 -62h-178q-29 0 -49.5 20.5t-20.5 49.5zM987 1361q24 56 83 56q52 0 78 -41q15 -23 15 -45t-8 -41l-556 -1309q-23 -55 -81 -55q-52 0 -79 42q-15 24 -15 46.5t7 37.5zM1601 183q0 -29 -20 -49.5
t-49 -20.5h-46v-60q0 -38 -26.5 -65t-56 -27t-46.5 7t-29 20q-27 26 -27 65v60h-291q-38 0 -58 32.5t-6 64.5l187 451q9 21 31.5 36.5t45 15.5t47.5 -9t38.5 -34.5t13.5 -46.5t-7 -37l-164 -332h163v126q0 59 55 84q17 8 36.5 8t36.5 -7t30 -19q27 -26 27 -66v-126h46
q28 0 48.5 -21t20.5 -50z" />
    <glyph glyph-name="questiondown" unicode="&#xbf;" horiz-adv-x="1026" 
d="M703 759q0 -192 -215 -309l-62 -33q-62 -32 -62 -96v-22q0 -49 26 -75q44 -44 93 -44h256q35 0 56 -20q34 -32 34 -69.5t-26.5 -64t-63.5 -26.5h-258q-165 0 -261 80q-92 79 -92 216v34q0 165 206 278l46 26q63 35 88 96q9 21 9 42v27q0 46 24 70q41 41 76.5 41t56.5 -9
t36 -24q33 -33 33 -78v-40zM591 1109q-55 0 -95 39q-40 41 -40 82t11 65t29 43q40 39 95 39t95 -39q40 -41 40 -82q0 -67 -40 -107t-95 -40z" />
    <glyph glyph-name="Agrave" unicode="&#xc0;" horiz-adv-x="1193" 
d="M427 1148q0 30 -29 30h-116q-45 0 -68 -26q-40 -45 -40 -92v-57q0 -78 -73 -108q-22 -9 -46.5 -9t-46 9t-36.5 25q-35 34 -35 83v60q0 122 87 209t209 87h456q166 0 261 -81q94 -79 94 -215v-965q0 -76 -72 -108q-21 -9 -45.5 -9t-46.5 9.5t-38 25.5q-35 33 -35 82v335
h-237v-335q0 -48 -26 -74q-43 -43 -80 -43t-59 9.5t-38 25.5q-34 32 -34 82v335h-72q-35 0 -55 19q-33 34 -33 71.5t25.5 64t62.5 26.5h72v341q0 95 85 175q9 8 9 18zM570 614h237v445q0 50 -25 75q-44 44 -81.5 44t-59 -9.5t-37.5 -25.5q-34 -34 -34 -83v-446zM810 1602
q17 -23 17 -48.5t-13 -39.5q-22 -22 -48 -22t-50 16l-220 154q-63 43 -63 113q0 44 25 69q42 42 79 42q68 0 116 -66z" />
    <glyph glyph-name="Aacute" unicode="&#xc1;" horiz-adv-x="1193" 
d="M427 1148q0 30 -29 30h-116q-45 0 -68 -26q-40 -45 -40 -92v-57q0 -78 -73 -108q-22 -9 -46.5 -9t-46 9t-36.5 25q-35 34 -35 83v60q0 122 87 209t209 87h456q166 0 261 -81q94 -79 94 -215v-965q0 -76 -72 -108q-21 -9 -45.5 -9t-46.5 9.5t-38 25.5q-35 33 -35 82v335
h-237v-335q0 -48 -26 -74q-43 -43 -80 -43t-59 9.5t-38 25.5q-34 32 -34 82v335h-72q-35 0 -55 19q-33 34 -33 71.5t25.5 64t62.5 26.5h72v341q0 95 85 175q9 8 9 18zM570 614h237v445q0 50 -25 75q-44 44 -81.5 44t-59 -9.5t-37.5 -25.5q-34 -34 -34 -83v-446zM726 1820
q48 66 111 66q42 0 67 -26q42 -41 42 -79q0 -76 -63 -119l-220 -154q-24 -16 -43 -16q-34 0 -51 18t-17 43.5t17 48.5z" />
    <glyph glyph-name="Acircumflex" unicode="&#xc2;" horiz-adv-x="1193" 
d="M427 1148q0 30 -29 30h-116q-45 0 -68 -26q-40 -45 -40 -92v-57q0 -78 -73 -108q-22 -9 -46.5 -9t-46 9t-36.5 25q-35 34 -35 83v60q0 122 87 209t209 87h456q166 0 261 -81q94 -79 94 -215v-965q0 -76 -72 -108q-21 -9 -45.5 -9t-46.5 9.5t-38 25.5q-35 33 -35 82v335
h-237v-335q0 -48 -26 -74q-43 -43 -80 -43t-59 9.5t-38 25.5q-34 32 -34 82v335h-72q-35 0 -55 19q-33 34 -33 71.5t25.5 64t62.5 26.5h72v341q0 95 85 175q9 8 9 18zM570 614h237v445q0 50 -25 75q-44 44 -81.5 44t-59 -9.5t-37.5 -25.5q-34 -34 -34 -83v-446zM921 1599
q13 -24 13 -46t-17 -41t-37 -19q-40 0 -60 20l-131 134l-131 -134q-20 -20 -50 -20t-47 19t-17 41t13 46l120 213q42 76 113 76q65 0 111 -76z" />
    <glyph glyph-name="Atilde" unicode="&#xc3;" horiz-adv-x="1193" 
d="M427 1148q0 30 -29 30h-116q-45 0 -68 -26q-40 -45 -40 -92v-57q0 -78 -73 -108q-22 -9 -46.5 -9t-46 9t-36.5 25q-35 34 -35 83v60q0 122 87 209t209 87h456q166 0 261 -81q94 -79 94 -215v-965q0 -76 -72 -108q-21 -9 -45.5 -9t-46.5 9.5t-38 25.5q-35 33 -35 82v335
h-237v-335q0 -48 -26 -74q-43 -43 -80 -43t-59 9.5t-38 25.5q-34 32 -34 82v335h-72q-35 0 -55 19q-33 34 -33 71.5t25.5 64t62.5 26.5h72v341q0 95 85 175q9 8 9 18zM570 614h237v445q0 50 -25 75q-44 44 -81.5 44t-59 -9.5t-37.5 -25.5q-34 -34 -34 -83v-446zM923 1767
q20 17 45.5 17t42 -18t16.5 -44t-20.5 -56t-45 -59t-53.5 -51q-60 -45 -126 -45t-107 29t-61 52l-26 32q-7 7 -16 7q-11 0 -38 -23l-62 -52q-20 -17 -45.5 -17t-42 18t-16.5 44t20 56t44.5 59.5t53.5 50.5q61 45 135 45q79 0 137 -60l35 -37q8 -8 14.5 -15.5t15.5 -7.5
q11 0 38 23z" />
    <glyph glyph-name="Adieresis" unicode="&#xc4;" horiz-adv-x="1193" 
d="M427 1148q0 30 -29 30h-116q-45 0 -68 -26q-40 -45 -40 -92v-57q0 -78 -73 -108q-22 -9 -46.5 -9t-46 9t-36.5 25q-35 34 -35 83v60q0 122 87 209t209 87h456q166 0 261 -81q94 -79 94 -215v-965q0 -76 -72 -108q-21 -9 -45.5 -9t-46.5 9.5t-38 25.5q-35 33 -35 82v335
h-237v-335q0 -48 -26 -74q-43 -43 -80 -43t-59 9.5t-38 25.5q-34 32 -34 82v335h-72q-35 0 -55 19q-33 34 -33 71.5t25.5 64t62.5 26.5h72v341q0 95 85 175q9 8 9 18zM570 614h237v445q0 50 -25 75q-44 44 -81.5 44t-59 -9.5t-37.5 -25.5q-34 -34 -34 -83v-446zM477 1778
q55 0 94 -40q41 -40 41 -81t-11 -65t-30 -42q-39 -40 -94 -40t-94 40q-41 40 -41 80q0 68 40 108t95 40zM768.5 1592q-10.5 24 -10.5 51.5t10.5 52t28.5 42.5q40 40 81.5 40t66 -10.5t42.5 -29.5q40 -39 40 -80.5t-10.5 -65.5t-29.5 -42q-39 -40 -80.5 -40t-66 10.5t-43 29
t-29 42.5z" />
    <glyph glyph-name="Aring" unicode="&#xc5;" horiz-adv-x="1193" 
d="M427 1148q0 30 -29 30h-116q-45 0 -68 -26q-40 -45 -40 -92v-57q0 -78 -73 -108q-22 -9 -46.5 -9t-46 9t-36.5 25q-35 34 -35 83v60q0 122 87 209t209 87h456q166 0 261 -81q94 -79 94 -215v-965q0 -76 -72 -108q-21 -9 -45.5 -9t-46.5 9.5t-38 25.5q-35 33 -35 82v335
h-237v-335q0 -48 -26 -74q-43 -43 -80 -43t-59 9.5t-38 25.5q-34 32 -34 82v335h-72q-35 0 -55 19q-33 34 -33 71.5t25.5 64t62.5 26.5h72v341q0 95 85 175q9 8 9 18zM570 614h237v445q0 50 -25 75q-44 44 -81.5 44t-59 -9.5t-37.5 -25.5q-34 -34 -34 -83v-446zM689 1485
q-45 0 -85 17.5t-71 46.5q-65 64 -65 155t65 155q68 66 156 66q91 0 156 -66q63 -65 63 -155q0 -92 -63.5 -155.5t-155.5 -63.5zM725.5 1792q-17.5 8 -48 8t-58 -28t-27.5 -57.5t8 -47t21 -30.5q30 -28 58 -28t45.5 8t30.5 21q30 28 30 56.5t-8 46t-21 30.5t-30.5 21z" />
    <glyph glyph-name="AE" unicode="&#xc6;" horiz-adv-x="1655" 
d="M594 1148q0 30 -29 30h-116q-45 0 -68 -26q-40 -45 -40 -92v-57q0 -78 -73 -108q-22 -9 -46.5 -9t-46 9t-37.5 25q-34 34 -34 83v60q0 122 87 209t209 87h426q159 0 243 -100q11 -12 23 -12t23 12q82 100 245 100h203q60 0 83 -55q7 -16 7 -34.5t-7 -35t-19 -28.5
q-26 -28 -64 -28h-234q-48 0 -83 -26.5t-35 -79.5v-405h263q38 0 63.5 -26t25.5 -63.5t-25.5 -64t-63.5 -26.5h-263v-189q0 -51 25 -75q44 -42 93 -42h234q59 0 83 -57q7 -16 7 -34.5t-7 -35t-19 -28.5q-26 -26 -64 -26h-293q-122 0 -209 87t-87 209v190h-237v-388
q0 -48 -25 -74q-44 -43 -81 -43t-59 9.5t-38 25.5q-34 32 -34 82v388h-72q-35 0 -54 20q-34 33 -34 70.5t25.5 64t62.5 26.5h72v288q0 95 86 175q8 8 8 18zM737 667h237v392q0 50 -25 75q-44 44 -81.5 44t-59 -9.5t-37.5 -25.5q-34 -34 -34 -83v-393z" />
    <glyph glyph-name="Ccedilla" unicode="&#xc7;" horiz-adv-x="1026" 
d="M416 -204q-27 0 -44 16t-17 40t14 57l36 82q-120 23 -184.5 97t-64.5 189v808q0 135 92 213q96 81 263 81q172 0 269 -81q96 -79 96 -214q0 -211 -108 -285q-33 -23 -66.5 -23t-55 9t-37.5 25q-34 32 -34 73t13 62.5t29 40.5q42 52 42 85.5t-10 55t-28 37.5
q-39 35 -99 35t-94.5 -34.5t-34.5 -84.5v-812q0 -51 33.5 -78.5t84 -27.5t84.5 27.5t34 78.5v65q0 50 25 75q43 43 80 43t59 -9t38 -25q35 -35 35 -84v-59q0 -202 -190 -268q-62 -21 -141 -24l-32 -74q92 0 145 -52q49 -46 49 -121q0 -119 -123 -159q-42 -14 -98 -14h-161
q-23 0 -39 16.5t-16 40t16 40t39 16.5h121q32 0 52.5 18.5t20.5 43t-19.5 42t-47.5 17.5h-26z" />
    <glyph glyph-name="Egrave" unicode="&#xc8;" horiz-adv-x="1024" 
d="M520 1379q86 0 154 -20t114 -59q96 -79 96 -216q0 -211 -108 -285q-33 -23 -66.5 -23t-55 9t-37.5 25q-34 32 -34 73t13 62.5t29 40.5q42 52 42 101t-37.5 80t-100.5 31t-102 -27.5t-39 -78.5v-307q0 -49 25 -75q42 -44 92 -44h18q38 0 63.5 -26.5t25.5 -64t-25.5 -63.5
t-57 -26t-53 -9t-37.5 -25q-34 -34 -34 -84v-70q0 -50 25 -75q43 -43 93 -43q45 0 68 24q42 44 42 80t9 57.5t25 37.5q35 35 84 35q48 0 73 -26q44 -43 44 -101.5t-23.5 -113t-67.5 -93.5q-92 -80 -254 -80q-167 0 -263 80q-92 79 -92 214v30q0 136 84 208q25 22 57 40
q-86 34 -121.5 89.5t-35.5 134.5v287q0 137 97 216.5t271 79.5zM644 1602q17 -23 17 -48.5t-13 -39.5q-22 -22 -48 -22t-50 16l-220 154q-63 43 -63 113q0 44 25 69q42 42 79 42q68 0 116 -66z" />
    <glyph glyph-name="Eacute" unicode="&#xc9;" horiz-adv-x="1024" 
d="M520 1379q86 0 154 -20t114 -59q96 -79 96 -216q0 -211 -108 -285q-33 -23 -66.5 -23t-55 9t-37.5 25q-34 32 -34 73t13 62.5t29 40.5q42 52 42 101t-37.5 80t-100.5 31t-102 -27.5t-39 -78.5v-307q0 -49 25 -75q42 -44 92 -44h18q38 0 63.5 -26.5t25.5 -64t-25.5 -63.5
t-57 -26t-53 -9t-37.5 -25q-34 -34 -34 -84v-70q0 -50 25 -75q43 -43 93 -43q45 0 68 24q42 44 42 80t9 57.5t25 37.5q35 35 84 35q48 0 73 -26q44 -43 44 -101.5t-23.5 -113t-67.5 -93.5q-92 -80 -254 -80q-167 0 -263 80q-92 79 -92 214v30q0 136 84 208q25 22 57 40
q-86 34 -121.5 89.5t-35.5 134.5v287q0 137 97 216.5t271 79.5zM560 1820q48 66 111 66q42 0 67 -26q42 -41 42 -79q0 -76 -63 -119l-220 -154q-24 -16 -43 -16q-34 0 -51 18t-17 43.5t17 48.5z" />
    <glyph glyph-name="Ecircumflex" unicode="&#xca;" horiz-adv-x="1024" 
d="M520 1379q86 0 154 -20t114 -59q96 -79 96 -216q0 -211 -108 -285q-33 -23 -66.5 -23t-55 9t-37.5 25q-34 32 -34 73t13 62.5t29 40.5q42 52 42 101t-37.5 80t-100.5 31t-102 -27.5t-39 -78.5v-307q0 -49 25 -75q42 -44 92 -44h18q38 0 63.5 -26.5t25.5 -64t-25.5 -63.5
t-57 -26t-53 -9t-37.5 -25q-34 -34 -34 -84v-70q0 -50 25 -75q43 -43 93 -43q45 0 68 24q42 44 42 80t9 57.5t25 37.5q35 35 84 35q48 0 73 -26q44 -43 44 -101.5t-23.5 -113t-67.5 -93.5q-92 -80 -254 -80q-167 0 -263 80q-92 79 -92 214v30q0 136 84 208q25 22 57 40
q-86 34 -121.5 89.5t-35.5 134.5v287q0 137 97 216.5t271 79.5zM755 1599q13 -24 13 -46t-17 -41t-37 -19q-40 0 -60 20l-131 134l-131 -134q-20 -20 -50 -20t-47 19t-17 41t13 46l120 213q42 76 113 76q65 0 111 -76z" />
    <glyph glyph-name="Edieresis" unicode="&#xcb;" horiz-adv-x="1024" 
d="M520 1379q86 0 154 -20t114 -59q96 -79 96 -216q0 -211 -108 -285q-33 -23 -66.5 -23t-55 9t-37.5 25q-34 32 -34 73t13 62.5t29 40.5q42 52 42 101t-37.5 80t-100.5 31t-102 -27.5t-39 -78.5v-307q0 -49 25 -75q42 -44 92 -44h18q38 0 63.5 -26.5t25.5 -64t-25.5 -63.5
t-57 -26t-53 -9t-37.5 -25q-34 -34 -34 -84v-70q0 -50 25 -75q43 -43 93 -43q45 0 68 24q42 44 42 80t9 57.5t25 37.5q35 35 84 35q48 0 73 -26q44 -43 44 -101.5t-23.5 -113t-67.5 -93.5q-92 -80 -254 -80q-167 0 -263 80q-92 79 -92 214v30q0 136 84 208q25 22 57 40
q-86 34 -121.5 89.5t-35.5 134.5v287q0 137 97 216.5t271 79.5zM311 1778q55 0 94 -40q41 -40 41 -81t-11 -65t-30 -42q-39 -40 -94 -40t-94 40q-41 40 -41 80q0 68 40 108t95 40zM602.5 1592q-10.5 24 -10.5 51.5t10.5 52t28.5 42.5q40 40 81.5 40t66 -10.5t42.5 -29.5
q40 -39 40 -80.5t-10.5 -65.5t-29.5 -42q-39 -40 -80.5 -40t-66 10.5t-43 29t-29 42.5z" />
    <glyph glyph-name="Igrave" unicode="&#xcc;" horiz-adv-x="855" 
d="M267 1003q0 -78 -73 -108q-22 -9 -46.5 -9t-46 9t-37.5 25q-34 34 -34 83v60q0 123 88 209q88 87 208 87h218q49 0 74 -25q44 -44 44 -95v-943q0 -123 -86 -209q-87 -87 -209 -87h-116q-38 0 -64 26t-26 63.5t26 64.5t64 27h57q49 0 75 25q43 41 43 92v881h-45
q-48 0 -73 -26q-41 -44 -41 -93v-57zM631 1602q17 -23 17 -48.5t-13 -39.5q-22 -22 -48 -22t-50 16l-220 154q-63 43 -63 113q0 44 25 69q42 42 79 42q68 0 116 -66z" />
    <glyph glyph-name="Iacute" unicode="&#xcd;" horiz-adv-x="855" 
d="M267 1003q0 -78 -73 -108q-22 -9 -46.5 -9t-46 9t-37.5 25q-34 34 -34 83v60q0 123 88 209q88 87 208 87h218q49 0 74 -25q44 -44 44 -95v-943q0 -123 -86 -209q-87 -87 -209 -87h-116q-38 0 -64 26t-26 63.5t26 64.5t64 27h57q49 0 75 25q43 41 43 92v881h-45
q-48 0 -73 -26q-41 -44 -41 -93v-57zM547 1820q48 66 111 66q42 0 67 -26q42 -41 42 -79q0 -76 -63 -119l-220 -154q-24 -16 -43 -16q-34 0 -51 18t-17 43.5t17 48.5z" />
    <glyph glyph-name="Icircumflex" unicode="&#xce;" horiz-adv-x="855" 
d="M267 1003q0 -78 -73 -108q-22 -9 -46.5 -9t-46 9t-37.5 25q-34 34 -34 83v60q0 123 88 209q88 87 208 87h218q49 0 74 -25q44 -44 44 -95v-943q0 -123 -86 -209q-87 -87 -209 -87h-116q-38 0 -64 26t-26 63.5t26 64.5t64 27h57q49 0 75 25q43 41 43 92v881h-45
q-48 0 -73 -26q-41 -44 -41 -93v-57zM742 1599q13 -24 13 -46t-17 -41t-37 -19q-40 0 -60 20l-131 134l-131 -134q-20 -20 -50 -20t-47 19t-17 41t13 46l120 213q42 76 113 76q65 0 111 -76z" />
    <glyph glyph-name="Idieresis" unicode="&#xcf;" horiz-adv-x="855" 
d="M267 1003q0 -78 -73 -108q-22 -9 -46.5 -9t-46 9t-37.5 25q-34 34 -34 83v60q0 123 88 209q88 87 208 87h218q49 0 74 -25q44 -44 44 -95v-943q0 -123 -86 -209q-87 -87 -209 -87h-116q-38 0 -64 26t-26 63.5t26 64.5t64 27h57q49 0 75 25q43 41 43 92v881h-45
q-48 0 -73 -26q-41 -44 -41 -93v-57zM298 1778q55 0 94 -40q41 -40 41 -81t-11 -65t-30 -42q-39 -40 -94 -40t-94 40q-41 40 -41 80q0 68 40 108t95 40zM589.5 1592q-10.5 24 -10.5 51.5t10.5 52t28.5 42.5q40 40 81.5 40t66 -10.5t42.5 -29.5q40 -39 40 -80.5t-10.5 -65.5
t-29.5 -42q-39 -40 -80.5 -40t-66 10.5t-43 29t-29 42.5z" />
    <glyph glyph-name="Eth" unicode="&#xd0;" horiz-adv-x="1321" 
d="M297 1003q0 -78 -73 -108q-22 -9 -46.5 -9t-46 9t-37.5 25q-34 32 -34 83v60q0 122 87 209t209 87h514q122 0 209 -87q86 -86 86 -209v-767q0 -123 -86 -209q-87 -87 -209 -87h-546q-37 0 -57 19q-34 32 -34 60.5t7 45t20 29.5q27 27 64 27h132v378h-127q-27 0 -44.5 16
t-17 40t17 40t41.5 16h130v285q0 95 86 175q8 8 8 17.5t-6.5 20t-25.5 10.5h-113q-44 0 -68 -27q-40 -45 -40 -92v-57zM693 559v-378h119q76 0 108 71q9 21 9 46v762q0 48 -25 74q-43 45 -92 45h-10q-47 -3 -78 -36t-31 -82v-390h60q24 0 40.5 -16.5t16.5 -40.5t-16.5 -39.5
t-39.5 -15.5h-61z" />
    <glyph glyph-name="Ntilde" unicode="&#xd1;" horiz-adv-x="1193" 
d="M192 1003q0 -78 -73 -108q-22 -9 -46.5 -9t-46 9t-36.5 25q-35 34 -35 83v60q0 123 87 209q89 87 209 87h200q59 0 95 -49q15 -24 28.5 -24t21.5 8l18 17q73 68 168 68q108 0 186 -87q76 -86 76 -209l1 -985q0 -76 -71 -108q-22 -9 -46.5 -9t-46.5 9.5t-38 25.5
q-35 33 -35 82l-1 982q0 50 -25 75q-44 44 -92 44t-74 -23q-47 -42 -47 -89v-791q0 -123 -86 -209q-87 -87 -209 -87h-86q-38 0 -64 26t-26 63.5t26 64.5t64 27h27q49 0 75 25q43 41 43 92v881h-27q-48 -2 -72 -27q-42 -44 -42 -92v-57zM925 1767q20 17 45.5 17t42 -18
t16.5 -44t-20.5 -56t-45 -59t-53.5 -51q-60 -45 -126 -45t-107 29t-61 52l-26 32q-7 7 -16 7q-11 0 -38 -23l-62 -52q-20 -17 -45.5 -17t-42 18t-16.5 44t20 56t44.5 59.5t53.5 50.5q61 45 135 45q79 0 137 -60l35 -37q8 -8 14.5 -15.5t15.5 -7.5q11 0 38 23z" />
    <glyph glyph-name="Ograve" unicode="&#xd2;" horiz-adv-x="1022" 
d="M373 1126.5q-10 -21.5 -10 -49.5t13 -49.5t29 -41.5q42 -51 42 -84.5t-9 -55t-25 -36.5q-35 -34 -80.5 -34t-79 23t-57.5 63q-50 85 -50 222q0 135 96 214q97 81 269 81q167 0 263 -81q92 -78 92 -213v-808q0 -137 -94 -217q-93 -79 -261 -79t-263 79q-92 77 -92 214v326
q0 49 26 74q43 44 80.5 44t59 -9t37.5 -25q34 -34 34 -84v-332q0 -51 34 -78.5t84.5 -27.5t84 27.5t33.5 78.5v812q0 50 -34.5 84.5t-79 34.5t-70.5 -9.5t-44 -25.5t-28 -37.5zM681 1602q17 -23 17 -48.5t-13 -39.5q-22 -22 -48 -22t-50 16l-220 154q-63 43 -63 113
q0 44 25 69q42 42 79 42q68 0 116 -66z" />
    <glyph glyph-name="Oacute" unicode="&#xd3;" horiz-adv-x="1022" 
d="M373 1126.5q-10 -21.5 -10 -49.5t13 -49.5t29 -41.5q42 -51 42 -84.5t-9 -55t-25 -36.5q-35 -34 -80.5 -34t-79 23t-57.5 63q-50 85 -50 222q0 135 96 214q97 81 269 81q167 0 263 -81q92 -78 92 -213v-808q0 -137 -94 -217q-93 -79 -261 -79t-263 79q-92 77 -92 214v326
q0 49 26 74q43 44 80.5 44t59 -9t37.5 -25q34 -34 34 -84v-332q0 -51 34 -78.5t84.5 -27.5t84 27.5t33.5 78.5v812q0 50 -34.5 84.5t-79 34.5t-70.5 -9.5t-44 -25.5t-28 -37.5zM597 1820q48 66 111 66q42 0 67 -26q42 -41 42 -79q0 -76 -63 -119l-220 -154q-24 -16 -43 -16
q-34 0 -51 18t-17 43.5t17 48.5z" />
    <glyph glyph-name="Ocircumflex" unicode="&#xd4;" horiz-adv-x="1022" 
d="M373 1126.5q-10 -21.5 -10 -49.5t13 -49.5t29 -41.5q42 -51 42 -84.5t-9 -55t-25 -36.5q-35 -34 -80.5 -34t-79 23t-57.5 63q-50 85 -50 222q0 135 96 214q97 81 269 81q167 0 263 -81q92 -78 92 -213v-808q0 -137 -94 -217q-93 -79 -261 -79t-263 79q-92 77 -92 214v326
q0 49 26 74q43 44 80.5 44t59 -9t37.5 -25q34 -34 34 -84v-332q0 -51 34 -78.5t84.5 -27.5t84 27.5t33.5 78.5v812q0 50 -34.5 84.5t-79 34.5t-70.5 -9.5t-44 -25.5t-28 -37.5zM792 1599q13 -24 13 -46t-17 -41t-37 -19q-40 0 -60 20l-131 134l-131 -134q-20 -20 -50 -20
t-47 19t-17 41t13 46l120 213q42 76 113 76q65 0 111 -76z" />
    <glyph glyph-name="Otilde" unicode="&#xd5;" horiz-adv-x="1022" 
d="M373 1126.5q-10 -21.5 -10 -49.5t13 -49.5t29 -41.5q42 -51 42 -84.5t-9 -55t-25 -36.5q-35 -34 -80.5 -34t-79 23t-57.5 63q-50 85 -50 222q0 135 96 214q97 81 269 81q167 0 263 -81q92 -78 92 -213v-808q0 -137 -94 -217q-93 -79 -261 -79t-263 79q-92 77 -92 214v326
q0 49 26 74q43 44 80.5 44t59 -9t37.5 -25q34 -34 34 -84v-332q0 -51 34 -78.5t84.5 -27.5t84 27.5t33.5 78.5v812q0 50 -34.5 84.5t-79 34.5t-70.5 -9.5t-44 -25.5t-28 -37.5zM794 1767q20 17 45.5 17t42 -18t16.5 -44t-20.5 -56t-45 -59t-53.5 -51q-60 -45 -126 -45
t-107 29t-61 52l-26 32q-7 7 -16 7q-11 0 -38 -23l-62 -52q-20 -17 -45.5 -17t-42 18t-16.5 44t20 56t44.5 59.5t53.5 50.5q61 45 135 45q79 0 137 -60l35 -37q8 -8 14.5 -15.5t15.5 -7.5q11 0 38 23z" />
    <glyph glyph-name="Odieresis" unicode="&#xd6;" horiz-adv-x="1022" 
d="M373 1126.5q-10 -21.5 -10 -49.5t13 -49.5t29 -41.5q42 -51 42 -84.5t-9 -55t-25 -36.5q-35 -34 -80.5 -34t-79 23t-57.5 63q-50 85 -50 222q0 135 96 214q97 81 269 81q167 0 263 -81q92 -78 92 -213v-808q0 -137 -94 -217q-93 -79 -261 -79t-263 79q-92 77 -92 214v326
q0 49 26 74q43 44 80.5 44t59 -9t37.5 -25q34 -34 34 -84v-332q0 -51 34 -78.5t84.5 -27.5t84 27.5t33.5 78.5v812q0 50 -34.5 84.5t-79 34.5t-70.5 -9.5t-44 -25.5t-28 -37.5zM348 1778q55 0 94 -40q41 -40 41 -81t-11 -65t-30 -42q-39 -40 -94 -40t-94 40q-41 40 -41 80
q0 68 40 108t95 40zM639.5 1592q-10.5 24 -10.5 51.5t10.5 52t28.5 42.5q40 40 81.5 40t66 -10.5t42.5 -29.5q40 -39 40 -80.5t-10.5 -65.5t-29.5 -42q-39 -40 -80.5 -40t-66 10.5t-43 29t-29 42.5z" />
    <glyph glyph-name="multiply" unicode="&#xd7;" 
d="M155 966q0 37 21 58q33 33 71 33q36 0 61 -25l203 -203l204 203q25 25 61 25q38 0 58 -20q34 -34 34 -71t-25 -62l-204 -203l204 -203q25 -25 25 -62t-20 -58q-34 -33 -72 -33q-36 0 -61 25l-204 203l-203 -203q-25 -25 -61 -25q-38 0 -58 20q-34 34 -34 71t25 62
l203 203l-203 203q-25 25 -25 62z" />
    <glyph glyph-name="Oslash" unicode="&#xd8;" horiz-adv-x="1095" 
d="M584 1379q227 0 313 -139l70 125q17 30 39.5 30t44.5 -11.5t22 -34.5t-8 -37l-126 -228v-807q0 -137 -93 -217q-94 -79 -254.5 -79t-250.5 64l-34 -62q-17 -34 -41 -34q-66 0 -66 54q0 15 8 31l54 98q-33 60 -33 142v326q0 49 25 74q44 44 81.5 44t59 -9t37.5 -25
q34 -34 34 -84v-140l236 450v170q0 50 -34.5 84.5t-79 34.5t-70.5 -9.5t-44 -25.5q-38 -34 -38 -74.5t13 -62t29 -41.5q42 -51 42 -84.5t-9 -55t-25 -36.5q-35 -34 -80.5 -34t-79 23t-57.5 63q-50 85 -50 222q0 135 95 214q98 81 270 81zM500 189.5q34 -27.5 84.5 -27.5
t84 27.5t33.5 78.5v451l-236 -450v-1q0 -51 34 -78.5z" />
    <glyph glyph-name="Ugrave" unicode="&#xd9;" horiz-adv-x="1362" 
d="M1007.5 1369.5q21.5 9.5 46 9.5t46 -9.5t37.5 -25.5q35 -33 35 -82v-1161q0 -49 -26 -76q-65 -67 -138 -36q-41 17 -62 60q-12 25 -26 25t-22 -8l-18 -17q-28 -26 -64 -47t-91.5 -21t-103.5 23.5t-83 63.5q-77 86 -77 209v902h-46q-48 0 -73 -26q-41 -44 -41 -93v-57
q0 -78 -73 -108q-22 -9 -46.5 -9t-46 9t-37.5 25q-34 32 -34 83v60q0 122 87 209t209 87h218q49 0 75 -25q45 -43 45 -92v-962q0 -50 25 -75q44 -44 92 -44q79 0 110 62q10 20 10 45v994q0 49 25.5 73.5t47 34zM975 1602q17 -23 17 -48.5t-13 -39.5q-22 -22 -48 -22t-50 16
l-220 154q-63 43 -63 113q0 44 25 69q42 42 79 42q68 0 116 -66z" />
    <glyph glyph-name="Uacute" unicode="&#xda;" horiz-adv-x="1362" 
d="M1007.5 1369.5q21.5 9.5 46 9.5t46 -9.5t37.5 -25.5q35 -33 35 -82v-1161q0 -49 -26 -76q-65 -67 -138 -36q-41 17 -62 60q-12 25 -26 25t-22 -8l-18 -17q-28 -26 -64 -47t-91.5 -21t-103.5 23.5t-83 63.5q-77 86 -77 209v902h-46q-48 0 -73 -26q-41 -44 -41 -93v-57
q0 -78 -73 -108q-22 -9 -46.5 -9t-46 9t-37.5 25q-34 32 -34 83v60q0 122 87 209t209 87h218q49 0 75 -25q45 -43 45 -92v-962q0 -50 25 -75q44 -44 92 -44q79 0 110 62q10 20 10 45v994q0 49 25.5 73.5t47 34zM891 1820q48 66 111 66q42 0 67 -26q42 -41 42 -79
q0 -76 -63 -119l-220 -154q-24 -16 -43 -16q-34 0 -51 18t-17 43.5t17 48.5z" />
    <glyph glyph-name="Ucircumflex" unicode="&#xdb;" horiz-adv-x="1362" 
d="M1007.5 1369.5q21.5 9.5 46 9.5t46 -9.5t37.5 -25.5q35 -33 35 -82v-1161q0 -49 -26 -76q-65 -67 -138 -36q-41 17 -62 60q-12 25 -26 25t-22 -8l-18 -17q-28 -26 -64 -47t-91.5 -21t-103.5 23.5t-83 63.5q-77 86 -77 209v902h-46q-48 0 -73 -26q-41 -44 -41 -93v-57
q0 -78 -73 -108q-22 -9 -46.5 -9t-46 9t-37.5 25q-34 32 -34 83v60q0 122 87 209t209 87h218q49 0 75 -25q45 -43 45 -92v-962q0 -50 25 -75q44 -44 92 -44q79 0 110 62q10 20 10 45v994q0 49 25.5 73.5t47 34zM1086 1599q13 -24 13 -46t-17 -41t-37 -19q-40 0 -60 20
l-131 134l-131 -134q-20 -20 -50 -20t-47 19t-17 41t13 46l120 213q42 76 113 76q65 0 111 -76z" />
    <glyph glyph-name="Udieresis" unicode="&#xdc;" horiz-adv-x="1362" 
d="M1007.5 1369.5q21.5 9.5 46 9.5t46 -9.5t37.5 -25.5q35 -33 35 -82v-1161q0 -49 -26 -76q-65 -67 -138 -36q-41 17 -62 60q-12 25 -26 25t-22 -8l-18 -17q-28 -26 -64 -47t-91.5 -21t-103.5 23.5t-83 63.5q-77 86 -77 209v902h-46q-48 0 -73 -26q-41 -44 -41 -93v-57
q0 -78 -73 -108q-22 -9 -46.5 -9t-46 9t-37.5 25q-34 32 -34 83v60q0 122 87 209t209 87h218q49 0 75 -25q45 -43 45 -92v-962q0 -50 25 -75q44 -44 92 -44q79 0 110 62q10 20 10 45v994q0 49 25.5 73.5t47 34zM642 1778q55 0 94 -40q41 -40 41 -81t-11 -65t-30 -42
q-39 -40 -94 -40t-94 40q-41 40 -41 80q0 68 40 108t95 40zM933.5 1592q-10.5 24 -10.5 51.5t10.5 52t28.5 42.5q40 40 81.5 40t66 -10.5t42.5 -29.5q40 -39 40 -80.5t-10.5 -65.5t-29.5 -42q-39 -40 -80.5 -40t-66 10.5t-43 29t-29 42.5z" />
    <glyph glyph-name="Yacute" unicode="&#xdd;" horiz-adv-x="1361" 
d="M1005.5 1369.5q21.5 9.5 46 9.5t46.5 -9.5t38 -25.5q35 -33 35 -82v-966q0 -122 -89 -209q-88 -87 -210 -87h-177q-38 0 -64.5 26t-26.5 64t26.5 64.5t64.5 26.5h118q79 0 111 71q9 22 9 46v137q0 19 -10.5 25.5t-20.5 6.5t-18 -9l-17 -16q-68 -68 -158 -68
q-107 0 -179 87q-71 86 -71 209v509h-44q-48 0 -73 -26q-41 -44 -41 -93v-57q0 -78 -73 -108q-22 -9 -46.5 -9t-46 9t-37.5 25q-34 34 -34 83v60q0 123 88 209q88 87 208 87h217q48 0 74 -25q45 -43 45 -92v-569q0 -49 26 -75q44 -44 80.5 -44t57.5 7.5t38 21.5q35 30 35 78
v601q0 49 25.5 73.5t47 34zM891 1820q48 66 111 66q42 0 67 -26q42 -41 42 -79q0 -76 -63 -119l-220 -154q-24 -16 -43 -16q-34 0 -51 18t-17 43.5t17 48.5z" />
    <glyph glyph-name="Thorn" unicode="&#xde;" horiz-adv-x="1116" 
d="M-63 799q0 120 87 209q86 87 209 87h100v167q0 76 71 108q22 9 46.5 9t46.5 -9t38 -25q35 -35 35 -83v-167h182q122 0 206 -87q83 -87 83 -209v-169q0 -124 -86 -210t-209 -86h-176v-236q0 -76 -72 -108q-21 -9 -45.5 -9t-46.5 9.5t-38 25.5q-35 33 -35 82v817h-51
q-44 0 -68 -27q-40 -45 -40 -92v-57q0 -78 -73 -108q-22 -9 -46.5 -9t-46 9t-36.5 25q-35 34 -35 83v60zM805 796q0 48 -25 74q-43 45 -91 45h-119v-403h118q49 0 73 26q44 45 44 94v164z" />
    <glyph glyph-name="germandbls" unicode="&#xdf;" 
d="M738 921q146 -65 146 -225v-400q0 -133 -84 -214q-86 -82 -230 -82q-35 0 -54 20q-34 33 -34 70.5t25.5 64t60 26.5t57.5 30t23 75v421q0 51 -27.5 82t-62 37t-56 31t-21.5 58.5t20.5 58t51.5 32.5q57 15 57 115v118q0 50 -28.5 84.5t-65.5 34.5t-56.5 -9.5t-33.5 -25.5
q-32 -35 -32 -84v-1122q0 -48 -26 -73q-43 -44 -80 -44t-59 9.5t-38 24.5q-35 34 -35 83v1125q0 136 92 216q93 80 254 80q167 0 258 -80q87 -78 87 -214v-93q0 -156 -109 -230z" />
    <glyph glyph-name="agrave" unicode="&#xe0;" 
d="M244 975q0 60 56 84q16 7 35 7h236q122 0 209 -87t87 -209v-673q0 -76 -72 -107q-22 -10 -48 -10t-44.5 8.5t-31.5 19.5q-11 10 -22 28.5t-17 27.5t-19 9t-21 -9l-16 -17q-67 -67 -157 -67q-107 0 -185 88q-78 87 -78 208v138q0 122 87 209q86 86 209 86h178v58
q0 50 -25 75q-44 44 -93 44h-177q-37 0 -57 19q-34 32 -34 70zM393 278q0 -51 25 -75q44 -42 81 -42t58.5 7t37.5 20q35 28 35 74v268h-118q-51 0 -76 -25q-43 -43 -43 -93v-134zM632 1329q17 -23 17 -48.5t-13 -39.5q-22 -22 -48 -22t-50 16l-220 154q-63 43 -63 113
q0 44 25 70q42 41 79 41q68 0 116 -66z" />
    <glyph glyph-name="aacute" unicode="&#xe1;" 
d="M244 975q0 60 56 84q16 7 35 7h236q122 0 209 -87t87 -209v-673q0 -76 -72 -107q-22 -10 -48 -10t-44.5 8.5t-31.5 19.5q-11 10 -22 28.5t-17 27.5t-19 9t-21 -9l-16 -17q-67 -67 -157 -67q-107 0 -185 88q-78 87 -78 208v138q0 122 87 209q86 86 209 86h178v58
q0 50 -25 75q-44 44 -93 44h-177q-37 0 -57 19q-34 32 -34 70zM393 278q0 -51 25 -75q44 -42 81 -42t58.5 7t37.5 20q35 28 35 74v268h-118q-51 0 -76 -25q-43 -43 -43 -93v-134zM548 1547q48 66 111 66q42 0 67 -25q42 -42 42 -80q0 -76 -63 -119l-220 -154
q-24 -16 -43 -16q-34 0 -51 18t-17 43.5t17 48.5z" />
    <glyph glyph-name="acircumflex" unicode="&#xe2;" 
d="M244 975q0 60 56 84q16 7 35 7h236q122 0 209 -87t87 -209v-673q0 -76 -72 -107q-22 -10 -48 -10t-44.5 8.5t-31.5 19.5q-11 10 -22 28.5t-17 27.5t-19 9t-21 -9l-16 -17q-67 -67 -157 -67q-107 0 -185 88q-78 87 -78 208v138q0 122 87 209q86 86 209 86h178v58
q0 50 -25 75q-44 44 -93 44h-177q-37 0 -57 19q-34 32 -34 70zM393 278q0 -51 25 -75q44 -42 81 -42t58.5 7t37.5 20q35 28 35 74v268h-118q-51 0 -76 -25q-43 -43 -43 -93v-134zM744 1326q13 -24 13 -46t-17 -41t-37 -19q-40 0 -60 20l-131 134l-131 -134q-20 -20 -50 -20
t-47 19t-17 41t13 46l120 213q42 76 113 76q65 0 111 -76z" />
    <glyph glyph-name="atilde" unicode="&#xe3;" 
d="M244 975q0 60 56 84q16 7 35 7h236q122 0 209 -87t87 -209v-673q0 -76 -72 -107q-22 -10 -48 -10t-44.5 8.5t-31.5 19.5q-11 10 -22 28.5t-17 27.5t-19 9t-21 -9l-16 -17q-67 -67 -157 -67q-107 0 -185 88q-78 87 -78 208v138q0 122 87 209q86 86 209 86h178v58
q0 50 -25 75q-44 44 -93 44h-177q-37 0 -57 19q-34 32 -34 70zM393 278q0 -51 25 -75q44 -42 81 -42t58.5 7t37.5 20q35 28 35 74v268h-118q-51 0 -76 -25q-43 -43 -43 -93v-134zM760 1474q20 17 45.5 17t42 -18t16.5 -44t-20.5 -56t-45 -59t-52.5 -50q-61 -46 -127 -46
t-107 29t-61 53l-27 30q-6 8 -16 8t-37 -23l-62 -52q-20 -17 -45.5 -17t-42 18t-16.5 44t20 56t44.5 59.5t52.5 50.5q62 45 136 45q79 0 138 -60l34 -37q8 -8 14.5 -15.5t15.5 -7.5q11 0 38 23z" />
    <glyph glyph-name="adieresis" unicode="&#xe4;" 
d="M244 975q0 60 56 84q16 7 35 7h236q122 0 209 -87t87 -209v-673q0 -76 -72 -107q-22 -10 -48 -10t-44.5 8.5t-31.5 19.5q-11 10 -22 28.5t-17 27.5t-19 9t-21 -9l-16 -17q-67 -67 -157 -67q-107 0 -185 88q-78 87 -78 208v138q0 122 87 209q86 86 209 86h178v58
q0 50 -25 75q-44 44 -93 44h-177q-37 0 -57 19q-34 32 -34 70zM393 278q0 -51 25 -75q44 -42 81 -42t58.5 7t37.5 20q35 28 35 74v268h-118q-51 0 -76 -25q-43 -43 -43 -93v-134zM311 1485q55 0 95 -39q40 -41 40 -82t-11 -65t-29 -43q-40 -39 -95 -39t-95 39q-40 41 -40 82
q0 67 40 107t95 40zM582.5 1299q-10.5 24 -10.5 51.5t10.5 52t29.5 43.5q39 39 80.5 39t66 -10.5t43.5 -28.5q39 -40 39 -81.5t-10.5 -65.5t-28.5 -43q-40 -39 -81.5 -39t-66 10.5t-43 29t-29 42.5z" />
    <glyph glyph-name="aring" unicode="&#xe5;" 
d="M244 975q0 60 56 84q16 7 35 7h236q122 0 209 -87t87 -209v-673q0 -76 -72 -107q-22 -10 -48 -10t-44.5 8.5t-31.5 19.5q-11 10 -22 28.5t-17 27.5t-19 9t-21 -9l-16 -17q-67 -67 -157 -67q-107 0 -185 88q-78 87 -78 208v138q0 122 87 209q86 86 209 86h178v58
q0 50 -25 75q-44 44 -93 44h-177q-37 0 -57 19q-34 32 -34 70zM393 278q0 -51 25 -75q44 -42 81 -42t58.5 7t37.5 20q35 28 35 74v268h-118q-51 0 -76 -25q-43 -43 -43 -93v-134zM518 1218q-45 0 -85 17.5t-71 46.5q-65 64 -65 155t65 155q68 66 156 66q91 0 156 -66
q63 -65 63 -155q0 -92 -63.5 -155.5t-155.5 -63.5zM554.5 1525q-17.5 8 -48 8t-58 -28t-27.5 -57.5t8 -47t21 -30.5q30 -28 58 -28t45.5 8t30.5 21q30 28 30 56.5t-8 46t-21 30.5t-30.5 21z" />
    <glyph glyph-name="ae" unicode="&#xe6;" horiz-adv-x="1496" 
d="M244 975q0 60 56 84q16 7 35 7h146q164 0 243 -81q11 -12 23 -12t23 12q84 100 244 100q141 0 232 -79q94 -83 94 -217v-284q0 -50 -25 -75q-43 -43 -94 -43h-354v-99q0 -70 71 -98q22 -9 47 -9h177q38 0 64 -27t26 -64.5t-26 -63.5t-64 -26h-147q-164 0 -243 81
q-11 12 -23 12t-23 -12q-84 -100 -244 -100q-141 0 -232 79q-94 83 -94 217v137q0 122 87 209q86 86 209 86h178v58q0 50 -25 75q-44 44 -93 44h-177q-37 0 -57 19q-34 32 -34 70zM393 278q0 -51 25 -75q44 -42 81 -42t58.5 7t37.5 20q35 28 35 74v268h-118q-51 0 -76 -25
q-43 -43 -43 -93v-134zM1103 787q0 50 -25 75q-44 44 -93 44t-75 -26q-43 -43 -43 -93v-225h236v225z" />
    <glyph glyph-name="ccedilla" unicode="&#xe7;" 
d="M467 -204q-27 0 -44 16t-17 40t14 57l40 91h-8q-122 0 -209 87t-87 209v496q0 129 87 208q95 86 268 86q233 0 311 -108q25 -33 25 -66.5t-9 -55t-25 -37.5q-34 -34 -77 -34q-70 0 -115 68q-43 53 -110 53q-49 0 -75 -26q-43 -43 -43 -93v-489q0 -51 25 -75
q44 -42 93 -42h246q59 0 83 -57q7 -16 7 -34.5t-7 -35t-19 -28.5q-26 -26 -64 -26h-163l-40 -92q92 0 146 -52q48 -46 48 -121q0 -119 -124 -159q-41 -14 -97 -14h-161q-23 0 -39 16.5t-16 40t16 40t39 16.5h121q32 0 52.5 18.5t20.5 43t-19.5 42t-47.5 17.5h-26z" />
    <glyph glyph-name="egrave" unicode="&#xe8;" 
d="M752 154q26 -27 26 -64.5t-26 -63.5t-64 -26h-236q-122 0 -209 87t-87 209v491q0 136 92 217q96 82 264 82q166 0 262 -82q93 -82 93 -219v-280q0 -50 -25 -75q-43 -43 -94 -43h-355v-89q0 -51 25 -75q44 -42 93 -42h177q38 0 64 -27zM630 787q0 50 -25 75q-44 44 -93 44
q-50 0 -76 -26q-43 -43 -43 -93v-225h237v225zM622 1349q17 -23 17 -48.5t-13 -39.5q-22 -22 -48 -22t-50 16l-220 154q-63 43 -63 113q0 44 25 70q42 41 79 41q68 0 116 -66z" />
    <glyph glyph-name="eacute" unicode="&#xe9;" 
d="M752 154q26 -27 26 -64.5t-26 -63.5t-64 -26h-236q-122 0 -209 87t-87 209v491q0 136 92 217q96 82 264 82q166 0 262 -82q93 -82 93 -219v-280q0 -50 -25 -75q-43 -43 -94 -43h-355v-89q0 -51 25 -75q44 -42 93 -42h177q38 0 64 -27zM630 787q0 50 -25 75q-44 44 -93 44
q-50 0 -76 -26q-43 -43 -43 -93v-225h237v225zM538 1567q48 66 111 66q42 0 67 -25q42 -42 42 -80q0 -76 -63 -119l-220 -154q-24 -16 -43 -16q-34 0 -51 18t-17 43.5t17 48.5z" />
    <glyph glyph-name="ecircumflex" unicode="&#xea;" 
d="M752 154q26 -27 26 -64.5t-26 -63.5t-64 -26h-236q-122 0 -209 87t-87 209v491q0 136 92 217q96 82 264 82q166 0 262 -82q93 -82 93 -219v-280q0 -50 -25 -75q-43 -43 -94 -43h-355v-89q0 -51 25 -75q44 -42 93 -42h177q38 0 64 -27zM630 787q0 50 -25 75q-44 44 -93 44
q-50 0 -76 -26q-43 -43 -43 -93v-225h237v225zM734 1346q13 -24 13 -46t-17 -41t-37 -19q-40 0 -60 20l-131 134l-131 -134q-20 -20 -50 -20t-47 19t-17 41t13 46l120 213q42 76 113 76q65 0 111 -76z" />
    <glyph glyph-name="edieresis" unicode="&#xeb;" 
d="M752 154q26 -27 26 -64.5t-26 -63.5t-64 -26h-236q-122 0 -209 87t-87 209v491q0 136 92 217q96 82 264 82q166 0 262 -82q93 -82 93 -219v-280q0 -50 -25 -75q-43 -43 -94 -43h-355v-89q0 -51 25 -75q44 -42 93 -42h177q38 0 64 -27zM630 787q0 50 -25 75q-44 44 -93 44
q-50 0 -76 -26q-43 -43 -43 -93v-225h237v225zM301 1505q55 0 95 -39q40 -41 40 -82t-11 -65t-29 -43q-40 -39 -95 -39t-95 39q-40 41 -40 82q0 67 40 107t95 40zM572.5 1319q-10.5 24 -10.5 51.5t10.5 52t29.5 43.5q39 39 80.5 39t66 -10.5t43.5 -28.5q39 -40 39 -81.5
t-10.5 -65.5t-28.5 -43q-40 -39 -81.5 -39t-66 10.5t-43 29t-29 42.5z" />
    <glyph glyph-name="igrave" unicode="&#xec;" horiz-adv-x="678" 
d="M219 966q0 49 25 76q43 44 95 44q50 0 74 -26q44 -45 44 -94v-869q0 -48 -25 -73q-44 -44 -81 -44t-59 9.5t-38 24.5q-35 34 -35 83v869zM459 1349q17 -23 17 -48.5t-13 -39.5q-22 -22 -48 -22t-50 16l-220 154q-63 43 -63 113q0 44 25 70q42 41 79 41q68 0 116 -66z" />
    <glyph glyph-name="iacute" unicode="&#xed;" horiz-adv-x="678" 
d="M219 966q0 49 25 76q43 44 95 44q50 0 74 -26q44 -45 44 -94v-869q0 -48 -25 -73q-44 -44 -81 -44t-59 9.5t-38 24.5q-35 34 -35 83v869zM375 1567q48 66 111 66q42 0 67 -25q42 -42 42 -80q0 -76 -63 -119l-220 -154q-24 -16 -43 -16q-34 0 -51 18t-17 43.5t17 48.5z
" />
    <glyph glyph-name="icircumflex" unicode="&#xee;" horiz-adv-x="678" 
d="M219 966q0 49 25 76q43 44 95 44q50 0 74 -26q44 -45 44 -94v-869q0 -48 -25 -73q-44 -44 -81 -44t-59 9.5t-38 24.5q-35 34 -35 83v869zM571 1346q13 -24 13 -46t-17 -41t-37 -19q-40 0 -60 20l-131 134l-131 -134q-20 -20 -50 -20t-47 19t-17 41t13 46l120 213
q42 76 113 76q65 0 111 -76z" />
    <glyph glyph-name="idieresis" unicode="&#xef;" horiz-adv-x="678" 
d="M219 966q0 49 25 76q43 44 95 44q50 0 74 -26q44 -45 44 -94v-869q0 -48 -25 -73q-44 -44 -81 -44t-59 9.5t-38 24.5q-35 34 -35 83v869zM138 1505q55 0 95 -39q40 -41 40 -82t-11 -65t-29 -43q-40 -39 -95 -39t-95 39q-40 41 -40 82q0 67 40 107t95 40zM409.5 1319
q-10.5 24 -10.5 51.5t10.5 52t29.5 43.5q39 39 80.5 39t66 -10.5t43.5 -28.5q39 -40 39 -81.5t-10.5 -65.5t-28.5 -43q-40 -39 -81.5 -39t-66 10.5t-43 29t-29 42.5z" />
    <glyph glyph-name="eth" unicode="&#xf0;" 
d="M671 1317q194 -194 194 -450v-590q0 -136 -93 -215q-94 -81 -261 -81t-263 81q-92 78 -92 213v438q0 122 72 209t179 87q90 0 155 -68l17 -17q8 -8 17 -8q30 0 32 30q-20 153 -129 264l-214 -132q-17 -11 -40.5 -11t-36.5 21.5t-13 36.5q0 34 28 50l182 113
q-63 42 -111 62t-65.5 42t-17.5 56.5t25 61t56 26.5q63 0 198 -78q44 -25 91 -61l189 118q15 9 30 9q33 0 46 -21t13 -45t-27 -41zM393 280q0 -50 25 -75q44 -44 93 -44q48 0 73 25q44 44 44 94v442q0 73 -73 100q-21 7 -45.5 7t-46 -9.5t-37.5 -25.5q-33 -35 -33 -84v-430z
" />
    <glyph glyph-name="ntilde" unicode="&#xf1;" 
d="M320.5 -10.5q-21.5 -9.5 -46 -9.5t-46 9t-37.5 25q-35 35 -35 83v869q0 49 26 76q42 44 80.5 44t57 -8.5t31.5 -19.5q19 -16 26.5 -32.5t13.5 -24.5t18.5 -8t20.5 8.5t26 26.5q60 58 131.5 58t119.5 -23.5t83 -64.5q77 -87 77 -208v-693q0 -76 -71 -107
q-22 -10 -46.5 -10t-46.5 9t-38 25q-35 35 -35 83v690q0 49 -24 75q-43 44 -92 44q-80 0 -111 -62q-10 -20 -10 -45v-702q0 -49 -25.5 -73.5t-47 -34zM759 1494q20 17 45.5 17t42 -18t16.5 -44t-20.5 -56t-45 -59t-52.5 -50q-61 -46 -127 -46t-107 29t-61 53l-27 30
q-6 8 -16 8t-37 -23l-62 -52q-20 -17 -45.5 -17t-42 18t-16.5 44t20 56t44.5 59.5t52.5 50.5q62 45 136 45q79 0 138 -60l34 -37q8 -8 14.5 -15.5t15.5 -7.5q11 0 38 23z" />
    <glyph glyph-name="ograve" unicode="&#xf2;" 
d="M156 792q0 135 92 214q96 80 264 80q166 0 262 -80q93 -80 93 -216v-517q0 -209 -204 -273q-66 -20 -150.5 -20t-150.5 20.5t-112 59.5q-94 78 -94 216v516zM630 787q0 50 -25 75q-44 44 -93 44q-50 0 -76 -26q-43 -43 -43 -93v-520q0 -51 34 -78.5t84.5 -27.5t84.5 27.5
t34 78.5v520zM632 1349q17 -23 17 -48.5t-13 -39.5q-22 -22 -48 -22t-50 16l-220 154q-63 43 -63 113q0 44 25 70q42 41 79 41q68 0 116 -66z" />
    <glyph glyph-name="oacute" unicode="&#xf3;" 
d="M156 792q0 135 92 214q96 80 264 80q166 0 262 -80q93 -80 93 -216v-517q0 -209 -204 -273q-66 -20 -150.5 -20t-150.5 20.5t-112 59.5q-94 78 -94 216v516zM630 787q0 50 -25 75q-44 44 -93 44q-50 0 -76 -26q-43 -43 -43 -93v-520q0 -51 34 -78.5t84.5 -27.5t84.5 27.5
t34 78.5v520zM548 1567q48 66 111 66q42 0 67 -25q42 -42 42 -80q0 -76 -63 -119l-220 -154q-24 -16 -43 -16q-34 0 -51 18t-17 43.5t17 48.5z" />
    <glyph glyph-name="ocircumflex" unicode="&#xf4;" 
d="M156 792q0 135 92 214q96 80 264 80q166 0 262 -80q93 -80 93 -216v-517q0 -209 -204 -273q-66 -20 -150.5 -20t-150.5 20.5t-112 59.5q-94 78 -94 216v516zM630 787q0 50 -25 75q-44 44 -93 44q-50 0 -76 -26q-43 -43 -43 -93v-520q0 -51 34 -78.5t84.5 -27.5t84.5 27.5
t34 78.5v520zM744 1346q13 -24 13 -46t-17 -41t-37 -19q-40 0 -60 20l-131 134l-131 -134q-20 -20 -50 -20t-47 19t-17 41t13 46l120 213q42 76 113 76q65 0 111 -76z" />
    <glyph glyph-name="otilde" unicode="&#xf5;" 
d="M156 792q0 135 92 214q96 80 264 80q166 0 262 -80q93 -80 93 -216v-517q0 -209 -204 -273q-66 -20 -150.5 -20t-150.5 20.5t-112 59.5q-94 78 -94 216v516zM630 787q0 50 -25 75q-44 44 -93 44q-50 0 -76 -26q-43 -43 -43 -93v-520q0 -51 34 -78.5t84.5 -27.5t84.5 27.5
t34 78.5v520zM760 1494q20 17 45.5 17t42 -18t16.5 -44t-20.5 -56t-45 -59t-52.5 -50q-61 -46 -127 -46t-107 29t-61 53l-27 30q-6 8 -16 8t-37 -23l-62 -52q-20 -17 -45.5 -17t-42 18t-16.5 44t20 56t44.5 59.5t52.5 50.5q62 45 136 45q79 0 138 -60l34 -37
q8 -8 14.5 -15.5t15.5 -7.5q11 0 38 23z" />
    <glyph glyph-name="odieresis" unicode="&#xf6;" 
d="M156 792q0 135 92 214q96 80 264 80q166 0 262 -80q93 -80 93 -216v-517q0 -209 -204 -273q-66 -20 -150.5 -20t-150.5 20.5t-112 59.5q-94 78 -94 216v516zM630 787q0 50 -25 75q-44 44 -93 44q-50 0 -76 -26q-43 -43 -43 -93v-520q0 -51 34 -78.5t84.5 -27.5t84.5 27.5
t34 78.5v520zM311 1505q55 0 95 -39q40 -41 40 -82t-11 -65t-29 -43q-40 -39 -95 -39t-95 39q-40 41 -40 82q0 67 40 107t95 40zM582.5 1319q-10.5 24 -10.5 51.5t10.5 52t29.5 43.5q39 39 80.5 39t66 -10.5t43.5 -28.5q39 -40 39 -81.5t-10.5 -65.5t-28.5 -43
q-40 -39 -81.5 -39t-66 10.5t-43 29t-29 42.5z" />
    <glyph glyph-name="divide" unicode="&#xf7;" 
d="M506 345q55 0 94 -39q41 -41 41 -82t-11 -65t-30 -43q-39 -39 -94 -39t-94 39q-41 41 -41 82q0 67 40 107t95 40zM506 1164q55 0 94 -40q41 -40 41 -81t-11 -65t-30 -42q-39 -40 -94 -40t-94 40q-41 40 -41 80q0 68 40 108t95 40zM911 650.5q7 -16.5 7 -35t-7 -35
t-19 -28.5q-25 -27 -62 -27h-638q-35 0 -54 19q-34 34 -34 62t7 44.5t19 29.5q25 26 62 26h638q35 0 54.5 -19.5t26.5 -36z" />
    <glyph glyph-name="oslash" unicode="&#xf8;" 
d="M512 -20q-160 0 -256 75l-64 -95q-18 -30 -42 -30t-43.5 12.5t-19.5 37t11 39.5l85 126q-27 57 -27 131v516q0 135 92 214q96 80 262 80t260 -78l64 95q16 26 39 26t37 -9q27 -16 27 -40t-10 -38l-86 -127q26 -57 26 -125v-517q0 -209 -204 -273q-66 -20 -151 -20z
M393 425l237 367q-2 48 -27 72q-44 42 -80 42t-58 -9.5t-38 -25.5q-34 -34 -34 -84v-362zM630 627l-237 -366q2 -48 36 -74t83.5 -26t83.5 27.5t34 78.5v360z" />
    <glyph glyph-name="ugrave" unicode="&#xf9;" 
d="M702.5 1076.5q21.5 9.5 46 9.5t46 -9t37.5 -25q35 -35 35 -83v-869q0 -49 -25 -76q-43 -44 -81.5 -44t-57.5 8.5t-31 19.5q-19 16 -26.5 32.5t-13.5 24.5t-18.5 8t-20.5 -8.5t-26 -26.5q-60 -58 -131.5 -58t-119.5 23.5t-84 64.5q-76 87 -76 208v693q0 76 72 107
q21 10 45.5 10t46.5 -9t38 -25q35 -35 35 -83v-690q0 -50 25 -75q44 -44 92 -44q79 0 110 62q10 20 10 45v702q0 49 25.5 73.5t47 34zM641 1349q17 -23 17 -48.5t-13 -39.5q-22 -22 -48 -22t-50 16l-220 154q-63 43 -63 113q0 44 25 70q42 41 79 41q68 0 116 -66z" />
    <glyph glyph-name="uacute" unicode="&#xfa;" 
d="M702.5 1076.5q21.5 9.5 46 9.5t46 -9t37.5 -25q35 -35 35 -83v-869q0 -49 -25 -76q-43 -44 -81.5 -44t-57.5 8.5t-31 19.5q-19 16 -26.5 32.5t-13.5 24.5t-18.5 8t-20.5 -8.5t-26 -26.5q-60 -58 -131.5 -58t-119.5 23.5t-84 64.5q-76 87 -76 208v693q0 76 72 107
q21 10 45.5 10t46.5 -9t38 -25q35 -35 35 -83v-690q0 -50 25 -75q44 -44 92 -44q79 0 110 62q10 20 10 45v702q0 49 25.5 73.5t47 34zM557 1567q48 66 111 66q42 0 67 -25q42 -42 42 -80q0 -76 -63 -119l-220 -154q-24 -16 -43 -16q-34 0 -51 18t-17 43.5t17 48.5z" />
    <glyph glyph-name="ucircumflex" unicode="&#xfb;" 
d="M702.5 1076.5q21.5 9.5 46 9.5t46 -9t37.5 -25q35 -35 35 -83v-869q0 -49 -25 -76q-43 -44 -81.5 -44t-57.5 8.5t-31 19.5q-19 16 -26.5 32.5t-13.5 24.5t-18.5 8t-20.5 -8.5t-26 -26.5q-60 -58 -131.5 -58t-119.5 23.5t-84 64.5q-76 87 -76 208v693q0 76 72 107
q21 10 45.5 10t46.5 -9t38 -25q35 -35 35 -83v-690q0 -50 25 -75q44 -44 92 -44q79 0 110 62q10 20 10 45v702q0 49 25.5 73.5t47 34zM752 1346q13 -24 13 -46t-17 -41t-37 -19q-40 0 -60 20l-131 134l-131 -134q-20 -20 -50 -20t-47 19t-17 41t13 46l120 213q42 76 113 76
q65 0 111 -76z" />
    <glyph glyph-name="udieresis" unicode="&#xfc;" 
d="M702.5 1076.5q21.5 9.5 46 9.5t46 -9t37.5 -25q35 -35 35 -83v-869q0 -49 -25 -76q-43 -44 -81.5 -44t-57.5 8.5t-31 19.5q-19 16 -26.5 32.5t-13.5 24.5t-18.5 8t-20.5 -8.5t-26 -26.5q-60 -58 -131.5 -58t-119.5 23.5t-84 64.5q-76 87 -76 208v693q0 76 72 107
q21 10 45.5 10t46.5 -9t38 -25q35 -35 35 -83v-690q0 -50 25 -75q44 -44 92 -44q79 0 110 62q10 20 10 45v702q0 49 25.5 73.5t47 34zM320 1505q55 0 95 -39q40 -41 40 -82t-11 -65t-29 -43q-40 -39 -95 -39t-95 39q-40 41 -40 82q0 67 40 107t95 40zM591.5 1319
q-10.5 24 -10.5 51.5t10.5 52t29.5 43.5q39 39 80.5 39t66 -10.5t43.5 -28.5q39 -40 39 -81.5t-10.5 -65.5t-28.5 -43q-40 -39 -81.5 -39t-66 10.5t-43 29t-29 42.5z" />
    <glyph glyph-name="yacute" unicode="&#xfd;" 
d="M701.5 1076.5q21.5 9.5 46 9.5t46.5 -9t38 -25q35 -35 35 -83v-1147q0 -123 -87 -209q-89 -87 -211 -87h-177q-38 0 -64.5 26t-26.5 64t26.5 64.5t64.5 26.5h118q51 0 76 25q43 43 43 92v217q0 19 -10.5 25.5t-20.5 6.5t-18 -9l-17 -16q-68 -68 -157 -68q-108 0 -179 88
q-71 87 -71 208v693q0 76 72 107q21 10 45.5 10t46.5 -9t38 -25q35 -35 35 -83v-690q0 -49 25 -75q42 -44 79 -44t58.5 7.5t38.5 21.5q35 30 35 78v702q0 49 25.5 73.5t47 34zM556 1567q48 66 111 66q42 0 67 -25q42 -42 42 -80q0 -76 -63 -119l-220 -154q-24 -16 -43 -16
q-34 0 -51 18t-17 43.5t17 48.5z" />
    <glyph glyph-name="thorn" unicode="&#xfe;" 
d="M156 1419q0 77 72 109q22 10 47 10t46.5 -9.5t37.5 -25.5q35 -35 35 -84v-394q0 -19 10.5 -25.5t19.5 -6.5q13 0 31 19.5t33.5 32t33.5 21.5q40 21 94 21t100 -23.5t80 -63.5q71 -87 71 -211v-494q0 -121 -87 -208t-208 -87h-178v-321q0 -48 -26 -73q-43 -44 -80 -44
t-59 9.5t-38 24.5q-35 34 -35 83v1740zM630 788q0 76 -72 108q-21 9 -45.5 9t-46 -8.5t-37.5 -22.5q-35 -32 -35 -78v-616h118q50 0 75 25q43 43 43 94v489z" />
    <glyph glyph-name="ydieresis" unicode="&#xff;" 
d="M701.5 1076.5q21.5 9.5 46 9.5t46.5 -9t38 -25q35 -35 35 -83v-1147q0 -123 -87 -209q-89 -87 -211 -87h-177q-38 0 -64.5 26t-26.5 64t26.5 64.5t64.5 26.5h118q51 0 76 25q43 43 43 92v217q0 19 -10.5 25.5t-20.5 6.5t-18 -9l-17 -16q-68 -68 -157 -68q-108 0 -179 88
q-71 87 -71 208v693q0 76 72 107q21 10 45.5 10t46.5 -9t38 -25q35 -35 35 -83v-690q0 -49 25 -75q42 -44 79 -44t58.5 7.5t38.5 21.5q35 30 35 78v702q0 49 25.5 73.5t47 34zM319 1505q55 0 95 -39q40 -41 40 -82t-11 -65t-29 -43q-40 -39 -95 -39t-95 39q-40 41 -40 82
q0 67 40 107t95 40zM590.5 1319q-10.5 24 -10.5 51.5t10.5 52t29.5 43.5q39 39 80.5 39t66 -10.5t43.5 -28.5q39 -40 39 -81.5t-10.5 -65.5t-28.5 -43q-40 -39 -81.5 -39t-66 10.5t-43 29t-29 42.5z" />
    <glyph glyph-name="Amacron" unicode="&#x100;" horiz-adv-x="1193" 
d="M427 1148q0 30 -29 30h-116q-45 0 -68 -26q-40 -45 -40 -92v-57q0 -78 -73 -108q-22 -9 -46.5 -9t-46 9t-36.5 25q-35 34 -35 83v60q0 122 87 209t209 87h456q166 0 261 -81q94 -79 94 -215v-965q0 -76 -72 -108q-21 -9 -45.5 -9t-46.5 9.5t-38 25.5q-35 33 -35 82v335
h-237v-335q0 -48 -26 -74q-43 -43 -80 -43t-59 9.5t-38 25.5q-34 32 -34 82v335h-72q-35 0 -55 19q-33 34 -33 71.5t25.5 64t62.5 26.5h72v341q0 95 85 175q9 8 9 18zM570 614h237v445q0 50 -25 75q-44 44 -81.5 44t-59 -9.5t-37.5 -25.5q-34 -34 -34 -83v-446zM971 1680.5
q7 -16.5 7 -35t-7 -35t-19 -28.5q-25 -27 -62 -27h-403q-35 0 -54 19q-34 34 -34 62t7 44.5t19 29.5q25 26 62 26h403q35 0 54.5 -19.5t26.5 -36z" />
    <glyph glyph-name="amacron" unicode="&#x101;" 
d="M244 975q0 60 56 84q16 7 35 7h236q122 0 209 -87t87 -209v-673q0 -76 -72 -107q-22 -10 -48 -10t-44.5 8.5t-31.5 19.5q-11 10 -22 28.5t-17 27.5t-19 9t-21 -9l-16 -17q-67 -67 -157 -67q-107 0 -185 88q-78 87 -78 208v138q0 122 87 209q86 86 209 86h178v58
q0 50 -25 75q-44 44 -93 44h-177q-37 0 -57 19q-34 32 -34 70zM393 278q0 -51 25 -75q44 -42 81 -42t58.5 7t37.5 20q35 28 35 74v268h-118q-51 0 -76 -25q-43 -43 -43 -93v-134zM783 1397.5q7 -16.5 7 -35t-7 -35t-19 -29.5q-25 -26 -62 -26h-403q-35 0 -55 20
q-33 33 -33 61t7 44.5t19 28.5q25 27 62 27h403q35 0 54.5 -19.5t26.5 -36z" />
    <glyph glyph-name="Abreve" unicode="&#x102;" horiz-adv-x="1193" 
d="M427 1148q0 30 -29 30h-116q-45 0 -68 -26q-40 -45 -40 -92v-57q0 -78 -73 -108q-22 -9 -46.5 -9t-46 9t-36.5 25q-35 34 -35 83v60q0 122 87 209t209 87h456q166 0 261 -81q94 -79 94 -215v-965q0 -76 -72 -108q-21 -9 -45.5 -9t-46.5 9.5t-38 25.5q-35 33 -35 82v335
h-237v-335q0 -48 -26 -74q-43 -43 -80 -43t-59 9.5t-38 25.5q-34 32 -34 82v335h-72q-35 0 -55 19q-33 34 -33 71.5t25.5 64t62.5 26.5h72v341q0 95 85 175q9 8 9 18zM570 614h237v445q0 50 -25 75q-44 44 -81.5 44t-59 -9.5t-37.5 -25.5q-34 -34 -34 -83v-446zM690 1686
q102 0 138 82q10 22 10 48.5t20 44.5t45 18t46.5 -16.5t21.5 -68.5t-17.5 -101.5t-44.5 -83.5t-60.5 -54t-64.5 -31q-51 -18 -94 -18q-76 0 -159 49q-71 43 -104 137q-18 50 -18 102t21.5 68.5t46.5 16.5t45 -18t20 -44.5t10 -49t29 -40.5q42 -41 109 -41z" />
    <glyph glyph-name="abreve" unicode="&#x103;" 
d="M244 975q0 60 56 84q16 7 35 7h236q122 0 209 -87t87 -209v-673q0 -76 -72 -107q-22 -10 -48 -10t-44.5 8.5t-31.5 19.5q-11 10 -22 28.5t-17 27.5t-19 9t-21 -9l-16 -17q-67 -67 -157 -67q-107 0 -185 88q-78 87 -78 208v138q0 122 87 209q86 86 209 86h178v58
q0 50 -25 75q-44 44 -93 44h-177q-37 0 -57 19q-34 32 -34 70zM393 278q0 -51 25 -75q44 -42 81 -42t58.5 7t37.5 20q35 28 35 74v268h-118q-51 0 -76 -25q-43 -43 -43 -93v-134zM512 1400q102 0 138 82q10 22 10 48.5t20 44.5t45 18t46.5 -16.5t21.5 -68.5t-17.5 -101.5
t-44.5 -83.5t-60.5 -54t-64.5 -31q-51 -18 -94 -18q-76 0 -158 49q-72 43 -106 137q-17 50 -17 102t21.5 68.5t46.5 16.5t45 -18t20 -44.5t10 -49t28 -40.5q43 -41 110 -41z" />
    <glyph glyph-name="Aogonek" unicode="&#x104;" horiz-adv-x="1193" 
d="M427 1148q0 30 -29 30h-116q-45 0 -68 -26q-40 -45 -40 -92v-57q0 -78 -73 -108q-22 -9 -46.5 -9t-46 9t-36.5 25q-35 34 -35 83v60q0 122 87 209t209 87h456q166 0 261 -81q94 -79 94 -215v-965q0 -37 -20.5 -66t-53.5 -42l-98 -117q-47 -55 -47 -91q0 -72 73 -72h73
q29 0 50.5 -21.5t21.5 -52t-21 -52.5t-51 -22h-142q-113 0 -166.5 44.5t-53.5 118.5q0 84 137 223l83 82q-22 30 -22 68v335h-237v-335q0 -48 -26 -74q-43 -43 -80 -43t-59 9.5t-38 25.5q-34 32 -34 82v335h-72q-35 0 -55 19q-33 34 -33 71.5t25.5 64t62.5 26.5h72v341
q0 95 85 175q9 8 9 18zM570 614h237v445q0 50 -25 75q-44 44 -81.5 44t-59 -9.5t-37.5 -25.5q-34 -34 -34 -83v-446z" />
    <glyph glyph-name="aogonek" unicode="&#x105;" 
d="M788 -13l-96 -113q-47 -57 -47 -92q0 -72 73 -72h73q29 0 50.5 -21.5t21.5 -52t-21 -52.5t-51 -22h-142q-113 0 -166.5 44.5t-53.5 118.5q0 86 138 224l83 82q-7 12 -10 18q-10 24 -27 24q-13 0 -21 -9l-16 -17q-67 -67 -157 -67q-107 0 -185 88q-78 87 -78 208v138
q0 122 87 209q86 86 209 86h178v58q0 50 -25 75q-44 44 -93 44h-177q-37 0 -57 19q-34 32 -34 70q0 60 56 84q16 7 35 7h236q122 0 209 -87t87 -209v-673q0 -38 -22 -68t-57 -42zM393 278q0 -51 25 -75q44 -42 81 -42t58.5 7t37.5 20q35 28 35 74v268h-118q-51 0 -76 -25
q-43 -43 -43 -93v-134z" />
    <glyph glyph-name="Cacute" unicode="&#x106;" horiz-adv-x="1026" 
d="M646 1027.5q13 21.5 13 49.5t-10 49.5t-28 37.5q-39 35 -99 35t-94.5 -34.5t-34.5 -84.5v-812q0 -51 33.5 -78.5t84 -27.5t84.5 27.5t34 78.5v65q0 50 25 75q43 43 80 43t59 -9t38 -25q35 -35 35 -84v-59q0 -209 -204 -272q-66 -21 -150.5 -21t-150.5 20.5t-111 58.5
q-94 80 -94 217v808q0 135 92 213q96 81 263 81q172 0 269 -81q96 -79 96 -214q0 -211 -108 -285q-33 -23 -66.5 -23t-55 9t-37.5 25q-34 32 -34 73t13 62.5t29 41t29 41zM547 1820q48 66 111 66q42 0 67 -26q42 -41 42 -79q0 -76 -63 -119l-220 -154q-24 -16 -43 -16
q-34 0 -51 18t-17 43.5t17 48.5z" />
    <glyph glyph-name="cacute" unicode="&#x107;" 
d="M621 853q-43 53 -105 53q-54 0 -80 -26q-43 -43 -43 -93v-489q0 -51 25 -75q44 -42 93 -42h246q59 0 83 -57q7 -16 7 -34.5t-7 -35t-19 -28.5q-26 -26 -64 -26h-305q-122 0 -209 87t-87 209v496q0 129 87 208q95 86 268 86q233 0 311 -108q25 -33 25 -66.5t-9 -55
t-25 -37.5q-34 -34 -77 -34q-70 0 -115 68zM547 1567q48 66 111 66q42 0 67 -25q42 -42 42 -80q0 -76 -63 -119l-220 -154q-24 -16 -43 -16q-34 0 -51 18t-17 43.5t17 48.5z" />
    <glyph glyph-name="Ccircumflex" unicode="&#x108;" horiz-adv-x="1026" 
d="M646 1027.5q13 21.5 13 49.5t-10 49.5t-28 37.5q-39 35 -99 35t-94.5 -34.5t-34.5 -84.5v-812q0 -51 33.5 -78.5t84 -27.5t84.5 27.5t34 78.5v65q0 50 25 75q43 43 80 43t59 -9t38 -25q35 -35 35 -84v-59q0 -209 -204 -272q-66 -21 -150.5 -21t-150.5 20.5t-111 58.5
q-94 80 -94 217v808q0 135 92 213q96 81 263 81q172 0 269 -81q96 -79 96 -214q0 -211 -108 -285q-33 -23 -66.5 -23t-55 9t-37.5 25q-34 32 -34 73t13 62.5t29 41t29 41zM742 1599q13 -24 13 -46t-17 -41t-37 -19q-40 0 -60 20l-131 134l-131 -134q-20 -20 -50 -20t-47 19
t-17 41t13 46l120 213q42 76 113 76q65 0 111 -76z" />
    <glyph glyph-name="ccircumflex" unicode="&#x109;" 
d="M621 853q-43 53 -105 53q-54 0 -80 -26q-43 -43 -43 -93v-489q0 -51 25 -75q44 -42 93 -42h246q59 0 83 -57q7 -16 7 -34.5t-7 -35t-19 -28.5q-26 -26 -64 -26h-305q-122 0 -209 87t-87 209v496q0 129 87 208q95 86 268 86q233 0 311 -108q25 -33 25 -66.5t-9 -55
t-25 -37.5q-34 -34 -77 -34q-70 0 -115 68zM743 1346q13 -24 13 -46t-17 -41t-37 -19q-40 0 -60 20l-131 134l-131 -134q-20 -20 -50 -20t-47 19t-17 41t13 46l120 213q42 76 113 76q65 0 111 -76z" />
    <glyph glyph-name="Cdotaccent" unicode="&#x10a;" horiz-adv-x="1026" 
d="M646 1027.5q13 21.5 13 49.5t-10 49.5t-28 37.5q-39 35 -99 35t-94.5 -34.5t-34.5 -84.5v-812q0 -51 33.5 -78.5t84 -27.5t84.5 27.5t34 78.5v65q0 50 25 75q43 43 80 43t59 -9t38 -25q35 -35 35 -84v-59q0 -209 -204 -272q-66 -21 -150.5 -21t-150.5 20.5t-111 58.5
q-94 80 -94 217v808q0 135 92 213q96 81 263 81q172 0 269 -81q96 -79 96 -214q0 -211 -108 -285q-33 -23 -66.5 -23t-55 9t-37.5 25q-34 32 -34 73t13 62.5t29 41t29 41zM511 1778q55 0 95 -40t40 -81t-11 -65t-29 -42q-40 -40 -95 -40t-95 40t-40 80q0 68 40 108t95 40z
" />
    <glyph glyph-name="cdotaccent" unicode="&#x10b;" 
d="M621 853q-43 53 -105 53q-54 0 -80 -26q-43 -43 -43 -93v-489q0 -51 25 -75q44 -42 93 -42h246q59 0 83 -57q7 -16 7 -34.5t-7 -35t-19 -28.5q-26 -26 -64 -26h-305q-122 0 -209 87t-87 209v496q0 129 87 208q95 86 268 86q233 0 311 -108q25 -33 25 -66.5t-9 -55
t-25 -37.5q-34 -34 -77 -34q-70 0 -115 68zM515 1509q55 0 95 -40t40 -81t-11 -65t-29 -42q-40 -40 -95 -40t-95 40t-40 80q0 68 40 108t95 40z" />
    <glyph glyph-name="Ccaron" unicode="&#x10c;" horiz-adv-x="1026" 
d="M646 1027.5q13 21.5 13 49.5t-10 49.5t-28 37.5q-39 35 -99 35t-94.5 -34.5t-34.5 -84.5v-812q0 -51 33.5 -78.5t84 -27.5t84.5 27.5t34 78.5v65q0 50 25 75q43 43 80 43t59 -9t38 -25q35 -35 35 -84v-59q0 -209 -204 -272q-66 -21 -150.5 -21t-150.5 20.5t-111 58.5
q-94 80 -94 217v808q0 135 92 213q96 81 263 81q172 0 269 -81q96 -79 96 -214q0 -211 -108 -285q-33 -23 -66.5 -23t-55 9t-37.5 25q-34 32 -34 73t13 62.5t29 41t29 41zM279 1782q-13 24 -13 46t17 41t37 19q40 0 60 -20l131 -134l131 134q20 20 50 20t47 -19t17 -41
t-13 -46l-120 -213q-42 -76 -113 -76q-65 0 -111 76z" />
    <glyph glyph-name="ccaron" unicode="&#x10d;" 
d="M621 853q-43 53 -105 53q-54 0 -80 -26q-43 -43 -43 -93v-489q0 -51 25 -75q44 -42 93 -42h246q59 0 83 -57q7 -16 7 -34.5t-7 -35t-19 -28.5q-26 -26 -64 -26h-305q-122 0 -209 87t-87 209v496q0 129 87 208q95 86 268 86q233 0 311 -108q25 -33 25 -66.5t-9 -55
t-25 -37.5q-34 -34 -77 -34q-70 0 -115 68zM280 1529q-13 24 -13 46t17 41t37 19q40 0 60 -20l131 -134l131 134q20 20 50 20t47 -19t17 -41t-13 -46l-120 -213q-42 -76 -113 -76q-65 0 -111 76z" />
    <glyph glyph-name="Dcaron" unicode="&#x10e;" horiz-adv-x="1193" 
d="M174 1003q0 -78 -73 -108q-22 -9 -46.5 -9t-46 9t-37.5 25q-34 32 -34 83v60q0 122 87 209t209 87h513q122 0 209 -87q86 -86 86 -209v-767q0 -123 -86 -209q-87 -87 -209 -87h-525q-37 0 -57 19q-34 32 -34 60.5t7 45t19 29.5q28 27 65 27h112v775q0 95 85 175
q9 8 9 17.5t-6.5 20t-25.5 10.5h-113q-44 0 -68 -27q-40 -45 -40 -92v-57zM570 181h119q47 0 73 25q43 41 43 92v762q0 50 -25 75q-44 44 -81 44t-59 -9.5t-38 -25.5q-32 -34 -32 -83v-880zM426 1782q-13 24 -13 46t17 41t37 19q40 0 60 -20l131 -134l131 134q20 20 50 20
t47 -19t17 -41t-13 -46l-120 -213q-42 -76 -113 -76q-65 0 -111 76z" />
    <glyph glyph-name="dcaron" unicode="&#x10f;" horiz-adv-x="1189" 
d="M867 97q0 -76 -72 -107q-22 -10 -48 -10t-45 8t-32 18q-18 16 -25.5 31t-13.5 25.5t-18 10.5t-21 -9l-18 -17q-65 -67 -155 -67q-108 0 -186 88q-77 86 -77 208v494q0 122 87 209t209 87h178v354q0 50 25 75q43 43 93 43q51 0 76 -25q43 -43 43 -93v-1323zM393 267
q0 -51 33.5 -78.5t71 -27.5t59 7t37.5 20q36 28 36 74v624h-119q-49 0 -75 -26q-43 -43 -43 -93v-500zM1110 1379q136 0 136 -190q0 -104 -29.5 -174.5t-59.5 -101.5t-64.5 -31t-53.5 20t-19 43t6 37t13 27q20 34 20 62t-11.5 48t-26.5 38q-37 47 -37 82.5t8.5 59.5t24.5 42
q34 38 93 38z" />
    <glyph glyph-name="Dcroat" unicode="&#x110;" horiz-adv-x="1321" 
d="M297 1003q0 -78 -73 -108q-22 -9 -46.5 -9t-46 9t-37.5 25q-34 32 -34 83v60q0 122 87 209t209 87h514q122 0 209 -87q86 -86 86 -209v-767q0 -123 -86 -209q-87 -87 -209 -87h-546q-37 0 -57 19q-34 32 -34 60.5t7 45t20 29.5q27 27 64 27h132v378h-127q-27 0 -44.5 16
t-17 40t17 40t41.5 16h130v285q0 95 86 175q8 8 8 17.5t-6.5 20t-25.5 10.5h-113q-44 0 -68 -27q-40 -45 -40 -92v-57zM693 559v-378h119q76 0 108 71q9 21 9 46v762q0 48 -25 74q-43 45 -92 45h-10q-47 -3 -78 -36t-31 -82v-390h60q24 0 40.5 -16.5t16.5 -40.5t-16.5 -39.5
t-39.5 -15.5h-61z" />
    <glyph glyph-name="dcroat" unicode="&#x111;" 
d="M867 1337h100q24 0 40.5 -16.5t16.5 -40.5t-16.5 -39.5t-39.5 -15.5h-101v-1128q0 -76 -72 -107q-22 -10 -48 -10t-45 8t-32 18q-18 16 -25.5 31t-13.5 25.5t-18 10.5t-21 -9l-18 -17q-65 -67 -155 -67q-108 0 -186 88q-77 86 -77 208v494q0 122 87 209t209 87h178v159
h-287q-27 0 -44.5 16t-17 40t17 40t41.5 16h290v83q0 50 25 75q43 43 93 43q51 0 76 -25q43 -43 43 -93v-83zM393 267q0 -51 33.5 -78.5t71 -27.5t59 7t37.5 20q36 28 36 74v624h-119q-49 0 -75 -26q-43 -43 -43 -93v-500z" />
    <glyph glyph-name="Emacron" unicode="&#x112;" horiz-adv-x="1024" 
d="M520 1379q86 0 154 -20t114 -59q96 -79 96 -216q0 -211 -108 -285q-33 -23 -66.5 -23t-55 9t-37.5 25q-34 32 -34 73t13 62.5t29 40.5q42 52 42 101t-37.5 80t-100.5 31t-102 -27.5t-39 -78.5v-307q0 -49 25 -75q42 -44 92 -44h18q38 0 63.5 -26.5t25.5 -64t-25.5 -63.5
t-57 -26t-53 -9t-37.5 -25q-34 -34 -34 -84v-70q0 -50 25 -75q43 -43 93 -43q45 0 68 24q42 44 42 80t9 57.5t25 37.5q35 35 84 35q48 0 73 -26q44 -43 44 -101.5t-23.5 -113t-67.5 -93.5q-92 -80 -254 -80q-167 0 -263 80q-92 79 -92 214v30q0 136 84 208q25 22 57 40
q-86 34 -121.5 89.5t-35.5 134.5v287q0 137 97 216.5t271 79.5zM805 1680.5q7 -16.5 7 -35t-7 -35t-19 -28.5q-25 -27 -62 -27h-403q-35 0 -54 19q-34 34 -34 62t7 44.5t19 29.5q25 26 62 26h403q35 0 54.5 -19.5t26.5 -36z" />
    <glyph glyph-name="emacron" unicode="&#x113;" 
d="M752 154q26 -27 26 -64.5t-26 -63.5t-64 -26h-236q-122 0 -209 87t-87 209v491q0 136 92 217q96 82 264 82q166 0 262 -82q93 -82 93 -219v-280q0 -50 -25 -75q-43 -43 -94 -43h-355v-89q0 -51 25 -75q44 -42 93 -42h177q38 0 64 -27zM630 787q0 50 -25 75q-44 44 -93 44
q-50 0 -76 -26q-43 -43 -43 -93v-225h237v225zM783 1417.5q7 -16.5 7 -35t-7 -35t-19 -29.5q-25 -26 -62 -26h-403q-35 0 -55 20q-33 33 -33 61t7 44.5t19 28.5q25 27 62 27h403q35 0 54.5 -19.5t26.5 -36z" />
    <glyph glyph-name="Ebreve" unicode="&#x114;" horiz-adv-x="1024" 
d="M520 1379q86 0 154 -20t114 -59q96 -79 96 -216q0 -211 -108 -285q-33 -23 -66.5 -23t-55 9t-37.5 25q-34 32 -34 73t13 62.5t29 40.5q42 52 42 101t-37.5 80t-100.5 31t-102 -27.5t-39 -78.5v-307q0 -49 25 -75q42 -44 92 -44h18q38 0 63.5 -26.5t25.5 -64t-25.5 -63.5
t-57 -26t-53 -9t-37.5 -25q-34 -34 -34 -84v-70q0 -50 25 -75q43 -43 93 -43q45 0 68 24q42 44 42 80t9 57.5t25 37.5q35 35 84 35q48 0 73 -26q44 -43 44 -101.5t-23.5 -113t-67.5 -93.5q-92 -80 -254 -80q-167 0 -263 80q-92 79 -92 214v30q0 136 84 208q25 22 57 40
q-86 34 -121.5 89.5t-35.5 134.5v287q0 137 97 216.5t271 79.5zM524 1686q102 0 138 82q10 22 10 48.5t20 44.5t45 18t46.5 -16.5t21.5 -68.5t-17.5 -101.5t-44.5 -83.5t-60.5 -54t-64.5 -31q-51 -18 -94 -18q-76 0 -159 49q-71 43 -104 137q-18 50 -18 102t21.5 68.5
t46.5 16.5t45 -18t20 -44.5t10 -49t29 -40.5q42 -41 109 -41z" />
    <glyph glyph-name="ebreve" unicode="&#x115;" 
d="M752 154q26 -27 26 -64.5t-26 -63.5t-64 -26h-236q-122 0 -209 87t-87 209v491q0 136 92 217q96 82 264 82q166 0 262 -82q93 -82 93 -219v-280q0 -50 -25 -75q-43 -43 -94 -43h-355v-89q0 -51 25 -75q44 -42 93 -42h177q38 0 64 -27zM630 787q0 50 -25 75q-44 44 -93 44
q-50 0 -76 -26q-43 -43 -43 -93v-225h237v225zM512 1420q102 0 138 82q10 22 10 48.5t20 44.5t45 18t46.5 -16.5t21.5 -68.5t-17.5 -101.5t-44.5 -83.5t-60.5 -54t-64.5 -31q-51 -18 -94 -18q-76 0 -158 49q-72 43 -106 137q-17 50 -17 102t21.5 68.5t46.5 16.5t45 -18
t20 -44.5t10 -49t28 -40.5q43 -41 110 -41z" />
    <glyph glyph-name="Edotaccent" unicode="&#x116;" horiz-adv-x="1024" 
d="M520 1379q86 0 154 -20t114 -59q96 -79 96 -216q0 -211 -108 -285q-33 -23 -66.5 -23t-55 9t-37.5 25q-34 32 -34 73t13 62.5t29 40.5q42 52 42 101t-37.5 80t-100.5 31t-102 -27.5t-39 -78.5v-307q0 -49 25 -75q42 -44 92 -44h18q38 0 63.5 -26.5t25.5 -64t-25.5 -63.5
t-57 -26t-53 -9t-37.5 -25q-34 -34 -34 -84v-70q0 -50 25 -75q43 -43 93 -43q45 0 68 24q42 44 42 80t9 57.5t25 37.5q35 35 84 35q48 0 73 -26q44 -43 44 -101.5t-23.5 -113t-67.5 -93.5q-92 -80 -254 -80q-167 0 -263 80q-92 79 -92 214v30q0 136 84 208q25 22 57 40
q-86 34 -121.5 89.5t-35.5 134.5v287q0 137 97 216.5t271 79.5zM524 1778q55 0 95 -40t40 -81t-11 -65t-29 -42q-40 -40 -95 -40t-95 40t-40 80q0 68 40 108t95 40z" />
    <glyph glyph-name="edotaccent" unicode="&#x117;" 
d="M752 154q26 -27 26 -64.5t-26 -63.5t-64 -26h-236q-122 0 -209 87t-87 209v491q0 136 92 217q96 82 264 82q166 0 262 -82q93 -82 93 -219v-280q0 -50 -25 -75q-43 -43 -94 -43h-355v-89q0 -51 25 -75q44 -42 93 -42h177q38 0 64 -27zM630 787q0 50 -25 75q-44 44 -93 44
q-50 0 -76 -26q-43 -43 -43 -93v-225h237v225zM516 1509q55 0 95 -40t40 -81t-11 -65t-29 -42q-40 -40 -95 -40t-95 40t-40 80q0 68 40 108t95 40z" />
    <glyph glyph-name="Eogonek" unicode="&#x118;" horiz-adv-x="1024" 
d="M623 9l-112 -133q-49 -59 -49 -95q0 -71 73 -71h73q29 0 50.5 -21.5t21.5 -52t-21 -52.5t-51 -22h-142q-113 0 -166.5 44.5t-53.5 118.5q0 82 120 205l75 75q-133 19 -203 95t-70 194v30q0 136 84 208q25 22 57 40q-86 34 -121.5 89.5t-35.5 134.5v287q0 137 97 216.5
t270 79.5q263 0 341 -171q24 -55 24 -123.5t-13 -125t-37 -97.5q-51 -86 -133 -86q-49 0 -75 24q-43 42 -43 83t13 62.5t29 40.5q42 52 42 101t-37.5 80t-100.5 31t-102 -27.5t-39 -78.5v-307q0 -49 25 -75q42 -44 92 -44h18q38 0 63.5 -26.5t25.5 -64t-25.5 -63.5t-57 -26
t-53 -9t-37.5 -25q-34 -34 -34 -84v-70q0 -50 25 -75q43 -43 93 -43q45 0 68 24q42 44 42 80t9 57.5t25 37.5q35 35 84 35q48 0 73 -26q44 -43 44 -92q0 -114 -63.5 -189t-181.5 -98z" />
    <glyph glyph-name="eogonek" unicode="&#x119;" 
d="M655 -69.5q-29 -32.5 -47 -54.5q-49 -59 -49 -95q0 -71 73 -71h73q29 0 50.5 -21.5t21.5 -52t-21 -52.5t-51 -22h-142q-113 0 -166.5 44.5t-53.5 118.5q0 57 41 111.5t76 89.5l72 74h-80q-122 0 -209 87t-87 209v491q0 136 92 217q96 82 264 82q166 0 262 -82
q93 -82 93 -219v-280q0 -50 -25 -75q-43 -43 -94 -43h-355v-89q0 -51 25 -75q44 -42 93 -42h177q38 0 64 -27t26 -60.5t-17.5 -57t-43.5 -32.5q-33 -41 -62 -73.5zM630 787q0 50 -25 75q-44 44 -93 44q-50 0 -76 -26q-43 -43 -43 -93v-225h237v225z" />
    <glyph glyph-name="Ecaron" unicode="&#x11a;" horiz-adv-x="1024" 
d="M520 1379q86 0 154 -20t114 -59q96 -79 96 -216q0 -211 -108 -285q-33 -23 -66.5 -23t-55 9t-37.5 25q-34 32 -34 73t13 62.5t29 40.5q42 52 42 101t-37.5 80t-100.5 31t-102 -27.5t-39 -78.5v-307q0 -49 25 -75q42 -44 92 -44h18q38 0 63.5 -26.5t25.5 -64t-25.5 -63.5
t-57 -26t-53 -9t-37.5 -25q-34 -34 -34 -84v-70q0 -50 25 -75q43 -43 93 -43q45 0 68 24q42 44 42 80t9 57.5t25 37.5q35 35 84 35q48 0 73 -26q44 -43 44 -101.5t-23.5 -113t-67.5 -93.5q-92 -80 -254 -80q-167 0 -263 80q-92 79 -92 214v30q0 136 84 208q25 22 57 40
q-86 34 -121.5 89.5t-35.5 134.5v287q0 137 97 216.5t271 79.5zM292 1782q-13 24 -13 46t17 41t37 19q40 0 60 -20l131 -134l131 134q20 20 50 20t47 -19t17 -41t-13 -46l-120 -213q-42 -76 -113 -76q-65 0 -111 76z" />
    <glyph glyph-name="ecaron" unicode="&#x11b;" 
d="M752 154q26 -27 26 -64.5t-26 -63.5t-64 -26h-236q-122 0 -209 87t-87 209v491q0 136 92 217q96 82 264 82q166 0 262 -82q93 -82 93 -219v-280q0 -50 -25 -75q-43 -43 -94 -43h-355v-89q0 -51 25 -75q44 -42 93 -42h177q38 0 64 -27zM630 787q0 50 -25 75q-44 44 -93 44
q-50 0 -76 -26q-43 -43 -43 -93v-225h237v225zM281 1529q-13 24 -13 46t17 41t37 19q40 0 60 -20l131 -134l131 134q20 20 50 20t47 -19t17 -41t-13 -46l-120 -213q-42 -76 -113 -76q-65 0 -111 76z" />
    <glyph glyph-name="Gcircumflex" unicode="&#x11c;" horiz-adv-x="1022" 
d="M646 1027.5q13 21.5 13 49.5t-10 49.5t-28 37.5q-39 35 -99 35t-94.5 -34.5t-34.5 -84.5v-812q0 -51 34 -78.5t84 -27.5t84 27.5t34 78.5v172q0 50 25 75q43 43 80 43t59 -9t38 -25q35 -35 35 -84v-583q0 -123 -86 -209q-87 -87 -208 -87h-118q-38 0 -64 26t-26 63.5
t26 64.5t64 27h57q49 0 75 24q43 42 43 93v182q0 19 -10.5 25.5t-20.5 6.5t-18 -9l-17 -16q-68 -68 -156 -68q-107 0 -179 88q-72 86 -72 208v809q0 135 92 213q96 81 263 81q172 0 269 -81q96 -79 96 -214q0 -211 -108 -285q-33 -23 -66.5 -23t-55 9t-37.5 25
q-34 32 -34 73t13 62.5t29 41t29 41zM743 1599q13 -24 13 -46t-17 -41t-37 -19q-40 0 -60 20l-131 134l-131 -134q-20 -20 -50 -20t-47 19t-17 41t13 46l120 213q42 76 113 76q65 0 111 -76z" />
    <glyph glyph-name="gcircumflex" unicode="&#x11d;" 
d="M867 -178q0 -123 -87 -209q-89 -87 -210 -87h-177q-38 0 -64.5 26t-26.5 64t26.5 64.5t64.5 26.5h118q50 0 75 25q43 43 43 92v217q0 19 -10.5 25.5t-20.5 6.5t-18 -9l-17 -16q-68 -68 -156 -68q-107 0 -179 88q-72 86 -72 208v494q0 122 87 209t209 87h295q79 0 111 -73
q9 -22 9 -47v-1124zM393 279q0 -50 25 -75q44 -44 80.5 -44t57.5 7.5t38 21.5q35 30 35 78v619h-118q-49 0 -75 -26q-43 -43 -43 -93v-488zM744 1326q13 -24 13 -46t-17 -41t-37 -19q-40 0 -60 20l-131 134l-131 -134q-20 -20 -50 -20t-47 19t-17 41t13 46l120 213
q42 76 113 76q65 0 111 -76z" />
    <glyph glyph-name="Gbreve" unicode="&#x11e;" horiz-adv-x="1022" 
d="M646 1027.5q13 21.5 13 49.5t-10 49.5t-28 37.5q-39 35 -99 35t-94.5 -34.5t-34.5 -84.5v-812q0 -51 34 -78.5t84 -27.5t84 27.5t34 78.5v172q0 50 25 75q43 43 80 43t59 -9t38 -25q35 -35 35 -84v-583q0 -123 -86 -209q-87 -87 -208 -87h-118q-38 0 -64 26t-26 63.5
t26 64.5t64 27h57q49 0 75 24q43 42 43 93v182q0 19 -10.5 25.5t-20.5 6.5t-18 -9l-17 -16q-68 -68 -156 -68q-107 0 -179 88q-72 86 -72 208v809q0 135 92 213q96 81 263 81q172 0 269 -81q96 -79 96 -214q0 -211 -108 -285q-33 -23 -66.5 -23t-55 9t-37.5 25
q-34 32 -34 73t13 62.5t29 41t29 41zM512 1686q102 0 138 82q10 22 10 48.5t20 44.5t45 18t46.5 -16.5t21.5 -68.5t-17.5 -101.5t-44.5 -83.5t-60.5 -54t-64.5 -31q-51 -18 -94 -18q-76 0 -159 49q-71 43 -104 137q-18 50 -18 102t21.5 68.5t46.5 16.5t45 -18t20 -44.5
t10 -49t29 -40.5q42 -41 109 -41z" />
    <glyph glyph-name="gbreve" unicode="&#x11f;" 
d="M867 -178q0 -123 -87 -209q-89 -87 -210 -87h-177q-38 0 -64.5 26t-26.5 64t26.5 64.5t64.5 26.5h118q50 0 75 25q43 43 43 92v217q0 19 -10.5 25.5t-20.5 6.5t-18 -9l-17 -16q-68 -68 -156 -68q-107 0 -179 88q-72 86 -72 208v494q0 122 87 209t209 87h295q79 0 111 -73
q9 -22 9 -47v-1124zM393 279q0 -50 25 -75q44 -44 80.5 -44t57.5 7.5t38 21.5q35 30 35 78v619h-118q-49 0 -75 -26q-43 -43 -43 -93v-488zM512 1400q102 0 138 82q10 22 10 48.5t20 44.5t45 18t46.5 -16.5t21.5 -68.5t-17.5 -101.5t-44.5 -83.5t-60.5 -54t-64.5 -31
q-51 -18 -94 -18q-76 0 -158 49q-72 43 -106 137q-17 50 -17 102t21.5 68.5t46.5 16.5t45 -18t20 -44.5t10 -49t28 -40.5q43 -41 110 -41z" />
    <glyph glyph-name="Gdotaccent" unicode="&#x120;" horiz-adv-x="1022" 
d="M646 1027.5q13 21.5 13 49.5t-10 49.5t-28 37.5q-39 35 -99 35t-94.5 -34.5t-34.5 -84.5v-812q0 -51 34 -78.5t84 -27.5t84 27.5t34 78.5v172q0 50 25 75q43 43 80 43t59 -9t38 -25q35 -35 35 -84v-583q0 -123 -86 -209q-87 -87 -208 -87h-118q-38 0 -64 26t-26 63.5
t26 64.5t64 27h57q49 0 75 24q43 42 43 93v182q0 19 -10.5 25.5t-20.5 6.5t-18 -9l-17 -16q-68 -68 -156 -68q-107 0 -179 88q-72 86 -72 208v809q0 135 92 213q96 81 263 81q172 0 269 -81q96 -79 96 -214q0 -211 -108 -285q-33 -23 -66.5 -23t-55 9t-37.5 25
q-34 32 -34 73t13 62.5t29 41t29 41zM512 1778q55 0 95 -40t40 -81t-11 -65t-29 -42q-40 -40 -95 -40t-95 40t-40 80q0 68 40 108t95 40z" />
    <glyph glyph-name="gdotaccent" unicode="&#x121;" 
d="M867 -178q0 -123 -87 -209q-89 -87 -210 -87h-177q-38 0 -64.5 26t-26.5 64t26.5 64.5t64.5 26.5h118q50 0 75 25q43 43 43 92v217q0 19 -10.5 25.5t-20.5 6.5t-18 -9l-17 -16q-68 -68 -156 -68q-107 0 -179 88q-72 86 -72 208v494q0 122 87 209t209 87h295q79 0 111 -73
q9 -22 9 -47v-1124zM393 279q0 -50 25 -75q44 -44 80.5 -44t57.5 7.5t38 21.5q35 30 35 78v619h-118q-49 0 -75 -26q-43 -43 -43 -93v-488zM516 1489q55 0 95 -40t40 -81t-11 -65t-29 -42q-40 -40 -95 -40t-95 40t-40 80q0 68 40 108t95 40z" />
    <glyph glyph-name="Gcommaaccent" unicode="&#x122;" horiz-adv-x="1022" 
d="M646 1027.5q13 21.5 13 49.5t-10 49.5t-28 37.5q-39 35 -99 35t-94.5 -34.5t-34.5 -84.5v-812q0 -51 34 -78.5t84 -27.5t84 27.5t34 78.5v172q0 50 25 75q43 43 80 43t59 -9t38 -25q35 -35 35 -84v-435q0 -62 -33 -96t-93 -34q-45 0 -69 25q-42 45 -42 105v36
q0 19 -10.5 25.5t-20.5 6.5t-18 -9l-17 -16q-68 -68 -156 -68q-107 0 -179 88q-72 86 -72 208v809q0 135 92 213q96 81 263 81q172 0 269 -81q96 -79 96 -214q0 -211 -108 -285q-33 -23 -66.5 -23t-55 9t-37.5 25q-34 32 -34 73t13 62.5t29 41t29 41zM463 -372q6 12 6 37
t-23 45q-41 37 -41 74t9 57t25 35q35 31 74.5 31t63 -11.5t38.5 -31.5q29 -39 29 -106q0 -136 -72 -220q-39 -46 -73 -46t-51 18t-17 38t6 32t13 24t13 24z" />
    <glyph glyph-name="gcommaaccent" unicode="&#x123;" 
d="M867 -178q0 -123 -87 -209q-89 -87 -210 -87h-177q-38 0 -64.5 26t-26.5 64t26.5 64.5t64.5 26.5h118q50 0 75 25q43 43 43 92v217q0 19 -10.5 25.5t-20.5 6.5t-18 -9l-17 -16q-68 -68 -156 -68q-107 0 -179 88q-72 86 -72 208v494q0 122 87 209t209 87h295q79 0 111 -73
q9 -22 9 -47v-1124zM393 279q0 -50 25 -75q44 -44 80.5 -44t57.5 7.5t38 21.5q35 30 35 78v619h-118q-49 0 -75 -26q-43 -43 -43 -93v-488zM579 1587q-6 -12 -6 -37t23 -45q41 -37 41 -74t-9 -57t-25 -35q-35 -31 -74.5 -31t-63 11.5t-38.5 31.5q-29 39 -29 106
q0 136 72 220q39 46 73 46t51 -18t17 -38t-6 -32t-13 -24t-13 -24z" />
    <glyph glyph-name="Hcircumflex" unicode="&#x124;" horiz-adv-x="1364" 
d="M309 488.5q-7 16.5 -7 44.5t25.5 54.5t62.5 26.5h70v565h-45q-51 0 -82.5 -33t-31.5 -86v-57q0 -78 -73 -108q-22 -9 -46.5 -9t-46 9t-37.5 25q-34 34 -34 83v60q0 123 88 209q88 87 208 87h218q49 0 74 -25q44 -44 44 -95v-625h239v625q0 79 71 111q22 9 47.5 9
t46.5 -9.5t37 -25.5q34 -34 34 -85v-1122q0 -75 -71 -107q-21 -10 -46.5 -10t-47 9.5t-37.5 24.5q-34 33 -34 83v316h-239v-137q0 -123 -86 -209q-87 -87 -209 -87h-116q-38 0 -64 26t-26 63.5t26 64.5t64 27h57q49 0 75 25q43 41 43 92v135h-70q-35 0 -54.5 19.5t-26.5 36z
M1033 1599q13 -24 13 -46t-17 -41t-37 -19q-40 0 -60 20l-131 134l-131 -134q-20 -20 -50 -20t-47 19t-17 41t13 46l120 213q42 76 113 76q65 0 111 -76z" />
    <glyph glyph-name="hcircumflex" unicode="&#x125;" 
d="M321.5 -10.5q-21.5 -9.5 -46 -9.5t-46.5 9t-38 25q-35 35 -35 83v1323q0 49 26 74q43 44 80.5 44t59 -9t37.5 -25q35 -35 35 -84v-395q0 -19 10.5 -25.5t20.5 -6.5t19 9l16 16q68 68 157 68q108 0 179 -88q71 -87 71 -208v-693q0 -76 -71 -107q-22 -10 -46.5 -10t-46.5 9
t-38 25q-35 35 -35 83v690q0 50 -25 75q-44 44 -80.5 44t-57.5 -7.5t-37 -21.5q-36 -30 -36 -78v-702q0 -49 -25.5 -73.5t-47 -34zM743 1599q13 -24 13 -46t-17 -41t-37 -19q-40 0 -60 20l-131 134l-131 -134q-20 -20 -50 -20t-47 19t-17 41t13 46l120 213q42 76 113 76
q65 0 111 -76z" />
    <glyph glyph-name="Hbar" unicode="&#x126;" horiz-adv-x="1327" 
d="M1173 830l-2 -732q0 -75 -71 -108q-21 -9 -46.5 -9t-47 9.5t-37.5 25.5q-34 32 -34 82v335h-239v-137q0 -123 -86 -209q-87 -87 -209 -87h-116q-38 0 -64 26t-26 63.5t26 64.5t64 27h57q49 0 75 25q43 41 43 92v135h-70q-35 0 -54 19q-34 34 -34 71.5t25.5 64t62.5 26.5
h70v216h-95q-27 0 -44.5 16t-17 40t17 40t41.5 16h98v232h-174q-60 0 -84 56q-7 16 -7 35q0 61 55 87q17 7 36 7h292q49 0 74 -25q44 -44 44 -95v-297h240l2 317q0 79 72 111q21 9 46.5 9t46.5 -9.5t37 -25.5q34 -34 34 -85l-1 -317h88q24 0 40.5 -16.5t16.5 -40.5
t-16.5 -39.5t-39.5 -15.5h-89zM935 614l1 216h-240v-216h239z" />
    <glyph glyph-name="hbar" unicode="&#x127;" horiz-adv-x="1022" 
d="M395 1225v-200q0 -19 10.5 -25.5t20.5 -6.5t19 9l16 16q68 68 156 68q108 0 179 -88q71 -87 71 -208v-693q0 -76 -72 -107q-21 -10 -45.5 -10t-46.5 9t-38 25q-35 35 -35 83v690q0 50 -25 75q-44 44 -80 44t-57 -7.5t-37 -21.5q-36 -30 -36 -78v-702q0 -49 -26 -73
q-66 -65 -139 -35q-44 18 -63 63q-10 21 -10 45v1128h-109q-27 0 -44.5 16t-17 40t17 40t41.5 16h112v83q0 49 26 74q43 44 80.5 44t59 -9t37.5 -25q35 -35 35 -84v-83h297q24 0 40.5 -16.5t16.5 -40.5t-16.5 -39.5t-39.5 -15.5h-298z" />
    <glyph glyph-name="Itilde" unicode="&#x128;" horiz-adv-x="855" 
d="M267 1003q0 -78 -73 -108q-22 -9 -46.5 -9t-46 9t-37.5 25q-34 34 -34 83v60q0 123 88 209q88 87 208 87h218q49 0 74 -25q44 -44 44 -95v-943q0 -123 -86 -209q-87 -87 -209 -87h-116q-38 0 -64 26t-26 63.5t26 64.5t64 27h57q49 0 75 25q43 41 43 92v881h-45
q-48 0 -73 -26q-41 -44 -41 -93v-57zM744 1767q20 17 45.5 17t42 -18t16.5 -44t-20.5 -56t-45 -59t-53.5 -51q-60 -45 -126 -45t-107 29t-61 52l-26 32q-7 7 -16 7q-11 0 -38 -23l-62 -52q-20 -17 -45.5 -17t-42 18t-16.5 44t20 56t44.5 59.5t53.5 50.5q61 45 135 45
q79 0 137 -60l35 -37q8 -8 14.5 -15.5t15.5 -7.5q11 0 38 23z" />
    <glyph glyph-name="itilde" unicode="&#x129;" horiz-adv-x="678" 
d="M219 966q0 49 25 76q43 44 95 44q50 0 74 -26q44 -45 44 -94v-869q0 -48 -25 -73q-44 -44 -81 -44t-59 9.5t-38 24.5q-35 34 -35 83v869zM587 1494q20 17 45.5 17t42 -18t16.5 -44t-20.5 -56t-45 -59t-52.5 -50q-61 -46 -127 -46t-107 29t-61 53l-27 30q-6 8 -16 8
t-37 -23l-62 -52q-20 -17 -45.5 -17t-42 18t-16.5 44t20 56t44.5 59.5t52.5 50.5q62 45 136 45q79 0 138 -60l34 -37q8 -8 14.5 -15.5t15.5 -7.5q11 0 38 23z" />
    <glyph glyph-name="Imacron" unicode="&#x12a;" horiz-adv-x="855" 
d="M267 1003q0 -78 -73 -108q-22 -9 -46.5 -9t-46 9t-37.5 25q-34 34 -34 83v60q0 123 88 209q88 87 208 87h218q49 0 74 -25q44 -44 44 -95v-943q0 -123 -86 -209q-87 -87 -209 -87h-116q-38 0 -64 26t-26 63.5t26 64.5t64 27h57q49 0 75 25q43 41 43 92v881h-45
q-48 0 -73 -26q-41 -44 -41 -93v-57zM792 1680.5q7 -16.5 7 -35t-7 -35t-19 -28.5q-25 -27 -62 -27h-403q-35 0 -54 19q-34 34 -34 62t7 44.5t19 29.5q25 26 62 26h403q35 0 54.5 -19.5t26.5 -36z" />
    <glyph glyph-name="imacron" unicode="&#x12b;" horiz-adv-x="678" 
d="M219 966q0 49 25 76q43 44 95 44q50 0 74 -26q44 -45 44 -94v-869q0 -48 -25 -73q-44 -44 -81 -44t-59 9.5t-38 24.5q-35 34 -35 83v869zM610 1417.5q7 -16.5 7 -35t-7 -35t-19 -29.5q-25 -26 -62 -26h-403q-35 0 -55 20q-33 33 -33 61t7 44.5t19 28.5q25 27 62 27h403
q35 0 54.5 -19.5t26.5 -36z" />
    <glyph glyph-name="Ibreve" unicode="&#x12c;" horiz-adv-x="855" 
d="M267 1003q0 -78 -73 -108q-22 -9 -46.5 -9t-46 9t-37.5 25q-34 34 -34 83v60q0 123 88 209q88 87 208 87h218q49 0 74 -25q44 -44 44 -95v-943q0 -123 -86 -209q-87 -87 -209 -87h-116q-38 0 -64 26t-26 63.5t26 64.5t64 27h57q49 0 75 25q43 41 43 92v881h-45
q-48 0 -73 -26q-41 -44 -41 -93v-57zM511 1686q102 0 138 82q10 22 10 48.5t20 44.5t45 18t46.5 -16.5t21.5 -68.5t-17.5 -101.5t-44.5 -83.5t-60.5 -54t-64.5 -31q-51 -18 -94 -18q-76 0 -159 49q-71 43 -104 137q-18 50 -18 102t21.5 68.5t46.5 16.5t45 -18t20 -44.5
t10 -49t29 -40.5q42 -41 109 -41z" />
    <glyph glyph-name="ibreve" unicode="&#x12d;" horiz-adv-x="678" 
d="M219 966q0 49 25 76q43 44 95 44q50 0 74 -26q44 -45 44 -94v-869q0 -48 -25 -73q-44 -44 -81 -44t-59 9.5t-38 24.5q-35 34 -35 83v869zM339 1420q102 0 138 82q10 22 10 48.5t20 44.5t45 18t46.5 -16.5t21.5 -68.5t-17.5 -101.5t-44.5 -83.5t-60.5 -54t-64.5 -31
q-51 -18 -94 -18q-76 0 -158 49q-72 43 -106 137q-17 50 -17 102t21.5 68.5t46.5 16.5t45 -18t20 -44.5t10 -49t28 -40.5q43 -41 110 -41z" />
    <glyph glyph-name="Iogonek" unicode="&#x12e;" horiz-adv-x="808" 
d="M428 -58l-56 -64q-50 -61 -50 -96q0 -72 73 -72h73q29 0 50.5 -21.5t21.5 -52t-21 -52.5t-51 -22h-142q-113 0 -166.5 44.5t-53.5 118.5q0 57 41 111.5t75 89.5l73 74h-44q-38 0 -64 26t-26 63.5t26 64.5t64 27h57q49 0 75 25q43 41 43 92v881h-45q-48 0 -73 -26
q-41 -44 -41 -93v-57q0 -78 -73 -108q-22 -9 -46.5 -9t-46 9t-37.5 25q-34 34 -34 83v60q0 123 88 209q88 87 208 87h218q49 0 74 -25q44 -44 44 -95v-943q0 -129 -94 -218q-30 -27 -66 -45q-40 -51 -74 -91z" />
    <glyph glyph-name="iogonek" unicode="&#x12f;" horiz-adv-x="678" 
d="M248 19q-29 33 -29 78v869q0 49 25 76q43 44 95 44q50 0 74 -26q44 -45 44 -94v-869q0 -52 -41 -89l-64 -76q-29 -33 -48 -56q-49 -59 -49 -95q0 -71 73 -71h73q29 0 50.5 -21.5t21.5 -52t-21 -52.5t-51 -22h-142q-113 0 -166.5 44.5t-53.5 118.5q0 85 130 215zM339 1538
q55 0 95 -40t40 -81t-11 -65t-29 -42q-40 -40 -95 -40t-95 40t-40 80q0 68 40 108t95 40z" />
    <glyph glyph-name="Idotaccent" unicode="&#x130;" horiz-adv-x="855" 
d="M267 1003q0 -78 -73 -108q-22 -9 -46.5 -9t-46 9t-37.5 25q-34 34 -34 83v60q0 123 88 209q88 87 208 87h218q49 0 74 -25q44 -44 44 -95v-943q0 -123 -86 -209q-87 -87 -209 -87h-116q-38 0 -64 26t-26 63.5t26 64.5t64 27h57q49 0 75 25q43 41 43 92v881h-45
q-48 0 -73 -26q-41 -44 -41 -93v-57zM511 1778q55 0 95 -40t40 -81t-11 -65t-29 -42q-40 -40 -95 -40t-95 40t-40 80q0 68 40 108t95 40z" />
    <glyph glyph-name="dotlessi" unicode="&#x131;" horiz-adv-x="678" 
d="M219 966q0 49 25 76q43 44 95 44q50 0 74 -26q44 -45 44 -94v-869q0 -48 -25 -73q-44 -44 -81 -44t-59 9.5t-38 24.5q-35 34 -35 83v869z" />
    <glyph glyph-name="IJ" unicode="&#x132;" 
d="M699.5 1350.5q21.5 9.5 46 9.5t46.5 -9.5t38 -24.5q35 -34 35 -83v-947q0 -123 -87 -209q-89 -87 -210 -87h-292q-38 0 -64.5 26t-26.5 64t26.5 64.5t64.5 26.5h233q50 0 75 25q43 43 43 92v137q0 19 -10.5 25.5t-20.5 6.5t-18 -9l-17 -16q-68 -68 -155 -68
q-107 0 -179 87q-71 86 -71 209v573q0 76 72 107q21 10 45.5 10t46.5 -9.5t38 -24.5q35 -34 35 -83v-570q0 -49 25 -75q42 -44 78.5 -44t57.5 7.5t38 21.5q35 30 35 78v582q0 49 25.5 73.5t47 34z" />
    <glyph glyph-name="ij" unicode="&#x133;" horiz-adv-x="1154" 
d="M763.5 1076.5q21.5 9.5 46 9.5t46.5 -9t38 -25q35 -35 35 -83v-1147q0 -123 -87 -209q-89 -87 -210 -87h-177q-38 0 -64.5 26t-26.5 64t26.5 64.5t64.5 26.5h118q50 0 75 25q43 43 43 92v217q0 19 -10.5 25.5t-20.5 6.5t-18 -9l-17 -16q-68 -68 -156 -68q-108 0 -179 88
q-71 87 -71 208v693q0 76 71 107q22 10 46.5 10t46.5 -9t38 -25q35 -35 35 -83v-690q0 -49 24 -75q43 -44 80 -44t58 7.5t38 21.5q35 30 35 78v702q0 49 25.5 73.5t47 34zM340 1538q55 0 94 -40q41 -40 41 -81t-11 -65t-30 -42q-39 -40 -94 -40t-94 40q-41 40 -41 80
q0 68 40 108t95 40zM686.5 1352q-10.5 24 -10.5 51.5t10.5 52t29.5 42.5q39 40 80.5 40t66 -10.5t43.5 -29.5q39 -39 39 -80.5t-10.5 -65.5t-28.5 -42q-40 -40 -81.5 -40t-66 10.5t-43 29t-29 42.5z" />
    <glyph glyph-name="Jcircumflex" unicode="&#x134;" horiz-adv-x="855" 
d="M436 1179h-31q-50 0 -75 -25q-44 -44 -44 -94v-57q0 -78 -73 -108q-22 -9 -46.5 -9t-46 9t-36.5 25q-35 34 -35 83v60q0 123 87 209q89 87 209 87h209q49 0 74 -25q44 -44 44 -95v-1417q0 -122 -87 -209t-210 -87h-156q-58 0 -83 54q-7 17 -7 36q0 36 19 57q33 34 71 34
h98q50 0 75 25q44 44 44 92v1355zM742 1599q13 -24 13 -46t-17 -41t-37 -19q-40 0 -60 20l-131 134l-131 -134q-20 -20 -50 -20t-47 19t-17 41t13 46l120 213q42 76 113 76q65 0 111 -76z" />
    <glyph glyph-name="jcircumflex" unicode="&#x135;" horiz-adv-x="676" 
d="M216 966q0 50 25 76q42 44 93 44t75 -26q43 -44 43 -94v-1144q0 -124 -86 -209q-89 -87 -210 -87h-116q-58 0 -82 54q-8 17 -8 36q0 36 20 57q32 34 70 34h58q50 0 75 25q43 43 43 92v1142zM574 1286q13 -24 13 -46t-17 -41t-37 -19q-40 0 -60 20l-131 134l-131 -134
q-20 -20 -50 -20t-47 19t-17 41t13 46l120 213q42 76 113 76q65 0 111 -76z" />
    <glyph glyph-name="Kcommaaccent" unicode="&#x136;" horiz-adv-x="1360" 
d="M1003 634q148 -58 148 -220v-29q0 -233 105 -368q32 -42 60 -73q44 -49 44 -91q0 -66 -60 -92q-19 -8 -36 -8q-61 0 -129 62t-113 142q-109 191 -109 468q0 49 -25 75q-42 44 -92 44h-117v-446q0 -48 -25 -74q-44 -43 -81 -43t-59 9.5t-38 25.5q-35 33 -35 82v1081h-52
q-44 0 -68 -27q-40 -45 -40 -92v-57q0 -78 -73 -108q-22 -9 -46.5 -9t-46 9t-37.5 25q-34 34 -34 83v60q0 122 87 209t209 87h221q50 0 74 -25q44 -46 44 -95v-515h116q48 0 73 26q44 43 44 94v395q0 49 26 76q42 44 94 44q50 0 74 -25q44 -46 44 -95v-353q0 -141 -87 -212
q-27 -22 -60 -40zM757 -372q6 12 6 37t-23 45q-41 37 -41 74t9 57t25 35q35 31 74.5 31t63 -11.5t38.5 -31.5q29 -39 29 -106q0 -136 -72 -220q-39 -46 -73 -46t-51 18t-17 38t6 32t13 24t13 24z" />
    <glyph glyph-name="kcommaaccent" unicode="&#x137;" 
d="M687 602q178 -72 178 -265v-240q0 -49 -25 -73q-68 -66 -140 -34q-73 31 -73 107v237q0 50 -25 75q-44 44 -92 44h-116v-356q0 -48 -26 -73q-43 -44 -80 -44t-59 9.5t-38 24.5q-35 34 -35 83v1321q0 49 26 76q42 44 94 44q50 0 74 -26q44 -45 44 -94v-785h72l188 388
q14 32 44 49.5t61 17.5t59 -14.5t44.5 -43.5t16.5 -60.5t-14 -56.5zM472 -390q6 12 6 37t-23 45q-41 37 -41 74t9 57t25 35q35 31 74.5 31t63 -11.5t38.5 -31.5q29 -39 29 -106q0 -136 -72 -220q-39 -46 -73 -46t-51 18t-17 38t6 32t13 24t13 24z" />
    <glyph glyph-name="kgreenlandic" unicode="&#x138;" horiz-adv-x="1032" 
d="M695 589q170 -73 170 -262v-229q0 -49 -25 -73q-68 -66 -140 -35q-73 32 -73 108v226q0 50 -25 75q-44 44 -92 44h-116v-345q0 -48 -26 -74q-43 -43 -80 -43t-59 9.5t-38 25.5q-35 33 -35 82v868q0 49 26 76q42 44 94 44q50 0 74 -26q44 -45 44 -94v-343h81l179 398
q33 66 108 66q27 0 55 -14.5t45 -43.5t17 -60.5t-14 -55.5z" />
    <glyph glyph-name="Lacute" unicode="&#x139;" horiz-adv-x="1025" 
d="M360 210q0 -30 29 -30h249q44 0 67 26q41 45 41 81t9 57t25 37q36 34 73 34t58.5 -9t37.5 -25q34 -34 34 -90t-23.5 -110t-63.5 -94q-87 -87 -209 -87h-589q-35 0 -54 20q-34 33 -34 70.5t25.5 64t56.5 26.5t52.5 8.5t37.5 23.5q34 32 34 80v770q0 123 88 209
q88 87 208 87h146q59 0 83 -55q7 -17 7 -45t-26 -54t-64 -26h-86q-50 0 -76 -25q-43 -44 -43 -94v-658q0 -88 -68 -156q-25 -22 -25 -36zM504 1820q48 66 111 66q42 0 67 -26q42 -41 42 -79q0 -76 -63 -119l-220 -154q-24 -16 -43 -16q-34 0 -51 18t-17 43.5t17 48.5z" />
    <glyph glyph-name="lacute" unicode="&#x13a;" horiz-adv-x="678" 
d="M437 298q0 -51 25 -75q44 -42 93 -42h10q37 0 57 -20q34 -34 34 -62t-7 -44.5t-19 -28.5q-28 -26 -65 -26h-69q-122 0 -209 87t-87 209v1004q0 50 25 75q43 43 93 43q51 0 76 -25q43 -43 43 -93v-1002zM356 1854q48 66 111 66q42 0 67 -26q42 -41 42 -79q0 -76 -63 -119
l-220 -154q-24 -16 -43 -16q-34 0 -51 18t-17 43.5t17 48.5z" />
    <glyph glyph-name="Lcommaaccent" unicode="&#x13b;" horiz-adv-x="1025" 
d="M360 210q0 -30 29 -30h249q44 0 67 26q41 45 41 81t9 57t25 37q36 34 73 34t58.5 -9t37.5 -25q34 -34 34 -90t-23.5 -110t-63.5 -94q-87 -87 -209 -87h-589q-35 0 -54 20q-34 33 -34 70.5t25.5 64t56.5 26.5t52.5 8.5t37.5 23.5q34 32 34 80v770q0 123 88 209
q88 87 208 87h146q59 0 83 -55q7 -17 7 -45t-26 -54t-64 -26h-86q-50 0 -76 -25q-43 -44 -43 -94v-658q0 -88 -68 -156q-25 -22 -25 -36zM407 -372q6 12 6 37t-23 45q-41 37 -41 74t9 57t25 35q35 31 74.5 31t63 -11.5t38.5 -31.5q29 -39 29 -106q0 -136 -72 -220
q-39 -46 -73 -46t-51 18t-17 38t6 32t13 24t13 24z" />
    <glyph glyph-name="lcommaaccent" unicode="&#x13c;" horiz-adv-x="678" 
d="M437 298q0 -51 25 -75q44 -42 93 -42h10q37 0 57 -20q34 -34 34 -62t-7 -44.5t-19 -28.5q-28 -26 -65 -26h-69q-122 0 -209 87t-87 209v1124q0 50 25 75q43 43 93 43q51 0 76 -25q43 -43 43 -93v-1122zM282 -372q6 12 6 37t-23 45q-41 37 -41 74t9 57t25 35
q35 31 74.5 31t63 -11.5t38.5 -31.5q29 -39 29 -106q0 -136 -72 -220q-39 -46 -73 -46t-51 18t-17 38t6 32t13 24t13 24z" />
    <glyph glyph-name="Lcaron" unicode="&#x13d;" horiz-adv-x="1025" 
d="M360 210q0 -30 29 -30h249q44 0 67 26q41 45 41 81t9 57t25 37q36 34 73 34t58.5 -9t37.5 -25q34 -34 34 -90t-23.5 -110t-63.5 -94q-87 -87 -209 -87h-589q-35 0 -54 20q-34 33 -34 70.5t25.5 64t56.5 26.5t52.5 8.5t37.5 23.5q34 32 34 80v770q0 123 88 209
q88 87 208 87h96q59 0 83 -55q7 -17 7 -45t-26 -54t-64 -26h-36q-50 0 -76 -25q-43 -44 -43 -94v-658q0 -88 -68 -156q-25 -22 -25 -36zM960 1379q136 0 136 -190q0 -104 -29.5 -174.5t-59.5 -101.5t-64.5 -31t-53.5 20t-19 43t6 37t14 27q19 34 19 62t-11.5 48t-25.5 38
q-38 47 -38 82.5t8.5 59.5t24.5 42q34 38 93 38z" />
    <glyph glyph-name="lcaron" unicode="&#x13e;" horiz-adv-x="678" 
d="M437 298q0 -51 25 -75q44 -42 93 -42h10q37 0 57 -20q34 -34 34 -62t-7 -44.5t-19 -28.5q-28 -26 -65 -26h-69q-122 0 -209 87t-87 209v1124q0 50 25 75q43 43 93 43q51 0 76 -25q43 -43 43 -93v-1122zM669 1379q136 0 136 -190q0 -104 -29.5 -174.5t-59.5 -101.5
t-64.5 -31t-53.5 20t-19 43t6 37t13 27q20 34 20 62t-11.5 48t-26.5 38q-37 47 -37 82.5t8.5 59.5t24.5 42q34 38 93 38z" />
    <glyph glyph-name="Ldot" unicode="&#x13f;" horiz-adv-x="1025" 
d="M360 210q0 -30 29 -30h249q44 0 67 26q41 45 41 81t9 57t25 37q36 34 73 34t58.5 -9t37.5 -25q34 -34 34 -90t-23.5 -110t-63.5 -94q-87 -87 -209 -87h-589q-35 0 -54 20q-34 33 -34 70.5t25.5 64t56.5 26.5t52.5 8.5t37.5 23.5q34 32 34 80v770q0 123 88 209
q88 87 208 87h146q59 0 83 -55q7 -17 7 -45t-26 -54t-64 -26h-86q-50 0 -76 -25q-43 -44 -43 -94v-658q0 -88 -68 -156q-25 -22 -25 -36zM877 922q55 0 95 -40t40 -81t-11 -65t-29 -42q-40 -40 -95 -40t-95 40t-40 80q0 68 40 108t95 40z" />
    <glyph glyph-name="ldot" unicode="&#x140;" horiz-adv-x="886" 
d="M437 298q0 -51 25 -75q44 -42 93 -42h10q37 0 57 -20q34 -34 34 -62t-7 -44.5t-19 -28.5q-28 -26 -65 -26h-69q-122 0 -209 87t-87 209v1124q0 50 25 75q43 43 93 43q51 0 76 -25q43 -43 43 -93v-1122zM721 752q55 0 95 -40t40 -81t-11 -65t-29 -42q-40 -40 -95 -40
t-95 40t-40 80q0 68 40 108t95 40z" />
    <glyph glyph-name="Lslash" unicode="&#x141;" horiz-adv-x="1025" 
d="M368 210q0 -30 29 -30h249q44 0 67 26q41 45 41 81t9 57t25 37q36 34 73 34t58.5 -9t37.5 -25q34 -34 34 -90t-23.5 -110t-63.5 -94q-87 -87 -209 -87h-589q-35 0 -54 20q-34 33 -34 70.5t25.5 64t56.5 26.5t52.5 8.5t37.5 23.5q34 32 34 80v344l-170 -62q-25 -9 -47 0.5
t-30 32t2.5 42.5t33.5 29l211 76v308q0 123 88 209q88 87 208 87h146q59 0 83 -55q7 -17 7 -45t-26 -54t-64 -26h-86q-50 0 -76 -25q-43 -44 -43 -94v-219l318 116q22 8 43 -1t29 -32t-2 -42.5t-32 -27.5l-356 -131v-321q0 -88 -68 -156q-25 -22 -25 -36z" />
    <glyph glyph-name="lslash" unicode="&#x142;" horiz-adv-x="678" 
d="M437 1075l131 82q14 10 37 10t36 -19t13 -34q0 -35 -27 -50l-190 -120v-646q0 -51 25 -75q44 -42 93 -42h10q37 0 57 -20q34 -34 34 -62t-7 -44.5t-19 -28.5q-28 -26 -65 -26h-69q-122 0 -209 87t-87 209v498l-89 -56q-16 -10 -32 -10q-35 0 -46.5 19.5t-11.5 42.5t28 42
l151 94v494q0 50 25 75q43 43 93 43q51 0 76 -25q43 -43 43 -93v-345z" />
    <glyph glyph-name="Nacute" unicode="&#x143;" horiz-adv-x="1193" 
d="M192 1003q0 -78 -73 -108q-22 -9 -46.5 -9t-46 9t-36.5 25q-35 34 -35 83v60q0 123 87 209q89 87 209 87h200q59 0 95 -49q15 -24 28.5 -24t21.5 8l18 17q73 68 168 68q108 0 186 -87q76 -86 76 -209l1 -985q0 -76 -71 -108q-22 -9 -46.5 -9t-46.5 9.5t-38 25.5
q-35 33 -35 82l-1 982q0 50 -25 75q-44 44 -92 44t-74 -23q-47 -42 -47 -89v-791q0 -123 -86 -209q-87 -87 -209 -87h-86q-38 0 -64 26t-26 63.5t26 64.5t64 27h27q49 0 75 25q43 41 43 92v881h-27q-48 -2 -72 -27q-42 -44 -42 -92v-57zM728 1820q48 66 111 66q42 0 67 -26
q42 -41 42 -79q0 -76 -63 -119l-220 -154q-24 -16 -43 -16q-34 0 -51 18t-17 43.5t17 48.5z" />
    <glyph glyph-name="nacute" unicode="&#x144;" 
d="M320.5 -10.5q-21.5 -9.5 -46 -9.5t-46 9t-37.5 25q-35 35 -35 83v869q0 49 26 76q42 44 80.5 44t57 -8.5t31.5 -19.5q19 -16 26.5 -32.5t13.5 -24.5t18.5 -8t20.5 8.5t26 26.5q60 58 131.5 58t119.5 -23.5t83 -64.5q77 -87 77 -208v-693q0 -76 -71 -107
q-22 -10 -46.5 -10t-46.5 9t-38 25q-35 35 -35 83v690q0 49 -24 75q-43 44 -92 44q-80 0 -111 -62q-10 -20 -10 -45v-702q0 -49 -25.5 -73.5t-47 -34zM547 1567q48 66 111 66q42 0 67 -25q42 -42 42 -80q0 -76 -63 -119l-220 -154q-24 -16 -43 -16q-34 0 -51 18t-17 43.5
t17 48.5z" />
    <glyph glyph-name="Ncommaaccent" unicode="&#x145;" horiz-adv-x="1200" 
d="M192 1003q0 -78 -73 -108q-22 -9 -46.5 -9t-46 9t-36.5 25q-35 34 -35 83v60q0 123 87 209q89 87 209 87h200q59 0 95 -49q15 -24 28.5 -24t21.5 8l18 17q73 68 168 68q108 0 186 -87q76 -86 76 -209l1 -985q0 -76 -71 -108q-22 -9 -46.5 -9t-46.5 9.5t-38 25.5
q-35 33 -35 82l-1 982q0 50 -25 75q-44 44 -92 44t-74 -23q-47 -42 -47 -89v-791q0 -123 -86 -209q-87 -87 -209 -87h-86q-38 0 -64 26t-26 63.5t26 64.5t64 27h27q49 0 75 25q43 41 43 92v881h-27q-48 -2 -72 -27q-42 -44 -42 -92v-57zM632 -372q6 12 6 37t-23 45
q-41 37 -41 74t9 57t25 35q35 31 74.5 31t63 -11.5t38.5 -31.5q29 -39 29 -106q0 -136 -72 -220q-39 -46 -73 -46t-51 18t-17 38t6 32t13 24t13 24z" />
    <glyph glyph-name="ncommaaccent" unicode="&#x146;" 
d="M320.5 -10.5q-21.5 -9.5 -46 -9.5t-46 9t-37.5 25q-35 35 -35 83v869q0 49 26 76q42 44 80.5 44t57 -8.5t31.5 -19.5q19 -16 26.5 -32.5t13.5 -24.5t18.5 -8t20.5 8.5t26 26.5q60 58 131.5 58t119.5 -23.5t83 -64.5q77 -87 77 -208v-693q0 -76 -71 -107
q-22 -10 -46.5 -10t-46.5 9t-38 25q-35 35 -35 83v690q0 49 -24 75q-43 44 -92 44q-80 0 -111 -62q-10 -20 -10 -45v-702q0 -49 -25.5 -73.5t-47 -34zM462 -372q6 12 6 37t-23 45q-41 37 -41 74t9 57t25 35q35 31 74.5 31t63 -11.5t38.5 -31.5q29 -39 29 -106
q0 -136 -72 -220q-39 -46 -73 -46t-51 18t-17 38t6 32t13 24t13 24z" />
    <glyph glyph-name="Ncaron" unicode="&#x147;" horiz-adv-x="1200" 
d="M192 1003q0 -78 -73 -108q-22 -9 -46.5 -9t-46 9t-36.5 25q-35 34 -35 83v60q0 123 87 209q89 87 209 87h200q59 0 95 -49q15 -24 28.5 -24t21.5 8l18 17q73 68 168 68q108 0 186 -87q76 -86 76 -209l1 -985q0 -76 -71 -108q-22 -9 -46.5 -9t-46.5 9.5t-38 25.5
q-35 33 -35 82l-1 982q0 50 -25 75q-44 44 -92 44t-74 -23q-47 -42 -47 -89v-791q0 -123 -86 -209q-87 -87 -209 -87h-86q-38 0 -64 26t-26 63.5t26 64.5t64 27h27q49 0 75 25q43 41 43 92v881h-27q-48 -2 -72 -27q-42 -44 -42 -92v-57zM460 1782q-13 24 -13 46t17 41t37 19
q40 0 60 -20l131 -134l131 134q20 20 50 20t47 -19t17 -41t-13 -46l-120 -213q-42 -76 -113 -76q-65 0 -111 76z" />
    <glyph glyph-name="ncaron" unicode="&#x148;" 
d="M320.5 -10.5q-21.5 -9.5 -46 -9.5t-46 9t-37.5 25q-35 35 -35 83v869q0 49 26 76q42 44 80.5 44t57 -8.5t31.5 -19.5q19 -16 26.5 -32.5t13.5 -24.5t18.5 -8t20.5 8.5t26 26.5q60 58 131.5 58t119.5 -23.5t83 -64.5q77 -87 77 -208v-693q0 -76 -71 -107
q-22 -10 -46.5 -10t-46.5 9t-38 25q-35 35 -35 83v690q0 49 -24 75q-43 44 -92 44q-80 0 -111 -62q-10 -20 -10 -45v-702q0 -49 -25.5 -73.5t-47 -34zM280 1529q-13 24 -13 46t17 41t37 19q40 0 60 -20l131 -134l131 134q20 20 50 20t47 -19t17 -41t-13 -46l-120 -213
q-42 -76 -113 -76q-65 0 -111 76z" />
    <glyph glyph-name="napostrophe" unicode="&#x149;" horiz-adv-x="1415" 
d="M297 1462l15 -22q-52 -199 -176 -479h-133q70 285 102 501h192zM465.5 -10.5q-21.5 -9.5 -46 -9.5t-46 9t-37.5 25q-35 35 -35 83v869q0 49 26 76q42 44 80.5 44t57 -8.5t31.5 -19.5q19 -16 26.5 -32.5t13.5 -24.5t18.5 -8t20.5 8.5t26 26.5q60 58 131.5 58t119.5 -23.5
t83 -64.5q77 -87 77 -208v-693q0 -76 -71 -107q-22 -10 -46.5 -10t-46.5 9t-38 25q-35 35 -35 83v690q0 49 -24 75q-43 44 -92 44q-80 0 -111 -62q-10 -20 -10 -45v-702q0 -49 -25.5 -73.5t-47 -34z" />
    <glyph glyph-name="Eng" unicode="&#x14a;" horiz-adv-x="1200" 
d="M569 98q0 -76 -71 -108q-21 -9 -45.5 -9t-46.5 9.5t-38 25.5q-35 33 -35 82v1081h-45q-48 -2 -72 -27q-42 -44 -42 -92v-57q0 -78 -73 -108q-22 -9 -46.5 -9t-46 9t-36.5 25q-35 34 -35 83v60q0 123 87 209q89 87 209 87h218q59 0 95 -49q15 -24 28.5 -24t21.5 8l18 17
q73 68 168 68q108 0 186 -87q76 -86 76 -209l1 -1261q0 -122 -85 -209q-86 -87 -209 -87h-156q-58 0 -83 54q-7 17 -7 36q0 36 19 57q33 34 71 34h98q50 0 74 25q41 43 41 92v1256q0 49 -26 74q-44 45 -92 45t-74 -23q-47 -42 -47 -89v-989z" />
    <glyph glyph-name="eng" unicode="&#x14b;" 
d="M629 787h1q0 49 -24 75q-43 44 -92 44q-80 0 -111 -62q-10 -20 -10 -45v-702q0 -49 -25 -73q-67 -65 -140 -35q-43 18 -62 63q-10 21 -10 45v869q0 49 26 76q42 44 80.5 44t57 -8.5t31.5 -19.5q19 -16 26.5 -32.5t13.5 -24.5t18.5 -8t20.5 8.5t26 26.5q60 58 131.5 58
t119.5 -23.5t83 -64.5q77 -87 77 -208l-2 -968q0 -124 -87 -209q-88 -87 -209 -87h-116q-58 0 -83 54q-7 17 -7 36q0 36 19 57q33 34 71 34h58q50 0 75 25q43 43 43 92v963z" />
    <glyph glyph-name="Omacron" unicode="&#x14c;" horiz-adv-x="1022" 
d="M373 1126.5q-10 -21.5 -10 -49.5t13 -49.5t29 -41.5q42 -51 42 -84.5t-9 -55t-25 -36.5q-35 -34 -80.5 -34t-79 23t-57.5 63q-50 85 -50 222q0 135 96 214q97 81 269 81q167 0 263 -81q92 -78 92 -213v-808q0 -137 -94 -217q-93 -79 -261 -79t-263 79q-92 77 -92 214v326
q0 49 26 74q43 44 80.5 44t59 -9t37.5 -25q34 -34 34 -84v-332q0 -51 34 -78.5t84.5 -27.5t84 27.5t33.5 78.5v812q0 50 -34.5 84.5t-79 34.5t-70.5 -9.5t-44 -25.5t-28 -37.5zM792 1680.5q7 -16.5 7 -35t-7 -35t-19 -28.5q-25 -27 -62 -27h-403q-35 0 -54 19q-34 34 -34 62
t7 44.5t19 29.5q25 26 62 26h403q35 0 54.5 -19.5t26.5 -36z" />
    <glyph glyph-name="omacron" unicode="&#x14d;" 
d="M156 792q0 135 92 214q96 80 264 80q166 0 262 -80q93 -80 93 -216v-517q0 -209 -204 -273q-66 -20 -150.5 -20t-150.5 20.5t-112 59.5q-94 78 -94 216v516zM630 787q0 50 -25 75q-44 44 -93 44q-50 0 -76 -26q-43 -43 -43 -93v-520q0 -51 34 -78.5t84.5 -27.5t84.5 27.5
t34 78.5v520zM783 1417.5q7 -16.5 7 -35t-7 -35t-19 -29.5q-25 -26 -62 -26h-403q-35 0 -55 20q-33 33 -33 61t7 44.5t19 28.5q25 27 62 27h403q35 0 54.5 -19.5t26.5 -36z" />
    <glyph glyph-name="Obreve" unicode="&#x14e;" horiz-adv-x="1022" 
d="M373 1126.5q-10 -21.5 -10 -49.5t13 -49.5t29 -41.5q42 -51 42 -84.5t-9 -55t-25 -36.5q-35 -34 -80.5 -34t-79 23t-57.5 63q-50 85 -50 222q0 135 96 214q97 81 269 81q167 0 263 -81q92 -78 92 -213v-808q0 -137 -94 -217q-93 -79 -261 -79t-263 79q-92 77 -92 214v326
q0 49 26 74q43 44 80.5 44t59 -9t37.5 -25q34 -34 34 -84v-332q0 -51 34 -78.5t84.5 -27.5t84 27.5t33.5 78.5v812q0 50 -34.5 84.5t-79 34.5t-70.5 -9.5t-44 -25.5t-28 -37.5zM511 1686q102 0 138 82q10 22 10 48.5t20 44.5t45 18t46.5 -16.5t21.5 -68.5t-17.5 -101.5
t-44.5 -83.5t-60.5 -54t-64.5 -31q-51 -18 -94 -18q-76 0 -159 49q-71 43 -104 137q-18 50 -18 102t21.5 68.5t46.5 16.5t45 -18t20 -44.5t10 -49t29 -40.5q42 -41 109 -41z" />
    <glyph glyph-name="obreve" unicode="&#x14f;" 
d="M156 792q0 135 92 214q96 80 264 80q166 0 262 -80q93 -80 93 -216v-517q0 -209 -204 -273q-66 -20 -150.5 -20t-150.5 20.5t-112 59.5q-94 78 -94 216v516zM630 787q0 50 -25 75q-44 44 -93 44q-50 0 -76 -26q-43 -43 -43 -93v-520q0 -51 34 -78.5t84.5 -27.5t84.5 27.5
t34 78.5v520zM512 1420q102 0 138 82q10 22 10 48.5t20 44.5t45 18t46.5 -16.5t21.5 -68.5t-17.5 -101.5t-44.5 -83.5t-60.5 -54t-64.5 -31q-51 -18 -94 -18q-76 0 -158 49q-72 43 -106 137q-17 50 -17 102t21.5 68.5t46.5 16.5t45 -18t20 -44.5t10 -49t28 -40.5
q43 -41 110 -41z" />
    <glyph glyph-name="Ohungarumlaut" unicode="&#x150;" horiz-adv-x="1022" 
d="M373 1126.5q-10 -21.5 -10 -49.5t13 -49.5t29 -41.5q42 -51 42 -84.5t-9 -55t-25 -36.5q-35 -34 -80.5 -34t-79 23t-57.5 63q-50 85 -50 222q0 135 96 214q97 81 269 81q167 0 263 -81q92 -78 92 -213v-808q0 -137 -94 -217q-93 -79 -261 -79t-263 79q-92 77 -92 214v326
q0 49 26 74q43 44 80.5 44t59 -9t37.5 -25q34 -34 34 -84v-332q0 -51 34 -78.5t84.5 -27.5t84 27.5t33.5 78.5v812q0 50 -34.5 84.5t-79 34.5t-70.5 -9.5t-44 -25.5t-28 -37.5zM413 1820q48 66 104 66q39 0 71 -31.5t32 -66.5q0 -68 -70 -116l-190 -164q-24 -16 -43 -16
q-34 0 -51 18t-17 43.5t17 48.5zM804 1820q48 66 104 66q39 0 71 -31.5t32 -66.5q0 -68 -70 -116l-190 -164q-24 -16 -42 -16q-35 0 -52 18t-17 43.5t17 48.5z" />
    <glyph glyph-name="ohungarumlaut" unicode="&#x151;" 
d="M156 792q0 135 92 214q96 80 264 80q166 0 262 -80q93 -80 93 -216v-517q0 -209 -204 -273q-66 -20 -150.5 -20t-150.5 20.5t-112 59.5q-94 78 -94 216v516zM630 787q0 50 -25 75q-44 44 -93 44q-50 0 -76 -26q-43 -43 -43 -93v-520q0 -51 34 -78.5t84.5 -27.5t84.5 27.5
t34 78.5v520zM413 1567q45 71 108 71q39 0 69 -26q49 -44 49 -80q0 -66 -50 -103l-202 -174q-22 -16 -41 -16q-33 0 -54.5 20t-21.5 45t12 45zM803 1567q45 71 108 71q39 0 69 -26q49 -44 49 -80q0 -66 -50 -103l-202 -174q-22 -16 -41 -16q-33 0 -54.5 20t-21.5 45t12 45z
" />
    <glyph glyph-name="OE" unicode="&#x152;" horiz-adv-x="1388" 
d="M867 486v-199q0 -53 34 -79.5t84 -26.5h233q59 0 83 -57q7 -16 7 -34.5t-7 -35t-19 -28.5q-26 -26 -64 -26h-203q-160 0 -233 81q-11 12 -22.5 12t-28.5 -18t-41.5 -36.5t-53.5 -31.5q-60 -26 -143 -26t-145 20.5t-105 58.5q-87 77 -87 214v276q0 49 26 74q43 44 80.5 44
t59 -9t37.5 -25q34 -34 34 -84v-282q0 -51 34 -78.5t85 -27.5t84 27.5t33 78.5v812q0 50 -34.5 84.5t-79 34.5t-70.5 -9.5t-44 -25.5q-38 -34 -38 -74.5t13 -62t29 -41.5q42 -51 42 -84.5t-9 -55t-25 -36.5q-35 -34 -80.5 -34t-79 23t-57.5 63q-50 85 -50 222q0 136 90 214
q92 81 256 81q150 0 244 -102q12 -12 23.5 -12t22.5 12q74 82 233 82h203q60 0 83 -55q7 -16 7 -34.5t-7 -35t-19 -28.5q-26 -28 -64 -28l-235 -1q-50 0 -83.5 -26.5t-33.5 -79.5v-405h263q38 0 63.5 -26t25.5 -63.5t-25.5 -64t-63.5 -26.5h-262z" />
    <glyph glyph-name="oe" unicode="&#x153;" horiz-adv-x="1496" 
d="M1226 154q26 -27 26 -64.5t-26 -63.5t-64 -26h-146q-164 0 -243 81q-11 12 -23 12t-23 -12q-84 -100 -244 -100q-141 0 -233 79q-94 82 -94 217v516q0 133 92 214q91 79 233 79q159 0 243 -100q11 -12 23 -12t23 12q84 100 244 100q141 0 232 -80q94 -82 94 -216v-285
q0 -50 -25 -75q-43 -43 -94 -43h-354v-94q0 -48 25 -72q43 -40 93 -40h177q38 0 64 -27zM630 787q0 50 -25 75q-44 44 -93 44t-74 -26q-44 -43 -44 -93v-520q0 -51 33.5 -78.5t84 -27.5t84.5 27.5t34 78.5v520zM1103 787q0 50 -25 75q-44 44 -93 44t-75 -24q-43 -42 -43 -90
v-230h236v225z" />
    <glyph glyph-name="Racute" unicode="&#x154;" horiz-adv-x="1281" 
d="M972 634q148 -58 148 -220v-29q0 -233 105 -371q32 -42 61 -72q44 -46 44 -88q0 -40 -22 -63q-36 -38 -71 -38t-66.5 15t-83 62t-97.5 127q-108 191 -108 468q0 49 -25 75q-42 44 -92 44h-118v-446q0 -76 -71 -108q-22 -9 -46.5 -9t-46.5 9.5t-38 25.5q-35 33 -35 82v858
q0 92 68 157l18 18q8 9 8 18t-6.5 19.5t-25.5 10.5h-113q-44 0 -68 -27q-40 -45 -40 -92v-57q0 -78 -73 -108q-22 -9 -46.5 -9t-46 9t-37.5 25q-34 34 -34 83v60q0 122 87 209t209 87h519q120 0 205 -87q84 -86 84 -209l1 -177q2 -174 -147 -252zM647 724h117q49 0 74 26
q44 43 44 94v216q0 48 -25 74q-42 45 -93.5 44.5t-84 -34.5t-32.5 -83v-337zM850 1820q48 66 111 66q42 0 67 -26q42 -41 42 -79q0 -76 -63 -119l-220 -154q-24 -16 -43 -16q-34 0 -51 18t-17 43.5t17 48.5z" />
    <glyph glyph-name="racute" unicode="&#x155;" horiz-adv-x="847" 
d="M620 1086q25 0 49 -7t45 -22q48 -35 48 -97q0 -50 -26 -75q-45 -43 -84 -43q-50 0 -91 32q-32 21 -72 21t-63 -25.5t-23 -64.5v-707q0 -48 -25 -74q-45 -44 -81.5 -44t-58 9.5t-37.5 25.5q-35 35 -35 83v868q0 49 26 76q42 44 80.5 44t57.5 -8.5t32 -19.5
q18 -16 26 -32.5t13.5 -24.5t18 -8t20.5 8l18 17q78 68 162 68zM496 1567q48 66 111 66q42 0 67 -25q42 -42 42 -80q0 -76 -63 -119l-220 -154q-24 -16 -43 -16q-34 0 -51 18t-17 43.5t17 48.5z" />
    <glyph glyph-name="Rcommaaccent" unicode="&#x156;" horiz-adv-x="1281" 
d="M972 634q148 -58 148 -220v-29q0 -233 105 -371q32 -42 61 -72q44 -46 44 -88q0 -40 -22 -63q-36 -38 -71 -38t-66.5 15t-83 62t-97.5 127q-108 191 -108 468q0 49 -25 75q-42 44 -92 44h-118v-446q0 -76 -71 -108q-22 -9 -46.5 -9t-46.5 9.5t-38 25.5q-35 33 -35 82v858
q0 92 68 157l18 18q8 9 8 18t-6.5 19.5t-25.5 10.5h-113q-44 0 -68 -27q-40 -45 -40 -92v-57q0 -78 -73 -108q-22 -9 -46.5 -9t-46 9t-37.5 25q-34 34 -34 83v60q0 122 87 209t209 87h519q120 0 205 -87q84 -86 84 -209l1 -177q2 -174 -147 -252zM647 724h117q49 0 74 26
q44 43 44 94v216q0 48 -25 74q-42 45 -93.5 44.5t-84 -34.5t-32.5 -83v-337zM771 -372q6 12 6 37t-23 45q-41 37 -41 74t9 57t25 35q35 31 74.5 31t63 -11.5t38.5 -31.5q29 -39 29 -106q0 -136 -72 -220q-39 -46 -73 -46t-51 18t-17 38t6 32t13 24t13 24z" />
    <glyph glyph-name="rcommaaccent" unicode="&#x157;" horiz-adv-x="852" 
d="M620 1086q25 0 49 -7t45 -22q48 -35 48 -97q0 -50 -26 -75q-45 -43 -84 -43q-50 0 -91 32q-32 21 -72 21t-63 -25.5t-23 -64.5v-707q0 -48 -25 -74q-45 -44 -81.5 -44t-58 9.5t-37.5 25.5q-35 35 -35 83v868q0 49 26 76q42 44 80.5 44t57.5 -8.5t32 -19.5
q18 -16 26 -32.5t13.5 -24.5t18 -8t20.5 8l18 17q78 68 162 68zM236 -372q6 12 6 37t-23 45q-41 37 -41 74t9 57t25 35q35 31 74.5 31t63 -11.5t38.5 -31.5q29 -39 29 -106q0 -136 -72 -220q-39 -46 -73 -46t-51 18t-17 38t6 32t13 24t13 24z" />
    <glyph glyph-name="Rcaron" unicode="&#x158;" horiz-adv-x="1281" 
d="M972 634q148 -58 148 -220v-29q0 -233 105 -371q32 -42 61 -72q44 -46 44 -88q0 -40 -22 -63q-36 -38 -71 -38t-66.5 15t-83 62t-97.5 127q-108 191 -108 468q0 49 -25 75q-42 44 -92 44h-118v-446q0 -76 -71 -108q-22 -9 -46.5 -9t-46.5 9.5t-38 25.5q-35 33 -35 82v858
q0 92 68 157l18 18q8 9 8 18t-6.5 19.5t-25.5 10.5h-113q-44 0 -68 -27q-40 -45 -40 -92v-57q0 -78 -73 -108q-22 -9 -46.5 -9t-46 9t-37.5 25q-34 34 -34 83v60q0 122 87 209t209 87h519q120 0 205 -87q84 -86 84 -209l1 -177q2 -174 -147 -252zM647 724h117q49 0 74 26
q44 43 44 94v216q0 48 -25 74q-42 45 -93.5 44.5t-84 -34.5t-32.5 -83v-337zM582 1782q-13 24 -13 46t17 41t37 19q40 0 60 -20l131 -134l131 134q20 20 50 20t47 -19t17 -41t-13 -46l-120 -213q-42 -76 -113 -76q-65 0 -111 76z" />
    <glyph glyph-name="rcaron" unicode="&#x159;" horiz-adv-x="852" 
d="M620 1086q25 0 49 -7t45 -22q48 -35 48 -97q0 -50 -26 -75q-45 -43 -84 -43q-50 0 -91 32q-32 21 -72 21t-63 -25.5t-23 -64.5v-707q0 -48 -25 -74q-45 -44 -81.5 -44t-58 9.5t-37.5 25.5q-35 35 -35 83v868q0 49 26 76q42 44 80.5 44t57.5 -8.5t32 -19.5
q18 -16 26 -32.5t13.5 -24.5t18 -8t20.5 8l18 17q78 68 162 68zM229 1529q-13 24 -13 46t17 41t37 19q40 0 60 -20l131 -134l131 134q20 20 50 20t47 -19t17 -41t-13 -46l-120 -213q-42 -76 -113 -76q-65 0 -111 76z" />
    <glyph glyph-name="Sacute" unicode="&#x15a;" horiz-adv-x="987" 
d="M609 1032.5q13 19.5 13 46t-9.5 48t-26.5 37.5q-39 35 -83 35t-70.5 -13t-46.5 -37q-42 -50 -42 -136q0 -112 67 -199q20 -26 43 -44l227 -182q139 -116 139 -276q0 -132 -97 -224q-94 -88 -219 -88h-141q-37 0 -64 26t-27 54t7.5 44.5t20.5 29.5q27 27 63 27h84
q61 0 98 31.5t37 74.5q0 71 -63 128l-171 140q-122 99 -172 186q-56 99 -56 254q0 181 99 283q97 101 271 101q163 0 256 -81.5t93 -223.5q0 -120 -50 -198q-51 -80 -133 -80q-49 0 -75 24q-43 42 -43 81.5t13 58.5t29 36t29 36.5zM507 1820q48 66 111 66q42 0 67 -26
q42 -41 42 -79q0 -76 -63 -119l-220 -154q-24 -16 -43 -16q-34 0 -51 18t-17 43.5t17 48.5z" />
    <glyph glyph-name="sacute" unicode="&#x15b;" 
d="M223 26q-27 26 -27 54t7.5 44.5t20.5 29.5q27 27 63 27h221q61 0 98 34.5t37 85.5t-28 82.5t-69 44.5l-180 50q-93 28 -148 104q-56 77 -56 163t25.5 142t68.5 96q89 83 220 83h244q38 0 63 -26.5t25 -64.5t-25 -63.5t-63 -25.5h-225q-51 0 -79.5 -30t-28.5 -71
q0 -64 71 -96l196 -57q158 -53 210 -200q17 -50 17 -115t-26.5 -124t-70.5 -102q-93 -91 -219 -91h-278q-37 0 -64 26zM548 1567q48 66 111 66q42 0 67 -25q42 -42 42 -80q0 -76 -63 -119l-220 -154q-24 -16 -43 -16q-34 0 -51 18t-17 43.5t17 48.5z" />
    <glyph glyph-name="Scircumflex" unicode="&#x15c;" horiz-adv-x="987" 
d="M609 1032.5q13 19.5 13 46t-9.5 48t-26.5 37.5q-39 35 -83 35t-70.5 -13t-46.5 -37q-42 -50 -42 -136q0 -112 67 -199q20 -26 43 -44l227 -182q139 -116 139 -276q0 -132 -97 -224q-94 -88 -219 -88h-141q-37 0 -64 26t-27 54t7.5 44.5t20.5 29.5q27 27 63 27h84
q61 0 98 31.5t37 74.5q0 71 -63 128l-171 140q-122 99 -172 186q-56 99 -56 254q0 181 99 283q97 101 271 101q163 0 256 -81.5t93 -223.5q0 -120 -50 -198q-51 -80 -133 -80q-49 0 -75 24q-43 42 -43 81.5t13 58.5t29 36t29 36.5zM702 1599q13 -24 13 -46t-17 -41t-37 -19
q-40 0 -60 20l-131 134l-131 -134q-20 -20 -50 -20t-47 19t-17 41t13 46l120 213q42 76 113 76q65 0 111 -76z" />
    <glyph glyph-name="scircumflex" unicode="&#x15d;" 
d="M223 26q-27 26 -27 54t7.5 44.5t20.5 29.5q27 27 63 27h221q61 0 98 34.5t37 85.5t-28 82.5t-69 44.5l-180 50q-93 28 -148 104q-56 77 -56 163t25.5 142t68.5 96q89 83 220 83h244q38 0 63 -26.5t25 -64.5t-25 -63.5t-63 -25.5h-225q-51 0 -79.5 -30t-28.5 -71
q0 -64 71 -96l196 -57q158 -53 210 -200q17 -50 17 -115t-26.5 -124t-70.5 -102q-93 -91 -219 -91h-278q-37 0 -64 26zM744 1346q13 -24 13 -46t-17 -41t-37 -19q-40 0 -60 20l-131 134l-131 -134q-20 -20 -50 -20t-47 19t-17 41t13 46l120 213q42 76 113 76q65 0 111 -76z
" />
    <glyph glyph-name="Scedilla" unicode="&#x15e;" horiz-adv-x="987" 
d="M404 -204q-27 0 -44 16t-17 40t14 57l40 91h-34q-37 0 -64 26t-27 54t7.5 44.5t20.5 29.5q27 27 63 27h84q61 0 98 31.5t37 74.5q0 71 -63 128l-171 140q-122 99 -172 186q-56 99 -56 254q0 181 99 283q97 101 271 101q163 0 256 -81.5t93 -223.5q0 -120 -50 -198
q-51 -80 -133 -80q-49 0 -75 24q-43 42 -43 81.5t13 58.5t29 36q42 45 42 77t-9.5 53.5t-26.5 37.5q-39 35 -83 35t-70.5 -13t-46.5 -37q-42 -50 -42 -136q0 -112 67 -199q20 -26 43 -44l227 -182q139 -116 139 -276q0 -125 -87 -214q-85 -87 -202 -97l-40 -93q92 0 145 -52
q49 -46 49 -121q0 -119 -123 -159q-42 -14 -98 -14h-161q-23 0 -39 16.5t-16 40t16 40t39 16.5h121q32 0 52.5 18.5t20.5 43t-19.5 42t-47.5 17.5h-26z" />
    <glyph glyph-name="scedilla" unicode="&#x15f;" 
d="M464 -204q-27 0 -44 16t-17 40t14 57l40 91h-170q-37 0 -64 26t-27 54t7.5 44.5t20.5 29.5q27 27 63 27h221q61 0 98 34.5t37 85.5t-28 82.5t-69 44.5l-180 50q-93 28 -148 104q-56 77 -56 163t25.5 142t68.5 96q89 83 220 83h244q38 0 63 -26.5t25 -64.5t-25 -63.5
t-63 -25.5h-225q-51 0 -79.5 -30t-28.5 -71q0 -64 71 -96l196 -57q158 -53 210 -200q17 -50 17 -113t-24 -120t-64 -99q-84 -89 -202 -99l-40 -93q92 0 145 -52q49 -46 49 -121q0 -119 -123 -159q-42 -14 -98 -14h-161q-23 0 -39 16.5t-16 40t16 40t39 16.5h121
q32 0 52.5 18.5t20.5 43t-19.5 42t-47.5 17.5h-26z" />
    <glyph glyph-name="Scaron" unicode="&#x160;" horiz-adv-x="987" 
d="M609 1032.5q13 19.5 13 46t-9.5 48t-26.5 37.5q-39 35 -83 35t-70.5 -13t-46.5 -37q-42 -50 -42 -136q0 -112 67 -199q20 -26 43 -44l227 -182q139 -116 139 -276q0 -132 -97 -224q-94 -88 -219 -88h-141q-37 0 -64 26t-27 54t7.5 44.5t20.5 29.5q27 27 63 27h84
q61 0 98 31.5t37 74.5q0 71 -63 128l-171 140q-122 99 -172 186q-56 99 -56 254q0 181 99 283q97 101 271 101q163 0 256 -81.5t93 -223.5q0 -120 -50 -198q-51 -80 -133 -80q-49 0 -75 24q-43 42 -43 81.5t13 58.5t29 36t29 36.5zM239 1782q-13 24 -13 46t17 41t37 19
q40 0 60 -20l131 -134l131 134q20 20 50 20t47 -19t17 -41t-13 -46l-120 -213q-42 -76 -113 -76q-65 0 -111 76z" />
    <glyph glyph-name="scaron" unicode="&#x161;" 
d="M223 26q-27 26 -27 54t7.5 44.5t20.5 29.5q27 27 63 27h221q61 0 98 34.5t37 85.5t-28 82.5t-69 44.5l-180 50q-93 28 -148 104q-56 77 -56 163t25.5 142t68.5 96q89 83 220 83h244q38 0 63 -26.5t25 -64.5t-25 -63.5t-63 -25.5h-225q-51 0 -79.5 -30t-28.5 -71
q0 -64 71 -96l196 -57q158 -53 210 -200q17 -50 17 -115t-26.5 -124t-70.5 -102q-93 -91 -219 -91h-278q-37 0 -64 26zM281 1529q-13 24 -13 46t17 41t37 19q40 0 60 -20l131 -134l131 134q20 20 50 20t47 -19t17 -41t-13 -46l-120 -213q-42 -76 -113 -76q-65 0 -111 76z
" />
    <glyph glyph-name="Tcommaaccent" unicode="&#x162;" horiz-adv-x="878" 
d="M500 956q0 95 86 175q8 8 8 17.5t-6.5 20t-25.5 10.5h-218q-44 0 -68 -27q-40 -45 -40 -92v-57q0 -78 -73 -108q-22 -9 -46.5 -9t-46 9t-36.5 25q-35 34 -35 83v60q0 122 87 209t209 87h551q38 0 63.5 -26.5t25.5 -54.5t-7 -44.5t-19 -28.5q-26 -26 -56 -26t-50 -9.5
t-35 -25.5q-32 -34 -32 -83v-765q0 -123 -86 -209q-87 -87 -209 -87h-116q-38 0 -64 26t-26 63.5t26 64.5t64 27h57q49 0 75 25q43 41 43 92v658zM351 -372q6 12 6 37t-23 45q-41 37 -41 74t9 57t25 35q35 31 74.5 31t63 -11.5t38.5 -31.5q29 -39 29 -106q0 -136 -72 -220
q-39 -46 -73 -46t-51 18t-17 38t6 32t13 24t13 24z" />
    <glyph glyph-name="tcommaaccent" unicode="&#x163;" horiz-adv-x="849" 
d="M734 154q25 -27 25 -64.5t-25 -63.5t-63 -26h-120q-122 0 -209 87q-86 86 -86 209v594h-118q-57 0 -81 54q-7 16 -7 34q0 57 54 81q16 7 34 7h118v208q0 79 72 110q21 10 46 10q49 0 74 -26q44 -43 44 -94v-208h181q35 0 54 -19q32 -32 32 -68.5t-25 -62.5t-61 -26h-181
v-592q0 -50 26 -74q44 -43 92 -43h61q38 0 63 -27zM400 -372q6 12 6 37t-23 45q-41 37 -41 74t9 57t25 35q35 31 74.5 31t63 -11.5t38.5 -31.5q29 -39 29 -106q0 -136 -72 -220q-39 -46 -73 -46t-51 18t-17 38t6 32t13 24t13 24z" />
    <glyph glyph-name="Tcaron" unicode="&#x164;" horiz-adv-x="878" 
d="M500 956q0 95 86 175q8 8 8 17.5t-6.5 20t-25.5 10.5h-218q-44 0 -68 -27q-40 -45 -40 -92v-57q0 -78 -73 -108q-22 -9 -46.5 -9t-46 9t-36.5 25q-35 34 -35 83v60q0 122 87 209t209 87h551q38 0 63.5 -26.5t25.5 -54.5t-7 -44.5t-19 -28.5q-26 -26 -56 -26t-50 -9.5
t-35 -25.5q-32 -34 -32 -83v-765q0 -123 -86 -209q-87 -87 -209 -87h-116q-38 0 -64 26t-26 63.5t26 64.5t64 27h57q49 0 75 25q43 41 43 92v658zM268 1782q-13 24 -13 46t17 41t37 19q40 0 60 -20l131 -134l131 134q20 20 50 20t47 -19t17 -41t-13 -46l-120 -213
q-42 -76 -113 -76q-65 0 -111 76z" />
    <glyph glyph-name="tcaron" unicode="&#x165;" horiz-adv-x="1194" 
d="M734 154q25 -27 25 -64.5t-25 -63.5t-63 -26h-120q-122 0 -209 87q-86 86 -86 209v594h-118q-57 0 -81 54q-7 16 -7 34q0 57 54 81q16 7 34 7h118v208q0 79 72 110q21 10 46 10q49 0 74 -26q44 -43 44 -94v-208h181q35 0 54 -19q32 -32 32 -68.5t-25 -62.5t-61 -26h-181
v-592q0 -50 26 -74q44 -43 92 -43h61q38 0 63 -27zM953 1379q136 0 136 -190q0 -104 -29.5 -174.5t-59.5 -101.5t-64.5 -31t-53.5 20t-19 43t6 37t13 27q20 34 20 62t-11.5 48t-26.5 38q-37 47 -37 82.5t8.5 59.5t24.5 42q34 38 93 38z" />
    <glyph glyph-name="Tbar" unicode="&#x166;" horiz-adv-x="878" 
d="M500 701h-150q-27 0 -44.5 16t-17 40t17 40t41.5 16h153v143q0 95 86 175q8 8 8 17.5t-6.5 20t-25.5 10.5h-218q-44 0 -68 -27q-40 -45 -40 -92v-57q0 -78 -73 -108q-22 -9 -46.5 -9t-46 9t-36.5 25q-35 34 -35 83v60q0 122 87 209t209 87h551q38 0 63.5 -26.5
t25.5 -54.5t-7 -44.5t-19 -28.5q-26 -26 -56 -26t-50 -9.5t-35 -25.5q-32 -34 -32 -83v-248h143q24 0 40.5 -16.5t16.5 -40.5t-16.5 -39.5t-39.5 -15.5h-144v-405q0 -123 -86 -209q-87 -87 -209 -87h-116q-38 0 -64 26t-26 63.5t26 64.5t64 27h57q49 0 75 25q43 41 43 92
v403z" />
    <glyph glyph-name="tbar" unicode="&#x167;" horiz-adv-x="849" 
d="M734 154q25 -27 25 -64.5t-25 -63.5t-63 -26h-120q-122 0 -209 87q-86 86 -86 209v292h-125q-27 0 -44.5 16t-17 40t17 40t41.5 16h128v190h-118q-57 0 -81 54q-7 16 -7 34q0 57 54 81q16 7 34 7h118v208q0 79 72 110q21 10 46 10q49 0 74 -26q44 -43 44 -94v-208h181
q35 0 54 -19q32 -32 32 -68.5t-25 -62.5t-61 -26h-181v-190h188q24 0 40.5 -16.5t16.5 -40.5t-16.5 -39.5t-39.5 -15.5h-189v-290q0 -50 26 -74q44 -43 92 -43h61q38 0 63 -27z" />
    <glyph glyph-name="Utilde" unicode="&#x168;" horiz-adv-x="1362" 
d="M1007.5 1369.5q21.5 9.5 46 9.5t46 -9.5t37.5 -25.5q35 -33 35 -82v-1161q0 -49 -26 -76q-65 -67 -138 -36q-41 17 -62 60q-12 25 -26 25t-22 -8l-18 -17q-28 -26 -64 -47t-91.5 -21t-103.5 23.5t-83 63.5q-77 86 -77 209v902h-46q-48 0 -73 -26q-41 -44 -41 -93v-57
q0 -78 -73 -108q-22 -9 -46.5 -9t-46 9t-37.5 25q-34 32 -34 83v60q0 122 87 209t209 87h218q49 0 75 -25q45 -43 45 -92v-962q0 -50 25 -75q44 -44 92 -44q79 0 110 62q10 20 10 45v994q0 49 25.5 73.5t47 34zM1048 1767q20 17 45.5 17t42 -18t16.5 -44t-20.5 -56t-45 -59
t-53.5 -51q-60 -45 -126 -45t-107 29t-61 52l-26 32q-7 7 -16 7q-11 0 -38 -23l-62 -52q-20 -17 -45.5 -17t-42 18t-16.5 44t20 56t44.5 59.5t53.5 50.5q61 45 135 45q79 0 137 -60l35 -37q8 -8 14.5 -15.5t15.5 -7.5q11 0 38 23z" />
    <glyph glyph-name="utilde" unicode="&#x169;" 
d="M702.5 1076.5q21.5 9.5 46 9.5t46 -9t37.5 -25q35 -35 35 -83v-869q0 -49 -25 -76q-43 -44 -81.5 -44t-57.5 8.5t-31 19.5q-19 16 -26.5 32.5t-13.5 24.5t-18.5 8t-20.5 -8.5t-26 -26.5q-60 -58 -131.5 -58t-119.5 23.5t-84 64.5q-76 87 -76 208v693q0 76 72 107
q21 10 45.5 10t46.5 -9t38 -25q35 -35 35 -83v-690q0 -50 25 -75q44 -44 92 -44q79 0 110 62q10 20 10 45v702q0 49 25.5 73.5t47 34zM759 1494q20 17 45.5 17t42 -18t16.5 -44t-20.5 -56t-45 -59t-52.5 -50q-61 -46 -127 -46t-107 29t-61 53l-27 30q-6 8 -16 8t-37 -23
l-62 -52q-20 -17 -45.5 -17t-42 18t-16.5 44t20 56t44.5 59.5t52.5 50.5q62 45 136 45q79 0 138 -60l34 -37q8 -8 14.5 -15.5t15.5 -7.5q11 0 38 23z" />
    <glyph glyph-name="Umacron" unicode="&#x16a;" horiz-adv-x="1362" 
d="M1007.5 1369.5q21.5 9.5 46 9.5t46 -9.5t37.5 -25.5q35 -33 35 -82v-1161q0 -49 -26 -76q-65 -67 -138 -36q-41 17 -62 60q-12 25 -26 25t-22 -8l-18 -17q-28 -26 -64 -47t-91.5 -21t-103.5 23.5t-83 63.5q-77 86 -77 209v902h-46q-48 0 -73 -26q-41 -44 -41 -93v-57
q0 -78 -73 -108q-22 -9 -46.5 -9t-46 9t-37.5 25q-34 32 -34 83v60q0 122 87 209t209 87h218q49 0 75 -25q45 -43 45 -92v-962q0 -50 25 -75q44 -44 92 -44q79 0 110 62q10 20 10 45v994q0 49 25.5 73.5t47 34zM1096 1680.5q7 -16.5 7 -35t-7 -35t-19 -28.5q-25 -27 -62 -27
h-403q-35 0 -54 19q-34 34 -34 62t7 44.5t19 29.5q25 26 62 26h403q35 0 54.5 -19.5t26.5 -36z" />
    <glyph glyph-name="umacron" unicode="&#x16b;" 
d="M702.5 1076.5q21.5 9.5 46 9.5t46 -9t37.5 -25q35 -35 35 -83v-869q0 -49 -25 -76q-43 -44 -81.5 -44t-57.5 8.5t-31 19.5q-19 16 -26.5 32.5t-13.5 24.5t-18.5 8t-20.5 -8.5t-26 -26.5q-60 -58 -131.5 -58t-119.5 23.5t-84 64.5q-76 87 -76 208v693q0 76 72 107
q21 10 45.5 10t46.5 -9t38 -25q35 -35 35 -83v-690q0 -50 25 -75q44 -44 92 -44q79 0 110 62q10 20 10 45v702q0 49 25.5 73.5t47 34zM782 1417.5q7 -16.5 7 -35t-7 -35t-19 -29.5q-25 -26 -62 -26h-403q-35 0 -55 20q-33 33 -33 61t7 44.5t19 28.5q25 27 62 27h403
q35 0 54.5 -19.5t26.5 -36z" />
    <glyph glyph-name="Ubreve" unicode="&#x16c;" horiz-adv-x="1362" 
d="M1007.5 1369.5q21.5 9.5 46 9.5t46 -9.5t37.5 -25.5q35 -33 35 -82v-1161q0 -49 -26 -76q-65 -67 -138 -36q-41 17 -62 60q-12 25 -26 25t-22 -8l-18 -17q-28 -26 -64 -47t-91.5 -21t-103.5 23.5t-83 63.5q-77 86 -77 209v902h-46q-48 0 -73 -26q-41 -44 -41 -93v-57
q0 -78 -73 -108q-22 -9 -46.5 -9t-46 9t-37.5 25q-34 32 -34 83v60q0 122 87 209t209 87h218q49 0 75 -25q45 -43 45 -92v-962q0 -50 25 -75q44 -44 92 -44q79 0 110 62q10 20 10 45v994q0 49 25.5 73.5t47 34zM815 1686q102 0 138 82q10 22 10 48.5t20 44.5t45 18
t46.5 -16.5t21.5 -68.5t-17.5 -101.5t-44.5 -83.5t-60.5 -54t-64.5 -31q-51 -18 -94 -18q-76 0 -159 49q-71 43 -104 137q-18 50 -18 102t21.5 68.5t46.5 16.5t45 -18t20 -44.5t10 -49t29 -40.5q42 -41 109 -41z" />
    <glyph glyph-name="ubreve" unicode="&#x16d;" 
d="M702.5 1076.5q21.5 9.5 46 9.5t46 -9t37.5 -25q35 -35 35 -83v-869q0 -49 -25 -76q-43 -44 -81.5 -44t-57.5 8.5t-31 19.5q-19 16 -26.5 32.5t-13.5 24.5t-18.5 8t-20.5 -8.5t-26 -26.5q-60 -58 -131.5 -58t-119.5 23.5t-84 64.5q-76 87 -76 208v693q0 76 72 107
q21 10 45.5 10t46.5 -9t38 -25q35 -35 35 -83v-690q0 -50 25 -75q44 -44 92 -44q79 0 110 62q10 20 10 45v702q0 49 25.5 73.5t47 34zM511 1420q102 0 138 82q10 22 10 48.5t20 44.5t45 18t46.5 -16.5t21.5 -68.5t-17.5 -101.5t-44.5 -83.5t-60.5 -54t-64.5 -31
q-51 -18 -94 -18q-76 0 -158 49q-72 43 -106 137q-17 50 -17 102t21.5 68.5t46.5 16.5t45 -18t20 -44.5t10 -49t28 -40.5q43 -41 110 -41z" />
    <glyph glyph-name="Uring" unicode="&#x16e;" horiz-adv-x="1362" 
d="M1007.5 1369.5q21.5 9.5 46 9.5t46 -9.5t37.5 -25.5q35 -33 35 -82v-1161q0 -49 -26 -76q-65 -67 -138 -36q-41 17 -62 60q-12 25 -26 25t-22 -8l-18 -17q-28 -26 -64 -47t-91.5 -21t-103.5 23.5t-83 63.5q-77 86 -77 209v902h-46q-48 0 -73 -26q-41 -44 -41 -93v-57
q0 -78 -73 -108q-22 -9 -46.5 -9t-46 9t-37.5 25q-34 32 -34 83v60q0 122 87 209t209 87h218q49 0 75 -25q45 -43 45 -92v-962q0 -50 25 -75q44 -44 92 -44q79 0 110 62q10 20 10 45v994q0 49 25.5 73.5t47 34zM814 1485q-45 0 -85 17.5t-71 46.5q-65 64 -65 155t65 155
q68 66 156 66q91 0 156 -66q63 -65 63 -155q0 -92 -63.5 -155.5t-155.5 -63.5zM850.5 1792q-17.5 8 -48 8t-58 -28t-27.5 -57.5t8 -47t21 -30.5q30 -28 58 -28t45.5 8t30.5 21q30 28 30 56.5t-8 46t-21 30.5t-30.5 21z" />
    <glyph glyph-name="uring" unicode="&#x16f;" 
d="M702.5 1076.5q21.5 9.5 46 9.5t46 -9t37.5 -25q35 -35 35 -83v-869q0 -49 -25 -76q-43 -44 -81.5 -44t-57.5 8.5t-31 19.5q-19 16 -26.5 32.5t-13.5 24.5t-18.5 8t-20.5 -8.5t-26 -26.5q-60 -58 -131.5 -58t-119.5 23.5t-84 64.5q-76 87 -76 208v693q0 76 72 107
q21 10 45.5 10t46.5 -9t38 -25q35 -35 35 -83v-690q0 -50 25 -75q44 -44 92 -44q79 0 110 62q10 20 10 45v702q0 49 25.5 73.5t47 34zM511 1238q-45 0 -85 17.5t-71 46.5q-65 64 -65 155t65 155q68 66 156 66q91 0 156 -66q63 -65 63 -155q0 -92 -63.5 -155.5t-155.5 -63.5z
M547.5 1545q-17.5 8 -48 8t-58 -28t-27.5 -57.5t8 -47t21 -30.5q30 -28 58 -28t45.5 8t30.5 21q30 28 30 56.5t-8 46t-21 30.5t-30.5 21z" />
    <glyph glyph-name="Uhungarumlaut" unicode="&#x170;" horiz-adv-x="1362" 
d="M1007.5 1369.5q21.5 9.5 46 9.5t46 -9.5t37.5 -25.5q35 -33 35 -82v-1161q0 -49 -26 -76q-65 -67 -138 -36q-41 17 -62 60q-12 25 -26 25t-22 -8l-18 -17q-28 -26 -64 -47t-91.5 -21t-103.5 23.5t-83 63.5q-77 86 -77 209v902h-46q-48 0 -73 -26q-41 -44 -41 -93v-57
q0 -78 -73 -108q-22 -9 -46.5 -9t-46 9t-37.5 25q-34 32 -34 83v60q0 122 87 209t209 87h218q49 0 75 -25q45 -43 45 -92v-962q0 -50 25 -75q44 -44 92 -44q79 0 110 62q10 20 10 45v994q0 49 25.5 73.5t47 34zM717 1820q48 66 104 66q39 0 71 -31.5t32 -66.5
q0 -68 -70 -116l-190 -164q-24 -16 -43 -16q-34 0 -51 18t-17 43.5t17 48.5zM1108 1820q48 66 104 66q39 0 71 -31.5t32 -66.5q0 -68 -70 -116l-190 -164q-24 -16 -42 -16q-35 0 -52 18t-17 43.5t17 48.5z" />
    <glyph glyph-name="uhungarumlaut" unicode="&#x171;" 
d="M702.5 1076.5q21.5 9.5 46 9.5t46 -9t37.5 -25q35 -35 35 -83v-869q0 -49 -25 -76q-43 -44 -81.5 -44t-57.5 8.5t-31 19.5q-19 16 -26.5 32.5t-13.5 24.5t-18.5 8t-20.5 -8.5t-26 -26.5q-60 -58 -131.5 -58t-119.5 23.5t-84 64.5q-76 87 -76 208v693q0 76 72 107
q21 10 45.5 10t46.5 -9t38 -25q35 -35 35 -83v-690q0 -50 25 -75q44 -44 92 -44q79 0 110 62q10 20 10 45v702q0 49 25.5 73.5t47 34zM412 1567q45 71 108 71q39 0 69 -26q49 -44 49 -80q0 -66 -50 -103l-202 -174q-22 -16 -41 -16q-33 0 -54.5 20t-21.5 45t12 45zM802 1567
q45 71 108 71q39 0 69 -26q49 -44 49 -80q0 -66 -50 -103l-202 -174q-22 -16 -41 -16q-33 0 -54.5 20t-21.5 45t12 45z" />
    <glyph glyph-name="Uogonek" unicode="&#x172;" horiz-adv-x="1362" 
d="M1097 -11l-97 -115q-48 -57 -48 -92q0 -72 73 -72h73q29 0 50.5 -21.5t21.5 -52t-21 -52.5t-51 -22h-142q-113 0 -166.5 44.5t-53.5 118.5q0 84 138 223l82 82q-7 11 -10 19q-12 25 -26 25t-22 -8l-18 -17q-28 -26 -64 -47t-91.5 -21t-103.5 23.5t-83 63.5
q-77 86 -77 209v902h-46q-48 0 -73 -26q-41 -44 -41 -93v-57q0 -78 -73 -108q-22 -9 -46.5 -9t-46 9t-37.5 25q-34 32 -34 83v60q0 122 87 209t209 87h218q49 0 75 -25q45 -43 45 -92v-962q0 -50 25 -75q44 -44 92 -44q79 0 110 62q10 20 10 45v994q0 49 25 73q46 44 82 44
t57.5 -9.5t37.5 -25.5q35 -33 35 -82v-1161q0 -39 -21 -69t-54 -43z" />
    <glyph glyph-name="uogonek" unicode="&#x173;" 
d="M789 -13l-95 -113q-48 -57 -48 -92q0 -72 73 -72h73q29 0 50.5 -21.5t21.5 -52t-21 -52.5t-51 -22h-142q-113 0 -166.5 44.5t-53.5 118.5q0 86 138 224l83 82q-4 5 -6 9.5t-5 10.5q-9 22 -24 22t-23 -8.5t-26 -26.5q-60 -58 -131.5 -58t-119.5 23.5t-84 64.5
q-76 87 -76 208v693q0 76 72 107q21 10 45.5 10t46.5 -9t38 -25q35 -35 35 -83v-690q0 -50 25 -75q44 -44 92 -44q79 0 110 62q10 20 10 45v702q0 49 26 73q45 44 81 44t57.5 -9t37.5 -25q35 -35 35 -83v-869q0 -40 -22 -70.5t-56 -42.5z" />
    <glyph glyph-name="Wcircumflex" unicode="&#x174;" horiz-adv-x="1706" 
d="M1287 1259q0 49 25 76q43 44 95 44q50 0 74 -25q43 -45 43 -95l-1 -985q0 -133 -93 -214q-90 -79 -232 -79q-159 0 -243 100q-11 12 -23 12t-23 -12q-84 -100 -244 -100q-142 0 -231 79q-94 83 -94 217v902h-43q-48 0 -73 -26q-41 -44 -41 -93v-57q0 -78 -73 -108
q-22 -9 -46.5 -9t-46 9t-37.5 25q-34 34 -34 83v60q0 123 88 209q88 87 208 87h218q50 0 74 -25q43 -45 43 -95v-971q0 -51 33.5 -78.5t83 -27.5t84.5 26.5t35 79.5v991q0 49 25 76q43 44 95 44q50 0 74 -25q43 -45 43 -95v-991q0 -53 34 -79.5t84 -26.5t84 27.5t34 78.5z
M1157 1599q13 -24 13 -46t-17 -41t-37 -19q-40 0 -60 20l-131 134l-131 -134q-20 -20 -50 -20t-47 19t-17 41t13 46l120 213q42 76 113 76q65 0 111 -76z" />
    <glyph glyph-name="wcircumflex" unicode="&#x175;" horiz-adv-x="1535" 
d="M1123 966q0 49 25 76q43 44 95 44q50 0 74 -26q43 -44 43 -94v-693q0 -133 -92 -214q-91 -79 -233 -79q-162 0 -244 100q-26 22 -46 0q-84 -100 -244 -100q-141 0 -232 80q-94 82 -94 216v690q0 49 25 76q43 44 95 44q50 0 74 -26q43 -44 43 -94v-699q0 -51 34 -78.5
t83.5 -27.5t84.5 26.5t35 79.5v698q0 49 25 76q43 44 95 44q50 0 74 -25q43 -45 43 -95v-698q0 -53 34.5 -79.5t84.5 -26.5t84 27.5t34 78.5v699zM998 1346q13 -24 13 -46t-17 -41t-37 -19q-40 0 -60 20l-131 134l-131 -134q-20 -20 -50 -20t-47 19t-17 41t13 46l120 213
q42 76 113 76q65 0 111 -76z" />
    <glyph glyph-name="Ycircumflex" unicode="&#x176;" horiz-adv-x="1361" 
d="M1005.5 1369.5q21.5 9.5 46 9.5t46.5 -9.5t38 -25.5q35 -33 35 -82v-966q0 -122 -89 -209q-88 -87 -210 -87h-177q-38 0 -64.5 26t-26.5 64t26.5 64.5t64.5 26.5h118q79 0 111 71q9 22 9 46v137q0 19 -10.5 25.5t-20.5 6.5t-18 -9l-17 -16q-68 -68 -158 -68
q-107 0 -179 87q-71 86 -71 209v509h-44q-48 0 -73 -26q-41 -44 -41 -93v-57q0 -78 -73 -108q-22 -9 -46.5 -9t-46 9t-37.5 25q-34 34 -34 83v60q0 123 88 209q88 87 208 87h217q48 0 74 -25q45 -43 45 -92v-569q0 -49 26 -75q44 -44 80.5 -44t57.5 7.5t38 21.5q35 30 35 78
v601q0 49 25.5 73.5t47 34zM1046 1599q13 -24 13 -46t-17 -41t-37 -19q-40 0 -60 20l-131 134l-131 -134q-20 -20 -50 -20t-47 19t-17 41t13 46l120 213q42 76 113 76q65 0 111 -76z" />
    <glyph glyph-name="ycircumflex" unicode="&#x177;" 
d="M701.5 1076.5q21.5 9.5 46 9.5t46.5 -9t38 -25q35 -35 35 -83v-1147q0 -123 -87 -209q-89 -87 -211 -87h-177q-38 0 -64.5 26t-26.5 64t26.5 64.5t64.5 26.5h118q51 0 76 25q43 43 43 92v217q0 19 -10.5 25.5t-20.5 6.5t-18 -9l-17 -16q-68 -68 -157 -68q-108 0 -179 88
q-71 87 -71 208v693q0 76 72 107q21 10 45.5 10t46.5 -9t38 -25q35 -35 35 -83v-690q0 -49 25 -75q42 -44 79 -44t58.5 7.5t38.5 21.5q35 30 35 78v702q0 49 25.5 73.5t47 34zM742 1346q13 -24 13 -46t-17 -41t-37 -19q-40 0 -60 20l-131 134l-131 -134q-20 -20 -50 -20
t-47 19t-17 41t13 46l120 213q42 76 113 76q65 0 111 -76z" />
    <glyph glyph-name="Ydieresis" unicode="&#x178;" horiz-adv-x="1361" 
d="M1005.5 1369.5q21.5 9.5 46 9.5t46.5 -9.5t38 -25.5q35 -33 35 -82v-966q0 -122 -89 -209q-88 -87 -210 -87h-177q-38 0 -64.5 26t-26.5 64t26.5 64.5t64.5 26.5h118q79 0 111 71q9 22 9 46v137q0 19 -10.5 25.5t-20.5 6.5t-18 -9l-17 -16q-68 -68 -158 -68
q-107 0 -179 87q-71 86 -71 209v509h-44q-48 0 -73 -26q-41 -44 -41 -93v-57q0 -78 -73 -108q-22 -9 -46.5 -9t-46 9t-37.5 25q-34 34 -34 83v60q0 123 88 209q88 87 208 87h217q48 0 74 -25q45 -43 45 -92v-569q0 -49 26 -75q44 -44 80.5 -44t57.5 7.5t38 21.5q35 30 35 78
v601q0 49 25.5 73.5t47 34zM602 1778q55 0 94 -40q41 -40 41 -81t-11 -65t-30 -42q-39 -40 -94 -40t-94 40q-41 40 -41 80q0 68 40 108t95 40zM893.5 1592q-10.5 24 -10.5 51.5t10.5 52t28.5 42.5q40 40 81.5 40t66 -10.5t42.5 -29.5q40 -39 40 -80.5t-10.5 -65.5t-29.5 -42
q-39 -40 -80.5 -40t-66 10.5t-43 29t-29 42.5z" />
    <glyph glyph-name="Zacute" unicode="&#x179;" horiz-adv-x="1026" 
d="M649 0q-85 0 -158 68l-17 17q-9 8 -22 8q-16 0 -27 -25q-34 -68 -108 -68q-50 0 -74 26q-44 45 -44 84.5t14 65.5l434 1003h-204q-44 0 -68 -27q-40 -45 -40 -92v-57q0 -78 -73 -108q-22 -9 -46.5 -9t-46 9t-37.5 25q-34 34 -34 83v60q0 122 87 209t209 87h62
q85 0 158 -68l18 -17q8 -8 20 -8q17 0 28 25q34 68 108 68q50 0 74 -25q44 -46 44 -86t-14 -65l-435 -1003h361q58 0 84 -56q7 -16 7 -44t-27 -54t-64 -26h-169zM569 1820q48 66 111 66q42 0 67 -26q42 -41 42 -79q0 -76 -63 -119l-220 -154q-24 -16 -43 -16q-34 0 -51 18
t-17 43.5t17 48.5z" />
    <glyph glyph-name="zacute" unicode="&#x17a;" horiz-adv-x="854" 
d="M80 975q0 60 56 84q16 7 35 7h466q53 0 89 -36q35 -35 35 -73.5t-17 -66.5l-405 -709h331q36 0 56 -20q35 -35 35 -72t-27 -63t-64 -26h-481q-82 0 -113 74q-8 20 -8 38q0 36 17 64l405 710h-319q-37 0 -57 19q-34 32 -34 70zM451 1547q48 66 111 66q42 0 67 -25
q42 -42 42 -80q0 -76 -63 -119l-220 -154q-24 -16 -43 -16q-34 0 -51 18t-17 43.5t17 48.5z" />
    <glyph glyph-name="Zdotaccent" unicode="&#x17b;" horiz-adv-x="1026" 
d="M649 0q-85 0 -158 68l-17 17q-9 8 -22 8q-16 0 -27 -25q-34 -68 -108 -68q-50 0 -74 26q-44 45 -44 84.5t14 65.5l434 1003h-204q-44 0 -68 -27q-40 -45 -40 -92v-57q0 -78 -73 -108q-22 -9 -46.5 -9t-46 9t-37.5 25q-34 34 -34 83v60q0 122 87 209t209 87h62
q85 0 158 -68l18 -17q8 -8 20 -8q17 0 28 25q34 68 108 68q50 0 74 -25q44 -46 44 -86t-14 -65l-435 -1003h361q58 0 84 -56q7 -16 7 -44t-27 -54t-64 -26h-169zM533 1778q55 0 95 -40t40 -81t-11 -65t-29 -42q-40 -40 -95 -40t-95 40t-40 80q0 68 40 108t95 40z" />
    <glyph glyph-name="zdotaccent" unicode="&#x17c;" horiz-adv-x="854" 
d="M80 975q0 60 56 84q16 7 35 7h466q53 0 89 -36q35 -35 35 -73.5t-17 -66.5l-405 -709h331q36 0 56 -20q35 -35 35 -72t-27 -63t-64 -26h-481q-82 0 -113 74q-8 20 -8 38q0 36 17 64l405 710h-319q-37 0 -57 19q-34 32 -34 70zM419 1489q55 0 95 -40t40 -81t-11 -65
t-29 -42q-40 -40 -95 -40t-95 40t-40 80q0 68 40 108t95 40z" />
    <glyph glyph-name="Zcaron" unicode="&#x17d;" horiz-adv-x="1026" 
d="M649 0q-85 0 -158 68l-17 17q-9 8 -22 8q-16 0 -27 -25q-34 -68 -108 -68q-50 0 -74 26q-44 45 -44 84.5t14 65.5l434 1003h-204q-44 0 -68 -27q-40 -45 -40 -92v-57q0 -78 -73 -108q-22 -9 -46.5 -9t-46 9t-37.5 25q-34 34 -34 83v60q0 122 87 209t209 87h62
q85 0 158 -68l18 -17q8 -8 20 -8q17 0 28 25q34 68 108 68q50 0 74 -25q44 -46 44 -86t-14 -65l-435 -1003h361q58 0 84 -56q7 -16 7 -44t-27 -54t-64 -26h-169zM301 1782q-13 24 -13 46t17 41t37 19q40 0 60 -20l131 -134l131 134q20 20 50 20t47 -19t17 -41t-13 -46
l-120 -213q-42 -76 -113 -76q-65 0 -111 76z" />
    <glyph glyph-name="zcaron" unicode="&#x17e;" horiz-adv-x="854" 
d="M80 975q0 60 56 84q16 7 35 7h466q53 0 89 -36q35 -35 35 -73.5t-17 -66.5l-405 -709h331q36 0 56 -20q35 -35 35 -72t-27 -63t-64 -26h-481q-82 0 -113 74q-8 20 -8 38q0 36 17 64l405 710h-319q-37 0 -57 19q-34 32 -34 70zM184 1509q-13 24 -13 46t17 41t37 19
q40 0 60 -20l131 -134l131 134q20 20 50 20t47 -19t17 -41t-13 -46l-120 -213q-42 -76 -113 -76q-65 0 -111 76z" />
    <glyph glyph-name="longs" unicode="&#x17f;" horiz-adv-x="668" 
d="M535 1417q-94 0 -137.5 -58.5t-43.5 -176.5v-1182h-180v1182q0 385 363 385q100 0 204 -39l-47 -142q-90 31 -159 31z" />
    <glyph glyph-name="uni0180" unicode="&#x180;" horiz-adv-x="1260" 
d="M694 1116q217 0 335 -149.5t118 -417.5q0 -272 -120 -420.5t-333 -148.5q-111 0 -198 40t-142 119h-14q-31 -120 -37 -139h-129v1239h-156v135h156v182h180v-182h437v-135h-437v-61q0 -113 -10 -226h10q111 164 340 164zM664 967q-166 0 -238 -94t-72 -318v-8
q0 -225 73.5 -321.5t240.5 -96.5q148 0 220.5 108.5t72.5 313.5q0 208 -73 312t-224 104z" />
    <glyph glyph-name="uni0181" unicode="&#x181;" horiz-adv-x="1495" 
d="M309 1305q-125 0 -125 -103q0 -61 21 -110h-162q-9 21 -16 54t-7 58q0 133 70.5 195.5t218.5 62.5h471q294 0 424.5 -87.5t130.5 -274.5q0 -130 -71 -214.5t-207 -109.5v-10q167 -29 247 -116.5t80 -233.5q0 -197 -134.5 -306.5t-372.5 -109.5h-515v1305h-53zM547 840
h270q172 0 250 55t78 184q0 120 -85.5 173t-271.5 53h-241v-465zM547 686v-530h295q176 0 261 68t85 206q0 131 -90 193.5t-271 62.5h-280z" />
    <glyph glyph-name="uni0182" unicode="&#x182;" horiz-adv-x="1260" 
d="M1155 428q0 -216 -130 -322t-398 -106h-428v1462h868v-162h-684v-456h217q280 0 417.5 -99t137.5 -317zM383 158h225q188 0 272.5 63.5t84.5 206.5q0 140 -88 198t-299 58h-195v-526z" />
    <glyph glyph-name="uni0183" unicode="&#x183;" horiz-adv-x="1260" 
d="M694 1116q217 0 335 -149.5t118 -417.5q0 -272 -120 -420.5t-333 -148.5q-111 0 -198 40t-142 119h-14q-31 -120 -37 -139h-129v1556h862v-151h-682v-227q0 -113 -10 -226h10q111 164 340 164zM664 967q-166 0 -238 -94t-72 -318v-8q0 -225 73.5 -321.5t240.5 -96.5
q148 0 220.5 108.5t72.5 313.5q0 208 -73 312t-224 104z" />
    <glyph glyph-name="uni0184" unicode="&#x184;" horiz-adv-x="1300" 
d="M369 430q0 -158 76.5 -225.5t250.5 -67.5q163 0 236.5 73t73.5 210q0 141 -98.5 202.5t-286.5 61.5h-252v-254zM184 1462h185v-618h274q265 0 409 -108.5t144 -315.5t-130.5 -323.5t-367.5 -116.5q-514 0 -514 450v1032z" />
    <glyph glyph-name="uni0185" unicode="&#x185;" horiz-adv-x="1253" 
d="M659 -20q-235 0 -363 148t-128 419v1009h180v-378q0 -113 -10 -226h10q111 164 340 164q217 0 335 -149.5t118 -417.5q0 -274 -125.5 -421.5t-356.5 -147.5zM348 543q0 -196 83.5 -305t230.5 -109t219.5 109t72.5 313q0 208 -72.5 312t-224.5 104q-165 0 -237 -94.5
t-72 -317.5v-12z" />
    <glyph glyph-name="uni0186" unicode="&#x186;" horiz-adv-x="1294" 
d="M498 1483q324 0 497.5 -197t173.5 -557q0 -225 -81 -394.5t-234.5 -262t-355.5 -92.5q-113 0 -201.5 13t-175.5 46v160q193 -58 348 -58q236 0 371 158t135 432q0 281 -130.5 435.5t-375.5 154.5q-157 0 -332 -80l-74 156q172 86 435 86z" />
    <glyph glyph-name="uni0187" unicode="&#x187;" horiz-adv-x="1294" 
d="M825 1321q-236 0 -371 -158t-135 -432q0 -283 131 -436.5t373 -153.5q156 0 351 58v-160q-93 -34 -179 -46.5t-198 -12.5q-323 0 -497.5 196.5t-174.5 556.5q0 226 83.5 396t243 262t375.5 92q124 0 240 -29v29q0 132 55 203t181 71q61 0 122 -26v-148q-49 21 -106 21
q-96 0 -96 -99v-104l-74 -160q-68 31 -147 55.5t-177 24.5z" />
    <glyph glyph-name="uni0188" unicode="&#x188;" horiz-adv-x="1030" 
d="M614 -20q-237 0 -369 145.5t-132 417.5q0 276 133.5 425.5t380.5 149.5q56 0 133 -12v186q0 132 54.5 203.5t180.5 71.5q60 0 123 -27v-149q-47 20 -106 20q-97 0 -97 -98v-254l-55 -150q-139 52 -237 52q-166 0 -245 -104.5t-79 -311.5q0 -199 79 -304.5t234 -105.5
q145 0 285 64v-160q-114 -59 -283 -59z" />
    <glyph glyph-name="uni0189" unicode="&#x189;" horiz-adv-x="1495" 
d="M297 1003q0 -78 -73 -108q-22 -9 -46.5 -9t-46 9t-37.5 25q-34 32 -34 83v60q0 122 87 209t209 87h514q122 0 209 -87q86 -86 86 -209v-767q0 -123 -86 -209q-87 -87 -209 -87h-546q-37 0 -57 19q-34 32 -34 60.5t7 45t20 29.5q27 27 64 27h132v378h-127q-27 0 -44.5 16
t-17 40t17 40t41.5 16h130v285q0 95 86 175q8 8 8 17.5t-6.5 20t-25.5 10.5h-113q-44 0 -68 -27q-40 -45 -40 -92v-57zM693 559v-378h119q76 0 108 71q9 21 9 46v762q0 48 -25 74q-43 45 -92 45h-10q-47 -3 -78 -36t-31 -82v-390h60q24 0 40.5 -16.5t16.5 -40.5t-16.5 -39.5
t-39.5 -15.5h-61z" />
    <glyph glyph-name="uni018A" unicode="&#x18a;" horiz-adv-x="1659" 
d="M1339 739q0 279 -137.5 422.5t-415.5 143.5h-239v-1147h198q594 0 594 581zM813 1462q344 0 532.5 -189.5t188.5 -527.5q0 -362 -197.5 -553.5t-566.5 -191.5h-408v1305h-53q-125 0 -125 -103q0 -61 21 -110h-162q-9 21 -16 54t-7 58q0 133 70.5 195.5t218.5 62.5h504z
" />
    <glyph glyph-name="uni018B" unicode="&#x18b;" horiz-adv-x="1260" 
d="M877 686h-168q-217 0 -315.5 -65t-98.5 -207q0 -129 90.5 -192.5t284.5 -63.5h207v528zM1061 1462v-1462h-408q-549 0 -549 406q0 210 151 324t433 114h189v456h-684v162h868z" />
    <glyph glyph-name="uni018C" unicode="&#x18c;" horiz-adv-x="1260" 
d="M592 129q164 0 239.5 89.5t75.5 293.5v33q0 229 -76.5 326.5t-240.5 97.5q-139 0 -215 -110.5t-76 -315.5q0 -204 75.5 -309t217.5 -105zM1085 0h-145l-27 147h-8q-115 -167 -342 -167q-214 0 -332 148t-118 419q0 269 118.5 420t333.5 151q221 0 340 -162h13
q-3 20 -8 80.5t-5 81.5v287h-682v151h862v-1556z" />
    <glyph glyph-name="uni018D" unicode="&#x18d;" horiz-adv-x="1237" 
d="M698 602q136 -77 195 -157t59 -179q0 -132 -98 -209t-270 -77q-104 0 -199 23t-223 87l78 141q76 -43 162 -73.5t190 -30.5q82 0 130 38t48 103q0 69 -54.5 122.5t-219.5 144.5q-213 117 -299 239t-86 279q0 236 135 369.5t377 133.5q229 0 366 -124t137 -334
q0 -179 -111 -307t-317 -189zM297 1055q0 -126 61.5 -216t196.5 -159q189 45 286 152t97 268q0 138 -85 222.5t-230 84.5q-158 0 -242 -90.5t-84 -261.5z" />
    <glyph glyph-name="uni018E" unicode="&#x18e;" horiz-adv-x="1139" 
d="M123 162h633v522h-596v160h596v456h-633v162h817v-1462h-817v162z" />
    <glyph glyph-name="uni018F" unicode="&#x18f;" horiz-adv-x="1513" 
d="M680 1323q-225 0 -467 -84v168q125 44 234 61t237 17q332 0 517 -200t185 -556q0 -350 -173.5 -549.5t-485.5 -199.5q-301 0 -453.5 188.5t-152.5 562.5v70h1071q-17 259 -146 390.5t-366 131.5zM727 141q205 0 327 130.5t138 367.5h-875q0 -255 100.5 -376.5
t309.5 -121.5z" />
    <glyph glyph-name="uni0190" unicode="&#x190;" horiz-adv-x="1204" 
d="M178 1120q0 167 124.5 265t340.5 98q132 0 254.5 -38.5t222.5 -113.5l-88 -125q-107 73 -193 99t-192 26q-130 0 -204 -62.5t-74 -166.5q0 -123 98.5 -195.5t296.5 -72.5h199v-154h-209q-225 0 -338 -67.5t-113 -198.5q0 -137 99 -210t286 -73q215 0 438 107v-168
q-184 -90 -448 -90q-276 0 -421.5 106t-145.5 313q0 156 95.5 248t280.5 117v8q-147 25 -228 115.5t-81 232.5z" />
    <glyph glyph-name="uni0191" unicode="&#x191;" horiz-adv-x="1063" 
d="M92 -492q-66 0 -115 27v156q42 -21 93 -21q72 0 100.5 41.5t28.5 126.5v1624h817v-162h-633v-518h594v-161h-594v-791q0 -322 -291 -322z" />
    <glyph glyph-name="florin" unicode="&#x192;" horiz-adv-x="850" 
d="M412 -223q-6 -50 -34 -75q-47 -42 -97 -42q-49 0 -71 25q-40 44 -34 92l121 1113h-76q-57 0 -75 54q-19 54 28 96q30 26 66 26h76l19 175q14 125 109 211t218 86h112q59 0 76 -56t-29 -98q-28 -25 -66 -25h-53q-48 0 -76 -25q-49 -44 -55 -95l-19 -173h154q56 0 73 -54
t-29 -96q-28 -26 -63 -26h-154z" />
    <glyph glyph-name="uni0193" unicode="&#x193;" horiz-adv-x="1491" 
d="M834 772h505v-717q-116 -37 -236 -56t-278 -19q-334 0 -517 198t-183 553q0 229 91 400t262.5 261.5t404.5 90.5q146 0 280 -35v35q0 132 55 203t181 71q59 0 123 -26v-148q-49 21 -107 21q-96 0 -96 -99v-108l-70 -160q-193 84 -377 84q-261 0 -408 -158t-147 -432
q0 -290 141 -441t410 -151q147 0 287 35v434h-321v164z" />
    <glyph glyph-name="uni0194" unicode="&#x194;" horiz-adv-x="1167" 
d="M684 221q68 -134 102.5 -248.5t34.5 -191.5q0 -121 -65.5 -197t-171.5 -76q-110 0 -174 77.5t-64 195.5q0 159 137 438l-483 1243h193q183 -486 279.5 -742t111.5 -341q20 104 102 323l287 760h194zM653 -215q0 54 -17.5 127.5t-51.5 138.5q-39 -77 -54.5 -147
t-15.5 -115q0 -63 19.5 -92t50.5 -29q69 0 69 117z" />
    <glyph glyph-name="uni0195" unicode="&#x195;" horiz-adv-x="1913" 
d="M1309 129q137 0 197.5 73.5t60.5 231.5v664h180v-670q0 -234 -104 -341t-334 -107q-226 0 -332.5 99.5t-106.5 301.5v321q0 134 -53.5 199.5t-169.5 65.5q-152 0 -222.5 -93.5t-70.5 -306.5v-567h-180v1556h180v-456q0 -90 -10 -154h12q50 85 135.5 127.5t184.5 42.5
q186 0 280.5 -95.5t94.5 -305.5v-322q0 -133 62.5 -198.5t195.5 -65.5z" />
    <glyph glyph-name="uni0196" unicode="&#x196;" horiz-adv-x="713" 
d="M367 1462v-1124q0 -99 37 -148t120 -49q44 0 91 7t77 16v-152q-26 -12 -82 -22t-112 -10q-164 0 -239 84.5t-75 257.5v1140h183z" />
    <glyph glyph-name="uni0197" unicode="&#x197;" horiz-adv-x="694" 
d="M610 0h-528v106l172 39v525h-184v159h184v486l-172 41v106h528v-106l-172 -41v-486h185v-159h-185v-525l172 -39v-106z" />
    <glyph glyph-name="uni0198" unicode="&#x198;" horiz-adv-x="1268" 
d="M670 829l598 -829h-217q-61 81 -248 353q-146 211 -258 347l-162 -157v-543h-184v1462h184v-737q57 72 123 148q44 50 379 460q59 77 111.5 109.5t136.5 32.5q62 0 102 -17v-143q-42 6 -90 6q-34 0 -64 -20t-75 -74z" />
    <glyph glyph-name="uni0199" unicode="&#x199;" horiz-adv-x="1094" 
d="M352 743l-8 -178h8l61 78l70 84l351 371h210l-444 -469l475 -629h-217l-381 512l-125 -109v-403h-178v1280q0 287 248 287q67 0 133 -27v-149q-47 20 -106 20q-47 0 -72 -27t-25 -92v-549z" />
    <glyph glyph-name="uni019A" unicode="&#x19a;" horiz-adv-x="528" 
d="M354 860h144v-135h-144v-725h-180v725h-143v135h143v696h180v-696z" />
    <glyph glyph-name="uni019B" unicode="&#x19b;" horiz-adv-x="1110" 
d="M-12 0l473 1077l-47 131l-217 -65l-39 129l202 61q-26 46 -60 66t-93 20q-62 0 -115 -12v145q68 17 135 17q109 0 178.5 -43t120.5 -142l224 68l38 -129l-208 -66l366 -1019q20 -57 43.5 -84t59.5 -27q24 0 61 10v-133q-50 -24 -117 -24q-74 0 -119 37t-77 128l-150 420
q-85 243 -102 326h-8q-33 -126 -113 -316l-250 -575h-186z" />
    <glyph glyph-name="uni019C" unicode="&#x19c;" horiz-adv-x="2109" 
d="M369 1462v-1036q0 -143 59 -215t188 -72q173 0 255.5 96.5t82.5 301.5v925h185v-1036q0 -143 59.5 -215t192.5 -72q172 0 252.5 102t80.5 337v884h185v-1462h-146l-30 168h-11q-51 -87 -151 -137.5t-219 -50.5q-139 0 -226.5 50t-132.5 154h-10q-58 -98 -163.5 -151
t-231.5 -53q-211 0 -307.5 108t-96.5 338v1036h185z" />
    <glyph glyph-name="uni019D" unicode="&#x19d;" horiz-adv-x="1556" 
d="M199 1462h213l45 -71l480 -742l255 -397h8q-2 24 -8 171.5t-6 213.5v825h172v-1462h-215l-783 1214h-8l5 -81q12 -182 12 -316v-987q0 -169 -69.5 -245.5t-207.5 -76.5q-66 0 -115 27v156q42 -21 93 -21q72 0 100.5 41.5t28.5 126.5v1624z" />
    <glyph glyph-name="uni019E" unicode="&#x19e;" horiz-adv-x="1266" 
d="M922 -492v1194q0 132 -59 198.5t-187 66.5q-169 0 -245.5 -95.5t-76.5 -302.5v-569h-180v1098h145l27 -150h10q51 81 143 125.5t203 44.5q202 0 300 -98t98 -305v-1207h-178z" />
    <glyph glyph-name="uni019F" unicode="&#x19f;" horiz-adv-x="1602" 
d="M1475 733q0 -351 -177.5 -552t-496.5 -201q-323 0 -499.5 197.5t-176.5 557.5q0 357 175.5 553.5t502.5 196.5q318 0 495 -199.5t177 -552.5zM801 139q222 0 343.5 133.5t133.5 393.5h-956q13 -260 134.5 -393.5t344.5 -133.5zM803 1323q-218 0 -340 -125.5t-141 -372.5
h954q-19 248 -138.5 373t-334.5 125z" />
    <glyph glyph-name="Ohorn" unicode="&#x1a0;" horiz-adv-x="1606" 
d="M1473 733q0 -354 -177.5 -553.5t-494.5 -199.5q-323 0 -499.5 196.5t-176.5 558.5q0 360 176.5 555t501.5 195t506 -213q68 19 99.5 81t31.5 203h194l15 -22q-31 -160 -98 -247t-171 -126q93 -174 93 -428zM319 733q0 -291 122 -442.5t360 -151.5q237 0 357 149.5
t120 444.5q0 292 -119.5 441t-355.5 149q-241 0 -362.5 -151t-121.5 -439z" />
    <glyph glyph-name="ohorn" unicode="&#x1a1;" horiz-adv-x="1262" 
d="M1128 551q0 -269 -136 -420t-376 -151q-149 0 -264 69.5t-177 199.5t-62 302q0 268 134 417.5t376 149.5q108 0 199 -36.5t157 -104.5q50 15 79.5 48.5t43.5 84t14 156.5h193l14 -23q-32 -161 -95 -248.5t-169 -126.5q69 -140 69 -317zM299 551q0 -216 79 -319t243 -103
q169 0 245 107t76 315q0 205 -77.5 310.5t-246.5 105.5t-244 -105.5t-75 -310.5z" />
    <glyph glyph-name="uni01A2" unicode="&#x1a2;" horiz-adv-x="2202" 
d="M1409 733q0 -354 -169 -553.5t-472 -199.5q-307 0 -475 197t-168 558q0 357 167.5 553.5t477.5 196.5q291 0 459 -187q57 88 159.5 137.5t225.5 49.5q209 0 306 -108t97 -339v-1038h-184v1038q0 144 -59 215.5t-189 71.5q-108 0 -177 -31t-108 -94q109 -189 109 -467z
M319 733q0 -290 114.5 -442t334.5 -152q219 0 332.5 150t113.5 444q0 293 -112.5 441.5t-331.5 148.5q-222 0 -336.5 -150.5t-114.5 -439.5z" />
    <glyph glyph-name="uni01A3" unicode="&#x1a3;" horiz-adv-x="1731" 
d="M1077 551q0 -270 -129.5 -420.5t-355.5 -150.5q-142 0 -251.5 69.5t-168.5 200.5t-59 301q0 267 127.5 417t355.5 150q217 0 346 -147q53 75 130.5 111t164.5 36q164 0 246 -96t82 -307v-1207h-179v1199q0 260 -188 260q-130 0 -192 -90q71 -130 71 -326zM299 551
q0 -207 75 -314.5t220 -107.5t221 107t76 315q0 206 -75.5 311t-221.5 105q-295 0 -295 -416z" />
    <glyph glyph-name="uni01A4" unicode="&#x1a4;" horiz-adv-x="1403" 
d="M547 727h147q218 0 316 70.5t98 226.5q0 141 -91 211t-284 70h-186v-578zM750 1462q548 0 548 -430q0 -223 -152 -343t-431 -120h-168v-569h-185v1305h-53q-125 0 -125 -103q0 -61 21 -110h-162q-9 21 -16 54t-7 58q0 133 70.5 195.5t218.5 62.5h441z" />
    <glyph glyph-name="uni01A5" unicode="&#x1a5;" horiz-adv-x="1260" 
d="M424 1567q67 0 133 -27v-149q-47 20 -106 20q-47 0 -72 -27t-25 -92v-164q0 -61 -8 -139l-4 -41h12q64 90 148 130t194 40q214 0 332.5 -148.5t118.5 -418.5q0 -269 -119 -420t-334 -151q-221 0 -340 159h-12l4 -41q8 -78 8 -139v-451h-180l2 1772q0 287 248 287z
M664 967q-163 0 -235.5 -92t-74.5 -289v-35q0 -223 74 -322.5t240 -99.5q138 0 215.5 112t77.5 312q0 201 -77.5 307.5t-219.5 106.5z" />
    <glyph glyph-name="uni01A6" unicode="&#x1a6;" horiz-adv-x="1274" 
d="M383 555h219q178 0 260 70t82 209q0 138 -83 201t-269 63h-209v-543zM383 399v-399h-184v1462h184v-205h219q272 0 402.5 -103.5t130.5 -311.5q0 -290 -293 -391l401 -656h-215l-354 604h-291z" />
    <glyph glyph-name="uni01A7" unicode="&#x1a7;" horiz-adv-x="1124" 
d="M96 391q0 99 41 172t125 130t254 120q140 52 202.5 90.5t90 86t27.5 118.5q0 101 -73.5 157t-203.5 56q-147 0 -315 -78l-58 158q175 82 369 82q209 0 338 -101t129 -272q0 -156 -85 -257.5t-292 -176.5q-159 -58 -230.5 -99t-102.5 -88t-31 -114q0 -110 82.5 -173
t246.5 -63q186 0 410 97v-177q-69 -34 -174 -56.5t-228 -22.5q-245 0 -383.5 110t-138.5 301z" />
    <glyph glyph-name="uni01A8" unicode="&#x1a8;" horiz-adv-x="981" 
d="M92 303q0 76 31 131t95.5 99t203.5 96q181 69 232 108.5t51 100.5q0 62 -58 97.5t-170 35.5q-103 0 -270 -70l-62 143q165 74 320 74q201 0 306.5 -75t105.5 -216q0 -76 -29.5 -129t-92.5 -95.5t-218 -102.5q-108 -41 -165.5 -73t-81.5 -63.5t-24 -76.5q0 -80 65.5 -121
t194.5 -41q172 0 348 88v-164q-128 -69 -344 -69q-438 0 -438 323z" />
    <glyph glyph-name="uni01A9" unicode="&#x1a9;" horiz-adv-x="1167" 
d="M74 0v152l479 612l-467 545v153h973v-164h-666l-96 2l461 -534l-482 -606l334 2h508v-162h-1044z" />
    <glyph glyph-name="uni01AA" unicode="&#x1aa;" horiz-adv-x="633" 
d="M137 1110q-123 0 -187.5 60t-64.5 169q0 110 67 169t189 59q130 0 198.5 -74t68.5 -215v-1425q0 -100 37 -148.5t120 -48.5q39 0 89.5 6.5t78.5 15.5v-137q-31 -14 -85.5 -23.5t-106.5 -9.5q-163 0 -237.5 84.5t-74.5 257.5v1260h-92zM129 1419q-44 0 -62 -24.5
t-18 -55.5q0 -82 101 -82h79v27q0 72 -25 103.5t-75 31.5z" />
    <glyph glyph-name="uni01AB" unicode="&#x1ab;" horiz-adv-x="739" 
d="M455 -492q-60 0 -123 25v150q46 -19 102 -19q98 0 98 107v209h-22q-322 0 -322 339v639h-155v86l157 72l72 234h107v-252h317v-140h-317v-634q0 -95 45.5 -146t126.5 -51q35 0 82 7t71 16v-369q0 -273 -239 -273z" />
    <glyph glyph-name="uni01AC" unicode="&#x1ac;" horiz-adv-x="1180" 
d="M309 1300q-125 0 -125 -98q0 -61 21 -110h-162q-9 21 -16 54t-7 58q0 133 70.5 195.5t218.5 62.5h848v-162h-455v-1300h-184v1300h-209z" />
    <glyph glyph-name="uni01AD" unicode="&#x1ad;" horiz-adv-x="739" 
d="M369 1098h317v-140h-317v-634q0 -95 45.5 -146t126.5 -51q35 0 82 7t71 16v-138q-25 -11 -77.5 -21.5t-106.5 -10.5q-322 0 -322 339v639h-155v86l157 72v135q0 316 302 316q79 0 157 -27v-149q-23 8 -70.5 14t-86.5 6q-65 0 -94 -35t-29 -104v-174z" />
    <glyph glyph-name="uni01AE" unicode="&#x1ae;" horiz-adv-x="1139" 
d="M477 1300h-457v162h1096v-162h-454v-1462q0 -87 29 -127.5t100 -40.5q50 0 92 21v-156q-49 -27 -129 -27q-139 0 -208 76.5t-69 245.5v1470z" />
    <glyph glyph-name="Uhorn" unicode="&#x1af;" horiz-adv-x="1597" 
d="M1311 1462v-198q82 11 120.5 75.5t38.5 216.5h191l14 -22q-33 -185 -121 -278t-243 -119v-621q0 -256 -144.5 -396t-410.5 -140q-272 0 -422 144t-150 396v942h185v-950q0 -177 97 -275t294 -98q180 0 274 95t94 280v948h183z" />
    <glyph glyph-name="uhorn" unicode="&#x1b0;" horiz-adv-x="1380" 
d="M344 1096v-705q0 -133 59.5 -197.5t184.5 -64.5q169 0 246 94t77 303v570h181v-121q80 13 116.5 77t36.5 216h191l14 -23q-32 -191 -120.5 -285.5t-237.5 -111.5v-848h-148l-26 145h-9q-50 -79 -139 -122t-205 -43q-201 0 -302 95t-101 304v717h182z" />
    <glyph glyph-name="uni01B1" unicode="&#x1b1;" horiz-adv-x="1602" 
d="M801 139q234 0 354.5 127.5t120.5 374.5q0 225 -83 386.5t-259 287.5v147h590v-162h-365q151 -116 231 -288t80 -377q0 -308 -177.5 -483t-491.5 -175q-318 0 -495 174t-177 482q0 205 80 379t229 288h-362v162h590v-147q-179 -128 -261.5 -291t-82.5 -383
q0 -246 121.5 -374t357.5 -128z" />
    <glyph glyph-name="uni01B2" unicode="&#x1b2;" horiz-adv-x="1229" 
d="M1169 1188q0 -109 -92 -322l-370 -866h-185l-522 1462h193l331 -954q63 -180 92 -320q17 61 55 149q43 102 66 167l174 416q74 181 74 256q0 80 -33 112.5t-96 32.5q-50 0 -92 -21v156q46 27 129 27q276 0 276 -295z" />
    <glyph glyph-name="uni01B3" unicode="&#x1b3;" horiz-adv-x="1159" 
d="M80 1329q-43 0 -80 -16v149q58 23 123 23q75 0 121 -35.5t84 -118.5l262 -588l371 719h198l-477 -895v-567h-184v559l-332 698q-36 72 -86 72z" />
    <glyph glyph-name="uni01B4" unicode="&#x1b4;" horiz-adv-x="1110" 
d="M993 1118q67 0 117 -24v-133q-37 10 -61 10q-36 0 -58.5 -27t-44.5 -84l-375 -1012q-65 -179 -161.5 -259.5t-237.5 -80.5q-75 0 -149 17v143q50 -12 120 -12q174 0 248 194l53 146l-442 1102h193l237 -625q75 -204 92 -299h8q17 73 99 301l155 445q39 111 84.5 154.5
t122.5 43.5z" />
    <glyph glyph-name="uni01B5" unicode="&#x1b5;" horiz-adv-x="1171" 
d="M162 834h377l309 464h-746v164h969v-139l-326 -489h250v-146h-346l-348 -524h791v-164h-1014v139l364 549h-280v146z" />
    <glyph glyph-name="uni01B6" unicode="&#x1b6;" horiz-adv-x="963" 
d="M117 641h329l224 317h-555v140h753v-135l-227 -322h207v-143h-309l-252 -359h596v-139h-803v119l266 379h-229v143z" />
    <glyph glyph-name="uni01B7" unicode="&#x1b7;" horiz-adv-x="1196" 
d="M596 901q139 -4 251 -61t174 -156.5t62 -230.5q0 -224 -155 -348.5t-434 -124.5q-259 0 -422 79v168q100 -48 213 -72t211 -24q199 0 297 84t98 240q0 142 -101 219.5t-294 77.5h-127v133l422 413h-678v164h909v-145z" />
    <glyph glyph-name="uni01B8" unicode="&#x1b8;" horiz-adv-x="1196" 
d="M174 1317v145h909v-164h-675l419 -413v-133h-159q-173 0 -268 -83t-95 -233q0 -145 101 -225t294 -80q100 0 212.5 24t211.5 72v-168q-92 -44 -201 -61.5t-245 -17.5q-179 0 -306 55.5t-193 157.5t-66 239q0 139 61.5 243.5t172.5 163t253 62.5z" />
    <glyph glyph-name="uni01B9" unicode="&#x1b9;" horiz-adv-x="1020" 
d="M125 967v131h838v-152h-627l448 -497v-125h-120q-206 0 -310 -87t-104 -255q0 -146 96.5 -235t257.5 -89q204 0 387 86v-164q-140 -72 -401 -72q-232 0 -376 129.5t-144 339.5q0 216 131.5 344.5t371.5 145.5z" />
    <glyph glyph-name="uni01BA" unicode="&#x1ba;" horiz-adv-x="1020" 
d="M442 -342q172 0 328 74v-164q-122 -60 -330 -60q-185 0 -284 64t-99 180q0 128 95 188t282 60q163 0 234 56t71 194q0 122 -91 179.5t-292 57.5h-120v125l374 334h-553v152h807v-131l-383 -336q212 -10 325.5 -105.5t113.5 -273.5q0 -195 -122 -298.5t-360 -103.5
q-108 0 -159.5 -21t-51.5 -77q0 -43 54.5 -68.5t160.5 -25.5z" />
    <glyph glyph-name="uni01BB" unicode="&#x1bb;" horiz-adv-x="1167" 
d="M160 858h493q56 90 80.5 167.5t24.5 166.5q0 103 -61 160t-169 57q-93 0 -167.5 -34t-149.5 -101l-96 121q191 172 417 172q192 0 302 -99.5t110 -271.5q0 -86 -21.5 -166.5t-72.5 -171.5h205v-143h-295q-22 -33 -48 -66.5t-413 -496.5v-9h766v-143h-967v150l359 440
l96 125h-393v143z" />
    <glyph glyph-name="uni01BC" unicode="&#x1bc;" horiz-adv-x="1196" 
d="M459 1298v-395h86q158 0 281 -55t190 -157t67 -238q0 -224 -155 -348.5t-434 -124.5q-259 0 -422 79v168q100 -48 213 -72t211 -24q199 0 297 84t98 240q0 139 -96 218t-267 79h-254v546h-161v164h909v-164h-563z" />
    <glyph glyph-name="uni01BD" unicode="&#x1bd;" horiz-adv-x="1004" 
d="M406 946v-239h47q219 0 338.5 -95t119.5 -278q0 -167 -124 -260.5t-345 -93.5q-242 0 -374 71v162q183 -86 372 -86q141 0 217 54.5t76 162.5q0 109 -77 162t-236 53h-195v387h-127v152h746v-152h-438z" />
    <glyph glyph-name="uni01BE" unicode="&#x1be;" horiz-adv-x="948" 
d="M279 774v184h-187v86l189 72l71 234h107v-252h317v-140h-317v-188q0 -69 21 -101.5t75 -50.5q169 -63 235 -136t66 -179q0 -154 -115 -238.5t-323 -84.5q-216 0 -344 69v164q176 -88 348 -88q136 0 198 44t62 118q0 60 -49.5 102t-183.5 96q-97 41 -133.5 107t-36.5 182z
" />
    <glyph glyph-name="uni01BF" unicode="&#x1bf;" horiz-adv-x="1202" 
d="M354 -492h-180v1590h148l24 -150h8q112 170 324 170q196 0 311 -121t115 -335q0 -187 -93.5 -337.5t-266 -241t-390.5 -103.5v-472zM354 127q268 35 416 175t148 355q0 142 -74 226t-203 84q-149 0 -218 -90t-69 -291v-459z" />
    <glyph glyph-name="uni01C0" unicode="&#x1c0;" horiz-adv-x="1057" 
d="M608 -492h-159v2048h159v-2048z" />
    <glyph glyph-name="uni01C1" unicode="&#x1c1;" horiz-adv-x="1057" 
d="M345 -492h-159v2048h159v-2048zM872 -492h-159v2048h159v-2048z" />
    <glyph glyph-name="uni01C2" unicode="&#x1c2;" horiz-adv-x="1057" 
d="M133 823h316v733h159v-733h316v-147h-316v-254h316v-148h-316v-766h-159v766h-316v148h316v254h-316v147z" />
    <glyph glyph-name="uni01C3" unicode="&#x1c3;" horiz-adv-x="551" 
d="M334 412h-117l-51 1050h219zM147 111q0 66 32.5 101.5t94.5 35.5t94.5 -36.5t32.5 -100.5t-33.5 -102t-93.5 -38q-61 0 -94 37t-33 103z" />
    <glyph glyph-name="uni01C4" unicode="&#x1c4;" horiz-adv-x="2646" 
d="M1719 1807q-13 24 -13 46t17 41t37 19q40 0 60 -20l131 -134l131 134q20 20 50 20t47 -19t17 -41t-13 -46l-120 -213q-42 -76 -113 -76q-65 0 -111 76zM174 1003q0 -78 -73 -108q-22 -9 -46.5 -9t-46 9t-37.5 25q-34 32 -34 83v60q0 122 87 209t209 87h513q122 0 209 -87
q86 -86 86 -209v-767q0 -123 -86 -209q-87 -87 -209 -87h-525q-37 0 -57 19q-34 32 -34 60.5t7 45t19 29.5q28 27 65 27h112v775q0 95 85 175q9 8 9 17.5t-6.5 20t-25.5 10.5h-113q-44 0 -68 -27q-40 -45 -40 -92v-57zM570 181h119q47 0 73 25q43 41 43 92v762q0 50 -25 75
q-44 44 -81 44t-59 -9.5t-38 -25.5q-32 -34 -32 -83v-880zM2124 0q-85 0 -158 68l-17 17q-9 8 -22 8q-16 0 -27 -25q-34 -68 -108 -68q-50 0 -74 26q-44 45 -44 84.5t14 65.5l434 1003h-204q-44 0 -68 -27q-40 -45 -40 -92v-57q0 -78 -73 -108q-22 -9 -46.5 -9t-46 9
t-37.5 25q-34 34 -34 83v60q0 122 87 209t209 87h62q85 0 158 -68l18 -17q8 -8 20 -8q17 0 28 25q34 68 108 68q50 0 74 -25q44 -46 44 -86t-14 -65l-435 -1003h361q58 0 84 -56q7 -16 7 -44t-27 -54t-64 -26h-169z" />
    <glyph glyph-name="uni01C5" unicode="&#x1c5;" horiz-adv-x="2458" 
d="M1663 1469q-13 24 -13 46t17 41t37 19q40 0 60 -20l131 -134l131 134q20 20 50 20t47 -19t17 -41t-13 -46l-120 -213q-42 -76 -113 -76q-65 0 -111 76zM174 1003q0 -78 -73 -108q-22 -9 -46.5 -9t-46 9t-37.5 25q-34 32 -34 83v60q0 122 87 209t209 87h513q122 0 209 -87
q86 -86 86 -209v-767q0 -123 -86 -209q-87 -87 -209 -87h-525q-37 0 -57 19q-34 32 -34 60.5t7 45t19 29.5q28 27 65 27h112v775q0 95 85 175q9 8 9 17.5t-6.5 20t-25.5 10.5h-113q-44 0 -68 -27q-40 -45 -40 -92v-57zM570 181h119q47 0 73 25q43 41 43 92v762q0 50 -25 75
q-44 44 -81 44t-59 -9.5t-38 -25.5q-32 -34 -32 -83v-880zM1575 975q0 60 56 84q16 7 35 7h466q53 0 89 -36q35 -35 35 -73.5t-17 -66.5l-405 -709h331q36 0 56 -20q35 -35 35 -72t-27 -63t-64 -26h-481q-82 0 -113 74q-8 20 -8 38q0 36 17 64l405 710h-319q-37 0 -57 19
q-34 32 -34 70z" />
    <glyph glyph-name="uni01C6" unicode="&#x1c6;" horiz-adv-x="2222" 
d="M1432 1469q-13 24 -13 46t17 41t37 19q40 0 60 -20l131 -134l131 134q20 20 50 20t47 -19t17 -41t-13 -46l-120 -213q-42 -76 -113 -76q-65 0 -111 76zM867 97q0 -76 -72 -107q-22 -10 -48 -10t-45 8t-32 18q-18 16 -25.5 31t-13.5 25.5t-18 10.5t-21 -9l-18 -17
q-65 -67 -155 -67q-108 0 -186 88q-77 86 -77 208v494q0 122 87 209t209 87h178v354q0 50 25 75q43 43 93 43q51 0 76 -25q43 -43 43 -93v-1323zM393 267q0 -51 33.5 -78.5t71 -27.5t59 7t37.5 20q36 28 36 74v624h-119q-49 0 -75 -26q-43 -43 -43 -93v-500zM1340 975
q0 60 56 84q16 7 35 7h466q53 0 89 -36q35 -35 35 -73.5t-17 -66.5l-405 -709h331q36 0 56 -20q35 -35 35 -72t-27 -63t-64 -26h-481q-82 0 -113 74q-8 20 -8 38q0 36 17 64l405 710h-319q-37 0 -57 19q-34 32 -34 70z" />
    <glyph glyph-name="uni01C7" unicode="&#x1c7;" horiz-adv-x="1632" 
d="M360 210q0 -30 29 -30h249q44 0 67 26q41 45 41 81t9 57t25 37q36 34 73 34t58.5 -9t37.5 -25q34 -34 34 -90t-23.5 -110t-63.5 -94q-87 -87 -209 -87h-589q-35 0 -54 20q-34 33 -34 70.5t25.5 64t56.5 26.5t52.5 8.5t37.5 23.5q34 32 34 80v770q0 123 88 209
q88 87 208 87h146q59 0 83 -55q7 -17 7 -45t-26 -54t-64 -26h-86q-50 0 -76 -25q-43 -44 -43 -94v-658q0 -88 -68 -156q-25 -22 -25 -36zM1509 1179h-31q-50 0 -75 -25q-44 -44 -44 -94v-57q0 -78 -73 -108q-22 -9 -46.5 -9t-46 9t-36.5 25q-35 34 -35 83v60q0 123 87 209
q89 87 209 87h209q49 0 74 -25q44 -44 44 -95v-1417q0 -122 -87 -209t-210 -87h-156q-58 0 -83 54q-7 17 -7 36q0 36 19 57q33 34 71 34h98q50 0 75 25q44 44 44 92v1355z" />
    <glyph glyph-name="uni01C8" unicode="&#x1c8;" horiz-adv-x="1602" 
d="M360 210q0 -30 29 -30h249q44 0 67 26q41 45 41 81t9 57t25 37q36 34 73 34t58.5 -9t37.5 -25q34 -34 34 -90t-23.5 -110t-63.5 -94q-87 -87 -209 -87h-589q-35 0 -54 20q-34 33 -34 70.5t25.5 64t56.5 26.5t52.5 8.5t37.5 23.5q34 32 34 80v770q0 123 88 209
q88 87 208 87h146q59 0 83 -55q7 -17 7 -45t-26 -54t-64 -26h-86q-50 0 -76 -25q-43 -44 -43 -94v-658q0 -88 -68 -156q-25 -22 -25 -36zM1293 966q0 50 25 76q42 44 93 44t75 -26q43 -44 43 -94v-1144q0 -124 -86 -209q-89 -87 -210 -87h-116q-58 0 -82 54q-8 17 -8 36
q0 36 20 57q32 34 70 34h58q50 0 75 25q43 43 43 92v1142zM1287.5 1349q-10.5 24 -10.5 51.5t10.5 52t29.5 43.5q39 39 80.5 39t66 -10.5t43.5 -28.5q39 -40 39 -81.5t-10.5 -65.5t-28.5 -43q-40 -39 -81.5 -39t-66 10.5t-43 29t-29 42.5z" />
    <glyph glyph-name="uni01C9" unicode="&#x1c9;" horiz-adv-x="1057" 
d="M437 298q0 -51 25 -75q44 -42 93 -42h10q37 0 57 -20q34 -34 34 -62t-7 -44.5t-19 -28.5q-28 -26 -65 -26h-69q-122 0 -209 87t-87 209v1124q0 50 25 75q43 43 93 43q51 0 76 -25q43 -43 43 -93v-1122zM748 966q0 50 25 76q42 44 93 44t75 -26q43 -44 43 -94v-1144
q0 -124 -86 -209q-89 -87 -210 -87h-116q-58 0 -82 54q-8 17 -8 36q0 36 20 57q32 34 70 34h58q50 0 75 25q43 43 43 92v1142zM742.5 1349q-10.5 24 -10.5 51.5t10.5 52t29.5 43.5q39 39 80.5 39t66 -10.5t43.5 -28.5q39 -40 39 -81.5t-10.5 -65.5t-28.5 -43
q-40 -39 -81.5 -39t-66 10.5t-43 29t-29 42.5z" />
    <glyph glyph-name="uni01CA" unicode="&#x1ca;" horiz-adv-x="2116" 
d="M192 1003q0 -78 -73 -108q-22 -9 -46.5 -9t-46 9t-36.5 25q-35 34 -35 83v60q0 123 87 209q89 87 209 87h200q59 0 95 -49q15 -24 28.5 -24t21.5 8l18 17q73 68 168 68q108 0 186 -87q76 -86 76 -209l1 -985q0 -76 -71 -108q-22 -9 -46.5 -9t-46.5 9.5t-38 25.5
q-35 33 -35 82l-1 982q0 50 -25 75q-44 44 -92 44t-74 -23q-47 -42 -47 -89v-791q0 -123 -86 -209q-87 -87 -209 -87h-86q-38 0 -64 26t-26 63.5t26 64.5t64 27h27q49 0 75 25q43 41 43 92v881h-27q-48 -2 -72 -27q-42 -44 -42 -92v-57zM1992 1179h-31q-50 0 -75 -25
q-44 -44 -44 -94v-57q0 -78 -73 -108q-22 -9 -46.5 -9t-46 9t-36.5 25q-35 34 -35 83v60q0 123 87 209q89 87 209 87h209q49 0 74 -25q44 -44 44 -95v-1417q0 -122 -87 -209t-210 -87h-156q-58 0 -83 54q-7 17 -7 36q0 36 19 57q33 34 71 34h98q50 0 75 25q44 44 44 92v1355
z" />
    <glyph glyph-name="uni01CB" unicode="&#x1cb;" horiz-adv-x="2085" 
d="M192 1003q0 -78 -73 -108q-22 -9 -46.5 -9t-46 9t-36.5 25q-35 34 -35 83v60q0 123 87 209q89 87 209 87h200q59 0 95 -49q15 -24 28.5 -24t21.5 8l18 17q73 68 168 68q108 0 186 -87q76 -86 76 -209l1 -985q0 -76 -71 -108q-22 -9 -46.5 -9t-46.5 9.5t-38 25.5
q-35 33 -35 82l-1 982q0 50 -25 75q-44 44 -92 44t-74 -23q-47 -42 -47 -89v-791q0 -123 -86 -209q-87 -87 -209 -87h-86q-38 0 -64 26t-26 63.5t26 64.5t64 27h27q49 0 75 25q43 41 43 92v881h-27q-48 -2 -72 -27q-42 -44 -42 -92v-57zM1776 966q0 50 25 76q42 44 93 44
t75 -26q43 -44 43 -94v-1144q0 -124 -86 -209q-89 -87 -210 -87h-116q-58 0 -82 54q-8 17 -8 36q0 36 20 57q32 34 70 34h58q50 0 75 25q43 43 43 92v1142zM1770.5 1349q-10.5 24 -10.5 51.5t10.5 52t29.5 43.5q39 39 80.5 39t66 -10.5t43.5 -28.5q39 -40 39 -81.5
t-10.5 -65.5t-28.5 -43q-40 -39 -81.5 -39t-66 10.5t-43 29t-29 42.5z" />
    <glyph glyph-name="uni01CC" unicode="&#x1cc;" horiz-adv-x="1794" 
d="M320.5 -10.5q-21.5 -9.5 -46 -9.5t-46 9t-37.5 25q-35 35 -35 83v869q0 49 26 76q42 44 80.5 44t57 -8.5t31.5 -19.5q19 -16 26.5 -32.5t13.5 -24.5t18.5 -8t20.5 8.5t26 26.5q60 58 131.5 58t119.5 -23.5t83 -64.5q77 -87 77 -208v-693q0 -76 -71 -107
q-22 -10 -46.5 -10t-46.5 9t-38 25q-35 35 -35 83v690q0 49 -24 75q-43 44 -92 44q-80 0 -111 -62q-10 -20 -10 -45v-702q0 -49 -25.5 -73.5t-47 -34zM1486 966q0 50 25 76q42 44 93 44t75 -26q43 -44 43 -94v-1144q0 -124 -86 -209q-89 -87 -210 -87h-116q-58 0 -82 54
q-8 17 -8 36q0 36 20 57q32 34 70 34h58q50 0 75 25q43 43 43 92v1142zM1480.5 1349q-10.5 24 -10.5 51.5t10.5 52t29.5 43.5q39 39 80.5 39t66 -10.5t43.5 -28.5q39 -40 39 -81.5t-10.5 -65.5t-28.5 -43q-40 -39 -81.5 -39t-66 10.5t-43 29t-29 42.5z" />
    <glyph glyph-name="uni01CD" unicode="&#x1cd;" horiz-adv-x="1309" 
d="M332 1834q-13 24 -13 46t17 41t37 19q40 0 60 -20l131 -134l131 134q20 20 50 20t47 -19t17 -41t-13 -46l-120 -213q-42 -76 -113 -76q-65 0 -111 76zM427 1148q0 30 -29 30h-116q-45 0 -68 -26q-40 -45 -40 -92v-57q0 -78 -73 -108q-22 -9 -46.5 -9t-46 9t-36.5 25
q-35 34 -35 83v60q0 122 87 209t209 87h456q166 0 261 -81q94 -79 94 -215v-965q0 -76 -72 -108q-21 -9 -45.5 -9t-46.5 9.5t-38 25.5q-35 33 -35 82v335h-237v-335q0 -48 -26 -74q-43 -43 -80 -43t-59 9.5t-38 25.5q-34 32 -34 82v335h-72q-35 0 -55 19q-33 34 -33 71.5
t25.5 64t62.5 26.5h72v341q0 95 85 175q9 8 9 18zM570 614h237v445q0 50 -25 75q-44 44 -81.5 44t-59 -9.5t-37.5 -25.5q-34 -34 -34 -83v-446z" />
    <glyph glyph-name="uni01CE" unicode="&#x1ce;" horiz-adv-x="1149" 
d="M255 1469q-13 24 -13 46t17 41t37 19q40 0 60 -20l131 -134l131 134q20 20 50 20t47 -19t17 -41t-13 -46l-120 -213q-42 -76 -113 -76q-65 0 -111 76zM244 975q0 60 56 84q16 7 35 7h236q122 0 209 -87t87 -209v-673q0 -76 -72 -107q-22 -10 -48 -10t-44.5 8.5
t-31.5 19.5q-11 10 -22 28.5t-17 27.5t-19 9t-21 -9l-16 -17q-67 -67 -157 -67q-107 0 -185 88q-78 87 -78 208v138q0 122 87 209q86 86 209 86h178v58q0 50 -25 75q-44 44 -93 44h-177q-37 0 -57 19q-34 32 -34 70zM393 278q0 -51 25 -75q44 -42 81 -42t58.5 7t37.5 20
q35 28 35 74v268h-118q-51 0 -76 -25q-43 -43 -43 -93v-134z" />
    </font>
</defs>
</svg>
