<?xml version="1.0" standalone="no"?>
<!DOCTYPE svg PUBLIC "-//W3C//DTD SVG 1.1//EN" "http://www.w3.org/Graphics/SVG/1.1/DTD/svg11.dtd" >
<svg xmlns="http://www.w3.org/2000/svg" xmlns:xlink="http://www.w3.org/1999/xlink" version="1.1">
<metadata>
Created by FontForge 20190801 at Wed Jan 24 10:27:46 2024
 By root
Copyright (c) 2012 Silicon Andhra (fonts.siliconandhra.org). Copyright (c) 2011 by vernon adams (vern@newtypography.co.uk) with Reserved Font Name 'Tienne'
</metadata>
<defs>
<font id="Suravaram" horiz-adv-x="177" >
  <font-face 
    font-family="Suravaram"
    font-weight="400"
    font-stretch="normal"
    units-per-em="980"
    panose-1="0 0 0 0 0 0 0 0 0 0"
    ascent="784"
    descent="-196"
    x-height="347"
    cap-height="482"
    bbox="-213 -241 1165 1046"
    underline-thickness="60"
    underline-position="-854"
    unicode-range="U+0001-206F"
  />
<missing-glyph horiz-adv-x="354" 
d="M32 0v653h258v-653h-258zM64 32h194v589h-194v-589z" />
    <glyph glyph-name=".notdef" horiz-adv-x="354" 
d="M32 0v653h258v-653h-258zM64 32h194v589h-194v-589z" />
    <glyph glyph-name="uni0000" 
 />
    <glyph glyph-name="uni0000" 
 />
    <glyph glyph-name="uni000D" unicode="&#xd;" 
 />
    <glyph glyph-name="uni0001" 
 />
    <glyph glyph-name="uni0002" 
 />
    <glyph glyph-name="uni0003" 
 />
    <glyph glyph-name="uni0004" 
 />
    <glyph glyph-name="uni0005" 
 />
    <glyph glyph-name="uni0006" 
 />
    <glyph glyph-name="uni0007" 
 />
    <glyph glyph-name="uni0008" 
 />
    <glyph glyph-name="uni0009" unicode="&#x9;" 
 />
    <glyph glyph-name="uni000A" unicode="&#xa;" 
 />
    <glyph glyph-name="uni000B" 
 />
    <glyph glyph-name="uni000C" 
 />
    <glyph glyph-name="uni000E" 
 />
    <glyph glyph-name="uni000F" 
 />
    <glyph glyph-name="uni0010" 
 />
    <glyph glyph-name="uni0011" 
 />
    <glyph glyph-name="uni0012" 
 />
    <glyph glyph-name="uni0013" 
 />
    <glyph glyph-name="uni0014" 
 />
    <glyph glyph-name="uni0015" 
 />
    <glyph glyph-name="uni0016" 
 />
    <glyph glyph-name="uni0017" 
 />
    <glyph glyph-name="uni0018" 
 />
    <glyph glyph-name="uni0019" 
 />
    <glyph glyph-name="uni001A" 
 />
    <glyph glyph-name="uni001B" 
 />
    <glyph glyph-name="uni001C" 
 />
    <glyph glyph-name="uni001D" 
 />
    <glyph glyph-name="uni001E" 
 />
    <glyph glyph-name="uni001F" 
 />
    <glyph glyph-name="space" unicode=" " 
 />
    <glyph glyph-name="exclam" unicode="!" horiz-adv-x="235" 
d="M142 165q0 -16 2 -30q-10 -4 -25 -4t-21 5.5t-6 21.5l-12 222q-1 34 -3.5 56t-2.5 28v11q17 13 41 13t32.5 -8t8.5 -18v-12zM118 -8q-12 0 -21 4t-15 10q-11 12 -11 31t11.5 33.5t29 14.5t30 -5t17.5 -19.5t5 -22.5t-2.5 -16.5t-8.5 -15t-14.5 -10.5t-20.5 -4z" />
    <glyph glyph-name="quotedbl" unicode="&#x22;" horiz-adv-x="264" 
d="M39 486q12 14 32.5 14t26.5 -7t6 -18v-17q0 -5 -1 -10l-10 -119q-8 -8 -21 -8q-21 0 -22 24l-2 14l-5 63q-1 15 -2.5 30.5t-1.5 33.5zM161 486q12 14 32.5 14t26.5 -7t6 -21t-1 -24l-10 -119q-11 -8 -20 -8q-21 0 -23 23q0 7 -1 14l-6 64q-3 40 -4 64z" />
    <glyph glyph-name="numbersign" unicode="#" horiz-adv-x="415" 
d="M119 24h-30q-15 0 -15 10q0 6 2 17t5 29l15 69h-69v18q0 23 11 27q4 1 14 1h53l18 89h-71v24q0 15 6 18.5t20 3.5h55l26 122h18q25 0 29 -9q-2 -12 -4 -26l-19 -87h88l26 122h28q12 0 17 -3v-7l-2 -18q-2 -10 -5 -26l-15 -68h68v-18q0 -17 -4 -22.5t-21 -5.5h-51l-20 -89
h71v-24q0 -20 -15 -22h-65l-25 -125h-19q-23 0 -28 12q1 8 4 19t5 25l14 69h-89zM155 195h88l19 89h-89z" />
    <glyph glyph-name="dollar" unicode="$" horiz-adv-x="436" 
d="M218 535q20 0 24 -16v-28q99 0 124 -33l-1 -31l-16 -51l-31 8q-13 29 -30.5 45.5t-45.5 19.5v-182q74 -31 100 -54q46 -42 46 -94.5t-40.5 -89t-105.5 -40.5v-69h-22q-16 0 -20.5 5.5t-4.5 21.5v41q-86 5 -141 45q-6 4 -8 11q0 19 2 38l20 43l34 -13q29 -75 93 -81v184
q-76 34 -98.5 55t-32 41t-9.5 48q0 54 37 87t103 43v46h23zM195 450q-57 -7 -70 -59q-1 -5 -2 -9.5t-1 -15.5q0 -50 73 -80v164zM310 79q6 13 6 29q0 54 -74 87v-165q50 6 68 49z" />
    <glyph glyph-name="percent" unicode="%" horiz-adv-x="550" 
d="M148 -11l-43 15q7 13 31.5 52t45.5 75t52 86t71.5 117.5t94.5 154.5q29 -9 34 -19q2 -2 6 -4zM136 461q-53 0 -53 -99q0 -51 13 -74t40 -23t39.5 23t12.5 74.5t-12.5 75t-39.5 23.5zM178 246q-18 -9 -40 -9q-47 0 -77 32t-30 94q0 92 64 117q19 8 41 8q45 0 75 -31.5
t30 -108t-63 -102.5zM414 19q54 0 54 98.5t-54 98.5q-27 0 -39.5 -23.5t-12.5 -75.5q0 -98 52 -98zM414 -8q-23 0 -42.5 8t-33.5 23.5t-21.5 39t-7.5 54.5t7.5 54.5t21 39.5t33.5 24t43 8t43 -8t33.5 -24t21 -39.5t7.5 -54.5t-7.5 -54.5t-22 -39t-33.5 -23.5t-42 -8z" />
    <glyph glyph-name="ampersand" unicode="&#x26;" horiz-adv-x="468" 
d="M102 124q0 -92 107 -92q78 0 101 60q8 21 8 50t-2 53l-3 25h-110q-70 0 -93 -56q-8 -18 -8 -40zM370 220q9 -52 9 -93.5t-11.5 -65t-33.5 -39.5q-48 -35 -131 -35q-136 0 -169 82q-10 25 -10 51q0 46 28 80.5t77 43.5v2q-64 15 -83 68q-7 18 -7 42q0 54 40 87t122.5 33
t136.5 -34l-8 -94h-42q-18 53 -30 66q-22 24 -51.5 24t-47.5 -7t-29 -19q-22 -24 -22 -61t27 -62t74 -25h249v-93h-21q-8 29 -17 39t-27 10h-23z" />
    <glyph glyph-name="quotesingle" unicode="'" horiz-adv-x="143" 
d="M76 500q28 0 28 -28v-14q0 -5 -1 -10l-10 -119q-11 -8 -21 -8q-19 0 -22 23l-2 14l-5 64q-1 14 -2.5 28.5t-1.5 25.5q0 24 37 24z" />
    <glyph glyph-name="parenleft" unicode="(" horiz-adv-x="196" 
d="M39 225q0 116 53 225q32 63 50 70q6 2 10 2t8 -2l15 -7q-73 -119 -73 -288t73 -288l-15 -7q-4 -1 -11.5 -1t-18.5 11q-64 83 -84 206q-7 39 -7 79z" />
    <glyph glyph-name="parenright" unicode=")" horiz-adv-x="196" 
d="M94 225q0 171 -72 288l14 7q4 2 13 2t18 -12q64 -83 85 -206q6 -39 6 -79q0 -83 -24.5 -157t-66.5 -128q-11 -11 -18.5 -11t-12.5 1l-14 7q72 117 72 288z" />
    <glyph glyph-name="asterisk" unicode="*" horiz-adv-x="310" 
d="M94 249l38 84l-90 -45l-14 52l96 22l-83 57l44 37l59 -74l10 100l60 -16l-40 -89l91 42l13 -51l-94 -19l81 -67l-45 -35l-58 82l-9 -104z" />
    <glyph glyph-name="plus" unicode="+" horiz-adv-x="431" 
d="M214 374q20 0 26 -16v-131h147v-23q0 -18 -5.5 -22t-23.5 -4h-118v-146h-23q-19 0 -22.5 5t-3.5 23v118h-146v24q0 17 5.5 21t23.5 4h117v147h23z" />
    <glyph glyph-name="comma" unicode="," horiz-adv-x="154" 
d="M116 46q0 -85 -77 -152q-11 0 -15 6l-4 10q28 41 32 91l2 13q-18 0 -26 13.5t-0.5 27.5t16 21t25.5 7q47 0 47 -37z" />
    <glyph glyph-name="hyphen" unicode="-" horiz-adv-x="228" 
d="M211 201q0 -22 -16 -27h-178v23q0 14 6.5 17.5t21.5 3.5h166v-17z" />
    <glyph glyph-name="period" unicode="." horiz-adv-x="200" 
d="M146 40q0 -35 -24 -47q-9 -4 -26.5 -4t-29 14.5t-11.5 31.5q0 31 25 43q9 4 25.5 4t28.5 -14t12 -28z" />
    <glyph glyph-name="slash" unicode="/" horiz-adv-x="285" 
d="M258 508q22 0 28 -9q-1 -2 -2 -5t-4.5 -11t-12 -29.5t-56 -132t-82.5 -192t-78 -181.5h-24q-21 0 -28 10l235 550h24z" />
    <glyph glyph-name="zero" unicode="0" horiz-adv-x="427" 
d="M214 448q-109 0 -109 -210q0 -55 7 -94q18 -115 102 -115q109 0 109 209.5t-109 209.5zM214 -13q-43 0 -77.5 17.5t-58.5 49.5q-47 63 -47 183.5t48 186t135 65.5q132 0 170 -145q13 -46 13 -106t-12.5 -106.5t-36 -78.5t-57.5 -49t-77 -17z" />
    <glyph glyph-name="one" unicode="1" horiz-adv-x="329" 
d="M46 452q106 37 130 37t28 -11v-393q0 -30 5 -42q12 -3 35 -3h30v-46q-36 5 -88.5 5t-120.5 -5v46h30q23 0 35 3q5 20 5 40v334q-12 10 -32 10l-20 -1l-31 -6z" />
    <glyph glyph-name="two" unicode="2" horiz-adv-x="418" 
d="M282 361q0 86 -78 86q-38 0 -71.5 -23.5t-38.5 -65.5l-49 41q12 64 101 84q26 6 58 6q68 0 108.5 -36.5t40.5 -94.5q0 -41 -17 -71q-28 -51 -74 -98t-152 -141h133q54 0 82 30q13 13 23 36l21 -4q0 -55 -4 -101q-30 -9 -131 -9h-168q-25 0 -31 17q0 6 1.5 12.5t2.5 15.5
q178 175 215 231q22 34 25 53.5t3 31.5z" />
    <glyph glyph-name="three" unicode="3" horiz-adv-x="401" 
d="M295 130q0 95 -145 95h-13v40h22q43 0 82 27.5t39 70.5t-24.5 63.5t-51.5 20.5t-45 -5q-35 -10 -57 -44q-10 -16 -14 -36l-46 37q8 42 49 65.5t99 23.5q106 0 142 -62q13 -24 13 -50q0 -48 -31 -80t-88 -45q136 -16 136 -124q0 -98 -98 -130q-30 -10 -75 -10t-91.5 20.5
t-56.5 47.5q8 62 11 77l37 -7q0 -52 30 -74t64 -22q57 0 84.5 29t27.5 72z" />
    <glyph glyph-name="four" unicode="4" horiz-adv-x="405" 
d="M371 -6q-41 6 -83 6t-123 -6v45h30q25 0 35 3q5 13 5 34v7v46h-210q-13 10 -13 29q2 10 10 18q144 210 178 253.5t41 52.5h29q20 0 26 -6t6 -20v-284h94v-19q0 -17 -6 -20.5t-21 -3.5h-67v-45q0 -26 4 -42q12 -3 35 -3h30v-45zM235 172v228l-153 -218l-6 -10h159z" />
    <glyph glyph-name="five" unicode="5" horiz-adv-x="413" 
d="M300 425q-12 -1 -53.5 -1t-116.5 16l-3 -160q42 20 80 20q75 0 119 -42t44 -112t-44.5 -114.5t-122.5 -44.5t-126 28q-12 7 -19 14v105l41 -4l15 -81q40 -20 76 -20q60 0 85.5 34t25.5 84.5t-31 78.5q-32 29 -85.5 29t-88.5 -30l-23 7v235q10 15 35 15h138q65 0 98 7
l2 -48q-9 -11 -21.5 -13t-24.5 -3z" />
    <glyph glyph-name="six" unicode="6" horiz-adv-x="410" 
d="M232 255q-54 0 -116 -62q0 -164 98 -164q43 0 69 31.5t26 87.5q0 78 -48 100q-15 7 -29 7zM210 -13q-168 0 -168 234q0 200 107 251q37 17 89.5 17t93.5 -15q12 -5 20 -11l-4 -105h-41l-10 71q-34 19 -62 19q-49 0 -76.5 -32t-37.5 -80t-10 -70v-27q58 58 123 58t105 -40
t40 -109t-46 -115t-123 -46z" />
    <glyph glyph-name="seven" unicode="7" horiz-adv-x="401" 
d="M360 482q10 -30 10 -52l-160 -367q-17 -39 -30.5 -53t-38 -14t-30.5 12q4 11 9 22l194 407h-147q-44 0 -68 -8l-8 -71h-39l-15 105q34 19 168 19h155z" />
    <glyph glyph-name="eight" unicode="8" horiz-adv-x="392" 
d="M323.5 306.5q-21.5 -27.5 -63.5 -58.5q67 -27 93 -81q9 -19 9 -49t-14 -56q-38 -75 -156 -75q-69 0 -114.5 32.5t-45.5 88.5q0 72 52 112q18 14 43 26q-70 35 -83 88q-5 18 -5 42.5t12.5 46t33.5 36t49 22.5t58 8q63 0 108 -31t45 -77.5t-21.5 -74zM169 226
q-72 -38 -72 -104.5t57 -86.5q18 -6 40 -6q46 0 71 24t25 58q0 66 -92 104zM206 268q75 40 75 100q0 35 -24.5 57.5t-64.5 22.5q-61 0 -80 -46q-7 -15 -7 -34q0 -34 27 -60t74 -40z" />
    <glyph glyph-name="nine" unicode="9" horiz-adv-x="409" 
d="M105 332q0 -107 78 -107q45 0 77.5 30.5t34.5 60.5q0 97 -59 124q-18 8 -38 8q-44 0 -68.5 -31.5t-24.5 -84.5zM200 489q168 0 168 -224q0 -208 -104 -260q-35 -18 -90.5 -18t-95.5 21q-14 7 -22 15v102l43 -3l14 -77q37 -16 67 -16q54 0 86 53t32 136v10q0 4 -1 9
q-60 -56 -122.5 -56t-101 40.5t-38.5 108.5q0 108 97 147q30 12 68 12z" />
    <glyph glyph-name="colon" unicode=":" horiz-adv-x="203" 
d="M68.5 69.5q13.5 12.5 33.5 12.5t33 -15t13 -36t-14 -31.5t-34.5 -10.5t-32.5 13.5t-12 34t13.5 33zM148 314q0 -53 -46 -53q-23 0 -35 13.5t-12 34t13.5 33t33 12.5t33 -12t13.5 -28z" />
    <glyph glyph-name="semicolon" unicode=";" horiz-adv-x="158" 
d="M79 261q-52 0 -52 47q0 36 35 44q5 2 18 2t26.5 -12t13.5 -34t-12.5 -34.5t-28.5 -12.5zM69 83q47 0 47 -40q0 -60 -46 -120q-22 -29 -32 -29q-18 0 -24 13q37 59 40 107q-28 0 -28 29q1 17 12 28.5t31 11.5z" />
    <glyph glyph-name="less" unicode="&#x3c;" horiz-adv-x="464" 
d="M45 184l-1 12v4q0 11 11 16q71 33 148 67.5t101.5 46.5t41.5 19t27 11.5t16 7t8.5 3.5t4.5 2q8 -8 11 -19.5t7 -23.5l-304 -140l303 -138q-4 -13 -6.5 -24.5t-10.5 -19.5q-27 11 -357 163v13z" />
    <glyph glyph-name="equal" unicode="=" horiz-adv-x="431" 
d="M387 272q0 -22 -16 -26h-326v23q0 17 7 21t26 4h309v-22zM387 137q0 -20 -16 -26h-326v23q0 23 13 24q5 1 13 1h316v-22z" />
    <glyph glyph-name="greater" unicode="&#x3e;" horiz-adv-x="464" 
d="M412 216q8 -3 8 -24v-21q-64 -29 -113.5 -52t-86.5 -40q-64 -30 -101.5 -46.5t-47.5 -21.5t-13 0q-7 10 -12 41l302 139l-303 139l20 44z" />
    <glyph glyph-name="question" unicode="?" horiz-adv-x="329" 
d="M145 80q36 0 49 -30q3 -9 3 -24t-13 -27q-15 -13 -32 -13q-9 0 -20 4q-28 12 -28 39.5t13 39t28 11.5zM171 185q0 -32 10 -59h-26q-27 16 -41 44q-4 9 -4 23t8 28q16 25 47 54q55 51 55 97q0 32 -16.5 52t-45.5 20q-70 0 -82 -55h-47q0 53 46 79q36 21 75 21
q69 0 107 -32t38 -88.5t-63 -110.5q-39 -35 -50 -48.5t-11 -24.5z" />
    <glyph glyph-name="at" unicode="@" horiz-adv-x="622" 
d="M420 152q0 -44 35.5 -44t63.5 46t28 96q0 93 -58.5 149.5t-154 56.5t-162.5 -67t-67 -175.5t66.5 -173t161.5 -64.5t175 48l13 -24q-88 -57 -180 -57q-179 0 -260 133q-36 60 -36 135q0 121 84 200.5t200 79.5t187 -65t71 -169q0 -69 -39 -125.5t-99 -56.5q-44 0 -65 35
q-8 10 -10 22h-2q-32 -57 -92 -57t-82 57q-7 18 -7 50t12 67t33 61q49 57 119 57q42 0 59 -37l14 22h35l-39 -167q-4 -16 -4 -33zM397 304q-7 33 -42.5 33t-68.5 -49.5t-33 -102.5q0 -74 51 -74q63 0 86 147q3 23 7 46z" />
    <glyph glyph-name="A" unicode="A" horiz-adv-x="529" 
d="M251 421l-84 -245h170l-83 245h-3zM167 -5q-24 5 -80 5t-87 -5l10 47h15q18 0 32 4q14 19 19.5 34.5t14 38.5t20.5 53t25.5 65t27.5 69l70 176h31q24 0 40 -6l148 -389q12 -29 20 -41q16 -4 32 -4h15l10 -47q-28 5 -61 5h-47q-43 0 -73 -5l-7 47h6q18 0 34 4q0 15 -10 39
l-23 56h-193l-18 -54q-8 -24 -8 -38q0 -7 25 -7h15z" />
    <glyph glyph-name="B" unicode="B" horiz-adv-x="487" 
d="M260 42q111 0 111 88q0 49 -29.5 73.5t-94.5 24.5h-49q-17 0 -21 -1v-185h83zM177 270q42 -3 64 -3q52 0 85.5 22t33.5 67q0 67 -64 82q-22 6 -54 6l-46 -2l-19 -1v-171zM170 0q-65 0 -137 -5v47h29q21 0 35 4q5 11 5 32v7v301q0 31 -5 49q-12 2 -27 2l-44 -2v38
q100 13 232 13q176 0 176 -128q0 -39 -27.5 -70t-72.5 -37q112 -15 112 -117v-2q0 -85 -74 -112q-45 -17 -91 -18.5t-111 -1.5z" />
    <glyph glyph-name="C" unicode="C" horiz-adv-x="459" 
d="M264 489q103 0 166 -35l-9 -94h-40q-17 48 -33 63t-31.5 20t-47.5 5t-62 -16q-87 -46 -87 -188q0 -159 92 -198q30 -13 67 -13q62 0 154 41l5 -47q-67 -40 -168.5 -40t-166 62.5t-64.5 180.5q0 187 139 242q45 17 86 17z" />
    <glyph glyph-name="D" unicode="D" horiz-adv-x="541" 
d="M26 475q84 11 177 11t124 -4.5t58 -15.5q118 -51 118 -228q0 -156 -105 -205q-58 -27 -162 -31q-47 -2 -93.5 -2t-111.5 -5v48q53 0 64 3q5 15 5 40v298q0 22 -5 47q-11 4 -34 4h-35v40zM252 440l-80 -1v-397q6 -1 11 -1h27q143 0 187 75q25 44 25 112.5t-10 106.5
t-31 61q-39 44 -129 44z" />
    <glyph glyph-name="E" unicode="E" horiz-adv-x="453" 
d="M26 471q59 11 172 11h205l9 -44q1 -8 5 -25t4 -30l-49 -1l-2 16q-2 14 -8 31q-20 10 -86 10l-30 -1l-74 -1v-170h114q24 0 33 17q4 6 8 20h17q0 -64 -4 -118h-21q-11 34 -29 40q-6 2 -15 2h-103v-186h154q38 0 48 12q6 17 10 55h42v-39q0 -16 -1.5 -33.5t-2.5 -29.5
q-34 -10 -68.5 -11t-62.5 -1l-155 5q-72 0 -106 -5v47h30q20 0 34 4q5 11 5 32v7v308q0 27 -5 39q-6 3 -14 3h-54v36z" />
    <glyph glyph-name="F" unicode="F" horiz-adv-x="448" 
d="M250 438l-75 -1v-168h99q32 0 41 35h17q0 -64 -4 -118h-21q-8 25 -16 32t-27 7h-89v-138q0 -21 5 -41q16 -4 35 -4h30v-47l-106 5l-99 -4l-7 -1v47h29q21 0 35 4q5 13 5 35v314q0 24 -5 37q-7 3 -15 3h-56v36q90 11 232 11h148q4 -24 6 -42t4.5 -32.5t2.5 -24.5l-49 -1
q0 20 -9 47q-18 10 -82 10z" />
    <glyph glyph-name="G" unicode="G" horiz-adv-x="466" 
d="M452 34q-68 -47 -170 -47q-168 0 -224 135q-19 45 -19 109q0 126 70 192t191 66q81 0 144 -35l-9 -94h-41q-17 48 -33 63q-26 25 -69 25q-87 0 -129.5 -56t-42.5 -152t42.5 -152t120.5 -56q61 0 99 19v78q0 30 -5 43q-11 4 -35 4h-40v37q6 0 28.5 2.5t58.5 2.5h65
q-1 -16 -1 -27l-1 -31v-126z" />
    <glyph glyph-name="H" unicode="H" horiz-adv-x="567" 
d="M540 -5q-34 5 -104 5t-108 -5v47h30q21 0 35 4q6 13 5 39v141h-229v-139q0 -21 5 -41q16 -4 35 -4h30v-47q-34 5 -105 5t-107 -5v47h30q20 0 34 4q6 15 6 39v311q0 24 -6 40q-11 4 -35 4h-30v36q46 6 113.5 6t100.5 -6v-36h-31q-19 0 -35 -4q-5 -20 -5 -40v-124h229v124
q0 27 -5 40q-11 4 -35 4h-30v36q46 6 114.5 6t99.5 -6v-36h-31q-19 0 -35 -4q-5 -20 -5 -40v-309q0 -21 5 -41q16 -4 34 -4h30v-47z" />
    <glyph glyph-name="I" unicode="I" horiz-adv-x="264" 
d="M239 -5q-32 5 -103.5 5t-108.5 -5v47h29q19 0 35 4q5 13 5 32v7v313q0 25 -5 38q-11 4 -35 4h-30v36q46 6 114.5 6t98.5 -6v-36h-30q-21 0 -35 -4q-5 -20 -5 -38v-311q0 -21 5 -41q16 -4 35 -4h30v-47zM239 -5q-32 5 -103.5 5t-108.5 -5v47h29q19 0 35 4q5 13 5 32v7v313
q0 25 -5 38q-11 4 -35 4h-30v36q46 6 114.5 6t98.5 -6v-36h-30q-21 0 -35 -4q-5 -20 -5 -38v-311q0 -21 5 -41q16 -4 35 -4h30v-47z" />
    <glyph glyph-name="J" unicode="J" horiz-adv-x="342" 
d="M110 476q46 6 114 6t99 -6v-36h-30q-21 0 -35 -4q-5 -12 -5 -33v-7v-290q0 -120 -70 -155q-22 -11 -45 -11t-64 7t-59 17q0 1 1 8l1 19q1 13 2 32.5t3 47.5l48 -1q2 -32 14 -82q7 -1 15 -3t25 -2q34 0 45 32.5t11 102.5v278q0 27 -6 40q-9 4 -34 4h-30v36z" />
    <glyph glyph-name="K" unicode="K" horiz-adv-x="490" 
d="M26 476q46 6 114.5 6t98.5 -6v-36h-30q-21 0 -35 -4q-5 -20 -5 -40v-311q0 -25 5 -39q16 -4 35 -4h30v-47q-45 5 -107 5q-71 0 -105 -5v47h30q20 0 34 4q5 13 5 35v315q0 27 -5 40q-11 4 -35 4h-30v36zM300 476q50 6 109.5 6t82.5 -6l-2 -36h-27q-15 0 -31 -4
q-27 -22 -79.5 -80t-69.5 -76t-27 -29l132 -166q15 -19 37 -39q16 -4 33 -4h26l5 -47q-40 5 -106.5 5t-100.5 -5v47h6q23 0 33 4q-4 11 -25 39l-104 139q-3 3 -5 6.5t-8 12.5q5 7 17.5 21t23 26.5t38.5 43t52 56.5q33 33 33 40v6q-8 4 -28 4h-19z" />
    <glyph glyph-name="L" unicode="L" horiz-adv-x="445" 
d="M292 -5l-160 5q-71 0 -105 -5v47h29q19 0 35 4q5 13 5 32v7v311q0 27 -5 40q-11 4 -35 4h-30v36q46 6 114.5 6t99.5 -6v-36h-31q-19 0 -35 -4q-5 -20 -5 -40v-354h128q39 0 54 8q25 13 37 59l29 -3l-12 -106q-73 -5 -113 -5z" />
    <glyph glyph-name="M" unicode="M" horiz-adv-x="737" 
d="M712 -5q-35 5 -104.5 5t-104.5 -5l-4 47h27q24 0 29.5 5t5.5 17.5t-0.5 33t-2.5 46t-5.5 75t-13.5 181.5q-132 -369 -145 -400h-63q-20 53 -47.5 134.5t-45 133t-43.5 129.5q-21 -315 -21 -328.5t7 -20t28 -6.5h26l-3 -47q-35 5 -103 5t-103 -5l8 47h33q19 0 35 4
q13 26 15 41.5t5 42t5.5 56.5t4.5 61t4.5 58.5t3.5 49.5t2.5 34.5t1.5 20.5t-1.5 13.5t-2.5 10.5q-14 6 -36 6h-35v36q10 1 26.5 3.5t58 2.5t80.5 -6q34 -82 72.5 -202t52 -158t13.5 -41q46 142 88.5 258t51.5 143q42 6 75 6l81 -5l3 -1l3 -36h-29q-26 0 -35 -7
q-1 -6 -2 -16l26 -332q1 -19 9 -39q20 -4 44 -4h18z" />
    <glyph glyph-name="N" unicode="N" horiz-adv-x="557" 
d="M228 -5q-30 5 -94.5 5t-99.5 -5v47h30q20 0 34 4q6 13 6 39l-1 311q0 27 -5 40q-11 4 -35 4h-37v36q78 6 104 6t48 -5q157 -243 243 -388l-5 269v38q0 27 -5 40q-16 4 -35 4h-34v36q44 6 107.5 6t88.5 -6v-36h-26q-21 0 -35 -4q-5 -13 -5 -49.5t-1 -88t-2 -104.5t-3 -104
t-3 -95h-35q-16 0 -30 7l-244 387q4 -76 4 -191t1.5 -129.5t4.5 -22.5q16 -4 34 -4h30v-47z" />
    <glyph glyph-name="O" unicode="O" horiz-adv-x="524" 
d="M119 238q0 -209 143 -209t143 210q0 104 -37 157q-38 52 -106 52q-103 0 -133 -118q-10 -39 -10 -92zM486 239.5q0 -116.5 -60 -184.5t-163.5 -68t-164 68t-60.5 184.5t60.5 183t163.5 66.5t163.5 -66.5t60.5 -183z" />
    <glyph glyph-name="P" unicode="P" horiz-adv-x="450" 
d="M176 440v-203h55q118 0 118 102q0 79 -65 95q-22 6 -51 6h-57zM245 -5q-33 5 -104 5t-108 -5v47h30q20 0 34 4q6 13 6 39l-1 313q0 27 -5 39q-18 3 -34 3h-37v36q68 9 154.5 9t125.5 -7q118 -20 118 -139q0 -144 -194 -144q-22 0 -54 2v-110q0 -28 5 -41q16 -4 34 -4h30
v-47z" />
    <glyph glyph-name="Q" unicode="Q" horiz-adv-x="541" 
d="M502 -39q-72 -30 -124 -30q-83 0 -145 59q-141 15 -181 149q-14 45 -14 103q0 115 60 181t159.5 66t162 -66t62.5 -181t-66 -187q-37 -40 -93 -55q25 -22 91 -22q18 0 79 18zM261 28q104 0 133 116q10 40 10 94q0 102 -37.5 156t-105.5 54q-67 0 -105 -52t-38 -158
q0 -210 143 -210z" />
    <glyph glyph-name="R" unicode="R" horiz-adv-x="482" 
d="M236 244q118 0 118 99q0 54 -29 75.5t-97 21.5h-52v-196h60zM245 -5q-33 5 -104 5t-108 -5v47h30q20 0 34 4q6 13 6 39l-1 315q0 24 -5 37q-10 3 -31 3h-40v36q11 1 26 3t32.5 2.5t36 1.5t43.5 1h66q97 0 148 -31.5t51 -106.5q0 -96 -96 -130q15 -85 84 -148
q28 -26 48 -26h18v-47h-50q-55 0 -95 39q-28 29 -48 86q-9 24 -13.5 45.5t-8.5 38.5h-46t-46 1v-118q0 -28 5 -41q16 -4 34 -4h30v-47z" />
    <glyph glyph-name="S" unicode="S" horiz-adv-x="410" 
d="M122 402q-7 -14 -7 -30q0 -31 23.5 -51.5t63.5 -34.5q85 -32 129 -66.5t44 -89.5q0 -101 -103 -134q-31 -9 -60 -9q-114 0 -179 57l15 90l51 -2q0 -53 14 -77q27 -27 91 -27q40 0 68.5 23t28.5 58q0 54 -79 93q-25 12 -54 23t-52 24q-74 41 -74 111q0 89 104 119
q35 10 77.5 10t82 -9t48.5 -24v-8l-2 -13q-4 -39 -9 -74l-43 4q0 47 -18.5 65t-70.5 18q-68 0 -89 -46z" />
    <glyph glyph-name="T" unicode="T" horiz-adv-x="464" 
d="M452 476l-4 -118h-42q0 56 -11 82h-123v-353q0 -25 4 -41q16 -4 36 -4h30v-47q-32 5 -104 5t-109 -5v47h30q20 0 34 4q5 13 5 35v359h-123q-11 -20 -11 -82h-46l-4 118q12 6 79 6l71 -2h32l43 -1l49 1h28l56 2q68 0 80 -6z" />
    <glyph glyph-name="U" unicode="U" horiz-adv-x="537" 
d="M330 477q37 5 102.5 5t95.5 -6v-36h-31q-21 0 -35 -4q-5 -13 -5 -40v-223q0 -88 -52.5 -137t-138.5 -49q-186 0 -186 209v200q0 27 -5 40q-11 4 -34 4h-31v37q38 5 111 5t103 -6v-36h-31q-19 0 -35 -4q-4 -12 -4 -32v-8v-228q0 -103 72 -130q22 -9 50 -9q64 0 94 40
t30 124v203q0 27 -5 40q-11 4 -35 4h-30v37z" />
    <glyph glyph-name="V" unicode="V" horiz-adv-x="546" 
d="M190 440q-19 0 -33 -4q0 -10 13 -40l125 -324h3l116 324q9 23 9 40q-9 4 -33 4h-24l2 36q40 6 97.5 6t81.5 -6l-8 -36h-17q-20 0 -36 -4q-12 -19 -18 -40q-18 -48 -56 -152.5t-96 -243.5h-35q-31 0 -38 15l-152 381q-8 18 -22 40q-11 4 -36 4h-25l-8 36q40 6 108.5 6
t101.5 -6l4 -36h-24z" />
    <glyph glyph-name="W" unicode="W" horiz-adv-x="804" 
d="M6 476q40 6 108.5 6t101.5 -6l4 -36h-24q-19 0 -33 -4q1 -8 4.5 -17t8.5 -23l105 -324h3q5 13 9.5 27.5t10 31.5t12.5 39t15 50.5t18 65.5t20.5 75t16.5 106h41q17 0 23 -11q2 -3 4 -7l122 -379h3q14 47 25.5 84.5t20.5 68t16 55t22.5 77.5t15.5 64v13q0 2 -1 4
q-9 4 -33 4h-23l-2 36q40 6 97 6t82 -6l-5 -36h-17q-18 0 -36 -4q-9 -19 -18 -52q-53 -201 -125 -384h-56q-13 0 -15 4q-7 12 -8.5 19.5t-3.5 9.5l-99 304q-49 -182 -112 -337h-54q-19 0 -24 15l-129 381q-5 13 -11 22.5t-11 17.5q-11 4 -36 4h-25z" />
    <glyph glyph-name="X" unicode="X" horiz-adv-x="540" 
d="M439 0h-54q-42 0 -76 -5v47h17q18 0 32 4q-12 25 -24 41l-77 110l-80 -110q-13 -17 -22 -41q12 -4 32 -4h17v-47q-34 5 -76 5h-53q-39 0 -69 -5v47h29q17 0 33 4q8 8 16 18t19 21l126 151l-112 160q-9 13 -15 22q-6 10 -14 18q-11 4 -37 4h-25l-5 36q36 6 103.5 6
t103.5 -6l4 -36h-20q-20 0 -32 -4q2 -9 5 -13t6 -9l86 -126l84 108q21 28 26 40q-8 4 -32 4h-13l4 36q48 6 104 6t75 -6l-3 -36h-28q-18 0 -38 -4q-10 -10 -69.5 -83t-84.5 -101l122 -167q21 -28 34 -39q16 -4 33 -4h16v-47q-13 1 -27.5 3t-40.5 2z" />
    <glyph glyph-name="Y" unicode="Y" horiz-adv-x="531" 
d="M189 440q-21 0 -33 -4q0 -8 5 -17t8 -15l108 -184q24 44 38.5 71t23.5 43.5t26.5 49.5t20.5 52q-8 4 -32 4h-24l8 36q44 6 107 6t89 -6l-13 -36h-29q-18 0 -36 -4q-4 -6 -8 -11t-6 -9t-8.5 -15.5t-16.5 -28.5t-22.5 -38.5t-35 -58.5t-61.5 -102v-86q0 -25 6 -41
q16 -4 33 -4h31v-47q-32 5 -103 5t-109 -5v47h30q18 0 34 4q5 13 7 39v79l-137 232q-8 13 -12.5 22.5t-10.5 17.5q-11 4 -35 4h-26l-10 36q42 6 109 6t102 -6l6 -36h-24z" />
    <glyph glyph-name="Z" unicode="Z" horiz-adv-x="411" 
d="M87 414l1 -37h-36q0 2 -2.5 16t-4 24.5l-3 21t-3 18.5t-1.5 13q43 12 173 12h157q14 -9 14 -26v-18l-280 -396h171q26 0 36 12q20 24 20 78h54v-103q0 -9 -2 -19q0 -10 -83 -10h-262q-12 9 -12 27v18l274 395h-93q-8 0 -20.5 -1t-32.5 -2t-42.5 -7t-22.5 -16z" />
    <glyph glyph-name="bracketleft" unicode="[" horiz-adv-x="217" 
d="M192 -42v-12q0 -21 -18 -22q-5 -1 -12 -1h-93v601h90q27 0 30 -8t3 -16v-11h-70v-531h70z" />
    <glyph glyph-name="backslash" unicode="\" horiz-adv-x="298" 
d="M298 -22h-36q-16 0 -25 9l-237 512h34q19 0 31 -16z" />
    <glyph glyph-name="bracketright" unicode="]" horiz-adv-x="217" 
d="M65 -77q-40 0 -40 23v12h70v531h-70v11q0 20 16 24h108v-601h-84z" />
    <glyph glyph-name="asciicircum" unicode="^" horiz-adv-x="398" 
d="M355 169q8 -16 8 -25t-5 -17l-34 -6l-124 215l-122 -214l-23 5q-12 2 -20 12q8 21 13 30l133 236h22q16 0 24 -12z" />
    <glyph glyph-name="underscore" unicode="_" horiz-adv-x="322" 
d="M327 -90q0 -19 -15 -23h-316v20q0 22 21 22h310v-19z" />
    <glyph glyph-name="grave" unicode="`" horiz-adv-x="409" 
d="M132 531h84l63 -107h-47z" />
    <glyph glyph-name="a" unicode="a" horiz-adv-x="417" 
d="M106 94q0 -60 67 -60q33 0 80 35q5 45 5 95h-53q-48 0 -73.5 -18t-25.5 -52zM329 90q0 -36 6 -56h53v-28q-31 -11 -84 -11q-12 0 -25 1q-18 2 -22.5 13t-4.5 23l-1 6q-51 -46 -108 -46q-77 0 -101 56q-8 18 -8 43q0 111 175 111h49v23q0 50 -11 67t-23.5 22.5t-40.5 5.5
q-52 0 -93 -67l-47 29q4 28 45.5 51t101.5 23q139 0 139 -128v-138z" />
    <glyph glyph-name="b" unicode="b" horiz-adv-x="447" 
d="M335 182q0 135 -84 135q-51 -1 -96 -41q-7 -44 -7 -116.5t5 -125.5q50 -5 78 -5q52 0 78 40.5t26 112.5zM73 0h-15q-6 0 -11 -0.5t-7 -0.5l4 36q27 10 30 27q2 7 2 17v384q0 10 -2 20q-12 4 -29 4h-32v30q36 9 79.5 9t52.5 -2l2 -16t1 -17v-185q48 50 116 50t107 -45
t39 -129t-44 -135t-108 -51z" />
    <glyph glyph-name="c" unicode="c" horiz-adv-x="361" 
d="M304 256q-30 61 -82.5 61t-81.5 -36.5t-29 -85.5q0 -83 32 -122t87 -39t101 28l4 -44q-44 -26 -121.5 -26t-126.5 47t-49 130q0 131 112 174q33 13 61 13q87 0 124 -33l-6 -67h-25z" />
    <glyph glyph-name="d" unicode="d" horiz-adv-x="448" 
d="M211 317q-96 0 -96 -141.5t94 -141.5q51 0 79 48q9 15 14 34q0 113 -4 165q-36 36 -87 36zM237 517q38 9 81.5 9t51.5 -2q3 -18 3 -26v-408q0 -36 6 -56h58v-29q-38 -9 -76 -9t-47.5 5t-9.5 27v16q-41 -52 -111.5 -52t-112.5 46t-42 133t40 137t108 50t116 -44v140
q0 18 -3 29q-12 4 -29 4h-33v30z" />
    <glyph glyph-name="e" unicode="e" horiz-adv-x="392" 
d="M285 202q1 1 1 2v4q0 76 -44 101q-16 9 -38 9q-88 0 -94 -116h175zM111 163q8 -129 120 -129q55 0 90 35l30 -13q-36 -64 -135 -64q-81 0 -129.5 47t-48.5 135q0 128 104 169q32 13 68 13q67 0 107.5 -37t40.5 -92.5t-28 -61.5q-10 -2 -23 -2h-196z" />
    <glyph glyph-name="f" unicode="f" horiz-adv-x="263" 
d="M223 -4q-54 4 -92 4t-86 -4l1 28q33 4 39.5 10.5t7.5 13.5t1 19v238h-76v25q10 16 37 16h39v31q0 75 37 111t106 36q41 0 75 -17v-76h-33q-15 55 -54 55q-32 0 -45.5 -20t-13.5 -74v-46h95v-18q0 -19 -16 -23h-79v-225q0 -15 0.5 -24.5t8 -18.5t45.5 -13z" />
    <glyph glyph-name="g" unicode="g" horiz-adv-x="368" 
d="M77 22q-27 4 -27 46q0 19 10.5 38t31.5 25v1q-55 32 -55 102q0 84 83 113q26 9 57.5 9t73.5 -15l85 11q18 0 21 -7t3 -31v-7h-74q28 -34 28 -68q0 -63 -38 -98t-117 -35q-6 0 -46 5q-3 -4 -4 -8.5t-2.5 -9.5t-1.5 -14t12 -14t51 -5q88 0 127 -20q49 -24 49 -86
q0 -104 -176 -104q-114 0 -144 61q-9 18 -9 38q0 52 62 71v2zM261 -2.5q-20 15.5 -75 15.5t-75 -2q-33 -40 -33 -64t14 -35q29 -23 73 -23q73 0 94.5 16t21.5 46.5t-20 46zM250 230q0 87 -74 87q-40 0 -58 -21.5t-18 -54.5t5.5 -48t16.5 -25q20 -18 53 -18t54 19t21 61z" />
    <glyph glyph-name="h" unicode="h" horiz-adv-x="455" 
d="M380 90q0 -26 6 -56h51v-30q-32 -8 -64 -8t-44 2q-22 3 -22 26l2 70v122q0 87 -32 98q-11 3 -36.5 3t-58 -22t-34.5 -45v-174q0 -29 6.5 -38.5t33.5 -13.5l3 -28q-48 4 -82.5 4t-74.5 -4l1 28q28 4 34 10.5t6.5 14t0.5 18.5v401q0 8 -2 15q-12 4 -28 4h-33v30
q36 9 76.5 9t46 -1t9 -5t3.5 -26v-187q51 49 128 49q55 0 79.5 -26t24.5 -81v-159z" />
    <glyph glyph-name="i" unicode="i" horiz-adv-x="214" 
d="M70 452q-4 9 -4 25t13 28.5t33.5 12.5t33 -13.5t12.5 -33.5t-13 -33t-33 -13q-31 0 -42 27zM148 90q0 -26 6 -56h48l4 -30q-36 -8 -83.5 -8t-47.5 28l2 70v188q0 15 -2 27q-12 5 -29 5h-33v32q24 6 70.5 6t64.5 -6v-256z" />
    <glyph glyph-name="j" unicode="j" horiz-adv-x="270" 
d="M63 346q24 6 70.5 6t64.5 -6v-317q0 -77 -28.5 -115.5t-76 -38.5t-93.5 14l15 92q8 -1 16 -3t20 -2q0 -17 2 -31.5t3 -24.5q7 -1 15.5 -3t20.5 -2q21 0 28 31t7 89v247q0 15 -2 27q-12 5 -29 5h-33v32zM129.5 504.5q12.5 13.5 32.5 13.5q32 0 44 -28q3 -8 3 -24
t-14 -28.5t-33 -12.5q-30 0 -42 27q-3 9 -3 24t12.5 28.5z" />
    <glyph glyph-name="k" unicode="k" horiz-adv-x="416" 
d="M190 -4q-46 4 -80 4t-76 -4l1 28q28 4 34 10.5t6.5 14t0.5 18.5v399q0 8 -2 16q-15 5 -29 5h-32v29q45 10 119 10q11 -8 13.5 -17t2.5 -21v-313l89 85q38 36 38 47q-1 6 -13 7v32h145v-32h-12q-7 0 -15 -2l-20 -7q-11 -3 -21 -13l-115 -102l124 -142q12 -12 30 -16.5
t25 -4.5t10 1l5 -33q-50 5 -83 5q-40 0 -84 -4v29q16 0 16 6q-9 14 -21 29l-80 98l-18 -13v-69q0 -28 6 -37t34 -15z" />
    <glyph glyph-name="l" unicode="l" horiz-adv-x="213" 
d="M71 24l3 70v355q0 18 -4 34q-12 4 -29 4h-32v30q34 9 81 9t54 -9v-427q0 -26 6 -56h54v-30q-36 -8 -67.5 -8t-43.5 2q-22 3 -22 26z" />
    <glyph glyph-name="m" unicode="m" horiz-adv-x="671" 
d="M522 24l2 70l-1 127q0 54 -8.5 69t-18.5 19.5t-27 4.5q-46 0 -81 -43q-10 -11 -14 -21v-171q0 -30 6.5 -39.5t37.5 -15.5l3 -28q-40 4 -83.5 4t-77.5 -4l1 28q28 4 34.5 10.5t7 13t0.5 18.5v155q0 56 -9 70q-13 23 -44 23t-59.5 -21t-35.5 -43v-171q0 -31 6 -40.5
t34 -14.5l2 -28q-38 4 -81.5 4t-75.5 -4l1 28q30 4 36 12.5t6 33.5v211q0 17 -3 28q-12 5 -28 5h-33v32q24 6 70 6t64 -6v-43q59 53 128 53t88 -60q24 27 43 38q41 22 88 22q96 0 96 -105v-161q0 -31 5 -56h49l3 -30q-36 -8 -66.5 -8t-42.5 2q-22 3 -22 26z" />
    <glyph glyph-name="n" unicode="n" horiz-adv-x="462" 
d="M315 218q0 96 -59 96q-25 0 -54 -17t-47 -40v-178q0 -31 6 -40.5t34 -14.5l2 -28q-38 4 -81.5 4t-75.5 -4l1 28q30 4 36 12t6 33v214q0 17 -3 26q-8 5 -23 5h-38v32q24 6 70 6t64 -6v-42q52 52 129 52q45 0 74.5 -26.5t29.5 -80.5v-159q0 -26 6 -56h48l4 -30
q-34 -8 -65.5 -8t-38.5 1q-27 4 -27 27l2 73v121z" />
    <glyph glyph-name="o" unicode="o" horiz-adv-x="429" 
d="M342.5 40.5q-50.5 -48.5 -127.5 -48.5t-127 48t-50 133t50.5 134t127.5 49t127 -50t50 -133.5t-50.5 -132zM316 174q0 143 -101 143q-78 0 -95 -81q-5 -27 -5 -62q0 -74 24 -109.5t77.5 -35.5t76.5 36.5t23 108.5z" />
    <glyph glyph-name="p" unicode="p" horiz-adv-x="443" 
d="M253 317q-57 0 -105 -48l-3 -171q32 -64 91 -64q95 0 95 141.5t-78 141.5zM9 346q24 6 69.5 6t65.5 -6v-39q47 49 116.5 49t108 -46.5t38.5 -133t-44 -135.5t-105 -49t-113 39v-111q0 -32 6.5 -41t34.5 -13l2 -30q-37 6 -83 6t-75 -6l2 30q28 4 35 11.5t7 33.5v368
q0 19 -3 30q-12 5 -30 5h-32v32z" />
    <glyph glyph-name="q" unicode="q" horiz-adv-x="447" 
d="M302 317v29q24 6 69 6t65 -6v-32h-33q-18 0 -29 -5q-2 -14 -2 -30v-368q0 -27 6.5 -34t34.5 -11l1 -30q-28 6 -74 6t-83 -6l3 30q28 4 34 14t6 42v109q-52 -39 -113.5 -39t-105 48.5t-43.5 135.5t38.5 133.5t107 46.5t118.5 -39zM209 34q53 0 88 37v208q-49 38 -105 38
q-41 0 -59.5 -35.5t-18.5 -106.5q0 -102 52 -131q18 -10 43 -10z" />
    <glyph glyph-name="r" unicode="r" horiz-adv-x="332" 
d="M23 346q24 6 69 6t63 -6v-81q31 48 47 62q33 29 67 29t54 -10l-9 -93h-30l-8 49q-18 2 -28 2t-27 -9t-31 -25q-32 -38 -32 -80v-112q0 -32 6.5 -41t33.5 -13l3 -28q-48 4 -82 4t-76 -4l2 28q30 4 35.5 11t5.5 34v217q0 11 -2 23q-12 5 -23 5h-38v32z" />
    <glyph glyph-name="s" unicode="s" horiz-adv-x="338" 
d="M183 356q69 0 103 -22q0 -12 -5.5 -37.5t-8.5 -45.5l-34 6q-1 15 -1.5 27.5t-1.5 20.5q-21 12 -62 12t-56 -12.5t-15 -35t18.5 -36t50.5 -24.5l34 -12q80 -27 97 -67q6 -14 6 -36q0 -48 -40.5 -75t-99.5 -27t-114 22q-15 6 -23 12l16 87l35 -4q2 -35 6 -65
q28 -15 80.5 -15t67.5 33q5 9 5 24t-15 27.5t-51 26.5l-29 11q-56 21 -75 37t-25.5 31t-6.5 37q0 46 37.5 73t106.5 27z" />
    <glyph glyph-name="t" unicode="t" horiz-adv-x="298" 
d="M180 -4q-99 0 -99 104v205h-68v18q0 8 4 11t12 5l56 7l9 61q3 21 8 31l6 16h45v-108h107v-18q0 -14 -5 -18.5t-18 -4.5h-84v-198q0 -59 28 -69q9 -4 21 -4t27 5q1 11 2.5 22t2.5 22t3 21l44 3l3 -91q-42 -20 -104 -20z" />
    <glyph glyph-name="u" unicode="u" horiz-adv-x="452" 
d="M248 346q24 6 69 6t61 -6v-256q0 -26 6 -56h54v-29q-40 -9 -79 -9t-48.5 6t-9.5 25v11l-27 -18q-42 -28 -101 -28q-98 0 -98 108v178q0 18 -4 32q-12 4 -28 4h-28v32q24 6 69.5 6t61.5 -6v-228q0 -44 7 -58q14 -26 54.5 -26t84.5 28q9 6 9 7q6 33 6 109v100q0 19 -4 32
q-12 4 -28 4h-27v32z" />
    <glyph glyph-name="v" unicode="v" horiz-adv-x="441" 
d="M3 346q18 6 81 6t95 -6l6 -32h-18q-18 0 -27 -5q1 -7 4.5 -14t29 -80t64.5 -163l85 228q3 8 5 15l4 14q-8 5 -26 5h-18l3 32q19 6 73 6t76 -6v-32h-19q-17 0 -30 -5q-12 -14 -56 -123t-54 -131l-27 -58h-37q-17 0 -21.5 3t-7.5 7l-115 273l-7 15q-4 7 -9 14q-12 5 -30 5
h-19z" />
    <glyph glyph-name="w" unicode="w" horiz-adv-x="638" 
d="M1 346q17 6 78 6t95 -6l5 -32h-18q-18 0 -27 -5l86 -260l37 115q8 23 15.5 47.5t21 64.5t18.5 60h19q29 0 34 -11l91 -280l66 235q2 8 2 15t4 14q-8 5 -24 5h-19l4 32q20 6 72.5 6t76.5 -6v-32h-18q-18 0 -31 -5q-12 -33 -24 -66.5t-23.5 -65t-21.5 -60t-18.5 -52
t-15 -41t-9.5 -27.5h-39q-28 0 -36 17q-2 6 -4 14l-72 210q-22 -66 -85 -241h-39q-31 0 -36 15l-96 268q-6 17 -15 29q-13 5 -31 5h-18z" />
    <glyph glyph-name="x" unicode="x" horiz-adv-x="415" 
d="M297 309q-7 5 -23 5h-18l8 32q22 6 77 6t71 -6l-11 -32h-15q-17 0 -32 -5l-41 -51q-8 -10 -17 -20t-17 -19.5t-15 -18t-12 -13.5l78 -113q17 -25 30 -34.5t36 -12.5l13 -31q-18 3 -37 3l-51 1q-52 0 -76 -4l-3 28q29 4 29 14q0 7 -21 36l-50 72l-46 -65
q-24 -32 -24 -42.5t24 -14.5l-11 -28q-16 4 -65 4l-44 -1q-10 0 -18 -1.5t-12 -1.5l11 28q35 4 45.5 11.5t17.5 16.5t18 22l81 98l-78 108q-12 16 -27 29q-15 5 -32 5h-11l-9 32q16 6 82 6t98 -6l5 -32h-18q-17 0 -25 -5q4 -7 10 -14t11 -15l47 -65q36 46 67 94z" />
    <glyph glyph-name="y" unicode="y" horiz-adv-x="441" 
d="M166 313q-21 0 -28 -5q0 -5 20.5 -55t29.5 -74l49 -122l88 223q2 8 4.5 15t4.5 14q-8 5 -27 5h-19l5 32q19 6 72.5 6t75.5 -6v-32h-18q-29 0 -33 -8q-1 -2 -3.5 -8t-7.5 -16t-11 -27l-140 -321q-36 -80 -92 -94q-19 -4 -48.5 -4t-44.5 10l8 46q23 -9 44.5 -9t33 3
t27 18.5t41.5 80.5l-124 294q-4 8 -7.5 15.5t-8.5 13.5q-13 5 -30 5h-19l-5 32q21 7 84.5 7t91.5 -7l6 -32h-19z" />
    <glyph glyph-name="z" unicode="z" horiz-adv-x="366" 
d="M36 347l48 -1h158q55 0 60 -1t11 -5t6 -20v-26l-220 -259h135q32 0 45 8l14 51q8 1 16.5 0.5t16.5 -0.5l2 -56v-42q-40 4 -74 4h-209q-9 0 -12.5 5t-3.5 22v20l224 264h-122q-32 0 -46 -8l-14 -51q-8 -1 -16 -1h-16l-3 65v31z" />
    <glyph glyph-name="braceleft" unicode="{" horiz-adv-x="234" 
d="M132 520q17 4 43 4t26 -18v-6q-44 -2 -54.5 -11.5t-12.5 -20.5t-2 -27v-137q0 -67 -46 -81q46 -15 46 -82v-135q0 -29 6 -37q16 -19 63 -23v-6q0 -10 -4 -14q-6 -1 -13.5 -2.5t-22.5 -1.5q-40 0 -61.5 18t-21.5 66v140q0 55 -44 70v19q24 12 34 26.5t10 38.5v143
q0 66 54 77z" />
    <glyph glyph-name="bar" unicode="|" horiz-adv-x="390" 
d="M195 534q19 0 25 -15v-602h-24q-14 0 -22 4q-3 39 -3 57v556h24z" />
    <glyph glyph-name="braceright" unicode="}" horiz-adv-x="234" 
d="M34 506q0 18 27 18q54 0 74.5 -18.5t20.5 -71.5v-125q0 -27 8.5 -40t35.5 -24v-29q-40 -13 -43 -58q-1 -15 -1 -34v-118q0 -69 -54 -80q-17 -4 -42.5 -4t-25.5 18v6q42 2 53 11.5t13.5 20.5t2.5 28v114q0 45 7 62q11 31 38 41q-45 13 -45 86v124q0 44 -12.5 53.5
t-56.5 13.5v6z" />
    <glyph glyph-name="asciitilde" unicode="~" horiz-adv-x="403" 
d="M276 180q44 0 68 36q18 -22 21 -34q-11 -36 -57 -47q-12 -3 -25.5 -3t-26.5 4q-35 8 -68.5 25t-65.5 17t-59 -45q-17 17 -25 33q12 38 62 54q13 5 24.5 5t24.5 -3q30 -9 67.5 -25.5t59.5 -16.5z" />
    <glyph glyph-name="uni007F" 
 />
    <glyph glyph-name="uni00A0" unicode="&#xa0;" horiz-adv-x="197" 
 />
    <glyph glyph-name="exclamdown" unicode="&#xa1;" horiz-adv-x="235" 
d="M99.3848 365.498q0 11.2002 1.39941 21q-6.99902 2.80078 -17.4971 2.80078t-14.6982 -3.85059q-4.19922 -3.84961 -4.19922 -15.0498l-8.39844 -155.403q-0.700195 -23.7998 -2.44922 -39.2002q-1.75 -15.4004 -1.75 -19.6006v-7.7002
q11.8984 -9.09961 28.6953 -9.09961q16.7979 0 22.7461 5.59961q5.94922 5.59961 5.94922 12.6006v8.39941zM82.5869 486.6q-8.39844 0 -14.6973 -2.7998q-6.2998 -2.7998 -10.499 -7q-7.69824 -8.40039 -7.69824 -21.7002q0 -13.3008 8.04883 -23.4502
q8.04883 -10.1504 20.2969 -10.1504t20.9961 3.5q8.74902 3.5 12.248 13.6504q3.5 10.1504 3.5 15.75q0 5.60059 -1.75 11.5508q-1.75 5.94922 -5.94922 10.5q-4.19922 4.5498 -10.1484 7.34961t-14.3477 2.7998z" />
    <glyph glyph-name="cent" unicode="&#xa2;" horiz-adv-x="403" 
d="M202 356q-34 -13 -54 -48.5t-20 -94.5q0 -104 74 -135v278zM239 71q56 0 96 46l25 -13q-25 -68 -121 -74v-55h-15q-16 0 -19 5t-3 21v30q-69 7 -108 52t-39 120t39 125q40 49 108 63v61h14q15 0 19 -6q4 -5 4 -19v-30q5 1 8 1h9q58 0 91 -17q8 -4 12 -10q0 -8 -1 -15
l-16 -60l-34 8q-12 26 -28 39t-41 16v-288z" />
    <glyph glyph-name="sterling" unicode="&#xa3;" horiz-adv-x="407" 
d="M185 -2l-135 2q-10 5 -13 12t-3 19q46 14 65.5 35t19.5 59q0 57 -5 109h-70v17q0 13 4 16t16 3h45q-10 60 -10 91t6.5 50t17.5 33.5t26 23.5t31.5 14.5t34 7t32.5 1.5q39 0 78.5 -7t51.5 -23q0 -37 2 -75l-42 -7q-15 55 -58 66q-15 4 -35 4q-38 0 -56.5 -23.5
t-18.5 -57.5q1 -33 3 -48l6 -50h112v-17q0 -14 -4.5 -16.5t-16.5 -2.5h-87q3 -32 3 -57q0 -73 -41 -138h91q26 0 44.5 1.5t33.5 8.5q28 13 48 62l27 -11q0 -52 -9 -96q-42 -6 -105 -6h-89z" />
    <glyph glyph-name="currency" unicode="&#xa4;" horiz-adv-x="418" 
d="M119 366q41 31 89.5 31t91.5 -31l44 44q11 -11 17.5 -18.5t6.5 -13.5t-1 -7l-36 -36q30 -39 30 -91t-30 -89l43 -44q-22 -22 -31 -26q-12 4 -43 39q-42 -30 -91 -30q-51 0 -89 30l-44 -44q-22 20 -27 30q4 9 13 17l27 28q-30 38 -30 90t30 90l-44 44q8 7 15.5 15t15.5 11
q10 -5 16 -12zM134.5 167q31.5 -31 76.5 -31t75.5 31.5t30.5 77.5t-30.5 77.5t-76.5 31.5q-45 0 -76 -31.5t-31 -78t31.5 -77.5z" />
    <glyph glyph-name="yen" unicode="&#xa5;" horiz-adv-x="543" 
d="M284 220q102 180 110 221q-8 3 -33 3h-24l7 35q34 4 81.5 4t72.5 -0.5t42 -4.5l-13 -34h-27q-25 0 -37 -3q-15 -20 -24 -40l-6 -12q-27 -52 -73 -124l-39 -65h77v-13q0 -14 -5 -17t-18 -3h-70v-37h93v-13q0 -13 -5 -17t-19 -3h-69v-13q0 -24 5 -42q10 -3 34 -3h30v-45
q-99 12 -211 0v45h29q24 0 35 3q5 15 5 41v14h-89v22q9 11 33 11h56v34l-2 3h-87v22q10 11 35 11h34l-118 201q-8 13 -12 22.5t-10 17.5q-10 3 -36 3h-25l-7 35q32 4 81 4t77 -0.5t52 -4.5l4 -34h-24q-25 0 -33 -3q0 -9 13 -31z" />
    <glyph glyph-name="brokenbar" unicode="&#xa6;" horiz-adv-x="184" 
d="M89 514q21 0 26 -16v-253h-20q-17 1 -21 7t-4 23v239h19zM89 118q21 0 26 -15v-253h-20q-17 0 -21 6t-4 24v238h19z" />
    <glyph glyph-name="section" unicode="&#xa7;" horiz-adv-x="355" 
d="M268 140q47 -28 47 -82q0 -50 -37 -77t-97 -27q-30 0 -71 11.5t-55 26.5q0 42 2 70l32 4q13 -40 35.5 -56t67.5 -16t60 30q5 10 5.5 23t-7.5 23t-22.5 18.5t-34 17.5t-41.5 19q-48 23 -73 49t-25 62t13 56t42 34q-44 32 -44 80t35 75t105.5 27t92.5 -25l-12 -69l-31 6
q-10 28 -21 36q-17 13 -48 13t-47.5 -13t-16.5 -36t16.5 -38.5t56.5 -32.5q77 -33 101.5 -57t24.5 -62q0 -64 -53 -90zM225 162q41 21 41 55q0 31 -73 66q-21 10 -45 21q-39 -20 -39 -55q0 -32 39 -51t77 -36z" />
    <glyph glyph-name="dieresis" unicode="&#xa8;" horiz-adv-x="293" 
d="M167 473q0 16 12 27t27 11q14 0 22.5 -8t12 -15t3.5 -15q0 -16 -12 -27t-26 -11q-15 0 -24 8q-15 14 -15 30zM51 473q0 16 12 27t27 11q14 0 22.5 -8t12 -15t3.5 -15q0 -16 -12 -27t-26 -11q-15 0 -24 8q-15 14 -15 30z" />
    <glyph glyph-name="copyright" unicode="&#xa9;" horiz-adv-x="593" 
d="M216 258q0 -131 94 -131q44 -1 80 23l4 -34q-35 -22 -96.5 -22t-100.5 38t-39 106t40 108t103 40t92 -28l-5 -53h-18q-25 50 -72 51q-36 0 -59 -29t-23 -69zM38 242q0 106 76 182t183 76t183 -76q48 -48 67 -114q9 -32 9 -68q0 -70 -34.5 -130t-93.5 -95t-131 -35
q-106 0 -182.5 76.5t-76.5 183.5zM76 242q0 -93 64 -157q30 -30 70.5 -47.5t86.5 -17.5t86.5 17.5t70.5 47.5t48 70q17 41 17 87q0 91 -64.5 156t-157.5 65q-92 0 -156.5 -64.5t-64.5 -156.5z" />
    <glyph glyph-name="ordfeminine" unicode="&#xaa;" horiz-adv-x="265" 
d="M24 330q0 69 115 69h31v19q0 45 -23 53q-7 3 -17 3q-37 0 -68 -43q-27 15 -31 19q0 17 24.5 32t59.5 15q58 0 80.5 -21.5t22.5 -59.5v-98q0 -11 2 -20q9 -3 34 -3v-19q-24 -6 -51.5 -5.5t-31.5 12.5l-1 17q-35 -33 -74 -33q-51 0 -67 36q-5 12 -5 27zM136 374
q-64 0 -63 -42q0 -15 10.5 -23.5t30.5 -8.5t52 20q4 28 4 54h-34z" />
    <glyph glyph-name="guillemotleft" unicode="&#xab;" horiz-adv-x="343" 
d="M295 57q-21 -17 -29 -16.5t-13 4.5l-91 133q1 9 12 27l74 106q4 5 7 7.5t5 5.5h2q5 0 8.5 -1.5t11.5 -4.5l18 -8l-78 -127zM188 46q-21 -16 -28.5 -16t-13.5 4l-101 144q3 14 12 27l84 117q4 5 6 8l6 6q10 0 21 -8l18 -7l-87 -138z" />
    <glyph glyph-name="logicalnot" unicode="&#xac;" horiz-adv-x="420" 
d="M354 85q-21 0 -26 16v129h-283v22q0 18 6 22q7 4 25 4h301v-193h-23z" />
    <glyph glyph-name="uni00AD" unicode="&#xad;" horiz-adv-x="300" 
d="M244 180q0 -18 -16 -22h-171v30q0 13 6 17q7 4 21 4h160v-29z" />
    <glyph glyph-name="registered" unicode="&#xae;" horiz-adv-x="593" 
d="M38 242q0 106 76 182t183 76t183 -76q48 -48 67 -114q9 -32 9 -68q0 -70 -34.5 -130t-93.5 -95t-131 -35q-106 0 -182.5 76.5t-76.5 183.5zM76 242q0 -93 64 -157q30 -30 70.5 -47.5t86.5 -17.5t86.5 17.5t70.5 47.5t48 70q17 41 17 87q0 91 -64.5 156t-157.5 65
q-92 0 -156.5 -64.5t-64.5 -156.5zM233 98q-21 0 -61 -4v26h22q10 0 15 2q3 8 3 24v182q0 13 -3 22q-4 1 -8 1h-33v19q8 1 18.5 3t33.5 4t60 2q69 0 98 -19q29 -18 29 -62q1 -60 -67 -80q31 -10 57 -58l12 -24q4 -6 6.5 -11.5t5.5 -5.5q6 1 27 13l6 -16q-29 -24 -53 -24
t-31 19q-28 66 -61 105q-24 0 -49 1v-71q0 -12 4 -24q6 -2 20 -2h17v-26q-32 4 -68 4zM295 239q62 0 62 57q0 46 -36 54q-13 3 -30 3t-31 -2v-112h35z" />
    <glyph glyph-name="macron" unicode="&#xaf;" horiz-adv-x="197" 
d="M1 476h196v-41h-196v41z" />
    <glyph glyph-name="degree" unicode="&#xb0;" horiz-adv-x="280" 
d="M33 377q0 45 31 76t76 31t76.5 -31.5t31.5 -75.5q0 -45 -32 -76t-76 -31t-75.5 31t-31.5 76zM91 327.5q21 -20.5 49.5 -20.5t49 20.5t20.5 49.5t-20.5 50t-49.5 21t-49.5 -20.5t-20.5 -50t21 -50z" />
    <glyph glyph-name="plusminus" unicode="&#xb1;" horiz-adv-x="420" 
d="M377 251q-1 -21 -17 -26h-126v-125h-23q-17 0 -21 5t-4 22v98h-141v23q0 17 5 21t22 4h114v126h23q17 0 21 -5t4 -22v-99h143v-22zM377 38q-1 -21 -17 -26h-315v22q0 17 5 22q5 4 21 4h306v-22z" />
    <glyph glyph-name="uni00B2" unicode="&#xb2;" horiz-adv-x="298" 
d="M66 192q-15 0 -19 11q0 7 3 17q108 106 128 137t20 56q0 53 -48 53q-24 0 -38 -10q-26 -19 -29 -44l-30 25q6 37 62 51q16 4 36 3q41 0 66 -22t25 -58t-31 -74t-118 -115h81q48 0 64 40l13 -2q-1 -34 -3 -62q-17 -6 -39 -6h-143z" />
    <glyph glyph-name="uni00B3" unicode="&#xb3;" horiz-adv-x="292" 
d="M211 274q0 58 -88 58h-8v12q0 7 2 12h11q24 0 41 11q32 22 32.5 48t-14.5 39.5t-31 13.5q-29 0 -49 -15t-22 -38l-28 23q4 25 29.5 39t51.5 14q48 0 76 -19t28 -54.5t-41 -59.5q-14 -8 -32 -11q83 -11 83 -75q0 -39 -27.5 -62t-77 -23t-79.5 25q-9 7 -12 16l6 46l23 -4
q0 -31 18.5 -44.5t39.5 -13.5q33 0 50.5 17.5t17.5 44.5z" />
    <glyph glyph-name="acute" unicode="&#xb4;" horiz-adv-x="410" 
d="M279 531q-46 -49 -102 -107h-46q14 23 24 40q29 51 40 67h84z" />
    <glyph glyph-name="mu" unicode="&#xb5;" horiz-adv-x="508" 
d="M59 344q43 9 123 9q6 0 7 -5t1 -11v-242q0 -31 9 -43t21 -16q10 -5 28 -5q31 0 59.5 14.5t36.5 23.5q6 36 6 109v101q0 19 -4 33q-10 4 -28 3h-28v29q43 9 124 9q7 0 7 -14v-249q0 -38 7 -56q13 -1 29 -1h24v-28q-38 -8 -70 -8.5t-41 0.5t-14 4q-11 6 -12 26v11
q-38 -25 -53 -32q-57 -27 -101 -6v-40q0 -22 4 -38q11 -8 29 -8v-28q-23 -8 -65 -8t-42 29l2 70v302q0 15 -3 33q-10 4 -28 3h-28v29z" />
    <glyph glyph-name="paragraph" unicode="&#xb6;" horiz-adv-x="404" 
d="M161 200q-134 0 -134 138q0 67 46.5 97t145.5 30h48q80 0 110 -5v-34h-31q-24 0 -34 -4q-6 -15 -6 -40v-360q0 -26 6 -41q13 -4 34 -3h30v-46q-63 6 -117 6v501h-51v-501q-57 0 -117 -6v46h30q26 0 34 3q6 15 6 41v178z" />
    <glyph glyph-name="periodcentered" unicode="&#xb7;" horiz-adv-x="185" 
d="M55 200q0 16 12 27t27 11q14 0 22.5 -8t12 -15t3.5 -15q0 -16 -12 -27t-26 -11q-15 0 -24 8q-15 14 -15 30z" />
    <glyph glyph-name="cedilla" unicode="&#xb8;" horiz-adv-x="232" 
d="M87 -62l-17 7l29 59h33l-19 -36q56 -2 71 -32q5 -11 5 -29q0 -36 -24 -55t-63 -19t-59 14q-2 6 -2 13q0 8 2 18q27 -8 46.5 -8.5t31.5 8.5t12 25q0 31 -34 37z" />
    <glyph glyph-name="uni00B9" unicode="&#xb9;" horiz-adv-x="236" 
d="M140 489q8 0 13 -7v-237q0 -15 2 -25q7 -2 21 -2h19v-28q-34 4 -64 4.5t-62 -4.5v28h23q10 0 15 2q4 12 4 24v201q-9 7 -20 7l-12 -1l-19 -4l-4 19q63 23 84 23z" />
    <glyph glyph-name="ordmasculine" unicode="&#xba;" horiz-adv-x="282" 
d="M259 382q0 -54 -33 -85q-33 -30 -84 -30q-52 0 -85 31q-33 30 -33 84q0 53 33 84t85 31q51 0 84 -31q33 -30 33 -84zM82 382q0 -89 60 -89q31 0 45.5 21.5t14.5 67.5t-14.5 67.5t-45.5 21.5t-45.5 -21.5t-14.5 -67.5z" />
    <glyph glyph-name="guillemotright" unicode="&#xbb;" horiz-adv-x="343" 
d="M95 55q-5 -7 -12 -14q-6 0 -19 6l-19 10l77 126l-73 127l17 8q14 6 20 6q3 -3 6 -5.5t7 -7.5l72 -106q10 -13 12 -27zM203 43q-6 -8 -13 -13q-15 0 -37 16l86 137l-83 138l16 7q10 5 21 8l6 -6q3 -3 6 -8l82 -117q10 -14 13 -27z" />
    <glyph glyph-name="onequarter" unicode="&#xbc;" horiz-adv-x="574" 
d="M118 -8l264 501h18q18 -1 22 -7q-5 -11 -17 -32l-247 -467h-22q-14 0 -18 5zM47 466q63 22 78 22.5t18 -6.5v-237q0 -15 3 -25q7 -2 21 -2h18v-28q-34 4 -63.5 4.5t-62.5 -4.5v28h23q11 0 16 2q4 12 4 24v201q-9 7 -20 7l-12 -1l-20 -4zM515 0q-32 4 -61.5 4t-62.5 -4v28
h25q10 0 14 1q4 9 3 26v27h-127q-8 6 -8 18q1 5 19.5 31.5t41.5 58.5q64 92 78 105h17q12 0 15.5 -3t3.5 -12v-172h57v-11q0 -10 -4 -13q-4 -2 -12 -2h-41v-27q0 -15 3 -26q8 -1 21 -1h18v-28zM433 108v126v10l-93 -129l-3 -7h96z" />
    <glyph glyph-name="onehalf" unicode="&#xbd;" horiz-adv-x="601" 
d="M122 -8q2 6 265 501h18q18 -1 22 -7q-4 -8 -8.5 -15.5t-8.5 -16.5l-247 -467h-22q-15 0 -19 5zM47 466q63 22 78 22.5t18 -6.5v-237q0 -15 3 -25q7 -2 21 -2h18v-28q-34 4 -63.5 4.5t-62.5 -4.5v28h23q11 0 16 2q4 12 4 24v201q-9 7 -20 7l-12 -1l-20 -4zM368 0
q-15 0 -19 10q0 4 1 8t1 9q106 104 132 141q14 21 15.5 33.5t1.5 19.5q0 52 -48 53q-24 0 -38 -10q-26 -18 -30 -45l-29 25q5 39 61 51q16 4 37 4q42 0 66 -22t24 -58t-30.5 -74t-117.5 -116h81q48 0 64 41l13 -3q0 -43 -3 -61q-17 -6 -40 -6h-142z" />
    <glyph glyph-name="threequarters" unicode="&#xbe;" horiz-adv-x="612" 
d="M450 493q18 -1 21 -7q-7 -16 -18 -34l-245 -465h-22q-15 0 -19 5l8.5 17t10.5 19l245 465h19zM564 0q-32 4 -61.5 4t-62.5 -4v28h25q10 0 14 1q4 9 3 26v27h-127q-9 6 -9 18q1 5 20 31.5t42 58.5q59 84 77 105h18q12 0 15.5 -3t3.5 -12v-172h57v-11q0 -10 -3.5 -12.5
t-12.5 -2.5h-41v-27q0 -15 3 -26q8 -1 21 -1h18v-28zM482 108v126v10l-93 -129l-3 -7h96zM78 270q0 -58 66 -58q26 0 43 17t17 45q0 58 -88 58h-8v12q0 7 2 12h11q24 0 41 11q32 22 32.5 54.5t-31.5 42.5q-9 3 -20 4q-23 0 -42 -14.5t-23 -38.5l-28 23q4 25 29.5 39t51.5 14
q49 0 76 -19t27 -54.5t-40 -59.5q-14 -8 -32 -11q83 -11 83 -75q0 -39 -27 -62t-76.5 -23t-80.5 25q-9 7 -12 16l1 8q1 5 2 14t4 24z" />
    <glyph glyph-name="questiondown" unicode="&#xbf;" horiz-adv-x="329" 
d="M222.516 424.009q-25.1953 0 -34.2939 20.9971q-2.09961 6.29883 -2.09961 16.7969t9.09863 18.8975q10.498 9.09863 22.3965 9.09863q6.29883 0 13.9971 -2.7998q19.5967 -8.39844 19.5967 -27.6455t-9.09766 -27.2959q-9.09863 -8.04883 -19.5977 -8.04883z
M204.318 350.521q0 22.3965 -6.99805 41.293h18.1963q18.8975 -11.1982 28.6963 -30.7949q2.79883 -6.29883 2.79883 -16.0977q0 -9.79785 -5.59863 -19.5967q-11.1982 -17.4971 -32.8945 -37.7939q-38.4941 -35.6943 -38.4941 -67.8896q0 -22.3965 11.5479 -36.3945
q11.5479 -13.9971 31.8447 -13.9971q48.9932 0 57.3916 38.4941h32.8945q0 -37.0947 -32.1953 -55.292q-25.1953 -14.6973 -52.4912 -14.6973q-48.293 0 -74.8887 22.3965t-26.5957 61.9404t44.0928 77.3379q27.2959 24.4961 34.9951 33.9443
q7.69824 9.44824 7.69824 17.1475z" />
    <glyph glyph-name="Agrave" unicode="&#xc0;" horiz-adv-x="529" 
d="M138 661h84l63 -107h-47zM251 421l-84 -245h170l-83 245h-3zM167 -5q-24 5 -80 5t-87 -5l10 47h15q18 0 32 4q14 19 19.5 34.5t14 38.5t20.5 53t25.5 65t27.5 69l70 176h31q24 0 40 -6l148 -389q12 -29 20 -41q16 -4 32 -4h15l10 -47q-28 5 -61 5h-47q-43 0 -73 -5l-7 47
h6q18 0 34 4q0 15 -10 39l-23 56h-193l-18 -54q-8 -24 -8 -38q0 -7 25 -7h15z" />
    <glyph glyph-name="Aacute" unicode="&#xc1;" horiz-adv-x="529" 
d="M390 661h-84l-63 -107h47zM251 421l-84 -245h170l-83 245h-3zM167 -5q-24 5 -80 5t-87 -5l10 47h15q18 0 32 4q14 19 19.5 34.5t14 38.5t20.5 53t25.5 65t27.5 69l70 176h31q24 0 40 -6l148 -389q12 -29 20 -41q16 -4 32 -4h15l10 -47q-28 5 -61 5h-47q-43 0 -73 -5
l-7 47h6q18 0 34 4q0 15 -10 39l-23 56h-193l-18 -54q-8 -24 -8 -38q0 -7 25 -7h15z" />
    <glyph glyph-name="Acircumflex" unicode="&#xc2;" horiz-adv-x="529" 
d="M349 559l-89 121l-87 -121h51l36 58l35 -58h54zM251 421l-84 -245h170l-83 245h-3zM167 -5q-24 5 -80 5t-87 -5l10 47h15q18 0 32 4q14 19 19.5 34.5t14 38.5t20.5 53t25.5 65t27.5 69l70 176h31q24 0 40 -6l148 -389q12 -29 20 -41q16 -4 32 -4h15l10 -47q-28 5 -61 5
h-47q-43 0 -73 -5l-7 47h6q18 0 34 4q0 15 -10 39l-23 56h-193l-18 -54q-8 -24 -8 -38q0 -7 25 -7h15z" />
    <glyph glyph-name="Atilde" unicode="&#xc3;" horiz-adv-x="529" 
d="M343 593q42 0 64 34q17 -21 20 -32q-10 -34 -54 -44q-11 -3 -24 -3t-25 4q-33 7 -65 23t-62.5 16t-55.5 -42q-16 16 -24 31q12 36 59 51q12 4 23 4t23 -2q29 -9 64.5 -24.5t56.5 -15.5zM251 421l-84 -245h170l-83 245h-3zM167 -5q-24 5 -80 5t-87 -5l10 47h15q18 0 32 4
q14 19 19.5 34.5t14 38.5t20.5 53t25.5 65t27.5 69l70 176h31q24 0 40 -6l148 -389q12 -29 20 -41q16 -4 32 -4h15l10 -47q-28 5 -61 5h-47q-43 0 -73 -5l-7 47h6q18 0 34 4q0 15 -10 39l-23 56h-193l-18 -54q-8 -24 -8 -38q0 -7 25 -7h15z" />
    <glyph glyph-name="Adieresis" unicode="&#xc4;" horiz-adv-x="529" 
d="M303 577q-4 9 -4 25t13 28.5t33.5 12.5t33 -13.5t12.5 -33.5t-13 -33t-33 -13q-31 0 -42 27zM151 577q-4 9 -4 25t13 28.5t33.5 12.5t33 -13.5t12.5 -33.5t-13 -33t-33 -13q-31 0 -42 27zM251 421l-84 -245h170l-83 245h-3zM167 -5q-24 5 -80 5t-87 -5l10 47h15
q18 0 32 4q14 19 19.5 34.5t14 38.5t20.5 53t25.5 65t27.5 69l70 176h31q24 0 40 -6l148 -389q12 -29 20 -41q16 -4 32 -4h15l10 -47q-28 5 -61 5h-47q-43 0 -73 -5l-7 47h6q18 0 34 4q0 15 -10 39l-23 56h-193l-18 -54q-8 -24 -8 -38q0 -7 25 -7h15z" />
    <glyph glyph-name="Aring" unicode="&#xc5;" horiz-adv-x="529" 
d="M334 617q0 -28 -18 -43q-19 -16 -48 -16q-30 0 -48 16q-19 15 -19 43q0 27 18.5 43t48.5 16q29 0 48 -16q18 -16 18 -43zM234 617q0 -45 34 -45q17 0 25.5 10.5t8.5 34.5q0 23 -8.5 34t-26 11t-25.5 -11t-8 -34zM251 421l-84 -245h170l-83 245h-3zM167 -5q-24 5 -80 5
t-87 -5l10 47h15q18 0 32 4q14 19 19.5 34.5t14 38.5t20.5 53t25.5 65t27.5 69l70 176h31q24 0 40 -6l148 -389q12 -29 20 -41q16 -4 32 -4h15l10 -47q-28 5 -61 5h-47q-43 0 -73 -5l-7 47h6q18 0 34 4q0 15 -10 39l-23 56h-193l-18 -54q-8 -24 -8 -38q0 -7 25 -7h15z" />
    <glyph glyph-name="AE" unicode="&#xc6;" horiz-adv-x="529" 
 />
    <glyph glyph-name="Ccedilla" unicode="&#xc7;" horiz-adv-x="459" 
d="M217 -62l-17 7l29 59h33l-19 -36q56 -2 71 -32q5 -11 5 -29q0 -36 -24 -55t-63 -19t-59 14q-2 6 -2 13q0 8 2 18q27 -8 47 -8q1 -1 2 -1q18 0 29 9q12 9 12 25q0 31 -34 37zM264 489q103 0 166 -35l-9 -94h-40q-17 48 -33 63t-31.5 20t-47.5 5t-62 -16q-87 -46 -87 -188
q0 -159 92 -198q30 -13 67 -13q62 0 154 41l5 -47q-67 -40 -168.5 -40t-166 62.5t-64.5 180.5q0 187 139 242q45 17 86 17z" />
    <glyph glyph-name="Egrave" unicode="&#xc8;" horiz-adv-x="453" 
d="M132 663h84l63 -107h-47zM26 471q59 11 172 11h205l9 -44q1 -8 5 -25t4 -30l-49 -1l-2 16q-2 14 -8 31q-20 10 -86 10l-30 -1l-74 -1v-170h114q24 0 33 17q4 6 8 20h17q0 -64 -4 -118h-21q-11 34 -29 40q-6 2 -15 2h-103v-186h154q38 0 48 12q6 17 10 55h42v-39
q0 -16 -1.5 -33.5t-2.5 -29.5q-34 -10 -68.5 -11t-62.5 -1l-155 5q-72 0 -106 -5v47h30q20 0 34 4q6 13 5 39v308q0 27 -5 39q-6 3 -14 3h-54v36z" />
    <glyph glyph-name="Eacute" unicode="&#xc9;" horiz-adv-x="453" 
d="M340 661h-84l-63 -107h47zM26 471q59 11 172 11h205l9 -44q1 -8 5 -25t4 -30l-49 -1l-2 16q-2 14 -8 31q-20 10 -86 10l-30 -1l-74 -1v-170h114q24 0 33 17q4 6 8 20h17q0 -64 -4 -118h-21q-11 34 -29 40q-6 2 -15 2h-103v-186h154q38 0 48 12q6 17 10 55h42v-39
q0 -16 -1.5 -33.5t-2.5 -29.5q-34 -10 -68.5 -11t-62.5 -1l-155 5q-72 0 -106 -5v47h30q20 0 34 4q6 13 5 39v308q0 27 -5 39q-6 3 -14 3h-54v36z" />
    <glyph glyph-name="Ecircumflex" unicode="&#xca;" horiz-adv-x="453" 
d="M304 559l-89 121l-87 -121h51l36 58l35 -58h54zM26 471q59 11 172 11h205l9 -44q1 -8 5 -25t4 -30l-49 -1l-2 16q-2 14 -8 31q-20 10 -86 10l-30 -1l-74 -1v-170h114q24 0 33 17q4 6 8 20h17q0 -64 -4 -118h-21q-11 34 -29 40q-6 2 -15 2h-103v-186h154q38 0 48 12
q6 17 10 55h42v-39q0 -16 -1.5 -33.5t-2.5 -29.5q-34 -10 -68.5 -11t-62.5 -1l-155 5q-72 0 -106 -5v47h30q20 0 34 4q6 13 5 39v308q0 27 -5 39q-6 3 -14 3h-54v36z" />
    <glyph glyph-name="Edieresis" unicode="&#xcb;" horiz-adv-x="453" 
d="M272 577q-4 9 -4 25t13 28.5t33.5 12.5t33 -13.5t12.5 -33.5t-13 -33t-33 -13q-31 0 -42 27zM120 577q-4 9 -4 25t13 28.5t33.5 12.5t33 -13.5t12.5 -33.5t-13 -33t-33 -13q-31 0 -42 27zM26 471q59 11 172 11h205l9 -44q1 -8 5 -25t4 -30l-49 -1l-2 16q-2 14 -8 31
q-20 10 -86 10l-30 -1l-74 -1v-170h114q24 0 33 17q4 6 8 20h17q0 -64 -4 -118h-21q-11 34 -29 40q-6 2 -15 2h-103v-186h154q38 0 48 12q6 17 10 55h42v-39q0 -16 -1.5 -33.5t-2.5 -29.5q-34 -10 -68.5 -11t-62.5 -1l-155 5q-72 0 -106 -5v47h30q20 0 34 4q6 13 5 39v308
q0 27 -5 39q-6 3 -14 3h-54v36z" />
    <glyph glyph-name="Igrave" unicode="&#xcc;" horiz-adv-x="264" 
d="M6 661h84l63 -107h-47zM239 -5q-32 5 -103.5 5t-108.5 -5v47h29q19 0 35 4q6 15 5 39v313q0 25 -5 38q-11 4 -35 4h-30v36q46 6 114.5 6t98.5 -6v-36h-30q-21 0 -35 -4q-5 -20 -5 -38v-311q0 -21 5 -41q16 -4 35 -4h30v-47z" />
    <glyph glyph-name="Iacute" unicode="&#xcd;" horiz-adv-x="264" 
d="M261 661h-84l-63 -107h47zM239 -5q-32 5 -103.5 5t-108.5 -5v47h29q19 0 35 4q6 15 5 39v313q0 25 -5 38q-11 4 -35 4h-30v36q46 6 114.5 6t98.5 -6v-36h-30q-21 0 -35 -4q-5 -20 -5 -38v-311q0 -21 5 -41q16 -4 35 -4h30v-47z" />
    <glyph glyph-name="Icircumflex" unicode="&#xce;" horiz-adv-x="264" 
d="M219 559l-89 121l-87 -121h51l36 58l35 -58h54zM239 -5q-32 5 -103.5 5t-108.5 -5v47h29q19 0 35 4q6 15 5 39v313q0 25 -5 38q-11 4 -35 4h-30v36q46 6 114.5 6t98.5 -6v-36h-30q-21 0 -35 -4q-5 -20 -5 -38v-311q0 -21 5 -41q16 -4 35 -4h30v-47z" />
    <glyph glyph-name="Idieresis" unicode="&#xcf;" horiz-adv-x="264" 
d="M168 577q-4 9 -4 25t13 28.5t33.5 12.5t33 -13.5t12.5 -33.5t-13 -33t-33 -13q-31 0 -42 27zM16 577q-4 9 -4 25t13 28.5t33.5 12.5t33 -13.5t12.5 -33.5t-13 -33t-33 -13q-31 0 -42 27zM239 -5q-32 5 -103.5 5t-108.5 -5v47h29q19 0 35 4q6 15 5 39v313q0 25 -5 38
q-11 4 -35 4h-30v36q46 6 114.5 6t98.5 -6v-36h-30q-21 0 -35 -4q-5 -20 -5 -38v-311q0 -21 5 -41q16 -4 35 -4h30v-47z" />
    <glyph glyph-name="Eth" unicode="&#xd0;" horiz-adv-x="729" 
d="M669 364q0 -175 -96 -269.5t-278 -94.5h-191v314h-74v78h74v322h213q167 0 259.5 -92t92.5 -258zM574 361q0 137 -68 206.5t-202 69.5h-110v-245h178v-78h-178v-237h90q290 0 290 284z" />
    <glyph glyph-name="Ntilde" unicode="&#xd1;" horiz-adv-x="557" 
d="M343 603q42 0 64 34q17 -21 20 -32q-10 -34 -54 -44q-11 -3 -24 -3t-25 4q-33 7 -65 23t-62.5 16t-55.5 -42q-16 16 -24 31q12 36 59 51q12 4 23 4t23 -2q29 -9 64.5 -24.5t56.5 -15.5zM228 -5q-30 5 -94.5 5t-99.5 -5v47h30q20 0 34 4q6 13 6 39l-1 311q0 27 -5 40
q-11 4 -35 4h-37v36q78 6 104 6t48 -5q157 -243 243 -388l-5 269v38q0 27 -5 40q-16 4 -35 4h-34v36q44 6 107.5 6t88.5 -6v-36h-26q-21 0 -35 -4q-5 -13 -5 -49.5t-1 -88t-2 -104.5t-3 -104t-3 -95h-35q-16 0 -30 7l-244 387q4 -76 4 -191t1.5 -129.5t4.5 -22.5
q16 -4 34 -4h30v-47z" />
    <glyph glyph-name="Ograve" unicode="&#xd2;" horiz-adv-x="524" 
d="M132 663h84l63 -107h-47zM119 238q0 -209 143 -209t143 210q0 104 -37 157q-38 52 -106 52q-103 0 -133 -118q-10 -39 -10 -92zM486 239.5q0 -116.5 -60 -184.5t-163.5 -68t-164 68t-60.5 184.5t60.5 183t163.5 66.5t163.5 -66.5t60.5 -183z" />
    <glyph glyph-name="Oacute" unicode="&#xd3;" horiz-adv-x="524" 
d="M390 661h-84l-63 -107h47zM119 238q0 -209 143 -209t143 210q0 104 -37 157q-38 52 -106 52q-103 0 -133 -118q-10 -39 -10 -92zM486 239.5q0 -116.5 -60 -184.5t-163.5 -68t-164 68t-60.5 184.5t60.5 183t163.5 66.5t163.5 -66.5t60.5 -183z" />
    <glyph glyph-name="Ocircumflex" unicode="&#xd4;" horiz-adv-x="524" 
d="M349 559l-89 121l-87 -121h51l36 58l35 -58h54zM119 238q0 -209 143 -209t143 210q0 104 -37 157q-38 52 -106 52q-103 0 -133 -118q-10 -39 -10 -92zM486 239.5q0 -116.5 -60 -184.5t-163.5 -68t-164 68t-60.5 184.5t60.5 183t163.5 66.5t163.5 -66.5t60.5 -183z" />
    <glyph glyph-name="Otilde" unicode="&#xd5;" horiz-adv-x="524" 
d="M333 603q42 0 64 34q17 -21 20 -32q-10 -34 -54 -44q-11 -3 -24 -3t-25 4q-33 7 -65 23t-62.5 16t-55.5 -42q-16 16 -24 31q12 36 59 51q12 4 23 4t23 -2q29 -9 64.5 -24.5t56.5 -15.5zM119 238q0 -209 143 -209t143 210q0 104 -37 157q-38 52 -106 52q-103 0 -133 -118
q-10 -39 -10 -92zM486 239.5q0 -116.5 -60 -184.5t-163.5 -68t-164 68t-60.5 184.5t60.5 183t163.5 66.5t163.5 -66.5t60.5 -183z" />
    <glyph glyph-name="Odieresis" unicode="&#xd6;" horiz-adv-x="524" 
d="M300 577q-4 9 -4 25t13 28.5t33.5 12.5t33 -13.5t12.5 -33.5t-13 -33t-33 -13q-31 0 -42 27zM148 577q-4 9 -4 25t13 28.5t33.5 12.5t33 -13.5t12.5 -33.5t-13 -33t-33 -13q-31 0 -42 27zM119 238q0 -209 143 -209t143 210q0 104 -37 157q-38 52 -106 52
q-103 0 -133 -118q-10 -39 -10 -92zM486 239.5q0 -116.5 -60 -184.5t-163.5 -68t-164 68t-60.5 184.5t60.5 183t163.5 66.5t163.5 -66.5t60.5 -183z" />
    <glyph glyph-name="multiply" unicode="&#xd7;" horiz-adv-x="411" 
d="M328 375q21 -21 27 -31q-3 -6 -14 -18l-104 -104l121 -122l-14 -15q-14 -14 -21 -11q-6 3 -14 13l-103 103l-121 -121q-15 15 -21 20.5t-7 9.5q4 9 13 19l104 104l-121 121q12 12 18.5 17.5t12.5 5.5h7q1 0 3 -1l112 -112z" />
    <glyph glyph-name="Oslash" unicode="&#xd8;" horiz-adv-x="780" 
d="M720 358q0 -171 -86.5 -269.5t-242.5 -98.5q-113 0 -185 47l-48 -68l-61 40l52 74q-88 97 -88 276q0 174 85.5 270t245.5 96q100 0 178 -45l46 66l61 -41l-51 -71q94 -99 94 -276zM625 358q0 129 -51 202l-320 -454q56 -38 137 -38q115 0 174.5 73t59.5 217zM156 358
q0 -126 47 -198l319 451q-53 35 -130 35q-116 0 -176 -73.5t-60 -214.5z" />
    <glyph glyph-name="Ugrave" unicode="&#xd9;" horiz-adv-x="537" 
d="M172 663h84l63 -107h-47zM330 477q37 5 102.5 5t95.5 -6v-36h-31q-21 0 -35 -4q-5 -13 -5 -40v-223q0 -88 -52.5 -137t-138.5 -49q-186 0 -186 209v200q0 27 -5 40q-11 4 -34 4h-31v37q38 5 111 5t103 -6v-36h-31q-19 0 -35 -4q-5 -14 -4 -40v-228q0 -103 72 -130
q22 -9 50 -9q64 0 94 40t30 124v203q0 27 -5 40q-11 4 -35 4h-30v37z" />
    <glyph glyph-name="Uacute" unicode="&#xda;" horiz-adv-x="537" 
d="M390 661h-84l-63 -107h47zM330 477q37 5 102.5 5t95.5 -6v-36h-31q-21 0 -35 -4q-5 -13 -5 -40v-223q0 -88 -52.5 -137t-138.5 -49q-186 0 -186 209v200q0 27 -5 40q-11 4 -34 4h-31v37q38 5 111 5t103 -6v-36h-31q-19 0 -35 -4q-5 -14 -4 -40v-228q0 -103 72 -130
q22 -9 50 -9q64 0 94 40t30 124v203q0 27 -5 40q-11 4 -35 4h-30v37z" />
    <glyph glyph-name="Ucircumflex" unicode="&#xdb;" horiz-adv-x="537" 
d="M364 559l-89 121l-87 -121h51l36 58l35 -58h54zM330 477q37 5 102.5 5t95.5 -6v-36h-31q-21 0 -35 -4q-5 -13 -5 -40v-223q0 -88 -52.5 -137t-138.5 -49q-186 0 -186 209v200q0 27 -5 40q-11 4 -34 4h-31v37q38 5 111 5t103 -6v-36h-31q-19 0 -35 -4q-5 -14 -4 -40v-228
q0 -103 72 -130q22 -9 50 -9q64 0 94 40t30 124v203q0 27 -5 40q-11 4 -35 4h-30v37z" />
    <glyph glyph-name="Udieresis" unicode="&#xdc;" horiz-adv-x="537" 
d="M313 577q-4 9 -4 25t13 28.5t33.5 12.5t33 -13.5t12.5 -33.5t-13 -33t-33 -13q-31 0 -42 27zM161 577q-4 9 -4 25t13 28.5t33.5 12.5t33 -13.5t12.5 -33.5t-13 -33t-33 -13q-31 0 -42 27zM330 477q37 5 102.5 5t95.5 -6v-36h-31q-21 0 -35 -4q-5 -13 -5 -40v-223
q0 -88 -52.5 -137t-138.5 -49q-186 0 -186 209v200q0 27 -5 40q-11 4 -34 4h-31v37q38 5 111 5t103 -6v-36h-31q-19 0 -35 -4q-5 -14 -4 -40v-228q0 -103 72 -130q22 -9 50 -9q64 0 94 40t30 124v203q0 27 -5 40q-11 4 -35 4h-30v37z" />
    <glyph glyph-name="Yacute" unicode="&#xdd;" horiz-adv-x="565" 
d="M189 440q-21 0 -33 -4q0 -8 5 -17t8 -15l108 -184q24 44 38.5 71t23.5 43.5t26.5 49.5t20.5 52q-8 4 -32 4h-24l8 36q44 6 107 6t89 -6l-13 -36h-29q-18 0 -36 -4q-4 -6 -8 -11t-6 -9t-8.5 -15.5t-16.5 -28.5t-22.5 -38.5t-35 -58.5t-61.5 -102v-86q0 -25 6 -41
q16 -4 33 -4h31v-47q-32 5 -103 5t-109 -5v47h30q18 0 34 4q5 13 7 39v79l-137 232q-8 13 -12.5 22.5t-10.5 17.5q-11 4 -35 4h-26l-10 36q42 6 109 6t102 -6l6 -36h-24zM306 696q-46 -49 -102 -107h-46q14 23 24 40q29 51 40 67h84z" />
    <glyph glyph-name="Thorn" unicode="&#xde;" horiz-adv-x="604" 
d="M554 382q0 -110 -73.5 -168.5t-212.5 -58.5h-81v-155h-90v714h90v-124h96q137 0 204 -51.5t67 -156.5zM187 231h72q108 0 155 34.5t47 111.5q0 70 -44.5 103t-140.5 33h-89v-282z" />
    <glyph glyph-name="germandbls" unicode="&#xdf;" horiz-adv-x="406" 
d="M239 312q63 38 69 55q7 36 -21 61q-27 28 -67 25q-19 0 -36 -8.5t-27 -24.5q-29 -52 -24 -112v-228q0 -19 6 -38q16 -4 33 -3h14v-43l-86 4l-75 -3l-7 -1v43h9q14 -1 28 3q6 17 6 35v189q-12 0 -18 1q-3 0 -11 0.5t-12 0.5q-3 1 -6 6q-3 4 -3 10q0 4 4 6q13 3 26 9
q9 4 20 10q11 73 66 126q25 26 61 38q30 11 63 11q30 0 56 -13q24 -13 39 -35q16 -21 14 -47q-1 -15 -9 -29t-18 -23.5t-20 -17t-16 -11.5l-7 -4q-3 -2 -8 -5.5t-7 -5t-4 -5.5t-2 -9q0 -11 6 -21q8 -11 19 -20q13 -12 35 -32q19 -17 35 -35q12 -14 20 -30q6 -15 5 -30
q0 -25 -11.5 -47t-30.5 -39q-19 -16 -41 -26q-20 -10 -42 -10q-21 -1 -38 10q-18 10 -18 30q0 14 5 27q3 12 16 12q7 0 13 -4q7 -4 13 -9q10 -11 24 -17q8 -6 19 -5q15 0 28 9q15 11 14 29q0 15 -8 27q-9 15 -23 27q-16 15 -39 35q-28 25 -44 40q-13 12 -22 27q-7 12 -7 27
q0 18 12 32q13 15 30 26z" />
    <glyph glyph-name="agrave" unicode="&#xe0;" horiz-adv-x="417" 
d="M132 531h84l63 -107h-47zM106 94q0 -60 67 -60q33 0 80 35q5 45 5 95h-53q-48 0 -73.5 -18t-25.5 -52zM329 90q0 -36 6 -56h53v-28q-38 -13 -109 -10q-18 2 -22.5 13t-4.5 23l-1 6q-51 -46 -108 -46q-77 0 -101 56q-8 18 -8 43q0 111 175 111h49v23q0 50 -11 67
t-23.5 22.5t-40.5 5.5q-52 0 -93 -67l-47 29q4 28 45.5 51t101.5 23q139 0 139 -128v-138z" />
    <glyph glyph-name="aacute" unicode="&#xe1;" horiz-adv-x="417" 
d="M300 531h-84l-63 -107h47zM106 94q0 -60 67 -60q33 0 80 35q5 45 5 95h-53q-48 0 -73.5 -18t-25.5 -52zM329 90q0 -36 6 -56h53v-28q-38 -13 -109 -10q-18 2 -22.5 13t-4.5 23l-1 6q-51 -46 -108 -46q-77 0 -101 56q-8 18 -8 43q0 111 175 111h49v23q0 50 -11 67
t-23.5 22.5t-40.5 5.5q-52 0 -93 -67l-47 29q4 28 45.5 51t101.5 23q139 0 139 -128v-138z" />
    <glyph glyph-name="acircumflex" unicode="&#xe2;" horiz-adv-x="417" 
d="M289 424l-89 121l-87 -121h51l36 58l35 -58h54zM106 94q0 -60 67 -60q33 0 80 35q5 45 5 95h-53q-48 0 -73.5 -18t-25.5 -52zM329 90q0 -36 6 -56h53v-28q-38 -13 -109 -10q-18 2 -22.5 13t-4.5 23l-1 6q-51 -46 -108 -46q-77 0 -101 56q-8 18 -8 43q0 111 175 111h49v23
q0 50 -11 67t-23.5 22.5t-40.5 5.5q-52 0 -93 -67l-47 29q4 28 45.5 51t101.5 23q139 0 139 -128v-138z" />
    <glyph glyph-name="atilde" unicode="&#xe3;" horiz-adv-x="417" 
d="M253 483q42 0 64 34q17 -21 20 -32q-10 -34 -54 -44q-11 -3 -24 -3t-25 4q-33 7 -65 23t-62.5 16t-55.5 -42q-16 16 -24 31q12 36 59 51q12 4 23 4t23 -2q29 -9 64.5 -24.5t56.5 -15.5zM106 94q0 -60 67 -60q33 0 80 35q5 45 5 95h-53q-48 0 -73.5 -18t-25.5 -52zM329 90
q0 -36 6 -56h53v-28q-38 -13 -109 -10q-18 2 -22.5 13t-4.5 23l-1 6q-51 -46 -108 -46q-77 0 -101 56q-8 18 -8 43q0 111 175 111h49v23q0 50 -11 67t-23.5 22.5t-40.5 5.5q-52 0 -93 -67l-47 29q4 28 45.5 51t101.5 23q139 0 139 -128v-138z" />
    <glyph glyph-name="adieresis" unicode="&#xe4;" horiz-adv-x="387" 
d="M204 452q-4 9 -4 25t13 28.5t33.5 12.5t33 -13.5t12.5 -33.5t-13 -33t-33 -13q-31 0 -42 27zM52 452q-4 9 -4 25t13 28.5t33.5 12.5t33 -13.5t12.5 -33.5t-13 -33t-33 -13q-31 0 -42 27zM88 94q0 -60 67 -60q33 0 80 35q5 45 5 95h-53q-48 0 -73.5 -18t-25.5 -52zM311 90
q0 -36 6 -56h53v-28q-38 -13 -109 -10q-18 2 -22.5 13t-4.5 23l-1 6q-51 -46 -108 -46q-77 0 -101 56q-8 18 -8 43q0 111 175 111h49v23q0 50 -11 67t-23.5 22.5t-40.5 5.5q-52 0 -93 -67l-47 29q4 28 45.5 51t101.5 23q139 0 139 -128v-138z" />
    <glyph glyph-name="aring" unicode="&#xe5;" horiz-adv-x="417" 
d="M257 477q0 -28 -18 -43q-19 -16 -48 -16q-30 0 -48 16q-19 15 -19 43q0 27 18.5 43t48.5 16q29 0 48 -16q18 -16 18 -43zM157 477q0 -45 34 -45q17 0 25.5 10.5t8.5 34.5q0 23 -8.5 34t-26 11t-25.5 -11t-8 -34zM106 94q0 -60 67 -60q33 0 80 35q5 45 5 95h-53
q-48 0 -73.5 -18t-25.5 -52zM329 90q0 -36 6 -56h53v-28q-38 -13 -109 -10q-18 2 -22.5 13t-4.5 23l-1 6q-51 -46 -108 -46q-77 0 -101 56q-8 18 -8 43q0 111 175 111h49v23q0 50 -11 67t-23.5 22.5t-40.5 5.5q-52 0 -93 -67l-47 29q4 28 45.5 51t101.5 23q139 0 139 -128
v-138z" />
    <glyph glyph-name="ae" unicode="&#xe6;" horiz-adv-x="613" 
d="M510 202q1 1 1 2v4q0 76 -44 101q-16 9 -38 9q-88 0 -94 -116h175zM336 163q8 -129 120 -129q55 0 90 35l30 -13q-36 -64 -135 -64q-81 0 -129.5 47t-48.5 135q0 128 104 169q32 13 68 13q67 0 107.5 -37t40.5 -92.5t-28 -61.5q-10 -2 -23 -2h-196zM106 94q0 -60 67 -60
q33 0 80 35q5 45 5 95h-53q-48 0 -73.5 -18t-25.5 -52zM329 90q0 -36 6 -56h53v-28q-38 -13 -109 -10q-18 2 -22.5 13t-4.5 23l-1 6q-51 -46 -108 -46q-77 0 -101 56q-8 18 -8 43q0 111 175 111h49v23q0 50 -11 67t-23.5 22.5t-40.5 5.5q-52 0 -93 -67l-47 29q4 28 45.5 51
t101.5 23q139 0 139 -128v-138z" />
    <glyph glyph-name="ccedilla" unicode="&#xe7;" horiz-adv-x="361" 
d="M170 -62l-17 7l29 59h33l-19 -36q56 -2 71 -32q5 -11 5 -29q0 -36 -24 -55t-63 -19t-59 14q-2 6 -2 13q0 8 2 18q27 -8 46.5 -8.5t31.5 8.5t12 25q0 31 -34 37zM304 256q-30 61 -82.5 61t-81.5 -36.5t-29 -85.5q0 -83 32 -122t87 -39t101 28l4 -44q-44 -26 -121.5 -26
t-126.5 47t-49 130q0 131 112 174q33 13 61 13q87 0 124 -33l-6 -67h-25z" />
    <glyph glyph-name="egrave" unicode="&#xe8;" horiz-adv-x="392" 
d="M132 531h84l63 -107h-47zM285 202q1 1 1 2v4q0 76 -44 101q-16 9 -38 9q-88 0 -94 -116h175zM111 163q8 -129 120 -129q55 0 90 35l30 -13q-36 -64 -135 -64q-81 0 -129.5 47t-48.5 135q0 128 104 169q32 13 68 13q67 0 107.5 -37t40.5 -92.5t-28 -61.5q-10 -2 -23 -2
h-196z" />
    <glyph glyph-name="eacute" unicode="&#xe9;" horiz-adv-x="392" 
d="M300 531h-84l-63 -107h47zM285 202q1 1 1 2v4q0 76 -44 101q-16 9 -38 9q-88 0 -94 -116h175zM111 163q8 -129 120 -129q55 0 90 35l30 -13q-36 -64 -135 -64q-81 0 -129.5 47t-48.5 135q0 128 104 169q32 13 68 13q67 0 107.5 -37t40.5 -92.5t-28 -61.5q-10 -2 -23 -2
h-196z" />
    <glyph glyph-name="ecircumflex" unicode="&#xea;" horiz-adv-x="392" 
d="M289 424l-89 121l-87 -121h51l36 58l35 -58h54zM285 202q1 1 1 2v4q0 76 -44 101q-16 9 -38 9q-88 0 -94 -116h175zM111 163q8 -129 120 -129q55 0 90 35l30 -13q-36 -64 -135 -64q-81 0 -129.5 47t-48.5 135q0 128 104 169q32 13 68 13q67 0 107.5 -37t40.5 -92.5
t-28 -61.5q-10 -2 -23 -2h-196z" />
    <glyph glyph-name="edieresis" unicode="&#xeb;" horiz-adv-x="390" 
d="M242 452q-4 9 -4 25t13 28.5t33.5 12.5t33 -13.5t12.5 -33.5t-13 -33t-33 -13q-31 0 -42 27zM90 452q-4 9 -4 25t13 28.5t33.5 12.5t33 -13.5t12.5 -33.5t-13 -33t-33 -13q-31 0 -42 27zM285 202q1 1 1 2v4q0 76 -44 101q-16 9 -38 9q-88 0 -94 -116h175zM111 163
q8 -129 120 -129q55 0 90 35l30 -13q-36 -64 -135 -64q-81 0 -129.5 47t-48.5 135q0 128 104 169q32 13 68 13q67 0 107.5 -37t40.5 -92.5t-28 -61.5q-10 -2 -23 -2h-196z" />
    <glyph glyph-name="igrave" unicode="&#xec;" horiz-adv-x="214" 
d="M-38 531h84l63 -107h-47zM148 90q0 -26 6 -56h48l4 -30q-36 -8 -83.5 -8t-47.5 28l2 70v188q0 15 -2 27q-12 5 -29 5h-33v32q24 6 70.5 6t64.5 -6v-256z" />
    <glyph glyph-name="iacute" unicode="&#xed;" horiz-adv-x="214" 
d="M200 531h-84l-63 -107h47zM148 90q0 -26 6 -56h48l4 -30q-36 -8 -83.5 -8t-47.5 28l2 70v188q0 15 -2 27q-12 5 -29 5h-33v32q24 6 70.5 6t64.5 -6v-256z" />
    <glyph glyph-name="icircumflex" unicode="&#xee;" horiz-adv-x="214" 
d="M189 424l-89 121l-87 -121h51l36 58l35 -58h54zM148 90q0 -26 6 -56h48l4 -30q-36 -8 -83.5 -8t-47.5 28l2 70v188q0 15 -2 27q-12 5 -29 5h-33v32q24 6 70.5 6t64.5 -6v-256z" />
    <glyph glyph-name="idieresis" unicode="&#xef;" horiz-adv-x="214" 
d="M142 452q-4 9 -4 25t13 28.5t33.5 12.5t33 -13.5t12.5 -33.5t-13 -33t-33 -13q-31 0 -42 27zM-10 452q-4 9 -4 25t13 28.5t33.5 12.5t33 -13.5t12.5 -33.5t-13 -33t-33 -13q-31 0 -42 27zM148 90q0 -26 6 -56h48l4 -30q-36 -8 -83.5 -8t-47.5 28l2 70v188q0 15 -2 27
q-12 5 -29 5h-33v32q24 6 70.5 6t64.5 -6v-256z" />
    <glyph glyph-name="eth" unicode="&#xf0;" horiz-adv-x="604" 
d="M551 275q0 -138 -65 -211.5t-185 -73.5q-110 0 -178 66.5t-68 176.5q0 112 63.5 176t171.5 64q110 0 156 -58l4 2q-29 104 -124 191l-130 -75l-38 55l112 64q-42 28 -90 53l36 60q76 -36 126 -72l115 67l38 -54l-99 -57q74 -68 114.5 -164.5t40.5 -209.5zM462 251
q0 70 -43 110.5t-116 40.5q-81 0 -120 -42.5t-39 -129.5q0 -81 41 -124.5t118 -43.5q83 0 121 48.5t38 140.5z" />
    <glyph glyph-name="ntilde" unicode="&#xf1;" horiz-adv-x="462" 
d="M299 483q42 0 64 34q17 -21 20 -32q-10 -34 -54 -44q-11 -3 -24 -3t-25 4q-33 7 -65 23t-62.5 16t-55.5 -42q-16 16 -24 31q12 36 59 51q12 4 23 4t23 -2q29 -9 64.5 -24.5t56.5 -15.5zM315 218q0 96 -59 96q-25 0 -54 -17t-47 -40v-178q0 -31 6 -40.5t34 -14.5l2 -28
q-38 4 -81.5 4t-75.5 -4l1 28q30 4 36 12t6 33v214q0 17 -3 26q-8 5 -23 5h-38v32q24 6 70 6t64 -6v-42q52 52 129 52q45 0 74.5 -26.5t29.5 -80.5v-159q0 -26 6 -56h48l4 -30q-34 -8 -65.5 -8t-38.5 1q-27 4 -27 27l2 73v121z" />
    <glyph glyph-name="ograve" unicode="&#xf2;" horiz-adv-x="429" 
d="M132 531h84l63 -107h-47zM342.5 40.5q-50.5 -48.5 -127.5 -48.5t-127 48t-50 133t50.5 134t127.5 49t127 -50t50 -133.5t-50.5 -132zM316 174q0 143 -101 143q-78 0 -95 -81q-5 -27 -5 -62q0 -74 24 -109.5t77.5 -35.5t76.5 36.5t23 108.5z" />
    <glyph glyph-name="oacute" unicode="&#xf3;" horiz-adv-x="429" 
d="M300 531h-84l-63 -107h47zM342.5 40.5q-50.5 -48.5 -127.5 -48.5t-127 48t-50 133t50.5 134t127.5 49t127 -50t50 -133.5t-50.5 -132zM316 174q0 143 -101 143q-78 0 -95 -81q-5 -27 -5 -62q0 -74 24 -109.5t77.5 -35.5t76.5 36.5t23 108.5z" />
    <glyph glyph-name="ocircumflex" unicode="&#xf4;" horiz-adv-x="429" 
d="M299 424l-89 121l-87 -121h51l36 58l35 -58h54zM342.5 40.5q-50.5 -48.5 -127.5 -48.5t-127 48t-50 133t50.5 134t127.5 49t127 -50t50 -133.5t-50.5 -132zM316 174q0 143 -101 143q-78 0 -95 -81q-5 -27 -5 -62q0 -74 24 -109.5t77.5 -35.5t76.5 36.5t23 108.5z" />
    <glyph glyph-name="otilde" unicode="&#xf5;" horiz-adv-x="429" 
d="M283 483q42 0 64 34q17 -21 20 -32q-10 -34 -54 -44q-11 -3 -24 -3t-25 4q-33 7 -65 23t-62.5 16t-55.5 -42q-16 16 -24 31q12 36 59 51q12 4 23 4t23 -2q29 -9 64.5 -24.5t56.5 -15.5zM342.5 40.5q-50.5 -48.5 -127.5 -48.5t-127 48t-50 133t50.5 134t127.5 49t127 -50
t50 -133.5t-50.5 -132zM316 174q0 143 -101 143q-78 0 -95 -81q-5 -27 -5 -62q0 -74 24 -109.5t77.5 -35.5t76.5 36.5t23 108.5z" />
    <glyph glyph-name="odieresis" unicode="&#xf6;" horiz-adv-x="419" 
d="M252 452q-4 9 -4 25t13 28.5t33.5 12.5t33 -13.5t12.5 -33.5t-13 -33t-33 -13q-31 0 -42 27zM100 452q-4 9 -4 25t13 28.5t33.5 12.5t33 -13.5t12.5 -33.5t-13 -33t-33 -13q-31 0 -42 27zM342.5 40.5q-50.5 -48.5 -127.5 -48.5t-127 48t-50 133t50.5 134t127.5 49
t127 -50t50 -133.5t-50.5 -132zM316 174q0 143 -101 143q-78 0 -95 -81q-5 -27 -5 -62q0 -74 24 -109.5t77.5 -35.5t76.5 36.5t23 108.5z" />
    <glyph glyph-name="divide" unicode="&#xf7;" horiz-adv-x="420" 
d="M379 190q0 -21 -16 -26h-316v23q0 16 5 21t21 5h306v-23zM171.5 69.5q13.5 12.5 32.5 12.5q20 0 33.5 -15t13.5 -36q0 -20 -13.5 -31t-34.5 -11t-33 13t-12 34t13.5 33.5zM251 313q0 -52 -47 -52q-23 0 -34.5 13.5t-11.5 34t13.5 33t33.5 12.5q21 0 33.5 -13t12.5 -28z
" />
    <glyph glyph-name="oslash" unicode="&#xf8;" horiz-adv-x="604" 
d="M551 269q0 -131 -66.5 -205t-183.5 -74q-74 0 -129 33l-40 -56l-58 39l45 62q-64 76 -64 201q0 131 65.5 204t183.5 73q74 0 131 -36l39 56l59 -38l-45 -63q63 -76 63 -196zM146 269q0 -81 24 -128l220 306q-36 25 -88 25q-156 0 -156 -203zM460 269q0 74 -23 123
l-220 -306q34 -23 86 -23q77 0 117 52.5t40 153.5z" />
    <glyph glyph-name="ugrave" unicode="&#xf9;" horiz-adv-x="452" 
d="M82 531h84l63 -107h-47zM248 346q24 6 69 6t61 -6v-256q0 -26 6 -56h54v-29q-40 -9 -79 -9t-48.5 6t-9.5 25v11l-27 -18q-42 -28 -101 -28q-98 0 -98 108v178q0 18 -4 32q-12 4 -28 4h-28v32q24 6 69.5 6t61.5 -6v-228q0 -44 7 -58q14 -26 54.5 -26t84.5 28q9 6 9 7
q6 33 6 109v100q0 19 -4 32q-12 4 -28 4h-27v32z" />
    <glyph glyph-name="uacute" unicode="&#xfa;" horiz-adv-x="452" 
d="M300 531h-84l-63 -107h47zM248 346q24 6 69 6t61 -6v-256q0 -26 6 -56h54v-29q-40 -9 -79 -9t-48.5 6t-9.5 25v11l-27 -18q-42 -28 -101 -28q-98 0 -98 108v178q0 18 -4 32q-12 4 -28 4h-28v32q24 6 69.5 6t61.5 -6v-228q0 -44 7 -58q14 -26 54.5 -26t84.5 28q9 6 9 7
q6 33 6 109v100q0 19 -4 32q-12 4 -28 4h-27v32z" />
    <glyph glyph-name="ucircumflex" unicode="&#xfb;" horiz-adv-x="452" 
d="M289 424l-89 121l-87 -121h51l36 58l35 -58h54zM248 346q24 6 69 6t61 -6v-256q0 -26 6 -56h54v-29q-40 -9 -79 -9t-48.5 6t-9.5 25v11l-27 -18q-42 -28 -101 -28q-98 0 -98 108v178q0 18 -4 32q-12 4 -28 4h-28v32q24 6 69.5 6t61.5 -6v-228q0 -44 7 -58
q14 -26 54.5 -26t84.5 28q9 6 9 7q6 33 6 109v100q0 19 -4 32q-12 4 -28 4h-27v32z" />
    <glyph glyph-name="udieresis" unicode="&#xfc;" horiz-adv-x="452" 
d="M242 452q-4 9 -4 25t13 28.5t33.5 12.5t33 -13.5t12.5 -33.5t-13 -33t-33 -13q-31 0 -42 27zM90 452q-4 9 -4 25t13 28.5t33.5 12.5t33 -13.5t12.5 -33.5t-13 -33t-33 -13q-31 0 -42 27zM248 346q24 6 69 6t61 -6v-256q0 -26 6 -56h54v-29q-40 -9 -79 -9t-48.5 6t-9.5 25
v11l-27 -18q-42 -28 -101 -28q-98 0 -98 108v178q0 18 -4 32q-12 4 -28 4h-28v32q24 6 69.5 6t61.5 -6v-228q0 -44 7 -58q14 -26 54.5 -26t84.5 28q9 6 9 7q6 33 6 109v100q0 19 -4 32q-12 4 -28 4h-27v32z" />
    <glyph glyph-name="yacute" unicode="&#xfd;" horiz-adv-x="509" 
d="M166 313q-21 0 -28 -5q0 -5 20.5 -55t29.5 -74l49 -122l88 223q2 8 4.5 15t4.5 14q-8 5 -27 5h-19l5 32q19 6 72.5 6t75.5 -6v-32h-18q-29 0 -33 -8q-1 -2 -3.5 -8t-7.5 -16t-11 -27l-140 -321q-36 -80 -92 -94q-19 -4 -48.5 -4t-44.5 10l8 46q23 -9 44.5 -9t33 3
t27 18.5t41.5 80.5l-124 294q-4 8 -7.5 15.5t-8.5 13.5q-13 5 -30 5h-19l-5 32q21 7 84.5 7t91.5 -7l6 -32h-19zM290 531q-46 -49 -102 -107h-46q14 23 24 40q29 51 40 67h84z" />
    <glyph glyph-name="thorn" unicode="&#xfe;" horiz-adv-x="615" 
d="M174 464q33 44 73.5 63t92.5 19q104 0 162 -73t58 -204t-58 -205t-162 -74q-108 0 -167 78h-6q6 -64 6 -84v-224h-88v1000h88v-224q0 -34 -3 -72h4zM325 472q-79 0 -115 -43.5t-37 -140.5v-19q0 -109 36 -157.5t117 -48.5q143 0 143 207q0 102 -35 152t-109 50z" />
    <glyph glyph-name="ydieresis" unicode="&#xff;" horiz-adv-x="441" 
d="M268 452q-4 9 -4 25t13 28.5t33.5 12.5t33 -13.5t12.5 -33.5t-13 -33t-33 -13q-31 0 -42 27zM116 452q-4 9 -4 25t13 28.5t33.5 12.5t33 -13.5t12.5 -33.5t-13 -33t-33 -13q-31 0 -42 27zM166 313q-21 0 -28 -5q0 -5 20.5 -55t29.5 -74l49 -122l88 223q2 8 4.5 15t4.5 14
q-8 5 -27 5h-19l5 32q19 6 72.5 6t75.5 -6v-32h-18q-29 0 -33 -8q-1 -2 -3.5 -8t-7.5 -16t-11 -27l-140 -321q-36 -80 -92 -94q-19 -4 -48.5 -4t-44.5 10l8 46q23 -9 44.5 -9t33 3t27 18.5t41.5 80.5l-124 294q-4 8 -7.5 15.5t-8.5 13.5q-13 5 -30 5h-19l-5 32q21 7 84.5 7
t91.5 -7l6 -32h-19z" />
    <glyph glyph-name="Amacron" unicode="&#x100;" horiz-adv-x="639" 
d="M178 842h297v-71h-297v71zM251 421l-84 -245h170l-83 245h-3zM167 -5q-24 5 -80 5t-87 -5l10 47h15q18 0 32 4q14 19 19.5 34.5t14 38.5t20.5 53t25.5 65t27.5 69l70 176h31q24 0 40 -6l148 -389q12 -29 20 -41q16 -4 32 -4h15l10 -47q-28 5 -61 5h-47q-43 0 -73 -5
l-7 47h6q18 0 34 4q0 15 -10 39l-23 56h-193l-18 -54q-8 -24 -8 -38q0 -7 25 -7h15z" />
    <glyph glyph-name="amacron" unicode="&#x101;" horiz-adv-x="561" 
d="M143 677h297v-71h-297v71zM106 94q0 -60 67 -60q33 0 80 35q5 45 5 95h-53q-48 0 -73.5 -18t-25.5 -52zM329 90q0 -36 6 -56h53v-28q-31 -11 -84 -11q-12 0 -25 1q-18 2 -22.5 13t-4.5 23l-1 6q-51 -46 -108 -46q-77 0 -101 56q-8 18 -8 43q0 111 175 111h49v23
q0 50 -11 67t-23.5 22.5t-40.5 5.5q-52 0 -93 -67l-47 29q4 28 45.5 51t101.5 23q139 0 139 -128v-138z" />
    <glyph glyph-name="Abreve" unicode="&#x102;" horiz-adv-x="639" 
d="M316 771q-69 0 -108.5 33.5t-44.5 100.5h54q4 -35 24.5 -49t76.5 -14q49 0 73 15.5t28 47.5h55q-6 -64 -48 -99t-110 -35zM251 421l-84 -245h170l-83 245h-3zM167 -5q-24 5 -80 5t-87 -5l10 47h15q18 0 32 4q14 19 19.5 34.5t14 38.5t20.5 53t25.5 65t27.5 69l70 176h31
q24 0 40 -6l148 -389q12 -29 20 -41q16 -4 32 -4h15l10 -47q-28 5 -61 5h-47q-43 0 -73 -5l-7 47h6q18 0 34 4q0 15 -10 39l-23 56h-193l-18 -54q-8 -24 -8 -38q0 -7 25 -7h15z" />
    <glyph glyph-name="abreve" unicode="&#x103;" horiz-adv-x="561" 
d="M281 606q-69 0 -108.5 33.5t-44.5 100.5h54q4 -35 24.5 -49t76.5 -14q49 0 73 15.5t28 47.5h55q-6 -64 -48 -99t-110 -35zM106 94q0 -60 67 -60q33 0 80 35q5 45 5 95h-53q-48 0 -73.5 -18t-25.5 -52zM329 90q0 -36 6 -56h53v-28q-31 -11 -84 -11q-12 0 -25 1
q-18 2 -22.5 13t-4.5 23l-1 6q-51 -46 -108 -46q-77 0 -101 56q-8 18 -8 43q0 111 175 111h49v23q0 50 -11 67t-23.5 22.5t-40.5 5.5q-52 0 -93 -67l-47 29q4 28 45.5 51t101.5 23q139 0 139 -128v-138z" />
    <glyph glyph-name="Aogonek" unicode="&#x104;" horiz-adv-x="639" 
d="M540 -116q0 -22 12 -33.5t33 -11.5t48 6v-56q-34 -9 -62 -9q-103 0 -103 94q0 68 78 126h62q-34 -32 -51 -58.5t-17 -57.5zM251 421l-84 -245h170l-83 245h-3zM167 -5q-24 5 -80 5t-87 -5l10 47h15q18 0 32 4q14 19 19.5 34.5t14 38.5t20.5 53t25.5 65t27.5 69l70 176h31
q24 0 40 -6l148 -389q12 -29 20 -41q16 -4 32 -4h15l10 -47q-28 5 -61 5h-47q-43 0 -73 -5l-7 47h6q18 0 34 4q0 15 -10 39l-23 56h-193l-18 -54q-8 -24 -8 -38q0 -7 25 -7h15z" />
    <glyph glyph-name="aogonek" unicode="&#x105;" horiz-adv-x="561" 
d="M410 -116q0 -22 12 -33.5t33 -11.5t48 6v-56q-34 -9 -62 -9q-103 0 -103 94q0 68 78 126h62q-34 -32 -51 -58.5t-17 -57.5zM106 94q0 -60 67 -60q33 0 80 35q5 45 5 95h-53q-48 0 -73.5 -18t-25.5 -52zM329 90q0 -36 6 -56h53v-28q-31 -11 -84 -11q-12 0 -25 1
q-18 2 -22.5 13t-4.5 23l-1 6q-51 -46 -108 -46q-77 0 -101 56q-8 18 -8 43q0 111 175 111h49v23q0 50 -11 67t-23.5 22.5t-40.5 5.5q-52 0 -93 -67l-47 29q4 28 45.5 51t101.5 23q139 0 139 -128v-138z" />
    <glyph glyph-name="Cacute" unicode="&#x106;" horiz-adv-x="631" 
d="M264 489q103 0 166 -35l-9 -94h-40q-17 48 -33 63t-31.5 20t-47.5 5t-62 -16q-87 -46 -87 -188q0 -159 92 -198q30 -13 67 -13q62 0 154 41l5 -47q-67 -40 -168.5 -40t-166 62.5t-64.5 180.5q0 187 139 242q45 17 86 17zM408 696q-46 -49 -102 -107h-46q14 23 24 40
q29 51 40 67h84z" />
    <glyph glyph-name="cacute" unicode="&#x107;" horiz-adv-x="479" 
d="M304 256q-30 61 -82.5 61t-81.5 -36.5t-29 -85.5q0 -83 32 -122t87 -39t101 28l4 -44q-44 -26 -121.5 -26t-126.5 47t-49 130q0 131 112 174q33 13 61 13q87 0 124 -33l-6 -67h-25zM314 531q-46 -49 -102 -107h-46q14 23 24 40q29 51 40 67h84z" />
    <glyph glyph-name="Ccircumflex" unicode="&#x108;" horiz-adv-x="631" 
d="M220 782q61 65 86 96.5t37 52.5h90q25 -49 125 -149v-11h-62q-44 26 -109 90q-64 -62 -107 -90h-60v11zM264 489q103 0 166 -35l-9 -94h-40q-17 48 -33 63t-31.5 20t-47.5 5t-62 -16q-87 -46 -87 -188q0 -159 92 -198q30 -13 67 -13q62 0 154 41l5 -47
q-67 -40 -168.5 -40t-166 62.5t-64.5 180.5q0 187 139 242q45 17 86 17z" />
    <glyph glyph-name="ccircumflex" unicode="&#x109;" horiz-adv-x="479" 
d="M118 617q61 65 86 96.5t37 52.5h90q25 -49 125 -149v-11h-62q-44 26 -109 90q-64 -62 -107 -90h-60v11zM304 256q-30 61 -82.5 61t-81.5 -36.5t-29 -85.5q0 -83 32 -122t87 -39t101 28l4 -44q-44 -26 -121.5 -26t-126.5 47t-49 130q0 131 112 174q33 13 61 13
q87 0 124 -33l-6 -67h-25z" />
    <glyph glyph-name="Cdotaccent" unicode="&#x10a;" horiz-adv-x="631" 
d="M337 846q0 29 15 42.5t37 13.5q21 0 36 -13.5t15 -42.5t-15.5 -42.5t-35.5 -13.5q-22 0 -37 13.5t-15 42.5zM264 489q103 0 166 -35l-9 -94h-40q-17 48 -33 63t-31.5 20t-47.5 5t-62 -16q-87 -46 -87 -188q0 -159 92 -198q30 -13 67 -13q62 0 154 41l5 -47
q-67 -40 -168.5 -40t-166 62.5t-64.5 180.5q0 187 139 242q45 17 86 17z" />
    <glyph glyph-name="cdotaccent" unicode="&#x10b;" horiz-adv-x="479" 
d="M241 681q0 29 15 42.5t37 13.5q21 0 36 -13.5t15 -42.5t-15.5 -42.5t-35.5 -13.5q-22 0 -37 13.5t-15 42.5zM304 256q-30 61 -82.5 61t-81.5 -36.5t-29 -85.5q0 -83 32 -122t87 -39t101 28l4 -44q-44 -26 -121.5 -26t-126.5 47t-49 130q0 131 112 174q33 13 61 13
q87 0 124 -33l-6 -67h-25z" />
    <glyph glyph-name="Ccaron" unicode="&#x10c;" horiz-adv-x="631" 
d="M220 931h60q56 -36 107 -92q62 62 109 92h62v-13q-100 -100 -125 -147h-90q-29 50 -123 147v13zM264 489q103 0 166 -35l-9 -94h-40q-17 48 -33 63t-31.5 20t-47.5 5t-62 -16q-87 -46 -87 -188q0 -159 92 -198q30 -13 67 -13q62 0 154 41l5 -47q-67 -40 -168.5 -40
t-166 62.5t-64.5 180.5q0 187 139 242q45 17 86 17z" />
    <glyph glyph-name="ccaron" unicode="&#x10d;" horiz-adv-x="479" 
d="M122 766h60q56 -36 107 -92q62 62 109 92h62v-13q-100 -100 -125 -147h-90q-29 50 -123 147v13zM304 256q-30 61 -82.5 61t-81.5 -36.5t-29 -85.5q0 -83 32 -122t87 -39t101 28l4 -44q-44 -26 -121.5 -26t-126.5 47t-49 130q0 131 112 174q33 13 61 13q87 0 124 -33
l-6 -67h-25z" />
    <glyph glyph-name="Dcaron" unicode="&#x10e;" horiz-adv-x="729" 
d="M170 931h60q56 -36 107 -92q62 62 109 92h62v-13q-100 -100 -125 -147h-90q-29 50 -123 147v13zM26 475q84 11 177 11t124 -4.5t58 -15.5q118 -51 118 -228q0 -156 -105 -205q-58 -27 -162 -31q-47 -2 -93.5 -2t-111.5 -5v48q53 0 64 3q5 15 5 40v298q0 22 -5 47
q-11 4 -34 4h-35v40zM252 440l-80 -1v-397q6 -1 11 -1h27q143 0 187 75q25 44 25 112.5t-10 106.5t-31 61q-39 44 -129 44z" />
    <glyph glyph-name="dcaron" unicode="&#x10f;" horiz-adv-x="615" 
d="M575 612q11 32 20.5 77.5t12.5 70.5h87v-9q-6 -26 -27 -71t-45 -80h-48v12zM211 317q-96 0 -96 -141.5t94 -141.5q51 0 79 48q9 15 14 34q0 113 -4 165q-36 36 -87 36zM237 517q38 9 81.5 9t51.5 -2q3 -18 3 -26v-408q0 -36 6 -56h58v-29q-38 -9 -76 -9t-47.5 5t-9.5 27
v16q-41 -52 -111.5 -52t-112.5 46t-42 133t40 137t108 50t116 -44v140q0 18 -3 29q-12 4 -29 4h-33v30z" />
    <glyph glyph-name="Dcroat" unicode="&#x110;" horiz-adv-x="729" 
d="M669 364q0 -175 -96 -269.5t-278 -94.5h-191v314h-74v78h74v322h213q167 0 259.5 -92t92.5 -258zM574 361q0 137 -68 206.5t-202 69.5h-110v-245h178v-78h-178v-237h90q290 0 290 284z" />
    <glyph glyph-name="dcroat" unicode="&#x111;" horiz-adv-x="617" 
d="M275 -10q-104 0 -162 72t-58 203q0 132 57.5 205t162.5 73q109 0 167 -79h6q-1 7 -3.5 33.5t-2.5 46.5v61h-213v66h213v89h88v-89h76v-66h-76v-605h-72l-13 72h-4q-56 -82 -166 -82zM290 63q80 0 116.5 43t36.5 142v17q0 112 -37 158.5t-118 46.5q-68 0 -104.5 -52
t-36.5 -154q0 -96 35 -148.5t108 -52.5z" />
    <glyph glyph-name="Emacron" unicode="&#x112;" horiz-adv-x="556" 
d="M148 842h297v-71h-297v71zM26 471q59 11 172 11h205l9 -44q1 -8 5 -25t4 -30l-49 -1l-2 16q-2 14 -8 31q-20 10 -86 10l-30 -1l-74 -1v-170h114q24 0 33 17q4 6 8 20h17q0 -64 -4 -118h-21q-11 34 -29 40q-6 2 -15 2h-103v-186h154q38 0 48 12q6 17 10 55h42v-39
q0 -16 -1.5 -33.5t-2.5 -29.5q-34 -10 -68.5 -11t-62.5 -1l-155 5q-72 0 -106 -5v47h30q20 0 34 4q5 11 5 32v7v308q0 27 -5 39q-6 3 -14 3h-54v36z" />
    <glyph glyph-name="emacron" unicode="&#x113;" horiz-adv-x="563" 
d="M150 677h297v-71h-297v71zM285 202q1 1 1 2v4q0 76 -44 101q-16 9 -38 9q-88 0 -94 -116h175zM111 163q8 -129 120 -129q55 0 90 35l30 -13q-36 -64 -135 -64q-81 0 -129.5 47t-48.5 135q0 128 104 169q32 13 68 13q67 0 107.5 -37t40.5 -92.5t-28 -61.5q-10 -2 -23 -2
h-196z" />
    <glyph glyph-name="Ebreve" unicode="&#x114;" horiz-adv-x="556" 
d="M299 771q-69 0 -108.5 33.5t-44.5 100.5h54q4 -35 24.5 -49t76.5 -14q49 0 73 15.5t28 47.5h55q-6 -64 -48 -99t-110 -35zM26 471q59 11 172 11h205l9 -44q1 -8 5 -25t4 -30l-49 -1l-2 16q-2 14 -8 31q-20 10 -86 10l-30 -1l-74 -1v-170h114q24 0 33 17q4 6 8 20h17
q0 -64 -4 -118h-21q-11 34 -29 40q-6 2 -15 2h-103v-186h154q38 0 48 12q6 17 10 55h42v-39q0 -16 -1.5 -33.5t-2.5 -29.5q-34 -10 -68.5 -11t-62.5 -1l-155 5q-72 0 -106 -5v47h30q20 0 34 4q5 11 5 32v7v308q0 27 -5 39q-6 3 -14 3h-54v36z" />
    <glyph glyph-name="ebreve" unicode="&#x115;" horiz-adv-x="563" 
d="M292 606q-69 0 -108.5 33.5t-44.5 100.5h54q4 -35 24.5 -49t76.5 -14q49 0 73 15.5t28 47.5h55q-6 -64 -48 -99t-110 -35zM285 202q1 1 1 2v4q0 76 -44 101q-16 9 -38 9q-88 0 -94 -116h175zM111 163q8 -129 120 -129q55 0 90 35l30 -13q-36 -64 -135 -64
q-81 0 -129.5 47t-48.5 135q0 128 104 169q32 13 68 13q67 0 107.5 -37t40.5 -92.5t-28 -61.5q-10 -2 -23 -2h-196z" />
    <glyph glyph-name="Edotaccent" unicode="&#x116;" horiz-adv-x="556" 
d="M253 832q0 29 15 42.5t37 13.5q21 0 36 -13.5t15 -42.5t-15.5 -42.5t-35.5 -13.5q-22 0 -37 13.5t-15 42.5zM26 471q59 11 172 11h205l9 -44q1 -8 5 -25t4 -30l-49 -1l-2 16q-2 14 -8 31q-20 10 -86 10l-30 -1l-74 -1v-170h114q24 0 33 17q4 6 8 20h17q0 -64 -4 -118h-21
q-11 34 -29 40q-6 2 -15 2h-103v-186h154q38 0 48 12q6 17 10 55h42v-39q0 -16 -1.5 -33.5t-2.5 -29.5q-34 -10 -68.5 -11t-62.5 -1l-155 5q-72 0 -106 -5v47h30q20 0 34 4q5 11 5 32v7v308q0 27 -5 39q-6 3 -14 3h-54v36z" />
    <glyph glyph-name="edotaccent" unicode="&#x117;" horiz-adv-x="563" 
d="M243 681q0 29 15 42.5t37 13.5q21 0 36 -13.5t15 -42.5t-15.5 -42.5t-35.5 -13.5q-22 0 -37 13.5t-15 42.5zM285 202q1 1 1 2v4q0 76 -44 101q-16 9 -38 9q-88 0 -94 -116h175zM111 163q8 -129 120 -129q55 0 90 35l30 -13q-36 -64 -135 -64q-81 0 -129.5 47t-48.5 135
q0 128 104 169q32 13 68 13q67 0 107.5 -37t40.5 -92.5t-28 -61.5q-10 -2 -23 -2h-196z" />
    <glyph glyph-name="Eogonek" unicode="&#x118;" horiz-adv-x="556" 
d="M392 -116q0 -22 12 -33.5t33 -11.5t48 6v-56q-34 -9 -62 -9q-103 0 -103 94q0 68 78 126h62q-34 -32 -51 -58.5t-17 -57.5zM26 471q59 11 172 11h205l9 -44q1 -8 5 -25t4 -30l-49 -1l-2 16q-2 14 -8 31q-20 10 -86 10l-30 -1l-74 -1v-170h114q24 0 33 17q4 6 8 20h17
q0 -64 -4 -118h-21q-11 34 -29 40q-6 2 -15 2h-103v-186h154q38 0 48 12q6 17 10 55h42v-39q0 -16 -1.5 -33.5t-2.5 -29.5q-34 -10 -68.5 -11t-62.5 -1l-155 5q-72 0 -106 -5v47h30q20 0 34 4q5 11 5 32v7v308q0 27 -5 39q-6 3 -14 3h-54v36z" />
    <glyph glyph-name="eogonek" unicode="&#x119;" horiz-adv-x="563" 
d="M387 -102q0 -22 12 -33.5t33 -11.5t48 6v-56q-34 -9 -62 -9q-103 0 -103 94q0 68 78 126h62q-34 -32 -51 -58.5t-17 -57.5zM285 202q1 1 1 2v4q0 76 -44 101q-16 9 -38 9q-88 0 -94 -116h175zM111 163q8 -129 120 -129q55 0 90 35l30 -13q-36 -64 -135 -64
q-81 0 -129.5 47t-48.5 135q0 128 104 169q32 13 68 13q67 0 107.5 -37t40.5 -92.5t-28 -61.5q-10 -2 -23 -2h-196z" />
    <glyph glyph-name="Ecaron" unicode="&#x11a;" horiz-adv-x="556" 
d="M133 931h60q56 -36 107 -92q62 62 109 92h62v-13q-100 -100 -125 -147h-90q-29 50 -123 147v13zM26 471q59 11 172 11h205l9 -44q1 -8 5 -25t4 -30l-49 -1l-2 16q-2 14 -8 31q-20 10 -86 10l-30 -1l-74 -1v-170h114q24 0 33 17q4 6 8 20h17q0 -64 -4 -118h-21
q-11 34 -29 40q-6 2 -15 2h-103v-186h154q38 0 48 12q6 17 10 55h42v-39q0 -16 -1.5 -33.5t-2.5 -29.5q-34 -10 -68.5 -11t-62.5 -1l-155 5q-72 0 -106 -5v47h30q20 0 34 4q5 11 5 32v7v308q0 27 -5 39q-6 3 -14 3h-54v36z" />
    <glyph glyph-name="ecaron" unicode="&#x11b;" horiz-adv-x="563" 
d="M126 766h60q56 -36 107 -92q62 62 109 92h62v-13q-100 -100 -125 -147h-90q-29 50 -123 147v13zM285 202q1 1 1 2v4q0 76 -44 101q-16 9 -38 9q-88 0 -94 -116h175zM111 163q8 -129 120 -129q55 0 90 35l30 -13q-36 -64 -135 -64q-81 0 -129.5 47t-48.5 135
q0 128 104 169q32 13 68 13q67 0 107.5 -37t40.5 -92.5t-28 -61.5q-10 -2 -23 -2h-196z" />
    <glyph glyph-name="Gcircumflex" unicode="&#x11c;" horiz-adv-x="728" 
d="M248 782q61 65 86 96.5t37 52.5h90q25 -49 125 -149v-11h-62q-44 26 -109 90q-64 -62 -107 -90h-60v11zM452 34q-68 -47 -170 -47q-168 0 -224 135q-19 45 -19 109q0 126 70 192t191 66q81 0 144 -35l-9 -94h-41q-17 48 -33 63q-26 25 -69 25q-87 0 -129.5 -56
t-42.5 -152t42.5 -152t120.5 -56q61 0 99 19v78q0 30 -5 43q-11 4 -35 4h-40v37q6 0 28.5 2.5t58.5 2.5h65q-1 -16 -1 -27l-1 -31v-126z" />
    <glyph glyph-name="gcircumflex" unicode="&#x11d;" horiz-adv-x="615" 
d="M132 617q61 65 86 96.5t37 52.5h90q25 -49 125 -149v-11h-62q-44 26 -109 90q-64 -62 -107 -90h-60v11zM77 22q-27 4 -27 46q0 19 10.5 38t31.5 25v1q-55 32 -55 102q0 84 83 113q26 9 57.5 9t73.5 -15l85 11q18 0 21 -7t3 -31v-7h-74q28 -34 28 -68q0 -63 -38 -98
t-117 -35q-6 0 -46 5q-3 -4 -4 -8.5t-2.5 -9.5t-1.5 -14t12 -14t51 -5q88 0 127 -20q49 -24 49 -86q0 -104 -176 -104q-114 0 -144 61q-9 18 -9 38q0 52 62 71v2zM261 -2.5q-20 15.5 -75 15.5t-75 -2q-33 -40 -33 -64t14 -35q29 -23 73 -23q73 0 94.5 16t21.5 46.5t-20 46z
M250 230q0 87 -74 87q-40 0 -58 -21.5t-18 -54.5t5.5 -48t16.5 -25q20 -18 53 -18t54 19t21 61z" />
    <glyph glyph-name="Gbreve" unicode="&#x11e;" horiz-adv-x="728" 
d="M414 771q-69 0 -108.5 33.5t-44.5 100.5h54q4 -35 24.5 -49t76.5 -14q49 0 73 15.5t28 47.5h55q-6 -64 -48 -99t-110 -35zM452 34q-68 -47 -170 -47q-168 0 -224 135q-19 45 -19 109q0 126 70 192t191 66q81 0 144 -35l-9 -94h-41q-17 48 -33 63q-26 25 -69 25
q-87 0 -129.5 -56t-42.5 -152t42.5 -152t120.5 -56q61 0 99 19v78q0 30 -5 43q-11 4 -35 4h-40v37q6 0 28.5 2.5t58.5 2.5h65q-1 -16 -1 -27l-1 -31v-126z" />
    <glyph glyph-name="gbreve" unicode="&#x11f;" horiz-adv-x="615" 
d="M300 606q-69 0 -108.5 33.5t-44.5 100.5h54q4 -35 24.5 -49t76.5 -14q49 0 73 15.5t28 47.5h55q-6 -64 -48 -99t-110 -35zM77 22q-27 4 -27 46q0 19 10.5 38t31.5 25v1q-55 32 -55 102q0 84 83 113q26 9 57.5 9t73.5 -15l85 11q18 0 21 -7t3 -31v-7h-74q28 -34 28 -68
q0 -63 -38 -98t-117 -35q-6 0 -46 5q-3 -4 -4 -8.5t-2.5 -9.5t-1.5 -14t12 -14t51 -5q88 0 127 -20q49 -24 49 -86q0 -104 -176 -104q-114 0 -144 61q-9 18 -9 38q0 52 62 71v2zM261 -2.5q-20 15.5 -75 15.5t-75 -2q-33 -40 -33 -64t14 -35q29 -23 73 -23q73 0 94.5 16
t21.5 46.5t-20 46zM250 230q0 87 -74 87q-40 0 -58 -21.5t-18 -54.5t5.5 -48t16.5 -25q20 -18 53 -18t54 19t21 61z" />
    <glyph glyph-name="Gdotaccent" unicode="&#x120;" horiz-adv-x="728" 
d="M371 846q0 29 15 42.5t37 13.5q21 0 36 -13.5t15 -42.5t-15.5 -42.5t-35.5 -13.5q-22 0 -37 13.5t-15 42.5zM452 34q-68 -47 -170 -47q-168 0 -224 135q-19 45 -19 109q0 126 70 192t191 66q81 0 144 -35l-9 -94h-41q-17 48 -33 63q-26 25 -69 25q-87 0 -129.5 -56
t-42.5 -152t42.5 -152t120.5 -56q61 0 99 19v78q0 30 -5 43q-11 4 -35 4h-40v37q6 0 28.5 2.5t58.5 2.5h65q-1 -16 -1 -27l-1 -31v-126z" />
    <glyph glyph-name="gdotaccent" unicode="&#x121;" horiz-adv-x="615" 
d="M247 681q0 29 15 42.5t37 13.5q21 0 36 -13.5t15 -42.5t-15.5 -42.5t-35.5 -13.5q-22 0 -37 13.5t-15 42.5zM77 22q-27 4 -27 46q0 19 10.5 38t31.5 25v1q-55 32 -55 102q0 84 83 113q26 9 57.5 9t73.5 -15l85 11q18 0 21 -7t3 -31v-7h-74q28 -34 28 -68q0 -63 -38 -98
t-117 -35q-6 0 -46 5q-3 -4 -4 -8.5t-2.5 -9.5t-1.5 -14t12 -14t51 -5q88 0 127 -20q49 -24 49 -86q0 -104 -176 -104q-114 0 -144 61q-9 18 -9 38q0 52 62 71v2zM261 -2.5q-20 15.5 -75 15.5t-75 -2q-33 -40 -33 -64t14 -35q29 -23 73 -23q73 0 94.5 16t21.5 46.5t-20 46z
M250 230q0 87 -74 87q-40 0 -58 -21.5t-18 -54.5t5.5 -48t16.5 -25q20 -18 53 -18t54 19t21 61z" />
    <glyph glyph-name="uni0122" unicode="&#x122;" horiz-adv-x="728" 
d="M322 -209q11 25 24 70.5t17 77.5h87v-9q-8 -31 -31.5 -76.5t-48.5 -74.5h-48v12zM452 34q-68 -47 -170 -47q-168 0 -224 135q-19 45 -19 109q0 126 70 192t191 66q81 0 144 -35l-9 -94h-41q-17 48 -33 63q-26 25 -69 25q-87 0 -129.5 -56t-42.5 -152t42.5 -152t120.5 -56
q61 0 99 19v78q0 30 -5 43q-11 4 -35 4h-40v37q6 0 28.5 2.5t58.5 2.5h65q-1 -16 -1 -27l-1 -31v-126z" />
    <glyph glyph-name="uni0123" unicode="&#x123;" horiz-adv-x="615" 
d="M379 754q-13 -29 -26 -74.5t-16 -73.5h-87v9q7 27 31.5 74t48.5 77h49v-12zM77 22q-27 4 -27 46q0 19 10.5 38t31.5 25v1q-55 32 -55 102q0 84 83 113q26 9 57.5 9t73.5 -15l85 11q18 0 21 -7t3 -31v-7h-74q28 -34 28 -68q0 -63 -38 -98t-117 -35q-6 0 -46 5
q-3 -4 -4 -8.5t-2.5 -9.5t-1.5 -14t12 -14t51 -5q88 0 127 -20q49 -24 49 -86q0 -104 -176 -104q-114 0 -144 61q-9 18 -9 38q0 52 62 71v2zM261 -2.5q-20 15.5 -75 15.5t-75 -2q-33 -40 -33 -64t14 -35q29 -23 73 -23q73 0 94.5 16t21.5 46.5t-20 46zM250 230q0 87 -74 87
q-40 0 -58 -21.5t-18 -54.5t5.5 -48t16.5 -25q20 -18 53 -18t54 19t21 61z" />
    <glyph glyph-name="Hcircumflex" unicode="&#x124;" horiz-adv-x="741" 
d="M200 782q61 65 86 96.5t37 52.5h90q25 -49 125 -149v-11h-62q-44 26 -109 90q-64 -62 -107 -90h-60v11zM540 -5q-34 5 -104 5t-108 -5v47h30q21 0 35 4q6 13 5 39v141h-229v-139q0 -21 5 -41q16 -4 35 -4h30v-47q-34 5 -105 5t-107 -5v47h30q20 0 34 4q6 15 6 39v311
q0 24 -6 40q-11 4 -35 4h-30v36q46 6 113.5 6t100.5 -6v-36h-31q-19 0 -35 -4q-5 -20 -5 -40v-124h229v124q0 27 -5 40q-11 4 -35 4h-30v36q46 6 114.5 6t99.5 -6v-36h-31q-19 0 -35 -4q-5 -20 -5 -40v-309q0 -21 5 -41q16 -4 34 -4h30v-47z" />
    <glyph glyph-name="hcircumflex" unicode="&#x125;" horiz-adv-x="618" 
d="M143 809q61 65 86 96.5t37 52.5h90q25 -49 125 -149v-11h-62q-44 26 -109 90q-64 -62 -107 -90h-60v11zM380 90q0 -26 6 -56h51v-30q-32 -8 -64 -8t-44 2q-22 3 -22 26l2 70v122q0 87 -32 98q-11 3 -36.5 3t-58 -22t-34.5 -45v-174q0 -29 6.5 -38.5t33.5 -13.5l3 -28
q-48 4 -82.5 4t-74.5 -4l1 28q28 4 34 10.5t6.5 14t0.5 18.5v401q0 8 -2 15q-12 4 -28 4h-33v30q36 9 76.5 9t46 -1t9 -5t3.5 -26v-187q51 49 128 49q55 0 79.5 -26t24.5 -81v-159z" />
    <glyph glyph-name="Hbar" unicode="&#x126;" horiz-adv-x="741" 
d="M97 595v119h90v-119h366v119h90v-119h97v-72h-97v-523h-90v333h-366v-333h-90v523h-97v72h97zM553 412v111h-366v-111h366z" />
    <glyph glyph-name="hbar" unicode="&#x127;" horiz-adv-x="618" 
d="M450 0v323q0 65 -29 97t-91 32q-83 0 -120 -45t-37 -149v-258h-88v604h-76v66h76v90h88v-90h212v-66h-212v-87q0 -43 -5 -74h6q26 42 70.5 62.5t97.5 20.5q97 0 146 -47t49 -150v-329h-87z" />
    <glyph glyph-name="Itilde" unicode="&#x128;" horiz-adv-x="338" 
d="M244 772q-21 0 -41 9t-39.5 19.5t-37 19.5t-34.5 9q-24 0 -36 -14.5t-19 -43.5h-51q6 60 34 94t76 34q22 0 42.5 -9t39.5 -19.5t37 -19.5t33 -9q23 0 35.5 14.5t19.5 43.5h50q-6 -58 -34 -93t-75 -35zM239 -5q-32 5 -103.5 5t-108.5 -5v47h29q19 0 35 4q5 13 5 32v7v313
q0 25 -5 38q-11 4 -35 4h-30v36q46 6 114.5 6t98.5 -6v-36h-30q-21 0 -35 -4q-5 -20 -5 -38v-311q0 -21 5 -41q16 -4 35 -4h30v-47zM239 -5q-32 5 -103.5 5t-108.5 -5v47h29q19 0 35 4q5 13 5 32v7v313q0 25 -5 38q-11 4 -35 4h-30v36q46 6 114.5 6t98.5 -6v-36h-30
q-21 0 -35 -4q-5 -20 -5 -38v-311q0 -21 5 -41q16 -4 35 -4h30v-47z" />
    <glyph glyph-name="itilde" unicode="&#x129;" horiz-adv-x="257" 
d="M204 607q-21 0 -41 9t-39.5 19.5t-37 19.5t-34.5 9q-24 0 -36 -14.5t-19 -43.5h-51q6 60 34 94t76 34q22 0 42.5 -9t39.5 -19.5t37 -19.5t33 -9q23 0 35.5 14.5t19.5 43.5h50q-6 -58 -34 -93t-75 -35zM173 0h-88v536h88v-536z" />
    <glyph glyph-name="Imacron" unicode="&#x12a;" horiz-adv-x="338" 
d="M21 842h297v-71h-297v71zM239 -5q-32 5 -103.5 5t-108.5 -5v47h29q19 0 35 4q5 13 5 32v7v313q0 25 -5 38q-11 4 -35 4h-30v36q46 6 114.5 6t98.5 -6v-36h-30q-21 0 -35 -4q-5 -20 -5 -38v-311q0 -21 5 -41q16 -4 35 -4h30v-47zM239 -5q-32 5 -103.5 5t-108.5 -5v47h29
q19 0 35 4q5 13 5 32v7v313q0 25 -5 38q-11 4 -35 4h-30v36q46 6 114.5 6t98.5 -6v-36h-30q-21 0 -35 -4q-5 -20 -5 -38v-311q0 -21 5 -41q16 -4 35 -4h30v-47z" />
    <glyph glyph-name="imacron" unicode="&#x12b;" horiz-adv-x="257" 
d="M-18 677h297v-71h-297v71zM173 0h-88v536h88v-536z" />
    <glyph glyph-name="Ibreve" unicode="&#x12c;" horiz-adv-x="338" 
d="M168 771q-69 0 -108.5 33.5t-44.5 100.5h54q4 -35 24.5 -49t76.5 -14q49 0 73 15.5t28 47.5h55q-6 -64 -48 -99t-110 -35zM239 -5q-32 5 -103.5 5t-108.5 -5v47h29q19 0 35 4q5 13 5 32v7v313q0 25 -5 38q-11 4 -35 4h-30v36q46 6 114.5 6t98.5 -6v-36h-30q-21 0 -35 -4
q-5 -20 -5 -38v-311q0 -21 5 -41q16 -4 35 -4h30v-47zM239 -5q-32 5 -103.5 5t-108.5 -5v47h29q19 0 35 4q5 13 5 32v7v313q0 25 -5 38q-11 4 -35 4h-30v36q46 6 114.5 6t98.5 -6v-36h-30q-21 0 -35 -4q-5 -20 -5 -38v-311q0 -21 5 -41q16 -4 35 -4h30v-47z" />
    <glyph glyph-name="ibreve" unicode="&#x12d;" horiz-adv-x="257" 
d="M126 606q-69 0 -108.5 33.5t-44.5 100.5h54q4 -35 24.5 -49t76.5 -14q49 0 73 15.5t28 47.5h55q-6 -64 -48 -99t-110 -35zM173 0h-88v536h88v-536z" />
    <glyph glyph-name="Iogonek" unicode="&#x12e;" horiz-adv-x="338" 
d="M160 -116q0 -22 12 -33.5t33 -11.5t48 6v-56q-34 -9 -62 -9q-103 0 -103 94q0 68 78 126h62q-34 -32 -51 -58.5t-17 -57.5zM239 -5q-32 5 -103.5 5t-108.5 -5v47h29q19 0 35 4q5 13 5 32v7v313q0 25 -5 38q-11 4 -35 4h-30v36q46 6 114.5 6t98.5 -6v-36h-30q-21 0 -35 -4
q-5 -20 -5 -38v-311q0 -21 5 -41q16 -4 35 -4h30v-47zM239 -5q-32 5 -103.5 5t-108.5 -5v47h29q19 0 35 4q5 13 5 32v7v313q0 25 -5 38q-11 4 -35 4h-30v36q46 6 114.5 6t98.5 -6v-36h-30q-21 0 -35 -4q-5 -20 -5 -38v-311q0 -21 5 -41q16 -4 35 -4h30v-47z" />
    <glyph glyph-name="iogonek" unicode="&#x12f;" horiz-adv-x="257" 
d="M97 -116q0 -22 12 -33.5t33 -11.5t48 6v-56q-34 -9 -62 -9q-103 0 -103 94q0 68 78 126h62q-34 -32 -51 -58.5t-17 -57.5zM70 452q-4 9 -4 25t13 28.5t33.5 12.5t33 -13.5t12.5 -33.5t-13 -33t-33 -13q-31 0 -42 27zM148 90q0 -26 6 -56h48l4 -30q-36 -8 -83.5 -8
t-47.5 28l2 70v188q0 15 -2 27q-12 5 -29 5h-33v32q24 6 70.5 6t64.5 -6v-256z" />
    <glyph glyph-name="Idotaccent" unicode="&#x130;" horiz-adv-x="338" 
d="M117 846q0 29 15 42.5t37 13.5q21 0 36 -13.5t15 -42.5t-15.5 -42.5t-35.5 -13.5q-22 0 -37 13.5t-15 42.5zM239 -5q-32 5 -103.5 5t-108.5 -5v47h29q19 0 35 4q5 13 5 32v7v313q0 25 -5 38q-11 4 -35 4h-30v36q46 6 114.5 6t98.5 -6v-36h-30q-21 0 -35 -4q-5 -20 -5 -38
v-311q0 -21 5 -41q16 -4 35 -4h30v-47zM239 -5q-32 5 -103.5 5t-108.5 -5v47h29q19 0 35 4q5 13 5 32v7v313q0 25 -5 38q-11 4 -35 4h-30v36q46 6 114.5 6t98.5 -6v-36h-30q-21 0 -35 -4q-5 -20 -5 -38v-311q0 -21 5 -41q16 -4 35 -4h30v-47z" />
    <glyph glyph-name="dotlessi" unicode="&#x131;" horiz-adv-x="257" 
d="M173 0h-88v536h88v-536z" />
    <glyph glyph-name="IJ" unicode="&#x132;" horiz-adv-x="611" 
d="M239 -5q-32 5 -103.5 5t-108.5 -5v47h29q19 0 35 4q5 13 5 32v7v313q0 25 -5 38q-11 4 -35 4h-30v36q46 6 114.5 6t98.5 -6v-36h-30q-21 0 -35 -4q-5 -20 -5 -38v-311q0 -21 5 -41q16 -4 35 -4h30v-47zM239 -5q-32 5 -103.5 5t-108.5 -5v47h29q19 0 35 4q5 13 5 32v7v313
q0 25 -5 38q-11 4 -35 4h-30v36q46 6 114.5 6t98.5 -6v-36h-30q-21 0 -35 -4q-5 -20 -5 -38v-311q0 -21 5 -41q16 -4 35 -4h30v-47zM449 476q46 6 114 6t99 -6v-36h-30q-21 0 -35 -4q-5 -12 -5 -33v-7v-290q0 -120 -70 -155q-22 -11 -45 -11t-64 7t-59 17q0 1 1 8l1 19
q1 13 2 32.5t3 47.5l48 -1q2 -32 14 -82q7 -1 15 -3t25 -2q34 0 45 32.5t11 102.5v278q0 27 -6 40q-9 4 -34 4h-30v36z" />
    <glyph glyph-name="ij" unicode="&#x133;" horiz-adv-x="514" 
d="M70 452q-4 9 -4 25t13 28.5t33.5 12.5t33 -13.5t12.5 -33.5t-13 -33t-33 -13q-31 0 -42 27zM148 90q0 -26 6 -56h48l4 -30q-36 -8 -83.5 -8t-47.5 28l2 70v188q0 15 -2 27q-12 5 -29 5h-33v32q24 6 70.5 6t64.5 -6v-256zM319 346q24 6 70.5 6t64.5 -6v-317
q0 -77 -28.5 -115.5t-76 -38.5t-93.5 14l15 92q8 -1 16 -3t20 -2q0 -17 2 -31.5t3 -24.5q7 -1 15.5 -3t20.5 -2q21 0 28 31t7 89v247q0 15 -2 27q-12 5 -29 5h-33v32zM385.5 504.5q12.5 13.5 32.5 13.5q32 0 44 -28q3 -8 3 -24t-14 -28.5t-33 -12.5q-30 0 -42 27q-3 9 -3 24
t12.5 28.5z" />
    <glyph glyph-name="Jcircumflex" unicode="&#x134;" horiz-adv-x="272" 
d="M-31 782q61 65 86 96.5t37 52.5h90q25 -49 125 -149v-11h-62q-44 26 -109 90q-64 -62 -107 -90h-60v11zM110 476q46 6 114 6t99 -6v-36h-30q-21 0 -35 -4q-5 -12 -5 -33v-7v-290q0 -120 -70 -155q-22 -11 -45 -11t-64 7t-59 17q0 1 1 8l1 19q1 13 2 32.5t3 47.5l48 -1
q2 -32 14 -82q7 -1 15 -3t25 -2q34 0 45 32.5t11 102.5v278q0 27 -6 40q-9 4 -34 4h-30v36z" />
    <glyph glyph-name="jcircumflex" unicode="&#x135;" horiz-adv-x="257" 
d="M-42 617q61 65 86 96.5t37 52.5h90q25 -49 125 -149v-11h-62q-44 26 -109 90q-64 -62 -107 -90h-60v11zM22 -240q-46 0 -77 12v71q34 -10 66 -10q38 0 56 21t18 63v619h88v-616q0 -80 -38.5 -120t-112.5 -40z" />
    <glyph glyph-name="uni0136" unicode="&#x136;" horiz-adv-x="619" 
d="M246 -209q11 25 24 70.5t17 77.5h87v-9q-8 -31 -31.5 -76.5t-48.5 -74.5h-48v12zM26 476q46 6 114.5 6t98.5 -6v-36h-30q-21 0 -35 -4q-5 -20 -5 -40v-311q0 -25 5 -39q16 -4 35 -4h30v-47q-45 5 -107 5q-71 0 -105 -5v47h30q20 0 34 4q5 13 5 35v315q0 27 -5 40
q-11 4 -35 4h-30v36zM300 476q50 6 109.5 6t82.5 -6l-2 -36h-27q-15 0 -31 -4q-27 -22 -79.5 -80t-69.5 -76t-27 -29l132 -166q15 -19 37 -39q16 -4 33 -4h26l5 -47q-40 5 -106.5 5t-100.5 -5v47h6q23 0 33 4q-4 11 -25 39l-104 139q-3 3 -5 6.5t-8 12.5q5 7 17.5 21
t23 26.5t38.5 43t52 56.5q33 33 33 40v6q-8 4 -28 4h-19z" />
    <glyph glyph-name="uni0137" unicode="&#x137;" horiz-adv-x="534" 
d="M203 -209q11 25 24 70.5t17 77.5h87v-9q-8 -31 -31.5 -76.5t-48.5 -74.5h-48v12zM190 -4q-46 4 -80 4t-76 -4l1 28q28 4 34 10.5t6.5 14t0.5 18.5v399q0 8 -2 16q-15 5 -29 5h-32v29q45 10 119 10q11 -8 13.5 -17t2.5 -21v-313l89 85q38 36 38 47q-1 6 -13 7v32h145v-32
h-12q-7 0 -15 -2l-20 -7q-11 -3 -21 -13l-115 -102l124 -142q12 -12 30 -16.5t25 -4.5t10 1l5 -33q-50 5 -83 5q-40 0 -84 -4v29q16 0 16 6q-9 14 -21 29l-80 98l-18 -13v-69q0 -28 6 -37t34 -15z" />
    <glyph glyph-name="kgreenlandic" unicode="&#x138;" horiz-adv-x="534" 
d="M403 536h106l-203 -237l219 -299h-105l-176 242l-66 -54v-188h-93v536h93v-139q0 -68 -6 -135l41 50z" />
    <glyph glyph-name="Lacute" unicode="&#x139;" horiz-adv-x="523" 
d="M292 -5l-160 5q-71 0 -105 -5v47h29q19 0 35 4q5 13 5 32v7v311q0 27 -5 40q-11 4 -35 4h-30v36q46 6 114.5 6t99.5 -6v-36h-31q-19 0 -35 -4q-5 -20 -5 -40v-354h128q39 0 54 8q25 13 37 59l29 -3l-12 -106q-73 -5 -113 -5zM208 696q-46 -49 -102 -107h-46q14 23 24 40
q29 51 40 67h84z" />
    <glyph glyph-name="lacute" unicode="&#x13a;" horiz-adv-x="257" 
d="M71 24l3 70v355q0 18 -4 34q-12 4 -29 4h-32v30q34 9 81 9t54 -9v-427q0 -26 6 -56h54v-30q-36 -8 -67.5 -8t-43.5 2q-22 3 -22 26zM171 724q-46 -49 -102 -107h-46q14 23 24 40q29 51 40 67h84z" />
    <glyph glyph-name="uni013B" unicode="&#x13b;" horiz-adv-x="523" 
d="M204 -209q11 25 24 70.5t17 77.5h87v-9q-8 -31 -31.5 -76.5t-48.5 -74.5h-48v12zM292 -5l-160 5q-71 0 -105 -5v47h29q19 0 35 4q5 13 5 32v7v311q0 27 -5 40q-11 4 -35 4h-30v36q46 6 114.5 6t99.5 -6v-36h-31q-19 0 -35 -4q-5 -20 -5 -40v-354h128q39 0 54 8
q25 13 37 59l29 -3l-12 -106q-73 -5 -113 -5z" />
    <glyph glyph-name="uni013C" unicode="&#x13c;" horiz-adv-x="257" 
d="M45 -209q11 25 24 70.5t17 77.5h87v-9q-8 -31 -31.5 -76.5t-48.5 -74.5h-48v12zM71 24l3 70v355q0 18 -4 34q-12 4 -29 4h-32v30q34 9 81 9t54 -9v-427q0 -26 6 -56h54v-30q-36 -8 -67.5 -8t-43.5 2q-22 3 -22 26z" />
    <glyph glyph-name="Lcaron" unicode="&#x13d;" horiz-adv-x="523" 
d="M333 567q11 32 20.5 77.5t12.5 70.5h87v-9q-6 -26 -27 -71t-45 -80h-48v12zM292 -5l-160 5q-71 0 -105 -5v47h29q19 0 35 4q5 13 5 32v7v311q0 27 -5 40q-11 4 -35 4h-30v36q46 6 114.5 6t99.5 -6v-36h-31q-19 0 -35 -4q-5 -20 -5 -40v-354h128q39 0 54 8q25 13 37 59
l29 -3l-12 -106q-73 -5 -113 -5z" />
    <glyph glyph-name="lcaron" unicode="&#x13e;" horiz-adv-x="257" 
d="M219 612q11 32 20.5 77.5t12.5 70.5h87v-9q-6 -26 -27 -71t-45 -80h-48v12zM71 24l3 70v355q0 18 -4 34q-12 4 -29 4h-32v30q34 9 81 9t54 -9v-427q0 -26 6 -56h54v-30q-36 -8 -67.5 -8t-43.5 2q-22 3 -22 26z" />
    <glyph glyph-name="Ldot" unicode="&#x13f;" horiz-adv-x="523" 
d="M332 357q0 29 15 42.5t37 13.5q21 0 36 -13.5t15 -42.5t-15.5 -42.5t-35.5 -13.5q-22 0 -37 13.5t-15 42.5zM292 -5l-160 5q-71 0 -105 -5v47h29q19 0 35 4q5 13 5 32v7v311q0 27 -5 40q-11 4 -35 4h-30v36q46 6 114.5 6t99.5 -6v-36h-31q-19 0 -35 -4q-5 -20 -5 -40
v-354h128q39 0 54 8q25 13 37 59l29 -3l-12 -106q-73 -5 -113 -5z" />
    <glyph glyph-name="ldot" unicode="&#x140;" horiz-adv-x="325" 
d="M240 333q0 29 15 42.5t37 13.5q21 0 36 -13.5t15 -42.5t-15.5 -42.5t-35.5 -13.5q-22 0 -37 13.5t-15 42.5zM71 24l3 70v355q0 18 -4 34q-12 4 -29 4h-32v30q34 9 81 9t54 -9v-427q0 -26 6 -56h54v-30q-36 -8 -67.5 -8t-43.5 2q-22 3 -22 26z" />
    <glyph glyph-name="Lslash" unicode="&#x141;" horiz-adv-x="523" 
d="M97 0v247l-49 -28l-35 60l84 50v385h90v-332l137 81l36 -63l-173 -100v-220h312v-80h-402z" />
    <glyph glyph-name="lslash" unicode="&#x142;" horiz-adv-x="257" 
d="M166 425l64 44l37 -59l-101 -68v-342h-88v285l-51 -32l-36 59l87 56v392h88v-335z" />
    <glyph glyph-name="Nacute" unicode="&#x143;" horiz-adv-x="759" 
d="M228 -5q-30 5 -94.5 5t-99.5 -5v47h30q20 0 34 4q6 13 6 39l-1 311q0 27 -5 40q-11 4 -35 4h-37v36q78 6 104 6t48 -5q157 -243 243 -388l-5 269v38q0 27 -5 40q-16 4 -35 4h-34v36q44 6 107.5 6t88.5 -6v-36h-26q-21 0 -35 -4q-5 -13 -5 -49.5t-1 -88t-2 -104.5t-3 -104
t-3 -95h-35q-16 0 -30 7l-244 387q4 -76 4 -191t1.5 -129.5t4.5 -22.5q16 -4 34 -4h30v-47zM408 696q-46 -49 -102 -107h-46q14 23 24 40q29 51 40 67h84z" />
    <glyph glyph-name="nacute" unicode="&#x144;" horiz-adv-x="618" 
d="M315 218q0 96 -59 96q-25 0 -54 -17t-47 -40v-178q0 -31 6 -40.5t34 -14.5l2 -28q-38 4 -81.5 4t-75.5 -4l1 28q30 4 36 12t6 33v214q0 17 -3 26q-8 5 -23 5h-38v32q24 6 70 6t64 -6v-42q52 52 129 52q45 0 74.5 -26.5t29.5 -80.5v-159q0 -26 6 -56h48l4 -30
q-34 -8 -65.5 -8t-38.5 1q-27 4 -27 27l2 73v121zM340 531q-46 -49 -102 -107h-46q14 23 24 40q29 51 40 67h84z" />
    <glyph glyph-name="uni0145" unicode="&#x145;" horiz-adv-x="759" 
d="M281 -209q11 25 24 70.5t17 77.5h87v-9q-8 -31 -31.5 -76.5t-48.5 -74.5h-48v12zM228 -5q-30 5 -94.5 5t-99.5 -5v47h30q20 0 34 4q6 13 6 39l-1 311q0 27 -5 40q-11 4 -35 4h-37v36q78 6 104 6t48 -5q157 -243 243 -388l-5 269v38q0 27 -5 40q-16 4 -35 4h-34v36
q44 6 107.5 6t88.5 -6v-36h-26q-21 0 -35 -4q-5 -13 -5 -49.5t-1 -88t-2 -104.5t-3 -104t-3 -95h-35q-16 0 -30 7l-244 387q4 -76 4 -191t1.5 -129.5t4.5 -22.5q16 -4 34 -4h30v-47z" />
    <glyph glyph-name="uni0146" unicode="&#x146;" horiz-adv-x="618" 
d="M222 -209q11 25 24 70.5t17 77.5h87v-9q-8 -31 -31.5 -76.5t-48.5 -74.5h-48v12zM315 218q0 96 -59 96q-25 0 -54 -17t-47 -40v-178q0 -31 6 -40.5t34 -14.5l2 -28q-38 4 -81.5 4t-75.5 -4l1 28q30 4 36 12t6 33v214q0 17 -3 26q-8 5 -23 5h-38v32q24 6 70 6t64 -6v-42
q52 52 129 52q45 0 74.5 -26.5t29.5 -80.5v-159q0 -26 6 -56h48l4 -30q-34 -8 -65.5 -8t-38.5 1q-27 4 -27 27l2 73v121z" />
    <glyph glyph-name="Ncaron" unicode="&#x147;" horiz-adv-x="759" 
d="M211 931h60q56 -36 107 -92q62 62 109 92h62v-13q-100 -100 -125 -147h-90q-29 50 -123 147v13zM228 -5q-30 5 -94.5 5t-99.5 -5v47h30q20 0 34 4q6 13 6 39l-1 311q0 27 -5 40q-11 4 -35 4h-37v36q78 6 104 6t48 -5q157 -243 243 -388l-5 269v38q0 27 -5 40q-16 4 -35 4
h-34v36q44 6 107.5 6t88.5 -6v-36h-26q-21 0 -35 -4q-5 -13 -5 -49.5t-1 -88t-2 -104.5t-3 -104t-3 -95h-35q-16 0 -30 7l-244 387q4 -76 4 -191t1.5 -129.5t4.5 -22.5q16 -4 34 -4h30v-47z" />
    <glyph glyph-name="ncaron" unicode="&#x148;" horiz-adv-x="618" 
d="M144 766h60q56 -36 107 -92q62 62 109 92h62v-13q-100 -100 -125 -147h-90q-29 50 -123 147v13zM315 218q0 96 -59 96q-25 0 -54 -17t-47 -40v-178q0 -31 6 -40.5t34 -14.5l2 -28q-38 4 -81.5 4t-75.5 -4l1 28q30 4 36 12t6 33v214q0 17 -3 26q-8 5 -23 5h-38v32
q24 6 70 6t64 -6v-42q52 52 129 52q45 0 74.5 -26.5t29.5 -80.5v-159q0 -26 6 -56h48l4 -30q-34 -8 -65.5 -8t-38.5 1q-27 4 -27 27l2 73v121z" />
    <glyph glyph-name="napostrophe" unicode="&#x149;" horiz-adv-x="690" 
d="M145 714l7 -11q-25 -97 -86 -234h-65q34 139 50 245h94zM386 218q0 96 -59 96q-25 0 -54 -17t-47 -40v-178q0 -31 6 -40.5t34 -14.5l2 -28q-38 4 -81.5 4t-75.5 -4l1 28q30 4 36 12t6 33v214q0 17 -3 26q-8 5 -23 5h-38v32q24 6 70 6t64 -6v-42q52 52 129 52
q45 0 74.5 -26.5t29.5 -80.5v-159q0 -26 6 -56h48l4 -30q-34 -8 -65.5 -8t-38.5 1q-27 4 -27 27l2 73v121z" />
    <glyph glyph-name="Eng" unicode="&#x14a;" horiz-adv-x="759" 
d="M475 -190q-48 0 -76 13v76q35 -10 76 -10q50 0 76.5 28.5t27.5 82.5l-403 593h-4q8 -125 8 -206v-387h-83v714h104l381 -572h4q-7 75 -7 200v372h84v-708q0 -96 -48.5 -146t-139.5 -50z" />
    <glyph glyph-name="eng" unicode="&#x14b;" horiz-adv-x="618" 
d="M394 -240q-42 0 -71 12v71q29 -10 60 -10q67 0 67 84v427q0 65 -29 96.5t-90 31.5q-83 0 -120.5 -45.5t-37.5 -147.5v-279h-88v536h71l14 -73h5q25 40 69 61.5t98 21.5q99 0 147.5 -46.5t48.5 -149.5v-430q0 -75 -35 -117.5t-109 -42.5z" />
    <glyph glyph-name="Omacron" unicode="&#x14c;" horiz-adv-x="780" 
d="M242 842h297v-71h-297v71zM119 238q0 -209 143 -209t143 210q0 104 -37 157q-38 52 -106 52q-103 0 -133 -118q-10 -39 -10 -92zM486 239.5q0 -116.5 -60 -184.5t-163.5 -68t-164 68t-60.5 184.5t60.5 183t163.5 66.5t163.5 -66.5t60.5 -183z" />
    <glyph glyph-name="omacron" unicode="&#x14d;" horiz-adv-x="604" 
d="M154 677h297v-71h-297v71zM342.5 40.5q-50.5 -48.5 -127.5 -48.5t-127 48t-50 133t50.5 134t127.5 49t127 -50t50 -133.5t-50.5 -132zM316 174q0 143 -101 143q-78 0 -95 -81q-5 -27 -5 -62q0 -74 24 -109.5t77.5 -35.5t76.5 36.5t23 108.5z" />
    <glyph glyph-name="Obreve" unicode="&#x14e;" horiz-adv-x="780" 
d="M387 771q-69 0 -108.5 33.5t-44.5 100.5h54q4 -35 24.5 -49t76.5 -14q49 0 73 15.5t28 47.5h55q-6 -64 -48 -99t-110 -35zM119 238q0 -209 143 -209t143 210q0 104 -37 157q-38 52 -106 52q-103 0 -133 -118q-10 -39 -10 -92zM486 239.5q0 -116.5 -60 -184.5t-163.5 -68
t-164 68t-60.5 184.5t60.5 183t163.5 66.5t163.5 -66.5t60.5 -183z" />
    <glyph glyph-name="obreve" unicode="&#x14f;" horiz-adv-x="604" 
d="M299 606q-69 0 -108.5 33.5t-44.5 100.5h54q4 -35 24.5 -49t76.5 -14q49 0 73 15.5t28 47.5h55q-6 -64 -48 -99t-110 -35zM342.5 40.5q-50.5 -48.5 -127.5 -48.5t-127 48t-50 133t50.5 134t127.5 49t127 -50t50 -133.5t-50.5 -132zM316 174q0 143 -101 143q-78 0 -95 -81
q-5 -27 -5 -62q0 -74 24 -109.5t77.5 -35.5t76.5 36.5t23 108.5z" />
    <glyph glyph-name="Ohungarumlaut" unicode="&#x150;" horiz-adv-x="780" 
d="M246 783q17 22 42.5 65.5t44.5 82.5h96v-10q-16 -27 -58.5 -75t-74.5 -75h-50v12zM422 783q23 32 49 76.5t38 71.5h96v-10q-16 -27 -58.5 -75t-74.5 -75h-50v12zM119 238q0 -209 143 -209t143 210q0 104 -37 157q-38 52 -106 52q-103 0 -133 -118q-10 -39 -10 -92z
M486 239.5q0 -116.5 -60 -184.5t-163.5 -68t-164 68t-60.5 184.5t60.5 183t163.5 66.5t163.5 -66.5t60.5 -183z" />
    <glyph glyph-name="ohungarumlaut" unicode="&#x151;" horiz-adv-x="604" 
d="M154 618q17 22 42.5 65.5t44.5 82.5h96v-10q-16 -27 -58.5 -75t-74.5 -75h-50v12zM330 618q23 32 49 76.5t38 71.5h96v-10q-16 -27 -58.5 -75t-74.5 -75h-50v12zM342.5 40.5q-50.5 -48.5 -127.5 -48.5t-127 48t-50 133t50.5 134t127.5 49t127 -50t50 -133.5t-50.5 -132z
M316 174q0 143 -101 143q-78 0 -95 -81q-5 -27 -5 -62q0 -74 24 -109.5t77.5 -35.5t76.5 36.5t23 108.5z" />
    <glyph glyph-name="OE" unicode="&#x152;" horiz-adv-x="782" 
d="M342 471q59 11 172 11h205l9 -44q1 -8 5 -25t4 -30l-49 -1l-2 16q-2 13 -8 31q-24 12 -86 10l-30 -1l-74 -1v-170h114q22 0 33 17q4 6 8 20h17q0 -64 -4 -118h-21q-11 34 -29 40q-6 2 -15 2h-103v-186h154q38 0 48 12q6 17 10 55h42v-39q0 -16 -1.5 -33.5t-2.5 -29.5
q-34 -10 -68 -11l-63 -1l-155 5q-55 2 -105 6l-1 36h30q20 0 34 4q5 11 5 39v308q0 27 -5 39q-6 3 -14 3h-54v36zM119 238q0 -209 143 -209t143 210q0 104 -37 157q-38 52 -106 52q-103 0 -133 -118q-10 -39 -10 -92zM486 239.5q0 -116.5 -60 -184.5t-163.5 -68t-164 68
t-60.5 184.5t60.5 183t163.5 66.5t163.5 -66.5t60.5 -183z" />
    <glyph glyph-name="oe" unicode="&#x153;" horiz-adv-x="673" 
d="M566 202q1 1 1 2v4q0 76 -44 101q-16 9 -38 9q-88 0 -94 -116h175zM392 163q8 -129 120 -129q55 0 90 35l30 -13q-36 -64 -135 -64q-81 0 -129.5 47t-48.5 135q0 128 104 169q32 13 68 13q67 0 107.5 -37t40.5 -92.5t-28 -61.5q-10 -2 -23 -2h-196zM342.5 40.5
q-50.5 -48.5 -127.5 -48.5t-127 48t-50 133t50.5 134t127.5 49t127 -50t50 -133.5t-50.5 -132zM316 174q0 143 -101 143q-78 0 -95 -81q-5 -27 -5 -62q0 -74 24 -109.5t77.5 -35.5t76.5 36.5t23 108.5z" />
    <glyph glyph-name="Racute" unicode="&#x154;" horiz-adv-x="622" 
d="M236 244q118 0 118 99q0 54 -29 75.5t-97 21.5h-52v-196h60zM245 -5q-33 5 -104 5t-108 -5v47h30q20 0 34 4q6 13 6 39l-1 315q0 24 -5 37q-10 3 -31 3h-40v36q11 1 26 3t32.5 2.5t36 1.5t43.5 1h66q97 0 148 -31.5t51 -106.5q0 -96 -96 -130q15 -85 84 -148
q28 -26 48 -26h18v-47h-50q-55 0 -95 39q-28 29 -48 86q-9 24 -13.5 45.5t-8.5 38.5h-46t-46 1v-118q0 -28 5 -41q16 -4 34 -4h30v-47zM339 696q-46 -49 -102 -107h-46q14 23 24 40q29 51 40 67h84z" />
    <glyph glyph-name="racute" unicode="&#x155;" horiz-adv-x="413" 
d="M23 346q24 6 69 6t63 -6v-81q31 48 47 62q33 29 67 29t54 -10l-9 -93h-30l-8 49q-18 2 -28 2t-27 -9t-31 -25q-32 -38 -32 -80v-112q0 -32 6.5 -41t33.5 -13l3 -28q-48 4 -82 4t-76 -4l2 28q30 4 35.5 11t5.5 34v217q0 11 -2 23q-12 5 -23 5h-38v32zM264 531
q-46 -49 -102 -107h-46q14 23 24 40q29 51 40 67h84z" />
    <glyph glyph-name="uni0156" unicode="&#x156;" horiz-adv-x="622" 
d="M242 -209q11 25 24 70.5t17 77.5h87v-9q-8 -31 -31.5 -76.5t-48.5 -74.5h-48v12zM236 244q118 0 118 99q0 54 -29 75.5t-97 21.5h-52v-196h60zM245 -5q-33 5 -104 5t-108 -5v47h30q20 0 34 4q6 13 6 39l-1 315q0 24 -5 37q-10 3 -31 3h-40v36q11 1 26 3t32.5 2.5t36 1.5
t43.5 1h66q97 0 148 -31.5t51 -106.5q0 -96 -96 -130q15 -85 84 -148q28 -26 48 -26h18v-47h-50q-55 0 -95 39q-28 29 -48 86q-9 24 -13.5 45.5t-8.5 38.5h-46t-46 1v-118q0 -28 5 -41q16 -4 34 -4h30v-47z" />
    <glyph glyph-name="uni0157" unicode="&#x157;" horiz-adv-x="413" 
d="M48 -209q11 25 24 70.5t17 77.5h87v-9q-8 -31 -31.5 -76.5t-48.5 -74.5h-48v12zM23 346q24 6 69 6t63 -6v-81q31 48 47 62q33 29 67 29t54 -10l-9 -93h-30l-8 49q-18 2 -28 2t-27 -9t-31 -25q-32 -38 -32 -80v-112q0 -32 6.5 -41t33.5 -13l3 -28q-48 4 -82 4t-76 -4l2 28
q30 4 35.5 11t5.5 34v217q0 11 -2 23q-12 5 -23 5h-38v32z" />
    <glyph glyph-name="Rcaron" unicode="&#x158;" horiz-adv-x="622" 
d="M141 931h60q56 -36 107 -92q62 62 109 92h62v-13q-100 -100 -125 -147h-90q-29 50 -123 147v13zM236 244q118 0 118 99q0 54 -29 75.5t-97 21.5h-52v-196h60zM245 -5q-33 5 -104 5t-108 -5v47h30q20 0 34 4q6 13 6 39l-1 315q0 24 -5 37q-10 3 -31 3h-40v36q11 1 26 3
t32.5 2.5t36 1.5t43.5 1h66q97 0 148 -31.5t51 -106.5q0 -96 -96 -130q15 -85 84 -148q28 -26 48 -26h18v-47h-50q-55 0 -95 39q-28 29 -48 86q-9 24 -13.5 45.5t-8.5 38.5h-46t-46 1v-118q0 -28 5 -41q16 -4 34 -4h30v-47z" />
    <glyph glyph-name="rcaron" unicode="&#x159;" horiz-adv-x="413" 
d="M62 766h60q56 -36 107 -92q62 62 109 92h62v-13q-100 -100 -125 -147h-90q-29 50 -123 147v13zM23 346q24 6 69 6t63 -6v-81q31 48 47 62q33 29 67 29t54 -10l-9 -93h-30l-8 49q-18 2 -28 2t-27 -9t-31 -25q-32 -38 -32 -80v-112q0 -32 6.5 -41t33.5 -13l3 -28
q-48 4 -82 4t-76 -4l2 28q30 4 35.5 11t5.5 34v217q0 11 -2 23q-12 5 -23 5h-38v32z" />
    <glyph glyph-name="Sacute" unicode="&#x15a;" horiz-adv-x="548" 
d="M122 402q-7 -14 -7 -30q0 -31 23.5 -51.5t63.5 -34.5q85 -32 129 -66.5t44 -89.5q0 -101 -103 -134q-31 -9 -60 -9q-114 0 -179 57l15 90l51 -2q0 -53 14 -77q27 -27 91 -27q40 0 68.5 23t28.5 58q0 54 -79 93q-25 12 -54 23t-52 24q-74 41 -74 111q0 89 104 119
q35 10 77.5 10t82 -9t48.5 -24v-8l-2 -13q-4 -39 -9 -74l-43 4q0 47 -18.5 65t-70.5 18q-68 0 -89 -46zM317 696q-46 -49 -102 -107h-46q14 23 24 40q29 51 40 67h84z" />
    <glyph glyph-name="sacute" unicode="&#x15b;" horiz-adv-x="479" 
d="M183 356q69 0 103 -22q0 -12 -5.5 -37.5t-8.5 -45.5l-34 6q-1 15 -1.5 27.5t-1.5 20.5q-21 12 -62 12t-56 -12.5t-15 -35t18.5 -36t50.5 -24.5l34 -12q80 -27 97 -67q6 -14 6 -36q0 -48 -40.5 -75t-99.5 -27t-114 22q-15 6 -23 12l16 87l35 -4q2 -35 6 -65
q28 -15 80.5 -15t67.5 33q5 9 5 24t-15 27.5t-51 26.5l-29 11q-56 21 -75 37t-25.5 31t-6.5 37q0 46 37.5 73t106.5 27zM271 531q-46 -49 -102 -107h-46q14 23 24 40q29 51 40 67h84z" />
    <glyph glyph-name="Scircumflex" unicode="&#x15c;" horiz-adv-x="548" 
d="M116 782q61 65 86 96.5t37 52.5h90q25 -49 125 -149v-11h-62q-44 26 -109 90q-64 -62 -107 -90h-60v11zM122 402q-7 -14 -7 -30q0 -31 23.5 -51.5t63.5 -34.5q85 -32 129 -66.5t44 -89.5q0 -101 -103 -134q-31 -9 -60 -9q-114 0 -179 57l15 90l51 -2q0 -53 14 -77
q27 -27 91 -27q40 0 68.5 23t28.5 58q0 54 -79 93q-25 12 -54 23t-52 24q-74 41 -74 111q0 89 104 119q35 10 77.5 10t82 -9t48.5 -24v-8l-2 -13q-4 -39 -9 -74l-43 4q0 47 -18.5 65t-70.5 18q-68 0 -89 -46z" />
    <glyph glyph-name="scircumflex" unicode="&#x15d;" horiz-adv-x="479" 
d="M77 617q61 65 86 96.5t37 52.5h90q25 -49 125 -149v-11h-62q-44 26 -109 90q-64 -62 -107 -90h-60v11zM183 356q69 0 103 -22q0 -12 -5.5 -37.5t-8.5 -45.5l-34 6q-1 15 -1.5 27.5t-1.5 20.5q-21 12 -62 12t-56 -12.5t-15 -35t18.5 -36t50.5 -24.5l34 -12q80 -27 97 -67
q6 -14 6 -36q0 -48 -40.5 -75t-99.5 -27t-114 22q-15 6 -23 12l16 87l35 -4q2 -35 6 -65q28 -15 80.5 -15t67.5 33q5 9 5 24t-15 27.5t-51 26.5l-29 11q-56 21 -75 37t-25.5 31t-6.5 37q0 46 37.5 73t106.5 27z" />
    <glyph glyph-name="Scedilla" unicode="&#x15e;" horiz-adv-x="548" 
d="M122 402q-7 -14 -7 -30q0 -31 23.5 -51.5t63.5 -34.5q85 -32 129 -66.5t44 -89.5q0 -101 -103 -134q-31 -9 -60 -9q-114 0 -179 57l15 90l51 -2q0 -53 14 -77q27 -27 91 -27q40 0 68.5 23t28.5 58q0 54 -79 93q-25 12 -54 23t-52 24q-74 41 -74 111q0 89 104 119
q35 10 77.5 10t82 -9t48.5 -24v-8l-2 -13q-4 -39 -9 -74l-43 4q0 47 -18.5 65t-70.5 18q-68 0 -89 -46zM233 -62l-17 7l29 59h33l-19 -36q56 -2 71 -32q5 -11 5 -29q0 -36 -24 -55t-63 -19t-59 14q-2 6 -2 13q0 8 2 18q27 -8 46.5 -8.5t31.5 8.5t12 25q0 31 -34 37z" />
    <glyph glyph-name="scedilla" unicode="&#x15f;" horiz-adv-x="479" 
d="M183 356q69 0 103 -22q0 -12 -5.5 -37.5t-8.5 -45.5l-34 6q-1 15 -1.5 27.5t-1.5 20.5q-21 12 -62 12t-56 -12.5t-15 -35t18.5 -36t50.5 -24.5l34 -12q80 -27 97 -67q6 -14 6 -36q0 -48 -40.5 -75t-99.5 -27t-114 22q-15 6 -23 12l16 87l35 -4q2 -35 6 -65
q28 -15 80.5 -15t67.5 33q5 9 5 24t-15 27.5t-51 26.5l-29 11q-56 21 -75 37t-25.5 31t-6.5 37q0 46 37.5 73t106.5 27zM195 -62l-17 7l29 59h33l-19 -36q56 -2 71 -32q5 -11 5 -29q0 -36 -24 -55t-63 -19t-59 14q-2 6 -2 13q0 8 2 18q27 -8 46.5 -8.5t31.5 8.5t12 25
q0 31 -34 37z" />
    <glyph glyph-name="Scaron" unicode="&#x160;" horiz-adv-x="548" 
d="M114 931h60q56 -36 107 -92q62 62 109 92h62v-13q-100 -100 -125 -147h-90q-29 50 -123 147v13zM122 402q-7 -14 -7 -30q0 -31 23.5 -51.5t63.5 -34.5q85 -32 129 -66.5t44 -89.5q0 -101 -103 -134q-31 -9 -60 -9q-114 0 -179 57l15 90l51 -2q0 -53 14 -77q27 -27 91 -27
q40 0 68.5 23t28.5 58q0 54 -79 93q-25 12 -54 23t-52 24q-74 41 -74 111q0 89 104 119q35 10 77.5 10t82 -9t48.5 -24v-8l-2 -13q-4 -39 -9 -74l-43 4q0 47 -18.5 65t-70.5 18q-68 0 -89 -46z" />
    <glyph glyph-name="scaron" unicode="&#x161;" horiz-adv-x="479" 
d="M83 766h60q56 -36 107 -92q62 62 109 92h62v-13q-100 -100 -125 -147h-90q-29 50 -123 147v13zM183 356q69 0 103 -22q0 -12 -5.5 -37.5t-8.5 -45.5l-34 6q-1 15 -1.5 27.5t-1.5 20.5q-21 12 -62 12t-56 -12.5t-15 -35t18.5 -36t50.5 -24.5l34 -12q80 -27 97 -67
q6 -14 6 -36q0 -48 -40.5 -75t-99.5 -27t-114 22q-15 6 -23 12l16 87l35 -4q2 -35 6 -65q28 -15 80.5 -15t67.5 33q5 9 5 24t-15 27.5t-51 26.5l-29 11q-56 21 -75 37t-25.5 31t-6.5 37q0 46 37.5 73t106.5 27z" />
    <glyph glyph-name="uni0162" unicode="&#x162;" horiz-adv-x="556" 
d="M452 476l-4 -118h-42q0 56 -11 82h-123v-353q0 -25 4 -41q16 -4 36 -4h30v-47q-32 5 -104 5t-109 -5v47h30q20 0 34 4q5 13 5 35v359h-123q-11 -20 -11 -82h-46l-4 118q12 6 79 6l71 -2h32l43 -1l49 1h28l56 2q68 0 80 -6zM246 -62l-17 7l29 59h33l-19 -36q56 -2 71 -32
q5 -11 5 -29q0 -36 -24 -55t-63 -19t-59 14q-2 6 -2 13q0 8 2 18q27 -8 46.5 -8.5t31.5 8.5t12 25q0 31 -34 37z" />
    <glyph glyph-name="uni0163" unicode="&#x163;" horiz-adv-x="360" 
d="M180 -4q-99 0 -99 104v205h-68v18q0 8 4 11t12 5l56 7l9 61q3 21 8 31l6 16h45v-108h107v-18q0 -14 -5 -18.5t-18 -4.5h-84v-198q0 -59 28 -69q9 -4 21 -4t27 5q1 11 2.5 22t2.5 22t3 21l44 3l3 -91q-42 -20 -104 -20zM187 -62l-17 7l29 59h33l-19 -36q56 -2 71 -32
q5 -11 5 -29q0 -36 -24 -55t-63 -19t-59 14q-2 6 -2 13q0 8 2 18q27 -8 46.5 -8.5t31.5 8.5t12 25q0 31 -34 37z" />
    <glyph glyph-name="Tcaron" unicode="&#x164;" horiz-adv-x="556" 
d="M110 931h60q56 -36 107 -92q62 62 109 92h62v-13q-100 -100 -125 -147h-90q-29 50 -123 147v13zM452 476l-4 -118h-42q0 56 -11 82h-123v-353q0 -25 4 -41q16 -4 36 -4h30v-47q-32 5 -104 5t-109 -5v47h30q20 0 34 4q5 13 5 35v359h-123q-11 -20 -11 -82h-46l-4 118
q12 6 79 6l71 -2h32l43 -1l49 1h28l56 2q68 0 80 -6z" />
    <glyph glyph-name="tcaron" unicode="&#x165;" horiz-adv-x="360" 
d="M246 612q11 32 20.5 77.5t12.5 70.5h87v-9q-6 -26 -27 -71t-45 -80h-48v12zM180 -4q-99 0 -99 104v205h-68v18q0 8 4 11t12 5l56 7l9 61q3 21 8 31l6 16h45v-108h107v-18q0 -14 -5 -18.5t-18 -4.5h-84v-198q0 -59 28 -69q9 -4 21 -4t27 5q1 11 2.5 22t2.5 22t3 21l44 3
l3 -91q-42 -20 -104 -20z" />
    <glyph glyph-name="Tbar" unicode="&#x166;" horiz-adv-x="556" 
d="M232 399v235h-222v80h535v-80h-223v-235h148v-74h-148v-325h-90v325h-149v74h149z" />
    <glyph glyph-name="tbar" unicode="&#x167;" horiz-adv-x="360" 
d="M266 62q42 0 73 11v-67q-13 -6 -39 -11t-54 -5q-154 0 -154 171v119h-68v66h68v122h-76v42l77 35l35 114h52v-123h155v-68h-155v-122h146v-66h-146v-114q0 -52 21 -78t65 -26z" />
    <glyph glyph-name="Utilde" unicode="&#x168;" horiz-adv-x="730" 
d="M440 772q-21 0 -41 9t-39.5 19.5t-37 19.5t-34.5 9q-24 0 -36 -14.5t-19 -43.5h-51q6 60 34 94t76 34q22 0 42.5 -9t39.5 -19.5t37 -19.5t33 -9q23 0 35.5 14.5t19.5 43.5h50q-6 -58 -34 -93t-75 -35zM330 477q37 5 102.5 5t95.5 -6v-36h-31q-21 0 -35 -4q-5 -13 -5 -40
v-223q0 -88 -52.5 -137t-138.5 -49q-186 0 -186 209v200q0 27 -5 40q-11 4 -34 4h-31v37q38 5 111 5t103 -6v-36h-31q-19 0 -35 -4q-4 -12 -4 -32v-8v-228q0 -103 72 -130q22 -9 50 -9q64 0 94 40t30 124v203q0 27 -5 40q-11 4 -35 4h-30v37z" />
    <glyph glyph-name="utilde" unicode="&#x169;" horiz-adv-x="618" 
d="M383 607q-21 0 -41 9t-39.5 19.5t-37 19.5t-34.5 9q-24 0 -36 -14.5t-19 -43.5h-51q6 60 34 94t76 34q22 0 42.5 -9t39.5 -19.5t37 -19.5t33 -9q23 0 35.5 14.5t19.5 43.5h50q-6 -58 -34 -93t-75 -35zM248 346q24 6 69 6t61 -6v-256q0 -26 6 -56h54v-29q-40 -9 -79 -9
t-48.5 6t-9.5 25v11l-27 -18q-42 -28 -101 -28q-98 0 -98 108v178q0 18 -4 32q-12 4 -28 4h-28v32q24 6 69.5 6t61.5 -6v-228q0 -44 7 -58q14 -26 54.5 -26t84.5 28q9 6 9 7q6 33 6 109v100q0 19 -4 32q-12 4 -28 4h-27v32z" />
    <glyph glyph-name="Umacron" unicode="&#x16a;" horiz-adv-x="730" 
d="M217 842h297v-71h-297v71zM330 477q37 5 102.5 5t95.5 -6v-36h-31q-21 0 -35 -4q-5 -13 -5 -40v-223q0 -88 -52.5 -137t-138.5 -49q-186 0 -186 209v200q0 27 -5 40q-11 4 -34 4h-31v37q38 5 111 5t103 -6v-36h-31q-19 0 -35 -4q-4 -12 -4 -32v-8v-228q0 -103 72 -130
q22 -9 50 -9q64 0 94 40t30 124v203q0 27 -5 40q-11 4 -35 4h-30v37z" />
    <glyph glyph-name="umacron" unicode="&#x16b;" horiz-adv-x="618" 
d="M159 677h297v-71h-297v71zM248 346q24 6 69 6t61 -6v-256q0 -26 6 -56h54v-29q-40 -9 -79 -9t-48.5 6t-9.5 25v11l-27 -18q-42 -28 -101 -28q-98 0 -98 108v178q0 18 -4 32q-12 4 -28 4h-28v32q24 6 69.5 6t61.5 -6v-228q0 -44 7 -58q14 -26 54.5 -26t84.5 28q9 6 9 7
q6 33 6 109v100q0 19 -4 32q-12 4 -28 4h-27v32z" />
    <glyph glyph-name="Ubreve" unicode="&#x16c;" horiz-adv-x="730" 
d="M361 771q-69 0 -108.5 33.5t-44.5 100.5h54q4 -35 24.5 -49t76.5 -14q49 0 73 15.5t28 47.5h55q-6 -64 -48 -99t-110 -35zM330 477q37 5 102.5 5t95.5 -6v-36h-31q-21 0 -35 -4q-5 -13 -5 -40v-223q0 -88 -52.5 -137t-138.5 -49q-186 0 -186 209v200q0 27 -5 40
q-11 4 -34 4h-31v37q38 5 111 5t103 -6v-36h-31q-19 0 -35 -4q-4 -12 -4 -32v-8v-228q0 -103 72 -130q22 -9 50 -9q64 0 94 40t30 124v203q0 27 -5 40q-11 4 -35 4h-30v37z" />
    <glyph glyph-name="ubreve" unicode="&#x16d;" horiz-adv-x="618" 
d="M303 606q-69 0 -108.5 33.5t-44.5 100.5h54q4 -35 24.5 -49t76.5 -14q49 0 73 15.5t28 47.5h55q-6 -64 -48 -99t-110 -35zM248 346q24 6 69 6t61 -6v-256q0 -26 6 -56h54v-29q-40 -9 -79 -9t-48.5 6t-9.5 25v11l-27 -18q-42 -28 -101 -28q-98 0 -98 108v178q0 18 -4 32
q-12 4 -28 4h-28v32q24 6 69.5 6t61.5 -6v-228q0 -44 7 -58q14 -26 54.5 -26t84.5 28q9 6 9 7q6 33 6 109v100q0 19 -4 32q-12 4 -28 4h-27v32z" />
    <glyph glyph-name="Uring" unicode="&#x16e;" horiz-adv-x="730" 
d="M475 878q0 -49 -30.5 -78t-80.5 -29t-79.5 28.5t-29.5 77.5q0 48 29.5 76.5t79.5 28.5q49 0 80 -29t31 -75zM420 877q0 26 -16 41t-40 15t-40 -15t-16 -41t14.5 -41t41.5 -15q25 0 40.5 15t15.5 41zM330 477q37 5 102.5 5t95.5 -6v-36h-31q-21 0 -35 -4q-5 -13 -5 -40
v-223q0 -88 -52.5 -137t-138.5 -49q-186 0 -186 209v200q0 27 -5 40q-11 4 -34 4h-31v37q38 5 111 5t103 -6v-36h-31q-19 0 -35 -4q-4 -12 -4 -32v-8v-228q0 -103 72 -130q22 -9 50 -9q64 0 94 40t30 124v203q0 27 -5 40q-11 4 -35 4h-30v37z" />
    <glyph glyph-name="uring" unicode="&#x16f;" horiz-adv-x="618" 
d="M417 713q0 -49 -30.5 -78t-80.5 -29t-79.5 28.5t-29.5 77.5q0 48 29.5 76.5t79.5 28.5q49 0 80 -29t31 -75zM362 712q0 26 -16 41t-40 15t-40 -15t-16 -41t14.5 -41t41.5 -15q25 0 40.5 15t15.5 41zM248 346q24 6 69 6t61 -6v-256q0 -26 6 -56h54v-29q-40 -9 -79 -9
t-48.5 6t-9.5 25v11l-27 -18q-42 -28 -101 -28q-98 0 -98 108v178q0 18 -4 32q-12 4 -28 4h-28v32q24 6 69.5 6t61.5 -6v-228q0 -44 7 -58q14 -26 54.5 -26t84.5 28q9 6 9 7q6 33 6 109v100q0 19 -4 32q-12 4 -28 4h-27v32z" />
    <glyph glyph-name="Uhungarumlaut" unicode="&#x170;" horiz-adv-x="730" 
d="M221 783q17 22 42.5 65.5t44.5 82.5h96v-10q-16 -27 -58.5 -75t-74.5 -75h-50v12zM397 783q23 32 49 76.5t38 71.5h96v-10q-16 -27 -58.5 -75t-74.5 -75h-50v12zM330 477q37 5 102.5 5t95.5 -6v-36h-31q-21 0 -35 -4q-5 -13 -5 -40v-223q0 -88 -52.5 -137t-138.5 -49
q-186 0 -186 209v200q0 27 -5 40q-11 4 -34 4h-31v37q38 5 111 5t103 -6v-36h-31q-19 0 -35 -4q-4 -12 -4 -32v-8v-228q0 -103 72 -130q22 -9 50 -9q64 0 94 40t30 124v203q0 27 -5 40q-11 4 -35 4h-30v37z" />
    <glyph glyph-name="uhungarumlaut" unicode="&#x171;" horiz-adv-x="618" 
d="M164 618q17 22 42.5 65.5t44.5 82.5h96v-10q-16 -27 -58.5 -75t-74.5 -75h-50v12zM340 618q23 32 49 76.5t38 71.5h96v-10q-16 -27 -58.5 -75t-74.5 -75h-50v12zM248 346q24 6 69 6t61 -6v-256q0 -26 6 -56h54v-29q-40 -9 -79 -9t-48.5 6t-9.5 25v11l-27 -18
q-42 -28 -101 -28q-98 0 -98 108v178q0 18 -4 32q-12 4 -28 4h-28v32q24 6 69.5 6t61.5 -6v-228q0 -44 7 -58q14 -26 54.5 -26t84.5 28q9 6 9 7q6 33 6 109v100q0 19 -4 32q-12 4 -28 4h-27v32z" />
    <glyph glyph-name="Uogonek" unicode="&#x172;" horiz-adv-x="730" 
d="M356 -116q0 -22 12 -33.5t33 -11.5t48 6v-56q-34 -9 -62 -9q-103 0 -103 94q0 68 78 126h62q-34 -32 -51 -58.5t-17 -57.5zM330 477q37 5 102.5 5t95.5 -6v-36h-31q-21 0 -35 -4q-5 -13 -5 -40v-223q0 -88 -52.5 -137t-138.5 -49q-186 0 -186 209v200q0 27 -5 40
q-11 4 -34 4h-31v37q38 5 111 5t103 -6v-36h-31q-19 0 -35 -4q-4 -12 -4 -32v-8v-228q0 -103 72 -130q22 -9 50 -9q64 0 94 40t30 124v203q0 27 -5 40q-11 4 -35 4h-30v37z" />
    <glyph glyph-name="uogonek" unicode="&#x173;" horiz-adv-x="618" 
d="M458 -116q0 -22 12 -33.5t33 -11.5t48 6v-56q-34 -9 -62 -9q-103 0 -103 94q0 68 78 126h62q-34 -32 -51 -58.5t-17 -57.5zM248 346q24 6 69 6t61 -6v-256q0 -26 6 -56h54v-29q-40 -9 -79 -9t-48.5 6t-9.5 25v11l-27 -18q-42 -28 -101 -28q-98 0 -98 108v178q0 18 -4 32
q-12 4 -28 4h-28v32q24 6 69.5 6t61.5 -6v-228q0 -44 7 -58q14 -26 54.5 -26t84.5 28q9 6 9 7q6 33 6 109v100q0 19 -4 32q-12 4 -28 4h-27v32z" />
    <glyph glyph-name="Wcircumflex" unicode="&#x174;" horiz-adv-x="930" 
d="M294 782q61 65 86 96.5t37 52.5h90q25 -49 125 -149v-11h-62q-44 26 -109 90q-64 -62 -107 -90h-60v11zM6 476q40 6 108.5 6t101.5 -6l4 -36h-24q-19 0 -33 -4q1 -8 4.5 -17t8.5 -23l105 -324h3q5 13 9.5 27.5t10 31.5t12.5 39t15 50.5t18 65.5t20.5 75t16.5 106h41
q17 0 23 -11q2 -3 4 -7l122 -379h3q14 47 25.5 84.5t20.5 68t16 55t22.5 77.5t15.5 64v13q0 2 -1 4q-9 4 -33 4h-23l-2 36q40 6 97 6t82 -6l-5 -36h-17q-18 0 -36 -4q-9 -19 -18 -52q-53 -201 -125 -384h-56q-13 0 -15 4q-7 12 -8.5 19.5t-3.5 9.5l-99 304
q-49 -182 -112 -337h-54q-19 0 -24 15l-129 381q-5 13 -11 22.5t-11 17.5q-11 4 -36 4h-25z" />
    <glyph glyph-name="wcircumflex" unicode="&#x175;" horiz-adv-x="786" 
d="M224 617q61 65 86 96.5t37 52.5h90q25 -49 125 -149v-11h-62q-44 26 -109 90q-64 -62 -107 -90h-60v11zM1 346q17 6 78 6t95 -6l5 -32h-18q-18 0 -27 -5l86 -260l37 115q8 23 15.5 47.5t21 64.5t18.5 60h19q29 0 34 -11l91 -280l66 235q2 8 2 15t4 14q-8 5 -24 5h-19
l4 32q20 6 72.5 6t76.5 -6v-32h-18q-18 0 -31 -5q-12 -33 -24 -66.5t-23.5 -65t-21.5 -60t-18.5 -52t-15 -41t-9.5 -27.5h-39q-28 0 -36 17q-2 6 -4 14l-72 210q-22 -66 -85 -241h-39q-31 0 -36 15l-96 268q-6 17 -15 29q-13 5 -31 5h-18z" />
    <glyph glyph-name="Ycircumflex" unicode="&#x176;" horiz-adv-x="565" 
d="M114 782q61 65 86 96.5t37 52.5h90q25 -49 125 -149v-11h-62q-44 26 -109 90q-64 -62 -107 -90h-60v11zM189 440q-21 0 -33 -4q0 -8 5 -17t8 -15l108 -184q24 44 38.5 71t23.5 43.5t26.5 49.5t20.5 52q-8 4 -32 4h-24l8 36q44 6 107 6t89 -6l-13 -36h-29q-18 0 -36 -4
q-4 -6 -8 -11t-6 -9t-8.5 -15.5t-16.5 -28.5t-22.5 -38.5t-35 -58.5t-61.5 -102v-86q0 -25 6 -41q16 -4 33 -4h31v-47q-32 5 -103 5t-109 -5v47h30q18 0 34 4q5 13 7 39v79l-137 232q-8 13 -12.5 22.5t-10.5 17.5q-11 4 -35 4h-26l-10 36q42 6 109 6t102 -6l6 -36h-24z" />
    <glyph glyph-name="ycircumflex" unicode="&#x177;" horiz-adv-x="509" 
d="M89 617q61 65 86 96.5t37 52.5h90q25 -49 125 -149v-11h-62q-44 26 -109 90q-64 -62 -107 -90h-60v11zM166 313q-21 0 -28 -5q0 -5 20.5 -55t29.5 -74l49 -122l88 223q2 8 4.5 15t4.5 14q-8 5 -27 5h-19l5 32q19 6 72.5 6t75.5 -6v-32h-18q-29 0 -33 -8q-1 -2 -3.5 -8
t-7.5 -16t-11 -27l-140 -321q-36 -80 -92 -94q-19 -4 -48.5 -4t-44.5 10l8 46q23 -9 44.5 -9t33 3t27 18.5t41.5 80.5l-124 294q-4 8 -7.5 15.5t-8.5 13.5q-13 5 -30 5h-19l-5 32q21 7 84.5 7t91.5 -7l6 -32h-19z" />
    <glyph glyph-name="Ydieresis" unicode="&#x178;" horiz-adv-x="531" 
d="M312 576q-4 9 -4 25t13 28.5t33.5 12.5t33 -13.5t12.5 -33.5t-13 -33t-33 -13q-31 0 -42 27zM160 576q-4 9 -4 25t13 28.5t33.5 12.5t33 -13.5t12.5 -33.5t-13 -33t-33 -13q-31 0 -42 27zM189 440q-21 0 -33 -4q0 -8 5 -17t8 -15l108 -184q24 44 38.5 71t23.5 43.5
t26.5 49.5t20.5 52q-8 4 -32 4h-24l8 36q44 6 107 6t89 -6l-13 -36h-29q-18 0 -36 -4q-4 -6 -8 -11t-6 -9t-8.5 -15.5t-16.5 -28.5t-22.5 -38.5t-35 -58.5t-61.5 -102v-86q0 -25 6 -41q16 -4 33 -4h31v-47q-32 5 -103 5t-109 -5v47h30q18 0 34 4q5 13 7 39v79l-137 232
q-8 13 -12.5 22.5t-10.5 17.5q-11 4 -35 4h-26l-10 36q42 6 109 6t102 -6l6 -36h-24z" />
    <glyph glyph-name="Zacute" unicode="&#x179;" horiz-adv-x="571" 
d="M87 414l1 -37h-36q0 2 -2.5 16t-4 24.5l-3 21t-3 18.5t-1.5 13q43 12 173 12h157q14 -9 14 -26v-18l-280 -396h171q26 0 36 12q20 24 20 78h54v-103q0 -9 -2 -19q0 -10 -83 -10h-262q-12 9 -12 27v18l274 395h-93q-8 0 -20.5 -1t-32.5 -2t-42.5 -7t-22.5 -16zM311 696
q-46 -49 -102 -107h-46q14 23 24 40q29 51 40 67h84z" />
    <glyph glyph-name="zacute" unicode="&#x17a;" horiz-adv-x="470" 
d="M36 347l48 -1h158q55 0 60 -1t11 -5t6 -20v-26l-220 -259h135q32 0 45 8l14 51q8 1 16.5 0.5t16.5 -0.5l2 -56v-42q-40 4 -74 4h-209q-9 0 -12.5 5t-3.5 22v20l224 264h-122q-32 0 -46 -8l-14 -51q-8 -1 -16 -1h-16l-3 65v31zM271 531q-46 -49 -102 -107h-46q14 23 24 40
q29 51 40 67h84z" />
    <glyph glyph-name="Zdotaccent" unicode="&#x17b;" horiz-adv-x="571" 
d="M233 846q0 29 15 42.5t37 13.5q21 0 36 -13.5t15 -42.5t-15.5 -42.5t-35.5 -13.5q-22 0 -37 13.5t-15 42.5zM87 414l1 -37h-36q0 2 -2.5 16t-4 24.5l-3 21t-3 18.5t-1.5 13q43 12 173 12h157q14 -9 14 -26v-18l-280 -396h171q26 0 36 12q20 24 20 78h54v-103q0 -9 -2 -19
q0 -10 -83 -10h-262q-12 9 -12 27v18l274 395h-93q-8 0 -20.5 -1t-32.5 -2t-42.5 -7t-22.5 -16z" />
    <glyph glyph-name="zdotaccent" unicode="&#x17c;" horiz-adv-x="470" 
d="M185 681q0 29 15 42.5t37 13.5q21 0 36 -13.5t15 -42.5t-15.5 -42.5t-35.5 -13.5q-22 0 -37 13.5t-15 42.5zM36 347l48 -1h158q55 0 60 -1t11 -5t6 -20v-26l-220 -259h135q32 0 45 8l14 51q8 1 16.5 0.5t16.5 -0.5l2 -56v-42q-40 4 -74 4h-209q-9 0 -12.5 5t-3.5 22v20
l224 264h-122q-32 0 -46 -8l-14 -51q-8 -1 -16 -1h-16l-3 65v31z" />
    <glyph glyph-name="Zcaron" unicode="&#x17d;" horiz-adv-x="571" 
d="M119 931h60q56 -36 107 -92q62 62 109 92h62v-13q-100 -100 -125 -147h-90q-29 50 -123 147v13zM87 414l1 -37h-36q0 2 -2.5 16t-4 24.5l-3 21t-3 18.5t-1.5 13q43 12 173 12h157q14 -9 14 -26v-18l-280 -396h171q26 0 36 12q20 24 20 78h54v-103q0 -9 -2 -19
q0 -10 -83 -10h-262q-12 9 -12 27v18l274 395h-93q-8 0 -20.5 -1t-32.5 -2t-42.5 -7t-22.5 -16z" />
    <glyph glyph-name="zcaron" unicode="&#x17e;" horiz-adv-x="470" 
d="M68 766h60q56 -36 107 -92q62 62 109 92h62v-13q-100 -100 -125 -147h-90q-29 50 -123 147v13zM36 347l48 -1h158q55 0 60 -1t11 -5t6 -20v-26l-220 -259h135q32 0 45 8l14 51q8 1 16.5 0.5t16.5 -0.5l2 -56v-42q-40 4 -74 4h-209q-9 0 -12.5 5t-3.5 22v20l224 264h-122
q-32 0 -46 -8l-14 -51q-8 -1 -16 -1h-16l-3 65v31z" />
    <glyph glyph-name="longs" unicode="&#x17f;" horiz-adv-x="326" 
d="M261 692q-46 0 -67 -28.5t-21 -86.5v-577h-88v577q0 188 177 188q49 0 100 -19l-23 -69q-44 15 -78 15z" />
    <glyph glyph-name="uni0180" unicode="&#x180;" horiz-adv-x="615" 
d="M339 545q106 0 163.5 -73t57.5 -204q0 -133 -58.5 -205.5t-162.5 -72.5q-54 0 -96.5 19.5t-69.5 58.5h-7q-15 -59 -18 -68h-63v605h-76v66h76v89h88v-89h213v-66h-213v-30q0 -55 -5 -110h5q54 80 166 80zM324 472q-81 0 -116 -46t-35 -155v-4q0 -110 36 -157t117 -47
q72 0 107.5 53t35.5 153q0 102 -35.5 152.5t-109.5 50.5z" />
    <glyph glyph-name="uni0181" unicode="&#x181;" horiz-adv-x="729" 
d="M151 637q-61 0 -61 -50q0 -30 10 -54h-79q-4 10 -7.5 26.5t-3.5 28.5q0 65 34.5 95.5t106.5 30.5h230q144 0 207.5 -43t63.5 -134q0 -63 -34.5 -104.5t-101.5 -53.5v-5q82 -14 121 -57t39 -114q0 -96 -66 -149.5t-182 -53.5h-251v637h-26zM267 410h132q84 0 122 27t38 90
q0 59 -41.5 84.5t-132.5 25.5h-118v-227zM267 335v-259h144q86 0 127.5 33.5t41.5 100.5q0 64 -44 94.5t-132 30.5h-137z" />
    <glyph glyph-name="uni0182" unicode="&#x182;" horiz-adv-x="615" 
d="M564 209q0 -105 -63.5 -157t-194.5 -52h-209v714h424v-79h-334v-223h106q137 0 204 -48.5t67 -154.5zM187 77h110q92 0 133 31t41 101q0 68 -43 96.5t-146 28.5h-95v-257z" />
    <glyph glyph-name="uni0183" unicode="&#x183;" horiz-adv-x="615" 
d="M339 545q106 0 163.5 -73t57.5 -204q0 -133 -58.5 -205.5t-162.5 -72.5q-54 0 -96.5 19.5t-69.5 58.5h-7q-15 -59 -18 -68h-63v760h421v-74h-333v-111q0 -55 -5 -110h5q54 80 166 80zM324 472q-81 0 -116 -46t-35 -155v-4q0 -110 36 -157t117 -47q72 0 107.5 53t35.5 153
q0 102 -35.5 152.5t-109.5 50.5z" />
    <glyph glyph-name="uni0184" unicode="&#x184;" horiz-adv-x="634" 
d="M180 210q0 -77 37.5 -110t122.5 -33q80 0 115.5 35.5t35.5 102.5q0 69 -48 99t-140 30h-123v-124zM90 714h90v-302h134q129 0 199.5 -53t70.5 -154t-63.5 -158t-179.5 -57q-251 0 -251 220v504z" />
    <glyph glyph-name="uni0185" unicode="&#x185;" horiz-adv-x="611" 
d="M322 -10q-115 0 -177.5 72.5t-62.5 204.5v493h88v-185q0 -55 -5 -110h5q54 80 166 80q106 0 163.5 -73t57.5 -204q0 -134 -61 -206t-174 -72zM170 265q0 -96 40.5 -149t112.5 -53t107.5 53t35.5 153q0 102 -35.5 152.5t-109.5 50.5q-81 0 -116 -46t-35 -155v-6z" />
    <glyph glyph-name="uni0186" unicode="&#x186;" horiz-adv-x="631" 
d="M243 724q158 0 243 -96t85 -272q0 -110 -39.5 -192.5t-114.5 -128t-174 -45.5q-55 0 -98 6.5t-86 22.5v78q94 -28 170 -28q115 0 181 77t66 211q0 137 -63.5 212.5t-183.5 75.5q-77 0 -162 -39l-36 76q84 42 212 42z" />
    <glyph glyph-name="uni0187" unicode="&#x187;" horiz-adv-x="631" 
d="M403 645q-115 0 -181 -77t-66 -211q0 -138 64 -213t182 -75q76 0 171 28v-78q-45 -17 -87 -23t-97 -6q-158 0 -243 96t-85 272q0 110 41 193t118.5 128t183.5 45q61 0 117 -14v14q0 64 27 99t88 35q30 0 60 -13v-72q-24 10 -52 10q-47 0 -47 -48v-51l-36 -78
q-33 15 -71.5 27t-86.5 12z" />
    <glyph glyph-name="uni0188" unicode="&#x188;" horiz-adv-x="502" 
d="M300 -10q-116 0 -180.5 71t-64.5 204q0 135 65.5 208t185.5 73q27 0 65 -6v91q0 64 26.5 99t88.5 35q29 0 60 -13v-73q-23 10 -52 10q-47 0 -47 -48v-124l-27 -73q-68 25 -116 25q-81 0 -119.5 -51t-38.5 -152q0 -97 38.5 -148.5t114.5 -51.5q71 0 139 31v-78
q-55 -29 -138 -29z" />
    <glyph glyph-name="uni0189" unicode="&#x189;" horiz-adv-x="729" 
d="M669 364q0 -175 -96 -269.5t-278 -94.5h-191v314h-74v78h74v322h213q167 0 259.5 -92t92.5 -258zM574 361q0 137 -68 206.5t-202 69.5h-110v-245h178v-78h-178v-237h90q290 0 290 284z" />
    <glyph glyph-name="uni018A" unicode="&#x18a;" horiz-adv-x="810" 
d="M654 361q0 136 -67 206t-203 70h-117v-560h97q290 0 290 284zM397 714q168 0 260 -92.5t92 -257.5q0 -177 -96.5 -270.5t-276.5 -93.5h-199v637h-26q-61 0 -61 -50q0 -30 10 -54h-79q-4 10 -7.5 26.5t-3.5 28.5q0 65 34.5 95.5t106.5 30.5h246z" />
    <glyph glyph-name="uni018B" unicode="&#x18b;" horiz-adv-x="615" 
d="M428 335h-82q-106 0 -154 -32t-48 -101q0 -63 44 -94t139 -31h101v258zM518 714v-714h-199q-268 0 -268 198q0 103 73.5 158.5t211.5 55.5h92v223h-334v79h424z" />
    <glyph glyph-name="uni018C" unicode="&#x18c;" horiz-adv-x="615" 
d="M289 63q80 0 117 43.5t37 143.5v16q0 112 -37.5 159.5t-117.5 47.5q-68 0 -105 -54t-37 -154t37 -151t106 -51zM530 0h-71l-13 72h-4q-56 -82 -167 -82q-104 0 -162 72.5t-58 204.5q0 131 58 205t163 74q108 0 166 -79h6q-1 10 -3.5 39.5t-2.5 39.5v140h-333v74h421v-760
z" />
    <glyph glyph-name="uni018D" unicode="&#x18d;" horiz-adv-x="604" 
d="M341 294q66 -38 95 -77t29 -87q0 -64 -48 -102t-132 -38q-51 0 -97 11.5t-109 42.5l38 69q37 -21 79 -36t93 -15q40 0 63.5 18.5t23.5 50.5q0 34 -26.5 60t-107.5 70q-104 57 -146 117t-42 136q0 115 66 180.5t184 65.5q112 0 179 -60.5t67 -163.5q0 -87 -54 -149.5
t-155 -92.5zM145 515q0 -62 30 -105.5t96 -77.5q92 22 139.5 74t47.5 131q0 67 -41.5 108.5t-112.5 41.5q-77 0 -118 -44.5t-41 -127.5z" />
    <glyph glyph-name="uni018E" unicode="&#x18e;" horiz-adv-x="556" 
d="M60 79h309v255h-291v78h291v223h-309v79h399v-714h-399v79z" />
    <glyph glyph-name="uni018F" unicode="&#x18f;" horiz-adv-x="738" 
d="M332 646q-110 0 -228 -41v82q61 21 114 29.5t116 8.5q162 0 252.5 -97.5t90.5 -271.5q0 -171 -85 -268.5t-237 -97.5q-147 0 -221.5 92t-74.5 275v34h523q-8 126 -71 190.5t-179 64.5zM355 69q100 0 159.5 63.5t67.5 179.5h-427q0 -125 49 -184t151 -59z" />
    <glyph glyph-name="uni0190" unicode="&#x190;" horiz-adv-x="587" 
d="M87 547q0 82 60.5 129.5t166.5 47.5q64 0 124 -18.5t109 -55.5l-43 -61q-52 36 -94 48.5t-94 12.5q-63 0 -99.5 -30.5t-36.5 -81.5q0 -60 48 -95.5t145 -35.5h97v-75h-102q-110 0 -165 -33t-55 -97q0 -67 48.5 -102.5t139.5 -35.5q105 0 214 52v-82q-90 -44 -219 -44
q-135 0 -206 52t-71 153q0 76 46.5 121t137.5 57v4q-72 12 -111.5 56.5t-39.5 113.5z" />
    <glyph glyph-name="uni0191" unicode="&#x191;" horiz-adv-x="519" 
d="M45 -240q-32 0 -56 13v76q21 -10 45 -10q35 0 49 20t14 62v793h399v-79h-309v-253h290v-79h-290v-386q0 -157 -142 -157z" />
    <glyph glyph-name="florin" unicode="&#x192;" horiz-adv-x="277" 
d="M275 433q-10 1 -24 1.5t-25.5 -5.5t-20.5 -18q-14 -19 -23 -69l-14 -79h75l-6 -37h-76l-37 -197q-14 -71 -39 -96q-26 -27 -79 -27q-18 0 -33 1l5 39q23 0 38.5 3t25.5 12q18 17 29 80l35 185h-68l6 37h69l21 112q15 80 78 96q19 5 34 5q23 0 37 -4z" />
    <glyph glyph-name="uni0193" unicode="&#x193;" horiz-adv-x="728" 
d="M407 377h247v-350q-57 -18 -115.5 -27.5t-135.5 -9.5q-163 0 -252.5 97t-89.5 270q0 112 44.5 195.5t128 127.5t197.5 44q71 0 137 -17v17q0 64 27 99t88 35q29 0 60 -13v-72q-24 10 -52 10q-47 0 -47 -48v-53l-34 -78q-94 41 -184 41q-127 0 -199 -77t-72 -211
q0 -142 68.5 -215.5t200.5 -73.5q72 0 140 17v212h-157v80z" />
    <glyph glyph-name="uni0194" unicode="&#x194;" horiz-adv-x="569" 
d="M334 108q33 -65 50 -121t17 -94q0 -59 -32 -96t-84 -37q-54 0 -85 37.5t-31 95.5q0 78 67 214l-236 607h94q89 -237 136.5 -362t54.5 -167q10 51 50 158l140 371h95zM319 -105q0 26 -8.5 62t-25.5 68q-19 -38 -26.5 -72t-7.5 -56q0 -31 9.5 -45t24.5 -14q34 0 34 57z" />
    <glyph glyph-name="uni0195" unicode="&#x195;" horiz-adv-x="934" 
d="M639 63q67 0 96.5 36t29.5 113v324h88v-327q0 -114 -51 -166.5t-163 -52.5q-110 0 -162 48.5t-52 147.5v157q0 65 -26 97t-83 32q-74 0 -108.5 -45.5t-34.5 -149.5v-277h-88v760h88v-223q0 -44 -5 -75h6q24 42 66 62.5t90 20.5q91 0 137 -46.5t46 -149.5v-157
q0 -65 30.5 -97t95.5 -32z" />
    <glyph glyph-name="uni0196" unicode="&#x196;" horiz-adv-x="348" 
d="M179 714v-549q0 -48 18 -72t59 -24q21 0 44 3.5t38 7.5v-74q-13 -6 -40 -11t-55 -5q-80 0 -116.5 41.5t-36.5 125.5v557h89z" />
    <glyph glyph-name="uni0197" unicode="&#x197;" horiz-adv-x="338" 
d="M298 0h-258v52l84 19v256h-90v78h90v237l-84 20v52h258v-52l-84 -20v-237h90v-78h-90v-256l84 -19v-52z" />
    <glyph glyph-name="uni0198" unicode="&#x198;" horiz-adv-x="619" 
d="M327 405l292 -405h-106q-30 40 -121 172q-71 103 -126 170l-79 -77v-265h-90v714h90v-360q28 35 60 72q21 24 185 225q29 38 54.5 53.5t66.5 15.5q30 0 50 -8v-70q-21 3 -44 3q-17 0 -31.5 -10t-36.5 -36z" />
    <glyph glyph-name="uni0199" unicode="&#x199;" horiz-adv-x="534" 
d="M172 363l-4 -87h4l30 38l34 41l171 181h103l-217 -229l232 -307h-106l-186 250l-61 -53v-197h-87v625q0 140 121 140q33 0 65 -13v-73q-23 10 -52 10q-23 0 -35 -13t-12 -45v-268z" />
    <glyph glyph-name="uni019A" unicode="&#x19a;" horiz-adv-x="257" 
d="M173 420h70v-66h-70v-354h-88v354h-70v66h70v340h88v-340z" />
    <glyph glyph-name="uni019B" unicode="&#x19b;" horiz-adv-x="541" 
d="M-6 0l231 526l-23 64l-106 -32l-19 63l99 30q-13 22 -29.5 32t-45.5 10q-30 0 -56 -6v71q33 8 66 8q53 0 87 -21t59 -69l109 33l19 -63l-102 -32l179 -498q10 -28 21.5 -41t28.5 -13q12 0 30 5v-65q-24 -12 -57 -12q-36 0 -58 18t-38 63l-73 205q-42 119 -50 159h-4
q-16 -62 -55 -154l-122 -281h-91z" />
    <glyph glyph-name="uni019C" unicode="&#x19c;" horiz-adv-x="1029" 
d="M180 714v-506q0 -70 29 -105t92 -35q84 0 124.5 47t40.5 147v452h90v-506q0 -70 29 -105t94 -35q84 0 123.5 49.5t39.5 164.5v432h90v-714h-71l-15 82h-5q-25 -42 -74 -67t-107 -25q-68 0 -110.5 24.5t-64.5 75.5h-5q-28 -48 -79.5 -74t-113.5 -26q-103 0 -150 53
t-47 165v506h90z" />
    <glyph glyph-name="uni019D" unicode="&#x19d;" horiz-adv-x="759" 
d="M97 714h104l22 -35l235 -362l124 -194h4q-1 12 -4 84t-3 104v403h84v-714h-105l-382 593h-4l2 -40q6 -89 6 -154v-482q0 -83 -34 -120t-101 -37q-32 0 -56 13v76q21 -10 45 -10q35 0 49 20t14 62v793z" />
    <glyph glyph-name="uni019E" unicode="&#x19e;" horiz-adv-x="618" 
d="M450 -240v583q0 64 -28.5 96.5t-91.5 32.5q-83 0 -120 -46.5t-37 -147.5v-278h-88v536h71l13 -73h5q25 40 70 61.5t99 21.5q99 0 146.5 -48t47.5 -149v-589h-87z" />
    <glyph glyph-name="uni019F" unicode="&#x19f;" horiz-adv-x="782" 
d="M720 358q0 -171 -86.5 -269.5t-242.5 -98.5q-158 0 -244 96.5t-86 272.5q0 174 85.5 270t245.5 96q155 0 241.5 -97.5t86.5 -269.5zM391 68q108 0 167.5 65t65.5 192h-467q6 -127 65.5 -192t168.5 -65zM392 646q-106 0 -165.5 -61.5t-69.5 -181.5h466q-9 121 -67.5 182
t-163.5 61z" />
    <glyph glyph-name="Ohorn" unicode="&#x1a0;" horiz-adv-x="784" 
d="M719 358q0 -173 -86.5 -270.5t-241.5 -97.5q-158 0 -244 96t-86 273q0 176 86 271t245 95t247 -104q33 9 48.5 39.5t15.5 99.5h95l7 -11q-15 -78 -47.5 -120.5t-83.5 -61.5q45 -85 45 -209zM156 358q0 -142 59.5 -216t175.5 -74t174.5 73t58.5 217q0 143 -58.5 215.5
t-173.5 72.5q-118 0 -177 -73.5t-59 -214.5z" />
    <glyph glyph-name="ohorn" unicode="&#x1a1;" horiz-adv-x="616" 
d="M551 269q0 -131 -66.5 -205t-183.5 -74q-73 0 -129 34t-86.5 97.5t-30.5 147.5q0 131 65.5 204t183.5 73q53 0 97.5 -18t76.5 -51q24 7 38.5 23.5t21.5 41t7 76.5h94l7 -11q-16 -79 -46.5 -121.5t-82.5 -61.5q34 -69 34 -155zM146 269q0 -105 38.5 -155.5t118.5 -50.5
q83 0 120 52t37 154q0 100 -38 151.5t-120 51.5q-83 0 -119.5 -51.5t-36.5 -151.5z" />
    <glyph glyph-name="uni01A2" unicode="&#x1a2;" horiz-adv-x="1075" 
d="M688 358q0 -173 -82.5 -270.5t-230.5 -97.5q-150 0 -232 96.5t-82 272.5q0 174 82 270t233 96q142 0 224 -91q28 43 78 67t110 24q102 0 149.5 -52.5t47.5 -165.5v-507h-90v507q0 70 -29 105t-92 35q-53 0 -86.5 -15t-52.5 -46q53 -92 53 -228zM156 358q0 -142 56 -216
t163 -74t162.5 73t55.5 217q0 143 -55 215.5t-162 72.5q-108 0 -164 -73.5t-56 -214.5z" />
    <glyph glyph-name="uni01A3" unicode="&#x1a3;" horiz-adv-x="845" 
d="M526 269q0 -132 -63.5 -205.5t-173.5 -73.5q-69 0 -122.5 34t-82.5 98t-29 147q0 130 62.5 203.5t173.5 73.5q106 0 169 -72q26 37 64 54.5t80 17.5q80 0 120 -47t40 -150v-589h-87v585q0 127 -92 127q-63 0 -94 -44q35 -63 35 -159zM146 269q0 -101 36.5 -153.5
t107.5 -52.5t108 52t37 154q0 101 -37 152t-108 51q-144 0 -144 -203z" />
    <glyph glyph-name="uni01A4" unicode="&#x1a4;" horiz-adv-x="685" 
d="M267 355h72q106 0 154 34.5t48 110.5q0 69 -44.5 103t-138.5 34h-91v-282zM366 714q268 0 268 -210q0 -109 -74.5 -167.5t-210.5 -58.5h-82v-278h-90v637h-26q-61 0 -61 -50q0 -30 10 -54h-79q-4 10 -7.5 26.5t-3.5 28.5q0 65 34.5 95.5t106.5 30.5h215z" />
    <glyph glyph-name="uni01A5" unicode="&#x1a5;" horiz-adv-x="615" 
d="M207 765q33 0 65 -13v-73q-23 10 -52 10q-23 0 -35 -13t-12 -45v-80q0 -30 -4 -68l-2 -20h6q31 44 72 63.5t95 19.5q104 0 162 -72.5t58 -204.5q0 -131 -58 -205t-163 -74q-108 0 -166 78h-6l2 -20q4 -38 4 -68v-220h-88l1 865q0 140 121 140zM324 472q-80 0 -115 -45
t-36 -141v-17q0 -109 36 -157.5t117 -48.5q67 0 105 54.5t38 152.5t-38 150t-107 52z" />
    <glyph glyph-name="uni01A6" unicode="&#x1a6;" horiz-adv-x="622" 
d="M187 271h107q87 0 127 34t40 102q0 67 -40.5 98t-131.5 31h-102v-265zM187 195v-195h-90v714h90v-100h107q133 0 196.5 -50.5t63.5 -152.5q0 -142 -143 -191l196 -320h-105l-173 295h-142z" />
    <glyph glyph-name="uni01A7" unicode="&#x1a7;" horiz-adv-x="548" 
d="M47 191q0 48 20 84t61 63.5t124 58.5q68 25 98.5 44t44 42t13.5 58q0 49 -36 76.5t-99 27.5q-72 0 -154 -38l-28 77q85 40 180 40q102 0 165 -49.5t63 -132.5q0 -76 -41.5 -125.5t-142.5 -86.5q-78 -28 -113 -48t-50 -43t-15 -56q0 -54 40.5 -84.5t120.5 -30.5
q91 0 200 47v-86q-34 -17 -85 -28t-111 -11q-120 0 -187.5 54t-67.5 147z" />
    <glyph glyph-name="uni01A8" unicode="&#x1a8;" horiz-adv-x="479" 
d="M45 148q0 37 15 64t46.5 48.5t99.5 46.5q88 34 113 53t25 49t-28 47.5t-83 17.5q-50 0 -132 -34l-30 70q81 36 156 36q98 0 149.5 -36.5t51.5 -105.5q0 -37 -14.5 -63t-45 -47t-106.5 -50q-53 -20 -81 -35.5t-39.5 -31t-11.5 -37.5q0 -39 32 -59t95 -20q84 0 170 43v-80
q-62 -34 -168 -34q-214 0 -214 158z" />
    <glyph glyph-name="uni01A9" unicode="&#x1a9;" horiz-adv-x="569" 
d="M36 0v74l234 299l-228 266v75h475v-80h-325l-47 1l225 -261l-235 -296l163 1h248v-79h-510z" />
    <glyph glyph-name="uni01AA" unicode="&#x1aa;" horiz-adv-x="309" 
d="M67 542q-60 0 -91.5 29.5t-31.5 82.5q0 54 32.5 82.5t92.5 28.5q63 0 96.5 -36t33.5 -105v-696q0 -49 18 -72.5t59 -23.5q19 0 43.5 3t38.5 8v-67q-15 -7 -41.5 -11.5t-52.5 -4.5q-80 0 -116 41t-36 126v615h-45zM63 693q-21 0 -30 -12t-9 -27q0 -40 49 -40h39v13
q0 35 -12.5 50.5t-36.5 15.5z" />
    <glyph glyph-name="uni01AB" unicode="&#x1ab;" horiz-adv-x="360" 
d="M222 -240q-29 0 -60 12v73q22 -9 50 -9q48 0 48 52v102h-11q-157 0 -157 166v312h-76v42l77 35l35 114h52v-123h155v-68h-155v-310q0 -46 22.5 -71t61.5 -25q17 0 40 3.5t35 7.5v-180q0 -133 -117 -133z" />
    <glyph glyph-name="uni01AC" unicode="&#x1ac;" horiz-adv-x="576" 
d="M151 635q-61 0 -61 -48q0 -30 10 -54h-79q-4 10 -7.5 26.5t-3.5 28.5q0 65 34.5 95.5t106.5 30.5h414v-79h-222v-635h-90v635h-102z" />
    <glyph glyph-name="uni01AD" unicode="&#x1ad;" horiz-adv-x="360" 
d="M180 536h155v-68h-155v-310q0 -46 22.5 -71t61.5 -25q17 0 40 3.5t35 7.5v-67q-12 -5 -38 -10.5t-52 -5.5q-157 0 -157 166v312h-76v42l77 35v66q0 154 147 154q39 0 77 -13v-73q-11 4 -34.5 7t-42.5 3q-32 0 -46 -17t-14 -51v-85z" />
    <glyph glyph-name="uni01AE" unicode="&#x1ae;" horiz-adv-x="556" 
d="M233 635h-223v79h535v-79h-222v-714q0 -42 14.5 -62t48.5 -20q24 0 45 10v-76q-24 -13 -63 -13q-68 0 -101.5 37t-33.5 120v718z" />
    <glyph glyph-name="Uhorn" unicode="&#x1af;" horiz-adv-x="779" 
d="M640 714v-97q40 5 59 37t19 106h93l7 -11q-16 -90 -59 -135.5t-119 -58.5v-303q0 -125 -70.5 -193.5t-200.5 -68.5q-133 0 -206 70.5t-73 193.5v460h90v-464q0 -86 47.5 -134t143.5 -48q88 0 134 46.5t46 136.5v463h89z" />
    <glyph glyph-name="uhorn" unicode="&#x1b0;" horiz-adv-x="673" 
d="M168 535v-344q0 -65 29 -96.5t90 -31.5q83 0 120.5 46t37.5 148v278h88v-59q39 6 57 37.5t18 105.5h93l7 -11q-16 -93 -59 -139.5t-116 -54.5v-414h-72l-13 71h-4q-24 -39 -67.5 -60t-100.5 -21q-98 0 -147.5 46.5t-49.5 148.5v350h89z" />
    <glyph glyph-name="uni01B1" unicode="&#x1b1;" horiz-adv-x="782" 
d="M391 68q114 0 173 62t59 183q0 110 -40.5 189t-126.5 140v72h288v-79h-178q74 -57 113 -141t39 -184q0 -150 -87 -235.5t-240 -85.5q-155 0 -241.5 85t-86.5 235q0 100 39 185t112 141h-177v79h288v-72q-87 -62 -127.5 -142t-40.5 -187q0 -120 59.5 -182.5t174.5 -62.5z
" />
    <glyph glyph-name="uni01B2" unicode="&#x1b2;" horiz-adv-x="600" 
d="M571 580q0 -53 -45 -157l-181 -423h-90l-255 714h94l162 -466q31 -88 45 -156q8 30 27 73q21 50 32 81l85 203q36 88 36 125q0 39 -16 55t-47 16q-24 0 -45 -10v76q22 13 63 13q135 0 135 -144z" />
    <glyph glyph-name="uni01B3" unicode="&#x1b3;" horiz-adv-x="565" 
d="M39 649q-21 0 -39 -8v73q28 11 60 11q37 0 59.5 -17.5t40.5 -57.5l128 -287l181 351h97l-233 -437v-277h-90v273l-162 341q-18 35 -42 35z" />
    <glyph glyph-name="uni01B4" unicode="&#x1b4;" horiz-adv-x="541" 
d="M485 546q33 0 57 -12v-65q-18 5 -30 5q-18 0 -28.5 -13t-21.5 -41l-183 -494q-32 -87 -79 -126.5t-116 -39.5q-37 0 -73 8v70q24 -6 59 -6q85 0 121 95l26 71l-216 538h94l116 -305q37 -100 45 -146h4q8 36 48 147l76 217q19 54 41 75.5t60 21.5z" />
    <glyph glyph-name="uni01B5" unicode="&#x1b5;" horiz-adv-x="571" 
d="M79 407h184l151 227h-364v80h473v-68l-159 -239h122v-71h-169l-170 -256h386v-80h-495v68l178 268h-137v71z" />
    <glyph glyph-name="uni01B6" unicode="&#x1b6;" horiz-adv-x="470" 
d="M57 313h161l109 155h-271v68h368v-66l-111 -157h101v-70h-151l-123 -175h291v-68h-392v58l130 185h-112v70z" />
    <glyph glyph-name="uni01B7" unicode="&#x1b7;" horiz-adv-x="583" 
d="M291 440q68 -2 122.5 -30t85 -76.5t30.5 -112.5q0 -109 -76 -170t-212 -61q-126 0 -206 39v82q49 -23 104 -35t103 -12q97 0 145 41t48 117q0 69 -49.5 107t-143.5 38h-62v65l206 202h-331v80h444v-71z" />
    <glyph glyph-name="uni01B8" unicode="&#x1b8;" horiz-adv-x="583" 
d="M85 643v71h444v-80h-330l205 -202v-65h-78q-84 0 -130.5 -40.5t-46.5 -113.5q0 -71 49.5 -110t143.5 -39q49 0 103.5 11.5t103.5 35.5v-82q-45 -21 -98.5 -30t-119.5 -9q-87 0 -149 27t-94.5 77t-32.5 117q0 68 30 119t84.5 79.5t123.5 30.5z" />
    <glyph glyph-name="uni01B9" unicode="&#x1b9;" horiz-adv-x="498" 
d="M61 472v64h409v-74h-306l219 -243v-61h-59q-101 0 -151.5 -42.5t-50.5 -124.5q0 -71 47 -114.5t126 -43.5q100 0 189 42v-80q-68 -35 -196 -35q-113 0 -183.5 63t-70.5 166q0 105 64.5 168t181.5 71z" />
    <glyph glyph-name="uni01BA" unicode="&#x1ba;" horiz-adv-x="498" 
d="M216 -167q84 0 160 36v-80q-60 -29 -161 -29q-90 0 -138.5 31t-48.5 88q0 62 46.5 91.5t137.5 29.5q80 0 114.5 27.5t34.5 94.5q0 60 -44.5 88t-142.5 28h-59v61l183 163h-270v74h394v-64l-187 -164q104 -5 159 -51.5t55 -133.5q0 -95 -59.5 -145.5t-175.5 -50.5
q-53 0 -78 -10.5t-25 -37.5q0 -21 26.5 -33.5t78.5 -12.5z" />
    <glyph glyph-name="uni01BB" unicode="&#x1bb;" horiz-adv-x="569" 
d="M78 419h241q27 44 39 82t12 81q0 50 -29.5 78t-82.5 28q-45 0 -81.5 -16.5t-73.5 -49.5l-47 59q93 84 204 84q94 0 147.5 -48.5t53.5 -132.5q0 -42 -10.5 -81.5t-35.5 -83.5h100v-70h-144q-11 -16 -23.5 -32.5t-201.5 -242.5v-4h374v-70h-472v73l175 215l47 61h-192v70z
" />
    <glyph glyph-name="uni01BC" unicode="&#x1bc;" horiz-adv-x="583" 
d="M224 634v-193h42q77 0 137 -27t93 -76.5t33 -116.5q0 -109 -76 -170t-212 -61q-126 0 -206 39v82q49 -23 104 -35t103 -12q97 0 145 41t48 117q0 68 -47 106.5t-130 38.5h-124v267h-79v80h444v-80h-275z" />
    <glyph glyph-name="uni01BD" unicode="&#x1bd;" horiz-adv-x="490" 
d="M198 462v-117h23q107 0 165.5 -46.5t58.5 -135.5q0 -82 -60.5 -127.5t-168.5 -45.5q-118 0 -183 35v79q89 -42 182 -42q69 0 106 26.5t37 79.5t-37.5 79t-115.5 26h-95v189h-62v74h364v-74h-214z" />
    <glyph glyph-name="uni01BE" unicode="&#x1be;" horiz-adv-x="462" 
d="M136 378v90h-91v42l92 35l35 114h52v-123h155v-68h-155v-92q0 -34 10.5 -49.5t36.5 -24.5q83 -31 115 -66.5t32 -87.5q0 -75 -56 -116.5t-158 -41.5q-105 0 -168 34v80q86 -43 170 -43q66 0 96.5 21.5t30.5 57.5q0 29 -24 49.5t-90 47.5q-47 20 -65 52t-18 89z" />
    <glyph glyph-name="uni01BF" unicode="&#x1bf;" horiz-adv-x="586" 
d="M173 -240h-88v776h72l12 -73h4q55 83 158 83q96 0 152 -59t56 -164q0 -91 -45.5 -164.5t-130 -117.5t-190.5 -51v-230zM173 62q131 17 203 85.5t72 173.5q0 69 -36 110t-99 41q-73 0 -106.5 -44t-33.5 -142v-224z" />
    <glyph glyph-name="uni01C0" unicode="&#x1c0;" horiz-adv-x="516" 
d="M297 -240h-78v1000h78v-1000z" />
    <glyph glyph-name="uni01C1" unicode="&#x1c1;" horiz-adv-x="516" 
d="M169 -240h-78v1000h78v-1000zM426 -240h-78v1000h78v-1000z" />
    <glyph glyph-name="uni01C2" unicode="&#x1c2;" horiz-adv-x="516" 
d="M65 402h154v358h78v-358h154v-72h-154v-124h154v-72h-154v-374h-78v374h-154v72h154v124h-154v72z" />
    <glyph glyph-name="uni01C3" unicode="&#x1c3;" horiz-adv-x="269" 
d="M163 201h-57l-25 513h107zM72 54q0 32 16 49.5t46 17.5t46 -18t16 -49t-16.5 -49.5t-45.5 -18.5q-30 0 -46 18t-16 50z" />
    <glyph glyph-name="uni01C4" unicode="&#x1c4;" horiz-adv-x="1291" 
d="M827 931h60q56 -36 107 -92q62 62 109 92h62v-13q-100 -100 -125 -147h-90q-29 50 -123 147v13zM26 475q84 11 177 11t124 -4.5t58 -15.5q118 -51 118 -228q0 -156 -105 -205q-58 -27 -162 -31q-47 -2 -93.5 -2t-111.5 -5v48q53 0 64 3q5 15 5 40v298q0 22 -5 47
q-11 4 -34 4h-35v40zM252 440l-80 -1v-397q6 -1 11 -1h27q143 0 187 75q25 44 25 112.5t-10 106.5t-31 61q-39 44 -129 44zM807 414l1 -37h-36q0 2 -2.5 16t-4 24.5l-3 21t-3 18.5t-1.5 13q43 12 173 12h157q14 -9 14 -26v-18l-280 -396h171q26 0 36 12q20 24 20 78h54v-103
q0 -9 -2 -19q0 -10 -83 -10h-262q-12 9 -12 27v18l274 395h-93q-8 0 -20.5 -1t-32.5 -2t-42.5 -7t-22.5 -16z" />
    <glyph glyph-name="uni01C5" unicode="&#x1c5;" horiz-adv-x="1200" 
d="M800 766h60q56 -36 107 -92q62 62 109 92h62v-13q-100 -100 -125 -147h-90q-29 50 -123 147v13zM26 475q84 11 177 11t124 -4.5t58 -15.5q118 -51 118 -228q0 -156 -105 -205q-58 -27 -162 -31q-47 -2 -93.5 -2t-111.5 -5v48q53 0 64 3q5 15 5 40v298q0 22 -5 47
q-11 4 -34 4h-35v40zM252 440l-80 -1v-397q6 -1 11 -1h27q143 0 187 75q25 44 25 112.5t-10 106.5t-31 61q-39 44 -129 44zM766 347l48 -1h158q55 0 60 -1t11 -5t6 -20v-26l-220 -259h135q32 0 45 8l14 51q8 1 16.5 0.5t16.5 -0.5l2 -56v-42q-40 4 -74 4h-209q-9 0 -12.5 5
t-3.5 22v20l224 264h-122q-32 0 -46 -8l-14 -51q-8 -1 -16 -1h-16l-3 65v31z" />
    <glyph glyph-name="uni01C6" unicode="&#x1c6;" horiz-adv-x="1084" 
d="M687 766h60q56 -36 107 -92q62 62 109 92h62v-13q-100 -100 -125 -147h-90q-29 50 -123 147v13zM211 317q-96 0 -96 -141.5t94 -141.5q51 0 79 48q9 15 14 34q0 113 -4 165q-36 36 -87 36zM237 517q38 9 81.5 9t51.5 -2q3 -18 3 -26v-408q0 -36 6 -56h58v-29
q-38 -9 -76 -9t-47.5 5t-9.5 27v16q-41 -52 -111.5 -52t-112.5 46t-42 133t40 137t108 50t116 -44v140q0 18 -3 29q-12 4 -29 4h-33v30zM651 347l48 -1h158q55 0 60 -1t11 -5t6 -20v-26l-220 -259h135q32 0 45 8l14 51q8 1 16.5 0.5t16.5 -0.5l2 -56v-42q-40 4 -74 4h-209
q-9 0 -12.5 5t-3.5 22v20l224 264h-122q-32 0 -46 -8l-14 -51q-8 -1 -16 -1h-16l-3 65v31z" />
    <glyph glyph-name="uni01C7" unicode="&#x1c7;" horiz-adv-x="796" 
d="M292 -5l-160 5q-71 0 -105 -5v47h29q19 0 35 4q5 13 5 32v7v311q0 27 -5 40q-11 4 -35 4h-30v36q46 6 114.5 6t99.5 -6v-36h-31q-19 0 -35 -4q-5 -20 -5 -40v-354h128q39 0 54 8q25 13 37 59l29 -3l-12 -106q-73 -5 -113 -5zM634 476q46 6 114 6t99 -6v-36h-30
q-21 0 -35 -4q-5 -12 -5 -33v-7v-290q0 -120 -70 -155q-22 -11 -45 -11t-64 7t-59 17q0 1 1 8l1 19q1 13 2 32.5t3 47.5l48 -1q2 -32 14 -82q7 -1 15 -3t25 -2q34 0 45 32.5t11 102.5v278q0 27 -6 40q-9 4 -34 4h-30v36z" />
    <glyph glyph-name="uni01C8" unicode="&#x1c8;" horiz-adv-x="782" 
d="M292 -5l-160 5q-71 0 -105 -5v47h29q19 0 35 4q5 13 5 32v7v311q0 27 -5 40q-11 4 -35 4h-30v36q46 6 114.5 6t99.5 -6v-36h-31q-19 0 -35 -4q-5 -20 -5 -40v-354h128q39 0 54 8q25 13 37 59l29 -3l-12 -106q-73 -5 -113 -5zM587 346q24 6 70.5 6t64.5 -6v-317
q0 -77 -28.5 -115.5t-76 -38.5t-93.5 14l15 92q8 -1 16 -3t20 -2q0 -17 2 -31.5t3 -24.5q7 -1 15.5 -3t20.5 -2q21 0 28 31t7 89v247q0 15 -2 27q-12 5 -29 5h-33v32zM653.5 504.5q12.5 13.5 32.5 13.5q32 0 44 -28q3 -8 3 -24t-14 -28.5t-33 -12.5q-30 0 -42 27q-3 9 -3 24
t12.5 28.5z" />
    <glyph glyph-name="uni01C9" unicode="&#x1c9;" horiz-adv-x="516" 
d="M71 24l3 70v355q0 18 -4 34q-12 4 -29 4h-32v30q34 9 81 9t54 -9v-427q0 -26 6 -56h54v-30q-36 -8 -67.5 -8t-43.5 2q-22 3 -22 26zM321 346q24 6 70.5 6t64.5 -6v-317q0 -77 -28.5 -115.5t-76 -38.5t-93.5 14l15 92q8 -1 16 -3t20 -2q0 -17 2 -31.5t3 -24.5
q7 -1 15.5 -3t20.5 -2q21 0 28 31t7 89v247q0 15 -2 27q-12 5 -29 5h-33v32zM387.5 504.5q12.5 13.5 32.5 13.5q32 0 44 -28q3 -8 3 -24t-14 -28.5t-33 -12.5q-30 0 -42 27q-3 9 -3 24t12.5 28.5z" />
    <glyph glyph-name="uni01CA" unicode="&#x1ca;" horiz-adv-x="1033" 
d="M228 -5q-30 5 -94.5 5t-99.5 -5v47h30q20 0 34 4q6 13 6 39l-1 311q0 27 -5 40q-11 4 -35 4h-37v36q78 6 104 6t48 -5q157 -243 243 -388l-5 269v38q0 27 -5 40q-16 4 -35 4h-34v36q44 6 107.5 6t88.5 -6v-36h-26q-21 0 -35 -4q-5 -13 -5 -49.5t-1 -88t-2 -104.5t-3 -104
t-3 -95h-35q-16 0 -30 7l-244 387q4 -76 4 -191t1.5 -129.5t4.5 -22.5q16 -4 34 -4h30v-47zM870 476q46 6 114 6t99 -6v-36h-30q-21 0 -35 -4q-5 -12 -5 -33v-7v-290q0 -120 -70 -155q-22 -11 -45 -11t-64 7t-59 17q0 1 1 8l1 19q1 13 2 32.5t3 47.5l48 -1q2 -32 14 -82
q7 -1 15 -3t25 -2q34 0 45 32.5t11 102.5v278q0 27 -6 40q-9 4 -34 4h-30v36z" />
    <glyph glyph-name="uni01CB" unicode="&#x1cb;" horiz-adv-x="1018" 
d="M228 -5q-30 5 -94.5 5t-99.5 -5v47h30q20 0 34 4q6 13 6 39l-1 311q0 27 -5 40q-11 4 -35 4h-37v36q78 6 104 6t48 -5q157 -243 243 -388l-5 269v38q0 27 -5 40q-16 4 -35 4h-34v36q44 6 107.5 6t88.5 -6v-36h-26q-21 0 -35 -4q-5 -13 -5 -49.5t-1 -88t-2 -104.5t-3 -104
t-3 -95h-35q-16 0 -30 7l-244 387q4 -76 4 -191t1.5 -129.5t4.5 -22.5q16 -4 34 -4h30v-47zM823 346q24 6 70.5 6t64.5 -6v-317q0 -77 -28.5 -115.5t-76 -38.5t-93.5 14l15 92q8 -1 16 -3t20 -2q0 -17 2 -31.5t3 -24.5q7 -1 15.5 -3t20.5 -2q21 0 28 31t7 89v247q0 15 -2 27
q-12 5 -29 5h-33v32zM889.5 504.5q12.5 13.5 32.5 13.5q32 0 44 -28q3 -8 3 -24t-14 -28.5t-33 -12.5q-30 0 -42 27q-3 9 -3 24t12.5 28.5z" />
    <glyph glyph-name="uni01CC" unicode="&#x1cc;" horiz-adv-x="875" 
d="M315 218q0 96 -59 96q-25 0 -54 -17t-47 -40v-178q0 -31 6 -40.5t34 -14.5l2 -28q-38 4 -81.5 4t-75.5 -4l1 28q30 4 36 12t6 33v214q0 17 -3 26q-8 5 -23 5h-38v32q24 6 70 6t64 -6v-42q52 52 129 52q45 0 74.5 -26.5t29.5 -80.5v-159q0 -26 6 -56h48l4 -30
q-34 -8 -65.5 -8t-38.5 1q-27 4 -27 27l2 73v121zM681 346q24 6 70.5 6t64.5 -6v-317q0 -77 -28.5 -115.5t-76 -38.5t-93.5 14l15 92q8 -1 16 -3t20 -2q0 -17 2 -31.5t3 -24.5q7 -1 15.5 -3t20.5 -2q21 0 28 31t7 89v247q0 15 -2 27q-12 5 -29 5h-33v32zM747.5 504.5
q12.5 13.5 32.5 13.5q32 0 44 -28q3 -8 3 -24t-14 -28.5t-33 -12.5q-30 0 -42 27q-3 9 -3 24t12.5 28.5z" />
    <glyph glyph-name="uni01CD" unicode="&#x1cd;" horiz-adv-x="639" 
d="M150 944h60q56 -36 107 -92q62 62 109 92h62v-13q-100 -100 -125 -147h-90q-29 50 -123 147v13zM251 421l-84 -245h170l-83 245h-3zM167 -5q-24 5 -80 5t-87 -5l10 47h15q18 0 32 4q14 19 19.5 34.5t14 38.5t20.5 53t25.5 65t27.5 69l70 176h31q24 0 40 -6l148 -389
q12 -29 20 -41q16 -4 32 -4h15l10 -47q-28 5 -61 5h-47q-43 0 -73 -5l-7 47h6q18 0 34 4q0 15 -10 39l-23 56h-193l-18 -54q-8 -24 -8 -38q0 -7 25 -7h15z" />
    <glyph glyph-name="uni01CE" unicode="&#x1ce;" horiz-adv-x="561" 
d="M112 766h60q56 -36 107 -92q62 62 109 92h62v-13q-100 -100 -125 -147h-90q-29 50 -123 147v13zM106 94q0 -60 67 -60q33 0 80 35q5 45 5 95h-53q-48 0 -73.5 -18t-25.5 -52zM329 90q0 -36 6 -56h53v-28q-31 -11 -84 -11q-12 0 -25 1q-18 2 -22.5 13t-4.5 23l-1 6
q-51 -46 -108 -46q-77 0 -101 56q-8 18 -8 43q0 111 175 111h49v23q0 50 -11 67t-23.5 22.5t-40.5 5.5q-52 0 -93 -67l-47 29q4 28 45.5 51t101.5 23q139 0 139 -128v-138z" />
    <glyph glyph-name="uni01CF" unicode="&#x1cf;" horiz-adv-x="338" 
d="M2 944h60q56 -36 107 -92q62 62 109 92h62v-13q-100 -100 -125 -147h-90q-29 50 -123 147v13zM239 -5q-32 5 -103.5 5t-108.5 -5v47h29q19 0 35 4q5 13 5 32v7v313q0 25 -5 38q-11 4 -35 4h-30v36q46 6 114.5 6t98.5 -6v-36h-30q-21 0 -35 -4q-5 -20 -5 -38v-311
q0 -21 5 -41q16 -4 35 -4h30v-47zM239 -5q-32 5 -103.5 5t-108.5 -5v47h29q19 0 35 4q5 13 5 32v7v313q0 25 -5 38q-11 4 -35 4h-30v36q46 6 114.5 6t98.5 -6v-36h-30q-21 0 -35 -4q-5 -20 -5 -38v-311q0 -21 5 -41q16 -4 35 -4h30v-47z" />
    <glyph glyph-name="uni01D0" unicode="&#x1d0;" horiz-adv-x="257" 
d="M-40 766h60q56 -36 107 -92q62 62 109 92h62v-13q-100 -100 -125 -147h-90q-29 50 -123 147v13zM173 0h-88v536h88v-536z" />
    <glyph glyph-name="uni01D1" unicode="&#x1d1;" horiz-adv-x="780" 
d="M221 944h60q56 -36 107 -92q62 62 109 92h62v-13q-100 -100 -125 -147h-90q-29 50 -123 147v13zM119 238q0 -209 143 -209t143 210q0 104 -37 157q-38 52 -106 52q-103 0 -133 -118q-10 -39 -10 -92zM486 239.5q0 -116.5 -60 -184.5t-163.5 -68t-164 68t-60.5 184.5
t60.5 183t163.5 66.5t163.5 -66.5t60.5 -183z" />
    <glyph glyph-name="uni01D2" unicode="&#x1d2;" horiz-adv-x="604" 
d="M133 766h60q56 -36 107 -92q62 62 109 92h62v-13q-100 -100 -125 -147h-90q-29 50 -123 147v13zM342.5 40.5q-50.5 -48.5 -127.5 -48.5t-127 48t-50 133t50.5 134t127.5 49t127 -50t50 -133.5t-50.5 -132zM316 174q0 143 -101 143q-78 0 -95 -81q-5 -27 -5 -62
q0 -74 24 -109.5t77.5 -35.5t76.5 36.5t23 108.5z" />
    <glyph glyph-name="uni01D3" unicode="&#x1d3;" horiz-adv-x="730" 
d="M196 944h60q56 -36 107 -92q62 62 109 92h62v-13q-100 -100 -125 -147h-90q-29 50 -123 147v13zM330 477q37 5 102.5 5t95.5 -6v-36h-31q-21 0 -35 -4q-5 -13 -5 -40v-223q0 -88 -52.5 -137t-138.5 -49q-186 0 -186 209v200q0 27 -5 40q-11 4 -34 4h-31v37q38 5 111 5
t103 -6v-36h-31q-19 0 -35 -4q-4 -12 -4 -32v-8v-228q0 -103 72 -130q22 -9 50 -9q64 0 94 40t30 124v203q0 27 -5 40q-11 4 -35 4h-30v37z" />
    <glyph glyph-name="uni01D4" unicode="&#x1d4;" horiz-adv-x="618" 
d="M140 766h60q56 -36 107 -92q62 62 109 92h62v-13q-100 -100 -125 -147h-90q-29 50 -123 147v13zM248 346q24 6 69 6t61 -6v-256q0 -26 6 -56h54v-29q-40 -9 -79 -9t-48.5 6t-9.5 25v11l-27 -18q-42 -28 -101 -28q-98 0 -98 108v178q0 18 -4 32q-12 4 -28 4h-28v32
q24 6 69.5 6t61.5 -6v-228q0 -44 7 -58q14 -26 54.5 -26t84.5 28q9 6 9 7q6 33 6 109v100q0 19 -4 32q-12 4 -28 4h-27v32z" />
    <glyph glyph-name="uni01D5" unicode="&#x1d5;" horiz-adv-x="730" 
d="M508 815q0 -23 -12.5 -36t-34.5 -13t-34.5 13t-12.5 36q0 26 14 38t33 12q20 0 33.5 -12t13.5 -38zM320 815q0 -26 -13.5 -37.5t-32.5 -11.5q-22 0 -34.5 13t-12.5 36q0 26 14 38t33 12t32.5 -12t13.5 -38zM219 1001h297v-71h-297v71zM330 477q37 5 102.5 5t95.5 -6v-36
h-31q-21 0 -35 -4q-5 -13 -5 -40v-223q0 -88 -52.5 -137t-138.5 -49q-186 0 -186 209v200q0 27 -5 40q-11 4 -34 4h-31v37q38 5 111 5t103 -6v-36h-31q-19 0 -35 -4q-4 -12 -4 -32v-8v-228q0 -103 72 -130q22 -9 50 -9q64 0 94 40t30 124v203q0 27 -5 40q-11 4 -35 4h-30v37
z" />
    <glyph glyph-name="uni01D6" unicode="&#x1d6;" horiz-adv-x="618" 
d="M447 650q0 -23 -12.5 -36t-34.5 -13t-34.5 13t-12.5 36q0 26 14 38t33 12q20 0 33.5 -12t13.5 -38zM259 650q0 -26 -13.5 -37.5t-32.5 -11.5q-22 0 -34.5 13t-12.5 36q0 26 14 38t33 12t32.5 -12t13.5 -38zM158 836h297v-71h-297v71zM248 346q24 6 69 6t61 -6v-256
q0 -26 6 -56h54v-29q-40 -9 -79 -9t-48.5 6t-9.5 25v11l-27 -18q-42 -28 -101 -28q-98 0 -98 108v178q0 18 -4 32q-12 4 -28 4h-28v32q24 6 69.5 6t61.5 -6v-228q0 -44 7 -58q14 -26 54.5 -26t84.5 28q9 6 9 7q6 33 6 109v100q0 19 -4 32q-12 4 -28 4h-27v32z" />
    <glyph glyph-name="uni01D7" unicode="&#x1d7;" horiz-adv-x="730" 
d="M499 815q0 -23 -12.5 -36t-34.5 -13t-34.5 13t-12.5 36q0 26 14 38t33 12q20 0 33.5 -12t13.5 -38zM311 815q0 -26 -13.5 -37.5t-32.5 -11.5q-22 0 -34.5 13t-12.5 36q0 26 14 38t33 12t32.5 -12t13.5 -38zM305 903q73 84 96 133h105v-10q-28 -43 -142 -135h-59v12z
M330 477q37 5 102.5 5t95.5 -6v-36h-31q-21 0 -35 -4q-5 -13 -5 -40v-223q0 -88 -52.5 -137t-138.5 -49q-186 0 -186 209v200q0 27 -5 40q-11 4 -34 4h-31v37q38 5 111 5t103 -6v-36h-31q-19 0 -35 -4q-4 -12 -4 -32v-8v-228q0 -103 72 -130q22 -9 50 -9q64 0 94 40t30 124
v203q0 27 -5 40q-11 4 -35 4h-30v37z" />
    <glyph glyph-name="uni01D8" unicode="&#x1d8;" horiz-adv-x="618" 
d="M446 650q0 -23 -12.5 -36t-34.5 -13t-34.5 13t-12.5 36q0 26 14 38t33 12q20 0 33.5 -12t13.5 -38zM258 650q0 -26 -13.5 -37.5t-32.5 -11.5q-22 0 -34.5 13t-12.5 36q0 26 14 38t33 12t32.5 -12t13.5 -38zM252 738q73 84 96 133h105v-10q-28 -43 -142 -135h-59v12z
M248 346q24 6 69 6t61 -6v-256q0 -26 6 -56h54v-29q-40 -9 -79 -9t-48.5 6t-9.5 25v11l-27 -18q-42 -28 -101 -28q-98 0 -98 108v178q0 18 -4 32q-12 4 -28 4h-28v32q24 6 69.5 6t61.5 -6v-228q0 -44 7 -58q14 -26 54.5 -26t84.5 28q9 6 9 7q6 33 6 109v100q0 19 -4 32
q-12 4 -28 4h-27v32z" />
    <glyph glyph-name="uni01D9" unicode="&#x1d9;" horiz-adv-x="730" 
d="M504 815q0 -23 -12.5 -36t-34.5 -13t-34.5 13t-12.5 36q0 26 14 38t33 12q20 0 33.5 -12t13.5 -38zM316 815q0 -26 -13.5 -37.5t-32.5 -11.5q-22 0 -34.5 13t-12.5 36q0 26 14 38t33 12t32.5 -12t13.5 -38zM195 1046h60q26 -17 54 -36t53 -46q27 27 55 46t54 36h62v-13
l-32 -31q-73 -69 -93 -106h-90q-21 36 -92 106l-31 31v13zM330 477q37 5 102.5 5t95.5 -6v-36h-31q-21 0 -35 -4q-5 -13 -5 -40v-223q0 -88 -52.5 -137t-138.5 -49q-186 0 -186 209v200q0 27 -5 40q-11 4 -34 4h-31v37q38 5 111 5t103 -6v-36h-31q-19 0 -35 -4
q-4 -12 -4 -32v-8v-228q0 -103 72 -130q22 -9 50 -9q64 0 94 40t30 124v203q0 27 -5 40q-11 4 -35 4h-30v37z" />
    <glyph glyph-name="uni01DA" unicode="&#x1da;" horiz-adv-x="618" 
d="M444 650q0 -23 -12.5 -36t-34.5 -13t-34.5 13t-12.5 36q0 26 14 38t33 12q20 0 33.5 -12t13.5 -38zM256 650q0 -26 -13.5 -37.5t-32.5 -11.5q-22 0 -34.5 13t-12.5 36q0 26 14 38t33 12t32.5 -12t13.5 -38zM135 881h60q26 -17 54 -36t53 -46q27 27 55 46t54 36h62v-13
l-32 -31q-73 -69 -93 -106h-90q-21 36 -92 106l-31 31v13zM248 346q24 6 69 6t61 -6v-256q0 -26 6 -56h54v-29q-40 -9 -79 -9t-48.5 6t-9.5 25v11l-27 -18q-42 -28 -101 -28q-98 0 -98 108v178q0 18 -4 32q-12 4 -28 4h-28v32q24 6 69.5 6t61.5 -6v-228q0 -44 7 -58
q14 -26 54.5 -26t84.5 28q9 6 9 7q6 33 6 109v100q0 19 -4 32q-12 4 -28 4h-27v32z" />
    <glyph glyph-name="uni01DB" unicode="&#x1db;" horiz-adv-x="730" 
d="M500 815q0 -23 -12.5 -36t-34.5 -13t-34.5 13t-12.5 36q0 26 14 38t33 12q20 0 33.5 -12t13.5 -38zM312 815q0 -26 -13.5 -37.5t-32.5 -11.5q-22 0 -34.5 13t-12.5 36q0 26 14 38t33 12t32.5 -12t13.5 -38zM414 891h-59q-114 91 -142 135v10h105q23 -49 96 -133v-12z
M330 477q37 5 102.5 5t95.5 -6v-36h-31q-21 0 -35 -4q-5 -13 -5 -40v-223q0 -88 -52.5 -137t-138.5 -49q-186 0 -186 209v200q0 27 -5 40q-11 4 -34 4h-31v37q38 5 111 5t103 -6v-36h-31q-19 0 -35 -4q-4 -12 -4 -32v-8v-228q0 -103 72 -130q22 -9 50 -9q64 0 94 40t30 124
v203q0 27 -5 40q-11 4 -35 4h-30v37z" />
    <glyph glyph-name="uni01DC" unicode="&#x1dc;" horiz-adv-x="618" 
d="M447 650q0 -23 -12.5 -36t-34.5 -13t-34.5 13t-12.5 36q0 26 14 38t33 12q20 0 33.5 -12t13.5 -38zM259 650q0 -26 -13.5 -37.5t-32.5 -11.5q-22 0 -34.5 13t-12.5 36q0 26 14 38t33 12t32.5 -12t13.5 -38zM361 726h-59q-114 91 -142 135v10h105q23 -49 96 -133v-12z
M248 346q24 6 69 6t61 -6v-256q0 -26 6 -56h54v-29q-40 -9 -79 -9t-48.5 6t-9.5 25v11l-27 -18q-42 -28 -101 -28q-98 0 -98 108v178q0 18 -4 32q-12 4 -28 4h-28v32q24 6 69.5 6t61.5 -6v-228q0 -44 7 -58q14 -26 54.5 -26t84.5 28q9 6 9 7q6 33 6 109v100q0 19 -4 32
q-12 4 -28 4h-27v32z" />
    <glyph glyph-name="uni01DD" unicode="&#x1dd;" horiz-adv-x="563" 
d="M251 546q121 0 189.5 -73t68.5 -201q0 -129 -64 -205.5t-173 -76.5q-101 0 -161 65.5t-60 176.5v53h367q-2 91 -46 138.5t-125 47.5q-43 0 -81.5 -7.5t-90.5 -29.5v77q44 19 83.5 27t92.5 8zM273 62q63 0 99.5 40.5t43.5 112.5h-273q1 -74 34.5 -113.5t95.5 -39.5z" />
    <glyph glyph-name="uni01DE" unicode="&#x1de;" horiz-adv-x="639" 
d="M460 815q0 -23 -12.5 -36t-34.5 -13t-34.5 13t-12.5 36q0 26 14 38t33 12q20 0 33.5 -12t13.5 -38zM272 815q0 -26 -13.5 -37.5t-32.5 -11.5q-22 0 -34.5 13t-12.5 36q0 26 14 38t33 12t32.5 -12t13.5 -38zM171 1001h297v-71h-297v71zM251 421l-84 -245h170l-83 245h-3z
M167 -5q-24 5 -80 5t-87 -5l10 47h15q18 0 32 4q14 19 19.5 34.5t14 38.5t20.5 53t25.5 65t27.5 69l70 176h31q24 0 40 -6l148 -389q12 -29 20 -41q16 -4 32 -4h15l10 -47q-28 5 -61 5h-47q-43 0 -73 -5l-7 47h6q18 0 34 4q0 15 -10 39l-23 56h-193l-18 -54q-8 -24 -8 -38
q0 -7 25 -7h15z" />
    <glyph glyph-name="uni01DF" unicode="&#x1df;" horiz-adv-x="561" 
d="M426 650q0 -23 -12.5 -36t-34.5 -13t-34.5 13t-12.5 36q0 26 14 38t33 12q20 0 33.5 -12t13.5 -38zM238 650q0 -26 -13.5 -37.5t-32.5 -11.5q-22 0 -34.5 13t-12.5 36q0 26 14 38t33 12t32.5 -12t13.5 -38zM137 836h297v-71h-297v71zM106 94q0 -60 67 -60q33 0 80 35
q5 45 5 95h-53q-48 0 -73.5 -18t-25.5 -52zM329 90q0 -36 6 -56h53v-28q-31 -11 -84 -11q-12 0 -25 1q-18 2 -22.5 13t-4.5 23l-1 6q-51 -46 -108 -46q-77 0 -101 56q-8 18 -8 43q0 111 175 111h49v23q0 50 -11 67t-23.5 22.5t-40.5 5.5q-52 0 -93 -67l-47 29q4 28 45.5 51
t101.5 23q139 0 139 -128v-138z" />
    <glyph glyph-name="uni01E0" unicode="&#x1e0;" horiz-adv-x="639" 
d="M269 826q0 29 15 42.5t37 13.5q23 0 37 -15t14 -41t-14.5 -41t-36.5 -15t-37 13.5t-15 42.5zM171 1001h297v-71h-297v71zM251 421l-84 -245h170l-83 245h-3zM167 -5q-24 5 -80 5t-87 -5l10 47h15q18 0 32 4q14 19 19.5 34.5t14 38.5t20.5 53t25.5 65t27.5 69l70 176h31
q24 0 40 -6l148 -389q12 -29 20 -41q16 -4 32 -4h15l10 -47q-28 5 -61 5h-47q-43 0 -73 -5l-7 47h6q18 0 34 4q0 15 -10 39l-23 56h-193l-18 -54q-8 -24 -8 -38q0 -7 25 -7h15z" />
    <glyph glyph-name="uni01E1" unicode="&#x1e1;" horiz-adv-x="561" 
d="M235 662q0 29 15 42.5t37 13.5q23 0 37 -15t14 -41t-14.5 -41t-36.5 -15t-37 13.5t-15 42.5zM137 837h297v-71h-297v71zM106 94q0 -60 67 -60q33 0 80 35q5 45 5 95h-53q-48 0 -73.5 -18t-25.5 -52zM329 90q0 -36 6 -56h53v-28q-31 -11 -84 -11q-12 0 -25 1
q-18 2 -22.5 13t-4.5 23l-1 6q-51 -46 -108 -46q-77 0 -101 56q-8 18 -8 43q0 111 175 111h49v23q0 50 -11 67t-23.5 22.5t-40.5 5.5q-52 0 -93 -67l-47 29q4 28 45.5 51t101.5 23q139 0 139 -128v-138z" />
    <glyph glyph-name="uni01E2" unicode="&#x1e2;" horiz-adv-x="880" 
d="M347 842h297v-71h-297v71z" />
    <glyph glyph-name="uni01E3" unicode="&#x1e3;" horiz-adv-x="863" 
d="M283 677h297v-71h-297v71zM510 202q1 1 1 2v4q0 76 -44 101q-16 9 -38 9q-88 0 -94 -116h175zM336 163q8 -129 120 -129q55 0 90 35l30 -13q-36 -64 -135 -64q-81 0 -129.5 47t-48.5 135q0 128 104 169q32 13 68 13q67 0 107.5 -37t40.5 -92.5t-28 -61.5q-10 -2 -23 -2
h-196zM106 94q0 -60 67 -60q33 0 80 35q5 45 5 95h-53q-48 0 -73.5 -18t-25.5 -52zM329 90q0 -36 6 -56h53v-28q-38 -13 -109 -10q-18 2 -22.5 13t-4.5 23l-1 6q-51 -46 -108 -46q-77 0 -101 56q-8 18 -8 43q0 111 175 111h49v23q0 50 -11 67t-23.5 22.5t-40.5 5.5
q-52 0 -93 -67l-47 29q4 28 45.5 51t101.5 23q139 0 139 -128v-138z" />
    <glyph glyph-name="uni01E4" unicode="&#x1e4;" horiz-adv-x="728" 
d="M407 377h247v-150h64v-71h-64v-129q-57 -18 -115.5 -27.5t-135.5 -9.5q-163 0 -252.5 97t-89.5 270q0 112 44.5 195.5t128 127.5t197.5 44t213 -42l-34 -78q-94 41 -184 41q-127 0 -199 -77t-72 -211q0 -142 68.5 -215.5t200.5 -73.5q72 0 140 17v71h-147v71h147v70h-157
v80z" />
    <glyph glyph-name="uni01E5" unicode="&#x1e5;" horiz-adv-x="615" 
d="M443 15l3 66h-4q-54 -81 -166 -81q-105 0 -163 71t-58 201q0 128 58 201t162 73q109 0 168 -81h5l12 71h70v-545q0 -20 -2 -37h57v-71h-72q-47 -123 -223 -123q-117 0 -193 34v81q78 -42 198 -42q77 0 117 50h-149v71h178l2 30v31zM289 72q83 0 119 42.5t36 136.5v16
q0 107 -37 156t-120 49q-68 0 -104.5 -50.5t-36.5 -150.5q0 -199 143 -199z" />
    <glyph glyph-name="Gcaron" unicode="&#x1e6;" horiz-adv-x="728" 
d="M248 931h60q56 -36 107 -92q62 62 109 92h62v-13q-100 -100 -125 -147h-90q-29 50 -123 147v13zM452 34q-68 -47 -170 -47q-168 0 -224 135q-19 45 -19 109q0 126 70 192t191 66q81 0 144 -35l-9 -94h-41q-17 48 -33 63q-26 25 -69 25q-87 0 -129.5 -56t-42.5 -152
t42.5 -152t120.5 -56q61 0 99 19v78q0 30 -5 43q-11 4 -35 4h-40v37q6 0 28.5 2.5t58.5 2.5h65q-1 -16 -1 -27l-1 -31v-126z" />
    <glyph glyph-name="gcaron" unicode="&#x1e7;" horiz-adv-x="615" 
d="M138 766h60q56 -36 107 -92q62 62 109 92h62v-13q-100 -100 -125 -147h-90q-29 50 -123 147v13zM77 22q-27 4 -27 46q0 19 10.5 38t31.5 25v1q-55 32 -55 102q0 84 83 113q26 9 57.5 9t73.5 -15l85 11q18 0 21 -7t3 -31v-7h-74q28 -34 28 -68q0 -63 -38 -98t-117 -35
q-6 0 -46 5q-3 -4 -4 -8.5t-2.5 -9.5t-1.5 -14t12 -14t51 -5q88 0 127 -20q49 -24 49 -86q0 -104 -176 -104q-114 0 -144 61q-9 18 -9 38q0 52 62 71v2zM261 -2.5q-20 15.5 -75 15.5t-75 -2q-33 -40 -33 -64t14 -35q29 -23 73 -23q73 0 94.5 16t21.5 46.5t-20 46zM250 230
q0 87 -74 87q-40 0 -58 -21.5t-18 -54.5t5.5 -48t16.5 -25q20 -18 53 -18t54 19t21 61z" />
    <glyph glyph-name="uni01E8" unicode="&#x1e8;" horiz-adv-x="619" 
d="M164 931h60q56 -36 107 -92q62 62 109 92h62v-13q-100 -100 -125 -147h-90q-29 50 -123 147v13zM26 476q46 6 114.5 6t98.5 -6v-36h-30q-21 0 -35 -4q-5 -20 -5 -40v-311q0 -25 5 -39q16 -4 35 -4h30v-47q-45 5 -107 5q-71 0 -105 -5v47h30q20 0 34 4q5 13 5 35v315
q0 27 -5 40q-11 4 -35 4h-30v36zM300 476q50 6 109.5 6t82.5 -6l-2 -36h-27q-15 0 -31 -4q-27 -22 -79.5 -80t-69.5 -76t-27 -29l132 -166q15 -19 37 -39q16 -4 33 -4h26l5 -47q-40 5 -106.5 5t-100.5 -5v47h6q23 0 33 4q-4 11 -25 39l-104 139q-3 3 -5 6.5t-8 12.5
q5 7 17.5 21t23 26.5t38.5 43t52 56.5q33 33 33 40v6q-8 4 -28 4h-19z" />
    <glyph glyph-name="uni01E9" unicode="&#x1e9;" horiz-adv-x="534" 
d="M128 951h60q56 -36 107 -92q62 62 109 92h62v-13q-100 -100 -125 -147h-90q-29 50 -123 147v13zM190 -4q-46 4 -80 4t-76 -4l1 28q28 4 34 10.5t6.5 14t0.5 18.5v399q0 8 -2 16q-15 5 -29 5h-32v29q45 10 119 10q11 -8 13.5 -17t2.5 -21v-313l89 85q38 36 38 47
q-1 6 -13 7v32h145v-32h-12q-7 0 -15 -2l-20 -7q-11 -3 -21 -13l-115 -102l124 -142q12 -12 30 -16.5t25 -4.5t10 1l5 -33q-50 5 -83 5q-40 0 -84 -4v29q16 0 16 6q-9 14 -21 29l-80 98l-18 -13v-69q0 -28 6 -37t34 -15z" />
    <glyph glyph-name="uni01EA" unicode="&#x1ea;" horiz-adv-x="780" 
d="M400 -116q0 -22 12 -33.5t33 -11.5t48 6v-56q-34 -9 -62 -9q-103 0 -103 94q0 68 78 126h62q-34 -32 -51 -58.5t-17 -57.5zM119 238q0 -209 143 -209t143 210q0 104 -37 157q-38 52 -106 52q-103 0 -133 -118q-10 -39 -10 -92zM486 239.5q0 -116.5 -60 -184.5t-163.5 -68
t-164 68t-60.5 184.5t60.5 183t163.5 66.5t163.5 -66.5t60.5 -183z" />
    <glyph glyph-name="uni01EB" unicode="&#x1eb;" horiz-adv-x="604" 
d="M302 -116q0 -22 12 -33.5t33 -11.5t48 6v-56q-34 -9 -62 -9q-103 0 -103 94q0 68 78 126h62q-34 -32 -51 -58.5t-17 -57.5zM342.5 40.5q-50.5 -48.5 -127.5 -48.5t-127 48t-50 133t50.5 134t127.5 49t127 -50t50 -133.5t-50.5 -132zM316 174q0 143 -101 143
q-78 0 -95 -81q-5 -27 -5 -62q0 -74 24 -109.5t77.5 -35.5t76.5 36.5t23 108.5z" />
    <glyph glyph-name="uni01EC" unicode="&#x1ec;" horiz-adv-x="780" 
d="M400 -116q0 -22 12 -33.5t33 -11.5t48 6v-56q-34 -9 -62 -9q-103 0 -103 94q0 68 78 126h62q-34 -32 -51 -58.5t-17 -57.5zM242 842h297v-71h-297v71zM119 238q0 -209 143 -209t143 210q0 104 -37 157q-38 52 -106 52q-103 0 -133 -118q-10 -39 -10 -92zM486 239.5
q0 -116.5 -60 -184.5t-163.5 -68t-164 68t-60.5 184.5t60.5 183t163.5 66.5t163.5 -66.5t60.5 -183z" />
    <glyph glyph-name="uni01ED" unicode="&#x1ed;" horiz-adv-x="604" 
d="M302 -116q0 -22 12 -33.5t33 -11.5t48 6v-56q-34 -9 -62 -9q-103 0 -103 94q0 68 78 126h62q-34 -32 -51 -58.5t-17 -57.5zM154 677h297v-71h-297v71zM342.5 40.5q-50.5 -48.5 -127.5 -48.5t-127 48t-50 133t50.5 134t127.5 49t127 -50t50 -133.5t-50.5 -132zM316 174
q0 143 -101 143q-78 0 -95 -81q-5 -27 -5 -62q0 -74 24 -109.5t77.5 -35.5t76.5 36.5t23 108.5z" />
    <glyph glyph-name="uni01EE" unicode="&#x1ee;" horiz-adv-x="583" 
d="M103 931h60q56 -36 107 -92q62 62 109 92h62v-13q-100 -100 -125 -147h-90q-29 50 -123 147v13zM291 440q68 -2 122.5 -30t85 -76.5t30.5 -112.5q0 -109 -76 -170t-212 -61q-126 0 -206 39v82q49 -23 104 -35t103 -12q97 0 145 41t48 117q0 69 -49.5 107t-143.5 38h-62
v65l206 202h-331v80h444v-71z" />
    <glyph glyph-name="uni01EF" unicode="&#x1ef;" horiz-adv-x="498" 
d="M218 228q115 -8 180.5 -68.5t65.5 -158.5q0 -70 -33 -125.5t-93.5 -85.5t-138.5 -30q-117 0 -185 35v80q89 -42 189 -42q79 0 126 45t47 121q0 77 -51 118t-151 41h-59v61l219 243h-306v74h409v-64zM58 766h60q56 -36 107 -92q62 62 109 92h62v-13q-100 -100 -125 -147
h-90q-29 50 -123 147v13z" />
    <glyph glyph-name="uni01F0" unicode="&#x1f0;" horiz-adv-x="257" 
d="M-40 766h60q56 -36 107 -92q62 62 109 92h62v-13q-100 -100 -125 -147h-90q-29 50 -123 147v13zM22 -240q-46 0 -77 12v71q34 -10 66 -10q38 0 56 21t18 63v619h88v-616q0 -80 -38.5 -120t-112.5 -40z" />
    <glyph glyph-name="uni01F1" unicode="&#x1f1;" horiz-adv-x="1291" 
d="M26 475q84 11 177 11t124 -4.5t58 -15.5q118 -51 118 -228q0 -156 -105 -205q-58 -27 -162 -31q-47 -2 -93.5 -2t-111.5 -5v48q53 0 64 3q5 15 5 40v298q0 22 -5 47q-11 4 -34 4h-35v40zM252 440l-80 -1v-397q6 -1 11 -1h27q143 0 187 75q25 44 25 112.5t-10 106.5
t-31 61q-39 44 -129 44zM807 414l1 -37h-36q0 2 -2.5 16t-4 24.5l-3 21t-3 18.5t-1.5 13q43 12 173 12h157q14 -9 14 -26v-18l-280 -396h171q26 0 36 12q20 24 20 78h54v-103q0 -9 -2 -19q0 -10 -83 -10h-262q-12 9 -12 27v18l274 395h-93q-8 0 -20.5 -1t-32.5 -2t-42.5 -7
t-22.5 -16z" />
    <glyph glyph-name="uni01F2" unicode="&#x1f2;" horiz-adv-x="1200" 
d="M26 475q84 11 177 11t124 -4.5t58 -15.5q118 -51 118 -228q0 -156 -105 -205q-58 -27 -162 -31q-47 -2 -93.5 -2t-111.5 -5v48q53 0 64 3q5 15 5 40v298q0 22 -5 47q-11 4 -34 4h-35v40zM252 440l-80 -1v-397q6 -1 11 -1h27q143 0 187 75q25 44 25 112.5t-10 106.5
t-31 61q-39 44 -129 44zM766 347l48 -1h158q55 0 60 -1t11 -5t6 -20v-26l-220 -259h135q32 0 45 8l14 51q8 1 16.5 0.5t16.5 -0.5l2 -56v-42q-40 4 -74 4h-209q-9 0 -12.5 5t-3.5 22v20l224 264h-122q-32 0 -46 -8l-14 -51q-8 -1 -16 -1h-16l-3 65v31z" />
    <glyph glyph-name="uni01F3" unicode="&#x1f3;" horiz-adv-x="1084" 
d="M211 317q-96 0 -96 -141.5t94 -141.5q51 0 79 48q9 15 14 34q0 113 -4 165q-36 36 -87 36zM237 517q38 9 81.5 9t51.5 -2q3 -18 3 -26v-408q0 -36 6 -56h58v-29q-38 -9 -76 -9t-47.5 5t-9.5 27v16q-41 -52 -111.5 -52t-112.5 46t-42 133t40 137t108 50t116 -44v140
q0 18 -3 29q-12 4 -29 4h-33v30zM651 347l48 -1h158q55 0 60 -1t11 -5t6 -20v-26l-220 -259h135q32 0 45 8l14 51q8 1 16.5 0.5t16.5 -0.5l2 -56v-42q-40 4 -74 4h-209q-9 0 -12.5 5t-3.5 22v20l224 264h-122q-32 0 -46 -8l-14 -51q-8 -1 -16 -1h-16l-3 65v31z" />
    <glyph glyph-name="uni01F4" unicode="&#x1f4;" horiz-adv-x="728" 
d="M452 34q-68 -47 -170 -47q-168 0 -224 135q-19 45 -19 109q0 126 70 192t191 66q81 0 144 -35l-9 -94h-41q-17 48 -33 63q-26 25 -69 25q-87 0 -129.5 -56t-42.5 -152t42.5 -152t120.5 -56q61 0 99 19v78q0 30 -5 43q-11 4 -35 4h-40v37q6 0 28.5 2.5t58.5 2.5h65
q-1 -16 -1 -27l-1 -31v-126zM453 696q-46 -49 -102 -107h-46q14 23 24 40q29 51 40 67h84z" />
    <glyph glyph-name="uni01F5" unicode="&#x1f5;" horiz-adv-x="615" 
d="M77 22q-27 4 -27 46q0 19 10.5 38t31.5 25v1q-55 32 -55 102q0 84 83 113q26 9 57.5 9t73.5 -15l85 11q18 0 21 -7t3 -31v-7h-74q28 -34 28 -68q0 -63 -38 -98t-117 -35q-6 0 -46 5q-3 -4 -4 -8.5t-2.5 -9.5t-1.5 -14t12 -14t51 -5q88 0 127 -20q49 -24 49 -86
q0 -104 -176 -104q-114 0 -144 61q-9 18 -9 38q0 52 62 71v2zM261 -2.5q-20 15.5 -75 15.5t-75 -2q-33 -40 -33 -64t14 -35q29 -23 73 -23q73 0 94.5 16t21.5 46.5t-20 46zM250 230q0 87 -74 87q-40 0 -58 -21.5t-18 -54.5t5.5 -48t16.5 -25q20 -18 53 -18t54 19t21 61z
M315 531q-46 -49 -102 -107h-46q14 23 24 40q29 51 40 67h84z" />
    <glyph glyph-name="uni01F6" unicode="&#x1f6;" horiz-adv-x="937" 
d="M187 333v-333h-90v714h90v-302h296v302h90v-550q0 -45 23 -70t70 -25q44 0 68 25t24 71v371h90v-371q0 -81 -49 -127.5t-136 -46.5q-85 0 -132.5 46t-47.5 129v167h-296z" />
    <glyph glyph-name="uni01F7" unicode="&#x1f7;" horiz-adv-x="661" 
d="M389 725q103 0 160 -64t57 -179q0 -161 -106.5 -284.5t-312.5 -207.5v-230h-90v955h71l15 -97h5q37 55 86.5 81t114.5 26zM187 74q161 67 245 171.5t84 235.5q0 81 -37 123.5t-106 42.5q-94 0 -140 -55.5t-46 -173.5v-344z" />
    <glyph glyph-name="uni01F8" unicode="&#x1f8;" horiz-adv-x="759" 
d="M228 -5q-30 5 -94.5 5t-99.5 -5v47h30q20 0 34 4q6 13 6 39l-1 311q0 27 -5 40q-11 4 -35 4h-37v36q78 6 104 6t48 -5q157 -243 243 -388l-5 269v38q0 27 -5 40q-16 4 -35 4h-34v36q44 6 107.5 6t88.5 -6v-36h-26q-21 0 -35 -4q-5 -13 -5 -49.5t-1 -88t-2 -104.5t-3 -104
t-3 -95h-35q-16 0 -30 7l-244 387q4 -76 4 -191t1.5 -129.5t4.5 -22.5q16 -4 34 -4h30v-47zM182 696h84l63 -107h-47z" />
    <glyph glyph-name="uni01F9" unicode="&#x1f9;" horiz-adv-x="618" 
d="M315 218q0 96 -59 96q-25 0 -54 -17t-47 -40v-178q0 -31 6 -40.5t34 -14.5l2 -28q-38 4 -81.5 4t-75.5 -4l1 28q30 4 36 12t6 33v214q0 17 -3 26q-8 5 -23 5h-38v32q24 6 70 6t64 -6v-42q52 52 129 52q45 0 74.5 -26.5t29.5 -80.5v-159q0 -26 6 -56h48l4 -30
q-34 -8 -65.5 -8t-38.5 1q-27 4 -27 27l2 73v121zM121 531h84l63 -107h-47z" />
    <glyph glyph-name="Aringacute" unicode="&#x1fa;" horiz-adv-x="640" 
d="M430 699q0 -32 -13 -54.5t-35 -35.5l258 -609h-93l-82 192h-295l-78 -192h-92l258 608q-49 26 -49 90q0 48 29.5 77t79.5 29t81 -29.5t31 -75.5zM439 272l-84 207q-13 30 -36 101q-15 -52 -35 -103l-83 -205h238zM271 838q28 33 51 67t34 53h106v-8q-15 -21 -58 -60.5
t-74 -60.5h-59v9zM374 698q0 27 -15.5 41.5t-40.5 14.5q-24 0 -40 -14.5t-16 -41.5q0 -26 14.5 -41t41.5 -15q25 0 40.5 14.5t15.5 41.5z" />
    <glyph glyph-name="aringacute" unicode="&#x1fb;" horiz-adv-x="561" 
d="M416 0l-17 76h-4q-40 -50 -80 -68t-100 -18q-79 0 -124 41.5t-45 117.5q0 163 257 171l91 3v32q0 61 -26.5 90t-84.5 29q-42 0 -80 -12.5t-71 -28.5l-27 66q41 21 88.5 33.5t94.5 12.5q97 0 144.5 -43t47.5 -137v-365h-64zM235 61q74 0 116 40t42 113v48l-79 -3
q-92 -3 -134.5 -29t-42.5 -82q0 -42 26 -64.5t72 -22.5zM396 713q0 -49 -30.5 -78t-80.5 -29t-79.5 29t-29.5 77q0 47 29 76t80 29q49 0 80 -29t31 -75zM341 712q0 26 -16 41t-40 15t-40 -15t-16 -41t14.5 -41t41.5 -15q25 0 40.5 15t15.5 41zM230 856v8q22 21 48 50t37 44
h131v-6q-10 -12 -50.5 -37.5t-102.5 -58.5h-63z" />
    <glyph glyph-name="AEacute" unicode="&#x1fc;" horiz-adv-x="880" 
d="M570 696q-46 -49 -102 -107h-46q14 23 24 40q29 51 40 67h84z" />
    <glyph glyph-name="aeacute" unicode="&#x1fd;" horiz-adv-x="863" 
d="M510 202q1 1 1 2v4q0 76 -44 101q-16 9 -38 9q-88 0 -94 -116h175zM336 163q8 -129 120 -129q55 0 90 35l30 -13q-36 -64 -135 -64q-81 0 -129.5 47t-48.5 135q0 128 104 169q32 13 68 13q67 0 107.5 -37t40.5 -92.5t-28 -61.5q-10 -2 -23 -2h-196zM106 94q0 -60 67 -60
q33 0 80 35q5 45 5 95h-53q-48 0 -73.5 -18t-25.5 -52zM329 90q0 -36 6 -56h53v-28q-38 -13 -109 -10q-18 2 -22.5 13t-4.5 23l-1 6q-51 -46 -108 -46q-77 0 -101 56q-8 18 -8 43q0 111 175 111h49v23q0 50 -11 67t-23.5 22.5t-40.5 5.5q-52 0 -93 -67l-47 29q4 28 45.5 51
t101.5 23q139 0 139 -128v-138zM472 531q-46 -49 -102 -107h-46q14 23 24 40q29 51 40 67h84z" />
    <glyph glyph-name="Oslashacute" unicode="&#x1fe;" horiz-adv-x="780" 
d="M720 358q0 -171 -86.5 -269.5t-242.5 -98.5q-113 0 -185 47l-48 -68l-61 40l52 74q-88 97 -88 276q0 174 85.5 270t245.5 96q100 0 178 -45l46 66l61 -41l-51 -71q94 -99 94 -276zM625 358q0 129 -51 202l-320 -454q56 -38 137 -38q115 0 174.5 73t59.5 217zM156 358
q0 -126 47 -198l319 451q-53 35 -130 35q-116 0 -176 -73.5t-60 -214.5zM417 696q-46 -49 -102 -107h-46q14 23 24 40q29 51 40 67h84z" />
    <glyph glyph-name="oslashacute" unicode="&#x1ff;" horiz-adv-x="604" 
d="M551 269q0 -131 -66.5 -205t-183.5 -74q-74 0 -129 33l-40 -56l-58 39l45 62q-64 76 -64 201q0 131 65.5 204t183.5 73q74 0 131 -36l39 56l59 -38l-45 -63q63 -76 63 -196zM146 269q0 -81 24 -128l220 306q-36 25 -88 25q-156 0 -156 -203zM460 269q0 74 -23 123
l-220 -306q34 -23 86 -23q77 0 117 52.5t40 153.5zM322 531q-46 -49 -102 -107h-46q14 23 24 40q29 51 40 67h84z" />
    <glyph glyph-name="uni0200" unicode="&#x200;" horiz-adv-x="639" 
d="M449 771h-50q-29 23 -72 72t-61 78v10h97q14 -30 38 -72.5t48 -75.5v-12zM273 771h-50q-32 25 -74.5 74t-58.5 76v10h97q14 -30 38 -72.5t48 -75.5v-12zM251 421l-84 -245h170l-83 245h-3zM167 -5q-24 5 -80 5t-87 -5l10 47h15q18 0 32 4q14 19 19.5 34.5t14 38.5
t20.5 53t25.5 65t27.5 69l70 176h31q24 0 40 -6l148 -389q12 -29 20 -41q16 -4 32 -4h15l10 -47q-28 5 -61 5h-47q-43 0 -73 -5l-7 47h6q18 0 34 4q0 15 -10 39l-23 56h-193l-18 -54q-8 -24 -8 -38q0 -7 25 -7h15z" />
    <glyph glyph-name="uni0201" unicode="&#x201;" horiz-adv-x="561" 
d="M415 606h-50q-29 23 -72 72t-61 78v10h97q14 -30 38 -72.5t48 -75.5v-12zM239 606h-50q-32 25 -74.5 74t-58.5 76v10h97q14 -30 38 -72.5t48 -75.5v-12zM106 94q0 -60 67 -60q33 0 80 35q5 45 5 95h-53q-48 0 -73.5 -18t-25.5 -52zM329 90q0 -36 6 -56h53v-28
q-31 -11 -84 -11q-12 0 -25 1q-18 2 -22.5 13t-4.5 23l-1 6q-51 -46 -108 -46q-77 0 -101 56q-8 18 -8 43q0 111 175 111h49v23q0 50 -11 67t-23.5 22.5t-40.5 5.5q-52 0 -93 -67l-47 29q4 28 45.5 51t101.5 23q139 0 139 -128v-138z" />
    <glyph glyph-name="uni0202" unicode="&#x202;" horiz-adv-x="639" 
d="M322 905q69 0 108.5 -33.5t44.5 -100.5h-54q-4 36 -25 49.5t-76 13.5q-50 0 -73.5 -15.5t-27.5 -47.5h-55q5 63 47.5 98.5t110.5 35.5zM251 421l-84 -245h170l-83 245h-3zM167 -5q-24 5 -80 5t-87 -5l10 47h15q18 0 32 4q14 19 19.5 34.5t14 38.5t20.5 53t25.5 65
t27.5 69l70 176h31q24 0 40 -6l148 -389q12 -29 20 -41q16 -4 32 -4h15l10 -47q-28 5 -61 5h-47q-43 0 -73 -5l-7 47h6q18 0 34 4q0 15 -10 39l-23 56h-193l-18 -54q-8 -24 -8 -38q0 -7 25 -7h15z" />
    <glyph glyph-name="uni0203" unicode="&#x203;" horiz-adv-x="561" 
d="M293 740q69 0 108.5 -33.5t44.5 -100.5h-54q-4 36 -25 49.5t-76 13.5q-50 0 -73.5 -15.5t-27.5 -47.5h-55q5 63 47.5 98.5t110.5 35.5zM106 94q0 -60 67 -60q33 0 80 35q5 45 5 95h-53q-48 0 -73.5 -18t-25.5 -52zM329 90q0 -36 6 -56h53v-28q-31 -11 -84 -11
q-12 0 -25 1q-18 2 -22.5 13t-4.5 23l-1 6q-51 -46 -108 -46q-77 0 -101 56q-8 18 -8 43q0 111 175 111h49v23q0 50 -11 67t-23.5 22.5t-40.5 5.5q-52 0 -93 -67l-47 29q4 28 45.5 51t101.5 23q139 0 139 -128v-138z" />
    <glyph glyph-name="uni0204" unicode="&#x204;" horiz-adv-x="556" 
d="M437 771h-50q-29 23 -72 72t-61 78v10h97q14 -30 38 -72.5t48 -75.5v-12zM261 771h-50q-32 25 -74.5 74t-58.5 76v10h97q14 -30 38 -72.5t48 -75.5v-12zM26 471q59 11 172 11h205l9 -44q1 -8 5 -25t4 -30l-49 -1l-2 16q-2 14 -8 31q-20 10 -86 10l-30 -1l-74 -1v-170h114
q24 0 33 17q4 6 8 20h17q0 -64 -4 -118h-21q-11 34 -29 40q-6 2 -15 2h-103v-186h154q38 0 48 12q6 17 10 55h42v-39q0 -16 -1.5 -33.5t-2.5 -29.5q-34 -10 -68.5 -11t-62.5 -1l-155 5q-72 0 -106 -5v47h30q20 0 34 4q5 11 5 32v7v308q0 27 -5 39q-6 3 -14 3h-54v36z" />
    <glyph glyph-name="uni0205" unicode="&#x205;" horiz-adv-x="563" 
d="M431 606h-50q-29 23 -72 72t-61 78v10h97q14 -30 38 -72.5t48 -75.5v-12zM255 606h-50q-32 25 -74.5 74t-58.5 76v10h97q14 -30 38 -72.5t48 -75.5v-12zM285 202q1 1 1 2v4q0 76 -44 101q-16 9 -38 9q-88 0 -94 -116h175zM111 163q8 -129 120 -129q55 0 90 35l30 -13
q-36 -64 -135 -64q-81 0 -129.5 47t-48.5 135q0 128 104 169q32 13 68 13q67 0 107.5 -37t40.5 -92.5t-28 -61.5q-10 -2 -23 -2h-196z" />
    <glyph glyph-name="uni0206" unicode="&#x206;" horiz-adv-x="556" 
d="M300 905q69 0 108.5 -33.5t44.5 -100.5h-54q-4 36 -25 49.5t-76 13.5q-50 0 -73.5 -15.5t-27.5 -47.5h-55q5 63 47.5 98.5t110.5 35.5zM26 471q59 11 172 11h205l9 -44q1 -8 5 -25t4 -30l-49 -1l-2 16q-2 14 -8 31q-20 10 -86 10l-30 -1l-74 -1v-170h114q24 0 33 17
q4 6 8 20h17q0 -64 -4 -118h-21q-11 34 -29 40q-6 2 -15 2h-103v-186h154q38 0 48 12q6 17 10 55h42v-39q0 -16 -1.5 -33.5t-2.5 -29.5q-34 -10 -68.5 -11t-62.5 -1l-155 5q-72 0 -106 -5v47h30q20 0 34 4q5 11 5 32v7v308q0 27 -5 39q-6 3 -14 3h-54v36z" />
    <glyph glyph-name="uni0207" unicode="&#x207;" horiz-adv-x="563" 
d="M294 740q69 0 108.5 -33.5t44.5 -100.5h-54q-4 36 -25 49.5t-76 13.5q-50 0 -73.5 -15.5t-27.5 -47.5h-55q5 63 47.5 98.5t110.5 35.5zM285 202q1 1 1 2v4q0 76 -44 101q-16 9 -38 9q-88 0 -94 -116h175zM111 163q8 -129 120 -129q55 0 90 35l30 -13q-36 -64 -135 -64
q-81 0 -129.5 47t-48.5 135q0 128 104 169q32 13 68 13q67 0 107.5 -37t40.5 -92.5t-28 -61.5q-10 -2 -23 -2h-196z" />
    <glyph glyph-name="uni0208" unicode="&#x208;" horiz-adv-x="338" 
d="M299 771h-50q-29 23 -72 72t-61 78v10h97q14 -30 38 -72.5t48 -75.5v-12zM123 771h-50q-32 25 -74.5 74t-58.5 76v10h97q14 -30 38 -72.5t48 -75.5v-12zM239 -5q-32 5 -103.5 5t-108.5 -5v47h29q19 0 35 4q5 13 5 32v7v313q0 25 -5 38q-11 4 -35 4h-30v36q46 6 114.5 6
t98.5 -6v-36h-30q-21 0 -35 -4q-5 -20 -5 -38v-311q0 -21 5 -41q16 -4 35 -4h30v-47zM239 -5q-32 5 -103.5 5t-108.5 -5v47h29q19 0 35 4q5 13 5 32v7v313q0 25 -5 38q-11 4 -35 4h-30v36q46 6 114.5 6t98.5 -6v-36h-30q-21 0 -35 -4q-5 -20 -5 -38v-311q0 -21 5 -41
q16 -4 35 -4h30v-47z" />
    <glyph glyph-name="uni0209" unicode="&#x209;" horiz-adv-x="257" 
d="M258 606h-50q-29 23 -72 72t-61 78v10h97q14 -30 38 -72.5t48 -75.5v-12zM82 606h-50q-32 25 -74.5 74t-58.5 76v10h97q14 -30 38 -72.5t48 -75.5v-12zM173 0h-88v536h88v-536z" />
    <glyph glyph-name="uni020A" unicode="&#x20a;" horiz-adv-x="338" 
d="M172 905q69 0 108.5 -33.5t44.5 -100.5h-54q-4 36 -25 49.5t-76 13.5q-50 0 -73.5 -15.5t-27.5 -47.5h-55q5 63 47.5 98.5t110.5 35.5zM239 -5q-32 5 -103.5 5t-108.5 -5v47h29q19 0 35 4q5 13 5 32v7v313q0 25 -5 38q-11 4 -35 4h-30v36q46 6 114.5 6t98.5 -6v-36h-30
q-21 0 -35 -4q-5 -20 -5 -38v-311q0 -21 5 -41q16 -4 35 -4h30v-47zM239 -5q-32 5 -103.5 5t-108.5 -5v47h29q19 0 35 4q5 13 5 32v7v313q0 25 -5 38q-11 4 -35 4h-30v36q46 6 114.5 6t98.5 -6v-36h-30q-21 0 -35 -4q-5 -20 -5 -38v-311q0 -21 5 -41q16 -4 35 -4h30v-47z
" />
    <glyph glyph-name="uni020B" unicode="&#x20b;" horiz-adv-x="257" 
d="M131 740q69 0 108.5 -33.5t44.5 -100.5h-54q-4 36 -25 49.5t-76 13.5q-50 0 -73.5 -15.5t-27.5 -47.5h-55q5 63 47.5 98.5t110.5 35.5zM173 0h-88v536h88v-536z" />
    <glyph glyph-name="uni020C" unicode="&#x20c;" horiz-adv-x="780" 
d="M521 771h-50q-29 23 -72 72t-61 78v10h97q14 -30 38 -72.5t48 -75.5v-12zM345 771h-50q-32 25 -74.5 74t-58.5 76v10h97q14 -30 38 -72.5t48 -75.5v-12zM119 238q0 -209 143 -209t143 210q0 104 -37 157q-38 52 -106 52q-103 0 -133 -118q-10 -39 -10 -92zM486 239.5
q0 -116.5 -60 -184.5t-163.5 -68t-164 68t-60.5 184.5t60.5 183t163.5 66.5t163.5 -66.5t60.5 -183z" />
    <glyph glyph-name="uni020D" unicode="&#x20d;" horiz-adv-x="604" 
d="M438 606h-50q-29 23 -72 72t-61 78v10h97q14 -30 38 -72.5t48 -75.5v-12zM262 606h-50q-32 25 -74.5 74t-58.5 76v10h97q14 -30 38 -72.5t48 -75.5v-12zM342.5 40.5q-50.5 -48.5 -127.5 -48.5t-127 48t-50 133t50.5 134t127.5 49t127 -50t50 -133.5t-50.5 -132zM316 174
q0 143 -101 143q-78 0 -95 -81q-5 -27 -5 -62q0 -74 24 -109.5t77.5 -35.5t76.5 36.5t23 108.5z" />
    <glyph glyph-name="uni020E" unicode="&#x20e;" horiz-adv-x="780" 
d="M393 905q69 0 108.5 -33.5t44.5 -100.5h-54q-4 36 -25 49.5t-76 13.5q-50 0 -73.5 -15.5t-27.5 -47.5h-55q5 63 47.5 98.5t110.5 35.5zM119 238q0 -209 143 -209t143 210q0 104 -37 157q-38 52 -106 52q-103 0 -133 -118q-10 -39 -10 -92zM486 239.5q0 -116.5 -60 -184.5
t-163.5 -68t-164 68t-60.5 184.5t60.5 183t163.5 66.5t163.5 -66.5t60.5 -183z" />
    <glyph glyph-name="uni020F" unicode="&#x20f;" horiz-adv-x="604" 
d="M305 740q69 0 108.5 -33.5t44.5 -100.5h-54q-4 36 -25 49.5t-76 13.5q-50 0 -73.5 -15.5t-27.5 -47.5h-55q5 63 47.5 98.5t110.5 35.5zM342.5 40.5q-50.5 -48.5 -127.5 -48.5t-127 48t-50 133t50.5 134t127.5 49t127 -50t50 -133.5t-50.5 -132zM316 174q0 143 -101 143
q-78 0 -95 -81q-5 -27 -5 -62q0 -74 24 -109.5t77.5 -35.5t76.5 36.5t23 108.5z" />
    <glyph glyph-name="uni0210" unicode="&#x210;" horiz-adv-x="622" 
d="M440 771h-50q-29 23 -72 72t-61 78v10h97q14 -30 38 -72.5t48 -75.5v-12zM264 771h-50q-32 25 -74.5 74t-58.5 76v10h97q14 -30 38 -72.5t48 -75.5v-12zM236 244q118 0 118 99q0 54 -29 75.5t-97 21.5h-52v-196h60zM245 -5q-33 5 -104 5t-108 -5v47h30q20 0 34 4
q6 13 6 39l-1 315q0 24 -5 37q-10 3 -31 3h-40v36q11 1 26 3t32.5 2.5t36 1.5t43.5 1h66q97 0 148 -31.5t51 -106.5q0 -96 -96 -130q15 -85 84 -148q28 -26 48 -26h18v-47h-50q-55 0 -95 39q-28 29 -48 86q-9 24 -13.5 45.5t-8.5 38.5h-46t-46 1v-118q0 -28 5 -41
q16 -4 34 -4h30v-47z" />
    <glyph glyph-name="uni0211" unicode="&#x211;" horiz-adv-x="413" 
d="M376 606h-50q-29 23 -72 72t-61 78v10h97q14 -30 38 -72.5t48 -75.5v-12zM200 606h-50q-32 25 -74.5 74t-58.5 76v10h97q14 -30 38 -72.5t48 -75.5v-12zM23 346q24 6 69 6t63 -6v-81q31 48 47 62q33 29 67 29t54 -10l-9 -93h-30l-8 49q-18 2 -28 2t-27 -9t-31 -25
q-32 -38 -32 -80v-112q0 -32 6.5 -41t33.5 -13l3 -28q-48 4 -82 4t-76 -4l2 28q30 4 35.5 11t5.5 34v217q0 11 -2 23q-12 5 -23 5h-38v32z" />
    <glyph glyph-name="uni0212" unicode="&#x212;" horiz-adv-x="622" 
d="M313 905q69 0 108.5 -33.5t44.5 -100.5h-54q-4 36 -25 49.5t-76 13.5q-50 0 -73.5 -15.5t-27.5 -47.5h-55q5 63 47.5 98.5t110.5 35.5zM236 244q118 0 118 99q0 54 -29 75.5t-97 21.5h-52v-196h60zM245 -5q-33 5 -104 5t-108 -5v47h30q20 0 34 4q6 13 6 39l-1 315
q0 24 -5 37q-10 3 -31 3h-40v36q11 1 26 3t32.5 2.5t36 1.5t43.5 1h66q97 0 148 -31.5t51 -106.5q0 -96 -96 -130q15 -85 84 -148q28 -26 48 -26h18v-47h-50q-55 0 -95 39q-28 29 -48 86q-9 24 -13.5 45.5t-8.5 38.5h-46t-46 1v-118q0 -28 5 -41q16 -4 34 -4h30v-47z" />
    <glyph glyph-name="uni0213" unicode="&#x213;" horiz-adv-x="413" 
d="M244 740q69 0 108.5 -33.5t44.5 -100.5h-54q-4 36 -25 49.5t-76 13.5q-50 0 -73.5 -15.5t-27.5 -47.5h-55q5 63 47.5 98.5t110.5 35.5zM23 346q24 6 69 6t63 -6v-81q31 48 47 62q33 29 67 29t54 -10l-9 -93h-30l-8 49q-18 2 -28 2t-27 -9t-31 -25q-32 -38 -32 -80v-112
q0 -32 6.5 -41t33.5 -13l3 -28q-48 4 -82 4t-76 -4l2 28q30 4 35.5 11t5.5 34v217q0 11 -2 23q-12 5 -23 5h-38v32z" />
    <glyph glyph-name="uni0214" unicode="&#x214;" horiz-adv-x="730" 
d="M509 771h-50q-29 23 -72 72t-61 78v10h97q14 -30 38 -72.5t48 -75.5v-12zM333 771h-50q-32 25 -74.5 74t-58.5 76v10h97q14 -30 38 -72.5t48 -75.5v-12zM330 477q37 5 102.5 5t95.5 -6v-36h-31q-21 0 -35 -4q-5 -13 -5 -40v-223q0 -88 -52.5 -137t-138.5 -49
q-186 0 -186 209v200q0 27 -5 40q-11 4 -34 4h-31v37q38 5 111 5t103 -6v-36h-31q-19 0 -35 -4q-4 -12 -4 -32v-8v-228q0 -103 72 -130q22 -9 50 -9q64 0 94 40t30 124v203q0 27 -5 40q-11 4 -35 4h-30v37z" />
    <glyph glyph-name="uni0215" unicode="&#x215;" horiz-adv-x="618" 
d="M438 606h-50q-29 23 -72 72t-61 78v10h97q14 -30 38 -72.5t48 -75.5v-12zM262 606h-50q-32 25 -74.5 74t-58.5 76v10h97q14 -30 38 -72.5t48 -75.5v-12zM248 346q24 6 69 6t61 -6v-256q0 -26 6 -56h54v-29q-40 -9 -79 -9t-48.5 6t-9.5 25v11l-27 -18q-42 -28 -101 -28
q-98 0 -98 108v178q0 18 -4 32q-12 4 -28 4h-28v32q24 6 69.5 6t61.5 -6v-228q0 -44 7 -58q14 -26 54.5 -26t84.5 28q9 6 9 7q6 33 6 109v100q0 19 -4 32q-12 4 -28 4h-27v32z" />
    <glyph glyph-name="uni0216" unicode="&#x216;" horiz-adv-x="730" 
d="M368 905q69 0 108.5 -33.5t44.5 -100.5h-54q-4 36 -25 49.5t-76 13.5q-50 0 -73.5 -15.5t-27.5 -47.5h-55q5 63 47.5 98.5t110.5 35.5zM330 477q37 5 102.5 5t95.5 -6v-36h-31q-21 0 -35 -4q-5 -13 -5 -40v-223q0 -88 -52.5 -137t-138.5 -49q-186 0 -186 209v200
q0 27 -5 40q-11 4 -34 4h-31v37q38 5 111 5t103 -6v-36h-31q-19 0 -35 -4q-4 -12 -4 -32v-8v-228q0 -103 72 -130q22 -9 50 -9q64 0 94 40t30 124v203q0 27 -5 40q-11 4 -35 4h-30v37z" />
    <glyph glyph-name="uni0217" unicode="&#x217;" horiz-adv-x="618" 
d="M311 740q69 0 108.5 -33.5t44.5 -100.5h-54q-4 36 -25 49.5t-76 13.5q-50 0 -73.5 -15.5t-27.5 -47.5h-55q5 63 47.5 98.5t110.5 35.5zM248 346q24 6 69 6t61 -6v-256q0 -26 6 -56h54v-29q-40 -9 -79 -9t-48.5 6t-9.5 25v11l-27 -18q-42 -28 -101 -28q-98 0 -98 108v178
q0 18 -4 32q-12 4 -28 4h-28v32q24 6 69.5 6t61.5 -6v-228q0 -44 7 -58q14 -26 54.5 -26t84.5 28q9 6 9 7q6 33 6 109v100q0 19 -4 32q-12 4 -28 4h-27v32z" />
    <glyph glyph-name="uni0218" unicode="&#x218;" horiz-adv-x="548" 
d="M190 -209q11 25 24 70.5t17 77.5h87v-9q-8 -31 -31.5 -76.5t-48.5 -74.5h-48v12zM122 402q-7 -14 -7 -30q0 -31 23.5 -51.5t63.5 -34.5q85 -32 129 -66.5t44 -89.5q0 -101 -103 -134q-31 -9 -60 -9q-114 0 -179 57l15 90l51 -2q0 -53 14 -77q27 -27 91 -27q40 0 68.5 23
t28.5 58q0 54 -79 93q-25 12 -54 23t-52 24q-74 41 -74 111q0 89 104 119q35 10 77.5 10t82 -9t48.5 -24v-8l-2 -13q-4 -39 -9 -74l-43 4q0 47 -18.5 65t-70.5 18q-68 0 -89 -46z" />
    <glyph glyph-name="uni0219" unicode="&#x219;" horiz-adv-x="479" 
d="M161 -209q11 25 24 70.5t17 77.5h87v-9q-8 -31 -31.5 -76.5t-48.5 -74.5h-48v12zM183 356q69 0 103 -22q0 -12 -5.5 -37.5t-8.5 -45.5l-34 6q-1 15 -1.5 27.5t-1.5 20.5q-21 12 -62 12t-56 -12.5t-15 -35t18.5 -36t50.5 -24.5l34 -12q80 -27 97 -67q6 -14 6 -36
q0 -48 -40.5 -75t-99.5 -27t-114 22q-15 6 -23 12l16 87l35 -4q2 -35 6 -65q28 -15 80.5 -15t67.5 33q5 9 5 24t-15 27.5t-51 26.5l-29 11q-56 21 -75 37t-25.5 31t-6.5 37q0 46 37.5 73t106.5 27z" />
    <glyph glyph-name="uni021A" unicode="&#x21a;" horiz-adv-x="556" 
d="M191 -209q11 25 24 70.5t17 77.5h87v-9q-8 -31 -31.5 -76.5t-48.5 -74.5h-48v12zM452 476l-4 -118h-42q0 56 -11 82h-123v-353q0 -25 4 -41q16 -4 36 -4h30v-47q-32 5 -104 5t-109 -5v47h30q20 0 34 4q5 13 5 35v359h-123q-11 -20 -11 -82h-46l-4 118q12 6 79 6l71 -2h32
l43 -1l49 1h28l56 2q68 0 80 -6z" />
    <glyph glyph-name="uni021B" unicode="&#x21b;" horiz-adv-x="360" 
d="M141 -209q11 25 24 70.5t17 77.5h87v-9q-8 -31 -31.5 -76.5t-48.5 -74.5h-48v12zM180 -4q-99 0 -99 104v205h-68v18q0 8 4 11t12 5l56 7l9 61q3 21 8 31l6 16h45v-108h107v-18q0 -14 -5 -18.5t-18 -4.5h-84v-198q0 -59 28 -69q9 -4 21 -4t27 5q1 11 2.5 22t2.5 22t3 21
l44 3l3 -91q-42 -20 -104 -20z" />
    <glyph glyph-name="uni021C" unicode="&#x21c;" horiz-adv-x="587" 
d="M519 547q0 -69 -44.5 -113.5t-124.5 -56.5v-4q91 -12 137.5 -56t46.5 -115q0 -100 -75.5 -156t-212.5 -56q-128 0 -208 39v82q48 -23 103.5 -35t103.5 -12q97 0 146 35.5t49 102.5q0 64 -55 97t-165 33h-102v75h97q106 0 158.5 35.5t52.5 95.5q0 52 -39 82t-105 30
q-56 0 -100.5 -13t-97.5 -48l-43 61q103 74 242 74q110 0 173 -47.5t63 -129.5z" />
    <glyph glyph-name="uni021D" unicode="&#x21d;" horiz-adv-x="498" 
d="M193 228q70 0 111.5 35t41.5 90t-38.5 88t-103.5 33q-30 0 -60.5 -7.5t-72.5 -26.5l-30 70q44 21 83 28.5t85 7.5q103 0 162 -48t59 -133q0 -61 -31.5 -105t-95.5 -65q81 -21 121 -71t40 -123q0 -70 -33 -125.5t-93.5 -85.5t-138.5 -30q-116 0 -189 37v80
q44 -21 95 -32.5t98 -11.5q79 0 126 45t47 121q0 77 -51 118t-151 41h-79v70h98z" />
    <glyph glyph-name="uni021E" unicode="&#x21e;" horiz-adv-x="741" 
d="M201 931h60q56 -36 107 -92q62 62 109 92h62v-13q-100 -100 -125 -147h-90q-29 50 -123 147v13zM540 -5q-34 5 -104 5t-108 -5v47h30q21 0 35 4q6 13 5 39v141h-229v-139q0 -21 5 -41q16 -4 35 -4h30v-47q-34 5 -105 5t-107 -5v47h30q20 0 34 4q6 15 6 39v311q0 24 -6 40
q-11 4 -35 4h-30v36q46 6 113.5 6t100.5 -6v-36h-31q-19 0 -35 -4q-5 -20 -5 -40v-124h229v124q0 27 -5 40q-11 4 -35 4h-30v36q46 6 114.5 6t99.5 -6v-36h-31q-19 0 -35 -4q-5 -20 -5 -40v-309q0 -21 5 -41q16 -4 34 -4h30v-47z" />
    <glyph glyph-name="uni021F" unicode="&#x21f;" horiz-adv-x="618" 
d="M165 951h60q56 -36 107 -92q62 62 109 92h62v-13q-100 -100 -125 -147h-90q-29 50 -123 147v13zM380 90q0 -26 6 -56h51v-30q-32 -8 -64 -8t-44 2q-22 3 -22 26l2 70v122q0 87 -32 98q-11 3 -36.5 3t-58 -22t-34.5 -45v-174q0 -29 6.5 -38.5t33.5 -13.5l3 -28
q-48 4 -82.5 4t-74.5 -4l1 28q28 4 34 10.5t6.5 14t0.5 18.5v401q0 8 -2 15q-12 4 -28 4h-33v30q36 9 76.5 9t46 -1t9 -5t3.5 -26v-187q51 49 128 49q55 0 79.5 -26t24.5 -81v-159z" />
    <glyph glyph-name="uni0220" unicode="&#x220;" horiz-adv-x="741" 
d="M392 647q-205 0 -205 -224v-423h-90v715h71l15 -92h5q32 45 93 73.5t122 28.5q247 0 247 -264v-701h-90v701q0 97 -41 141.5t-127 44.5z" />
    <glyph glyph-name="uni0221" unicode="&#x221;" horiz-adv-x="615" 
d="M530 -72q0 -52 12 -74t45 -22q36 0 57 11v-67q-23 -16 -76 -16q-126 0 -126 167v63q0 12 2.5 41t3.5 38h-6q-58 -79 -166 -79q-105 0 -163 73t-58 204t58 205t163 74q108 0 166 -79h6q-1 10 -3.5 39.5t-2.5 39.5v214h88v-832zM289 63q80 0 117 43.5t37 143.5v16
q0 112 -37.5 159.5t-117.5 47.5q-68 0 -105 -54t-37 -154t37 -151t106 -51z" />
    <glyph glyph-name="uni0222" unicode="&#x222;" horiz-adv-x="670" 
d="M335 470q74 0 113 41t39 115v88h90v-88q0 -145 -115 -193q74 -23 112.5 -74t38.5 -127q0 -112 -74.5 -177t-205.5 -65q-81 0 -143.5 29.5t-97 85t-34.5 127.5q0 157 149 202q-113 46 -113 192v88h90v-88q0 -74 39 -115t112 -41zM153 232q0 -82 46 -123t136 -41
t136.5 41.5t46.5 122.5q0 161 -184 161q-181 0 -181 -161z" />
    <glyph glyph-name="uni0223" unicode="&#x223;" horiz-adv-x="604" 
d="M303 485q67 0 96.5 36t29.5 113v126h88v-129q0 -77 -23 -121t-74 -63q65 -25 98 -78t33 -130q0 -117 -67 -183t-183 -66q-111 0 -178.5 67.5t-67.5 181.5q0 162 130 209q-51 19 -73.5 63.5t-22.5 119.5v129h88v-126q0 -77 29.5 -113t96.5 -36zM146 239q0 -86 39.5 -131
t117.5 -45q77 0 117 44.5t40 131.5t-41 130t-117 43q-77 0 -116.5 -43.5t-39.5 -129.5z" />
    <glyph glyph-name="uni0224" unicode="&#x224;" horiz-adv-x="571" 
d="M416 -198q-29 0 -60 12v73q22 -9 50 -9q48 0 48 52v150h79v-145q0 -133 -117 -133zM87 414l1 -37h-36q0 2 -2.5 16t-4 24.5l-3 21t-3 18.5t-1.5 13q43 12 173 12h157q14 -9 14 -26v-18l-280 -396h171q26 0 36 12q20 24 20 78h54v-103q0 -9 -2 -19q0 -10 -83 -10h-262
q-12 9 -12 27v18l274 395h-93q-8 0 -20.5 -1t-32.5 -2t-42.5 -7t-22.5 -16z" />
    <glyph glyph-name="uni0225" unicode="&#x225;" horiz-adv-x="470" 
d="M431 -65q0 -133 -117 -133q-29 0 -60 12v73q22 -9 50 -9q48 0 48 52v70h-313v58l288 410h-271v68h368v-66l-284 -402h291v-133z" />
    <glyph glyph-name="uni0226" unicode="&#x226;" horiz-adv-x="639" 
d="M268 846q0 29 15 42.5t37 13.5q21 0 36 -13.5t15 -42.5t-15.5 -42.5t-35.5 -13.5q-22 0 -37 13.5t-15 42.5zM251 421l-84 -245h170l-83 245h-3zM167 -5q-24 5 -80 5t-87 -5l10 47h15q18 0 32 4q14 19 19.5 34.5t14 38.5t20.5 53t25.5 65t27.5 69l70 176h31q24 0 40 -6
l148 -389q12 -29 20 -41q16 -4 32 -4h15l10 -47q-28 5 -61 5h-47q-43 0 -73 -5l-7 47h6q18 0 34 4q0 15 -10 39l-23 56h-193l-18 -54q-8 -24 -8 -38q0 -7 25 -7h15z" />
    <glyph glyph-name="uni0227" unicode="&#x227;" horiz-adv-x="561" 
d="M229 681q0 29 15 42.5t37 13.5q21 0 36 -13.5t15 -42.5t-15.5 -42.5t-35.5 -13.5q-22 0 -37 13.5t-15 42.5zM106 94q0 -60 67 -60q33 0 80 35q5 45 5 95h-53q-48 0 -73.5 -18t-25.5 -52zM329 90q0 -36 6 -56h53v-28q-31 -11 -84 -11q-12 0 -25 1q-18 2 -22.5 13t-4.5 23
l-1 6q-51 -46 -108 -46q-77 0 -101 56q-8 18 -8 43q0 111 175 111h49v23q0 50 -11 67t-23.5 22.5t-40.5 5.5q-52 0 -93 -67l-47 29q4 28 45.5 51t101.5 23q139 0 139 -128v-138z" />
    <glyph glyph-name="uni0228" unicode="&#x228;" horiz-adv-x="556" 
d="M26 471q59 11 172 11h205l9 -44q1 -8 5 -25t4 -30l-49 -1l-2 16q-2 14 -8 31q-20 10 -86 10l-30 -1l-74 -1v-170h114q24 0 33 17q4 6 8 20h17q0 -64 -4 -118h-21q-11 34 -29 40q-6 2 -15 2h-103v-186h154q38 0 48 12q6 17 10 55h42v-39q0 -16 -1.5 -33.5t-2.5 -29.5
q-34 -10 -68.5 -11t-62.5 -1l-155 5q-72 0 -106 -5v47h30q20 0 34 4q5 11 5 32v7v308q0 27 -5 39q-6 3 -14 3h-54v36zM272 -62l-17 7l29 59h33l-19 -36q56 -2 71 -32q5 -11 5 -29q0 -36 -24 -55t-63 -19t-59 14q-2 6 -2 13q0 8 2 18q27 -8 46.5 -8.5t31.5 8.5t12 25
q0 31 -34 37z" />
    <glyph glyph-name="uni0229" unicode="&#x229;" horiz-adv-x="563" 
d="M285 202q1 1 1 2v4q0 76 -44 101q-16 9 -38 9q-88 0 -94 -116h175zM111 163q8 -129 120 -129q55 0 90 35l30 -13q-36 -64 -135 -64q-81 0 -129.5 47t-48.5 135q0 128 104 169q32 13 68 13q67 0 107.5 -37t40.5 -92.5t-28 -61.5q-10 -2 -23 -2h-196zM266 -62l-17 7l29 59
h33l-19 -36q56 -2 71 -32q5 -11 5 -29q0 -36 -24 -55t-63 -19t-59 14q-2 6 -2 13q0 8 2 18q27 -8 46.5 -8.5t31.5 8.5t12 25q0 31 -34 37z" />
    <glyph glyph-name="uni022A" unicode="&#x22a;" horiz-adv-x="780" 
d="M531 828q0 -23 -12.5 -36t-34.5 -13t-34.5 13t-12.5 36q0 26 14 38t33 12q20 0 33.5 -12t13.5 -38zM343 828q0 -26 -13.5 -37.5t-32.5 -11.5q-22 0 -34.5 13t-12.5 36q0 26 14 38t33 12t32.5 -12t13.5 -38zM242 1014h297v-71h-297v71zM119 238q0 -209 143 -209t143 210
q0 104 -37 157q-38 52 -106 52q-103 0 -133 -118q-10 -39 -10 -92zM486 239.5q0 -116.5 -60 -184.5t-163.5 -68t-164 68t-60.5 184.5t60.5 183t163.5 66.5t163.5 -66.5t60.5 -183z" />
    <glyph glyph-name="uni022B" unicode="&#x22b;" horiz-adv-x="604" 
d="M443 650q0 -23 -12.5 -36t-34.5 -13t-34.5 13t-12.5 36q0 26 14 38t33 12q20 0 33.5 -12t13.5 -38zM255 650q0 -26 -13.5 -37.5t-32.5 -11.5q-22 0 -34.5 13t-12.5 36q0 26 14 38t33 12t32.5 -12t13.5 -38zM154 836h297v-71h-297v71zM342.5 40.5
q-50.5 -48.5 -127.5 -48.5t-127 48t-50 133t50.5 134t127.5 49t127 -50t50 -133.5t-50.5 -132zM316 174q0 143 -101 143q-78 0 -95 -81q-5 -27 -5 -62q0 -74 24 -109.5t77.5 -35.5t76.5 36.5t23 108.5z" />
    <glyph glyph-name="uni022C" unicode="&#x22c;" horiz-adv-x="780" 
d="M461 784q-19 0 -38 7.5t-36.5 16.5t-35 16.5t-32.5 7.5q-19 0 -29 -11t-17 -38h-51q5 55 30.5 84.5t66.5 29.5q21 0 40.5 -7.5t37 -16.5t34 -16.5t31.5 -7.5q21 0 30 13t16 36h50q-5 -55 -30 -84.5t-67 -29.5zM241 1014h297v-71h-297v71zM119 238q0 -209 143 -209
t143 210q0 104 -37 157q-38 52 -106 52q-103 0 -133 -118q-10 -39 -10 -92zM486 239.5q0 -116.5 -60 -184.5t-163.5 -68t-164 68t-60.5 184.5t60.5 183t163.5 66.5t163.5 -66.5t60.5 -183z" />
    <glyph glyph-name="uni022D" unicode="&#x22d;" horiz-adv-x="604" 
d="M373 606q-19 0 -38 7.5t-36.5 16.5t-35 16.5t-32.5 7.5q-19 0 -29 -11t-17 -38h-51q5 55 30.5 84.5t66.5 29.5q21 0 40.5 -7.5t37 -16.5t34 -16.5t31.5 -7.5q21 0 30 13t16 36h50q-5 -55 -30 -84.5t-67 -29.5zM153 836h297v-71h-297v71zM342.5 40.5
q-50.5 -48.5 -127.5 -48.5t-127 48t-50 133t50.5 134t127.5 49t127 -50t50 -133.5t-50.5 -132zM316 174q0 143 -101 143q-78 0 -95 -81q-5 -27 -5 -62q0 -74 24 -109.5t77.5 -35.5t76.5 36.5t23 108.5z" />
    <glyph glyph-name="uni022E" unicode="&#x22e;" horiz-adv-x="780" 
d="M339 846q0 29 15 42.5t37 13.5q21 0 36 -13.5t15 -42.5t-15.5 -42.5t-35.5 -13.5q-22 0 -37 13.5t-15 42.5zM119 238q0 -209 143 -209t143 210q0 104 -37 157q-38 52 -106 52q-103 0 -133 -118q-10 -39 -10 -92zM486 239.5q0 -116.5 -60 -184.5t-163.5 -68t-164 68
t-60.5 184.5t60.5 183t163.5 66.5t163.5 -66.5t60.5 -183z" />
    <glyph glyph-name="uni022F" unicode="&#x22f;" horiz-adv-x="604" 
d="M251 681q0 29 15 42.5t37 13.5q21 0 36 -13.5t15 -42.5t-15.5 -42.5t-35.5 -13.5q-22 0 -37 13.5t-15 42.5zM342.5 40.5q-50.5 -48.5 -127.5 -48.5t-127 48t-50 133t50.5 134t127.5 49t127 -50t50 -133.5t-50.5 -132zM316 174q0 143 -101 143q-78 0 -95 -81
q-5 -27 -5 -62q0 -74 24 -109.5t77.5 -35.5t76.5 36.5t23 108.5z" />
    <glyph glyph-name="uni0230" unicode="&#x230;" horiz-adv-x="780" 
d="M339 826q0 29 15 42.5t37 13.5q23 0 37 -15t14 -41t-14.5 -41t-36.5 -15t-37 13.5t-15 42.5zM241 1001h297v-71h-297v71zM119 238q0 -209 143 -209t143 210q0 104 -37 157q-38 52 -106 52q-103 0 -133 -118q-10 -39 -10 -92zM486 239.5q0 -116.5 -60 -184.5t-163.5 -68
t-164 68t-60.5 184.5t60.5 183t163.5 66.5t163.5 -66.5t60.5 -183z" />
    <glyph glyph-name="uni0231" unicode="&#x231;" horiz-adv-x="604" 
d="M252 662q0 29 15 42.5t37 13.5q23 0 37 -15t14 -41t-14.5 -41t-36.5 -15t-37 13.5t-15 42.5zM154 837h297v-71h-297v71zM342.5 40.5q-50.5 -48.5 -127.5 -48.5t-127 48t-50 133t50.5 134t127.5 49t127 -50t50 -133.5t-50.5 -132zM316 174q0 143 -101 143q-78 0 -95 -81
q-5 -27 -5 -62q0 -74 24 -109.5t77.5 -35.5t76.5 36.5t23 108.5z" />
    <glyph glyph-name="uni0232" unicode="&#x232;" horiz-adv-x="565" 
d="M135 842h297v-71h-297v71zM189 440q-21 0 -33 -4q0 -8 5 -17t8 -15l108 -184q24 44 38.5 71t23.5 43.5t26.5 49.5t20.5 52q-8 4 -32 4h-24l8 36q44 6 107 6t89 -6l-13 -36h-29q-18 0 -36 -4q-4 -6 -8 -11t-6 -9t-8.5 -15.5t-16.5 -28.5t-22.5 -38.5t-35 -58.5t-61.5 -102
v-86q0 -25 6 -41q16 -4 33 -4h31v-47q-32 5 -103 5t-109 -5v47h30q18 0 34 4q5 13 7 39v79l-137 232q-8 13 -12.5 22.5t-10.5 17.5q-11 4 -35 4h-26l-10 36q42 6 109 6t102 -6l6 -36h-24z" />
    <glyph glyph-name="uni0233" unicode="&#x233;" horiz-adv-x="509" 
d="M107 677h297v-71h-297v71zM166 313q-21 0 -28 -5q0 -5 20.5 -55t29.5 -74l49 -122l88 223q2 8 4.5 15t4.5 14q-8 5 -27 5h-19l5 32q19 6 72.5 6t75.5 -6v-32h-18q-29 0 -33 -8q-1 -2 -3.5 -8t-7.5 -16t-11 -27l-140 -321q-36 -80 -92 -94q-19 -4 -48.5 -4t-44.5 10l8 46
q23 -9 44.5 -9t33 3t27 18.5t41.5 80.5l-124 294q-4 8 -7.5 15.5t-8.5 13.5q-13 5 -30 5h-19l-5 32q21 7 84.5 7t91.5 -7l6 -32h-19z" />
    <glyph glyph-name="uni0234" unicode="&#x234;" horiz-adv-x="380" 
d="M85 760h88v-542q31 12 68 12q61 0 95.5 -33.5t34.5 -86.5q0 -56 -34.5 -88t-98.5 -32q-46 0 -79 17.5t-51 46.5q-15 -30 -34 -84l-67 30q36 98 78 151v609zM237 58q29 0 41.5 15t12.5 37q0 26 -15.5 39t-41.5 13q-30 0 -61 -24q3 -80 64 -80z" />
    <glyph glyph-name="uni0235" unicode="&#x235;" horiz-adv-x="745" 
d="M537 218q31 12 68 12q61 0 95.5 -33.5t34.5 -86.5q0 -56 -34 -88t-99 -32q-88 0 -129 64q-15 -28 -34 -84l-67 30q36 98 78 151v192q0 65 -29 97t-91 32q-83 0 -120 -45.5t-37 -148.5v-278h-88v536h71l13 -73h5q25 40 70 61.5t99 21.5q99 0 146.5 -48t47.5 -149v-131z
M601 58q25 0 39.5 13t14.5 39t-15 39t-42 13q-30 0 -61 -24q3 -80 64 -80z" />
    <glyph glyph-name="uni0236" unicode="&#x236;" horiz-adv-x="388" 
d="M92 468h-76v42l77 35l35 114h52v-123h155v-68h-155v-250q31 12 68 12q61 0 95.5 -33.5t34.5 -86.5q0 -56 -34 -88t-99 -32q-46 0 -78.5 17.5t-51.5 46.5q-15 -28 -34 -84l-67 30q37 99 78 151v317zM244 58q25 0 39.5 13t14.5 39t-15 39t-42 13q-30 0 -61 -24
q3 -80 64 -80z" />
    <glyph glyph-name="uni0237" unicode="&#x237;" horiz-adv-x="257" 
d="M22 -240q-46 0 -77 12v71q34 -10 66 -10q38 0 56 21t18 63v619h88v-616q0 -80 -38.5 -120t-112.5 -40z" />
    </font>
</defs>
</svg>
