<?xml version="1.0" standalone="no"?>
<!DOCTYPE svg PUBLIC "-//W3C//DTD SVG 1.1//EN" "http://www.w3.org/Graphics/SVG/1.1/DTD/svg11.dtd" >
<svg xmlns="http://www.w3.org/2000/svg" xmlns:xlink="http://www.w3.org/1999/xlink" version="1.1">
<metadata>
Created by FontForge 20190801 at Mon Feb  8 12:19:18 2021
 By root
Copyright (c) 2019 by Creatype Studio Co. All rights reserved.
</metadata>
<defs>
<font id="Sydhartta" horiz-adv-x="231" >
  <font-face 
    font-family="Sydhartta"
    font-weight="400"
    font-stretch="normal"
    units-per-em="1000"
    panose-1="0 0 0 0 0 0 0 0 0 0"
    ascent="800"
    descent="-200"
    x-height="312"
    cap-height="1035"
    bbox="-591.533 -1157 1793.88 1669"
    underline-thickness="50"
    underline-position="-100"
    unicode-range="U+0001-206F"
  />
<missing-glyph horiz-adv-x="364" 
d="M33 0v666h265v-666h-265zM66 33h199v600h-199v-600z" />
    <glyph glyph-name=".notdef" horiz-adv-x="364" 
d="M33 0v666h265v-666h-265zM66 33h199v600h-199v-600z" />
    <glyph glyph-name="uni0000" 
 />
    <glyph glyph-name="uni0000" 
 />
    <glyph glyph-name="uni000D" unicode="&#xd;" 
 />
    <glyph glyph-name="uni0001" 
 />
    <glyph glyph-name="uni0002" 
 />
    <glyph glyph-name="uni0003" 
 />
    <glyph glyph-name="uni0004" 
 />
    <glyph glyph-name="uni0005" 
 />
    <glyph glyph-name="uni0006" 
 />
    <glyph glyph-name="uni0007" 
 />
    <glyph glyph-name="uni0008" 
 />
    <glyph glyph-name="uni0009" unicode="&#x9;" 
 />
    <glyph glyph-name="uni000A" unicode="&#xa;" 
 />
    <glyph glyph-name="uni000B" 
 />
    <glyph glyph-name="uni000C" 
 />
    <glyph glyph-name="uni000E" 
 />
    <glyph glyph-name="uni000F" 
 />
    <glyph glyph-name="uni0010" 
 />
    <glyph glyph-name="uni0011" 
 />
    <glyph glyph-name="uni0012" 
 />
    <glyph glyph-name="uni0013" 
 />
    <glyph glyph-name="uni0014" 
 />
    <glyph glyph-name="uni0015" 
 />
    <glyph glyph-name="uni0016" 
 />
    <glyph glyph-name="uni0017" 
 />
    <glyph glyph-name="uni0018" 
 />
    <glyph glyph-name="uni0019" 
 />
    <glyph glyph-name="uni001A" 
 />
    <glyph glyph-name="uni001B" 
 />
    <glyph glyph-name="uni001C" 
 />
    <glyph glyph-name="uni001D" 
 />
    <glyph glyph-name="uni001E" 
 />
    <glyph glyph-name="uni001F" 
 />
    <glyph glyph-name="space" unicode=" " 
 />
    <glyph glyph-name="exclam" unicode="!" horiz-adv-x="236" 
d="M290 788q7 20 27 20q6 0 9 -1q11 -4 16.5 -14.5t1.5 -21.5q-26 -83 -47.5 -146t-41.5 -120q-19 -55 -38.5 -111.5t-41 -124t-48.5 -157.5q-5 -20 -26 -20q-6 0 -9 1q-11 3 -17 13.5t-3 21.5q26 90 48 159t42 125.5t39 111.5q19 57 41 120t48 144zM21 -90q4 -2 7 -2h6
q18 0 30.5 15.5t16.5 36t-0.5 36t-19.5 15.5q-4 0 -10 -2q-11 -4 -22 -17.5t-17.5 -30.5t-5 -31.5t14.5 -19.5z" />
    <glyph glyph-name="quotedbl" unicode="&#x22;" horiz-adv-x="501" 
d="M226 729l-25 -258h-61l-25 258h111zM401 729l-25 -258h-60l-25 258h110zM265 622zM263 896z" />
    <glyph glyph-name="numbersign" unicode="#" horiz-adv-x="562" 
d="M42 123q0 14 14 14h41h21t19 1q5 10 12 32t11 36q15 39 29 81l2 4q2 5 3.5 9.5t0.5 10.5q-5 2 -15 2.5t-21 0.5h-17q-7 1 -13 1t-12 1q-13 0 -13 14q2 13 14 13q8 -1 28 -2t36 -1q14 0 22 2q8 3 13 17.5t7 22.5q13 34 29.5 74.5t33.5 73.5q6 10 18 10h5t5 -2q7 -4 10 -12
t-2 -15q-17 -34 -32 -71.5t-29 -71.5q-8 -18 -5 -23t17 -5h10q34 1 68 1h68q3 0 11 1t12 3q2 1 7.5 14t11.5 30t11.5 31.5t7.5 19.5q7 20 15.5 41t17.5 40q6 11 18 11q4 0 10 -2q7 -3 10 -11.5t-1 -15.5q-16 -32 -29.5 -69.5t-26.5 -70.5q-2 -5 -3.5 -9.5t-2.5 -10.5h81
q5 0 9.5 -4t4.5 -10t-4.5 -9.5t-9.5 -3.5h-39h-19.5t-19.5 -1q-10 0 -13 -2.5t-8 -12.5t-10 -25l-9 -27q-2 -6 -7.5 -21.5t-12.5 -33.5t-12 -32t-5 -18q-1 -3 0 -3t6 -1q11 -1 29 -1t28 -1h22q14 -2 14 -14q0 -6 -4.5 -10t-10.5 -3q-17 1 -37 1.5t-38 0.5q-14 0 -19 -3
t-10 -16q-6 -13 -11.5 -29t-11.5 -30q-9 -24 -18.5 -48.5t-19.5 -47.5q-6 -11 -18 -11q-3 0 -9 2q-8 3 -11 11t1 15q14 32 28 68.5t26 69.5q5 13 5 16.5t-7 3.5q-2 0 -5.5 -0.5t-7.5 -0.5h-99h-29.5t-28.5 -1q-2 -1 -6 -1q-4 -2 -5 -6t-2 -7q-15 -41 -28.5 -81.5
t-29.5 -80.5q-6 -13 -19 -13q-2 0 -4 0.5t-4 1.5q-8 3 -11 11t-1 16q14 34 27 70t26 71q2 7 4 17q-4 1 -10 1h-12q-12 0 -25 -0.5t-23 -0.5q-14 0 -14 14zM186 153q-4 -11 -3.5 -13t8.5 -2h24q20 0 39.5 0.5t39.5 0.5h29q15 0 29 0.5t16 1.5t8.5 18t15 40t15.5 42.5t9 24.5
q2 7 4.5 13.5t5.5 12.5q5 14 3.5 18t-12.5 4h-147q-26 0 -31 -10t-12 -33q-10 -30 -20.5 -59t-20.5 -59z" />
    <glyph glyph-name="dollar" unicode="$" horiz-adv-x="529" 
d="M554 532l-2 -1h-2h-2q-10 0 -15 8.5t-9 16.5q-16 22 -41.5 43.5t-55.5 24.5q-11 0 -15.5 -8t-8.5 -18q-5 -13 -9.5 -25.5t-8.5 -25.5q-17 -43 -32.5 -84.5t-31.5 -84.5q-2 -6 -8.5 -22.5t-2.5 -21.5q4 -4 22 -8t26 -7q34 -10 53.5 -27.5t25.5 -51.5q1 -5 1.5 -9.5
t0.5 -9.5q-3 -59 -35 -107t-83 -79t-110 -36q-14 -1 -16.5 -2.5t-7.5 -15.5q-5 -11 -9 -21t-8 -21q-2 -7 -8.5 -10.5t-13.5 -3.5q-5 0 -7 1q-8 3 -12 11.5t-1 17.5q4 10 9.5 24t6.5 24q-21 12 -33 17.5t-29 26.5q-2 3 -4 5.5t-4 6.5q-12 19 -17 39t-6 42q0 19 17 19
q12 -1 13 -13t3 -21q4 -25 16.5 -52t41.5 -34q2 0 3 -0.5t3 -0.5q8 0 11.5 5t6.5 12q5 13 9.5 29t9.5 30q7 20 13.5 40.5t13.5 40.5q2 6 8 23.5t12.5 37.5t11.5 36t5 19q0 5 -2.5 7t-6.5 4q-18 10 -29.5 15t-26.5 22l-6 6q-28 34 -25 73.5t26 77t55.5 68.5t63.5 48
q25 14 39.5 18t41.5 11q3 1 8 13t6 16q2 10 9 18.5t18 8.5q5 0 8 -1q14 -8 14 -17t-5 -19t-5 -20q39 -14 62 -28t47 -48q5 -5 8 -11t7 -12q4 -8 6 -15.5t-8 -13.5zM264 359q7 7 12.5 25t8.5 28q17 47 34.5 92.5t35.5 92.5q2 5 3.5 9t1.5 10q-14 0 -31.5 -8.5t-34 -20
t-26.5 -21.5q-27 -24 -44.5 -55t-17.5 -68q0 -23 12.5 -46t32.5 -36q3 -1 5 -2t4 -1q3 0 4 1zM395 213q7 43 -19 62t-65 26q-4 1 -9 1t-7 -3.5t-5 -11.5q-9 -25 -17.5 -52t-17.5 -53q-10 -32 -20.5 -63.5t-21.5 -63.5q-3 -8 -4 -11.5t4 -3.5q1 0 3.5 0.5t6.5 1.5
q39 10 76 35.5t63 61t33 74.5z" />
    <glyph glyph-name="percent" unicode="%" horiz-adv-x="446" 
d="M-20 17l525 673q2 4 6 5t8 1q7 0 12 -3q5 -4 7 -13q0 -8 -3 -14l-525 -673q-5 -5 -12 -7q-10 0 -15 4q-6 6 -7 13q0 7 4 14zM260 97q-1 31 15 57t41 41.5t51 15.5q33 0 55 -25q19 -23 18.5 -50.5t-15.5 -52t-39 -40.5t-51 -16q-5 0 -9 0.5t-9 1.5q-25 6 -39.5 24.5
t-17.5 43.5zM327 164q-19 -14 -28 -36.5t-2 -47.5q4 -16 20 -16q17 0 38 15t36 36t14 40q-1 13 -9.5 18.5t-19.5 5.5q-12 0 -25.5 -4.5t-23.5 -10.5zM92 575q13 31 40.5 53.5t59.5 22.5q17 0 32 -7q24 -12 34 -34t7 -47t-18 -46q-5 -7 -10 -12.5t-11 -11.5
q-16 -13 -32.5 -19.5t-32.5 -6.5q-25 0 -45 13.5t-27.5 38t3.5 56.5zM128 575q-10 -19 -10.5 -40.5t24.5 -31.5q6 -2 10 -2q16 0 33.5 13.5t29.5 33t12.5 38t-15.5 27.5q-10 6 -22 6q-20 0 -36.5 -13.5t-25.5 -30.5z" />
    <glyph glyph-name="ampersand" unicode="&#x26;" horiz-adv-x="516" 
d="M111 25q-44 31 -53 70t8 78t51 72q8 7 15.5 13.5t15.5 12.5q35 27 70 51.5t72 49.5q17 11 20 20.5t-1 21.5t-7 29q-7 29 -6 60t5 60q6 35 23.5 66.5t45.5 52t67 20.5q33 0 59.5 -18.5t40.5 -48t9 -62.5q-6 -37 -33.5 -74t-62.5 -68.5t-65 -52.5q-19 -14 -17.5 -23
t12.5 -27q29 -50 58 -85.5t65 -81.5q9 -12 14 -12q3 0 11.5 10.5t19.5 24.5t19.5 26t10.5 15q5 6 12 6q6 0 9 -2q12 -8 4 -20q-15 -21 -28.5 -37.5t-29.5 -35.5l-7.5 -10.5t-6.5 -10.5q-3 -5 -12.5 -10t-14.5 -10q-11 -7 -21.5 -16t-21.5 -17q-46 -32 -102.5 -53.5
t-114.5 -21.5q-55 0 -103 22q-8 3 -15 7t-15 9zM349 326q-8 14 -15 14q-5 0 -11 -4.5t-14 -9.5q-34 -25 -69 -48.5t-69 -48.5q-20 -16 -40 -34t-33.5 -38.5t-12.5 -42.5t23 -46q25 -28 60 -39.5t72 -11.5q62 0 127.5 26.5t111.5 67.5q16 15 8.5 24t-19.5 23q-35 40 -65 80.5
t-54 87.5zM329 558q-9 -63 4 -122q5 -20 16 -20q7 0 15.5 7t18.5 14q25 18 52.5 41.5t43.5 50.5q11 21 19 48t3 52t-33 38q-14 7 -30 7q-31 0 -54 -18t-36.5 -44.5t-18.5 -53.5z" />
    <glyph glyph-name="quotesingle" unicode="'" horiz-adv-x="326" 
d="M226 729l-25 -258h-61l-25 258h111zM221 622zM219 896z" />
    <glyph glyph-name="parenleft" unicode="(" horiz-adv-x="285" 
d="M360 717q7 5 12 5q8 0 15 -7q5 -6 4.5 -14t-6.5 -13q-59 -52 -104.5 -121.5t-76 -149t-45.5 -160.5q-16 -83 -14.5 -164t21 -150.5t56.5 -119.5q5 -7 4 -15t-7 -12q-5 -4 -12 -4q-9 0 -15 8q-41 54 -62.5 129t-23 161t14.5 174q16 86 48.5 169t80 156t110.5 128z" />
    <glyph glyph-name="parenright" unicode=")" horiz-adv-x="265" 
d="M-77 -197q-7 -5 -13 -5q-8 0 -14 6q-5 6 -4.5 14t6.5 13q59 53 104.5 122t76 148t45.5 161q16 84 14.5 164.5t-21 150t-57.5 120.5q-4 6 -3 14t7 13q6 3 11 3q10 0 16 -7q41 -55 62.5 -129.5t23 -160.5t-14.5 -175q-16 -85 -48.5 -168t-80 -156t-110.5 -128z" />
    <glyph glyph-name="asterisk" unicode="*" horiz-adv-x="375" 
d="M294 365q-1 -7 -7 -12t-13 -5q-9 0 -14 8q-7 8 -17 27t-18 22q-4 -7 -9.5 -21t-10 -29t-6.5 -24q-4 -11 -9 -12.5t-14 -1.5q-8 1 -12.5 8t-2.5 14q4 17 10 34t11 33q-6 -2 -20 -11t-28.5 -19t-21.5 -15q-5 -3 -10 -3q-11 0 -16 9q-5 7 -3 14.5t9 11.5q5 3 18 12t28 19.5
t27 18.5t15 11q8 9 5.5 17.5t-7.5 18.5q-3 4 -9.5 13l-13 18t-6.5 12q-2 8 4 15.5t14 7.5q12 0 21 -13t15 -20.5t11 -7.5q9 0 20 35q4 10 7.5 19.5t7.5 19.5q5 11 18 11q5 0 7 -1q12 -6 11.5 -16t-6 -22t-10.5 -23.5t-2 -21.5h1.5h1.5q10 0 22.5 7.5t23.5 7.5q10 0 15 -12
q7 -16 -7.5 -22.5t-24.5 -11.5q-12 -6 -24 -13.5t-18 -18.5t2 -25q4 -6 12.5 -18.5t16 -25t6.5 -19.5z" />
    <glyph glyph-name="plus" unicode="+" horiz-adv-x="645" 
d="M374 434q2 4 9 6.5t13 2.5q8 0 11 -2q7 -4 13 -11.5t2 -14.5q-8 -15 -18.5 -38t-19.5 -47t-12 -41q8 -4 27 -4q13 0 27 1t22 2q18 1 36 1.5t36 0.5q8 0 13.5 -6t5.5 -14t-5.5 -13.5t-13.5 -5.5q-9 0 -34.5 -0.5t-55 -1.5t-52.5 -2.5t-26 -3.5t-11.5 -20.5t-19 -43
t-19 -46t-11.5 -28.5q-21 -55 -26 -62q-6 -6 -22 -6q-14 0 -21 5q-8 6 -3.5 22t12 32t10.5 24q11 25 21 50t21 50q5 14 5.5 18t-9.5 4h-4h-6q-20 0 -42 -1.5t-42 -2.5l-58 -4q-8 0 -14 5.5t-6 13.5q-1 7 4.5 13t13.5 7l58 3q7 0 24 1t35.5 1.5t34 2t19.5 2.5q10 4 14 8.5
t9 14.5q9 17 18.5 42.5t17.5 44.5q5 9 9.5 20.5t9.5 20.5z" />
    <glyph glyph-name="comma" unicode="," horiz-adv-x="239" 
d="M99 -4q-7 -7 -14 -7q-6 0 -13 5q-5 4 -6 11.5t4 12.5q7 10 17 31t17 42.5t6 34.5q-1 4 -1 5.5v1.5l-1.5 -7.5t-6 -15t-14.5 -7.5q-2 0 -4.5 0.5t-5.5 1.5q-10 4 -11.5 19t5 32.5t19 30.5t30.5 13q7 0 15 -3q22 -7 25 -27t1 -40q-4 -34 -23 -70.5t-39 -63.5z" />
    <glyph glyph-name="hyphen" unicode="-" horiz-adv-x="449" 
d="M125 182q-15 0 -28 4t-15 22q-1 12 6.5 21t19.5 11q1 0 21.5 -1t50.5 -1.5t59 -0.5q18 0 33.5 0.5t26.5 1.5q3 1 6.5 1h6.5q8 0 15 -3t11 -10q6 -11 3 -22t-14 -17q-10 -4 -36.5 -5.5t-57.5 -1.5q-32 0 -62 0.5t-46 0.5z" />
    <glyph glyph-name="period" unicode="." horiz-adv-x="250" 
d="M100 97q-27 1 -31.5 18.5t6 36t28.5 25.5q10 3 19 3q19 0 30 -12.5t10.5 -29t-13.5 -29t-41 -12.5h-3.5h-4.5z" />
    <glyph glyph-name="slash" unicode="/" horiz-adv-x="397" 
d="M-90 -133l560 902q4 9 17 9q6 0 9 -2q7 -4 8.5 -12t-2.5 -15l-560 -902q-4 -9 -16 -9q-6 0 -10 3q-7 5 -8.5 12t2.5 14z" />
    <glyph glyph-name="zero" unicode="0" horiz-adv-x="453" 
d="M345 179q-21 -40 -53 -81t-73 -69t-90 -28q-42 0 -65.5 25.5t-33.5 64t-9.5 78.5t6.5 70q2 11 5 21t5 20q7 23 22 66.5t36 97.5t47 108t55 100t58.5 74t57.5 28q17 0 29 -7.5t14 -17t-11 -16.5q-14 -7 -8.5 -13t14.5 -17q35 -37 51 -86.5t17.5 -105.5t-8.5 -112
t-27.5 -107.5t-38.5 -92.5zM131 44h6q29 2 56.5 20t50 43t37.5 48q29 45 52 104.5t35 124t7.5 126t-31.5 111.5l-11 16.5t-16 19.5t-18 9q-11 0 -26 -20.5t-32 -54t-34.5 -72t-32.5 -75.5t-25.5 -65.5t-14.5 -40.5q-5 -15 -14.5 -48.5t-18 -74.5t-11 -79.5t6.5 -64t34 -27.5
z" />
    <glyph glyph-name="one" unicode="1" horiz-adv-x="253" 
d="M253 711q-3 -3 -5 -3q-4 0 -8.5 5t-8.5 9q-6 5 -6 13t5 14q34 37 53 37q8 0 14 -6q16 -15 2 -86.5t-57 -174.5q-25 -61 -53.5 -128.5t-56 -137t-49.5 -135t-33 -121.5q-1 -7 -11 -11t-20 -4t-17 5t-5 17q12 58 32.5 125t47 137t54.5 138t53 129q23 57 40 97.5t28 69.5
l2.5 6.5t0.5 6.5l-0.5 -0.5z" />
    <glyph glyph-name="two" unicode="2" horiz-adv-x="503" 
d="M492 500q-19 -30 -55 -69.5t-81 -84t-90 -89.5t-82 -88t-57.5 -80t-15.5 -63q2 -11 7 -15t12 -4q6 0 13.5 2t15.5 3q43 7 87.5 12t88.5 5q22 0 45 -2t46 -6q11 -1 22 -7t6 -20q-3 -8 -8.5 -10t-12.5 -2t-14 1t-12 2q-21 3 -40.5 4t-37.5 1q-44 0 -86 -5.5t-91 -11.5
q-19 -3 -37 -3q-38 0 -56.5 20t-6.5 73q8 34 30.5 69.5t53 69t61.5 63.5t56 53q23 22 54.5 52t63.5 65.5t58 74t38.5 76.5t3.5 74q-5 20 -15 27.5t-22 7.5q-14 0 -28.5 -6.5t-26.5 -12.5t-19 -6q-11 2 -15 14t10 22q22 16 43 24t38 8q33 0 55 -21.5t31 -56.5t2 -77t-32 -83z
" />
    <glyph glyph-name="three" unicode="3" horiz-adv-x="533" 
d="M347 773q23 -15 29 -37.5t1 -47t-14 -45.5q-19 -42 -47 -76.5t-60 -66.5q-25 -24 -15 -33t37 -21q56 -25 102.5 -61t70.5 -79.5t13.5 -93.5t-70.5 -103q-45 -40 -107.5 -71.5t-129.5 -54.5t-126 -38q-9 -3 -19 -3q-8 0 -13 3t-6 14q-1 16 15.5 20.5t29.5 7.5
q43 11 99.5 30t111.5 46.5t97 64.5t56 84q11 36 -0.5 65t-37 53t-58 42.5t-65.5 32.5t-59 24q-14 6 -10.5 25t11.5 28q17 16 33 31.5t32 32.5q18 20 41.5 45.5t38 54t4.5 56.5q-7 21 -30 21q-19 0 -39.5 -11.5t-31.5 -22.5q-4 -4 -9 -4q-9 0 -24 20q-8 10 0 22t23.5 23
t31 19t22.5 11q18 5 30 5q21 0 42 -12z" />
    <glyph glyph-name="four" unicode="4" horiz-adv-x="523" 
d="M429 292l7 -3.5t12 -10t-2 -16.5q-5 -9 -12 -8.5t-14 -0.5t-11 -11q-10 -21 -25.5 -50.5t-30.5 -61.5t-26 -62.5t-14 -53.5q-1 -13 -7 -19t-13 -6q-16 0 -18 21q-1 19 5.5 46.5t16.5 58.5t20.5 58.5t17.5 46.5q4 13 5 19t-11 6h-3h-3q-16 -1 -42.5 -6.5t-43.5 -8.5
q-30 -5 -60 -10.5t-60 -10.5l-5 -1q-7 -1 -15 -2t-16 -1q-21 0 -36.5 9.5t-7.5 37.5q4 14 18 37.5t33 49.5t36.5 49t27.5 36l28 36l28 36q47 59 94 119.5t91 121.5q4 7 12 14.5t16 7.5q7 0 13 -7q7 -8 1.5 -21t-15 -25t-14.5 -19q-74 -98 -153.5 -195.5t-149.5 -198.5
q-20 -29 -18 -39t15 -10q11 0 27 4t32 7q43 9 82.5 16t82.5 11q24 3 34.5 11t16.5 22t14 35q30 72 62.5 143.5t63.5 143.5q7 17 13.5 33t13.5 32q3 8 9 20.5t17 12.5q6 0 11 -4q14 -10 15.5 -33t-3.5 -35q-37 -86 -75 -170.5t-74 -170.5q-1 -3 -6.5 -15t-6.5 -15z" />
    <glyph glyph-name="five" unicode="5" horiz-adv-x="503" 
d="M101 636l1 3q6 13 23 13q5 0 12 -1t14 -1h6h5q52 0 105 13t106.5 27t106.5 18h3h3q10 0 20 -4t8 -18q-2 -10 -12.5 -13.5t-23 -4t-21.5 -2.5q-35 -4 -61 -14t-61 -17q-23 -5 -33 -10.5t-14.5 -17t-8.5 -34.5q-7 -42 -12 -84.5t-6 -85.5q0 -14 4.5 -19t12.5 -5q11 0 26 3
l28 4t28 2q26 0 48.5 -11t32.5 -45q12 -42 -4.5 -88t-54 -89.5t-89 -78.5t-109.5 -55.5t-115 -20.5h-7h-7q-17 1 -22.5 9.5t-1 17.5t18.5 11q29 4 48 6t49 12q71 24 136 75t103 116q22 39 20 61.5t-20 32t-45 9.5q-30 0 -65 -8q-11 -2 -21.5 -5t-21.5 -5q-13 0 -20 10.5
t-9 24t-2 24.5q-2 51 4.5 102t15.5 101q2 14 2.5 18t-4.5 4q-3 0 -7 -0.5t-11 -1.5t-21 -2t-28 -1q-16 0 -29.5 2t-18.5 9q-4 4 -4 14z" />
    <glyph glyph-name="six" unicode="6" horiz-adv-x="420" 
d="M164 551q-31 -52 -57.5 -114.5t-37.5 -121.5q-2 -14 0 -19.5t7 -5.5q6 0 15 5.5t19 11.5q26 13 58 24t64 11q22 0 42.5 -6.5t37.5 -21.5q32 -27 36 -64.5t-8 -76t-29 -69.5q-21 -37 -56 -64t-77 -27q-27 0 -53 13q-58 28 -85 78.5t-30.5 113.5t9.5 129t35 124.5t46 99.5
q8 14 26.5 39t42.5 53.5t50 54t49.5 42t39.5 16.5q12 0 21 -7t10 -16t-11 -14q-32 -15 -63.5 -48.5t-57.5 -72t-43 -67.5zM307 255q-7 25 -29 36t-46 11q-34 0 -71 -14.5t-64 -27.5q-30 -15 -32.5 -29.5t4.5 -46.5q7 -28 21.5 -59t39 -52t58.5 -21q28 1 52.5 23.5t42 56
t24.5 67t0 56.5z" />
    <glyph glyph-name="seven" unicode="7" horiz-adv-x="463" 
d="M323 394q-7 -7 -2 -7q4 0 11.5 2t15.5 2q7 0 12.5 -3t7.5 -13q2 -13 -9 -18.5t-26 -6.5t-24 -2q-37 -6 -58.5 -29.5t-44.5 -49.5q-27 -30 -60 -67t-58.5 -78t-29.5 -82q-2 -9 -11 -19.5t-23 -10.5q-4 0 -7 1q-13 4 -14 20.5t5 37.5t14 39t12 25q26 49 62.5 92t72.5 84
q10 13 7 13q-4 0 -13.5 -4.5t-17.5 -4.5h-1.5h-1.5q-12 4 -14 16.5t14 20.5q19 10 33 13t27 5.5t26.5 10t31.5 26.5q9 9 32.5 33.5t52.5 56t54 63.5t37 57.5t1 36.5q-10 10 -27.5 14t-40.5 4q-31 0 -67 -5.5t-68 -11t-51 -7.5q-20 -1 -23 14.5t16 22.5q18 5 49.5 10t67 8
t67.5 3q19 0 34.5 -1t26.5 -4q46 -11 66.5 -40.5t0.5 -67.5q-18 -35 -46.5 -70t-60 -67t-58.5 -62z" />
    <glyph glyph-name="eight" unicode="8" horiz-adv-x="413" 
d="M216 291q-20 -19 -49 -46t-57 -58.5t-46.5 -64t-17.5 -61.5q2 -23 14 -31t29 -8t36 5.5t33 10.5q52 20 90 57.5t52 88t-7 107.5q-10 29 -29 29q-10 0 -22 -8t-26 -21zM197 349q25 21 26.5 33t-8.5 25t-22 36q-14 28 -17 59q-2 61 25 114t86 75q11 5 23 6.5t23 1.5
q31 0 56 -13.5t38.5 -37.5t8.5 -58l-2 -7q-4 -27 -25 -65t-49 -75q-10 -14 -21 -26.5t-22 -25.5t-15.5 -19t-3 -12t10.5 -18q35 -54 36.5 -112t-32.5 -114q-23 -38 -59.5 -67.5t-80 -46t-88.5 -16.5q-67 0 -88.5 42t7.5 103q19 39 52 78.5t70.5 75t70.5 64.5zM214 512v-8
q2 -17 13 -43t25 -37q4 -4 9 -4t14 9q8 8 19.5 23t19.5 25q10 13 24.5 34.5t26 46t14.5 48t-10 40.5q-7 9 -16 12.5t-19 3.5q-21 0 -43.5 -11.5t-34.5 -23.5q-22 -23 -33 -53t-9 -62z" />
    <glyph glyph-name="nine" unicode="9" horiz-adv-x="413" 
d="M171 465q7 -4 17 -4q20 0 44.5 15t49 36.5t45 42.5t32.5 32q12 10 29 10q13 0 22.5 -6.5t8.5 -20.5q-2 -44 -16 -109t-39.5 -139t-60 -145.5t-76.5 -131t-90 -95t-100 -35.5q-4 0 -7 0.5t-6 0.5q-19 2 -27 12t-6.5 21t13.5 14q20 5 33.5 6.5t35.5 12.5q44 24 81.5 69.5
t68.5 103.5t55.5 121t41.5 122t27 106q3 16 0 16q-2 0 -6.5 -5t-11.5 -11q-16 -14 -41 -34t-54 -35t-56 -15q-21 0 -35 11l-4 4q-22 19 -23.5 51t8 65t19.5 55q3 6 6 11.5t6 11.5q24 39 57.5 72t75 52.5t88.5 19.5q7 0 13.5 -0.5t13.5 -1.5q22 -3 26.5 -18.5t-0.5 -30
t-14 -15.5q-3 -1 -11 -1t-17.5 0.5t-17.5 0.5h-4h-4q-42 -3 -78.5 -25.5t-64 -55.5t-44 -67t-18 -60t14.5 -34z" />
    <glyph glyph-name="colon" unicode=":" horiz-adv-x="153" 
d="M171 283q-27 2 -31.5 19.5t6 36t28.5 24.5q10 3 19 3q20 0 30.5 -12.5t10 -29t-14 -29t-41.5 -12.5h-4h-3zM69 36q-27 2 -31 19t6 36t29 25q11 3 19 3q20 0 30 -12.5t9.5 -29t-14 -29t-41.5 -12.5h-4h-3z" />
    <glyph glyph-name="semicolon" unicode=";" horiz-adv-x="223" 
d="M93 -85q-6 -7 -15 -7q-8 0 -12 4q-7 5 -7.5 13t4.5 14q8 11 18.5 32.5t18 44t6.5 36.5q-1 4 -1 6v2q-1 0 -2.5 -8t-6 -15.5t-15.5 -7.5q-2 0 -5 0.5t-6 1.5q-11 4 -12.5 20t5 34.5t20 32.5t32.5 14q8 0 16 -3q23 -7 27 -29t1 -43q-4 -36 -24 -74.5t-42 -67.5zM186 280h3
h4q28 0 41.5 12.5t14 29t-10 29t-30.5 12.5q-9 0 -19 -3q-18 -6 -28.5 -24.5t-6 -36t31.5 -19.5z" />
    <glyph glyph-name="less" unicode="&#x3c;" horiz-adv-x="479" 
d="M150 340l296 191q4 3 8 3q10 0 18 -10t10 -21.5t-8 -17.5l-289 -185q-29 -19 -43.5 -28t-4.5 -24q9 -14 27 -32t43 -42q24 -23 54.5 -52.5t64.5 -67.5q5 -6 5 -14t-6 -13q-6 -6 -13 -6t-14 7q-34 38 -64 67t-53 51q-27 26 -46 45.5t-30 36.5q-22 32 -11.5 57t56.5 55z
" />
    <glyph glyph-name="equal" unicode="=" horiz-adv-x="655" 
d="M166 293q-10 -1 -18.5 6t-9.5 17q-1 11 6 19t18 9q11 2 53.5 2h95.5h71h67h57.5h27.5q11 0 18.5 -7t8.5 -18q0 -11 -7.5 -19t-17.5 -8h-28h-59h-83.5h-87.5t-72.5 -0.5t-39.5 -0.5zM96 103q-11 -1 -18.5 6t-9.5 18q-1 11 6.5 19t17.5 9q12 1 57.5 1.5t103.5 0.5
q41 0 83 -0.5t78 -0.5h65h31q10 1 18 -6.5t9 -18.5q0 -11 -7.5 -18.5t-17.5 -7.5h-32h-66h-74h-79q-59 0 -106 -0.5t-59 -1.5z" />
    <glyph glyph-name="greater" unicode="&#x3e;" horiz-adv-x="282" 
d="M284 205l-295 -190q-5 -4 -11 -4q-11 0 -17 12t-7 25.5t4 16.5l296 180q29 19 41 28.5t2 24.5q-8 14 -26.5 31.5t-43.5 42.5q-24 23 -54 52.5t-65 67.5q-5 6 -4.5 14t6.5 13q5 5 13 5t14 -6q34 -38 63.5 -67t53.5 -51q26 -26 45.5 -46t30.5 -36q21 -33 11 -57.5
t-57 -55.5z" />
    <glyph glyph-name="question" unicode="?" horiz-adv-x="435" 
d="M413 714q42 -17 61 -49.5t17 -71.5t-24 -74l-4 -6q-36 -55 -76.5 -95.5t-85 -77t-92.5 -77.5q-28 -25 -54 -55t-37 -68q-2 -9 -6.5 -20t-14.5 -11q-2 0 -8 2q-23 11 -22.5 34t25.5 69q21 38 56.5 73t75 68t72.5 63q17 15 39.5 38t44.5 50t37 55t16 52.5t-19 42.5
q-17 15 -34.5 21.5t-36.5 6.5q-36 0 -71 -19.5t-65 -47.5t-51 -54q-5 -6 -13.5 -18.5t-18 -23.5t-16.5 -13h-2h-2q-11 0 -16 10t4 24q19 28 47.5 60t63.5 60.5t73.5 46t75.5 17.5q29 0 61 -12zM15 -88h4h3q28 0 41.5 12.5t14 29t-10 29t-29.5 12.5q-9 0 -19 -3
q-18 -6 -29 -24.5t-6 -36t31 -19.5z" />
    <glyph glyph-name="at" unicode="@" horiz-adv-x="548" 
d="M252 225q-19 -53 -17 -77t16 -24q17 0 45 27t58 72q17 25 33 50t33 49q4 4 7 8t7 9q4 4 10 4q9 0 16 -9.5t5 -20.5q-4 -17 -10.5 -42.5t-10.5 -53t-0.5 -51t18.5 -35.5q10 -7 21 -7q18 0 34.5 14.5t25.5 27.5q27 36 45 85t23 100t-8 94q-14 48 -54 80t-91 32
q-43 0 -88.5 -22t-88 -60t-77 -85t-57.5 -97t-30 -97t7.5 -85.5t54.5 -60.5q21 -11 45.5 -17.5t50.5 -7.5q42 0 83 9t76 34q2 2 7 2q6 0 9 -4q7 -10 -2 -17q-33 -23 -76.5 -35t-86.5 -12q-30 0 -60.5 7t-56.5 21q-46 25 -63 67t-11.5 93.5t29 105.5t61 104.5t83 91t95 64.5
t97.5 24q33 0 64.5 -13.5t54.5 -36.5q32 -32 45.5 -72.5t12.5 -84.5t-13 -87.5t-30 -80.5q-13 -27 -33 -54.5t-45 -43.5l-2 -1q-23 -13 -41 -13q-31 0 -46.5 29t-16.5 66q0 16 1.5 31.5t3.5 31.5q1 17 -1 17t-6 -6t-8 -13q-9 -15 -26 -40t-38.5 -51t-44 -44t-42.5 -18
q-22 0 -36 21q-17 27 -12.5 65t25 79t49.5 78t61 62t59 30q3 1 6 1h6q31 0 49 -29l2 -3q3 -4 6.5 -13t4 -17t-8.5 -10q-1 0 -2 -0.5t-2 -0.5q-9 0 -11.5 7.5t-7.5 15.5t-21 11q-4 1 -11 1q-27 0 -52.5 -21.5t-45.5 -50t-31 -48.5q-7 -12 -13 -24t-10 -25z" />
    <glyph glyph-name="A" unicode="A" horiz-adv-x="850" 
d="M423 247q14 20 12 25.5t-16 5.5q-4 0 -9 -0.5t-11 -0.5q-61 -4 -121.5 -6t-121.5 -5l2 -1q37 -14 57 -39t25 -57q6 -29 2 -63t-12 -68q-7 -24 -17.5 -47.5t-20.5 -43.5q61 69 119.5 148.5t111.5 151.5zM105 263q-31 0 -64 -3h-1.5h-2.5q-10 0 -23 3t-11 18
q0 10 11.5 14.5t27 5.5t27.5 1h5.5h4.5q87 2 176.5 7.5t177.5 7.5q25 1 37.5 7.5t20.5 19.5t21 33q97 144 191.5 288t187.5 290q7 11 23.5 36.5t37.5 56.5t43.5 60t41.5 48t30 19q10 0 12.5 -10.5t-1.5 -22.5q-37 -123 -84.5 -253.5t-98 -261.5t-97.5 -257q-9 -26 -5 -31
t14 -5h4.5h4.5q10 0 19 -3q8 -2 11.5 -10t-2 -16t-22.5 -9q-7 0 -26 -1t-24 -6q-3 -3 -16.5 -38t-34 -91t-44 -123t-47.5 -135t-44.5 -127.5t-35 -100t-18.5 -51.5t-14.5 -16.5t-22.5 -5.5q-16 0 -27 9q-5 4 -10 20t-5.5 31t7.5 20q6 1 10 -8t8 -9q2 0 3 4q4 12 9 25.5
t9 23.5q8 22 23 65t35 98t41 114.5t40.5 114.5t35 98t23.5 65q5 13 6.5 16t-6.5 3h-7h-9q-38 -2 -78.5 -4.5t-79.5 -4.5q-24 -1 -33 -9.5t-22 -26.5q-69 -100 -145.5 -200t-157.5 -190q-5 -7 -15 -16t-20 -9q-9 0 -15 9t0 20t16 20.5t15 16.5l3 1q16 28 34.5 66t30.5 79
q10 32 14 63.5t-2 60.5q-11 46 -44.5 67.5t-76.5 28.5zM793 526q39 103 79.5 210.5t83.5 207.5q2 5 4.5 8.5t4.5 8.5q3 6 9 19.5t12.5 29t10.5 26.5t2 11t-7 -7t-16 -24q-89 -147 -184 -292.5t-193 -288.5q-16 -23 -31.5 -46t-31.5 -47q-8 -11 -9 -15t7 -4q42 0 86 1.5
t86 6.5q1 0 3 0.5t4 1.5q7 1 13 15q7 12 15.5 38.5t14.5 43.5q10 24 18.5 48t18.5 48z" />
    <glyph glyph-name="B" unicode="B" horiz-adv-x="1239" 
d="M849 518q-28 12 -29.5 33.5t13 44.5t34.5 39q52 37 96.5 74t75 78.5t41.5 93.5q8 35 -1 48t-25 13q-14 0 -30 -8t-24 -17q-56 -56 -110.5 -125t-103.5 -141.5t-88 -139.5q-20 -32 -34 -67t-30 -67q-19 -41 -38 -81l-38 -80q-32 -68 -62.5 -135t-61.5 -135
q-6 -11 -15.5 -31.5t-21 -38.5t-24.5 -23q-8 -4 -17 -4q-20 0 -20 26t13.5 71t37 100.5t51.5 115t56.5 115.5t52.5 101t39 72.5t16 29.5q25 41 42 83t36 90q32 78 63 159.5t55 164.5q2 7 -5 10.5t-13.5 10t-0.5 23.5q3 6 23.5 10.5t38.5 4.5t23 -4q16 -7 11 -23.5t-9 -27.5
q-20 -65 -40 -126.5t-44 -125.5q-11 -29 -9 -29t8.5 9t14.5 20q15 21 39.5 55t55 72t63.5 72.5t64.5 57t56.5 24.5q32 0 47 -26t14 -68t-17 -90.5t-46.5 -94.5t-75 -80t-101.5 -46q-20 -3 -21.5 -11t9 -17t27.5 -15q98 -43 157 -108t79 -143t1 -161t-78 -161
q-68 -91 -165 -149.5t-210 -87t-227 -28.5q-98 0 -190 20t-169 59t-131 96q-30 34 -36 71.5t6 72.5t35 62.5t50 41.5q6 3 12 3q16 0 20.5 -16.5t-5.5 -23.5q-22 -10 -41.5 -30t-29.5 -46t-4 -55.5t35 -58.5q51 -52 121.5 -87.5t153.5 -53t170 -17.5q113 0 223.5 29t204.5 88
t155 148q39 57 49.5 124.5t-11 135.5t-80 128t-157.5 103z" />
    <glyph glyph-name="C" unicode="C" horiz-adv-x="870" 
d="M758 925q1 -49 -14 -68t-34 -19q-17 0 -31 11.5t-15 27.5q-1 19 -1.5 37.5t-9 30.5t-30.5 12q-17 0 -39 -7q-48 -15 -97 -62.5t-95 -119t-87 -158t-73 -180t-52.5 -185.5t-26.5 -174t5.5 -145t43.5 -99.5t87 -36.5q35 0 79 16q93 40 217.5 149t274.5 278q6 9 17 9
q6 0 13 -5q6 -6 6 -15.5t-6 -16.5q-28 -32 -71 -78.5t-96 -99t-111.5 -103.5t-118.5 -92.5t-116.5 -66.5t-105.5 -25q-18 0 -38 5q-71 23 -110 77t-51 131.5t-2 169.5t38.5 191t70 196.5t92.5 186t106 159.5t110.5 117t106.5 58q13 4 31 4q30 0 60 -13t51 -37.5t22 -59.5z
" />
    <glyph glyph-name="D" unicode="D" horiz-adv-x="902" 
d="M797 908q-59 -56 -115 -127.5t-106 -147.5t-92 -145q-20 -35 -35.5 -71.5t-30.5 -71.5q-20 -41 -39.5 -81.5t-40.5 -82.5q-33 -71 -65.5 -141t-64.5 -140q-5 -12 -14.5 -34t-21.5 -41t-25 -23q-5 -2 -9 -3t-8 -1q-21 0 -21.5 27t13.5 73.5t38 104t53.5 119.5t59 120
t54.5 105t40.5 75.5t16.5 30.5q26 44 44 88t34 92q35 83 68.5 167.5t58.5 170.5q3 7 -5.5 11t-15 11t-1.5 24q3 7 25 11.5t41 4.5q15 0 23 -3q16 -8 11 -25.5t-9 -29.5q-20 -67 -42 -131.5t-46 -130.5q-10 -30 -8 -30t8 9t15 21q16 23 43.5 60t61 78t66.5 78q29 31 54.5 45
t46.5 14q39 0 63.5 -37t34 -97.5t2.5 -130.5q-7 -60 -30.5 -137.5t-58 -163t-76.5 -170t-87 -158.5t-88 -128q-115 -142 -249 -213t-264 -71q-100 0 -194 42t-171 126q-9 10 -6.5 24.5t15.5 14.5q12 0 29 -17q76 -76 157.5 -113.5t165.5 -37.5q120 0 240 73.5t228 213.5
q77 100 140 219t110.5 245.5t78.5 250.5q14 57 15 108t-11.5 82.5t-39.5 31.5q-13 0 -29 -8.5t-35 -28.5z" />
    <glyph glyph-name="E" unicode="E" horiz-adv-x="1006" 
d="M44 913q-19 22 0 42q13 11 58.5 17t116 8t157.5 2h89.5t95.5 -1h122q4 7 4 14q9 5 12 9q8 8 23.5 19.5t31.5 11.5q5 0 7 -1q8 -4 10 -11.5t7 -8.5q-6 -15 -10 -33h41.5h40.5q107 0 205 3.5t174 10.5q9 0 15.5 -5t8.5 -12q0 -9 -5.5 -16t-13.5 -7q-89 -9 -203 -12.5
t-235 -3.5h-30.5h-31.5q-11 -21 -30.5 -57.5t-42 -81t-46 -90t-44.5 -86t-36 -68.5t-20 -38q-14 -28 -13.5 -37.5t13.5 -9.5q8 0 18.5 2t24.5 5q5 2 18 3.5t26 1.5q16 0 27.5 -5t7.5 -19q-2 -11 -12.5 -14.5t-24 -4.5t-23.5 -2q-11 0 -34.5 -2.5t-45.5 -8t-30 -14.5
q-4 -5 -14.5 -27t-23 -50.5t-23 -53.5t-13.5 -34q-9 -20 -23.5 -54.5t-29.5 -75t-27 -81t-17.5 -74.5t-0.5 -53q4 -17 22 -17q14 0 39 6t69 16q45 10 100 23t113.5 27.5t112.5 28l98 24.5t70 17q3 1 5.5 1h3.5q17 0 12.5 -16t-25.5 -21q-107 -27 -254 -62t-318 -82
q-24 -6 -44 -6q-39 0 -56.5 24.5t-16.5 69.5q1 27 11 64t24 77t28.5 76.5t25.5 62.5q17 41 35 81.5t37 83.5q4 9 5 12t-2 3q-2 0 -6.5 -1.5t-11.5 -2.5q-31 -11 -58 -21.5t-57 -24.5q-6 -3 -14 -6.5t-15 -3.5q-13 0 -16 15q-3 11 7.5 19.5t25 14.5t22.5 9q33 15 62.5 24
t63.5 21q19 6 27.5 16t13.5 24t14 32q29 64 62.5 127t66.5 125q20 39 43 80t42 81q1 2 2.5 4.5t3.5 3.5h-107q-60 1 -117 1h-108q-97 0 -165.5 -2t-90.5 -10q0 -9 -5.5 -15.5t-14.5 -6.5t-16 7z" />
    <glyph glyph-name="F" unicode="F" horiz-adv-x="371" 
d="M730 1029q34 4 65 5.5t59 1.5q57 0 95.5 -7t48.5 -20q5 -6 4.5 -13.5t-7.5 -11.5q-4 -4 -9 -4q-10 0 -15 9q-6 7 -30.5 11t-62.5 4q-15 0 -52 -2.5t-82.5 -7t-89 -10t-74.5 -12t-36 -13.5q-17 -24 -32 -62.5t-28.5 -82.5t-26 -86t-24.5 -72q-5 -13 -4.5 -17.5t8.5 -4.5
h4.5t6.5 1q19 5 38.5 8t38.5 5q7 2 21 4.5t26 2.5q13 0 17 -4q10 -5 7 -17t-17 -14q-11 -1 -36.5 -4t-54.5 -7t-52 -8.5t-28 -8.5q-2 -3 -8 -17.5t-12.5 -32t-12.5 -32t-8 -18.5q-25 -64 -49.5 -127t-49.5 -124q-10 -28 -21.5 -55.5t-22.5 -53.5q-3 -8 -15 -38t-27.5 -69
t-30.5 -77t-25.5 -64t-11.5 -28q-4 -6 -19 -6q-13 0 -24 6t-8 20l0.5 1l0.5 1q3 9 7.5 19.5t7.5 20.5q19 50 41.5 113.5t43.5 132t36 133.5q16 67 21.5 123.5t-3 91.5t-38.5 38h-10.5h-10.5l-3 2q-8 4 -7 15.5t14 14.5q13 4 37.5 9t52 10t51 9.5t36.5 7.5q22 7 28.5 20.5
t13.5 34.5q3 8 14.5 38t26.5 70t29 78t22.5 64.5t6.5 27.5q-1 1 -15.5 -3t-34 -10.5t-35.5 -12t-21 -7.5l-9 -3q-2 -1 -6 -1q-11 0 -15 10q-4 8 0 14t10 10q29 11 57 19t55 17q19 6 26.5 12t11 11t9.5 7q2 1 7 1q10 0 23.5 -4.5t28.5 -4.5h3h3q20 2 41 6t41 8q17 3 34 5
t35 4zM186 181q34 83 67 167.5t68 169.5q1 6 7.5 19.5t11 26t-1.5 16.5q-1 1 -7 1q-11 0 -31.5 -4.5t-45 -10t-46.5 -9.5q22 -17 28.5 -55.5t0.5 -92t-21 -115.5q-8 -27 -15 -55.5t-15 -57.5z" />
    <glyph glyph-name="G" unicode="G" horiz-adv-x="826" 
d="M676 551q-7 -13 -17 -13q-6 0 -9 5t2 16q15 38 33 63t38.5 49t44 58.5t48.5 91.5q7 18 7 48t-10 60.5t-32.5 51t-59.5 20.5q-36 0 -82 -23l-6 -6q-66 -36 -133.5 -100t-130 -147.5t-113 -178.5t-83 -192t-40.5 -188.5t16 -168.5q20 -57 52.5 -89t77.5 -32q44 0 84 25
t75 60t60 66q26 79 44.5 135t16.5 91q0 35 -19.5 51.5t-64.5 20.5h-33t-15 1q-7 2 -10 10t1.5 15t21.5 7q19 1 38 1.5t39 0.5q24 0 47 -0.5t46 -1.5q6 0 14.5 -1t17.5 -1q11 0 21 2t15 8q5 4 20 14.5t28 10.5q5 0 10 -3q7 -6 7 -15.5t3 -11.5q4 -2 10 -2q7 0 16.5 1t17.5 1
q14 0 19 -4q10 -11 7 -18t-12.5 -10t-18.5 -3q-6 0 -19.5 -0.5t-26 -2t-15.5 -4.5q-2 -2 -11 -20t-21 -41.5t-22 -43.5t-13 -28q-63 -137 -123.5 -273.5t-106.5 -280.5q-2 -10 -9.5 -14.5t-16.5 -4.5q-11 0 -21 6.5t-9 15.5v1h-2q24 89 49 165.5t49 139.5q-16 -13 -31 -28
t-19 -20q-32 -23 -68 -38.5t-76 -15.5q-62 0 -109.5 41t-67.5 105q-26 81 -19.5 177t38.5 197.5t83 200t115 185.5t134.5 154.5t140.5 105.5q30 17 59 24.5t55 7.5q44 0 78 -19.5t54 -52.5t22 -75t-18 -87q-23 -49 -46 -83.5t-44 -61t-39 -52t-33 -55.5zM532 77
q7 12 15 22.5t14 21.5q12 19 23 39t23 41q9 23 20 45.5t23 47.5q7 20 4.5 25.5t-23.5 5.5h-33h-57q17 -11 26.5 -28.5t9.5 -43.5q0 -31 -12.5 -74t-32.5 -102zM459 -132q8 22 17 42.5t14.5 34t3.5 15.5q0 2 -1 2t-1 -2q-9 -20 -17 -43t-16 -49z" />
    <glyph glyph-name="H" unicode="H" horiz-adv-x="669" 
d="M357 614q-6 -16 -5 -21.5t8 -5.5t22 3q13 2 40 6.5l60 10t65 11.5t55.5 11t30.5 9q14 7 23 29t15 36q20 47 36 85t31 76t33 86q3 10 8.5 14t9.5 4q7 0 11.5 -6t3.5 -16q-1 -8 -10.5 -33t-22.5 -56.5t-24.5 -58.5t-16.5 -39q-8 -21 -12.5 -32t-9.5 -22t-13 -32
q-7 -17 -5 -21t7.5 -5t6.5 -10q0 -13 -7.5 -16.5t-17 -6t-14.5 -11.5q-10 -18 -20 -43.5t-18 -44.5t-15 -37t-15 -37q-14 -33 -35 -84.5t-46 -113t-51 -127t-50.5 -127.5t-44 -114t-30.5 -86q-2 -7 -6 -21.5t-8.5 -28t-8.5 -16.5q-6 -6 -12 -6t-10.5 6.5t-3.5 17.5
q2 10 15 47t33 89.5t42 110.5t42.5 111t35 90.5t18.5 47.5q20 51 35.5 90t30.5 74t31.5 74t37.5 88q8 20 8.5 27.5t-6.5 7.5q-5 0 -13 -2t-18 -5q-52 -11 -108 -20t-112 -16q-20 -5 -29.5 -12t-14 -18t-11.5 -29q-27 -73 -56 -143.5t-58 -142.5q-17 -44 -32.5 -89.5
t-30.5 -92.5q-2 -7 -8.5 -20t-16.5 -13q-5 0 -7 2q-12 5 -15.5 25t0.5 31q10 31 20 61.5t22 60.5q11 41 21.5 86t15.5 87q11 67 3 111q-5 20 -13 32.5t-23 17.5h-1l-3 -4q-3 -1 -8 -1q-17 0 -19 13t11 19q17 8 47.5 15t61 13t49.5 10q19 3 22 10.5t10 23.5q19 50 43 103
t45 105q23 50 51 108t56 104q7 10 24 10q13 0 23.5 -7.5t2.5 -20.5q-52 -91 -100 -196t-88 -200zM170 286q12 33 24 64.5t25 62.5q10 27 21 51.5t21 50.5q11 23 -1 23q-7 0 -17 -3q-44 -7 -90 -20q10 -8 17 -21.5t11 -31.5q4 -22 3 -52t-4 -63q-3 -14 -6 -29.5t-4 -31.5z
" />
    <glyph glyph-name="I" unicode="I" horiz-adv-x="716" 
d="M911 1034q2 1 6 1q15 0 17 -15q2 -8 -2.5 -15t-11.5 -8q-43 -11 -85.5 -19t-85.5 -15q-23 -5 -30 -12t-16 -27q-16 -40 -33 -80t-33 -81q-79 -186 -156.5 -373t-148.5 -378q-2 -6 -8.5 -23t-11 -33.5t0.5 -21.5q4 -2 10 -2q11 0 30 3.5t36.5 8t25.5 5.5q43 9 87.5 19
t89.5 21q8 0 13 -2t7 -12q3 -7 -0.5 -14.5t-10.5 -10.5q-77 -20 -162 -34.5t-169 -30t-162 -35.5q-20 -6 -39 -10t-36 -12q-1 0 -3 -0.5t-3 -0.5q-15 0 -20 13q-5 17 11 27q44 13 82.5 21.5t84.5 17.5q36 9 48 24q21 92 58.5 194.5t75.5 204.5q37 93 68 180t47 160t8 125
q-5 44 -35.5 67.5t-92.5 23.5q-13 0 -27.5 -1.5t-31.5 -3.5q-2 -1 -5 -1q-13 0 -16 12q-3 6 0.5 15t10.5 11q53 18 114.5 30t124.5 21.5t120 20.5q13 2 15.5 3.5t2.5 4.5t7 8q5 6 15 6q13 0 25.5 -6.5t14.5 -7.5q2 0 18.5 3t41 8.5t49.5 10.5t44.5 9.5t25.5 5.5zM336 193
q56 147 118 293.5t124 290.5q16 35 30.5 71.5t32.5 71.5q7 16 5.5 21.5t-9.5 5.5q-9 0 -26 -3q-52 -10 -111.5 -19.5t-114.5 -25.5q58 -2 86.5 -28.5t35.5 -73.5q9 -54 -7 -129t-47.5 -164t-67.5 -185q-12 -31 -25.5 -62.5t-23.5 -63.5z" />
    <glyph glyph-name="J" unicode="J" horiz-adv-x="591" 
d="M642 941q2 16 -2 21t-14 5q-6 0 -14 -1t-18 -2q-34 -2 -68.5 -3t-69.5 -5q-19 0 -20 17q-2 7 3.5 13.5t13.5 6.5q75 7 161 9.5t172 8t159 23.5q2 1 5 1q14 0 17 -14q2 -8 -2 -14.5t-12 -7.5q-52 -13 -106 -19t-108 -8q-17 -2 -24 -6t-12 -21q-5 -15 -9 -34.5t-8 -35.5
q-5 -16 -11.5 -36t-14.5 -44v2q-10 -29 -18.5 -58t-16.5 -58q85 45 162.5 98t136.5 120q6 7 13 7t13 -6q4 -5 5 -12.5t-5 -13.5q-70 -76 -160 -136.5t-185 -108.5q-47 -124 -90 -221.5t-82.5 -177.5t-77.5 -153q-11 -21 -21.5 -43t-24.5 -48q-41 -83 -75 -119t-52 -36
q-4 0 -6 1q-16 7 -13.5 49t14.5 107.5t27 140.5l11 55q11 49 16 89t11 72q6 55 13.5 93t26 64t55.5 47q21 11 48 23t57 28q28 11 53.5 22.5t58.5 26.5q22 65 42 137.5t46 154.5zM309 93q36 69 70.5 143t72.5 163t83 204q-24 -11 -40.5 -19t-36.5 -17q-32 -13 -59 -26
t-46 -24q-29 -15 -44 -38t-21.5 -57t-12.5 -82q-5 -32 -10.5 -72.5t-14.5 -90.5l-11 -54q-15 -70 -27 -128.5t-18 -93.5t-3 -37q0 -1 10.5 19t26.5 50.5t33 63.5t30 59.5t18 36.5z" />
    <glyph glyph-name="K" unicode="K" horiz-adv-x="725" 
d="M528 1001q5 12 19 12q3 0 5 -1q8 -3 22.5 -10t11.5 -12q-32 -87 -68 -170.5t-73 -167.5q-9 -24 -14.5 -37t-12 -29t-21.5 -49q-7 -8 -11 -19t-12 -22q110 55 190.5 103t144 95.5t120.5 98t119 108.5t141 129q7 5 12 5q8 0 14 -8q5 -3 4.5 -11.5t-6.5 -13.5
q-85 -86 -159 -156t-143.5 -127.5t-140.5 -106t-149.5 -91.5t-171.5 -85q-7 -14 -12 -25.5t-10 -24.5q-17 -35 -33.5 -70.5t-35.5 -72.5q35 -50 78.5 -113.5t88.5 -130t85 -127t68 -106t36 -65.5q2 -7 -1 -13.5t-12 -9.5q-2 -1 -6 -1q-12 0 -15 9q-3 8 -27 45.5t-61 94.5
t-81.5 123.5t-89 132.5t-82.5 121q-43 -90 -87 -180.5t-88 -179.5q-2 -5 -12 -7.5t-21 -2.5q-8 0 -14 2q-5 1 -9.5 12t-6 23t0.5 17q2 6 8 6q2 0 5 -0.5t5 -0.5q6 0 8 5q44 90 88 180.5t87 181.5q-25 34 -40 55.5t-20 24.5q-7 7 -16 18.5t1 22.5q2 3 14.5 8t25.5 10.5
t19 7.5q29 14 56 26.5t54 24.5q25 55 52 115.5t52 113.5q31 70 60 139t57 141q2 9 5 18t5 17zM222 297q12 26 24 51.5t24 51.5q-11 -4 -23 -9.5t-23 -8.5q-21 -8 -32 -15.5t-11 -9.5l10.5 -16.5t30.5 -43.5z" />
    <glyph glyph-name="L" unicode="L" horiz-adv-x="695" 
d="M531 1028q2 4 9.5 6.5t17.5 2.5q13 0 23.5 -9.5t1.5 -36.5q-59 -171 -126 -341.5t-133.5 -341t-123.5 -344.5q-1 -2 -2 -6.5t-2 -8.5l15 2q62 11 137 18.5t154.5 11.5t155.5 4q108 0 192 -9h11t9 -2q17 -3 15 -20q-1 -14 -18 -14q-42 5 -91.5 8t-104.5 3q-79 0 -164 -5
t-167.5 -13.5t-156.5 -20.5q-5 -21 -12 -34q-7 -8 -17.5 -18t-23.5 -14h-5q-16 4 -14 15t3 25q1 2 1.5 6t1.5 9q-4 -1 -10.5 -2t-11.5 -2q-23 -6 -45.5 -11t-44.5 -10q-13 -3 -26 -6.5t-25 -7.5q-2 -1 -5 -1q-13 0 -16 12q-3 7 0.5 13.5t10.5 8.5q48 14 92.5 24t91.5 19
q4 10 6.5 16.5l2.5 6.5q20 60 39.5 119t39.5 116q35 94 70 186t71 182q7 21 15 41t17 42q46 115 84 216t58 165z" />
    <glyph glyph-name="M" unicode="M" horiz-adv-x="752" 
d="M67 79q-4 -8 -21 -8q-11 0 -18.5 9.5t3.5 34.5q4 9 7.5 17t7.5 16l228 702q2 8 -5 12t-2 11q1 5 8.5 9.5t12.5 4.5q10 0 15.5 -9.5t1.5 -19.5l-121 -374q7 18 14.5 35t14.5 33q35 82 70 165.5t68 166.5q2 4 9.5 6.5t15.5 2.5q10 0 19.5 -3.5t8.5 -11.5q0 -67 1 -133.5
t3 -134.5q2 -70 3.5 -137.5t-0.5 -135.5q-1 -15 3 -15q3 0 8 7.5t9 12.5q69 112 139.5 231.5t142 237.5t145.5 226l13 19.5t16 15.5q3 2 10 2q11 0 23 -7t10 -16q-4 -35 -16.5 -74.5t-22.5 -75.5q-9 -30 -18 -59.5t-16 -60.5l-2 -5q-21 -72 -53 -160t-65 -184t-57.5 -192.5
t-32.5 -186.5t10.5 -166t73.5 -130q10 -7 4 -16.5t-15 -9.5q-6 0 -10 4q-60 60 -81.5 139.5t-15.5 170.5t30.5 188.5t58.5 195t67.5 188.5t56.5 169q2 6 7.5 25t13 44.5t14 49.5t11 41.5t3.5 19.5l-17.5 -28t-46.5 -75.5t-66 -107t-77 -124.5t-78 -127t-70.5 -114t-53.5 -87
t-27 -44q-4 -5 -18 -13t-27 -8q-8 0 -12 4q-6 5 -6 17.5t1 25.5t2 19q4 74 2.5 152t-3.5 152q-1 6 -1.5 26t-0.5 45.5t-0.5 50t-1 41.5t-1.5 18q-1 3 -7 -9t-11.5 -26t-6.5 -16q-20 -50 -40.5 -98.5t-41.5 -97.5q-44 -104 -95 -222.5t-104 -240.5z" />
    <glyph glyph-name="N" unicode="N" horiz-adv-x="732" 
d="M156 46q-4 -16 -12.5 -23.5t-18.5 -7.5q-14 0 -24.5 11.5t-6.5 29.5l8 32l116 857q1 9 -6 12t-5 14q3 8 10.5 14t16.5 6q10 0 17 -9.5t6 -21.5l-73 -523q5 26 14 69t20 95.5t23.5 105.5t24 100.5t21.5 80.5t17 44q19 31 41 31q24 0 37 -41q5 -18 8 -56t4 -88t1.5 -105
t0 -107.5t-1 -95.5t-0.5 -69q1 -81 1.5 -162.5t0.5 -162.5q0 -57 -0.5 -113t0.5 -113q0 -61 7 -61q8 0 38 75q27 62 52.5 146.5t51 182.5t52.5 200t56 200.5t61.5 184.5t69.5 151t79 100q12 9 21 9q12 0 19 -11.5t6.5 -26t-10.5 -23.5q-47 -45 -86 -124.5t-73.5 -181.5
t-66 -216t-62.5 -228t-64.5 -218t-70.5 -185q-4 -9 -13.5 -25.5t-22 -34t-26 -30t-25.5 -12.5q-11 0 -17 9.5t-8 19.5q-3 17 -3.5 41.5t0 50t0.5 44.5v94.5v94.5v364t-5 363v11t-1 24.5t-2 24t-3 10.5l-2 -2q-4 -9 -10 -32.5t-11.5 -48t-8.5 -35.5q-12 -53 -22.5 -104.5
t-22.5 -104.5q-24 -109 -53 -234t-64 -266z" />
    <glyph glyph-name="O" unicode="O" horiz-adv-x="599" 
d="M205 149q0 -16 -17 -16q-7 0 -11.5 5t-4.5 12q5 121 15 236.5t30 235.5q3 15 3.5 20.5t-0.5 5.5t-5.5 -12t-10 -28.5t-9.5 -30t-5 -16.5q-23 -79 -41.5 -162t-27.5 -164q-16 -161 -12.5 -263t23.5 -151q18 -39 39 -39q25 -1 64 38q42 44 84 112t80 152.5t69 179
t52.5 190.5t30.5 187.5t3 171t-31 139.5q-30 70 -69 79q-35 0 -57 -19.5t-38 -47.5q-6 -10 -3 -10q5 0 16 4.5t28 4.5q15 0 31 -6q24 -13 19.5 -26t-16.5 -13q-4 0 -6 1q-10 4 -14.5 7t-14.5 3h-4h-3q-23 -3 -43 -24t-34.5 -47t-20.5 -45q-31 -103 -48.5 -216t-26 -227
t-14.5 -221zM289 895q10 25 23.5 54.5t32.5 56t44 43t57 16.5q27 0 54.5 -15.5t49.5 -38.5t32 -47q26 -62 32.5 -144t-3 -176.5t-32 -193.5t-55.5 -196t-72.5 -184t-83.5 -157.5t-88 -116.5q-25 -25 -57 -37t-53 -12q-21 1 -39 16t-29 46q-23 52 -27.5 158t12.5 272
q7 65 22 139t35.5 149t46.5 145.5t55 129.5q11 23 22.5 46.5t20.5 46.5z" />
    <glyph glyph-name="P" unicode="P" horiz-adv-x="823" 
d="M458 1022q1 6 10.5 10t20.5 4t20 -5t7 -17q-4 -24 -9 -46t-9 -46q-4 -13 -2 -13q4 0 15 7q46 26 93.5 43.5t101.5 17.5h13.5t13.5 -1q63 -6 100.5 -37t55 -80t18 -107.5t-12 -119.5t-32.5 -116q-27 -74 -63.5 -125t-79 -86t-88.5 -61q-49 -27 -92 -40t-88 -16.5t-98 -3.5
h-19t-17 -1q-20 -1 -28.5 -7.5t-11.5 -18t-9 -29.5q-26 -94 -52 -186.5t-45 -186.5q-3 -13 -16 -13t-28 9t-14 14q19 95 43 192.5t50 189.5q49 160 97 320t92 316q6 23 3 23t-18 -16q-6 -6 -30 -27t-57.5 -53t-69 -70t-67 -78t-50.5 -78q-3 -6 -11 -6q-9 0 -15 6
q-10 10 -2 27q17 35 50.5 77t74.5 84.5t81 80.5t70.5 64.5t42.5 36.5q21 18 25.5 34.5t9.5 43.5q6 24 14 45t12 45zM339 357q-3 -6 -9 -25t-13 -42t-12 -41t-5 -22q0 -7 4 -8t11 -1h3h4q50 0 100.5 2.5t99 14.5t90.5 42q33 23 70 55t72.5 80t63.5 119q20 48 34.5 102
t18 106.5t-8 96.5t-42.5 72t-85 32q-5 1 -11 1h-11q-57 0 -113.5 -23t-98.5 -53q-23 -16 -26 -31t-10 -41q-29 -109 -61.5 -218t-64.5 -218z" />
    <glyph glyph-name="Q" unicode="Q" horiz-adv-x="687" 
d="M419 49q53 78 99 171.5t79.5 192t49.5 194t9.5 178.5t-39.5 145q-37 66 -84 72q-39 0 -64.5 -15t-49.5 -45q-9 -10 -4 -10t19 4.5t33 4.5q9 0 18.5 -1.5t19.5 -5.5q19 -8 22.5 -16.5t-3 -14t-16.5 -5.5q-5 0 -7 1q-11 3 -17.5 6t-18.5 3h-3h-4q-27 -2 -51 -21.5
t-41.5 -44t-24.5 -42.5q-25 -60 -47 -132.5t-23 -137.5q-3 -94 18 -181t56 -163t74 -137zM430 -35q-30 -37 -65 -73t-77 -59t-95 -23q-31 0 -51.5 15t-34.5 41q-26 50 -31.5 149t14.5 251q12 82 39.5 176t67 185t85.5 164q14 22 27 43t27 44q15 32 39.5 69t61.5 63t88 26
q4 0 8 -0.5t8 -0.5q23 -5 51.5 -17t55 -31t41.5 -45q35 -66 40.5 -156.5t-14 -193.5t-57.5 -209t-89.5 -204.5t-110.5 -177.5q24 -33 44 -63t39 -47q13 -12 6.5 -25t-17.5 -13q-8 0 -23 14.5t-31 34.5t-29 38t-17 25zM396 16q-36 61 -68 134.5t-54.5 153t-30 160t5.5 157.5
q4 26 0 26q-2 0 -7.5 -11.5t-11 -26.5t-10 -27.5t-5.5 -15.5q-28 -74 -50.5 -150.5t-33.5 -151.5q-20 -149 -15.5 -245t30.5 -142q16 -34 47 -34q23 0 41.5 10t35.5 23q31 26 63 61.5t63 78.5z" />
    <glyph glyph-name="R" unicode="R" horiz-adv-x="747" 
d="M774 1013q-29 0 -65 -25t-74 -65.5t-75 -89t-69.5 -96.5t-57.5 -87.5t-38 -62.5q-15 -28 -28.5 -59.5t-27.5 -62.5q-16 -35 -34 -71.5t-35 -72.5q-7 -14 -16 -35t-19 -47q119 11 213 50t165 96.5t120 125t78.5 138t40.5 135.5t5 117t-27 82t-56 30zM219 199l-13 -29
q5 -2 8 -6.5t7 -8.5q44 -41 85.5 -78.5t88.5 -74.5q68 -52 147.5 -105t174.5 -115q8 -2 9.5 -10t-4.5 -14q-5 -8 -14 -8q-5 0 -9 3q-82 53 -169 111t-170 121t-152 133q-5 5 -9 9.5t-6 6.5q-20 -48 -38.5 -96t-34 -87t-26.5 -62q-5 -11 -13.5 -29.5t-19 -35t-21.5 -21.5
q-8 -2 -11 -2q-20 0 -18.5 31.5t17.5 84.5t42.5 119t57.5 136q-2 8 -8.5 16t-17.5 19q-10 11 -3.5 19.5t21.5 9.5q16 2 24.5 3.5t14.5 4.5q8 18 15 34.5t15 32.5v1q32 67 58.5 122.5t43 89.5t17.5 36q23 38 39 76t33 78q28 74 56 147t53 150q2 5 -5 8t-13 9t-1 19
q2 8 22.5 12t36.5 4h9.5t6.5 -1q14 -8 10.5 -23t-6.5 -26q-18 -59 -37.5 -114.5t-39.5 -112.5q-10 -28 -8 -28t8 8.5t14 19.5q14 20 37.5 52.5t52.5 68t58 66.5q38 39 73 56.5t66 17.5q45 0 78 -33t50.5 -89.5t15.5 -127.5t-27 -148t-76.5 -151.5t-132.5 -137.5
t-195.5 -105.5t-266.5 -55.5z" />
    <glyph glyph-name="S" unicode="S" horiz-adv-x="522" 
d="M837 777q0 -8 -6 -13t-13 -4q-16 3 -16 21q8 59 -10 107.5t-53.5 77t-80.5 28.5q-25 0 -52.5 -11t-55.5 -35q-61 -54 -93.5 -128.5t-45 -162.5t-13 -183t3 -191t4 -186.5t-10 -169.5t-40.5 -140q-25 -49 -62.5 -86.5t-78.5 -58t-78 -20.5q-39 0 -66.5 27t-33 86t21.5 156
q14 48 36 94t45.5 85.5t44 67.5t32.5 41q12 14 27 14q10 0 13 -6.5t-8 -20.5q-9 -12 -28.5 -39.5t-43 -66t-46 -84t-37.5 -92.5q-26 -79 -25 -129t20 -74t49 -24q38 0 84.5 37t80.5 105q30 59 39.5 138.5t8 171.5t-5.5 190.5t-3.5 197t14.5 190t49 169.5t100 136
q31 28 64 40.5t66 12.5q45 0 86 -21t71 -58t43 -85.5t3 -103.5z" />
    <glyph glyph-name="T" unicode="T" horiz-adv-x="492" 
d="M1135 1032q16 -4 14 -22q-5 -15 -24 -15q-56 13 -118 21t-125 12.5l-119 8.5q-4 0 -8.5 0.5t-7.5 0.5q-22 0 -30.5 -6t-13 -19t-12.5 -34q-38 -88 -78.5 -177t-80.5 -176q-11 -21 -18.5 -40.5t-16.5 -38.5q-54 -115 -106.5 -230.5t-98.5 -220.5t-80 -189t-50 -136
q-1 -5 -14 -9t-26 -4t-22 5t-5 19q3 10 7.5 22t9.5 24q46 165 106.5 313t119.5 276q45 99 80.5 184.5t55.5 156t16 124.5q-6 72 -65.5 111.5t-197.5 41.5q-26 -1 -53 -3t-53 -4q-16 0 -18 18q0 7 4.5 13t12.5 7q87 7 177.5 9.5t180.5 2.5h73.5t73.5 -1h4h3q19 0 26.5 5
t11.5 16t12 28q2 7 10 10t18 3q14 0 26.5 -7.5t7.5 -20.5q-10 -27 -5.5 -32t36.5 -6q56 -3 119 -8t125.5 -13t115.5 -20zM219 91q46 109 101.5 230t112.5 242q49 107 96.5 213t94.5 213q11 25 14.5 36t-3.5 13.5t-29 2.5h-5h-5h-9h-9q-28 1 -55.5 1h-55.5h-56t-57 -1
q78 -18 113.5 -58t40.5 -99q3 -56 -17 -128.5t-56 -159.5t-81 -187q-32 -72 -67 -152t-68 -166z" />
    <glyph glyph-name="U" unicode="U" horiz-adv-x="823" 
d="M323 -136q-39 -37 -74 -54t-65 -17q-48 0 -78 42.5t-33 119.5t8.5 177t41.5 230t82 295t130 372q3 7 10 9.5t14 2.5q13 0 25 -6.5t7 -17.5q-78 -205 -128.5 -369t-78.5 -292.5t-38 -227t-7 -173.5q4 -125 56 -125q37 0 102 61q103 101 198 218.5t163 246.5q12 20 22.5 45
t20.5 46q61 133 111 265.5t115 263.5q4 10 22 10q13 0 26 -7.5t8 -18.5q-45 -99 -80.5 -197t-73.5 -195t-88 -193q-20 -39 -41 -95t-40 -120.5t-35.5 -129.5t-28.5 -123.5t-18 -102.5q-2 -10 -18 -26t-33 -16q-3 0 -9 2q-8 3 -9.5 13.5t1 23.5t3.5 22q4 23 13 63.5t20.5 87
t21.5 87.5t15 63q9 43 0 43q-4 0 -10 -11q-53 -86 -116 -154t-134 -138z" />
    <glyph glyph-name="V" unicode="V" horiz-adv-x="619" 
d="M282 915q4 10 22 10q15 0 28.5 -6.5t9.5 -17.5q-22 -51 -41.5 -127t-36 -165.5t-29 -184t-20 -186t-10 -169.5t0.5 -134q3 -31 14 -56t28 -25q11 0 23 10.5t25 35.5q43 79 91 182.5t100.5 221t109.5 241t117 244t122.5 230t126.5 197.5q6 7 14 7q10 0 18 -8.5t1 -18.5
q-64 -89 -126 -197.5t-122 -228t-116.5 -241.5t-109 -239.5t-100.5 -222t-91 -187.5q-19 -35 -40 -50.5t-41 -15.5q-34 0 -60 34.5t-32 82.5q-8 66 -6 155t11.5 188.5t24 199t31.5 188t33.5 154.5t29.5 99z" />
    <glyph glyph-name="W" unicode="W" horiz-adv-x="826" 
d="M275 799q5 11 11.5 15.5t13.5 4.5q15 0 24 -17.5t-2 -31.5q-11 -12 -30.5 -56.5t-45 -111t-52 -145.5t-51.5 -161.5t-44 -158.5t-29.5 -136t-7.5 -94q0 -2 11 14t25.5 38.5t27.5 42t16 24.5q2 4 4.5 8t4.5 9q78 119 156.5 240t160.5 239q16 22 39 41.5t41 19.5
q13 0 20.5 -13.5t5.5 -47.5q-4 -41 -10 -84t-10 -84q-8 -70 -17.5 -134.5t-16 -129t-7.5 -134.5q0 -30 2.5 -42.5t7.5 -12.5t12 11.5t14 29.5q47 108 88 216.5t82 216.5t90.5 216.5t113.5 217.5t151 218q6 6 15 6q13 0 23 -11.5t-6 -31.5q-59 -66 -113.5 -154.5t-104.5 -190
t-94.5 -206.5t-83.5 -203.5t-72.5 -182t-61 -141.5t-48.5 -81q-12 -14 -29 -14q-11 0 -20.5 6.5t-12.5 17.5q-5 20 -6 59.5t1.5 88.5t7 99t8.5 92.5t7 66.5q8 68 16.5 136t18.5 136q4 22 1 22q-2 0 -5.5 -7.5t-9.5 -17.5q-25 -42 -51.5 -80t-53.5 -78q-55 -83 -109.5 -167
t-108.5 -168q-8 -11 -23 -35.5t-34 -54.5t-38.5 -58.5t-35.5 -49t-24 -25.5q-5 -4 -11 -4q-14 0 -15 26.5t3 57.5q13 112 37 232t59 240.5t79 234t96 212.5z" />
    <glyph glyph-name="X" unicode="X" horiz-adv-x="590" 
d="M346 1019q-1 9 8.5 14t21.5 5q10 0 18 -4t9 -11q4 -48 7.5 -127.5t6.5 -174.5q0 -11 0.5 -40.5t2 -70t3 -83.5t3.5 -80.5t3.5 -62t2.5 -27.5q1 -4 5 -4t9 5l7 7q31 52 73.5 113.5t85.5 128.5t77 136t50.5 136t4.5 127q-1 9 4 13.5t12 4.5q6 0 12.5 -4t8.5 -12
q16 -46 6.5 -102.5t-36.5 -119.5t-65 -127t-80 -125t-80.5 -115t-65.5 -96q-17 -23 -21 -44.5t-2.5 -44t3.5 -49.5q1 -10 3.5 -40t6.5 -69.5t10 -77.5t15 -64t20 -29q7 0 12.5 -5.5t3.5 -12.5q0 -8 -7 -21t-15 -12q-20 3 -35 33t-26 74t-18.5 90t-12 83t-5.5 52q-3 14 -7 14
q-3 0 -6.5 -4.5t-7.5 -10.5q-15 -24 -49 -66t-79 -92t-93.5 -98.5t-94.5 -87t-80 -55.5q-12 -5 -16 -5q-14 0 -13 12.5t9 14.5q33 16 79.5 54t101 93.5t112.5 123t114 144.5q17 23 18.5 51.5t-3 57.5t-4.5 55q-4 84 -7.5 165t-5.5 161v6q-3 96 -6.5 175t-7.5 125z" />
    <glyph glyph-name="Y" unicode="Y" horiz-adv-x="607" 
d="M295 1017q0 10 6.5 11.5t13.5 1.5q6 -1 11 -6.5t5 -13.5q2 -83 5 -147t6.5 -116.5t7.5 -101t7.5 -100.5t6.5 -116q2 -29 2.5 -43t4.5 -14q3 0 10.5 14.5t22.5 42.5t25 45t19 31t20.5 31t29.5 45q54 89 124 194.5t156 234.5q4 7 18 7q16 0 32 -9.5t9 -20.5
q-114 -168 -225 -338t-210 -348q45 22 88.5 42t86.5 37q8 4 17 4q15 0 16 -11.5t-18 -18.5q-52 -23 -105 -47.5t-106 -53.5q-31 -58 -57 -116.5t-49 -120.5q-20 -60 -41 -120.5t-35 -128.5q-1 -7 -8 -9.5t-16 -2.5q-13 0 -25 6t-10 16l7 21q0 37 -2 83.5t-8 93.5
q-6 35 -15 58t-15.5 38t-5.5 26.5t14 25.5t44 34q36 25 76 50t81 47q7 17 17 32q5 13 3.5 27t-2.5 28q-9 169 -22.5 333t-16.5 343zM174 -93q9 31 18.5 61t17.5 59q14 31 37 80.5t47 96.5q-32 -17 -63 -35t-59 -40q-27 -18 -34.5 -29t-3 -24t15 -35t17.5 -61q2 -17 3.5 -36
t3.5 -37z" />
    <glyph glyph-name="Z" unicode="Z" horiz-adv-x="805" 
d="M555 975q-8 0 -14.5 5.5t-6.5 12.5q0 9 6 15t15 6q101 3 181 7t139 7q14 1 49.5 3.5t69.5 2.5q23 0 42 -2t26 -8q14 -11 11.5 -29.5t-14 -38.5t-24.5 -37.5t-20 -25.5q-45 -53 -90 -105.5t-90 -105.5q-165 -190 -327.5 -376t-339.5 -371q-5 -6 -17 -17.5t-25 -25
t-21.5 -26t-5.5 -19.5q3 -9 20 -13.5t41 -6t46 -1.5q115 0 230 3t230 8q7 0 13 -5.5t6 -13.5q1 -8 -4.5 -14t-12.5 -6q-33 -2 -93.5 -4.5t-133.5 -4.5t-143 -2q-75 0 -136.5 3.5t-88.5 11.5q-9 2 -28 8.5t-32 15.5t-4 21q8 11 22.5 26.5t29.5 31t25 25.5q45 47 89.5 97.5
t88.5 97.5l6 5q170 192 341 389.5t341 397.5q4 6 18 21.5t25 30.5t5 22q-2 3 -10.5 4t-20.5 1q-21 0 -46 -2t-35 -3h-5.5h-6.5q-57 -4 -137.5 -9t-183.5 -7z" />
    <glyph glyph-name="bracketleft" unicode="[" horiz-adv-x="258" 
d="M539 899q8 0 13.5 -5.5t6.5 -13.5q0 -8 -5 -13.5t-13 -6.5h-37h-37q-8 0 -14.5 0.5t-13.5 0.5q-38 0 -64.5 -11.5t-41.5 -55.5l-348 -968q-8 -23 -11.5 -41.5t-1.5 -28.5q4 -16 37 -17l104 -1q8 0 13.5 -5.5t5.5 -13.5t-6 -13.5t-14 -5.5l-103 1q-33 1 -50.5 12.5
t-23.5 32.5q-4 18 0 41t14 51l348 969q14 41 34 60.5t46 25.5t58 6q8 0 16.5 -0.5t16.5 -0.5h16.5h17.5h18t19 1z" />
    <glyph glyph-name="backslash" unicode="\" horiz-adv-x="183" 
d="M197 -87l-237 902q-2 8 1.5 15t11.5 9q2 1 5 1q16 0 19 -15l237 -902q2 -7 -1.5 -14t-11.5 -9q-2 -1 -6 -1q-14 0 -18 14z" />
    <glyph glyph-name="bracketright" unicode="]" horiz-adv-x="263" 
d="M-254 -298q-18 0 -20 19q0 7 5 13t13 7h13.5h12.5h25h23q8 0 15 -0.5t15 -0.5q38 0 63.5 11.5t41.5 54.5l347 969q8 23 12 41t0 29q-3 16 -36 16l-104 1q-8 1 -13.5 6.5t-5.5 13.5t5.5 13.5t13.5 5.5l104 -1q33 -1 50.5 -12.5t23.5 -32.5q4 -18 0 -41.5t-14 -51.5
l-347 -968q-15 -42 -35.5 -61.5t-48 -25t-61.5 -5.5h-13.5h-13.5q-9 1 -19 1h-20h-16t-16 -1z" />
    <glyph glyph-name="asciicircum" unicode="^" horiz-adv-x="290" 
d="M318 440q-1 -10 -9 -15.5t-19 -5.5q-12 0 -22.5 8t-11.5 25q0 5 2.5 29t4 52.5t-1 50t-11.5 21.5q-2 0 -6 -2q-6 -4 -20 -19.5t-30.5 -35.5t-30 -38t-19.5 -25q-5 -6 -9 -12l-8 -12q-5 -7 -13.5 -17.5t-18.5 -10.5q-7 0 -12 6q-10 11 0 26.5t18 25.5q9 13 30 40.5
t46.5 57t49.5 50t39 20.5t25.5 -12.5t16 -29t7.5 -29.5q6 -35 5.5 -74t-2.5 -74z" />
    <glyph glyph-name="underscore" unicode="_" horiz-adv-x="812" 
d="M80 -201q-12 -1 -21 7t-10 20t7 21t20 9q12 1 49.5 1.5t91 0.5h113.5h122h114h99h48q12 0 20.5 -8t9.5 -20q0 -12 -8.5 -20.5t-19.5 -8.5h-49h-100h-113.5h-120.5h-113t-90 -0.5t-49 -1.5z" />
    <glyph glyph-name="grave" unicode="`" 
d="M134 700l69 -136q5 -10 1.5 -21.5t-13.5 -17.5q-6 -3 -13 -3q-18 0 -26 16l-69 136q-5 10 -1.5 21.5t13.5 16.5q8 4 14 4q17 0 25 -16z" />
    <glyph glyph-name="a" unicode="a" horiz-adv-x="447" 
d="M280 351q8 -11 6 -23.5t-10 -22t-19 -9.5q-9 0 -18 10q-19 23 -36.5 33t-33.5 10q-28 0 -51.5 -22.5t-46.5 -50.5q-6 -9 -18.5 -26t-25 -37.5t-21 -39.5t-6.5 -31q1 -9 9 -9q11 0 31.5 15.5t44 38t45.5 46t37.5 41t18.5 20.5q15 14 28 14q16 0 25 -19t17.5 -44.5
t20.5 -47t34 -26.5q3 -1 10 -1q23 0 49.5 18t49 41t34.5 36q7 8 17 8q8 0 12 -4q6 -6 6.5 -14.5t-4.5 -15.5q-34 -37 -62.5 -60t-53.5 -36q-26 -10 -47 -10q-31 0 -51.5 16t-34 37t-22.5 37.5t-17 17.5q-5 1 -19 -13t-34 -36t-43 -44t-47 -37t-46 -15q-17 0 -30 10l-3 3
q-18 17 -17.5 45.5t12.5 60.5t27 58.5t26 39.5q31 39 71 68.5t83 29.5q26 0 52 -14t51 -46z" />
    <glyph glyph-name="b" unicode="b" horiz-adv-x="436" 
d="M370 1168q4 8 11 11.5t14 3.5q13 0 22 -10.5t0 -29.5q-87 -189 -168 -385.5t-156 -390.5q-2 -6 -10.5 -27.5t-18.5 -48t-17.5 -47t-7.5 -24.5q0 -2 2 -2q5 0 16 8.5t20.5 17.5t11.5 11q39 31 85 41q53 0 78.5 -23.5t26.5 -77.5q0 -14 5 -14q2 0 6 2t11 5q32 16 64.5 36.5
t63.5 38.5q3 1 6 2.5t6 2.5q2 1 7 1q14 0 17 -14.5t-22 -30.5q-39 -26 -80.5 -46t-82.5 -39q-18 -9 -28 -18.5t-18 -20.5t-22 -25q-22 -22 -58 -44.5t-75 -40t-69 -24.5q-9 -3 -20 -3q-14 0 -25 7t-10 24q1 16 16 33t36.5 32t42 26.5t33.5 17.5q25 12 52 22.5t52 21.5
q23 13 33 28t8 43q-2 23 -14 31.5t-34 8.5q-38 -8 -70 -34t-58.5 -59t-48.5 -62q-11 -14 -26 -14q-11 0 -19 8.5t-4 22.5q23 78 59.5 180.5t81.5 217.5t93.5 232t95 224.5t86.5 193.5zM98 68q-56 -26 -75 -43t-7 -17q9 0 35 12t66 39q11 7 18.5 14.5t0.5 7.5q-8 0 -38 -13z
" />
    <glyph glyph-name="c" unicode="c" horiz-adv-x="293" 
d="M284 265q9 7 16 7q8 0 13 -5q14 -14 0 -28q-16 -17 -44.5 -36t-60.5 -37t-60 -31t-43 -17q-26 -6 -46 -6q-46 0 -62 29t-8 75t35 98q14 28 35.5 50t53.5 29h3.5h3.5q23 0 33.5 -13t10 -30t-8 -31t-20.5 -16q-10 -1 -14 10t-14 11q-6 0 -16 -9q-25 -21 -41 -49
t-20.5 -53.5t5 -42.5t35.5 -17q18 0 49 12.5t65 31t61.5 37t38.5 31.5z" />
    <glyph glyph-name="d" unicode="d" horiz-adv-x="320" 
d="M82 198q8 13 7 24.5t-1 25.5q-1 21 -9 21q-4 0 -9.5 -6t-12.5 -14q-15 -19 -34.5 -51t-35 -66t-19.5 -59q-1 -11 3 -11q5 0 16.5 12t24 28t22 28.5l9.5 12.5q11 13 21 27t18 28zM327 506l-4 -4q-25 -44 -42 -91.5t-34 -92.5q-33 -87 -62.5 -167.5t-58 -159.5t-57.5 -164
q-20 -56 -25.5 -70.5t-2.5 -13.5q8 3 19 15.5t32 33.5q1 2 2 2h1q3 0 -1 -14.5t-18 -37.5q-1 -3 -10.5 -16.5t-23 -32.5t-27.5 -37t-24.5 -29.5t-13.5 -10.5q-7 2 -10 9.5t-2 15.5q54 157 110.5 313.5t112.5 313.5q5 16 6.5 22t0.5 6q-2 0 -11.5 -17t-16.5 -27
q-10 -15 -28.5 -42.5t-41.5 -59.5t-47 -62.5t-45.5 -52t-37.5 -26.5q-7 -3 -14 -3q-15 0 -24.5 11.5t-14.5 27t-5 28.5q0 40 16.5 83t41.5 79.5t53.5 59t53.5 22.5q19 0 32 -13q12 -12 17 -20.5t9 -8.5q5 0 13.5 11.5t26.5 40.5q31 50 61.5 98.5t51.5 101.5q9 19 16.5 38
t15.5 38q47 120 99 243t110 237q4 9 13.5 26t22.5 31t25 14q3 0 5 -1q13 -4 10.5 -31t-15.5 -68.5t-31.5 -88t-38 -89.5t-34.5 -74.5t-20 -40.5q-31 -65 -66.5 -128.5t-69.5 -126.5zM434 790q-2 -4 -2 -5.5v-1.5l5 10t9.5 20l4.5 10q5 11 16 34.5t23 50t21 48.5t11 31
q-1 0 -9.5 -18t-20.5 -45.5t-24.5 -56t-22 -50t-11.5 -27.5z" />
    <glyph glyph-name="e" unicode="e" horiz-adv-x="279" 
d="M47 195q-5 -31 8.5 -40t33.5 -9q38 0 72 17.5t64 44t52 53.5q9 12 20 12q9 0 14.5 -8.5t1.5 -16.5q-10 -26 -36 -51t-59.5 -45.5t-68 -33t-62.5 -12.5q-44 0 -69.5 23t-30.5 58.5t13 76t60 74.5q11 9 22.5 13t22.5 4q24 0 38.5 -17t5 -47.5t-57.5 -68.5
q-21 -16 -31.5 -18t-12.5 -9zM116 310q1 2 -12.5 -5t-27.5 -21t-16 -32q7 4 18.5 15t22.5 23t15 20zM117 314q-1 0 0.5 0t-0.5 0z" />
    <glyph glyph-name="f" unicode="f" horiz-adv-x="296" 
d="M214 511q-2 0 -3 -1l-1 -1q-26 -11 -54 -47t-55 -87t-51 -103q20 24 46.5 55t52 63.5t45.5 60t28.5 44.5t-1.5 17h-1.5h-1.5q-1 -1 -4 -1zM23 215q-16 -38 -29 -69.5t-23 -49.5q-7 -17 -8 -24t4 -7q6 0 27 13q48 28 101.5 58t105.5 63t94 68q4 4 11 4q10 0 14 -7
q6 -7 5 -14.5t-6 -12.5q-41 -35 -96 -69.5t-111 -66l-104 -58.5q-34 -18 -51.5 -28t-26 -20t-16 -28.5t-22.5 -53.5q-54 -131 -111 -265.5t-107 -267.5q-11 -32 -19.5 -66t-18.5 -66q-18 -60 -50 -122t-64 -116q-11 -20 -22 -20q-12 0 -11 32q0 13 6.5 32.5t14.5 38.5t12 33
q22 54 45 113t41 115q11 30 18 75t10.5 91t1.5 78q-2 43 -11 82t-25 78q-12 28 -13.5 45.5t8.5 33t33 36.5q20 17 42 31.5t44 28.5q31 19 60 36t60 34q30 17 43.5 33.5t21.5 37t21 49.5q13 27 34.5 72t49 97.5t58.5 103t62.5 89t60.5 54.5q13 8 27 8q4 0 8 -0.5t7 -1.5
q26 -4 24 -33q-1 -8 -4.5 -19t-10.5 -24q-23 -41 -79.5 -107.5t-135.5 -146.5zM-156 -53q8 19 3 19q-3 0 -9 -4t-14 -8q-62 -34 -101 -59t-59 -47.5t-22 -50t11 -65.5q14 -43 17.5 -89.5t3.5 -91.5q0 -18 2 -18q1 0 8 20q40 101 79.5 198.5t80.5 195.5z" />
    <glyph glyph-name="g" unicode="g" horiz-adv-x="487" 
d="M271 441q7 -5 7.5 -12.5t-4.5 -14.5q-6 -7 -15 -7q-8 0 -12 4q-15 12 -31 12q-20 0 -42 -16.5t-42 -41.5t-40.5 -61t-35.5 -74t-19 -69q-1 -17 5 -17q5 0 12.5 7.5t12.5 13.5q32 33 60.5 72t54.5 77q5 8 21 8q14 0 27 -7t9 -18q-20 -62 -41 -123.5t-44 -123.5
q-8 -21 -1 -21q3 0 9 3.5t14 7.5q60 32 111.5 63.5t99.5 69t96 86.5q10 10 20 10t15 -10.5t-1 -18.5q-6 -9 -21.5 -24.5t-35.5 -32.5t-37.5 -31l-27.5 -22q-61 -45 -121 -79.5t-127 -68.5q-23 -11 -29.5 -28.5t-14.5 -41.5q-33 -92 -77.5 -197t-94.5 -213.5t-100.5 -211.5
t-94.5 -191q-3 -6 -13.5 -25t-26 -43.5t-33 -48t-34.5 -39t-30 -15.5q-8 0 -14 8.5t-8 28.5q-3 23 1 57t10.5 67.5t10.5 57.5q17 90 35 179.5t35 180.5q5 30 13 71t19.5 86.5t27.5 88.5t38 76t51 49l3 2q23 12 52.5 25.5t63.5 29.5q22 10 46 20.5t46 20.5q27 13 39.5 28.5
t18.5 34.5t16 45q8 22 15.5 43.5t14.5 43.5q7 20 4 20q-2 0 -16 -17q-22 -28 -48.5 -50t-46.5 -22q-23 0 -33 30q-11 35 -5 79t25 89.5t47.5 83.5t63.5 61.5t72 23.5q19 0 37.5 -6.5t37.5 -21.5zM-314 -884q97 194 185 391t166 399q7 17 5.5 23.5t-7.5 6.5q-7 0 -19 -6
t-23 -12q-10 -4 -20 -9t-20 -9q-34 -16 -63 -29.5t-51 -25.5q-29 -16 -50.5 -54t-36 -85.5t-23.5 -93t-15 -75.5q-15 -73 -28.5 -147t-28.5 -147q-13 -61 -26.5 -125t-21.5 -126q-4 -24 0 -24q3 0 9 12l11 22q14 27 28 54.5t27 54.5z" />
    <glyph glyph-name="h" unicode="h" horiz-adv-x="566" 
d="M348 1154q2 7 9 9.5t16 2.5q14 0 26 -7t8 -18q-8 -22 -29.5 -75.5t-51 -127.5t-64 -160t-69 -174.5t-66 -170t-54.5 -146.5q-10 -26 -5 -26q4 0 17.5 16.5t34 37.5t43 37.5t44.5 16.5q16 0 31 -13t25 -46q17 -54 29.5 -90t26.5 -54t37 -18q29 0 78 29t134 88q4 4 12 4
q11 0 15 -7q4 -6 3 -14t-6 -12q-70 -58 -131.5 -91t-108.5 -33q-41 0 -70 27.5t-43 88.5q-8 38 -21 53.5t-30 15.5q-21 0 -46 -21t-49.5 -53.5t-46 -67t-37 -62.5t-20.5 -40q-8 -19 -16 -27.5t-15 -8.5q-11 0 -17 21t0 47q11 48 36 123t59.5 166.5t73 189.5t77 192.5
t72 175.5t57 139.5t32.5 82.5z" />
    <glyph glyph-name="i" unicode="i" horiz-adv-x="331" 
d="M103 111l9 1q37 10 78 35t78.5 56t64.5 58q6 5 14 5t12 -5q12 -14 0 -26q-21 -22 -53.5 -49t-71 -52t-78 -41t-75.5 -16q-13 0 -27 3q-28 8 -44 40t-20 73.5t3 77.5q3 17 15.5 30.5t24.5 13.5q10 0 16.5 -12.5t1.5 -43.5q-5 -40 -5 -74t10 -55t33 -21q3 0 6.5 0.5
t7.5 1.5zM61 483h1.5h1.5q24 0 33 13.5t5 27t-20 13.5q-3 0 -11 -2q-11 -4 -21.5 -16.5t-10 -23.5t21.5 -12z" />
    <glyph glyph-name="j" unicode="j" horiz-adv-x="321" 
d="M-13 51q-8 -24 -1 -24q4 0 10.5 3.5t15.5 8.5q84 46 163 98.5t144 123.5q6 6 15 6q6 0 13 -5q5 -5 5.5 -13.5t-4.5 -13.5q-71 -77 -166.5 -140t-189.5 -109q-22 -11 -31.5 -21.5t-14 -24.5t-13.5 -37q-77 -203 -168 -409.5t-189 -399.5q-4 -8 -16.5 -27.5t-29 -43.5
t-35 -46.5t-36 -37.5t-30.5 -15q-8 0 -14 9q-7 12 -6.5 43.5t6.5 74t14.5 90t18 92t17 79.5t10.5 53q9 46 20 109.5t25.5 130.5t34 126t45.5 96q26 36 55 50.5t67 32.5q38 17 75 34t74 35q21 11 31 23.5t15 28.5t13 37q3 8 12 34.5t21 61t23.5 68t19.5 56t9 23.5q6 8 23 8
q14 0 25 -7t7 -23q-20 -59 -40.5 -119t-42.5 -119zM114 518h1.5h1.5q25 0 34.5 14t5 28.5t-20.5 14.5q-3 0 -6 -0.5t-6 -1.5q-12 -4 -23 -17t-10 -25t23 -13zM-127 -86q10 24 4 24q-2 0 -21 -8.5t-46.5 -21t-55 -25.5t-48.5 -23t-26 -13q-30 -15 -49 -43t-31.5 -60.5
t-21.5 -62.5q-18 -65 -31 -137t-26 -140q-8 -42 -16.5 -84.5t-16.5 -85.5q-2 -10 -8 -39t-13.5 -66t-14.5 -73t-10.5 -61.5t-2.5 -31.5q3 1 19 30t39 75.5t49 99.5t50 103t40.5 85.5t21.5 45.5q58 127 111.5 254.5t103.5 257.5z" />
    <glyph glyph-name="k" unicode="k" horiz-adv-x="404" 
d="M455 1209q-85 -181 -167 -368t-157 -373q-39 -93 -59.5 -141.5t-27 -66.5t-3.5 -18q1 0 7 6q10 12 30.5 34t45 44.5t48 38.5t39.5 16q19 0 24 -17.5t-4 -31.5q-23 -36 -48 -64.5t-51 -62.5q-20 -29 -10 -51t41 -22q7 0 14.5 1t15.5 4q61 20 107.5 43.5t91.5 59.5
q8 5 15 5q8 0 14 -6q11 -15 -3 -29q-74 -52 -146 -83t-121 -31q-41 0 -59.5 24t-3.5 76q8 33 1 33q-5 0 -16 -12.5t-23 -30.5t-21 -33q-8 -14 -14 -23.5t-13 -19.5q-5 -9 -13 -15.5t-15 -6.5q-8 0 -12 8.5t-3 29.5q2 27 9.5 57t15.5 55.5t13 40.5q41 108 90 228.5t102 245
t107 244t103 223.5q4 9 11 12.5t15 3.5q13 0 24 -8.5t6 -18.5z" />
    <glyph glyph-name="l" unicode="l" horiz-adv-x="123" 
d="M488 1359q4 7 14 9q2 1 7 1q6 0 9 -2q8 -4 10 -13q3 -10 -1 -17q-97 -171 -178.5 -341t-148.5 -329q-58 -141 -104 -268t-80 -233t-54 -183q-5 -21 -10 -40t-8 -36q-4 -17 -7 -31t-4 -25q-1 -5 1 -5q4 0 15.5 13.5t25 32.5t25.5 35t17 22q2 2 5 2q5 0 7 -10t-6 -26
q-3 -6 -16.5 -25t-30.5 -41.5t-31.5 -39.5t-20.5 -19q-5 -2 -9.5 -2.5t-8.5 -0.5q-2 1 -4.5 2t-4.5 3q-2 1 -3.5 4l-2.5 5q-7 15 -2 56q5 35 13 69.5t17 67.5q21 78 55 185t80.5 235t105.5 270q67 160 148.5 331t179.5 344z" />
    <glyph glyph-name="m" unicode="m" horiz-adv-x="673" 
d="M525 150h-3h-2q-39 0 -66 18.5t-46 46.5t-36 57q-3 5 -5 5l-10 -13q-10 -15 -22 -40t-26 -46.5t-30 -27.5q-6 -3 -11 -3q-8 0 -14 3q-16 9 -29.5 29.5t-24 45.5t-19.5 48t-16.5 37t-15.5 13q-8 -2 -21 -25.5t-28 -54t-27.5 -57.5t-18.5 -37q-5 -11 -12.5 -24.5
t-20.5 -19.5q-8 -5 -18 -5q-15 0 -28.5 9t-13.5 23q0 24 8.5 59t21.5 69t24 57q10 20 31 20q13 0 23 -9t6 -22q0 -1 -5.5 -15t-12.5 -32.5t-12.5 -32.5t-4.5 -14l0.5 1l1.5 3q23 46 44.5 83t42 59.5t40.5 22.5q15 0 29.5 -14.5t28.5 -45.5q4 -11 9.5 -30t11.5 -40
t11.5 -37.5t10.5 -22.5q2 -2 3 -2q5 0 10.5 11t9.5 22.5t6 14.5q15 43 34.5 66t42.5 23q24 0 47 -27q8 -7 16.5 -24t14.5 -26q24 -34 45.5 -48t43.5 -14q29 0 58.5 20.5t63.5 49.5q5 5 11.5 8.5t13.5 3.5q9 0 13 -9q6 -10 -0.5 -19.5t-16.5 -17t-16 -12.5q-28 -23 -69.5 -41
t-75.5 -20z" />
    <glyph glyph-name="n" unicode="n" horiz-adv-x="528" 
d="M167 334q13 -3 28 -17t29.5 -33.5t26 -39t18.5 -31.5q16 -28 38 -51.5t56 -23.5q29 0 60 22t58 50.5t44 49.5q6 7 16 7q7 0 11 -4q6 -5 7 -13t-4 -14q-29 -36 -54 -63.5t-57 -45.5t-83 -25q-6 -1 -11.5 -1.5t-10.5 -0.5q-36 0 -61 16t-43 42t-32 56t-28 58q-13 25 -22 25
t-26 -25q-28 -39 -52.5 -86.5t-48.5 -90.5q-5 -10 -17 -15.5t-23 -5.5q-13 0 -21.5 7.5t-7.5 25.5q1 17 7 42.5t14.5 54t17.5 54t16 41.5q5 12 13.5 17.5t16.5 5.5q12 0 21.5 -8.5t8.5 -20.5q-1 -10 -6.5 -25.5t-10.5 -29t-5 -17.5q2 0 8.5 10t15 23t16 24t10.5 15
q11 15 25.5 28.5t33.5 13.5q2 0 4 -0.5t4 -0.5z" />
    <glyph glyph-name="o" unicode="o" horiz-adv-x="481" 
d="M231 190q-1 -13 5 -14.5t20 -2.5q20 -3 38 -3q54 0 103 25t84 66q7 7 15 7q6 0 13 -5q6 -5 6.5 -13t-4.5 -14q-42 -50 -99.5 -77t-121.5 -27q-14 0 -28 2t-29 6h-1.5h-1.5q-7 0 -9.5 -8t-6.5 -16q-17 -41 -56.5 -65t-83.5 -24q-38 3 -59.5 29t-30 62t-4.5 68
q4 44 23.5 84t52.5 69q15 13 19.5 17.5t7.5 10t12 20.5q9 14 22.5 20.5t27.5 6.5q19 0 37 -11t26 -31q11 -24 16.5 -56.5t6.5 -65.5t0 -60zM152 162l-4 5q-14 13 -24 20t-24 27q-14 22 -17.5 36t-8.5 38q-3 9 -6 9q-4 0 -8.5 -7t-7.5 -12q-16 -27 -27 -63.5t-8 -72.5t29 -62
q15 -15 35 -15q23 0 43 18t29 41.5t-1 37.5zM164 200l4 -2q4 0 4 8v13v35t-2.5 46.5t-7.5 44.5t-15 28q-3 3 -7 3q-6 0 -12 -9t-10 -19.5t-5 -15.5q-9 -37 6.5 -73t44.5 -59z" />
    <glyph glyph-name="p" unicode="p" horiz-adv-x="315" 
d="M45 239q-2 -5 -9.5 -22.5t-16.5 -41.5t-17.5 -46.5t-14 -38.5t-4.5 -17q12 16 29.5 43.5t32.5 45.5q7 9 21 28.5t33 42.5t39 44q28 28 49 39.5t36 11.5q26 0 34 -28t-0.5 -69t-31.5 -80q-15 -29 -34 -52.5t-35 -40.5q-33 -34 -60.5 -45.5t-50.5 -14.5t-40 -10t-28 -32
q-64 -121 -126.5 -248t-111.5 -254q-27 -72 -54 -140.5t-55 -129.5q-4 -12 -21 -12q-13 0 -23 7.5t-6 18.5q72 173 145 356.5t143 366.5t132 356q5 15 25 15q13 0 21.5 -12t-1.5 -41zM172 256q-10 -10 -30 -34.5t-44 -55t-46 -59t-35 -48t-10 -20.5q12 -5 21 -5
q28 0 61 22.5t63 57.5t50 74.5t22 73.5q2 14 -1 19.5t-7 5.5q-9 0 -22 -11.5t-22 -19.5z" />
    <glyph glyph-name="q" unicode="q" horiz-adv-x="280" 
d="M241 319q5 -7 3.5 -15t-8.5 -12q-4 -3 -11 -3q-10 0 -16 9q-3 4 -22 17.5t-39 13.5q-12 0 -22 -7q-16 -13 -36 -36.5t-39.5 -51.5t-34 -55.5t-17.5 -47.5q-3 -11 4 -11q8 0 25.5 16.5t39.5 40.5t43 49t35.5 43t16.5 21q4 8 12 8q11 0 20.5 -10.5t8.5 -14.5
q-2 -8 -12 -39.5t-25 -77.5t-32 -99.5t-33.5 -105.5t-30 -94.5t-22 -68.5l-8.5 -26q0 -2 3 -2q9 0 27 10.5t38.5 25.5t38 30t26.5 24q6 7 14 7q6 0 13 -5q5 -5 5.5 -13.5t-4.5 -12.5q-33 -35 -66.5 -59t-76.5 -42q-24 -9 -35.5 -24t-18 -35t-15.5 -43q-37 -110 -80.5 -219.5
t-84.5 -218.5q-3 -9 -12.5 -22.5t-22 -24t-25.5 -10.5q-3 0 -9 2l-1 2q-5 3 -7.5 8.5t-1.5 10.5q1 25 8.5 61t16.5 72t14 63q9 45 16.5 96t8 102t-12.5 96q-12 35 -1.5 51.5t47.5 22.5q17 3 40.5 5.5t46 8t34.5 17.5l3 3q7 7 14 26t13.5 38.5t9.5 30.5q25 70 49.5 140
t47.5 141q12 36 8 36q-2 0 -34 -30q-9 -7 -24 -19.5t-32 -22.5t-32 -10q-11 0 -17 5q-22 16 -22.5 46t12.5 66.5t34.5 72t44.5 62t42 36.5q13 7 26.5 10.5t26.5 3.5q26 0 47.5 -10.5t37 -25.5t22.5 -26zM-56 -330q3 14 1 18t-8 4q-5 0 -11 -1t-13 -3q-8 -2 -26 -4t-34.5 -6
t-19.5 -11q-3 -4 -0.5 -15t6 -22.5t4.5 -17.5q7 -50 4.5 -92t-10 -84t-14.5 -89q-3 -16 0 -16q1 0 5 11t5 17q27 73 52.5 145.5t51.5 145.5q3 5 4 10.5t3 9.5z" />
    <glyph glyph-name="r" unicode="r" horiz-adv-x="239" 
d="M31 166q-21 -30 -35 -55t-30 -59q-5 -12 -14.5 -17t-19.5 -5q-14 0 -24.5 9.5t-4.5 24.5q5 10 18 39.5t29 67.5t32 74.5t27.5 61.5t14.5 28q7 7 19 7q13 0 24.5 -10t6.5 -26q-8 -23 -12 -33t-2 -10t13.5 10t36.5 24q10 5 19 5q23 0 48 -12.5t45 -12.5q16 0 24 11
q7 7 15 7q9 0 14.5 -8t5 -17.5t-12.5 -16.5t-22.5 -10t-20.5 -3q-23 0 -42 10.5t-40 10.5q-14 0 -30.5 -8.5t-36.5 -30.5q-14 -14 -25 -28t-20 -28z" />
    <glyph glyph-name="s" unicode="s" horiz-adv-x="288" 
d="M39 63q1 -16 7 -16q4 0 11 7.5t15 14.5q6 6 28.5 27t52.5 48.5t60 54t51.5 45t25.5 19.5q2 1 4 1.5t4 0.5q10 0 15.5 -11t-8.5 -26q-16 -15 -37 -33.5t-39 -33.5q-38 -35 -77.5 -68t-75.5 -69q-24 -24 -31.5 -43t-10 -39.5t-12.5 -49.5q-14 -40 -43 -78t-66 -70t-74 -55
q-11 -6 -26.5 -12t-30.5 -6q-13 0 -22.5 6.5t-11.5 23.5q-3 17 8 40t29 47t36.5 44.5t29.5 33.5q25 28 51 55.5t53 55.5q21 21 25 38t1 36t-4 46q0 25 2 58t8.5 67t19.5 64q23 55 54 77.5t60 22.5q27 0 48 -15.5t30.5 -39.5t0.5 -50q-3 -10 -10 -14t-14 -4q-8 0 -13 4.5
t-2 13.5q6 19 -4.5 39.5t-30.5 20.5q-14 0 -29.5 -13.5t-29.5 -47.5q-13 -30 -19.5 -68t-8.5 -77t0 -72zM-26 -66q2 9 -1 9t-10.5 -9t-10.5 -12q-2 -3 -17.5 -19.5t-36.5 -40t-43.5 -49.5t-39.5 -48.5t-23 -36.5t4 -14q12 0 30.5 13t36 29t26.5 25q29 33 52 71t33 82z" />
    <glyph glyph-name="t" unicode="t" horiz-adv-x="141" 
d="M-124 -180q-16 5 -14 23q6 25 14 53t17 60q29 116 61 213t59 173q30 87 47.5 146.5t9.5 87.5q-8 26 -45 26q-28 0 -81 -15v2l-7 -2q-20 0 -24 16q-1 7 3 13.5t11 7.5q19 4 49 10.5t63.5 14t63.5 13.5t48 10q24 5 31 15.5t18 33.5q3 5 11 20.5t17 33.5t17 32t11 16
q7 7 17 7q14 0 24 -16.5t-4 -40.5q-4 -7 -12 -22t-15 -30t-8 -22q-3 -8 12 -8h6h5q27 4 63.5 8.5t73.5 8t64 3.5q7 0 13 -5.5t6 -12.5q0 -8 -6 -13.5t-13 -5.5q-29 0 -73 -4.5t-88 -10t-73 -10.5q-19 -3 -25 -15t-13 -28q-47 -104 -89.5 -194t-80.5 -178t-71.5 -185.5
t-61.5 -214.5q-1 -7 -9 -11t-16 -4q-4 0 -6 1zM35 349q26 67 55 131.5t57 129.5q5 13 6 17.5t-4 4.5q-6 0 -19 -3q-11 -2 -30 -6.5t-41 -8.5q12 -4 18 -12t10 -19q9 -32 -7 -91t-45 -143z" />
    <glyph glyph-name="u" unicode="u" horiz-adv-x="475" 
d="M195 154q-3 15 -7 15t-15 -13q-15 -16 -37.5 -39t-49 -41t-51.5 -18q-15 0 -27 8q-21 14 -27 44.5t-2.5 67t12.5 69.5t17 51q4 7 12 10.5t16 3.5q14 0 25 -8t6 -23q-2 -7 -10.5 -28t-17 -47.5t-13.5 -52t-2 -42t19 -16.5q5 0 8 1q23 6 46 26.5t44.5 48.5t38 56.5
t27.5 48.5q5 7 11 16.5t16 9.5q2 0 8 -2q14 -8 21.5 -22.5t5.5 -25.5q-18 -71 -7 -100t37 -29q25 0 57 19t63 48.5t51 60.5q4 6 10 11.5t14 5.5q6 0 13 -6q7 -8 3 -19t-11.5 -21t-12.5 -17q-52 -64 -105 -96t-97 -32q-34 0 -57.5 19.5t-31.5 57.5z" />
    <glyph glyph-name="v" unicode="v" horiz-adv-x="410" 
d="M179 293q4 7 10 16.5t16 9.5q1 0 2 -0.5t2 -0.5l6 -3q7 -5 9 -21.5t4 -25.5q10 -34 29.5 -55t50.5 -21q17 0 35 7q24 9 39 26t25.5 31t21.5 14q14 0 15.5 -12t-3.5 -22q-21 -39 -59.5 -60.5t-81.5 -21.5q-36 4 -56.5 21t-39.5 46q-6 10 -8 10t-8 -10q-6 -11 -12.5 -25
t-12.5 -26q-6 -10 -19 -32.5t-31 -46.5t-38 -41.5t-38 -17.5q-15 0 -28 16q-11 15 -16.5 41.5t-7 57t0.5 58.5t6 46q2 11 5.5 23t11.5 18q4 4 14 4q13 0 25.5 -7t11.5 -18q-3 -22 -8 -42.5t-8 -42.5q-1 -6 -2.5 -21.5t-2.5 -34t-0.5 -33t4.5 -17.5q2 -2 5 -2q10 0 25 19.5
t32 49.5t33 61t27 54.5t14 30.5z" />
    <glyph glyph-name="w" unicode="w" horiz-adv-x="529" 
d="M143 141l-5 3q-18 14 -17 27t-2 13t-30 -26q-4 -4 -18.5 -15.5t-33 -24.5t-37.5 -22.5t-33 -9.5q-17 0 -20 18q-2 20 8 53t26.5 70t32.5 70t26 52q4 7 13.5 12.5t20.5 5.5t16 -5q11 -10 3 -26t-14 -27q-2 -5 -13 -25t-24.5 -47.5t-26 -53.5t-19.5 -43t-3 -17q7 2 24 18
t37.5 38t41.5 43.5t38 35.5t24 14q15 -1 20 -11.5t4.5 -26.5t-2 -31.5t1.5 -25.5q1 -4 6 -4q6 0 15.5 6t18.5 12.5t11 8.5q22 23 33 43t27 44q12 16 21 16q14 0 20 -24q6 -21 11.5 -37.5t16.5 -26t35 -9.5q3 0 6 0.5t7 0.5q33 4 59.5 19.5t52.5 34.5l5 4q5 4 13 4
q13 0 18.5 -12t-10.5 -25q-29 -24 -69 -44t-78 -20q-26 0 -49.5 11.5t-40.5 39.5q-4 7 -8 7q-3 0 -6.5 -5t-7.5 -12q-10 -15 -30 -32t-44 -29.5t-47 -12.5q-13 0 -25 6z" />
    <glyph glyph-name="x" unicode="x" horiz-adv-x="318" 
d="M101 199q12 -8 24.5 -11.5t25.5 -3.5q31 0 62.5 15t59.5 36.5t49 39.5q9 6 16 6q11 0 15.5 -10.5t-6.5 -21.5q-16 -16 -41 -34t-52 -33t-49 -22q-3 -2 -5.5 -3t-6.5 -2q-11 -3 -21 -4t-19 -1q-28 0 -46.5 8t-29.5 16t-18 8q-2 0 -3 -1q-11 -7 -27.5 -28.5t-35 -52
t-36 -63.5t-29.5 -62q-7 -17 -20 -17q-9 0 -15 10t-1 24q27 68 57.5 118t65.5 100q7 14 3 22t-9 23q-1 6 -4 20t-4.5 29t2 26t13.5 11h2h2q12 -2 14 -15t2 -29.5t8 -30.5q6 4 18.5 18t25 29t20.5 22t21 20t26 13h1.5h1.5q11 -1 18.5 -11.5t0.5 -18.5q-17 -18 -31 -34
t-31 -35l-12 -15t-14 -20t-4 -17q1 -5 6 -10t10 -8z" />
    <glyph glyph-name="y" unicode="y" horiz-adv-x="551" 
d="M279 375q11 -12 19 -25.5t3 -24.5q-15 -40 -23.5 -65.5t-14 -44.5t-11 -37.5t-14 -44t-23.5 -64.5q-9 -27 -3 -27q4 0 10 4t16 9q80 47 150 92t143 100q5 4 9 7.5t8 6.5q5 4 12 4q8 0 14 -8q6 -6 4.5 -14.5t-7.5 -12.5q-83 -63 -176 -124.5t-186 -108.5
q-25 -12 -31 -28.5t-16 -41.5q-84 -224 -173 -447l-178 -446q-2 -6 -12.5 -27t-26 -48.5t-32.5 -54t-32.5 -44t-25.5 -17.5q-4 0 -7 3q-7 8 -3.5 42t13 80.5t21 94.5t21.5 86t14 53q30 123 59.5 245.5t52.5 247.5q9 48 15.5 85t19.5 66t39 53.5t73 49.5q16 8 33 15.5
t34 15.5q27 13 41.5 21t21.5 17t12.5 24.5t16.5 43.5q9 25 15 39.5t10 25.5t10 25.5t15 39.5q10 27 6 27q-3 0 -17 -24q-38 -68 -74 -98.5t-64 -30.5q-31 0 -49.5 30.5t-18.5 83t25 118.5q8 14 14 31q3 7 15 14.5t25 7.5q9 0 16 -5q8 -6 6 -17.5t-7.5 -24t-7.5 -20.5
q-29 -76 -29.5 -127.5t22.5 -51.5q13 0 34 21.5t48 68.5q16 27 25.5 45.5t17.5 34.5t17.5 34.5t24.5 44.5q6 9 17 9q5 0 11.5 -2.5t12.5 -9.5zM100 -70q10 25 6 25t-22 -9q-47 -23 -79 -40t-53 -37.5t-34 -53.5t-22 -89q-16 -108 -42.5 -223.5t-53.5 -222.5
q-7 -26 -16.5 -60.5t-19.5 -70t-18 -66t-12 -49.5t-1 -19q2 0 8.5 13t19.5 42q92 212 174 428t165 432z" />
    <glyph glyph-name="z" unicode="z" horiz-adv-x="388" 
d="M165 188q-1 -1 -10.5 -9t-20.5 -18t-16.5 -17t1.5 -7q6 0 28 5.5t49.5 13.5t51.5 15t34 10l7 2q7 1 25 5.5t37.5 8t28.5 3.5h2h2q8 -2 12.5 -9.5t0.5 -16t-21 -13.5q-19 -5 -41.5 -9t-42.5 -9q-29 -8 -69 -18t-80.5 -17.5t-68.5 -7.5q-22 2 -26.5 13t2 26t17 29t17.5 22
q3 3 16 15.5t29.5 29t31.5 33t23 28.5t3 15q-6 3 -14 3q-14 0 -33.5 -6.5t-37 -15t-26.5 -14.5q-5 -2 -9 -4.5t-8 -4.5q-6 -5 -15.5 -11t-17.5 -6q-9 0 -15 13q-4 11 4.5 19.5t20.5 15t19 10.5q12 7 32.5 17t43.5 18t44 8q15 0 27 -6t19 -20q12 -26 4 -52.5t-26 -49.5
t-34 -37z" />
    <glyph glyph-name="braceleft" unicode="{" horiz-adv-x="303" 
d="M446 901q8 0 13.5 -6.5t4.5 -13.5q-1 -8 -7 -13.5t-14 -4.5q-6 1 -12 1h-12q-30 0 -52 -8t-35 -28q-18 -26 -25.5 -75t-4.5 -128q1 -92 -35 -145q-22 -32 -47 -53.5t-54 -46.5q-7 -6 -6 -12t2 -17q1 -29 -4 -60t-12 -59l-2 -6q-5 -16 -16 -41t-24 -54q-19 -41 -38.5 -87
t-32 -89t-8.5 -73q2 -20 16 -32t44 -12h9t10 1q8 1 14.5 -4t7.5 -13t-4 -14t-13 -7t-14.5 -1.5t-13.5 -0.5q-46 0 -68 21.5t-26 56.5q-4 36 8.5 82.5t33 95.5t40.5 92q18 39 30 69.5t18 63t6 76.5q0 26 9 40.5t23.5 25.5t32.5 27q26 23 47 53q16 23 23 52t5 70
q-2 86 6.5 140t30.5 86q20 28 49 40t69 12h14t14 -1z" />
    <glyph glyph-name="bar" unicode="|" horiz-adv-x="285" 
d="M-19 -184l369 1096q5 13 19 13q4 0 6 -1q8 -2 11 -9t1 -15l-369 -1096q-5 -13 -19 -13q-4 0 -6 1q-8 2 -11 9t-1 15z" />
    <glyph glyph-name="braceright" unicode="}" horiz-adv-x="344" 
d="M-70 -204q-8 1 -13.5 7t-4.5 14q1 7 6.5 12.5t13.5 5.5q7 -1 13 -1h12q30 0 51.5 8t35.5 28q18 26 25.5 75t4.5 128q-2 48 7 81.5t28 62.5q22 31 50 56.5t57 50.5q-2 0 -2 3q-2 13 -0.5 35.5t5 45t6.5 36.5q1 7 3 13.5t4 13.5q4 17 15 42t25 54q18 41 38 87t32 89t9 73
q-2 20 -16 32t-44 12h-9.5t-9.5 -1q-19 0 -22 17q-1 8 4.5 14t12.5 7t13.5 1.5t12.5 0.5q47 0 69.5 -21.5t26.5 -57.5q5 -36 -8 -82.5t-34 -95t-41 -91.5q-13 -29 -23.5 -52.5t-14.5 -37.5q-8 -29 -11 -47.5t-3.5 -37t-0.5 -47.5q1 -26 -17 -40t-36 -30q-18 -15 -32 -29.5
t-27 -33.5q-16 -23 -22.5 -52t-5.5 -70q2 -86 -6.5 -140t-30.5 -86q-21 -29 -50 -41t-69 -12h-13.5t-13.5 1z" />
    <glyph glyph-name="asciitilde" unicode="~" horiz-adv-x="570" 
d="M83 181q-6 5 -6.5 13t4.5 13q6 8 15 8q7 0 12 -5q22 -19 42.5 -26.5t38.5 -7.5q22 0 42.5 7.5t41.5 16.5q27 12 55.5 22.5t61.5 10.5q37 0 78 -17q8 -3 10.5 -10.5t-0.5 -14.5q-5 -12 -17 -12q-2 0 -4 0.5t-4 1.5q-33 13 -63 13q-28 0 -53 -9t-48 -19q-25 -11 -50 -20.5
t-51 -9.5q-24 0 -50 10t-55 35z" />
    <glyph glyph-name="uni007F" 
 />
    <glyph glyph-name="exclamdown" unicode="&#xa1;" horiz-adv-x="359" 
d="M134 -167q-6 -19 -26 -19q-6 0 -9 1q-10 3 -16 13.5t-1 21.5q25 79 45.5 139t39.5 114q18 53 37 107t39.5 119.5t45.5 151.5q6 19 26 19q5 0 8 -1q11 -2 16.5 -12.5t2.5 -21.5q-25 -87 -46 -152t-40 -120t-37 -108q-20 -54 -40 -114.5t-45 -137.5zM391 675q-3 1 -6 1.5
t-6 0.5q-18 0 -29.5 -15t-15.5 -34.5t0.5 -34.5t19.5 -15q6 0 9 1q10 3 20.5 16.5t16.5 30t5 30.5t-14 19z" />
    <glyph glyph-name="cent" unicode="&#xa2;" horiz-adv-x="571" 
d="M476 117q-55 -28 -124 -30v-97h-67v100q-100 15 -147 82.5t-47 189.5q0 248 194 278v84h68v-80q74 -3 132 -29l-26 -73q-70 26 -119 26q-82 0 -120.5 -51t-38.5 -154q0 -104 39 -151.5t116 -47.5q43 0 76 8.5t64 21.5v-77z" />
    <glyph glyph-name="sterling" unicode="&#xa3;" horiz-adv-x="511" 
d="M526 702q4 -4 5 -11t-3 -11q-4 -6 -13 -6q-5 0 -9 3q-20 16 -40 16q-27 0 -52 -33q-22 -28 -41.5 -70.5t-36 -87t-28.5 -78.5q-4 -12 -5 -16t4 -4q2 0 6 0.5t10 1.5q11 2 21 3.5t21 1.5q17 0 33.5 -4t34.5 -14q5 -3 7.5 -9t-1.5 -12q-5 -8 -14 -8q-6 0 -8 2
q-26 13 -55 13q-17 0 -33.5 -3.5t-33.5 -7.5q-9 -2 -11.5 -10t-5.5 -19q-8 -21 -16 -43t-16 -43q-17 -41 -35 -73t-47 -66q-7 -7 -5 -9.5t11 -10.5q31 -27 60.5 -39.5t70.5 -16.5q8 -2 16.5 -2.5t16.5 -1.5q45 0 83.5 12t74.5 40q8 7 15 7q10 0 13.5 -9.5t-2.5 -16.5
q-8 -9 -23.5 -19t-33 -18t-30.5 -12q-24 -8 -47.5 -11.5t-49.5 -3.5q-52 1 -98 15.5t-85 50.5q-8 7 -15 10t-14 3q-11 0 -23 -4t-28 -5h-1h-1q-21 0 -29.5 14t0 28t37.5 14q5 0 10 -0.5t10 -1.5q3 -1 5 -1h4q10 0 24 18t28 42.5t24.5 47t13.5 31.5q3 7 10.5 25.5t13.5 36
t6 22.5q0 6 -9 6q-11 -1 -19 -1.5t-15 -0.5t-15 1.5t-18 5.5q-15 5 -24.5 13.5t-20.5 19.5q-9 13 1 23q4 4 11 4q8 0 12 -7q15 -16 31 -22.5t35 -6.5q7 0 15.5 1t17.5 3q12 3 15 6.5t7 14.5q9 28 22.5 64.5t30.5 74.5t35 72t36 57l1 2q38 47 86 47q16 0 32.5 -5.5
t32.5 -18.5z" />
    <glyph glyph-name="currency" unicode="&#xa4;" horiz-adv-x="571" 
d="M90 353q0 57 35 110l-66 68l49 47l66 -64q49 35 112 35q59 0 110 -35l67 64l48 -47l-64 -67q35 -54 35 -111q0 -63 -35 -112l63 -66l-47 -47l-67 64q-50 -34 -110 -34q-64 0 -112 35l-66 -64l-48 47l65 66q-35 53 -35 111zM157 353q0 -54 37.5 -91.5t91.5 -37.5t92 37
t38 92q0 56 -38 93.5t-92 37.5t-91.5 -38t-37.5 -93z" />
    <glyph glyph-name="yen" unicode="&#xa5;" horiz-adv-x="571" 
d="M285 365l179 349h92l-201 -375h124v-64h-151v-82h151v-64h-151v-129h-86v129h-151v64h151v82h-151v64h122l-199 375h93z" />
    <glyph glyph-name="brokenbar" unicode="&#xa6;" horiz-adv-x="550" 
d="M239 760h73v-381h-73v381zM239 140h73v-381h-73v381z" />
    <glyph glyph-name="section" unicode="&#xa7;" horiz-adv-x="513" 
d="M67 395q0 42 21 75t58 51q-36 20 -56 47t-20 68q0 60 50.5 94.5t146.5 34.5q45 0 82 -7t89 -27l-27 -67q-47 19 -80.5 26t-69.5 7q-56 0 -82.5 -14.5t-26.5 -44.5q0 -27 28 -47.5t104 -47.5q89 -33 126 -70t37 -90q0 -88 -75 -133q74 -39 74 -110q0 -69 -57.5 -107
t-160.5 -38t-169 33v75q42 -19 88.5 -30t84.5 -11q62 0 96 18t34 53q0 30 -26 49t-103 49q-96 36 -131 72.5t-35 91.5zM142 405q0 -25 13 -43.5t43 -35.5t109 -47q64 37 64 91q0 40 -34 66.5t-123 54.5q-32 -9 -52 -33t-20 -53z" />
    <glyph glyph-name="dieresis" unicode="&#xa8;" horiz-adv-x="306" 
d="M104 965q-17 1 -19.5 11.5t4 22.5t17.5 16q3 1 6 1.5t6 0.5q16 0 22 -13t-1.5 -26t-29.5 -13h-3h-2zM218 966q-17 1 -19.5 11.5t4 22.5t17.5 16q3 1 6 1.5t6 0.5q16 0 22 -13t-1.5 -26t-29.5 -13h-3h-2z" />
    <glyph glyph-name="copyright" unicode="&#xa9;" horiz-adv-x="750" 
d="M611 684h-7h-7q-67 0 -131 -27.5t-120.5 -74t-101.5 -106t-74.5 -124t-39.5 -126.5q-7 -46 2.5 -88.5t40 -71t82.5 -32.5q9 -1 17.5 -1h16.5q103 0 185.5 33.5t141.5 90.5t92 126q22 46 35 100.5t11 109.5t-25 103q-20 42 -46 63.5t-72 24.5zM379 295q-14 -47 -11.5 -76
t28.5 -29q17 0 39 10.5t42.5 25t33.5 26.5q4 3 8 3q6 0 11 -5q3 -4 3 -9.5t-5 -8.5q-15 -12 -38 -28.5t-49 -28.5t-49 -12q-17 0 -31 8.5t-23 29.5q-10 21 -6 51t11 51q6 18 20.5 48t35 60t44 51t46.5 21q8 0 15 -4.5t9 -16.5q2 -10 -2 -23t-11 -13q-6 0 -12 10q-4 7 -7 7
q-4 0 -7.5 -3.5l-8.5 -8.5q-33 -29 -52.5 -62t-33.5 -74zM612 711q58 -5 96 -31.5t59 -68t26.5 -91t-0.5 -99.5q-12 -91 -53.5 -168t-106 -134.5t-146.5 -89.5t-175 -32h-16t-16 1q-113 9 -153.5 77.5t-19.5 172.5q13 64 45 130t79.5 125.5t106.5 106.5t125 74t136 27h6h7z
" />
    <glyph glyph-name="ordfeminine" unicode="&#xaa;" horiz-adv-x="356" 
d="M261 389l-12 42q-46 -48 -114 -48q-47 0 -75 24.5t-28 74.5t38.5 76t119.5 29l56 2v22q0 30 -19 44.5t-52 14.5q-49 0 -101 -26q-13 30 -22 49q60 29 125 29t98 -27t33 -86v-220h-47zM96 482q0 -48 54 -48q96 0 96 87v23l-48 -2q-54 -2 -78 -16t-24 -44z" />
    <glyph glyph-name="guillemotleft" unicode="&#xab;" horiz-adv-x="481" 
d="M154 340l296 191q4 3 8 3q10 0 18 -10t10 -21.5t-8 -17.5l-289 -185q-29 -19 -43.5 -28t-4.5 -24q9 -14 27 -32t43 -42q24 -23 54.5 -52.5t64.5 -67.5q5 -6 5 -14t-6 -13q-6 -6 -13 -6t-14 7q-34 38 -64 67t-53 51q-27 26 -46 45.5t-30 36.5q-22 32 -11.5 57t56.5 55z
M273 317l244 157q2 2 7 2q8 0 14.5 -8t8 -17.5t-6.5 -14.5l-238 -152q-24 -16 -36 -23.5t-4 -19.5q8 -11 22.5 -26t35.5 -35q20 -20 45 -44t53 -55q4 -5 4 -11.5t-5 -10.5q-5 -5 -11 -5t-11 5q-29 31 -53 55l-43 43q-23 22 -39 37.5t-24 29.5q-18 27 -9.5 47.5t46.5 45.5z
" />
    <glyph glyph-name="logicalnot" unicode="&#xac;" horiz-adv-x="571" 
d="M520 388v-260h-71v189h-399v71h470z" />
    <glyph glyph-name="uni00AD" unicode="&#xad;" horiz-adv-x="321" 
d="M40 229v78h242v-78h-242z" />
    <glyph glyph-name="registered" unicode="&#xae;" horiz-adv-x="832" 
d="M355 373h50q40 0 61.5 19.5t21.5 51.5q0 36 -20 51.5t-64 15.5h-49v-138zM565 446q0 -41 -21 -70.5t-57 -43.5l116 -194h-86l-100 173h-62v-173h-76v437h128q82 0 120 -32t38 -97zM49 357q0 98 48.5 183t134 134.5t184.5 49.5q98 0 183.5 -49t134.5 -134t49 -184
q0 -96 -47.5 -180.5t-132.5 -135.5t-187 -51q-101 0 -186.5 50.5t-133 135t-47.5 181.5zM102 357q0 -84 42 -157t115 -115t157 -42t157 42t115 115t42 157t-42 156.5t-115 115t-157 42.5t-156.5 -42t-115 -115t-42.5 -157z" />
    <glyph glyph-name="macron" unicode="&#xaf;" horiz-adv-x="339" 
d="M125 182q-15 0 -28 4t-15 22q-1 12 6.5 21t19.5 11q1 0 21.5 -1t50.5 -1.5t59 -0.5q18 0 33.5 0.5t26.5 1.5q3 1 6.5 1h6.5q8 0 15 -3t11 -10q6 -11 3 -22t-14 -17q-10 -4 -36.5 -5.5t-57.5 -1.5q-32 0 -62 0.5t-46 0.5z" />
    <glyph glyph-name="degree" unicode="&#xb0;" horiz-adv-x="428" 
d="M60 570q0 66 45 110t109 44q65 0 109.5 -45t44.5 -109t-45 -108.5t-109 -44.5q-63 0 -108.5 44t-45.5 109zM120 570q0 -39 28 -66.5t67 -27.5q40 0 66.5 28t26.5 66q0 39 -27 66.5t-66 27.5t-67 -27t-28 -67z" />
    <glyph glyph-name="plusminus" unicode="&#xb1;" horiz-adv-x="446" 
d="M38 -3q-11 0 -19.5 5.5t-9.5 17.5q-1 10 6 19t18 10q7 1 26 1h45h57.5h61.5q40 0 69 -1.5t40 -1.5h3h2q6 3 13 3q16 0 23 -13q5 -11 1.5 -21t-12.5 -15q-4 -2 -24.5 -3t-49.5 -1q-15 0 -31.5 0.5t-33.5 0.5h-60h-56h-44t-25 -1zM348 468q5 8 21 8q7 0 10 -2
q6 -4 11.5 -11t2.5 -13q-6 -11 -16 -33t-19 -45t-11 -36q9 -3 26 -3q12 0 23.5 0.5t19.5 1.5q16 0 32.5 0.5t32.5 0.5q7 0 12.5 -5t5.5 -12t-5.5 -12.5t-12.5 -5.5t-30.5 -0.5t-50.5 -1t-47.5 -2t-23.5 -3.5t-10.5 -19t-17 -40t-17.5 -42t-11 -26q-10 -24 -16.5 -38.5
t-7.5 -16.5q-7 -7 -21 -7q-11 0 -18 5q-6 6 -2.5 21t10 29t9.5 21q10 23 19.5 46t18.5 45q5 14 5.5 17.5t-7.5 3.5h-4.5h-5.5q-18 -1 -38 -2.5t-38 -2.5l-53 -2q-8 -1 -13 3.5t-5 12.5q-1 8 3.5 13t12.5 5l53 3q9 1 31.5 2t44 2t27.5 3q9 3 12 7.5t8 12.5q8 16 17 39t17 41
q3 9 7.5 19.5t8.5 18.5z" />
    <glyph glyph-name="uni00B2" unicode="&#xb2;" horiz-adv-x="350" 
d="M306 286h-282v54l115 112q62 60 79.5 87.5t17.5 61.5q0 32 -18.5 48t-48.5 16t-54.5 -11.5t-50.5 -31.5l-35 46q65 55 141 55q64 0 100.5 -32t36.5 -86q0 -22 -6 -41.5t-18.5 -39.5t-33 -42.5t-138.5 -133.5h195v-62z" />
    <glyph glyph-name="uni00B3" unicode="&#xb3;" horiz-adv-x="350" 
d="M308 613q0 -74 -74 -102q87 -21 87 -102q0 -62 -45 -96.5t-128 -34.5q-74 0 -131 28v63q69 -34 132 -34q100 0 100 76q0 69 -110 69h-57v55h57q50 0 73.5 19t23.5 51q0 29 -19 45t-51 16q-51 0 -111 -38l-36 46q36 27 71 38t75 11q66 0 104.5 -29.5t38.5 -80.5z" />
    <glyph glyph-name="acute" unicode="&#xb4;" horiz-adv-x="580" 
d="M189 618q19 23 47.5 66.5t47.5 81.5h106v-10q-21 -31 -66.5 -78.5t-76.5 -71.5h-58v12z" />
    <glyph glyph-name="mu" unicode="&#xb5;" horiz-adv-x="623" 
d="M173 190q0 -127 120 -127q83 0 120 45.5t37 148.5v279h88v-536h-71l-14 72h-5q-53 -82 -161 -82q-71 0 -115 45h-4q5 -36 5 -119v-156h-88v776h88v-346z" />
    <glyph glyph-name="paragraph" unicode="&#xb6;" horiz-adv-x="654" 
d="M549 -127h-58v831h-102v-831h-58v400q-30 -9 -71 -9q-105 0 -155 61t-50 184q0 127 53.5 189t166.5 62h274v-887z" />
    <glyph glyph-name="periodcentered" unicode="&#xb7;" horiz-adv-x="268" 
d="M72 353q0 32 16 50t45 18q30 0 46.5 -18.5t16.5 -49.5t-16.5 -49.5t-46.5 -18.5q-29 0 -45 18t-16 50z" />
    <glyph glyph-name="cedilla" unicode="&#xb8;" horiz-adv-x="225" 
d="M212 -139q0 -48 -37 -74.5t-111 -26.5q-32 0 -50 5v55q18 -5 53 -5q37 0 55.5 9.5t18.5 34.5q0 43 -91 55l43 86h58l-26 -53q87 -19 87 -86z" />
    <glyph glyph-name="uni00B9" unicode="&#xb9;" horiz-adv-x="350" 
d="M167 714h73v-428h-71v276q0 33 4 89q-15 -14 -26.5 -23t-74.5 -55l-35 49z" />
    <glyph glyph-name="ordmasculine" unicode="&#xba;" horiz-adv-x="375" 
d="M345 553q0 -80 -42 -125t-116 -45q-71 0 -113 45t-42 125q0 81 41 125t116 44q73 0 114.5 -44.5t41.5 -124.5zM95 553q0 -59 21.5 -88t71.5 -29q49 0 71 29t22 88t-22 87.5t-71 28.5t-71 -28.5t-22 -87.5z" />
    <glyph glyph-name="guillemotright" unicode="&#xbb;" horiz-adv-x="347" 
d="M375 205l-295 -190q-5 -4 -11 -4q-11 0 -17 12t-7 25.5t4 16.5l296 180q29 19 41 28.5t2 24.5q-8 14 -26.5 31.5t-43.5 42.5q-24 23 -54 52.5t-65 67.5q-5 6 -4.5 14t6.5 13q5 5 13 5t14 -6q34 -38 63.5 -67t53.5 -51q26 -26 45.5 -46t30.5 -36q21 -33 11 -57.5
t-57 -55.5zM225 225l-245 -158q-5 -3 -9 -3q-10 0 -15 10t-6 21t4 13l246 150q25 16 34.5 24t1.5 20q-7 11 -22 26.5t-36 35.5q-20 20 -45 44t-54 56q-4 5 -3.5 11.5t5.5 10.5q5 5 10 5q7 0 12 -5q28 -32 53 -56t44 -43q23 -22 38.5 -38.5t25.5 -29.5q17 -28 9 -48.5
t-48 -45.5z" />
    <glyph glyph-name="onequarter" unicode="&#xbc;" horiz-adv-x="790" 
d="M736 96h-61v-96h-75v96h-195v52l197 283h73v-275h61v-60zM600 156v93q0 52 3 101q-4 -9 -48 -77l-80 -117h125zM637 714l-436 -714h-75l436 714h75zM165 714h73v-428h-71v276q0 33 4 89q-15 -14 -26.5 -23t-74.5 -55l-35 49z" />
    <glyph glyph-name="onehalf" unicode="&#xbd;" horiz-adv-x="790" 
d="M607 714l-436 -714h-75l436 714h75zM152 714h73v-428h-71v276q0 33 4 89q-15 -14 -26.5 -23t-74.5 -55l-35 49zM727 0h-282v54l115 112q62 60 79.5 87.5t17.5 61.5q0 32 -18.5 48t-48.5 16t-54.5 -11.5t-50.5 -31.5l-35 46q65 55 141 55q64 0 100.5 -32t36.5 -86
q0 -22 -6 -41.5t-18.5 -39.5t-33 -42.5t-138.5 -133.5h195v-62z" />
    <glyph glyph-name="threequarters" unicode="&#xbe;" horiz-adv-x="790" 
d="M772 96h-61v-96h-75v96h-195v52l197 283h73v-275h61v-60zM636 156v93q0 52 3 101q-4 -9 -48 -77l-80 -117h125zM681 714l-436 -714h-75l436 714h75zM307 613q0 -74 -74 -102q87 -21 87 -102q0 -62 -45 -96.5t-128 -34.5q-74 0 -131 28v63q69 -34 132 -34q100 0 100 76
q0 69 -110 69h-57v55h57q50 0 73.5 19t23.5 51q0 29 -19 45t-51 16q-51 0 -111 -38l-36 46q36 27 71 38t75 11q66 0 104.5 -29.5t38.5 -80.5z" />
    <glyph glyph-name="questiondown" unicode="&#xbf;" horiz-adv-x="433" 
d="M133 -100q-41 18 -60.5 50t-17.5 70.5t23 74.5l4 5q36 54 76.5 95t85.5 77t92 78q29 26 54.5 55.5t36.5 66.5q2 9 6 20t15 11q2 0 8 -2q24 -10 23.5 -33t-26.5 -68q-21 -38 -56.5 -73.5t-75 -68t-72.5 -63.5q-16 -15 -39 -38t-45 -49.5t-37 -54t-16 -52t19 -42.5
q17 -15 35 -21.5t37 -6.5q36 0 71 19t65 47t51 54q4 5 12.5 18t18.5 24t16 13h1.5h1.5q11 0 16 -10t-3 -24q-19 -29 -47.5 -61t-63 -60t-72.5 -45.5t-76 -17.5q-29 0 -61 12zM530 700h-3h-4q-28 0 -41 -12.5t-14 -29t9.5 -29t30.5 -12.5q9 0 19 3q18 6 28 24.5t5.5 36
t-30.5 19.5z" />
    <glyph glyph-name="Agrave" unicode="&#xc0;" horiz-adv-x="850" 
d="M1074 1247l-56 67q-5 5 -4 11q1 7 7 11q3 3 8 4q11 2 17 -6l57 -67q6 -8 4.5 -12.5t-8.5 -9.5q-3 -2 -8 -4q-10 -2 -17 6zM423 247q14 20 12 25.5t-16 5.5q-4 0 -9 -0.5t-11 -0.5q-61 -4 -121.5 -6t-121.5 -5l2 -1q37 -14 57 -39t25 -57q6 -29 2 -63t-12 -68
q-7 -24 -17.5 -47.5t-20.5 -43.5q61 69 119.5 148.5t111.5 151.5zM105 263q-31 0 -64 -3h-1.5h-2.5q-10 0 -23 3t-11 18q0 10 11.5 14.5t27 5.5t27.5 1h5.5h4.5q87 2 176.5 7.5t177.5 7.5q25 1 37.5 7.5t20.5 19.5t21 33q97 144 191.5 288t187.5 290q7 11 23.5 36.5
t37.5 56.5t43.5 60t41.5 48t30 19q10 0 12.5 -10.5t-1.5 -22.5q-37 -123 -84.5 -253.5t-98 -261.5t-97.5 -257q-9 -26 -5 -31t14 -5h4.5h4.5q10 0 19 -3q8 -2 11.5 -10t-2 -16t-22.5 -9q-7 0 -26 -1t-24 -6q-3 -3 -16.5 -38t-34 -91t-44 -123t-47.5 -135t-44.5 -127.5
t-35 -100t-18.5 -51.5t-14.5 -16.5t-22.5 -5.5q-16 0 -27 9q-5 4 -10 20t-5.5 31t7.5 20q6 1 10 -8t8 -9q2 0 3 4q4 12 9 25.5t9 23.5q8 22 23 65t35 98t41 114.5t40.5 114.5t35 98t23.5 65q5 13 6.5 16t-6.5 3h-7h-9q-38 -2 -78.5 -4.5t-79.5 -4.5q-24 -1 -33 -9.5
t-22 -26.5q-69 -100 -145.5 -200t-157.5 -190q-5 -7 -15 -16t-20 -9q-9 0 -15 9t0 20t16 20.5t15 16.5l3 1q16 28 34.5 66t30.5 79q10 32 14 63.5t-2 60.5q-11 46 -44.5 67.5t-76.5 28.5zM793 526q39 103 79.5 210.5t83.5 207.5q2 5 4.5 8.5t4.5 8.5q3 6 9 19.5t12.5 29
t10.5 26.5t2 11t-7 -7t-16 -24q-89 -147 -184 -292.5t-193 -288.5q-16 -23 -31.5 -46t-31.5 -47q-8 -11 -9 -15t7 -4q42 0 86 1.5t86 6.5q1 0 3 0.5t4 1.5q7 1 13 15q7 12 15.5 38.5t14.5 43.5q10 24 18.5 48t18.5 48z" />
    <glyph glyph-name="Aacute" unicode="&#xc1;" horiz-adv-x="850" 
d="M1175 1310l-67 -56q-5 -5 -11.5 -4t-10.5 7q-3 3 -4 8q-2 11 6 17l67 57q5 4 11.5 3t10.5 -7q3 -4 4 -8q2 -10 -6 -17zM423 247q14 20 12 25.5t-16 5.5q-4 0 -9 -0.5t-11 -0.5q-61 -4 -121.5 -6t-121.5 -5l2 -1q37 -14 57 -39t25 -57q6 -29 2 -63t-12 -68
q-7 -24 -17.5 -47.5t-20.5 -43.5q61 69 119.5 148.5t111.5 151.5zM105 263q-31 0 -64 -3h-1.5h-2.5q-10 0 -23 3t-11 18q0 10 11.5 14.5t27 5.5t27.5 1h5.5h4.5q87 2 176.5 7.5t177.5 7.5q25 1 37.5 7.5t20.5 19.5t21 33q97 144 191.5 288t187.5 290q7 11 23.5 36.5
t37.5 56.5t43.5 60t41.5 48t30 19q10 0 12.5 -10.5t-1.5 -22.5q-37 -123 -84.5 -253.5t-98 -261.5t-97.5 -257q-9 -26 -5 -31t14 -5h4.5h4.5q10 0 19 -3q8 -2 11.5 -10t-2 -16t-22.5 -9q-7 0 -26 -1t-24 -6q-3 -3 -16.5 -38t-34 -91t-44 -123t-47.5 -135t-44.5 -127.5
t-35 -100t-18.5 -51.5t-14.5 -16.5t-22.5 -5.5q-16 0 -27 9q-5 4 -10 20t-5.5 31t7.5 20q6 1 10 -8t8 -9q2 0 3 4q4 12 9 25.5t9 23.5q8 22 23 65t35 98t41 114.5t40.5 114.5t35 98t23.5 65q5 13 6.5 16t-6.5 3h-7h-9q-38 -2 -78.5 -4.5t-79.5 -4.5q-24 -1 -33 -9.5
t-22 -26.5q-69 -100 -145.5 -200t-157.5 -190q-5 -7 -15 -16t-20 -9q-9 0 -15 9t0 20t16 20.5t15 16.5l3 1q16 28 34.5 66t30.5 79q10 32 14 63.5t-2 60.5q-11 46 -44.5 67.5t-76.5 28.5zM793 526q39 103 79.5 210.5t83.5 207.5q2 5 4.5 8.5t4.5 8.5q3 6 9 19.5t12.5 29
t10.5 26.5t2 11t-7 -7t-16 -24q-89 -147 -184 -292.5t-193 -288.5q-16 -23 -31.5 -46t-31.5 -47q-8 -11 -9 -15t7 -4q42 0 86 1.5t86 6.5q1 0 3 0.5t4 1.5q7 1 13 15q7 12 15.5 38.5t14.5 43.5q10 24 18.5 48t18.5 48z" />
    <glyph glyph-name="Acircumflex" unicode="&#xc2;" horiz-adv-x="850" 
d="M1133 1254l-56 67q-5 5 -4 11q1 7 7 11q3 3 8 4q11 2 17 -6l57 -67q6 -8 4.5 -12.5t-8.5 -9.5q-3 -2 -8 -4q-10 -2 -17 6zM1102 1317l-67 -56q-5 -5 -11.5 -4t-10.5 7q-3 3 -4 8q-2 11 6 17l67 57q5 4 11.5 3t10.5 -7q3 -4 4 -8q2 -10 -6 -17zM423 247q14 20 12 25.5
t-16 5.5q-4 0 -9 -0.5t-11 -0.5q-61 -4 -121.5 -6t-121.5 -5l2 -1q37 -14 57 -39t25 -57q6 -29 2 -63t-12 -68q-7 -24 -17.5 -47.5t-20.5 -43.5q61 69 119.5 148.5t111.5 151.5zM105 263q-31 0 -64 -3h-1.5h-2.5q-10 0 -23 3t-11 18q0 10 11.5 14.5t27 5.5t27.5 1h5.5h4.5
q87 2 176.5 7.5t177.5 7.5q25 1 37.5 7.5t20.5 19.5t21 33q97 144 191.5 288t187.5 290q7 11 23.5 36.5t37.5 56.5t43.5 60t41.5 48t30 19q10 0 12.5 -10.5t-1.5 -22.5q-37 -123 -84.5 -253.5t-98 -261.5t-97.5 -257q-9 -26 -5 -31t14 -5h4.5h4.5q10 0 19 -3q8 -2 11.5 -10
t-2 -16t-22.5 -9q-7 0 -26 -1t-24 -6q-3 -3 -16.5 -38t-34 -91t-44 -123t-47.5 -135t-44.5 -127.5t-35 -100t-18.5 -51.5t-14.5 -16.5t-22.5 -5.5q-16 0 -27 9q-5 4 -10 20t-5.5 31t7.5 20q6 1 10 -8t8 -9q2 0 3 4q4 12 9 25.5t9 23.5q8 22 23 65t35 98t41 114.5t40.5 114.5
t35 98t23.5 65q5 13 6.5 16t-6.5 3h-7h-9q-38 -2 -78.5 -4.5t-79.5 -4.5q-24 -1 -33 -9.5t-22 -26.5q-69 -100 -145.5 -200t-157.5 -190q-5 -7 -15 -16t-20 -9q-9 0 -15 9t0 20t16 20.5t15 16.5l3 1q16 28 34.5 66t30.5 79q10 32 14 63.5t-2 60.5q-11 46 -44.5 67.5
t-76.5 28.5zM793 526q39 103 79.5 210.5t83.5 207.5q2 5 4.5 8.5t4.5 8.5q3 6 9 19.5t12.5 29t10.5 26.5t2 11t-7 -7t-16 -24q-89 -147 -184 -292.5t-193 -288.5q-16 -23 -31.5 -46t-31.5 -47q-8 -11 -9 -15t7 -4q42 0 86 1.5t86 6.5q1 0 3 0.5t4 1.5q7 1 13 15
q7 12 15.5 38.5t14.5 43.5q10 24 18.5 48t18.5 48z" />
    <glyph glyph-name="Atilde" unicode="&#xc3;" horiz-adv-x="850" 
d="M998 1286q-2 3 -2.5 7t1.5 7q2 4 5 4q2 0 4 -3q7 -10 14 -13.5t13 -3.5q8 0 14.5 3.5t13.5 8.5q9 6 18.5 11.5t21.5 5.5t26 -9q2 -1 3 -5t0 -8q-2 -6 -6 -6l-1 0.5l-1 0.5q-11 7 -21 7t-18.5 -4.5t-15.5 -10.5q-9 -5 -17 -10t-17 -5q-8 0 -17 5t-18 18zM423 247
q14 20 12 25.5t-16 5.5q-4 0 -9 -0.5t-11 -0.5q-61 -4 -121.5 -6t-121.5 -5l2 -1q37 -14 57 -39t25 -57q6 -29 2 -63t-12 -68q-7 -24 -17.5 -47.5t-20.5 -43.5q61 69 119.5 148.5t111.5 151.5zM105 263q-31 0 -64 -3h-1.5h-2.5q-10 0 -23 3t-11 18q0 10 11.5 14.5t27 5.5
t27.5 1h5.5h4.5q87 2 176.5 7.5t177.5 7.5q25 1 37.5 7.5t20.5 19.5t21 33q97 144 191.5 288t187.5 290q7 11 23.5 36.5t37.5 56.5t43.5 60t41.5 48t30 19q10 0 12.5 -10.5t-1.5 -22.5q-37 -123 -84.5 -253.5t-98 -261.5t-97.5 -257q-9 -26 -5 -31t14 -5h4.5h4.5q10 0 19 -3
q8 -2 11.5 -10t-2 -16t-22.5 -9q-7 0 -26 -1t-24 -6q-3 -3 -16.5 -38t-34 -91t-44 -123t-47.5 -135t-44.5 -127.5t-35 -100t-18.5 -51.5t-14.5 -16.5t-22.5 -5.5q-16 0 -27 9q-5 4 -10 20t-5.5 31t7.5 20q6 1 10 -8t8 -9q2 0 3 4q4 12 9 25.5t9 23.5q8 22 23 65t35 98
t41 114.5t40.5 114.5t35 98t23.5 65q5 13 6.5 16t-6.5 3h-7h-9q-38 -2 -78.5 -4.5t-79.5 -4.5q-24 -1 -33 -9.5t-22 -26.5q-69 -100 -145.5 -200t-157.5 -190q-5 -7 -15 -16t-20 -9q-9 0 -15 9t0 20t16 20.5t15 16.5l3 1q16 28 34.5 66t30.5 79q10 32 14 63.5t-2 60.5
q-11 46 -44.5 67.5t-76.5 28.5zM793 526q39 103 79.5 210.5t83.5 207.5q2 5 4.5 8.5t4.5 8.5q3 6 9 19.5t12.5 29t10.5 26.5t2 11t-7 -7t-16 -24q-89 -147 -184 -292.5t-193 -288.5q-16 -23 -31.5 -46t-31.5 -47q-8 -11 -9 -15t7 -4q42 0 86 1.5t86 6.5q1 0 3 0.5t4 1.5
q7 1 13 15q7 12 15.5 38.5t14.5 43.5q10 24 18.5 48t18.5 48z" />
    <glyph glyph-name="Adieresis" unicode="&#xc4;" horiz-adv-x="850" 
d="M423 247q14 20 12 25.5t-16 5.5q-4 0 -9 -0.5t-11 -0.5q-61 -4 -121.5 -6t-121.5 -5l2 -1q37 -14 57 -39t25 -57q6 -29 2 -63t-12 -68q-7 -24 -17.5 -47.5t-20.5 -43.5q61 69 119.5 148.5t111.5 151.5zM105 263q-31 0 -64 -3h-1.5h-2.5q-10 0 -23 3t-11 18
q0 10 11.5 14.5t27 5.5t27.5 1h5.5h4.5q87 2 176.5 7.5t177.5 7.5q25 1 37.5 7.5t20.5 19.5t21 33q97 144 191.5 288t187.5 290q7 11 23.5 36.5t37.5 56.5t43.5 60t41.5 48t30 19q10 0 12.5 -10.5t-1.5 -22.5q-37 -123 -84.5 -253.5t-98 -261.5t-97.5 -257q-9 -26 -5 -31
t14 -5h4.5h4.5q10 0 19 -3q8 -2 11.5 -10t-2 -16t-22.5 -9q-7 0 -26 -1t-24 -6q-3 -3 -16.5 -38t-34 -91t-44 -123t-47.5 -135t-44.5 -127.5t-35 -100t-18.5 -51.5t-14.5 -16.5t-22.5 -5.5q-16 0 -27 9q-5 4 -10 20t-5.5 31t7.5 20q6 1 10 -8t8 -9q2 0 3 4q4 12 9 25.5
t9 23.5q8 22 23 65t35 98t41 114.5t40.5 114.5t35 98t23.5 65q5 13 6.5 16t-6.5 3h-7h-9q-38 -2 -78.5 -4.5t-79.5 -4.5q-24 -1 -33 -9.5t-22 -26.5q-69 -100 -145.5 -200t-157.5 -190q-5 -7 -15 -16t-20 -9q-9 0 -15 9t0 20t16 20.5t15 16.5l3 1q16 28 34.5 66t30.5 79
q10 32 14 63.5t-2 60.5q-11 46 -44.5 67.5t-76.5 28.5zM793 526q39 103 79.5 210.5t83.5 207.5q2 5 4.5 8.5t4.5 8.5q3 6 9 19.5t12.5 29t10.5 26.5t2 11t-7 -7t-16 -24q-89 -147 -184 -292.5t-193 -288.5q-16 -23 -31.5 -46t-31.5 -47q-8 -11 -9 -15t7 -4q42 0 86 1.5
t86 6.5q1 0 3 0.5t4 1.5q7 1 13 15q7 12 15.5 38.5t14.5 43.5q10 24 18.5 48t18.5 48zM1015 1216h3h2q23 0 30 13t1 26t-22 13q-3 0 -6 -0.5t-6 -1.5q-12 -4 -18 -16t-3 -22.5t19 -11.5zM1129 1217h3h2q23 0 30 13t1 26t-22 13q-3 0 -6 -0.5t-6 -1.5q-12 -4 -18 -15.5
t-3 -22.5t19 -12z" />
    <glyph glyph-name="Aring" unicode="&#xc5;" horiz-adv-x="850" 
d="M423 247q14 20 12 25.5t-16 5.5q-4 0 -9 -0.5t-11 -0.5q-61 -4 -121.5 -6t-121.5 -5l2 -1q37 -14 57 -39t25 -57q6 -29 2 -63t-12 -68q-7 -24 -17.5 -47.5t-20.5 -43.5q61 69 119.5 148.5t111.5 151.5zM105 263q-31 0 -64 -3h-1.5h-2.5q-10 0 -23 3t-11 18
q0 10 11.5 14.5t27 5.5t27.5 1h5.5h4.5q87 2 176.5 7.5t177.5 7.5q25 1 37.5 7.5t20.5 19.5t21 33q97 144 191.5 288t187.5 290q7 11 23.5 36.5t37.5 56.5t43.5 60t41.5 48t30 19q10 0 12.5 -10.5t-1.5 -22.5q-37 -123 -84.5 -253.5t-98 -261.5t-97.5 -257q-9 -26 -5 -31
t14 -5h4.5h4.5q10 0 19 -3q8 -2 11.5 -10t-2 -16t-22.5 -9q-7 0 -26 -1t-24 -6q-3 -3 -16.5 -38t-34 -91t-44 -123t-47.5 -135t-44.5 -127.5t-35 -100t-18.5 -51.5t-14.5 -16.5t-22.5 -5.5q-16 0 -27 9q-5 4 -10 20t-5.5 31t7.5 20q6 1 10 -8t8 -9q2 0 3 4q4 12 9 25.5
t9 23.5q8 22 23 65t35 98t41 114.5t40.5 114.5t35 98t23.5 65q5 13 6.5 16t-6.5 3h-7h-9q-38 -2 -78.5 -4.5t-79.5 -4.5q-24 -1 -33 -9.5t-22 -26.5q-69 -100 -145.5 -200t-157.5 -190q-5 -7 -15 -16t-20 -9q-9 0 -15 9t0 20t16 20.5t15 16.5l3 1q16 28 34.5 66t30.5 79
q10 32 14 63.5t-2 60.5q-11 46 -44.5 67.5t-76.5 28.5zM793 526q39 103 79.5 210.5t83.5 207.5q2 5 4.5 8.5t4.5 8.5q3 6 9 19.5t12.5 29t10.5 26.5t2 11t-7 -7t-16 -24q-89 -147 -184 -292.5t-193 -288.5q-16 -23 -31.5 -46t-31.5 -47q-8 -11 -9 -15t7 -4q42 0 86 1.5
t86 6.5q1 0 3 0.5t4 1.5q7 1 13 15q7 12 15.5 38.5t14.5 43.5q10 24 18.5 48t18.5 48z" />
    <glyph glyph-name="AE" unicode="&#xc6;" horiz-adv-x="880" 
d="M821 0h-372v221h-250l-107 -221h-93l339 714h483v-79h-282v-223h263v-78h-263v-255h282v-79zM234 301h215v333h-58z" />
    <glyph glyph-name="Ccedilla" unicode="&#xc7;" horiz-adv-x="870" 
d="M758 925q1 -49 -14 -68t-34 -19q-17 0 -31 11.5t-15 27.5q-1 19 -1.5 37.5t-9 30.5t-30.5 12q-17 0 -39 -7q-48 -15 -97 -62.5t-95 -119t-87 -158t-73 -180t-52.5 -185.5t-26.5 -174t5.5 -145t43.5 -99.5t87 -36.5q35 0 79 16q93 40 217.5 149t274.5 278q6 9 17 9
q6 0 13 -5q6 -6 6 -15.5t-6 -16.5q-28 -32 -71 -78.5t-96 -99t-111.5 -103.5t-118.5 -92.5t-116.5 -66.5t-105.5 -25q-18 0 -38 5q-71 23 -110 77t-51 131.5t-2 169.5t38.5 191t70 196.5t92.5 186t106 159.5t110.5 117t106.5 58q13 4 31 4q30 0 60 -13t51 -37.5t22 -59.5z
" />
    <glyph glyph-name="Egrave" unicode="&#xc8;" horiz-adv-x="1006" 
d="M754 1115l-56 67q-5 5 -4 11q1 7 7 11q3 3 8 4q11 2 17 -6l57 -67q6 -8 4.5 -12.5t-8.5 -9.5q-3 -2 -8 -4q-10 -2 -17 6zM44 913q-19 22 0 42q13 11 58.5 17t116 8t157.5 2h89.5t95.5 -1h122q4 7 4 14q9 5 12 9q8 8 23.5 19.5t31.5 11.5q5 0 7 -1q8 -4 10 -11.5t7 -8.5
q-6 -15 -10 -33h41.5h40.5q107 0 205 3.5t174 10.5q9 0 15.5 -5t8.5 -12q0 -9 -5.5 -16t-13.5 -7q-89 -9 -203 -12.5t-235 -3.5h-30.5h-31.5q-11 -21 -30.5 -57.5t-42 -81t-46 -90t-44.5 -86t-36 -68.5t-20 -38q-14 -28 -13.5 -37.5t13.5 -9.5q8 0 18.5 2t24.5 5q5 2 18 3.5
t26 1.5q16 0 27.5 -5t7.5 -19q-2 -11 -12.5 -14.5t-24 -4.5t-23.5 -2q-11 0 -34.5 -2.5t-45.5 -8t-30 -14.5q-4 -5 -14.5 -27t-23 -50.5t-23 -53.5t-13.5 -34q-9 -20 -23.5 -54.5t-29.5 -75t-27 -81t-17.5 -74.5t-0.5 -53q4 -17 22 -17q14 0 39 6t69 16q45 10 100 23
t113.5 27.5t112.5 28l98 24.5t70 17q3 1 5.5 1h3.5q17 0 12.5 -16t-25.5 -21q-107 -27 -254 -62t-318 -82q-24 -6 -44 -6q-39 0 -56.5 24.5t-16.5 69.5q1 27 11 64t24 77t28.5 76.5t25.5 62.5q17 41 35 81.5t37 83.5q4 9 5 12t-2 3q-2 0 -6.5 -1.5t-11.5 -2.5
q-31 -11 -58 -21.5t-57 -24.5q-6 -3 -14 -6.5t-15 -3.5q-13 0 -16 15q-3 11 7.5 19.5t25 14.5t22.5 9q33 15 62.5 24t63.5 21q19 6 27.5 16t13.5 24t14 32q29 64 62.5 127t66.5 125q20 39 43 80t42 81q1 2 2.5 4.5t3.5 3.5h-107q-60 1 -117 1h-108q-97 0 -165.5 -2
t-90.5 -10q0 -9 -5.5 -15.5t-14.5 -6.5t-16 7z" />
    <glyph glyph-name="Eacute" unicode="&#xc9;" horiz-adv-x="1006" 
d="M44 913q-19 22 0 42q13 11 58.5 17t116 8t157.5 2h89.5t95.5 -1h122q4 7 4 14q9 5 12 9q8 8 23.5 19.5t31.5 11.5q5 0 7 -1q8 -4 10 -11.5t7 -8.5q-6 -15 -10 -33h41.5h40.5q107 0 205 3.5t174 10.5q9 0 15.5 -5t8.5 -12q0 -9 -5.5 -16t-13.5 -7q-89 -9 -203 -12.5
t-235 -3.5h-30.5h-31.5q-11 -21 -30.5 -57.5t-42 -81t-46 -90t-44.5 -86t-36 -68.5t-20 -38q-14 -28 -13.5 -37.5t13.5 -9.5q8 0 18.5 2t24.5 5q5 2 18 3.5t26 1.5q16 0 27.5 -5t7.5 -19q-2 -11 -12.5 -14.5t-24 -4.5t-23.5 -2q-11 0 -34.5 -2.5t-45.5 -8t-30 -14.5
q-4 -5 -14.5 -27t-23 -50.5t-23 -53.5t-13.5 -34q-9 -20 -23.5 -54.5t-29.5 -75t-27 -81t-17.5 -74.5t-0.5 -53q4 -17 22 -17q14 0 39 6t69 16q45 10 100 23t113.5 27.5t112.5 28l98 24.5t70 17q3 1 5.5 1h3.5q17 0 12.5 -16t-25.5 -21q-107 -27 -254 -62t-318 -82
q-24 -6 -44 -6q-39 0 -56.5 24.5t-16.5 69.5q1 27 11 64t24 77t28.5 76.5t25.5 62.5q17 41 35 81.5t37 83.5q4 9 5 12t-2 3q-2 0 -6.5 -1.5t-11.5 -2.5q-31 -11 -58 -21.5t-57 -24.5q-6 -3 -14 -6.5t-15 -3.5q-13 0 -16 15q-3 11 7.5 19.5t25 14.5t22.5 9q33 15 62.5 24
t63.5 21q19 6 27.5 16t13.5 24t14 32q29 64 62.5 127t66.5 125q20 39 43 80t42 81q1 2 2.5 4.5t3.5 3.5h-107q-60 1 -117 1h-108q-97 0 -165.5 -2t-90.5 -10q0 -9 -5.5 -15.5t-14.5 -6.5t-16 7z" />
    <glyph glyph-name="Ecircumflex" unicode="&#xca;" horiz-adv-x="1006" 
d="M813 1104l-56 67q-5 5 -4 11q1 7 7 11q3 3 8 4q11 2 17 -6l57 -67q6 -8 4.5 -12.5t-8.5 -9.5q-3 -2 -8 -4q-10 -2 -17 6zM782 1167l-67 -56q-5 -5 -11.5 -4t-10.5 7q-3 3 -4 8q-2 11 6 17l67 57q5 4 11.5 3t10.5 -7q3 -4 4 -8q2 -10 -6 -17zM44 913q-19 22 0 42
q13 11 58.5 17t116 8t157.5 2h89.5t95.5 -1h122q4 7 4 14q9 5 12 9q8 8 23.5 19.5t31.5 11.5q5 0 7 -1q8 -4 10 -11.5t7 -8.5q-6 -15 -10 -33h41.5h40.5q107 0 205 3.5t174 10.5q9 0 15.5 -5t8.5 -12q0 -9 -5.5 -16t-13.5 -7q-89 -9 -203 -12.5t-235 -3.5h-30.5h-31.5
q-11 -21 -30.5 -57.5t-42 -81t-46 -90t-44.5 -86t-36 -68.5t-20 -38q-14 -28 -13.5 -37.5t13.5 -9.5q8 0 18.5 2t24.5 5q5 2 18 3.5t26 1.5q16 0 27.5 -5t7.5 -19q-2 -11 -12.5 -14.5t-24 -4.5t-23.5 -2q-11 0 -34.5 -2.5t-45.5 -8t-30 -14.5q-4 -5 -14.5 -27t-23 -50.5
t-23 -53.5t-13.5 -34q-9 -20 -23.5 -54.5t-29.5 -75t-27 -81t-17.5 -74.5t-0.5 -53q4 -17 22 -17q14 0 39 6t69 16q45 10 100 23t113.5 27.5t112.5 28l98 24.5t70 17q3 1 5.5 1h3.5q17 0 12.5 -16t-25.5 -21q-107 -27 -254 -62t-318 -82q-24 -6 -44 -6q-39 0 -56.5 24.5
t-16.5 69.5q1 27 11 64t24 77t28.5 76.5t25.5 62.5q17 41 35 81.5t37 83.5q4 9 5 12t-2 3q-2 0 -6.5 -1.5t-11.5 -2.5q-31 -11 -58 -21.5t-57 -24.5q-6 -3 -14 -6.5t-15 -3.5q-13 0 -16 15q-3 11 7.5 19.5t25 14.5t22.5 9q33 15 62.5 24t63.5 21q19 6 27.5 16t13.5 24t14 32
q29 64 62.5 127t66.5 125q20 39 43 80t42 81q1 2 2.5 4.5t3.5 3.5h-107q-60 1 -117 1h-108q-97 0 -165.5 -2t-90.5 -10q0 -9 -5.5 -15.5t-14.5 -6.5t-16 7z" />
    <glyph glyph-name="Edieresis" unicode="&#xcb;" horiz-adv-x="1006" 
d="M706 1127h3h2q23 0 30 13t1 26t-22 13q-3 0 -6 -0.5t-6 -1.5q-12 -4 -18 -15.5t-3 -22.5t19 -12zM820 1128h3h2q23 0 30 13t1 26t-22 13q-3 0 -6 -0.5t-6 -1.5q-12 -4 -18 -16t-3 -22.5t19 -11.5zM44 913q-19 22 0 42q13 11 58.5 17t116 8t157.5 2h89.5t95.5 -1h122
q4 7 4 14q9 5 12 9q8 8 23.5 19.5t31.5 11.5q5 0 7 -1q8 -4 10 -11.5t7 -8.5q-6 -15 -10 -33h41.5h40.5q107 0 205 3.5t174 10.5q9 0 15.5 -5t8.5 -12q0 -9 -5.5 -16t-13.5 -7q-89 -9 -203 -12.5t-235 -3.5h-30.5h-31.5q-11 -21 -30.5 -57.5t-42 -81t-46 -90t-44.5 -86
t-36 -68.5t-20 -38q-14 -28 -13.5 -37.5t13.5 -9.5q8 0 18.5 2t24.5 5q5 2 18 3.5t26 1.5q16 0 27.5 -5t7.5 -19q-2 -11 -12.5 -14.5t-24 -4.5t-23.5 -2q-11 0 -34.5 -2.5t-45.5 -8t-30 -14.5q-4 -5 -14.5 -27t-23 -50.5t-23 -53.5t-13.5 -34q-9 -20 -23.5 -54.5t-29.5 -75
t-27 -81t-17.5 -74.5t-0.5 -53q4 -17 22 -17q14 0 39 6t69 16q45 10 100 23t113.5 27.5t112.5 28l98 24.5t70 17q3 1 5.5 1h3.5q17 0 12.5 -16t-25.5 -21q-107 -27 -254 -62t-318 -82q-24 -6 -44 -6q-39 0 -56.5 24.5t-16.5 69.5q1 27 11 64t24 77t28.5 76.5t25.5 62.5
q17 41 35 81.5t37 83.5q4 9 5 12t-2 3q-2 0 -6.5 -1.5t-11.5 -2.5q-31 -11 -58 -21.5t-57 -24.5q-6 -3 -14 -6.5t-15 -3.5q-13 0 -16 15q-3 11 7.5 19.5t25 14.5t22.5 9q33 15 62.5 24t63.5 21q19 6 27.5 16t13.5 24t14 32q29 64 62.5 127t66.5 125q20 39 43 80t42 81
q1 2 2.5 4.5t3.5 3.5h-107q-60 1 -117 1h-108q-97 0 -165.5 -2t-90.5 -10q0 -9 -5.5 -15.5t-14.5 -6.5t-16 7z" />
    <glyph glyph-name="Igrave" unicode="&#xcc;" horiz-adv-x="716" 
d="M680 1094l-56 67q-5 5 -4 11q1 7 7 11q3 3 8 4q11 2 17 -6l57 -67q6 -8 4.5 -12.5t-8.5 -9.5q-3 -2 -8 -4q-10 -2 -17 6zM911 1034q2 1 6 1q15 0 17 -15q2 -8 -2.5 -15t-11.5 -8q-43 -11 -85.5 -19t-85.5 -15q-23 -5 -30 -12t-16 -27q-16 -40 -33 -80t-33 -81
q-79 -186 -156.5 -373t-148.5 -378q-2 -6 -8.5 -23t-11 -33.5t0.5 -21.5q4 -2 10 -2q11 0 30 3.5t36.5 8t25.5 5.5q43 9 87.5 19t89.5 21q8 0 13 -2t7 -12q3 -7 -0.5 -14.5t-10.5 -10.5q-77 -20 -162 -34.5t-169 -30t-162 -35.5q-20 -6 -39 -10t-36 -12q-1 0 -3 -0.5
t-3 -0.5q-15 0 -20 13q-5 17 11 27q44 13 82.5 21.5t84.5 17.5q36 9 48 24q21 92 58.5 194.5t75.5 204.5q37 93 68 180t47 160t8 125q-5 44 -35.5 67.5t-92.5 23.5q-13 0 -27.5 -1.5t-31.5 -3.5q-2 -1 -5 -1q-13 0 -16 12q-3 6 0.5 15t10.5 11q53 18 114.5 30t124.5 21.5
t120 20.5q13 2 15.5 3.5t2.5 4.5t7 8q5 6 15 6q13 0 25.5 -6.5t14.5 -7.5q2 0 18.5 3t41 8.5t49.5 10.5t44.5 9.5t25.5 5.5zM336 193q56 147 118 293.5t124 290.5q16 35 30.5 71.5t32.5 71.5q7 16 5.5 21.5t-9.5 5.5q-9 0 -26 -3q-52 -10 -111.5 -19.5t-114.5 -25.5
q58 -2 86.5 -28.5t35.5 -73.5q9 -54 -7 -129t-47.5 -164t-67.5 -185q-12 -31 -25.5 -62.5t-23.5 -63.5z" />
    <glyph glyph-name="Iacute" unicode="&#xcd;" horiz-adv-x="716" 
d="M802 1160l-67 -56q-5 -5 -11.5 -4t-10.5 7q-3 3 -4 8q-2 11 6 17l67 57q5 4 11.5 3t10.5 -7q3 -4 4 -8q2 -10 -6 -17zM911 1034q2 1 6 1q15 0 17 -15q2 -8 -2.5 -15t-11.5 -8q-43 -11 -85.5 -19t-85.5 -15q-23 -5 -30 -12t-16 -27q-16 -40 -33 -80t-33 -81
q-79 -186 -156.5 -373t-148.5 -378q-2 -6 -8.5 -23t-11 -33.5t0.5 -21.5q4 -2 10 -2q11 0 30 3.5t36.5 8t25.5 5.5q43 9 87.5 19t89.5 21q8 0 13 -2t7 -12q3 -7 -0.5 -14.5t-10.5 -10.5q-77 -20 -162 -34.5t-169 -30t-162 -35.5q-20 -6 -39 -10t-36 -12q-1 0 -3 -0.5
t-3 -0.5q-15 0 -20 13q-5 17 11 27q44 13 82.5 21.5t84.5 17.5q36 9 48 24q21 92 58.5 194.5t75.5 204.5q37 93 68 180t47 160t8 125q-5 44 -35.5 67.5t-92.5 23.5q-13 0 -27.5 -1.5t-31.5 -3.5q-2 -1 -5 -1q-13 0 -16 12q-3 6 0.5 15t10.5 11q53 18 114.5 30t124.5 21.5
t120 20.5q13 2 15.5 3.5t2.5 4.5t7 8q5 6 15 6q13 0 25.5 -6.5t14.5 -7.5q2 0 18.5 3t41 8.5t49.5 10.5t44.5 9.5t25.5 5.5zM336 193q56 147 118 293.5t124 290.5q16 35 30.5 71.5t32.5 71.5q7 16 5.5 21.5t-9.5 5.5q-9 0 -26 -3q-52 -10 -111.5 -19.5t-114.5 -25.5
q58 -2 86.5 -28.5t35.5 -73.5q9 -54 -7 -129t-47.5 -164t-67.5 -185q-12 -31 -25.5 -62.5t-23.5 -63.5z" />
    <glyph glyph-name="Icircumflex" unicode="&#xce;" horiz-adv-x="716" 
d="M770 1104l-56 67q-5 5 -4 11q1 7 7 11q3 3 8 4q11 2 17 -6l57 -67q6 -8 4.5 -12.5t-8.5 -9.5q-3 -2 -8 -4q-10 -2 -17 6zM739 1167l-67 -56q-5 -5 -11.5 -4t-10.5 7q-3 3 -4 8q-2 11 6 17l67 57q5 4 11.5 3t10.5 -7q3 -4 4 -8q2 -10 -6 -17zM911 1034q2 1 6 1
q15 0 17 -15q2 -8 -2.5 -15t-11.5 -8q-43 -11 -85.5 -19t-85.5 -15q-23 -5 -30 -12t-16 -27q-16 -40 -33 -80t-33 -81q-79 -186 -156.5 -373t-148.5 -378q-2 -6 -8.5 -23t-11 -33.5t0.5 -21.5q4 -2 10 -2q11 0 30 3.5t36.5 8t25.5 5.5q43 9 87.5 19t89.5 21q8 0 13 -2t7 -12
q3 -7 -0.5 -14.5t-10.5 -10.5q-77 -20 -162 -34.5t-169 -30t-162 -35.5q-20 -6 -39 -10t-36 -12q-1 0 -3 -0.5t-3 -0.5q-15 0 -20 13q-5 17 11 27q44 13 82.5 21.5t84.5 17.5q36 9 48 24q21 92 58.5 194.5t75.5 204.5q37 93 68 180t47 160t8 125q-5 44 -35.5 67.5
t-92.5 23.5q-13 0 -27.5 -1.5t-31.5 -3.5q-2 -1 -5 -1q-13 0 -16 12q-3 6 0.5 15t10.5 11q53 18 114.5 30t124.5 21.5t120 20.5q13 2 15.5 3.5t2.5 4.5t7 8q5 6 15 6q13 0 25.5 -6.5t14.5 -7.5q2 0 18.5 3t41 8.5t49.5 10.5t44.5 9.5t25.5 5.5zM336 193q56 147 118 293.5
t124 290.5q16 35 30.5 71.5t32.5 71.5q7 16 5.5 21.5t-9.5 5.5q-9 0 -26 -3q-52 -10 -111.5 -19.5t-114.5 -25.5q58 -2 86.5 -28.5t35.5 -73.5q9 -54 -7 -129t-47.5 -164t-67.5 -185q-12 -31 -25.5 -62.5t-23.5 -63.5z" />
    <glyph glyph-name="Idieresis" unicode="&#xcf;" horiz-adv-x="716" 
d="M640 1097h3h2q23 0 30 13t1 26t-22 13q-3 0 -6 -0.5t-6 -1.5q-12 -4 -18 -15.5t-3 -22.5t19 -12zM754 1098h3h2q23 0 30 13t1 26t-22 13q-3 0 -6 -0.5t-6 -1.5q-12 -4 -18 -16t-3 -22.5t19 -11.5zM911 1034q2 1 6 1q15 0 17 -15q2 -8 -2.5 -15t-11.5 -8
q-43 -11 -85.5 -19t-85.5 -15q-23 -5 -30 -12t-16 -27q-16 -40 -33 -80t-33 -81q-79 -186 -156.5 -373t-148.5 -378q-2 -6 -8.5 -23t-11 -33.5t0.5 -21.5q4 -2 10 -2q11 0 30 3.5t36.5 8t25.5 5.5q43 9 87.5 19t89.5 21q8 0 13 -2t7 -12q3 -7 -0.5 -14.5t-10.5 -10.5
q-77 -20 -162 -34.5t-169 -30t-162 -35.5q-20 -6 -39 -10t-36 -12q-1 0 -3 -0.5t-3 -0.5q-15 0 -20 13q-5 17 11 27q44 13 82.5 21.5t84.5 17.5q36 9 48 24q21 92 58.5 194.5t75.5 204.5q37 93 68 180t47 160t8 125q-5 44 -35.5 67.5t-92.5 23.5q-13 0 -27.5 -1.5
t-31.5 -3.5q-2 -1 -5 -1q-13 0 -16 12q-3 6 0.5 15t10.5 11q53 18 114.5 30t124.5 21.5t120 20.5q13 2 15.5 3.5t2.5 4.5t7 8q5 6 15 6q13 0 25.5 -6.5t14.5 -7.5q2 0 18.5 3t41 8.5t49.5 10.5t44.5 9.5t25.5 5.5zM336 193q56 147 118 293.5t124 290.5q16 35 30.5 71.5
t32.5 71.5q7 16 5.5 21.5t-9.5 5.5q-9 0 -26 -3q-52 -10 -111.5 -19.5t-114.5 -25.5q58 -2 86.5 -28.5t35.5 -73.5q9 -54 -7 -129t-47.5 -164t-67.5 -185q-12 -31 -25.5 -62.5t-23.5 -63.5z" />
    <glyph glyph-name="Eth" unicode="&#xd0;" horiz-adv-x="729" 
d="M669 364q0 -175 -96 -269.5t-278 -94.5h-191v314h-74v78h74v322h213q167 0 259.5 -92t92.5 -258zM574 361q0 137 -68 206.5t-202 69.5h-110v-245h178v-78h-178v-237h90q290 0 290 284z" />
    <glyph glyph-name="Ntilde" unicode="&#xd1;" horiz-adv-x="732" 
d="M156 46q-4 -16 -12.5 -23.5t-18.5 -7.5q-14 0 -24.5 11.5t-6.5 29.5l8 32l116 857q1 9 -6 12t-5 14q3 8 10.5 14t16.5 6q10 0 17 -9.5t6 -21.5l-73 -523q5 26 14 69t20 95.5t23.5 105.5t24 100.5t21.5 80.5t17 44q19 31 41 31q24 0 37 -41q5 -18 8 -56t4 -88t1.5 -105
t0 -107.5t-1 -95.5t-0.5 -69q1 -81 1.5 -162.5t0.5 -162.5q0 -57 -0.5 -113t0.5 -113q0 -61 7 -61q8 0 38 75q27 62 52.5 146.5t51 182.5t52.5 200t56 200.5t61.5 184.5t69.5 151t79 100q12 9 21 9q12 0 19 -11.5t6.5 -26t-10.5 -23.5q-47 -45 -86 -124.5t-73.5 -181.5
t-66 -216t-62.5 -228t-64.5 -218t-70.5 -185q-4 -9 -13.5 -25.5t-22 -34t-26 -30t-25.5 -12.5q-11 0 -17 9.5t-8 19.5q-3 17 -3.5 41.5t0 50t0.5 44.5v94.5v94.5v364t-5 363v11t-1 24.5t-2 24t-3 10.5l-2 -2q-4 -9 -10 -32.5t-11.5 -48t-8.5 -35.5q-12 -53 -22.5 -104.5
t-22.5 -104.5q-24 -109 -53 -234t-64 -266z" />
    <glyph glyph-name="Ograve" unicode="&#xd2;" horiz-adv-x="599" 
d="M424 1163l-56 67q-5 5 -4 11q1 7 7 11q3 3 8 4q11 2 17 -6l57 -67q6 -8 4.5 -12.5t-8.5 -9.5q-3 -2 -8 -4q-10 -2 -17 6zM205 149q0 -16 -17 -16q-7 0 -11.5 5t-4.5 12q5 121 15 236.5t30 235.5q3 15 3.5 20.5t-0.5 5.5t-5.5 -12t-10 -28.5t-9.5 -30t-5 -16.5
q-23 -79 -41.5 -162t-27.5 -164q-16 -161 -12.5 -263t23.5 -151q18 -39 39 -39q25 -1 64 38q42 44 84 112t80 152.5t69 179t52.5 190.5t30.5 187.5t3 171t-31 139.5q-30 70 -69 79q-35 0 -57 -19.5t-38 -47.5q-6 -10 -3 -10q5 0 16 4.5t28 4.5q15 0 31 -6q24 -13 19.5 -26
t-16.5 -13q-4 0 -6 1q-10 4 -14.5 7t-14.5 3h-4h-3q-23 -3 -43 -24t-34.5 -47t-20.5 -45q-31 -103 -48.5 -216t-26 -227t-14.5 -221zM289 895q10 25 23.5 54.5t32.5 56t44 43t57 16.5q27 0 54.5 -15.5t49.5 -38.5t32 -47q26 -62 32.5 -144t-3 -176.5t-32 -193.5t-55.5 -196
t-72.5 -184t-83.5 -157.5t-88 -116.5q-25 -25 -57 -37t-53 -12q-21 1 -39 16t-29 46q-23 52 -27.5 158t12.5 272q7 65 22 139t35.5 149t46.5 145.5t55 129.5q11 23 22.5 46.5t20.5 46.5z" />
    <glyph glyph-name="Oacute" unicode="&#xd3;" horiz-adv-x="599" 
d="M562 1210l-67 -56q-5 -5 -11.5 -4t-10.5 7q-3 3 -4 8q-2 11 6 17l67 57q5 4 11.5 3t10.5 -7q3 -4 4 -8q2 -10 -6 -17zM205 149q0 -16 -17 -16q-7 0 -11.5 5t-4.5 12q5 121 15 236.5t30 235.5q3 15 3.5 20.5t-0.5 5.5t-5.5 -12t-10 -28.5t-9.5 -30t-5 -16.5
q-23 -79 -41.5 -162t-27.5 -164q-16 -161 -12.5 -263t23.5 -151q18 -39 39 -39q25 -1 64 38q42 44 84 112t80 152.5t69 179t52.5 190.5t30.5 187.5t3 171t-31 139.5q-30 70 -69 79q-35 0 -57 -19.5t-38 -47.5q-6 -10 -3 -10q5 0 16 4.5t28 4.5q15 0 31 -6q24 -13 19.5 -26
t-16.5 -13q-4 0 -6 1q-10 4 -14.5 7t-14.5 3h-4h-3q-23 -3 -43 -24t-34.5 -47t-20.5 -45q-31 -103 -48.5 -216t-26 -227t-14.5 -221zM289 895q10 25 23.5 54.5t32.5 56t44 43t57 16.5q27 0 54.5 -15.5t49.5 -38.5t32 -47q26 -62 32.5 -144t-3 -176.5t-32 -193.5t-55.5 -196
t-72.5 -184t-83.5 -157.5t-88 -116.5q-25 -25 -57 -37t-53 -12q-21 1 -39 16t-29 46q-23 52 -27.5 158t12.5 272q7 65 22 139t35.5 149t46.5 145.5t55 129.5q11 23 22.5 46.5t20.5 46.5z" />
    <glyph glyph-name="Ocircumflex" unicode="&#xd4;" horiz-adv-x="599" 
d="M513 1164l-56 67q-5 5 -4 11q1 7 7 11q3 3 8 4q11 2 17 -6l57 -67q6 -8 4.5 -12.5t-8.5 -9.5q-3 -2 -8 -4q-10 -2 -17 6zM482 1227l-67 -56q-5 -5 -11.5 -4t-10.5 7q-3 3 -4 8q-2 11 6 17l67 57q5 4 11.5 3t10.5 -7q3 -4 4 -8q2 -10 -6 -17zM205 149q0 -16 -17 -16
q-7 0 -11.5 5t-4.5 12q5 121 15 236.5t30 235.5q3 15 3.5 20.5t-0.5 5.5t-5.5 -12t-10 -28.5t-9.5 -30t-5 -16.5q-23 -79 -41.5 -162t-27.5 -164q-16 -161 -12.5 -263t23.5 -151q18 -39 39 -39q25 -1 64 38q42 44 84 112t80 152.5t69 179t52.5 190.5t30.5 187.5t3 171
t-31 139.5q-30 70 -69 79q-35 0 -57 -19.5t-38 -47.5q-6 -10 -3 -10q5 0 16 4.5t28 4.5q15 0 31 -6q24 -13 19.5 -26t-16.5 -13q-4 0 -6 1q-10 4 -14.5 7t-14.5 3h-4h-3q-23 -3 -43 -24t-34.5 -47t-20.5 -45q-31 -103 -48.5 -216t-26 -227t-14.5 -221zM289 895
q10 25 23.5 54.5t32.5 56t44 43t57 16.5q27 0 54.5 -15.5t49.5 -38.5t32 -47q26 -62 32.5 -144t-3 -176.5t-32 -193.5t-55.5 -196t-72.5 -184t-83.5 -157.5t-88 -116.5q-25 -25 -57 -37t-53 -12q-21 1 -39 16t-29 46q-23 52 -27.5 158t12.5 272q7 65 22 139t35.5 149
t46.5 145.5t55 129.5q11 23 22.5 46.5t20.5 46.5z" />
    <glyph glyph-name="Otilde" unicode="&#xd5;" horiz-adv-x="599" 
d="M378 1176q-2 3 -2.5 7t1.5 7q2 4 5 4q2 0 4 -3q7 -10 14 -13.5t13 -3.5q8 0 14.5 3.5t13.5 8.5q9 6 18.5 11.5t21.5 5.5t26 -9q2 -1 3 -5t0 -8q-2 -6 -6 -6l-1 0.5l-1 0.5q-11 7 -21 7t-18.5 -4.5t-15.5 -10.5q-9 -5 -17 -10t-17 -5q-8 0 -17 5t-18 18zM205 149
q0 -16 -17 -16q-7 0 -11.5 5t-4.5 12q5 121 15 236.5t30 235.5q3 15 3.5 20.5t-0.5 5.5t-5.5 -12t-10 -28.5t-9.5 -30t-5 -16.5q-23 -79 -41.5 -162t-27.5 -164q-16 -161 -12.5 -263t23.5 -151q18 -39 39 -39q25 -1 64 38q42 44 84 112t80 152.5t69 179t52.5 190.5
t30.5 187.5t3 171t-31 139.5q-30 70 -69 79q-35 0 -57 -19.5t-38 -47.5q-6 -10 -3 -10q5 0 16 4.5t28 4.5q15 0 31 -6q24 -13 19.5 -26t-16.5 -13q-4 0 -6 1q-10 4 -14.5 7t-14.5 3h-4h-3q-23 -3 -43 -24t-34.5 -47t-20.5 -45q-31 -103 -48.5 -216t-26 -227t-14.5 -221z
M289 895q10 25 23.5 54.5t32.5 56t44 43t57 16.5q27 0 54.5 -15.5t49.5 -38.5t32 -47q26 -62 32.5 -144t-3 -176.5t-32 -193.5t-55.5 -196t-72.5 -184t-83.5 -157.5t-88 -116.5q-25 -25 -57 -37t-53 -12q-21 1 -39 16t-29 46q-23 52 -27.5 158t12.5 272q7 65 22 139
t35.5 149t46.5 145.5t55 129.5q11 23 22.5 46.5t20.5 46.5z" />
    <glyph glyph-name="Odieresis" unicode="&#xd6;" horiz-adv-x="599" 
d="M205 149q0 -16 -17 -16q-7 0 -11.5 5t-4.5 12q5 121 15 236.5t30 235.5q3 15 3.5 20.5t-0.5 5.5t-5.5 -12t-10 -28.5t-9.5 -30t-5 -16.5q-23 -79 -41.5 -162t-27.5 -164q-16 -161 -12.5 -263t23.5 -151q18 -39 39 -39q25 -1 64 38q42 44 84 112t80 152.5t69 179
t52.5 190.5t30.5 187.5t3 171t-31 139.5q-30 70 -69 79q-35 0 -57 -19.5t-38 -47.5q-6 -10 -3 -10q5 0 16 4.5t28 4.5q15 0 31 -6q24 -13 19.5 -26t-16.5 -13q-4 0 -6 1q-10 4 -14.5 7t-14.5 3h-4h-3q-23 -3 -43 -24t-34.5 -47t-20.5 -45q-31 -103 -48.5 -216t-26 -227
t-14.5 -221zM289 895q10 25 23.5 54.5t32.5 56t44 43t57 16.5q27 0 54.5 -15.5t49.5 -38.5t32 -47q26 -62 32.5 -144t-3 -176.5t-32 -193.5t-55.5 -196t-72.5 -184t-83.5 -157.5t-88 -116.5q-25 -25 -57 -37t-53 -12q-21 1 -39 16t-29 46q-23 52 -27.5 158t12.5 272
q7 65 22 139t35.5 149t46.5 145.5t55 129.5q11 23 22.5 46.5t20.5 46.5zM234 1616q-17 1 -19.5 11.5t4 22.5t17.5 16q3 1 6 1.5t6 0.5q16 0 22 -13t-1.5 -26t-29.5 -13h-3h-2zM348 1617q-17 1 -19.5 12t4 22.5t17.5 15.5q3 1 6 1.5t6 0.5q16 0 22 -13t-1.5 -26t-29.5 -13h-3
h-2z" />
    <glyph glyph-name="multiply" unicode="&#xd7;" horiz-adv-x="293" 
d="M112 338q-3 8 0.5 15t10.5 10q2 1 6 1q14 0 19 -13q3 -7 14 -26.5t22.5 -37t16.5 -18.5h1h1q7 0 20 9t24.5 19.5t16.5 14.5l30 24l30 24q4 4 11 4q10 0 16 -7q5 -7 4 -15t-8 -12q-7 -6 -24.5 -20t-38 -30.5t-36.5 -30t-19 -18.5q-7 -10 3.5 -26t16.5 -26q5 -7 17 -27
t23 -40t13 -27q1 -8 -4.5 -13.5t-13.5 -5.5q-12 0 -19 15q-8 17 -21 35.5t-23 35.5q-12 21 -19 31t-14 10q-8 0 -18 -9.5t-30 -25.5q-8 -8 -16.5 -15t-17.5 -15l-43 -37q-5 -5 -12 -5q-10 0 -15 8q-5 6 -4.5 14t6.5 12l43 37q7 6 24 20.5t33 28t20 17.5q8 11 5.5 20t-8.5 20
q-9 17 -22 37.5t-21 37.5z" />
    <glyph glyph-name="Oslash" unicode="&#xd8;" horiz-adv-x="780" 
d="M720 358q0 -171 -86.5 -269.5t-242.5 -98.5q-113 0 -185 47l-48 -68l-61 40l52 74q-88 97 -88 276q0 174 85.5 270t245.5 96q100 0 178 -45l46 66l61 -41l-51 -71q94 -99 94 -276zM625 358q0 129 -51 202l-320 -454q56 -38 137 -38q115 0 174.5 73t59.5 217zM156 358
q0 -126 47 -198l319 451q-53 35 -130 35q-116 0 -176 -73.5t-60 -214.5z" />
    <glyph glyph-name="Ugrave" unicode="&#xd9;" horiz-adv-x="823" 
d="M664 1144l-56 67q-5 5 -4 11q1 7 7 11q3 3 8 4q11 2 17 -6l57 -67q6 -8 4.5 -12.5t-8.5 -9.5q-3 -2 -8 -4q-10 -2 -17 6zM323 -136q-39 -37 -74 -54t-65 -17q-48 0 -78 42.5t-33 119.5t8.5 177t41.5 230t82 295t130 372q3 7 10 9.5t14 2.5q13 0 25 -6.5t7 -17.5
q-78 -205 -128.5 -369t-78.5 -292.5t-38 -227t-7 -173.5q4 -125 56 -125q37 0 102 61q103 101 198 218.5t163 246.5q12 20 22.5 45t20.5 46q61 133 111 265.5t115 263.5q4 10 22 10q13 0 26 -7.5t8 -18.5q-45 -99 -80.5 -197t-73.5 -195t-88 -193q-20 -39 -41 -95
t-40 -120.5t-35.5 -129.5t-28.5 -123.5t-18 -102.5q-2 -10 -18 -26t-33 -16q-3 0 -9 2q-8 3 -9.5 13.5t1 23.5t3.5 22q4 23 13 63.5t20.5 87t21.5 87.5t15 63q9 43 0 43q-4 0 -10 -11q-53 -86 -116 -154t-134 -138z" />
    <glyph glyph-name="Uacute" unicode="&#xda;" horiz-adv-x="823" 
d="M772 1207l-67 -56q-5 -5 -11.5 -4t-10.5 7q-3 3 -4 8q-2 11 6 17l67 57q5 4 11.5 3t10.5 -7q3 -4 4 -8q2 -10 -6 -17zM323 -136q-39 -37 -74 -54t-65 -17q-48 0 -78 42.5t-33 119.5t8.5 177t41.5 230t82 295t130 372q3 7 10 9.5t14 2.5q13 0 25 -6.5t7 -17.5
q-78 -205 -128.5 -369t-78.5 -292.5t-38 -227t-7 -173.5q4 -125 56 -125q37 0 102 61q103 101 198 218.5t163 246.5q12 20 22.5 45t20.5 46q61 133 111 265.5t115 263.5q4 10 22 10q13 0 26 -7.5t8 -18.5q-45 -99 -80.5 -197t-73.5 -195t-88 -193q-20 -39 -41 -95
t-40 -120.5t-35.5 -129.5t-28.5 -123.5t-18 -102.5q-2 -10 -18 -26t-33 -16q-3 0 -9 2q-8 3 -9.5 13.5t1 23.5t3.5 22q4 23 13 63.5t20.5 87t21.5 87.5t15 63q9 43 0 43q-4 0 -10 -11q-53 -86 -116 -154t-134 -138z" />
    <glyph glyph-name="Ucircumflex" unicode="&#xdb;" horiz-adv-x="823" 
d="M733 1134l-56 67q-5 5 -4 11q1 7 7 11q3 3 8 4q11 2 17 -6l57 -67q6 -8 4.5 -12.5t-8.5 -9.5q-3 -2 -8 -4q-10 -2 -17 6zM702 1197l-67 -56q-5 -5 -11.5 -4t-10.5 7q-3 3 -4 8q-2 11 6 17l67 57q5 4 11.5 3t10.5 -7q3 -4 4 -8q2 -10 -6 -17zM323 -136q-39 -37 -74 -54
t-65 -17q-48 0 -78 42.5t-33 119.5t8.5 177t41.5 230t82 295t130 372q3 7 10 9.5t14 2.5q13 0 25 -6.5t7 -17.5q-78 -205 -128.5 -369t-78.5 -292.5t-38 -227t-7 -173.5q4 -125 56 -125q37 0 102 61q103 101 198 218.5t163 246.5q12 20 22.5 45t20.5 46q61 133 111 265.5
t115 263.5q4 10 22 10q13 0 26 -7.5t8 -18.5q-45 -99 -80.5 -197t-73.5 -195t-88 -193q-20 -39 -41 -95t-40 -120.5t-35.5 -129.5t-28.5 -123.5t-18 -102.5q-2 -10 -18 -26t-33 -16q-3 0 -9 2q-8 3 -9.5 13.5t1 23.5t3.5 22q4 23 13 63.5t20.5 87t21.5 87.5t15 63q9 43 0 43
q-4 0 -10 -11q-53 -86 -116 -154t-134 -138z" />
    <glyph glyph-name="Udieresis" unicode="&#xdc;" horiz-adv-x="823" 
d="M323 -136q-39 -37 -74 -54t-65 -17q-48 0 -78 42.5t-33 119.5t8.5 177t41.5 230t82 295t130 372q3 7 10 9.5t14 2.5q13 0 25 -6.5t7 -17.5q-78 -205 -128.5 -369t-78.5 -292.5t-38 -227t-7 -173.5q4 -125 56 -125q37 0 102 61q103 101 198 218.5t163 246.5q12 20 22.5 45
t20.5 46q61 133 111 265.5t115 263.5q4 10 22 10q13 0 26 -7.5t8 -18.5q-45 -99 -80.5 -197t-73.5 -195t-88 -193q-20 -39 -41 -95t-40 -120.5t-35.5 -129.5t-28.5 -123.5t-18 -102.5q-2 -10 -18 -26t-33 -16q-3 0 -9 2q-8 3 -9.5 13.5t1 23.5t3.5 22q4 23 13 63.5t20.5 87
t21.5 87.5t15 63q9 43 0 43q-4 0 -10 -11q-53 -86 -116 -154t-134 -138zM345 1616q-17 1 -19.5 11.5t4 22.5t17.5 16q3 1 6 1.5t6 0.5q16 0 22 -13t-1.5 -26t-29.5 -13h-3h-2zM459 1617q-17 1 -19.5 12t4 22.5t17.5 15.5q3 1 6 1.5t6 0.5q16 0 22 -13t-1.5 -26t-29.5 -13h-3
h-2z" />
    <glyph glyph-name="Yacute" unicode="&#xdd;" horiz-adv-x="565" 
d="M295 1017q0 10 6.5 11.5t13.5 1.5q6 -1 11 -6.5t5 -13.5q2 -83 5 -147t6.5 -116.5t7.5 -101t7.5 -100.5t6.5 -116q2 -29 2.5 -43t4.5 -14q3 0 10.5 14.5t22.5 42.5t25 45t19 31t20.5 31t29.5 45q54 89 124 194.5t156 234.5q4 7 18 7q16 0 32 -9.5t9 -20.5
q-114 -168 -225 -338t-210 -348q45 22 88.5 42t86.5 37q8 4 17 4q15 0 16 -11.5t-18 -18.5q-52 -23 -105 -47.5t-106 -53.5q-31 -58 -57 -116.5t-49 -120.5q-20 -60 -41 -120.5t-35 -128.5q-1 -7 -8 -9.5t-16 -2.5q-13 0 -25 6t-10 16l7 21q0 37 -2 83.5t-8 93.5
q-6 35 -15 58t-15.5 38t-5.5 26.5t14 25.5t44 34q36 25 76 50t81 47q7 17 17 32q5 13 3.5 27t-2.5 28q-9 169 -22.5 333t-16.5 343zM174 -93q9 31 18.5 61t17.5 59q14 31 37 80.5t47 96.5q-32 -17 -63 -35t-59 -40q-27 -18 -34.5 -29t-3 -24t15 -35t17.5 -61q2 -17 3.5 -36
t3.5 -37zM216 783q19 23 47.5 66.5t47.5 81.5h106v-10q-21 -31 -66.5 -78.5t-76.5 -71.5h-58v12z" />
    <glyph glyph-name="Thorn" unicode="&#xde;" horiz-adv-x="604" 
d="M554 382q0 -110 -73.5 -168.5t-212.5 -58.5h-81v-155h-90v714h90v-124h96q137 0 204 -51.5t67 -156.5zM187 231h72q108 0 155 34.5t47 111.5q0 70 -44.5 103t-140.5 33h-89v-282z" />
    <glyph glyph-name="germandbls" unicode="&#xdf;" horiz-adv-x="685" 
d="M60 21q-6 3 -7.5 9.5t2.5 12.5q4 7 14 7q4 0 8 -2q8 -6 30.5 -18t47 -22t38.5 -10q5 0 9 2q6 4 13.5 18t13.5 30t10 23q64 140 129.5 281.5t134.5 278.5q11 23 22.5 45t24.5 45q5 9 18.5 29.5t32.5 45.5t41 48.5t43.5 38.5t40.5 15q12 0 23 -8q17 -14 20 -41.5t-3 -60
t-15.5 -61.5t-17.5 -46q-16 -35 -36 -65.5t-47 -58.5q71 -79 93 -155.5t8 -146.5q-15 -70 -58.5 -126t-105 -95t-131 -59.5t-136.5 -20.5q-11 0 -22.5 0.5t-22.5 1.5q-3 0 -6 0.5t-5 0.5q-22 0 -28 -11.5t-16 -34.5q-13 -32 -28.5 -64.5t-29.5 -64.5q-16 -35 -29 -64.5
t-24 -52.5q-4 -9 -15 -9q-5 0 -7 1q-5 3 -17 9.5t-9 12.5q8 15 21 45.5t32 70.5q4 8 15 32t23.5 52t22 49.5t10.5 25.5q2 8 -1.5 11t-10.5 5q-14 4 -25 7.5t-24 9.5q-18 7 -33 15t-31 19zM499 23q51 22 97 56.5t79 80.5t45 102q13 64 -10 137t-94 147q-10 12 1 23v1
q32 29 59 71.5t44 90t18 91.5q0 4 -0.5 14.5t-3 19.5t-9.5 9q-2 0 -2.5 -0.5t-1.5 -0.5q-15 -6 -33.5 -26.5t-36 -46.5t-32 -50t-22.5 -37q-40 -72 -77 -148.5t-72 -150.5q-45 -96 -89.5 -192t-88.5 -192q-12 -26 -3 -31.5t31 -5.5q55 0 103 8.5t98 29.5z" />
    <glyph glyph-name="agrave" unicode="&#xe0;" horiz-adv-x="447" 
d="M154 488l-56 67q-5 5 -4 11q1 7 7 11q3 3 8 4q11 2 17 -6l57 -67q6 -8 4.5 -12.5t-8.5 -9.5q-3 -2 -8 -4q-10 -2 -17 6zM280 351q8 -11 6 -23.5t-10 -22t-19 -9.5q-9 0 -18 10q-19 23 -36.5 33t-33.5 10q-28 0 -51.5 -22.5t-46.5 -50.5q-6 -9 -18.5 -26t-25 -37.5
t-21 -39.5t-6.5 -31q1 -9 9 -9q11 0 31.5 15.5t44 38t45.5 46t37.5 41t18.5 20.5q15 14 28 14q16 0 25 -19t17.5 -44.5t20.5 -47t34 -26.5q3 -1 10 -1q23 0 49.5 18t49 41t34.5 36q7 8 17 8q8 0 12 -4q6 -6 6.5 -14.5t-4.5 -15.5q-34 -37 -62.5 -60t-53.5 -36
q-26 -10 -47 -10q-31 0 -51.5 16t-34 37t-22.5 37.5t-17 17.5q-5 1 -19 -13t-34 -36t-43 -44t-47 -37t-46 -15q-17 0 -30 10l-3 3q-18 17 -17.5 45.5t12.5 60.5t27 58.5t26 39.5q31 39 71 68.5t83 29.5q26 0 52 -14t51 -46z" />
    <glyph glyph-name="aacute" unicode="&#xe1;" horiz-adv-x="447" 
d="M242 540l-67 -56q-5 -5 -11.5 -4t-10.5 7q-3 3 -4 8q-2 11 6 17l67 57q5 4 11.5 3t10.5 -7q3 -4 4 -8q2 -10 -6 -17zM280 351q8 -11 6 -23.5t-10 -22t-19 -9.5q-9 0 -18 10q-19 23 -36.5 33t-33.5 10q-28 0 -51.5 -22.5t-46.5 -50.5q-6 -9 -18.5 -26t-25 -37.5t-21 -39.5
t-6.5 -31q1 -9 9 -9q11 0 31.5 15.5t44 38t45.5 46t37.5 41t18.5 20.5q15 14 28 14q16 0 25 -19t17.5 -44.5t20.5 -47t34 -26.5q3 -1 10 -1q23 0 49.5 18t49 41t34.5 36q7 8 17 8q8 0 12 -4q6 -6 6.5 -14.5t-4.5 -15.5q-34 -37 -62.5 -60t-53.5 -36q-26 -10 -47 -10
q-31 0 -51.5 16t-34 37t-22.5 37.5t-17 17.5q-5 1 -19 -13t-34 -36t-43 -44t-47 -37t-46 -15q-17 0 -30 10l-3 3q-18 17 -17.5 45.5t12.5 60.5t27 58.5t26 39.5q31 39 71 68.5t83 29.5q26 0 52 -14t51 -46z" />
    <glyph glyph-name="acircumflex" unicode="&#xe2;" horiz-adv-x="447" 
d="M233 467l-56 67q-5 5 -4 11q1 7 7 11q3 3 8 4q11 2 17 -6l57 -67q6 -8 4.5 -12.5t-8.5 -9.5q-3 -2 -8 -4q-10 -2 -17 6zM202 530l-67 -56q-5 -5 -11.5 -4t-10.5 7q-3 3 -4 8q-2 11 6 17l67 57q5 4 11.5 3t10.5 -7q3 -4 4 -8q2 -10 -6 -17zM280 351q8 -11 6 -23.5t-10 -22
t-19 -9.5q-9 0 -18 10q-19 23 -36.5 33t-33.5 10q-28 0 -51.5 -22.5t-46.5 -50.5q-6 -9 -18.5 -26t-25 -37.5t-21 -39.5t-6.5 -31q1 -9 9 -9q11 0 31.5 15.5t44 38t45.5 46t37.5 41t18.5 20.5q15 14 28 14q16 0 25 -19t17.5 -44.5t20.5 -47t34 -26.5q3 -1 10 -1
q23 0 49.5 18t49 41t34.5 36q7 8 17 8q8 0 12 -4q6 -6 6.5 -14.5t-4.5 -15.5q-34 -37 -62.5 -60t-53.5 -36q-26 -10 -47 -10q-31 0 -51.5 16t-34 37t-22.5 37.5t-17 17.5q-5 1 -19 -13t-34 -36t-43 -44t-47 -37t-46 -15q-17 0 -30 10l-3 3q-18 17 -17.5 45.5t12.5 60.5
t27 58.5t26 39.5q31 39 71 68.5t83 29.5q26 0 52 -14t51 -46z" />
    <glyph glyph-name="atilde" unicode="&#xe3;" horiz-adv-x="447" 
d="M78 516q-2 3 -2.5 7t1.5 7q2 4 5 4q2 0 4 -3q7 -10 14 -13.5t13 -3.5q8 0 14.5 3.5t13.5 8.5q9 6 18.5 11.5t21.5 5.5t26 -9q2 -1 3 -5t0 -8q-2 -6 -6 -6l-1 0.5l-1 0.5q-11 7 -21 7t-18.5 -4.5t-15.5 -10.5q-9 -5 -17 -10t-17 -5q-8 0 -17 5t-18 18zM280 351
q8 -11 6 -23.5t-10 -22t-19 -9.5q-9 0 -18 10q-19 23 -36.5 33t-33.5 10q-28 0 -51.5 -22.5t-46.5 -50.5q-6 -9 -18.5 -26t-25 -37.5t-21 -39.5t-6.5 -31q1 -9 9 -9q11 0 31.5 15.5t44 38t45.5 46t37.5 41t18.5 20.5q15 14 28 14q16 0 25 -19t17.5 -44.5t20.5 -47t34 -26.5
q3 -1 10 -1q23 0 49.5 18t49 41t34.5 36q7 8 17 8q8 0 12 -4q6 -6 6.5 -14.5t-4.5 -15.5q-34 -37 -62.5 -60t-53.5 -36q-26 -10 -47 -10q-31 0 -51.5 16t-34 37t-22.5 37.5t-17 17.5q-5 1 -19 -13t-34 -36t-43 -44t-47 -37t-46 -15q-17 0 -30 10l-3 3q-18 17 -17.5 45.5
t12.5 60.5t27 58.5t26 39.5q31 39 71 68.5t83 29.5q26 0 52 -14t51 -46z" />
    <glyph glyph-name="adieresis" unicode="&#xe4;" horiz-adv-x="447" 
d="M280 351q8 -11 6 -23.5t-10 -22t-19 -9.5q-9 0 -18 10q-19 23 -36.5 33t-33.5 10q-28 0 -51.5 -22.5t-46.5 -50.5q-6 -9 -18.5 -26t-25 -37.5t-21 -39.5t-6.5 -31q1 -9 9 -9q11 0 31.5 15.5t44 38t45.5 46t37.5 41t18.5 20.5q15 14 28 14q16 0 25 -19t17.5 -44.5
t20.5 -47t34 -26.5q3 -1 10 -1q23 0 49.5 18t49 41t34.5 36q7 8 17 8q8 0 12 -4q6 -6 6.5 -14.5t-4.5 -15.5q-34 -37 -62.5 -60t-53.5 -36q-26 -10 -47 -10q-31 0 -51.5 16t-34 37t-22.5 37.5t-17 17.5q-5 1 -19 -13t-34 -36t-43 -44t-47 -37t-46 -15q-17 0 -30 10l-3 3
q-18 17 -17.5 45.5t12.5 60.5t27 58.5t26 39.5q31 39 71 68.5t83 29.5q26 0 52 -14t51 -46zM104 468h3h2q23 0 30 13t1 26t-22 13q-3 0 -6 -0.5t-6 -1.5q-12 -4 -18 -16t-3 -22.5t19 -11.5zM218 469h3h2q23 0 30 13t1 26t-22 13q-3 0 -6 -0.5t-6 -1.5q-12 -4 -18 -15.5
t-3 -22.5t19 -12z" />
    <glyph glyph-name="aring" unicode="&#xe5;" horiz-adv-x="447" 
d="M280 351q8 -11 6 -23.5t-10 -22t-19 -9.5q-9 0 -18 10q-19 23 -36.5 33t-33.5 10q-28 0 -51.5 -22.5t-46.5 -50.5q-6 -9 -18.5 -26t-25 -37.5t-21 -39.5t-6.5 -31q1 -9 9 -9q11 0 31.5 15.5t44 38t45.5 46t37.5 41t18.5 20.5q15 14 28 14q16 0 25 -19t17.5 -44.5
t20.5 -47t34 -26.5q3 -1 10 -1q23 0 49.5 18t49 41t34.5 36q7 8 17 8q8 0 12 -4q6 -6 6.5 -14.5t-4.5 -15.5q-34 -37 -62.5 -60t-53.5 -36q-26 -10 -47 -10q-31 0 -51.5 16t-34 37t-22.5 37.5t-17 17.5q-5 1 -19 -13t-34 -36t-43 -44t-47 -37t-46 -15q-17 0 -30 10l-3 3
q-18 17 -17.5 45.5t12.5 60.5t27 58.5t26 39.5q31 39 71 68.5t83 29.5q26 0 52 -14t51 -46z" />
    <glyph glyph-name="ae" unicode="&#xe6;" horiz-adv-x="447" 
 />
    <glyph glyph-name="ccedilla" unicode="&#xe7;" horiz-adv-x="293" 
 />
    <glyph glyph-name="egrave" unicode="&#xe8;" horiz-adv-x="279" 
d="M94 424l-56 67q-5 5 -4 11q1 7 7 11q3 3 8 4q11 2 17 -6l57 -67q6 -8 4.5 -12.5t-8.5 -9.5q-3 -2 -8 -4q-10 -2 -17 6zM47 195q-5 -31 8.5 -40t33.5 -9q38 0 72 17.5t64 44t52 53.5q9 12 20 12q9 0 14.5 -8.5t1.5 -16.5q-10 -26 -36 -51t-59.5 -45.5t-68 -33t-62.5 -12.5
q-44 0 -69.5 23t-30.5 58.5t13 76t60 74.5q11 9 22.5 13t22.5 4q24 0 38.5 -17t5 -47.5t-57.5 -68.5q-21 -16 -31.5 -18t-12.5 -9zM116 310q1 2 -12.5 -5t-27.5 -21t-16 -32q7 4 18.5 15t22.5 23t15 20zM117 314q-1 0 0.5 0t-0.5 0z" />
    <glyph glyph-name="eacute" unicode="&#xe9;" horiz-adv-x="279" 
d="M172 480l-67 -56q-5 -5 -11.5 -4t-10.5 7q-3 3 -4 8q-2 11 6 17l67 57q5 4 11.5 3t10.5 -7q3 -4 4 -8q2 -10 -6 -17zM47 195q-5 -31 8.5 -40t33.5 -9q38 0 72 17.5t64 44t52 53.5q9 12 20 12q9 0 14.5 -8.5t1.5 -16.5q-10 -26 -36 -51t-59.5 -45.5t-68 -33t-62.5 -12.5
q-44 0 -69.5 23t-30.5 58.5t13 76t60 74.5q11 9 22.5 13t22.5 4q24 0 38.5 -17t5 -47.5t-57.5 -68.5q-21 -16 -31.5 -18t-12.5 -9zM116 310q1 2 -12.5 -5t-27.5 -21t-16 -32q7 4 18.5 15t22.5 23t15 20zM117 314q-1 0 0.5 0t-0.5 0z" />
    <glyph glyph-name="ecircumflex" unicode="&#xea;" horiz-adv-x="279" 
d="M163 427l-56 67q-5 5 -4 11q1 7 7 11q3 3 8 4q11 2 17 -6l57 -67q6 -8 4.5 -12.5t-8.5 -9.5q-3 -2 -8 -4q-10 -2 -17 6zM132 490l-67 -56q-5 -5 -11.5 -4t-10.5 7q-3 3 -4 8q-2 11 6 17l67 57q5 4 11.5 3t10.5 -7q3 -4 4 -8q2 -10 -6 -17zM47 195q-5 -31 8.5 -40t33.5 -9
q38 0 72 17.5t64 44t52 53.5q9 12 20 12q9 0 14.5 -8.5t1.5 -16.5q-10 -26 -36 -51t-59.5 -45.5t-68 -33t-62.5 -12.5q-44 0 -69.5 23t-30.5 58.5t13 76t60 74.5q11 9 22.5 13t22.5 4q24 0 38.5 -17t5 -47.5t-57.5 -68.5q-21 -16 -31.5 -18t-12.5 -9zM116 310q1 2 -12.5 -5
t-27.5 -21t-16 -32q7 4 18.5 15t22.5 23t15 20zM117 314q-1 0 0.5 0t-0.5 0z" />
    <glyph glyph-name="edieresis" unicode="&#xeb;" horiz-adv-x="279" 
d="M46 377h3h2q23 0 30 13t1 26t-22 13q-3 0 -6 -0.5t-6 -1.5q-12 -4 -18 -15.5t-3 -22.5t19 -12zM160 378h3h2q23 0 30 13t1 26t-22 13q-3 0 -6 -0.5t-6 -1.5q-12 -4 -18 -16t-3 -22.5t19 -11.5zM47 195q-5 -31 8.5 -40t33.5 -9q38 0 72 17.5t64 44t52 53.5q9 12 20 12
q9 0 14.5 -8.5t1.5 -16.5q-10 -26 -36 -51t-59.5 -45.5t-68 -33t-62.5 -12.5q-44 0 -69.5 23t-30.5 58.5t13 76t60 74.5q11 9 22.5 13t22.5 4q24 0 38.5 -17t5 -47.5t-57.5 -68.5q-21 -16 -31.5 -18t-12.5 -9zM116 310q1 2 -12.5 -5t-27.5 -21t-16 -32q7 4 18.5 15t22.5 23
t15 20zM117 314q-1 0 0.5 0t-0.5 0z" />
    <glyph glyph-name="igrave" unicode="&#xec;" horiz-adv-x="331" 
d="M44 484l-56 67q-5 5 -4 11q1 7 7 11q3 3 8 4q11 2 17 -6l57 -67q6 -8 4.5 -12.5t-8.5 -9.5q-3 -2 -8 -4q-10 -2 -17 6zM103 111l9 1q37 10 78 35t78.5 56t64.5 58q6 5 14 5t12 -5q12 -14 0 -26q-21 -22 -53.5 -49t-71 -52t-78 -41t-75.5 -16q-13 0 -27 3q-28 8 -44 40
t-20 73.5t3 77.5q3 17 15.5 30.5t24.5 13.5q10 0 16.5 -12.5t1.5 -43.5q-5 -40 -5 -74t10 -55t33 -21q3 0 6.5 0.5t7.5 1.5z" />
    <glyph glyph-name="iacute" unicode="&#xed;" horiz-adv-x="331" 
d="M132 520l-67 -56q-5 -5 -11.5 -4t-10.5 7q-3 3 -4 8q-2 11 6 17l67 57q5 4 11.5 3t10.5 -7q3 -4 4 -8q2 -10 -6 -17zM103 111l9 1q37 10 78 35t78.5 56t64.5 58q6 5 14 5t12 -5q12 -14 0 -26q-21 -22 -53.5 -49t-71 -52t-78 -41t-75.5 -16q-13 0 -27 3q-28 8 -44 40
t-20 73.5t3 77.5q3 17 15.5 30.5t24.5 13.5q10 0 16.5 -12.5t1.5 -43.5q-5 -40 -5 -74t10 -55t33 -21q3 0 6.5 0.5t7.5 1.5z" />
    <glyph glyph-name="icircumflex" unicode="&#xee;" horiz-adv-x="331" 
d="M83 474l-56 67q-5 5 -4 11q1 7 7 11q3 3 8 4q11 2 17 -6l57 -67q6 -8 4.5 -12.5t-8.5 -9.5q-3 -2 -8 -4q-10 -2 -17 6zM52 537l-67 -56q-5 -5 -11.5 -4t-10.5 7q-3 3 -4 8q-2 11 6 17l67 57q5 4 11.5 3t10.5 -7q3 -4 4 -8q2 -10 -6 -17zM103 111l9 1q37 10 78 35t78.5 56
t64.5 58q6 5 14 5t12 -5q12 -14 0 -26q-21 -22 -53.5 -49t-71 -52t-78 -41t-75.5 -16q-13 0 -27 3q-28 8 -44 40t-20 73.5t3 77.5q3 17 15.5 30.5t24.5 13.5q10 0 16.5 -12.5t1.5 -43.5q-5 -40 -5 -74t10 -55t33 -21q3 0 6.5 0.5t7.5 1.5z" />
    <glyph glyph-name="idieresis" unicode="&#xef;" horiz-adv-x="331" 
d="M-14 447h3h2q23 0 30 13t1 26t-22 13q-3 0 -6 -0.5t-6 -1.5q-12 -4 -18 -15.5t-3 -22.5t19 -12zM100 448h3h2q23 0 30 13t1 26t-22 13q-3 0 -6 -0.5t-6 -1.5q-12 -4 -18 -16t-3 -22.5t19 -11.5zM103 111l9 1q37 10 78 35t78.5 56t64.5 58q6 5 14 5t12 -5q12 -14 0 -26
q-21 -22 -53.5 -49t-71 -52t-78 -41t-75.5 -16q-13 0 -27 3q-28 8 -44 40t-20 73.5t3 77.5q3 17 15.5 30.5t24.5 13.5q10 0 16.5 -12.5t1.5 -43.5q-5 -40 -5 -74t10 -55t33 -21q3 0 6.5 0.5t7.5 1.5z" />
    <glyph glyph-name="eth" unicode="&#xf0;" horiz-adv-x="604" 
d="M551 275q0 -138 -65 -211.5t-185 -73.5q-110 0 -178 66.5t-68 176.5q0 112 63.5 176t171.5 64q110 0 156 -58l4 2q-29 104 -124 191l-130 -75l-38 55l112 64q-42 28 -90 53l36 60q76 -36 126 -72l115 67l38 -54l-99 -57q74 -68 114.5 -164.5t40.5 -209.5zM462 251
q0 70 -43 110.5t-116 40.5q-81 0 -120 -42.5t-39 -129.5q0 -81 41 -124.5t118 -43.5q83 0 121 48.5t38 140.5z" />
    <glyph glyph-name="ntilde" unicode="&#xf1;" horiz-adv-x="528" 
d="M78 486q-2 3 -2.5 7t1.5 7q2 4 5 4q2 0 4 -3q7 -10 14 -13.5t13 -3.5q8 0 14.5 3.5t13.5 8.5q9 6 18.5 11.5t21.5 5.5t26 -9q2 -1 3 -5t0 -8q-2 -6 -6 -6l-1 0.5l-1 0.5q-11 7 -21 7t-18.5 -4.5t-15.5 -10.5q-9 -5 -17 -10t-17 -5q-8 0 -17 5t-18 18zM167 334
q13 -3 28 -17t29.5 -33.5t26 -39t18.5 -31.5q16 -28 38 -51.5t56 -23.5q29 0 60 22t58 50.5t44 49.5q6 7 16 7q7 0 11 -4q6 -5 7 -13t-4 -14q-29 -36 -54 -63.5t-57 -45.5t-83 -25q-6 -1 -11.5 -1.5t-10.5 -0.5q-36 0 -61 16t-43 42t-32 56t-28 58q-13 25 -22 25t-26 -25
q-28 -39 -52.5 -86.5t-48.5 -90.5q-5 -10 -17 -15.5t-23 -5.5q-13 0 -21.5 7.5t-7.5 25.5q1 17 7 42.5t14.5 54t17.5 54t16 41.5q5 12 13.5 17.5t16.5 5.5q12 0 21.5 -8.5t8.5 -20.5q-1 -10 -6.5 -25.5t-10.5 -29t-5 -17.5q2 0 8.5 10t15 23t16 24t10.5 15q11 15 25.5 28.5
t33.5 13.5q2 0 4 -0.5t4 -0.5z" />
    <glyph glyph-name="ograve" unicode="&#xf2;" horiz-adv-x="481" 
d="M124 500l-56 67q-5 5 -4 11q1 7 7 11q3 3 8 4q11 2 17 -6l57 -67q6 -8 4.5 -12.5t-8.5 -9.5q-3 -2 -8 -4q-10 -2 -17 6zM231 190q-1 -13 5 -14.5t20 -2.5q20 -3 38 -3q54 0 103 25t84 66q7 7 15 7q6 0 13 -5q6 -5 6.5 -13t-4.5 -14q-42 -50 -99.5 -77t-121.5 -27
q-14 0 -28 2t-29 6h-1.5h-1.5q-7 0 -9.5 -8t-6.5 -16q-17 -41 -56.5 -65t-83.5 -24q-38 3 -59.5 29t-30 62t-4.5 68q4 44 23.5 84t52.5 69q15 13 19.5 17.5t7.5 10t12 20.5q9 14 22.5 20.5t27.5 6.5q19 0 37 -11t26 -31q11 -24 16.5 -56.5t6.5 -65.5t0 -60zM152 162l-4 5
q-14 13 -24 20t-24 27q-14 22 -17.5 36t-8.5 38q-3 9 -6 9q-4 0 -8.5 -7t-7.5 -12q-16 -27 -27 -63.5t-8 -72.5t29 -62q15 -15 35 -15q23 0 43 18t29 41.5t-1 37.5zM164 200l4 -2q4 0 4 8v13v35t-2.5 46.5t-7.5 44.5t-15 28q-3 3 -7 3q-6 0 -12 -9t-10 -19.5t-5 -15.5
q-9 -37 6.5 -73t44.5 -59z" />
    <glyph glyph-name="oacute" unicode="&#xf3;" horiz-adv-x="481" 
d="M222 550l-67 -56q-5 -5 -11.5 -4t-10.5 7q-3 3 -4 8q-2 11 6 17l67 57q5 4 11.5 3t10.5 -7q3 -4 4 -8q2 -10 -6 -17zM231 190q-1 -13 5 -14.5t20 -2.5q20 -3 38 -3q54 0 103 25t84 66q7 7 15 7q6 0 13 -5q6 -5 6.5 -13t-4.5 -14q-42 -50 -99.5 -77t-121.5 -27
q-14 0 -28 2t-29 6h-1.5h-1.5q-7 0 -9.5 -8t-6.5 -16q-17 -41 -56.5 -65t-83.5 -24q-38 3 -59.5 29t-30 62t-4.5 68q4 44 23.5 84t52.5 69q15 13 19.5 17.5t7.5 10t12 20.5q9 14 22.5 20.5t27.5 6.5q19 0 37 -11t26 -31q11 -24 16.5 -56.5t6.5 -65.5t0 -60zM152 162l-4 5
q-14 13 -24 20t-24 27q-14 22 -17.5 36t-8.5 38q-3 9 -6 9q-4 0 -8.5 -7t-7.5 -12q-16 -27 -27 -63.5t-8 -72.5t29 -62q15 -15 35 -15q23 0 43 18t29 41.5t-1 37.5zM164 200l4 -2q4 0 4 8v13v35t-2.5 46.5t-7.5 44.5t-15 28q-3 3 -7 3q-6 0 -12 -9t-10 -19.5t-5 -15.5
q-9 -37 6.5 -73t44.5 -59z" />
    <glyph glyph-name="ocircumflex" unicode="&#xf4;" horiz-adv-x="481" 
d="M203 467l-56 67q-5 5 -4 11q1 7 7 11q3 3 8 4q11 2 17 -6l57 -67q6 -8 4.5 -12.5t-8.5 -9.5q-3 -2 -8 -4q-10 -2 -17 6zM172 530l-67 -56q-5 -5 -11.5 -4t-10.5 7q-3 3 -4 8q-2 11 6 17l67 57q5 4 11.5 3t10.5 -7q3 -4 4 -8q2 -10 -6 -17zM231 190q-1 -13 5 -14.5
t20 -2.5q20 -3 38 -3q54 0 103 25t84 66q7 7 15 7q6 0 13 -5q6 -5 6.5 -13t-4.5 -14q-42 -50 -99.5 -77t-121.5 -27q-14 0 -28 2t-29 6h-1.5h-1.5q-7 0 -9.5 -8t-6.5 -16q-17 -41 -56.5 -65t-83.5 -24q-38 3 -59.5 29t-30 62t-4.5 68q4 44 23.5 84t52.5 69q15 13 19.5 17.5
t7.5 10t12 20.5q9 14 22.5 20.5t27.5 6.5q19 0 37 -11t26 -31q11 -24 16.5 -56.5t6.5 -65.5t0 -60zM152 162l-4 5q-14 13 -24 20t-24 27q-14 22 -17.5 36t-8.5 38q-3 9 -6 9q-4 0 -8.5 -7t-7.5 -12q-16 -27 -27 -63.5t-8 -72.5t29 -62q15 -15 35 -15q23 0 43 18t29 41.5
t-1 37.5zM164 200l4 -2q4 0 4 8v13v35t-2.5 46.5t-7.5 44.5t-15 28q-3 3 -7 3q-6 0 -12 -9t-10 -19.5t-5 -15.5q-9 -37 6.5 -73t44.5 -59z" />
    <glyph glyph-name="otilde" unicode="&#xf5;" horiz-adv-x="481" 
d="M78 516q-2 3 -2.5 7t1.5 7q2 4 5 4q2 0 4 -3q7 -10 14 -13.5t13 -3.5q8 0 14.5 3.5t13.5 8.5q9 6 18.5 11.5t21.5 5.5t26 -9q2 -1 3 -5t0 -8q-2 -6 -6 -6l-1 0.5l-1 0.5q-11 7 -21 7t-18.5 -4.5t-15.5 -10.5q-9 -5 -17 -10t-17 -5q-8 0 -17 5t-18 18zM231 190
q-1 -13 5 -14.5t20 -2.5q20 -3 38 -3q54 0 103 25t84 66q7 7 15 7q6 0 13 -5q6 -5 6.5 -13t-4.5 -14q-42 -50 -99.5 -77t-121.5 -27q-14 0 -28 2t-29 6h-1.5h-1.5q-7 0 -9.5 -8t-6.5 -16q-17 -41 -56.5 -65t-83.5 -24q-38 3 -59.5 29t-30 62t-4.5 68q4 44 23.5 84t52.5 69
q15 13 19.5 17.5t7.5 10t12 20.5q9 14 22.5 20.5t27.5 6.5q19 0 37 -11t26 -31q11 -24 16.5 -56.5t6.5 -65.5t0 -60zM152 162l-4 5q-14 13 -24 20t-24 27q-14 22 -17.5 36t-8.5 38q-3 9 -6 9q-4 0 -8.5 -7t-7.5 -12q-16 -27 -27 -63.5t-8 -72.5t29 -62q15 -15 35 -15
q23 0 43 18t29 41.5t-1 37.5zM164 200l4 -2q4 0 4 8v13v35t-2.5 46.5t-7.5 44.5t-15 28q-3 3 -7 3q-6 0 -12 -9t-10 -19.5t-5 -15.5q-9 -37 6.5 -73t44.5 -59z" />
    <glyph glyph-name="odieresis" unicode="&#xf6;" horiz-adv-x="481" 
d="M231 190q-1 -13 5 -14.5t20 -2.5q20 -3 38 -3q54 0 103 25t84 66q7 7 15 7q6 0 13 -5q6 -5 6.5 -13t-4.5 -14q-42 -50 -99.5 -77t-121.5 -27q-14 0 -28 2t-29 6h-1.5h-1.5q-7 0 -9.5 -8t-6.5 -16q-17 -41 -56.5 -65t-83.5 -24q-38 3 -59.5 29t-30 62t-4.5 68
q4 44 23.5 84t52.5 69q15 13 19.5 17.5t7.5 10t12 20.5q9 14 22.5 20.5t27.5 6.5q19 0 37 -11t26 -31q11 -24 16.5 -56.5t6.5 -65.5t0 -60zM152 162l-4 5q-14 13 -24 20t-24 27q-14 22 -17.5 36t-8.5 38q-3 9 -6 9q-4 0 -8.5 -7t-7.5 -12q-16 -27 -27 -63.5t-8 -72.5t29 -62
q15 -15 35 -15q23 0 43 18t29 41.5t-1 37.5zM164 200l4 -2q4 0 4 8v13v35t-2.5 46.5t-7.5 44.5t-15 28q-3 3 -7 3q-6 0 -12 -9t-10 -19.5t-5 -15.5q-9 -37 6.5 -73t44.5 -59zM77 456q-17 1 -19.5 11.5t4 22.5t17.5 16q3 1 6 1.5t6 0.5q16 0 22 -13t-1.5 -26t-29.5 -13h-3h-2
zM191 457q-17 1 -19.5 12t4 22.5t17.5 15.5q3 1 6 1.5t6 0.5q16 0 22 -13t-1.5 -26t-29.5 -13h-3h-2z" />
    <glyph glyph-name="divide" unicode="&#xf7;" horiz-adv-x="417" 
d="M114 198q-13 0 -21.5 6.5t-10.5 19.5q-1 11 6.5 20.5t19.5 10.5q8 1 35 1.5t64 0.5q25 0 53.5 -0.5t56.5 -0.5q39 0 69.5 -1.5t44.5 -1.5q9 0 10 1q6 3 13 3q18 0 26 -15q6 -10 3 -22t-14 -17q-5 -3 -29.5 -3.5t-61.5 -0.5h-30h-32h-65h-62h-48t-27 -1zM308 319h4h3
q28 0 41.5 12.5t14.5 29t-9.5 29t-30.5 12.5q-9 0 -19 -3q-18 -6 -29 -24.5t-6 -36t31 -19.5zM206 72h4h3q28 0 41.5 12.5t14.5 29t-9.5 29t-30.5 12.5q-9 0 -19 -3q-18 -6 -28.5 -25t-6 -36t30.5 -19z" />
    <glyph glyph-name="oslash" unicode="&#xf8;" horiz-adv-x="604" 
d="M551 269q0 -131 -66.5 -205t-183.5 -74q-74 0 -129 33l-40 -56l-58 39l45 62q-64 76 -64 201q0 131 65.5 204t183.5 73q74 0 131 -36l39 56l59 -38l-45 -63q63 -76 63 -196zM146 269q0 -81 24 -128l220 306q-36 25 -88 25q-156 0 -156 -203zM460 269q0 74 -23 123
l-220 -306q34 -23 86 -23q77 0 117 52.5t40 153.5z" />
    <glyph glyph-name="ugrave" unicode="&#xf9;" horiz-adv-x="475" 
d="M144 424l-56 67q-5 5 -4 11q1 7 7 11q3 3 8 4q11 2 17 -6l57 -67q6 -8 4.5 -12.5t-8.5 -9.5q-3 -2 -8 -4q-10 -2 -17 6zM195 154q-3 15 -7 15t-15 -13q-15 -16 -37.5 -39t-49 -41t-51.5 -18q-15 0 -27 8q-21 14 -27 44.5t-2.5 67t12.5 69.5t17 51q4 7 12 10.5t16 3.5
q14 0 25 -8t6 -23q-2 -7 -10.5 -28t-17 -47.5t-13.5 -52t-2 -42t19 -16.5q5 0 8 1q23 6 46 26.5t44.5 48.5t38 56.5t27.5 48.5q5 7 11 16.5t16 9.5q2 0 8 -2q14 -8 21.5 -22.5t5.5 -25.5q-18 -71 -7 -100t37 -29q25 0 57 19t63 48.5t51 60.5q4 6 10 11.5t14 5.5q6 0 13 -6
q7 -8 3 -19t-11.5 -21t-12.5 -17q-52 -64 -105 -96t-97 -32q-34 0 -57.5 19.5t-31.5 57.5z" />
    <glyph glyph-name="uacute" unicode="&#xfa;" horiz-adv-x="475" 
d="M222 450l-67 -56q-5 -5 -11.5 -4t-10.5 7q-3 3 -4 8q-2 11 6 17l67 57q5 4 11.5 3t10.5 -7q3 -4 4 -8q2 -10 -6 -17zM195 154q-3 15 -7 15t-15 -13q-15 -16 -37.5 -39t-49 -41t-51.5 -18q-15 0 -27 8q-21 14 -27 44.5t-2.5 67t12.5 69.5t17 51q4 7 12 10.5t16 3.5
q14 0 25 -8t6 -23q-2 -7 -10.5 -28t-17 -47.5t-13.5 -52t-2 -42t19 -16.5q5 0 8 1q23 6 46 26.5t44.5 48.5t38 56.5t27.5 48.5q5 7 11 16.5t16 9.5q2 0 8 -2q14 -8 21.5 -22.5t5.5 -25.5q-18 -71 -7 -100t37 -29q25 0 57 19t63 48.5t51 60.5q4 6 10 11.5t14 5.5q6 0 13 -6
q7 -8 3 -19t-11.5 -21t-12.5 -17q-52 -64 -105 -96t-97 -32q-34 0 -57.5 19.5t-31.5 57.5z" />
    <glyph glyph-name="ucircumflex" unicode="&#xfb;" horiz-adv-x="475" 
d="M193 427l-56 67q-5 5 -4 11q1 7 7 11q3 3 8 4q11 2 17 -6l57 -67q6 -8 4.5 -12.5t-8.5 -9.5q-3 -2 -8 -4q-10 -2 -17 6zM162 490l-67 -56q-5 -5 -11.5 -4t-10.5 7q-3 3 -4 8q-2 11 6 17l67 57q5 4 11.5 3t10.5 -7q3 -4 4 -8q2 -10 -6 -17zM195 154q-3 15 -7 15t-15 -13
q-15 -16 -37.5 -39t-49 -41t-51.5 -18q-15 0 -27 8q-21 14 -27 44.5t-2.5 67t12.5 69.5t17 51q4 7 12 10.5t16 3.5q14 0 25 -8t6 -23q-2 -7 -10.5 -28t-17 -47.5t-13.5 -52t-2 -42t19 -16.5q5 0 8 1q23 6 46 26.5t44.5 48.5t38 56.5t27.5 48.5q5 7 11 16.5t16 9.5q2 0 8 -2
q14 -8 21.5 -22.5t5.5 -25.5q-18 -71 -7 -100t37 -29q25 0 57 19t63 48.5t51 60.5q4 6 10 11.5t14 5.5q6 0 13 -6q7 -8 3 -19t-11.5 -21t-12.5 -17q-52 -64 -105 -96t-97 -32q-34 0 -57.5 19.5t-31.5 57.5z" />
    <glyph glyph-name="udieresis" unicode="&#xfc;" horiz-adv-x="475" 
d="M195 154q-3 15 -7 15t-15 -13q-15 -16 -37.5 -39t-49 -41t-51.5 -18q-15 0 -27 8q-21 14 -27 44.5t-2.5 67t12.5 69.5t17 51q4 7 12 10.5t16 3.5q14 0 25 -8t6 -23q-2 -7 -10.5 -28t-17 -47.5t-13.5 -52t-2 -42t19 -16.5q5 0 8 1q23 6 46 26.5t44.5 48.5t38 56.5
t27.5 48.5q5 7 11 16.5t16 9.5q2 0 8 -2q14 -8 21.5 -22.5t5.5 -25.5q-18 -71 -7 -100t37 -29q25 0 57 19t63 48.5t51 60.5q4 6 10 11.5t14 5.5q6 0 13 -6q7 -8 3 -19t-11.5 -21t-12.5 -17q-52 -64 -105 -96t-97 -32q-34 0 -57.5 19.5t-31.5 57.5zM76 377h3h2q23 0 30 13
t1 26t-22 13q-3 0 -6 -0.5t-6 -1.5q-12 -4 -18 -15.5t-3 -22.5t19 -12zM190 378h3h2q23 0 30 13t1 26t-22 13q-3 0 -6 -0.5t-6 -1.5q-12 -4 -18 -16t-3 -22.5t19 -11.5z" />
    <glyph glyph-name="yacute" unicode="&#xfd;" horiz-adv-x="509" 
d="M279 375q11 -12 19 -25.5t3 -24.5q-15 -40 -23.5 -65.5t-14 -44.5t-11 -37.5t-14 -44t-23.5 -64.5q-9 -27 -3 -27q4 0 10 4t16 9q80 47 150 92t143 100q5 4 9 7.5t8 6.5q5 4 12 4q8 0 14 -8q6 -6 4.5 -14.5t-7.5 -12.5q-83 -63 -176 -124.5t-186 -108.5
q-25 -12 -31 -28.5t-16 -41.5q-84 -224 -173 -447l-178 -446q-2 -6 -12.5 -27t-26 -48.5t-32.5 -54t-32.5 -44t-25.5 -17.5q-4 0 -7 3q-7 8 -3.5 42t13 80.5t21 94.5t21.5 86t14 53q30 123 59.5 245.5t52.5 247.5q9 48 15.5 85t19.5 66t39 53.5t73 49.5q16 8 33 15.5
t34 15.5q27 13 41.5 21t21.5 17t12.5 24.5t16.5 43.5q9 25 15 39.5t10 25.5t10 25.5t15 39.5q10 27 6 27q-3 0 -17 -24q-38 -68 -74 -98.5t-64 -30.5q-31 0 -49.5 30.5t-18.5 83t25 118.5q8 14 14 31q3 7 15 14.5t25 7.5q9 0 16 -5q8 -6 6 -17.5t-7.5 -24t-7.5 -20.5
q-29 -76 -29.5 -127.5t22.5 -51.5q13 0 34 21.5t48 68.5q16 27 25.5 45.5t17.5 34.5t17.5 34.5t24.5 44.5q6 9 17 9q5 0 11.5 -2.5t12.5 -9.5zM100 -70q10 25 6 25t-22 -9q-47 -23 -79 -40t-53 -37.5t-34 -53.5t-22 -89q-16 -108 -42.5 -223.5t-53.5 -222.5
q-7 -26 -16.5 -60.5t-19.5 -70t-18 -66t-12 -49.5t-1 -19q2 0 8.5 13t19.5 42q92 212 174 428t165 432zM200 618q19 23 47.5 66.5t47.5 81.5h106v-10q-21 -31 -66.5 -78.5t-76.5 -71.5h-58v12z" />
    <glyph glyph-name="thorn" unicode="&#xfe;" horiz-adv-x="615" 
d="M174 464q33 44 73.5 63t92.5 19q104 0 162 -73t58 -204t-58 -205t-162 -74q-108 0 -167 78h-6q6 -64 6 -84v-224h-88v1000h88v-224q0 -34 -3 -72h4zM325 472q-79 0 -115 -43.5t-37 -140.5v-19q0 -109 36 -157.5t117 -48.5q143 0 143 207q0 102 -35 152t-109 50z" />
    <glyph glyph-name="ydieresis" unicode="&#xff;" horiz-adv-x="551" 
d="M103 447h3h2q23 0 30 13t1 26t-22 13q-3 0 -6 -0.5t-6 -1.5q-12 -4 -18 -15.5t-3 -22.5t19 -12zM217 448h3h2q23 0 30 13t1 26t-22 13q-3 0 -6 -0.5t-6 -1.5q-12 -4 -18 -16t-3 -22.5t19 -11.5zM279 375q11 -12 19 -25.5t3 -24.5q-15 -40 -23.5 -65.5t-14 -44.5
t-11 -37.5t-14 -44t-23.5 -64.5q-9 -27 -3 -27q4 0 10 4t16 9q80 47 150 92t143 100q5 4 9 7.5t8 6.5q5 4 12 4q8 0 14 -8q6 -6 4.5 -14.5t-7.5 -12.5q-83 -63 -176 -124.5t-186 -108.5q-25 -12 -31 -28.5t-16 -41.5q-84 -224 -173 -447l-178 -446q-2 -6 -12.5 -27
t-26 -48.5t-32.5 -54t-32.5 -44t-25.5 -17.5q-4 0 -7 3q-7 8 -3.5 42t13 80.5t21 94.5t21.5 86t14 53q30 123 59.5 245.5t52.5 247.5q9 48 15.5 85t19.5 66t39 53.5t73 49.5q16 8 33 15.5t34 15.5q27 13 41.5 21t21.5 17t12.5 24.5t16.5 43.5q9 25 15 39.5t10 25.5t10 25.5
t15 39.5q10 27 6 27q-3 0 -17 -24q-38 -68 -74 -98.5t-64 -30.5q-31 0 -49.5 30.5t-18.5 83t25 118.5q8 14 14 31q3 7 15 14.5t25 7.5q9 0 16 -5q8 -6 6 -17.5t-7.5 -24t-7.5 -20.5q-29 -76 -29.5 -127.5t22.5 -51.5q13 0 34 21.5t48 68.5q16 27 25.5 45.5t17.5 34.5
t17.5 34.5t24.5 44.5q6 9 17 9q5 0 11.5 -2.5t12.5 -9.5zM100 -70q10 25 6 25t-22 -9q-47 -23 -79 -40t-53 -37.5t-34 -53.5t-22 -89q-16 -108 -42.5 -223.5t-53.5 -222.5q-7 -26 -16.5 -60.5t-19.5 -70t-18 -66t-12 -49.5t-1 -19q2 0 8.5 13t19.5 42q92 212 174 428
t165 432z" />
    <glyph glyph-name="Amacron" unicode="&#x100;" horiz-adv-x="639" 
d="M178 842h297v-71h-297v71zM423 247q14 20 12 25.5t-16 5.5q-4 0 -9 -0.5t-11 -0.5q-61 -4 -121.5 -6t-121.5 -5l2 -1q37 -14 57 -39t25 -57q6 -29 2 -63t-12 -68q-7 -24 -17.5 -47.5t-20.5 -43.5q61 69 119.5 148.5t111.5 151.5zM105 263q-31 0 -64 -3h-1.5h-2.5
q-10 0 -23 3t-11 18q0 10 11.5 14.5t27 5.5t27.5 1h5.5h4.5q87 2 176.5 7.5t177.5 7.5q25 1 37.5 7.5t20.5 19.5t21 33q97 144 191.5 288t187.5 290q7 11 23.5 36.5t37.5 56.5t43.5 60t41.5 48t30 19q10 0 12.5 -10.5t-1.5 -22.5q-37 -123 -84.5 -253.5t-98 -261.5
t-97.5 -257q-9 -26 -5 -31t14 -5h4.5h4.5q10 0 19 -3q8 -2 11.5 -10t-2 -16t-22.5 -9q-7 0 -26 -1t-24 -6q-3 -3 -16.5 -38t-34 -91t-44 -123t-47.5 -135t-44.5 -127.5t-35 -100t-18.5 -51.5t-14.5 -16.5t-22.5 -5.5q-16 0 -27 9q-5 4 -10 20t-5.5 31t7.5 20q6 1 10 -8t8 -9
q2 0 3 4q4 12 9 25.5t9 23.5q8 22 23 65t35 98t41 114.5t40.5 114.5t35 98t23.5 65q5 13 6.5 16t-6.5 3h-7h-9q-38 -2 -78.5 -4.5t-79.5 -4.5q-24 -1 -33 -9.5t-22 -26.5q-69 -100 -145.5 -200t-157.5 -190q-5 -7 -15 -16t-20 -9q-9 0 -15 9t0 20t16 20.5t15 16.5l3 1
q16 28 34.5 66t30.5 79q10 32 14 63.5t-2 60.5q-11 46 -44.5 67.5t-76.5 28.5zM793 526q39 103 79.5 210.5t83.5 207.5q2 5 4.5 8.5t4.5 8.5q3 6 9 19.5t12.5 29t10.5 26.5t2 11t-7 -7t-16 -24q-89 -147 -184 -292.5t-193 -288.5q-16 -23 -31.5 -46t-31.5 -47q-8 -11 -9 -15
t7 -4q42 0 86 1.5t86 6.5q1 0 3 0.5t4 1.5q7 1 13 15q7 12 15.5 38.5t14.5 43.5q10 24 18.5 48t18.5 48z" />
    <glyph glyph-name="amacron" unicode="&#x101;" horiz-adv-x="561" 
d="M143 677h297v-71h-297v71zM280 351q8 -11 6 -23.5t-10 -22t-19 -9.5q-9 0 -18 10q-19 23 -36.5 33t-33.5 10q-28 0 -51.5 -22.5t-46.5 -50.5q-6 -9 -18.5 -26t-25 -37.5t-21 -39.5t-6.5 -31q1 -9 9 -9q11 0 31.5 15.5t44 38t45.5 46t37.5 41t18.5 20.5q15 14 28 14
q16 0 25 -19t17.5 -44.5t20.5 -47t34 -26.5q3 -1 10 -1q23 0 49.5 18t49 41t34.5 36q7 8 17 8q8 0 12 -4q6 -6 6.5 -14.5t-4.5 -15.5q-34 -37 -62.5 -60t-53.5 -36q-26 -10 -47 -10q-31 0 -51.5 16t-34 37t-22.5 37.5t-17 17.5q-5 1 -19 -13t-34 -36t-43 -44t-47 -37
t-46 -15q-17 0 -30 10l-3 3q-18 17 -17.5 45.5t12.5 60.5t27 58.5t26 39.5q31 39 71 68.5t83 29.5q26 0 52 -14t51 -46z" />
    <glyph glyph-name="Abreve" unicode="&#x102;" horiz-adv-x="639" 
d="M316 771q-69 0 -108.5 33.5t-44.5 100.5h54q4 -35 24.5 -49t76.5 -14q49 0 73 15.5t28 47.5h55q-6 -64 -48 -99t-110 -35zM423 247q14 20 12 25.5t-16 5.5q-4 0 -9 -0.5t-11 -0.5q-61 -4 -121.5 -6t-121.5 -5l2 -1q37 -14 57 -39t25 -57q6 -29 2 -63t-12 -68
q-7 -24 -17.5 -47.5t-20.5 -43.5q61 69 119.5 148.5t111.5 151.5zM105 263q-31 0 -64 -3h-1.5h-2.5q-10 0 -23 3t-11 18q0 10 11.5 14.5t27 5.5t27.5 1h5.5h4.5q87 2 176.5 7.5t177.5 7.5q25 1 37.5 7.5t20.5 19.5t21 33q97 144 191.5 288t187.5 290q7 11 23.5 36.5
t37.5 56.5t43.5 60t41.5 48t30 19q10 0 12.5 -10.5t-1.5 -22.5q-37 -123 -84.5 -253.5t-98 -261.5t-97.5 -257q-9 -26 -5 -31t14 -5h4.5h4.5q10 0 19 -3q8 -2 11.5 -10t-2 -16t-22.5 -9q-7 0 -26 -1t-24 -6q-3 -3 -16.5 -38t-34 -91t-44 -123t-47.5 -135t-44.5 -127.5
t-35 -100t-18.5 -51.5t-14.5 -16.5t-22.5 -5.5q-16 0 -27 9q-5 4 -10 20t-5.5 31t7.5 20q6 1 10 -8t8 -9q2 0 3 4q4 12 9 25.5t9 23.5q8 22 23 65t35 98t41 114.5t40.5 114.5t35 98t23.5 65q5 13 6.5 16t-6.5 3h-7h-9q-38 -2 -78.5 -4.5t-79.5 -4.5q-24 -1 -33 -9.5
t-22 -26.5q-69 -100 -145.5 -200t-157.5 -190q-5 -7 -15 -16t-20 -9q-9 0 -15 9t0 20t16 20.5t15 16.5l3 1q16 28 34.5 66t30.5 79q10 32 14 63.5t-2 60.5q-11 46 -44.5 67.5t-76.5 28.5zM793 526q39 103 79.5 210.5t83.5 207.5q2 5 4.5 8.5t4.5 8.5q3 6 9 19.5t12.5 29
t10.5 26.5t2 11t-7 -7t-16 -24q-89 -147 -184 -292.5t-193 -288.5q-16 -23 -31.5 -46t-31.5 -47q-8 -11 -9 -15t7 -4q42 0 86 1.5t86 6.5q1 0 3 0.5t4 1.5q7 1 13 15q7 12 15.5 38.5t14.5 43.5q10 24 18.5 48t18.5 48z" />
    <glyph glyph-name="abreve" unicode="&#x103;" horiz-adv-x="561" 
d="M281 606q-69 0 -108.5 33.5t-44.5 100.5h54q4 -35 24.5 -49t76.5 -14q49 0 73 15.5t28 47.5h55q-6 -64 -48 -99t-110 -35zM280 351q8 -11 6 -23.5t-10 -22t-19 -9.5q-9 0 -18 10q-19 23 -36.5 33t-33.5 10q-28 0 -51.5 -22.5t-46.5 -50.5q-6 -9 -18.5 -26t-25 -37.5
t-21 -39.5t-6.5 -31q1 -9 9 -9q11 0 31.5 15.5t44 38t45.5 46t37.5 41t18.5 20.5q15 14 28 14q16 0 25 -19t17.5 -44.5t20.5 -47t34 -26.5q3 -1 10 -1q23 0 49.5 18t49 41t34.5 36q7 8 17 8q8 0 12 -4q6 -6 6.5 -14.5t-4.5 -15.5q-34 -37 -62.5 -60t-53.5 -36
q-26 -10 -47 -10q-31 0 -51.5 16t-34 37t-22.5 37.5t-17 17.5q-5 1 -19 -13t-34 -36t-43 -44t-47 -37t-46 -15q-17 0 -30 10l-3 3q-18 17 -17.5 45.5t12.5 60.5t27 58.5t26 39.5q31 39 71 68.5t83 29.5q26 0 52 -14t51 -46z" />
    <glyph glyph-name="Aogonek" unicode="&#x104;" horiz-adv-x="639" 
d="M540 -116q0 -22 12 -33.5t33 -11.5t48 6v-56q-34 -9 -62 -9q-103 0 -103 94q0 68 78 126h62q-34 -32 -51 -58.5t-17 -57.5zM423 247q14 20 12 25.5t-16 5.5q-4 0 -9 -0.5t-11 -0.5q-61 -4 -121.5 -6t-121.5 -5l2 -1q37 -14 57 -39t25 -57q6 -29 2 -63t-12 -68
q-7 -24 -17.5 -47.5t-20.5 -43.5q61 69 119.5 148.5t111.5 151.5zM105 263q-31 0 -64 -3h-1.5h-2.5q-10 0 -23 3t-11 18q0 10 11.5 14.5t27 5.5t27.5 1h5.5h4.5q87 2 176.5 7.5t177.5 7.5q25 1 37.5 7.5t20.5 19.5t21 33q97 144 191.5 288t187.5 290q7 11 23.5 36.5
t37.5 56.5t43.5 60t41.5 48t30 19q10 0 12.5 -10.5t-1.5 -22.5q-37 -123 -84.5 -253.5t-98 -261.5t-97.5 -257q-9 -26 -5 -31t14 -5h4.5h4.5q10 0 19 -3q8 -2 11.5 -10t-2 -16t-22.5 -9q-7 0 -26 -1t-24 -6q-3 -3 -16.5 -38t-34 -91t-44 -123t-47.5 -135t-44.5 -127.5
t-35 -100t-18.5 -51.5t-14.5 -16.5t-22.5 -5.5q-16 0 -27 9q-5 4 -10 20t-5.5 31t7.5 20q6 1 10 -8t8 -9q2 0 3 4q4 12 9 25.5t9 23.5q8 22 23 65t35 98t41 114.5t40.5 114.5t35 98t23.5 65q5 13 6.5 16t-6.5 3h-7h-9q-38 -2 -78.5 -4.5t-79.5 -4.5q-24 -1 -33 -9.5
t-22 -26.5q-69 -100 -145.5 -200t-157.5 -190q-5 -7 -15 -16t-20 -9q-9 0 -15 9t0 20t16 20.5t15 16.5l3 1q16 28 34.5 66t30.5 79q10 32 14 63.5t-2 60.5q-11 46 -44.5 67.5t-76.5 28.5zM793 526q39 103 79.5 210.5t83.5 207.5q2 5 4.5 8.5t4.5 8.5q3 6 9 19.5t12.5 29
t10.5 26.5t2 11t-7 -7t-16 -24q-89 -147 -184 -292.5t-193 -288.5q-16 -23 -31.5 -46t-31.5 -47q-8 -11 -9 -15t7 -4q42 0 86 1.5t86 6.5q1 0 3 0.5t4 1.5q7 1 13 15q7 12 15.5 38.5t14.5 43.5q10 24 18.5 48t18.5 48z" />
    <glyph glyph-name="aogonek" unicode="&#x105;" horiz-adv-x="561" 
d="M410 -116q0 -22 12 -33.5t33 -11.5t48 6v-56q-34 -9 -62 -9q-103 0 -103 94q0 68 78 126h62q-34 -32 -51 -58.5t-17 -57.5zM280 351q8 -11 6 -23.5t-10 -22t-19 -9.5q-9 0 -18 10q-19 23 -36.5 33t-33.5 10q-28 0 -51.5 -22.5t-46.5 -50.5q-6 -9 -18.5 -26t-25 -37.5
t-21 -39.5t-6.5 -31q1 -9 9 -9q11 0 31.5 15.5t44 38t45.5 46t37.5 41t18.5 20.5q15 14 28 14q16 0 25 -19t17.5 -44.5t20.5 -47t34 -26.5q3 -1 10 -1q23 0 49.5 18t49 41t34.5 36q7 8 17 8q8 0 12 -4q6 -6 6.5 -14.5t-4.5 -15.5q-34 -37 -62.5 -60t-53.5 -36
q-26 -10 -47 -10q-31 0 -51.5 16t-34 37t-22.5 37.5t-17 17.5q-5 1 -19 -13t-34 -36t-43 -44t-47 -37t-46 -15q-17 0 -30 10l-3 3q-18 17 -17.5 45.5t12.5 60.5t27 58.5t26 39.5q31 39 71 68.5t83 29.5q26 0 52 -14t51 -46z" />
    <glyph glyph-name="Cacute" unicode="&#x106;" horiz-adv-x="631" 
d="M758 925q1 -49 -14 -68t-34 -19q-17 0 -31 11.5t-15 27.5q-1 19 -1.5 37.5t-9 30.5t-30.5 12q-17 0 -39 -7q-48 -15 -97 -62.5t-95 -119t-87 -158t-73 -180t-52.5 -185.5t-26.5 -174t5.5 -145t43.5 -99.5t87 -36.5q35 0 79 16q93 40 217.5 149t274.5 278q6 9 17 9
q6 0 13 -5q6 -6 6 -15.5t-6 -16.5q-28 -32 -71 -78.5t-96 -99t-111.5 -103.5t-118.5 -92.5t-116.5 -66.5t-105.5 -25q-18 0 -38 5q-71 23 -110 77t-51 131.5t-2 169.5t38.5 191t70 196.5t92.5 186t106 159.5t110.5 117t106.5 58q13 4 31 4q30 0 60 -13t51 -37.5t22 -59.5z
M318 783q19 23 47.5 66.5t47.5 81.5h106v-10q-21 -31 -66.5 -78.5t-76.5 -71.5h-58v12z" />
    <glyph glyph-name="cacute" unicode="&#x107;" horiz-adv-x="479" 
d="M284 265q9 7 16 7q8 0 13 -5q14 -14 0 -28q-16 -17 -44.5 -36t-60.5 -37t-60 -31t-43 -17q-26 -6 -46 -6q-46 0 -62 29t-8 75t35 98q14 28 35.5 50t53.5 29h3.5h3.5q23 0 33.5 -13t10 -30t-8 -31t-20.5 -16q-10 -1 -14 10t-14 11q-6 0 -16 -9q-25 -21 -41 -49
t-20.5 -53.5t5 -42.5t35.5 -17q18 0 49 12.5t65 31t61.5 37t38.5 31.5zM224 618q19 23 47.5 66.5t47.5 81.5h106v-10q-21 -31 -66.5 -78.5t-76.5 -71.5h-58v12z" />
    <glyph glyph-name="Ccircumflex" unicode="&#x108;" horiz-adv-x="631" 
d="M220 782q61 65 86 96.5t37 52.5h90q25 -49 125 -149v-11h-62q-44 26 -109 90q-64 -62 -107 -90h-60v11zM758 925q1 -49 -14 -68t-34 -19q-17 0 -31 11.5t-15 27.5q-1 19 -1.5 37.5t-9 30.5t-30.5 12q-17 0 -39 -7q-48 -15 -97 -62.5t-95 -119t-87 -158t-73 -180
t-52.5 -185.5t-26.5 -174t5.5 -145t43.5 -99.5t87 -36.5q35 0 79 16q93 40 217.5 149t274.5 278q6 9 17 9q6 0 13 -5q6 -6 6 -15.5t-6 -16.5q-28 -32 -71 -78.5t-96 -99t-111.5 -103.5t-118.5 -92.5t-116.5 -66.5t-105.5 -25q-18 0 -38 5q-71 23 -110 77t-51 131.5t-2 169.5
t38.5 191t70 196.5t92.5 186t106 159.5t110.5 117t106.5 58q13 4 31 4q30 0 60 -13t51 -37.5t22 -59.5z" />
    <glyph glyph-name="ccircumflex" unicode="&#x109;" horiz-adv-x="479" 
d="M118 617q61 65 86 96.5t37 52.5h90q25 -49 125 -149v-11h-62q-44 26 -109 90q-64 -62 -107 -90h-60v11zM284 265q9 7 16 7q8 0 13 -5q14 -14 0 -28q-16 -17 -44.5 -36t-60.5 -37t-60 -31t-43 -17q-26 -6 -46 -6q-46 0 -62 29t-8 75t35 98q14 28 35.5 50t53.5 29h3.5h3.5
q23 0 33.5 -13t10 -30t-8 -31t-20.5 -16q-10 -1 -14 10t-14 11q-6 0 -16 -9q-25 -21 -41 -49t-20.5 -53.5t5 -42.5t35.5 -17q18 0 49 12.5t65 31t61.5 37t38.5 31.5z" />
    <glyph glyph-name="Cdotaccent" unicode="&#x10a;" horiz-adv-x="631" 
d="M337 846q0 29 15 42.5t37 13.5q21 0 36 -13.5t15 -42.5t-15.5 -42.5t-35.5 -13.5q-22 0 -37 13.5t-15 42.5zM758 925q1 -49 -14 -68t-34 -19q-17 0 -31 11.5t-15 27.5q-1 19 -1.5 37.5t-9 30.5t-30.5 12q-17 0 -39 -7q-48 -15 -97 -62.5t-95 -119t-87 -158t-73 -180
t-52.5 -185.5t-26.5 -174t5.5 -145t43.5 -99.5t87 -36.5q35 0 79 16q93 40 217.5 149t274.5 278q6 9 17 9q6 0 13 -5q6 -6 6 -15.5t-6 -16.5q-28 -32 -71 -78.5t-96 -99t-111.5 -103.5t-118.5 -92.5t-116.5 -66.5t-105.5 -25q-18 0 -38 5q-71 23 -110 77t-51 131.5t-2 169.5
t38.5 191t70 196.5t92.5 186t106 159.5t110.5 117t106.5 58q13 4 31 4q30 0 60 -13t51 -37.5t22 -59.5z" />
    <glyph glyph-name="cdotaccent" unicode="&#x10b;" horiz-adv-x="479" 
d="M241 681q0 29 15 42.5t37 13.5q21 0 36 -13.5t15 -42.5t-15.5 -42.5t-35.5 -13.5q-22 0 -37 13.5t-15 42.5zM284 265q9 7 16 7q8 0 13 -5q14 -14 0 -28q-16 -17 -44.5 -36t-60.5 -37t-60 -31t-43 -17q-26 -6 -46 -6q-46 0 -62 29t-8 75t35 98q14 28 35.5 50t53.5 29h3.5
h3.5q23 0 33.5 -13t10 -30t-8 -31t-20.5 -16q-10 -1 -14 10t-14 11q-6 0 -16 -9q-25 -21 -41 -49t-20.5 -53.5t5 -42.5t35.5 -17q18 0 49 12.5t65 31t61.5 37t38.5 31.5z" />
    <glyph glyph-name="Ccaron" unicode="&#x10c;" horiz-adv-x="631" 
d="M220 931h60q56 -36 107 -92q62 62 109 92h62v-13q-100 -100 -125 -147h-90q-29 50 -123 147v13zM758 925q1 -49 -14 -68t-34 -19q-17 0 -31 11.5t-15 27.5q-1 19 -1.5 37.5t-9 30.5t-30.5 12q-17 0 -39 -7q-48 -15 -97 -62.5t-95 -119t-87 -158t-73 -180t-52.5 -185.5
t-26.5 -174t5.5 -145t43.5 -99.5t87 -36.5q35 0 79 16q93 40 217.5 149t274.5 278q6 9 17 9q6 0 13 -5q6 -6 6 -15.5t-6 -16.5q-28 -32 -71 -78.5t-96 -99t-111.5 -103.5t-118.5 -92.5t-116.5 -66.5t-105.5 -25q-18 0 -38 5q-71 23 -110 77t-51 131.5t-2 169.5t38.5 191
t70 196.5t92.5 186t106 159.5t110.5 117t106.5 58q13 4 31 4q30 0 60 -13t51 -37.5t22 -59.5z" />
    <glyph glyph-name="ccaron" unicode="&#x10d;" horiz-adv-x="479" 
d="M122 766h60q56 -36 107 -92q62 62 109 92h62v-13q-100 -100 -125 -147h-90q-29 50 -123 147v13zM284 265q9 7 16 7q8 0 13 -5q14 -14 0 -28q-16 -17 -44.5 -36t-60.5 -37t-60 -31t-43 -17q-26 -6 -46 -6q-46 0 -62 29t-8 75t35 98q14 28 35.5 50t53.5 29h3.5h3.5
q23 0 33.5 -13t10 -30t-8 -31t-20.5 -16q-10 -1 -14 10t-14 11q-6 0 -16 -9q-25 -21 -41 -49t-20.5 -53.5t5 -42.5t35.5 -17q18 0 49 12.5t65 31t61.5 37t38.5 31.5z" />
    <glyph glyph-name="Dcaron" unicode="&#x10e;" horiz-adv-x="729" 
d="M170 931h60q56 -36 107 -92q62 62 109 92h62v-13q-100 -100 -125 -147h-90q-29 50 -123 147v13zM797 908q-59 -56 -115 -127.5t-106 -147.5t-92 -145q-20 -35 -35.5 -71.5t-30.5 -71.5q-20 -41 -39.5 -81.5t-40.5 -82.5q-33 -71 -65.5 -141t-64.5 -140q-5 -12 -14.5 -34
t-21.5 -41t-25 -23q-5 -2 -9 -3t-8 -1q-21 0 -21.5 27t13.5 73.5t38 104t53.5 119.5t59 120t54.5 105t40.5 75.5t16.5 30.5q26 44 44 88t34 92q35 83 68.5 167.5t58.5 170.5q3 7 -5.5 11t-15 11t-1.5 24q3 7 25 11.5t41 4.5q15 0 23 -3q16 -8 11 -25.5t-9 -29.5
q-20 -67 -42 -131.5t-46 -130.5q-10 -30 -8 -30t8 9t15 21q16 23 43.5 60t61 78t66.5 78q29 31 54.5 45t46.5 14q39 0 63.5 -37t34 -97.5t2.5 -130.5q-7 -60 -30.5 -137.5t-58 -163t-76.5 -170t-87 -158.5t-88 -128q-115 -142 -249 -213t-264 -71q-100 0 -194 42t-171 126
q-9 10 -6.5 24.5t15.5 14.5q12 0 29 -17q76 -76 157.5 -113.5t165.5 -37.5q120 0 240 73.5t228 213.5q77 100 140 219t110.5 245.5t78.5 250.5q14 57 15 108t-11.5 82.5t-39.5 31.5q-13 0 -29 -8.5t-35 -28.5z" />
    <glyph glyph-name="dcaron" unicode="&#x10f;" horiz-adv-x="615" 
d="M575 612q11 32 20.5 77.5t12.5 70.5h87v-9q-6 -26 -27 -71t-45 -80h-48v12zM82 198q8 13 7 24.5t-1 25.5q-1 21 -9 21q-4 0 -9.5 -6t-12.5 -14q-15 -19 -34.5 -51t-35 -66t-19.5 -59q-1 -11 3 -11q5 0 16.5 12t24 28t22 28.5l9.5 12.5q11 13 21 27t18 28zM327 506l-4 -4
q-25 -44 -42 -91.5t-34 -92.5q-33 -87 -62.5 -167.5t-58 -159.5t-57.5 -164q-20 -56 -25.5 -70.5t-2.5 -13.5q8 3 19 15.5t32 33.5q1 2 2 2h1q3 0 -1 -14.5t-18 -37.5q-1 -3 -10.5 -16.5t-23 -32.5t-27.5 -37t-24.5 -29.5t-13.5 -10.5q-7 2 -10 9.5t-2 15.5
q54 157 110.5 313.5t112.5 313.5q5 16 6.5 22t0.5 6q-2 0 -11.5 -17t-16.5 -27q-10 -15 -28.5 -42.5t-41.5 -59.5t-47 -62.5t-45.5 -52t-37.5 -26.5q-7 -3 -14 -3q-15 0 -24.5 11.5t-14.5 27t-5 28.5q0 40 16.5 83t41.5 79.5t53.5 59t53.5 22.5q19 0 32 -13q12 -12 17 -20.5
t9 -8.5q5 0 13.5 11.5t26.5 40.5q31 50 61.5 98.5t51.5 101.5q9 19 16.5 38t15.5 38q47 120 99 243t110 237q4 9 13.5 26t22.5 31t25 14q3 0 5 -1q13 -4 10.5 -31t-15.5 -68.5t-31.5 -88t-38 -89.5t-34.5 -74.5t-20 -40.5q-31 -65 -66.5 -128.5t-69.5 -126.5zM434 790
q-2 -4 -2 -5.5v-1.5l5 10t9.5 20l4.5 10q5 11 16 34.5t23 50t21 48.5t11 31q-1 0 -9.5 -18t-20.5 -45.5t-24.5 -56t-22 -50t-11.5 -27.5z" />
    <glyph glyph-name="Dcroat" unicode="&#x110;" horiz-adv-x="729" 
d="M669 364q0 -175 -96 -269.5t-278 -94.5h-191v314h-74v78h74v322h213q167 0 259.5 -92t92.5 -258zM574 361q0 137 -68 206.5t-202 69.5h-110v-245h178v-78h-178v-237h90q290 0 290 284z" />
    <glyph glyph-name="dcroat" unicode="&#x111;" horiz-adv-x="617" 
d="M275 -10q-104 0 -162 72t-58 203q0 132 57.5 205t162.5 73q109 0 167 -79h6q-1 7 -3.5 33.5t-2.5 46.5v61h-213v66h213v89h88v-89h76v-66h-76v-605h-72l-13 72h-4q-56 -82 -166 -82zM290 63q80 0 116.5 43t36.5 142v17q0 112 -37 158.5t-118 46.5q-68 0 -104.5 -52
t-36.5 -154q0 -96 35 -148.5t108 -52.5z" />
    <glyph glyph-name="Emacron" unicode="&#x112;" horiz-adv-x="556" 
d="M148 842h297v-71h-297v71zM44 913q-19 22 0 42q13 11 58.5 17t116 8t157.5 2h89.5t95.5 -1h122q4 7 4 14q9 5 12 9q8 8 23.5 19.5t31.5 11.5q5 0 7 -1q8 -4 10 -11.5t7 -8.5q-6 -15 -10 -33h41.5h40.5q107 0 205 3.5t174 10.5q9 0 15.5 -5t8.5 -12q0 -9 -5.5 -16
t-13.5 -7q-89 -9 -203 -12.5t-235 -3.5h-30.5h-31.5q-11 -21 -30.5 -57.5t-42 -81t-46 -90t-44.5 -86t-36 -68.5t-20 -38q-14 -28 -13.5 -37.5t13.5 -9.5q8 0 18.5 2t24.5 5q5 2 18 3.5t26 1.5q16 0 27.5 -5t7.5 -19q-2 -11 -12.5 -14.5t-24 -4.5t-23.5 -2q-11 0 -34.5 -2.5
t-45.5 -8t-30 -14.5q-4 -5 -14.5 -27t-23 -50.5t-23 -53.5t-13.5 -34q-9 -20 -23.5 -54.5t-29.5 -75t-27 -81t-17.5 -74.5t-0.5 -53q4 -17 22 -17q14 0 39 6t69 16q45 10 100 23t113.5 27.5t112.5 28l98 24.5t70 17q3 1 5.5 1h3.5q17 0 12.5 -16t-25.5 -21
q-107 -27 -254 -62t-318 -82q-24 -6 -44 -6q-39 0 -56.5 24.5t-16.5 69.5q1 27 11 64t24 77t28.5 76.5t25.5 62.5q17 41 35 81.5t37 83.5q4 9 5 12t-2 3q-2 0 -6.5 -1.5t-11.5 -2.5q-31 -11 -58 -21.5t-57 -24.5q-6 -3 -14 -6.5t-15 -3.5q-13 0 -16 15q-3 11 7.5 19.5
t25 14.5t22.5 9q33 15 62.5 24t63.5 21q19 6 27.5 16t13.5 24t14 32q29 64 62.5 127t66.5 125q20 39 43 80t42 81q1 2 2.5 4.5t3.5 3.5h-107q-60 1 -117 1h-108q-97 0 -165.5 -2t-90.5 -10q0 -9 -5.5 -15.5t-14.5 -6.5t-16 7z" />
    <glyph glyph-name="emacron" unicode="&#x113;" horiz-adv-x="563" 
d="M150 677h297v-71h-297v71zM47 195q-5 -31 8.5 -40t33.5 -9q38 0 72 17.5t64 44t52 53.5q9 12 20 12q9 0 14.5 -8.5t1.5 -16.5q-10 -26 -36 -51t-59.5 -45.5t-68 -33t-62.5 -12.5q-44 0 -69.5 23t-30.5 58.5t13 76t60 74.5q11 9 22.5 13t22.5 4q24 0 38.5 -17t5 -47.5
t-57.5 -68.5q-21 -16 -31.5 -18t-12.5 -9zM116 310q1 2 -12.5 -5t-27.5 -21t-16 -32q7 4 18.5 15t22.5 23t15 20zM117 314q-1 0 0.5 0t-0.5 0z" />
    <glyph glyph-name="Ebreve" unicode="&#x114;" horiz-adv-x="556" 
d="M299 771q-69 0 -108.5 33.5t-44.5 100.5h54q4 -35 24.5 -49t76.5 -14q49 0 73 15.5t28 47.5h55q-6 -64 -48 -99t-110 -35zM44 913q-19 22 0 42q13 11 58.5 17t116 8t157.5 2h89.5t95.5 -1h122q4 7 4 14q9 5 12 9q8 8 23.5 19.5t31.5 11.5q5 0 7 -1q8 -4 10 -11.5t7 -8.5
q-6 -15 -10 -33h41.5h40.5q107 0 205 3.5t174 10.5q9 0 15.5 -5t8.5 -12q0 -9 -5.5 -16t-13.5 -7q-89 -9 -203 -12.5t-235 -3.5h-30.5h-31.5q-11 -21 -30.5 -57.5t-42 -81t-46 -90t-44.5 -86t-36 -68.5t-20 -38q-14 -28 -13.5 -37.5t13.5 -9.5q8 0 18.5 2t24.5 5q5 2 18 3.5
t26 1.5q16 0 27.5 -5t7.5 -19q-2 -11 -12.5 -14.5t-24 -4.5t-23.5 -2q-11 0 -34.5 -2.5t-45.5 -8t-30 -14.5q-4 -5 -14.5 -27t-23 -50.5t-23 -53.5t-13.5 -34q-9 -20 -23.5 -54.5t-29.5 -75t-27 -81t-17.5 -74.5t-0.5 -53q4 -17 22 -17q14 0 39 6t69 16q45 10 100 23
t113.5 27.5t112.5 28l98 24.5t70 17q3 1 5.5 1h3.5q17 0 12.5 -16t-25.5 -21q-107 -27 -254 -62t-318 -82q-24 -6 -44 -6q-39 0 -56.5 24.5t-16.5 69.5q1 27 11 64t24 77t28.5 76.5t25.5 62.5q17 41 35 81.5t37 83.5q4 9 5 12t-2 3q-2 0 -6.5 -1.5t-11.5 -2.5
q-31 -11 -58 -21.5t-57 -24.5q-6 -3 -14 -6.5t-15 -3.5q-13 0 -16 15q-3 11 7.5 19.5t25 14.5t22.5 9q33 15 62.5 24t63.5 21q19 6 27.5 16t13.5 24t14 32q29 64 62.5 127t66.5 125q20 39 43 80t42 81q1 2 2.5 4.5t3.5 3.5h-107q-60 1 -117 1h-108q-97 0 -165.5 -2
t-90.5 -10q0 -9 -5.5 -15.5t-14.5 -6.5t-16 7z" />
    <glyph glyph-name="ebreve" unicode="&#x115;" horiz-adv-x="563" 
d="M292 606q-69 0 -108.5 33.5t-44.5 100.5h54q4 -35 24.5 -49t76.5 -14q49 0 73 15.5t28 47.5h55q-6 -64 -48 -99t-110 -35zM47 195q-5 -31 8.5 -40t33.5 -9q38 0 72 17.5t64 44t52 53.5q9 12 20 12q9 0 14.5 -8.5t1.5 -16.5q-10 -26 -36 -51t-59.5 -45.5t-68 -33
t-62.5 -12.5q-44 0 -69.5 23t-30.5 58.5t13 76t60 74.5q11 9 22.5 13t22.5 4q24 0 38.5 -17t5 -47.5t-57.5 -68.5q-21 -16 -31.5 -18t-12.5 -9zM116 310q1 2 -12.5 -5t-27.5 -21t-16 -32q7 4 18.5 15t22.5 23t15 20zM117 314q-1 0 0.5 0t-0.5 0z" />
    <glyph glyph-name="Edotaccent" unicode="&#x116;" horiz-adv-x="556" 
d="M253 832q0 29 15 42.5t37 13.5q21 0 36 -13.5t15 -42.5t-15.5 -42.5t-35.5 -13.5q-22 0 -37 13.5t-15 42.5zM44 913q-19 22 0 42q13 11 58.5 17t116 8t157.5 2h89.5t95.5 -1h122q4 7 4 14q9 5 12 9q8 8 23.5 19.5t31.5 11.5q5 0 7 -1q8 -4 10 -11.5t7 -8.5
q-6 -15 -10 -33h41.5h40.5q107 0 205 3.5t174 10.5q9 0 15.5 -5t8.5 -12q0 -9 -5.5 -16t-13.5 -7q-89 -9 -203 -12.5t-235 -3.5h-30.5h-31.5q-11 -21 -30.5 -57.5t-42 -81t-46 -90t-44.5 -86t-36 -68.5t-20 -38q-14 -28 -13.5 -37.5t13.5 -9.5q8 0 18.5 2t24.5 5q5 2 18 3.5
t26 1.5q16 0 27.5 -5t7.5 -19q-2 -11 -12.5 -14.5t-24 -4.5t-23.5 -2q-11 0 -34.5 -2.5t-45.5 -8t-30 -14.5q-4 -5 -14.5 -27t-23 -50.5t-23 -53.5t-13.5 -34q-9 -20 -23.5 -54.5t-29.5 -75t-27 -81t-17.5 -74.5t-0.5 -53q4 -17 22 -17q14 0 39 6t69 16q45 10 100 23
t113.5 27.5t112.5 28l98 24.5t70 17q3 1 5.5 1h3.5q17 0 12.5 -16t-25.5 -21q-107 -27 -254 -62t-318 -82q-24 -6 -44 -6q-39 0 -56.5 24.5t-16.5 69.5q1 27 11 64t24 77t28.5 76.5t25.5 62.5q17 41 35 81.5t37 83.5q4 9 5 12t-2 3q-2 0 -6.5 -1.5t-11.5 -2.5
q-31 -11 -58 -21.5t-57 -24.5q-6 -3 -14 -6.5t-15 -3.5q-13 0 -16 15q-3 11 7.5 19.5t25 14.5t22.5 9q33 15 62.5 24t63.5 21q19 6 27.5 16t13.5 24t14 32q29 64 62.5 127t66.5 125q20 39 43 80t42 81q1 2 2.5 4.5t3.5 3.5h-107q-60 1 -117 1h-108q-97 0 -165.5 -2
t-90.5 -10q0 -9 -5.5 -15.5t-14.5 -6.5t-16 7z" />
    <glyph glyph-name="edotaccent" unicode="&#x117;" horiz-adv-x="563" 
d="M243 681q0 29 15 42.5t37 13.5q21 0 36 -13.5t15 -42.5t-15.5 -42.5t-35.5 -13.5q-22 0 -37 13.5t-15 42.5zM47 195q-5 -31 8.5 -40t33.5 -9q38 0 72 17.5t64 44t52 53.5q9 12 20 12q9 0 14.5 -8.5t1.5 -16.5q-10 -26 -36 -51t-59.5 -45.5t-68 -33t-62.5 -12.5
q-44 0 -69.5 23t-30.5 58.5t13 76t60 74.5q11 9 22.5 13t22.5 4q24 0 38.5 -17t5 -47.5t-57.5 -68.5q-21 -16 -31.5 -18t-12.5 -9zM116 310q1 2 -12.5 -5t-27.5 -21t-16 -32q7 4 18.5 15t22.5 23t15 20zM117 314q-1 0 0.5 0t-0.5 0z" />
    <glyph glyph-name="Eogonek" unicode="&#x118;" horiz-adv-x="556" 
d="M392 -116q0 -22 12 -33.5t33 -11.5t48 6v-56q-34 -9 -62 -9q-103 0 -103 94q0 68 78 126h62q-34 -32 -51 -58.5t-17 -57.5zM44 913q-19 22 0 42q13 11 58.5 17t116 8t157.5 2h89.5t95.5 -1h122q4 7 4 14q9 5 12 9q8 8 23.5 19.5t31.5 11.5q5 0 7 -1q8 -4 10 -11.5t7 -8.5
q-6 -15 -10 -33h41.5h40.5q107 0 205 3.5t174 10.5q9 0 15.5 -5t8.5 -12q0 -9 -5.5 -16t-13.5 -7q-89 -9 -203 -12.5t-235 -3.5h-30.5h-31.5q-11 -21 -30.5 -57.5t-42 -81t-46 -90t-44.5 -86t-36 -68.5t-20 -38q-14 -28 -13.5 -37.5t13.5 -9.5q8 0 18.5 2t24.5 5q5 2 18 3.5
t26 1.5q16 0 27.5 -5t7.5 -19q-2 -11 -12.5 -14.5t-24 -4.5t-23.5 -2q-11 0 -34.5 -2.5t-45.5 -8t-30 -14.5q-4 -5 -14.5 -27t-23 -50.5t-23 -53.5t-13.5 -34q-9 -20 -23.5 -54.5t-29.5 -75t-27 -81t-17.5 -74.5t-0.5 -53q4 -17 22 -17q14 0 39 6t69 16q45 10 100 23
t113.5 27.5t112.5 28l98 24.5t70 17q3 1 5.5 1h3.5q17 0 12.5 -16t-25.5 -21q-107 -27 -254 -62t-318 -82q-24 -6 -44 -6q-39 0 -56.5 24.5t-16.5 69.5q1 27 11 64t24 77t28.5 76.5t25.5 62.5q17 41 35 81.5t37 83.5q4 9 5 12t-2 3q-2 0 -6.5 -1.5t-11.5 -2.5
q-31 -11 -58 -21.5t-57 -24.5q-6 -3 -14 -6.5t-15 -3.5q-13 0 -16 15q-3 11 7.5 19.5t25 14.5t22.5 9q33 15 62.5 24t63.5 21q19 6 27.5 16t13.5 24t14 32q29 64 62.5 127t66.5 125q20 39 43 80t42 81q1 2 2.5 4.5t3.5 3.5h-107q-60 1 -117 1h-108q-97 0 -165.5 -2
t-90.5 -10q0 -9 -5.5 -15.5t-14.5 -6.5t-16 7z" />
    <glyph glyph-name="eogonek" unicode="&#x119;" horiz-adv-x="563" 
d="M387 -102q0 -22 12 -33.5t33 -11.5t48 6v-56q-34 -9 -62 -9q-103 0 -103 94q0 68 78 126h62q-34 -32 -51 -58.5t-17 -57.5zM47 195q-5 -31 8.5 -40t33.5 -9q38 0 72 17.5t64 44t52 53.5q9 12 20 12q9 0 14.5 -8.5t1.5 -16.5q-10 -26 -36 -51t-59.5 -45.5t-68 -33
t-62.5 -12.5q-44 0 -69.5 23t-30.5 58.5t13 76t60 74.5q11 9 22.5 13t22.5 4q24 0 38.5 -17t5 -47.5t-57.5 -68.5q-21 -16 -31.5 -18t-12.5 -9zM116 310q1 2 -12.5 -5t-27.5 -21t-16 -32q7 4 18.5 15t22.5 23t15 20zM117 314q-1 0 0.5 0t-0.5 0z" />
    <glyph glyph-name="Ecaron" unicode="&#x11a;" horiz-adv-x="556" 
d="M133 931h60q56 -36 107 -92q62 62 109 92h62v-13q-100 -100 -125 -147h-90q-29 50 -123 147v13zM44 913q-19 22 0 42q13 11 58.5 17t116 8t157.5 2h89.5t95.5 -1h122q4 7 4 14q9 5 12 9q8 8 23.5 19.5t31.5 11.5q5 0 7 -1q8 -4 10 -11.5t7 -8.5q-6 -15 -10 -33h41.5h40.5
q107 0 205 3.5t174 10.5q9 0 15.5 -5t8.5 -12q0 -9 -5.5 -16t-13.5 -7q-89 -9 -203 -12.5t-235 -3.5h-30.5h-31.5q-11 -21 -30.5 -57.5t-42 -81t-46 -90t-44.5 -86t-36 -68.5t-20 -38q-14 -28 -13.5 -37.5t13.5 -9.5q8 0 18.5 2t24.5 5q5 2 18 3.5t26 1.5q16 0 27.5 -5
t7.5 -19q-2 -11 -12.5 -14.5t-24 -4.5t-23.5 -2q-11 0 -34.5 -2.5t-45.5 -8t-30 -14.5q-4 -5 -14.5 -27t-23 -50.5t-23 -53.5t-13.5 -34q-9 -20 -23.5 -54.5t-29.5 -75t-27 -81t-17.5 -74.5t-0.5 -53q4 -17 22 -17q14 0 39 6t69 16q45 10 100 23t113.5 27.5t112.5 28
l98 24.5t70 17q3 1 5.5 1h3.5q17 0 12.5 -16t-25.5 -21q-107 -27 -254 -62t-318 -82q-24 -6 -44 -6q-39 0 -56.5 24.5t-16.5 69.5q1 27 11 64t24 77t28.5 76.5t25.5 62.5q17 41 35 81.5t37 83.5q4 9 5 12t-2 3q-2 0 -6.5 -1.5t-11.5 -2.5q-31 -11 -58 -21.5t-57 -24.5
q-6 -3 -14 -6.5t-15 -3.5q-13 0 -16 15q-3 11 7.5 19.5t25 14.5t22.5 9q33 15 62.5 24t63.5 21q19 6 27.5 16t13.5 24t14 32q29 64 62.5 127t66.5 125q20 39 43 80t42 81q1 2 2.5 4.5t3.5 3.5h-107q-60 1 -117 1h-108q-97 0 -165.5 -2t-90.5 -10q0 -9 -5.5 -15.5t-14.5 -6.5
t-16 7z" />
    <glyph glyph-name="ecaron" unicode="&#x11b;" horiz-adv-x="563" 
d="M126 766h60q56 -36 107 -92q62 62 109 92h62v-13q-100 -100 -125 -147h-90q-29 50 -123 147v13zM47 195q-5 -31 8.5 -40t33.5 -9q38 0 72 17.5t64 44t52 53.5q9 12 20 12q9 0 14.5 -8.5t1.5 -16.5q-10 -26 -36 -51t-59.5 -45.5t-68 -33t-62.5 -12.5q-44 0 -69.5 23
t-30.5 58.5t13 76t60 74.5q11 9 22.5 13t22.5 4q24 0 38.5 -17t5 -47.5t-57.5 -68.5q-21 -16 -31.5 -18t-12.5 -9zM116 310q1 2 -12.5 -5t-27.5 -21t-16 -32q7 4 18.5 15t22.5 23t15 20zM117 314q-1 0 0.5 0t-0.5 0z" />
    <glyph glyph-name="Gcircumflex" unicode="&#x11c;" horiz-adv-x="728" 
d="M248 782q61 65 86 96.5t37 52.5h90q25 -49 125 -149v-11h-62q-44 26 -109 90q-64 -62 -107 -90h-60v11zM676 551q-7 -13 -17 -13q-6 0 -9 5t2 16q15 38 33 63t38.5 49t44 58.5t48.5 91.5q7 18 7 48t-10 60.5t-32.5 51t-59.5 20.5q-36 0 -82 -23l-6 -6
q-66 -36 -133.5 -100t-130 -147.5t-113 -178.5t-83 -192t-40.5 -188.5t16 -168.5q20 -57 52.5 -89t77.5 -32q44 0 84 25t75 60t60 66q26 79 44.5 135t16.5 91q0 35 -19.5 51.5t-64.5 20.5h-33t-15 1q-7 2 -10 10t1.5 15t21.5 7q19 1 38 1.5t39 0.5q24 0 47 -0.5t46 -1.5
q6 0 14.5 -1t17.5 -1q11 0 21 2t15 8q5 4 20 14.5t28 10.5q5 0 10 -3q7 -6 7 -15.5t3 -11.5q4 -2 10 -2q7 0 16.5 1t17.5 1q14 0 19 -4q10 -11 7 -18t-12.5 -10t-18.5 -3q-6 0 -19.5 -0.5t-26 -2t-15.5 -4.5q-2 -2 -11 -20t-21 -41.5t-22 -43.5t-13 -28
q-63 -137 -123.5 -273.5t-106.5 -280.5q-2 -10 -9.5 -14.5t-16.5 -4.5q-11 0 -21 6.5t-9 15.5v1h-2q24 89 49 165.5t49 139.5q-16 -13 -31 -28t-19 -20q-32 -23 -68 -38.5t-76 -15.5q-62 0 -109.5 41t-67.5 105q-26 81 -19.5 177t38.5 197.5t83 200t115 185.5t134.5 154.5
t140.5 105.5q30 17 59 24.5t55 7.5q44 0 78 -19.5t54 -52.5t22 -75t-18 -87q-23 -49 -46 -83.5t-44 -61t-39 -52t-33 -55.5zM532 77q7 12 15 22.5t14 21.5q12 19 23 39t23 41q9 23 20 45.5t23 47.5q7 20 4.5 25.5t-23.5 5.5h-33h-57q17 -11 26.5 -28.5t9.5 -43.5
q0 -31 -12.5 -74t-32.5 -102zM459 -132q8 22 17 42.5t14.5 34t3.5 15.5q0 2 -1 2t-1 -2q-9 -20 -17 -43t-16 -49z" />
    <glyph glyph-name="gcircumflex" unicode="&#x11d;" horiz-adv-x="615" 
d="M132 617q61 65 86 96.5t37 52.5h90q25 -49 125 -149v-11h-62q-44 26 -109 90q-64 -62 -107 -90h-60v11zM271 441q7 -5 7.5 -12.5t-4.5 -14.5q-6 -7 -15 -7q-8 0 -12 4q-15 12 -31 12q-20 0 -42 -16.5t-42 -41.5t-40.5 -61t-35.5 -74t-19 -69q-1 -17 5 -17q5 0 12.5 7.5
t12.5 13.5q32 33 60.5 72t54.5 77q5 8 21 8q14 0 27 -7t9 -18q-20 -62 -41 -123.5t-44 -123.5q-8 -21 -1 -21q3 0 9 3.5t14 7.5q60 32 111.5 63.5t99.5 69t96 86.5q10 10 20 10t15 -10.5t-1 -18.5q-6 -9 -21.5 -24.5t-35.5 -32.5t-37.5 -31l-27.5 -22q-61 -45 -121 -79.5
t-127 -68.5q-23 -11 -29.5 -28.5t-14.5 -41.5q-33 -92 -77.5 -197t-94.5 -213.5t-100.5 -211.5t-94.5 -191q-3 -6 -13.5 -25t-26 -43.5t-33 -48t-34.5 -39t-30 -15.5q-8 0 -14 8.5t-8 28.5q-3 23 1 57t10.5 67.5t10.5 57.5q17 90 35 179.5t35 180.5q5 30 13 71t19.5 86.5
t27.5 88.5t38 76t51 49l3 2q23 12 52.5 25.5t63.5 29.5q22 10 46 20.5t46 20.5q27 13 39.5 28.5t18.5 34.5t16 45q8 22 15.5 43.5t14.5 43.5q7 20 4 20q-2 0 -16 -17q-22 -28 -48.5 -50t-46.5 -22q-23 0 -33 30q-11 35 -5 79t25 89.5t47.5 83.5t63.5 61.5t72 23.5
q19 0 37.5 -6.5t37.5 -21.5zM-314 -884q97 194 185 391t166 399q7 17 5.5 23.5t-7.5 6.5q-7 0 -19 -6t-23 -12q-10 -4 -20 -9t-20 -9q-34 -16 -63 -29.5t-51 -25.5q-29 -16 -50.5 -54t-36 -85.5t-23.5 -93t-15 -75.5q-15 -73 -28.5 -147t-28.5 -147q-13 -61 -26.5 -125
t-21.5 -126q-4 -24 0 -24q3 0 9 12l11 22q14 27 28 54.5t27 54.5z" />
    <glyph glyph-name="Gbreve" unicode="&#x11e;" horiz-adv-x="728" 
d="M414 771q-69 0 -108.5 33.5t-44.5 100.5h54q4 -35 24.5 -49t76.5 -14q49 0 73 15.5t28 47.5h55q-6 -64 -48 -99t-110 -35zM676 551q-7 -13 -17 -13q-6 0 -9 5t2 16q15 38 33 63t38.5 49t44 58.5t48.5 91.5q7 18 7 48t-10 60.5t-32.5 51t-59.5 20.5q-36 0 -82 -23l-6 -6
q-66 -36 -133.5 -100t-130 -147.5t-113 -178.5t-83 -192t-40.5 -188.5t16 -168.5q20 -57 52.5 -89t77.5 -32q44 0 84 25t75 60t60 66q26 79 44.5 135t16.5 91q0 35 -19.5 51.5t-64.5 20.5h-33t-15 1q-7 2 -10 10t1.5 15t21.5 7q19 1 38 1.5t39 0.5q24 0 47 -0.5t46 -1.5
q6 0 14.5 -1t17.5 -1q11 0 21 2t15 8q5 4 20 14.5t28 10.5q5 0 10 -3q7 -6 7 -15.5t3 -11.5q4 -2 10 -2q7 0 16.5 1t17.5 1q14 0 19 -4q10 -11 7 -18t-12.5 -10t-18.5 -3q-6 0 -19.5 -0.5t-26 -2t-15.5 -4.5q-2 -2 -11 -20t-21 -41.5t-22 -43.5t-13 -28
q-63 -137 -123.5 -273.5t-106.5 -280.5q-2 -10 -9.5 -14.5t-16.5 -4.5q-11 0 -21 6.5t-9 15.5v1h-2q24 89 49 165.5t49 139.5q-16 -13 -31 -28t-19 -20q-32 -23 -68 -38.5t-76 -15.5q-62 0 -109.5 41t-67.5 105q-26 81 -19.5 177t38.5 197.5t83 200t115 185.5t134.5 154.5
t140.5 105.5q30 17 59 24.5t55 7.5q44 0 78 -19.5t54 -52.5t22 -75t-18 -87q-23 -49 -46 -83.5t-44 -61t-39 -52t-33 -55.5zM532 77q7 12 15 22.5t14 21.5q12 19 23 39t23 41q9 23 20 45.5t23 47.5q7 20 4.5 25.5t-23.5 5.5h-33h-57q17 -11 26.5 -28.5t9.5 -43.5
q0 -31 -12.5 -74t-32.5 -102zM459 -132q8 22 17 42.5t14.5 34t3.5 15.5q0 2 -1 2t-1 -2q-9 -20 -17 -43t-16 -49z" />
    <glyph glyph-name="gbreve" unicode="&#x11f;" horiz-adv-x="615" 
d="M300 606q-69 0 -108.5 33.5t-44.5 100.5h54q4 -35 24.5 -49t76.5 -14q49 0 73 15.5t28 47.5h55q-6 -64 -48 -99t-110 -35zM271 441q7 -5 7.5 -12.5t-4.5 -14.5q-6 -7 -15 -7q-8 0 -12 4q-15 12 -31 12q-20 0 -42 -16.5t-42 -41.5t-40.5 -61t-35.5 -74t-19 -69
q-1 -17 5 -17q5 0 12.5 7.5t12.5 13.5q32 33 60.5 72t54.5 77q5 8 21 8q14 0 27 -7t9 -18q-20 -62 -41 -123.5t-44 -123.5q-8 -21 -1 -21q3 0 9 3.5t14 7.5q60 32 111.5 63.5t99.5 69t96 86.5q10 10 20 10t15 -10.5t-1 -18.5q-6 -9 -21.5 -24.5t-35.5 -32.5t-37.5 -31
l-27.5 -22q-61 -45 -121 -79.5t-127 -68.5q-23 -11 -29.5 -28.5t-14.5 -41.5q-33 -92 -77.5 -197t-94.5 -213.5t-100.5 -211.5t-94.5 -191q-3 -6 -13.5 -25t-26 -43.5t-33 -48t-34.5 -39t-30 -15.5q-8 0 -14 8.5t-8 28.5q-3 23 1 57t10.5 67.5t10.5 57.5q17 90 35 179.5
t35 180.5q5 30 13 71t19.5 86.5t27.5 88.5t38 76t51 49l3 2q23 12 52.5 25.5t63.5 29.5q22 10 46 20.5t46 20.5q27 13 39.5 28.5t18.5 34.5t16 45q8 22 15.5 43.5t14.5 43.5q7 20 4 20q-2 0 -16 -17q-22 -28 -48.5 -50t-46.5 -22q-23 0 -33 30q-11 35 -5 79t25 89.5
t47.5 83.5t63.5 61.5t72 23.5q19 0 37.5 -6.5t37.5 -21.5zM-314 -884q97 194 185 391t166 399q7 17 5.5 23.5t-7.5 6.5q-7 0 -19 -6t-23 -12q-10 -4 -20 -9t-20 -9q-34 -16 -63 -29.5t-51 -25.5q-29 -16 -50.5 -54t-36 -85.5t-23.5 -93t-15 -75.5q-15 -73 -28.5 -147
t-28.5 -147q-13 -61 -26.5 -125t-21.5 -126q-4 -24 0 -24q3 0 9 12l11 22q14 27 28 54.5t27 54.5z" />
    <glyph glyph-name="Gdotaccent" unicode="&#x120;" horiz-adv-x="728" 
d="M371 846q0 29 15 42.5t37 13.5q21 0 36 -13.5t15 -42.5t-15.5 -42.5t-35.5 -13.5q-22 0 -37 13.5t-15 42.5zM676 551q-7 -13 -17 -13q-6 0 -9 5t2 16q15 38 33 63t38.5 49t44 58.5t48.5 91.5q7 18 7 48t-10 60.5t-32.5 51t-59.5 20.5q-36 0 -82 -23l-6 -6
q-66 -36 -133.5 -100t-130 -147.5t-113 -178.5t-83 -192t-40.5 -188.5t16 -168.5q20 -57 52.5 -89t77.5 -32q44 0 84 25t75 60t60 66q26 79 44.5 135t16.5 91q0 35 -19.5 51.5t-64.5 20.5h-33t-15 1q-7 2 -10 10t1.5 15t21.5 7q19 1 38 1.5t39 0.5q24 0 47 -0.5t46 -1.5
q6 0 14.5 -1t17.5 -1q11 0 21 2t15 8q5 4 20 14.5t28 10.5q5 0 10 -3q7 -6 7 -15.5t3 -11.5q4 -2 10 -2q7 0 16.5 1t17.5 1q14 0 19 -4q10 -11 7 -18t-12.5 -10t-18.5 -3q-6 0 -19.5 -0.5t-26 -2t-15.5 -4.5q-2 -2 -11 -20t-21 -41.5t-22 -43.5t-13 -28
q-63 -137 -123.5 -273.5t-106.5 -280.5q-2 -10 -9.5 -14.5t-16.5 -4.5q-11 0 -21 6.5t-9 15.5v1h-2q24 89 49 165.5t49 139.5q-16 -13 -31 -28t-19 -20q-32 -23 -68 -38.5t-76 -15.5q-62 0 -109.5 41t-67.5 105q-26 81 -19.5 177t38.5 197.5t83 200t115 185.5t134.5 154.5
t140.5 105.5q30 17 59 24.5t55 7.5q44 0 78 -19.5t54 -52.5t22 -75t-18 -87q-23 -49 -46 -83.5t-44 -61t-39 -52t-33 -55.5zM532 77q7 12 15 22.5t14 21.5q12 19 23 39t23 41q9 23 20 45.5t23 47.5q7 20 4.5 25.5t-23.5 5.5h-33h-57q17 -11 26.5 -28.5t9.5 -43.5
q0 -31 -12.5 -74t-32.5 -102zM459 -132q8 22 17 42.5t14.5 34t3.5 15.5q0 2 -1 2t-1 -2q-9 -20 -17 -43t-16 -49z" />
    <glyph glyph-name="gdotaccent" unicode="&#x121;" horiz-adv-x="615" 
d="M247 681q0 29 15 42.5t37 13.5q21 0 36 -13.5t15 -42.5t-15.5 -42.5t-35.5 -13.5q-22 0 -37 13.5t-15 42.5zM271 441q7 -5 7.5 -12.5t-4.5 -14.5q-6 -7 -15 -7q-8 0 -12 4q-15 12 -31 12q-20 0 -42 -16.5t-42 -41.5t-40.5 -61t-35.5 -74t-19 -69q-1 -17 5 -17
q5 0 12.5 7.5t12.5 13.5q32 33 60.5 72t54.5 77q5 8 21 8q14 0 27 -7t9 -18q-20 -62 -41 -123.5t-44 -123.5q-8 -21 -1 -21q3 0 9 3.5t14 7.5q60 32 111.5 63.5t99.5 69t96 86.5q10 10 20 10t15 -10.5t-1 -18.5q-6 -9 -21.5 -24.5t-35.5 -32.5t-37.5 -31l-27.5 -22
q-61 -45 -121 -79.5t-127 -68.5q-23 -11 -29.5 -28.5t-14.5 -41.5q-33 -92 -77.5 -197t-94.5 -213.5t-100.5 -211.5t-94.5 -191q-3 -6 -13.5 -25t-26 -43.5t-33 -48t-34.5 -39t-30 -15.5q-8 0 -14 8.5t-8 28.5q-3 23 1 57t10.5 67.5t10.5 57.5q17 90 35 179.5t35 180.5
q5 30 13 71t19.5 86.5t27.5 88.5t38 76t51 49l3 2q23 12 52.5 25.5t63.5 29.5q22 10 46 20.5t46 20.5q27 13 39.5 28.5t18.5 34.5t16 45q8 22 15.5 43.5t14.5 43.5q7 20 4 20q-2 0 -16 -17q-22 -28 -48.5 -50t-46.5 -22q-23 0 -33 30q-11 35 -5 79t25 89.5t47.5 83.5
t63.5 61.5t72 23.5q19 0 37.5 -6.5t37.5 -21.5zM-314 -884q97 194 185 391t166 399q7 17 5.5 23.5t-7.5 6.5q-7 0 -19 -6t-23 -12q-10 -4 -20 -9t-20 -9q-34 -16 -63 -29.5t-51 -25.5q-29 -16 -50.5 -54t-36 -85.5t-23.5 -93t-15 -75.5q-15 -73 -28.5 -147t-28.5 -147
q-13 -61 -26.5 -125t-21.5 -126q-4 -24 0 -24q3 0 9 12l11 22q14 27 28 54.5t27 54.5z" />
    <glyph glyph-name="uni0122" unicode="&#x122;" horiz-adv-x="728" 
d="M322 -209q11 25 24 70.5t17 77.5h87v-9q-8 -31 -31.5 -76.5t-48.5 -74.5h-48v12zM676 551q-7 -13 -17 -13q-6 0 -9 5t2 16q15 38 33 63t38.5 49t44 58.5t48.5 91.5q7 18 7 48t-10 60.5t-32.5 51t-59.5 20.5q-36 0 -82 -23l-6 -6q-66 -36 -133.5 -100t-130 -147.5
t-113 -178.5t-83 -192t-40.5 -188.5t16 -168.5q20 -57 52.5 -89t77.5 -32q44 0 84 25t75 60t60 66q26 79 44.5 135t16.5 91q0 35 -19.5 51.5t-64.5 20.5h-33t-15 1q-7 2 -10 10t1.5 15t21.5 7q19 1 38 1.5t39 0.5q24 0 47 -0.5t46 -1.5q6 0 14.5 -1t17.5 -1q11 0 21 2t15 8
q5 4 20 14.5t28 10.5q5 0 10 -3q7 -6 7 -15.5t3 -11.5q4 -2 10 -2q7 0 16.5 1t17.5 1q14 0 19 -4q10 -11 7 -18t-12.5 -10t-18.5 -3q-6 0 -19.5 -0.5t-26 -2t-15.5 -4.5q-2 -2 -11 -20t-21 -41.5t-22 -43.5t-13 -28q-63 -137 -123.5 -273.5t-106.5 -280.5q-2 -10 -9.5 -14.5
t-16.5 -4.5q-11 0 -21 6.5t-9 15.5v1h-2q24 89 49 165.5t49 139.5q-16 -13 -31 -28t-19 -20q-32 -23 -68 -38.5t-76 -15.5q-62 0 -109.5 41t-67.5 105q-26 81 -19.5 177t38.5 197.5t83 200t115 185.5t134.5 154.5t140.5 105.5q30 17 59 24.5t55 7.5q44 0 78 -19.5t54 -52.5
t22 -75t-18 -87q-23 -49 -46 -83.5t-44 -61t-39 -52t-33 -55.5zM532 77q7 12 15 22.5t14 21.5q12 19 23 39t23 41q9 23 20 45.5t23 47.5q7 20 4.5 25.5t-23.5 5.5h-33h-57q17 -11 26.5 -28.5t9.5 -43.5q0 -31 -12.5 -74t-32.5 -102zM459 -132q8 22 17 42.5t14.5 34t3.5 15.5
q0 2 -1 2t-1 -2q-9 -20 -17 -43t-16 -49z" />
    <glyph glyph-name="uni0123" unicode="&#x123;" horiz-adv-x="615" 
d="M379 754q-13 -29 -26 -74.5t-16 -73.5h-87v9q7 27 31.5 74t48.5 77h49v-12zM271 441q7 -5 7.5 -12.5t-4.5 -14.5q-6 -7 -15 -7q-8 0 -12 4q-15 12 -31 12q-20 0 -42 -16.5t-42 -41.5t-40.5 -61t-35.5 -74t-19 -69q-1 -17 5 -17q5 0 12.5 7.5t12.5 13.5q32 33 60.5 72
t54.5 77q5 8 21 8q14 0 27 -7t9 -18q-20 -62 -41 -123.5t-44 -123.5q-8 -21 -1 -21q3 0 9 3.5t14 7.5q60 32 111.5 63.5t99.5 69t96 86.5q10 10 20 10t15 -10.5t-1 -18.5q-6 -9 -21.5 -24.5t-35.5 -32.5t-37.5 -31l-27.5 -22q-61 -45 -121 -79.5t-127 -68.5
q-23 -11 -29.5 -28.5t-14.5 -41.5q-33 -92 -77.5 -197t-94.5 -213.5t-100.5 -211.5t-94.5 -191q-3 -6 -13.5 -25t-26 -43.5t-33 -48t-34.5 -39t-30 -15.5q-8 0 -14 8.5t-8 28.5q-3 23 1 57t10.5 67.5t10.5 57.5q17 90 35 179.5t35 180.5q5 30 13 71t19.5 86.5t27.5 88.5
t38 76t51 49l3 2q23 12 52.5 25.5t63.5 29.5q22 10 46 20.5t46 20.5q27 13 39.5 28.5t18.5 34.5t16 45q8 22 15.5 43.5t14.5 43.5q7 20 4 20q-2 0 -16 -17q-22 -28 -48.5 -50t-46.5 -22q-23 0 -33 30q-11 35 -5 79t25 89.5t47.5 83.5t63.5 61.5t72 23.5q19 0 37.5 -6.5
t37.5 -21.5zM-314 -884q97 194 185 391t166 399q7 17 5.5 23.5t-7.5 6.5q-7 0 -19 -6t-23 -12q-10 -4 -20 -9t-20 -9q-34 -16 -63 -29.5t-51 -25.5q-29 -16 -50.5 -54t-36 -85.5t-23.5 -93t-15 -75.5q-15 -73 -28.5 -147t-28.5 -147q-13 -61 -26.5 -125t-21.5 -126
q-4 -24 0 -24q3 0 9 12l11 22q14 27 28 54.5t27 54.5z" />
    <glyph glyph-name="Hcircumflex" unicode="&#x124;" horiz-adv-x="741" 
d="M200 782q61 65 86 96.5t37 52.5h90q25 -49 125 -149v-11h-62q-44 26 -109 90q-64 -62 -107 -90h-60v11zM357 614q-6 -16 -5 -21.5t8 -5.5t22 3q13 2 40 6.5l60 10t65 11.5t55.5 11t30.5 9q14 7 23 29t15 36q20 47 36 85t31 76t33 86q3 10 8.5 14t9.5 4q7 0 11.5 -6
t3.5 -16q-1 -8 -10.5 -33t-22.5 -56.5t-24.5 -58.5t-16.5 -39q-8 -21 -12.5 -32t-9.5 -22t-13 -32q-7 -17 -5 -21t7.5 -5t6.5 -10q0 -13 -7.5 -16.5t-17 -6t-14.5 -11.5q-10 -18 -20 -43.5t-18 -44.5t-15 -37t-15 -37q-14 -33 -35 -84.5t-46 -113t-51 -127t-50.5 -127.5
t-44 -114t-30.5 -86q-2 -7 -6 -21.5t-8.5 -28t-8.5 -16.5q-6 -6 -12 -6t-10.5 6.5t-3.5 17.5q2 10 15 47t33 89.5t42 110.5t42.5 111t35 90.5t18.5 47.5q20 51 35.5 90t30.5 74t31.5 74t37.5 88q8 20 8.5 27.5t-6.5 7.5q-5 0 -13 -2t-18 -5q-52 -11 -108 -20t-112 -16
q-20 -5 -29.5 -12t-14 -18t-11.5 -29q-27 -73 -56 -143.5t-58 -142.5q-17 -44 -32.5 -89.5t-30.5 -92.5q-2 -7 -8.5 -20t-16.5 -13q-5 0 -7 2q-12 5 -15.5 25t0.5 31q10 31 20 61.5t22 60.5q11 41 21.5 86t15.5 87q11 67 3 111q-5 20 -13 32.5t-23 17.5h-1l-3 -4
q-3 -1 -8 -1q-17 0 -19 13t11 19q17 8 47.5 15t61 13t49.5 10q19 3 22 10.5t10 23.5q19 50 43 103t45 105q23 50 51 108t56 104q7 10 24 10q13 0 23.5 -7.5t2.5 -20.5q-52 -91 -100 -196t-88 -200zM170 286q12 33 24 64.5t25 62.5q10 27 21 51.5t21 50.5q11 23 -1 23
q-7 0 -17 -3q-44 -7 -90 -20q10 -8 17 -21.5t11 -31.5q4 -22 3 -52t-4 -63q-3 -14 -6 -29.5t-4 -31.5z" />
    <glyph glyph-name="hcircumflex" unicode="&#x125;" horiz-adv-x="618" 
d="M143 809q61 65 86 96.5t37 52.5h90q25 -49 125 -149v-11h-62q-44 26 -109 90q-64 -62 -107 -90h-60v11zM348 1154q2 7 9 9.5t16 2.5q14 0 26 -7t8 -18q-8 -22 -29.5 -75.5t-51 -127.5t-64 -160t-69 -174.5t-66 -170t-54.5 -146.5q-10 -26 -5 -26q4 0 17.5 16.5t34 37.5
t43 37.5t44.5 16.5q16 0 31 -13t25 -46q17 -54 29.5 -90t26.5 -54t37 -18q29 0 78 29t134 88q4 4 12 4q11 0 15 -7q4 -6 3 -14t-6 -12q-70 -58 -131.5 -91t-108.5 -33q-41 0 -70 27.5t-43 88.5q-8 38 -21 53.5t-30 15.5q-21 0 -46 -21t-49.5 -53.5t-46 -67t-37 -62.5
t-20.5 -40q-8 -19 -16 -27.5t-15 -8.5q-11 0 -17 21t0 47q11 48 36 123t59.5 166.5t73 189.5t77 192.5t72 175.5t57 139.5t32.5 82.5z" />
    <glyph glyph-name="Hbar" unicode="&#x126;" horiz-adv-x="741" 
d="M97 595v119h90v-119h366v119h90v-119h97v-72h-97v-523h-90v333h-366v-333h-90v523h-97v72h97zM553 412v111h-366v-111h366z" />
    <glyph glyph-name="hbar" unicode="&#x127;" horiz-adv-x="618" 
d="M450 0v323q0 65 -29 97t-91 32q-83 0 -120 -45t-37 -149v-258h-88v604h-76v66h76v90h88v-90h212v-66h-212v-87q0 -43 -5 -74h6q26 42 70.5 62.5t97.5 20.5q97 0 146 -47t49 -150v-329h-87z" />
    <glyph glyph-name="Itilde" unicode="&#x128;" horiz-adv-x="338" 
d="M244 772q-21 0 -41 9t-39.5 19.5t-37 19.5t-34.5 9q-24 0 -36 -14.5t-19 -43.5h-51q6 60 34 94t76 34q22 0 42.5 -9t39.5 -19.5t37 -19.5t33 -9q23 0 35.5 14.5t19.5 43.5h50q-6 -58 -34 -93t-75 -35zM911 1034q2 1 6 1q15 0 17 -15q2 -8 -2.5 -15t-11.5 -8
q-43 -11 -85.5 -19t-85.5 -15q-23 -5 -30 -12t-16 -27q-16 -40 -33 -80t-33 -81q-79 -186 -156.5 -373t-148.5 -378q-2 -6 -8.5 -23t-11 -33.5t0.5 -21.5q4 -2 10 -2q11 0 30 3.5t36.5 8t25.5 5.5q43 9 87.5 19t89.5 21q8 0 13 -2t7 -12q3 -7 -0.5 -14.5t-10.5 -10.5
q-77 -20 -162 -34.5t-169 -30t-162 -35.5q-20 -6 -39 -10t-36 -12q-1 0 -3 -0.5t-3 -0.5q-15 0 -20 13q-5 17 11 27q44 13 82.5 21.5t84.5 17.5q36 9 48 24q21 92 58.5 194.5t75.5 204.5q37 93 68 180t47 160t8 125q-5 44 -35.5 67.5t-92.5 23.5q-13 0 -27.5 -1.5
t-31.5 -3.5q-2 -1 -5 -1q-13 0 -16 12q-3 6 0.5 15t10.5 11q53 18 114.5 30t124.5 21.5t120 20.5q13 2 15.5 3.5t2.5 4.5t7 8q5 6 15 6q13 0 25.5 -6.5t14.5 -7.5q2 0 18.5 3t41 8.5t49.5 10.5t44.5 9.5t25.5 5.5zM336 193q56 147 118 293.5t124 290.5q16 35 30.5 71.5
t32.5 71.5q7 16 5.5 21.5t-9.5 5.5q-9 0 -26 -3q-52 -10 -111.5 -19.5t-114.5 -25.5q58 -2 86.5 -28.5t35.5 -73.5q9 -54 -7 -129t-47.5 -164t-67.5 -185q-12 -31 -25.5 -62.5t-23.5 -63.5z" />
    <glyph glyph-name="itilde" unicode="&#x129;" horiz-adv-x="257" 
d="M204 607q-21 0 -41 9t-39.5 19.5t-37 19.5t-34.5 9q-24 0 -36 -14.5t-19 -43.5h-51q6 60 34 94t76 34q22 0 42.5 -9t39.5 -19.5t37 -19.5t33 -9q23 0 35.5 14.5t19.5 43.5h50q-6 -58 -34 -93t-75 -35zM173 0h-88v536h88v-536z" />
    <glyph glyph-name="Imacron" unicode="&#x12a;" horiz-adv-x="338" 
d="M21 842h297v-71h-297v71zM911 1034q2 1 6 1q15 0 17 -15q2 -8 -2.5 -15t-11.5 -8q-43 -11 -85.5 -19t-85.5 -15q-23 -5 -30 -12t-16 -27q-16 -40 -33 -80t-33 -81q-79 -186 -156.5 -373t-148.5 -378q-2 -6 -8.5 -23t-11 -33.5t0.5 -21.5q4 -2 10 -2q11 0 30 3.5t36.5 8
t25.5 5.5q43 9 87.5 19t89.5 21q8 0 13 -2t7 -12q3 -7 -0.5 -14.5t-10.5 -10.5q-77 -20 -162 -34.5t-169 -30t-162 -35.5q-20 -6 -39 -10t-36 -12q-1 0 -3 -0.5t-3 -0.5q-15 0 -20 13q-5 17 11 27q44 13 82.5 21.5t84.5 17.5q36 9 48 24q21 92 58.5 194.5t75.5 204.5
q37 93 68 180t47 160t8 125q-5 44 -35.5 67.5t-92.5 23.5q-13 0 -27.5 -1.5t-31.5 -3.5q-2 -1 -5 -1q-13 0 -16 12q-3 6 0.5 15t10.5 11q53 18 114.5 30t124.5 21.5t120 20.5q13 2 15.5 3.5t2.5 4.5t7 8q5 6 15 6q13 0 25.5 -6.5t14.5 -7.5q2 0 18.5 3t41 8.5t49.5 10.5
t44.5 9.5t25.5 5.5zM336 193q56 147 118 293.5t124 290.5q16 35 30.5 71.5t32.5 71.5q7 16 5.5 21.5t-9.5 5.5q-9 0 -26 -3q-52 -10 -111.5 -19.5t-114.5 -25.5q58 -2 86.5 -28.5t35.5 -73.5q9 -54 -7 -129t-47.5 -164t-67.5 -185q-12 -31 -25.5 -62.5t-23.5 -63.5z" />
    <glyph glyph-name="imacron" unicode="&#x12b;" horiz-adv-x="257" 
d="M-18 677h297v-71h-297v71zM173 0h-88v536h88v-536z" />
    <glyph glyph-name="Ibreve" unicode="&#x12c;" horiz-adv-x="338" 
d="M168 771q-69 0 -108.5 33.5t-44.5 100.5h54q4 -35 24.5 -49t76.5 -14q49 0 73 15.5t28 47.5h55q-6 -64 -48 -99t-110 -35zM911 1034q2 1 6 1q15 0 17 -15q2 -8 -2.5 -15t-11.5 -8q-43 -11 -85.5 -19t-85.5 -15q-23 -5 -30 -12t-16 -27q-16 -40 -33 -80t-33 -81
q-79 -186 -156.5 -373t-148.5 -378q-2 -6 -8.5 -23t-11 -33.5t0.5 -21.5q4 -2 10 -2q11 0 30 3.5t36.5 8t25.5 5.5q43 9 87.5 19t89.5 21q8 0 13 -2t7 -12q3 -7 -0.5 -14.5t-10.5 -10.5q-77 -20 -162 -34.5t-169 -30t-162 -35.5q-20 -6 -39 -10t-36 -12q-1 0 -3 -0.5
t-3 -0.5q-15 0 -20 13q-5 17 11 27q44 13 82.5 21.5t84.5 17.5q36 9 48 24q21 92 58.5 194.5t75.5 204.5q37 93 68 180t47 160t8 125q-5 44 -35.5 67.5t-92.5 23.5q-13 0 -27.5 -1.5t-31.5 -3.5q-2 -1 -5 -1q-13 0 -16 12q-3 6 0.5 15t10.5 11q53 18 114.5 30t124.5 21.5
t120 20.5q13 2 15.5 3.5t2.5 4.5t7 8q5 6 15 6q13 0 25.5 -6.5t14.5 -7.5q2 0 18.5 3t41 8.5t49.5 10.5t44.5 9.5t25.5 5.5zM336 193q56 147 118 293.5t124 290.5q16 35 30.5 71.5t32.5 71.5q7 16 5.5 21.5t-9.5 5.5q-9 0 -26 -3q-52 -10 -111.5 -19.5t-114.5 -25.5
q58 -2 86.5 -28.5t35.5 -73.5q9 -54 -7 -129t-47.5 -164t-67.5 -185q-12 -31 -25.5 -62.5t-23.5 -63.5z" />
    <glyph glyph-name="ibreve" unicode="&#x12d;" horiz-adv-x="257" 
d="M126 606q-69 0 -108.5 33.5t-44.5 100.5h54q4 -35 24.5 -49t76.5 -14q49 0 73 15.5t28 47.5h55q-6 -64 -48 -99t-110 -35zM173 0h-88v536h88v-536z" />
    <glyph glyph-name="Iogonek" unicode="&#x12e;" horiz-adv-x="338" 
d="M160 -116q0 -22 12 -33.5t33 -11.5t48 6v-56q-34 -9 -62 -9q-103 0 -103 94q0 68 78 126h62q-34 -32 -51 -58.5t-17 -57.5zM911 1034q2 1 6 1q15 0 17 -15q2 -8 -2.5 -15t-11.5 -8q-43 -11 -85.5 -19t-85.5 -15q-23 -5 -30 -12t-16 -27q-16 -40 -33 -80t-33 -81
q-79 -186 -156.5 -373t-148.5 -378q-2 -6 -8.5 -23t-11 -33.5t0.5 -21.5q4 -2 10 -2q11 0 30 3.5t36.5 8t25.5 5.5q43 9 87.5 19t89.5 21q8 0 13 -2t7 -12q3 -7 -0.5 -14.5t-10.5 -10.5q-77 -20 -162 -34.5t-169 -30t-162 -35.5q-20 -6 -39 -10t-36 -12q-1 0 -3 -0.5
t-3 -0.5q-15 0 -20 13q-5 17 11 27q44 13 82.5 21.5t84.5 17.5q36 9 48 24q21 92 58.5 194.5t75.5 204.5q37 93 68 180t47 160t8 125q-5 44 -35.5 67.5t-92.5 23.5q-13 0 -27.5 -1.5t-31.5 -3.5q-2 -1 -5 -1q-13 0 -16 12q-3 6 0.5 15t10.5 11q53 18 114.5 30t124.5 21.5
t120 20.5q13 2 15.5 3.5t2.5 4.5t7 8q5 6 15 6q13 0 25.5 -6.5t14.5 -7.5q2 0 18.5 3t41 8.5t49.5 10.5t44.5 9.5t25.5 5.5zM336 193q56 147 118 293.5t124 290.5q16 35 30.5 71.5t32.5 71.5q7 16 5.5 21.5t-9.5 5.5q-9 0 -26 -3q-52 -10 -111.5 -19.5t-114.5 -25.5
q58 -2 86.5 -28.5t35.5 -73.5q9 -54 -7 -129t-47.5 -164t-67.5 -185q-12 -31 -25.5 -62.5t-23.5 -63.5z" />
    <glyph glyph-name="iogonek" unicode="&#x12f;" horiz-adv-x="257" 
d="M97 -116q0 -22 12 -33.5t33 -11.5t48 6v-56q-34 -9 -62 -9q-103 0 -103 94q0 68 78 126h62q-34 -32 -51 -58.5t-17 -57.5zM103 111l9 1q37 10 78 35t78.5 56t64.5 58q6 5 14 5t12 -5q12 -14 0 -26q-21 -22 -53.5 -49t-71 -52t-78 -41t-75.5 -16q-13 0 -27 3q-28 8 -44 40
t-20 73.5t3 77.5q3 17 15.5 30.5t24.5 13.5q10 0 16.5 -12.5t1.5 -43.5q-5 -40 -5 -74t10 -55t33 -21q3 0 6.5 0.5t7.5 1.5zM61 483h1.5h1.5q24 0 33 13.5t5 27t-20 13.5q-3 0 -11 -2q-11 -4 -21.5 -16.5t-10 -23.5t21.5 -12z" />
    <glyph glyph-name="Idotaccent" unicode="&#x130;" horiz-adv-x="338" 
d="M117 846q0 29 15 42.5t37 13.5q21 0 36 -13.5t15 -42.5t-15.5 -42.5t-35.5 -13.5q-22 0 -37 13.5t-15 42.5zM911 1034q2 1 6 1q15 0 17 -15q2 -8 -2.5 -15t-11.5 -8q-43 -11 -85.5 -19t-85.5 -15q-23 -5 -30 -12t-16 -27q-16 -40 -33 -80t-33 -81q-79 -186 -156.5 -373
t-148.5 -378q-2 -6 -8.5 -23t-11 -33.5t0.5 -21.5q4 -2 10 -2q11 0 30 3.5t36.5 8t25.5 5.5q43 9 87.5 19t89.5 21q8 0 13 -2t7 -12q3 -7 -0.5 -14.5t-10.5 -10.5q-77 -20 -162 -34.5t-169 -30t-162 -35.5q-20 -6 -39 -10t-36 -12q-1 0 -3 -0.5t-3 -0.5q-15 0 -20 13
q-5 17 11 27q44 13 82.5 21.5t84.5 17.5q36 9 48 24q21 92 58.5 194.5t75.5 204.5q37 93 68 180t47 160t8 125q-5 44 -35.5 67.5t-92.5 23.5q-13 0 -27.5 -1.5t-31.5 -3.5q-2 -1 -5 -1q-13 0 -16 12q-3 6 0.5 15t10.5 11q53 18 114.5 30t124.5 21.5t120 20.5q13 2 15.5 3.5
t2.5 4.5t7 8q5 6 15 6q13 0 25.5 -6.5t14.5 -7.5q2 0 18.5 3t41 8.5t49.5 10.5t44.5 9.5t25.5 5.5zM336 193q56 147 118 293.5t124 290.5q16 35 30.5 71.5t32.5 71.5q7 16 5.5 21.5t-9.5 5.5q-9 0 -26 -3q-52 -10 -111.5 -19.5t-114.5 -25.5q58 -2 86.5 -28.5t35.5 -73.5
q9 -54 -7 -129t-47.5 -164t-67.5 -185q-12 -31 -25.5 -62.5t-23.5 -63.5z" />
    <glyph glyph-name="dotlessi" unicode="&#x131;" horiz-adv-x="257" 
d="M173 0h-88v536h88v-536z" />
    <glyph glyph-name="IJ" unicode="&#x132;" horiz-adv-x="611" 
d="M911 1034q2 1 6 1q15 0 17 -15q2 -8 -2.5 -15t-11.5 -8q-43 -11 -85.5 -19t-85.5 -15q-23 -5 -30 -12t-16 -27q-16 -40 -33 -80t-33 -81q-79 -186 -156.5 -373t-148.5 -378q-2 -6 -8.5 -23t-11 -33.5t0.5 -21.5q4 -2 10 -2q11 0 30 3.5t36.5 8t25.5 5.5q43 9 87.5 19
t89.5 21q8 0 13 -2t7 -12q3 -7 -0.5 -14.5t-10.5 -10.5q-77 -20 -162 -34.5t-169 -30t-162 -35.5q-20 -6 -39 -10t-36 -12q-1 0 -3 -0.5t-3 -0.5q-15 0 -20 13q-5 17 11 27q44 13 82.5 21.5t84.5 17.5q36 9 48 24q21 92 58.5 194.5t75.5 204.5q37 93 68 180t47 160t8 125
q-5 44 -35.5 67.5t-92.5 23.5q-13 0 -27.5 -1.5t-31.5 -3.5q-2 -1 -5 -1q-13 0 -16 12q-3 6 0.5 15t10.5 11q53 18 114.5 30t124.5 21.5t120 20.5q13 2 15.5 3.5t2.5 4.5t7 8q5 6 15 6q13 0 25.5 -6.5t14.5 -7.5q2 0 18.5 3t41 8.5t49.5 10.5t44.5 9.5t25.5 5.5zM336 193
q56 147 118 293.5t124 290.5q16 35 30.5 71.5t32.5 71.5q7 16 5.5 21.5t-9.5 5.5q-9 0 -26 -3q-52 -10 -111.5 -19.5t-114.5 -25.5q58 -2 86.5 -28.5t35.5 -73.5q9 -54 -7 -129t-47.5 -164t-67.5 -185q-12 -31 -25.5 -62.5t-23.5 -63.5zM981 941q2 16 -2 21t-14 5
q-6 0 -14 -1t-18 -2q-34 -2 -68.5 -3t-69.5 -5q-19 0 -20 17q-2 7 3.5 13.5t13.5 6.5q75 7 161 9.5t172 8t159 23.5q2 1 5 1q14 0 17 -14q2 -8 -2 -14.5t-12 -7.5q-52 -13 -106 -19t-108 -8q-17 -2 -24 -6t-12 -21q-5 -15 -9 -34.5t-8 -35.5q-5 -16 -11.5 -36t-14.5 -44v2
q-10 -29 -18.5 -58t-16.5 -58q85 45 162.5 98t136.5 120q6 7 13 7t13 -6q4 -5 5 -12.5t-5 -13.5q-70 -76 -160 -136.5t-185 -108.5q-47 -124 -90 -221.5t-82.5 -177.5t-77.5 -153q-11 -21 -21.5 -43t-24.5 -48q-41 -83 -75 -119t-52 -36q-4 0 -6 1q-16 7 -13.5 49
t14.5 107.5t27 140.5l11 55q11 49 16 89t11 72q6 55 13.5 93t26 64t55.5 47q21 11 48 23t57 28q28 11 53.5 22.5t58.5 26.5q22 65 42 137.5t46 154.5zM648 93q36 69 70.5 143t72.5 163t83 204q-24 -11 -40.5 -19t-36.5 -17q-32 -13 -59 -26t-46 -24q-29 -15 -44 -38
t-21.5 -57t-12.5 -82q-5 -32 -10.5 -72.5t-14.5 -90.5l-11 -54q-15 -70 -27 -128.5t-18 -93.5t-3 -37q0 -1 10.5 19t26.5 50.5t33 63.5t30 59.5t18 36.5z" />
    <glyph glyph-name="ij" unicode="&#x133;" horiz-adv-x="514" 
d="M103 111l9 1q37 10 78 35t78.5 56t64.5 58q6 5 14 5t12 -5q12 -14 0 -26q-21 -22 -53.5 -49t-71 -52t-78 -41t-75.5 -16q-13 0 -27 3q-28 8 -44 40t-20 73.5t3 77.5q3 17 15.5 30.5t24.5 13.5q10 0 16.5 -12.5t1.5 -43.5q-5 -40 -5 -74t10 -55t33 -21q3 0 6.5 0.5
t7.5 1.5zM61 483h1.5h1.5q24 0 33 13.5t5 27t-20 13.5q-3 0 -11 -2q-11 -4 -21.5 -16.5t-10 -23.5t21.5 -12zM243 51q-8 -24 -1 -24q4 0 10.5 3.5t15.5 8.5q84 46 163 98.5t144 123.5q6 6 15 6q6 0 13 -5q5 -5 5.5 -13.5t-4.5 -13.5q-71 -77 -166.5 -140t-189.5 -109
q-22 -11 -31.5 -21.5t-14 -24.5t-13.5 -37q-77 -203 -168 -409.5t-189 -399.5q-4 -8 -16.5 -27.5t-29 -43.5t-35 -46.5t-36 -37.5t-30.5 -15q-8 0 -14 9q-7 12 -6.5 43.5t6.5 74t14.5 90t18 92t17 79.5t10.5 53q9 46 20 109.5t25.5 130.5t34 126t45.5 96q26 36 55 50.5
t67 32.5q38 17 75 34t74 35q21 11 31 23.5t15 28.5t13 37q3 8 12 34.5t21 61t23.5 68t19.5 56t9 23.5q6 8 23 8q14 0 25 -7t7 -23q-20 -59 -40.5 -119t-42.5 -119zM370 518h1.5h1.5q25 0 34.5 14t5 28.5t-20.5 14.5q-3 0 -6 -0.5t-6 -1.5q-12 -4 -23 -17t-10 -25t23 -13z
M129 -86q10 24 4 24q-2 0 -21 -8.5t-46.5 -21t-55 -25.5t-48.5 -23t-26 -13q-30 -15 -49 -43t-31.5 -60.5t-21.5 -62.5q-18 -65 -31 -137t-26 -140q-8 -42 -16.5 -84.5t-16.5 -85.5q-2 -10 -8 -39t-13.5 -66t-14.5 -73t-10.5 -61.5t-2.5 -31.5q3 1 19 30t39 75.5t49 99.5
t50 103t40.5 85.5t21.5 45.5q58 127 111.5 254.5t103.5 257.5z" />
    <glyph glyph-name="Jcircumflex" unicode="&#x134;" horiz-adv-x="272" 
d="M-31 782q61 65 86 96.5t37 52.5h90q25 -49 125 -149v-11h-62q-44 26 -109 90q-64 -62 -107 -90h-60v11zM642 941q2 16 -2 21t-14 5q-6 0 -14 -1t-18 -2q-34 -2 -68.5 -3t-69.5 -5q-19 0 -20 17q-2 7 3.5 13.5t13.5 6.5q75 7 161 9.5t172 8t159 23.5q2 1 5 1q14 0 17 -14
q2 -8 -2 -14.5t-12 -7.5q-52 -13 -106 -19t-108 -8q-17 -2 -24 -6t-12 -21q-5 -15 -9 -34.5t-8 -35.5q-5 -16 -11.5 -36t-14.5 -44v2q-10 -29 -18.5 -58t-16.5 -58q85 45 162.5 98t136.5 120q6 7 13 7t13 -6q4 -5 5 -12.5t-5 -13.5q-70 -76 -160 -136.5t-185 -108.5
q-47 -124 -90 -221.5t-82.5 -177.5t-77.5 -153q-11 -21 -21.5 -43t-24.5 -48q-41 -83 -75 -119t-52 -36q-4 0 -6 1q-16 7 -13.5 49t14.5 107.5t27 140.5l11 55q11 49 16 89t11 72q6 55 13.5 93t26 64t55.5 47q21 11 48 23t57 28q28 11 53.5 22.5t58.5 26.5q22 65 42 137.5
t46 154.5zM309 93q36 69 70.5 143t72.5 163t83 204q-24 -11 -40.5 -19t-36.5 -17q-32 -13 -59 -26t-46 -24q-29 -15 -44 -38t-21.5 -57t-12.5 -82q-5 -32 -10.5 -72.5t-14.5 -90.5l-11 -54q-15 -70 -27 -128.5t-18 -93.5t-3 -37q0 -1 10.5 19t26.5 50.5t33 63.5t30 59.5
t18 36.5z" />
    <glyph glyph-name="jcircumflex" unicode="&#x135;" horiz-adv-x="257" 
d="M-42 617q61 65 86 96.5t37 52.5h90q25 -49 125 -149v-11h-62q-44 26 -109 90q-64 -62 -107 -90h-60v11zM22 -240q-46 0 -77 12v71q34 -10 66 -10q38 0 56 21t18 63v619h88v-616q0 -80 -38.5 -120t-112.5 -40z" />
    <glyph glyph-name="uni0136" unicode="&#x136;" horiz-adv-x="619" 
d="M246 -209q11 25 24 70.5t17 77.5h87v-9q-8 -31 -31.5 -76.5t-48.5 -74.5h-48v12zM528 1001q5 12 19 12q3 0 5 -1q8 -3 22.5 -10t11.5 -12q-32 -87 -68 -170.5t-73 -167.5q-9 -24 -14.5 -37t-12 -29t-21.5 -49q-7 -8 -11 -19t-12 -22q110 55 190.5 103t144 95.5t120.5 98
t119 108.5t141 129q7 5 12 5q8 0 14 -8q5 -3 4.5 -11.5t-6.5 -13.5q-85 -86 -159 -156t-143.5 -127.5t-140.5 -106t-149.5 -91.5t-171.5 -85q-7 -14 -12 -25.5t-10 -24.5q-17 -35 -33.5 -70.5t-35.5 -72.5q35 -50 78.5 -113.5t88.5 -130t85 -127t68 -106t36 -65.5
q2 -7 -1 -13.5t-12 -9.5q-2 -1 -6 -1q-12 0 -15 9q-3 8 -27 45.5t-61 94.5t-81.5 123.5t-89 132.5t-82.5 121q-43 -90 -87 -180.5t-88 -179.5q-2 -5 -12 -7.5t-21 -2.5q-8 0 -14 2q-5 1 -9.5 12t-6 23t0.5 17q2 6 8 6q2 0 5 -0.5t5 -0.5q6 0 8 5q44 90 88 180.5t87 181.5
q-25 34 -40 55.5t-20 24.5q-7 7 -16 18.5t1 22.5q2 3 14.5 8t25.5 10.5t19 7.5q29 14 56 26.5t54 24.5q25 55 52 115.5t52 113.5q31 70 60 139t57 141q2 9 5 18t5 17zM222 297q12 26 24 51.5t24 51.5q-11 -4 -23 -9.5t-23 -8.5q-21 -8 -32 -15.5t-11 -9.5l10.5 -16.5
t30.5 -43.5z" />
    <glyph glyph-name="uni0137" unicode="&#x137;" horiz-adv-x="534" 
d="M203 -209q11 25 24 70.5t17 77.5h87v-9q-8 -31 -31.5 -76.5t-48.5 -74.5h-48v12zM455 1209q-85 -181 -167 -368t-157 -373q-39 -93 -59.5 -141.5t-27 -66.5t-3.5 -18q1 0 7 6q10 12 30.5 34t45 44.5t48 38.5t39.5 16q19 0 24 -17.5t-4 -31.5q-23 -36 -48 -64.5t-51 -62.5
q-20 -29 -10 -51t41 -22q7 0 14.5 1t15.5 4q61 20 107.5 43.5t91.5 59.5q8 5 15 5q8 0 14 -6q11 -15 -3 -29q-74 -52 -146 -83t-121 -31q-41 0 -59.5 24t-3.5 76q8 33 1 33q-5 0 -16 -12.5t-23 -30.5t-21 -33q-8 -14 -14 -23.5t-13 -19.5q-5 -9 -13 -15.5t-15 -6.5
q-8 0 -12 8.5t-3 29.5q2 27 9.5 57t15.5 55.5t13 40.5q41 108 90 228.5t102 245t107 244t103 223.5q4 9 11 12.5t15 3.5q13 0 24 -8.5t6 -18.5z" />
    <glyph glyph-name="kgreenlandic" unicode="&#x138;" horiz-adv-x="534" 
d="M403 536h106l-203 -237l219 -299h-105l-176 242l-66 -54v-188h-93v536h93v-139q0 -68 -6 -135l41 50z" />
    <glyph glyph-name="Lacute" unicode="&#x139;" horiz-adv-x="523" 
d="M531 1028q2 4 9.5 6.5t17.5 2.5q13 0 23.5 -9.5t1.5 -36.5q-59 -171 -126 -341.5t-133.5 -341t-123.5 -344.5q-1 -2 -2 -6.5t-2 -8.5l15 2q62 11 137 18.5t154.5 11.5t155.5 4q108 0 192 -9h11t9 -2q17 -3 15 -20q-1 -14 -18 -14q-42 5 -91.5 8t-104.5 3q-79 0 -164 -5
t-167.5 -13.5t-156.5 -20.5q-5 -21 -12 -34q-7 -8 -17.5 -18t-23.5 -14h-5q-16 4 -14 15t3 25q1 2 1.5 6t1.5 9q-4 -1 -10.5 -2t-11.5 -2q-23 -6 -45.5 -11t-44.5 -10q-13 -3 -26 -6.5t-25 -7.5q-2 -1 -5 -1q-13 0 -16 12q-3 7 0.5 13.5t10.5 8.5q48 14 92.5 24t91.5 19
q4 10 6.5 16.5l2.5 6.5q20 60 39.5 119t39.5 116q35 94 70 186t71 182q7 21 15 41t17 42q46 115 84 216t58 165zM118 783q19 23 47.5 66.5t47.5 81.5h106v-10q-21 -31 -66.5 -78.5t-76.5 -71.5h-58v12z" />
    <glyph glyph-name="lacute" unicode="&#x13a;" horiz-adv-x="257" 
d="M488 1359q4 7 14 9q2 1 7 1q6 0 9 -2q8 -4 10 -13q3 -10 -1 -17q-97 -171 -178.5 -341t-148.5 -329q-58 -141 -104 -268t-80 -233t-54 -183q-5 -21 -10 -40t-8 -36q-4 -17 -7 -31t-4 -25q-1 -5 1 -5q4 0 15.5 13.5t25 32.5t25.5 35t17 22q2 2 5 2q5 0 7 -10t-6 -26
q-3 -6 -16.5 -25t-30.5 -41.5t-31.5 -39.5t-20.5 -19q-5 -2 -9.5 -2.5t-8.5 -0.5q-2 1 -4.5 2t-4.5 3q-2 1 -3.5 4l-2.5 5q-7 15 -2 56q5 35 13 69.5t17 67.5q21 78 55 185t80.5 235t105.5 270q67 160 148.5 331t179.5 344zM81 811q19 23 47.5 66.5t47.5 81.5h106v-10
q-21 -31 -66.5 -78.5t-76.5 -71.5h-58v12z" />
    <glyph glyph-name="uni013B" unicode="&#x13b;" horiz-adv-x="523" 
d="M204 -209q11 25 24 70.5t17 77.5h87v-9q-8 -31 -31.5 -76.5t-48.5 -74.5h-48v12zM531 1028q2 4 9.5 6.5t17.5 2.5q13 0 23.5 -9.5t1.5 -36.5q-59 -171 -126 -341.5t-133.5 -341t-123.5 -344.5q-1 -2 -2 -6.5t-2 -8.5l15 2q62 11 137 18.5t154.5 11.5t155.5 4
q108 0 192 -9h11t9 -2q17 -3 15 -20q-1 -14 -18 -14q-42 5 -91.5 8t-104.5 3q-79 0 -164 -5t-167.5 -13.5t-156.5 -20.5q-5 -21 -12 -34q-7 -8 -17.5 -18t-23.5 -14h-5q-16 4 -14 15t3 25q1 2 1.5 6t1.5 9q-4 -1 -10.5 -2t-11.5 -2q-23 -6 -45.5 -11t-44.5 -10
q-13 -3 -26 -6.5t-25 -7.5q-2 -1 -5 -1q-13 0 -16 12q-3 7 0.5 13.5t10.5 8.5q48 14 92.5 24t91.5 19q4 10 6.5 16.5l2.5 6.5q20 60 39.5 119t39.5 116q35 94 70 186t71 182q7 21 15 41t17 42q46 115 84 216t58 165z" />
    <glyph glyph-name="uni013C" unicode="&#x13c;" horiz-adv-x="257" 
d="M45 -209q11 25 24 70.5t17 77.5h87v-9q-8 -31 -31.5 -76.5t-48.5 -74.5h-48v12zM488 1359q4 7 14 9q2 1 7 1q6 0 9 -2q8 -4 10 -13q3 -10 -1 -17q-97 -171 -178.5 -341t-148.5 -329q-58 -141 -104 -268t-80 -233t-54 -183q-5 -21 -10 -40t-8 -36q-4 -17 -7 -31t-4 -25
q-1 -5 1 -5q4 0 15.5 13.5t25 32.5t25.5 35t17 22q2 2 5 2q5 0 7 -10t-6 -26q-3 -6 -16.5 -25t-30.5 -41.5t-31.5 -39.5t-20.5 -19q-5 -2 -9.5 -2.5t-8.5 -0.5q-2 1 -4.5 2t-4.5 3q-2 1 -3.5 4l-2.5 5q-7 15 -2 56q5 35 13 69.5t17 67.5q21 78 55 185t80.5 235t105.5 270
q67 160 148.5 331t179.5 344z" />
    <glyph glyph-name="Lcaron" unicode="&#x13d;" horiz-adv-x="523" 
d="M333 567q11 32 20.5 77.5t12.5 70.5h87v-9q-6 -26 -27 -71t-45 -80h-48v12zM531 1028q2 4 9.5 6.5t17.5 2.5q13 0 23.5 -9.5t1.5 -36.5q-59 -171 -126 -341.5t-133.5 -341t-123.5 -344.5q-1 -2 -2 -6.5t-2 -8.5l15 2q62 11 137 18.5t154.5 11.5t155.5 4q108 0 192 -9h11
t9 -2q17 -3 15 -20q-1 -14 -18 -14q-42 5 -91.5 8t-104.5 3q-79 0 -164 -5t-167.5 -13.5t-156.5 -20.5q-5 -21 -12 -34q-7 -8 -17.5 -18t-23.5 -14h-5q-16 4 -14 15t3 25q1 2 1.5 6t1.5 9q-4 -1 -10.5 -2t-11.5 -2q-23 -6 -45.5 -11t-44.5 -10q-13 -3 -26 -6.5t-25 -7.5
q-2 -1 -5 -1q-13 0 -16 12q-3 7 0.5 13.5t10.5 8.5q48 14 92.5 24t91.5 19q4 10 6.5 16.5l2.5 6.5q20 60 39.5 119t39.5 116q35 94 70 186t71 182q7 21 15 41t17 42q46 115 84 216t58 165z" />
    <glyph glyph-name="lcaron" unicode="&#x13e;" horiz-adv-x="257" 
d="M219 612q11 32 20.5 77.5t12.5 70.5h87v-9q-6 -26 -27 -71t-45 -80h-48v12zM488 1359q4 7 14 9q2 1 7 1q6 0 9 -2q8 -4 10 -13q3 -10 -1 -17q-97 -171 -178.5 -341t-148.5 -329q-58 -141 -104 -268t-80 -233t-54 -183q-5 -21 -10 -40t-8 -36q-4 -17 -7 -31t-4 -25
q-1 -5 1 -5q4 0 15.5 13.5t25 32.5t25.5 35t17 22q2 2 5 2q5 0 7 -10t-6 -26q-3 -6 -16.5 -25t-30.5 -41.5t-31.5 -39.5t-20.5 -19q-5 -2 -9.5 -2.5t-8.5 -0.5q-2 1 -4.5 2t-4.5 3q-2 1 -3.5 4l-2.5 5q-7 15 -2 56q5 35 13 69.5t17 67.5q21 78 55 185t80.5 235t105.5 270
q67 160 148.5 331t179.5 344z" />
    <glyph glyph-name="Ldot" unicode="&#x13f;" horiz-adv-x="523" 
d="M332 357q0 29 15 42.5t37 13.5q21 0 36 -13.5t15 -42.5t-15.5 -42.5t-35.5 -13.5q-22 0 -37 13.5t-15 42.5zM531 1028q2 4 9.5 6.5t17.5 2.5q13 0 23.5 -9.5t1.5 -36.5q-59 -171 -126 -341.5t-133.5 -341t-123.5 -344.5q-1 -2 -2 -6.5t-2 -8.5l15 2q62 11 137 18.5
t154.5 11.5t155.5 4q108 0 192 -9h11t9 -2q17 -3 15 -20q-1 -14 -18 -14q-42 5 -91.5 8t-104.5 3q-79 0 -164 -5t-167.5 -13.5t-156.5 -20.5q-5 -21 -12 -34q-7 -8 -17.5 -18t-23.5 -14h-5q-16 4 -14 15t3 25q1 2 1.5 6t1.5 9q-4 -1 -10.5 -2t-11.5 -2q-23 -6 -45.5 -11
t-44.5 -10q-13 -3 -26 -6.5t-25 -7.5q-2 -1 -5 -1q-13 0 -16 12q-3 7 0.5 13.5t10.5 8.5q48 14 92.5 24t91.5 19q4 10 6.5 16.5l2.5 6.5q20 60 39.5 119t39.5 116q35 94 70 186t71 182q7 21 15 41t17 42q46 115 84 216t58 165z" />
    <glyph glyph-name="ldot" unicode="&#x140;" horiz-adv-x="325" 
d="M240 333q0 29 15 42.5t37 13.5q21 0 36 -13.5t15 -42.5t-15.5 -42.5t-35.5 -13.5q-22 0 -37 13.5t-15 42.5zM488 1359q4 7 14 9q2 1 7 1q6 0 9 -2q8 -4 10 -13q3 -10 -1 -17q-97 -171 -178.5 -341t-148.5 -329q-58 -141 -104 -268t-80 -233t-54 -183q-5 -21 -10 -40
t-8 -36q-4 -17 -7 -31t-4 -25q-1 -5 1 -5q4 0 15.5 13.5t25 32.5t25.5 35t17 22q2 2 5 2q5 0 7 -10t-6 -26q-3 -6 -16.5 -25t-30.5 -41.5t-31.5 -39.5t-20.5 -19q-5 -2 -9.5 -2.5t-8.5 -0.5q-2 1 -4.5 2t-4.5 3q-2 1 -3.5 4l-2.5 5q-7 15 -2 56q5 35 13 69.5t17 67.5
q21 78 55 185t80.5 235t105.5 270q67 160 148.5 331t179.5 344z" />
    <glyph glyph-name="Lslash" unicode="&#x141;" horiz-adv-x="523" 
d="M97 0v247l-49 -28l-35 60l84 50v385h90v-332l137 81l36 -63l-173 -100v-220h312v-80h-402z" />
    <glyph glyph-name="lslash" unicode="&#x142;" horiz-adv-x="257" 
d="M166 425l64 44l37 -59l-101 -68v-342h-88v285l-51 -32l-36 59l87 56v392h88v-335z" />
    <glyph glyph-name="Nacute" unicode="&#x143;" horiz-adv-x="759" 
d="M156 46q-4 -16 -12.5 -23.5t-18.5 -7.5q-14 0 -24.5 11.5t-6.5 29.5l8 32l116 857q1 9 -6 12t-5 14q3 8 10.5 14t16.5 6q10 0 17 -9.5t6 -21.5l-73 -523q5 26 14 69t20 95.5t23.5 105.5t24 100.5t21.5 80.5t17 44q19 31 41 31q24 0 37 -41q5 -18 8 -56t4 -88t1.5 -105
t0 -107.5t-1 -95.5t-0.5 -69q1 -81 1.5 -162.5t0.5 -162.5q0 -57 -0.5 -113t0.5 -113q0 -61 7 -61q8 0 38 75q27 62 52.5 146.5t51 182.5t52.5 200t56 200.5t61.5 184.5t69.5 151t79 100q12 9 21 9q12 0 19 -11.5t6.5 -26t-10.5 -23.5q-47 -45 -86 -124.5t-73.5 -181.5
t-66 -216t-62.5 -228t-64.5 -218t-70.5 -185q-4 -9 -13.5 -25.5t-22 -34t-26 -30t-25.5 -12.5q-11 0 -17 9.5t-8 19.5q-3 17 -3.5 41.5t0 50t0.5 44.5v94.5v94.5v364t-5 363v11t-1 24.5t-2 24t-3 10.5l-2 -2q-4 -9 -10 -32.5t-11.5 -48t-8.5 -35.5q-12 -53 -22.5 -104.5
t-22.5 -104.5q-24 -109 -53 -234t-64 -266zM318 783q19 23 47.5 66.5t47.5 81.5h106v-10q-21 -31 -66.5 -78.5t-76.5 -71.5h-58v12z" />
    <glyph glyph-name="nacute" unicode="&#x144;" horiz-adv-x="618" 
d="M167 334q13 -3 28 -17t29.5 -33.5t26 -39t18.5 -31.5q16 -28 38 -51.5t56 -23.5q29 0 60 22t58 50.5t44 49.5q6 7 16 7q7 0 11 -4q6 -5 7 -13t-4 -14q-29 -36 -54 -63.5t-57 -45.5t-83 -25q-6 -1 -11.5 -1.5t-10.5 -0.5q-36 0 -61 16t-43 42t-32 56t-28 58q-13 25 -22 25
t-26 -25q-28 -39 -52.5 -86.5t-48.5 -90.5q-5 -10 -17 -15.5t-23 -5.5q-13 0 -21.5 7.5t-7.5 25.5q1 17 7 42.5t14.5 54t17.5 54t16 41.5q5 12 13.5 17.5t16.5 5.5q12 0 21.5 -8.5t8.5 -20.5q-1 -10 -6.5 -25.5t-10.5 -29t-5 -17.5q2 0 8.5 10t15 23t16 24t10.5 15
q11 15 25.5 28.5t33.5 13.5q2 0 4 -0.5t4 -0.5zM250 618q19 23 47.5 66.5t47.5 81.5h106v-10q-21 -31 -66.5 -78.5t-76.5 -71.5h-58v12z" />
    <glyph glyph-name="uni0145" unicode="&#x145;" horiz-adv-x="759" 
d="M281 -209q11 25 24 70.5t17 77.5h87v-9q-8 -31 -31.5 -76.5t-48.5 -74.5h-48v12zM156 46q-4 -16 -12.5 -23.5t-18.5 -7.5q-14 0 -24.5 11.5t-6.5 29.5l8 32l116 857q1 9 -6 12t-5 14q3 8 10.5 14t16.5 6q10 0 17 -9.5t6 -21.5l-73 -523q5 26 14 69t20 95.5t23.5 105.5
t24 100.5t21.5 80.5t17 44q19 31 41 31q24 0 37 -41q5 -18 8 -56t4 -88t1.5 -105t0 -107.5t-1 -95.5t-0.5 -69q1 -81 1.5 -162.5t0.5 -162.5q0 -57 -0.5 -113t0.5 -113q0 -61 7 -61q8 0 38 75q27 62 52.5 146.5t51 182.5t52.5 200t56 200.5t61.5 184.5t69.5 151t79 100
q12 9 21 9q12 0 19 -11.5t6.5 -26t-10.5 -23.5q-47 -45 -86 -124.5t-73.5 -181.5t-66 -216t-62.5 -228t-64.5 -218t-70.5 -185q-4 -9 -13.5 -25.5t-22 -34t-26 -30t-25.5 -12.5q-11 0 -17 9.5t-8 19.5q-3 17 -3.5 41.5t0 50t0.5 44.5v94.5v94.5v364t-5 363v11t-1 24.5t-2 24
t-3 10.5l-2 -2q-4 -9 -10 -32.5t-11.5 -48t-8.5 -35.5q-12 -53 -22.5 -104.5t-22.5 -104.5q-24 -109 -53 -234t-64 -266z" />
    <glyph glyph-name="uni0146" unicode="&#x146;" horiz-adv-x="618" 
d="M222 -209q11 25 24 70.5t17 77.5h87v-9q-8 -31 -31.5 -76.5t-48.5 -74.5h-48v12zM167 334q13 -3 28 -17t29.5 -33.5t26 -39t18.5 -31.5q16 -28 38 -51.5t56 -23.5q29 0 60 22t58 50.5t44 49.5q6 7 16 7q7 0 11 -4q6 -5 7 -13t-4 -14q-29 -36 -54 -63.5t-57 -45.5t-83 -25
q-6 -1 -11.5 -1.5t-10.5 -0.5q-36 0 -61 16t-43 42t-32 56t-28 58q-13 25 -22 25t-26 -25q-28 -39 -52.5 -86.5t-48.5 -90.5q-5 -10 -17 -15.5t-23 -5.5q-13 0 -21.5 7.5t-7.5 25.5q1 17 7 42.5t14.5 54t17.5 54t16 41.5q5 12 13.5 17.5t16.5 5.5q12 0 21.5 -8.5t8.5 -20.5
q-1 -10 -6.5 -25.5t-10.5 -29t-5 -17.5q2 0 8.5 10t15 23t16 24t10.5 15q11 15 25.5 28.5t33.5 13.5q2 0 4 -0.5t4 -0.5z" />
    <glyph glyph-name="Ncaron" unicode="&#x147;" horiz-adv-x="759" 
d="M211 931h60q56 -36 107 -92q62 62 109 92h62v-13q-100 -100 -125 -147h-90q-29 50 -123 147v13zM156 46q-4 -16 -12.5 -23.5t-18.5 -7.5q-14 0 -24.5 11.5t-6.5 29.5l8 32l116 857q1 9 -6 12t-5 14q3 8 10.5 14t16.5 6q10 0 17 -9.5t6 -21.5l-73 -523q5 26 14 69t20 95.5
t23.5 105.5t24 100.5t21.5 80.5t17 44q19 31 41 31q24 0 37 -41q5 -18 8 -56t4 -88t1.5 -105t0 -107.5t-1 -95.5t-0.5 -69q1 -81 1.5 -162.5t0.5 -162.5q0 -57 -0.5 -113t0.5 -113q0 -61 7 -61q8 0 38 75q27 62 52.5 146.5t51 182.5t52.5 200t56 200.5t61.5 184.5t69.5 151
t79 100q12 9 21 9q12 0 19 -11.5t6.5 -26t-10.5 -23.5q-47 -45 -86 -124.5t-73.5 -181.5t-66 -216t-62.5 -228t-64.5 -218t-70.5 -185q-4 -9 -13.5 -25.5t-22 -34t-26 -30t-25.5 -12.5q-11 0 -17 9.5t-8 19.5q-3 17 -3.5 41.5t0 50t0.5 44.5v94.5v94.5v364t-5 363v11
t-1 24.5t-2 24t-3 10.5l-2 -2q-4 -9 -10 -32.5t-11.5 -48t-8.5 -35.5q-12 -53 -22.5 -104.5t-22.5 -104.5q-24 -109 -53 -234t-64 -266z" />
    <glyph glyph-name="ncaron" unicode="&#x148;" horiz-adv-x="618" 
d="M144 766h60q56 -36 107 -92q62 62 109 92h62v-13q-100 -100 -125 -147h-90q-29 50 -123 147v13zM167 334q13 -3 28 -17t29.5 -33.5t26 -39t18.5 -31.5q16 -28 38 -51.5t56 -23.5q29 0 60 22t58 50.5t44 49.5q6 7 16 7q7 0 11 -4q6 -5 7 -13t-4 -14q-29 -36 -54 -63.5
t-57 -45.5t-83 -25q-6 -1 -11.5 -1.5t-10.5 -0.5q-36 0 -61 16t-43 42t-32 56t-28 58q-13 25 -22 25t-26 -25q-28 -39 -52.5 -86.5t-48.5 -90.5q-5 -10 -17 -15.5t-23 -5.5q-13 0 -21.5 7.5t-7.5 25.5q1 17 7 42.5t14.5 54t17.5 54t16 41.5q5 12 13.5 17.5t16.5 5.5
q12 0 21.5 -8.5t8.5 -20.5q-1 -10 -6.5 -25.5t-10.5 -29t-5 -17.5q2 0 8.5 10t15 23t16 24t10.5 15q11 15 25.5 28.5t33.5 13.5q2 0 4 -0.5t4 -0.5z" />
    <glyph glyph-name="napostrophe" unicode="&#x149;" horiz-adv-x="690" 
d="M145 714l7 -11q-25 -97 -86 -234h-65q34 139 50 245h94zM238 334q13 -3 28 -17t29.5 -33.5t26 -39t18.5 -31.5q16 -28 38 -51.5t56 -23.5q29 0 60 22t58 50.5t44 49.5q6 7 16 7q7 0 11 -4q6 -5 7 -13t-4 -14q-29 -36 -54 -63.5t-57 -45.5t-83 -25q-6 -1 -11.5 -1.5
t-10.5 -0.5q-36 0 -61 16t-43 42t-32 56t-28 58q-13 25 -22 25t-26 -25q-28 -39 -52.5 -86.5t-48.5 -90.5q-5 -10 -17 -15.5t-23 -5.5q-13 0 -21.5 7.5t-7.5 25.5q1 17 7 42.5t14.5 54t17.5 54t16 41.5q5 12 13.5 17.5t16.5 5.5q12 0 21.5 -8.5t8.5 -20.5q-1 -10 -6.5 -25.5
t-10.5 -29t-5 -17.5q2 0 8.5 10t15 23t16 24t10.5 15q11 15 25.5 28.5t33.5 13.5q2 0 4 -0.5t4 -0.5z" />
    <glyph glyph-name="Eng" unicode="&#x14a;" horiz-adv-x="759" 
d="M475 -190q-48 0 -76 13v76q35 -10 76 -10q50 0 76.5 28.5t27.5 82.5l-403 593h-4q8 -125 8 -206v-387h-83v714h104l381 -572h4q-7 75 -7 200v372h84v-708q0 -96 -48.5 -146t-139.5 -50z" />
    <glyph glyph-name="eng" unicode="&#x14b;" horiz-adv-x="618" 
d="M394 -240q-42 0 -71 12v71q29 -10 60 -10q67 0 67 84v427q0 65 -29 96.5t-90 31.5q-83 0 -120.5 -45.5t-37.5 -147.5v-279h-88v536h71l14 -73h5q25 40 69 61.5t98 21.5q99 0 147.5 -46.5t48.5 -149.5v-430q0 -75 -35 -117.5t-109 -42.5z" />
    <glyph glyph-name="Omacron" unicode="&#x14c;" horiz-adv-x="780" 
d="M242 842h297v-71h-297v71zM205 149q0 -16 -17 -16q-7 0 -11.5 5t-4.5 12q5 121 15 236.5t30 235.5q3 15 3.5 20.5t-0.5 5.5t-5.5 -12t-10 -28.5t-9.5 -30t-5 -16.5q-23 -79 -41.5 -162t-27.5 -164q-16 -161 -12.5 -263t23.5 -151q18 -39 39 -39q25 -1 64 38q42 44 84 112
t80 152.5t69 179t52.5 190.5t30.5 187.5t3 171t-31 139.5q-30 70 -69 79q-35 0 -57 -19.5t-38 -47.5q-6 -10 -3 -10q5 0 16 4.5t28 4.5q15 0 31 -6q24 -13 19.5 -26t-16.5 -13q-4 0 -6 1q-10 4 -14.5 7t-14.5 3h-4h-3q-23 -3 -43 -24t-34.5 -47t-20.5 -45
q-31 -103 -48.5 -216t-26 -227t-14.5 -221zM289 895q10 25 23.5 54.5t32.5 56t44 43t57 16.5q27 0 54.5 -15.5t49.5 -38.5t32 -47q26 -62 32.5 -144t-3 -176.5t-32 -193.5t-55.5 -196t-72.5 -184t-83.5 -157.5t-88 -116.5q-25 -25 -57 -37t-53 -12q-21 1 -39 16t-29 46
q-23 52 -27.5 158t12.5 272q7 65 22 139t35.5 149t46.5 145.5t55 129.5q11 23 22.5 46.5t20.5 46.5z" />
    <glyph glyph-name="omacron" unicode="&#x14d;" horiz-adv-x="604" 
d="M154 677h297v-71h-297v71zM231 190q-1 -13 5 -14.5t20 -2.5q20 -3 38 -3q54 0 103 25t84 66q7 7 15 7q6 0 13 -5q6 -5 6.5 -13t-4.5 -14q-42 -50 -99.5 -77t-121.5 -27q-14 0 -28 2t-29 6h-1.5h-1.5q-7 0 -9.5 -8t-6.5 -16q-17 -41 -56.5 -65t-83.5 -24q-38 3 -59.5 29
t-30 62t-4.5 68q4 44 23.5 84t52.5 69q15 13 19.5 17.5t7.5 10t12 20.5q9 14 22.5 20.5t27.5 6.5q19 0 37 -11t26 -31q11 -24 16.5 -56.5t6.5 -65.5t0 -60zM152 162l-4 5q-14 13 -24 20t-24 27q-14 22 -17.5 36t-8.5 38q-3 9 -6 9q-4 0 -8.5 -7t-7.5 -12q-16 -27 -27 -63.5
t-8 -72.5t29 -62q15 -15 35 -15q23 0 43 18t29 41.5t-1 37.5zM164 200l4 -2q4 0 4 8v13v35t-2.5 46.5t-7.5 44.5t-15 28q-3 3 -7 3q-6 0 -12 -9t-10 -19.5t-5 -15.5q-9 -37 6.5 -73t44.5 -59z" />
    <glyph glyph-name="Obreve" unicode="&#x14e;" horiz-adv-x="780" 
d="M387 771q-69 0 -108.5 33.5t-44.5 100.5h54q4 -35 24.5 -49t76.5 -14q49 0 73 15.5t28 47.5h55q-6 -64 -48 -99t-110 -35zM205 149q0 -16 -17 -16q-7 0 -11.5 5t-4.5 12q5 121 15 236.5t30 235.5q3 15 3.5 20.5t-0.5 5.5t-5.5 -12t-10 -28.5t-9.5 -30t-5 -16.5
q-23 -79 -41.5 -162t-27.5 -164q-16 -161 -12.5 -263t23.5 -151q18 -39 39 -39q25 -1 64 38q42 44 84 112t80 152.5t69 179t52.5 190.5t30.5 187.5t3 171t-31 139.5q-30 70 -69 79q-35 0 -57 -19.5t-38 -47.5q-6 -10 -3 -10q5 0 16 4.5t28 4.5q15 0 31 -6q24 -13 19.5 -26
t-16.5 -13q-4 0 -6 1q-10 4 -14.5 7t-14.5 3h-4h-3q-23 -3 -43 -24t-34.5 -47t-20.5 -45q-31 -103 -48.5 -216t-26 -227t-14.5 -221zM289 895q10 25 23.5 54.5t32.5 56t44 43t57 16.5q27 0 54.5 -15.5t49.5 -38.5t32 -47q26 -62 32.5 -144t-3 -176.5t-32 -193.5t-55.5 -196
t-72.5 -184t-83.5 -157.5t-88 -116.5q-25 -25 -57 -37t-53 -12q-21 1 -39 16t-29 46q-23 52 -27.5 158t12.5 272q7 65 22 139t35.5 149t46.5 145.5t55 129.5q11 23 22.5 46.5t20.5 46.5z" />
    <glyph glyph-name="obreve" unicode="&#x14f;" horiz-adv-x="604" 
d="M299 606q-69 0 -108.5 33.5t-44.5 100.5h54q4 -35 24.5 -49t76.5 -14q49 0 73 15.5t28 47.5h55q-6 -64 -48 -99t-110 -35zM231 190q-1 -13 5 -14.5t20 -2.5q20 -3 38 -3q54 0 103 25t84 66q7 7 15 7q6 0 13 -5q6 -5 6.5 -13t-4.5 -14q-42 -50 -99.5 -77t-121.5 -27
q-14 0 -28 2t-29 6h-1.5h-1.5q-7 0 -9.5 -8t-6.5 -16q-17 -41 -56.5 -65t-83.5 -24q-38 3 -59.5 29t-30 62t-4.5 68q4 44 23.5 84t52.5 69q15 13 19.5 17.5t7.5 10t12 20.5q9 14 22.5 20.5t27.5 6.5q19 0 37 -11t26 -31q11 -24 16.5 -56.5t6.5 -65.5t0 -60zM152 162l-4 5
q-14 13 -24 20t-24 27q-14 22 -17.5 36t-8.5 38q-3 9 -6 9q-4 0 -8.5 -7t-7.5 -12q-16 -27 -27 -63.5t-8 -72.5t29 -62q15 -15 35 -15q23 0 43 18t29 41.5t-1 37.5zM164 200l4 -2q4 0 4 8v13v35t-2.5 46.5t-7.5 44.5t-15 28q-3 3 -7 3q-6 0 -12 -9t-10 -19.5t-5 -15.5
q-9 -37 6.5 -73t44.5 -59z" />
    </font>
</defs>
</svg>
