<?xml version="1.0" standalone="no"?>
<!DOCTYPE svg PUBLIC "-//W3C//DTD SVG 1.1//EN" "http://www.w3.org/Graphics/SVG/1.1/DTD/svg11.dtd" >
<svg xmlns="http://www.w3.org/2000/svg" xmlns:xlink="http://www.w3.org/1999/xlink" version="1.1">
<metadata>
Created by FontForge 20190801 at Mon Feb  8 12:19:20 2021
 By root
Copyright (c) 2018 by Teweka. All rights reserved.
</metadata>
<defs>
<font id="Syndicate-Regular" horiz-adv-x="350" >
  <font-face 
    font-family="Syndicate"
    font-weight="400"
    font-stretch="normal"
    units-per-em="1000"
    panose-1="2 0 5 7 0 0 0 2 0 2"
    ascent="800"
    descent="-200"
    x-height="501"
    cap-height="2140"
    bbox="-1159.56 -1512 4676.64 2410.13"
    underline-thickness="50"
    underline-position="-100"
    unicode-range="U+0001-206F"
  />
<missing-glyph horiz-adv-x="364" 
d="M33 0v666h265v-666h-265zM66 33h199v600h-199v-600z" />
    <glyph glyph-name=".notdef" horiz-adv-x="364" 
d="M33 0v666h265v-666h-265zM66 33h199v600h-199v-600z" />
    <glyph glyph-name="uni0000" 
 />
    <glyph glyph-name="uni0000" 
 />
    <glyph glyph-name="uni000D" unicode="&#xd;" 
 />
    <glyph glyph-name="uni0001" 
 />
    <glyph glyph-name="uni0002" 
 />
    <glyph glyph-name="uni0003" 
 />
    <glyph glyph-name="uni0004" 
 />
    <glyph glyph-name="uni0005" 
 />
    <glyph glyph-name="uni0006" 
 />
    <glyph glyph-name="uni0007" 
 />
    <glyph glyph-name="uni0008" 
 />
    <glyph glyph-name="uni0009" unicode="&#x9;" 
 />
    <glyph glyph-name="uni000A" unicode="&#xa;" 
 />
    <glyph glyph-name="uni000B" 
 />
    <glyph glyph-name="uni000C" 
 />
    <glyph glyph-name="uni000E" 
 />
    <glyph glyph-name="uni000F" 
 />
    <glyph glyph-name="uni0010" 
 />
    <glyph glyph-name="uni0011" 
 />
    <glyph glyph-name="uni0012" 
 />
    <glyph glyph-name="uni0013" 
 />
    <glyph glyph-name="uni0014" 
 />
    <glyph glyph-name="uni0015" 
 />
    <glyph glyph-name="uni0016" 
 />
    <glyph glyph-name="uni0017" 
 />
    <glyph glyph-name="uni0018" 
 />
    <glyph glyph-name="uni0019" 
 />
    <glyph glyph-name="uni001A" 
 />
    <glyph glyph-name="uni001B" 
 />
    <glyph glyph-name="uni001C" 
 />
    <glyph glyph-name="uni001D" 
 />
    <glyph glyph-name="uni001E" 
 />
    <glyph glyph-name="uni001F" 
 />
    <glyph glyph-name="space" unicode=" " 
 />
    <glyph glyph-name="exclam" unicode="!" horiz-adv-x="204" 
d="M51 214q-3 1 -3 3l84 366q0 2 2 2h1h26q3 0 3 -3q0 -5 -32 -110t-48 -159l-30 -97q0 -3 -3 -2zM33 175q0 9 4 17.5t9 7.5q4 0 4 -9q0 -8 -3.5 -17t-8.5 -9t-5 10z" />
    <glyph glyph-name="quotedbl" unicode="&#x22;" horiz-adv-x="90" 
d="M40 309q4 -1 2 -4l-7 -23q0 -2 -3 -2t-4 3l5 24q3 3 7 2zM40 309q4 -1 2 -4l-7 -23q0 -2 -3 -2t-4 3l5 24q3 3 7 2zM33 603q-1 -2 -4 -1.5t-2 3.5l10 45h10zM57 603q-1 -2 -3.5 -1.5t-2.5 3.5l11 45h10z" />
    <glyph glyph-name="numbersign" unicode="#" horiz-adv-x="253" 
d="M111 286q-4 0 -6.5 1.5t-1.5 3.5l17 63h-31l-14 -65q0 -3 -8 -3t-7 5l18 63h-52q-3 0 -3 2.5t3 2.5h53l18 67h-59q-3 0 -3 3t3 3h60l15 56q2 2 4 2q3 0 2 -4l-12 -54h34l15 56q2 3 4.5 2t1.5 -4l-12 -54h59q3 0 3 -3t-3 -3h-61l-14 -67h60q3 0 3 -2.5t-3 -2.5h-62
l-14 -65q0 -3 -7 -3zM139 426h-33l-15 -67h31z" />
    <glyph glyph-name="dollar" unicode="$" horiz-adv-x="427" 
d="M256.5 502.5q-1.5 2.5 1.5 3.5q33 19 54 65.5t26 99.5q0 37 -5 58q-5 20 -15 32l-113 -276q0 -88 -3.5 -144t-17.5 -101.5t-44 -62.5q-15 -10 -32 -10q-15 0 -24 8l-4 5l-43 -104q-1 -2 -4 -1t-1 3l43 107q-8 9 -13 35q-5 20 -5 39q0 8 2 26q13 79 56 113q3 2 4.5 -0.5
t-0.5 -4.5q-27 -21 -41.5 -57.5t-14.5 -76.5q0 -14 4 -38q5 -21 11 -30l110 270v12v32q0 81 4 133t19.5 90.5t47.5 50.5q12 4 25 4q19 0 32 -12l29 70q1 3 3.5 1.5t1.5 -3.5l-30 -72q14 -14 18 -37q5 -16 5 -45q0 -57 -22.5 -110t-59.5 -74q-3 -1 -4.5 1.5zM312 767
q-13 11 -29 11q-11 0 -22 -4q-27 -11 -39 -49.5t-14.5 -88t-2.5 -135.5l109 265zM88 179q8 -7 20 -7q11 0 28 11q30 19 41.5 73.5t11.5 137.5l-1 52l-106 -260q1 -2 6 -7z" />
    <glyph glyph-name="percent" unicode="%" horiz-adv-x="207" 
d="M39 227q-3 1 -2 3l84 366q0 2 3 2h26q3 0 3 -3q0 -7 -80 -266l-30 -100q-1 -3 -4 -2zM146 384q12 0 19 -15q8 -14 8 -32q0 -19 -8 -33q-7 -15 -19 -15t-20 15q-7 13 -7 33q0 19 7 32q8 15 20 15zM35 572q12 0 20 -14q7 -13 7 -33q0 -19 -7 -32q-7 -15 -20 -15
q-11 0 -19 15q-8 14 -8 32q0 19 8 33t19 14z" />
    <glyph glyph-name="ampersand" unicode="&#x26;" horiz-adv-x="585" 
d="M548.5 167q-0.5 -3 -3.5 -2q-58 9 -108.5 48t-91.5 99q-2 4 -13 19q-76 -90 -158 -135q-50 -28 -87 -28q-29 0 -47 19q-14 14 -14 33q0 30 30 68t92 100q63 63 103 113q-25 74 -32 131q-3 20 -3 35q0 47 20.5 72.5t47.5 25.5q25 0 43.5 -21t18.5 -57q0 -18 -6 -41
q-22 -84 -79 -156q30 -82 72 -149q53 63 80 118q1 3 3.5 2t1.5 -4q-31 -64 -81 -122q3 -6 13 -20q88 -127 196 -145q3 0 2.5 -3zM339 685q0 35 -16.5 55t-38.5 20q-25 0 -43.5 -25t-18.5 -71q0 -21 2 -32q7 -53 32 -126q63 81 78 140q5 23 5 39zM202.5 420
q-31.5 -33 -61.5 -62l-18 -18l-25 -27q-32 -33 -48.5 -57t-16.5 -42q0 -13 10 -23q17 -17 44 -17q36 0 85 27q81 47 157 135q-40 65 -71 148q-24 -31 -55.5 -64z" />
    <glyph glyph-name="quotesingle" unicode="'" horiz-adv-x="83" 
d="M33 603q-1 -2 -4 -1.5t-2 3.5l10 45h10z" />
    <glyph glyph-name="parenleft" unicode="(" horiz-adv-x="459" 
d="M424 750q0 -2 -3 -2q-74 0 -158 -95t-141.5 -228t-57.5 -234q0 -66 28 -103.5t88 -38.5h10q10 0 15 2q3 0 3.5 -3t-2.5 -4l-27 -1q-73 0 -108 43.5t-35 117.5q0 104 59.5 234.5t149.5 222.5t176 92q3 0 3 -3z" />
    <glyph glyph-name="parenright" unicode=")" horiz-adv-x="530" 
d="M39 45q0 2 3 2q74 0 158 95t141.5 228t57.5 234q0 66 -28 103.5t-88 38.5h-10q-10 0 -15 -2q-3 0 -3.5 3t2.5 4l27 1q73 0 108 -43.5t35 -117.5q0 -104 -59.5 -234.5t-149.5 -222.5t-176 -92q-3 0 -3 3z" />
    <glyph glyph-name="asterisk" unicode="*" horiz-adv-x="189" 
d="M65 536q-1 2 1 4l22 13l-22 12q-2 2 -1 4q3 3 4 1l22 -12v18q0 4 3 4t3 -4v-18l22 12q2 2 4 -1q0 -3 -1 -4l-22 -12l22 -13q1 -1 1 -4q-2 -2 -4 -1l-22 12v-18q0 -3 -3 -3t-3 3v18l-22 -12q-2 -2 -4 1z" />
    <glyph glyph-name="plus" unicode="+" horiz-adv-x="167" 
d="M88 430v-74h-7v74h7zM121 393h-74v7h74v-7z" />
    <glyph glyph-name="comma" unicode="," horiz-adv-x="84" 
d="M31 307.5q4 1.5 4 -1.5l9 -22q1 -2 -1.5 -4t-4.5 0l-11 22q0 4 4 5.5z" />
    <glyph glyph-name="hyphen" unicode="-" horiz-adv-x="133" 
d="M108 393h-73v7h73v-7z" />
    <glyph glyph-name="period" unicode="." horiz-adv-x="103" 
d="M40 306q9 0 9 -9q0 -8 -9 -8q-8 0 -8 8q0 9 8 9z" />
    <glyph glyph-name="slash" unicode="/" horiz-adv-x="214" 
d="M51 214q-3 1 -3 3l84 366q0 2 2 2h1h26q3 0 3 -3q0 -5 -32 -110t-48 -159l-30 -97q0 -3 -3 -2z" />
    <glyph glyph-name="zero" unicode="0" horiz-adv-x="321" 
d="M81.5 375.5q-9.5 -28.5 -9.5 -52.5q0 -5 2 -15q5 -17 18 -17q36 0 72.5 39t62.5 93t33 94q2 10 2 27q0 23 -8.5 35.5t-23.5 12.5q-16 0 -35 -14t-36 -40q-21 -30 -40.5 -69t-26.5 -61q-1 -4 -10.5 -32.5zM101.5 484.5q18.5 33.5 40.5 60.5q21 25 43.5 38.5t41.5 13.5
q20 0 32.5 -15t12.5 -44q0 -7 -2 -25q-7 -42 -34 -96t-65.5 -92t-78.5 -38q-28 0 -37 28q-3 11 -3 23q0 21 6 45t15 42q10 26 28.5 59.5z" />
    <glyph glyph-name="one" unicode="1" horiz-adv-x="189" 
d="M80 291q-2 -2 -3 -2h-21q-1 0 -2 1t0 2l87 289l-116 -82q-2 -2 -3.5 0t0.5 4l119 85q1 0 4 0.5t3 -1.5z" />
    <glyph glyph-name="two" unicode="2" horiz-adv-x="366" 
d="M140.5 550.5q-32.5 -28.5 -42.5 -52.5q-2 -2 -4 -1t-1 3q10 24 44.5 53.5t61.5 37.5q9 3 19 3q13 0 23.5 -5t14.5 -16q3 -7 3 -16q0 -12 -6 -29q-9 -28 -30 -60q-21 -33 -50 -67t-59 -61q22 -5 52 -15q38 -11 50 -14q44 -11 65 -11q37 0 45 28q1 3 3.5 2.5t1.5 -2.5
q-11 -40 -56 -40q-20 0 -43 6q-27 7 -81 25q-19 8 -44 15q-44 -38 -68 -44q-7 -3 -14 -3q-8 0 -12 5t-4 13q0 15 12 27q17 17 43 17q15 0 33 -5q64 67 112 142q22 38 28 60q4 16 4 21q0 10 -6 16t-19 6q-6 0 -16 -2q-27 -8 -59.5 -36.5zM91 339q-17 5 -29 5q-22 0 -37 -15
q-11 -11 -11 -25q0 -12 11 -12q5 0 13 3q14 5 53 44z" />
    <glyph glyph-name="three" unicode="3" horiz-adv-x="206" 
d="M187 576q0 -7 -3 -16q-4 -12 -15 -26q-34 -43 -72 -56l10 -2q28 -4 41 -19.5t13 -38.5q0 -19 -9 -40.5t-23 -39.5q-14 -20 -32.5 -34.5t-35.5 -19.5q-8 -2 -14 -2q-13 0 -21 6q-12 9 -12 35t11.5 50.5t26.5 25.5q2 1 2 -1.5t-2 -3.5q-14 -1 -23.5 -23.5t-9.5 -46.5
q0 -23 10 -32q6 -4 12 -4q20 0 44 24.5t39 58.5q14 35 14 58q0 20 -9 30q-9 9 -24 13q-8 1 -23 1q-8 0 -10 1q-2 0 -2 2t2 2q6 0 8 1q18 3 41.5 21t38.5 39q8 9 14 25q5 11 3 19q-2 7 -9 10.5t-15 3.5q-29 0 -66.5 -32t-65.5 -67q0 -4 -3 -1q-2 2 -1 3q24 34 65.5 68
t70.5 34q26 0 33 -19q1 -2 1 -7z" />
    <glyph glyph-name="four" unicode="4" horiz-adv-x="204" 
d="M108 289h-21q-3 0 -3 3l50 165h-121q-6 0 -3 3l87 131q2 2 8 1.5t3 -4.5l-92 -127h119l39 127q1 2 3 1.5t1 -2.5l-68 -296q0 -2 -2 -2z" />
    <glyph glyph-name="five" unicode="5" horiz-adv-x="228" 
d="M116 552l-47 -80q6 6 24 13q11 4 24 4q23 0 38.5 -16.5t15.5 -44.5q0 -37 -22 -73q-27 -46 -67 -63q-21 -8 -36 -8q-29 0 -29 30q0 9 1 13q6 31 25 55t48 32q2 1 2.5 -1.5t-1.5 -3.5q-31 -7 -50.5 -34.5t-19.5 -59.5q0 -30 29 -25q11 3 25 9q28 20 46 52q26 48 26 88
q0 46 -33 46q-6 0 -20 -4q-17 -6 -30 -20q-2 -1 -4 0t-1 3q4 12 60 115l9 15q0 1 2 1h70q3 0 3 -2.5t-3 -2.5h-62q-15 -27 -23 -38z" />
    <glyph glyph-name="six" unicode="6" horiz-adv-x="202" 
d="M144 592h7t5 -2q0 -3 -1 -3q-9 -4 -42.5 -57.5t-57.5 -107.5q-26 -65 -26 -96q0 -17 7 -27q12 -14 29 -9q17 2 33 18.5t26 40.5q12 28 12 48q0 18 -8 26t-20 8q-20 0 -37 -14q-18 -18 -27 -40q-1 -1 -3 -1q-3 0 -2 3q10 23 29 41q19 16 42 16q14 0 24.5 -8.5t12.5 -24.5
l1 -9q0 -24 -13 -48q-12 -25 -30.5 -42t-39.5 -20q-10 -1 -19.5 2.5t-15.5 11.5q-9 10 -9 35q0 41 24 100q20 51 49 102.5t38 55.5q5 1 12 1z" />
    <glyph glyph-name="seven" unicode="7" horiz-adv-x="181" 
d="M46 435q0 3 2 3h42l43 143l-116 -82q-2 -2 -3.5 0t0.5 4l119 85q1 0 4 0.5t3 -1.5l-34 -149h41q3 0 3 -3q0 -1 -3 -1h-43l-32 -143q0 -2 -3 -2h-21q-5 0 -2 3l43 142h-41q-2 0 -2 1z" />
    <glyph glyph-name="eight" unicode="8" horiz-adv-x="174" 
d="M14 320q0 -16 9 -24.5t23 -8.5q12 0 26 7.5t24 20.5q14 20 14 42q0 18 -7 36t-15.5 33t-10.5 20q-63 -87 -63 -126zM159 565q0 -18 -18 -39q-1 -2 -3 -0.5t0 3.5q16 21 16 36q0 13 -13 19q-6 3 -17 3q-19 0 -38 -9t-23 -24q-2 -8 -2 -12q0 -15 7.5 -32.5t20.5 -42.5
q26 31 41 33q2 1 2.5 -1.5t-1.5 -3.5q-12 0 -40 -33q4 -7 14.5 -27.5t16 -37.5t5.5 -32q0 -31 -25 -56q-12 -12 -28 -19t-30 -7q-16 0 -25.5 8.5t-9.5 25.5q0 47 66 134q-16 30 -23 47.5t-7 33.5q0 14 7 24q10 15 31.5 25t41.5 10q10 0 19 -3q15 -6 15 -23z" />
    <glyph glyph-name="nine" unicode="9" horiz-adv-x="197" 
d="M36 284q-12 0 -12 3q0 1 2 3q9 3 42 56.5t57 108.5q26 65 26 96q0 18 -6 26q-8 11 -22 11q-5 0 -8 -1q-17 -3 -32.5 -19.5t-25.5 -39.5q-15 -33 -12 -53q3 -30 27 -30q18 0 38 15q17 14 27 39q0 2 3 2q2 -2 2 -3q-11 -27 -29 -42q-19 -16 -42 -16q-14 0 -24.5 8.5
t-12.5 25.5l-1 9q0 23 13 47q12 25 30.5 42.5t38.5 19.5q10 2 19.5 -1.5t16.5 -11.5q8 -12 8 -35q0 -39 -24 -100q-20 -53 -48.5 -104t-37.5 -55q-5 -1 -13 -1z" />
    <glyph glyph-name="colon" unicode=":" horiz-adv-x="71" 
d="M40 422q9 0 9 -9q0 -8 -9 -8q-8 0 -8 8q0 9 8 9zM40 322q9 0 9 -9q0 -8 -9 -8q-8 0 -8 8q0 9 8 9z" />
    <glyph glyph-name="semicolon" unicode=";" horiz-adv-x="71" 
d="M31 307.5q4 1.5 4 -1.5l9 -22q1 -2 -1.5 -4t-4.5 0l-11 22q0 4 4 5.5zM40 422q9 0 9 -9q0 -8 -9 -8q-8 0 -8 8q0 9 8 9z" />
    <glyph glyph-name="less" unicode="&#x3c;" horiz-adv-x="267" 
d="M32 439l176 107l9 -14l-185 -94v1zM208 330l-176 107v1l185 -94z" />
    <glyph glyph-name="equal" unicode="=" horiz-adv-x="152" 
d="M109 404h-73v7h73v-7zM109 383h-73v7h73v-7z" />
    <glyph glyph-name="greater" unicode="&#x3e;" horiz-adv-x="258" 
d="M217 437l-176 -107l-9 14l185 94v-1zM41 546l176 -107v-1l-185 94z" />
    <glyph glyph-name="question" unicode="?" horiz-adv-x="297" 
d="M63.5 500.5q-2.5 -1.5 -4.5 0.5q-16 26 -16 53q0 38 27 82q24 38 65 67q37 22 70 22q23 0 37 -13t14 -42q2 -36 -17 -88.5t-63 -153.5q-38 -89 -59.5 -142.5t-35.5 -106.5q-1 -3 -4 -2.5t-1 3.5q11 53 30 105t54 140l9 22q38 91 55.5 141.5t17.5 83.5q0 48 -41 48
q-15 0 -32 -6.5t-30 -15.5q-42 -28 -64 -65q-26 -42 -26 -79q0 -30 15 -50q2 -2 -0.5 -3.5zM73 167q8 0 8 -8q0 -7 -8 -7q-7 0 -7 7q0 8 7 8z" />
    <glyph glyph-name="at" unicode="@" horiz-adv-x="464" 
d="M242 346q-6 -12 -6 -23q-1 -8 3.5 -12t12.5 -4q9 0 15 3q26 8 47.5 28t36.5 48q18 33 18 66q0 23 -8 39q-24 45 -95 45q-47 -1 -87 -28t-65 -70q-13 -21 -21 -48t-8 -52q0 -47 27 -74q27 -29 83 -29q40 0 81 12q3 1 3.5 -1.5t-1.5 -2.5q-49 -13 -87 -13q-60 0 -89 32
q-30 30 -30 78q0 25 8.5 51.5t22.5 48.5q28 45 70.5 73t93.5 28q32 0 58.5 -11.5t39.5 -36.5q10 -19 10 -41q0 -34 -19 -69q-15 -28 -37.5 -49t-48.5 -29q-9 -3 -17 -3q-25 0 -28 25v6q0 12 5 23q4 17 18 38q-53 -51 -81 -61q-7 -4 -20 -4q-14 1 -14 18q0 18 15 44.5
t37.5 46t44.5 19.5q24 0 37 -25q2 -2 0 -3t-4 1q-6 10 -16 16.5t-18 3.5q-13 -4 -34.5 -29t-35.5 -51t-7 -34q1 -1 3 -1q4 0 10 3q32 12 93 73q6 4 10 10h7q24 0 18 -4q-37 -42 -51 -71z" />
    <glyph glyph-name="A" unicode="A" horiz-adv-x="1599" 
d="M-86 252q-5 2 -1 5q1 5 5 1q51 -38 129 -38q76 0 176.5 32.5t204.5 81.5t272 133q107 56 226 112q127 286 285 666l24 57q124 297 197.5 462t136.5 268t104 99v-1q49 -4 49 -108q0 -26 -3 -56q-9 -108 -48.5 -274.5t-118.5 -461.5q4 14 -32 -120q-40 -146 -94 -350
q75 13 132 13q128 0 222 -57h1q2 -2 1 -5q-1 -4 -5 -2q-83 47 -196 47q-71 0 -161 -19q-109 -416 -176.5 -764.5t-75.5 -614.5l-1 -46q0 -270 80 -422t261 -163h3q1 -1 6 -1h20q4 0 4 -4t-4 -4h-19q-7 0 -8 1h-1q-193 9 -278.5 171t-85.5 447q0 267 65.5 616.5t176.5 776.5
q-103 -25 -217 -70t-247 -108q-248 -553 -473.5 -889t-432.5 -358q-4 0 -4 4q-1 4 3 4q202 22 427 356t469 878l-41 -19q-23 -11 -58.5 -28t-82.5 -41q-177 -86 -283.5 -133.5t-210.5 -80.5t-184 -33q-48 0 -82 11h-1q-34 12 -55 29zM1178.5 688.5q112.5 42.5 214.5 64.5
q53 209 118 443l24 89q77 284 116.5 445t49.5 260q3 33 3 57q0 76 -34 76q-39 0 -104.5 -111.5t-146.5 -294t-201 -475.5q-181 -434 -281 -658q129 62 241.5 104.5z" />
    <glyph glyph-name="B" unicode="B" horiz-adv-x="2843" 
d="M2402 2011q-130 0 -292 -40q-216 -55 -430 -163q-2 -90 -19 -193q-45 -279 -191 -669q-110 -294 -372 -819t-563.5 -953.5t-525.5 -454.5q-4 0 -4.5 4t3.5 4q168 21 435 366t540 857t456 998q139 372 189 636q23 122 26 210q-101 -52 -193 -111q-284 -181 -524.5 -432
t-403 -567t-202.5 -670q0 -5 -4 -4.5t-4 4.5q40 356 203 673.5t404 569.5t526 433q112 69 199 114l1 30q0 103 -28 173q-21 48 -55.5 74t-86.5 28h-22q-5 0 -5 4t4 4h24q94 -4 143 -77q50 -74 50 -224q208 107 428 163q163 40 294 40q75 0 145 -14q135 -24 213 -89
q82 -68 111 -176q2 -7 3 -14t3 -14q2 -18 2 -29q0 -97 -71 -210.5t-202 -228.5q-148 -128 -351 -232.5t-447 -170.5q-132 -35 -236 -51q33 2 93 2q58 0 85 -2q448 -26 559 -317q20 -49 28 -119q258 88 506 92q4 0 4 -4t-4 -4q-244 -4 -505 -92q3 -30 3 -62q0 -113 -35 -241
q-63 -232 -221 -487q-118 -189 -267.5 -357.5t-305.5 -288.5t-293 -165q-69 -23 -139 -23q-76 0 -134 30.5t-83 97.5q-14 39 -14 82q0 85 48 201q68 164 232 365q141 171 328 334t406.5 297t446.5 215q-11 121 -69 213q-129 201 -488 224q-2 1 -11 1q-37 3 -77 3l-46 -1
l-48 -2l-30 -2q-60 -4 -90 -8h-1q-6 0 -6 3.5t5 4.5q20 4 35 6t25 3l60 9q118 19 230 49q242 66 444 171.5t345 232.5q124 112 192.5 225t68.5 208q0 22 -2 33q-2 17 -5 25q-44 165 -213 232q-32 11 -83 23q-70 14 -144 14zM1498.5 -1080q151.5 119 297 286.5t261.5 354.5
q85 138 145 276.5t89 267.5q22 104 22 185q0 16 -2 46q-226 -81 -444.5 -214.5t-405 -296t-326.5 -332.5q-163 -200 -231 -363q-48 -113 -48 -197q0 -42 14 -81q24 -64 78.5 -92.5t125.5 -28.5q69 0 141 24q132 46 283.5 165z" />
    <glyph glyph-name="C" unicode="C" horiz-adv-x="2099" 
d="M1498 1891.5q-202 -153.5 -405 -388t-386 -517.5q-159 -244 -289 -498t-219 -498q-78 -214 -120 -406t-42 -349q0 -59 6 -113q26 -212 124.5 -310t246.5 -98q105 0 224.5 44.5t234.5 119t210 165.5q244 230 503.5 592t512.5 809q2 4 5.5 2t1.5 -5
q-251 -446 -511.5 -809.5t-505.5 -594.5q-97 -92 -213.5 -166.5t-237 -118t-226.5 -43.5q-155 0 -258 101.5t-132 322.5q-7 55 -7 124q0 310 155 739q87 243 214 494.5t283 492.5q187 288 394 524.5t416 391t394 194.5q67 14 123 14q125 0 200 -64t75 -193q0 -11 -2 -37
q-17 -180 -160 -463q-2 -3 -5.5 -1.5t-1.5 5.5q142 279 159 460q2 26 2 37q0 124 -72.5 186t-192.5 62q-56 0 -121 -14q-175 -40 -377 -193.5z" />
    <glyph glyph-name="D" unicode="D" horiz-adv-x="3413" 
d="M822 -972q0 120 77 279q104 212 310 429q183 192 410.5 350.5t472.5 253t470 94.5q4 0 4 -4t-4 -4q-223 0 -467 -94.5t-471 -252.5t-409 -349q-203 -211 -309 -427q-75 -152 -75 -274q0 -48 12 -90q23 -81 92.5 -132.5t158 -74.5t175.5 -23q212 0 445.5 115.5t463 319
t438.5 468.5q197 252 357 528.5t260 546.5q150 401 150 712q0 144 -32 259q-61 220 -226 328.5t-407 123.5q-44 2 -66 2q-228 0 -473 -84.5t-498 -238.5q-5 -90 -20 -184q-45 -269 -192 -665q-109 -291 -371 -815.5t-563.5 -952t-524.5 -453.5q-4 0 -4.5 4t3.5 4
q168 21 435 366t540 857t456 998q139 372 189 636q20 108 26 189q-285 -181 -550 -428.5t-472 -522.5q-267 -350 -395 -673q-97 -244 -97 -427q0 -67 14 -129q50 -212 272 -286q4 -2 3 -5.5t-5 -2.5q-227 74 -277 292q-15 63 -15 133q0 184 98 428q128 325 396 675
q212 278 477.5 527.5t550.5 428.5q1 17 1 51q0 109 -27 173q-42 98 -141 102h-23q-4 0 -4.5 4t4.5 4h24q98 -4 146 -83q51 -81 46 -235q243 149 487.5 234.5t492.5 85.5q38 0 57 -1q251 -15 423.5 -127t237.5 -339q34 -120 34 -264q0 -310 -148 -702
q-102 -269 -260.5 -544.5t-353.5 -522.5q-212 -268 -445 -474t-470.5 -324.5t-454.5 -120.5q-90 0 -182.5 23t-165.5 76t-98 137q-13 42 -13 92z" />
    <glyph glyph-name="E" unicode="E" horiz-adv-x="2331" 
d="M608 361q116 -146 430 -156q18 -1 54 -1q82 0 179 9l37 4h1q3 0 3.5 -3.5t-3.5 -4.5q-12 -3 -37 -5q-259 -34 -499 -174.5t-425 -341.5q-94 -103 -163.5 -211.5t-109.5 -213.5q-51 -130 -51 -237q0 -71 23 -131q36 -93 113 -136t177 -43q72 0 151 21q184 49 409.5 197.5
t467.5 364.5q211 190 409.5 406.5t345 411t211.5 323.5q2 4 5.5 2.5t1.5 -6.5q-65 -130 -211.5 -325t-345.5 -412t-411 -406q-241 -216 -468.5 -365t-412.5 -199q-74 -20 -149 -20q-108 0 -192.5 47t-124.5 146q-25 63 -25 139q0 104 45 223q38 103 104.5 207.5t155.5 203.5
q173 193 405 334.5t486 189.5q-54 -3 -104 -3q-34 0 -51 1q-336 10 -457 165q-66 83 -68 207q-283 -74 -533 -70q-4 1 -4 5t4 3q250 -4 533 70q2 89 28 172q65 220 262 486q145 195 335 377t383.5 311t348.5 172q76 21 138 21q98 0 153 -49.5t55 -135.5q0 -85 -53 -190
q-76 -150 -248 -333q-161 -170 -379.5 -332.5t-474.5 -294t-518 -204.5q-5 -128 64 -216zM1541 1912.5q-187 -128.5 -372.5 -309t-331.5 -375.5q-200 -269 -264 -486q-26 -86 -29 -157q261 73 515.5 204t471.5 293t379 332q169 177 247 331q52 103 52 184q0 83 -52 131
t-145 48q-62 0 -135 -22q-149 -45 -336 -173.5z" />
    <glyph glyph-name="F" unicode="F" horiz-adv-x="1869" 
d="M639 310q51 0 119 22t138 54.5t184 90.5l73 36q116 56 130 63q75 170 152 372q139 372 189 636q28 146 28 252q0 105 -28 171q-21 48 -55.5 74t-86.5 28h-22q-5 0 -5 4t4 4h25q101 -4 151 -92q41 -76 41 -208q0 -93 -22 -223q-48 -275 -192 -660q-71 -186 -139 -341
q98 42 175.5 66t153.5 24q87 0 159 -38q3 -2 1 -5.5t-5 -1.5q-55 31 -133 31q-75 0 -164.5 -27t-198.5 -76q-122 -275 -351 -697.5t-494 -774t-461 -375.5q-5 0 -5 4t4 4q146 18 369 284t462.5 679.5t435.5 857.5l-165 -80q-172 -86 -275.5 -128t-181.5 -42q-60 0 -100 31
q-4 2 -1.5 5t5.5 1q32 -25 86 -25zM980 922q-1 -4 -5 -3q-226 40 -372.5 127t-215.5 206q-57 97 -57 217q0 36 4 65q20 150 120 286q77 109 195.5 197.5t268 144.5t316.5 68q55 4 123 4q133 0 273 -18.5t270 -45.5t326 -73q333 -76 573.5 -115t471.5 -39q207 0 410 36
t414 115l51 20q14 5 54 22q4 2 5.5 -1.5t-2.5 -5.5l-54 -23l-50 -19q-218 -82 -427.5 -119.5t-421.5 -37.5q-228 0 -466.5 37.5t-557.5 109.5l-20 4q-187 42 -312 67t-259.5 41.5t-262.5 16.5q-56 0 -128 -5q-142 -10 -270 -51q-145 -46 -264.5 -124t-205.5 -178
q-74 -86 -118 -188.5t-44 -204.5q0 -108 52 -199q67 -117 212 -203t371 -126q4 -1 3 -5z" />
    <glyph glyph-name="G" unicode="G" horiz-adv-x="1751" 
d="M1374 1992.5q-194 -116.5 -384 -310.5q-211 -214 -366 -466q-160 -259 -211 -472q-21 -88 -21 -160q0 -95 34.5 -162t96.5 -101t145 -34q132 0 289 85q109 60 216 151t197 191q84 95 138 184q1 4 12 4q7 0 13 -1.5t6 -2.5q10 -41 10 -102q0 -109 -32.5 -263.5
t-91.5 -336.5q-80 -244 -197 -494t-254 -460q-151 -230 -307.5 -378t-310.5 -184q-46 -12 -96 -12q-83 0 -147 37t-88 114q-15 48 -15 108q0 100 42 231q67 208 212 423q129 188 295.5 345t362 257.5t397.5 111.5q4 0 4 -4t-4 -4q-201 -11 -395.5 -111t-360.5 -256.5
t-292 -343.5q-145 -214 -212 -421q-41 -126 -41 -227q0 -59 15 -107q23 -75 85 -110t144 -35q45 0 92 11q148 37 300 180t295 364q132 205 246.5 450t193.5 485q62 185 95.5 347.5t33.5 276.5q0 60 -8 96q-50 -82 -134 -178q-89 -99 -197.5 -190.5t-218.5 -152.5
q-155 -85 -290 -85q-89 0 -157 38t-105.5 111t-37.5 175q0 72 19 154q42 187 172 412q128 220 303 417q212 238 442.5 385t426.5 147q103 2 157.5 -38.5t54.5 -123.5q0 -38 -10 -78q-26 -112 -127.5 -262t-286.5 -330q-2 -2 -5 0.5t0 5.5q184 179 285 328t127 260
q10 47 10 75q0 155 -206 155q-164 -2 -358 -118.5z" />
    <glyph glyph-name="H" unicode="H" horiz-adv-x="1603" 
d="M1818 1908q-140 -185 -274 -461.5t-232 -579.5l-29 -95q225 84 378 84q129 0 222 -57q3 -2 1 -5.5t-5 -1.5q-92 56 -219 56q-157 0 -380 -86q-82 -280 -113 -529q-16 -127 -16 -251q0 -164 32 -291q96 -384 470 -389q5 0 4.5 -4t-4.5 -4q-196 2 -320 105t-175 304
q-33 131 -33 302q0 123 16 250q28 226 103 493q-87 -34 -177 -76.5t-216 -105.5l-46 -23q-135 -68 -226 -112q-134 -409 -298 -741q-143 -293 -304 -517t-334.5 -352t-344.5 -128q-74 0 -130 20l-18 7q-4 1 -2.5 5t5.5 2l18 -6q65 -20 128 -20q208 0 421 201.5t402.5 536
t339.5 739.5q29 80 82 237q-125 -58 -222.5 -89t-172.5 -31q-81 0 -133 39q-3 2 -1 5.5t6 1.5q50 -38 127 -38q75 0 173 31.5t226 90.5q167 518 221 949q21 171 21 317q0 323 -105 435q-53 55 -127 55q-154 0 -403 -233q-3 -3 -5.5 0t-0.5 6q256 239 416 234q89 2 146 -62.5
t84 -187.5q24 -109 24 -257q0 -157 -25.5 -348t-74.5 -403q-60 -261 -136 -488q89 41 220 108l38 19q136 67 226.5 110t180.5 79q26 90 41 135q98 303 234 575t280 453t265 220q30 9 59 9q13 0 20 -1q81 -13 122 -83q43 -74 43 -205q0 -42 -2 -65q-2 -14 -4 -38l-3 -35
q-1 -4 -5 -3.5t-3 4.5l3 35q2 24 4 37q2 23 2 64q0 131 -42 202q-40 67 -116 79q-6 1 -18 1q-28 0 -55 -10q-114 -39 -254 -224z" />
    <glyph glyph-name="I" unicode="I" horiz-adv-x="502" 
d="M-1159.5 -1276q0.5 4 4.5 3l20 -3q45 -6 84 -5q230 4 452 211t412 545t341 750q88 242 156 485.5t111 469.5q66 342 66 582q0 76 -8 146q-13 104 -47.5 164t-86.5 60q-67 0 -149 -102q-89 -115 -168 -293q-2 -4 -6 -2.5t-2 5.5q86 188 170 295q83 105 158 105
q59 0 100 -65.5t55 -178.5q10 -70 10 -162q0 -214 -54 -513q-76 -423 -234 -880q-152 -440 -354.5 -809t-443.5 -595t-491 -226q-30 0 -73 5l-19 3q-4 1 -3.5 5z" />
    <glyph glyph-name="J" unicode="J" horiz-adv-x="699" 
d="M-956.5 -1276q0.5 4 4.5 3q64 -11 118 -8q239 11 468.5 239.5t423 592t342.5 797.5q159 466 234 888q56 303 56 523q0 77 -8 149q-12 103 -43 157q-36 67 -90 67q-59 0 -129 -77q-58 -66 -121 -180q-54 -99 -103 -220t-87 -250q-89 -305 -89 -532q0 -130 33 -220.5
t102 -128.5q3 -2 1.5 -5.5t-5.5 -1.5q-71 38 -105 131.5t-34 224.5q0 227 89 534q76 259 191 471q60 113 123 183q70 79 137 79q58 0 100 -65q38 -60 55 -179q9 -70 9 -158q0 -240 -64 -571q-42 -224 -109.5 -465t-156.5 -481q-156 -419 -352 -759t-425 -546t-467 -206
q-45 0 -95 9q-4 1 -3.5 5z" />
    <glyph glyph-name="K" unicode="K" horiz-adv-x="1021" 
d="M-406.5 -1073.5q223.5 206.5 414.5 546t342 752.5q10 26 28 78l27 78l-19 31l-11 18q-54 -40 -87 -40q-7 0 -10 1q-18 5 -18 23q0 17 14 38t32 28q7 4 16 4q22 0 56 -34q21 17 52 50l20 20q107 341 167 660q66 342 66 582q0 76 -8 146q-17 141 -66 191q-30 33 -70 33
q-33 0 -69 -25q-82 -57 -178 -232q-54 -99 -103 -220t-87 -250q-89 -305 -89 -532q0 -130 33 -220.5t102 -128.5q4 -1 2 -5q-1 -4 -6 -2q-71 38 -105 131.5t-34 224.5q0 227 89 534q76 259 191 471q94 176 182 236q38 27 74 27q40 0 75 -32q64 -58 84 -213q9 -70 9 -158
q0 -240 -64 -571q-51 -278 -148 -595q59 67 158 186l63 75q292 354 527 605t524.5 457.5t570.5 246.5q66 8 118 8q129 0 244.5 -41t227.5 -125q3 -2 1 -5t-5 -1q-222 163 -465 163q-58 0 -116 -9q-263 -41 -537.5 -237t-502 -436t-517.5 -584q-194 -232 -305 -347
q-20 -65 -50 -155q38 -65 81 -159.5t110 -251.5q98 -233 184 -414.5t180 -336.5q132 -218 276 -343t302 -125q85 0 174 40q27 12 60 32l3 1q3 2 5 -1.5t-1 -5.5q-28 -16 -64 -34l-9 -3l-5 -3q-87 -37 -172 -37q-312 0 -609 492q-98 162 -181 342t-193 441q-102 246 -150 339
l-45 -125q-155 -416 -350 -755.5t-423.5 -546.5t-466.5 -209q-49 0 -99 9q-4 1 -3.5 5t5.5 3q48 -9 98 -9q230 2 453.5 208.5zM342 466q-11 9 -23 9q-4 0 -10 -2q-15 -6 -27.5 -24.5t-12.5 -33.5q0 -14 12 -17q15 -3 34.5 7.5t33.5 21l18 13.5q-14 17 -25 26zM414 462
q-18 -16 -27 -23q16 -20 26 -34l25 78q-14 -11 -24 -21z" />
    <glyph glyph-name="L" unicode="L" horiz-adv-x="766" 
d="M546 2140q66 -2 105.5 -65t54.5 -179q9 -72 9 -159q0 -237 -63 -570q-42 -225 -110 -465.5t-157 -480.5q-136 -368 -305.5 -678.5t-368 -525.5t-406.5 -281q185 26 373 68t350.5 87t409.5 117q271 80 450 127.5t361 79t343 31.5q200 0 372 -54t319 -175q4 -3 1.5 -6
t-5.5 0q-141 111 -305 161t-356 50q-158 0 -336 -30t-350 -74.5t-446 -122.5l-56 -16q-275 -78 -468.5 -129t-407.5 -91.5t-390 -47.5q-9 -1 -26 -1q-37 0 -70 6l-21 3q-4 1 -3.5 5t4.5 3l21 -3q43 -7 96 -5q238 11 466.5 237t421.5 587t343 793q155 446 237 894
q57 313 57 531q0 77 -8 147q-27 224 -140 224q-52 0 -115 -68.5t-129 -188.5q-54 -99 -103 -220t-87 -250q-42 -143 -65 -279.5t-23 -252.5q0 -130 33 -220.5t102 -128.5l2 -2q0 -7 -6 -5q-71 38 -105 131.5t-34 224.5q0 227 89 534q77 263 190 471q68 124 134 194t120 68h1
z" />
    <glyph glyph-name="M" unicode="M" horiz-adv-x="2487" 
d="M-709.5 -1281q0.5 4 4.5 3t9.5 -2t12.5 -1q43 -7 95 -5q239 11 468.5 237t422.5 586t342 791q143 417 225 835q66 335 66 584q0 29 -2 79q-5 92 -21 156t-44 101q-34 44 -81 44q-38 0 -82 -27q-85 -53 -188.5 -196.5t-201.5 -338.5q-152 -303 -235 -615
q-68 -259 -68 -453q0 -74 8 -127q39 -279 246 -350q4 -2 2.5 -5.5t-5.5 -2.5q-212 74 -251 357q-8 55 -8 128q0 194 68 455q81 306 235 616q97 194 202 338t191 199q47 30 88 30q36 0 80 -23q105 -56 153.5 -228t59.5 -393t11 -592q0 -279 5 -466t26 -369t66 -317l13 64
q77 375 274 820.5t446 852.5q187 306 359.5 527.5t282.5 295.5q47 31 81 31q50 0 60 -72q3 -19 3 -43q0 -51 -14 -129q-28 -153 -100.5 -380t-204.5 -610l-11 -31q-12 -36 -19 -54q-134 -386 -216.5 -640.5t-140 -494.5t-57.5 -396q0 -59 9 -104q27 -144 143 -144q20 0 54 6
h1q5 0 5 -3.5t-5 -4.5q-25 -6 -64 -6q-64 3 -101.5 42.5t-52.5 113.5q-10 47 -10 112q0 171 63.5 432.5t154 538.5t232.5 682l23 67q122 353 184.5 548t90.5 332q21 104 18 164q-6 67 -49 67q-29 0 -72 -30q-108 -73 -282.5 -295.5t-358.5 -525.5q-248 -406 -445 -851.5
t-274 -819.5l-8 -42q-3 -11 -7 -37q0 -3 -3 -3.5t-4 2.5q-47 136 -69.5 320.5t-27.5 375t-5 474.5q0 357 -11 577t-57.5 391.5t-145.5 230.5q2 -2 3 -3.5t3 -2.5q69 -74 81 -273q3 -46 3 -97q0 -262 -73 -622q-88 -436 -258 -894q-150 -406 -342.5 -741.5t-418 -542
t-458.5 -216.5q-9 -1 -27 -1q-36 0 -70 6l-21 3q-4 1 -3.5 5z" />
    <glyph glyph-name="N" unicode="N" horiz-adv-x="2224" 
d="M1944.5 1916.5q-161.5 -216.5 -325 -479.5t-426.5 -707q-323 -548 -549.5 -905.5t-463.5 -649t-440 -403.5q-4 -2 -6 1.5t2 5.5q201 110 435 398t456 637.5t549 901.5l10 18q8 14 13 21q257 434 419 695t322 475t290 310q104 77 176 77q49 0 77 -37t28 -112q0 -21 -3 -47
q-17 -171 -124 -495q-75 -233 -216 -622q-136 -379 -222 -636.5t-145 -496t-59 -392.5q0 -53 7 -91q25 -143 150 -143q16 0 52 6h1q3 0 4 -3.5t-3 -4.5q-30 -6 -58 -6q-134 0 -164 153q-9 46 -9 107q0 163 62 412t149.5 511t230.5 660l16 46q141 397 214.5 624.5t94.5 369.5
q4 31 4 61q0 65 -23 97t-65 32q-67 0 -170 -75q-129 -97 -290.5 -313.5zM-661.5 -1281q0.5 4 4.5 3t9.5 -2t12.5 -1q42 -7 95 -5q239 11 468.5 237t422.5 586t342 791q143 417 225 835q67 344 67 591q0 26 -2 72q-7 99 -21 155q-38 145 -125 145q-77 0 -180 -110
q-70 -75 -145 -190.5t-148 -260.5q-152 -303 -235 -615q-68 -259 -68 -453q0 -74 8 -127q39 -279 246 -350q4 -2 2.5 -5.5t-5.5 -2.5q-212 74 -251 357q-8 55 -8 128q0 194 68 455q81 306 235 616q72 143 148.5 260.5t148.5 194.5q49 52 97 82t91 30q92 0 137 -144
q22 -70 28 -172q3 -48 3 -103q0 -256 -72 -616q-89 -442 -257 -894q-153 -408 -345 -742.5t-417 -541t-458 -216.5q-9 -1 -27 -1q-36 0 -70 6l-21 3q-4 1 -3.5 5z" />
    <glyph glyph-name="O" unicode="O" horiz-adv-x="2195" 
d="M1706 1930q-306 0 -573 -180.5t-472.5 -479.5t-344.5 -667q-147 -395 -196 -799q-18 -153 -18 -293q0 -217 43 -385q52 -205 160 -302.5t254 -97.5q111 0 233.5 53t240.5 148q269 216 527 648t420 930t162 901q0 188 -40 341q-55 208 -174.5 307t-287.5 99
q-272 0 -603.5 -232t-579 -589.5t-292.5 -706.5q0 -4 -4 -4t-4 4q45 352 294 711.5t582 592.5t608 233q170 0 291.5 -100.5t177.5 -311.5q40 -153 40 -343q0 -405 -162.5 -905t-421.5 -933.5t-529 -648.5q-120 -95 -243.5 -148t-236.5 -53q-153 0 -267 102.5t-171 318.5
q-45 174 -45 397q0 133 17 286q44 394 195 796q140 368 348 665.5t481.5 475.5t590.5 178q54 0 98 -4q4 -1 3.5 -5t-5.5 -4q-40 5 -96 5z" />
    <glyph glyph-name="P" unicode="P" horiz-adv-x="2977" 
d="M-167.5 -1282q-0.5 4 3.5 4l18 3q171 38 435 385t531 850.5t447 982.5q139 372 189 636q21 110 25 190q-240 -158 -463 -371q-215 -205 -403 -443q-145 -184 -260.5 -374t-193.5 -372q-128 -298 -128 -520q0 -51 8 -104q36 -209 213 -283q5 -2 3 -5q-2 -6 -5 -3
q-183 79 -219 289q-8 53 -8 103q0 223 128 527q79 182 194.5 372t261.5 375q189 241 412 452t461 367q1 17 1 50q0 109 -27 173q-44 102 -151 102h-13q-4 0 -4.5 4t3.5 4q7 1 16 1q115 -1 164 -99q41 -84 37 -218q240 154 478.5 237.5t466.5 83.5q30 0 92 -4
q303 -24 447.5 -170t144.5 -381q0 -186 -87 -416q-63 -167 -165.5 -338t-233.5 -333q-177 -218 -380.5 -390.5t-412.5 -273t-395 -100.5q-182 0 -275 79t-93 214q0 99 48 214q70 173 238 353q146 154 344.5 278t446.5 197.5t523 73.5q5 0 5 -4t-5 -4q-274 0 -520.5 -73.5
t-444.5 -196.5t-343 -277q-166 -177 -237 -350q-49 -114 -49 -211q0 -129 89 -205t262 -80q180 -2 384.5 96.5t405 269.5t375.5 387q132 163 234.5 335t167.5 341q89 237 89 425q0 227 -136 367.5t-428 164.5q-60 4 -90 4q-228 0 -467.5 -84.5t-478.5 -238.5
q-5 -100 -23 -204q-54 -289 -192 -655q-179 -477 -450.5 -980t-541 -848.5t-446.5 -381.5l-18 -3q-4 0 -4.5 4z" />
    <glyph glyph-name="Q" unicode="Q" horiz-adv-x="2149" 
d="M1655 1930q-305 0 -573 -180t-474 -480.5t-342 -667.5q-152 -407 -196 -798q-18 -153 -18 -292q0 -217 43 -385q53 -205 161.5 -302.5t254.5 -97.5q108 0 226.5 50.5t234.5 141.5q-29 29 -125 132l-24 26q-100 109 -159.5 167t-124 98.5t-124.5 40.5q-13 0 -19 -1
q-3 -2 -5 3q0 4 4 4q17 3 34 3q64 0 130.5 -39t127.5 -95.5t159 -158.5l16 -17q90 -96 136 -142q265 222 519.5 652.5t414.5 923t160 890.5q0 188 -40 341q-55 208 -175 307.5t-287 99.5q-273 0 -604 -232.5t-579 -590t-292 -706.5q-1 -4 -5 -4q-5 0 -3 5q45 352 294 711
t581.5 592t607.5 233q169 0 291 -101t178 -312q40 -153 40 -343q0 -400 -159.5 -894t-414 -925t-521.5 -652q125 -124 236 -177q75 -35 144 -35q78 0 155.5 45t157.5 143q113 143 221 380q2 4 5.5 2.5t1.5 -5.5q-53 -115 -106 -209.5t-117 -173.5q-85 -108 -168.5 -157
t-167.5 -49q-71 0 -149 35q-109 51 -240 180q-117 -93 -238 -144t-232 -51q-152 0 -267 103t-172 318q-45 174 -45 397q0 132 17 285q22 194 71.5 396.5t123.5 399.5q140 368 348 665.5t481.5 476t590.5 178.5q57 0 98 -5q4 0 4 -4t-5 -3q-44 4 -97 4z" />
    <glyph glyph-name="R" unicode="R" horiz-adv-x="2407" 
d="M24.5 -1282q-0.5 4 3.5 4l18 3q171 38 435 385t531 850.5t447 982.5q137 367 188 636q28 141 28 254q0 40 -2 59q-211 -129 -433.5 -326.5t-427 -433t-367.5 -478.5q-214 -321 -314 -592q-74 -205 -74 -359q0 -68 13 -121q29 -118 121.5 -190t253.5 -90q4 -1 3.5 -5
t-4.5 -3q-164 18 -258 92t-123 194q-14 59 -14 123q0 153 75 361q97 268 314 595q163 242 369 478t429.5 434.5t435.5 329.5q-5 52 -24 101q-44 102 -151 102h-13q-4 0 -4.5 4t3.5 4q7 1 16 1q114 -1 163 -99q21 -44 31 -101q282 173 506 189q11 1 33 1q94 0 177 -30
t141.5 -93t76.5 -156q7 -36 7 -82q0 -94 -34 -192q-49 -148 -156 -283q-133 -166 -317.5 -268t-392.5 -102q-27 0 -41 1q-54 3 -109 15q199 -88 306.5 -271.5t144 -413.5t36.5 -518q0 -113 -6 -315q-6 -184 -6 -261q0 -153 16 -252t56 -145q36 -39 90 -38q138 11 407 246
q4 2 6.5 -1t-1.5 -5q-78 -67 -140 -115.5t-137 -90t-135 -42.5q-70 -4 -111 44q-47 52 -64 165t-17 294q0 46 2 146l1 84q4 176 4 272q0 304 -37 542.5t-149.5 425t-324.5 262.5q-4 2 -2.5 6t6.5 2q77 -21 152 -27q34 -2 50 -2q199 0 379 102.5t307 265.5q105 136 154 282
q35 103 35 197q0 39 -6 73q-15 90 -68 150.5t-130.5 90t-166.5 29.5q-22 0 -33 -1q-221 -13 -508 -188q6 -45 6 -96q0 -98 -23 -228q-52 -281 -192 -655q-179 -477 -450.5 -980t-541.5 -848.5t-446 -381.5l-18 -3q-4 0 -4.5 4z" />
    <glyph glyph-name="S" unicode="S" horiz-adv-x="2910" 
d="M2458 1031q-407 -265 -859.5 -438.5t-767.5 -178.5q-4 0 -4 4t4 4q315 5 765.5 177.5t856 437t596.5 526.5q113 155 113 272q0 119 -111.5 184.5t-303.5 71.5h-32q-155 0 -342 -32.5t-394 -95.5q-230 -68 -460 -168.5t-443 -227.5q-468 -281 -734 -623
q-277 -364 -277 -749q0 -131 30 -255q24 -102 61.5 -187t79.5 -152.5t114 -171.5q57 -83 96 -143q126 241 452.5 431.5t688.5 316t876 273.5q332 96 447 134q4 2 5.5 -1.5t-2.5 -5.5q-124 -42 -449 -135q-514 -148 -876.5 -273.5t-688 -316t-448.5 -431.5
q81 -125 133.5 -228t64.5 -180q3 -18 3 -35q0 -58 -32 -93.5t-76 -35.5q-27 0 -52.5 13.5t-45.5 41.5q-35 47 -51.5 109t-16.5 131q0 73 17 145.5t46 129.5q-43 65 -91 134q-75 109 -120 181t-85 160t-67 192q-37 141 -37 277q0 183 63 358t180 337q250 344 705 626
q208 129 435.5 232t459.5 177q228 72 436.5 110.5t376.5 38.5q30 0 45 -1q131 -3 227.5 -34t148.5 -89t52 -140q0 -122 -114 -276q-191 -263 -598 -528zM578 -962.5q-50 96.5 -133 229.5q-27 -56 -43 -126.5t-16 -141.5q0 -68 16 -128t50 -105q19 -25 43 -38t49 -13
q42 0 71.5 31t29.5 84q0 10 -4 36q-13 75 -63 171.5z" />
    <glyph glyph-name="T" unicode="T" horiz-adv-x="1505" 
d="M-2 -1282q0 4 3 4l24 4q172 44 435.5 392t529.5 849.5t443 975.5q139 372 189 636q7 35 12.5 74.5t7.5 54.5q2 22 4 33q-181 19 -316 29t-257 10q-212 0 -376 -35q-170 -35 -311.5 -124t-231.5 -226.5t-103 -311.5q-2 -18 -2 -55q0 -78 19.5 -152t57.5 -138
q45 -74 111 -124t149 -70q49 -11 97 -11q140 0 306 87.5t346 272.5q2 2 5 -0.5t1 -5.5q-182 -187 -349 -274.5t-309 -87.5q-50 0 -99 11q-85 20 -152 71t-113 127q-78 130 -78 294q0 37 2 56q14 174 103.5 311.5t231.5 228.5t314 132q176 43 423 43q115 0 241.5 -8
t290.5 -23q2 22 2 64q0 103 -27 170q-21 48 -55.5 74t-86.5 28h-23q-4 0 -4 4t4 4q5 1 13 1t12 -1q101 -4 151 -92q41 -75 41 -209q0 -29 -1 -45q76 -8 112 -11l32 -3q247 -23 411.5 -35t330.5 -12q389 0 724.5 87t626.5 305q3 3 5.5 0t-1.5 -6q-293 -230 -632.5 -323
t-733.5 -93q-182 0 -365 14.5t-435 41.5l-77 8q-4 -61 -19 -150q-48 -278 -192 -660q-180 -475 -449 -975t-537 -846t-446 -389q-8 -3 -26 -5q-4 0 -4 4z" />
    <glyph glyph-name="U" unicode="U" horiz-adv-x="3127" 
d="M1127.5 1688q-38.5 -183 -97 -393.5t-157.5 -549.5l-19 -66q-124 -424 -203 -713t-133.5 -558t-54.5 -445q0 -148 36 -218t102 -70q54 0 125 44.5t153 126.5q224 224 542 682.5t633 992.5q51 261 134 549q97 343 206 611.5t201 367.5q23 25 47 38t44 13q25 0 40.5 -21.5
t15.5 -64.5q1 -95 -75 -299q-90 -237 -268 -584q-138 -269 -306 -558q-99 -435 -99 -649q0 -68 10 -112q27 -115 128 -115q58 0 131 32.5t167 87.5q138 82 285 202.5t276 262.5q82 91 136 161q2 3 5 1t1 -5q-59 -77 -137 -163q-129 -143 -276 -263.5t-286 -201.5
q-100 -59 -176 -90.5t-132 -31.5q-104 0 -135 118q-14 53 -14 139q0 118 20.5 254t51.5 298q-307 -522 -624.5 -977.5t-541.5 -679.5q-82 -83 -155.5 -129t-131.5 -46q-72 0 -112 74t-40 231l1 36q4 190 61 469t137 572t205 718q8 26 11 39q140 481 210 751.5t77 422.5
q8 153 -87 153q-40 0 -93.5 -26.5t-109.5 -68.5q-120 -87 -246 -246t-238.5 -357.5t-195.5 -404.5q-94 -235 -131 -439q-19 -112 -19 -196q0 -88 19 -155q57 -199 260 -199q4 0 4 -4.5t-4 -3.5q-108 1 -174.5 54t-93.5 150q-19 69 -19 157q0 85 19 199q34 191 131 440
q83 206 196 405t239.5 358.5t247.5 247.5q133 96 212 96q103 0 103 -158q0 -110 -38.5 -293zM2392 1134q180 351 267 584q76 205 76 299q-1 38 -14 57t-34 19q-18 0 -39 -13.5t-41 -38.5q-82 -101 -187 -366.5t-200 -598.5q-75 -268 -122 -478q167 289 294 536z" />
    <glyph glyph-name="V" unicode="V" horiz-adv-x="2181" 
d="M1136.5 1567.5q-52.5 -234.5 -143.5 -563.5l-50 -187l-12 -45q-105 -397 -170.5 -665t-111.5 -531.5t-46 -455.5q0 -109 24.5 -206.5t71 -157t110.5 -59.5q98 0 214 146q84 105 187 282.5t206 379t272 542.5l18 37q315 641 540.5 1054.5t462.5 706t434 294.5q5 0 5 -4
t-5 -4q-195 -2 -430 -294t-456 -697.5t-544 -1058.5l-23 -46q-168 -339 -270 -538.5t-204.5 -376t-187.5 -282.5q-118 -148 -222 -148q-67 0 -117.5 61.5t-78 164.5t-27.5 225q0 206 49.5 489.5t120 570.5t179.5 696q116 439 173 683t64 388q8 164 -88 164q-74 0 -210 -100
q-119 -88 -244 -246.5t-236 -355.5t-193 -401q-95 -238 -130 -439q-20 -111 -20 -200q0 -85 19 -151q56 -198 260 -199q5 -1 5 -5t-5 -3q-211 1 -267 205q-19 69 -19 156q0 86 19 198q35 201 131 441q80 203 191.5 400t237 356t245.5 249q137 102 220 102q106 0 106 -167
q-2 -170 -54.5 -404.5z" />
    <glyph glyph-name="W" unicode="W" horiz-adv-x="4670" 
d="M323 35q0 -4 -5 -3q-210 1 -267 204q-19 69 -19 158q0 90 18 195q34 192 130 438q79 199 187.5 393t231.5 352.5t241 251.5q148 114 236 114q105 0 105 -165v-28q-7 -158 -68.5 -424t-179.5 -709l-8 -31q-107 -403 -172.5 -671.5t-112 -534t-46.5 -457.5
q-2 -109 23.5 -206t73.5 -156t111 -59q42 0 89.5 30t97.5 92q78 96 170 262t182 355t233 499l28 62l21 45q180 398 300 639q1 2 3.5 2t3.5 -2q22 -48 22 -154q0 -82 -11 -187.5t-34 -282.5q-4 -33 -7 -53q-18 -142 -28 -238t-15 -186q-4 -78 -4 -120q0 -170 43.5 -274
t156.5 -104q74 0 175 49q208 103 449.5 399.5t468.5 699.5q-116 90 -172 235.5t-56 326.5q0 21 2 63q11 237 102 507q82 244 211 448q91 141 193 224.5t182 83.5q66 0 104.5 -61t38.5 -186q0 -47 -6 -106q-10 -98 -41 -226q-67 -270 -195 -580q-143 -353 -353 -727
q22 -16 34 -23q85 -55 197.5 -81t243.5 -26q117 0 243 20q226 36 442 123t354 196q3 2 5.5 -1t-0.5 -5q-140 -109 -357 -197.5t-443 -123.5q-128 -20 -245 -20q-273 0 -444 108q-12 7 -34 23q-226 -402 -468.5 -699t-451.5 -402q-102 -51 -180 -51q-127 0 -176 124t-49 326
q0 60 3 120q6 116 19.5 237.5t37.5 298.5q22 170 32 263.5t10 160.5q0 40 -4 64q-134 -272 -316 -674q-141 -312 -238.5 -517.5t-195.5 -382.5t-180 -278q-102 -125 -196 -125q-67 0 -119 62t-80 165.5t-26 222.5q0 205 49.5 488t120 570t179.5 694q113 428 171.5 679
t65.5 396q7 164 -89 164q-81 0 -226 -113q-117 -92 -239.5 -250t-231 -352t-186.5 -392q-95 -236 -130 -436q-19 -112 -19 -197q0 -86 19 -153q57 -197 260 -198q5 -1 5 -5zM3502 962q138 342 194 579q30 121 42 226q6 56 6 101q0 123 -36.5 183t-100.5 60q-78 0 -178 -83
t-189 -222q-130 -208 -210 -447q-91 -271 -102 -504q-1 -19 -1 -58q0 -181 53.5 -325t169.5 -235q205 369 352 725z" />
    <glyph glyph-name="X" unicode="X" horiz-adv-x="3661" 
d="M289 -1304q-3 0 -3 3.5t4 4.5q115 7 294.5 206t380 491t524.5 794l23 35l148 230l-10 49q-118 541 -199.5 862.5t-176.5 538.5t-197 217q-140 0 -316.5 -166.5t-340.5 -430.5t-271 -542q-92 -238 -121 -423q-17 -97 -17 -176q0 -88 21 -159q56 -189 259 -190q4 -1 4 -5
t-4 -3q-210 1 -266 196q-21 72 -21 164q0 83 16 175q31 194 122 424q110 282 274.5 546t341 430t319.5 168q115 0 218 -220.5t188.5 -552.5t200.5 -866q323 499 571.5 844t475.5 567t391 224q4 0 4 -4t-4 -4q-162 -2 -388.5 -225t-475 -568t-572.5 -845q11 -50 11 -53
q125 -574 212 -917t193.5 -580.5t225.5 -242.5q165 -5 392.5 260t421 582t377.5 654l36 65q75 141 106 189q2 3 5.5 1t1.5 -6q-25 -35 -106 -188l-11 -20q-177 -328 -375 -655.5t-437.5 -611.5t-410.5 -278q-128 4 -242 246t-206 595.5t-217 923.5l-144 -224
q-329 -511 -534.5 -811.5t-390.5 -505.5t-304 -212h-1z" />
    <glyph glyph-name="Y" unicode="Y" horiz-adv-x="1689" 
d="M917.5 1740.5q-69.5 -197.5 -207.5 -532.5q-106 -255 -171 -422t-110 -323.5t-45 -258.5q0 -84 31.5 -123t82.5 -39q31 0 66.5 13.5t67.5 36.5q88 61 199 191.5t235 311.5q174 251 357.5 562.5t323.5 573t189 367.5l5 1q9 0 17.5 -2.5t7.5 -7.5q-6 -19 -35 -134
q-16 -62 -26 -102q-119 -455 -234 -860t-262 -822q114 -47 217 -162q5 -3 0 -5q-3 -3 -6 0q-99 110 -214 159q-11 -34 -16 -44q-148 -416 -302.5 -737t-308.5 -498q-75 -87 -165 -136.5t-171 -49.5q-92 0 -148 67t-56 203q0 51 9 113q20 138 86.5 298t166.5 310
q104 156 230.5 277.5t259.5 182.5q124 58 240 58q79 0 160 -29q256 737 508 1776l25 102q-67 -140 -203.5 -393t-309.5 -545t-338 -528q-266 -382 -437 -505q-73 -51 -142 -51q-58 0 -94 45t-36 139q0 102 42.5 254.5t103.5 312.5t163 411l29 71l18 44q86 209 133.5 332.5
t79.5 231.5t32 172q0 80 -63 80q-42 0 -106 -33q-99 -52 -213.5 -175t-221.5 -284t-186 -324q-83 -172 -116 -305q-22 -90 -22 -152q0 -40 9 -72q23 -70 96 -80q4 -1 3.5 -5t-4.5 -3q-79 10 -102 86q-10 31 -10 75q0 63 22 153q35 134 117 306q79 164 186 324.5t221.5 284
t215.5 177.5q70 35 115 35q75 0 79 -93q2 -104 -67.5 -301.5zM1388 170q-77 29 -158 29q-113 0 -236 -57q-133 -62 -259 -182.5t-228 -275.5q-100 -147 -166 -306.5t-86 -297.5q-8 -53 -8 -109q0 -133 54 -198.5t143 -65.5q77 0 164.5 48t161.5 132q274 320 578 1170
q17 45 40 113z" />
    <glyph glyph-name="Z" unicode="Z" horiz-adv-x="1895" 
d="M40 1433q2 203 178.5 323.5t460 174t661.5 69.5q172 7 367 7q147 0 403 -4l114 -1q128 -2 182 -2q186 0 299 10q56 49 93.5 73.5t60.5 24.5q14 0 22 -7.5t8 -19.5q0 -15 -12 -31t-35 -27q-31 -16 -91 -27q-10 -2 -20 -3.5t-19 -3.5q-139 -134 -370 -398t-635 -740
l-22 -26q-421 -495 -701 -817.5t-561 -622t-484 -472.5q128 -4 448 -31l61 -5q371 -31 656.5 -49t572.5 -18q634 0 1072 124.5t575 435.5q2 4 5.5 2t1.5 -5q-144 -329 -599.5 -461.5t-1091.5 -132.5q-305 0 -598 22t-628 57l-106 11q-276 28 -386 36q-155 -133 -255 -173
q-40 -17 -71 -17q-19 0 -30 8t-11 22q0 27 37 67q57 64 125 85.5t163 21.5h37q186 164 446.5 444.5t529.5 590.5t660 770q443 523 703.5 820t421.5 447q-83 -10 -197 -13t-282 -3h-188l-217 1q-269 0 -488 -8q-369 -16 -642.5 -66t-443.5 -162t-172 -301q0 -13 1 -20
q0 -4 -4 -4t-4 4q-1 7 -1 20zM-98 -1100q-42 2 -61 2q-75 0 -132.5 -21.5t-110.5 -79.5q-34 -38 -34 -62q0 -23 31 -23q27 0 69 18q91 39 238 166zM2839 2034q20 8 30 21t10 25q0 8 -4.5 13t-13.5 5q-10 0 -20 -5q-35 -17 -103 -80q65 8 101 21z" />
    <glyph glyph-name="bracketleft" unicode="[" horiz-adv-x="334" 
d="M293 761.5q0 -3.5 -4 -3.5h-102l-128 -719h120q2 0 2 -3t-2 -3h-146h-4t-2 3l129 726q0 3 2 3h131q4 0 4 -3.5z" />
    <glyph glyph-name="backslash" unicode="\" horiz-adv-x="833" 
 />
    <glyph glyph-name="bracketright" unicode="]" horiz-adv-x="833" 
 />
    <glyph glyph-name="asciicircum" unicode="^" horiz-adv-x="182" 
d="M82 659l60 -91l-8 -6l-52 97v0zM27 564l54 95h1l-48 -99z" />
    <glyph glyph-name="underscore" unicode="_" horiz-adv-x="572" 
d="M549 2v-10h-506v10h506z" />
    <glyph glyph-name="grave" unicode="`" horiz-adv-x="265" 
d="M96 627q0 8 2.5 14.5t5.5 5.5l76 -86q3 -2 1 -4.5t-4 -0.5l-80 64q-1 1 -1 7z" />
    <glyph glyph-name="a" unicode="a" horiz-adv-x="551" 
d="M-35 355q0 11 5 31q11 32 31 58q22 30 51 48q22 13 46 13q32 0 59 -24q4 8 11 15q0 3 15 3q14 0 9 -7l-8 -11q-31 -44 -50 -78t-19 -61q0 -32 31 -44q19 -6 46 -8q64 0 161 38q60 23 113.5 53.5t84.5 58.5q3 3 5.5 0t-0.5 -6q-29 -27 -84 -58t-116 -56q-99 -38 -163 -38
q-26 0 -50 9q-41 16 -41 58q0 10 4 30q7 22 18 46q-40 -49 -71.5 -79t-55.5 -30q-8 0 -15 4q-17 10 -17 35zM37 452q-19 -19 -41 -59q-15 -30 -15 -52q0 -12 5 -14q5 -3 11 -3q28 0 66 42t89 109q-17 14 -31 19q-40 6 -84 -42z" />
    <glyph glyph-name="b" unicode="b" horiz-adv-x="690" 
d="M497 873q-103 -121 -245.5 -245.5t-234.5 -185.5q-38 -127 -34 -179q26 110 100 177q25 24 61 40q27 11 57 11q51 0 67 -35q7 -14 7 -34q0 -41 -30 -111h18q86 2 151 10t138 35.5t138 83.5q3 3 5.5 0t0.5 -6q-67 -57 -140.5 -85t-138.5 -35.5t-154 -9.5q-7 -1 -22 -1
q-38 -82 -96 -151q-65 -80 -119 -112q-32 -19 -63 -19q-23 0 -37 13.5t-14 38.5q0 12 5 32q5 21 24 54q29 47 77.5 86t100.5 53q20 5 47.5 8t55.5 5q12 26 21 56.5t9 56.5q0 15 -3 25q-11 35 -51 35q-20 0 -49 -11q-33 -14 -61 -39q-34 -31 -60.5 -78t-40.5 -108l-1 -6
q-1 -3 -3.5 -3.5t-3.5 2.5q-1 2 -2 3.5t-1 3.5q-5 15 -5 36q0 52 24 146l6 20q34 130 106 299q76 176 167 311.5t176 178.5q36 18 75 18q50 0 83.5 -29t33.5 -81q0 -105 -145 -274zM295 1057q-86 -131 -161 -301q-72 -165 -114 -302q96 66 234 186t237 238q143 173 143 267
q0 49 -31 76.5t-76 27.5q-38 0 -72 -19q-74 -42 -160 -173zM121 291q-50 -14 -98 -52.5t-75 -84.5q-16 -24 -24 -51q-4 -13 -4 -28q0 -22 13 -34t33 -12q26 0 54 17q39 24 85 78q66 80 104 158l9 20q-60 -2 -97 -11z" />
    <glyph glyph-name="c" unicode="c" horiz-adv-x="508" 
d="M-40 360q-40 -60 -58 -114q-14 -39 -14 -70q0 -13 3 -25q7 -24 31 -35q15 -6 34 -6q63 0 188 67q72 40 149 94t136 101.5t79 67.5q3 3 5.5 0t0.5 -6q-19 -19 -79 -67t-137 -102t-150 -95q-124 -67 -193 -67q-21 0 -36 6q-48 18 -48 79q0 15 3 31q12 69 66 153
q57 83 118 117q34 18 61 18q37 0 62 -29q4 -3 0.5 -5t-6.5 0q-23 24 -49 24t-58 -24q-58 -39 -108 -113z" />
    <glyph glyph-name="d" unicode="d" horiz-adv-x="709" 
d="M46 348q-34 -31 -53 -31q-7 0 -11 3q-17 10 -17 35q0 14 6 32q5 18 21 45q11 18 33 42q39 39 80 39q21 0 39 -11q56 176 136 330.5t181.5 264t213.5 143.5q24 8 52 8q49 0 79.5 -30t30.5 -78q0 -36 -19 -75q-40 -78 -132 -171q-105 -106 -249.5 -217.5t-276.5 -199.5
q-12 -34 -23 -76t-15 -57l-10 -38q-44 -189 -48 -327l-1 -31q0 -125 35 -180q24 -39 65 -39q25 0 55 14q49 22 95.5 78.5t84.5 123t98 180.5q8 14 11 22q67 127 111 195.5t91 98.5q3 2 5.5 -1.5t-1.5 -5.5q-46 -31 -89.5 -99.5t-110.5 -195.5q-4 -6 -10 -18
q-58 -112 -97 -179.5t-86.5 -124.5t-97.5 -81q-30 -15 -59 -15q-50 0 -78 48q-37 62 -37 192q0 162 46 359l14 53q8 38 18 70q-35 -51 -80 -95zM456 701.5q127 96.5 225 198.5q94 96 130 169q18 39 18 71q0 44 -28.5 72t-74.5 28q-22 0 -49 -8q-105 -34 -202 -144
t-175.5 -266t-135.5 -333q165 116 292 212.5zM56 477q-27 -25 -53 -71q-22 -41 -20 -66q0 -10 3 -13q8 -5 21.5 2.5t32.5 24.5q36 33 94 113l8 27h-1q-16 9 -29 10q-24 0 -56 -27z" />
    <glyph glyph-name="e" unicode="e" horiz-adv-x="548" 
d="M54 469q-41 -37 -87 -110q-13 -21 -35 -63q34 13 75 34t77 45q40 28 62 56q14 18 14 38q0 17 -10 27.5t-26 10.5q-15 0 -32 -10q-15 -7 -38 -28zM-90 245q-17 -45 -17 -79q0 -59 60 -59q16 0 44 6q71 16 172 68q107 56 218 133.5t161 125.5q3 3 6 0t0 -6
q-47 -47 -159.5 -125.5t-221.5 -134.5q-104 -54 -175 -69q-27 -5 -44 -5q-76 0 -76 76q0 16 3 34l8 35q3 8 8.5 24.5t11.5 28.5q21 44 29 58q46 77 100 124q22 20 45 30q17 6 31 6q23 0 38.5 -13t15.5 -34q0 -20 -16 -42q-22 -30 -64 -59q-36 -25 -80 -47t-81 -35
q-12 -25 -17 -41z" />
    <glyph glyph-name="f" unicode="f" horiz-adv-x="669" 
d="M-200 -236q-94 -351 -116 -614q-7 -73 -7 -145q0 -168 46 -243q16 -27 40 -41.5t51 -14.5q25 0 48 13t40 37q70 100 83 384q4 73 4 172q0 178 -16 470l-3 60q-12 189 -12 269q0 68 8 85q10 23 33 35t53 16.5t91 9.5q100 8 173 20.5t166.5 50.5t186.5 112q3 3 5.5 -0.5
t-0.5 -5.5q-95 -74 -189 -112.5t-168.5 -51.5t-173.5 -21q-79 -4 -118 -14.5t-51 -41.5q-7 -17 -7 -85q0 -95 11 -266l3 -59q1 -24 8.5 -177.5t7.5 -294.5q0 -99 -4 -172q-14 -291 -86 -389q-19 -26 -43 -39.5t-49 -13.5q-30 0 -59 18t-48 51q-47 80 -47 254q0 76 7 152
q22 263 117 623q97 355 210 635q134 335 277 558t267 261q24 8 52 8q49 0 80 -30.5t31 -79.5q0 -23 -9 -52q-32 -90 -149 -218q-110 -119 -263.5 -244.5t-258.5 -195.5q-127 -314 -222 -673zM291.5 987.5q-136.5 -216.5 -264.5 -537.5q113 79 259.5 198t252.5 235
q119 129 147 215q9 26 9 49q0 46 -29.5 74.5t-76.5 28.5q-21 0 -48 -8q-113 -38 -249.5 -254.5z" />
    <glyph glyph-name="g" unicode="g" horiz-adv-x="597" 
d="M171 375q0 -32 -5 -80q36 16 76.5 26.5t102.5 23.5q92 19 150.5 38.5t101.5 56.5q3 3 5.5 0t-0.5 -6q-42 -39 -103 -59.5t-152 -37.5q-64 -13 -105.5 -23.5t-76.5 -27.5q-10 -109 -48 -268q-43 -183 -113 -382t-152 -366q-73 -148 -149 -251.5t-149 -143.5
q-43 -23 -85 -23q-46 0 -79.5 27.5t-41.5 79.5q-3 16 -3 35q0 53 20 121q38 135 160 352q96 168 220.5 344t231.5 304.5t150 158.5l16 9q4 45 4 93q0 37 -2 52q-16 -20 -42 -59q-43 -64 -70 -96.5t-49 -32.5q-5 0 -8 1q-29 10 -29 56q0 16 2 25q5 38 21 72q19 39 45 67
q42 47 91 47q26 0 54 -15q4 -1 2 -5q-1 -4 -6 -2q-23 12 -43 13q-35 -2 -66.5 -32.5t-52.5 -74.5q-16 -33 -22 -60q-7 -27 -7 -51q2 -27 14 -32q31 -10 118 125l16 23q18 26 32 44q0 2 9 2q12 0 12 -4q5 -32 5 -64zM-308 -980q72 100 142 243q79 158 146.5 352.5
t111.5 380.5q36 155 50 278q-2 -2 -4.5 -3.5t-5.5 -3.5q-42 -28 -148.5 -156t-231 -303.5t-220.5 -343.5q-119 -211 -159 -351q-20 -69 -20 -120q0 -18 3 -34q8 -48 39 -73.5t74 -25.5q42 0 82 22q69 38 141 138z" />
    <glyph glyph-name="h" unicode="h" horiz-adv-x="589" 
d="M498 873q-103 -121 -245.5 -244.5t-235.5 -186.5q-38 -128 -34 -180q9 34 29 80t44 83q30 50 61 67q15 9 29 9q16 0 26.5 -12t11.5 -34q0 -27 -11 -65t-34 -106l-12 -34q-15 -39 -38 -108q-17 -56 -17 -82q0 -15 4 -23q7 -13 24 -13q45 0 124.5 66.5t191.5 182.5
q105 106 173 167q3 3 6 0t0 -6q-34 -27 -76.5 -69t-83.5 -84l-14 -14q-108 -111 -181.5 -174.5t-122.5 -74.5q-12 -2 -18 -2q-21 0 -31 17q-8 12 -8 36q0 32 17 93q16 53 27 84l11 34q26 79 37.5 118t11.5 65q-1 29 -20 29q-10 0 -23 -8q-26 -14 -59 -63q-26 -42 -47 -94
t-28 -83q-1 -5 -3.5 -6t-4.5 3l-3 7q-4 13 -4 36q0 55 27 158q39 149 108 307q76 176 167.5 311.5t177.5 178.5q36 18 74 18q49 0 83 -29.5t34 -80.5q0 -102 -145 -274zM297 1057.5q-86 -131.5 -161 -301.5q-72 -161 -115 -302q92 63 230.5 184.5t240.5 239.5
q127 152 142 248q1 6 1 18q0 48 -31.5 77t-76.5 29q-36 0 -71 -20q-73 -41 -159 -172.5z" />
    <glyph glyph-name="i" unicode="i" horiz-adv-x="417" 
d="M-32 350q0 42 35 99q1 2 6 3t10 1q14 0 10 -7q-21 -34 -32.5 -59t-11.5 -47q0 -20 12 -31q19 -18 62 -18q63 0 160 37q60 23 113.5 53.5t84.5 58.5q3 3 5.5 0t-0.5 -6q-29 -27 -84 -58t-116 -56q-96 -38 -162 -38q-44 0 -70 20q-22 17 -22 48zM56 588q1 12 1 14v8
q1 14 13 14q5 0 8.5 -4t2.5 -10q0 -6 -4 -15q-4 -6 -10 -16.5t-10 -15.5q-4 -6 -8 -6q-5 0 -1 9q7 10 8 22z" />
    <glyph glyph-name="j" unicode="j" horiz-adv-x="440" 
d="M6 506q11 0 11 -5q4 -34 4 -61q0 -62 -12 -145q36 16 76.5 26.5t102.5 23.5q94 19 152.5 38.5t99.5 56.5q3 3 5.5 0t0.5 -6q-43 -39 -104 -59.5t-152 -37.5q-64 -13 -105.5 -23.5t-76.5 -27.5q-11 -81 -44 -229q-46 -191 -116.5 -396t-153.5 -378q-79 -166 -163.5 -278
t-161.5 -143q-26 -10 -55 -10q-45 0 -79 26t-43 74q-4 26 -4 43q0 51 20 120q39 138 161 352q96 169 220.5 345.5t231 304.5t149.5 157l16 9q12 89 12 151q0 41 -4 66q0 6 12 6zM-324 -725q79 164 147 364t115 394q28 125 46 240l-9 -6q-42 -28 -148.5 -156t-231 -303.5
t-220.5 -343.5q-119 -211 -159 -351q-20 -68 -20 -118q0 -26 4 -43q9 -44 40 -68.5t72 -24.5q26 0 54 11q144 60 310 405zM26 630v9q1 14 13 14q5 0 8.5 -4t2.5 -10q0 -6 -4 -15q-15 -27 -22 -34q-4 -5 -7 -3t0 6q9 17 9 37z" />
    <glyph glyph-name="k" unicode="k" horiz-adv-x="570" 
d="M-24 248q-4 13 -4 36q0 34 8 78.5t18 77.5q38 145 109 309q75 175 167 311t177 179q9 4 27 10q29 8 50 8q26 0 48 -9q44 -17 61 -64q6 -18 6 -38q0 -100 -145 -273q-103 -121 -245.5 -244.5t-235.5 -186.5q-38 -130 -34 -181q11 37 40 91q20 37 34 59q32 46 55 65
q29 22 49 22q6 0 9 -1q8 -1 18 -7q6 -4 6 -13q0 -6 -3.5 -11.5t-8.5 -5.5q-4 0 -9 3q-10 6 -17 7q-20 4 -47 -16q-26 -19 -48 -54q-12 -19 -32 -53q-16 -31 -27 -60q13 19 29 19q6 0 12 -3q18 -8 34 -38t39 -87q27 -66 47 -103t43 -50q13 -5 20 -5q8 0 20 5q34 14 70 60.5
t88 130.5l20 31q48 79 82 126.5t64 67.5q3 2 5.5 -1.5t-1.5 -5.5q-28 -20 -62 -66.5t-81 -123.5q-62 -101 -102.5 -155.5t-79.5 -70.5q-13 -6 -27 -6q-11 0 -20 4q-33 13 -58 54.5t-54 109.5q-19 47 -33 73t-28 32q-9 5 -18.5 -2.5t-21.5 -29.5q-2 -10 -2 -11q-1 -4 -5 -4
l-3 3q-1 1 -1 3h-1zM479 1241q-78 -28 -170 -164.5t-173 -320.5q-75 -167 -115 -302q96 67 233.5 186.5t236.5 237.5q66 78 105 147.5t39 120.5q0 19 -6 35q-17 45 -56 59q-21 9 -46 9q-24 0 -46 -7z" />
    <glyph glyph-name="l" unicode="l" horiz-adv-x="581" 
d="M342 1082q-100 -116 -180 -279t-136 -345q122 82 268.5 199.5t251.5 228.5q100 107 138 185q16 36 16 70q0 44 -28 71.5t-73 27.5q-21 0 -50 -8q-107 -34 -207 -150zM-15 306q-45 -186 -49 -327l-1 -31q0 -125 35 -180q24 -40 67 -39q61 4 117.5 59.5t104 135
t109.5 201.5q8 14 11 22q67 127 111 195.5t91 98.5q3 2 5.5 -1.5t-1.5 -5.5q-46 -31 -89.5 -99.5t-110.5 -195.5q-4 -6 -10 -18q-65 -126 -113 -205.5t-105 -135t-119 -59.5q-52 -3 -81 48q-37 62 -37 192q0 155 46 359t132 400t202 338t247 182q29 8 51 8q49 0 79.5 -30
t30.5 -77q0 -35 -17 -72q-34 -77 -139 -189q-107 -113 -257 -232.5t-273 -201.5q-16 -50 -37 -140z" />
    <glyph glyph-name="m" unicode="m" horiz-adv-x="646" 
d="M148 94q0 56 34 161q12 41 30 92q29 86 43 135.5t16 84.5v13q0 11 -2 16q-6 25 -26 25q-9 0 -18.5 -5.5t-16.5 -14.5q-33 -42 -68 -187l-6 -23q-5 -21 -11 -39t-12 -26q-5 -7 -8 -7q-5 0 -7 8q-3 9 -3 25q0 14 1 23t1 13q2 32 2 49q0 50 -11 50t-21 -19.5t-26 -62.5
q-1 -5 -8 -23q-12 -38 -22 -62t-20 -34l-2 -1q-3 -5 -8 -5q-1 -1 -2 0q-5 0 -3 5q15 48 22 108q3 33 3 60q0 30 -3 40v1q0 2 4.5 3.5t9.5 1.5q9 0 9 -3q2 -5 2 -25q0 -29 -6 -68q-6 -46 -18 -91q12 25 26 73q18 53 32.5 81.5t30.5 28.5q28 0 28 -45q1 -28 -7 -77
q-1 -8 -2 -16.5t-1 -16.5l-1 -10q0 -3 1 -3q2 0 6 12q3 7 7.5 23t7.5 25q5 22 7 29q16 66 32.5 114.5t37.5 75.5q18 23 44 23q25 0 37 -25q6 -16 6 -39q0 -72 -65 -250l-9 -28q-31 -92 -43.5 -139t-9.5 -77q3 -43 44 -43q11 0 35 6q83 26 182.5 134.5t197.5 239.5l25 32
q2 3 5 0.5t1 -5.5l-24 -32q-97 -129 -199 -239.5t-187 -136.5q-18 -6 -36 -6q-48 0 -56 46q-2 8 -2 27z" />
    <glyph glyph-name="n" unicode="n" horiz-adv-x="524" 
d="M21 467q0 -32 -4 -65q-6 -41 -17 -83q8 19 24 65q7 18 8 23q2 6 9.5 25.5t13.5 32t12 19.5q11 11 23 11q18 0 27 -17q9 -16 9 -44q-1 -26 -8 -64t-15 -76q-22 -93 -22 -136q0 -17 2 -24q6 -23 31 -23q51 0 152 77q76 58 156.5 139t101.5 112q2 5 6 2t1 -6
q-18 -30 -100 -111.5t-161 -142.5q-83 -62 -132 -74q-12 -4 -26 -4q-30 0 -39 28q-6 18 -6 43q0 39 15 120l5 30q18 80 18 128q0 4 -2 18q-5 17 -16 17q-12 0 -21.5 -19t-24.5 -60l-9 -26q-16 -48 -25 -67q-3 -4 -8.5 -14t-11 -16t-10.5 -5q-5 0 -2 5q16 51 21 108
q3 36 3 63q0 25 -2 37v1q0 5 10 5q4 0 8 -1t4 -3q2 -5 2 -28z" />
    <glyph glyph-name="o" unicode="o" horiz-adv-x="558" 
d="M160.5 486.5q-1.5 -3.5 -5.5 -1.5q-24 12 -44 12q-65 0 -115 -108q-15 -39 -19 -66q-3 -13 -3 -27q0 -25 8 -36.5t21 -11.5q12 0 26 8q25 16 50 50q-23 12 -34 30.5t-11 39.5q0 27 17 53q14 23 32 36.5t34 13.5q13 0 20.5 -9.5t7.5 -27.5q0 -17 -9 -46q-18 -52 -45 -87
q36 -18 88 -18q51 0 116 18q73 19 144.5 56t118.5 75q2 3 5 -0.5t-1 -5.5q-47 -38 -119 -76t-146 -57q-63 -19 -116 -19q-55 0 -95 20q-28 -37 -54 -53q-15 -9 -30 -9q-25 0 -38 24q-6 12 -8 32q-1 5 -1 16q0 32 14 71q17 48 49 83q40 40 86 40q28 0 55 -14q3 -2 1.5 -5.5z
M111.5 358.5q10.5 19.5 16.5 40.5q8 27 8 41q0 15 -5.5 22.5t-15.5 7.5q-12 0 -27.5 -12t-29.5 -33q-15 -24 -15 -49q0 -41 41 -64q17 27 27.5 46.5z" />
    <glyph glyph-name="p" unicode="p" horiz-adv-x="687" 
d="M274 399q-9 -27 -38 -68l-11 -15q19 -16 48.5 -28.5t69.5 -12.5q143 0 344 165q3 3 6 -0.5t0 -5.5q-110 -91 -197.5 -129t-152.5 -38q-43 0 -74 13t-50 30q-27 -32 -55.5 -52.5t-48.5 -20.5q-10 -1 -17.5 5.5t-5.5 17.5q2 13 14 28q16 16 29 25q31 19 56 19q11 0 19 -4
q27 39 39 69q7 19 8 31q1 5 1 13q0 21 -13 32.5t-33 11.5q-27 0 -51 -18q-45 -34 -91 -126.5t-86.5 -209.5t-98.5 -300q-8 -22 -26 -79l-12 -39q-2 -5 -6 -4t-3 5q88 269 131 482q30 155 30 245q0 36 -4 59q0 5 8 5q6 0 11 -1.5t5 -3.5q3 -22 3 -50q0 -93 -41 -272l-29 -115
q55 161 103.5 264.5t97.5 142.5q29 23 66 23q29 0 47.5 -17t14.5 -50q-1 -9 -7 -27zM157 268q24 21 48 53q-7 3 -16 3q-24 0 -49 -18q-17 -11 -28 -24q-10 -12 -12 -23v-2q0 -7 5 -10t13 -2q15 2 39 23z" />
    <glyph glyph-name="q" unicode="q" horiz-adv-x="565" 
d="M13 29q24 100 58.5 205.5t62.5 179.5q-29 -42 -31 -45q-46 -68 -75.5 -102.5t-50.5 -25.5q-30 10 -30 57q0 8 2 24q5 36 22 72q17 38 44 67q42 47 91 47q26 0 54 -15q4 -1 2 -5q-1 -4 -6 -2q-21 12 -43 13q-35 -2 -66 -32t-52 -75q-14 -28 -23 -60q-7 -27 -7 -51
q2 -26 15 -32q18 -5 48 30t69 95l12 17q25 36 36 49q0 2 11 2q13 0 11 -6q-28 -69 -74.5 -199t-76.5 -253q-28 -111 -29 -176q0 -39 8 -65.5t36 -26.5q24 0 32 38q8 29 8 85q0 19 -2 59l-1 35q-4 70 -4 105q0 101 23 139q18 34 43 45t70 16q53 6 99.5 19.5t114.5 56.5
t151 126q3 2 6 -0.5t0 -5.5q-84 -84 -153 -127.5t-116.5 -57t-100.5 -19.5q-44 -4 -66.5 -14t-40.5 -43q-22 -36 -22 -134q0 -34 4 -106l1 -35q2 -40 2 -59q0 -56 -8 -87q-6 -22 -15 -33t-25 -11q-35 0 -44.5 33t-9.5 83q4 78 36 205z" />
    <glyph glyph-name="r" unicode="r" horiz-adv-x="479" 
d="M-24 492q0 27 12 44q11 17 25 24q10 5 22 9l9 1q5 0 11 -2q12 -5 13 -14q4 -13 -17 -53q-12 -25 -44 -67q10 -18 39 -58q7 -10 7 -28q0 -27 -15.5 -65t-44.5 -97q-53 -102 -53 -138q0 -15 9 -21q5 -4 16 -4q28 0 77 29t119 81q97 75 191 165.5t127 141.5q2 3 5.5 0.5
t1.5 -5.5q-36 -52 -130.5 -143.5t-189.5 -164.5q-145 -112 -202 -112q-11 0 -19 5q-15 9 -15 31q0 23 12 55t37 85q26 58 39 93.5t13 60.5q0 18 -6 26q-16 21 -31 50q0 1 -7 16q-11 31 -11 55zM55 541q0 10 -11 13q-10 2 -15 1t-10 -3.5t-8 -3.5q-9 -6 -16 -16
q-11 -18 -11 -36q0 -21 17 -52q1 0 1 -1q0 -2 1 -2q29 38 40 62l8 20q4 14 4 18z" />
    <glyph glyph-name="s" unicode="s" horiz-adv-x="465" 
d="M66 485q-23 -16 -38 -36.5t-15 -43.5q0 -16 7.5 -37t22.5 -55q14 12 43.5 18.5t84.5 13.5q100 14 171 33t123 62q3 3 5.5 -0.5t-0.5 -5.5q-53 -44 -124.5 -63.5t-172.5 -33.5q-55 -7 -84.5 -13.5t-42.5 -17.5q15 -30 20 -54v-5q0 -14 -13 -14q-5 0 -8 2q-6 5 -12 12
q-3 5 -5 18q-1 3 -1 9q0 12 6 27l-2 5q-18 34 -29 59.5t-11 43.5q0 24 16.5 45t40.5 36q21 12 42 19q11 4 23 4q11 0 17 -4.5t6 -12.5q0 -10 -10 -26q-14 -21 -34 -43q-4 -4 -6 0q-3 2 0 5q19 21 33 42q8 14 8 21q0 10 -12 10q-8 0 -21 -5q-15 -7 -28 -15zM38 292
q-5 -14 -3 -26q1 -9 6 -15q1 -3 7 -9l5 -1q2 0 3.5 2t0.5 5q-1 13 -19 44z" />
    <glyph glyph-name="t" unicode="t" horiz-adv-x="420" 
d="M-127 639q0 4 4 4h211q92 192 131 253q2 1 7 2t10 1q11 0 6 -7q-18 -30 -54 -97.5t-77 -151.5h227q4 0 4 -4t-4 -4h-231q-92 -194 -146 -327q-126 -317 -126 -465q0 -89 46 -118q15 -9 33 -9q53 0 122 75.5t144 198.5q54 89 100.5 177.5t105.5 204.5l34 67q2 4 5.5 2
t1.5 -6l-22 -43q-3 -8 -11 -24q-112 -223 -207 -383q-171 -277 -274 -277q-20 0 -36 10q-50 31 -50 131q0 153 118 462q64 167 140 324h-208q-4 0 -4 4z" />
    <glyph glyph-name="u" unicode="u" horiz-adv-x="571" 
d="M-36 299q6 44 24 104l8 30q13 48 13 63q0 2 4 3.5t9 1.5q10 0 10 -5q-1 -35 -28 -104q-30 -88 -30 -117q0 -14 5 -21.5t14 -7.5q14 0 31 15q26 22 58 72t58 101q3 7 8.5 23t10.5 25q9 17 15 17q2 0 2 -4q0 -7 -5 -17l-20 -41l-4 -7q-6 -17 -15 -61q-5 -27 -5 -43
q0 -28 11 -37q13 -11 39 -11q48 0 131.5 29t160.5 68.5t102 64.5q3 3 5.5 0t-0.5 -6q-27 -26 -103.5 -65.5t-160 -69t-134.5 -29.5q-31 0 -45 13q-13 12 -13 43q0 17 5 44q2 20 5 28q-60 -110 -103 -143q-19 -16 -36 -16q-13 0 -21 11.5t-7 34.5z" />
    <glyph glyph-name="v" unicode="v" horiz-adv-x="560" 
d="M-40 280q0 22 7.5 53t21.5 77q17 54 25 87q0 1 4 2.5t9 1.5q12 0 10 -6q-8 -36 -35 -110q-16 -43 -24 -69.5t-8 -43.5q0 -25 15 -25q8 0 18 8q39 29 135 178l14 23q3 12 9 23q5 9 10 14.5t8 5.5q2 0 2 -3q0 -7 -8 -20l-13 -23l-2 -11q-2 -41 35 -58q24 -10 72 -10
q75 0 168.5 21.5t126.5 45.5l2 1q2 0 3.5 -3.5t-0.5 -4.5q-33 -24 -128 -46.5t-171 -22.5q-50 0 -78 12q-18 8 -27.5 24t-10.5 37q-3 -7 -5 -9q-35 -57 -73 -108t-65 -71q-11 -10 -24 -10q-15 0 -21 21q-2 12 -2 19z" />
    <glyph glyph-name="w" unicode="w" horiz-adv-x="659" 
d="M36 501q14 0 10 -7q-12 -19 -26.5 -57t-25.5 -78q-11 -44 -11 -74q0 -18 6 -28.5t16 -10.5q11 0 23 11q32 29 68 148l9 26q3 3 13 3t10 -5q-13 -91 -13 -115q0 -25 10 -25q5 0 18 10q23 17 68 88q15 23 32 56q1 1 1 6q4 27 16 44q5 8 10 8q6 0 2 -11q-6 -20 -21 -47
q-1 -4 -1 -12q0 -18 9 -32q17 -26 93 -26q51 0 116 11t119 27.5t72 29.5q3 2 5 -1.5t-1 -5.5q-18 -14 -71.5 -30.5t-119.5 -27.5t-118 -11q-84 0 -102 29q-7 15 -9 33l-25 -44q-38 -61 -70 -90q-15 -12 -25 -12q-17 0 -23 32q-2 18 -2 33q0 11 2 47q-12 -42 -29.5 -82
t-37.5 -60q-13 -13 -28 -13q-11 0 -19.5 9t-12.5 25q-2 7 -2 25q0 45 17 108t34 93q0 3 14 3z" />
    <glyph glyph-name="x" unicode="x" horiz-adv-x="488" 
d="M41 355l-8 12l-69 -63q-26 -24 -46.5 -42.5t-28.5 -20.5q-4 -2 -5.5 1.5t2.5 5.5q6 2 24.5 18t24.5 22l24 22l70 64q-20 35 -32.5 71t-12.5 59q0 4 12 4t12 -4q0 -21 9 -54t24 -66q128 113 187 119q4 1 4.5 -3.5t-3.5 -4.5q-58 -6 -185 -118l12 -21q33 -57 69 -66
q10 -2 18 -2q43 0 116.5 26.5t140 63t88.5 62.5q3 3 5.5 0t0.5 -5q-22 -27 -88.5 -64t-141.5 -64t-119 -27q-9 0 -21 2q-40 9 -83 73z" />
    <glyph glyph-name="y" unicode="y" horiz-adv-x="606" 
d="M194 436q0 -55 -11 -137q34 15 70 24t101 22q94 19 152.5 38.5t99.5 56.5q3 3 5.5 0t-0.5 -6q-42 -39 -103 -59.5t-152 -37.5q-60 -11 -100 -21.5t-74 -25.5q-13 -95 -43 -223q-46 -192 -117.5 -398.5t-155.5 -379.5q-74 -154 -153 -263t-153 -152q-43 -23 -83 -23
q-50 0 -85 34q-38 37 -38 107q0 52 20 123q38 134 160 353q95 168 219.5 343.5t232 304t150.5 158.5l24 14q11 74 11 142q0 35 -2 50q-37 -80 -87 -161t-89 -81q-2 0 -3 1h-5q-22 8 -22 43q0 38 25 121q7 21 14 49.5t7 43.5q0 2 4 3.5t9 1.5q10 0 10 -5q-1 -16 -7.5 -40.5
t-12.5 -40.5t-8 -23q-17 -51 -24 -75.5t-7 -42.5q0 -24 16 -27l1 -1h1q31 -2 72 60.5t84 149.5l17 32l3 8q3 4 9 4q5 0 9 -1.5t5 -3.5q4 -23 4 -59zM-152 -719q81 165 149.5 366.5t115.5 396.5q29 121 46 234q-6 -3 -10 -6t-8 -5q-42 -28 -148.5 -155.5t-231 -303.5
t-220.5 -344q-119 -211 -159 -351q-20 -69 -20 -121q0 -67 36 -102q31 -31 79 -31q42 0 78 22q136 78 293 400z" />
    <glyph glyph-name="z" unicode="z" horiz-adv-x="583" 
d="M189 457q0 -11 -7 -30q-13 -26 -39 -55.5t-63 -65.5l-19.5 -19.5t-22 -24t-6.5 -11.5q0 -1 9 0q5 1 14 1q46 4 67 -30q11 -20 11 -48q0 -7 -2 -25q62 41 189 119q6 4 14.5 9t17.5 11l53 33q13 8 61 37.5t76 49t41 32.5q3 3 5.5 0t-0.5 -6q-23 -20 -72.5 -52.5
t-141.5 -89.5l-18 -11q-118 -71 -226 -142v-1q-12 -59 -37 -112q-15 -35 -50 -93.5t-80.5 -115.5t-90.5 -86q-34 -22 -67 -22q-31 0 -51.5 18t-20.5 48q0 23 12 46q34 63 127.5 141t232.5 171l3 14q3 20 3 36q0 26 -9 39q-12 23 -48 23q-2 -1 -11 -1v-1l-8 -1q-14 0 -16 10
q-1 9 12.5 26t40.5 46q22 24 45.5 50t35.5 47q16 26 16 44t-17 29q-7 4 -18.5 -1t-25 -12.5t-17.5 -10.5q-6 -4 -29 -17q-36 -19 -58 -19q-30 0 -49 33q-2 4 1.5 6t5.5 -2q17 -30 44 -30q23 0 52 19q23 13 29 17q22 14 34.5 20.5t23.5 6.5q6 0 10 -3q34 -16 34 -44zM102 121
q-287 -189 -350 -304q-11 -21 -11 -41q0 -26 17.5 -42t44.5 -16q32 0 62 22q59 44 119.5 139t89.5 160q16 38 28 82z" />
    <glyph glyph-name="braceleft" unicode="{" horiz-adv-x="332" 
d="M66 21q-43 6 -43 55q0 6 2 24q3 28 13.5 59.5t32.5 90.5q22 61 30.5 88.5t8.5 46.5q-10 -10 -24 -12q-3 -1 -9 -1q-11 0 -18 6t-7 14q0 10 10 17t28 6q17 0 24 -13q10 19 14.5 47t12.5 90q8 74 16.5 118.5t31.5 77t65 33.5q7 1 21 1q15 0 22 -1q5 0 3.5 -3.5t-5.5 -2.5
q-26 0 -41 -5q-29 -11 -47.5 -44t-28.5 -72.5t-21 -102.5q-9 -57 -17.5 -91.5t-23.5 -53.5q2 -8 2 -11q1 -21 -6.5 -51t-23.5 -81q-19 -66 -27.5 -99.5t-8.5 -62.5q0 -27 9.5 -41.5t31.5 -18.5q4 -1 12 -1q9 0 14 1q3 0 2.5 -3t-3.5 -4q-8 -1 -27 -1zM85 409q-13 0 -20 -5
t-7 -12q0 -6 5 -10.5t14 -4.5q6 0 9 1q15 6 22 15q-3 16 -23 16z" />
    <glyph glyph-name="bar" unicode="|" horiz-adv-x="110" 
d="M42 381h10v-373h-10v373z" />
    <glyph glyph-name="braceright" unicode="}" horiz-adv-x="374" 
d="M256 768q43 -6 43 -55q0 -6 -2 -24q-3 -28 -13.5 -59.5t-32.5 -90.5q-22 -61 -30.5 -88.5t-8.5 -46.5q11 11 24 12q3 1 9 1q11 0 18 -6t7 -14q0 -10 -10 -17t-28 -6q-17 0 -24 13q-10 -19 -14.5 -47t-12.5 -90q-8 -74 -16.5 -118.5t-31.5 -77t-65 -33.5l-22 -1l-21 1
q-5 0 -3.5 3.5t5.5 2.5q26 0 41 5q29 11 47.5 44t28.5 73t21 102q9 57 17.5 91.5t23.5 53.5q-2 8 -2 11q-1 21 6.5 51t23.5 81q19 66 27.5 99.5t8.5 62.5q0 27 -9.5 41.5t-31.5 18.5q-6 2 -12 2q-4 0 -14 -2q-3 0 -2.5 3t3.5 4q8 1 27 1zM237 380q13 0 20 5t7 12
q0 6 -5.5 10.5t-14.5 4.5q-5 0 -8 -1q-15 -6 -22 -15q3 -16 23 -16z" />
    <glyph glyph-name="asciitilde" unicode="~" horiz-adv-x="232" 
d="M26 729q9 8 16.5 13t14.5 5q14 0 39 -15q24 -14 37 -16q25 0 58 25q2 3 5 0t0 -4q-39 -32 -66 -32q-12 0 -41 17q-21 12 -34 12q-10 0 -17.5 -4.5t-13.5 -10t-9 -7.5q-2 -2 -4 0.5t-1 3.5z" />
    <glyph glyph-name="uni007F" 
 />
    <glyph glyph-name="exclamdown" unicode="&#xa1;" horiz-adv-x="269" 
d="M104 330h58l25 -512h-108zM196 478q0 -33 -16 -50t-46 -17t-46 17t-16 50q0 32 16.5 50t45.5 18t45.5 -17.5t16.5 -50.5z" />
    <glyph glyph-name="cent" unicode="&#xa2;" horiz-adv-x="571" 
d="M476 117q-55 -28 -124 -30v-97h-67v100q-100 15 -147 82.5t-47 189.5q0 248 194 278v84h68v-80q74 -3 132 -29l-26 -73q-70 26 -119 26q-82 0 -120.5 -51t-38.5 -154q0 -104 39 -151.5t116 -47.5q43 0 76 8.5t64 21.5v-77z" />
    <glyph glyph-name="sterling" unicode="&#xa3;" horiz-adv-x="571" 
d="M334 723q93 0 177 -41l-31 -70q-82 38 -144 38q-57 0 -87 -29.5t-30 -95.5v-139h204v-66h-204v-104q0 -47 -15.5 -80.5t-52.5 -55.5h384v-80h-503v74q99 23 99 141v105h-96v66h96v148q0 88 55 138.5t148 50.5z" />
    <glyph glyph-name="currency" unicode="&#xa4;" horiz-adv-x="571" 
d="M90 353q0 57 35 110l-66 68l49 47l66 -64q49 35 112 35q59 0 110 -35l67 64l48 -47l-64 -67q35 -54 35 -111q0 -63 -35 -112l63 -66l-47 -47l-67 64q-50 -34 -110 -34q-64 0 -112 35l-66 -64l-48 47l65 66q-35 53 -35 111zM157 353q0 -54 37.5 -91.5t91.5 -37.5t92 37
t38 92q0 56 -38 93.5t-92 37.5t-91.5 -38t-37.5 -93z" />
    <glyph glyph-name="yen" unicode="&#xa5;" horiz-adv-x="571" 
d="M285 365l179 349h92l-201 -375h124v-64h-151v-82h151v-64h-151v-129h-86v129h-151v64h151v82h-151v64h122l-199 375h93z" />
    <glyph glyph-name="brokenbar" unicode="&#xa6;" horiz-adv-x="550" 
d="M239 760h73v-381h-73v381zM239 140h73v-381h-73v381z" />
    <glyph glyph-name="section" unicode="&#xa7;" horiz-adv-x="513" 
d="M67 395q0 42 21 75t58 51q-36 20 -56 47t-20 68q0 60 50.5 94.5t146.5 34.5q45 0 82 -7t89 -27l-27 -67q-47 19 -80.5 26t-69.5 7q-56 0 -82.5 -14.5t-26.5 -44.5q0 -27 28 -47.5t104 -47.5q89 -33 126 -70t37 -90q0 -88 -75 -133q74 -39 74 -110q0 -69 -57.5 -107
t-160.5 -38t-169 33v75q42 -19 88.5 -30t84.5 -11q62 0 96 18t34 53q0 30 -26 49t-103 49q-96 36 -131 72.5t-35 91.5zM142 405q0 -25 13 -43.5t43 -35.5t109 -47q64 37 64 91q0 40 -34 66.5t-123 54.5q-32 -9 -52 -33t-20 -53z" />
    <glyph glyph-name="dieresis" unicode="&#xa8;" horiz-adv-x="250" 
d="M114 617q3 0 6.5 -2t4.5 -3l-6 -45q-2 -5 -7.5 -5.5t-6.5 4.5l2 47q3 4 7 4zM144 614q4 0 7.5 -2t4.5 -3l-6 -45q-1 -6 -8 -6q-5 0 -7 4l3 48q1 4 6 4z" />
    <glyph glyph-name="copyright" unicode="&#xa9;" horiz-adv-x="832" 
d="M436 515q-58 0 -91 -41.5t-33 -116.5q0 -77 28.5 -118t94.5 -41q46 0 105 23v-64q-29 -13 -53 -18.5t-56 -5.5q-94 0 -145.5 58.5t-51.5 165.5q0 102 54 162.5t147 60.5q63 0 123 -30l-29 -61q-52 26 -93 26zM49 357q0 98 48.5 183t134 134.5t184.5 49.5q98 0 183.5 -49
t134.5 -134t49 -184q0 -96 -47.5 -180.5t-132.5 -135.5t-187 -51q-101 0 -186.5 50.5t-133 135t-47.5 181.5zM102 357q0 -84 42 -157t115 -115t157 -42t157 42t115 115t42 157t-42 156.5t-115 115t-157 42.5t-156.5 -42t-115 -115t-42.5 -157z" />
    <glyph glyph-name="ordfeminine" unicode="&#xaa;" horiz-adv-x="356" 
d="M261 389l-12 42q-46 -48 -114 -48q-47 0 -75 24.5t-28 74.5t38.5 76t119.5 29l56 2v22q0 30 -19 44.5t-52 14.5q-49 0 -101 -26q-13 30 -22 49q60 29 125 29t98 -27t33 -86v-220h-47zM96 482q0 -48 54 -48q96 0 96 87v23l-48 -2q-54 -2 -78 -16t-24 -44z" />
    <glyph glyph-name="guillemotleft" unicode="&#xab;" horiz-adv-x="508" 
d="M40 270l168 201l63 -36l-140 -171l140 -171l-63 -37l-168 201v13zM238 270l170 201l62 -36l-140 -171l140 -171l-62 -37l-170 201v13z" />
    <glyph glyph-name="logicalnot" unicode="&#xac;" horiz-adv-x="571" 
d="M520 388v-260h-71v189h-399v71h470z" />
    <glyph glyph-name="uni00AD" unicode="&#xad;" horiz-adv-x="321" 
d="M40 229v78h242v-78h-242z" />
    <glyph glyph-name="registered" unicode="&#xae;" horiz-adv-x="832" 
d="M355 373h50q40 0 61.5 19.5t21.5 51.5q0 36 -20 51.5t-64 15.5h-49v-138zM565 446q0 -41 -21 -70.5t-57 -43.5l116 -194h-86l-100 173h-62v-173h-76v437h128q82 0 120 -32t38 -97zM49 357q0 98 48.5 183t134 134.5t184.5 49.5q98 0 183.5 -49t134.5 -134t49 -184
q0 -96 -47.5 -180.5t-132.5 -135.5t-187 -51q-101 0 -186.5 50.5t-133 135t-47.5 181.5zM102 357q0 -84 42 -157t115 -115t157 -42t157 42t115 115t42 157t-42 156.5t-115 115t-157 42.5t-156.5 -42t-115 -115t-42.5 -157z" />
    <glyph glyph-name="macron" unicode="&#xaf;" horiz-adv-x="339" 
d="M108 393h-73v7h73v-7z" />
    <glyph glyph-name="degree" unicode="&#xb0;" horiz-adv-x="428" 
d="M60 570q0 66 45 110t109 44q65 0 109.5 -45t44.5 -109t-45 -108.5t-109 -44.5q-63 0 -108.5 44t-45.5 109zM120 570q0 -39 28 -66.5t67 -27.5q40 0 66.5 28t26.5 66q0 39 -27 66.5t-66 27.5t-67 -27t-28 -67z" />
    <glyph glyph-name="plusminus" unicode="&#xb1;" horiz-adv-x="571" 
d="M321 391h199v-71h-199v-206h-72v206h-199v71h199v207h72v-207zM50 0v71h470v-71h-470z" />
    <glyph glyph-name="uni00B2" unicode="&#xb2;" 
d="M306 286h-282v54l115 112q62 60 79.5 87.5t17.5 61.5q0 32 -18.5 48t-48.5 16t-54.5 -11.5t-50.5 -31.5l-35 46q65 55 141 55q64 0 100.5 -32t36.5 -86q0 -22 -6 -41.5t-18.5 -39.5t-33 -42.5t-138.5 -133.5h195v-62z" />
    <glyph glyph-name="uni00B3" unicode="&#xb3;" 
d="M308 613q0 -74 -74 -102q87 -21 87 -102q0 -62 -45 -96.5t-128 -34.5q-74 0 -131 28v63q69 -34 132 -34q100 0 100 76q0 69 -110 69h-57v55h57q50 0 73.5 19t23.5 51q0 29 -19 45t-51 16q-51 0 -111 -38l-36 46q36 27 71 38t75 11q66 0 104.5 -29.5t38.5 -80.5z" />
    <glyph glyph-name="acute" unicode="&#xb4;" horiz-adv-x="277" 
d="M97 556.5q-2 2.5 1 4.5l76 86h1q4 0 6 -12t0 -15l-80 -64q-2 -2 -4 0.5z" />
    <glyph glyph-name="mu" unicode="&#xb5;" horiz-adv-x="623" 
d="M173 190q0 -127 120 -127q83 0 120 45.5t37 148.5v279h88v-536h-71l-14 72h-5q-53 -82 -161 -82q-71 0 -115 45h-4q5 -36 5 -119v-156h-88v776h88v-346z" />
    <glyph glyph-name="paragraph" unicode="&#xb6;" horiz-adv-x="654" 
d="M549 -127h-58v831h-102v-831h-58v400q-30 -9 -71 -9q-105 0 -155 61t-50 184q0 127 53.5 189t166.5 62h274v-887z" />
    <glyph glyph-name="periodcentered" unicode="&#xb7;" horiz-adv-x="268" 
d="M72 353q0 32 16 50t45 18q30 0 46.5 -18.5t16.5 -49.5t-16.5 -49.5t-46.5 -18.5q-29 0 -45 18t-16 50z" />
    <glyph glyph-name="cedilla" unicode="&#xb8;" horiz-adv-x="239" 
d="M142 -90v33h-28v56h9v-46h27v-50h-61v7h53z" />
    <glyph glyph-name="uni00B9" unicode="&#xb9;" 
d="M167 714h73v-428h-71v276q0 33 4 89q-15 -14 -26.5 -23t-74.5 -55l-35 49z" />
    <glyph glyph-name="ordmasculine" unicode="&#xba;" horiz-adv-x="375" 
d="M345 553q0 -80 -42 -125t-116 -45q-71 0 -113 45t-42 125q0 81 41 125t116 44q73 0 114.5 -44.5t41.5 -124.5zM95 553q0 -59 21.5 -88t71.5 -29q49 0 71 29t22 88t-22 87.5t-71 28.5t-71 -28.5t-22 -87.5z" />
    <glyph glyph-name="guillemotright" unicode="&#xbb;" horiz-adv-x="508" 
d="M469 257l-170 -201l-62 37l140 171l-140 171l62 36l170 -201v-13zM270 257l-169 -201l-62 37l140 171l-140 171l62 36l169 -201v-13z" />
    <glyph glyph-name="onequarter" unicode="&#xbc;" horiz-adv-x="790" 
d="M736 96h-61v-96h-75v96h-195v52l197 283h73v-275h61v-60zM600 156v93q0 52 3 101q-4 -9 -48 -77l-80 -117h125zM637 714l-436 -714h-75l436 714h75zM165 714h73v-428h-71v276q0 33 4 89q-15 -14 -26.5 -23t-74.5 -55l-35 49z" />
    <glyph glyph-name="onehalf" unicode="&#xbd;" horiz-adv-x="790" 
d="M607 714l-436 -714h-75l436 714h75zM152 714h73v-428h-71v276q0 33 4 89q-15 -14 -26.5 -23t-74.5 -55l-35 49zM727 0h-282v54l115 112q62 60 79.5 87.5t17.5 61.5q0 32 -18.5 48t-48.5 16t-54.5 -11.5t-50.5 -31.5l-35 46q65 55 141 55q64 0 100.5 -32t36.5 -86
q0 -22 -6 -41.5t-18.5 -39.5t-33 -42.5t-138.5 -133.5h195v-62z" />
    <glyph glyph-name="threequarters" unicode="&#xbe;" horiz-adv-x="790" 
d="M772 96h-61v-96h-75v96h-195v52l197 283h73v-275h61v-60zM636 156v93q0 52 3 101q-4 -9 -48 -77l-80 -117h125zM681 714l-436 -714h-75l436 714h75zM307 613q0 -74 -74 -102q87 -21 87 -102q0 -62 -45 -96.5t-128 -34.5q-74 0 -131 28v63q69 -34 132 -34q100 0 100 76
q0 69 -110 69h-57v55h57q50 0 73.5 19t23.5 51q0 29 -19 45t-51 16q-51 0 -111 -38l-36 46q36 27 71 38t75 11q66 0 104.5 -29.5t38.5 -80.5z" />
    <glyph glyph-name="questiondown" unicode="&#xbf;" horiz-adv-x="434" 
d="M294 330v-26q0 -57 -18 -93.5t-67 -77.5q-65 -54 -82 -81t-17 -68q0 -47 31 -73.5t89 -26.5q78 0 161 43l31 -71q-97 -48 -195 -48q-95 0 -148.5 45.5t-53.5 128.5q0 36 9.5 63.5t29.5 52.5t79 75q50 44 65 71t15 70v16h71zM317 478q0 -67 -62 -67q-30 0 -45.5 17.5
t-15.5 49.5q0 36 17.5 52t43.5 16t44 -16t18 -52z" />
    <glyph glyph-name="Agrave" unicode="&#xc0;" horiz-adv-x="1599" 
d="M-86 252q-5 2 -1 5q1 5 5 1q51 -38 129 -38q76 0 176.5 32.5t204.5 81.5t272 133q107 56 226 112q127 286 285 666l24 57q124 297 197.5 462t136.5 268t104 99v-1q49 -4 49 -108q0 -26 -3 -56q-9 -108 -48.5 -274.5t-118.5 -461.5q4 14 -32 -120q-40 -146 -94 -350
q75 13 132 13q128 0 222 -57h1q2 -2 1 -5q-1 -4 -5 -2q-83 47 -196 47q-71 0 -161 -19q-109 -416 -176.5 -764.5t-75.5 -614.5l-1 -46q0 -270 80 -422t261 -163h3q1 -1 6 -1h20q4 0 4 -4t-4 -4h-19q-7 0 -8 1h-1q-193 9 -278.5 171t-85.5 447q0 267 65.5 616.5t176.5 776.5
q-103 -25 -217 -70t-247 -108q-248 -553 -473.5 -889t-432.5 -358q-4 0 -4 4q-1 4 3 4q202 22 427 356t469 878l-41 -19q-23 -11 -58.5 -28t-82.5 -41q-177 -86 -283.5 -133.5t-210.5 -80.5t-184 -33q-48 0 -82 11h-1q-34 12 -55 29zM1178.5 688.5q112.5 42.5 214.5 64.5
q53 209 118 443l24 89q77 284 116.5 445t49.5 260q3 33 3 57q0 76 -34 76q-39 0 -104.5 -111.5t-146.5 -294t-201 -475.5q-181 -434 -281 -658q129 62 241.5 104.5zM1643 2245q0 8 2.5 14.5t5.5 5.5l76 -86q3 -2 1 -4.5t-4 -0.5l-80 64q-1 1 -1 7z" />
    <glyph glyph-name="Aacute" unicode="&#xc1;" horiz-adv-x="1599" 
d="M-86 252q-5 2 -1 5q1 5 5 1q51 -38 129 -38q76 0 176.5 32.5t204.5 81.5t272 133q107 56 226 112q127 286 285 666l24 57q124 297 197.5 462t136.5 268t104 99v-1q49 -4 49 -108q0 -26 -3 -56q-9 -108 -48.5 -274.5t-118.5 -461.5q4 14 -32 -120q-40 -146 -94 -350
q75 13 132 13q128 0 222 -57h1q2 -2 1 -5q-1 -4 -5 -2q-83 47 -196 47q-71 0 -161 -19q-109 -416 -176.5 -764.5t-75.5 -614.5l-1 -46q0 -270 80 -422t261 -163h3q1 -1 6 -1h20q4 0 4 -4t-4 -4h-19q-7 0 -8 1h-1q-193 9 -278.5 171t-85.5 447q0 267 65.5 616.5t176.5 776.5
q-103 -25 -217 -70t-247 -108q-248 -553 -473.5 -889t-432.5 -358q-4 0 -4 4q-1 4 3 4q202 22 427 356t469 878l-41 -19q-23 -11 -58.5 -28t-82.5 -41q-177 -86 -283.5 -133.5t-210.5 -80.5t-184 -33q-48 0 -82 11h-1q-34 12 -55 29zM1178.5 688.5q112.5 42.5 214.5 64.5
q53 209 118 443l24 89q77 284 116.5 445t49.5 260q3 33 3 57q0 76 -34 76q-39 0 -104.5 -111.5t-146.5 -294t-201 -475.5q-181 -434 -281 -658q129 62 241.5 104.5zM1642 2175.5q-2 2.5 1 4.5l76 86h1q4 0 6 -12t0 -15l-80 -64q-2 -2 -4 0.5z" />
    <glyph glyph-name="Acircumflex" unicode="&#xc2;" horiz-adv-x="1599" 
d="M-86 252q-5 2 -1 5q1 5 5 1q51 -38 129 -38q76 0 176.5 32.5t204.5 81.5t272 133q107 56 226 112q127 286 285 666l24 57q124 297 197.5 462t136.5 268t104 99v-1q49 -4 49 -108q0 -26 -3 -56q-9 -108 -48.5 -274.5t-118.5 -461.5q4 14 -32 -120q-40 -146 -94 -350
q75 13 132 13q128 0 222 -57h1q2 -2 1 -5q-1 -4 -5 -2q-83 47 -196 47q-71 0 -161 -19q-109 -416 -176.5 -764.5t-75.5 -614.5l-1 -46q0 -270 80 -422t261 -163h3q1 -1 6 -1h20q4 0 4 -4t-4 -4h-19q-7 0 -8 1h-1q-193 9 -278.5 171t-85.5 447q0 267 65.5 616.5t176.5 776.5
q-103 -25 -217 -70t-247 -108q-248 -553 -473.5 -889t-432.5 -358q-4 0 -4 4q-1 4 3 4q202 22 427 356t469 878l-41 -19q-23 -11 -58.5 -28t-82.5 -41q-177 -86 -283.5 -133.5t-210.5 -80.5t-184 -33q-48 0 -82 11h-1q-34 12 -55 29zM1178.5 688.5q112.5 42.5 214.5 64.5
q53 209 118 443l24 89q77 284 116.5 445t49.5 260q3 33 3 57q0 76 -34 76q-39 0 -104.5 -111.5t-146.5 -294t-201 -475.5q-181 -434 -281 -658q129 62 241.5 104.5zM1611 2175.5q-2 2.5 1 4.5l76 86h3l76 -86q3 -2 1 -4.5t-4 -0.5l-75 59l-74 -59q-2 -2 -4 0.5z" />
    <glyph glyph-name="Atilde" unicode="&#xc3;" horiz-adv-x="1599" 
d="M-86 252q-5 2 -1 5q1 5 5 1q51 -38 129 -38q76 0 176.5 32.5t204.5 81.5t272 133q107 56 226 112q127 286 285 666l24 57q124 297 197.5 462t136.5 268t104 99v-1q49 -4 49 -108q0 -26 -3 -56q-9 -108 -48.5 -274.5t-118.5 -461.5q4 14 -32 -120q-40 -146 -94 -350
q75 13 132 13q128 0 222 -57h1q2 -2 1 -5q-1 -4 -5 -2q-83 47 -196 47q-71 0 -161 -19q-109 -416 -176.5 -764.5t-75.5 -614.5l-1 -46q0 -270 80 -422t261 -163h3q1 -1 6 -1h20q4 0 4 -4t-4 -4h-19q-7 0 -8 1h-1q-193 9 -278.5 171t-85.5 447q0 267 65.5 616.5t176.5 776.5
q-103 -25 -217 -70t-247 -108q-248 -553 -473.5 -889t-432.5 -358q-4 0 -4 4q-1 4 3 4q202 22 427 356t469 878l-41 -19q-23 -11 -58.5 -28t-82.5 -41q-177 -86 -283.5 -133.5t-210.5 -80.5t-184 -33q-48 0 -82 11h-1q-34 12 -55 29zM1178.5 688.5q112.5 42.5 214.5 64.5
q53 209 118 443l24 89q77 284 116.5 445t49.5 260q3 33 3 57q0 76 -34 76q-39 0 -104.5 -111.5t-146.5 -294t-201 -475.5q-181 -434 -281 -658q129 62 241.5 104.5zM1610 2197q9 8 16.5 13t14.5 5q14 0 39 -15q24 -14 37 -16q25 0 58 25q2 3 5 0t0 -4q-39 -32 -66 -32
q-12 0 -41 17q-21 12 -34 12q-10 0 -17.5 -4.5t-13.5 -10t-9 -7.5q-2 -2 -4 0.5t-1 3.5z" />
    <glyph glyph-name="Adieresis" unicode="&#xc4;" horiz-adv-x="1599" 
d="M-86 252q-5 2 -1 5q1 5 5 1q51 -38 129 -38q76 0 176.5 32.5t204.5 81.5t272 133q107 56 226 112q127 286 285 666l24 57q124 297 197.5 462t136.5 268t104 99v-1q49 -4 49 -108q0 -26 -3 -56q-9 -108 -48.5 -274.5t-118.5 -461.5q4 14 -32 -120q-40 -146 -94 -350
q75 13 132 13q128 0 222 -57h1q2 -2 1 -5q-1 -4 -5 -2q-83 47 -196 47q-71 0 -161 -19q-109 -416 -176.5 -764.5t-75.5 -614.5l-1 -46q0 -270 80 -422t261 -163h3q1 -1 6 -1h20q4 0 4 -4t-4 -4h-19q-7 0 -8 1h-1q-193 9 -278.5 171t-85.5 447q0 267 65.5 616.5t176.5 776.5
q-103 -25 -217 -70t-247 -108q-248 -553 -473.5 -889t-432.5 -358q-4 0 -4 4q-1 4 3 4q202 22 427 356t469 878l-41 -19q-23 -11 -58.5 -28t-82.5 -41q-177 -86 -283.5 -133.5t-210.5 -80.5t-184 -33q-48 0 -82 11h-1q-34 12 -55 29zM1178.5 688.5q112.5 42.5 214.5 64.5
q53 209 118 443l24 89q77 284 116.5 445t49.5 260q3 33 3 57q0 76 -34 76q-39 0 -104.5 -111.5t-146.5 -294t-201 -475.5q-181 -434 -281 -658q129 62 241.5 104.5zM1663 2232q3 0 6.5 -2t4.5 -3l-6 -45q-2 -5 -7.5 -5.5t-6.5 4.5l2 47q3 4 7 4zM1693 2229q4 0 7.5 -2
t4.5 -3l-6 -45q-1 -6 -8 -6q-5 0 -7 4l3 48q1 4 6 4z" />
    <glyph glyph-name="Aring" unicode="&#xc5;" horiz-adv-x="1599" 
d="M-86 252q-5 2 -1 5q1 5 5 1q51 -38 129 -38q76 0 176.5 32.5t204.5 81.5t272 133q107 56 226 112q127 286 285 666l24 57q124 297 197.5 462t136.5 268t104 99v-1q49 -4 49 -108q0 -26 -3 -56q-9 -108 -48.5 -274.5t-118.5 -461.5q4 14 -32 -120q-40 -146 -94 -350
q75 13 132 13q128 0 222 -57h1q2 -2 1 -5q-1 -4 -5 -2q-83 47 -196 47q-71 0 -161 -19q-109 -416 -176.5 -764.5t-75.5 -614.5l-1 -46q0 -270 80 -422t261 -163h3q1 -1 6 -1h20q4 0 4 -4t-4 -4h-19q-7 0 -8 1h-1q-193 9 -278.5 171t-85.5 447q0 267 65.5 616.5t176.5 776.5
q-103 -25 -217 -70t-247 -108q-248 -553 -473.5 -889t-432.5 -358q-4 0 -4 4q-1 4 3 4q202 22 427 356t469 878l-41 -19q-23 -11 -58.5 -28t-82.5 -41q-177 -86 -283.5 -133.5t-210.5 -80.5t-184 -33q-48 0 -82 11h-1q-34 12 -55 29zM1178.5 688.5q112.5 42.5 214.5 64.5
q53 209 118 443l24 89q77 284 116.5 445t49.5 260q3 33 3 57q0 76 -34 76q-39 0 -104.5 -111.5t-146.5 -294t-201 -475.5q-181 -434 -281 -658q129 62 241.5 104.5zM1646.5 2192.5q11.5 11.5 27.5 11.5t27.5 -11.5t11.5 -27.5t-11.5 -27.5t-27.5 -11.5t-27.5 11.5
t-11.5 27.5t11.5 27.5zM1659.5 2148.5q6.5 -6.5 14.5 -6.5q9 0 16 6.5t7 14.5q0 10 -7 16.5t-16 6.5q-8 0 -14.5 -6.5t-6.5 -16.5q0 -8 6.5 -14.5z" />
    <glyph glyph-name="AE" unicode="&#xc6;" horiz-adv-x="3540" 
d="M1817 361q116 -146 430 -156q18 -1 54 -1q82 0 179 9l37 4h1q3 0 3.5 -3.5t-3.5 -4.5q-12 -3 -37 -5q-259 -34 -499 -174.5t-425 -341.5q-94 -103 -163.5 -211.5t-109.5 -213.5q-51 -130 -51 -237q0 -71 23 -131q36 -93 113 -136t177 -43q72 0 151 21q184 49 409.5 197.5
t467.5 364.5q211 190 409.5 406.5t345 411t211.5 323.5q2 4 5.5 2.5t1.5 -6.5q-65 -130 -211.5 -325t-345.5 -412t-411 -406q-241 -216 -468.5 -365t-412.5 -199q-75 -20 -150 -20q-86 0 -158 29.5t-119 92.5q-66 78 -96 206t-30 302q0 418 184 1163q-51 -3 -104 -3h-35
q-4 1 -4 5t4 3h35q53 0 106 3l56 220q-103 -25 -217 -70t-247 -108q-248 -553 -473.5 -889t-432.5 -358q-4 0 -4 4q-1 4 3 4q202 22 427 356t469 878l-41 -19q-23 -11 -58.5 -28t-82.5 -41q-177 -86 -283.5 -133.5t-210.5 -80.5t-184 -33q-48 0 -82 11h-1q-34 12 -55 29
q-5 2 -1 5q1 5 5 1q51 -38 129 -38q76 0 176.5 32.5t204.5 81.5t272 133q107 56 226 112q127 286 285 666l24 57q124 297 197.5 462t136.5 268t104 99v-1q49 -4 49 -108q0 -26 -3 -56q-9 -108 -48.5 -274.5t-118.5 -461.5q4 14 -32 -120q-40 -146 -94 -350q66 13 132 13
q106 0 188 -39l5 15q65 220 262 486q145 195 335 377t383.5 311t348.5 172q76 21 138 21q98 0 153 -49.5t55 -135.5q0 -85 -53 -190q-76 -150 -248 -333q-161 -170 -379.5 -332.5t-474.5 -294t-518 -204.5q-5 -128 64 -216zM2750 1912.5q-187 -128.5 -372.5 -309
t-331.5 -375.5q-200 -269 -264 -486q-26 -86 -29 -157q261 73 515.5 204t471.5 293t379 332q169 177 247 331q52 103 52 184q0 83 -52 131t-145 48q-62 0 -135 -22q-149 -45 -336 -173.5zM1167 -694q0 -206 46 -338q-6 34 -6 72q0 104 45 224q38 103 104.5 207.5
t155.5 203.5q173 193 405 334.5t486 189.5q-54 -3 -104 -3q-34 0 -51 1q-336 10 -457 165q-66 83 -68 207q-179 -47 -362 -64q-85 -342 -136 -631t-57 -516zM1178.5 688.5q112.5 42.5 214.5 64.5q53 209 118 443l24 89q77 284 116.5 445t49.5 260q3 33 3 57q0 76 -34 76
q-39 0 -104.5 -111.5t-146.5 -294t-201 -475.5q-181 -434 -281 -658q129 62 241.5 104.5zM1723 577q2 83 21 148q-71 30 -164 30q-76 0 -160 -18l-57 -224q180 16 360 64z" />
    <glyph glyph-name="Ccedilla" unicode="&#xc7;" horiz-adv-x="2099" 
d="M1498 1891.5q-202 -153.5 -405 -388t-386 -517.5q-159 -244 -289 -498t-219 -498q-78 -214 -120 -406t-42 -349q0 -59 6 -113q26 -212 124.5 -310t246.5 -98q105 0 224.5 44.5t234.5 119t210 165.5q244 230 503.5 592t512.5 809q2 4 5.5 2t1.5 -5
q-251 -446 -511.5 -809.5t-505.5 -594.5q-97 -92 -213.5 -166.5t-237 -118t-226.5 -43.5q-155 0 -258 101.5t-132 322.5q-7 55 -7 124q0 310 155 739q87 243 214 494.5t283 492.5q187 288 394 524.5t416 391t394 194.5q67 14 123 14q125 0 200 -64t75 -193q0 -11 -2 -37
q-17 -180 -160 -463q-2 -3 -5.5 -1.5t-1.5 5.5q142 279 159 460q2 26 2 37q0 124 -72.5 186t-192.5 62q-56 0 -121 -14q-175 -40 -377 -193.5zM431 -1377v33h-28v56h9v-46h27v-50h-61v7h53z" />
    <glyph glyph-name="Egrave" unicode="&#xc8;" horiz-adv-x="2331" 
d="M608 361q116 -146 430 -156q18 -1 54 -1q82 0 179 9l37 4h1q3 0 3.5 -3.5t-3.5 -4.5q-12 -3 -37 -5q-259 -34 -499 -174.5t-425 -341.5q-94 -103 -163.5 -211.5t-109.5 -213.5q-51 -130 -51 -237q0 -71 23 -131q36 -93 113 -136t177 -43q72 0 151 21q184 49 409.5 197.5
t467.5 364.5q211 190 409.5 406.5t345 411t211.5 323.5q2 4 5.5 2.5t1.5 -6.5q-65 -130 -211.5 -325t-345.5 -412t-411 -406q-241 -216 -468.5 -365t-412.5 -199q-74 -20 -149 -20q-108 0 -192.5 47t-124.5 146q-25 63 -25 139q0 104 45 223q38 103 104.5 207.5t155.5 203.5
q173 193 405 334.5t486 189.5q-54 -3 -104 -3q-34 0 -51 1q-336 10 -457 165q-66 83 -68 207q-283 -74 -533 -70q-4 1 -4 5t4 3q250 -4 533 70q2 89 28 172q65 220 262 486q145 195 335 377t383.5 311t348.5 172q76 21 138 21q98 0 153 -49.5t55 -135.5q0 -85 -53 -190
q-76 -150 -248 -333q-161 -170 -379.5 -332.5t-474.5 -294t-518 -204.5q-5 -128 64 -216zM1541 1912.5q-187 -128.5 -372.5 -309t-331.5 -375.5q-200 -269 -264 -486q-26 -86 -29 -157q261 73 515.5 204t471.5 293t379 332q169 177 247 331q52 103 52 184q0 83 -52 131
t-145 48q-62 0 -135 -22q-149 -45 -336 -173.5zM1998 2246q0 8 2.5 14.5t5.5 5.5l76 -86q3 -2 1 -4.5t-4 -0.5l-80 64q-1 1 -1 7z" />
    <glyph glyph-name="Eacute" unicode="&#xc9;" horiz-adv-x="2331" 
d="M608 361q116 -146 430 -156q18 -1 54 -1q82 0 179 9l37 4h1q3 0 3.5 -3.5t-3.5 -4.5q-12 -3 -37 -5q-259 -34 -499 -174.5t-425 -341.5q-94 -103 -163.5 -211.5t-109.5 -213.5q-51 -130 -51 -237q0 -71 23 -131q36 -93 113 -136t177 -43q72 0 151 21q184 49 409.5 197.5
t467.5 364.5q211 190 409.5 406.5t345 411t211.5 323.5q2 4 5.5 2.5t1.5 -6.5q-65 -130 -211.5 -325t-345.5 -412t-411 -406q-241 -216 -468.5 -365t-412.5 -199q-74 -20 -149 -20q-108 0 -192.5 47t-124.5 146q-25 63 -25 139q0 104 45 223q38 103 104.5 207.5t155.5 203.5
q173 193 405 334.5t486 189.5q-54 -3 -104 -3q-34 0 -51 1q-336 10 -457 165q-66 83 -68 207q-283 -74 -533 -70q-4 1 -4 5t4 3q250 -4 533 70q2 89 28 172q65 220 262 486q145 195 335 377t383.5 311t348.5 172q76 21 138 21q98 0 153 -49.5t55 -135.5q0 -85 -53 -190
q-76 -150 -248 -333q-161 -170 -379.5 -332.5t-474.5 -294t-518 -204.5q-5 -128 64 -216zM1541 1912.5q-187 -128.5 -372.5 -309t-331.5 -375.5q-200 -269 -264 -486q-26 -86 -29 -157q261 73 515.5 204t471.5 293t379 332q169 177 247 331q52 103 52 184q0 83 -52 131
t-145 48q-62 0 -135 -22q-149 -45 -336 -173.5zM2013 2175.5q-2 2.5 1 4.5l76 86h1q4 0 6 -12t0 -15l-80 -64q-2 -2 -4 0.5z" />
    <glyph glyph-name="Ecircumflex" unicode="&#xca;" horiz-adv-x="2331" 
d="M608 361q116 -146 430 -156q18 -1 54 -1q82 0 179 9l37 4h1q3 0 3.5 -3.5t-3.5 -4.5q-12 -3 -37 -5q-259 -34 -499 -174.5t-425 -341.5q-94 -103 -163.5 -211.5t-109.5 -213.5q-51 -130 -51 -237q0 -71 23 -131q36 -93 113 -136t177 -43q72 0 151 21q184 49 409.5 197.5
t467.5 364.5q211 190 409.5 406.5t345 411t211.5 323.5q2 4 5.5 2.5t1.5 -6.5q-65 -130 -211.5 -325t-345.5 -412t-411 -406q-241 -216 -468.5 -365t-412.5 -199q-74 -20 -149 -20q-108 0 -192.5 47t-124.5 146q-25 63 -25 139q0 104 45 223q38 103 104.5 207.5t155.5 203.5
q173 193 405 334.5t486 189.5q-54 -3 -104 -3q-34 0 -51 1q-336 10 -457 165q-66 83 -68 207q-283 -74 -533 -70q-4 1 -4 5t4 3q250 -4 533 70q2 89 28 172q65 220 262 486q145 195 335 377t383.5 311t348.5 172q76 21 138 21q98 0 153 -49.5t55 -135.5q0 -85 -53 -190
q-76 -150 -248 -333q-161 -170 -379.5 -332.5t-474.5 -294t-518 -204.5q-5 -128 64 -216zM1541 1912.5q-187 -128.5 -372.5 -309t-331.5 -375.5q-200 -269 -264 -486q-26 -86 -29 -157q261 73 515.5 204t471.5 293t379 332q169 177 247 331q52 103 52 184q0 83 -52 131
t-145 48q-62 0 -135 -22q-149 -45 -336 -173.5zM1959 2175.5q-2 2.5 1 4.5l76 86h3l76 -86q3 -2 1 -4.5t-4 -0.5l-75 59l-74 -59q-2 -2 -4 0.5z" />
    <glyph glyph-name="Edieresis" unicode="&#xcb;" horiz-adv-x="2331" 
d="M608 361q116 -146 430 -156q18 -1 54 -1q82 0 179 9l37 4h1q3 0 3.5 -3.5t-3.5 -4.5q-12 -3 -37 -5q-259 -34 -499 -174.5t-425 -341.5q-94 -103 -163.5 -211.5t-109.5 -213.5q-51 -130 -51 -237q0 -71 23 -131q36 -93 113 -136t177 -43q72 0 151 21q184 49 409.5 197.5
t467.5 364.5q211 190 409.5 406.5t345 411t211.5 323.5q2 4 5.5 2.5t1.5 -6.5q-65 -130 -211.5 -325t-345.5 -412t-411 -406q-241 -216 -468.5 -365t-412.5 -199q-74 -20 -149 -20q-108 0 -192.5 47t-124.5 146q-25 63 -25 139q0 104 45 223q38 103 104.5 207.5t155.5 203.5
q173 193 405 334.5t486 189.5q-54 -3 -104 -3q-34 0 -51 1q-336 10 -457 165q-66 83 -68 207q-283 -74 -533 -70q-4 1 -4 5t4 3q250 -4 533 70q2 89 28 172q65 220 262 486q145 195 335 377t383.5 311t348.5 172q76 21 138 21q98 0 153 -49.5t55 -135.5q0 -85 -53 -190
q-76 -150 -248 -333q-161 -170 -379.5 -332.5t-474.5 -294t-518 -204.5q-5 -128 64 -216zM1541 1912.5q-187 -128.5 -372.5 -309t-331.5 -375.5q-200 -269 -264 -486q-26 -86 -29 -157q261 73 515.5 204t471.5 293t379 332q169 177 247 331q52 103 52 184q0 83 -52 131
t-145 48q-62 0 -135 -22q-149 -45 -336 -173.5zM2024 2232q3 0 6.5 -2t4.5 -3l-6 -45q-2 -5 -7.5 -5.5t-6.5 4.5l2 47q3 4 7 4zM2054 2229q4 0 7.5 -2t4.5 -3l-6 -45q-1 -6 -8 -6q-5 0 -7 4l3 48q1 4 6 4z" />
    <glyph glyph-name="Igrave" unicode="&#xcc;" horiz-adv-x="502" 
d="M-1159.5 -1276q0.5 4 4.5 3l20 -3q45 -6 84 -5q230 4 452 211t412 545t341 750q88 242 156 485.5t111 469.5q66 342 66 582q0 76 -8 146q-13 104 -47.5 164t-86.5 60q-67 0 -149 -102q-89 -115 -168 -293q-2 -4 -6 -2.5t-2 5.5q86 188 170 295q83 105 158 105
q59 0 100 -65.5t55 -178.5q10 -70 10 -162q0 -214 -54 -513q-76 -423 -234 -880q-152 -440 -354.5 -809t-443.5 -595t-491 -226q-30 0 -73 5l-19 3q-4 1 -3.5 5zM314 2246q0 8 2.5 14.5t5.5 5.5l76 -86q3 -2 1 -4.5t-4 -0.5l-80 64q-1 1 -1 7z" />
    <glyph glyph-name="Iacute" unicode="&#xcd;" horiz-adv-x="502" 
d="M-1159.5 -1276q0.5 4 4.5 3l20 -3q45 -6 84 -5q230 4 452 211t412 545t341 750q88 242 156 485.5t111 469.5q66 342 66 582q0 76 -8 146q-13 104 -47.5 164t-86.5 60q-67 0 -149 -102q-89 -115 -168 -293q-2 -4 -6 -2.5t-2 5.5q86 188 170 295q83 105 158 105
q59 0 100 -65.5t55 -178.5q10 -70 10 -162q0 -214 -54 -513q-76 -423 -234 -880q-152 -440 -354.5 -809t-443.5 -595t-491 -226q-30 0 -73 5l-19 3q-4 1 -3.5 5zM311 2175.5q-2 2.5 1 4.5l76 86h1q4 0 6 -12t0 -15l-80 -64q-2 -2 -4 0.5z" />
    <glyph glyph-name="Icircumflex" unicode="&#xce;" horiz-adv-x="502" 
d="M-1159.5 -1276q0.5 4 4.5 3l20 -3q45 -6 84 -5q230 4 452 211t412 545t341 750q88 242 156 485.5t111 469.5q66 342 66 582q0 76 -8 146q-13 104 -47.5 164t-86.5 60q-67 0 -149 -102q-89 -115 -168 -293q-2 -4 -6 -2.5t-2 5.5q86 188 170 295q83 105 158 105
q59 0 100 -65.5t55 -178.5q10 -70 10 -162q0 -214 -54 -513q-76 -423 -234 -880q-152 -440 -354.5 -809t-443.5 -595t-491 -226q-30 0 -73 5l-19 3q-4 1 -3.5 5zM279 2175.5q-2 2.5 1 4.5l76 86h3l76 -86q3 -2 1 -4.5t-4 -0.5l-75 59l-74 -59q-2 -2 -4 0.5z" />
    <glyph glyph-name="Idieresis" unicode="&#xcf;" horiz-adv-x="502" 
d="M-1159.5 -1276q0.5 4 4.5 3l20 -3q45 -6 84 -5q230 4 452 211t412 545t341 750q88 242 156 485.5t111 469.5q66 342 66 582q0 76 -8 146q-13 104 -47.5 164t-86.5 60q-67 0 -149 -102q-89 -115 -168 -293q-2 -4 -6 -2.5t-2 5.5q86 188 170 295q83 105 158 105
q59 0 100 -65.5t55 -178.5q10 -70 10 -162q0 -214 -54 -513q-76 -423 -234 -880q-152 -440 -354.5 -809t-443.5 -595t-491 -226q-30 0 -73 5l-19 3q-4 1 -3.5 5zM339 2232q3 0 6.5 -2t4.5 -3l-6 -45q-2 -5 -7.5 -5.5t-6.5 4.5l2 47q3 4 7 4zM369 2229q4 0 7.5 -2t4.5 -3
l-6 -45q-1 -6 -8 -6q-5 0 -7 4l3 48q1 4 6 4z" />
    <glyph glyph-name="Eth" unicode="&#xd0;" horiz-adv-x="3413" 
d="M1203 388q149 324 237 560q139 372 189 636q20 108 26 189q-285 -181 -550 -428.5t-472 -522.5q-267 -350 -395 -673q-97 -244 -97 -427q0 -67 14 -129q50 -212 272 -286q4 -2 3 -5.5t-5 -2.5q-227 74 -277 292q-15 63 -15 133q0 184 98 428q128 325 396 675
q212 278 477.5 527.5t550.5 428.5q1 17 1 51q0 109 -27 173q-42 98 -141 102h-23q-4 0 -4.5 4t4.5 4h24q98 -4 146 -83q51 -81 46 -235q243 149 487.5 234.5t492.5 85.5q38 0 57 -1q251 -15 423.5 -127t237.5 -339q34 -120 34 -264q0 -310 -148 -702
q-102 -269 -260.5 -544.5t-353.5 -522.5q-212 -268 -445 -474t-470.5 -324.5t-454.5 -120.5q-90 0 -182.5 23t-165.5 76t-98 137q-13 42 -13 92q0 120 77 279q104 212 310 429q183 192 410.5 350.5t472.5 253t470 94.5q4 0 4 -4t-4 -4q-223 0 -467 -94.5t-471 -252.5
t-409 -349q-203 -211 -309 -427q-75 -152 -75 -274q0 -48 12 -90q23 -81 92.5 -132.5t158 -74.5t175.5 -23q212 0 445.5 115.5t463 319t438.5 468.5q197 252 357 528.5t260 546.5q150 401 150 712q0 144 -32 259q-61 220 -226 328.5t-407 123.5q-44 2 -66 2
q-228 0 -473 -84.5t-498 -238.5q-5 -90 -20 -184q-45 -269 -192 -665q-36 -96 -99 -240.5t-143 -311.5h520v-11h-525q-188 -392 -399.5 -757.5t-428 -623t-384.5 -277.5q-4 0 -4.5 4t3.5 4q135 15 341 251.5t430 609.5t418 789h-626v11h631z" />
    <glyph glyph-name="Ntilde" unicode="&#xd1;" horiz-adv-x="2224" 
d="M1944.5 1916.5q-161.5 -216.5 -325 -479.5t-426.5 -707q-323 -548 -549.5 -905.5t-463.5 -649t-440 -403.5q-4 -2 -6 1.5t2 5.5q201 110 435 398t456 637.5t549 901.5l10 18q8 14 13 21q257 434 419 695t322 475t290 310q104 77 176 77q49 0 77 -37t28 -112q0 -21 -3 -47
q-17 -171 -124 -495q-75 -233 -216 -622q-136 -379 -222 -636.5t-145 -496t-59 -392.5q0 -53 7 -91q25 -143 150 -143q16 0 52 6h1q3 0 4 -3.5t-3 -4.5q-30 -6 -58 -6q-134 0 -164 153q-9 46 -9 107q0 163 62 412t149.5 511t230.5 660l16 46q141 397 214.5 624.5t94.5 369.5
q4 31 4 61q0 65 -23 97t-65 32q-67 0 -170 -75q-129 -97 -290.5 -313.5zM-661.5 -1281q0.5 4 4.5 3t9.5 -2t12.5 -1q42 -7 95 -5q239 11 468.5 237t422.5 586t342 791q143 417 225 835q67 344 67 591q0 26 -2 72q-7 99 -21 155q-38 145 -125 145q-77 0 -180 -110
q-70 -75 -145 -190.5t-148 -260.5q-152 -303 -235 -615q-68 -259 -68 -453q0 -74 8 -127q39 -279 246 -350q4 -2 2.5 -5.5t-5.5 -2.5q-212 74 -251 357q-8 55 -8 128q0 194 68 455q81 306 235 616q72 143 148.5 260.5t148.5 194.5q49 52 97 82t91 30q92 0 137 -144
q22 -70 28 -172q3 -48 3 -103q0 -256 -72 -616q-89 -442 -257 -894q-153 -408 -345 -742.5t-417 -541t-458 -216.5q-9 -1 -27 -1q-36 0 -70 6l-21 3q-4 1 -3.5 5zM1548 2197q9 8 16.5 13t14.5 5q14 0 39 -15q24 -14 37 -16q25 0 58 25q2 3 5 0t0 -4q-39 -32 -66 -32
q-12 0 -41 17q-21 12 -34 12q-10 0 -17.5 -4.5t-13.5 -10t-9 -7.5q-2 -2 -4 0.5t-1 3.5z" />
    <glyph glyph-name="Ograve" unicode="&#xd2;" horiz-adv-x="2195" 
d="M1706 1930q-306 0 -573 -180.5t-472.5 -479.5t-344.5 -667q-147 -395 -196 -799q-18 -153 -18 -293q0 -217 43 -385q52 -205 160 -302.5t254 -97.5q111 0 233.5 53t240.5 148q269 216 527 648t420 930t162 901q0 188 -40 341q-55 208 -174.5 307t-287.5 99
q-272 0 -603.5 -232t-579 -589.5t-292.5 -706.5q0 -4 -4 -4t-4 4q45 352 294 711.5t582 592.5t608 233q170 0 291.5 -100.5t177.5 -311.5q40 -153 40 -343q0 -405 -162.5 -905t-421.5 -933.5t-529 -648.5q-120 -95 -243.5 -148t-236.5 -53q-153 0 -267 102.5t-171 318.5
q-45 174 -45 397q0 133 17 286q44 394 195 796q140 368 348 665.5t481.5 475.5t590.5 178q54 0 98 -4q4 -1 3.5 -5t-5.5 -4q-40 5 -96 5zM1608 2390q0 8 2.5 14.5t5.5 5.5l76 -86q3 -2 1 -4.5t-4 -0.5l-80 64q-1 1 -1 7z" />
    <glyph glyph-name="Oacute" unicode="&#xd3;" horiz-adv-x="2195" 
d="M1706 1930q-306 0 -573 -180.5t-472.5 -479.5t-344.5 -667q-147 -395 -196 -799q-18 -153 -18 -293q0 -217 43 -385q52 -205 160 -302.5t254 -97.5q111 0 233.5 53t240.5 148q269 216 527 648t420 930t162 901q0 188 -40 341q-55 208 -174.5 307t-287.5 99
q-272 0 -603.5 -232t-579 -589.5t-292.5 -706.5q0 -4 -4 -4t-4 4q45 352 294 711.5t582 592.5t608 233q170 0 291.5 -100.5t177.5 -311.5q40 -153 40 -343q0 -405 -162.5 -905t-421.5 -933.5t-529 -648.5q-120 -95 -243.5 -148t-236.5 -53q-153 0 -267 102.5t-171 318.5
q-45 174 -45 397q0 133 17 286q44 394 195 796q140 368 348 665.5t481.5 475.5t590.5 178q54 0 98 -4q4 -1 3.5 -5t-5.5 -4q-40 5 -96 5zM1609 2319.5q-2 2.5 1 4.5l76 86h1q4 0 6 -12t0 -15l-80 -64q-2 -2 -4 0.5z" />
    <glyph glyph-name="Ocircumflex" unicode="&#xd4;" horiz-adv-x="2195" 
d="M1706 1930q-306 0 -573 -180.5t-472.5 -479.5t-344.5 -667q-147 -395 -196 -799q-18 -153 -18 -293q0 -217 43 -385q52 -205 160 -302.5t254 -97.5q111 0 233.5 53t240.5 148q269 216 527 648t420 930t162 901q0 188 -40 341q-55 208 -174.5 307t-287.5 99
q-272 0 -603.5 -232t-579 -589.5t-292.5 -706.5q0 -4 -4 -4t-4 4q45 352 294 711.5t582 592.5t608 233q170 0 291.5 -100.5t177.5 -311.5q40 -153 40 -343q0 -405 -162.5 -905t-421.5 -933.5t-529 -648.5q-120 -95 -243.5 -148t-236.5 -53q-153 0 -267 102.5t-171 318.5
q-45 174 -45 397q0 133 17 286q44 394 195 796q140 368 348 665.5t481.5 475.5t590.5 178q54 0 98 -4q4 -1 3.5 -5t-5.5 -4q-40 5 -96 5zM1610 2319.5q-2 2.5 1 4.5l76 86h3l76 -86q3 -2 1 -4.5t-4 -0.5l-75 59l-74 -59q-2 -2 -4 0.5z" />
    <glyph glyph-name="Otilde" unicode="&#xd5;" horiz-adv-x="2195" 
d="M1706 1930q-306 0 -573 -180.5t-472.5 -479.5t-344.5 -667q-147 -395 -196 -799q-18 -153 -18 -293q0 -217 43 -385q52 -205 160 -302.5t254 -97.5q111 0 233.5 53t240.5 148q269 216 527 648t420 930t162 901q0 188 -40 341q-55 208 -174.5 307t-287.5 99
q-272 0 -603.5 -232t-579 -589.5t-292.5 -706.5q0 -4 -4 -4t-4 4q45 352 294 711.5t582 592.5t608 233q170 0 291.5 -100.5t177.5 -311.5q40 -153 40 -343q0 -405 -162.5 -905t-421.5 -933.5t-529 -648.5q-120 -95 -243.5 -148t-236.5 -53q-153 0 -267 102.5t-171 318.5
q-45 174 -45 397q0 133 17 286q44 394 195 796q140 368 348 665.5t481.5 475.5t590.5 178q54 0 98 -4q4 -1 3.5 -5t-5.5 -4q-40 5 -96 5zM1614 2371q9 8 16.5 13t14.5 5q14 0 39 -15q24 -14 37 -16q25 0 58 25q2 3 5 0t0 -4q-39 -32 -66 -32q-12 0 -41 17q-21 12 -34 12
q-10 0 -17.5 -4.5t-13.5 -10t-9 -7.5q-2 -2 -4 0.5t-1 3.5z" />
    <glyph glyph-name="Odieresis" unicode="&#xd6;" horiz-adv-x="2195" 
d="M1706 1930q-306 0 -573 -180.5t-472.5 -479.5t-344.5 -667q-147 -395 -196 -799q-18 -153 -18 -293q0 -217 43 -385q52 -205 160 -302.5t254 -97.5q111 0 233.5 53t240.5 148q269 216 527 648t420 930t162 901q0 188 -40 341q-55 208 -174.5 307t-287.5 99
q-272 0 -603.5 -232t-579 -589.5t-292.5 -706.5q0 -4 -4 -4t-4 4q45 352 294 711.5t582 592.5t608 233q170 0 291.5 -100.5t177.5 -311.5q40 -153 40 -343q0 -405 -162.5 -905t-421.5 -933.5t-529 -648.5q-120 -95 -243.5 -148t-236.5 -53q-153 0 -267 102.5t-171 318.5
q-45 174 -45 397q0 133 17 286q44 394 195 796q140 368 348 665.5t481.5 475.5t590.5 178q54 0 98 -4q4 -1 3.5 -5t-5.5 -4q-40 5 -96 5zM1676 2394q3 0 6.5 -2t4.5 -3l-6 -45q-2 -5 -7.5 -5.5t-6.5 4.5l2 47q3 4 7 4zM1706 2391q4 0 7.5 -2t4.5 -3l-6 -45q-1 -6 -8 -6
q-5 0 -7 4l3 48q1 4 6 4z" />
    <glyph glyph-name="multiply" unicode="&#xd7;" horiz-adv-x="550" 
d="M224 321l-155 156l51 51l155 -155l157 155l51 -50l-157 -157l156 -156l-50 -50l-157 155l-155 -154l-50 51zM221 622z" />
    <glyph glyph-name="Oslash" unicode="&#xd8;" horiz-adv-x="2195" 
d="M1706 1930q-306 0 -573 -180.5t-472.5 -479.5t-344.5 -667q-147 -395 -196 -799q-18 -153 -18 -293q0 -217 43 -385q48 -187 146 -287l1646 3205q-119 109 -298 109q-272 0 -602.5 -232t-578.5 -589.5t-293 -706.5q0 -4 -4 -4t-4 4q45 352 294 711.5t582 592t608 232.5
q180 0 301 -109l97 190l9 -4l-99 -192q111 -106 161 -296q40 -153 40 -343q0 -405 -162.5 -905t-421.5 -933.5t-529 -648.5q-119 -95 -243 -148t-238 -53q-154 0 -263 100l-170 -331l-9 5l171 333q-113 106 -166 314q-45 174 -45 397q0 133 17 286q44 394 195 796
q140 368 348 665.5t481.5 475.5t590.5 178q54 0 98 -4q4 -1 3.5 -5t-5.5 -4q-40 5 -96 5zM1560 -425q258 432 420 930t162 901q0 188 -40 341q-51 189 -157 290l-1646 -3206q106 -105 261 -105q111 0 233.5 53t239.5 148q269 216 527 648z" />
    <glyph glyph-name="Ugrave" unicode="&#xd9;" horiz-adv-x="3127" 
d="M1127.5 1688q-38.5 -183 -97 -393.5t-157.5 -549.5l-19 -66q-124 -424 -203 -713t-133.5 -558t-54.5 -445q0 -148 36 -218t102 -70q54 0 125 44.5t153 126.5q224 224 542 682.5t633 992.5q51 261 134 549q97 343 206 611.5t201 367.5q23 25 47 38t44 13q25 0 40.5 -21.5
t15.5 -64.5q1 -95 -75 -299q-90 -237 -268 -584q-138 -269 -306 -558q-99 -435 -99 -649q0 -68 10 -112q27 -115 128 -115q58 0 131 32.5t167 87.5q138 82 285 202.5t276 262.5q82 91 136 161q2 3 5 1t1 -5q-59 -77 -137 -163q-129 -143 -276 -263.5t-286 -201.5
q-100 -59 -176 -90.5t-132 -31.5q-104 0 -135 118q-14 53 -14 139q0 118 20.5 254t51.5 298q-307 -522 -624.5 -977.5t-541.5 -679.5q-82 -83 -155.5 -129t-131.5 -46q-72 0 -112 74t-40 231l1 36q4 190 61 469t137 572t205 718q8 26 11 39q140 481 210 751.5t77 422.5
q8 153 -87 153q-40 0 -93.5 -26.5t-109.5 -68.5q-120 -87 -246 -246t-238.5 -357.5t-195.5 -404.5q-94 -235 -131 -439q-19 -112 -19 -196q0 -88 19 -155q57 -199 260 -199q4 0 4 -4.5t-4 -3.5q-108 1 -174.5 54t-93.5 150q-19 69 -19 157q0 85 19 199q34 191 131 440
q83 206 196 405t239.5 358.5t247.5 247.5q133 96 212 96q103 0 103 -158q0 -110 -38.5 -293zM2392 1134q180 351 267 584q76 205 76 299q-1 38 -14 57t-34 19q-18 0 -39 -13.5t-41 -38.5q-82 -101 -187 -366.5t-200 -598.5q-75 -268 -122 -478q167 289 294 536zM1759 2247
q0 8 2.5 14.5t5.5 5.5l76 -86q3 -2 1 -4.5t-4 -0.5l-80 64q-1 1 -1 7z" />
    <glyph glyph-name="Uacute" unicode="&#xda;" horiz-adv-x="3127" 
d="M1127.5 1688q-38.5 -183 -97 -393.5t-157.5 -549.5l-19 -66q-124 -424 -203 -713t-133.5 -558t-54.5 -445q0 -148 36 -218t102 -70q54 0 125 44.5t153 126.5q224 224 542 682.5t633 992.5q51 261 134 549q97 343 206 611.5t201 367.5q23 25 47 38t44 13q25 0 40.5 -21.5
t15.5 -64.5q1 -95 -75 -299q-90 -237 -268 -584q-138 -269 -306 -558q-99 -435 -99 -649q0 -68 10 -112q27 -115 128 -115q58 0 131 32.5t167 87.5q138 82 285 202.5t276 262.5q82 91 136 161q2 3 5 1t1 -5q-59 -77 -137 -163q-129 -143 -276 -263.5t-286 -201.5
q-100 -59 -176 -90.5t-132 -31.5q-104 0 -135 118q-14 53 -14 139q0 118 20.5 254t51.5 298q-307 -522 -624.5 -977.5t-541.5 -679.5q-82 -83 -155.5 -129t-131.5 -46q-72 0 -112 74t-40 231l1 36q4 190 61 469t137 572t205 718q8 26 11 39q140 481 210 751.5t77 422.5
q8 153 -87 153q-40 0 -93.5 -26.5t-109.5 -68.5q-120 -87 -246 -246t-238.5 -357.5t-195.5 -404.5q-94 -235 -131 -439q-19 -112 -19 -196q0 -88 19 -155q57 -199 260 -199q4 0 4 -4.5t-4 -3.5q-108 1 -174.5 54t-93.5 150q-19 69 -19 157q0 85 19 199q34 191 131 440
q83 206 196 405t239.5 358.5t247.5 247.5q133 96 212 96q103 0 103 -158q0 -110 -38.5 -293zM2392 1134q180 351 267 584q76 205 76 299q-1 38 -14 57t-34 19q-18 0 -39 -13.5t-41 -38.5q-82 -101 -187 -366.5t-200 -598.5q-75 -268 -122 -478q167 289 294 536zM1858 2175.5
q-2 2.5 1 4.5l76 86h1q4 0 6 -12t0 -15l-80 -64q-2 -2 -4 0.5z" />
    <glyph glyph-name="Ucircumflex" unicode="&#xdb;" horiz-adv-x="3127" 
d="M1127.5 1688q-38.5 -183 -97 -393.5t-157.5 -549.5l-19 -66q-124 -424 -203 -713t-133.5 -558t-54.5 -445q0 -148 36 -218t102 -70q54 0 125 44.5t153 126.5q224 224 542 682.5t633 992.5q51 261 134 549q97 343 206 611.5t201 367.5q23 25 47 38t44 13q25 0 40.5 -21.5
t15.5 -64.5q1 -95 -75 -299q-90 -237 -268 -584q-138 -269 -306 -558q-99 -435 -99 -649q0 -68 10 -112q27 -115 128 -115q58 0 131 32.5t167 87.5q138 82 285 202.5t276 262.5q82 91 136 161q2 3 5 1t1 -5q-59 -77 -137 -163q-129 -143 -276 -263.5t-286 -201.5
q-100 -59 -176 -90.5t-132 -31.5q-104 0 -135 118q-14 53 -14 139q0 118 20.5 254t51.5 298q-307 -522 -624.5 -977.5t-541.5 -679.5q-82 -83 -155.5 -129t-131.5 -46q-72 0 -112 74t-40 231l1 36q4 190 61 469t137 572t205 718q8 26 11 39q140 481 210 751.5t77 422.5
q8 153 -87 153q-40 0 -93.5 -26.5t-109.5 -68.5q-120 -87 -246 -246t-238.5 -357.5t-195.5 -404.5q-94 -235 -131 -439q-19 -112 -19 -196q0 -88 19 -155q57 -199 260 -199q4 0 4 -4.5t-4 -3.5q-108 1 -174.5 54t-93.5 150q-19 69 -19 157q0 85 19 199q34 191 131 440
q83 206 196 405t239.5 358.5t247.5 247.5q133 96 212 96q103 0 103 -158q0 -110 -38.5 -293zM2392 1134q180 351 267 584q76 205 76 299q-1 38 -14 57t-34 19q-18 0 -39 -13.5t-41 -38.5q-82 -101 -187 -366.5t-200 -598.5q-75 -268 -122 -478q167 289 294 536zM1854 2175.5
q-2 2.5 1 4.5l76 86h3l76 -86q3 -2 1 -4.5t-4 -0.5l-75 59l-74 -59q-2 -2 -4 0.5z" />
    <glyph glyph-name="Udieresis" unicode="&#xdc;" horiz-adv-x="3127" 
d="M1127.5 1688q-38.5 -183 -97 -393.5t-157.5 -549.5l-19 -66q-124 -424 -203 -713t-133.5 -558t-54.5 -445q0 -148 36 -218t102 -70q54 0 125 44.5t153 126.5q224 224 542 682.5t633 992.5q51 261 134 549q97 343 206 611.5t201 367.5q23 25 47 38t44 13q25 0 40.5 -21.5
t15.5 -64.5q1 -95 -75 -299q-90 -237 -268 -584q-138 -269 -306 -558q-99 -435 -99 -649q0 -68 10 -112q27 -115 128 -115q58 0 131 32.5t167 87.5q138 82 285 202.5t276 262.5q82 91 136 161q2 3 5 1t1 -5q-59 -77 -137 -163q-129 -143 -276 -263.5t-286 -201.5
q-100 -59 -176 -90.5t-132 -31.5q-104 0 -135 118q-14 53 -14 139q0 118 20.5 254t51.5 298q-307 -522 -624.5 -977.5t-541.5 -679.5q-82 -83 -155.5 -129t-131.5 -46q-72 0 -112 74t-40 231l1 36q4 190 61 469t137 572t205 718q8 26 11 39q140 481 210 751.5t77 422.5
q8 153 -87 153q-40 0 -93.5 -26.5t-109.5 -68.5q-120 -87 -246 -246t-238.5 -357.5t-195.5 -404.5q-94 -235 -131 -439q-19 -112 -19 -196q0 -88 19 -155q57 -199 260 -199q4 0 4 -4.5t-4 -3.5q-108 1 -174.5 54t-93.5 150q-19 69 -19 157q0 85 19 199q34 191 131 440
q83 206 196 405t239.5 358.5t247.5 247.5q133 96 212 96q103 0 103 -158q0 -110 -38.5 -293zM2392 1134q180 351 267 584q76 205 76 299q-1 38 -14 57t-34 19q-18 0 -39 -13.5t-41 -38.5q-82 -101 -187 -366.5t-200 -598.5q-75 -268 -122 -478q167 289 294 536zM1865 2236
q3 0 6.5 -2t4.5 -3l-6 -45q-2 -5 -7.5 -5.5t-6.5 4.5l2 47q3 4 7 4zM1895 2233q4 0 7.5 -2t4.5 -3l-6 -45q-1 -6 -8 -6q-5 0 -7 4l3 48q1 4 6 4z" />
    <glyph glyph-name="Yacute" unicode="&#xdd;" horiz-adv-x="1689" 
d="M917.5 1740.5q-69.5 -197.5 -207.5 -532.5q-106 -255 -171 -422t-110 -323.5t-45 -258.5q0 -84 31.5 -123t82.5 -39q31 0 66.5 13.5t67.5 36.5q88 61 199 191.5t235 311.5q174 251 357.5 562.5t323.5 573t189 367.5l5 1q9 0 17.5 -2.5t7.5 -7.5q-6 -19 -35 -134
q-16 -62 -26 -102q-119 -455 -234 -860t-262 -822q114 -47 217 -162q5 -3 0 -5q-3 -3 -6 0q-99 110 -214 159q-11 -34 -16 -44q-148 -416 -302.5 -737t-308.5 -498q-75 -87 -165 -136.5t-171 -49.5q-92 0 -148 67t-56 203q0 51 9 113q20 138 86.5 298t166.5 310
q104 156 230.5 277.5t259.5 182.5q124 58 240 58q79 0 160 -29q256 737 508 1776l25 102q-67 -140 -203.5 -393t-309.5 -545t-338 -528q-266 -382 -437 -505q-73 -51 -142 -51q-58 0 -94 45t-36 139q0 102 42.5 254.5t103.5 312.5t163 411l29 71l18 44q86 209 133.5 332.5
t79.5 231.5t32 172q0 80 -63 80q-42 0 -106 -33q-99 -52 -213.5 -175t-221.5 -284t-186 -324q-83 -172 -116 -305q-22 -90 -22 -152q0 -40 9 -72q23 -70 96 -80q4 -1 3.5 -5t-4.5 -3q-79 10 -102 86q-10 31 -10 75q0 63 22 153q35 134 117 306q79 164 186 324.5t221.5 284
t215.5 177.5q70 35 115 35q75 0 79 -93q2 -104 -67.5 -301.5zM1388 170q-77 29 -158 29q-113 0 -236 -57q-133 -62 -259 -182.5t-228 -275.5q-100 -147 -166 -306.5t-86 -297.5q-8 -53 -8 -109q0 -133 54 -198.5t143 -65.5q77 0 164.5 48t161.5 132q274 320 578 1170
q17 45 40 113zM1391 2175.5q-2 2.5 1 4.5l76 86h1q4 0 6 -12t0 -15l-80 -64q-2 -2 -4 0.5z" />
    <glyph glyph-name="Thorn" unicode="&#xde;" horiz-adv-x="604" 
d="M554 382q0 -110 -73.5 -168.5t-212.5 -58.5h-81v-155h-90v714h90v-124h96q137 0 204 -51.5t67 -156.5zM187 231h72q108 0 155 34.5t47 111.5q0 70 -44.5 103t-140.5 33h-89v-282z" />
    <glyph glyph-name="germandbls" unicode="&#xdf;" horiz-adv-x="841" 
d="M439 485q-23 -16 -38 -36.5t-15 -43.5q0 -16 7.5 -37t22.5 -55q14 12 43.5 18.5t84.5 13.5q100 14 171 33q83 22 123 62q3 3 5.5 -0.5t-0.5 -5.5q-53 -44 -125 -64q-79 -21 -172 -33q-55 -7 -84.5 -13.5t-42.5 -17.5q15 -30 20 -54v-5q0 -14 -13 -14q-5 0 -8 2
q-12 9 -12 12q-1 6 -5 18q-1 3 -1 9q0 12 6 27l-2 5q-18 34 -29 59.5t-11 43.5q0 24 16.5 45t40.5 36q21 12 42 19q11 4 23 4q11 0 17 -4.5t6 -12.5q0 -16 -12 -31l-17 -21q-12 -13 -18 -16l-3 7q20 18 30.5 35.5t10.5 24.5q0 10 -12 10q-8 0 -21 -5q-15 -7 -28 -15z
M411 292q-5 -14 -3 -26q1 -9 6 -15q1 -3 7 -9l5 -1q2 0 3.5 2t0.5 5q-1 13 -19 44zM66 485q-23 -16 -38 -36.5t-15 -43.5q0 -16 7.5 -37t22.5 -55q14 12 43.5 18.5t84.5 13.5q100 14 171 33t123 62q3 3 5.5 -0.5t-0.5 -5.5q-53 -44 -124.5 -63.5t-172.5 -33.5
q-55 -7 -84.5 -13.5t-42.5 -17.5q15 -30 20 -54v-5q0 -14 -13 -14q-5 0 -8 2q-6 5 -12 12q-3 5 -5 18q-1 3 -1 9q0 12 6 27l-2 5q-18 34 -29 59.5t-11 43.5q0 24 16.5 45t40.5 36q21 12 42 19q11 4 23 4q11 0 17 -4.5t6 -12.5q0 -10 -10 -26q-14 -21 -34 -43q-4 -4 -6 0
q-3 2 0 5q19 21 33 42q8 14 8 21q0 10 -12 10q-8 0 -21 -5q-15 -7 -28 -15zM38 292q-5 -14 -3 -26q1 -9 6 -15q1 -3 7 -9l5 -1q2 0 3.5 2t0.5 5q-1 13 -19 44z" />
    <glyph glyph-name="agrave" unicode="&#xe0;" horiz-adv-x="551" 
d="M-35 355q0 11 5 31q11 32 31 58q22 30 51 48q22 13 46 13q32 0 59 -24q4 8 11 15q0 3 15 3q14 0 9 -7l-8 -11q-31 -44 -50 -78t-19 -61q0 -32 31 -44q19 -6 46 -8q64 0 161 38q60 23 113.5 53.5t84.5 58.5q3 3 5.5 0t-0.5 -6q-29 -27 -84 -58t-116 -56q-99 -38 -163 -38
q-26 0 -50 9q-41 16 -41 58q0 10 4 30q7 22 18 46q-40 -49 -71.5 -79t-55.5 -30q-8 0 -15 4q-17 10 -17 35zM37 452q-19 -19 -41 -59q-15 -30 -15 -52q0 -12 5 -14q5 -3 11 -3q28 0 66 42t89 109q-17 14 -31 19q-40 6 -84 -42zM71 630q0 8 2.5 14.5t5.5 5.5l76 -86
q3 -2 1 -4.5t-4 -0.5l-80 64q-1 1 -1 7z" />
    <glyph glyph-name="aacute" unicode="&#xe1;" horiz-adv-x="551" 
d="M-35 355q0 11 5 31q11 32 31 58q22 30 51 48q22 13 46 13q32 0 59 -24q4 8 11 15q0 3 15 3q14 0 9 -7l-8 -11q-31 -44 -50 -78t-19 -61q0 -32 31 -44q19 -6 46 -8q64 0 161 38q60 23 113.5 53.5t84.5 58.5q3 3 5.5 0t-0.5 -6q-29 -27 -84 -58t-116 -56q-99 -38 -163 -38
q-26 0 -50 9q-41 16 -41 58q0 10 4 30q7 22 18 46q-40 -49 -71.5 -79t-55.5 -30q-8 0 -15 4q-17 10 -17 35zM37 452q-19 -19 -41 -59q-15 -30 -15 -52q0 -12 5 -14q5 -3 11 -3q28 0 66 42t89 109q-17 14 -31 19q-40 6 -84 -42zM73 560.5q-2 2.5 1 4.5l76 86h1q4 0 6 -12
t0 -15l-80 -64q-2 -2 -4 0.5z" />
    <glyph glyph-name="acircumflex" unicode="&#xe2;" horiz-adv-x="551" 
d="M-35 355q0 11 5 31q11 32 31 58q22 30 51 48q22 13 46 13q32 0 59 -24q4 8 11 15q0 3 15 3q14 0 9 -7l-8 -11q-31 -44 -50 -78t-19 -61q0 -32 31 -44q19 -6 46 -8q64 0 161 38q60 23 113.5 53.5t84.5 58.5q3 3 5.5 0t-0.5 -6q-29 -27 -84 -58t-116 -56q-99 -38 -163 -38
q-26 0 -50 9q-41 16 -41 58q0 10 4 30q7 22 18 46q-40 -49 -71.5 -79t-55.5 -30q-8 0 -15 4q-17 10 -17 35zM37 452q-19 -19 -41 -59q-15 -30 -15 -52q0 -12 5 -14q5 -3 11 -3q28 0 66 42t89 109q-17 14 -31 19q-40 6 -84 -42zM16 560.5q-2 2.5 1 4.5l76 86h3l76 -86
q3 -2 1 -4.5t-4 -0.5l-75 59l-74 -59q-2 -2 -4 0.5z" />
    <glyph glyph-name="atilde" unicode="&#xe3;" horiz-adv-x="551" 
d="M-35 355q0 11 5 31q11 32 31 58q22 30 51 48q22 13 46 13q32 0 59 -24q4 8 11 15q0 3 15 3q14 0 9 -7l-8 -11q-31 -44 -50 -78t-19 -61q0 -32 31 -44q19 -6 46 -8q64 0 161 38q60 23 113.5 53.5t84.5 58.5q3 3 5.5 0t-0.5 -6q-29 -27 -84 -58t-116 -56q-99 -38 -163 -38
q-26 0 -50 9q-41 16 -41 58q0 10 4 30q7 22 18 46q-40 -49 -71.5 -79t-55.5 -30q-8 0 -15 4q-17 10 -17 35zM37 452q-19 -19 -41 -59q-15 -30 -15 -52q0 -12 5 -14q5 -3 11 -3q28 0 66 42t89 109q-17 14 -31 19q-40 6 -84 -42zM23 583q9 8 16.5 13t14.5 5q14 0 39 -15
q24 -14 37 -16q25 0 58 25q2 3 5 0t0 -4q-39 -32 -66 -32q-12 0 -41 17q-21 12 -34 12q-10 0 -17.5 -4.5t-13.5 -10t-9 -7.5q-2 -2 -4 0.5t-1 3.5z" />
    <glyph glyph-name="adieresis" unicode="&#xe4;" horiz-adv-x="551" 
d="M-35 355q0 11 5 31q11 32 31 58q22 30 51 48q22 13 46 13q32 0 59 -24q4 8 11 15q0 3 15 3q14 0 9 -7l-8 -11q-31 -44 -50 -78t-19 -61q0 -32 31 -44q19 -6 46 -8q64 0 161 38q60 23 113.5 53.5t84.5 58.5q3 3 5.5 0t-0.5 -6q-29 -27 -84 -58t-116 -56q-99 -38 -163 -38
q-26 0 -50 9q-41 16 -41 58q0 10 4 30q7 22 18 46q-40 -49 -71.5 -79t-55.5 -30q-8 0 -15 4q-17 10 -17 35zM37 452q-19 -19 -41 -59q-15 -30 -15 -52q0 -12 5 -14q5 -3 11 -3q28 0 66 42t89 109q-17 14 -31 19q-40 6 -84 -42zM77 617q3 0 6.5 -2t4.5 -3l-6 -45
q-2 -5 -7.5 -5.5t-6.5 4.5l2 47q3 4 7 4zM107 614q4 0 7.5 -2t4.5 -3l-6 -45q-1 -6 -8 -6q-5 0 -7 4l3 48q1 4 6 4z" />
    <glyph glyph-name="aring" unicode="&#xe5;" horiz-adv-x="551" 
d="M-35 355q0 11 5 31q11 32 31 58q22 30 51 48q22 13 46 13q32 0 59 -24q4 8 11 15q0 3 15 3q14 0 9 -7l-8 -11q-31 -44 -50 -78t-19 -61q0 -32 31 -44q19 -6 46 -8q64 0 161 38q60 23 113.5 53.5t84.5 58.5q3 3 5.5 0t-0.5 -6q-29 -27 -84 -58t-116 -56q-99 -38 -163 -38
q-26 0 -50 9q-41 16 -41 58q0 10 4 30q7 22 18 46q-40 -49 -71.5 -79t-55.5 -30q-8 0 -15 4q-17 10 -17 35zM37 452q-19 -19 -41 -59q-15 -30 -15 -52q0 -12 5 -14q5 -3 11 -3q28 0 66 42t89 109q-17 14 -31 19q-40 6 -84 -42zM77.5 611.5q9.5 9.5 22.5 9.5t22 -9.5t9 -22.5
t-9 -22t-22 -9t-22.5 9t-9.5 22t9.5 22.5zM88 575.5q5 -5.5 12 -5.5t12.5 5.5t5.5 11.5q0 9 -5.5 14t-12.5 5t-12 -5t-5 -14q0 -6 5 -11.5z" />
    <glyph glyph-name="ae" unicode="&#xe6;" horiz-adv-x="861" 
d="M37 452q-19 -19 -41 -59q-15 -30 -15 -52q0 -12 5 -14q5 -3 11 -3q28 0 66 42t89 109q-17 14 -31 19q-40 6 -84 -42zM193 282q-26 0 -50 9q-41 16 -41 58q0 10 4 30q7 22 18 46q-40 -49 -71.5 -79t-55.5 -30q-8 0 -15 4q-17 10 -17 35q0 11 5 31q11 32 31 58q22 30 51 48
q22 13 46 13q32 0 59 -24q4 8 11 15q0 3 15 3q14 0 9 -7l-8 -11q-31 -44 -50 -78t-19 -61q0 -32 31 -44q19 -6 46 -8q18 0 39 3l-2 -8q-20 -3 -36 -3zM367 469q-41 -37 -87 -110q-13 -21 -35 -63q34 13 75 34t77 45q40 28 62 56q14 18 14 38q0 17 -10 27.5t-26 10.5
q-15 0 -32 -10q-15 -7 -38 -28zM223 245q-17 -45 -17 -79q0 -59 60 -59q16 0 44 6q71 16 172 68q107 56 218 133.5t161 125.5q3 3 6 0t0 -6q-47 -47 -159.5 -125.5t-221.5 -134.5q-104 -54 -175 -69q-27 -5 -44 -5q-76 0 -76 76q0 16 3 34l8 35q3 8 8.5 24.5t11.5 28.5
q21 43 29 58q46 77 100 124q22 19 45 30q17 6 31 6q23 0 38.5 -13t15.5 -34q0 -20 -16 -42q-22 -30 -64 -59q-36 -25 -80 -47t-81 -35q-12 -25 -17 -41z" />
    <glyph glyph-name="ccedilla" unicode="&#xe7;" horiz-adv-x="508" 
d="M-40 360q-40 -60 -58 -114q-14 -39 -14 -70q0 -13 3 -25q7 -24 31 -35q15 -6 34 -6q63 0 188 67q72 40 149 94t136 101.5t79 67.5q3 3 5.5 0t0.5 -6q-19 -19 -79 -67t-137 -102t-150 -95q-124 -67 -193 -67q-21 0 -36 6q-48 18 -48 79q0 15 3 31q12 69 66 153
q57 83 118 117q34 18 61 18q37 0 62 -29q4 -3 0.5 -5t-6.5 0q-23 24 -49 24t-58 -24q-58 -39 -108 -113zM-26 17v33h-28v56h9v-46h27v-50h-61v7h53z" />
    <glyph glyph-name="egrave" unicode="&#xe8;" horiz-adv-x="548" 
d="M54 469q-41 -37 -87 -110q-13 -21 -35 -63q34 13 75 34t77 45q40 28 62 56q14 18 14 38q0 17 -10 27.5t-26 10.5q-15 0 -32 -10q-15 -7 -38 -28zM-90 245q-17 -45 -17 -79q0 -59 60 -59q16 0 44 6q71 16 172 68q107 56 218 133.5t161 125.5q3 3 6 0t0 -6
q-47 -47 -159.5 -125.5t-221.5 -134.5q-104 -54 -175 -69q-27 -5 -44 -5q-76 0 -76 76q0 16 3 34l8 35q3 8 8.5 24.5t11.5 28.5q21 44 29 58q46 77 100 124q22 20 45 30q17 6 31 6q23 0 38.5 -13t15.5 -34q0 -20 -16 -42q-22 -30 -64 -59q-36 -25 -80 -47t-81 -35
q-12 -25 -17 -41zM72 632q0 8 2.5 14.5t5.5 5.5l76 -86q3 -2 1 -4.5t-4 -0.5l-80 64q-1 1 -1 7z" />
    <glyph glyph-name="eacute" unicode="&#xe9;" horiz-adv-x="548" 
d="M54 469q-41 -37 -87 -110q-13 -21 -35 -63q34 13 75 34t77 45q40 28 62 56q14 18 14 38q0 17 -10 27.5t-26 10.5q-15 0 -32 -10q-15 -7 -38 -28zM-90 245q-17 -45 -17 -79q0 -59 60 -59q16 0 44 6q71 16 172 68q107 56 218 133.5t161 125.5q3 3 6 0t0 -6
q-47 -47 -159.5 -125.5t-221.5 -134.5q-104 -54 -175 -69q-27 -5 -44 -5q-76 0 -76 76q0 16 3 34l8 35q3 8 8.5 24.5t11.5 28.5q21 44 29 58q46 77 100 124q22 20 45 30q17 6 31 6q23 0 38.5 -13t15.5 -34q0 -20 -16 -42q-22 -30 -64 -59q-36 -25 -80 -47t-81 -35
q-12 -25 -17 -41zM73 560.5q-2 2.5 1 4.5l76 86h1q4 0 6 -12t0 -15l-80 -64q-2 -2 -4 0.5z" />
    <glyph glyph-name="ecircumflex" unicode="&#xea;" horiz-adv-x="548" 
d="M54 469q-41 -37 -87 -110q-13 -21 -35 -63q34 13 75 34t77 45q40 28 62 56q14 18 14 38q0 17 -10 27.5t-26 10.5q-15 0 -32 -10q-15 -7 -38 -28zM-90 245q-17 -45 -17 -79q0 -59 60 -59q16 0 44 6q71 16 172 68q107 56 218 133.5t161 125.5q3 3 6 0t0 -6
q-47 -47 -159.5 -125.5t-221.5 -134.5q-104 -54 -175 -69q-27 -5 -44 -5q-76 0 -76 76q0 16 3 34l8 35q3 8 8.5 24.5t11.5 28.5q21 44 29 58q46 77 100 124q22 20 45 30q17 6 31 6q23 0 38.5 -13t15.5 -34q0 -20 -16 -42q-22 -30 -64 -59q-36 -25 -80 -47t-81 -35
q-12 -25 -17 -41zM30 560.5q-2 2.5 1 4.5l76 86h3l76 -86q3 -2 1 -4.5t-4 -0.5l-75 59l-74 -59q-2 -2 -4 0.5z" />
    <glyph glyph-name="edieresis" unicode="&#xeb;" horiz-adv-x="548" 
d="M54 469q-41 -37 -87 -110q-13 -21 -35 -63q34 13 75 34t77 45q40 28 62 56q14 18 14 38q0 17 -10 27.5t-26 10.5q-15 0 -32 -10q-15 -7 -38 -28zM-90 245q-17 -45 -17 -79q0 -59 60 -59q16 0 44 6q71 16 172 68q107 56 218 133.5t161 125.5q3 3 6 0t0 -6
q-47 -47 -159.5 -125.5t-221.5 -134.5q-104 -54 -175 -69q-27 -5 -44 -5q-76 0 -76 76q0 16 3 34l8 35q3 8 8.5 24.5t11.5 28.5q21 44 29 58q46 77 100 124q22 20 45 30q17 6 31 6q23 0 38.5 -13t15.5 -34q0 -20 -16 -42q-22 -30 -64 -59q-36 -25 -80 -47t-81 -35
q-12 -25 -17 -41zM82 617q3 0 6.5 -2t4.5 -3l-6 -45q-2 -5 -7.5 -5.5t-6.5 4.5l2 47q3 4 7 4zM112 614q4 0 7.5 -2t4.5 -3l-6 -45q-1 -6 -8 -6q-5 0 -7 4l3 48q1 4 6 4z" />
    <glyph glyph-name="igrave" unicode="&#xec;" horiz-adv-x="417" 
d="M-32 350q0 42 35 99q1 2 6 3t10 1q14 0 10 -7q-21 -34 -32.5 -59t-11.5 -47q0 -20 12 -31q19 -18 62 -18q63 0 160 37q60 23 113.5 53.5t84.5 58.5q3 3 5.5 0t-0.5 -6q-29 -27 -84 -58t-116 -56q-96 -38 -162 -38q-44 0 -70 20q-22 17 -22 48zM3 632q0 8 2.5 14.5
t5.5 5.5l76 -86q3 -2 1 -4.5t-4 -0.5l-80 64q-1 1 -1 7z" />
    <glyph glyph-name="iacute" unicode="&#xed;" horiz-adv-x="417" 
d="M-32 350q0 42 35 99q1 2 6 3t10 1q14 0 10 -7q-21 -34 -32.5 -59t-11.5 -47q0 -20 12 -31q19 -18 62 -18q63 0 160 37q60 23 113.5 53.5t84.5 58.5q3 3 5.5 0t-0.5 -6q-29 -27 -84 -58t-116 -56q-96 -38 -162 -38q-44 0 -70 20q-22 17 -22 48zM3 560.5q-2 2.5 1 4.5
l76 86h1q4 0 6 -12t0 -15l-80 -64q-2 -2 -4 0.5z" />
    <glyph glyph-name="icircumflex" unicode="&#xee;" horiz-adv-x="417" 
d="M-32 350q0 42 35 99q1 2 6 3t10 1q14 0 10 -7q-21 -34 -32.5 -59t-11.5 -47q0 -20 12 -31q19 -18 62 -18q63 0 160 37q60 23 113.5 53.5t84.5 58.5q3 3 5.5 0t-0.5 -6q-29 -27 -84 -58t-116 -56q-96 -38 -162 -38q-44 0 -70 20q-22 17 -22 48zM-39 556.5q-2 2.5 1 4.5
l76 86h3l76 -86q3 -2 1 -4.5t-4 -0.5l-75 59l-74 -59q-2 -2 -4 0.5z" />
    <glyph glyph-name="idieresis" unicode="&#xef;" horiz-adv-x="417" 
d="M-32 350q0 42 35 99q1 2 6 3t10 1q14 0 10 -7q-21 -34 -32.5 -59t-11.5 -47q0 -20 12 -31q19 -18 62 -18q63 0 160 37q60 23 113.5 53.5t84.5 58.5q3 3 5.5 0t-0.5 -6q-29 -27 -84 -58t-116 -56q-96 -38 -162 -38q-44 0 -70 20q-22 17 -22 48zM18 617q3 0 6.5 -2t4.5 -3
l-6 -45q-2 -5 -7.5 -5.5t-6.5 4.5l2 47q3 4 7 4zM48 614q4 0 7.5 -2t4.5 -3l-6 -45q-1 -6 -8 -6q-5 0 -7 4l3 48q1 4 6 4z" />
    <glyph glyph-name="eth" unicode="&#xf0;" horiz-adv-x="604" 
d="M551 275q0 -138 -65 -211.5t-185 -73.5q-110 0 -178 66.5t-68 176.5q0 112 63.5 176t171.5 64q110 0 156 -58l4 2q-29 104 -124 191l-130 -75l-38 55l112 64q-42 28 -90 53l36 60q76 -36 126 -72l115 67l38 -54l-99 -57q74 -68 114.5 -164.5t40.5 -209.5zM462 251
q0 70 -43 110.5t-116 40.5q-81 0 -120 -42.5t-39 -129.5q0 -81 41 -124.5t118 -43.5q83 0 121 48.5t38 140.5z" />
    <glyph glyph-name="ntilde" unicode="&#xf1;" horiz-adv-x="524" 
d="M21 467q0 -32 -4 -65q-6 -41 -17 -83q8 19 24 65q7 18 8 23q2 6 9.5 25.5t13.5 32t12 19.5q11 11 23 11q18 0 27 -17q9 -16 9 -44q-1 -26 -8 -64t-15 -76q-22 -93 -22 -136q0 -17 2 -24q6 -23 31 -23q51 0 152 77q76 58 156.5 139t101.5 112q2 5 6 2t1 -6
q-18 -30 -100 -111.5t-161 -142.5q-83 -62 -132 -74q-12 -4 -26 -4q-30 0 -39 28q-6 18 -6 43q0 39 15 120l5 30q18 80 18 128q0 4 -2 18q-5 17 -16 17q-12 0 -21.5 -19t-24.5 -60l-9 -26q-16 -48 -25 -67q-3 -4 -8.5 -14t-11 -16t-10.5 -5q-5 0 -2 5q16 51 21 108
q3 36 3 63q0 25 -2 37v1q0 5 10 5q4 0 8 -1t4 -3q2 -5 2 -28zM18 590q9 8 16.5 13t14.5 5q14 0 39 -15q24 -14 37 -16q25 0 58 25q2 3 5 0t0 -4q-39 -32 -66 -32q-12 0 -41 17q-21 12 -34 12q-10 0 -17.5 -4.5t-13.5 -10t-9 -7.5q-2 -2 -4 0.5t-1 3.5z" />
    <glyph glyph-name="ograve" unicode="&#xf2;" horiz-adv-x="558" 
d="M160.5 486.5q-1.5 -3.5 -5.5 -1.5q-24 12 -44 12q-65 0 -115 -108q-15 -39 -19 -66q-3 -13 -3 -27q0 -25 8 -36.5t21 -11.5q12 0 26 8q25 16 50 50q-23 12 -34 30.5t-11 39.5q0 27 17 53q14 23 32 36.5t34 13.5q13 0 20.5 -9.5t7.5 -27.5q0 -17 -9 -46q-18 -52 -45 -87
q36 -18 88 -18q51 0 116 18q73 19 144.5 56t118.5 75q2 3 5 -0.5t-1 -5.5q-47 -38 -119 -76t-146 -57q-63 -19 -116 -19q-55 0 -95 20q-28 -37 -54 -53q-15 -9 -30 -9q-25 0 -38 24q-6 12 -8 32q-1 5 -1 16q0 32 14 71q17 48 49 83q40 40 86 40q28 0 55 -14q3 -2 1.5 -5.5z
M111.5 358.5q10.5 19.5 16.5 40.5q8 27 8 41q0 15 -5.5 22.5t-15.5 7.5q-12 0 -27.5 -12t-29.5 -33q-15 -24 -15 -49q0 -41 41 -64q17 27 27.5 46.5zM46 631q0 8 2.5 14.5t5.5 5.5l76 -86q3 -2 1 -4.5t-4 -0.5l-80 64q-1 1 -1 7z" />
    <glyph glyph-name="oacute" unicode="&#xf3;" horiz-adv-x="558" 
d="M160.5 486.5q-1.5 -3.5 -5.5 -1.5q-24 12 -44 12q-65 0 -115 -108q-15 -39 -19 -66q-3 -13 -3 -27q0 -25 8 -36.5t21 -11.5q12 0 26 8q25 16 50 50q-23 12 -34 30.5t-11 39.5q0 27 17 53q14 23 32 36.5t34 13.5q13 0 20.5 -9.5t7.5 -27.5q0 -17 -9 -46q-18 -52 -45 -87
q36 -18 88 -18q51 0 116 18q73 19 144.5 56t118.5 75q2 3 5 -0.5t-1 -5.5q-47 -38 -119 -76t-146 -57q-63 -19 -116 -19q-55 0 -95 20q-28 -37 -54 -53q-15 -9 -30 -9q-25 0 -38 24q-6 12 -8 32q-1 5 -1 16q0 32 14 71q17 48 49 83q40 40 86 40q28 0 55 -14q3 -2 1.5 -5.5z
M111.5 358.5q10.5 19.5 16.5 40.5q8 27 8 41q0 15 -5.5 22.5t-15.5 7.5q-12 0 -27.5 -12t-29.5 -33q-15 -24 -15 -49q0 -41 41 -64q17 27 27.5 46.5zM44 561.5q-2 2.5 1 4.5l76 86h1q4 0 6 -12t0 -15l-80 -64q-2 -2 -4 0.5z" />
    <glyph glyph-name="ocircumflex" unicode="&#xf4;" horiz-adv-x="558" 
d="M160.5 486.5q-1.5 -3.5 -5.5 -1.5q-24 12 -44 12q-65 0 -115 -108q-15 -39 -19 -66q-3 -13 -3 -27q0 -25 8 -36.5t21 -11.5q12 0 26 8q25 16 50 50q-23 12 -34 30.5t-11 39.5q0 27 17 53q14 23 32 36.5t34 13.5q13 0 20.5 -9.5t7.5 -27.5q0 -17 -9 -46q-18 -52 -45 -87
q36 -18 88 -18q51 0 116 18q73 19 144.5 56t118.5 75q2 3 5 -0.5t-1 -5.5q-47 -38 -119 -76t-146 -57q-63 -19 -116 -19q-55 0 -95 20q-28 -37 -54 -53q-15 -9 -30 -9q-25 0 -38 24q-6 12 -8 32q-1 5 -1 16q0 32 14 71q17 48 49 83q40 40 86 40q28 0 55 -14q3 -2 1.5 -5.5z
M111.5 358.5q10.5 19.5 16.5 40.5q8 27 8 41q0 15 -5.5 22.5t-15.5 7.5q-12 0 -27.5 -12t-29.5 -33q-15 -24 -15 -49q0 -41 41 -64q17 27 27.5 46.5zM2 560.5q-2 2.5 1 4.5l76 86h3l76 -86q3 -2 1 -4.5t-4 -0.5l-75 59l-74 -59q-2 -2 -4 0.5z" />
    <glyph glyph-name="otilde" unicode="&#xf5;" horiz-adv-x="558" 
d="M160.5 486.5q-1.5 -3.5 -5.5 -1.5q-24 12 -44 12q-65 0 -115 -108q-15 -39 -19 -66q-3 -13 -3 -27q0 -25 8 -36.5t21 -11.5q12 0 26 8q25 16 50 50q-23 12 -34 30.5t-11 39.5q0 27 17 53q14 23 32 36.5t34 13.5q13 0 20.5 -9.5t7.5 -27.5q0 -17 -9 -46q-18 -52 -45 -87
q36 -18 88 -18q51 0 116 18q73 19 144.5 56t118.5 75q2 3 5 -0.5t-1 -5.5q-47 -38 -119 -76t-146 -57q-63 -19 -116 -19q-55 0 -95 20q-28 -37 -54 -53q-15 -9 -30 -9q-25 0 -38 24q-6 12 -8 32q-1 5 -1 16q0 32 14 71q17 48 49 83q40 40 86 40q28 0 55 -14q3 -2 1.5 -5.5z
M111.5 358.5q10.5 19.5 16.5 40.5q8 27 8 41q0 15 -5.5 22.5t-15.5 7.5q-12 0 -27.5 -12t-29.5 -33q-15 -24 -15 -49q0 -41 41 -64q17 27 27.5 46.5zM19 584q9 8 16.5 13t14.5 5q14 0 39 -15q24 -14 37 -16q25 0 58 25q2 3 5 0t0 -4q-39 -32 -66 -32q-12 0 -41 17
q-21 12 -34 12q-10 0 -17.5 -4.5t-13.5 -10t-9 -7.5q-2 -2 -4 0.5t-1 3.5z" />
    <glyph glyph-name="odieresis" unicode="&#xf6;" horiz-adv-x="558" 
d="M160.5 486.5q-1.5 -3.5 -5.5 -1.5q-24 12 -44 12q-65 0 -115 -108q-15 -39 -19 -66q-3 -13 -3 -27q0 -25 8 -36.5t21 -11.5q12 0 26 8q25 16 50 50q-23 12 -34 30.5t-11 39.5q0 27 17 53q14 23 32 36.5t34 13.5q13 0 20.5 -9.5t7.5 -27.5q0 -17 -9 -46q-18 -52 -45 -87
q36 -18 88 -18q51 0 116 18q73 19 144.5 56t118.5 75q2 3 5 -0.5t-1 -5.5q-47 -38 -119 -76t-146 -57q-63 -19 -116 -19q-55 0 -95 20q-28 -37 -54 -53q-15 -9 -30 -9q-25 0 -38 24q-6 12 -8 32q-1 5 -1 16q0 32 14 71q17 48 49 83q40 40 86 40q28 0 55 -14q3 -2 1.5 -5.5z
M111.5 358.5q10.5 19.5 16.5 40.5q8 27 8 41q0 15 -5.5 22.5t-15.5 7.5q-12 0 -27.5 -12t-29.5 -33q-15 -24 -15 -49q0 -41 41 -64q17 27 27.5 46.5zM66 618q3 0 6.5 -2t4.5 -3l-6 -45q-2 -5 -7.5 -5.5t-6.5 4.5l2 47q3 4 7 4zM96 615q4 0 7.5 -2t4.5 -3l-6 -45q-1 -6 -8 -6
q-5 0 -7 4l3 48q1 4 6 4z" />
    <glyph glyph-name="divide" unicode="&#xf7;" horiz-adv-x="550" 
d="M50 286v73h451v-73h-451zM219 156q0 17 4.5 28.5t12 19t17.5 10.5t22 3q11 0 21.5 -3t18 -10.5t12 -19t4.5 -28.5q0 -16 -4.5 -27.5t-12 -19t-18 -11t-21.5 -3.5q-12 0 -22 3.5t-17.5 11t-12 19t-4.5 27.5zM219 497q0 17 4.5 28.5t12 19t17.5 10.5t22 3q11 0 21.5 -3
t18 -10.5t12 -19t4.5 -28.5q0 -16 -4.5 -27.5t-12 -19t-18 -11t-21.5 -3.5q-12 0 -22 3.5t-17.5 11t-12 19t-4.5 27.5zM221 622z" />
    <glyph glyph-name="oslash" unicode="&#xf8;" horiz-adv-x="558" 
d="M-36 264q-6 12 -8 32q-1 5 -1 16q0 32 14 71q17 48 49 83q39 41 84 41q5 0 17 -2l20 39l4 -2l-19 -38q17 -3 35 -12q3 -2 1.5 -5.5t-5.5 -1.5q-18 9 -36 11l-9 -18q15 3 24.5 -6.5t9.5 -30.5t-8 -45q-18 -52 -45 -87q36 -18 88 -18q51 0 116 18q73 19 144.5 56t118.5 75
q2 3 5 -0.5t-1 -5.5q-47 -38 -119 -76t-146 -57q-63 -19 -116 -19q-55 0 -95 20q-28 -37 -54 -53q-14 -10 -29 -10q-7 0 -14 3l-25 -48l-4 2l25 47q-12 6 -21 21zM104 477l10 19q-67 4 -118 -107q-15 -39 -19 -66q-3 -13 -3 -27q0 -15 4 -26q3 -10 11 -18l50 97q-5 10 -5 26
q0 26 17 54q21 35 53 48zM111.5 358.5q10.5 19.5 16.5 40.5q8 23 8 41q0 30 -22 30q-6 0 -9 -1l-59 -115q12 -28 38 -42q17 27 27.5 46.5zM41 344l-48 -94q3 -2 10 -2q12 0 26 8q25 16 50 50q-27 14 -38 38zM43 374q0 -9 1 -14l55 106q-24 -11 -41 -41q-15 -25 -15 -51z" />
    <glyph glyph-name="ugrave" unicode="&#xf9;" horiz-adv-x="571" 
d="M-36 299q6 44 24 104l8 30q13 48 13 63q0 2 4 3.5t9 1.5q10 0 10 -5q-1 -35 -28 -104q-30 -88 -30 -117q0 -14 5 -21.5t14 -7.5q14 0 31 15q26 22 58 72t58 101q3 7 8.5 23t10.5 25q9 17 15 17q2 0 2 -4q0 -7 -5 -17l-20 -41l-4 -7q-6 -17 -15 -61q-5 -27 -5 -43
q0 -28 11 -37q13 -11 39 -11q48 0 131.5 29t160.5 68.5t102 64.5q3 3 5.5 0t-0.5 -6q-27 -26 -103.5 -65.5t-160 -69t-134.5 -29.5q-31 0 -45 13q-13 12 -13 43q0 17 5 44q2 20 5 28q-60 -110 -103 -143q-19 -16 -36 -16q-13 0 -21 11.5t-7 34.5zM51 631q0 8 2.5 14.5
t5.5 5.5l76 -86q3 -2 1 -4.5t-4 -0.5l-80 64q-1 1 -1 7z" />
    <glyph glyph-name="uacute" unicode="&#xfa;" horiz-adv-x="571" 
d="M-36 299q6 44 24 104l8 30q13 48 13 63q0 2 4 3.5t9 1.5q10 0 10 -5q-1 -35 -28 -104q-30 -88 -30 -117q0 -14 5 -21.5t14 -7.5q14 0 31 15q26 22 58 72t58 101q3 7 8.5 23t10.5 25q9 17 15 17q2 0 2 -4q0 -7 -5 -17l-20 -41l-4 -7q-6 -17 -15 -61q-5 -27 -5 -43
q0 -28 11 -37q13 -11 39 -11q48 0 131.5 29t160.5 68.5t102 64.5q3 3 5.5 0t-0.5 -6q-27 -26 -103.5 -65.5t-160 -69t-134.5 -29.5q-31 0 -45 13q-13 12 -13 43q0 17 5 44q2 20 5 28q-60 -110 -103 -143q-19 -16 -36 -16q-13 0 -21 11.5t-7 34.5zM61 560.5q-2 2.5 1 4.5
l76 86h1q4 0 6 -12t0 -15l-80 -64q-2 -2 -4 0.5z" />
    <glyph glyph-name="ucircumflex" unicode="&#xfb;" horiz-adv-x="571" 
d="M-36 299q6 44 24 104l8 30q13 48 13 63q0 2 4 3.5t9 1.5q10 0 10 -5q-1 -35 -28 -104q-30 -88 -30 -117q0 -14 5 -21.5t14 -7.5q14 0 31 15q26 22 58 72t58 101q3 7 8.5 23t10.5 25q9 17 15 17q2 0 2 -4q0 -7 -5 -17l-20 -41l-4 -7q-6 -17 -15 -61q-5 -27 -5 -43
q0 -28 11 -37q13 -11 39 -11q48 0 131.5 29t160.5 68.5t102 64.5q3 3 5.5 0t-0.5 -6q-27 -26 -103.5 -65.5t-160 -69t-134.5 -29.5q-31 0 -45 13q-13 12 -13 43q0 17 5 44q2 20 5 28q-60 -110 -103 -143q-19 -16 -36 -16q-13 0 -21 11.5t-7 34.5zM23 560.5q-2 2.5 1 4.5
l76 86h3l76 -86q3 -2 1 -4.5t-4 -0.5l-75 59l-74 -59q-2 -2 -4 0.5z" />
    <glyph glyph-name="udieresis" unicode="&#xfc;" horiz-adv-x="571" 
d="M-36 299q6 44 24 104l8 30q13 48 13 63q0 2 4 3.5t9 1.5q10 0 10 -5q-1 -35 -28 -104q-30 -88 -30 -117q0 -14 5 -21.5t14 -7.5q14 0 31 15q26 22 58 72t58 101q3 7 8.5 23t10.5 25q9 17 15 17q2 0 2 -4q0 -7 -5 -17l-20 -41l-4 -7q-6 -17 -15 -61q-5 -27 -5 -43
q0 -28 11 -37q13 -11 39 -11q48 0 131.5 29t160.5 68.5t102 64.5q3 3 5.5 0t-0.5 -6q-27 -26 -103.5 -65.5t-160 -69t-134.5 -29.5q-31 0 -45 13q-13 12 -13 43q0 17 5 44q2 20 5 28q-60 -110 -103 -143q-19 -16 -36 -16q-13 0 -21 11.5t-7 34.5zM78 617q3 0 6.5 -2t4.5 -3
l-6 -45q-2 -5 -7.5 -5.5t-6.5 4.5l2 47q3 4 7 4zM108 614q4 0 7.5 -2t4.5 -3l-6 -45q-1 -6 -8 -6q-5 0 -7 4l3 48q1 4 6 4z" />
    <glyph glyph-name="yacute" unicode="&#xfd;" horiz-adv-x="606" 
d="M194 436q0 -55 -11 -137q34 15 70 24t101 22q94 19 152.5 38.5t99.5 56.5q3 3 5.5 0t-0.5 -6q-42 -39 -103 -59.5t-152 -37.5q-60 -11 -100 -21.5t-74 -25.5q-13 -95 -43 -223q-46 -192 -117.5 -398.5t-155.5 -379.5q-74 -154 -153 -263t-153 -152q-43 -23 -83 -23
q-50 0 -85 34q-38 37 -38 107q0 52 20 123q38 134 160 353q95 168 219.5 343.5t232 304t150.5 158.5l24 14q11 74 11 142q0 35 -2 50q-37 -80 -87 -161t-89 -81q-2 0 -3 1h-5q-22 8 -22 43q0 38 25 121q7 21 14 49.5t7 43.5q0 2 4 3.5t9 1.5q10 0 10 -5q-1 -16 -7.5 -40.5
t-12.5 -40.5t-8 -23q-17 -51 -24 -75.5t-7 -42.5q0 -24 16 -27l1 -1h1q31 -2 72 60.5t84 149.5l17 32l3 8q3 4 9 4q5 0 9 -1.5t5 -3.5q4 -23 4 -59zM-152 -719q81 165 149.5 366.5t115.5 396.5q29 121 46 234q-6 -3 -10 -6t-8 -5q-42 -28 -148.5 -155.5t-231 -303.5
t-220.5 -344q-119 -211 -159 -351q-20 -69 -20 -121q0 -67 36 -102q31 -31 79 -31q42 0 78 22q136 78 293 400zM59 560.5q-2 2.5 1 4.5l76 86h1q4 0 6 -12t0 -15l-80 -64q-2 -2 -4 0.5z" />
    <glyph glyph-name="thorn" unicode="&#xfe;" horiz-adv-x="615" 
d="M174 464q33 44 73.5 63t92.5 19q104 0 162 -73t58 -204t-58 -205t-162 -74q-108 0 -167 78h-6q6 -64 6 -84v-224h-88v1000h88v-224q0 -34 -3 -72h4zM325 472q-79 0 -115 -43.5t-37 -140.5v-19q0 -109 36 -157.5t117 -48.5q143 0 143 207q0 102 -35 152t-109 50z" />
    <glyph glyph-name="ydieresis" unicode="&#xff;" horiz-adv-x="606" 
d="M194 436q0 -55 -11 -137q34 15 70 24t101 22q94 19 152.5 38.5t99.5 56.5q3 3 5.5 0t-0.5 -6q-42 -39 -103 -59.5t-152 -37.5q-60 -11 -100 -21.5t-74 -25.5q-13 -95 -43 -223q-46 -192 -117.5 -398.5t-155.5 -379.5q-74 -154 -153 -263t-153 -152q-43 -23 -83 -23
q-50 0 -85 34q-38 37 -38 107q0 52 20 123q38 134 160 353q95 168 219.5 343.5t232 304t150.5 158.5l24 14q11 74 11 142q0 35 -2 50q-37 -80 -87 -161t-89 -81q-2 0 -3 1h-5q-22 8 -22 43q0 38 25 121q7 21 14 49.5t7 43.5q0 2 4 3.5t9 1.5q10 0 10 -5q-1 -16 -7.5 -40.5
t-12.5 -40.5t-8 -23q-17 -51 -24 -75.5t-7 -42.5q0 -24 16 -27l1 -1h1q31 -2 72 60.5t84 149.5l17 32l3 8q3 4 9 4q5 0 9 -1.5t5 -3.5q4 -23 4 -59zM-152 -719q81 165 149.5 366.5t115.5 396.5q29 121 46 234q-6 -3 -10 -6t-8 -5q-42 -28 -148.5 -155.5t-231 -303.5
t-220.5 -344q-119 -211 -159 -351q-20 -69 -20 -121q0 -67 36 -102q31 -31 79 -31q42 0 78 22q136 78 293 400zM80 617q3 0 6.5 -2t4.5 -3l-6 -45q-2 -5 -7.5 -5.5t-6.5 4.5l2 47q3 4 7 4zM110 614q4 0 7.5 -2t4.5 -3l-6 -45q-1 -6 -8 -6q-5 0 -7 4l3 48q1 4 6 4z" />
    <glyph glyph-name="Amacron" unicode="&#x100;" horiz-adv-x="639" 
d="M178 842h297v-71h-297v71zM-86 252q-5 2 -1 5q1 5 5 1q51 -38 129 -38q76 0 176.5 32.5t204.5 81.5t272 133q107 56 226 112q127 286 285 666l24 57q124 297 197.5 462t136.5 268t104 99v-1q49 -4 49 -108q0 -26 -3 -56q-9 -108 -48.5 -274.5t-118.5 -461.5
q4 14 -32 -120q-40 -146 -94 -350q75 13 132 13q128 0 222 -57h1q2 -2 1 -5q-1 -4 -5 -2q-83 47 -196 47q-71 0 -161 -19q-109 -416 -176.5 -764.5t-75.5 -614.5l-1 -46q0 -270 80 -422t261 -163h3q1 -1 6 -1h20q4 0 4 -4t-4 -4h-19q-7 0 -8 1h-1q-193 9 -278.5 171
t-85.5 447q0 267 65.5 616.5t176.5 776.5q-103 -25 -217 -70t-247 -108q-248 -553 -473.5 -889t-432.5 -358q-4 0 -4 4q-1 4 3 4q202 22 427 356t469 878l-41 -19q-23 -11 -58.5 -28t-82.5 -41q-177 -86 -283.5 -133.5t-210.5 -80.5t-184 -33q-48 0 -82 11h-1q-34 12 -55 29
zM1178.5 688.5q112.5 42.5 214.5 64.5q53 209 118 443l24 89q77 284 116.5 445t49.5 260q3 33 3 57q0 76 -34 76q-39 0 -104.5 -111.5t-146.5 -294t-201 -475.5q-181 -434 -281 -658q129 62 241.5 104.5z" />
    <glyph glyph-name="amacron" unicode="&#x101;" horiz-adv-x="561" 
d="M143 677h297v-71h-297v71zM-35 355q0 11 5 31q11 32 31 58q22 30 51 48q22 13 46 13q32 0 59 -24q4 8 11 15q0 3 15 3q14 0 9 -7l-8 -11q-31 -44 -50 -78t-19 -61q0 -32 31 -44q19 -6 46 -8q64 0 161 38q60 23 113.5 53.5t84.5 58.5q3 3 5.5 0t-0.5 -6q-29 -27 -84 -58
t-116 -56q-99 -38 -163 -38q-26 0 -50 9q-41 16 -41 58q0 10 4 30q7 22 18 46q-40 -49 -71.5 -79t-55.5 -30q-8 0 -15 4q-17 10 -17 35zM37 452q-19 -19 -41 -59q-15 -30 -15 -52q0 -12 5 -14q5 -3 11 -3q28 0 66 42t89 109q-17 14 -31 19q-40 6 -84 -42z" />
    <glyph glyph-name="Abreve" unicode="&#x102;" horiz-adv-x="639" 
d="M316 771q-69 0 -108.5 33.5t-44.5 100.5h54q4 -35 24.5 -49t76.5 -14q49 0 73 15.5t28 47.5h55q-6 -64 -48 -99t-110 -35zM-86 252q-5 2 -1 5q1 5 5 1q51 -38 129 -38q76 0 176.5 32.5t204.5 81.5t272 133q107 56 226 112q127 286 285 666l24 57q124 297 197.5 462
t136.5 268t104 99v-1q49 -4 49 -108q0 -26 -3 -56q-9 -108 -48.5 -274.5t-118.5 -461.5q4 14 -32 -120q-40 -146 -94 -350q75 13 132 13q128 0 222 -57h1q2 -2 1 -5q-1 -4 -5 -2q-83 47 -196 47q-71 0 -161 -19q-109 -416 -176.5 -764.5t-75.5 -614.5l-1 -46q0 -270 80 -422
t261 -163h3q1 -1 6 -1h20q4 0 4 -4t-4 -4h-19q-7 0 -8 1h-1q-193 9 -278.5 171t-85.5 447q0 267 65.5 616.5t176.5 776.5q-103 -25 -217 -70t-247 -108q-248 -553 -473.5 -889t-432.5 -358q-4 0 -4 4q-1 4 3 4q202 22 427 356t469 878l-41 -19q-23 -11 -58.5 -28t-82.5 -41
q-177 -86 -283.5 -133.5t-210.5 -80.5t-184 -33q-48 0 -82 11h-1q-34 12 -55 29zM1178.5 688.5q112.5 42.5 214.5 64.5q53 209 118 443l24 89q77 284 116.5 445t49.5 260q3 33 3 57q0 76 -34 76q-39 0 -104.5 -111.5t-146.5 -294t-201 -475.5q-181 -434 -281 -658
q129 62 241.5 104.5z" />
    <glyph glyph-name="abreve" unicode="&#x103;" horiz-adv-x="561" 
d="M281 606q-69 0 -108.5 33.5t-44.5 100.5h54q4 -35 24.5 -49t76.5 -14q49 0 73 15.5t28 47.5h55q-6 -64 -48 -99t-110 -35zM-35 355q0 11 5 31q11 32 31 58q22 30 51 48q22 13 46 13q32 0 59 -24q4 8 11 15q0 3 15 3q14 0 9 -7l-8 -11q-31 -44 -50 -78t-19 -61
q0 -32 31 -44q19 -6 46 -8q64 0 161 38q60 23 113.5 53.5t84.5 58.5q3 3 5.5 0t-0.5 -6q-29 -27 -84 -58t-116 -56q-99 -38 -163 -38q-26 0 -50 9q-41 16 -41 58q0 10 4 30q7 22 18 46q-40 -49 -71.5 -79t-55.5 -30q-8 0 -15 4q-17 10 -17 35zM37 452q-19 -19 -41 -59
q-15 -30 -15 -52q0 -12 5 -14q5 -3 11 -3q28 0 66 42t89 109q-17 14 -31 19q-40 6 -84 -42z" />
    <glyph glyph-name="Aogonek" unicode="&#x104;" horiz-adv-x="639" 
d="M540 -116q0 -22 12 -33.5t33 -11.5t48 6v-56q-34 -9 -62 -9q-103 0 -103 94q0 68 78 126h62q-34 -32 -51 -58.5t-17 -57.5zM-86 252q-5 2 -1 5q1 5 5 1q51 -38 129 -38q76 0 176.5 32.5t204.5 81.5t272 133q107 56 226 112q127 286 285 666l24 57q124 297 197.5 462
t136.5 268t104 99v-1q49 -4 49 -108q0 -26 -3 -56q-9 -108 -48.5 -274.5t-118.5 -461.5q4 14 -32 -120q-40 -146 -94 -350q75 13 132 13q128 0 222 -57h1q2 -2 1 -5q-1 -4 -5 -2q-83 47 -196 47q-71 0 -161 -19q-109 -416 -176.5 -764.5t-75.5 -614.5l-1 -46q0 -270 80 -422
t261 -163h3q1 -1 6 -1h20q4 0 4 -4t-4 -4h-19q-7 0 -8 1h-1q-193 9 -278.5 171t-85.5 447q0 267 65.5 616.5t176.5 776.5q-103 -25 -217 -70t-247 -108q-248 -553 -473.5 -889t-432.5 -358q-4 0 -4 4q-1 4 3 4q202 22 427 356t469 878l-41 -19q-23 -11 -58.5 -28t-82.5 -41
q-177 -86 -283.5 -133.5t-210.5 -80.5t-184 -33q-48 0 -82 11h-1q-34 12 -55 29zM1178.5 688.5q112.5 42.5 214.5 64.5q53 209 118 443l24 89q77 284 116.5 445t49.5 260q3 33 3 57q0 76 -34 76q-39 0 -104.5 -111.5t-146.5 -294t-201 -475.5q-181 -434 -281 -658
q129 62 241.5 104.5z" />
    <glyph glyph-name="aogonek" unicode="&#x105;" horiz-adv-x="561" 
d="M410 -116q0 -22 12 -33.5t33 -11.5t48 6v-56q-34 -9 -62 -9q-103 0 -103 94q0 68 78 126h62q-34 -32 -51 -58.5t-17 -57.5zM-35 355q0 11 5 31q11 32 31 58q22 30 51 48q22 13 46 13q32 0 59 -24q4 8 11 15q0 3 15 3q14 0 9 -7l-8 -11q-31 -44 -50 -78t-19 -61
q0 -32 31 -44q19 -6 46 -8q64 0 161 38q60 23 113.5 53.5t84.5 58.5q3 3 5.5 0t-0.5 -6q-29 -27 -84 -58t-116 -56q-99 -38 -163 -38q-26 0 -50 9q-41 16 -41 58q0 10 4 30q7 22 18 46q-40 -49 -71.5 -79t-55.5 -30q-8 0 -15 4q-17 10 -17 35zM37 452q-19 -19 -41 -59
q-15 -30 -15 -52q0 -12 5 -14q5 -3 11 -3q28 0 66 42t89 109q-17 14 -31 19q-40 6 -84 -42z" />
    <glyph glyph-name="Cacute" unicode="&#x106;" horiz-adv-x="631" 
d="M1498 1891.5q-202 -153.5 -405 -388t-386 -517.5q-159 -244 -289 -498t-219 -498q-78 -214 -120 -406t-42 -349q0 -59 6 -113q26 -212 124.5 -310t246.5 -98q105 0 224.5 44.5t234.5 119t210 165.5q244 230 503.5 592t512.5 809q2 4 5.5 2t1.5 -5
q-251 -446 -511.5 -809.5t-505.5 -594.5q-97 -92 -213.5 -166.5t-237 -118t-226.5 -43.5q-155 0 -258 101.5t-132 322.5q-7 55 -7 124q0 310 155 739q87 243 214 494.5t283 492.5q187 288 394 524.5t416 391t394 194.5q67 14 123 14q125 0 200 -64t75 -193q0 -11 -2 -37
q-17 -180 -160 -463q-2 -3 -5.5 -1.5t-1.5 5.5q142 279 159 460q2 26 2 37q0 124 -72.5 186t-192.5 62q-56 0 -121 -14q-175 -40 -377 -193.5zM226 721.5q-2 2.5 1 4.5l76 86h1q4 0 6 -12t0 -15l-80 -64q-2 -2 -4 0.5z" />
    <glyph glyph-name="cacute" unicode="&#x107;" horiz-adv-x="479" 
d="M-40 360q-40 -60 -58 -114q-14 -39 -14 -70q0 -13 3 -25q7 -24 31 -35q15 -6 34 -6q63 0 188 67q72 40 149 94t136 101.5t79 67.5q3 3 5.5 0t0.5 -6q-19 -19 -79 -67t-137 -102t-150 -95q-124 -67 -193 -67q-21 0 -36 6q-48 18 -48 79q0 15 3 31q12 69 66 153
q57 83 118 117q34 18 61 18q37 0 62 -29q4 -3 0.5 -5t-6.5 0q-23 24 -49 24t-58 -24q-58 -39 -108 -113zM132 556.5q-2 2.5 1 4.5l76 86h1q4 0 6 -12t0 -15l-80 -64q-2 -2 -4 0.5z" />
    <glyph glyph-name="Ccircumflex" unicode="&#x108;" horiz-adv-x="631" 
d="M117 721.5q-2 2.5 1 4.5l76 86h3l76 -86q3 -2 1 -4.5t-4 -0.5l-75 59l-74 -59q-2 -2 -4 0.5zM1498 1891.5q-202 -153.5 -405 -388t-386 -517.5q-159 -244 -289 -498t-219 -498q-78 -214 -120 -406t-42 -349q0 -59 6 -113q26 -212 124.5 -310t246.5 -98q105 0 224.5 44.5
t234.5 119t210 165.5q244 230 503.5 592t512.5 809q2 4 5.5 2t1.5 -5q-251 -446 -511.5 -809.5t-505.5 -594.5q-97 -92 -213.5 -166.5t-237 -118t-226.5 -43.5q-155 0 -258 101.5t-132 322.5q-7 55 -7 124q0 310 155 739q87 243 214 494.5t283 492.5q187 288 394 524.5
t416 391t394 194.5q67 14 123 14q125 0 200 -64t75 -193q0 -11 -2 -37q-17 -180 -160 -463q-2 -3 -5.5 -1.5t-1.5 5.5q142 279 159 460q2 26 2 37q0 124 -72.5 186t-192.5 62q-56 0 -121 -14q-175 -40 -377 -193.5z" />
    <glyph glyph-name="ccircumflex" unicode="&#x109;" horiz-adv-x="479" 
d="M15 556.5q-2 2.5 1 4.5l76 86h3l76 -86q3 -2 1 -4.5t-4 -0.5l-75 59l-74 -59q-2 -2 -4 0.5zM-40 360q-40 -60 -58 -114q-14 -39 -14 -70q0 -13 3 -25q7 -24 31 -35q15 -6 34 -6q63 0 188 67q72 40 149 94t136 101.5t79 67.5q3 3 5.5 0t0.5 -6q-19 -19 -79 -67t-137 -102
t-150 -95q-124 -67 -193 -67q-21 0 -36 6q-48 18 -48 79q0 15 3 31q12 69 66 153q57 83 118 117q34 18 61 18q37 0 62 -29q4 -3 0.5 -5t-6.5 0q-23 24 -49 24t-58 -24q-58 -39 -108 -113z" />
    <glyph glyph-name="Cdotaccent" unicode="&#x10a;" horiz-adv-x="631" 
d="M337 846q0 29 15 42.5t37 13.5q21 0 36 -13.5t15 -42.5t-15.5 -42.5t-35.5 -13.5q-22 0 -37 13.5t-15 42.5zM1498 1891.5q-202 -153.5 -405 -388t-386 -517.5q-159 -244 -289 -498t-219 -498q-78 -214 -120 -406t-42 -349q0 -59 6 -113q26 -212 124.5 -310t246.5 -98
q105 0 224.5 44.5t234.5 119t210 165.5q244 230 503.5 592t512.5 809q2 4 5.5 2t1.5 -5q-251 -446 -511.5 -809.5t-505.5 -594.5q-97 -92 -213.5 -166.5t-237 -118t-226.5 -43.5q-155 0 -258 101.5t-132 322.5q-7 55 -7 124q0 310 155 739q87 243 214 494.5t283 492.5
q187 288 394 524.5t416 391t394 194.5q67 14 123 14q125 0 200 -64t75 -193q0 -11 -2 -37q-17 -180 -160 -463q-2 -3 -5.5 -1.5t-1.5 5.5q142 279 159 460q2 26 2 37q0 124 -72.5 186t-192.5 62q-56 0 -121 -14q-175 -40 -377 -193.5z" />
    <glyph glyph-name="cdotaccent" unicode="&#x10b;" horiz-adv-x="479" 
d="M241 681q0 29 15 42.5t37 13.5q21 0 36 -13.5t15 -42.5t-15.5 -42.5t-35.5 -13.5q-22 0 -37 13.5t-15 42.5zM-40 360q-40 -60 -58 -114q-14 -39 -14 -70q0 -13 3 -25q7 -24 31 -35q15 -6 34 -6q63 0 188 67q72 40 149 94t136 101.5t79 67.5q3 3 5.5 0t0.5 -6
q-19 -19 -79 -67t-137 -102t-150 -95q-124 -67 -193 -67q-21 0 -36 6q-48 18 -48 79q0 15 3 31q12 69 66 153q57 83 118 117q34 18 61 18q37 0 62 -29q4 -3 0.5 -5t-6.5 0q-23 24 -49 24t-58 -24q-58 -39 -108 -113z" />
    <glyph glyph-name="Ccaron" unicode="&#x10c;" horiz-adv-x="631" 
d="M270 810q2 2 4 -0.5t-1 -4.5l-76 -86h-3l-76 86q-3 2 -1 4.5t4 0.5l74 -59zM1498 1891.5q-202 -153.5 -405 -388t-386 -517.5q-159 -244 -289 -498t-219 -498q-78 -214 -120 -406t-42 -349q0 -59 6 -113q26 -212 124.5 -310t246.5 -98q105 0 224.5 44.5t234.5 119
t210 165.5q244 230 503.5 592t512.5 809q2 4 5.5 2t1.5 -5q-251 -446 -511.5 -809.5t-505.5 -594.5q-97 -92 -213.5 -166.5t-237 -118t-226.5 -43.5q-155 0 -258 101.5t-132 322.5q-7 55 -7 124q0 310 155 739q87 243 214 494.5t283 492.5q187 288 394 524.5t416 391
t394 194.5q67 14 123 14q125 0 200 -64t75 -193q0 -11 -2 -37q-17 -180 -160 -463q-2 -3 -5.5 -1.5t-1.5 5.5q142 279 159 460q2 26 2 37q0 124 -72.5 186t-192.5 62q-56 0 -121 -14q-175 -40 -377 -193.5z" />
    <glyph glyph-name="ccaron" unicode="&#x10d;" horiz-adv-x="479" 
d="M172 645q2 2 4 -0.5t-1 -4.5l-76 -86h-3l-76 86q-3 2 -1 4.5t4 0.5l74 -59zM-40 360q-40 -60 -58 -114q-14 -39 -14 -70q0 -13 3 -25q7 -24 31 -35q15 -6 34 -6q63 0 188 67q72 40 149 94t136 101.5t79 67.5q3 3 5.5 0t0.5 -6q-19 -19 -79 -67t-137 -102t-150 -95
q-124 -67 -193 -67q-21 0 -36 6q-48 18 -48 79q0 15 3 31q12 69 66 153q57 83 118 117q34 18 61 18q37 0 62 -29q4 -3 0.5 -5t-6.5 0q-23 24 -49 24t-58 -24q-58 -39 -108 -113z" />
    <glyph glyph-name="Dcaron" unicode="&#x10e;" horiz-adv-x="729" 
d="M220 810q2 2 4 -0.5t-1 -4.5l-76 -86h-3l-76 86q-3 2 -1 4.5t4 0.5l74 -59zM822 -972q0 120 77 279q104 212 310 429q183 192 410.5 350.5t472.5 253t470 94.5q4 0 4 -4t-4 -4q-223 0 -467 -94.5t-471 -252.5t-409 -349q-203 -211 -309 -427q-75 -152 -75 -274
q0 -48 12 -90q23 -81 92.5 -132.5t158 -74.5t175.5 -23q212 0 445.5 115.5t463 319t438.5 468.5q197 252 357 528.5t260 546.5q150 401 150 712q0 144 -32 259q-61 220 -226 328.5t-407 123.5q-44 2 -66 2q-228 0 -473 -84.5t-498 -238.5q-5 -90 -20 -184
q-45 -269 -192 -665q-109 -291 -371 -815.5t-563.5 -952t-524.5 -453.5q-4 0 -4.5 4t3.5 4q168 21 435 366t540 857t456 998q139 372 189 636q20 108 26 189q-285 -181 -550 -428.5t-472 -522.5q-267 -350 -395 -673q-97 -244 -97 -427q0 -67 14 -129q50 -212 272 -286
q4 -2 3 -5.5t-5 -2.5q-227 74 -277 292q-15 63 -15 133q0 184 98 428q128 325 396 675q212 278 477.5 527.5t550.5 428.5q1 17 1 51q0 109 -27 173q-42 98 -141 102h-23q-4 0 -4.5 4t4.5 4h24q98 -4 146 -83q51 -81 46 -235q243 149 487.5 234.5t492.5 85.5q38 0 57 -1
q251 -15 423.5 -127t237.5 -339q34 -120 34 -264q0 -310 -148 -702q-102 -269 -260.5 -544.5t-353.5 -522.5q-212 -268 -445 -474t-470.5 -324.5t-454.5 -120.5q-90 0 -182.5 23t-165.5 76t-98 137q-13 42 -13 92z" />
    <glyph glyph-name="dcaron" unicode="&#x10f;" horiz-adv-x="615" 
d="M575 612q11 32 20.5 77.5t12.5 70.5h87v-9q-6 -26 -27 -71t-45 -80h-48v12zM46 348q-34 -31 -53 -31q-7 0 -11 3q-17 10 -17 35q0 14 6 32q5 18 21 45q11 18 33 42q39 39 80 39q21 0 39 -11q56 176 136 330.5t181.5 264t213.5 143.5q24 8 52 8q49 0 79.5 -30t30.5 -78
q0 -36 -19 -75q-40 -78 -132 -171q-105 -106 -249.5 -217.5t-276.5 -199.5q-12 -34 -23 -76t-15 -57l-10 -38q-44 -189 -48 -327l-1 -31q0 -125 35 -180q24 -39 65 -39q25 0 55 14q49 22 95.5 78.5t84.5 123t98 180.5q8 14 11 22q67 127 111 195.5t91 98.5q3 2 5.5 -1.5
t-1.5 -5.5q-46 -31 -89.5 -99.5t-110.5 -195.5q-4 -6 -10 -18q-58 -112 -97 -179.5t-86.5 -124.5t-97.5 -81q-30 -15 -59 -15q-50 0 -78 48q-37 62 -37 192q0 162 46 359l14 53q8 38 18 70q-35 -51 -80 -95zM456 701.5q127 96.5 225 198.5q94 96 130 169q18 39 18 71
q0 44 -28.5 72t-74.5 28q-22 0 -49 -8q-105 -34 -202 -144t-175.5 -266t-135.5 -333q165 116 292 212.5zM56 477q-27 -25 -53 -71q-22 -41 -20 -66q0 -10 3 -13q8 -5 21.5 2.5t32.5 24.5q36 33 94 113l8 27h-1q-16 9 -29 10q-24 0 -56 -27z" />
    <glyph glyph-name="Dcroat" unicode="&#x110;" horiz-adv-x="729" 
d="M1203 388q149 324 237 560q139 372 189 636q20 108 26 189q-285 -181 -550 -428.5t-472 -522.5q-267 -350 -395 -673q-97 -244 -97 -427q0 -67 14 -129q50 -212 272 -286q4 -2 3 -5.5t-5 -2.5q-227 74 -277 292q-15 63 -15 133q0 184 98 428q128 325 396 675
q212 278 477.5 527.5t550.5 428.5q1 17 1 51q0 109 -27 173q-42 98 -141 102h-23q-4 0 -4.5 4t4.5 4h24q98 -4 146 -83q51 -81 46 -235q243 149 487.5 234.5t492.5 85.5q38 0 57 -1q251 -15 423.5 -127t237.5 -339q34 -120 34 -264q0 -310 -148 -702
q-102 -269 -260.5 -544.5t-353.5 -522.5q-212 -268 -445 -474t-470.5 -324.5t-454.5 -120.5q-90 0 -182.5 23t-165.5 76t-98 137q-13 42 -13 92q0 120 77 279q104 212 310 429q183 192 410.5 350.5t472.5 253t470 94.5q4 0 4 -4t-4 -4q-223 0 -467 -94.5t-471 -252.5
t-409 -349q-203 -211 -309 -427q-75 -152 -75 -274q0 -48 12 -90q23 -81 92.5 -132.5t158 -74.5t175.5 -23q212 0 445.5 115.5t463 319t438.5 468.5q197 252 357 528.5t260 546.5q150 401 150 712q0 144 -32 259q-61 220 -226 328.5t-407 123.5q-44 2 -66 2
q-228 0 -473 -84.5t-498 -238.5q-5 -90 -20 -184q-45 -269 -192 -665q-36 -96 -99 -240.5t-143 -311.5h520v-11h-525q-188 -392 -399.5 -757.5t-428 -623t-384.5 -277.5q-4 0 -4.5 4t3.5 4q135 15 341 251.5t430 609.5t418 789h-626v11h631z" />
    <glyph glyph-name="dcroat" unicode="&#x111;" horiz-adv-x="617" 
d="M275 -10q-104 0 -162 72t-58 203q0 132 57.5 205t162.5 73q109 0 167 -79h6q-1 7 -3.5 33.5t-2.5 46.5v61h-213v66h213v89h88v-89h76v-66h-76v-605h-72l-13 72h-4q-56 -82 -166 -82zM290 63q80 0 116.5 43t36.5 142v17q0 112 -37 158.5t-118 46.5q-68 0 -104.5 -52
t-36.5 -154q0 -96 35 -148.5t108 -52.5z" />
    <glyph glyph-name="Emacron" unicode="&#x112;" horiz-adv-x="556" 
d="M148 842h297v-71h-297v71zM608 361q116 -146 430 -156q18 -1 54 -1q82 0 179 9l37 4h1q3 0 3.5 -3.5t-3.5 -4.5q-12 -3 -37 -5q-259 -34 -499 -174.5t-425 -341.5q-94 -103 -163.5 -211.5t-109.5 -213.5q-51 -130 -51 -237q0 -71 23 -131q36 -93 113 -136t177 -43
q72 0 151 21q184 49 409.5 197.5t467.5 364.5q211 190 409.5 406.5t345 411t211.5 323.5q2 4 5.5 2.5t1.5 -6.5q-65 -130 -211.5 -325t-345.5 -412t-411 -406q-241 -216 -468.5 -365t-412.5 -199q-74 -20 -149 -20q-108 0 -192.5 47t-124.5 146q-25 63 -25 139q0 104 45 223
q38 103 104.5 207.5t155.5 203.5q173 193 405 334.5t486 189.5q-54 -3 -104 -3q-34 0 -51 1q-336 10 -457 165q-66 83 -68 207q-283 -74 -533 -70q-4 1 -4 5t4 3q250 -4 533 70q2 89 28 172q65 220 262 486q145 195 335 377t383.5 311t348.5 172q76 21 138 21
q98 0 153 -49.5t55 -135.5q0 -85 -53 -190q-76 -150 -248 -333q-161 -170 -379.5 -332.5t-474.5 -294t-518 -204.5q-5 -128 64 -216zM1541 1912.5q-187 -128.5 -372.5 -309t-331.5 -375.5q-200 -269 -264 -486q-26 -86 -29 -157q261 73 515.5 204t471.5 293t379 332
q169 177 247 331q52 103 52 184q0 83 -52 131t-145 48q-62 0 -135 -22q-149 -45 -336 -173.5z" />
    <glyph glyph-name="emacron" unicode="&#x113;" horiz-adv-x="563" 
d="M150 677h297v-71h-297v71zM54 469q-41 -37 -87 -110q-13 -21 -35 -63q34 13 75 34t77 45q40 28 62 56q14 18 14 38q0 17 -10 27.5t-26 10.5q-15 0 -32 -10q-15 -7 -38 -28zM-90 245q-17 -45 -17 -79q0 -59 60 -59q16 0 44 6q71 16 172 68q107 56 218 133.5t161 125.5
q3 3 6 0t0 -6q-47 -47 -159.5 -125.5t-221.5 -134.5q-104 -54 -175 -69q-27 -5 -44 -5q-76 0 -76 76q0 16 3 34l8 35q3 8 8.5 24.5t11.5 28.5q21 44 29 58q46 77 100 124q22 20 45 30q17 6 31 6q23 0 38.5 -13t15.5 -34q0 -20 -16 -42q-22 -30 -64 -59q-36 -25 -80 -47
t-81 -35q-12 -25 -17 -41z" />
    <glyph glyph-name="Ebreve" unicode="&#x114;" horiz-adv-x="556" 
d="M299 771q-69 0 -108.5 33.5t-44.5 100.5h54q4 -35 24.5 -49t76.5 -14q49 0 73 15.5t28 47.5h55q-6 -64 -48 -99t-110 -35zM608 361q116 -146 430 -156q18 -1 54 -1q82 0 179 9l37 4h1q3 0 3.5 -3.5t-3.5 -4.5q-12 -3 -37 -5q-259 -34 -499 -174.5t-425 -341.5
q-94 -103 -163.5 -211.5t-109.5 -213.5q-51 -130 -51 -237q0 -71 23 -131q36 -93 113 -136t177 -43q72 0 151 21q184 49 409.5 197.5t467.5 364.5q211 190 409.5 406.5t345 411t211.5 323.5q2 4 5.5 2.5t1.5 -6.5q-65 -130 -211.5 -325t-345.5 -412t-411 -406
q-241 -216 -468.5 -365t-412.5 -199q-74 -20 -149 -20q-108 0 -192.5 47t-124.5 146q-25 63 -25 139q0 104 45 223q38 103 104.5 207.5t155.5 203.5q173 193 405 334.5t486 189.5q-54 -3 -104 -3q-34 0 -51 1q-336 10 -457 165q-66 83 -68 207q-283 -74 -533 -70q-4 1 -4 5
t4 3q250 -4 533 70q2 89 28 172q65 220 262 486q145 195 335 377t383.5 311t348.5 172q76 21 138 21q98 0 153 -49.5t55 -135.5q0 -85 -53 -190q-76 -150 -248 -333q-161 -170 -379.5 -332.5t-474.5 -294t-518 -204.5q-5 -128 64 -216zM1541 1912.5q-187 -128.5 -372.5 -309
t-331.5 -375.5q-200 -269 -264 -486q-26 -86 -29 -157q261 73 515.5 204t471.5 293t379 332q169 177 247 331q52 103 52 184q0 83 -52 131t-145 48q-62 0 -135 -22q-149 -45 -336 -173.5z" />
    <glyph glyph-name="ebreve" unicode="&#x115;" horiz-adv-x="563" 
d="M292 606q-69 0 -108.5 33.5t-44.5 100.5h54q4 -35 24.5 -49t76.5 -14q49 0 73 15.5t28 47.5h55q-6 -64 -48 -99t-110 -35zM54 469q-41 -37 -87 -110q-13 -21 -35 -63q34 13 75 34t77 45q40 28 62 56q14 18 14 38q0 17 -10 27.5t-26 10.5q-15 0 -32 -10q-15 -7 -38 -28z
M-90 245q-17 -45 -17 -79q0 -59 60 -59q16 0 44 6q71 16 172 68q107 56 218 133.5t161 125.5q3 3 6 0t0 -6q-47 -47 -159.5 -125.5t-221.5 -134.5q-104 -54 -175 -69q-27 -5 -44 -5q-76 0 -76 76q0 16 3 34l8 35q3 8 8.5 24.5t11.5 28.5q21 44 29 58q46 77 100 124
q22 20 45 30q17 6 31 6q23 0 38.5 -13t15.5 -34q0 -20 -16 -42q-22 -30 -64 -59q-36 -25 -80 -47t-81 -35q-12 -25 -17 -41z" />
    <glyph glyph-name="Edotaccent" unicode="&#x116;" horiz-adv-x="556" 
d="M253 832q0 29 15 42.5t37 13.5q21 0 36 -13.5t15 -42.5t-15.5 -42.5t-35.5 -13.5q-22 0 -37 13.5t-15 42.5zM608 361q116 -146 430 -156q18 -1 54 -1q82 0 179 9l37 4h1q3 0 3.5 -3.5t-3.5 -4.5q-12 -3 -37 -5q-259 -34 -499 -174.5t-425 -341.5q-94 -103 -163.5 -211.5
t-109.5 -213.5q-51 -130 -51 -237q0 -71 23 -131q36 -93 113 -136t177 -43q72 0 151 21q184 49 409.5 197.5t467.5 364.5q211 190 409.5 406.5t345 411t211.5 323.5q2 4 5.5 2.5t1.5 -6.5q-65 -130 -211.5 -325t-345.5 -412t-411 -406q-241 -216 -468.5 -365t-412.5 -199
q-74 -20 -149 -20q-108 0 -192.5 47t-124.5 146q-25 63 -25 139q0 104 45 223q38 103 104.5 207.5t155.5 203.5q173 193 405 334.5t486 189.5q-54 -3 -104 -3q-34 0 -51 1q-336 10 -457 165q-66 83 -68 207q-283 -74 -533 -70q-4 1 -4 5t4 3q250 -4 533 70q2 89 28 172
q65 220 262 486q145 195 335 377t383.5 311t348.5 172q76 21 138 21q98 0 153 -49.5t55 -135.5q0 -85 -53 -190q-76 -150 -248 -333q-161 -170 -379.5 -332.5t-474.5 -294t-518 -204.5q-5 -128 64 -216zM1541 1912.5q-187 -128.5 -372.5 -309t-331.5 -375.5
q-200 -269 -264 -486q-26 -86 -29 -157q261 73 515.5 204t471.5 293t379 332q169 177 247 331q52 103 52 184q0 83 -52 131t-145 48q-62 0 -135 -22q-149 -45 -336 -173.5z" />
    <glyph glyph-name="edotaccent" unicode="&#x117;" horiz-adv-x="563" 
d="M243 681q0 29 15 42.5t37 13.5q21 0 36 -13.5t15 -42.5t-15.5 -42.5t-35.5 -13.5q-22 0 -37 13.5t-15 42.5zM54 469q-41 -37 -87 -110q-13 -21 -35 -63q34 13 75 34t77 45q40 28 62 56q14 18 14 38q0 17 -10 27.5t-26 10.5q-15 0 -32 -10q-15 -7 -38 -28zM-90 245
q-17 -45 -17 -79q0 -59 60 -59q16 0 44 6q71 16 172 68q107 56 218 133.5t161 125.5q3 3 6 0t0 -6q-47 -47 -159.5 -125.5t-221.5 -134.5q-104 -54 -175 -69q-27 -5 -44 -5q-76 0 -76 76q0 16 3 34l8 35q3 8 8.5 24.5t11.5 28.5q21 44 29 58q46 77 100 124q22 20 45 30
q17 6 31 6q23 0 38.5 -13t15.5 -34q0 -20 -16 -42q-22 -30 -64 -59q-36 -25 -80 -47t-81 -35q-12 -25 -17 -41z" />
    <glyph glyph-name="Eogonek" unicode="&#x118;" horiz-adv-x="556" 
d="M392 -116q0 -22 12 -33.5t33 -11.5t48 6v-56q-34 -9 -62 -9q-103 0 -103 94q0 68 78 126h62q-34 -32 -51 -58.5t-17 -57.5zM608 361q116 -146 430 -156q18 -1 54 -1q82 0 179 9l37 4h1q3 0 3.5 -3.5t-3.5 -4.5q-12 -3 -37 -5q-259 -34 -499 -174.5t-425 -341.5
q-94 -103 -163.5 -211.5t-109.5 -213.5q-51 -130 -51 -237q0 -71 23 -131q36 -93 113 -136t177 -43q72 0 151 21q184 49 409.5 197.5t467.5 364.5q211 190 409.5 406.5t345 411t211.5 323.5q2 4 5.5 2.5t1.5 -6.5q-65 -130 -211.5 -325t-345.5 -412t-411 -406
q-241 -216 -468.5 -365t-412.5 -199q-74 -20 -149 -20q-108 0 -192.5 47t-124.5 146q-25 63 -25 139q0 104 45 223q38 103 104.5 207.5t155.5 203.5q173 193 405 334.5t486 189.5q-54 -3 -104 -3q-34 0 -51 1q-336 10 -457 165q-66 83 -68 207q-283 -74 -533 -70q-4 1 -4 5
t4 3q250 -4 533 70q2 89 28 172q65 220 262 486q145 195 335 377t383.5 311t348.5 172q76 21 138 21q98 0 153 -49.5t55 -135.5q0 -85 -53 -190q-76 -150 -248 -333q-161 -170 -379.5 -332.5t-474.5 -294t-518 -204.5q-5 -128 64 -216zM1541 1912.5q-187 -128.5 -372.5 -309
t-331.5 -375.5q-200 -269 -264 -486q-26 -86 -29 -157q261 73 515.5 204t471.5 293t379 332q169 177 247 331q52 103 52 184q0 83 -52 131t-145 48q-62 0 -135 -22q-149 -45 -336 -173.5z" />
    <glyph glyph-name="eogonek" unicode="&#x119;" horiz-adv-x="563" 
d="M387 -102q0 -22 12 -33.5t33 -11.5t48 6v-56q-34 -9 -62 -9q-103 0 -103 94q0 68 78 126h62q-34 -32 -51 -58.5t-17 -57.5zM54 469q-41 -37 -87 -110q-13 -21 -35 -63q34 13 75 34t77 45q40 28 62 56q14 18 14 38q0 17 -10 27.5t-26 10.5q-15 0 -32 -10q-15 -7 -38 -28z
M-90 245q-17 -45 -17 -79q0 -59 60 -59q16 0 44 6q71 16 172 68q107 56 218 133.5t161 125.5q3 3 6 0t0 -6q-47 -47 -159.5 -125.5t-221.5 -134.5q-104 -54 -175 -69q-27 -5 -44 -5q-76 0 -76 76q0 16 3 34l8 35q3 8 8.5 24.5t11.5 28.5q21 44 29 58q46 77 100 124
q22 20 45 30q17 6 31 6q23 0 38.5 -13t15.5 -34q0 -20 -16 -42q-22 -30 -64 -59q-36 -25 -80 -47t-81 -35q-12 -25 -17 -41z" />
    <glyph glyph-name="Ecaron" unicode="&#x11a;" horiz-adv-x="556" 
d="M183 810q2 2 4 -0.5t-1 -4.5l-76 -86h-3l-76 86q-3 2 -1 4.5t4 0.5l74 -59zM608 361q116 -146 430 -156q18 -1 54 -1q82 0 179 9l37 4h1q3 0 3.5 -3.5t-3.5 -4.5q-12 -3 -37 -5q-259 -34 -499 -174.5t-425 -341.5q-94 -103 -163.5 -211.5t-109.5 -213.5
q-51 -130 -51 -237q0 -71 23 -131q36 -93 113 -136t177 -43q72 0 151 21q184 49 409.5 197.5t467.5 364.5q211 190 409.5 406.5t345 411t211.5 323.5q2 4 5.5 2.5t1.5 -6.5q-65 -130 -211.5 -325t-345.5 -412t-411 -406q-241 -216 -468.5 -365t-412.5 -199q-74 -20 -149 -20
q-108 0 -192.5 47t-124.5 146q-25 63 -25 139q0 104 45 223q38 103 104.5 207.5t155.5 203.5q173 193 405 334.5t486 189.5q-54 -3 -104 -3q-34 0 -51 1q-336 10 -457 165q-66 83 -68 207q-283 -74 -533 -70q-4 1 -4 5t4 3q250 -4 533 70q2 89 28 172q65 220 262 486
q145 195 335 377t383.5 311t348.5 172q76 21 138 21q98 0 153 -49.5t55 -135.5q0 -85 -53 -190q-76 -150 -248 -333q-161 -170 -379.5 -332.5t-474.5 -294t-518 -204.5q-5 -128 64 -216zM1541 1912.5q-187 -128.5 -372.5 -309t-331.5 -375.5q-200 -269 -264 -486
q-26 -86 -29 -157q261 73 515.5 204t471.5 293t379 332q169 177 247 331q52 103 52 184q0 83 -52 131t-145 48q-62 0 -135 -22q-149 -45 -336 -173.5z" />
    <glyph glyph-name="ecaron" unicode="&#x11b;" horiz-adv-x="563" 
d="M176 645q2 2 4 -0.5t-1 -4.5l-76 -86h-3l-76 86q-3 2 -1 4.5t4 0.5l74 -59zM54 469q-41 -37 -87 -110q-13 -21 -35 -63q34 13 75 34t77 45q40 28 62 56q14 18 14 38q0 17 -10 27.5t-26 10.5q-15 0 -32 -10q-15 -7 -38 -28zM-90 245q-17 -45 -17 -79q0 -59 60 -59
q16 0 44 6q71 16 172 68q107 56 218 133.5t161 125.5q3 3 6 0t0 -6q-47 -47 -159.5 -125.5t-221.5 -134.5q-104 -54 -175 -69q-27 -5 -44 -5q-76 0 -76 76q0 16 3 34l8 35q3 8 8.5 24.5t11.5 28.5q21 44 29 58q46 77 100 124q22 20 45 30q17 6 31 6q23 0 38.5 -13t15.5 -34
q0 -20 -16 -42q-22 -30 -64 -59q-36 -25 -80 -47t-81 -35q-12 -25 -17 -41z" />
    <glyph glyph-name="Gcircumflex" unicode="&#x11c;" horiz-adv-x="728" 
d="M145 721.5q-2 2.5 1 4.5l76 86h3l76 -86q3 -2 1 -4.5t-4 -0.5l-75 59l-74 -59q-2 -2 -4 0.5zM1374 1992.5q-194 -116.5 -384 -310.5q-211 -214 -366 -466q-160 -259 -211 -472q-21 -88 -21 -160q0 -95 34.5 -162t96.5 -101t145 -34q132 0 289 85q109 60 216 151t197 191
q84 95 138 184q1 4 12 4q7 0 13 -1.5t6 -2.5q10 -41 10 -102q0 -109 -32.5 -263.5t-91.5 -336.5q-80 -244 -197 -494t-254 -460q-151 -230 -307.5 -378t-310.5 -184q-46 -12 -96 -12q-83 0 -147 37t-88 114q-15 48 -15 108q0 100 42 231q67 208 212 423q129 188 295.5 345
t362 257.5t397.5 111.5q4 0 4 -4t-4 -4q-201 -11 -395.5 -111t-360.5 -256.5t-292 -343.5q-145 -214 -212 -421q-41 -126 -41 -227q0 -59 15 -107q23 -75 85 -110t144 -35q45 0 92 11q148 37 300 180t295 364q132 205 246.5 450t193.5 485q62 185 95.5 347.5t33.5 276.5
q0 60 -8 96q-50 -82 -134 -178q-89 -99 -197.5 -190.5t-218.5 -152.5q-155 -85 -290 -85q-89 0 -157 38t-105.5 111t-37.5 175q0 72 19 154q42 187 172 412q128 220 303 417q212 238 442.5 385t426.5 147q103 2 157.5 -38.5t54.5 -123.5q0 -38 -10 -78q-26 -112 -127.5 -262
t-286.5 -330q-2 -2 -5 0.5t0 5.5q184 179 285 328t127 260q10 47 10 75q0 155 -206 155q-164 -2 -358 -118.5z" />
    <glyph glyph-name="gcircumflex" unicode="&#x11d;" horiz-adv-x="615" 
d="M29 556.5q-2 2.5 1 4.5l76 86h3l76 -86q3 -2 1 -4.5t-4 -0.5l-75 59l-74 -59q-2 -2 -4 0.5zM171 375q0 -32 -5 -80q36 16 76.5 26.5t102.5 23.5q92 19 150.5 38.5t101.5 56.5q3 3 5.5 0t-0.5 -6q-42 -39 -103 -59.5t-152 -37.5q-64 -13 -105.5 -23.5t-76.5 -27.5
q-10 -109 -48 -268q-43 -183 -113 -382t-152 -366q-73 -148 -149 -251.5t-149 -143.5q-43 -23 -85 -23q-46 0 -79.5 27.5t-41.5 79.5q-3 16 -3 35q0 53 20 121q38 135 160 352q96 168 220.5 344t231.5 304.5t150 158.5l16 9q4 45 4 93q0 37 -2 52q-16 -20 -42 -59
q-43 -64 -70 -96.5t-49 -32.5q-5 0 -8 1q-29 10 -29 56q0 16 2 25q5 38 21 72q19 39 45 67q42 47 91 47q26 0 54 -15q4 -1 2 -5q-1 -4 -6 -2q-23 12 -43 13q-35 -2 -66.5 -32.5t-52.5 -74.5q-16 -33 -22 -60q-7 -27 -7 -51q2 -27 14 -32q31 -10 118 125l16 23q18 26 32 44
q0 2 9 2q12 0 12 -4q5 -32 5 -64zM-308 -980q72 100 142 243q79 158 146.5 352.5t111.5 380.5q36 155 50 278q-2 -2 -4.5 -3.5t-5.5 -3.5q-42 -28 -148.5 -156t-231 -303.5t-220.5 -343.5q-119 -211 -159 -351q-20 -69 -20 -120q0 -18 3 -34q8 -48 39 -73.5t74 -25.5
q42 0 82 22q69 38 141 138z" />
    <glyph glyph-name="Gbreve" unicode="&#x11e;" horiz-adv-x="728" 
d="M414 771q-69 0 -108.5 33.5t-44.5 100.5h54q4 -35 24.5 -49t76.5 -14q49 0 73 15.5t28 47.5h55q-6 -64 -48 -99t-110 -35zM1374 1992.5q-194 -116.5 -384 -310.5q-211 -214 -366 -466q-160 -259 -211 -472q-21 -88 -21 -160q0 -95 34.5 -162t96.5 -101t145 -34
q132 0 289 85q109 60 216 151t197 191q84 95 138 184q1 4 12 4q7 0 13 -1.5t6 -2.5q10 -41 10 -102q0 -109 -32.5 -263.5t-91.5 -336.5q-80 -244 -197 -494t-254 -460q-151 -230 -307.5 -378t-310.5 -184q-46 -12 -96 -12q-83 0 -147 37t-88 114q-15 48 -15 108
q0 100 42 231q67 208 212 423q129 188 295.5 345t362 257.5t397.5 111.5q4 0 4 -4t-4 -4q-201 -11 -395.5 -111t-360.5 -256.5t-292 -343.5q-145 -214 -212 -421q-41 -126 -41 -227q0 -59 15 -107q23 -75 85 -110t144 -35q45 0 92 11q148 37 300 180t295 364
q132 205 246.5 450t193.5 485q62 185 95.5 347.5t33.5 276.5q0 60 -8 96q-50 -82 -134 -178q-89 -99 -197.5 -190.5t-218.5 -152.5q-155 -85 -290 -85q-89 0 -157 38t-105.5 111t-37.5 175q0 72 19 154q42 187 172 412q128 220 303 417q212 238 442.5 385t426.5 147
q103 2 157.5 -38.5t54.5 -123.5q0 -38 -10 -78q-26 -112 -127.5 -262t-286.5 -330q-2 -2 -5 0.5t0 5.5q184 179 285 328t127 260q10 47 10 75q0 155 -206 155q-164 -2 -358 -118.5z" />
    <glyph glyph-name="gbreve" unicode="&#x11f;" horiz-adv-x="615" 
d="M300 606q-69 0 -108.5 33.5t-44.5 100.5h54q4 -35 24.5 -49t76.5 -14q49 0 73 15.5t28 47.5h55q-6 -64 -48 -99t-110 -35zM171 375q0 -32 -5 -80q36 16 76.5 26.5t102.5 23.5q92 19 150.5 38.5t101.5 56.5q3 3 5.5 0t-0.5 -6q-42 -39 -103 -59.5t-152 -37.5
q-64 -13 -105.5 -23.5t-76.5 -27.5q-10 -109 -48 -268q-43 -183 -113 -382t-152 -366q-73 -148 -149 -251.5t-149 -143.5q-43 -23 -85 -23q-46 0 -79.5 27.5t-41.5 79.5q-3 16 -3 35q0 53 20 121q38 135 160 352q96 168 220.5 344t231.5 304.5t150 158.5l16 9q4 45 4 93
q0 37 -2 52q-16 -20 -42 -59q-43 -64 -70 -96.5t-49 -32.5q-5 0 -8 1q-29 10 -29 56q0 16 2 25q5 38 21 72q19 39 45 67q42 47 91 47q26 0 54 -15q4 -1 2 -5q-1 -4 -6 -2q-23 12 -43 13q-35 -2 -66.5 -32.5t-52.5 -74.5q-16 -33 -22 -60q-7 -27 -7 -51q2 -27 14 -32
q31 -10 118 125l16 23q18 26 32 44q0 2 9 2q12 0 12 -4q5 -32 5 -64zM-308 -980q72 100 142 243q79 158 146.5 352.5t111.5 380.5q36 155 50 278q-2 -2 -4.5 -3.5t-5.5 -3.5q-42 -28 -148.5 -156t-231 -303.5t-220.5 -343.5q-119 -211 -159 -351q-20 -69 -20 -120
q0 -18 3 -34q8 -48 39 -73.5t74 -25.5q42 0 82 22q69 38 141 138z" />
    <glyph glyph-name="Gdotaccent" unicode="&#x120;" horiz-adv-x="728" 
d="M371 846q0 29 15 42.5t37 13.5q21 0 36 -13.5t15 -42.5t-15.5 -42.5t-35.5 -13.5q-22 0 -37 13.5t-15 42.5zM1374 1992.5q-194 -116.5 -384 -310.5q-211 -214 -366 -466q-160 -259 -211 -472q-21 -88 -21 -160q0 -95 34.5 -162t96.5 -101t145 -34q132 0 289 85
q109 60 216 151t197 191q84 95 138 184q1 4 12 4q7 0 13 -1.5t6 -2.5q10 -41 10 -102q0 -109 -32.5 -263.5t-91.5 -336.5q-80 -244 -197 -494t-254 -460q-151 -230 -307.5 -378t-310.5 -184q-46 -12 -96 -12q-83 0 -147 37t-88 114q-15 48 -15 108q0 100 42 231
q67 208 212 423q129 188 295.5 345t362 257.5t397.5 111.5q4 0 4 -4t-4 -4q-201 -11 -395.5 -111t-360.5 -256.5t-292 -343.5q-145 -214 -212 -421q-41 -126 -41 -227q0 -59 15 -107q23 -75 85 -110t144 -35q45 0 92 11q148 37 300 180t295 364q132 205 246.5 450t193.5 485
q62 185 95.5 347.5t33.5 276.5q0 60 -8 96q-50 -82 -134 -178q-89 -99 -197.5 -190.5t-218.5 -152.5q-155 -85 -290 -85q-89 0 -157 38t-105.5 111t-37.5 175q0 72 19 154q42 187 172 412q128 220 303 417q212 238 442.5 385t426.5 147q103 2 157.5 -38.5t54.5 -123.5
q0 -38 -10 -78q-26 -112 -127.5 -262t-286.5 -330q-2 -2 -5 0.5t0 5.5q184 179 285 328t127 260q10 47 10 75q0 155 -206 155q-164 -2 -358 -118.5z" />
    <glyph glyph-name="gdotaccent" unicode="&#x121;" horiz-adv-x="615" 
d="M247 681q0 29 15 42.5t37 13.5q21 0 36 -13.5t15 -42.5t-15.5 -42.5t-35.5 -13.5q-22 0 -37 13.5t-15 42.5zM171 375q0 -32 -5 -80q36 16 76.5 26.5t102.5 23.5q92 19 150.5 38.5t101.5 56.5q3 3 5.5 0t-0.5 -6q-42 -39 -103 -59.5t-152 -37.5q-64 -13 -105.5 -23.5
t-76.5 -27.5q-10 -109 -48 -268q-43 -183 -113 -382t-152 -366q-73 -148 -149 -251.5t-149 -143.5q-43 -23 -85 -23q-46 0 -79.5 27.5t-41.5 79.5q-3 16 -3 35q0 53 20 121q38 135 160 352q96 168 220.5 344t231.5 304.5t150 158.5l16 9q4 45 4 93q0 37 -2 52
q-16 -20 -42 -59q-43 -64 -70 -96.5t-49 -32.5q-5 0 -8 1q-29 10 -29 56q0 16 2 25q5 38 21 72q19 39 45 67q42 47 91 47q26 0 54 -15q4 -1 2 -5q-1 -4 -6 -2q-23 12 -43 13q-35 -2 -66.5 -32.5t-52.5 -74.5q-16 -33 -22 -60q-7 -27 -7 -51q2 -27 14 -32q31 -10 118 125
l16 23q18 26 32 44q0 2 9 2q12 0 12 -4q5 -32 5 -64zM-308 -980q72 100 142 243q79 158 146.5 352.5t111.5 380.5q36 155 50 278q-2 -2 -4.5 -3.5t-5.5 -3.5q-42 -28 -148.5 -156t-231 -303.5t-220.5 -343.5q-119 -211 -159 -351q-20 -69 -20 -120q0 -18 3 -34
q8 -48 39 -73.5t74 -25.5q42 0 82 22q69 38 141 138z" />
    <glyph glyph-name="uni0122" unicode="&#x122;" horiz-adv-x="728" 
d="M322 -209q11 25 24 70.5t17 77.5h87v-9q-8 -31 -31.5 -76.5t-48.5 -74.5h-48v12zM1374 1992.5q-194 -116.5 -384 -310.5q-211 -214 -366 -466q-160 -259 -211 -472q-21 -88 -21 -160q0 -95 34.5 -162t96.5 -101t145 -34q132 0 289 85q109 60 216 151t197 191
q84 95 138 184q1 4 12 4q7 0 13 -1.5t6 -2.5q10 -41 10 -102q0 -109 -32.5 -263.5t-91.5 -336.5q-80 -244 -197 -494t-254 -460q-151 -230 -307.5 -378t-310.5 -184q-46 -12 -96 -12q-83 0 -147 37t-88 114q-15 48 -15 108q0 100 42 231q67 208 212 423q129 188 295.5 345
t362 257.5t397.5 111.5q4 0 4 -4t-4 -4q-201 -11 -395.5 -111t-360.5 -256.5t-292 -343.5q-145 -214 -212 -421q-41 -126 -41 -227q0 -59 15 -107q23 -75 85 -110t144 -35q45 0 92 11q148 37 300 180t295 364q132 205 246.5 450t193.5 485q62 185 95.5 347.5t33.5 276.5
q0 60 -8 96q-50 -82 -134 -178q-89 -99 -197.5 -190.5t-218.5 -152.5q-155 -85 -290 -85q-89 0 -157 38t-105.5 111t-37.5 175q0 72 19 154q42 187 172 412q128 220 303 417q212 238 442.5 385t426.5 147q103 2 157.5 -38.5t54.5 -123.5q0 -38 -10 -78q-26 -112 -127.5 -262
t-286.5 -330q-2 -2 -5 0.5t0 5.5q184 179 285 328t127 260q10 47 10 75q0 155 -206 155q-164 -2 -358 -118.5z" />
    <glyph glyph-name="uni0123" unicode="&#x123;" horiz-adv-x="615" 
d="M379 754q-13 -29 -26 -74.5t-16 -73.5h-87v9q7 27 31.5 74t48.5 77h49v-12zM171 375q0 -32 -5 -80q36 16 76.5 26.5t102.5 23.5q92 19 150.5 38.5t101.5 56.5q3 3 5.5 0t-0.5 -6q-42 -39 -103 -59.5t-152 -37.5q-64 -13 -105.5 -23.5t-76.5 -27.5q-10 -109 -48 -268
q-43 -183 -113 -382t-152 -366q-73 -148 -149 -251.5t-149 -143.5q-43 -23 -85 -23q-46 0 -79.5 27.5t-41.5 79.5q-3 16 -3 35q0 53 20 121q38 135 160 352q96 168 220.5 344t231.5 304.5t150 158.5l16 9q4 45 4 93q0 37 -2 52q-16 -20 -42 -59q-43 -64 -70 -96.5t-49 -32.5
q-5 0 -8 1q-29 10 -29 56q0 16 2 25q5 38 21 72q19 39 45 67q42 47 91 47q26 0 54 -15q4 -1 2 -5q-1 -4 -6 -2q-23 12 -43 13q-35 -2 -66.5 -32.5t-52.5 -74.5q-16 -33 -22 -60q-7 -27 -7 -51q2 -27 14 -32q31 -10 118 125l16 23q18 26 32 44q0 2 9 2q12 0 12 -4
q5 -32 5 -64zM-308 -980q72 100 142 243q79 158 146.5 352.5t111.5 380.5q36 155 50 278q-2 -2 -4.5 -3.5t-5.5 -3.5q-42 -28 -148.5 -156t-231 -303.5t-220.5 -343.5q-119 -211 -159 -351q-20 -69 -20 -120q0 -18 3 -34q8 -48 39 -73.5t74 -25.5q42 0 82 22q69 38 141 138z
" />
    <glyph glyph-name="Hcircumflex" unicode="&#x124;" horiz-adv-x="741" 
d="M97 721.5q-2 2.5 1 4.5l76 86h3l76 -86q3 -2 1 -4.5t-4 -0.5l-75 59l-74 -59q-2 -2 -4 0.5zM1818 1908q-140 -185 -274 -461.5t-232 -579.5l-29 -95q225 84 378 84q129 0 222 -57q3 -2 1 -5.5t-5 -1.5q-92 56 -219 56q-157 0 -380 -86q-82 -280 -113 -529
q-16 -127 -16 -251q0 -164 32 -291q96 -384 470 -389q5 0 4.5 -4t-4.5 -4q-196 2 -320 105t-175 304q-33 131 -33 302q0 123 16 250q28 226 103 493q-87 -34 -177 -76.5t-216 -105.5l-46 -23q-135 -68 -226 -112q-134 -409 -298 -741q-143 -293 -304 -517t-334.5 -352
t-344.5 -128q-74 0 -130 20l-18 7q-4 1 -2.5 5t5.5 2l18 -6q65 -20 128 -20q208 0 421 201.5t402.5 536t339.5 739.5q29 80 82 237q-125 -58 -222.5 -89t-172.5 -31q-81 0 -133 39q-3 2 -1 5.5t6 1.5q50 -38 127 -38q75 0 173 31.5t226 90.5q167 518 221 949q21 171 21 317
q0 323 -105 435q-53 55 -127 55q-154 0 -403 -233q-3 -3 -5.5 0t-0.5 6q256 239 416 234q89 2 146 -62.5t84 -187.5q24 -109 24 -257q0 -157 -25.5 -348t-74.5 -403q-60 -261 -136 -488q89 41 220 108l38 19q136 67 226.5 110t180.5 79q26 90 41 135q98 303 234 575t280 453
t265 220q30 9 59 9q13 0 20 -1q81 -13 122 -83q43 -74 43 -205q0 -42 -2 -65q-2 -14 -4 -38l-3 -35q-1 -4 -5 -3.5t-3 4.5l3 35q2 24 4 37q2 23 2 64q0 131 -42 202q-40 67 -116 79q-6 1 -18 1q-28 0 -55 -10q-114 -39 -254 -224z" />
    <glyph glyph-name="hcircumflex" unicode="&#x125;" horiz-adv-x="618" 
d="M40 748.5q-2 2.5 1 4.5l76 86h3l76 -86q3 -2 1 -4.5t-4 -0.5l-75 59l-74 -59q-2 -2 -4 0.5zM498 873q-103 -121 -245.5 -244.5t-235.5 -186.5q-38 -128 -34 -180q9 34 29 80t44 83q30 50 61 67q15 9 29 9q16 0 26.5 -12t11.5 -34q0 -27 -11 -65t-34 -106l-12 -34
q-15 -39 -38 -108q-17 -56 -17 -82q0 -15 4 -23q7 -13 24 -13q45 0 124.5 66.5t191.5 182.5q105 106 173 167q3 3 6 0t0 -6q-34 -27 -76.5 -69t-83.5 -84l-14 -14q-108 -111 -181.5 -174.5t-122.5 -74.5q-12 -2 -18 -2q-21 0 -31 17q-8 12 -8 36q0 32 17 93q16 53 27 84
l11 34q26 79 37.5 118t11.5 65q-1 29 -20 29q-10 0 -23 -8q-26 -14 -59 -63q-26 -42 -47 -94t-28 -83q-1 -5 -3.5 -6t-4.5 3l-3 7q-4 13 -4 36q0 55 27 158q39 149 108 307q76 176 167.5 311.5t177.5 178.5q36 18 74 18q49 0 83 -29.5t34 -80.5q0 -102 -145 -274z
M297 1057.5q-86 -131.5 -161 -301.5q-72 -161 -115 -302q92 63 230.5 184.5t240.5 239.5q127 152 142 248q1 6 1 18q0 48 -31.5 77t-76.5 29q-36 0 -71 -20q-73 -41 -159 -172.5z" />
    <glyph glyph-name="Hbar" unicode="&#x126;" horiz-adv-x="741" 
d="M97 595v119h90v-119h366v119h90v-119h97v-72h-97v-523h-90v333h-366v-333h-90v523h-97v72h97zM553 412v111h-366v-111h366z" />
    <glyph glyph-name="hbar" unicode="&#x127;" horiz-adv-x="618" 
d="M450 0v323q0 65 -29 97t-91 32q-83 0 -120 -45t-37 -149v-258h-88v604h-76v66h76v90h88v-90h212v-66h-212v-87q0 -43 -5 -74h6q26 42 70.5 62.5t97.5 20.5q97 0 146 -47t49 -150v-329h-87z" />
    <glyph glyph-name="Itilde" unicode="&#x128;" horiz-adv-x="338" 
d="M-72 717q9 8 16.5 13t14.5 5q14 0 39 -15q24 -14 37 -16q25 0 58 25q2 3 5 0t0 -4q-39 -32 -66 -32q-12 0 -41 17q-21 12 -34 12q-10 0 -17.5 -4.5t-13.5 -10t-9 -7.5q-2 -2 -4 0.5t-1 3.5zM-1159.5 -1276q0.5 4 4.5 3l20 -3q45 -6 84 -5q230 4 452 211t412 545t341 750
q88 242 156 485.5t111 469.5q66 342 66 582q0 76 -8 146q-13 104 -47.5 164t-86.5 60q-67 0 -149 -102q-89 -115 -168 -293q-2 -4 -6 -2.5t-2 5.5q86 188 170 295q83 105 158 105q59 0 100 -65.5t55 -178.5q10 -70 10 -162q0 -214 -54 -513q-76 -423 -234 -880
q-152 -440 -354.5 -809t-443.5 -595t-491 -226q-30 0 -73 5l-19 3q-4 1 -3.5 5z" />
    <glyph glyph-name="itilde" unicode="&#x129;" horiz-adv-x="257" 
d="M-112 552q9 8 16.5 13t14.5 5q14 0 39 -15q24 -14 37 -16q25 0 58 25q2 3 5 0t0 -4q-39 -32 -66 -32q-12 0 -41 17q-21 12 -34 12q-10 0 -17.5 -4.5t-13.5 -10t-9 -7.5q-2 -2 -4 0.5t-1 3.5zM173 0h-88v536h88v-536z" />
    <glyph glyph-name="Imacron" unicode="&#x12a;" horiz-adv-x="338" 
d="M21 842h297v-71h-297v71zM-1159.5 -1276q0.5 4 4.5 3l20 -3q45 -6 84 -5q230 4 452 211t412 545t341 750q88 242 156 485.5t111 469.5q66 342 66 582q0 76 -8 146q-13 104 -47.5 164t-86.5 60q-67 0 -149 -102q-89 -115 -168 -293q-2 -4 -6 -2.5t-2 5.5q86 188 170 295
q83 105 158 105q59 0 100 -65.5t55 -178.5q10 -70 10 -162q0 -214 -54 -513q-76 -423 -234 -880q-152 -440 -354.5 -809t-443.5 -595t-491 -226q-30 0 -73 5l-19 3q-4 1 -3.5 5z" />
    <glyph glyph-name="imacron" unicode="&#x12b;" horiz-adv-x="257" 
d="M-18 677h297v-71h-297v71zM173 0h-88v536h88v-536z" />
    <glyph glyph-name="Ibreve" unicode="&#x12c;" horiz-adv-x="338" 
d="M168 771q-69 0 -108.5 33.5t-44.5 100.5h54q4 -35 24.5 -49t76.5 -14q49 0 73 15.5t28 47.5h55q-6 -64 -48 -99t-110 -35zM-1159.5 -1276q0.5 4 4.5 3l20 -3q45 -6 84 -5q230 4 452 211t412 545t341 750q88 242 156 485.5t111 469.5q66 342 66 582q0 76 -8 146
q-13 104 -47.5 164t-86.5 60q-67 0 -149 -102q-89 -115 -168 -293q-2 -4 -6 -2.5t-2 5.5q86 188 170 295q83 105 158 105q59 0 100 -65.5t55 -178.5q10 -70 10 -162q0 -214 -54 -513q-76 -423 -234 -880q-152 -440 -354.5 -809t-443.5 -595t-491 -226q-30 0 -73 5l-19 3
q-4 1 -3.5 5z" />
    <glyph glyph-name="ibreve" unicode="&#x12d;" horiz-adv-x="257" 
d="M126 606q-69 0 -108.5 33.5t-44.5 100.5h54q4 -35 24.5 -49t76.5 -14q49 0 73 15.5t28 47.5h55q-6 -64 -48 -99t-110 -35zM173 0h-88v536h88v-536z" />
    <glyph glyph-name="Iogonek" unicode="&#x12e;" horiz-adv-x="338" 
d="M160 -116q0 -22 12 -33.5t33 -11.5t48 6v-56q-34 -9 -62 -9q-103 0 -103 94q0 68 78 126h62q-34 -32 -51 -58.5t-17 -57.5zM-1159.5 -1276q0.5 4 4.5 3l20 -3q45 -6 84 -5q230 4 452 211t412 545t341 750q88 242 156 485.5t111 469.5q66 342 66 582q0 76 -8 146
q-13 104 -47.5 164t-86.5 60q-67 0 -149 -102q-89 -115 -168 -293q-2 -4 -6 -2.5t-2 5.5q86 188 170 295q83 105 158 105q59 0 100 -65.5t55 -178.5q10 -70 10 -162q0 -214 -54 -513q-76 -423 -234 -880q-152 -440 -354.5 -809t-443.5 -595t-491 -226q-30 0 -73 5l-19 3
q-4 1 -3.5 5z" />
    <glyph glyph-name="iogonek" unicode="&#x12f;" horiz-adv-x="257" 
d="M97 -116q0 -22 12 -33.5t33 -11.5t48 6v-56q-34 -9 -62 -9q-103 0 -103 94q0 68 78 126h62q-34 -32 -51 -58.5t-17 -57.5zM-32 350q0 42 35 99q1 2 6 3t10 1q14 0 10 -7q-21 -34 -32.5 -59t-11.5 -47q0 -20 12 -31q19 -18 62 -18q63 0 160 37q60 23 113.5 53.5t84.5 58.5
q3 3 5.5 0t-0.5 -6q-29 -27 -84 -58t-116 -56q-96 -38 -162 -38q-44 0 -70 20q-22 17 -22 48zM56 588q1 12 1 14v8q1 14 13 14q5 0 8.5 -4t2.5 -10q0 -6 -4 -15q-4 -6 -10 -16.5t-10 -15.5q-4 -6 -8 -6q-5 0 -1 9q7 10 8 22z" />
    <glyph glyph-name="Idotaccent" unicode="&#x130;" horiz-adv-x="338" 
d="M117 846q0 29 15 42.5t37 13.5q21 0 36 -13.5t15 -42.5t-15.5 -42.5t-35.5 -13.5q-22 0 -37 13.5t-15 42.5zM-1159.5 -1276q0.5 4 4.5 3l20 -3q45 -6 84 -5q230 4 452 211t412 545t341 750q88 242 156 485.5t111 469.5q66 342 66 582q0 76 -8 146q-13 104 -47.5 164
t-86.5 60q-67 0 -149 -102q-89 -115 -168 -293q-2 -4 -6 -2.5t-2 5.5q86 188 170 295q83 105 158 105q59 0 100 -65.5t55 -178.5q10 -70 10 -162q0 -214 -54 -513q-76 -423 -234 -880q-152 -440 -354.5 -809t-443.5 -595t-491 -226q-30 0 -73 5l-19 3q-4 1 -3.5 5z" />
    <glyph glyph-name="dotlessi" unicode="&#x131;" horiz-adv-x="257" 
d="M173 0h-88v536h88v-536z" />
    <glyph glyph-name="IJ" unicode="&#x132;" horiz-adv-x="611" 
d="M-1159.5 -1276q0.5 4 4.5 3l20 -3q45 -6 84 -5q230 4 452 211t412 545t341 750q88 242 156 485.5t111 469.5q66 342 66 582q0 76 -8 146q-13 104 -47.5 164t-86.5 60q-67 0 -149 -102q-89 -115 -168 -293q-2 -4 -6 -2.5t-2 5.5q86 188 170 295q83 105 158 105
q59 0 100 -65.5t55 -178.5q10 -70 10 -162q0 -214 -54 -513q-76 -423 -234 -880q-152 -440 -354.5 -809t-443.5 -595t-491 -226q-30 0 -73 5l-19 3q-4 1 -3.5 5zM-617.5 -1276q0.5 4 4.5 3q64 -11 118 -8q239 11 468.5 239.5t423 592t342.5 797.5q159 466 234 888
q56 303 56 523q0 77 -8 149q-12 103 -43 157q-36 67 -90 67q-59 0 -129 -77q-58 -66 -121 -180q-54 -99 -103 -220t-87 -250q-89 -305 -89 -532q0 -130 33 -220.5t102 -128.5q3 -2 1.5 -5.5t-5.5 -1.5q-71 38 -105 131.5t-34 224.5q0 227 89 534q76 259 191 471
q60 113 123 183q70 79 137 79q58 0 100 -65q38 -60 55 -179q9 -70 9 -158q0 -240 -64 -571q-42 -224 -109.5 -465t-156.5 -481q-156 -419 -352 -759t-425 -546t-467 -206q-45 0 -95 9q-4 1 -3.5 5z" />
    <glyph glyph-name="ij" unicode="&#x133;" horiz-adv-x="514" 
d="M-32 350q0 42 35 99q1 2 6 3t10 1q14 0 10 -7q-21 -34 -32.5 -59t-11.5 -47q0 -20 12 -31q19 -18 62 -18q63 0 160 37q60 23 113.5 53.5t84.5 58.5q3 3 5.5 0t-0.5 -6q-29 -27 -84 -58t-116 -56q-96 -38 -162 -38q-44 0 -70 20q-22 17 -22 48zM56 588q1 12 1 14v8
q1 14 13 14q5 0 8.5 -4t2.5 -10q0 -6 -4 -15q-4 -6 -10 -16.5t-10 -15.5q-4 -6 -8 -6q-5 0 -1 9q7 10 8 22zM262 506q11 0 11 -5q4 -34 4 -61q0 -62 -12 -145q36 16 76.5 26.5t102.5 23.5q94 19 152.5 38.5t99.5 56.5q3 3 5.5 0t0.5 -6q-43 -39 -104 -59.5t-152 -37.5
q-64 -13 -105.5 -23.5t-76.5 -27.5q-11 -81 -44 -229q-46 -191 -116.5 -396t-153.5 -378q-79 -166 -163.5 -278t-161.5 -143q-26 -10 -55 -10q-45 0 -79 26t-43 74q-4 26 -4 43q0 51 20 120q39 138 161 352q96 169 220.5 345.5t231 304.5t149.5 157l16 9q12 89 12 151
q0 41 -4 66q0 6 12 6zM-68 -725q79 164 147 364t115 394q28 125 46 240l-9 -6q-42 -28 -148.5 -156t-231 -303.5t-220.5 -343.5q-119 -211 -159 -351q-20 -68 -20 -118q0 -26 4 -43q9 -44 40 -68.5t72 -24.5q26 0 54 11q144 60 310 405zM282 630v9q1 14 13 14q5 0 8.5 -4
t2.5 -10q0 -6 -4 -15q-15 -27 -22 -34q-4 -5 -7 -3t0 6q9 17 9 37z" />
    <glyph glyph-name="Jcircumflex" unicode="&#x134;" horiz-adv-x="272" 
d="M-134 721.5q-2 2.5 1 4.5l76 86h3l76 -86q3 -2 1 -4.5t-4 -0.5l-75 59l-74 -59q-2 -2 -4 0.5zM-956.5 -1276q0.5 4 4.5 3q64 -11 118 -8q239 11 468.5 239.5t423 592t342.5 797.5q159 466 234 888q56 303 56 523q0 77 -8 149q-12 103 -43 157q-36 67 -90 67
q-59 0 -129 -77q-58 -66 -121 -180q-54 -99 -103 -220t-87 -250q-89 -305 -89 -532q0 -130 33 -220.5t102 -128.5q3 -2 1.5 -5.5t-5.5 -1.5q-71 38 -105 131.5t-34 224.5q0 227 89 534q76 259 191 471q60 113 123 183q70 79 137 79q58 0 100 -65q38 -60 55 -179
q9 -70 9 -158q0 -240 -64 -571q-42 -224 -109.5 -465t-156.5 -481q-156 -419 -352 -759t-425 -546t-467 -206q-45 0 -95 9q-4 1 -3.5 5z" />
    <glyph glyph-name="jcircumflex" unicode="&#x135;" horiz-adv-x="257" 
d="M-145 556.5q-2 2.5 1 4.5l76 86h3l76 -86q3 -2 1 -4.5t-4 -0.5l-75 59l-74 -59q-2 -2 -4 0.5zM22 -240q-46 0 -77 12v71q34 -10 66 -10q38 0 56 21t18 63v619h88v-616q0 -80 -38.5 -120t-112.5 -40z" />
    <glyph glyph-name="uni0136" unicode="&#x136;" horiz-adv-x="619" 
d="M246 -209q11 25 24 70.5t17 77.5h87v-9q-8 -31 -31.5 -76.5t-48.5 -74.5h-48v12zM-406.5 -1073.5q223.5 206.5 414.5 546t342 752.5q10 26 28 78l27 78l-19 31l-11 18q-54 -40 -87 -40q-7 0 -10 1q-18 5 -18 23q0 17 14 38t32 28q7 4 16 4q22 0 56 -34q21 17 52 50l20 20
q107 341 167 660q66 342 66 582q0 76 -8 146q-17 141 -66 191q-30 33 -70 33q-33 0 -69 -25q-82 -57 -178 -232q-54 -99 -103 -220t-87 -250q-89 -305 -89 -532q0 -130 33 -220.5t102 -128.5q4 -1 2 -5q-1 -4 -6 -2q-71 38 -105 131.5t-34 224.5q0 227 89 534
q76 259 191 471q94 176 182 236q38 27 74 27q40 0 75 -32q64 -58 84 -213q9 -70 9 -158q0 -240 -64 -571q-51 -278 -148 -595q59 67 158 186l63 75q292 354 527 605t524.5 457.5t570.5 246.5q66 8 118 8q129 0 244.5 -41t227.5 -125q3 -2 1 -5t-5 -1q-222 163 -465 163
q-58 0 -116 -9q-263 -41 -537.5 -237t-502 -436t-517.5 -584q-194 -232 -305 -347q-20 -65 -50 -155q38 -65 81 -159.5t110 -251.5q98 -233 184 -414.5t180 -336.5q132 -218 276 -343t302 -125q85 0 174 40q27 12 60 32l3 1q3 2 5 -1.5t-1 -5.5q-28 -16 -64 -34l-9 -3l-5 -3
q-87 -37 -172 -37q-312 0 -609 492q-98 162 -181 342t-193 441q-102 246 -150 339l-45 -125q-155 -416 -350 -755.5t-423.5 -546.5t-466.5 -209q-49 0 -99 9q-4 1 -3.5 5t5.5 3q48 -9 98 -9q230 2 453.5 208.5zM342 466q-11 9 -23 9q-4 0 -10 -2q-15 -6 -27.5 -24.5
t-12.5 -33.5q0 -14 12 -17q15 -3 34.5 7.5t33.5 21l18 13.5q-14 17 -25 26zM414 462q-18 -16 -27 -23q16 -20 26 -34l25 78q-14 -11 -24 -21z" />
    <glyph glyph-name="uni0137" unicode="&#x137;" horiz-adv-x="534" 
d="M203 -209q11 25 24 70.5t17 77.5h87v-9q-8 -31 -31.5 -76.5t-48.5 -74.5h-48v12zM-24 248q-4 13 -4 36q0 34 8 78.5t18 77.5q38 145 109 309q75 175 167 311t177 179q9 4 27 10q29 8 50 8q26 0 48 -9q44 -17 61 -64q6 -18 6 -38q0 -100 -145 -273
q-103 -121 -245.5 -244.5t-235.5 -186.5q-38 -130 -34 -181q11 37 40 91q20 37 34 59q32 46 55 65q29 22 49 22q6 0 9 -1q8 -1 18 -7q6 -4 6 -13q0 -6 -3.5 -11.5t-8.5 -5.5q-4 0 -9 3q-10 6 -17 7q-20 4 -47 -16q-26 -19 -48 -54q-12 -19 -32 -53q-16 -31 -27 -60
q13 19 29 19q6 0 12 -3q18 -8 34 -38t39 -87q27 -66 47 -103t43 -50q13 -5 20 -5q8 0 20 5q34 14 70 60.5t88 130.5l20 31q48 79 82 126.5t64 67.5q3 2 5.5 -1.5t-1.5 -5.5q-28 -20 -62 -66.5t-81 -123.5q-62 -101 -102.5 -155.5t-79.5 -70.5q-13 -6 -27 -6q-11 0 -20 4
q-33 13 -58 54.5t-54 109.5q-19 47 -33 73t-28 32q-9 5 -18.5 -2.5t-21.5 -29.5q-2 -10 -2 -11q-1 -4 -5 -4l-3 3q-1 1 -1 3h-1zM479 1241q-78 -28 -170 -164.5t-173 -320.5q-75 -167 -115 -302q96 67 233.5 186.5t236.5 237.5q66 78 105 147.5t39 120.5q0 19 -6 35
q-17 45 -56 59q-21 9 -46 9q-24 0 -46 -7z" />
    <glyph glyph-name="kgreenlandic" unicode="&#x138;" horiz-adv-x="534" 
d="M403 536h106l-203 -237l219 -299h-105l-176 242l-66 -54v-188h-93v536h93v-139q0 -68 -6 -135l41 50z" />
    <glyph glyph-name="Lacute" unicode="&#x139;" horiz-adv-x="523" 
d="M546 2140q66 -2 105.5 -65t54.5 -179q9 -72 9 -159q0 -237 -63 -570q-42 -225 -110 -465.5t-157 -480.5q-136 -368 -305.5 -678.5t-368 -525.5t-406.5 -281q185 26 373 68t350.5 87t409.5 117q271 80 450 127.5t361 79t343 31.5q200 0 372 -54t319 -175q4 -3 1.5 -6
t-5.5 0q-141 111 -305 161t-356 50q-158 0 -336 -30t-350 -74.5t-446 -122.5l-56 -16q-275 -78 -468.5 -129t-407.5 -91.5t-390 -47.5q-9 -1 -26 -1q-37 0 -70 6l-21 3q-4 1 -3.5 5t4.5 3l21 -3q43 -7 96 -5q238 11 466.5 237t421.5 587t343 793q155 446 237 894
q57 313 57 531q0 77 -8 147q-27 224 -140 224q-52 0 -115 -68.5t-129 -188.5q-54 -99 -103 -220t-87 -250q-42 -143 -65 -279.5t-23 -252.5q0 -130 33 -220.5t102 -128.5l2 -2q0 -7 -6 -5q-71 38 -105 131.5t-34 224.5q0 227 89 534q77 263 190 471q68 124 134 194t120 68h1
zM26 721.5q-2 2.5 1 4.5l76 86h1q4 0 6 -12t0 -15l-80 -64q-2 -2 -4 0.5z" />
    <glyph glyph-name="lacute" unicode="&#x13a;" horiz-adv-x="257" 
d="M342 1082q-100 -116 -180 -279t-136 -345q122 82 268.5 199.5t251.5 228.5q100 107 138 185q16 36 16 70q0 44 -28 71.5t-73 27.5q-21 0 -50 -8q-107 -34 -207 -150zM-15 306q-45 -186 -49 -327l-1 -31q0 -125 35 -180q24 -40 67 -39q61 4 117.5 59.5t104 135
t109.5 201.5q8 14 11 22q67 127 111 195.5t91 98.5q3 2 5.5 -1.5t-1.5 -5.5q-46 -31 -89.5 -99.5t-110.5 -195.5q-4 -6 -10 -18q-65 -126 -113 -205.5t-105 -135t-119 -59.5q-52 -3 -81 48q-37 62 -37 192q0 155 46 359t132 400t202 338t247 182q29 8 51 8q49 0 79.5 -30
t30.5 -77q0 -35 -17 -72q-34 -77 -139 -189q-107 -113 -257 -232.5t-273 -201.5q-16 -50 -37 -140zM-11 749.5q-2 2.5 1 4.5l76 86h1q4 0 6 -12t0 -15l-80 -64q-2 -2 -4 0.5z" />
    <glyph glyph-name="uni013B" unicode="&#x13b;" horiz-adv-x="523" 
d="M204 -209q11 25 24 70.5t17 77.5h87v-9q-8 -31 -31.5 -76.5t-48.5 -74.5h-48v12zM546 2140q66 -2 105.5 -65t54.5 -179q9 -72 9 -159q0 -237 -63 -570q-42 -225 -110 -465.5t-157 -480.5q-136 -368 -305.5 -678.5t-368 -525.5t-406.5 -281q185 26 373 68t350.5 87
t409.5 117q271 80 450 127.5t361 79t343 31.5q200 0 372 -54t319 -175q4 -3 1.5 -6t-5.5 0q-141 111 -305 161t-356 50q-158 0 -336 -30t-350 -74.5t-446 -122.5l-56 -16q-275 -78 -468.5 -129t-407.5 -91.5t-390 -47.5q-9 -1 -26 -1q-37 0 -70 6l-21 3q-4 1 -3.5 5t4.5 3
l21 -3q43 -7 96 -5q238 11 466.5 237t421.5 587t343 793q155 446 237 894q57 313 57 531q0 77 -8 147q-27 224 -140 224q-52 0 -115 -68.5t-129 -188.5q-54 -99 -103 -220t-87 -250q-42 -143 -65 -279.5t-23 -252.5q0 -130 33 -220.5t102 -128.5l2 -2q0 -7 -6 -5
q-71 38 -105 131.5t-34 224.5q0 227 89 534q77 263 190 471q68 124 134 194t120 68h1z" />
    <glyph glyph-name="uni013C" unicode="&#x13c;" horiz-adv-x="257" 
d="M45 -209q11 25 24 70.5t17 77.5h87v-9q-8 -31 -31.5 -76.5t-48.5 -74.5h-48v12zM342 1082q-100 -116 -180 -279t-136 -345q122 82 268.5 199.5t251.5 228.5q100 107 138 185q16 36 16 70q0 44 -28 71.5t-73 27.5q-21 0 -50 -8q-107 -34 -207 -150zM-15 306
q-45 -186 -49 -327l-1 -31q0 -125 35 -180q24 -40 67 -39q61 4 117.5 59.5t104 135t109.5 201.5q8 14 11 22q67 127 111 195.5t91 98.5q3 2 5.5 -1.5t-1.5 -5.5q-46 -31 -89.5 -99.5t-110.5 -195.5q-4 -6 -10 -18q-65 -126 -113 -205.5t-105 -135t-119 -59.5q-52 -3 -81 48
q-37 62 -37 192q0 155 46 359t132 400t202 338t247 182q29 8 51 8q49 0 79.5 -30t30.5 -77q0 -35 -17 -72q-34 -77 -139 -189q-107 -113 -257 -232.5t-273 -201.5q-16 -50 -37 -140z" />
    <glyph glyph-name="Lcaron" unicode="&#x13d;" horiz-adv-x="523" 
d="M333 567q11 32 20.5 77.5t12.5 70.5h87v-9q-6 -26 -27 -71t-45 -80h-48v12zM546 2140q66 -2 105.5 -65t54.5 -179q9 -72 9 -159q0 -237 -63 -570q-42 -225 -110 -465.5t-157 -480.5q-136 -368 -305.5 -678.5t-368 -525.5t-406.5 -281q185 26 373 68t350.5 87t409.5 117
q271 80 450 127.5t361 79t343 31.5q200 0 372 -54t319 -175q4 -3 1.5 -6t-5.5 0q-141 111 -305 161t-356 50q-158 0 -336 -30t-350 -74.5t-446 -122.5l-56 -16q-275 -78 -468.5 -129t-407.5 -91.5t-390 -47.5q-9 -1 -26 -1q-37 0 -70 6l-21 3q-4 1 -3.5 5t4.5 3l21 -3
q43 -7 96 -5q238 11 466.5 237t421.5 587t343 793q155 446 237 894q57 313 57 531q0 77 -8 147q-27 224 -140 224q-52 0 -115 -68.5t-129 -188.5q-54 -99 -103 -220t-87 -250q-42 -143 -65 -279.5t-23 -252.5q0 -130 33 -220.5t102 -128.5l2 -2q0 -7 -6 -5
q-71 38 -105 131.5t-34 224.5q0 227 89 534q77 263 190 471q68 124 134 194t120 68h1z" />
    <glyph glyph-name="lcaron" unicode="&#x13e;" horiz-adv-x="257" 
d="M219 612q11 32 20.5 77.5t12.5 70.5h87v-9q-6 -26 -27 -71t-45 -80h-48v12zM342 1082q-100 -116 -180 -279t-136 -345q122 82 268.5 199.5t251.5 228.5q100 107 138 185q16 36 16 70q0 44 -28 71.5t-73 27.5q-21 0 -50 -8q-107 -34 -207 -150zM-15 306q-45 -186 -49 -327
l-1 -31q0 -125 35 -180q24 -40 67 -39q61 4 117.5 59.5t104 135t109.5 201.5q8 14 11 22q67 127 111 195.5t91 98.5q3 2 5.5 -1.5t-1.5 -5.5q-46 -31 -89.5 -99.5t-110.5 -195.5q-4 -6 -10 -18q-65 -126 -113 -205.5t-105 -135t-119 -59.5q-52 -3 -81 48q-37 62 -37 192
q0 155 46 359t132 400t202 338t247 182q29 8 51 8q49 0 79.5 -30t30.5 -77q0 -35 -17 -72q-34 -77 -139 -189q-107 -113 -257 -232.5t-273 -201.5q-16 -50 -37 -140z" />
    <glyph glyph-name="Ldot" unicode="&#x13f;" horiz-adv-x="523" 
d="M332 357q0 29 15 42.5t37 13.5q21 0 36 -13.5t15 -42.5t-15.5 -42.5t-35.5 -13.5q-22 0 -37 13.5t-15 42.5zM546 2140q66 -2 105.5 -65t54.5 -179q9 -72 9 -159q0 -237 -63 -570q-42 -225 -110 -465.5t-157 -480.5q-136 -368 -305.5 -678.5t-368 -525.5t-406.5 -281
q185 26 373 68t350.5 87t409.5 117q271 80 450 127.5t361 79t343 31.5q200 0 372 -54t319 -175q4 -3 1.5 -6t-5.5 0q-141 111 -305 161t-356 50q-158 0 -336 -30t-350 -74.5t-446 -122.5l-56 -16q-275 -78 -468.5 -129t-407.5 -91.5t-390 -47.5q-9 -1 -26 -1q-37 0 -70 6
l-21 3q-4 1 -3.5 5t4.5 3l21 -3q43 -7 96 -5q238 11 466.5 237t421.5 587t343 793q155 446 237 894q57 313 57 531q0 77 -8 147q-27 224 -140 224q-52 0 -115 -68.5t-129 -188.5q-54 -99 -103 -220t-87 -250q-42 -143 -65 -279.5t-23 -252.5q0 -130 33 -220.5t102 -128.5
l2 -2q0 -7 -6 -5q-71 38 -105 131.5t-34 224.5q0 227 89 534q77 263 190 471q68 124 134 194t120 68h1z" />
    <glyph glyph-name="ldot" unicode="&#x140;" horiz-adv-x="325" 
d="M240 333q0 29 15 42.5t37 13.5q21 0 36 -13.5t15 -42.5t-15.5 -42.5t-35.5 -13.5q-22 0 -37 13.5t-15 42.5zM342 1082q-100 -116 -180 -279t-136 -345q122 82 268.5 199.5t251.5 228.5q100 107 138 185q16 36 16 70q0 44 -28 71.5t-73 27.5q-21 0 -50 -8
q-107 -34 -207 -150zM-15 306q-45 -186 -49 -327l-1 -31q0 -125 35 -180q24 -40 67 -39q61 4 117.5 59.5t104 135t109.5 201.5q8 14 11 22q67 127 111 195.5t91 98.5q3 2 5.5 -1.5t-1.5 -5.5q-46 -31 -89.5 -99.5t-110.5 -195.5q-4 -6 -10 -18q-65 -126 -113 -205.5
t-105 -135t-119 -59.5q-52 -3 -81 48q-37 62 -37 192q0 155 46 359t132 400t202 338t247 182q29 8 51 8q49 0 79.5 -30t30.5 -77q0 -35 -17 -72q-34 -77 -139 -189q-107 -113 -257 -232.5t-273 -201.5q-16 -50 -37 -140z" />
    <glyph glyph-name="Lslash" unicode="&#x141;" horiz-adv-x="523" 
d="M97 0v247l-49 -28l-35 60l84 50v385h90v-332l137 81l36 -63l-173 -100v-220h312v-80h-402z" />
    <glyph glyph-name="lslash" unicode="&#x142;" horiz-adv-x="257" 
d="M166 425l64 44l37 -59l-101 -68v-342h-88v285l-51 -32l-36 59l87 56v392h88v-335z" />
    <glyph glyph-name="Nacute" unicode="&#x143;" horiz-adv-x="759" 
d="M1944.5 1916.5q-161.5 -216.5 -325 -479.5t-426.5 -707q-323 -548 -549.5 -905.5t-463.5 -649t-440 -403.5q-4 -2 -6 1.5t2 5.5q201 110 435 398t456 637.5t549 901.5l10 18q8 14 13 21q257 434 419 695t322 475t290 310q104 77 176 77q49 0 77 -37t28 -112q0 -21 -3 -47
q-17 -171 -124 -495q-75 -233 -216 -622q-136 -379 -222 -636.5t-145 -496t-59 -392.5q0 -53 7 -91q25 -143 150 -143q16 0 52 6h1q3 0 4 -3.5t-3 -4.5q-30 -6 -58 -6q-134 0 -164 153q-9 46 -9 107q0 163 62 412t149.5 511t230.5 660l16 46q141 397 214.5 624.5t94.5 369.5
q4 31 4 61q0 65 -23 97t-65 32q-67 0 -170 -75q-129 -97 -290.5 -313.5zM-661.5 -1281q0.5 4 4.5 3t9.5 -2t12.5 -1q42 -7 95 -5q239 11 468.5 237t422.5 586t342 791q143 417 225 835q67 344 67 591q0 26 -2 72q-7 99 -21 155q-38 145 -125 145q-77 0 -180 -110
q-70 -75 -145 -190.5t-148 -260.5q-152 -303 -235 -615q-68 -259 -68 -453q0 -74 8 -127q39 -279 246 -350q4 -2 2.5 -5.5t-5.5 -2.5q-212 74 -251 357q-8 55 -8 128q0 194 68 455q81 306 235 616q72 143 148.5 260.5t148.5 194.5q49 52 97 82t91 30q92 0 137 -144
q22 -70 28 -172q3 -48 3 -103q0 -256 -72 -616q-89 -442 -257 -894q-153 -408 -345 -742.5t-417 -541t-458 -216.5q-9 -1 -27 -1q-36 0 -70 6l-21 3q-4 1 -3.5 5zM226 721.5q-2 2.5 1 4.5l76 86h1q4 0 6 -12t0 -15l-80 -64q-2 -2 -4 0.5z" />
    <glyph glyph-name="nacute" unicode="&#x144;" horiz-adv-x="618" 
d="M21 467q0 -32 -4 -65q-6 -41 -17 -83q8 19 24 65q7 18 8 23q2 6 9.5 25.5t13.5 32t12 19.5q11 11 23 11q18 0 27 -17q9 -16 9 -44q-1 -26 -8 -64t-15 -76q-22 -93 -22 -136q0 -17 2 -24q6 -23 31 -23q51 0 152 77q76 58 156.5 139t101.5 112q2 5 6 2t1 -6
q-18 -30 -100 -111.5t-161 -142.5q-83 -62 -132 -74q-12 -4 -26 -4q-30 0 -39 28q-6 18 -6 43q0 39 15 120l5 30q18 80 18 128q0 4 -2 18q-5 17 -16 17q-12 0 -21.5 -19t-24.5 -60l-9 -26q-16 -48 -25 -67q-3 -4 -8.5 -14t-11 -16t-10.5 -5q-5 0 -2 5q16 51 21 108
q3 36 3 63q0 25 -2 37v1q0 5 10 5q4 0 8 -1t4 -3q2 -5 2 -28zM158 556.5q-2 2.5 1 4.5l76 86h1q4 0 6 -12t0 -15l-80 -64q-2 -2 -4 0.5z" />
    <glyph glyph-name="uni0145" unicode="&#x145;" horiz-adv-x="759" 
d="M281 -209q11 25 24 70.5t17 77.5h87v-9q-8 -31 -31.5 -76.5t-48.5 -74.5h-48v12zM1944.5 1916.5q-161.5 -216.5 -325 -479.5t-426.5 -707q-323 -548 -549.5 -905.5t-463.5 -649t-440 -403.5q-4 -2 -6 1.5t2 5.5q201 110 435 398t456 637.5t549 901.5l10 18q8 14 13 21
q257 434 419 695t322 475t290 310q104 77 176 77q49 0 77 -37t28 -112q0 -21 -3 -47q-17 -171 -124 -495q-75 -233 -216 -622q-136 -379 -222 -636.5t-145 -496t-59 -392.5q0 -53 7 -91q25 -143 150 -143q16 0 52 6h1q3 0 4 -3.5t-3 -4.5q-30 -6 -58 -6q-134 0 -164 153
q-9 46 -9 107q0 163 62 412t149.5 511t230.5 660l16 46q141 397 214.5 624.5t94.5 369.5q4 31 4 61q0 65 -23 97t-65 32q-67 0 -170 -75q-129 -97 -290.5 -313.5zM-661.5 -1281q0.5 4 4.5 3t9.5 -2t12.5 -1q42 -7 95 -5q239 11 468.5 237t422.5 586t342 791q143 417 225 835
q67 344 67 591q0 26 -2 72q-7 99 -21 155q-38 145 -125 145q-77 0 -180 -110q-70 -75 -145 -190.5t-148 -260.5q-152 -303 -235 -615q-68 -259 -68 -453q0 -74 8 -127q39 -279 246 -350q4 -2 2.5 -5.5t-5.5 -2.5q-212 74 -251 357q-8 55 -8 128q0 194 68 455q81 306 235 616
q72 143 148.5 260.5t148.5 194.5q49 52 97 82t91 30q92 0 137 -144q22 -70 28 -172q3 -48 3 -103q0 -256 -72 -616q-89 -442 -257 -894q-153 -408 -345 -742.5t-417 -541t-458 -216.5q-9 -1 -27 -1q-36 0 -70 6l-21 3q-4 1 -3.5 5z" />
    <glyph glyph-name="uni0146" unicode="&#x146;" horiz-adv-x="618" 
d="M222 -209q11 25 24 70.5t17 77.5h87v-9q-8 -31 -31.5 -76.5t-48.5 -74.5h-48v12zM21 467q0 -32 -4 -65q-6 -41 -17 -83q8 19 24 65q7 18 8 23q2 6 9.5 25.5t13.5 32t12 19.5q11 11 23 11q18 0 27 -17q9 -16 9 -44q-1 -26 -8 -64t-15 -76q-22 -93 -22 -136q0 -17 2 -24
q6 -23 31 -23q51 0 152 77q76 58 156.5 139t101.5 112q2 5 6 2t1 -6q-18 -30 -100 -111.5t-161 -142.5q-83 -62 -132 -74q-12 -4 -26 -4q-30 0 -39 28q-6 18 -6 43q0 39 15 120l5 30q18 80 18 128q0 4 -2 18q-5 17 -16 17q-12 0 -21.5 -19t-24.5 -60l-9 -26q-16 -48 -25 -67
q-3 -4 -8.5 -14t-11 -16t-10.5 -5q-5 0 -2 5q16 51 21 108q3 36 3 63q0 25 -2 37v1q0 5 10 5q4 0 8 -1t4 -3q2 -5 2 -28z" />
    <glyph glyph-name="Ncaron" unicode="&#x147;" horiz-adv-x="759" 
d="M261 810q2 2 4 -0.5t-1 -4.5l-76 -86h-3l-76 86q-3 2 -1 4.5t4 0.5l74 -59zM1944.5 1916.5q-161.5 -216.5 -325 -479.5t-426.5 -707q-323 -548 -549.5 -905.5t-463.5 -649t-440 -403.5q-4 -2 -6 1.5t2 5.5q201 110 435 398t456 637.5t549 901.5l10 18q8 14 13 21
q257 434 419 695t322 475t290 310q104 77 176 77q49 0 77 -37t28 -112q0 -21 -3 -47q-17 -171 -124 -495q-75 -233 -216 -622q-136 -379 -222 -636.5t-145 -496t-59 -392.5q0 -53 7 -91q25 -143 150 -143q16 0 52 6h1q3 0 4 -3.5t-3 -4.5q-30 -6 -58 -6q-134 0 -164 153
q-9 46 -9 107q0 163 62 412t149.5 511t230.5 660l16 46q141 397 214.5 624.5t94.5 369.5q4 31 4 61q0 65 -23 97t-65 32q-67 0 -170 -75q-129 -97 -290.5 -313.5zM-661.5 -1281q0.5 4 4.5 3t9.5 -2t12.5 -1q42 -7 95 -5q239 11 468.5 237t422.5 586t342 791q143 417 225 835
q67 344 67 591q0 26 -2 72q-7 99 -21 155q-38 145 -125 145q-77 0 -180 -110q-70 -75 -145 -190.5t-148 -260.5q-152 -303 -235 -615q-68 -259 -68 -453q0 -74 8 -127q39 -279 246 -350q4 -2 2.5 -5.5t-5.5 -2.5q-212 74 -251 357q-8 55 -8 128q0 194 68 455q81 306 235 616
q72 143 148.5 260.5t148.5 194.5q49 52 97 82t91 30q92 0 137 -144q22 -70 28 -172q3 -48 3 -103q0 -256 -72 -616q-89 -442 -257 -894q-153 -408 -345 -742.5t-417 -541t-458 -216.5q-9 -1 -27 -1q-36 0 -70 6l-21 3q-4 1 -3.5 5z" />
    <glyph glyph-name="ncaron" unicode="&#x148;" horiz-adv-x="618" 
d="M194 645q2 2 4 -0.5t-1 -4.5l-76 -86h-3l-76 86q-3 2 -1 4.5t4 0.5l74 -59zM21 467q0 -32 -4 -65q-6 -41 -17 -83q8 19 24 65q7 18 8 23q2 6 9.5 25.5t13.5 32t12 19.5q11 11 23 11q18 0 27 -17q9 -16 9 -44q-1 -26 -8 -64t-15 -76q-22 -93 -22 -136q0 -17 2 -24
q6 -23 31 -23q51 0 152 77q76 58 156.5 139t101.5 112q2 5 6 2t1 -6q-18 -30 -100 -111.5t-161 -142.5q-83 -62 -132 -74q-12 -4 -26 -4q-30 0 -39 28q-6 18 -6 43q0 39 15 120l5 30q18 80 18 128q0 4 -2 18q-5 17 -16 17q-12 0 -21.5 -19t-24.5 -60l-9 -26q-16 -48 -25 -67
q-3 -4 -8.5 -14t-11 -16t-10.5 -5q-5 0 -2 5q16 51 21 108q3 36 3 63q0 25 -2 37v1q0 5 10 5q4 0 8 -1t4 -3q2 -5 2 -28z" />
    <glyph glyph-name="napostrophe" unicode="&#x149;" horiz-adv-x="690" 
d="M145 714l7 -11q-25 -97 -86 -234h-65q34 139 50 245h94zM92 467q0 -32 -4 -65q-6 -41 -17 -83q8 19 24 65q7 18 8 23q2 6 9.5 25.5t13.5 32t12 19.5q11 11 23 11q18 0 27 -17q9 -16 9 -44q-1 -26 -8 -64t-15 -76q-22 -93 -22 -136q0 -17 2 -24q6 -23 31 -23q51 0 152 77
q76 58 156.5 139t101.5 112q2 5 6 2t1 -6q-18 -30 -100 -111.5t-161 -142.5q-83 -62 -132 -74q-12 -4 -26 -4q-30 0 -39 28q-6 18 -6 43q0 39 15 120l5 30q18 80 18 128q0 4 -2 18q-5 17 -16 17q-12 0 -21.5 -19t-24.5 -60l-9 -26q-16 -48 -25 -67q-3 -4 -8.5 -14t-11 -16
t-10.5 -5q-5 0 -2 5q16 51 21 108q3 36 3 63q0 25 -2 37v1q0 5 10 5q4 0 8 -1t4 -3q2 -5 2 -28z" />
    <glyph glyph-name="Eng" unicode="&#x14a;" horiz-adv-x="759" 
d="M475 -190q-48 0 -76 13v76q35 -10 76 -10q50 0 76.5 28.5t27.5 82.5l-403 593h-4q8 -125 8 -206v-387h-83v714h104l381 -572h4q-7 75 -7 200v372h84v-708q0 -96 -48.5 -146t-139.5 -50z" />
    <glyph glyph-name="eng" unicode="&#x14b;" horiz-adv-x="618" 
d="M394 -240q-42 0 -71 12v71q29 -10 60 -10q67 0 67 84v427q0 65 -29 96.5t-90 31.5q-83 0 -120.5 -45.5t-37.5 -147.5v-279h-88v536h71l14 -73h5q25 40 69 61.5t98 21.5q99 0 147.5 -46.5t48.5 -149.5v-430q0 -75 -35 -117.5t-109 -42.5z" />
    <glyph glyph-name="Omacron" unicode="&#x14c;" horiz-adv-x="780" 
d="M242 842h297v-71h-297v71zM1706 1930q-306 0 -573 -180.5t-472.5 -479.5t-344.5 -667q-147 -395 -196 -799q-18 -153 -18 -293q0 -217 43 -385q52 -205 160 -302.5t254 -97.5q111 0 233.5 53t240.5 148q269 216 527 648t420 930t162 901q0 188 -40 341
q-55 208 -174.5 307t-287.5 99q-272 0 -603.5 -232t-579 -589.5t-292.5 -706.5q0 -4 -4 -4t-4 4q45 352 294 711.5t582 592.5t608 233q170 0 291.5 -100.5t177.5 -311.5q40 -153 40 -343q0 -405 -162.5 -905t-421.5 -933.5t-529 -648.5q-120 -95 -243.5 -148t-236.5 -53
q-153 0 -267 102.5t-171 318.5q-45 174 -45 397q0 133 17 286q44 394 195 796q140 368 348 665.5t481.5 475.5t590.5 178q54 0 98 -4q4 -1 3.5 -5t-5.5 -4q-40 5 -96 5z" />
    <glyph glyph-name="omacron" unicode="&#x14d;" horiz-adv-x="604" 
d="M154 677h297v-71h-297v71zM160.5 486.5q-1.5 -3.5 -5.5 -1.5q-24 12 -44 12q-65 0 -115 -108q-15 -39 -19 -66q-3 -13 -3 -27q0 -25 8 -36.5t21 -11.5q12 0 26 8q25 16 50 50q-23 12 -34 30.5t-11 39.5q0 27 17 53q14 23 32 36.5t34 13.5q13 0 20.5 -9.5t7.5 -27.5
q0 -17 -9 -46q-18 -52 -45 -87q36 -18 88 -18q51 0 116 18q73 19 144.5 56t118.5 75q2 3 5 -0.5t-1 -5.5q-47 -38 -119 -76t-146 -57q-63 -19 -116 -19q-55 0 -95 20q-28 -37 -54 -53q-15 -9 -30 -9q-25 0 -38 24q-6 12 -8 32q-1 5 -1 16q0 32 14 71q17 48 49 83
q40 40 86 40q28 0 55 -14q3 -2 1.5 -5.5zM111.5 358.5q10.5 19.5 16.5 40.5q8 27 8 41q0 15 -5.5 22.5t-15.5 7.5q-12 0 -27.5 -12t-29.5 -33q-15 -24 -15 -49q0 -41 41 -64q17 27 27.5 46.5z" />
    <glyph glyph-name="Obreve" unicode="&#x14e;" horiz-adv-x="780" 
d="M387 771q-69 0 -108.5 33.5t-44.5 100.5h54q4 -35 24.5 -49t76.5 -14q49 0 73 15.5t28 47.5h55q-6 -64 -48 -99t-110 -35zM1706 1930q-306 0 -573 -180.5t-472.5 -479.5t-344.5 -667q-147 -395 -196 -799q-18 -153 -18 -293q0 -217 43 -385q52 -205 160 -302.5t254 -97.5
q111 0 233.5 53t240.5 148q269 216 527 648t420 930t162 901q0 188 -40 341q-55 208 -174.5 307t-287.5 99q-272 0 -603.5 -232t-579 -589.5t-292.5 -706.5q0 -4 -4 -4t-4 4q45 352 294 711.5t582 592.5t608 233q170 0 291.5 -100.5t177.5 -311.5q40 -153 40 -343
q0 -405 -162.5 -905t-421.5 -933.5t-529 -648.5q-120 -95 -243.5 -148t-236.5 -53q-153 0 -267 102.5t-171 318.5q-45 174 -45 397q0 133 17 286q44 394 195 796q140 368 348 665.5t481.5 475.5t590.5 178q54 0 98 -4q4 -1 3.5 -5t-5.5 -4q-40 5 -96 5z" />
    <glyph glyph-name="obreve" unicode="&#x14f;" horiz-adv-x="604" 
d="M299 606q-69 0 -108.5 33.5t-44.5 100.5h54q4 -35 24.5 -49t76.5 -14q49 0 73 15.5t28 47.5h55q-6 -64 -48 -99t-110 -35zM160.5 486.5q-1.5 -3.5 -5.5 -1.5q-24 12 -44 12q-65 0 -115 -108q-15 -39 -19 -66q-3 -13 -3 -27q0 -25 8 -36.5t21 -11.5q12 0 26 8q25 16 50 50
q-23 12 -34 30.5t-11 39.5q0 27 17 53q14 23 32 36.5t34 13.5q13 0 20.5 -9.5t7.5 -27.5q0 -17 -9 -46q-18 -52 -45 -87q36 -18 88 -18q51 0 116 18q73 19 144.5 56t118.5 75q2 3 5 -0.5t-1 -5.5q-47 -38 -119 -76t-146 -57q-63 -19 -116 -19q-55 0 -95 20q-28 -37 -54 -53
q-15 -9 -30 -9q-25 0 -38 24q-6 12 -8 32q-1 5 -1 16q0 32 14 71q17 48 49 83q40 40 86 40q28 0 55 -14q3 -2 1.5 -5.5zM111.5 358.5q10.5 19.5 16.5 40.5q8 27 8 41q0 15 -5.5 22.5t-15.5 7.5q-12 0 -27.5 -12t-29.5 -33q-15 -24 -15 -49q0 -41 41 -64q17 27 27.5 46.5z
" />
    <glyph glyph-name="Ohungarumlaut" unicode="&#x150;" horiz-adv-x="780" 
d="M246 783q17 22 42.5 65.5t44.5 82.5h96v-10q-16 -27 -58.5 -75t-74.5 -75h-50v12zM422 783q23 32 49 76.5t38 71.5h96v-10q-16 -27 -58.5 -75t-74.5 -75h-50v12zM1706 1930q-306 0 -573 -180.5t-472.5 -479.5t-344.5 -667q-147 -395 -196 -799q-18 -153 -18 -293
q0 -217 43 -385q52 -205 160 -302.5t254 -97.5q111 0 233.5 53t240.5 148q269 216 527 648t420 930t162 901q0 188 -40 341q-55 208 -174.5 307t-287.5 99q-272 0 -603.5 -232t-579 -589.5t-292.5 -706.5q0 -4 -4 -4t-4 4q45 352 294 711.5t582 592.5t608 233
q170 0 291.5 -100.5t177.5 -311.5q40 -153 40 -343q0 -405 -162.5 -905t-421.5 -933.5t-529 -648.5q-120 -95 -243.5 -148t-236.5 -53q-153 0 -267 102.5t-171 318.5q-45 174 -45 397q0 133 17 286q44 394 195 796q140 368 348 665.5t481.5 475.5t590.5 178q54 0 98 -4
q4 -1 3.5 -5t-5.5 -4q-40 5 -96 5z" />
    <glyph glyph-name="ohungarumlaut" unicode="&#x151;" horiz-adv-x="604" 
d="M154 618q17 22 42.5 65.5t44.5 82.5h96v-10q-16 -27 -58.5 -75t-74.5 -75h-50v12zM330 618q23 32 49 76.5t38 71.5h96v-10q-16 -27 -58.5 -75t-74.5 -75h-50v12zM160.5 486.5q-1.5 -3.5 -5.5 -1.5q-24 12 -44 12q-65 0 -115 -108q-15 -39 -19 -66q-3 -13 -3 -27
q0 -25 8 -36.5t21 -11.5q12 0 26 8q25 16 50 50q-23 12 -34 30.5t-11 39.5q0 27 17 53q14 23 32 36.5t34 13.5q13 0 20.5 -9.5t7.5 -27.5q0 -17 -9 -46q-18 -52 -45 -87q36 -18 88 -18q51 0 116 18q73 19 144.5 56t118.5 75q2 3 5 -0.5t-1 -5.5q-47 -38 -119 -76t-146 -57
q-63 -19 -116 -19q-55 0 -95 20q-28 -37 -54 -53q-15 -9 -30 -9q-25 0 -38 24q-6 12 -8 32q-1 5 -1 16q0 32 14 71q17 48 49 83q40 40 86 40q28 0 55 -14q3 -2 1.5 -5.5zM111.5 358.5q10.5 19.5 16.5 40.5q8 27 8 41q0 15 -5.5 22.5t-15.5 7.5q-12 0 -27.5 -12t-29.5 -33
q-15 -24 -15 -49q0 -41 41 -64q17 27 27.5 46.5z" />
    <glyph glyph-name="OE" unicode="&#x152;" horiz-adv-x="3843" 
d="M1706 1930q-306 0 -573 -180.5t-472.5 -479.5t-344.5 -667q-147 -395 -196 -799q-18 -153 -18 -293q0 -217 43 -385q52 -205 160 -302.5t254 -97.5q111 0 233.5 53t240.5 148q269 216 527 648t420 930t162 901q0 188 -40 341q-55 208 -174.5 307t-287.5 99
q-272 0 -603.5 -232t-579 -589.5t-292.5 -706.5q0 -4 -4 -4t-4 4q45 352 294 711.5t582 592.5t608 233q170 0 291.5 -100.5t177.5 -311.5q40 -153 40 -343q0 -405 -162.5 -905t-421.5 -933.5t-529 -648.5q-120 -95 -243.5 -148t-236.5 -53q-153 0 -267 102.5t-171 318.5
q-45 174 -45 397q0 133 17 286q44 394 195 796q140 368 348 665.5t481.5 475.5t590.5 178q54 0 98 -4q4 -1 3.5 -5t-5.5 -4q-40 5 -96 5zM3053 1912.5q-187 -128.5 -372.5 -309t-331.5 -375.5q-200 -269 -264 -486q-26 -86 -29 -157q261 73 515.5 204t471.5 293t379 332
q169 177 247 331q52 103 52 184q0 83 -52 131t-145 48q-62 0 -135 -22q-149 -45 -336 -173.5zM2120 361q116 -146 430 -156q18 -1 54 -1q82 0 179 9l37 4h1q3 0 3.5 -3.5t-3.5 -4.5q-12 -3 -37 -5q-259 -34 -499 -174.5t-425 -341.5q-94 -103 -163.5 -211.5t-109.5 -213.5
q-51 -130 -51 -237q0 -71 23 -131q36 -93 113 -136t177 -43q72 0 151 21q184 49 409.5 197.5t467.5 364.5q211 190 409.5 406.5t345 411t211.5 323.5q2 4 5.5 2.5t1.5 -6.5q-65 -130 -211.5 -325t-345.5 -412t-411 -406q-241 -216 -468.5 -365t-412.5 -199q-74 -20 -149 -20
q-108 0 -192.5 47t-124.5 146q-25 63 -25 139q0 104 45 223q38 103 104.5 207.5t155.5 203.5q173 193 405 334.5t486 189.5q-54 -3 -104 -3q-34 0 -51 1q-336 10 -457 165q-66 83 -68 207q-283 -74 -533 -70q-4 1 -4 5t4 3q250 -4 533 70q2 89 28 172q65 220 262 486
q145 195 335 377t383.5 311t348.5 172q77 21 138 21q98 0 153 -49.5t55 -135.5q0 -85 -53 -190q-76 -150 -248 -333q-161 -170 -379.5 -332.5t-474.5 -294t-518 -204.5q-5 -128 64 -216z" />
    <glyph glyph-name="oe" unicode="&#x153;" horiz-adv-x="851" 
d="M213 245q-17 -45 -17 -79q0 -59 60 -59q16 0 44 6q71 16 172 68q107 56 218 133.5t161 125.5q3 3 6 0t0 -6q-47 -47 -159.5 -125.5t-221.5 -134.5q-104 -54 -175 -69q-27 -5 -44 -5q-76 0 -76 76q0 16 3 34l8 35q4 13 14 39q-9 -1 -26 -1q-56 0 -94 19q-28 -37 -54 -53
q-15 -9 -30 -9q-25 0 -38 24q-6 12 -8 32q-1 5 -1 16q0 32 14 71q17 48 49 83q40 40 86 40q28 0 55 -14q3 -2 1.5 -5.5t-5.5 -1.5q-24 12 -44 12q-65 0 -115 -108q-15 -39 -19 -66q-3 -13 -3 -27q0 -25 8 -36.5t21 -11.5q12 0 26 8q25 16 50 50q-23 12 -34 30.5t-11 39.5
q0 27 17 53q14 23 32 36.5t34 13.5q13 0 20.5 -9.5t7.5 -27.5q0 -17 -9 -46q-18 -52 -45 -87q37 -18 88 -18q20 0 30 1l3 6q21 44 29 58q46 77 100 124q23 20 45 30q17 6 31 6q23 0 38.5 -13t15.5 -34q0 -20 -16 -42q-22 -30 -64 -59q-36 -25 -80 -47t-81 -35
q-12 -25 -17 -41zM357 469q-41 -37 -87 -110q-13 -21 -35 -63q34 13 75 34t77 45q40 28 62 56q14 18 14 38q0 17 -10 27.5t-26 10.5q-15 0 -32 -10q-15 -7 -38 -28zM111.5 358.5q10.5 19.5 16.5 40.5q8 27 8 41q0 15 -5.5 22.5t-15.5 7.5q-12 0 -27.5 -12t-29.5 -33
q-15 -24 -15 -49q0 -41 41 -64q17 27 27.5 46.5z" />
    <glyph glyph-name="Racute" unicode="&#x154;" horiz-adv-x="622" 
d="M24.5 -1282q-0.5 4 3.5 4l18 3q171 38 435 385t531 850.5t447 982.5q137 367 188 636q28 141 28 254q0 40 -2 59q-211 -129 -433.5 -326.5t-427 -433t-367.5 -478.5q-214 -321 -314 -592q-74 -205 -74 -359q0 -68 13 -121q29 -118 121.5 -190t253.5 -90q4 -1 3.5 -5
t-4.5 -3q-164 18 -258 92t-123 194q-14 59 -14 123q0 153 75 361q97 268 314 595q163 242 369 478t429.5 434.5t435.5 329.5q-5 52 -24 101q-44 102 -151 102h-13q-4 0 -4.5 4t3.5 4q7 1 16 1q114 -1 163 -99q21 -44 31 -101q282 173 506 189q11 1 33 1q94 0 177 -30
t141.5 -93t76.5 -156q7 -36 7 -82q0 -94 -34 -192q-49 -148 -156 -283q-133 -166 -317.5 -268t-392.5 -102q-27 0 -41 1q-54 3 -109 15q199 -88 306.5 -271.5t144 -413.5t36.5 -518q0 -113 -6 -315q-6 -184 -6 -261q0 -153 16 -252t56 -145q36 -39 90 -38q138 11 407 246
q4 2 6.5 -1t-1.5 -5q-78 -67 -140 -115.5t-137 -90t-135 -42.5q-70 -4 -111 44q-47 52 -64 165t-17 294q0 46 2 146l1 84q4 176 4 272q0 304 -37 542.5t-149.5 425t-324.5 262.5q-4 2 -2.5 6t6.5 2q77 -21 152 -27q34 -2 50 -2q199 0 379 102.5t307 265.5q105 136 154 282
q35 103 35 197q0 39 -6 73q-15 90 -68 150.5t-130.5 90t-166.5 29.5q-22 0 -33 -1q-221 -13 -508 -188q6 -45 6 -96q0 -98 -23 -228q-52 -281 -192 -655q-179 -477 -450.5 -980t-541.5 -848.5t-446 -381.5l-18 -3q-4 0 -4.5 4zM157 721.5q-2 2.5 1 4.5l76 86h1q4 0 6 -12
t0 -15l-80 -64q-2 -2 -4 0.5z" />
    <glyph glyph-name="racute" unicode="&#x155;" horiz-adv-x="413" 
d="M-24 492q0 27 12 44q11 17 25 24q10 5 22 9l9 1q5 0 11 -2q12 -5 13 -14q4 -13 -17 -53q-12 -25 -44 -67q10 -18 39 -58q7 -10 7 -28q0 -27 -15.5 -65t-44.5 -97q-53 -102 -53 -138q0 -15 9 -21q5 -4 16 -4q28 0 77 29t119 81q97 75 191 165.5t127 141.5q2 3 5.5 0.5
t1.5 -5.5q-36 -52 -130.5 -143.5t-189.5 -164.5q-145 -112 -202 -112q-11 0 -19 5q-15 9 -15 31q0 23 12 55t37 85q26 58 39 93.5t13 60.5q0 18 -6 26q-16 21 -31 50q0 1 -7 16q-11 31 -11 55zM55 541q0 10 -11 13q-10 2 -15 1t-10 -3.5t-8 -3.5q-9 -6 -16 -16
q-11 -18 -11 -36q0 -21 17 -52q1 0 1 -1q0 -2 1 -2q29 38 40 62l8 20q4 14 4 18zM82 556.5q-2 2.5 1 4.5l76 86h1q4 0 6 -12t0 -15l-80 -64q-2 -2 -4 0.5z" />
    <glyph glyph-name="uni0156" unicode="&#x156;" horiz-adv-x="622" 
d="M242 -209q11 25 24 70.5t17 77.5h87v-9q-8 -31 -31.5 -76.5t-48.5 -74.5h-48v12zM24.5 -1282q-0.5 4 3.5 4l18 3q171 38 435 385t531 850.5t447 982.5q137 367 188 636q28 141 28 254q0 40 -2 59q-211 -129 -433.5 -326.5t-427 -433t-367.5 -478.5q-214 -321 -314 -592
q-74 -205 -74 -359q0 -68 13 -121q29 -118 121.5 -190t253.5 -90q4 -1 3.5 -5t-4.5 -3q-164 18 -258 92t-123 194q-14 59 -14 123q0 153 75 361q97 268 314 595q163 242 369 478t429.5 434.5t435.5 329.5q-5 52 -24 101q-44 102 -151 102h-13q-4 0 -4.5 4t3.5 4q7 1 16 1
q114 -1 163 -99q21 -44 31 -101q282 173 506 189q11 1 33 1q94 0 177 -30t141.5 -93t76.5 -156q7 -36 7 -82q0 -94 -34 -192q-49 -148 -156 -283q-133 -166 -317.5 -268t-392.5 -102q-27 0 -41 1q-54 3 -109 15q199 -88 306.5 -271.5t144 -413.5t36.5 -518q0 -113 -6 -315
q-6 -184 -6 -261q0 -153 16 -252t56 -145q36 -39 90 -38q138 11 407 246q4 2 6.5 -1t-1.5 -5q-78 -67 -140 -115.5t-137 -90t-135 -42.5q-70 -4 -111 44q-47 52 -64 165t-17 294q0 46 2 146l1 84q4 176 4 272q0 304 -37 542.5t-149.5 425t-324.5 262.5q-4 2 -2.5 6t6.5 2
q77 -21 152 -27q34 -2 50 -2q199 0 379 102.5t307 265.5q105 136 154 282q35 103 35 197q0 39 -6 73q-15 90 -68 150.5t-130.5 90t-166.5 29.5q-22 0 -33 -1q-221 -13 -508 -188q6 -45 6 -96q0 -98 -23 -228q-52 -281 -192 -655q-179 -477 -450.5 -980t-541.5 -848.5
t-446 -381.5l-18 -3q-4 0 -4.5 4z" />
    <glyph glyph-name="uni0157" unicode="&#x157;" horiz-adv-x="413" 
d="M48 -209q11 25 24 70.5t17 77.5h87v-9q-8 -31 -31.5 -76.5t-48.5 -74.5h-48v12zM-24 492q0 27 12 44q11 17 25 24q10 5 22 9l9 1q5 0 11 -2q12 -5 13 -14q4 -13 -17 -53q-12 -25 -44 -67q10 -18 39 -58q7 -10 7 -28q0 -27 -15.5 -65t-44.5 -97q-53 -102 -53 -138
q0 -15 9 -21q5 -4 16 -4q28 0 77 29t119 81q97 75 191 165.5t127 141.5q2 3 5.5 0.5t1.5 -5.5q-36 -52 -130.5 -143.5t-189.5 -164.5q-145 -112 -202 -112q-11 0 -19 5q-15 9 -15 31q0 23 12 55t37 85q26 58 39 93.5t13 60.5q0 18 -6 26q-16 21 -31 50q0 1 -7 16
q-11 31 -11 55zM55 541q0 10 -11 13q-10 2 -15 1t-10 -3.5t-8 -3.5q-9 -6 -16 -16q-11 -18 -11 -36q0 -21 17 -52q1 0 1 -1q0 -2 1 -2q29 38 40 62l8 20q4 14 4 18z" />
    <glyph glyph-name="Rcaron" unicode="&#x158;" horiz-adv-x="622" 
d="M191 810q2 2 4 -0.5t-1 -4.5l-76 -86h-3l-76 86q-3 2 -1 4.5t4 0.5l74 -59zM24.5 -1282q-0.5 4 3.5 4l18 3q171 38 435 385t531 850.5t447 982.5q137 367 188 636q28 141 28 254q0 40 -2 59q-211 -129 -433.5 -326.5t-427 -433t-367.5 -478.5q-214 -321 -314 -592
q-74 -205 -74 -359q0 -68 13 -121q29 -118 121.5 -190t253.5 -90q4 -1 3.5 -5t-4.5 -3q-164 18 -258 92t-123 194q-14 59 -14 123q0 153 75 361q97 268 314 595q163 242 369 478t429.5 434.5t435.5 329.5q-5 52 -24 101q-44 102 -151 102h-13q-4 0 -4.5 4t3.5 4q7 1 16 1
q114 -1 163 -99q21 -44 31 -101q282 173 506 189q11 1 33 1q94 0 177 -30t141.5 -93t76.5 -156q7 -36 7 -82q0 -94 -34 -192q-49 -148 -156 -283q-133 -166 -317.5 -268t-392.5 -102q-27 0 -41 1q-54 3 -109 15q199 -88 306.5 -271.5t144 -413.5t36.5 -518q0 -113 -6 -315
q-6 -184 -6 -261q0 -153 16 -252t56 -145q36 -39 90 -38q138 11 407 246q4 2 6.5 -1t-1.5 -5q-78 -67 -140 -115.5t-137 -90t-135 -42.5q-70 -4 -111 44q-47 52 -64 165t-17 294q0 46 2 146l1 84q4 176 4 272q0 304 -37 542.5t-149.5 425t-324.5 262.5q-4 2 -2.5 6t6.5 2
q77 -21 152 -27q34 -2 50 -2q199 0 379 102.5t307 265.5q105 136 154 282q35 103 35 197q0 39 -6 73q-15 90 -68 150.5t-130.5 90t-166.5 29.5q-22 0 -33 -1q-221 -13 -508 -188q6 -45 6 -96q0 -98 -23 -228q-52 -281 -192 -655q-179 -477 -450.5 -980t-541.5 -848.5
t-446 -381.5l-18 -3q-4 0 -4.5 4z" />
    <glyph glyph-name="rcaron" unicode="&#x159;" horiz-adv-x="413" 
d="M112 645q2 2 4 -0.5t-1 -4.5l-76 -86h-3l-76 86q-3 2 -1 4.5t4 0.5l74 -59zM-24 492q0 27 12 44q11 17 25 24q10 5 22 9l9 1q5 0 11 -2q12 -5 13 -14q4 -13 -17 -53q-12 -25 -44 -67q10 -18 39 -58q7 -10 7 -28q0 -27 -15.5 -65t-44.5 -97q-53 -102 -53 -138q0 -15 9 -21
q5 -4 16 -4q28 0 77 29t119 81q97 75 191 165.5t127 141.5q2 3 5.5 0.5t1.5 -5.5q-36 -52 -130.5 -143.5t-189.5 -164.5q-145 -112 -202 -112q-11 0 -19 5q-15 9 -15 31q0 23 12 55t37 85q26 58 39 93.5t13 60.5q0 18 -6 26q-16 21 -31 50q0 1 -7 16q-11 31 -11 55zM55 541
q0 10 -11 13q-10 2 -15 1t-10 -3.5t-8 -3.5q-9 -6 -16 -16q-11 -18 -11 -36q0 -21 17 -52q1 0 1 -1q0 -2 1 -2q29 38 40 62l8 20q4 14 4 18z" />
    <glyph glyph-name="Sacute" unicode="&#x15a;" horiz-adv-x="548" 
d="M2458 1031q-407 -265 -859.5 -438.5t-767.5 -178.5q-4 0 -4 4t4 4q315 5 765.5 177.5t856 437t596.5 526.5q113 155 113 272q0 119 -111.5 184.5t-303.5 71.5h-32q-155 0 -342 -32.5t-394 -95.5q-230 -68 -460 -168.5t-443 -227.5q-468 -281 -734 -623
q-277 -364 -277 -749q0 -131 30 -255q24 -102 61.5 -187t79.5 -152.5t114 -171.5q57 -83 96 -143q126 241 452.5 431.5t688.5 316t876 273.5q332 96 447 134q4 2 5.5 -1.5t-2.5 -5.5q-124 -42 -449 -135q-514 -148 -876.5 -273.5t-688 -316t-448.5 -431.5
q81 -125 133.5 -228t64.5 -180q3 -18 3 -35q0 -58 -32 -93.5t-76 -35.5q-27 0 -52.5 13.5t-45.5 41.5q-35 47 -51.5 109t-16.5 131q0 73 17 145.5t46 129.5q-43 65 -91 134q-75 109 -120 181t-85 160t-67 192q-37 141 -37 277q0 183 63 358t180 337q250 344 705 626
q208 129 435.5 232t459.5 177q228 72 436.5 110.5t376.5 38.5q30 0 45 -1q131 -3 227.5 -34t148.5 -89t52 -140q0 -122 -114 -276q-191 -263 -598 -528zM578 -962.5q-50 96.5 -133 229.5q-27 -56 -43 -126.5t-16 -141.5q0 -68 16 -128t50 -105q19 -25 43 -38t49 -13
q42 0 71.5 31t29.5 84q0 10 -4 36q-13 75 -63 171.5zM135 721.5q-2 2.5 1 4.5l76 86h1q4 0 6 -12t0 -15l-80 -64q-2 -2 -4 0.5z" />
    <glyph glyph-name="sacute" unicode="&#x15b;" horiz-adv-x="479" 
d="M66 485q-23 -16 -38 -36.5t-15 -43.5q0 -16 7.5 -37t22.5 -55q14 12 43.5 18.5t84.5 13.5q100 14 171 33t123 62q3 3 5.5 -0.5t-0.5 -5.5q-53 -44 -124.5 -63.5t-172.5 -33.5q-55 -7 -84.5 -13.5t-42.5 -17.5q15 -30 20 -54v-5q0 -14 -13 -14q-5 0 -8 2q-6 5 -12 12
q-3 5 -5 18q-1 3 -1 9q0 12 6 27l-2 5q-18 34 -29 59.5t-11 43.5q0 24 16.5 45t40.5 36q21 12 42 19q11 4 23 4q11 0 17 -4.5t6 -12.5q0 -10 -10 -26q-14 -21 -34 -43q-4 -4 -6 0q-3 2 0 5q19 21 33 42q8 14 8 21q0 10 -12 10q-8 0 -21 -5q-15 -7 -28 -15zM38 292
q-5 -14 -3 -26q1 -9 6 -15q1 -3 7 -9l5 -1q2 0 3.5 2t0.5 5q-1 13 -19 44zM89 556.5q-2 2.5 1 4.5l76 86h1q4 0 6 -12t0 -15l-80 -64q-2 -2 -4 0.5z" />
    <glyph glyph-name="Scircumflex" unicode="&#x15c;" horiz-adv-x="548" 
d="M13 721.5q-2 2.5 1 4.5l76 86h3l76 -86q3 -2 1 -4.5t-4 -0.5l-75 59l-74 -59q-2 -2 -4 0.5zM2458 1031q-407 -265 -859.5 -438.5t-767.5 -178.5q-4 0 -4 4t4 4q315 5 765.5 177.5t856 437t596.5 526.5q113 155 113 272q0 119 -111.5 184.5t-303.5 71.5h-32
q-155 0 -342 -32.5t-394 -95.5q-230 -68 -460 -168.5t-443 -227.5q-468 -281 -734 -623q-277 -364 -277 -749q0 -131 30 -255q24 -102 61.5 -187t79.5 -152.5t114 -171.5q57 -83 96 -143q126 241 452.5 431.5t688.5 316t876 273.5q332 96 447 134q4 2 5.5 -1.5t-2.5 -5.5
q-124 -42 -449 -135q-514 -148 -876.5 -273.5t-688 -316t-448.5 -431.5q81 -125 133.5 -228t64.5 -180q3 -18 3 -35q0 -58 -32 -93.5t-76 -35.5q-27 0 -52.5 13.5t-45.5 41.5q-35 47 -51.5 109t-16.5 131q0 73 17 145.5t46 129.5q-43 65 -91 134q-75 109 -120 181t-85 160
t-67 192q-37 141 -37 277q0 183 63 358t180 337q250 344 705 626q208 129 435.5 232t459.5 177q228 72 436.5 110.5t376.5 38.5q30 0 45 -1q131 -3 227.5 -34t148.5 -89t52 -140q0 -122 -114 -276q-191 -263 -598 -528zM578 -962.5q-50 96.5 -133 229.5q-27 -56 -43 -126.5
t-16 -141.5q0 -68 16 -128t50 -105q19 -25 43 -38t49 -13q42 0 71.5 31t29.5 84q0 10 -4 36q-13 75 -63 171.5z" />
    </font>
</defs>
</svg>
