<?xml version="1.0" standalone="no"?>
<!DOCTYPE svg PUBLIC "-//W3C//DTD SVG 1.1//EN" "http://www.w3.org/Graphics/SVG/1.1/DTD/svg11.dtd" >
<svg xmlns="http://www.w3.org/2000/svg" xmlns:xlink="http://www.w3.org/1999/xlink" version="1.1">
<metadata>
Created by FontForge 20190801 at Mon Feb  8 12:19:25 2021
 By root
Copyright (c) 2010 by Toshi Omagari. All rights reserved.
</metadata>
<defs>
<font id="Tangerine-Regular" horiz-adv-x="150" >
  <font-face 
    font-family="Tangerine"
    font-weight="400"
    font-stretch="normal"
    units-per-em="1000"
    panose-1="2 0 0 0 0 0 0 0 0 0"
    ascent="750"
    descent="-250"
    x-height="255"
    cap-height="645"
    bbox="-328 -285.533 1584 1046"
    underline-thickness="50"
    underline-position="-100"
    unicode-range="U+0001-206F"
  />
<missing-glyph horiz-adv-x="364" 
d="M33 0v666h265v-666h-265zM66 33h199v600h-199v-600z" />
    <glyph glyph-name=".notdef" horiz-adv-x="364" 
d="M33 0v666h265v-666h-265zM66 33h199v600h-199v-600z" />
    <glyph glyph-name="uni0000" 
 />
    <glyph glyph-name="uni0000" 
 />
    <glyph glyph-name="uni000D" unicode="&#xd;" 
 />
    <glyph glyph-name="uni0001" 
 />
    <glyph glyph-name="uni0002" 
 />
    <glyph glyph-name="uni0003" 
 />
    <glyph glyph-name="uni0004" 
 />
    <glyph glyph-name="uni0005" 
 />
    <glyph glyph-name="uni0006" 
 />
    <glyph glyph-name="uni0007" 
 />
    <glyph glyph-name="uni0008" 
 />
    <glyph glyph-name="uni0009" unicode="&#x9;" 
 />
    <glyph glyph-name="uni000A" unicode="&#xa;" 
 />
    <glyph glyph-name="uni000B" 
 />
    <glyph glyph-name="uni000C" 
 />
    <glyph glyph-name="uni000E" 
 />
    <glyph glyph-name="uni000F" 
 />
    <glyph glyph-name="uni0010" 
 />
    <glyph glyph-name="uni0011" 
 />
    <glyph glyph-name="uni0012" 
 />
    <glyph glyph-name="uni0013" 
 />
    <glyph glyph-name="uni0014" 
 />
    <glyph glyph-name="uni0015" 
 />
    <glyph glyph-name="uni0016" 
 />
    <glyph glyph-name="uni0017" 
 />
    <glyph glyph-name="uni0018" 
 />
    <glyph glyph-name="uni0019" 
 />
    <glyph glyph-name="uni001A" 
 />
    <glyph glyph-name="uni001B" 
 />
    <glyph glyph-name="uni001C" 
 />
    <glyph glyph-name="uni001D" 
 />
    <glyph glyph-name="uni001E" 
 />
    <glyph glyph-name="uni001F" 
 />
    <glyph glyph-name="space" unicode=" " 
 />
    <glyph glyph-name="space" unicode="&#xa0;" 
 />
    <glyph glyph-name="exclam" unicode="!" horiz-adv-x="189" 
d="M68 0q-13 0 -13 22q0 6 4.5 13t11 14t15 11.5t17.5 4.5q10 0 10 -14q0 -8 -4.5 -17t-11.5 -16.5t-14.5 -12.5t-14.5 -5zM315 525q-20 -39 -45.5 -94.5t-51.5 -111.5t-49 -106.5t-36 -80.5q-8 -9 -13.5 -6.5t-2.5 13.5q15 33 34.5 81t38 98.5t34 97.5t24.5 79
q6 9 19.5 20.5t26.5 18.5t20.5 6.5t0.5 -15.5z" />
    <glyph glyph-name="quotedbl" unicode="&#x22;" horiz-adv-x="214" 
d="M123 396q3 5 10.5 7t25.5 2q14 0 10 -10q-9 -10 -23 -26.5t-29.5 -34.5t-30.5 -35.5t-26 -28.5q-5 -2 -8 0.5t-1 7.5l15 24t20.5 33.5t20.5 34t16 26.5zM217 396q3 5 10.5 7t25.5 2q14 0 10 -10q-9 -10 -23 -26.5t-29.5 -34.5t-30.5 -35.5t-26 -28.5q-5 -2 -8 0.5t-1 7.5
l15 24t20.5 33.5t20.5 34t16 26.5z" />
    <glyph glyph-name="numbersign" unicode="#" horiz-adv-x="289" 
d="M301 237q7 -2 -0.5 -11t-16.5 -12q-13 1 -26.5 1h-27.5q-11 -19 -20.5 -37.5t-17.5 -37.5q16 0 30.5 -0.5t28.5 -1.5q3 -1 2.5 -4t-3.5 -7t-7.5 -7.5t-8.5 -4.5q-13 1 -26 1h-27q-12 -27 -22.5 -53t-20.5 -52q-4 -11 -10 -11t-4 7q7 21 17 49t23 60h-38.5t-36.5 -2
q-22 -54 -36 -103q-4 -11 -10 -11q-4 0 -4 7q5 20 14 47.5t20 58.5q-16 -2 -30 -3.5t-26 -3.5q-4 1 -3 5t5.5 9t10 9t10.5 5q10 1 20 1.5t21 1.5q8 19 15.5 38t15.5 38q-17 -2 -31 -3.5t-26 -3.5q-4 0 -2.5 4t5.5 9t9.5 9t10.5 5q11 2 22 2.5t23 1.5q7 14 13 26.5t13 23.5
q4 7 11 15t13.5 13.5t11 6t3.5 -8.5q-12 -19 -22.5 -38t-20.5 -37q19 0 38 0.5t37 0.5q7 13 13.5 24.5t13.5 21.5q4 7 12 16t15.5 15t12 7t3.5 -8q-13 -19 -24.5 -37.5t-22.5 -38.5q16 0 30.5 -0.5t27.5 -1.5zM173 140q16 37 35 76q-19 0 -38 -0.5t-37 -1.5
q-10 -20 -18.5 -38.5t-16.5 -37.5q19 1 38 1.5t37 0.5z" />
    <glyph glyph-name="dollar" unicode="$" horiz-adv-x="269" 
d="M222 309q17 -5 27 -12t10 -14q0 -14 -5 -31t-12 -28q-3 -2 -7 -0.5t-3 6.5q4 8 5 19t-1 19q-5 16 -22 24q-13 -29 -25 -56.5t-24 -54.5q17 -18 32.5 -37.5t15.5 -50.5q0 -39 -31.5 -66.5t-85.5 -27.5h-7q-5 -15 -11 -30.5t-13 -31.5q-5 -9 -11.5 -9.5t-5.5 7.5
q7 17 13.5 33.5t12.5 31.5q-29 4 -46.5 16t-17.5 25q0 6 3.5 14.5t9.5 18.5t14 19.5t16 15.5q4 2 7 -1t1 -8q-9 -8 -14.5 -21t-3.5 -24q6 -31 38 -39q15 38 29.5 72t29.5 69q-15 17 -27.5 33.5t-12.5 40.5q0 15 6 29.5t18 26.5t29 19t39 7q4 0 7.5 -0.5t6.5 -0.5
q8 16 15 32.5t15 34.5q5 7 11.5 5.5t4.5 -9.5q-15 -35 -30 -66zM182 76q0 23 -9.5 39.5t-22.5 30.5q-14 -33 -27.5 -65.5t-27.5 -66.5h3q42 0 63 18t21 44zM155 192q11 25 21.5 50.5t23.5 54.5h-8q-30 0 -45.5 -14t-15.5 -36q0 -17 7 -30t17 -25z" />
    <glyph glyph-name="percent" unicode="%" horiz-adv-x="388" 
d="M115 285q-27 0 -46.5 -24.5t-19.5 -54.5q0 -26 8.5 -40.5t27.5 -14.5q28 0 47 24.5t19 55.5q0 26 -8.5 40t-27.5 14zM67 123q-22 0 -34.5 14.5t-12.5 39.5q0 24 9.5 48t25 43.5t36 32t42.5 12.5t34.5 -14t12.5 -39q0 -24 -9.5 -48.5t-25 -44t-36 -32t-42.5 -12.5z
M303 162q-27 0 -46 -24.5t-19 -55.5q0 -26 8 -40t28 -14q27 0 46 24.5t19 55.5q0 26 -8 40t-28 14zM256 0q-22 0 -34.5 14.5t-12.5 39.5q0 24 9.5 48t25 43.5t35.5 32t42 12.5q23 0 35 -14t12 -39q0 -24 -9.5 -48.5t-25 -44t-35.5 -32t-42 -12.5zM364 367
q-81 -105 -162 -216.5t-150 -214.5q-8 -8 -15 -5.5t-5 10.5q39 55 75.5 107t74 104t77 106.5t85.5 115.5q7 5 14.5 3t5.5 -10z" />
    <glyph glyph-name="ampersand" unicode="&#x26;" horiz-adv-x="507" 
d="M501 204q2 -5 -2.5 -7.5t-8.5 2.5q-8 11 -21.5 18t-32.5 7q-24 0 -43 -13t-36.5 -33.5t-34.5 -45.5t-36 -49q27 -25 60 -39t72 -14q34 0 55 26q4 5 11 4t-1 -12q-16 -22 -39 -35t-56 -13q-38 0 -70.5 14t-58.5 39q-23 -23 -53 -38t-69 -15q-52 0 -84.5 30t-32.5 77
q0 30 12.5 52t32 39t44 31.5t49.5 29.5q-8 43 -8 78q0 28 8.5 53t23 44t33.5 30t40 11q17 0 29 -16t12 -36q0 -29 -9 -52.5t-24 -42t-34.5 -34t-40.5 -28.5q11 -50 33.5 -96t56.5 -79q20 25 38.5 54t38.5 54t42.5 41t51.5 16q22 0 34.5 -15.5t17.5 -36.5zM176 367
q0 -45 9 -91q34 23 58 52.5t24 76.5q0 19 -8.5 32t-25.5 13q-27 0 -42 -23.5t-15 -59.5zM59 124q0 -45 29 -71t81 -26q24 0 44 9t37 25q-35 36 -57 85.5t-33 101.5q-20 -13 -38 -25.5t-32 -27.5t-22.5 -32t-8.5 -39z" />
    <glyph glyph-name="quotesingle" unicode="'" horiz-adv-x="120" 
d="M123 396q3 5 10.5 7t25.5 2q14 0 10 -10q-9 -10 -23 -26.5t-29.5 -34.5t-30.5 -35.5t-26 -28.5q-5 -2 -8 0.5t-1 7.5l15 24t20.5 33.5t20.5 34t16 26.5z" />
    <glyph glyph-name="parenleft" unicode="(" horiz-adv-x="250" 
d="M315 637q7 4 12 2t0 -11q-20 -19 -43.5 -49.5t-41.5 -61.5q-26 -44 -47.5 -101t-36.5 -119t-23.5 -125t-8.5 -120q0 -16 1 -35.5t3.5 -39t6.5 -38t9 -32.5q1 -8 -5 -10.5t-11 3.5q-14 32 -23 76t-11.5 94.5t2 106.5t18.5 112q27 114 79.5 203t119.5 145z" />
    <glyph glyph-name="parenright" unicode=")" horiz-adv-x="276" 
d="M43 -102q-6 -4 -11 -2t0 11q20 20 43 50t42 62q26 44 47.5 100.5t36.5 118.5t23.5 125t8.5 120q0 16 -1 35.5t-3.5 39t-6.5 38t-9 32.5q-1 9 5 11t11 -4q14 -32 23 -76t11.5 -94.5t-2.5 -106.5t-18 -112q-27 -114 -79.5 -203t-120.5 -145z" />
    <glyph glyph-name="asterisk" unicode="*" horiz-adv-x="188" 
d="M199 335q-11 -2 -24 -4.5t-25 -4.5q-14 -3 -28 -5q8 -10 17 -21q8 -9 15.5 -18.5t14.5 -15.5q4 -4 2 -9t-6.5 -8t-10 -3.5t-7.5 4.5q-5 8 -11 19.5t-11 21.5q-6 11 -12 23q-9 -13 -17 -25q-7 -11 -14 -21.5t-12 -17.5q-3 -5 -8 -5t-9.5 2.5t-7 5.5t0.5 6q8 8 18.5 19
t19.5 21q11 11 21 23q-10 2 -21 5q-9 2 -19 4t-18 4q-5 1 -4.5 5t3.5 8.5t8 7t9 0.5q6 -4 14 -7.5t16 -7.5q9 -4 17 -9q3 13 6 25q2 11 5 22t5 20q1 6 7 10t12 5.5t10 0t2 -5.5q-5 -11 -11 -24.5t-11 -24.5q-6 -14 -13 -27l28 10q12 5 25 9t24 9q5 2 7 -1.5t1.5 -9t-2.5 -10
t-6 -5.5z" />
    <glyph glyph-name="plus" unicode="+" horiz-adv-x="301" 
d="M269 155q8 -2 1 -10t-19 -10h-83q-8 -23 -15 -44t-14 -41q-4 -13 -15.5 -16t-11.5 5q8 25 15.5 49t15.5 47q-23 -1 -44.5 -1t-42.5 -1q-7 2 -2 11t30 12h66q8 23 16 44.5t16 42.5q1 4 5.5 7.5t9.5 5t9 0.5t4 -5q-9 -26 -17.5 -49t-16.5 -46h47t46 -1z" />
    <glyph glyph-name="comma" unicode="," horiz-adv-x="112" 
d="M75 66q5 -2 8.5 -12.5t3.5 -22.5q0 -31 -23.5 -64.5t-58.5 -54.5q-4 0 -5 3.5t2 7.5q22 14 36 35t14 44q0 21 -10 27q-3 3 0.5 9t9.5 12t12.5 11t10.5 5z" />
    <glyph glyph-name="hyphen" unicode="-" horiz-adv-x="245" 
d="M59 160q13 1 33.5 3t43.5 3.5t45.5 2.5t39.5 1q4 -1 3 -5t-4.5 -8.5t-9.5 -8.5t-13 -5q-18 0 -40 -0.5t-43.5 -1.5t-41.5 -1.5t-33 -1.5q-7 2 0 10.5t20 11.5z" />
    <glyph glyph-name="period" unicode="." horiz-adv-x="112" 
d="M42 0q-12 0 -12 22q0 6 4 13t11 14t15 11.5t17 4.5q10 0 10 -15q0 -8 -4.5 -16.5t-11 -16t-14.5 -12.5t-15 -5z" />
    <glyph glyph-name="slash" unicode="/" horiz-adv-x="210" 
d="M379 625q-23 -37 -54.5 -90.5t-67.5 -115t-73.5 -127t-72 -126.5t-64 -114t-48.5 -89q-7 -8 -16 -6.5t-7 10.5q22 39 52 91t63.5 111t69.5 122t71.5 124t68 116l58.5 99q6 5 14 4t6 -9z" />
    <glyph glyph-name="zero" unicode="0" horiz-adv-x="349" 
d="M216 283q-29 0 -52.5 -12t-40.5 -32.5t-26 -47.5t-9 -56q0 -47 21 -75.5t66 -28.5q24 0 47 11t40.5 31t28 47.5t10.5 60.5q0 47 -20 74.5t-65 27.5zM148 0q-45 0 -69 29.5t-24 74.5q0 32 13.5 69t38.5 68t59 51.5t76 20.5q45 0 68.5 -29t23.5 -74q0 -41 -16 -78.5
t-42 -67t-59.5 -47t-68.5 -17.5z" />
    <glyph glyph-name="one" unicode="1" horiz-adv-x="189" 
d="M51 -7q-11 0 -11 9q12 32 26.5 66t29.5 68t30 66t28 60q-23 -6 -44 -11t-38 -5q-4 1 -3 6t7 7q38 5 75.5 22.5t69.5 45.5q5 2 9 0t3 -7q-25 -33 -47 -72.5t-40.5 -80t-32 -80.5t-22.5 -75q-7 -9 -18 -14t-22 -5z" />
    <glyph glyph-name="two" unicode="2" horiz-adv-x="277" 
d="M201 313q34 0 52 -20.5t18 -47.5q0 -30 -12.5 -54t-36.5 -46t-59 -44.5t-80 -49.5q21 -7 49 -12.5t62 -5.5q39 0 53 25q4 4 7.5 0.5t1.5 -10.5q-14 -23 -34 -35.5t-50 -12.5q-28 0 -49 5.5t-37.5 10.5t-30 6.5t-26.5 -6.5q-9 -5 -14.5 -9t-10.5 -7q-5 0 -5 6.5t5 11.5
q43 29 84 52.5t73 47t51 50t19 61.5q0 26 -16 40t-43 14q-32 0 -53.5 -22t-28.5 -54q-3 -3 -7 0t-5 8q4 18 14.5 35.5t26 31.5t36.5 22.5t46 8.5z" />
    <glyph glyph-name="three" unicode="3" horiz-adv-x="253" 
d="M182 313q37 0 56.5 -20.5t19.5 -44.5q0 -48 -34 -76t-101 -55q21 6 40.5 1.5t34.5 -17t23.5 -31.5t8.5 -40q0 -39 -19 -74t-50 -61t-72 -41.5t-84 -15.5q-32 0 -46 17.5t-16 50.5q2 3 6 4t6 -2q15 -46 82 -46q31 0 58.5 10t48 27.5t32.5 41.5t12 52q0 54 -22.5 80.5
t-64.5 26.5q-24 0 -43 -13q-5 0 -7 4.5t1 9.5q46 19 77.5 33t51 28t28 29.5t8.5 37.5q0 26 -15.5 43.5t-43.5 17.5q-26 0 -43 -11t-28 -31q-3 -3 -8 0t-3 8q12 23 38 40t68 17z" />
    <glyph glyph-name="four" unicode="4" horiz-adv-x="363" 
d="M452 503q5 1 8.5 -1.5t1.5 -7.5q-31 -27 -53 -56t-42 -64q-26 -46 -50 -100t-45 -114q5 -1 10 -1h10q35 0 57.5 10.5t33.5 30.5q2 2 5.5 -0.5t1.5 -7.5q-18 -32 -45 -47.5t-75 -15.5h-9q-8 -26 -16 -53.5t-16 -55.5q-4 -9 -17 -17.5t-24 -8.5q-10 0 -11 6q11 32 22 65
t24 66q-34 3 -61 8.5t-47 9t-34.5 4.5t-22.5 -5q-2 -2 -4 -3.5t-4 -3.5q-4 -2 -8 0t-2 7q43 53 94 103t105 95.5t108.5 85t104.5 71.5zM235 161q29 72 60.5 139.5t63.5 121.5q-40 -27 -75.5 -55t-68 -57.5t-63.5 -61t-62 -65.5q29 -8 66 -14t79 -8z" />
    <glyph glyph-name="five" unicode="5" horiz-adv-x="250" 
d="M125 159q40 -20 61.5 -52.5t21.5 -73.5q0 -36 -17.5 -70t-46.5 -60t-68 -41.5t-81 -15.5q-32 0 -47.5 16.5t-17.5 42.5q1 5 5.5 6t6.5 -2q11 -20 30.5 -28.5t55.5 -8.5q31 0 56.5 10.5t44.5 28.5t29.5 43t10.5 54q0 38 -19 68.5t-59 46.5q-23 8 -13 45q9 33 23.5 69
t29.5 67q4 5 15 5q20 1 43 1.5t47 2.5q46 2 53 19q2 4 6 2t4 -7q-5 -17 -9 -26.5t-10.5 -15t-17 -7.5t-26.5 -3q-8 0 -19 -0.5t-23 -1.5t-23.5 -1.5t-18.5 -0.5q-12 -1 -17.5 -4t-8.5 -9q-7 -15 -11.5 -27.5t-8.5 -26.5q-4 -17 0 -27t19 -18z" />
    <glyph glyph-name="six" unicode="6" horiz-adv-x="296" 
d="M376 500q27 0 43.5 -20.5t17.5 -50.5q-2 -4 -5 -4.5t-5 1.5q-12 20 -31 31t-51 11q-39 0 -73.5 -17t-64 -48t-53.5 -74.5t-43 -96.5q18 26 46.5 43t62.5 17q32 0 51.5 -26.5t19.5 -64.5q0 -36 -15.5 -72t-40.5 -64.5t-55.5 -46.5t-60.5 -18q-35 0 -52 27.5t-17 80.5
q0 37 12.5 80.5t34 87t52 84t67 72t77 50t83.5 18.5zM189 259q-19 0 -37 -10t-32.5 -28t-23 -42.5t-8.5 -52.5q0 -53 16 -74t48 -21q16 0 33.5 9.5t32 28t23.5 46t9 64.5q0 35 -14.5 57.5t-46.5 22.5z" />
    <glyph glyph-name="seven" unicode="7" horiz-adv-x="326" 
d="M195 313q34 0 66 -4.5t68 -11.5q14 -2 25 9q9 10 11 15q4 2 7 -1.5t1 -10.5q-48 -84 -92.5 -143.5t-85 -109t-77.5 -95t-69 -100.5q-7 -7 -23.5 -15t-26.5 -8q-4 0 -7 2.5t-1 7.5q27 39 52.5 70.5t51.5 60t52.5 56.5t55 60.5t59 72t63.5 90.5q-17 2 -31.5 4t-29.5 3
t-33 1.5t-41 0.5q-27 0 -45.5 -3.5t-31 -13.5t-21.5 -27t-17 -44q-3 -5 -7.5 -1.5t-3.5 8.5q8 26 20 56t23 50q5 5 11.5 9t16.5 6.5t24.5 4t35.5 1.5z" />
    <glyph glyph-name="eight" unicode="8" horiz-adv-x="305" 
d="M355 401q0 -82 -105 -129q21 -23 38.5 -50t17.5 -68q0 -30 -13.5 -58t-36 -49t-52.5 -34t-63 -13q-48 0 -74.5 29t-26.5 69q0 54 35 95.5t121 71.5q-19 22 -33.5 45.5t-14.5 57.5q0 19 9 38t25.5 34.5t39.5 25.5t51 10q37 0 59.5 -22t22.5 -53zM173 28q40 0 67.5 27
t27.5 68q0 24 -5.5 42.5t-14 34t-19.5 29t-23 25.5q-71 -26 -98 -58.5t-27 -77.5q0 -41 23.5 -65.5t68.5 -24.5zM240 282q44 22 62 46t18 53q0 34 -19.5 52.5t-51.5 18.5q-29 0 -46.5 -17t-17.5 -44q0 -37 16.5 -61.5t38.5 -47.5z" />
    <glyph glyph-name="nine" unicode="9" horiz-adv-x="304" 
d="M17 -151q-26 0 -42 13t-19 35q1 3 4 5t6 0q10 -13 26 -19.5t42 -6.5q71 0 119.5 48t80.5 164q-20 -30 -46 -48.5t-63 -18.5q-40 0 -60 25t-20 62q0 34 12.5 70t35 66t53.5 49.5t68 19.5t60.5 -25t23.5 -63q0 -73 -24 -140.5t-63 -120t-89.5 -84t-104.5 -31.5zM152 51
q20 0 39 13t33.5 34t23 47.5t8.5 54.5q0 37 -16.5 61t-54.5 24q-45 0 -72.5 -43t-27.5 -113q0 -38 16 -58t51 -20z" />
    <glyph glyph-name="colon" unicode=":" horiz-adv-x="156" 
d="M33 0q-13 0 -13 21q0 6 4 13.5t11 14.5t15.5 11.5t16.5 4.5q5 0 7.5 -4.5t2.5 -10.5q0 -8 -4.5 -16.5t-11 -16t-14 -12.5t-14.5 -5zM94 191q-13 0 -13 22q0 6 4.5 13t11 14t15 11.5t17.5 4.5q10 0 10 -14q0 -8 -4.5 -17t-11.5 -16.5t-14.5 -12.5t-14.5 -5z" />
    <glyph glyph-name="semicolon" unicode=";" horiz-adv-x="156" 
d="M95 191q-13 0 -13 22q0 6 4 13t11 14t15 11.5t17 4.5q10 0 10 -14q0 -8 -4.5 -16.5t-11 -16.5t-14 -13t-14.5 -5zM69 68q5 -2 8.5 -12.5t3.5 -22.5q0 -31 -23.5 -64.5t-58.5 -54.5q-4 0 -5 3.5t2 7.5q22 14 36 35t14 44q0 21 -10 27q-3 3 0.5 9t9.5 12t12.5 11t10.5 5z
" />
    <glyph glyph-name="less" unicode="&#x3c;" horiz-adv-x="301" 
d="M56 133q-5 2 -1 8.5t19 11.5t43 14t59.5 19l63 20t54.5 17q6 -2 1 -11t-19 -14q-11 -3 -32 -10t-46.5 -15t-51.5 -16.5t-46 -15.5q29 -14 69 -31.5t75 -34.5q5 -4 -2.5 -11t-20.5 -5q-14 6 -35.5 16t-45 20.5t-46 20.5t-38.5 17z" />
    <glyph glyph-name="equal" unicode="=" horiz-adv-x="301" 
d="M97 192q15 0 37 0.5t46.5 0.5t51 -0.5t50.5 -1.5q8 -1 1 -9.5t-19 -9.5q-45 0 -96 -0.5t-99 -1.5q-7 2 -2 10.5t30 11.5zM72 119q15 0 37 0.5t46.5 0.5t51 -0.5t50.5 -1.5q8 -1 1 -9.5t-19 -10.5q-45 1 -96 0.5t-99 -2.5q-7 2 -1.5 11t29.5 12z" />
    <glyph glyph-name="greater" unicode="&#x3e;" horiz-adv-x="301" 
d="M269 155q5 -2 1 -8.5t-19 -11.5t-43 -14t-59.5 -19l-63 -20t-54.5 -17q-6 2 -1 11t19 14q10 3 31.5 9.5t47 15t51.5 17t46 15.5q-29 14 -69 31.5t-75 34.5q-5 4 2.5 11t20.5 5q14 -6 35.5 -16t45 -20.5t46 -20.5t38.5 -17z" />
    <glyph glyph-name="question" unicode="?" horiz-adv-x="285" 
d="M68 0q-13 0 -13 21q0 6 4.5 13.5t11 14.5t15 11.5t17.5 4.5q5 0 7.5 -4.5t2.5 -10.5q0 -8 -4.5 -16.5t-11.5 -16t-14.5 -12.5t-14.5 -5zM294 519q43 0 67 -27t24 -63q0 -42 -14.5 -70.5t-37 -49t-49.5 -35t-52.5 -27.5t-46.5 -27.5t-31 -34.5q-8 -15 -4 -29t25 -16
q7 0 4 -4.5t-10.5 -9.5t-17.5 -8.5t-17 -1.5q-9 2 -15 10t-7 19.5t4 25t18 26.5q27 29 63.5 49t70 41t56.5 47.5t23 68.5q0 36 -21 58.5t-59 22.5q-37 0 -60 -20.5t-31 -49.5q-4 -5 -10 0t-5 10q7 19 20.5 36t31 30t38.5 21t43 8z" />
    <glyph glyph-name="at" unicode="@" horiz-adv-x="492" 
d="M324 65q47 0 77 36.5t30 96.5q0 31 -11 58t-30.5 47t-47 32t-61.5 12q-47 0 -84 -16t-63.5 -44.5t-40.5 -67.5t-14 -85q0 -38 12 -71.5t34.5 -58t56 -39t77.5 -14.5q56 0 92.5 22t56.5 58q3 2 6 -1t2 -8q-26 -45 -73.5 -71.5t-109.5 -26.5q-43 0 -77 15t-57.5 41t-36 60
t-12.5 73q0 49 17.5 94.5t50 80.5t78.5 55.5t104 20.5q33 0 60.5 -12t48 -32.5t32 -48t11.5 -58.5q0 -36 -12.5 -68t-34 -55t-49 -36.5t-57.5 -13.5q-21 0 -26.5 29t9.5 68q-23 -34 -46.5 -59t-46.5 -30q-14 0 -24.5 14.5t-10.5 44.5q0 26 11 52.5t29.5 47.5t42.5 34.5
t51 13.5t44 -14q5 4 13 8t16 4q3 0 3 -4q-22 -27 -36 -59t-20 -59.5t-2 -46.5t18 -19zM208 80q9 0 22.5 12.5t28 32.5t29 44t25.5 48q-8 22 -40 22q-17 0 -32.5 -8.5t-27.5 -24.5t-19 -37.5t-7 -48.5q0 -17 6.5 -28.5t14.5 -11.5z" />
    <glyph glyph-name="A" unicode="A" horiz-adv-x="996" 
d="M1004 585q2 -2 2 -5.5t-5 -9.5q-33 -36 -59 -82.5t-44.5 -101.5t-28.5 -116t-10 -125q0 -48 12 -74.5t41 -26.5q39 0 76 56q3 2 6 0t1 -6q-10 -17 -23.5 -33.5t-28.5 -30t-29.5 -22t-26.5 -8.5q-33 0 -50.5 33.5t-17.5 85.5q0 80 18 163q-47 0 -92.5 -1t-89.5 -3
q-33 -35 -63.5 -66t-59.5 -57q-80 -73 -164.5 -114t-185.5 -41q-51 0 -82.5 24.5t-43 61.5t-2 81.5t42.5 83.5q3 2 7 -0.5t3 -9.5q-24 -26 -28.5 -60t10.5 -65t51 -52t94 -21q76 0 153.5 36t146.5 101q22 20 45.5 44.5t49.5 52.5q-69 -5 -124 -12q-5 1 -2 5t9.5 8.5t15 8
t16.5 4.5q12 1 39.5 1.5t62.5 1.5q57 60 127.5 129t163.5 142q-67 22 -138.5 36.5t-137.5 14.5q-75 0 -124.5 -43.5t-61.5 -132.5q-2 -5 -5.5 -4t-4.5 6q12 98 73 150t158 52q41 0 83 -5.5t82 -14t76.5 -19t66.5 -20.5zM840 295q17 73 47 142.5t72 126.5
q-88 -71 -158 -139.5t-130 -130.5q48 1 95 1h74z" />
    <glyph glyph-name="B" unicode="B" horiz-adv-x="638" 
d="M519 364q57 -26 83 -72t26 -95q0 -91 -64.5 -144t-192.5 -53q-103 0 -186.5 34t-153.5 93q-3 4 2 8.5t12.5 8t16.5 5t15 -1.5q19 -20 38.5 -25.5t46.5 -0.5q26 5 46.5 20t39 46t37 81t39.5 126q21 74 50.5 130t71.5 94q-9 2 -18 2h-20q-33 0 -65.5 -9.5t-61.5 -27.5
t-52 -44t-38 -59q-2 -2 -4.5 -0.5t-1.5 5.5q12 31 36.5 60t58.5 51t76.5 35t91.5 13h15.5t15.5 -1q36 25 86 37q5 0 5 -3t-5 -5q-17 -5 -34 -12.5t-32 -18.5q40 -6 69.5 -19.5t48.5 -33t28 -42t9 -46.5q0 -30 -11.5 -55t-30.5 -43t-43.5 -28t-49.5 -10zM394 15
q45 0 80.5 12.5t60 34t37 50.5t12.5 63q0 145 -151 185q-3 3 1 8t11 9t16 6t15 1q9 -4 16.5 -5.5t19.5 -1.5q18 0 35.5 7.5t31 21.5t22 32.5t8.5 41.5q0 48 -34.5 85.5t-106.5 50.5q-33 -34 -59 -84t-44 -120q-26 -95 -53.5 -154.5t-56.5 -93.5t-60 -47t-63 -14
q51 -38 119 -63t143 -25z" />
    <glyph glyph-name="C" unicode="C" horiz-adv-x="557" 
d="M466 644q36 0 66 -3.5t51.5 -10.5t34 -16.5t12.5 -21.5q0 -8 -3.5 -19.5t-8.5 -23.5t-11.5 -24t-12.5 -20q-3 -2 -6.5 0.5t-1.5 6.5q21 37 9 57q-14 23 -56 39.5t-97 16.5q-72 0 -131 -25.5t-101.5 -72t-66 -110.5t-23.5 -141q0 -56 15 -103.5t44 -82t71 -54t96 -19.5
q72 0 120 44.5t68 118.5q2 5 6.5 4t4.5 -6q-4 -21 -12 -46.5t-17 -48t-17.5 -39t-14.5 -18.5q-32 -12 -71 -19t-83 -7q-61 0 -109.5 18.5t-82 51.5t-51.5 78t-18 97q0 80 29 152.5t81.5 127t125.5 87t161 32.5z" />
    <glyph glyph-name="D" unicode="D" horiz-adv-x="799" 
d="M583 591q49 -29 88 -69.5t66.5 -85.5t42 -91.5t14.5 -88.5q0 -56 -18 -102.5t-53 -81t-86 -53.5t-116 -19q-38 0 -71 5t-62.5 12.5t-56.5 16.5l-54 18q-39 -27 -85.5 -39.5t-103.5 -12.5q-32 0 -45 7.5t-13 20.5t9 27.5t25 26.5t39 19.5t52 7.5q38 0 71 -7t64 -17
q37 39 69 108t68 180q21 64 46 114t57 85q-39 20 -83 32t-92 12q-39 0 -71.5 -12.5t-57.5 -35t-41 -53.5t-22 -69q-6 -6 -8 4q4 42 22 77.5t48.5 61.5t73 40.5t95.5 14.5q46 0 88 -11t80 -31q54 44 128 59q3 0 3.5 -3.5t-2.5 -5.5q-32 -8 -58.5 -23.5t-49.5 -37.5zM122 18
q42 0 75.5 8.5t62.5 30.5q-33 10 -68 17t-77 7q-27 0 -40 -9t-15 -22q-2 -14 11 -23t51 -9zM566 27q95 0 142.5 53.5t47.5 143.5q0 47 -14 94.5t-40.5 92t-63.5 82.5t-83 66q-26 -32 -46 -73.5t-37 -92.5q-37 -115 -75.5 -191.5t-87.5 -123.5q25 -9 52 -18t57.5 -16.5
t67 -12t80.5 -4.5z" />
    <glyph glyph-name="E" unicode="E" horiz-adv-x="494" 
d="M269 523q0 -35 23.5 -59.5t80.5 -41.5q3 -2 0.5 -6.5t-7.5 -9.5t-11.5 -9t-10.5 -5q-112 5 -174 -48.5t-62 -161.5q0 -35 10.5 -65t30 -52t47 -34.5t62.5 -12.5q82 0 134 38t75 123q3 5 6.5 3t4.5 -8q-12 -56 -28.5 -93t-30.5 -43q-35 -16 -84.5 -27t-100.5 -11
q-42 0 -74.5 13t-54.5 35t-33.5 50.5t-11.5 59.5q0 48 17.5 90.5t49 75.5t75 56t95.5 32q-32 17 -50 40t-18 50q0 28 14.5 53.5t40 45t60 31.5t75.5 12q24 0 47 -4.5t41 -12t28.5 -17t10.5 -19.5q0 -8 -3.5 -18.5t-8 -21.5t-10 -20.5t-8.5 -13.5q-2 -2 -5.5 -0.5t-2.5 5.5
q6 11 9 24.5t-5 26.5q-11 18 -42 36t-71 18q-33 0 -57 -9t-40.5 -24t-24.5 -33.5t-8 -37.5z" />
    <glyph glyph-name="F" unicode="F" horiz-adv-x="626" 
d="M833 609q4 -3 1.5 -8.5t-8.5 -10.5t-14 -9t-15 -4q-24 2 -48.5 5.5t-48.5 7.5q-20 -6 -35.5 -17.5t-28.5 -31t-25 -49.5t-24 -74q-7 -23 -13 -45t-14 -43q25 1 50.5 1h52.5q5 -2 3.5 -5t-9.5 -5q-26 0 -51.5 -0.5t-49.5 -1.5q-59 -165 -148.5 -242t-213.5 -77
q-72 0 -108 36.5t-36 96.5q0 29 15.5 58t44.5 49q5 0 6.5 -4t-0.5 -7q-18 -14 -26.5 -30.5t-8.5 -44.5q0 -26 9 -48t28 -38.5t49 -25.5t72 -9q50 0 90 14.5t73.5 48t62 88t54.5 133.5q-50 -2 -97.5 -6t-95.5 -11q-3 1 1 4.5t11.5 7t16 7t13.5 4.5q41 3 79 4.5t76 2.5
q5 16 10 33t10 35q12 43 24.5 75.5t28.5 55.5t35.5 38.5t45.5 25.5q-54 8 -104 14.5t-95 6.5q-75 0 -126 -32t-74 -101q-3 -2 -6 -0.5t-3 6.5q22 71 86.5 114t159.5 43q37 0 74.5 -4t76.5 -9.5t80.5 -11.5t86.5 -10z" />
    <glyph glyph-name="G" unicode="G" horiz-adv-x="571" 
d="M573 611q-69 0 -128.5 -28.5t-103 -78t-68 -118t-24.5 -147.5q0 -68 24.5 -103t75.5 -35q58 0 101 32.5t60 92.5q1 6 9 10t16.5 5.5t15.5 0.5t7 -6q-33 -116 -77 -196.5t-97 -130.5t-113.5 -72.5t-125.5 -22.5q-46 0 -80 12t-56.5 33t-34 48.5t-11.5 58.5q0 43 19.5 77.5
t66.5 56.5q5 2 6.5 -2.5t-1.5 -8.5q-49 -27 -49 -99q0 -70 42 -114t120 -44q108 0 188.5 73.5t130.5 237.5q-31 -26 -70 -43.5t-88 -17.5q-64 0 -96 36.5t-32 97.5q0 70 31 145.5t85.5 138t127.5 103t157 40.5q44 0 69.5 -19t25.5 -46q0 -11 -5 -26t-13 -30.5t-17 -30
t-16 -25.5q-4 -2 -7.5 0.5t-2.5 6.5q14 22 20.5 39t6.5 37q0 27 -24.5 44.5t-64.5 17.5z" />
    <glyph glyph-name="H" unicode="H" horiz-adv-x="865" 
d="M1109 681q21 0 32 -13.5t11 -31.5q0 -14 -3.5 -27.5t-9.5 -23.5q-2 -2 -4.5 -1t-2.5 5q7 23 -4 39t-40 16q-44 0 -84 -19.5t-78 -66.5t-74 -125t-71 -196q13 -4 25.5 -7.5t24.5 -6.5q5 -4 -9.5 -11t-34.5 -6q-4 1 -14 5q-3 -12 -6.5 -24.5t-7.5 -25.5q-31 -117 13 -117
q39 0 76 56q3 3 6 1t2 -7q-11 -17 -24.5 -33.5t-28.5 -30t-29.5 -22t-26.5 -8.5q-30 0 -41.5 30.5t5.5 96.5q12 51 27 95q-59 18 -126 32t-139 20q-28 -73 -63 -125t-75.5 -85t-86 -48.5t-94.5 -15.5q-52 0 -78 25.5t-26 66.5q0 39 23.5 75t68 63.5t109 44t147.5 16.5h22
t22 -1q5 14 9 28.5t9 30.5q16 59 31.5 100.5t31 70t32 45t35.5 26.5q-26 10 -61.5 17t-77.5 7q-47 0 -80.5 -14t-53 -38t-26 -55t0.5 -65q-1 -5 -4 -6t-6 3q-9 42 0 79.5t35 65.5t68.5 44t101.5 16q41 0 80 -9.5t70 -22.5q4 -6 0 -11t-19 -11q-20 -8 -34.5 -22t-26.5 -38
t-23 -59t-24 -85q-8 -26 -15.5 -51t-15.5 -48q66 -5 135 -16t132 -26q34 103 77.5 183.5t91 136.5t97 85.5t97.5 29.5zM181 24q44 0 81 12.5t68 42t57.5 77.5t50.5 120q-15 2 -29.5 2h-29.5q-71 0 -127 -13.5t-94 -36.5t-58 -53t-20 -63q0 -43 26.5 -65.5t74.5 -22.5z" />
    <glyph glyph-name="I" unicode="I" horiz-adv-x="554" 
d="M738 645q3 -2 2 -6t-5 -9t-9 -10t-9 -7q-20 -6 -36 -16t-31 -31t-29 -57.5t-29 -94.5q-36 -137 -98 -232q14 2 26.5 7t19.5 9q3 1 4 -1.5t-1 -5.5q-21 -14 -55 -19q-58 -84 -135 -128t-172 -44q-60 0 -95.5 27t-35.5 66q0 31 26 62t70 51q5 -1 5.5 -4t-1.5 -5
q-31 -17 -46 -39t-15 -45q0 -34 31 -59t94 -25q79 0 140.5 32.5t108.5 109.5q-51 3 -78 39t-27 93q0 62 30 123t81.5 110t121 79t147.5 30zM549 392q11 42 23 75.5t27 59.5t33.5 45.5t41.5 33.5q-69 -8 -125 -38.5t-95.5 -72.5t-61 -91.5t-21.5 -96.5q0 -60 26.5 -91.5
t71.5 -34.5q23 40 43 92.5t37 118.5z" />
    <glyph glyph-name="J" unicode="J" horiz-adv-x="634" 
d="M822 644q3 -2 1.5 -6t-5 -9t-8.5 -10t-9 -7q-21 -6 -38.5 -18t-32.5 -35t-28.5 -58.5t-26.5 -87.5q-17 -66 -37 -123t-43 -108q12 2 23 6.5t17 8.5q7 0 4 -7q-18 -13 -48 -18q-43 -92 -95 -159t-110 -111t-121.5 -65.5t-129.5 -21.5q-69 0 -102 32.5t-33 80.5q0 38 21 79
t57.5 77t87 63t110.5 38q5 0 5 -4t-5 -6q-53 -10 -97 -32.5t-76 -52.5t-50 -65t-18 -71q0 -50 30.5 -80.5t103.5 -30.5q59 0 113.5 18t103.5 57t92.5 101t81.5 150q-53 2 -85.5 37.5t-32.5 95.5q0 62 30 123t81.5 110t121 79t147.5 30zM633 391q22 87 53 139t72 76
q-69 -9 -125 -39t-95.5 -72.5t-61 -92t-21.5 -96.5q0 -58 29 -91t80 -36q37 91 69 212z" />
    <glyph glyph-name="K" unicode="K" horiz-adv-x="936" 
d="M551 347q-15 -86 -48 -151t-80.5 -108.5t-107.5 -65.5t-128 -22q-71 0 -104 31t-33 77q0 20 6 40.5t16.5 38.5t26 32t33.5 23q6 0 7.5 -3t-0.5 -7q-26 -14 -40 -39.5t-14 -56.5q0 -48 33.5 -78.5t94.5 -30.5t108.5 15.5t83.5 49.5t60.5 88.5t38.5 132.5q13 72 26.5 120
t28.5 79.5t32 48.5t37 28q-26 10 -61 16.5t-76 6.5q-62 0 -109 -21.5t-76.5 -58.5t-39.5 -87.5t2 -108.5q0 -5 -4 -7t-7 3q-14 62 -2 118.5t46.5 99.5t91.5 68.5t134 25.5q42 0 81 -9t70 -23q4 -6 -0.5 -10.5t-19.5 -11.5q-21 -9 -36.5 -25t-27.5 -44t-22.5 -70.5
t-20.5 -103.5zM615 368q22 -78 44 -140.5t48 -106t59 -66.5t76 -23q22 0 40.5 11.5t29.5 29.5q3 3 6 0t2 -8q-15 -28 -41.5 -46.5t-65.5 -18.5q-46 0 -81 27.5t-62 74.5t-47.5 109t-37.5 130q-3 10 4 20q45 58 93.5 110t96.5 90t93 60.5t83 22.5q17 0 29 -13t12 -34
q0 -14 -2.5 -25.5t-9.5 -27.5q-3 -3 -6 -2t-4 5q5 24 -6.5 41.5t-44.5 17.5q-28 0 -65 -17.5t-78 -49t-83.5 -75.5t-81.5 -96z" />
    <glyph glyph-name="L" unicode="L" horiz-adv-x="657" 
d="M660 644q32 0 48.5 -21t16.5 -52q0 -20 -7 -42t-16 -40q-4 -3 -7.5 -1.5t-2.5 6.5q7 18 7 37t-7.5 34.5t-24 25.5t-41.5 10q-36 0 -66 -13.5t-55.5 -47.5t-48.5 -92.5t-46 -148.5q-19 -72 -44 -126t-58 -91q43 -17 90.5 -30t106.5 -13q47 0 77.5 16.5t53.5 62.5
q4 2 7 -0.5t1 -7.5q-24 -54 -64 -82t-107 -28q-59 0 -105 17t-89 37q-67 -54 -172 -54q-38 0 -57.5 15.5t-19.5 33.5q0 13 7.5 26.5t22 24t34.5 17.5t45 7q39 0 75.5 -11t74.5 -25q45 58 79 186q22 82 51.5 150.5t66 117t80.5 75.5t94 27zM139 21q38 0 68 9t56 31
q-35 17 -71.5 29t-80.5 12q-28 0 -40 -9t-12 -23q0 -20 21 -34.5t59 -14.5z" />
    <glyph glyph-name="M" unicode="M" horiz-adv-x="1219" 
d="M1286 656q5 0 7 -5t-1 -9q-48 -42 -86.5 -100.5t-66.5 -123.5t-43 -132.5t-15 -126.5q0 -54 13 -84.5t36 -30.5q38 0 75 56q3 3 6.5 0.5t2.5 -6.5q-11 -17 -24.5 -33.5t-28.5 -30t-29.5 -22t-26.5 -8.5q-26 0 -46 30.5t-20 93.5q0 52 10.5 112t31.5 120.5t52.5 117.5
t72.5 104q-62 -46 -126.5 -110.5t-124 -138t-110.5 -151t-85 -149.5q-4 -7 -15 -18t-17 -11q-7 0 -7 7q19 155 54.5 275.5t84.5 222.5q-80 -120 -157 -214t-154 -158.5t-157 -98.5t-166 -34q-41 0 -73 13t-55 36t-35 54t-12 68q0 48 22.5 88t66.5 63q4 2 5.5 -2t-0.5 -8
q-31 -20 -43.5 -46t-12.5 -68q0 -33 11 -62.5t32.5 -51.5t53 -35t73.5 -13q88 0 168.5 40.5t156.5 111.5t149 166t146 205q-70 24 -146.5 40.5t-146.5 16.5q-75 0 -125 -43.5t-61 -132.5q-2 -5 -5.5 -4t-4.5 6q11 98 72 150t159 52q41 0 83 -5.5t82 -14t76.5 -19t66.5 -20.5
q2 1 4.5 1t4.5 1q4 0 4.5 -4t-1.5 -7q-14 -9 -23 -22t-20 -34q-50 -100 -79.5 -209.5t-49.5 -221.5q47 83 108 166t129 158t140 137.5t140 105.5z" />
    <glyph glyph-name="N" unicode="N" horiz-adv-x="990" 
d="M1216 644q28 0 44.5 -21.5t16.5 -74.5q-1 -6 -5.5 -6.5t-6.5 5.5q-2 18 -13 31t-27 18.5t-35.5 3t-38.5 -16.5q-49 -35 -90 -99t-72 -141.5t-49 -162.5t-21 -162q0 -11 -2 -14.5t-7 -3.5q-4 0 -6.5 4.5t-4.5 10.5q-45 171 -108 301.5t-144 205.5q-22 -124 -63 -221
t-96 -164t-120 -102t-134 -35q-71 0 -115 30.5t-60 75t-3 95t56 89.5q5 1 7.5 -2.5t0.5 -8.5q-29 -29 -37 -69.5t8 -77.5t57 -63t111 -26q69 0 129 33.5t107.5 97t81 156t50.5 210.5q-42 35 -87 53t-94 18q-48 0 -79.5 -22t-45.5 -49q-3 -2 -6.5 -1t-4.5 6q9 19 24.5 37
t35.5 31.5t46 22t56 8.5q42 0 82.5 -15.5t78.5 -44.5v2q1 6 5 14t8.5 14.5t8.5 9t5 -2.5q-1 -14 -2.5 -27.5t-3.5 -26.5q43 -38 82 -89t72 -111t59.5 -126.5t46.5 -134.5q7 60 23 123.5t39 123t51.5 112.5t60 93t64 63t64.5 23z" />
    <glyph glyph-name="O" unicode="O" horiz-adv-x="606" 
d="M446 645q47 0 85 -18t64.5 -50t41 -75.5t14.5 -95.5q0 -82 -31.5 -155.5t-82.5 -129t-117 -88.5t-135 -33q-53 0 -93 19t-67 51t-41 74t-14 88q0 76 29 150.5t80 132.5t119.5 94t147.5 36zM328 31q52 0 102.5 25t90.5 70.5t65 109t25 140.5q0 110 -52.5 172.5
t-144.5 62.5q-67 0 -122.5 -27t-95.5 -74t-62 -110t-22 -135q0 -52 14.5 -95t42 -74t68 -48t91.5 -17z" />
    <glyph glyph-name="P" unicode="P" horiz-adv-x="783" 
d="M691 641q44 -6 78 -24.5t57 -45.5t35 -59.5t12 -67.5q0 -46 -16.5 -85.5t-47 -69t-75 -46.5t-101.5 -17q-67 0 -107 33q-60 -135 -142.5 -197t-180.5 -62q-38 0 -66.5 12.5t-48 32.5t-29 46.5t-9.5 54.5q0 19 5.5 38.5t15 37t23.5 32t31 22.5q10 2 6 -7
q-29 -16 -43.5 -43t-14.5 -58q0 -29 10.5 -54t30.5 -44t49 -29.5t67 -10.5q46 0 84.5 12t71 41.5t60.5 79t54 124.5q-11 16 -19 35t-13 42q1 4 4 5.5t5 -1.5q9 -39 28 -65q10 31 21 69q23 85 50.5 146.5t65.5 100.5q-6 1 -12.5 1h-13.5q-106 0 -179.5 -51t-102.5 -151
q-3 -3 -6 -0.5t-3 10.5q34 100 113 158t209 58h11.5t10.5 -1q34 26 79 37q5 0 5.5 -3t-4.5 -5q-17 -5 -31 -12.5t-27 -18.5zM643 246q42 0 76.5 14t59 38.5t37.5 57.5t13 71q0 35 -10.5 66.5t-31 56t-51 42t-69.5 24.5q-27 -33 -48 -82t-38 -114q-21 -80 -48 -145
q40 -29 110 -29z" />
    <glyph glyph-name="Q" unicode="Q" horiz-adv-x="563" 
d="M407 644q49 0 87 -15.5t64 -44t39.5 -67.5t13.5 -87q0 -78 -33.5 -148t-89.5 -124.5t-129.5 -90.5t-154.5 -46q26 -9 57 -23.5t64.5 -31t70 -33.5t72.5 -31q38 -15 69.5 -22t69.5 -7q51 0 84.5 13.5t57.5 39.5q3 2 7 0.5t2 -6.5q-27 -38 -69.5 -62.5t-102.5 -24.5
q-21 0 -38.5 2t-35 6.5t-35.5 11t-39 16.5q-50 22 -102 49t-100.5 50.5t-92.5 39t-77 14.5q-5 2 -6 7.5t10 11.5q19 11 37 11q12 0 30 -8t32 -8q77 0 148.5 27t126 76.5t87.5 118t33 151.5q0 46 -11 85.5t-33 68t-53.5 44.5t-73.5 16q-56 0 -102.5 -23.5t-80.5 -65.5
t-52.5 -100.5t-18.5 -129.5q0 -54 23.5 -93t70.5 -47q35 -6 49 8q4 1 6 -2t1 -7q-9 -11 -28 -18.5t-42 -7.5q-27 0 -48 12t-36 32.5t-23 48t-8 59.5q0 68 23.5 132t64 113.5t96 79.5t119.5 30z" />
    <glyph glyph-name="R" unicode="R" horiz-adv-x="854" 
d="M853 75q2 3 6.5 2.5t3.5 -5.5q-22 -33 -50 -52.5t-60 -19.5q-44 0 -75 25t-53.5 67.5t-37.5 98.5t-28 117q0 6 4 9q5 2 11 4.5t17 7.5q3 1 8.5 -0.5t14.5 -3t21.5 -1.5t29.5 4q52 12 81 48t29 90q0 64 -38 106t-105 47q-28 -32 -49.5 -82.5t-39.5 -117.5
q-29 -110 -68.5 -189.5t-87.5 -130.5t-104 -75t-118 -24q-30 0 -51.5 9t-36 25t-21.5 36.5t-7 43.5q0 38 20.5 75.5t54.5 54.5q9 2 7 -8q-30 -15 -44.5 -42.5t-14.5 -57.5q0 -52 31 -79t89 -27q52 0 94.5 15.5t77.5 54t65 104.5t58 167q24 86 52 147.5t66 101.5
q-188 -4 -286 -143q-3 -2 -6.5 0t-1.5 7q48 70 128 112.5t193 46.5q17 13 36 22.5t42 14.5q5 0 5 -3.5t-5 -5.5q-29 -8 -53 -27q35 0 64 -13.5t50 -35.5t32.5 -49.5t11.5 -57.5q0 -40 -18 -74t-47.5 -58t-68 -36.5t-79.5 -10.5q16 -86 35 -140t42 -84.5t49.5 -41.5t56.5 -11
q21 0 36.5 10.5t31.5 32.5z" />
    <glyph glyph-name="S" unicode="S" horiz-adv-x="480" 
d="M50 121q0 34 17.5 62.5t50.5 45.5q4 2 5.5 -2.5t-0.5 -7.5q-36 -20 -36 -72q0 -26 11 -48.5t31.5 -39t50 -26.5t67.5 -10q91 0 134.5 39t43.5 96q0 38 -11 69t-27.5 58.5t-35.5 52.5t-35.5 50t-27.5 52t-11 59q0 30 12 56.5t32 46t47.5 31t59.5 11.5q45 0 71 -23t26 -52
q0 -17 -11 -37t-22 -35q-4 -2 -6.5 0.5t-2.5 7.5q13 16 13 44q0 29 -25.5 49.5t-67.5 20.5q-43 0 -69.5 -24.5t-26.5 -61.5q0 -30 11.5 -56.5t28.5 -53t36.5 -53t36.5 -55t28.5 -60t11.5 -68.5q0 -41 -18 -75.5t-49 -59.5t-73 -38.5t-89 -13.5q-88 0 -134.5 34t-46.5 87z
" />
    <glyph glyph-name="T" unicode="T" horiz-adv-x="577" 
d="M809 587q6 -6 -1 -15q-16 -23 -24 -20q-12 4 -24 7.5t-25 6.5q-56 -5 -100 -58.5t-79 -168.5q-52 -169 -144.5 -253.5t-223.5 -84.5q-36 0 -62 9.5t-43 25t-25 36t-8 41.5q0 60 59 100q4 0 5 -4t-1 -7q-14 -11 -20.5 -23.5t-6.5 -35.5q0 -51 35.5 -80.5t105.5 -29.5
q48 0 88 13t73.5 44.5t62 84.5t54.5 133q36 112 86 180.5t113 85.5q-67 17 -139 27t-143 10q-56 0 -99.5 -18.5t-72.5 -49.5t-42 -72.5t-7 -86.5q-6 -9 -11 -1q-6 49 7.5 96t46.5 84t86 59t125 22q107 0 194.5 -17.5t159.5 -39.5z" />
    <glyph glyph-name="U" unicode="U" horiz-adv-x="752" 
d="M441 586q-26 10 -65 18t-80 8q-61 0 -105 -26.5t-70 -69t-34.5 -95.5t2.5 -105q-1 -4 -5 -6t-6 2q-14 63 -2 122.5t45 106t86.5 75t124.5 28.5q42 0 81 -9t70 -23q6 -5 -3 -12q-53 -42 -93.5 -94.5t-69 -111t-43 -120t-14.5 -121.5q0 -66 23 -92t61 -26q52 0 102 35
t102.5 107.5t111 183t126.5 261.5q4 8 17 15t27 7q16 0 16 -7q-18 -21 -40 -59.5t-43.5 -87t-42 -103.5t-36.5 -107.5t-25.5 -99t-9.5 -79.5q0 -57 37 -57q38 0 74 56q3 3 7 0.5t3 -6.5q-11 -17 -24.5 -33.5t-28.5 -30t-29.5 -22t-26.5 -8.5q-28 0 -40.5 23t-12.5 55
q0 50 15 119t47 149q-91 -171 -180 -258.5t-177 -87.5q-48 0 -72.5 32.5t-24.5 92.5q0 61 15.5 123t44.5 121.5t70.5 114.5t94.5 102z" />
    <glyph glyph-name="V" unicode="V" horiz-adv-x="661" 
d="M751 526q0 -77 -33 -142.5t-87 -127t-123 -124t-141 -133.5q-7 0 -8.5 3.5t0 9.5t4.5 13l6 14q22 53 36 116.5t17.5 127t-3 123t-26 105.5t-51.5 73.5t-79 27.5q-68 0 -111 -57.5t-72 -167.5q-2 -4 -6 -3t-4 5q29 125 82 190t128 65q46 0 79 -23t55 -63t32 -94.5t10 -118
t-10.5 -133t-29.5 -139.5q70 58 126 109t94 100.5t58.5 100.5t20.5 109q0 50 -23 79t-58 31q-28 1 -48 -40q-3 -2 -6 0t-3 7q5 14 14.5 27.5t20 24t21.5 17t19 6.5q21 0 39 -9t31.5 -25t21 -37.5t7.5 -46.5z" />
    <glyph glyph-name="W" unicode="W" horiz-adv-x="822" 
d="M577 35q4 58 -1.5 123.5t-10.5 127t-5 112t16 79.5q-37 -53 -67 -99t-57 -93.5t-52.5 -100t-53.5 -116.5q-15 -35 -19.5 -51.5t-13.5 -16.5q-8 0 -10 7.5t5 27.5q51 134 67.5 241t5 182t-48 115t-90.5 40q-37 0 -66.5 -15t-50 -42t-31.5 -64t-11 -80q-2 -6 -6.5 -7
t-4.5 4q-2 48 12 91.5t40.5 76.5t64.5 52.5t86 19.5q41 0 69 -21t44 -58.5t21 -88t0 -109.5t-19.5 -124t-36.5 -130q27 62 63.5 130.5t78 133.5t85 121t85.5 94q3 1 5.5 -2t3.5 -8t0.5 -10t-3.5 -9q-14 -9 -23.5 -17.5t-20.5 -22.5q-17 -22 -23.5 -56t-7 -74t4 -85
t8.5 -89.5t6 -86.5t-2 -77q38 57 87 109.5t93 107.5t74 116t30 136q0 32 -9 53t-26 23q-12 1 -21 -11.5t-16 -27.5q-10 -4 -10 7q11 28 29 49.5t35 21.5q24 0 38.5 -24t14.5 -58q0 -60 -16 -109.5t-42.5 -93t-60.5 -83.5t-69.5 -79.5t-70 -81t-62.5 -88.5
q-8 -12 -14.5 -19.5t-14.5 -7.5q-5 0 -6.5 3t-1.5 8t1.5 11.5t1.5 12.5z" />
    <glyph glyph-name="X" unicode="X" horiz-adv-x="813" 
d="M814 645q14 0 23 -13.5t9 -41.5q0 -23 -8 -51.5t-19 -47.5q-4 -2 -8 0t-3 7q10 24 10 46q0 26 -11 39.5t-39 13.5q-35 0 -71.5 -19.5t-72 -54t-67.5 -81.5t-58 -102q30 -138 85.5 -217.5t130.5 -79.5q26 0 47.5 16.5t37.5 55.5q3 4 6.5 1.5t3.5 -9.5q-26 -60 -53 -83
t-62 -23q-44 0 -79.5 24.5t-63.5 66t-48 96t-33 113.5v1q-78 -150 -163.5 -225.5t-166.5 -75.5q-42 0 -66.5 17t-24.5 40q0 8 4 22.5t11.5 32t18 36.5t22.5 37q3 3 8 0.5t3 -8.5q-16 -23 -21.5 -44t-2.5 -42q3 -23 21.5 -36t53.5 -13q44 0 84 20.5t77.5 57.5t71.5 88.5
t66 113.5q-13 63 -20.5 114t-14.5 86.5t-16.5 54.5t-26.5 19q-20 0 -39.5 -23.5t-38.5 -59.5q-5 -5 -9.5 -2.5t-2.5 8.5q11 24 26 46.5t30.5 40t31 28t26.5 10.5q22 0 34 -25t19 -65t12.5 -90.5t15.5 -100.5q28 61 64.5 113t78.5 89t87 58t90 21z" />
    <glyph glyph-name="Y" unicode="Y" horiz-adv-x="662" 
d="M427 644q18 0 28.5 -9t13.5 -30t-3 -54.5t-22 -82.5q-20 -61 -36 -110.5t-24 -99.5q-6 -43 6 -65t51 -22q87 0 181 115t207 342q19 16 34 16q11 0 8 -14q-103 -219 -190 -365t-168 -233.5t-161 -123.5t-169 -36q-42 0 -75 14t-55.5 38t-34 55.5t-11.5 66.5q0 38 13.5 74
t40 64.5t66 48.5t92.5 26q5 -1 4.5 -5t-5.5 -9q-46 -6 -78.5 -21.5t-53.5 -38.5t-30.5 -52t-9.5 -62q0 -76 44 -120.5t131 -44.5q64 0 122 22t114 74t112.5 137.5t118.5 211.5q-28 -46 -62.5 -85.5t-70.5 -69t-71.5 -46t-65.5 -16.5q-45 0 -63.5 26t-11.5 72q8 55 24.5 110
t32.5 106q16 50 23 82t6 51t-8 26t-20 7q-12 0 -25 -6t-25 -15t-22.5 -20t-16.5 -22q-4 -4 -7.5 -0.5t-2.5 8.5q7 11 20 26t30.5 28t36.5 22t38 9z" />
    <glyph glyph-name="Z" unicode="Z" horiz-adv-x="625" 
d="M435 644q50 0 92 -10t93 -26q25 -8 37 -7t26 13q7 5 24 5q9 0 7 -8q-63 -58 -134.5 -124.5t-145.5 -136t-147.5 -139.5t-141.5 -134q24 2 49 -4.5t56 -14.5t72 -15.5t97 -7.5q70 0 114 30.5t75 101.5q4 2 9 -0.5t3 -7.5q-20 -42 -42 -73.5t-49.5 -52.5t-63 -31t-80.5 -10
q-36 0 -64.5 3.5t-53.5 9.5t-47.5 13.5t-47.5 14.5q-31 9 -52.5 2.5t-49.5 -35.5q-6 -2 -14 3.5t-5 10.5q85 80 158 149t142 134.5t139 131.5t148 140q-52 14 -108 24t-116 10q-68 0 -101.5 -37t-43.5 -99q-3 -4 -7.5 -2.5t-4.5 6.5q7 38 19.5 70t33.5 55t51.5 35.5
t73.5 12.5z" />
    <glyph glyph-name="bracketleft" unicode="[" horiz-adv-x="318" 
d="M249 612q2 7 4.5 9t11.5 2h41h35t36 -0.5t44 -1.5q10 -2 5 -9t-17 -8q-24 2 -56 2h-61q-49 -186 -91.5 -361t-69.5 -324q17 0 29 -0.5t23.5 -0.5t24 0.5t30.5 0.5q7 -3 5 -9.5t-19 -7.5h-35t-26 0.5t-29 1t-43 0.5q-12 0 -12 10q22 87 45 176.5t45 178.5t42.5 175
t37.5 166z" />
    <glyph glyph-name="backslash" unicode="\" horiz-adv-x="212" 
d="M49 630q10 -65 26.5 -152.5t34.5 -179t35.5 -177t30.5 -145.5q1 -11 -7 -16t-13 3q-13 66 -29.5 149t-33.5 171t-33.5 175.5t-29.5 162.5q2 8 9 12.5t10 -3.5z" />
    <glyph glyph-name="bracketright" unicode="]" horiz-adv-x="339" 
d="M194 -86q-1 -6 -4 -8t-12 -2h-41h-35t-36 0.5t-44 0.5q-10 2 -5 9.5t18 8.5q23 -2 55 -2.5t61 0.5q49 186 91.5 360.5t69.5 323.5q-17 1 -29.5 1.5t-23.5 0.5t-23.5 -0.5t-30.5 -0.5q-7 2 -5 8.5t19 8.5q22 0 35 -0.5t26 -0.5t29 -0.5t43 -1.5q12 0 12 -9
q-23 -87 -45.5 -176.5t-44.5 -178.5t-42.5 -175.5t-37.5 -166.5z" />
    <glyph glyph-name="asciicircum" unicode="^" horiz-adv-x="272" 
d="M181 361q9 12 16 -2q13 -40 26.5 -79.5t27.5 -74.5q1 -5 -1 -11t-6.5 -10.5t-9.5 -6.5t-8 1q-12 34 -25 72.5t-24 70.5q-14 -17 -29 -36.5t-31 -39t-30.5 -37t-26.5 -31.5q-4 -2 -7.5 1.5t-1.5 9.5q23 31 57.5 75t72.5 98z" />
    <glyph glyph-name="underscore" unicode="_" horiz-adv-x="356" 
d="M28 -29q17 1 53.5 2t79 1.5t83.5 0.5h67q5 -2 4 -8t-9 -7q-26 0 -64.5 -0.5t-82 -2t-88.5 -4.5t-82 -7q-5 1 -2.5 5t9 8t15.5 7.5t17 4.5z" />
    <glyph glyph-name="grave" unicode="`" horiz-adv-x="155" 
d="M134 325q2 -2 -0.5 -5t-7.5 -4q-25 8 -54 21t-49 26q-6 2 0 8q9 8 23 12t17 2q14 -14 33.5 -30t37.5 -30z" />
    <glyph glyph-name="a" unicode="a" horiz-adv-x="294" 
d="M270 63q2 2 5 0t2 -6q-21 -29 -41.5 -43t-34.5 -14q-9 0 -14.5 9t-7 24.5t1 35t8.5 40.5q-27 -42 -57 -72.5t-58 -36.5q-18 0 -30.5 17.5t-12.5 54.5q0 33 13.5 65.5t36.5 59t53 42.5t63 16q18 0 31 -4t24 -12q6 5 16.5 9.5t19.5 4.5q5 0 3 -5q-23 -28 -39.5 -62
t-25.5 -66t-11.5 -56.5t3.5 -33.5q5 -7 18 -0.5t34 33.5zM96 34q11 0 28.5 15.5t36.5 40.5t37.5 56.5t32.5 63.5q-4 13 -18.5 21t-33.5 8q-22 0 -41.5 -11.5t-34.5 -32t-24 -48.5t-9 -62q0 -22 7.5 -36.5t18.5 -14.5z" />
    <glyph glyph-name="b" unicode="b" horiz-adv-x="247" 
d="M471 756q32 0 46.5 -25t6.5 -58q-6 -6 -10 1q-2 20 -17.5 34.5t-47.5 14.5q-45 0 -91.5 -27t-92 -90t-89 -166.5t-83.5 -256.5q9 13 20.5 25.5t25.5 23t29 17t30 6.5q23 0 32.5 -19t9.5 -44q0 -32 -16 -66.5t-40.5 -62.5t-53.5 -46t-54 -18q-18 0 -29.5 10.5t-11.5 36.5
q0 22 7 58t19 79.5t29 91.5t37 95q84 198 168.5 292t175.5 94zM176 222q-15 0 -32 -9.5t-32 -28.5t-25.5 -48t-13.5 -67q-2 -22 5.5 -31t22.5 -9q19 0 38 12.5t34 32.5t24.5 45t9.5 50q0 29 -9 41t-22 12z" />
    <glyph glyph-name="c" unicode="c" horiz-adv-x="203" 
d="M178 175q-5 0 -5 5q8 20 0.5 35t-30.5 15q-16 0 -30 -11.5t-24 -32t-16 -48t-6 -59.5q0 -49 34 -49q39 0 78 47q4 2 7 -0.5t1 -7.5q-23 -29 -51 -49.5t-55 -20.5q-22 0 -36.5 16t-14.5 44q0 35 11.5 70t30 63t42.5 45.5t49 17.5q21 0 33 -10t12 -24q0 -5 -3 -12t-7.5 -14
t-10 -12.5t-9.5 -7.5z" />
    <glyph glyph-name="d" unicode="d" horiz-adv-x="285" 
d="M602 756q26 0 33 -20t-7 -50q-8 -6 -10 3q2 14 -8 22t-28 8q-36 0 -73 -25t-72 -69.5t-68 -104.5t-61 -130t-50.5 -146.5t-36.5 -153.5q-4 -23 -2 -40.5t14 -17.5q11 0 22 11.5t20 25.5q2 2 5.5 0t2.5 -6q-5 -9 -14 -20t-19.5 -20.5t-21.5 -16t-20 -6.5q-17 0 -23.5 14.5
t-4.5 37.5q1 17 4 32t7 32q-9 -21 -24 -40.5t-31 -35.5t-31.5 -26.5t-26.5 -13.5q-17 0 -32.5 14.5t-15.5 46.5q0 38 13 73.5t35.5 62.5t52 43.5t63.5 16.5q11 0 19.5 -3t15.5 -8q18 54 43.5 113t55.5 115.5t63.5 107.5t69 89.5t71.5 61.5t70 23zM96 35q11 0 26.5 12.5
t31 32.5t30 46.5t24.5 54.5q3 10 6 19t5 18q-4 12 -15 17.5t-25 5.5q-21 0 -41 -12.5t-35.5 -34.5t-25 -52t-9.5 -66q0 -21 8.5 -31t19.5 -10z" />
    <glyph glyph-name="e" unicode="e" horiz-adv-x="206" 
d="M206 212q0 -14 -11 -26t-30 -21.5t-43.5 -17.5t-51.5 -15q-1 -11 -1.5 -22t-0.5 -24q0 -25 11 -42t31 -17t37.5 10t31.5 27q4 2 6 -1t0 -7q-17 -23 -42.5 -39.5t-53.5 -16.5q-26 0 -42.5 17t-16.5 50q0 30 11 63.5t29 61.5t41.5 46t49.5 18q19 0 32 -13.5t13 -30.5z
M140 230q-23 0 -41 -20t-26 -63q48 7 70.5 20.5t22.5 30.5q0 14 -7 23t-19 9z" />
    <glyph glyph-name="f" unicode="f" horiz-adv-x="156" 
d="M464 727q19 0 32 -8t19.5 -21t6.5 -28.5t-7 -30.5q-2 -3 -5 -2t-5 4q-2 20 -18.5 35.5t-51.5 15.5q-38 0 -72.5 -20t-70 -70t-72 -135t-78.5 -215q23 1 48.5 1h52.5q5 -2 4.5 -5.5t-9.5 -5.5l-50 -2t-51 -3q-3 -11 -7 -20q-41 -131 -84 -219.5t-88 -142t-91.5 -76
t-94.5 -22.5q-34 0 -48.5 15t-14.5 35q0 9 4 19.5t10 18.5q3 3 5.5 1t2.5 -5q-4 -8 -3 -18.5t8.5 -20t22 -16t37.5 -6.5q24 0 47.5 6t47 22.5t47 46.5t48.5 78.5t52 117.5t56 164q2 5 3 9.5t3 9.5q-17 -2 -34 -4.5t-34 -6.5q-5 1 -2.5 5t9 8t15.5 7.5t17 4.5t16.5 1.5
t17.5 1.5q36 108 77.5 195.5t87.5 150t95 96.5t99 34z" />
    <glyph glyph-name="g" unicode="g" horiz-adv-x="210" 
d="M226 270q3 2 6 -0.5t1 -6.5q-8 -12 -20 -21.5t-30 -8.5q9 -15 9 -39q0 -23 -7 -42t-16 -36t-18.5 -32t-15 -31t-5 -32.5t11.5 -36.5q9 -17 16.5 -30.5t13 -26t8 -25.5t2.5 -28q0 -24 -10 -45.5t-29 -38t-46 -26t-61 -9.5q-35 0 -63 10t-47.5 26.5t-29.5 38t-10 44.5
q0 30 21.5 52.5t61.5 33.5q5 0 6.5 -3.5t-1.5 -6.5q-21 -8 -34 -24t-13 -43q0 -51 35 -82t92 -31q48 0 71 24.5t23 63.5q0 23 -7 41t-21 41q-19 32 -16.5 61.5t20.5 61.5q2 4 4.5 7.5t4.5 8.5q-11 -12 -25.5 -21t-24.5 -9q-49 0 -49 64q0 21 8 46t22.5 46.5t34 35.5t43.5 14
q35 0 54 2.5t30 12.5zM146 103q6 14 10 29t4 30q0 29 -9.5 45.5t-30.5 16.5q-24 0 -40.5 -24t-16.5 -68q0 -29 9.5 -42t28.5 -13q11 0 24 7t21 19z" />
    <glyph glyph-name="h" unicode="h" horiz-adv-x="292" 
d="M26 9q45 172 101 310t117.5 235t125.5 149.5t124 52.5q22 0 36.5 -8.5t20 -21.5t3 -29t-14.5 -31q-2 -3 -5 -2t-3 5q4 20 -12 38t-51 18q-47 0 -96 -37t-98 -113.5t-96.5 -192.5t-91.5 -275q16 31 37 58.5t43 47.5t44.5 31.5t43.5 11.5q12 0 18 -6t6 -14q0 -13 -9 -29
q-21 -37 -34.5 -76t-13.5 -71q0 -14 3.5 -23t11.5 -9q10 0 21.5 10.5t20.5 23.5q3 2 6 -0.5t2 -6.5q-6 -9 -15 -18.5t-19.5 -18t-21.5 -13.5t-20 -5q-25 0 -25 42q0 36 12 78.5t29 75.5q6 10 6 17q0 9 -11 9q-18 0 -39 -14t-43 -41t-42 -65.5t-36 -86.5q-2 -7 -10.5 -11
t-16.5 -4q-11 0 -8 9z" />
    <glyph glyph-name="i" unicode="i" horiz-adv-x="149" 
d="M52 186q-3 -2 -5.5 1.5t-0.5 6.5q14 14 38 32t48 30q8 0 8 -9q-13 -23 -25.5 -50t-22 -53.5t-15.5 -51t-6 -40.5q0 -21 14 -21q11 0 21.5 9.5t24.5 25.5q2 2 5 -1t1 -7q-18 -22 -38.5 -40t-38.5 -18q-26 0 -26 33q0 19 6.5 45.5t16.5 53.5t22.5 52t24.5 43
q-11 -8 -27.5 -20.5t-24.5 -20.5zM142 299q-3 -3 -5.5 -0.5t-3.5 7t-1 10.5t3 10q26 36 73 77q3 1 6 -1.5t1 -4.5q-21 -19 -40 -45.5t-33 -52.5z" />
    <glyph glyph-name="j" unicode="j" horiz-adv-x="136" 
d="M84 221q-11 -8 -21.5 -16t-19.5 -18q-4 -1 -5.5 2t-0.5 6q14 14 37.5 31.5t46.5 28.5q10 0 8 -9q-35 -139 -77.5 -233t-90.5 -151.5t-99.5 -82t-104.5 -24.5q-35 0 -49 27t-3 71q2 2 5 2.5t4 -3.5q-3 -15 -0.5 -28t11.5 -23.5t24.5 -16.5t39.5 -6q40 0 78.5 19.5t76 69
t72.5 135.5t68 219zM133 298q-6 -5 -9.5 6.5t2.5 19.5q14 20 31.5 38.5t40.5 38.5q3 2 6 -0.5t1 -4.5q-21 -19 -39.5 -45.5t-32.5 -52.5z" />
    <glyph glyph-name="k" unicode="k" horiz-adv-x="259" 
d="M144 131q11 -53 28 -81.5t42 -28.5q11 0 20.5 5t20.5 19q3 2 5 -0.5t1 -5.5q-14 -18 -30 -28.5t-38 -10.5q-32 0 -51 34t-31 99q-1 8 5 10q18 -4 36 -0.5t32 11.5t22.5 21t8.5 29q0 25 -25 25q-34 0 -64 -33.5t-45 -98.5q-4 -17 -8.5 -37.5t-7.5 -34.5q-2 -8 -4 -12
t-9 -7q-12 -6 -21 -6q-8 0 -5 9q31 167 84.5 304.5t117.5 236t132 152.5t128 54q22 0 36.5 -8.5t20 -21.5t3 -29t-14.5 -32q-7 -5 -9 3q5 20 -9.5 39t-49.5 19q-44 0 -93.5 -33t-99.5 -102t-96.5 -175.5t-83.5 -253.5q22 43 51 68.5t69 25.5q17 0 27.5 -12t10.5 -27
q0 -32 -30.5 -56t-75.5 -30z" />
    <glyph glyph-name="l" unicode="l" horiz-adv-x="134" 
d="M442 743q26 0 33.5 -24t-6.5 -51q-2 -2 -5 0t-4 5q2 12 -8.5 20t-32.5 8q-43 0 -85 -36t-81 -93.5t-72.5 -128.5t-58 -141.5t-38.5 -133t-14 -101.5q0 -30 17 -30q12 0 23.5 10t26.5 30q3 2 5.5 -0.5t1.5 -6.5q-20 -31 -44 -50.5t-41 -19.5q-13 0 -21 10.5t-8 28.5
q0 28 10 72.5t28 99.5t43.5 115.5t55.5 119.5t63.5 113t69 95t71.5 65t71 24z" />
    <glyph glyph-name="m" unicode="m" horiz-adv-x="413" 
d="M356 210q0 21 -15 21t-33 -15t-37.5 -43t-39 -68.5t-37.5 -91.5q-2 -6 -10.5 -9.5t-16.5 -3.5q-12 0 -9 9q6 18 16.5 45t20 55.5t16.5 53.5t7 39q0 28 -17 28q-26 0 -66 -56t-76 -161q-2 -6 -9 -9.5t-15 -3.5q-5 0 -8 2t-1 7q8 22 17 48.5t18 53.5t16.5 53t12.5 49
q5 18 -5 18q-8 0 -19 -11t-22 -26q-3 -2 -6 0.5t-1 5.5q15 21 33.5 38.5t37.5 17.5q13 0 16.5 -10t0.5 -24q-5 -22 -9.5 -40.5t-11.5 -37.5q26 50 57.5 81t62.5 31q12 0 19.5 -9t7.5 -25q0 -21 -4 -42t-12 -43q30 57 64.5 88t68.5 31q11 0 18 -8t7 -21q0 -18 -7.5 -39.5
t-16.5 -44.5t-16.5 -45.5t-7.5 -42.5q0 -25 15 -25q16 0 44 33q2 2 4.5 -1t0.5 -7q-6 -8 -15 -17.5t-18.5 -18t-20.5 -14t-21 -5.5q-23 0 -23 38q0 24 7 48.5t15.5 47t15.5 42.5t7 34z" />
    <glyph glyph-name="n" unicode="n" horiz-adv-x="291" 
d="M282 64q3 2 6 0t2 -6q-17 -23 -37.5 -40.5t-38.5 -17.5q-31 0 -31 40q0 34 12 75.5t33 83.5q4 7 4 14q0 11 -10 11q-37 0 -81.5 -51t-82.5 -160q-2 -6 -11 -9.5t-17 -3.5q-11 0 -8 9q17 43 35.5 97t32.5 107q4 19 -7 19q-10 0 -20 -10t-21 -26q-2 -2 -4.5 1t-1.5 6
q11 17 30 35t41 18q25 0 17 -34q-4 -22 -11 -46.5t-15 -48.5q14 27 33 51t39.5 41t41 27t38.5 10q12 0 18.5 -6t6.5 -14q0 -13 -6 -26q-21 -38 -35.5 -79.5t-14.5 -76.5q0 -25 16 -25q21 0 47 35z" />
    <glyph glyph-name="o" unicode="o" horiz-adv-x="225" 
d="M162 256q27 0 40 -18t13 -47q0 -34 -13 -68t-33 -61.5t-43.5 -44.5t-43.5 -17q-24 0 -38 19t-14 54q0 28 11 60t29.5 59.5t42 45.5t49.5 18zM102 31q15 0 29.5 10.5t25.5 28t17.5 40.5t6.5 48q0 30 -10 47.5t-33 17.5q-15 0 -29 -10.5t-24.5 -28t-16.5 -41t-6 -49.5
q0 -63 40 -63z" />
    <glyph glyph-name="p" unicode="p" horiz-adv-x="261" 
d="M207 255q20 0 32 -18t12 -46q0 -39 -13.5 -73.5t-37 -61t-55.5 -42t-70 -15.5q-17 0 -28 7q-17 -50 -31 -106.5t-14 -105.5q0 -22 23 -19q15 3 30 12q3 1 3.5 -3.5t-1.5 -7.5q-12 -7 -33 -14t-40 -7q-8 0 -13 3.5t-5 12.5q0 51 16 118t42 139q-2 3 -3.5 6.5t-2.5 7.5
t15 9q13 36 28 72t30 70q19 42 17.5 51.5t-12.5 3.5q-7 -4 -16 -11t-17 -16q-2 -2 -4.5 1.5t-1.5 5.5q6 7 16 16t20.5 17.5t21 14.5t18.5 6t10.5 -8.5t-3.5 -22.5q-6 -17 -15.5 -39.5t-20.5 -44.5q28 42 55 65t48 23zM100 19q25 0 46.5 11t37 30.5t24 46t8.5 58.5
q0 24 -8.5 39.5t-26.5 15.5q-23 0 -55 -41t-59 -116q-2 -5 -3.5 -10t-3.5 -10q5 -11 14.5 -17.5t25.5 -6.5z" />
    <glyph glyph-name="q" unicode="q" horiz-adv-x="269" 
d="M175 -217q3 1 2.5 -4t-2.5 -7q-18 -7 -39.5 -11.5t-33.5 -4.5q-22 0 -18 38q4 27 13.5 67t23 83.5t29 85t32.5 71.5q-13 -17 -28.5 -34t-31.5 -31t-31 -23.5t-27 -12.5q-18 0 -28.5 14.5t-10.5 46.5q0 37 15 72t40.5 62t59.5 43.5t73 16.5q27 0 47 -18q11 9 20 10t8 -4
q-33 -47 -60 -103t-48 -114t-34.5 -113.5t-18.5 -101.5q-2 -17 2 -25.5t16 -8.5q13 0 30 6zM86 34q10 0 26 12t33 29t31.5 35t21.5 31q13 25 20.5 38.5t17.5 30.5q-1 11 -11 20t-27 9q-29 0 -53.5 -13.5t-43 -36.5t-29 -54t-10.5 -66t24 -35z" />
    <glyph glyph-name="r" unicode="r" horiz-adv-x="195" 
d="M121 228q0 -15 -3 -35t-8 -40q20 48 44 75.5t52 27.5q11 0 20 -6t9 -17q0 -8 -6 -20.5t-12 -18.5q-6 -4 -6 3q0 17 -23 17q-35 0 -63 -52.5t-53 -145.5q-2 -10 -13.5 -13t-19.5 -3q-11 0 -5 11q9 21 17 45.5t15.5 49.5t12.5 49t8 44q4 30 -10 30q-8 0 -18.5 -9t-19.5 -21
q-4 -2 -7 0.5t-1 6.5q15 19 33.5 34.5t34.5 15.5q22 0 22 -28z" />
    <glyph glyph-name="s" unicode="s" horiz-adv-x="188" 
d="M139 256q20 0 33.5 -6.5t13.5 -14.5q0 -11 -4.5 -25t-9.5 -23q-2 -2 -5.5 -0.5t-2.5 4.5q3 7 4 16t-1 16q-5 20 -28 20q-17 0 -27.5 -10t-10.5 -30q0 -16 8.5 -30.5t19 -29t19 -31t8.5 -36.5q0 -32 -22.5 -54t-67.5 -22q-31 0 -51 11t-20 23q0 9 11 27t25 29q3 2 5.5 -1
t0.5 -6q-8 -8 -12 -18.5t-2 -18.5q3 -17 15.5 -25.5t29.5 -8.5q26 0 40.5 14t14.5 36q0 19 -9 35.5t-19.5 32t-19 31t-8.5 33.5q0 26 19.5 44t52.5 18z" />
    <glyph glyph-name="t" unicode="t" horiz-adv-x="171" 
d="M206 252q5 -2 4 -6t-9 -5q-16 -1 -35.5 -2t-39.5 -3q-20 -50 -33 -96t-13 -76q0 -34 26 -34t57 46q3 2 6 -0.5t2 -7.5q-9 -14 -20.5 -26.5t-23.5 -21.5t-23 -14.5t-18 -5.5q-22 0 -32.5 13.5t-10.5 32.5q0 33 14 83t35 103q-13 -2 -25 -4t-23 -4q-5 1 -2.5 5t9 8
t15.5 7.5t17 3.5q5 1 8.5 1h7.5q14 31 28 59.5t28 52.5q6 6 13.5 10.5t14.5 6t11 1t3 -3.5q-17 -26 -33.5 -58t-31.5 -66q18 0 36 0.5t38 0.5z" />
    <glyph glyph-name="u" unicode="u" horiz-adv-x="299" 
d="M65 0q-13 0 -23 12.5t-10 32.5q0 16 4.5 37.5t12 45.5t18.5 48t25 45q-11 -8 -23 -17.5t-20 -17.5q-3 -2 -5 1.5t-1 6.5q7 7 18 16t23.5 18t26 17.5t25.5 14.5q4 1 6.5 -2t1.5 -7q-32 -41 -51.5 -90.5t-19.5 -94.5q0 -29 17 -29q13 0 32.5 17.5t40.5 46t42.5 64.5
t39.5 73q3 7 11.5 12.5t18.5 5.5q13 0 9 -8q-14 -26 -25 -48.5t-18 -44.5t-10.5 -45t-3.5 -50q0 -32 18 -32q8 0 18 8.5t20 22.5q3 2 6 0t1 -7q-14 -21 -32.5 -36.5t-35.5 -15.5q-13 0 -22 13t-9 35q0 24 4.5 51.5t14.5 55.5q-19 -37 -40 -65.5t-40.5 -48.5t-36.5 -30.5
t-28 -10.5z" />
    <glyph glyph-name="v" unicode="v" horiz-adv-x="271" 
d="M102 14q-14 -6 -28 -10t-25 -4q-12 0 -6 13q17 42 29 91.5t16 88.5q3 35 -11 35t-37 -23q-5 -2 -8 1t0 7q23 23 40.5 33t32.5 10q12 0 16.5 -9t4.5 -23q0 -19 -4 -45t-10.5 -54.5t-14.5 -56t-15 -49.5q28 7 56 26t50 44t35.5 54.5t13.5 59.5q0 26 -17 26q-14 0 -25 -16
q-3 -2 -5 1t-1 6q8 13 22.5 24.5t28.5 11.5q11 0 18.5 -10t7.5 -30q0 -29 -12.5 -58t-34.5 -56t-52 -50t-65 -38z" />
    <glyph glyph-name="w" unicode="w" horiz-adv-x="369" 
d="M323 255q14 0 23.5 -16.5t9.5 -48.5q0 -38 -14.5 -72.5t-36.5 -60.5t-48 -41.5t-48 -15.5q-18 0 -28.5 14t-10.5 42q0 12 1 26t3 28.5t4.5 27.5t5.5 23q-21 -26 -43 -62t-44 -73q-8 -16 -13.5 -21t-13.5 -5t-6 11q7 24 11.5 59.5t4.5 69t-4.5 58.5t-16.5 30
q-6 2 -15.5 -3t-14.5 -16q-2 -2 -5.5 0.5t-2.5 6.5q2 5 8 11.5t14 12.5t17 10.5t17 4.5q19 0 28 -24.5t9 -82.5q0 -26 -2.5 -47t-5.5 -37q20 34 38 59.5t34 46.5q6 8 10.5 18.5t9.5 29.5q1 4 7 8.5t12 7.5t10.5 4t4.5 -2q-15 -33 -23.5 -76.5t-8.5 -80.5q0 -48 34 -48
q17 0 35 11t32.5 29.5t24 43t9.5 51.5q0 39 -15.5 50t-32.5 -3q-8 -2 -6 7q3 5 8 11t11.5 11.5t12.5 9t10 3.5z" />
    <glyph glyph-name="x" unicode="x" horiz-adv-x="263" 
d="M250 64q3 2 6 0t2 -6q-6 -11 -15 -21.5t-19 -18.5t-20 -13.5t-18 -5.5q-18 0 -38 25t-34 68q-26 -45 -52.5 -69t-52.5 -24q-16 0 -16 21q0 12 4 27t13 32q2 2 4.5 0t2.5 -6q-8 -18 -3 -29.5t16 -11.5q17 0 36.5 17.5t42.5 58.5q-7 25 -9 47t-3.5 37.5t-3 24.5t-6.5 9
q-7 0 -15 -11.5t-13 -24.5q-2 -2 -5.5 -1t-2.5 4q2 9 8.5 19.5t15 20t18 16t17.5 6.5q7 0 10.5 -9t5 -23.5t2.5 -33t4 -38.5q24 45 54.5 74.5t58.5 29.5q14 0 21.5 -7.5t7.5 -18.5q0 -9 -5.5 -22.5t-11.5 -24.5q-3 -2 -5.5 -0.5t-2.5 4.5q10 17 6 29t-20 12q-26 0 -49.5 -23
t-49.5 -71q12 -48 30.5 -77t37.5 -29q13 0 24.5 11t21.5 26z" />
    <glyph glyph-name="y" unicode="y" horiz-adv-x="280" 
d="M243 232q1 3 5 6.5t9.5 7.5t11 6.5t8.5 2.5q9 0 7 -7q-22 -62 -43 -120.5t-45 -121.5q-27 -70 -57.5 -117.5t-64 -77t-69.5 -42.5t-74 -13q-53 0 -80.5 26.5t-27.5 65.5q0 18 9.5 38t29.5 35q3 2 5.5 -2t0.5 -6q-16 -19 -16 -43q0 -42 24 -68t73 -26q35 0 64.5 11t56 39
t51 75t50.5 118q11 33 21.5 61t21.5 58q-38 -60 -79.5 -98t-73.5 -41q-13 0 -19 12t-6 33q0 18 4 39.5t11.5 44.5t19 46.5t25.5 45.5q-11 -8 -23 -17.5t-20 -17.5q-3 -2 -5.5 1.5t-0.5 6.5q14 14 38 32t47 30q10 0 8 -9q-15 -20 -27.5 -44.5t-21.5 -49t-14 -48.5t-5 -43
q0 -28 19 -28q16 0 38.5 21.5t45 52t41 65t27.5 60.5z" />
    <glyph glyph-name="z" unicode="z" horiz-adv-x="238" 
d="M48 49q23 -8 47.5 -13.5t49.5 -5.5q26 0 42.5 14.5t27.5 43.5q3 2 7 0t2 -6q-14 -38 -36.5 -60.5t-53.5 -22.5q-21 0 -42 4.5t-44 12.5q-12 5 -22.5 1t-25.5 -18q-5 0 -8 5t0 10q22 22 48.5 48t53.5 53t52.5 52t46.5 46q-22 5 -49 8t-46 3q-29 0 -40 -32q-2 -3 -6 -1
t-4 5q8 22 25 40.5t43 18.5q23 0 44 -4.5t35 -8.5q11 -2 19 0.5t16 9.5q3 3 9 3q12 0 10 -8q-54 -52 -105.5 -102.5t-95.5 -95.5z" />
    <glyph glyph-name="braceleft" unicode="{" horiz-adv-x="291" 
d="M209 496q14 67 53.5 96.5t116.5 29.5q8 -2 7 -8t-11 -6q-57 0 -86 -24t-41 -78q-5 -21 -7 -37.5t-3.5 -32.5t-3.5 -32.5t-7 -37.5q-8 -30 -28.5 -55t-51.5 -39q25 -7 35 -29.5t4 -50.5q-6 -26 -14 -46.5t-16 -40.5t-15.5 -40t-12.5 -44q-10 -51 8 -76.5t69 -25.5
q5 -2 4 -7.5t-10 -7.5q-72 0 -97 30t-14 82q6 27 14 48t16 40l16 38t14 43q4 15 1 27.5t-9.5 22t-17 15.5t-21.5 8q-6 5 -2 12t21 12q32 8 47.5 26t23.5 53q10 40 10.5 71t7.5 64z" />
    <glyph glyph-name="bar" unicode="|" horiz-adv-x="162" 
d="M102 -243h-22v888h22v-888v0z" />
    <glyph glyph-name="braceright" unicode="}" horiz-adv-x="285" 
d="M177 31q-14 -68 -53.5 -97.5t-116.5 -29.5q-8 2 -7 8t11 7q57 0 86 23.5t41 78.5q5 21 7 37.5t3.5 32.5t3.5 32t7 37q8 30 29 55t51 39q-25 7 -35 30t-4 51q6 25 14 46t16 40.5t15.5 39.5t12.5 44q10 51 -8 76.5t-69 25.5q-5 2 -4 7.5t10 7.5q72 0 97 -30t14 -81
q-6 -28 -14 -49t-16 -39.5t-16 -37.5t-14 -43q-4 -15 -1 -27.5t9.5 -22.5t17 -16t21.5 -8q6 -5 2 -12t-21 -11q-32 -8 -47 -26.5t-24 -53.5q-10 -40 -10.5 -71t-7.5 -63z" />
    <glyph glyph-name="asciitilde" unicode="~" horiz-adv-x="383" 
d="M52 139q19 25 44 45t54 20q18 0 32.5 -6t28.5 -12.5t29.5 -12.5t36.5 -6q38 0 74 41q5 2 9 -1t2 -8q-23 -28 -50.5 -45t-55.5 -17q-22 0 -38 6t-29.5 12.5t-26.5 12.5t-29 6q-23 0 -39.5 -12t-33.5 -32q-5 -3 -7.5 0.5t-0.5 8.5z" />
    <glyph glyph-name="uni007F" 
 />
    <glyph glyph-name="exclamdown" unicode="&#xa1;" horiz-adv-x="189" 
d="M171 255q13 0 13 -22q0 -6 -4.5 -13t-11 -14t-15 -11.5t-17.5 -4.5q-10 0 -10 14q0 8 4.5 17t11 16.5t14.5 12.5t15 5zM-76 -270q19 39 45 94.5t52 111.5t49 106.5t36 80.5q8 9 13.5 6.5t2.5 -13.5q-15 -33 -34.5 -81t-38 -98.5t-34 -98t-24.5 -78.5q-6 -9 -19.5 -20.5
t-26.5 -18.5t-20.5 -6.5t-0.5 15.5z" />
    <glyph glyph-name="cent" unicode="&#xa2;" horiz-adv-x="194" 
d="M179 310q15 -5 25 -15.5t10 -22.5q0 -5 -3.5 -12t-8 -14t-9.5 -12.5t-9 -7.5q-6 0 -6 5q6 14 2.5 28t-15.5 21q-23 -51 -43.5 -98.5t-40.5 -95.5h7q20 0 34.5 7.5t30.5 26.5q3 2 6 -1t1 -7q-21 -28 -45 -42t-46 -14q-12 -29 -24 -58.5t-24 -61.5q-6 -10 -12 -10t-5 8
l26 65t24 58q-17 5 -27 20t-10 38q0 37 12.5 72t33.5 62.5t47 44.5t53 17q7 16 14 33t15 34q5 6 11 5t5 -9q-8 -17 -15 -32.5t-14 -31.5zM68 92q20 47 40 93t43 100q-2 1 -7 1q-18 0 -34.5 -11t-29 -31t-19.5 -48t-7 -61q0 -31 14 -43z" />
    <glyph glyph-name="sterling" unicode="&#xa3;" horiz-adv-x="344" 
d="M293 313q26 0 35 -25.5t-2 -56.5q-3 -3 -6.5 -2t-4.5 4q-2 17 -14.5 31t-37.5 14q-15 0 -26 -4.5t-20.5 -17t-17.5 -34.5t-17 -56q19 0 41 -0.5t51 -0.5q5 -2 4 -6t-9 -5q-49 0 -91 -3q-16 -61 -42 -96q23 -9 48.5 -19t64.5 -10q19 0 33 6t24 15q4 2 7 0t1 -6
q-22 -22 -42 -34.5t-49 -12.5q-38 0 -63 11.5t-48 22.5q-17 -15 -37 -21.5t-41 -6.5q-28 0 -28 15q0 17 23 34t55 17q9 0 17 -1t16 -3q7 14 14 35t15 50q-14 -2 -28.5 -4t-30.5 -4q-5 1 -2.5 5t9 8t15.5 7t17 4q7 1 12.5 1t11.5 1q9 29 23 56t33 47.5t41 32.5t46 12zM56 17
q12 0 22.5 3.5t19.5 13.5q-11 5 -22 8t-25 3q-20 0 -20 -12q0 -16 25 -16z" />
    <glyph glyph-name="currency" unicode="&#xa4;" horiz-adv-x="344" 
d="M332 312q4 2 9 -2.5t1 -9.5q-14 -14 -32 -30t-38 -35q16 -22 16 -53q0 -33 -14 -61t-39 -46q8 -14 14.5 -27t14.5 -25q2 -9 -2 -17.5t-10 -4.5q-8 15 -17 30.5t-17 32.5q-30 -16 -65 -16q-33 0 -55 16q-20 -17 -38 -33t-33 -30q-5 -2 -9.5 2.5t-0.5 9.5q14 13 31 29
t37 34q-18 24 -18 62q0 29 13.5 56t37.5 46l-14 26t-14 25q-3 8 1 16.5t11 5.5q8 -14 16.5 -30t16.5 -32q29 17 66 17q34 0 59 -20q20 17 38 33.5t34 30.5zM167 66q20 0 38 8.5t31.5 22.5t21.5 33t8 40q0 37 -20 58.5t-55 21.5q-23 0 -42.5 -8.5t-33 -23t-21 -33.5t-7.5 -40
q0 -35 18 -57t62 -22z" />
    <glyph glyph-name="yen" unicode="&#xa5;" horiz-adv-x="309" 
d="M296 313q16 0 24 -12.5t9 -29.5q-1 -5 -3.5 -6t-4.5 1q-11 20 -44 20q-16 0 -32.5 -9.5t-32 -25.5t-29.5 -37.5t-26 -44.5q14 0 30.5 -0.5t37.5 -0.5q5 -2 4 -5.5t-9 -5.5q-20 0 -37 -0.5t-33 -1.5q-3 -8 -6.5 -15.5t-6.5 -15.5h31t39 -1q5 -2 4 -5.5t-9 -5.5h-37t-33 -2
q-7 -21 -11 -40t-4 -33q0 -22 16 -22q14 0 22 4q4 0 5 -3.5t-1 -5.5q-7 -3 -26.5 -6.5t-31.5 -3.5q-16 0 -16 27q0 23 5.5 43t12.5 38q-17 -2 -35.5 -4.5t-39.5 -6.5q-5 1 -2 5t9.5 8t15.5 7t17 4q11 2 21 2t19 1q7 16 8 28q-16 -2 -33 -4.5t-37 -6.5q-5 1 -2.5 5t9.5 8
t16 7.5t17 4.5t16 1.5t16 0.5q4 52 -10 86t-40 34q-13 0 -22 -10q-4 -2 -6.5 0.5t-0.5 6.5q8 8 23 18t27 10t23 -8.5t19.5 -26t12 -45t-0.5 -64.5q42 78 80 111t73 33z" />
    <glyph glyph-name="brokenbar" unicode="&#xa6;" horiz-adv-x="162" 
d="M81 314v331h21v-331h-21zM102 89v-332h-21v332h21z" />
    <glyph glyph-name="section" unicode="&#xa7;" horiz-adv-x="395" 
d="M385 517q42 0 66 -24t24 -54q0 -18 -12 -40t-25 -39q-3 -3 -6 0t-2 8q5 8 9.5 21.5t4.5 27.5q0 29 -21.5 50t-63.5 21q-51 0 -79 -27t-28 -78q0 -53 10 -99.5t22.5 -92t22.5 -94.5t10 -106q0 -51 -16.5 -94t-47.5 -74t-76 -48.5t-102 -17.5q-29 0 -52 8t-39.5 21.5
t-25.5 31.5t-9 37q0 23 14.5 50.5t42.5 53.5q4 2 6.5 -1.5t0.5 -8.5q-14 -15 -20 -30.5t-6 -35.5t8.5 -37.5t23.5 -30.5t36 -21t47 -8q53 0 79.5 29.5t26.5 81.5q0 55 -10 101t-22.5 91t-22.5 91.5t-10 102.5q0 51 16.5 94t47.5 74t76 48.5t102 17.5zM222 350q0 40 15.5 75
t44.5 58q-42 -12 -72.5 -55t-30.5 -108q0 -59 9.5 -108.5t21 -95.5t21 -90.5t9.5 -94.5q0 -49 -17.5 -83.5t-44.5 -55.5q43 14 73 59.5t30 111.5q0 57 -9 107.5t-20.5 97t-20.5 91t-9 91.5z" />
    <glyph glyph-name="dieresis" unicode="&#xa8;" horiz-adv-x="174" 
d="M33 319q-13 0 -13 19q0 11 11.5 26t28.5 15q10 0 10 -14q0 -15 -11.5 -30.5t-25.5 -15.5zM118 319q-13 0 -13 19q0 11 11 26t28 15q10 0 10 -14q0 -15 -11 -30.5t-25 -15.5z" />
    <glyph glyph-name="copyright" unicode="&#xa9;" horiz-adv-x="331" 
d="M203 313q20 0 31.5 -5.5t11.5 -11.5t-4 -18t-9 -18q-2 -2 -4.5 0t-2.5 4q5 12 1 19q-9 14 -32 14q-31 0 -44.5 -17.5t-13.5 -46.5q0 -50 44 -50q16 0 26 6.5t15 16.5q2 2 4.5 -0.5t2.5 -4.5q-6 -13 -22 -22.5t-36 -9.5q-28 0 -42 16t-14 39q0 16 6.5 32t18 29t27.5 20.5
t36 7.5zM199 350q-27 0 -49.5 -10t-38.5 -27.5t-25 -39.5t-9 -46q0 -40 21 -66t72 -26q23 0 44.5 10t37.5 26.5t25.5 38.5t9.5 47q0 43 -23 68t-65 25zM155 121q-48 0 -71.5 27.5t-23.5 72.5q0 27 11 53t31 46.5t47 32.5t60 12q42 0 69.5 -26.5t27.5 -69.5q0 -30 -11.5 -57
t-31.5 -47.5t-47.5 -32t-60.5 -11.5z" />
    <glyph glyph-name="ordfeminine" unicode="&#xaa;" horiz-adv-x="226" 
d="M187 208q2 2 4 0t1 -6q-12 -16 -23 -23.5t-19 -7.5q-11 0 -12.5 18.5t5.5 42.5q-15 -24 -31.5 -41t-32.5 -20q-11 0 -17.5 10t-6.5 30q0 18 7.5 36.5t20 33t29.5 23.5t35 9q19 0 31 -9q8 8 17 8q5 0 5 -3q-13 -16 -22 -34t-14 -34.5t-5.5 -29.5t2.5 -18q2 -3 8 -1.5
t18 16.5zM91 195q6 0 15 7t18.5 19.5t19 28.5t16.5 34q-2 7 -9 10t-16 3q-22 0 -40 -21.5t-18 -56.5q0 -12 4.5 -18t9.5 -6z" />
    <glyph glyph-name="guillemotleft" unicode="&#xab;" horiz-adv-x="289" 
d="M191 251q7 2 9 -5t-6 -13q-14 -9 -33.5 -24t-39.5 -30.5t-38 -30.5t-28 -25q21 -17 44 -41t37 -44q1 -4 0 -11t-4 -13t-7.5 -9.5t-10.5 -1.5q-19 29 -44.5 56.5t-46.5 44.5q-9 8 2 17q38 34 81.5 68t84.5 62zM291 251q7 2 9 -5t-6 -13q-14 -9 -33.5 -24t-39.5 -30.5
t-38 -30.5t-28 -25q21 -17 44 -41t37 -44q1 -4 0 -11t-4 -13t-7.5 -9.5t-10.5 -1.5q-19 29 -44.5 56.5t-46.5 44.5q-9 8 2 17q38 34 81.5 68t84.5 62zM291 251q7 2 9 -5t-6 -13q-14 -9 -33.5 -24t-39.5 -30.5t-38 -30.5t-28 -25q21 -17 44 -41t37 -44q1 -4 0 -11t-4 -13
t-7.5 -9.5t-10.5 -1.5q-19 29 -44.5 56.5t-46.5 44.5q-9 8 2 17q38 34 81.5 68t84.5 62z" />
    <glyph glyph-name="logicalnot" unicode="&#xac;" horiz-adv-x="265" 
d="M233 235q8 -4 5 -14q-3 -6 -7.5 -17t-9.5 -24.5t-10.5 -27.5t-9.5 -26q-3 -5 -8.5 -7.5t-11.5 -2.5t-10.5 2t-3.5 7q3 9 8 22.5t10 27.5t9.5 26t6.5 18h-43.5t-51.5 -0.5t-49.5 -1t-36.5 -0.5q-6 2 -4 7t12 7q16 1 44 1.5t58 1t58 1t45 0.5z" />
    <glyph glyph-name="uni00AD" unicode="&#xad;" horiz-adv-x="321" 
d="M40 229v78h242v-78h-242z" />
    <glyph glyph-name="registered" unicode="&#xae;" horiz-adv-x="331" 
d="M209 365q42 0 69.5 -26.5t27.5 -69.5q0 -30 -11.5 -57t-31.5 -47.5t-47.5 -32t-59.5 -11.5q-49 0 -72.5 27.5t-23.5 72.5q0 27 11 53t31 46.5t47 32.5t60 12zM171 135q23 0 44 10t37 26.5t25.5 38.5t9.5 47q0 43 -23 68t-65 25q-27 0 -49.5 -10t-38.5 -27.5t-24.5 -39.5
t-8.5 -46q0 -40 21 -66t72 -26zM233 278q0 -17 -13 -29t-34 -16q5 -26 11 -37t18 -11q5 0 12 5q7 2 5 -7q-5 -5 -12.5 -9.5t-16.5 -4.5q-17 0 -23.5 18t-12.5 47q0 4 2 5q2 2 5 3.5t5 3.5q2 1 4.5 0t4.5 -1q8 -2 16 4q11 7 11 23q0 14 -10.5 20t-27.5 6q-5 -10 -11 -24
t-12 -30t-11 -33t-8 -32q-2 -4 -8 -7t-11 -3q-3 0 -3 4q8 30 19.5 61t25.5 55q3 5 10 9q-11 -2 -21.5 -4t-21.5 -7q-4 0 -1 5t8 7q11 5 26.5 9.5t30.5 4.5q22 0 33 -10t11 -25z" />
    <glyph glyph-name="macron" unicode="&#xaf;" horiz-adv-x="339" 
d="M59 160q13 1 33.5 3t43.5 3.5t45.5 2.5t39.5 1q4 -1 3 -5t-4.5 -8.5t-9.5 -8.5t-13 -5q-18 0 -40 -0.5t-43.5 -1.5t-41.5 -1.5t-33 -1.5q-7 2 0 10.5t20 11.5z" />
    <glyph glyph-name="degree" unicode="&#xb0;" horiz-adv-x="104" 
d="M132 373q-17 0 -27.5 -11.5t-10.5 -26.5q0 -13 6.5 -21t22.5 -8q14 0 25 11t11 27q0 29 -27 29zM117 293q-19 0 -28 10.5t-9 27.5q0 21 16 38t41 17q16 0 26.5 -10t10.5 -26q0 -24 -16 -40.5t-41 -16.5z" />
    <glyph glyph-name="plusminus" unicode="&#xb1;" horiz-adv-x="301" 
d="M269 155q8 -2 1.5 -10t-18.5 -10h-84q-6 -18 -12.5 -36t-12.5 -37q-5 -13 -16 -16t-11 5q13 45 27 84q-22 -1 -44 -1t-43 -1q-6 2 -1 11t30 12h65q8 22 16 43t16 44q1 4 6 7.5t10 5t9 0.5t4 -5q-11 -27 -19 -50t-16 -45h47t46 -1zM40 23q15 0 37 0.5t46.5 0.5t50.5 -0.5
t50 -1.5q8 -1 1.5 -9.5t-18.5 -10.5q-45 1 -96.5 0.5t-99.5 -2.5q-6 2 -1 11t30 12z" />
    <glyph glyph-name="twosuperior" unicode="&#xb2;" horiz-adv-x="215" 
d="M153 313q18 0 27.5 -11t9.5 -25q0 -15 -6 -27.5t-17.5 -24t-29 -23t-41.5 -26.5q22 -8 56 -8q20 0 27 11q2 2 4.5 0.5t0.5 -5.5q-8 -12 -18.5 -19.5t-26.5 -7.5q-15 0 -26 3t-20 5.5t-16 3.5t-14 -3q-9 -6 -12 -9q-3 0 -5 4t2 7q25 16 46 29.5t37 25.5t25 25t9 30
q0 11 -6 18.5t-23 7.5q-16 0 -26.5 -12t-13.5 -26q-2 -2 -5 -1t-3 6q4 19 21.5 35.5t43.5 16.5z" />
    <glyph glyph-name="threesuperior" unicode="&#xb3;" horiz-adv-x="190" 
d="M133 313q15 0 23 -8t8 -19q0 -27 -40 -44q20 5 30.5 -4t10.5 -25q0 -28 -24.5 -47t-59.5 -19q-37 0 -34 36q2 6 6 2q6 -24 46 -24q19 0 30 10.5t11 28.5q0 31 -28 31q-7 0 -12 -2l-10 -4q-3 -1 -4 3t1 6q32 11 43 22.5t11 23.5q0 20 -19 20q-12 0 -21 -6.5t-14 -16.5
q-2 -2 -5 0.5t-2 5.5q7 11 20 20.5t33 9.5z" />
    <glyph glyph-name="acute" unicode="&#xb4;" horiz-adv-x="157" 
d="M93 381q5 3 18.5 -1t22.5 -8q7 -4 1 -10q-9 -6 -23 -13t-29 -13.5t-30.5 -12t-28.5 -9.5q-4 0 -4 3.5t4 7.5q13 8 34 23.5t35 32.5z" />
    <glyph glyph-name="paragraph" unicode="&#xb6;" horiz-adv-x="392" 
d="M423 320q5 -2 3 -9.5t-10 -9.5q-9 0 -18 -0.5t-17 -1.5q-12 -44 -25.5 -92.5t-28 -96t-29.5 -91t-30 -77.5q-41 -94 -112 -139.5t-158 -45.5q-43 0 -67 22t-24 54q0 25 12 46t35 32q5 0 6.5 -5t-1.5 -8q-8 -6 -12 -15.5t-4 -25.5q0 -35 18.5 -57t60.5 -22q31 0 64.5 31
t62.5 107q8 22 15.5 44.5t15.5 45.5q-38 10 -62.5 37.5t-24.5 67.5q0 46 23 84.5t66 66t104 43t137 15.5zM230 -68q14 33 29 76t30 91t29 98.5t26 98.5q-30 -3 -58 -11q-12 -45 -25.5 -96t-27.5 -101t-28.5 -95t-28.5 -79q-20 -46 -42.5 -78t-55.5 -51q45 11 84 45.5
t68 101.5z" />
    <glyph glyph-name="periodcentered" unicode="&#xb7;" horiz-adv-x="112" 
d="M42 120q-12 0 -12 22q0 6 4 13t11 14t15 11.5t17 4.5q10 0 10 -15q0 -8 -4.5 -16.5t-11 -16t-14.5 -12.5t-15 -5z" />
    <glyph glyph-name="cedilla" unicode="&#xb8;" horiz-adv-x="115" 
d="M94 4q-12 -8 -16 -19.5t0 -21.5q8 -22 -5.5 -47t-48.5 -39q-3 0 -3.5 3.5t1.5 6.5q26 12 33.5 26t1.5 34q-5 16 0.5 32.5t28.5 30.5q5 1 7 -1.5t1 -4.5z" />
    <glyph glyph-name="onesuperior" unicode="&#xb9;" horiz-adv-x="174" 
d="M57 146q-7 0 -7 7q13 34 29.5 69.5t30.5 65.5q-27 -6 -44 -9q-2 1 -2 4.5t3 5.5q18 3 37.5 10.5t36.5 18.5q2 2 5 0t2 -5q-24 -35 -42 -78.5t-29 -78.5q-7 -10 -20 -10z" />
    <glyph glyph-name="ordmasculine" unicode="&#xba;" horiz-adv-x="178" 
d="M124 313q14 0 21.5 -9.5t7.5 -26.5q0 -19 -7.5 -38t-18.5 -34t-24 -24.5t-24 -9.5q-29 0 -29 40q0 16 6 34t16.5 33t23.5 25t28 10zM91 193q16 0 28.5 20t12.5 46q0 34 -22 34q-17 0 -28.5 -20t-11.5 -47q0 -33 21 -33z" />
    <glyph glyph-name="guillemotright" unicode="&#xbb;" horiz-adv-x="276" 
d="M-11 3q-6 -2 -9 4.5t5 14.5q12 11 29.5 25.5t36.5 30t37 29.5t32 25q-11 8 -22.5 20t-23 26t-21 28t-16.5 25q-2 4 2 9t10 8.5t12 4.5t10 -2q15 -28 37.5 -56t44.5 -45q3 -3 2.5 -8.5t-4.5 -8.5q-41 -28 -85 -63.5t-77 -66.5zM89 3q-6 -2 -9 4.5t5 14.5q12 11 29.5 25.5
t36.5 30t37 29.5t32 25q-11 8 -22.5 20t-23 26t-21 28t-16.5 25q-2 4 2 9t10 8.5t12 4.5t10 -2q15 -28 37.5 -56t44.5 -45q3 -3 2.5 -8.5t-4.5 -8.5q-41 -28 -85 -63.5t-77 -66.5z" />
    <glyph glyph-name="onequarter" unicode="&#xbc;" horiz-adv-x="435" 
d="M416 217q4 1 6 -1.5t0 -4.5q-11 -13 -20.5 -24.5t-17.5 -27.5q-11 -19 -21 -41t-20 -47q14 2 21 6t12 12q2 2 4.5 0t1.5 -5q-14 -26 -45 -29q-5 -11 -8.5 -22.5t-7.5 -22.5q-2 -4 -9 -7t-14 -3q-5 0 -5 5q5 13 9 25.5t9 24.5q-31 2 -49 8t-26 1q-2 -1 -2 -1.5t-1 -1.5
q-3 -2 -6 0.5t-1 6.5q19 19 43 39.5t49 40.5t50.5 38t47.5 31zM317 71q22 54 48 99q-28 -20 -55.5 -42.5t-53.5 -45.5q14 -5 28 -7.5t33 -3.5zM370 344q7 4 14.5 1t3.5 -10q-44 -49 -84.5 -95.5t-79.5 -92t-77 -91.5t-76 -94q-9 -7 -16 -4t-4 11q43 52 79.5 95.5t72.5 86.5
t76 89.5t91 103.5zM79 97q-7 0 -7 8q8 21 18 44.5t20.5 47t21 46t19.5 41.5q-16 -4 -29.5 -7t-25.5 -5q-3 1 -3.5 4.5t3.5 5.5q23 4 47 12.5t44 22.5q4 2 7 0t2 -7q-30 -45 -54 -101t-37 -101q-7 -11 -26 -11z" />
    <glyph glyph-name="onehalf" unicode="&#xbd;" horiz-adv-x="434" 
d="M389 335q-44 -49 -85 -95.5t-80 -92t-77 -91.5t-76 -94q-8 -7 -15.5 -4t-3.5 11q43 52 79 95.5t72.5 86.5t76 89.5t90.5 103.5q7 4 14.5 1t4.5 -10zM80 97q-9 0 -7 8q8 21 18 44.5t20.5 47t21 46t19.5 41.5q-16 -4 -29.5 -7t-26.5 -5q-2 1 -3 4.5t4 5.5q23 4 46.5 12.5
t44.5 22.5q3 2 6 0t3 -7q-31 -45 -54.5 -101t-37.5 -101q-6 -11 -25 -11zM367 211q23 0 35 -13.5t12 -32.5q0 -39 -36.5 -67.5t-99.5 -61.5q14 -5 31.5 -8.5t40.5 -3.5t34 19q4 4 6.5 0.5t1.5 -7.5q-10 -16 -23.5 -26t-33.5 -10q-19 0 -33 3.5t-25.5 7t-20.5 4.5t-18 -4
q-6 -4 -9.5 -6.5t-6.5 -4.5q-5 -1 -6.5 4.5t2.5 9.5q33 19 63 36t53 33.5t37 33.5t14 37q0 16 -8.5 25t-28.5 9q-21 0 -34 -13t-18 -36q-2 -3 -7 -1t-4 7q5 24 26.5 45t55.5 21z" />
    <glyph glyph-name="threequarters" unicode="&#xbe;" horiz-adv-x="476" 
d="M457 217q4 1 6 -1.5t0 -4.5q-11 -13 -20.5 -24.5t-17.5 -27.5q-11 -19 -21 -41t-20 -47q14 2 21 6t12 12q2 2 4.5 0t1.5 -5q-14 -26 -45 -29q-5 -11 -8.5 -22.5t-7.5 -22.5q-2 -4 -9 -7t-14 -3q-5 0 -5 5q5 13 9 25.5t9 24.5q-31 2 -49 8t-26 1l-3 -3q-3 -2 -6 0.5
t-1 6.5q19 19 43 39.5t49 40.5t50.5 38t47.5 31zM358 71q22 54 48 99q-28 -20 -55.5 -42.5t-53.5 -45.5q14 -5 28 -7.5t33 -3.5zM411 344q7 4 14.5 1t3.5 -10q-44 -49 -84.5 -95.5t-79.5 -92t-77 -91.5t-76 -94q-9 -7 -16 -4t-4 11q43 52 79.5 95.5t72.5 86.5t76 89.5
t91 103.5zM200 180q0 -17 -8 -32t-22 -26t-33.5 -18t-42.5 -7q-22 0 -33.5 11.5t-9.5 34.5q1 2 3 3t4 -1q5 -16 15 -25t38 -9q27 0 44 15t17 41q0 17 -8.5 27.5t-28.5 10.5q-10 0 -16.5 -2.5t-13.5 -6.5q-4 -1 -5 4t1 7q38 14 55 27.5t17 31.5q0 26 -26 26q-17 0 -27.5 -8.5
t-18.5 -22.5q-3 -3 -6 0t-2 8q8 15 25 27t42 12q20 0 30 -10t10 -24q0 -37 -51 -56q26 6 38.5 -6t12.5 -32z" />
    <glyph glyph-name="questiondown" unicode="&#xbf;" horiz-adv-x="285" 
d="M267 255q13 0 13 -21q0 -6 -4.5 -13.5t-11 -14.5t-15 -11.5t-17.5 -4.5q-5 0 -7.5 4.5t-2.5 10.5q0 7 4.5 16t11 16.5t14.5 12.5t15 5zM41 -264q-43 0 -67 27t-24 63q0 42 14.5 70.5t37 49t49.5 35t52.5 27.5t46.5 27.5t31 34.5q8 15 4 29t-25 16q-7 0 -4 4.5t10.5 9.5
t17.5 8t17 2q9 -2 15 -10t7 -19.5t-4 -25t-18 -26.5q-27 -29 -63.5 -49t-70 -41t-56.5 -47.5t-23 -68.5q0 -36 21 -58.5t59 -22.5q37 0 60 20.5t31 49.5q4 5 10 0t5 -10q-7 -19 -20.5 -36t-31 -30t-38.5 -21t-43 -8z" />
    <glyph glyph-name="Agrave" unicode="&#xc0;" horiz-adv-x="996" 
d="M996 669q2 -2 -0.5 -5.5t-7.5 -3.5q-12 3 -29 9t-34 13t-33 14t-27 13q-2 1 -2 3.5t2 4.5q10 8 24 12t16 2q17 -14 40.5 -30.5t50.5 -31.5zM1004 585q2 -2 2 -5.5t-5 -9.5q-33 -36 -59 -82.5t-44.5 -101.5t-28.5 -116t-10 -125q0 -48 12 -74.5t41 -26.5q39 0 76 56
q3 2 6 0t1 -6q-10 -17 -23.5 -33.5t-28.5 -30t-29.5 -22t-26.5 -8.5q-33 0 -50.5 33.5t-17.5 85.5q0 80 18 163q-47 0 -92.5 -1t-89.5 -3q-33 -35 -63.5 -66t-59.5 -57q-80 -73 -164.5 -114t-185.5 -41q-51 0 -82.5 24.5t-43 61.5t-2 81.5t42.5 83.5q3 2 7 -0.5t3 -9.5
q-24 -26 -28.5 -60t10.5 -65t51 -52t94 -21q76 0 153.5 36t146.5 101q22 20 45.5 44.5t49.5 52.5q-69 -5 -124 -12q-5 1 -2 5t9.5 8.5t15 8t16.5 4.5q12 1 39.5 1.5t62.5 1.5q57 60 127.5 129t163.5 142q-67 22 -138.5 36.5t-137.5 14.5q-75 0 -124.5 -43.5t-61.5 -132.5
q-2 -5 -5.5 -4t-4.5 6q12 98 73 150t158 52q41 0 83 -5.5t82 -14t76.5 -19t66.5 -20.5zM840 295q17 73 47 142.5t72 126.5q-88 -71 -158 -139.5t-130 -130.5q48 1 95 1h74z" />
    <glyph glyph-name="Aacute" unicode="&#xc1;" horiz-adv-x="996" 
d="M988 734q5 3 18.5 -1.5t22.5 -8.5q2 -2 3 -4.5t-2 -4.5q-10 -7 -25.5 -15t-33 -15.5t-36 -14.5t-33.5 -12q-4 0 -4 4t3 7q20 12 44 28.5t43 36.5zM1004 585q2 -2 2 -5.5t-5 -9.5q-33 -36 -59 -82.5t-44.5 -101.5t-28.5 -116t-10 -125q0 -48 12 -74.5t41 -26.5q39 0 76 56
q3 2 6 0t1 -6q-10 -17 -23.5 -33.5t-28.5 -30t-29.5 -22t-26.5 -8.5q-33 0 -50.5 33.5t-17.5 85.5q0 80 18 163q-47 0 -92.5 -1t-89.5 -3q-33 -35 -63.5 -66t-59.5 -57q-80 -73 -164.5 -114t-185.5 -41q-51 0 -82.5 24.5t-43 61.5t-2 81.5t42.5 83.5q3 2 7 -0.5t3 -9.5
q-24 -26 -28.5 -60t10.5 -65t51 -52t94 -21q76 0 153.5 36t146.5 101q22 20 45.5 44.5t49.5 52.5q-69 -5 -124 -12q-5 1 -2 5t9.5 8.5t15 8t16.5 4.5q12 1 39.5 1.5t62.5 1.5q57 60 127.5 129t163.5 142q-67 22 -138.5 36.5t-137.5 14.5q-75 0 -124.5 -43.5t-61.5 -132.5
q-2 -5 -5.5 -4t-4.5 6q12 98 73 150t158 52q41 0 83 -5.5t82 -14t76.5 -19t66.5 -20.5zM840 295q17 73 47 142.5t72 126.5q-88 -71 -158 -139.5t-130 -130.5q48 1 95 1h74z" />
    <glyph glyph-name="Acircumflex" unicode="&#xc2;" horiz-adv-x="996" 
d="M973 746q5 5 12 -1q13 -17 33.5 -34.5t40.5 -26.5q5 -5 -4.5 -10t-21.5 -3q-19 8 -34.5 19.5t-31.5 24.5q-6 -5 -16 -11t-20.5 -12.5t-21 -12.5t-17.5 -9q-10 0 -5 9q17 10 43.5 29t42.5 38zM1004 585q2 -2 2 -5.5t-5 -9.5q-33 -36 -59 -82.5t-44.5 -101.5t-28.5 -116
t-10 -125q0 -48 12 -74.5t41 -26.5q39 0 76 56q3 2 6 0t1 -6q-10 -17 -23.5 -33.5t-28.5 -30t-29.5 -22t-26.5 -8.5q-33 0 -50.5 33.5t-17.5 85.5q0 80 18 163q-47 0 -92.5 -1t-89.5 -3q-33 -35 -63.5 -66t-59.5 -57q-80 -73 -164.5 -114t-185.5 -41q-51 0 -82.5 24.5
t-43 61.5t-2 81.5t42.5 83.5q3 2 7 -0.5t3 -9.5q-24 -26 -28.5 -60t10.5 -65t51 -52t94 -21q76 0 153.5 36t146.5 101q22 20 45.5 44.5t49.5 52.5q-69 -5 -124 -12q-5 1 -2 5t9.5 8.5t15 8t16.5 4.5q12 1 39.5 1.5t62.5 1.5q57 60 127.5 129t163.5 142q-67 22 -138.5 36.5
t-137.5 14.5q-75 0 -124.5 -43.5t-61.5 -132.5q-2 -5 -5.5 -4t-4.5 6q12 98 73 150t158 52q41 0 83 -5.5t82 -14t76.5 -19t66.5 -20.5zM840 295q17 73 47 142.5t72 126.5q-88 -71 -158 -139.5t-130 -130.5q48 1 95 1h74z" />
    <glyph glyph-name="Atilde" unicode="&#xc3;" horiz-adv-x="996" 
d="M870 673q11 16 29.5 31t35.5 15q12 0 21.5 -5.5t20 -12t23 -12t28.5 -5.5q18 0 29.5 11.5t21.5 32.5q2 2 5.5 0.5t2.5 -4.5q-12 -27 -29 -43t-47 -16q-14 0 -25.5 5t-22 11.5t-20.5 11.5t-20 5q-13 0 -24 -8.5t-22 -22.5q-4 -2 -6.5 0.5t-0.5 5.5zM1004 585q2 -2 2 -5.5
t-5 -9.5q-33 -36 -59 -82.5t-44.5 -101.5t-28.5 -116t-10 -125q0 -48 12 -74.5t41 -26.5q39 0 76 56q3 2 6 0t1 -6q-10 -17 -23.5 -33.5t-28.5 -30t-29.5 -22t-26.5 -8.5q-33 0 -50.5 33.5t-17.5 85.5q0 80 18 163q-47 0 -92.5 -1t-89.5 -3q-33 -35 -63.5 -66t-59.5 -57
q-80 -73 -164.5 -114t-185.5 -41q-51 0 -82.5 24.5t-43 61.5t-2 81.5t42.5 83.5q3 2 7 -0.5t3 -9.5q-24 -26 -28.5 -60t10.5 -65t51 -52t94 -21q76 0 153.5 36t146.5 101q22 20 45.5 44.5t49.5 52.5q-69 -5 -124 -12q-5 1 -2 5t9.5 8.5t15 8t16.5 4.5q12 1 39.5 1.5
t62.5 1.5q57 60 127.5 129t163.5 142q-67 22 -138.5 36.5t-137.5 14.5q-75 0 -124.5 -43.5t-61.5 -132.5q-2 -5 -5.5 -4t-4.5 6q12 98 73 150t158 52q41 0 83 -5.5t82 -14t76.5 -19t66.5 -20.5zM840 295q17 73 47 142.5t72 126.5q-88 -71 -158 -139.5t-130 -130.5q48 1 95 1
h74z" />
    <glyph glyph-name="Adieresis" unicode="&#xc4;" horiz-adv-x="996" 
d="M937 667q-11 0 -11 17q0 10 10 23.5t26 13.5q9 0 9 -13q0 -14 -10 -27.5t-24 -13.5zM1014 667q-12 0 -12 17q0 10 10 23.5t25 13.5q9 0 9 -13q0 -14 -10 -27.5t-22 -13.5zM1004 585q2 -2 2 -5.5t-5 -9.5q-33 -36 -59 -82.5t-44.5 -101.5t-28.5 -116t-10 -125
q0 -48 12 -74.5t41 -26.5q39 0 76 56q3 2 6 0t1 -6q-10 -17 -23.5 -33.5t-28.5 -30t-29.5 -22t-26.5 -8.5q-33 0 -50.5 33.5t-17.5 85.5q0 80 18 163q-47 0 -92.5 -1t-89.5 -3q-33 -35 -63.5 -66t-59.5 -57q-80 -73 -164.5 -114t-185.5 -41q-51 0 -82.5 24.5t-43 61.5
t-2 81.5t42.5 83.5q3 2 7 -0.5t3 -9.5q-24 -26 -28.5 -60t10.5 -65t51 -52t94 -21q76 0 153.5 36t146.5 101q22 20 45.5 44.5t49.5 52.5q-69 -5 -124 -12q-5 1 -2 5t9.5 8.5t15 8t16.5 4.5q12 1 39.5 1.5t62.5 1.5q57 60 127.5 129t163.5 142q-67 22 -138.5 36.5
t-137.5 14.5q-75 0 -124.5 -43.5t-61.5 -132.5q-2 -5 -5.5 -4t-4.5 6q12 98 73 150t158 52q41 0 83 -5.5t82 -14t76.5 -19t66.5 -20.5zM840 295q17 73 47 142.5t72 126.5q-88 -71 -158 -139.5t-130 -130.5q48 1 95 1h74z" />
    <glyph glyph-name="Aring" unicode="&#xc5;" horiz-adv-x="996" 
d="M989 753q-16 0 -24.5 -10.5t-8.5 -28.5q0 -14 7 -23t23 -9q15 0 23.5 11t8.5 29q0 31 -29 31zM973 670q-16 0 -24.5 10.5t-8.5 25.5q0 23 17.5 41t43.5 18q17 0 25 -10t8 -25q0 -23 -17 -41.5t-44 -18.5zM1004 585q2 -2 2 -5.5t-5 -9.5q-33 -36 -59 -82.5t-44.5 -101.5
t-28.5 -116t-10 -125q0 -48 12 -74.5t41 -26.5q39 0 76 56q3 2 6 0t1 -6q-10 -17 -23.5 -33.5t-28.5 -30t-29.5 -22t-26.5 -8.5q-33 0 -50.5 33.5t-17.5 85.5q0 80 18 163q-47 0 -92.5 -1t-89.5 -3q-33 -35 -63.5 -66t-59.5 -57q-80 -73 -164.5 -114t-185.5 -41
q-51 0 -82.5 24.5t-43 61.5t-2 81.5t42.5 83.5q3 2 7 -0.5t3 -9.5q-24 -26 -28.5 -60t10.5 -65t51 -52t94 -21q76 0 153.5 36t146.5 101q22 20 45.5 44.5t49.5 52.5q-69 -5 -124 -12q-5 1 -2 5t9.5 8.5t15 8t16.5 4.5q12 1 39.5 1.5t62.5 1.5q57 60 127.5 129t163.5 142
q-67 22 -138.5 36.5t-137.5 14.5q-75 0 -124.5 -43.5t-61.5 -132.5q-2 -5 -5.5 -4t-4.5 6q12 98 73 150t158 52q41 0 83 -5.5t82 -14t76.5 -19t66.5 -20.5zM840 295q17 73 47 142.5t72 126.5q-88 -71 -158 -139.5t-130 -130.5q48 1 95 1h74z" />
    <glyph glyph-name="AE" unicode="&#xc6;" horiz-adv-x="1271" 
d="M1197 644q24 0 46.5 -4.5t40.5 -12t28.5 -17t10.5 -19.5q0 -8 -3.5 -18.5t-8 -21.5t-9.5 -20.5t-8 -13.5q-3 -2 -6 -0.5t-2 5.5q6 11 9 24.5t-5 26.5q-11 18 -42 36t-71 18q-59 0 -89.5 -29t-30.5 -75q0 -32 23 -59.5t71 -41.5q3 -2 0.5 -6.5t-7.5 -9.5t-11.5 -9
t-10.5 -5q-112 5 -174 -48.5t-62 -161.5q0 -35 10.5 -65t30 -52t47 -34.5t62.5 -12.5q82 0 134 38t75 123q3 5 6.5 3t4.5 -8q-13 -56 -29 -93t-30 -43q-35 -16 -84.5 -27t-100.5 -11q-41 0 -72 13t-52 35.5t-31.5 53.5t-10.5 67q0 26 2.5 55t7.5 60q-1 -1 -1.5 -1t-1.5 -1
q-51 0 -101 -1.5t-97 -3.5q-33 -35 -63 -65.5t-59 -57.5q-80 -73 -165 -113.5t-185 -40.5q-51 0 -83 24.5t-43.5 61.5t-2 81.5t42.5 83.5q4 2 7.5 -0.5t3.5 -9.5q-24 -26 -29 -60t10.5 -65t51.5 -52t94 -21q76 0 153 36t146 101q22 20 45 44.5t49 50.5q-29 -2 -56.5 -4
t-51.5 -6q-5 1 -2 5t9 8.5t14.5 8t16.5 4.5q11 1 34.5 1.5t53.5 1.5q57 60 127.5 129t163.5 142q-66 22 -138 36.5t-138 14.5q-75 0 -124.5 -43.5t-60.5 -132.5q-2 -5 -5.5 -4t-4.5 6q11 98 72 150t159 52q41 0 82 -5.5t80 -14t74.5 -18.5t65.5 -20q3 -2 5 -5.5t-3 -10.5
q-42 -58 -66.5 -121.5t-38.5 -137.5q32 45 77 67.5t102 33.5q-27 14 -42.5 38.5t-15.5 50.5q0 28 13 54t36.5 45.5t56.5 31.5t74 12zM858 295q14 70 39.5 141t62.5 128q-89 -71 -159 -139.5t-129 -130.5q25 0 52 0.5t52 0.5h46.5h35.5z" />
    <glyph glyph-name="Ccedilla" unicode="&#xc7;" horiz-adv-x="557" 
d="M629 591q0 -8 -3 -19.5t-8.5 -23.5t-11.5 -23.5t-12 -19.5q-3 -2 -6.5 0t-2.5 7q21 37 9 57q-14 22 -56 39t-96 17q-72 0 -131 -25.5t-101.5 -72t-66 -110.5t-23.5 -141q0 -56 15 -103.5t43.5 -82t70.5 -54t96 -19.5q72 0 120 44.5t68 118.5q3 5 7 3.5t4 -6.5
q-4 -21 -11.5 -46t-16.5 -47.5t-18 -39t-15 -18.5q-60 -24 -142 -26q-8 -6 -11 -15.5t0 -17.5q9 -23 -5 -48t-49 -39q-3 1 -3.5 4.5t1.5 5.5q26 12 33.5 26.5t1.5 34.5q-4 12 1 26.5t18 22.5q-61 0 -109 19t-81.5 52t-51 77.5t-17.5 96.5q0 79 29 151.5t81.5 127.5
t125.5 87.5t161 32.5q36 0 65.5 -3.5t51.5 -10.5t34 -17t12 -22z" />
    <glyph glyph-name="Egrave" unicode="&#xc8;" horiz-adv-x="463" 
d="M469 669q2 -2 -0.5 -5.5t-7.5 -3.5q-12 3 -29 9t-34 13t-33 14t-27 13q-2 1 -2 3.5t2 4.5q10 8 24 12t16 2q17 -14 40.5 -30.5t50.5 -31.5zM238 523q0 -35 23.5 -59.5t80.5 -41.5q3 -2 0.5 -6.5t-7.5 -9.5t-11.5 -9t-10.5 -5q-112 5 -174 -48.5t-62 -161.5
q0 -35 10.5 -65t30 -52t47 -34.5t62.5 -12.5q82 0 134 38t75 123q3 5 6.5 3t4.5 -8q-12 -56 -28.5 -93t-30.5 -43q-35 -16 -84.5 -27t-100.5 -11q-42 0 -74.5 13t-54.5 35t-33.5 50.5t-11.5 59.5q0 48 17.5 90.5t49 75.5t75 56t95.5 32q-32 17 -50 40t-18 50q0 28 14.5 53.5
t40 45t60 31.5t75.5 12q24 0 47 -4.5t41 -12t28.5 -17t10.5 -19.5q0 -8 -3.5 -18.5t-8 -21.5t-10 -20.5t-8.5 -13.5q-2 -2 -5.5 -0.5t-2.5 5.5q6 11 9 24.5t-5 26.5q-11 18 -42 36t-71 18q-33 0 -57 -9t-40.5 -24t-24.5 -33.5t-8 -37.5z" />
    <glyph glyph-name="Eacute" unicode="&#xc9;" horiz-adv-x="463" 
d="M432 734q5 3 18.5 -1.5t22.5 -8.5q2 -2 3 -4.5t-2 -4.5q-10 -7 -25.5 -15t-33 -15.5t-36 -14.5t-33.5 -12q-4 0 -4 4t3 7q20 12 44 28.5t43 36.5zM238 523q0 -35 23.5 -59.5t80.5 -41.5q3 -2 0.5 -6.5t-7.5 -9.5t-11.5 -9t-10.5 -5q-112 5 -174 -48.5t-62 -161.5
q0 -35 10.5 -65t30 -52t47 -34.5t62.5 -12.5q82 0 134 38t75 123q3 5 6.5 3t4.5 -8q-12 -56 -28.5 -93t-30.5 -43q-35 -16 -84.5 -27t-100.5 -11q-42 0 -74.5 13t-54.5 35t-33.5 50.5t-11.5 59.5q0 48 17.5 90.5t49 75.5t75 56t95.5 32q-32 17 -50 40t-18 50q0 28 14.5 53.5
t40 45t60 31.5t75.5 12q24 0 47 -4.5t41 -12t28.5 -17t10.5 -19.5q0 -8 -3.5 -18.5t-8 -21.5t-10 -20.5t-8.5 -13.5q-2 -2 -5.5 -0.5t-2.5 5.5q6 11 9 24.5t-5 26.5q-11 18 -42 36t-71 18q-33 0 -57 -9t-40.5 -24t-24.5 -33.5t-8 -37.5z" />
    <glyph glyph-name="Ecircumflex" unicode="&#xca;" horiz-adv-x="463" 
d="M391 746q5 5 12 -1q13 -17 33.5 -34.5t40.5 -26.5q5 -5 -4.5 -10t-21.5 -3q-19 8 -34.5 19.5t-31.5 24.5q-6 -5 -16 -11t-20.5 -12.5t-21 -12.5t-17.5 -9q-10 0 -5 9q17 10 43.5 29t42.5 38zM238 523q0 -35 23.5 -59.5t80.5 -41.5q3 -2 0.5 -6.5t-7.5 -9.5t-11.5 -9
t-10.5 -5q-112 5 -174 -48.5t-62 -161.5q0 -35 10.5 -65t30 -52t47 -34.5t62.5 -12.5q82 0 134 38t75 123q3 5 6.5 3t4.5 -8q-12 -56 -28.5 -93t-30.5 -43q-35 -16 -84.5 -27t-100.5 -11q-42 0 -74.5 13t-54.5 35t-33.5 50.5t-11.5 59.5q0 48 17.5 90.5t49 75.5t75 56
t95.5 32q-32 17 -50 40t-18 50q0 28 14.5 53.5t40 45t60 31.5t75.5 12q24 0 47 -4.5t41 -12t28.5 -17t10.5 -19.5q0 -8 -3.5 -18.5t-8 -21.5t-10 -20.5t-8.5 -13.5q-2 -2 -5.5 -0.5t-2.5 5.5q6 11 9 24.5t-5 26.5q-11 18 -42 36t-71 18q-33 0 -57 -9t-40.5 -24t-24.5 -33.5
t-8 -37.5z" />
    <glyph glyph-name="Edieresis" unicode="&#xcb;" horiz-adv-x="463" 
d="M361 667q-11 0 -11 17q0 10 10 23.5t26 13.5q9 0 9 -13q0 -14 -10 -27.5t-24 -13.5zM438 667q-12 0 -12 17q0 10 10 23.5t25 13.5q9 0 9 -13q0 -14 -10 -27.5t-22 -13.5zM238 523q0 -35 23.5 -59.5t80.5 -41.5q3 -2 0.5 -6.5t-7.5 -9.5t-11.5 -9t-10.5 -5
q-112 5 -174 -48.5t-62 -161.5q0 -35 10.5 -65t30 -52t47 -34.5t62.5 -12.5q82 0 134 38t75 123q3 5 6.5 3t4.5 -8q-12 -56 -28.5 -93t-30.5 -43q-35 -16 -84.5 -27t-100.5 -11q-42 0 -74.5 13t-54.5 35t-33.5 50.5t-11.5 59.5q0 48 17.5 90.5t49 75.5t75 56t95.5 32
q-32 17 -50 40t-18 50q0 28 14.5 53.5t40 45t60 31.5t75.5 12q24 0 47 -4.5t41 -12t28.5 -17t10.5 -19.5q0 -8 -3.5 -18.5t-8 -21.5t-10 -20.5t-8.5 -13.5q-2 -2 -5.5 -0.5t-2.5 5.5q6 11 9 24.5t-5 26.5q-11 18 -42 36t-71 18q-33 0 -57 -9t-40.5 -24t-24.5 -33.5t-8 -37.5
z" />
    <glyph glyph-name="Igrave" unicode="&#xcc;" horiz-adv-x="514" 
d="M615 669q2 -2 -0.5 -5.5t-7.5 -3.5q-12 3 -29 9t-34 13t-33 14t-27 13q-2 1 -2 3.5t2 4.5q10 8 24 12t16 2q17 -14 40.5 -30.5t50.5 -31.5zM698 645q3 -2 2 -6t-5 -9t-9 -10t-9 -7q-20 -6 -36 -16t-31 -31t-29 -57.5t-29 -94.5q-36 -137 -98 -232q14 2 26.5 7t19.5 9
q3 1 4 -1.5t-1 -5.5q-21 -14 -55 -19q-58 -84 -135 -128t-172 -44q-60 0 -95.5 27t-35.5 66q0 31 26 62t70 51q5 -1 5.5 -4t-1.5 -5q-31 -17 -46 -39t-15 -45q0 -34 31 -59t94 -25q79 0 140.5 32.5t108.5 109.5q-51 3 -78 39t-27 93q0 62 30 123t81.5 110t121 79t147.5 30z
M509 392q11 42 23 75.5t27 59.5t33.5 45.5t41.5 33.5q-69 -8 -125 -38.5t-95.5 -72.5t-61 -91.5t-21.5 -96.5q0 -60 26.5 -91.5t71.5 -34.5q23 40 43 92.5t37 118.5z" />
    <glyph glyph-name="Iacute" unicode="&#xcd;" horiz-adv-x="514" 
d="M600 734q5 3 18.5 -1.5t22.5 -8.5q2 -2 3 -4.5t-2 -4.5q-10 -7 -25.5 -15t-33 -15.5t-36 -14.5t-33.5 -12q-4 0 -4 4t3 7q20 12 44 28.5t43 36.5zM698 645q3 -2 2 -6t-5 -9t-9 -10t-9 -7q-20 -6 -36 -16t-31 -31t-29 -57.5t-29 -94.5q-36 -137 -98 -232q14 2 26.5 7
t19.5 9q3 1 4 -1.5t-1 -5.5q-21 -14 -55 -19q-58 -84 -135 -128t-172 -44q-60 0 -95.5 27t-35.5 66q0 31 26 62t70 51q5 -1 5.5 -4t-1.5 -5q-31 -17 -46 -39t-15 -45q0 -34 31 -59t94 -25q79 0 140.5 32.5t108.5 109.5q-51 3 -78 39t-27 93q0 62 30 123t81.5 110t121 79
t147.5 30zM509 392q11 42 23 75.5t27 59.5t33.5 45.5t41.5 33.5q-69 -8 -125 -38.5t-95.5 -72.5t-61 -91.5t-21.5 -96.5q0 -60 26.5 -91.5t71.5 -34.5q23 40 43 92.5t37 118.5z" />
    <glyph glyph-name="Icircumflex" unicode="&#xce;" horiz-adv-x="514" 
d="M589 746q5 5 12 -1q13 -17 33.5 -34.5t40.5 -26.5q5 -5 -4.5 -10t-21.5 -3q-19 8 -34.5 19.5t-31.5 24.5q-6 -5 -16 -11t-20.5 -12.5t-21 -12.5t-17.5 -9q-10 0 -5 9q17 10 43.5 29t42.5 38zM698 645q3 -2 2 -6t-5 -9t-9 -10t-9 -7q-20 -6 -36 -16t-31 -31t-29 -57.5
t-29 -94.5q-36 -137 -98 -232q14 2 26.5 7t19.5 9q3 1 4 -1.5t-1 -5.5q-21 -14 -55 -19q-58 -84 -135 -128t-172 -44q-60 0 -95.5 27t-35.5 66q0 31 26 62t70 51q5 -1 5.5 -4t-1.5 -5q-31 -17 -46 -39t-15 -45q0 -34 31 -59t94 -25q79 0 140.5 32.5t108.5 109.5
q-51 3 -78 39t-27 93q0 62 30 123t81.5 110t121 79t147.5 30zM509 392q11 42 23 75.5t27 59.5t33.5 45.5t41.5 33.5q-69 -8 -125 -38.5t-95.5 -72.5t-61 -91.5t-21.5 -96.5q0 -60 26.5 -91.5t71.5 -34.5q23 40 43 92.5t37 118.5z" />
    <glyph glyph-name="Idieresis" unicode="&#xcf;" horiz-adv-x="514" 
d="M545 667q-11 0 -11 17q0 10 10 23.5t26 13.5q9 0 9 -13q0 -14 -10 -27.5t-24 -13.5zM622 667q-12 0 -12 17q0 10 10 23.5t25 13.5q9 0 9 -13q0 -14 -10 -27.5t-22 -13.5zM698 645q3 -2 2 -6t-5 -9t-9 -10t-9 -7q-20 -6 -36 -16t-31 -31t-29 -57.5t-29 -94.5
q-36 -137 -98 -232q14 2 26.5 7t19.5 9q3 1 4 -1.5t-1 -5.5q-21 -14 -55 -19q-58 -84 -135 -128t-172 -44q-60 0 -95.5 27t-35.5 66q0 31 26 62t70 51q5 -1 5.5 -4t-1.5 -5q-31 -17 -46 -39t-15 -45q0 -34 31 -59t94 -25q79 0 140.5 32.5t108.5 109.5q-51 3 -78 39t-27 93
q0 62 30 123t81.5 110t121 79t147.5 30zM509 392q11 42 23 75.5t27 59.5t33.5 45.5t41.5 33.5q-69 -8 -125 -38.5t-95.5 -72.5t-61 -91.5t-21.5 -96.5q0 -60 26.5 -91.5t71.5 -34.5q23 40 43 92.5t37 118.5z" />
    <glyph glyph-name="Eth" unicode="&#xd0;" horiz-adv-x="800" 
d="M583 591q49 -29 88.5 -69.5t67 -85.5t42 -91.5t14.5 -88.5q0 -56 -18.5 -102.5t-53.5 -81t-86 -53.5t-116 -19q-38 0 -70.5 5t-62 12.5t-57 16.5t-54.5 18q-38 -27 -84.5 -39.5t-104.5 -12.5q-32 0 -45 7.5t-13 21.5q0 13 9 27t25.5 26t39.5 19.5t52 7.5q38 0 70.5 -7
t64.5 -17q29 30 54.5 78.5t51.5 120.5q-35 -2 -65.5 -5t-54.5 -7q-4 2 1.5 7t16.5 10q14 2 43 4.5t64 4.5q6 17 12.5 36t12.5 39q21 65 46 114.5t58 84.5q-39 20 -83 32t-92 12q-79 0 -130 -47t-62 -123q-2 -2 -5 -1t-3 5q4 42 22 77.5t48.5 61.5t72.5 40.5t95 14.5
q47 0 89 -11t80 -30q26 21 57.5 35.5t70.5 22.5q3 0 3 -3.5t-3 -5.5q-60 -16 -108 -61zM123 18q42 0 75.5 9t62.5 31q-33 10 -68 16.5t-77 6.5q-28 0 -40.5 -8.5t-14.5 -22.5q-3 -14 10.5 -23t51.5 -9zM566 27q95 0 142.5 54t47.5 143q0 47 -14 94.5t-40.5 92t-63.5 83
t-83 66.5q-51 -64 -82 -167q-8 -26 -16.5 -49t-17.5 -45q37 2 70.5 2t56.5 -1q2 -1 1.5 -4.5t-6.5 -4.5q-28 0 -60.5 -1t-65.5 -3q-28 -71 -58.5 -122.5t-67.5 -86.5q25 -9 52 -18t57.5 -16.5t67 -12t80.5 -4.5z" />
    <glyph glyph-name="Ntilde" unicode="&#xd1;" horiz-adv-x="796" 
d="M613 673q11 16 29.5 31t35.5 15q12 0 21.5 -5.5t20 -12t23 -12t28.5 -5.5q18 0 29.5 11.5t21.5 32.5q2 2 5.5 0.5t2.5 -4.5q-12 -27 -29 -43t-47 -16q-14 0 -25.5 5t-22 11.5t-20.5 11.5t-20 5q-13 0 -24 -8.5t-22 -22.5q-4 -2 -6.5 0.5t-0.5 5.5zM1022 644
q28 0 44.5 -21.5t16.5 -74.5q-1 -6 -5.5 -6.5t-6.5 5.5q-2 18 -13 31t-27 18.5t-35.5 3t-38.5 -16.5q-49 -35 -90 -99t-72 -141.5t-49 -162.5t-21 -162q0 -11 -2 -14.5t-7 -3.5q-4 0 -6.5 4.5t-4.5 10.5q-45 171 -108 301.5t-144 205.5q-22 -124 -63 -221t-96 -164
t-120 -102t-134 -35q-71 0 -115 30.5t-60 75t-3 95t56 89.5q5 1 7.5 -2.5t0.5 -8.5q-29 -29 -37 -69.5t8 -77.5t57 -63t111 -26q69 0 129 33.5t107.5 97t81 156t50.5 210.5q-42 35 -87 53t-94 18q-48 0 -79.5 -22t-45.5 -49q-3 -2 -6.5 -1t-4.5 6q9 19 24.5 37t35.5 31.5
t46 22t56 8.5q42 0 82.5 -15.5t78.5 -44.5v2q1 6 5 14t8.5 14.5t8.5 9t5 -2.5q-1 -14 -2.5 -27.5t-3.5 -26.5q43 -38 82 -89t72 -111t59.5 -126.5t46.5 -134.5q7 60 23 123.5t39 123t51.5 112.5t60 93t64 63t64.5 23z" />
    <glyph glyph-name="Ograve" unicode="&#xd2;" horiz-adv-x="608" 
d="M494 669q2 -2 -0.5 -5.5t-7.5 -3.5q-12 3 -29 9t-34 13t-33 14t-27 13q-2 1 -2 3.5t2 4.5q10 8 24 12t16 2q17 -14 40.5 -30.5t50.5 -31.5zM448 645q47 0 85 -18t64.5 -50t41 -75.5t14.5 -95.5q0 -82 -31.5 -155.5t-82.5 -129t-117 -88.5t-135 -33q-53 0 -93 19t-67 51
t-41 74t-14 88q0 76 29 150.5t80 132.5t119.5 94t147.5 36zM330 31q52 0 102.5 25t90.5 70.5t65 109t25 140.5q0 110 -52.5 172.5t-144.5 62.5q-67 0 -122.5 -27t-95.5 -74t-62 -110t-22 -135q0 -52 14.5 -95t42 -74t68 -48t91.5 -17z" />
    <glyph glyph-name="Oacute" unicode="&#xd3;" horiz-adv-x="608" 
d="M468 734q5 3 18.5 -1.5t22.5 -8.5q2 -2 3 -4.5t-2 -4.5q-10 -7 -25.5 -15t-33 -15.5t-36 -14.5t-33.5 -12q-4 0 -4 4t3 7q20 12 44 28.5t43 36.5zM448 645q47 0 85 -18t64.5 -50t41 -75.5t14.5 -95.5q0 -82 -31.5 -155.5t-82.5 -129t-117 -88.5t-135 -33q-53 0 -93 19
t-67 51t-41 74t-14 88q0 76 29 150.5t80 132.5t119.5 94t147.5 36zM330 31q52 0 102.5 25t90.5 70.5t65 109t25 140.5q0 110 -52.5 172.5t-144.5 62.5q-67 0 -122.5 -27t-95.5 -74t-62 -110t-22 -135q0 -52 14.5 -95t42 -74t68 -48t91.5 -17z" />
    <glyph glyph-name="Ocircumflex" unicode="&#xd4;" horiz-adv-x="608" 
d="M450 746q5 5 12 -1q13 -17 33.5 -34.5t40.5 -26.5q5 -5 -4.5 -10t-21.5 -3q-19 8 -34.5 19.5t-31.5 24.5q-6 -5 -16 -11t-20.5 -12.5t-21 -12.5t-17.5 -9q-10 0 -5 9q17 10 43.5 29t42.5 38zM448 645q47 0 85 -18t64.5 -50t41 -75.5t14.5 -95.5q0 -82 -31.5 -155.5
t-82.5 -129t-117 -88.5t-135 -33q-53 0 -93 19t-67 51t-41 74t-14 88q0 76 29 150.5t80 132.5t119.5 94t147.5 36zM330 31q52 0 102.5 25t90.5 70.5t65 109t25 140.5q0 110 -52.5 172.5t-144.5 62.5q-67 0 -122.5 -27t-95.5 -74t-62 -110t-22 -135q0 -52 14.5 -95t42 -74
t68 -48t91.5 -17z" />
    <glyph glyph-name="Otilde" unicode="&#xd5;" horiz-adv-x="608" 
d="M345 673q11 16 29.5 31t35.5 15q12 0 21.5 -5.5t20 -12t23 -12t28.5 -5.5q18 0 29.5 11.5t21.5 32.5q2 2 5.5 0.5t2.5 -4.5q-12 -27 -29 -43t-47 -16q-14 0 -25.5 5t-22 11.5t-20.5 11.5t-20 5q-13 0 -24 -8.5t-22 -22.5q-4 -2 -6.5 0.5t-0.5 5.5zM448 645q47 0 85 -18
t64.5 -50t41 -75.5t14.5 -95.5q0 -82 -31.5 -155.5t-82.5 -129t-117 -88.5t-135 -33q-53 0 -93 19t-67 51t-41 74t-14 88q0 76 29 150.5t80 132.5t119.5 94t147.5 36zM330 31q52 0 102.5 25t90.5 70.5t65 109t25 140.5q0 110 -52.5 172.5t-144.5 62.5q-67 0 -122.5 -27
t-95.5 -74t-62 -110t-22 -135q0 -52 14.5 -95t42 -74t68 -48t91.5 -17z" />
    <glyph glyph-name="Odieresis" unicode="&#xd6;" horiz-adv-x="608" 
d="M406 667q-11 0 -11 17q0 10 10 23.5t26 13.5q9 0 9 -13q0 -14 -10 -27.5t-24 -13.5zM483 667q-12 0 -12 17q0 10 10 23.5t25 13.5q9 0 9 -13q0 -14 -10 -27.5t-22 -13.5zM448 645q47 0 85 -18t64.5 -50t41 -75.5t14.5 -95.5q0 -82 -31.5 -155.5t-82.5 -129t-117 -88.5
t-135 -33q-53 0 -93 19t-67 51t-41 74t-14 88q0 76 29 150.5t80 132.5t119.5 94t147.5 36zM330 31q52 0 102.5 25t90.5 70.5t65 109t25 140.5q0 110 -52.5 172.5t-144.5 62.5q-67 0 -122.5 -27t-95.5 -74t-62 -110t-22 -135q0 -52 14.5 -95t42 -74t68 -48t91.5 -17z" />
    <glyph glyph-name="multiply" unicode="&#xd7;" horiz-adv-x="301" 
d="M248 235q4 2 9.5 2.5t10 -0.5t7 -3t0.5 -6q-51 -42 -98 -86q11 -21 22.5 -42t20.5 -39q2 -5 -6.5 -10t-11.5 -1q-10 19 -20 38.5t-21 39.5q-21 -20 -41 -38.5t-38 -35.5q-5 -3 -10.5 -4t-10 -0.5t-7 2.5t-0.5 6q24 21 48 42.5t49 44.5q-11 20 -21.5 39.5t-21.5 38.5
q-1 6 6.5 12t11.5 0q7 -12 18 -32t23 -43q40 36 81 75z" />
    <glyph glyph-name="Oslash" unicode="&#xd8;" horiz-adv-x="605" 
d="M559 610q44 -30 67.5 -83t23.5 -121q0 -82 -31 -155.5t-82.5 -129t-117 -88.5t-134.5 -33q-43 0 -77 12.5t-60 34.5q-14 -19 -25 -34.5t-19 -27.5q-5 -6 -12.5 -4.5t-5.5 7.5l22.5 31.5t27.5 37.5q-33 33 -49.5 78.5t-16.5 96.5t13.5 101.5t37.5 96t58 85t76 68t90 45
t101 16.5q54 0 98 -25q8 11 15 20.5t14 17.5q6 5 13 3.5t5 -8.5q-7 -8 -15 -18.5t-17 -23.5zM112 265q0 -104 53 -166q39 53 85 116.5t93 128.5t92 127t82 112q-44 27 -104 27q-67 0 -122.5 -27t-95 -74t-61.5 -110t-22 -134zM327 30q52 0 103 25t91 70.5t64.5 109.5
t24.5 141q0 68 -20.5 118t-58.5 79q-37 -49 -83 -111.5t-94 -128t-94.5 -130t-83.5 -116.5q28 -27 65.5 -42t85.5 -15z" />
    <glyph glyph-name="Ugrave" unicode="&#xd9;" horiz-adv-x="717" 
d="M648 669q2 -2 -0.5 -5.5t-7.5 -3.5q-12 3 -29 9t-34 13t-33 14t-27 13q-2 1 -2 3.5t2 4.5q10 8 24 12t16 2q17 -14 40.5 -30.5t50.5 -31.5zM407 586q-26 10 -65 18t-80 8q-61 0 -105 -26.5t-70 -69t-34.5 -95.5t2.5 -105q-1 -4 -5 -6t-6 2q-14 63 -2 122.5t45 106
t86.5 75t124.5 28.5q42 0 81 -9t70 -23q6 -5 -3 -12q-53 -42 -93.5 -94.5t-69 -111t-43 -120t-14.5 -121.5q0 -66 23 -92t61 -26q52 0 102 35t102.5 107.5t111 183t126.5 261.5q4 8 17 15t27 7q16 0 16 -7q-18 -21 -40 -59.5t-43.5 -87t-42 -103.5t-36.5 -107.5t-25.5 -99
t-9.5 -79.5q0 -57 37 -57q38 0 74 56q3 3 7 0.5t3 -6.5q-11 -17 -24.5 -33.5t-28.5 -30t-29.5 -22t-26.5 -8.5q-28 0 -40.5 23t-12.5 55q0 50 15 119t47 149q-91 -171 -180 -258.5t-177 -87.5q-48 0 -72.5 32.5t-24.5 92.5q0 61 15.5 123t44.5 121.5t70.5 114.5t94.5 102z
" />
    <glyph glyph-name="Uacute" unicode="&#xda;" horiz-adv-x="717" 
d="M647 734q5 3 18.5 -1.5t22.5 -8.5q2 -2 3 -4.5t-2 -4.5q-10 -7 -25.5 -15t-33 -15.5t-36 -14.5t-33.5 -12q-4 0 -4 4t3 7q20 12 44 28.5t43 36.5zM407 586q-26 10 -65 18t-80 8q-61 0 -105 -26.5t-70 -69t-34.5 -95.5t2.5 -105q-1 -4 -5 -6t-6 2q-14 63 -2 122.5t45 106
t86.5 75t124.5 28.5q42 0 81 -9t70 -23q6 -5 -3 -12q-53 -42 -93.5 -94.5t-69 -111t-43 -120t-14.5 -121.5q0 -66 23 -92t61 -26q52 0 102 35t102.5 107.5t111 183t126.5 261.5q4 8 17 15t27 7q16 0 16 -7q-18 -21 -40 -59.5t-43.5 -87t-42 -103.5t-36.5 -107.5t-25.5 -99
t-9.5 -79.5q0 -57 37 -57q38 0 74 56q3 3 7 0.5t3 -6.5q-11 -17 -24.5 -33.5t-28.5 -30t-29.5 -22t-26.5 -8.5q-28 0 -40.5 23t-12.5 55q0 50 15 119t47 149q-91 -171 -180 -258.5t-177 -87.5q-48 0 -72.5 32.5t-24.5 92.5q0 61 15.5 123t44.5 121.5t70.5 114.5t94.5 102z
" />
    <glyph glyph-name="Ucircumflex" unicode="&#xdb;" horiz-adv-x="718" 
d="M603 746q5 5 12 -1q13 -17 33.5 -34.5t40.5 -26.5q5 -5 -4.5 -10t-21.5 -3q-19 8 -34.5 19.5t-31.5 24.5q-6 -5 -16 -11t-20.5 -12.5t-21 -12.5t-17.5 -9q-10 0 -5 9q17 10 43.5 29t42.5 38zM407 586q-26 10 -65 18t-80 8q-61 0 -105 -26.5t-70 -69t-34.5 -95.5t2.5 -105
q-1 -4 -5 -6t-6 2q-14 63 -2 122.5t45 106t86.5 75t124.5 28.5q42 0 81 -9t70 -23q6 -5 -3 -12q-53 -42 -93.5 -94.5t-69 -111t-43 -120t-14.5 -121.5q0 -66 23 -92t61 -26q52 0 102 35t102.5 107.5t111 183t126.5 261.5q4 8 17 15t27 7q16 0 16 -7q-18 -21 -40 -59.5
t-43.5 -87t-42 -103.5t-36.5 -107.5t-25.5 -99t-9.5 -79.5q0 -57 37 -57q38 0 74 56q3 3 7 0.5t3 -6.5q-11 -17 -24.5 -33.5t-28.5 -30t-29.5 -22t-26.5 -8.5q-28 0 -40.5 23t-12.5 55q0 50 15 119t47 149q-91 -171 -180 -258.5t-177 -87.5q-48 0 -72.5 32.5t-24.5 92.5
q0 61 15.5 123t44.5 121.5t70.5 114.5t94.5 102z" />
    <glyph glyph-name="Udieresis" unicode="&#xdc;" horiz-adv-x="718" 
d="M553 667q-11 0 -11 17q0 10 10 23.5t26 13.5q9 0 9 -13q0 -14 -10 -27.5t-24 -13.5zM630 667q-12 0 -12 17q0 10 10 23.5t25 13.5q9 0 9 -13q0 -14 -10 -27.5t-22 -13.5zM407 586q-26 10 -65 18t-80 8q-61 0 -105 -26.5t-70 -69t-34.5 -95.5t2.5 -105q-1 -4 -5 -6t-6 2
q-14 63 -2 122.5t45 106t86.5 75t124.5 28.5q42 0 81 -9t70 -23q6 -5 -3 -12q-53 -42 -93.5 -94.5t-69 -111t-43 -120t-14.5 -121.5q0 -66 23 -92t61 -26q52 0 102 35t102.5 107.5t111 183t126.5 261.5q4 8 17 15t27 7q16 0 16 -7q-18 -21 -40 -59.5t-43.5 -87t-42 -103.5
t-36.5 -107.5t-25.5 -99t-9.5 -79.5q0 -57 37 -57q38 0 74 56q3 3 7 0.5t3 -6.5q-11 -17 -24.5 -33.5t-28.5 -30t-29.5 -22t-26.5 -8.5q-28 0 -40.5 23t-12.5 55q0 50 15 119t47 149q-91 -171 -180 -258.5t-177 -87.5q-48 0 -72.5 32.5t-24.5 92.5q0 61 15.5 123t44.5 121.5
t70.5 114.5t94.5 102z" />
    <glyph glyph-name="Yacute" unicode="&#xdd;" horiz-adv-x="662" 
d="M688 734q5 3 18.5 -1.5t22.5 -8.5q2 -2 3 -4.5t-2 -4.5q-10 -7 -25.5 -15t-33 -15.5t-36 -14.5t-33.5 -12q-4 0 -4 4t3 7q20 12 44 28.5t43 36.5zM427 644q18 0 28.5 -9t13.5 -30t-3 -54.5t-22 -82.5q-20 -61 -36 -110.5t-24 -99.5q-6 -43 6 -65t51 -22q87 0 181 115
t207 342q19 16 34 16q11 0 8 -14q-103 -219 -190 -365t-168 -233.5t-161 -123.5t-169 -36q-42 0 -75 14t-55.5 38t-34 55.5t-11.5 66.5q0 38 13.5 74t40 64.5t66 48.5t92.5 26q5 -1 4.5 -5t-5.5 -9q-46 -6 -78.5 -21.5t-53.5 -38.5t-30.5 -52t-9.5 -62q0 -76 44 -120.5
t131 -44.5q64 0 122 22t114 74t112.5 137.5t118.5 211.5q-28 -46 -62.5 -85.5t-70.5 -69t-71.5 -46t-65.5 -16.5q-45 0 -63.5 26t-11.5 72q8 55 24.5 110t32.5 106q16 50 23 82t6 51t-8 26t-20 7q-12 0 -25 -6t-25 -15t-22.5 -20t-16.5 -22q-4 -4 -7.5 -0.5t-2.5 8.5
q7 11 20 26t30.5 28t36.5 22t38 9z" />
    <glyph glyph-name="Thorn" unicode="&#xde;" horiz-adv-x="745" 
d="M616 527q39 -2 70 -15.5t53 -35.5t34 -50t12 -59q0 -45 -15.5 -81.5t-46.5 -63t-76 -41t-104 -14.5q-32 0 -59 11q-57 -93 -128 -135.5t-153 -42.5q-38 0 -66.5 12.5t-48 32.5t-29 46.5t-9.5 54.5q0 19 5.5 39t15 37.5t23.5 31.5t31 22q10 4 6 -7q-29 -16 -43.5 -43
t-14.5 -58q0 -29 10.5 -54t30.5 -43.5t49 -29t67 -10.5q37 0 69.5 7.5t61 26t53 49t46.5 76.5q-17 12 -26 25q-2 3 0.5 6t5.5 1q6 -6 12.5 -10.5t13.5 -9.5q16 35 30.5 76.5t29.5 93.5q10 38 21 70t23 61q-77 -1 -120.5 -35t-60.5 -91q-3 -3 -6.5 -0.5t-3.5 10.5q9 26 25 50
t40.5 43t58 31t77.5 15q31 64 71 102.5t97 52.5q5 0 5 -4t-5 -6q-44 -13 -75.5 -48.5t-56.5 -95.5zM552 182q46 0 81.5 13.5t59.5 36.5t36 53.5t12 65.5q0 62 -34.5 102t-100.5 48q-7 -18 -13 -38t-12 -43q-18 -70 -41 -126.5t-49 -102.5q25 -9 61 -9z" />
    <glyph glyph-name="germandbls" unicode="&#xdf;" horiz-adv-x="304" 
d="M493 612q0 33 -18 51.5t-53 18.5q-48 0 -90.5 -26.5t-81 -82.5t-73 -144.5t-64.5 -212.5q-33 -136 -73 -224.5t-86 -141t-96.5 -73.5t-104.5 -21q-43 0 -60 18.5t-21 54.5q0 3 2.5 5t4.5 -1q8 -22 31 -36.5t70 -14.5q49 0 87.5 16.5t73 64t66.5 132t68 219.5
q33 126 76 220.5t92 157t103 93.5t109 31q36 0 57.5 -21t21.5 -56q0 -52 -24 -91t-60.5 -71t-78.5 -59.5t-78.5 -55.5t-60.5 -60t-24 -72q0 -23 10 -42t22 -37t22 -36.5t10 -38.5q0 -32 -22.5 -54t-68.5 -22q-31 0 -50.5 11t-19.5 23q0 9 11 27t25 29q2 2 5 -1t1 -6
q-8 -8 -12.5 -18.5t-2.5 -18.5q4 -17 16.5 -25.5t29.5 -8.5q26 0 40 14t14 36q0 19 -10 37t-22 36.5t-22 39.5t-10 46q0 40 23.5 71.5t59 59.5t77 55t77 57t59 66t23.5 82z" />
    <glyph glyph-name="agrave" unicode="&#xe0;" horiz-adv-x="294" 
d="M270 63q2 2 5 0t2 -6q-21 -29 -41.5 -43t-34.5 -14q-9 0 -14.5 9t-7 24.5t1 35t8.5 40.5q-27 -42 -57 -72.5t-58 -36.5q-18 0 -30.5 17.5t-12.5 54.5q0 33 13.5 65.5t36.5 59t53 42.5t63 16q18 0 31 -4t24 -12q6 5 16.5 9.5t19.5 4.5q5 0 3 -5q-23 -28 -39.5 -62
t-25.5 -66t-11.5 -56.5t3.5 -33.5q5 -7 18 -0.5t34 33.5zM96 34q11 0 28.5 15.5t36.5 40.5t37.5 56.5t32.5 63.5q-4 13 -18.5 21t-33.5 8q-22 0 -41.5 -11.5t-34.5 -32t-24 -48.5t-9 -62q0 -22 7.5 -36.5t18.5 -14.5zM275 325q2 -2 -0.5 -5t-7.5 -4q-25 8 -54 21t-49 26
q-6 2 0 8q9 8 23 12t17 2q14 -14 33.5 -30t37.5 -30z" />
    <glyph glyph-name="aacute" unicode="&#xe1;" horiz-adv-x="294" 
d="M270 63q2 2 5 0t2 -6q-21 -29 -41.5 -43t-34.5 -14q-9 0 -14.5 9t-7 24.5t1 35t8.5 40.5q-27 -42 -57 -72.5t-58 -36.5q-18 0 -30.5 17.5t-12.5 54.5q0 33 13.5 65.5t36.5 59t53 42.5t63 16q18 0 31 -4t24 -12q6 5 16.5 9.5t19.5 4.5q5 0 3 -5q-23 -28 -39.5 -62
t-25.5 -66t-11.5 -56.5t3.5 -33.5q5 -7 18 -0.5t34 33.5zM96 34q11 0 28.5 15.5t36.5 40.5t37.5 56.5t32.5 63.5q-4 13 -18.5 21t-33.5 8q-22 0 -41.5 -11.5t-34.5 -32t-24 -48.5t-9 -62q0 -22 7.5 -36.5t18.5 -14.5zM246 381q5 3 18.5 -1t22.5 -8q7 -4 1 -10q-9 -6 -23 -13
t-29 -13.5t-30.5 -12t-28.5 -9.5q-4 0 -4 3.5t4 7.5q13 8 34 23.5t35 32.5z" />
    <glyph glyph-name="acircumflex" unicode="&#xe2;" horiz-adv-x="294" 
d="M213 393q6 5 12 -1q11 -14 29.5 -29t37.5 -23q5 -5 -5 -10t-22 -3q-18 7 -30 14.5t-28 19.5q-12 -8 -28.5 -18t-32.5 -18q-11 0 -6 9q17 10 37.5 24.5t35.5 34.5zM270 63q2 2 5 0t2 -6q-21 -29 -41.5 -43t-34.5 -14q-9 0 -14.5 9t-7 24.5t1 35t8.5 40.5
q-27 -42 -57 -72.5t-58 -36.5q-18 0 -30.5 17.5t-12.5 54.5q0 33 13.5 65.5t36.5 59t53 42.5t63 16q18 0 31 -4t24 -12q6 5 16.5 9.5t19.5 4.5q5 0 3 -5q-23 -28 -39.5 -62t-25.5 -66t-11.5 -56.5t3.5 -33.5q5 -7 18 -0.5t34 33.5zM96 34q11 0 28.5 15.5t36.5 40.5
t37.5 56.5t32.5 63.5q-4 13 -18.5 21t-33.5 8q-22 0 -41.5 -11.5t-34.5 -32t-24 -48.5t-9 -62q0 -22 7.5 -36.5t18.5 -14.5z" />
    <glyph glyph-name="atilde" unicode="&#xe3;" horiz-adv-x="294" 
d="M120 332q12 14 25 24.5t24 13.5q8 2 15.5 -1t16 -7.5t19.5 -8.5t26 -4t25.5 7.5t19.5 20.5q3 2 6.5 0.5t2.5 -4.5q-11 -18 -27 -30.5t-44 -12.5q-13 0 -22.5 3.5t-17 7t-14 6.5t-12.5 3q-8 -1 -15.5 -7t-18.5 -17q-11 -2 -9 6zM270 63q2 2 5 0t2 -6q-21 -29 -41.5 -43
t-34.5 -14q-9 0 -14.5 9t-7 24.5t1 35t8.5 40.5q-27 -42 -57 -72.5t-58 -36.5q-18 0 -30.5 17.5t-12.5 54.5q0 33 13.5 65.5t36.5 59t53 42.5t63 16q18 0 31 -4t24 -12q6 5 16.5 9.5t19.5 4.5q5 0 3 -5q-23 -28 -39.5 -62t-25.5 -66t-11.5 -56.5t3.5 -33.5q5 -7 18 -0.5
t34 33.5zM96 34q11 0 28.5 15.5t36.5 40.5t37.5 56.5t32.5 63.5q-4 13 -18.5 21t-33.5 8q-22 0 -41.5 -11.5t-34.5 -32t-24 -48.5t-9 -62q0 -22 7.5 -36.5t18.5 -14.5z" />
    <glyph glyph-name="adieresis" unicode="&#xe4;" horiz-adv-x="284" 
d="M270 63q2 2 5 0t2 -6q-21 -29 -41.5 -43t-34.5 -14q-9 0 -14.5 9t-7 24.5t1 35t8.5 40.5q-27 -42 -57 -72.5t-58 -36.5q-18 0 -30.5 17.5t-12.5 54.5q0 33 13.5 65.5t36.5 59t53 42.5t63 16q18 0 31 -4t24 -12q6 5 16.5 9.5t19.5 4.5q5 0 3 -5q-23 -28 -39.5 -62
t-25.5 -66t-11.5 -56.5t3.5 -33.5q5 -7 18 -0.5t34 33.5zM96 34q11 0 28.5 15.5t36.5 40.5t37.5 56.5t32.5 63.5q-4 13 -18.5 21t-33.5 8q-22 0 -41.5 -11.5t-34.5 -32t-24 -48.5t-9 -62q0 -22 7.5 -36.5t18.5 -14.5zM160 319q-13 0 -13 19q0 11 11.5 26t28.5 15
q10 0 10 -14q0 -15 -11.5 -30.5t-25.5 -15.5zM245 319q-13 0 -13 19q0 11 11 26t28 15q10 0 10 -14q0 -15 -11 -30.5t-25 -15.5z" />
    <glyph glyph-name="aring" unicode="&#xe5;" horiz-adv-x="294" 
d="M213 375q-12 0 -18.5 -8t-6.5 -22q0 -11 5.5 -17.5t16.5 -6.5t18 8.5t7 21.5q0 24 -22 24zM200 310q-13 0 -20 8t-7 20q0 20 14 34.5t36 14.5q14 0 20.5 -8.5t6.5 -20.5q0 -19 -14 -33.5t-36 -14.5zM270 63q2 2 5 0t2 -6q-21 -29 -41.5 -43t-34.5 -14q-9 0 -14.5 9
t-7 24.5t1 35t8.5 40.5q-27 -42 -57 -72.5t-58 -36.5q-18 0 -30.5 17.5t-12.5 54.5q0 33 13.5 65.5t36.5 59t53 42.5t63 16q18 0 31 -4t24 -12q6 5 16.5 9.5t19.5 4.5q5 0 3 -5q-23 -28 -39.5 -62t-25.5 -66t-11.5 -56.5t3.5 -33.5q5 -7 18 -0.5t34 33.5zM96 34
q11 0 28.5 15.5t36.5 40.5t37.5 56.5t32.5 63.5q-4 13 -18.5 21t-33.5 8q-22 0 -41.5 -11.5t-34.5 -32t-24 -48.5t-9 -62q0 -22 7.5 -36.5t18.5 -14.5z" />
    <glyph glyph-name="ae" unicode="&#xe6;" horiz-adv-x="363" 
d="M363 211q0 -14 -11.5 -26t-30 -21.5t-43 -17.5t-51.5 -15q-3 -21 -3 -46t11.5 -42t31.5 -17t37 10t31 27q4 2 6 -1.5t1 -6.5q-17 -23 -42.5 -39.5t-53.5 -16.5q-27 0 -43 17t-16 50q0 38 15 76q-10 -22 -25 -45t-32 -42.5t-35.5 -34.5t-34.5 -20q-21 0 -32.5 16.5
t-11.5 52.5q0 31 12 64t33 60.5t49.5 45t61.5 17.5q31 0 46 -17q7 6 17 15t19 9q6 0 4 -4q-7 -9 -13.5 -19t-12.5 -23q16 17 33.5 27.5t37.5 10.5q19 0 32 -13.5t13 -30.5zM91 37q12 0 29.5 14t35 37.5t34 54t27.5 63.5q-5 13 -17 23t-29 10q-22 0 -41 -12.5t-33.5 -33.5
t-22.5 -49t-8 -59q0 -22 6 -35t19 -13zM297 229q-23 0 -41.5 -20t-26.5 -63q48 7 71 20.5t23 30.5q0 14 -7.5 23t-18.5 9z" />
    <glyph glyph-name="ccedilla" unicode="&#xe7;" horiz-adv-x="203" 
d="M179 78q3 2 6 -0.5t1 -7.5q-16 -20 -34 -35.5t-37 -26.5q-14 -8 -18.5 -20.5t-0.5 -23.5q10 -25 -5.5 -52.5t-54.5 -43.5q-3 0 -3.5 4t1.5 7q28 14 37 30t2 37q-5 15 1 31.5t23 24.5q-10 -2 -16 -2q-22 0 -36.5 15.5t-14.5 43.5q0 35 11 70.5t30 63.5t42.5 45.5
t49.5 17.5q20 0 32.5 -10t12.5 -24q0 -5 -3.5 -12t-8 -14t-9.5 -12.5t-9 -7.5q-6 -2 -6 5q8 20 0.5 35t-30.5 15q-16 0 -29.5 -11.5t-24 -32t-16.5 -48t-6 -59.5q0 -50 34 -50q20 0 39.5 12.5t39.5 35.5z" />
    <glyph glyph-name="egrave" unicode="&#xe8;" horiz-adv-x="206" 
d="M206 212q0 -14 -11 -26t-30 -21.5t-43.5 -17.5t-51.5 -15q-1 -11 -1.5 -22t-0.5 -24q0 -25 11 -42t31 -17t37.5 10t31.5 27q4 2 6 -1t0 -7q-17 -23 -42.5 -39.5t-53.5 -16.5q-26 0 -42.5 17t-16.5 50q0 30 11 63.5t29 61.5t41.5 46t49.5 18q19 0 32 -13.5t13 -30.5z
M140 230q-23 0 -41 -20t-26 -63q48 7 70.5 20.5t22.5 30.5q0 14 -7 23t-19 9zM229 325q2 -2 -0.5 -5t-7.5 -4q-25 8 -54 21t-49 26q-6 2 0 8q9 8 23 12t17 2q14 -14 33.5 -30t37.5 -30z" />
    <glyph glyph-name="eacute" unicode="&#xe9;" horiz-adv-x="206" 
d="M206 212q0 -14 -11 -26t-30 -21.5t-43.5 -17.5t-51.5 -15q-1 -11 -1.5 -22t-0.5 -24q0 -25 11 -42t31 -17t37.5 10t31.5 27q4 2 6 -1t0 -7q-17 -23 -42.5 -39.5t-53.5 -16.5q-26 0 -42.5 17t-16.5 50q0 30 11 63.5t29 61.5t41.5 46t49.5 18q19 0 32 -13.5t13 -30.5z
M140 230q-23 0 -41 -20t-26 -63q48 7 70.5 20.5t22.5 30.5q0 14 -7 23t-19 9zM203 381q5 3 18.5 -1t22.5 -8q7 -4 1 -10q-9 -6 -23 -13t-29 -13.5t-30.5 -12t-28.5 -9.5q-4 0 -4 3.5t4 7.5q13 8 34 23.5t35 32.5z" />
    <glyph glyph-name="ecircumflex" unicode="&#xea;" horiz-adv-x="206" 
d="M157 393q6 5 12 -1q11 -14 29.5 -29t37.5 -23q5 -5 -5 -10t-22 -3q-18 7 -30 14.5t-28 19.5q-12 -8 -28.5 -18t-32.5 -18q-11 0 -6 9q17 10 37.5 24.5t35.5 34.5zM206 212q0 -14 -11 -26t-30 -21.5t-43.5 -17.5t-51.5 -15q-1 -11 -1.5 -22t-0.5 -24q0 -25 11 -42t31 -17
t37.5 10t31.5 27q4 2 6 -1t0 -7q-17 -23 -42.5 -39.5t-53.5 -16.5q-26 0 -42.5 17t-16.5 50q0 30 11 63.5t29 61.5t41.5 46t49.5 18q19 0 32 -13.5t13 -30.5zM140 230q-23 0 -41 -20t-26 -63q48 7 70.5 20.5t22.5 30.5q0 14 -7 23t-19 9z" />
    <glyph glyph-name="edieresis" unicode="&#xeb;" horiz-adv-x="206" 
d="M206 212q0 -14 -11 -26t-30 -21.5t-43.5 -17.5t-51.5 -15q-1 -11 -1.5 -22t-0.5 -24q0 -25 11 -42t31 -17t37.5 10t31.5 27q4 2 6 -1t0 -7q-17 -23 -42.5 -39.5t-53.5 -16.5q-26 0 -42.5 17t-16.5 50q0 30 11 63.5t29 61.5t41.5 46t49.5 18q19 0 32 -13.5t13 -30.5z
M140 230q-23 0 -41 -20t-26 -63q48 7 70.5 20.5t22.5 30.5q0 14 -7 23t-19 9zM122 319q-13 0 -13 19q0 11 11.5 26t28.5 15q10 0 10 -14q0 -15 -11.5 -30.5t-25.5 -15.5zM207 319q-13 0 -13 19q0 11 11 26t28 15q10 0 10 -14q0 -15 -11 -30.5t-25 -15.5z" />
    <glyph glyph-name="igrave" unicode="&#xec;" horiz-adv-x="149" 
d="M52 186q-3 -2 -5.5 1.5t-0.5 6.5q14 14 38 32t48 30q8 0 8 -9q-13 -23 -25.5 -50t-22 -53.5t-15.5 -51t-6 -40.5q0 -21 14 -21q11 0 21.5 9.5t24.5 25.5q2 2 5 -1t1 -7q-18 -22 -38.5 -40t-38.5 -18q-26 0 -26 33q0 19 6.5 45.5t16.5 53.5t22.5 52t24.5 43
q-11 -8 -27.5 -20.5t-24.5 -20.5zM189 325q2 -2 -0.5 -5t-7.5 -4q-25 8 -54 21t-49 26q-6 2 0 8q9 8 23 12t17 2q14 -14 33.5 -30t37.5 -30z" />
    <glyph glyph-name="iacute" unicode="&#xed;" horiz-adv-x="149" 
d="M52 186q-3 -2 -5.5 1.5t-0.5 6.5q14 14 38 32t48 30q8 0 8 -9q-13 -23 -25.5 -50t-22 -53.5t-15.5 -51t-6 -40.5q0 -21 14 -21q11 0 21.5 9.5t24.5 25.5q2 2 5 -1t1 -7q-18 -22 -38.5 -40t-38.5 -18q-26 0 -26 33q0 19 6.5 45.5t16.5 53.5t22.5 52t24.5 43
q-11 -8 -27.5 -20.5t-24.5 -20.5zM179 381q5 3 18.5 -1t22.5 -8q7 -4 1 -10q-9 -6 -23 -13t-29 -13.5t-30.5 -12t-28.5 -9.5q-4 0 -4 3.5t4 7.5q13 8 34 23.5t35 32.5z" />
    <glyph glyph-name="icircumflex" unicode="&#xee;" horiz-adv-x="149" 
d="M133 393q6 5 12 -1q11 -14 29.5 -29t37.5 -23q5 -5 -5 -10t-22 -3q-18 7 -30 14.5t-28 19.5q-12 -8 -28.5 -18t-32.5 -18q-11 0 -6 9q17 10 37.5 24.5t35.5 34.5zM52 186q-3 -2 -5.5 1.5t-0.5 6.5q14 14 38 32t48 30q8 0 8 -9q-13 -23 -25.5 -50t-22 -53.5t-15.5 -51
t-6 -40.5q0 -21 14 -21q11 0 21.5 9.5t24.5 25.5q2 2 5 -1t1 -7q-18 -22 -38.5 -40t-38.5 -18q-26 0 -26 33q0 19 6.5 45.5t16.5 53.5t22.5 52t24.5 43q-11 -8 -27.5 -20.5t-24.5 -20.5z" />
    <glyph glyph-name="idieresis" unicode="&#xef;" horiz-adv-x="149" 
d="M52 186q-3 -2 -5.5 1.5t-0.5 6.5q14 14 38 32t48 30q8 0 8 -9q-13 -23 -25.5 -50t-22 -53.5t-15.5 -51t-6 -40.5q0 -21 14 -21q11 0 21.5 9.5t24.5 25.5q2 2 5 -1t1 -7q-18 -22 -38.5 -40t-38.5 -18q-26 0 -26 33q0 19 6.5 45.5t16.5 53.5t22.5 52t24.5 43
q-11 -8 -27.5 -20.5t-24.5 -20.5zM101 319q-13 0 -13 19q0 11 11.5 26t28.5 15q10 0 10 -14q0 -15 -11.5 -30.5t-25.5 -15.5zM186 319q-13 0 -13 19q0 11 11 26t28 15q10 0 10 -14q0 -15 -11 -30.5t-25 -15.5z" />
    <glyph glyph-name="eth" unicode="&#xf0;" horiz-adv-x="234" 
d="M148 471q39 -66 57 -128.5t18 -132.5q0 -39 -13 -76t-33 -66.5t-44.5 -48t-47.5 -19.5q-26 0 -39 19.5t-13 47.5q0 41 14 79.5t37 66t52 38.5t59 -2q-6 56 -23.5 104t-49.5 99q-42 -30 -77 -62q-5 0 -3 8.5t10 18.5q11 9 27 21t35 25q-10 14 -21 29t-24 30
q-30 36 -26.5 78t40.5 74q4 1 6 -2.5t0 -7.5q-41 -52 7 -116q13 -17 24 -33.5t22 -32.5q16 10 31.5 19.5t30.5 17.5q2 0 3.5 -3t-3.5 -8q-14 -8 -28 -17.5t-28 -19.5zM107 34q15 0 31 12.5t29 33.5t21.5 49t8.5 58q0 28 -9.5 40.5t-26.5 12.5q-41 0 -67 -40.5t-26 -107.5
q0 -23 9.5 -40.5t29.5 -17.5z" />
    <glyph glyph-name="ntilde" unicode="&#xf1;" horiz-adv-x="291" 
d="M120 332q12 14 25 24.5t24 13.5q8 2 15.5 -1t16 -7.5t19.5 -8.5t26 -4t25.5 7.5t19.5 20.5q3 2 6.5 0.5t2.5 -4.5q-11 -18 -27 -30.5t-44 -12.5q-13 0 -22.5 3.5t-17 7t-14 6.5t-12.5 3q-8 -1 -15.5 -7t-18.5 -17q-11 -2 -9 6zM282 64q3 2 6 0t2 -6q-17 -23 -37.5 -40.5
t-38.5 -17.5q-31 0 -31 40q0 34 12 75.5t33 83.5q4 7 4 14q0 11 -10 11q-37 0 -81.5 -51t-82.5 -160q-2 -6 -11 -9.5t-17 -3.5q-11 0 -8 9q17 43 35.5 97t32.5 107q4 19 -7 19q-10 0 -20 -10t-21 -26q-2 -2 -4.5 1t-1.5 6q11 17 30 35t41 18q25 0 17 -34q-4 -22 -11 -46.5
t-15 -48.5q14 27 33 51t39.5 41t41 27t38.5 10q12 0 18.5 -6t6.5 -14q0 -13 -6 -26q-21 -38 -35.5 -79.5t-14.5 -76.5q0 -25 16 -25q21 0 47 35z" />
    <glyph glyph-name="ograve" unicode="&#xf2;" horiz-adv-x="225" 
d="M162 256q27 0 40 -18t13 -47q0 -34 -13 -68t-33 -61.5t-43.5 -44.5t-43.5 -17q-24 0 -38 19t-14 54q0 28 11 60t29.5 59.5t42 45.5t49.5 18zM102 31q15 0 29.5 10.5t25.5 28t17.5 40.5t6.5 48q0 30 -10 47.5t-33 17.5q-15 0 -29 -10.5t-24.5 -28t-16.5 -41t-6 -49.5
q0 -63 40 -63zM244 325q2 -2 -0.5 -5t-7.5 -4q-25 8 -54 21t-49 26q-6 2 0 8q9 8 23 12t17 2q14 -14 33.5 -30t37.5 -30z" />
    <glyph glyph-name="oacute" unicode="&#xf3;" horiz-adv-x="225" 
d="M162 256q27 0 40 -18t13 -47q0 -34 -13 -68t-33 -61.5t-43.5 -44.5t-43.5 -17q-24 0 -38 19t-14 54q0 28 11 60t29.5 59.5t42 45.5t49.5 18zM102 31q15 0 29.5 10.5t25.5 28t17.5 40.5t6.5 48q0 30 -10 47.5t-33 17.5q-15 0 -29 -10.5t-24.5 -28t-16.5 -41t-6 -49.5
q0 -63 40 -63zM209 381q5 3 18.5 -1t22.5 -8q7 -4 1 -10q-9 -6 -23 -13t-29 -13.5t-30.5 -12t-28.5 -9.5q-4 0 -4 3.5t4 7.5q13 8 34 23.5t35 32.5z" />
    <glyph glyph-name="ocircumflex" unicode="&#xf4;" horiz-adv-x="225" 
d="M186 393q6 5 12 -1q11 -14 29.5 -29t37.5 -23q5 -5 -5 -10t-22 -3q-18 7 -30 14.5t-28 19.5q-12 -8 -28.5 -18t-32.5 -18q-11 0 -6 9q17 10 37.5 24.5t35.5 34.5zM162 256q27 0 40 -18t13 -47q0 -34 -13 -68t-33 -61.5t-43.5 -44.5t-43.5 -17q-24 0 -38 19t-14 54
q0 28 11 60t29.5 59.5t42 45.5t49.5 18zM102 31q15 0 29.5 10.5t25.5 28t17.5 40.5t6.5 48q0 30 -10 47.5t-33 17.5q-15 0 -29 -10.5t-24.5 -28t-16.5 -41t-6 -49.5q0 -63 40 -63z" />
    <glyph glyph-name="otilde" unicode="&#xf5;" horiz-adv-x="225" 
d="M92 332q12 14 25 24.5t24 13.5q8 2 15.5 -1t16 -7.5t19.5 -8.5t26 -4t25.5 7.5t19.5 20.5q3 2 6.5 0.5t2.5 -4.5q-11 -18 -27 -30.5t-44 -12.5q-13 0 -22.5 3.5t-17 7t-14 6.5t-12.5 3q-8 -1 -15.5 -7t-18.5 -17q-11 -2 -9 6zM162 256q27 0 40 -18t13 -47q0 -34 -13 -68
t-33 -61.5t-43.5 -44.5t-43.5 -17q-24 0 -38 19t-14 54q0 28 11 60t29.5 59.5t42 45.5t49.5 18zM102 31q15 0 29.5 10.5t25.5 28t17.5 40.5t6.5 48q0 30 -10 47.5t-33 17.5q-15 0 -29 -10.5t-24.5 -28t-16.5 -41t-6 -49.5q0 -63 40 -63z" />
    <glyph glyph-name="odieresis" unicode="&#xf6;" horiz-adv-x="225" 
d="M162 256q27 0 40 -18t13 -47q0 -34 -13 -68t-33 -61.5t-43.5 -44.5t-43.5 -17q-24 0 -38 19t-14 54q0 28 11 60t29.5 59.5t42 45.5t49.5 18zM102 31q15 0 29.5 10.5t25.5 28t17.5 40.5t6.5 48q0 30 -10 47.5t-33 17.5q-15 0 -29 -10.5t-24.5 -28t-16.5 -41t-6 -49.5
q0 -63 40 -63zM122 319q-13 0 -13 19q0 11 11.5 26t28.5 15q10 0 10 -14q0 -15 -11.5 -30.5t-25.5 -15.5zM207 319q-13 0 -13 19q0 11 11 26t28 15q10 0 10 -14q0 -15 -11 -30.5t-25 -15.5z" />
    <glyph glyph-name="divide" unicode="&#xf7;" horiz-adv-x="301" 
d="M84 155q15 0 37 0.5t47 0.5t51 -0.5t50 -0.5q8 -2 1 -10.5t-18 -9.5q-46 0 -97 -0.5t-99 -1.5q-6 2 -1 10.5t29 11.5zM203 207q0 -8 -7 -15t-13 -7q-5 0 -10.5 6.5t-5.5 11.5q0 7 6 14.5t13 7.5q6 0 11.5 -6.5t5.5 -11.5zM161 86q0 -8 -7 -15t-13 -7q-5 0 -10.5 6.5
t-5.5 11.5q0 7 6.5 15t13.5 8q5 0 10.5 -7t5.5 -12z" />
    <glyph glyph-name="oslash" unicode="&#xf8;" horiz-adv-x="225" 
d="M226 285q6 5 12 3.5t3 -8.5q-10 -14 -19 -25t-17 -22q10 -16 10 -42q0 -34 -13 -68t-33 -61.5t-43 -44.5t-44 -17t-34 15q-5 -8 -10.5 -16t-11.5 -16q-6 -7 -12 -5t-4 8q8 12 15 22l14 20q-9 16 -9 45q0 28 11 60t29.5 59.5t42 45.5t49.5 18q20 0 33 -11q14 17 31 40z
M63 94q0 -8 0.5 -15.5t1.5 -13.5q14 20 25.5 36l23 32t24.5 34t31 42q-11 14 -30 14q-15 0 -29 -10.5t-24.5 -28t-16.5 -41t-6 -49.5zM181 158q0 19 -5 36q-15 -20 -28 -37t-25 -34t-24.5 -35t-27.5 -39q10 -18 31 -18q16 0 30 10.5t25 28t17.5 40.5t6.5 48z" />
    <glyph glyph-name="ugrave" unicode="&#xf9;" horiz-adv-x="299" 
d="M65 0q-13 0 -23 12.5t-10 32.5q0 16 4.5 37.5t12 45.5t18.5 48t25 45q-11 -8 -23 -17.5t-20 -17.5q-3 -2 -5 1.5t-1 6.5q7 7 18 16t23.5 18t26 17.5t25.5 14.5q4 1 6.5 -2t1.5 -7q-32 -41 -51.5 -90.5t-19.5 -94.5q0 -29 17 -29q13 0 32.5 17.5t40.5 46t42.5 64.5
t39.5 73q3 7 11.5 12.5t18.5 5.5q13 0 9 -8q-14 -26 -25 -48.5t-18 -44.5t-10.5 -45t-3.5 -50q0 -32 18 -32q8 0 18 8.5t20 22.5q3 2 6 0t1 -7q-14 -21 -32.5 -36.5t-35.5 -15.5q-13 0 -22 13t-9 35q0 24 4.5 51.5t14.5 55.5q-19 -37 -40 -65.5t-40.5 -48.5t-36.5 -30.5
t-28 -10.5zM280 325q2 -2 -0.5 -5t-7.5 -4q-25 8 -54 21t-49 26q-6 2 0 8q9 8 23 12t17 2q14 -14 33.5 -30t37.5 -30z" />
    <glyph glyph-name="uacute" unicode="&#xfa;" horiz-adv-x="299" 
d="M65 0q-13 0 -23 12.5t-10 32.5q0 16 4.5 37.5t12 45.5t18.5 48t25 45q-11 -8 -23 -17.5t-20 -17.5q-3 -2 -5 1.5t-1 6.5q7 7 18 16t23.5 18t26 17.5t25.5 14.5q4 1 6.5 -2t1.5 -7q-32 -41 -51.5 -90.5t-19.5 -94.5q0 -29 17 -29q13 0 32.5 17.5t40.5 46t42.5 64.5
t39.5 73q3 7 11.5 12.5t18.5 5.5q13 0 9 -8q-14 -26 -25 -48.5t-18 -44.5t-10.5 -45t-3.5 -50q0 -32 18 -32q8 0 18 8.5t20 22.5q3 2 6 0t1 -7q-14 -21 -32.5 -36.5t-35.5 -15.5q-13 0 -22 13t-9 35q0 24 4.5 51.5t14.5 55.5q-19 -37 -40 -65.5t-40.5 -48.5t-36.5 -30.5
t-28 -10.5zM255 381q5 3 18.5 -1t22.5 -8q7 -4 1 -10q-9 -6 -23 -13t-29 -13.5t-30.5 -12t-28.5 -9.5q-4 0 -4 3.5t4 7.5q13 8 34 23.5t35 32.5z" />
    <glyph glyph-name="ucircumflex" unicode="&#xfb;" horiz-adv-x="299" 
d="M217 393q6 5 12 -1q11 -14 29.5 -29t37.5 -23q5 -5 -5 -10t-22 -3q-18 7 -30 14.5t-28 19.5q-12 -8 -28.5 -18t-32.5 -18q-11 0 -6 9q17 10 37.5 24.5t35.5 34.5zM65 0q-13 0 -23 12.5t-10 32.5q0 16 4.5 37.5t12 45.5t18.5 48t25 45q-11 -8 -23 -17.5t-20 -17.5
q-3 -2 -5 1.5t-1 6.5q7 7 18 16t23.5 18t26 17.5t25.5 14.5q4 1 6.5 -2t1.5 -7q-32 -41 -51.5 -90.5t-19.5 -94.5q0 -29 17 -29q13 0 32.5 17.5t40.5 46t42.5 64.5t39.5 73q3 7 11.5 12.5t18.5 5.5q13 0 9 -8q-14 -26 -25 -48.5t-18 -44.5t-10.5 -45t-3.5 -50q0 -32 18 -32
q8 0 18 8.5t20 22.5q3 2 6 0t1 -7q-14 -21 -32.5 -36.5t-35.5 -15.5q-13 0 -22 13t-9 35q0 24 4.5 51.5t14.5 55.5q-19 -37 -40 -65.5t-40.5 -48.5t-36.5 -30.5t-28 -10.5z" />
    <glyph glyph-name="udieresis" unicode="&#xfc;" horiz-adv-x="299" 
d="M65 0q-13 0 -23 12.5t-10 32.5q0 16 4.5 37.5t12 45.5t18.5 48t25 45q-11 -8 -23 -17.5t-20 -17.5q-3 -2 -5 1.5t-1 6.5q7 7 18 16t23.5 18t26 17.5t25.5 14.5q4 1 6.5 -2t1.5 -7q-32 -41 -51.5 -90.5t-19.5 -94.5q0 -29 17 -29q13 0 32.5 17.5t40.5 46t42.5 64.5
t39.5 73q3 7 11.5 12.5t18.5 5.5q13 0 9 -8q-14 -26 -25 -48.5t-18 -44.5t-10.5 -45t-3.5 -50q0 -32 18 -32q8 0 18 8.5t20 22.5q3 2 6 0t1 -7q-14 -21 -32.5 -36.5t-35.5 -15.5q-13 0 -22 13t-9 35q0 24 4.5 51.5t14.5 55.5q-19 -37 -40 -65.5t-40.5 -48.5t-36.5 -30.5
t-28 -10.5zM164 319q-13 0 -13 19q0 11 11.5 26t28.5 15q10 0 10 -14q0 -15 -11.5 -30.5t-25.5 -15.5zM249 319q-13 0 -13 19q0 11 11 26t28 15q10 0 10 -14q0 -15 -11 -30.5t-25 -15.5z" />
    <glyph glyph-name="yacute" unicode="&#xfd;" horiz-adv-x="280" 
d="M261 381q5 3 18.5 -1t22.5 -8q7 -4 1 -10q-9 -6 -23 -13t-29 -13.5t-30.5 -12t-28.5 -9.5q-4 0 -4 3.5t4 7.5q13 8 34 23.5t35 32.5zM243 232q1 3 5 6.5t9.5 7.5t11 6.5t8.5 2.5q9 0 7 -7q-22 -62 -43 -120.5t-45 -121.5q-27 -70 -57.5 -117.5t-64 -77t-69.5 -42.5
t-74 -13q-53 0 -80.5 26.5t-27.5 65.5q0 18 9.5 38t29.5 35q3 2 5.5 -2t0.5 -6q-16 -19 -16 -43q0 -42 24 -68t73 -26q35 0 64.5 11t56 39t51 75t50.5 118q11 33 21.5 61t21.5 58q-38 -60 -79.5 -98t-73.5 -41q-13 0 -19 12t-6 33q0 18 4 39.5t11.5 44.5t19 46.5t25.5 45.5
q-11 -8 -23 -17.5t-20 -17.5q-3 -2 -5.5 1.5t-0.5 6.5q14 14 38 32t47 30q10 0 8 -9q-15 -20 -27.5 -44.5t-21.5 -49t-14 -48.5t-5 -43q0 -28 19 -28q16 0 38.5 21.5t45 52t41 65t27.5 60.5z" />
    <glyph glyph-name="thorn" unicode="&#xfe;" horiz-adv-x="261" 
d="M207 255q20 0 32 -18t12 -46q0 -39 -13.5 -73.5t-37 -61t-55.5 -42t-70 -15.5q-17 0 -28 7q-17 -50 -31 -106.5t-14 -105.5q0 -22 22 -19q17 3 30 12q4 1 4.5 -3.5t-1.5 -7.5q-12 -7 -33 -14t-40 -7q-18 0 -18 16q0 42 17 108.5t43 145.5q-5 9 -8 17q-1 4 4.5 5.5
t12.5 4.5q18 50 37.5 102t39.5 101.5t39.5 95t36.5 83.5q6 14 3 19t-10 2q-7 -4 -15.5 -11.5t-16.5 -16.5q-3 -1 -5.5 2t-0.5 6q6 7 15.5 16t20.5 17t21 14t18 6t11 -8t-3 -22q-28 -65 -60.5 -142.5t-61.5 -148.5q28 42 55 65t48 23zM100 19q25 0 46.5 11t37 30.5t24 46
t8.5 58.5q0 24 -9 39.5t-26 15.5q-23 0 -55.5 -41t-58.5 -116q-2 -5 -3.5 -10t-3.5 -10q5 -11 14.5 -17.5t25.5 -6.5z" />
    <glyph glyph-name="ydieresis" unicode="&#xff;" horiz-adv-x="280" 
d="M162 319q-13 0 -13 19q0 11 11.5 26t28.5 15q10 0 10 -14q0 -15 -11.5 -30.5t-25.5 -15.5zM247 319q-13 0 -13 19q0 11 11 26t28 15q10 0 10 -14q0 -15 -11 -30.5t-25 -15.5zM243 232q1 3 5 6.5t9.5 7.5t11 6.5t8.5 2.5q9 0 7 -7q-22 -62 -43 -120.5t-45 -121.5
q-27 -70 -57.5 -117.5t-64 -77t-69.5 -42.5t-74 -13q-53 0 -80.5 26.5t-27.5 65.5q0 18 9.5 38t29.5 35q3 2 5.5 -2t0.5 -6q-16 -19 -16 -43q0 -42 24 -68t73 -26q35 0 64.5 11t56 39t51 75t50.5 118q11 33 21.5 61t21.5 58q-38 -60 -79.5 -98t-73.5 -41q-13 0 -19 12t-6 33
q0 18 4 39.5t11.5 44.5t19 46.5t25.5 45.5q-11 -8 -23 -17.5t-20 -17.5q-3 -2 -5.5 1.5t-0.5 6.5q14 14 38 32t47 30q10 0 8 -9q-15 -20 -27.5 -44.5t-21.5 -49t-14 -48.5t-5 -43q0 -28 19 -28q16 0 38.5 21.5t45 52t41 65t27.5 60.5z" />
    <glyph glyph-name="Amacron" unicode="&#x100;" horiz-adv-x="639" 
d="M178 842h297v-71h-297v71zM1004 585q2 -2 2 -5.5t-5 -9.5q-33 -36 -59 -82.5t-44.5 -101.5t-28.5 -116t-10 -125q0 -48 12 -74.5t41 -26.5q39 0 76 56q3 2 6 0t1 -6q-10 -17 -23.5 -33.5t-28.5 -30t-29.5 -22t-26.5 -8.5q-33 0 -50.5 33.5t-17.5 85.5q0 80 18 163
q-47 0 -92.5 -1t-89.5 -3q-33 -35 -63.5 -66t-59.5 -57q-80 -73 -164.5 -114t-185.5 -41q-51 0 -82.5 24.5t-43 61.5t-2 81.5t42.5 83.5q3 2 7 -0.5t3 -9.5q-24 -26 -28.5 -60t10.5 -65t51 -52t94 -21q76 0 153.5 36t146.5 101q22 20 45.5 44.5t49.5 52.5q-69 -5 -124 -12
q-5 1 -2 5t9.5 8.5t15 8t16.5 4.5q12 1 39.5 1.5t62.5 1.5q57 60 127.5 129t163.5 142q-67 22 -138.5 36.5t-137.5 14.5q-75 0 -124.5 -43.5t-61.5 -132.5q-2 -5 -5.5 -4t-4.5 6q12 98 73 150t158 52q41 0 83 -5.5t82 -14t76.5 -19t66.5 -20.5zM840 295q17 73 47 142.5
t72 126.5q-88 -71 -158 -139.5t-130 -130.5q48 1 95 1h74z" />
    <glyph glyph-name="amacron" unicode="&#x101;" horiz-adv-x="561" 
d="M143 677h297v-71h-297v71zM270 63q2 2 5 0t2 -6q-21 -29 -41.5 -43t-34.5 -14q-9 0 -14.5 9t-7 24.5t1 35t8.5 40.5q-27 -42 -57 -72.5t-58 -36.5q-18 0 -30.5 17.5t-12.5 54.5q0 33 13.5 65.5t36.5 59t53 42.5t63 16q18 0 31 -4t24 -12q6 5 16.5 9.5t19.5 4.5q5 0 3 -5
q-23 -28 -39.5 -62t-25.5 -66t-11.5 -56.5t3.5 -33.5q5 -7 18 -0.5t34 33.5zM96 34q11 0 28.5 15.5t36.5 40.5t37.5 56.5t32.5 63.5q-4 13 -18.5 21t-33.5 8q-22 0 -41.5 -11.5t-34.5 -32t-24 -48.5t-9 -62q0 -22 7.5 -36.5t18.5 -14.5z" />
    <glyph glyph-name="Abreve" unicode="&#x102;" horiz-adv-x="639" 
d="M111 493q-27 0 -45 12.5t-22 34.5q0 8 8.5 15.5t12.5 2.5q5 -22 19 -33.5t40 -11.5t41.5 12t25.5 34q3 3 6.5 1.5t3.5 -6.5q-11 -26 -34 -43.5t-56 -17.5zM1004 585q2 -2 2 -5.5t-5 -9.5q-33 -36 -59 -82.5t-44.5 -101.5t-28.5 -116t-10 -125q0 -48 12 -74.5t41 -26.5
q39 0 76 56q3 2 6 0t1 -6q-10 -17 -23.5 -33.5t-28.5 -30t-29.5 -22t-26.5 -8.5q-33 0 -50.5 33.5t-17.5 85.5q0 80 18 163q-47 0 -92.5 -1t-89.5 -3q-33 -35 -63.5 -66t-59.5 -57q-80 -73 -164.5 -114t-185.5 -41q-51 0 -82.5 24.5t-43 61.5t-2 81.5t42.5 83.5q3 2 7 -0.5
t3 -9.5q-24 -26 -28.5 -60t10.5 -65t51 -52t94 -21q76 0 153.5 36t146.5 101q22 20 45.5 44.5t49.5 52.5q-69 -5 -124 -12q-5 1 -2 5t9.5 8.5t15 8t16.5 4.5q12 1 39.5 1.5t62.5 1.5q57 60 127.5 129t163.5 142q-67 22 -138.5 36.5t-137.5 14.5q-75 0 -124.5 -43.5
t-61.5 -132.5q-2 -5 -5.5 -4t-4.5 6q12 98 73 150t158 52q41 0 83 -5.5t82 -14t76.5 -19t66.5 -20.5zM840 295q17 73 47 142.5t72 126.5q-88 -71 -158 -139.5t-130 -130.5q48 1 95 1h74z" />
    <glyph glyph-name="abreve" unicode="&#x103;" horiz-adv-x="561" 
d="M76 328q-27 0 -45 12.5t-22 34.5q0 8 8.5 15.5t12.5 2.5q5 -22 19 -33.5t40 -11.5t41.5 12t25.5 34q3 3 6.5 1.5t3.5 -6.5q-11 -26 -34 -43.5t-56 -17.5zM270 63q2 2 5 0t2 -6q-21 -29 -41.5 -43t-34.5 -14q-9 0 -14.5 9t-7 24.5t1 35t8.5 40.5q-27 -42 -57 -72.5
t-58 -36.5q-18 0 -30.5 17.5t-12.5 54.5q0 33 13.5 65.5t36.5 59t53 42.5t63 16q18 0 31 -4t24 -12q6 5 16.5 9.5t19.5 4.5q5 0 3 -5q-23 -28 -39.5 -62t-25.5 -66t-11.5 -56.5t3.5 -33.5q5 -7 18 -0.5t34 33.5zM96 34q11 0 28.5 15.5t36.5 40.5t37.5 56.5t32.5 63.5
q-4 13 -18.5 21t-33.5 8q-22 0 -41.5 -11.5t-34.5 -32t-24 -48.5t-9 -62q0 -22 7.5 -36.5t18.5 -14.5z" />
    <glyph glyph-name="Aogonek" unicode="&#x104;" horiz-adv-x="639" 
d="M544 4q-20 -11 -34.5 -28t-14.5 -38q0 -13 5.5 -20.5t20.5 -7.5q16 0 28 9q3 1 5 -2t0 -6q-18 -18 -44 -18q-39 0 -39 35q0 21 17 44.5t49 37.5q11 2 7 -6zM1004 585q2 -2 2 -5.5t-5 -9.5q-33 -36 -59 -82.5t-44.5 -101.5t-28.5 -116t-10 -125q0 -48 12 -74.5t41 -26.5
q39 0 76 56q3 2 6 0t1 -6q-10 -17 -23.5 -33.5t-28.5 -30t-29.5 -22t-26.5 -8.5q-33 0 -50.5 33.5t-17.5 85.5q0 80 18 163q-47 0 -92.5 -1t-89.5 -3q-33 -35 -63.5 -66t-59.5 -57q-80 -73 -164.5 -114t-185.5 -41q-51 0 -82.5 24.5t-43 61.5t-2 81.5t42.5 83.5q3 2 7 -0.5
t3 -9.5q-24 -26 -28.5 -60t10.5 -65t51 -52t94 -21q76 0 153.5 36t146.5 101q22 20 45.5 44.5t49.5 52.5q-69 -5 -124 -12q-5 1 -2 5t9.5 8.5t15 8t16.5 4.5q12 1 39.5 1.5t62.5 1.5q57 60 127.5 129t163.5 142q-67 22 -138.5 36.5t-137.5 14.5q-75 0 -124.5 -43.5
t-61.5 -132.5q-2 -5 -5.5 -4t-4.5 6q12 98 73 150t158 52q41 0 83 -5.5t82 -14t76.5 -19t66.5 -20.5zM840 295q17 73 47 142.5t72 126.5q-88 -71 -158 -139.5t-130 -130.5q48 1 95 1h74z" />
    <glyph glyph-name="aogonek" unicode="&#x105;" horiz-adv-x="561" 
d="M414 4q-20 -11 -34.5 -28t-14.5 -38q0 -13 5.5 -20.5t20.5 -7.5q16 0 28 9q3 1 5 -2t0 -6q-18 -18 -44 -18q-39 0 -39 35q0 21 17 44.5t49 37.5q11 2 7 -6zM270 63q2 2 5 0t2 -6q-21 -29 -41.5 -43t-34.5 -14q-9 0 -14.5 9t-7 24.5t1 35t8.5 40.5q-27 -42 -57 -72.5
t-58 -36.5q-18 0 -30.5 17.5t-12.5 54.5q0 33 13.5 65.5t36.5 59t53 42.5t63 16q18 0 31 -4t24 -12q6 5 16.5 9.5t19.5 4.5q5 0 3 -5q-23 -28 -39.5 -62t-25.5 -66t-11.5 -56.5t3.5 -33.5q5 -7 18 -0.5t34 33.5zM96 34q11 0 28.5 15.5t36.5 40.5t37.5 56.5t32.5 63.5
q-4 13 -18.5 21t-33.5 8q-22 0 -41.5 -11.5t-34.5 -32t-24 -48.5t-9 -62q0 -22 7.5 -36.5t18.5 -14.5z" />
    <glyph glyph-name="Cacute" unicode="&#x106;" horiz-adv-x="631" 
d="M466 644q36 0 66 -3.5t51.5 -10.5t34 -16.5t12.5 -21.5q0 -8 -3.5 -19.5t-8.5 -23.5t-11.5 -24t-12.5 -20q-3 -2 -6.5 0.5t-1.5 6.5q21 37 9 57q-14 23 -56 39.5t-97 16.5q-72 0 -131 -25.5t-101.5 -72t-66 -110.5t-23.5 -141q0 -56 15 -103.5t44 -82t71 -54t96 -19.5
q72 0 120 44.5t68 118.5q2 5 6.5 4t4.5 -6q-4 -21 -12 -46.5t-17 -48t-17.5 -39t-14.5 -18.5q-32 -12 -71 -19t-83 -7q-61 0 -109.5 18.5t-82 51.5t-51.5 78t-18 97q0 80 29 152.5t81.5 127t125.5 87t161 32.5zM222 546q5 3 18.5 -1t22.5 -8q7 -4 1 -10q-9 -6 -23 -13
t-29 -13.5t-30.5 -12t-28.5 -9.5q-4 0 -4 3.5t4 7.5q13 8 34 23.5t35 32.5z" />
    <glyph glyph-name="cacute" unicode="&#x107;" horiz-adv-x="479" 
d="M178 175q-5 0 -5 5q8 20 0.5 35t-30.5 15q-16 0 -30 -11.5t-24 -32t-16 -48t-6 -59.5q0 -49 34 -49q39 0 78 47q4 2 7 -0.5t1 -7.5q-23 -29 -51 -49.5t-55 -20.5q-22 0 -36.5 16t-14.5 44q0 35 11.5 70t30 63t42.5 45.5t49 17.5q21 0 33 -10t12 -24q0 -5 -3 -12t-7.5 -14
t-10 -12.5t-9.5 -7.5zM128 381q5 3 18.5 -1t22.5 -8q7 -4 1 -10q-9 -6 -23 -13t-29 -13.5t-30.5 -12t-28.5 -9.5q-4 0 -4 3.5t4 7.5q13 8 34 23.5t35 32.5z" />
    <glyph glyph-name="Ccircumflex" unicode="&#x108;" horiz-adv-x="631" 
d="M188 558q6 5 12 -1q11 -14 29.5 -29t37.5 -23q5 -5 -5 -10t-22 -3q-18 7 -30 14.5t-28 19.5q-12 -8 -28.5 -18t-32.5 -18q-11 0 -6 9q17 10 37.5 24.5t35.5 34.5zM466 644q36 0 66 -3.5t51.5 -10.5t34 -16.5t12.5 -21.5q0 -8 -3.5 -19.5t-8.5 -23.5t-11.5 -24t-12.5 -20
q-3 -2 -6.5 0.5t-1.5 6.5q21 37 9 57q-14 23 -56 39.5t-97 16.5q-72 0 -131 -25.5t-101.5 -72t-66 -110.5t-23.5 -141q0 -56 15 -103.5t44 -82t71 -54t96 -19.5q72 0 120 44.5t68 118.5q2 5 6.5 4t4.5 -6q-4 -21 -12 -46.5t-17 -48t-17.5 -39t-14.5 -18.5q-32 -12 -71 -19
t-83 -7q-61 0 -109.5 18.5t-82 51.5t-51.5 78t-18 97q0 80 29 152.5t81.5 127t125.5 87t161 32.5z" />
    <glyph glyph-name="ccircumflex" unicode="&#x109;" horiz-adv-x="479" 
d="M86 393q6 5 12 -1q11 -14 29.5 -29t37.5 -23q5 -5 -5 -10t-22 -3q-18 7 -30 14.5t-28 19.5q-12 -8 -28.5 -18t-32.5 -18q-11 0 -6 9q17 10 37.5 24.5t35.5 34.5zM178 175q-5 0 -5 5q8 20 0.5 35t-30.5 15q-16 0 -30 -11.5t-24 -32t-16 -48t-6 -59.5q0 -49 34 -49
q39 0 78 47q4 2 7 -0.5t1 -7.5q-23 -29 -51 -49.5t-55 -20.5q-22 0 -36.5 16t-14.5 44q0 35 11.5 70t30 63t42.5 45.5t49 17.5q21 0 33 -10t12 -24q0 -5 -3 -12t-7.5 -14t-10 -12.5t-9.5 -7.5z" />
    <glyph glyph-name="Cdotaccent" unicode="&#x10a;" horiz-adv-x="631" 
d="M292 484q-13 0 -13 19q0 11 11 26t28 15q10 0 10 -14q0 -15 -11 -30.5t-25 -15.5zM466 644q36 0 66 -3.5t51.5 -10.5t34 -16.5t12.5 -21.5q0 -8 -3.5 -19.5t-8.5 -23.5t-11.5 -24t-12.5 -20q-3 -2 -6.5 0.5t-1.5 6.5q21 37 9 57q-14 23 -56 39.5t-97 16.5
q-72 0 -131 -25.5t-101.5 -72t-66 -110.5t-23.5 -141q0 -56 15 -103.5t44 -82t71 -54t96 -19.5q72 0 120 44.5t68 118.5q2 5 6.5 4t4.5 -6q-4 -21 -12 -46.5t-17 -48t-17.5 -39t-14.5 -18.5q-32 -12 -71 -19t-83 -7q-61 0 -109.5 18.5t-82 51.5t-51.5 78t-18 97
q0 80 29 152.5t81.5 127t125.5 87t161 32.5z" />
    <glyph glyph-name="cdotaccent" unicode="&#x10b;" horiz-adv-x="479" 
d="M196 319q-13 0 -13 19q0 11 11 26t28 15q10 0 10 -14q0 -15 -11 -30.5t-25 -15.5zM178 175q-5 0 -5 5q8 20 0.5 35t-30.5 15q-16 0 -30 -11.5t-24 -32t-16 -48t-6 -59.5q0 -49 34 -49q39 0 78 47q4 2 7 -0.5t1 -7.5q-23 -29 -51 -49.5t-55 -20.5q-22 0 -36.5 16t-14.5 44
q0 35 11.5 70t30 63t42.5 45.5t49 17.5q21 0 33 -10t12 -24q0 -5 -3 -12t-7.5 -14t-10 -12.5t-9.5 -7.5z" />
    <glyph glyph-name="Ccaron" unicode="&#x10c;" horiz-adv-x="631" 
d="M194 493q-6 -5 -12 1q-11 14 -29.5 29t-37.5 23q-5 5 5 10t22 3q18 -7 30 -14.5t28 -19.5q12 8 28.5 18t32.5 18q11 0 6 -9q-17 -10 -37.5 -24.5t-35.5 -34.5zM466 644q36 0 66 -3.5t51.5 -10.5t34 -16.5t12.5 -21.5q0 -8 -3.5 -19.5t-8.5 -23.5t-11.5 -24t-12.5 -20
q-3 -2 -6.5 0.5t-1.5 6.5q21 37 9 57q-14 23 -56 39.5t-97 16.5q-72 0 -131 -25.5t-101.5 -72t-66 -110.5t-23.5 -141q0 -56 15 -103.5t44 -82t71 -54t96 -19.5q72 0 120 44.5t68 118.5q2 5 6.5 4t4.5 -6q-4 -21 -12 -46.5t-17 -48t-17.5 -39t-14.5 -18.5q-32 -12 -71 -19
t-83 -7q-61 0 -109.5 18.5t-82 51.5t-51.5 78t-18 97q0 80 29 152.5t81.5 127t125.5 87t161 32.5z" />
    <glyph glyph-name="ccaron" unicode="&#x10d;" horiz-adv-x="479" 
d="M96 328q-6 -5 -12 1q-11 14 -29.5 29t-37.5 23q-5 5 5 10t22 3q18 -7 30 -14.5t28 -19.5q12 8 28.5 18t32.5 18q11 0 6 -9q-17 -10 -37.5 -24.5t-35.5 -34.5zM178 175q-5 0 -5 5q8 20 0.5 35t-30.5 15q-16 0 -30 -11.5t-24 -32t-16 -48t-6 -59.5q0 -49 34 -49q39 0 78 47
q4 2 7 -0.5t1 -7.5q-23 -29 -51 -49.5t-55 -20.5q-22 0 -36.5 16t-14.5 44q0 35 11.5 70t30 63t42.5 45.5t49 17.5q21 0 33 -10t12 -24q0 -5 -3 -12t-7.5 -14t-10 -12.5t-9.5 -7.5z" />
    <glyph glyph-name="Dcaron" unicode="&#x10e;" horiz-adv-x="729" 
d="M144 493q-6 -5 -12 1q-11 14 -29.5 29t-37.5 23q-5 5 5 10t22 3q18 -7 30 -14.5t28 -19.5q12 8 28.5 18t32.5 18q11 0 6 -9q-17 -10 -37.5 -24.5t-35.5 -34.5zM583 591q49 -29 88 -69.5t66.5 -85.5t42 -91.5t14.5 -88.5q0 -56 -18 -102.5t-53 -81t-86 -53.5t-116 -19
q-38 0 -71 5t-62.5 12.5t-56.5 16.5l-54 18q-39 -27 -85.5 -39.5t-103.5 -12.5q-32 0 -45 7.5t-13 20.5t9 27.5t25 26.5t39 19.5t52 7.5q38 0 71 -7t64 -17q37 39 69 108t68 180q21 64 46 114t57 85q-39 20 -83 32t-92 12q-39 0 -71.5 -12.5t-57.5 -35t-41 -53.5t-22 -69
q-6 -6 -8 4q4 42 22 77.5t48.5 61.5t73 40.5t95.5 14.5q46 0 88 -11t80 -31q54 44 128 59q3 0 3.5 -3.5t-2.5 -5.5q-32 -8 -58.5 -23.5t-49.5 -37.5zM122 18q42 0 75.5 8.5t62.5 30.5q-33 10 -68 17t-77 7q-27 0 -40 -9t-15 -22q-2 -14 11 -23t51 -9zM566 27
q95 0 142.5 53.5t47.5 143.5q0 47 -14 94.5t-40.5 92t-63.5 82.5t-83 66q-26 -32 -46 -73.5t-37 -92.5q-37 -115 -75.5 -191.5t-87.5 -123.5q25 -9 52 -18t57.5 -16.5t67 -12t80.5 -4.5z" />
    <glyph glyph-name="dcaron" unicode="&#x10f;" horiz-adv-x="615" 
d="M575 612q11 32 20.5 77.5t12.5 70.5h87v-9q-6 -26 -27 -71t-45 -80h-48v12zM602 756q26 0 33 -20t-7 -50q-8 -6 -10 3q2 14 -8 22t-28 8q-36 0 -73 -25t-72 -69.5t-68 -104.5t-61 -130t-50.5 -146.5t-36.5 -153.5q-4 -23 -2 -40.5t14 -17.5q11 0 22 11.5t20 25.5
q2 2 5.5 0t2.5 -6q-5 -9 -14 -20t-19.5 -20.5t-21.5 -16t-20 -6.5q-17 0 -23.5 14.5t-4.5 37.5q1 17 4 32t7 32q-9 -21 -24 -40.5t-31 -35.5t-31.5 -26.5t-26.5 -13.5q-17 0 -32.5 14.5t-15.5 46.5q0 38 13 73.5t35.5 62.5t52 43.5t63.5 16.5q11 0 19.5 -3t15.5 -8
q18 54 43.5 113t55.5 115.5t63.5 107.5t69 89.5t71.5 61.5t70 23zM96 35q11 0 26.5 12.5t31 32.5t30 46.5t24.5 54.5q3 10 6 19t5 18q-4 12 -15 17.5t-25 5.5q-21 0 -41 -12.5t-35.5 -34.5t-25 -52t-9.5 -66q0 -21 8.5 -31t19.5 -10z" />
    <glyph glyph-name="Dcroat" unicode="&#x110;" horiz-adv-x="729" 
d="M583 591q49 -29 88.5 -69.5t67 -85.5t42 -91.5t14.5 -88.5q0 -56 -18.5 -102.5t-53.5 -81t-86 -53.5t-116 -19q-38 0 -70.5 5t-62 12.5t-57 16.5t-54.5 18q-38 -27 -84.5 -39.5t-104.5 -12.5q-32 0 -45 7.5t-13 21.5q0 13 9 27t25.5 26t39.5 19.5t52 7.5q38 0 70.5 -7
t64.5 -17q29 30 54.5 78.5t51.5 120.5q-35 -2 -65.5 -5t-54.5 -7q-4 2 1.5 7t16.5 10q14 2 43 4.5t64 4.5q6 17 12.5 36t12.5 39q21 65 46 114.5t58 84.5q-39 20 -83 32t-92 12q-79 0 -130 -47t-62 -123q-2 -2 -5 -1t-3 5q4 42 22 77.5t48.5 61.5t72.5 40.5t95 14.5
q47 0 89 -11t80 -30q26 21 57.5 35.5t70.5 22.5q3 0 3 -3.5t-3 -5.5q-60 -16 -108 -61zM123 18q42 0 75.5 9t62.5 31q-33 10 -68 16.5t-77 6.5q-28 0 -40.5 -8.5t-14.5 -22.5q-3 -14 10.5 -23t51.5 -9zM566 27q95 0 142.5 54t47.5 143q0 47 -14 94.5t-40.5 92t-63.5 83
t-83 66.5q-51 -64 -82 -167q-8 -26 -16.5 -49t-17.5 -45q37 2 70.5 2t56.5 -1q2 -1 1.5 -4.5t-6.5 -4.5q-28 0 -60.5 -1t-65.5 -3q-28 -71 -58.5 -122.5t-67.5 -86.5q25 -9 52 -18t57.5 -16.5t67 -12t80.5 -4.5z" />
    <glyph glyph-name="dcroat" unicode="&#x111;" horiz-adv-x="617" 
d="M275 -10q-104 0 -162 72t-58 203q0 132 57.5 205t162.5 73q109 0 167 -79h6q-1 7 -3.5 33.5t-2.5 46.5v61h-213v66h213v89h88v-89h76v-66h-76v-605h-72l-13 72h-4q-56 -82 -166 -82zM290 63q80 0 116.5 43t36.5 142v17q0 112 -37 158.5t-118 46.5q-68 0 -104.5 -52
t-36.5 -154q0 -96 35 -148.5t108 -52.5z" />
    <glyph glyph-name="Emacron" unicode="&#x112;" horiz-adv-x="556" 
d="M148 842h297v-71h-297v71zM269 523q0 -35 23.5 -59.5t80.5 -41.5q3 -2 0.5 -6.5t-7.5 -9.5t-11.5 -9t-10.5 -5q-112 5 -174 -48.5t-62 -161.5q0 -35 10.5 -65t30 -52t47 -34.5t62.5 -12.5q82 0 134 38t75 123q3 5 6.5 3t4.5 -8q-12 -56 -28.5 -93t-30.5 -43
q-35 -16 -84.5 -27t-100.5 -11q-42 0 -74.5 13t-54.5 35t-33.5 50.5t-11.5 59.5q0 48 17.5 90.5t49 75.5t75 56t95.5 32q-32 17 -50 40t-18 50q0 28 14.5 53.5t40 45t60 31.5t75.5 12q24 0 47 -4.5t41 -12t28.5 -17t10.5 -19.5q0 -8 -3.5 -18.5t-8 -21.5t-10 -20.5
t-8.5 -13.5q-2 -2 -5.5 -0.5t-2.5 5.5q6 11 9 24.5t-5 26.5q-11 18 -42 36t-71 18q-33 0 -57 -9t-40.5 -24t-24.5 -33.5t-8 -37.5z" />
    <glyph glyph-name="emacron" unicode="&#x113;" horiz-adv-x="563" 
d="M150 677h297v-71h-297v71zM206 212q0 -14 -11 -26t-30 -21.5t-43.5 -17.5t-51.5 -15q-1 -11 -1.5 -22t-0.5 -24q0 -25 11 -42t31 -17t37.5 10t31.5 27q4 2 6 -1t0 -7q-17 -23 -42.5 -39.5t-53.5 -16.5q-26 0 -42.5 17t-16.5 50q0 30 11 63.5t29 61.5t41.5 46t49.5 18
q19 0 32 -13.5t13 -30.5zM140 230q-23 0 -41 -20t-26 -63q48 7 70.5 20.5t22.5 30.5q0 14 -7 23t-19 9z" />
    <glyph glyph-name="Ebreve" unicode="&#x114;" horiz-adv-x="556" 
d="M94 493q-27 0 -45 12.5t-22 34.5q0 8 8.5 15.5t12.5 2.5q5 -22 19 -33.5t40 -11.5t41.5 12t25.5 34q3 3 6.5 1.5t3.5 -6.5q-11 -26 -34 -43.5t-56 -17.5zM269 523q0 -35 23.5 -59.5t80.5 -41.5q3 -2 0.5 -6.5t-7.5 -9.5t-11.5 -9t-10.5 -5q-112 5 -174 -48.5t-62 -161.5
q0 -35 10.5 -65t30 -52t47 -34.5t62.5 -12.5q82 0 134 38t75 123q3 5 6.5 3t4.5 -8q-12 -56 -28.5 -93t-30.5 -43q-35 -16 -84.5 -27t-100.5 -11q-42 0 -74.5 13t-54.5 35t-33.5 50.5t-11.5 59.5q0 48 17.5 90.5t49 75.5t75 56t95.5 32q-32 17 -50 40t-18 50q0 28 14.5 53.5
t40 45t60 31.5t75.5 12q24 0 47 -4.5t41 -12t28.5 -17t10.5 -19.5q0 -8 -3.5 -18.5t-8 -21.5t-10 -20.5t-8.5 -13.5q-2 -2 -5.5 -0.5t-2.5 5.5q6 11 9 24.5t-5 26.5q-11 18 -42 36t-71 18q-33 0 -57 -9t-40.5 -24t-24.5 -33.5t-8 -37.5z" />
    <glyph glyph-name="ebreve" unicode="&#x115;" horiz-adv-x="563" 
d="M87 328q-27 0 -45 12.5t-22 34.5q0 8 8.5 15.5t12.5 2.5q5 -22 19 -33.5t40 -11.5t41.5 12t25.5 34q3 3 6.5 1.5t3.5 -6.5q-11 -26 -34 -43.5t-56 -17.5zM206 212q0 -14 -11 -26t-30 -21.5t-43.5 -17.5t-51.5 -15q-1 -11 -1.5 -22t-0.5 -24q0 -25 11 -42t31 -17t37.5 10
t31.5 27q4 2 6 -1t0 -7q-17 -23 -42.5 -39.5t-53.5 -16.5q-26 0 -42.5 17t-16.5 50q0 30 11 63.5t29 61.5t41.5 46t49.5 18q19 0 32 -13.5t13 -30.5zM140 230q-23 0 -41 -20t-26 -63q48 7 70.5 20.5t22.5 30.5q0 14 -7 23t-19 9z" />
    <glyph glyph-name="Edotaccent" unicode="&#x116;" horiz-adv-x="556" 
d="M208 470q-13 0 -13 19q0 11 11 26t28 15q10 0 10 -14q0 -15 -11 -30.5t-25 -15.5zM269 523q0 -35 23.5 -59.5t80.5 -41.5q3 -2 0.5 -6.5t-7.5 -9.5t-11.5 -9t-10.5 -5q-112 5 -174 -48.5t-62 -161.5q0 -35 10.5 -65t30 -52t47 -34.5t62.5 -12.5q82 0 134 38t75 123
q3 5 6.5 3t4.5 -8q-12 -56 -28.5 -93t-30.5 -43q-35 -16 -84.5 -27t-100.5 -11q-42 0 -74.5 13t-54.5 35t-33.5 50.5t-11.5 59.5q0 48 17.5 90.5t49 75.5t75 56t95.5 32q-32 17 -50 40t-18 50q0 28 14.5 53.5t40 45t60 31.5t75.5 12q24 0 47 -4.5t41 -12t28.5 -17
t10.5 -19.5q0 -8 -3.5 -18.5t-8 -21.5t-10 -20.5t-8.5 -13.5q-2 -2 -5.5 -0.5t-2.5 5.5q6 11 9 24.5t-5 26.5q-11 18 -42 36t-71 18q-33 0 -57 -9t-40.5 -24t-24.5 -33.5t-8 -37.5z" />
    <glyph glyph-name="edotaccent" unicode="&#x117;" horiz-adv-x="563" 
d="M198 319q-13 0 -13 19q0 11 11 26t28 15q10 0 10 -14q0 -15 -11 -30.5t-25 -15.5zM206 212q0 -14 -11 -26t-30 -21.5t-43.5 -17.5t-51.5 -15q-1 -11 -1.5 -22t-0.5 -24q0 -25 11 -42t31 -17t37.5 10t31.5 27q4 2 6 -1t0 -7q-17 -23 -42.5 -39.5t-53.5 -16.5
q-26 0 -42.5 17t-16.5 50q0 30 11 63.5t29 61.5t41.5 46t49.5 18q19 0 32 -13.5t13 -30.5zM140 230q-23 0 -41 -20t-26 -63q48 7 70.5 20.5t22.5 30.5q0 14 -7 23t-19 9z" />
    <glyph glyph-name="Eogonek" unicode="&#x118;" horiz-adv-x="556" 
d="M396 4q-20 -11 -34.5 -28t-14.5 -38q0 -13 5.5 -20.5t20.5 -7.5q16 0 28 9q3 1 5 -2t0 -6q-18 -18 -44 -18q-39 0 -39 35q0 21 17 44.5t49 37.5q11 2 7 -6zM269 523q0 -35 23.5 -59.5t80.5 -41.5q3 -2 0.5 -6.5t-7.5 -9.5t-11.5 -9t-10.5 -5q-112 5 -174 -48.5
t-62 -161.5q0 -35 10.5 -65t30 -52t47 -34.5t62.5 -12.5q82 0 134 38t75 123q3 5 6.5 3t4.5 -8q-12 -56 -28.5 -93t-30.5 -43q-35 -16 -84.5 -27t-100.5 -11q-42 0 -74.5 13t-54.5 35t-33.5 50.5t-11.5 59.5q0 48 17.5 90.5t49 75.5t75 56t95.5 32q-32 17 -50 40t-18 50
q0 28 14.5 53.5t40 45t60 31.5t75.5 12q24 0 47 -4.5t41 -12t28.5 -17t10.5 -19.5q0 -8 -3.5 -18.5t-8 -21.5t-10 -20.5t-8.5 -13.5q-2 -2 -5.5 -0.5t-2.5 5.5q6 11 9 24.5t-5 26.5q-11 18 -42 36t-71 18q-33 0 -57 -9t-40.5 -24t-24.5 -33.5t-8 -37.5z" />
    <glyph glyph-name="eogonek" unicode="&#x119;" horiz-adv-x="563" 
d="M391 18q-20 -11 -34.5 -28t-14.5 -38q0 -13 5.5 -20.5t20.5 -7.5q16 0 28 9q3 1 5 -2t0 -6q-18 -18 -44 -18q-39 0 -39 35q0 21 17 44.5t49 37.5q11 2 7 -6zM206 212q0 -14 -11 -26t-30 -21.5t-43.5 -17.5t-51.5 -15q-1 -11 -1.5 -22t-0.5 -24q0 -25 11 -42t31 -17
t37.5 10t31.5 27q4 2 6 -1t0 -7q-17 -23 -42.5 -39.5t-53.5 -16.5q-26 0 -42.5 17t-16.5 50q0 30 11 63.5t29 61.5t41.5 46t49.5 18q19 0 32 -13.5t13 -30.5zM140 230q-23 0 -41 -20t-26 -63q48 7 70.5 20.5t22.5 30.5q0 14 -7 23t-19 9z" />
    <glyph glyph-name="Ecaron" unicode="&#x11a;" horiz-adv-x="556" 
d="M107 493q-6 -5 -12 1q-11 14 -29.5 29t-37.5 23q-5 5 5 10t22 3q18 -7 30 -14.5t28 -19.5q12 8 28.5 18t32.5 18q11 0 6 -9q-17 -10 -37.5 -24.5t-35.5 -34.5zM269 523q0 -35 23.5 -59.5t80.5 -41.5q3 -2 0.5 -6.5t-7.5 -9.5t-11.5 -9t-10.5 -5q-112 5 -174 -48.5
t-62 -161.5q0 -35 10.5 -65t30 -52t47 -34.5t62.5 -12.5q82 0 134 38t75 123q3 5 6.5 3t4.5 -8q-12 -56 -28.5 -93t-30.5 -43q-35 -16 -84.5 -27t-100.5 -11q-42 0 -74.5 13t-54.5 35t-33.5 50.5t-11.5 59.5q0 48 17.5 90.5t49 75.5t75 56t95.5 32q-32 17 -50 40t-18 50
q0 28 14.5 53.5t40 45t60 31.5t75.5 12q24 0 47 -4.5t41 -12t28.5 -17t10.5 -19.5q0 -8 -3.5 -18.5t-8 -21.5t-10 -20.5t-8.5 -13.5q-2 -2 -5.5 -0.5t-2.5 5.5q6 11 9 24.5t-5 26.5q-11 18 -42 36t-71 18q-33 0 -57 -9t-40.5 -24t-24.5 -33.5t-8 -37.5z" />
    <glyph glyph-name="ecaron" unicode="&#x11b;" horiz-adv-x="563" 
d="M100 328q-6 -5 -12 1q-11 14 -29.5 29t-37.5 23q-5 5 5 10t22 3q18 -7 30 -14.5t28 -19.5q12 8 28.5 18t32.5 18q11 0 6 -9q-17 -10 -37.5 -24.5t-35.5 -34.5zM206 212q0 -14 -11 -26t-30 -21.5t-43.5 -17.5t-51.5 -15q-1 -11 -1.5 -22t-0.5 -24q0 -25 11 -42t31 -17
t37.5 10t31.5 27q4 2 6 -1t0 -7q-17 -23 -42.5 -39.5t-53.5 -16.5q-26 0 -42.5 17t-16.5 50q0 30 11 63.5t29 61.5t41.5 46t49.5 18q19 0 32 -13.5t13 -30.5zM140 230q-23 0 -41 -20t-26 -63q48 7 70.5 20.5t22.5 30.5q0 14 -7 23t-19 9z" />
    <glyph glyph-name="Gcircumflex" unicode="&#x11c;" horiz-adv-x="728" 
d="M216 558q6 5 12 -1q11 -14 29.5 -29t37.5 -23q5 -5 -5 -10t-22 -3q-18 7 -30 14.5t-28 19.5q-12 -8 -28.5 -18t-32.5 -18q-11 0 -6 9q17 10 37.5 24.5t35.5 34.5zM573 611q-69 0 -128.5 -28.5t-103 -78t-68 -118t-24.5 -147.5q0 -68 24.5 -103t75.5 -35q58 0 101 32.5
t60 92.5q1 6 9 10t16.5 5.5t15.5 0.5t7 -6q-33 -116 -77 -196.5t-97 -130.5t-113.5 -72.5t-125.5 -22.5q-46 0 -80 12t-56.5 33t-34 48.5t-11.5 58.5q0 43 19.5 77.5t66.5 56.5q5 2 6.5 -2.5t-1.5 -8.5q-49 -27 -49 -99q0 -70 42 -114t120 -44q108 0 188.5 73.5t130.5 237.5
q-31 -26 -70 -43.5t-88 -17.5q-64 0 -96 36.5t-32 97.5q0 70 31 145.5t85.5 138t127.5 103t157 40.5q44 0 69.5 -19t25.5 -46q0 -11 -5 -26t-13 -30.5t-17 -30t-16 -25.5q-4 -2 -7.5 0.5t-2.5 6.5q14 22 20.5 39t6.5 37q0 27 -24.5 44.5t-64.5 17.5z" />
    <glyph glyph-name="gcircumflex" unicode="&#x11d;" horiz-adv-x="615" 
d="M100 393q6 5 12 -1q11 -14 29.5 -29t37.5 -23q5 -5 -5 -10t-22 -3q-18 7 -30 14.5t-28 19.5q-12 -8 -28.5 -18t-32.5 -18q-11 0 -6 9q17 10 37.5 24.5t35.5 34.5zM226 270q3 2 6 -0.5t1 -6.5q-8 -12 -20 -21.5t-30 -8.5q9 -15 9 -39q0 -23 -7 -42t-16 -36t-18.5 -32
t-15 -31t-5 -32.5t11.5 -36.5q9 -17 16.5 -30.5t13 -26t8 -25.5t2.5 -28q0 -24 -10 -45.5t-29 -38t-46 -26t-61 -9.5q-35 0 -63 10t-47.5 26.5t-29.5 38t-10 44.5q0 30 21.5 52.5t61.5 33.5q5 0 6.5 -3.5t-1.5 -6.5q-21 -8 -34 -24t-13 -43q0 -51 35 -82t92 -31
q48 0 71 24.5t23 63.5q0 23 -7 41t-21 41q-19 32 -16.5 61.5t20.5 61.5q2 4 4.5 7.5t4.5 8.5q-11 -12 -25.5 -21t-24.5 -9q-49 0 -49 64q0 21 8 46t22.5 46.5t34 35.5t43.5 14q35 0 54 2.5t30 12.5zM146 103q6 14 10 29t4 30q0 29 -9.5 45.5t-30.5 16.5q-24 0 -40.5 -24
t-16.5 -68q0 -29 9.5 -42t28.5 -13q11 0 24 7t21 19z" />
    <glyph glyph-name="Gbreve" unicode="&#x11e;" horiz-adv-x="728" 
d="M209 493q-27 0 -45 12.5t-22 34.5q0 8 8.5 15.5t12.5 2.5q5 -22 19 -33.5t40 -11.5t41.5 12t25.5 34q3 3 6.5 1.5t3.5 -6.5q-11 -26 -34 -43.5t-56 -17.5zM573 611q-69 0 -128.5 -28.5t-103 -78t-68 -118t-24.5 -147.5q0 -68 24.5 -103t75.5 -35q58 0 101 32.5t60 92.5
q1 6 9 10t16.5 5.5t15.5 0.5t7 -6q-33 -116 -77 -196.5t-97 -130.5t-113.5 -72.5t-125.5 -22.5q-46 0 -80 12t-56.5 33t-34 48.5t-11.5 58.5q0 43 19.5 77.5t66.5 56.5q5 2 6.5 -2.5t-1.5 -8.5q-49 -27 -49 -99q0 -70 42 -114t120 -44q108 0 188.5 73.5t130.5 237.5
q-31 -26 -70 -43.5t-88 -17.5q-64 0 -96 36.5t-32 97.5q0 70 31 145.5t85.5 138t127.5 103t157 40.5q44 0 69.5 -19t25.5 -46q0 -11 -5 -26t-13 -30.5t-17 -30t-16 -25.5q-4 -2 -7.5 0.5t-2.5 6.5q14 22 20.5 39t6.5 37q0 27 -24.5 44.5t-64.5 17.5z" />
    <glyph glyph-name="gbreve" unicode="&#x11f;" horiz-adv-x="615" 
d="M95 328q-27 0 -45 12.5t-22 34.5q0 8 8.5 15.5t12.5 2.5q5 -22 19 -33.5t40 -11.5t41.5 12t25.5 34q3 3 6.5 1.5t3.5 -6.5q-11 -26 -34 -43.5t-56 -17.5zM226 270q3 2 6 -0.5t1 -6.5q-8 -12 -20 -21.5t-30 -8.5q9 -15 9 -39q0 -23 -7 -42t-16 -36t-18.5 -32t-15 -31
t-5 -32.5t11.5 -36.5q9 -17 16.5 -30.5t13 -26t8 -25.5t2.5 -28q0 -24 -10 -45.5t-29 -38t-46 -26t-61 -9.5q-35 0 -63 10t-47.5 26.5t-29.5 38t-10 44.5q0 30 21.5 52.5t61.5 33.5q5 0 6.5 -3.5t-1.5 -6.5q-21 -8 -34 -24t-13 -43q0 -51 35 -82t92 -31q48 0 71 24.5
t23 63.5q0 23 -7 41t-21 41q-19 32 -16.5 61.5t20.5 61.5q2 4 4.5 7.5t4.5 8.5q-11 -12 -25.5 -21t-24.5 -9q-49 0 -49 64q0 21 8 46t22.5 46.5t34 35.5t43.5 14q35 0 54 2.5t30 12.5zM146 103q6 14 10 29t4 30q0 29 -9.5 45.5t-30.5 16.5q-24 0 -40.5 -24t-16.5 -68
q0 -29 9.5 -42t28.5 -13q11 0 24 7t21 19z" />
    <glyph glyph-name="Gdotaccent" unicode="&#x120;" horiz-adv-x="728" 
d="M326 484q-13 0 -13 19q0 11 11 26t28 15q10 0 10 -14q0 -15 -11 -30.5t-25 -15.5zM573 611q-69 0 -128.5 -28.5t-103 -78t-68 -118t-24.5 -147.5q0 -68 24.5 -103t75.5 -35q58 0 101 32.5t60 92.5q1 6 9 10t16.5 5.5t15.5 0.5t7 -6q-33 -116 -77 -196.5t-97 -130.5
t-113.5 -72.5t-125.5 -22.5q-46 0 -80 12t-56.5 33t-34 48.5t-11.5 58.5q0 43 19.5 77.5t66.5 56.5q5 2 6.5 -2.5t-1.5 -8.5q-49 -27 -49 -99q0 -70 42 -114t120 -44q108 0 188.5 73.5t130.5 237.5q-31 -26 -70 -43.5t-88 -17.5q-64 0 -96 36.5t-32 97.5q0 70 31 145.5
t85.5 138t127.5 103t157 40.5q44 0 69.5 -19t25.5 -46q0 -11 -5 -26t-13 -30.5t-17 -30t-16 -25.5q-4 -2 -7.5 0.5t-2.5 6.5q14 22 20.5 39t6.5 37q0 27 -24.5 44.5t-64.5 17.5z" />
    <glyph glyph-name="gdotaccent" unicode="&#x121;" horiz-adv-x="615" 
d="M202 319q-13 0 -13 19q0 11 11 26t28 15q10 0 10 -14q0 -15 -11 -30.5t-25 -15.5zM226 270q3 2 6 -0.5t1 -6.5q-8 -12 -20 -21.5t-30 -8.5q9 -15 9 -39q0 -23 -7 -42t-16 -36t-18.5 -32t-15 -31t-5 -32.5t11.5 -36.5q9 -17 16.5 -30.5t13 -26t8 -25.5t2.5 -28
q0 -24 -10 -45.5t-29 -38t-46 -26t-61 -9.5q-35 0 -63 10t-47.5 26.5t-29.5 38t-10 44.5q0 30 21.5 52.5t61.5 33.5q5 0 6.5 -3.5t-1.5 -6.5q-21 -8 -34 -24t-13 -43q0 -51 35 -82t92 -31q48 0 71 24.5t23 63.5q0 23 -7 41t-21 41q-19 32 -16.5 61.5t20.5 61.5q2 4 4.5 7.5
t4.5 8.5q-11 -12 -25.5 -21t-24.5 -9q-49 0 -49 64q0 21 8 46t22.5 46.5t34 35.5t43.5 14q35 0 54 2.5t30 12.5zM146 103q6 14 10 29t4 30q0 29 -9.5 45.5t-30.5 16.5q-24 0 -40.5 -24t-16.5 -68q0 -29 9.5 -42t28.5 -13q11 0 24 7t21 19z" />
    <glyph glyph-name="uni0122" unicode="&#x122;" horiz-adv-x="728" 
d="M322 -209q11 25 24 70.5t17 77.5h87v-9q-8 -31 -31.5 -76.5t-48.5 -74.5h-48v12zM573 611q-69 0 -128.5 -28.5t-103 -78t-68 -118t-24.5 -147.5q0 -68 24.5 -103t75.5 -35q58 0 101 32.5t60 92.5q1 6 9 10t16.5 5.5t15.5 0.5t7 -6q-33 -116 -77 -196.5t-97 -130.5
t-113.5 -72.5t-125.5 -22.5q-46 0 -80 12t-56.5 33t-34 48.5t-11.5 58.5q0 43 19.5 77.5t66.5 56.5q5 2 6.5 -2.5t-1.5 -8.5q-49 -27 -49 -99q0 -70 42 -114t120 -44q108 0 188.5 73.5t130.5 237.5q-31 -26 -70 -43.5t-88 -17.5q-64 0 -96 36.5t-32 97.5q0 70 31 145.5
t85.5 138t127.5 103t157 40.5q44 0 69.5 -19t25.5 -46q0 -11 -5 -26t-13 -30.5t-17 -30t-16 -25.5q-4 -2 -7.5 0.5t-2.5 6.5q14 22 20.5 39t6.5 37q0 27 -24.5 44.5t-64.5 17.5z" />
    <glyph glyph-name="uni0123" unicode="&#x123;" horiz-adv-x="615" 
d="M379 754q-13 -29 -26 -74.5t-16 -73.5h-87v9q7 27 31.5 74t48.5 77h49v-12zM226 270q3 2 6 -0.5t1 -6.5q-8 -12 -20 -21.5t-30 -8.5q9 -15 9 -39q0 -23 -7 -42t-16 -36t-18.5 -32t-15 -31t-5 -32.5t11.5 -36.5q9 -17 16.5 -30.5t13 -26t8 -25.5t2.5 -28q0 -24 -10 -45.5
t-29 -38t-46 -26t-61 -9.5q-35 0 -63 10t-47.5 26.5t-29.5 38t-10 44.5q0 30 21.5 52.5t61.5 33.5q5 0 6.5 -3.5t-1.5 -6.5q-21 -8 -34 -24t-13 -43q0 -51 35 -82t92 -31q48 0 71 24.5t23 63.5q0 23 -7 41t-21 41q-19 32 -16.5 61.5t20.5 61.5q2 4 4.5 7.5t4.5 8.5
q-11 -12 -25.5 -21t-24.5 -9q-49 0 -49 64q0 21 8 46t22.5 46.5t34 35.5t43.5 14q35 0 54 2.5t30 12.5zM146 103q6 14 10 29t4 30q0 29 -9.5 45.5t-30.5 16.5q-24 0 -40.5 -24t-16.5 -68q0 -29 9.5 -42t28.5 -13q11 0 24 7t21 19z" />
    <glyph glyph-name="Hcircumflex" unicode="&#x124;" horiz-adv-x="741" 
d="M168 558q6 5 12 -1q11 -14 29.5 -29t37.5 -23q5 -5 -5 -10t-22 -3q-18 7 -30 14.5t-28 19.5q-12 -8 -28.5 -18t-32.5 -18q-11 0 -6 9q17 10 37.5 24.5t35.5 34.5zM1109 681q21 0 32 -13.5t11 -31.5q0 -14 -3.5 -27.5t-9.5 -23.5q-2 -2 -4.5 -1t-2.5 5q7 23 -4 39t-40 16
q-44 0 -84 -19.5t-78 -66.5t-74 -125t-71 -196q13 -4 25.5 -7.5t24.5 -6.5q5 -4 -9.5 -11t-34.5 -6q-4 1 -14 5q-3 -12 -6.5 -24.5t-7.5 -25.5q-31 -117 13 -117q39 0 76 56q3 3 6 1t2 -7q-11 -17 -24.5 -33.5t-28.5 -30t-29.5 -22t-26.5 -8.5q-30 0 -41.5 30.5t5.5 96.5
q12 51 27 95q-59 18 -126 32t-139 20q-28 -73 -63 -125t-75.5 -85t-86 -48.5t-94.5 -15.5q-52 0 -78 25.5t-26 66.5q0 39 23.5 75t68 63.5t109 44t147.5 16.5h22t22 -1q5 14 9 28.5t9 30.5q16 59 31.5 100.5t31 70t32 45t35.5 26.5q-26 10 -61.5 17t-77.5 7q-47 0 -80.5 -14
t-53 -38t-26 -55t0.5 -65q-1 -5 -4 -6t-6 3q-9 42 0 79.5t35 65.5t68.5 44t101.5 16q41 0 80 -9.5t70 -22.5q4 -6 0 -11t-19 -11q-20 -8 -34.5 -22t-26.5 -38t-23 -59t-24 -85q-8 -26 -15.5 -51t-15.5 -48q66 -5 135 -16t132 -26q34 103 77.5 183.5t91 136.5t97 85.5
t97.5 29.5zM181 24q44 0 81 12.5t68 42t57.5 77.5t50.5 120q-15 2 -29.5 2h-29.5q-71 0 -127 -13.5t-94 -36.5t-58 -53t-20 -63q0 -43 26.5 -65.5t74.5 -22.5z" />
    <glyph glyph-name="hcircumflex" unicode="&#x125;" horiz-adv-x="618" 
d="M111 585q6 5 12 -1q11 -14 29.5 -29t37.5 -23q5 -5 -5 -10t-22 -3q-18 7 -30 14.5t-28 19.5q-12 -8 -28.5 -18t-32.5 -18q-11 0 -6 9q17 10 37.5 24.5t35.5 34.5zM26 9q45 172 101 310t117.5 235t125.5 149.5t124 52.5q22 0 36.5 -8.5t20 -21.5t3 -29t-14.5 -31
q-2 -3 -5 -2t-3 5q4 20 -12 38t-51 18q-47 0 -96 -37t-98 -113.5t-96.5 -192.5t-91.5 -275q16 31 37 58.5t43 47.5t44.5 31.5t43.5 11.5q12 0 18 -6t6 -14q0 -13 -9 -29q-21 -37 -34.5 -76t-13.5 -71q0 -14 3.5 -23t11.5 -9q10 0 21.5 10.5t20.5 23.5q3 2 6 -0.5t2 -6.5
q-6 -9 -15 -18.5t-19.5 -18t-21.5 -13.5t-20 -5q-25 0 -25 42q0 36 12 78.5t29 75.5q6 10 6 17q0 9 -11 9q-18 0 -39 -14t-43 -41t-42 -65.5t-36 -86.5q-2 -7 -10.5 -11t-16.5 -4q-11 0 -8 9z" />
    <glyph glyph-name="Hbar" unicode="&#x126;" horiz-adv-x="741" 
d="M97 595v119h90v-119h366v119h90v-119h97v-72h-97v-523h-90v333h-366v-333h-90v523h-97v72h97zM553 412v111h-366v-111h366z" />
    <glyph glyph-name="hbar" unicode="&#x127;" horiz-adv-x="618" 
d="M450 0v323q0 65 -29 97t-91 32q-83 0 -120 -45t-37 -149v-258h-88v604h-76v66h76v90h88v-90h212v-66h-212v-87q0 -43 -5 -74h6q26 42 70.5 62.5t97.5 20.5q97 0 146 -47t49 -150v-329h-87z" />
    <glyph glyph-name="Itilde" unicode="&#x128;" horiz-adv-x="338" 
d="M-119 497q12 14 25 24.5t24 13.5q8 2 15.5 -1t16 -7.5t19.5 -8.5t26 -4t25.5 7.5t19.5 20.5q3 2 6.5 0.5t2.5 -4.5q-11 -18 -27 -30.5t-44 -12.5q-13 0 -22.5 3.5t-17 7t-14 6.5t-12.5 3q-8 -1 -15.5 -7t-18.5 -17q-11 -2 -9 6zM738 645q3 -2 2 -6t-5 -9t-9 -10t-9 -7
q-20 -6 -36 -16t-31 -31t-29 -57.5t-29 -94.5q-36 -137 -98 -232q14 2 26.5 7t19.5 9q3 1 4 -1.5t-1 -5.5q-21 -14 -55 -19q-58 -84 -135 -128t-172 -44q-60 0 -95.5 27t-35.5 66q0 31 26 62t70 51q5 -1 5.5 -4t-1.5 -5q-31 -17 -46 -39t-15 -45q0 -34 31 -59t94 -25
q79 0 140.5 32.5t108.5 109.5q-51 3 -78 39t-27 93q0 62 30 123t81.5 110t121 79t147.5 30zM549 392q11 42 23 75.5t27 59.5t33.5 45.5t41.5 33.5q-69 -8 -125 -38.5t-95.5 -72.5t-61 -91.5t-21.5 -96.5q0 -60 26.5 -91.5t71.5 -34.5q23 40 43 92.5t37 118.5z" />
    <glyph glyph-name="itilde" unicode="&#x129;" horiz-adv-x="257" 
d="M-159 332q12 14 25 24.5t24 13.5q8 2 15.5 -1t16 -7.5t19.5 -8.5t26 -4t25.5 7.5t19.5 20.5q3 2 6.5 0.5t2.5 -4.5q-11 -18 -27 -30.5t-44 -12.5q-13 0 -22.5 3.5t-17 7t-14 6.5t-12.5 3q-8 -1 -15.5 -7t-18.5 -17q-11 -2 -9 6zM52 186q-3 -2 -5.5 1.5t-0.5 6.5
q14 14 38 32t48 30q8 0 8 -9q-13 -23 -25.5 -50t-22 -53.5t-15.5 -51t-6 -40.5q0 -21 14 -21q11 0 21.5 9.5t24.5 25.5q2 2 5 -1t1 -7q-18 -22 -38.5 -40t-38.5 -18q-26 0 -26 33q0 19 6.5 45.5t16.5 53.5t22.5 52t24.5 43q-11 -8 -27.5 -20.5t-24.5 -20.5z" />
    <glyph glyph-name="Imacron" unicode="&#x12a;" horiz-adv-x="338" 
d="M21 842h297v-71h-297v71zM738 645q3 -2 2 -6t-5 -9t-9 -10t-9 -7q-20 -6 -36 -16t-31 -31t-29 -57.5t-29 -94.5q-36 -137 -98 -232q14 2 26.5 7t19.5 9q3 1 4 -1.5t-1 -5.5q-21 -14 -55 -19q-58 -84 -135 -128t-172 -44q-60 0 -95.5 27t-35.5 66q0 31 26 62t70 51
q5 -1 5.5 -4t-1.5 -5q-31 -17 -46 -39t-15 -45q0 -34 31 -59t94 -25q79 0 140.5 32.5t108.5 109.5q-51 3 -78 39t-27 93q0 62 30 123t81.5 110t121 79t147.5 30zM549 392q11 42 23 75.5t27 59.5t33.5 45.5t41.5 33.5q-69 -8 -125 -38.5t-95.5 -72.5t-61 -91.5t-21.5 -96.5
q0 -60 26.5 -91.5t71.5 -34.5q23 40 43 92.5t37 118.5z" />
    <glyph glyph-name="imacron" unicode="&#x12b;" horiz-adv-x="257" 
d="M-18 677h297v-71h-297v71zM52 186q-3 -2 -5.5 1.5t-0.5 6.5q14 14 38 32t48 30q8 0 8 -9q-13 -23 -25.5 -50t-22 -53.5t-15.5 -51t-6 -40.5q0 -21 14 -21q11 0 21.5 9.5t24.5 25.5q2 2 5 -1t1 -7q-18 -22 -38.5 -40t-38.5 -18q-26 0 -26 33q0 19 6.5 45.5t16.5 53.5
t22.5 52t24.5 43q-11 -8 -27.5 -20.5t-24.5 -20.5z" />
    <glyph glyph-name="Ibreve" unicode="&#x12c;" horiz-adv-x="338" 
d="M-37 493q-27 0 -45 12.5t-22 34.5q0 8 8.5 15.5t12.5 2.5q5 -22 19 -33.5t40 -11.5t41.5 12t25.5 34q3 3 6.5 1.5t3.5 -6.5q-11 -26 -34 -43.5t-56 -17.5zM738 645q3 -2 2 -6t-5 -9t-9 -10t-9 -7q-20 -6 -36 -16t-31 -31t-29 -57.5t-29 -94.5q-36 -137 -98 -232
q14 2 26.5 7t19.5 9q3 1 4 -1.5t-1 -5.5q-21 -14 -55 -19q-58 -84 -135 -128t-172 -44q-60 0 -95.5 27t-35.5 66q0 31 26 62t70 51q5 -1 5.5 -4t-1.5 -5q-31 -17 -46 -39t-15 -45q0 -34 31 -59t94 -25q79 0 140.5 32.5t108.5 109.5q-51 3 -78 39t-27 93q0 62 30 123
t81.5 110t121 79t147.5 30zM549 392q11 42 23 75.5t27 59.5t33.5 45.5t41.5 33.5q-69 -8 -125 -38.5t-95.5 -72.5t-61 -91.5t-21.5 -96.5q0 -60 26.5 -91.5t71.5 -34.5q23 40 43 92.5t37 118.5z" />
    <glyph glyph-name="ibreve" unicode="&#x12d;" horiz-adv-x="257" 
d="M-79 328q-27 0 -45 12.5t-22 34.5q0 8 8.5 15.5t12.5 2.5q5 -22 19 -33.5t40 -11.5t41.5 12t25.5 34q3 3 6.5 1.5t3.5 -6.5q-11 -26 -34 -43.5t-56 -17.5zM52 186q-3 -2 -5.5 1.5t-0.5 6.5q14 14 38 32t48 30q8 0 8 -9q-13 -23 -25.5 -50t-22 -53.5t-15.5 -51t-6 -40.5
q0 -21 14 -21q11 0 21.5 9.5t24.5 25.5q2 2 5 -1t1 -7q-18 -22 -38.5 -40t-38.5 -18q-26 0 -26 33q0 19 6.5 45.5t16.5 53.5t22.5 52t24.5 43q-11 -8 -27.5 -20.5t-24.5 -20.5z" />
    <glyph glyph-name="Iogonek" unicode="&#x12e;" horiz-adv-x="338" 
d="M164 4q-20 -11 -34.5 -28t-14.5 -38q0 -13 5.5 -20.5t20.5 -7.5q16 0 28 9q3 1 5 -2t0 -6q-18 -18 -44 -18q-39 0 -39 35q0 21 17 44.5t49 37.5q11 2 7 -6zM738 645q3 -2 2 -6t-5 -9t-9 -10t-9 -7q-20 -6 -36 -16t-31 -31t-29 -57.5t-29 -94.5q-36 -137 -98 -232
q14 2 26.5 7t19.5 9q3 1 4 -1.5t-1 -5.5q-21 -14 -55 -19q-58 -84 -135 -128t-172 -44q-60 0 -95.5 27t-35.5 66q0 31 26 62t70 51q5 -1 5.5 -4t-1.5 -5q-31 -17 -46 -39t-15 -45q0 -34 31 -59t94 -25q79 0 140.5 32.5t108.5 109.5q-51 3 -78 39t-27 93q0 62 30 123
t81.5 110t121 79t147.5 30zM549 392q11 42 23 75.5t27 59.5t33.5 45.5t41.5 33.5q-69 -8 -125 -38.5t-95.5 -72.5t-61 -91.5t-21.5 -96.5q0 -60 26.5 -91.5t71.5 -34.5q23 40 43 92.5t37 118.5z" />
    <glyph glyph-name="iogonek" unicode="&#x12f;" horiz-adv-x="257" 
d="M101 4q-20 -11 -34.5 -28t-14.5 -38q0 -13 5.5 -20.5t20.5 -7.5q16 0 28 9q3 1 5 -2t0 -6q-18 -18 -44 -18q-39 0 -39 35q0 21 17 44.5t49 37.5q11 2 7 -6zM52 186q-3 -2 -5.5 1.5t-0.5 6.5q14 14 38 32t48 30q8 0 8 -9q-13 -23 -25.5 -50t-22 -53.5t-15.5 -51t-6 -40.5
q0 -21 14 -21q11 0 21.5 9.5t24.5 25.5q2 2 5 -1t1 -7q-18 -22 -38.5 -40t-38.5 -18q-26 0 -26 33q0 19 6.5 45.5t16.5 53.5t22.5 52t24.5 43q-11 -8 -27.5 -20.5t-24.5 -20.5zM142 299q-3 -3 -5.5 -0.5t-3.5 7t-1 10.5t3 10q26 36 73 77q3 1 6 -1.5t1 -4.5
q-21 -19 -40 -45.5t-33 -52.5z" />
    <glyph glyph-name="Idotaccent" unicode="&#x130;" horiz-adv-x="338" 
d="M72 484q-13 0 -13 19q0 11 11 26t28 15q10 0 10 -14q0 -15 -11 -30.5t-25 -15.5zM738 645q3 -2 2 -6t-5 -9t-9 -10t-9 -7q-20 -6 -36 -16t-31 -31t-29 -57.5t-29 -94.5q-36 -137 -98 -232q14 2 26.5 7t19.5 9q3 1 4 -1.5t-1 -5.5q-21 -14 -55 -19q-58 -84 -135 -128
t-172 -44q-60 0 -95.5 27t-35.5 66q0 31 26 62t70 51q5 -1 5.5 -4t-1.5 -5q-31 -17 -46 -39t-15 -45q0 -34 31 -59t94 -25q79 0 140.5 32.5t108.5 109.5q-51 3 -78 39t-27 93q0 62 30 123t81.5 110t121 79t147.5 30zM549 392q11 42 23 75.5t27 59.5t33.5 45.5t41.5 33.5
q-69 -8 -125 -38.5t-95.5 -72.5t-61 -91.5t-21.5 -96.5q0 -60 26.5 -91.5t71.5 -34.5q23 40 43 92.5t37 118.5z" />
    <glyph glyph-name="dotlessi" unicode="&#x131;" horiz-adv-x="149" 
d="M52 186q-3 -2 -5.5 1.5t-0.5 6.5q14 14 38 32t48 30q8 0 8 -9q-13 -23 -25.5 -50t-22 -53.5t-15.5 -51t-6 -40.5q0 -21 14 -21q11 0 21.5 9.5t24.5 25.5q2 2 5 -1t1 -7q-18 -22 -38.5 -40t-38.5 -18q-26 0 -26 33q0 19 6.5 45.5t16.5 53.5t22.5 52t24.5 43
q-11 -8 -27.5 -20.5t-24.5 -20.5z" />
    <glyph glyph-name="IJ" unicode="&#x132;" horiz-adv-x="611" 
d="M738 645q3 -2 2 -6t-5 -9t-9 -10t-9 -7q-20 -6 -36 -16t-31 -31t-29 -57.5t-29 -94.5q-36 -137 -98 -232q14 2 26.5 7t19.5 9q3 1 4 -1.5t-1 -5.5q-21 -14 -55 -19q-58 -84 -135 -128t-172 -44q-60 0 -95.5 27t-35.5 66q0 31 26 62t70 51q5 -1 5.5 -4t-1.5 -5
q-31 -17 -46 -39t-15 -45q0 -34 31 -59t94 -25q79 0 140.5 32.5t108.5 109.5q-51 3 -78 39t-27 93q0 62 30 123t81.5 110t121 79t147.5 30zM549 392q11 42 23 75.5t27 59.5t33.5 45.5t41.5 33.5q-69 -8 -125 -38.5t-95.5 -72.5t-61 -91.5t-21.5 -96.5q0 -60 26.5 -91.5
t71.5 -34.5q23 40 43 92.5t37 118.5zM1161 644q3 -2 1.5 -6t-5 -9t-8.5 -10t-9 -7q-21 -6 -38.5 -18t-32.5 -35t-28.5 -58.5t-26.5 -87.5q-17 -66 -37 -123t-43 -108q12 2 23 6.5t17 8.5q7 0 4 -7q-18 -13 -48 -18q-43 -92 -95 -159t-110 -111t-121.5 -65.5t-129.5 -21.5
q-69 0 -102 32.5t-33 80.5q0 38 21 79t57.5 77t87 63t110.5 38q5 0 5 -4t-5 -6q-53 -10 -97 -32.5t-76 -52.5t-50 -65t-18 -71q0 -50 30.5 -80.5t103.5 -30.5q59 0 113.5 18t103.5 57t92.5 101t81.5 150q-53 2 -85.5 37.5t-32.5 95.5q0 62 30 123t81.5 110t121 79t147.5 30z
M972 391q22 87 53 139t72 76q-69 -9 -125 -39t-95.5 -72.5t-61 -92t-21.5 -96.5q0 -58 29 -91t80 -36q37 91 69 212z" />
    <glyph glyph-name="ij" unicode="&#x133;" horiz-adv-x="514" 
d="M52 186q-3 -2 -5.5 1.5t-0.5 6.5q14 14 38 32t48 30q8 0 8 -9q-13 -23 -25.5 -50t-22 -53.5t-15.5 -51t-6 -40.5q0 -21 14 -21q11 0 21.5 9.5t24.5 25.5q2 2 5 -1t1 -7q-18 -22 -38.5 -40t-38.5 -18q-26 0 -26 33q0 19 6.5 45.5t16.5 53.5t22.5 52t24.5 43
q-11 -8 -27.5 -20.5t-24.5 -20.5zM142 299q-3 -3 -5.5 -0.5t-3.5 7t-1 10.5t3 10q26 36 73 77q3 1 6 -1.5t1 -4.5q-21 -19 -40 -45.5t-33 -52.5zM340 221q-11 -8 -21.5 -16t-19.5 -18q-4 -1 -5.5 2t-0.5 6q14 14 37.5 31.5t46.5 28.5q10 0 8 -9q-35 -139 -77.5 -233
t-90.5 -151.5t-99.5 -82t-104.5 -24.5q-35 0 -49 27t-3 71q2 2 5 2.5t4 -3.5q-3 -15 -0.5 -28t11.5 -23.5t24.5 -16.5t39.5 -6q40 0 78.5 19.5t76 69t72.5 135.5t68 219zM389 298q-6 -5 -9.5 6.5t2.5 19.5q14 20 31.5 38.5t40.5 38.5q3 2 6 -0.5t1 -4.5q-21 -19 -39.5 -45.5
t-32.5 -52.5z" />
    <glyph glyph-name="Jcircumflex" unicode="&#x134;" horiz-adv-x="272" 
d="M-63 558q6 5 12 -1q11 -14 29.5 -29t37.5 -23q5 -5 -5 -10t-22 -3q-18 7 -30 14.5t-28 19.5q-12 -8 -28.5 -18t-32.5 -18q-11 0 -6 9q17 10 37.5 24.5t35.5 34.5zM822 644q3 -2 1.5 -6t-5 -9t-8.5 -10t-9 -7q-21 -6 -38.5 -18t-32.5 -35t-28.5 -58.5t-26.5 -87.5
q-17 -66 -37 -123t-43 -108q12 2 23 6.5t17 8.5q7 0 4 -7q-18 -13 -48 -18q-43 -92 -95 -159t-110 -111t-121.5 -65.5t-129.5 -21.5q-69 0 -102 32.5t-33 80.5q0 38 21 79t57.5 77t87 63t110.5 38q5 0 5 -4t-5 -6q-53 -10 -97 -32.5t-76 -52.5t-50 -65t-18 -71
q0 -50 30.5 -80.5t103.5 -30.5q59 0 113.5 18t103.5 57t92.5 101t81.5 150q-53 2 -85.5 37.5t-32.5 95.5q0 62 30 123t81.5 110t121 79t147.5 30zM633 391q22 87 53 139t72 76q-69 -9 -125 -39t-95.5 -72.5t-61 -92t-21.5 -96.5q0 -58 29 -91t80 -36q37 91 69 212z" />
    <glyph glyph-name="jcircumflex" unicode="&#x135;" horiz-adv-x="257" 
d="M-74 393q6 5 12 -1q11 -14 29.5 -29t37.5 -23q5 -5 -5 -10t-22 -3q-18 7 -30 14.5t-28 19.5q-12 -8 -28.5 -18t-32.5 -18q-11 0 -6 9q17 10 37.5 24.5t35.5 34.5zM22 -240q-46 0 -77 12v71q34 -10 66 -10q38 0 56 21t18 63v619h88v-616q0 -80 -38.5 -120t-112.5 -40z" />
    <glyph glyph-name="uni0136" unicode="&#x136;" horiz-adv-x="619" 
d="M246 -209q11 25 24 70.5t17 77.5h87v-9q-8 -31 -31.5 -76.5t-48.5 -74.5h-48v12zM551 347q-15 -86 -48 -151t-80.5 -108.5t-107.5 -65.5t-128 -22q-71 0 -104 31t-33 77q0 20 6 40.5t16.5 38.5t26 32t33.5 23q6 0 7.5 -3t-0.5 -7q-26 -14 -40 -39.5t-14 -56.5
q0 -48 33.5 -78.5t94.5 -30.5t108.5 15.5t83.5 49.5t60.5 88.5t38.5 132.5q13 72 26.5 120t28.5 79.5t32 48.5t37 28q-26 10 -61 16.5t-76 6.5q-62 0 -109 -21.5t-76.5 -58.5t-39.5 -87.5t2 -108.5q0 -5 -4 -7t-7 3q-14 62 -2 118.5t46.5 99.5t91.5 68.5t134 25.5
q42 0 81 -9t70 -23q4 -6 -0.5 -10.5t-19.5 -11.5q-21 -9 -36.5 -25t-27.5 -44t-22.5 -70.5t-20.5 -103.5zM615 368q22 -78 44 -140.5t48 -106t59 -66.5t76 -23q22 0 40.5 11.5t29.5 29.5q3 3 6 0t2 -8q-15 -28 -41.5 -46.5t-65.5 -18.5q-46 0 -81 27.5t-62 74.5t-47.5 109
t-37.5 130q-3 10 4 20q45 58 93.5 110t96.5 90t93 60.5t83 22.5q17 0 29 -13t12 -34q0 -14 -2.5 -25.5t-9.5 -27.5q-3 -3 -6 -2t-4 5q5 24 -6.5 41.5t-44.5 17.5q-28 0 -65 -17.5t-78 -49t-83.5 -75.5t-81.5 -96z" />
    <glyph glyph-name="uni0137" unicode="&#x137;" horiz-adv-x="534" 
d="M203 -209q11 25 24 70.5t17 77.5h87v-9q-8 -31 -31.5 -76.5t-48.5 -74.5h-48v12zM144 131q11 -53 28 -81.5t42 -28.5q11 0 20.5 5t20.5 19q3 2 5 -0.5t1 -5.5q-14 -18 -30 -28.5t-38 -10.5q-32 0 -51 34t-31 99q-1 8 5 10q18 -4 36 -0.5t32 11.5t22.5 21t8.5 29
q0 25 -25 25q-34 0 -64 -33.5t-45 -98.5q-4 -17 -8.5 -37.5t-7.5 -34.5q-2 -8 -4 -12t-9 -7q-12 -6 -21 -6q-8 0 -5 9q31 167 84.5 304.5t117.5 236t132 152.5t128 54q22 0 36.5 -8.5t20 -21.5t3 -29t-14.5 -32q-7 -5 -9 3q5 20 -9.5 39t-49.5 19q-44 0 -93.5 -33
t-99.5 -102t-96.5 -175.5t-83.5 -253.5q22 43 51 68.5t69 25.5q17 0 27.5 -12t10.5 -27q0 -32 -30.5 -56t-75.5 -30z" />
    <glyph glyph-name="kgreenlandic" unicode="&#x138;" horiz-adv-x="534" 
d="M403 536h106l-203 -237l219 -299h-105l-176 242l-66 -54v-188h-93v536h93v-139q0 -68 -6 -135l41 50z" />
    <glyph glyph-name="Lacute" unicode="&#x139;" horiz-adv-x="523" 
d="M660 644q32 0 48.5 -21t16.5 -52q0 -20 -7 -42t-16 -40q-4 -3 -7.5 -1.5t-2.5 6.5q7 18 7 37t-7.5 34.5t-24 25.5t-41.5 10q-36 0 -66 -13.5t-55.5 -47.5t-48.5 -92.5t-46 -148.5q-19 -72 -44 -126t-58 -91q43 -17 90.5 -30t106.5 -13q47 0 77.5 16.5t53.5 62.5
q4 2 7 -0.5t1 -7.5q-24 -54 -64 -82t-107 -28q-59 0 -105 17t-89 37q-67 -54 -172 -54q-38 0 -57.5 15.5t-19.5 33.5q0 13 7.5 26.5t22 24t34.5 17.5t45 7q39 0 75.5 -11t74.5 -25q45 58 79 186q22 82 51.5 150.5t66 117t80.5 75.5t94 27zM139 21q38 0 68 9t56 31
q-35 17 -71.5 29t-80.5 12q-28 0 -40 -9t-12 -23q0 -20 21 -34.5t59 -14.5zM22 546q5 3 18.5 -1t22.5 -8q7 -4 1 -10q-9 -6 -23 -13t-29 -13.5t-30.5 -12t-28.5 -9.5q-4 0 -4 3.5t4 7.5q13 8 34 23.5t35 32.5z" />
    <glyph glyph-name="lacute" unicode="&#x13a;" horiz-adv-x="257" 
d="M442 743q26 0 33.5 -24t-6.5 -51q-2 -2 -5 0t-4 5q2 12 -8.5 20t-32.5 8q-43 0 -85 -36t-81 -93.5t-72.5 -128.5t-58 -141.5t-38.5 -133t-14 -101.5q0 -30 17 -30q12 0 23.5 10t26.5 30q3 2 5.5 -0.5t1.5 -6.5q-20 -31 -44 -50.5t-41 -19.5q-13 0 -21 10.5t-8 28.5
q0 28 10 72.5t28 99.5t43.5 115.5t55.5 119.5t63.5 113t69 95t71.5 65t71 24zM-15 574q5 3 18.5 -1t22.5 -8q7 -4 1 -10q-9 -6 -23 -13t-29 -13.5t-30.5 -12t-28.5 -9.5q-4 0 -4 3.5t4 7.5q13 8 34 23.5t35 32.5z" />
    <glyph glyph-name="uni013B" unicode="&#x13b;" horiz-adv-x="523" 
d="M204 -209q11 25 24 70.5t17 77.5h87v-9q-8 -31 -31.5 -76.5t-48.5 -74.5h-48v12zM660 644q32 0 48.5 -21t16.5 -52q0 -20 -7 -42t-16 -40q-4 -3 -7.5 -1.5t-2.5 6.5q7 18 7 37t-7.5 34.5t-24 25.5t-41.5 10q-36 0 -66 -13.5t-55.5 -47.5t-48.5 -92.5t-46 -148.5
q-19 -72 -44 -126t-58 -91q43 -17 90.5 -30t106.5 -13q47 0 77.5 16.5t53.5 62.5q4 2 7 -0.5t1 -7.5q-24 -54 -64 -82t-107 -28q-59 0 -105 17t-89 37q-67 -54 -172 -54q-38 0 -57.5 15.5t-19.5 33.5q0 13 7.5 26.5t22 24t34.5 17.5t45 7q39 0 75.5 -11t74.5 -25
q45 58 79 186q22 82 51.5 150.5t66 117t80.5 75.5t94 27zM139 21q38 0 68 9t56 31q-35 17 -71.5 29t-80.5 12q-28 0 -40 -9t-12 -23q0 -20 21 -34.5t59 -14.5z" />
    <glyph glyph-name="uni013C" unicode="&#x13c;" horiz-adv-x="257" 
d="M45 -209q11 25 24 70.5t17 77.5h87v-9q-8 -31 -31.5 -76.5t-48.5 -74.5h-48v12zM442 743q26 0 33.5 -24t-6.5 -51q-2 -2 -5 0t-4 5q2 12 -8.5 20t-32.5 8q-43 0 -85 -36t-81 -93.5t-72.5 -128.5t-58 -141.5t-38.5 -133t-14 -101.5q0 -30 17 -30q12 0 23.5 10t26.5 30
q3 2 5.5 -0.5t1.5 -6.5q-20 -31 -44 -50.5t-41 -19.5q-13 0 -21 10.5t-8 28.5q0 28 10 72.5t28 99.5t43.5 115.5t55.5 119.5t63.5 113t69 95t71.5 65t71 24z" />
    <glyph glyph-name="Lcaron" unicode="&#x13d;" horiz-adv-x="523" 
d="M333 567q11 32 20.5 77.5t12.5 70.5h87v-9q-6 -26 -27 -71t-45 -80h-48v12zM660 644q32 0 48.5 -21t16.5 -52q0 -20 -7 -42t-16 -40q-4 -3 -7.5 -1.5t-2.5 6.5q7 18 7 37t-7.5 34.5t-24 25.5t-41.5 10q-36 0 -66 -13.5t-55.5 -47.5t-48.5 -92.5t-46 -148.5
q-19 -72 -44 -126t-58 -91q43 -17 90.5 -30t106.5 -13q47 0 77.5 16.5t53.5 62.5q4 2 7 -0.5t1 -7.5q-24 -54 -64 -82t-107 -28q-59 0 -105 17t-89 37q-67 -54 -172 -54q-38 0 -57.5 15.5t-19.5 33.5q0 13 7.5 26.5t22 24t34.5 17.5t45 7q39 0 75.5 -11t74.5 -25
q45 58 79 186q22 82 51.5 150.5t66 117t80.5 75.5t94 27zM139 21q38 0 68 9t56 31q-35 17 -71.5 29t-80.5 12q-28 0 -40 -9t-12 -23q0 -20 21 -34.5t59 -14.5z" />
    <glyph glyph-name="lcaron" unicode="&#x13e;" horiz-adv-x="257" 
d="M219 612q11 32 20.5 77.5t12.5 70.5h87v-9q-6 -26 -27 -71t-45 -80h-48v12zM442 743q26 0 33.5 -24t-6.5 -51q-2 -2 -5 0t-4 5q2 12 -8.5 20t-32.5 8q-43 0 -85 -36t-81 -93.5t-72.5 -128.5t-58 -141.5t-38.5 -133t-14 -101.5q0 -30 17 -30q12 0 23.5 10t26.5 30
q3 2 5.5 -0.5t1.5 -6.5q-20 -31 -44 -50.5t-41 -19.5q-13 0 -21 10.5t-8 28.5q0 28 10 72.5t28 99.5t43.5 115.5t55.5 119.5t63.5 113t69 95t71.5 65t71 24z" />
    <glyph glyph-name="Ldot" unicode="&#x13f;" horiz-adv-x="523" 
d="M287 -5q-13 0 -13 19q0 11 11 26t28 15q10 0 10 -14q0 -15 -11 -30.5t-25 -15.5zM660 644q32 0 48.5 -21t16.5 -52q0 -20 -7 -42t-16 -40q-4 -3 -7.5 -1.5t-2.5 6.5q7 18 7 37t-7.5 34.5t-24 25.5t-41.5 10q-36 0 -66 -13.5t-55.5 -47.5t-48.5 -92.5t-46 -148.5
q-19 -72 -44 -126t-58 -91q43 -17 90.5 -30t106.5 -13q47 0 77.5 16.5t53.5 62.5q4 2 7 -0.5t1 -7.5q-24 -54 -64 -82t-107 -28q-59 0 -105 17t-89 37q-67 -54 -172 -54q-38 0 -57.5 15.5t-19.5 33.5q0 13 7.5 26.5t22 24t34.5 17.5t45 7q39 0 75.5 -11t74.5 -25
q45 58 79 186q22 82 51.5 150.5t66 117t80.5 75.5t94 27zM139 21q38 0 68 9t56 31q-35 17 -71.5 29t-80.5 12q-28 0 -40 -9t-12 -23q0 -20 21 -34.5t59 -14.5z" />
    <glyph glyph-name="ldot" unicode="&#x140;" horiz-adv-x="325" 
d="M195 -29q-13 0 -13 19q0 11 11 26t28 15q10 0 10 -14q0 -15 -11 -30.5t-25 -15.5zM442 743q26 0 33.5 -24t-6.5 -51q-2 -2 -5 0t-4 5q2 12 -8.5 20t-32.5 8q-43 0 -85 -36t-81 -93.5t-72.5 -128.5t-58 -141.5t-38.5 -133t-14 -101.5q0 -30 17 -30q12 0 23.5 10t26.5 30
q3 2 5.5 -0.5t1.5 -6.5q-20 -31 -44 -50.5t-41 -19.5q-13 0 -21 10.5t-8 28.5q0 28 10 72.5t28 99.5t43.5 115.5t55.5 119.5t63.5 113t69 95t71.5 65t71 24z" />
    <glyph glyph-name="Lslash" unicode="&#x141;" horiz-adv-x="657" 
d="M660 644q31 0 47.5 -20.5t16.5 -51.5q0 -20 -6.5 -42t-15.5 -40q-4 -4 -7.5 -2.5t-3.5 6.5q7 18 7.5 37t-7 34.5t-24 25.5t-41.5 10q-33 0 -61 -11t-52 -39t-45.5 -75.5t-42.5 -119.5q32 7 65 13t66 11q10 2 8 -4t-13 -9q-31 -5 -64 -12t-67 -15q-2 -10 -5 -20t-5 -21
q-19 -72 -44 -126t-59 -91q44 -17 91.5 -30t106.5 -13q48 0 78 17t53 63q4 2 7 -0.5t1 -8.5q-24 -54 -64 -82t-107 -28q-59 0 -105 17.5t-89 37.5q-68 -55 -173 -55q-38 0 -57 15.5t-19 33.5q0 13 7.5 27t22 24.5t34.5 17.5t45 7q39 0 75.5 -11t74.5 -25q23 29 42.5 74.5
t36.5 111.5q4 14 7.5 27.5t8.5 27.5q-30 -8 -59 -18t-56 -21q-8 0 0 11t28 19q20 7 43.5 13.5t49.5 13.5q22 67 50.5 121.5t62.5 93.5t73 60t84 21zM139 22q38 0 68 9t56 31q-35 16 -71.5 28t-80.5 12q-28 0 -40.5 -9t-12.5 -23q0 -20 21 -34t60 -14z" />
    <glyph glyph-name="lslash" unicode="&#x142;" horiz-adv-x="134" 
d="M441 743q13 0 22 -6.5t12.5 -17t1.5 -24t-9 -26.5q-2 -2 -5 -0.5t-3 4.5q1 12 -9.5 20.5t-32.5 8.5q-32 0 -64.5 -21.5t-63 -57.5t-59.5 -84t-54 -101q17 6 37 11.5t46 12.5q8 2 7 -2.5t-9 -8.5q-26 -7 -46.5 -13.5t-40.5 -14.5q-23 -50 -41.5 -101.5t-32 -98.5
t-20.5 -87.5t-7 -68.5q0 -30 16 -30q12 0 23.5 10t26.5 30q3 2 6 0t1 -7q-20 -31 -43.5 -50.5t-40.5 -19.5q-13 0 -21 10.5t-8 28.5q0 26 9 67t24.5 91t38 106t49.5 112q-34 -15 -74 -37q-3 -1 -3.5 1.5t2 7t8 9t13.5 8.5q17 8 32 14.5t30 12.5q30 61 64.5 117.5t71 100
t73.5 69t73 25.5z" />
    <glyph glyph-name="Nacute" unicode="&#x143;" horiz-adv-x="759" 
d="M1216 644q28 0 44.5 -21.5t16.5 -74.5q-1 -6 -5.5 -6.5t-6.5 5.5q-2 18 -13 31t-27 18.5t-35.5 3t-38.5 -16.5q-49 -35 -90 -99t-72 -141.5t-49 -162.5t-21 -162q0 -11 -2 -14.5t-7 -3.5q-4 0 -6.5 4.5t-4.5 10.5q-45 171 -108 301.5t-144 205.5q-22 -124 -63 -221
t-96 -164t-120 -102t-134 -35q-71 0 -115 30.5t-60 75t-3 95t56 89.5q5 1 7.5 -2.5t0.5 -8.5q-29 -29 -37 -69.5t8 -77.5t57 -63t111 -26q69 0 129 33.5t107.5 97t81 156t50.5 210.5q-42 35 -87 53t-94 18q-48 0 -79.5 -22t-45.5 -49q-3 -2 -6.5 -1t-4.5 6q9 19 24.5 37
t35.5 31.5t46 22t56 8.5q42 0 82.5 -15.5t78.5 -44.5v2q1 6 5 14t8.5 14.5t8.5 9t5 -2.5q-1 -14 -2.5 -27.5t-3.5 -26.5q43 -38 82 -89t72 -111t59.5 -126.5t46.5 -134.5q7 60 23 123.5t39 123t51.5 112.5t60 93t64 63t64.5 23zM222 546q5 3 18.5 -1t22.5 -8q7 -4 1 -10
q-9 -6 -23 -13t-29 -13.5t-30.5 -12t-28.5 -9.5q-4 0 -4 3.5t4 7.5q13 8 34 23.5t35 32.5z" />
    <glyph glyph-name="nacute" unicode="&#x144;" horiz-adv-x="618" 
d="M282 64q3 2 6 0t2 -6q-17 -23 -37.5 -40.5t-38.5 -17.5q-31 0 -31 40q0 34 12 75.5t33 83.5q4 7 4 14q0 11 -10 11q-37 0 -81.5 -51t-82.5 -160q-2 -6 -11 -9.5t-17 -3.5q-11 0 -8 9q17 43 35.5 97t32.5 107q4 19 -7 19q-10 0 -20 -10t-21 -26q-2 -2 -4.5 1t-1.5 6
q11 17 30 35t41 18q25 0 17 -34q-4 -22 -11 -46.5t-15 -48.5q14 27 33 51t39.5 41t41 27t38.5 10q12 0 18.5 -6t6.5 -14q0 -13 -6 -26q-21 -38 -35.5 -79.5t-14.5 -76.5q0 -25 16 -25q21 0 47 35zM154 381q5 3 18.5 -1t22.5 -8q7 -4 1 -10q-9 -6 -23 -13t-29 -13.5
t-30.5 -12t-28.5 -9.5q-4 0 -4 3.5t4 7.5q13 8 34 23.5t35 32.5z" />
    <glyph glyph-name="uni0145" unicode="&#x145;" horiz-adv-x="759" 
d="M281 -209q11 25 24 70.5t17 77.5h87v-9q-8 -31 -31.5 -76.5t-48.5 -74.5h-48v12zM1216 644q28 0 44.5 -21.5t16.5 -74.5q-1 -6 -5.5 -6.5t-6.5 5.5q-2 18 -13 31t-27 18.5t-35.5 3t-38.5 -16.5q-49 -35 -90 -99t-72 -141.5t-49 -162.5t-21 -162q0 -11 -2 -14.5t-7 -3.5
q-4 0 -6.5 4.5t-4.5 10.5q-45 171 -108 301.5t-144 205.5q-22 -124 -63 -221t-96 -164t-120 -102t-134 -35q-71 0 -115 30.5t-60 75t-3 95t56 89.5q5 1 7.5 -2.5t0.5 -8.5q-29 -29 -37 -69.5t8 -77.5t57 -63t111 -26q69 0 129 33.5t107.5 97t81 156t50.5 210.5
q-42 35 -87 53t-94 18q-48 0 -79.5 -22t-45.5 -49q-3 -2 -6.5 -1t-4.5 6q9 19 24.5 37t35.5 31.5t46 22t56 8.5q42 0 82.5 -15.5t78.5 -44.5v2q1 6 5 14t8.5 14.5t8.5 9t5 -2.5q-1 -14 -2.5 -27.5t-3.5 -26.5q43 -38 82 -89t72 -111t59.5 -126.5t46.5 -134.5q7 60 23 123.5
t39 123t51.5 112.5t60 93t64 63t64.5 23z" />
    <glyph glyph-name="uni0146" unicode="&#x146;" horiz-adv-x="618" 
d="M222 -209q11 25 24 70.5t17 77.5h87v-9q-8 -31 -31.5 -76.5t-48.5 -74.5h-48v12zM282 64q3 2 6 0t2 -6q-17 -23 -37.5 -40.5t-38.5 -17.5q-31 0 -31 40q0 34 12 75.5t33 83.5q4 7 4 14q0 11 -10 11q-37 0 -81.5 -51t-82.5 -160q-2 -6 -11 -9.5t-17 -3.5q-11 0 -8 9
q17 43 35.5 97t32.5 107q4 19 -7 19q-10 0 -20 -10t-21 -26q-2 -2 -4.5 1t-1.5 6q11 17 30 35t41 18q25 0 17 -34q-4 -22 -11 -46.5t-15 -48.5q14 27 33 51t39.5 41t41 27t38.5 10q12 0 18.5 -6t6.5 -14q0 -13 -6 -26q-21 -38 -35.5 -79.5t-14.5 -76.5q0 -25 16 -25
q21 0 47 35z" />
    <glyph glyph-name="Ncaron" unicode="&#x147;" horiz-adv-x="759" 
d="M185 493q-6 -5 -12 1q-11 14 -29.5 29t-37.5 23q-5 5 5 10t22 3q18 -7 30 -14.5t28 -19.5q12 8 28.5 18t32.5 18q11 0 6 -9q-17 -10 -37.5 -24.5t-35.5 -34.5zM1216 644q28 0 44.5 -21.5t16.5 -74.5q-1 -6 -5.5 -6.5t-6.5 5.5q-2 18 -13 31t-27 18.5t-35.5 3t-38.5 -16.5
q-49 -35 -90 -99t-72 -141.5t-49 -162.5t-21 -162q0 -11 -2 -14.5t-7 -3.5q-4 0 -6.5 4.5t-4.5 10.5q-45 171 -108 301.5t-144 205.5q-22 -124 -63 -221t-96 -164t-120 -102t-134 -35q-71 0 -115 30.5t-60 75t-3 95t56 89.5q5 1 7.5 -2.5t0.5 -8.5q-29 -29 -37 -69.5
t8 -77.5t57 -63t111 -26q69 0 129 33.5t107.5 97t81 156t50.5 210.5q-42 35 -87 53t-94 18q-48 0 -79.5 -22t-45.5 -49q-3 -2 -6.5 -1t-4.5 6q9 19 24.5 37t35.5 31.5t46 22t56 8.5q42 0 82.5 -15.5t78.5 -44.5v2q1 6 5 14t8.5 14.5t8.5 9t5 -2.5q-1 -14 -2.5 -27.5
t-3.5 -26.5q43 -38 82 -89t72 -111t59.5 -126.5t46.5 -134.5q7 60 23 123.5t39 123t51.5 112.5t60 93t64 63t64.5 23z" />
    <glyph glyph-name="ncaron" unicode="&#x148;" horiz-adv-x="618" 
d="M118 328q-6 -5 -12 1q-11 14 -29.5 29t-37.5 23q-5 5 5 10t22 3q18 -7 30 -14.5t28 -19.5q12 8 28.5 18t32.5 18q11 0 6 -9q-17 -10 -37.5 -24.5t-35.5 -34.5zM282 64q3 2 6 0t2 -6q-17 -23 -37.5 -40.5t-38.5 -17.5q-31 0 -31 40q0 34 12 75.5t33 83.5q4 7 4 14
q0 11 -10 11q-37 0 -81.5 -51t-82.5 -160q-2 -6 -11 -9.5t-17 -3.5q-11 0 -8 9q17 43 35.5 97t32.5 107q4 19 -7 19q-10 0 -20 -10t-21 -26q-2 -2 -4.5 1t-1.5 6q11 17 30 35t41 18q25 0 17 -34q-4 -22 -11 -46.5t-15 -48.5q14 27 33 51t39.5 41t41 27t38.5 10q12 0 18.5 -6
t6.5 -14q0 -13 -6 -26q-21 -38 -35.5 -79.5t-14.5 -76.5q0 -25 16 -25q21 0 47 35z" />
    <glyph glyph-name="napostrophe" unicode="&#x149;" horiz-adv-x="690" 
d="M145 714l7 -11q-25 -97 -86 -234h-65q34 139 50 245h94zM353 64q3 2 6 0t2 -6q-17 -23 -37.5 -40.5t-38.5 -17.5q-31 0 -31 40q0 34 12 75.5t33 83.5q4 7 4 14q0 11 -10 11q-37 0 -81.5 -51t-82.5 -160q-2 -6 -11 -9.5t-17 -3.5q-11 0 -8 9q17 43 35.5 97t32.5 107
q4 19 -7 19q-10 0 -20 -10t-21 -26q-2 -2 -4.5 1t-1.5 6q11 17 30 35t41 18q25 0 17 -34q-4 -22 -11 -46.5t-15 -48.5q14 27 33 51t39.5 41t41 27t38.5 10q12 0 18.5 -6t6.5 -14q0 -13 -6 -26q-21 -38 -35.5 -79.5t-14.5 -76.5q0 -25 16 -25q21 0 47 35z" />
    <glyph glyph-name="Eng" unicode="&#x14a;" horiz-adv-x="759" 
d="M475 -190q-48 0 -76 13v76q35 -10 76 -10q50 0 76.5 28.5t27.5 82.5l-403 593h-4q8 -125 8 -206v-387h-83v714h104l381 -572h4q-7 75 -7 200v372h84v-708q0 -96 -48.5 -146t-139.5 -50z" />
    <glyph glyph-name="eng" unicode="&#x14b;" horiz-adv-x="618" 
d="M394 -240q-42 0 -71 12v71q29 -10 60 -10q67 0 67 84v427q0 65 -29 96.5t-90 31.5q-83 0 -120.5 -45.5t-37.5 -147.5v-279h-88v536h71l14 -73h5q25 40 69 61.5t98 21.5q99 0 147.5 -46.5t48.5 -149.5v-430q0 -75 -35 -117.5t-109 -42.5z" />
    <glyph glyph-name="Omacron" unicode="&#x14c;" horiz-adv-x="780" 
d="M242 842h297v-71h-297v71zM446 645q47 0 85 -18t64.5 -50t41 -75.5t14.5 -95.5q0 -82 -31.5 -155.5t-82.5 -129t-117 -88.5t-135 -33q-53 0 -93 19t-67 51t-41 74t-14 88q0 76 29 150.5t80 132.5t119.5 94t147.5 36zM328 31q52 0 102.5 25t90.5 70.5t65 109t25 140.5
q0 110 -52.5 172.5t-144.5 62.5q-67 0 -122.5 -27t-95.5 -74t-62 -110t-22 -135q0 -52 14.5 -95t42 -74t68 -48t91.5 -17z" />
    <glyph glyph-name="omacron" unicode="&#x14d;" horiz-adv-x="604" 
d="M154 677h297v-71h-297v71zM162 256q27 0 40 -18t13 -47q0 -34 -13 -68t-33 -61.5t-43.5 -44.5t-43.5 -17q-24 0 -38 19t-14 54q0 28 11 60t29.5 59.5t42 45.5t49.5 18zM102 31q15 0 29.5 10.5t25.5 28t17.5 40.5t6.5 48q0 30 -10 47.5t-33 17.5q-15 0 -29 -10.5
t-24.5 -28t-16.5 -41t-6 -49.5q0 -63 40 -63z" />
    <glyph glyph-name="Obreve" unicode="&#x14e;" horiz-adv-x="780" 
d="M182 493q-27 0 -45 12.5t-22 34.5q0 8 8.5 15.5t12.5 2.5q5 -22 19 -33.5t40 -11.5t41.5 12t25.5 34q3 3 6.5 1.5t3.5 -6.5q-11 -26 -34 -43.5t-56 -17.5zM446 645q47 0 85 -18t64.5 -50t41 -75.5t14.5 -95.5q0 -82 -31.5 -155.5t-82.5 -129t-117 -88.5t-135 -33
q-53 0 -93 19t-67 51t-41 74t-14 88q0 76 29 150.5t80 132.5t119.5 94t147.5 36zM328 31q52 0 102.5 25t90.5 70.5t65 109t25 140.5q0 110 -52.5 172.5t-144.5 62.5q-67 0 -122.5 -27t-95.5 -74t-62 -110t-22 -135q0 -52 14.5 -95t42 -74t68 -48t91.5 -17z" />
    <glyph glyph-name="obreve" unicode="&#x14f;" horiz-adv-x="604" 
d="M94 328q-27 0 -45 12.5t-22 34.5q0 8 8.5 15.5t12.5 2.5q5 -22 19 -33.5t40 -11.5t41.5 12t25.5 34q3 3 6.5 1.5t3.5 -6.5q-11 -26 -34 -43.5t-56 -17.5zM162 256q27 0 40 -18t13 -47q0 -34 -13 -68t-33 -61.5t-43.5 -44.5t-43.5 -17q-24 0 -38 19t-14 54q0 28 11 60
t29.5 59.5t42 45.5t49.5 18zM102 31q15 0 29.5 10.5t25.5 28t17.5 40.5t6.5 48q0 30 -10 47.5t-33 17.5q-15 0 -29 -10.5t-24.5 -28t-16.5 -41t-6 -49.5q0 -63 40 -63z" />
    <glyph glyph-name="Ohungarumlaut" unicode="&#x150;" horiz-adv-x="780" 
d="M230 546q5 3 18.5 -1t22.5 -8q7 -4 1 -10q-9 -6 -23 -13t-29 -13.5t-30.5 -12t-28.5 -9.5q-4 0 -4 3.5t4 7.5q13 8 34 23.5t35 32.5zM326 546q5 3 18.5 -1t22.5 -8q7 -4 1 -10q-9 -6 -23 -13t-29 -13.5t-30.5 -12t-28.5 -9.5q-4 0 -4 3.5t4 7.5q13 8 34 23.5t35 32.5z
M446 645q47 0 85 -18t64.5 -50t41 -75.5t14.5 -95.5q0 -82 -31.5 -155.5t-82.5 -129t-117 -88.5t-135 -33q-53 0 -93 19t-67 51t-41 74t-14 88q0 76 29 150.5t80 132.5t119.5 94t147.5 36zM328 31q52 0 102.5 25t90.5 70.5t65 109t25 140.5q0 110 -52.5 172.5t-144.5 62.5
q-67 0 -122.5 -27t-95.5 -74t-62 -110t-22 -135q0 -52 14.5 -95t42 -74t68 -48t91.5 -17z" />
    <glyph glyph-name="ohungarumlaut" unicode="&#x151;" horiz-adv-x="604" 
d="M138 381q5 3 18.5 -1t22.5 -8q7 -4 1 -10q-9 -6 -23 -13t-29 -13.5t-30.5 -12t-28.5 -9.5q-4 0 -4 3.5t4 7.5q13 8 34 23.5t35 32.5zM234 381q5 3 18.5 -1t22.5 -8q7 -4 1 -10q-9 -6 -23 -13t-29 -13.5t-30.5 -12t-28.5 -9.5q-4 0 -4 3.5t4 7.5q13 8 34 23.5t35 32.5z
M162 256q27 0 40 -18t13 -47q0 -34 -13 -68t-33 -61.5t-43.5 -44.5t-43.5 -17q-24 0 -38 19t-14 54q0 28 11 60t29.5 59.5t42 45.5t49.5 18zM102 31q15 0 29.5 10.5t25.5 28t17.5 40.5t6.5 48q0 30 -10 47.5t-33 17.5q-15 0 -29 -10.5t-24.5 -28t-16.5 -41t-6 -49.5
q0 -63 40 -63z" />
    <glyph glyph-name="OE" unicode="&#x152;" horiz-adv-x="827" 
d="M753 644q24 0 46.5 -4.5t40.5 -12t28.5 -17t10.5 -19.5q0 -8 -3.5 -18.5t-8 -21.5t-9.5 -20.5t-8 -13.5q-3 -2 -6 -0.5t-2 5.5q6 11 9 24.5t-5 26.5q-11 18 -42 36t-71 18q-33 0 -57 -9t-40.5 -24t-24.5 -33.5t-8 -37.5q0 -35 23.5 -59.5t80.5 -41.5q3 -2 0.5 -6.5
t-7.5 -9.5t-11.5 -9t-10.5 -5q-113 5 -174.5 -48.5t-61.5 -161.5q0 -35 10.5 -65t30 -52t47 -34.5t62.5 -12.5q82 0 134 38.5t75 122.5q3 5 6.5 3t4.5 -8q-13 -56 -29 -93t-30 -43q-35 -16 -84.5 -27t-100.5 -11q-41 0 -72.5 12.5t-53.5 32.5q-37 -22 -76.5 -33.5
t-80.5 -11.5q-53 0 -93.5 19t-67.5 51t-40.5 74t-13.5 88q0 76 29 150t80 132.5t119.5 94t147.5 35.5q46 0 83.5 -17t63.5 -48q26 29 67 47t93 18zM631 412q-32 17 -50 40t-18 50q0 15 5 32q-26 37 -65 56.5t-90 19.5q-67 0 -122.5 -27t-95 -74t-61.5 -109.5t-22 -134.5
q0 -52 14.5 -95.5t42 -74.5t67.5 -48t91 -17q54 0 104 26q-18 21 -27.5 47.5t-9.5 54.5q0 48 17.5 90.5t49 75.5t75 56t95.5 32z" />
    <glyph glyph-name="oe" unicode="&#x153;" horiz-adv-x="345" 
d="M345 211q0 -14 -11.5 -26t-30 -22t-43 -18t-51.5 -15q-2 -10 -2 -21v-24q0 -26 11 -42.5t31 -16.5t37.5 10t31.5 27q4 2 6 -1.5t0 -7.5q-17 -23 -42.5 -39.5t-53.5 -16.5q-26 0 -42 16.5t-17 47.5q-20 -28 -43.5 -45t-43.5 -17q-24 0 -38 18.5t-14 53.5q0 28 11 60
t29 59.5t42 45.5t50 18t36.5 -18t11.5 -45q18 27 41 44.5t49 17.5q19 0 32 -13t13 -30zM279 228q-23 0 -41 -20t-26 -63q93 15 93 52q0 13 -7 22t-19 9zM101 30q16 0 30.5 10.5t25.5 28.5t17.5 41t6.5 47q0 30 -10 48t-33 18q-15 0 -29 -10.5t-24.5 -28.5t-16.5 -41.5
t-6 -49.5q0 -63 39 -63z" />
    <glyph glyph-name="Racute" unicode="&#x154;" horiz-adv-x="622" 
d="M853 75q2 3 6.5 2.5t3.5 -5.5q-22 -33 -50 -52.5t-60 -19.5q-44 0 -75 25t-53.5 67.5t-37.5 98.5t-28 117q0 6 4 9q5 2 11 4.5t17 7.5q3 1 8.5 -0.5t14.5 -3t21.5 -1.5t29.5 4q52 12 81 48t29 90q0 64 -38 106t-105 47q-28 -32 -49.5 -82.5t-39.5 -117.5
q-29 -110 -68.5 -189.5t-87.5 -130.5t-104 -75t-118 -24q-30 0 -51.5 9t-36 25t-21.5 36.5t-7 43.5q0 38 20.5 75.5t54.5 54.5q9 2 7 -8q-30 -15 -44.5 -42.5t-14.5 -57.5q0 -52 31 -79t89 -27q52 0 94.5 15.5t77.5 54t65 104.5t58 167q24 86 52 147.5t66 101.5
q-188 -4 -286 -143q-3 -2 -6.5 0t-1.5 7q48 70 128 112.5t193 46.5q17 13 36 22.5t42 14.5q5 0 5 -3.5t-5 -5.5q-29 -8 -53 -27q35 0 64 -13.5t50 -35.5t32.5 -49.5t11.5 -57.5q0 -40 -18 -74t-47.5 -58t-68 -36.5t-79.5 -10.5q16 -86 35 -140t42 -84.5t49.5 -41.5t56.5 -11
q21 0 36.5 10.5t31.5 32.5zM153 546q5 3 18.5 -1t22.5 -8q7 -4 1 -10q-9 -6 -23 -13t-29 -13.5t-30.5 -12t-28.5 -9.5q-4 0 -4 3.5t4 7.5q13 8 34 23.5t35 32.5z" />
    <glyph glyph-name="racute" unicode="&#x155;" horiz-adv-x="413" 
d="M121 228q0 -15 -3 -35t-8 -40q20 48 44 75.5t52 27.5q11 0 20 -6t9 -17q0 -8 -6 -20.5t-12 -18.5q-6 -4 -6 3q0 17 -23 17q-35 0 -63 -52.5t-53 -145.5q-2 -10 -13.5 -13t-19.5 -3q-11 0 -5 11q9 21 17 45.5t15.5 49.5t12.5 49t8 44q4 30 -10 30q-8 0 -18.5 -9t-19.5 -21
q-4 -2 -7 0.5t-1 6.5q15 19 33.5 34.5t34.5 15.5q22 0 22 -28zM78 381q5 3 18.5 -1t22.5 -8q7 -4 1 -10q-9 -6 -23 -13t-29 -13.5t-30.5 -12t-28.5 -9.5q-4 0 -4 3.5t4 7.5q13 8 34 23.5t35 32.5z" />
    <glyph glyph-name="uni0156" unicode="&#x156;" horiz-adv-x="622" 
d="M242 -209q11 25 24 70.5t17 77.5h87v-9q-8 -31 -31.5 -76.5t-48.5 -74.5h-48v12zM853 75q2 3 6.5 2.5t3.5 -5.5q-22 -33 -50 -52.5t-60 -19.5q-44 0 -75 25t-53.5 67.5t-37.5 98.5t-28 117q0 6 4 9q5 2 11 4.5t17 7.5q3 1 8.5 -0.5t14.5 -3t21.5 -1.5t29.5 4q52 12 81 48
t29 90q0 64 -38 106t-105 47q-28 -32 -49.5 -82.5t-39.5 -117.5q-29 -110 -68.5 -189.5t-87.5 -130.5t-104 -75t-118 -24q-30 0 -51.5 9t-36 25t-21.5 36.5t-7 43.5q0 38 20.5 75.5t54.5 54.5q9 2 7 -8q-30 -15 -44.5 -42.5t-14.5 -57.5q0 -52 31 -79t89 -27q52 0 94.5 15.5
t77.5 54t65 104.5t58 167q24 86 52 147.5t66 101.5q-188 -4 -286 -143q-3 -2 -6.5 0t-1.5 7q48 70 128 112.5t193 46.5q17 13 36 22.5t42 14.5q5 0 5 -3.5t-5 -5.5q-29 -8 -53 -27q35 0 64 -13.5t50 -35.5t32.5 -49.5t11.5 -57.5q0 -40 -18 -74t-47.5 -58t-68 -36.5
t-79.5 -10.5q16 -86 35 -140t42 -84.5t49.5 -41.5t56.5 -11q21 0 36.5 10.5t31.5 32.5z" />
    <glyph glyph-name="uni0157" unicode="&#x157;" horiz-adv-x="413" 
d="M48 -209q11 25 24 70.5t17 77.5h87v-9q-8 -31 -31.5 -76.5t-48.5 -74.5h-48v12zM121 228q0 -15 -3 -35t-8 -40q20 48 44 75.5t52 27.5q11 0 20 -6t9 -17q0 -8 -6 -20.5t-12 -18.5q-6 -4 -6 3q0 17 -23 17q-35 0 -63 -52.5t-53 -145.5q-2 -10 -13.5 -13t-19.5 -3
q-11 0 -5 11q9 21 17 45.5t15.5 49.5t12.5 49t8 44q4 30 -10 30q-8 0 -18.5 -9t-19.5 -21q-4 -2 -7 0.5t-1 6.5q15 19 33.5 34.5t34.5 15.5q22 0 22 -28z" />
    <glyph glyph-name="Rcaron" unicode="&#x158;" horiz-adv-x="622" 
d="M115 493q-6 -5 -12 1q-11 14 -29.5 29t-37.5 23q-5 5 5 10t22 3q18 -7 30 -14.5t28 -19.5q12 8 28.5 18t32.5 18q11 0 6 -9q-17 -10 -37.5 -24.5t-35.5 -34.5zM853 75q2 3 6.5 2.5t3.5 -5.5q-22 -33 -50 -52.5t-60 -19.5q-44 0 -75 25t-53.5 67.5t-37.5 98.5t-28 117
q0 6 4 9q5 2 11 4.5t17 7.5q3 1 8.5 -0.5t14.5 -3t21.5 -1.5t29.5 4q52 12 81 48t29 90q0 64 -38 106t-105 47q-28 -32 -49.5 -82.5t-39.5 -117.5q-29 -110 -68.5 -189.5t-87.5 -130.5t-104 -75t-118 -24q-30 0 -51.5 9t-36 25t-21.5 36.5t-7 43.5q0 38 20.5 75.5t54.5 54.5
q9 2 7 -8q-30 -15 -44.5 -42.5t-14.5 -57.5q0 -52 31 -79t89 -27q52 0 94.5 15.5t77.5 54t65 104.5t58 167q24 86 52 147.5t66 101.5q-188 -4 -286 -143q-3 -2 -6.5 0t-1.5 7q48 70 128 112.5t193 46.5q17 13 36 22.5t42 14.5q5 0 5 -3.5t-5 -5.5q-29 -8 -53 -27
q35 0 64 -13.5t50 -35.5t32.5 -49.5t11.5 -57.5q0 -40 -18 -74t-47.5 -58t-68 -36.5t-79.5 -10.5q16 -86 35 -140t42 -84.5t49.5 -41.5t56.5 -11q21 0 36.5 10.5t31.5 32.5z" />
    <glyph glyph-name="rcaron" unicode="&#x159;" horiz-adv-x="413" 
d="M36 328q-6 -5 -12 1q-11 14 -29.5 29t-37.5 23q-5 5 5 10t22 3q18 -7 30 -14.5t28 -19.5q12 8 28.5 18t32.5 18q11 0 6 -9q-17 -10 -37.5 -24.5t-35.5 -34.5zM121 228q0 -15 -3 -35t-8 -40q20 48 44 75.5t52 27.5q11 0 20 -6t9 -17q0 -8 -6 -20.5t-12 -18.5q-6 -4 -6 3
q0 17 -23 17q-35 0 -63 -52.5t-53 -145.5q-2 -10 -13.5 -13t-19.5 -3q-11 0 -5 11q9 21 17 45.5t15.5 49.5t12.5 49t8 44q4 30 -10 30q-8 0 -18.5 -9t-19.5 -21q-4 -2 -7 0.5t-1 6.5q15 19 33.5 34.5t34.5 15.5q22 0 22 -28z" />
    <glyph glyph-name="Sacute" unicode="&#x15a;" horiz-adv-x="548" 
d="M50 121q0 34 17.5 62.5t50.5 45.5q4 2 5.5 -2.5t-0.5 -7.5q-36 -20 -36 -72q0 -26 11 -48.5t31.5 -39t50 -26.5t67.5 -10q91 0 134.5 39t43.5 96q0 38 -11 69t-27.5 58.5t-35.5 52.5t-35.5 50t-27.5 52t-11 59q0 30 12 56.5t32 46t47.5 31t59.5 11.5q45 0 71 -23t26 -52
q0 -17 -11 -37t-22 -35q-4 -2 -6.5 0.5t-2.5 7.5q13 16 13 44q0 29 -25.5 49.5t-67.5 20.5q-43 0 -69.5 -24.5t-26.5 -61.5q0 -30 11.5 -56.5t28.5 -53t36.5 -53t36.5 -55t28.5 -60t11.5 -68.5q0 -41 -18 -75.5t-49 -59.5t-73 -38.5t-89 -13.5q-88 0 -134.5 34t-46.5 87z
M131 546q5 3 18.5 -1t22.5 -8q7 -4 1 -10q-9 -6 -23 -13t-29 -13.5t-30.5 -12t-28.5 -9.5q-4 0 -4 3.5t4 7.5q13 8 34 23.5t35 32.5z" />
    <glyph glyph-name="sacute" unicode="&#x15b;" horiz-adv-x="479" 
d="M139 256q20 0 33.5 -6.5t13.5 -14.5q0 -11 -4.5 -25t-9.5 -23q-2 -2 -5.5 -0.5t-2.5 4.5q3 7 4 16t-1 16q-5 20 -28 20q-17 0 -27.5 -10t-10.5 -30q0 -16 8.5 -30.5t19 -29t19 -31t8.5 -36.5q0 -32 -22.5 -54t-67.5 -22q-31 0 -51 11t-20 23q0 9 11 27t25 29q3 2 5.5 -1
t0.5 -6q-8 -8 -12 -18.5t-2 -18.5q3 -17 15.5 -25.5t29.5 -8.5q26 0 40.5 14t14.5 36q0 19 -9 35.5t-19.5 32t-19 31t-8.5 33.5q0 26 19.5 44t52.5 18zM85 381q5 3 18.5 -1t22.5 -8q7 -4 1 -10q-9 -6 -23 -13t-29 -13.5t-30.5 -12t-28.5 -9.5q-4 0 -4 3.5t4 7.5
q13 8 34 23.5t35 32.5z" />
    <glyph glyph-name="Scircumflex" unicode="&#x15c;" horiz-adv-x="548" 
d="M84 558q6 5 12 -1q11 -14 29.5 -29t37.5 -23q5 -5 -5 -10t-22 -3q-18 7 -30 14.5t-28 19.5q-12 -8 -28.5 -18t-32.5 -18q-11 0 -6 9q17 10 37.5 24.5t35.5 34.5zM50 121q0 34 17.5 62.5t50.5 45.5q4 2 5.5 -2.5t-0.5 -7.5q-36 -20 -36 -72q0 -26 11 -48.5t31.5 -39
t50 -26.5t67.5 -10q91 0 134.5 39t43.5 96q0 38 -11 69t-27.5 58.5t-35.5 52.5t-35.5 50t-27.5 52t-11 59q0 30 12 56.5t32 46t47.5 31t59.5 11.5q45 0 71 -23t26 -52q0 -17 -11 -37t-22 -35q-4 -2 -6.5 0.5t-2.5 7.5q13 16 13 44q0 29 -25.5 49.5t-67.5 20.5
q-43 0 -69.5 -24.5t-26.5 -61.5q0 -30 11.5 -56.5t28.5 -53t36.5 -53t36.5 -55t28.5 -60t11.5 -68.5q0 -41 -18 -75.5t-49 -59.5t-73 -38.5t-89 -13.5q-88 0 -134.5 34t-46.5 87z" />
    <glyph glyph-name="scircumflex" unicode="&#x15d;" horiz-adv-x="479" 
d="M45 393q6 5 12 -1q11 -14 29.5 -29t37.5 -23q5 -5 -5 -10t-22 -3q-18 7 -30 14.5t-28 19.5q-12 -8 -28.5 -18t-32.5 -18q-11 0 -6 9q17 10 37.5 24.5t35.5 34.5zM139 256q20 0 33.5 -6.5t13.5 -14.5q0 -11 -4.5 -25t-9.5 -23q-2 -2 -5.5 -0.5t-2.5 4.5q3 7 4 16t-1 16
q-5 20 -28 20q-17 0 -27.5 -10t-10.5 -30q0 -16 8.5 -30.5t19 -29t19 -31t8.5 -36.5q0 -32 -22.5 -54t-67.5 -22q-31 0 -51 11t-20 23q0 9 11 27t25 29q3 2 5.5 -1t0.5 -6q-8 -8 -12 -18.5t-2 -18.5q3 -17 15.5 -25.5t29.5 -8.5q26 0 40.5 14t14.5 36q0 19 -9 35.5t-19.5 32
t-19 31t-8.5 33.5q0 26 19.5 44t52.5 18z" />
    <glyph glyph-name="Scedilla" unicode="&#x15e;" horiz-adv-x="548" 
d="M50 121q0 34 17.5 62.5t50.5 45.5q4 2 5.5 -2.5t-0.5 -7.5q-36 -20 -36 -72q0 -26 11 -48.5t31.5 -39t50 -26.5t67.5 -10q91 0 134.5 39t43.5 96q0 38 -11 69t-27.5 58.5t-35.5 52.5t-35.5 50t-27.5 52t-11 59q0 30 12 56.5t32 46t47.5 31t59.5 11.5q45 0 71 -23t26 -52
q0 -17 -11 -37t-22 -35q-4 -2 -6.5 0.5t-2.5 7.5q13 16 13 44q0 29 -25.5 49.5t-67.5 20.5q-43 0 -69.5 -24.5t-26.5 -61.5q0 -30 11.5 -56.5t28.5 -53t36.5 -53t36.5 -55t28.5 -60t11.5 -68.5q0 -41 -18 -75.5t-49 -59.5t-73 -38.5t-89 -13.5q-88 0 -134.5 34t-46.5 87z
M240 4q-12 -8 -16 -19.5t0 -21.5q8 -22 -5.5 -47t-48.5 -39q-3 0 -3.5 3.5t1.5 6.5q26 12 33.5 26t1.5 34q-5 16 0.5 32.5t28.5 30.5q5 1 7 -1.5t1 -4.5z" />
    <glyph glyph-name="scedilla" unicode="&#x15f;" horiz-adv-x="479" 
d="M139 256q20 0 33.5 -6.5t13.5 -14.5q0 -11 -4.5 -25t-9.5 -23q-2 -2 -5.5 -0.5t-2.5 4.5q3 7 4 16t-1 16q-5 20 -28 20q-17 0 -27.5 -10t-10.5 -30q0 -16 8.5 -30.5t19 -29t19 -31t8.5 -36.5q0 -32 -22.5 -54t-67.5 -22q-31 0 -51 11t-20 23q0 9 11 27t25 29q3 2 5.5 -1
t0.5 -6q-8 -8 -12 -18.5t-2 -18.5q3 -17 15.5 -25.5t29.5 -8.5q26 0 40.5 14t14.5 36q0 19 -9 35.5t-19.5 32t-19 31t-8.5 33.5q0 26 19.5 44t52.5 18zM202 4q-12 -8 -16 -19.5t0 -21.5q8 -22 -5.5 -47t-48.5 -39q-3 0 -3.5 3.5t1.5 6.5q26 12 33.5 26t1.5 34
q-5 16 0.5 32.5t28.5 30.5q5 1 7 -1.5t1 -4.5z" />
    <glyph glyph-name="Scaron" unicode="&#x160;" horiz-adv-x="480" 
d="M443 671q-6 -4 -12 1q-13 17 -33.5 35t-39.5 26q-5 5 4 10t22 3q18 -8 34 -19.5t31 -24.5q6 5 16 11.5t20.5 13t21 12t17.5 9.5q5 0 6 -3t-1 -7q-17 -10 -43.5 -28.5t-42.5 -38.5zM50 121q0 34 17.5 62.5t50.5 45.5q4 2 5.5 -2.5t-0.5 -7.5q-36 -20 -36 -72
q0 -26 11 -48.5t31.5 -39t50 -26.5t67.5 -10q91 0 134.5 39t43.5 96q0 38 -11 69t-27.5 58.5t-35.5 52.5t-35.5 50t-27.5 52t-11 59q0 30 12 56.5t32 46t47.5 31t59.5 11.5q45 0 71 -23t26 -52q0 -17 -11 -37t-22 -35q-4 -2 -6.5 0.5t-2.5 7.5q13 16 13 44q0 29 -25.5 49.5
t-67.5 20.5q-43 0 -69.5 -24.5t-26.5 -61.5q0 -30 11.5 -56.5t28.5 -53t36.5 -53t36.5 -55t28.5 -60t11.5 -68.5q0 -41 -18 -75.5t-49 -59.5t-73 -38.5t-89 -13.5q-88 0 -134.5 34t-46.5 87z" />
    <glyph glyph-name="scaron" unicode="&#x161;" horiz-adv-x="188" 
d="M164 328q-6 -5 -12 1q-11 14 -29.5 29t-37.5 23q-5 5 5 10t22 3q18 -7 30 -14.5t28 -19.5q12 8 28.5 18t32.5 18q11 0 6 -9q-17 -10 -37.5 -24.5t-35.5 -34.5zM139 256q20 0 33.5 -6.5t13.5 -14.5q0 -11 -4.5 -25t-9.5 -23q-2 -2 -5.5 -0.5t-2.5 4.5q3 7 4 16t-1 16
q-5 20 -28 20q-17 0 -27.5 -10t-10.5 -30q0 -16 8.5 -30.5t19 -29t19 -31t8.5 -36.5q0 -32 -22.5 -54t-67.5 -22q-31 0 -51 11t-20 23q0 9 11 27t25 29q3 2 5.5 -1t0.5 -6q-8 -8 -12 -18.5t-2 -18.5q3 -17 15.5 -25.5t29.5 -8.5q26 0 40.5 14t14.5 36q0 19 -9 35.5t-19.5 32
t-19 31t-8.5 33.5q0 26 19.5 44t52.5 18z" />
    <glyph glyph-name="uni0162" unicode="&#x162;" horiz-adv-x="556" 
d="M809 587q6 -6 -1 -15q-16 -23 -24 -20q-12 4 -24 7.5t-25 6.5q-56 -5 -100 -58.5t-79 -168.5q-52 -169 -144.5 -253.5t-223.5 -84.5q-36 0 -62 9.5t-43 25t-25 36t-8 41.5q0 60 59 100q4 0 5 -4t-1 -7q-14 -11 -20.5 -23.5t-6.5 -35.5q0 -51 35.5 -80.5t105.5 -29.5
q48 0 88 13t73.5 44.5t62 84.5t54.5 133q36 112 86 180.5t113 85.5q-67 17 -139 27t-143 10q-56 0 -99.5 -18.5t-72.5 -49.5t-42 -72.5t-7 -86.5q-6 -9 -11 -1q-6 49 7.5 96t46.5 84t86 59t125 22q107 0 194.5 -17.5t159.5 -39.5zM253 4q-12 -8 -16 -19.5t0 -21.5
q8 -22 -5.5 -47t-48.5 -39q-3 0 -3.5 3.5t1.5 6.5q26 12 33.5 26t1.5 34q-5 16 0.5 32.5t28.5 30.5q5 1 7 -1.5t1 -4.5z" />
    <glyph glyph-name="uni0163" unicode="&#x163;" horiz-adv-x="360" 
d="M206 252q5 -2 4 -6t-9 -5q-16 -1 -35.5 -2t-39.5 -3q-20 -50 -33 -96t-13 -76q0 -34 26 -34t57 46q3 2 6 -0.5t2 -7.5q-9 -14 -20.5 -26.5t-23.5 -21.5t-23 -14.5t-18 -5.5q-22 0 -32.5 13.5t-10.5 32.5q0 33 14 83t35 103q-13 -2 -25 -4t-23 -4q-5 1 -2.5 5t9 8
t15.5 7.5t17 3.5q5 1 8.5 1h7.5q14 31 28 59.5t28 52.5q6 6 13.5 10.5t14.5 6t11 1t3 -3.5q-17 -26 -33.5 -58t-31.5 -66q18 0 36 0.5t38 0.5zM194 4q-12 -8 -16 -19.5t0 -21.5q8 -22 -5.5 -47t-48.5 -39q-3 0 -3.5 3.5t1.5 6.5q26 12 33.5 26t1.5 34q-5 16 0.5 32.5
t28.5 30.5q5 1 7 -1.5t1 -4.5z" />
    <glyph glyph-name="Tcaron" unicode="&#x164;" horiz-adv-x="556" 
d="M84 493q-6 -5 -12 1q-11 14 -29.5 29t-37.5 23q-5 5 5 10t22 3q18 -7 30 -14.5t28 -19.5q12 8 28.5 18t32.5 18q11 0 6 -9q-17 -10 -37.5 -24.5t-35.5 -34.5zM809 587q6 -6 -1 -15q-16 -23 -24 -20q-12 4 -24 7.5t-25 6.5q-56 -5 -100 -58.5t-79 -168.5
q-52 -169 -144.5 -253.5t-223.5 -84.5q-36 0 -62 9.5t-43 25t-25 36t-8 41.5q0 60 59 100q4 0 5 -4t-1 -7q-14 -11 -20.5 -23.5t-6.5 -35.5q0 -51 35.5 -80.5t105.5 -29.5q48 0 88 13t73.5 44.5t62 84.5t54.5 133q36 112 86 180.5t113 85.5q-67 17 -139 27t-143 10
q-56 0 -99.5 -18.5t-72.5 -49.5t-42 -72.5t-7 -86.5q-6 -9 -11 -1q-6 49 7.5 96t46.5 84t86 59t125 22q107 0 194.5 -17.5t159.5 -39.5z" />
    <glyph glyph-name="tcaron" unicode="&#x165;" horiz-adv-x="360" 
d="M246 612q11 32 20.5 77.5t12.5 70.5h87v-9q-6 -26 -27 -71t-45 -80h-48v12zM206 252q5 -2 4 -6t-9 -5q-16 -1 -35.5 -2t-39.5 -3q-20 -50 -33 -96t-13 -76q0 -34 26 -34t57 46q3 2 6 -0.5t2 -7.5q-9 -14 -20.5 -26.5t-23.5 -21.5t-23 -14.5t-18 -5.5q-22 0 -32.5 13.5
t-10.5 32.5q0 33 14 83t35 103q-13 -2 -25 -4t-23 -4q-5 1 -2.5 5t9 8t15.5 7.5t17 3.5q5 1 8.5 1h7.5q14 31 28 59.5t28 52.5q6 6 13.5 10.5t14.5 6t11 1t3 -3.5q-17 -26 -33.5 -58t-31.5 -66q18 0 36 0.5t38 0.5z" />
    <glyph glyph-name="Tbar" unicode="&#x166;" horiz-adv-x="556" 
d="M232 399v235h-222v80h535v-80h-223v-235h148v-74h-148v-325h-90v325h-149v74h149z" />
    <glyph glyph-name="tbar" unicode="&#x167;" horiz-adv-x="360" 
d="M266 62q42 0 73 11v-67q-13 -6 -39 -11t-54 -5q-154 0 -154 171v119h-68v66h68v122h-76v42l77 35l35 114h52v-123h155v-68h-155v-122h146v-66h-146v-114q0 -52 21 -78t65 -26z" />
    <glyph glyph-name="Utilde" unicode="&#x168;" horiz-adv-x="730" 
d="M77 497q12 14 25 24.5t24 13.5q8 2 15.5 -1t16 -7.5t19.5 -8.5t26 -4t25.5 7.5t19.5 20.5q3 2 6.5 0.5t2.5 -4.5q-11 -18 -27 -30.5t-44 -12.5q-13 0 -22.5 3.5t-17 7t-14 6.5t-12.5 3q-8 -1 -15.5 -7t-18.5 -17q-11 -2 -9 6zM441 586q-26 10 -65 18t-80 8
q-61 0 -105 -26.5t-70 -69t-34.5 -95.5t2.5 -105q-1 -4 -5 -6t-6 2q-14 63 -2 122.5t45 106t86.5 75t124.5 28.5q42 0 81 -9t70 -23q6 -5 -3 -12q-53 -42 -93.5 -94.5t-69 -111t-43 -120t-14.5 -121.5q0 -66 23 -92t61 -26q52 0 102 35t102.5 107.5t111 183t126.5 261.5
q4 8 17 15t27 7q16 0 16 -7q-18 -21 -40 -59.5t-43.5 -87t-42 -103.5t-36.5 -107.5t-25.5 -99t-9.5 -79.5q0 -57 37 -57q38 0 74 56q3 3 7 0.5t3 -6.5q-11 -17 -24.5 -33.5t-28.5 -30t-29.5 -22t-26.5 -8.5q-28 0 -40.5 23t-12.5 55q0 50 15 119t47 149
q-91 -171 -180 -258.5t-177 -87.5q-48 0 -72.5 32.5t-24.5 92.5q0 61 15.5 123t44.5 121.5t70.5 114.5t94.5 102z" />
    <glyph glyph-name="utilde" unicode="&#x169;" horiz-adv-x="618" 
d="M20 332q12 14 25 24.5t24 13.5q8 2 15.5 -1t16 -7.5t19.5 -8.5t26 -4t25.5 7.5t19.5 20.5q3 2 6.5 0.5t2.5 -4.5q-11 -18 -27 -30.5t-44 -12.5q-13 0 -22.5 3.5t-17 7t-14 6.5t-12.5 3q-8 -1 -15.5 -7t-18.5 -17q-11 -2 -9 6zM65 0q-13 0 -23 12.5t-10 32.5
q0 16 4.5 37.5t12 45.5t18.5 48t25 45q-11 -8 -23 -17.5t-20 -17.5q-3 -2 -5 1.5t-1 6.5q7 7 18 16t23.5 18t26 17.5t25.5 14.5q4 1 6.5 -2t1.5 -7q-32 -41 -51.5 -90.5t-19.5 -94.5q0 -29 17 -29q13 0 32.5 17.5t40.5 46t42.5 64.5t39.5 73q3 7 11.5 12.5t18.5 5.5
q13 0 9 -8q-14 -26 -25 -48.5t-18 -44.5t-10.5 -45t-3.5 -50q0 -32 18 -32q8 0 18 8.5t20 22.5q3 2 6 0t1 -7q-14 -21 -32.5 -36.5t-35.5 -15.5q-13 0 -22 13t-9 35q0 24 4.5 51.5t14.5 55.5q-19 -37 -40 -65.5t-40.5 -48.5t-36.5 -30.5t-28 -10.5z" />
    <glyph glyph-name="Umacron" unicode="&#x16a;" horiz-adv-x="730" 
d="M217 842h297v-71h-297v71zM441 586q-26 10 -65 18t-80 8q-61 0 -105 -26.5t-70 -69t-34.5 -95.5t2.5 -105q-1 -4 -5 -6t-6 2q-14 63 -2 122.5t45 106t86.5 75t124.5 28.5q42 0 81 -9t70 -23q6 -5 -3 -12q-53 -42 -93.5 -94.5t-69 -111t-43 -120t-14.5 -121.5
q0 -66 23 -92t61 -26q52 0 102 35t102.5 107.5t111 183t126.5 261.5q4 8 17 15t27 7q16 0 16 -7q-18 -21 -40 -59.5t-43.5 -87t-42 -103.5t-36.5 -107.5t-25.5 -99t-9.5 -79.5q0 -57 37 -57q38 0 74 56q3 3 7 0.5t3 -6.5q-11 -17 -24.5 -33.5t-28.5 -30t-29.5 -22
t-26.5 -8.5q-28 0 -40.5 23t-12.5 55q0 50 15 119t47 149q-91 -171 -180 -258.5t-177 -87.5q-48 0 -72.5 32.5t-24.5 92.5q0 61 15.5 123t44.5 121.5t70.5 114.5t94.5 102z" />
    <glyph glyph-name="umacron" unicode="&#x16b;" horiz-adv-x="618" 
d="M159 677h297v-71h-297v71zM65 0q-13 0 -23 12.5t-10 32.5q0 16 4.5 37.5t12 45.5t18.5 48t25 45q-11 -8 -23 -17.5t-20 -17.5q-3 -2 -5 1.5t-1 6.5q7 7 18 16t23.5 18t26 17.5t25.5 14.5q4 1 6.5 -2t1.5 -7q-32 -41 -51.5 -90.5t-19.5 -94.5q0 -29 17 -29q13 0 32.5 17.5
t40.5 46t42.5 64.5t39.5 73q3 7 11.5 12.5t18.5 5.5q13 0 9 -8q-14 -26 -25 -48.5t-18 -44.5t-10.5 -45t-3.5 -50q0 -32 18 -32q8 0 18 8.5t20 22.5q3 2 6 0t1 -7q-14 -21 -32.5 -36.5t-35.5 -15.5q-13 0 -22 13t-9 35q0 24 4.5 51.5t14.5 55.5q-19 -37 -40 -65.5
t-40.5 -48.5t-36.5 -30.5t-28 -10.5z" />
    <glyph glyph-name="Ubreve" unicode="&#x16c;" horiz-adv-x="730" 
d="M156 493q-27 0 -45 12.5t-22 34.5q0 8 8.5 15.5t12.5 2.5q5 -22 19 -33.5t40 -11.5t41.5 12t25.5 34q3 3 6.5 1.5t3.5 -6.5q-11 -26 -34 -43.5t-56 -17.5zM441 586q-26 10 -65 18t-80 8q-61 0 -105 -26.5t-70 -69t-34.5 -95.5t2.5 -105q-1 -4 -5 -6t-6 2q-14 63 -2 122.5
t45 106t86.5 75t124.5 28.5q42 0 81 -9t70 -23q6 -5 -3 -12q-53 -42 -93.5 -94.5t-69 -111t-43 -120t-14.5 -121.5q0 -66 23 -92t61 -26q52 0 102 35t102.5 107.5t111 183t126.5 261.5q4 8 17 15t27 7q16 0 16 -7q-18 -21 -40 -59.5t-43.5 -87t-42 -103.5t-36.5 -107.5
t-25.5 -99t-9.5 -79.5q0 -57 37 -57q38 0 74 56q3 3 7 0.5t3 -6.5q-11 -17 -24.5 -33.5t-28.5 -30t-29.5 -22t-26.5 -8.5q-28 0 -40.5 23t-12.5 55q0 50 15 119t47 149q-91 -171 -180 -258.5t-177 -87.5q-48 0 -72.5 32.5t-24.5 92.5q0 61 15.5 123t44.5 121.5t70.5 114.5
t94.5 102z" />
    <glyph glyph-name="ubreve" unicode="&#x16d;" horiz-adv-x="618" 
d="M98 328q-27 0 -45 12.5t-22 34.5q0 8 8.5 15.5t12.5 2.5q5 -22 19 -33.5t40 -11.5t41.5 12t25.5 34q3 3 6.5 1.5t3.5 -6.5q-11 -26 -34 -43.5t-56 -17.5zM65 0q-13 0 -23 12.5t-10 32.5q0 16 4.5 37.5t12 45.5t18.5 48t25 45q-11 -8 -23 -17.5t-20 -17.5q-3 -2 -5 1.5
t-1 6.5q7 7 18 16t23.5 18t26 17.5t25.5 14.5q4 1 6.5 -2t1.5 -7q-32 -41 -51.5 -90.5t-19.5 -94.5q0 -29 17 -29q13 0 32.5 17.5t40.5 46t42.5 64.5t39.5 73q3 7 11.5 12.5t18.5 5.5q13 0 9 -8q-14 -26 -25 -48.5t-18 -44.5t-10.5 -45t-3.5 -50q0 -32 18 -32q8 0 18 8.5
t20 22.5q3 2 6 0t1 -7q-14 -21 -32.5 -36.5t-35.5 -15.5q-13 0 -22 13t-9 35q0 24 4.5 51.5t14.5 55.5q-19 -37 -40 -65.5t-40.5 -48.5t-36.5 -30.5t-28 -10.5z" />
    <glyph glyph-name="Uring" unicode="&#x16e;" horiz-adv-x="730" 
d="M137 540q-12 0 -18.5 -8t-6.5 -22q0 -11 5.5 -17.5t16.5 -6.5t18 8.5t7 21.5q0 24 -22 24zM124 475q-13 0 -20 8t-7 20q0 20 14 34.5t36 14.5q14 0 20.5 -8.5t6.5 -20.5q0 -19 -14 -33.5t-36 -14.5zM441 586q-26 10 -65 18t-80 8q-61 0 -105 -26.5t-70 -69t-34.5 -95.5
t2.5 -105q-1 -4 -5 -6t-6 2q-14 63 -2 122.5t45 106t86.5 75t124.5 28.5q42 0 81 -9t70 -23q6 -5 -3 -12q-53 -42 -93.5 -94.5t-69 -111t-43 -120t-14.5 -121.5q0 -66 23 -92t61 -26q52 0 102 35t102.5 107.5t111 183t126.5 261.5q4 8 17 15t27 7q16 0 16 -7
q-18 -21 -40 -59.5t-43.5 -87t-42 -103.5t-36.5 -107.5t-25.5 -99t-9.5 -79.5q0 -57 37 -57q38 0 74 56q3 3 7 0.5t3 -6.5q-11 -17 -24.5 -33.5t-28.5 -30t-29.5 -22t-26.5 -8.5q-28 0 -40.5 23t-12.5 55q0 50 15 119t47 149q-91 -171 -180 -258.5t-177 -87.5
q-48 0 -72.5 32.5t-24.5 92.5q0 61 15.5 123t44.5 121.5t70.5 114.5t94.5 102z" />
    <glyph glyph-name="uring" unicode="&#x16f;" horiz-adv-x="618" 
d="M79 375q-12 0 -18.5 -8t-6.5 -22q0 -11 5.5 -17.5t16.5 -6.5t18 8.5t7 21.5q0 24 -22 24zM66 310q-13 0 -20 8t-7 20q0 20 14 34.5t36 14.5q14 0 20.5 -8.5t6.5 -20.5q0 -19 -14 -33.5t-36 -14.5zM65 0q-13 0 -23 12.5t-10 32.5q0 16 4.5 37.5t12 45.5t18.5 48t25 45
q-11 -8 -23 -17.5t-20 -17.5q-3 -2 -5 1.5t-1 6.5q7 7 18 16t23.5 18t26 17.5t25.5 14.5q4 1 6.5 -2t1.5 -7q-32 -41 -51.5 -90.5t-19.5 -94.5q0 -29 17 -29q13 0 32.5 17.5t40.5 46t42.5 64.5t39.5 73q3 7 11.5 12.5t18.5 5.5q13 0 9 -8q-14 -26 -25 -48.5t-18 -44.5
t-10.5 -45t-3.5 -50q0 -32 18 -32q8 0 18 8.5t20 22.5q3 2 6 0t1 -7q-14 -21 -32.5 -36.5t-35.5 -15.5q-13 0 -22 13t-9 35q0 24 4.5 51.5t14.5 55.5q-19 -37 -40 -65.5t-40.5 -48.5t-36.5 -30.5t-28 -10.5z" />
    <glyph glyph-name="Uhungarumlaut" unicode="&#x170;" horiz-adv-x="730" 
d="M205 546q5 3 18.5 -1t22.5 -8q7 -4 1 -10q-9 -6 -23 -13t-29 -13.5t-30.5 -12t-28.5 -9.5q-4 0 -4 3.5t4 7.5q13 8 34 23.5t35 32.5zM301 546q5 3 18.5 -1t22.5 -8q7 -4 1 -10q-9 -6 -23 -13t-29 -13.5t-30.5 -12t-28.5 -9.5q-4 0 -4 3.5t4 7.5q13 8 34 23.5t35 32.5z
M441 586q-26 10 -65 18t-80 8q-61 0 -105 -26.5t-70 -69t-34.5 -95.5t2.5 -105q-1 -4 -5 -6t-6 2q-14 63 -2 122.5t45 106t86.5 75t124.5 28.5q42 0 81 -9t70 -23q6 -5 -3 -12q-53 -42 -93.5 -94.5t-69 -111t-43 -120t-14.5 -121.5q0 -66 23 -92t61 -26q52 0 102 35
t102.5 107.5t111 183t126.5 261.5q4 8 17 15t27 7q16 0 16 -7q-18 -21 -40 -59.5t-43.5 -87t-42 -103.5t-36.5 -107.5t-25.5 -99t-9.5 -79.5q0 -57 37 -57q38 0 74 56q3 3 7 0.5t3 -6.5q-11 -17 -24.5 -33.5t-28.5 -30t-29.5 -22t-26.5 -8.5q-28 0 -40.5 23t-12.5 55
q0 50 15 119t47 149q-91 -171 -180 -258.5t-177 -87.5q-48 0 -72.5 32.5t-24.5 92.5q0 61 15.5 123t44.5 121.5t70.5 114.5t94.5 102z" />
    <glyph glyph-name="uhungarumlaut" unicode="&#x171;" horiz-adv-x="618" 
d="M148 381q5 3 18.5 -1t22.5 -8q7 -4 1 -10q-9 -6 -23 -13t-29 -13.5t-30.5 -12t-28.5 -9.5q-4 0 -4 3.5t4 7.5q13 8 34 23.5t35 32.5zM244 381q5 3 18.5 -1t22.5 -8q7 -4 1 -10q-9 -6 -23 -13t-29 -13.5t-30.5 -12t-28.5 -9.5q-4 0 -4 3.5t4 7.5q13 8 34 23.5t35 32.5z
M65 0q-13 0 -23 12.5t-10 32.5q0 16 4.5 37.5t12 45.5t18.5 48t25 45q-11 -8 -23 -17.5t-20 -17.5q-3 -2 -5 1.5t-1 6.5q7 7 18 16t23.5 18t26 17.5t25.5 14.5q4 1 6.5 -2t1.5 -7q-32 -41 -51.5 -90.5t-19.5 -94.5q0 -29 17 -29q13 0 32.5 17.5t40.5 46t42.5 64.5t39.5 73
q3 7 11.5 12.5t18.5 5.5q13 0 9 -8q-14 -26 -25 -48.5t-18 -44.5t-10.5 -45t-3.5 -50q0 -32 18 -32q8 0 18 8.5t20 22.5q3 2 6 0t1 -7q-14 -21 -32.5 -36.5t-35.5 -15.5q-13 0 -22 13t-9 35q0 24 4.5 51.5t14.5 55.5q-19 -37 -40 -65.5t-40.5 -48.5t-36.5 -30.5t-28 -10.5z
" />
    <glyph glyph-name="Uogonek" unicode="&#x172;" horiz-adv-x="730" 
d="M360 4q-20 -11 -34.5 -28t-14.5 -38q0 -13 5.5 -20.5t20.5 -7.5q16 0 28 9q3 1 5 -2t0 -6q-18 -18 -44 -18q-39 0 -39 35q0 21 17 44.5t49 37.5q11 2 7 -6zM441 586q-26 10 -65 18t-80 8q-61 0 -105 -26.5t-70 -69t-34.5 -95.5t2.5 -105q-1 -4 -5 -6t-6 2
q-14 63 -2 122.5t45 106t86.5 75t124.5 28.5q42 0 81 -9t70 -23q6 -5 -3 -12q-53 -42 -93.5 -94.5t-69 -111t-43 -120t-14.5 -121.5q0 -66 23 -92t61 -26q52 0 102 35t102.5 107.5t111 183t126.5 261.5q4 8 17 15t27 7q16 0 16 -7q-18 -21 -40 -59.5t-43.5 -87t-42 -103.5
t-36.5 -107.5t-25.5 -99t-9.5 -79.5q0 -57 37 -57q38 0 74 56q3 3 7 0.5t3 -6.5q-11 -17 -24.5 -33.5t-28.5 -30t-29.5 -22t-26.5 -8.5q-28 0 -40.5 23t-12.5 55q0 50 15 119t47 149q-91 -171 -180 -258.5t-177 -87.5q-48 0 -72.5 32.5t-24.5 92.5q0 61 15.5 123t44.5 121.5
t70.5 114.5t94.5 102z" />
    <glyph glyph-name="uogonek" unicode="&#x173;" horiz-adv-x="618" 
d="M462 4q-20 -11 -34.5 -28t-14.5 -38q0 -13 5.5 -20.5t20.5 -7.5q16 0 28 9q3 1 5 -2t0 -6q-18 -18 -44 -18q-39 0 -39 35q0 21 17 44.5t49 37.5q11 2 7 -6zM65 0q-13 0 -23 12.5t-10 32.5q0 16 4.5 37.5t12 45.5t18.5 48t25 45q-11 -8 -23 -17.5t-20 -17.5q-3 -2 -5 1.5
t-1 6.5q7 7 18 16t23.5 18t26 17.5t25.5 14.5q4 1 6.5 -2t1.5 -7q-32 -41 -51.5 -90.5t-19.5 -94.5q0 -29 17 -29q13 0 32.5 17.5t40.5 46t42.5 64.5t39.5 73q3 7 11.5 12.5t18.5 5.5q13 0 9 -8q-14 -26 -25 -48.5t-18 -44.5t-10.5 -45t-3.5 -50q0 -32 18 -32q8 0 18 8.5
t20 22.5q3 2 6 0t1 -7q-14 -21 -32.5 -36.5t-35.5 -15.5q-13 0 -22 13t-9 35q0 24 4.5 51.5t14.5 55.5q-19 -37 -40 -65.5t-40.5 -48.5t-36.5 -30.5t-28 -10.5z" />
    <glyph glyph-name="Wcircumflex" unicode="&#x174;" horiz-adv-x="930" 
d="M262 558q6 5 12 -1q11 -14 29.5 -29t37.5 -23q5 -5 -5 -10t-22 -3q-18 7 -30 14.5t-28 19.5q-12 -8 -28.5 -18t-32.5 -18q-11 0 -6 9q17 10 37.5 24.5t35.5 34.5zM577 35q4 58 -1.5 123.5t-10.5 127t-5 112t16 79.5q-37 -53 -67 -99t-57 -93.5t-52.5 -100t-53.5 -116.5
q-15 -35 -19.5 -51.5t-13.5 -16.5q-8 0 -10 7.5t5 27.5q51 134 67.5 241t5 182t-48 115t-90.5 40q-37 0 -66.5 -15t-50 -42t-31.5 -64t-11 -80q-2 -6 -6.5 -7t-4.5 4q-2 48 12 91.5t40.5 76.5t64.5 52.5t86 19.5q41 0 69 -21t44 -58.5t21 -88t0 -109.5t-19.5 -124
t-36.5 -130q27 62 63.5 130.5t78 133.5t85 121t85.5 94q3 1 5.5 -2t3.5 -8t0.5 -10t-3.5 -9q-14 -9 -23.5 -17.5t-20.5 -22.5q-17 -22 -23.5 -56t-7 -74t4 -85t8.5 -89.5t6 -86.5t-2 -77q38 57 87 109.5t93 107.5t74 116t30 136q0 32 -9 53t-26 23q-12 1 -21 -11.5
t-16 -27.5q-10 -4 -10 7q11 28 29 49.5t35 21.5q24 0 38.5 -24t14.5 -58q0 -60 -16 -109.5t-42.5 -93t-60.5 -83.5t-69.5 -79.5t-70 -81t-62.5 -88.5q-8 -12 -14.5 -19.5t-14.5 -7.5q-5 0 -6.5 3t-1.5 8t1.5 11.5t1.5 12.5z" />
    <glyph glyph-name="wcircumflex" unicode="&#x175;" horiz-adv-x="786" 
d="M192 393q6 5 12 -1q11 -14 29.5 -29t37.5 -23q5 -5 -5 -10t-22 -3q-18 7 -30 14.5t-28 19.5q-12 -8 -28.5 -18t-32.5 -18q-11 0 -6 9q17 10 37.5 24.5t35.5 34.5zM323 255q14 0 23.5 -16.5t9.5 -48.5q0 -38 -14.5 -72.5t-36.5 -60.5t-48 -41.5t-48 -15.5q-18 0 -28.5 14
t-10.5 42q0 12 1 26t3 28.5t4.5 27.5t5.5 23q-21 -26 -43 -62t-44 -73q-8 -16 -13.5 -21t-13.5 -5t-6 11q7 24 11.5 59.5t4.5 69t-4.5 58.5t-16.5 30q-6 2 -15.5 -3t-14.5 -16q-2 -2 -5.5 0.5t-2.5 6.5q2 5 8 11.5t14 12.5t17 10.5t17 4.5q19 0 28 -24.5t9 -82.5
q0 -26 -2.5 -47t-5.5 -37q20 34 38 59.5t34 46.5q6 8 10.5 18.5t9.5 29.5q1 4 7 8.5t12 7.5t10.5 4t4.5 -2q-15 -33 -23.5 -76.5t-8.5 -80.5q0 -48 34 -48q17 0 35 11t32.5 29.5t24 43t9.5 51.5q0 39 -15.5 50t-32.5 -3q-8 -2 -6 7q3 5 8 11t11.5 11.5t12.5 9t10 3.5z" />
    <glyph glyph-name="Ycircumflex" unicode="&#x176;" horiz-adv-x="565" 
d="M82 558q6 5 12 -1q11 -14 29.5 -29t37.5 -23q5 -5 -5 -10t-22 -3q-18 7 -30 14.5t-28 19.5q-12 -8 -28.5 -18t-32.5 -18q-11 0 -6 9q17 10 37.5 24.5t35.5 34.5zM427 644q18 0 28.5 -9t13.5 -30t-3 -54.5t-22 -82.5q-20 -61 -36 -110.5t-24 -99.5q-6 -43 6 -65t51 -22
q87 0 181 115t207 342q19 16 34 16q11 0 8 -14q-103 -219 -190 -365t-168 -233.5t-161 -123.5t-169 -36q-42 0 -75 14t-55.5 38t-34 55.5t-11.5 66.5q0 38 13.5 74t40 64.5t66 48.5t92.5 26q5 -1 4.5 -5t-5.5 -9q-46 -6 -78.5 -21.5t-53.5 -38.5t-30.5 -52t-9.5 -62
q0 -76 44 -120.5t131 -44.5q64 0 122 22t114 74t112.5 137.5t118.5 211.5q-28 -46 -62.5 -85.5t-70.5 -69t-71.5 -46t-65.5 -16.5q-45 0 -63.5 26t-11.5 72q8 55 24.5 110t32.5 106q16 50 23 82t6 51t-8 26t-20 7q-12 0 -25 -6t-25 -15t-22.5 -20t-16.5 -22q-4 -4 -7.5 -0.5
t-2.5 8.5q7 11 20 26t30.5 28t36.5 22t38 9z" />
    <glyph glyph-name="ycircumflex" unicode="&#x177;" horiz-adv-x="509" 
d="M57 393q6 5 12 -1q11 -14 29.5 -29t37.5 -23q5 -5 -5 -10t-22 -3q-18 7 -30 14.5t-28 19.5q-12 -8 -28.5 -18t-32.5 -18q-11 0 -6 9q17 10 37.5 24.5t35.5 34.5zM243 232q1 3 5 6.5t9.5 7.5t11 6.5t8.5 2.5q9 0 7 -7q-22 -62 -43 -120.5t-45 -121.5q-27 -70 -57.5 -117.5
t-64 -77t-69.5 -42.5t-74 -13q-53 0 -80.5 26.5t-27.5 65.5q0 18 9.5 38t29.5 35q3 2 5.5 -2t0.5 -6q-16 -19 -16 -43q0 -42 24 -68t73 -26q35 0 64.5 11t56 39t51 75t50.5 118q11 33 21.5 61t21.5 58q-38 -60 -79.5 -98t-73.5 -41q-13 0 -19 12t-6 33q0 18 4 39.5
t11.5 44.5t19 46.5t25.5 45.5q-11 -8 -23 -17.5t-20 -17.5q-3 -2 -5.5 1.5t-0.5 6.5q14 14 38 32t47 30q10 0 8 -9q-15 -20 -27.5 -44.5t-21.5 -49t-14 -48.5t-5 -43q0 -28 19 -28q16 0 38.5 21.5t45 52t41 65t27.5 60.5z" />
    <glyph glyph-name="Ydieresis" unicode="&#x178;" horiz-adv-x="662" 
d="M591 667q-11 0 -11 17q0 10 10 23.5t26 13.5q9 0 9 -13q0 -14 -10 -27.5t-24 -13.5zM668 667q-12 0 -12 17q0 10 10 23.5t25 13.5q9 0 9 -13q0 -14 -10 -27.5t-22 -13.5zM427 644q18 0 28.5 -9t13.5 -30t-3 -54.5t-22 -82.5q-20 -61 -36 -110.5t-24 -99.5q-6 -43 6 -65
t51 -22q87 0 181 115t207 342q19 16 34 16q11 0 8 -14q-103 -219 -190 -365t-168 -233.5t-161 -123.5t-169 -36q-42 0 -75 14t-55.5 38t-34 55.5t-11.5 66.5q0 38 13.5 74t40 64.5t66 48.5t92.5 26q5 -1 4.5 -5t-5.5 -9q-46 -6 -78.5 -21.5t-53.5 -38.5t-30.5 -52t-9.5 -62
q0 -76 44 -120.5t131 -44.5q64 0 122 22t114 74t112.5 137.5t118.5 211.5q-28 -46 -62.5 -85.5t-70.5 -69t-71.5 -46t-65.5 -16.5q-45 0 -63.5 26t-11.5 72q8 55 24.5 110t32.5 106q16 50 23 82t6 51t-8 26t-20 7q-12 0 -25 -6t-25 -15t-22.5 -20t-16.5 -22q-4 -4 -7.5 -0.5
t-2.5 8.5q7 11 20 26t30.5 28t36.5 22t38 9z" />
    <glyph glyph-name="Zacute" unicode="&#x179;" horiz-adv-x="571" 
d="M435 644q50 0 92 -10t93 -26q25 -8 37 -7t26 13q7 5 24 5q9 0 7 -8q-63 -58 -134.5 -124.5t-145.5 -136t-147.5 -139.5t-141.5 -134q24 2 49 -4.5t56 -14.5t72 -15.5t97 -7.5q70 0 114 30.5t75 101.5q4 2 9 -0.5t3 -7.5q-20 -42 -42 -73.5t-49.5 -52.5t-63 -31t-80.5 -10
q-36 0 -64.5 3.5t-53.5 9.5t-47.5 13.5t-47.5 14.5q-31 9 -52.5 2.5t-49.5 -35.5q-6 -2 -14 3.5t-5 10.5q85 80 158 149t142 134.5t139 131.5t148 140q-52 14 -108 24t-116 10q-68 0 -101.5 -37t-43.5 -99q-3 -4 -7.5 -2.5t-4.5 6.5q7 38 19.5 70t33.5 55t51.5 35.5
t73.5 12.5zM125 546q5 3 18.5 -1t22.5 -8q7 -4 1 -10q-9 -6 -23 -13t-29 -13.5t-30.5 -12t-28.5 -9.5q-4 0 -4 3.5t4 7.5q13 8 34 23.5t35 32.5z" />
    <glyph glyph-name="zacute" unicode="&#x17a;" horiz-adv-x="470" 
d="M48 49q23 -8 47.5 -13.5t49.5 -5.5q26 0 42.5 14.5t27.5 43.5q3 2 7 0t2 -6q-14 -38 -36.5 -60.5t-53.5 -22.5q-21 0 -42 4.5t-44 12.5q-12 5 -22.5 1t-25.5 -18q-5 0 -8 5t0 10q22 22 48.5 48t53.5 53t52.5 52t46.5 46q-22 5 -49 8t-46 3q-29 0 -40 -32q-2 -3 -6 -1
t-4 5q8 22 25 40.5t43 18.5q23 0 44 -4.5t35 -8.5q11 -2 19 0.5t16 9.5q3 3 9 3q12 0 10 -8q-54 -52 -105.5 -102.5t-95.5 -95.5zM85 381q5 3 18.5 -1t22.5 -8q7 -4 1 -10q-9 -6 -23 -13t-29 -13.5t-30.5 -12t-28.5 -9.5q-4 0 -4 3.5t4 7.5q13 8 34 23.5t35 32.5z" />
    <glyph glyph-name="Zdotaccent" unicode="&#x17b;" horiz-adv-x="571" 
d="M188 484q-13 0 -13 19q0 11 11 26t28 15q10 0 10 -14q0 -15 -11 -30.5t-25 -15.5zM435 644q50 0 92 -10t93 -26q25 -8 37 -7t26 13q7 5 24 5q9 0 7 -8q-63 -58 -134.5 -124.5t-145.5 -136t-147.5 -139.5t-141.5 -134q24 2 49 -4.5t56 -14.5t72 -15.5t97 -7.5
q70 0 114 30.5t75 101.5q4 2 9 -0.5t3 -7.5q-20 -42 -42 -73.5t-49.5 -52.5t-63 -31t-80.5 -10q-36 0 -64.5 3.5t-53.5 9.5t-47.5 13.5t-47.5 14.5q-31 9 -52.5 2.5t-49.5 -35.5q-6 -2 -14 3.5t-5 10.5q85 80 158 149t142 134.5t139 131.5t148 140q-52 14 -108 24t-116 10
q-68 0 -101.5 -37t-43.5 -99q-3 -4 -7.5 -2.5t-4.5 6.5q7 38 19.5 70t33.5 55t51.5 35.5t73.5 12.5z" />
    <glyph glyph-name="zdotaccent" unicode="&#x17c;" horiz-adv-x="470" 
d="M140 319q-13 0 -13 19q0 11 11 26t28 15q10 0 10 -14q0 -15 -11 -30.5t-25 -15.5zM48 49q23 -8 47.5 -13.5t49.5 -5.5q26 0 42.5 14.5t27.5 43.5q3 2 7 0t2 -6q-14 -38 -36.5 -60.5t-53.5 -22.5q-21 0 -42 4.5t-44 12.5q-12 5 -22.5 1t-25.5 -18q-5 0 -8 5t0 10
q22 22 48.5 48t53.5 53t52.5 52t46.5 46q-22 5 -49 8t-46 3q-29 0 -40 -32q-2 -3 -6 -1t-4 5q8 22 25 40.5t43 18.5q23 0 44 -4.5t35 -8.5q11 -2 19 0.5t16 9.5q3 3 9 3q12 0 10 -8q-54 -52 -105.5 -102.5t-95.5 -95.5z" />
    <glyph glyph-name="Zcaron" unicode="&#x17d;" horiz-adv-x="625" 
d="M534 671q-6 -4 -12 1q-13 17 -33.5 35t-39.5 26q-5 5 4 10t22 3q18 -8 34 -19.5t31 -24.5q6 5 16 11.5t20.5 13t21 12t17.5 9.5q5 0 6 -3t-1 -7q-17 -10 -43.5 -28.5t-42.5 -38.5zM435 644q50 0 92 -10t93 -26q25 -8 37 -7t26 13q7 5 24 5q9 0 7 -8
q-63 -58 -134.5 -124.5t-145.5 -136t-147.5 -139.5t-141.5 -134q24 2 49 -4.5t56 -14.5t72 -15.5t97 -7.5q70 0 114 30.5t75 101.5q4 2 9 -0.5t3 -7.5q-20 -42 -42 -73.5t-49.5 -52.5t-63 -31t-80.5 -10q-36 0 -64.5 3.5t-53.5 9.5t-47.5 13.5t-47.5 14.5q-31 9 -52.5 2.5
t-49.5 -35.5q-6 -2 -14 3.5t-5 10.5q85 80 158 149t142 134.5t139 131.5t148 140q-52 14 -108 24t-116 10q-68 0 -101.5 -37t-43.5 -99q-3 -4 -7.5 -2.5t-4.5 6.5q7 38 19.5 70t33.5 55t51.5 35.5t73.5 12.5z" />
    <glyph glyph-name="zcaron" unicode="&#x17e;" horiz-adv-x="248" 
d="M194 328q-6 -5 -12 1q-11 14 -29.5 29t-37.5 23q-5 5 5 10t22 3q18 -7 30 -14.5t28 -19.5q12 8 28.5 18t32.5 18q11 0 6 -9q-17 -10 -37.5 -24.5t-35.5 -34.5zM47 49q23 -8 47.5 -13.5t49.5 -5.5q26 0 42.5 14.5t27.5 43.5q3 2 7 0t2 -6q-14 -38 -36.5 -60.5t-53.5 -22.5
q-21 0 -42 4.5t-44 12.5q-12 5 -22.5 1t-25.5 -18q-5 0 -8 5t0 10q22 22 48.5 48t53.5 53t52.5 52t46.5 46q-22 5 -49 8t-46 3q-29 0 -40 -32q-2 -3 -6 -1t-4 5q8 22 25 40.5t43 18.5q23 0 44 -4.5t35 -8.5q11 -2 19 0.5t16 9.5q3 3 9 3q12 0 10 -8q-54 -52 -105.5 -102.5
t-95.5 -95.5z" />
    <glyph glyph-name="longs" unicode="&#x17f;" horiz-adv-x="326" 
d="M261 692q-46 0 -67 -28.5t-21 -86.5v-577h-88v577q0 188 177 188q49 0 100 -19l-23 -69q-44 15 -78 15z" />
    <glyph glyph-name="uni0180" unicode="&#x180;" horiz-adv-x="615" 
d="M339 545q106 0 163.5 -73t57.5 -204q0 -133 -58.5 -205.5t-162.5 -72.5q-54 0 -96.5 19.5t-69.5 58.5h-7q-15 -59 -18 -68h-63v605h-76v66h76v89h88v-89h213v-66h-213v-30q0 -55 -5 -110h5q54 80 166 80zM324 472q-81 0 -116 -46t-35 -155v-4q0 -110 36 -157t117 -47
q72 0 107.5 53t35.5 153q0 102 -35.5 152.5t-109.5 50.5z" />
    <glyph glyph-name="uni0181" unicode="&#x181;" horiz-adv-x="729" 
d="M151 637q-61 0 -61 -50q0 -30 10 -54h-79q-4 10 -7.5 26.5t-3.5 28.5q0 65 34.5 95.5t106.5 30.5h230q144 0 207.5 -43t63.5 -134q0 -63 -34.5 -104.5t-101.5 -53.5v-5q82 -14 121 -57t39 -114q0 -96 -66 -149.5t-182 -53.5h-251v637h-26zM267 410h132q84 0 122 27t38 90
q0 59 -41.5 84.5t-132.5 25.5h-118v-227zM267 335v-259h144q86 0 127.5 33.5t41.5 100.5q0 64 -44 94.5t-132 30.5h-137z" />
    <glyph glyph-name="uni0182" unicode="&#x182;" horiz-adv-x="615" 
d="M564 209q0 -105 -63.5 -157t-194.5 -52h-209v714h424v-79h-334v-223h106q137 0 204 -48.5t67 -154.5zM187 77h110q92 0 133 31t41 101q0 68 -43 96.5t-146 28.5h-95v-257z" />
    <glyph glyph-name="uni0183" unicode="&#x183;" horiz-adv-x="615" 
d="M339 545q106 0 163.5 -73t57.5 -204q0 -133 -58.5 -205.5t-162.5 -72.5q-54 0 -96.5 19.5t-69.5 58.5h-7q-15 -59 -18 -68h-63v760h421v-74h-333v-111q0 -55 -5 -110h5q54 80 166 80zM324 472q-81 0 -116 -46t-35 -155v-4q0 -110 36 -157t117 -47q72 0 107.5 53t35.5 153
q0 102 -35.5 152.5t-109.5 50.5z" />
    <glyph glyph-name="uni0184" unicode="&#x184;" horiz-adv-x="634" 
d="M180 210q0 -77 37.5 -110t122.5 -33q80 0 115.5 35.5t35.5 102.5q0 69 -48 99t-140 30h-123v-124zM90 714h90v-302h134q129 0 199.5 -53t70.5 -154t-63.5 -158t-179.5 -57q-251 0 -251 220v504z" />
    <glyph glyph-name="uni0185" unicode="&#x185;" horiz-adv-x="611" 
d="M322 -10q-115 0 -177.5 72.5t-62.5 204.5v493h88v-185q0 -55 -5 -110h5q54 80 166 80q106 0 163.5 -73t57.5 -204q0 -134 -61 -206t-174 -72zM170 265q0 -96 40.5 -149t112.5 -53t107.5 53t35.5 153q0 102 -35.5 152.5t-109.5 50.5q-81 0 -116 -46t-35 -155v-6z" />
    <glyph glyph-name="uni0186" unicode="&#x186;" horiz-adv-x="631" 
d="M243 724q158 0 243 -96t85 -272q0 -110 -39.5 -192.5t-114.5 -128t-174 -45.5q-55 0 -98 6.5t-86 22.5v78q94 -28 170 -28q115 0 181 77t66 211q0 137 -63.5 212.5t-183.5 75.5q-77 0 -162 -39l-36 76q84 42 212 42z" />
    <glyph glyph-name="uni0187" unicode="&#x187;" horiz-adv-x="631" 
d="M403 645q-115 0 -181 -77t-66 -211q0 -138 64 -213t182 -75q76 0 171 28v-78q-45 -17 -87 -23t-97 -6q-158 0 -243 96t-85 272q0 110 41 193t118.5 128t183.5 45q61 0 117 -14v14q0 64 27 99t88 35q30 0 60 -13v-72q-24 10 -52 10q-47 0 -47 -48v-51l-36 -78
q-33 15 -71.5 27t-86.5 12z" />
    <glyph glyph-name="uni0188" unicode="&#x188;" horiz-adv-x="502" 
d="M300 -10q-116 0 -180.5 71t-64.5 204q0 135 65.5 208t185.5 73q27 0 65 -6v91q0 64 26.5 99t88.5 35q29 0 60 -13v-73q-23 10 -52 10q-47 0 -47 -48v-124l-27 -73q-68 25 -116 25q-81 0 -119.5 -51t-38.5 -152q0 -97 38.5 -148.5t114.5 -51.5q71 0 139 31v-78
q-55 -29 -138 -29z" />
    <glyph glyph-name="uni0189" unicode="&#x189;" horiz-adv-x="729" 
d="M583 591q49 -29 88.5 -69.5t67 -85.5t42 -91.5t14.5 -88.5q0 -56 -18.5 -102.5t-53.5 -81t-86 -53.5t-116 -19q-38 0 -70.5 5t-62 12.5t-57 16.5t-54.5 18q-38 -27 -84.5 -39.5t-104.5 -12.5q-32 0 -45 7.5t-13 21.5q0 13 9 27t25.5 26t39.5 19.5t52 7.5q38 0 70.5 -7
t64.5 -17q29 30 54.5 78.5t51.5 120.5q-35 -2 -65.5 -5t-54.5 -7q-4 2 1.5 7t16.5 10q14 2 43 4.5t64 4.5q6 17 12.5 36t12.5 39q21 65 46 114.5t58 84.5q-39 20 -83 32t-92 12q-79 0 -130 -47t-62 -123q-2 -2 -5 -1t-3 5q4 42 22 77.5t48.5 61.5t72.5 40.5t95 14.5
q47 0 89 -11t80 -30q26 21 57.5 35.5t70.5 22.5q3 0 3 -3.5t-3 -5.5q-60 -16 -108 -61zM123 18q42 0 75.5 9t62.5 31q-33 10 -68 16.5t-77 6.5q-28 0 -40.5 -8.5t-14.5 -22.5q-3 -14 10.5 -23t51.5 -9zM566 27q95 0 142.5 54t47.5 143q0 47 -14 94.5t-40.5 92t-63.5 83
t-83 66.5q-51 -64 -82 -167q-8 -26 -16.5 -49t-17.5 -45q37 2 70.5 2t56.5 -1q2 -1 1.5 -4.5t-6.5 -4.5q-28 0 -60.5 -1t-65.5 -3q-28 -71 -58.5 -122.5t-67.5 -86.5q25 -9 52 -18t57.5 -16.5t67 -12t80.5 -4.5z" />
    </font>
</defs>
</svg>
