<?xml version="1.0" standalone="no"?>
<!DOCTYPE svg PUBLIC "-//W3C//DTD SVG 1.1//EN" "http://www.w3.org/Graphics/SVG/1.1/DTD/svg11.dtd" >
<svg xmlns="http://www.w3.org/2000/svg" xmlns:xlink="http://www.w3.org/1999/xlink" version="1.1">
<metadata>
Created by FontForge 20190801 at Mon Feb  8 12:19:33 2021
 By root
Copyright (c) 2010, 2011, Denis Masharov &#60;denis.masharov@gmail.com&#62;. This Font Software is licensed under the SIL Open Font License, Version 1.1. This license is available with a FAQ at: http://scripts.sil.org/OFL
</metadata>
<defs>
<font id="TenorSans" horiz-adv-x="350" >
  <font-face 
    font-family="Tenor Sans"
    font-weight="400"
    font-stretch="normal"
    units-per-em="1000"
    panose-1="2 0 0 0 0 0 0 0 0 0"
    ascent="800"
    descent="-200"
    x-height="500"
    cap-height="700"
    bbox="-213 -250 1356 1046"
    underline-thickness="50"
    underline-position="-100"
    unicode-range="U+0001-206F"
  />
<missing-glyph horiz-adv-x="364" 
d="M33 0v666h265v-666h-265zM66 33h199v600h-199v-600z" />
    <glyph glyph-name=".notdef" horiz-adv-x="364" 
d="M33 0v666h265v-666h-265zM66 33h199v600h-199v-600z" />
    <glyph glyph-name="uni0000" 
 />
    <glyph glyph-name="uni0000" 
 />
    <glyph glyph-name="uni000D" unicode="&#xd;" 
 />
    <glyph glyph-name="uni0001" 
 />
    <glyph glyph-name="uni0002" 
 />
    <glyph glyph-name="uni0003" 
 />
    <glyph glyph-name="uni0004" 
 />
    <glyph glyph-name="uni0005" 
 />
    <glyph glyph-name="uni0006" 
 />
    <glyph glyph-name="uni0007" 
 />
    <glyph glyph-name="uni0008" 
 />
    <glyph glyph-name="uni0009" unicode="&#x9;" 
 />
    <glyph glyph-name="uni000A" unicode="&#xa;" 
 />
    <glyph glyph-name="uni000B" 
 />
    <glyph glyph-name="uni000C" 
 />
    <glyph glyph-name="uni000E" 
 />
    <glyph glyph-name="uni000F" 
 />
    <glyph glyph-name="uni0010" 
 />
    <glyph glyph-name="uni0011" 
 />
    <glyph glyph-name="uni0012" 
 />
    <glyph glyph-name="uni0013" 
 />
    <glyph glyph-name="uni0014" 
 />
    <glyph glyph-name="uni0015" 
 />
    <glyph glyph-name="uni0016" 
 />
    <glyph glyph-name="uni0017" 
 />
    <glyph glyph-name="uni0018" 
 />
    <glyph glyph-name="uni0019" 
 />
    <glyph glyph-name="uni001A" 
 />
    <glyph glyph-name="uni001B" 
 />
    <glyph glyph-name="uni001C" 
 />
    <glyph glyph-name="uni001D" 
 />
    <glyph glyph-name="uni001E" 
 />
    <glyph glyph-name="uni001F" 
 />
    <glyph glyph-name="space" unicode=" " 
 />
    <glyph glyph-name="space" unicode="&#xa0;" 
 />
    <glyph glyph-name="exclam" unicode="!" horiz-adv-x="348" 
d="M120 42q0 22 16 38t38 16t38 -16t16 -38t-16 -38t-38 -16t-38 16t-16 38zM195 134h-47l-31 566h110z" />
    <glyph glyph-name="quotedbl" unicode="&#x22;" horiz-adv-x="345" 
d="M102 516h-41l-31 231h101zM284 516h-38l-31 231h100z" />
    <glyph glyph-name="numbersign" unicode="#" horiz-adv-x="866" 
d="M322 461l43 204h63l-44 -204h159l44 205h60l-43 -205h202l-13 -61h-202l-33 -160h202l-14 -61h-201l-45 -201h-60l43 201h-159l-43 -201h-62l43 201h-202l13 61h204l31 160h-204l15 61h203zM338 240h159l34 160h-161z" />
    <glyph glyph-name="dollar" unicode="$" horiz-adv-x="625" 
d="M268 797v-86q-42 -3 -79 -16.5t-64.5 -37t-43.5 -56t-16 -74.5q0 -44 17.5 -75t46 -53.5t65 -38t74.5 -29.5v-298q-53 4 -84.5 21t-48.5 39t-23 45t-7 39h-68q1 -39 19 -72t48.5 -57t72 -39t91.5 -19v-115h73v115q100 8 158 60.5t58 136.5q0 48 -18.5 81.5t-49 58.5
t-69.5 42t-79 32v263q49 -8 82 -34.5t40 -75.5h68q-11 65 -64 104.5t-126 50.5v88h-73zM473 157q0 -56 -35.5 -86t-96.5 -37v270q27 -11 51 -24.5t42 -30.5t28.5 -39.5t10.5 -52.5zM138 552q0 42 33 74.5t97 39.5v-238q-27 11 -51 23t-41.5 26.5t-27.5 32.5t-10 42z" />
    <glyph glyph-name="percent" unicode="%" horiz-adv-x="742" 
d="M60 554q0 25 8 53t26 51t45.5 38.5t66.5 15.5t67 -15.5t46 -38.5t26 -51t8 -53q0 -32 -10.5 -61.5t-30 -51.5t-46.5 -35t-60 -13t-60 13t-46 35t-29.5 51.5t-10.5 61.5zM125 554q0 -36 8 -60.5t20 -39.5t26.5 -21.5t26.5 -6.5q13 0 27 6.5t26 21.5t20 39.5t8 60.5
q0 21 -4 43t-13 40t-24.5 29.5t-39.5 11.5q-23 0 -38.5 -11.5t-25 -29.5t-13.5 -40t-4 -43zM388 146q0 26 8 54.5t26 52t46 38.5t67 15t67 -15t46 -38.5t26 -52t8 -54.5q0 -31 -10.5 -59.5t-30 -50t-46.5 -34.5t-60 -13t-60 13t-46.5 34.5t-30 50t-10.5 59.5zM454 146
q0 -36 8 -60t20.5 -39t26.5 -21t26 -6t26.5 6t26.5 21t20 39t8 60q0 22 -3.5 45t-13 41t-25 29.5t-39.5 11.5q-23 0 -38.5 -11.5t-25 -29.5t-13.5 -41t-4 -45zM595 712l-387 -724h-59l385 724h61z" />
    <glyph glyph-name="ampersand" unicode="&#x26;" horiz-adv-x="706" 
d="M508 60q-61 -45 -109.5 -58t-89.5 -13q-61 0 -107.5 16.5t-78 44t-47.5 62.5t-16 71q0 38 14.5 70t40 59.5t59.5 50t74 41.5q-32 45 -54.5 82.5t-22.5 79.5q0 25 8.5 51.5t27 47.5t47 34.5t68.5 13.5q31 0 58 -10t47 -29t32 -45.5t12 -59.5q0 -42 -28.5 -82.5
t-98.5 -73.5l199 -262q30 40 46 91.5t19 131.5h78q-5 -54 -20.5 -97t-34 -76t-36 -54.5t-26.5 -31.5l91 -115h-106zM327 669q-22 0 -37.5 -7.5t-25.5 -19.5t-14.5 -27t-4.5 -30q0 -35 22 -68.5t54 -73.5q13 7 28.5 19.5t28.5 29t21.5 37.5t8.5 46q0 13 -4 29.5t-13 30.5
t-24.5 24t-39.5 10zM273 369q-73 -38 -100.5 -75t-27.5 -82q0 -41 17 -72.5t44.5 -53.5t61 -33.5t66.5 -11.5q8 0 24.5 1.5t37.5 6.5t43.5 15t43.5 28z" />
    <glyph glyph-name="quotesingle" unicode="'" horiz-adv-x="160" 
d="M102 516h-42l-30 231h100z" />
    <glyph glyph-name="parenleft" unicode="(" horiz-adv-x="300" 
d="M280 681q-32 -29 -50 -67.5t-28 -91t-12.5 -120.5t-2.5 -156t2.5 -156.5t12.5 -121.5t28 -92.5t50 -67.5v-27q-43 18 -73.5 52t-50.5 77t-31.5 91.5t-17 94t-7 85t-1.5 65.5q0 27 1.5 66.5t7 84.5t17 93t31.5 90.5t50.5 76.5t73.5 53v-29z" />
    <glyph glyph-name="parenright" unicode=")" horiz-adv-x="300" 
d="M20 -190q31 28 49.5 67t28.5 91.5t12.5 121t2.5 155.5q0 88 -3 156.5t-12.5 121.5t-28 92t-49.5 68v27q43 -18 73.5 -52t50.5 -77t31.5 -91.5t17 -94t7 -85t1.5 -65.5t-1.5 -65.5t-7 -85t-17 -93.5t-31.5 -90.5t-50.5 -77t-73.5 -52.5v29z" />
    <glyph glyph-name="asterisk" unicode="*" horiz-adv-x="333" 
d="M82 439l31 99l-83 62h105l31 100l33 -100h104l-85 -62l33 -99l-85 63z" />
    <glyph glyph-name="plus" unicode="+" horiz-adv-x="888" 
d="M475 712v-318h313v-44h-313v-324h-61v324h-314v44h314v318h61z" />
    <glyph glyph-name="comma" unicode="," horiz-adv-x="254" 
d="M93 -136h-33v258h94z" />
    <glyph glyph-name="hyphen" unicode="-" horiz-adv-x="367" 
d="M307 305v-75h-247v75h247z" />
    <glyph glyph-name="period" unicode="." horiz-adv-x="268" 
d="M80 43q0 22 16 38t38 16t38 -16t16 -38t-16 -38t-38 -16t-38 16t-16 38z" />
    <glyph glyph-name="slash" unicode="/" horiz-adv-x="516" 
d="M486 712l-387 -724h-69l385 724h71z" />
    <glyph glyph-name="zero" unicode="0" horiz-adv-x="597" 
d="M60 348q0 29 4.5 67.5t15 79t28 79.5t43.5 69.5t62 49.5t84 19t84.5 -19t63 -49.5t44.5 -69.5t28.5 -79.5t15 -79t4.5 -67.5q0 -63 -14 -126.5t-43.5 -115.5t-75 -84.5t-107.5 -32.5t-106.5 32.5t-73.5 84.5t-43 115.5t-14 126.5zM160 348q0 -51 4 -107t18.5 -102
t41.5 -76t73 -30q47 0 75 30t42.5 76t18.5 102t4 107q0 52 -4 109t-18.5 103.5t-42.5 77t-75 30.5q-46 0 -73 -30.5t-41.5 -77t-18.5 -103.5t-4 -109z" />
    <glyph glyph-name="one" unicode="1" horiz-adv-x="319" 
d="M219 0h-85v606l-77 -80l-27 28l141 146h48v-700z" />
    <glyph glyph-name="two" unicode="2" horiz-adv-x="544" 
d="M514 0h-460l189 211q25 30 53.5 65t52.5 74t40 81t16 86q0 69 -36.5 110t-93.5 41q-34 0 -56.5 -13t-37 -34.5t-21.5 -50t-10 -59.5h-100q0 42 17 79t47.5 64t71.5 42.5t89 15.5q54 0 97 -15.5t72 -42.5t44.5 -62.5t15.5 -74.5q0 -49 -9.5 -84t-30 -67.5t-53 -68.5
t-78.5 -86l-130 -139h311v-72z" />
    <glyph glyph-name="three" unicode="3" horiz-adv-x="574" 
d="M241 394q21 0 48.5 4.5t52 19t41 41.5t16.5 71q0 27 -7.5 51.5t-23 44t-39.5 31t-57 11.5q-21 0 -40 -5t-34 -18.5t-25 -37.5t-14 -61h-89q1 27 11.5 56.5t34.5 54t63 40t98 15.5q54 0 93.5 -15.5t65 -41t37.5 -59.5t12 -71q0 -52 -28 -84.5t-85 -56.5l-11 -4v-7l11 -2
q33 -5 59 -21.5t44.5 -40t28.5 -52t10 -56.5q0 -40 -15.5 -78t-46.5 -67.5t-77.5 -47.5t-108.5 -18q-44 -1 -83 12t-68.5 36.5t-47 54.5t-17.5 65h100q1 -24 10.5 -47t26 -40t39.5 -27.5t52 -10.5q60 0 97.5 40t37.5 124q0 18 -4 44t-20.5 50.5t-51.5 41.5t-96 17v44z" />
    <glyph glyph-name="four" unicode="4" horiz-adv-x="547" 
d="M412 221h95v-53h-95v-168h-81v168h-301l345 532h37v-479zM108 221h223v345z" />
    <glyph glyph-name="five" unicode="5" horiz-adv-x="564" 
d="M177 449q28 11 50.5 16.5t50.5 5.5q48 0 89 -15.5t71.5 -45t48 -70.5t17.5 -92q0 -62 -20.5 -110t-56 -81t-83 -50.5t-101.5 -17.5q-46 0 -84.5 13.5t-66.5 36.5t-44.5 55t-17.5 68h73q1 -27 11 -50.5t27.5 -41t42.5 -27.5t57 -10q29 0 58 11.5t52.5 37t38 65t14.5 95.5
q0 79 -42 128t-126 49q-20 0 -55 -4t-78 -26l89 311h303l-20 -55h-240z" />
    <glyph glyph-name="six" unicode="6" horiz-adv-x="585" 
d="M490 594q-4 31 -20 53.5t-40 36.5t-54 21t-63 7q-69 0 -117 -30.5t-78.5 -81t-44 -115.5t-13.5 -133q0 -64 9 -128.5t34.5 -116.5t72 -85t120.5 -33q51 0 93 19t72 52t47 77t17 94q0 60 -19 103t-49 71t-67.5 41.5t-74.5 13.5q-62 0 -99.5 -25t-54.5 -59l-12 -23h-4
q0 70 6.5 128t24.5 99.5t50 64.5t82 23q38 0 65 -19.5t33 -54.5h84zM155 224q0 52 13 88.5t33.5 59t45.5 33t50 10.5q22 0 46 -9t44 -31t32.5 -59t12.5 -92q0 -60 -14 -97.5t-35 -58.5t-44.5 -28t-42.5 -7q-24 0 -49.5 10.5t-45.5 34t-33 59.5t-13 87z" />
    <glyph glyph-name="seven" unicode="7" horiz-adv-x="531" 
d="M501 700h-471v-55h366l-113 -278h-111v-43h94l-131 -324h83l131 324h102v43h-85z" />
    <glyph glyph-name="eight" unicode="8" horiz-adv-x="585" 
d="M218 377q-35 4 -60.5 20t-43 38.5t-26 48.5t-8.5 52q0 28 11 59t36 57t65 43t99 17q58 0 98.5 -17t65.5 -43t36.5 -57t11.5 -59q0 -26 -8.5 -52t-26 -48.5t-43 -38.5t-59.5 -20v-5q37 -2 66.5 -18.5t50 -42t31.5 -56.5t11 -62q0 -37 -14.5 -73.5t-43.5 -65.5t-73 -47
t-103 -18t-102.5 18t-72 47t-42.5 65.5t-14 73.5q0 31 11 62t31 56.5t49.5 42t66.5 18.5v5zM291 389q25 0 48.5 8.5t42 26t29.5 43t11 60.5q0 42 -13.5 69.5t-33.5 43t-42.5 22t-41.5 6.5t-41 -6.5t-41.5 -22t-32.5 -43t-13 -69.5q0 -35 11 -60.5t29 -43t41 -26t47 -8.5z
M291 354q-30 0 -55 -11.5t-42.5 -32t-27 -48t-9.5 -59.5q0 -78 36.5 -124t97.5 -46q63 0 100 46t37 124q0 32 -9.5 59.5t-27.5 48t-43.5 32t-56.5 11.5z" />
    <glyph glyph-name="nine" unicode="9" horiz-adv-x="585" 
d="M179 107q6 -35 33 -54.5t65 -19.5q50 0 82 23t50 64.5t24.5 99.5t6.5 128h-4l-9 -23q-9 -23 -26.5 -38.5t-39.5 -25.5t-46.5 -14t-48.5 -4q-34 0 -70.5 13t-66.5 41t-49.5 70.5t-19.5 102.5q0 49 17 93t47 77t72 52.5t93 19.5q74 0 120.5 -33t72 -85t34.5 -117t9 -128
q0 -68 -13.5 -133t-44 -115.5t-78.5 -81t-117 -30.5q-33 0 -63 7t-54 21t-40 36.5t-20 53.5h84zM430 477q0 51 -13 87t-33 59.5t-45.5 34t-49.5 10.5q-19 0 -42.5 -7t-44.5 -28t-35 -58.5t-14 -97.5q0 -56 12.5 -92.5t32.5 -58.5t43.5 -31t46.5 -9q25 0 50 10.5t45.5 33
t33.5 59t13 88.5z" />
    <glyph glyph-name="colon" unicode=":" horiz-adv-x="228" 
d="M60 42q0 -22 16 -38t38 -16t38 16t16 38t-16 38t-38 16t-38 -16t-16 -38zM60 457q0 -22 16 -38t38 -16t38 16t16 38t-16 38t-38 16t-38 -16t-16 -38z" />
    <glyph glyph-name="semicolon" unicode=";" horiz-adv-x="228" 
d="M157 122h-94v-258h33zM60 457q0 -22 16 -38t38 -16t38 16t16 38t-16 38t-38 16t-38 -16t-16 -38z" />
    <glyph glyph-name="less" unicode="&#x3c;" horiz-adv-x="782" 
d="M60 329l646 -273l16 44l-525 229l525 232l-16 44z" />
    <glyph glyph-name="equal" unicode="=" horiz-adv-x="888" 
d="M100 223h688v62h-688v-62zM100 475v-61h688v61h-688z" />
    <glyph glyph-name="greater" unicode="&#x3e;" horiz-adv-x="781" 
d="M721 329l-645 276l-16 -44l525 -232l-525 -229l16 -44z" />
    <glyph glyph-name="question" unicode="?" horiz-adv-x="519" 
d="M324 257q-16 -20 -35 -36t-42 -16q-12 0 -24.5 11.5t-12.5 31.5q0 27 15.5 52t38.5 49.5t50.5 49t50.5 51.5t38.5 57.5t15.5 65.5q0 25 -7.5 50t-26 44.5t-50.5 32t-81 12.5q-38 0 -66.5 -9.5t-48 -26.5t-29 -40t-10.5 -49h70v6q0 18 7.5 33.5t20.5 26.5t29 17t33 6
q16 0 32.5 -6t30 -16.5t21.5 -25t8 -32.5q0 -31 -14.5 -56.5t-36 -48.5t-46.5 -45.5t-47.5 -46.5t-38 -51t-17.5 -61v-10q0 -23 7 -43.5t21 -36t35 -24.5t50 -9q25 0 54.5 16t52.5 44zM197 42q0 -22 16 -38t38 -16t38 16t16 38t-16 38t-38 16t-38 -16t-16 -38z" />
    <glyph glyph-name="at" unicode="@" horiz-adv-x="1029" 
d="M789 536h-86l-21 -62q-16 24 -33.5 37.5t-34 20t-31 8.5t-24.5 2q-59 0 -110 -23t-89 -63t-59.5 -92.5t-21.5 -111.5q0 -53 15.5 -90.5t41 -61.5t58 -35t66.5 -11q35 0 66.5 13.5t68.5 42.5q14 -22 30.5 -35t33.5 -20t32.5 -9t27.5 -2q53 0 98.5 23.5t79.5 65t53 97
t19 118.5q0 42 -6 84t-21 82q-18 46 -53 92t-85 83t-115 59.5t-143 22.5q-49 0 -97.5 -6.5t-93.5 -23.5q-69 -27 -123.5 -73t-93 -104.5t-58.5 -127t-20 -138.5q0 -87 32 -172.5t91.5 -154t145 -110.5t193.5 -42q28 0 61.5 3t71.5 14t80 31.5t89 55.5l-23 29
q-11 -10 -34 -26.5t-58.5 -32t-82.5 -26.5t-107 -11q-98 0 -176.5 38.5t-133 101t-84 141.5t-29.5 160q0 78 23.5 144.5t62 118t87 88.5t99.5 57q38 15 78.5 22t81.5 7q92 0 167 -29.5t127.5 -81.5t81 -122.5t28.5 -152.5q0 -60 -20 -109t-50 -84.5t-65.5 -54.5t-67.5 -19
q-6 0 -14.5 2.5t-16.5 9.5t-13.5 20t-5.5 34q0 11 4.5 31.5t15.5 56.5zM587 157q-8 -11 -19.5 -22.5t-26.5 -21t-33 -15.5t-39 -6q-46 0 -68 34t-22 88q0 62 16 116t41 93.5t56.5 62t63.5 22.5q38 0 66 -27.5t36 -72.5z" />
    <glyph glyph-name="A" unicode="A" horiz-adv-x="732" 
d="M509 206l96 -206h97l-326 700h-50l-296 -700h46l88 206h345zM488 251h-305l144 337h4z" />
    <glyph glyph-name="B" unicode="B" horiz-adv-x="661" 
d="M120 0h251q67 0 113 17.5t74 45.5t40.5 63.5t12.5 71.5q0 57 -24.5 91t-58.5 52t-70 24t-58 7v4q35 0 66 13.5t54.5 35t37.5 50t14 60.5q0 28 -12 57t-36.5 53t-63 39.5t-90.5 15.5h-250v-700zM211 44v306h110q49 0 85 -13t59.5 -35t35 -51t11.5 -61q0 -35 -12.5 -62
t-33.5 -46t-49.5 -28.5t-60.5 -9.5h-145zM211 394v262h122q39 0 66.5 -11t45 -29t25.5 -41t8 -46q0 -29 -11.5 -54t-32 -43t-47 -28t-56.5 -10h-120z" />
    <glyph glyph-name="C" unicode="C" horiz-adv-x="759" 
d="M709 129q-102 -96 -242 -96q-78 0 -138 27t-100 72t-60.5 104t-20.5 123q0 68 21.5 124.5t60.5 97.5t92.5 64t116.5 23q43 0 78.5 -10t63 -26t45 -36.5t24.5 -41.5h74q-15 34 -38.5 63t-58.5 50t-82 33t-107 12q-87 0 -158.5 -25t-122.5 -71.5t-79 -112t-28 -146.5
q0 -70 22.5 -136.5t69.5 -118t120 -83t174 -31.5q64 0 114.5 12t88 29.5t62.5 37.5t38 35z" />
    <glyph glyph-name="D" unicode="D" horiz-adv-x="765" 
d="M130 0v700h230q83 0 152 -26.5t118.5 -73t77 -110.5t27.5 -138q0 -77 -28.5 -141.5t-78 -111.5t-115.5 -73t-141 -26h-242zM221 44h110q82 0 139.5 27.5t94.5 71.5t54 98.5t17 108.5q0 60 -20 115.5t-58.5 98t-95.5 67.5t-131 25h-110v-612z" />
    <glyph glyph-name="E" unicode="E" horiz-adv-x="602" 
d="M120 700v-700h452v55h-361v293h310v46h-310v251h361v55h-452z" />
    <glyph glyph-name="F" unicode="F" horiz-adv-x="602" 
d="M120 700v-700h91v348h310v46h-310v251h361v55h-452z" />
    <glyph glyph-name="G" unicode="G" horiz-adv-x="817" 
d="M757 312h-198v-41h112v-181q-45 -29 -92 -43t-107 -14q-79 0 -138 24t-98 66.5t-58.5 101t-19.5 128.5q0 69 18.5 127t55.5 100t90.5 65t124.5 23q47 0 88 -10t73 -26t52.5 -36.5t26.5 -41.5h72q-9 22 -30.5 49.5t-58.5 51.5t-91.5 40.5t-128.5 16.5q-85 0 -156.5 -24
t-123.5 -69t-81 -110.5t-29 -148.5q0 -71 22.5 -137.5t69 -119t118.5 -84t172 -31.5q75 0 133 16.5t96 36.5v-41h86v312z" />
    <glyph glyph-name="H" unicode="H" horiz-adv-x="841" 
d="M211 348h419v-348h91v700h-91v-306h-419v306h-91v-700h91v348z" />
    <glyph glyph-name="I" unicode="I" horiz-adv-x="411" 
d="M160 700v-700h91v700h-91z" />
    <glyph glyph-name="J" unicode="J" horiz-adv-x="522" 
d="M311 700v-505q0 -24 -1.5 -52.5t-11.5 -53t-30.5 -41t-58.5 -16.5q-33 0 -54.5 12t-34 30t-18 38.5t-5.5 36.5h-87q2 -77 50 -119t144 -42q69 0 109 20.5t59.5 52t24.5 68.5t5 69v502h-91z" />
    <glyph glyph-name="K" unicode="K" horiz-adv-x="724" 
d="M120 0h91v246l113 121l266 -367h104l-312 429l254 271h-50l-375 -394v394h-91v-700z" />
    <glyph glyph-name="L" unicode="L" horiz-adv-x="602" 
d="M120 0v700h91v-645h361v-55h-452z" />
    <glyph glyph-name="M" unicode="M" horiz-adv-x="1026" 
d="M188 700h-68v-700h44v571h4l309 -583h18l316 579h4v-567h91v700h-69l-324 -601h-4z" />
    <glyph glyph-name="N" unicode="N" horiz-adv-x="850" 
d="M684 700v-535h-4l-555 547h-5v-712h46v535h4l555 -547h5v712h-46z" />
    <glyph glyph-name="O" unicode="O" horiz-adv-x="865" 
d="M50 350q0 -56 21.5 -119.5t67.5 -117.5t117 -89.5t170 -35.5q67 0 121.5 16.5t98 44.5t75.5 64.5t52.5 77t31 81.5t10.5 78q0 56 -23 119.5t-71 117.5t-121.5 89.5t-173.5 35.5q-99 0 -170 -35t-117 -88.5t-67.5 -117.5t-21.5 -121zM148 350q0 70 21.5 128.5t59 100.5
t88.5 65.5t111 23.5q59 0 111.5 -23.5t92 -65.5t62.5 -100.5t23 -128.5t-23 -128.5t-62.5 -100.5t-92 -65.5t-111.5 -23.5q-60 0 -111 23.5t-88.5 65.5t-59 100.5t-21.5 128.5z" />
    <glyph glyph-name="P" unicode="P" horiz-adv-x="613" 
d="M211 292q26 -7 56 -11.5t66 -4.5q61 0 108 17t78.5 46.5t47.5 68t16 82.5q0 42 -14 80.5t-42.5 67t-71.5 45.5t-101 17h-234v-700h91v292zM211 656h105q42 0 74 -15t53 -39.5t31.5 -55t10.5 -60.5q0 -29 -9.5 -58.5t-30.5 -53.5t-53 -39t-77 -15q-31 0 -57 2.5t-47 10.5
v323z" />
    <glyph glyph-name="Q" unicode="Q" horiz-adv-x="894" 
d="M675 -88l76 27l-95 99q49 29 84 67.5t57 80.5t32 84.5t10 80.5q0 57 -22.5 120.5t-70 117t-121 88.5t-176.5 35q-102 0 -174.5 -35t-119 -88t-68.5 -117t-22 -121q0 -74 28 -140t79 -115.5t121.5 -78.5t155.5 -29q34 0 67 4.5t65 15.5zM537 163l-63 -41l71 -73
q-26 -10 -52 -13.5t-53 -3.5q-55 0 -105 21.5t-88 63t-60.5 100.5t-22.5 134q0 71 22.5 129.5t61 100t90.5 64.5t111 23q61 0 114 -23t92 -64.5t61.5 -100t22.5 -129.5q0 -19 -2.5 -49.5t-14.5 -67t-37.5 -75.5t-71.5 -75z" />
    <glyph glyph-name="R" unicode="R" horiz-adv-x="718" 
d="M120 700v-700h91v309h44q28 0 46.5 -5t33.5 -17t28 -31t31 -47l79 -117q15 -23 29.5 -42t31.5 -32.5t38.5 -21.5t51.5 -8q22 0 36 2t28 10v37q-5 -1 -10 -1.5t-10 -0.5q-21 0 -37 6t-30 17.5t-27 28t-27 37.5q-42 61 -65 97.5t-36.5 56.5t-22 29t-20.5 15l-10 5v4
q48 3 82.5 21t56.5 45t32 58.5t10 61.5q0 27 -10.5 59t-36 59.5t-69.5 46t-111 18.5h-227zM211 656h101q38 0 68.5 -11t52.5 -30.5t33.5 -46.5t11.5 -59q0 -27 -10.5 -54.5t-31.5 -50t-51.5 -36.5t-70.5 -14h-103v302z" />
    <glyph glyph-name="S" unicode="S" horiz-adv-x="625" 
d="M37 177q2 -43 22.5 -78t56 -59.5t83.5 -38t105 -13.5q58 0 104.5 14t79.5 40t51 63t18 82q0 62 -31 101.5t-77.5 66t-101 44.5t-101 38t-77.5 46t-31 69q0 24 10.5 45t31 36.5t50.5 25t69 9.5q65 0 110.5 -27.5t53.5 -86.5h68q-6 37 -27 66.5t-53 50t-72.5 31t-84.5 10.5
q-46 0 -87.5 -12t-73 -35t-50 -58t-18.5 -80q0 -59 30 -95t75.5 -60t98.5 -41t98.5 -38.5t75.5 -52.5t30 -83q0 -65 -47.5 -95t-126.5 -30q-63 0 -101 16.5t-58 39.5t-27 47.5t-8 41.5h-68z" />
    <glyph glyph-name="T" unicode="T" horiz-adv-x="667" 
d="M379 0v645h268v55h-627v-55h268v-645h91z" />
    <glyph glyph-name="U" unicode="U" horiz-adv-x="720" 
d="M80 700v-430q0 -41 8 -90.5t38 -92t89 -71t161 -28.5q64 0 113.5 20t83 55t50.5 81.5t17 99.5v456h-44v-423q0 -22 -1 -44.5t-6 -45t-15.5 -44.5t-30.5 -44q-36 -39 -81 -53t-94 -14q-42 0 -74.5 13t-61.5 39q-23 20 -35 40t-18 39.5t-7 39.5t-1 40v457h-91z" />
    <glyph glyph-name="V" unicode="V" horiz-adv-x="697" 
d="M30 700l293 -700h60l284 700h-52l-233 -576h-4l-240 576h-108z" />
    <glyph glyph-name="W" unicode="W" horiz-adv-x="1056" 
d="M30 700l248 -700h60l191 547h5l185 -547h59l248 700h-46l-207 -584h-4l-195 584h-43l-199 -581h-4l-206 581h-92z" />
    <glyph glyph-name="X" unicode="X" horiz-adv-x="719" 
d="M142 700h-112l273 -351l-268 -349h54l239 313h4l244 -313h113l-303 387l239 313h-53l-211 -275h-5z" />
    <glyph glyph-name="Y" unicode="Y" horiz-adv-x="639" 
d="M30 700l242 -435v-265h91v274l246 426h-54l-214 -369h-4l-204 369h-103z" />
    <glyph glyph-name="Z" unicode="Z" horiz-adv-x="666" 
d="M55 700v-55h423l-448 -645h606v55h-461l444 645h-564z" />
    <glyph glyph-name="bracketleft" unicode="[" horiz-adv-x="305" 
d="M100 -220h175v49h-87v823h87v48h-175v-920z" />
    <glyph glyph-name="backslash" unicode="\" horiz-adv-x="516" 
d="M101 712l385 -724h-69l-387 724h71z" />
    <glyph glyph-name="bracketright" unicode="]" horiz-adv-x="305" 
d="M205 -220h-175v49h87v823h-87v48h175v-920z" />
    <glyph glyph-name="asciicircum" unicode="^" horiz-adv-x="436" 
d="M218 817l158 -63v36l-136 88h-42l-138 -88v-36z" />
    <glyph glyph-name="underscore" unicode="_" horiz-adv-x="759" 
d="M30 -220h699v72h-699v-72z" />
    <glyph glyph-name="grave" unicode="`" horiz-adv-x="223" 
d="M127 712h-111l155 -127h39z" />
    <glyph glyph-name="a" unicode="a" horiz-adv-x="540" 
d="M264 511q73 0 113 -20.5t58.5 -53.5t21.5 -76t3 -88v-273h-81v49q-29 -28 -74 -44.5t-90 -16.5q-43 0 -76 15t-55 39t-33 54t-11 61q0 32 12 64t36 57.5t59 41.5t80 16t85.5 -17.5t66.5 -49.5v43q0 82 -24.5 122t-89.5 40q-28 0 -49 -7t-37.5 -19.5t-30.5 -31t-28 -41.5
l-52 52q14 15 29.5 30t38 27t53.5 19.5t75 7.5zM379 198q-5 12 -14.5 28t-24.5 31t-36 25.5t-50 10.5t-53 -11.5t-40.5 -30t-25.5 -43.5t-9 -52q0 -32 11.5 -55.5t29.5 -40t40 -24.5t42 -8q19 0 38.5 7t37 19.5t31.5 29.5t23 37v77z" />
    <glyph glyph-name="b" unicode="b" horiz-adv-x="604" 
d="M80 700h85v-282h4q10 26 26.5 43.5t37.5 28.5t44.5 16t47.5 5q50 0 92 -18.5t72.5 -52.5t47.5 -82t17 -107q0 -60 -17 -108.5t-47.5 -83t-72.5 -53t-92 -18.5q-119 0 -156 93h-4v-81h-85v700zM165 200q0 -33 10.5 -62.5t29.5 -51t44.5 -34t54.5 -12.5q31 0 59.5 11.5
t49.5 36.5t33.5 65t12.5 96q0 57 -12.5 97t-34 65.5t-49.5 37t-59 11.5q-28 0 -53 -11.5t-44 -34t-30.5 -54.5t-11.5 -73v-87z" />
    <glyph glyph-name="c" unicode="c" horiz-adv-x="544" 
d="M331 40q-36 0 -69.5 11t-59.5 35.5t-41.5 65t-15.5 99.5q0 61 17 103.5t42.5 68t56.5 37t59 11.5q46 0 80 -24t45 -59h69q-10 36 -32 59.5t-50.5 38t-61 20t-62.5 5.5q-63 0 -111 -20.5t-81 -55.5t-49.5 -82t-16.5 -100q0 -56 18 -104.5t51.5 -84t80.5 -56t106 -20.5
q66 0 115.5 22t83.5 48l-29 38q-35 -29 -69.5 -42.5t-75.5 -13.5z" />
    <glyph glyph-name="d" unicode="d" horiz-adv-x="604" 
d="M524 700h-85v-282h-4q-10 26 -26.5 43.5t-37.5 28.5t-44.5 16t-47.5 5q-50 0 -92 -18.5t-72.5 -52.5t-47.5 -82t-17 -107q0 -60 17 -108.5t47.5 -83t72.5 -53t92 -18.5q118 0 156 93h4v-81h85v700zM439 200q0 -33 -11 -62.5t-29.5 -51t-44 -34t-54.5 -12.5
q-32 0 -60 11.5t-49 36.5t-33.5 65t-12.5 96q0 57 12.5 97t34 65.5t49.5 37t59 11.5q28 0 53 -11.5t44 -34t30.5 -54.5t11.5 -73v-87z" />
    <glyph glyph-name="e" unicode="e" horiz-adv-x="574" 
d="M524 228v21q0 67 -19 116t-51.5 81t-75.5 48t-91 16q-51 0 -94 -17.5t-75 -51t-50 -81t-18 -107.5q0 -50 15.5 -97.5t47 -85t80 -60t114.5 -22.5q64 0 118 22.5t94 64.5l-32 32q-21 -18 -39.5 -33t-37.5 -25t-39.5 -15.5t-45.5 -5.5q-28 0 -59.5 8.5t-58.5 30.5t-45 61
t-18 100h380zM144 268q0 40 8.5 77.5t26 66.5t44.5 46.5t64 17.5q71 0 110.5 -55.5t39.5 -152.5h-293z" />
    <glyph glyph-name="f" unicode="f" horiz-adv-x="363" 
d="M30 500v-40h87v-460h85v460h121v40h-121v84q0 12 1 28.5t6 31t15.5 24.5t29.5 10q24 0 39.5 -20t25.5 -41l44 47q-24 24 -49.5 36t-57.5 12q-26 0 -51 -9t-44.5 -27.5t-31.5 -47.5t-12 -68v-60h-87z" />
    <glyph glyph-name="g" unicode="g" horiz-adv-x="602" 
d="M437 -42q0 -46 -11 -78t-30.5 -52t-46 -29t-56.5 -9q-53 0 -85.5 27t-59.5 72l-55 -50q7 -9 22 -23.5t38 -29t55 -25t73 -10.5q76 0 123 21.5t73 57.5t35.5 82.5t9.5 96.5v491h-85v-78h-4q-12 42 -51.5 65.5t-103.5 23.5q-51 0 -93 -18.5t-72 -52.5t-46.5 -82t-16.5 -107
q0 -60 16.5 -108.5t46.5 -83t71.5 -53t92.5 -18.5q56 0 97.5 22t58.5 70h4v-122zM437 213q0 -42 -11.5 -74t-30.5 -54t-44 -33.5t-52 -11.5q-24 0 -51.5 8.5t-51 31.5t-39 65t-15.5 108q0 70 19 111.5t44.5 63.5t52 28.5t41.5 6.5q33 0 59 -14.5t43.5 -39t26.5 -56.5t9 -66
v-74z" />
    <glyph glyph-name="h" unicode="h" horiz-adv-x="569" 
d="M80 700v-700h85v289q0 20 3 49t16.5 56t40.5 46.5t75 19.5q34 0 54.5 -12.5t31.5 -33.5t14.5 -49t3.5 -58v-307h85v330q0 56 -16 91.5t-40 55.5t-52.5 27t-54.5 7q-35 0 -73.5 -13.5t-72.5 -51.5l-11 -14h-4v268h-85z" />
    <glyph glyph-name="i" unicode="i" horiz-adv-x="308" 
d="M112 500v-500h85v500h-85zM100 658q0 -22 16 -38t38 -16t38 16t16 38t-16 38t-38 16t-38 -16t-16 -38z" />
    <glyph glyph-name="j" unicode="j" horiz-adv-x="291" 
d="M113 500v-592q0 -23 -2 -44.5t-8.5 -38.5t-19 -27t-32.5 -10q-25 0 -37.5 12t-23.5 38l-50 -39q22 -29 51.5 -39t61.5 -10q22 0 47.5 8t47.5 30.5t36.5 62t14.5 102.5v547h-86zM103 658q0 -22 15.5 -38t38.5 -16q22 0 38 16t16 38t-16 38t-38 16q-23 0 -38.5 -16
t-15.5 -38z" />
    <glyph glyph-name="k" unicode="k" horiz-adv-x="536" 
d="M165 700h-85v-700h85v188l58 59l201 -247h112l-251 308l191 192h-65l-246 -248v448z" />
    <glyph glyph-name="l" unicode="l" horiz-adv-x="285" 
d="M185 700h-85v-700h85v700z" />
    <glyph glyph-name="m" unicode="m" horiz-adv-x="859" 
d="M165 0v285q0 18 3 47.5t15.5 58t38.5 49t73 20.5q34 0 52.5 -15t27.5 -37t10.5 -46t1.5 -42v-320h85v285q0 22 4 52.5t17 57.5t37.5 46t66.5 19q31 0 50 -9t29.5 -27t14 -44t3.5 -60v-320h85v349q0 23 -5 51.5t-21.5 53t-48 41t-83.5 16.5q-15 0 -35 -3t-42 -13
t-42.5 -29t-35.5 -50h-7q-6 16 -17 32.5t-28 30.5t-40.5 23t-56.5 9q-15 0 -36 -3.5t-42 -13.5t-39.5 -28t-30.5 -47h-4v81h-85v-500h85z" />
    <glyph glyph-name="n" unicode="n" horiz-adv-x="581" 
d="M498 0v324q0 18 -3 49.5t-19.5 62t-52.5 53t-102 22.5q-29 1 -65 -11.5t-71 -47.5l-16 -16h-4v64h-85v-500h85v309q0 39 11 67t30 47t43.5 28t50.5 9q42 0 65 -16.5t33.5 -38.5t12.5 -44t2 -32v-329h85z" />
    <glyph glyph-name="o" unicode="o" horiz-adv-x="618" 
d="M568 249q0 -52 -18 -99.5t-51.5 -83.5t-81 -57t-106.5 -21q-60 0 -108.5 21.5t-82 57.5t-52 83.5t-18.5 98.5q0 52 18.5 99.5t52 83.5t82 57.5t108.5 21.5q59 0 106.5 -21.5t81 -57.5t51.5 -83.5t18 -99.5zM473 249q0 70 -15 113.5t-39 67.5t-53 32.5t-56 8.5t-56 -8.5
t-53.5 -32.5t-40 -67.5t-15.5 -113.5q0 -69 15.5 -112.5t40 -67.5t53.5 -32.5t56 -8.5t56 8.5t53 32.5t39 67.5t15 112.5z" />
    <glyph glyph-name="p" unicode="p" horiz-adv-x="604" 
d="M80 -250h85v332h4q10 -26 26.5 -44t37.5 -29t44.5 -16t47.5 -5q50 0 92 18.5t72.5 52.5t47.5 82.5t17 107.5q0 60 -17 108t-47.5 82.5t-72.5 53t-92 18.5q-119 0 -156 -92h-4v81h-85v-750zM165 300q0 33 10.5 62.5t29.5 51t44.5 34t54.5 12.5q31 0 59.5 -11.5t49.5 -36.5
t33.5 -65t12.5 -96q0 -57 -12.5 -97t-34 -65.5t-49.5 -37t-59 -11.5q-28 0 -53 11.5t-44 34t-30.5 54.5t-11.5 73v87z" />
    <glyph glyph-name="q" unicode="q" horiz-adv-x="604" 
d="M524 -250h-85v332h-4q-10 -26 -26.5 -44t-37.5 -29t-44.5 -16t-47.5 -5q-50 0 -92 18.5t-72.5 52.5t-47.5 82.5t-17 107.5q0 60 17 108t47.5 82.5t72.5 53t92 18.5q119 0 156 -92h4v81h85v-750zM439 300q0 33 -11 62.5t-29.5 51t-44 34t-54.5 12.5q-32 0 -60 -11.5
t-49 -36.5t-33.5 -65t-12.5 -96q0 -57 12.5 -97t34 -65.5t49.5 -37t59 -11.5q28 0 53 11.5t44 34t30.5 54.5t11.5 73v87z" />
    <glyph glyph-name="r" unicode="r" horiz-adv-x="382" 
d="M80 500v-500h85v302q0 41 9.5 69.5t24.5 46.5t33 26t35 8q23 0 42.5 -15t28.5 -28l34 62q-9 12 -21.5 20t-25 12.5t-23 6t-15.5 1.5q-42 0 -70 -23t-46 -68h-6v80h-85z" />
    <glyph glyph-name="s" unicode="s" horiz-adv-x="480" 
d="M399 386q0 27 -14 50t-38.5 39.5t-57 26t-69.5 9.5q-35 0 -65.5 -9t-53 -27t-35.5 -44.5t-13 -61.5q0 -48 22 -76t55 -45t71.5 -27.5t71.5 -23t55 -31.5t22 -52q0 -14 -4.5 -29t-16.5 -27.5t-33 -21t-53 -8.5q-40 0 -67.5 12.5t-45 30t-25 35.5t-7.5 30h-65
q0 -28 13 -54.5t39.5 -47.5t65 -33.5t89.5 -12.5q92 0 138.5 40.5t46.5 106.5q0 48 -22.5 77t-56.5 46.5t-73.5 28.5t-73.5 23t-56.5 29t-22.5 48q0 13 5 27.5t17 27t32 21t50 8.5t52 -8.5t37 -21t22 -27.5t7 -28h57z" />
    <glyph glyph-name="t" unicode="t" horiz-adv-x="375" 
d="M30 460v40h87v154h85v-154h121v-40h-121v-332q0 -12 1 -27.5t6 -29t15.5 -22.5t29.5 -9q24 0 40 18t26 39l47 -48q-49 -49 -111 -49q-26 0 -51 9t-44.5 27.5t-31.5 47.5t-12 68v308h-87z" />
    <glyph glyph-name="u" unicode="u" horiz-adv-x="581" 
d="M80 500v-325q0 -18 3.5 -49.5t20.5 -62t53.5 -53t102.5 -22.5q29 -1 63.5 11.5t69.5 47.5l16 16h4v-63h85v500h-85v-310q0 -39 -11 -67t-29 -46.5t-42 -27.5t-50 -9q-42 0 -65.5 16.5t-35 38.5t-13.5 43.5t-2 31.5v330h-85z" />
    <glyph glyph-name="v" unicode="v" horiz-adv-x="510" 
d="M20 500l208 -500h60l202 500h-47l-162 -401h-6l-167 401h-88z" />
    <glyph glyph-name="w" unicode="w" horiz-adv-x="746" 
d="M20 500l173 -500h54l116 335h4l130 -335h47l182 500h-52l-136 -374h-4l-142 374h-20l-131 -377h-4l-130 377h-87z" />
    <glyph glyph-name="x" unicode="x" horiz-adv-x="531" 
d="M246 207l153 -207h102l-204 274l168 226h-58l-139 -187l-137 187h-101l187 -254l-186 -246h59z" />
    <glyph glyph-name="y" unicode="y" horiz-adv-x="504" 
d="M274 117l-173 383h-91l224 -494l-53 -130q-9 -23 -23.5 -37t-33.5 -14q-18 0 -34.5 10.5t-25.5 30.5l-44 -83q19 -17 42 -25t43 -8q28 0 49 14t37 36.5t28 50t23 54.5l242 595h-49l-157 -383h-4z" />
    <glyph glyph-name="z" unicode="z" horiz-adv-x="490" 
d="M36 500v-40h301l-317 -460h437v40h-314l317 460h-424z" />
    <glyph glyph-name="braceleft" unicode="{" horiz-adv-x="356" 
d="M60 291q15 -2 32 -8.5t31.5 -23t24.5 -44.5t10 -73q0 -35 -2 -63.5t-2 -57.5q0 -23 5 -54t22.5 -59.5t51.5 -49t93 -22.5v59q-27 6 -42 19t-23 28t-10 30.5t-2 27.5q0 31 3 61.5t3 59.5q0 77 -30.5 123.5t-97.5 77.5v8q67 31 97.5 78t30.5 124q0 32 -3 62t-3 62
q0 11 2 26.5t10 30.5t23 28t42 20v58q-30 -1 -60.5 -9.5t-55 -29.5t-40.5 -56.5t-16 -90.5q0 -30 2 -59.5t2 -59.5q0 -41 -8 -69t-21.5 -45.5t-31.5 -26.5t-37 -10v-72z" />
    <glyph glyph-name="bar" unicode="|" horiz-adv-x="273" 
d="M100 885v-1134h73v1134h-73z" />
    <glyph glyph-name="braceright" unicode="}" horiz-adv-x="358" 
d="M298 363q-14 1 -31 7.5t-32 23t-25 45.5t-10 75q0 30 2 59.5t2 59.5q0 55 -16 90.5t-41.5 56.5t-56.5 29.5t-60 9.5v-58q25 -6 40.5 -17.5t24 -26t11.5 -30.5t3 -31q0 -32 -3 -62t-3 -62q0 -77 29.5 -124t96.5 -78v-8q-67 -31 -96.5 -77.5t-29.5 -123.5q0 -29 3 -59.5
t3 -61.5q0 -15 -3 -31.5t-11.5 -31t-24 -25.5t-40.5 -17v-59q61 3 96 25t52 51.5t21.5 59.5t4.5 49q0 29 -2 57.5t-2 63.5q0 39 8 66.5t21.5 45.5t31.5 26.5t37 10.5v72z" />
    <glyph glyph-name="asciitilde" unicode="~" horiz-adv-x="602" 
d="M87 284q11 16 29 25.5t48 9.5q35 0 60 -2t45 -5.5t38 -7.5t39 -8l57 -10q5 -1 10 -1h11q13 0 28.5 3t31 11.5t31 24.5t27.5 43l-23 15q-17 -18 -37 -25.5t-48 -7.5q-15 0 -48.5 5t-71.5 11.5t-73.5 11.5t-54.5 5q-13 0 -29 -2.5t-32.5 -11t-33.5 -24t-31 -41.5z" />
    <glyph glyph-name="uni007F" 
 />
    <glyph glyph-name="exclamdown" unicode="&#xa1;" horiz-adv-x="348" 
d="M120 646q0 -22 16 -38t38 -16t38 16t16 38t-16 38t-38 16t-38 -16t-16 -38zM195 554h-47l-31 -566h110z" />
    <glyph glyph-name="cent" unicode="&#xa2;" horiz-adv-x="595" 
d="M311 643v-133q-55 -3 -98 -25t-72.5 -57t-45 -81.5t-15.5 -98.5q0 -50 16 -95t46 -79.5t73 -57t96 -26.5v-154h53v153q54 5 97.5 25.5t73.5 43.5l-29 38q-35 -29 -68.5 -43.5t-73.5 -15.5v429q47 -5 74 -26.5t37 -51.5h69q-9 31 -27 53t-42 36.5t-52.5 22t-58.5 9.5v134
h-53zM175 249q0 59 12.5 98.5t32 64t43.5 36.5t48 16v-422q-28 7 -53 22t-43.5 40.5t-29 61t-10.5 83.5z" />
    <glyph glyph-name="sterling" unicode="&#xa3;" horiz-adv-x="768" 
d="M574 394h-216q-5 33 -8.5 58t-5.5 43.5t-3 32t-1 25.5q0 21 4.5 42t14 37.5t25 26.5t38.5 10q24 0 34.5 -7t10.5 -14q0 -6 -4 -9.5t-9.5 -9t-9.5 -15t-4 -25.5q0 -22 16 -38t43 -16q29 0 43.5 22.5t14.5 57.5q0 45 -31.5 71t-79.5 26q-38 0 -74.5 -12t-65.5 -36
t-47 -59.5t-18 -82.5q0 -29 3 -64.5t8 -63.5h-156v-44h164q11 -35 14 -72.5t3 -74.5q0 -17 -2 -31.5t-9 -32.5q-17 5 -37 8t-36 3q-27 0 -50 -6t-40 -18t-27 -29.5t-10 -39.5q0 -23 11 -36.5t25 -20.5t28 -9t20 -2h25q39 3 71 26t56 50l30 -16q53 -29 92.5 -44.5t77.5 -15.5
q42 0 72 16t51.5 43t36.5 63t27 77l-47 12q-8 -26 -19 -50t-27.5 -42t-38.5 -28.5t-52 -10.5q-41 0 -83.5 16.5t-91.5 32.5q16 32 27 69t11 81q0 5 -1 25t-4 57h211v44zM247 90q-22 -38 -45 -49.5t-37 -11.5q-20 0 -31 9.5t-11 20.5q0 6 2.5 13.5t9 14t19 11t32.5 4.5
q11 0 26 -2t35 -10z" />
    <glyph glyph-name="currency" unicode="&#xa4;" horiz-adv-x="733" 
d="M629 658l-72 -74q-42 33 -89 50t-103 17q-55 0 -100.5 -17t-87.5 -51l-75 75l-42 -45l73 -72q-35 -43 -51 -89t-16 -101q0 -57 16 -103.5t51 -88.5l-73 -72l42 -44l76 72q47 -38 94.5 -52.5t92.5 -14.5q17 0 39 2.5t47 9.5t52 20.5t54 34.5l72 -71l44 43l-72 72
q33 42 49.5 88t16.5 103q0 56 -16.5 102t-49.5 89l72 72zM196 181q-27 27 -48 68.5t-21 101.5t22.5 105t57.5 75t77 45t81 15t81.5 -15t78 -45.5t58 -75.5t22.5 -105q0 -59 -22.5 -104t-58 -75.5t-78 -46t-81.5 -15.5q-49 0 -92.5 20t-76.5 52z" />
    <glyph glyph-name="yen" unicode="&#xa5;" horiz-adv-x="619" 
d="M20 700l231 -416h-127v-56h138v-41h-138v-57h138v-130h91v130h138v57h-138v41h138v56h-132l240 416h-54l-214 -369h-4l-204 369h-103z" />
    <glyph glyph-name="brokenbar" unicode="&#xa6;" horiz-adv-x="248" 
d="M80 157v-406h85v406h-85zM80 885v-406h85v406h-85z" />
    <glyph glyph-name="section" unicode="&#xa7;" horiz-adv-x="562" 
d="M426 595v5q0 24 -10.5 44.5t-29 35.5t-43.5 23.5t-54 8.5q-43 0 -71 -12t-44.5 -29t-23.5 -37t-7 -36q0 -38 24.5 -70t51.5 -58q-29 -18 -54.5 -37.5t-44 -42t-29.5 -48.5t-11 -57q0 -30 13.5 -56.5t35 -51.5t49 -49.5t56.5 -50.5l12 -11q16 -15 31.5 -29.5t28.5 -29
t21 -29.5t8 -31q0 -8 -2.5 -18t-11 -18.5t-23 -14.5t-38.5 -6q-11 0 -24 2t-25 9.5t-20 21.5t-9 38h-62q0 -29 13.5 -50.5t34.5 -36t46.5 -22t51.5 -7.5q31 0 56 9t43 24t28 35t10 42q0 42 -20 77t-44 58q26 13 51.5 29.5t46 37.5t33 47t12.5 57q0 37 -19.5 71t-45.5 63
t-53.5 52t-45.5 38l-12 10q-42 34 -67.5 62.5t-25.5 55.5q0 26 18.5 40.5t51.5 14.5q35 0 55.5 -19.5t20.5 -49.5v-4h67zM353 349q20 -20 38.5 -43t18.5 -49q0 -35 -20.5 -74.5t-74.5 -71.5l-113 100q-11 10 -20.5 24t-16.5 29t-11 28.5t-4 22.5q0 39 26 73t66 63z" />
    <glyph glyph-name="dieresis" unicode="&#xa8;" horiz-adv-x="246" 
d="M0 658q0 -22 16 -38t38 -16t38 16t16 38t-16 38t-38 16t-38 -16t-16 -38zM138 658q0 -22 16 -38t38 -16t38 16t16 38t-16 38t-38 16t-38 -16t-16 -38z" />
    <glyph glyph-name="copyright" unicode="&#xa9;" horiz-adv-x="862" 
d="M135 350q0 61 23.5 115t64 94t94 63.5t114.5 23.5t114.5 -23.5t94 -63.5t64 -94t23.5 -115t-23.5 -114.5t-64 -94t-94 -64t-114.5 -23.5t-114.5 23.5t-94 64t-64 94t-23.5 114.5zM70 350q0 -74 28.5 -139.5t77.5 -114.5t114.5 -77.5t140.5 -28.5t140.5 28.5t114.5 77.5
t77.5 114.5t28.5 139.5q0 75 -28.5 140.5t-77.5 114.5t-114.5 77.5t-140.5 28.5t-140.5 -28.5t-114.5 -77.5t-77.5 -114.5t-28.5 -140.5zM453 187q-26 0 -49.5 8.5t-42.5 27t-30 48t-11 71.5q0 52 12 84t30.5 49.5t40 23.5t40.5 6q41 0 62 -17.5t29 -41.5h56
q-8 27 -23.5 44.5t-37 28t-46.5 14.5t-51 4q-44 0 -78.5 -15.5t-58 -41.5t-36 -62t-12.5 -76q0 -39 13.5 -74t38 -61t59.5 -41.5t78 -15.5q48 0 85 16.5t62 35.5l-25 31q-26 -22 -50 -34t-55 -12z" />
    <glyph glyph-name="ordfeminine" unicode="&#xaa;" horiz-adv-x="481" 
d="M311 449q-16 -26 -39.5 -41t-49.5 -15q-44 0 -62.5 23.5t-18.5 52.5q0 14 3.5 29.5t12.5 28t25 20.5t41 8q30 0 51 -15.5t37 -42.5v-48zM381 550q0 30 -2.5 59t-17 51.5t-46 36.5t-88.5 14q-26 0 -61 -6t-70 -27l30 -47q26 21 52.5 34t49.5 13q35 0 59 -18.5t24 -55.5
v-60q-22 21 -47 34.5t-60 13.5q-34 0 -59.5 -10.5t-42 -28t-24.5 -39.5t-8 -45q0 -19 7 -39t22.5 -36t40 -26.5t59.5 -10.5q32 0 59 11.5t53 31.5v-35h70v185z" />
    <glyph glyph-name="guillemotleft" unicode="&#xab;" horiz-adv-x="540" 
d="M151 259l117 198h-68l-120 -198l120 -198h68zM342 259l118 198h-68l-122 -198l122 -198h68z" />
    <glyph glyph-name="logicalnot" unicode="&#xac;" horiz-adv-x="928" 
d="M120 230h625v-105h63v168h-688v-63z" />
    <glyph glyph-name="uni00AD" unicode="&#xad;" horiz-adv-x="367" 
d="M60 300v-64h247v64h-247z" />
    <glyph glyph-name="registered" unicode="&#xae;" horiz-adv-x="862" 
d="M363 501h45q34 0 56.5 -22.5t22.5 -51.5q0 -21 -7.5 -35t-19.5 -22.5t-25.5 -12.5t-25.5 -4h-46v148zM299 151h64v164h43q4 0 15 -14.5t23.5 -33.5t23.5 -37t16 -25q9 -12 16.5 -23t17.5 -19.5t22.5 -13t31.5 -4.5q16 0 24.5 2t17.5 8v32q-9 -3 -18 -3q-23 0 -34 12
t-16 20l-78 110q23 6 39.5 18t27 27t15 30.5t4.5 29.5q0 9 -4 26.5t-17.5 35t-39 30t-67.5 12.5h-127v-384zM135 349q0 61 23.5 114.5t64 94t94 64t114.5 23.5t114.5 -23.5t94 -64t64 -94t23.5 -114.5t-23.5 -114.5t-64 -94t-94 -64t-114.5 -23.5t-114.5 23.5t-94 64t-64 94
t-23.5 114.5zM70 349q0 -74 28.5 -140t77.5 -115t114.5 -77.5t140.5 -28.5t140.5 28.5t114.5 77.5t77.5 115t28.5 140q0 75 -28.5 140.5t-77.5 114.5t-114.5 77.5t-140.5 28.5t-140.5 -28.5t-114.5 -77.5t-77.5 -114.5t-28.5 -140.5z" />
    <glyph glyph-name="macron" unicode="&#xaf;" horiz-adv-x="363" 
d="M25 583h313v40h-313v-40z" />
    <glyph glyph-name="degree" unicode="&#xb0;" horiz-adv-x="375" 
d="M70 579q0 -24 9 -45.5t25 -37t37.5 -25t46.5 -9.5q24 0 45.5 9.5t37.5 25t25 37t9 45.5q0 25 -9 46.5t-25 37.5t-37.5 25t-45.5 9q-25 0 -46.5 -9t-37.5 -25t-25 -37.5t-9 -46.5zM114 579q0 31 22 52.5t52 21.5q19 0 32.5 -7.5t22.5 -18.5t13.5 -24t4.5 -24
q0 -29 -22 -50.5t-51 -21.5q-11 0 -24 4t-24 13t-18.5 22.5t-7.5 32.5z" />
    <glyph glyph-name="plusminus" unicode="&#xb1;" horiz-adv-x="828" 
d="M386 609v-178h-266v-55h266v-158h56v158h266v55h-266v178h-56zM120 116h588v56h-588v-56z" />
    <glyph glyph-name="uni00B2" unicode="&#xb2;" 
d="M306 286h-282v54l115 112q62 60 79.5 87.5t17.5 61.5q0 32 -18.5 48t-48.5 16t-54.5 -11.5t-50.5 -31.5l-35 46q65 55 141 55q64 0 100.5 -32t36.5 -86q0 -22 -6 -41.5t-18.5 -39.5t-33 -42.5t-138.5 -133.5h195v-62z" />
    <glyph glyph-name="uni00B3" unicode="&#xb3;" 
d="M308 613q0 -74 -74 -102q87 -21 87 -102q0 -62 -45 -96.5t-128 -34.5q-74 0 -131 28v63q69 -34 132 -34q100 0 100 76q0 69 -110 69h-57v55h57q50 0 73.5 19t23.5 51q0 29 -19 45t-51 16q-51 0 -111 -38l-36 46q36 27 71 38t75 11q66 0 104.5 -29.5t38.5 -80.5z" />
    <glyph glyph-name="acute" unicode="&#xb4;" horiz-adv-x="194" 
d="M83 712h111l-155 -127h-39z" />
    <glyph glyph-name="mu" unicode="&#xb5;" horiz-adv-x="658" 
d="M165 500h-85v-723h65v298h5q6 -24 20.5 -40.5t33 -27t38 -15t36.5 -4.5q18 0 38.5 6.5t39.5 20t34.5 34t24.5 48.5q6 -48 38 -78.5t82 -30.5q30 0 53.5 11t39.5 35l-24 23q-11 -15 -28 -26t-31 -11q-23 0 -35.5 14.5t-18 37t-6.5 48.5t-1 50v330h-85v-318
q0 -63 -29.5 -102t-86.5 -39q-44 0 -68 17t-35 39t-13 43.5t-2 29.5v330z" />
    <glyph glyph-name="paragraph" unicode="&#xb6;" horiz-adv-x="541" 
d="M260 -250v950h-85q-40 0 -67.5 -11.5t-45 -30t-25 -42.5t-7.5 -48t7.5 -47.5t25 -42.5t45 -30.5t67.5 -11.5h16v-686h69zM391 700v-950h70v950h-70z" />
    <glyph glyph-name="periodcentered" unicode="&#xb7;" horiz-adv-x="228" 
d="M60 370q0 -22 16 -38t38 -16t38 16t16 38t-16 38t-38 16t-38 -16t-16 -38z" />
    <glyph glyph-name="cedilla" unicode="&#xb8;" horiz-adv-x="181" 
d="M0 -190q15 -2 32.5 -4t34.5 -2q21 0 41.5 4.5t36.5 15t26 26t10 38.5q0 32 -27 50.5t-60 18.5h-12t-12 -1l12 44h-33l-25 -82q7 2 18.5 3t18.5 1q38 0 51 -12t13 -24q0 -17 -9 -27t-23 -15t-30.5 -7t-30.5 -2h-13t-11 2z" />
    <glyph glyph-name="uni00B9" unicode="&#xb9;" 
d="M167 714h73v-428h-71v276q0 33 4 89q-15 -14 -26.5 -23t-74.5 -55l-35 49z" />
    <glyph glyph-name="ordmasculine" unicode="&#xba;" horiz-adv-x="479" 
d="M125 535q0 45 10.5 73t27 44t37 21.5t39.5 5.5t39.5 -5.5t37.5 -21.5t27.5 -44t10.5 -73t-10.5 -73.5t-27.5 -44.5t-37.5 -21.5t-39.5 -5.5t-39.5 5.5t-37 21.5t-27 44.5t-10.5 73.5zM50 535q0 -41 15 -73.5t41 -55.5t60.5 -35.5t72.5 -12.5q39 0 73.5 12.5t60.5 35.5
t41 55.5t15 73.5q0 40 -15 73t-41 55.5t-60.5 35t-73.5 12.5q-38 0 -72.5 -12.5t-60.5 -35t-41 -55.5t-15 -73z" />
    <glyph glyph-name="guillemotright" unicode="&#xbb;" horiz-adv-x="540" 
d="M198 259l-118 -198h69l119 198l-119 198h-69zM390 259l-120 -198h69l121 198l-121 198h-69z" />
    <glyph glyph-name="onequarter" unicode="&#xbc;" horiz-adv-x="790" 
d="M736 96h-61v-96h-75v96h-195v52l197 283h73v-275h61v-60zM600 156v93q0 52 3 101q-4 -9 -48 -77l-80 -117h125zM732 712l-385 -724h69l387 724h-71zM165 714h73v-428h-71v276q0 33 4 89q-15 -14 -26.5 -23t-74.5 -55l-35 49z" />
    <glyph glyph-name="onehalf" unicode="&#xbd;" horiz-adv-x="790" 
d="M702 712l-385 -724h69l387 724h-71zM152 714h73v-428h-71v276q0 33 4 89q-15 -14 -26.5 -23t-74.5 -55l-35 49zM727 0h-282v54l115 112q62 60 79.5 87.5t17.5 61.5q0 32 -18.5 48t-48.5 16t-54.5 -11.5t-50.5 -31.5l-35 46q65 55 141 55q64 0 100.5 -32t36.5 -86
q0 -22 -6 -41.5t-18.5 -39.5t-33 -42.5t-138.5 -133.5h195v-62z" />
    <glyph glyph-name="threequarters" unicode="&#xbe;" horiz-adv-x="790" 
d="M772 96h-61v-96h-75v96h-195v52l197 283h73v-275h61v-60zM636 156v93q0 52 3 101q-4 -9 -48 -77l-80 -117h125zM776 712l-385 -724h69l387 724h-71zM307 613q0 -74 -74 -102q87 -21 87 -102q0 -62 -45 -96.5t-128 -34.5q-74 0 -131 28v63q69 -34 132 -34q100 0 100 76
q0 69 -110 69h-57v55h57q50 0 73.5 19t23.5 51q0 29 -19 45t-51 16q-51 0 -111 -38l-36 46q36 27 71 38t75 11q66 0 104.5 -29.5t38.5 -80.5z" />
    <glyph glyph-name="questiondown" unicode="&#xbf;" horiz-adv-x="519" 
d="M195 443q16 20 35 36t42 16q12 0 24.5 -11.5t12.5 -31.5q0 -27 -15.5 -52t-38.5 -49.5t-50.5 -49t-50.5 -51.5t-38.5 -57.5t-15.5 -65.5q0 -25 7.5 -50t26 -44.5t50.5 -32t81 -12.5q38 0 66.5 9.5t48 26.5t29 40t10.5 49h-70v-6q0 -18 -7.5 -33.5t-20.5 -26.5t-29 -17
t-33 -6t-33 6t-29.5 16.5t-21.5 25t-8 32.5q0 30 14.5 55.5t36 49t46.5 45.5t47.5 46.5t38 51.5t17.5 61v10q0 23 -7 43.5t-21 36t-35 24.5t-50 9q-25 0 -54.5 -16t-52.5 -44zM322 658q0 22 -16 38t-38 16t-38 -16t-16 -38t16 -38t38 -16t38 16t16 38z" />
    <glyph glyph-name="Agrave" unicode="&#xc0;" horiz-adv-x="732" 
d="M509 206l96 -206h97l-326 700h-50l-296 -700h46l88 206h345zM488 251h-305l144 337h4zM380 912h-111l155 -127h39z" />
    <glyph glyph-name="Aacute" unicode="&#xc1;" horiz-adv-x="732" 
d="M509 206l96 -206h97l-326 700h-50l-296 -700h46l88 206h345zM488 251h-305l144 337h4zM352 912h111l-155 -127h-39z" />
    <glyph glyph-name="Acircumflex" unicode="&#xc2;" horiz-adv-x="732" 
d="M509 206l96 -206h97l-326 700h-50l-296 -700h46l88 206h345zM488 251h-305l144 337h4zM365 828l11 -6.5t27.5 -16.5t36 -22t36 -22.5l27.5 -17.5l11 -7l25 31l-11 11t-27.5 27t-36 35t-36 35t-27.5 26.5l-11 10.5h-50l-11 -11t-27.5 -27t-36 -35t-36 -35t-27.5 -27
t-11 -10l24 -30l11.5 6.5t28 17t36 22t36 22t27.5 17z" />
    <glyph glyph-name="Atilde" unicode="&#xc3;" horiz-adv-x="732" 
d="M509 206l96 -206h97l-326 700h-50l-296 -700h46l88 206h345zM488 251h-305l144 337h4zM207 789q11 19 28.5 31.5t34.5 12.5q13 0 25.5 -4t23.5 -9q36 -14 66 -25t56 -11q35 0 64.5 23.5t46.5 76.5l-30 14q-11 -26 -28 -35.5t-34 -9.5q-12 0 -23.5 3t-20.5 5
q-43 14 -73.5 26.5t-53.5 12.5q-38 0 -66.5 -27.5t-42.5 -68.5z" />
    <glyph glyph-name="Adieresis" unicode="&#xc4;" horiz-adv-x="732" 
d="M509 206l96 -206h97l-326 700h-50l-296 -700h46l88 206h345zM488 251h-305l144 337h4zM243 858q0 -22 16 -38t38 -16t38 16t16 38t-16 38t-38 16t-38 -16t-16 -38zM381 858q0 -22 16 -38t38 -16t38 16t16 38t-16 38t-38 16t-38 -16t-16 -38z" />
    <glyph glyph-name="Aring" unicode="&#xc5;" horiz-adv-x="732" 
d="M509 206l96 -206h97l-326 700h-50l-296 -700h46l88 206h345zM488 251h-305l144 337h4zM307 829q0 25 17 41.5t42 16.5q24 0 41.5 -16.5t17.5 -41.5t-17.5 -42t-41.5 -17q-25 0 -42 17t-17 42zM274 829q0 -19 7 -35.5t19.5 -29t29.5 -20t36 -7.5t36 7.5t29.5 20t19.5 29
t7 35.5q0 15 -5.5 31.5t-17 29.5t-29 21.5t-40.5 8.5t-40 -8.5t-28.5 -21.5t-17.5 -29.5t-6 -31.5z" />
    <glyph glyph-name="AE" unicode="&#xc6;" horiz-adv-x="1002" 
d="M512 254h-265l265 396v-396zM512 209v-209h460v55h-369v295h300v44h-300v250h352v56h-465l-470 -700h58l139 209h295z" />
    <glyph glyph-name="Ccedilla" unicode="&#xc7;" horiz-adv-x="759" 
d="M384 -190q15 -2 32.5 -4t34.5 -2q21 0 41.5 4.5t36.5 15t26 26t10 38.5q0 32 -27 50.5t-60 18.5h-12t-12 -1l9 33q58 3 103.5 15.5t80 29t57.5 35t35 33.5l-30 27q-102 -96 -242 -96q-78 0 -138 27t-100 72t-60.5 104t-20.5 123q0 68 21.5 124.5t60.5 97.5t92.5 64
t116.5 23q43 0 78.5 -10t63 -26t45 -36.5t24.5 -41.5h74q-15 34 -38.5 63t-58.5 50t-82 33t-107 12q-87 0 -158.5 -25t-122.5 -71.5t-79 -112t-28 -146.5q0 -69 22 -135t68 -117.5t118 -83.5t171 -33l-21 -70q7 2 18.5 3t18.5 1q38 0 51 -12t13 -24q0 -17 -9 -27t-23 -15
t-30.5 -7t-30.5 -2h-13t-11 2z" />
    <glyph glyph-name="Egrave" unicode="&#xc8;" horiz-adv-x="602" 
d="M120 700v-700h452v55h-361v293h310v46h-310v251h361v55h-452zM315 912h-111l155 -127h39z" />
    <glyph glyph-name="Eacute" unicode="&#xc9;" horiz-adv-x="602" 
d="M120 700v-700h452v55h-361v293h310v46h-310v251h361v55h-452zM287 912h111l-155 -127h-39z" />
    <glyph glyph-name="Ecircumflex" unicode="&#xca;" horiz-adv-x="602" 
d="M120 700v-700h452v55h-361v293h310v46h-310v251h361v55h-452zM300 828l11 -6.5t27.5 -16.5t36 -22t36 -22.5l27.5 -17.5l11 -7l25 31l-11 11t-27.5 27t-36 35t-36 35t-27.5 26.5l-11 10.5h-50l-11 -11t-27.5 -27t-36 -35t-36 -35t-27.5 -27t-11 -10l24 -30l11.5 6.5
t28 17t36 22t36 22t27.5 17z" />
    <glyph glyph-name="Edieresis" unicode="&#xcb;" horiz-adv-x="602" 
d="M120 700v-700h452v55h-361v293h310v46h-310v251h361v55h-452zM178 858q0 -22 16 -38t38 -16t38 16t16 38t-16 38t-38 16t-38 -16t-16 -38zM316 858q0 -22 16 -38t38 -16t38 16t16 38t-16 38t-38 16t-38 -16t-16 -38z" />
    <glyph glyph-name="Igrave" unicode="&#xcc;" horiz-adv-x="411" 
d="M160 700v-700h91v700h-91zM219 912h-111l155 -127h39z" />
    <glyph glyph-name="Iacute" unicode="&#xcd;" horiz-adv-x="411" 
d="M160 700v-700h91v700h-91zM191 912h111l-155 -127h-39z" />
    <glyph glyph-name="Icircumflex" unicode="&#xce;" horiz-adv-x="411" 
d="M160 700v-700h91v700h-91zM205 828l11 -6.5t27.5 -16.5t36 -22t36 -22.5l27.5 -17.5l11 -7l25 31l-11 11t-27.5 27t-36 35t-36 35t-27.5 26.5l-11 10.5h-50l-11 -11t-27.5 -27t-36 -35t-36 -35t-27.5 -27t-11 -10l24 -30l11.5 6.5t28 17t36 22t36 22t27.5 17z" />
    <glyph glyph-name="Idieresis" unicode="&#xcf;" horiz-adv-x="411" 
d="M160 700v-700h91v700h-91zM82 858q0 -22 16 -38t38 -16t38 16t16 38t-16 38t-38 16t-38 -16t-16 -38zM220 858q0 -22 16 -38t38 -16t38 16t16 38t-16 38t-38 16t-38 -16t-16 -38z" />
    <glyph glyph-name="Eth" unicode="&#xd0;" horiz-adv-x="786" 
d="M10 371h110v329h230q83 0 152.5 -27t119 -74t77 -112t27.5 -140q0 -76 -29 -139.5t-78.5 -109.5t-115.5 -72t-141 -26h-242v331h-110v40zM211 44h110q82 0 139.5 28t94.5 72.5t54 99.5t17 109q0 61 -20 116t-58.5 96.5t-95.5 66t-131 24.5h-110v-285h112v-40h-112v-287z
" />
    <glyph glyph-name="Ntilde" unicode="&#xd1;" horiz-adv-x="850" 
d="M684 700v-535h-4l-555 547h-5v-712h46v535h4l555 -547h5v712h-46zM266 789q11 19 28.5 31.5t34.5 12.5q13 0 25.5 -4t23.5 -9q36 -14 66 -25t56 -11q35 0 64.5 23.5t46.5 76.5l-30 14q-11 -26 -28 -35.5t-34 -9.5q-12 0 -23.5 3t-20.5 5q-43 14 -73.5 26.5t-53.5 12.5
q-38 0 -66.5 -27.5t-42.5 -68.5z" />
    <glyph glyph-name="Ograve" unicode="&#xd2;" horiz-adv-x="865" 
d="M50 350q0 -56 21.5 -119.5t67.5 -117.5t117 -89.5t170 -35.5q67 0 121.5 16.5t98 44.5t75.5 64.5t52.5 77t31 81.5t10.5 78q0 56 -23 119.5t-71 117.5t-121.5 89.5t-173.5 35.5q-99 0 -170 -35t-117 -88.5t-67.5 -117.5t-21.5 -121zM148 350q0 70 21.5 128.5t59 100.5
t88.5 65.5t111 23.5q59 0 111.5 -23.5t92 -65.5t62.5 -100.5t23 -128.5t-23 -128.5t-62.5 -100.5t-92 -65.5t-111.5 -23.5q-60 0 -111 23.5t-88.5 65.5t-59 100.5t-21.5 128.5zM446 912h-111l155 -127h39z" />
    <glyph glyph-name="Oacute" unicode="&#xd3;" horiz-adv-x="865" 
d="M50 350q0 -56 21.5 -119.5t67.5 -117.5t117 -89.5t170 -35.5q67 0 121.5 16.5t98 44.5t75.5 64.5t52.5 77t31 81.5t10.5 78q0 56 -23 119.5t-71 117.5t-121.5 89.5t-173.5 35.5q-99 0 -170 -35t-117 -88.5t-67.5 -117.5t-21.5 -121zM148 350q0 70 21.5 128.5t59 100.5
t88.5 65.5t111 23.5q59 0 111.5 -23.5t92 -65.5t62.5 -100.5t23 -128.5t-23 -128.5t-62.5 -100.5t-92 -65.5t-111.5 -23.5q-60 0 -111 23.5t-88.5 65.5t-59 100.5t-21.5 128.5zM418 912h111l-155 -127h-39z" />
    <glyph glyph-name="Ocircumflex" unicode="&#xd4;" horiz-adv-x="865" 
d="M50 350q0 -56 21.5 -119.5t67.5 -117.5t117 -89.5t170 -35.5q67 0 121.5 16.5t98 44.5t75.5 64.5t52.5 77t31 81.5t10.5 78q0 56 -23 119.5t-71 117.5t-121.5 89.5t-173.5 35.5q-99 0 -170 -35t-117 -88.5t-67.5 -117.5t-21.5 -121zM148 350q0 70 21.5 128.5t59 100.5
t88.5 65.5t111 23.5q59 0 111.5 -23.5t92 -65.5t62.5 -100.5t23 -128.5t-23 -128.5t-62.5 -100.5t-92 -65.5t-111.5 -23.5q-60 0 -111 23.5t-88.5 65.5t-59 100.5t-21.5 128.5zM432 828l11 -6.5t27.5 -16.5t36 -22t36 -22.5l27.5 -17.5l11 -7l25 31l-11 11t-27.5 27t-36 35
t-36 35t-27.5 26.5l-11 10.5h-50l-11 -11t-27.5 -27t-36 -35t-36 -35t-27.5 -27t-11 -10l24 -30l11.5 6.5t28 17t36 22t36 22t27.5 17z" />
    <glyph glyph-name="Otilde" unicode="&#xd5;" horiz-adv-x="865" 
d="M50 350q0 -56 21.5 -119.5t67.5 -117.5t117 -89.5t170 -35.5q67 0 121.5 16.5t98 44.5t75.5 64.5t52.5 77t31 81.5t10.5 78q0 56 -23 119.5t-71 117.5t-121.5 89.5t-173.5 35.5q-99 0 -170 -35t-117 -88.5t-67.5 -117.5t-21.5 -121zM148 350q0 70 21.5 128.5t59 100.5
t88.5 65.5t111 23.5q59 0 111.5 -23.5t92 -65.5t62.5 -100.5t23 -128.5t-23 -128.5t-62.5 -100.5t-92 -65.5t-111.5 -23.5q-60 0 -111 23.5t-88.5 65.5t-59 100.5t-21.5 128.5zM273 789q11 19 28.5 31.5t34.5 12.5q13 0 25.5 -4t23.5 -9q36 -14 66 -25t56 -11
q35 0 64.5 23.5t46.5 76.5l-30 14q-11 -26 -28 -35.5t-34 -9.5q-12 0 -23.5 3t-20.5 5q-43 14 -73.5 26.5t-53.5 12.5q-38 0 -66.5 -27.5t-42.5 -68.5z" />
    <glyph glyph-name="Odieresis" unicode="&#xd6;" horiz-adv-x="865" 
d="M50 350q0 -56 21.5 -119.5t67.5 -117.5t117 -89.5t170 -35.5q67 0 121.5 16.5t98 44.5t75.5 64.5t52.5 77t31 81.5t10.5 78q0 56 -23 119.5t-71 117.5t-121.5 89.5t-173.5 35.5q-99 0 -170 -35t-117 -88.5t-67.5 -117.5t-21.5 -121zM148 350q0 70 21.5 128.5t59 100.5
t88.5 65.5t111 23.5q59 0 111.5 -23.5t92 -65.5t62.5 -100.5t23 -128.5t-23 -128.5t-62.5 -100.5t-92 -65.5t-111.5 -23.5q-60 0 -111 23.5t-88.5 65.5t-59 100.5t-21.5 128.5zM309 858q0 -22 16 -38t38 -16t38 16t16 38t-16 38t-38 16t-38 -16t-16 -38zM447 858
q0 -22 16 -38t38 -16t38 16t16 38t-16 38t-38 16t-38 -16t-16 -38z" />
    <glyph glyph-name="multiply" unicode="&#xd7;" horiz-adv-x="616" 
d="M495 579l-187 -187l-189 189l-39 -39l188 -189l-188 -189l39 -38l189 188l188 -188l40 38l-190 189l189 188z" />
    <glyph glyph-name="Oslash" unicode="&#xd8;" horiz-adv-x="876" 
d="M595 712l-18 -34q-64 22 -141 22q-99 0 -170 -34t-117 -86.5t-67.5 -115.5t-21.5 -120q0 -39 10.5 -82t32 -84t54.5 -77.5t79 -62.5l-26 -50h69l13 24q32 -11 67 -17.5t77 -6.5q67 0 121 16t96 43.5t73 63t51 75t29.5 80.5t9.5 78q0 39 -10.5 82.5t-33 85t-57 78
t-81.5 62.5l32 60h-71zM718 344q0 -70 -21.5 -127.5t-59.5 -99t-89 -64t-110 -22.5q-67 0 -121 27l288 541q52 -41 82.5 -106t30.5 -149zM158 344q0 70 21.5 127.5t59 98.5t88.5 63.5t111 22.5q59 0 114 -25l-287 -539q-50 42 -78.5 106t-28.5 146z" />
    <glyph glyph-name="Ugrave" unicode="&#xd9;" horiz-adv-x="720" 
d="M80 700v-430q0 -41 8 -90.5t38 -92t89 -71t161 -28.5q64 0 113.5 20t83 55t50.5 81.5t17 99.5v456h-44v-423q0 -22 -1 -44.5t-6 -45t-15.5 -44.5t-30.5 -44q-36 -39 -81 -53t-94 -14q-42 0 -74.5 13t-61.5 39q-23 20 -35 40t-18 39.5t-7 39.5t-1 40v457h-91zM374 912
h-111l155 -127h39z" />
    <glyph glyph-name="Uacute" unicode="&#xda;" horiz-adv-x="720" 
d="M80 700v-430q0 -41 8 -90.5t38 -92t89 -71t161 -28.5q64 0 113.5 20t83 55t50.5 81.5t17 99.5v456h-44v-423q0 -22 -1 -44.5t-6 -45t-15.5 -44.5t-30.5 -44q-36 -39 -81 -53t-94 -14q-42 0 -74.5 13t-61.5 39q-23 20 -35 40t-18 39.5t-7 39.5t-1 40v457h-91zM346 912h111
l-155 -127h-39z" />
    <glyph glyph-name="Ucircumflex" unicode="&#xdb;" horiz-adv-x="720" 
d="M80 700v-430q0 -41 8 -90.5t38 -92t89 -71t161 -28.5q64 0 113.5 20t83 55t50.5 81.5t17 99.5v456h-44v-423q0 -22 -1 -44.5t-6 -45t-15.5 -44.5t-30.5 -44q-36 -39 -81 -53t-94 -14q-42 0 -74.5 13t-61.5 39q-23 20 -35 40t-18 39.5t-7 39.5t-1 40v457h-91zM359 828
l11 -6.5t27.5 -16.5t36 -22t36 -22.5l27.5 -17.5l11 -7l25 31l-11 11t-27.5 27t-36 35t-36 35t-27.5 26.5l-11 10.5h-50l-11 -11t-27.5 -27t-36 -35t-36 -35t-27.5 -27t-11 -10l24 -30l11.5 6.5t28 17t36 22t36 22t27.5 17z" />
    <glyph glyph-name="Udieresis" unicode="&#xdc;" horiz-adv-x="720" 
d="M80 700v-430q0 -41 8 -90.5t38 -92t89 -71t161 -28.5q64 0 113.5 20t83 55t50.5 81.5t17 99.5v456h-44v-423q0 -22 -1 -44.5t-6 -45t-15.5 -44.5t-30.5 -44q-36 -39 -81 -53t-94 -14q-42 0 -74.5 13t-61.5 39q-23 20 -35 40t-18 39.5t-7 39.5t-1 40v457h-91zM237 858
q0 -22 16 -38t38 -16t38 16t16 38t-16 38t-38 16t-38 -16t-16 -38zM375 858q0 -22 16 -38t38 -16t38 16t16 38t-16 38t-38 16t-38 -16t-16 -38z" />
    <glyph glyph-name="Yacute" unicode="&#xdd;" horiz-adv-x="639" 
d="M30 700l242 -435v-265h91v274l246 426h-54l-214 -369h-4l-204 369h-103zM305 912h111l-155 -127h-39z" />
    <glyph glyph-name="Thorn" unicode="&#xde;" horiz-adv-x="670" 
d="M211 584q6 0 11.5 0.5t10.5 0.5q65 0 113.5 -21t80.5 -54t48 -74t16 -80t-17 -78.5t-51 -71.5t-85 -52t-120 -20h-7v450zM211 0v90h12q102 0 172 27t113.5 68t62.5 88.5t19 88.5q0 51 -23.5 99t-67.5 85t-107 59.5t-143 22.5h-38v72h-91v-700h91z" />
    <glyph glyph-name="germandbls" unicode="&#xdf;" horiz-adv-x="587" 
d="M110 0h85v528q0 13 2 36.5t12 46.5t31.5 40t60.5 17q32 0 52 -12.5t30.5 -30.5t14 -38.5t3.5 -36.5q0 -20 -6 -41t-18.5 -38t-31 -27.5t-43.5 -10.5h-29v-39h29q49 0 76.5 -20t41 -49.5t16.5 -63.5t3 -62q0 -27 -2 -57.5t-9 -56.5t-20 -43.5t-35 -17.5q-5 0 -14.5 2
t-19.5 9.5t-18 20.5t-11 36h-61q1 -16 8.5 -34t22.5 -33.5t38.5 -26t56.5 -10.5q31 0 59 14t48 40.5t32 65t12 87.5q0 23 -4.5 57t-22 67.5t-51.5 60t-94 34.5v4q57 7 88.5 47.5t31.5 93.5q0 69 -46.5 111t-128.5 42q-14 0 -45.5 -4t-63.5 -22t-56 -55t-24 -103v-528z" />
    <glyph glyph-name="agrave" unicode="&#xe0;" horiz-adv-x="540" 
d="M264 511q73 0 113 -20.5t58.5 -53.5t21.5 -76t3 -88v-273h-81v49q-29 -28 -74 -44.5t-90 -16.5q-43 0 -76 15t-55 39t-33 54t-11 61q0 32 12 64t36 57.5t59 41.5t80 16t85.5 -17.5t66.5 -49.5v43q0 82 -24.5 122t-89.5 40q-28 0 -49 -7t-37.5 -19.5t-30.5 -31t-28 -41.5
l-52 52q14 15 29.5 30t38 27t53.5 19.5t75 7.5zM379 198q-5 12 -14.5 28t-24.5 31t-36 25.5t-50 10.5t-53 -11.5t-40.5 -30t-25.5 -43.5t-9 -52q0 -32 11.5 -55.5t29.5 -40t40 -24.5t42 -8q19 0 38.5 7t37 19.5t31.5 29.5t23 37v77zM284 712h-111l155 -127h39z" />
    <glyph glyph-name="aacute" unicode="&#xe1;" horiz-adv-x="540" 
d="M264 511q73 0 113 -20.5t58.5 -53.5t21.5 -76t3 -88v-273h-81v49q-29 -28 -74 -44.5t-90 -16.5q-43 0 -76 15t-55 39t-33 54t-11 61q0 32 12 64t36 57.5t59 41.5t80 16t85.5 -17.5t66.5 -49.5v43q0 82 -24.5 122t-89.5 40q-28 0 -49 -7t-37.5 -19.5t-30.5 -31t-28 -41.5
l-52 52q14 15 29.5 30t38 27t53.5 19.5t75 7.5zM379 198q-5 12 -14.5 28t-24.5 31t-36 25.5t-50 10.5t-53 -11.5t-40.5 -30t-25.5 -43.5t-9 -52q0 -32 11.5 -55.5t29.5 -40t40 -24.5t42 -8q19 0 38.5 7t37 19.5t31.5 29.5t23 37v77zM256 712h111l-155 -127h-39z" />
    <glyph glyph-name="acircumflex" unicode="&#xe2;" horiz-adv-x="540" 
d="M264 511q73 0 113 -20.5t58.5 -53.5t21.5 -76t3 -88v-273h-81v49q-29 -28 -74 -44.5t-90 -16.5q-43 0 -76 15t-55 39t-33 54t-11 61q0 32 12 64t36 57.5t59 41.5t80 16t85.5 -17.5t66.5 -49.5v43q0 82 -24.5 122t-89.5 40q-28 0 -49 -7t-37.5 -19.5t-30.5 -31t-28 -41.5
l-52 52q14 15 29.5 30t38 27t53.5 19.5t75 7.5zM379 198q-5 12 -14.5 28t-24.5 31t-36 25.5t-50 10.5t-53 -11.5t-40.5 -30t-25.5 -43.5t-9 -52q0 -32 11.5 -55.5t29.5 -40t40 -24.5t42 -8q19 0 38.5 7t37 19.5t31.5 29.5t23 37v77zM269 628l11 -6.5t27.5 -16.5t36 -22
t36 -22.5l27.5 -17.5l11 -7l25 31l-11 11t-27.5 27t-36 35t-36 35t-27.5 26.5l-11 10.5h-50l-11 -11t-27.5 -27t-36 -35t-36 -35t-27.5 -27t-11 -10l24 -30l11.5 6.5t28 17t36 22t36 22t27.5 17z" />
    <glyph glyph-name="atilde" unicode="&#xe3;" horiz-adv-x="540" 
d="M264 511q73 0 113 -20.5t58.5 -53.5t21.5 -76t3 -88v-273h-81v49q-29 -28 -74 -44.5t-90 -16.5q-43 0 -76 15t-55 39t-33 54t-11 61q0 32 12 64t36 57.5t59 41.5t80 16t85.5 -17.5t66.5 -49.5v43q0 82 -24.5 122t-89.5 40q-28 0 -49 -7t-37.5 -19.5t-30.5 -31t-28 -41.5
l-52 52q14 15 29.5 30t38 27t53.5 19.5t75 7.5zM379 198q-5 12 -14.5 28t-24.5 31t-36 25.5t-50 10.5t-53 -11.5t-40.5 -30t-25.5 -43.5t-9 -52q0 -32 11.5 -55.5t29.5 -40t40 -24.5t42 -8q19 0 38.5 7t37 19.5t31.5 29.5t23 37v77zM111 589q11 19 28.5 31.5t34.5 12.5
q13 0 25.5 -4t23.5 -9q36 -14 66 -25t56 -11q35 0 64.5 23.5t46.5 76.5l-30 14q-11 -26 -28 -35.5t-34 -9.5q-12 0 -23.5 3t-20.5 5q-43 14 -73.5 26.5t-53.5 12.5q-38 0 -66.5 -27.5t-42.5 -68.5z" />
    <glyph glyph-name="adieresis" unicode="&#xe4;" horiz-adv-x="540" 
d="M264 511q73 0 113 -20.5t58.5 -53.5t21.5 -76t3 -88v-273h-81v49q-29 -28 -74 -44.5t-90 -16.5q-43 0 -76 15t-55 39t-33 54t-11 61q0 32 12 64t36 57.5t59 41.5t80 16t85.5 -17.5t66.5 -49.5v43q0 82 -24.5 122t-89.5 40q-28 0 -49 -7t-37.5 -19.5t-30.5 -31t-28 -41.5
l-52 52q14 15 29.5 30t38 27t53.5 19.5t75 7.5zM379 198q-5 12 -14.5 28t-24.5 31t-36 25.5t-50 10.5t-53 -11.5t-40.5 -30t-25.5 -43.5t-9 -52q0 -32 11.5 -55.5t29.5 -40t40 -24.5t42 -8q19 0 38.5 7t37 19.5t31.5 29.5t23 37v77zM147 658q0 -22 16 -38t38 -16t38 16
t16 38t-16 38t-38 16t-38 -16t-16 -38zM285 658q0 -22 16 -38t38 -16t38 16t16 38t-16 38t-38 16t-38 -16t-16 -38z" />
    <glyph glyph-name="aring" unicode="&#xe5;" horiz-adv-x="540" 
d="M264 511q73 0 113 -20.5t58.5 -53.5t21.5 -76t3 -88v-273h-81v49q-29 -28 -74 -44.5t-90 -16.5q-43 0 -76 15t-55 39t-33 54t-11 61q0 32 12 64t36 57.5t59 41.5t80 16t85.5 -17.5t66.5 -49.5v43q0 82 -24.5 122t-89.5 40q-28 0 -49 -7t-37.5 -19.5t-30.5 -31t-28 -41.5
l-52 52q14 15 29.5 30t38 27t53.5 19.5t75 7.5zM379 198q-5 12 -14.5 28t-24.5 31t-36 25.5t-50 10.5t-53 -11.5t-40.5 -30t-25.5 -43.5t-9 -52q0 -32 11.5 -55.5t29.5 -40t40 -24.5t42 -8q19 0 38.5 7t37 19.5t31.5 29.5t23 37v77zM211 629q0 25 17 41.5t42 16.5
q24 0 41.5 -16.5t17.5 -41.5t-17.5 -42t-41.5 -17q-25 0 -42 17t-17 42zM178 629q0 -19 7 -35.5t19.5 -29t29.5 -20t36 -7.5t36 7.5t29.5 20t19.5 29t7 35.5q0 15 -5.5 31.5t-17 29.5t-29 21.5t-40.5 8.5t-40 -8.5t-28.5 -21.5t-17.5 -29.5t-6 -31.5z" />
    <glyph glyph-name="ae" unicode="&#xe6;" horiz-adv-x="888" 
d="M453 274q0 50 12.5 88t32.5 63.5t46 38.5t52 13q60 0 97.5 -51.5t37.5 -142.5v-9h-278zM374 116q-9 -21 -23 -36.5t-31 -26t-35 -15.5t-34 -5q-26 0 -48.5 10t-39 27.5t-26 41.5t-9.5 53q0 30 10 53.5t27 39t39.5 24t46.5 8.5q30 0 52 -10t37 -23.5t23 -28t11 -24.5v-88z
M453 239h369v17q0 77 -22.5 127t-56.5 78.5t-72.5 39.5t-71.5 11q-23 0 -48 -5t-48.5 -14.5t-43 -22.5t-31.5 -29q-38 44 -78 57.5t-92 13.5t-89 -11t-74 -39l30 -42q29 26 63 41.5t72 15.5q15 0 34 -4.5t36 -13t29.5 -22t14.5 -31.5v-132q-18 21 -38 33t-40 18.5t-38 8.5
t-31 2q-45 0 -80 -15.5t-58.5 -41t-35.5 -58.5t-12 -67q0 -30 11 -59.5t33 -53t55.5 -38.5t78.5 -15q52 0 103 23t90 75q15 -18 35 -35.5t45.5 -31.5t57.5 -22.5t71 -8.5q53 0 107 22.5t100 70.5l-29 30q-43 -45 -81 -63.5t-90 -18.5q-36 0 -68 14.5t-56 41t-37.5 64.5
t-13.5 86v4z" />
    <glyph glyph-name="ccedilla" unicode="&#xe7;" horiz-adv-x="544" 
d="M246 -190q15 -2 32.5 -4t34.5 -2q21 0 41.5 4.5t36.5 15t26 26t10 38.5q0 32 -27 50.5t-60 18.5h-12t-12 -1l9 33q58 4 103 24.5t77 44.5l-29 38q-35 -29 -69.5 -42.5t-75.5 -13.5q-36 0 -69.5 11t-59.5 35.5t-41.5 65t-15.5 99.5q0 61 17 103.5t42.5 68t56.5 37t59 11.5
q46 0 80 -24t45 -59h69q-10 36 -32 59.5t-50.5 38t-61 20t-62.5 5.5q-63 0 -111 -20.5t-81 -55.5t-49.5 -82t-16.5 -100q0 -54 17 -101.5t48.5 -82.5t76 -56t99.5 -24l-21 -71q7 2 18.5 3t18.5 1q38 0 51 -12t13 -24q0 -17 -9 -27t-23 -15t-30.5 -7t-30.5 -2h-13t-11 2z" />
    <glyph glyph-name="egrave" unicode="&#xe8;" horiz-adv-x="574" 
d="M524 228v21q0 67 -19 116t-51.5 81t-75.5 48t-91 16q-51 0 -94 -17.5t-75 -51t-50 -81t-18 -107.5q0 -50 15.5 -97.5t47 -85t80 -60t114.5 -22.5q64 0 118 22.5t94 64.5l-32 32q-21 -18 -39.5 -33t-37.5 -25t-39.5 -15.5t-45.5 -5.5q-28 0 -59.5 8.5t-58.5 30.5t-45 61
t-18 100h380zM144 268q0 40 8.5 77.5t26 66.5t44.5 46.5t64 17.5q71 0 110.5 -55.5t39.5 -152.5h-293zM301 712h-111l155 -127h39z" />
    <glyph glyph-name="eacute" unicode="&#xe9;" horiz-adv-x="574" 
d="M524 228v21q0 67 -19 116t-51.5 81t-75.5 48t-91 16q-51 0 -94 -17.5t-75 -51t-50 -81t-18 -107.5q0 -50 15.5 -97.5t47 -85t80 -60t114.5 -22.5q64 0 118 22.5t94 64.5l-32 32q-21 -18 -39.5 -33t-37.5 -25t-39.5 -15.5t-45.5 -5.5q-28 0 -59.5 8.5t-58.5 30.5t-45 61
t-18 100h380zM144 268q0 40 8.5 77.5t26 66.5t44.5 46.5t64 17.5q71 0 110.5 -55.5t39.5 -152.5h-293zM273 712h111l-155 -127h-39z" />
    <glyph glyph-name="ecircumflex" unicode="&#xea;" horiz-adv-x="574" 
d="M524 228v21q0 67 -19 116t-51.5 81t-75.5 48t-91 16q-51 0 -94 -17.5t-75 -51t-50 -81t-18 -107.5q0 -50 15.5 -97.5t47 -85t80 -60t114.5 -22.5q64 0 118 22.5t94 64.5l-32 32q-21 -18 -39.5 -33t-37.5 -25t-39.5 -15.5t-45.5 -5.5q-28 0 -59.5 8.5t-58.5 30.5t-45 61
t-18 100h380zM144 268q0 40 8.5 77.5t26 66.5t44.5 46.5t64 17.5q71 0 110.5 -55.5t39.5 -152.5h-293zM286 628l11 -6.5t27.5 -16.5t36 -22t36 -22.5l27.5 -17.5l11 -7l25 31l-11 11t-27.5 27t-36 35t-36 35t-27.5 26.5l-11 10.5h-50l-11 -11t-27.5 -27t-36 -35t-36 -35
t-27.5 -27t-11 -10l24 -30l11.5 6.5t28 17t36 22t36 22t27.5 17z" />
    <glyph glyph-name="edieresis" unicode="&#xeb;" horiz-adv-x="574" 
d="M524 228v21q0 67 -19 116t-51.5 81t-75.5 48t-91 16q-51 0 -94 -17.5t-75 -51t-50 -81t-18 -107.5q0 -50 15.5 -97.5t47 -85t80 -60t114.5 -22.5q64 0 118 22.5t94 64.5l-32 32q-21 -18 -39.5 -33t-37.5 -25t-39.5 -15.5t-45.5 -5.5q-28 0 -59.5 8.5t-58.5 30.5t-45 61
t-18 100h380zM144 268q0 40 8.5 77.5t26 66.5t44.5 46.5t64 17.5q71 0 110.5 -55.5t39.5 -152.5h-293zM164 658q0 -22 16 -38t38 -16t38 16t16 38t-16 38t-38 16t-38 -16t-16 -38zM302 658q0 -22 16 -38t38 -16t38 16t16 38t-16 38t-38 16t-38 -16t-16 -38z" />
    <glyph glyph-name="igrave" unicode="&#xec;" horiz-adv-x="308" 
d="M112 500v-500h85v500h-85zM168 712h-111l155 -127h39z" />
    <glyph glyph-name="iacute" unicode="&#xed;" horiz-adv-x="308" 
d="M112 500v-500h85v500h-85zM140 712h111l-155 -127h-39z" />
    <glyph glyph-name="icircumflex" unicode="&#xee;" horiz-adv-x="308" 
d="M112 500v-500h85v500h-85zM154 628l11 -6.5t27.5 -16.5t36 -22t36 -22.5l27.5 -17.5l11 -7l25 31l-11 11t-27.5 27t-36 35t-36 35t-27.5 26.5l-11 10.5h-50l-11 -11t-27.5 -27t-36 -35t-36 -35t-27.5 -27t-11 -10l24 -30l11.5 6.5t28 17t36 22t36 22t27.5 17z" />
    <glyph glyph-name="idieresis" unicode="&#xef;" horiz-adv-x="308" 
d="M112 500v-500h85v500h-85zM31 658q0 -22 16 -38t38 -16t38 16t16 38t-16 38t-38 16t-38 -16t-16 -38zM169 658q0 -22 16 -38t38 -16t38 16t16 38t-16 38t-38 16t-38 -16t-16 -38z" />
    <glyph glyph-name="eth" unicode="&#xf0;" horiz-adv-x="597" 
d="M284 534l92 63q37 -26 62 -61t33 -84h-4q-34 28 -74 43.5t-93 15.5q-60 0 -108 -21.5t-81 -58.5t-50.5 -85t-17.5 -100q0 -64 22.5 -112t58.5 -80.5t82 -49t94 -16.5q42 0 88 13.5t84 48.5t63 95t25 153q0 48 -5 95.5t-19.5 91t-40.5 81t-68 66.5l75 51l-20 27l-85 -59
q-60 32 -127 43.5t-124 17.5l-7 -36q52 -8 105.5 -22t99.5 -38l-80 -55zM301 23q-18 0 -45.5 6.5t-53.5 29.5t-45 68t-19 123q0 77 19 122t45 68t53.5 29.5t45.5 6.5q28 0 57.5 -9.5t53 -35t38.5 -69.5t15 -112q0 -69 -16.5 -113t-41 -69.5t-53 -35t-53.5 -9.5z" />
    <glyph glyph-name="ntilde" unicode="&#xf1;" horiz-adv-x="581" 
d="M498 0v324q0 18 -3 49.5t-19.5 62t-52.5 53t-102 22.5q-29 1 -65 -11.5t-71 -47.5l-16 -16h-4v64h-85v-500h85v309q0 39 11 67t30 47t43.5 28t50.5 9q42 0 65 -16.5t33.5 -38.5t12.5 -44t2 -32v-329h85zM131 589q11 19 28.5 31.5t34.5 12.5q13 0 25.5 -4t23.5 -9
q36 -14 66 -25t56 -11q35 0 64.5 23.5t46.5 76.5l-30 14q-11 -26 -28 -35.5t-34 -9.5q-12 0 -23.5 3t-20.5 5q-43 14 -73.5 26.5t-53.5 12.5q-38 0 -66.5 -27.5t-42.5 -68.5z" />
    <glyph glyph-name="ograve" unicode="&#xf2;" horiz-adv-x="618" 
d="M568 249q0 -52 -18 -99.5t-51.5 -83.5t-81 -57t-106.5 -21q-60 0 -108.5 21.5t-82 57.5t-52 83.5t-18.5 98.5q0 52 18.5 99.5t52 83.5t82 57.5t108.5 21.5q59 0 106.5 -21.5t81 -57.5t51.5 -83.5t18 -99.5zM473 249q0 70 -15 113.5t-39 67.5t-53 32.5t-56 8.5t-56 -8.5
t-53.5 -32.5t-40 -67.5t-15.5 -113.5q0 -69 15.5 -112.5t40 -67.5t53.5 -32.5t56 -8.5t56 8.5t53 32.5t39 67.5t15 112.5zM323 712h-111l155 -127h39z" />
    <glyph glyph-name="oacute" unicode="&#xf3;" horiz-adv-x="618" 
d="M568 249q0 -52 -18 -99.5t-51.5 -83.5t-81 -57t-106.5 -21q-60 0 -108.5 21.5t-82 57.5t-52 83.5t-18.5 98.5q0 52 18.5 99.5t52 83.5t82 57.5t108.5 21.5q59 0 106.5 -21.5t81 -57.5t51.5 -83.5t18 -99.5zM473 249q0 70 -15 113.5t-39 67.5t-53 32.5t-56 8.5t-56 -8.5
t-53.5 -32.5t-40 -67.5t-15.5 -113.5q0 -69 15.5 -112.5t40 -67.5t53.5 -32.5t56 -8.5t56 8.5t53 32.5t39 67.5t15 112.5zM295 712h111l-155 -127h-39z" />
    <glyph glyph-name="ocircumflex" unicode="&#xf4;" horiz-adv-x="618" 
d="M568 249q0 -52 -18 -99.5t-51.5 -83.5t-81 -57t-106.5 -21q-60 0 -108.5 21.5t-82 57.5t-52 83.5t-18.5 98.5q0 52 18.5 99.5t52 83.5t82 57.5t108.5 21.5q59 0 106.5 -21.5t81 -57.5t51.5 -83.5t18 -99.5zM473 249q0 70 -15 113.5t-39 67.5t-53 32.5t-56 8.5t-56 -8.5
t-53.5 -32.5t-40 -67.5t-15.5 -113.5q0 -69 15.5 -112.5t40 -67.5t53.5 -32.5t56 -8.5t56 8.5t53 32.5t39 67.5t15 112.5zM308 628l11 -6.5t27.5 -16.5t36 -22t36 -22.5l27.5 -17.5l11 -7l25 31l-11 11t-27.5 27t-36 35t-36 35t-27.5 26.5l-11 10.5h-50l-11 -11t-27.5 -27
t-36 -35t-36 -35t-27.5 -27t-11 -10l24 -30l11.5 6.5t28 17t36 22t36 22t27.5 17z" />
    <glyph glyph-name="otilde" unicode="&#xf5;" horiz-adv-x="618" 
d="M568 249q0 -52 -18 -99.5t-51.5 -83.5t-81 -57t-106.5 -21q-60 0 -108.5 21.5t-82 57.5t-52 83.5t-18.5 98.5q0 52 18.5 99.5t52 83.5t82 57.5t108.5 21.5q59 0 106.5 -21.5t81 -57.5t51.5 -83.5t18 -99.5zM473 249q0 70 -15 113.5t-39 67.5t-53 32.5t-56 8.5t-56 -8.5
t-53.5 -32.5t-40 -67.5t-15.5 -113.5q0 -69 15.5 -112.5t40 -67.5t53.5 -32.5t56 -8.5t56 8.5t53 32.5t39 67.5t15 112.5zM150 589q11 19 28.5 31.5t34.5 12.5q13 0 25.5 -4t23.5 -9q36 -14 66 -25t56 -11q35 0 64.5 23.5t46.5 76.5l-30 14q-11 -26 -28 -35.5t-34 -9.5
q-12 0 -23.5 3t-20.5 5q-43 14 -73.5 26.5t-53.5 12.5q-38 0 -66.5 -27.5t-42.5 -68.5z" />
    <glyph glyph-name="odieresis" unicode="&#xf6;" horiz-adv-x="618" 
d="M568 249q0 -52 -18 -99.5t-51.5 -83.5t-81 -57t-106.5 -21q-60 0 -108.5 21.5t-82 57.5t-52 83.5t-18.5 98.5q0 52 18.5 99.5t52 83.5t82 57.5t108.5 21.5q59 0 106.5 -21.5t81 -57.5t51.5 -83.5t18 -99.5zM473 249q0 70 -15 113.5t-39 67.5t-53 32.5t-56 8.5t-56 -8.5
t-53.5 -32.5t-40 -67.5t-15.5 -113.5q0 -69 15.5 -112.5t40 -67.5t53.5 -32.5t56 -8.5t56 8.5t53 32.5t39 67.5t15 112.5zM186 658q0 -22 16 -38t38 -16t38 16t16 38t-16 38t-38 16t-38 -16t-16 -38zM324 658q0 -22 16 -38t38 -16t38 16t16 38t-16 38t-38 16t-38 -16
t-16 -38z" />
    <glyph glyph-name="divide" unicode="&#xf7;" horiz-adv-x="928" 
d="M120 238h688v61h-688v-61zM411 79q0 -22 16 -38t38 -16t38 16t16 38t-16 38t-38 16t-38 -16t-16 -38zM411 457q0 -22 16 -38t38 -16t38 16t16 38t-16 38t-38 16t-38 -16t-16 -38z" />
    <glyph glyph-name="oslash" unicode="&#xf8;" horiz-adv-x="638" 
d="M425 512l-10 -19q-23 8 -47 13t-51 5q-59 0 -106.5 -21.5t-81 -57.5t-51.5 -83.5t-18 -99.5q0 -64 26.5 -119.5t74.5 -91.5l-28 -50h65l12 21q23 -10 50 -15.5t57 -5.5q60 0 108.5 21.5t82 57.5t52 83.5t18.5 98.5q0 66 -29 123.5t-83 93.5l26 46h-67zM483 249
q0 -69 -15.5 -113t-40 -69t-53.5 -34.5t-56 -9.5q-22 0 -44.5 5t-42.5 19l208 371q20 -26 32 -67t12 -102zM155 249q0 70 15 114t39 69t53 34.5t56 9.5q18 0 37.5 -4t38.5 -15l-204 -366q-16 26 -25.5 64.5t-9.5 93.5z" />
    <glyph glyph-name="ugrave" unicode="&#xf9;" horiz-adv-x="581" 
d="M80 500v-325q0 -18 3.5 -49.5t20.5 -62t53.5 -53t102.5 -22.5q29 -1 63.5 11.5t69.5 47.5l16 16h4v-63h85v500h-85v-310q0 -39 -11 -67t-29 -46.5t-42 -27.5t-50 -9q-42 0 -65.5 16.5t-35 38.5t-13.5 43.5t-2 31.5v330h-85zM304 712h-111l155 -127h39z" />
    <glyph glyph-name="uacute" unicode="&#xfa;" horiz-adv-x="581" 
d="M80 500v-325q0 -18 3.5 -49.5t20.5 -62t53.5 -53t102.5 -22.5q29 -1 63.5 11.5t69.5 47.5l16 16h4v-63h85v500h-85v-310q0 -39 -11 -67t-29 -46.5t-42 -27.5t-50 -9q-42 0 -65.5 16.5t-35 38.5t-13.5 43.5t-2 31.5v330h-85zM276 712h111l-155 -127h-39z" />
    <glyph glyph-name="ucircumflex" unicode="&#xfb;" horiz-adv-x="581" 
d="M80 500v-325q0 -18 3.5 -49.5t20.5 -62t53.5 -53t102.5 -22.5q29 -1 63.5 11.5t69.5 47.5l16 16h4v-63h85v500h-85v-310q0 -39 -11 -67t-29 -46.5t-42 -27.5t-50 -9q-42 0 -65.5 16.5t-35 38.5t-13.5 43.5t-2 31.5v330h-85zM290 628l11 -6.5t27.5 -16.5t36 -22t36 -22.5
l27.5 -17.5l11 -7l25 31l-11 11t-27.5 27t-36 35t-36 35t-27.5 26.5l-11 10.5h-50l-11 -11t-27.5 -27t-36 -35t-36 -35t-27.5 -27t-11 -10l24 -30l11.5 6.5t28 17t36 22t36 22t27.5 17z" />
    <glyph glyph-name="udieresis" unicode="&#xfc;" horiz-adv-x="581" 
d="M80 500v-325q0 -18 3.5 -49.5t20.5 -62t53.5 -53t102.5 -22.5q29 -1 63.5 11.5t69.5 47.5l16 16h4v-63h85v500h-85v-310q0 -39 -11 -67t-29 -46.5t-42 -27.5t-50 -9q-42 0 -65.5 16.5t-35 38.5t-13.5 43.5t-2 31.5v330h-85zM167 658q0 -22 16 -38t38 -16t38 16t16 38
t-16 38t-38 16t-38 -16t-16 -38zM305 658q0 -22 16 -38t38 -16t38 16t16 38t-16 38t-38 16t-38 -16t-16 -38z" />
    <glyph glyph-name="yacute" unicode="&#xfd;" horiz-adv-x="504" 
d="M274 117l-173 383h-91l224 -494l-53 -130q-9 -23 -23.5 -37t-33.5 -14q-18 0 -34.5 10.5t-25.5 30.5l-44 -83q19 -17 42 -25t43 -8q28 0 49 14t37 36.5t28 50t23 54.5l242 595h-49l-157 -383h-4zM238 712h111l-155 -127h-39z" />
    <glyph glyph-name="thorn" unicode="&#xfe;" horiz-adv-x="604" 
d="M80 -250h85v332h4q10 -26 26.5 -44t37.5 -29t44.5 -16t47.5 -5q50 0 92 18.5t72.5 52.5t47.5 82.5t17 107.5q0 60 -17 108t-47.5 82.5t-72.5 53t-92 18.5q-119 0 -156 -92h-4v281h-85v-950zM165 300q0 33 10.5 62.5t29.5 51t44.5 34t54.5 12.5q31 0 59.5 -11.5
t49.5 -36.5t33.5 -65t12.5 -96q0 -57 -12.5 -97t-34 -65.5t-49.5 -37t-59 -11.5q-28 0 -53 11.5t-44 34t-30.5 54.5t-11.5 73v87z" />
    <glyph glyph-name="ydieresis" unicode="&#xff;" horiz-adv-x="504" 
d="M274 117l-173 383h-91l224 -494l-53 -130q-9 -23 -23.5 -37t-33.5 -14q-18 0 -34.5 10.5t-25.5 30.5l-44 -83q19 -17 42 -25t43 -8q28 0 49 14t37 36.5t28 50t23 54.5l242 595h-49l-157 -383h-4zM129 658q0 -22 16 -38t38 -16t38 16t16 38t-16 38t-38 16t-38 -16t-16 -38
zM267 658q0 -22 16 -38t38 -16t38 16t16 38t-16 38t-38 16t-38 -16t-16 -38z" />
    <glyph glyph-name="Amacron" unicode="&#x100;" horiz-adv-x="732" 
d="M509 206l96 -206h97l-326 700h-50l-296 -700h46l88 206h345zM488 251h-305l144 337h4zM209 783h313v40h-313v-40z" />
    <glyph glyph-name="amacron" unicode="&#x101;" horiz-adv-x="540" 
d="M264 511q73 0 113 -20.5t58.5 -53.5t21.5 -76t3 -88v-273h-81v49q-29 -28 -74 -44.5t-90 -16.5q-43 0 -76 15t-55 39t-33 54t-11 61q0 32 12 64t36 57.5t59 41.5t80 16t85.5 -17.5t66.5 -49.5v43q0 82 -24.5 122t-89.5 40q-28 0 -49 -7t-37.5 -19.5t-30.5 -31t-28 -41.5
l-52 52q14 15 29.5 30t38 27t53.5 19.5t75 7.5zM379 198q-5 12 -14.5 28t-24.5 31t-36 25.5t-50 10.5t-53 -11.5t-40.5 -30t-25.5 -43.5t-9 -52q0 -32 11.5 -55.5t29.5 -40t40 -24.5t42 -8q19 0 38.5 7t37 19.5t31.5 29.5t23 37v77zM113 583h313v40h-313v-40z" />
    <glyph glyph-name="Abreve" unicode="&#x102;" horiz-adv-x="732" 
d="M509 206l96 -206h97l-326 700h-50l-296 -700h46l88 206h345zM488 251h-305l144 337h4zM219 912q0 -28 11 -53t31 -43.5t46.5 -29t58.5 -10.5q31 0 58 10.5t47 29t31 43.5t11 53h-42q-2 -45 -32.5 -72.5t-72.5 -27.5q-41 0 -71.5 27.5t-33.5 72.5h-42z" />
    <glyph glyph-name="abreve" unicode="&#x103;" horiz-adv-x="540" 
d="M264 511q73 0 113 -20.5t58.5 -53.5t21.5 -76t3 -88v-273h-81v49q-29 -28 -74 -44.5t-90 -16.5q-43 0 -76 15t-55 39t-33 54t-11 61q0 32 12 64t36 57.5t59 41.5t80 16t85.5 -17.5t66.5 -49.5v43q0 82 -24.5 122t-89.5 40q-28 0 -49 -7t-37.5 -19.5t-30.5 -31t-28 -41.5
l-52 52q14 15 29.5 30t38 27t53.5 19.5t75 7.5zM379 198q-5 12 -14.5 28t-24.5 31t-36 25.5t-50 10.5t-53 -11.5t-40.5 -30t-25.5 -43.5t-9 -52q0 -32 11.5 -55.5t29.5 -40t40 -24.5t42 -8q19 0 38.5 7t37 19.5t31.5 29.5t23 37v77zM123 712q0 -28 11 -53t31 -43.5t46.5 -29
t58.5 -10.5q31 0 58 10.5t47 29t31 43.5t11 53h-42q-2 -45 -32.5 -72.5t-72.5 -27.5q-41 0 -71.5 27.5t-33.5 72.5h-42z" />
    <glyph glyph-name="Aogonek" unicode="&#x104;" horiz-adv-x="732" 
d="M654 0l-46 -33q-27 -20 -49.5 -44t-22.5 -53q0 -34 23.5 -47t50.5 -13q23 0 45.5 8t38.5 20l-11 27q-10 -5 -25 -11t-29 -6q-21 0 -26.5 13t-5.5 19q0 17 9 33t24 31.5t34 29.5t38 26l-326 700h-50l-296 -700h46l88 206h345l96 -206h49zM488 251h-305l144 337h4z" />
    <glyph glyph-name="aogonek" unicode="&#x105;" horiz-adv-x="540" 
d="M264 511q73 0 113 -20.5t58.5 -53.5t21.5 -76t3 -88v-273h-81v49q-29 -28 -74 -44.5t-90 -16.5q-43 0 -76 15t-55 39t-33 54t-11 61q0 32 12 64t36 57.5t59 41.5t80 16t85.5 -17.5t66.5 -49.5v43q0 82 -24.5 122t-89.5 40q-28 0 -49 -7t-37.5 -19.5t-30.5 -31t-28 -41.5
l-52 52q14 15 29.5 30t38 27t53.5 19.5t75 7.5zM379 198q-5 12 -14.5 28t-24.5 31t-36 25.5t-50 10.5t-53 -11.5t-40.5 -30t-25.5 -43.5t-9 -52q0 -32 11.5 -55.5t29.5 -40t40 -24.5t42 -8q19 0 38.5 7t37 19.5t31.5 29.5t23 37v77zM412 0l-46 -33q-27 -20 -49.5 -44
t-22.5 -53q0 -34 23.5 -47t50.5 -13q23 0 45.5 8t38.5 20l-11 27q-10 -5 -25 -11t-29 -6q-21 0 -26.5 13t-5.5 19q0 17 9 33t24 31.5t34 29.5t38 26h-48z" />
    <glyph glyph-name="Cacute" unicode="&#x106;" horiz-adv-x="759" 
d="M709 129q-102 -96 -242 -96q-78 0 -138 27t-100 72t-60.5 104t-20.5 123q0 68 21.5 124.5t60.5 97.5t92.5 64t116.5 23q43 0 78.5 -10t63 -26t45 -36.5t24.5 -41.5h74q-15 34 -38.5 63t-58.5 50t-82 33t-107 12q-87 0 -158.5 -25t-122.5 -71.5t-79 -112t-28 -146.5
q0 -70 22.5 -136.5t69.5 -118t120 -83t174 -31.5q64 0 114.5 12t88 29.5t62.5 37.5t38 35zM365 912h111l-155 -127h-39z" />
    <glyph glyph-name="cacute" unicode="&#x107;" horiz-adv-x="544" 
d="M331 40q-36 0 -69.5 11t-59.5 35.5t-41.5 65t-15.5 99.5q0 61 17 103.5t42.5 68t56.5 37t59 11.5q46 0 80 -24t45 -59h69q-10 36 -32 59.5t-50.5 38t-61 20t-62.5 5.5q-63 0 -111 -20.5t-81 -55.5t-49.5 -82t-16.5 -100q0 -56 18 -104.5t51.5 -84t80.5 -56t106 -20.5
q66 0 115.5 22t83.5 48l-29 38q-35 -29 -69.5 -42.5t-75.5 -13.5zM258 712h111l-155 -127h-39z" />
    <glyph glyph-name="Ccircumflex" unicode="&#x108;" horiz-adv-x="759" 
d="M709 129q-102 -96 -242 -96q-78 0 -138 27t-100 72t-60.5 104t-20.5 123q0 68 21.5 124.5t60.5 97.5t92.5 64t116.5 23q43 0 78.5 -10t63 -26t45 -36.5t24.5 -41.5h74q-15 34 -38.5 63t-58.5 50t-82 33t-107 12q-87 0 -158.5 -25t-122.5 -71.5t-79 -112t-28 -146.5
q0 -70 22.5 -136.5t69.5 -118t120 -83t174 -31.5q64 0 114.5 12t88 29.5t62.5 37.5t38 35zM379 828l11 -6.5t27.5 -16.5t36 -22t36 -22.5l27.5 -17.5l11 -7l25 31l-11 11t-27.5 27t-36 35t-36 35t-27.5 26.5l-11 10.5h-50l-11 -11t-27.5 -27t-36 -35t-36 -35t-27.5 -27
t-11 -10l24 -30l11.5 6.5t28 17t36 22t36 22t27.5 17z" />
    <glyph glyph-name="ccircumflex" unicode="&#x109;" horiz-adv-x="544" 
d="M331 40q-36 0 -69.5 11t-59.5 35.5t-41.5 65t-15.5 99.5q0 61 17 103.5t42.5 68t56.5 37t59 11.5q46 0 80 -24t45 -59h69q-10 36 -32 59.5t-50.5 38t-61 20t-62.5 5.5q-63 0 -111 -20.5t-81 -55.5t-49.5 -82t-16.5 -100q0 -56 18 -104.5t51.5 -84t80.5 -56t106 -20.5
q66 0 115.5 22t83.5 48l-29 38q-35 -29 -69.5 -42.5t-75.5 -13.5zM271 628l11 -6.5t27.5 -16.5t36 -22t36 -22.5l27.5 -17.5l11 -7l25 31l-11 11t-27.5 27t-36 35t-36 35t-27.5 26.5l-11 10.5h-50l-11 -11t-27.5 -27t-36 -35t-36 -35t-27.5 -27t-11 -10l24 -30l11.5 6.5
t28 17t36 22t36 22t27.5 17z" />
    <glyph glyph-name="Cdotaccent" unicode="&#x10a;" horiz-adv-x="759" 
d="M709 129q-102 -96 -242 -96q-78 0 -138 27t-100 72t-60.5 104t-20.5 123q0 68 21.5 124.5t60.5 97.5t92.5 64t116.5 23q43 0 78.5 -10t63 -26t45 -36.5t24.5 -41.5h74q-15 34 -38.5 63t-58.5 50t-82 33t-107 12q-87 0 -158.5 -25t-122.5 -71.5t-79 -112t-28 -146.5
q0 -70 22.5 -136.5t69.5 -118t120 -83t174 -31.5q64 0 114.5 12t88 29.5t62.5 37.5t38 35zM325 858q0 -22 16 -38t38 -16t38 16t16 38t-16 38t-38 16t-38 -16t-16 -38z" />
    <glyph glyph-name="cdotaccent" unicode="&#x10b;" horiz-adv-x="544" 
d="M331 40q-36 0 -69.5 11t-59.5 35.5t-41.5 65t-15.5 99.5q0 61 17 103.5t42.5 68t56.5 37t59 11.5q46 0 80 -24t45 -59h69q-10 36 -32 59.5t-50.5 38t-61 20t-62.5 5.5q-63 0 -111 -20.5t-81 -55.5t-49.5 -82t-16.5 -100q0 -56 18 -104.5t51.5 -84t80.5 -56t106 -20.5
q66 0 115.5 22t83.5 48l-29 38q-35 -29 -69.5 -42.5t-75.5 -13.5zM218 658q0 -22 16 -38t38 -16t38 16t16 38t-16 38t-38 16t-38 -16t-16 -38z" />
    <glyph glyph-name="Ccaron" unicode="&#x10c;" horiz-adv-x="759" 
d="M709 129q-102 -96 -242 -96q-78 0 -138 27t-100 72t-60.5 104t-20.5 123q0 68 21.5 124.5t60.5 97.5t92.5 64t116.5 23q43 0 78.5 -10t63 -26t45 -36.5t24.5 -41.5h74q-15 34 -38.5 63t-58.5 50t-82 33t-107 12q-87 0 -158.5 -25t-122.5 -71.5t-79 -112t-28 -146.5
q0 -70 22.5 -136.5t69.5 -118t120 -83t174 -31.5q64 0 114.5 12t88 29.5t62.5 37.5t38 35zM379 821q0 -1 11 6t27.5 17t36 22t36 22.5l27.5 17.5l11 7l25 -31l-11 -11t-27.5 -27t-36 -35t-36 -35t-27.5 -26.5l-11 -10.5h-50l-11 11t-27.5 27t-36 35t-36 35t-27.5 26.5
l-11 10.5l24 30l11.5 -6.5t28 -17t36 -22t36 -22t27.5 -17z" />
    <glyph glyph-name="ccaron" unicode="&#x10d;" horiz-adv-x="544" 
d="M331 40q-36 0 -69.5 11t-59.5 35.5t-41.5 65t-15.5 99.5q0 61 17 103.5t42.5 68t56.5 37t59 11.5q46 0 80 -24t45 -59h69q-10 36 -32 59.5t-50.5 38t-61 20t-62.5 5.5q-63 0 -111 -20.5t-81 -55.5t-49.5 -82t-16.5 -100q0 -56 18 -104.5t51.5 -84t80.5 -56t106 -20.5
q66 0 115.5 22t83.5 48l-29 38q-35 -29 -69.5 -42.5t-75.5 -13.5zM271 621q0 -1 11 6t27.5 17t36 22t36 22.5l27.5 17.5l11 7l25 -31l-11 -11t-27.5 -27t-36 -35t-36 -35t-27.5 -26.5l-11 -10.5h-50l-11 11t-27.5 27t-36 35t-36 35t-27.5 26.5l-11 10.5l24 30l11.5 -6.5
t28 -17t36 -22t36 -22t27.5 -17z" />
    <glyph glyph-name="Dcaron" unicode="&#x10e;" horiz-adv-x="765" 
d="M130 0v700h230q83 0 152 -26.5t118.5 -73t77 -110.5t27.5 -138q0 -77 -28.5 -141.5t-78 -111.5t-115.5 -73t-141 -26h-242zM221 44h110q82 0 139.5 27.5t94.5 71.5t54 98.5t17 108.5q0 60 -20 115.5t-58.5 98t-95.5 67.5t-131 25h-110v-612zM382 821q0 -1 11 6t27.5 17
t36 22t36 22.5l27.5 17.5l11 7l25 -31l-11 -11t-27.5 -27t-36 -35t-36 -35t-27.5 -26.5l-11 -10.5h-50l-11 11t-27.5 27t-36 35t-36 35t-27.5 26.5l-11 10.5l24 30l11.5 -6.5t28 -17t36 -22t36 -22t27.5 -17z" />
    <glyph glyph-name="dcaron" unicode="&#x10f;" horiz-adv-x="744" 
d="M524 700h-85v-282h-4q-10 26 -26.5 43.5t-37.5 28.5t-44.5 16t-47.5 5q-50 0 -92 -18.5t-72.5 -52.5t-47.5 -82t-17 -107q0 -60 17 -108.5t47.5 -83t72.5 -53t92 -18.5q118 0 156 93h4v-81h85v700zM439 200q0 -33 -11 -62.5t-29.5 -51t-44 -34t-54.5 -12.5
q-32 0 -60 11.5t-49 36.5t-33.5 65t-12.5 96q0 57 12.5 97t34 65.5t49.5 37t59 11.5q28 0 53 -11.5t44 -34t30.5 -54.5t11.5 -73v-87zM664 699h-95v-258h36z" />
    <glyph glyph-name="Dcroat" unicode="&#x110;" horiz-adv-x="786" 
d="M10 371h110v329h230q83 0 152.5 -27t119 -74t77 -112t27.5 -140q0 -76 -29 -139.5t-78.5 -109.5t-115.5 -72t-141 -26h-242v331h-110v40zM211 44h110q82 0 139.5 28t94.5 72.5t54 99.5t17 109q0 61 -20 116t-58.5 96.5t-95.5 66t-131 24.5h-110v-285h112v-40h-112v-287z
" />
    <glyph glyph-name="dcroat" unicode="&#x111;" horiz-adv-x="604" 
d="M524 700h-85v-85h-149v-41h149v-156h-4q-10 26 -26.5 43.5t-37.5 28.5t-44.5 16t-47.5 5q-50 0 -92 -18.5t-72.5 -52.5t-47.5 -82t-17 -107q0 -60 17 -108.5t47.5 -83t72.5 -53t92 -18.5q118 0 156 93h4v-81h85v574h79v41h-79v85zM439 200q0 -33 -11 -62.5t-29.5 -51
t-44 -34t-54.5 -12.5q-32 0 -60 11.5t-49 36.5t-33.5 65t-12.5 96q0 57 12.5 97t34 65.5t49.5 37t59 11.5q28 0 53 -11.5t44 -34t30.5 -54.5t11.5 -73v-87z" />
    <glyph glyph-name="Emacron" unicode="&#x112;" horiz-adv-x="602" 
d="M120 700v-700h452v55h-361v293h310v46h-310v251h361v55h-452zM144 783h313v40h-313v-40z" />
    <glyph glyph-name="emacron" unicode="&#x113;" horiz-adv-x="574" 
d="M524 228v21q0 67 -19 116t-51.5 81t-75.5 48t-91 16q-51 0 -94 -17.5t-75 -51t-50 -81t-18 -107.5q0 -50 15.5 -97.5t47 -85t80 -60t114.5 -22.5q64 0 118 22.5t94 64.5l-32 32q-21 -18 -39.5 -33t-37.5 -25t-39.5 -15.5t-45.5 -5.5q-28 0 -59.5 8.5t-58.5 30.5t-45 61
t-18 100h380zM144 268q0 40 8.5 77.5t26 66.5t44.5 46.5t64 17.5q71 0 110.5 -55.5t39.5 -152.5h-293zM130 583h313v40h-313v-40z" />
    <glyph glyph-name="Ebreve" unicode="&#x114;" horiz-adv-x="602" 
d="M120 700v-700h452v55h-361v293h310v46h-310v251h361v55h-452zM154 912q0 -28 11 -53t31 -43.5t46.5 -29t58.5 -10.5q31 0 58 10.5t47 29t31 43.5t11 53h-42q-2 -45 -32.5 -72.5t-72.5 -27.5q-41 0 -71.5 27.5t-33.5 72.5h-42z" />
    <glyph glyph-name="ebreve" unicode="&#x115;" horiz-adv-x="574" 
d="M524 228v21q0 67 -19 116t-51.5 81t-75.5 48t-91 16q-51 0 -94 -17.5t-75 -51t-50 -81t-18 -107.5q0 -50 15.5 -97.5t47 -85t80 -60t114.5 -22.5q64 0 118 22.5t94 64.5l-32 32q-21 -18 -39.5 -33t-37.5 -25t-39.5 -15.5t-45.5 -5.5q-28 0 -59.5 8.5t-58.5 30.5t-45 61
t-18 100h380zM144 268q0 40 8.5 77.5t26 66.5t44.5 46.5t64 17.5q71 0 110.5 -55.5t39.5 -152.5h-293zM140 712q0 -28 11 -53t31 -43.5t46.5 -29t58.5 -10.5q31 0 58 10.5t47 29t31 43.5t11 53h-42q-2 -45 -32.5 -72.5t-72.5 -27.5q-41 0 -71.5 27.5t-33.5 72.5h-42z" />
    <glyph glyph-name="Edotaccent" unicode="&#x116;" horiz-adv-x="602" 
d="M120 700v-700h452v55h-361v293h310v46h-310v251h361v55h-452zM247 858q0 -22 16 -38t38 -16t38 16t16 38t-16 38t-38 16t-38 -16t-16 -38z" />
    <glyph glyph-name="edotaccent" unicode="&#x117;" horiz-adv-x="574" 
d="M524 228v21q0 67 -19 116t-51.5 81t-75.5 48t-91 16q-51 0 -94 -17.5t-75 -51t-50 -81t-18 -107.5q0 -50 15.5 -97.5t47 -85t80 -60t114.5 -22.5q64 0 118 22.5t94 64.5l-32 32q-21 -18 -39.5 -33t-37.5 -25t-39.5 -15.5t-45.5 -5.5q-28 0 -59.5 8.5t-58.5 30.5t-45 61
t-18 100h380zM144 268q0 40 8.5 77.5t26 66.5t44.5 46.5t64 17.5q71 0 110.5 -55.5t39.5 -152.5h-293zM233 658q0 -22 16 -38t38 -16t38 16t16 38t-16 38t-38 16t-38 -16t-16 -38z" />
    <glyph glyph-name="Eogonek" unicode="&#x118;" horiz-adv-x="602" 
d="M524 0l-46 -33q-27 -20 -49.5 -44t-22.5 -53q0 -34 23.5 -47t50.5 -13q23 0 45.5 8t38.5 20l-11 27q-10 -5 -25 -11t-29 -6q-21 0 -26.5 13t-5.5 19q0 17 9 33t24 31.5t34 29.5t38 26v55h-361v293h310v46h-310v251h361v55h-452v-700h404z" />
    <glyph glyph-name="eogonek" unicode="&#x119;" horiz-adv-x="574" 
d="M524 228v21q0 67 -19 116t-51.5 81t-75.5 48t-91 16q-51 0 -94 -17.5t-75 -51t-50 -81t-18 -107.5q0 -50 15 -97t46 -84t78 -60t111 -24l-29 -21q-27 -20 -49.5 -44t-22.5 -53q0 -34 23.5 -47t50.5 -13q23 0 45.5 8t38.5 20l-11 27q-10 -5 -25 -11t-29 -6q-21 0 -26.5 13
t-5.5 19q0 15 7.5 30t20 29t29 27t33.5 25q102 14 169 84l-32 32q-21 -18 -39.5 -33t-37.5 -25t-39.5 -15.5t-45.5 -5.5q-28 0 -59.5 8.5t-58.5 30.5t-45 61t-18 100h380zM144 268q0 40 8.5 77.5t26 66.5t44.5 46.5t64 17.5q71 0 110.5 -55.5t39.5 -152.5h-293z" />
    <glyph glyph-name="Ecaron" unicode="&#x11a;" horiz-adv-x="602" 
d="M120 700v-700h452v55h-361v293h310v46h-310v251h361v55h-452zM300 821q0 -1 11 6t27.5 17t36 22t36 22.5l27.5 17.5l11 7l25 -31l-11 -11t-27.5 -27t-36 -35t-36 -35t-27.5 -26.5l-11 -10.5h-50l-11 11t-27.5 27t-36 35t-36 35t-27.5 26.5l-11 10.5l24 30l11.5 -6.5
t28 -17t36 -22t36 -22t27.5 -17z" />
    <glyph glyph-name="ecaron" unicode="&#x11b;" horiz-adv-x="574" 
d="M524 228v21q0 67 -19 116t-51.5 81t-75.5 48t-91 16q-51 0 -94 -17.5t-75 -51t-50 -81t-18 -107.5q0 -50 15.5 -97.5t47 -85t80 -60t114.5 -22.5q64 0 118 22.5t94 64.5l-32 32q-21 -18 -39.5 -33t-37.5 -25t-39.5 -15.5t-45.5 -5.5q-28 0 -59.5 8.5t-58.5 30.5t-45 61
t-18 100h380zM144 268q0 40 8.5 77.5t26 66.5t44.5 46.5t64 17.5q71 0 110.5 -55.5t39.5 -152.5h-293zM286 621q0 -1 11 6t27.5 17t36 22t36 22.5l27.5 17.5l11 7l25 -31l-11 -11t-27.5 -27t-36 -35t-36 -35t-27.5 -26.5l-11 -10.5h-50l-11 11t-27.5 27t-36 35t-36 35
t-27.5 26.5l-11 10.5l24 30l11.5 -6.5t28 -17t36 -22t36 -22t27.5 -17z" />
    <glyph glyph-name="Gcircumflex" unicode="&#x11c;" horiz-adv-x="817" 
d="M757 312h-198v-41h112v-181q-45 -29 -92 -43t-107 -14q-79 0 -138 24t-98 66.5t-58.5 101t-19.5 128.5q0 69 18.5 127t55.5 100t90.5 65t124.5 23q47 0 88 -10t73 -26t52.5 -36.5t26.5 -41.5h72q-9 22 -30.5 49.5t-58.5 51.5t-91.5 40.5t-128.5 16.5q-85 0 -156.5 -24
t-123.5 -69t-81 -110.5t-29 -148.5q0 -71 22.5 -137.5t69 -119t118.5 -84t172 -31.5q75 0 133 16.5t96 36.5v-41h86v312zM408 828l11 -6.5t27.5 -16.5t36 -22t36 -22.5l27.5 -17.5l11 -7l25 31l-11 11t-27.5 27t-36 35t-36 35t-27.5 26.5l-11 10.5h-50l-11 -11t-27.5 -27
t-36 -35t-36 -35t-27.5 -27t-11 -10l24 -30l11.5 6.5t28 17t36 22t36 22t27.5 17z" />
    <glyph glyph-name="gcircumflex" unicode="&#x11d;" horiz-adv-x="602" 
d="M437 -42q0 -46 -11 -78t-30.5 -52t-46 -29t-56.5 -9q-53 0 -85.5 27t-59.5 72l-55 -50q7 -9 22 -23.5t38 -29t55 -25t73 -10.5q76 0 123 21.5t73 57.5t35.5 82.5t9.5 96.5v491h-85v-78h-4q-12 42 -51.5 65.5t-103.5 23.5q-51 0 -93 -18.5t-72 -52.5t-46.5 -82t-16.5 -107
q0 -60 16.5 -108.5t46.5 -83t71.5 -53t92.5 -18.5q56 0 97.5 22t58.5 70h4v-122zM437 213q0 -42 -11.5 -74t-30.5 -54t-44 -33.5t-52 -11.5q-24 0 -51.5 8.5t-51 31.5t-39 65t-15.5 108q0 70 19 111.5t44.5 63.5t52 28.5t41.5 6.5q33 0 59 -14.5t43.5 -39t26.5 -56.5t9 -66
v-74zM300 628l11 -6.5t27.5 -16.5t36 -22t36 -22.5l27.5 -17.5l11 -7l25 31l-11 11t-27.5 27t-36 35t-36 35t-27.5 26.5l-11 10.5h-50l-11 -11t-27.5 -27t-36 -35t-36 -35t-27.5 -27t-11 -10l24 -30l11.5 6.5t28 17t36 22t36 22t27.5 17z" />
    <glyph glyph-name="Gbreve" unicode="&#x11e;" horiz-adv-x="817" 
d="M757 312h-198v-41h112v-181q-45 -29 -92 -43t-107 -14q-79 0 -138 24t-98 66.5t-58.5 101t-19.5 128.5q0 69 18.5 127t55.5 100t90.5 65t124.5 23q47 0 88 -10t73 -26t52.5 -36.5t26.5 -41.5h72q-9 22 -30.5 49.5t-58.5 51.5t-91.5 40.5t-128.5 16.5q-85 0 -156.5 -24
t-123.5 -69t-81 -110.5t-29 -148.5q0 -71 22.5 -137.5t69 -119t118.5 -84t172 -31.5q75 0 133 16.5t96 36.5v-41h86v312zM261 912q0 -28 11 -53t31 -43.5t46.5 -29t58.5 -10.5q31 0 58 10.5t47 29t31 43.5t11 53h-42q-2 -45 -32.5 -72.5t-72.5 -27.5q-41 0 -71.5 27.5
t-33.5 72.5h-42z" />
    <glyph glyph-name="gbreve" unicode="&#x11f;" horiz-adv-x="602" 
d="M437 -42q0 -46 -11 -78t-30.5 -52t-46 -29t-56.5 -9q-53 0 -85.5 27t-59.5 72l-55 -50q7 -9 22 -23.5t38 -29t55 -25t73 -10.5q76 0 123 21.5t73 57.5t35.5 82.5t9.5 96.5v491h-85v-78h-4q-12 42 -51.5 65.5t-103.5 23.5q-51 0 -93 -18.5t-72 -52.5t-46.5 -82t-16.5 -107
q0 -60 16.5 -108.5t46.5 -83t71.5 -53t92.5 -18.5q56 0 97.5 22t58.5 70h4v-122zM437 213q0 -42 -11.5 -74t-30.5 -54t-44 -33.5t-52 -11.5q-24 0 -51.5 8.5t-51 31.5t-39 65t-15.5 108q0 70 19 111.5t44.5 63.5t52 28.5t41.5 6.5q33 0 59 -14.5t43.5 -39t26.5 -56.5t9 -66
v-74zM154 712q0 -28 11 -53t31 -43.5t46.5 -29t58.5 -10.5q31 0 58 10.5t47 29t31 43.5t11 53h-42q-2 -45 -32.5 -72.5t-72.5 -27.5q-41 0 -71.5 27.5t-33.5 72.5h-42z" />
    <glyph glyph-name="Gdotaccent" unicode="&#x120;" horiz-adv-x="817" 
d="M757 312h-198v-41h112v-181q-45 -29 -92 -43t-107 -14q-79 0 -138 24t-98 66.5t-58.5 101t-19.5 128.5q0 69 18.5 127t55.5 100t90.5 65t124.5 23q47 0 88 -10t73 -26t52.5 -36.5t26.5 -41.5h72q-9 22 -30.5 49.5t-58.5 51.5t-91.5 40.5t-128.5 16.5q-85 0 -156.5 -24
t-123.5 -69t-81 -110.5t-29 -148.5q0 -71 22.5 -137.5t69 -119t118.5 -84t172 -31.5q75 0 133 16.5t96 36.5v-41h86v312zM354 858q0 -22 16 -38t38 -16t38 16t16 38t-16 38t-38 16t-38 -16t-16 -38z" />
    <glyph glyph-name="gdotaccent" unicode="&#x121;" horiz-adv-x="602" 
d="M437 -42q0 -46 -11 -78t-30.5 -52t-46 -29t-56.5 -9q-53 0 -85.5 27t-59.5 72l-55 -50q7 -9 22 -23.5t38 -29t55 -25t73 -10.5q76 0 123 21.5t73 57.5t35.5 82.5t9.5 96.5v491h-85v-78h-4q-12 42 -51.5 65.5t-103.5 23.5q-51 0 -93 -18.5t-72 -52.5t-46.5 -82t-16.5 -107
q0 -60 16.5 -108.5t46.5 -83t71.5 -53t92.5 -18.5q56 0 97.5 22t58.5 70h4v-122zM437 213q0 -42 -11.5 -74t-30.5 -54t-44 -33.5t-52 -11.5q-24 0 -51.5 8.5t-51 31.5t-39 65t-15.5 108q0 70 19 111.5t44.5 63.5t52 28.5t41.5 6.5q33 0 59 -14.5t43.5 -39t26.5 -56.5t9 -66
v-74zM247 658q0 -22 16 -38t38 -16t38 16t16 38t-16 38t-38 16t-38 -16t-16 -38z" />
    <glyph glyph-name="uni0122" unicode="&#x122;" horiz-adv-x="817" 
d="M756 312h-197v-41h112v-181q-45 -29 -92.5 -43t-102.5 -14q-78 0 -137.5 27t-99 71.5t-59.5 102.5t-20 120q0 69 21 127t60 99.5t94.5 65t124.5 23.5q34 0 66.5 -10t59.5 -26t46 -37t25 -42h94q-10 24 -30 51.5t-56 51t-90 39.5t-132 16q-81 0 -150.5 -25t-121.5 -71
t-81.5 -110.5t-29.5 -143.5q0 -71 22.5 -138t69 -119.5t117 -84.5t167.5 -32q82 0 138.5 16t96.5 37v-41h86zM490 -49h-94v-171h34z" />
    <glyph glyph-name="uni0123" unicode="&#x123;" horiz-adv-x="602" 
d="M437 -42q0 -46 -11 -78t-30.5 -52t-46 -29t-56.5 -9q-53 0 -85.5 27t-59.5 72l-55 -50q7 -9 22 -23.5t38 -29t55 -25t73 -10.5q76 0 123 21.5t73 57.5t35.5 82.5t9.5 96.5v491h-85v-78h-4q-12 42 -51.5 65.5t-103.5 23.5q-51 0 -93 -18.5t-72 -52.5t-46.5 -82t-16.5 -107
q0 -60 16.5 -108.5t46.5 -83t71.5 -53t92.5 -18.5q56 0 97.5 22t58.5 70h4v-122zM437 213q0 -42 -11.5 -74t-30.5 -54t-44 -33.5t-52 -11.5q-24 0 -51 8.5t-50 31.5t-38 65t-15 108q0 70 18.5 111t43.5 62.5t51 27.5t41 6q33 0 59 -14t43.5 -38t26.5 -55.5t9 -65.5v-74z
M232 544h94v168h-34z" />
    <glyph glyph-name="Hcircumflex" unicode="&#x124;" horiz-adv-x="841" 
d="M211 348h419v-348h91v700h-91v-306h-419v306h-91v-700h91v348zM420 828l11 -6.5t27.5 -16.5t36 -22t36 -22.5l27.5 -17.5l11 -7l25 31l-11 11t-27.5 27t-36 35t-36 35t-27.5 26.5l-11 10.5h-50l-11 -11t-27.5 -27t-36 -35t-36 -35t-27.5 -27t-11 -10l24 -30l11.5 6.5
t28 17t36 22t36 22t27.5 17z" />
    <glyph glyph-name="hcircumflex" unicode="&#x125;" horiz-adv-x="569" 
d="M80 700v-700h85v289q0 20 3 49t16.5 56t40.5 46.5t75 19.5q34 0 54.5 -12.5t31.5 -33.5t14.5 -49t3.5 -58v-307h85v330q0 56 -16 91.5t-40 55.5t-52.5 27t-54.5 7q-35 0 -73.5 -13.5t-72.5 -51.5l-11 -14h-4v268h-85zM257 822l11 -6.5t27.5 -16.5t36 -22t36 -22.5
l27.5 -17.5l11 -7l25 31l-11 11t-27.5 27t-36 35t-36 35t-27.5 26.5l-11 10.5h-50l-11 -11t-27.5 -27t-36 -35t-36 -35t-27.5 -27t-11 -10l24 -30l11.5 6.5t28 17t36 22t36 22t27.5 17z" />
    <glyph glyph-name="Hbar" unicode="&#x126;" horiz-adv-x="841" 
d="M36 500h84v-500h91v350h419v-350h91v500h86v40h-86v160h-91v-160h-419v160h-91v-160h-84v-40zM211 394v106h419v-106h-419z" />
    <glyph glyph-name="hbar" unicode="&#x127;" horiz-adv-x="569" 
d="M9 583h71v-583h85v289q0 20 3 49t16.5 56t40.5 46.5t75 19.5q34 0 54.5 -12.5t31.5 -33.5t14.5 -49t3.5 -58v-307h85v330q0 56 -16 91.5t-40 55.5t-52.5 27t-54.5 7q-35 0 -73.5 -13.5t-72.5 -51.5l-11 -14h-4v151h157v40h-157v77h-85v-77h-71v-40z" />
    <glyph glyph-name="Itilde" unicode="&#x128;" horiz-adv-x="411" 
d="M160 700v-700h91v700h-91zM46 789q11 19 28.5 31.5t34.5 12.5q13 0 25.5 -4t23.5 -9q36 -14 66 -25t56 -11q35 0 64.5 23.5t46.5 76.5l-30 14q-11 -26 -28 -35.5t-34 -9.5q-12 0 -23.5 3t-20.5 5q-43 14 -73.5 26.5t-53.5 12.5q-38 0 -66.5 -27.5t-42.5 -68.5z" />
    <glyph glyph-name="itilde" unicode="&#x129;" horiz-adv-x="308" 
d="M112 500v-500h85v500h-85zM-5 589q11 19 28.5 31.5t34.5 12.5q21 0 44 -7.5t45.5 -17t43.5 -17t38 -7.5q76 0 111 100l-30 14q-11 -26 -28 -35.5t-34 -9.5q-21 0 -44.5 7.5t-46 16t-42.5 16t-33 7.5q-42 0 -71 -27.5t-43 -68.5z" />
    <glyph glyph-name="Imacron" unicode="&#x12a;" horiz-adv-x="411" 
d="M160 700v-700h91v700h-91zM49 783h313v40h-313v-40z" />
    <glyph glyph-name="imacron" unicode="&#x12b;" horiz-adv-x="308" 
d="M112 500v-500h85v500h-85zM-2 583h313v40h-313v-40z" />
    <glyph glyph-name="Ibreve" unicode="&#x12c;" horiz-adv-x="411" 
d="M160 700v-700h91v700h-91zM58 912q0 -28 11 -53t31 -43.5t46.5 -29t58.5 -10.5q31 0 58 10.5t47 29t31 43.5t11 53h-42q-2 -45 -32.5 -72.5t-72.5 -27.5q-41 0 -71.5 27.5t-33.5 72.5h-42z" />
    <glyph glyph-name="ibreve" unicode="&#x12d;" horiz-adv-x="257" 
d="M-167 712q0 -28 11 -53t31 -43.5t46.5 -29t58.5 -10.5q31 0 58 10.5t47 29t31 43.5t11 53h-42q-2 -45 -32.5 -72.5t-72.5 -27.5q-41 0 -71.5 27.5t-33.5 72.5h-42zM112 500v-500h85v500h-85zM100 658q0 -22 16 -38t38 -16t38 16t16 38t-16 38t-38 16t-38 -16t-16 -38z
" />
    <glyph glyph-name="Iogonek" unicode="&#x12e;" horiz-adv-x="411" 
d="M203 0l-46 -33q-27 -20 -49.5 -44t-22.5 -53q0 -34 23.5 -47t50.5 -13q23 0 45.5 8t38.5 20l-11 27q-10 -5 -25 -11t-29 -6q-21 0 -26.5 13t-5.5 19q0 17 9 33t24 31.5t34 29.5t38 26v700h-91v-700h43z" />
    <glyph glyph-name="iogonek" unicode="&#x12f;" horiz-adv-x="308" 
d="M112 500v-500h33l-43 -31q-27 -20 -49.5 -44t-22.5 -53q0 -34 23.5 -47t50.5 -13q23 0 45.5 8t38.5 20l-11 27q-10 -5 -25 -11t-29 -6q-21 0 -26.5 13t-5.5 19q0 16 9 32t23.5 31t32.5 29t37 26h4v500h-85zM100 658q0 -22 16 -38t38 -16t38 16t16 38t-16 38t-38 16
t-38 -16t-16 -38z" />
    <glyph glyph-name="Idotaccent" unicode="&#x130;" horiz-adv-x="411" 
d="M160 700v-700h91v700h-91zM151 858q0 -22 16 -38t38 -16t38 16t16 38t-16 38t-38 16t-38 -16t-16 -38z" />
    <glyph glyph-name="dotlessi" unicode="&#x131;" horiz-adv-x="308" 
d="M112 500v-500h85v500h-85zM100 658q0 -22 16 -38t38 -16t38 16t16 38t-16 38t-38 16t-38 -16t-16 -38z" />
    <glyph glyph-name="IJ" unicode="&#x132;" horiz-adv-x="611" 
d="M160 700v-700h91v700h-91zM650 700v-505q0 -24 -1.5 -52.5t-11.5 -53t-30.5 -41t-58.5 -16.5q-33 0 -54.5 12t-34 30t-18 38.5t-5.5 36.5h-87q2 -77 50 -119t144 -42q69 0 109 20.5t59.5 52t24.5 68.5t5 69v502h-91z" />
    <glyph glyph-name="ij" unicode="&#x133;" horiz-adv-x="514" 
d="M112 500v-500h85v500h-85zM100 658q0 -22 16 -38t38 -16t38 16t16 38t-16 38t-38 16t-38 -16t-16 -38zM369 500v-592q0 -23 -2 -44.5t-8.5 -38.5t-19 -27t-32.5 -10q-25 0 -37.5 12t-23.5 38l-50 -39q22 -29 51.5 -39t61.5 -10q22 0 47.5 8t47.5 30.5t36.5 62t14.5 102.5
v547h-86zM359 658q0 -22 15.5 -38t38.5 -16q22 0 38 16t16 38t-16 38t-38 16q-23 0 -38.5 -16t-15.5 -38z" />
    <glyph glyph-name="Jcircumflex" unicode="&#x134;" horiz-adv-x="522" 
d="M311 700v-505q0 -24 -1.5 -52.5t-11.5 -53t-30.5 -41t-58.5 -16.5q-33 0 -54.5 12t-34 30t-18 38.5t-5.5 36.5h-87q2 -77 50 -119t144 -42q69 0 109 20.5t59.5 52t24.5 68.5t5 69v502h-91zM347 828l11 -6.5t27.5 -16.5t36 -22t36 -22.5l27.5 -17.5l11 -7l25 31l-11 11
t-27.5 27t-36 35t-36 35t-27.5 26.5l-11 10.5h-50l-11 -11t-27.5 -27t-36 -35t-36 -35t-27.5 -27t-11 -10l24 -30l11.5 6.5t28 17t36 22t36 22t27.5 17z" />
    <glyph glyph-name="jcircumflex" unicode="&#x135;" horiz-adv-x="291" 
d="M113 500v-592q0 -23 -2 -44.5t-8.5 -38.5t-19 -27t-32.5 -10q-25 0 -37.5 12t-23.5 38l-50 -39q22 -29 51.5 -39t61.5 -10q22 0 47.5 8t47.5 30.5t36.5 62t14.5 102.5v547h-86zM157 604q13 0 21 4q17 -11 36.5 -23t37.5 -23q20 -13 42 -26l25 31q-21 19 -40 38
q-17 17 -36 35.5t-36 35.5q-10 25 -35 33q-1 1 -1 2l-1 1h-9h-4h-37l-11 -11t-27.5 -27t-36 -35t-36 -35t-27.5 -27t-11 -10l24 -30l14.5 8.5t35 21t42.5 26t37 22.5q14 -11 33 -11z" />
    <glyph glyph-name="uni0136" unicode="&#x136;" horiz-adv-x="724" 
d="M120 0h91v246l113 121l266 -367h104l-312 429l254 271h-50l-375 -394v394h-91v-700zM448 -49h-94v-171h34z" />
    <glyph glyph-name="uni0137" unicode="&#x137;" horiz-adv-x="536" 
d="M165 700h-85v-700h85v188l58 59l201 -247h112l-251 308l191 192h-65l-246 -248v448zM337 -49h-94v-171h34z" />
    <glyph glyph-name="kgreenlandic" unicode="&#x138;" horiz-adv-x="536" 
d="M165 500h-85v-500h85v188l58 59l201 -247h112l-251 308l191 192h-65l-246 -248v248z" />
    <glyph glyph-name="Lacute" unicode="&#x139;" horiz-adv-x="602" 
d="M120 0v700h91v-645h361v-55h-452zM207 912h111l-155 -127h-39z" />
    <glyph glyph-name="lacute" unicode="&#x13a;" horiz-adv-x="285" 
d="M185 700h-85v-700h85v700zM174 905h111l-155 -127h-39z" />
    <glyph glyph-name="uni013B" unicode="&#x13b;" horiz-adv-x="602" 
d="M120 0v700h91v-645h361v-55h-452zM402 -49h-94v-171h34z" />
    <glyph glyph-name="uni013C" unicode="&#x13c;" horiz-adv-x="285" 
d="M185 700h-85v-700h85v700zM191 -49h-94v-171h34z" />
    <glyph glyph-name="Lcaron" unicode="&#x13d;" horiz-adv-x="602" 
d="M120 0v700h91v-645h361v-55h-452zM384 701h-95v-258h36z" />
    <glyph glyph-name="lcaron" unicode="&#x13e;" horiz-adv-x="417" 
d="M185 700h-85v-700h85v700zM340 700h-95v-258h36z" />
    <glyph glyph-name="Ldot" unicode="&#x13f;" horiz-adv-x="602" 
d="M120 0v700h91v-645h361v-55h-452zM247 570q0 -22 16 -38t38 -16t38 16t16 38t-16 38t-38 16t-38 -16t-16 -38z" />
    <glyph glyph-name="ldot" unicode="&#x140;" horiz-adv-x="513" 
d="M185 700h-85v-700h85v700zM213 370q0 -22 16 -38t38 -16t38 16t16 38t-16 38t-38 16t-38 -16t-16 -38z" />
    <glyph glyph-name="Lslash" unicode="&#x141;" horiz-adv-x="602" 
d="M120 0v273l-74 -50l-20 29l94 64v384h91v-322l75 52l21 -30l-96 -65v-280h361v-55h-452z" />
    <glyph glyph-name="lslash" unicode="&#x142;" horiz-adv-x="321" 
d="M201 700h-84v-382l-97 -66l20 -29l77 52v-275h85v333l99 67l-21 30l-79 -54v324z" />
    <glyph glyph-name="Nacute" unicode="&#x143;" horiz-adv-x="850" 
d="M684 700v-535h-4l-555 547h-5v-712h46v535h4l555 -547h5v712h-46zM411 912h111l-155 -127h-39z" />
    <glyph glyph-name="nacute" unicode="&#x144;" horiz-adv-x="581" 
d="M498 0v324q0 18 -3 49.5t-19.5 62t-52.5 53t-102 22.5q-29 1 -65 -11.5t-71 -47.5l-16 -16h-4v64h-85v-500h85v309q0 39 11 67t30 47t43.5 28t50.5 9q42 0 65 -16.5t33.5 -38.5t12.5 -44t2 -32v-329h85zM276 712h111l-155 -127h-39z" />
    <glyph glyph-name="uni0145" unicode="&#x145;" horiz-adv-x="850" 
d="M684 700v-535h-4l-555 547h-5v-712h46v535h4l555 -547h5v712h-46zM490 -49h-94v-171h34z" />
    <glyph glyph-name="uni0146" unicode="&#x146;" horiz-adv-x="581" 
d="M498 0v324q0 18 -3 49.5t-19.5 62t-52.5 53t-102 22.5h-4q-29 0 -63.5 -12.5t-68.5 -46.5l-16 -16h-4v64h-85v-500h85v309q0 39 11 67t30 47t43.5 28t50.5 9q42 0 65 -16.5t33.5 -38.5t12.5 -44t2 -32v-329h85zM345 -49h-94v-171h34z" />
    <glyph glyph-name="Ncaron" unicode="&#x147;" horiz-adv-x="850" 
d="M684 700v-535h-4l-555 547h-5v-712h46v535h4l555 -547h5v712h-46zM424 821q0 -1 11 6t27.5 17t36 22t36 22.5l27.5 17.5l11 7l25 -31l-11 -11t-27.5 -27t-36 -35t-36 -35t-27.5 -26.5l-11 -10.5h-50l-11 11t-27.5 27t-36 35t-36 35t-27.5 26.5l-11 10.5l24 30l11.5 -6.5
t28 -17t36 -22t36 -22t27.5 -17z" />
    <glyph glyph-name="ncaron" unicode="&#x148;" horiz-adv-x="581" 
d="M498 0v324q0 18 -3 49.5t-19.5 62t-52.5 53t-102 22.5q-29 1 -65 -11.5t-71 -47.5l-16 -16h-4v64h-85v-500h85v309q0 39 11 67t30 47t43.5 28t50.5 9q42 0 65 -16.5t33.5 -38.5t12.5 -44t2 -32v-329h85zM290 621q0 -1 11 6t27.5 17t36 22t36 22.5l27.5 17.5l11 7l25 -31
l-11 -11t-27.5 -27t-36 -35t-36 -35t-27.5 -26.5l-11 -10.5h-50l-11 11t-27.5 27t-36 35t-36 35t-27.5 26.5l-11 10.5l24 30l11.5 -6.5t28 -17t36 -22t36 -22t27.5 -17z" />
    <glyph glyph-name="napostrophe" unicode="&#x149;" horiz-adv-x="581" 
d="M231 712h94v-168h-34zM498 0v324q0 18 -3 49.5t-19.5 62t-52.5 53t-102 22.5q-29 1 -65 -11.5t-71 -47.5l-16 -16h-4v64h-85v-500h85v309q0 39 11 67t30 47t43.5 28t50.5 9q42 0 65 -16.5t33.5 -38.5t12.5 -44t2 -32v-329h85z" />
    <glyph glyph-name="Eng" unicode="&#x14a;" horiz-adv-x="759" 
d="M475 -190q-48 0 -76 13v76q35 -10 76 -10q50 0 76.5 28.5t27.5 82.5l-403 593h-4q8 -125 8 -206v-387h-83v714h104l381 -572h4q-7 75 -7 200v372h84v-708q0 -96 -48.5 -146t-139.5 -50z" />
    <glyph glyph-name="eng" unicode="&#x14b;" horiz-adv-x="618" 
d="M394 -240q-42 0 -71 12v71q29 -10 60 -10q67 0 67 84v427q0 65 -29 96.5t-90 31.5q-83 0 -120.5 -45.5t-37.5 -147.5v-279h-88v536h71l14 -73h5q25 40 69 61.5t98 21.5q99 0 147.5 -46.5t48.5 -149.5v-430q0 -75 -35 -117.5t-109 -42.5z" />
    <glyph glyph-name="Omacron" unicode="&#x14c;" horiz-adv-x="865" 
d="M50 350q0 -56 21.5 -119.5t67.5 -117.5t117 -89.5t170 -35.5q67 0 121.5 16.5t98 44.5t75.5 64.5t52.5 77t31 81.5t10.5 78q0 56 -23 119.5t-71 117.5t-121.5 89.5t-173.5 35.5q-99 0 -170 -35t-117 -88.5t-67.5 -117.5t-21.5 -121zM148 350q0 70 21.5 128.5t59 100.5
t88.5 65.5t111 23.5q59 0 111.5 -23.5t92 -65.5t62.5 -100.5t23 -128.5t-23 -128.5t-62.5 -100.5t-92 -65.5t-111.5 -23.5q-60 0 -111 23.5t-88.5 65.5t-59 100.5t-21.5 128.5zM276 783h313v40h-313v-40z" />
    <glyph glyph-name="omacron" unicode="&#x14d;" horiz-adv-x="618" 
d="M568 249q0 -52 -18 -99.5t-51.5 -83.5t-81 -57t-106.5 -21q-60 0 -108.5 21.5t-82 57.5t-52 83.5t-18.5 98.5q0 52 18.5 99.5t52 83.5t82 57.5t108.5 21.5q59 0 106.5 -21.5t81 -57.5t51.5 -83.5t18 -99.5zM473 249q0 70 -15 113.5t-39 67.5t-53 32.5t-56 8.5t-56 -8.5
t-53.5 -32.5t-40 -67.5t-15.5 -113.5q0 -69 15.5 -112.5t40 -67.5t53.5 -32.5t56 -8.5t56 8.5t53 32.5t39 67.5t15 112.5zM152 583h313v40h-313v-40z" />
    <glyph glyph-name="Obreve" unicode="&#x14e;" horiz-adv-x="865" 
d="M50 350q0 -56 21.5 -119.5t67.5 -117.5t117 -89.5t170 -35.5q67 0 121.5 16.5t98 44.5t75.5 64.5t52.5 77t31 81.5t10.5 78q0 56 -23 119.5t-71 117.5t-121.5 89.5t-173.5 35.5q-99 0 -170 -35t-117 -88.5t-67.5 -117.5t-21.5 -121zM148 350q0 70 21.5 128.5t59 100.5
t88.5 65.5t111 23.5q59 0 111.5 -23.5t92 -65.5t62.5 -100.5t23 -128.5t-23 -128.5t-62.5 -100.5t-92 -65.5t-111.5 -23.5q-60 0 -111 23.5t-88.5 65.5t-59 100.5t-21.5 128.5zM285 912q0 -28 11 -53t31 -43.5t46.5 -29t58.5 -10.5q31 0 58 10.5t47 29t31 43.5t11 53h-42
q-2 -45 -32.5 -72.5t-72.5 -27.5q-41 0 -71.5 27.5t-33.5 72.5h-42z" />
    <glyph glyph-name="obreve" unicode="&#x14f;" horiz-adv-x="618" 
d="M568 249q0 -52 -18 -99.5t-51.5 -83.5t-81 -57t-106.5 -21q-60 0 -108.5 21.5t-82 57.5t-52 83.5t-18.5 98.5q0 52 18.5 99.5t52 83.5t82 57.5t108.5 21.5q59 0 106.5 -21.5t81 -57.5t51.5 -83.5t18 -99.5zM473 249q0 70 -15 113.5t-39 67.5t-53 32.5t-56 8.5t-56 -8.5
t-53.5 -32.5t-40 -67.5t-15.5 -113.5q0 -69 15.5 -112.5t40 -67.5t53.5 -32.5t56 -8.5t56 8.5t53 32.5t39 67.5t15 112.5zM162 712q0 -28 11 -53t31 -43.5t46.5 -29t58.5 -10.5q31 0 58 10.5t47 29t31 43.5t11 53h-42q-2 -45 -32.5 -72.5t-72.5 -27.5q-41 0 -71.5 27.5
t-33.5 72.5h-42z" />
    <glyph glyph-name="Ohungarumlaut" unicode="&#x150;" horiz-adv-x="865" 
d="M50 350q0 -56 21.5 -119.5t67.5 -117.5t117 -89.5t170 -35.5q67 0 121.5 16.5t98 44.5t75.5 64.5t52.5 77t31 81.5t10.5 78q0 56 -23 119.5t-71 117.5t-121.5 89.5t-173.5 35.5q-99 0 -170 -35t-117 -88.5t-67.5 -117.5t-21.5 -121zM148 350q0 70 21.5 128.5t59 100.5
t88.5 65.5t111 23.5q59 0 111.5 -23.5t92 -65.5t62.5 -100.5t23 -128.5t-23 -128.5t-62.5 -100.5t-92 -65.5t-111.5 -23.5q-60 0 -111 23.5t-88.5 65.5t-59 100.5t-21.5 128.5zM337 912h111l-123 -127h-39zM467 912h111l-123 -127h-39z" />
    <glyph glyph-name="ohungarumlaut" unicode="&#x151;" horiz-adv-x="618" 
d="M568 249q0 -52 -18 -99.5t-51.5 -83.5t-81 -57t-106.5 -21q-60 0 -108.5 21.5t-82 57.5t-52 83.5t-18.5 98.5q0 52 18.5 99.5t52 83.5t82 57.5t108.5 21.5q59 0 106.5 -21.5t81 -57.5t51.5 -83.5t18 -99.5zM473 249q0 70 -15 113.5t-39 67.5t-53 32.5t-56 8.5t-56 -8.5
t-53.5 -32.5t-40 -67.5t-15.5 -113.5q0 -69 15.5 -112.5t40 -67.5t53.5 -32.5t56 -8.5t56 8.5t53 32.5t39 67.5t15 112.5zM214 712h111l-123 -127h-39zM344 712h111l-123 -127h-39z" />
    <glyph glyph-name="OE" unicode="&#x152;" horiz-adv-x="1078" 
d="M588 71q-21 -13 -55.5 -26t-88.5 -13q-55 0 -101 18.5t-81.5 49.5t-60 72t-34.5 86q-5 23 -6.5 45.5t-1.5 46.5q0 25 1.5 47t6.5 45q9 45 33 85.5t60 71.5t82.5 49.5t101.5 18.5q54 0 88.5 -14t55.5 -26v-556zM678 644h352v56h-482q-28 6 -53 8.5t-53 2.5
q-50 0 -103.5 -12.5t-102.5 -41t-89.5 -74.5t-65.5 -114q-11 -29 -16.5 -58.5t-5.5 -60.5q0 -57 22.5 -120.5t69 -117t119 -89t172.5 -35.5q25 0 50.5 3.5t51.5 8.5h504v55h-370v295h300v44h-300v250z" />
    <glyph glyph-name="oe" unicode="&#x153;" horiz-adv-x="974" 
d="M555 275v12q0 39 10.5 74t29.5 61t45 41t57 15q30 0 56 -14t44.5 -40.5t29.5 -64t11 -84.5h-283zM459 251q0 -70 -15.5 -114t-39.5 -69.5t-53 -35t-56 -9.5q-28 0 -56.5 9.5t-51.5 35t-37.5 69.5t-14.5 114t14.5 114t37.5 69t51.5 34.5t56.5 9.5q27 0 56 -9.5t53 -34.5
t39.5 -69t15.5 -114zM555 240h374v19q0 66 -19 114t-51 79t-73 46t-86 15q-25 0 -52.5 -5.5t-53.5 -18t-49.5 -31.5t-40.5 -46q-16 17 -36 35t-45.5 32.5t-57.5 24t-71 9.5q-60 0 -107 -21.5t-80 -57.5t-50 -83.5t-17 -99.5q0 -53 17 -100.5t50 -83.5t80 -57.5t107 -21.5
q69 0 123 28t89 78q35 -53 92 -79.5t123 -26.5q59 0 116.5 24t96.5 69l-28 30q-39 -40 -76.5 -61t-88.5 -21q-49 0 -84.5 18t-58 46.5t-33 63.5t-10.5 70v13z" />
    <glyph glyph-name="Racute" unicode="&#x154;" horiz-adv-x="718" 
d="M120 700v-700h91v309h44q28 0 46.5 -5t33.5 -17t28 -31t31 -47l79 -117q15 -23 29.5 -42t31.5 -32.5t38.5 -21.5t51.5 -8q22 0 36 2t28 10v37q-5 -1 -10 -1.5t-10 -0.5q-21 0 -37 6t-30 17.5t-27 28t-27 37.5q-42 61 -65 97.5t-36.5 56.5t-22 29t-20.5 15l-10 5v4
q48 3 82.5 21t56.5 45t32 58.5t10 61.5q0 27 -10.5 59t-36 59.5t-69.5 46t-111 18.5h-227zM211 656h101q38 0 68.5 -11t52.5 -30.5t33.5 -46.5t11.5 -59q0 -27 -10.5 -54.5t-31.5 -50t-51.5 -36.5t-70.5 -14h-103v302zM345 912h111l-155 -127h-39z" />
    <glyph glyph-name="racute" unicode="&#x155;" horiz-adv-x="382" 
d="M80 500v-500h85v302q0 41 9.5 69.5t24.5 46.5t33 26t35 8q23 0 42.5 -15t28.5 -28l34 62q-9 12 -21.5 20t-25 12.5t-23 6t-15.5 1.5q-42 0 -70 -23t-46 -68h-6v80h-85zM177 712h111l-155 -127h-39z" />
    <glyph glyph-name="uni0156" unicode="&#x156;" horiz-adv-x="708" 
d="M120 700v-700h91v309h44q29 0 53.5 -13t47 -36.5t45 -57t49.5 -75.5l12 -19q16 -26 31.5 -48t33.5 -38t41 -25t56 -9q22 0 36 2t28 10v37q-5 -1 -10 -1.5t-10 -0.5q-21 0 -37 6t-30 17.5t-27 28t-27 37.5q-42 61 -66.5 98t-39 58t-22.5 29.5t-16 12.5l-10 5v4
q48 3 82.5 21t56.5 45t32 58.5t10 61.5q0 27 -10.5 59t-36 59.5t-69.5 46t-111 18.5h-227zM211 656h101q38 0 68.5 -11t52.5 -30.5t33.5 -46.5t11.5 -59q0 -27 -10.5 -54.5t-31.5 -50t-51.5 -36.5t-70.5 -14h-103v302zM421 -49h-94v-171h34z" />
    <glyph glyph-name="uni0157" unicode="&#x157;" horiz-adv-x="382" 
d="M80 500v-500h85v302q0 41 9.5 69.5t24.5 46.5t33 26t35 8q23 0 42.5 -15t28.5 -28l34 62q-9 12 -21.5 20t-25 12.5t-23 6t-15.5 1.5q-42 0 -70 -23t-46 -68h-6v80h-85zM174 -49h-94v-171h34z" />
    <glyph glyph-name="Rcaron" unicode="&#x158;" horiz-adv-x="718" 
d="M120 700v-700h91v309h44q28 0 46.5 -5t33.5 -17t28 -31t31 -47l79 -117q15 -23 29.5 -42t31.5 -32.5t38.5 -21.5t51.5 -8q22 0 36 2t28 10v37q-5 -1 -10 -1.5t-10 -0.5q-21 0 -37 6t-30 17.5t-27 28t-27 37.5q-42 61 -65 97.5t-36.5 56.5t-22 29t-20.5 15l-10 5v4
q48 3 82.5 21t56.5 45t32 58.5t10 61.5q0 27 -10.5 59t-36 59.5t-69.5 46t-111 18.5h-227zM211 656h101q38 0 68.5 -11t52.5 -30.5t33.5 -46.5t11.5 -59q0 -27 -10.5 -54.5t-31.5 -50t-51.5 -36.5t-70.5 -14h-103v302zM358 821q0 -1 11 6t27.5 17t36 22t36 22.5l27.5 17.5
l11 7l25 -31l-11 -11t-27.5 -27t-36 -35t-36 -35t-27.5 -26.5l-11 -10.5h-50l-11 11t-27.5 27t-36 35t-36 35t-27.5 26.5l-11 10.5l24 30l11.5 -6.5t28 -17t36 -22t36 -22t27.5 -17z" />
    <glyph glyph-name="rcaron" unicode="&#x159;" horiz-adv-x="382" 
d="M80 500v-500h85v302q0 41 9.5 69.5t24.5 46.5t33 26t35 8q23 0 42.5 -15t28.5 -28l34 62q-9 12 -21.5 20t-25 12.5t-23 6t-15.5 1.5q-42 0 -70 -23t-46 -68h-6v80h-85zM190 621q0 -1 11 6t27.5 17t36 22t36 22.5l27.5 17.5l11 7l25 -31l-11 -11t-27.5 -27t-36 -35
t-36 -35t-27.5 -26.5l-11 -10.5h-50l-11 11t-27.5 27t-36 35t-36 35t-27.5 26.5l-11 10.5l24 30l11.5 -6.5t28 -17t36 -22t36 -22t27.5 -17z" />
    <glyph glyph-name="Sacute" unicode="&#x15a;" horiz-adv-x="625" 
d="M37 177q2 -43 22.5 -78t56 -59.5t83.5 -38t105 -13.5q58 0 104.5 14t79.5 40t51 63t18 82q0 62 -31 101.5t-77.5 66t-101 44.5t-101 38t-77.5 46t-31 69q0 24 10.5 45t31 36.5t50.5 25t69 9.5q65 0 110.5 -27.5t53.5 -86.5h68q-6 37 -27 66.5t-53 50t-72.5 31t-84.5 10.5
q-46 0 -87.5 -12t-73 -35t-50 -58t-18.5 -80q0 -59 30 -95t75.5 -60t98.5 -41t98.5 -38.5t75.5 -52.5t30 -83q0 -65 -47.5 -95t-126.5 -30q-63 0 -101 16.5t-58 39.5t-27 47.5t-8 41.5h-68zM298 912h111l-155 -127h-39z" />
    <glyph glyph-name="sacute" unicode="&#x15b;" horiz-adv-x="480" 
d="M399 386q0 27 -14 50t-38.5 39.5t-57 26t-69.5 9.5q-35 0 -65.5 -9t-53 -27t-35.5 -44.5t-13 -61.5q0 -48 22 -76t55 -45t71.5 -27.5t71.5 -23t55 -31.5t22 -52q0 -14 -4.5 -29t-16.5 -27.5t-33 -21t-53 -8.5q-40 0 -67.5 12.5t-45 30t-25 35.5t-7.5 30h-65
q0 -28 13 -54.5t39.5 -47.5t65 -33.5t89.5 -12.5q92 0 138.5 40.5t46.5 106.5q0 48 -22.5 77t-56.5 46.5t-73.5 28.5t-73.5 23t-56.5 29t-22.5 48q0 13 5 27.5t17 27t32 21t50 8.5t52 -8.5t37 -21t22 -27.5t7 -28h57zM226 712h111l-155 -127h-39z" />
    <glyph glyph-name="Scircumflex" unicode="&#x15c;" horiz-adv-x="625" 
d="M37 177q2 -43 22.5 -78t56 -59.5t83.5 -38t105 -13.5q58 0 104.5 14t79.5 40t51 63t18 82q0 62 -31 101.5t-77.5 66t-101 44.5t-101 38t-77.5 46t-31 69q0 24 10.5 45t31 36.5t50.5 25t69 9.5q65 0 110.5 -27.5t53.5 -86.5h68q-6 37 -27 66.5t-53 50t-72.5 31t-84.5 10.5
q-46 0 -87.5 -12t-73 -35t-50 -58t-18.5 -80q0 -59 30 -95t75.5 -60t98.5 -41t98.5 -38.5t75.5 -52.5t30 -83q0 -65 -47.5 -95t-126.5 -30q-63 0 -101 16.5t-58 39.5t-27 47.5t-8 41.5h-68zM312 828l11 -6.5t27.5 -16.5t36 -22t36 -22.5l27.5 -17.5l11 -7l25 31l-11 11
t-27.5 27t-36 35t-36 35t-27.5 26.5l-11 10.5h-50l-11 -11t-27.5 -27t-36 -35t-36 -35t-27.5 -27t-11 -10l24 -30l11.5 6.5t28 17t36 22t36 22t27.5 17z" />
    <glyph glyph-name="scircumflex" unicode="&#x15d;" horiz-adv-x="480" 
d="M399 386q0 27 -14 50t-38.5 39.5t-57 26t-69.5 9.5q-35 0 -65.5 -9t-53 -27t-35.5 -44.5t-13 -61.5q0 -48 22 -76t55 -45t71.5 -27.5t71.5 -23t55 -31.5t22 -52q0 -14 -4.5 -29t-16.5 -27.5t-33 -21t-53 -8.5q-40 0 -67.5 12.5t-45 30t-25 35.5t-7.5 30h-65
q0 -28 13 -54.5t39.5 -47.5t65 -33.5t89.5 -12.5q92 0 138.5 40.5t46.5 106.5q0 48 -22.5 77t-56.5 46.5t-73.5 28.5t-73.5 23t-56.5 29t-22.5 48q0 13 5 27.5t17 27t32 21t50 8.5t52 -8.5t37 -21t22 -27.5t7 -28h57zM239 628l11 -6.5t27.5 -16.5t36 -22t36 -22.5
l27.5 -17.5l11 -7l25 31l-11 11t-27.5 27t-36 35t-36 35t-27.5 26.5l-11 10.5h-50l-11 -11t-27.5 -27t-36 -35t-36 -35t-27.5 -27t-11 -10l24 -30l11.5 6.5t28 17t36 22t36 22t27.5 17z" />
    <glyph glyph-name="Scedilla" unicode="&#x15e;" horiz-adv-x="625" 
d="M60 177q1 -42 21.5 -77t55 -60t81 -38.5t100.5 -13.5q120 0 188.5 53t68.5 149q0 65 -31 106.5t-77.5 68.5t-101 44.5t-101 36.5t-77.5 43.5t-31 65.5q0 22 10.5 42.5t31 36t51 25t69.5 9.5q64 0 102.5 -27.5t46.5 -86.5h79q-6 39 -27.5 68.5t-53 49.5t-70.5 30t-79 10
q-49 0 -91.5 -12t-74 -35.5t-49.5 -58.5t-18 -81q0 -66 30 -106t75.5 -64.5t98.5 -40.5t98.5 -34t75.5 -44.5t30 -72.5q0 -36 -12.5 -60.5t-35 -40.5t-54.5 -23t-70 -7q-49 0 -82 16.5t-53.5 39.5t-29.5 47.5t-10 41.5h-84zM371 -49h-94v-171h34z" />
    <glyph glyph-name="scedilla" unicode="&#x15f;" horiz-adv-x="480" 
d="M405 386q0 27 -12.5 50t-35.5 39.5t-55 26t-71 9.5q-34 0 -63.5 -8.5t-51 -26.5t-34 -46.5t-12.5 -68.5q0 -36 21 -61t53 -44t68.5 -34t68.5 -30.5t53 -34t21 -44.5q0 -13 -5 -28t-17.5 -27.5t-35 -21t-57.5 -8.5t-58 12t-37 29t-20 35.5t-6 31.5h-69q0 -28 11.5 -54.5
t35 -47.5t59 -33.5t83.5 -12.5q51 0 87.5 10.5t59.5 30t33.5 45.5t10.5 58q0 42 -21.5 70.5t-54.5 48.5t-70.5 35t-70.5 29t-54.5 30.5t-21.5 40.5q0 13 4.5 28t15.5 28t30.5 21t48.5 8q32 0 53.5 -8.5t34 -21t18 -27.5t5.5 -28h58zM292 -49h-94v-171h34z" />
    <glyph glyph-name="Scaron" unicode="&#x160;" horiz-adv-x="625" 
d="M37 177q2 -43 22.5 -78t56 -59.5t83.5 -38t105 -13.5q58 0 104.5 14t79.5 40t51 63t18 82q0 62 -31 101.5t-77.5 66t-101 44.5t-101 38t-77.5 46t-31 69q0 24 10.5 45t31 36.5t50.5 25t69 9.5q65 0 110.5 -27.5t53.5 -86.5h68q-6 37 -27 66.5t-53 50t-72.5 31t-84.5 10.5
q-46 0 -87.5 -12t-73 -35t-50 -58t-18.5 -80q0 -59 30 -95t75.5 -60t98.5 -41t98.5 -38.5t75.5 -52.5t30 -83q0 -65 -47.5 -95t-126.5 -30q-63 0 -101 16.5t-58 39.5t-27 47.5t-8 41.5h-68zM312 821q0 -1 11 6t27.5 17t36 22t36 22.5l27.5 17.5l11 7l25 -31l-11 -11
t-27.5 -27t-36 -35t-36 -35t-27.5 -26.5l-11 -10.5h-50l-11 11t-27.5 27t-36 35t-36 35t-27.5 26.5l-11 10.5l24 30l11.5 -6.5t28 -17t36 -22t36 -22t27.5 -17z" />
    <glyph glyph-name="scaron" unicode="&#x161;" horiz-adv-x="480" 
d="M399 386q0 27 -14 50t-38.5 39.5t-57 26t-69.5 9.5q-35 0 -65.5 -9t-53 -27t-35.5 -44.5t-13 -61.5q0 -48 22 -76t55 -45t71.5 -27.5t71.5 -23t55 -31.5t22 -52q0 -14 -4.5 -29t-16.5 -27.5t-33 -21t-53 -8.5q-40 0 -67.5 12.5t-45 30t-25 35.5t-7.5 30h-65
q0 -28 13 -54.5t39.5 -47.5t65 -33.5t89.5 -12.5q92 0 138.5 40.5t46.5 106.5q0 48 -22.5 77t-56.5 46.5t-73.5 28.5t-73.5 23t-56.5 29t-22.5 48q0 13 5 27.5t17 27t32 21t50 8.5t52 -8.5t37 -21t22 -27.5t7 -28h57zM239 621q0 -1 11 6t27.5 17t36 22t36 22.5l27.5 17.5
l11 7l25 -31l-11 -11t-27.5 -27t-36 -35t-36 -35t-27.5 -26.5l-11 -10.5h-50l-11 11t-27.5 27t-36 35t-36 35t-27.5 26.5l-11 10.5l24 30l11.5 -6.5t28 -17t36 -22t36 -22t27.5 -17z" />
    <glyph glyph-name="uni0162" unicode="&#x162;" horiz-adv-x="667" 
d="M379 0v645h268v55h-627v-55h268v-645h91zM382 -49h-94v-171h34z" />
    <glyph glyph-name="uni0163" unicode="&#x163;" horiz-adv-x="375" 
d="M30 460v40h87v154h85v-154h121v-40h-121v-332q0 -12 1 -27.5t6 -29t15.5 -22.5t29.5 -9q24 0 40 18t26 39l47 -48q-49 -49 -111 -49q-26 0 -51 9t-44.5 27.5t-31.5 47.5t-12 68v308h-87zM292 -49h-94v-171h34z" />
    <glyph glyph-name="Tcaron" unicode="&#x164;" horiz-adv-x="667" 
d="M379 0v645h268v55h-627v-55h268v-645h91zM333 821q0 -1 11 6t27.5 17t36 22t36 22.5l27.5 17.5l11 7l25 -31l-11 -11t-27.5 -27t-36 -35t-36 -35t-27.5 -26.5l-11 -10.5h-50l-11 11t-27.5 27t-36 35t-36 35t-27.5 26.5l-11 10.5l24 30l11.5 -6.5t28 -17t36 -22t36 -22
t27.5 -17z" />
    <glyph glyph-name="tcaron" unicode="&#x165;" horiz-adv-x="570" 
d="M30 460v40h87v154h85v-154h121v-40h-121v-332q0 -12 1 -27.5t6 -29t15.5 -22.5t29.5 -9q24 0 40 18t26 39l47 -48q-49 -49 -111 -49q-26 0 -51 9t-44.5 27.5t-31.5 47.5t-12 68v308h-87zM520 718h-95v-258h36z" />
    <glyph glyph-name="Tbar" unicode="&#x166;" horiz-adv-x="667" 
d="M177 471h111v-471h91v471h111v40h-111v134h268v55h-627v-55h268v-134h-111v-40z" />
    <glyph glyph-name="tbar" unicode="&#x167;" horiz-adv-x="375" 
d="M31 392h86v68h-87v40h87v154h85v-154h121v-40h-121v-68h122v-42h-122v-222q0 -12 1 -27.5t6 -29t15.5 -22.5t29.5 -9q24 0 40 18t26 39l47 -48q-49 -49 -111 -49q-26 0 -51 9t-44.5 27.5t-31.5 47.5t-12 68v198h-86v42z" />
    <glyph glyph-name="Utilde" unicode="&#x168;" horiz-adv-x="720" 
d="M80 700v-430q0 -41 8 -90.5t38 -92t89 -71t161 -28.5q64 0 113.5 20t83 55t50.5 81.5t17 99.5v456h-44v-423q0 -22 -1 -44.5t-6 -45t-15.5 -44.5t-30.5 -44q-36 -39 -81 -53t-94 -14q-42 0 -74.5 13t-61.5 39q-23 20 -35 40t-18 39.5t-7 39.5t-1 40v457h-91zM201 789
q11 19 28.5 31.5t34.5 12.5q13 0 25.5 -4t23.5 -9q36 -14 66 -25t56 -11q35 0 64.5 23.5t46.5 76.5l-30 14q-11 -26 -28 -35.5t-34 -9.5q-12 0 -23.5 3t-20.5 5q-43 14 -73.5 26.5t-53.5 12.5q-38 0 -66.5 -27.5t-42.5 -68.5z" />
    <glyph glyph-name="utilde" unicode="&#x169;" horiz-adv-x="581" 
d="M80 500v-325q0 -18 3.5 -49.5t20.5 -62t53.5 -53t102.5 -22.5q29 -1 63.5 11.5t69.5 47.5l16 16h4v-63h85v500h-85v-310q0 -39 -11 -67t-29 -46.5t-42 -27.5t-50 -9q-42 0 -65.5 16.5t-35 38.5t-13.5 43.5t-2 31.5v330h-85zM131 589q11 19 28.5 31.5t34.5 12.5
q13 0 25.5 -4t23.5 -9q36 -14 66 -25t56 -11q35 0 64.5 23.5t46.5 76.5l-30 14q-11 -26 -28 -35.5t-34 -9.5q-12 0 -23.5 3t-20.5 5q-43 14 -73.5 26.5t-53.5 12.5q-38 0 -66.5 -27.5t-42.5 -68.5z" />
    <glyph glyph-name="Umacron" unicode="&#x16a;" horiz-adv-x="720" 
d="M80 700v-430q0 -41 8 -90.5t38 -92t89 -71t161 -28.5q64 0 113.5 20t83 55t50.5 81.5t17 99.5v456h-44v-423q0 -22 -1 -44.5t-6 -45t-15.5 -44.5t-30.5 -44q-36 -39 -81 -53t-94 -14q-42 0 -74.5 13t-61.5 39q-23 20 -35 40t-18 39.5t-7 39.5t-1 40v457h-91zM203 783h313
v40h-313v-40z" />
    <glyph glyph-name="umacron" unicode="&#x16b;" horiz-adv-x="581" 
d="M80 500v-325q0 -18 3.5 -49.5t20.5 -62t53.5 -53t102.5 -22.5q29 -1 63.5 11.5t69.5 47.5l16 16h4v-63h85v500h-85v-310q0 -39 -11 -67t-29 -46.5t-42 -27.5t-50 -9q-42 0 -65.5 16.5t-35 38.5t-13.5 43.5t-2 31.5v330h-85zM134 583h313v40h-313v-40z" />
    <glyph glyph-name="Ubreve" unicode="&#x16c;" horiz-adv-x="720" 
d="M80 700v-430q0 -41 8 -90.5t38 -92t89 -71t161 -28.5q64 0 113.5 20t83 55t50.5 81.5t17 99.5v456h-44v-423q0 -22 -1 -44.5t-6 -45t-15.5 -44.5t-30.5 -44q-36 -39 -81 -53t-94 -14q-42 0 -74.5 13t-61.5 39q-23 20 -35 40t-18 39.5t-7 39.5t-1 40v457h-91zM213 912
q0 -28 11 -53t31 -43.5t46.5 -29t58.5 -10.5q31 0 58 10.5t47 29t31 43.5t11 53h-42q-2 -45 -32.5 -72.5t-72.5 -27.5q-41 0 -71.5 27.5t-33.5 72.5h-42z" />
    <glyph glyph-name="ubreve" unicode="&#x16d;" horiz-adv-x="581" 
d="M80 500v-325q0 -18 3.5 -49.5t20.5 -62t53.5 -53t102.5 -22.5q29 -1 63.5 11.5t69.5 47.5l16 16h4v-63h85v500h-85v-310q0 -39 -11 -67t-29 -46.5t-42 -27.5t-50 -9q-42 0 -65.5 16.5t-35 38.5t-13.5 43.5t-2 31.5v330h-85zM143 712q0 -28 11 -53t31 -43.5t46.5 -29
t58.5 -10.5q31 0 58 10.5t47 29t31 43.5t11 53h-42q-2 -45 -32.5 -72.5t-72.5 -27.5q-41 0 -71.5 27.5t-33.5 72.5h-42z" />
    <glyph glyph-name="Uring" unicode="&#x16e;" horiz-adv-x="720" 
d="M80 700v-430q0 -41 8 -90.5t38 -92t89 -71t161 -28.5q64 0 113.5 20t83 55t50.5 81.5t17 99.5v456h-44v-423q0 -22 -1 -44.5t-6 -45t-15.5 -44.5t-30.5 -44q-36 -39 -81 -53t-94 -14q-42 0 -74.5 13t-61.5 39q-23 20 -35 40t-18 39.5t-7 39.5t-1 40v457h-91zM301 829
q0 25 17 41.5t42 16.5q24 0 41.5 -16.5t17.5 -41.5t-17.5 -42t-41.5 -17q-25 0 -42 17t-17 42zM268 829q0 -19 7 -35.5t19.5 -29t29.5 -20t36 -7.5t36 7.5t29.5 20t19.5 29t7 35.5q0 15 -5.5 31.5t-17 29.5t-29 21.5t-40.5 8.5t-40 -8.5t-28.5 -21.5t-17.5 -29.5t-6 -31.5z
" />
    <glyph glyph-name="uring" unicode="&#x16f;" horiz-adv-x="581" 
d="M80 500v-325q0 -18 3.5 -49.5t20.5 -62t53.5 -53t102.5 -22.5q29 -1 63.5 11.5t69.5 47.5l16 16h4v-63h85v500h-85v-310q0 -39 -11 -67t-29 -46.5t-42 -27.5t-50 -9q-42 0 -65.5 16.5t-35 38.5t-13.5 43.5t-2 31.5v330h-85zM231 629q0 25 17 41.5t42 16.5
q24 0 41.5 -16.5t17.5 -41.5t-17.5 -42t-41.5 -17q-25 0 -42 17t-17 42zM198 629q0 -19 7 -35.5t19.5 -29t29.5 -20t36 -7.5t36 7.5t29.5 20t19.5 29t7 35.5q0 15 -5.5 31.5t-17 29.5t-29 21.5t-40.5 8.5t-40 -8.5t-28.5 -21.5t-17.5 -29.5t-6 -31.5z" />
    <glyph glyph-name="Uhungarumlaut" unicode="&#x170;" horiz-adv-x="720" 
d="M80 700v-430q0 -41 8 -90.5t38 -92t89 -71t161 -28.5q64 0 113.5 20t83 55t50.5 81.5t17 99.5v456h-44v-423q0 -22 -1 -44.5t-6 -45t-15.5 -44.5t-30.5 -44q-36 -39 -81 -53t-94 -14q-42 0 -74.5 13t-61.5 39q-23 20 -35 40t-18 39.5t-7 39.5t-1 40v457h-91zM265 912h111
l-123 -127h-39zM395 912h111l-123 -127h-39z" />
    <glyph glyph-name="uhungarumlaut" unicode="&#x171;" horiz-adv-x="581" 
d="M80 500v-325q0 -18 3.5 -49.5t20.5 -62t53.5 -53t102.5 -22.5q29 -1 63.5 11.5t69.5 47.5l16 16h4v-63h85v500h-85v-310q0 -39 -11 -67t-29 -46.5t-42 -27.5t-50 -9q-42 0 -65.5 16.5t-35 38.5t-13.5 43.5t-2 31.5v330h-85zM195 712h111l-123 -127h-39zM325 712h111
l-123 -127h-39z" />
    <glyph glyph-name="Uogonek" unicode="&#x172;" horiz-adv-x="720" 
d="M80 700v-430q0 -40 7.5 -87t34.5 -89t80.5 -71.5t145.5 -33.5l-30 -22q-27 -20 -49.5 -44t-22.5 -53q0 -34 23.5 -47t50.5 -13q23 0 45.5 8t38.5 20l-11 27q-10 -5 -25 -11t-29 -6q-21 0 -26.5 13t-5.5 19q0 30 26.5 58t60.5 51q60 3 105.5 24t77 55.5t47.5 79.5t16 96
v456h-44v-423q0 -22 -1 -44.5t-6 -45t-15.5 -44.5t-30.5 -44q-36 -39 -81 -53t-94 -14q-42 0 -74.5 13t-61.5 39q-23 20 -35 40t-18 39.5t-7 39.5t-1 40v457h-91z" />
    <glyph glyph-name="uogonek" unicode="&#x173;" horiz-adv-x="581" 
d="M450 0l-46 -33q-27 -20 -49.5 -44t-22.5 -53q0 -34 23.5 -47t50.5 -13q23 0 45.5 8t38.5 20l-11 27q-10 -5 -25 -11t-29 -6q-21 0 -26.5 13t-5.5 19q0 17 9 33t24 31.5t34 29.5t38 26v500h-85v-310q0 -39 -11 -67t-29 -46.5t-42 -27.5t-50 -9q-42 0 -65.5 16.5t-35 38.5
t-13.5 43.5t-2 31.5v330h-85v-325q0 -18 3.5 -49.5t20.5 -62t53.5 -53t102.5 -22.5q29 -1 63.5 11.5t69.5 47.5l16 16h4v-63h37z" />
    <glyph glyph-name="Wcircumflex" unicode="&#x174;" horiz-adv-x="1056" 
d="M30 700l248 -700h60l191 547h5l185 -547h59l248 700h-46l-207 -584h-4l-195 584h-43l-199 -581h-4l-206 581h-92zM527 828l11 -6.5t27.5 -16.5t36 -22t36 -22.5l27.5 -17.5l11 -7l25 31l-11 11t-27.5 27t-36 35t-36 35t-27.5 26.5l-11 10.5h-50l-11 -11t-27.5 -27
t-36 -35t-36 -35t-27.5 -27t-11 -10l24 -30l11.5 6.5t28 17t36 22t36 22t27.5 17z" />
    <glyph glyph-name="wcircumflex" unicode="&#x175;" horiz-adv-x="746" 
d="M20 500l173 -500h54l116 335h4l130 -335h47l182 500h-52l-136 -374h-4l-142 374h-20l-131 -377h-4l-130 377h-87zM372 628l11 -6.5t27.5 -16.5t36 -22t36 -22.5l27.5 -17.5l11 -7l25 31l-11 11t-27.5 27t-36 35t-36 35t-27.5 26.5l-11 10.5h-50l-11 -11t-27.5 -27
t-36 -35t-36 -35t-27.5 -27t-11 -10l24 -30l11.5 6.5t28 17t36 22t36 22t27.5 17z" />
    <glyph glyph-name="Ycircumflex" unicode="&#x176;" horiz-adv-x="639" 
d="M30 700l242 -435v-265h91v274l246 426h-54l-214 -369h-4l-204 369h-103zM319 828l11 -6.5t27.5 -16.5t36 -22t36 -22.5l27.5 -17.5l11 -7l25 31l-11 11t-27.5 27t-36 35t-36 35t-27.5 26.5l-11 10.5h-50l-11 -11t-27.5 -27t-36 -35t-36 -35t-27.5 -27t-11 -10l24 -30
l11.5 6.5t28 17t36 22t36 22t27.5 17z" />
    <glyph glyph-name="ycircumflex" unicode="&#x177;" horiz-adv-x="504" 
d="M274 117l-173 383h-91l224 -494l-53 -130q-9 -23 -23.5 -37t-33.5 -14q-18 0 -34.5 10.5t-25.5 30.5l-44 -83q19 -17 42 -25t43 -8q28 0 49 14t37 36.5t28 50t23 54.5l242 595h-49l-157 -383h-4zM251 628l11 -6.5t27.5 -16.5t36 -22t36 -22.5l27.5 -17.5l11 -7l25 31
l-11 11t-27.5 27t-36 35t-36 35t-27.5 26.5l-11 10.5h-50l-11 -11t-27.5 -27t-36 -35t-36 -35t-27.5 -27t-11 -10l24 -30l11.5 6.5t28 17t36 22t36 22t27.5 17z" />
    <glyph glyph-name="Ydieresis" unicode="&#x178;" horiz-adv-x="639" 
d="M30 700l242 -435v-265h91v274l246 426h-54l-214 -369h-4l-204 369h-103zM196 858q0 -22 16 -38t38 -16t38 16t16 38t-16 38t-38 16t-38 -16t-16 -38zM334 858q0 -22 16 -38t38 -16t38 16t16 38t-16 38t-38 16t-38 -16t-16 -38z" />
    <glyph glyph-name="Zacute" unicode="&#x179;" horiz-adv-x="666" 
d="M55 700v-55h423l-448 -645h606v55h-461l444 645h-564zM319 912h111l-155 -127h-39z" />
    <glyph glyph-name="zacute" unicode="&#x17a;" horiz-adv-x="490" 
d="M36 500v-40h301l-317 -460h437v40h-314l317 460h-424zM231 712h111l-155 -127h-39z" />
    <glyph glyph-name="Zdotaccent" unicode="&#x17b;" horiz-adv-x="666" 
d="M55 700v-55h423l-448 -645h606v55h-461l444 645h-564zM279 858q0 -22 16 -38t38 -16t38 16t16 38t-16 38t-38 16t-38 -16t-16 -38z" />
    <glyph glyph-name="zdotaccent" unicode="&#x17c;" horiz-adv-x="490" 
d="M36 500v-40h301l-317 -460h437v40h-314l317 460h-424zM191 658q0 -22 16 -38t38 -16t38 16t16 38t-16 38t-38 16t-38 -16t-16 -38z" />
    <glyph glyph-name="Zcaron" unicode="&#x17d;" horiz-adv-x="666" 
d="M55 700v-55h423l-448 -645h606v55h-461l444 645h-564zM332 821q0 -1 11 6t27.5 17t36 22t36 22.5l27.5 17.5l11 7l25 -31l-11 -11t-27.5 -27t-36 -35t-36 -35t-27.5 -26.5l-11 -10.5h-50l-11 11t-27.5 27t-36 35t-36 35t-27.5 26.5l-11 10.5l24 30l11.5 -6.5t28 -17
t36 -22t36 -22t27.5 -17z" />
    <glyph glyph-name="zcaron" unicode="&#x17e;" horiz-adv-x="490" 
d="M36 500v-40h301l-317 -460h437v40h-314l317 460h-424zM244 621q0 -1 11 6t27.5 17t36 22t36 22.5l27.5 17.5l11 7l25 -31l-11 -11t-27.5 -27t-36 -35t-36 -35t-27.5 -26.5l-11 -10.5h-50l-11 11t-27.5 27t-36 35t-36 35t-27.5 26.5l-11 10.5l24 30l11.5 -6.5t28 -17
t36 -22t36 -22t27.5 -17z" />
    <glyph glyph-name="longs" unicode="&#x17f;" horiz-adv-x="326" 
d="M261 692q-46 0 -67 -28.5t-21 -86.5v-577h-88v577q0 188 177 188q49 0 100 -19l-23 -69q-44 15 -78 15z" />
    <glyph glyph-name="uni0180" unicode="&#x180;" horiz-adv-x="615" 
d="M339 545q106 0 163.5 -73t57.5 -204q0 -133 -58.5 -205.5t-162.5 -72.5q-54 0 -96.5 19.5t-69.5 58.5h-7q-15 -59 -18 -68h-63v605h-76v66h76v89h88v-89h213v-66h-213v-30q0 -55 -5 -110h5q54 80 166 80zM324 472q-81 0 -116 -46t-35 -155v-4q0 -110 36 -157t117 -47
q72 0 107.5 53t35.5 153q0 102 -35.5 152.5t-109.5 50.5z" />
    <glyph glyph-name="uni0181" unicode="&#x181;" horiz-adv-x="729" 
d="M151 637q-61 0 -61 -50q0 -30 10 -54h-79q-4 10 -7.5 26.5t-3.5 28.5q0 65 34.5 95.5t106.5 30.5h230q144 0 207.5 -43t63.5 -134q0 -63 -34.5 -104.5t-101.5 -53.5v-5q82 -14 121 -57t39 -114q0 -96 -66 -149.5t-182 -53.5h-251v637h-26zM267 410h132q84 0 122 27t38 90
q0 59 -41.5 84.5t-132.5 25.5h-118v-227zM267 335v-259h144q86 0 127.5 33.5t41.5 100.5q0 64 -44 94.5t-132 30.5h-137z" />
    <glyph glyph-name="uni0182" unicode="&#x182;" horiz-adv-x="615" 
d="M211 645h336v55h-427v-700h230q79 0 129.5 18t79.5 46.5t40.5 63.5t11.5 70t-11.5 70t-41 63t-80 45.5t-128.5 17.5h-139v251zM211 42v308h132q39 0 70.5 -12t53 -33t33.5 -50.5t12 -63.5q0 -36 -14 -64t-36.5 -46.5t-52 -28.5t-60.5 -10h-138z" />
    <glyph glyph-name="uni0183" unicode="&#x183;" horiz-adv-x="615" 
d="M339 545q106 0 163.5 -73t57.5 -204q0 -133 -58.5 -205.5t-162.5 -72.5q-54 0 -96.5 19.5t-69.5 58.5h-7q-15 -59 -18 -68h-63v760h421v-74h-333v-111q0 -55 -5 -110h5q54 80 166 80zM324 472q-81 0 -116 -46t-35 -155v-4q0 -110 36 -157t117 -47q72 0 107.5 53t35.5 153
q0 102 -35.5 152.5t-109.5 50.5z" />
    <glyph glyph-name="uni0184" unicode="&#x184;" horiz-adv-x="634" 
d="M180 210q0 -77 37.5 -110t122.5 -33q80 0 115.5 35.5t35.5 102.5q0 69 -48 99t-140 30h-123v-124zM90 714h90v-302h134q129 0 199.5 -53t70.5 -154t-63.5 -158t-179.5 -57q-251 0 -251 220v504z" />
    <glyph glyph-name="uni0185" unicode="&#x185;" horiz-adv-x="611" 
d="M322 -10q-115 0 -177.5 72.5t-62.5 204.5v493h88v-185q0 -55 -5 -110h5q54 80 166 80q106 0 163.5 -73t57.5 -204q0 -134 -61 -206t-174 -72zM170 265q0 -96 40.5 -149t112.5 -53t107.5 53t35.5 153q0 102 -35.5 152.5t-109.5 50.5q-81 0 -116 -46t-35 -155v-6z" />
    <glyph glyph-name="uni0186" unicode="&#x186;" horiz-adv-x="631" 
d="M243 724q158 0 243 -96t85 -272q0 -110 -39.5 -192.5t-114.5 -128t-174 -45.5q-55 0 -98 6.5t-86 22.5v78q94 -28 170 -28q115 0 181 77t66 211q0 137 -63.5 212.5t-183.5 75.5q-77 0 -162 -39l-36 76q84 42 212 42z" />
    <glyph glyph-name="uni0187" unicode="&#x187;" horiz-adv-x="631" 
d="M403 645q-115 0 -181 -77t-66 -211q0 -138 64 -213t182 -75q76 0 171 28v-78q-45 -17 -87 -23t-97 -6q-158 0 -243 96t-85 272q0 110 41 193t118.5 128t183.5 45q61 0 117 -14v14q0 64 27 99t88 35q30 0 60 -13v-72q-24 10 -52 10q-47 0 -47 -48v-51l-36 -78
q-33 15 -71.5 27t-86.5 12z" />
    <glyph glyph-name="uni0188" unicode="&#x188;" horiz-adv-x="502" 
d="M300 -10q-116 0 -180.5 71t-64.5 204q0 135 65.5 208t185.5 73q27 0 65 -6v91q0 64 26.5 99t88.5 35q29 0 60 -13v-73q-23 10 -52 10q-47 0 -47 -48v-124l-27 -73q-68 25 -116 25q-81 0 -119.5 -51t-38.5 -152q0 -97 38.5 -148.5t114.5 -51.5q71 0 139 31v-78
q-55 -29 -138 -29z" />
    <glyph glyph-name="uni0189" unicode="&#x189;" horiz-adv-x="729" 
d="M10 371h110v329h230q83 0 152.5 -27t119 -74t77 -112t27.5 -140q0 -76 -29 -139.5t-78.5 -109.5t-115.5 -72t-141 -26h-242v331h-110v40zM211 44h110q82 0 139.5 28t94.5 72.5t54 99.5t17 109q0 61 -20 116t-58.5 96.5t-95.5 66t-131 24.5h-110v-285h112v-40h-112v-287z
" />
    <glyph glyph-name="uni018A" unicode="&#x18a;" horiz-adv-x="810" 
d="M654 361q0 136 -67 206t-203 70h-117v-560h97q290 0 290 284zM397 714q168 0 260 -92.5t92 -257.5q0 -177 -96.5 -270.5t-276.5 -93.5h-199v637h-26q-61 0 -61 -50q0 -30 10 -54h-79q-4 10 -7.5 26.5t-3.5 28.5q0 65 34.5 95.5t106.5 30.5h246z" />
    <glyph glyph-name="uni018B" unicode="&#x18b;" horiz-adv-x="615" 
d="M428 335h-82q-106 0 -154 -32t-48 -101q0 -63 44 -94t139 -31h101v258zM518 714v-714h-199q-268 0 -268 198q0 103 73.5 158.5t211.5 55.5h92v223h-334v79h424z" />
    <glyph glyph-name="uni018C" unicode="&#x18c;" horiz-adv-x="615" 
d="M289 63q80 0 117 43.5t37 143.5v16q0 112 -37.5 159.5t-117.5 47.5q-68 0 -105 -54t-37 -154t37 -151t106 -51zM530 0h-71l-13 72h-4q-56 -82 -167 -82q-104 0 -162 72.5t-58 204.5q0 131 58 205t163 74q108 0 166 -79h6q-1 10 -3.5 39.5t-2.5 39.5v140h-333v74h421v-760
z" />
    <glyph glyph-name="uni018D" unicode="&#x18d;" horiz-adv-x="604" 
d="M341 294q66 -38 95 -77t29 -87q0 -64 -48 -102t-132 -38q-51 0 -97 11.5t-109 42.5l38 69q37 -21 79 -36t93 -15q40 0 63.5 18.5t23.5 50.5q0 34 -26.5 60t-107.5 70q-104 57 -146 117t-42 136q0 115 66 180.5t184 65.5q112 0 179 -60.5t67 -163.5q0 -87 -54 -149.5
t-155 -92.5zM145 515q0 -62 30 -105.5t96 -77.5q92 22 139.5 74t47.5 131q0 67 -41.5 108.5t-112.5 41.5q-77 0 -118 -44.5t-41 -127.5z" />
    <glyph glyph-name="uni018E" unicode="&#x18e;" horiz-adv-x="556" 
d="M60 79h309v255h-291v78h291v223h-309v79h399v-714h-399v79z" />
    <glyph glyph-name="uni018F" unicode="&#x18f;" horiz-adv-x="738" 
d="M332 646q-110 0 -228 -41v82q61 21 114 29.5t116 8.5q162 0 252.5 -97.5t90.5 -271.5q0 -171 -85 -268.5t-237 -97.5q-147 0 -221.5 92t-74.5 275v34h523q-8 126 -71 190.5t-179 64.5zM355 69q100 0 159.5 63.5t67.5 179.5h-427q0 -125 49 -184t151 -59z" />
    <glyph glyph-name="uni0190" unicode="&#x190;" horiz-adv-x="587" 
d="M87 547q0 82 60.5 129.5t166.5 47.5q64 0 124 -18.5t109 -55.5l-43 -61q-52 36 -94 48.5t-94 12.5q-63 0 -99.5 -30.5t-36.5 -81.5q0 -60 48 -95.5t145 -35.5h97v-75h-102q-110 0 -165 -33t-55 -97q0 -67 48.5 -102.5t139.5 -35.5q105 0 214 52v-82q-90 -44 -219 -44
q-135 0 -206 52t-71 153q0 76 46.5 121t137.5 57v4q-72 12 -111.5 56.5t-39.5 113.5z" />
    <glyph glyph-name="uni0191" unicode="&#x191;" horiz-adv-x="519" 
d="M45 -240q-32 0 -56 13v76q21 -10 45 -10q35 0 49 20t14 62v793h399v-79h-309v-253h290v-79h-290v-386q0 -157 -142 -157z" />
    <glyph glyph-name="florin" unicode="&#x192;" horiz-adv-x="480" 
d="M96 -95q-5 -21 -11.5 -42.5t-16 -38t-22.5 -27t-31 -10.5q-20 0 -29 14t-14 36l-56 -38q17 -29 40.5 -38t53.5 -9q48 0 82 25.5t55 59.5t31 66t10 46l106 498h103l7 35h-102l21 102q2 11 6.5 27t12 30.5t19 24.5t27.5 10q10 0 17.5 -6t12.5 -15t8 -20t5 -21l54 49
q-17 23 -37 35t-50 12q-24 0 -49 -9t-47 -27t-39 -46t-26 -66l-18 -80h-74l-7 -35h74z" />
    <glyph glyph-name="uni0193" unicode="&#x193;" horiz-adv-x="728" 
d="M407 377h247v-350q-57 -18 -115.5 -27.5t-135.5 -9.5q-163 0 -252.5 97t-89.5 270q0 112 44.5 195.5t128 127.5t197.5 44q71 0 137 -17v17q0 64 27 99t88 35q29 0 60 -13v-72q-24 10 -52 10q-47 0 -47 -48v-53l-34 -78q-94 41 -184 41q-127 0 -199 -77t-72 -211
q0 -142 68.5 -215.5t200.5 -73.5q72 0 140 17v212h-157v80z" />
    <glyph glyph-name="uni0194" unicode="&#x194;" horiz-adv-x="569" 
d="M334 108q33 -65 50 -121t17 -94q0 -59 -32 -96t-84 -37q-54 0 -85 37.5t-31 95.5q0 78 67 214l-236 607h94q89 -237 136.5 -362t54.5 -167q10 51 50 158l140 371h95zM319 -105q0 26 -8.5 62t-25.5 68q-19 -38 -26.5 -72t-7.5 -56q0 -31 9.5 -45t24.5 -14q34 0 34 57z" />
    <glyph glyph-name="uni0195" unicode="&#x195;" horiz-adv-x="934" 
d="M639 63q67 0 96.5 36t29.5 113v324h88v-327q0 -114 -51 -166.5t-163 -52.5q-110 0 -162 48.5t-52 147.5v157q0 65 -26 97t-83 32q-74 0 -108.5 -45.5t-34.5 -149.5v-277h-88v760h88v-223q0 -44 -5 -75h6q24 42 66 62.5t90 20.5q91 0 137 -46.5t46 -149.5v-157
q0 -65 30.5 -97t95.5 -32z" />
    <glyph glyph-name="uni0196" unicode="&#x196;" horiz-adv-x="348" 
d="M179 714v-549q0 -48 18 -72t59 -24q21 0 44 3.5t38 7.5v-74q-13 -6 -40 -11t-55 -5q-80 0 -116.5 41.5t-36.5 125.5v557h89z" />
    <glyph glyph-name="uni0197" unicode="&#x197;" horiz-adv-x="338" 
d="M298 0h-258v52l84 19v256h-90v78h90v237l-84 20v52h258v-52l-84 -20v-237h90v-78h-90v-256l84 -19v-52z" />
    <glyph glyph-name="uni0198" unicode="&#x198;" horiz-adv-x="619" 
d="M327 405l292 -405h-106q-30 40 -121 172q-71 103 -126 170l-79 -77v-265h-90v714h90v-360q28 35 60 72q21 24 185 225q29 38 54.5 53.5t66.5 15.5q30 0 50 -8v-70q-21 3 -44 3q-17 0 -31.5 -10t-36.5 -36z" />
    <glyph glyph-name="uni0199" unicode="&#x199;" horiz-adv-x="534" 
d="M172 363l-4 -87h4l30 38l34 41l171 181h103l-217 -229l232 -307h-106l-186 250l-61 -53v-197h-87v625q0 140 121 140q33 0 65 -13v-73q-23 10 -52 10q-23 0 -35 -13t-12 -45v-268z" />
    <glyph glyph-name="uni019A" unicode="&#x19a;" horiz-adv-x="257" 
d="M173 420h70v-66h-70v-354h-88v354h-70v66h70v340h88v-340z" />
    <glyph glyph-name="uni019B" unicode="&#x19b;" horiz-adv-x="541" 
d="M-6 0l231 526l-23 64l-106 -32l-19 63l99 30q-13 22 -29.5 32t-45.5 10q-30 0 -56 -6v71q33 8 66 8q53 0 87 -21t59 -69l109 33l19 -63l-102 -32l179 -498q10 -28 21.5 -41t28.5 -13q12 0 30 5v-65q-24 -12 -57 -12q-36 0 -58 18t-38 63l-73 205q-42 119 -50 159h-4
q-16 -62 -55 -154l-122 -281h-91z" />
    <glyph glyph-name="uni019C" unicode="&#x19c;" horiz-adv-x="1029" 
d="M180 714v-506q0 -70 29 -105t92 -35q84 0 124.5 47t40.5 147v452h90v-506q0 -70 29 -105t94 -35q84 0 123.5 49.5t39.5 164.5v432h90v-714h-71l-15 82h-5q-25 -42 -74 -67t-107 -25q-68 0 -110.5 24.5t-64.5 75.5h-5q-28 -48 -79.5 -74t-113.5 -26q-103 0 -150 53
t-47 165v506h90z" />
    <glyph glyph-name="uni019D" unicode="&#x19d;" horiz-adv-x="759" 
d="M97 714h104l22 -35l235 -362l124 -194h4q-1 12 -4 84t-3 104v403h84v-714h-105l-382 593h-4l2 -40q6 -89 6 -154v-482q0 -83 -34 -120t-101 -37q-32 0 -56 13v76q21 -10 45 -10q35 0 49 20t14 62v793z" />
    <glyph glyph-name="uni019E" unicode="&#x19e;" horiz-adv-x="618" 
d="M450 -240v583q0 64 -28.5 96.5t-91.5 32.5q-83 0 -120 -46.5t-37 -147.5v-278h-88v536h71l13 -73h5q25 40 70 61.5t99 21.5q99 0 146.5 -48t47.5 -149v-589h-87z" />
    <glyph glyph-name="uni019F" unicode="&#x19f;" horiz-adv-x="782" 
d="M720 358q0 -171 -86.5 -269.5t-242.5 -98.5q-158 0 -244 96.5t-86 272.5q0 174 85.5 270t245.5 96q155 0 241.5 -97.5t86.5 -269.5zM391 68q108 0 167.5 65t65.5 192h-467q6 -127 65.5 -192t168.5 -65zM392 646q-106 0 -165.5 -61.5t-69.5 -181.5h466q-9 121 -67.5 182
t-163.5 61z" />
    <glyph glyph-name="Ohorn" unicode="&#x1a0;" horiz-adv-x="784" 
d="M719 358q0 -173 -86.5 -270.5t-241.5 -97.5q-158 0 -244 96t-86 273q0 176 86 271t245 95t247 -104q33 9 48.5 39.5t15.5 99.5h95l7 -11q-15 -78 -47.5 -120.5t-83.5 -61.5q45 -85 45 -209zM156 358q0 -142 59.5 -216t175.5 -74t174.5 73t58.5 217q0 143 -58.5 215.5
t-173.5 72.5q-118 0 -177 -73.5t-59 -214.5z" />
    <glyph glyph-name="ohorn" unicode="&#x1a1;" horiz-adv-x="616" 
d="M551 269q0 -131 -66.5 -205t-183.5 -74q-73 0 -129 34t-86.5 97.5t-30.5 147.5q0 131 65.5 204t183.5 73q53 0 97.5 -18t76.5 -51q24 7 38.5 23.5t21.5 41t7 76.5h94l7 -11q-16 -79 -46.5 -121.5t-82.5 -61.5q34 -69 34 -155zM146 269q0 -105 38.5 -155.5t118.5 -50.5
q83 0 120 52t37 154q0 100 -38 151.5t-120 51.5q-83 0 -119.5 -51.5t-36.5 -151.5z" />
    <glyph glyph-name="uni01A2" unicode="&#x1a2;" horiz-adv-x="1075" 
d="M688 358q0 -173 -82.5 -270.5t-230.5 -97.5q-150 0 -232 96.5t-82 272.5q0 174 82 270t233 96q142 0 224 -91q28 43 78 67t110 24q102 0 149.5 -52.5t47.5 -165.5v-507h-90v507q0 70 -29 105t-92 35q-53 0 -86.5 -15t-52.5 -46q53 -92 53 -228zM156 358q0 -142 56 -216
t163 -74t162.5 73t55.5 217q0 143 -55 215.5t-162 72.5q-108 0 -164 -73.5t-56 -214.5z" />
    <glyph glyph-name="uni01A3" unicode="&#x1a3;" horiz-adv-x="845" 
d="M526 269q0 -132 -63.5 -205.5t-173.5 -73.5q-69 0 -122.5 34t-82.5 98t-29 147q0 130 62.5 203.5t173.5 73.5q106 0 169 -72q26 37 64 54.5t80 17.5q80 0 120 -47t40 -150v-589h-87v585q0 127 -92 127q-63 0 -94 -44q35 -63 35 -159zM146 269q0 -101 36.5 -153.5
t107.5 -52.5t108 52t37 154q0 101 -37 152t-108 51q-144 0 -144 -203z" />
    <glyph glyph-name="uni01A4" unicode="&#x1a4;" horiz-adv-x="685" 
d="M267 355h72q106 0 154 34.5t48 110.5q0 69 -44.5 103t-138.5 34h-91v-282zM366 714q268 0 268 -210q0 -109 -74.5 -167.5t-210.5 -58.5h-82v-278h-90v637h-26q-61 0 -61 -50q0 -30 10 -54h-79q-4 10 -7.5 26.5t-3.5 28.5q0 65 34.5 95.5t106.5 30.5h215z" />
    <glyph glyph-name="uni01A5" unicode="&#x1a5;" horiz-adv-x="615" 
d="M207 765q33 0 65 -13v-73q-23 10 -52 10q-23 0 -35 -13t-12 -45v-80q0 -30 -4 -68l-2 -20h6q31 44 72 63.5t95 19.5q104 0 162 -72.5t58 -204.5q0 -131 -58 -205t-163 -74q-108 0 -166 78h-6l2 -20q4 -38 4 -68v-220h-88l1 865q0 140 121 140zM324 472q-80 0 -115 -45
t-36 -141v-17q0 -109 36 -157.5t117 -48.5q67 0 105 54.5t38 152.5t-38 150t-107 52z" />
    <glyph glyph-name="uni01A6" unicode="&#x1a6;" horiz-adv-x="622" 
d="M187 271h107q87 0 127 34t40 102q0 67 -40.5 98t-131.5 31h-102v-265zM187 195v-195h-90v714h90v-100h107q133 0 196.5 -50.5t63.5 -152.5q0 -142 -143 -191l196 -320h-105l-173 295h-142z" />
    <glyph glyph-name="uni01A7" unicode="&#x1a7;" horiz-adv-x="548" 
d="M47 191q0 48 20 84t61 63.5t124 58.5q68 25 98.5 44t44 42t13.5 58q0 49 -36 76.5t-99 27.5q-72 0 -154 -38l-28 77q85 40 180 40q102 0 165 -49.5t63 -132.5q0 -76 -41.5 -125.5t-142.5 -86.5q-78 -28 -113 -48t-50 -43t-15 -56q0 -54 40.5 -84.5t120.5 -30.5
q91 0 200 47v-86q-34 -17 -85 -28t-111 -11q-120 0 -187.5 54t-67.5 147z" />
    <glyph glyph-name="uni01A8" unicode="&#x1a8;" horiz-adv-x="479" 
d="M45 148q0 37 15 64t46.5 48.5t99.5 46.5q88 34 113 53t25 49t-28 47.5t-83 17.5q-50 0 -132 -34l-30 70q81 36 156 36q98 0 149.5 -36.5t51.5 -105.5q0 -37 -14.5 -63t-45 -47t-106.5 -50q-53 -20 -81 -35.5t-39.5 -31t-11.5 -37.5q0 -39 32 -59t95 -20q84 0 170 43v-80
q-62 -34 -168 -34q-214 0 -214 158z" />
    <glyph glyph-name="uni01A9" unicode="&#x1a9;" horiz-adv-x="569" 
d="M36 0v74l234 299l-228 266v75h475v-80h-325l-47 1l225 -261l-235 -296l163 1h248v-79h-510z" />
    <glyph glyph-name="uni01AA" unicode="&#x1aa;" horiz-adv-x="309" 
d="M67 542q-60 0 -91.5 29.5t-31.5 82.5q0 54 32.5 82.5t92.5 28.5q63 0 96.5 -36t33.5 -105v-696q0 -49 18 -72.5t59 -23.5q19 0 43.5 3t38.5 8v-67q-15 -7 -41.5 -11.5t-52.5 -4.5q-80 0 -116 41t-36 126v615h-45zM63 693q-21 0 -30 -12t-9 -27q0 -40 49 -40h39v13
q0 35 -12.5 50.5t-36.5 15.5z" />
    <glyph glyph-name="uni01AB" unicode="&#x1ab;" horiz-adv-x="360" 
d="M222 -240q-29 0 -60 12v73q22 -9 50 -9q48 0 48 52v102h-11q-157 0 -157 166v312h-76v42l77 35l35 114h52v-123h155v-68h-155v-310q0 -46 22.5 -71t61.5 -25q17 0 40 3.5t35 7.5v-180q0 -133 -117 -133z" />
    <glyph glyph-name="uni01AC" unicode="&#x1ac;" horiz-adv-x="576" 
d="M151 635q-61 0 -61 -48q0 -30 10 -54h-79q-4 10 -7.5 26.5t-3.5 28.5q0 65 34.5 95.5t106.5 30.5h414v-79h-222v-635h-90v635h-102z" />
    <glyph glyph-name="uni01AD" unicode="&#x1ad;" horiz-adv-x="360" 
d="M180 536h155v-68h-155v-310q0 -46 22.5 -71t61.5 -25q17 0 40 3.5t35 7.5v-67q-12 -5 -38 -10.5t-52 -5.5q-157 0 -157 166v312h-76v42l77 35v66q0 154 147 154q39 0 77 -13v-73q-11 4 -34.5 7t-42.5 3q-32 0 -46 -17t-14 -51v-85z" />
    <glyph glyph-name="uni01AE" unicode="&#x1ae;" horiz-adv-x="556" 
d="M233 635h-223v79h535v-79h-222v-714q0 -42 14.5 -62t48.5 -20q24 0 45 10v-76q-24 -13 -63 -13q-68 0 -101.5 37t-33.5 120v718z" />
    <glyph glyph-name="Uhorn" unicode="&#x1af;" horiz-adv-x="779" 
d="M640 714v-97q40 5 59 37t19 106h93l7 -11q-16 -90 -59 -135.5t-119 -58.5v-303q0 -125 -70.5 -193.5t-200.5 -68.5q-133 0 -206 70.5t-73 193.5v460h90v-464q0 -86 47.5 -134t143.5 -48q88 0 134 46.5t46 136.5v463h89z" />
    <glyph glyph-name="uhorn" unicode="&#x1b0;" horiz-adv-x="673" 
d="M168 535v-344q0 -65 29 -96.5t90 -31.5q83 0 120.5 46t37.5 148v278h88v-59q39 6 57 37.5t18 105.5h93l7 -11q-16 -93 -59 -139.5t-116 -54.5v-414h-72l-13 71h-4q-24 -39 -67.5 -60t-100.5 -21q-98 0 -147.5 46.5t-49.5 148.5v350h89z" />
    <glyph glyph-name="uni01B1" unicode="&#x1b1;" horiz-adv-x="782" 
d="M391 68q114 0 173 62t59 183q0 110 -40.5 189t-126.5 140v72h288v-79h-178q74 -57 113 -141t39 -184q0 -150 -87 -235.5t-240 -85.5q-155 0 -241.5 85t-86.5 235q0 100 39 185t112 141h-177v79h288v-72q-87 -62 -127.5 -142t-40.5 -187q0 -120 59.5 -182.5t174.5 -62.5z
" />
    <glyph glyph-name="uni01B2" unicode="&#x1b2;" horiz-adv-x="600" 
d="M571 580q0 -53 -45 -157l-181 -423h-90l-255 714h94l162 -466q31 -88 45 -156q8 30 27 73q21 50 32 81l85 203q36 88 36 125q0 39 -16 55t-47 16q-24 0 -45 -10v76q22 13 63 13q135 0 135 -144z" />
    <glyph glyph-name="uni01B3" unicode="&#x1b3;" horiz-adv-x="565" 
d="M39 649q-21 0 -39 -8v73q28 11 60 11q37 0 59.5 -17.5t40.5 -57.5l128 -287l181 351h97l-233 -437v-277h-90v273l-162 341q-18 35 -42 35z" />
    <glyph glyph-name="uni01B4" unicode="&#x1b4;" horiz-adv-x="541" 
d="M485 546q33 0 57 -12v-65q-18 5 -30 5q-18 0 -28.5 -13t-21.5 -41l-183 -494q-32 -87 -79 -126.5t-116 -39.5q-37 0 -73 8v70q24 -6 59 -6q85 0 121 95l26 71l-216 538h94l116 -305q37 -100 45 -146h4q8 36 48 147l76 217q19 54 41 75.5t60 21.5z" />
    <glyph glyph-name="uni01B5" unicode="&#x1b5;" horiz-adv-x="571" 
d="M79 407h184l151 227h-364v80h473v-68l-159 -239h122v-71h-169l-170 -256h386v-80h-495v68l178 268h-137v71z" />
    <glyph glyph-name="uni01B6" unicode="&#x1b6;" horiz-adv-x="470" 
d="M57 313h161l109 155h-271v68h368v-66l-111 -157h101v-70h-151l-123 -175h291v-68h-392v58l130 185h-112v70z" />
    <glyph glyph-name="uni01B7" unicode="&#x1b7;" horiz-adv-x="583" 
d="M291 440q68 -2 122.5 -30t85 -76.5t30.5 -112.5q0 -109 -76 -170t-212 -61q-126 0 -206 39v82q49 -23 104 -35t103 -12q97 0 145 41t48 117q0 69 -49.5 107t-143.5 38h-62v65l206 202h-331v80h444v-71z" />
    <glyph glyph-name="uni01B8" unicode="&#x1b8;" horiz-adv-x="583" 
d="M85 643v71h444v-80h-330l205 -202v-65h-78q-84 0 -130.5 -40.5t-46.5 -113.5q0 -71 49.5 -110t143.5 -39q49 0 103.5 11.5t103.5 35.5v-82q-45 -21 -98.5 -30t-119.5 -9q-87 0 -149 27t-94.5 77t-32.5 117q0 68 30 119t84.5 79.5t123.5 30.5z" />
    <glyph glyph-name="uni01B9" unicode="&#x1b9;" horiz-adv-x="498" 
d="M61 472v64h409v-74h-306l219 -243v-61h-59q-101 0 -151.5 -42.5t-50.5 -124.5q0 -71 47 -114.5t126 -43.5q100 0 189 42v-80q-68 -35 -196 -35q-113 0 -183.5 63t-70.5 166q0 105 64.5 168t181.5 71z" />
    <glyph glyph-name="uni01BA" unicode="&#x1ba;" horiz-adv-x="498" 
d="M216 -167q84 0 160 36v-80q-60 -29 -161 -29q-90 0 -138.5 31t-48.5 88q0 62 46.5 91.5t137.5 29.5q80 0 114.5 27.5t34.5 94.5q0 60 -44.5 88t-142.5 28h-59v61l183 163h-270v74h394v-64l-187 -164q104 -5 159 -51.5t55 -133.5q0 -95 -59.5 -145.5t-175.5 -50.5
q-53 0 -78 -10.5t-25 -37.5q0 -21 26.5 -33.5t78.5 -12.5z" />
    <glyph glyph-name="uni01BB" unicode="&#x1bb;" horiz-adv-x="569" 
d="M78 419h241q27 44 39 82t12 81q0 50 -29.5 78t-82.5 28q-45 0 -81.5 -16.5t-73.5 -49.5l-47 59q93 84 204 84q94 0 147.5 -48.5t53.5 -132.5q0 -42 -10.5 -81.5t-35.5 -83.5h100v-70h-144q-11 -16 -23.5 -32.5t-201.5 -242.5v-4h374v-70h-472v73l175 215l47 61h-192v70z
" />
    <glyph glyph-name="uni01BC" unicode="&#x1bc;" horiz-adv-x="583" 
d="M224 634v-193h42q77 0 137 -27t93 -76.5t33 -116.5q0 -109 -76 -170t-212 -61q-126 0 -206 39v82q49 -23 104 -35t103 -12q97 0 145 41t48 117q0 68 -47 106.5t-130 38.5h-124v267h-79v80h444v-80h-275z" />
    <glyph glyph-name="uni01BD" unicode="&#x1bd;" horiz-adv-x="490" 
d="M198 462v-117h23q107 0 165.5 -46.5t58.5 -135.5q0 -82 -60.5 -127.5t-168.5 -45.5q-118 0 -183 35v79q89 -42 182 -42q69 0 106 26.5t37 79.5t-37.5 79t-115.5 26h-95v189h-62v74h364v-74h-214z" />
    <glyph glyph-name="uni01BE" unicode="&#x1be;" horiz-adv-x="462" 
d="M136 378v90h-91v42l92 35l35 114h52v-123h155v-68h-155v-92q0 -34 10.5 -49.5t36.5 -24.5q83 -31 115 -66.5t32 -87.5q0 -75 -56 -116.5t-158 -41.5q-105 0 -168 34v80q86 -43 170 -43q66 0 96.5 21.5t30.5 57.5q0 29 -24 49.5t-90 47.5q-47 20 -65 52t-18 89z" />
    <glyph glyph-name="uni01BF" unicode="&#x1bf;" horiz-adv-x="586" 
d="M173 -240h-88v776h72l12 -73h4q55 83 158 83q96 0 152 -59t56 -164q0 -91 -45.5 -164.5t-130 -117.5t-190.5 -51v-230zM173 62q131 17 203 85.5t72 173.5q0 69 -36 110t-99 41q-73 0 -106.5 -44t-33.5 -142v-224z" />
    <glyph glyph-name="uni01C0" unicode="&#x1c0;" horiz-adv-x="516" 
d="M297 -240h-78v1000h78v-1000z" />
    <glyph glyph-name="uni01C1" unicode="&#x1c1;" horiz-adv-x="516" 
d="M169 -240h-78v1000h78v-1000zM426 -240h-78v1000h78v-1000z" />
    <glyph glyph-name="uni01C2" unicode="&#x1c2;" horiz-adv-x="516" 
d="M65 402h154v358h78v-358h154v-72h-154v-124h154v-72h-154v-374h-78v374h-154v72h154v124h-154v72z" />
    <glyph glyph-name="uni01C3" unicode="&#x1c3;" horiz-adv-x="269" 
d="M163 201h-57l-25 513h107zM72 54q0 32 16 49.5t46 17.5t46 -18t16 -49t-16.5 -49.5t-45.5 -18.5q-30 0 -46 18t-16 50z" />
    <glyph glyph-name="uni01C4" unicode="&#x1c4;" horiz-adv-x="1291" 
d="M874 786q0 -1 11 6t27.5 17t36 22t36 22.5l27.5 17.5l11 7l25 -31l-11 -11t-27.5 -27t-36 -35t-36 -35t-27.5 -26.5l-11 -10.5h-50l-11 11t-27.5 27t-36 35t-36 35t-27.5 26.5l-11 10.5l24 30l11.5 -6.5t28 -17t36 -22t36 -22t27.5 -17zM130 0v700h230q83 0 152 -26.5
t118.5 -73t77 -110.5t27.5 -138q0 -77 -28.5 -141.5t-78 -111.5t-115.5 -73t-141 -26h-242zM221 44h110q82 0 139.5 27.5t94.5 71.5t54 98.5t17 108.5q0 60 -20 115.5t-58.5 98t-95.5 67.5t-131 25h-110v-612zM775 700v-55h423l-448 -645h606v55h-461l444 645h-564z" />
    <glyph glyph-name="uni01C5" unicode="&#x1c5;" horiz-adv-x="1200" 
d="M847 621q0 -1 11 6t27.5 17t36 22t36 22.5l27.5 17.5l11 7l25 -31l-11 -11t-27.5 -27t-36 -35t-36 -35t-27.5 -26.5l-11 -10.5h-50l-11 11t-27.5 27t-36 35t-36 35t-27.5 26.5l-11 10.5l24 30l11.5 -6.5t28 -17t36 -22t36 -22t27.5 -17zM130 0v700h230q83 0 152 -26.5
t118.5 -73t77 -110.5t27.5 -138q0 -77 -28.5 -141.5t-78 -111.5t-115.5 -73t-141 -26h-242zM221 44h110q82 0 139.5 27.5t94.5 71.5t54 98.5t17 108.5q0 60 -20 115.5t-58.5 98t-95.5 67.5t-131 25h-110v-612zM766 500v-40h301l-317 -460h437v40h-314l317 460h-424z" />
    <glyph glyph-name="uni01C6" unicode="&#x1c6;" horiz-adv-x="1084" 
d="M734 621q0 -1 11 6t27.5 17t36 22t36 22.5l27.5 17.5l11 7l25 -31l-11 -11t-27.5 -27t-36 -35t-36 -35t-27.5 -26.5l-11 -10.5h-50l-11 11t-27.5 27t-36 35t-36 35t-27.5 26.5l-11 10.5l24 30l11.5 -6.5t28 -17t36 -22t36 -22t27.5 -17zM524 700h-85v-282h-4
q-10 26 -26.5 43.5t-37.5 28.5t-44.5 16t-47.5 5q-50 0 -92 -18.5t-72.5 -52.5t-47.5 -82t-17 -107q0 -60 17 -108.5t47.5 -83t72.5 -53t92 -18.5q118 0 156 93h4v-81h85v700zM439 200q0 -33 -11 -62.5t-29.5 -51t-44 -34t-54.5 -12.5q-32 0 -60 11.5t-49 36.5t-33.5 65
t-12.5 96q0 57 12.5 97t34 65.5t49.5 37t59 11.5q28 0 53 -11.5t44 -34t30.5 -54.5t11.5 -73v-87zM651 500v-40h301l-317 -460h437v40h-314l317 460h-424z" />
    <glyph glyph-name="uni01C7" unicode="&#x1c7;" horiz-adv-x="796" 
d="M120 0v700h91v-645h361v-55h-452zM835 700v-505q0 -24 -1.5 -52.5t-11.5 -53t-30.5 -41t-58.5 -16.5q-33 0 -54.5 12t-34 30t-18 38.5t-5.5 36.5h-87q2 -77 50 -119t144 -42q69 0 109 20.5t59.5 52t24.5 68.5t5 69v502h-91z" />
    <glyph glyph-name="uni01C8" unicode="&#x1c8;" horiz-adv-x="782" 
d="M120 0v700h91v-645h361v-55h-452zM637 500v-592q0 -23 -2 -44.5t-8.5 -38.5t-19 -27t-32.5 -10q-25 0 -37.5 12t-23.5 38l-50 -39q22 -29 51.5 -39t61.5 -10q22 0 47.5 8t47.5 30.5t36.5 62t14.5 102.5v547h-86zM627 658q0 -22 15.5 -38t38.5 -16q22 0 38 16t16 38
t-16 38t-38 16q-23 0 -38.5 -16t-15.5 -38z" />
    <glyph glyph-name="uni01C9" unicode="&#x1c9;" horiz-adv-x="516" 
d="M185 700h-85v-700h85v700zM371 500v-592q0 -23 -2 -44.5t-8.5 -38.5t-19 -27t-32.5 -10q-25 0 -37.5 12t-23.5 38l-50 -39q22 -29 51.5 -39t61.5 -10q22 0 47.5 8t47.5 30.5t36.5 62t14.5 102.5v547h-86zM361 658q0 -22 15.5 -38t38.5 -16q22 0 38 16t16 38t-16 38
t-38 16q-23 0 -38.5 -16t-15.5 -38z" />
    <glyph glyph-name="uni01CA" unicode="&#x1ca;" horiz-adv-x="1033" 
d="M684 700v-535h-4l-555 547h-5v-712h46v535h4l555 -547h5v712h-46zM1071 700v-505q0 -24 -1.5 -52.5t-11.5 -53t-30.5 -41t-58.5 -16.5q-33 0 -54.5 12t-34 30t-18 38.5t-5.5 36.5h-87q2 -77 50 -119t144 -42q69 0 109 20.5t59.5 52t24.5 68.5t5 69v502h-91z" />
    <glyph glyph-name="uni01CB" unicode="&#x1cb;" horiz-adv-x="1018" 
d="M684 700v-535h-4l-555 547h-5v-712h46v535h4l555 -547h5v712h-46zM873 500v-592q0 -23 -2 -44.5t-8.5 -38.5t-19 -27t-32.5 -10q-25 0 -37.5 12t-23.5 38l-50 -39q22 -29 51.5 -39t61.5 -10q22 0 47.5 8t47.5 30.5t36.5 62t14.5 102.5v547h-86zM863 658q0 -22 15.5 -38
t38.5 -16q22 0 38 16t16 38t-16 38t-38 16q-23 0 -38.5 -16t-15.5 -38z" />
    <glyph glyph-name="uni01CC" unicode="&#x1cc;" horiz-adv-x="875" 
d="M498 0v324q0 18 -3 49.5t-19.5 62t-52.5 53t-102 22.5q-29 1 -65 -11.5t-71 -47.5l-16 -16h-4v64h-85v-500h85v309q0 39 11 67t30 47t43.5 28t50.5 9q42 0 65 -16.5t33.5 -38.5t12.5 -44t2 -32v-329h85zM731 500v-592q0 -23 -2 -44.5t-8.5 -38.5t-19 -27t-32.5 -10
q-25 0 -37.5 12t-23.5 38l-50 -39q22 -29 51.5 -39t61.5 -10q22 0 47.5 8t47.5 30.5t36.5 62t14.5 102.5v547h-86zM721 658q0 -22 15.5 -38t38.5 -16q22 0 38 16t16 38t-16 38t-38 16q-23 0 -38.5 -16t-15.5 -38z" />
    <glyph glyph-name="uni01CD" unicode="&#x1cd;" horiz-adv-x="639" 
d="M197 799q0 -1 11 6t27.5 17t36 22t36 22.5l27.5 17.5l11 7l25 -31l-11 -11t-27.5 -27t-36 -35t-36 -35t-27.5 -26.5l-11 -10.5h-50l-11 11t-27.5 27t-36 35t-36 35t-27.5 26.5l-11 10.5l24 30l11.5 -6.5t28 -17t36 -22t36 -22t27.5 -17zM509 206l96 -206h97l-326 700h-50
l-296 -700h46l88 206h345zM488 251h-305l144 337h4z" />
    <glyph glyph-name="uni01CE" unicode="&#x1ce;" horiz-adv-x="561" 
d="M159 621q0 -1 11 6t27.5 17t36 22t36 22.5l27.5 17.5l11 7l25 -31l-11 -11t-27.5 -27t-36 -35t-36 -35t-27.5 -26.5l-11 -10.5h-50l-11 11t-27.5 27t-36 35t-36 35t-27.5 26.5l-11 10.5l24 30l11.5 -6.5t28 -17t36 -22t36 -22t27.5 -17zM264 511q73 0 113 -20.5
t58.5 -53.5t21.5 -76t3 -88v-273h-81v49q-29 -28 -74 -44.5t-90 -16.5q-43 0 -76 15t-55 39t-33 54t-11 61q0 32 12 64t36 57.5t59 41.5t80 16t85.5 -17.5t66.5 -49.5v43q0 82 -24.5 122t-89.5 40q-28 0 -49 -7t-37.5 -19.5t-30.5 -31t-28 -41.5l-52 52q14 15 29.5 30t38 27
t53.5 19.5t75 7.5zM379 198q-5 12 -14.5 28t-24.5 31t-36 25.5t-50 10.5t-53 -11.5t-40.5 -30t-25.5 -43.5t-9 -52q0 -32 11.5 -55.5t29.5 -40t40 -24.5t42 -8q19 0 38.5 7t37 19.5t31.5 29.5t23 37v77z" />
    <glyph glyph-name="uni01CF" unicode="&#x1cf;" horiz-adv-x="338" 
d="M49 799q0 -1 11 6t27.5 17t36 22t36 22.5l27.5 17.5l11 7l25 -31l-11 -11t-27.5 -27t-36 -35t-36 -35t-27.5 -26.5l-11 -10.5h-50l-11 11t-27.5 27t-36 35t-36 35t-27.5 26.5l-11 10.5l24 30l11.5 -6.5t28 -17t36 -22t36 -22t27.5 -17zM160 700v-700h91v700h-91z" />
    <glyph glyph-name="uni01D0" unicode="&#x1d0;" horiz-adv-x="257" 
d="M7 621q0 -1 11 6t27.5 17t36 22t36 22.5l27.5 17.5l11 7l25 -31l-11 -11t-27.5 -27t-36 -35t-36 -35t-27.5 -26.5l-11 -10.5h-50l-11 11t-27.5 27t-36 35t-36 35t-27.5 26.5l-11 10.5l24 30l11.5 -6.5t28 -17t36 -22t36 -22t27.5 -17zM112 500v-500h85v500h-85zM100 658
q0 -22 16 -38t38 -16t38 16t16 38t-16 38t-38 16t-38 -16t-16 -38z" />
    <glyph glyph-name="uni01D1" unicode="&#x1d1;" horiz-adv-x="780" 
d="M268 799q0 -1 11 6t27.5 17t36 22t36 22.5l27.5 17.5l11 7l25 -31l-11 -11t-27.5 -27t-36 -35t-36 -35t-27.5 -26.5l-11 -10.5h-50l-11 11t-27.5 27t-36 35t-36 35t-27.5 26.5l-11 10.5l24 30l11.5 -6.5t28 -17t36 -22t36 -22t27.5 -17zM50 350q0 -56 21.5 -119.5
t67.5 -117.5t117 -89.5t170 -35.5q67 0 121.5 16.5t98 44.5t75.5 64.5t52.5 77t31 81.5t10.5 78q0 56 -23 119.5t-71 117.5t-121.5 89.5t-173.5 35.5q-99 0 -170 -35t-117 -88.5t-67.5 -117.5t-21.5 -121zM148 350q0 70 21.5 128.5t59 100.5t88.5 65.5t111 23.5
q59 0 111.5 -23.5t92 -65.5t62.5 -100.5t23 -128.5t-23 -128.5t-62.5 -100.5t-92 -65.5t-111.5 -23.5q-60 0 -111 23.5t-88.5 65.5t-59 100.5t-21.5 128.5z" />
    <glyph glyph-name="uni01D2" unicode="&#x1d2;" horiz-adv-x="604" 
d="M180 621q0 -1 11 6t27.5 17t36 22t36 22.5l27.5 17.5l11 7l25 -31l-11 -11t-27.5 -27t-36 -35t-36 -35t-27.5 -26.5l-11 -10.5h-50l-11 11t-27.5 27t-36 35t-36 35t-27.5 26.5l-11 10.5l24 30l11.5 -6.5t28 -17t36 -22t36 -22t27.5 -17zM568 249q0 -52 -18 -99.5
t-51.5 -83.5t-81 -57t-106.5 -21q-60 0 -108.5 21.5t-82 57.5t-52 83.5t-18.5 98.5q0 52 18.5 99.5t52 83.5t82 57.5t108.5 21.5q59 0 106.5 -21.5t81 -57.5t51.5 -83.5t18 -99.5zM473 249q0 70 -15 113.5t-39 67.5t-53 32.5t-56 8.5t-56 -8.5t-53.5 -32.5t-40 -67.5
t-15.5 -113.5q0 -69 15.5 -112.5t40 -67.5t53.5 -32.5t56 -8.5t56 8.5t53 32.5t39 67.5t15 112.5z" />
    <glyph glyph-name="uni01D3" unicode="&#x1d3;" horiz-adv-x="730" 
d="M243 799q0 -1 11 6t27.5 17t36 22t36 22.5l27.5 17.5l11 7l25 -31l-11 -11t-27.5 -27t-36 -35t-36 -35t-27.5 -26.5l-11 -10.5h-50l-11 11t-27.5 27t-36 35t-36 35t-27.5 26.5l-11 10.5l24 30l11.5 -6.5t28 -17t36 -22t36 -22t27.5 -17zM80 700v-430q0 -41 8 -90.5
t38 -92t89 -71t161 -28.5q64 0 113.5 20t83 55t50.5 81.5t17 99.5v456h-44v-423q0 -22 -1 -44.5t-6 -45t-15.5 -44.5t-30.5 -44q-36 -39 -81 -53t-94 -14q-42 0 -74.5 13t-61.5 39q-23 20 -35 40t-18 39.5t-7 39.5t-1 40v457h-91z" />
    <glyph glyph-name="uni01D4" unicode="&#x1d4;" horiz-adv-x="618" 
d="M187 621q0 -1 11 6t27.5 17t36 22t36 22.5l27.5 17.5l11 7l25 -31l-11 -11t-27.5 -27t-36 -35t-36 -35t-27.5 -26.5l-11 -10.5h-50l-11 11t-27.5 27t-36 35t-36 35t-27.5 26.5l-11 10.5l24 30l11.5 -6.5t28 -17t36 -22t36 -22t27.5 -17zM80 500v-325q0 -18 3.5 -49.5
t20.5 -62t53.5 -53t102.5 -22.5q29 -1 63.5 11.5t69.5 47.5l16 16h4v-63h85v500h-85v-310q0 -39 -11 -67t-29 -46.5t-42 -27.5t-50 -9q-42 0 -65.5 16.5t-35 38.5t-13.5 43.5t-2 31.5v330h-85z" />
    <glyph glyph-name="uni01D5" unicode="&#x1d5;" horiz-adv-x="730" 
d="M508 815q0 -23 -12.5 -36t-34.5 -13t-34.5 13t-12.5 36q0 26 14 38t33 12q20 0 33.5 -12t13.5 -38zM320 815q0 -26 -13.5 -37.5t-32.5 -11.5q-22 0 -34.5 13t-12.5 36q0 26 14 38t33 12t32.5 -12t13.5 -38zM219 1001h297v-71h-297v71zM80 700v-430q0 -41 8 -90.5t38 -92
t89 -71t161 -28.5q64 0 113.5 20t83 55t50.5 81.5t17 99.5v456h-44v-423q0 -22 -1 -44.5t-6 -45t-15.5 -44.5t-30.5 -44q-36 -39 -81 -53t-94 -14q-42 0 -74.5 13t-61.5 39q-23 20 -35 40t-18 39.5t-7 39.5t-1 40v457h-91z" />
    <glyph glyph-name="uni01D6" unicode="&#x1d6;" horiz-adv-x="618" 
d="M447 650q0 -23 -12.5 -36t-34.5 -13t-34.5 13t-12.5 36q0 26 14 38t33 12q20 0 33.5 -12t13.5 -38zM259 650q0 -26 -13.5 -37.5t-32.5 -11.5q-22 0 -34.5 13t-12.5 36q0 26 14 38t33 12t32.5 -12t13.5 -38zM158 836h297v-71h-297v71zM80 500v-325q0 -18 3.5 -49.5
t20.5 -62t53.5 -53t102.5 -22.5q29 -1 63.5 11.5t69.5 47.5l16 16h4v-63h85v500h-85v-310q0 -39 -11 -67t-29 -46.5t-42 -27.5t-50 -9q-42 0 -65.5 16.5t-35 38.5t-13.5 43.5t-2 31.5v330h-85z" />
    <glyph glyph-name="uni01D7" unicode="&#x1d7;" horiz-adv-x="730" 
d="M499 815q0 -23 -12.5 -36t-34.5 -13t-34.5 13t-12.5 36q0 26 14 38t33 12q20 0 33.5 -12t13.5 -38zM311 815q0 -26 -13.5 -37.5t-32.5 -11.5q-22 0 -34.5 13t-12.5 36q0 26 14 38t33 12t32.5 -12t13.5 -38zM305 903q73 84 96 133h105v-10q-28 -43 -142 -135h-59v12z
M80 700v-430q0 -41 8 -90.5t38 -92t89 -71t161 -28.5q64 0 113.5 20t83 55t50.5 81.5t17 99.5v456h-44v-423q0 -22 -1 -44.5t-6 -45t-15.5 -44.5t-30.5 -44q-36 -39 -81 -53t-94 -14q-42 0 -74.5 13t-61.5 39q-23 20 -35 40t-18 39.5t-7 39.5t-1 40v457h-91z" />
    <glyph glyph-name="uni01D8" unicode="&#x1d8;" horiz-adv-x="618" 
d="M446 650q0 -23 -12.5 -36t-34.5 -13t-34.5 13t-12.5 36q0 26 14 38t33 12q20 0 33.5 -12t13.5 -38zM258 650q0 -26 -13.5 -37.5t-32.5 -11.5q-22 0 -34.5 13t-12.5 36q0 26 14 38t33 12t32.5 -12t13.5 -38zM252 738q73 84 96 133h105v-10q-28 -43 -142 -135h-59v12z
M80 500v-325q0 -18 3.5 -49.5t20.5 -62t53.5 -53t102.5 -22.5q29 -1 63.5 11.5t69.5 47.5l16 16h4v-63h85v500h-85v-310q0 -39 -11 -67t-29 -46.5t-42 -27.5t-50 -9q-42 0 -65.5 16.5t-35 38.5t-13.5 43.5t-2 31.5v330h-85z" />
    <glyph glyph-name="uni01D9" unicode="&#x1d9;" horiz-adv-x="730" 
d="M504 815q0 -23 -12.5 -36t-34.5 -13t-34.5 13t-12.5 36q0 26 14 38t33 12q20 0 33.5 -12t13.5 -38zM316 815q0 -26 -13.5 -37.5t-32.5 -11.5q-22 0 -34.5 13t-12.5 36q0 26 14 38t33 12t32.5 -12t13.5 -38zM195 1046h60q26 -17 54 -36t53 -46q27 27 55 46t54 36h62v-13
l-32 -31q-73 -69 -93 -106h-90q-21 36 -92 106l-31 31v13zM80 700v-430q0 -41 8 -90.5t38 -92t89 -71t161 -28.5q64 0 113.5 20t83 55t50.5 81.5t17 99.5v456h-44v-423q0 -22 -1 -44.5t-6 -45t-15.5 -44.5t-30.5 -44q-36 -39 -81 -53t-94 -14q-42 0 -74.5 13t-61.5 39
q-23 20 -35 40t-18 39.5t-7 39.5t-1 40v457h-91z" />
    <glyph glyph-name="uni01DA" unicode="&#x1da;" horiz-adv-x="618" 
d="M444 650q0 -23 -12.5 -36t-34.5 -13t-34.5 13t-12.5 36q0 26 14 38t33 12q20 0 33.5 -12t13.5 -38zM256 650q0 -26 -13.5 -37.5t-32.5 -11.5q-22 0 -34.5 13t-12.5 36q0 26 14 38t33 12t32.5 -12t13.5 -38zM135 881h60q26 -17 54 -36t53 -46q27 27 55 46t54 36h62v-13
l-32 -31q-73 -69 -93 -106h-90q-21 36 -92 106l-31 31v13zM80 500v-325q0 -18 3.5 -49.5t20.5 -62t53.5 -53t102.5 -22.5q29 -1 63.5 11.5t69.5 47.5l16 16h4v-63h85v500h-85v-310q0 -39 -11 -67t-29 -46.5t-42 -27.5t-50 -9q-42 0 -65.5 16.5t-35 38.5t-13.5 43.5t-2 31.5
v330h-85z" />
    <glyph glyph-name="uni01DB" unicode="&#x1db;" horiz-adv-x="730" 
d="M500 815q0 -23 -12.5 -36t-34.5 -13t-34.5 13t-12.5 36q0 26 14 38t33 12q20 0 33.5 -12t13.5 -38zM312 815q0 -26 -13.5 -37.5t-32.5 -11.5q-22 0 -34.5 13t-12.5 36q0 26 14 38t33 12t32.5 -12t13.5 -38zM414 891h-59q-114 91 -142 135v10h105q23 -49 96 -133v-12z
M80 700v-430q0 -41 8 -90.5t38 -92t89 -71t161 -28.5q64 0 113.5 20t83 55t50.5 81.5t17 99.5v456h-44v-423q0 -22 -1 -44.5t-6 -45t-15.5 -44.5t-30.5 -44q-36 -39 -81 -53t-94 -14q-42 0 -74.5 13t-61.5 39q-23 20 -35 40t-18 39.5t-7 39.5t-1 40v457h-91z" />
    <glyph glyph-name="uni01DC" unicode="&#x1dc;" horiz-adv-x="618" 
d="M447 650q0 -23 -12.5 -36t-34.5 -13t-34.5 13t-12.5 36q0 26 14 38t33 12q20 0 33.5 -12t13.5 -38zM259 650q0 -26 -13.5 -37.5t-32.5 -11.5q-22 0 -34.5 13t-12.5 36q0 26 14 38t33 12t32.5 -12t13.5 -38zM361 726h-59q-114 91 -142 135v10h105q23 -49 96 -133v-12z
M80 500v-325q0 -18 3.5 -49.5t20.5 -62t53.5 -53t102.5 -22.5q29 -1 63.5 11.5t69.5 47.5l16 16h4v-63h85v500h-85v-310q0 -39 -11 -67t-29 -46.5t-42 -27.5t-50 -9q-42 0 -65.5 16.5t-35 38.5t-13.5 43.5t-2 31.5v330h-85z" />
    <glyph glyph-name="uni01DD" unicode="&#x1dd;" horiz-adv-x="563" 
d="M251 546q121 0 189.5 -73t68.5 -201q0 -129 -64 -205.5t-173 -76.5q-101 0 -161 65.5t-60 176.5v53h367q-2 91 -46 138.5t-125 47.5q-43 0 -81.5 -7.5t-90.5 -29.5v77q44 19 83.5 27t92.5 8zM273 62q63 0 99.5 40.5t43.5 112.5h-273q1 -74 34.5 -113.5t95.5 -39.5z" />
    <glyph glyph-name="uni01DE" unicode="&#x1de;" horiz-adv-x="639" 
d="M460 815q0 -23 -12.5 -36t-34.5 -13t-34.5 13t-12.5 36q0 26 14 38t33 12q20 0 33.5 -12t13.5 -38zM272 815q0 -26 -13.5 -37.5t-32.5 -11.5q-22 0 -34.5 13t-12.5 36q0 26 14 38t33 12t32.5 -12t13.5 -38zM171 1001h297v-71h-297v71zM509 206l96 -206h97l-326 700h-50
l-296 -700h46l88 206h345zM488 251h-305l144 337h4z" />
    <glyph glyph-name="uni01DF" unicode="&#x1df;" horiz-adv-x="561" 
d="M426 650q0 -23 -12.5 -36t-34.5 -13t-34.5 13t-12.5 36q0 26 14 38t33 12q20 0 33.5 -12t13.5 -38zM238 650q0 -26 -13.5 -37.5t-32.5 -11.5q-22 0 -34.5 13t-12.5 36q0 26 14 38t33 12t32.5 -12t13.5 -38zM137 836h297v-71h-297v71zM264 511q73 0 113 -20.5t58.5 -53.5
t21.5 -76t3 -88v-273h-81v49q-29 -28 -74 -44.5t-90 -16.5q-43 0 -76 15t-55 39t-33 54t-11 61q0 32 12 64t36 57.5t59 41.5t80 16t85.5 -17.5t66.5 -49.5v43q0 82 -24.5 122t-89.5 40q-28 0 -49 -7t-37.5 -19.5t-30.5 -31t-28 -41.5l-52 52q14 15 29.5 30t38 27t53.5 19.5
t75 7.5zM379 198q-5 12 -14.5 28t-24.5 31t-36 25.5t-50 10.5t-53 -11.5t-40.5 -30t-25.5 -43.5t-9 -52q0 -32 11.5 -55.5t29.5 -40t40 -24.5t42 -8q19 0 38.5 7t37 19.5t31.5 29.5t23 37v77z" />
    <glyph glyph-name="uni01E0" unicode="&#x1e0;" horiz-adv-x="639" 
d="M269 826q0 29 15 42.5t37 13.5q23 0 37 -15t14 -41t-14.5 -41t-36.5 -15t-37 13.5t-15 42.5zM171 1001h297v-71h-297v71zM509 206l96 -206h97l-326 700h-50l-296 -700h46l88 206h345zM488 251h-305l144 337h4z" />
    <glyph glyph-name="uni01E1" unicode="&#x1e1;" horiz-adv-x="561" 
d="M235 662q0 29 15 42.5t37 13.5q23 0 37 -15t14 -41t-14.5 -41t-36.5 -15t-37 13.5t-15 42.5zM137 837h297v-71h-297v71zM264 511q73 0 113 -20.5t58.5 -53.5t21.5 -76t3 -88v-273h-81v49q-29 -28 -74 -44.5t-90 -16.5q-43 0 -76 15t-55 39t-33 54t-11 61q0 32 12 64
t36 57.5t59 41.5t80 16t85.5 -17.5t66.5 -49.5v43q0 82 -24.5 122t-89.5 40q-28 0 -49 -7t-37.5 -19.5t-30.5 -31t-28 -41.5l-52 52q14 15 29.5 30t38 27t53.5 19.5t75 7.5zM379 198q-5 12 -14.5 28t-24.5 31t-36 25.5t-50 10.5t-53 -11.5t-40.5 -30t-25.5 -43.5t-9 -52
q0 -32 11.5 -55.5t29.5 -40t40 -24.5t42 -8q19 0 38.5 7t37 19.5t31.5 29.5t23 37v77z" />
    <glyph glyph-name="uni01E2" unicode="&#x1e2;" horiz-adv-x="880" 
d="M347 842h297v-71h-297v71zM512 254h-265l265 396v-396zM512 209v-209h460v55h-369v295h300v44h-300v250h352v56h-465l-470 -700h58l139 209h295z" />
    <glyph glyph-name="uni01E3" unicode="&#x1e3;" horiz-adv-x="863" 
d="M283 677h297v-71h-297v71zM453 274q0 50 12.5 88t32.5 63.5t46 38.5t52 13q60 0 97.5 -51.5t37.5 -142.5v-9h-278zM374 116q-9 -21 -23 -36.5t-31 -26t-35 -15.5t-34 -5q-26 0 -48.5 10t-39 27.5t-26 41.5t-9.5 53q0 30 10 53.5t27 39t39.5 24t46.5 8.5q30 0 52 -10
t37 -23.5t23 -28t11 -24.5v-88zM453 239h369v17q0 77 -22.5 127t-56.5 78.5t-72.5 39.5t-71.5 11q-23 0 -48 -5t-48.5 -14.5t-43 -22.5t-31.5 -29q-38 44 -78 57.5t-92 13.5t-89 -11t-74 -39l30 -42q29 26 63 41.5t72 15.5q15 0 34 -4.5t36 -13t29.5 -22t14.5 -31.5v-132
q-18 21 -38 33t-40 18.5t-38 8.5t-31 2q-45 0 -80 -15.5t-58.5 -41t-35.5 -58.5t-12 -67q0 -30 11 -59.5t33 -53t55.5 -38.5t78.5 -15q52 0 103 23t90 75q15 -18 35 -35.5t45.5 -31.5t57.5 -22.5t71 -8.5q53 0 107 22.5t100 70.5l-29 30q-43 -45 -81 -63.5t-90 -18.5
q-36 0 -68 14.5t-56 41t-37.5 64.5t-13.5 86v4z" />
    <glyph glyph-name="uni01E4" unicode="&#x1e4;" horiz-adv-x="728" 
d="M407 377h247v-150h64v-71h-64v-129q-57 -18 -115.5 -27.5t-135.5 -9.5q-163 0 -252.5 97t-89.5 270q0 112 44.5 195.5t128 127.5t197.5 44t213 -42l-34 -78q-94 41 -184 41q-127 0 -199 -77t-72 -211q0 -142 68.5 -215.5t200.5 -73.5q72 0 140 17v71h-147v71h147v70h-157
v80z" />
    <glyph glyph-name="uni01E5" unicode="&#x1e5;" horiz-adv-x="615" 
d="M443 15l3 66h-4q-54 -81 -166 -81q-105 0 -163 71t-58 201q0 128 58 201t162 73q109 0 168 -81h5l12 71h70v-545q0 -20 -2 -37h57v-71h-72q-47 -123 -223 -123q-117 0 -193 34v81q78 -42 198 -42q77 0 117 50h-149v71h178l2 30v31zM289 72q83 0 119 42.5t36 136.5v16
q0 107 -37 156t-120 49q-68 0 -104.5 -50.5t-36.5 -150.5q0 -199 143 -199z" />
    <glyph glyph-name="Gcaron" unicode="&#x1e6;" horiz-adv-x="728" 
d="M295 786q0 -1 11 6t27.5 17t36 22t36 22.5l27.5 17.5l11 7l25 -31l-11 -11t-27.5 -27t-36 -35t-36 -35t-27.5 -26.5l-11 -10.5h-50l-11 11t-27.5 27t-36 35t-36 35t-27.5 26.5l-11 10.5l24 30l11.5 -6.5t28 -17t36 -22t36 -22t27.5 -17zM757 312h-198v-41h112v-181
q-45 -29 -92 -43t-107 -14q-79 0 -138 24t-98 66.5t-58.5 101t-19.5 128.5q0 69 18.5 127t55.5 100t90.5 65t124.5 23q47 0 88 -10t73 -26t52.5 -36.5t26.5 -41.5h72q-9 22 -30.5 49.5t-58.5 51.5t-91.5 40.5t-128.5 16.5q-85 0 -156.5 -24t-123.5 -69t-81 -110.5
t-29 -148.5q0 -71 22.5 -137.5t69 -119t118.5 -84t172 -31.5q75 0 133 16.5t96 36.5v-41h86v312z" />
    <glyph glyph-name="gcaron" unicode="&#x1e7;" horiz-adv-x="615" 
d="M185 621q0 -1 11 6t27.5 17t36 22t36 22.5l27.5 17.5l11 7l25 -31l-11 -11t-27.5 -27t-36 -35t-36 -35t-27.5 -26.5l-11 -10.5h-50l-11 11t-27.5 27t-36 35t-36 35t-27.5 26.5l-11 10.5l24 30l11.5 -6.5t28 -17t36 -22t36 -22t27.5 -17zM437 -42q0 -46 -11 -78t-30.5 -52
t-46 -29t-56.5 -9q-53 0 -85.5 27t-59.5 72l-55 -50q7 -9 22 -23.5t38 -29t55 -25t73 -10.5q76 0 123 21.5t73 57.5t35.5 82.5t9.5 96.5v491h-85v-78h-4q-12 42 -51.5 65.5t-103.5 23.5q-51 0 -93 -18.5t-72 -52.5t-46.5 -82t-16.5 -107q0 -60 16.5 -108.5t46.5 -83
t71.5 -53t92.5 -18.5q56 0 97.5 22t58.5 70h4v-122zM437 213q0 -42 -11.5 -74t-30.5 -54t-44 -33.5t-52 -11.5q-24 0 -51.5 8.5t-51 31.5t-39 65t-15.5 108q0 70 19 111.5t44.5 63.5t52 28.5t41.5 6.5q33 0 59 -14.5t43.5 -39t26.5 -56.5t9 -66v-74z" />
    <glyph glyph-name="uni01E8" unicode="&#x1e8;" horiz-adv-x="619" 
d="M211 786q0 -1 11 6t27.5 17t36 22t36 22.5l27.5 17.5l11 7l25 -31l-11 -11t-27.5 -27t-36 -35t-36 -35t-27.5 -26.5l-11 -10.5h-50l-11 11t-27.5 27t-36 35t-36 35t-27.5 26.5l-11 10.5l24 30l11.5 -6.5t28 -17t36 -22t36 -22t27.5 -17zM120 0h91v246l113 121l266 -367
h104l-312 429l254 271h-50l-375 -394v394h-91v-700z" />
    <glyph glyph-name="uni01E9" unicode="&#x1e9;" horiz-adv-x="534" 
d="M175 806q0 -1 11 6t27.5 17t36 22t36 22.5l27.5 17.5l11 7l25 -31l-11 -11t-27.5 -27t-36 -35t-36 -35t-27.5 -26.5l-11 -10.5h-50l-11 11t-27.5 27t-36 35t-36 35t-27.5 26.5l-11 10.5l24 30l11.5 -6.5t28 -17t36 -22t36 -22t27.5 -17zM165 700h-85v-700h85v188l58 59
l201 -247h112l-251 308l191 192h-65l-246 -248v448z" />
    <glyph glyph-name="uni01EA" unicode="&#x1ea;" horiz-adv-x="780" 
d="M429 0l-46 -33q-27 -20 -49.5 -44t-22.5 -53q0 -34 23.5 -47t50.5 -13q23 0 45.5 8t38.5 20l-11 27q-10 -5 -25 -11t-29 -6q-21 0 -26.5 13t-5.5 19q0 17 9 33t24 31.5t34 29.5t38 26h-48zM50 350q0 -56 21.5 -119.5t67.5 -117.5t117 -89.5t170 -35.5q67 0 121.5 16.5
t98 44.5t75.5 64.5t52.5 77t31 81.5t10.5 78q0 56 -23 119.5t-71 117.5t-121.5 89.5t-173.5 35.5q-99 0 -170 -35t-117 -88.5t-67.5 -117.5t-21.5 -121zM148 350q0 70 21.5 128.5t59 100.5t88.5 65.5t111 23.5q59 0 111.5 -23.5t92 -65.5t62.5 -100.5t23 -128.5t-23 -128.5
t-62.5 -100.5t-92 -65.5t-111.5 -23.5q-60 0 -111 23.5t-88.5 65.5t-59 100.5t-21.5 128.5z" />
    <glyph glyph-name="uni01EB" unicode="&#x1eb;" horiz-adv-x="604" 
d="M331 0l-46 -33q-27 -20 -49.5 -44t-22.5 -53q0 -34 23.5 -47t50.5 -13q23 0 45.5 8t38.5 20l-11 27q-10 -5 -25 -11t-29 -6q-21 0 -26.5 13t-5.5 19q0 17 9 33t24 31.5t34 29.5t38 26h-48zM568 249q0 -52 -18 -99.5t-51.5 -83.5t-81 -57t-106.5 -21q-60 0 -108.5 21.5
t-82 57.5t-52 83.5t-18.5 98.5q0 52 18.5 99.5t52 83.5t82 57.5t108.5 21.5q59 0 106.5 -21.5t81 -57.5t51.5 -83.5t18 -99.5zM473 249q0 70 -15 113.5t-39 67.5t-53 32.5t-56 8.5t-56 -8.5t-53.5 -32.5t-40 -67.5t-15.5 -113.5q0 -69 15.5 -112.5t40 -67.5t53.5 -32.5
t56 -8.5t56 8.5t53 32.5t39 67.5t15 112.5z" />
    <glyph glyph-name="uni01EC" unicode="&#x1ec;" horiz-adv-x="780" 
d="M429 0l-46 -33q-27 -20 -49.5 -44t-22.5 -53q0 -34 23.5 -47t50.5 -13q23 0 45.5 8t38.5 20l-11 27q-10 -5 -25 -11t-29 -6q-21 0 -26.5 13t-5.5 19q0 17 9 33t24 31.5t34 29.5t38 26h-48zM242 842h297v-71h-297v71zM50 350q0 -56 21.5 -119.5t67.5 -117.5t117 -89.5
t170 -35.5q67 0 121.5 16.5t98 44.5t75.5 64.5t52.5 77t31 81.5t10.5 78q0 56 -23 119.5t-71 117.5t-121.5 89.5t-173.5 35.5q-99 0 -170 -35t-117 -88.5t-67.5 -117.5t-21.5 -121zM148 350q0 70 21.5 128.5t59 100.5t88.5 65.5t111 23.5q59 0 111.5 -23.5t92 -65.5
t62.5 -100.5t23 -128.5t-23 -128.5t-62.5 -100.5t-92 -65.5t-111.5 -23.5q-60 0 -111 23.5t-88.5 65.5t-59 100.5t-21.5 128.5z" />
    <glyph glyph-name="uni01ED" unicode="&#x1ed;" horiz-adv-x="604" 
d="M331 0l-46 -33q-27 -20 -49.5 -44t-22.5 -53q0 -34 23.5 -47t50.5 -13q23 0 45.5 8t38.5 20l-11 27q-10 -5 -25 -11t-29 -6q-21 0 -26.5 13t-5.5 19q0 17 9 33t24 31.5t34 29.5t38 26h-48zM154 677h297v-71h-297v71zM568 249q0 -52 -18 -99.5t-51.5 -83.5t-81 -57
t-106.5 -21q-60 0 -108.5 21.5t-82 57.5t-52 83.5t-18.5 98.5q0 52 18.5 99.5t52 83.5t82 57.5t108.5 21.5q59 0 106.5 -21.5t81 -57.5t51.5 -83.5t18 -99.5zM473 249q0 70 -15 113.5t-39 67.5t-53 32.5t-56 8.5t-56 -8.5t-53.5 -32.5t-40 -67.5t-15.5 -113.5
q0 -69 15.5 -112.5t40 -67.5t53.5 -32.5t56 -8.5t56 8.5t53 32.5t39 67.5t15 112.5z" />
    <glyph glyph-name="uni01EE" unicode="&#x1ee;" horiz-adv-x="583" 
d="M150 786q0 -1 11 6t27.5 17t36 22t36 22.5l27.5 17.5l11 7l25 -31l-11 -11t-27.5 -27t-36 -35t-36 -35t-27.5 -26.5l-11 -10.5h-50l-11 11t-27.5 27t-36 35t-36 35t-27.5 26.5l-11 10.5l24 30l11.5 -6.5t28 -17t36 -22t36 -22t27.5 -17zM291 440q68 -2 122.5 -30
t85 -76.5t30.5 -112.5q0 -109 -76 -170t-212 -61q-126 0 -206 39v82q49 -23 104 -35t103 -12q97 0 145 41t48 117q0 69 -49.5 107t-143.5 38h-62v65l206 202h-331v80h444v-71z" />
    <glyph glyph-name="uni01EF" unicode="&#x1ef;" horiz-adv-x="498" 
d="M218 228q115 -8 180.5 -68.5t65.5 -158.5q0 -70 -33 -125.5t-93.5 -85.5t-138.5 -30q-117 0 -185 35v80q89 -42 189 -42q79 0 126 45t47 121q0 77 -51 118t-151 41h-59v61l219 243h-306v74h409v-64zM105 621q0 -1 11 6t27.5 17t36 22t36 22.5l27.5 17.5l11 7l25 -31
l-11 -11t-27.5 -27t-36 -35t-36 -35t-27.5 -26.5l-11 -10.5h-50l-11 11t-27.5 27t-36 35t-36 35t-27.5 26.5l-11 10.5l24 30l11.5 -6.5t28 -17t36 -22t36 -22t27.5 -17z" />
    <glyph glyph-name="uni01F0" unicode="&#x1f0;" horiz-adv-x="257" 
d="M7 621q0 -1 11 6t27.5 17t36 22t36 22.5l27.5 17.5l11 7l25 -31l-11 -11t-27.5 -27t-36 -35t-36 -35t-27.5 -26.5l-11 -10.5h-50l-11 11t-27.5 27t-36 35t-36 35t-27.5 26.5l-11 10.5l24 30l11.5 -6.5t28 -17t36 -22t36 -22t27.5 -17zM22 -240q-46 0 -77 12v71
q34 -10 66 -10q38 0 56 21t18 63v619h88v-616q0 -80 -38.5 -120t-112.5 -40z" />
    <glyph glyph-name="uni01F1" unicode="&#x1f1;" horiz-adv-x="1291" 
d="M130 0v700h230q83 0 152 -26.5t118.5 -73t77 -110.5t27.5 -138q0 -77 -28.5 -141.5t-78 -111.5t-115.5 -73t-141 -26h-242zM221 44h110q82 0 139.5 27.5t94.5 71.5t54 98.5t17 108.5q0 60 -20 115.5t-58.5 98t-95.5 67.5t-131 25h-110v-612zM775 700v-55h423l-448 -645
h606v55h-461l444 645h-564z" />
    <glyph glyph-name="uni01F2" unicode="&#x1f2;" horiz-adv-x="1200" 
d="M130 0v700h230q83 0 152 -26.5t118.5 -73t77 -110.5t27.5 -138q0 -77 -28.5 -141.5t-78 -111.5t-115.5 -73t-141 -26h-242zM221 44h110q82 0 139.5 27.5t94.5 71.5t54 98.5t17 108.5q0 60 -20 115.5t-58.5 98t-95.5 67.5t-131 25h-110v-612zM766 500v-40h301l-317 -460
h437v40h-314l317 460h-424z" />
    <glyph glyph-name="uni01F3" unicode="&#x1f3;" horiz-adv-x="1084" 
d="M524 700h-85v-282h-4q-10 26 -26.5 43.5t-37.5 28.5t-44.5 16t-47.5 5q-50 0 -92 -18.5t-72.5 -52.5t-47.5 -82t-17 -107q0 -60 17 -108.5t47.5 -83t72.5 -53t92 -18.5q118 0 156 93h4v-81h85v700zM439 200q0 -33 -11 -62.5t-29.5 -51t-44 -34t-54.5 -12.5
q-32 0 -60 11.5t-49 36.5t-33.5 65t-12.5 96q0 57 12.5 97t34 65.5t49.5 37t59 11.5q28 0 53 -11.5t44 -34t30.5 -54.5t11.5 -73v-87zM651 500v-40h301l-317 -460h437v40h-314l317 460h-424z" />
    <glyph glyph-name="uni01F4" unicode="&#x1f4;" horiz-adv-x="817" 
d="M757 312h-198v-41h112v-181q-45 -29 -92 -43t-107 -14q-79 0 -138 24t-98 66.5t-58.5 101t-19.5 128.5q0 69 18.5 127t55.5 100t90.5 65t124.5 23q47 0 88 -10t73 -26t52.5 -36.5t26.5 -41.5h72q-9 22 -30.5 49.5t-58.5 51.5t-91.5 40.5t-128.5 16.5q-85 0 -156.5 -24
t-123.5 -69t-81 -110.5t-29 -148.5q0 -71 22.5 -137.5t69 -119t118.5 -84t172 -31.5q75 0 133 16.5t96 36.5v-41h86v312zM394 912h111l-155 -127h-39z" />
    <glyph glyph-name="uni01F5" unicode="&#x1f5;" horiz-adv-x="602" 
d="M437 -42q0 -46 -11 -78t-30.5 -52t-46 -29t-56.5 -9q-53 0 -85.5 27t-59.5 72l-55 -50q7 -9 22 -23.5t38 -29t55 -25t73 -10.5q76 0 123 21.5t73 57.5t35.5 82.5t9.5 96.5v491h-85v-78h-4q-12 42 -51.5 65.5t-103.5 23.5q-51 0 -93 -18.5t-72 -52.5t-46.5 -82t-16.5 -107
q0 -60 16.5 -108.5t46.5 -83t71.5 -53t92.5 -18.5q56 0 97.5 22t58.5 70h4v-122zM437 213q0 -42 -11.5 -74t-30.5 -54t-44 -33.5t-52 -11.5q-24 0 -51.5 8.5t-51 31.5t-39 65t-15.5 108q0 70 19 111.5t44.5 63.5t52 28.5t41.5 6.5q33 0 59 -14.5t43.5 -39t26.5 -56.5t9 -66
v-74zM287 712h111l-155 -127h-39z" />
    <glyph glyph-name="uni01F6" unicode="&#x1f6;" horiz-adv-x="937" 
d="M187 333v-333h-90v714h90v-302h296v302h90v-550q0 -45 23 -70t70 -25q44 0 68 25t24 71v371h90v-371q0 -81 -49 -127.5t-136 -46.5q-85 0 -132.5 46t-47.5 129v167h-296z" />
    <glyph glyph-name="uni01F7" unicode="&#x1f7;" horiz-adv-x="661" 
d="M389 725q103 0 160 -64t57 -179q0 -161 -106.5 -284.5t-312.5 -207.5v-230h-90v955h71l15 -97h5q37 55 86.5 81t114.5 26zM187 74q161 67 245 171.5t84 235.5q0 81 -37 123.5t-106 42.5q-94 0 -140 -55.5t-46 -173.5v-344z" />
    <glyph glyph-name="uni01F8" unicode="&#x1f8;" horiz-adv-x="759" 
d="M684 700v-535h-4l-555 547h-5v-712h46v535h4l555 -547h5v712h-46zM177 877h-111l155 -127h39z" />
    <glyph glyph-name="uni01F9" unicode="&#x1f9;" horiz-adv-x="618" 
d="M498 0v324q0 18 -3 49.5t-19.5 62t-52.5 53t-102 22.5q-29 1 -65 -11.5t-71 -47.5l-16 -16h-4v64h-85v-500h85v309q0 39 11 67t30 47t43.5 28t50.5 9q42 0 65 -16.5t33.5 -38.5t12.5 -44t2 -32v-329h85zM116 712h-111l155 -127h39z" />
    <glyph glyph-name="Aringacute" unicode="&#x1fa;" horiz-adv-x="640" 
d="M430 699q0 -32 -13 -54.5t-35 -35.5l258 -609h-93l-82 192h-295l-78 -192h-92l258 608q-49 26 -49 90q0 48 29.5 77t79.5 29t81 -29.5t31 -75.5zM439 272l-84 207q-13 30 -36 101q-15 -52 -35 -103l-83 -205h238zM271 838q28 33 51 67t34 53h106v-8q-15 -21 -58 -60.5
t-74 -60.5h-59v9zM374 698q0 27 -15.5 41.5t-40.5 14.5q-24 0 -40 -14.5t-16 -41.5q0 -26 14.5 -41t41.5 -15q25 0 40.5 14.5t15.5 41.5z" />
    <glyph glyph-name="aringacute" unicode="&#x1fb;" horiz-adv-x="561" 
d="M416 0l-17 76h-4q-40 -50 -80 -68t-100 -18q-79 0 -124 41.5t-45 117.5q0 163 257 171l91 3v32q0 61 -26.5 90t-84.5 29q-42 0 -80 -12.5t-71 -28.5l-27 66q41 21 88.5 33.5t94.5 12.5q97 0 144.5 -43t47.5 -137v-365h-64zM235 61q74 0 116 40t42 113v48l-79 -3
q-92 -3 -134.5 -29t-42.5 -82q0 -42 26 -64.5t72 -22.5zM396 713q0 -49 -30.5 -78t-80.5 -29t-79.5 29t-29.5 77q0 47 29 76t80 29q49 0 80 -29t31 -75zM341 712q0 26 -16 41t-40 15t-40 -15t-16 -41t14.5 -41t41.5 -15q25 0 40.5 15t15.5 41zM230 856v8q22 21 48 50t37 44
h131v-6q-10 -12 -50.5 -37.5t-102.5 -58.5h-63z" />
    <glyph glyph-name="AEacute" unicode="&#x1fc;" horiz-adv-x="880" 
d="M512 254h-265l265 396v-396zM512 209v-209h460v55h-369v295h300v44h-300v250h352v56h-465l-470 -700h58l139 209h295zM374 877h111l-155 -127h-39z" />
    <glyph glyph-name="aeacute" unicode="&#x1fd;" horiz-adv-x="863" 
d="M453 274q0 50 12.5 88t32.5 63.5t46 38.5t52 13q60 0 97.5 -51.5t37.5 -142.5v-9h-278zM374 116q-9 -21 -23 -36.5t-31 -26t-35 -15.5t-34 -5q-26 0 -48.5 10t-39 27.5t-26 41.5t-9.5 53q0 30 10 53.5t27 39t39.5 24t46.5 8.5q30 0 52 -10t37 -23.5t23 -28t11 -24.5v-88z
M453 239h369v17q0 77 -22.5 127t-56.5 78.5t-72.5 39.5t-71.5 11q-23 0 -48 -5t-48.5 -14.5t-43 -22.5t-31.5 -29q-38 44 -78 57.5t-92 13.5t-89 -11t-74 -39l30 -42q29 26 63 41.5t72 15.5q15 0 34 -4.5t36 -13t29.5 -22t14.5 -31.5v-132q-18 21 -38 33t-40 18.5t-38 8.5
t-31 2q-45 0 -80 -15.5t-58.5 -41t-35.5 -58.5t-12 -67q0 -30 11 -59.5t33 -53t55.5 -38.5t78.5 -15q52 0 103 23t90 75q15 -18 35 -35.5t45.5 -31.5t57.5 -22.5t71 -8.5q53 0 107 22.5t100 70.5l-29 30q-43 -45 -81 -63.5t-90 -18.5q-36 0 -68 14.5t-56 41t-37.5 64.5
t-13.5 86v4zM276 712h111l-155 -127h-39z" />
    <glyph glyph-name="Oslashacute" unicode="&#x1fe;" horiz-adv-x="780" 
d="M595 712l-18 -34q-64 22 -141 22q-99 0 -170 -34t-117 -86.5t-67.5 -115.5t-21.5 -120q0 -39 10.5 -82t32 -84t54.5 -77.5t79 -62.5l-26 -50h69l13 24q32 -11 67 -17.5t77 -6.5q67 0 121 16t96 43.5t73 63t51 75t29.5 80.5t9.5 78q0 39 -10.5 82.5t-33 85t-57 78
t-81.5 62.5l32 60h-71zM718 344q0 -70 -21.5 -127.5t-59.5 -99t-89 -64t-110 -22.5q-67 0 -121 27l288 541q52 -41 82.5 -106t30.5 -149zM158 344q0 70 21.5 127.5t59 98.5t88.5 63.5t111 22.5q59 0 114 -25l-287 -539q-50 42 -78.5 106t-28.5 146zM221 877h111l-155 -127
h-39z" />
    <glyph glyph-name="oslashacute" unicode="&#x1ff;" horiz-adv-x="604" 
d="M425 512l-10 -19q-23 8 -47 13t-51 5q-59 0 -106.5 -21.5t-81 -57.5t-51.5 -83.5t-18 -99.5q0 -64 26.5 -119.5t74.5 -91.5l-28 -50h65l12 21q23 -10 50 -15.5t57 -5.5q60 0 108.5 21.5t82 57.5t52 83.5t18.5 98.5q0 66 -29 123.5t-83 93.5l26 46h-67zM483 249
q0 -69 -15.5 -113t-40 -69t-53.5 -34.5t-56 -9.5q-22 0 -44.5 5t-42.5 19l208 371q20 -26 32 -67t12 -102zM155 249q0 70 15 114t39 69t53 34.5t56 9.5q18 0 37.5 -4t38.5 -15l-204 -366q-16 26 -25.5 64.5t-9.5 93.5zM126 712h111l-155 -127h-39z" />
    <glyph glyph-name="uni0200" unicode="&#x200;" horiz-adv-x="639" 
d="M449 771h-50q-29 23 -72 72t-61 78v10h97q14 -30 38 -72.5t48 -75.5v-12zM273 771h-50q-32 25 -74.5 74t-58.5 76v10h97q14 -30 38 -72.5t48 -75.5v-12zM509 206l96 -206h97l-326 700h-50l-296 -700h46l88 206h345zM488 251h-305l144 337h4z" />
    <glyph glyph-name="uni0201" unicode="&#x201;" horiz-adv-x="561" 
d="M415 606h-50q-29 23 -72 72t-61 78v10h97q14 -30 38 -72.5t48 -75.5v-12zM239 606h-50q-32 25 -74.5 74t-58.5 76v10h97q14 -30 38 -72.5t48 -75.5v-12zM264 511q73 0 113 -20.5t58.5 -53.5t21.5 -76t3 -88v-273h-81v49q-29 -28 -74 -44.5t-90 -16.5q-43 0 -76 15t-55 39
t-33 54t-11 61q0 32 12 64t36 57.5t59 41.5t80 16t85.5 -17.5t66.5 -49.5v43q0 82 -24.5 122t-89.5 40q-28 0 -49 -7t-37.5 -19.5t-30.5 -31t-28 -41.5l-52 52q14 15 29.5 30t38 27t53.5 19.5t75 7.5zM379 198q-5 12 -14.5 28t-24.5 31t-36 25.5t-50 10.5t-53 -11.5
t-40.5 -30t-25.5 -43.5t-9 -52q0 -32 11.5 -55.5t29.5 -40t40 -24.5t42 -8q19 0 38.5 7t37 19.5t31.5 29.5t23 37v77z" />
    <glyph glyph-name="uni0202" unicode="&#x202;" horiz-adv-x="639" 
d="M322 905q69 0 108.5 -33.5t44.5 -100.5h-54q-4 36 -25 49.5t-76 13.5q-50 0 -73.5 -15.5t-27.5 -47.5h-55q5 63 47.5 98.5t110.5 35.5zM509 206l96 -206h97l-326 700h-50l-296 -700h46l88 206h345zM488 251h-305l144 337h4z" />
    <glyph glyph-name="uni0203" unicode="&#x203;" horiz-adv-x="561" 
d="M293 740q69 0 108.5 -33.5t44.5 -100.5h-54q-4 36 -25 49.5t-76 13.5q-50 0 -73.5 -15.5t-27.5 -47.5h-55q5 63 47.5 98.5t110.5 35.5zM264 511q73 0 113 -20.5t58.5 -53.5t21.5 -76t3 -88v-273h-81v49q-29 -28 -74 -44.5t-90 -16.5q-43 0 -76 15t-55 39t-33 54t-11 61
q0 32 12 64t36 57.5t59 41.5t80 16t85.5 -17.5t66.5 -49.5v43q0 82 -24.5 122t-89.5 40q-28 0 -49 -7t-37.5 -19.5t-30.5 -31t-28 -41.5l-52 52q14 15 29.5 30t38 27t53.5 19.5t75 7.5zM379 198q-5 12 -14.5 28t-24.5 31t-36 25.5t-50 10.5t-53 -11.5t-40.5 -30t-25.5 -43.5
t-9 -52q0 -32 11.5 -55.5t29.5 -40t40 -24.5t42 -8q19 0 38.5 7t37 19.5t31.5 29.5t23 37v77z" />
    <glyph glyph-name="uni0204" unicode="&#x204;" horiz-adv-x="556" 
d="M437 771h-50q-29 23 -72 72t-61 78v10h97q14 -30 38 -72.5t48 -75.5v-12zM261 771h-50q-32 25 -74.5 74t-58.5 76v10h97q14 -30 38 -72.5t48 -75.5v-12zM120 700v-700h452v55h-361v293h310v46h-310v251h361v55h-452z" />
    <glyph glyph-name="uni0205" unicode="&#x205;" horiz-adv-x="563" 
d="M431 606h-50q-29 23 -72 72t-61 78v10h97q14 -30 38 -72.5t48 -75.5v-12zM255 606h-50q-32 25 -74.5 74t-58.5 76v10h97q14 -30 38 -72.5t48 -75.5v-12zM524 228v21q0 67 -19 116t-51.5 81t-75.5 48t-91 16q-51 0 -94 -17.5t-75 -51t-50 -81t-18 -107.5q0 -50 15.5 -97.5
t47 -85t80 -60t114.5 -22.5q64 0 118 22.5t94 64.5l-32 32q-21 -18 -39.5 -33t-37.5 -25t-39.5 -15.5t-45.5 -5.5q-28 0 -59.5 8.5t-58.5 30.5t-45 61t-18 100h380zM144 268q0 40 8.5 77.5t26 66.5t44.5 46.5t64 17.5q71 0 110.5 -55.5t39.5 -152.5h-293z" />
    <glyph glyph-name="uni0206" unicode="&#x206;" horiz-adv-x="556" 
d="M300 905q69 0 108.5 -33.5t44.5 -100.5h-54q-4 36 -25 49.5t-76 13.5q-50 0 -73.5 -15.5t-27.5 -47.5h-55q5 63 47.5 98.5t110.5 35.5zM120 700v-700h452v55h-361v293h310v46h-310v251h361v55h-452z" />
    <glyph glyph-name="uni0207" unicode="&#x207;" horiz-adv-x="563" 
d="M294 740q69 0 108.5 -33.5t44.5 -100.5h-54q-4 36 -25 49.5t-76 13.5q-50 0 -73.5 -15.5t-27.5 -47.5h-55q5 63 47.5 98.5t110.5 35.5zM524 228v21q0 67 -19 116t-51.5 81t-75.5 48t-91 16q-51 0 -94 -17.5t-75 -51t-50 -81t-18 -107.5q0 -50 15.5 -97.5t47 -85t80 -60
t114.5 -22.5q64 0 118 22.5t94 64.5l-32 32q-21 -18 -39.5 -33t-37.5 -25t-39.5 -15.5t-45.5 -5.5q-28 0 -59.5 8.5t-58.5 30.5t-45 61t-18 100h380zM144 268q0 40 8.5 77.5t26 66.5t44.5 46.5t64 17.5q71 0 110.5 -55.5t39.5 -152.5h-293z" />
    <glyph glyph-name="uni0208" unicode="&#x208;" horiz-adv-x="338" 
d="M299 771h-50q-29 23 -72 72t-61 78v10h97q14 -30 38 -72.5t48 -75.5v-12zM123 771h-50q-32 25 -74.5 74t-58.5 76v10h97q14 -30 38 -72.5t48 -75.5v-12zM160 700v-700h91v700h-91z" />
    <glyph glyph-name="uni0209" unicode="&#x209;" horiz-adv-x="257" 
d="M258 606h-50q-29 23 -72 72t-61 78v10h97q14 -30 38 -72.5t48 -75.5v-12zM82 606h-50q-32 25 -74.5 74t-58.5 76v10h97q14 -30 38 -72.5t48 -75.5v-12zM112 500v-500h85v500h-85zM100 658q0 -22 16 -38t38 -16t38 16t16 38t-16 38t-38 16t-38 -16t-16 -38z" />
    <glyph glyph-name="uni020A" unicode="&#x20a;" horiz-adv-x="338" 
d="M172 905q69 0 108.5 -33.5t44.5 -100.5h-54q-4 36 -25 49.5t-76 13.5q-50 0 -73.5 -15.5t-27.5 -47.5h-55q5 63 47.5 98.5t110.5 35.5zM160 700v-700h91v700h-91z" />
    <glyph glyph-name="uni020B" unicode="&#x20b;" horiz-adv-x="257" 
d="M131 740q69 0 108.5 -33.5t44.5 -100.5h-54q-4 36 -25 49.5t-76 13.5q-50 0 -73.5 -15.5t-27.5 -47.5h-55q5 63 47.5 98.5t110.5 35.5zM112 500v-500h85v500h-85zM100 658q0 -22 16 -38t38 -16t38 16t16 38t-16 38t-38 16t-38 -16t-16 -38z" />
    <glyph glyph-name="uni020C" unicode="&#x20c;" horiz-adv-x="780" 
d="M521 771h-50q-29 23 -72 72t-61 78v10h97q14 -30 38 -72.5t48 -75.5v-12zM345 771h-50q-32 25 -74.5 74t-58.5 76v10h97q14 -30 38 -72.5t48 -75.5v-12zM50 350q0 -56 21.5 -119.5t67.5 -117.5t117 -89.5t170 -35.5q67 0 121.5 16.5t98 44.5t75.5 64.5t52.5 77t31 81.5
t10.5 78q0 56 -23 119.5t-71 117.5t-121.5 89.5t-173.5 35.5q-99 0 -170 -35t-117 -88.5t-67.5 -117.5t-21.5 -121zM148 350q0 70 21.5 128.5t59 100.5t88.5 65.5t111 23.5q59 0 111.5 -23.5t92 -65.5t62.5 -100.5t23 -128.5t-23 -128.5t-62.5 -100.5t-92 -65.5
t-111.5 -23.5q-60 0 -111 23.5t-88.5 65.5t-59 100.5t-21.5 128.5z" />
    <glyph glyph-name="uni020D" unicode="&#x20d;" horiz-adv-x="604" 
d="M438 606h-50q-29 23 -72 72t-61 78v10h97q14 -30 38 -72.5t48 -75.5v-12zM262 606h-50q-32 25 -74.5 74t-58.5 76v10h97q14 -30 38 -72.5t48 -75.5v-12zM568 249q0 -52 -18 -99.5t-51.5 -83.5t-81 -57t-106.5 -21q-60 0 -108.5 21.5t-82 57.5t-52 83.5t-18.5 98.5
q0 52 18.5 99.5t52 83.5t82 57.5t108.5 21.5q59 0 106.5 -21.5t81 -57.5t51.5 -83.5t18 -99.5zM473 249q0 70 -15 113.5t-39 67.5t-53 32.5t-56 8.5t-56 -8.5t-53.5 -32.5t-40 -67.5t-15.5 -113.5q0 -69 15.5 -112.5t40 -67.5t53.5 -32.5t56 -8.5t56 8.5t53 32.5t39 67.5
t15 112.5z" />
    <glyph glyph-name="uni020E" unicode="&#x20e;" horiz-adv-x="780" 
d="M393 905q69 0 108.5 -33.5t44.5 -100.5h-54q-4 36 -25 49.5t-76 13.5q-50 0 -73.5 -15.5t-27.5 -47.5h-55q5 63 47.5 98.5t110.5 35.5zM50 350q0 -56 21.5 -119.5t67.5 -117.5t117 -89.5t170 -35.5q67 0 121.5 16.5t98 44.5t75.5 64.5t52.5 77t31 81.5t10.5 78
q0 56 -23 119.5t-71 117.5t-121.5 89.5t-173.5 35.5q-99 0 -170 -35t-117 -88.5t-67.5 -117.5t-21.5 -121zM148 350q0 70 21.5 128.5t59 100.5t88.5 65.5t111 23.5q59 0 111.5 -23.5t92 -65.5t62.5 -100.5t23 -128.5t-23 -128.5t-62.5 -100.5t-92 -65.5t-111.5 -23.5
q-60 0 -111 23.5t-88.5 65.5t-59 100.5t-21.5 128.5z" />
    <glyph glyph-name="uni020F" unicode="&#x20f;" horiz-adv-x="604" 
d="M305 740q69 0 108.5 -33.5t44.5 -100.5h-54q-4 36 -25 49.5t-76 13.5q-50 0 -73.5 -15.5t-27.5 -47.5h-55q5 63 47.5 98.5t110.5 35.5zM568 249q0 -52 -18 -99.5t-51.5 -83.5t-81 -57t-106.5 -21q-60 0 -108.5 21.5t-82 57.5t-52 83.5t-18.5 98.5q0 52 18.5 99.5t52 83.5
t82 57.5t108.5 21.5q59 0 106.5 -21.5t81 -57.5t51.5 -83.5t18 -99.5zM473 249q0 70 -15 113.5t-39 67.5t-53 32.5t-56 8.5t-56 -8.5t-53.5 -32.5t-40 -67.5t-15.5 -113.5q0 -69 15.5 -112.5t40 -67.5t53.5 -32.5t56 -8.5t56 8.5t53 32.5t39 67.5t15 112.5z" />
    <glyph glyph-name="uni0210" unicode="&#x210;" horiz-adv-x="622" 
d="M440 771h-50q-29 23 -72 72t-61 78v10h97q14 -30 38 -72.5t48 -75.5v-12zM264 771h-50q-32 25 -74.5 74t-58.5 76v10h97q14 -30 38 -72.5t48 -75.5v-12zM120 700v-700h91v309h44q28 0 46.5 -5t33.5 -17t28 -31t31 -47l79 -117q15 -23 29.5 -42t31.5 -32.5t38.5 -21.5
t51.5 -8q22 0 36 2t28 10v37q-5 -1 -10 -1.5t-10 -0.5q-21 0 -37 6t-30 17.5t-27 28t-27 37.5q-42 61 -65 97.5t-36.5 56.5t-22 29t-20.5 15l-10 5v4q48 3 82.5 21t56.5 45t32 58.5t10 61.5q0 27 -10.5 59t-36 59.5t-69.5 46t-111 18.5h-227zM211 656h101q38 0 68.5 -11
t52.5 -30.5t33.5 -46.5t11.5 -59q0 -27 -10.5 -54.5t-31.5 -50t-51.5 -36.5t-70.5 -14h-103v302z" />
    <glyph glyph-name="uni0211" unicode="&#x211;" horiz-adv-x="413" 
d="M376 606h-50q-29 23 -72 72t-61 78v10h97q14 -30 38 -72.5t48 -75.5v-12zM200 606h-50q-32 25 -74.5 74t-58.5 76v10h97q14 -30 38 -72.5t48 -75.5v-12zM80 500v-500h85v302q0 41 9.5 69.5t24.5 46.5t33 26t35 8q23 0 42.5 -15t28.5 -28l34 62q-9 12 -21.5 20t-25 12.5
t-23 6t-15.5 1.5q-42 0 -70 -23t-46 -68h-6v80h-85z" />
    <glyph glyph-name="uni0212" unicode="&#x212;" horiz-adv-x="622" 
d="M313 905q69 0 108.5 -33.5t44.5 -100.5h-54q-4 36 -25 49.5t-76 13.5q-50 0 -73.5 -15.5t-27.5 -47.5h-55q5 63 47.5 98.5t110.5 35.5zM120 700v-700h91v309h44q28 0 46.5 -5t33.5 -17t28 -31t31 -47l79 -117q15 -23 29.5 -42t31.5 -32.5t38.5 -21.5t51.5 -8q22 0 36 2
t28 10v37q-5 -1 -10 -1.5t-10 -0.5q-21 0 -37 6t-30 17.5t-27 28t-27 37.5q-42 61 -65 97.5t-36.5 56.5t-22 29t-20.5 15l-10 5v4q48 3 82.5 21t56.5 45t32 58.5t10 61.5q0 27 -10.5 59t-36 59.5t-69.5 46t-111 18.5h-227zM211 656h101q38 0 68.5 -11t52.5 -30.5t33.5 -46.5
t11.5 -59q0 -27 -10.5 -54.5t-31.5 -50t-51.5 -36.5t-70.5 -14h-103v302z" />
    <glyph glyph-name="uni0213" unicode="&#x213;" horiz-adv-x="413" 
d="M244 740q69 0 108.5 -33.5t44.5 -100.5h-54q-4 36 -25 49.5t-76 13.5q-50 0 -73.5 -15.5t-27.5 -47.5h-55q5 63 47.5 98.5t110.5 35.5zM80 500v-500h85v302q0 41 9.5 69.5t24.5 46.5t33 26t35 8q23 0 42.5 -15t28.5 -28l34 62q-9 12 -21.5 20t-25 12.5t-23 6t-15.5 1.5
q-42 0 -70 -23t-46 -68h-6v80h-85z" />
    <glyph glyph-name="uni0214" unicode="&#x214;" horiz-adv-x="730" 
d="M509 771h-50q-29 23 -72 72t-61 78v10h97q14 -30 38 -72.5t48 -75.5v-12zM333 771h-50q-32 25 -74.5 74t-58.5 76v10h97q14 -30 38 -72.5t48 -75.5v-12zM80 700v-430q0 -41 8 -90.5t38 -92t89 -71t161 -28.5q64 0 113.5 20t83 55t50.5 81.5t17 99.5v456h-44v-423
q0 -22 -1 -44.5t-6 -45t-15.5 -44.5t-30.5 -44q-36 -39 -81 -53t-94 -14q-42 0 -74.5 13t-61.5 39q-23 20 -35 40t-18 39.5t-7 39.5t-1 40v457h-91z" />
    <glyph glyph-name="uni0215" unicode="&#x215;" horiz-adv-x="618" 
d="M438 606h-50q-29 23 -72 72t-61 78v10h97q14 -30 38 -72.5t48 -75.5v-12zM262 606h-50q-32 25 -74.5 74t-58.5 76v10h97q14 -30 38 -72.5t48 -75.5v-12zM80 500v-325q0 -18 3.5 -49.5t20.5 -62t53.5 -53t102.5 -22.5q29 -1 63.5 11.5t69.5 47.5l16 16h4v-63h85v500h-85
v-310q0 -39 -11 -67t-29 -46.5t-42 -27.5t-50 -9q-42 0 -65.5 16.5t-35 38.5t-13.5 43.5t-2 31.5v330h-85z" />
    <glyph glyph-name="uni0216" unicode="&#x216;" horiz-adv-x="730" 
d="M368 905q69 0 108.5 -33.5t44.5 -100.5h-54q-4 36 -25 49.5t-76 13.5q-50 0 -73.5 -15.5t-27.5 -47.5h-55q5 63 47.5 98.5t110.5 35.5zM80 700v-430q0 -41 8 -90.5t38 -92t89 -71t161 -28.5q64 0 113.5 20t83 55t50.5 81.5t17 99.5v456h-44v-423q0 -22 -1 -44.5t-6 -45
t-15.5 -44.5t-30.5 -44q-36 -39 -81 -53t-94 -14q-42 0 -74.5 13t-61.5 39q-23 20 -35 40t-18 39.5t-7 39.5t-1 40v457h-91z" />
    <glyph glyph-name="uni0217" unicode="&#x217;" horiz-adv-x="618" 
d="M311 740q69 0 108.5 -33.5t44.5 -100.5h-54q-4 36 -25 49.5t-76 13.5q-50 0 -73.5 -15.5t-27.5 -47.5h-55q5 63 47.5 98.5t110.5 35.5zM80 500v-325q0 -18 3.5 -49.5t20.5 -62t53.5 -53t102.5 -22.5q29 -1 63.5 11.5t69.5 47.5l16 16h4v-63h85v500h-85v-310
q0 -39 -11 -67t-29 -46.5t-42 -27.5t-50 -9q-42 0 -65.5 16.5t-35 38.5t-13.5 43.5t-2 31.5v330h-85z" />
    <glyph glyph-name="uni0218" unicode="&#x218;" horiz-adv-x="625" 
d="M60 177q1 -42 21.5 -77t55 -60t81 -38.5t100.5 -13.5q120 0 188.5 53t68.5 149q0 65 -31 106.5t-77.5 68.5t-101 44.5t-101 36.5t-77.5 43.5t-31 65.5q0 22 10.5 42.5t31 36t51 25t69.5 9.5q64 0 102.5 -27.5t46.5 -86.5h79q-6 39 -27.5 68.5t-53 49.5t-70.5 30t-79 10
q-49 0 -91.5 -12t-74 -35.5t-49.5 -58.5t-18 -81q0 -66 30 -106t75.5 -64.5t98.5 -40.5t98.5 -34t75.5 -44.5t30 -72.5q0 -36 -12.5 -60.5t-35 -40.5t-54.5 -23t-70 -7q-49 0 -82 16.5t-53.5 39.5t-29.5 47.5t-10 41.5h-84zM371 -49h-94v-171h34z" />
    <glyph glyph-name="uni0219" unicode="&#x219;" horiz-adv-x="480" 
d="M405 386q0 27 -12.5 50t-35.5 39.5t-55 26t-71 9.5q-34 0 -63.5 -8.5t-51 -26.5t-34 -46.5t-12.5 -68.5q0 -36 21 -61t53 -44t68.5 -34t68.5 -30.5t53 -34t21 -44.5q0 -13 -5 -28t-17.5 -27.5t-35 -21t-57.5 -8.5t-58 12t-37 29t-20 35.5t-6 31.5h-69q0 -28 11.5 -54.5
t35 -47.5t59 -33.5t83.5 -12.5q51 0 87.5 10.5t59.5 30t33.5 45.5t10.5 58q0 42 -21.5 70.5t-54.5 48.5t-70.5 35t-70.5 29t-54.5 30.5t-21.5 40.5q0 13 4.5 28t15.5 28t30.5 21t48.5 8q32 0 53.5 -8.5t34 -21t18 -27.5t5.5 -28h58zM292 -49h-94v-171h34z" />
    <glyph glyph-name="uni021A" unicode="&#x21a;" horiz-adv-x="667" 
d="M379 0v645h268v55h-627v-55h268v-645h91zM382 -49h-94v-171h34z" />
    <glyph glyph-name="uni021B" unicode="&#x21b;" horiz-adv-x="375" 
d="M30 460v40h87v154h85v-154h121v-40h-121v-332q0 -12 1 -27.5t6 -29t15.5 -22.5t29.5 -9q24 0 40 18t26 39l47 -48q-49 -49 -111 -49q-26 0 -51 9t-44.5 27.5t-31.5 47.5t-12 68v308h-87zM292 -49h-94v-171h34z" />
    <glyph glyph-name="uni021C" unicode="&#x21c;" horiz-adv-x="587" 
d="M316 668q76 0 115.5 -37.5t39.5 -94.5q0 -15 -4.5 -39t-21.5 -47t-50.5 -39.5t-91.5 -16.5h-70v-44h70q45 0 82 -10t63.5 -29.5t41 -47.5t14.5 -63q0 -24 -8.5 -53.5t-29.5 -55t-57 -42.5t-91 -17q-54 0 -86 16.5t-49 39.5t-22.5 47.5t-6.5 41.5h-94q3 -94 63.5 -141.5
t187.5 -47.5q83 0 139.5 19t90.5 49t48.5 67t14.5 73q0 40 -15.5 72.5t-40.5 56t-57 36t-65 12.5h-7v4q31 0 57.5 13.5t45.5 36t29.5 51.5t10.5 59q0 32 -13 63.5t-42.5 56t-75.5 40t-112 15.5q-51 0 -93 -10t-72.5 -31t-48.5 -53t-19 -75h76q1 18 8.5 40t25 40.5t46.5 31.5
t74 13z" />
    <glyph glyph-name="uni021D" unicode="&#x21d;" horiz-adv-x="498" 
d="M193 228q70 0 111.5 35t41.5 90t-38.5 88t-103.5 33q-30 0 -60.5 -7.5t-72.5 -26.5l-30 70q44 21 83 28.5t85 7.5q103 0 162 -48t59 -133q0 -61 -31.5 -105t-95.5 -65q81 -21 121 -71t40 -123q0 -70 -33 -125.5t-93.5 -85.5t-138.5 -30q-116 0 -189 37v80
q44 -21 95 -32.5t98 -11.5q79 0 126 45t47 121q0 77 -51 118t-151 41h-79v70h98z" />
    <glyph glyph-name="uni021E" unicode="&#x21e;" horiz-adv-x="741" 
d="M248 786q0 -1 11 6t27.5 17t36 22t36 22.5l27.5 17.5l11 7l25 -31l-11 -11t-27.5 -27t-36 -35t-36 -35t-27.5 -26.5l-11 -10.5h-50l-11 11t-27.5 27t-36 35t-36 35t-27.5 26.5l-11 10.5l24 30l11.5 -6.5t28 -17t36 -22t36 -22t27.5 -17zM211 348h419v-348h91v700h-91
v-306h-419v306h-91v-700h91v348z" />
    <glyph glyph-name="uni021F" unicode="&#x21f;" horiz-adv-x="618" 
d="M212 806q0 -1 11 6t27.5 17t36 22t36 22.5l27.5 17.5l11 7l25 -31l-11 -11t-27.5 -27t-36 -35t-36 -35t-27.5 -26.5l-11 -10.5h-50l-11 11t-27.5 27t-36 35t-36 35t-27.5 26.5l-11 10.5l24 30l11.5 -6.5t28 -17t36 -22t36 -22t27.5 -17zM80 700v-700h85v289q0 20 3 49
t16.5 56t40.5 46.5t75 19.5q34 0 54.5 -12.5t31.5 -33.5t14.5 -49t3.5 -58v-307h85v330q0 56 -16 91.5t-40 55.5t-52.5 27t-54.5 7q-35 0 -73.5 -13.5t-72.5 -51.5l-11 -14h-4v268h-85z" />
    <glyph glyph-name="uni0220" unicode="&#x220;" horiz-adv-x="741" 
d="M392 647q-205 0 -205 -224v-423h-90v715h71l15 -92h5q32 45 93 73.5t122 28.5q247 0 247 -264v-701h-90v701q0 97 -41 141.5t-127 44.5z" />
    <glyph glyph-name="uni0221" unicode="&#x221;" horiz-adv-x="615" 
d="M530 -72q0 -52 12 -74t45 -22q36 0 57 11v-67q-23 -16 -76 -16q-126 0 -126 167v63q0 12 2.5 41t3.5 38h-6q-58 -79 -166 -79q-105 0 -163 73t-58 204t58 205t163 74q108 0 166 -79h6q-1 10 -3.5 39.5t-2.5 39.5v214h88v-832zM289 63q80 0 117 43.5t37 143.5v16
q0 112 -37.5 159.5t-117.5 47.5q-68 0 -105 -54t-37 -154t37 -151t106 -51z" />
    <glyph glyph-name="uni0222" unicode="&#x222;" horiz-adv-x="670" 
d="M335 470q74 0 113 41t39 115v88h90v-88q0 -145 -115 -193q74 -23 112.5 -74t38.5 -127q0 -112 -74.5 -177t-205.5 -65q-81 0 -143.5 29.5t-97 85t-34.5 127.5q0 157 149 202q-113 46 -113 192v88h90v-88q0 -74 39 -115t112 -41zM153 232q0 -82 46 -123t136 -41
t136.5 41.5t46.5 122.5q0 161 -184 161q-181 0 -181 -161z" />
    <glyph glyph-name="uni0223" unicode="&#x223;" horiz-adv-x="604" 
d="M303 485q67 0 96.5 36t29.5 113v126h88v-129q0 -77 -23 -121t-74 -63q65 -25 98 -78t33 -130q0 -117 -67 -183t-183 -66q-111 0 -178.5 67.5t-67.5 181.5q0 162 130 209q-51 19 -73.5 63.5t-22.5 119.5v129h88v-126q0 -77 29.5 -113t96.5 -36zM146 239q0 -86 39.5 -131
t117.5 -45q77 0 117 44.5t40 131.5t-41 130t-117 43q-77 0 -116.5 -43.5t-39.5 -129.5z" />
    <glyph glyph-name="uni0224" unicode="&#x224;" horiz-adv-x="571" 
d="M416 -198q-29 0 -60 12v73q22 -9 50 -9q48 0 48 52v150h79v-145q0 -133 -117 -133zM55 700v-55h423l-448 -645h606v55h-461l444 645h-564z" />
    <glyph glyph-name="uni0225" unicode="&#x225;" horiz-adv-x="470" 
d="M431 -65q0 -133 -117 -133q-29 0 -60 12v73q22 -9 50 -9q48 0 48 52v70h-313v58l288 410h-271v68h368v-66l-284 -402h291v-133z" />
    <glyph glyph-name="uni0226" unicode="&#x226;" horiz-adv-x="639" 
d="M190 823q0 -22 16 -38t38 -16t38 16t16 38t-16 38t-38 16t-38 -16t-16 -38zM509 206l96 -206h97l-326 700h-50l-296 -700h46l88 206h345zM488 251h-305l144 337h4z" />
    <glyph glyph-name="uni0227" unicode="&#x227;" horiz-adv-x="561" 
d="M151 658q0 -22 16 -38t38 -16t38 16t16 38t-16 38t-38 16t-38 -16t-16 -38zM264 511q73 0 113 -20.5t58.5 -53.5t21.5 -76t3 -88v-273h-81v49q-29 -28 -74 -44.5t-90 -16.5q-43 0 -76 15t-55 39t-33 54t-11 61q0 32 12 64t36 57.5t59 41.5t80 16t85.5 -17.5t66.5 -49.5
v43q0 82 -24.5 122t-89.5 40q-28 0 -49 -7t-37.5 -19.5t-30.5 -31t-28 -41.5l-52 52q14 15 29.5 30t38 27t53.5 19.5t75 7.5zM379 198q-5 12 -14.5 28t-24.5 31t-36 25.5t-50 10.5t-53 -11.5t-40.5 -30t-25.5 -43.5t-9 -52q0 -32 11.5 -55.5t29.5 -40t40 -24.5t42 -8
q19 0 38.5 7t37 19.5t31.5 29.5t23 37v77z" />
    <glyph glyph-name="uni0228" unicode="&#x228;" horiz-adv-x="556" 
d="M120 700v-700h452v55h-361v293h310v46h-310v251h361v55h-452zM185 -190q15 -2 32.5 -4t34.5 -2q21 0 41.5 4.5t36.5 15t26 26t10 38.5q0 32 -27 50.5t-60 18.5h-12t-12 -1l12 44h-33l-25 -82q7 2 18.5 3t18.5 1q38 0 51 -12t13 -24q0 -17 -9 -27t-23 -15t-30.5 -7
t-30.5 -2h-13t-11 2z" />
    <glyph glyph-name="uni0229" unicode="&#x229;" horiz-adv-x="563" 
d="M524 228v21q0 67 -19 116t-51.5 81t-75.5 48t-91 16q-51 0 -94 -17.5t-75 -51t-50 -81t-18 -107.5q0 -50 15.5 -97.5t47 -85t80 -60t114.5 -22.5q64 0 118 22.5t94 64.5l-32 32q-21 -18 -39.5 -33t-37.5 -25t-39.5 -15.5t-45.5 -5.5q-28 0 -59.5 8.5t-58.5 30.5t-45 61
t-18 100h380zM144 268q0 40 8.5 77.5t26 66.5t44.5 46.5t64 17.5q71 0 110.5 -55.5t39.5 -152.5h-293zM179 -190q15 -2 32.5 -4t34.5 -2q21 0 41.5 4.5t36.5 15t26 26t10 38.5q0 32 -27 50.5t-60 18.5h-12t-12 -1l12 44h-33l-25 -82q7 2 18.5 3t18.5 1q38 0 51 -12t13 -24
q0 -17 -9 -27t-23 -15t-30.5 -7t-30.5 -2h-13t-11 2z" />
    <glyph glyph-name="uni022A" unicode="&#x22a;" horiz-adv-x="780" 
d="M531 828q0 -23 -12.5 -36t-34.5 -13t-34.5 13t-12.5 36q0 26 14 38t33 12q20 0 33.5 -12t13.5 -38zM343 828q0 -26 -13.5 -37.5t-32.5 -11.5q-22 0 -34.5 13t-12.5 36q0 26 14 38t33 12t32.5 -12t13.5 -38zM242 1014h297v-71h-297v71zM50 350q0 -56 21.5 -119.5
t67.5 -117.5t117 -89.5t170 -35.5q67 0 121.5 16.5t98 44.5t75.5 64.5t52.5 77t31 81.5t10.5 78q0 56 -23 119.5t-71 117.5t-121.5 89.5t-173.5 35.5q-99 0 -170 -35t-117 -88.5t-67.5 -117.5t-21.5 -121zM148 350q0 70 21.5 128.5t59 100.5t88.5 65.5t111 23.5
q59 0 111.5 -23.5t92 -65.5t62.5 -100.5t23 -128.5t-23 -128.5t-62.5 -100.5t-92 -65.5t-111.5 -23.5q-60 0 -111 23.5t-88.5 65.5t-59 100.5t-21.5 128.5z" />
    <glyph glyph-name="uni022B" unicode="&#x22b;" horiz-adv-x="604" 
d="M443 650q0 -23 -12.5 -36t-34.5 -13t-34.5 13t-12.5 36q0 26 14 38t33 12q20 0 33.5 -12t13.5 -38zM255 650q0 -26 -13.5 -37.5t-32.5 -11.5q-22 0 -34.5 13t-12.5 36q0 26 14 38t33 12t32.5 -12t13.5 -38zM154 836h297v-71h-297v71zM568 249q0 -52 -18 -99.5
t-51.5 -83.5t-81 -57t-106.5 -21q-60 0 -108.5 21.5t-82 57.5t-52 83.5t-18.5 98.5q0 52 18.5 99.5t52 83.5t82 57.5t108.5 21.5q59 0 106.5 -21.5t81 -57.5t51.5 -83.5t18 -99.5zM473 249q0 70 -15 113.5t-39 67.5t-53 32.5t-56 8.5t-56 -8.5t-53.5 -32.5t-40 -67.5
t-15.5 -113.5q0 -69 15.5 -112.5t40 -67.5t53.5 -32.5t56 -8.5t56 8.5t53 32.5t39 67.5t15 112.5z" />
    <glyph glyph-name="uni022C" unicode="&#x22c;" horiz-adv-x="780" 
d="M461 784q-19 0 -38 7.5t-36.5 16.5t-35 16.5t-32.5 7.5q-19 0 -29 -11t-17 -38h-51q5 55 30.5 84.5t66.5 29.5q21 0 40.5 -7.5t37 -16.5t34 -16.5t31.5 -7.5q21 0 30 13t16 36h50q-5 -55 -30 -84.5t-67 -29.5zM241 1014h297v-71h-297v71zM50 350q0 -56 21.5 -119.5
t67.5 -117.5t117 -89.5t170 -35.5q67 0 121.5 16.5t98 44.5t75.5 64.5t52.5 77t31 81.5t10.5 78q0 56 -23 119.5t-71 117.5t-121.5 89.5t-173.5 35.5q-99 0 -170 -35t-117 -88.5t-67.5 -117.5t-21.5 -121zM148 350q0 70 21.5 128.5t59 100.5t88.5 65.5t111 23.5
q59 0 111.5 -23.5t92 -65.5t62.5 -100.5t23 -128.5t-23 -128.5t-62.5 -100.5t-92 -65.5t-111.5 -23.5q-60 0 -111 23.5t-88.5 65.5t-59 100.5t-21.5 128.5z" />
    <glyph glyph-name="uni022D" unicode="&#x22d;" horiz-adv-x="604" 
d="M373 606q-19 0 -38 7.5t-36.5 16.5t-35 16.5t-32.5 7.5q-19 0 -29 -11t-17 -38h-51q5 55 30.5 84.5t66.5 29.5q21 0 40.5 -7.5t37 -16.5t34 -16.5t31.5 -7.5q21 0 30 13t16 36h50q-5 -55 -30 -84.5t-67 -29.5zM153 836h297v-71h-297v71zM568 249q0 -52 -18 -99.5
t-51.5 -83.5t-81 -57t-106.5 -21q-60 0 -108.5 21.5t-82 57.5t-52 83.5t-18.5 98.5q0 52 18.5 99.5t52 83.5t82 57.5t108.5 21.5q59 0 106.5 -21.5t81 -57.5t51.5 -83.5t18 -99.5zM473 249q0 70 -15 113.5t-39 67.5t-53 32.5t-56 8.5t-56 -8.5t-53.5 -32.5t-40 -67.5
t-15.5 -113.5q0 -69 15.5 -112.5t40 -67.5t53.5 -32.5t56 -8.5t56 8.5t53 32.5t39 67.5t15 112.5z" />
    <glyph glyph-name="uni022E" unicode="&#x22e;" horiz-adv-x="780" 
d="M261 823q0 -22 16 -38t38 -16t38 16t16 38t-16 38t-38 16t-38 -16t-16 -38zM50 350q0 -56 21.5 -119.5t67.5 -117.5t117 -89.5t170 -35.5q67 0 121.5 16.5t98 44.5t75.5 64.5t52.5 77t31 81.5t10.5 78q0 56 -23 119.5t-71 117.5t-121.5 89.5t-173.5 35.5q-99 0 -170 -35
t-117 -88.5t-67.5 -117.5t-21.5 -121zM148 350q0 70 21.5 128.5t59 100.5t88.5 65.5t111 23.5q59 0 111.5 -23.5t92 -65.5t62.5 -100.5t23 -128.5t-23 -128.5t-62.5 -100.5t-92 -65.5t-111.5 -23.5q-60 0 -111 23.5t-88.5 65.5t-59 100.5t-21.5 128.5z" />
    <glyph glyph-name="uni022F" unicode="&#x22f;" horiz-adv-x="604" 
d="M173 658q0 -22 16 -38t38 -16t38 16t16 38t-16 38t-38 16t-38 -16t-16 -38zM568 249q0 -52 -18 -99.5t-51.5 -83.5t-81 -57t-106.5 -21q-60 0 -108.5 21.5t-82 57.5t-52 83.5t-18.5 98.5q0 52 18.5 99.5t52 83.5t82 57.5t108.5 21.5q59 0 106.5 -21.5t81 -57.5
t51.5 -83.5t18 -99.5zM473 249q0 70 -15 113.5t-39 67.5t-53 32.5t-56 8.5t-56 -8.5t-53.5 -32.5t-40 -67.5t-15.5 -113.5q0 -69 15.5 -112.5t40 -67.5t53.5 -32.5t56 -8.5t56 8.5t53 32.5t39 67.5t15 112.5z" />
    <glyph glyph-name="uni0230" unicode="&#x230;" horiz-adv-x="780" 
d="M339 826q0 29 15 42.5t37 13.5q23 0 37 -15t14 -41t-14.5 -41t-36.5 -15t-37 13.5t-15 42.5zM241 1001h297v-71h-297v71zM50 350q0 -56 21.5 -119.5t67.5 -117.5t117 -89.5t170 -35.5q67 0 121.5 16.5t98 44.5t75.5 64.5t52.5 77t31 81.5t10.5 78q0 56 -23 119.5
t-71 117.5t-121.5 89.5t-173.5 35.5q-99 0 -170 -35t-117 -88.5t-67.5 -117.5t-21.5 -121zM148 350q0 70 21.5 128.5t59 100.5t88.5 65.5t111 23.5q59 0 111.5 -23.5t92 -65.5t62.5 -100.5t23 -128.5t-23 -128.5t-62.5 -100.5t-92 -65.5t-111.5 -23.5q-60 0 -111 23.5
t-88.5 65.5t-59 100.5t-21.5 128.5z" />
    <glyph glyph-name="uni0231" unicode="&#x231;" horiz-adv-x="604" 
d="M252 662q0 29 15 42.5t37 13.5q23 0 37 -15t14 -41t-14.5 -41t-36.5 -15t-37 13.5t-15 42.5zM154 837h297v-71h-297v71zM568 249q0 -52 -18 -99.5t-51.5 -83.5t-81 -57t-106.5 -21q-60 0 -108.5 21.5t-82 57.5t-52 83.5t-18.5 98.5q0 52 18.5 99.5t52 83.5t82 57.5
t108.5 21.5q59 0 106.5 -21.5t81 -57.5t51.5 -83.5t18 -99.5zM473 249q0 70 -15 113.5t-39 67.5t-53 32.5t-56 8.5t-56 -8.5t-53.5 -32.5t-40 -67.5t-15.5 -113.5q0 -69 15.5 -112.5t40 -67.5t53.5 -32.5t56 -8.5t56 8.5t53 32.5t39 67.5t15 112.5z" />
    <glyph glyph-name="uni0232" unicode="&#x232;" horiz-adv-x="565" 
d="M135 842h297v-71h-297v71zM30 700l242 -435v-265h91v274l246 426h-54l-214 -369h-4l-204 369h-103z" />
    <glyph glyph-name="uni0233" unicode="&#x233;" horiz-adv-x="509" 
d="M107 677h297v-71h-297v71zM274 117l-173 383h-91l224 -494l-53 -130q-9 -23 -23.5 -37t-33.5 -14q-18 0 -34.5 10.5t-25.5 30.5l-44 -83q19 -17 42 -25t43 -8q28 0 49 14t37 36.5t28 50t23 54.5l242 595h-49l-157 -383h-4z" />
    <glyph glyph-name="uni0234" unicode="&#x234;" horiz-adv-x="380" 
d="M85 760h88v-542q31 12 68 12q61 0 95.5 -33.5t34.5 -86.5q0 -56 -34.5 -88t-98.5 -32q-46 0 -79 17.5t-51 46.5q-15 -30 -34 -84l-67 30q36 98 78 151v609zM237 58q29 0 41.5 15t12.5 37q0 26 -15.5 39t-41.5 13q-30 0 -61 -24q3 -80 64 -80z" />
    <glyph glyph-name="uni0235" unicode="&#x235;" horiz-adv-x="745" 
d="M537 218q31 12 68 12q61 0 95.5 -33.5t34.5 -86.5q0 -56 -34 -88t-99 -32q-88 0 -129 64q-15 -28 -34 -84l-67 30q36 98 78 151v192q0 65 -29 97t-91 32q-83 0 -120 -45.5t-37 -148.5v-278h-88v536h71l13 -73h5q25 40 70 61.5t99 21.5q99 0 146.5 -48t47.5 -149v-131z
M601 58q25 0 39.5 13t14.5 39t-15 39t-42 13q-30 0 -61 -24q3 -80 64 -80z" />
    <glyph glyph-name="uni0236" unicode="&#x236;" horiz-adv-x="388" 
d="M92 468h-76v42l77 35l35 114h52v-123h155v-68h-155v-250q31 12 68 12q61 0 95.5 -33.5t34.5 -86.5q0 -56 -34 -88t-99 -32q-46 0 -78.5 17.5t-51.5 46.5q-15 -28 -34 -84l-67 30q37 99 78 151v317zM244 58q25 0 39.5 13t14.5 39t-15 39t-42 13q-30 0 -61 -24
q3 -80 64 -80z" />
    <glyph glyph-name="uni0237" unicode="&#x237;" horiz-adv-x="257" 
d="M22 -240q-46 0 -77 12v71q34 -10 66 -10q38 0 56 21t18 63v619h88v-616q0 -80 -38.5 -120t-112.5 -40z" />
    <glyph glyph-name="uni0238" unicode="&#x238;" horiz-adv-x="972" 
d="M292 -10q-115 0 -176 71t-61 206q0 131 58 205t163 74q108 0 166 -79h6q-2 13 -4 45t-2 60v188h88v-185q0 -55 -5 -110h5q54 80 166 80q106 0 163.5 -73t57.5 -204q0 -135 -62 -206.5t-177 -71.5q-138 0 -193 125q-56 -125 -193 -125zM679 63q147 0 147 206
q0 102 -35.5 152.5t-109.5 50.5q-81 0 -116 -46t-35 -155q0 -208 149 -208zM295 63q71 0 109.5 55t38.5 153q0 110 -37 156t-118 46q-68 0 -105 -54t-37 -154t38 -151t111 -51z" />
    <glyph glyph-name="uni0239" unicode="&#x239;" horiz-adv-x="972" 
d="M680 546q115 0 176 -71t61 -206q0 -131 -58 -205t-163 -74q-108 0 -166 79h-6l2 -17q4 -37 4 -88v-204h-88v201q0 55 5 110h-5q-52 -80 -166 -80q-105 0 -163 73t-58 204q0 135 62 206.5t177 71.5q137 0 193 -125q28 64 78.5 94.5t114.5 30.5zM293 473q-147 0 -147 -206
q0 -102 35.5 -152.5t109.5 -50.5q81 0 116 46t35 155q0 208 -149 208zM677 473q-70 0 -109 -54.5t-39 -153.5q0 -109 36.5 -155.5t118.5 -46.5q68 0 105 54t37 154t-37.5 151t-111.5 51z" />
    <glyph glyph-name="uni023A" unicode="&#x23a;" horiz-adv-x="639" 
d="M499 760l-74 -212l213 -548h-93l-86 221h-148l-102 -296h-67l103 296h-69l-85 -221h-91l279 717h81l30 -78l42 121h67zM273 301l77 222q-20 55 -32 101q-15 -59 -31 -107l-81 -216h67zM384 430l-45 -129h93z" />
    <glyph glyph-name="uni023B" unicode="&#x23b;" horiz-adv-x="631" 
d="M559 760l-19 -55q30 -8 61 -23l-36 -76q-36 16 -53 21l-190 -548q36 -10 80 -10q76 0 171 28v-78q-45 -17 -87 -23t-97 -6q-46 0 -94 10l-26 -75h-67l33 95q-85 40 -129.5 126.5t-44.5 211.5q0 110 41 193t118.5 128t183.5 45q38 0 74 -5l14 41h67zM403 645
q-115 0 -181 -77t-66 -211q0 -183 108 -252l187 536q-19 4 -48 4z" />
    <glyph glyph-name="uni023C" unicode="&#x23c;" horiz-adv-x="479" 
d="M479 760l-81 -226q28 -8 49 -17l-27 -73q-31 11 -48 15l-136 -382q28 -11 63 -11q71 0 139 31v-78q-56 -29 -138 -29q-45 0 -91 13l-75 -211h-67l85 239q-97 70 -97 234q0 135 65.5 208t185.5 73h15l14 -1l77 215h67zM146 266q0 -97 37 -147l125 350h-4q-81 0 -119.5 -51
t-38.5 -152z" />
    <glyph glyph-name="uni023D" unicode="&#x23d;" horiz-adv-x="523" 
d="M10 403h87v311h90v-311h170v-71h-170v-252h312v-80h-402v332h-87v71z" />
    <glyph glyph-name="uni023E" unicode="&#x23e;" horiz-adv-x="556" 
d="M520 760l-22 -46h47v-79h-83l-139 -299v-336h-90v142l-101 -217h-70l171 368v342h-223v79h418l22 46h70zM323 487l69 148h-69v-148z" />
    <glyph glyph-name="uni023F" unicode="&#x23f;" horiz-adv-x="479" 
d="M235 -9q18 -26 29 -74q17 -84 105 -84q19 0 41 4.5t31 8.5v-72q-34 -14 -81 -14q-80 0 -121.5 36.5t-56.5 120.5q-13 69 -75 86q-34 9 -55 21v80q88 -43 170 -43q66 0 96.5 21.5t30.5 57.5q0 32 -29 54t-103 50q-76 29 -106.5 50t-45 47t-14.5 63q0 66 53.5 104t147.5 38
q91 0 171 -36l-30 -70q-82 34 -147 34q-55 0 -83 -17.5t-28 -47.5q0 -29 24.5 -48.5t113.5 -53.5q67 -25 99 -46.5t47 -48t15 -64.5q0 -72 -51 -113t-148 -44z" />
    <glyph glyph-name="uni0240" unicode="&#x240;" horiz-adv-x="470" 
d="M140 68q55 -10 87 -46t50 -105q11 -44 39 -64t77 -20q34 0 66 11v-72q-29 -12 -72 -12q-82 0 -126.5 35t-68.5 122q-13 47 -39.5 65t-78.5 18h-35v58l288 410h-271v68h368v-66z" />
    <glyph glyph-name="uni0241" unicode="&#x241;" horiz-adv-x="448" 
d="M124 0v322q88 27 140.5 82t52.5 126q0 56 -33.5 85.5t-96.5 29.5q-36 0 -79.5 -13.5t-72.5 -35.5l-33 72q37 26 87 41t102 15q103 0 162 -51t59 -140q0 -82 -50.5 -149.5t-147.5 -112.5v-271h-90z" />
    <glyph glyph-name="uni0242" unicode="&#x242;" horiz-adv-x="436" 
d="M124 0v144q87 27 136.5 82t49.5 126q0 121 -123 121q-34 0 -72 -13t-70 -36l-33 66q77 56 179 56q100 0 154.5 -49.5t54.5 -141.5q0 -81 -49 -148t-139 -109v-98h-88z" />
    <glyph glyph-name="uni0243" unicode="&#x243;" horiz-adv-x="649" 
d="M97 171h-82v78h82v465h204q144 0 207.5 -43t63.5 -134q0 -63 -35 -104.5t-101 -53.5v-5q83 -14 121.5 -57t38.5 -114q0 -96 -65.5 -149.5t-182.5 -53.5h-251v171zM187 335v-86h148v-78h-148v-95h144q86 0 127.5 33.5t41.5 100.5q0 64 -44 94.5t-132 30.5h-137zM187 410
h132q84 0 122 27t38 90q0 59 -41.5 84.5t-132.5 25.5h-118v-227z" />
    <glyph glyph-name="uni0244" unicode="&#x244;" horiz-adv-x="730" 
d="M640 714v-282h81v-78h-81v-102q0 -122 -73.5 -192t-204.5 -70q-129 0 -200.5 70.5t-71.5 193.5v100h-80v78h80v282h90v-282h371v282h89zM367 68q88 0 136 47.5t48 136.5v102h-371v-103q0 -87 46.5 -135t140.5 -48z" />
    <glyph glyph-name="uni0245" unicode="&#x245;" horiz-adv-x="607" 
d="M350 714l257 -714h-95l-158 450q-36 101 -52 166q-10 -48 -50 -165l-157 -451h-95l256 714h94z" />
    <glyph glyph-name="uni0246" unicode="&#x246;" horiz-adv-x="556" 
d="M459 760l-12 -46h49v-79h-69l-57 -223h108v-78h-128l-64 -255h210v-79h-230l-19 -75h-65l19 75h-104v714h285l12 46h65zM187 412h119l56 223h-175v-223zM187 79h34l65 255h-99v-255z" />
    <glyph glyph-name="uni0247" unicode="&#x247;" horiz-adv-x="563" 
d="M77 -208l83 240q-105 70 -105 232q0 129 64 205.5t173 76.5q15 0 44 -4l76 218h67l-82 -237q55 -28 85.5 -84.5t30.5 -134.5v-53h-210l-60 -173q30 -13 74 -13q43 0 81.5 7.5t90.5 29.5v-77q-44 -19 -83.5 -27t-92.5 -8q-52 0 -96 14l-73 -212h-67zM291 474
q-63 0 -99.5 -40.5t-43.5 -112.5h112l52 151zM421 321q-2 90 -50 128l-44 -128h94zM146 251q2 -88 43 -135l47 135h-90z" />
    <glyph glyph-name="uni0248" unicode="&#x248;" horiz-adv-x="272" 
d="M-4 -190q-46 0 -74 13v76q35 -10 72 -10q49 0 73.5 29.5t24.5 85.5v310h-82v78h82v322h90v-322h81v-78h-81v-303q0 -97 -48 -149t-138 -52z" />
    <glyph glyph-name="uni0249" unicode="&#x249;" horiz-adv-x="257" 
d="M22 -240q-46 0 -77 12v71q34 -10 66 -10q38 0 56 21t18 63v331h-75v71h75v217h88v-217h75v-71h-75v-328q0 -80 -38.5 -120t-112.5 -40zM78 681q0 29 15 42.5t37 13.5q21 0 36 -13.5t15 -42.5t-15.5 -42.5t-35.5 -13.5q-22 0 -37 13.5t-15 42.5z" />
    <glyph glyph-name="uni024A" unicode="&#x24a;" horiz-adv-x="767" 
d="M361 646q-97 0 -151.5 -76t-54.5 -213q0 -135 54 -212t153 -77q77 0 125 22.5t70 67t22 122.5v154q0 79 -22.5 123.5t-70.5 66.5t-125 22zM579 20q0 26 4 72h-5q-28 -47 -84 -74.5t-136 -27.5q-91 0 -158.5 44.5t-103 128t-35.5 195.5q0 172 80 269t222 97q70 0 128 -27
t87 -75h5l15 92h71v-793q0 -42 14 -62t49 -20q24 0 45 10v-76q-23 -13 -56 -13q-142 0 -142 157v103z" />
    <glyph glyph-name="uni024B" unicode="&#x24b;" horiz-adv-x="615" 
d="M290 63q79 0 115 43t38 142v18q0 111 -37 159t-118 48q-69 0 -105.5 -54t-36.5 -154q0 -98 36.5 -150t107.5 -52zM442 -11q0 54 5 83h-6q-56 -82 -168 -82q-104 0 -161 73.5t-57 203.5q0 131 58.5 205t162.5 74q110 0 167 -83h4l13 73h70v-608q0 -55 11 -75.5t38 -20.5
q31 0 50 11v-67q-21 -16 -70 -16q-117 0 -117 167v62z" />
    <glyph glyph-name="uni024C" unicode="&#x24c;" horiz-adv-x="622" 
d="M187 295v-295h-90v295h-87v76h87v343h197q133 0 196.5 -50.5t63.5 -152.5q0 -142 -143 -191l196 -320h-105l-173 295h-142zM187 371h107q87 0 127 34t40 102q0 67 -40.5 98t-131.5 31h-102v-265z" />
    <glyph glyph-name="uni024D" unicode="&#x24d;" horiz-adv-x="413" 
d="M299 248h-126v-248h-88v248h-75v71h75v217h72l10 -98h4q31 53 73 80.5t91 27.5q36 0 63 -6l-11 -81q-30 7 -58 7q-57 0 -100.5 -40.5t-53.5 -106.5h124v-71z" />
    <glyph glyph-name="uni024E" unicode="&#x24e;" horiz-adv-x="565" 
d="M165 586h236l68 128h97l-70 -128h60v-78h-102l-126 -231v-277h-90v273l-127 235h-101v78h59l-69 128h98zM283 363l77 145h-154z" />
    <glyph glyph-name="uni024F" unicode="&#x24f;" horiz-adv-x="509" 
d="M100 288h-90v71h62l-71 177h94l67 -177h189l64 177h95l-67 -177h57v-71h-84l-137 -362q-34 -89 -80.5 -127.5t-114.5 -38.5q-37 0 -73 8v70q24 -6 59 -6q42 0 71 23t48 72l28 71zM260 85q12 52 66 203h-137q31 -81 46 -124t21 -79h4z" />
    <glyph glyph-name="uni2000" unicode="&#x2000;" horiz-adv-x="500" 
 />
    <glyph glyph-name="uni2001" unicode="&#x2001;" horiz-adv-x="1000" 
 />
    <glyph glyph-name="uni2002" unicode="&#x2002;" horiz-adv-x="500" 
 />
    <glyph glyph-name="uni2003" unicode="&#x2003;" horiz-adv-x="1000" 
 />
    <glyph glyph-name="uni2004" unicode="&#x2004;" horiz-adv-x="333" 
 />
    <glyph glyph-name="uni2005" unicode="&#x2005;" horiz-adv-x="250" 
 />
    <glyph glyph-name="uni2006" unicode="&#x2006;" horiz-adv-x="166" 
 />
    <glyph glyph-name="uni2007" unicode="&#x2007;" horiz-adv-x="559" 
 />
    <glyph glyph-name="uni2008" unicode="&#x2008;" horiz-adv-x="268" 
 />
    <glyph glyph-name="uni2009" unicode="&#x2009;" horiz-adv-x="200" 
 />
    <glyph glyph-name="uni200A" unicode="&#x200a;" horiz-adv-x="100" 
 />
    <glyph glyph-name="uni200B" unicode="&#x200b;" horiz-adv-x="0" 
 />
    <glyph glyph-name="uni200C" unicode="&#x200c;" horiz-adv-x="0" 
d="M-26 -166v954h52v-954h-52z" />
    <glyph glyph-name="uni200D" unicode="&#x200d;" horiz-adv-x="0" 
d="M36 646l110 -107l-37 -36l-83 82v-750h-52v750l-83 -82l-37 36l110 107l-110 106l37 36l109 -108l109 108l37 -37z" />
    </font>
</defs>
</svg>
