<?xml version="1.0" standalone="no"?>
<!DOCTYPE svg PUBLIC "-//W3C//DTD SVG 1.1//EN" "http://www.w3.org/Graphics/SVG/1.1/DTD/svg11.dtd" >
<svg xmlns="http://www.w3.org/2000/svg" xmlns:xlink="http://www.w3.org/1999/xlink" version="1.1">
<metadata>
Created by FontForge 20190801 at Mon Feb  8 12:19:35 2021
 By root
Copyright (c) 2020 by PeachCreme. All rights reserved.
</metadata>
<defs>
<font id="theimpressionist" horiz-adv-x="600" vert-adv-y="500" >
  <font-face 
    font-family="the impressionist"
    font-weight="400"
    font-stretch="normal"
    units-per-em="500"
    panose-1="3 1 0 0 0 0 0 0 0 0"
    ascent="400"
    descent="-100"
    x-height="371"
    cap-height="952"
    bbox="-310 -277 1110 1147"
    underline-thickness="50"
    underline-position="-100"
    unicode-range="U+0001-206F"
  />
<missing-glyph horiz-adv-x="178" 
d="M16 0v333h130v-333h-130zM32 16h98v301h-98v-301z" />
    <glyph glyph-name=".notdef" horiz-adv-x="178" 
d="M16 0v333h130v-333h-130zM32 16h98v301h-98v-301z" />
    <glyph glyph-name="uni0000" horiz-adv-x="300" vert-adv-y="1500" 
 />
    <glyph glyph-name="uni0000" horiz-adv-x="300" vert-adv-y="1500" 
 />
    <glyph glyph-name="uni000D" unicode="&#xd;" horiz-adv-x="300" vert-adv-y="1500" 
 />
    <glyph glyph-name="uni0001" horiz-adv-x="300" vert-adv-y="1500" 
 />
    <glyph glyph-name="uni0002" horiz-adv-x="300" vert-adv-y="1500" 
 />
    <glyph glyph-name="uni0003" horiz-adv-x="300" vert-adv-y="1500" 
 />
    <glyph glyph-name="uni0004" horiz-adv-x="300" vert-adv-y="1500" 
 />
    <glyph glyph-name="uni0005" horiz-adv-x="300" vert-adv-y="1500" 
 />
    <glyph glyph-name="uni0006" horiz-adv-x="300" vert-adv-y="1500" 
 />
    <glyph glyph-name="uni0007" horiz-adv-x="300" vert-adv-y="1500" 
 />
    <glyph glyph-name="uni0008" horiz-adv-x="300" vert-adv-y="1500" 
 />
    <glyph glyph-name="uni0009" unicode="&#x9;" horiz-adv-x="300" vert-adv-y="1500" 
 />
    <glyph glyph-name="uni000A" unicode="&#xa;" horiz-adv-x="300" vert-adv-y="1500" 
 />
    <glyph glyph-name="uni000B" horiz-adv-x="300" vert-adv-y="1500" 
 />
    <glyph glyph-name="uni000C" horiz-adv-x="300" vert-adv-y="1500" 
 />
    <glyph glyph-name="uni000E" horiz-adv-x="300" vert-adv-y="1500" 
 />
    <glyph glyph-name="uni000F" horiz-adv-x="300" vert-adv-y="1500" 
 />
    <glyph glyph-name="uni0010" horiz-adv-x="300" vert-adv-y="1500" 
 />
    <glyph glyph-name="uni0011" horiz-adv-x="300" vert-adv-y="1500" 
 />
    <glyph glyph-name="uni0012" horiz-adv-x="300" vert-adv-y="1500" 
 />
    <glyph glyph-name="uni0013" horiz-adv-x="300" vert-adv-y="1500" 
 />
    <glyph glyph-name="uni0014" horiz-adv-x="300" vert-adv-y="1500" 
 />
    <glyph glyph-name="uni0015" horiz-adv-x="300" vert-adv-y="1500" 
 />
    <glyph glyph-name="uni0016" horiz-adv-x="300" vert-adv-y="1500" 
 />
    <glyph glyph-name="uni0017" horiz-adv-x="300" vert-adv-y="1500" 
 />
    <glyph glyph-name="uni0018" horiz-adv-x="300" vert-adv-y="1500" 
 />
    <glyph glyph-name="uni0019" horiz-adv-x="300" vert-adv-y="1500" 
 />
    <glyph glyph-name="uni001A" horiz-adv-x="300" vert-adv-y="1500" 
 />
    <glyph glyph-name="uni001B" horiz-adv-x="300" vert-adv-y="1500" 
 />
    <glyph glyph-name="uni001C" horiz-adv-x="300" vert-adv-y="1500" 
 />
    <glyph glyph-name="uni001D" horiz-adv-x="300" vert-adv-y="1500" 
 />
    <glyph glyph-name="uni001E" horiz-adv-x="300" vert-adv-y="1500" 
 />
    <glyph glyph-name="uni001F" horiz-adv-x="300" vert-adv-y="1500" 
 />
    <glyph glyph-name="space" unicode=" " horiz-adv-x="300" vert-adv-y="1500" 
 />
    <glyph glyph-name="exclam" unicode="!" horiz-adv-x="320" vert-adv-y="1500" 
d="M274 612l-2 -1q0 -5 -7 -12q-11 -8 -28 -29q-19 -24 -31 -44l-31 -50l-30 -50q-16 -25 -24 -43q-11 -18 -15 -30q-7 -5 -10 -5q-5 0 -5 12l18 30l26 42l12 20q-7 3 -6 16l16 21q22 28 29 37l29 37q2 5 10 15q11 16 22 35q6 11 13 11q2 3 7 0l1 -1v0q11 -4 6 -11zM51 218
q12 0 7 -15l-4 -3q-10 2 -12 12q0 4 3 5v0q2 1 6 1z" />
    <glyph glyph-name="quotedbl" unicode="&#x22;" horiz-adv-x="174" vert-adv-y="1500" 
d="M118 465l-8 -10q-5 -8 -5 -14q-2 -4 -2.5 -7t-0.5 -5q-4 -3 -7 -3q-5 0 -9 6q0 2 2 8l-6 -5q-6 -7 -12 -11l-4 -2q-3 0 -8 5q-4 3 -5 7t1 7q3 5 7 17q1 6 4 12q1 4 9 4v-1q2 0 3 -1q1 0 1 -1l1 -1q6 -5 3 -8l-7 -11v0l7 5q3 3 9 11l7 8h1q0 2 2 2q1 1 3 1q3 0 10 -3v0
q9 -6 4 -10z" />
    <glyph glyph-name="numbersign" unicode="#" horiz-adv-x="305" vert-adv-y="1500" 
d="M283 358q0 -5 -10 -8q-15 3 -23 3q-10 2 -33 2q-3 0 -5.5 -1t-4.5 -1q-3 -3 -15 -20l-10 -18h16q19 0 27 -2q7 -4 7 -9q0 -4 -9 -9q-12 3 -25 3q-16 0 -24 -1q-2 0 -2 -2q-3 -9 -5.5 -15.5t-4.5 -10.5q-1 -5 -1.5 -9t-1.5 -6q0 -3 -2.5 -3t-6.5 3q3 -1 2 -4t-3 -6
q-10 4 -9 11q0 10 5 20q5 6 10 20q-1 0 -3 -1t-5 -1l-16 -24q-18 -26 -25 -42q-8 -16 -20 -8q-7 7 -7 14q0 3 2 9l16 33v0q-4 -1 -11 -1l-2 1q-1 1 -2.5 2t-3.5 5q-3 0 -1.5 2t2.5 3q6 7 17 10l13 5q3 2 3 5q-2 -1 -6 -1q-9 0 -9 14q1 1 4 6t8 10q0 2 3 5q-6 -1 -12 -3
t-12 -3l-27 -12q8 -6 8 -10q0 -6 -11 -11l-13 1q-9 4 -10 15q-2 4 -2 6q0 7 12 14q8 2 17 5.5t21 6.5q23 5 43 8q0 1 5 8l29 37l5 4q3 8 5.5 10.5t6.5 -0.5q1 0 1.5 -0.5l0.5 -0.5q4 0 8 -2q5 -1 5 -6q0 -3 -7 -14q-3 -4 -10 -13t-13 -18q3 1 13 1q4 2 13 2q0 1 1 1.5t1 1.5
q12 17 23 30q5 6 7 6q5 0 6 -6q2 -4 2 -7q0 -9 -10 -21q0 -2 -1 -2h34l27 -1v0q5 -7 5 -10zM126 305h1q6 2 10 2t7 1q7 7 13 17q11 16 20 26h-2l-23 -1q-8 -11 -23 -40v0q-1 -1 -3 -5zM119 277l8 10l-11 -5q-3 -3 -7 -13q-1 -1 -3 -9v0q3 3 13 17zM162 312h3q6 10 10 18
l-8 -12v0q-3 -5 -5 -6z" />
    <glyph glyph-name="dollar" unicode="$" horiz-adv-x="302" vert-adv-y="1500" 
d="M273 551v-2q-18 -27 -21 -31l-25 -38q-6 -11 -25 -36v-1q14 4 21 4q5 0 11 -2q6 -1 9 -5.5t1 -9.5q-2 -13 -6 -15h-4q-11 0 -14 9l-18 -3q-3 -1 -7 -1t-10 -2q-3 -8 -5 -11l-16 -29l-5 -11q4 -4 24 -20q15 -15 22 -29q5 -8 5 -17q0 -8 -4 -16q-6 -18 -32 -29
q-24 -11 -50 -17q-3 -1 -7 -2t-10 -1l-8 -22l-14 -40q-3 -9 -5.5 -16t-3.5 -12q-5 -4 -10 -4q-7 0 -9 12q4 7 7 14t6 13t15 38q2 4 3.5 8t3.5 7q-10 -1 -19 0q-23 0 -37 8q-15 9 -15 20q6 9 13 9q4 0 10 -6q0 -5 3 -11q5 -4 27 -5l10 -1q3 0 13 2q4 7 6 12.5t3 8.5l23 61
q3 7 7 21l-1 4q-9 7 -16 10q-10 8 -11 21q0 13 14 21q6 4 34 17l16 6q1 6 3.5 10t3.5 7q15 29 26 47q10 18 26 39q13 23 19 33q5 8 10 8q3 0 9 -4q10 -10 6 -18v0q0 -2 -2 -3zM134 396q-3 -1 -3 -3l6 -6l5 -5l3 7l12 19v0q-15 -4 -23 -12zM170 332q-6 5 -11.5 8.5t-9.5 7.5
q-4 -9 -7 -20q-18 -42 -24 -61l-5 -15l7 1q28 9 45 18q19 10 24 20q2 4 2 11q0 6 -2 9v0q-6 11 -19 21z" />
    <glyph glyph-name="percent" unicode="%" horiz-adv-x="426" vert-adv-y="1500" 
d="M397 550q0 -11 -15 -19q-10 -6 -43 -31q-30 -23 -56 -49q-21 -20 -72 -71l-79 -84q-46 -50 -67 -74q-29 -32 -33 -43v-1q4 -3 4 -9t-3 -12q-3 -3 -6 -3q-6 0 -12 8q-3 5 -3 9q0 7 7 14q5 6 39 44l68 74l79 84q20 23 44 45l26 27q24 24 54 52q6 4 14 12q-8 -3 -19.5 -10
t-19.5 -11q-37 -19 -51 -26l-42 -20q-19 -7 -30 -7q-8 2 -10 4h-5h-3q-8 0 -14 9q-3 6 -3 10q0 6 4 10q2 4 14 16q10 9 17 10q8 2 12 -1q2 1 5 3t7 4q11 6 19 9h2q8 0 15 -10q4 -4 4 -9t-5 -10q-9 -7 -19 -13q11 3 25 9l52 24l48 26q8 5 16.5 10t16.5 9q6 3 9 3q7 0 8 -7v0
q1 -2 1 -5zM249 317v0v-1q9 -8 6 -20q-1 -12 -9 -21q-8 -12 -16 -18q-7 -7 -20 -12q-1 -1 -4 -1q-7 0 -10 10q-2 3 -2 10q0 8 4 13q4 7 8 13t7 12q-2 6 -2 12q7 7 15 9q2 2 4 8q8 11 14 12q7 1 5 -1q0 -5 1.5 -6.5t3.5 2.5q1 2 1.5 0t0.5 -5v0q0 -9 -7 -16zM233 297
l-1.5 -1.5t-0.5 -1.5l-9 -13l6 6v0q5 8 5 10z" />
    <glyph glyph-name="ampersand" unicode="&#x26;" horiz-adv-x="289" vert-adv-y="1500" 
d="M289 359q0 -5 -4 -9h-3q-4 0 -12 -3q-11 -4 -29 -16q-21 -13 -42 -31q-28 -23 -47 -39l-50 -43l-2 -2q6 -20 7 -27q7 -22 14 -33q0 -16 -6 -16q-4 0 -13 10q-5 13 -10 34q-1 4 -2 9.5t-2 12.5l-34 -28l-27 -20l-17 -12l-38 -26q-26 -15 -30 -17q-12 -7 -24 -6
q-10 3 -12 14v4q0 11 6 21q5 11 19 32q18 26 30 41q16 22 37 46l37 47q24 30 35 45l4 6l2 15q1 26 8 54l11 46q10 24 13 33q10 16 14 21q6 10 18 8q11 0 13 -11l1 -9q0 -5 -2 -15q-2 -15 -7 -31q-11 -31 -14 -37q-19 -36 -23 -42q-13 -23 -24 -37v-43q3 -37 10 -66l3 -12
q16 13 48 41l48 41l41 32q24 16 30 19q9 6 18 10v0q7 -4 7 -11zM87 372q3 4 5.5 8.5t5.5 9.5q11 18 20 42q9 26 12 36q4 22 4 28l-1 12q-7 -3 -11 -15q-7 -10 -15 -30q-10 -29 -13 -43v0zM67.5 202.5q11.5 9.5 17.5 14.5q-1 4 -2 8.5t-2 11.5q-5 28 -7 67q-1 10 -1 29
q3 4 -29 -38l-39 -46q-24 -30 -35 -45q-19 -23 -29 -41q-14 -25 -16 -31l-4 -14q1 -1 2 -1l13 3q19 8 28 13q10 5 38 23q20 12 45 32v0q9 5 20.5 14.5z" />
    <glyph glyph-name="quotesingle" unicode="'" horiz-adv-x="82" vert-adv-y="1500" 
d="M61 422.5q1 -3.5 -1 -6.5q-7 -10 -12 -13q-2 -4 -6.5 -8t-7.5 -7q-9 2 -12 5.5t1 11.5q4 1 9 11h1q-5 3 -5 9q-1 2 -1 6q0 6 5 8q5 5 10 5q5 1 9 0q13 -8 6 -16v0q3 -2 4 -5.5z" />
    <glyph glyph-name="parenleft" unicode="(" horiz-adv-x="424" vert-adv-y="1500" 
d="M424 687q0 -3 -2.5 -6t-4.5 -4l-3 -3q-1 -4 -11 -10q-5 -4 -15 -9l-2 -1q-4 -4 -16.5 -14.5t-23.5 -23.5q-15 -12 -46 -45q-12 -11 -23.5 -27t-15.5 -21q-6 -9 -12.5 -19.5t-9.5 -13.5q-7 -11 -10 -20v-1v-2q-11 -7 -16 -5h-3l-4 -6q-40 -60 -59 -99q-32 -65 -53 -123
q-31 -81 -40 -128q-10 -56 -10 -93q1 -34 7 -44q8 -9 11 -9q8 0 16 4v0h2q11 -2 14 -7v-3q0 -7 -3 -14h-3l-1 -1q-7 -3 -16 -3l-10 1q-12 3 -26 22q-9 14 -7 54q0 31 13 96q14 66 39 129q26 70 53 125q27 53 61 102q5 6 9 15v0v1v3l14 21l28 33q6 8 38 45h1q15 15 19 22
q31 35 49 49q8 6 17.5 15.5t15.5 14.5q1 1 7.5 5.5t11.5 4.5q1 4 9 4q5 -1 5 -6v0q6 -3 6 -5z" />
    <glyph glyph-name="parenright" unicode=")" horiz-adv-x="402" vert-adv-y="1500" 
d="M291 598q0 -26 -5 -71q-6 -40 -15 -85q-10 -49 -22 -82q-13 -37 -33 -79q-24 -47 -48 -89q-24 -43 -59 -96l-55 -82l-41 -58l-24 -33l-1 -1h-1q-4 -2 -9 -2q-4 0 -6 2q-3 3 -3 7q0 2 2 8v1l1 1q12 10 26 29q12 14 43 56q31 43 55 81q27 40 58 95q25 45 46 88q19 39 33 77
q13 37 21 80q8 38 13 84q2 20 2 28l-3 -1h-2q-7 0 -14 10l-1 1v1q0 6 -2 12q-1 4 -1 17l-1 19v17q0 11 13 18q6 3 9 3q8 0 15 -11v0q9 -12 9 -45z" />
    <glyph glyph-name="asterisk" unicode="*" horiz-adv-x="171" vert-adv-y="1500" 
d="M145 389q0 -4 -7 -9q-8 0 -18 3l-4 1l-0.5 -0.5l-0.5 -0.5q-2 -1 -5 -1q-6 0 -10 4l-4 5l-10 3l-4 -4q-10 -10 -19 -22q-1 -1 -4.5 -5.5t-3.5 -10.5t4 -13q-11 -7 -18 -7q-8 0 -8 10q0 3 2 13l17 22l19 23q-3 2 -6 3t-5 2q-9 3 -17 11t-4 15q3 8 7 9l6 1q17 -1 6 -12
q-2 -1 -2 -3q2 -2 2 0t1 1l8 -4q3 9 3 14l4 12q3 7 15 5q12 -3 12 -12q0 -7 1 -11l8 7q8 6 17 12l4 1q6 0 10 -7q6 -10 2 -17q-6 -12 -7 -15q-6 -11 -7 -13q4 -1 11 -1v0q5 -5 5 -9zM106 413l1 -5l1 -3l3 3q5 5 8 12l1 2v0q-7 -4 -14 -9zM84 413l2 3l-1 5v-4l-3 -3v0z" />
    <glyph glyph-name="plus" unicode="+" horiz-adv-x="258" vert-adv-y="1500" 
d="M220 348q0 -3 -12 -6q-12 0 -48 -2q-14 0 -21 -1q-3 -4 -7 -9t-9 -13q6 -10 4 -21q-4 -16 -8 -25q-8 -14 -13 -19q-5 -11 -19 -9q-13 2 -12 12q5 16 9 24q-2 -4 18 31l-2 2q-4 2 -6 4q-11 4 -21 5q-20 2 -24 2h-2q-4 0 -6.5 3t-1.5 8q1 14 17 13q26 0 45 1q5 1 12 1
l12 15l24 27q11 13 21 14l4 1q6 0 6 -8v-3q0 -11 -13 -23q-10 -12 -17 -22q2 1 9 1q36 4 48 4v0q13 -4 13 -7zM100 334h1h2v0h-3zM108 296q-7 -14 -9 -20l1.5 3t1.5 2v0q5 10 6 15z" />
    <glyph glyph-name="comma" unicode="," horiz-adv-x="88" vert-adv-y="1500" 
d="M58 309q0 -11 -6 -20q-8 -11 -17 -22q-5 -4 -11 -4q-7 0 -4 14q10 17 11 23q3 8 6 8q0 1 -2 3v2h-1q-2 7 1 10q2 2 6 2q5 0 8 -2v0q9 -3 9 -14z" />
    <glyph glyph-name="hyphen" unicode="-" horiz-adv-x="219" vert-adv-y="1500" 
d="M42 315h10h12q9 0 15 1q3 0 10 1.5t12 1.5q5 1 13.5 2t12.5 1q9 1 22 1l15 -3l10 -3l8 -3q4 5 4 12t-3 13q-2 1 -8 1h-11l-15 -1q-12 -2 -22 -2l-26 -1q-13 -2 -22 0q-6 1 -15 1h-3q-5 0 -8 1l-9 2q-1 0 -5 2q-6 -6 -6 -13q0 -6 3 -12v0q4 0 6 -2z" />
    <glyph glyph-name="period" unicode="." horiz-adv-x="81" vert-adv-y="1500" 
d="M44 310q0 -6 -1 -10q-4 -3 -10 -3q-7 0 -12 4q-11 7 -7 11l2 1q-2 4 -2 8q0 12 7 16v0q23 -6 23 -27z" />
    <glyph glyph-name="slash" unicode="/" horiz-adv-x="283" vert-adv-y="1500" 
d="M365 600q-2 -5 -8 -10q-3 -7 -12 -11q-13 -10 -44 -39q-29 -29 -67 -74q-44 -52 -79 -98l-27 -36q-14 -24 -17 -32q-6 -10 -4 -15q-8 -7 -16 -4l-6 -9q-32 -43 -49 -72q-20 -34 -26 -46q-8 -13 -17 -31q-5 -11 -12 -8q-1 0 -2.5 0.5t-4.5 0.5q-2 2 -2 6q0 6 4 11
q11 16 20 30q5 7 30 43q18 24 51 72l7 9l-4 7q0 5 8 16l27 38q20 27 49 61q17 22 58 69l53 58l24 24l30 36q14 18 26 15v0q13 -3 10 -11z" />
    <glyph glyph-name="zero" unicode="0" horiz-adv-x="208" vert-adv-y="1500" 
d="M185 457q0 -11 -4 -22q1 2 -16 -37l-20 -44l-24 -45q-11 -21 -27 -43q-9 -13 -28 -34q-11 -13 -27 -16q-1 0 -2 -0.5t-3 0.5q-11 0 -14 12q-1 5 -1 17q0 13 1 21q2 17 11 50q5 18 21 58q11 29 24 50q11 18 25 27q8 4 10 4q5 0 7 -8h1l19 17q14 11 31 13h2q12 0 14 -13v0
v-7zM170 458q0 3 -4 2q-1 -1 -18 -11q-16 -10 -27 -21q-2 -4 -2 -9q-9 -9 -15 -7q-13 -13 -25 -31q-12 -10 -15 -9l-1 -3q-12 -24 -21 -56q-5 -17 -9 -49q-3 -21 -1 -27q0 -4 6 -3l17 12q16 16 27 29q16 19 28 40q4 7 7.5 14t6.5 12l9 18q6 11 20 44q7 17 13 36v0q4 13 4 19
z" />
    <glyph glyph-name="one" unicode="1" horiz-adv-x="166" vert-adv-y="1500" 
d="M163 476q-9 -7 -26 -33q-17 -25 -34 -58l-30 -63q-19 -41 -22 -52l-11 -34q-6 -7 -10 -7q-3 0 -5 12l15 34l23 51q17 36 31 64l11 22l-11 -15q-12 -14 -32 -46l-17 -28l-5 -9q-8 -4 -10 -4q-7 0 -10 12q0 2 2.5 5.5t3.5 5.5q7 11 21 28l36 44q26 32 37 47l11 15l12 25
q3 7 7 7q3 0 7 -4q2 -2 4 -6v0q9 -7 2 -13z" />
    <glyph glyph-name="two" unicode="2" horiz-adv-x="230" vert-adv-y="1500" 
d="M211 295q0 -3 -8 -8q-20 -2 -31 -5l-39 -10q-28 -8 -42 -13q-39 -14 -36 -13q-7 -2 -13.5 -4.5t-13.5 -4.5l-5 -1q-10 0 -13 10q-2 6 -2 9q0 7 5 12l21 20l31 29l38 38q1 1 37 40q16 17 29 37q14 23 16 29l4 12v3h-11q-13 -2 -27 -8q-22 -10 -31 -17l-22 -17
q-8 -6 -8 -12q-4 -2 -7 -2q-5 0 -8 4.5t-3 12.5q0 5 12 12q-2 -2 27 17q15 9 34 17q17 6 31 10q8 2 12 2q3 0 11 -2q12 -3 12 -15q0 -14 -7 -25q-9 -14 -22 -30l-32 -37q-18 -22 -38 -40l-38 -37l-30 -31q-7 -7 -13 -15q11 0 19 2t16.5 5t19.5 5q28 6 43 11q14 5 40 11l31 7
v0q11 -3 11 -8z" />
    <glyph glyph-name="three" unicode="3" horiz-adv-x="274" vert-adv-y="1500" 
d="M259 346q0 -14 -7 -25q-8 -14 -24 -31q-15 -15 -39 -31q-24 -17 -47 -28q-27 -14 -51 -22q-20 -7 -44 -13q-11 -2 -31 -5q-7 4 -7 10q0 4 8 8l10 -1q4 0 18 2q16 1 42 11q23 7 49 21q24 11 46 27q20 15 34 31q16 19 20 29q5 13 5 19q-1 6 -7 12q-7 5 -18 8q-12 4 -29 4
h-9q-14 0 -21 -1l-27 -6q-5 -1 -19 -7l-4 -1q-6 0 -10 6q-6 11 -2 16q5 7 15 14l26 22l27 28q14 16 20 26l8 12l1 1l-14 -4l-30 -11q-12 -5 -36 -22q-15 -13 -29 -22q-9 -6 -21 -21q-8 -4 -14 -4q-5 0 -5 5q0 3 5 15l23 19l32 22l39 22l31 13q15 5 27 3q12 -3 12 -15
q0 -11 -11 -24l-26 -26l-29 -27l-21 -20l0.5 0.5l0.5 0.5l29 2q10 1 33 1q22 -2 32 -4q16 -5 26 -12q11 -7 13 -22v0v-5z" />
    <glyph glyph-name="four" unicode="4" horiz-adv-x="265" vert-adv-y="1500" 
d="M271 531q5 0 5 -6q0 -5 -4 -13q-17 -15 -24 -27l-33 -53q-16 -27 -30 -54l7 -1l18 -9v-3q0 -14 -15 -14q-2 4 -11 8l-7 2l-4 -8q-4 -13 -19 -47l-15 -34q-16 -39 -24 -68q-4 -13 -11 -50q-4 -24 -3 -35q-3 -9 -7 -9t-9 8q3 25 6 38q12 45 14 51q12 35 25 69l33 81l3 7h-2
q-6 0 -12 1t-14 1q-9 0 -33 -4q-9 -2 -20 -5.5t-16 -5.5q-19 -6 -33 -5q-15 2 -9 15q8 16 20 27l31 34q25 30 30 37q11 17 16 28q3 5 6 7q2 5 8 8h1q4 0 8 -7q2 -4 2 -8q0 -6 -5 -11l-23 -27l-33 -36q-4 -4 -31 -34l-16 -17l1 1q1 1 22 6l38 8q11 3 35 5q16 2 30 0l7 -1
q18 38 29 58q6 10 15 28l16 28q14 20 22 30v0q11 6 15 6z" />
    <glyph glyph-name="five" unicode="5" horiz-adv-x="356" vert-adv-y="1500" 
d="M250 375q7 -11 4 -27q-3 -17 -14 -29q-14 -16 -31 -29q-15 -14 -42 -29q-25 -15 -45 -23q-21 -10 -41 -16q-26 -6 -32 -6q-8 5 -8 9q0 3 8 8h6q10 0 23 3q24 7 39 13q32 16 43 23q24 15 40 29q19 17 26 28q9 14 10 21v5q0 4 -2 12q-6 8 -13 15q-9 7 -24 12q-12 5 -31 7
h-11q-17 0 -25 -1q-21 -4 -34 -7q-11 -3 -31 -13q-15 -9 -24 -18q-4 -4 -9 -4t-10 5q-4 4 -4 9q0 6 6 15l24 32l21 29q8 13 12 17q8 2 10 2q11 0 8 -16q-7 -5 -14 -15l-24 -27q-8 -11 -15 -18q6 2 11 4q11 5 35 13q21 6 37 7q16 3 38 1q21 -2 36 -7q15 -4 28 -14v0
q13 -10 19 -20zM415 531q0 -4 -11 -6q-10 5 -32 10q-22 4 -46 5q-29 0 -63 -3q-36 -4 -72 -12q-38 -8 -62 -19l-37 -17q-11 -5 -16 -13q-6 -2 -9 -2q-7 0 -7 8q0 4 3 11q7 7 19 13l41 15q35 11 66 16q47 8 73 10q32 4 64 4q28 0 49 -3q28 -6 34 -8v0q6 -6 6 -9z" />
    <glyph glyph-name="six" unicode="6" horiz-adv-x="213" vert-adv-y="1500" 
d="M212 501q-3 -15 -11 -15q-4 0 -10 6q0 10 -2 9q-3 0 -11 3q-2 1 -6 1q-7 0 -14 -4q-12 -7 -26 -22q-16 -16 -31 -37t-30 -51q-10 -20 -14 -30l5 4q15 13 28 21q12 8 29 14l7 1q10 0 18 -9q9 -14 8 -32t-9 -44t-19 -46q-11 -22 -23 -37q-10 -15 -25 -23q-7 -3 -14 -3
t-13 3q-14 7 -18 25q-6 17 -4 45q2 16 4 25q-4 -2 -5 -2q-6 0 -6 12q4 9 17 25l3 3q8 27 21 54q11 22 29 52q10 15 30 41q18 19 32 27q16 10 28 7q12 -1 22 -8v0q7 -5 10 -15zM50 330l-4 -4q-5 -23 -7 -47q0 -27 4 -39q6 -13 11 -15h3q6 0 12 3q7 3 20 16q9 10 23 33
q11 20 18 43q8 21 8 40q0 16 -4 20q-5 4 -12 1q-9 -3 -23 -10q-13 -7 -27 -18v0q-14 -12 -22 -23z" />
    <glyph glyph-name="seven" unicode="7" horiz-adv-x="323" vert-adv-y="1500" 
d="M323 336q0 -4 -11 -7q-9 2 -33 4q-21 1 -58 -3q-16 -1 -43 -5l-25 -25q-18 -19 -36 -44q-15 -22 -21 -39q-4 -11 -10 -33q-6 -8 -10 -8q-3 0 -5 12q4 15 12 34q5 12 25 41q14 21 37 44l15 15q-4 0 -12 -2q-36 -6 -66 -15q-29 -9 -40 -15l-15 -10q-4 -1 -6 -6h-5
q-14 0 -11 18l8 7l20 9q14 6 45 12q39 7 69 11l26 4l20 19l45 43q18 15 25 31q7 13 4 19t-17 12q-12 5 -33 7q-12 1 -45 -1l-51 -6q-30 -5 -52 -13q-29 -10 -39 -16q-5 -2 -9 -5t-8 -4q-4 -3 -1 -4q-1 -3 -4 -3q-5 0 -14 13q-1 0 -1 1q0 2 6 6q5 5 23 14q11 5 42 13
q19 4 55 10q25 4 52 6q26 3 47 3q17 0 38 -7q17 -6 25 -20q4 -5 4 -13t-6 -19q-10 -18 -31 -34l-48 -41l-9 -9l29 3q42 5 59 5q10 1 21 0.5t15 -0.5v0q8 -6 8 -9z" />
    <glyph glyph-name="eight" unicode="8" horiz-adv-x="224" vert-adv-y="1500" 
d="M238 474q-7 -8 -16 -15l-27 -18q-15 -8 -38 -23l-26 -19q1 -1 14 -11q18 -16 30 -31q12 -12 18 -30q1 -4 1 -12t-3 -16q-4 -12 -19 -27q-18 -16 -34 -26q-17 -11 -41 -21q-22 -9 -41 -12q-3 -1 -9 -1q-11 0 -23 5q-14 5 -17 22v8q0 14 4 25q3 13 19 39q14 21 33 42
q17 18 43 41q1 0 3 2q-1 1 -7 4q-19 12 -26 18q-8 7 -7 19q3 12 15 24q13 11 29 22q17 11 37 17q17 7 32 7q11 0 21 -4q8 -5 9 -8q-1 -21 -18 -15q0 1 -3 4l-11 2l-8 1q-7 0 -18 -3q-18 -5 -33 -14q-16 -10 -26 -20q-9 -10 -8 -11l6 -7l20 -17l9 -8l28 21l37 25q8 5 24 19
l10 11q1 2 2 1t2 -4v1q0 6 12 9v0q6 -8 1 -16zM119 389l-6 -4q-20 -18 -41 -40q-18 -21 -30 -42q-10 -19 -15 -35q-3 -16 -3 -25q1 -8 9 -13q7 -3 22 -3q18 2 37 10q23 12 38 21q19 14 29 25q12 14 15 22q3 11 3 19q-2 11 -13 25q-17 19 -29 28v0z" />
    <glyph glyph-name="nine" unicode="9" horiz-adv-x="189" vert-adv-y="1500" 
d="M187 472q-3 -5 -17 -25q-2 -2 -29 -42l-34 -57q-4 -7 -35 -60l-13 -24l-15 -28l-21 -36q-7 -5 -10 -5q-5 0 -2 13q10 13 23 35q6 9 18 31l11 19l34 61l33 58q16 25 23 44l2 4q-1 -1 -19 -16l-35 -31q-12 -13 -30 -29q-21 -16 -22 -17q-5 -4 -13 -4q-6 0 -9 1
q-12 5 -11 15q0 14 5 24q4 12 15 27q8 15 21 28l24 23q14 11 26 15q8 3 15 3q6 0 9 -1q12 -4 15 -11l6 -11l4 4q12 11 24 6v0q13 -5 7 -14zM136 463q-1 0 -4 3q-2 8 -3 8q-1 -1 -6 3q-6 4 -11 1l-20 -12q-11 -7 -23 -19q-14 -16 -20 -25q-9 -15 -12 -25l-2 -10l4 1
q4 2 21 11q12 8 32 25l35 30v0z" />
    <glyph glyph-name="colon" unicode=":" horiz-adv-x="131" vert-adv-y="1500" 
d="M49 257q-4 -2 -7 -2l-8 2q-4 2 -5.5 4.5t0.5 3.5l1 1q-1 1 -1 6v2q0 6 5 9v0q19 -6 15 -26zM87 372q0 -13 -17 -21q-9 3 -9 15q-1 12 4 9h1l5 5q8 6 14 2v0q2 -8 2 -10z" />
    <glyph glyph-name="semicolon" unicode=";" horiz-adv-x="133" vert-adv-y="1500" 
d="M62 269q-4 -2 -6 -2q-3 -3 -5.5 -6.5t-4.5 -6.5l-6 -2q-5 0 -4 9l7 11q-5 3 -1 5q0 1 1 1l-2 6q0 8 6 11v0q20 -5 15 -26zM100 385q0 -14 -17 -22q-8 3 -10 15q0 11 5 10l0.5 -0.5l0.5 -0.5q1 3 5 5q8 6 14 3v0q2 -8 2 -10z" />
    <glyph glyph-name="less" unicode="&#x3c;" horiz-adv-x="351" vert-adv-y="1500" 
d="M262 423q-4 -13 -22 -17l-48 -14q-9 -3 -17 -5.5t-14 -4.5l-0.5 -0.5l-0.5 -0.5l-9 -4.5t-4 -2.5q-4 0 -6 2q-4 -2 -6 -2l-49 -17q-16 -7 -28 -14v-1q4 -3 25 -11q19 -7 42 -12l49 -11q35 -8 44 -11q-2 1 33 -10q5 -5 5 -11t-13 -7q-11 7 -31 13q-10 4 -42 12l-48 10
q-13 2 -45 7q-29 7 -33 8q-13 5 -11 19q0 13 13 19l35 14q8 2 15.5 4.5t14.5 4.5l20 7h1q0 3 1 6t2 5l14 5l27 10l33 12q8 4 27 10q10 4 20 3v0q11 -1 6 -15z" />
    <glyph glyph-name="equal" unicode="=" horiz-adv-x="181" vert-adv-y="1500" 
d="M158 301q0 -4 -8 -8h-34l-36 -4q-23 0 -32 -1h-5q-9 0 -21 4q-11 3 -8 17q5 14 14 18q5 4 28 17l34 21q9 3 19 11l-13 -2q-19 -3 -28 -7q-8 -3 -11 1q-5 0 -5 -1q-4 1 -3 13q0 10 13 10q25 3 31 4q23 0 35 1h3q14 0 15 -12v-3q0 -12 -14 -16l-33 -13q-8 -4 -17 -9
t-20 -10q-16 -11 -21 -19q-3 0 -3 -1q1 0 11 -2q18 -2 31 -1h35h35v0q8 -4 8 -8z" />
    <glyph glyph-name="greater" unicode="&#x3e;" horiz-adv-x="403" vert-adv-y="1500" 
d="M340 329q0 -9 -9 -14q-14 -8 -31 -13q-29 -6 -38 -7l-44 -9q-8 -2 -20.5 -3.5t-28.5 -5.5q-24 -4 -52 -12q-16 -3 -46 -12q-14 0 -14 5q0 4 10 10q16 6 47 13l25 6q18 4 26 7l49 9q18 4 44 11q21 4 36 10q7 4 12 6t7 3l0.5 0.5l0.5 0.5l-6 3l-21 12q-7 2 -12.5 4.5
t-9.5 4.5q-21 12 -24 14l-38 16q-6 2 -46 17q-21 6 -40 10q-14 3 -15 13v2v1q-2 0 -2 2q0 3 4 7t9 4q7 0 12 -4q7 -4 39 -17l46 -20l38 -14q2 -1 27 -10q9 -2 22 -8l23 -13q10 -5 18 -21v0z" />
    <glyph glyph-name="question" unicode="?" horiz-adv-x="314" vert-adv-y="1500" 
d="M281 558q0 -3 -2 -11l-17 -26q-4 -5 -28 -34l-33 -40l-34 -41q-12 -14 -32 -40l-27 -36q-7 -6 -11 -6q-3 0 -3 3q0 4 3 11l28 36l32 40l34 41q17 21 32 41q14 18 24 35q7 13 9 22l2 5l-1 1q-3 1 -16 1q-14 -2 -29 -7q-20 -5 -40 -15q-17 -7 -44 -23q-22 -14 -37 -29
q-17 -17 -23 -28q-10 -17 -10 -19q-2 -3 -2 -9q-6 -6 -11 -6q-7 0 -12 11q0 5 4 12q4 8 15 22q7 8 29 29q21 18 40 29q15 9 45 23q10 5 42 17l31 9q9 3 23 3q8 0 16 -10v0q3 -6 3 -11zM87 234q0 -6 -6 -12q-12 3 -12 11q0 4 5 11v0q13 -3 13 -10z" />
    <glyph glyph-name="at" unicode="@" horiz-adv-x="624" vert-adv-y="1500" 
d="M595 356q9 0 9 -4q0 -3 -6 -9q-15 -6 -37 -18q-21 -11 -58 -34q-18 -11 -70 -46q-41 -29 -75 -50q-35 -24 -75 -43q-36 -17 -75 -25q-16 -2 -25 -2q-24 0 -48 9q-34 12 -56 39q-21 24 -32 62q-5 18 -5 44q0 20 2 30q8 40 25 78q17 37 49 77q32 39 73 69q38 31 83 55
q37 20 79 35q39 12 64 11q24 0 44 -13q17 -13 15 -45q-3 -35 -19 -72q-17 -42 -45 -86q-29 -45 -52 -73q-27 -31 -43 -44q-20 -17 -32 -20q-4 -2 -12 -2q-7 0 -10 1q-10 5 -12 15q-2 7 -2 22v24q0 5 -1 8q-3 -10 -11 -7l-15 -14l-29 -30q-13 -14 -28 -13t-12 16q3 14 12 29
l18 27q12 14 22 19q11 8 22 5q9 -1 17 -9l0.5 -0.5l0.5 -0.5q6 3 14 3q13 -1 13 -12l-2 -22q-1 -8 -1 -23q-1 -12 0 -13q0 -1 3 -3q5 0 9 1q8 2 26 13q21 13 44 38t53 70q30 44 45 84q15 36 17 68q2 28 -12 36q-15 8 -38 9q-27 2 -60 -8q-35 -10 -78 -32q-42 -22 -82 -53
q-41 -31 -72 -68q-30 -40 -47 -76q-19 -40 -23 -75q-2 -10 -2 -29q0 -25 5 -41q9 -33 30 -59q21 -24 52 -36q22 -8 44 -8q7 0 23 2q38 6 73 24q32 14 74 41q57 37 75 50q56 38 70 47l58 36l36 21v0h3zM227 354l-3 4l-1 2l-9 -4q-6 -1 -17 -12q-12 -14 -17 -23l-9 -16
q4 4 11 8q22 17 30 25l16 16v0h-1z" />
    <glyph glyph-name="A" unicode="A" horiz-adv-x="844" vert-adv-y="1500" 
d="M850 334q0 -6 -14 -11q-11 3 -43 5q-25 1 -77 -5q-50 -5 -107 -15l-56 -10l-1 -5q-18 -66 -26 -108l-6 -36l3 -6q11 -27 16 -58q4 -37 3 -48q0 -20 -16 -27q-6 -3 -11 -3q-9 0 -12 8q-7 16 -7 35q0 21 3 55l4 32q-9 26 -32 52q-22 25 -54 44q-25 13 -58 19l-6 -2l-35 -10
q-46 -68 -61 -91q-39 -59 -66 -105q-25 -41 -46 -81l-24 -48q-9 -15 -11 -24q-9 -6 -16 -6q-11 0 -13 21l14 23q1 2 17 28q6 7 12 18l52 78l69 104l55 78l-72 -22q-38 -13 -87 -28l-23 -7q-52 -16 -79 -23q-6 -2 -17 -2q-17 0 -23 13q-2 6 -2 9q0 13 22 25q26 16 85 33
q57 18 117 30q51 10 105 8l6 10q48 66 102 135q46 62 109 135q50 58 108 121l86 91l20 23l13 22q14 23 28 15q10 -4 7 -12l1 -4q-1 -10 -13 -20q-17 -14 -52 -69q-28 -44 -71 -128q-35 -71 -69 -155q-30 -79 -44 -124l50 10q53 10 108 16q17 3 78 9q36 2 46 1v0
q11 -8 11 -13zM342 274l-3 -3q20 -2 29 -4q74 20 113 28l64 14q23 72 47 130q29 76 68 156q36 75 66 132l8 15q-46 -46 -75 -77q-51 -56 -108 -120q-66 -78 -109 -135v0q-53 -67 -100 -136zM311 251l4 5l-18 1q-33 0 -73 -8q-61 -11 -116 -28q-56 -18 -79 -33l-8 -6
q4 1 17 1q26 0 76 12q58 14 110 31v0zM541 296l-57 -12q-37 -8 -90 -23q18 -5 31 -13q34 -18 60 -47q18 -20 24 -31l4 17v0q11 53 28 109z" />
    <glyph glyph-name="B" unicode="B" horiz-adv-x="761" vert-adv-y="1500" 
d="M727 329q0 -6 -17 -7q-21 5 -59 7l-19 1q7 -9 10 -21q5 -18 5 -38q0 -8 -2 -24q-6 -34 -25 -71q-20 -39 -53 -76q-33 -38 -77 -72q-30 -24 -87 -57q-38 -22 -93 -39q-48 -15 -97 -13q-47 1 -86 15q-42 15 -57 38q-10 14 -11 28l-2 -4q-21 -41 -40 -57q-7 -7 -12 -7
q-7 0 -5 15q2 25 13 55q9 25 29 71q18 43 39 86q22 45 59 107q34 57 71 113q34 52 77 107l8 10q13 31 35 70q30 54 54 90l39 58l9 14q11 14 17 14q4 0 7 -7q1 -3 1 -9q0 -15 -15 -33q-28 -34 -49 -69l-27 -44q25 28 64 64q35 32 57 40q8 3 13 3q13 0 20 -16q4 -8 4 -20
q0 -17 -9 -38q-12 -28 -41 -78q-26 -43 -56 -79q-11 -14 -20.5 -24.5t-15.5 -17.5l-20 -23l-5 -6l20 6q33 10 79 10q40 0 83 -10q29 -7 66 -32q3 -2 14 -13h32q28 0 62 -4v0q13 -7 13 -13zM290 425q-5 0 -8 7l-28 -51q-34 -61 -78 -150l-67 -131q36 36 91 74q62 44 129 78
q75 39 132 59q58 21 109 29l27 4q-1 0 -3 2q-16 16 -58 29q-33 10 -79 8t-73 -11q-36 -12 -53 -23q-23 -15 -30 -23q-5 -7 -12 -5l-2 -1q-4 -2 -7 -2q-6 0 -11 12q-2 6 -2 9q0 9 12 15l39 17q20 18 33 31q21 21 56 63q36 43 54 78q26 50 33 76q9 34 8 42q-2 9 -15 5
q-15 -5 -46 -33q-50 -45 -67 -64q-26 -28 -38 -43l-18 -40q-9 -20 -11 -46v0q-10 -15 -17 -15zM80 68q9 19 18 35l69 133l78 150l32 61l1 2l2 6q-33 -44 -59 -83q-45 -69 -70 -113q-27 -46 -56 -107q-24 -52 -37 -85q-13 -34 -23 -72l-6 -22q5 11 16 30v0q12 20 35 65z
M626 271q0 18 -3 33q-3 13 -13 26q-6 0 -16 -0.5t-23 -2.5q-51 -7 -107 -27q-52 -18 -129 -58q-68 -35 -127 -79q-58 -44 -89 -79t-38 -60q-3 -9 -3 -18q0 -13 8 -26q11 -17 47 -31q31 -12 81 -15q40 -3 92 12q50 14 90 37q46 25 85 56q46 36 74 71q32 39 49 74q18 38 21 66
v0q1 7 1 21z" />
    <glyph glyph-name="C" unicode="C" horiz-adv-x="485" vert-adv-y="1500" 
d="M484 338q7 0 7 -8q0 -3 -2 -11l-35 -35q-28 -30 -50 -52q-41 -41 -65 -63q-46 -43 -71 -61q-35 -29 -69 -51q-33 -23 -64 -37q-27 -13 -55 -19q-5 -1 -13 -1q-18 0 -33 9q-20 14 -27 40q-7 32 -7 67q0 33 7 84q8 48 22 94q18 53 40 99q17 34 53 98q17 28 58 89
q30 40 58 70q27 28 59 54q31 25 60 39q30 14 54 15q23 3 41 -10q16 -15 19 -29q2 -10 2 -16q0 -4 -2 -14q-4 -16 -9 -31l-16 -37l-20 -42q-13 -25 -20 -41q-10 -20 -11 -29q-1 -6 -8 -6q-1 -1 -4 -1q-5 0 -15 6q-1 0 -3 2l-5 4q-6 7 0 13q4 4 5 6q2 2 4 9q4 4 8 5q2 4 4 6
q10 14 23 37q9 15 21 41q6 15 12 34q5 18 5 27q0 14 -1 20q-2 10 -7 15q-7 5 -24 5q-19 0 -45 -10q-31 -12 -57 -33q-30 -22 -57 -51q-26 -24 -58 -68q-34 -44 -58 -87q-31 -50 -53 -96q-24 -50 -39 -97q-15 -48 -21 -92q-6 -46 -5 -82q0 -36 8 -60q7 -21 20 -27
q11 -6 33 -4q22 3 49 15q26 10 62 32q35 21 69 48q43 36 71 60q45 43 63 63l49 53l31 38v0q10 4 12 4z" />
    <glyph glyph-name="D" unicode="D" horiz-adv-x="706" vert-adv-y="1500" 
d="M696 677q0 -46 -9 -106q-9 -61 -24 -110q-14 -46 -41 -101q-27 -53 -58 -96q-36 -47 -80 -87q-50 -45 -96 -73q-51 -31 -108 -47q-57 -17 -109 -17q-45 0 -89 13l-16 5q-6 -15 -26 -69l-4 -8l-1 -10q-3 -26 -14 -17l-3 4q-2 -2 -8 -2h-2q-8 0 -8 8q0 5 5 15q20 42 31 71
q7 16 7 18q-10 4 -20 11q-5 10 -5 14q0 5 5 5q1 0 13 -4q10 -7 15 -10q23 51 49 97l6 12v1l53 129q9 24 17 42t13 30l27 66l20 47h-3q-9 0 -15 18l7 19q6 14 18 34q12 24 36 66l46 86l41 81l15 29l3 10q3 13 11 14q5 6 9 6q5 0 11 -6t6 -13t-6 -15q-11 -15 -31 -49
q-14 -23 -44 -82l-54 -114l-59 -135l-58 -138l-15 -38q26 46 40 69q47 80 104 159q54 77 90 114q38 42 82 73q50 39 87 58q42 23 76 29q4 1 12 1q27 0 37 -27v0q14 -31 14 -80zM679 677q-3 48 -11 70q-8 21 -27 21q-7 0 -10 -1q-26 -4 -68 -26q-40 -20 -85 -56
q-49 -38 -82 -71q-35 -33 -90 -110q-49 -66 -104 -158q-53 -92 -85 -157l-45 -113v-2l16 -6q38 -13 84 -14q47 -2 104 15q53 15 106 46q52 33 93 72q41 37 78 86q29 39 57 93q22 46 40 99q16 51 23 108v0q8 59 6 104z" />
    <glyph glyph-name="E" unicode="E" horiz-adv-x="634" vert-adv-y="1500" 
d="M519 673l12 25q7 12 10 31v5q0 14 -8 22q-11 11 -23 12h-5q-9 0 -26 -5q-14 -5 -43 -20q-27 -14 -70 -47q-46 -35 -92 -78q-51 -48 -86 -87q-35 -36 -53 -67q-9 -13 -9 -25q0 -8 5 -15q12 -14 31 -14t44 6l53 12q12 3 53 13q10 2 44 8q17 2 20 6t-4 7h-3q-7 0 -24 -15
q-17 -17 -52 -44l-29 -23l-41 -32q-34 -26 -73 -60q-40 -36 -63 -62q-27 -30 -47 -64q-18 -30 -30 -67q-10 -31 -10 -63q0 -29 16 -50q15 -20 40 -24q25 -3 57 10q35 14 69 37q23 15 80 58q42 32 83 65l83 64q36 27 83 58l70 45q32 20 51 27q8 10 8 14q0 7 -18 5l-49 -32
q-29 -18 -71 -47q-31 -21 -82 -58l-84 -65q-47 -38 -83 -64q-37 -28 -80 -55q-32 -20 -66 -32q-29 -9 -47 -7q-16 3 -28 15t-12 38q-1 23 7 56q9 30 27 63q20 33 45 63q29 32 62 61q36 31 71 59q57 41 73 51q40 28 57 38q22 11 29 30q1 3 1 7q0 11 -10 12q-3 1 -11 1
q-6 0 -20 -2l-44 -11l-53 -12q-25 -7 -51 -9q-23 -3 -39 -1t-18 1q-2 0 -2 2q0 4 7 17q9 20 47 63q36 42 85 85q50 45 93 74q46 29 70 39q26 10 39 11q13 3 20 1q6 -3 7 0q1 1 1 -4q-2 -9 -8 -18l-13 -21q-6 -9 -11 -14q2 -21 16 -21q6 0 13 3v0z" />
    <glyph glyph-name="F" unicode="F" horiz-adv-x="544" vert-adv-y="1500" 
d="M1044 739q0 -9 -16 -11q-11 8 -33 12q-17 5 -60 8q-38 3 -87 3t-121 -6q-100 -11 -146 -18q-75 -11 -153 -27l-29 -6q-2 -10 -11 -21q-8 -10 -20 -28l-11 -28q7 -10 8 -11q6 -13 6 -30q0 -11 -3 -25q-10 -36 -28 -72l-47 -94l-36 -71l51 9q21 4 63 10q32 5 54 6
q15 -4 15 -10t-14 -12q-22 0 -53 -3l-62 -9q-32 -5 -65 -13l-6 -12t-5 -11q-32 -60 -57 -120q-17 -35 -31 -73l-14 -45l-18 -62l-2 -12q0 -14 -4 -20t-11 -4h-2q-6 -3 -12 0q-10 3 -10 12q0 8 6 19q14 25 37 79q17 42 30 70q0 -1 14 45l11 34q23 70 29 88l-23 -6l-2 -1v-1
q0 -6 -14 -8q-3 3 -6 -2q-3 -3 -9 -2q-3 0 -10 7q-6 2 -6 8q-2 4 -2 6q0 5 7 9l0.5 0.5l0.5 0.5q5 5 10 5h4q4 1 9 2t12 2q17 2 37 6q5 14 8 25l33 96q27 72 41 101q24 53 39 85l-15 11q-21 14 -75 10q-53 -3 -106 -15q-2 0 -3 -1q-28 -9 -51 -18q-35 -13 -55 -26
q-7 -4 -12 -4q-7 0 -10 10q-2 6 1 10q-3 1 -5 6q-1 2 -1 5q0 10 17 10q20 0 59 9l93 26q46 14 118 33l23 6q10 2 24.5 5.5t32.5 7.5q4 10 11 13q5 7 13 0q6 -1 10 -5l27 5q79 17 154 27q74 12 146 18q82 7 122 8q17 1 47 1q29 0 41 -1q45 -2 64 -4q24 -3 39 -8v0q5 -8 5 -13
zM274 653q33 0 52 -10l13 -9q10 23 20 50l-70 -18l-56 -15h8v0q12 2 33 2zM224 274q4 10 7 14q-10 -2 -16 -4l-8 -23q-14 -40 -20 -62v0q24 50 37 75zM353 573q0 9 -4 19q-9 -29 -18 -50q-10 -27 -16 -61q-14 -23 -21 -23t-7 24l-24 -60l-28 -77l-13 -37l14 2q2 1 6 1l40 79
l45 94q17 41 23 69v0q3 11 3 20z" />
    <glyph glyph-name="G" unicode="G" horiz-adv-x="684" vert-adv-y="1500" 
d="M690 333q0 -8 -11 -14q-10 3 -29 2q-20 -2 -56 -12q-48 -15 -81 -29l-14 -6q-3 -7 -31 -57q-30 -56 -63 -105q-39 -59 -68 -96q-30 -40 -70 -80q-38 -36 -64 -52q-18 -10 -30 -10q-13 0 -24 8q-23 16 -20 52t29 84q25 47 68 90q48 46 88 76q43 32 97 62q38 21 77 39
l20 40q18 40 34 86q11 36 13 54v3q0 12 -11 17q-4 2 -17 2q-16 0 -26 -2q-30 -5 -75 -25q-44 -19 -95 -50q-39 -25 -102 -68l-96 -68q-46 -33 -80 -46q-11 -5 -23 -5q-18 0 -24 17q-5 12 -5 25q0 19 9 43q14 40 49 97q32 52 74 100t85 83q46 38 94 60t92 30q19 4 39 4
q19 0 39 -5q34 -11 47 -35q10 -17 10 -41q0 -10 -1 -16q-4 -31 -11 -48q-3 -5 -14 -32q5 1 16 1q13 0 25 -3q23 -8 23 -33q1 -24 -16 -65q-12 -29 -39 -87q-8 -16 -13 -24q41 17 80 30q43 14 59 18q23 5 35 5v0q7 -7 7 -14zM502 548q4 11 12 41q2 8 2 20q0 16 -5 23
q-9 14 -36 25q-18 6 -39 6q-19 0 -30 -2q-42 -6 -88 -27q-48 -22 -92 -57q-46 -37 -83 -81q-35 -39 -73 -97q-34 -56 -46 -94q-9 -30 -9 -45q0 -7 1 -9q3 -8 13 -8q8 0 21 5q32 11 75 40q29 18 97 65q63 43 102 68q49 30 97 52q34 15 64 25q-1 6 0 18v0q13 19 17 32z
M478 265q-34 -16 -60 -31q-46 -24 -96 -61q-47 -36 -86 -75q-42 -40 -63 -87q-23 -46 -23 -76q-2 -30 10 -39q5 -5 12 -5q10 0 25 9q28 16 60 46q33 32 69 78q42 55 68 95q25 38 62 104v0z" />
    <glyph glyph-name="H" unicode="H" horiz-adv-x="786" vert-adv-y="1500" 
d="M715 553q-3 -7 -5.5 -12.5t-4.5 -9.5l-8 -18t-7 -18q13 1 36 1q37 0 55 -20q12 -13 12 -30q0 -4 -2 -14q-10 -12 -16 -12q-7 0 -8 16q2 12 2 15q0 8 -4 16q-6 10 -42 13q-23 2 -40 1l-9 -21q-18 -42 -23 -64q-12 -15 -18 -15q-9 0 -9 27q2 4 9 23t20 38l5 10q-7 0 -21 -2
q-30 -62 -50 -108q-34 -77 -54 -136q-16 -48 -34 -106q-15 -48 -23 -79q-9 -17 -13 -17t-3 22q14 47 25 78q23 67 37 105q28 78 55 137l13 29q18 42 34 73q-49 -6 -118 -23q-65 -15 -125 -36q-4 -10 -8 -32q-4 -21 -11 -35q-3 -4 0 -8v-2q0 -13 -9 -13q-5 0 -13 5
q-4 3 -4 17q-27 -63 -41 -103q0 -2 -19 -54q-23 -66 -28 -83l-14 -41q-2 -9 -2 -15.5t-1 -10.5q0 -20 -13 -20q-3 0 -4 1q-3 -3 -6 -3q-4 0 -8 3q-7 5 -7 13q0 6 5 14q7 13 18 48q9 28 12 59t-15 50q-17 18 -42 26q-21 7 -58 5t-54 5q-13 5 -13 13q0 7 7 14q20 23 58 43
q55 29 109 53q67 31 136 54l2 3q32 74 67 141l39 71q16 30 24 43q2 3 3.5 6.5t4.5 7.5q27 52 33 62q8 12 16 7q1 1 3 1q5 0 8 -5q4 -5 4 -11t-4 -10q-12 -13 -42 -55q-28 -39 -55 -83l-29 -60q-11 -22 -29 -68l-8 -19q-6 -14 -8 -21q54 18 118 34q58 15 127 26q4 8 7.5 15.5
t6.5 13.5l26 52q12 28 37 75q34 63 51 85l35 47q7 11 15 11q6 0 10 -8t4 -15q0 -11 -9 -26q-9 -14 -31 -54l-13 -24v0q-30 -54 -54 -108zM350 405q-67 -25 -124 -52q-70 -34 -103 -58q-40 -29 -46 -36q-4 -4 -5 -6.5t1 -0.5q7 2 39 5q6 1 17 1q27 0 48 -7q29 -9 51 -34
q23 -26 19 -60l-2 -23q11 33 41 115v0q29 75 64 156zM699 561q27 58 56 107q20 35 37 68l-18 -19q-17 -19 -53 -80q-28 -45 -67 -124q-3 -7 -5.5 -12.5t-4.5 -9.5q14 2 21 2v0z" />
    <glyph glyph-name="I" unicode="I" horiz-adv-x="495" vert-adv-y="1500" 
d="M646 840q2 -4 2 -6q0 -7 -11 -13l-13 -8l-18 -21q-39 -51 -49 -64q-44 -61 -70 -101q-35 -51 -63 -96q-6 -11 -14 -23q-32 -50 -58 -107q-15 -30 -27 -61q-1 -7 -11 -15q-8 -7 -4 3q6 9 6 10l-10 -15l-3 -4l-9 -21q-45 -95 -64 -142q-30 -69 -54 -129l-2 -4q7 2 16 4.5
t18 4.5q52 12 86 17q34 6 71 8l46 3q14 0 16 -14l-7 -4q0 -12 -13 -9q-10 3 -41 5q-28 0 -70 -6q-40 -6 -84 -15q-31 -7 -41 -10q0 -15 -3 -31q-1 -11 -2 -19.5t-2 -14.5q-1 -15 -18 -10q-13 4 -12 16l-2 1q-12 5 -6 11q7 6 12 23q1 3 4 14l-29 -10q-66 -27 -100 -42
q-45 -19 -84 -42q-41 -23 -57 -28q-3 -1 -8 -1q-11 0 -14 13l-1 5q1 13 13 23l40 26q21 14 54 31l61 31l58 28q32 15 46 19q8 3 14 3q12 0 21 -9q6 -5 9 -10q29 72 54 127l63 142l11 24q-1 2 -1 8q0 8 2 12q5 16 36 65l24 36q19 35 59 103q36 61 81 130q46 69 73 105t45 64
q8 12 15 12q6 0 12 -7v0q7 -7 7 -15zM142 13q-1 9 -2 9l-15 -3q-14 -2 -41 -12q-29 -10 -58 -24q-26 -11 -60 -29q-29 -15 -51 -30l4 1q67 26 87 35q53 23 102 41v0zM882 926q-4 -19 -19 -19q-6 0 -10 2q-2 5 -9 11q-8 7 -24 8q-17 3 -46 3q-30 0 -75 -6q-43 -6 -96 -15
q-51 -9 -96 -24q-32 -11 -64 -23q-21 -9 -29 -17l-7 -1q-15 0 -15 11q0 8 6 18q13 8 34 15t69 19q35 9 99 20l98 14l75 8q20 2 51 2q23 0 36 -8v0q17 -10 22 -18z" />
    <glyph glyph-name="J" unicode="J" horiz-adv-x="497" vert-adv-y="1500" 
d="M503 331q0 -11 -15 -13q-7 5 -26 5q-20 0 -47 -6q-14 -3 -30 -9l-19 -38q-15 -30 -58 -107q-30 -51 -56 -91q-34 -48 -54 -73q-30 -35 -52 -53q-23 -20 -48 -32q-15 -5 -26 -5q-9 0 -18 3q-22 8 -26 31q-2 6 -2 19q0 16 6 36q8 29 32 70q23 37 51 73t66 68q43 35 78 56
q34 20 80 41l39 17q22 46 32 70q27 64 41 113q16 48 22 93q6 40 4 62q0 19 -16 29q-10 5 -24 5q-5 0 -19 -2q-27 -4 -69 -27q-44 -23 -80 -53q-38 -30 -75 -69q-36 -36 -69 -80q-29 -37 -55 -78q-25 -40 -33 -67l-13 -40q-1 -2 -1 -6q0 -5 3 -13q-4 -15 -14 -15q-8 0 -18 12
l-1 9q0 4 2 16q3 17 18 46q14 29 41 69q25 35 59 77q33 42 71 80q35 36 76 71q34 28 82 55q44 23 75 30q12 3 23 3q18 0 32 -7q24 -12 27 -39q2 -31 -7 -71q-11 -52 -26 -94q-16 -46 -44 -114l-27 -59q14 5 16 5q31 10 51 11h12q12 0 26 -2v0q3 -7 3 -12zM368 301l-23 -9
q-38 -18 -78 -41q-36 -20 -76 -54q-41 -36 -64 -66q-26 -34 -47 -71q-22 -40 -26 -66q-4 -24 -4 -29q0 -6 2 -14q3 -15 12 -18q4 -2 9 -2q3 0 19 4q21 7 43 25q26 21 51 49q31 38 54 71q27 40 57 90q38 66 58 106v0z" />
    <glyph glyph-name="K" unicode="K" vert-adv-y="1500" 
d="M638 618q-1 -1 -17 -21q-10 -5 -18 -5q-12 0 -9 16q-22 -12 -61 -36l-72 -48l-51 -34l-25 -17q-22 -15 -61.5 -43t-67.5 -49q-69 -49 -135 -99q-19 -41 -37 -88l-7 -18q17 7 74 29q70 28 133 47q61 19 115 28q53 9 83 8q33 -3 50 -16q18 -13 13 -33q-9 -9 -16 -9
q-9 0 -12 13q1 2 1 6q0 6 -4 10q-6 7 -35 11q-6 1 -20 1q-20 0 -58 -5q-46 -7 -114 -26q-55 -17 -131 -47q-50 -20 -86 -36q-24 -60 -46 -126q-24 -69 -37 -118q-7 -23 -10 -31q17 0 17 -25q-4 -7 -10 -7q-7 0 -12 8q-5 6 -6 15q-1 1 0 4q-1 13 7 40l40 117q11 32 44 118
l-24 -12q-57 -25 -90 -42q-18 -9 -30 -9q-11 0 -18 6q-6 6 -6 12q0 10 14 22q23 20 69 54l123 93l20 14l42 92q-1 2 -1 5q0 9 6 19q13 20 20 34l15 27q3 4 7 12q45 87 67 128q55 101 83 159q28 56 44 65q5 7 10 2q11 -2 11 -7q0 -4 -5 -12l-11 -16l-18 -30l-6 -10l-27 -47
l-26 -45l-60 -110q-36 -71 -49 -99q-18 -40 -25 -63q-6 -18 -16 -19l-3 -5q-1 -2 -3 -2q-4 0 -8 5l-33 -72l121 89l153 110l120 87l17 13q35 24 57 42q15 12 25 12q8 0 13 -10v0q9 -20 3 -26zM106 271l-5 -3q-70 -53 -121 -94q-44 -36 -59 -52l14 3q29 7 91 31l39 15l10 27
v0z" />
    <glyph glyph-name="L" unicode="L" horiz-adv-x="475" vert-adv-y="1500" 
d="M622 153q0 -5 -15 -7q-24 6 -55 3q-37 -2 -82 -9q-46 -9 -96 -24q-45 -16 -88 -32q-42 -17 -73 -34q-32 -18 -48 -30q-16 -13 -24 -22q-4 -5 -10 -5q-8 0 -16 7q-16 12 -8 23q5 6 10.5 14t12.5 17q17 24 45 70l64 106l71 120l70 121l23 40q12 20 21 37t17 31q30 51 42 79
q12 24 23 28v2q4 5 10 -2q11 -2 8 -8q-2 -2 -3 -2q1 -12 -14 -32q-23 -32 -50 -75l-65 -105l-38 -63q-22 -38 -34 -57q-28 -48 -71 -120l-63 -107q-32 -54 -40 -72l-3 -5q6 3 7 4q30 15 54 25q35 15 75 30q33 13 91 31q49 16 97 24q47 9 84 12q26 2 34 2q12 0 26 -2v0
q11 -8 11 -13z" />
    <glyph glyph-name="M" unicode="M" horiz-adv-x="830" vert-adv-y="1500" 
d="M783 208q0 -8 -18 -13q-20 6 -33 27q-11 22 -14 54l-7 69q-5 45 -12 69q-7 33 -17 47q-9 16 -27 17q-8 1 -20 -2.5t-31 -11.5q-14 -8 -42 -28q-14 -24 -36 -58q-37 -55 -80 -108q-34 -43 -68 -75q-13 -13 -22 -13q-8 0 -13 9q-3 5 -3 10q0 20 24 48q22 28 73 85
q40 48 83 86q6 4 16 14l17 13q15 24 30 53q31 63 46 104q15 40 19 65v6q0 14 -7 17q-10 0 -45 -18q-34 -17 -91 -57q-64 -46 -118 -95q-56 -49 -125 -120q-31 -33 -58 -64q-1 -4 -4 -5q-7 -23 -7 -30q-8 -9 -16 -9l-61 -99q-45 -71 -59 -91q-16 -24 -29 -32q-2 -7 -5 -2
q-5 -4 -11 -4q-12 2 -12 9t7 18q13 26 49 76q32 46 85 112q14 18 23 27q-2 1 -2 5q0 8 16 34q8 17 51 85l79 118q50 70 78 108l4 8q2 3 3.5 5t2.5 4q26 43 38 51q10 9 10 1l2 1q1 -1 1 -3.5t-1 -6.5q-5 -19 -32 -55l-38 -53q1 1 -31 -45l-18 -30q-13 -20 -27.5 -43
t-31.5 -48l-34 -56l20 21q74 74 126 121q57 50 118 96q61 43 92 61q38 21 60 18q21 -3 21 -24q0 -6 -1 -10q-3 -29 -23 -74q-13 -29 -51 -102l-17 -29q2 1 18 11q34 20 62 20t41 -21q16 -23 20 -56q4 -21 10 -73l7 -69q3 -31 12 -43q7 -12 24 -15v0q10 -7 10 -12zM153 277
l-2 -3q-51 -64 -81 -114q-23 -39 -29 -54q1 2 5 6q19 26 61 91v0zM533 413q-1 -2 -5 -4q-51 -47 -81 -83q-34 -41 -63 -89l-17 -32l3 3q28 23 67 69q45 57 78 108v0z" />
    <glyph glyph-name="N" unicode="N" horiz-adv-x="778" vert-adv-y="1500" 
d="M213 456q3 10 12 46q13 44 29 79q21 45 46 91q26 48 51 82l43 56l28 34l3 6q0 4 -10 3q-16 -1 -31 -38q-17 -42 -41 -89l-56 -110l-57 -114q-18 -35 -61 -123q-12 -24 -17 -36l-46 -92l-20 -40q-24 -50 -36 -72q-26 -53 -41 -79q-7 -11 -7 -18q0 -8 10 -7q19 3 35 37
q14 30 53 96q44 72 81 127q42 61 96 133q44 58 106 122q52 53 108 97q49 39 101 73q48 32 78 45q28 14 36 14q6 -1 7 -13q0 -12 -6 -42q-10 -40 -26 -82l-39 -113q-14 -40 -38 -126q-16 -66 -24 -120q-8 -56 -6 -98q2 -46 17 -74q14 -29 41 -43q14 -7 34 -7q16 0 29 4
q34 9 73 35q15 15 15 20q0 2 -3 2q-6 0 -21 -7q-34 -23 -67 -31q-8 -2 -23 -2q-19 0 -29 5q-21 8 -34 33q-16 26 -17 66q-1 9 -1 27q0 26 5 68q6 51 23 119q23 82 39 125q21 60 42 111q25 60 32 82q11 34 10 54q-1 22 -23 24q-20 1 -53 -16q-21 -11 -78 -49
q-50 -34 -101 -75q-59 -47 -109 -99q-58 -60 -106 -123q-51 -66 -97 -133q-40 -58 -84 -125q-46 -69 -63 -91q-23 -29 -17 -44q1 -5 4 -5q6 0 13 17q7 19 37 80l55 113l63 128l61 122q32 65 58 114q39 76 58 109q22 42 49 84q17 26 17 42q0 4 -2 10q-4 10 -9 10q-2 0 -7 -6
q-1 -1 -26 -38l-40 -58q-21 -30 -52 -84q-32 -55 -50 -91q-21 -42 -36 -78q-16 -38 -17 -47t-6 -23q5 -18 14 -18q7 0 17 12v0q2 16 4 22z" />
    <glyph glyph-name="O" unicode="O" vert-adv-y="1500" 
d="M655 824q0 -7 -2 -25q-8 -46 -28 -101q-21 -60 -52 -128q-26 -58 -71 -143q-41 -76 -84 -146q-39 -67 -84 -131q-42 -59 -77 -94q-36 -37 -71 -37q-36 0 -59 20q-25 21 -37 57q-9 30 -9 65h-2q-4 0 -13 12q-5 24 -7 70q-1 42 11 96q12 53 39 120q28 71 61 132
q34 64 77 122q43 59 87 96q45 38 93 63q48 26 93 33q20 4 42 4q21 0 36 -4q32 -9 47 -36v0q10 -19 10 -45zM639 821q0 25 -8 38q-12 19 -40 27q-20 4 -35 4q-16 0 -34 -3q-38 -4 -89 -28q-48 -25 -90 -61q-41 -34 -86 -93q-44 -58 -77 -120q-37 -71 -60 -130
q-26 -64 -37 -119q-10 -51 -9 -92q3 -41 9 -59q5 53 19 106q12 55 35 118q20 55 44 101q21 44 39 72q17 30 23 44q3 9 10 9q5 0 10 -4q4 -4 5 -9q4 0 6 -1q7 -3 7 -8q0 -4 -8 -10l-9 -8l-6 -13q-25 -47 -32 -58q-8 -15 -34 -71q-29 -38 -30 -20l-12 -29q-22 -56 -36 -116
q-14 -58 -18 -105q-3 -48 9 -81t33 -48q20 -15 48 -17q28 0 61 32q37 35 76 89q51 71 86 129q41 65 84 145q37 70 70 142q28 62 50 127q20 56 25 98v0q1 8 1 22z" />
    <glyph glyph-name="P" unicode="P" horiz-adv-x="568" vert-adv-y="1500" 
d="M669 666q-13 -39 -35 -71q-21 -32 -55 -66t-70 -56q-36 -25 -73 -43q-33 -16 -71 -28q-37 -11 -64 -15q-18 -4 -51 -6q-14 6 -14 11q0 6 14 11q22 0 49 3q29 3 61 13q32 8 69 26q31 15 72 41q36 24 66 54q32 32 52 65q20 29 32 67q9 35 8 59q-1 25 -19 40q-21 14 -47 17
q-28 3 -67 -12q-40 -15 -92 -64q-50 -49 -109 -120q-52 -67 -89 -124l-38 -85l-51 -108l-43 -88q-15 -30 -21 -44l-12 -35q-13 -42 -17 -64q-4 -25 -24 -23t-14 15q1 1 1 2.5t1 2.5q0 6 6 15l2 3l5 12q21 45 25 53q4 10 7 15l25 64q21 54 46 109q24 54 77 138q4 5 10 15
q12 26 17 39l19 42q24 54 38 82l22 47q-3 2 -3 10q0 9 1 15q18 28 27 44l34 59q8 12 11 18q6 14 8 21q15 38 30 33h1q4 0 8 -4t4 -10q0 -12 -17 -34q-13 -16 -33 -47l-24 -47q-15 -27 -23 -48l-7 -5l-28 -57l-48 -104q19 27 59 79q51 63 110 122q52 50 94 69q41 18 74 16
q32 0 57 -20q26 -20 27 -51v0q2 -33 -10 -68zM181 376q-14 -26 -35 -69q-2 -7 -8 -19v0z" />
    <glyph glyph-name="Q" unicode="Q" vert-adv-y="1500" 
d="M733 802q0 -15 -1 -22q-2 -30 -17 -72q-11 -31 -27.5 -64t-20.5 -40q-21 -41 -56 -95l-22 -34q-53 -84 -96 -145.5t-90 -117.5l-16 -20l-4 -6q1 -2 3 -2.5t3 -0.5q30 -2 45 -4q18 -3 34 -11q20 -10 23 -28l1 -10q0 -3 -2 -13q-3 -11 -9.5 -20t-14.5 -16.5t-11 -10.5
q-2 -2 -5 -2q-1 -1 -2 -0.5t-1 1.5q-2 2 -2 5q1 2 5 6l13 16q8 11 12 23q2 8 2 11q0 17 -19 26q-12 6 -39 10q-20 3 -39 3q-13 0 -19 -9l-42 -45q-20 -20 -35 -30q-19 -13 -27 -15q-17 -5 -20 -6t-9 -1q-21 0 -39 18q-12 12 -20 33q-2 3 -3 6t-2 5h-5q-63 -25 -99 -54
q-1 -1 -5.5 -4.5t-4.5 -9.5q0 -3 -4 -5l-12 -6q-3 -3 -8 2q-3 3 -1 9l6 6q18 18 24 22q33 22 75 43q10 5 30 13l1 7l-1 37q0 10 2 28v7q-16 10 -12 32t7 33q17 54 30 85l15 34q7 15 11 26.5t7 18.5q8 24 13 35q2 4 3 10.5t2 10.5q13 46 35 91q3 6 11 18q19 30 22 34
q18 32 34 52l18 23l6 6q4 4 8 0q2 -1 3.5 -3.5t0.5 -4.5l-4 -8l-19 -26q-23 -30 -34 -52l-3 -4q3 -1 5 3q3 5 6 9t5 7q32 53 94 115q52 52 122 87q42 21 82 28q20 3 37 2q25 -2 42 -17t22 -41v0q2 -7 2 -22zM338 165q-3 1 -10 1q-9 0 -45 -6q-55 -10 -99 -26q5 -25 19 -39
q13 -13 27 -13q3 0 11 2q11 3 20 9q17 10 27 19q11 9 30 30l17 18v0q3 3 3 5zM715 807q0 8 -4 24q-6 22 -32 32q-13 5 -35 3q-23 -1 -50 -11q-49 -17 -99 -54q-57 -42 -104 -102q-33 -42 -72 -107q-15 -25 -31.5 -58t-23.5 -46q-3 -8 -23 -47q-7 -14 -12 -32
q-13 -46 -25 -94.5t-19 -90.5q-5 -32 -5 -57q0 -11 2 -17l10 2q59 20 127 28q16 2 24 2q12 0 18 9l13 17q24 37 62 85q32 42 47 64q60 85 119 178q35 56 74 132q24 48 33 88v0q6 26 6 52z" />
    <glyph glyph-name="R" unicode="R" vert-adv-y="1500" 
d="M703 142q0 -5 -9 -14l-47 -17l-61 -23q-35 -14 -70 -21q-38 -8 -75 -8q-38 0 -77 14q-34 12 -71 38q-30 21 -65 56q-33 33 -53 60l-17 22l-15 -27q-20 -34 -33 -58l-21 -39l-13 -22q-15 -25 -25 -46l-19 -37q-3 -6 -8 -6t-14 6t-9 17q0 9 6 19q17 31 34 68q9 22 32 64
l21 42q4 9 32 59q-26 16 -42 40q-16 23 -17 41v3q0 15 17 21q6 2 9 2q12 0 18 -14l17 -39l14 -28l26 40q14 22 58 79l30 39l9 12q9 14 15 24t10 16q36 58 60 91l78 111l67 93q14 20 27 40.5t18 28.5l12 19q2 3 2 5.5t1 4.5q1 3 3 5t5 2q3 5 8 5q7 0 14 -6q8 -5 8 -13
q0 -3 -3 -8l-21 -28q-14 -19 -37 -46q-16 -20 -77 -107q-42 -60 -92 -136q36 30 76 53q62 36 108 48q37 10 71 10q15 0 22 -1q42 -4 45 -41q3 -38 -18 -74q-19 -34 -51 -74q-36 -43 -69 -71q-34 -29 -86 -64q-47 -31 -93 -54q-50 -23 -92 -36q-39 -12 -83 -12q-8 0 -22 2
l-2 -5q10 -16 20 -29q16 -21 51 -59q30 -33 62 -55q35 -24 68 -35q35 -12 71 -12q39 0 71 7q20 4 68 21q33 12 60 24l46 20v0q17 0 17 -7zM351 557l-14 -12q-65 -104 -107 -174l-49 -83q8 -2 14 -2q42 0 77 10q42 12 89 35q51 25 92 52q55 37 84 64q43 40 67 71q29 37 47 71
q19 36 19 62q0 29 -35 32l-18 1q-29 0 -67 -9q-47 -11 -104 -47v0q-43 -27 -95 -71zM148 302l4 -6l19 -6l51 86l16 26l12 19l-5 -2q-4 0 -4 7l2 14q-43 -54 -66 -91v0zM136 281q-17 -29 -30 -57q-38 -80 -48 -107l-12 -34q12 17 31 49l57 96l18 29v0q-6 8 -16 24z" />
    <glyph glyph-name="S" unicode="S" horiz-adv-x="631" vert-adv-y="1500" 
d="M637 333q0 -9 -13 -13q-11 4 -34 4q-22 -1 -53 -6q-29 -6 -68 -18q-45 -16 -83 -32q-48 -22 -94 -48l-13 -8l5 -18q14 -43 18 -90q1 -5 1 -16q0 -39 -18 -83q-19 -51 -55 -95q-37 -42 -78 -71q-44 -31 -75 -35q-32 -3 -51 10q-20 13 -25 42q-1 6 -1 17q0 25 8 49
q9 34 35 80t61 85q36 42 85 80q29 23 71 49q-6 20 -22 56q-11 26 -37 80q-8 15 -38 78q-16 38 -24 75q-3 17 -3 32q0 21 6 42q13 39 35 69q24 34 64 61q42 29 81 43q42 15 81 24q42 8 71 5q32 -3 54 -16q23 -13 30 -45q8 -33 5 -48l-9 -47q-12 -20 -19 -20q-4 0 -6 6.5
t-3 20.5q11 28 11 42q0 13 -3 40q-3 28 -18 34q-17 7 -44 11q-16 2 -27 2q-20 0 -39 -4q-37 -6 -78 -21q-38 -13 -78 -40q-36 -23 -60 -57q-19 -29 -31 -64q-5 -20 -5 -38q0 -14 3 -29q5 -28 22 -71l36 -78q26 -54 38 -81q11 -24 21 -53q8 4 12 7q43 25 95 49q39 19 83 34
q38 14 69 21q43 8 56 9q22 3 40 1v0q8 -8 8 -13zM265 203q-29 -17 -68 -47q-45 -35 -82 -78q-35 -40 -58 -84q-21 -43 -30 -76q-8 -33 -5 -56q4 -21 17 -32q14 -9 39 -9q28 2 66 30q39 28 75 68q34 42 53 91q18 51 14 93q-5 49 -17 86v0z" />
    <glyph glyph-name="T" unicode="T" horiz-adv-x="531" vert-adv-y="1500" 
d="M937 805q0 -8 -17 -8q-17 9 -46 18q-31 10 -71 14q-38 5 -94 7q-73 0 -116 -3q-64 -3 -137 -12q-104 -15 -151 -23q-67 -12 -112 -22q8 1 22 1q45 0 83 -20q38 -22 63 -56q26 -34 31 -83q2 -16 2 -25q0 -8 -2 -26l2 2l35 60q22 41 42 74l33 61q9 18 21 35q3 6 8 6
q4 0 10 -8q4 -8 4 -13q0 -9 -8 -22q-9 -13 -35 -58l-11 -21l-35 -65l-54 -110q-20 -42 -58 -126l-52 -124q-22 -55 -42 -110q-12 -31 -18 -50l-15 -40l-23 -69l-8 -25q-1 -5 -1 -14q0 -16 -12 -16q-4 -2 -7 -2q-2 0 -10 2q-12 4 -12 13q0 5 5 13q11 16 27 55l36 86l43 105
l45 112q21 56 39 108q19 56 30 100q8 37 8 67q0 15 -1 23q-6 47 -30 76q-25 33 -58 50q-33 18 -75 18q-38 0 -78 -5l-68 -12q-1 -1 -3 -1q-21 -9 -34 -9q-6 0 -11 3q-8 0 -7 9l0.5 0.5l0.5 0.5q0 2 1 3q4 13 43 19q32 4 102 17q67 12 142 24q43 7 152 23q64 8 138 13
q56 4 116 4q48 0 96 -5q41 -3 74 -11q31 -8 51 -15v0q7 -8 7 -13zM384 521q-5 -19 -22 -75l30 67l3 7v0q-7 -2 -11 1z" />
    <glyph glyph-name="U" unicode="U" vert-adv-y="1500" 
d="M785 881q0 -11 -6 -23q-19 -30 -39 -56q-32 -43 -101 -130l-36 -45q-56 -69 -52 -64l-9 -19q-32 -67 -55 -136q-23 -68 -33 -129q-11 -54 -9 -107q3 -47 19 -78q17 -31 44 -45q27 -13 57 -15q17 -6 17 -10q0 -5 -19 -9q-34 2 -64 19q-30 16 -49 52q-17 36 -18 85
q-3 44 10 110q10 57 34 130q21 64 46 116l-41 -49l-162 -194q-74 -90 -121 -137q-45 -45 -79 -69q-35 -25 -64 -34q-7 -3 -15 -3q-16 0 -25 14q-7 12 -7 29t6 39q11 51 34 118q31 92 59 160q32 83 77 175q36 74 75 146q34 66 47 99q7 18 14.5 26t15.5 5q5 -3 6 -6l4 -2
q4 -3 4 -8q0 -10 -17 -30q-19 -39 -24 -49q-12 -19 -32 -66q-28 -36 -31 -20l-52 -100q-43 -82 -78 -173q-34 -86 -58 -160q-25 -77 -31 -117q-5 -24 -5 -41q0 -9 2 -11q4 -4 11 -4q6 0 17 3q20 4 57 26q39 26 79 64q52 51 124 133q66 76 163 192q40 48 59 72q29 61 65 123
q29 50 68 109q42 61 53 76q20 27 38 40q7 4 12 4q9 0 12 -11v0q3 -7 3 -15zM760 868l-22 -22q-21 -20 -58 -68q-31 -44 -70 -106q-15 -24 -43 -76q34 40 66 81q76 97 97 131q24 38 30 57v0v3z" />
    <glyph glyph-name="V" unicode="V" horiz-adv-x="382" vert-adv-y="1500" 
d="M675 974q3 -3 0 -6l-20 -25l-42 -55l-65 -88q-30 -40 -88 -123q-66 -99 -101 -154q-41 -64 -100 -164l-41 -73q-24 -38 -44 -76l-21 -37q-41 -72 -43 -75q-25 -43 -47 -70q-15 -17 -30 -17q-7 0 -10 2q-21 8 -22 33q-1 7 -1 27q0 28 2 45q2 36 13 111q10 75 22 139
q18 89 31 143q22 82 38 128q20 58 39 106q23 59 28 73q9 29 26 23q8 -3 10 -10q3 -3 3 -8q0 -6 -6 -15l-1 -3q-16 -41 -32 -89l-33 -98q-13 -35 -24 -82q-15 -25 -22 -25t-6 27q-2 -10 -8 -30q-21 -84 -31 -142q-11 -57 -23 -138q-9 -74 -10 -110q-1 -11 -1 -30q0 -24 3 -36
q6 -19 9 -18q2 0 21 15q18 15 47 58q21 30 68 110l87 147q46 77 101 164t101 154l87 125q40 56 62 89q25 35 38 58q14 21 22 31q4 5 10 5t13 -4v0q-4 -10 -9 -12zM94 557l26 68q12 34 36 97q1 7 5 14q-20 -41 -42 -101v0q-11 -30 -25 -78z" />
    <glyph glyph-name="W" unicode="W" horiz-adv-x="650" vert-adv-y="1500" 
d="M885 825q7 0 7 -5q0 -4 -7 -14q-29 -22 -45 -36q-18 -16 -57 -53q-33 -33 -67 -74q-37 -43 -78 -102q-38 -55 -79 -129q-44 -79 -71 -140q-28 -61 -54 -122q-19 -49 -37 -82q-13 -30 -36 -30q-21 -1 -30 21q-8 19 -13 57q-4 31 -4 83q0 54 4 101l6 101q3 42 1 78
q-3 29 -1 38l1 2q0 1 -2 1t-11 -6q-12 -7 -35 -30q-26 -28 -47 -55q-29 -38 -52 -74q-22 -33 -57 -92l-59 -103l-48 -86q-19 -35 -37 -50q-8 -6 -13 -6q-8 0 -11 12q-3 11 -3 23q0 17 4 34q-2 -12 13 66l6 27q10 44 35 146q18 71 49 174q18 58 53 158l39 103q11 32 29 26
q11 -3 11 -12q0 -6 -4 -13l-24 -49l-27 -62q-16 -41 -25 -81l-18 -72q-8 -30 -11 -62q-11 -22 -18 -22t-10 29l9 33q-18 -54 -44 -152q-23 -90 -33 -147q-10 -56 -15 -92q-5 -37 -6 -40t4 3q2 3 28 38q24 32 54 81l61 103q20 32 28 47l28 46q24 39 51 76q28 36 46 57
q22 25 42 38q9 6 16 6q11 0 18 -10q13 -17 10 -50l-7 -80q-5 -38 -10 -101q-4 -69 -3 -100q0 -46 6 -81q4 -33 14 -47q8 -15 9 -12l19 25q17 24 42 73q21 43 58 121q29 60 72 140q44 77 80 130q42 61 77 103q22 28 67 77q32 34 56 55q31 29 44 40v0q5 2 12 2z" />
    <glyph glyph-name="X" unicode="X" horiz-adv-x="800" vert-adv-y="1500" 
d="M794 335q2 0 2 -2q0 -4 -14 -23q-29 -30 -78 -74q-43 -36 -90 -69q-45 -32 -94 -55q-48 -23 -90 -29q-9 -2 -27 -2q-29 0 -52 10q-36 16 -59 49q-24 32 -38 84q-13 46 -19 109q-2 22 -2 32q-43 -51 -84 -110q-50 -70 -99 -146q-44 -67 -55 -96q-6 -14 -10 -18q0 -4 -3 -8
q-10 0 -10 8q0 7 8 21q15 26 62 98q49 76 99 146t91 119q-2 25 -2 77q0 69 4 124q5 70 10 107q4 41 11 72q6 26 26 26q19 -1 22 -9l2 -12q-9 -19 -20 -15l-3 -4q-10 -16 -19 -62q-9 -43 -15 -105q-4 -40 -6 -122q0 -22 2 -62q15 18 16 19q63 75 116 128l106 103q59 54 92 82
q39 33 60 54q12 12 23 12q7 0 12 -5t5 -12q0 -11 -16 -32l-41 -50q-13 -14 -40 -50q-18 -12 -26 -12q-5 0 -5 5q0 8 9 26q25 24 44 46l28 33q-30 -20 -42 -29q-38 -28 -94 -78q-45 -40 -106 -101q-54 -52 -118 -127l-22 -27l3 -44q6 -61 19 -107q14 -49 37 -78
q21 -30 53 -44q22 -8 46 -8q7 0 25 2q38 4 86 26q44 21 92 53q53 36 89 68q39 33 77 73v0q18 15 22 15z" />
    <glyph glyph-name="Y" unicode="Y" vert-adv-y="1500" 
d="M608 331q0 -5 -14 -10q-8 2 -14 2q-8 0 -28 -4q-25 -4 -63 -24q-33 -17 -82 -53l-19 -15l-9 -19l-14 -28q-26 -51 -63 -118q-38 -68 -62 -107q-28 -48 -54 -84q-25 -36 -42 -51q-10 -10 -21 -10q-7 0 -14 3q-18 9 -14 36q4 24 20 64q14 36 42 82q27 44 66 90q41 49 85 90
q35 34 71 62l31 68q25 58 45 115q19 52 25 95q7 39 4 59q-3 19 -6 25q-4 7 -37 -13q-27 -17 -77 -60q-40 -38 -90 -92q-45 -51 -75 -93q-28 -35 -57 -77l-48 -65l-34 -46q-9 -11 -18 -11q-5 0 -12 5q-11 9 -11 24q0 4 2 14q5 23 18 65l26 84q18 55 31 90l10 25l25 59
q-1 -3 29 62l20 41q11 10 20 10q7 0 7 -12q0 -8 -1 -13q-15 -18 -24 -38l-31 -59q-18 -33 -38 -82q-7 -15 -14 -35t-10 -29l-9 -24q-20 -63 -26 -84q-11 -40 -14 -62v-4q13 7 38 34q17 19 50 61l19 26q20 24 39 51q36 46 79 92q51 56 91 92q50 45 79 64q23 16 41 16
q8 0 14 -3q20 -9 20 -34q2 -25 -10 -67q-11 -46 -31 -96q-19 -52 -47 -115l-22 -47q44 34 82 55q39 21 66 30q28 7 49 6v0q11 -8 11 -13zM366 209q-17 -13 -50 -44q-41 -39 -82 -89q-37 -44 -63 -89q-24 -41 -37 -80q-12 -39 -11 -56v-21l12 8q11 6 39 42q24 33 55 82
q33 53 63 106q22 39 62 117v0z" />
    <glyph glyph-name="Z" unicode="Z" vert-adv-y="1500" 
d="M609 336q0 -17 -19 -17q-5 5 -17 8q-4 1 -15 1q-16 0 -26 -2q-25 -4 -71 -20q-37 -14 -68 -29q-4 -23 -15 -49q-15 -41 -49 -91q-29 -43 -74 -91q-46 -48 -85 -80q-42 -35 -77 -56q-31 -19 -57 -23q-24 -2 -30 21q-1 4 -1 12q0 20 10 41q17 33 46 71q26 35 79 86
q45 43 105 85q59 42 113 70q6 4 18 10q2 9 4 29q2 37 -7 63q-10 28 -25 43q-16 16 -40 24q-20 8 -49 8q-26 0 -55 -12t-45 -26q-6 -7 -13 -7q-6 0 -10 7q-2 6 -1 9q-4 1 -6 5q-3 5 -3 8q0 8 15 11q14 2 20 4q18 12 64 47q39 30 88 75q48 45 85 85q39 43 60 76q22 34 25 49
q1 4 1 10q0 9 -3 13q-5 6 -26 8q-3 1 -12 1q-21 0 -46 -7q-31 -7 -80 -26q-49 -20 -89 -43q-42 -24 -81 -58q-35 -32 -52 -60q-17 -30 -20 -40q-2 -3 -2 -9t4 -9q-3 -12 -11 -12q-9 0 -22 12q-2 2 -2 6q0 6 5 19q12 24 28 46q19 27 60 61q43 35 86 57q46 26 91 44
q52 21 82 28q36 10 64 10q27 0 41 -14q11 -11 11 -26q0 -3 -2 -13q-6 -24 -33 -59q-25 -33 -65 -74q-45 -45 -88 -84q-58 -52 -88 -77l-31 -24q28 7 56 9q29 1 56 -8q26 -9 48 -29q20 -21 30 -51q9 -31 6 -70l-3 -19q41 18 60 26q46 18 73 24q33 8 48 7q20 0 31 -7v0
q1 -3 1 -7zM373 267l-10 -5q-52 -26 -111 -68q-59 -44 -103 -86q-45 -44 -74 -86q-28 -39 -37 -69q-10 -26 -10 -37q0 -10 13 -10q12 0 45 18q35 19 76 53q46 37 83 79q41 42 72 89q28 42 46 88v0z" />
    <glyph glyph-name="bracketleft" unicode="[" horiz-adv-x="328" vert-adv-y="1500" 
d="M423 740q0 -4 -8 -10h-21q-13 0 -22 -3l-19 -6h-2q-2 -3 -3.5 -5.5t-3.5 -4.5q-6 -9 -14 -25q-4 -8 -21 -39q-19 -36 -32 -56q-18 -33 -22 -42l-12 -23l-38 -70l-15 -31q-4 -8 -9 -18.5t-11 -22.5l-38 -70l-13 -24l-8 -16t-13 -23l-31 -57l-31 -51q-7 -13 -26 -44
q-3 -8 -8.5 -16.5t-7.5 -13.5l-8 -19l-1 -4l10 1l23 9q5 2 12 3.5t16 5.5q12 3 33 5q13 3 36 5q6 1 33 4q11 -3 11 -7q0 -3 -9 -8q-10 -3 -34 -5q-6 -1 -17 -2.5t-18 -3.5q-5 -1 -14 -2.5t-15 -3.5l-25 -11q-7 -1 -13.5 -5t-8.5 -5q-13 -8 -20 -9h-5q-8 0 -14 5
q-10 6 -10 14q0 11 2 14t4 6.5t5 4.5q1 2 5 6.5t7 10.5q5 7 9.5 14.5t9.5 14.5q6 7 14 21t13 22l32 52l32 56q8 13 13.5 24.5t9.5 18.5l11 19q22 36 36 68l26 49l12 24l35 70q10 17 20 37.5t14 28.5q20 36 29 58q19 40 18 38q8 18 10 27l7 18q3 3 7 4l31 8q17 0 26 1h22v0
q7 -7 7 -11z" />
    <glyph glyph-name="backslash" unicode="\" horiz-adv-x="228" vert-adv-y="1500" 
d="M261 63q0 -6 -9 -11q-4 3 -4 -1q-2 -1 -6 -1q-10 0 -13 11q-2 14 -14 40q-13 26 -31 55l-38 61q-23 36 -38 63q-11 17 -32 57q-2 4 -4.5 8.5t-5.5 10.5l-39 78q-3 -5 -9 -5q-9 0 -20 10l-10 36q-16 51 -17 54q-11 29 -11 30q-10 17 -15 23q-6 6 -6 12t10 13l4 2q1 1 8 3
q3 1 7 1q12 0 15 -14q3 -18 19 -59q22 -56 38 -87q9 -21 43 -88q23 -42 42 -75l40 -61q22 -32 39 -61q12 -18 18 -31l15 -25l21 -39v0q3 -6 3 -10z" />
    <glyph glyph-name="bracketright" unicode="]" horiz-adv-x="437" vert-adv-y="1500" 
d="M436 728q-8 -14 -11 -17q-3 -4 -7.5 -9.5t-9.5 -12.5q-6 -7 -11 -14l-10 -14q-19 -28 -27 -43q-20 -34 -31 -56q-22 -41 -35 -68l-11 -21q-23 -46 -27 -56q-23 -45 -42 -85q-30 -65 -40 -90q-20 -43 -36 -86q-8 -16 -13.5 -30.5t-10.5 -26.5q-2 -8 -8 -22l-26 -66
l-12 -27l-8 -19q-11 -22 -15 -28q-4 -10 -16 -15q-6 -2 -10 -2t-8 2l-9 6q-1 2 -8 4q-4 1 -15 1q-4 0 -26 -2q-4 0 -28 -3q-11 4 -11 10t8 11q14 2 28 6l27 5q11 1 23 0q8 0 20 -5l7 -7q0 1 2 3q9 9 17 23q13 24 22 44q5 10 15 34l13 29q9 25 31 79l28 68l8 19l41 90l41 86
l11 23q18 36 26 55q6 10 10 19t8 16l16 32l29 58q20 36 26 45q11 21 18 31q9 17 11 22q3 5 3 9h-7q-14 0 -28 -5q-12 -3 -18 -3.5t-9 -1.5q-8 -1 -22 -6q-16 3 -16 10t11 15q17 2 22 4q3 1 11.5 2.5t16.5 2.5l30 4q10 3 20 3h2q11 0 16 -11v0q7 -10 4 -19z" />
    <glyph glyph-name="asciicircum" unicode="^" horiz-adv-x="249" vert-adv-y="1500" 
d="M182 978q0 -16 -16 -14q-5 4 -7 11l-5 15q-4 9 -5 20q-2 16 -4 23q0 5 -1 11.5t-2 9.5l-1 7l-7 -7q-10 -10 -15 -17l-15 -20q-7 -9 -12 -18q-5 -10 -7 -12l-3 -6q-8 -4 -9 -4q-7 0 -9 12q2 6 4 8q6 9 9 12l14 18q15 18 16 19q5 6 9 10.5t6 7.5q4 5 7.5 8.5t5.5 6.5
q6 6 16 3t11 -10v-17q-2 -9 0 -20q0 -1 3 -22q2 -13 5 -18q4 -8 6 -10v0q1 -2 6 -7z" />
    <glyph glyph-name="underscore" unicode="_" horiz-adv-x="379" vert-adv-y="1500" 
d="M302 278q0 -4 -6 -9l-19 2q-6 0 -22 2l-29 1h-35q-24 0 -35 -1l-28 -2q-14 -2 -21 -2l-19 -2q-6 0 -16 -2q-6 -2 -12 -2l-8 -2q-9 5 -9 12q0 4 5 11q6 0 9 1t13 1q11 0 17 1l19 1l21 1h28q12 -1 35 -1h35h30h22h19v0q6 -4 6 -10z" />
    <glyph glyph-name="grave" unicode="`" horiz-adv-x="220" vert-adv-y="1500" 
d="M157 944q0 -9 -14 -6l-14 15l-16 16l-2 1l-3 4l-13 10q-4 3 -5 6t0 8q5 8 10 8h4q3 0 8 -5q0 -1 1 -1q4 -3 8 -9l3.5 -3.5l3.5 -3.5v-4l13 -15q11 -8 15 -14v0q1 -3 1 -7z" />
    <glyph glyph-name="a" unicode="a" horiz-adv-x="185" vert-adv-y="1000" 
d="M191 338q0 -4 -5 -9l-23 -7l-31 -12q-29 -10 -34 -11q-8 -3 -13 -3q-6 0 -16 4q-14 9 -15 17q-3 6 -3 10q-6 -3 -15 -12q-10 -9 -22 -22l-22 -23q-10 -10 -23 -6q-14 5 -11 15q1 7 8 23q2 4 16 25l21 22q10 10 22 12h5q9 0 11 -5q1 -2 2.5 -4.5t2.5 -4.5q7 3 15 2
q11 -1 13 -11l2 -14q0 -4 4 -7q3 -1 16 0l30 8q16 5 31 12l23 10v0q11 -3 11 -9zM25 328l8 8l-5 4q0 -2 -2 -2q-2 2 -11 -6q-11 -6 -19 -17q-10 -12 -14 -21l-1 -4q11 8 21 16v0z" />
    <glyph glyph-name="b" unicode="b" horiz-adv-x="198" vert-adv-y="1000" 
d="M203 612q0 -4 -4 -7q-8 -4 -23 -22q-17 -21 -29 -40l-31 -51q-16 -26 -35 -61l-40 -67l-39 -69l-10 -17l11 10q9 8 27 20q12 8 24 12q10 4 22 3t15 -14q3 -9 1 -22q15 10 37 21l34 19l29 14q12 0 12 -6q0 -4 -6 -10q-16 -6 -28 -12l-35 -17l-38 -21l-12 -8l-7 -16
q-12 -22 -19 -33q-9 -15 -21 -28q-11 -15 -19 -21q-10 -9 -17 -12q-4 -2 -6 -2q-5 0 -12 7q-9 9 -4 20q8 16 15 24q6 9 23 28q15 14 34 28l15 10q3 8 3 14l2 15q0 3 -2 3h-2l-9 -2q-9 -1 -21 -9q-9 -4 -25 -17q-14 -9 -27 -24q-9 -9 -27 -35l-1 -3l-13 -24l-4 -8l-1 -2
q-2 -5 -7 -13l-4 -5q-3 -5 -6 -5t-6 6q-2 6 -2 8q0 8 7 18q23 33 25 36l15 20l32 55l7 14v-1q-3 -2 -7 -10q-7 -5 -10 -5q-6 0 -6 13q4 8 5 12t18 29l34 51q9 15 40 63q2 3 40 58q7 8 13 19l18 24l3 4l13 22q14 22 17 30q3 6 8 6q4 0 9 -3q8 -7 7 -11v0v-3zM59 249
q-17 -12 -29 -26q-14 -15 -19 -26q-4 -9 -6 -15q1 0 3 2q5 3 18 16q14 16 20 26v0zM89 467l-5 -7q-17 -29 -39 -64q-14 -24 -28 -54l-6 -11l22 38l38 68v0z" />
    <glyph glyph-name="c" unicode="c" horiz-adv-x="144" vert-adv-y="1500" 
d="M150 331q0 -5 -4 -10q-10 -3 -22 -8q-13 -5 -28 -13q-11 -5 -33 -17l-34 -17q-13 -5 -23 -5q-7 0 -10 1q-16 3 -17 19v5q0 14 6 27q7 17 19 32q9 13 20 24q10 8 19 13q4 2 6 2q5 0 13 -5q10 -7 10 -16q0 -7 -2 -13q0 -3 -6 -9q-3 -1 -5 -1.5t-2 0.5l-4 2q-2 -2 -5 4
q-2 6 -2 9v1q-6 -2 -9 -4q-10 -7 -20 -18q-11 -13 -17 -27q-6 -11 -6 -22q1 -7 7 -7q4 0 22 5q22 8 33 14l33 17l28 14l22 11v0q11 -2 11 -8z" />
    <glyph glyph-name="d" unicode="d" horiz-adv-x="179" vert-adv-y="1500" 
d="M487 943q0 -8 -7 -24l-22 -41q-24 -42 -38 -62q-30 -46 -54 -82q-34 -52 -66 -95l-74 -100q-13 -16 -37 -48l-1 -2q-40 -81 -75 -161q-28 -64 -55 -132l-36 -99l-26 -73q-12 -32 -22 -29q5 -1 1 -7q-4 4 -4 14q0 13 7 28l30 72q-4 -10 22 57q5 12 9 22t8 19q15 37 56 133
q18 40 56 120l-11 -13l-69 -84q-30 -36 -52 -64l-34 -41q-12 -15 -26 -20q-6 -2 -9 -2q-8 0 -14 6q-10 7 -10 21v3q0 11 7 23l18 26q14 20 23 31q11 15 24 28q9 11 27 16q3 1 9 1q9 0 15 -9l5 -11l3 4l72 81l51 63q41 84 76 147q39 73 76 133q40 66 57 91q4 6 8.5 13t8.5 14
q5 7 10 15.5t10 15.5q12 21 32 16v0q21 -3 21 -14zM40 341q-1 1 -2 2.5t-2 4.5l-9 -7q-12 -8 -23 -21q-12 -12 -22 -27l-8 -14q15 10 35 30v0zM447 901.5q3 7.5 5 10.5q-15 -12 -38 -41q-24 -31 -61 -87q-39 -60 -79 -131l-12 -21q-33 -60 -40 -75q35 45 67 90q35 50 65 95
q25 37 52 82q26 45 34 63v0q4 7 7 14.5z" />
    <glyph glyph-name="e" unicode="e" horiz-adv-x="161" vert-adv-y="1500" 
d="M167 333q0 -5 -2 -8l-20 -8l-31 -10l-40 -14q-13 -5 -39 -9q-4 -1 -11 -1q-10 0 -18 5q-10 7 -14 15q-7 13 -3 20l1 2q-2 2 -2 5q0 4 6 10l2 5q5 12 12 20q4 5 7 9.5t7 8.5q6 7 17 10q2 1 6 1q5 0 11 -3q9 -5 11 -14l1 -7q0 -5 -3 -11q-4 -8 -11 -15q-6 -6 -14 -11
t-17 -9l-13 -5q0 -4 2 -7l5 -6q1 -1 7 -1.5t11 -0.5h7q15 0 28 4q6 2 16 4.5t23 7.5q22 9 29 13l17 10v0q12 -1 12 -10zM28 351q7 2 10 8q4 6 5 9l-6 -4q-2 -1 -6 -4t-7 -7l-4 -6v0z" />
    <glyph glyph-name="f" unicode="f" horiz-adv-x="156" vert-adv-y="1500" 
d="M5 314q-2 -5 -17 -32q3 1 17 8l42 17q11 5 21 8.5t17 6.5l33 12l28 10q12 -1 12 -7q0 -3 -6 -9l-29 -9l-33 -11l-38 -14q-13 -4 -41 -17q-20 -8 -34 -16l-10 -18q7 -5 10 -13q5 -13 5 -28q-2 -24 -5 -35q-3 -13 -13 -41q-9 -22 -21 -45q-7 -14 -27 -50l-28 -49l-23 -42
l-17 -30q-6 -11 -14 -18q-3 -3 -7 -3q-6 0 -10 6q-9 9 -6 22q0 2 10 33l19 47l27 60l34 71l38 79l12 23q-4 1 -14 1t-19 -3h-2l-6 -5q-7 -6 -12 1q-4 4 -5 10q-1 2 -1 6q0 7 7 8q7 0 26 7q3 1 38 16q2 1 11 5l6 10l15 29q-4 4 -4 14q2 4 9 11l18 22q11 15 10 13l13 22
q3 5 6 10.5t8 12.5q10 18 28 45l27 36l23 30q9 13 20 8q11 -3 8 -11q-4 -7 -13 -16l-18 -22q-5 -6 -24 -31l-14 -21t-11 -16t-11 -16l-14 -21q-20 -28 -23 -34q-12 -18 -15 -23q-7 -11 -8 -13v0q-2 -1 -5 -1zM-40 248l3 7q-6 -4 -9 -5v0zM-42 225l-11 -22l-38 -79l-33 -71
q-19 -41 -26 -61q-13 -34 -16 -46q-4 -15 -6 -26l3 3l20 26q15 21 26 40l29 48q10 17 16 29l10 20q11 23 19 44q6 14 12 40q3 20 2 31q0 15 -4 20v0z" />
    <glyph glyph-name="g" unicode="g" horiz-adv-x="256" vert-adv-y="1500" 
d="M262 334q0 -4 -6 -10q-9 -1 -25 -8q-13 -5 -37 -19l-37 -23q-5 -18 -10 -31.5t-8 -22.5q-9 -28 -24 -56q-10 -19 -32 -57l-36 -58l-36 -57l-34 -50q-15 -23 -30 -39q-19 -20 -26 -26q-10 -7 -25 -9h-3q-12 0 -18 11q-5 7 -7 27v8q0 14 4 29q7 24 16 45q15 31 29 55
q21 38 38 60q28 38 43 54q35 37 46 46q13 11 48 38l27 20q16 10 23 16l4 3q7 26 8 46v12q0 12 -2 24q-3 14 -11 19q-7 4 -18 4q-9 0 -25 -8l-13 -7v-5q0 -2 -1 -5t-1 -5q0 -7 -4 -7q-3 0 -3 -4q-5 -6 -7 -6q-5 0 -8 9q1 2 -1 5q-12 -9 -24 -21l-26 -26l-18 -20q-6 -4 -8 -4
q-4 0 -10 4q-11 9 -5 18q5 8 17 24l22 28q13 17 24 24q15 11 22 12h5q5 0 13 -2q5 -2 7 -5l12 6q20 11 32 12h5q12 0 23 -7q12 -8 17 -27q3 -12 3 -24q0 -5 -2 -19q-5 -25 -7 -34l25 16l38 22l26 13v0q11 -3 11 -8zM50.5 364.5q-2.5 -0.5 -7.5 -3.5q-12 -7 -23 -18l-16 -18
l22 18l28 23v0q-1 -1 -3.5 -1.5zM141 263l-17 -13l-25 -18q-9 -7 -48 -38q-21 -17 -45 -44q-21 -23 -42 -53q-26 -38 -37 -59q-19 -36 -26 -55q-11 -29 -13 -43q-3 -17 -1 -32q1 -8 4 -17q2 -5 7 -5q6 0 15 5q15 8 25 21q15 17 30 37l23 31q1 2 11 17l37 58l35 58
q17 32 20 38l10 19q15 29 24 54v0q5 13 13 39z" />
    <glyph glyph-name="h" unicode="h" horiz-adv-x="194" vert-adv-y="1500" 
d="M310 768q0 -5 -1 -8q-3 -10 -16 -34q-9 -16 -24 -40q-22 -31 -30 -41l-26 -35l-17 -22l-55 -75l-54 -75l-38 -54q-7 -10 -12 -17.5l-9 -13.5q-4 -5 -6.5 -9.5t-5.5 -7.5t-6 -9l-9 -3l-30 -54l-12 -22l18 20q13 15 41 41q27 25 40 33q22 14 34 16l6 1q9 0 19 -10
q9 -10 9 -26q0 -20 1 -28q2 -13 7 -21v-2q0 -9 -7 -9q-3 0 -9 3q-7 14 -8 26l-3 28q-2 14 -4 18q-3 4 -11 4t-27 -11q-10 -6 -39 -31q-7 -6 -40 -39q-13 -13 -39 -47q-21 -28 -30 -46q-5 -10 -12 -17l-2 -3q-9 -14 -12 -2q-3 2 0 6q0 14 11 26l27 33q31 52 36 62l29 54
q-3 3 -3 13q4 4 7 10q4 6 14 16l11 12l57 101q9 16 18 30l33 56l17 26l27 42l26 36l15 21l35 48l28 37q7 10 15 10q3 0 8 -3v0q8 -5 8 -14zM271 714q7 12 10 18q7 11 11 26q-11 -7 -30 -29q-26 -30 -37 -46l-41 -56l-12 -18q-19 -26 -33 -49l-52 -86l-39 -66q4 5 11.5 14
t18.5 23q9 13 29 39l26 34l56 75q15 20 41 59l28 41v0q6 9 13 21z" />
    <glyph glyph-name="i" unicode="i" horiz-adv-x="119" vert-adv-y="1500" 
d="M118 338q7 0 7 -6l-2 -8l-25 -15l-31 -21q-4 -2 -35 -23q-16 -10 -33 -23q-14 -8 -30 -10q-16 0 -14 15q0 12 7 29q6 15 15 30l9 16q-1 4 0 11q4 4 10 12l8 11l2 4q3 9 12 3q2 0 8 -4q11 -9 2 -15q-8 -5 -19 -18q-9 -12 -18 -27q-4 -7 -14 -29l-6 -19q-1 -2 -0.5 -2.5
t1.5 0.5q2 2 18 10q18 9 33 19q9 5 36 22q19 14 31 21l23 17v0h5zM29 400q0 5 3 9h2l1 7q1 2 4 2q1 1 3 1q3 0 7 -3q8 -7 7 -14q0 -5 -4 -8q0 -2 -3 -4q-4 2 -5 2l-2 -1v0q-13 1 -13 9z" />
    <glyph glyph-name="j" unicode="j" horiz-adv-x="145" vert-adv-y="1500" 
d="M151 335q0 -3 -6 -9q-14 -3 -27 -10q-15 -6 -36 -18q-9 -5 -44 -27q-6 -4 -15 -11t-15 -11l-20 -15l-32 -28l-15 -13l-33 -57l-38 -68l-37 -65q-17 -32 -36 -63l-34 -54l-25 -38q-6 -9 -18 -23q-6 -8 -18 -5t-12 14v4q0 5 4 21l15 34q19 37 26 50q18 34 37 62
q27 41 46 64q29 37 53 64q38 42 55 59q4 4 6 5l7 12l36 63l29 50q0 1 5 8q-3 -1 -4 -4q-5 -3 -8 -3q-7 0 -8 12q0 4 3 8q2 5 9 11q4 5 14 13l15 14q9 9 12 13l3 3q2 6 2 7q1 5 9 2q4 0 11 -6q12 -10 4 -13q-4 -3 -13 -12l-18 -24l-24 -36l-31 -50q-12 -17 -27 -44
q16 14 24 20q15 13 50 39q8 6 44 29l36 21l27 13v0q12 -1 12 -8zM-86 166q-18 -18 -36 -39q-24 -27 -53 -64q-26 -34 -45 -64q-26 -44 -34 -61q-15 -29 -22 -50q-8 -21 -9 -34q0 -8 -1 -10l13 13q8 9 27 35l34 53q13 21 37 63l12 22l24 43l39 68v0zM87 431q-2 0 -11 7t-4 15
q2 6 9 14q4 7 11 9h2q6 0 13 -6q9 -8 6 -15q-2 -6 -5 -8q-2 0 -4 -5q-9 -6 -13 -3q0 -5 -1 -7v0z" />
    <glyph glyph-name="k" unicode="k" horiz-adv-x="292" vert-adv-y="1500" 
d="M343 822q0 -4 -9 -13q-18 -18 -34 -39l-54 -74q-8 -10 -11 -16q-2 -1 -4 -5l-29 -46q-7 -9 -15 -27l-12 -8l-32 -48q-9 -15 -29 -45q-33 -51 -61 -97l-13 -21l-18 -30q3 -1 10 -1h4q7 0 11 1q23 24 55 53q21 19 64 50q35 24 48 31q7 5 17 5q7 0 11 -4q3 -4 3 -8
q0 -7 -8 -14q-2 -1 -34 -29q-25 -22 -47 -37q-26 -20 -48 -33q-27 -16 -42 -22q-7 -3 -21 -7l-0.5 -0.5l-0.5 -0.5l-16 -19q11 -16 22 -25q12 -10 29 -19q17 -6 34 -9q16 -3 38 -1q20 3 38 10q18 5 38 18q23 14 35 25l26 24q6 3 9 3q5 0 5 -4t-3 -10l-28 -24
q-20 -16 -37 -26q-22 -14 -40 -20q-19 -7 -42 -10q-7 -1 -21 -1q-13 0 -20 1q-23 4 -38 11q-22 10 -33 20q-12 9 -24 23q-2 -2 -25 -31q-6 -8 -19 -26t-20 -30q-18 -27 -22 -39q-6 -15 -15 -7l-4 5l-4 2q-5 3 -5 6q0 4 7 9l2 2q5 13 17 35q1 2 26 47l35 58q1 0 1 1v2
q0 5 6 11l5 3l29 46l44 66q10 14 28 42h-1q-9 0 -7 17l19 27l31 42l37 50l28 38q2 4 4 6v1q6 10 9 12l3 4q5 7 9 1l20 27l12 17l36 49q8 13 13 25q8 19 14 11q2 -1 2 -5q4 1 7 0v0q5 -2 5 -6zM10 312l-8 8l-1 -2l-37 -62q4 5 9 10.5t10 13.5v0q15 19 27 32zM65 359
q19 7 37 18q29 17 47 32q25 20 44 38q17 19 23 27q-16 -7 -45 -26q-31 -21 -63 -49v0q-23 -20 -43 -40zM19 335l4 -8l7 8v0h-11z" />
    <glyph glyph-name="l" unicode="l" horiz-adv-x="413" vert-adv-y="1500" 
d="M485 883q0 -4 -2 -12q-7 -22 -19 -40q-13 -21 -36 -51q-21 -29 -49 -62l-62 -72q-34 -40 -72 -81q-48 -52 -75 -79l-23 -23q-41 -44 -45 -48q-23 -23 -51 -55q-7 -8 -32 -36l-17 -18l-5 -4q-10 -27 -11 -31q-8 -21 -24 -70q-9 -31 -12 -55q-1 -6 -1 -16q0 -14 3 -23
q4 -14 15 -23q13 -8 29 -11q5 -1 16 -1q16 0 24 2q23 4 52 18q26 12 60 35q25 16 65 45l62 49q19 15 55 47l46 42l26 24q11 5 13 2q3 -3 -1 -9l-30 -25q-12 -12 -27 -24q-1 -1 -20 -17l-20 -17l-36 -30q-17 -14 -63 -50l-45 -33q-6 -4 -11 -7.5t-8 -5.5q-35 -23 -61 -37
q-30 -16 -54 -20q-15 -4 -32 -4q-9 0 -14 1q-21 1 -35 14q-15 12 -19 31q-2 6 -2 20q0 16 2 24q3 21 14 57q5 16 24 70l11 28q-9 5 -9 11q0 5 3 9q3 0 7 3q6 6 14 12q6 14 10 21q15 36 43 90q20 38 48 88q19 33 52 81q31 44 53 70q17 23 55 65q20 22 55 55q34 32 50 46
q33 27 44 34q17 11 35 16q8 2 11 2q9 0 18 -6v0q8 -6 8 -16zM470 888l-18 -3q-13 -3 -31 -12q-22 -12 -44 -30q-17 -13 -51 -43q-25 -24 -55 -55q-34 -36 -55 -63q-29 -38 -52 -70q-20 -27 -53 -81q-26 -44 -48 -87q-15 -29 -43 -89l-3 -6q14 12 23 21q16 15 54 53
q21 19 70 68l75 79l73 81l23 28q7 9 18.5 22.5t18.5 22.5q32 39 48 62q20 27 34 51q13 26 15 36v0q5 15 1 15z" />
    <glyph glyph-name="m" unicode="m" horiz-adv-x="371" vert-adv-y="1500" 
d="M374 321q-1 -3 -9 -3l-20 -5q-7 -2 -15 -4.5t-17 -4.5q-18 -7 -37 -10q-13 -4 -36 -6h-10q-15 0 -22 1q-16 3 -26 12q-11 8 -14 22q1 -3 -4 15l-16 -10q-9 -5 -32 -21q-11 -8 -22 -8q-5 0 -8 1q-16 3 -12 15q6 17 9 23l10 17q-14 -5 -31 -17q-5 -3 -41 -26
q-22 -15 -36 -28q-10 -10 -20 -10q-3 0 -11 4q-12 9 -4 15q3 4 10.5 11t11.5 10l32 28l10 10q0 2 1 3l9 11l16 17q3 3 7 9q2 2 4 6q1 5 7 5q2 2 5 2q5 0 12 -7t7 -11q0 -5 -6 -8l-23 -17q-4 -7 -9 -12l-4 -6l14 9l32 20q15 9 26 8q14 0 12 -14v-4q0 -11 -6 -19
q-4 -4 -10 -14l30 15q18 9 26 17q3 2 9 2t13 -4q12 -10 9 -18q-2 -10 -1 -13q0 -4 4 -10q7 -5 15 -6q8 -2 26 -4q22 2 32 5q16 1 36 8l32 11q11 4 19 9q7 4 11 1v0q9 -12 5 -22zM27 336h-3q-6 -4 -9 -7v0z" />
    <glyph glyph-name="n" unicode="n" horiz-adv-x="223" vert-adv-y="1500" 
d="M229 338q0 -2 -4 -10q-20 -13 -23 -16q-7 -3 -16.5 -10t-15.5 -11q-13 -11 -32 -21q-14 -9 -32 -13q-7 -3 -14 -3t-15 4q-13 6 -19 20q-3 9 -3 19q0 7 1 11l6 28l4 17q-2 -2 -6 -5t-11 -8q-23 -17 -45 -37q-25 -22 -40 -43q-11 -12 -17 -17l-7 -5q-7 -5 -8 4q-9 1 -6 7
q7 12 12 16q8 8 20 23l22 28l14 19l8 18q0 1 9 16q2 4 4 5q2 3 7 3t11 -3q7 -4 7 -10q0 -4 -4 -8q-3 -3 -7.5 -8t-10.5 -13l-1 -3q7 6 13 10.5t11 8.5q21 17 36 15t14 -12q-1 -6 -3 -13t-3 -12q-5 -10 -9 -24q-1 -3 -1 -8t2 -11q5 -8 8 -9h17q14 1 28 10q28 17 30 19
q18 10 31 22q6 4 12 8.5t12 8.5v0q14 0 14 -7z" />
    <glyph glyph-name="o" unicode="o" horiz-adv-x="174" vert-adv-y="1500" 
d="M179 332q0 -4 -3 -9l-19 -7q-7 -2 -13.5 -3.5t-12.5 -3.5q-17 -6 -30 -8q-29 -6 -31 -6q-22 -2 -31 -1l-17 -26q-12 -17 -18 -21q-10 -6 -21 -3t-12 15v6q0 9 3 19q6 18 10 27l7 15q-4 10 -4 16q0 16 6 27q7 12 21 23l25 17q14 8 26 9h4q12 0 16 -6q7 -9 7 -16
q0 -11 -4 -20q-5 -14 -11 -22q-7 -10 -17 -28l-8 -14q10 0 16 1t15 1.5t15 2.5l28 8l24 9l18 8v0q11 -3 11 -10zM65 393q0 -4 -5 -9l-3 -3q-2 -2 -14 -19q-4 -7 -7 -12.5t-5 -9.5q-7 -13 -8 -15l-3 -7l3 -1q4 -2 10 -4l14 21q8 11 15 27l7 20q3 10 1 12l-1 1l-3 1v0zM9 361
q-2 -4 -2 -7l4 6l14 19l-1 -1v0q-13 -13 -15 -17zM21 297l-7 3q-7 3 -12 8l-1 -4q-9 -16 -10 -25l-2 -13q2 2 3 2q6 0 16 13v0q14 18 13 16z" />
    <glyph glyph-name="p" unicode="p" horiz-adv-x="217" vert-adv-y="1500" 
d="M184 412q0 -19 -11 -38q-10 -17 -27 -43q-15 -22 -33 -45q-20 -25 -38 -40q-15 -15 -36 -29q-15 -11 -29 -18q-12 0 -12 6q0 2 5 9q13 5 29 15q22 14 35 26q21 19 36 38q20 25 32 45q12 18 23 42q9 20 9 30q-2 10 -6 13q-2 2 -7 2q-3 0 -13 -2q-13 -3 -33 -16
q-20 -15 -39 -34l-41 -43q-18 -21 -53 -73l-2 -4l-43 -86l-48 -105l-9 -21q-8 -17 -31 -71q-17 -44 -21 -59v-1q-1 -3 -0.5 -4.5t0.5 -2.5v-1q0 -2 -2 -3.5t-5 -0.5q-4 -4 -11 -4q-13 0 -9 11l12 31l16 47q10 29 34 78q27 55 54 101q28 52 55 93l10 20l19 38q-6 0 -11 12
q0 4 8 20q8 11 22 37q9 19 31 53l34 50l28 38l12 16q2 4 2 7q3 9 10 6h2q5 0 10 -4q6 -4 6 -9t-5 -8q-8 -6 -25 -26q-27 -39 -37 -55q-24 -38 -49 -83l-30 -57q15 21 19 26q13 15 40 45q23 23 40 36q15 13 37 20q7 3 15 3q7 0 17 -4v0q14 -8 14 -24zM24 370l1 1l39 71
l-9 -14q-20 -34 -28 -53v0zM-70 183l-14 -24q-27 -50 -51 -102q-26 -60 -31 -78l-5 -20l6 14q23 54 31 71l9 21q35 77 49 105v0z" />
    <glyph glyph-name="q" unicode="q" horiz-adv-x="227" vert-adv-y="1500" 
d="M230 340q3 0 3 -2q0 -3 -6 -11q-20 -15 -40 -32q-27 -22 -49 -44q-24 -24 -51 -54q-23 -27 -51 -65q-25 -34 -47 -70q-24 -39 -36 -65q-12 -23 -18 -45q-1 -7 -4.5 -9.5t-8.5 1.5l-4 3h-2q-7 2 -7 5t5 10l8 12l13 30q14 33 25 57l37 79q17 40 39 83q6 13 34 73l25 56
q6 11 10 26l-26 -24l-41 -41l-35 -39q-12 -15 -28 -22q-2 -1 -6 -1q-7 0 -7 11q0 14 13 37q16 30 25 45q14 25 25 40q8 13 23 26q8 7 22 11h5q7 0 13 -3t8 -7q0 -19 -16 -15q0 1 -1 2l-1 1q-1 -1 -6 -1q-6 0 -14 -5q-11 -9 -20 -20q-14 -15 -26 -36q-10 -15 -26 -43l-12 -22
q8 8 17 15q17 14 38 35q29 28 42 41l34 33q10 8 16 8q4 0 9 -3q5 -2 5 -9t-5 -13q-12 -15 -21 -33l-13 -26q-10 -18 -15 -29l-12 -24q-4 -8 -10.5 -20t-13.5 -28l-40 -82l-37 -79l-11 -27q7 12 23 36q20 33 48 70q10 14 52 66q24 28 51 55q17 18 49 46l40 33v0q8 3 10 3z
" />
    <glyph glyph-name="r" unicode="r" horiz-adv-x="153" vert-adv-y="1500" 
d="M133 375q-7 -7 -15 -7q-6 0 -11 4l-1 4l-1 3q0 2 -8 2q-9 0 -15 -1q-11 -2 -21 -7q-16 -8 -25 -17q-4 -4 -12 -11t-13 -14l-12 -16l-7 -14q-5 -10 -8 -18t-5 -14q-6 -13 -14 -21q-3 -3 -6 -3q-5 0 -6 7q-1 3 -1 9q0 8 4 15q14 22 20 31l13 19l10 20q9 15 17 38
q6 17 16 14q11 -3 10 -7l-1 -4q0 -3 -3 -9q5 4 15 10q12 7 25 11q10 3 21 3q13 0 18 -3q8 -5 12 -10v0q4 -7 4 -14z" />
    <glyph glyph-name="s" unicode="s" horiz-adv-x="125" vert-adv-y="1500" 
d="M131 335q0 -4 -9 -9q-13 0 -34 -8q-20 -8 -43 -25q-16 -10 -23 -16q2 -6 2 -8q4 -14 2 -31q-3 -16 -9 -24q-7 -12 -15 -20q-12 -10 -23 -14q-6 -3 -11 -3q-7 0 -12 4q-10 8 -11 21q0 16 14 33q18 21 34 35l11 9l-4 16q-3 6 -10 28q-3 8 -3 15q0 3 2 9q3 11 8 20
q8 12 13 17q8 9 16 12q7 4 17 4q9 -2 13 -12q1 -3 1 -8t-3 -10l-11 -14l-13 -14l-10 -10l-8 -7h-2l6 -25l3 -10l19 14q16 11 45 26q21 9 37 12v0q11 -3 11 -7zM10 250q0 5 -2 15q-2 -1 -6 -5q-18 -16 -28 -34q-9 -16 -9 -22q1 -1 1 -3t1 -3q1 -3 8 -1q6 4 13 11l13 16
q5 9 8 18v0z" />
    <glyph glyph-name="t" unicode="t" horiz-adv-x="247" vert-adv-y="1500" 
d="M569 613q-8 -8 -11 -1v-1q0 -5 -9 -2q-34 4 -31 4q-19 3 -47 3q-19 1 -64 1q-15 1 -28 0.5t-22 -0.5h-32q-66 -2 -97 -4l-21 -1q-12 -16 -18 -25q-20 -27 -24 -35h-1q-10 -4 -15 0l-44 -62q-16 -23 -55 -82q-20 -32 -39 -66l-11 -18q-21 -40 -40 -79q-15 -35 -27 -66
q-13 -33 -14 -47v-8q0 -10 1 -12q4 -4 8 -3q5 0 23 5q22 8 41 20q26 16 51 35q19 13 57 45q31 25 55 46l46 41q13 11 21 19t14 13l1 1v1q2 0 3 1q5 5 11 3q3 -1 3 -3q1 -2 -2 -7q-5 -6 -10 -9l-4 -4l-10 -8l-2 -2l-17 -15l-47 -40l-54 -46l-57 -46q-33 -26 -52 -38
q-22 -16 -41 -24q-15 -8 -31 -8h-2q-15 0 -20 13q-2 5 -2 14q0 11 2 17q4 16 17 50q24 56 29 66q10 21 41 79q19 37 50 85l55 83l48 69l0.5 0.5l0.5 0.5v1l9 10q12 18 24 33l-46 -3l-79 -8q-30 -3 -57 -9q1 -9 0 -13q-1 -1 -2 -3t-3 -3h-3q-6 0 -8 5q-9 0 -15 -1
q-12 0 -24 -3q-14 -2 -20 -4q-8 0 -13 4q-2 0 -2 2h-1q-3 3 -3 6q0 4 5 7q8 5 30 8l34 5l12 3q5 0 6 -1q38 6 63 8l79 6q9 1 22.5 2t31.5 1q9 10 12 16l38 47l29 33q15 19 16 21q2 4 5 4q4 1 9 -2q3 -1 3 -4q4 0 5 -3q3 -4 3 -9q-2 -3 -6 -6q-12 -7 -21 -15l-2 -2
q-20 -23 -43 -52q-11 -13 -20 -26h14q31 2 97 4q62 2 82 2l64 1q19 -1 48 -1q15 0 33 -2v0q12 0 17 -12z" />
    <glyph glyph-name="u" unicode="u" horiz-adv-x="176" vert-adv-y="1500" 
d="M170 345q15 0 12 -16q-3 -4 -14 -13q-2 -1 -24 -14q-11 -10 -29 -18t-33 -8q-16 0 -21 14q-3 10 -1 21l-17 -12q-27 -18 -35 -23t-15 -5q-6 0 -11 5q-6 8 -6 16q0 3 2 9l3 6q-5 4 -3 17l13 13q3 5 15 17l1 2l2 4q5 9 14 11q4 2 7 -1q11 -4 5 -11v-2q0 -5 -5 -12
q-6 -5 -22 -25q-9 -13 -12 -23l5 1q19 6 33 15q24 16 35 25l2 1l4 5l13 21q3 3 6 3q5 0 10 -6q10 -9 3 -16q2 -5 -1 -6q-4 -1 -13 -10t-12 -18q-4 -10 -3 -12q0 -3 8 -3q7 0 21 6q12 4 27 13l10 8t10 9q5 6 13 12v0h3z" />
    <glyph glyph-name="v" unicode="v" horiz-adv-x="193" vert-adv-y="1500" 
d="M189 447q0 -5 -7 -9h-1q-4 0 -17 -9q-15 -11 -31 -25q-13 -12 -35 -37q-24 -28 -35 -43l-30 -40l-23 -34q-8 -12 -22 -14q-15 0 -12 12q1 9 8 28l16 40q-2 -1 -5 -1q-9 0 -12 14l9 15q1 2 18 28l20 34q11 15 15 25l2 3q0 2 1 3q2 5 5 5l2 1q1 1 4 1q6 0 10 -6q6 -9 2 -14
l-16 -22l-21 -39l-21 -48q-14 -37 -16 -43q0 -3 -2 -7q10 9 26 28q10 10 32 39q13 19 36 43q19 23 35 38q17 17 32 28q15 12 26 15v0q7 -4 7 -9z" />
    <glyph glyph-name="w" unicode="w" horiz-adv-x="284" vert-adv-y="1500" 
d="M304 429q0 -3 -3 -8q-11 -6 -23 -16t-28 -30q-34 -44 -31 -40l-29 -41l-22 -33q-7 -12 -20 -19q-2 -1 -6 -1q-9 0 -10 8q-4 10 -2 25l3 33q2 20 0 35q-2 24 -2 23q-1 5 -7 4q-5 -1 -22 -13q-16 -10 -42 -36l-47 -48q-20 -20 -37 -42q-11 -13 -19 -13q-5 0 -8 3
q-12 8 -6 20l17 31q7 14 23 42q3 6 4 7q1 8 5 17q2 8 16 36q15 26 28 42q5 6 11 12.5t12 13.5q6 16 14 8q5 0 9 -3q5 -5 5 -8q0 -5 -8 -13q-14 -11 -28 -30q-12 -15 -30 -43l-9 -13l-3 -7q-3 -10 -3 -25q-4 -9 -8.5 -11t-7.5 3l-18 -34l-8 -17q21 14 40 33l49 47l41 38
q17 14 30 18q2 1 7 1q10 0 14 -11q8 -14 6 -31q0 -6 -0.5 -15t-2.5 -22l-2 -33v-5l7 6q5 5 25 29l31 39q4 5 31 41q13 17 29 33q5 5 23 20v0q12 0 12 -7z" />
    <glyph glyph-name="x" unicode="x" horiz-adv-x="218" vert-adv-y="1500" 
d="M1 231q3 -3 4.5 -6.5t4.5 -6.5q19 -19 43 -19q9 0 14 1q13 2 31 13q14 8 34 28l26 27l62 60l2 2q2 2 2.5 4.5t-1.5 4.5q-5 5 -8 4q-6 -2 -8 -4l-15 -13q-14 -11 -30 -31l-19 -20l-23 -24q-18 -18 -32 -26q-13 -8 -27 -11q-3 -1 -10 -1q-15 0 -26 11q-10 10 -15 23
q-1 2 -1 5q0 5 3 9q17 21 34 40l61 63q7 7 13 5q3 0 6 3q2 2 12 17q4 5 -1 10q-4 4 -10 1l-5 -4q-1 -1 -13 -10q-24 -18 -64 -62l-31 -33l-5 -7q-3 -2 -5 -1l-1 14q0 19 8 41l7 17l3 7v3q0 6 -5 8h-2q-5 0 -8 -4l-3 -6q-3 -10 -8 -22q-2 -5 -4.5 -12.5t-4.5 -16.5l-1 -5
q0 -3 2 -9q1 -3 1 -9q0 -13 1 -19v-3q0 -6 -5 -13q-22 -28 -32 -43l-11 -19l-2 -6l-2 -6q-2 -3 2 -7q5 -5 11 1q1 1 7 10l34 49l5 5v0z" />
    <glyph glyph-name="y" unicode="y" horiz-adv-x="288" vert-adv-y="1500" 
d="M294 330q0 -5 -3 -11q-8 0 -15 -2q-12 -2 -25 -7l-33 -11q-12 -4 -40 -16q-24 -11 -53 -30l-2 -1l-5 -15q-14 -40 -28 -72q-17 -40 -36 -80q-14 -28 -44 -82q-15 -27 -47 -77q-27 -40 -48 -68q-20 -26 -48 -56q-23 -24 -42 -42q-20 -18 -36 -27q-10 -6 -20 -6q-7 0 -13 3
q-17 6 -21 27q-1 5 -1 18q0 17 4 34q5 25 22 64q18 37 39 71q15 24 49 70q30 38 58 69q29 30 70 68q37 34 74 62q27 22 57 43q2 8 11 42q3 14 5 42q2 19 0 27q-2 9 -1 10h1l-10 -6q-4 -2 -25 -17l-28 -23q-4 -3 -29 -23q-12 -10 -26 -15q-2 -1 -6 -1q-9 0 -12 10q-3 8 -3 14
q0 7 3 13q2 5 5.5 12t7.5 17l10 26q-4 -2 -5 -2q-4 0 -4 7q0 2 3 8q2 4 12 14q4 2 7 2l4 1q9 0 12 -11q2 -6 2 -10q0 -6 -5 -16q-6 -8 -17 -28q-8 -17 -11 -26l10 5q11 6 29 18q10 7 17 13t12 10l25 20q10 9 23 12l5 1q9 0 15 -9q6 -10 6 -23q-2 -22 -5 -33l-10 -43l-7 -24
q14 9 43 26q20 11 40 19q8 4 33 14l25 10q8 4 15 8v0q10 -7 10 -17zM103 239q-6 -4 -46 -34q-37 -28 -74 -62q-30 -26 -68 -68q-33 -37 -58 -68q-28 -37 -48 -70q-26 -45 -36 -69q-15 -33 -18 -62q-2 -9 -2 -24q0 -14 2 -18q4 -14 9 -18q1 -1 4 -1q6 0 15 4q17 9 33 23
q19 15 42 39q27 29 47 55q20 24 49 67q20 30 46 75q24 40 43 83q22 44 36 79v0q14 36 24 69z" />
    <glyph glyph-name="z" unicode="z" horiz-adv-x="198" vert-adv-y="1500" 
d="M204 324q0 -4 -4 -12h-11l-18 -4l-30 -12q-26 -13 -41 -22q-24 -15 -42 -28q-2 -12 -6 -25q-6 -21 -15 -46q-12 -31 -22 -54l-28 -56l-19 -32l-12 -20q-16 -24 -33 -45q-9 -13 -30 -36q-13 -16 -25 -25q-10 -8 -23 -10q-13 0 -19 12q-4 7 -4 19q0 8 1 12q1 17 11 44
q9 26 24 54q15 29 34 55q21 32 43 55q21 24 51 52q26 24 54 45l2 13q0 17 -1 24l-4 12q-2 2 -5 3h-2q-5 0 -12 -4q-12 -7 -17 -13q-7 -5 -14 -2q-3 0 -4 3q-7 6 -3 11q0 6 7 9l7 3q4 3 13 12q21 21 31 33q16 18 26 34q2 2 4 6q-8 -5 -24 -19l-27 -25q-11 -13 -11 -17
q-2 -1 -7 -1q-10 0 -11 17q2 5 15 15q15 10 30 24q22 16 33 23q9 6 18 6q6 0 10 -3q11 -8 5 -16q-3 -4 -8 -9.5t-12 -12.5l-30 -31l-24 -25q4 1 10 1q12 0 19 -9q8 -8 8 -22q0 -7 -2 -25q17 13 34 23l41 25l30 15l19 9q4 3 12 5v0q8 -6 8 -13zM38 230q-21 -16 -45 -38
q-27 -24 -51 -51q-25 -30 -41 -54q-16 -23 -33 -55q-13 -25 -21 -52q-6 -24 -6 -40q2 -18 3 -20l4 -4h1l11 5q12 8 24 20q8 8 30 34q19 24 32 45q17 24 31 50q16 30 27 56l21 53q8 24 12 45v0z" />
    <glyph glyph-name="braceleft" unicode="{" horiz-adv-x="366" vert-adv-y="1500" 
d="M468 718q0 -16 -15 -9q-1 1 -0.5 1.5t0.5 -0.5q0 -2 -12 -8q-5 -1 -13 -7.5t-13 -12t-8 -8.5q-24 -32 -41 -58q-12 -18 -23 -38.5t-15 -27.5q-12 -22 -31 -60q-9 -16 -29 -48q-7 -12 -28 -39l-28 -27q-14 -13 -21 -17q-11 -7 -7 -7q3 0 -2 -6q-1 -2 -2.5 -6.5t-3.5 -11.5
q-5 -13 -13 -28q-3 -7 -8 -14.5t-9 -16.5q-6 -9 -11 -17.5t-9 -14.5q-3 -6 -9 -16t-10 -18q-6 -11 -11 -20.5t-9 -17.5q-17 -36 -19 -42q-10 -19 -16 -40q-5 -16 -7 -31q-1 -3 -1 -8q0 -7 2 -13q2 -7 8 -14q7 -7 11 -9q6 -3 16 -3q7 -4 7 -10q0 -7 -8 -12q-15 0 -24 5
q-12 6 -19 16q-7 7 -9 22q-2 10 -2 14q0 5 2 15t5 18.5t5 14.5q18 43 17 41q12 30 18 43q17 33 20 39q6 13 11 21.5t8 13.5q11 16 18 31q8 12 16 31q5 13 8 26q2 16 2 20q0 5 8 13q5 2 9 4.5t8 4.5q5 1 11 5.5l10 7.5q8 5 27 24q24 30 29 37q18 26 28 47q9 13 33 58
q31 57 38 68q23 39 39 61q22 29 35 38q16 10 26 7q10 -2 11 -6v0v-5z" />
    <glyph glyph-name="bar" unicode="|" horiz-adv-x="220" vert-adv-y="1500" 
d="M146 546l-1 -7q-6 -22 -11 -59q-5 -26 -13 -78q-6 -39 -9 -64l-3 -32l-4 -4l-6 -73l-4 -67q0 -29 -3 -58q-6 -16 -11 -16t-9 17q1 21 5 58l5 67q5 50 7 68q-8 3 -13 14q0 3 8 32q11 36 16 62l1 8l8 74q4 35 4 62q0 22 17 25q3 1 8 1q10 0 10 -8v-10v0z" />
    <glyph glyph-name="braceright" unicode="}" horiz-adv-x="429" vert-adv-y="1500" 
d="M429 630q0 -2 -2 -10q-1 -7 -5 -15.5t-6 -11.5q-2 -6 -8 -15t-9 -15q-5 -7 -9.5 -14.5t-9.5 -13.5q-4 -10 -19 -30l-28 -37q-3 -5 -32 -47q-17 -25 -28 -44q-3 -6 -9 -17t-8 -18q-9 -22 -10 -27l-4 -21q0 -3 -0.5 -6t0.5 -6q0 -7 1 -8l1 -2q1 -1 0.5 -2.5t-0.5 -3.5
l-3 -6q0 -3 -4 -7l-4 -8q0 -1 -5 -1t-8 -4l-8 -8q-7 -7 -10 -13q-1 -1 -9 -14l-11 -24q-3 -7 -14 -38l-14 -41q-8 -29 -11 -38q-1 -5 -8 -31l-6 -14t-6 -13q-3 -11 -16 -23q-9 -9 -23 -17t-27 -13q-15 -8 -27 -12q-5 -2 -10.5 -4.5t-11.5 -4.5q-11 3 -11 10q0 3 5 10l21 6
q8 3 14.5 6.5t11.5 5.5l24 12q8 4 20 14l14 18q8 19 10 25q6 11 11 31q1 4 4.5 12.5t7.5 23.5l13 42l11 38q5 22 9 28q2 6 8 19q3 5 6 8.5t5 5.5l13 13q3 3 6 4.5l5 2.5v2q0 8 1 14l4 16l8 23q4 13 12 27l20 34q23 36 29 46l31 46q15 24 26 40q8 16 19 29q4 5 17 27
q6 9 15 30q4 7 6 22q0 8 1 9h-3q-3 2 -3 4q0 5 -4 2q-8 5 -8 8q0 5 7 9l9 2q3 2 10 0q3 -1 6.5 -6t5.5 -7v0q4 -8 4 -14z" />
    <glyph glyph-name="asciitilde" unicode="~" horiz-adv-x="326" vert-adv-y="1500" 
d="M52 301l12 12l16 11q15 6 18 7q9 1 13 0q5 0 10 -3l14 -8q16 -8 20 -9q11 -5 23 -3q17 0 26 3q16 3 25 7l21 8q4 3 7.5 5t6.5 4q7 3 11 9q0 7 -3.5 10t-10.5 2l-7 -8q-4 -4 -12 -8q-3 -3 -18 -9q-9 -4 -23 -7q-8 -2 -23 -2q-12 0 -18 3q-12 6 -16 9l-15 9q-8 5 -16 5
q-9 0 -18 -3q-5 -1 -11 -4t-9 -4q-10 -3 -22 -12q-6 -6 -14 -12l-7 -9q1 -19 16 -11v0q0 4 4 8z" />
    <glyph glyph-name="uni007F" horiz-adv-x="300" vert-adv-y="1500" 
 />
    <glyph glyph-name="uni00A0" unicode="&#xa0;" horiz-adv-x="300" vert-adv-y="1500" 
 />
    <glyph glyph-name="exclamdown" unicode="&#xa1;" horiz-adv-x="273" vert-adv-y="1500" 
d="M198 414l-2 -2q-2 -7 -8 -11q-12 -10 -27 -30q-15 -18 -32 -44l-31 -50l-29 -49l-25 -43l-15 -31q-7 -5 -9 -5q-6 0 -5 13q6 8 18 29l26 43l12 20q-7 1 -7 16l17 21q5 5 15 19q4 6 14 18l29 37q6 10 10 15q16 23 22 35q5 9 13 11q3 3 7 -1v0v0q13 -4 7 -11zM238 497
q13 0 13 -11q0 -3 -2 -9q-4 -4 -7 -4q-14 2 -17 16q1 3 5 7v0q3 1 8 1z" />
    <glyph glyph-name="cent" unicode="&#xa2;" horiz-adv-x="307" vert-adv-y="1500" 
d="M274 590q0 -4 -3 -9q-7 -12 -18 -33q-5 -8 -25 -46l-16 -32q1 -3 1 -8q0 -3 -2 -11l-9 -22l-9 -18q-4 -4 -6 -9q-2 -1 -5 -1l-3 -9q-7 -6 -13 -6q-7 0 -10 11l-12 -26q-21 -44 -24 -52l-14 -31q10 3 20 9q23 15 26 18q24 21 22 19l16 16h5q14 0 11 -17q-5 -4 -9.5 -8
t-8.5 -7q-5 -4 -11 -8.5t-13 -10.5q-6 -4 -12.5 -9.5t-14.5 -10.5q-10 -7 -30 -15q-8 -2 -12 -2q-5 -19 -12 -37q-11 -36 -14 -53q-7 -10 -9 -10q-4 0 -6 14l19 53l13 33q-8 2 -9 2q-13 5 -21 20q-6 14 -5 31q0 16 8 35q9 23 19 37q14 19 29 35t32 30l28 23q14 8 23 10
q10 23 26 52l17 34l13 25q4 11 11 11q4 0 9 -3v0q8 -8 8 -14zM166 437q1 2 2 5t4 7q-5 -2 -11 -6.5t-10 -6.5q-14 -9 -31 -26q-18 -18 -27 -32q-12 -18 -17 -33q-7 -21 -6 -30q0 -11 4 -21q8 -8 10 -9h11l17 37v0q24 55 54 115z" />
    <glyph glyph-name="sterling" unicode="&#xa3;" horiz-adv-x="409" vert-adv-y="1500" 
d="M364 261q0 -2 -4 -10l-20 -9q-12 -2 -25 -6l-30 -7q-22 -4 -37 -4q-5 -1 -16 -1q-14 0 -21 1q-17 3 -35 10q-17 6 -29 15l-11 5.5t-16 9.5l-18 9l-7 -8q-16 -16 -24 -21q-13 -10 -22 -12q-3 -1 -11 -1q-7 0 -11 1q-10 3 -12 15q-1 2 -1 6q0 6 4 16q7 12 12 17q4 5 7 8
t5 6q4 3 17 5q9 0 20 -3l23 -9q8 8 9 10q5 5 15 17t17 22l29 35q-3 0 -4 -1q-11 0 -35 -4q-4 -1 -9 -2t-9 -3t-6 -4h-6q-5 0 -7 2l-1 1q-4 0 -6 13v2q0 9 12 9q8 -1 30 -1q6 0 17 1t18 2q14 2 20 2q18 23 36 42q7 9 21 23v4q0 5 1 9q6 3 15 12l13 12l5 7q6 10 13 1l2 -3
l4 -2q5 -3 5 -7q0 -3 -6 -8q-9 -4 -27 -20l-3 -3q-4 -4 -6 -5h-1l-27 -28q-15 -15 -29 -32h2l36 2q24 2 34 2l26 -2q7 -6 7 -10q0 -5 -10 -8q-5 1 -12.5 2t-11.5 1h-32q-10 0 -36 -2l-17 -2q-14 -16 -36 -44q-9 -13 -31 -40q-2 -2 -3.5 -4.5t-2.5 -3.5q2 -2 14 -7
q6 -5 14 -9t12 -7q9 -6 16 -9.5l11 -5.5q15 -7 31 -9q10 -2 34 -2q16 1 35 5l29 8q9 4 23 8l18 9v0q12 -1 12 -8zM85 277l2 1q-7 3 -12 3q-9 2 -14 0h-7q-3 0 -8 -7q-5 -5 -7 -13l-3 -8v-3l9 2q3 0 9 3t9 4v0q8 6 22 18z" />
    <glyph glyph-name="currency" unicode="&#xa4;" horiz-adv-x="265" vert-adv-y="1500" 
d="M265 438q0 -3 -2 -9q-9 -5 -19 -14l-15 -14q-6 -4 -10 -9h-6q-10 0 -12 6v-3q0 -2 -2 -10q-6 -15 -14 -29q-16 -22 -25 -32q-8 -10 -26 -26l10 -5l2 -11l3 -16l1 -20q0 -9 3 -15q-7 -9 -15 -9q-5 0 -12 5q-1 5 -1 17q0 6 -2 18q-3 11 -3 14l-2 8l-18 -9q-10 -4 -15 -4
q-3 0 -9 2q-2 -1 -9 -8t-15 -12q-9 -7 -16 -15h-5q-7 0 -10 4.5t-2 12.5q4 3 8 7.5t9 8.5q9 11 14 13l10 10h1q0 8 6 26q2 4 13 27q8 12 15 26q5 9 13 8l16 16q13 12 27 18q8 4 26 8h3q11 0 17 -12q1 -1 1.5 -3.5t1.5 -3.5q0 6 2 9l11 9q11 8 17 12l20 15v0q15 0 15 -11z
M179 389l1 8q0 -1 -4 -1q-2 0 -16 -4q-10 -3 -23 -12l-13 -11l0.5 -0.5l0.5 -0.5q1 -6 -1 -12q-2 -1 -4.5 -2t-5.5 -2q-3 -2 -7 -7l-6 -11l-5 -3q-5 -8 -9 -19l-3 -14l1 -3q0 3 8 4t25 12q18 13 28 25q13 13 22 29v0q9 13 11 24zM85 424q-2 12 -2 18t2 20q8 6 13 6
q7 0 14 -10q-1 -5 -1 -16q0 -9 1 -13l3 -11q4 -6 2 -9q0 -5 1 -8q-1 -13 -10 -13q-5 0 -12 4q0 4 -4 8q-1 1 -2.5 4l-2.5 5v0q0 5 -2 15z" />
    <glyph glyph-name="yen" unicode="&#xa5;" horiz-adv-x="285" vert-adv-y="1500" 
d="M290 488q0 -7 -6 -13q-8 -5 -27 -20l-44 -33l-16 -12l-10 -12q-6 -7 -10.5 -13.5t-8.5 -11.5q-11 -16 -21 -29l-31 -46q5 0 17 2q6 0 18 1t19 2q10 -3 10 -9q0 -5 -10 -9q-8 0 -36 -2q-7 -1 -14.5 -2t-14.5 -2q-16 -27 -31 -55q-12 -26 -11 -32q0 -3 3 -9q-4 -11 -15 -11
q-6 0 -10 2q0 6 4 17q5 14 18 38q20 37 26 47l-29 -5q-6 -1 -10.5 -2t-7.5 -2q-13 4 -13 11q0 6 9 13l18 2l33 3l14 1q8 14 13 21q5 6 20 33l20 29v-1l-53 -38q-14 -10 -27 -10q-7 0 -10 2q-9 5 -9 16q0 3 2 11q3 10 22 48l31 60l3 5l-0.5 -0.5l-0.5 -0.5q-16 -20 -24 -32
l-17 -28l-10 -19q-4 -10 -4 -11q-6 -3 -11 -3q-9 0 -12 15q0 1 6 11q3 4 6 8.5t6 9.5q6 10 21 28q25 30 26 32l24 29q15 19 18 24q3 3 7 3q3 0 9 -7q4 -6 4 -9q0 -6 -7 -17q-12 -13 -31 -45q-18 -29 -33 -59q-14 -29 -19 -44q0 -7 -2 -11q3 4 24 13q25 9 53 30q3 2 32 22
q20 26 30 37q17 18 32 32q19 17 27 22q5 3 8 3q7 0 10 -8v0q3 -6 3 -10z" />
    <glyph glyph-name="brokenbar" unicode="&#xa6;" horiz-adv-x="178" vert-adv-y="1500" 
d="M135 543q-1 -4 -1 -11q3 -3 3 -6q2 -2 2 -4l-2 -4q-1 -4 -1 -11q-1 -6 -10 -6l-1 -21q-2 -8 -12 -6q-1 -1 -1 -3t-1 -3q-17 3 -16 14q3 20 4 25l1 3l-2 4v4v0q-4 5 -3 9q4 8 7 22q2 4 2 6v17q0 12 13 15h6q9 0 13 -5v-1q8 -7 4 -15l-5 -15v0v-8zM111 377q4 -4 1 -10
q-7 -10 -16 -34q-6 -13 -18 -53q-7 -30 -12 -57q-3 -29 -2 -43l1 -15q11 -4 18 -20q-5 -9 -22 -8q-17 2 -20 13t-1 30q1 17 6 46l12 59q4 15 11 56q5 27 4 35v1q0 9 17 9q18 -1 21 -8v0v-1z" />
    <glyph glyph-name="section" unicode="&#xa7;" horiz-adv-x="385" vert-adv-y="1500" 
d="M385 582q0 -14 -6 -23q-7 -14 -15 -22q-7 -6 -12 -12l-7 -1q-15 0 -15 15q0 7 1 11l10 10q5 4 13 15q5 5 6 7h-5q-12 0 -29 -10q-18 -10 -29 -31q-13 -23 -14 -56q-3 -32 -12 -68q-9 -35 -23 -58q-15 -23 -33 -31t-32 -5q-4 10 -4 13q0 10 14 15q4 -3 15 -1q11 3 25 21
q13 19 20 51q8 31 10 66q1 32 16 63q13 28 35 42q21 14 44 17h5q18 0 21 -17v0q1 -4 1 -11zM186 409q-11 -3 -22 -10q-14 -12 -23 -22q-11 -14 -16 -30q-3 -9 -3 -22q0 -7 2 -27q4 -31 12 -70q10 -47 12 -74q1 -7 1 -21q0 -25 -8 -40q-10 -23 -31 -36q-19 -11 -42 -13h-10
q-16 0 -27 4q-5 8 -5 14q0 10 15 11q9 -5 26 -5q12 0 32 9q16 10 26 25q7 14 7 34q0 11 -1 17q-4 32 -12 72q-4 17 -16 71q-5 20 -5 33q0 10 4 24q7 25 19 40q12 17 26 29q17 12 29 18q16 7 29 4q14 -3 17 -14q1 -3 1 -8t-2 -11q-3 -7 -7 -11l-9 -2q-12 0 -12 12v0z" />
    <glyph glyph-name="dieresis" unicode="&#xa8;" horiz-adv-x="378" vert-adv-y="1500" 
d="M195 1067q4 -5 4 -10q0 -8 -2 -11l-6 -7q-3 -1 -4.5 -2t-2.5 -2q-2 -1 -4.5 -1t-5.5 -1q-6 0 -11 5t-5 10q0 1 0.5 3.5t2.5 5.5q1 0 1.5 1t2.5 1v3q0 3 3 3q2 4 6 5q3 2 10 2v0q6 0 11 -5zM277 1057q0 -6 -3 -11l-5 -7l-8 -4q-2 -1 -4.5 -1t-5.5 -1q-6 0 -11 5
q-5 7 -4 10q0 3 2 9q1 0 2.5 1t2.5 1q-1 1 -1 3q1 3 3 3q1 3 6 5q3 2 10 2q6 0 11 -5v0q5 -7 5 -10z" />
    <glyph glyph-name="copyright" unicode="&#xa9;" horiz-adv-x="326" vert-adv-y="1500" 
d="M176 607l2 2h1l-1 1l-11 -1q-12 -4 -18 -8l-17 -14q-9 -10 -10 -17v-10q0 -2 5 -2q7 0 12 2l19 5q11 -2 11 -6q0 -2 -5 -9q-11 -3 -20 -7q-12 -3 -22 -2q-11 0 -14 11q-1 4 -1 11t1 11q3 11 13 23q6 7 20 17q12 9 21 12q12 5 19 5q10 -2 15 -7q7 -5 4 -14q0 -7 -4 -13
q-3 -5 -6 -5l-5 -3q-2 -1 -6 -1t-5.5 2.5t0.5 8.5q1 1 1 5v0q0 2 1 3zM256 599q-4 -11 -11 -21q-9 -12 -25 -25q-12 -10 -39 -26q-30 -16 -43 -20q-21 -8 -37 -8h-3q-16 0 -23 9q-6 7 -12 23l-1 12q0 6 2 18q5 18 15 34q14 19 28 32q19 16 35 23q17 8 35 10q15 0 28 -5
q11 -5 19 -11q6 -6 9 -12l2 -8q-3 -9 -8 -9q-4 0 -9 4q-2 5 -3 5q-3 3 -5 7q-4 6 -13 10q-10 4 -20 4q-14 0 -31 -7q-15 -5 -32 -19q-19 -19 -26 -30q-9 -15 -12 -29l-1 -12q0 -4 2 -14q3 -10 8 -15q3 -4 17 -6q18 0 32 6q18 4 42 17q21 11 37 24q14 14 21 25q8 11 6 14
l-1 3h-5q-3 5 -3 8q0 8 8 14q8 -3 13 -8v0q5 -7 4 -17z" />
    <glyph glyph-name="ordfeminine" unicode="&#xaa;" horiz-adv-x="178" 
d="M131 195l-6 21q-23 -24 -58 -25q-24 0 -37.5 12.5t-13.5 37.5t19.5 38t59.5 14l28 1v11q0 15 -9.5 22.5t-26.5 7.5q-24 0 -50 -13q-6 15 -11 24q30 15 62 15q33 0 49.5 -13.5t16.5 -43.5v-109h-23zM48 241q0 -24 27 -24q48 0 48 43v12l-24 -1q-27 -1 -39 -8t-12 -22z" />
    <glyph glyph-name="guillemotleft" unicode="&#xab;" horiz-adv-x="310" vert-adv-y="1500" 
d="M186 336q-4 -2 -7 -3l-4 -3q1 -1 3 -1t4 -2q2 -1 17 -3q6 -1 14 -1q4 0 7 1q8 -5 8 -11q0 -4 -7 -13h-10l-16 3l-19 4l-14 4q-5 1 -10 6t-5 15v3q0 8 6 11q6 4 16 7l19 6l16 7l15 9h2q11 0 11 -9l-2 -8l-16 -10q-7 -2 -19 -8v0q-5 -2 -9 -4zM78 328q-10 -6 -11 -7v-1
q5 -5 14 -9q7 -6 20 -9q4 -1 7.5 -2t7.5 -2q1 5 4.5 6t8.5 -3q3 -3 6 -3t3 -7v-2q0 -6 -7 -11q-9 -7 -17 -4q-9 6 -20 10l-22 10q-12 5 -17 9q-8 5 -12 10q-5 6 -2 16t10 13q9 4 19 5l22 8q11 5 19 11q4 2 15 10q17 -3 11 -18q-4 -3 -16 -9q-14 -6 -21 -10v0z" />
    <glyph glyph-name="logicalnot" unicode="&#xac;" horiz-adv-x="285" 
d="M260 194v-130h-35v94h-200v36h235z" />
    <glyph glyph-name="uni00AD" unicode="&#xad;" horiz-adv-x="160" 
d="M20 115v39h121v-39h-121z" />
    <glyph glyph-name="registered" unicode="&#xae;" horiz-adv-x="416" 
d="M177 187h25q20 0 31 9.5t11 25.5q0 18 -10 26t-32 8h-25v-69zM282 223q0 -20 -10.5 -35t-28.5 -22l59 -97h-43l-51 87h-31v-87h-38v219h65q41 0 59.5 -16t18.5 -49zM24 178q0 49 24.5 92t67.5 67.5t92 24.5t91.5 -24.5t67.5 -67t25 -92.5q0 -48 -24 -90t-66.5 -67.5
t-93.5 -25.5t-93.5 25.5t-66.5 67.5t-24 90zM51 178q0 -42 21 -78t57.5 -57.5t78.5 -21.5t78.5 21t57.5 57.5t21 78.5t-21 78.5t-57.5 57.5t-78.5 21t-78.5 -21t-57.5 -57.5t-21 -78.5z" />
    <glyph glyph-name="macron" unicode="&#xaf;" horiz-adv-x="169" 
d="M42 315h10h12q9 0 15 1q3 0 10 1.5t12 1.5q5 1 13.5 2t12.5 1q9 1 22 1l15 -3l10 -3l8 -3q4 5 4 12t-3 13q-2 1 -8 1h-11l-15 -1q-12 -2 -22 -2l-26 -1q-13 -2 -22 0q-6 1 -15 1h-3q-5 0 -8 1l-9 2q-1 0 -5 2q-6 -6 -6 -13q0 -6 3 -12v0q4 0 6 -2z" />
    <glyph glyph-name="degree" unicode="&#xb0;" horiz-adv-x="214" 
d="M30 285q0 33 22.5 55t54.5 22t54.5 -22.5t22.5 -54.5t-22.5 -54.5t-54.5 -22.5t-54.5 22t-22.5 55zM60 285q0 -19 14 -33t33 -14q20 0 33.5 14t13.5 33q0 20 -13.5 33.5t-33.5 13.5t-33.5 -13.5t-13.5 -33.5z" />
    <glyph glyph-name="plusminus" unicode="&#xb1;" horiz-adv-x="285" 
d="M160 196h100v-36h-100v-103h-35v103h-100v36h100v103h35v-103zM25 0v35h235v-35h-235z" />
    <glyph glyph-name="uni00B2" unicode="&#xb2;" horiz-adv-x="175" 
d="M153 143h-141v27l58 56q31 30 39.5 44t8.5 31q0 16 -9 24t-25 8q-15 0 -27 -6t-25 -16l-18 23q32 28 71 28q32 0 50.5 -16t18.5 -44q0 -11 -3.5 -20.5t-9.5 -19.5t-16 -21t-70 -67h98v-31z" />
    <glyph glyph-name="uni00B3" unicode="&#xb3;" horiz-adv-x="175" 
d="M154 306q0 -37 -37 -50q43 -11 43 -51q0 -31 -22.5 -48.5t-63.5 -17.5q-37 0 -65 14v32q35 -17 65 -18q50 0 51 39q0 34 -55 34h-29v28h29q25 0 36.5 9.5t11.5 24.5q0 14 -9.5 22.5t-25.5 8.5q-25 0 -55 -19l-18 23q18 13 35.5 19t37.5 6q33 0 52 -15t19 -41z" />
    <glyph glyph-name="acute" unicode="&#xb4;" horiz-adv-x="172" vert-adv-y="1500" 
d="M138 897q0 -2 -1 -3v-2q0 -3 -4 -7l-2 -1q-4 -5 -10 -9q-8 -5 -9 -7h-4q-6 -4 -10 -7.5t-8 -5.5l-17 -16q-2 -1 -6 -1q-9 0 -9 7l2 9q11 11 18 15q12 10 18 17l1 2l5 3q10 10 12 14q7 7 16 4v0q8 -5 8 -12z" />
    <glyph glyph-name="mu" unicode="&#xb5;" horiz-adv-x="311" 
d="M86 95q0 -63 60 -64q41 0 60 23t19 74v140h44v-268h-36l-6 36h-3q-27 -41 -80 -41q-36 0 -58 23h-2q2 -18 2 -60v-78h-44v388h44v-173z" />
    <glyph glyph-name="paragraph" unicode="&#xb6;" horiz-adv-x="327" 
d="M274 -63h-28v415h-51v-415h-29v199q-15 -4 -36 -4q-53 0 -77.5 30.5t-24.5 91.5q0 63 26.5 94.5t82.5 31.5h137v-443z" />
    <glyph glyph-name="periodcentered" unicode="&#xb7;" horiz-adv-x="163" vert-adv-y="1500" 
d="M47 347q-16 0 -15 -26q10 -6 18 -6q15 0 14 28v0q-9 4 -17 4z" />
    <glyph glyph-name="cedilla" unicode="&#xb8;" horiz-adv-x="132" vert-adv-y="1500" 
d="M104 92q0 -6 -3 -11q-4 -8 -11 -13l-12 -8l-12 -6l-11 -4q-6 -1 -12 0q-7 0 -12 9q-5 8 -3 14q6 2 9 2q5 0 10 -3h3q3 0 9 2t9 4q6 4 9 7l6 5q2 1 2 3l-4 4l-4 2t-5 1q-5 2 -8 -1q-6 -2 -9 -2t-11 8q-6 9 -2 15l9 10l9 13q4 8 8 12q5 4 9 0q7 -3 8 -6q1 -4 0 -8l-2 -1
q-1 -2 -7 -8l-8 -10q3 0 9 -2q13 -5 16 -7q8 -7 10 -15v0q1 -2 1 -6z" />
    <glyph glyph-name="uni00B9" unicode="&#xb9;" horiz-adv-x="175" 
d="M83 357h37v-214h-36v138q0 16 2 44q-8 -7 -13 -11.5t-37 -26.5l-17 24z" />
    <glyph glyph-name="ordmasculine" unicode="&#xba;" horiz-adv-x="187" 
d="M173 277q0 -40 -21.5 -63t-57.5 -23q-35 0 -56.5 23t-21.5 63t20.5 62t57.5 22q36 0 57.5 -22t21.5 -62zM48 277q0 -30 10.5 -44.5t35.5 -14.5q24 0 35 14.5t11 44.5t-11 43.5t-35 13.5t-35 -13.5t-11 -43.5z" />
    <glyph glyph-name="guillemotright" unicode="&#xbb;" horiz-adv-x="261" vert-adv-y="1500" 
d="M190 339q10 6 11 7v1q-5 5 -14 9q-7 6 -20 9q-4 1 -7.5 2t-7.5 2q-1 -5 -4.5 -6t-8.5 3q-3 3 -6 3t-3 7v2q0 6 7 11q9 7 17 4q9 -6 20 -10l22 -10q12 -5 17 -9q8 -5 12 -10q5 -6 2 -16t-10 -13q-9 -4 -19 -5l-22 -8q-11 -5 -19 -11q-4 -2 -15 -10q-17 3 -11 18q4 3 16 9
q14 6 21 10v0zM82 331q4 2 7 3l4 3q-1 1 -3 1t-4 2q-2 1 -17 3q-6 1 -14 1q-4 0 -7 -1q-8 5 -8 11q0 4 7 13h10l16 -3l19 -4l14 -4q5 -1 10 -6t5 -15v-3q0 -8 -6 -11q-6 -4 -16 -7l-19 -6l-16 -7l-15 -9h-2q-11 0 -11 9l2 8l16 10q7 2 19 8v0q5 2 9 4z" />
    <glyph glyph-name="onequarter" unicode="&#xbc;" horiz-adv-x="395" 
d="M368 48h-30v-48h-37v48h-98v26l99 141h36v-137h30v-30zM301 78v47q0 26 1 50q-2 -4 -24 -38l-40 -59h63zM318 357l-218 -357h-37l218 357h37zM82 357h37v-214h-36v138q0 16 2 44q-8 -7 -13 -11.5t-37 -26.5l-17 24z" />
    <glyph glyph-name="onehalf" unicode="&#xbd;" horiz-adv-x="395" 
d="M304 357l-218 -357h-37l218 357h37zM76 357h37v-214h-36v138q0 16 2 44q-8 -7 -13 -11.5t-37 -26.5l-17 24zM363 0h-141v27l58 56q31 30 39.5 44t8.5 31q0 16 -9 24t-25 8q-15 0 -27 -6t-25 -16l-18 23q32 28 71 28q32 0 50.5 -16t18.5 -44q0 -11 -3.5 -20.5t-9.5 -19.5
t-16 -21t-70 -67h98v-31z" />
    <glyph glyph-name="threequarters" unicode="&#xbe;" horiz-adv-x="395" 
d="M386 48h-30v-48h-37v48h-98v26l99 141h36v-137h30v-30zM319 78v47q0 26 1 50q-2 -4 -24 -38l-40 -59h63zM340 357l-218 -357h-37l218 357h37zM153 306q0 -37 -37 -50q43 -11 43 -51q0 -31 -22.5 -48.5t-63.5 -17.5q-37 0 -65 14v32q35 -17 65 -18q50 0 51 39q0 34 -55 34
h-29v28h29q25 0 36.5 9.5t11.5 24.5q0 14 -9.5 22.5t-25.5 8.5q-25 0 -55 -19l-18 23q18 13 35.5 19t37.5 6q33 0 52 -15t19 -41z" />
    <glyph glyph-name="questiondown" unicode="&#xbf;" horiz-adv-x="294" vert-adv-y="1500" 
d="M24 155q0 2 2 10q6 12 17 26l28 35l33 39l34 41q5 5 32 41l27 36q8 6 11 6t3 -4q0 -2 -3 -10l-28 -36q-6 -8 -14 -18t-18 -23l-34 -41q-22 -26 -32 -40q-18 -26 -23 -35q-8 -14 -10 -22l-1 -6v0q4 -3 16 -1t29 6l41 15q33 16 43 23q17 11 37 29q16 16 23 29q10 17 10 19
q3 5 2 9q6 6 10 6q7 0 13 -12q0 -4 -4 -12l-15 -21q-13 -17 -29 -29q-21 -18 -40 -29q-23 -14 -45 -24q-33 -13 -42 -16q-27 -9 -31 -10q-13 -3 -23 -3q-9 2 -16 11v0q-3 5 -3 11zM218 479q0 5 6 11q12 -3 12 -10q0 -4 -5 -11v0q-13 3 -13 10z" />
    <glyph glyph-name="Agrave" unicode="&#xc0;" horiz-adv-x="844" vert-adv-y="1500" 
d="M850 334q0 -6 -14 -11q-11 3 -43 5q-25 1 -77 -5q-50 -5 -107 -15l-56 -10l-1 -5q-18 -66 -26 -108l-6 -36l3 -6q11 -27 16 -58q4 -37 3 -48q0 -20 -16 -27q-6 -3 -11 -3q-9 0 -12 8q-7 16 -7 35q0 21 3 55l4 32q-9 26 -32 52q-22 25 -54 44q-25 13 -58 19l-6 -2l-35 -10
q-46 -68 -61 -91q-39 -59 -66 -105q-25 -41 -46 -81l-24 -48q-9 -15 -11 -24q-9 -6 -16 -6q-11 0 -13 21l14 23q1 2 17 28q6 7 12 18l52 78l69 104l55 78l-72 -22q-38 -13 -87 -28l-23 -7q-52 -16 -79 -23q-6 -2 -17 -2q-17 0 -23 13q-2 6 -2 9q0 13 22 25q26 16 85 33
q57 18 117 30q51 10 105 8l6 10q48 66 102 135q46 62 109 135q50 58 108 121l86 91l20 23l13 22q14 23 28 15q10 -4 7 -12l1 -4q-1 -10 -13 -20q-17 -14 -52 -69q-28 -44 -71 -128q-35 -71 -69 -155q-30 -79 -44 -124l50 10q53 10 108 16q17 3 78 9q36 2 46 1v0
q11 -8 11 -13zM342 274l-3 -3q20 -2 29 -4q74 20 113 28l64 14q23 72 47 130q29 76 68 156q36 75 66 132l8 15q-46 -46 -75 -77q-51 -56 -108 -120q-66 -78 -109 -135v0q-53 -67 -100 -136zM311 251l4 5l-18 1q-33 0 -73 -8q-61 -11 -116 -28q-56 -18 -79 -33l-8 -6
q4 1 17 1q26 0 76 12q58 14 110 31v0zM541 296l-57 -12q-37 -8 -90 -23q18 -5 31 -13q34 -18 60 -47q18 -20 24 -31l4 17v0q11 53 28 109zM848 870q0 -9 -14 -6l-14 15l-16 16l-2 1l-3 4l-13 10q-4 3 -5 6t0 8q5 8 10 8h4q3 0 8 -5q0 -1 1 -1q4 -3 8 -9l3.5 -3.5l3.5 -3.5
v-4l13 -15q11 -8 15 -14v0q1 -3 1 -7z" />
    <glyph glyph-name="Aacute" unicode="&#xc1;" horiz-adv-x="844" vert-adv-y="1500" 
d="M850 334q0 -6 -14 -11q-11 3 -43 5q-25 1 -77 -5q-50 -5 -107 -15l-56 -10l-1 -5q-18 -66 -26 -108l-6 -36l3 -6q11 -27 16 -58q4 -37 3 -48q0 -20 -16 -27q-6 -3 -11 -3q-9 0 -12 8q-7 16 -7 35q0 21 3 55l4 32q-9 26 -32 52q-22 25 -54 44q-25 13 -58 19l-6 -2l-35 -10
q-46 -68 -61 -91q-39 -59 -66 -105q-25 -41 -46 -81l-24 -48q-9 -15 -11 -24q-9 -6 -16 -6q-11 0 -13 21l14 23q1 2 17 28q6 7 12 18l52 78l69 104l55 78l-72 -22q-38 -13 -87 -28l-23 -7q-52 -16 -79 -23q-6 -2 -17 -2q-17 0 -23 13q-2 6 -2 9q0 13 22 25q26 16 85 33
q57 18 117 30q51 10 105 8l6 10q48 66 102 135q46 62 109 135q50 58 108 121l86 91l20 23l13 22q14 23 28 15q10 -4 7 -12l1 -4q-1 -10 -13 -20q-17 -14 -52 -69q-28 -44 -71 -128q-35 -71 -69 -155q-30 -79 -44 -124l50 10q53 10 108 16q17 3 78 9q36 2 46 1v0
q11 -8 11 -13zM342 274l-3 -3q20 -2 29 -4q74 20 113 28l64 14q23 72 47 130q29 76 68 156q36 75 66 132l8 15q-46 -46 -75 -77q-51 -56 -108 -120q-66 -78 -109 -135v0q-53 -67 -100 -136zM311 251l4 5l-18 1q-33 0 -73 -8q-61 -11 -116 -28q-56 -18 -79 -33l-8 -6
q4 1 17 1q26 0 76 12q58 14 110 31v0zM541 296l-57 -12q-37 -8 -90 -23q18 -5 31 -13q34 -18 60 -47q18 -20 24 -31l4 17v0q11 53 28 109zM885 924q0 -2 -1 -3v-2q0 -3 -4 -7l-2 -1q-4 -5 -10 -9q-8 -5 -9 -7h-4q-6 -4 -10 -7.5t-8 -5.5l-17 -16q-2 -1 -6 -1q-9 0 -9 7l2 9
q11 11 18 15q12 10 18 17l1 2l5 3q10 10 12 14q7 7 16 4v0q8 -5 8 -12z" />
    <glyph glyph-name="Acircumflex" unicode="&#xc2;" horiz-adv-x="844" vert-adv-y="1500" 
d="M850 334q0 -6 -14 -11q-11 3 -43 5q-25 1 -77 -5q-50 -5 -107 -15l-56 -10l-1 -5q-18 -66 -26 -108l-6 -36l3 -6q11 -27 16 -58q4 -37 3 -48q0 -20 -16 -27q-6 -3 -11 -3q-9 0 -12 8q-7 16 -7 35q0 21 3 55l4 32q-9 26 -32 52q-22 25 -54 44q-25 13 -58 19l-6 -2l-35 -10
q-46 -68 -61 -91q-39 -59 -66 -105q-25 -41 -46 -81l-24 -48q-9 -15 -11 -24q-9 -6 -16 -6q-11 0 -13 21l14 23q1 2 17 28q6 7 12 18l52 78l69 104l55 78l-72 -22q-38 -13 -87 -28l-23 -7q-52 -16 -79 -23q-6 -2 -17 -2q-17 0 -23 13q-2 6 -2 9q0 13 22 25q26 16 85 33
q57 18 117 30q51 10 105 8l6 10q48 66 102 135q46 62 109 135q50 58 108 121l86 91l20 23l13 22q14 23 28 15q10 -4 7 -12l1 -4q-1 -10 -13 -20q-17 -14 -52 -69q-28 -44 -71 -128q-35 -71 -69 -155q-30 -79 -44 -124l50 10q53 10 108 16q17 3 78 9q36 2 46 1v0
q11 -8 11 -13zM342 274l-3 -3q20 -2 29 -4q74 20 113 28l64 14q23 72 47 130q29 76 68 156q36 75 66 132l8 15q-46 -46 -75 -77q-51 -56 -108 -120q-66 -78 -109 -135v0q-53 -67 -100 -136zM311 251l4 5l-18 1q-33 0 -73 -8q-61 -11 -116 -28q-56 -18 -79 -33l-8 -6
q4 1 17 1q26 0 76 12q58 14 110 31v0zM541 296l-57 -12q-37 -8 -90 -23q18 -5 31 -13q34 -18 60 -47q18 -20 24 -31l4 17v0q11 53 28 109zM850 907q3 -3 2 -5q-2 -3 -4 -13q-2 -4 -2 -7.5t-1 -5.5q0 -9 1 -14q-3 -5 -8 -5q-3 0 -8 5v14l2 16l-2 -2l-14 -12l-10 -11l-6 -6
q-7 0 -10 3t-2 10q2 1 3.5 2.5t3.5 2.5q6 6 12 9q4 5 14 13l11 10q3 3 6 3q4 0 8 -3v0z" />
    <glyph glyph-name="Atilde" unicode="&#xc3;" horiz-adv-x="844" vert-adv-y="1500" 
d="M850 334q0 -6 -14 -11q-11 3 -43 5q-25 1 -77 -5q-50 -5 -107 -15l-56 -10l-1 -5q-18 -66 -26 -108l-6 -36l3 -6q11 -27 16 -58q4 -37 3 -48q0 -20 -16 -27q-6 -3 -11 -3q-9 0 -12 8q-7 16 -7 35q0 21 3 55l4 32q-9 26 -32 52q-22 25 -54 44q-25 13 -58 19l-6 -2l-35 -10
q-46 -68 -61 -91q-39 -59 -66 -105q-25 -41 -46 -81l-24 -48q-9 -15 -11 -24q-9 -6 -16 -6q-11 0 -13 21l14 23q1 2 17 28q6 7 12 18l52 78l69 104l55 78l-72 -22q-38 -13 -87 -28l-23 -7q-52 -16 -79 -23q-6 -2 -17 -2q-17 0 -23 13q-2 6 -2 9q0 13 22 25q26 16 85 33
q57 18 117 30q51 10 105 8l6 10q48 66 102 135q46 62 109 135q50 58 108 121l86 91l20 23l13 22q14 23 28 15q10 -4 7 -12l1 -4q-1 -10 -13 -20q-17 -14 -52 -69q-28 -44 -71 -128q-35 -71 -69 -155q-30 -79 -44 -124l50 10q53 10 108 16q17 3 78 9q36 2 46 1v0
q11 -8 11 -13zM342 274l-3 -3q20 -2 29 -4q74 20 113 28l64 14q23 72 47 130q29 76 68 156q36 75 66 132l8 15q-46 -46 -75 -77q-51 -56 -108 -120q-66 -78 -109 -135v0q-53 -67 -100 -136zM311 251l4 5l-18 1q-33 0 -73 -8q-61 -11 -116 -28q-56 -18 -79 -33l-8 -6
q4 1 17 1q26 0 76 12q58 14 110 31v0zM541 296l-57 -12q-37 -8 -90 -23q18 -5 31 -13q34 -18 60 -47q18 -20 24 -31l4 17v0q11 53 28 109zM950 919q8 0 8 -14q-3 -5 -10 -9q-5 -6 -13 -10q-4 -2 -8.5 -5t-9.5 -5l-22 -8q-4 -1 -10 -2t-13 -1q-2 -1 -6 -1q-7 0 -16 6
q-3 1 -8.5 4t-8.5 4q-3 4 -12 10q-7 4 -10 4l-13 -1q-2 -1 -5.5 -2.5t-8.5 -4.5q-13 -9 -17 -14q-2 -3 -5 -6t-3 -5q-4 -5 -4 -10q-6 -2 -7 -2q-7 0 -8 15q1 1 2.5 4t3.5 4q3 3 6.5 6t6.5 8l18 15l19 8q2 0 7 1.5t10 1.5q6 0 14 -5q9 -6 13 -11l14 -8q11 -8 18 -5
q5 0 10.5 1t10.5 2q16 4 19 7q2 1 7.5 4t9.5 7q6 3 11 8l6 8v0z" />
    <glyph glyph-name="Adieresis" unicode="&#xc4;" horiz-adv-x="844" vert-adv-y="1500" 
d="M850 334q0 -6 -14 -11q-11 3 -43 5q-25 1 -77 -5q-50 -5 -107 -15l-56 -10l-1 -5q-18 -66 -26 -108l-6 -36l3 -6q11 -27 16 -58q4 -37 3 -48q0 -20 -16 -27q-6 -3 -11 -3q-9 0 -12 8q-7 16 -7 35q0 21 3 55l4 32q-9 26 -32 52q-22 25 -54 44q-25 13 -58 19l-6 -2l-35 -10
q-46 -68 -61 -91q-39 -59 -66 -105q-25 -41 -46 -81l-24 -48q-9 -15 -11 -24q-9 -6 -16 -6q-11 0 -13 21l14 23q1 2 17 28q6 7 12 18l52 78l69 104l55 78l-72 -22q-38 -13 -87 -28l-23 -7q-52 -16 -79 -23q-6 -2 -17 -2q-17 0 -23 13q-2 6 -2 9q0 13 22 25q26 16 85 33
q57 18 117 30q51 10 105 8l6 10q48 66 102 135q46 62 109 135q50 58 108 121l86 91l20 23l13 22q14 23 28 15q10 -4 7 -12l1 -4q-1 -10 -13 -20q-17 -14 -52 -69q-28 -44 -71 -128q-35 -71 -69 -155q-30 -79 -44 -124l50 10q53 10 108 16q17 3 78 9q36 2 46 1v0
q11 -8 11 -13zM342 274l-3 -3q20 -2 29 -4q74 20 113 28l64 14q23 72 47 130q29 76 68 156q36 75 66 132l8 15q-46 -46 -75 -77q-51 -56 -108 -120q-66 -78 -109 -135v0q-53 -67 -100 -136zM311 251l4 5l-18 1q-33 0 -73 -8q-61 -11 -116 -28q-56 -18 -79 -33l-8 -6
q4 1 17 1q26 0 76 12q58 14 110 31v0zM541 296l-57 -12q-37 -8 -90 -23q18 -5 31 -13q34 -18 60 -47q18 -20 24 -31l4 17v0q11 53 28 109zM820 914q4 -5 4 -10q0 -8 -2 -11l-6 -7q-3 -1 -4.5 -2t-2.5 -2q-2 -1 -4.5 -1t-5.5 -1q-6 0 -11 5t-5 10q0 1 0.5 3.5t2.5 5.5
q1 0 1.5 1t2.5 1v3q0 3 3 3q2 4 6 5q3 2 10 2v0q6 0 11 -5zM902 904q0 -6 -3 -11l-5 -7l-8 -4q-2 -1 -4.5 -1t-5.5 -1q-6 0 -11 5q-5 7 -4 10q0 3 2 9q1 0 2.5 1t2.5 1q-1 1 -1 3q1 3 3 3q1 3 6 5q3 2 10 2q6 0 11 -5v0q5 -7 5 -10z" />
    <glyph glyph-name="Aring" unicode="&#xc5;" horiz-adv-x="844" vert-adv-y="1500" 
d="M850 334q0 -6 -14 -11q-11 3 -43 5q-25 1 -77 -5q-50 -5 -107 -15l-56 -10l-1 -5q-18 -66 -26 -108l-6 -36l3 -6q11 -27 16 -58q4 -37 3 -48q0 -20 -16 -27q-6 -3 -11 -3q-9 0 -12 8q-7 16 -7 35q0 21 3 55l4 32q-9 26 -32 52q-22 25 -54 44q-25 13 -58 19l-6 -2l-35 -10
q-46 -68 -61 -91q-39 -59 -66 -105q-25 -41 -46 -81l-24 -48q-9 -15 -11 -24q-9 -6 -16 -6q-11 0 -13 21l14 23q1 2 17 28q6 7 12 18l52 78l69 104l55 78l-72 -22q-38 -13 -87 -28l-23 -7q-52 -16 -79 -23q-6 -2 -17 -2q-17 0 -23 13q-2 6 -2 9q0 13 22 25q26 16 85 33
q57 18 117 30q51 10 105 8l6 10q48 66 102 135q46 62 109 135q50 58 108 121l86 91l20 23l13 22q14 23 28 15q10 -4 7 -12l1 -4q-1 -10 -13 -20q-17 -14 -52 -69q-28 -44 -71 -128q-35 -71 -69 -155q-30 -79 -44 -124l50 10q53 10 108 16q17 3 78 9q36 2 46 1v0
q11 -8 11 -13zM342 274l-3 -3q20 -2 29 -4q74 20 113 28l64 14q23 72 47 130q29 76 68 156q36 75 66 132l8 15q-46 -46 -75 -77q-51 -56 -108 -120q-66 -78 -109 -135v0q-53 -67 -100 -136zM311 251l4 5l-18 1q-33 0 -73 -8q-61 -11 -116 -28q-56 -18 -79 -33l-8 -6
q4 1 17 1q26 0 76 12q58 14 110 31v0zM541 296l-57 -12q-37 -8 -90 -23q18 -5 31 -13q34 -18 60 -47q18 -20 24 -31l4 17v0q11 53 28 109zM871 908q0 -10 -9 -21q-9 -12 -25 -11q-22 1 -19 34t21 37l6 3q2 2 5 -2q1 -1 3 -5q1 -1 2 -3t2 -3l4 -6q9 -12 9 -18v0zM852 911
q0 6 -7 7q-3 -7 -4 -9q-2 -8 -2 -9l6 3t6 4v0q1 1 1 4z" />
    <glyph glyph-name="AE" unicode="&#xc6;" horiz-adv-x="1102" vert-adv-y="1500" 
d="M1099 340q11 0 11 -5q0 -4 -8 -14q-20 -8 -51 -27l-70 -45q-47 -31 -83 -58l-83 -64q-41 -33 -83 -65q-57 -43 -80 -58q-34 -23 -69 -37q-32 -13 -57 -10q-25 4 -40 24q-16 21 -16 50q0 32 10 63q12 35 27 61l-1 3q-7 16 -7 35q0 21 3 55l4 32q-9 26 -32 52
q-22 25 -54 44q-25 13 -58 19l-6 -2l-35 -10q-46 -68 -61 -91q-39 -58 -66 -105q-25 -41 -46 -81l-24 -48q-9 -15 -11 -24q-9 -6 -16 -6q-11 0 -13 21l14 23q1 2 17 28q6 8 12 18l52 78l69 104l55 78l-72 -22q-38 -13 -87 -28l-23 -7q-52 -16 -79 -23q-6 -2 -17 -2
q-17 0 -23 13q-2 6 -2 9q0 13 22 25q26 16 85 33q57 18 117 30q51 10 105 8l6 10q48 66 102 135q46 62 109 135q50 58 108 121l86 91l20 23l13 22q14 23 28 15q10 -4 7 -12l1 -4q-1 -10 -13 -20q-17 -14 -52 -69q-28 -44 -71 -128q-35 -71 -69 -155q-30 -79 -44 -124l45 9v0
q18 31 53 67q35 39 86 87q46 43 92 78q43 33 70 47q29 15 43 20q19 6 31 5t23 -12q10 -10 8 -27q-3 -19 -10 -31l-12 -25l-9 -15q-7 -3 -13 -3q-14 0 -16 21q5 5 11 14l13 21q6 9 8 18q0 5 -1 4q-1 -3 -7 0l-6 1q-2 0 -14 -2q-13 -1 -39 -11q-24 -10 -70 -39
q-43 -29 -93 -74q-49 -43 -85 -85q-38 -43 -47 -63q-10 -21 -5 -19h3q9 0 15 -1l13 -1q6 0 26 2q26 2 51 9l53 12l44 11q14 2 20 2q8 0 11 -1q14 -2 9 -19q-7 -19 -29 -30q-17 -10 -57 -38q-16 -10 -73 -51q-35 -28 -71 -59q-33 -29 -62 -61l-24 -31v-4q0 -20 -16 -27l-6 -3
q-18 -34 -26 -61q-8 -33 -7 -56q0 -26 12 -38t28 -15q18 -2 47 7q34 12 66 32q43 27 80 55q36 26 83 64l84 65q51 37 82 58q42 29 71 47l49 32v0h7zM318 399l-18 1q-33 0 -73 -8q-61 -11 -116 -28q-56 -18 -79 -33l-8 -6q4 1 17 1q27 0 76 12q58 14 110 31l87 25v0zM556 441
l-1 -5q-18 -66 -26 -108l-6 -36l3 -6q11 -27 16 -58l2 -19q-1 -1 13 16q23 26 63 62q39 34 73 60l41 32l29 23q35 27 52 44h1q-14 -1 -34 -6q-41 -10 -53 -13l-53 -12q-25 -6 -44 -6t-31 14q-5 7 -5 15q0 2 2 10v0zM371 410q74 20 113 28l64 14q23 72 47 130q29 76 68 156
q36 75 66 132l8 15q-46 -46 -75 -77q-51 -56 -108 -120q-66 -78 -109 -135q-53 -67 -100 -136l-3 -3v0q20 -2 29 -4zM512 313l4 17q11 53 28 109l-57 -12q-37 -8 -90 -23q18 -5 31 -13q34 -18 60 -47v0q18 -20 24 -31z" />
    <glyph glyph-name="Ccedilla" unicode="&#xc7;" horiz-adv-x="485" vert-adv-y="1500" 
d="M484 338q7 0 7 -8q0 -3 -2 -11l-35 -35q-28 -30 -50 -52q-41 -41 -65 -63q-46 -43 -71 -61q-35 -29 -69 -51q-33 -23 -64 -37q-27 -13 -55 -19q-5 -1 -13 -1q-18 0 -33 9q-20 14 -27 40q-7 32 -7 67q0 33 7 84q8 48 22 94q18 53 40 99q17 34 53 98q17 28 58 89
q30 40 58 70q27 28 59 54q31 25 60 39q30 14 54 15q23 3 41 -10q16 -15 19 -29q2 -10 2 -16q0 -4 -2 -14q-4 -16 -9 -31l-16 -37l-20 -42q-13 -25 -20 -41q-10 -20 -11 -29q-1 -6 -8 -6q-1 -1 -4 -1q-5 0 -15 6q-1 0 -3 2l-5 4q-6 7 0 13q4 4 5 6q2 2 4 9q4 4 8 5q2 4 4 6
q10 14 23 37q9 15 21 41q6 15 12 34q5 18 5 27q0 14 -1 20q-2 10 -7 15q-7 5 -24 5q-19 0 -45 -10q-31 -12 -57 -33q-30 -22 -57 -51q-26 -24 -58 -68q-34 -44 -58 -87q-31 -50 -53 -96q-24 -50 -39 -97q-15 -48 -21 -92q-6 -46 -5 -82q0 -36 8 -60q7 -21 20 -27
q11 -6 33 -4q22 3 49 15q26 10 62 32q35 21 69 48q43 36 71 60q45 43 63 63l49 53l31 38v0q10 4 12 4zM91 -47q0 -7 -3 -11q-4 -8 -11 -13l-12 -8l-12 -6l-11 -4q-6 -2 -12 0q-7 0 -12 9q-5 8 -3 14q6 2 9 2q5 0 10 -3h3q3 0 9 2t9 4q6 4 9 7l6 5q2 1 2 3l-4 4l-4 2t-5 1
q-5 2 -8 -1q-6 -2 -9 -2t-11 8q-6 9 -2 15l9 10l9 13q4 8 8 12q5 4 9 0q7 -3 8 -6q1 -4 0 -8l-2 -1q-1 -2 -7 -8l-8 -10q3 0 9 -2q13 -5 16 -7q8 -8 10 -15v0q1 -2 1 -6z" />
    <glyph glyph-name="Egrave" unicode="&#xc8;" horiz-adv-x="634" vert-adv-y="1500" 
d="M519 673l12 25q7 12 10 31v5q0 14 -8 22q-11 11 -23 12h-5q-9 0 -26 -5q-14 -5 -43 -20q-27 -14 -70 -47q-46 -35 -92 -78q-51 -48 -86 -87q-35 -36 -53 -67q-9 -13 -9 -25q0 -8 5 -15q12 -14 31 -14t44 6l53 12q12 3 53 13q10 2 44 8q17 2 20 6t-4 7h-3q-7 0 -24 -15
q-17 -17 -52 -44l-29 -23l-41 -32q-34 -26 -73 -60q-40 -36 -63 -62q-27 -30 -47 -64q-18 -30 -30 -67q-10 -31 -10 -63q0 -29 16 -50q15 -20 40 -24q25 -3 57 10q35 14 69 37q23 15 80 58q42 32 83 65l83 64q36 27 83 58l70 45q32 20 51 27q8 10 8 14q0 7 -18 5l-49 -32
q-29 -18 -71 -47q-31 -21 -82 -58l-84 -65q-47 -38 -83 -64q-37 -28 -80 -55q-32 -20 -66 -32q-29 -9 -47 -7q-16 3 -28 15t-12 38q-1 23 7 56q9 30 27 63q20 33 45 63q29 32 62 61q36 31 71 59q57 41 73 51q40 28 57 38q22 11 29 30q1 3 1 7q0 11 -10 12q-3 1 -11 1
q-6 0 -20 -2l-44 -11l-53 -12q-25 -7 -51 -9q-23 -3 -39 -1t-18 1q-2 0 -2 2q0 4 7 17q9 20 47 63q36 42 85 85q50 45 93 74q46 29 70 39q26 10 39 11q13 3 20 1q6 -3 7 0q1 1 1 -4q-2 -9 -8 -18l-13 -21q-6 -9 -11 -14q2 -21 16 -21q6 0 13 3v0zM548 839q0 -9 -14 -6
l-14 15l-16 16l-2 1l-3 4l-13 10q-4 3 -5 6t0 8q5 8 10 8h4q3 0 8 -5q0 -1 1 -1q4 -3 8 -9l3.5 -3.5l3.5 -3.5v-4l13 -15q11 -8 15 -14v0q1 -3 1 -7z" />
    <glyph glyph-name="Eacute" unicode="&#xc9;" horiz-adv-x="634" vert-adv-y="1500" 
d="M519 673l12 25q7 12 10 31v5q0 14 -8 22q-11 11 -23 12h-5q-9 0 -26 -5q-14 -5 -43 -20q-27 -14 -70 -47q-46 -35 -92 -78q-51 -48 -86 -87q-35 -36 -53 -67q-9 -13 -9 -25q0 -8 5 -15q12 -14 31 -14t44 6l53 12q12 3 53 13q10 2 44 8q17 2 20 6t-4 7h-3q-7 0 -24 -15
q-17 -17 -52 -44l-29 -23l-41 -32q-34 -26 -73 -60q-40 -36 -63 -62q-27 -30 -47 -64q-18 -30 -30 -67q-10 -31 -10 -63q0 -29 16 -50q15 -20 40 -24q25 -3 57 10q35 14 69 37q23 15 80 58q42 32 83 65l83 64q36 27 83 58l70 45q32 20 51 27q8 10 8 14q0 7 -18 5l-49 -32
q-29 -18 -71 -47q-31 -21 -82 -58l-84 -65q-47 -38 -83 -64q-37 -28 -80 -55q-32 -20 -66 -32q-29 -9 -47 -7q-16 3 -28 15t-12 38q-1 23 7 56q9 30 27 63q20 33 45 63q29 32 62 61q36 31 71 59q57 41 73 51q40 28 57 38q22 11 29 30q1 3 1 7q0 11 -10 12q-3 1 -11 1
q-6 0 -20 -2l-44 -11l-53 -12q-25 -7 -51 -9q-23 -3 -39 -1t-18 1q-2 0 -2 2q0 4 7 17q9 20 47 63q36 42 85 85q50 45 93 74q46 29 70 39q26 10 39 11q13 3 20 1q6 -3 7 0q1 1 1 -4q-2 -9 -8 -18l-13 -21q-6 -9 -11 -14q2 -21 16 -21q6 0 13 3v0zM593 871q0 -2 -1 -3v-2
q0 -3 -4 -7l-2 -1q-4 -5 -10 -9q-8 -5 -9 -7h-4q-6 -4 -10 -7.5t-8 -5.5l-17 -16q-2 -1 -6 -1q-9 0 -9 7l2 9q11 11 18 15q12 10 18 17l1 2l5 3q10 10 12 14q7 7 16 4v0q8 -5 8 -12z" />
    <glyph glyph-name="Ecircumflex" unicode="&#xca;" horiz-adv-x="634" vert-adv-y="1500" 
d="M519 673l12 25q7 12 10 31v5q0 14 -8 22q-11 11 -23 12h-5q-9 0 -26 -5q-14 -5 -43 -20q-27 -14 -70 -47q-46 -35 -92 -78q-51 -48 -86 -87q-35 -36 -53 -67q-9 -13 -9 -25q0 -8 5 -15q12 -14 31 -14t44 6l53 12q12 3 53 13q10 2 44 8q17 2 20 6t-4 7h-3q-7 0 -24 -15
q-17 -17 -52 -44l-29 -23l-41 -32q-34 -26 -73 -60q-40 -36 -63 -62q-27 -30 -47 -64q-18 -30 -30 -67q-10 -31 -10 -63q0 -29 16 -50q15 -20 40 -24q25 -3 57 10q35 14 69 37q23 15 80 58q42 32 83 65l83 64q36 27 83 58l70 45q32 20 51 27q8 10 8 14q0 7 -18 5l-49 -32
q-29 -18 -71 -47q-31 -21 -82 -58l-84 -65q-47 -38 -83 -64q-37 -28 -80 -55q-32 -20 -66 -32q-29 -9 -47 -7q-16 3 -28 15t-12 38q-1 23 7 56q9 30 27 63q20 33 45 63q29 32 62 61q36 31 71 59q57 41 73 51q40 28 57 38q22 11 29 30q1 3 1 7q0 11 -10 12q-3 1 -11 1
q-6 0 -20 -2l-44 -11l-53 -12q-25 -7 -51 -9q-23 -3 -39 -1t-18 1q-2 0 -2 2q0 4 7 17q9 20 47 63q36 42 85 85q50 45 93 74q46 29 70 39q26 10 39 11q13 3 20 1q6 -3 7 0q1 1 1 -4q-2 -9 -8 -18l-13 -21q-6 -9 -11 -14q2 -21 16 -21q6 0 13 3v0zM564 856q3 -3 2 -5
q-2 -3 -4 -13q-2 -4 -2 -7.5t-1 -5.5q0 -9 1 -14q-3 -5 -8 -5q-3 0 -8 5v14l2 16l-2 -2l-14 -12l-10 -11l-6 -6q-7 0 -10 3t-2 10q2 1 3.5 2.5t3.5 2.5q6 6 12 9q4 5 14 13l11 10q3 3 6 3t8 -3v0z" />
    <glyph glyph-name="Edieresis" unicode="&#xcb;" horiz-adv-x="634" vert-adv-y="1500" 
d="M519 673l12 25q7 12 10 31v5q0 14 -8 22q-11 11 -23 12h-5q-9 0 -26 -5q-14 -5 -43 -20q-27 -14 -70 -47q-46 -35 -92 -78q-51 -48 -86 -87q-35 -36 -53 -67q-9 -13 -9 -25q0 -8 5 -15q12 -14 31 -14t44 6l53 12q12 3 53 13q10 2 44 8q17 2 20 6t-4 7h-3q-7 0 -24 -15
q-17 -17 -52 -44l-29 -23l-41 -32q-34 -26 -73 -60q-40 -36 -63 -62q-27 -30 -47 -64q-18 -30 -30 -67q-10 -31 -10 -63q0 -29 16 -50q15 -20 40 -24q25 -3 57 10q35 14 69 37q23 15 80 58q42 32 83 65l83 64q36 27 83 58l70 45q32 20 51 27q8 10 8 14q0 7 -18 5l-49 -32
q-29 -18 -71 -47q-31 -21 -82 -58l-84 -65q-47 -38 -83 -64q-37 -28 -80 -55q-32 -20 -66 -32q-29 -9 -47 -7q-16 3 -28 15t-12 38q-1 23 7 56q9 30 27 63q20 33 45 63q29 32 62 61q36 31 71 59q57 41 73 51q40 28 57 38q22 11 29 30q1 3 1 7q0 11 -10 12q-3 1 -11 1
q-6 0 -20 -2l-44 -11l-53 -12q-25 -7 -51 -9q-23 -3 -39 -1t-18 1q-2 0 -2 2q0 4 7 17q9 20 47 63q36 42 85 85q50 45 93 74q46 29 70 39q26 10 39 11q13 3 20 1q6 -3 7 0q1 1 1 -4q-2 -9 -8 -18l-13 -21q-6 -9 -11 -14q2 -21 16 -21q6 0 13 3v0zM510 879q4 -5 4 -10
q0 -8 -2 -11l-6 -7q-3 -1 -4.5 -2t-2.5 -2q-2 -1 -4.5 -1t-5.5 -1q-6 0 -11 5t-5 10q0 1 0.5 3.5t2.5 5.5q1 0 1.5 1t2.5 1v3q0 3 3 3q2 4 6 5q3 2 10 2v0q6 0 11 -5zM592 869q0 -6 -3 -11l-5 -7l-8 -4q-2 -1 -4.5 -1t-5.5 -1q-6 0 -11 5q-5 7 -4 10q0 3 2 9q1 0 2.5 1
t2.5 1q-1 1 -1 3q1 3 3 3q1 3 6 5q3 2 10 2q6 0 11 -5v0q5 -7 5 -10z" />
    <glyph glyph-name="Igrave" unicode="&#xcc;" horiz-adv-x="495" vert-adv-y="1500" 
d="M646 840q2 -4 2 -6q0 -7 -11 -13l-13 -8l-18 -21q-39 -51 -49 -64q-44 -61 -70 -101q-35 -51 -63 -96q-6 -11 -14 -23q-32 -50 -58 -107q-15 -30 -27 -61q-1 -7 -11 -15q-8 -7 -4 3q6 9 6 10l-10 -15l-3 -4l-9 -21q-45 -95 -64 -142q-30 -69 -54 -129l-2 -4q7 2 16 4.5
t18 4.5q52 12 86 17q34 6 71 8l46 3q14 0 16 -14l-7 -4q0 -12 -13 -9q-10 3 -41 5q-28 0 -70 -6q-40 -6 -84 -15q-31 -7 -41 -10q0 -15 -3 -31q-1 -11 -2 -19.5t-2 -14.5q-1 -15 -18 -10q-13 4 -12 16l-2 1q-12 5 -6 11q7 6 12 23q1 3 4 14l-29 -10q-66 -27 -100 -42
q-45 -19 -84 -42q-41 -23 -57 -28q-3 -1 -8 -1q-11 0 -14 13l-1 5q1 13 13 23l40 26q21 14 54 31l61 31l58 28q32 15 46 19q8 3 14 3q12 0 21 -9q6 -5 9 -10q29 72 54 127l63 142l11 24q-1 2 -1 8q0 8 2 12q5 16 36 65l24 36q19 35 59 103q36 61 81 130q46 69 73 105t45 64
q8 12 15 12q6 0 12 -7v0q7 -7 7 -15zM142 13q-1 9 -2 9l-15 -3q-14 -2 -41 -12q-29 -10 -58 -24q-26 -11 -60 -29q-29 -15 -51 -30l4 1q67 26 87 35q53 23 102 41v0zM882 926q-4 -19 -19 -19q-6 0 -10 2q-2 5 -9 11q-8 7 -24 8q-17 3 -46 3q-30 0 -75 -6q-43 -6 -96 -15
q-51 -9 -96 -24q-32 -11 -64 -23q-21 -9 -29 -17l-7 -1q-15 0 -15 11q0 8 6 18q13 8 34 15t69 19q35 9 99 20l98 14l75 8q20 2 51 2q23 0 36 -8v0q17 -10 22 -18zM671 1011q0 -9 -14 -6l-14 15l-16 16l-2 1l-3 4l-13 10q-4 3 -5 6t0 8q5 8 10 8h4q3 0 8 -5q0 -1 1 -1
q4 -3 8 -9l3.5 -3.5l3.5 -3.5v-4l13 -15q11 -8 15 -14v0q1 -3 1 -7z" />
    <glyph glyph-name="Iacute" unicode="&#xcd;" horiz-adv-x="495" vert-adv-y="1500" 
d="M646 840q2 -4 2 -6q0 -7 -11 -13l-13 -8l-18 -21q-39 -51 -49 -64q-44 -61 -70 -101q-35 -51 -63 -96q-6 -11 -14 -23q-32 -50 -58 -107q-15 -30 -27 -61q-1 -7 -11 -15q-8 -7 -4 3q6 9 6 10l-10 -15l-3 -4l-9 -21q-45 -95 -64 -142q-30 -69 -54 -129l-2 -4q7 2 16 4.5
t18 4.5q52 12 86 17q34 6 71 8l46 3q14 0 16 -14l-7 -4q0 -12 -13 -9q-10 3 -41 5q-28 0 -70 -6q-40 -6 -84 -15q-31 -7 -41 -10q0 -15 -3 -31q-1 -11 -2 -19.5t-2 -14.5q-1 -15 -18 -10q-13 4 -12 16l-2 1q-12 5 -6 11q7 6 12 23q1 3 4 14l-29 -10q-66 -27 -100 -42
q-45 -19 -84 -42q-41 -23 -57 -28q-3 -1 -8 -1q-11 0 -14 13l-1 5q1 13 13 23l40 26q21 14 54 31l61 31l58 28q32 15 46 19q8 3 14 3q12 0 21 -9q6 -5 9 -10q29 72 54 127l63 142l11 24q-1 2 -1 8q0 8 2 12q5 16 36 65l24 36q19 35 59 103q36 61 81 130q46 69 73 105t45 64
q8 12 15 12q6 0 12 -7v0q7 -7 7 -15zM142 13q-1 9 -2 9l-15 -3q-14 -2 -41 -12q-29 -10 -58 -24q-26 -11 -60 -29q-29 -15 -51 -30l4 1q67 26 87 35q53 23 102 41v0zM882 926q-4 -19 -19 -19q-6 0 -10 2q-2 5 -9 11q-8 7 -24 8q-17 3 -46 3q-30 0 -75 -6q-43 -6 -96 -15
q-51 -9 -96 -24q-32 -11 -64 -23q-21 -9 -29 -17l-7 -1q-15 0 -15 11q0 8 6 18q13 8 34 15t69 19q35 9 99 20l98 14l75 8q20 2 51 2q23 0 36 -8v0q17 -10 22 -18zM750 1039q0 -2 -1 -3v-2q0 -3 -4 -7l-2 -1q-4 -5 -10 -9q-8 -5 -9 -7h-4q-6 -4 -10 -7.5t-8 -5.5l-17 -16
q-2 -1 -6 -1q-9 0 -9 7l2 9q11 11 18 15q12 10 18 17l1 2l5 3q10 10 12 14q7 7 16 4v0q8 -5 8 -12z" />
    <glyph glyph-name="Icircumflex" unicode="&#xce;" horiz-adv-x="495" vert-adv-y="1500" 
d="M646 840q2 -4 2 -6q0 -7 -11 -13l-13 -8l-18 -21q-39 -51 -49 -64q-44 -61 -70 -101q-35 -51 -63 -96q-6 -11 -14 -23q-32 -50 -58 -107q-15 -30 -27 -61q-1 -7 -11 -15q-8 -7 -4 3q6 9 6 10l-10 -15l-3 -4l-9 -21q-45 -95 -64 -142q-30 -69 -54 -129l-2 -4q7 2 16 4.5
t18 4.5q52 12 86 17q34 6 71 8l46 3q14 0 16 -14l-7 -4q0 -12 -13 -9q-10 3 -41 5q-28 0 -70 -6q-40 -6 -84 -15q-31 -7 -41 -10q0 -15 -3 -31q-1 -11 -2 -19.5t-2 -14.5q-1 -15 -18 -10q-13 4 -12 16l-2 1q-12 5 -6 11q7 6 12 23q1 3 4 14l-29 -10q-66 -27 -100 -42
q-45 -19 -84 -42q-41 -23 -57 -28q-3 -1 -8 -1q-11 0 -14 13l-1 5q1 13 13 23l40 26q21 14 54 31l61 31l58 28q32 15 46 19q8 3 14 3q12 0 21 -9q6 -5 9 -10q29 72 54 127l63 142l11 24q-1 2 -1 8q0 8 2 12q5 16 36 65l24 36q19 35 59 103q36 61 81 130q46 69 73 105t45 64
q8 12 15 12q6 0 12 -7v0q7 -7 7 -15zM142 13q-1 9 -2 9l-15 -3q-14 -2 -41 -12q-29 -10 -58 -24q-26 -11 -60 -29q-29 -15 -51 -30l4 1q67 26 87 35q53 23 102 41v0zM882 926q-4 -19 -19 -19q-6 0 -10 2q-2 5 -9 11q-8 7 -24 8q-17 3 -46 3q-30 0 -75 -6q-43 -6 -96 -15
q-51 -9 -96 -24q-32 -11 -64 -23q-21 -9 -29 -17l-7 -1q-15 0 -15 11q0 8 6 18q13 8 34 15t69 19q35 9 99 20l98 14l75 8q20 2 51 2q23 0 36 -8v0q17 -10 22 -18zM730 1046q3 -3 2 -5q-2 -3 -4 -13q-2 -4 -2 -7.5t-1 -5.5q0 -9 1 -14q-3 -5 -8 -5q-3 0 -8 5v14l2 16l-2 -2
l-14 -12l-10 -11l-6 -6q-7 0 -10 3t-2 10q2 1 3.5 2.5t3.5 2.5q6 6 12 9q4 5 14 13l11 10q3 3 6 3q4 0 8 -3v0z" />
    <glyph glyph-name="Idieresis" unicode="&#xcf;" horiz-adv-x="495" vert-adv-y="1500" 
d="M646 840q2 -4 2 -6q0 -7 -11 -13l-13 -8l-18 -21q-39 -51 -49 -64q-44 -61 -70 -101q-35 -51 -63 -96q-6 -11 -14 -23q-32 -50 -58 -107q-15 -30 -27 -61q-1 -7 -11 -15q-8 -7 -4 3q6 9 6 10l-10 -15l-3 -4l-9 -21q-45 -95 -64 -142q-30 -69 -54 -129l-2 -4q7 2 16 4.5
t18 4.5q52 12 86 17q34 6 71 8l46 3q14 0 16 -14l-7 -4q0 -12 -13 -9q-10 3 -41 5q-28 0 -70 -6q-40 -6 -84 -15q-31 -7 -41 -10q0 -15 -3 -31q-1 -11 -2 -19.5t-2 -14.5q-1 -15 -18 -10q-13 4 -12 16l-2 1q-12 5 -6 11q7 6 12 23q1 3 4 14l-29 -10q-66 -27 -100 -42
q-45 -19 -84 -42q-41 -23 -57 -28q-3 -1 -8 -1q-11 0 -14 13l-1 5q1 13 13 23l40 26q21 14 54 31l61 31l58 28q32 15 46 19q8 3 14 3q12 0 21 -9q6 -5 9 -10q29 72 54 127l63 142l11 24q-1 2 -1 8q0 8 2 12q5 16 36 65l24 36q19 35 59 103q36 61 81 130q46 69 73 105t45 64
q8 12 15 12q6 0 12 -7v0q7 -7 7 -15zM142 13q-1 9 -2 9l-15 -3q-14 -2 -41 -12q-29 -10 -58 -24q-26 -11 -60 -29q-29 -15 -51 -30l4 1q67 26 87 35q53 23 102 41v0zM882 926q-4 -19 -19 -19q-6 0 -10 2q-2 5 -9 11q-8 7 -24 8q-17 3 -46 3q-30 0 -75 -6q-43 -6 -96 -15
q-51 -9 -96 -24q-32 -11 -64 -23q-21 -9 -29 -17l-7 -1q-15 0 -15 11q0 8 6 18q13 8 34 15t69 19q35 9 99 20l98 14l75 8q20 2 51 2q23 0 36 -8v0q17 -10 22 -18zM649 1054q4 -5 4 -10q0 -8 -2 -11l-6 -7q-3 -1 -4.5 -2t-2.5 -2q-2 -1 -4.5 -1t-5.5 -1q-6 0 -11 5t-5 10
q0 1 0.5 3.5t2.5 5.5q1 0 1.5 1t2.5 1v3q0 3 3 3q2 4 6 5q3 2 10 2v0q6 0 11 -5zM731 1044q0 -6 -3 -11l-5 -7l-8 -4q-2 -1 -4.5 -1t-5.5 -1q-6 0 -11 5q-5 7 -4 10q0 3 2 9q1 0 2.5 1t2.5 1q-1 1 -1 3q1 3 3 3q1 3 6 5q3 2 10 2q6 0 11 -5v0q5 -7 5 -10z" />
    <glyph glyph-name="Eth" unicode="&#xd0;" horiz-adv-x="706" vert-adv-y="1500" 
d="M696 725q0 -46 -9 -106q-9 -61 -24 -110q-14 -46 -41 -101q-27 -53 -58 -96q-36 -47 -80 -87q-50 -45 -96 -73q-51 -31 -108 -47q-57 -17 -109 -17q-45 0 -89 13l-16 5q-6 -15 -26 -69l-4 -8l-1 -10q-3 -26 -14 -17l-3 4q-2 -2 -8 -2h-2q-8 0 -8 8q0 5 5 15q20 42 31 71
q7 16 7 18q-10 4 -20 11q-5 10 -5 14q0 5 5 5q1 0 13 -4q10 -7 15 -10q23 51 49 97l6 12v1l53 129l3 8l-33 -2q-30 -2 -38 -1h-29h-23l-15 2q-10 6 -10 11q0 8 15 12q10 -2 14 -2l21 -2q19 -2 28 -1q21 0 36 -1h40l48 114l20 47h-3q-9 0 -15 18l7 19q6 14 18 34q12 24 36 66
l46 86l41 81l15 29l3 10q3 13 11 14q5 6 9 6q5 0 11 -6t6 -13t-6 -15q-11 -15 -31 -49q-14 -23 -44 -82l-54 -114l-59 -135l-47 -110h2h10q0 1 2 3q47 80 104 159q54 76 90 114q38 42 82 73q50 39 87 58q42 23 76 29q4 1 12 1q27 0 37 -27v0q14 -31 14 -80zM154 329
q9 17 29 51h-9q-3 -7 -5 -13v0zM679 725q-3 48 -11 70q-8 21 -27 21q-7 0 -10 -1q-26 -4 -68 -26q-40 -20 -85 -56q-49 -38 -82 -71q-35 -33 -90 -110q-48 -63 -104 -157q14 1 44 1l56 2l37 1h26h20q8 -6 8 -12t-11 -12l-20 3q-11 0 -24 3l-36 2h-55q-38 -2 -53 -2
q-57 -101 -77 -144l-45 -113v-2l16 -6q38 -13 84 -14q47 -2 104 15q53 15 106 46q52 33 93 72q41 37 78 86q29 39 57 93q22 46 40 99q16 51 23 108v0q8 59 6 104z" />
    <glyph glyph-name="Ntilde" unicode="&#xd1;" horiz-adv-x="778" vert-adv-y="1500" 
d="M213 456q3 10 12 46q13 44 29 79q21 45 46 91q26 48 51 82l43 56l28 34l3 6q0 4 -10 3q-16 -1 -31 -38q-17 -42 -41 -89l-56 -110l-57 -114q-18 -35 -61 -123q-12 -24 -17 -36l-46 -92l-20 -40q-24 -50 -36 -72q-26 -53 -41 -79q-7 -11 -7 -18q0 -8 10 -7q19 3 35 37
q14 30 53 96q44 72 81 127q42 61 96 133q44 58 106 122q52 53 108 97q49 39 101 73q48 32 78 45q28 14 36 14q6 -1 7 -13q0 -12 -6 -42q-10 -40 -26 -82l-39 -113q-14 -40 -38 -126q-16 -66 -24 -120q-8 -56 -6 -98q2 -46 17 -74q14 -29 41 -43q14 -7 34 -7q16 0 29 4
q34 9 73 35q15 15 15 20q0 2 -3 2q-6 0 -21 -7q-34 -23 -67 -31q-8 -2 -23 -2q-19 0 -29 5q-21 8 -34 33q-16 26 -17 66q-1 9 -1 27q0 26 5 68q6 51 23 119q23 82 39 125q21 60 42 111q25 60 32 82q11 34 10 54q-1 22 -23 24q-20 1 -53 -16q-21 -11 -78 -49
q-50 -34 -101 -75q-59 -47 -109 -99q-58 -60 -106 -123q-51 -66 -97 -133q-40 -58 -84 -125q-46 -69 -63 -91q-23 -29 -17 -44q1 -5 4 -5q6 0 13 17q7 19 37 80l55 113l63 128l61 122q32 65 58 114q39 76 58 109q22 42 49 84q17 26 17 42q0 4 -2 10q-4 10 -9 10q-2 0 -7 -6
q-1 -1 -26 -38l-40 -58q-21 -30 -52 -84q-32 -55 -50 -91q-21 -42 -36 -78q-16 -38 -17 -47t-6 -23q5 -18 14 -18q7 0 17 12v0q2 16 4 22zM765 973q8 0 8 -14q-3 -5 -10 -9q-5 -5 -13 -10q-4 -2 -8.5 -5t-9.5 -5l-22 -8q-4 -1 -10 -2t-13 -1q-2 -1 -6 -1q-7 0 -16 6
q-3 1 -8.5 4t-8.5 4q-3 4 -12 10q-7 4 -10 4l-13 -1q-2 -1 -5.5 -2.5t-8.5 -4.5q-13 -9 -17 -14q-2 -3 -5 -6t-3 -5q-4 -5 -4 -10q-6 -2 -7 -2q-7 0 -8 15q1 1 2.5 4t3.5 4q3 3 6.5 6t6.5 8l18 15l19 8q2 0 7 1.5t10 1.5q6 0 14 -5q9 -6 13 -11l14 -8q11 -8 18 -5
q5 0 10.5 1t10.5 2q16 4 19 7q2 1 7.5 4t9.5 7q6 3 11 8l6 8v0z" />
    <glyph glyph-name="Ograve" unicode="&#xd2;" vert-adv-y="1500" 
d="M655 824q0 -7 -2 -25q-8 -46 -28 -101q-21 -60 -52 -128q-26 -58 -71 -143q-41 -76 -84 -146q-39 -67 -84 -131q-42 -59 -77 -94q-36 -37 -71 -37q-36 0 -59 20q-25 21 -37 57q-9 30 -9 65h-2q-4 0 -13 12q-5 24 -7 70q-1 42 11 96q12 53 39 120q28 71 61 132
q34 64 77 122q43 59 87 96q45 38 93 63q48 26 93 33q20 4 42 4q21 0 36 -4q32 -9 47 -36v0q10 -19 10 -45zM639 821q0 25 -8 38q-12 19 -40 27q-20 4 -35 4q-16 0 -34 -3q-38 -4 -89 -28q-48 -25 -90 -61q-41 -34 -86 -93q-44 -58 -77 -120q-37 -71 -60 -130
q-26 -64 -37 -119q-10 -51 -9 -92q3 -41 9 -59q5 53 19 106q12 55 35 118q20 55 44 101q21 44 39 72q17 30 23 44q3 9 10 9q5 0 10 -4q4 -4 5 -9q4 0 6 -1q7 -3 7 -8q0 -4 -8 -10l-9 -8l-6 -13q-25 -47 -32 -58q-8 -15 -34 -71q-29 -38 -30 -20l-12 -29q-22 -56 -36 -116
q-14 -58 -18 -105q-3 -48 9 -81t33 -48q20 -15 48 -17q28 0 61 32q37 35 76 89q51 71 86 129q41 65 84 145q37 70 70 142q28 62 50 127q20 56 25 98v0q1 8 1 22zM627 972q0 -9 -14 -6l-14 15l-16 16l-2 1l-3 4l-13 10q-4 3 -5 6t0 8q5 8 10 8h4q3 0 8 -5q0 -1 1 -1
q4 -3 8 -9l3.5 -3.5l3.5 -3.5v-4l13 -15q11 -8 15 -14v0q1 -3 1 -7z" />
    <glyph glyph-name="Oacute" unicode="&#xd3;" vert-adv-y="1500" 
d="M655 824q0 -7 -2 -25q-8 -46 -28 -101q-21 -60 -52 -128q-26 -58 -71 -143q-41 -76 -84 -146q-39 -67 -84 -131q-42 -59 -77 -94q-36 -37 -71 -37q-36 0 -59 20q-25 21 -37 57q-9 30 -9 65h-2q-4 0 -13 12q-5 24 -7 70q-1 42 11 96q12 53 39 120q28 71 61 132
q34 64 77 122q43 59 87 96q45 38 93 63q48 26 93 33q20 4 42 4q21 0 36 -4q32 -9 47 -36v0q10 -19 10 -45zM639 821q0 25 -8 38q-12 19 -40 27q-20 4 -35 4q-16 0 -34 -3q-38 -4 -89 -28q-48 -25 -90 -61q-41 -34 -86 -93q-44 -58 -77 -120q-37 -71 -60 -130
q-26 -64 -37 -119q-10 -51 -9 -92q3 -41 9 -59q5 53 19 106q12 55 35 118q20 55 44 101q21 44 39 72q17 30 23 44q3 9 10 9q5 0 10 -4q4 -4 5 -9q4 0 6 -1q7 -3 7 -8q0 -4 -8 -10l-9 -8l-6 -13q-25 -47 -32 -58q-8 -15 -34 -71q-29 -38 -30 -20l-12 -29q-22 -56 -36 -116
q-14 -58 -18 -105q-3 -48 9 -81t33 -48q20 -15 48 -17q28 0 61 32q37 35 76 89q51 71 86 129q41 65 84 145q37 70 70 142q28 62 50 127q20 56 25 98v0q1 8 1 22zM664 1025q0 -2 -1 -3v-2q0 -3 -4 -7l-2 -1q-4 -5 -10 -9q-8 -5 -9 -7h-4q-6 -4 -10 -7.5t-8 -5.5l-17 -16
q-2 -1 -6 -1q-9 0 -9 7l2 9q11 11 18 15q12 10 18 17l1 2l5 3q10 10 12 14q7 7 16 4v0q8 -5 8 -12z" />
    <glyph glyph-name="Ocircumflex" unicode="&#xd4;" vert-adv-y="1500" 
d="M655 824q0 -7 -2 -25q-8 -46 -28 -101q-21 -60 -52 -128q-26 -58 -71 -143q-41 -76 -84 -146q-39 -67 -84 -131q-42 -59 -77 -94q-36 -37 -71 -37q-36 0 -59 20q-25 21 -37 57q-9 30 -9 65h-2q-4 0 -13 12q-5 24 -7 70q-1 42 11 96q12 53 39 120q28 71 61 132
q34 64 77 122q43 59 87 96q45 38 93 63q48 26 93 33q20 4 42 4q21 0 36 -4q32 -9 47 -36v0q10 -19 10 -45zM639 821q0 25 -8 38q-12 19 -40 27q-20 4 -35 4q-16 0 -34 -3q-38 -4 -89 -28q-48 -25 -90 -61q-41 -34 -86 -93q-44 -58 -77 -120q-37 -71 -60 -130
q-26 -64 -37 -119q-10 -51 -9 -92q3 -41 9 -59q5 53 19 106q12 55 35 118q20 55 44 101q21 44 39 72q17 30 23 44q3 9 10 9q5 0 10 -4q4 -4 5 -9q4 0 6 -1q7 -3 7 -8q0 -4 -8 -10l-9 -8l-6 -13q-25 -47 -32 -58q-8 -15 -34 -71q-29 -38 -30 -20l-12 -29q-22 -56 -36 -116
q-14 -58 -18 -105q-3 -48 9 -81t33 -48q20 -15 48 -17q28 0 61 32q37 35 76 89q51 71 86 129q41 65 84 145q37 70 70 142q28 62 50 127q20 56 25 98v0q1 8 1 22zM635 995q3 -3 2 -5q-2 -3 -4 -13q-2 -4 -2 -7.5t-1 -5.5q0 -9 1 -14q-3 -5 -8 -5q-3 0 -8 5v14l2 16l-2 -2
l-14 -12l-10 -11l-6 -6q-7 0 -10 3t-2 10q2 1 3.5 2.5t3.5 2.5q6 6 12 9q4 5 14 13l11 10q3 3 6 3t8 -3v0z" />
    <glyph glyph-name="Otilde" unicode="&#xd5;" vert-adv-y="1500" 
d="M655 824q0 -7 -2 -25q-8 -46 -28 -101q-21 -60 -52 -128q-26 -58 -71 -143q-41 -76 -84 -146q-39 -67 -84 -131q-42 -59 -77 -94q-36 -37 -71 -37q-36 0 -59 20q-25 21 -37 57q-9 30 -9 65h-2q-4 0 -13 12q-5 24 -7 70q-1 42 11 96q12 53 39 120q28 71 61 132
q34 64 77 122q43 59 87 96q45 38 93 63q48 26 93 33q20 4 42 4q21 0 36 -4q32 -9 47 -36v0q10 -19 10 -45zM639 821q0 25 -8 38q-12 19 -40 27q-20 4 -35 4q-16 0 -34 -3q-38 -4 -89 -28q-48 -25 -90 -61q-41 -34 -86 -93q-44 -58 -77 -120q-37 -71 -60 -130
q-26 -64 -37 -119q-10 -51 -9 -92q3 -41 9 -59q5 53 19 106q12 55 35 118q20 55 44 101q21 44 39 72q17 30 23 44q3 9 10 9q5 0 10 -4q4 -4 5 -9q4 0 6 -1q7 -3 7 -8q0 -4 -8 -10l-9 -8l-6 -13q-25 -47 -32 -58q-8 -15 -34 -71q-29 -38 -30 -20l-12 -29q-22 -56 -36 -116
q-14 -58 -18 -105q-3 -48 9 -81t33 -48q20 -15 48 -17q28 0 61 32q37 35 76 89q51 71 86 129q41 65 84 145q37 70 70 142q28 62 50 127q20 56 25 98v0q1 8 1 22zM739 1014q8 0 8 -14q-3 -5 -10 -9q-5 -5 -13 -10q-4 -2 -8.5 -5t-9.5 -5l-22 -8q-4 -1 -10 -2t-13 -1
q-2 -1 -6 -1q-7 0 -16 6q-3 1 -8.5 4t-8.5 4q-3 4 -12 10q-7 4 -10 4l-13 -1q-2 -1 -5.5 -2.5t-8.5 -4.5q-13 -9 -17 -14q-2 -3 -5 -6t-3 -5q-4 -5 -4 -10q-6 -2 -7 -2q-7 0 -8 15q1 1 2.5 4t3.5 4q3 3 6.5 6t6.5 8l18 15l19 8q2 0 7 1.5t10 1.5q6 0 14 -5q9 -6 13 -11
l14 -8q11 -8 18 -5q5 0 10.5 1t10.5 2q16 4 19 7q2 1 7.5 4t9.5 7q6 3 11 8l6 8v0z" />
    <glyph glyph-name="Odieresis" unicode="&#xd6;" vert-adv-y="1500" 
d="M655 824q0 -7 -2 -25q-8 -46 -28 -101q-21 -60 -52 -128q-26 -58 -71 -143q-41 -76 -84 -146q-39 -67 -84 -131q-42 -59 -77 -94q-36 -37 -71 -37q-36 0 -59 20q-25 21 -37 57q-9 30 -9 65h-2q-4 0 -13 12q-5 24 -7 70q-1 42 11 96q12 53 39 120q28 71 61 132
q34 64 77 122q43 59 87 96q45 38 93 63q48 26 93 33q20 4 42 4q21 0 36 -4q32 -9 47 -36v0q10 -19 10 -45zM639 821q0 25 -8 38q-12 19 -40 27q-20 4 -35 4q-16 0 -34 -3q-38 -4 -89 -28q-48 -25 -90 -61q-41 -34 -86 -93q-44 -58 -77 -120q-37 -71 -60 -130
q-26 -64 -37 -119q-10 -51 -9 -92q3 -41 9 -59q5 53 19 106q12 55 35 118q20 55 44 101q21 44 39 72q17 30 23 44q3 9 10 9q5 0 10 -4q4 -4 5 -9q4 0 6 -1q7 -3 7 -8q0 -4 -8 -10l-9 -8l-6 -13q-25 -47 -32 -58q-8 -15 -34 -71q-29 -38 -30 -20l-12 -29q-22 -56 -36 -116
q-14 -58 -18 -105q-3 -48 9 -81t33 -48q20 -15 48 -17q28 0 61 32q37 35 76 89q51 71 86 129q41 65 84 145q37 70 70 142q28 62 50 127q20 56 25 98v0q1 8 1 22zM565 1007q4 -5 4 -10q0 -8 -2 -11l-6 -7q-3 -1 -4.5 -2t-2.5 -2q-2 -1 -4.5 -1t-5.5 -1q-6 0 -11 5t-5 10
q0 1 0.5 3.5t2.5 5.5q1 0 1.5 1t2.5 1v3q0 3 3 3q2 4 6 5q3 2 10 2v0q6 0 11 -5zM647 997q0 -6 -3 -11l-5 -7l-8 -4q-2 -1 -4.5 -1t-5.5 -1q-6 0 -11 5q-5 7 -4 10q0 3 2 9q1 0 2.5 1t2.5 1q-1 1 -1 3q1 3 3 3q1 3 6 5q3 2 10 2q6 0 11 -5v0q5 -7 5 -10z" />
    <glyph glyph-name="multiply" unicode="&#xd7;" horiz-adv-x="275" 
d="M112 161l-78 78l26 25l77 -77l79 77l25 -25l-78 -78l78 -78l-25 -25l-79 77l-77 -77l-25 25zM111 311z" />
    <glyph glyph-name="Oslash" unicode="&#xd8;" horiz-adv-x="685" vert-adv-y="1500" 
d="M740 592q0 -9 -25 -15q-28 -5 -83 -25l-38 -14q-24 -54 -65 -130t-84 -146q-39 -67 -84 -131q-42 -59 -77 -94q-36 -37 -71 -37q-36 0 -59 20q-25 21 -37 57q-9 30 -9 65h-2q-4 0 -13 12q-5 24 -7 70q-1 33 6 70l-17 -10l-47 -28q-6 -1 -16 -1q-12 0 -12 5q0 3 5 10
q21 8 50 24l41 22l1 4q12 53 39 120q28 71 61 132q34 64 77 122q43 59 87 96q45 38 93 63q48 26 93 33q20 4 42 4q21 0 36 -4q32 -9 47 -36q10 -19 10 -45q0 -7 -2 -25q-8 -46 -28 -101q-19 -54 -43 -109q28 11 36 13l40 15l3 2q13 8 26 8q2 1 5 1l3 1q7 0 16 -12v0
q2 -2 2 -6zM112 324l18 10q12 6 18 10q12 36 16 46q20 55 44 101q21 43 39 72q17 30 23 44q3 9 10 9q5 0 10 -4q4 -4 5 -9q4 0 6 -1q7 -3 7 -8q0 -4 -8 -10l-9 -8l-6 -13q-25 -47 -32 -58q-8 -15 -34 -71q-29 -38 -30 -20l-12 -29l-12 -33l71 36q18 10 56 28q0 4 8 14l19 10
q15 7 23 12q22 12 60 29q47 23 85 39q56 24 84 35l23 10q27 59 46 117q20 56 25 98q1 8 1 22q0 25 -8 38q-12 19 -40 27q-20 4 -35 4q-16 0 -34 -3q-38 -4 -89 -28q-48 -25 -90 -61q-41 -34 -86 -93q-44 -58 -77 -120q-37 -71 -60 -130v0q-24 -58 -35 -112zM129 272
q9 39 13 52l-35 -20q-7 -43 -6 -79q3 -41 9 -59v0q5 53 19 106zM571 514l9 19l-69 -29l-96 -42q-28 -16 -46 -25q-16 -7 -38 -23q-8 -2 -25 -5l-57 -28l-91 -48q-11 -37 -17 -64q-14 -59 -18 -105q-3 -48 9 -81t33 -48q20 -15 48 -17q28 0 61 32q37 35 76 89q51 71 86 129
q41 65 84 145v0q24 46 51 101z" />
    <glyph glyph-name="Ugrave" unicode="&#xd9;" vert-adv-y="1500" 
d="M785 881q0 -11 -6 -23q-19 -30 -39 -56q-32 -43 -101 -130l-36 -45q-56 -69 -52 -64l-9 -19q-32 -67 -55 -136q-23 -68 -33 -129q-11 -54 -9 -107q3 -47 19 -78q17 -31 44 -45q27 -13 57 -15q17 -6 17 -10q0 -5 -19 -9q-34 2 -64 19q-30 16 -49 52q-17 36 -18 85
q-3 44 10 110q10 57 34 130q21 64 46 116l-41 -49l-162 -194q-74 -90 -121 -137q-45 -45 -79 -69q-35 -25 -64 -34q-7 -3 -15 -3q-16 0 -25 14q-7 12 -7 29t6 39q11 51 34 118q31 92 59 160q32 83 77 175q36 74 75 146q34 66 47 99q7 18 14.5 26t15.5 5q5 -3 6 -6l4 -2
q4 -3 4 -8q0 -10 -17 -30q-19 -39 -24 -49q-12 -19 -32 -66q-28 -36 -31 -20l-52 -100q-43 -82 -78 -173q-34 -86 -58 -160q-25 -77 -31 -117q-5 -24 -5 -41q0 -9 2 -11q4 -4 11 -4q6 0 17 3q20 4 57 26q39 26 79 64q52 51 124 133q66 76 163 192q40 48 59 72q29 61 65 123
q29 50 68 109q42 61 53 76q20 27 38 40q7 4 12 4q9 0 12 -11v0q3 -7 3 -15zM760 868l-22 -22q-21 -20 -58 -68q-31 -44 -70 -106q-15 -24 -43 -76q34 40 66 81q76 97 97 131q24 38 30 57v0v3zM553 904q0 -9 -14 -6l-14 15l-16 16l-2 1l-3 4l-13 10q-4 3 -5 6t0 8q5 8 10 8h4
q3 0 8 -5q0 -1 1 -1q4 -3 8 -9l3.5 -3.5l3.5 -3.5v-4l13 -15q11 -8 15 -14v0q1 -3 1 -7z" />
    <glyph glyph-name="Uacute" unicode="&#xda;" vert-adv-y="1500" 
d="M785 881q0 -11 -6 -23q-19 -30 -39 -56q-32 -43 -101 -130l-36 -45q-56 -69 -52 -64l-9 -19q-32 -67 -55 -136q-23 -68 -33 -129q-11 -54 -9 -107q3 -47 19 -78q17 -31 44 -45q27 -13 57 -15q17 -6 17 -10q0 -5 -19 -9q-34 2 -64 19q-30 16 -49 52q-17 36 -18 85
q-3 44 10 110q10 57 34 130q21 64 46 116l-41 -49l-162 -194q-74 -90 -121 -137q-45 -45 -79 -69q-35 -25 -64 -34q-7 -3 -15 -3q-16 0 -25 14q-7 12 -7 29t6 39q11 51 34 118q31 92 59 160q32 83 77 175q36 74 75 146q34 66 47 99q7 18 14.5 26t15.5 5q5 -3 6 -6l4 -2
q4 -3 4 -8q0 -10 -17 -30q-19 -39 -24 -49q-12 -19 -32 -66q-28 -36 -31 -20l-52 -100q-43 -82 -78 -173q-34 -86 -58 -160q-25 -77 -31 -117q-5 -24 -5 -41q0 -9 2 -11q4 -4 11 -4q6 0 17 3q20 4 57 26q39 26 79 64q52 51 124 133q66 76 163 192q40 48 59 72q29 61 65 123
q29 50 68 109q42 61 53 76q20 27 38 40q7 4 12 4q9 0 12 -11v0q3 -7 3 -15zM760 868l-22 -22q-21 -20 -58 -68q-31 -44 -70 -106q-15 -24 -43 -76q34 40 66 81q76 97 97 131q24 38 30 57v0v3zM586 947q0 -2 -1 -3v-2q0 -3 -4 -7l-2 -1q-4 -5 -10 -9q-8 -5 -9 -7h-4
q-6 -4 -10 -7.5t-8 -5.5l-17 -16q-2 -1 -6 -1q-9 0 -9 7l2 9q11 11 18 15q12 10 18 17l1 2l5 3q10 10 12 14q7 7 16 4v0q8 -5 8 -12z" />
    <glyph glyph-name="Ucircumflex" unicode="&#xdb;" vert-adv-y="1500" 
d="M785 881q0 -11 -6 -23q-19 -30 -39 -56q-32 -43 -101 -130l-36 -45q-56 -69 -52 -64l-9 -19q-32 -67 -55 -136q-23 -68 -33 -129q-11 -54 -9 -107q3 -47 19 -78q17 -31 44 -45q27 -13 57 -15q17 -6 17 -10q0 -5 -19 -9q-34 2 -64 19q-30 16 -49 52q-17 36 -18 85
q-3 44 10 110q10 57 34 130q21 64 46 116l-41 -49l-162 -194q-74 -90 -121 -137q-45 -45 -79 -69q-35 -25 -64 -34q-7 -3 -15 -3q-16 0 -25 14q-7 12 -7 29t6 39q11 51 34 118q31 92 59 160q32 83 77 175q36 74 75 146q34 66 47 99q7 18 14.5 26t15.5 5q5 -3 6 -6l4 -2
q4 -3 4 -8q0 -10 -17 -30q-19 -39 -24 -49q-12 -19 -32 -66q-28 -36 -31 -20l-52 -100q-43 -82 -78 -173q-34 -86 -58 -160q-25 -77 -31 -117q-5 -24 -5 -41q0 -9 2 -11q4 -4 11 -4q6 0 17 3q20 4 57 26q39 26 79 64q52 51 124 133q66 76 163 192q40 48 59 72q29 61 65 123
q29 50 68 109q42 61 53 76q20 27 38 40q7 4 12 4q9 0 12 -11v0q3 -7 3 -15zM760 868l-22 -22q-21 -20 -58 -68q-31 -44 -70 -106q-15 -24 -43 -76q34 40 66 81q76 97 97 131q24 38 30 57v0v3zM548 921q3 -3 2 -5q-2 -3 -4 -13q-2 -4 -2 -7.5t-1 -5.5q0 -9 1 -14q-3 -5 -8 -5
q-3 0 -8 5v14l2 16l-2 -2l-14 -12l-10 -11l-6 -6q-7 0 -10 3t-2 10q2 1 3.5 2.5t3.5 2.5q6 6 12 9q4 5 14 13l11 10q3 3 6 3t8 -3v0z" />
    <glyph glyph-name="Udieresis" unicode="&#xdc;" vert-adv-y="1500" 
d="M785 881q0 -11 -6 -23q-19 -30 -39 -56q-32 -43 -101 -130l-36 -45q-56 -69 -52 -64l-9 -19q-32 -67 -55 -136q-23 -68 -33 -129q-11 -54 -9 -107q3 -47 19 -78q17 -31 44 -45q27 -13 57 -15q17 -6 17 -10q0 -5 -19 -9q-34 2 -64 19q-30 16 -49 52q-17 36 -18 85
q-3 44 10 110q10 57 34 130q21 64 46 116l-41 -49l-162 -194q-74 -90 -121 -137q-45 -45 -79 -69q-35 -25 -64 -34q-7 -3 -15 -3q-16 0 -25 14q-7 12 -7 29t6 39q11 51 34 118q31 92 59 160q32 83 77 175q36 74 75 146q34 66 47 99q7 18 14.5 26t15.5 5q5 -3 6 -6l4 -2
q4 -3 4 -8q0 -10 -17 -30q-19 -39 -24 -49q-12 -19 -32 -66q-28 -36 -31 -20l-52 -100q-43 -82 -78 -173q-34 -86 -58 -160q-25 -77 -31 -117q-5 -24 -5 -41q0 -9 2 -11q4 -4 11 -4q6 0 17 3q20 4 57 26q39 26 79 64q52 51 124 133q66 76 163 192q40 48 59 72q29 61 65 123
q29 50 68 109q42 61 53 76q20 27 38 40q7 4 12 4q9 0 12 -11v0q3 -7 3 -15zM760 868l-22 -22q-21 -20 -58 -68q-31 -44 -70 -106q-15 -24 -43 -76q34 40 66 81q76 97 97 131q24 38 30 57v0v3zM486 932q4 -5 4 -10q0 -8 -2 -11l-6 -7q-3 -1 -4.5 -2t-2.5 -2q-2 -1 -4.5 -1
t-5.5 -1q-6 0 -11 5t-5 10q0 1 0.5 3.5t2.5 5.5q1 0 1.5 1t2.5 1v3q0 3 3 3q2 4 6 5q3 2 10 2v0q6 0 11 -5zM568 922q0 -6 -3 -11l-5 -7l-8 -4q-2 -1 -4.5 -1t-5.5 -1q-6 0 -11 5q-5 7 -4 10q0 3 2 9q1 0 2.5 1t2.5 1q-1 1 -1 3q1 3 3 3q1 3 6 5q3 2 10 2q6 0 11 -5v0
q5 -7 5 -10z" />
    <glyph glyph-name="Yacute" unicode="&#xdd;" vert-adv-y="1500" 
d="M608 331q0 -5 -14 -10q-8 2 -14 2q-8 0 -28 -4q-25 -4 -63 -24q-33 -17 -82 -53l-19 -15l-9 -19l-14 -28q-26 -51 -63 -118q-38 -68 -62 -107q-28 -48 -54 -84q-25 -36 -42 -51q-10 -10 -21 -10q-7 0 -14 3q-18 9 -14 36q4 24 20 64q14 36 42 82q27 44 66 90q41 49 85 90
q35 34 71 62l31 68q25 58 45 115q19 52 25 95q7 39 4 59q-3 19 -6 25q-4 7 -37 -13q-27 -17 -77 -60q-40 -38 -90 -92q-45 -51 -75 -93q-28 -35 -57 -77l-48 -65l-34 -46q-9 -11 -18 -11q-5 0 -12 5q-11 9 -11 24q0 4 2 14q5 23 18 65l26 84q18 55 31 90l10 25l25 59
q-1 -3 29 62l20 41q11 10 20 10q7 0 7 -12q0 -8 -1 -13q-15 -18 -24 -38l-31 -59q-18 -33 -38 -82q-7 -15 -14 -35t-10 -29l-9 -24q-20 -63 -26 -84q-11 -40 -14 -62v-4q13 7 38 34q17 19 50 61l19 26q20 24 39 51q36 46 79 92q51 56 91 92q50 45 79 64q23 16 41 16
q8 0 14 -3q20 -9 20 -34q2 -25 -10 -67q-11 -46 -31 -96q-19 -52 -47 -115l-22 -47q44 34 82 55q39 21 66 30q28 7 49 6v0q11 -8 11 -13zM366 209q-17 -13 -50 -44q-41 -39 -82 -89q-37 -44 -63 -89q-24 -41 -37 -80q-12 -39 -11 -56v-21l12 8q11 6 39 42q24 33 55 82
q33 53 63 106q22 39 62 117v0zM381 709q0 -2 -1 -3v-2q0 -3 -4 -7l-2 -1q-4 -5 -10 -9q-8 -5 -9 -7h-4q-6 -4 -10 -7.5t-8 -5.5l-17 -16q-2 -1 -6 -1q-9 0 -9 7l2 9q11 11 18 15q12 10 18 17l1 2l5 3q10 10 12 14q7 7 16 4v0q8 -5 8 -12z" />
    <glyph glyph-name="Thorn" unicode="&#xde;" horiz-adv-x="302" 
d="M277 191q0 -55 -36.5 -84.5t-106.5 -29.5h-40v-77h-45v357h45v-62h48q69 0 102 -26t33 -78zM94 115h35q54 0 77.5 17.5t23.5 55.5q0 35 -22 52t-70 17h-44v-142z" />
    <glyph glyph-name="germandbls" unicode="&#xdf;" horiz-adv-x="422" vert-adv-y="1500" 
d="M428 335q0 -15 -18 -17q-1 4 -18 7q-20 2 -46 -3q-31 -5 -86 -27q-21 -8 -84 -36q-10 -15 -37 -44q-27 -30 -71 -58q-41 -26 -77 -42q-21 -10 -40 -10q-10 0 -18 3q-11 3 -11 11q0 7 13 19q24 20 82 53q66 37 119 63l17 7q10 16 14 24q16 30 17 47q3 17 1 26q-2 7 -11 10
q-2 1 -8 1l-20 -2q-13 -3 -40 -14q-19 -8 -44 -28q-22 -19 -32 -33q-5 -8 -13 -8q-6 0 -11 5q-4 4 -4 6q-3 1 -4 4q-3 5 -3 7q-30 -45 -57 -93q-36 -62 -60 -120l-38 -89q-12 -30 -15 -56q-10 -16 -18 -16t-11 26q9 29 22 55q12 28 42 88q25 53 64 119q33 55 75 118
q41 60 77 107q38 50 72 87q33 38 62 62q32 27 47 35q11 7 25 7q4 0 14 -2q12 -3 12 -14q0 -6 -7 -20q-19 -31 -50 -66q-40 -45 -80 -88t-67 -69q15 7 38 14q12 3 24 3q7 0 17 -2q19 -4 27 -23q4 -9 4 -23q0 -12 -2 -19q-6 -22 -23 -48q53 23 66 28q52 22 89 32q32 9 51 9h7
q11 0 25 -4v0q1 -3 1 -9zM3 320l3 1q21 10 42 24l3 2q24 21 26 23q34 30 84 85q47 54 75 91q31 42 38 60l3 8q-6 -4 -11 -5q-18 -8 -46 -28q-33 -28 -62 -59q-38 -41 -72 -85q-38 -48 -76 -106v0zM126 227l10 12q-68 -35 -110 -62q-56 -39 -70 -50q-16 -14 -11 -13l40 17
q36 15 74 40v0q38 24 67 56z" />
    <glyph glyph-name="agrave" unicode="&#xe0;" horiz-adv-x="185" vert-adv-y="1500" 
d="M191 338q0 -4 -5 -9l-23 -7l-31 -12q-29 -10 -34 -11q-8 -3 -13 -3q-6 0 -16 4q-14 9 -15 17q-3 6 -3 10q-6 -3 -15 -12q-10 -9 -22 -22l-22 -23q-10 -10 -23 -6q-14 5 -11 15q1 7 8 23q2 4 16 25l21 22q10 10 22 12h5q9 0 11 -5q1 -2 2.5 -4.5t2.5 -4.5q7 3 15 2
q11 -1 13 -11l2 -14q0 -4 4 -7q3 -1 16 0l30 8q16 5 31 12l23 10v0q11 -3 11 -9zM25 328l8 8l-5 4q0 -2 -2 -2q-2 2 -11 -6q-11 -6 -19 -17q-10 -12 -14 -21l-1 -4q11 8 21 16v0zM51 398q0 -3 -3 -4t-7 0q-6 5 -11 11q-10 10 -12 11q0 1 -1 1q-2 2 -2 3l-10 8q-4 2 -4 10
q0 1 2 3.5t6 2.5h3q1 0 2.5 -1.5t3.5 -2.5v-1q4 -3 6 -6q2 -2 3.5 -3t2.5 -2v-3l9 -12q6 -3 11 -10v0q1 -2 1 -5z" />
    <glyph glyph-name="aacute" unicode="&#xe1;" horiz-adv-x="185" vert-adv-y="1500" 
d="M191 338q0 -4 -5 -9l-23 -7l-31 -12q-29 -10 -34 -11q-8 -3 -13 -3q-6 0 -16 4q-14 9 -15 17q-3 6 -3 10q-6 -3 -15 -12q-10 -9 -22 -22l-22 -23q-10 -10 -23 -6q-14 5 -11 15q1 7 8 23q2 4 16 25l21 22q10 10 22 12h5q9 0 11 -5q1 -2 2.5 -4.5t2.5 -4.5q7 3 15 2
q11 -1 13 -11l2 -14q0 -4 4 -7q3 -1 16 0l30 8q16 5 31 12l23 10v0q11 -3 11 -9zM25 328l8 8l-5 4q0 -2 -2 -2q-2 2 -11 -6q-11 -6 -19 -17q-10 -12 -14 -21l-1 -4q11 8 21 16v0zM71 444l-1 -2q1 -1 0 -3t-3 -3l-0.5 -0.5l-0.5 -0.5q-5 -5 -7 -6l-7 -5h-3l-12 -9l-12 -12
l-4 -1q-9 0 -6 12q3 2 6 5t7 6q9 6 13 12l0.5 0.5l0.5 0.5q2 2 3 2q7 7 9 10q3 5 11 3v0q6 -4 6 -9z" />
    <glyph glyph-name="acircumflex" unicode="&#xe2;" horiz-adv-x="185" vert-adv-y="1500" 
d="M191 338q0 -4 -5 -9l-23 -7l-31 -12q-29 -10 -34 -11q-8 -3 -13 -3q-6 0 -16 4q-14 9 -15 17q-3 6 -3 10q-6 -3 -15 -12q-10 -9 -22 -22l-22 -23q-10 -10 -23 -6q-14 5 -11 15q1 7 8 23q2 4 16 25l21 22q10 10 22 12h5q9 0 11 -5q1 -2 2.5 -4.5t2.5 -4.5q7 3 15 2
q11 -1 13 -11l2 -14q0 -4 4 -7q3 -1 16 0l30 8q16 5 31 12l23 10v0q11 -3 11 -9zM25 328l8 8l-5 4q0 -2 -2 -2q-2 2 -11 -6q-11 -6 -19 -17q-10 -12 -14 -21l-1 -4q11 8 21 16v0zM73 445q3 -3 2 -5q-2 -3 -4 -13q-2 -4 -2 -7.5t-1 -5.5q0 -9 1 -14q-3 -5 -8 -5q-3 0 -8 5v14
l2 16l-2 -2l-14 -12l-10 -11l-6 -6q-7 0 -10 3t-2 10q2 1 3.5 2.5t3.5 2.5q6 6 12 9q4 5 14 13l11 10q3 3 6 3q4 0 8 -3v0z" />
    <glyph glyph-name="atilde" unicode="&#xe3;" horiz-adv-x="185" vert-adv-y="1500" 
d="M191 338q0 -4 -5 -9l-23 -7l-31 -12q-29 -10 -34 -11q-8 -3 -13 -3q-6 0 -16 4q-14 9 -15 17q-3 6 -3 10q-6 -3 -15 -12q-10 -9 -22 -22l-22 -23q-10 -10 -23 -6q-14 5 -11 15q1 7 8 23q2 4 16 25l21 22q10 10 22 12h5q9 0 11 -5q1 -2 2.5 -4.5t2.5 -4.5q7 3 15 2
q11 -1 13 -11l2 -14q0 -4 4 -7q3 -1 16 0l30 8q16 5 31 12l23 10v0q11 -3 11 -9zM25 328l8 8l-5 4q0 -2 -2 -2q-2 2 -11 -6q-11 -6 -19 -17q-10 -12 -14 -21l-1 -4q11 8 21 16v0zM125 432q4 0 5.5 -2t1.5 -9q-1 -3 -8 -8q-5 -5 -11 -8q-3 -2 -6.5 -4t-8.5 -5q-5 -1 -19 -7
q-5 0 -9.5 -1t-9.5 -1q-2 -1 -5 -1q-6 0 -14 5q-5 2 -8.5 4t-5.5 3q-4 5 -10 8q-5 4 -8 4l-11 -1l-12 -6q-9 -6 -15 -12q-2 -3 -4 -5t-2 -4q-4 -4 -4 -9q-4 -2 -6 -2q-5 0 -6 13q1 1 2 3.5t3 3.5l11 12q6 4 15 13q7 2 10.5 3.5t5.5 2.5q2 0 6 1.5t8 1.5t12 -4q9 -6 11 -10
q2 -1 5 -3t7 -3q8 -7 15 -5q4 0 9 1t9 2q3 1 8 2.5t8 3.5q10 5 14 9q8 5 9 7l5 7v0h3z" />
    <glyph glyph-name="adieresis" unicode="&#xe4;" horiz-adv-x="185" vert-adv-y="1500" 
d="M191 338q0 -4 -5 -9l-23 -7l-31 -12q-29 -10 -34 -11q-8 -3 -13 -3q-6 0 -16 4q-14 9 -15 17q-3 6 -3 10q-6 -3 -15 -12q-10 -9 -22 -22l-22 -23q-10 -10 -23 -6q-14 5 -11 15q1 7 8 23q2 4 16 25l21 22q10 10 22 12h5q9 0 11 -5q1 -2 2.5 -4.5t2.5 -4.5q7 3 15 2
q11 -1 13 -11l2 -14q0 -4 4 -7q3 -1 16 0l30 8q16 5 31 12l23 10v0q11 -3 11 -9zM25 328l8 8l-5 4q0 -2 -2 -2q-2 2 -11 -6q-11 -6 -19 -17q-10 -12 -14 -21l-1 -4q11 8 21 16v0zM13 448q3 -4 3 -8q0 -5 -2 -7q0 -1 -4 -5q-1 -1 -2.5 -2t-2.5 -1q-1 -1 -3 -1t-4 -1
q-4 0 -8 4t-4 7q0 1 0.5 2.5t2.5 3.5q0 1 0.5 1.5t1.5 0.5v2q0 2 3 2q0 2 4 4q2 1 7 1v0q5 0 8 -3zM72 440q0 -3 -2 -7l-4 -5q-1 -1 -2.5 -2t-3.5 -1q-1 -1 -3 -1t-4 -1q-4 0 -8 4q-3 5 -3 7t2 6q1 0 1.5 1t1.5 1v2q0 2 2 2l4 4q2 1 7 1t8 -3v0q4 -6 4 -8z" />
    <glyph glyph-name="aring" unicode="&#xe5;" horiz-adv-x="185" vert-adv-y="1500" 
d="M191 338q0 -4 -5 -9l-23 -7l-31 -12q-29 -10 -34 -11q-8 -3 -13 -3q-6 0 -16 4q-14 9 -15 17q-3 6 -3 10q-6 -3 -15 -12q-10 -9 -22 -22l-22 -23q-10 -10 -23 -6q-14 5 -11 15q1 7 8 23q2 4 16 25l21 22q10 10 22 12h5q9 0 11 -5q1 -2 2.5 -4.5t2.5 -4.5q7 3 15 2
q11 -1 13 -11l2 -14q0 -4 4 -7q3 -1 16 0l30 8q16 5 31 12l23 10v0q11 -3 11 -9zM25 328l8 8l-5 4q0 -2 -2 -2q-2 2 -11 -6q-11 -6 -19 -17q-10 -12 -14 -21l-1 -4q11 8 21 16v0zM63 466q0 -10 -9 -21q-9 -12 -25 -11q-22 1 -19 34t21 37l6 3q2 2 5 -2q1 -1 3 -5q1 -1 2 -3
t2 -3l4 -6q9 -12 9 -18v0zM44 469q0 6 -7 7q-3 -7 -4 -9q-2 -8 -2 -9l6 3t6 4v0q1 1 1 4z" />
    <glyph glyph-name="ae" unicode="&#xe6;" horiz-adv-x="223" vert-adv-y="1500" 
d="M229 333q0 -5 -2 -8l-20 -8l-31 -10l-40 -14q-13 -5 -39 -9q-4 -1 -11 -1q-10 0 -18 5q-10 6 -14 15q-6 13 -3 20l1 2l-1 3q-6 -5 -18 -19l-22 -23q-10 -10 -23 -6q-14 5 -11 15q1 7 8 23q2 4 16 25l21 22q10 10 22 12h5q9 0 11 -5q1 -2 2.5 -4.5t2.5 -4.5q2 2 5 2v0
q4 5 7 9.5t7 8.5q6 6 17 10q2 1 6 1q5 0 11 -3q9 -5 11 -14l1 -7q0 -5 -3 -11q-4 -8 -11 -15q-6 -6 -14 -11t-17 -9l-13 -5q0 -4 2 -7l5 -6q1 -1 7 -1.5t11 -0.5h7q15 0 28 4q6 2 16 4.5t23 7.5q22 9 29 13l17 10v0q12 -1 12 -10zM90 351q7 2 10 8q4 6 5 9l-6 -4
q-2 -1 -6 -4t-7 -7l-4 -6v0zM52 352l-5 4q0 -2 -2 -2q-2 2 -11 -6q-11 -6 -19 -17q-10 -12 -14 -21l-1 -4q11 8 21 16l23 22v0z" />
    <glyph glyph-name="ccedilla" unicode="&#xe7;" horiz-adv-x="144" vert-adv-y="1500" 
d="M150 331q0 -5 -4 -10q-10 -3 -22 -8q-13 -5 -28 -13q-11 -5 -33 -17l-34 -17q-13 -5 -23 -5q-7 0 -10 1q-16 3 -17 19v5q0 14 6 27q7 17 19 32q9 13 20 24q10 8 19 13q4 2 6 2q5 0 13 -5q10 -7 10 -16q0 -7 -2 -13q0 -3 -6 -9q-3 -1 -5 -1.5t-2 0.5l-4 2q-2 -2 -5 4
q-2 6 -2 9v1q-6 -2 -9 -4q-10 -7 -20 -18q-11 -13 -17 -27q-6 -11 -6 -22q1 -7 7 -7q4 0 22 5q22 8 33 14l33 17l28 14l22 11v0q11 -2 11 -8zM45 208q0 -6 -3 -11q-4 -8 -11 -13l-12 -8l-12 -6l-11 -4q-6 -1 -12 0q-8 0 -12 9q-5 8 -3 14q6 2 9 2q5 0 10 -3h3q3 0 9 2t9 4
q6 4 9 7l6 5q2 1 2 3l-4 4l-4 2t-5 1q-5 2 -8 -1q-6 -2 -9 -2t-11 8q-6 9 -2 15l9 10l9 13q4 8 8 12q5 4 9 0q7 -3 8 -6q1 -4 0 -8l-2 -1q-1 -2 -7 -8l-8 -10q3 0 9 -2q13 -5 16 -7q8 -7 10 -15v0q1 -2 1 -6z" />
    <glyph glyph-name="egrave" unicode="&#xe8;" horiz-adv-x="161" vert-adv-y="1500" 
d="M167 333q0 -5 -2 -8l-20 -8l-31 -10l-40 -14q-13 -5 -39 -9q-4 -1 -11 -1q-10 0 -18 5q-10 7 -14 15q-7 13 -3 20l1 2q-2 2 -2 5q0 4 6 10l2 5q5 12 12 20q4 5 7 9.5t7 8.5q6 7 17 10q2 1 6 1q5 0 11 -3q9 -5 11 -14l1 -7q0 -5 -3 -11q-4 -8 -11 -15q-6 -6 -14 -11
t-17 -9l-13 -5q0 -4 2 -7l5 -6q1 -1 7 -1.5t11 -0.5h7q15 0 28 4q6 2 16 4.5t23 7.5q22 9 29 13l17 10v0q12 -1 12 -10zM28 351q7 2 10 8q4 6 5 9l-6 -4q-2 -1 -6 -4t-7 -7l-4 -6v0zM76 459q0 -9 -13 -6q-11 11 -13 14l-15 15l-2 1q-1 0 -3 3q-8 7 -12 9q-5 5 -4 13
q1 1 3 4.5t6 3.5h4q2 0 7 -5q0 -1 1 -1q3 -2 7 -8l3.5 -3.5l3.5 -3.5v-3q3 -4 6.5 -7.5t5.5 -6.5q2 -2 6 -5t8 -8v0q1 -2 1 -6z" />
    <glyph glyph-name="eacute" unicode="&#xe9;" horiz-adv-x="161" vert-adv-y="1500" 
d="M167 333q0 -5 -2 -8l-20 -8l-31 -10l-40 -14q-13 -5 -39 -9q-4 -1 -11 -1q-10 0 -18 5q-10 7 -14 15q-7 13 -3 20l1 2q-2 2 -2 5q0 4 6 10l2 5q5 12 12 20q4 5 7 9.5t7 8.5q6 7 17 10q2 1 6 1q5 0 11 -3q9 -5 11 -14l1 -7q0 -5 -3 -11q-4 -8 -11 -15q-6 -6 -14 -11
t-17 -9l-13 -5q0 -4 2 -7l5 -6q1 -1 7 -1.5t11 -0.5h7q15 0 28 4q6 2 16 4.5t23 7.5q22 9 29 13l17 10v0q12 -1 12 -10zM28 351q7 2 10 8q4 6 5 9l-6 -4q-2 -1 -6 -4t-7 -7l-4 -6v0zM102 464v-2q0 -4 -3 -6l-0.5 -0.5l-0.5 -0.5q-5 -5 -7 -6q-5 -2 -6 -5h-3l-12 -9l-12 -11
l-4 -1q-8 0 -5 12q4 4 12 10q9 6 13 12v1l4 2q7 7 8 10q6 4 11 2v0q5 -3 5 -8z" />
    <glyph glyph-name="ecircumflex" unicode="&#xea;" horiz-adv-x="161" vert-adv-y="1500" 
d="M167 333q0 -5 -2 -8l-20 -8l-31 -10l-40 -14q-13 -5 -39 -9q-4 -1 -11 -1q-10 0 -18 5q-10 7 -14 15q-7 13 -3 20l1 2q-2 2 -2 5q0 4 6 10l2 5q5 12 12 20q4 5 7 9.5t7 8.5q6 7 17 10q2 1 6 1q5 0 11 -3q9 -5 11 -14l1 -7q0 -5 -3 -11q-4 -8 -11 -15q-6 -6 -14 -11
t-17 -9l-13 -5q0 -4 2 -7l5 -6q1 -1 7 -1.5t11 -0.5h7q15 0 28 4q6 2 16 4.5t23 7.5q22 9 29 13l17 10v0q12 -1 12 -10zM28 351q7 2 10 8q4 6 5 9l-6 -4q-2 -1 -6 -4t-7 -7l-4 -6v0zM102 487q3 -3 2 -5q-2 -3 -4 -13q-2 -4 -2 -7.5t-1 -5.5q0 -9 1 -14q-3 -5 -8 -5
q-3 0 -8 5v14l2 16l-2 -2l-14 -12l-10 -11l-6 -6q-7 0 -10 3t-2 10q2 1 3.5 2.5t3.5 2.5q6 6 12 9q4 5 14 13l11 10q3 3 6 3q4 0 8 -3v0z" />
    <glyph glyph-name="edieresis" unicode="&#xeb;" horiz-adv-x="161" vert-adv-y="1500" 
d="M167 333q0 -5 -2 -8l-20 -8l-31 -10l-40 -14q-13 -5 -39 -9q-4 -1 -11 -1q-10 0 -18 5q-10 7 -14 15q-7 13 -3 20l1 2q-2 2 -2 5q0 4 6 10l2 5q5 12 12 20q4 5 7 9.5t7 8.5q6 7 17 10q2 1 6 1q5 0 11 -3q9 -5 11 -14l1 -7q0 -5 -3 -11q-4 -8 -11 -15q-6 -6 -14 -11
t-17 -9l-13 -5q0 -4 2 -7l5 -6q1 -1 7 -1.5t11 -0.5h7q15 0 28 4q6 2 16 4.5t23 7.5q22 9 29 13l17 10v0q12 -1 12 -10zM28 351q7 2 10 8q4 6 5 9l-6 -4q-2 -1 -6 -4t-7 -7l-4 -6v0zM63 495q4 -4 4 -8q0 -6 -2 -8l-5 -6l-5 -3l-8 -2q-5 0 -9 4q-4 3 -4 8t2 7q1 0 1.5 1
t1.5 1v2q0 3 3 3q3 3 5 4q2 2 8 2v0q5 0 8 -5zM129 487q0 -4 -2 -8l-4 -6l-7 -3q-1 -1 -3.5 -1t-4.5 -1q-4 0 -9 4q-4 6 -3 8q0 3 2 7q1 0 1.5 1t2.5 1l-1 2q0 1 1 2l1 1l5 4q3 2 8 2q6 0 9 -5v0q4 -6 4 -8z" />
    <glyph glyph-name="igrave" unicode="&#xec;" horiz-adv-x="123" vert-adv-y="1500" 
d="M122 338q7 0 7 -6l-2 -8l-25 -15l-31 -21q-4 -2 -35 -23q-16 -10 -33 -23q-14 -8 -30 -10q-16 0 -14 15q0 12 7 29q6 15 15 30l9 16q-1 4 0 11q4 4 10 12l8 11l2 4q3 9 12 3q2 0 8 -4q11 -9 2 -15q-8 -5 -19 -18q-9 -12 -18 -27q-4 -7 -14 -29l-6 -19q-1 -2 -0.5 -2.5
t1.5 0.5q2 2 18 10q18 9 33 19q9 5 36 22q19 14 31 21l23 17v0h5zM55 408q0 -9 -13 -6q-9 8 -14 15l-7.5 7.5t-7.5 6.5q-1 2 -2 2q-2 1 -3 4l-12 9q-4 3 -5 6t-1 8q5 7 10 7h4q3 0 8 -5q0 -1 1 -1q7 -6 7 -8q2 -2 4 -3.5t3 -3.5v-4q2 -2 6 -6.5t6 -8.5q13 -10 15 -13v0
q1 -2 1 -6z" />
    <glyph glyph-name="iacute" unicode="&#xed;" horiz-adv-x="123" vert-adv-y="1500" 
d="M122 338q7 0 7 -6l-2 -8l-25 -15l-31 -21q-4 -2 -35 -23q-16 -10 -33 -23q-14 -8 -30 -10q-16 0 -14 15q0 12 7 29q6 15 15 30l9 16q-1 4 0 11q4 4 10 12l8 11l2 4q3 9 12 3q2 0 8 -4q11 -9 2 -15q-8 -5 -19 -18q-9 -12 -18 -27q-4 -7 -14 -29l-6 -19q-1 -2 -0.5 -2.5
t1.5 0.5q2 2 18 10q18 9 33 19q9 5 36 22q19 14 31 21l23 17v0h5zM80 461v-2q0 -4 -3 -7h-2q-1 -3 -3.5 -4.5t-3.5 -2.5q-5 -3 -6 -5h-3q-3 -1 -6.5 -4t-5.5 -5l-12 -11l-4 -1q-4 0 -5.5 3.5t0.5 8.5q7 7 12 10q2 2 5.5 5t7.5 7l1 2q1 0 3 2q6 4 8 9q6 6 12 3v0q5 -3 5 -8z
" />
    <glyph glyph-name="icircumflex" unicode="&#xee;" horiz-adv-x="123" vert-adv-y="1500" 
d="M122 338q7 0 7 -6l-2 -8l-25 -15l-31 -21q-4 -2 -35 -23q-16 -10 -33 -23q-14 -8 -30 -10q-16 0 -14 15q0 12 7 29q6 15 15 30l9 16q-1 4 0 11q4 4 10 12l8 11l2 4q3 9 12 3q2 0 8 -4q11 -9 2 -15q-8 -5 -19 -18q-9 -12 -18 -27q-4 -7 -14 -29l-6 -19q-1 -2 -0.5 -2.5
t1.5 0.5q2 2 18 10q18 9 33 19q9 5 36 22q19 14 31 21l23 17v0h5zM77 436q3 -3 2 -5q-2 -3 -4 -12q-2 -4 -2 -7t-1 -5q0 -8 1 -13q-3 -4 -7 -4t-7 4v13q0 10 1 15l-1 -2q-5 -3 -13 -11l-10 -10l-5 -5q-6 0 -9 2.5t-2 8.5q2 1 3.5 2.5l2.5 2.5q6 6 11 8q5 6 13 12l10 10
q5 5 13 0v0z" />
    <glyph glyph-name="idieresis" unicode="&#xef;" horiz-adv-x="123" vert-adv-y="1500" 
d="M122 338q7 0 7 -6l-2 -8l-25 -15l-31 -21q-4 -2 -35 -23q-16 -10 -33 -23q-14 -8 -30 -10q-16 0 -14 15q0 12 7 29q6 15 15 30l9 16q-1 4 0 11q4 4 10 12l8 11l2 4q3 9 12 3q2 0 8 -4q11 -9 2 -15q-8 -5 -19 -18q-9 -12 -18 -27q-4 -7 -14 -29l-6 -19q-1 -2 -0.5 -2.5
t1.5 0.5q2 2 18 10q18 9 33 19q9 5 36 22q19 14 31 21l23 17v0h5zM22 422q3 -4 3 -7q0 -6 -2 -8q-2 -4 -4 -5l-5 -3q-2 -1 -7 -1t-8 3q-4 4 -4 8l2 6q1 0 1.5 1t1.5 1v2q0 2 2 2q4 3 5 4q2 1 7 1v0q5 0 8 -4zM82 415q0 -4 -2 -8l-4 -5l-6 -3q-1 -1 -7 -1q-5 0 -8 3
q-4 6 -3 8l1 6q1 0 2 1t2 1q-1 0 -1 2q0 1 1 1.5l1 0.5l5 4q2 1 7 1t8 -4v0q4 -6 4 -7z" />
    <glyph glyph-name="eth" unicode="&#xf0;" horiz-adv-x="302" 
d="M275 137q0 -69 -32.5 -105.5t-92.5 -36.5q-55 0 -88.5 33t-33.5 88q0 56 31.5 88.5t85.5 32.5q55 0 78 -29h2q-14 52 -62 96l-65 -37l-19 27l56 32q-21 14 -45 27l18 30q38 -18 63 -37l58 34l19 -27l-50 -29q37 -34 57 -82.5t20 -104.5zM231 125q0 35 -21.5 55.5
t-57.5 20.5q-41 0 -60.5 -21t-19.5 -65q0 -40 20.5 -62t59.5 -22q41 0 60 24t19 70z" />
    <glyph glyph-name="ntilde" unicode="&#xf1;" horiz-adv-x="223" vert-adv-y="1500" 
d="M229 338q0 -2 -4 -10q-20 -13 -23 -16q-7 -3 -16.5 -10t-15.5 -11q-13 -11 -32 -21q-14 -9 -32 -13q-7 -3 -14 -3t-15 4q-13 6 -19 20q-3 9 -3 19q0 7 1 11l6 28l4 17q-2 -2 -6 -5t-11 -8q-23 -17 -45 -37q-25 -22 -40 -43q-11 -12 -17 -17l-7 -5q-7 -5 -8 4q-9 1 -6 7
q7 12 12 16q8 8 20 23l22 28l14 19l8 18q0 1 9 16q2 4 4 5q2 3 7 3t11 -3q7 -4 7 -10q0 -4 -4 -8q-3 -3 -7.5 -8t-10.5 -13l-1 -3q7 6 13 10.5t11 8.5q21 17 36 15t14 -12q-1 -6 -3 -13t-3 -12q-5 -10 -9 -24q-1 -3 -1 -8t2 -11q5 -8 8 -9h17q14 1 28 10q28 17 30 19
q18 10 31 22q6 4 12 8.5t12 8.5v0q14 0 14 -7zM169 465q6 0 6 -13q-2 -4 -8 -7q-4 -4 -12 -9q-3 -2 -6.5 -4t-8.5 -5l-20 -7q-14 -2 -20 -2q-2 -1 -5 -1q-6 0 -14 5q-4 1 -8 3.5t-7 3.5q-3 5 -10 9q-6 3 -9 3l-11 -1q-8 -3 -12 -6q-12 -8 -15 -12q-1 -2 -4 -5t-3 -5
q-4 -4 -4 -8q-2 -2 -6 -2q-6 0 -7 13q1 1 2.5 3t3.5 4l11 12q14 12 16 13q15 7 16 7q12 3 15 3q5 0 12 -5q3 -2 6.5 -4.5t4.5 -4.5l13 -7q10 -7 15 -4q5 0 19 2q14 5 16 6l7 3.5t8 6.5l10 7q0 2 5 7v0z" />
    <glyph glyph-name="ograve" unicode="&#xf2;" horiz-adv-x="174" vert-adv-y="1500" 
d="M179 332q0 -4 -3 -9l-19 -7q-7 -2 -13.5 -3.5t-12.5 -3.5q-17 -6 -30 -8q-29 -6 -31 -6q-22 -2 -31 -1l-17 -26q-12 -17 -18 -21q-10 -6 -21 -3t-12 15v6q0 9 3 19q6 18 10 27l7 15q-4 10 -4 16q0 16 6 27q7 12 21 23l25 17q14 8 26 9h4q12 0 16 -6q7 -9 7 -16
q0 -11 -4 -20q-5 -14 -11 -22q-7 -10 -17 -28l-8 -14q10 0 16 1t15 1.5t15 2.5l28 8l24 9l18 8v0q11 -3 11 -10zM65 393q0 -4 -5 -9l-3 -3q-2 -2 -14 -19q-4 -7 -7 -12.5t-5 -9.5q-7 -13 -8 -15l-3 -7l3 -1q4 -2 10 -4l14 21q8 11 15 27l7 20q3 10 1 12l-1 1l-3 1v0zM9 361
q-2 -4 -2 -7l4 6l14 19l-1 -1v0q-13 -13 -15 -17zM21 297l-7 3q-7 3 -12 8l-1 -4q-9 -16 -10 -25l-2 -13q2 2 3 2q6 0 16 13v0q14 18 13 16zM109 480q0 -9 -14 -6l-14 15l-16 16l-2 1l-3 4l-13 10q-4 3 -5 6t0 8q5 8 10 8h4q3 0 8 -5q0 -1 1 -1q4 -3 8 -9l3.5 -3.5l3.5 -3.5
v-4l13 -15q11 -8 15 -14v0q1 -3 1 -7z" />
    <glyph glyph-name="oacute" unicode="&#xf3;" horiz-adv-x="174" vert-adv-y="1500" 
d="M179 332q0 -4 -3 -9l-19 -7q-7 -2 -13.5 -3.5t-12.5 -3.5q-17 -6 -30 -8q-29 -6 -31 -6q-22 -2 -31 -1l-17 -26q-12 -17 -18 -21q-10 -6 -21 -3t-12 15v6q0 9 3 19q6 18 10 27l7 15q-4 10 -4 16q0 16 6 27q7 12 21 23l25 17q14 8 26 9h4q12 0 16 -6q7 -9 7 -16
q0 -11 -4 -20q-5 -14 -11 -22q-7 -10 -17 -28l-8 -14q10 0 16 1t15 1.5t15 2.5l28 8l24 9l18 8v0q11 -3 11 -10zM65 393q0 -4 -5 -9l-3 -3q-2 -2 -14 -19q-4 -7 -7 -12.5t-5 -9.5q-7 -13 -8 -15l-3 -7l3 -1q4 -2 10 -4l14 21q8 11 15 27l7 20q3 10 1 12l-1 1l-3 1v0zM9 361
q-2 -4 -2 -7l4 6l14 19l-1 -1v0q-13 -13 -15 -17zM21 297l-7 3q-7 3 -12 8l-1 -4q-9 -16 -10 -25l-2 -13q2 2 3 2q6 0 16 13v0q14 18 13 16zM138 511q0 -2 -1 -3v-2q0 -3 -4 -7l-2 -1q-4 -5 -10 -9q-8 -5 -9 -7h-4q-6 -4 -10 -7.5t-8 -5.5l-17 -16q-2 -1 -6 -1q-9 0 -9 7
l2 9q11 11 18 15q12 10 18 17l1 2l5 3q10 10 12 14q7 7 16 4v0q8 -5 8 -12z" />
    <glyph glyph-name="ocircumflex" unicode="&#xf4;" horiz-adv-x="174" vert-adv-y="1500" 
d="M179 332q0 -4 -3 -9l-19 -7q-7 -2 -13.5 -3.5t-12.5 -3.5q-17 -6 -30 -8q-29 -6 -31 -6q-22 -2 -31 -1l-17 -26q-12 -17 -18 -21q-10 -6 -21 -3t-12 15v6q0 9 3 19q6 18 10 27l7 15q-4 10 -4 16q0 16 6 27q7 12 21 23l25 17q14 8 26 9h4q12 0 16 -6q7 -9 7 -16
q0 -11 -4 -20q-5 -14 -11 -22q-7 -10 -17 -28l-8 -14q10 0 16 1t15 1.5t15 2.5l28 8l24 9l18 8v0q11 -3 11 -10zM65 393q0 -4 -5 -9l-3 -3q-2 -2 -14 -19q-4 -7 -7 -12.5t-5 -9.5q-7 -13 -8 -15l-3 -7l3 -1q4 -2 10 -4l14 21q8 11 15 27l7 20q3 10 1 12l-1 1l-3 1v0zM9 361
q-2 -4 -2 -7l4 6l14 19l-1 -1v0q-13 -13 -15 -17zM21 297l-7 3q-7 3 -12 8l-1 -4q-9 -16 -10 -25l-2 -13q2 2 3 2q6 0 16 13v0q14 18 13 16zM127 493q3 -3 2 -5q-2 -3 -4 -13q-2 -4 -2 -7.5t-1 -5.5q0 -9 1 -14q-3 -5 -8 -5q-3 0 -8 5v14l2 16l-2 -2l-14 -12l-10 -11l-6 -6
q-7 0 -10 3t-2 10q2 1 3.5 2.5t3.5 2.5q6 6 12 9q4 5 14 13l11 10q3 3 6 3q4 0 8 -3v0z" />
    <glyph glyph-name="otilde" unicode="&#xf5;" horiz-adv-x="174" vert-adv-y="1500" 
d="M179 332q0 -4 -3 -9l-19 -7q-7 -2 -13.5 -3.5t-12.5 -3.5q-17 -6 -30 -8q-29 -6 -31 -6q-22 -2 -31 -1l-17 -26q-12 -17 -18 -21q-10 -6 -21 -3t-12 15v6q0 9 3 19q6 18 10 27l7 15q-4 10 -4 16q0 16 6 27q7 12 21 23l25 17q14 8 26 9h4q12 0 16 -6q7 -9 7 -16
q0 -11 -4 -20q-5 -14 -11 -22q-7 -10 -17 -28l-8 -14q10 0 16 1t15 1.5t15 2.5l28 8l24 9l18 8v0q11 -3 11 -10zM65 393q0 -4 -5 -9l-3 -3q-2 -2 -14 -19q-4 -7 -7 -12.5t-5 -9.5q-7 -13 -8 -15l-3 -7l3 -1q4 -2 10 -4l14 21q8 11 15 27l7 20q3 10 1 12l-1 1l-3 1v0zM9 361
q-2 -4 -2 -7l4 6l14 19l-1 -1v0q-13 -13 -15 -17zM21 297l-7 3q-7 3 -12 8l-1 -4q-9 -16 -10 -25l-2 -13q2 2 3 2q6 0 16 13v0q14 18 13 16zM167 530q7 0 7 -12q-5 -5 -9 -7l-11 -9q-2 -1 -6.5 -4t-8.5 -4q-14 -6 -19 -7q-4 -1 -9 -2t-11 -1q-2 -1 -5 -1q-6 0 -13 5
q-3 1 -7.5 3.5t-7.5 3.5q-2 3 -5.5 5.5t-4.5 3.5q-6 3 -9 3l-11 -1l-12 -6q-11 -7 -14 -12l-4.5 -4.5t-2.5 -4.5q-3 -4 -3 -8q-3 -2 -6 -2q-6 0 -7 13q1 0 2 2.5t3 3.5q2 4 5.5 6t5.5 6l15 13l17 7q2 0 6 1.5t8 1.5q5 0 12 -5q4 -2 11 -9q4 -3 7 -4.5l5 -2.5q10 -7 15 -4
q4 0 8.5 1t9.5 1q14 5 16 6l7 3.5t8 6.5q3 1 5.5 3t3.5 4q5 5 5 6v0z" />
    <glyph glyph-name="odieresis" unicode="&#xf6;" horiz-adv-x="174" vert-adv-y="1500" 
d="M179 332q0 -4 -3 -9l-19 -7q-7 -2 -13.5 -3.5t-12.5 -3.5q-17 -6 -30 -8q-29 -6 -31 -6q-22 -2 -31 -1l-17 -26q-12 -17 -18 -21q-10 -6 -21 -3t-12 15v6q0 9 3 19q6 18 10 27l7 15q-4 10 -4 16q0 16 6 27q7 12 21 23l25 17q14 8 26 9h4q12 0 16 -6q7 -9 7 -16
q0 -11 -4 -20q-5 -14 -11 -22q-7 -10 -17 -28l-8 -14q10 0 16 1t15 1.5t15 2.5l28 8l24 9l18 8v0q11 -3 11 -10zM65 393q0 -4 -5 -9l-3 -3q-2 -2 -14 -19q-4 -7 -7 -12.5t-5 -9.5q-7 -13 -8 -15l-3 -7l3 -1q4 -2 10 -4l14 21q8 11 15 27l7 20q3 10 1 12l-1 1l-3 1v0zM9 361
q-2 -4 -2 -7l4 6l14 19l-1 -1v0q-13 -13 -15 -17zM21 297l-7 3q-7 3 -12 8l-1 -4q-9 -16 -10 -25l-2 -13q2 2 3 2q6 0 16 13v0q14 18 13 16zM75 493q3 -4 3 -7q0 -6 -1 -8q-2 -4 -5 -5l-2 -2t-3 -1q-1 -1 -3 -1t-4 -1q-4 0 -8 4q-3 3 -3 7t2 7q1 0 1.5 0.5t1.5 0.5v2
q0 2 2 2q1 3 4 4q2 1 7 1v0q5 0 8 -3zM134 486q0 -6 -2 -8q-1 -3 -3 -5l-6 -3l-7 -2q-4 0 -8 4q-4 6 -3 7l1 7l4 1l-1 2q0 1 1 1.5l1 0.5q1 2 5 4q2 1 7 1t8 -3v0q3 -4 3 -7z" />
    <glyph glyph-name="divide" unicode="&#xf7;" horiz-adv-x="274" vert-adv-y="1500" 
d="M250 332q0 -6 -10 -7q-15 5 -33 5q-17 2 -54 2q-38 -2 -57 -5q0 -3 -7 -10h-12h-18h-11q-3 -1 -7 0h-2h-2q-8 0 -6 13q1 13 16 12h45q22 0 60 2q39 0 56 -1q16 -1 36 -1v0q6 -6 6 -10zM115 385q-4 6 -3 15q0 6 4 14l10 6q2 1 5.5 2t5.5 1h4q6 0 10 -1q8 -4 10 -9
q4 -5 4 -15q0 -7 -6 -13q-6 -7 -14 -6q0 -1 -1 -1q-5 -5 -16 -3v0q-10 3 -13 10zM123 270q3 -4 1 -8q-7 -14 -10 -9q-2 -6 -4 -9q-9 2 -12 4q-6 3 -6 14t8 16q11 5 15 0v0q3 -2 8 -8z" />
    <glyph glyph-name="oslash" unicode="&#xf8;" horiz-adv-x="302" 
d="M275 135q0 -66 -33 -103t-92 -37q-37 0 -64 16l-20 -28l-29 20l23 31q-32 38 -32 101q0 65 32.5 101.5t91.5 36.5q37 0 66 -18l19 28l30 -19l-23 -32q31 -37 31 -97zM73 135q0 -41 12 -64l110 152q-18 13 -44 13q-78 1 -78 -101zM230 135q0 37 -11 61l-111 -153
q17 -11 44 -12q38 0 58 26.5t20 77.5z" />
    <glyph glyph-name="ugrave" unicode="&#xf9;" horiz-adv-x="176" vert-adv-y="1500" 
d="M170 345q15 0 12 -16q-3 -4 -14 -13q-2 -1 -24 -14q-11 -10 -29 -18t-33 -8q-16 0 -21 14q-3 10 -1 21l-17 -12q-27 -18 -35 -23t-15 -5q-6 0 -11 5q-6 8 -6 16q0 3 2 9l3 6q-5 4 -3 17l13 13q3 5 15 17l1 2l2 4q5 9 14 11q4 2 7 -1q11 -4 5 -11v-2q0 -5 -5 -12
q-6 -5 -22 -25q-9 -13 -12 -23l5 1q19 6 33 15q24 16 35 25l2 1l4 5l13 21q3 3 6 3q5 0 10 -6q10 -9 3 -16q2 -5 -1 -6q-4 -1 -13 -10t-12 -18q-4 -10 -3 -12q0 -3 8 -3q7 0 21 6q12 4 27 13l10 8t10 9q5 6 13 12v0h3zM105 445q0 -9 -14 -6l-14 15l-16 16l-2 1l-3 4l-13 10
q-4 3 -5 6t0 8q5 8 10 8h4q3 0 8 -5q0 -1 1 -1q4 -3 8 -9l3.5 -3.5l3.5 -3.5v-4l13 -15q11 -8 15 -14v0q1 -3 1 -7z" />
    <glyph glyph-name="uacute" unicode="&#xfa;" horiz-adv-x="176" vert-adv-y="1500" 
d="M170 345q15 0 12 -16q-3 -4 -14 -13q-2 -1 -24 -14q-11 -10 -29 -18t-33 -8q-16 0 -21 14q-3 10 -1 21l-17 -12q-27 -18 -35 -23t-15 -5q-6 0 -11 5q-6 8 -6 16q0 3 2 9l3 6q-5 4 -3 17l13 13q3 5 15 17l1 2l2 4q5 9 14 11q4 2 7 -1q11 -4 5 -11v-2q0 -5 -5 -12
q-6 -5 -22 -25q-9 -13 -12 -23l5 1q19 6 33 15q24 16 35 25l2 1l4 5l13 21q3 3 6 3q5 0 10 -6q10 -9 3 -16q2 -5 -1 -6q-4 -1 -13 -10t-12 -18q-4 -10 -3 -12q0 -3 8 -3q7 0 21 6q12 4 27 13l10 8t10 9q5 6 13 12v0h3zM138 473q0 -2 -1 -3v-2q0 -3 -4 -7l-2 -1q-4 -5 -10 -9
q-8 -5 -9 -7h-4q-6 -4 -10 -7.5t-8 -5.5l-17 -16q-2 -1 -6 -1q-9 0 -9 7l2 9q11 11 18 15q12 10 18 17l1 2l5 3q10 10 12 14q7 7 16 4v0q8 -5 8 -12z" />
    <glyph glyph-name="ucircumflex" unicode="&#xfb;" horiz-adv-x="176" vert-adv-y="1500" 
d="M170 345q15 0 12 -16q-3 -4 -14 -13q-2 -1 -24 -14q-11 -10 -29 -18t-33 -8q-16 0 -21 14q-3 10 -1 21l-17 -12q-27 -18 -35 -23t-15 -5q-6 0 -11 5q-6 8 -6 16q0 3 2 9l3 6q-5 4 -3 17l13 13q3 5 15 17l1 2l2 4q5 9 14 11q4 2 7 -1q11 -4 5 -11v-2q0 -5 -5 -12
q-6 -5 -22 -25q-9 -13 -12 -23l5 1q19 6 33 15q24 16 35 25l2 1l4 5l13 21q3 3 6 3q5 0 10 -6q10 -9 3 -16q2 -5 -1 -6q-4 -1 -13 -10t-12 -18q-4 -10 -3 -12q0 -3 8 -3q7 0 21 6q12 4 27 13l10 8t10 9q5 6 13 12v0h3zM119 455q3 -3 2 -5q-2 -3 -4 -13q-2 -4 -2 -7.5
t-1 -5.5q0 -9 1 -14q-3 -5 -8 -5q-3 0 -8 5v14l2 16l-2 -2l-14 -12l-10 -11l-6 -6q-7 0 -10 3t-2 10q2 1 3.5 2.5t3.5 2.5q6 6 12 9q4 5 14 13l11 10q3 3 6 3t8 -3v0z" />
    <glyph glyph-name="udieresis" unicode="&#xfc;" horiz-adv-x="176" vert-adv-y="1500" 
d="M170 345q15 0 12 -16q-3 -4 -14 -13q-2 -1 -24 -14q-11 -10 -29 -18t-33 -8q-16 0 -21 14q-3 10 -1 21l-17 -12q-27 -18 -35 -23t-15 -5q-6 0 -11 5q-6 8 -6 16q0 3 2 9l3 6q-5 4 -3 17l13 13q3 5 15 17l1 2l2 4q5 9 14 11q4 2 7 -1q11 -4 5 -11v-2q0 -5 -5 -12
q-6 -5 -22 -25q-9 -13 -12 -23l5 1q19 6 33 15q24 16 35 25l2 1l4 5l13 21q3 3 6 3q5 0 10 -6q10 -9 3 -16q2 -5 -1 -6q-4 -1 -13 -10t-12 -18q-4 -10 -3 -12q0 -3 8 -3q7 0 21 6q12 4 27 13l10 8t10 9q5 6 13 12v0h3zM67 449q3 -4 3 -8q0 -6 -2 -8l-4 -5q-3 -1 -5 -3l-8 -2
q-4 0 -8 4t-4 8l2 6q1 0 1.5 1t1.5 1v2q0 2 3 2q0 2 4 4q2 1 8 1v0q4 0 8 -3zM128 441q0 -5 -3 -8l-3 -5l-6 -3l-8 -2q-4 0 -8 4q-4 6 -3 8q0 2 2 6q1 0 1.5 1t1.5 1v2q0 2 2 2l4 4q2 1 8 1q5 0 8 -3v0q4 -6 4 -8z" />
    <glyph glyph-name="yacute" unicode="&#xfd;" horiz-adv-x="288" vert-adv-y="1500" 
d="M294 330q0 -5 -3 -11q-8 0 -15 -2q-12 -2 -25 -7l-33 -11q-12 -4 -40 -16q-24 -11 -53 -30l-2 -1l-5 -15q-14 -40 -28 -72q-17 -40 -36 -80q-14 -28 -44 -82q-15 -27 -47 -77q-27 -40 -48 -68q-20 -26 -48 -56q-23 -24 -42 -42q-20 -18 -36 -27q-10 -6 -20 -6q-7 0 -13 3
q-17 6 -21 27q-1 5 -1 18q0 17 4 34q5 25 22 64q18 37 39 71q15 24 49 70q30 38 58 69q29 30 70 68q37 34 74 62q27 22 57 43q2 8 11 42q3 14 5 42q2 19 0 27q-2 9 -1 10h1l-10 -6q-4 -2 -25 -17l-28 -23q-4 -3 -29 -23q-12 -10 -26 -15q-2 -1 -6 -1q-9 0 -12 10q-3 8 -3 14
q0 7 3 13q2 5 5.5 12t7.5 17l10 26q-4 -2 -5 -2q-4 0 -4 7q0 2 3 8q2 4 12 14q4 2 7 2l4 1q9 0 12 -11q2 -6 2 -10q0 -6 -5 -16q-6 -8 -17 -28q-8 -17 -11 -26l10 5q11 6 29 18q10 7 17 13t12 10l25 20q10 9 23 12l5 1q9 0 15 -9q6 -10 6 -23q-2 -22 -5 -33l-10 -43l-7 -24
q14 9 43 26q20 11 40 19q8 4 33 14l25 10q8 4 15 8v0q10 -7 10 -17zM103 239q-6 -4 -46 -34q-37 -28 -74 -62q-30 -26 -68 -68q-33 -37 -58 -68q-28 -37 -48 -70q-26 -45 -36 -69q-15 -33 -18 -62q-2 -9 -2 -24q0 -14 2 -18q4 -14 9 -18q1 -1 4 -1q6 0 15 4q17 9 33 23
q19 15 42 39q27 29 47 55q20 24 49 67q20 30 46 75q24 40 43 83q22 44 36 79v0q14 36 24 69zM161 513q0 -2 -1 -3v-2q0 -3 -4 -7l-2 -1q-4 -5 -10 -9q-8 -5 -9 -7h-4q-6 -4 -10 -7.5t-8 -5.5l-17 -16q-2 -1 -6 -1q-9 0 -9 7l2 9q11 11 18 15q12 10 18 17l1 2l5 3
q10 10 12 14q7 7 16 4v0q8 -5 8 -12z" />
    <glyph glyph-name="thorn" unicode="&#xfe;" horiz-adv-x="307" 
d="M87 232q16 22 36.5 31.5t46.5 9.5q52 0 81 -36.5t29 -101.5q0 -66 -29 -103t-81 -37q-54 0 -84 39h-3q3 -32 3 -42v-112h-44v500h44v-112q0 -17 -1 -36h2zM163 236q-39 0 -57.5 -22t-19.5 -70v-9q0 -54 18.5 -79t58.5 -25q72 0 72 104q0 51 -17.5 76t-54.5 25z" />
    <glyph glyph-name="ydieresis" unicode="&#xff;" horiz-adv-x="288" vert-adv-y="1500" 
d="M294 330q0 -5 -3 -11q-8 0 -15 -2q-12 -2 -25 -7l-33 -11q-12 -4 -40 -16q-24 -11 -53 -30l-2 -1l-5 -15q-14 -40 -28 -72q-17 -40 -36 -80q-14 -28 -44 -82q-15 -27 -47 -77q-27 -40 -48 -68q-20 -26 -48 -56q-23 -24 -42 -42q-20 -18 -36 -27q-10 -6 -20 -6q-7 0 -13 3
q-17 6 -21 27q-1 5 -1 18q0 17 4 34q5 25 22 64q18 37 39 71q15 24 49 70q30 38 58 69q29 30 70 68q37 34 74 62q27 22 57 43q2 8 11 42q3 14 5 42q2 19 0 27q-2 9 -1 10h1l-10 -6q-4 -2 -25 -17l-28 -23q-4 -3 -29 -23q-12 -10 -26 -15q-2 -1 -6 -1q-9 0 -12 10q-3 8 -3 14
q0 7 3 13q2 5 5.5 12t7.5 17l10 26q-4 -2 -5 -2q-4 0 -4 7q0 2 3 8q2 4 12 14q4 2 7 2l4 1q9 0 12 -11q2 -6 2 -10q0 -6 -5 -16q-6 -8 -17 -28q-8 -17 -11 -26l10 5q11 6 29 18q10 7 17 13t12 10l25 20q10 9 23 12l5 1q9 0 15 -9q6 -10 6 -23q-2 -22 -5 -33l-10 -43l-7 -24
q14 9 43 26q20 11 40 19q8 4 33 14l25 10q8 4 15 8v0q10 -7 10 -17zM103 239q-6 -4 -46 -34q-37 -28 -74 -62q-30 -26 -68 -68q-33 -37 -58 -68q-28 -37 -48 -70q-26 -45 -36 -69q-15 -33 -18 -62q-2 -9 -2 -24q0 -14 2 -18q4 -14 9 -18q1 -1 4 -1q6 0 15 4q17 9 33 23
q19 15 42 39q27 29 47 55q20 24 49 67q20 30 46 75q24 40 43 83q22 44 36 79v0q14 36 24 69zM66 498q3 -3 3 -7q0 -6 -1 -8l-4 -5q-2 0 -5 -3q-4 0 -7 -1q-4 0 -8 4q-3 2 -3 7q0 4 2 6l2 1v2q0 2 3 2q0 2 4 4q2 1 7 1v0q4 0 7 -3zM124 491q0 -4 -2 -8l-4 -5q-2 0 -5 -3
q-5 0 -7 -1q-4 0 -8 4t-3 7q0 2 2 6l3 1l-1 2q0 1 1 1.5l1 0.5q1 2 5 4q2 1 7 1q4 0 7 -3v0z" />
    <glyph glyph-name="Amacron" unicode="&#x100;" horiz-adv-x="319" 
d="M89 421h148v-35h-148v35zM850 334q0 -6 -14 -11q-11 3 -43 5q-25 1 -77 -5q-50 -5 -107 -15l-56 -10l-1 -5q-18 -66 -26 -108l-6 -36l3 -6q11 -27 16 -58q4 -37 3 -48q0 -20 -16 -27q-6 -3 -11 -3q-9 0 -12 8q-7 16 -7 35q0 21 3 55l4 32q-9 26 -32 52q-22 25 -54 44
q-25 13 -58 19l-6 -2l-35 -10q-46 -68 -61 -91q-39 -59 -66 -105q-25 -41 -46 -81l-24 -48q-9 -15 -11 -24q-9 -6 -16 -6q-11 0 -13 21l14 23q1 2 17 28q6 7 12 18l52 78l69 104l55 78l-72 -22q-38 -13 -87 -28l-23 -7q-52 -16 -79 -23q-6 -2 -17 -2q-17 0 -23 13q-2 6 -2 9
q0 13 22 25q26 16 85 33q57 18 117 30q51 10 105 8l6 10q48 66 102 135q46 62 109 135q50 58 108 121l86 91l20 23l13 22q14 23 28 15q10 -4 7 -12l1 -4q-1 -10 -13 -20q-17 -14 -52 -69q-28 -44 -71 -128q-35 -71 -69 -155q-30 -79 -44 -124l50 10q53 10 108 16q17 3 78 9
q36 2 46 1v0q11 -8 11 -13zM342 274l-3 -3q20 -2 29 -4q74 20 113 28l64 14q23 72 47 130q29 76 68 156q36 75 66 132l8 15q-46 -46 -75 -77q-51 -56 -108 -120q-66 -78 -109 -135v0q-53 -67 -100 -136zM311 251l4 5l-18 1q-33 0 -73 -8q-61 -11 -116 -28q-56 -18 -79 -33
l-8 -6q4 1 17 1q26 0 76 12q58 14 110 31v0zM541 296l-57 -12q-37 -8 -90 -23q18 -5 31 -13q34 -18 60 -47q18 -20 24 -31l4 17v0q11 53 28 109z" />
    <glyph glyph-name="amacron" unicode="&#x101;" horiz-adv-x="280" 
d="M71 338h148v-35h-148v35zM191 338q0 -4 -5 -9l-23 -7l-31 -12q-29 -10 -34 -11q-8 -3 -13 -3q-6 0 -16 4q-14 9 -15 17q-3 6 -3 10q-6 -3 -15 -12q-10 -9 -22 -22l-22 -23q-10 -10 -23 -6q-14 5 -11 15q1 7 8 23q2 4 16 25l21 22q10 10 22 12h5q9 0 11 -5q1 -2 2.5 -4.5
t2.5 -4.5q7 3 15 2q11 -1 13 -11l2 -14q0 -4 4 -7q3 -1 16 0l30 8q16 5 31 12l23 10v0q11 -3 11 -9zM25 328l8 8l-5 4q0 -2 -2 -2q-2 2 -11 -6q-11 -6 -19 -17q-10 -12 -14 -21l-1 -4q11 8 21 16v0z" />
    <glyph glyph-name="Abreve" unicode="&#x102;" horiz-adv-x="844" vert-adv-y="1500" 
d="M850 334q0 -6 -14 -11q-11 3 -43 5q-25 1 -77 -5q-50 -5 -107 -15l-56 -10l-1 -5q-18 -66 -26 -108l-6 -36l3 -6q11 -27 16 -58q4 -37 3 -48q0 -20 -16 -27q-6 -3 -11 -3q-9 0 -12 8q-7 16 -7 35q0 21 3 55l4 32q-9 26 -32 52q-22 25 -54 44q-25 13 -58 19l-6 -2l-35 -10
q-46 -68 -61 -91q-39 -59 -66 -105q-25 -41 -46 -81l-24 -48q-9 -15 -11 -24q-9 -6 -16 -6q-11 0 -13 21l14 23q1 2 17 28q6 7 12 18l52 78l69 104l55 78l-72 -22q-38 -13 -87 -28l-23 -7q-52 -16 -79 -23q-6 -2 -17 -2q-17 0 -23 13q-2 6 -2 9q0 13 22 25q26 16 85 33
q57 18 117 30q51 10 105 8l6 10q48 66 102 135q46 62 109 135q50 58 108 121l86 91l20 23l13 22q14 23 28 15q10 -4 7 -12l1 -4q-1 -10 -13 -20q-17 -14 -52 -69q-28 -44 -71 -128q-35 -71 -69 -155q-30 -79 -44 -124l50 10q53 10 108 16q17 3 78 9q36 2 46 1v0
q11 -8 11 -13zM342 274l-3 -3q20 -2 29 -4q74 20 113 28l64 14q23 72 47 130q29 76 68 156q36 75 66 132l8 15q-46 -46 -75 -77q-51 -56 -108 -120q-66 -78 -109 -135v0q-53 -67 -100 -136zM311 251l4 5l-18 1q-33 0 -73 -8q-61 -11 -116 -28q-56 -18 -79 -33l-8 -6
q4 1 17 1q26 0 76 12q58 14 110 31v0zM541 296l-57 -12q-37 -8 -90 -23q18 -5 31 -13q34 -18 60 -47q18 -20 24 -31l4 17v0q11 53 28 109zM909 910q0 -3 -6 -13q-6 -7 -15 -15q-6 -6 -18 -11q-4 -1 -9 -3t-11 -3q-14 -2 -20 -2q-8 1 -17 5q-8 4 -13 11q-6 8 -7 13
q-2 10 -2 14q0 6 2 12q2 11 3 12q5 3 10 3q8 0 12 -10l-3 -10l-1 -7l1 -8q0 -4 3 -6q2 -5 5 -6q2 -2 9 -4q9 0 14 1q9 4 16 5q10 5 15 9q4 2 8 10q3 6 3 8q1 2 0 6q6 7 11 7t11 -8v0q1 -2 -1 -10z" />
    <glyph glyph-name="abreve" unicode="&#x103;" horiz-adv-x="185" vert-adv-y="1500" 
d="M191 338q0 -4 -5 -9l-23 -7l-31 -12q-29 -10 -34 -11q-8 -3 -13 -3q-6 0 -16 4q-14 9 -15 17q-3 6 -3 10q-6 -3 -15 -12q-10 -9 -22 -22l-22 -23q-10 -10 -23 -6q-14 5 -11 15q1 7 8 23q2 4 16 25l21 22q10 10 22 12h5q9 0 11 -5q1 -2 2.5 -4.5t2.5 -4.5q7 3 15 2
q11 -1 13 -11l2 -14q0 -4 4 -7q3 -1 16 0l30 8q16 5 31 12l23 10v0q11 -3 11 -9zM25 328l8 8l-5 4q0 -2 -2 -2q-2 2 -11 -6q-11 -6 -19 -17q-10 -12 -14 -21l-1 -4q11 8 21 16v0zM109 457q0 -3 -6 -13q-6 -8 -15 -15q-6 -6 -18 -11q-4 -1 -9 -3t-11 -3q-14 -2 -20 -2
q-8 1 -17 5q-8 4 -13 11q-6 8 -7 13q-2 10 -2 14q0 6 2 12q2 11 3 12q4 3 10 3q8 0 12 -10l-3 -10l-1 -7l1 -8q0 -4 3 -6q2 -5 5 -6q1 -1 9 -4q9 0 14 1q9 4 16 5q10 5 15 9q4 2 8 10q3 6 3 8q1 2 0 6q6 7 11 7t11 -8v0q1 -2 -1 -10z" />
    <glyph glyph-name="Aogonek" unicode="&#x104;" horiz-adv-x="844" vert-adv-y="1500" 
d="M850 334q0 -6 -14 -11q-11 3 -43 5q-25 1 -77 -5q-50 -5 -107 -15l-56 -10l-1 -5q-18 -66 -26 -108l-6 -36l3 -6q11 -27 16 -58q4 -37 3 -48q0 -20 -16 -27q-6 -3 -11 -3q-9 0 -12 8q-7 16 -7 35q0 21 3 55l4 32q-9 26 -32 52q-22 25 -54 44q-25 13 -58 19l-6 -2l-35 -10
q-46 -68 -61 -91q-39 -59 -66 -105q-25 -41 -46 -81l-24 -48q-9 -15 -11 -24q-9 -6 -16 -6q-11 0 -13 21l14 23q1 2 17 28q6 7 12 18l52 78l69 104l55 78l-72 -22q-38 -13 -87 -28l-23 -7q-52 -16 -79 -23q-6 -2 -17 -2q-17 0 -23 13q-2 6 -2 9q0 13 22 25q26 16 85 33
q57 18 117 30q51 10 105 8l6 10q48 66 102 135q46 62 109 135q50 58 108 121l86 91l20 23l13 22q14 23 28 15q10 -4 7 -12l1 -4q-1 -10 -13 -20q-17 -14 -52 -69q-28 -44 -71 -128q-35 -71 -69 -155q-30 -79 -44 -124l50 10q53 10 108 16q17 3 78 9q36 2 46 1v0
q11 -8 11 -13zM342 274l-3 -3q20 -2 29 -4q74 20 113 28l64 14q23 72 47 130q29 76 68 156q36 75 66 132l8 15q-46 -46 -75 -77q-51 -56 -108 -120q-66 -78 -109 -135v0q-53 -67 -100 -136zM311 251l4 5l-18 1q-33 0 -73 -8q-61 -11 -116 -28q-56 -18 -79 -33l-8 -6
q4 1 17 1q26 0 76 12q58 14 110 31v0zM541 296l-57 -12q-37 -8 -90 -23q18 -5 31 -13q34 -18 60 -47q18 -20 24 -31l4 17v0q11 53 28 109zM517 17q9 0 7 -14q-3 -5 -2 -6q1 -2 -4 -7q-4 -4 -14 -6l-12 -1q-1 0 -7 2q-3 2 -10 0l-13 -7q-5 -3 -11 -9q-4 -5 -5 -9v-4l3 -6
q2 -4 6 -7q2 -2 9 -4q6 -2 15 0q2 1 6 2t9 4q7 3 10 7q16 -1 15 -19q-4 -3 -8.5 -4.5t-7.5 -3.5l-20 -7q-9 -3 -23 -1q-12 2 -19 7q-8 5 -14 13q-4 5 -6 15q0 11 3 16q2 5 10 15q5 5 15 13q12 8 19 11q9 4 19 4q8 0 14 -2h1q5 2 6 6v0z" />
    <glyph glyph-name="aogonek" unicode="&#x105;" horiz-adv-x="185" vert-adv-y="1500" 
d="M191 338q0 -4 -5 -9l-23 -7l-31 -12q-29 -10 -34 -11q-8 -3 -13 -3q-6 0 -16 4q-14 9 -15 17q-3 6 -3 10q-6 -3 -15 -12q-10 -9 -22 -22l-22 -23q-10 -10 -23 -6q-14 5 -11 15q1 7 8 23q2 4 16 25l21 22q10 10 22 12h5q9 0 11 -5q1 -2 2.5 -4.5t2.5 -4.5q7 3 15 2
q11 -1 13 -11l2 -14q0 -4 4 -7q3 -1 16 0l30 8q16 5 31 12l23 10v0q11 -3 11 -9zM25 328l8 8l-5 4q0 -2 -2 -2q-2 2 -11 -6q-11 -6 -19 -17q-10 -12 -14 -21l-1 -4q11 8 21 16v0zM-25 260l-1 -3q0 -2 -2 -3q-2 -2 -6 -3h-5q-2 0 -3 1h-4l-6 -3l-5 -4l-2 -4v-2l2 -2
q0 -1 2 -3l4 -2h6q6 2 7 3q3 2 4 3q7 -1 7 -8q-1 -1 -7 -4l-9 -3q-4 -1 -10 0q-5 0 -8 3q-2 1 -6 5l-3 7q0 4 2 7q2 4 4 6l7 6l8 4q3 2 8 2t6 -1v0l3 3v0q9 3 7 -5z" />
    <glyph glyph-name="Cacute" unicode="&#x106;" horiz-adv-x="485" vert-adv-y="1500" 
d="M484 338q7 0 7 -8q0 -3 -2 -11l-35 -35q-28 -30 -50 -52q-41 -41 -65 -63q-46 -43 -71 -61q-35 -29 -69 -51q-33 -23 -64 -37q-27 -13 -55 -19q-5 -1 -13 -1q-18 0 -33 9q-20 14 -27 40q-7 32 -7 67q0 33 7 84q8 48 22 94q18 53 40 99q17 34 53 98q17 28 58 89
q30 40 58 70q27 28 59 54q31 25 60 39q30 14 54 15q23 3 41 -10q16 -15 19 -29q2 -10 2 -16q0 -4 -2 -14q-4 -16 -9 -31l-16 -37l-20 -42q-13 -25 -20 -41q-10 -20 -11 -29q-1 -6 -8 -6q-1 -1 -4 -1q-5 0 -15 6q-1 0 -3 2l-5 4q-6 7 0 13q4 4 5 6q2 2 4 9q4 4 8 5q2 4 4 6
q10 14 23 37q9 15 21 41q6 15 12 34q5 18 5 27q0 14 -1 20q-2 10 -7 15q-7 5 -24 5q-19 0 -45 -10q-31 -12 -57 -33q-30 -22 -57 -51q-26 -24 -58 -68q-34 -44 -58 -87q-31 -50 -53 -96q-24 -50 -39 -97q-15 -48 -21 -92q-6 -46 -5 -82q0 -36 8 -60q7 -21 20 -27
q11 -6 33 -4q22 3 49 15q26 10 62 32q35 21 69 48q43 36 71 60q45 43 63 63l49 53l31 38v0q10 4 12 4zM522 872q0 -2 -1 -3v-2q0 -3 -4 -7l-2 -1q-4 -5 -10 -9q-8 -5 -9 -7h-4q-6 -4 -10 -7.5t-8 -5.5l-17 -16q-2 -1 -6 -1q-9 0 -9 7l2 9q11 11 18 15q12 10 18 17l1 2l5 3
q10 10 12 14q7 7 16 4v0q8 -5 8 -12z" />
    <glyph glyph-name="cacute" unicode="&#x107;" horiz-adv-x="144" vert-adv-y="1500" 
d="M150 331q0 -5 -4 -10q-10 -3 -22 -8q-13 -5 -28 -13q-11 -5 -33 -17l-34 -17q-13 -5 -23 -5q-7 0 -10 1q-16 3 -17 19v5q0 14 6 27q7 17 19 32q9 13 20 24q10 8 19 13q4 2 6 2q5 0 13 -5q10 -7 10 -16q0 -7 -2 -13q0 -3 -6 -9q-3 -1 -5 -1.5t-2 0.5l-4 2q-2 -2 -5 4
q-2 6 -2 9v1q-6 -2 -9 -4q-10 -7 -20 -18q-11 -13 -17 -27q-6 -11 -6 -22q1 -7 7 -7q4 0 22 5q22 8 33 14l33 17l28 14l22 11v0q11 -2 11 -8zM105 483q0 -2 -1 -3q1 -3 -3 -7l-2 -1q-3 -3 -8 -7l-7 -5h-3q-6 -3 -14 -11l-14 -12q-2 -1 -6 -1q-8 0 -4 13q8 8 14 12q9 5 14 13
l1 2l4 2q8 8 10 11q6 6 12 3v0q7 -3 7 -9z" />
    <glyph glyph-name="Ccircumflex" unicode="&#x108;" horiz-adv-x="485" vert-adv-y="1500" 
d="M484 338q7 0 7 -8q0 -3 -2 -11l-35 -35q-28 -30 -50 -52q-41 -41 -65 -63q-46 -43 -71 -61q-35 -29 -69 -51q-33 -23 -64 -37q-27 -13 -55 -19q-5 -1 -13 -1q-18 0 -33 9q-20 14 -27 40q-7 32 -7 67q0 33 7 84q8 48 22 94q18 53 40 99q17 34 53 98q17 28 58 89
q30 40 58 70q27 28 59 54q31 25 60 39q30 14 54 15q23 3 41 -10q16 -15 19 -29q2 -10 2 -16q0 -4 -2 -14q-4 -16 -9 -31l-16 -37l-20 -42q-13 -25 -20 -41q-10 -20 -11 -29q-1 -6 -8 -6q-1 -1 -4 -1q-5 0 -15 6q-1 0 -3 2l-5 4q-6 7 0 13q4 4 5 6q2 2 4 9q4 4 8 5q2 4 4 6
q10 14 23 37q9 15 21 41q6 15 12 34q5 18 5 27q0 14 -1 20q-2 10 -7 15q-7 5 -24 5q-19 0 -45 -10q-31 -12 -57 -33q-30 -22 -57 -51q-26 -24 -58 -68q-34 -44 -58 -87q-31 -50 -53 -96q-24 -50 -39 -97q-15 -48 -21 -92q-6 -46 -5 -82q0 -36 8 -60q7 -21 20 -27
q11 -6 33 -4q22 3 49 15q26 10 62 32q35 21 69 48q43 36 71 60q45 43 63 63l49 53l31 38v0q10 4 12 4zM489 845q3 -3 2 -5q-2 -3 -4 -13q-2 -4 -2 -7.5t-1 -5.5q0 -9 1 -14q-3 -5 -8 -5q-3 0 -8 5v14l2 16l-2 -2l-14 -12l-10 -11l-6 -6q-7 0 -10 3t-2 10q2 1 3.5 2.5
t3.5 2.5q6 6 12 9q4 5 14 13l11 10q3 3 6 3t8 -3v0z" />
    <glyph glyph-name="ccircumflex" unicode="&#x109;" horiz-adv-x="144" vert-adv-y="1500" 
d="M150 331q0 -5 -4 -10q-10 -3 -22 -8q-13 -5 -28 -13q-11 -5 -33 -17l-34 -17q-13 -5 -23 -5q-7 0 -10 1q-16 3 -17 19v5q0 14 6 27q7 17 19 32q9 13 20 24q10 8 19 13q4 2 6 2q5 0 13 -5q10 -7 10 -16q0 -7 -2 -13q0 -3 -6 -9q-3 -1 -5 -1.5t-2 0.5l-4 2q-2 -2 -5 4
q-2 6 -2 9v1q-6 -2 -9 -4q-10 -7 -20 -18q-11 -13 -17 -27q-6 -11 -6 -22q1 -7 7 -7q4 0 22 5q22 8 33 14l33 17l28 14l22 11v0q11 -2 11 -8zM95 475q3 -3 2 -5q-2 -3 -4 -13q-2 -4 -2 -7.5t-1 -5.5q0 -9 1 -14q-3 -5 -8 -5q-3 0 -8 5v14l2 16l-2 -2l-14 -12l-10 -11l-6 -6
q-7 0 -10 3t-2 10q2 1 3.5 2.5t3.5 2.5q6 6 12 9q4 5 14 13l11 10q3 3 6 3t8 -3v0z" />
    <glyph glyph-name="Cdotaccent" unicode="&#x10a;" horiz-adv-x="485" vert-adv-y="1500" 
d="M484 338q7 0 7 -8q0 -3 -2 -11l-35 -35q-28 -30 -50 -52q-41 -41 -65 -63q-46 -43 -71 -61q-35 -29 -69 -51q-33 -23 -64 -37q-27 -13 -55 -19q-5 -1 -13 -1q-18 0 -33 9q-20 14 -27 40q-7 32 -7 67q0 33 7 84q8 48 22 94q18 53 40 99q17 34 53 98q17 28 58 89
q30 40 58 70q27 28 59 54q31 25 60 39q30 14 54 15q23 3 41 -10q16 -15 19 -29q2 -10 2 -16q0 -4 -2 -14q-4 -16 -9 -31l-16 -37l-20 -42q-13 -25 -20 -41q-10 -20 -11 -29q-1 -6 -8 -6q-1 -1 -4 -1q-5 0 -15 6q-1 0 -3 2l-5 4q-6 7 0 13q4 4 5 6q2 2 4 9q4 4 8 5q2 4 4 6
q10 14 23 37q9 15 21 41q6 15 12 34q5 18 5 27q0 14 -1 20q-2 10 -7 15q-7 5 -24 5q-19 0 -45 -10q-31 -12 -57 -33q-30 -22 -57 -51q-26 -24 -58 -68q-34 -44 -58 -87q-31 -50 -53 -96q-24 -50 -39 -97q-15 -48 -21 -92q-6 -46 -5 -82q0 -36 8 -60q7 -21 20 -27
q11 -6 33 -4q22 3 49 15q26 10 62 32q35 21 69 48q43 36 71 60q45 43 63 63l49 53l31 38v0q10 4 12 4zM499 815q0 -3 -1.5 -6t-1.5 -4q-3 -5 -7 -8q-4 -4 -7 -4q-6 -2 -10 -2h-2q-6 0 -11 5t-5 10l3 9l2 2t2 1v4q1 2 4 2q0 2 5 7q8 2 12 2q7 0 11 -7v0q6 -4 6 -11z" />
    <glyph glyph-name="cdotaccent" unicode="&#x10b;" horiz-adv-x="144" vert-adv-y="1500" 
d="M150 331q0 -5 -4 -10q-10 -3 -22 -8q-13 -5 -28 -13q-11 -5 -33 -17l-34 -17q-13 -5 -23 -5q-7 0 -10 1q-16 3 -17 19v5q0 14 6 27q7 17 19 32q9 13 20 24q10 8 19 13q4 2 6 2q5 0 13 -5q10 -7 10 -16q0 -7 -2 -13q0 -3 -6 -9q-3 -1 -5 -1.5t-2 0.5l-4 2q-2 -2 -5 4
q-2 6 -2 9v1q-6 -2 -9 -4q-10 -7 -20 -18q-11 -13 -17 -27q-6 -11 -6 -22q1 -7 7 -7q4 0 22 5q22 8 33 14l33 17l28 14l22 11v0q11 -2 11 -8zM96 455q0 -3 -1.5 -6t-1.5 -4q-2 -5 -7 -8q-4 -4 -7 -4q-6 -2 -10 -2h-2q-6 0 -11 5t-5 10l3 9l2 2t2 1v4q1 2 4 2q0 2 5 7
q8 2 12 2q7 0 11 -7v0q6 -4 6 -11z" />
    <glyph glyph-name="Ccaron" unicode="&#x10c;" horiz-adv-x="485" vert-adv-y="1500" 
d="M484 338q7 0 7 -8q0 -3 -2 -11l-35 -35q-28 -30 -50 -52q-41 -41 -65 -63q-46 -43 -71 -61q-35 -29 -69 -51q-33 -23 -64 -37q-27 -13 -55 -19q-5 -1 -13 -1q-18 0 -33 9q-20 14 -27 40q-7 32 -7 67q0 33 7 84q8 48 22 94q18 53 40 99q17 34 53 98q17 28 58 89
q30 40 58 70q27 28 59 54q31 25 60 39q30 14 54 15q23 3 41 -10q16 -15 19 -29q2 -10 2 -16q0 -4 -2 -14q-4 -16 -9 -31l-16 -37l-20 -42q-13 -25 -20 -41q-10 -20 -11 -29q-1 -6 -8 -6q-1 -1 -4 -1q-5 0 -15 6q-1 0 -3 2l-5 4q-6 7 0 13q4 4 5 6q2 2 4 9q4 4 8 5q2 4 4 6
q10 14 23 37q9 15 21 41q6 15 12 34q5 18 5 27q0 14 -1 20q-2 10 -7 15q-7 5 -24 5q-19 0 -45 -10q-31 -12 -57 -33q-30 -22 -57 -51q-26 -24 -58 -68q-34 -44 -58 -87q-31 -50 -53 -96q-24 -50 -39 -97q-15 -48 -21 -92q-6 -46 -5 -82q0 -36 8 -60q7 -21 20 -27
q11 -6 33 -4q22 3 49 15q26 10 62 32q35 21 69 48q43 36 71 60q45 43 63 63l49 53l31 38v0q10 4 12 4zM569 890q-12 -9 -13 -10q-3 -2 -6.5 -5.5t-9.5 -7.5l-22 -21l-23 -22q-17 -15 -23 -18q-3 -2 -9 -2q-7 0 -12 4q-10 10 -10 19v23v2q-3 2 -3 5q0 2 0.5 4t-0.5 4v2v3
q-1 2 0 3.5t3 1.5q3 5 15 2t11 -10q-4 -7 -5 -18q-1 -7 -1 -19l1 -3q1 0 1.5 0.5t1.5 0.5q10 5 18 11q16 12 24 19q18 18 20 21l15 16q6 7 13 13v0q19 0 14 -18z" />
    <glyph glyph-name="ccaron" unicode="&#x10d;" horiz-adv-x="144" vert-adv-y="1500" 
d="M150 331q0 -5 -4 -10q-10 -3 -22 -8q-13 -5 -28 -13q-11 -5 -33 -17l-34 -17q-13 -5 -23 -5q-7 0 -10 1q-16 3 -17 19v5q0 14 6 27q7 17 19 32q9 13 20 24q10 8 19 13q4 2 6 2q5 0 13 -5q10 -7 10 -16q0 -7 -2 -13q0 -3 -6 -9q-3 -1 -5 -1.5t-2 0.5l-4 2q-2 -2 -5 4
q-2 6 -2 9v1q-6 -2 -9 -4q-10 -7 -20 -18q-11 -13 -17 -27q-6 -11 -6 -22q1 -7 7 -7q4 0 22 5q22 8 33 14l33 17l28 14l22 11v0q11 -2 11 -8zM173 559q-12 -9 -13 -10q-3 -2 -6.5 -5.5t-9.5 -7.5l-22 -21l-23 -22q-17 -15 -23 -18q-3 -2 -9 -2q-7 0 -12 4q-10 10 -10 19v23
v2q-3 2 -3 5q0 2 0.5 4t-0.5 4v2v3q-1 2 0 3.5t3 1.5q3 5 15 2t11 -10q-4 -7 -5 -18q-1 -7 -1 -19l1 -3q1 0 1.5 0.5t1.5 0.5q10 5 18 11q16 12 24 19q17 18 20 21l15 16q6 7 13 13v0q19 0 14 -18z" />
    <glyph glyph-name="Dcaron" unicode="&#x10e;" horiz-adv-x="706" vert-adv-y="1500" 
d="M696 677q0 -46 -9 -106q-9 -61 -24 -110q-14 -46 -41 -101q-27 -53 -58 -96q-36 -47 -80 -87q-50 -45 -96 -73q-51 -31 -108 -47q-57 -17 -109 -17q-45 0 -89 13l-16 5q-6 -15 -26 -69l-4 -8l-1 -10q-3 -26 -14 -17l-3 4q-2 -2 -8 -2h-2q-8 0 -8 8q0 5 5 15q20 42 31 71
q7 16 7 18q-10 4 -20 11q-5 10 -5 14q0 5 5 5q1 0 13 -4q10 -7 15 -10q23 51 49 97l6 12v1l53 129q9 24 17 42t13 30l27 66l20 47h-3q-9 0 -15 18l7 19q6 14 18 34q12 24 36 66l46 86l41 81l15 29l3 10q3 13 11 14q5 6 9 6q5 0 11 -6t6 -13t-6 -15q-11 -15 -31 -49
q-14 -23 -44 -82l-54 -114l-59 -135l-58 -138l-15 -38q26 46 40 69q47 80 104 159q54 77 90 114q38 42 82 73q50 39 87 58q42 23 76 29q4 1 12 1q27 0 37 -27v0q14 -31 14 -80zM679 677q-3 48 -11 70q-8 21 -27 21q-7 0 -10 -1q-26 -4 -68 -26q-40 -20 -85 -56
q-49 -38 -82 -71q-35 -33 -90 -110q-49 -66 -104 -158q-53 -92 -85 -157l-45 -113v-2l16 -6q38 -13 84 -14q47 -2 104 15q53 15 106 46q52 33 93 72q41 37 78 86q29 39 57 93q22 46 40 99q16 51 23 108v0q8 59 6 104zM716 975q-12 -9 -13 -10q-3 -2 -6.5 -5.5t-9.5 -7.5
l-22 -21l-23 -22q-17 -15 -23 -18q-3 -2 -9 -2q-7 0 -12 4q-10 10 -10 19v23v2q-3 2 -3 5q0 2 0.5 4t-0.5 4v2v3q-1 2 0 3.5t3 1.5q3 5 15 2t11 -10q-4 -7 -5 -18q-1 -7 -1 -19l1 -3q1 0 1.5 0.5t1.5 0.5q10 5 18 11q16 12 24 19q17 17 20 21l15 16q6 7 13 13v0q19 0 14 -18
z" />
    <glyph glyph-name="dcaron" unicode="&#x10f;" horiz-adv-x="179" vert-adv-y="1500" 
d="M487 943q0 -8 -7 -24l-22 -41q-24 -42 -38 -62q-30 -46 -54 -82q-34 -52 -66 -95l-74 -100q-13 -16 -37 -48l-1 -2q-40 -81 -75 -161q-28 -64 -55 -132l-36 -99l-26 -73q-12 -32 -22 -29q5 -1 1 -7q-4 4 -4 14q0 13 7 28l30 72q-4 -10 22 57q5 12 9 22t8 19q15 37 56 133
q18 40 56 120l-11 -13l-69 -84q-30 -36 -52 -64l-34 -41q-12 -15 -26 -20q-6 -2 -9 -2q-8 0 -14 6q-10 7 -10 21v3q0 11 7 23l18 26q14 20 23 31q11 15 24 28q9 11 27 16q3 1 9 1q9 0 15 -9l5 -11l3 4l72 81l51 63q41 84 76 147q39 73 76 133q40 66 57 91q4 6 8.5 13t8.5 14
q5 7 10 15.5t10 15.5q12 21 32 16v0q21 -3 21 -14zM40 341q-1 1 -2 2.5t-2 4.5l-9 -7q-12 -8 -23 -21q-12 -12 -22 -27l-8 -14q15 10 35 30v0zM447 901.5q3 7.5 5 10.5q-15 -12 -38 -41q-24 -31 -61 -87q-39 -60 -79 -131l-12 -21q-33 -60 -40 -75q35 45 67 90q35 50 65 95
q25 37 52 82q26 45 34 63v0q4 7 7 14.5zM632 1106q-12 -9 -13 -10q-3 -2 -6.5 -5.5t-9.5 -7.5l-22 -21l-23 -22q-17 -15 -23 -18q-3 -2 -9 -2q-7 0 -12 4q-10 10 -10 19v23v2q-3 2 -3 5q0 2 0.5 4t-0.5 4v2v3q-1 2 0 3.5t3 1.5q3 5 15 2t11 -10q-4 -7 -5 -18q-1 -7 -1 -19
l1 -3q1 0 1.5 0.5t1.5 0.5q10 5 18 11q16 12 24 19q18 18 20 21l15 16q6 7 13 13v0q19 0 14 -18z" />
    <glyph glyph-name="Dcroat" unicode="&#x110;" horiz-adv-x="364" 
d="M696 725q0 -46 -9 -106q-9 -61 -24 -110q-14 -46 -41 -101q-27 -53 -58 -96q-36 -47 -80 -87q-50 -45 -96 -73q-51 -31 -108 -47q-57 -17 -109 -17q-45 0 -89 13l-16 5q-6 -15 -26 -69l-4 -8l-1 -10q-3 -26 -14 -17l-3 4q-2 -2 -8 -2h-2q-8 0 -8 8q0 5 5 15q20 42 31 71
q7 16 7 18q-10 4 -20 11q-5 10 -5 14q0 5 5 5q1 0 13 -4q10 -7 15 -10q23 51 49 97l6 12v1l53 129l3 8l-33 -2q-30 -2 -38 -1h-29h-23l-15 2q-10 6 -10 11q0 8 15 12q10 -2 14 -2l21 -2q19 -2 28 -1q21 0 36 -1h40l48 114l20 47h-3q-9 0 -15 18l7 19q6 14 18 34q12 24 36 66
l46 86l41 81l15 29l3 10q3 13 11 14q5 6 9 6q5 0 11 -6t6 -13t-6 -15q-11 -15 -31 -49q-14 -23 -44 -82l-54 -114l-59 -135l-47 -110h2h10q0 1 2 3q47 80 104 159q54 76 90 114q38 42 82 73q50 39 87 58q42 23 76 29q4 1 12 1q27 0 37 -27v0q14 -31 14 -80zM154 329
q9 17 29 51h-9q-3 -7 -5 -13v0zM679 725q-3 48 -11 70q-8 21 -27 21q-7 0 -10 -1q-26 -4 -68 -26q-40 -20 -85 -56q-49 -38 -82 -71q-35 -33 -90 -110q-48 -63 -104 -157q14 1 44 1l56 2l37 1h26h20q8 -6 8 -12t-11 -12l-20 3q-11 0 -24 3l-36 2h-55q-38 -2 -53 -2
q-57 -101 -77 -144l-45 -113v-2l16 -6q38 -13 84 -14q47 -2 104 15q53 15 106 46q52 33 93 72q41 37 78 86q29 39 57 93q22 46 40 99q16 51 23 108v0q8 59 6 104z" />
    <glyph glyph-name="dcroat" unicode="&#x111;" horiz-adv-x="308" 
d="M137 -5q-52 0 -80.5 36t-28.5 102t28.5 102t80.5 36q54 0 84 -39h3q-1 3 -2 16.5t-1 23.5v30h-106v33h106v45h44v-45h38v-33h-38v-302h-36l-7 36h-2q-28 -41 -83 -41zM145 31q40 0 58 22t18 71v9q0 56 -18.5 79t-58.5 23q-34 0 -52.5 -26t-18.5 -77q0 -48 18 -74.5
t54 -26.5z" />
    <glyph glyph-name="Emacron" unicode="&#x112;" horiz-adv-x="278" 
d="M74 421h148v-35h-148v35zM519 673l12 25q7 12 10 31v5q0 14 -8 22q-11 11 -23 12h-5q-9 0 -26 -5q-14 -5 -43 -20q-27 -14 -70 -47q-46 -35 -92 -78q-51 -48 -86 -87q-35 -36 -53 -67q-9 -13 -9 -25q0 -8 5 -15q12 -14 31 -14t44 6l53 12q12 3 53 13q10 2 44 8q17 2 20 6
t-4 7h-3q-7 0 -24 -15q-17 -17 -52 -44l-29 -23l-41 -32q-34 -26 -73 -60q-40 -36 -63 -62q-27 -30 -47 -64q-18 -30 -30 -67q-10 -31 -10 -63q0 -29 16 -50q15 -20 40 -24q25 -3 57 10q35 14 69 37q23 15 80 58q42 32 83 65l83 64q36 27 83 58l70 45q32 20 51 27q8 10 8 14
q0 7 -18 5l-49 -32q-29 -18 -71 -47q-31 -21 -82 -58l-84 -65q-47 -38 -83 -64q-37 -28 -80 -55q-32 -20 -66 -32q-29 -9 -47 -7q-16 3 -28 15t-12 38q-1 23 7 56q9 30 27 63q20 33 45 63q29 32 62 61q36 31 71 59q57 41 73 51q40 28 57 38q22 11 29 30q1 3 1 7q0 11 -10 12
q-3 1 -11 1q-6 0 -20 -2l-44 -11l-53 -12q-25 -7 -51 -9q-23 -3 -39 -1t-18 1q-2 0 -2 2q0 4 7 17q9 20 47 63q36 42 85 85q50 45 93 74q46 29 70 39q26 10 39 11q13 3 20 1q6 -3 7 0q1 1 1 -4q-2 -9 -8 -18l-13 -21q-6 -9 -11 -14q2 -21 16 -21q6 0 13 3v0z" />
    <glyph glyph-name="emacron" unicode="&#x113;" horiz-adv-x="281" 
d="M75 338h148v-35h-148v35zM167 333q0 -5 -2 -8l-20 -8l-31 -10l-40 -14q-13 -5 -39 -9q-4 -1 -11 -1q-10 0 -18 5q-10 7 -14 15q-7 13 -3 20l1 2q-2 2 -2 5q0 4 6 10l2 5q5 12 12 20q4 5 7 9.5t7 8.5q6 7 17 10q2 1 6 1q5 0 11 -3q9 -5 11 -14l1 -7q0 -5 -3 -11
q-4 -8 -11 -15q-6 -6 -14 -11t-17 -9l-13 -5q0 -4 2 -7l5 -6q1 -1 7 -1.5t11 -0.5h7q15 0 28 4q6 2 16 4.5t23 7.5q22 9 29 13l17 10v0q12 -1 12 -10zM28 351q7 2 10 8q4 6 5 9l-6 -4q-2 -1 -6 -4t-7 -7l-4 -6v0z" />
    <glyph glyph-name="Ebreve" unicode="&#x114;" horiz-adv-x="634" vert-adv-y="1500" 
d="M519 673l12 25q7 12 10 31v5q0 14 -8 22q-11 11 -23 12h-5q-9 0 -26 -5q-14 -5 -43 -20q-27 -14 -70 -47q-46 -35 -92 -78q-51 -48 -86 -87q-35 -36 -53 -67q-9 -13 -9 -25q0 -8 5 -15q12 -14 31 -14t44 6l53 12q12 3 53 13q10 2 44 8q17 2 20 6t-4 7h-3q-7 0 -24 -15
q-17 -17 -52 -44l-29 -23l-41 -32q-34 -26 -73 -60q-40 -36 -63 -62q-27 -30 -47 -64q-18 -30 -30 -67q-10 -31 -10 -63q0 -29 16 -50q15 -20 40 -24q25 -3 57 10q35 14 69 37q23 15 80 58q42 32 83 65l83 64q36 27 83 58l70 45q32 20 51 27q8 10 8 14q0 7 -18 5l-49 -32
q-29 -18 -71 -47q-31 -21 -82 -58l-84 -65q-47 -38 -83 -64q-37 -28 -80 -55q-32 -20 -66 -32q-29 -9 -47 -7q-16 3 -28 15t-12 38q-1 23 7 56q9 30 27 63q20 33 45 63q29 32 62 61q36 31 71 59q57 41 73 51q40 28 57 38q22 11 29 30q1 3 1 7q0 11 -10 12q-3 1 -11 1
q-6 0 -20 -2l-44 -11l-53 -12q-25 -7 -51 -9q-23 -3 -39 -1t-18 1q-2 0 -2 2q0 4 7 17q9 20 47 63q36 42 85 85q50 45 93 74q46 29 70 39q26 10 39 11q13 3 20 1q6 -3 7 0q1 1 1 -4q-2 -9 -8 -18l-13 -21q-6 -9 -11 -14q2 -21 16 -21q6 0 13 3v0zM593 861q0 -3 -6 -13
q-6 -8 -15 -15q-6 -6 -18 -11q-4 -1 -9 -3t-11 -3q-14 -2 -20 -2q-8 1 -17 5q-8 4 -13 11q-6 8 -7 13q-2 10 -2 14q0 6 2 12q2 11 3 12q5 3 10 3q8 0 12 -10l-3 -10l-1 -7l1 -8q0 -4 3 -6q2 -5 5 -6q1 -2 9 -4q9 0 14 1q9 4 16 5q10 5 15 9q4 2 8 10q3 6 3 8q1 2 0 6
q6 7 11 7t11 -8v0q1 -2 -1 -10z" />
    <glyph glyph-name="ebreve" unicode="&#x115;" horiz-adv-x="161" vert-adv-y="1500" 
d="M167 333q0 -5 -2 -8l-20 -8l-31 -10l-40 -14q-13 -5 -39 -9q-4 -1 -11 -1q-10 0 -18 5q-10 7 -14 15q-7 13 -3 20l1 2q-2 2 -2 5q0 4 6 10l2 5q5 12 12 20q4 5 7 9.5t7 8.5q6 7 17 10q2 1 6 1q5 0 11 -3q9 -5 11 -14l1 -7q0 -5 -3 -11q-4 -8 -11 -15q-6 -6 -14 -11
t-17 -9l-13 -5q0 -4 2 -7l5 -6q1 -1 7 -1.5t11 -0.5h7q15 0 28 4q6 2 16 4.5t23 7.5q22 9 29 13l17 10v0q12 -1 12 -10zM28 351q7 2 10 8q4 6 5 9l-6 -4q-2 -1 -6 -4t-7 -7l-4 -6v0zM151 472q0 -3 -6 -13q-6 -8 -15 -15q-6 -6 -18 -11q-4 -1 -9 -3t-11 -3q-14 -2 -20 -2
q-8 1 -17 5q-8 4 -13 11q-6 8 -7 13q-2 10 -2 14q0 6 2 12q2 11 3 12q4 3 10 3q8 0 12 -10l-3 -10l-1 -7l1 -8q0 -4 3 -6q2 -5 5 -6q1 -1 9 -4q9 0 14 1q9 4 16 5q10 5 15 9q4 2 8 10q3 6 3 8q1 2 0 6q6 7 11 7t11 -8v0q1 -2 -1 -10z" />
    <glyph glyph-name="Edotaccent" unicode="&#x116;" horiz-adv-x="634" vert-adv-y="1500" 
d="M519 673l12 25q7 12 10 31v5q0 14 -8 22q-11 11 -23 12h-5q-9 0 -26 -5q-14 -5 -43 -20q-27 -14 -70 -47q-46 -35 -92 -78q-51 -48 -86 -87q-35 -36 -53 -67q-9 -13 -9 -25q0 -8 5 -15q12 -14 31 -14t44 6l53 12q12 3 53 13q10 2 44 8q17 2 20 6t-4 7h-3q-7 0 -24 -15
q-17 -17 -52 -44l-29 -23l-41 -32q-34 -26 -73 -60q-40 -36 -63 -62q-27 -30 -47 -64q-18 -30 -30 -67q-10 -31 -10 -63q0 -29 16 -50q15 -20 40 -24q25 -3 57 10q35 14 69 37q23 15 80 58q42 32 83 65l83 64q36 27 83 58l70 45q32 20 51 27q8 10 8 14q0 7 -18 5l-49 -32
q-29 -18 -71 -47q-31 -21 -82 -58l-84 -65q-47 -38 -83 -64q-37 -28 -80 -55q-32 -20 -66 -32q-29 -9 -47 -7q-16 3 -28 15t-12 38q-1 23 7 56q9 30 27 63q20 33 45 63q29 32 62 61q36 31 71 59q57 41 73 51q40 28 57 38q22 11 29 30q1 3 1 7q0 11 -10 12q-3 1 -11 1
q-6 0 -20 -2l-44 -11l-53 -12q-25 -7 -51 -9q-23 -3 -39 -1t-18 1q-2 0 -2 2q0 4 7 17q9 20 47 63q36 42 85 85q50 45 93 74q46 29 70 39q26 10 39 11q13 3 20 1q6 -3 7 0q1 1 1 -4q-2 -9 -8 -18l-13 -21q-6 -9 -11 -14q2 -21 16 -21q6 0 13 3v0zM590 870q0 -3 -1.5 -6
t-1.5 -4q-2 -5 -7 -8q-4 -4 -7 -4q-6 -2 -10 -2h-2q-6 0 -11 5t-5 10l3 9l2 2t2 1v4q1 2 4 2q0 2 5 7q8 2 12 2q7 0 11 -7v0q6 -4 6 -11z" />
    <glyph glyph-name="edotaccent" unicode="&#x117;" horiz-adv-x="161" vert-adv-y="1500" 
d="M167 333q0 -5 -2 -8l-20 -8l-31 -10l-40 -14q-13 -5 -39 -9q-4 -1 -11 -1q-10 0 -18 5q-10 7 -14 15q-7 13 -3 20l1 2q-2 2 -2 5q0 4 6 10l2 5q5 12 12 20q4 5 7 9.5t7 8.5q6 7 17 10q2 1 6 1q5 0 11 -3q9 -5 11 -14l1 -7q0 -5 -3 -11q-4 -8 -11 -15q-6 -6 -14 -11
t-17 -9l-13 -5q0 -4 2 -7l5 -6q1 -1 7 -1.5t11 -0.5h7q15 0 28 4q6 2 16 4.5t23 7.5q22 9 29 13l17 10v0q12 -1 12 -10zM28 351q7 2 10 8q4 6 5 9l-6 -4q-2 -1 -6 -4t-7 -7l-4 -6v0zM104 481q0 -3 -1.5 -6t-1.5 -4q-3 -5 -7 -8q-4 -4 -7 -4q-6 -2 -10 -2h-2q-6 0 -11 5
t-5 10l3 9l2 2t2 1v4q1 2 4 2q0 2 5 7q8 2 12 2q7 0 11 -7v0q6 -4 6 -11z" />
    <glyph glyph-name="Eogonek" unicode="&#x118;" horiz-adv-x="634" vert-adv-y="1500" 
d="M519 673l12 25q7 12 10 31v5q0 14 -8 22q-11 11 -23 12h-5q-9 0 -26 -5q-14 -5 -43 -20q-27 -14 -70 -47q-46 -35 -92 -78q-51 -48 -86 -87q-35 -36 -53 -67q-9 -13 -9 -25q0 -8 5 -15q12 -14 31 -14t44 6l53 12q12 3 53 13q10 2 44 8q17 2 20 6t-4 7h-3q-7 0 -24 -15
q-17 -17 -52 -44l-29 -23l-41 -32q-34 -26 -73 -60q-40 -36 -63 -62q-27 -30 -47 -64q-18 -30 -30 -67q-10 -31 -10 -63q0 -29 16 -50q15 -20 40 -24q25 -3 57 10q35 14 69 37q23 15 80 58q42 32 83 65l83 64q36 27 83 58l70 45q32 20 51 27q8 10 8 14q0 7 -18 5l-49 -32
q-29 -18 -71 -47q-31 -21 -82 -58l-84 -65q-47 -38 -83 -64q-37 -28 -80 -55q-32 -20 -66 -32q-29 -9 -47 -7q-16 3 -28 15t-12 38q-1 23 7 56q9 30 27 63q20 33 45 63q29 32 62 61q36 31 71 59q57 41 73 51q40 28 57 38q22 11 29 30q1 3 1 7q0 11 -10 12q-3 1 -11 1
q-6 0 -20 -2l-44 -11l-53 -12q-25 -7 -51 -9q-23 -3 -39 -1t-18 1q-2 0 -2 2q0 4 7 17q9 20 47 63q36 42 85 85q50 45 93 74q46 29 70 39q26 10 39 11q13 3 20 1q6 -3 7 0q1 1 1 -4q-2 -9 -8 -18l-13 -21q-6 -9 -11 -14q2 -21 16 -21q6 0 13 3v0zM48 -45q9 0 7 -14
q-3 -5 -2 -6q1 -2 -4 -7q-4 -4 -14 -6l-12 -1q-1 0 -7 2q-3 2 -10 0l-13 -7q-5 -3 -11 -9q-4 -5 -5 -9v-4l3 -6q2 -5 6 -7q2 -2 9 -4q6 -2 15 0q2 1 6 2t9 4q7 3 10 7q16 -1 15 -19q-4 -3 -8.5 -4.5t-7.5 -3.5l-20 -7q-9 -3 -23 -1q-12 2 -19 7q-8 5 -14 13q-4 5 -6 15
q0 11 3 16q2 5 10 15q5 5 15 13q12 8 19 11q9 4 19 4q8 0 14 -2h1q5 1 6 6v0z" />
    <glyph glyph-name="eogonek" unicode="&#x119;" horiz-adv-x="161" vert-adv-y="1500" 
d="M167 333q0 -5 -2 -8l-20 -8l-31 -10l-40 -14q-13 -5 -39 -9q-4 -1 -11 -1q-10 0 -18 5q-10 7 -14 15q-7 13 -3 20l1 2q-2 2 -2 5q0 4 6 10l2 5q5 12 12 20q4 5 7 9.5t7 8.5q6 7 17 10q2 1 6 1q5 0 11 -3q9 -5 11 -14l1 -7q0 -5 -3 -11q-4 -8 -11 -15q-6 -6 -14 -11
t-17 -9l-13 -5q0 -4 2 -7l5 -6q1 -1 7 -1.5t11 -0.5h7q15 0 28 4q6 2 16 4.5t23 7.5q22 9 29 13l17 10v0q12 -1 12 -10zM28 351q7 2 10 8q4 6 5 9l-6 -4q-2 -1 -6 -4t-7 -7l-4 -6v0zM21 287q5 0 4 -8q-2 -4 -1 -4q0 -2 -3 -5t-8 -3l-8 -1l-4 1q-2 2 -6 0l-9 -4l-6 -6
q-3 -3 -3 -5v-3l1 -3l4 -5q2 -2 6 -2q3 -1 9 0q6 2 9 4q4 1 7 4q9 -1 9 -12l-10 -5l-12 -4q-5 -1 -15 -1q-8 2 -12 5q-6 4 -8 8q-2 2 -4 9q0 7 2 10l6 9l9 8q4 3 12 7q7 3 12 3t9 -2v0q3 1 4 4v0q2 1 6 1z" />
    <glyph glyph-name="Ecaron" unicode="&#x11a;" horiz-adv-x="634" vert-adv-y="1500" 
d="M519 673l12 25q7 12 10 31v5q0 14 -8 22q-11 11 -23 12h-5q-9 0 -26 -5q-14 -5 -43 -20q-27 -14 -70 -47q-46 -35 -92 -78q-51 -48 -86 -87q-35 -36 -53 -67q-9 -13 -9 -25q0 -8 5 -15q12 -14 31 -14t44 6l53 12q12 3 53 13q10 2 44 8q17 2 20 6t-4 7h-3q-7 0 -24 -15
q-17 -17 -52 -44l-29 -23l-41 -32q-34 -26 -73 -60q-40 -36 -63 -62q-27 -30 -47 -64q-18 -30 -30 -67q-10 -31 -10 -63q0 -29 16 -50q15 -20 40 -24q25 -3 57 10q35 14 69 37q23 15 80 58q42 32 83 65l83 64q36 27 83 58l70 45q32 20 51 27q8 10 8 14q0 7 -18 5l-49 -32
q-29 -18 -71 -47q-31 -21 -82 -58l-84 -65q-47 -38 -83 -64q-37 -28 -80 -55q-32 -20 -66 -32q-29 -9 -47 -7q-16 3 -28 15t-12 38q-1 23 7 56q9 30 27 63q20 33 45 63q29 32 62 61q36 31 71 59q57 41 73 51q40 28 57 38q22 11 29 30q1 3 1 7q0 11 -10 12q-3 1 -11 1
q-6 0 -20 -2l-44 -11l-53 -12q-25 -7 -51 -9q-23 -3 -39 -1t-18 1q-2 0 -2 2q0 4 7 17q9 20 47 63q36 42 85 85q50 45 93 74q46 29 70 39q26 10 39 11q13 3 20 1q6 -3 7 0q1 1 1 -4q-2 -9 -8 -18l-13 -21q-6 -9 -11 -14q2 -21 16 -21q6 0 13 3v0zM645 941q-12 -9 -13 -10
q-3 -2 -6.5 -5.5t-9.5 -7.5l-22 -21l-23 -22q-17 -15 -23 -18q-3 -2 -9 -2q-7 0 -12 4q-10 10 -10 19v23v2q-3 2 -3 5q0 2 0.5 4t-0.5 4v2v3q-1 2 0 3.5t3 1.5q3 5 15 2t11 -10q-4 -7 -5 -18q-1 -7 -1 -19l1 -3q1 0 1.5 0.5t1.5 0.5q10 5 18 11q16 12 24 19q18 18 20 21
l15 16q6 7 13 13v0q19 0 14 -18z" />
    <glyph glyph-name="ecaron" unicode="&#x11b;" horiz-adv-x="161" vert-adv-y="1500" 
d="M167 333q0 -5 -2 -8l-20 -8l-31 -10l-40 -14q-13 -5 -39 -9q-4 -1 -11 -1q-10 0 -18 5q-10 7 -14 15q-7 13 -3 20l1 2q-2 2 -2 5q0 4 6 10l2 5q5 12 12 20q4 5 7 9.5t7 8.5q6 7 17 10q2 1 6 1q5 0 11 -3q9 -5 11 -14l1 -7q0 -5 -3 -11q-4 -8 -11 -15q-6 -6 -14 -11
t-17 -9l-13 -5q0 -4 2 -7l5 -6q1 -1 7 -1.5t11 -0.5h7q15 0 28 4q6 2 16 4.5t23 7.5q22 9 29 13l17 10v0q12 -1 12 -10zM28 351q7 2 10 8q4 6 5 9l-6 -4q-2 -1 -6 -4t-7 -7l-4 -6v0zM171 535q-12 -9 -13 -10q-3 -2 -6.5 -5.5t-9.5 -7.5l-22 -21l-23 -22q-17 -15 -23 -18
q-3 -2 -9 -2q-7 0 -12 4q-10 10 -10 19v23v2q-3 2 -3 5q0 2 0.5 4t-0.5 4v2v3q-1 2 0 3.5t3 1.5q3 5 15 2t11 -10q-4 -7 -5 -18q-1 -7 -1 -19l1 -3q1 0 1.5 0.5t1.5 0.5q10 5 18 11q16 12 24 19q18 18 20 21l15 16q6 7 13 13v0q19 0 14 -18z" />
    <glyph glyph-name="Gcircumflex" unicode="&#x11c;" horiz-adv-x="684" vert-adv-y="1500" 
d="M690 333q0 -8 -11 -14q-10 3 -29 2q-20 -2 -56 -12q-48 -15 -81 -29l-14 -6q-3 -7 -31 -57q-30 -56 -63 -105q-39 -59 -68 -96q-30 -40 -70 -80q-38 -36 -64 -52q-18 -10 -30 -10q-13 0 -24 8q-23 16 -20 52t29 84q25 47 68 90q48 46 88 76q43 32 97 62q38 21 77 39
l20 40q18 40 34 86q11 36 13 54v3q0 12 -11 17q-4 2 -17 2q-16 0 -26 -2q-30 -5 -75 -25q-44 -19 -95 -50q-39 -25 -102 -68l-96 -68q-46 -33 -80 -46q-11 -5 -23 -5q-18 0 -24 17q-5 12 -5 25q0 19 9 43q14 40 49 97q32 52 74 100t85 83q46 38 94 60t92 30q19 4 39 4
q19 0 39 -5q34 -11 47 -35q10 -17 10 -41q0 -10 -1 -16q-4 -31 -11 -48q-3 -5 -14 -32q5 1 16 1q13 0 25 -3q23 -8 23 -33q1 -24 -16 -65q-12 -29 -39 -87q-8 -16 -13 -24q41 17 80 30q43 14 59 18q23 5 35 5v0q7 -7 7 -14zM502 548q4 11 12 41q2 8 2 20q0 16 -5 23
q-9 14 -36 25q-18 6 -39 6q-19 0 -30 -2q-42 -6 -88 -27q-48 -22 -92 -57q-46 -37 -83 -81q-35 -39 -73 -97q-34 -56 -46 -94q-9 -30 -9 -45q0 -7 1 -9q3 -8 13 -8q8 0 21 5q32 11 75 40q29 18 97 65q63 43 102 68q49 30 97 52q34 15 64 25q-1 6 0 18v0q13 19 17 32z
M478 265q-34 -16 -60 -31q-46 -24 -96 -61q-47 -36 -86 -75q-42 -40 -63 -87q-23 -46 -23 -76q-2 -30 10 -39q5 -5 12 -5q10 0 25 9q28 16 60 46q33 32 69 78q42 55 68 95q25 38 62 104v0zM511 779q3 -3 2 -5q-2 -3 -4 -13q-2 -4 -2 -7.5t-1 -5.5q0 -9 1 -14q-3 -5 -8 -5
q-3 0 -8 5v14l2 16l-2 -2l-14 -12l-10 -11l-6 -6q-7 0 -10 3t-2 10q2 1 3.5 2.5t3.5 2.5q6 6 12 9q4 5 14 13l11 10q3 3 6 3q4 0 8 -3v0z" />
    <glyph glyph-name="gcircumflex" unicode="&#x11d;" horiz-adv-x="256" vert-adv-y="1500" 
d="M262 334q0 -4 -6 -10q-9 -1 -25 -8q-13 -5 -37 -19l-37 -23q-5 -18 -10 -31.5t-8 -22.5q-9 -28 -24 -56q-10 -19 -32 -57l-36 -58l-36 -57l-34 -50q-15 -23 -30 -39q-19 -20 -26 -26q-10 -7 -25 -9h-3q-12 0 -18 11q-5 7 -7 27v8q0 14 4 29q7 24 16 45q15 31 29 55
q21 38 38 60q28 38 43 54q35 37 46 46q13 11 48 38l27 20q16 10 23 16l4 3q7 26 8 46v12q0 12 -2 24q-3 14 -11 19q-7 4 -18 4q-9 0 -25 -8l-13 -7v-5q0 -2 -1 -5t-1 -5q0 -7 -4 -7q-3 0 -3 -4q-5 -6 -7 -6q-5 0 -8 9q1 2 -1 5q-12 -9 -24 -21l-26 -26l-18 -20q-6 -4 -8 -4
q-4 0 -10 4q-11 9 -5 18q5 8 17 24l22 28q13 17 24 24q15 11 22 12h5q5 0 13 -2q5 -2 7 -5l12 6q20 11 32 12h5q12 0 23 -7q12 -8 17 -27q3 -12 3 -24q0 -5 -2 -19q-5 -25 -7 -34l25 16l38 22l26 13v0q11 -3 11 -8zM50.5 364.5q-2.5 -0.5 -7.5 -3.5q-12 -7 -23 -18l-16 -18
l22 18l28 23v0q-1 -1 -3.5 -1.5zM141 263l-17 -13l-25 -18q-9 -7 -48 -38q-21 -17 -45 -44q-21 -23 -42 -53q-26 -38 -37 -59q-19 -36 -26 -55q-11 -29 -13 -43q-3 -17 -1 -32q1 -8 4 -17q2 -5 7 -5q6 0 15 5q15 8 25 21q15 17 30 37l23 31q1 2 11 17l37 58l35 58
q17 32 20 38l10 19q15 29 24 54v0q5 13 13 39zM138 513q3 -3 2 -5q-2 -3 -4 -13q-2 -4 -2 -7.5t-1 -5.5q0 -9 1 -14q-3 -5 -8 -5q-3 0 -8 5v14l2 16l-2 -2l-14 -12l-10 -11l-6 -6q-7 0 -10 3t-2 10q2 1 3.5 2.5t3.5 2.5q6 6 12 9q4 5 14 13l11 10q3 3 6 3q4 0 8 -3v0z" />
    <glyph glyph-name="Gbreve" unicode="&#x11e;" horiz-adv-x="684" vert-adv-y="1500" 
d="M690 333q0 -8 -11 -14q-10 3 -29 2q-20 -2 -56 -12q-48 -15 -81 -29l-14 -6q-3 -7 -31 -57q-30 -56 -63 -105q-39 -59 -68 -96q-30 -40 -70 -80q-38 -36 -64 -52q-18 -10 -30 -10q-13 0 -24 8q-23 16 -20 52t29 84q25 47 68 90q48 46 88 76q43 32 97 62q38 21 77 39
l20 40q18 40 34 86q11 36 13 54v3q0 12 -11 17q-4 2 -17 2q-16 0 -26 -2q-30 -5 -75 -25q-44 -19 -95 -50q-39 -25 -102 -68l-96 -68q-46 -33 -80 -46q-11 -5 -23 -5q-18 0 -24 17q-5 12 -5 25q0 19 9 43q14 40 49 97q32 52 74 100t85 83q46 38 94 60t92 30q19 4 39 4
q19 0 39 -5q34 -11 47 -35q10 -17 10 -41q0 -10 -1 -16q-4 -31 -11 -48q-3 -5 -14 -32q5 1 16 1q13 0 25 -3q23 -8 23 -33q1 -24 -16 -65q-12 -29 -39 -87q-8 -16 -13 -24q41 17 80 30q43 14 59 18q23 5 35 5v0q7 -7 7 -14zM502 548q4 11 12 41q2 8 2 20q0 16 -5 23
q-9 14 -36 25q-18 6 -39 6q-19 0 -30 -2q-42 -6 -88 -27q-48 -22 -92 -57q-46 -37 -83 -81q-35 -39 -73 -97q-34 -56 -46 -94q-9 -30 -9 -45q0 -7 1 -9q3 -8 13 -8q8 0 21 5q32 11 75 40q29 18 97 65q63 43 102 68q49 30 97 52q34 15 64 25q-1 6 0 18v0q13 19 17 32z
M478 265q-34 -16 -60 -31q-46 -24 -96 -61q-47 -36 -86 -75q-42 -40 -63 -87q-23 -46 -23 -76q-2 -30 10 -39q5 -5 12 -5q10 0 25 9q28 16 60 46q33 32 69 78q42 55 68 95q25 38 62 104v0zM558 782q0 -3 -6 -13q-6 -7 -15 -15q-6 -6 -18 -11q-4 -1 -9 -3t-11 -3
q-14 -2 -20 -2q-8 1 -17 5q-8 4 -13 11q-6 8 -7 13q-2 10 -2 14q0 6 2 12q2 11 3 12q4 3 10 3q8 0 12 -10l-3 -10l-1 -7l1 -8q0 -4 3 -6q2 -5 5 -6q2 -2 9 -4q9 0 14 1q9 4 16 5q10 5 15 9q4 2 8 10q3 6 3 8q1 2 0 6q6 7 11 7t11 -8v0q1 -2 -1 -10z" />
    <glyph glyph-name="gbreve" unicode="&#x11f;" horiz-adv-x="256" vert-adv-y="1500" 
d="M262 334q0 -4 -6 -10q-9 -1 -25 -8q-13 -5 -37 -19l-37 -23q-5 -18 -10 -31.5t-8 -22.5q-9 -28 -24 -56q-10 -19 -32 -57l-36 -58l-36 -57l-34 -50q-15 -23 -30 -39q-19 -20 -26 -26q-10 -7 -25 -9h-3q-12 0 -18 11q-5 7 -7 27v8q0 14 4 29q7 24 16 45q15 31 29 55
q21 38 38 60q28 38 43 54q35 37 46 46q13 11 48 38l27 20q16 10 23 16l4 3q7 26 8 46v12q0 12 -2 24q-3 14 -11 19q-7 4 -18 4q-9 0 -25 -8l-13 -7v-5q0 -2 -1 -5t-1 -5q0 -7 -4 -7q-3 0 -3 -4q-5 -6 -7 -6q-5 0 -8 9q1 2 -1 5q-12 -9 -24 -21l-26 -26l-18 -20q-6 -4 -8 -4
q-4 0 -10 4q-11 9 -5 18q5 8 17 24l22 28q13 17 24 24q15 11 22 12h5q5 0 13 -2q5 -2 7 -5l12 6q20 11 32 12h5q12 0 23 -7q12 -8 17 -27q3 -12 3 -24q0 -5 -2 -19q-5 -25 -7 -34l25 16l38 22l26 13v0q11 -3 11 -8zM50.5 364.5q-2.5 -0.5 -7.5 -3.5q-12 -7 -23 -18l-16 -18
l22 18l28 23v0q-1 -1 -3.5 -1.5zM141 263l-17 -13l-25 -18q-9 -7 -48 -38q-21 -17 -45 -44q-21 -23 -42 -53q-26 -38 -37 -59q-19 -36 -26 -55q-11 -29 -13 -43q-3 -17 -1 -32q1 -8 4 -17q2 -5 7 -5q6 0 15 5q15 8 25 21q15 17 30 37l23 31q1 2 11 17l37 58l35 58
q17 32 20 38l10 19q15 29 24 54v0q5 13 13 39zM174 512q0 -3 -6 -13q-6 -7 -15 -15q-6 -6 -18 -11q-4 -1 -9 -3t-11 -3q-14 -2 -20 -2q-8 1 -17 5q-8 4 -13 11q-6 8 -7 13q-2 10 -2 14q0 6 2 12q2 11 3 12q5 3 10 3q8 0 12 -10l-3 -10l-1 -7l1 -8q0 -4 3 -6q2 -5 5 -6
q1 -1 9 -4q9 0 14 1q9 4 16 5q10 5 15 9q4 2 8 10q3 6 3 8q1 2 0 6q6 7 11 7t11 -8v0q1 -2 -1 -10z" />
    <glyph glyph-name="Gdotaccent" unicode="&#x120;" horiz-adv-x="684" vert-adv-y="1500" 
d="M690 333q0 -8 -11 -14q-10 3 -29 2q-20 -2 -56 -12q-48 -15 -81 -29l-14 -6q-3 -7 -31 -57q-30 -56 -63 -105q-39 -59 -68 -96q-30 -40 -70 -80q-38 -36 -64 -52q-18 -10 -30 -10q-13 0 -24 8q-23 16 -20 52t29 84q25 47 68 90q48 46 88 76q43 32 97 62q38 21 77 39
l20 40q18 40 34 86q11 36 13 54v3q0 12 -11 17q-4 2 -17 2q-16 0 -26 -2q-30 -5 -75 -25q-44 -19 -95 -50q-39 -25 -102 -68l-96 -68q-46 -33 -80 -46q-11 -5 -23 -5q-18 0 -24 17q-5 12 -5 25q0 19 9 43q14 40 49 97q32 52 74 100t85 83q46 38 94 60t92 30q19 4 39 4
q19 0 39 -5q34 -11 47 -35q10 -17 10 -41q0 -10 -1 -16q-4 -31 -11 -48q-3 -5 -14 -32q5 1 16 1q13 0 25 -3q23 -8 23 -33q1 -24 -16 -65q-12 -29 -39 -87q-8 -16 -13 -24q41 17 80 30q43 14 59 18q23 5 35 5v0q7 -7 7 -14zM502 548q4 11 12 41q2 8 2 20q0 16 -5 23
q-9 14 -36 25q-18 6 -39 6q-19 0 -30 -2q-42 -6 -88 -27q-48 -22 -92 -57q-46 -37 -83 -81q-35 -39 -73 -97q-34 -56 -46 -94q-9 -30 -9 -45q0 -7 1 -9q3 -8 13 -8q8 0 21 5q32 11 75 40q29 18 97 65q63 43 102 68q49 30 97 52q34 15 64 25q-1 6 0 18v0q13 19 17 32z
M478 265q-34 -16 -60 -31q-46 -24 -96 -61q-47 -36 -86 -75q-42 -40 -63 -87q-23 -46 -23 -76q-2 -30 10 -39q5 -5 12 -5q10 0 25 9q28 16 60 46q33 32 69 78q42 55 68 95q25 38 62 104v0zM488 759q0 -3 -1.5 -6t-1.5 -4q-2 -5 -7 -8q-4 -4 -7 -4q-6 -2 -10 -2h-2
q-6 0 -11 5t-5 10l3 9l2 2t2 1v4q1 2 4 2q0 2 5 7q8 2 12 2q7 0 11 -7v0q6 -4 6 -11z" />
    <glyph glyph-name="gdotaccent" unicode="&#x121;" horiz-adv-x="256" vert-adv-y="1500" 
d="M262 334q0 -4 -6 -10q-9 -1 -25 -8q-13 -5 -37 -19l-37 -23q-5 -18 -10 -31.5t-8 -22.5q-9 -28 -24 -56q-10 -19 -32 -57l-36 -58l-36 -57l-34 -50q-15 -23 -30 -39q-19 -20 -26 -26q-10 -7 -25 -9h-3q-12 0 -18 11q-5 7 -7 27v8q0 14 4 29q7 24 16 45q15 31 29 55
q21 38 38 60q28 38 43 54q35 37 46 46q13 11 48 38l27 20q16 10 23 16l4 3q7 26 8 46v12q0 12 -2 24q-3 14 -11 19q-7 4 -18 4q-9 0 -25 -8l-13 -7v-5q0 -2 -1 -5t-1 -5q0 -7 -4 -7q-3 0 -3 -4q-5 -6 -7 -6q-5 0 -8 9q1 2 -1 5q-12 -9 -24 -21l-26 -26l-18 -20q-6 -4 -8 -4
q-4 0 -10 4q-11 9 -5 18q5 8 17 24l22 28q13 17 24 24q15 11 22 12h5q5 0 13 -2q5 -2 7 -5l12 6q20 11 32 12h5q12 0 23 -7q12 -8 17 -27q3 -12 3 -24q0 -5 -2 -19q-5 -25 -7 -34l25 16l38 22l26 13v0q11 -3 11 -8zM50.5 364.5q-2.5 -0.5 -7.5 -3.5q-12 -7 -23 -18l-16 -18
l22 18l28 23v0q-1 -1 -3.5 -1.5zM141 263l-17 -13l-25 -18q-9 -7 -48 -38q-21 -17 -45 -44q-21 -23 -42 -53q-26 -38 -37 -59q-19 -36 -26 -55q-11 -29 -13 -43q-3 -17 -1 -32q1 -8 4 -17q2 -5 7 -5q6 0 15 5q15 8 25 21q15 17 30 37l23 31q1 2 11 17l37 58l35 58
q17 32 20 38l10 19q15 29 24 54v0q5 13 13 39zM133 476q0 -3 -1.5 -6t-1.5 -4q-3 -5 -7 -8q-4 -4 -7 -4q-6 -2 -10 -2h-2q-6 0 -11 5t-5 10l3 9l2 2t2 1v4q1 2 4 2q0 2 5 7q8 2 12 2q7 0 11 -7v0q6 -4 6 -11z" />
    <glyph glyph-name="uni0122" unicode="&#x122;" horiz-adv-x="684" vert-adv-y="1500" 
d="M690 333q0 -8 -11 -14q-10 3 -29 2q-20 -2 -56 -12q-48 -15 -81 -29l-14 -6q-3 -7 -31 -57q-30 -56 -63 -105q-39 -59 -68 -96q-30 -40 -70 -80q-38 -36 -64 -52q-18 -10 -30 -10q-13 0 -24 8q-23 16 -20 52t29 84q25 47 68 90q48 46 88 76q43 32 97 62q38 21 77 39
l20 40q18 40 34 86q11 36 13 54v3q0 12 -11 17q-4 2 -17 2q-16 0 -26 -2q-30 -5 -75 -25q-44 -19 -95 -50q-39 -25 -102 -68l-96 -68q-46 -33 -80 -46q-11 -5 -23 -5q-18 0 -24 17q-5 12 -5 25q0 19 9 43q14 40 49 97q32 52 74 100t85 83q46 38 94 60t92 30q19 4 39 4
q19 0 39 -5q34 -11 47 -35q10 -17 10 -41q0 -10 -1 -16q-4 -31 -11 -48q-3 -5 -14 -32q5 1 16 1q13 0 25 -3q23 -8 23 -33q1 -24 -16 -65q-12 -29 -39 -87q-8 -16 -13 -24q41 17 80 30q43 14 59 18q23 5 35 5v0q7 -7 7 -14zM502 548q4 11 12 41q2 8 2 20q0 16 -5 23
q-9 14 -36 25q-18 6 -39 6q-19 0 -30 -2q-42 -6 -88 -27q-48 -22 -92 -57q-46 -37 -83 -81q-35 -39 -73 -97q-34 -56 -46 -94q-9 -30 -9 -45q0 -7 1 -9q3 -8 13 -8q8 0 21 5q32 11 75 40q29 18 97 65q63 43 102 68q49 30 97 52q34 15 64 25q-1 6 0 18v0q13 19 17 32z
M478 265q-34 -16 -60 -31q-46 -24 -96 -61q-47 -36 -86 -75q-42 -40 -63 -87q-23 -46 -23 -76q-2 -30 10 -39q5 -5 12 -5q10 0 25 9q28 16 60 46q33 32 69 78q42 55 68 95q25 38 62 104v0zM194 -179q-2 -4 -7 -9l-10 -9q-11 0 -8 11l7 6v1q-2 4 -2 6q-1 3 -0.5 6t2.5 3
q1 4 7 4h5q8 -5 5 -10v0q4 -6 1 -9z" />
    <glyph glyph-name="uni0123" unicode="&#x123;" horiz-adv-x="256" vert-adv-y="1500" 
d="M262 334q0 -4 -6 -10q-9 -1 -25 -8q-13 -5 -37 -19l-37 -23q-5 -18 -10 -31.5t-8 -22.5q-9 -28 -24 -56q-10 -19 -32 -57l-36 -58l-36 -57l-34 -50q-15 -23 -30 -39q-19 -20 -26 -26q-10 -7 -25 -9h-3q-12 0 -18 11q-5 7 -7 27v8q0 14 4 29q7 24 16 45q15 31 29 55
q21 38 38 60q28 38 43 54q35 37 46 46q13 11 48 38l27 20q16 10 23 16l4 3q7 26 8 46v12q0 12 -2 24q-3 14 -11 19q-7 4 -18 4q-9 0 -25 -8l-13 -7v-5q0 -2 -1 -5t-1 -5q0 -7 -4 -7q-3 0 -3 -4q-5 -6 -7 -6q-5 0 -8 9q1 2 -1 5q-12 -9 -24 -21l-26 -26l-18 -20q-6 -4 -8 -4
q-4 0 -10 4q-11 9 -5 18q5 8 17 24l22 28q13 17 24 24q15 11 22 12h5q5 0 13 -2q5 -2 7 -5l12 6q20 11 32 12h5q12 0 23 -7q12 -8 17 -27q3 -12 3 -24q0 -5 -2 -19q-5 -25 -7 -34l25 16l38 22l26 13v0q11 -3 11 -8zM50.5 364.5q-2.5 -0.5 -7.5 -3.5q-12 -7 -23 -18l-16 -18
l22 18l28 23v0q-1 -1 -3.5 -1.5zM141 263l-17 -13l-25 -18q-9 -7 -48 -38q-21 -17 -45 -44q-21 -23 -42 -53q-26 -38 -37 -59q-19 -36 -26 -55q-11 -29 -13 -43q-3 -17 -1 -32q1 -8 4 -17q2 -5 7 -5q6 0 15 5q15 8 25 21q15 17 30 37l23 31q1 2 11 17l37 58l35 58
q17 32 20 38l10 19q15 29 24 54v0q5 13 13 39zM134 464q-2 -2 -4 -4.5t-6 -6.5l-12 -11q-13 1 -9 13q4 3 8 9l-4 7v4q0 7 3 8q4 3 9 3q2 1 7 1q11 -6 5 -13v0q5 -4 3 -10z" />
    <glyph glyph-name="Hcircumflex" unicode="&#x124;" horiz-adv-x="786" vert-adv-y="1500" 
d="M715 553q-3 -7 -5.5 -12.5t-4.5 -9.5l-8 -18t-7 -18q13 1 36 1q37 0 55 -20q12 -13 12 -30q0 -4 -2 -14q-10 -12 -16 -12q-7 0 -8 16q2 12 2 15q0 8 -4 16q-6 10 -42 13q-23 2 -40 1l-9 -21q-18 -42 -23 -64q-12 -15 -18 -15q-9 0 -9 27q2 4 9 23t20 38l5 10q-7 0 -21 -2
q-30 -62 -50 -108q-34 -77 -54 -136q-16 -48 -34 -106q-15 -48 -23 -79q-9 -17 -13 -17t-3 22q14 47 25 78q23 67 37 105q28 78 55 137l13 29q18 42 34 73q-49 -6 -118 -23q-65 -15 -125 -36q-4 -10 -8 -32q-4 -21 -11 -35q-3 -4 0 -8v-2q0 -13 -9 -13q-5 0 -13 5
q-4 3 -4 17q-27 -63 -41 -103q0 -2 -19 -54q-23 -66 -28 -83l-14 -41q-2 -9 -2 -15.5t-1 -10.5q0 -20 -13 -20q-3 0 -4 1q-3 -3 -6 -3q-4 0 -8 3q-7 5 -7 13q0 6 5 14q7 13 18 48q9 28 12 59t-15 50q-17 18 -42 26q-21 7 -58 5t-54 5q-13 5 -13 13q0 7 7 14q20 23 58 43
q55 29 109 53q67 31 136 54l2 3q32 74 67 141l39 71q16 30 24 43q2 3 3.5 6.5t4.5 7.5q27 52 33 62q8 12 16 7q1 1 3 1q5 0 8 -5q4 -5 4 -11t-4 -10q-12 -13 -42 -55q-28 -39 -55 -83l-29 -60q-11 -22 -29 -68l-8 -19q-6 -14 -8 -21q54 18 118 34q58 15 127 26q4 8 7.5 15.5
t6.5 13.5l26 52q12 28 37 75q34 63 51 85l35 47q7 11 15 11q6 0 10 -8t4 -15q0 -11 -9 -26q-9 -14 -31 -54l-13 -24v0q-30 -54 -54 -108zM350 405q-67 -25 -124 -52q-70 -34 -103 -58q-40 -29 -46 -36q-4 -4 -5 -6.5t1 -0.5q7 2 39 5q6 1 17 1q27 0 48 -7q29 -9 51 -34
q23 -26 19 -60l-2 -23q11 33 41 115v0q29 75 64 156zM699 561q27 58 56 107q20 35 37 68l-18 -19q-17 -19 -53 -80q-28 -45 -67 -124q-3 -7 -5.5 -12.5t-4.5 -9.5q14 2 21 2v0zM694 869q3 -3 2 -5q-2 -3 -4 -13q-2 -4 -2 -7.5t-1 -5.5q0 -9 1 -14q-3 -5 -8 -5q-3 0 -8 5v14
l2 16l-2 -2l-14 -12l-10 -11l-6 -6q-7 0 -10 3t-2 10q2 1 3.5 2.5t3.5 2.5q6 6 12 9q4 5 14 13l11 10q3 3 6 3q4 0 8 -3v0z" />
    <glyph glyph-name="hcircumflex" unicode="&#x125;" horiz-adv-x="194" vert-adv-y="1500" 
d="M310 768q0 -5 -1 -8q-3 -10 -16 -34q-9 -16 -24 -40q-22 -31 -30 -41l-26 -35l-17 -22l-55 -75l-54 -75l-38 -54q-7 -10 -12 -17.5l-9 -13.5q-4 -5 -6.5 -9.5t-5.5 -7.5t-6 -9l-9 -3l-30 -54l-12 -22l18 20q13 15 41 41q27 25 40 33q22 14 34 16l6 1q9 0 19 -10
q9 -10 9 -26q0 -20 1 -28q2 -13 7 -21v-2q0 -9 -7 -9q-3 0 -9 3q-7 14 -8 26l-3 28q-2 14 -4 18q-3 4 -11 4t-27 -11q-10 -6 -39 -31q-7 -6 -40 -39q-13 -13 -39 -47q-21 -28 -30 -46q-5 -10 -12 -17l-2 -3q-9 -14 -12 -2q-3 2 0 6q0 14 11 26l27 33q31 52 36 62l29 54
q-3 3 -3 13q4 4 7 10q4 6 14 16l11 12l57 101q9 16 18 30l33 56l17 26l27 42l26 36l15 21l35 48l28 37q7 10 15 10q3 0 8 -3v0q8 -5 8 -14zM271 714q7 12 10 18q7 11 11 26q-11 -7 -30 -29q-26 -30 -37 -46l-41 -56l-12 -18q-19 -26 -33 -49l-52 -86l-39 -66q4 5 11.5 14
t18.5 23q9 13 29 39l26 34l56 75q15 20 41 59l28 41v0q6 9 13 21zM345 863q3 -3 2 -5q-2 -3 -4 -13q-2 -4 -2 -7.5t-1 -5.5q0 -9 1 -14q-3 -5 -8 -5q-3 0 -8 5v14l2 16l-2 -2l-14 -12l-10 -11l-6 -6q-7 0 -10 3t-2 10q2 1 3.5 2.5t3.5 2.5q6 6 12 9q4 5 14 13l11 10q3 3 6 3
t8 -3v0z" />
    <glyph glyph-name="Hbar" unicode="&#x126;" horiz-adv-x="370" 
d="M49 298v59h45v-59h183v59h45v-59h48v-37h-48v-261h-45v167h-183v-167h-45v261h-49v37h49zM277 206v55h-183v-55h183z" />
    <glyph glyph-name="hbar" unicode="&#x127;" horiz-adv-x="309" 
d="M225 0v162q0 32 -14.5 48t-45.5 16q-41 0 -60 -22.5t-19 -74.5v-129h-44v302h-38v33h38v45h44v-45h106v-33h-106v-43q0 -21 -2 -38h3q13 21 35.5 31.5t48.5 10.5q49 0 73.5 -23.5t24.5 -74.5v-165h-44z" />
    </font>
</defs>
</svg>
