<?xml version="1.0" standalone="no"?>
<!DOCTYPE svg PUBLIC "-//W3C//DTD SVG 1.1//EN" "http://www.w3.org/Graphics/SVG/1.1/DTD/svg11.dtd" >
<svg xmlns="http://www.w3.org/2000/svg" xmlns:xlink="http://www.w3.org/1999/xlink" version="1.1">
<metadata>
Created by FontForge 20190801 at Mon Feb  8 13:56:21 2021
 By root
(c) PeachCreme - All Rights Reserved.
</metadata>
<defs>
<font id="TheStyledEditStLigRegular" horiz-adv-x="410" >
  <font-face 
    font-family="The Styled EditStLig"
    font-weight="400"
    font-stretch="normal"
    units-per-em="1000"
    panose-1="0 0 0 0 0 0 0 0 0 0"
    ascent="800"
    descent="-200"
    x-height="151"
    cap-height="619"
    bbox="-259 -944 1177 1046"
    underline-thickness="50"
    underline-position="-100"
    unicode-range="U+0001-206F"
  />
<missing-glyph horiz-adv-x="364" 
d="M33 0v666h265v-666h-265zM66 33h199v600h-199v-600z" />
    <glyph glyph-name=".notdef" horiz-adv-x="364" 
d="M33 0v666h265v-666h-265zM66 33h199v600h-199v-600z" />
    <glyph glyph-name="uni0000" 
 />
    <glyph glyph-name="uni0000" 
 />
    <glyph glyph-name="uni000D" unicode="&#xd;" 
 />
    <glyph glyph-name="uni0001" 
 />
    <glyph glyph-name="uni0002" 
 />
    <glyph glyph-name="uni0003" 
 />
    <glyph glyph-name="uni0004" 
 />
    <glyph glyph-name="uni0005" 
 />
    <glyph glyph-name="uni0006" 
 />
    <glyph glyph-name="uni0007" 
 />
    <glyph glyph-name="uni0008" 
 />
    <glyph glyph-name="uni0009" unicode="&#x9;" 
 />
    <glyph glyph-name="uni000A" unicode="&#xa;" 
 />
    <glyph glyph-name="uni000B" 
 />
    <glyph glyph-name="uni000C" 
 />
    <glyph glyph-name="uni000E" 
 />
    <glyph glyph-name="uni000F" 
 />
    <glyph glyph-name="uni0010" 
 />
    <glyph glyph-name="uni0011" 
 />
    <glyph glyph-name="uni0012" 
 />
    <glyph glyph-name="uni0013" 
 />
    <glyph glyph-name="uni0014" 
 />
    <glyph glyph-name="uni0015" 
 />
    <glyph glyph-name="uni0016" 
 />
    <glyph glyph-name="uni0017" 
 />
    <glyph glyph-name="uni0018" 
 />
    <glyph glyph-name="uni0019" 
 />
    <glyph glyph-name="uni001A" 
 />
    <glyph glyph-name="uni001B" 
 />
    <glyph glyph-name="uni001C" 
 />
    <glyph glyph-name="uni001D" 
 />
    <glyph glyph-name="uni001E" 
 />
    <glyph glyph-name="uni001F" 
 />
    <glyph glyph-name="space" unicode=" " 
 />
    <glyph glyph-name="exclam" unicode="!" horiz-adv-x="214" 
d="M153 538l-8 -69q-3 -27 -11 -81q-1 -10 -5 -30q-2 -9 -8 -13q-5 -3 -5 -9l-3 -22l-6 -71q-4 -46 -7 -70l-6 -64l-3 -26l-2 -6q-2 -5 -8 -5q-2 0 -5 3t-3 5v13q2 11 4 33q3 18 7 61l5 46l6 68l6 73q4 44 7 66q3 44 13 82q2 10 4.5 17.5t4.5 12.5q1 3 5 7q3 3 7 3
q3 0 6.5 -2t3.5 -5zM88 12q4 -6 1 -11q-5 -8 -13 -10l-3 -1q-6 0 -9 5q-5 5 -2 12q2 4 4 5l13 3q6 0 9 -3z" />
    <glyph glyph-name="quotedbl" unicode="&#x22;" horiz-adv-x="213" 
d="M151 362q0 -25 -1 -38l-1 -11q-1 -3 -4 -5t-6 -2q-3 1 -5 3t-3 5v8l1 64q0 9 -2 25q0 2 -1 3.5t-2 1.5l-4 -3l-15 -21q-7 -10 -13 -15q-6 -3 -11 -3q-6 0 -8 2q-14 10 -15 23v7q0 12 3 22l6 16q3 6 9 6q4 0 7 -3t3 -7v-8q-2 -14 -2 -20t2 -8q0 -1 2 0.5t4 3.5l7 9
q8 14 13 20l6 7q3 3 8 3q8 0 12 -6l4 -7q5 -15 5 -26l2 -46h-1z" />
    <glyph glyph-name="numbersign" unicode="#" horiz-adv-x="513" 
d="M452 183q0 -8 -4 -9l-5 -4l-24 -12q-6 -2 -7 -2q-4 0 -10 6l-1 2q-3 3 -8 3q-14 0 -42 -4q-5 -2 -6 -5l-2 -7l-6 -37q-1 -12 -1 -17t1 -6q4 -2 7 -2q4 0 7.5 1t7.5 1q24 2 37 2l11 -1q2 -1 4 -3.5t2 -5.5q0 -6 -6 -9l-10 -3l-24 -1q-7 -1 -20 -1q-3 0 -11.5 -1.5
t-10.5 -7t-3 -15.5q-5 -41 -17 -121q0 -6 -2 -9q-1 -2 -5 -6q-1 -2 -4.5 -1.5t-5.5 2.5q-1 1 -4 7v3l1 8q12 86 19 129v1q0 6 -7 6h-2q-25 -2 -77 -8q-3 0 -6 -5l-4 -31l-6 -53q-4 -36 -7 -55v-3q0 -6 5 -10q7 -5 5 -16q-1 -2 -2.5 -6.5t-3.5 -7.5l-6 -7q-3 -3 -7 -3
q-8 0 -11 8q-2 4 -2 11q0 8 1.5 21.5l2.5 22.5q3 16 7 48l9 68q2 5 0 11q0 3 -2 3h-8q-14 0 -31.5 -3t-22.5 -4q-22 -3 -45 -3q-6 0 -18 2q-6 0 -9 6q-2 1 -2 6t3 8q4 4 8 4l41 9h1q6 0 8 -4q4 -9 17 -7q38 6 57 8q8 2 8 7q6 36 8 55q1 1 -1.5 3t-4.5 2q-2 -1 -6 -1
q-21 -4 -71 -19q-8 -2 -8 -11q0 -8 -10 -10q-22 -2 -39 6q-1 0 -5 4q-2 2 -2 5q0 7 6 10q8 4 12 5l20 6q70 20 106 27l4 1q4 4 4 5q4 11 5 19l10 43l4 11q2 5 9 5q3 0 6 -2.5t3 -5.5l-2 -18q-4 -26 -7 -39v-7l3 -3q2 0 4 -0.5t5 0.5l63 9q9 1 10 10q8 38 11 56l5 23
q2 10 4.5 23t4.5 30l3 9q4 4 9 4q4 0 7 -2t3 -6v-3q0 -5 -2 -15q-3 -16 -14 -67l-9 -45q-1 -2 -1 -7q0 -2 2 -3.5t4 -1.5l50 6q20 2 29 2q6 0 9 -1q5 -2 7 -7v-3zM324 152v0q0 7 -8 7h-5v0l-63 -10q-9 -1 -10 -10l-8 -45l-1 -11q0 -1 1 -2t2 -1q2 -1 6 -1q12 0 27 2t21 3
l22 3q6 1 7 8l3 17q4 26 5 39z" />
    <glyph glyph-name="dollar" unicode="$" horiz-adv-x="386" 
d="M325 296q0 -7 -3 -13t-4 -7l-17 -18q-1 -2 -5 -4q-2 -1 -6 -1q-5 0 -8 3q-3 2 -3 6.5t2 7.5l12 13l9 12l1 3q0 2 -1.5 4t-3.5 2q-8 2 -11 2q-9 0 -21 -5q-3 0 -5 -4l-3 -6q-16 -46 -26 -80v-3q0 -5 4 -9l19 -18q12 -12 22 -27q14 -22 14 -45q0 -8 -1 -12q-9 -65 -64 -99
q-16 -10 -32 -14q-3 -1 -11 -3.5t-9.5 -8.5t-3.5 -15q-9 -35 -11 -47q-3 -10 -7 -30q-1 -8 -6 -12q-2 -5 -9 -5q-4 0 -7.5 3t-3.5 7q0 2 2 8l18 73q2 10 2 15q1 1 -0.5 2.5t-3.5 1.5l-11 -2q-21 -3 -49 -1q-9 0 -16 4q-5 3 -6 7q-2 5 0 8q0 4 2 6q9 11 25 22q2 1 5 1h1
q5 0 8 -4q5 -5 1 -10l-6 -9l-1 -2l3 -3q25 0 49 3q6 1 7 7q6 20 8 30q18 80 39 159q2 6 2 9q0 2 -2 6q1 -1 -14 11q-10 8 -14 13q-7 8 -7 17q0 6 3 12q3 7 11 17q18 20 42 33l19 10l3 6l10 26q12 28 16 42q2 5 5 8q1 1 2.5 2t3.5 1q7 0 10 -8l1 -4l-2 -24q-2 -9 -7 -14
q-8 -8 -11 -21q-1 -1 0 -3t3 -2q16 0 24 -2q10 -4 14 -7q10 -7 10 -21zM209 223h2q5 12 11.5 30t7.5 26l-2 4h-2q-20 -12 -31 -28q-2 -1 -3.5 -4l-2.5 -5q-2 -5 1 -8q8 -11 19 -15zM229 181q-3 0 -4 -1l-3 -8l-30 -124l-9 -36q-2 -5 1 -9h2q70 22 84 96q2 10 2 14
q0 11 -4 19q-10 25 -39 49z" />
    <glyph glyph-name="percent" unicode="%" horiz-adv-x="395" 
d="M140 228q0 7 1 10q12 30 16 39q8 18 30 24q3 1 8 1t11 -2q7 -3 10.5 -9.5t2.5 -13.5q-9 -31 -24 -50l-11 -11q-10 -7 -21 -7q-13 2 -17 7q-6 6 -6 12zM167 228q6 0 12 8v2v2l-8 2q-6 0 -8 -9q0 -5 4 -5zM399 381q-6 -16 -15 -29q-3 -7 -10 -7q-9 0 -15 -8
q-34 -38 -62 -77q-100 -133 -176 -260l-75 -126l-19 -34q-9 -16 -10 -27q-1 -14 -12 -28q-4 -4 -10 -4q-4 -1 -7.5 2t-2.5 7q0 7 2 11q6 16 10 24l25 47q100 170 166 266q74 109 125 174l45 54l13 15q6 7 13 13q4 2 6 2q6 0 9 -6q2 -4 0 -9zM254 50.5q-1 -2.5 -1 -5.5l2 -8
q3 -6 1 -13q-6 -22 -13 -32q-4 -7 -12 -10q-1 -1 -6 -1q-10 0 -13 7q-2 4 -3 7.5t-2 6.5l3 11q8 22 23 45l5 5q2 2 6 2t6 -2q5 -3 5 -7q0 -3 -1 -5.5z" />
    <glyph glyph-name="ampersand" unicode="&#x26;" horiz-adv-x="482" 
d="M293 -62q1 -5 5 -11q6 -6 11 -14q2 -2 1.5 -6t-2.5 -6q-3 -3 -9 -3t-10 5.5t-6 7.5q-4 2 -6 -1l-4 -5l-10 -17q-38 -57 -49 -71q-26 -32 -28 -34q-15 -15 -30 -23q-14 -8 -29 -8q-18 0 -34 14q-12 14 -16 22q-9 18 -14 44q-2 24 -2 37q0 29 4 53q7 40 27 100
q20 57 53 131l8 18q3 7 1 13q-6 50 -6 100v33q5 97 21 159q10 41 23 69q10 22 17 31q7 10 13 15q10 8 19 8q14 0 23 -14q4 -6 7 -16q8 -21 9 -43l1 -22q0 -47 -12 -94q-14 -51 -36 -104l-43 -100l-6 -14q-6 -10 -6 -23q0 -9 1 -13q21 -108 94 -195l3 -3q2 -2 4 0t9 13
q23 39 83 150l13 23q9 14 17 21q1 1 7 4q5 3 10 -2q4 -6 2 -11q-2 -4 -4 -5q-12 -12 -26 -38l-71 -128l-21 -36zM226 -131.5q26 39.5 40 65.5q-2 2 -3.5 4.5t-3.5 5.5q-6 8 -13.5 18.5l-17.5 24.5q-29 41 -48 91q-4 10 -8 25t-7 24l-3 6h-2h-1q-2 -2 -4 -6q-27 -60 -44 -108
q-17 -52 -24 -83t-7 -67q0 -14 1 -21q2 -24 10 -45q4 -10 14 -22q12 -10 22 -10q6 0 13 3q10 4 22 14q18 18 21 22q17 19 43 58.5zM171 222q5 0 7 5q32 74 47 112q24 64 31 108q5 30 5 55q0 22 -4 39q-2 13 -6 23q-1 4 -5 10q-1 2 -4.5 2.5t-5.5 -1.5l-7 -6q-8 -12 -11 -19
q-7 -12 -18 -42q-25 -77 -30 -169q-2 -32 -2 -49t2 -53q0 -10 1 -15z" />
    <glyph glyph-name="quotesingle" unicode="'" horiz-adv-x="162" 
d="M101 193q-6 -22 -16 -40q-4 -9 -10 -13q-4 -2 -7 -2q-4 0 -6 3q-2 6 -1 8l2 3q8 7 16 25l3.5 7t2.5 10q-2 1 -7 -2l-4 -1q-5 0 -9 6q-4 8 -2 12q1 4 5 10q3 5 9 5h4q2 0 6.5 -1t6.5 -4t4 -8q0 -3 2 -7q3 -6 1 -11z" />
    <glyph glyph-name="parenleft" unicode="(" horiz-adv-x="245" 
d="M177 685q-7 -3 -10 -11q-12 -23 -24 -62q-17 -59 -30 -126q-7 -36 -17 -103q-2 -15 -4 -41q-1 -13 -3 -32.5t-3 -44.5q-4 -56 -4 -82l-1 -55q0 -54 9 -108q3 -24 16 -43l3 -8q1 -1 1 -3q0 -4 -3 -6.5t-7 -2.5q-6 0 -9 5q-12 15 -19 40q-4 19 -8 57q-1 14 -2 34t-1 47
q0 89 6 148l5 62q3 38 11 83q10 68 29 145q14 50 23 74q9 26 21 48q2 2 3.5 5t4.5 6t8 3q3 0 6 -2t4 -5l2 -7q0 -11 -7 -15z" />
    <glyph glyph-name="parenright" unicode=")" horiz-adv-x="245" 
d="M184 534q0 -74 -6 -149q-4 -39 -5 -61q-1 -17 -11 -83q-15 -89 -30 -145q-10 -43 -22 -74q-9 -27 -22 -49l-8 -10q-3 -3 -7 -3q-8 0 -11 7q-1 3 -1 7q0 11 7 15q7 3 10 11q12 23 23 61q14 44 31 127q9 45 16 102q4 28 5 42l6 77q0 10 2 32q2 34 2 50v73q0 42 -8 90
q-6 28 -16 43q-2 2 -4 8v3q0 3 3 6t7 3q7 -2 9 -5q13 -18 18 -40q6 -24 8 -57q4 -54 4 -81z" />
    <glyph glyph-name="asterisk" unicode="*" horiz-adv-x="237" 
d="M176 53q0 -8 -9 -8q0 1 -0.5 0.5t-0.5 0.5q-16 5 -44 7q5 -22 8 -44v-2q0 -7 -8 -7t-8 8q-1 5 -2 14.5t-3 20.5l-9 -8q-6 -6 -8 -10q-3 -3 -6 -3q-5 0 -8 4t0 8l1 1l11 10q6 4 10 9h-32q-7 0 -7 8t7 8l35 -2q-1 3 -5.5 15.5t-4.5 20.5t5 9h3q5 0 7 -5q3 -7 6 -18t5 -21
l27 22l4 2q5 0 7.5 -5t-1.5 -9l-20 -15q11 0 20 -1.5t13 -1.5q7 -1 7 -8z" />
    <glyph glyph-name="plus" unicode="+" horiz-adv-x="321" 
d="M258.5 153q2.5 -5 1.5 -10q-1 0 -1 -2q-6 -11 -19 -14v0q-3 0 -5.5 1.5t-3.5 3.5q-2 4 -2 6q-1 6 -8 6q-4 0 -11 -0.5t-16 -2.5q-13 -2 -41 -8q-6 -2 -6 -8q-1 -7 -1 -20v-2q0 -9 7 -13q7 -3 5 -11l-11 -31q-1 -6 -9 -6q-6 0 -8 6q-3 5 -3 11l1 44l1 11v4q0 5 -2 7t-7 2
q-16 0 -46 -2q-2 0 -6 2q-7 2 -7 9q0 3 2.5 6.5t5.5 3.5l11 1h33q5 0 7 5q6 32 6 34l5 36q0 2 2 6q1 2 3 4t5 2t5.5 -2t3.5 -4q1 -3 1 -8q0 -12 -2 -28q-1 -12 -1 -34q0 -3 2.5 -5t5.5 -1q1 1 4 1l50 10l15 1q10 0 26 -4q5 -2 7.5 -7z" />
    <glyph glyph-name="comma" unicode="," horiz-adv-x="162" 
d="M101 22q-6 -22 -16 -40q-4 -9 -10 -13q-4 -2 -7 -2q-4 -1 -6 3t-1 7q1 1 1 2t1 1q9 8 16 26l3.5 7t2.5 10q-2 1 -7 -2l-4 -1q-5 0 -9 6q-5 7 -2 12l5 10q3 5 9 5h4q2 0 6.5 -1t6.5 -4t4 -9q0 -1 2 -7q3 -4 1 -10z" />
    <glyph glyph-name="hyphen" unicode="-" horiz-adv-x="356" 
d="M295 124q0 -3 -4 -9q-7 -5 -12 0q-3 3 -3 4q-2 5 -12 9l-6 1q-49 5 -84 4q-12 -1 -41 -5q-8 -1 -31 -5q-4 -1 -12 -2t-13 -4l-4 -1q-5 0 -10 5q-2 2 -2 6q0 7 5 9q4 2 6 2l15 2l62 8q11 2 35 2q19 0 28 -1q16 0 44 -2q14 0 26 -6q9 -5 12 -12q1 -2 1 -5z" />
    <glyph glyph-name="period" unicode="." horiz-adv-x="156" 
d="M94.5 31q-1.5 -2 -3.5 -3q-6 -3 -16 -3t-13 11v1l-1 6q0 7 8 11l8 4q1 1 4 1q6 0 8 -6q1 -3 2 -7.5t4 -10.5q1 -2 -0.5 -4z" />
    <glyph glyph-name="slash" unicode="/" horiz-adv-x="514" 
d="M72 0h-2q-4 0 -6.5 2.5t-2.5 6.5q0 3 1 5q0 1 0.5 2.5t2.5 3.5q30 52 54 128q32 99 41 128q52 168 137 374q59 140 100 228l27 56l10 14q3 4 9 4q5 0 8 -3.5t3 -8.5l-1 -7q-16 -58 -29 -86l-11 -22q-5 -8 -15 -5q-5 1 -8 -3l-5 -10q-88 -198 -143 -344
q-25 -64 -48 -135.5t-27 -84.5q-9 -30 -44 -134q-4 -10 -8.5 -21.5t-8.5 -24.5q-5 -10 -5 -14q0 -8 -7 -19l-15 -24q-4 -6 -7 -6z" />
    <glyph glyph-name="zero" unicode="0" horiz-adv-x="229" 
d="M148.5 324q-2.5 -8 -3.5 -12q2 -6 5 -13q18 -48 18 -98q0 -56 -18 -117q-9 -28 -20 -43q-6 -9 -15 -12q-2 -2 -7 -2q-9 0 -16 7q-9 10 -14 23q-9 21 -14 50q-3 26 -3 50q0 21 1 31q6 79 28 148q12 34 21 50t15 20t8 4q6 0 10 -5t6 -13q1 -7 1 -21v-1l-1 -11l1 -20
q0 -7 -2.5 -15zM78 157q0 -22 2 -33l3 -24q3 -20 12 -38q3 -6 7 -10q5 -5 9 -1q5 3 8 9q7 10 14 32q15 47 16 92q1 6 1 20q0 66 -35 122q0 2 -2 2q-3 0 -4 -1l-3 -7q-19 -56 -27 -132q-1 -11 -1 -31z" />
    <glyph glyph-name="one" unicode="1" horiz-adv-x="227" 
d="M106 206h-1h-1q-6 -6 -10 -19q-1 -1 0 -4t1 -4q2 -6 -1 -9l-17 -17q-5 -5 -10 -2q-6 3 -6 10q0 4 2 10q2 5 8 15q20 36 48 112q6 16 9.5 36t4.5 26q2 17 8 41q2 8 6 15q0 2 4 4q2 2 6 1.5t6 -2.5q3 -4 3 -10q0 -14 -5 -31q-5 -24 -15 -53q-7 -25 -12 -51q-3 -20 -8 -50
t-10 -70q-3 -17 -7 -56l-3 -32q-6 -44 -8 -66l-2 -6q-2 -7 -9 -7q-2 0 -5 3t-3 5l2 20l12 89q8 50 11 74q1 4 2 9t1 12l-1 8q2 2 2 3v0.5v0.5q-2 -1 -2 -5z" />
    <glyph glyph-name="two" unicode="2" horiz-adv-x="335" 
d="M231 7q-28 3 -64 -6q-18 -4 -71 -17q-7 -2 -19 -4q-2 -1 -3.5 -0.5t-3.5 0.5q-4 1 -6.5 4t-2.5 7q0 6 3 12q6 12 10 18l12 22l37 62q35 56 72 122l31 53q15 25 23 48q6 15 6 31l-1 10q-2 10 -5 14q-6 11 -18 11q-10 0 -15 -4q-10 -6 -15 -10q-19 -15 -35 -39l-8 -14
q-3 -7 -3 -14q0 -6 3 -14l7 -14v-2q0 -6 -5 -9q-3 -1 -6.5 -1t-5.5 2l-2 2q-12 15 -12 34q0 8 3 18l8 16q19 33 52 56q14 9 24 11q4 1 10 1q18 0 30 -15q8 -8 10 -23q2 -12 2 -16q0 -10 -4 -28q-5 -19 -17 -41t-19 -33l-18 -31q-81 -136 -93 -155q-11 -18 -19.5 -32.5
t-15.5 -26.5q-1 -2 -2 -4.5t-2 -5.5q0 -1 0.5 -1.5t1.5 -0.5q6 0 9 1q58 16 68 18q33 7 57 7q27 0 40 -1l9 -1q2 -1 4 -3.5t2 -5.5t-2 -5t-4 -3q-4 -1 -11 -1z" />
    <glyph glyph-name="three" unicode="3" horiz-adv-x="303" 
d="M184.5 284q-2.5 -5 -2.5 -9q1 -4 7 -4q22 -6 37 -30q8 -15 11 -29q5 -25 5 -45q0 -9 -2 -27q-2 -23 -7 -42q-13 -42 -40 -67q-33 -32 -82 -32q-17 0 -35 5q-3 0 -5 1l-4 2q-6 5 -6 11t4 10l2 1l22 14q2 1 5 1h1q7 0 8 -4q3 -3 1 -8l-6 -9q-1 -1 1 -4q12 -2 17 -2
q41 0 68 29q20 22 27 45q12 35 12 71q0 16 -1 24q-2 20 -7 35q-7 17 -18 25q-1 1 -7 4q-6 2 -9 2q-7 0 -12 -5l-13 -12q-2 -2 -6 -2q-3 0 -6 3t-3 5q0 5 6 11q23 38 35 71q10 27 14 49q2 15 0 22q0 4 -2 8t-6 4q-3 0 -10 -5q-11 -11 -16 -18q-13 -16 -27 -40q-4 -6 -4 -10
t2 -8q1 -1 1 -4q0 -5 -5 -8q-2 -2 -8 -4h-3q-5 0 -9 4t-4 10t1 8l7 14q16 28 35 52q10 13 18 19q7 6 17 9h6q7 0 13 -3.5t9 -10.5q4 -7 4 -17v-5q0 -24 -7 -46.5t-20 -51.5z" />
    <glyph glyph-name="four" unicode="4" horiz-adv-x="307" 
d="M129 210l-39 -2h-3q-8 0 -17 3q-6 2 -8.5 8t1.5 12q3 6 4 7l13 16q35 44 56 97q3 10 1 17q-2 3 0 11l10 22q1 3 5 5t7 2q4 0 7.5 -4t3.5 -9q0 -7 -4 -21q-25 -71 -61 -117l-17 -23q-2 -2 0 -4q0 -1 2 -1q34 0 77 5q2 0 5 1t5 1q10 2 13 14l27 95q4 16 7 24q3 6 4 7
q3 4 8 4q3 0 6 -2t3 -5q1 -2 1 -7l-5 -30q-5 -40 -13 -72q-2 -5 -1 -8l1 -4q0 -3 -4 -11q-12 -14 -17 -17q-7 -4 -9 -14q-11 -42 -14 -56q-7 -26 -25 -103q-6 -22 -5 -35q0 -3 -2.5 -5.5t-5.5 -3.5h-1q-8 0 -10 7q-2 6 -2 10q0 5 2 13q17 75 39 154l3 13v2q0 5 -6 5l-42 -1
v0z" />
    <glyph glyph-name="five" unicode="5" horiz-adv-x="469" 
d="M241 391q8 0 16.5 2.5t12.5 3.5q19 3 43 8t36 7l21 5q12 3 26 3q7 -1 10.5 -7t1.5 -13q-4 -10 -16 -15q-1 -1 -4 -1q-6 0 -9 5q-1 1 -1.5 2.5t-2.5 2.5q0 2 -3 2q-2 1 -3 0.5t-2 -0.5l-82 -16l-20 -4q-12 -2 -17 -11q-1 -4 -7 -4q-4 0 -6.5 1t-4.5 2q-3 2 -5 -2l-10 -18
l-20 -36l-5 -10q3 -3 7.5 -4t5.5 -1q43 -10 60 -53q8 -19 8 -42q0 -25 -10 -46q-12 -26 -41 -51.5t-59 -32.5q-16 -4 -34 -4q-22 0 -36 6q-9 3 -18 9l-8 7q-4 5 -4 12q0 5 3 11l1 2q12 14 32 22q7 3 10 -2q3 -2 3.5 -6t-1.5 -6l-7 -6l-16 -10q-4 -2 -3.5 -5.5t4.5 -5.5
q20 -12 43 -12q32 0 63 21q19 13 40 37q21 27 21 59q0 33 -19 56q-15 19 -39 22h-5q-14 0 -23 -10l-8 -10q-2 -2 -8 -4h-2q-3 0 -5.5 2.5t-2.5 6.5l2 6q1 3 5 7q11 11 24 35q32 57 42 85l6 9q2 3 6.5 3t6.5 -3q2 -2 4 -6z" />
    <glyph glyph-name="six" unicode="6" horiz-adv-x="310" 
d="M64 85q-1 12 -2 16q2 9 3 18t2 17l3 15q1 1 1 4q0 4 -4 7l-2 2q-4 3 -4 9t6 12l8 4q9 4 12 15l22 57q13 32 31 62q14 24 31 42q9 11 25 22q6 5 18 7l5 1q10 0 18 -8q13 -13 13 -27q0 -3 -2 -11t-4 -12q-1 -4 -6 -9q-4 -4 -9 -4q-7 0 -12 7q-4 9 -3 18q2 8 8 9l4 2
q3 2 3 5q0 6 -5 9t-10 1q-8 -4 -11 -7q-14 -9 -28 -28q-15 -18 -26 -40q-21 -36 -43 -97q-3 -7 4 -9q4 -2 6 -2l14 -7q33 -18 33 -56q0 -21 -6 -34q-12 -35 -50 -46q-10 -2 -20 2t-16 13t-7 21zM145 127v2q0 13 -7 26q-1 4 -6 7q-2 2 -4 0t-3 -2q-6 -3 -11 -3h-15
q-7 0 -10 -7q-6 -20 -8 -49q-1 -1 -1 -4q0 -8 4 -20q4 -14 20 -11l3 1q27 11 34 37q4 16 4 23z" />
    <glyph glyph-name="seven" unicode="7" horiz-adv-x="349" 
d="M134 -48q0 -6 2 -10l9 -3q4 -1 5.5 -5t0.5 -8q-5 -12 -15 -15h-4q-5 0 -9 3t-5 7q-3 6 -3 15q-2 23 3 46q10 61 26 107l19 57l1 2q0 6 -8 4l-34 -8q-3 -1 -18.5 -4.5t-27.5 -12.5h-2q-6 -2 -10 2q-3 3 -3 7q0 9 7 12q6 4 16 7q14 5 33.5 9.5t27.5 6.5l24 6q4 0 7 5l5 15
q25 73 55 135l3 6q0 1 -1 3t-2 2q-21 4 -39 24q-1 1 -3 3.5t-6 1.5l-6 -19l-14 -48q-2 -7 -7.5 -21t-6.5 -26q0 -3 -3.5 -5t-6.5 -2t-6 2t-4 6l-1 7q0 5 2 10.5t3 7.5q16 41 32 101q1 8 5 17q2 6 4 10q3 6 9 6q3 1 6 -1.5t4 -5.5l2 -8q4 -22 27 -37q8 -7 18 -2q6 3 13 3
q3 0 6 -2.5t3 -5.5q0 -5 -1 -7l-4 -10l-12 -23q-27 -53 -53 -127q-1 -2 -1 -6q0 -1 1 -2t2 -1q24 2 39.5 5t30.5 11l6 2l3 1q6 0 9 -5q2 -4 2 -5q0 -5 -4 -9l-8 -4q-16 -9 -36 -12l-32 -5q-12 -2 -20 -4q-4 0 -6 -5l-12 -34q-24 -75 -30 -117q-5 -20 -6 -40q-1 -3 -1 -10z
" />
    <glyph glyph-name="eight" unicode="8" horiz-adv-x="273" 
d="M138.5 261.5q3.5 5.5 4.5 10.5l-12 42q-3 12 -3 25q0 17 11 30t27 16q1 1 3 1q7 0 12.5 -4t7.5 -10v-2v-2q0 -9 -6 -11q-2 -1 -5 -1q-4 0 -7 3l-2 2q-4 3 -7 0q-14 -9 -14 -24q0 -21 8 -36q0 -1 1.5 -1.5t1.5 0.5q2 1 4 5l20 37l8 13l7 5q5 3 9 0q2 -1 3.5 -3.5t1.5 -4.5
q0 -3 -1 -5l-2 -4l-39 -67q-3 -6 -3 -12t1 -9q6 -20 16 -60q6 -24 6 -50q0 -31 -21 -57q-24 -29 -59 -36q-3 -1 -10 -1q-10 0 -18 4q-17 7 -20 27q-1 3 -1 10q0 26 14 61q7 17 25 49q6 10 15 22.5t19 29.5q1 2 4.5 7.5zM150 240q-13 -17 -28 -40t-22 -38q-4 -10 -7.5 -18.5
t-6.5 -16.5t-4.5 -18t-2.5 -14v-4q0 -8 4 -13.5t11 -7.5q7 -1 14 0q34 7 54 38q10 16 10 34q0 19 -1 28q-3 21 -17 66q0 2 -4 4z" />
    <glyph glyph-name="nine" unicode="9" horiz-adv-x="255" 
d="M171 371q4 4 6.5 7.5t5.5 6.5q1 1 6 1q4 -2 4 -5q1 -1 1 -4q0 -6 -4 -20q-11 -36 -19 -79q-4 -21 -17 -85l-1 -6l-21 -127l-7 -43q-1 -5 -2 -11t-2 -11v-5q0 -8 5 -13q6 -6 -1 -12q-3 -3 -7 -3q-6 0 -9 6q-2 8 -2 12q0 11 2 23t3 17l7 42l21 108q0 3 2 11l18 102
q1 8 5 24q-2 1 -3.5 0.5t-1.5 -2.5l-14 -22q-12 -18 -28 -34q-10 -10 -20 -14q-6 -3 -11 -3q-11 0 -19 13q-7 13 -7 28q0 17 4 30q11 39 37 72q10 13 25 22q8 7 18 8h3q5 0 10.5 -3t7.5 -9q1 -2 4 -10zM152 329q0 2 1 3l-1 2l-4 2q-5 1 -6.5 6t0.5 8q2 5 4 10.5t4 10.5
q1 3 1 11q0 5 -6 5t-11 -5q-9 -5 -23 -21q-25 -33 -34 -71q-1 -5 -1 -13q0 -6 2 -18l4 -7q5 -5 8 -3l10 6q12 10 22 24q15 19 28 45q2 3 2 5z" />
    <glyph glyph-name="colon" unicode=":" horiz-adv-x="160" 
d="M99 176q-1 -2 -3 -3q-6 -3 -15 -3q-4 0 -7 3t-4 7l-0.5 0.5l-0.5 0.5v5q0 6 7 10l7 3q1 1 3 1q6 0 8 -5q2 -11 5 -16q1 -1 0 -3zM91 40q1 -2 0 -4t-3 -3q-8 -2 -15 -2q-4 0 -7 2.5t-4 6.5l-1 2v5q0 6 7 10l7 3q1 1 3 1q7 0 8 -6q2 -10 5 -15z" />
    <glyph glyph-name="semicolon" unicode=";" horiz-adv-x="167" 
d="M90 27q1 -3 1 -8q-5 -17 -12 -30q-3 -6 -8 -10q-1 -1 -5 -1q-2 0 -4 2q-1 2 -1 6l2 2q5 5 11 19q1 2 3 5.5t2 6.5q-2 1 -6 -1q-3 -1 -5.5 0t-3.5 4q-4 4 -2 9l4 7q3 4 7 4h3q1 0 4.5 -0.5t5 -3t2.5 -6.5zM106 172q-1 -2 -3 -3q-6 -3 -14 -3q-9 0 -12 10v1q-1 2 -1 5
q0 6 7 10l7 3q1 1 3 1q6 0 8 -5q2 -11 5 -16q1 -1 0 -3z" />
    <glyph glyph-name="less" unicode="&#x3c;" horiz-adv-x="360" 
d="M298.5 195.5q0.5 -4.5 -1.5 -7.5t-6 -4t-7 1q-17 12 -42 20q-7 3 -17 5.5t-15 3.5l-113 27q-5 1 -20 5l-11 7q-4 3 -5 8.5t1 9.5l9 13q17 17 21 20l56 43l51 38q26 20 36 33l10 11q3 2 7 1.5t6 -2.5q2 -3 3 -6.5t0 -5.5l-6 -9l-21 -20l-57 -42l-64 -47q-9 -7 -27 -23
q-1 -1 -3 -3.5t-2 -5.5q3 -5 13 -7l73 -18l43 -10q30 -6 67 -20l13 -5l5 -4q3 -2 3.5 -6.5z" />
    <glyph glyph-name="equal" unicode="=" horiz-adv-x="328" 
d="M105 164l-8 -3l-4 -3l-2 -8q-2 -5 -6.5 -6.5t-8.5 -0.5l-11 6q-4 3 -4 9t4 9l11 7q42 18 80 26l67 12l11 1q10 0 17 -4q6 -3 9.5 -8.5t3.5 -10.5q0 -7 -5 -14q-9 -12 -27 -20q-1 -1 -4 -1q-8 0 -11 6q-2 4 2 10q1 2 3 3.5t3 2.5q8 6 12 10q2 0 0 2l-0.5 0.5l-0.5 0.5
q-2 1 -7 1q-10 0 -22.5 -2t-18.5 -3q-45 -6 -83 -22zM265.5 126q2.5 -3 2.5 -7q0 -5 -4 -7q-2 -2 -8 -4q-4 -1 -11 -1l-81 -5q-4 0 -7.5 -1t-8.5 -1q-14 -2 -21 -2q-8 0 -11 1q-3 0 -10 5q-3 7 -1 11q2 6 7 8t10 0q10 -4 20 -3q8 0 13 1l70 7l35 1q3 0 5.5 -3z" />
    <glyph glyph-name="greater" unicode="&#x3e;" horiz-adv-x="345" 
d="M284 339q0 -6 -4 -11l-14 -14l-22 -15l-98 -63l-47 -33q-16 -11 -23 -21q-1 -3 -8 -3q-2 0 -4.5 2.5t-2.5 4.5v3q0 6 3 10l8 7q21 16 23 17q35 23 80 51l71 45q15 11 19 16q1 1 1 3.5t-2 3.5l-16 8l-64 24q-36 13 -58 23l-16 6l-26 12q-3 2 -5 5q-3 2 -3 5q0 8 9 10h4
l16.5 -5.5t23.5 -12.5q10 -6 15 -8l43 -18q10 -4 31.5 -12t36.5 -15q14 -5 22 -11q7 -4 7 -14z" />
    <glyph glyph-name="question" unicode="?" horiz-adv-x="312" 
d="M251 555q0 -6 -2 -18q-4 -19 -14 -45l-21 -48l-27 -53q-39 -83 -66 -162l-9 -34q-1 -4 -2 -10t-1 -9v-3q0 -8 8 -12q2 0 5 -3t3 -6t-2.5 -5.5t-5.5 -3.5h-3q-7 0 -13.5 5t-8.5 12q-2 8 -2 14q0 9 4 27q6 24 27 78q22 58 53 119q24 48 35 73q15 34 22 62q3 11 3 19l-1 10
q-2 7 -9 7q-6 0 -11 -3q-6 -2 -16 -8q-48 -34 -80 -78q-16 -24 -21 -37q-14 -28 -14 -57q0 -12 -1 -18q-1 -5 -7 -7h-2q-4 0 -8 4q-2 4 -2 6q-1 5 -1 12q0 34 16 68q13 29 36 55q31 38 68 63l20 12q4 3 10 4.5t9 2.5h5q17 0 23 -17q1 -2 1.5 -5t1.5 -5v-6zM103 63.5
q5 0.5 8 -2.5q6 -6 6 -13q0 -8 -8 -10q-1 -1 -3 -1q-3 0 -9 4q-4 6 -4 9q0 5 3 9q2 4 7 4.5z" />
    <glyph glyph-name="at" unicode="@" horiz-adv-x="540" 
d="M471 171q-3 -8 -6.5 -16.5t-7.5 -18.5q-24 -50 -60 -98q-22 -29 -47 -49q-13 -11 -28 -19q-11 -5 -20 -8q-4 -1 -11 -1q-22 0 -34 18q-2 3 -9 20q-1 4 -3 13.5t-2 17.5v20l-2 1h-1h-1l-9 -9q-19 -19 -35 -30q-14 -11 -30 -14q-2 -1 -6 -1q-9 0 -17 6q-7 4 -9 15l-1 9
q0 8 3 15q3 8 4 10q16 38 47 69q17 17 35 22q6 3 13 3h1q15 0 23 -13q3 -6 3 -8q2 -2 7 -6q7 -4 7 -10t-1 -10t-2 -7q-6 -18 -9 -38q-1 -6 -1 -18q0 -15 5 -35q1 -3 6 -14q2 -4 7 -6.5t9 -2.5q13 0 28 11q16 10 25 18q19 17 34 37q38 47 64 103q15 35 18 57q2 12 2 18
q0 28 -14.5 51.5t-41.5 36.5q-28 12 -58 12q-43 0 -84 -18q-81 -35 -132 -104q-42 -57 -49 -124q-2 -22 -2 -32q0 -42 14 -77q13 -35 38 -59q38 -35 86 -35q16 0 24 2q31 5 59 18q27 11 48.5 21.5t37.5 17.5l14 6l7 2h1q3 0 8 -5q1 -3 0.5 -6.5t-2.5 -4.5l-3 -3l-10 -5
l-91 -39q-21 -10 -46 -16q-28 -6 -44 -6q-52 0 -95 35q-34 29 -49 72q-15 37 -15 83q0 91 48 159q58 85 152 121q42 16 82 16q37 0 66 -14q26 -12 44 -33q26 -32 26 -74q0 -23 -8 -49zM244 95q-5 12 -4 20l-1 7q0 2 -2 3t-3 0q-8 -2 -12 -4q-10 -4 -21 -15q-24 -23 -43 -61
q-1 -2 -6 -17v-7q0 -1 1.5 -2.5t2.5 -1.5h3q4 0 8 2q12 5 26 17q31 25 51 59z" />
    <glyph glyph-name="A" unicode="A" horiz-adv-x="526" 
d="M251 328q-5 -8 -11 -26q-33 -84 -97 -252q-34 -86 -53 -128q-29 -58 -33 -65q-14 -25 -26 -39q-9 -11 -20 -16q-5 -3 -13 -3q-13 0 -20 12q-5 6 -8 16q-3 9 -5 30q-2 48 4 90q18 155 80 332q25 70 58 129q21 37 40 61q16 24 39 42q14 14 31 20q13 5 23 5q20 0 37 -16
l9 -9q1 -2 5 -4q3 4 4.5 10t2.5 9q1 4 5 12q3 4 9 4q4 0 7 -3t3 -6q0 -4 -1.5 -9.5t-2.5 -9.5l-10 -32q-3 -10 -2 -19v-5q2 -8 2 -25q0 -33 -10 -73q-3 -11 -14 -11q-6 0 -8 -7l-9 -57q-6 -42 -8 -68q-7 -53 -7 -114q0 -52 2 -78q3 -59 17 -109q5 -20 17 -45q10 -16 17 -23
l13 -12q9 -6 19 -6q6 0 13 3q12 5 20 12q14 12 24 27q6 9 13 19t15 23q18 32 26 48q32 62 57 118q5 11 8.5 19.5t6.5 14.5l5 10q1 4 5 5.5t8 -0.5q3 -1 4.5 -4.5t0.5 -6.5q-5 -15 -6 -17l-21 -48l-51 -103q-21 -40 -43 -72q-14 -21 -30 -39q-19 -16 -26 -20q-12 -7 -22 -8
l-7 -1q-14 0 -27 8q-16 11 -23 21q-10 11 -21 33q-15 33 -21 68q-9 46 -10 79q-3 35 -3 71q0 60 6 120q4 36 14 108q2 7 -1 10zM-15 -93l-1 -21q0 -22 3 -44q1 -4 5 -17q2 -4 6 -5t7 2q8 6 11 10q12 16 17 24q17 27 30 57q32 70 48 113q144 374 164 427q2 3 4 13q3 7 0 13
q-4 12 -16 26q-12 10 -24 10q-6 0 -13 -3q-9 -3 -19 -11q-14 -10 -29 -27q-23 -26 -45 -63q-34 -57 -61 -130q-62 -167 -83 -329q-2 -15 -4 -45z" />
    <glyph glyph-name="A" unicode="&#xc5;" horiz-adv-x="526" 
d="M251 328q-5 -8 -11 -26q-33 -84 -97 -252q-34 -86 -53 -128q-29 -58 -33 -65q-14 -25 -26 -39q-9 -11 -20 -16q-5 -3 -13 -3q-13 0 -20 12q-5 6 -8 16q-3 9 -5 30q-2 48 4 90q18 155 80 332q25 70 58 129q21 37 40 61q16 24 39 42q14 14 31 20q13 5 23 5q20 0 37 -16
l9 -9q1 -2 5 -4q3 4 4.5 10t2.5 9q1 4 5 12q3 4 9 4q4 0 7 -3t3 -6q0 -4 -1.5 -9.5t-2.5 -9.5l-10 -32q-3 -10 -2 -19v-5q2 -8 2 -25q0 -33 -10 -73q-3 -11 -14 -11q-6 0 -8 -7l-9 -57q-6 -42 -8 -68q-7 -53 -7 -114q0 -52 2 -78q3 -59 17 -109q5 -20 17 -45q10 -16 17 -23
l13 -12q9 -6 19 -6q6 0 13 3q12 5 20 12q14 12 24 27q6 9 13 19t15 23q18 32 26 48q32 62 57 118q5 11 8.5 19.5t6.5 14.5l5 10q1 4 5 5.5t8 -0.5q3 -1 4.5 -4.5t0.5 -6.5q-5 -15 -6 -17l-21 -48l-51 -103q-21 -40 -43 -72q-14 -21 -30 -39q-19 -16 -26 -20q-12 -7 -22 -8
l-7 -1q-14 0 -27 8q-16 11 -23 21q-10 11 -21 33q-15 33 -21 68q-9 46 -10 79q-3 35 -3 71q0 60 6 120q4 36 14 108q2 7 -1 10zM-15 -93l-1 -21q0 -22 3 -44q1 -4 5 -17q2 -4 6 -5t7 2q8 6 11 10q12 16 17 24q17 27 30 57q32 70 48 113q144 374 164 427q2 3 4 13q3 7 0 13
q-4 12 -16 26q-12 10 -24 10q-6 0 -13 -3q-9 -3 -19 -11q-14 -10 -29 -27q-23 -26 -45 -63q-34 -57 -61 -130q-62 -167 -83 -329q-2 -15 -4 -45z" />
    <glyph glyph-name="A" unicode="&#xc4;" horiz-adv-x="526" 
d="M251 328q-5 -8 -11 -26q-33 -84 -97 -252q-34 -86 -53 -128q-29 -58 -33 -65q-14 -25 -26 -39q-9 -11 -20 -16q-5 -3 -13 -3q-13 0 -20 12q-5 6 -8 16q-3 9 -5 30q-2 48 4 90q18 155 80 332q25 70 58 129q21 37 40 61q16 24 39 42q14 14 31 20q13 5 23 5q20 0 37 -16
l9 -9q1 -2 5 -4q3 4 4.5 10t2.5 9q1 4 5 12q3 4 9 4q4 0 7 -3t3 -6q0 -4 -1.5 -9.5t-2.5 -9.5l-10 -32q-3 -10 -2 -19v-5q2 -8 2 -25q0 -33 -10 -73q-3 -11 -14 -11q-6 0 -8 -7l-9 -57q-6 -42 -8 -68q-7 -53 -7 -114q0 -52 2 -78q3 -59 17 -109q5 -20 17 -45q10 -16 17 -23
l13 -12q9 -6 19 -6q6 0 13 3q12 5 20 12q14 12 24 27q6 9 13 19t15 23q18 32 26 48q32 62 57 118q5 11 8.5 19.5t6.5 14.5l5 10q1 4 5 5.5t8 -0.5q3 -1 4.5 -4.5t0.5 -6.5q-5 -15 -6 -17l-21 -48l-51 -103q-21 -40 -43 -72q-14 -21 -30 -39q-19 -16 -26 -20q-12 -7 -22 -8
l-7 -1q-14 0 -27 8q-16 11 -23 21q-10 11 -21 33q-15 33 -21 68q-9 46 -10 79q-3 35 -3 71q0 60 6 120q4 36 14 108q2 7 -1 10zM-15 -93l-1 -21q0 -22 3 -44q1 -4 5 -17q2 -4 6 -5t7 2q8 6 11 10q12 16 17 24q17 27 30 57q32 70 48 113q144 374 164 427q2 3 4 13q3 7 0 13
q-4 12 -16 26q-12 10 -24 10q-6 0 -13 -3q-9 -3 -19 -11q-14 -10 -29 -27q-23 -26 -45 -63q-34 -57 -61 -130q-62 -167 -83 -329q-2 -15 -4 -45z" />
    <glyph glyph-name="A" unicode="&#xc3;" horiz-adv-x="526" 
d="M251 328q-5 -8 -11 -26q-33 -84 -97 -252q-34 -86 -53 -128q-29 -58 -33 -65q-14 -25 -26 -39q-9 -11 -20 -16q-5 -3 -13 -3q-13 0 -20 12q-5 6 -8 16q-3 9 -5 30q-2 48 4 90q18 155 80 332q25 70 58 129q21 37 40 61q16 24 39 42q14 14 31 20q13 5 23 5q20 0 37 -16
l9 -9q1 -2 5 -4q3 4 4.5 10t2.5 9q1 4 5 12q3 4 9 4q4 0 7 -3t3 -6q0 -4 -1.5 -9.5t-2.5 -9.5l-10 -32q-3 -10 -2 -19v-5q2 -8 2 -25q0 -33 -10 -73q-3 -11 -14 -11q-6 0 -8 -7l-9 -57q-6 -42 -8 -68q-7 -53 -7 -114q0 -52 2 -78q3 -59 17 -109q5 -20 17 -45q10 -16 17 -23
l13 -12q9 -6 19 -6q6 0 13 3q12 5 20 12q14 12 24 27q6 9 13 19t15 23q18 32 26 48q32 62 57 118q5 11 8.5 19.5t6.5 14.5l5 10q1 4 5 5.5t8 -0.5q3 -1 4.5 -4.5t0.5 -6.5q-5 -15 -6 -17l-21 -48l-51 -103q-21 -40 -43 -72q-14 -21 -30 -39q-19 -16 -26 -20q-12 -7 -22 -8
l-7 -1q-14 0 -27 8q-16 11 -23 21q-10 11 -21 33q-15 33 -21 68q-9 46 -10 79q-3 35 -3 71q0 60 6 120q4 36 14 108q2 7 -1 10zM-15 -93l-1 -21q0 -22 3 -44q1 -4 5 -17q2 -4 6 -5t7 2q8 6 11 10q12 16 17 24q17 27 30 57q32 70 48 113q144 374 164 427q2 3 4 13q3 7 0 13
q-4 12 -16 26q-12 10 -24 10q-6 0 -13 -3q-9 -3 -19 -11q-14 -10 -29 -27q-23 -26 -45 -63q-34 -57 -61 -130q-62 -167 -83 -329q-2 -15 -4 -45z" />
    <glyph glyph-name="A" unicode="&#xc2;" horiz-adv-x="526" 
d="M251 328q-5 -8 -11 -26q-33 -84 -97 -252q-34 -86 -53 -128q-29 -58 -33 -65q-14 -25 -26 -39q-9 -11 -20 -16q-5 -3 -13 -3q-13 0 -20 12q-5 6 -8 16q-3 9 -5 30q-2 48 4 90q18 155 80 332q25 70 58 129q21 37 40 61q16 24 39 42q14 14 31 20q13 5 23 5q20 0 37 -16
l9 -9q1 -2 5 -4q3 4 4.5 10t2.5 9q1 4 5 12q3 4 9 4q4 0 7 -3t3 -6q0 -4 -1.5 -9.5t-2.5 -9.5l-10 -32q-3 -10 -2 -19v-5q2 -8 2 -25q0 -33 -10 -73q-3 -11 -14 -11q-6 0 -8 -7l-9 -57q-6 -42 -8 -68q-7 -53 -7 -114q0 -52 2 -78q3 -59 17 -109q5 -20 17 -45q10 -16 17 -23
l13 -12q9 -6 19 -6q6 0 13 3q12 5 20 12q14 12 24 27q6 9 13 19t15 23q18 32 26 48q32 62 57 118q5 11 8.5 19.5t6.5 14.5l5 10q1 4 5 5.5t8 -0.5q3 -1 4.5 -4.5t0.5 -6.5q-5 -15 -6 -17l-21 -48l-51 -103q-21 -40 -43 -72q-14 -21 -30 -39q-19 -16 -26 -20q-12 -7 -22 -8
l-7 -1q-14 0 -27 8q-16 11 -23 21q-10 11 -21 33q-15 33 -21 68q-9 46 -10 79q-3 35 -3 71q0 60 6 120q4 36 14 108q2 7 -1 10zM-15 -93l-1 -21q0 -22 3 -44q1 -4 5 -17q2 -4 6 -5t7 2q8 6 11 10q12 16 17 24q17 27 30 57q32 70 48 113q144 374 164 427q2 3 4 13q3 7 0 13
q-4 12 -16 26q-12 10 -24 10q-6 0 -13 -3q-9 -3 -19 -11q-14 -10 -29 -27q-23 -26 -45 -63q-34 -57 -61 -130q-62 -167 -83 -329q-2 -15 -4 -45z" />
    <glyph glyph-name="A" unicode="&#xc1;" horiz-adv-x="526" 
d="M251 328q-5 -8 -11 -26q-33 -84 -97 -252q-34 -86 -53 -128q-29 -58 -33 -65q-14 -25 -26 -39q-9 -11 -20 -16q-5 -3 -13 -3q-13 0 -20 12q-5 6 -8 16q-3 9 -5 30q-2 48 4 90q18 155 80 332q25 70 58 129q21 37 40 61q16 24 39 42q14 14 31 20q13 5 23 5q20 0 37 -16
l9 -9q1 -2 5 -4q3 4 4.5 10t2.5 9q1 4 5 12q3 4 9 4q4 0 7 -3t3 -6q0 -4 -1.5 -9.5t-2.5 -9.5l-10 -32q-3 -10 -2 -19v-5q2 -8 2 -25q0 -33 -10 -73q-3 -11 -14 -11q-6 0 -8 -7l-9 -57q-6 -42 -8 -68q-7 -53 -7 -114q0 -52 2 -78q3 -59 17 -109q5 -20 17 -45q10 -16 17 -23
l13 -12q9 -6 19 -6q6 0 13 3q12 5 20 12q14 12 24 27q6 9 13 19t15 23q18 32 26 48q32 62 57 118q5 11 8.5 19.5t6.5 14.5l5 10q1 4 5 5.5t8 -0.5q3 -1 4.5 -4.5t0.5 -6.5q-5 -15 -6 -17l-21 -48l-51 -103q-21 -40 -43 -72q-14 -21 -30 -39q-19 -16 -26 -20q-12 -7 -22 -8
l-7 -1q-14 0 -27 8q-16 11 -23 21q-10 11 -21 33q-15 33 -21 68q-9 46 -10 79q-3 35 -3 71q0 60 6 120q4 36 14 108q2 7 -1 10zM-15 -93l-1 -21q0 -22 3 -44q1 -4 5 -17q2 -4 6 -5t7 2q8 6 11 10q12 16 17 24q17 27 30 57q32 70 48 113q144 374 164 427q2 3 4 13q3 7 0 13
q-4 12 -16 26q-12 10 -24 10q-6 0 -13 -3q-9 -3 -19 -11q-14 -10 -29 -27q-23 -26 -45 -63q-34 -57 -61 -130q-62 -167 -83 -329q-2 -15 -4 -45z" />
    <glyph glyph-name="A" unicode="&#xc0;" horiz-adv-x="526" 
d="M251 328q-5 -8 -11 -26q-33 -84 -97 -252q-34 -86 -53 -128q-29 -58 -33 -65q-14 -25 -26 -39q-9 -11 -20 -16q-5 -3 -13 -3q-13 0 -20 12q-5 6 -8 16q-3 9 -5 30q-2 48 4 90q18 155 80 332q25 70 58 129q21 37 40 61q16 24 39 42q14 14 31 20q13 5 23 5q20 0 37 -16
l9 -9q1 -2 5 -4q3 4 4.5 10t2.5 9q1 4 5 12q3 4 9 4q4 0 7 -3t3 -6q0 -4 -1.5 -9.5t-2.5 -9.5l-10 -32q-3 -10 -2 -19v-5q2 -8 2 -25q0 -33 -10 -73q-3 -11 -14 -11q-6 0 -8 -7l-9 -57q-6 -42 -8 -68q-7 -53 -7 -114q0 -52 2 -78q3 -59 17 -109q5 -20 17 -45q10 -16 17 -23
l13 -12q9 -6 19 -6q6 0 13 3q12 5 20 12q14 12 24 27q6 9 13 19t15 23q18 32 26 48q32 62 57 118q5 11 8.5 19.5t6.5 14.5l5 10q1 4 5 5.5t8 -0.5q3 -1 4.5 -4.5t0.5 -6.5q-5 -15 -6 -17l-21 -48l-51 -103q-21 -40 -43 -72q-14 -21 -30 -39q-19 -16 -26 -20q-12 -7 -22 -8
l-7 -1q-14 0 -27 8q-16 11 -23 21q-10 11 -21 33q-15 33 -21 68q-9 46 -10 79q-3 35 -3 71q0 60 6 120q4 36 14 108q2 7 -1 10zM-15 -93l-1 -21q0 -22 3 -44q1 -4 5 -17q2 -4 6 -5t7 2q8 6 11 10q12 16 17 24q17 27 30 57q32 70 48 113q144 374 164 427q2 3 4 13q3 7 0 13
q-4 12 -16 26q-12 10 -24 10q-6 0 -13 -3q-9 -3 -19 -11q-14 -10 -29 -27q-23 -26 -45 -63q-34 -57 -61 -130q-62 -167 -83 -329q-2 -15 -4 -45z" />
    <glyph glyph-name="B" unicode="B" horiz-adv-x="387" 
d="M34.5 330.5q-0.5 1.5 -0.5 2.5q4 0 4 2q6 18 10 27l23 62q10 24 23 45q6 12 20 26q8 7 17 11q6 3 13 3q11 0 22 -9q6 -6 11 -16q7 -19 8 -32v-16q0 -19 -2 -29q-7 -52 -26 -107q-9 -26 -22.5 -59t-18.5 -46q-11 -30 -13 -35l2 -4h1.5t0.5 1l16 11q19 13 22 15q4 3 18 8
q8 3 16 3q14 0 30 -11q12 -8 25 -30q12 -24 17 -57l5 -35q0 -5 2 -5q5 0 6 3q12 12 38 34q13 10 33 22q25 11 49 11l9 -2q5 -2 5 -9q0 -3 -2 -5.5t-4 -2.5q-3 -1 -9 -1q-29 -1 -57 -21l-19 -15q-21 -18 -46 -44q-4 -4 -6 -12q-4 -40 -8 -59q-26 -144 -109 -254
q-18 -23 -34 -38q-13 -13 -34 -27q-16 -10 -32 -14q-10 -2 -15 -2q-18 0 -27 9t-10 22v3q0 10 3 21q5 19 17 43q16 30 43 72q70 100 119 159q12 16 38 46l17 20l8 9q3 5 3 10q3 47 -9 85q-5 18 -13 30q-4 8 -12 16q-10 9 -22 9q-7 0 -13 -3q-11 -6 -23 -14l-21 -16l-17 -10
q-3 -2 -9 -2v0q-5 0 -9.5 4t-5.5 9l-1 5q0 4 2 10l13 37l32 80q21 58 31 100q8 42 7 76q-2 15 -5 22l-2 6q-6 9 -13 9t-11 -4q-8 -6 -17 -18q-8 -11 -20 -37q-14 -31 -24 -61q-26 -73 -54 -178q-5 -18 -9 -54l-12 -94q-3 -22 -10 -77l-13 -92q-6 -44 -10 -66l-5 -17
q0 -1 -4 -5q-3 -3 -7 -3q-7 0 -10 5l-4 10q-1 5 -1 16q-1 10 -1 31q0 42 4 74q4 36 12.5 77.5t17.5 81.5l20 75q7 24 13 78l8 61q1 17 5 44l10 95l12 94q6 62 10 88q10 80 17 116l6 23q1 4 5 10q4 5 11 5q8 0 11 -6q3 -4 5 -12q1 -2 1 -6q0 -7 -11 -13q-1 0 -5 -2l-4 -12
l-9 -64q-6 -34 -13 -94l-6 -53l-6 -57q-4 -26 -5 -39l-7 -62v-2l1 -11q-3 -1 -3 -5l1 -3l1 3q1 2 0.5 3.5zM6 -345q0 -6 3.5 -10t8.5 -5h4q19 0 41 15q25 17 48 45q22 28 35 49q54 86 78 196q2 7 3.5 17.5t2.5 16.5q0 3 -2 7q-5 -2 -5 -3l-15 -16q-73 -89 -140 -188
q-23 -34 -39 -62q-12 -24 -17 -37q-5 -14 -6 -25zM-38 -57v-1v1v0z" />
    <glyph glyph-name="C" unicode="C" horiz-adv-x="360" 
d="M61 4q0 56 9 139q9 85 28 159q18 76 43 139q24 53 44 84q19 32 43 53q12 12 30 22q18 9 36 9t36 -10q13 -9 23 -20q17 -19 26 -46q13 -41 13 -75l-1 -19q-2 -28 -6 -41q-3 -10 -8 -23q-4 -6 -7 -9q-5 -5 -10 -5q-7 0 -12 8q-3 5 -5 17l-1 2q0 5 3.5 8t9.5 4h5l3 3l3 6
q5 27 5 48q0 32 -9 63q-9 30 -28 50q-15 15 -32 18q-3 1 -9 1q-20 0 -38 -15q-16 -11 -32 -30q-17 -21 -37 -55q-24 -47 -43 -102q-20 -56 -36 -136q-12 -58 -17 -105q-10 -82 -10 -149v-32q2 -52 13 -98q7 -24 12 -33q4 -9 12 -19q5 -6 12 -9q6 -2 9 -2q12 0 25 11
q10 7 19 16q24 24 41 48q58 79 94 155l32 70l3 6q3 6 9 6q4 0 7 -3.5t3 -7.5v-6l-3 -6q-43 -95 -84 -160q-34 -52 -54 -76q-15 -20 -31 -37q-14 -14 -31 -25q-9 -6 -20 -9l-10 -1q-15 0 -28 10q-6 4 -14 16q-9 13 -16 32q-8 23 -13 54q-5 33 -5 61z" />
    <glyph glyph-name="C" unicode="&#xc7;" horiz-adv-x="360" 
d="M61 4q0 56 9 139q9 85 28 159q18 76 43 139q24 53 44 84q19 32 43 53q12 12 30 22q18 9 36 9t36 -10q13 -9 23 -20q17 -19 26 -46q13 -41 13 -75l-1 -19q-2 -28 -6 -41q-3 -10 -8 -23q-4 -6 -7 -9q-5 -5 -10 -5q-7 0 -12 8q-3 5 -5 17l-1 2q0 5 3.5 8t9.5 4h5l3 3l3 6
q5 27 5 48q0 32 -9 63q-9 30 -28 50q-15 15 -32 18q-3 1 -9 1q-20 0 -38 -15q-16 -11 -32 -30q-17 -21 -37 -55q-24 -47 -43 -102q-20 -56 -36 -136q-12 -58 -17 -105q-10 -82 -10 -149v-32q2 -52 13 -98q7 -24 12 -33q4 -9 12 -19q5 -6 12 -9q6 -2 9 -2q12 0 25 11
q10 7 19 16q24 24 41 48q58 79 94 155l32 70l3 6q3 6 9 6q4 0 7 -3.5t3 -7.5v-6l-3 -6q-43 -95 -84 -160q-34 -52 -54 -76q-15 -20 -31 -37q-14 -14 -31 -25q-9 -6 -20 -9l-10 -1q-15 0 -28 10q-6 4 -14 16q-9 13 -16 32q-8 23 -13 54q-5 33 -5 61z" />
    <glyph glyph-name="D" unicode="D" horiz-adv-x="441" 
d="M18 166q4 3 6 10q12 39 27 75q28 68 70 131q20 31 52 66q16 18 38 36q18 12 30 18q10 4 15 5t13 1q25 0 42 -20q11 -14 19 -31q10 -23 17 -57q7 -31 10 -69q3 -33 3 -64q0 -93 -20 -173l-3 -18l0.5 -0.5l0.5 -0.5q0 -1 2 -1l11 7q31 23 61 35q7 2 19 8l6 2h2q6 0 9 -5
q2 -3 1.5 -7t-2.5 -5l-7 -5q-16 -8 -25 -11q-23 -9 -39 -21l-45 -34q-9 -6 -14 -20q-7 -19 -23 -57q-37 -84 -96 -156q-18 -22 -36 -38q-14 -13 -23 -18q-8 -7 -20 -10h-4q-7 0 -12.5 4t-6.5 11l-1 7q0 3 2 11l9 29q15 36 47 85q18 25 39 48q46 51 97 97l8 7q8 7 11 17
q6 19 17 66q14 66 14 143q0 34 -1 50q-3 58 -17 105q-7 23 -14 37q-5 11 -15 22q-8 6 -13 8q-4 1 -10 1q-14 0 -34 -12q-15 -10 -32 -27q-36 -35 -71 -88q-47 -72 -81 -169q-27 -78 -43 -171q-3 -20 -5 -61q-1 -13 -1 -38l-5 -159q0 -18 -3 -26q0 -2 -1 -3.5t-2 -2.5
q-4 -2 -6 -2q-8 0 -9 6l-2 6l-1 27q-1 21 -1 62v31q2 55 7 97q3 25 7 75q2 14 2 22l6 94l7 73l6 66q4 39 7 62q1 13 5 46l15 129q8 67 11 95l2 24q1 8 5 19q2 6 8 6h2q5 0 8 -4q7 -13 8 -25q0 -5 -3 -8q-7 -5 -9 -17l-5 -44l-11 -92q-3 -30 -11 -90l-5 -40l-6 -59l-6 -64
q-4 -38 -5 -57q0 -2 1 -2zM284 -12l-2 4h-2l-6 -5q-44 -41 -78 -82q-41 -46 -67 -103q-4 -9 -10 -27q-1 -2 -1 -6q0 -5 1 -6q0 -1 1.5 -0.5t2.5 0.5q9 4 18 13q25 21 51 54q53 67 89 152z" />
    <glyph glyph-name="E" unicode="E" horiz-adv-x="457" 
d="M2 -83l6 46l27 161q1 1 1 5q0 3 -1 6.5t-1 6.5q0 4 3.5 11t3.5 11l10 74l12 84q6 54 10 76l13 81l6 21q1 3 2 5.5t2 4.5q4 6 10 6q5 0 8 -3t3 -8q0 -6 -3 -11q-4 -10 -8 -30q0 -2 1.5 -3.5t2.5 -0.5l8 3q101 42 207 63q27 5 49 13l10 4h2q3 0 5.5 -2t3.5 -4q1 -1 1 -5
q0 -7 -4 -8l-10 -5q-21 -8 -38 -12q-54 -10 -80 -17q-62 -16 -130 -43q-20 -9 -30 -19q-5 -5 -6 -11l-3 -17l-12 -84l-10 -81q-3 -16 -7 -48l-2 -19q0 -2 2 -3.5t3 -0.5q14 2 42 10q57 19 129 52q18 8 32.5 15.5t25.5 12.5q22 12 32 20l8 4q1 1 4 1q5 0 8 -3q6 -8 0 -14
l-6 -6q-13 -10 -26 -17q-41 -22 -98 -46q-36 -17 -86 -34q-29 -10 -68 -19q-4 -1 -8 -7q0 -3 -1 -5q0 -3 -1 -4q-13 -85 -19 -118q-2 -16 -5.5 -31.5t-5.5 -31.5q-2 -22 -2 -33v-1q0 -4 2 -10q2 -8 10 -10q9 -3 18 -3q24 0 51 10l51 17q100 34 151 48q32 10 58 14q2 1 7 1
q9 0 14 -4q10 -4 10 -18q0 -6 -2 -9l-6 -6q-3 -1 -5.5 -0.5t-4.5 2.5l-5 8q-1 2 -2.5 3.5t-3.5 0.5l-26 -5q-42 -10 -89 -26l-122 -40q-32 -10 -49 -13q-12 -3 -25 -3q-10 0 -15 1q-6 0 -14 4q-14 4 -21 22q-2 8 -4 24z" />
    <glyph glyph-name="E" unicode="&#xcb;" horiz-adv-x="457" 
d="M2 -83l6 46l27 161q1 1 1 5q0 3 -1 6.5t-1 6.5q0 4 3.5 11t3.5 11l10 74l12 84q6 54 10 76l13 81l6 21q1 3 2 5.5t2 4.5q4 6 10 6q5 0 8 -3t3 -8q0 -6 -3 -11q-4 -10 -8 -30q0 -2 1.5 -3.5t2.5 -0.5l8 3q101 42 207 63q27 5 49 13l10 4h2q3 0 5.5 -2t3.5 -4q1 -1 1 -5
q0 -7 -4 -8l-10 -5q-21 -8 -38 -12q-54 -10 -80 -17q-62 -16 -130 -43q-20 -9 -30 -19q-5 -5 -6 -11l-3 -17l-12 -84l-10 -81q-3 -16 -7 -48l-2 -19q0 -2 2 -3.5t3 -0.5q14 2 42 10q57 19 129 52q18 8 32.5 15.5t25.5 12.5q22 12 32 20l8 4q1 1 4 1q5 0 8 -3q6 -8 0 -14
l-6 -6q-13 -10 -26 -17q-41 -22 -98 -46q-36 -17 -86 -34q-29 -10 -68 -19q-4 -1 -8 -7q0 -3 -1 -5q0 -3 -1 -4q-13 -85 -19 -118q-2 -16 -5.5 -31.5t-5.5 -31.5q-2 -22 -2 -33v-1q0 -4 2 -10q2 -8 10 -10q9 -3 18 -3q24 0 51 10l51 17q100 34 151 48q32 10 58 14q2 1 7 1
q9 0 14 -4q10 -4 10 -18q0 -6 -2 -9l-6 -6q-3 -1 -5.5 -0.5t-4.5 2.5l-5 8q-1 2 -2.5 3.5t-3.5 0.5l-26 -5q-42 -10 -89 -26l-122 -40q-32 -10 -49 -13q-12 -3 -25 -3q-10 0 -15 1q-6 0 -14 4q-14 4 -21 22q-2 8 -4 24z" />
    <glyph glyph-name="E" unicode="&#xca;" horiz-adv-x="457" 
d="M2 -83l6 46l27 161q1 1 1 5q0 3 -1 6.5t-1 6.5q0 4 3.5 11t3.5 11l10 74l12 84q6 54 10 76l13 81l6 21q1 3 2 5.5t2 4.5q4 6 10 6q5 0 8 -3t3 -8q0 -6 -3 -11q-4 -10 -8 -30q0 -2 1.5 -3.5t2.5 -0.5l8 3q101 42 207 63q27 5 49 13l10 4h2q3 0 5.5 -2t3.5 -4q1 -1 1 -5
q0 -7 -4 -8l-10 -5q-21 -8 -38 -12q-54 -10 -80 -17q-62 -16 -130 -43q-20 -9 -30 -19q-5 -5 -6 -11l-3 -17l-12 -84l-10 -81q-3 -16 -7 -48l-2 -19q0 -2 2 -3.5t3 -0.5q14 2 42 10q57 19 129 52q18 8 32.5 15.5t25.5 12.5q22 12 32 20l8 4q1 1 4 1q5 0 8 -3q6 -8 0 -14
l-6 -6q-13 -10 -26 -17q-41 -22 -98 -46q-36 -17 -86 -34q-29 -10 -68 -19q-4 -1 -8 -7q0 -3 -1 -5q0 -3 -1 -4q-13 -85 -19 -118q-2 -16 -5.5 -31.5t-5.5 -31.5q-2 -22 -2 -33v-1q0 -4 2 -10q2 -8 10 -10q9 -3 18 -3q24 0 51 10l51 17q100 34 151 48q32 10 58 14q2 1 7 1
q9 0 14 -4q10 -4 10 -18q0 -6 -2 -9l-6 -6q-3 -1 -5.5 -0.5t-4.5 2.5l-5 8q-1 2 -2.5 3.5t-3.5 0.5l-26 -5q-42 -10 -89 -26l-122 -40q-32 -10 -49 -13q-12 -3 -25 -3q-10 0 -15 1q-6 0 -14 4q-14 4 -21 22q-2 8 -4 24z" />
    <glyph glyph-name="E" unicode="&#xc9;" horiz-adv-x="457" 
d="M2 -83l6 46l27 161q1 1 1 5q0 3 -1 6.5t-1 6.5q0 4 3.5 11t3.5 11l10 74l12 84q6 54 10 76l13 81l6 21q1 3 2 5.5t2 4.5q4 6 10 6q5 0 8 -3t3 -8q0 -6 -3 -11q-4 -10 -8 -30q0 -2 1.5 -3.5t2.5 -0.5l8 3q101 42 207 63q27 5 49 13l10 4h2q3 0 5.5 -2t3.5 -4q1 -1 1 -5
q0 -7 -4 -8l-10 -5q-21 -8 -38 -12q-54 -10 -80 -17q-62 -16 -130 -43q-20 -9 -30 -19q-5 -5 -6 -11l-3 -17l-12 -84l-10 -81q-3 -16 -7 -48l-2 -19q0 -2 2 -3.5t3 -0.5q14 2 42 10q57 19 129 52q18 8 32.5 15.5t25.5 12.5q22 12 32 20l8 4q1 1 4 1q5 0 8 -3q6 -8 0 -14
l-6 -6q-13 -10 -26 -17q-41 -22 -98 -46q-36 -17 -86 -34q-29 -10 -68 -19q-4 -1 -8 -7q0 -3 -1 -5q0 -3 -1 -4q-13 -85 -19 -118q-2 -16 -5.5 -31.5t-5.5 -31.5q-2 -22 -2 -33v-1q0 -4 2 -10q2 -8 10 -10q9 -3 18 -3q24 0 51 10l51 17q100 34 151 48q32 10 58 14q2 1 7 1
q9 0 14 -4q10 -4 10 -18q0 -6 -2 -9l-6 -6q-3 -1 -5.5 -0.5t-4.5 2.5l-5 8q-1 2 -2.5 3.5t-3.5 0.5l-26 -5q-42 -10 -89 -26l-122 -40q-32 -10 -49 -13q-12 -3 -25 -3q-10 0 -15 1q-6 0 -14 4q-14 4 -21 22q-2 8 -4 24z" />
    <glyph glyph-name="E" unicode="&#xc8;" horiz-adv-x="457" 
d="M2 -83l6 46l27 161q1 1 1 5q0 3 -1 6.5t-1 6.5q0 4 3.5 11t3.5 11l10 74l12 84q6 54 10 76l13 81l6 21q1 3 2 5.5t2 4.5q4 6 10 6q5 0 8 -3t3 -8q0 -6 -3 -11q-4 -10 -8 -30q0 -2 1.5 -3.5t2.5 -0.5l8 3q101 42 207 63q27 5 49 13l10 4h2q3 0 5.5 -2t3.5 -4q1 -1 1 -5
q0 -7 -4 -8l-10 -5q-21 -8 -38 -12q-54 -10 -80 -17q-62 -16 -130 -43q-20 -9 -30 -19q-5 -5 -6 -11l-3 -17l-12 -84l-10 -81q-3 -16 -7 -48l-2 -19q0 -2 2 -3.5t3 -0.5q14 2 42 10q57 19 129 52q18 8 32.5 15.5t25.5 12.5q22 12 32 20l8 4q1 1 4 1q5 0 8 -3q6 -8 0 -14
l-6 -6q-13 -10 -26 -17q-41 -22 -98 -46q-36 -17 -86 -34q-29 -10 -68 -19q-4 -1 -8 -7q0 -3 -1 -5q0 -3 -1 -4q-13 -85 -19 -118q-2 -16 -5.5 -31.5t-5.5 -31.5q-2 -22 -2 -33v-1q0 -4 2 -10q2 -8 10 -10q9 -3 18 -3q24 0 51 10l51 17q100 34 151 48q32 10 58 14q2 1 7 1
q9 0 14 -4q10 -4 10 -18q0 -6 -2 -9l-6 -6q-3 -1 -5.5 -0.5t-4.5 2.5l-5 8q-1 2 -2.5 3.5t-3.5 0.5l-26 -5q-42 -10 -89 -26l-122 -40q-32 -10 -49 -13q-12 -3 -25 -3q-10 0 -15 1q-6 0 -14 4q-14 4 -21 22q-2 8 -4 24z" />
    <glyph glyph-name="F" unicode="F" horiz-adv-x="344" 
d="M383 450q3 4 4 6l-7 1l-59 -19q-76 -22 -115 -30q-50 -12 -90 -13h-13q-13 -2 -16 -4.5t-5 -14.5l-17 -101l-17 -100v-8q-1 -1 1 -3t3 -1l13 3q97 25 174 49q9 2 25 8q21 8 37 19l11 7q2 1 5.5 0.5t5.5 -2.5t3 -6t-1 -6q-3 -5 -8 -8q-16 -13 -38 -21q-39 -14 -50 -17
q-57 -18 -160 -45l-21 -6q-4 -1 -6 -6l-3 -13l-24 -150l-21 -135q0 -7 -3 -11q-2 -6 -9 -6q-4 0 -7 2.5t-3 6.5q0 13 1 20l17 125l16 107q4 27 5 43q1 2 -1 4t-4 2q-2 1 -5 0.5t-6 0.5l-7 5q-2 2 -2 6q0 8 6 9l19 5q5 0 5 6q2 5 4 17q6 48 17 127l6 64q0 12 3 24q4 13 12 17
q6 4 10 15l6 32q2 10 4 15q0 2 2 4q1 2 3.5 3.5t5.5 1.5q4 0 7 -3t3 -7v0q0 -11 -3 -23.5t-4 -17.5q-1 -3 -0.5 -5t0.5 -4l3 -3l9 -1q36 0 104 14q58 13 140 40l55 18q15 3 17 3q7 0 11.5 -6t1.5 -12q-2 -6 -4 -8q-13 -17 -29 -28q-6 -3 -7 -3q-1 -1 -3 -1q-3 0 -7 4
q-3 3 -3 6q0 4 3 8z" />
    <glyph glyph-name="G" unicode="G" horiz-adv-x="503" 
d="M9 -565q0 21 7 53q13 44 36 88q36 69 67 119q68 112 137 200l28 35q7 7 7 18v5q0 43 -3 87q-1 32 -9 64q0 2 -2 10t-8 14q-1 2 -3 1.5t-3 -1.5l-5 -4l-11 -16l-21 -31l-23 -33q-38 -47 -92 -74q-15 -8 -33 -13q-12 -3 -24 -3q-38 0 -53 32q-8 19 -8 37v8q0 15 1 22
q2 28 15 72q21 68 49 125q21 41 49 76q23 29 54 52q41 27 83 34q6 1 16 1q13 0 30 -5q25 -8 36 -28q23 -35 20 -75l-1 -3q-2 -7 -9 -7q-3 -1 -6 1.5t-4 5.5q-2 6 -2 12q0 15 -5 33q-1 3 -3.5 9.5t-5.5 10.5q-16 25 -50 25q-22 0 -42 -7q-37 -13 -69 -43q-24 -21 -42 -48
q-9 -13 -25 -39q-41 -78 -61 -154q-7 -23 -10 -52q-1 -6 -1 -17q0 -13 3 -27q3 -8 4 -10q9 -24 36 -24q15 0 32 7q37 15 68 41q21 18 38 41l39 56q5 6 8 11t6 9l10 9q4 4 12 4q10 0 16 -7q7 -8 10 -19q4 -10 6.5 -23.5t3.5 -19.5q3 -22 5 -68l2 -34q0 -7 1 -11l0.5 -0.5
l0.5 -0.5q2 -2 4 0l9 9q58 62 113 103l61 46l13 8q1 1 3 1t4 -1t3 -3q2 -2 2 -5t-2 -5l-10 -9l-65 -49q-51 -39 -93 -82q-1 -1 -37 -40q-7 -7 -7 -18t-2 -33q0 -54 -6 -106q-12 -127 -43 -219q-19 -56 -45 -101q-17 -30 -39 -56q-17 -19 -32 -30q-18 -13 -37 -19
q-15 -5 -26 -5q-43 0 -61 36q-7 13 -9 30v17zM288 -137q1 10 1 31q0 4 -1 6l-0.5 0.5l-0.5 0.5q-2 0 -4 -2q-35 -42 -70 -93q-67 -96 -135 -221q-22 -42 -30 -64q-13 -30 -19 -66q-2 -14 -2 -22q0 -16 4 -28q5 -16 17.5 -25t28.5 -9q8 0 12 1q16 3 28 11q14 7 23 17
q24 20 46 54q20 31 36 68q28 68 44 148q9 48 15 96q6 64 7 97z" />
    <glyph glyph-name="H" unicode="H" horiz-adv-x="503" 
d="M317 -451v30q3 37 7 105l6 79l7 71q4 31 5 50l11 103q3 33 11 97l11 92q3 30 11 90l2 24l-1 2q-3 0 -4 -1l-3 -3q-35 -42 -106 -103l-87 -72l-8 -7q-6 -5 -8 -13l-13 -61q-24 -97 -54 -168q-13 -31 -30 -59q-12 -17 -23 -27q-10 -8 -16 -11q-10 -5 -18 -5q-13 0 -25 10
q-7 6 -14 18q-9 17 -11 37q-1 7 -1 20q0 37 13 69q15 44 51 85q19 22 63 62l46 39l10 8q4 4 6 11l6 29l19 120q7 40 16 109l11 83q3 33 11 88l5 44l13 105l2 20q3 8 4 10q2 3 6 4t7 -1q3 -1 3 -3q3 -3 3 -6v-35q0 -5 -1 -7q-5 -7 -6.5 -17.5t-2.5 -14.5q-3 -22 -6 -53.5
t-9 -71.5q-6 -51 -20 -153l-19 -136l-15 -89q-1 -1 1 -4q0 -1 5 1l2 1q15 13 52.5 44.5t66.5 58.5q41 38 77 85q12 17 15 37q6 48 15 91q6 39 20 115q3 13 9 45.5t13 56.5q3 11 11 31q4 11 10 17q7 7 14 7q10 0 16 -11q5 -9 7 -23q2 -28 2 -42q0 -86 -35 -188
q-21 -61 -57 -117l-7 -11q-4 -6 -6 -14q-2 -15 -8 -55q-8 -60 -11 -90l-6 -46l-12 -103q-3 -19 -7 -57l-6 -59q-4 -33 -5 -46q-3 -21 -4 -37t-2 -27q-3 -21 -7 -68q-4 -38 -5 -58l-1 -20q-6 -88 -5 -132q0 -32 3 -48q3 -24 16 -41l6 -9q3 -3 -2 -8q-2 -2 -5 -3t-5 1l-6 6
q-15 20 -20 46q-4 30 -4 44v33zM-13 -156q1 -4 1 -10.5t2 -15.5q3 -13 9 -23l8 -8q5 -4 10 -4q2 0 8 2q11 6 19 15t20 29q16 27 28 58q26 66 43 141l8 33l1 6q0 2 -0.5 3.5t-1.5 2.5l-4 -2q-49 -39 -80 -72q-19 -21 -27 -33q-18 -22 -31 -53q-12 -32 -13 -69zM495 643
q1 4 1 12q2 23 -3 46l-2 1l-2 -1l-5 -10q-6 -16 -11 -36t-6 -26l-21 -110l-18 -97q-1 -4 -0.5 -8t-0.5 -8l2 -1l0.5 0.5l0.5 0.5q10 15 24 49q37 93 41 188z" />
    <glyph glyph-name="I" unicode="I" horiz-adv-x="535" 
d="M57 -197h2q7 0 19 4q20 6 98 28q146 42 218 64q5 1 23 8q14 3 19 14l5 5q6 6 12 1q7 -5 5 -12l-3 -6q-6 -13 -20 -19q-22 -8 -25 -9l-127 -38q-61 -17 -115.5 -32.5t-101.5 -28.5q-13 -4 -39 -10q-8 -2 -24 -2q-6 1 -9 6q-2 2 -2.5 6t1.5 6l5 7q2 2 5 3.5t6 4.5
q52 30 80 43q13 5 16 7q26 12 38 38q10 20 13 31q13 36 23 85q8 37 23 124l21 120l24 144q3 22 14 85q2 8 0 15q-1 3 -0.5 6t0.5 5l4 19v1q0 5 -5 5q-3 0 -7.5 -1.5l-7.5 -2.5l-22.5 -7.5t-29.5 -10.5q-7 -2 -35 -14q-4 -2 -5 -2q-7 0 -11 9v2q0 5 3 8q3 4 8 5l34 14
q16 6 70 22q13 5 15 7l5 20l4 8q4 4 8 4t6.5 -2.5t3.5 -5.5q0 -9 1 -13q0 -2 1.5 -3t3.5 -1q4 2 6 2q58 16 88 22l45 9q25 4 49 15l10 4h2q5 0 9 -6q1 -1 1 -5t-3 -7l-9 -6q-21 -9 -48 -16q-42 -8 -63 -13l-88 -22q-11 -3 -13 -15q-1 -8 -5 -29l-25 -152l-24 -144
q-20 -116 -31 -174q-12 -62 -26 -105q-9 -27 -17 -43q-17 -35 -49 -49q-7 -3 -14.5 -6.5t-15.5 -7.5q-18 -8 -27 -16z" />
    <glyph glyph-name="I" unicode="&#xcf;" horiz-adv-x="535" 
d="M57 -197h2q7 0 19 4q20 6 98 28q146 42 218 64q5 1 23 8q14 3 19 14l5 5q6 6 12 1q7 -5 5 -12l-3 -6q-6 -13 -20 -19q-22 -8 -25 -9l-127 -38q-61 -17 -115.5 -32.5t-101.5 -28.5q-13 -4 -39 -10q-8 -2 -24 -2q-6 1 -9 6q-2 2 -2.5 6t1.5 6l5 7q2 2 5 3.5t6 4.5
q52 30 80 43q13 5 16 7q26 12 38 38q10 20 13 31q13 36 23 85q8 37 23 124l21 120l24 144q3 22 14 85q2 8 0 15q-1 3 -0.5 6t0.5 5l4 19v1q0 5 -5 5q-3 0 -7.5 -1.5l-7.5 -2.5l-22.5 -7.5t-29.5 -10.5q-7 -2 -35 -14q-4 -2 -5 -2q-7 0 -11 9v2q0 5 3 8q3 4 8 5l34 14
q16 6 70 22q13 5 15 7l5 20l4 8q4 4 8 4t6.5 -2.5t3.5 -5.5q0 -9 1 -13q0 -2 1.5 -3t3.5 -1q4 2 6 2q58 16 88 22l45 9q25 4 49 15l10 4h2q5 0 9 -6q1 -1 1 -5t-3 -7l-9 -6q-21 -9 -48 -16q-42 -8 -63 -13l-88 -22q-11 -3 -13 -15q-1 -8 -5 -29l-25 -152l-24 -144
q-20 -116 -31 -174q-12 -62 -26 -105q-9 -27 -17 -43q-17 -35 -49 -49q-7 -3 -14.5 -6.5t-15.5 -7.5q-18 -8 -27 -16z" />
    <glyph glyph-name="I" unicode="&#xce;" horiz-adv-x="535" 
d="M57 -197h2q7 0 19 4q20 6 98 28q146 42 218 64q5 1 23 8q14 3 19 14l5 5q6 6 12 1q7 -5 5 -12l-3 -6q-6 -13 -20 -19q-22 -8 -25 -9l-127 -38q-61 -17 -115.5 -32.5t-101.5 -28.5q-13 -4 -39 -10q-8 -2 -24 -2q-6 1 -9 6q-2 2 -2.5 6t1.5 6l5 7q2 2 5 3.5t6 4.5
q52 30 80 43q13 5 16 7q26 12 38 38q10 20 13 31q13 36 23 85q8 37 23 124l21 120l24 144q3 22 14 85q2 8 0 15q-1 3 -0.5 6t0.5 5l4 19v1q0 5 -5 5q-3 0 -7.5 -1.5l-7.5 -2.5l-22.5 -7.5t-29.5 -10.5q-7 -2 -35 -14q-4 -2 -5 -2q-7 0 -11 9v2q0 5 3 8q3 4 8 5l34 14
q16 6 70 22q13 5 15 7l5 20l4 8q4 4 8 4t6.5 -2.5t3.5 -5.5q0 -9 1 -13q0 -2 1.5 -3t3.5 -1q4 2 6 2q58 16 88 22l45 9q25 4 49 15l10 4h2q5 0 9 -6q1 -1 1 -5t-3 -7l-9 -6q-21 -9 -48 -16q-42 -8 -63 -13l-88 -22q-11 -3 -13 -15q-1 -8 -5 -29l-25 -152l-24 -144
q-20 -116 -31 -174q-12 -62 -26 -105q-9 -27 -17 -43q-17 -35 -49 -49q-7 -3 -14.5 -6.5t-15.5 -7.5q-18 -8 -27 -16z" />
    <glyph glyph-name="I" unicode="&#xcd;" horiz-adv-x="535" 
d="M57 -197h2q7 0 19 4q20 6 98 28q146 42 218 64q5 1 23 8q14 3 19 14l5 5q6 6 12 1q7 -5 5 -12l-3 -6q-6 -13 -20 -19q-22 -8 -25 -9l-127 -38q-61 -17 -115.5 -32.5t-101.5 -28.5q-13 -4 -39 -10q-8 -2 -24 -2q-6 1 -9 6q-2 2 -2.5 6t1.5 6l5 7q2 2 5 3.5t6 4.5
q52 30 80 43q13 5 16 7q26 12 38 38q10 20 13 31q13 36 23 85q8 37 23 124l21 120l24 144q3 22 14 85q2 8 0 15q-1 3 -0.5 6t0.5 5l4 19v1q0 5 -5 5q-3 0 -7.5 -1.5l-7.5 -2.5l-22.5 -7.5t-29.5 -10.5q-7 -2 -35 -14q-4 -2 -5 -2q-7 0 -11 9v2q0 5 3 8q3 4 8 5l34 14
q16 6 70 22q13 5 15 7l5 20l4 8q4 4 8 4t6.5 -2.5t3.5 -5.5q0 -9 1 -13q0 -2 1.5 -3t3.5 -1q4 2 6 2q58 16 88 22l45 9q25 4 49 15l10 4h2q5 0 9 -6q1 -1 1 -5t-3 -7l-9 -6q-21 -9 -48 -16q-42 -8 -63 -13l-88 -22q-11 -3 -13 -15q-1 -8 -5 -29l-25 -152l-24 -144
q-20 -116 -31 -174q-12 -62 -26 -105q-9 -27 -17 -43q-17 -35 -49 -49q-7 -3 -14.5 -6.5t-15.5 -7.5q-18 -8 -27 -16z" />
    <glyph glyph-name="I" unicode="&#xcc;" horiz-adv-x="535" 
d="M57 -197h2q7 0 19 4q20 6 98 28q146 42 218 64q5 1 23 8q14 3 19 14l5 5q6 6 12 1q7 -5 5 -12l-3 -6q-6 -13 -20 -19q-22 -8 -25 -9l-127 -38q-61 -17 -115.5 -32.5t-101.5 -28.5q-13 -4 -39 -10q-8 -2 -24 -2q-6 1 -9 6q-2 2 -2.5 6t1.5 6l5 7q2 2 5 3.5t6 4.5
q52 30 80 43q13 5 16 7q26 12 38 38q10 20 13 31q13 36 23 85q8 37 23 124l21 120l24 144q3 22 14 85q2 8 0 15q-1 3 -0.5 6t0.5 5l4 19v1q0 5 -5 5q-3 0 -7.5 -1.5l-7.5 -2.5l-22.5 -7.5t-29.5 -10.5q-7 -2 -35 -14q-4 -2 -5 -2q-7 0 -11 9v2q0 5 3 8q3 4 8 5l34 14
q16 6 70 22q13 5 15 7l5 20l4 8q4 4 8 4t6.5 -2.5t3.5 -5.5q0 -9 1 -13q0 -2 1.5 -3t3.5 -1q4 2 6 2q58 16 88 22l45 9q25 4 49 15l10 4h2q5 0 9 -6q1 -1 1 -5t-3 -7l-9 -6q-21 -9 -48 -16q-42 -8 -63 -13l-88 -22q-11 -3 -13 -15q-1 -8 -5 -29l-25 -152l-24 -144
q-20 -116 -31 -174q-12 -62 -26 -105q-9 -27 -17 -43q-17 -35 -49 -49q-7 -3 -14.5 -6.5t-15.5 -7.5q-18 -8 -27 -16z" />
    <glyph glyph-name="J" unicode="J" horiz-adv-x="402" 
d="M36 -358q0 40 17 91q17 48 47 97q24 36 50 67l57 65q9 8 10 22l11 83q3 30 11 90l5 42q10 79 22 146v2q0 1 -2 3h-2l-5 -4l-101 -111q-42 -47 -68 -82q-28 -38 -40 -59q-14 -22 -22 -43q-7 -16 -12 -35q-4 -16 -4 -24q0 -16 8 -28l1 -3q0 -4 -5 -9q-2 -2 -6 -2q-5 0 -8 3
t-7 11q-4 11 -4 25q0 26 15 63q11 24 31 59q32 50 70 94l59 66l16 18q24 28 74 82l12 16q12 13 18 32q3 9 8 18q4 7 11 7q4 0 7 -3t3 -8q0 -7 -3 -13.5t-4 -8.5q-9 -13 -14 -37q-12 -52 -16 -82l-17 -118q-4 -26 -10 -88l-11 -83q0 -2 2 -2h1h1l9 8q26 27 59 57q26 23 42 33
q16 11 43 22q8 2 13 2q4 0 6.5 -2.5t2.5 -5.5q0 -5 -5 -8q-2 -2 -6 -2q-35 -9 -68 -39q-26 -22 -38 -34l-59 -60q-8 -8 -10 -21q-7 -56 -13 -88q-14 -90 -26 -136q-14 -52 -31 -83q-2 -4 -18 -31q-9 -14 -23 -26q-16 -12 -29 -16q-4 -1 -12 -1q-19 0 -31 16q-8 13 -11 31
q-1 9 -1 25zM55 -362v-4q0 -16 4 -28l5 -10q8 -12 21 -7q14 3 25 14q16 16 28 37q16 28 27 62q15 45 27 112q5 30 16 106q0 1 1 4.5t-2 5.5q-3 1 -7 -5l-37 -43q-39 -48 -60 -85q-23 -39 -37 -87q-11 -35 -11 -72z" />
    <glyph glyph-name="K" unicode="K" horiz-adv-x="342" 
d="M126 -229q-17 -1 -35 6q-11 4 -25 14q-15 11 -43 37l-8 8q-1 1 -2 0.5t-2 -0.5l-1 -2l-1 -9q-3 -96 -3 -194v-18q-1 -4 -4.5 -6t-7.5 0q-5 1 -6 6l-5 26v5q0 5 3 10q2 4 2 13q1 16 1 48l1 131v7q0 8 -1 13q-1 3 -1 9q0 4 2 12l2 11v22q0 35 4 105q2 20 2 30q1 16 5 55
l2 20q1 10 2 25t4 34q3 29 11 85q5 35 14 92q11 68 16 94q5 29 6 57l2 11q2 5 7 6.5t9 -2.5q5 -4 6.5 -10.5t-0.5 -11.5q-4 -7 -6 -23l-15 -87l-15 -96l-12 -77l-6 -52q-4 -41 -7 -64l-1 -9l-6 -90q-1 -17 -2.5 -46.5t-0.5 -51.5q0 -8 1 -13q0 -1 2 -1q3 0 9 4q9 8 23 26
q16 24 27 46q32 59 56 134q40 116 74 250l6 28q1 2 1 5q0 5 -3 8q-3 5 -3 10q0 3 2 9l6 12q2 4 4 5q3 4 8 4q4 0 7 -2.5t4 -5.5t1 -8l-1 -12q-4 -16 -10 -48q-9 -36 -22 -82t-19 -67q-27 -89 -50 -149t-44 -101l-23 -40q-22 -35 -51 -51q-2 -1 -2.5 -3t1.5 -4q31 -39 65 -62
l11 -7q13 -8 30 -8q16 0 31 9q11 6 23 18q17 17 25 31q16 23 25 41q51 91 102 199q3 6 5 12t5 12q2 6 8 6q4 0 7 -3t3 -7q0 -6 -1 -8q-2 -6 -8 -18q-42 -89 -87 -174l-31 -54q-10 -17 -28 -39q-20 -22 -35 -31q-17 -12 -39 -14z" />
    <glyph glyph-name="L" unicode="L" horiz-adv-x="201" 
d="M-12 -208l6 39q14 78 22 117q8 45 32 167l6 31q19 87 33 164q13 73 21 106q2 9 8 27q4 8 7 12t9 4t9.5 -5.5t1.5 -10.5l-2 -4q-6 -5 -9 -13.5t-3 -9.5q-6 -26 -16 -78q-20 -105 -42 -210q-23 -109 -34 -173l-25 -135q-1 -5 -1 -15q0 -2 2 -2q3 0 9 4q43 29 96 48
q60 23 112 35l28 6h10q16 0 24 -6q7 -3 9 -7q3 -5 1 -10q-1 -3 -4.5 -5t-6.5 -1l-4 2q-7 6 -21 6q-15 0 -41 -6q-73 -19 -133 -46q-39 -16 -68 -37q-12 -8 -19 -11q-6 -2 -11 1q-4 4 -5 7t-1 9z" />
    <glyph glyph-name="M" unicode="M" horiz-adv-x="472" 
d="M4 -89q4 5 5.5 11t2.5 8q16 60 28 100q34 106 89 207l36 61q6 14 17 23q4 4 11 6q1 1 3 1q9 0 13 -9q3 -7 3 -16q0 -23 -3 -46l-19 -131q-6 -37 -9 -77q-1 -1 0 -1.5t1 -1.5l2 1l6 10l60 125q28 56 44 82l12 19l10 9q4 2 7 2q9 0 12 -9q2 -5 2 -14q0 -12 -4 -36l-10 -70
q-2 -13 -3.5 -25.5t-3.5 -25.5q-3 -21 -4 -37t-2 -26q-2 -30 -2 -44q0 -22 4 -62q4 -22 9 -32q4 -8 7 -12q2 -3 6 -3.5t7 2.5l11 11q11 14 22 31q5 9 13 21.5t17 29.5q35 61 63 115l6 9q2 2 6 2t6 -2q4 -2 4 -6l-1 -6l-3 -6q-52 -95 -91 -156q-9 -16 -19 -28l-15 -19l-10 -9
q-8 -5 -16 -5q-10 0 -19 10q-8 13 -11 24q-8 24 -9 48q-1 16 -1 49t3 66q4 34 5 50l13 97q2 11 4 33l-3 3l-2 -1l-6 -9q-7 -12 -40 -76q-46 -96 -70 -143q-4 -12 -12 -24q-4 -6 -7 -8q-3 -3 -7 -3q-8 0 -10 8q-1 4 -1 11q0 11 2 33q7 66 13 103l10 77q3 20 7 53q0 8 -1 13
l-0.5 0.5l-0.5 0.5q-3 0 -4 -1l-9 -15q-95 -156 -140 -330q-20 -82 -31 -122q-1 -5 -5 -20q0 -2 -3 -5q-2 -5 -8 -5q-7 0 -9 7t-1 11q0 20 2 62l1 20q3 49 9 99l3 30q4 44 7 66l12 82q2 9 4 25q4 29 23 126q18 84 36 142q7 24 16 41q0 1 8 11q3 3 7 3q8 0 12 -9q2 -6 2 -11
q0 -12 -9 -16l-4 -2q-5 -2 -6 -5l-13 -38q-17 -58 -31 -127q-17 -85 -25 -134l-12 -83l-3 -25q-3 -18 -7 -54l-6 -62z" />
    <glyph glyph-name="N" unicode="N" horiz-adv-x="394" 
d="M-5 -100q5 8 9 22q17 65 22 83q19 63 45 127q42 101 78 171q6 13 11.5 22.5t9.5 16.5q1 1 14 17l7 5q2 1 7 1q8 0 13 -6q4 -8 4 -13q1 -7 1 -21q0 -38 -3 -76q-2 -14 -4 -42l-3 -35q-2 -21 -4 -59l-2 -34q-1 -8 -1 -25q0 -21 4 -63q2 -20 9 -38q3 -9 9 -15t14 -4
q6 2 23 14q19 18 36 39l46 56l29 37q16 24 20 32l4 5q2 3 5.5 3.5t6.5 -1.5q2 -2 3.5 -5t0.5 -6q0 -2 -2 -6q-6 -12 -10 -17l-14 -20q-4 -5 -70 -85l-33 -36q-6 -6 -12 -10.5l-10 -7.5q-9 -6 -18 -9q-8 -2 -10 -2q-13 0 -22 11q-8 8 -14 25q-7 19 -10 43q-3 32 -3 62
q0 14 2 42q0 9 1 13q1 24 5 72l3 43q0 8 2 24q3 38 3 75l-1 11h-2q-1 1 -2 0l-4 -5l-15 -24q-80 -160 -119 -283q-18 -58 -37 -134l-9 -32l-6 -14q-2 -4 -4 -6q-3 -4 -9 -4q-8 0 -11 7q-2 4 -2 6q-3 12 -3 24q0 23 2 51.5t3 39.5q2 26 8 70q6 50 10 79q2 14 5.5 38t6.5 41
q15 100 35 180q10 38 18 57q7 16 11 21q4 6 11 7h2q8 0 11 -6q4 -5 4 -13q0 -11 -11 -14q-7 -1 -10 -8q-12 -30 -17 -57q-11 -39 -24 -112l-16 -96q-4 -29 -10 -79q-8 -57 -11 -92q-2 -14 -3.5 -33.5t-2.5 -30.5v-14z" />
    <glyph glyph-name="N" unicode="&#xd1;" horiz-adv-x="394" 
d="M-5 -100q5 8 9 22q17 65 22 83q19 63 45 127q42 101 78 171q6 13 11.5 22.5t9.5 16.5q1 1 14 17l7 5q2 1 7 1q8 0 13 -6q4 -8 4 -13q1 -7 1 -21q0 -38 -3 -76q-2 -14 -4 -42l-3 -35q-2 -21 -4 -59l-2 -34q-1 -8 -1 -25q0 -21 4 -63q2 -20 9 -38q3 -9 9 -15t14 -4
q6 2 23 14q19 18 36 39l46 56l29 37q16 24 20 32l4 5q2 3 5.5 3.5t6.5 -1.5q2 -2 3.5 -5t0.5 -6q0 -2 -2 -6q-6 -12 -10 -17l-14 -20q-4 -5 -70 -85l-33 -36q-6 -6 -12 -10.5l-10 -7.5q-9 -6 -18 -9q-8 -2 -10 -2q-13 0 -22 11q-8 8 -14 25q-7 19 -10 43q-3 32 -3 62
q0 14 2 42q0 9 1 13q1 24 5 72l3 43q0 8 2 24q3 38 3 75l-1 11h-2q-1 1 -2 0l-4 -5l-15 -24q-80 -160 -119 -283q-18 -58 -37 -134l-9 -32l-6 -14q-2 -4 -4 -6q-3 -4 -9 -4q-8 0 -11 7q-2 4 -2 6q-3 12 -3 24q0 23 2 51.5t3 39.5q2 26 8 70q6 50 10 79q2 14 5.5 38t6.5 41
q15 100 35 180q10 38 18 57q7 16 11 21q4 6 11 7h2q8 0 11 -6q4 -5 4 -13q0 -11 -11 -14q-7 -1 -10 -8q-12 -30 -17 -57q-11 -39 -24 -112l-16 -96q-4 -29 -10 -79q-8 -57 -11 -92q-2 -14 -3.5 -33.5t-2.5 -30.5v-14z" />
    <glyph glyph-name="O" unicode="O" horiz-adv-x="232" 
d="M-5 16q0 64 9 125q8 61 19 107q15 63 30 104l12 28q5 10 7 12q9 9 14 24q3 12 18 15q6 1 18 1q18 0 36 -6q11 -4 18 -12q18 -16 27 -38q15 -40 15 -85q0 -24 -3 -48l-5 -42q-5 -38 -19 -86q-15 -55 -31 -99q-18 -45 -39 -82q-18 -27 -26 -35q-8 -9 -17 -14q-11 -6 -21 -6
q-13 0 -26 11q-8 6 -17 20q-7 16 -12 33q-6 28 -6 42l-1 22v9zM14 30v-15q0 -34 5 -58q3 -19 10 -34q5 -10 13 -18q8 -6 15 -6q8 0 13 4q10 6 16 15q13 16 21 31q16 29 31 66q22 56 40 127q12 49 15 78q5 43 5 79q0 32 -11 63q-6 15 -15 27q-10 14 -24 19t-33 4l-2 -1
q-6 -2 -7 -7q-2 -10 -4 -14l-7 -17q-4 -11 -13 -14q-4 -1 -7 -8q-7 -16 -8 -20q-13 -36 -26 -91q-13 -62 -20 -111q-7 -58 -7 -99z" />
    <glyph glyph-name="O" unicode="&#xd8;" horiz-adv-x="232" 
d="M-5 16q0 64 9 125q8 61 19 107q15 63 30 104l12 28q5 10 7 12q9 9 14 24q3 12 18 15q6 1 18 1q18 0 36 -6q11 -4 18 -12q18 -16 27 -38q15 -40 15 -85q0 -24 -3 -48l-5 -42q-5 -38 -19 -86q-15 -55 -31 -99q-18 -45 -39 -82q-18 -27 -26 -35q-8 -9 -17 -14q-11 -6 -21 -6
q-13 0 -26 11q-8 6 -17 20q-7 16 -12 33q-6 28 -6 42l-1 22v9zM14 30v-15q0 -34 5 -58q3 -19 10 -34q5 -10 13 -18q8 -6 15 -6q8 0 13 4q10 6 16 15q13 16 21 31q16 29 31 66q22 56 40 127q12 49 15 78q5 43 5 79q0 32 -11 63q-6 15 -15 27q-10 14 -24 19t-33 4l-2 -1
q-6 -2 -7 -7q-2 -10 -4 -14l-7 -17q-4 -11 -13 -14q-4 -1 -7 -8q-7 -16 -8 -20q-13 -36 -26 -91q-13 -62 -20 -111q-7 -58 -7 -99z" />
    <glyph glyph-name="O" unicode="&#xd6;" horiz-adv-x="232" 
d="M-5 16q0 64 9 125q8 61 19 107q15 63 30 104l12 28q5 10 7 12q9 9 14 24q3 12 18 15q6 1 18 1q18 0 36 -6q11 -4 18 -12q18 -16 27 -38q15 -40 15 -85q0 -24 -3 -48l-5 -42q-5 -38 -19 -86q-15 -55 -31 -99q-18 -45 -39 -82q-18 -27 -26 -35q-8 -9 -17 -14q-11 -6 -21 -6
q-13 0 -26 11q-8 6 -17 20q-7 16 -12 33q-6 28 -6 42l-1 22v9zM14 30v-15q0 -34 5 -58q3 -19 10 -34q5 -10 13 -18q8 -6 15 -6q8 0 13 4q10 6 16 15q13 16 21 31q16 29 31 66q22 56 40 127q12 49 15 78q5 43 5 79q0 32 -11 63q-6 15 -15 27q-10 14 -24 19t-33 4l-2 -1
q-6 -2 -7 -7q-2 -10 -4 -14l-7 -17q-4 -11 -13 -14q-4 -1 -7 -8q-7 -16 -8 -20q-13 -36 -26 -91q-13 -62 -20 -111q-7 -58 -7 -99z" />
    <glyph glyph-name="O" unicode="&#xd5;" horiz-adv-x="232" 
d="M-5 16q0 64 9 125q8 61 19 107q15 63 30 104l12 28q5 10 7 12q9 9 14 24q3 12 18 15q6 1 18 1q18 0 36 -6q11 -4 18 -12q18 -16 27 -38q15 -40 15 -85q0 -24 -3 -48l-5 -42q-5 -38 -19 -86q-15 -55 -31 -99q-18 -45 -39 -82q-18 -27 -26 -35q-8 -9 -17 -14q-11 -6 -21 -6
q-13 0 -26 11q-8 6 -17 20q-7 16 -12 33q-6 28 -6 42l-1 22v9zM14 30v-15q0 -34 5 -58q3 -19 10 -34q5 -10 13 -18q8 -6 15 -6q8 0 13 4q10 6 16 15q13 16 21 31q16 29 31 66q22 56 40 127q12 49 15 78q5 43 5 79q0 32 -11 63q-6 15 -15 27q-10 14 -24 19t-33 4l-2 -1
q-6 -2 -7 -7q-2 -10 -4 -14l-7 -17q-4 -11 -13 -14q-4 -1 -7 -8q-7 -16 -8 -20q-13 -36 -26 -91q-13 -62 -20 -111q-7 -58 -7 -99z" />
    <glyph glyph-name="O" unicode="&#xd4;" horiz-adv-x="232" 
d="M-5 16q0 64 9 125q8 61 19 107q15 63 30 104l12 28q5 10 7 12q9 9 14 24q3 12 18 15q6 1 18 1q18 0 36 -6q11 -4 18 -12q18 -16 27 -38q15 -40 15 -85q0 -24 -3 -48l-5 -42q-5 -38 -19 -86q-15 -55 -31 -99q-18 -45 -39 -82q-18 -27 -26 -35q-8 -9 -17 -14q-11 -6 -21 -6
q-13 0 -26 11q-8 6 -17 20q-7 16 -12 33q-6 28 -6 42l-1 22v9zM14 30v-15q0 -34 5 -58q3 -19 10 -34q5 -10 13 -18q8 -6 15 -6q8 0 13 4q10 6 16 15q13 16 21 31q16 29 31 66q22 56 40 127q12 49 15 78q5 43 5 79q0 32 -11 63q-6 15 -15 27q-10 14 -24 19t-33 4l-2 -1
q-6 -2 -7 -7q-2 -10 -4 -14l-7 -17q-4 -11 -13 -14q-4 -1 -7 -8q-7 -16 -8 -20q-13 -36 -26 -91q-13 -62 -20 -111q-7 -58 -7 -99z" />
    <glyph glyph-name="O" unicode="&#xd3;" horiz-adv-x="232" 
d="M-5 16q0 64 9 125q8 61 19 107q15 63 30 104l12 28q5 10 7 12q9 9 14 24q3 12 18 15q6 1 18 1q18 0 36 -6q11 -4 18 -12q18 -16 27 -38q15 -40 15 -85q0 -24 -3 -48l-5 -42q-5 -38 -19 -86q-15 -55 -31 -99q-18 -45 -39 -82q-18 -27 -26 -35q-8 -9 -17 -14q-11 -6 -21 -6
q-13 0 -26 11q-8 6 -17 20q-7 16 -12 33q-6 28 -6 42l-1 22v9zM14 30v-15q0 -34 5 -58q3 -19 10 -34q5 -10 13 -18q8 -6 15 -6q8 0 13 4q10 6 16 15q13 16 21 31q16 29 31 66q22 56 40 127q12 49 15 78q5 43 5 79q0 32 -11 63q-6 15 -15 27q-10 14 -24 19t-33 4l-2 -1
q-6 -2 -7 -7q-2 -10 -4 -14l-7 -17q-4 -11 -13 -14q-4 -1 -7 -8q-7 -16 -8 -20q-13 -36 -26 -91q-13 -62 -20 -111q-7 -58 -7 -99z" />
    <glyph glyph-name="O" unicode="&#xd2;" horiz-adv-x="232" 
d="M-5 16q0 64 9 125q8 61 19 107q15 63 30 104l12 28q5 10 7 12q9 9 14 24q3 12 18 15q6 1 18 1q18 0 36 -6q11 -4 18 -12q18 -16 27 -38q15 -40 15 -85q0 -24 -3 -48l-5 -42q-5 -38 -19 -86q-15 -55 -31 -99q-18 -45 -39 -82q-18 -27 -26 -35q-8 -9 -17 -14q-11 -6 -21 -6
q-13 0 -26 11q-8 6 -17 20q-7 16 -12 33q-6 28 -6 42l-1 22v9zM14 30v-15q0 -34 5 -58q3 -19 10 -34q5 -10 13 -18q8 -6 15 -6q8 0 13 4q10 6 16 15q13 16 21 31q16 29 31 66q22 56 40 127q12 49 15 78q5 43 5 79q0 32 -11 63q-6 15 -15 27q-10 14 -24 19t-33 4l-2 -1
q-6 -2 -7 -7q-2 -10 -4 -14l-7 -17q-4 -11 -13 -14q-4 -1 -7 -8q-7 -16 -8 -20q-13 -36 -26 -91q-13 -62 -20 -111q-7 -58 -7 -99z" />
    <glyph glyph-name="P" unicode="P" horiz-adv-x="301" 
d="M-29 -299l1 29q1 48 8 108q1 21 5 63l8 82q1 13 5 46l10 92l4 26v3q0 7 -5 11q-8 6 -6 20q3 20 14 37q9 16 15 51q11 68 17 97q2 8 4 13q3 6 11 6q7 0 10 -6l2 -4q1 -3 1 -7q0 -6 -4 -9q-5 -4 -7 -11q-2 -16 -11 -64q0 -1 2 -3h1.5t0.5 1l15 13q17 14 32 20q9 4 22 4
q7 0 10 -1q11 -1 21 -11q8 -7 15 -19q9 -20 12 -40q4 -32 4 -49q0 -10 -2 -28q-2 -25 -8 -73q-1 -1 1 -4q0 -2 6 0q5 4 15 10q8 4 19 10t24 12q4 2 25 9q4 1 13 1q11 0 19 -8q2 -2 4 -6l1 -4q0 -4 -4 -8q-5 -5 -10 -1l-6 4q-4 2 -12 2l-9 -3q-12 -4 -18 -7q-32 -14 -69 -40
q-7 -6 -10 -14q-3 -18 -13 -47q-13 -35 -31 -61q-11 -18 -29 -36q-17 -13 -30 -19q-8 -4 -18 -4q-9 0 -16.5 5t-8.5 13q-2 8 -2 12q0 7 4 21q3 11 15 31q16 24 39 46q36 32 56 46q-1 -1 14 11q6 5 6 11q14 70 14 121q0 31 -5 52q-4 16 -8 25q-4 7 -11 14q-9 7 -17 7
q-15 0 -33 -14q-24 -18 -45 -51q-3 -4 -5 -13l-9 -65l-12 -88l-6 -53q-4 -42 -7 -63q-1 -18 -5 -49l-6 -66l-6 -79q-2 -14 -2 -22q-2 -44 -2 -67v-30q2 -12 8 -17l3 -4l1 -5q0 -7 -7 -10q-1 -1 -5 -1q-6 0 -9 3q-5 7 -7 16q-2 32 -2 46q0 23 1 34v0zM42 -94q2 -2 4 -2
q3 0 4 1q10 2 24 12q20 18 29 33q24 33 37 77v2q0 4 -1 4q-2 2 -4 0q-38 -27 -66 -59q-11 -13 -20 -29q-8 -16 -9 -27q-1 -2 -0.5 -4t0.5 -4t2 -4z" />
    <glyph glyph-name="Q" unicode="Q" horiz-adv-x="388" 
d="M61 -5q0 78 8 139q5 39 19 117q7 48 26 94q8 22 13 33l9 17q4 7 9 10q8 5 16 15q24 26 46 40q17 12 31 17q15 5 28 5q27 0 43 -24q8 -13 13 -28q5 -20 5 -37q2 -48 -7 -91q-10 -53 -35 -129q-26 -79 -63 -161q-28 -60 -46 -88q-5 -8 -5 -16q0 -11 6 -33q3 -11 13 -18
q2 -1 5.5 -3t7.5 -4q15 -3 16 -3q12 0 21 10l7 5q5 2 9 -1q5 -2 5 -9q-2 -7 -5 -10q-13 -16 -38 -16q-32 0 -54 28q-2 2 -3.5 6t-2.5 6l-5 19l-4 1q-4 -2 -10 -8q-12 -7 -14 -8q-6 -3 -13 -3q-13 0 -25 12q-6 6 -12 20q-5 10 -9 32q-5 28 -5 51v13zM306 361q1 5 1 16
q0 14 -4 40q-1 11 -6 21l-8 13q-11 11 -24 11q-15 0 -37 -12q-28 -16 -57 -49q-4 -4 -6 -12q-2 -12 -5 -17q-7 -18 -23 -54q-3 -7 -8 -11q-5 -3 -7 -11l-6 -21q-16 -67 -19 -104l-6 -68q-3 -31 -3 -64v-10q0 -20 5 -29v-3q0 -3 -4 -7l-4 -2q-5 -3 -5 -9q2 -36 8 -61
q2 -6 8 -18q0 -1 5 -8q3 -4 8 -4.5t10 1.5l4 2q15 10 22 24q4 3 2 8q-1 5 -2.5 19.5t-7.5 25.5q-3 6 -1 13q2 5 7 7t9 -2q4 -3 6 -9q4 -10 7 -23l1 -2q1 1 2.5 1t1.5 1q14 24 20 37q59 125 94 249q21 73 22 121z" />
    <glyph glyph-name="R" unicode="R" horiz-adv-x="313" 
d="M41.5 249.5q0.5 -1.5 0.5 -3.5q4 5 8 15q16 40 27 58q16 30 36 53q7 8 19 18q8 6 16 9q7 3 15 3q20 0 30 -19q6 -16 7 -23l1 -23q0 -17 -3 -35q-6 -27 -15 -55q-18 -51 -44 -101q-29 -54 -74 -90q-11 -8 -19 -16l-12 -12q-7 -9 -7 -19v-6q0 -12 2 -18q6 -30 21 -55
q12 -19 28 -34q14 -12 31 -18q12 -3 22 -3q22 0 39 16q12 10 25 28q20 31 31 53l56 106q6 12 10 17q2 3 8 7q5 5 12 -1q4 -6 2 -10l-2 -4l-18 -31q-9 -16 -22 -41t-32 -58q-14 -26 -22 -38l-21 -28l-12 -13q-23 -22 -53 -22q-14 0 -31 5q-21 8 -34 20q-24 20 -40 50
q-1 3 -3 7.5t-6 10.5q0 1 -1.5 1t-2.5 1q-1 -13 -2.5 -31t-1.5 -31l-3 -79l-3 -13q0 -2 -2.5 -4t-5.5 -2q-7 0 -9 5q-2 6 -2 7q-1 3 -1 9v8q0 60 5 135q2 41 10 128q10 82 16 122q6 44 10 70l5 33l15 101l11 74l3 26l3 13q4 6 10 6q4 0 7.5 -3.5t2.5 -7.5v-4
q-16 -108 -25 -162l-15 -98q-1 -2 -0.5 -3.5zM26 70q0 -10 -1 -14q0 -2 2 -2h1h1l22 17q43 35 68 81q29 50 49 111q9 28 12 58q1 6 1 18t-3 24l-3 8q-2 7 -8 9t-12 -1q-6 -2 -9 -5q-14 -12 -19 -19q-16 -17 -29 -42q-18 -30 -31 -70q-24 -64 -41 -173z" />
    <glyph glyph-name="S" unicode="S" horiz-adv-x="411" 
d="M274 31q4 0 7 2.5t4 3.5q16 13 48 37q10 8 42 29q15 9 27 13q6 2 9 2q10 -2 14 -9q2 -4 2 -6q0 -3 -4 -11q-7 -7 -16 -1l-2.5 2.5t-3.5 2.5q-6 -3 -7 -4q-22 -12 -32 -20q-27 -19 -79 -61q-7 -5 -6 -13v-2q4 -68 -18 -151q-23 -76 -49 -128q-25 -44 -48 -71
q-18 -22 -37 -35q-21 -15 -46 -21q-12 -2 -17 -2q-26 0 -45.5 17.5t-22.5 45.5l-1 15q0 19 7 44q12 35 32 68q23 35 48 66q52 63 113 116q38 32 57 49q6 4 4 11q-3 19 -10 34q-2 5 -8 13q-13 19 -35 19q-21 0 -44 -10q-16 -8 -48 -22q-34 -18 -51 -26q-11 -5 -33 -13
q-9 -4 -22 -4h-8q-13 3 -19 14q-4 8 -4 19q0 6 1 10q1 10 5 25q7 24 9 28q35 90 86 161q28 41 68 75q19 17 44 30q20 11 42 12q2 1 6 1l14 -1q20 -5 31 -20q8 -11 11 -23q2 -12 2 -17q0 -19 -9 -37q-3 -7 -10 -7q-4 0 -7.5 3.5t-3.5 7.5q0 2 1.5 6t2.5 6q5 12 5 22
q0 18 -10 29t-26 11q-14 0 -32 -7q-17 -8 -31 -17q-24 -18 -34 -29q-28 -26 -48 -55q-52 -71 -84 -157q-9 -21 -14 -51v-5q0 -4 2 -10q2 -5 7 -5l5 -1q8 0 14 3q8 4 15.5 6.5t15.5 6.5q15 7 45 23q36 18 54 25q21 8 34 10q5 2 16 2q29 0 49 -21q9 -10 19 -34q4 -15 7 -19z
M259 -32q-1 3 -1 7t-1 8q0 1 -1.5 1.5t-1.5 -0.5q-4 -1 -9 -6l-55 -48q-55 -50 -92 -95q-27 -32 -48 -66q-14 -21 -26 -51q-7 -16 -11 -41q-1 -4 -1 -11q0 -11 5 -26q6 -17 18 -24t27 -7q17 0 30 6q15 6 32 20q18 17 33 36q23 31 40 66q35 73 52 156q7 33 10 75z" />
    <glyph glyph-name="T" unicode="T" horiz-adv-x="390" 
d="M63 373q-44 -2 -64 -2h-3q-10 0 -15 1q-4 0 -10 4q-4 2 -5 6t2 7q2 5 6 6q9 5 19 6q18 5 56 13q18 3 53 10t62 11q32 6 56 9.5t40 5.5l8 2q6 2 8 7l5 20l5 7q3 3 8 3q4 1 7 -2t3 -8q0 -4 -1.5 -7.5t-2.5 -6.5v-2q0 -5 5 -5l10 1l70 11q22 3 77 11l59 7l57 6q14 2 20 2
q24 2 37 2h1q11 0 27 -6q3 -1 7 -5q2 -1 2.5 -5t-1.5 -6q-3 -3 -7 -3q-5 0 -11 4q-11 4 -24 4q-19 0 -29 -1q-38 -4 -57 -7q-54 -6 -81 -10q-24 -3 -72 -11q-24 -3 -72 -11l-17 -3q-8 -1 -10 -10l-22 -111l-3 -17q-3 -20 -2 -35q1 -12 1 -35q0 -27 -3 -56q-8 -71 -11 -101
l-12 -90q-7 -55 -10 -77q-6 -51 -18 -102q-1 -4 -5 -17q-3 -5 -9 -5q-8 0 -10 7q-1 4 -1 11l6 57q4 39 5 55l6 66l7 62l6 55l6 50l12 83l6 42v13q-4 22 -15 44q-19 35 -59 43q-26 4 -40 4h-63v-1zM51 394l11 -1q12 0 36 2q20 1 62 -3q9 -1 27 -7q28 -8 49 -36l9 -15
q1 -1 2.5 -1t2.5 -1l2 8l16 83q1 1 0.5 2t0.5 2q0 2 -1.5 3.5t-2.5 1.5h-7q-116 -20 -160 -28q-32 -4 -47 -10z" />
    <glyph glyph-name="U" unicode="U" horiz-adv-x="352" 
d="M260 223l-1 12q-6 -9 -9 -19q-30 -77 -52 -126q-26 -54 -54 -97q-17 -27 -41 -54l-25 -25q-10 -8 -19 -11q-6 -3 -11 -3q-15 0 -24 14q-3 6 -7 18q-5 17 -5 31l-1 43q0 61 4 109q2 18 3.5 43t2.5 39q4 44 12 92q5 36 23 108l7 21l3 8q5 9 12 9q11 0 13 -13q2 -10 2 -14
q0 -5 -2 -17q0 -6 -3 -9.5t-9 -3.5q-6 -1 -8 -9q-10 -42 -14 -63q-7 -35 -15 -107q-6 -59 -9 -121q-1 -14 -2 -33.5t-1 -46.5q0 -18 4 -50q2 -14 8 -25q2 -2 5 -3t5 0q5 2 18 13q17 17 29 33q25 32 46 70q25 43 53 107q42 98 81 229q3 11 6.5 28t5.5 26q1 8 5 26q2 7 6 11
q3 3 6 3q6 0 9 -7l1 -6q0 -4 -1 -10.5t-2 -11.5q-2 -9 -5.5 -24.5t-6.5 -26.5q-6 -22 -11 -48.5t-6 -34.5q-3 -18 -7 -61q-1 -4 -1 -11l-2 -43q-1 -11 -2 -32.5t-1 -37.5l-4 -123l-1 -53q-2 -74 -2 -112l1 -50q2 -16 8 -22q1 -1 1 -4q0 -2 -2 -4.5t-5 -2.5q-5 0 -10 3t-6 7
l-3 9q-2 22 -2 34q0 68 1 102q0 36 2 104q1 56 5 173q0 13 1 22t2 15z" />
    <glyph glyph-name="U" unicode="&#xdc;" horiz-adv-x="352" 
d="M260 223l-1 12q-6 -9 -9 -19q-30 -77 -52 -126q-26 -54 -54 -97q-17 -27 -41 -54l-25 -25q-10 -8 -19 -11q-6 -3 -11 -3q-15 0 -24 14q-3 6 -7 18q-5 17 -5 31l-1 43q0 61 4 109q2 18 3.5 43t2.5 39q4 44 12 92q5 36 23 108l7 21l3 8q5 9 12 9q11 0 13 -13q2 -10 2 -14
q0 -5 -2 -17q0 -6 -3 -9.5t-9 -3.5q-6 -1 -8 -9q-10 -42 -14 -63q-7 -35 -15 -107q-6 -59 -9 -121q-1 -14 -2 -33.5t-1 -46.5q0 -18 4 -50q2 -14 8 -25q2 -2 5 -3t5 0q5 2 18 13q17 17 29 33q25 32 46 70q25 43 53 107q42 98 81 229q3 11 6.5 28t5.5 26q1 8 5 26q2 7 6 11
q3 3 6 3q6 0 9 -7l1 -6q0 -4 -1 -10.5t-2 -11.5q-2 -9 -5.5 -24.5t-6.5 -26.5q-6 -22 -11 -48.5t-6 -34.5q-3 -18 -7 -61q-1 -4 -1 -11l-2 -43q-1 -11 -2 -32.5t-1 -37.5l-4 -123l-1 -53q-2 -74 -2 -112l1 -50q2 -16 8 -22q1 -1 1 -4q0 -2 -2 -4.5t-5 -2.5q-5 0 -10 3t-6 7
l-3 9q-2 22 -2 34q0 68 1 102q0 36 2 104q1 56 5 173q0 13 1 22t2 15z" />
    <glyph glyph-name="U" unicode="&#xdb;" horiz-adv-x="352" 
d="M260 223l-1 12q-6 -9 -9 -19q-30 -77 -52 -126q-26 -54 -54 -97q-17 -27 -41 -54l-25 -25q-10 -8 -19 -11q-6 -3 -11 -3q-15 0 -24 14q-3 6 -7 18q-5 17 -5 31l-1 43q0 61 4 109q2 18 3.5 43t2.5 39q4 44 12 92q5 36 23 108l7 21l3 8q5 9 12 9q11 0 13 -13q2 -10 2 -14
q0 -5 -2 -17q0 -6 -3 -9.5t-9 -3.5q-6 -1 -8 -9q-10 -42 -14 -63q-7 -35 -15 -107q-6 -59 -9 -121q-1 -14 -2 -33.5t-1 -46.5q0 -18 4 -50q2 -14 8 -25q2 -2 5 -3t5 0q5 2 18 13q17 17 29 33q25 32 46 70q25 43 53 107q42 98 81 229q3 11 6.5 28t5.5 26q1 8 5 26q2 7 6 11
q3 3 6 3q6 0 9 -7l1 -6q0 -4 -1 -10.5t-2 -11.5q-2 -9 -5.5 -24.5t-6.5 -26.5q-6 -22 -11 -48.5t-6 -34.5q-3 -18 -7 -61q-1 -4 -1 -11l-2 -43q-1 -11 -2 -32.5t-1 -37.5l-4 -123l-1 -53q-2 -74 -2 -112l1 -50q2 -16 8 -22q1 -1 1 -4q0 -2 -2 -4.5t-5 -2.5q-5 0 -10 3t-6 7
l-3 9q-2 22 -2 34q0 68 1 102q0 36 2 104q1 56 5 173q0 13 1 22t2 15z" />
    <glyph glyph-name="U" unicode="&#xda;" horiz-adv-x="352" 
d="M260 223l-1 12q-6 -9 -9 -19q-30 -77 -52 -126q-26 -54 -54 -97q-17 -27 -41 -54l-25 -25q-10 -8 -19 -11q-6 -3 -11 -3q-15 0 -24 14q-3 6 -7 18q-5 17 -5 31l-1 43q0 61 4 109q2 18 3.5 43t2.5 39q4 44 12 92q5 36 23 108l7 21l3 8q5 9 12 9q11 0 13 -13q2 -10 2 -14
q0 -5 -2 -17q0 -6 -3 -9.5t-9 -3.5q-6 -1 -8 -9q-10 -42 -14 -63q-7 -35 -15 -107q-6 -59 -9 -121q-1 -14 -2 -33.5t-1 -46.5q0 -18 4 -50q2 -14 8 -25q2 -2 5 -3t5 0q5 2 18 13q17 17 29 33q25 32 46 70q25 43 53 107q42 98 81 229q3 11 6.5 28t5.5 26q1 8 5 26q2 7 6 11
q3 3 6 3q6 0 9 -7l1 -6q0 -4 -1 -10.5t-2 -11.5q-2 -9 -5.5 -24.5t-6.5 -26.5q-6 -22 -11 -48.5t-6 -34.5q-3 -18 -7 -61q-1 -4 -1 -11l-2 -43q-1 -11 -2 -32.5t-1 -37.5l-4 -123l-1 -53q-2 -74 -2 -112l1 -50q2 -16 8 -22q1 -1 1 -4q0 -2 -2 -4.5t-5 -2.5q-5 0 -10 3t-6 7
l-3 9q-2 22 -2 34q0 68 1 102q0 36 2 104q1 56 5 173q0 13 1 22t2 15z" />
    <glyph glyph-name="U" unicode="&#xd9;" horiz-adv-x="352" 
d="M260 223l-1 12q-6 -9 -9 -19q-30 -77 -52 -126q-26 -54 -54 -97q-17 -27 -41 -54l-25 -25q-10 -8 -19 -11q-6 -3 -11 -3q-15 0 -24 14q-3 6 -7 18q-5 17 -5 31l-1 43q0 61 4 109q2 18 3.5 43t2.5 39q4 44 12 92q5 36 23 108l7 21l3 8q5 9 12 9q11 0 13 -13q2 -10 2 -14
q0 -5 -2 -17q0 -6 -3 -9.5t-9 -3.5q-6 -1 -8 -9q-10 -42 -14 -63q-7 -35 -15 -107q-6 -59 -9 -121q-1 -14 -2 -33.5t-1 -46.5q0 -18 4 -50q2 -14 8 -25q2 -2 5 -3t5 0q5 2 18 13q17 17 29 33q25 32 46 70q25 43 53 107q42 98 81 229q3 11 6.5 28t5.5 26q1 8 5 26q2 7 6 11
q3 3 6 3q6 0 9 -7l1 -6q0 -4 -1 -10.5t-2 -11.5q-2 -9 -5.5 -24.5t-6.5 -26.5q-6 -22 -11 -48.5t-6 -34.5q-3 -18 -7 -61q-1 -4 -1 -11l-2 -43q-1 -11 -2 -32.5t-1 -37.5l-4 -123l-1 -53q-2 -74 -2 -112l1 -50q2 -16 8 -22q1 -1 1 -4q0 -2 -2 -4.5t-5 -2.5q-5 0 -10 3t-6 7
l-3 9q-2 22 -2 34q0 68 1 102q0 36 2 104q1 56 5 173q0 13 1 22t2 15z" />
    <glyph glyph-name="V" unicode="V" horiz-adv-x="233" 
d="M254 443q-5 -2 -5 -3q-8 -20 -15 -46q-2 -6 -18 -74l-4 -21q-5 -21 -21 -92t-32 -131q-38 -135 -76 -231q-8 -22 -21 -46q-3 -7 -11 -19q-4 -5 -12 -9q-3 -1 -7 -1q-8 0 -13 6q-4 4 -6 9q-6 18 -8 28l-6 41q-4 39 -5 55q0 9 -2 29l-2 44v62v44q0 9 1 30.5t3 38.5l3 48
l3 38l6 70q4 45 7 64q1 17 5 46q0 4 4 12q2 6 10 6q3 0 6 -2.5t4 -5.5q2 -6 2 -9v-22q0 -11 -5 -16q-4 -5 -4 -13l-10 -97q-4 -46 -7 -70v-4q-7 -100 -7 -169v-39q1 -11 1 -33q1 -34 5 -73.5t5 -52.5q1 -7 5 -28q2 -10 5 -14q4 1 7 6l18 38q13 31 39 105q41 127 72 262
l39 179q8 33 19 61q4 12 11 26q3 6 9 10q4 4 9 4q7 0 12 -7l5 -10q2 -8 4 -26q1 -3 -1 -9q-1 -2 -3.5 -4t-5.5 -2q-7 2 -9 6z" />
    <glyph glyph-name="W" unicode="W" horiz-adv-x="368" 
d="M172 135q0 8 -1 12q-4 -4 -5.5 -9t-2.5 -7q-11 -39 -35 -117q-24 -73 -31 -94q-5 -15 -17 -43l-10 -17l-9 -10q-7 -5 -12 -5q-11 0 -16 10q-4 7 -6 15t-4 26q-2 13 -4 35l-6 84l-3 64q-2 48 -2 73q0 21 2 59q2 51 6 100l2 24q4 38 4 57q0 3 2 9q1 3 4 5t6 2t5.5 -2.5
t3.5 -5.5t1 -9q0 -21 1 -31v-4q0 -10 -4 -17q-2 -3 -2.5 -5.5t-0.5 -3.5q0 -5 -2 -15q-4 -56 -5 -84l-3 -66v-13q0 -45 4 -137q2 -36 8 -106q1 -8 2.5 -16.5t2.5 -16.5q2 -5 6 -7q4 4 5 7q12 25 15 32q9 22 31 90q27 84 48 163q8 24 10 29q1 5 3 8t3 6q5 5 10 5q9 0 12 -8
q2 -6 2 -8q1 -10 1 -29v-64v-62q0 -42 4 -128q2 -30 8 -50q1 -4 5 -10q1 -2 3 -3t4 1q8 8 9 10q12 22 14 27q12 28 18 50q10 32 27 105q8 43 23 139q7 56 20 149l11 84q0 5 1 9.5t2 7.5l1 4q3 5 9 5q3 0 6 -2t3 -5q1 -3 1 -9l-8 -55q-4 -33 -17 -116l-6 -42
q-12 -90 -20 -135q-17 -93 -39 -161q-3 -7 -7 -18.5t-11 -26.5t-11 -19q-3 -6 -12 -15q-9 -7 -17 -7q-14 0 -21 13q-6 10 -9 23q-4 19 -5 32q-5 67 -5 118v114v8z" />
    <glyph glyph-name="X" unicode="X" horiz-adv-x="415" 
d="M184 86q27 -95 62 -171q21 -41 37 -63q8 -13 19 -20l10 -5h4q11 0 17 11l6 14q2 5 8 5q4 0 6.5 -4t2.5 -8q0 -11 -7 -20.5t-18 -14.5q-5 -2 -14 -2q-11 0 -22 6q-7 5 -25 22q-12 17 -25 37q-17 30 -40 83q-16 39 -30 83q-1 3 -2 5.5t-2 4.5l-4 3q-6 -10 -8 -16
q-31 -63 -57 -134q-48 -126 -71 -206q-3 -9 -5 -17.5t-5 -17.5l-1 -7q0 -2 2 -10q3 -6 3 -14q0 -12 -7 -22q-1 -3 -7 -7q-2 -2 -6 -2t-7.5 2.5t-3.5 6.5q-1 3 -1 10q0 6 2 18q6 31 15 63q64 210 134 357l12 24q3 10 2 17q-9 37 -11 50q-8 38 -13 89q-2 36 -4 55q0 4 -1.5 9
t-1.5 7q-1 4 -1 13q0 7 1 11q1 5 7 7.5t10 -1.5q7 -5 8 -12q2 -11 4 -35l6 -75q3 -42 10 -75q0 -10 5 -13q4 2 8 10q33 65 105 191l57 95q16 25 31 46q7 10 13 15q3 2 9 2q11 0 14 -11q1 -2 1 -6q0 -6 -1 -9q-2 -14 -14 -15q-8 -1 -14 -9q-4 -6 -9.5 -14.5t-12.5 -19.5
q-10 -16 -24.5 -40t-32.5 -56q-60 -104 -89 -156q-17 -28 -34 -64z" />
    <glyph glyph-name="Y" unicode="Y" horiz-adv-x="502" 
d="M355 -12h4q3 3 5 5.5t4 4.5q8 10 27.5 34.5t36.5 42.5l30 28q5 5 17 11q5 4 15 4q8 0 14 -5t6 -13q1 -1 1 -3q0 -7 -5 -11q-2 -2 -5 -2t-5 2l-2 4l-1 4q-2 4 -3.5 4.5t-5.5 -1.5q-12 -8 -18 -13q-14 -12 -26 -26q-29 -32 -67 -82q-4 -5 -8 -11t-8 -11q-12 -14 -14 -36
q-2 -21 -4.5 -36.5t-4.5 -26.5q-18 -106 -49 -202q-20 -63 -45 -122q-12 -27 -27 -54q-6 -13 -19 -29q-15 -15 -20 -18q-11 -7 -23 -7q-21 0 -33 21q-8 14 -10 33q-1 6 -1 18q0 11 2 31q9 48 27 95q32 80 80 160q42 69 93 142q2 2 3.5 4.5t3.5 5.5q6 7 8 22l7 81q7 96 7 164
v37l-1 16q0 2 -2 2t-2 -1l-9 -18q-32 -72 -49 -108q-32 -70 -67 -125q-25 -43 -53 -76q-11 -15 -30 -32q-13 -13 -26 -20q-12 -8 -27 -12q-4 -1 -14 -1q-18 0 -35 14q-9 6 -16 21q-7 13 -14 34q-7 25 -10 57q-3 20 -3 41q0 35 9 91q12 65 34 125l14 33q1 2 11 17l9 9
q5 3 9 3q6 0 10 -4t5 -9q1 -3 1 -9q0 -11 -6 -33q-1 0 -1 -2q-2 -5 -7 -7t-11 0l-4 2q-3 0 -4 -1l-5 -10q-15 -41 -30 -104q-11 -57 -11 -108q0 -50 12 -89q4 -15 12 -31q5 -9 12 -15q7 -7 17 -7q16 0 35 15q21 16 35 33q19 21 42 55q29 44 58 99q32 61 71 152l18 40
q6 12 11 17q6 4 10 4q8 0 12 -5q5 -6 7 -12q4 -14 4 -23q1 -14 1 -42q0 -77 -2 -115q0 -21 -4 -63q-2 -20 -2 -30q-1 -6 -1 -17zM133 -504q0 -15 1 -22q2 -18 10 -27q2 -4 6.5 -5t8.5 1q11 6 19 15q13 16 21 31q14 25 27 56q59 140 88 309q2 11 4 31v1v1q-1 1 -4 -1l-9 -12
q-21 -33 -37.5 -59.5t-29.5 -46.5q-30 -49 -63 -120q-25 -58 -35 -100q-8 -34 -7 -52z" />
    <glyph glyph-name="Y" unicode="&#xdd;" horiz-adv-x="502" 
d="M355 -12h4q3 3 5 5.5t4 4.5q8 10 27.5 34.5t36.5 42.5l30 28q5 5 17 11q5 4 15 4q8 0 14 -5t6 -13q1 -1 1 -3q0 -7 -5 -11q-2 -2 -5 -2t-5 2l-2 4l-1 4q-2 4 -3.5 4.5t-5.5 -1.5q-12 -8 -18 -13q-14 -12 -26 -26q-29 -32 -67 -82q-4 -5 -8 -11t-8 -11q-12 -14 -14 -36
q-2 -21 -4.5 -36.5t-4.5 -26.5q-18 -106 -49 -202q-20 -63 -45 -122q-12 -27 -27 -54q-6 -13 -19 -29q-15 -15 -20 -18q-11 -7 -23 -7q-21 0 -33 21q-8 14 -10 33q-1 6 -1 18q0 11 2 31q9 48 27 95q32 80 80 160q42 69 93 142q2 2 3.5 4.5t3.5 5.5q6 7 8 22l7 81q7 96 7 164
v37l-1 16q0 2 -2 2t-2 -1l-9 -18q-32 -72 -49 -108q-32 -70 -67 -125q-25 -43 -53 -76q-11 -15 -30 -32q-13 -13 -26 -20q-12 -8 -27 -12q-4 -1 -14 -1q-18 0 -35 14q-9 6 -16 21q-7 13 -14 34q-7 25 -10 57q-3 20 -3 41q0 35 9 91q12 65 34 125l14 33q1 2 11 17l9 9
q5 3 9 3q6 0 10 -4t5 -9q1 -3 1 -9q0 -11 -6 -33q-1 0 -1 -2q-2 -5 -7 -7t-11 0l-4 2q-3 0 -4 -1l-5 -10q-15 -41 -30 -104q-11 -57 -11 -108q0 -50 12 -89q4 -15 12 -31q5 -9 12 -15q7 -7 17 -7q16 0 35 15q21 16 35 33q19 21 42 55q29 44 58 99q32 61 71 152l18 40
q6 12 11 17q6 4 10 4q8 0 12 -5q5 -6 7 -12q4 -14 4 -23q1 -14 1 -42q0 -77 -2 -115q0 -21 -4 -63q-2 -20 -2 -30q-1 -6 -1 -17zM133 -504q0 -15 1 -22q2 -18 10 -27q2 -4 6.5 -5t8.5 1q11 6 19 15q13 16 21 31q14 25 27 56q59 140 88 309q2 11 4 31v1v1q-1 1 -4 -1l-9 -12
q-21 -33 -37.5 -59.5t-29.5 -46.5q-30 -49 -63 -120q-25 -58 -35 -100q-8 -34 -7 -52z" />
    <glyph glyph-name="Z" unicode="Z" horiz-adv-x="440" 
d="M29 -355q0 21 8 61q16 66 46 121q31 55 69 92l23 24q1 1 4 7v5q-5 68 -17 109q-1 5 -8 23q-2 5 -8 13q-10 13 -25 9q-16 -4 -32 -15l-18 -16l-7 -6q-1 -1 -4.5 -1t-5.5 2q-3 3 -3 6q0 2 3 8l8 14l57 107q26 48 41 85q20 50 26 82q5 20 3 40l-3 10q-3 6 -9 6t-14 -6
q-15 -11 -32 -30q-36 -40 -70 -92q-24 -40 -33 -62q-7 -13 -12 -31q-5 -13 -5 -24q0 -7 1 -11v-4q1 -3 -1.5 -6t-5.5 -4q0 -1 -2 -1q-5 0 -9 4q-3 3 -5 10v9q0 12 3 22q5 21 17 46q9 20 33 60q34 54 75 98q12 14 26 26q8 8 21 13q5 4 14 4q21 0 28 -23q3 -12 3 -24
q0 -31 -14 -71q-10 -35 -31 -78q-16 -34 -52 -100l-16 -29q0 -3 1 -4t2 -1h2q11 4 14 5q10 2 13 2q18 0 31 -15q3 -4 13 -21q5 -12 11 -36q8 -37 11 -65q0 -5 1.5 -12t1.5 -10q0 -2 2 -3t3 0q-1 -1 20 17q47 40 90 71q30 20 45 29q35 21 73 30q4 1 11 1q3 0 5 -2t3 -5v-1
q0 -6 -4 -8l-10 -5q-41 -7 -88 -39q-56 -36 -114 -88q-8 -6 -15 -13t-15 -13q-6 -7 -5 -14l-1 -4q1 -37 -4 -86q-11 -90 -40 -161q-10 -25 -26 -51q-10 -15 -21 -26q-7 -8 -19 -15q-8 -4 -14 -4q-22 -3 -33 14q-8 12 -10 31q-1 6 -1 20zM179 -94.5q0 4.5 -1 7.5q-4 0 -8 -4
q-40 -38 -66 -85q-27 -48 -44 -106q-9 -32 -11 -56q-2 -14 -2 -21q0 -14 4 -25q1 -6 5 -12t11 -6q8 0 13 4q10 5 21 19q8 9 22 33q8 17 26 63q17 55 25 119q5 35 5 63v6.5z" />
    <glyph glyph-name="bracketleft" unicode="[" horiz-adv-x="402" 
d="M341 694q0 -9 -7 -18l-6 -3h-2q-8 0 -8 6q-1 2 -1 8t-5 6l-13 3h-16h-68q-12 0 -22 -3q-6 -4 -8 -8l-4 -14l-9 -59l-10 -77q-2 -15 -5.5 -36.5t-6.5 -50.5l-12 -90q-6 -48 -10 -77l-15 -87q-7 -35 -25 -134q-3 -13 -7 -37q-3 -16 -3 -33q0 -12 13 -12q2 -1 3.5 -0.5
t2.5 0.5q4 1 10 2t14 4q42 12 64 16q31 7 59 8h7q8 0 26 -2q8 -2 12 -6t2 -10q-1 -2 -3 -4t-5 -2q-8 0 -11 1q-7 3 -22 3q-10 0 -15 -1q-34 -3 -61 -10q-36 -8 -54 -13q-12 -3 -26 -3q-7 0 -11 1q-7 0 -12 5q-9 5 -9 14q-1 5 -1 15q0 13 7 53q24 128 32 176q11 57 18 114
l6 52q2 11 4 35l12 86l10 79l13 87q0 9 5 17q4 11 17 16q9 3 20 3q16 1 55 1q28 0 46 -1q11 0 24 -5q11 -3 11 -15z" />
    <glyph glyph-name="backslash" unicode="\" horiz-adv-x="378" 
d="M317 -36q0 -5 -3 -8q-1 -2 -6 -2q-7 0 -8 4l-2 4l-1 6q-5 53 -29 136q-9 28 -19 60t-22 68q-57 172 -105 384q-35 157 -51 244q-4 21 -10 61v18q0 4 2.5 6.5t5.5 3.5h2q8 0 11 -6l3 -6q20 -55 26 -87q2 -6 4 -24v-1q0 -9 -10 -12q-4 -1 -4 -5t2 -12q38 -195 82 -364
q20 -75 66 -223q23 -67 42 -135q5 -15 13 -47q2 -10 4 -14q5 -7 5 -19q2 -20 2 -29v-1z" />
    <glyph glyph-name="bracketright" unicode="]" horiz-adv-x="402" 
d="M341 692q0 -12 -7 -52l-33 -176q-12 -76 -17 -114q-3 -15 -7 -52q-2 -24 -4 -35q-3 -25 -11 -86q-2 -21 -11 -79l-12 -87q-2 -12 -5 -17q-6 -12 -17 -16q-10 -3 -20 -3l-56 -2q-10 1 -21.5 1t-23.5 1q-8 0 -24 4q-11 5 -11 16t7 17q1 1 6 4h2q8 0 8 -6q1 -2 0.5 -4
t0.5 -4q0 -5 5 -7q3 0 13 -2l15 -1q23 1 69 1q14 0 21 3t8 7q4 10 5 15l8 59q8 55 11 77l12 87l12 90q6 48 10 77l15 87l25 134l7 37l3 33q0 11 -13 12h-7l-23 -6q-40 -11 -64 -16q-34 -7 -59 -8h-7q-18 0 -26 2q-7 2 -12 6q-5 3 -3 10q1 2 3.5 4t5.5 2t11 -2q7 -2 21 -2
q11 0 16 1q35 4 61 10l54 12q11 4 25 4q8 0 12 -1q8 -2 12 -5q8 -6 9 -14q1 -5 1 -16z" />
    <glyph glyph-name="asciicircum" unicode="^" horiz-adv-x="550" 
d="M29 268l224 451h50l218 -451h-78l-165 359l-170 -359h-79z" />
    <glyph glyph-name="underscore" unicode="_" horiz-adv-x="356" 
d="M295 -25q0 -3 -4 -9q-7 -5 -12 0l-2 2t-1 2q-2 5 -12 9q-2 1 -6 1q-39 6 -84 4q-12 -1 -41 -5q-8 -1 -31 -5q-17 -2 -25 -6h-4q-5 0 -10 5q-2 1 -2 5q0 7 5 10q2 0 6 2l15 1l62 8q17 3 35 3l28 -1l44 -3q14 0 26 -6q8 -3 12 -12q1 -1 1 -5z" />
    <glyph glyph-name="grave" unicode="`" horiz-adv-x="580" 
d="M390 606h-59q-37 29 -80.5 76t-61.5 74v10h105q16 -32 44.5 -76.5t51.5 -71.5v-12z" />
    <glyph glyph-name="a" unicode="a" horiz-adv-x="344" 
d="M360 108q0 -10 -9 -13q-2 -1 -3.5 -0.5t-2.5 0.5q-7 -2 -10 -5l-10 -14l-33 -45l-31 -40q-14 -16 -39 -36q-21 -16 -43 -23q-18 -4 -27 -4q-33 0 -54 23q-13 13 -23 35q-9 25 -12 51q0 1 -0.5 4t-2.5 4q-4 -3 -6 -11q-10 -30 -17 -43q-6 -12 -16 -27q-7 -11 -15 -16
q-6 -6 -16 -6q-13 0 -19 9q-1 3 -3 6.5t-3 7.5q-4 13 -4 29q0 8 2 22q3 24 11 54q20 66 49 123q12 22 20 31q7 9 16 13q2 1 7 1q7 0 13 -6q3 -3 5 -9q4 -10 3 -22q-4 -25 -7 -41v-2q-4 -8 -10 -8q-4 0 -7.5 3t-3.5 7v2q0 9 2.5 20.5t3.5 18.5q1 3 0.5 5t-0.5 4t-1 2h-2
q-3 0 -8 -7q-12 -20 -17 -31q-28 -54 -44 -110q-11 -38 -11 -64q0 -10 2 -28q0 -2 4 -8q2 -2 4 -1l7 5q5 5 9.5 13t6.5 11q13 25 21 53q4 13 9.5 33t8.5 31l6 19q3 5 9 5q3 0 6 -2.5t4 -5.5l1 -13v-48q1 -28 9 -57q2 -7 8 -21q8 -13 11 -16q16 -22 43 -22q10 0 16 1
q16 4 32 14q19 12 34 28q19 18 43 51l31 45l19 24q8 8 12 10q3 3 8 3t9 -3.5t5 -9.5v-3z" />
    <glyph glyph-name="a" unicode="&#xe5;" horiz-adv-x="344" 
d="M360 108q0 -10 -9 -13q-2 -1 -3.5 -0.5t-2.5 0.5q-7 -2 -10 -5l-10 -14l-33 -45l-31 -40q-14 -16 -39 -36q-21 -16 -43 -23q-18 -4 -27 -4q-33 0 -54 23q-13 13 -23 35q-9 25 -12 51q0 1 -0.5 4t-2.5 4q-4 -3 -6 -11q-10 -30 -17 -43q-6 -12 -16 -27q-7 -11 -15 -16
q-6 -6 -16 -6q-13 0 -19 9q-1 3 -3 6.5t-3 7.5q-4 13 -4 29q0 8 2 22q3 24 11 54q20 66 49 123q12 22 20 31q7 9 16 13q2 1 7 1q7 0 13 -6q3 -3 5 -9q4 -10 3 -22q-4 -25 -7 -41v-2q-4 -8 -10 -8q-4 0 -7.5 3t-3.5 7v2q0 9 2.5 20.5t3.5 18.5q1 3 0.5 5t-0.5 4t-1 2h-2
q-3 0 -8 -7q-12 -20 -17 -31q-28 -54 -44 -110q-11 -38 -11 -64q0 -10 2 -28q0 -2 4 -8q2 -2 4 -1l7 5q5 5 9.5 13t6.5 11q13 25 21 53q4 13 9.5 33t8.5 31l6 19q3 5 9 5q3 0 6 -2.5t4 -5.5l1 -13v-48q1 -28 9 -57q2 -7 8 -21q8 -13 11 -16q16 -22 43 -22q10 0 16 1
q16 4 32 14q19 12 34 28q19 18 43 51l31 45l19 24q8 8 12 10q3 3 8 3t9 -3.5t5 -9.5v-3z" />
    <glyph glyph-name="a" unicode="&#xe4;" horiz-adv-x="344" 
d="M360 108q0 -10 -9 -13q-2 -1 -3.5 -0.5t-2.5 0.5q-7 -2 -10 -5l-10 -14l-33 -45l-31 -40q-14 -16 -39 -36q-21 -16 -43 -23q-18 -4 -27 -4q-33 0 -54 23q-13 13 -23 35q-9 25 -12 51q0 1 -0.5 4t-2.5 4q-4 -3 -6 -11q-10 -30 -17 -43q-6 -12 -16 -27q-7 -11 -15 -16
q-6 -6 -16 -6q-13 0 -19 9q-1 3 -3 6.5t-3 7.5q-4 13 -4 29q0 8 2 22q3 24 11 54q20 66 49 123q12 22 20 31q7 9 16 13q2 1 7 1q7 0 13 -6q3 -3 5 -9q4 -10 3 -22q-4 -25 -7 -41v-2q-4 -8 -10 -8q-4 0 -7.5 3t-3.5 7v2q0 9 2.5 20.5t3.5 18.5q1 3 0.5 5t-0.5 4t-1 2h-2
q-3 0 -8 -7q-12 -20 -17 -31q-28 -54 -44 -110q-11 -38 -11 -64q0 -10 2 -28q0 -2 4 -8q2 -2 4 -1l7 5q5 5 9.5 13t6.5 11q13 25 21 53q4 13 9.5 33t8.5 31l6 19q3 5 9 5q3 0 6 -2.5t4 -5.5l1 -13v-48q1 -28 9 -57q2 -7 8 -21q8 -13 11 -16q16 -22 43 -22q10 0 16 1
q16 4 32 14q19 12 34 28q19 18 43 51l31 45l19 24q8 8 12 10q3 3 8 3t9 -3.5t5 -9.5v-3z" />
    <glyph glyph-name="a" unicode="&#xe3;" horiz-adv-x="344" 
d="M360 108q0 -10 -9 -13q-2 -1 -3.5 -0.5t-2.5 0.5q-7 -2 -10 -5l-10 -14l-33 -45l-31 -40q-14 -16 -39 -36q-21 -16 -43 -23q-18 -4 -27 -4q-33 0 -54 23q-13 13 -23 35q-9 25 -12 51q0 1 -0.5 4t-2.5 4q-4 -3 -6 -11q-10 -30 -17 -43q-6 -12 -16 -27q-7 -11 -15 -16
q-6 -6 -16 -6q-13 0 -19 9q-1 3 -3 6.5t-3 7.5q-4 13 -4 29q0 8 2 22q3 24 11 54q20 66 49 123q12 22 20 31q7 9 16 13q2 1 7 1q7 0 13 -6q3 -3 5 -9q4 -10 3 -22q-4 -25 -7 -41v-2q-4 -8 -10 -8q-4 0 -7.5 3t-3.5 7v2q0 9 2.5 20.5t3.5 18.5q1 3 0.5 5t-0.5 4t-1 2h-2
q-3 0 -8 -7q-12 -20 -17 -31q-28 -54 -44 -110q-11 -38 -11 -64q0 -10 2 -28q0 -2 4 -8q2 -2 4 -1l7 5q5 5 9.5 13t6.5 11q13 25 21 53q4 13 9.5 33t8.5 31l6 19q3 5 9 5q3 0 6 -2.5t4 -5.5l1 -13v-48q1 -28 9 -57q2 -7 8 -21q8 -13 11 -16q16 -22 43 -22q10 0 16 1
q16 4 32 14q19 12 34 28q19 18 43 51l31 45l19 24q8 8 12 10q3 3 8 3t9 -3.5t5 -9.5v-3z" />
    <glyph glyph-name="a" unicode="&#xe2;" horiz-adv-x="344" 
d="M360 108q0 -10 -9 -13q-2 -1 -3.5 -0.5t-2.5 0.5q-7 -2 -10 -5l-10 -14l-33 -45l-31 -40q-14 -16 -39 -36q-21 -16 -43 -23q-18 -4 -27 -4q-33 0 -54 23q-13 13 -23 35q-9 25 -12 51q0 1 -0.5 4t-2.5 4q-4 -3 -6 -11q-10 -30 -17 -43q-6 -12 -16 -27q-7 -11 -15 -16
q-6 -6 -16 -6q-13 0 -19 9q-1 3 -3 6.5t-3 7.5q-4 13 -4 29q0 8 2 22q3 24 11 54q20 66 49 123q12 22 20 31q7 9 16 13q2 1 7 1q7 0 13 -6q3 -3 5 -9q4 -10 3 -22q-4 -25 -7 -41v-2q-4 -8 -10 -8q-4 0 -7.5 3t-3.5 7v2q0 9 2.5 20.5t3.5 18.5q1 3 0.5 5t-0.5 4t-1 2h-2
q-3 0 -8 -7q-12 -20 -17 -31q-28 -54 -44 -110q-11 -38 -11 -64q0 -10 2 -28q0 -2 4 -8q2 -2 4 -1l7 5q5 5 9.5 13t6.5 11q13 25 21 53q4 13 9.5 33t8.5 31l6 19q3 5 9 5q3 0 6 -2.5t4 -5.5l1 -13v-48q1 -28 9 -57q2 -7 8 -21q8 -13 11 -16q16 -22 43 -22q10 0 16 1
q16 4 32 14q19 12 34 28q19 18 43 51l31 45l19 24q8 8 12 10q3 3 8 3t9 -3.5t5 -9.5v-3z" />
    <glyph glyph-name="a" unicode="&#xe1;" horiz-adv-x="344" 
d="M360 108q0 -10 -9 -13q-2 -1 -3.5 -0.5t-2.5 0.5q-7 -2 -10 -5l-10 -14l-33 -45l-31 -40q-14 -16 -39 -36q-21 -16 -43 -23q-18 -4 -27 -4q-33 0 -54 23q-13 13 -23 35q-9 25 -12 51q0 1 -0.5 4t-2.5 4q-4 -3 -6 -11q-10 -30 -17 -43q-6 -12 -16 -27q-7 -11 -15 -16
q-6 -6 -16 -6q-13 0 -19 9q-1 3 -3 6.5t-3 7.5q-4 13 -4 29q0 8 2 22q3 24 11 54q20 66 49 123q12 22 20 31q7 9 16 13q2 1 7 1q7 0 13 -6q3 -3 5 -9q4 -10 3 -22q-4 -25 -7 -41v-2q-4 -8 -10 -8q-4 0 -7.5 3t-3.5 7v2q0 9 2.5 20.5t3.5 18.5q1 3 0.5 5t-0.5 4t-1 2h-2
q-3 0 -8 -7q-12 -20 -17 -31q-28 -54 -44 -110q-11 -38 -11 -64q0 -10 2 -28q0 -2 4 -8q2 -2 4 -1l7 5q5 5 9.5 13t6.5 11q13 25 21 53q4 13 9.5 33t8.5 31l6 19q3 5 9 5q3 0 6 -2.5t4 -5.5l1 -13v-48q1 -28 9 -57q2 -7 8 -21q8 -13 11 -16q16 -22 43 -22q10 0 16 1
q16 4 32 14q19 12 34 28q19 18 43 51l31 45l19 24q8 8 12 10q3 3 8 3t9 -3.5t5 -9.5v-3z" />
    <glyph glyph-name="b" unicode="b" horiz-adv-x="398" 
d="M411 109q0 -4 -3 -7t-6 -3q-2 0 -10 5q-6 5 -13 1q-3 -1 -7.5 -3t-10.5 -6l-35 -23q-55 -38 -139 -105l-4 -3q-5 -3 -5 -9q0 -5 2 -13l1 -20q0 -31 -9 -61q-15 -50 -57 -82q-16 -13 -32 -18q-3 0 -7 -2q-14 -2 -24.5 5.5t-11.5 21.5l-1 10q0 10 3 21q6 24 18 45
q17 31 43 58q11 12 35 34l13 12q5 3 3 8q-7 22 -12 30q-3 6 -8 11q-8 9 -18 9l-8 -2q-11 -3 -21 -11q-12 -9 -26 -24q-26 -29 -47 -69l-17 -31q-2 -4 -8 -10q-2 -2 -6 -2q-8 0 -10 7q-1 3 -1 10l1 23v0l8 99l5 66l8 71q6 46 10 74q12 82 20 122q7 44 25 130q27 124 61 215
q26 67 49 106q18 29 33 45q12 12 20 16t12 5h7q14 0 25 -12q8 -8 13 -20q7 -19 10 -43q2 -22 2 -32q0 -31 -9 -78q-10 -45 -31 -101q-23 -62 -75 -182q-67 -155 -127 -277l-12 -29q-4 -9 -13 -9h-2q-2 0 -4 -2t-2 -4l-5 -44l-6 -81v-14l0.5 -0.5l0.5 -0.5q3 0 4 1l12 19
q21 34 46 59q19 16 26 20q10 7 20 8q5 2 13 2q20 0 33 -16q8 -8 15 -24q2 -5 4 -9t3 -7l4 -2l9 6q43 34 91 70q20 15 62 43q8 6 26 16q9 5 19 6h4q14 0 21 -10q3 -4 3 -9zM12 116l4 5l7 14q43 86 97 208l10 24q45 101 71 167q29 75 39 108q21 65 21 115q0 21 -5 48
q-4 17 -10 27q-4 6 -7 9q-4 5 -12 3q-6 -2 -8 -4q-10 -6 -18 -17q-14 -18 -20 -28q-16 -25 -35 -69q-32 -72 -57 -169q-18 -70 -34 -149q-15 -71 -28 -159l-12 -90l-5 -35q0 -6 2 -8zM160 -85q0 15 -1 22l-2 4q-3 0 -4 -1q-38 -31 -62 -65q-13 -19 -22 -41q-7 -15 -10 -34
v-4q0 -3 2 -9q2 -7 10 -7q10 0 20 7q41 25 59 70q10 27 10 58z" />
    <glyph glyph-name="c" unicode="c" horiz-adv-x="349" 
d="M361 106q0 -5 -5 -10q-6 -3 -8 -3h-2q-7 0 -16 -7q-67 -61 -65 -59q-34 -31 -62 -51q-32 -25 -60 -40q-23 -13 -43 -17q-6 -2 -18 -2q-21 0 -39 10t-29 28q-10 18 -14 35q-7 25 -7 64q0 48 12 84q4 15 12 31q8 14 13 20q4 5 14 11q6 3 13 3q12 0 21 -11q5 -7 7 -18v-10
q0 -7 -2 -23t-4 -24v-2q-2 -3 -5 -5.5t-6 -2.5q-4 0 -7 3.5t-3 8.5q0 3 2 11q4 22 5 33q1 1 1 3q0 6 -3 12q-2 3 -5.5 4t-5.5 -1q-7 -6 -10 -9q-10 -13 -14 -27q-12 -33 -15 -69v-22q0 -32 5 -53q3 -16 9 -29q7 -12 13 -18q16 -16 35 -17h6q15 0 27 4q15 5 41 21
q42 27 71 52l41 37l59 54q8 8 17 14l4 2t5 1q11 0 14 -12q1 -1 1 -4z" />
    <glyph glyph-name="c" unicode="&#xe7;" horiz-adv-x="349" 
d="M361 106q0 -5 -5 -10q-6 -3 -8 -3h-2q-7 0 -16 -7q-67 -61 -65 -59q-34 -31 -62 -51q-32 -25 -60 -40q-23 -13 -43 -17q-6 -2 -18 -2q-21 0 -39 10t-29 28q-10 18 -14 35q-7 25 -7 64q0 48 12 84q4 15 12 31q8 14 13 20q4 5 14 11q6 3 13 3q12 0 21 -11q5 -7 7 -18v-10
q0 -7 -2 -23t-4 -24v-2q-2 -3 -5 -5.5t-6 -2.5q-4 0 -7 3.5t-3 8.5q0 3 2 11q4 22 5 33q1 1 1 3q0 6 -3 12q-2 3 -5.5 4t-5.5 -1q-7 -6 -10 -9q-10 -13 -14 -27q-12 -33 -15 -69v-22q0 -32 5 -53q3 -16 9 -29q7 -12 13 -18q16 -16 35 -17h6q15 0 27 4q15 5 41 21
q42 27 71 52l41 37l59 54q8 8 17 14l4 2t5 1q11 0 14 -12q1 -1 1 -4z" />
    <glyph glyph-name="d" unicode="d" horiz-adv-x="233" 
d="M310 725q0 -28 -5 -63q-6 -57 -16 -103q-15 -84 -51 -185q-41 -115 -106 -235l-6 -12q-5 -8 -5 -17q-1 -6 -3.5 -14t-2.5 -14v-2q0 -16 -1 -24q-2 -48 -2 -71q-1 -11 -1 -32q-3 -74 -3 -147q0 -70 4 -126q0 -23 7 -43v-2q0 -6 -4 -7q-1 -1 -4 -1q-5 0 -8 3q-4 8 -5 12
l-4 42l-1 38q-2 62 -2 93q0 33 1 50l2 91q0 27 1 46.5t2 32.5v33l-0.5 0.5l-0.5 0.5h-2l-10 -15q-45 -72 -52 -82q-10 -16 -23 -32q-8 -11 -20 -21q-6 -8 -16 -11q-6 -3 -11 -3q-7 0 -13.5 4.5t-9.5 12.5q-5 16 -3 33q7 69 38 133q12 23 23 36q24 29 57 39q14 4 20 4
q9 0 21 -5q4 -2 6 -2q1 -1 3 0t2 3v5q8 74 13 112q4 29 10 79q24 155 49 246q11 44 27 82q11 30 27 53q8 13 22 27q11 9 22 12h5q12 0 18 -9q5 -7 7 -16q4 -13 4 -29zM100 130q-2 9 -9 14t-17 5q-13 0 -31 -9q-18 -10 -36 -33q-12 -15 -22 -38q-19 -40 -27 -86
q-3 -11 -5 -34v-14l2 -6q3 -10 12 -6q12 6 20 17q5 7 12 16t16 21q35 52 79 130q4 8 5 12q3 4 1 11zM289 713v20v11l-2 9q-1 4 -4.5 5.5t-7.5 -0.5l-9 -6l-16 -18q-8 -11 -20 -35q-10 -23 -22 -55q-17 -50 -39 -154q-15 -74 -23 -137q-6 -38 -16 -116q-2 -12 -4 -32l-2 -29
q0 -1 2 -3q2 0 2 1q6 8 8 13q54 106 88 207q29 81 43 157q10 42 16 94q6 44 6 68z" />
    <glyph glyph-name="e" unicode="e" horiz-adv-x="308" 
d="M321 129q1 -3 0 -5q-1 -3 -5 -9l-15 -19q-31 -39 -45 -55q-37 -46 -88 -76q-34 -18 -53 -22q-13 -4 -30 -4q-15 0 -27 4q-37 10 -58 48q-7 13 -12 31q-6 28 -5 42q0 32 10 58q6 20 20 33q8 8 16 12t14 4t11 -4q11 -7 11 -20q0 -10 -6 -26q-10 -29 -35 -53l-13 -12
q-6 -4 -6 -11q0 -16 9 -38q4 -10 9 -15q24 -34 62 -34q5 0 19 2q20 3 47 18q51 28 88 73q12 14 34 44l15 19l13 17l7 5q5 3 10 -2q2 -2 3 -5zM5 87l1 -2q1 0 2 -0.5t2 0.5q20 15 30 45q2 4 4 12q0 3 -3 6q-3 0 -5 -1q-6 -2 -13 -11q-13 -17 -18 -45v-4z" />
    <glyph glyph-name="e" unicode="&#xeb;" horiz-adv-x="308" 
d="M321 129q1 -3 0 -5q-1 -3 -5 -9l-15 -19q-31 -39 -45 -55q-37 -46 -88 -76q-34 -18 -53 -22q-13 -4 -30 -4q-15 0 -27 4q-37 10 -58 48q-7 13 -12 31q-6 28 -5 42q0 32 10 58q6 20 20 33q8 8 16 12t14 4t11 -4q11 -7 11 -20q0 -10 -6 -26q-10 -29 -35 -53l-13 -12
q-6 -4 -6 -11q0 -16 9 -38q4 -10 9 -15q24 -34 62 -34q5 0 19 2q20 3 47 18q51 28 88 73q12 14 34 44l15 19l13 17l7 5q5 3 10 -2q2 -2 3 -5zM5 87l1 -2q1 0 2 -0.5t2 0.5q20 15 30 45q2 4 4 12q0 3 -3 6q-3 0 -5 -1q-6 -2 -13 -11q-13 -17 -18 -45v-4z" />
    <glyph glyph-name="e" unicode="&#xea;" horiz-adv-x="308" 
d="M321 129q1 -3 0 -5q-1 -3 -5 -9l-15 -19q-31 -39 -45 -55q-37 -46 -88 -76q-34 -18 -53 -22q-13 -4 -30 -4q-15 0 -27 4q-37 10 -58 48q-7 13 -12 31q-6 28 -5 42q0 32 10 58q6 20 20 33q8 8 16 12t14 4t11 -4q11 -7 11 -20q0 -10 -6 -26q-10 -29 -35 -53l-13 -12
q-6 -4 -6 -11q0 -16 9 -38q4 -10 9 -15q24 -34 62 -34q5 0 19 2q20 3 47 18q51 28 88 73q12 14 34 44l15 19l13 17l7 5q5 3 10 -2q2 -2 3 -5zM5 87l1 -2q1 0 2 -0.5t2 0.5q20 15 30 45q2 4 4 12q0 3 -3 6q-3 0 -5 -1q-6 -2 -13 -11q-13 -17 -18 -45v-4z" />
    <glyph glyph-name="e" unicode="&#xe9;" horiz-adv-x="308" 
d="M321 129q1 -3 0 -5q-1 -3 -5 -9l-15 -19q-31 -39 -45 -55q-37 -46 -88 -76q-34 -18 -53 -22q-13 -4 -30 -4q-15 0 -27 4q-37 10 -58 48q-7 13 -12 31q-6 28 -5 42q0 32 10 58q6 20 20 33q8 8 16 12t14 4t11 -4q11 -7 11 -20q0 -10 -6 -26q-10 -29 -35 -53l-13 -12
q-6 -4 -6 -11q0 -16 9 -38q4 -10 9 -15q24 -34 62 -34q5 0 19 2q20 3 47 18q51 28 88 73q12 14 34 44l15 19l13 17l7 5q5 3 10 -2q2 -2 3 -5zM5 87l1 -2q1 0 2 -0.5t2 0.5q20 15 30 45q2 4 4 12q0 3 -3 6q-3 0 -5 -1q-6 -2 -13 -11q-13 -17 -18 -45v-4z" />
    <glyph glyph-name="e" unicode="&#xe8;" horiz-adv-x="308" 
d="M321 129q1 -3 0 -5q-1 -3 -5 -9l-15 -19q-31 -39 -45 -55q-37 -46 -88 -76q-34 -18 -53 -22q-13 -4 -30 -4q-15 0 -27 4q-37 10 -58 48q-7 13 -12 31q-6 28 -5 42q0 32 10 58q6 20 20 33q8 8 16 12t14 4t11 -4q11 -7 11 -20q0 -10 -6 -26q-10 -29 -35 -53l-13 -12
q-6 -4 -6 -11q0 -16 9 -38q4 -10 9 -15q24 -34 62 -34q5 0 19 2q20 3 47 18q51 28 88 73q12 14 34 44l15 19l13 17l7 5q5 3 10 -2q2 -2 3 -5zM5 87l1 -2q1 0 2 -0.5t2 0.5q20 15 30 45q2 4 4 12q0 3 -3 6q-3 0 -5 -1q-6 -2 -13 -11q-13 -17 -18 -45v-4z" />
    <glyph glyph-name="f" unicode="f" horiz-adv-x="274" 
d="M287.5 126q1.5 -4 0.5 -7l-3 -6l-6 -9q-45 -51 -83 -91q-22 -23 -58 -52q-35 -27 -72 -51q-40 -28 -83 -47q-4 -2 -5 -4t1 -6q50 -79 79 -201q14 -63 22 -137q5 -53 5 -96q0 -22 -2 -70q-1 -21 -7 -63q-6 -44 -10 -70q-6 -37 -18 -71q-4 -13 -14 -30q-5 -8 -12 -12
q-7 -5 -13 -5q-4 0 -12 4q-7 4 -13 12t-16 26q-11 24 -20 63q-10 43 -15 87q-9 66 -9 177q0 78 6 156q3 49 9 99q0 8 2 22l9 88q1 5 1 15q0 6 -5 6l-11 1q-8 2 -12 6q-6 4 -6 12q0 6 7 13q6 4 11 4q4 0 9.5 -1.5t8.5 -2.5l3 3l3 11q8 71 19 131q19 116 40 183q13 43 26 70
q5 11 17 31q6 10 17 18q6 4 11 4q10 0 16 -9q4 -6 4 -10q4 -16 4 -24q0 -29 -8 -59q-6 -20 -20 -44l-1 -2q-5 -7 -14 -3q-4 2 -5.5 5.5t-0.5 7.5l7 14q20 35 20 84q0 9 -3 13q-1 2 -4 1l-7 -8q-8 -13 -20 -39q-21 -50 -35 -110q-14 -52 -27 -138q-6 -35 -16 -105l-2 -18
q0 -6 4 -6q3 0 13 5l21 12q66 39 124 88q29 23 53 50l71 79l9 10q2 2 6 2.5t6 -1.5q2 -1 3.5 -5zM-24 -184q-2 4 -6 6q-2 -4 -3 -9.5t-1 -7.5q-1 -8 -2 -16.5t-2 -16.5l-6 -64l-3 -32q-2 -30 -4 -43q-3 -33 -4 -58t-2 -41q-1 -25 -1 -76q0 -50 3 -101q8 -80 15 -118
q9 -47 21 -79q6 -16 15 -29q1 -2 9 -10q1 -1 3.5 -1t4.5 1l4 5l11 22q9 26 16 62q10 56 14 98q6 54 6 109q0 52 -6 103q-6 59 -18 118q-18 79 -44 138q-6 14 -20 40z" />
    <glyph glyph-name="g" unicode="g" horiz-adv-x="383" 
d="M396 114q0 -4 -2.5 -7t-5.5 -3l-7 1l-3 1q-5 0 -9 -4l-18 -16l-48 -50q-53 -57 -123 -139l-5 -7q-4 -4 -4 -11q0 -9 1 -14l1 -16l6 -127v-76v-44q0 -57 -8 -121q-7 -56 -23 -117q-18 -63 -41 -110q-17 -35 -34 -59q-19 -27 -44 -47q-31 -23 -70 -31q-5 -1 -14 -1
q-13 0 -30 5q-21 8 -32 25q-13 18 -18 40q-8 30 -9 59q-4 93 24 190q16 58 53 133q45 94 110 187q36 53 83 111l17 21q5 5 5 12q0 11 -2 35l-7 72q-1 8 -3.5 29.5t-6.5 38.5q-2 3 -4 1l-7 -8l-20 -24l-20 -24q-11 -14 -27 -25q-15 -11 -28 -14q-6 -2 -9 -2q-20 0 -29 20
q-5 13 -5 32q0 22 6 44q16 68 53 133q8 14 13 20q7 8 18 13q8 4 19 2q17 -4 31 -18q7 -6 7 -17q0 -7 -3 -16q-2 -5 -7 -8q-3 -2 -8 0q-9 6 -9 15l1 10q1 4 -3 8l-10 5l-6 1q-7 0 -12 -6q-8 -8 -17 -24q-28 -53 -44 -107q-7 -24 -9 -48q-1 -2 -1 -7q0 -10 3 -22l2 -4
q3 -5 9 -5h1q6 0 12 3q15 7 25 18q13 13 25 28l36 45l9 9q3 4 9 4q8 0 12 -6q5 -7 6 -15q4 -16 8 -52l8 -70l2 -22l1 -16l3 -3l4 2q2 1 4 5l30 33l68 78q21 23 65 67q8 9 22 18q5 4 14 4q6 0 9 -1q7 -3 9 -7q1 -2 1 -7zM161 -352l-1 39l-5 115q0 16 -1 28t-2 20q0 3 -1 4
l-1 2h-2q-3 -4 -6.5 -7t-5.5 -6q-46 -57 -68 -90q-74 -104 -121 -203q-27 -58 -45 -113q-26 -83 -26 -166q0 -12 2 -36q2 -26 9 -50q3 -15 13 -28q13 -18 31 -19q10 -2 14 -2q7 0 23 4q32 8 59 34q19 18 34 40q19 30 38 72q47 110 57 246q5 65 5 116z" />
    <glyph glyph-name="h" unicode="h" horiz-adv-x="456" 
d="M464 106q0 -3 -3 -8l-38 -57q-49 -69 -88 -119q-18 -23 -36 -41q-1 -1 -22 -19q-15 -10 -30 -14q-9 -3 -17 -3q-23 0 -41 19q-9 9 -15 21q-10 22 -14 33l-21 58q-4 10 -14 30q-1 3 -5 7q-1 1 -3 1t-3 -1l-8 -10q-17 -30 -20 -35q-19 -37 -35 -78l-13 -29q-4 -8 -8 -12
q-5 -5 -11 -5q-7 0 -12 7q-4 10 -5 15q-5 15 -9 47q-4 37 -4 83q0 19 2 57q2 20 2 30l-1 16v2q0 6 1 9q2 14 4 44q4 47 7 68l10 72q12 81 37 177q30 115 65 204q11 31 28 63q15 30 31 50q22 27 44 40q21 14 40 14q22 0 32 -19q7 -14 7 -27q1 -7 1 -22q0 -20 -3 -40
q-7 -41 -27 -105q-30 -91 -76 -188q-65 -142 -134 -261q-15 -28 -35 -59q-10 -15 -10 -29l-3 -28l-1 -95q0 -23 6 -69q2 -14 5 -21q2 2 7 12l22 53q17 38 34 65q4 7 14 19q9 10 19 10t21 -11l11 -19l17 -44l15 -43l12 -27q2 -4 9 -14q11 -14 28 -14q7 0 16 3q9 2 21 12
q15 11 30 29q26 30 38 46l78 110q7 10 12 18.5t10 15.5q3 6 9 12q1 1 7 4h3q6 0 7 -3q3 -3 3 -7zM19 165q0 -2 3 -2l2 1l15 24q53 94 114 220q50 101 86 201q17 47 26 84q12 52 13 79l-2 26q-1 5 -5 15q-1 3 -5 5t-8 2q-9 0 -27 -10q-25 -16 -41 -39q-14 -16 -25 -39
q-16 -30 -31 -69q-38 -99 -66 -210q-21 -83 -32 -156q-5 -28 -9.5 -64t-6.5 -50q0 -12 -1 -18z" />
    <glyph glyph-name="i" unicode="i" horiz-adv-x="154" 
d="M167 118q3 -4 2 -8l-1 -4l-33 -70q-16 -32 -26 -47q-12 -16 -19 -24q-10 -13 -28 -21q-12 -5 -22 -5q-17 0 -28 14q-6 7 -9 18q-6 16 -8 29q-7 38 -6 58q0 30 4 50l1 7q1 6 10 8q4 0 7 -2.5t4 -6.5q4 -11 0 -17q-4 -11 -4 -24q-3 -45 9 -87l6 -17q5 -10 16 -10
q14 0 28 14q11 9 18 21q14 19 30 52l23 53q2 5 9 17q2 4 9 6q5 0 8 -4zM15 218q-3 5 -2 8q0 3 2 7q25 39 35 51l12 12q4 3 8 3h2q4 0 8 -4q3 -5 1 -11l-7 -8q-11 -11 -20.5 -25.5t-12.5 -18.5l-5 -13q-3 -6 -10 -7q-8 0 -11 6z" />
    <glyph glyph-name="i" unicode="&#xef;" horiz-adv-x="154" 
d="M167 118q3 -4 2 -8l-1 -4l-33 -70q-16 -32 -26 -47q-12 -16 -19 -24q-10 -13 -28 -21q-12 -5 -22 -5q-17 0 -28 14q-6 7 -9 18q-6 16 -8 29q-7 38 -6 58q0 30 4 50l1 7q1 6 10 8q4 0 7 -2.5t4 -6.5q4 -11 0 -17q-4 -11 -4 -24q-3 -45 9 -87l6 -17q5 -10 16 -10
q14 0 28 14q11 9 18 21q14 19 30 52l23 53q2 5 9 17q2 4 9 6q5 0 8 -4zM15 218q-3 5 -2 8q0 3 2 7q25 39 35 51l12 12q4 3 8 3h2q4 0 8 -4q3 -5 1 -11l-7 -8q-11 -11 -20.5 -25.5t-12.5 -18.5l-5 -13q-3 -6 -10 -7q-8 0 -11 6z" />
    <glyph glyph-name="i" unicode="&#xee;" horiz-adv-x="154" 
d="M167 118q3 -4 2 -8l-1 -4l-33 -70q-16 -32 -26 -47q-12 -16 -19 -24q-10 -13 -28 -21q-12 -5 -22 -5q-17 0 -28 14q-6 7 -9 18q-6 16 -8 29q-7 38 -6 58q0 30 4 50l1 7q1 6 10 8q4 0 7 -2.5t4 -6.5q4 -11 0 -17q-4 -11 -4 -24q-3 -45 9 -87l6 -17q5 -10 16 -10
q14 0 28 14q11 9 18 21q14 19 30 52l23 53q2 5 9 17q2 4 9 6q5 0 8 -4zM15 218q-3 5 -2 8q0 3 2 7q25 39 35 51l12 12q4 3 8 3h2q4 0 8 -4q3 -5 1 -11l-7 -8q-11 -11 -20.5 -25.5t-12.5 -18.5l-5 -13q-3 -6 -10 -7q-8 0 -11 6z" />
    <glyph glyph-name="i" unicode="&#xed;" horiz-adv-x="154" 
d="M167 118q3 -4 2 -8l-1 -4l-33 -70q-16 -32 -26 -47q-12 -16 -19 -24q-10 -13 -28 -21q-12 -5 -22 -5q-17 0 -28 14q-6 7 -9 18q-6 16 -8 29q-7 38 -6 58q0 30 4 50l1 7q1 6 10 8q4 0 7 -2.5t4 -6.5q4 -11 0 -17q-4 -11 -4 -24q-3 -45 9 -87l6 -17q5 -10 16 -10
q14 0 28 14q11 9 18 21q14 19 30 52l23 53q2 5 9 17q2 4 9 6q5 0 8 -4zM15 218q-3 5 -2 8q0 3 2 7q25 39 35 51l12 12q4 3 8 3h2q4 0 8 -4q3 -5 1 -11l-7 -8q-11 -11 -20.5 -25.5t-12.5 -18.5l-5 -13q-3 -6 -10 -7q-8 0 -11 6z" />
    <glyph glyph-name="i" unicode="&#xec;" horiz-adv-x="154" 
d="M167 118q3 -4 2 -8l-1 -4l-33 -70q-16 -32 -26 -47q-12 -16 -19 -24q-10 -13 -28 -21q-12 -5 -22 -5q-17 0 -28 14q-6 7 -9 18q-6 16 -8 29q-7 38 -6 58q0 30 4 50l1 7q1 6 10 8q4 0 7 -2.5t4 -6.5q4 -11 0 -17q-4 -11 -4 -24q-3 -45 9 -87l6 -17q5 -10 16 -10
q14 0 28 14q11 9 18 21q14 19 30 52l23 53q2 5 9 17q2 4 9 6q5 0 8 -4zM15 218q-3 5 -2 8q0 3 2 7q25 39 35 51l12 12q4 3 8 3h2q4 0 8 -4q3 -5 1 -11l-7 -8q-11 -11 -20.5 -25.5t-12.5 -18.5l-5 -13q-3 -6 -10 -7q-8 0 -11 6z" />
    <glyph glyph-name="j" unicode="j" horiz-adv-x="310" 
d="M311.5 123q5.5 -6 5.5 -14q0 -4 -3 -10q-3 -5 -9 -5q-5 0 -8 3l-3 3q-3 4 -8 2q-4 -3 -9.5 -6.5t-12.5 -8.5q-15 -11 -43 -35q-113 -101 -202 -213l-6 -9q-4 -4 -6 -14q-2 -52 -4 -80l-7 -97q-4 -44 -5 -66q-3 -35 -13 -105q-9 -63 -24 -126q-13 -58 -26 -93
q-9 -29 -23 -55q-12 -22 -24 -37q-17 -19 -34 -28q-15 -9 -33 -9q-19 0 -35 14q-10 10 -15 19q-8 16 -12 31q-9 33 -10 59q-1 9 -1 29q0 15 2 41q5 38 15 74q20 73 53 150q59 141 158 272l12 16q8 9 8 25l1 64v161v2q0 18 -2 27l-1 2q0 4 4 10q3 5 9 5q4 0 6.5 -2.5
t3.5 -5.5q1 -4 1 -11v-42v-71v0l-1 -115l1 -4q1 -1 2.5 -1t3.5 2l4 5l24 29q71 83 171 173q28 25 45 35q14 10 25 14q4 2 11 2q9 0 14.5 -6zM-15 -214v2h-4q-7 -10 -8 -11q-95 -128 -152 -271q-31 -75 -45 -131q-15 -56 -15 -111q0 -17 4 -49q6 -28 12 -43q9 -16 13 -20
q10 -12 25 -12q7 0 11 1q17 6 28 17q11 9 24 29q8 11 20 37q12 28 21 60q23 79 40 188q8 54 10 81l7 72l6 98q0 7 2 19zM-13 215q-3 5 -2 9l3 6q16 29 34 51q6 8 13 12q3 3 8 3l0.5 0.5l0.5 0.5q4 0 9 -5q2 -1 2 -4.5t-2 -5.5q-4 -6 -7 -9q-11 -11 -33 -44q-2 -2 -4 -12
q-3 -7 -11 -7q-7 0 -11 5z" />
    <glyph glyph-name="k" unicode="k" horiz-adv-x="283" 
d="M286.5 108q1.5 -4 -0.5 -7l-4 -8l-51 -74q-18 -24 -37 -42q-45 -44 -115 -55q-7 -1 -21 -1q-13 0 -39 4l-6 1l-3 -3q-1 -1 -1 -4q0 -33 3 -64q0 -6 5 -9l4 -2q4 -4 4 -9q0 -9 -6 -27l-4 -5q-3 -3 -8 -3q-6 0 -9 5q-1 2 -2 3.5t-1 4.5q-4 30 -4 44l-2 108l2 102l-1 31v2
q0 14 2 40q2 16 2 24q0 9 1 13l1 38l4 88q5 69 13 123q16 98 39 161q18 50 41 86q10 18 29 41q10 11 23 21q19 13 40 13q5 0 17 -2q19 -4 32 -22t18 -45q1 -9 1 -26q0 -29 -8 -59q-7 -27 -18 -55q-24 -64 -54 -126q-50 -104 -96 -194q-17 -37 -51 -93l-9 -15q-6 -10 -6 -21
q-2 -62 -2 -93q-1 -10 -0.5 -18t0.5 -13q0 -2 2.5 -3.5t3.5 0.5q2 2 5 3.5t6 4.5q10 10 17 28q10 26 14 40q8 24 10 29q1 3 2 4.5t2 2.5q2 2 6 2.5t7 -0.5q2 -1 3.5 -3.5t1.5 -5.5l-1 -6q-4 -14 -8.5 -25t-7.5 -21q-1 -6 -4 -11q-14 -36 -35 -55q-1 -1 -1 -4q-2 -2 5 -4
l8 -1q75 -2 130 46q16 13 29 31l27 38l31 46l8 10q1 2 5.5 2.5t6.5 -1.5q3 -1 4.5 -5zM16 221l-3 -58l1 -8l0.5 -0.5l0.5 -0.5l5 4l11 20q20 36 29 54q60 120 89 180t51 118q15 38 22 62q10 33 10 61q0 18 -4 33q-3 9 -8 20q-12 21 -34 21q-4 0 -12 -2q-9 -1 -17 -8
q-11 -7 -23 -21q-13 -15 -29 -42q-28 -49 -48 -118q-27 -92 -35 -209q-2 -24 -4 -72q-2 -22 -2 -34v0z" />
    <glyph glyph-name="l" unicode="l" horiz-adv-x="119" 
d="M203 613q0 -40 -8 -83q-17 -94 -66 -208q-18 -42 -58 -122q-36 -70 -53 -105q-6 -13 -8.5 -19.5t-2.5 -13.5v-13q-2 -64 -2 -97q0 -52 2 -78q1 -30 5 -92l4 -27q0 -8 7 -9l5 -4q4 -4 4 -6q0 -11 -7 -21q-3 -4 -9 -4t-9 5l-4 10q-8 30 -9 59q-6 84 -7 126l-1 31h-1l3 86
v18l2 50q2 46 4 69q4 53 7 83q1 8 2 21t4 30q20 164 81 315q4 10 20 42l15 22q8 10 16 15q12 6 21 6q17 0 29 -16q10 -15 12 -35q2 -22 2 -35zM183 617q0 17 -3 33q-2 10 -6 17q-6 11 -14 11q-6 0 -13 -5q-6 -5 -16 -19q-14 -24 -19 -37q-14 -31 -32 -82q-33 -98 -47 -191
q-8 -46 -10 -70q-3 -22 -7 -66l-3 -39q-2 -19 -1 -29q4 1 5.5 4t2.5 4l54 106q41 82 68 160q33 97 40 177z" />
    <glyph glyph-name="m" unicode="m" horiz-adv-x="457" 
d="M468 106q0 -7 -5 -14q-3 -4 -7 -5t-8 2q-3 1 -7 5q-21 -13 -36 -30q-16 -18 -23 -27l-48 -61q-8 -10 -26 -30q-12 -10 -21 -12q-2 -1 -7 -1q-10 0 -17 7q-5 4 -9 15q-5 12 -9 34q-5 30 -5 53q0 10 -2 26q0 6 -5 8l-6 -9l-22 -41l-32 -58l-12 -18q-2 -3 -8 -7q-7 -5 -12 1
q-4 4 -5 7q-1 2 -1 6q-1 3 -1 8q0 28 4 82q2 24 2 36q2 28 4 80v10q0 12 -1 18q-1 3 -4 3t-6 -5l-16 -18q-87 -113 -133 -239l-14 -39l-6 -12q-2 -4 -8 -4q-2 0 -5 3t-3 5q0 13 1 20q15 93 41 199q2 12 4 17q2 8 -1 13q-2 7 1 13q6 18 10 27l3 6q4 4 9 4q4 0 7.5 -3t3.5 -7
q0 -9 -1 -13l-14 -53l-22 -95q-2 -5 1 -9l9 18q41 86 104 167l15 16q3 3 10 9q5 4 13 4q13 0 19 -14q3 -12 3 -23q0 -29 -1 -43q-2 -24 -2 -35q-2 -22 -2 -33q-4 -46 -4 -69l1 -13l1 -2l4 2l11 18l34 65l15 25q3 5 9 9q3 3 8 3q6 0 10 -4q4 -6 5 -9q5 -11 5 -29l4 -64
q1 -15 6 -32q1 -3 7 -14q1 -2 4 -3t5 0l9 6l26 28l47 61l27 32q14 17 40 35q6 5 16 8h3q5 0 9.5 -3.5t5.5 -9.5z" />
    <glyph glyph-name="n" unicode="n" horiz-adv-x="344" 
d="M357 111q0 -5 -3 -10t-8 -6q-3 -1 -6 0q-6 2 -9 4l-9 -6l-36 -33l-42 -42q-15 -16 -31 -31q-6 -5 -10.5 -8.5t-8.5 -6.5l-9 -6q-10 -5 -18 -5q-12 0 -23 9q-22 19 -32 45q-7 21 -12 42l-6 24q0 2 -3 2t-4 -1l-13 -21l-52 -89l-18 -28q-5 -6 -11 -11q-3 -3 -7 -3
q-8 0 -13 9l-1 7v1q0 12 1 18q3 33 9 66q6 50 16 91q9 43 17 66q2 7 8 19q1 4 8 7h4q4 0 7.5 -2t3.5 -6q1 -3 1 -9q0 -13 -10 -21q-5 -4 -8 -11q-6 -22 -17 -75q-5 -24 -10 -57t-8 -50q0 -1 -0.5 -4.5t1.5 -6.5q1 1 2 1t1 1l9 13l47 82l15 24q5 8 10 12q6 7 14 7
q10 0 15 -11q4 -7 5 -14l9 -37q3 -12 8 -29q7 -20 26 -36q2 -2 3 -2q9 -4 13 -2l10 5q18 15 19 16l31 31q11 11 21.5 22t21.5 22q11 12 35 34q13 11 24 15q2 1 7 1q9 0 14 -8z" />
    <glyph glyph-name="n" unicode="&#xf1;" horiz-adv-x="344" 
d="M357 111q0 -5 -3 -10t-8 -6q-3 -1 -6 0q-6 2 -9 4l-9 -6l-36 -33l-42 -42q-15 -16 -31 -31q-6 -5 -10.5 -8.5t-8.5 -6.5l-9 -6q-10 -5 -18 -5q-12 0 -23 9q-22 19 -32 45q-7 21 -12 42l-6 24q0 2 -3 2t-4 -1l-13 -21l-52 -89l-18 -28q-5 -6 -11 -11q-3 -3 -7 -3
q-8 0 -13 9l-1 7v1q0 12 1 18q3 33 9 66q6 50 16 91q9 43 17 66q2 7 8 19q1 4 8 7h4q4 0 7.5 -2t3.5 -6q1 -3 1 -9q0 -13 -10 -21q-5 -4 -8 -11q-6 -22 -17 -75q-5 -24 -10 -57t-8 -50q0 -1 -0.5 -4.5t1.5 -6.5q1 1 2 1t1 1l9 13l47 82l15 24q5 8 10 12q6 7 14 7
q10 0 15 -11q4 -7 5 -14l9 -37q3 -12 8 -29q7 -20 26 -36q2 -2 3 -2q9 -4 13 -2l10 5q18 15 19 16l31 31q11 11 21.5 22t21.5 22q11 12 35 34q13 11 24 15q2 1 7 1q9 0 14 -8z" />
    <glyph glyph-name="o" unicode="o" horiz-adv-x="248" 
d="M260 112q0 -6 -4 -8l-4 -3l-35 -12q-12 -2 -17 -2q-6 0 -16 2q-27 3 -48 10q-12 4 -34 16q-1 1 -4 3t-6 1q-2 -4 -2 -7q0 -31 -3 -47q-12 -63 -47 -116q-6 -9 -14 -17q-4 -5 -10 -8t-10 -3q-11 0 -17 9l-4 8q-4 13 -5 17q-3 25 -3 52q0 61 24 138l14 35l7 11q3 3 8 3l2 1
q8 0 10 -7q3 -6 3 -11l-3 -24q-1 -7 -9 -9h-4q-6 0 -8 -6q-5 -15 -13 -45q-11 -47 -11 -91q0 -14 1 -21q0 -16 5 -34q1 -2 3.5 -3t4.5 1l12 15q34 52 44 110q2 12 2 35q0 20 -1 29q0 5 -4 13q-2 6 -1 11q1 4 7 8q6 1 10 -3l6 -7q3 -7 9 -12q32 -26 76 -34q18 -3 26 -3
q10 0 34 9q13 4 17 5l2 1q5 0 9 -6z" />
    <glyph glyph-name="o" unicode="&#xf8;" horiz-adv-x="248" 
d="M260 112q0 -6 -4 -8l-4 -3l-35 -12q-12 -2 -17 -2q-6 0 -16 2q-27 3 -48 10q-12 4 -34 16q-1 1 -4 3t-6 1q-2 -4 -2 -7q0 -31 -3 -47q-12 -63 -47 -116q-6 -9 -14 -17q-4 -5 -10 -8t-10 -3q-11 0 -17 9l-4 8q-4 13 -5 17q-3 25 -3 52q0 61 24 138l14 35l7 11q3 3 8 3l2 1
q8 0 10 -7q3 -6 3 -11l-3 -24q-1 -7 -9 -9h-4q-6 0 -8 -6q-5 -15 -13 -45q-11 -47 -11 -91q0 -14 1 -21q0 -16 5 -34q1 -2 3.5 -3t4.5 1l12 15q34 52 44 110q2 12 2 35q0 20 -1 29q0 5 -4 13q-2 6 -1 11q1 4 7 8q6 1 10 -3l6 -7q3 -7 9 -12q32 -26 76 -34q18 -3 26 -3
q10 0 34 9q13 4 17 5l2 1q5 0 9 -6z" />
    <glyph glyph-name="o" unicode="&#xf6;" horiz-adv-x="248" 
d="M260 112q0 -6 -4 -8l-4 -3l-35 -12q-12 -2 -17 -2q-6 0 -16 2q-27 3 -48 10q-12 4 -34 16q-1 1 -4 3t-6 1q-2 -4 -2 -7q0 -31 -3 -47q-12 -63 -47 -116q-6 -9 -14 -17q-4 -5 -10 -8t-10 -3q-11 0 -17 9l-4 8q-4 13 -5 17q-3 25 -3 52q0 61 24 138l14 35l7 11q3 3 8 3l2 1
q8 0 10 -7q3 -6 3 -11l-3 -24q-1 -7 -9 -9h-4q-6 0 -8 -6q-5 -15 -13 -45q-11 -47 -11 -91q0 -14 1 -21q0 -16 5 -34q1 -2 3.5 -3t4.5 1l12 15q34 52 44 110q2 12 2 35q0 20 -1 29q0 5 -4 13q-2 6 -1 11q1 4 7 8q6 1 10 -3l6 -7q3 -7 9 -12q32 -26 76 -34q18 -3 26 -3
q10 0 34 9q13 4 17 5l2 1q5 0 9 -6z" />
    <glyph glyph-name="o" unicode="&#xf5;" horiz-adv-x="248" 
d="M260 112q0 -6 -4 -8l-4 -3l-35 -12q-12 -2 -17 -2q-6 0 -16 2q-27 3 -48 10q-12 4 -34 16q-1 1 -4 3t-6 1q-2 -4 -2 -7q0 -31 -3 -47q-12 -63 -47 -116q-6 -9 -14 -17q-4 -5 -10 -8t-10 -3q-11 0 -17 9l-4 8q-4 13 -5 17q-3 25 -3 52q0 61 24 138l14 35l7 11q3 3 8 3l2 1
q8 0 10 -7q3 -6 3 -11l-3 -24q-1 -7 -9 -9h-4q-6 0 -8 -6q-5 -15 -13 -45q-11 -47 -11 -91q0 -14 1 -21q0 -16 5 -34q1 -2 3.5 -3t4.5 1l12 15q34 52 44 110q2 12 2 35q0 20 -1 29q0 5 -4 13q-2 6 -1 11q1 4 7 8q6 1 10 -3l6 -7q3 -7 9 -12q32 -26 76 -34q18 -3 26 -3
q10 0 34 9q13 4 17 5l2 1q5 0 9 -6z" />
    <glyph glyph-name="o" unicode="&#xf4;" horiz-adv-x="248" 
d="M260 112q0 -6 -4 -8l-4 -3l-35 -12q-12 -2 -17 -2q-6 0 -16 2q-27 3 -48 10q-12 4 -34 16q-1 1 -4 3t-6 1q-2 -4 -2 -7q0 -31 -3 -47q-12 -63 -47 -116q-6 -9 -14 -17q-4 -5 -10 -8t-10 -3q-11 0 -17 9l-4 8q-4 13 -5 17q-3 25 -3 52q0 61 24 138l14 35l7 11q3 3 8 3l2 1
q8 0 10 -7q3 -6 3 -11l-3 -24q-1 -7 -9 -9h-4q-6 0 -8 -6q-5 -15 -13 -45q-11 -47 -11 -91q0 -14 1 -21q0 -16 5 -34q1 -2 3.5 -3t4.5 1l12 15q34 52 44 110q2 12 2 35q0 20 -1 29q0 5 -4 13q-2 6 -1 11q1 4 7 8q6 1 10 -3l6 -7q3 -7 9 -12q32 -26 76 -34q18 -3 26 -3
q10 0 34 9q13 4 17 5l2 1q5 0 9 -6z" />
    <glyph glyph-name="o" unicode="&#xf3;" horiz-adv-x="248" 
d="M260 112q0 -6 -4 -8l-4 -3l-35 -12q-12 -2 -17 -2q-6 0 -16 2q-27 3 -48 10q-12 4 -34 16q-1 1 -4 3t-6 1q-2 -4 -2 -7q0 -31 -3 -47q-12 -63 -47 -116q-6 -9 -14 -17q-4 -5 -10 -8t-10 -3q-11 0 -17 9l-4 8q-4 13 -5 17q-3 25 -3 52q0 61 24 138l14 35l7 11q3 3 8 3l2 1
q8 0 10 -7q3 -6 3 -11l-3 -24q-1 -7 -9 -9h-4q-6 0 -8 -6q-5 -15 -13 -45q-11 -47 -11 -91q0 -14 1 -21q0 -16 5 -34q1 -2 3.5 -3t4.5 1l12 15q34 52 44 110q2 12 2 35q0 20 -1 29q0 5 -4 13q-2 6 -1 11q1 4 7 8q6 1 10 -3l6 -7q3 -7 9 -12q32 -26 76 -34q18 -3 26 -3
q10 0 34 9q13 4 17 5l2 1q5 0 9 -6z" />
    <glyph glyph-name="o" unicode="&#xf2;" horiz-adv-x="248" 
d="M260 112q0 -6 -4 -8l-4 -3l-35 -12q-12 -2 -17 -2q-6 0 -16 2q-27 3 -48 10q-12 4 -34 16q-1 1 -4 3t-6 1q-2 -4 -2 -7q0 -31 -3 -47q-12 -63 -47 -116q-6 -9 -14 -17q-4 -5 -10 -8t-10 -3q-11 0 -17 9l-4 8q-4 13 -5 17q-3 25 -3 52q0 61 24 138l14 35l7 11q3 3 8 3l2 1
q8 0 10 -7q3 -6 3 -11l-3 -24q-1 -7 -9 -9h-4q-6 0 -8 -6q-5 -15 -13 -45q-11 -47 -11 -91q0 -14 1 -21q0 -16 5 -34q1 -2 3.5 -3t4.5 1l12 15q34 52 44 110q2 12 2 35q0 20 -1 29q0 5 -4 13q-2 6 -1 11q1 4 7 8q6 1 10 -3l6 -7q3 -7 9 -12q32 -26 76 -34q18 -3 26 -3
q10 0 34 9q13 4 17 5l2 1q5 0 9 -6z" />
    <glyph glyph-name="p" unicode="p" horiz-adv-x="332" 
d="M-32 -147l10 21q34 70 68 124q8 13 15 23t12 18q13 17 27 29q13 11 24 15q4 1 11 1q18 0 27 -16q5 -9 7 -23q2 -31 -3 -51l-3 -24l1 -1l6 3l44 37q55 42 91 62q15 10 17 11l8 4h2q4 0 8 -4q3 -4 1 -10q-2 -4 -4 -5q-12 -10 -16 -12q-53 -28 -128 -90l-36 -30
q-14 -14 -20 -26q-14 -28 -40 -61l-15 -16q-2 -2 -8 -4q-4 -3 -10 1q-4 6 -4 8q0 7 5 15l12 21q22 32 43 53q11 11 18 30q13 39 13 73q0 12 -5 27q-2 5 -7 6.5t-10 0.5q-8 -4 -11 -7q-6 -4 -20 -20q-17 -20 -31 -43q-39 -61 -78 -146l-19 -44q-10 -24 -16 -35
q-10 -23 -15 -58l-12 -85l-11 -88q-4 -38 -7 -57l-4 -42l-11 -92q-1 -12 -7 -60.5t-15 -90.5q-6 -30 -12 -44q-3 -10 -7 -16q-1 -3 -5 -7t-10 -4q-8 0 -12 6q-5 11 -6 14q-3 12 -5 33q0 54 3 81l5 62q3 33 13 99q13 83 36 166q24 88 50 155q8 23 13 51q12 75 32 161
q20 83 39 154q2 5 4 15q3 26 11.5 52t10.5 31q0 2 1 3.5t2 2.5q4 4 8 4q3 0 6.5 -3t3.5 -7q0 -3 -2 -9l-23 -85q-16 -48 -31 -113q-12 -43 -30 -131q-2 -7 1 -13zM-89 -358q-3 -7 -5.5 -14t-4.5 -14q-40 -138 -56 -275l-5 -50q-3 -22 -5 -67l-1 -22v-9q0 -13 4 -39l1 -1
q2 0 2 1q5 7 9 25q10 36 17 93q7 46 11 80.5t7 57.5l13 119l13 103v12z" />
    <glyph glyph-name="q" unicode="q" horiz-adv-x="401" 
d="M413 100l-6 -9l-80 -100q-35 -43 -88 -76q-57 -36 -103 -58q-12 -6 -38 -16q-3 -4 -3 -9v-6l-0.5 -0.5l-0.5 -0.5q0 -5 4 -9l14 -14q58 -59 88 -130q21 -47 32 -107q12 -59 12 -119q0 -22 -1 -33q-2 -40 -5 -59q-6 -42 -15 -85q-17 -76 -35 -133q-2 -5 -6.5 -18.5
t-10.5 -24.5q-4 -10 -12 -21q-13 -16 -28 -16t-29 18q-7 9 -15 29q-7 21 -13 45q-8 39 -10 63q-6 42 -10 128q-2 62 -2 92v36q2 92 5 137q2 42 8 134q4 41 7 64v2q0 8 -6 11q-7 6 -13.5 10.5t-11.5 7.5q-6 4 -6 10q0 4 3.5 7.5t7.5 3.5l24 2q6 0 8 7l3 17q11 84 27 168l3 20
q-1 -1 -2.5 -1t-2.5 -1l-12 -18q-17 -25 -34 -41q-9 -9 -26 -16q-4 -2 -11 -2q-19 0 -27 15q-2 3 -7 16q-4 20 -4 30l1 14q5 38 16 71q17 45 31 69q14 26 31 45q16 16 25 22q13 10 32 15q6 2 17 2q13 0 20 -2q43 -13 49 -59q1 -2 0.5 -3.5t-0.5 -2.5q-2 -6 -7 -8h-3
q-6 0 -9 5q-2 4 -2 6l-3 11q-7 25 -34 31q-4 1 -12 1q-12 0 -20 -4q-13 -5 -28 -18q-14 -12 -28 -34q-42 -68 -53 -135q-2 -16 -2 -24l1 -18q1 -10 6 -19q5 -7 14 -5l10 5q11 8 22 21q18 21 35 51q20 40 28 60l9 18q1 2 5 4q1 1 4 1q8 0 10 -8v-8l-12 -57q-17 -78 -26 -141
l-12 -76v-6t2 -7l11 3l24 11q55 28 101 59q41 27 69 62q33 39 62 77q4 6 5 10q5 14 23 25q4 2 5 2q2 0 8 -3q6 -8 3 -13zM101.5 -218q-3.5 4 -8.5 6q-4 -4 -4.5 -10t-0.5 -8q-1 -5 -1 -14l-6 -81q-3 -30 -5 -91l-2 -39q-1 -20 -1 -59v-23v-24q0 -103 4 -152q3 -55 10 -99
q7 -38 16 -69q4 -14 12 -28q5 -8 10 -12q3 -2 6.5 -2t5.5 2l8 8q8 10 12 24q10 26 14 39q29 98 42 176q10 63 10 114q0 30 -3 60q-5 56 -19 104q-28 100 -95 172q-1 2 -4.5 6z" />
    <glyph glyph-name="r" unicode="r" horiz-adv-x="380" 
d="M388.5 109q-0.5 -4 -2.5 -6q-4 -4 -7 -5q-29 -17 -65 -53l-76 -83q-27 -32 -55 -61q-8 -10 -27 -29q-10 -8 -20 -14q-6 -4 -14 -6q-2 -1 -7 -1q-15 0 -23 14q-5 12 -5 21l-1 21q0 15 2 43l1 23l1 25q0 12 -2 34l-2 11q-3 12 -16 14q-2 1 -8 1l-13 2q-29 4 -42 16l-18 29
q-1 3 -2 6.5t-3 7.5l-6 17q-5 17 -5 31q0 16 6 32q8 27 27 58q8 11 17 20q8 7 15 10q3 1 9 1q9 0 15 -5t7 -14q1 -3 1 -8q0 -10 -3 -21q-5 -18 -22 -65l-27 -62q-3 -6 -3 -9q0 -5 6 -11q7 -7 13 -8q8 -3 24 -5q12 0 22 -3q15 -4 23 -20q5 -10 5 -21q1 -7 1 -22
q1 -44 -2 -100q-1 -3 -1 -9q0 -7 2 -21q0 -3 2 -7q0 -2 2.5 -3.5t4.5 -1.5q4 0 10 4q10 8 20 17q9 7 23 24l108 120q24 26 37 38q20 20 50 40l10 5h3q5 0 9 -4q2 -3 1.5 -7zM46 243q2 10 2 15v4q0 1 -2 2t-3 1q-7 -4 -14 -12q-17 -24 -31 -60q-4 -12 -4 -26q0 -17 7 -31
q4 2 5 4q23 48 40 103z" />
    <glyph glyph-name="s" unicode="s" horiz-adv-x="254" 
d="M255 112.5q2 -4.5 -1 -8.5q0 -3 -2 -3q-30 -16 -64 -40t-65 -47l-24 -18l-41 -31q-5 -5 -4 -12q2 -11 8 -41q6 -40 6 -59q0 -26 -9 -50q-12 -32 -44 -44q-23 -10 -54 -8l-13 3q-29 8 -29 42q0 10 6 32q13 39 41 75q18 23 50 53l11 10q2 2 2 6q0 8 -3 16q-5 16 -10.5 35
t-11.5 41q-5 17 -13 51q-4 16 -4 36q0 39 19 68q13 18 26 24q10 5 20 5q8 0 12 -1q6 -4 8 -8v-2q0 -8 -6 -8q-3 -1 -9 -1q-14 0 -23 -9q-8 -5 -13 -15q-15 -27 -15 -53q0 -21 7 -47q2 -14 8 -32l21 -75q5 -10 6 -11q5 0 11 6l29 21l60 45q18 13 54 37l17 12l17 10q5 3 13 1
q4 -1 6 -5.5zM50 -145l-1 16l-3 26l-8 41l-3 6q-4 -2 -6 -4q-27 -23 -52 -54q-20 -26 -31 -53q-9 -22 -9 -39q0 -22 22 -25l14 -1q21 0 43 11q15 8 23 23q6 12 7 21q4 13 4 32z" />
    <glyph glyph-name="s" unicode="&#xdf;" horiz-adv-x="254" 
d="M255 112.5q2 -4.5 -1 -8.5q0 -3 -2 -3q-30 -16 -64 -40t-65 -47l-24 -18l-41 -31q-5 -5 -4 -12q2 -11 8 -41q6 -40 6 -59q0 -26 -9 -50q-12 -32 -44 -44q-23 -10 -54 -8l-13 3q-29 8 -29 42q0 10 6 32q13 39 41 75q18 23 50 53l11 10q2 2 2 6q0 8 -3 16q-5 16 -10.5 35
t-11.5 41q-5 17 -13 51q-4 16 -4 36q0 39 19 68q13 18 26 24q10 5 20 5q8 0 12 -1q6 -4 8 -8v-2q0 -8 -6 -8q-3 -1 -9 -1q-14 0 -23 -9q-8 -5 -13 -15q-15 -27 -15 -53q0 -21 7 -47q2 -14 8 -32l21 -75q5 -10 6 -11q5 0 11 6l29 21l60 45q18 13 54 37l17 12l17 10q5 3 13 1
q4 -1 6 -5.5zM50 -145l-1 16l-3 26l-8 41l-3 6q-4 -2 -6 -4q-27 -23 -52 -54q-20 -26 -31 -53q-9 -22 -9 -39q0 -22 22 -25l14 -1q21 0 43 11q15 8 23 23q6 12 7 21q4 13 4 32z" />
    <glyph glyph-name="t" unicode="t" horiz-adv-x="151" 
d="M456 628q0 -3 -2 -5q-6 -4 -12 -6q-16 -4 -24 -5q-100 -18 -150 -26q-29 -5 -87 -13q-18 -3 -31 -4t-22 -2l-11 -2q-5 -2 -8 -7l-3 -10q-31 -118 -49 -209q-5 -23 -13 -69q-4 -19 -5 -26q-7 -32 -16 -85q-5 -25 -16 -91l-16 -105q-4 -28 -5 -42q-6 -37 -13 -103
q-4 -30 -8 -94q-1 -2 -1 -7q0 -58 8 -103q1 -12 6 -21l4 -2l2 1l8 16l5 9q3 4 8 4q4 0 7 -2.5t3 -6.5q0 -1 0.5 -2t-0.5 -3q-5 -19 -16 -33l-6 -6q-7 -5 -12 -5q-8 0 -14 6q-6 7 -9 15q-7 19 -8 32q-6 34 -6 83q0 39 8 113l6 44l5 44l14 105q17 118 34 209q30 172 70 326
q2 10 4 15q0 6 -5 6q-35 -4 -55 -5l-50 -6q-66 -6 -131 -21q-10 -2 -15 -1q-7 2 -8 7v3q0 6 5 8q2 2 8 4l60 12q37 7 80 10l21 3l64 6q20 2 28 4q1 0 5 2l3 10q9 35 25 105l6 28v9q0 8 -2 13v3q0 11 12 11q4 0 8 -4q3 -4 5 -12v-8q0 -9 -2 -25q-7 -37 -18 -80l-10 -41v-2
q0 -6 5 -6q8 0 22 2q92 13 133 20l135 24q7 1 26 5q6 0 9 -1q4 0 6 -5q1 -2 1 -5z" />
    <glyph glyph-name="u" unicode="u" horiz-adv-x="270" 
d="M279 110q0 -4 -4 -10q-45 -65 -83 -103q-13 -13 -25 -21q-14 -9 -28 -9q-19 0 -31 15q-11 14 -16 34q-2 8 -4 26l-2 6q-3 -1 -6 -6l-10 -25l-18 -35q-5 -12 -18 -23q-3 -3 -9 -5q-4 -2 -7 -2q-9 0 -15 8q-4 5 -7 13q-6 16 -6 26l-1 30q0 59 10 131q3 20 9 38q3 6 6 9
q2 3 6 3t7 -2q8 -5 6 -15q0 -5 -3 -7q-7 -6 -9 -18q-1 -8 -3.5 -21t-3.5 -22t-4 -38.5t-3 -54.5v-1q0 -20 1 -30q0 -9 6 -25q1 -3 4 -3t5 2q3 2 5 5q10 14 12 20q12 24 16 37q10 24 16.5 42t10.5 30l6 17l6 6q4 2 5 2q3 0 6 -2t3 -5q1 -2 1 -7q0 -10 -1 -17.5t-2 -12.5
q-2 -20 -2 -30q0 -22 4 -38q3 -14 11 -27q7 -11 19 -11q6 0 12 3q10 4 21 15q24 23 44 50l41 57l7 9q6 4 11 0q4 -4 4 -8z" />
    <glyph glyph-name="u" unicode="&#xfc;" horiz-adv-x="270" 
d="M279 110q0 -4 -4 -10q-45 -65 -83 -103q-13 -13 -25 -21q-14 -9 -28 -9q-19 0 -31 15q-11 14 -16 34q-2 8 -4 26l-2 6q-3 -1 -6 -6l-10 -25l-18 -35q-5 -12 -18 -23q-3 -3 -9 -5q-4 -2 -7 -2q-9 0 -15 8q-4 5 -7 13q-6 16 -6 26l-1 30q0 59 10 131q3 20 9 38q3 6 6 9
q2 3 6 3t7 -2q8 -5 6 -15q0 -5 -3 -7q-7 -6 -9 -18q-1 -8 -3.5 -21t-3.5 -22t-4 -38.5t-3 -54.5v-1q0 -20 1 -30q0 -9 6 -25q1 -3 4 -3t5 2q3 2 5 5q10 14 12 20q12 24 16 37q10 24 16.5 42t10.5 30l6 17l6 6q4 2 5 2q3 0 6 -2t3 -5q1 -2 1 -7q0 -10 -1 -17.5t-2 -12.5
q-2 -20 -2 -30q0 -22 4 -38q3 -14 11 -27q7 -11 19 -11q6 0 12 3q10 4 21 15q24 23 44 50l41 57l7 9q6 4 11 0q4 -4 4 -8z" />
    <glyph glyph-name="u" unicode="&#xfb;" horiz-adv-x="270" 
d="M279 110q0 -4 -4 -10q-45 -65 -83 -103q-13 -13 -25 -21q-14 -9 -28 -9q-19 0 -31 15q-11 14 -16 34q-2 8 -4 26l-2 6q-3 -1 -6 -6l-10 -25l-18 -35q-5 -12 -18 -23q-3 -3 -9 -5q-4 -2 -7 -2q-9 0 -15 8q-4 5 -7 13q-6 16 -6 26l-1 30q0 59 10 131q3 20 9 38q3 6 6 9
q2 3 6 3t7 -2q8 -5 6 -15q0 -5 -3 -7q-7 -6 -9 -18q-1 -8 -3.5 -21t-3.5 -22t-4 -38.5t-3 -54.5v-1q0 -20 1 -30q0 -9 6 -25q1 -3 4 -3t5 2q3 2 5 5q10 14 12 20q12 24 16 37q10 24 16.5 42t10.5 30l6 17l6 6q4 2 5 2q3 0 6 -2t3 -5q1 -2 1 -7q0 -10 -1 -17.5t-2 -12.5
q-2 -20 -2 -30q0 -22 4 -38q3 -14 11 -27q7 -11 19 -11q6 0 12 3q10 4 21 15q24 23 44 50l41 57l7 9q6 4 11 0q4 -4 4 -8z" />
    <glyph glyph-name="u" unicode="&#xfa;" horiz-adv-x="270" 
d="M279 110q0 -4 -4 -10q-45 -65 -83 -103q-13 -13 -25 -21q-14 -9 -28 -9q-19 0 -31 15q-11 14 -16 34q-2 8 -4 26l-2 6q-3 -1 -6 -6l-10 -25l-18 -35q-5 -12 -18 -23q-3 -3 -9 -5q-4 -2 -7 -2q-9 0 -15 8q-4 5 -7 13q-6 16 -6 26l-1 30q0 59 10 131q3 20 9 38q3 6 6 9
q2 3 6 3t7 -2q8 -5 6 -15q0 -5 -3 -7q-7 -6 -9 -18q-1 -8 -3.5 -21t-3.5 -22t-4 -38.5t-3 -54.5v-1q0 -20 1 -30q0 -9 6 -25q1 -3 4 -3t5 2q3 2 5 5q10 14 12 20q12 24 16 37q10 24 16.5 42t10.5 30l6 17l6 6q4 2 5 2q3 0 6 -2t3 -5q1 -2 1 -7q0 -10 -1 -17.5t-2 -12.5
q-2 -20 -2 -30q0 -22 4 -38q3 -14 11 -27q7 -11 19 -11q6 0 12 3q10 4 21 15q24 23 44 50l41 57l7 9q6 4 11 0q4 -4 4 -8z" />
    <glyph glyph-name="u" unicode="&#xf9;" horiz-adv-x="270" 
d="M279 110q0 -4 -4 -10q-45 -65 -83 -103q-13 -13 -25 -21q-14 -9 -28 -9q-19 0 -31 15q-11 14 -16 34q-2 8 -4 26l-2 6q-3 -1 -6 -6l-10 -25l-18 -35q-5 -12 -18 -23q-3 -3 -9 -5q-4 -2 -7 -2q-9 0 -15 8q-4 5 -7 13q-6 16 -6 26l-1 30q0 59 10 131q3 20 9 38q3 6 6 9
q2 3 6 3t7 -2q8 -5 6 -15q0 -5 -3 -7q-7 -6 -9 -18q-1 -8 -3.5 -21t-3.5 -22t-4 -38.5t-3 -54.5v-1q0 -20 1 -30q0 -9 6 -25q1 -3 4 -3t5 2q3 2 5 5q10 14 12 20q12 24 16 37q10 24 16.5 42t10.5 30l6 17l6 6q4 2 5 2q3 0 6 -2t3 -5q1 -2 1 -7q0 -10 -1 -17.5t-2 -12.5
q-2 -20 -2 -30q0 -22 4 -38q3 -14 11 -27q7 -11 19 -11q6 0 12 3q10 4 21 15q24 23 44 50l41 57l7 9q6 4 11 0q4 -4 4 -8z" />
    <glyph glyph-name="v" unicode="v" horiz-adv-x="318" 
d="M319 100.5q-2 -2.5 -4 -3.5l-4 -1l-4 -1q-72 5 -127 21q-16 6 -24 10q-22 9 -39 29l-14 16l-2 1q-3 0 -3 -2q-1 -4 -2 -9.5t-1 -12.5q-4 -87 -49 -175q-4 -9 -14 -25q-2 -4 -9 -9q-4 -4 -10 -4q-8 0 -13 8q-6 10 -7 16q-4 22 -4 33q-2 22 -2 67t2 67q2 25 8 75q2 6 4 8
q1 5 9 5q3 0 5 -2t3 -4q5 -15 4 -26q0 -4 -2 -8q-6 -6 -8 -20l-1 -5q-5 -57 -5 -102q0 -26 1 -39q2 -26 4 -40v-2q0 -2 1.5 -3.5t2.5 -0.5q2 0 4 2l5 7q37 71 47 144q6 46 6 68q0 17 1 25l2 8q2 4 7 5t8 -3q3 -2 7 -8l24 -37q20 -26 49 -36q27 -9 60 -16q31 -7 66 -7h1h12
q2 -1 4 -3t2 -5q1 -3 -1 -5.5z" />
    <glyph glyph-name="w" unicode="w" horiz-adv-x="336" 
d="M345 102l-6 -3q-4 -2 -8 -2q-33 -2 -54 8l-26 10l-21 9q-9 4 -16 7.5t-12 5.5l-4.5 4.5t-8.5 2.5q-2 -3 -1.5 -7t0.5 -6q1 -45 -12 -90q-9 -31 -26 -63q-8 -13 -15 -22q-3 -5 -10 -8q-3 -3 -9 -3q-10 0 -14 7q-5 5 -9 15q-5 13 -10 29q-8 38 -9 57l-1 8q-1 -1 -2.5 -1
t-2.5 -1l-11 -19l-23 -35q-3 -7 -14 -14q-4 -4 -11 -4q-10 0 -17 10q-5 8 -7 19q-3 18 -3 36q0 53 12 102q6 20 10 29q5 8 10 12q3 3 7 3q11 0 12 -9q1 -2 1 -6q0 -7 -6 -12l-4 -3q-5 -2 -7 -8l-7 -28q-8 -40 -8 -77q0 -16 1 -24q0 -11 4 -19q1 -1 3 -1.5t3 0.5q10 13 11 14
l21 36q6 10 11 19t9 16q2 5 6 9q3 3 8 3q7 0 10 -7q2 -4 2 -8q1 -8 1 -24q2 -42 13 -79q1 -4 8 -20q1 -3 4 -3t4 3q4 4 10 14q22 40 32 83q5 27 5 49q0 15 -4 45l-3 24q-1 2 1 5t4 4q7 2 11 -2l6 -9q19 -28 49 -40q17 -8 51 -22q13 -5 26 -5q11 0 17 2q8 3 15 0q5 -2 7 -8
q0 -3 -3 -8z" />
    <glyph glyph-name="x" unicode="x" horiz-adv-x="219" 
d="M179 159q0 -9 -6 -17q-3 -3 -8 -3q-2 -1 -4 -0.5t-4 0.5q-5 0 -6 -2l-13 -12q-17 -19 -42 -54q-28 -40 -48 -79l-5 -10q-3 -7 0 -13q4 -12 14 -23q22 -25 45 -38q7 -4 19 -7h3q8 0 11 7l5 13q3 5 9 5q4 -1 6.5 -3.5t2.5 -5.5l1 -2q0 -13 -8 -23t-20 -12l-6 -1
q-12 0 -32 10q-33 19 -53 46l-10 12q-2 2 -4 0l-3 -6q-66 -133 -106 -254q-11 -33 -18 -64q-3 -15 -3 -29t9 -24q3 -2 7 -8q2 -2 2 -4q0 -3 -2 -5t-5 -3h-2q-4 0 -8 2q-16 12 -18 32l-1 12q0 13 3 28q6 29 27 93q35 97 88 214l18 38q3 8 1 13q-11 37 -14 69q-2 22 -2 33
l-2 25l-1 6q0 10 5 22q1 5 6 6h3q4 0 7 -2t3 -5q1 -4 1 -10l-1 -31q0 -36 6 -72q0 -4 1 -7t2 -5l3 -3l2 1l11 19q42 70 80 113l22 23q8 6 13 8q2 2 5 2q5 0 9 -4t5 -9v-2z" />
    <glyph glyph-name="y" unicode="y" horiz-adv-x="343" 
d="M344 112q0 -6 -3 -8l-3 -3q-13 -6 -33 -26q-29 -29 -83 -91q-17 -19 -49 -57l-6 -7q-7 -9 -7 -17l1 -39q2 -78 2 -118q0 -54 -1 -81q0 -28 -4 -86q-3 -56 -13 -105q-15 -81 -35 -144q-12 -40 -27 -72q-18 -39 -43 -67q-19 -21 -41 -33q-16 -10 -32 -14q-12 -2 -17 -2
q-20 0 -39 16q-9 10 -17 20q-14 18 -21 39q-29 64 -29 133q0 66 26 141q14 40 35 83q29 57 62 109q68 108 153 215l15 18q6 8 5 15v15q-2 56 -2 84l-1 6l-2 2h-1.5t-0.5 -1l-7 -10q-15 -25 -34 -50q-14 -19 -30 -32q-10 -10 -24 -16q-10 -5 -19 -5h-1q-16 0 -26 13
q-6 7 -9 17q-8 19 -9 39q-2 18 -2 27q0 49 19 103q1 5 9 20q2 2 7 6q2 2 5 2q8 0 11 -8l1 -6q0 -5 -4 -8q-8 -7 -14 -25q-14 -49 -14 -87q0 -24 8 -50q2 -8 6 -14q1 -4 6 -7q4 -2 7 -2q7 0 21 9q16 12 28 28q32 38 56 90q3 5 5 10t5 10l4 7q3 4 8 4q6 0 9 -5l3 -9v-17
q1 -35 1 -104v-2q0 -9 1 -14q1 1 2.5 0.5t2.5 0.5l9 10l96 107q16 18 34 34q2 2 20 15q1 1 10 3h1q7 0 9 -7v-2zM142 -339q1 24 1 72l-1 138q-1 4 -1 11q-4 0 -5 -1l-9 -10q-77 -96 -140 -195q-38 -59 -68 -121q-22 -43 -36 -90q-19 -59 -19 -115q0 -54 20 -108
q11 -28 22 -46q10 -14 16 -21q12 -12 29 -12q16 0 36 11q24 13 45 39q17 22 29 47q9 17 23 55q15 42 34 123q20 97 23 193q1 10 1 30z" />
    <glyph glyph-name="y" unicode="&#xff;" horiz-adv-x="343" 
d="M344 112q0 -6 -3 -8l-3 -3q-13 -6 -33 -26q-29 -29 -83 -91q-17 -19 -49 -57l-6 -7q-7 -9 -7 -17l1 -39q2 -78 2 -118q0 -54 -1 -81q0 -28 -4 -86q-3 -56 -13 -105q-15 -81 -35 -144q-12 -40 -27 -72q-18 -39 -43 -67q-19 -21 -41 -33q-16 -10 -32 -14q-12 -2 -17 -2
q-20 0 -39 16q-9 10 -17 20q-14 18 -21 39q-29 64 -29 133q0 66 26 141q14 40 35 83q29 57 62 109q68 108 153 215l15 18q6 8 5 15v15q-2 56 -2 84l-1 6l-2 2h-1.5t-0.5 -1l-7 -10q-15 -25 -34 -50q-14 -19 -30 -32q-10 -10 -24 -16q-10 -5 -19 -5h-1q-16 0 -26 13
q-6 7 -9 17q-8 19 -9 39q-2 18 -2 27q0 49 19 103q1 5 9 20q2 2 7 6q2 2 5 2q8 0 11 -8l1 -6q0 -5 -4 -8q-8 -7 -14 -25q-14 -49 -14 -87q0 -24 8 -50q2 -8 6 -14q1 -4 6 -7q4 -2 7 -2q7 0 21 9q16 12 28 28q32 38 56 90q3 5 5 10t5 10l4 7q3 4 8 4q6 0 9 -5l3 -9v-17
q1 -35 1 -104v-2q0 -9 1 -14q1 1 2.5 0.5t2.5 0.5l9 10l96 107q16 18 34 34q2 2 20 15q1 1 10 3h1q7 0 9 -7v-2zM142 -339q1 24 1 72l-1 138q-1 4 -1 11q-4 0 -5 -1l-9 -10q-77 -96 -140 -195q-38 -59 -68 -121q-22 -43 -36 -90q-19 -59 -19 -115q0 -54 20 -108
q11 -28 22 -46q10 -14 16 -21q12 -12 29 -12q16 0 36 11q24 13 45 39q17 22 29 47q9 17 23 55q15 42 34 123q20 97 23 193q1 10 1 30z" />
    <glyph glyph-name="y" unicode="&#xfd;" horiz-adv-x="343" 
d="M344 112q0 -6 -3 -8l-3 -3q-13 -6 -33 -26q-29 -29 -83 -91q-17 -19 -49 -57l-6 -7q-7 -9 -7 -17l1 -39q2 -78 2 -118q0 -54 -1 -81q0 -28 -4 -86q-3 -56 -13 -105q-15 -81 -35 -144q-12 -40 -27 -72q-18 -39 -43 -67q-19 -21 -41 -33q-16 -10 -32 -14q-12 -2 -17 -2
q-20 0 -39 16q-9 10 -17 20q-14 18 -21 39q-29 64 -29 133q0 66 26 141q14 40 35 83q29 57 62 109q68 108 153 215l15 18q6 8 5 15v15q-2 56 -2 84l-1 6l-2 2h-1.5t-0.5 -1l-7 -10q-15 -25 -34 -50q-14 -19 -30 -32q-10 -10 -24 -16q-10 -5 -19 -5h-1q-16 0 -26 13
q-6 7 -9 17q-8 19 -9 39q-2 18 -2 27q0 49 19 103q1 5 9 20q2 2 7 6q2 2 5 2q8 0 11 -8l1 -6q0 -5 -4 -8q-8 -7 -14 -25q-14 -49 -14 -87q0 -24 8 -50q2 -8 6 -14q1 -4 6 -7q4 -2 7 -2q7 0 21 9q16 12 28 28q32 38 56 90q3 5 5 10t5 10l4 7q3 4 8 4q6 0 9 -5l3 -9v-17
q1 -35 1 -104v-2q0 -9 1 -14q1 1 2.5 0.5t2.5 0.5l9 10l96 107q16 18 34 34q2 2 20 15q1 1 10 3h1q7 0 9 -7v-2zM142 -339q1 24 1 72l-1 138q-1 4 -1 11q-4 0 -5 -1l-9 -10q-77 -96 -140 -195q-38 -59 -68 -121q-22 -43 -36 -90q-19 -59 -19 -115q0 -54 20 -108
q11 -28 22 -46q10 -14 16 -21q12 -12 29 -12q16 0 36 11q24 13 45 39q17 22 29 47q9 17 23 55q15 42 34 123q20 97 23 193q1 10 1 30z" />
    <glyph glyph-name="z" unicode="z" horiz-adv-x="321" 
d="M336 110q0 -3 -2.5 -6.5t-5.5 -3.5h-4q-5 0 -11 -2l-4 -2q-57 -35 -90 -57.5t-65 -48.5q-13 -10 -37 -32q-5 -5 -5 -12v-8q0 -68 -3 -102q-1 -13 -2 -33.5t-4 -47.5q-6 -50 -10 -79q-20 -123 -56 -252q-17 -65 -40 -120q-28 -62 -61 -102q-21 -26 -41 -40
q-23 -17 -42 -17q-17 0 -29 15q-7 9 -12 21q-4 12 -8 34q-6 36 -6 71q0 24 3 48q6 71 38 170q31 90 69 184q57 141 173 262l1 2q3 3 6 5.5t4.5 5.5t1.5 6q0 7 -1 12q-1 8 -2 24.5t-5 29.5l-2 9q-2 5 -5 6t-7 -2l-18 -16q-6 -4 -9 -7q-5 -2 -8 1q-4 3 -4 6q0 4 4 12
q16 36 33 82q7 17 14 51q4 20 2 30q0 3 -2 3q-2 2 -4 0l-16 -16q-21 -23 -46 -61q-17 -26 -20 -45l-1 -4q-2 -3 -7 -5h-2q-5 0 -8 4q-2 4 -2 8q0 7 4 19q4 9 14 25q24 39 57 76l18 16q5 5 12 5h3q14 0 18 -12q3 -13 2 -22q-3 -23 -9 -46q-13 -40 -23 -64q-1 -3 -3 -8t-2 -9
q2 -2 6 -2q17 0 22 -11q4 -8 6 -19q5 -18 5 -33q2 -12 2 -17q1 -3 3 -4t4 0l7 6q43 38 95 72l78 50q14 8 22 11h3q5 0 9 -4t5 -9v-1zM94 -73q0 2 -2 2h-2q-5 -4 -7 -6q-96 -102 -147 -219q-36 -84 -73 -190q-23 -63 -36 -129q-10 -57 -10 -102q0 -19 4 -59q4 -24 8 -34
q2 -6 8 -16q8 -14 22 -9q5 1 15 5q12 7 23 17q15 14 30 32q29 40 48 82q20 42 40 110q22 76 44 178q18 88 24 144l4 44q5 48 7 108v42z" />
    <glyph glyph-name="braceleft" unicode="{" horiz-adv-x="391" 
d="M330 738q0 -8 -7 -11h-2q-5 0 -8 3l-3 6q-5 6 -10 6q-4 0 -9 -3q-11 -9 -18 -22q-7 -10 -14 -30q-8 -23 -17 -64q-20 -90 -31 -135q-10 -49 -34 -110q-13 -32 -32 -65q-21 -35 -45 -54l-3 -5q23 -24 30 -69q5 -28 5 -53q0 -19 -3 -39q-1 -8 -1 -24l-2 -38q-1 -6 -1 -18
q0 -13 2 -37q2 -16 10 -41l5 -10q7 -15 30 -15q24 0 51 8q8 4 11 8l6 6q2 2 5 2t5 -1q7 -5 5 -12q-3 -10 -13 -17q-3 -1 -6 -3t-8 -3q-23 -8 -51 -8q-14 0 -21 1q-15 1 -24 14q-4 6 -10 18q-9 21 -12 44q-4 20 -4 46l1 29l3 31q1 10 2 25t1 36q0 25 -7 62l-5 17l-4 8
q-11 24 -30 25q-4 1 -5.5 4.5t-0.5 6.5l2 3q2 3 4 3q19 6 39 28q10 12 26 38q23 40 35 79q18 49 31 108l27 123q5 27 17 61q7 20 14 30q5 10 16 21q8 7 15 10q8 2 12 2q10 0 18 -5t12 -14q1 -2 1 -6z" />
    <glyph glyph-name="bar" unicode="|" horiz-adv-x="539" 
d="M234 832h72v-998h-72v998zM172 622zM170 896zM234 -268z" />
    <glyph glyph-name="braceright" unicode="}" horiz-adv-x="396" 
d="M335 224q0 -3 -2.5 -6t-5.5 -2q-11 1 -19 -3t-17 -14q-4 -4 -5 -7q-4 -5 -10 -15q-16 -31 -26 -72l-15 -76q-8 -40 -22 -72q-10 -23 -24 -40q-8 -10 -13 -14q-13 -10 -27 -7q-37 6 -68 25q-8 6 -12 10q-8 8 -8 20q0 7 8 9q0 1 2 1q5 0 7 -4q2 -2 3 -4l2 -4q3 -6 8 -10
q27 -17 55 -23l6 -1q11 0 19 10l7 8q14 20 20 37q12 29 16 53q1 8 8 37q4 16 5 24q6 45 26 88q19 43 47 58q-1 5 -2 6q-17 24 -29 64q-9 31 -14 72q-5 50 -5 91q0 54 6 162l1 39l-1 27q-2 22 -5 33q-6 18 -12 26q-5 6 -10 6q-4 0 -9 -5l-5 -4q-5 -3 -10 0t-5 8q0 6 3 9
q9 12 26 12q11 0 19 -6q7 -6 12 -14q7 -9 10 -24q5 -17 6 -32q1 -12 1 -34v-30l-7 -126l-1 -48q0 -32 3 -65q3 -46 13 -85q6 -24 16 -43q12 -25 30 -37l3 -4q1 -1 1 -4z" />
    <glyph glyph-name="asciitilde" unicode="~" horiz-adv-x="550" 
d="M259 288q-18 8 -31.5 13.5t-24.5 8.5t-21 4t-21 1q-14 0 -28.5 -4.5t-29 -12.5t-28 -18.5t-25.5 -23.5v79q49 53 121 53q14 0 26 -1t25.5 -4.5t30 -9.5t39.5 -16q18 -8 31.5 -13t25 -8t21 -4.5t20.5 -1.5q14 0 28.5 4.5t29 12.5t28 19t25.5 23v-79q-48 -53 -121 -53
q-14 0 -26.5 1.5t-26 4.5t-29.5 9t-39 16zM221 622z" />
    <glyph glyph-name="uni007F" 
 />
    <glyph glyph-name="uni00A0" unicode="&#xa0;" horiz-adv-x="265" 
 />
    <glyph glyph-name="exclamdown" unicode="&#xa1;" horiz-adv-x="269" 
d="M104 330h58l25 -512h-108zM196 478q0 -33 -16 -50t-46 -17t-46 17t-16 50q0 32 16.5 50t45.5 18t45.5 -17.5t16.5 -50.5z" />
    <glyph glyph-name="cent" unicode="&#xa2;" horiz-adv-x="340" 
d="M223 413q0 -4 2 -6q14 -11 23 -22q1 -1 8 -6q4 -3 4 -8q0 -6 -7 -13q-3 -3 -7 -3q-7 0 -9 6l-3 8q-3 10 -11 16q-5 5 -8 5q-2 0 -5 -7l-32 -69l-18 -41q-1 -3 -2 -5.5t-2 -6.5l6 -1l42 8l37 7q12 2 18 9l5 3q5 2 8 0q2 -1 3.5 -3.5t0.5 -4.5q0 -4 -3 -9q-9 -9 -17 -11
l-20 -4l-65 -11q-12 -2 -18 -2q-7 -2 -10 -7q0 -2 -5 -11l-56 -127q0 -2 -6 -13q-1 -2 -4.5 -3t-6.5 1q-4 2 -4 7t1 7l6 13l49 110l5 15q1 2 -2 5q-10 2 -16 4q-10 4 -17 17q-4 12 -4 18q0 16 6 29q4 14 12 28q12 23 30 42l10 10q27 25 57 28q6 0 9 6l8 16q7 15 44 89
q0 2 1 3l2 2q2 2 5.5 2t5.5 -1t4 -3t2 -5t-1 -5l-2 -4q-23 -37 -50 -97zM192.5 394.5q-1.5 1.5 -2.5 0.5q-4 0 -6 -1q-19 -7 -35 -23q-23 -23 -37 -52l-8 -19q-3 -10 -3 -22q0 -5 1 -8q1 -9 11 -12q8 -2 12 -2h1q6 0 9 5l4 9l50 112q1 2 4 10q1 1 -0.5 2.5z" />
    <glyph glyph-name="sterling" unicode="&#xa3;" horiz-adv-x="398" 
d="M337 171q0 -14 -12 -20q-2 -1 -10 -4q-13 -4 -30 -5.5t-22 -2.5l-69 -6q-39 -2 -65 -8l-30 -7q-10 -2 -15 -2q-4 0 -7 3t-3 7q0 7 5 15q10 20 22.5 48.5t19.5 44.5l16 38l3 8q1 1 0 3t-3 2q-23 0 -50 -10l-14 -6q0 -1 -2 -1q-5 0 -9 6q-2 2 -1 6.5t3 5.5q4 4 7 5
q17 8 31 11q22 4 33 5l11 2q7 2 10 7l8 19q20 49 43 91q23 40 34 55q14 22 28 34q16 13 19 15q10 4 17 4q19 0 26 -19q3 -10 3 -20q0 -16 -3 -31q-11 -52 -37 -94q-3 -5 -15 -19q-3 -5 -10 -5q-6 0 -9.5 5.5t-0.5 9.5l4 5q20 23 38 67q8 21 12 42q2 14 2 20l-1 13q-1 4 -5 6
t-7 0l-6 -3q-13 -10 -15 -13q-11 -11 -20 -23q-8 -11 -29 -45q-25 -45 -52 -107l-2 -6q0 -2 1 -3.5t3 -1.5h6q15 0 45 2v0h17q39 0 57 6q3 1 6 0.5t5 0.5q3 0 5.5 -2t3.5 -4l1 -4q0 -4 -4 -8l-6 -4q-5 -1 -12.5 -3t-17.5 -3l-33 -1q-50 -2 -75 -2q-3 -1 -9 -1q-5 0 -7 -5
l-5 -10l-55 -125q-1 -2 -1 -6q0 -2 2 -2h4q40 9 83 12q40 3 81 9q11 1 33 5q8 2 8 9l1 4q3 5 9 7h1q7 0 10 -6q2 -6 2 -10z" />
    <glyph glyph-name="currency" unicode="&#xa4;" horiz-adv-x="571" 
d="M90 353q0 57 35 110l-66 68l49 47l66 -64q49 35 112 35q59 0 110 -35l67 64l48 -47l-64 -67q35 -54 35 -111q0 -63 -35 -112l63 -66l-47 -47l-67 64q-50 -34 -110 -34q-64 0 -112 35l-66 -64l-48 47l65 66q-35 53 -35 111zM157 353q0 -54 37.5 -91.5t91.5 -37.5t92 37
t38 92q0 56 -38 93.5t-92 37.5t-91.5 -38t-37.5 -93z" />
    <glyph glyph-name="yen" unicode="&#xa5;" horiz-adv-x="571" 
d="M285 365l179 349h92l-201 -375h124v-64h-151v-82h151v-64h-151v-129h-86v129h-151v64h151v82h-151v64h122l-199 375h93z" />
    <glyph glyph-name="brokenbar" unicode="&#xa6;" horiz-adv-x="550" 
d="M239 760h73v-381h-73v381zM239 140h73v-381h-73v381z" />
    <glyph glyph-name="section" unicode="&#xa7;" horiz-adv-x="513" 
d="M67 395q0 42 21 75t58 51q-36 20 -56 47t-20 68q0 60 50.5 94.5t146.5 34.5q45 0 82 -7t89 -27l-27 -67q-47 19 -80.5 26t-69.5 7q-56 0 -82.5 -14.5t-26.5 -44.5q0 -27 28 -47.5t104 -47.5q89 -33 126 -70t37 -90q0 -88 -75 -133q74 -39 74 -110q0 -69 -57.5 -107
t-160.5 -38t-169 33v75q42 -19 88.5 -30t84.5 -11q62 0 96 18t34 53q0 30 -26 49t-103 49q-96 36 -131 72.5t-35 91.5zM142 405q0 -25 13 -43.5t43 -35.5t109 -47q64 37 64 91q0 40 -34 66.5t-123 54.5q-32 -9 -52 -33t-20 -53z" />
    <glyph glyph-name="dieresis" unicode="&#xa8;" horiz-adv-x="580" 
d="M149 681q0 26 13.5 37.5t33.5 11.5q19 0 33 -11.5t14 -37.5t-14 -38t-33 -12q-20 0 -33.5 12t-13.5 38zM337 681q0 26 13.5 37.5t32.5 11.5t33 -11.5t14 -37.5t-14 -38t-33 -12t-32.5 12t-13.5 38z" />
    <glyph glyph-name="copyright" unicode="&#xa9;" horiz-adv-x="832" 
d="M436 515q-58 0 -91 -41.5t-33 -116.5q0 -77 28.5 -118t94.5 -41q46 0 105 23v-64q-29 -13 -53 -18.5t-56 -5.5q-94 0 -145.5 58.5t-51.5 165.5q0 102 54 162.5t147 60.5q63 0 123 -30l-29 -61q-52 26 -93 26zM49 357q0 98 48.5 183t134 134.5t184.5 49.5q98 0 183.5 -49
t134.5 -134t49 -184q0 -96 -47.5 -180.5t-132.5 -135.5t-187 -51q-101 0 -186.5 50.5t-133 135t-47.5 181.5zM102 357q0 -84 42 -157t115 -115t157 -42t157 42t115 115t42 157t-42 156.5t-115 115t-157 42.5t-156.5 -42t-115 -115t-42.5 -157z" />
    <glyph glyph-name="ordfeminine" unicode="&#xaa;" horiz-adv-x="356" 
d="M261 389l-12 42q-46 -48 -114 -48q-47 0 -75 24.5t-28 74.5t38.5 76t119.5 29l56 2v22q0 30 -19 44.5t-52 14.5q-49 0 -101 -26q-13 30 -22 49q60 29 125 29t98 -27t33 -86v-220h-47zM96 482q0 -48 54 -48q96 0 96 87v23l-48 -2q-54 -2 -78 -16t-24 -44z" />
    <glyph glyph-name="guillemotleft" unicode="&#xab;" horiz-adv-x="508" 
d="M40 270l168 201l63 -36l-140 -171l140 -171l-63 -37l-168 201v13zM238 270l170 201l62 -36l-140 -171l140 -171l-62 -37l-170 201v13z" />
    <glyph glyph-name="logicalnot" unicode="&#xac;" horiz-adv-x="571" 
d="M520 388v-260h-71v189h-399v71h470z" />
    <glyph glyph-name="uni00AD" unicode="&#xad;" horiz-adv-x="321" 
d="M40 229v78h242v-78h-242z" />
    <glyph glyph-name="registered" unicode="&#xae;" horiz-adv-x="832" 
d="M355 373h50q40 0 61.5 19.5t21.5 51.5q0 36 -20 51.5t-64 15.5h-49v-138zM565 446q0 -41 -21 -70.5t-57 -43.5l116 -194h-86l-100 173h-62v-173h-76v437h128q82 0 120 -32t38 -97zM49 357q0 98 48.5 183t134 134.5t184.5 49.5q98 0 183.5 -49t134.5 -134t49 -184
q0 -96 -47.5 -180.5t-132.5 -135.5t-187 -51q-101 0 -186.5 50.5t-133 135t-47.5 181.5zM102 357q0 -84 42 -157t115 -115t157 -42t157 42t115 115t42 157t-42 156.5t-115 115t-157 42.5t-156.5 -42t-115 -115t-42.5 -157z" />
    <glyph glyph-name="macron" unicode="&#xaf;" horiz-adv-x="339" 
d="M295 124q0 -3 -4 -9q-7 -5 -12 0q-3 3 -3 4q-2 5 -12 9l-6 1q-49 5 -84 4q-12 -1 -41 -5q-8 -1 -31 -5q-4 -1 -12 -2t-13 -4l-4 -1q-5 0 -10 5q-2 2 -2 6q0 7 5 9q4 2 6 2l15 2l62 8q11 2 35 2q19 0 28 -1q16 0 44 -2q14 0 26 -6q9 -5 12 -12q1 -2 1 -5z" />
    <glyph glyph-name="degree" unicode="&#xb0;" horiz-adv-x="428" 
d="M60 570q0 66 45 110t109 44q65 0 109.5 -45t44.5 -109t-45 -108.5t-109 -44.5q-63 0 -108.5 44t-45.5 109zM120 570q0 -39 28 -66.5t67 -27.5q40 0 66.5 28t26.5 66q0 39 -27 66.5t-66 27.5t-67 -27t-28 -67z" />
    <glyph glyph-name="plusminus" unicode="&#xb1;" horiz-adv-x="571" 
d="M321 391h199v-71h-199v-206h-72v206h-199v71h199v207h72v-207zM50 0v71h470v-71h-470z" />
    <glyph glyph-name="uni00B2" unicode="&#xb2;" horiz-adv-x="350" 
d="M306 286h-282v54l115 112q62 60 79.5 87.5t17.5 61.5q0 32 -18.5 48t-48.5 16t-54.5 -11.5t-50.5 -31.5l-35 46q65 55 141 55q64 0 100.5 -32t36.5 -86q0 -22 -6 -41.5t-18.5 -39.5t-33 -42.5t-138.5 -133.5h195v-62z" />
    <glyph glyph-name="uni00B3" unicode="&#xb3;" horiz-adv-x="350" 
d="M308 613q0 -74 -74 -102q87 -21 87 -102q0 -62 -45 -96.5t-128 -34.5q-74 0 -131 28v63q69 -34 132 -34q100 0 100 76q0 69 -110 69h-57v55h57q50 0 73.5 19t23.5 51q0 29 -19 45t-51 16q-51 0 -111 -38l-36 46q36 27 71 38t75 11q66 0 104.5 -29.5t38.5 -80.5z" />
    <glyph glyph-name="acute" unicode="&#xb4;" horiz-adv-x="580" 
d="M189 618q19 23 47.5 66.5t47.5 81.5h106v-10q-21 -31 -66.5 -78.5t-76.5 -71.5h-58v12z" />
    <glyph glyph-name="mu" unicode="&#xb5;" horiz-adv-x="623" 
d="M173 190q0 -127 120 -127q83 0 120 45.5t37 148.5v279h88v-536h-71l-14 72h-5q-53 -82 -161 -82q-71 0 -115 45h-4q5 -36 5 -119v-156h-88v776h88v-346z" />
    <glyph glyph-name="paragraph" unicode="&#xb6;" horiz-adv-x="654" 
d="M549 -127h-58v831h-102v-831h-58v400q-30 -9 -71 -9q-105 0 -155 61t-50 184q0 127 53.5 189t166.5 62h274v-887z" />
    <glyph glyph-name="periodcentered" unicode="&#xb7;" horiz-adv-x="268" 
d="M72 353q0 32 16 50t45 18q30 0 46.5 -18.5t16.5 -49.5t-16.5 -49.5t-46.5 -18.5q-29 0 -45 18t-16 50z" />
    <glyph glyph-name="cedilla" unicode="&#xb8;" horiz-adv-x="225" 
d="M212 -139q0 -48 -37 -74.5t-111 -26.5q-32 0 -50 5v55q18 -5 53 -5q37 0 55.5 9.5t18.5 34.5q0 43 -91 55l43 86h58l-26 -53q87 -19 87 -86z" />
    <glyph glyph-name="uni00B9" unicode="&#xb9;" horiz-adv-x="350" 
d="M167 714h73v-428h-71v276q0 33 4 89q-15 -14 -26.5 -23t-74.5 -55l-35 49z" />
    <glyph glyph-name="ordmasculine" unicode="&#xba;" horiz-adv-x="375" 
d="M345 553q0 -80 -42 -125t-116 -45q-71 0 -113 45t-42 125q0 81 41 125t116 44q73 0 114.5 -44.5t41.5 -124.5zM95 553q0 -59 21.5 -88t71.5 -29q49 0 71 29t22 88t-22 87.5t-71 28.5t-71 -28.5t-22 -87.5z" />
    <glyph glyph-name="guillemotright" unicode="&#xbb;" horiz-adv-x="508" 
d="M469 257l-170 -201l-62 37l140 171l-140 171l62 36l170 -201v-13zM270 257l-169 -201l-62 37l140 171l-140 171l62 36l169 -201v-13z" />
    <glyph glyph-name="onequarter" unicode="&#xbc;" horiz-adv-x="790" 
d="M736 96h-61v-96h-75v96h-195v52l197 283h73v-275h61v-60zM600 156v93q0 52 3 101q-4 -9 -48 -77l-80 -117h125zM637 714l-436 -714h-75l436 714h75zM165 714h73v-428h-71v276q0 33 4 89q-15 -14 -26.5 -23t-74.5 -55l-35 49z" />
    <glyph glyph-name="onehalf" unicode="&#xbd;" horiz-adv-x="790" 
d="M607 714l-436 -714h-75l436 714h75zM152 714h73v-428h-71v276q0 33 4 89q-15 -14 -26.5 -23t-74.5 -55l-35 49zM727 0h-282v54l115 112q62 60 79.5 87.5t17.5 61.5q0 32 -18.5 48t-48.5 16t-54.5 -11.5t-50.5 -31.5l-35 46q65 55 141 55q64 0 100.5 -32t36.5 -86
q0 -22 -6 -41.5t-18.5 -39.5t-33 -42.5t-138.5 -133.5h195v-62z" />
    <glyph glyph-name="threequarters" unicode="&#xbe;" horiz-adv-x="790" 
d="M772 96h-61v-96h-75v96h-195v52l197 283h73v-275h61v-60zM636 156v93q0 52 3 101q-4 -9 -48 -77l-80 -117h125zM681 714l-436 -714h-75l436 714h75zM307 613q0 -74 -74 -102q87 -21 87 -102q0 -62 -45 -96.5t-128 -34.5q-74 0 -131 28v63q69 -34 132 -34q100 0 100 76
q0 69 -110 69h-57v55h57q50 0 73.5 19t23.5 51q0 29 -19 45t-51 16q-51 0 -111 -38l-36 46q36 27 71 38t75 11q66 0 104.5 -29.5t38.5 -80.5z" />
    <glyph glyph-name="questiondown" unicode="&#xbf;" horiz-adv-x="434" 
d="M294 330v-26q0 -57 -18 -93.5t-67 -77.5q-65 -54 -82 -81t-17 -68q0 -47 31 -73.5t89 -26.5q78 0 161 43l31 -71q-97 -48 -195 -48q-95 0 -148.5 45.5t-53.5 128.5q0 36 9.5 63.5t29.5 52.5t79 75q50 44 65 71t15 70v16h71zM317 478q0 -67 -62 -67q-30 0 -45.5 17.5
t-15.5 49.5q0 36 17.5 52t43.5 16t44 -16t18 -52z" />
    <glyph glyph-name="AE" unicode="&#xc6;" horiz-adv-x="880" 
d="M821 0h-372v221h-250l-107 -221h-93l339 714h483v-79h-282v-223h263v-78h-263v-255h282v-79zM234 301h215v333h-58z" />
    <glyph glyph-name="Eth" unicode="&#xd0;" horiz-adv-x="729" 
d="M669 364q0 -175 -96 -269.5t-278 -94.5h-191v314h-74v78h74v322h213q167 0 259.5 -92t92.5 -258zM574 361q0 137 -68 206.5t-202 69.5h-110v-245h178v-78h-178v-237h90q290 0 290 284z" />
    <glyph glyph-name="multiply" unicode="&#xd7;" horiz-adv-x="550" 
d="M224 321l-155 156l51 51l155 -155l157 155l51 -50l-157 -157l156 -156l-50 -50l-157 155l-155 -154l-50 51zM221 622z" />
    <glyph glyph-name="Thorn" unicode="&#xde;" horiz-adv-x="604" 
d="M554 382q0 -110 -73.5 -168.5t-212.5 -58.5h-81v-155h-90v714h90v-124h96q137 0 204 -51.5t67 -156.5zM187 231h72q108 0 155 34.5t47 111.5q0 70 -44.5 103t-140.5 33h-89v-282z" />
    <glyph glyph-name="agrave" unicode="&#xe0;" horiz-adv-x="350" 
d="M358 83q0 -10 -9 -13q-2 -1 -6 -1q-6 0 -10 -4q-12 -15 -11 -14l-32 -45l-32 -40q-16 -20 -38 -36q-21 -16 -43 -23q-18 -4 -28 -4q-31 0 -54 23q-14 14 -22 35q-7 17 -13 51v3.5t-2 4.5q-4 -3 -6 -11q-10 -30 -18 -44q-7 -15 -15 -26q-6 -10 -15 -16q-7 -6 -16 -6
q-14 0 -19 9q-5 8 -6 14q-4 13 -4 29q0 15 1 22q6 36 12 54q19 65 49 123q12 22 20 31q8 10 15 12q6 2 8 2q6 0 12 -6q5 -4 6 -9q5 -11 3 -22t-7 -41l-1 -3q-1 -3 -4 -5t-6 -2q-4 0 -7 3t-3 7v2q0 9 2.5 20.5t3.5 18.5v9l-1 2h-2q-3 0 -8 -7l-18 -31q-25 -48 -44 -111
q-10 -33 -10 -63q0 -19 2 -28q0 -3 1 -4.5t2 -3.5q2 -3 4 -1l7 5q10 10 16 24q12 22 22 53l18 64l6 19q3 5 9 5q3 0 6 -2.5t4 -5.5l1 -13v-48q2 -30 9 -57q2 -7 8 -21l10 -17q19 -22 44 -22q5 0 15 2q17 4 33 14q22 14 34 28q21 20 42 51l32 45q15 20 19 24q4 5 12 10
q3 3 7 3q5 0 9 -3.5t5 -9.5q1 -1 1 -3zM21 291v3q0 6 4 7q2 2 8 2q11 0 17 -9l11 -12q14 -8 42 -26q4 -3 4.5 -7.5t-1.5 -7.5q-2 -4 -7 -4q-4 0 -12 4q-7 3 -14 8l-24 15v0l-7 4l-13 11q-7 5 -8 12z" />
    <glyph glyph-name="ae" unicode="&#xe6;" horiz-adv-x="607" 
d="M617.5 113q3.5 -7 -1.5 -10q-8 -6 -15.5 -15t-10.5 -12l-31 -35q-15 -16 -33 -30q-34 -27 -77 -36q-13 -3 -28 -3q-14 0 -20 1q-25 5 -41 21q-18 17 -26 40l-6 22q-1 0 -3 -1t-3 -2l-15 -13q-29 -27 -58 -48q-18 -13 -41 -26q-19 -11 -35 -13q-5 -2 -16 -2t-16 2
q-22 7 -35 29q-11 17 -14 42q-5 27 -5 50q2 6 0 11q0 1 -2 3h-2q-10 -13 -11 -14q-18 -20 -46 -45l-22 -15q-11 -8 -24 -8q-8 0 -14.5 6t-6.5 15v3q0 11 2 17q4 14 13 35q29 60 72 111q14 15 26 24q11 8 24 8q17 1 27 -13q9 -10 9 -24q0 -5 -2 -13q-2 -6 -6 -6l-10 -2
q4 -4 4 -12q0 -9 -2.5 -20.5t-3.5 -18.5q-4 -20 -4 -46q0 -11 2 -35q0 -16 8 -34q2 -6 8 -16q12 -15 30 -15q13 0 37 10q21 12 38 23q50 36 89 78q6 6 8 16q1 6 2 15.5t4 21.5q8 42 29 88q12 26 25 44q12 15 22 24q9 8 23 13q10 2 19.5 -3t10.5 -16q1 -4 1 -12q0 -10 -3 -19
q-6 -18 -10 -27q-9 -20 -26 -46q-26 -41 -64 -84l-9 -10q-4 -5 -4 -12q0 -21 9 -41q9 -21 25 -31t37 -10q34 0 68 18q27 15 43 31l30 33q14 16 28 34l9 9q5 3 9 3q8 0 11.5 -7zM353 127q0 -2 2 -4q0 -1 0.5 -0.5t1.5 0.5q49 57 74 109q6 12 8 19l5 20q0 4 -1 6q0 2 -3 3.5
t-5 0.5q-12 -5 -22 -17q-12 -15 -24 -35q-23 -43 -36 -101v-1zM107 168h6q-1 5 -2.5 13.5t-1.5 13.5l-1 4q-1 2 -4 4t-5 2q-6 -1 -12 -5q-12 -9 -26 -24q-43 -49 -68 -105l-11 -29q-1 -4 -1 -11q0 -2 2 -3t3 0l13 8q18 13 48 45q31 34 46 70q1 4 5 12q3 5 9 5z" />
    <glyph glyph-name="eth" unicode="&#xf0;" horiz-adv-x="604" 
d="M551 275q0 -138 -65 -211.5t-185 -73.5q-110 0 -178 66.5t-68 176.5q0 112 63.5 176t171.5 64q110 0 156 -58l4 2q-29 104 -124 191l-130 -75l-38 55l112 64q-42 28 -90 53l36 60q76 -36 126 -72l115 67l38 -54l-99 -57q74 -68 114.5 -164.5t40.5 -209.5zM462 251
q0 70 -43 110.5t-116 40.5q-81 0 -120 -42.5t-39 -129.5q0 -81 41 -124.5t118 -43.5q83 0 121 48.5t38 140.5z" />
    <glyph glyph-name="divide" unicode="&#xf7;" horiz-adv-x="356" 
d="M295 82q0 -3 -4 -9q-7 -5 -12 0q-3 3 -3 4q-2 5 -12 9q-2 1 -6 1q-39 6 -84 4q-12 -1 -41 -5q-8 -1 -31 -5q-17 -2 -25 -6l-4 -1q-2 0 -10 5q-2 2 -2 6q0 7 5 10q2 0 6 2l15 1l62 8q17 3 35 3l28 -1l44 -3q14 0 26 -6q8 -3 12 -12q1 -2 1 -5zM168 150v0l-1 6q0 4 8 9l7 4
h3q6 0 8 -5q2 -11 5 -15q1 -2 0 -4t-3 -3q-6 -3 -15 -3q-4 0 -7 3t-4 7zM190 9q1 -1 0 -3t-3 -3q-6 -3 -15 -3q-4 0 -7 3t-4 7l-0.5 0.5l-0.5 0.5v5q0 6 7 10q6 3 7 4h3q6 0 8 -5q2 -11 5 -16z" />
    <glyph glyph-name="thorn" unicode="&#xfe;" horiz-adv-x="615" 
d="M174 464q33 44 73.5 63t92.5 19q104 0 162 -73t58 -204t-58 -205t-162 -74q-108 0 -167 78h-6q6 -64 6 -84v-224h-88v1000h88v-224q0 -34 -3 -72h4zM325 472q-79 0 -115 -43.5t-37 -140.5v-19q0 -109 36 -157.5t117 -48.5q143 0 143 207q0 102 -35 152t-109 50z" />
    <glyph glyph-name="Amacron" unicode="&#x100;" horiz-adv-x="639" 
d="M178 842h297v-71h-297v71zM251 328q-5 -8 -11 -26q-33 -84 -97 -252q-34 -86 -53 -128q-29 -58 -33 -65q-14 -25 -26 -39q-9 -11 -20 -16q-5 -3 -13 -3q-13 0 -20 12q-5 6 -8 16q-3 9 -5 30q-2 48 4 90q18 155 80 332q25 70 58 129q21 37 40 61q16 24 39 42q14 14 31 20
q13 5 23 5q20 0 37 -16l9 -9q1 -2 5 -4q3 4 4.5 10t2.5 9q1 4 5 12q3 4 9 4q4 0 7 -3t3 -6q0 -4 -1.5 -9.5t-2.5 -9.5l-10 -32q-3 -10 -2 -19v-5q2 -8 2 -25q0 -33 -10 -73q-3 -11 -14 -11q-6 0 -8 -7l-9 -57q-6 -42 -8 -68q-7 -53 -7 -114q0 -52 2 -78q3 -59 17 -109
q5 -20 17 -45q10 -16 17 -23l13 -12q9 -6 19 -6q6 0 13 3q12 5 20 12q14 12 24 27q6 9 13 19t15 23q18 32 26 48q32 62 57 118q5 11 8.5 19.5t6.5 14.5l5 10q1 4 5 5.5t8 -0.5q3 -1 4.5 -4.5t0.5 -6.5q-5 -15 -6 -17l-21 -48l-51 -103q-21 -40 -43 -72q-14 -21 -30 -39
q-19 -16 -26 -20q-12 -7 -22 -8l-7 -1q-14 0 -27 8q-16 11 -23 21q-10 11 -21 33q-15 33 -21 68q-9 46 -10 79q-3 35 -3 71q0 60 6 120q4 36 14 108q2 7 -1 10zM-15 -93l-1 -21q0 -22 3 -44q1 -4 5 -17q2 -4 6 -5t7 2q8 6 11 10q12 16 17 24q17 27 30 57q32 70 48 113
q144 374 164 427q2 3 4 13q3 7 0 13q-4 12 -16 26q-12 10 -24 10q-6 0 -13 -3q-9 -3 -19 -11q-14 -10 -29 -27q-23 -26 -45 -63q-34 -57 -61 -130q-62 -167 -83 -329q-2 -15 -4 -45z" />
    <glyph glyph-name="amacron" unicode="&#x101;" horiz-adv-x="561" 
d="M143 677h297v-71h-297v71zM360 108q0 -10 -9 -13q-2 -1 -3.5 -0.5t-2.5 0.5q-7 -2 -10 -5l-10 -14l-33 -45l-31 -40q-14 -16 -39 -36q-21 -16 -43 -23q-18 -4 -27 -4q-33 0 -54 23q-13 13 -23 35q-9 25 -12 51q0 1 -0.5 4t-2.5 4q-4 -3 -6 -11q-10 -30 -17 -43
q-6 -12 -16 -27q-7 -11 -15 -16q-6 -6 -16 -6q-13 0 -19 9q-1 3 -3 6.5t-3 7.5q-4 13 -4 29q0 8 2 22q3 24 11 54q20 66 49 123q12 22 20 31q7 9 16 13q2 1 7 1q7 0 13 -6q3 -3 5 -9q4 -10 3 -22q-4 -25 -7 -41v-2q-4 -8 -10 -8q-4 0 -7.5 3t-3.5 7v2q0 9 2.5 20.5t3.5 18.5
q1 3 0.5 5t-0.5 4t-1 2h-2q-3 0 -8 -7q-12 -20 -17 -31q-28 -54 -44 -110q-11 -38 -11 -64q0 -10 2 -28q0 -2 4 -8q2 -2 4 -1l7 5q5 5 9.5 13t6.5 11q13 25 21 53q4 13 9.5 33t8.5 31l6 19q3 5 9 5q3 0 6 -2.5t4 -5.5l1 -13v-48q1 -28 9 -57q2 -7 8 -21q8 -13 11 -16
q16 -22 43 -22q10 0 16 1q16 4 32 14q19 12 34 28q19 18 43 51l31 45l19 24q8 8 12 10q3 3 8 3t9 -3.5t5 -9.5v-3z" />
    <glyph glyph-name="Abreve" unicode="&#x102;" horiz-adv-x="639" 
d="M316 771q-69 0 -108.5 33.5t-44.5 100.5h54q4 -35 24.5 -49t76.5 -14q49 0 73 15.5t28 47.5h55q-6 -64 -48 -99t-110 -35zM251 328q-5 -8 -11 -26q-33 -84 -97 -252q-34 -86 -53 -128q-29 -58 -33 -65q-14 -25 -26 -39q-9 -11 -20 -16q-5 -3 -13 -3q-13 0 -20 12
q-5 6 -8 16q-3 9 -5 30q-2 48 4 90q18 155 80 332q25 70 58 129q21 37 40 61q16 24 39 42q14 14 31 20q13 5 23 5q20 0 37 -16l9 -9q1 -2 5 -4q3 4 4.5 10t2.5 9q1 4 5 12q3 4 9 4q4 0 7 -3t3 -6q0 -4 -1.5 -9.5t-2.5 -9.5l-10 -32q-3 -10 -2 -19v-5q2 -8 2 -25
q0 -33 -10 -73q-3 -11 -14 -11q-6 0 -8 -7l-9 -57q-6 -42 -8 -68q-7 -53 -7 -114q0 -52 2 -78q3 -59 17 -109q5 -20 17 -45q10 -16 17 -23l13 -12q9 -6 19 -6q6 0 13 3q12 5 20 12q14 12 24 27q6 9 13 19t15 23q18 32 26 48q32 62 57 118q5 11 8.5 19.5t6.5 14.5l5 10
q1 4 5 5.5t8 -0.5q3 -1 4.5 -4.5t0.5 -6.5q-5 -15 -6 -17l-21 -48l-51 -103q-21 -40 -43 -72q-14 -21 -30 -39q-19 -16 -26 -20q-12 -7 -22 -8l-7 -1q-14 0 -27 8q-16 11 -23 21q-10 11 -21 33q-15 33 -21 68q-9 46 -10 79q-3 35 -3 71q0 60 6 120q4 36 14 108q2 7 -1 10z
M-15 -93l-1 -21q0 -22 3 -44q1 -4 5 -17q2 -4 6 -5t7 2q8 6 11 10q12 16 17 24q17 27 30 57q32 70 48 113q144 374 164 427q2 3 4 13q3 7 0 13q-4 12 -16 26q-12 10 -24 10q-6 0 -13 -3q-9 -3 -19 -11q-14 -10 -29 -27q-23 -26 -45 -63q-34 -57 -61 -130q-62 -167 -83 -329
q-2 -15 -4 -45z" />
    <glyph glyph-name="abreve" unicode="&#x103;" horiz-adv-x="561" 
d="M281 606q-69 0 -108.5 33.5t-44.5 100.5h54q4 -35 24.5 -49t76.5 -14q49 0 73 15.5t28 47.5h55q-6 -64 -48 -99t-110 -35zM360 108q0 -10 -9 -13q-2 -1 -3.5 -0.5t-2.5 0.5q-7 -2 -10 -5l-10 -14l-33 -45l-31 -40q-14 -16 -39 -36q-21 -16 -43 -23q-18 -4 -27 -4
q-33 0 -54 23q-13 13 -23 35q-9 25 -12 51q0 1 -0.5 4t-2.5 4q-4 -3 -6 -11q-10 -30 -17 -43q-6 -12 -16 -27q-7 -11 -15 -16q-6 -6 -16 -6q-13 0 -19 9q-1 3 -3 6.5t-3 7.5q-4 13 -4 29q0 8 2 22q3 24 11 54q20 66 49 123q12 22 20 31q7 9 16 13q2 1 7 1q7 0 13 -6
q3 -3 5 -9q4 -10 3 -22q-4 -25 -7 -41v-2q-4 -8 -10 -8q-4 0 -7.5 3t-3.5 7v2q0 9 2.5 20.5t3.5 18.5q1 3 0.5 5t-0.5 4t-1 2h-2q-3 0 -8 -7q-12 -20 -17 -31q-28 -54 -44 -110q-11 -38 -11 -64q0 -10 2 -28q0 -2 4 -8q2 -2 4 -1l7 5q5 5 9.5 13t6.5 11q13 25 21 53
q4 13 9.5 33t8.5 31l6 19q3 5 9 5q3 0 6 -2.5t4 -5.5l1 -13v-48q1 -28 9 -57q2 -7 8 -21q8 -13 11 -16q16 -22 43 -22q10 0 16 1q16 4 32 14q19 12 34 28q19 18 43 51l31 45l19 24q8 8 12 10q3 3 8 3t9 -3.5t5 -9.5v-3z" />
    <glyph glyph-name="Aogonek" unicode="&#x104;" horiz-adv-x="639" 
d="M540 -116q0 -22 12 -33.5t33 -11.5t48 6v-56q-34 -9 -62 -9q-103 0 -103 94q0 68 78 126h62q-34 -32 -51 -58.5t-17 -57.5zM251 328q-5 -8 -11 -26q-33 -84 -97 -252q-34 -86 -53 -128q-29 -58 -33 -65q-14 -25 -26 -39q-9 -11 -20 -16q-5 -3 -13 -3q-13 0 -20 12
q-5 6 -8 16q-3 9 -5 30q-2 48 4 90q18 155 80 332q25 70 58 129q21 37 40 61q16 24 39 42q14 14 31 20q13 5 23 5q20 0 37 -16l9 -9q1 -2 5 -4q3 4 4.5 10t2.5 9q1 4 5 12q3 4 9 4q4 0 7 -3t3 -6q0 -4 -1.5 -9.5t-2.5 -9.5l-10 -32q-3 -10 -2 -19v-5q2 -8 2 -25
q0 -33 -10 -73q-3 -11 -14 -11q-6 0 -8 -7l-9 -57q-6 -42 -8 -68q-7 -53 -7 -114q0 -52 2 -78q3 -59 17 -109q5 -20 17 -45q10 -16 17 -23l13 -12q9 -6 19 -6q6 0 13 3q12 5 20 12q14 12 24 27q6 9 13 19t15 23q18 32 26 48q32 62 57 118q5 11 8.5 19.5t6.5 14.5l5 10
q1 4 5 5.5t8 -0.5q3 -1 4.5 -4.5t0.5 -6.5q-5 -15 -6 -17l-21 -48l-51 -103q-21 -40 -43 -72q-14 -21 -30 -39q-19 -16 -26 -20q-12 -7 -22 -8l-7 -1q-14 0 -27 8q-16 11 -23 21q-10 11 -21 33q-15 33 -21 68q-9 46 -10 79q-3 35 -3 71q0 60 6 120q4 36 14 108q2 7 -1 10z
M-15 -93l-1 -21q0 -22 3 -44q1 -4 5 -17q2 -4 6 -5t7 2q8 6 11 10q12 16 17 24q17 27 30 57q32 70 48 113q144 374 164 427q2 3 4 13q3 7 0 13q-4 12 -16 26q-12 10 -24 10q-6 0 -13 -3q-9 -3 -19 -11q-14 -10 -29 -27q-23 -26 -45 -63q-34 -57 -61 -130q-62 -167 -83 -329
q-2 -15 -4 -45z" />
    <glyph glyph-name="aogonek" unicode="&#x105;" horiz-adv-x="561" 
d="M410 -116q0 -22 12 -33.5t33 -11.5t48 6v-56q-34 -9 -62 -9q-103 0 -103 94q0 68 78 126h62q-34 -32 -51 -58.5t-17 -57.5zM360 108q0 -10 -9 -13q-2 -1 -3.5 -0.5t-2.5 0.5q-7 -2 -10 -5l-10 -14l-33 -45l-31 -40q-14 -16 -39 -36q-21 -16 -43 -23q-18 -4 -27 -4
q-33 0 -54 23q-13 13 -23 35q-9 25 -12 51q0 1 -0.5 4t-2.5 4q-4 -3 -6 -11q-10 -30 -17 -43q-6 -12 -16 -27q-7 -11 -15 -16q-6 -6 -16 -6q-13 0 -19 9q-1 3 -3 6.5t-3 7.5q-4 13 -4 29q0 8 2 22q3 24 11 54q20 66 49 123q12 22 20 31q7 9 16 13q2 1 7 1q7 0 13 -6
q3 -3 5 -9q4 -10 3 -22q-4 -25 -7 -41v-2q-4 -8 -10 -8q-4 0 -7.5 3t-3.5 7v2q0 9 2.5 20.5t3.5 18.5q1 3 0.5 5t-0.5 4t-1 2h-2q-3 0 -8 -7q-12 -20 -17 -31q-28 -54 -44 -110q-11 -38 -11 -64q0 -10 2 -28q0 -2 4 -8q2 -2 4 -1l7 5q5 5 9.5 13t6.5 11q13 25 21 53
q4 13 9.5 33t8.5 31l6 19q3 5 9 5q3 0 6 -2.5t4 -5.5l1 -13v-48q1 -28 9 -57q2 -7 8 -21q8 -13 11 -16q16 -22 43 -22q10 0 16 1q16 4 32 14q19 12 34 28q19 18 43 51l31 45l19 24q8 8 12 10q3 3 8 3t9 -3.5t5 -9.5v-3z" />
    <glyph glyph-name="Cacute" unicode="&#x106;" horiz-adv-x="631" 
d="M61 4q0 56 9 139q9 85 28 159q18 76 43 139q24 53 44 84q19 32 43 53q12 12 30 22q18 9 36 9t36 -10q13 -9 23 -20q17 -19 26 -46q13 -41 13 -75l-1 -19q-2 -28 -6 -41q-3 -10 -8 -23q-4 -6 -7 -9q-5 -5 -10 -5q-7 0 -12 8q-3 5 -5 17l-1 2q0 5 3.5 8t9.5 4h5l3 3l3 6
q5 27 5 48q0 32 -9 63q-9 30 -28 50q-15 15 -32 18q-3 1 -9 1q-20 0 -38 -15q-16 -11 -32 -30q-17 -21 -37 -55q-24 -47 -43 -102q-20 -56 -36 -136q-12 -58 -17 -105q-10 -82 -10 -149v-32q2 -52 13 -98q7 -24 12 -33q4 -9 12 -19q5 -6 12 -9q6 -2 9 -2q12 0 25 11
q10 7 19 16q24 24 41 48q58 79 94 155l32 70l3 6q3 6 9 6q4 0 7 -3.5t3 -7.5v-6l-3 -6q-43 -95 -84 -160q-34 -52 -54 -76q-15 -20 -31 -37q-14 -14 -31 -25q-9 -6 -20 -9l-10 -1q-15 0 -28 10q-6 4 -14 16q-9 13 -16 32q-8 23 -13 54q-5 33 -5 61zM318 783q19 23 47.5 66.5
t47.5 81.5h106v-10q-21 -31 -66.5 -78.5t-76.5 -71.5h-58v12z" />
    <glyph glyph-name="cacute" unicode="&#x107;" horiz-adv-x="479" 
d="M361 106q0 -5 -5 -10q-6 -3 -8 -3h-2q-7 0 -16 -7q-67 -61 -65 -59q-34 -31 -62 -51q-32 -25 -60 -40q-23 -13 -43 -17q-6 -2 -18 -2q-21 0 -39 10t-29 28q-10 18 -14 35q-7 25 -7 64q0 48 12 84q4 15 12 31q8 14 13 20q4 5 14 11q6 3 13 3q12 0 21 -11q5 -7 7 -18v-10
q0 -7 -2 -23t-4 -24v-2q-2 -3 -5 -5.5t-6 -2.5q-4 0 -7 3.5t-3 8.5q0 3 2 11q4 22 5 33q1 1 1 3q0 6 -3 12q-2 3 -5.5 4t-5.5 -1q-7 -6 -10 -9q-10 -13 -14 -27q-12 -33 -15 -69v-22q0 -32 5 -53q3 -16 9 -29q7 -12 13 -18q16 -16 35 -17h6q15 0 27 4q15 5 41 21
q42 27 71 52l41 37l59 54q8 8 17 14l4 2t5 1q11 0 14 -12q1 -1 1 -4zM224 618q19 23 47.5 66.5t47.5 81.5h106v-10q-21 -31 -66.5 -78.5t-76.5 -71.5h-58v12z" />
    <glyph glyph-name="Ccircumflex" unicode="&#x108;" horiz-adv-x="631" 
d="M220 782q61 65 86 96.5t37 52.5h90q25 -49 125 -149v-11h-62q-44 26 -109 90q-64 -62 -107 -90h-60v11zM61 4q0 56 9 139q9 85 28 159q18 76 43 139q24 53 44 84q19 32 43 53q12 12 30 22q18 9 36 9t36 -10q13 -9 23 -20q17 -19 26 -46q13 -41 13 -75l-1 -19
q-2 -28 -6 -41q-3 -10 -8 -23q-4 -6 -7 -9q-5 -5 -10 -5q-7 0 -12 8q-3 5 -5 17l-1 2q0 5 3.5 8t9.5 4h5l3 3l3 6q5 27 5 48q0 32 -9 63q-9 30 -28 50q-15 15 -32 18q-3 1 -9 1q-20 0 -38 -15q-16 -11 -32 -30q-17 -21 -37 -55q-24 -47 -43 -102q-20 -56 -36 -136
q-12 -58 -17 -105q-10 -82 -10 -149v-32q2 -52 13 -98q7 -24 12 -33q4 -9 12 -19q5 -6 12 -9q6 -2 9 -2q12 0 25 11q10 7 19 16q24 24 41 48q58 79 94 155l32 70l3 6q3 6 9 6q4 0 7 -3.5t3 -7.5v-6l-3 -6q-43 -95 -84 -160q-34 -52 -54 -76q-15 -20 -31 -37q-14 -14 -31 -25
q-9 -6 -20 -9l-10 -1q-15 0 -28 10q-6 4 -14 16q-9 13 -16 32q-8 23 -13 54q-5 33 -5 61z" />
    <glyph glyph-name="ccircumflex" unicode="&#x109;" horiz-adv-x="479" 
d="M118 617q61 65 86 96.5t37 52.5h90q25 -49 125 -149v-11h-62q-44 26 -109 90q-64 -62 -107 -90h-60v11zM361 106q0 -5 -5 -10q-6 -3 -8 -3h-2q-7 0 -16 -7q-67 -61 -65 -59q-34 -31 -62 -51q-32 -25 -60 -40q-23 -13 -43 -17q-6 -2 -18 -2q-21 0 -39 10t-29 28
q-10 18 -14 35q-7 25 -7 64q0 48 12 84q4 15 12 31q8 14 13 20q4 5 14 11q6 3 13 3q12 0 21 -11q5 -7 7 -18v-10q0 -7 -2 -23t-4 -24v-2q-2 -3 -5 -5.5t-6 -2.5q-4 0 -7 3.5t-3 8.5q0 3 2 11q4 22 5 33q1 1 1 3q0 6 -3 12q-2 3 -5.5 4t-5.5 -1q-7 -6 -10 -9q-10 -13 -14 -27
q-12 -33 -15 -69v-22q0 -32 5 -53q3 -16 9 -29q7 -12 13 -18q16 -16 35 -17h6q15 0 27 4q15 5 41 21q42 27 71 52l41 37l59 54q8 8 17 14l4 2t5 1q11 0 14 -12q1 -1 1 -4z" />
    <glyph glyph-name="Cdotaccent" unicode="&#x10a;" horiz-adv-x="631" 
d="M337 846q0 29 15 42.5t37 13.5q21 0 36 -13.5t15 -42.5t-15.5 -42.5t-35.5 -13.5q-22 0 -37 13.5t-15 42.5zM61 4q0 56 9 139q9 85 28 159q18 76 43 139q24 53 44 84q19 32 43 53q12 12 30 22q18 9 36 9t36 -10q13 -9 23 -20q17 -19 26 -46q13 -41 13 -75l-1 -19
q-2 -28 -6 -41q-3 -10 -8 -23q-4 -6 -7 -9q-5 -5 -10 -5q-7 0 -12 8q-3 5 -5 17l-1 2q0 5 3.5 8t9.5 4h5l3 3l3 6q5 27 5 48q0 32 -9 63q-9 30 -28 50q-15 15 -32 18q-3 1 -9 1q-20 0 -38 -15q-16 -11 -32 -30q-17 -21 -37 -55q-24 -47 -43 -102q-20 -56 -36 -136
q-12 -58 -17 -105q-10 -82 -10 -149v-32q2 -52 13 -98q7 -24 12 -33q4 -9 12 -19q5 -6 12 -9q6 -2 9 -2q12 0 25 11q10 7 19 16q24 24 41 48q58 79 94 155l32 70l3 6q3 6 9 6q4 0 7 -3.5t3 -7.5v-6l-3 -6q-43 -95 -84 -160q-34 -52 -54 -76q-15 -20 -31 -37q-14 -14 -31 -25
q-9 -6 -20 -9l-10 -1q-15 0 -28 10q-6 4 -14 16q-9 13 -16 32q-8 23 -13 54q-5 33 -5 61z" />
    <glyph glyph-name="cdotaccent" unicode="&#x10b;" horiz-adv-x="479" 
d="M241 681q0 29 15 42.5t37 13.5q21 0 36 -13.5t15 -42.5t-15.5 -42.5t-35.5 -13.5q-22 0 -37 13.5t-15 42.5zM361 106q0 -5 -5 -10q-6 -3 -8 -3h-2q-7 0 -16 -7q-67 -61 -65 -59q-34 -31 -62 -51q-32 -25 -60 -40q-23 -13 -43 -17q-6 -2 -18 -2q-21 0 -39 10t-29 28
q-10 18 -14 35q-7 25 -7 64q0 48 12 84q4 15 12 31q8 14 13 20q4 5 14 11q6 3 13 3q12 0 21 -11q5 -7 7 -18v-10q0 -7 -2 -23t-4 -24v-2q-2 -3 -5 -5.5t-6 -2.5q-4 0 -7 3.5t-3 8.5q0 3 2 11q4 22 5 33q1 1 1 3q0 6 -3 12q-2 3 -5.5 4t-5.5 -1q-7 -6 -10 -9q-10 -13 -14 -27
q-12 -33 -15 -69v-22q0 -32 5 -53q3 -16 9 -29q7 -12 13 -18q16 -16 35 -17h6q15 0 27 4q15 5 41 21q42 27 71 52l41 37l59 54q8 8 17 14l4 2t5 1q11 0 14 -12q1 -1 1 -4z" />
    <glyph glyph-name="Ccaron" unicode="&#x10c;" horiz-adv-x="631" 
d="M220 931h60q56 -36 107 -92q62 62 109 92h62v-13q-100 -100 -125 -147h-90q-29 50 -123 147v13zM61 4q0 56 9 139q9 85 28 159q18 76 43 139q24 53 44 84q19 32 43 53q12 12 30 22q18 9 36 9t36 -10q13 -9 23 -20q17 -19 26 -46q13 -41 13 -75l-1 -19q-2 -28 -6 -41
q-3 -10 -8 -23q-4 -6 -7 -9q-5 -5 -10 -5q-7 0 -12 8q-3 5 -5 17l-1 2q0 5 3.5 8t9.5 4h5l3 3l3 6q5 27 5 48q0 32 -9 63q-9 30 -28 50q-15 15 -32 18q-3 1 -9 1q-20 0 -38 -15q-16 -11 -32 -30q-17 -21 -37 -55q-24 -47 -43 -102q-20 -56 -36 -136q-12 -58 -17 -105
q-10 -82 -10 -149v-32q2 -52 13 -98q7 -24 12 -33q4 -9 12 -19q5 -6 12 -9q6 -2 9 -2q12 0 25 11q10 7 19 16q24 24 41 48q58 79 94 155l32 70l3 6q3 6 9 6q4 0 7 -3.5t3 -7.5v-6l-3 -6q-43 -95 -84 -160q-34 -52 -54 -76q-15 -20 -31 -37q-14 -14 -31 -25q-9 -6 -20 -9
l-10 -1q-15 0 -28 10q-6 4 -14 16q-9 13 -16 32q-8 23 -13 54q-5 33 -5 61z" />
    <glyph glyph-name="ccaron" unicode="&#x10d;" horiz-adv-x="479" 
d="M122 766h60q56 -36 107 -92q62 62 109 92h62v-13q-100 -100 -125 -147h-90q-29 50 -123 147v13zM361 106q0 -5 -5 -10q-6 -3 -8 -3h-2q-7 0 -16 -7q-67 -61 -65 -59q-34 -31 -62 -51q-32 -25 -60 -40q-23 -13 -43 -17q-6 -2 -18 -2q-21 0 -39 10t-29 28q-10 18 -14 35
q-7 25 -7 64q0 48 12 84q4 15 12 31q8 14 13 20q4 5 14 11q6 3 13 3q12 0 21 -11q5 -7 7 -18v-10q0 -7 -2 -23t-4 -24v-2q-2 -3 -5 -5.5t-6 -2.5q-4 0 -7 3.5t-3 8.5q0 3 2 11q4 22 5 33q1 1 1 3q0 6 -3 12q-2 3 -5.5 4t-5.5 -1q-7 -6 -10 -9q-10 -13 -14 -27
q-12 -33 -15 -69v-22q0 -32 5 -53q3 -16 9 -29q7 -12 13 -18q16 -16 35 -17h6q15 0 27 4q15 5 41 21q42 27 71 52l41 37l59 54q8 8 17 14l4 2t5 1q11 0 14 -12q1 -1 1 -4z" />
    <glyph glyph-name="Dcaron" unicode="&#x10e;" horiz-adv-x="729" 
d="M170 931h60q56 -36 107 -92q62 62 109 92h62v-13q-100 -100 -125 -147h-90q-29 50 -123 147v13zM18 166q4 3 6 10q12 39 27 75q28 68 70 131q20 31 52 66q16 18 38 36q18 12 30 18q10 4 15 5t13 1q25 0 42 -20q11 -14 19 -31q10 -23 17 -57q7 -31 10 -69q3 -33 3 -64
q0 -93 -20 -173l-3 -18l0.5 -0.5l0.5 -0.5q0 -1 2 -1l11 7q31 23 61 35q7 2 19 8l6 2h2q6 0 9 -5q2 -3 1.5 -7t-2.5 -5l-7 -5q-16 -8 -25 -11q-23 -9 -39 -21l-45 -34q-9 -6 -14 -20q-7 -19 -23 -57q-37 -84 -96 -156q-18 -22 -36 -38q-14 -13 -23 -18q-8 -7 -20 -10h-4
q-7 0 -12.5 4t-6.5 11l-1 7q0 3 2 11l9 29q15 36 47 85q18 25 39 48q46 51 97 97l8 7q8 7 11 17q6 19 17 66q14 66 14 143q0 34 -1 50q-3 58 -17 105q-7 23 -14 37q-5 11 -15 22q-8 6 -13 8q-4 1 -10 1q-14 0 -34 -12q-15 -10 -32 -27q-36 -35 -71 -88q-47 -72 -81 -169
q-27 -78 -43 -171q-3 -20 -5 -61q-1 -13 -1 -38l-5 -159q0 -18 -3 -26q0 -2 -1 -3.5t-2 -2.5q-4 -2 -6 -2q-8 0 -9 6l-2 6l-1 27q-1 21 -1 62v31q2 55 7 97q3 25 7 75q2 14 2 22l6 94l7 73l6 66q4 39 7 62q1 13 5 46l15 129q8 67 11 95l2 24q1 8 5 19q2 6 8 6h2q5 0 8 -4
q7 -13 8 -25q0 -5 -3 -8q-7 -5 -9 -17l-5 -44l-11 -92q-3 -30 -11 -90l-5 -40l-6 -59l-6 -64q-4 -38 -5 -57q0 -2 1 -2zM284 -12l-2 4h-2l-6 -5q-44 -41 -78 -82q-41 -46 -67 -103q-4 -9 -10 -27q-1 -2 -1 -6q0 -5 1 -6q0 -1 1.5 -0.5t2.5 0.5q9 4 18 13q25 21 51 54
q53 67 89 152z" />
    <glyph glyph-name="dcaron" unicode="&#x10f;" horiz-adv-x="615" 
d="M575 612q11 32 20.5 77.5t12.5 70.5h87v-9q-6 -26 -27 -71t-45 -80h-48v12zM310 725q0 -28 -5 -63q-6 -57 -16 -103q-15 -84 -51 -185q-41 -115 -106 -235l-6 -12q-5 -8 -5 -17q-1 -6 -3.5 -14t-2.5 -14v-2q0 -16 -1 -24q-2 -48 -2 -71q-1 -11 -1 -32q-3 -74 -3 -147
q0 -70 4 -126q0 -23 7 -43v-2q0 -6 -4 -7q-1 -1 -4 -1q-5 0 -8 3q-4 8 -5 12l-4 42l-1 38q-2 62 -2 93q0 33 1 50l2 91q0 27 1 46.5t2 32.5v33l-0.5 0.5l-0.5 0.5h-2l-10 -15q-45 -72 -52 -82q-10 -16 -23 -32q-8 -11 -20 -21q-6 -8 -16 -11q-6 -3 -11 -3q-7 0 -13.5 4.5
t-9.5 12.5q-5 16 -3 33q7 69 38 133q12 23 23 36q24 29 57 39q14 4 20 4q9 0 21 -5q4 -2 6 -2q1 -1 3 0t2 3v5q8 74 13 112q4 29 10 79q24 155 49 246q11 44 27 82q11 30 27 53q8 13 22 27q11 9 22 12h5q12 0 18 -9q5 -7 7 -16q4 -13 4 -29zM100 130q-2 9 -9 14t-17 5
q-13 0 -31 -9q-18 -10 -36 -33q-12 -15 -22 -38q-19 -40 -27 -86q-3 -11 -5 -34v-14l2 -6q3 -10 12 -6q12 6 20 17q5 7 12 16t16 21q35 52 79 130q4 8 5 12q3 4 1 11zM289 713v20v11l-2 9q-1 4 -4.5 5.5t-7.5 -0.5l-9 -6l-16 -18q-8 -11 -20 -35q-10 -23 -22 -55
q-17 -50 -39 -154q-15 -74 -23 -137q-6 -38 -16 -116q-2 -12 -4 -32l-2 -29q0 -1 2 -3q2 0 2 1q6 8 8 13q54 106 88 207q29 81 43 157q10 42 16 94q6 44 6 68z" />
    <glyph glyph-name="Dcroat" unicode="&#x110;" horiz-adv-x="729" 
d="M669 364q0 -175 -96 -269.5t-278 -94.5h-191v314h-74v78h74v322h213q167 0 259.5 -92t92.5 -258zM574 361q0 137 -68 206.5t-202 69.5h-110v-245h178v-78h-178v-237h90q290 0 290 284z" />
    <glyph glyph-name="dcroat" unicode="&#x111;" horiz-adv-x="617" 
d="M275 -10q-104 0 -162 72t-58 203q0 132 57.5 205t162.5 73q109 0 167 -79h6q-1 7 -3.5 33.5t-2.5 46.5v61h-213v66h213v89h88v-89h76v-66h-76v-605h-72l-13 72h-4q-56 -82 -166 -82zM290 63q80 0 116.5 43t36.5 142v17q0 112 -37 158.5t-118 46.5q-68 0 -104.5 -52
t-36.5 -154q0 -96 35 -148.5t108 -52.5z" />
    <glyph glyph-name="Emacron" unicode="&#x112;" horiz-adv-x="556" 
d="M148 842h297v-71h-297v71zM2 -83l6 46l27 161q1 1 1 5q0 3 -1 6.5t-1 6.5q0 4 3.5 11t3.5 11l10 74l12 84q6 54 10 76l13 81l6 21q1 3 2 5.5t2 4.5q4 6 10 6q5 0 8 -3t3 -8q0 -6 -3 -11q-4 -10 -8 -30q0 -2 1.5 -3.5t2.5 -0.5l8 3q101 42 207 63q27 5 49 13l10 4h2
q3 0 5.5 -2t3.5 -4q1 -1 1 -5q0 -7 -4 -8l-10 -5q-21 -8 -38 -12q-54 -10 -80 -17q-62 -16 -130 -43q-20 -9 -30 -19q-5 -5 -6 -11l-3 -17l-12 -84l-10 -81q-3 -16 -7 -48l-2 -19q0 -2 2 -3.5t3 -0.5q14 2 42 10q57 19 129 52q18 8 32.5 15.5t25.5 12.5q22 12 32 20l8 4
q1 1 4 1q5 0 8 -3q6 -8 0 -14l-6 -6q-13 -10 -26 -17q-41 -22 -98 -46q-36 -17 -86 -34q-29 -10 -68 -19q-4 -1 -8 -7q0 -3 -1 -5q0 -3 -1 -4q-13 -85 -19 -118q-2 -16 -5.5 -31.5t-5.5 -31.5q-2 -22 -2 -33v-1q0 -4 2 -10q2 -8 10 -10q9 -3 18 -3q24 0 51 10l51 17
q100 34 151 48q32 10 58 14q2 1 7 1q9 0 14 -4q10 -4 10 -18q0 -6 -2 -9l-6 -6q-3 -1 -5.5 -0.5t-4.5 2.5l-5 8q-1 2 -2.5 3.5t-3.5 0.5l-26 -5q-42 -10 -89 -26l-122 -40q-32 -10 -49 -13q-12 -3 -25 -3q-10 0 -15 1q-6 0 -14 4q-14 4 -21 22q-2 8 -4 24z" />
    <glyph glyph-name="emacron" unicode="&#x113;" horiz-adv-x="563" 
d="M150 677h297v-71h-297v71zM321 129q1 -3 0 -5q-1 -3 -5 -9l-15 -19q-31 -39 -45 -55q-37 -46 -88 -76q-34 -18 -53 -22q-13 -4 -30 -4q-15 0 -27 4q-37 10 -58 48q-7 13 -12 31q-6 28 -5 42q0 32 10 58q6 20 20 33q8 8 16 12t14 4t11 -4q11 -7 11 -20q0 -10 -6 -26
q-10 -29 -35 -53l-13 -12q-6 -4 -6 -11q0 -16 9 -38q4 -10 9 -15q24 -34 62 -34q5 0 19 2q20 3 47 18q51 28 88 73q12 14 34 44l15 19l13 17l7 5q5 3 10 -2q2 -2 3 -5zM5 87l1 -2q1 0 2 -0.5t2 0.5q20 15 30 45q2 4 4 12q0 3 -3 6q-3 0 -5 -1q-6 -2 -13 -11q-13 -17 -18 -45
v-4z" />
    <glyph glyph-name="Ebreve" unicode="&#x114;" horiz-adv-x="556" 
d="M299 771q-69 0 -108.5 33.5t-44.5 100.5h54q4 -35 24.5 -49t76.5 -14q49 0 73 15.5t28 47.5h55q-6 -64 -48 -99t-110 -35zM2 -83l6 46l27 161q1 1 1 5q0 3 -1 6.5t-1 6.5q0 4 3.5 11t3.5 11l10 74l12 84q6 54 10 76l13 81l6 21q1 3 2 5.5t2 4.5q4 6 10 6q5 0 8 -3t3 -8
q0 -6 -3 -11q-4 -10 -8 -30q0 -2 1.5 -3.5t2.5 -0.5l8 3q101 42 207 63q27 5 49 13l10 4h2q3 0 5.5 -2t3.5 -4q1 -1 1 -5q0 -7 -4 -8l-10 -5q-21 -8 -38 -12q-54 -10 -80 -17q-62 -16 -130 -43q-20 -9 -30 -19q-5 -5 -6 -11l-3 -17l-12 -84l-10 -81q-3 -16 -7 -48l-2 -19
q0 -2 2 -3.5t3 -0.5q14 2 42 10q57 19 129 52q18 8 32.5 15.5t25.5 12.5q22 12 32 20l8 4q1 1 4 1q5 0 8 -3q6 -8 0 -14l-6 -6q-13 -10 -26 -17q-41 -22 -98 -46q-36 -17 -86 -34q-29 -10 -68 -19q-4 -1 -8 -7q0 -3 -1 -5q0 -3 -1 -4q-13 -85 -19 -118q-2 -16 -5.5 -31.5
t-5.5 -31.5q-2 -22 -2 -33v-1q0 -4 2 -10q2 -8 10 -10q9 -3 18 -3q24 0 51 10l51 17q100 34 151 48q32 10 58 14q2 1 7 1q9 0 14 -4q10 -4 10 -18q0 -6 -2 -9l-6 -6q-3 -1 -5.5 -0.5t-4.5 2.5l-5 8q-1 2 -2.5 3.5t-3.5 0.5l-26 -5q-42 -10 -89 -26l-122 -40q-32 -10 -49 -13
q-12 -3 -25 -3q-10 0 -15 1q-6 0 -14 4q-14 4 -21 22q-2 8 -4 24z" />
    <glyph glyph-name="ebreve" unicode="&#x115;" horiz-adv-x="563" 
d="M292 606q-69 0 -108.5 33.5t-44.5 100.5h54q4 -35 24.5 -49t76.5 -14q49 0 73 15.5t28 47.5h55q-6 -64 -48 -99t-110 -35zM321 129q1 -3 0 -5q-1 -3 -5 -9l-15 -19q-31 -39 -45 -55q-37 -46 -88 -76q-34 -18 -53 -22q-13 -4 -30 -4q-15 0 -27 4q-37 10 -58 48
q-7 13 -12 31q-6 28 -5 42q0 32 10 58q6 20 20 33q8 8 16 12t14 4t11 -4q11 -7 11 -20q0 -10 -6 -26q-10 -29 -35 -53l-13 -12q-6 -4 -6 -11q0 -16 9 -38q4 -10 9 -15q24 -34 62 -34q5 0 19 2q20 3 47 18q51 28 88 73q12 14 34 44l15 19l13 17l7 5q5 3 10 -2q2 -2 3 -5z
M5 87l1 -2q1 0 2 -0.5t2 0.5q20 15 30 45q2 4 4 12q0 3 -3 6q-3 0 -5 -1q-6 -2 -13 -11q-13 -17 -18 -45v-4z" />
    <glyph glyph-name="Edotaccent" unicode="&#x116;" horiz-adv-x="556" 
d="M253 832q0 29 15 42.5t37 13.5q21 0 36 -13.5t15 -42.5t-15.5 -42.5t-35.5 -13.5q-22 0 -37 13.5t-15 42.5zM2 -83l6 46l27 161q1 1 1 5q0 3 -1 6.5t-1 6.5q0 4 3.5 11t3.5 11l10 74l12 84q6 54 10 76l13 81l6 21q1 3 2 5.5t2 4.5q4 6 10 6q5 0 8 -3t3 -8q0 -6 -3 -11
q-4 -10 -8 -30q0 -2 1.5 -3.5t2.5 -0.5l8 3q101 42 207 63q27 5 49 13l10 4h2q3 0 5.5 -2t3.5 -4q1 -1 1 -5q0 -7 -4 -8l-10 -5q-21 -8 -38 -12q-54 -10 -80 -17q-62 -16 -130 -43q-20 -9 -30 -19q-5 -5 -6 -11l-3 -17l-12 -84l-10 -81q-3 -16 -7 -48l-2 -19q0 -2 2 -3.5
t3 -0.5q14 2 42 10q57 19 129 52q18 8 32.5 15.5t25.5 12.5q22 12 32 20l8 4q1 1 4 1q5 0 8 -3q6 -8 0 -14l-6 -6q-13 -10 -26 -17q-41 -22 -98 -46q-36 -17 -86 -34q-29 -10 -68 -19q-4 -1 -8 -7q0 -3 -1 -5q0 -3 -1 -4q-13 -85 -19 -118q-2 -16 -5.5 -31.5t-5.5 -31.5
q-2 -22 -2 -33v-1q0 -4 2 -10q2 -8 10 -10q9 -3 18 -3q24 0 51 10l51 17q100 34 151 48q32 10 58 14q2 1 7 1q9 0 14 -4q10 -4 10 -18q0 -6 -2 -9l-6 -6q-3 -1 -5.5 -0.5t-4.5 2.5l-5 8q-1 2 -2.5 3.5t-3.5 0.5l-26 -5q-42 -10 -89 -26l-122 -40q-32 -10 -49 -13
q-12 -3 -25 -3q-10 0 -15 1q-6 0 -14 4q-14 4 -21 22q-2 8 -4 24z" />
    <glyph glyph-name="edotaccent" unicode="&#x117;" horiz-adv-x="563" 
d="M243 681q0 29 15 42.5t37 13.5q21 0 36 -13.5t15 -42.5t-15.5 -42.5t-35.5 -13.5q-22 0 -37 13.5t-15 42.5zM321 129q1 -3 0 -5q-1 -3 -5 -9l-15 -19q-31 -39 -45 -55q-37 -46 -88 -76q-34 -18 -53 -22q-13 -4 -30 -4q-15 0 -27 4q-37 10 -58 48q-7 13 -12 31
q-6 28 -5 42q0 32 10 58q6 20 20 33q8 8 16 12t14 4t11 -4q11 -7 11 -20q0 -10 -6 -26q-10 -29 -35 -53l-13 -12q-6 -4 -6 -11q0 -16 9 -38q4 -10 9 -15q24 -34 62 -34q5 0 19 2q20 3 47 18q51 28 88 73q12 14 34 44l15 19l13 17l7 5q5 3 10 -2q2 -2 3 -5zM5 87l1 -2
q1 0 2 -0.5t2 0.5q20 15 30 45q2 4 4 12q0 3 -3 6q-3 0 -5 -1q-6 -2 -13 -11q-13 -17 -18 -45v-4z" />
    <glyph glyph-name="Eogonek" unicode="&#x118;" horiz-adv-x="556" 
d="M392 -116q0 -22 12 -33.5t33 -11.5t48 6v-56q-34 -9 -62 -9q-103 0 -103 94q0 68 78 126h62q-34 -32 -51 -58.5t-17 -57.5zM2 -83l6 46l27 161q1 1 1 5q0 3 -1 6.5t-1 6.5q0 4 3.5 11t3.5 11l10 74l12 84q6 54 10 76l13 81l6 21q1 3 2 5.5t2 4.5q4 6 10 6q5 0 8 -3t3 -8
q0 -6 -3 -11q-4 -10 -8 -30q0 -2 1.5 -3.5t2.5 -0.5l8 3q101 42 207 63q27 5 49 13l10 4h2q3 0 5.5 -2t3.5 -4q1 -1 1 -5q0 -7 -4 -8l-10 -5q-21 -8 -38 -12q-54 -10 -80 -17q-62 -16 -130 -43q-20 -9 -30 -19q-5 -5 -6 -11l-3 -17l-12 -84l-10 -81q-3 -16 -7 -48l-2 -19
q0 -2 2 -3.5t3 -0.5q14 2 42 10q57 19 129 52q18 8 32.5 15.5t25.5 12.5q22 12 32 20l8 4q1 1 4 1q5 0 8 -3q6 -8 0 -14l-6 -6q-13 -10 -26 -17q-41 -22 -98 -46q-36 -17 -86 -34q-29 -10 -68 -19q-4 -1 -8 -7q0 -3 -1 -5q0 -3 -1 -4q-13 -85 -19 -118q-2 -16 -5.5 -31.5
t-5.5 -31.5q-2 -22 -2 -33v-1q0 -4 2 -10q2 -8 10 -10q9 -3 18 -3q24 0 51 10l51 17q100 34 151 48q32 10 58 14q2 1 7 1q9 0 14 -4q10 -4 10 -18q0 -6 -2 -9l-6 -6q-3 -1 -5.5 -0.5t-4.5 2.5l-5 8q-1 2 -2.5 3.5t-3.5 0.5l-26 -5q-42 -10 -89 -26l-122 -40q-32 -10 -49 -13
q-12 -3 -25 -3q-10 0 -15 1q-6 0 -14 4q-14 4 -21 22q-2 8 -4 24z" />
    <glyph glyph-name="eogonek" unicode="&#x119;" horiz-adv-x="563" 
d="M387 -102q0 -22 12 -33.5t33 -11.5t48 6v-56q-34 -9 -62 -9q-103 0 -103 94q0 68 78 126h62q-34 -32 -51 -58.5t-17 -57.5zM321 129q1 -3 0 -5q-1 -3 -5 -9l-15 -19q-31 -39 -45 -55q-37 -46 -88 -76q-34 -18 -53 -22q-13 -4 -30 -4q-15 0 -27 4q-37 10 -58 48
q-7 13 -12 31q-6 28 -5 42q0 32 10 58q6 20 20 33q8 8 16 12t14 4t11 -4q11 -7 11 -20q0 -10 -6 -26q-10 -29 -35 -53l-13 -12q-6 -4 -6 -11q0 -16 9 -38q4 -10 9 -15q24 -34 62 -34q5 0 19 2q20 3 47 18q51 28 88 73q12 14 34 44l15 19l13 17l7 5q5 3 10 -2q2 -2 3 -5z
M5 87l1 -2q1 0 2 -0.5t2 0.5q20 15 30 45q2 4 4 12q0 3 -3 6q-3 0 -5 -1q-6 -2 -13 -11q-13 -17 -18 -45v-4z" />
    <glyph glyph-name="Ecaron" unicode="&#x11a;" horiz-adv-x="556" 
d="M133 931h60q56 -36 107 -92q62 62 109 92h62v-13q-100 -100 -125 -147h-90q-29 50 -123 147v13zM2 -83l6 46l27 161q1 1 1 5q0 3 -1 6.5t-1 6.5q0 4 3.5 11t3.5 11l10 74l12 84q6 54 10 76l13 81l6 21q1 3 2 5.5t2 4.5q4 6 10 6q5 0 8 -3t3 -8q0 -6 -3 -11q-4 -10 -8 -30
q0 -2 1.5 -3.5t2.5 -0.5l8 3q101 42 207 63q27 5 49 13l10 4h2q3 0 5.5 -2t3.5 -4q1 -1 1 -5q0 -7 -4 -8l-10 -5q-21 -8 -38 -12q-54 -10 -80 -17q-62 -16 -130 -43q-20 -9 -30 -19q-5 -5 -6 -11l-3 -17l-12 -84l-10 -81q-3 -16 -7 -48l-2 -19q0 -2 2 -3.5t3 -0.5
q14 2 42 10q57 19 129 52q18 8 32.5 15.5t25.5 12.5q22 12 32 20l8 4q1 1 4 1q5 0 8 -3q6 -8 0 -14l-6 -6q-13 -10 -26 -17q-41 -22 -98 -46q-36 -17 -86 -34q-29 -10 -68 -19q-4 -1 -8 -7q0 -3 -1 -5q0 -3 -1 -4q-13 -85 -19 -118q-2 -16 -5.5 -31.5t-5.5 -31.5
q-2 -22 -2 -33v-1q0 -4 2 -10q2 -8 10 -10q9 -3 18 -3q24 0 51 10l51 17q100 34 151 48q32 10 58 14q2 1 7 1q9 0 14 -4q10 -4 10 -18q0 -6 -2 -9l-6 -6q-3 -1 -5.5 -0.5t-4.5 2.5l-5 8q-1 2 -2.5 3.5t-3.5 0.5l-26 -5q-42 -10 -89 -26l-122 -40q-32 -10 -49 -13
q-12 -3 -25 -3q-10 0 -15 1q-6 0 -14 4q-14 4 -21 22q-2 8 -4 24z" />
    <glyph glyph-name="ecaron" unicode="&#x11b;" horiz-adv-x="563" 
d="M126 766h60q56 -36 107 -92q62 62 109 92h62v-13q-100 -100 -125 -147h-90q-29 50 -123 147v13zM321 129q1 -3 0 -5q-1 -3 -5 -9l-15 -19q-31 -39 -45 -55q-37 -46 -88 -76q-34 -18 -53 -22q-13 -4 -30 -4q-15 0 -27 4q-37 10 -58 48q-7 13 -12 31q-6 28 -5 42
q0 32 10 58q6 20 20 33q8 8 16 12t14 4t11 -4q11 -7 11 -20q0 -10 -6 -26q-10 -29 -35 -53l-13 -12q-6 -4 -6 -11q0 -16 9 -38q4 -10 9 -15q24 -34 62 -34q5 0 19 2q20 3 47 18q51 28 88 73q12 14 34 44l15 19l13 17l7 5q5 3 10 -2q2 -2 3 -5zM5 87l1 -2q1 0 2 -0.5t2 0.5
q20 15 30 45q2 4 4 12q0 3 -3 6q-3 0 -5 -1q-6 -2 -13 -11q-13 -17 -18 -45v-4z" />
    <glyph glyph-name="Gcircumflex" unicode="&#x11c;" horiz-adv-x="728" 
d="M248 782q61 65 86 96.5t37 52.5h90q25 -49 125 -149v-11h-62q-44 26 -109 90q-64 -62 -107 -90h-60v11zM9 -565q0 21 7 53q13 44 36 88q36 69 67 119q68 112 137 200l28 35q7 7 7 18v5q0 43 -3 87q-1 32 -9 64q0 2 -2 10t-8 14q-1 2 -3 1.5t-3 -1.5l-5 -4l-11 -16
l-21 -31l-23 -33q-38 -47 -92 -74q-15 -8 -33 -13q-12 -3 -24 -3q-38 0 -53 32q-8 19 -8 37v8q0 15 1 22q2 28 15 72q21 68 49 125q21 41 49 76q23 29 54 52q41 27 83 34q6 1 16 1q13 0 30 -5q25 -8 36 -28q23 -35 20 -75l-1 -3q-2 -7 -9 -7q-3 -1 -6 1.5t-4 5.5q-2 6 -2 12
q0 15 -5 33q-1 3 -3.5 9.5t-5.5 10.5q-16 25 -50 25q-22 0 -42 -7q-37 -13 -69 -43q-24 -21 -42 -48q-9 -13 -25 -39q-41 -78 -61 -154q-7 -23 -10 -52q-1 -6 -1 -17q0 -13 3 -27q3 -8 4 -10q9 -24 36 -24q15 0 32 7q37 15 68 41q21 18 38 41l39 56q5 6 8 11t6 9l10 9
q4 4 12 4q10 0 16 -7q7 -8 10 -19q4 -10 6.5 -23.5t3.5 -19.5q3 -22 5 -68l2 -34q0 -7 1 -11l0.5 -0.5l0.5 -0.5q2 -2 4 0l9 9q58 62 113 103l61 46l13 8q1 1 3 1t4 -1t3 -3q2 -2 2 -5t-2 -5l-10 -9l-65 -49q-51 -39 -93 -82q-1 -1 -37 -40q-7 -7 -7 -18t-2 -33
q0 -54 -6 -106q-12 -127 -43 -219q-19 -56 -45 -101q-17 -30 -39 -56q-17 -19 -32 -30q-18 -13 -37 -19q-15 -5 -26 -5q-43 0 -61 36q-7 13 -9 30v17zM288 -137q1 10 1 31q0 4 -1 6l-0.5 0.5l-0.5 0.5q-2 0 -4 -2q-35 -42 -70 -93q-67 -96 -135 -221q-22 -42 -30 -64
q-13 -30 -19 -66q-2 -14 -2 -22q0 -16 4 -28q5 -16 17.5 -25t28.5 -9q8 0 12 1q16 3 28 11q14 7 23 17q24 20 46 54q20 31 36 68q28 68 44 148q9 48 15 96q6 64 7 97z" />
    <glyph glyph-name="gcircumflex" unicode="&#x11d;" horiz-adv-x="615" 
d="M132 617q61 65 86 96.5t37 52.5h90q25 -49 125 -149v-11h-62q-44 26 -109 90q-64 -62 -107 -90h-60v11zM396 114q0 -4 -2.5 -7t-5.5 -3l-7 1l-3 1q-5 0 -9 -4l-18 -16l-48 -50q-53 -57 -123 -139l-5 -7q-4 -4 -4 -11q0 -9 1 -14l1 -16l6 -127v-76v-44q0 -57 -8 -121
q-7 -56 -23 -117q-18 -63 -41 -110q-17 -35 -34 -59q-19 -27 -44 -47q-31 -23 -70 -31q-5 -1 -14 -1q-13 0 -30 5q-21 8 -32 25q-13 18 -18 40q-8 30 -9 59q-4 93 24 190q16 58 53 133q45 94 110 187q36 53 83 111l17 21q5 5 5 12q0 11 -2 35l-7 72q-1 8 -3.5 29.5
t-6.5 38.5q-2 3 -4 1l-7 -8l-20 -24l-20 -24q-11 -14 -27 -25q-15 -11 -28 -14q-6 -2 -9 -2q-20 0 -29 20q-5 13 -5 32q0 22 6 44q16 68 53 133q8 14 13 20q7 8 18 13q8 4 19 2q17 -4 31 -18q7 -6 7 -17q0 -7 -3 -16q-2 -5 -7 -8q-3 -2 -8 0q-9 6 -9 15l1 10q1 4 -3 8l-10 5
l-6 1q-7 0 -12 -6q-8 -8 -17 -24q-28 -53 -44 -107q-7 -24 -9 -48q-1 -2 -1 -7q0 -10 3 -22l2 -4q3 -5 9 -5h1q6 0 12 3q15 7 25 18q13 13 25 28l36 45l9 9q3 4 9 4q8 0 12 -6q5 -7 6 -15q4 -16 8 -52l8 -70l2 -22l1 -16l3 -3l4 2q2 1 4 5l30 33l68 78q21 23 65 67
q8 9 22 18q5 4 14 4q6 0 9 -1q7 -3 9 -7q1 -2 1 -7zM161 -352l-1 39l-5 115q0 16 -1 28t-2 20q0 3 -1 4l-1 2h-2q-3 -4 -6.5 -7t-5.5 -6q-46 -57 -68 -90q-74 -104 -121 -203q-27 -58 -45 -113q-26 -83 -26 -166q0 -12 2 -36q2 -26 9 -50q3 -15 13 -28q13 -18 31 -19
q10 -2 14 -2q7 0 23 4q32 8 59 34q19 18 34 40q19 30 38 72q47 110 57 246q5 65 5 116z" />
    <glyph glyph-name="Gbreve" unicode="&#x11e;" horiz-adv-x="728" 
d="M414 771q-69 0 -108.5 33.5t-44.5 100.5h54q4 -35 24.5 -49t76.5 -14q49 0 73 15.5t28 47.5h55q-6 -64 -48 -99t-110 -35zM9 -565q0 21 7 53q13 44 36 88q36 69 67 119q68 112 137 200l28 35q7 7 7 18v5q0 43 -3 87q-1 32 -9 64q0 2 -2 10t-8 14q-1 2 -3 1.5t-3 -1.5
l-5 -4l-11 -16l-21 -31l-23 -33q-38 -47 -92 -74q-15 -8 -33 -13q-12 -3 -24 -3q-38 0 -53 32q-8 19 -8 37v8q0 15 1 22q2 28 15 72q21 68 49 125q21 41 49 76q23 29 54 52q41 27 83 34q6 1 16 1q13 0 30 -5q25 -8 36 -28q23 -35 20 -75l-1 -3q-2 -7 -9 -7q-3 -1 -6 1.5
t-4 5.5q-2 6 -2 12q0 15 -5 33q-1 3 -3.5 9.5t-5.5 10.5q-16 25 -50 25q-22 0 -42 -7q-37 -13 -69 -43q-24 -21 -42 -48q-9 -13 -25 -39q-41 -78 -61 -154q-7 -23 -10 -52q-1 -6 -1 -17q0 -13 3 -27q3 -8 4 -10q9 -24 36 -24q15 0 32 7q37 15 68 41q21 18 38 41l39 56
q5 6 8 11t6 9l10 9q4 4 12 4q10 0 16 -7q7 -8 10 -19q4 -10 6.5 -23.5t3.5 -19.5q3 -22 5 -68l2 -34q0 -7 1 -11l0.5 -0.5l0.5 -0.5q2 -2 4 0l9 9q58 62 113 103l61 46l13 8q1 1 3 1t4 -1t3 -3q2 -2 2 -5t-2 -5l-10 -9l-65 -49q-51 -39 -93 -82q-1 -1 -37 -40q-7 -7 -7 -18
t-2 -33q0 -54 -6 -106q-12 -127 -43 -219q-19 -56 -45 -101q-17 -30 -39 -56q-17 -19 -32 -30q-18 -13 -37 -19q-15 -5 -26 -5q-43 0 -61 36q-7 13 -9 30v17zM288 -137q1 10 1 31q0 4 -1 6l-0.5 0.5l-0.5 0.5q-2 0 -4 -2q-35 -42 -70 -93q-67 -96 -135 -221q-22 -42 -30 -64
q-13 -30 -19 -66q-2 -14 -2 -22q0 -16 4 -28q5 -16 17.5 -25t28.5 -9q8 0 12 1q16 3 28 11q14 7 23 17q24 20 46 54q20 31 36 68q28 68 44 148q9 48 15 96q6 64 7 97z" />
    <glyph glyph-name="gbreve" unicode="&#x11f;" horiz-adv-x="615" 
d="M300 606q-69 0 -108.5 33.5t-44.5 100.5h54q4 -35 24.5 -49t76.5 -14q49 0 73 15.5t28 47.5h55q-6 -64 -48 -99t-110 -35zM396 114q0 -4 -2.5 -7t-5.5 -3l-7 1l-3 1q-5 0 -9 -4l-18 -16l-48 -50q-53 -57 -123 -139l-5 -7q-4 -4 -4 -11q0 -9 1 -14l1 -16l6 -127v-76v-44
q0 -57 -8 -121q-7 -56 -23 -117q-18 -63 -41 -110q-17 -35 -34 -59q-19 -27 -44 -47q-31 -23 -70 -31q-5 -1 -14 -1q-13 0 -30 5q-21 8 -32 25q-13 18 -18 40q-8 30 -9 59q-4 93 24 190q16 58 53 133q45 94 110 187q36 53 83 111l17 21q5 5 5 12q0 11 -2 35l-7 72
q-1 8 -3.5 29.5t-6.5 38.5q-2 3 -4 1l-7 -8l-20 -24l-20 -24q-11 -14 -27 -25q-15 -11 -28 -14q-6 -2 -9 -2q-20 0 -29 20q-5 13 -5 32q0 22 6 44q16 68 53 133q8 14 13 20q7 8 18 13q8 4 19 2q17 -4 31 -18q7 -6 7 -17q0 -7 -3 -16q-2 -5 -7 -8q-3 -2 -8 0q-9 6 -9 15l1 10
q1 4 -3 8l-10 5l-6 1q-7 0 -12 -6q-8 -8 -17 -24q-28 -53 -44 -107q-7 -24 -9 -48q-1 -2 -1 -7q0 -10 3 -22l2 -4q3 -5 9 -5h1q6 0 12 3q15 7 25 18q13 13 25 28l36 45l9 9q3 4 9 4q8 0 12 -6q5 -7 6 -15q4 -16 8 -52l8 -70l2 -22l1 -16l3 -3l4 2q2 1 4 5l30 33l68 78
q21 23 65 67q8 9 22 18q5 4 14 4q6 0 9 -1q7 -3 9 -7q1 -2 1 -7zM161 -352l-1 39l-5 115q0 16 -1 28t-2 20q0 3 -1 4l-1 2h-2q-3 -4 -6.5 -7t-5.5 -6q-46 -57 -68 -90q-74 -104 -121 -203q-27 -58 -45 -113q-26 -83 -26 -166q0 -12 2 -36q2 -26 9 -50q3 -15 13 -28
q13 -18 31 -19q10 -2 14 -2q7 0 23 4q32 8 59 34q19 18 34 40q19 30 38 72q47 110 57 246q5 65 5 116z" />
    <glyph glyph-name="Gdotaccent" unicode="&#x120;" horiz-adv-x="728" 
d="M371 846q0 29 15 42.5t37 13.5q21 0 36 -13.5t15 -42.5t-15.5 -42.5t-35.5 -13.5q-22 0 -37 13.5t-15 42.5zM9 -565q0 21 7 53q13 44 36 88q36 69 67 119q68 112 137 200l28 35q7 7 7 18v5q0 43 -3 87q-1 32 -9 64q0 2 -2 10t-8 14q-1 2 -3 1.5t-3 -1.5l-5 -4l-11 -16
l-21 -31l-23 -33q-38 -47 -92 -74q-15 -8 -33 -13q-12 -3 -24 -3q-38 0 -53 32q-8 19 -8 37v8q0 15 1 22q2 28 15 72q21 68 49 125q21 41 49 76q23 29 54 52q41 27 83 34q6 1 16 1q13 0 30 -5q25 -8 36 -28q23 -35 20 -75l-1 -3q-2 -7 -9 -7q-3 -1 -6 1.5t-4 5.5q-2 6 -2 12
q0 15 -5 33q-1 3 -3.5 9.5t-5.5 10.5q-16 25 -50 25q-22 0 -42 -7q-37 -13 -69 -43q-24 -21 -42 -48q-9 -13 -25 -39q-41 -78 -61 -154q-7 -23 -10 -52q-1 -6 -1 -17q0 -13 3 -27q3 -8 4 -10q9 -24 36 -24q15 0 32 7q37 15 68 41q21 18 38 41l39 56q5 6 8 11t6 9l10 9
q4 4 12 4q10 0 16 -7q7 -8 10 -19q4 -10 6.5 -23.5t3.5 -19.5q3 -22 5 -68l2 -34q0 -7 1 -11l0.5 -0.5l0.5 -0.5q2 -2 4 0l9 9q58 62 113 103l61 46l13 8q1 1 3 1t4 -1t3 -3q2 -2 2 -5t-2 -5l-10 -9l-65 -49q-51 -39 -93 -82q-1 -1 -37 -40q-7 -7 -7 -18t-2 -33
q0 -54 -6 -106q-12 -127 -43 -219q-19 -56 -45 -101q-17 -30 -39 -56q-17 -19 -32 -30q-18 -13 -37 -19q-15 -5 -26 -5q-43 0 -61 36q-7 13 -9 30v17zM288 -137q1 10 1 31q0 4 -1 6l-0.5 0.5l-0.5 0.5q-2 0 -4 -2q-35 -42 -70 -93q-67 -96 -135 -221q-22 -42 -30 -64
q-13 -30 -19 -66q-2 -14 -2 -22q0 -16 4 -28q5 -16 17.5 -25t28.5 -9q8 0 12 1q16 3 28 11q14 7 23 17q24 20 46 54q20 31 36 68q28 68 44 148q9 48 15 96q6 64 7 97z" />
    <glyph glyph-name="gdotaccent" unicode="&#x121;" horiz-adv-x="615" 
d="M247 681q0 29 15 42.5t37 13.5q21 0 36 -13.5t15 -42.5t-15.5 -42.5t-35.5 -13.5q-22 0 -37 13.5t-15 42.5zM396 114q0 -4 -2.5 -7t-5.5 -3l-7 1l-3 1q-5 0 -9 -4l-18 -16l-48 -50q-53 -57 -123 -139l-5 -7q-4 -4 -4 -11q0 -9 1 -14l1 -16l6 -127v-76v-44q0 -57 -8 -121
q-7 -56 -23 -117q-18 -63 -41 -110q-17 -35 -34 -59q-19 -27 -44 -47q-31 -23 -70 -31q-5 -1 -14 -1q-13 0 -30 5q-21 8 -32 25q-13 18 -18 40q-8 30 -9 59q-4 93 24 190q16 58 53 133q45 94 110 187q36 53 83 111l17 21q5 5 5 12q0 11 -2 35l-7 72q-1 8 -3.5 29.5
t-6.5 38.5q-2 3 -4 1l-7 -8l-20 -24l-20 -24q-11 -14 -27 -25q-15 -11 -28 -14q-6 -2 -9 -2q-20 0 -29 20q-5 13 -5 32q0 22 6 44q16 68 53 133q8 14 13 20q7 8 18 13q8 4 19 2q17 -4 31 -18q7 -6 7 -17q0 -7 -3 -16q-2 -5 -7 -8q-3 -2 -8 0q-9 6 -9 15l1 10q1 4 -3 8l-10 5
l-6 1q-7 0 -12 -6q-8 -8 -17 -24q-28 -53 -44 -107q-7 -24 -9 -48q-1 -2 -1 -7q0 -10 3 -22l2 -4q3 -5 9 -5h1q6 0 12 3q15 7 25 18q13 13 25 28l36 45l9 9q3 4 9 4q8 0 12 -6q5 -7 6 -15q4 -16 8 -52l8 -70l2 -22l1 -16l3 -3l4 2q2 1 4 5l30 33l68 78q21 23 65 67
q8 9 22 18q5 4 14 4q6 0 9 -1q7 -3 9 -7q1 -2 1 -7zM161 -352l-1 39l-5 115q0 16 -1 28t-2 20q0 3 -1 4l-1 2h-2q-3 -4 -6.5 -7t-5.5 -6q-46 -57 -68 -90q-74 -104 -121 -203q-27 -58 -45 -113q-26 -83 -26 -166q0 -12 2 -36q2 -26 9 -50q3 -15 13 -28q13 -18 31 -19
q10 -2 14 -2q7 0 23 4q32 8 59 34q19 18 34 40q19 30 38 72q47 110 57 246q5 65 5 116z" />
    <glyph glyph-name="uni0122" unicode="&#x122;" horiz-adv-x="728" 
d="M322 -209q11 25 24 70.5t17 77.5h87v-9q-8 -31 -31.5 -76.5t-48.5 -74.5h-48v12zM9 -565q0 21 7 53q13 44 36 88q36 69 67 119q68 112 137 200l28 35q7 7 7 18v5q0 43 -3 87q-1 32 -9 64q0 2 -2 10t-8 14q-1 2 -3 1.5t-3 -1.5l-5 -4l-11 -16l-21 -31l-23 -33
q-38 -47 -92 -74q-15 -8 -33 -13q-12 -3 -24 -3q-38 0 -53 32q-8 19 -8 37v8q0 15 1 22q2 28 15 72q21 68 49 125q21 41 49 76q23 29 54 52q41 27 83 34q6 1 16 1q13 0 30 -5q25 -8 36 -28q23 -35 20 -75l-1 -3q-2 -7 -9 -7q-3 -1 -6 1.5t-4 5.5q-2 6 -2 12q0 15 -5 33
q-1 3 -3.5 9.5t-5.5 10.5q-16 25 -50 25q-22 0 -42 -7q-37 -13 -69 -43q-24 -21 -42 -48q-9 -13 -25 -39q-41 -78 -61 -154q-7 -23 -10 -52q-1 -6 -1 -17q0 -13 3 -27q3 -8 4 -10q9 -24 36 -24q15 0 32 7q37 15 68 41q21 18 38 41l39 56q5 6 8 11t6 9l10 9q4 4 12 4
q10 0 16 -7q7 -8 10 -19q4 -10 6.5 -23.5t3.5 -19.5q3 -22 5 -68l2 -34q0 -7 1 -11l0.5 -0.5l0.5 -0.5q2 -2 4 0l9 9q58 62 113 103l61 46l13 8q1 1 3 1t4 -1t3 -3q2 -2 2 -5t-2 -5l-10 -9l-65 -49q-51 -39 -93 -82q-1 -1 -37 -40q-7 -7 -7 -18t-2 -33q0 -54 -6 -106
q-12 -127 -43 -219q-19 -56 -45 -101q-17 -30 -39 -56q-17 -19 -32 -30q-18 -13 -37 -19q-15 -5 -26 -5q-43 0 -61 36q-7 13 -9 30v17zM288 -137q1 10 1 31q0 4 -1 6l-0.5 0.5l-0.5 0.5q-2 0 -4 -2q-35 -42 -70 -93q-67 -96 -135 -221q-22 -42 -30 -64q-13 -30 -19 -66
q-2 -14 -2 -22q0 -16 4 -28q5 -16 17.5 -25t28.5 -9q8 0 12 1q16 3 28 11q14 7 23 17q24 20 46 54q20 31 36 68q28 68 44 148q9 48 15 96q6 64 7 97z" />
    <glyph glyph-name="uni0123" unicode="&#x123;" horiz-adv-x="615" 
d="M379 754q-13 -29 -26 -74.5t-16 -73.5h-87v9q7 27 31.5 74t48.5 77h49v-12zM396 114q0 -4 -2.5 -7t-5.5 -3l-7 1l-3 1q-5 0 -9 -4l-18 -16l-48 -50q-53 -57 -123 -139l-5 -7q-4 -4 -4 -11q0 -9 1 -14l1 -16l6 -127v-76v-44q0 -57 -8 -121q-7 -56 -23 -117
q-18 -63 -41 -110q-17 -35 -34 -59q-19 -27 -44 -47q-31 -23 -70 -31q-5 -1 -14 -1q-13 0 -30 5q-21 8 -32 25q-13 18 -18 40q-8 30 -9 59q-4 93 24 190q16 58 53 133q45 94 110 187q36 53 83 111l17 21q5 5 5 12q0 11 -2 35l-7 72q-1 8 -3.5 29.5t-6.5 38.5q-2 3 -4 1
l-7 -8l-20 -24l-20 -24q-11 -14 -27 -25q-15 -11 -28 -14q-6 -2 -9 -2q-20 0 -29 20q-5 13 -5 32q0 22 6 44q16 68 53 133q8 14 13 20q7 8 18 13q8 4 19 2q17 -4 31 -18q7 -6 7 -17q0 -7 -3 -16q-2 -5 -7 -8q-3 -2 -8 0q-9 6 -9 15l1 10q1 4 -3 8l-10 5l-6 1q-7 0 -12 -6
q-8 -8 -17 -24q-28 -53 -44 -107q-7 -24 -9 -48q-1 -2 -1 -7q0 -10 3 -22l2 -4q3 -5 9 -5h1q6 0 12 3q15 7 25 18q13 13 25 28l36 45l9 9q3 4 9 4q8 0 12 -6q5 -7 6 -15q4 -16 8 -52l8 -70l2 -22l1 -16l3 -3l4 2q2 1 4 5l30 33l68 78q21 23 65 67q8 9 22 18q5 4 14 4
q6 0 9 -1q7 -3 9 -7q1 -2 1 -7zM161 -352l-1 39l-5 115q0 16 -1 28t-2 20q0 3 -1 4l-1 2h-2q-3 -4 -6.5 -7t-5.5 -6q-46 -57 -68 -90q-74 -104 -121 -203q-27 -58 -45 -113q-26 -83 -26 -166q0 -12 2 -36q2 -26 9 -50q3 -15 13 -28q13 -18 31 -19q10 -2 14 -2q7 0 23 4
q32 8 59 34q19 18 34 40q19 30 38 72q47 110 57 246q5 65 5 116z" />
    <glyph glyph-name="Hcircumflex" unicode="&#x124;" horiz-adv-x="741" 
d="M200 782q61 65 86 96.5t37 52.5h90q25 -49 125 -149v-11h-62q-44 26 -109 90q-64 -62 -107 -90h-60v11zM317 -451v30q3 37 7 105l6 79l7 71q4 31 5 50l11 103q3 33 11 97l11 92q3 30 11 90l2 24l-1 2q-3 0 -4 -1l-3 -3q-35 -42 -106 -103l-87 -72l-8 -7q-6 -5 -8 -13
l-13 -61q-24 -97 -54 -168q-13 -31 -30 -59q-12 -17 -23 -27q-10 -8 -16 -11q-10 -5 -18 -5q-13 0 -25 10q-7 6 -14 18q-9 17 -11 37q-1 7 -1 20q0 37 13 69q15 44 51 85q19 22 63 62l46 39l10 8q4 4 6 11l6 29l19 120q7 40 16 109l11 83q3 33 11 88l5 44l13 105l2 20
q3 8 4 10q2 3 6 4t7 -1q3 -1 3 -3q3 -3 3 -6v-35q0 -5 -1 -7q-5 -7 -6.5 -17.5t-2.5 -14.5q-3 -22 -6 -53.5t-9 -71.5q-6 -51 -20 -153l-19 -136l-15 -89q-1 -1 1 -4q0 -1 5 1l2 1q15 13 52.5 44.5t66.5 58.5q41 38 77 85q12 17 15 37q6 48 15 91q6 39 20 115q3 13 9 45.5
t13 56.5q3 11 11 31q4 11 10 17q7 7 14 7q10 0 16 -11q5 -9 7 -23q2 -28 2 -42q0 -86 -35 -188q-21 -61 -57 -117l-7 -11q-4 -6 -6 -14q-2 -15 -8 -55q-8 -60 -11 -90l-6 -46l-12 -103q-3 -19 -7 -57l-6 -59q-4 -33 -5 -46q-3 -21 -4 -37t-2 -27q-3 -21 -7 -68
q-4 -38 -5 -58l-1 -20q-6 -88 -5 -132q0 -32 3 -48q3 -24 16 -41l6 -9q3 -3 -2 -8q-2 -2 -5 -3t-5 1l-6 6q-15 20 -20 46q-4 30 -4 44v33zM-13 -156q1 -4 1 -10.5t2 -15.5q3 -13 9 -23l8 -8q5 -4 10 -4q2 0 8 2q11 6 19 15t20 29q16 27 28 58q26 66 43 141l8 33l1 6
q0 2 -0.5 3.5t-1.5 2.5l-4 -2q-49 -39 -80 -72q-19 -21 -27 -33q-18 -22 -31 -53q-12 -32 -13 -69zM495 643q1 4 1 12q2 23 -3 46l-2 1l-2 -1l-5 -10q-6 -16 -11 -36t-6 -26l-21 -110l-18 -97q-1 -4 -0.5 -8t-0.5 -8l2 -1l0.5 0.5l0.5 0.5q10 15 24 49q37 93 41 188z" />
    <glyph glyph-name="hcircumflex" unicode="&#x125;" horiz-adv-x="618" 
d="M143 809q61 65 86 96.5t37 52.5h90q25 -49 125 -149v-11h-62q-44 26 -109 90q-64 -62 -107 -90h-60v11zM464 106q0 -3 -3 -8l-38 -57q-49 -69 -88 -119q-18 -23 -36 -41q-1 -1 -22 -19q-15 -10 -30 -14q-9 -3 -17 -3q-23 0 -41 19q-9 9 -15 21q-10 22 -14 33l-21 58
q-4 10 -14 30q-1 3 -5 7q-1 1 -3 1t-3 -1l-8 -10q-17 -30 -20 -35q-19 -37 -35 -78l-13 -29q-4 -8 -8 -12q-5 -5 -11 -5q-7 0 -12 7q-4 10 -5 15q-5 15 -9 47q-4 37 -4 83q0 19 2 57q2 20 2 30l-1 16v2q0 6 1 9q2 14 4 44q4 47 7 68l10 72q12 81 37 177q30 115 65 204
q11 31 28 63q15 30 31 50q22 27 44 40q21 14 40 14q22 0 32 -19q7 -14 7 -27q1 -7 1 -22q0 -20 -3 -40q-7 -41 -27 -105q-30 -91 -76 -188q-65 -142 -134 -261q-15 -28 -35 -59q-10 -15 -10 -29l-3 -28l-1 -95q0 -23 6 -69q2 -14 5 -21q2 2 7 12l22 53q17 38 34 65
q4 7 14 19q9 10 19 10t21 -11l11 -19l17 -44l15 -43l12 -27q2 -4 9 -14q11 -14 28 -14q7 0 16 3q9 2 21 12q15 11 30 29q26 30 38 46l78 110q7 10 12 18.5t10 15.5q3 6 9 12q1 1 7 4h3q6 0 7 -3q3 -3 3 -7zM19 165q0 -2 3 -2l2 1l15 24q53 94 114 220q50 101 86 201
q17 47 26 84q12 52 13 79l-2 26q-1 5 -5 15q-1 3 -5 5t-8 2q-9 0 -27 -10q-25 -16 -41 -39q-14 -16 -25 -39q-16 -30 -31 -69q-38 -99 -66 -210q-21 -83 -32 -156q-5 -28 -9.5 -64t-6.5 -50q0 -12 -1 -18z" />
    <glyph glyph-name="Hbar" unicode="&#x126;" horiz-adv-x="741" 
d="M97 595v119h90v-119h366v119h90v-119h97v-72h-97v-523h-90v333h-366v-333h-90v523h-97v72h97zM553 412v111h-366v-111h366z" />
    <glyph glyph-name="hbar" unicode="&#x127;" horiz-adv-x="618" 
d="M450 0v323q0 65 -29 97t-91 32q-83 0 -120 -45t-37 -149v-258h-88v604h-76v66h76v90h88v-90h212v-66h-212v-87q0 -43 -5 -74h6q26 42 70.5 62.5t97.5 20.5q97 0 146 -47t49 -150v-329h-87z" />
    <glyph glyph-name="Itilde" unicode="&#x128;" horiz-adv-x="338" 
d="M244 772q-21 0 -41 9t-39.5 19.5t-37 19.5t-34.5 9q-24 0 -36 -14.5t-19 -43.5h-51q6 60 34 94t76 34q22 0 42.5 -9t39.5 -19.5t37 -19.5t33 -9q23 0 35.5 14.5t19.5 43.5h50q-6 -58 -34 -93t-75 -35zM57 -197h2q7 0 19 4q20 6 98 28q146 42 218 64q5 1 23 8q14 3 19 14
l5 5q6 6 12 1q7 -5 5 -12l-3 -6q-6 -13 -20 -19q-22 -8 -25 -9l-127 -38q-61 -17 -115.5 -32.5t-101.5 -28.5q-13 -4 -39 -10q-8 -2 -24 -2q-6 1 -9 6q-2 2 -2.5 6t1.5 6l5 7q2 2 5 3.5t6 4.5q52 30 80 43q13 5 16 7q26 12 38 38q10 20 13 31q13 36 23 85q8 37 23 124
l21 120l24 144q3 22 14 85q2 8 0 15q-1 3 -0.5 6t0.5 5l4 19v1q0 5 -5 5q-3 0 -7.5 -1.5l-7.5 -2.5l-22.5 -7.5t-29.5 -10.5q-7 -2 -35 -14q-4 -2 -5 -2q-7 0 -11 9v2q0 5 3 8q3 4 8 5l34 14q16 6 70 22q13 5 15 7l5 20l4 8q4 4 8 4t6.5 -2.5t3.5 -5.5q0 -9 1 -13
q0 -2 1.5 -3t3.5 -1q4 2 6 2q58 16 88 22l45 9q25 4 49 15l10 4h2q5 0 9 -6q1 -1 1 -5t-3 -7l-9 -6q-21 -9 -48 -16q-42 -8 -63 -13l-88 -22q-11 -3 -13 -15q-1 -8 -5 -29l-25 -152l-24 -144q-20 -116 -31 -174q-12 -62 -26 -105q-9 -27 -17 -43q-17 -35 -49 -49
q-7 -3 -14.5 -6.5t-15.5 -7.5q-18 -8 -27 -16z" />
    <glyph glyph-name="itilde" unicode="&#x129;" horiz-adv-x="257" 
d="M204 607q-21 0 -41 9t-39.5 19.5t-37 19.5t-34.5 9q-24 0 -36 -14.5t-19 -43.5h-51q6 60 34 94t76 34q22 0 42.5 -9t39.5 -19.5t37 -19.5t33 -9q23 0 35.5 14.5t19.5 43.5h50q-6 -58 -34 -93t-75 -35zM173 0h-88v536h88v-536z" />
    <glyph glyph-name="Imacron" unicode="&#x12a;" horiz-adv-x="338" 
d="M21 842h297v-71h-297v71zM57 -197h2q7 0 19 4q20 6 98 28q146 42 218 64q5 1 23 8q14 3 19 14l5 5q6 6 12 1q7 -5 5 -12l-3 -6q-6 -13 -20 -19q-22 -8 -25 -9l-127 -38q-61 -17 -115.5 -32.5t-101.5 -28.5q-13 -4 -39 -10q-8 -2 -24 -2q-6 1 -9 6q-2 2 -2.5 6t1.5 6l5 7
q2 2 5 3.5t6 4.5q52 30 80 43q13 5 16 7q26 12 38 38q10 20 13 31q13 36 23 85q8 37 23 124l21 120l24 144q3 22 14 85q2 8 0 15q-1 3 -0.5 6t0.5 5l4 19v1q0 5 -5 5q-3 0 -7.5 -1.5l-7.5 -2.5l-22.5 -7.5t-29.5 -10.5q-7 -2 -35 -14q-4 -2 -5 -2q-7 0 -11 9v2q0 5 3 8
q3 4 8 5l34 14q16 6 70 22q13 5 15 7l5 20l4 8q4 4 8 4t6.5 -2.5t3.5 -5.5q0 -9 1 -13q0 -2 1.5 -3t3.5 -1q4 2 6 2q58 16 88 22l45 9q25 4 49 15l10 4h2q5 0 9 -6q1 -1 1 -5t-3 -7l-9 -6q-21 -9 -48 -16q-42 -8 -63 -13l-88 -22q-11 -3 -13 -15q-1 -8 -5 -29l-25 -152
l-24 -144q-20 -116 -31 -174q-12 -62 -26 -105q-9 -27 -17 -43q-17 -35 -49 -49q-7 -3 -14.5 -6.5t-15.5 -7.5q-18 -8 -27 -16z" />
    <glyph glyph-name="imacron" unicode="&#x12b;" horiz-adv-x="257" 
d="M-18 677h297v-71h-297v71zM173 0h-88v536h88v-536z" />
    <glyph glyph-name="Ibreve" unicode="&#x12c;" horiz-adv-x="338" 
d="M168 771q-69 0 -108.5 33.5t-44.5 100.5h54q4 -35 24.5 -49t76.5 -14q49 0 73 15.5t28 47.5h55q-6 -64 -48 -99t-110 -35zM57 -197h2q7 0 19 4q20 6 98 28q146 42 218 64q5 1 23 8q14 3 19 14l5 5q6 6 12 1q7 -5 5 -12l-3 -6q-6 -13 -20 -19q-22 -8 -25 -9l-127 -38
q-61 -17 -115.5 -32.5t-101.5 -28.5q-13 -4 -39 -10q-8 -2 -24 -2q-6 1 -9 6q-2 2 -2.5 6t1.5 6l5 7q2 2 5 3.5t6 4.5q52 30 80 43q13 5 16 7q26 12 38 38q10 20 13 31q13 36 23 85q8 37 23 124l21 120l24 144q3 22 14 85q2 8 0 15q-1 3 -0.5 6t0.5 5l4 19v1q0 5 -5 5
q-3 0 -7.5 -1.5l-7.5 -2.5l-22.5 -7.5t-29.5 -10.5q-7 -2 -35 -14q-4 -2 -5 -2q-7 0 -11 9v2q0 5 3 8q3 4 8 5l34 14q16 6 70 22q13 5 15 7l5 20l4 8q4 4 8 4t6.5 -2.5t3.5 -5.5q0 -9 1 -13q0 -2 1.5 -3t3.5 -1q4 2 6 2q58 16 88 22l45 9q25 4 49 15l10 4h2q5 0 9 -6
q1 -1 1 -5t-3 -7l-9 -6q-21 -9 -48 -16q-42 -8 -63 -13l-88 -22q-11 -3 -13 -15q-1 -8 -5 -29l-25 -152l-24 -144q-20 -116 -31 -174q-12 -62 -26 -105q-9 -27 -17 -43q-17 -35 -49 -49q-7 -3 -14.5 -6.5t-15.5 -7.5q-18 -8 -27 -16z" />
    <glyph glyph-name="ibreve" unicode="&#x12d;" horiz-adv-x="257" 
d="M126 606q-69 0 -108.5 33.5t-44.5 100.5h54q4 -35 24.5 -49t76.5 -14q49 0 73 15.5t28 47.5h55q-6 -64 -48 -99t-110 -35zM173 0h-88v536h88v-536z" />
    <glyph glyph-name="Iogonek" unicode="&#x12e;" horiz-adv-x="338" 
d="M160 -116q0 -22 12 -33.5t33 -11.5t48 6v-56q-34 -9 -62 -9q-103 0 -103 94q0 68 78 126h62q-34 -32 -51 -58.5t-17 -57.5zM57 -197h2q7 0 19 4q20 6 98 28q146 42 218 64q5 1 23 8q14 3 19 14l5 5q6 6 12 1q7 -5 5 -12l-3 -6q-6 -13 -20 -19q-22 -8 -25 -9l-127 -38
q-61 -17 -115.5 -32.5t-101.5 -28.5q-13 -4 -39 -10q-8 -2 -24 -2q-6 1 -9 6q-2 2 -2.5 6t1.5 6l5 7q2 2 5 3.5t6 4.5q52 30 80 43q13 5 16 7q26 12 38 38q10 20 13 31q13 36 23 85q8 37 23 124l21 120l24 144q3 22 14 85q2 8 0 15q-1 3 -0.5 6t0.5 5l4 19v1q0 5 -5 5
q-3 0 -7.5 -1.5l-7.5 -2.5l-22.5 -7.5t-29.5 -10.5q-7 -2 -35 -14q-4 -2 -5 -2q-7 0 -11 9v2q0 5 3 8q3 4 8 5l34 14q16 6 70 22q13 5 15 7l5 20l4 8q4 4 8 4t6.5 -2.5t3.5 -5.5q0 -9 1 -13q0 -2 1.5 -3t3.5 -1q4 2 6 2q58 16 88 22l45 9q25 4 49 15l10 4h2q5 0 9 -6
q1 -1 1 -5t-3 -7l-9 -6q-21 -9 -48 -16q-42 -8 -63 -13l-88 -22q-11 -3 -13 -15q-1 -8 -5 -29l-25 -152l-24 -144q-20 -116 -31 -174q-12 -62 -26 -105q-9 -27 -17 -43q-17 -35 -49 -49q-7 -3 -14.5 -6.5t-15.5 -7.5q-18 -8 -27 -16z" />
    <glyph glyph-name="iogonek" unicode="&#x12f;" horiz-adv-x="257" 
d="M97 -116q0 -22 12 -33.5t33 -11.5t48 6v-56q-34 -9 -62 -9q-103 0 -103 94q0 68 78 126h62q-34 -32 -51 -58.5t-17 -57.5zM167 118q3 -4 2 -8l-1 -4l-33 -70q-16 -32 -26 -47q-12 -16 -19 -24q-10 -13 -28 -21q-12 -5 -22 -5q-17 0 -28 14q-6 7 -9 18q-6 16 -8 29
q-7 38 -6 58q0 30 4 50l1 7q1 6 10 8q4 0 7 -2.5t4 -6.5q4 -11 0 -17q-4 -11 -4 -24q-3 -45 9 -87l6 -17q5 -10 16 -10q14 0 28 14q11 9 18 21q14 19 30 52l23 53q2 5 9 17q2 4 9 6q5 0 8 -4zM15 218q-3 5 -2 8q0 3 2 7q25 39 35 51l12 12q4 3 8 3h2q4 0 8 -4q3 -5 1 -11
l-7 -8q-11 -11 -20.5 -25.5t-12.5 -18.5l-5 -13q-3 -6 -10 -7q-8 0 -11 6z" />
    <glyph glyph-name="Idotaccent" unicode="&#x130;" horiz-adv-x="338" 
d="M117 846q0 29 15 42.5t37 13.5q21 0 36 -13.5t15 -42.5t-15.5 -42.5t-35.5 -13.5q-22 0 -37 13.5t-15 42.5zM57 -197h2q7 0 19 4q20 6 98 28q146 42 218 64q5 1 23 8q14 3 19 14l5 5q6 6 12 1q7 -5 5 -12l-3 -6q-6 -13 -20 -19q-22 -8 -25 -9l-127 -38
q-61 -17 -115.5 -32.5t-101.5 -28.5q-13 -4 -39 -10q-8 -2 -24 -2q-6 1 -9 6q-2 2 -2.5 6t1.5 6l5 7q2 2 5 3.5t6 4.5q52 30 80 43q13 5 16 7q26 12 38 38q10 20 13 31q13 36 23 85q8 37 23 124l21 120l24 144q3 22 14 85q2 8 0 15q-1 3 -0.5 6t0.5 5l4 19v1q0 5 -5 5
q-3 0 -7.5 -1.5l-7.5 -2.5l-22.5 -7.5t-29.5 -10.5q-7 -2 -35 -14q-4 -2 -5 -2q-7 0 -11 9v2q0 5 3 8q3 4 8 5l34 14q16 6 70 22q13 5 15 7l5 20l4 8q4 4 8 4t6.5 -2.5t3.5 -5.5q0 -9 1 -13q0 -2 1.5 -3t3.5 -1q4 2 6 2q58 16 88 22l45 9q25 4 49 15l10 4h2q5 0 9 -6
q1 -1 1 -5t-3 -7l-9 -6q-21 -9 -48 -16q-42 -8 -63 -13l-88 -22q-11 -3 -13 -15q-1 -8 -5 -29l-25 -152l-24 -144q-20 -116 -31 -174q-12 -62 -26 -105q-9 -27 -17 -43q-17 -35 -49 -49q-7 -3 -14.5 -6.5t-15.5 -7.5q-18 -8 -27 -16z" />
    <glyph glyph-name="dotlessi" unicode="&#x131;" horiz-adv-x="257" 
d="M173 0h-88v536h88v-536z" />
    <glyph glyph-name="IJ" unicode="&#x132;" horiz-adv-x="611" 
d="M57 -197h2q7 0 19 4q20 6 98 28q146 42 218 64q5 1 23 8q14 3 19 14l5 5q6 6 12 1q7 -5 5 -12l-3 -6q-6 -13 -20 -19q-22 -8 -25 -9l-127 -38q-61 -17 -115.5 -32.5t-101.5 -28.5q-13 -4 -39 -10q-8 -2 -24 -2q-6 1 -9 6q-2 2 -2.5 6t1.5 6l5 7q2 2 5 3.5t6 4.5
q52 30 80 43q13 5 16 7q26 12 38 38q10 20 13 31q13 36 23 85q8 37 23 124l21 120l24 144q3 22 14 85q2 8 0 15q-1 3 -0.5 6t0.5 5l4 19v1q0 5 -5 5q-3 0 -7.5 -1.5l-7.5 -2.5l-22.5 -7.5t-29.5 -10.5q-7 -2 -35 -14q-4 -2 -5 -2q-7 0 -11 9v2q0 5 3 8q3 4 8 5l34 14
q16 6 70 22q13 5 15 7l5 20l4 8q4 4 8 4t6.5 -2.5t3.5 -5.5q0 -9 1 -13q0 -2 1.5 -3t3.5 -1q4 2 6 2q58 16 88 22l45 9q25 4 49 15l10 4h2q5 0 9 -6q1 -1 1 -5t-3 -7l-9 -6q-21 -9 -48 -16q-42 -8 -63 -13l-88 -22q-11 -3 -13 -15q-1 -8 -5 -29l-25 -152l-24 -144
q-20 -116 -31 -174q-12 -62 -26 -105q-9 -27 -17 -43q-17 -35 -49 -49q-7 -3 -14.5 -6.5t-15.5 -7.5q-18 -8 -27 -16zM375 -358q0 40 17 91q17 48 47 97q24 36 50 67l57 65q9 8 10 22l11 83q3 30 11 90l5 42q10 79 22 146v2q0 1 -2 3h-2l-5 -4l-101 -111q-42 -47 -68 -82
q-28 -38 -40 -59q-14 -22 -22 -43q-7 -16 -12 -35q-4 -16 -4 -24q0 -16 8 -28l1 -3q0 -4 -5 -9q-2 -2 -6 -2q-5 0 -8 3t-7 11q-4 11 -4 25q0 26 15 63q11 24 31 59q32 50 70 94l59 66l16 18q24 28 74 82l12 16q12 13 18 32q3 9 8 18q4 7 11 7q4 0 7 -3t3 -8q0 -7 -3 -13.5
t-4 -8.5q-9 -13 -14 -37q-12 -52 -16 -82l-17 -118q-4 -26 -10 -88l-11 -83q0 -2 2 -2h1h1l9 8q26 27 59 57q26 23 42 33q16 11 43 22q8 2 13 2q4 0 6.5 -2.5t2.5 -5.5q0 -5 -5 -8q-2 -2 -6 -2q-35 -9 -68 -39q-26 -22 -38 -34l-59 -60q-8 -8 -10 -21q-7 -56 -13 -88
q-14 -90 -26 -136q-14 -52 -31 -83q-2 -4 -18 -31q-9 -14 -23 -26q-16 -12 -29 -16q-4 -1 -12 -1q-19 0 -31 16q-8 13 -11 31q-1 9 -1 25zM394 -362v-4q0 -16 4 -28l5 -10q8 -12 21 -7q14 3 25 14q16 16 28 37q16 28 27 62q15 45 27 112q5 30 16 106q0 1 1 4.5t-2 5.5
q-3 1 -7 -5l-37 -43q-39 -48 -60 -85q-23 -39 -37 -87q-11 -35 -11 -72z" />
    <glyph glyph-name="ij" unicode="&#x133;" horiz-adv-x="514" 
d="M167 118q3 -4 2 -8l-1 -4l-33 -70q-16 -32 -26 -47q-12 -16 -19 -24q-10 -13 -28 -21q-12 -5 -22 -5q-17 0 -28 14q-6 7 -9 18q-6 16 -8 29q-7 38 -6 58q0 30 4 50l1 7q1 6 10 8q4 0 7 -2.5t4 -6.5q4 -11 0 -17q-4 -11 -4 -24q-3 -45 9 -87l6 -17q5 -10 16 -10
q14 0 28 14q11 9 18 21q14 19 30 52l23 53q2 5 9 17q2 4 9 6q5 0 8 -4zM15 218q-3 5 -2 8q0 3 2 7q25 39 35 51l12 12q4 3 8 3h2q4 0 8 -4q3 -5 1 -11l-7 -8q-11 -11 -20.5 -25.5t-12.5 -18.5l-5 -13q-3 -6 -10 -7q-8 0 -11 6zM567.5 123q5.5 -6 5.5 -14q0 -4 -3 -10
q-3 -5 -9 -5q-5 0 -8 3l-3 3q-3 4 -8 2q-4 -3 -9.5 -6.5t-12.5 -8.5q-15 -11 -43 -35q-113 -101 -202 -213l-6 -9q-4 -4 -6 -14q-2 -52 -4 -80l-7 -97q-4 -44 -5 -66q-3 -35 -13 -105q-9 -63 -24 -126q-13 -58 -26 -93q-9 -29 -23 -55q-12 -22 -24 -37q-17 -19 -34 -28
q-15 -9 -33 -9q-19 0 -35 14q-10 10 -15 19q-8 16 -12 31q-9 33 -10 59q-1 9 -1 29q0 15 2 41q5 38 15 74q20 73 53 150q59 141 158 272l12 16q8 9 8 25l1 64v161v2q0 18 -2 27l-1 2q0 4 4 10q3 5 9 5q4 0 6.5 -2.5t3.5 -5.5q1 -4 1 -11v-42v-71v0l-1 -115l1 -4q1 -1 2.5 -1
t3.5 2l4 5l24 29q71 83 171 173q28 25 45 35q14 10 25 14q4 2 11 2q9 0 14.5 -6zM241 -214v2h-4q-7 -10 -8 -11q-95 -128 -152 -271q-31 -75 -45 -131q-15 -56 -15 -111q0 -17 4 -49q6 -28 12 -43q9 -16 13 -20q10 -12 25 -12q7 0 11 1q17 6 28 17q11 9 24 29q8 11 20 37
q12 28 21 60q23 79 40 188q8 54 10 81l7 72l6 98q0 7 2 19zM243 215q-3 5 -2 9l3 6q16 29 34 51q6 8 13 12q3 3 8 3l0.5 0.5l0.5 0.5q4 0 9 -5q2 -1 2 -4.5t-2 -5.5q-4 -6 -7 -9q-11 -11 -33 -44q-2 -2 -4 -12q-3 -7 -11 -7q-7 0 -11 5z" />
    <glyph glyph-name="Jcircumflex" unicode="&#x134;" horiz-adv-x="272" 
d="M-31 782q61 65 86 96.5t37 52.5h90q25 -49 125 -149v-11h-62q-44 26 -109 90q-64 -62 -107 -90h-60v11zM36 -358q0 40 17 91q17 48 47 97q24 36 50 67l57 65q9 8 10 22l11 83q3 30 11 90l5 42q10 79 22 146v2q0 1 -2 3h-2l-5 -4l-101 -111q-42 -47 -68 -82
q-28 -38 -40 -59q-14 -22 -22 -43q-7 -16 -12 -35q-4 -16 -4 -24q0 -16 8 -28l1 -3q0 -4 -5 -9q-2 -2 -6 -2q-5 0 -8 3t-7 11q-4 11 -4 25q0 26 15 63q11 24 31 59q32 50 70 94l59 66l16 18q24 28 74 82l12 16q12 13 18 32q3 9 8 18q4 7 11 7q4 0 7 -3t3 -8q0 -7 -3 -13.5
t-4 -8.5q-9 -13 -14 -37q-12 -52 -16 -82l-17 -118q-4 -26 -10 -88l-11 -83q0 -2 2 -2h1h1l9 8q26 27 59 57q26 23 42 33q16 11 43 22q8 2 13 2q4 0 6.5 -2.5t2.5 -5.5q0 -5 -5 -8q-2 -2 -6 -2q-35 -9 -68 -39q-26 -22 -38 -34l-59 -60q-8 -8 -10 -21q-7 -56 -13 -88
q-14 -90 -26 -136q-14 -52 -31 -83q-2 -4 -18 -31q-9 -14 -23 -26q-16 -12 -29 -16q-4 -1 -12 -1q-19 0 -31 16q-8 13 -11 31q-1 9 -1 25zM55 -362v-4q0 -16 4 -28l5 -10q8 -12 21 -7q14 3 25 14q16 16 28 37q16 28 27 62q15 45 27 112q5 30 16 106q0 1 1 4.5t-2 5.5
q-3 1 -7 -5l-37 -43q-39 -48 -60 -85q-23 -39 -37 -87q-11 -35 -11 -72z" />
    <glyph glyph-name="jcircumflex" unicode="&#x135;" horiz-adv-x="257" 
d="M-42 617q61 65 86 96.5t37 52.5h90q25 -49 125 -149v-11h-62q-44 26 -109 90q-64 -62 -107 -90h-60v11zM22 -240q-46 0 -77 12v71q34 -10 66 -10q38 0 56 21t18 63v619h88v-616q0 -80 -38.5 -120t-112.5 -40z" />
    <glyph glyph-name="uni0136" unicode="&#x136;" horiz-adv-x="619" 
d="M246 -209q11 25 24 70.5t17 77.5h87v-9q-8 -31 -31.5 -76.5t-48.5 -74.5h-48v12zM126 -229q-17 -1 -35 6q-11 4 -25 14q-15 11 -43 37l-8 8q-1 1 -2 0.5t-2 -0.5l-1 -2l-1 -9q-3 -96 -3 -194v-18q-1 -4 -4.5 -6t-7.5 0q-5 1 -6 6l-5 26v5q0 5 3 10q2 4 2 13q1 16 1 48
l1 131v7q0 8 -1 13q-1 3 -1 9q0 4 2 12l2 11v22q0 35 4 105q2 20 2 30q1 16 5 55l2 20q1 10 2 25t4 34q3 29 11 85q5 35 14 92q11 68 16 94q5 29 6 57l2 11q2 5 7 6.5t9 -2.5q5 -4 6.5 -10.5t-0.5 -11.5q-4 -7 -6 -23l-15 -87l-15 -96l-12 -77l-6 -52q-4 -41 -7 -64l-1 -9
l-6 -90q-1 -17 -2.5 -46.5t-0.5 -51.5q0 -8 1 -13q0 -1 2 -1q3 0 9 4q9 8 23 26q16 24 27 46q32 59 56 134q40 116 74 250l6 28q1 2 1 5q0 5 -3 8q-3 5 -3 10q0 3 2 9l6 12q2 4 4 5q3 4 8 4q4 0 7 -2.5t4 -5.5t1 -8l-1 -12q-4 -16 -10 -48q-9 -36 -22 -82t-19 -67
q-27 -89 -50 -149t-44 -101l-23 -40q-22 -35 -51 -51q-2 -1 -2.5 -3t1.5 -4q31 -39 65 -62l11 -7q13 -8 30 -8q16 0 31 9q11 6 23 18q17 17 25 31q16 23 25 41q51 91 102 199q3 6 5 12t5 12q2 6 8 6q4 0 7 -3t3 -7q0 -6 -1 -8q-2 -6 -8 -18q-42 -89 -87 -174l-31 -54
q-10 -17 -28 -39q-20 -22 -35 -31q-17 -12 -39 -14z" />
    <glyph glyph-name="uni0137" unicode="&#x137;" horiz-adv-x="534" 
d="M203 -209q11 25 24 70.5t17 77.5h87v-9q-8 -31 -31.5 -76.5t-48.5 -74.5h-48v12zM286.5 108q1.5 -4 -0.5 -7l-4 -8l-51 -74q-18 -24 -37 -42q-45 -44 -115 -55q-7 -1 -21 -1q-13 0 -39 4l-6 1l-3 -3q-1 -1 -1 -4q0 -33 3 -64q0 -6 5 -9l4 -2q4 -4 4 -9q0 -9 -6 -27l-4 -5
q-3 -3 -8 -3q-6 0 -9 5q-1 2 -2 3.5t-1 4.5q-4 30 -4 44l-2 108l2 102l-1 31v2q0 14 2 40q2 16 2 24q0 9 1 13l1 38l4 88q5 69 13 123q16 98 39 161q18 50 41 86q10 18 29 41q10 11 23 21q19 13 40 13q5 0 17 -2q19 -4 32 -22t18 -45q1 -9 1 -26q0 -29 -8 -59
q-7 -27 -18 -55q-24 -64 -54 -126q-50 -104 -96 -194q-17 -37 -51 -93l-9 -15q-6 -10 -6 -21q-2 -62 -2 -93q-1 -10 -0.5 -18t0.5 -13q0 -2 2.5 -3.5t3.5 0.5q2 2 5 3.5t6 4.5q10 10 17 28q10 26 14 40q8 24 10 29q1 3 2 4.5t2 2.5q2 2 6 2.5t7 -0.5q2 -1 3.5 -3.5t1.5 -5.5
l-1 -6q-4 -14 -8.5 -25t-7.5 -21q-1 -6 -4 -11q-14 -36 -35 -55q-1 -1 -1 -4q-2 -2 5 -4l8 -1q75 -2 130 46q16 13 29 31l27 38l31 46l8 10q1 2 5.5 2.5t6.5 -1.5q3 -1 4.5 -5zM16 221l-3 -58l1 -8l0.5 -0.5l0.5 -0.5l5 4l11 20q20 36 29 54q60 120 89 180t51 118
q15 38 22 62q10 33 10 61q0 18 -4 33q-3 9 -8 20q-12 21 -34 21q-4 0 -12 -2q-9 -1 -17 -8q-11 -7 -23 -21q-13 -15 -29 -42q-28 -49 -48 -118q-27 -92 -35 -209q-2 -24 -4 -72q-2 -22 -2 -34v0z" />
    <glyph glyph-name="kgreenlandic" unicode="&#x138;" horiz-adv-x="534" 
d="M403 536h106l-203 -237l219 -299h-105l-176 242l-66 -54v-188h-93v536h93v-139q0 -68 -6 -135l41 50z" />
    <glyph glyph-name="Lacute" unicode="&#x139;" horiz-adv-x="523" 
d="M-12 -208l6 39q14 78 22 117q8 45 32 167l6 31q19 87 33 164q13 73 21 106q2 9 8 27q4 8 7 12t9 4t9.5 -5.5t1.5 -10.5l-2 -4q-6 -5 -9 -13.5t-3 -9.5q-6 -26 -16 -78q-20 -105 -42 -210q-23 -109 -34 -173l-25 -135q-1 -5 -1 -15q0 -2 2 -2q3 0 9 4q43 29 96 48
q60 23 112 35l28 6h10q16 0 24 -6q7 -3 9 -7q3 -5 1 -10q-1 -3 -4.5 -5t-6.5 -1l-4 2q-7 6 -21 6q-15 0 -41 -6q-73 -19 -133 -46q-39 -16 -68 -37q-12 -8 -19 -11q-6 -2 -11 1q-4 4 -5 7t-1 9zM118 783q19 23 47.5 66.5t47.5 81.5h106v-10q-21 -31 -66.5 -78.5t-76.5 -71.5
h-58v12z" />
    <glyph glyph-name="lacute" unicode="&#x13a;" horiz-adv-x="257" 
d="M203 613q0 -40 -8 -83q-17 -94 -66 -208q-18 -42 -58 -122q-36 -70 -53 -105q-6 -13 -8.5 -19.5t-2.5 -13.5v-13q-2 -64 -2 -97q0 -52 2 -78q1 -30 5 -92l4 -27q0 -8 7 -9l5 -4q4 -4 4 -6q0 -11 -7 -21q-3 -4 -9 -4t-9 5l-4 10q-8 30 -9 59q-6 84 -7 126l-1 31h-1l3 86
v18l2 50q2 46 4 69q4 53 7 83q1 8 2 21t4 30q20 164 81 315q4 10 20 42l15 22q8 10 16 15q12 6 21 6q17 0 29 -16q10 -15 12 -35q2 -22 2 -35zM183 617q0 17 -3 33q-2 10 -6 17q-6 11 -14 11q-6 0 -13 -5q-6 -5 -16 -19q-14 -24 -19 -37q-14 -31 -32 -82q-33 -98 -47 -191
q-8 -46 -10 -70q-3 -22 -7 -66l-3 -39q-2 -19 -1 -29q4 1 5.5 4t2.5 4l54 106q41 82 68 160q33 97 40 177zM81 811q19 23 47.5 66.5t47.5 81.5h106v-10q-21 -31 -66.5 -78.5t-76.5 -71.5h-58v12z" />
    <glyph glyph-name="uni013B" unicode="&#x13b;" horiz-adv-x="523" 
d="M204 -209q11 25 24 70.5t17 77.5h87v-9q-8 -31 -31.5 -76.5t-48.5 -74.5h-48v12zM-12 -208l6 39q14 78 22 117q8 45 32 167l6 31q19 87 33 164q13 73 21 106q2 9 8 27q4 8 7 12t9 4t9.5 -5.5t1.5 -10.5l-2 -4q-6 -5 -9 -13.5t-3 -9.5q-6 -26 -16 -78q-20 -105 -42 -210
q-23 -109 -34 -173l-25 -135q-1 -5 -1 -15q0 -2 2 -2q3 0 9 4q43 29 96 48q60 23 112 35l28 6h10q16 0 24 -6q7 -3 9 -7q3 -5 1 -10q-1 -3 -4.5 -5t-6.5 -1l-4 2q-7 6 -21 6q-15 0 -41 -6q-73 -19 -133 -46q-39 -16 -68 -37q-12 -8 -19 -11q-6 -2 -11 1q-4 4 -5 7t-1 9z" />
    <glyph glyph-name="uni013C" unicode="&#x13c;" horiz-adv-x="257" 
d="M45 -209q11 25 24 70.5t17 77.5h87v-9q-8 -31 -31.5 -76.5t-48.5 -74.5h-48v12zM203 613q0 -40 -8 -83q-17 -94 -66 -208q-18 -42 -58 -122q-36 -70 -53 -105q-6 -13 -8.5 -19.5t-2.5 -13.5v-13q-2 -64 -2 -97q0 -52 2 -78q1 -30 5 -92l4 -27q0 -8 7 -9l5 -4q4 -4 4 -6
q0 -11 -7 -21q-3 -4 -9 -4t-9 5l-4 10q-8 30 -9 59q-6 84 -7 126l-1 31h-1l3 86v18l2 50q2 46 4 69q4 53 7 83q1 8 2 21t4 30q20 164 81 315q4 10 20 42l15 22q8 10 16 15q12 6 21 6q17 0 29 -16q10 -15 12 -35q2 -22 2 -35zM183 617q0 17 -3 33q-2 10 -6 17q-6 11 -14 11
q-6 0 -13 -5q-6 -5 -16 -19q-14 -24 -19 -37q-14 -31 -32 -82q-33 -98 -47 -191q-8 -46 -10 -70q-3 -22 -7 -66l-3 -39q-2 -19 -1 -29q4 1 5.5 4t2.5 4l54 106q41 82 68 160q33 97 40 177z" />
    <glyph glyph-name="Lcaron" unicode="&#x13d;" horiz-adv-x="523" 
d="M333 567q11 32 20.5 77.5t12.5 70.5h87v-9q-6 -26 -27 -71t-45 -80h-48v12zM-12 -208l6 39q14 78 22 117q8 45 32 167l6 31q19 87 33 164q13 73 21 106q2 9 8 27q4 8 7 12t9 4t9.5 -5.5t1.5 -10.5l-2 -4q-6 -5 -9 -13.5t-3 -9.5q-6 -26 -16 -78q-20 -105 -42 -210
q-23 -109 -34 -173l-25 -135q-1 -5 -1 -15q0 -2 2 -2q3 0 9 4q43 29 96 48q60 23 112 35l28 6h10q16 0 24 -6q7 -3 9 -7q3 -5 1 -10q-1 -3 -4.5 -5t-6.5 -1l-4 2q-7 6 -21 6q-15 0 -41 -6q-73 -19 -133 -46q-39 -16 -68 -37q-12 -8 -19 -11q-6 -2 -11 1q-4 4 -5 7t-1 9z" />
    <glyph glyph-name="lcaron" unicode="&#x13e;" horiz-adv-x="257" 
d="M219 612q11 32 20.5 77.5t12.5 70.5h87v-9q-6 -26 -27 -71t-45 -80h-48v12zM203 613q0 -40 -8 -83q-17 -94 -66 -208q-18 -42 -58 -122q-36 -70 -53 -105q-6 -13 -8.5 -19.5t-2.5 -13.5v-13q-2 -64 -2 -97q0 -52 2 -78q1 -30 5 -92l4 -27q0 -8 7 -9l5 -4q4 -4 4 -6
q0 -11 -7 -21q-3 -4 -9 -4t-9 5l-4 10q-8 30 -9 59q-6 84 -7 126l-1 31h-1l3 86v18l2 50q2 46 4 69q4 53 7 83q1 8 2 21t4 30q20 164 81 315q4 10 20 42l15 22q8 10 16 15q12 6 21 6q17 0 29 -16q10 -15 12 -35q2 -22 2 -35zM183 617q0 17 -3 33q-2 10 -6 17q-6 11 -14 11
q-6 0 -13 -5q-6 -5 -16 -19q-14 -24 -19 -37q-14 -31 -32 -82q-33 -98 -47 -191q-8 -46 -10 -70q-3 -22 -7 -66l-3 -39q-2 -19 -1 -29q4 1 5.5 4t2.5 4l54 106q41 82 68 160q33 97 40 177z" />
    <glyph glyph-name="Ldot" unicode="&#x13f;" horiz-adv-x="523" 
d="M332 357q0 29 15 42.5t37 13.5q21 0 36 -13.5t15 -42.5t-15.5 -42.5t-35.5 -13.5q-22 0 -37 13.5t-15 42.5zM-12 -208l6 39q14 78 22 117q8 45 32 167l6 31q19 87 33 164q13 73 21 106q2 9 8 27q4 8 7 12t9 4t9.5 -5.5t1.5 -10.5l-2 -4q-6 -5 -9 -13.5t-3 -9.5
q-6 -26 -16 -78q-20 -105 -42 -210q-23 -109 -34 -173l-25 -135q-1 -5 -1 -15q0 -2 2 -2q3 0 9 4q43 29 96 48q60 23 112 35l28 6h10q16 0 24 -6q7 -3 9 -7q3 -5 1 -10q-1 -3 -4.5 -5t-6.5 -1l-4 2q-7 6 -21 6q-15 0 -41 -6q-73 -19 -133 -46q-39 -16 -68 -37
q-12 -8 -19 -11q-6 -2 -11 1q-4 4 -5 7t-1 9z" />
    <glyph glyph-name="ldot" unicode="&#x140;" horiz-adv-x="325" 
d="M240 333q0 29 15 42.5t37 13.5q21 0 36 -13.5t15 -42.5t-15.5 -42.5t-35.5 -13.5q-22 0 -37 13.5t-15 42.5zM203 613q0 -40 -8 -83q-17 -94 -66 -208q-18 -42 -58 -122q-36 -70 -53 -105q-6 -13 -8.5 -19.5t-2.5 -13.5v-13q-2 -64 -2 -97q0 -52 2 -78q1 -30 5 -92l4 -27
q0 -8 7 -9l5 -4q4 -4 4 -6q0 -11 -7 -21q-3 -4 -9 -4t-9 5l-4 10q-8 30 -9 59q-6 84 -7 126l-1 31h-1l3 86v18l2 50q2 46 4 69q4 53 7 83q1 8 2 21t4 30q20 164 81 315q4 10 20 42l15 22q8 10 16 15q12 6 21 6q17 0 29 -16q10 -15 12 -35q2 -22 2 -35zM183 617q0 17 -3 33
q-2 10 -6 17q-6 11 -14 11q-6 0 -13 -5q-6 -5 -16 -19q-14 -24 -19 -37q-14 -31 -32 -82q-33 -98 -47 -191q-8 -46 -10 -70q-3 -22 -7 -66l-3 -39q-2 -19 -1 -29q4 1 5.5 4t2.5 4l54 106q41 82 68 160q33 97 40 177z" />
    <glyph glyph-name="Lslash" unicode="&#x141;" horiz-adv-x="523" 
d="M97 0v247l-49 -28l-35 60l84 50v385h90v-332l137 81l36 -63l-173 -100v-220h312v-80h-402z" />
    <glyph glyph-name="lslash" unicode="&#x142;" horiz-adv-x="257" 
d="M166 425l64 44l37 -59l-101 -68v-342h-88v285l-51 -32l-36 59l87 56v392h88v-335z" />
    <glyph glyph-name="Nacute" unicode="&#x143;" horiz-adv-x="759" 
d="M-5 -100q5 8 9 22q17 65 22 83q19 63 45 127q42 101 78 171q6 13 11.5 22.5t9.5 16.5q1 1 14 17l7 5q2 1 7 1q8 0 13 -6q4 -8 4 -13q1 -7 1 -21q0 -38 -3 -76q-2 -14 -4 -42l-3 -35q-2 -21 -4 -59l-2 -34q-1 -8 -1 -25q0 -21 4 -63q2 -20 9 -38q3 -9 9 -15t14 -4
q6 2 23 14q19 18 36 39l46 56l29 37q16 24 20 32l4 5q2 3 5.5 3.5t6.5 -1.5q2 -2 3.5 -5t0.5 -6q0 -2 -2 -6q-6 -12 -10 -17l-14 -20q-4 -5 -70 -85l-33 -36q-6 -6 -12 -10.5l-10 -7.5q-9 -6 -18 -9q-8 -2 -10 -2q-13 0 -22 11q-8 8 -14 25q-7 19 -10 43q-3 32 -3 62
q0 14 2 42q0 9 1 13q1 24 5 72l3 43q0 8 2 24q3 38 3 75l-1 11h-2q-1 1 -2 0l-4 -5l-15 -24q-80 -160 -119 -283q-18 -58 -37 -134l-9 -32l-6 -14q-2 -4 -4 -6q-3 -4 -9 -4q-8 0 -11 7q-2 4 -2 6q-3 12 -3 24q0 23 2 51.5t3 39.5q2 26 8 70q6 50 10 79q2 14 5.5 38t6.5 41
q15 100 35 180q10 38 18 57q7 16 11 21q4 6 11 7h2q8 0 11 -6q4 -5 4 -13q0 -11 -11 -14q-7 -1 -10 -8q-12 -30 -17 -57q-11 -39 -24 -112l-16 -96q-4 -29 -10 -79q-8 -57 -11 -92q-2 -14 -3.5 -33.5t-2.5 -30.5v-14zM318 783q19 23 47.5 66.5t47.5 81.5h106v-10
q-21 -31 -66.5 -78.5t-76.5 -71.5h-58v12z" />
    <glyph glyph-name="nacute" unicode="&#x144;" horiz-adv-x="618" 
d="M357 111q0 -5 -3 -10t-8 -6q-3 -1 -6 0q-6 2 -9 4l-9 -6l-36 -33l-42 -42q-15 -16 -31 -31q-6 -5 -10.5 -8.5t-8.5 -6.5l-9 -6q-10 -5 -18 -5q-12 0 -23 9q-22 19 -32 45q-7 21 -12 42l-6 24q0 2 -3 2t-4 -1l-13 -21l-52 -89l-18 -28q-5 -6 -11 -11q-3 -3 -7 -3
q-8 0 -13 9l-1 7v1q0 12 1 18q3 33 9 66q6 50 16 91q9 43 17 66q2 7 8 19q1 4 8 7h4q4 0 7.5 -2t3.5 -6q1 -3 1 -9q0 -13 -10 -21q-5 -4 -8 -11q-6 -22 -17 -75q-5 -24 -10 -57t-8 -50q0 -1 -0.5 -4.5t1.5 -6.5q1 1 2 1t1 1l9 13l47 82l15 24q5 8 10 12q6 7 14 7
q10 0 15 -11q4 -7 5 -14l9 -37q3 -12 8 -29q7 -20 26 -36q2 -2 3 -2q9 -4 13 -2l10 5q18 15 19 16l31 31q11 11 21.5 22t21.5 22q11 12 35 34q13 11 24 15q2 1 7 1q9 0 14 -8zM250 618q19 23 47.5 66.5t47.5 81.5h106v-10q-21 -31 -66.5 -78.5t-76.5 -71.5h-58v12z" />
    <glyph glyph-name="uni0145" unicode="&#x145;" horiz-adv-x="759" 
d="M281 -209q11 25 24 70.5t17 77.5h87v-9q-8 -31 -31.5 -76.5t-48.5 -74.5h-48v12zM-5 -100q5 8 9 22q17 65 22 83q19 63 45 127q42 101 78 171q6 13 11.5 22.5t9.5 16.5q1 1 14 17l7 5q2 1 7 1q8 0 13 -6q4 -8 4 -13q1 -7 1 -21q0 -38 -3 -76q-2 -14 -4 -42l-3 -35
q-2 -21 -4 -59l-2 -34q-1 -8 -1 -25q0 -21 4 -63q2 -20 9 -38q3 -9 9 -15t14 -4q6 2 23 14q19 18 36 39l46 56l29 37q16 24 20 32l4 5q2 3 5.5 3.5t6.5 -1.5q2 -2 3.5 -5t0.5 -6q0 -2 -2 -6q-6 -12 -10 -17l-14 -20q-4 -5 -70 -85l-33 -36q-6 -6 -12 -10.5l-10 -7.5
q-9 -6 -18 -9q-8 -2 -10 -2q-13 0 -22 11q-8 8 -14 25q-7 19 -10 43q-3 32 -3 62q0 14 2 42q0 9 1 13q1 24 5 72l3 43q0 8 2 24q3 38 3 75l-1 11h-2q-1 1 -2 0l-4 -5l-15 -24q-80 -160 -119 -283q-18 -58 -37 -134l-9 -32l-6 -14q-2 -4 -4 -6q-3 -4 -9 -4q-8 0 -11 7
q-2 4 -2 6q-3 12 -3 24q0 23 2 51.5t3 39.5q2 26 8 70q6 50 10 79q2 14 5.5 38t6.5 41q15 100 35 180q10 38 18 57q7 16 11 21q4 6 11 7h2q8 0 11 -6q4 -5 4 -13q0 -11 -11 -14q-7 -1 -10 -8q-12 -30 -17 -57q-11 -39 -24 -112l-16 -96q-4 -29 -10 -79q-8 -57 -11 -92
q-2 -14 -3.5 -33.5t-2.5 -30.5v-14z" />
    </font>
</defs>
</svg>
