<?xml version="1.0" standalone="no"?>
<!DOCTYPE svg PUBLIC "-//W3C//DTD SVG 1.1//EN" "http://www.w3.org/Graphics/SVG/1.1/DTD/svg11.dtd" >
<svg xmlns="http://www.w3.org/2000/svg" xmlns:xlink="http://www.w3.org/1999/xlink" version="1.1">
<metadata>
Created by FontForge 20190801 at Mon Feb  8 12:19:39 2021
 By root
Copyright \(c\) 2016 by Jadugar Design Studio. All rights reserved.
</metadata>
<defs>
<font id="TyprighterV1-Regular" horiz-adv-x="390" >
  <font-face 
    font-family="TyprighterV1"
    font-weight="400"
    font-stretch="normal"
    units-per-em="1000"
    panose-1="0 0 0 0 0 0 0 0 0 0"
    ascent="780"
    descent="-220"
    x-height="526"
    cap-height="743"
    bbox="-213 -280 1249 1124"
    underline-thickness="50"
    underline-position="-100"
    unicode-range="U+0001-206F"
  />
<missing-glyph horiz-adv-x="364" 
d="M33 0v666h265v-666h-265zM66 33h199v600h-199v-600z" />
    <glyph glyph-name=".notdef" horiz-adv-x="364" 
d="M33 0v666h265v-666h-265zM66 33h199v600h-199v-600z" />
    <glyph glyph-name=".null" horiz-adv-x="0" 
 />
    <glyph glyph-name="nonmarkingreturn" unicode="&#xd;" 
 />
    <glyph glyph-name="NULL" 
 />
    <glyph glyph-name="NULL" 
 />
    <glyph glyph-name="uni0001" 
 />
    <glyph glyph-name="uni0002" 
 />
    <glyph glyph-name="uni0003" 
 />
    <glyph glyph-name="uni0004" 
 />
    <glyph glyph-name="uni0005" 
 />
    <glyph glyph-name="uni0006" 
 />
    <glyph glyph-name="uni0007" 
 />
    <glyph glyph-name="uni0008" 
 />
    <glyph glyph-name="uni0009" unicode="&#x9;" 
 />
    <glyph glyph-name="uni000A" unicode="&#xa;" 
 />
    <glyph glyph-name="uni000B" 
 />
    <glyph glyph-name="uni000C" 
 />
    <glyph glyph-name="uni000E" 
 />
    <glyph glyph-name="uni000F" 
 />
    <glyph glyph-name="uni0010" 
 />
    <glyph glyph-name="uni0011" 
 />
    <glyph glyph-name="uni0012" 
 />
    <glyph glyph-name="uni0013" 
 />
    <glyph glyph-name="uni0014" 
 />
    <glyph glyph-name="uni0015" 
 />
    <glyph glyph-name="uni0016" 
 />
    <glyph glyph-name="uni0017" 
 />
    <glyph glyph-name="uni0018" 
 />
    <glyph glyph-name="uni0019" 
 />
    <glyph glyph-name="uni001A" 
 />
    <glyph glyph-name="uni001B" 
 />
    <glyph glyph-name="uni001C" 
 />
    <glyph glyph-name="uni001D" 
 />
    <glyph glyph-name="uni001E" 
 />
    <glyph glyph-name="uni001F" 
 />
    <glyph glyph-name="space" unicode=" " 
 />
    <glyph glyph-name="exclam" unicode="!" horiz-adv-x="152" 
d="M41 676q20 24 33 27q5 1 13 1q35 0 35 -40q0 -9 -1 -14q2 -38 2 -67q0 -79 -18 -198q-1 -18 -6 -27t-22 -8q-20 0 -25.5 10.5t-3.5 29.5l-22 270zM131 26l-4 -17l-11 -9q-6 -1 -14.5 -4t-14.5 -3l-15 -1q-23 0 -37 10t-16 36q-1 25 14 37.5t42 12.5q60 0 56 -62z" />
    <glyph glyph-name="quotedbl" unicode="&#x22;" horiz-adv-x="309" 
d="M277 705q0 -16 -9 -36q-12 -18 -12 -47l1 -37q0 -16 -2 -24l1 -77q0 -36 -5.5 -52.5t-21.5 -16.5q-10 0 -19 4q-15 39 -15 87q0 8 3 50q2 24 2 31q0 16 -5.5 25t-19.5 10q2 42 2 63q0 64 45 64q8 0 12 -1q43 -7 43 -43zM97.5 744.5q13.5 -9.5 14.5 -26.5q1 -10 4 -25.5
t3 -26.5q0 -25 -14 -43q-2 -6 -1 -10q-9 -11 -9 -33v-18q0 -14 -3 -21v-71l-1 -59q-21 0 -27.5 10t-9.5 29q-2 23 -10 31q-1 7 -1 21q-8 43 -8 96q0 23 2 69q2 32 2 46q1 19 5.5 28.5t20.5 10.5q19 2 32.5 -7.5z" />
    <glyph glyph-name="numbersign" unicode="#" horiz-adv-x="555" 
d="M538 287q0 -9 -8 -18q-10 -13 -25 -13q-6 0 -26 4q-40 10 -67 10q-29 0 -42.5 -11.5t-17.5 -31.5t-4 -55q0 -49 -1 -77q-14 -18 -14 -44q0 -8 2 -24q2 -18 1 -29q-12 -14 -17 -31t-9 -44q-5 -33 -11.5 -52t-23.5 -37q-20 37 -20 75q0 20 5.5 44.5t11.5 46.5q12 40 16 69
q-2 17 1 33t11 42q7 22 10.5 38.5t2.5 34.5q0 5 -1 18t-6.5 22t-16.5 14q-48 -4 -64 -10t-20 -22t-9 -69q-8 -95 -41 -236q-2 -9 1.5 -24.5t3.5 -21.5q0 -16 -14 -26q-3 -2 -8.5 -8.5t-11 -11t-11.5 -4.5t-12 3q-19 10 -19 33q0 4 2 14q48 212 71 318q5 23 5 29q0 17 -13 26
q-7 6 -17 6q-12 0 -32 -12q-12 -8 -29 -8q-9 0 -23 2q-16 2 -26 11.5t-10 24.5q0 13 7 16.5t17 3.5t15 1q6 1 19 1q18 0 28 -1l27 -1q39 0 65 16q1 6 3.5 18.5t2.5 21.5q2 51 -9.5 73.5t-41.5 22.5q-23 0 -63 -14q-9 -3 -15 -3q-13 0 -28 10q-10 11 -10 24q0 9 5 20.5
t7 15.5q9 7 20.5 8t13.5 1q14 0 21 2l27 -21q24 -4 36 -4q26 0 48 14q10 17 10 47q0 8 2 24q-2 11 6 31q7 16 7 27q0 6 -3 13q3 35 16.5 82.5t30.5 54.5q8 2 13 4q12 -9 17.5 -14t5.5 -12q0 -9 -11 -19q-8 -14 -8 -39q0 -5 0.5 -23.5t-6.5 -33.5q-12 -18 -12 -49l1 -31
q0 -9 -1 -18.5t-1 -19.5q0 -23 17 -33q19 -10 32 -10q23 0 34.5 29.5t26.5 105.5q21 107 38 167q45 -1 45 -41q0 -9 -4 -25l-39 -166q1 -3 1 -9q0 -28 7.5 -41.5t23.5 -13.5q13 0 38 11q8 3 13 3q12 0 20 -10.5t8 -24.5q0 -10 -6.5 -13t-15 -3t-12.5 -1q-5 -1 -15 -1l-34 1
q-17 0 -30 -5.5t-23 -20.5l1 -5h-4l-10 -2q0 -39 -1 -59q2 -6 -2.5 -17t-4.5 -16q0 -11 16 -16h1q20 -14 50 -14q9 0 29 2t30 2h12q22 -8 22 -21zM336.5 343.5q4.5 25.5 4.5 56.5q0 48 -8 61q-54 -3 -82 -31t-28 -63q0 -27 16 -45.5t43 -18.5q20 0 42 11q8 4 12.5 29.5z" />
    <glyph glyph-name="dollar" unicode="$" horiz-adv-x="565" 
d="M470.5 341q36.5 -34 36.5 -50q0 -4 -2 -6.5t-3 -2.5q16 -26 16 -53t-16 -56l-3 -9q-9 -7 -9 -15q0 -6 4.5 -13t5.5 -9l-23 -46q-20 -4 -30.5 -8.5t-17.5 -16.5q-5 -3 -10.5 -9.5t-10.5 -11t-13 -4.5q-10 -19 -25 -24.5t-40 -7.5q-4 0 -13 -1t-17 -3l-2 -12l12 -58v-1
q-5 -6 -5 -22l-8 -37l-5 1l-4 -1q-23 1 -31 10t-8 25q0 12 1 21t2 15l-2 57q-2 0 -5 0.5t-5 -0.5q-12 2 -36 4q-6 2 -25 9.5t-34 16t-27 19.5q-9 -2 -15 1.5t-13 10.5q-9 11 -17 13q-3 11 -9.5 21.5t-14.5 19.5q-13 16 -19 27t-6 25q0 4 2 14q6 4 8.5 9.5t4.5 15.5
q4 21 17.5 33t30.5 12q7 0 19 -4q28 -10 28 -37q0 -18 -13 -41q-25 -18 -25 -35q0 -10 6.5 -18.5t16 -17t14.5 -13.5q3 1 9 1q13 0 27.5 -9t21.5 -12q13 -7 26 -7q18 0 33 19q-2 128 -2 192l1 88q0 33 -14.5 52t-33.5 19q-12 0 -22 -7l-33 12v-1l-43 33l-18 13v1
q-28 81 -28 139q0 20 3 39l14 24q49 34 60 40.5t11 5.5l19 9q10 5 29 11.5t47 16.5q17 4 39 4q38 0 74 -16.5t75 -46.5q51 -32 51 -93q0 -29 -8.5 -46.5t-29.5 -23.5q-5 -2 -15 -2q-20 0 -33 16q-12 15 -12 30t10 29q3 4 10 13.5t7 19.5q0 3 -2 9q-8 6 -17 15t-17 14.5
t-18 7.5q-8 1 -18.5 4t-17.5 3q-19 0 -19 -26l2 -20q1 -6 1 -17q0 -18 -8 -54q-4 -16 -7 -34t-2 -33q3 -33 12.5 -50.5t37.5 -25.5q99 -59 135.5 -93zM457 218q0 19 -4.5 37t-5.5 21q-6 21 -5 29q-35 35 -67.5 54t-55.5 19q-37 0 -37 -47q0 -22 11 -60q13 -43 13 -91
q0 -31 -7 -77q-9 -15 -9 -26q0 -20 35 -19q11 1 25.5 -0.5t20.5 -1.5q50 48 71 106q15 26 15 56zM250 607v64q-15 15 -23.5 21t-22.5 7l-32 -15q-1 -6 -7 -10.5t-13 -8.5q-20 -12 -31.5 -27.5t-11.5 -50.5q0 -20 4 -40q3 -17 12 -26.5t24 -19.5q9 -6 17 -13.5t12 -16.5
q19 -10 34 -10q17 0 26 13.5t10 38.5q2 31 2 94z" />
    <glyph glyph-name="percent" unicode="%" horiz-adv-x="630" 
d="M619 222v-67v-33q-3 -83 -80 -79l-15 -21h-1v-3l-1 3l-20 -2.5t-20 -1.5q-30 0 -45 24q-12 -2 -18 -2q-19 0 -29 14l-18 4q1 17 -4 32.5t-15 40.5q-10 22 -15.5 39.5t-5.5 36.5q0 18 6 37l-51 -46q-6 -30 -21 -57t-38 -60q-18 -15 -24 -38q1 -5 1 -13q0 -19 -8 -34.5
t-23 -35.5q-15 -23 -17 -26l-33 -68q-9 -17 -15.5 -25.5t-18.5 -8.5q-17 0 -21.5 9t-4.5 20v16l-2 35q16 12 122.5 195t201.5 360t88 188q-2 1 -22 8q-16 0 -44 -3q-14 -13 -39 -13q-8 0 -22 2l-23 1q-2 -6 -6.5 -19t-1.5 -20q17 -38 17 -74q0 -42 -22.5 -80t-62.5 -78
l-56 -2h-24q-5 2 -17 2h-12t-16 2t-13 8l-35 25q-21 36 -32 65.5t-11 60.5q0 17 5 39q9 24 25 72l34 24l51 23q2 4 6 5t5 1l10 6l72 -1l11 -12q42 -12 84 -12q45 0 83 14l12 10q8 1 24 1l27 13q32 14 47 22q16 8 24 8q11 0 21 -13q6 -9 6 -17q0 -12 -13 -25q-24 -22 -28 -49
q-14 -9 -21 -22t-14 -36t-14.5 -37t-23.5 -23q0 -6 1 -12.5t1 -12.5q0 -13 -5 -21.5t-19 -14.5l1 -1l-60 -117q-1 -5 -1 -12q0 -15 13 -15q9 0 21 6q26 12 52 12q7 0 21 -2q127 8 129 -119zM284.5 513q8.5 20 8.5 37t-8.5 32t-25.5 33l-33 34q-11 -3 -20 -3t-18.5 1t-18.5 1
q-16 0 -27.5 -5.5t-21.5 -20.5q-19 -28 -27.5 -46.5t-8.5 -34.5q0 -21 13.5 -44t46.5 -61q23 -10 45 -10q42 0 68 38q19 29 27.5 49zM580 193q0 30 -16.5 53.5t-50.5 45.5q-22 12 -37 12t-29 -10q-26 -19 -41.5 -50t-15.5 -63q0 -22 9 -42q32 -60 90 -60q27 0 60 12
q31 61 31 102z" />
    <glyph glyph-name="ampersand" unicode="&#x26;" horiz-adv-x="606" 
d="M585 128q2 -8 2 -22q0 -26 -13.5 -47.5t-38.5 -42.5q-21 -17 -44 -17q-22 0 -44 13q-8 4 -28.5 14.5t-35 22.5t-22.5 28q-31 -37 -69.5 -57.5t-77.5 -20.5q-36 0 -69 19q-17 1 -28.5 6.5t-17.5 19.5h-1q-52 93 -52 172q0 105 94 193q16 16 16 37q0 26 -20 49
q-36 42 -36 104q0 34 13 92q4 20 32 33q21 16 47.5 24.5t51.5 8.5q54 0 81 -31q16 -18 24.5 -45t8.5 -58q0 -37 -12 -70.5t-33 -54.5l-44 -39q-4 -6 -10.5 -15.5t-10 -17t-3.5 -14.5q0 -18 25 -40q10 -9 17.5 -22.5t15.5 -34.5q16 -40 31 -58q3 -1 3 -6q6 -1 10.5 -7
t8.5 -13q6 -10 11 -15t13 -5q7 0 15 4q37 66 37 112q0 37 -19.5 57t-50.5 36q-10 5 -18 11q14 12 57.5 20.5t84.5 8.5q42 0 55 -9q15 -10 15 -20q0 -7 -7.5 -12t-17.5 -7q-63 -9 -63 -67q0 -20 4 -36q2 -10 2 -16q0 -16 -6.5 -30t-18.5 -32q-14 -22 -19 -34
q-12 -29 -17.5 -54.5t-3.5 -52.5q44 -36 65 -36q17 0 29.5 18t24.5 57q4 12 10.5 17.5t18.5 5.5q22 0 28 -24zM242 58q27 0 48.5 14t33 35.5t11.5 42.5q0 14 -4 23l-21 21l1 2l-2 1q-7 24 -18.5 44.5t-32.5 54.5q-16 25 -29 47q-9 17 -21 25.5t-25 8.5t-24 -9.5t-18 -27.5
l-13 -32q-15 -34 -22.5 -59t-7.5 -50q0 -38 22 -72q63 -69 122 -69zM150 603q0 -43 20.5 -73.5t57.5 -43.5q24 13 40 35t31 54q7 14 7 33q0 28 -14 53t-35 35q-15 7 -30 7q-21 0 -37.5 -13.5t-33.5 -38.5q-6 -25 -6 -48z" />
    <glyph glyph-name="quotesingle" unicode="'" horiz-adv-x="154" 
d="M108 742.5q11 -11.5 10 -28.5v-31q0 -28 2 -86q2 -56 2 -84q0 -94 -19 -164q-2 -5 -2 -15t6 -30q2 -8 2 -10q0 -9 -7 -15.5t-18 -8.5t-15 3t-5.5 12.5t-2.5 11.5q-12 43 -16.5 88.5t-4.5 100.5l1 92q0 62 -5 107q-8 7 -8 21q0 20 16 38.5t35 14.5q18 -5 29 -16.5z" />
    <glyph glyph-name="parenleft" unicode="(" horiz-adv-x="236" 
d="M183.5 -120q3.5 -9 11.5 -22q15 -23 15 -38q0 -8 -3 -15v-1q-22 -12 -36 -12q-23 0 -35 27q-112 231 -112 486q0 49 5 109q5 51 21.5 98t49.5 123q6 14 16 42l15 41q6 15 17.5 27t24.5 12q5 0 11 -3q18 -10 18 -30q0 -21 -15 -38q-9 -12 -20 -40q-5 -18 -11 -28
q-34 -59 -48.5 -122.5t-24.5 -157.5q-4 -31 -4 -69q0 -87 23 -172t66 -185q1 -4 6 -7t7 -5q-1 -11 2.5 -20z" />
    <glyph glyph-name="parenright" unicode=")" horiz-adv-x="259" 
d="M224 308q0 -24 -8 -68l-6 -42q-4 -12 -4 -37l1 -35q0 -33 -12 -55l-3 -11q-4 -16 -20 -76v-20q-14 -14 -22 -46q-1 -3 -4.5 -16t-11.5 -23l-23 -45q-7 -3 -17 -17q-6 -9 -10.5 -13.5t-11.5 -4.5q-8 0 -18 7q-4 2 -12.5 4.5t-13 6t-4.5 9.5q0 5 6 16q11 4 45.5 72
t62.5 170t28 214q0 129 -42 245q-3 6 -10 28q-13 36 -23 59t-25 44q-3 9 -16 24q-18 20 -19 36q0 16 -1 25q10 3 20 3q19 0 31.5 -11t30.5 -34l10 -9q35 -117 74 -194q2 -6 5.5 -11.5t5.5 -11.5l1 -55l1 -24v-35q15 -31 15 -69z" />
    <glyph glyph-name="asterisk" unicode="*" horiz-adv-x="510" 
d="M488 512q0 -16 -17 -38q-11 -14 -28 -14q-12 0 -27 7t-22 10q-19 7 -27 7q-20 0 -26 -22q-3 -10 -3 -18q0 -20 13 -33.5t36 -26.5q0 -6 6 -8q12 -15 12 -27t-7.5 -25t-10.5 -18q-10 -6 -20 -6q-13 0 -27 9t-20 12q-9 30 -16.5 47.5t-23 31.5t-42.5 17l-14 -41v-5
q0 -13 -8 -20q-2 -4 -10 -6l-5 -23q-6 2 -8 2q-9 0 -25 -8q-12 -7 -20 -7q-9 0 -14 10q-8 16 -8 34q0 34 33 52q6 6 9.5 15.5t4.5 11.5q4 14 9.5 22.5t17.5 12.5l1 4q-25 11 -48 11q-24 0 -47 -13q-16 -10 -32 -10q-21 0 -39 18q-17 17 -17 29q0 7 4 14q21 35 66 32l57 -3
q15 0 22 1q6 11 6 22q0 16 -12 35h-1l-37 35l-19 18l24 8q4 4 11.5 16.5t14.5 18.5t17 6q9 0 17 -4q7 -6 10 -14.5t5 -21.5q2 -14 4 -21t9 -14v-1q15 -20 24 -28q9 -6 17 -6q21 0 45 38q4 9 10.5 25.5t13.5 25.5q19 23 35 23q13 0 25 -12q19 -19 19 -33q0 -12 -15 -27
q-21 -21 -26 -33q-11 -24 -11 -36q0 -19 26 -19q10 0 16 1h7q10 -1 18 -0.5t14 0.5q18 0 30.5 -5t20.5 -21q3 -6 3 -14z" />
    <glyph glyph-name="plus" unicode="+" horiz-adv-x="414" 
d="M379 421l4 -2q2 0 2.5 -1t1.5 -1q1 -1 3 -0.5t3 -0.5q2 -2 4 -2q1 -1 1.5 -2.5t1.5 -2.5t2.5 -0.5t2.5 -0.5t0.5 -3t0.5 -3t2.5 -1.5t1.5 -1.5q1 -1 0.5 -2.5t-0.5 -2.5l-2 -4q-1 -1 -4 -3q-1 -1 -0.5 -2.5t-0.5 -2.5l-4 -4q-1 -1 -2.5 0t-2.5 1l-2 -2l-2 -2l-4 -3l-5 -1
l-5 -1h-4q-4 -2 -5 -2q-5 -2 -12.5 -2t-35.5 -3q-2 -1 -14.5 -2.5t-36.5 -1.5q-8 0 -23 0.5t-17 -41t-6 -74.5q0 -1 1 -2.5t1 -2.5l-4 -4l1 -5l1 -5q-1 -1 -0.5 -2.5t-0.5 -2.5q0 -1 -1.5 -2t-1.5 -2q0 -4 -1 -5l-1 -5l1 -5q0 -3 -1 -5q-6 -24 -14 -24q-5 0 -9 6.5t-6 17.5
q-1 2 0 3t0 2q0 1 -2 5q0 1 1 2t1 3q0 1 -1 2.5t-1 2.5v5q0 1 -1.5 2t-1.5 2l-1 5l1 5q0 1 1 2.5t0 2.5q0 1 -1.5 2t-1.5 2l-1 5q0 1 1 2t1 3q-1 10 -2 5t-2 86q0 3 1 8.5t-30.5 7t-87.5 2.5q-21 0 -32 7.5t-11 17.5q0 9 8 15t22 6l5 1l5 1h4l5 1q1 0 2.5 -1t2.5 -1l5 1h33
q2 0 9.5 -1t19.5 -1q1 0 2 1t3 1l4 1q2 0 3 -1t2 -1t2.5 -0.5t2.5 0.5q1 0 2.5 1t2.5 1q9 1 11.5 2t2.5 5q0 3 -3.5 13.5t-6.5 25.5l-4 24l1 5v19l1 4q1 2 1 5q0 1 -1 2.5t0 2.5q0 2 1 3l2 2q4 20 8.5 28.5t16.5 8.5q5 0 8 -1h4q2 -1 5 -1q13 -2 18 -7.5t5 -14.5t-2.5 -25.5
t-2.5 -32.5t3 -36v-5l3 -4l-1 -6q1 -1 2.5 -1.5t2.5 -1.5t0 -2.5t0 -2.5l4 -3q1 -1 1.5 -2t1.5 -2t2.5 0t2.5 1q2 -1 5 -1q1 0 2 -1t3 -1l48 7l4 1l5 1q2 0 3 -1t2 -1q2 0 3 1l2 2q1 0 2 -1t3 -1l4 1l20 3q1 0 2 -1.5t2 -1.5h5l5 1q1 0 2.5 0.5t2.5 -0.5z" />
    <glyph glyph-name="comma" unicode="," horiz-adv-x="171" 
d="M79 110q28 0 43.5 -23t15.5 -67q0 -23 -4 -71q-2 -7 -7.5 -26t-12.5 -34q-12 -22 -29 -22q-3 0 -9 2q-12 4 -12 17q0 11 15 41q2 4 10 21.5t8 32.5q0 28 -38 37q-19 4 -27 8t-13 17q2 3 2 8t-4 14.5t-4 13.5t5 11q33 20 61 20z" />
    <glyph glyph-name="hyphen" unicode="-" horiz-adv-x="590" 
d="M530 343q11 0 18.5 -9t7.5 -28q0 -44 -55 -44q-23 0 -47 6q-83 19 -183 19q-73 0 -192 -13q-15 -1 -28.5 5.5t-29.5 18.5l-9 19q22 0 32 24h93q10 -19 27 -19q9 0 22 8q56 13 117 13q44 0 130 -8q8 0 22 -4q5 -1 11 -2t14 -1q16 0 30 9q9 6 20 6z" />
    <glyph glyph-name="period" unicode="." horiz-adv-x="168" 
d="M142 97q0 -22 -17.5 -39.5t-43.5 -17.5q-50 0 -50 55q0 28 12.5 42.5t40.5 15.5q58 -18 58 -56z" />
    <glyph glyph-name="slash" unicode="/" horiz-adv-x="576" 
d="M556 711q0 -10 -6 -22t-12 -23q6 12 -264 -438q-32 -48 -74 -124q-34 -62 -57 -99t-52 -72q-8 -9 -11 -19.5t-5 -26.5q-2 -14 -4 -21l-10 -10l-1 -1q-13 -3 -23 -3q-26 0 -26 23q0 13 8 34q16 30 59 112t44 83q54 46 71 107q2 4 5.5 9.5t7.5 12.5q21 31 35 57l75 120
q56 87 89.5 144.5t62.5 118.5q11 7 18 17.5t15 26.5q8 17 15 27q40 -8 40 -33z" />
    <glyph glyph-name="zero" unicode="0" horiz-adv-x="504" 
d="M449.5 635q19.5 -52 21.5 -112q4 -100 4 -148q0 -51 -5 -114q-9 -87 -47.5 -153t-111.5 -102q-20 -10 -42 -10q-45 0 -110 46q-41 22 -57.5 56.5t-29.5 92.5q-11 45 -17 63q-1 4 -10 19q-5 8 -9 17.5t-4 18.5q0 10 7 21q-8 34 -8 63t9 57q9 21 11.5 46t3.5 29
q4 36 9.5 58.5t20.5 43.5q17 71 66.5 107.5t111.5 36.5q36 0 70 -12.5t59 -36.5q38 -35 57.5 -87zM417 398q0 114 -24 228q-9 44 -44.5 71t-78.5 27q-40 0 -71 -24q-112 -88 -112 -333q0 -22 2 -62q4 -7 12 -20t11 -26q22 -107 84 -168q23 -18 37 -27t30 -9q17 0 33 12
q40 32 65 62.5t35 71.5q21 92 21 197z" />
    <glyph glyph-name="one" unicode="1" horiz-adv-x="416" 
d="M94 71l39 -1q29 0 48 10q4 8 6 108t2 226q0 252 -6 285q-20 -2 -60 -4q-12 0 -29.5 -3t-18.5 -5q-7 -2 -13 0.5t-11.5 6t-8.5 5.5q-4 6 -10.5 14.5t-14.5 19.5q3 1 8 1h7q7 0 12 2.5t8 9.5q6 2 8 2q55 -8 107 -8q28 0 47 1.5t24 2.5q2 -6 2 -11q7 -14 7 -37l-1 -38
q0 -4 0.5 -29t0.5 -92q0 -376 -12 -398q-3 -7 -3 -14q0 -12 9 -26t12 -20q17 -8 45 -8l35 1q31 0 51 -11q8 -4 11 -7q4 -13 4 -26q0 -34 -39 -34q-6 0 -22 2q-4 0 -12.5 4t-12.5 4q-7 0 -12 -5q-13 11 -23 11q-6 0 -12 -3q-17 5 -42 5q-19 0 -28 -2l-61 -2q-12 -1 -24 -6
q-4 -1 -17.5 -4t-24.5 -3q-23 0 -41 13l-13 36l37 19q16 8 42 8z" />
    <glyph glyph-name="two" unicode="2" horiz-adv-x="549" 
d="M127.5 58.5q-7.5 -8.5 -12.5 -25.5l-48 -36l-4 2l-4 -1q-29 26 -29 60q0 22 12 46l3 20q5 7 7 17q22 54 32 81q5 8 25 26q13 11 20.5 21t10.5 23q5 7 14 10.5t11 4.5q12 4 19.5 9t10.5 15q4 4 4 10l45 15q5 8 12 13.5t15.5 10t14.5 7.5q4 2 6 4l1 1q51 37 93 93
q0 15 2 23.5t13 13.5q11 17 11 43l-1 25q-2 25 -1 37q-58 44 -88.5 61.5t-50.5 17.5q-11 0 -20.5 -4t-23.5 -13q-24 -13 -42 -21t-47 -15q-9 -12 -9 -23q0 -17 20 -29l10 -9q3 -10 3 -18q0 -28 -36 -39q-10 -3 -18 -3q-30 0 -52 36q-12 21 -12 41q0 22 12 43q9 5 10.5 11.5
t1.5 14v10.5q8 8 14 11.5t15 2.5q2 12 9 15.5t18 5t15 2.5l9 11q10 5 24 5q52 10 93 10q66 0 123 -25q30 -12 47 -42q1 -7 2 -18.5t3.5 -20t7.5 -15.5q24 -19 24 -48q0 -16 -5 -35.5t-7 -25.5q-7 -53 -34 -90t-62 -60t-93 -53l-25 -13l-35 -36q-40 -41 -64.5 -71t-41.5 -66
q13 -15 39 -15q5 0 13 0.5t18 -0.5l9 -1l21 1q19 0 30 -12l11 -12q8 2 10 2q15 0 32 -17q29 -29 62 -29q19 0 37.5 7.5t42.5 21.5q10 6 13.5 14t4 17t1.5 14q1 3 1 9q0 7 -1 14.5t-1 14.5q0 13 7.5 20.5t27.5 7.5q22 0 33 -15.5t15 -41.5h-1l-4 -9q-3 -4 -7 -12
q-22 -45 -38.5 -69.5t-44.5 -43.5q-12 3 -24 3q-17 0 -35 -3q-6 -1 -15 -2t-21 -1q-29 0 -49 14q-2 2 -6 4q-26 14 -39 22q-13 31 -73 31q-16 0 -23 -1q-16 2 -23.5 -6.5z" />
    <glyph glyph-name="three" unicode="3" horiz-adv-x="570" 
d="M59 687l-6 -10q3 38 22 54.5t52 16.5q7 0 25 -2q8 -1 25 -1l34 1q11 1 34 1h143q31 1 43 -2.5t12 -15.5q0 -10 -13 -39q-12 -25 -28.5 -47t-43.5 -53q-34 -39 -53 -68q-10 -13 -10 -25q0 -11 10 -24q9 -9 20 -11.5t29 -3.5q27 -2 40 -9q50 -26 85 -85q16 -58 16 -107
q0 -108 -56.5 -160.5t-95 -67.5t-43.5 -18q-7 -7 -25.5 -11t-41.5 -4q-29 0 -52.5 6.5t-31.5 17.5v1q-4 -1 -12 -1q-16 0 -32.5 7.5t-33 17t-21.5 12.5q-1 5 -2 13t-4 14t-9 10q-1 8 -3.5 22t-2.5 25q0 35 9.5 51t30.5 16q14 0 44 -10q11 -19 9 -33q-1 -7 -14 -18
q-14 -12 -14 -20q0 -6 6 -14q5 -5 19 -22t30 -25.5t35 -8.5q3 0 7 -4t6 -5q18 -2 26 -2q54 0 103.5 33t80.5 91q27 48 27 104q0 36 -11 75q-19 68 -114 68q-28 0 -63 -6q-8 -2 -13 -2q-7 -7 -15 -18q-9 -13 -15.5 -19.5t-15.5 -6.5q-7 0 -16 6q-13 10 -13 23q0 10 6 21
t11.5 19.5t7.5 10.5q25 36 73 87l35 40q7 18 28 45q18 24 26.5 41t6.5 40l-99 3q-48 2 -62 2q-50 0 -67.5 -11t-19.5 -46l1 -23q0 -20 -15 -30q-8 -6 -10 -18t-4 -17q-9 -22 -20 -17t-16.5 18t-2.5 21q6 17 6 44q1 21 2.5 31.5t8.5 21.5q4 2 4 3q1 2 1 7z" />
    <glyph glyph-name="four" unicode="4" horiz-adv-x="559" 
d="M532.5 60.5q11.5 -5.5 11.5 -25.5q-1 -19 -11.5 -24.5t-30.5 -5.5l-101 3h-36l-164 1v1q1 3 -1 9q-1 25 12 35.5t39 10.5q9 0 18.5 -1t19.5 -1q32 0 53 15q11 39 11 62q0 29 -16 42.5t-51 13.5q-16 0 -39 -3q-20 -2 -32 -2l-52 1q-45 0 -73 -14q-7 -3 -14.5 3t-12.5 16
h-55q0 40 16.5 81t41 73.5t46.5 49.5q10 22 15 46q2 11 5.5 15.5t15.5 10.5q14 28 32.5 53t45.5 58l42 54l1 2l10 -1q2 22 4 34l49 71v-1q13 4 27 4q37 0 34 -52q-3 -24 -3 -78t5.5 -98.5t19.5 -58.5q-1 -4 -1 -12q-26 -39 -26 -94q0 -21 7 -84q3 -22 17.5 -28t33 -6.5
t26.5 -1.5q6 -1 18.5 1t21.5 2q25 0 25 -23q0 -13 -10 -19t-25 -6q-19 0 -34 6q-14 4 -18 4q-13 0 -22.5 -8t-20.5 -22q-9 -14 -16 -20q-2 -4 -5.5 -11.5t-3.5 -12.5q0 -6 7 -13q26 -49 88 -49q16 0 25 1q19 2 30.5 -3.5zM342.5 242q11.5 8 11.5 31v164q0 109 -1 163
q-1 19 -6.5 31t-19.5 12q-11 0 -21 -5q-7 -33 -23 -60t-47 -67q-29 -38 -37 -51l-26 -48q-3 -7 -7 -19.5t-10 -21t-16 -13.5q-14 -13 -22.5 -28t-20.5 -40q-15 -36 -27 -52q80 -2 238 -4q23 0 34.5 8z" />
    <glyph glyph-name="five" unicode="5" horiz-adv-x="549" 
d="M307 557q66 0 114 -48q89 -104 89 -199q0 -63 -39 -122q-26 -77 -66.5 -120t-116.5 -51q-11 -1 -33 -7q-5 -1 -19 -4t-25 -3q-28 0 -49 20q-5 -1 -13 -1q-10 -2 -15 -2q-25 0 -36 24q-15 9 -24 21.5t-22 34.5q-6 15 -15 27t-9 28q0 24 19 42q16 15 39 15q10 0 28 -4
q12 -3 22 -12t10 -19q0 -4 -4 -12q-14 -22 -14 -39q0 -16 10.5 -27.5t30.5 -26.5l17 -12q92 -4 150 35t84 100t27 124q1 23 -6.5 42t-22.5 47q-17 32 -20 39q-56 65 -129 65q-40 0 -82 -18q-7 -9 -23 -27q-20 -22 -32.5 -39.5t-19.5 -38.5q-7 -24 -26 -24q-7 0 -19 5l-1 68
q-1 9 -1 27q0 39 12 113q7 44 10 72t2 57q-1 27 13 41t42 14q66 -2 101 -2l128 1h32l18 1q11 0 16.5 -4.5t5.5 -16.5q0 -16 -11.5 -25.5t-27.5 -10.5q-14 0 -40 -2q-40 -2 -58 -2q-32 0 -56 4l-20 2l-3 -1q-10 -2 -15 -2l-12 1q-37 -7 -59 -45q2 -8 -1 -14t-7.5 -12
l-7.5 -10l-1 -100q17 -6 32 -6q18 0 35.5 6t40.5 17q35 16 73 16zM145 691l9 10q-6 -5 -9 -10z" />
    <glyph glyph-name="six" unicode="6" horiz-adv-x="556" 
d="M504.5 322q9.5 -45 9.5 -88q0 -57 -19 -84h1q0 -15 -5.5 -27.5t-12.5 -24t-10 -16.5h-1q-19 -22 -42.5 -32.5t-62.5 -20.5q-24 -6 -35 -10q-19 -12 -56 -12q-40 0 -83 15t-65 37q-47 47 -67 100.5t-20 116.5q0 53 16 137q20 96 80 205l24 39q2 2 4 6h1q48 48 94 74.5
t101 26.5q22 0 42 -4q10 3 18 3q19 0 30 -12t18.5 -26t9.5 -18q4 -7 4 -15q0 -18 -22 -35q-13 -9 -26 -9q-14 0 -33 12q-16 11 -20 25t-4 37q-56 -3 -98 -32.5t-82 -80.5q-2 -3 -6 -7.5t-7.5 -7.5t-8.5 -3q-12 -26 -19 -39q-5 -11 -16.5 -34.5t-18.5 -43.5q-5 -10 -5 -22
q0 -17 13 -27q5 -4 11 -4q9 0 17.5 8.5l11.5 11.5q45 38 122 38q60 0 115.5 -26t85.5 -74q7 -12 16.5 -57zM459 245q0 39 -13 86q-32 46 -77 71t-96 25q-26 0 -58 -8q-76 -21 -103 -80q-18 -37 -18 -80q0 -52 26.5 -99t73.5 -75.5t106 -26.5q11 11 25 17.5t35 13.5
q22 7 35.5 13.5t24.5 17.5q7 15 23 45q16 39 16 80z" />
    <glyph glyph-name="seven" unicode="7" horiz-adv-x="474" 
d="M229 686q-15 0 -31.5 -4t-20.5 -5q-20 -6 -39 -9l-11 -12q-19 -39 -32 -100l-2 -13q-4 -22 -7 -34q-7 -37 -10 -50q-14 -2 -18 -2q-21 0 -30.5 12t-8.5 39q1 22 1 65l-1 94q0 17 4.5 29t17.5 21v4q0 19 15 19q13 0 17 -6.5t5 -14.5t2 -12q56 -3 90 22q18 14 40 14t47 -14
q28 -16 51.5 -24.5t47.5 -8.5q23 0 43 8q2 2 7.5 9t10.5 10.5t10 3.5q9 0 20 -11q12 -21 12 -41q0 -19 -12 -39l-1 -1l2 -7q0 -4 -16 -52.5t-40 -97.5t-52 -71q-47 -100 -71 -171t-24 -147q0 -25 3 -51q2 -18 -6.5 -30.5t-23.5 -12.5q-19 0 -32.5 15t-13.5 35l1 8
q9 45 15 94q2 15 8 55q5 37 25 92l13 41q11 7 16.5 18t10.5 29q6 20 12 30.5t19 17.5q8 21 21 41.5t15 24.5q18 26 28.5 46.5t15.5 43.5q6 18 6 31q0 15 -10 22.5t-35 8.5q-24 1 -54 22q-23 16 -50 16z" />
    <glyph glyph-name="eight" unicode="8" horiz-adv-x="570" 
d="M503.5 337q28.5 -44 28.5 -95q0 -22 -6 -46q-20 -80 -56.5 -129.5t-112.5 -54.5q-37 -15 -74 -15t-76 14q-5 1 -12 1.5t-12 2.5t-8 8q-43 13 -71 32t-42 55q-30 54 -30 116q0 40 13 85q15 33 30.5 50t33.5 31q7 5 11.5 10t4.5 10q0 7 -7.5 18.5t-27.5 35.5
q-9 11 -12.5 22t-5.5 22t-3 15v12q-12 16 -12 36q0 13 4 26.5t5 16.5l7 22q8 33 40 61t76 44.5t85 16.5q18 0 33 -3q21 1 39 -17q47 2 80 -21.5t48 -70.5q3 -10 10.5 -22t11.5 -18q-6 -67 -10.5 -91.5t-16 -43.5t-46.5 -62q52 -30 80.5 -74zM442 141q23 34 23 79
q0 26 -10 68q-14 55 -36.5 74t-55.5 19l-26 -1q-18 -2 -26 -2q-18 0 -33 6q-24 10 -45 10q-29 0 -51 -15.5t-52 -47.5q-40 -43 -40 -96q0 -34 14 -63q27 -61 64 -87.5t100 -26.5q31 0 73 6q6 3 13 8t16 10q49 25 72 59zM118 564q0 -35 26 -64t65 -43q50 -18 108 -18
q33 0 60 4q57 63 57 122q0 41 -25 75t-67 54q-38 10 -65 10q-67 0 -120 -57q-39 -42 -39 -83z" />
    <glyph glyph-name="nine" unicode="9" horiz-adv-x="520" 
d="M489 440q0 -41 -8 -87q-7 -8 -8.5 -16t-2.5 -24q0 -14 -2.5 -24t-10.5 -18q-8 -20 -14 -37l-23 -58q-1 -3 -6 -3l-29 -45q0 -2 -12.5 -18.5t-44.5 -46t-86 -66.5q-16 -1 -47 -1q-15 0 -22 1l-12 13q-5 5 -15.5 16.5t-16.5 21t-6 19.5q0 16 17 32q14 13 29 13
q14 0 25.5 -9.5t27.5 -27.5q12 -15 23 -15q10 0 23 17q12 14 19 16q41 41 73 91t51.5 91t19.5 44h1v31q-1 1 -11 3q-6 7 -11 7q-7 0 -13 -8q-34 -23 -75.5 -36t-82.5 -13q-83 0 -139 50q-4 7 -22 27q-14 13 -21.5 24.5t-7.5 26.5q0 5 2 15q-24 19 -24 52q0 15 4 41
q4 32 23 86l11 36q47 45 88.5 69.5t93.5 24.5q7 0 25 -2q56 -6 89.5 -21t53.5 -56q5 -10 14.5 -21t13.5 -17q46 -95 46 -198zM411 462q10 21 14.5 33t4.5 26q0 16 -9 34q-7 5 -9.5 12t-4.5 20q-2 20 -9 28v1q-6 5 -16.5 12t-15.5 14q-20 28 -46.5 42.5t-55.5 14.5
q-30 0 -60 -14.5t-55 -40.5q-36 -38 -49 -83t-11 -101q2 -1 6.5 -4t6.5 -7q27 -43 67 -66.5t85 -23.5q38 0 75.5 17.5t66.5 51.5q5 15 15 34z" />
    <glyph glyph-name="colon" unicode=":" horiz-adv-x="184" 
d="M129.5 134.5q15.5 -17.5 21.5 -34t8 -20.5l-10 -11q-5 -5 -13 -17q-10 -17 -21.5 -25.5t-35.5 -8.5l-12 1l-23 24q-15 36 -15 61q0 23 12.5 35.5t36.5 12.5q36 0 51.5 -17.5zM142.5 460.5q7.5 -7.5 11.5 -13.5t4 -13q0 -12 -15 -24q3 -5 -1 -9q-2 -14 -4 -23l-20 -3
q-12 -11 -26 -11q-10 0 -18.5 5t-16 11t-10.5 9q-17 34 -17 52q0 27 27 46q11 10 22 10t27 -12q14 -11 24 -12z" />
    <glyph glyph-name="semicolon" unicode=";" horiz-adv-x="150" 
d="M128 24v-36q0 -24 2 -36l-11 -4q-6 -8 -8 -18.5t-2 -13.5q-2 -14 -5 -22.5t-11 -15.5q-3 -1 -12 -6t-17 -5q-9 0 -18 10q-6 7 -6 13q0 7 8.5 14t11.5 10q13 12 13 27q0 17 -11.5 36t-30.5 42q-4 5 -11.5 15.5t-7.5 14.5q0 24 5 38.5t22 23.5q12 6 21 6q11 0 20.5 -6
t22.5 -18l16 -14q9 -23 9 -55zM65 378q-22 0 -41 23q1 52 8.5 72.5t29.5 20.5q15 0 45 -11l11 -11l-1 -71q-33 -23 -52 -23z" />
    <glyph glyph-name="less" unicode="&#x3c;" horiz-adv-x="365" 
d="M235 497l-35 -25l-35 -20l-22 -21l-60 -86l16 -18l24 -19l115 -103l26 -31l21 -13l34 -15l5 -5t4 -9q0 -11 -21 -19q-2 -2 -8.5 -6.5t-14.5 -4.5t-13 5q-19 14 -81.5 64t-121.5 105t-63 79q6 9 27 37.5t46 58.5t38 39l15 11l-9 -5q13 11 50.5 37.5t81 49t69.5 18.5
q1 -1 4.5 -7t3.5 -15q0 -17 -17 -34l-44 -25z" />
    <glyph glyph-name="equal" unicode="=" horiz-adv-x="498" 
d="M453 290q0 -13 -30 -40l-172 -2l-172 -2l-3 1h-4q0 10 -17 16q-9 4 -13 7.5t-4 10.5q0 5 4 13v1q64 12 158 12q34 0 102 -2q15 0 53.5 -1.5t68.5 -0.5q29 0 29 -13zM453 448q0 -13 -30 -40l-172 -2l-172 -2l-3 1h-4q0 10 -17 16q-9 4 -13 7.5t-4 10.5q0 5 4 13v1
q64 12 158 12q34 0 102 -2q15 0 53.5 -1.5t68.5 -0.5q29 0 29 -13z" />
    <glyph glyph-name="greater" unicode="&#x3e;" horiz-adv-x="364" 
d="M33 579q0 9 3.5 15t4.5 7q26 4 69.5 -18.5t83 -50.5t47.5 -36l-9 5l16 -11q13 -9 38 -39t46 -58.5t27 -37.5q-4 -24 -63 -79t-121.5 -105t-81.5 -64q-5 -5 -13 -5t-14.5 4.5t-8.5 6.5q-21 8 -21 19q0 5 4 9l5 5l34 15l21 13l26 31l115 103l24 19l16 18l-60 86l-22 21
l-35 20l-35 25l-35 23l-44 25q-17 17 -17 34z" />
    <glyph glyph-name="question" unicode="?" horiz-adv-x="421" 
d="M401 461q0 -28 -17 -55l-10 -22q1 -3 1 -8t-3 -10q-5 -27 -22.5 -44t-48.5 -36l-20 -13q-7 -5 -19 -8t-19 -6q2 -30 2 -46q0 -60 -18 -110q-1 -2 -4 -9.5t-7.5 -10.5t-11.5 -2q-5 1 -10 5.5t-5 8.5q-5 80 -7 180q0 3 8 7.5t11 5.5q7 4 29.5 18.5t50 35t43.5 40.5
q2 8 2 12q13 23 13 56q0 20 -7 50q-28 46 -59.5 70t-64.5 24q-41 0 -82 -35q-31 -28 -31 -51q0 -19 19 -39q16 -18 16 -27t-12 -16q-3 -2 -14 -9t-20 -7q-12 0 -22 14q-4 6 -12.5 15.5t-11.5 17.5q-4 8 -4 22q0 32 25 73.5t60.5 71t63.5 29.5q6 0 9 -1q77 -15 125 -44
t69 -92q15 -27 15 -55zM293 -59q0 -20 -9 -39t-31 -43q0 -3 -2 -11l-64 1q-4 7 -7 19l-18 6q-4 13 -5 17q-16 20 -16 39q0 26 29 52q25 24 57 24q27 0 60 -18q6 -34 6 -47z" />
    <glyph glyph-name="at" unicode="@" horiz-adv-x="533" 
d="M472 432q14 -22 23 -44q10 -27 10 -57q0 -24 -7 -46q-4 -18 -4 -26q0 -7 1 -11q1 -13 1 -39l-18 -12q1 -4 1 -12q0 -45 -49 -55q-21 -21 -47 -21q-18 0 -39 12l-5 5l-5 4q-10 7 -17 9q-6 2 -11 2q-2 0 -10 -2q-3 -10 -16 -10q-22 -19 -44 -19q-21 -1 -47 10l-8 9
q-36 33 -47 72q-5 18 -5 35q0 25 9 55q8 28 19 47q10 21 24 43q11 14 30 33q13 11 28 16q5 2 14 2q11 0 16 -2q17 -3 41 -12l11 -6q6 -3 11 -2q17 5 24 5q4 0 10 -2q11 -6 12 -16v-6q0 -4 -2 -16l-7 -18q-2 -5 -7 -23l-3 -24l-2 -23l-3 -23q-12 -27 -12 -50q0 -17 12 -35
q20 -14 30 -18q12 -4 17 -4q6 0 18 4q17 40 25 86q6 30 6 62q0 19 -1 28q-2 22 -6 38q-7 20 -21 33q-12 23 -32 42q-17 16 -43 28q-28 12 -58 12q-22 0 -42 -6q-7 -6 -16 -6l-18 -2q-5 0 -17 -2q-7 -1 -15 -8v-1q-5 -9 -12 -13l-16 -8l-16 -8q-6 -3 -12 -12q2 -3 0 -7
q-6 -10 -11 -15l-12 -15q-6 -8 -9 -16q-1 -2 -1 -7q0 -6 3 -14q-7 -17 -11 -43q-3 -24 -2 -43q0 -13 4 -43l9 -42l-6 -18q7 -2 12 -9l6 -12l7 -13q2 -4 10 -8q8 -2 17 -11q8 -10 11 -16h1q8 -4 16 -12t12 -16q39 -19 73 -26q30 -4 42 -4q9 0 27 2q35 5 65 22q32 17 62 48
q2 2 8 9l8 9q3 3 10 5h2q3 0 9 -4q11 -11 11 -28q-1 -18 -10 -29q-20 -24 -38 -35q-20 -14 -49 -16q-56 -28 -114 -28q-63 0 -124 37q-3 2 -6.5 4.5t-8.5 4.5l-14 10q-2 1 -3.5 2t-2.5 2t-2.5 2t-3.5 2q-6 4 -9 11l-8 14q-2 4 -8 12q-6 7 -12 10l-13 16l-14 15l-10 43l-9 42
q-1 13 -6 25l-12 22q13 13 14 27q3 15 3 31l1 31q1 14 11 28l4 8l4 8q6 18 17 36q9 16 28 27l9 7l5 10q3 3 6 9h1l18 10q1 6 7 10q9 5 11 5q4 2 12 4q6 3 9 6l10 2q43 20 89 20q29 0 57 -9q9 -5 27 -13q13 -4 27 -12q12 -6 26 -14q11 -7 23 -21q12 -13 32 -41zM281 180
q6 7 11 21q4 17 5 23q2 12 9 21q5 10 5 18q1 6 1 18l-1 19l-1 9l1 10q3 25 -10 41q-12 15 -33 24q-2 1 -6 1q-5 0 -13 -3q-10 -4 -20 -14q-9 -8 -18 -22q-7 -12 -10 -25q-20 -33 -24 -64q-6 -31 -4 -69l28 -22q14 -8 26 -8q15 0 31 11q17 2 23 11z" />
    <glyph glyph-name="A" unicode="A" horiz-adv-x="575" 
d="M88 -4q-17 0 -39 5q-13 4 -22 14t-9 22q0 6 1 9q9 27 30 27q7 0 16 -3q8 -3 13 -3q11 0 18.5 8.5t9.5 20.5l30 149l31 150q6 27 15 58l6 24l10 33q1 45 13 103q2 10 7 33.5t6 39.5q2 29 19.5 48.5t43.5 19.5q22 0 36.5 -18.5t19.5 -45.5q29 -143 51.5 -267.5t28.5 -159.5
q17 -20 13 -38l8 -24q15 -41 16 -77q1 -25 18.5 -41t46.5 -20q16 -2 27 -10.5t11 -20.5q0 -16 -12.5 -25t-30.5 -9h-140q-15 1 -25.5 9t-15.5 21q-3 8 -3 12q0 14 22 23l6 4h-1q17 10 25.5 20.5t8.5 25.5q0 11 -4 23q-5 14 -5 37l1 23q1 9 1 27l-9 9q-21 10 -68 10
q-30 -2 -48 2q-44 -12 -71 -43.5t-27 -70.5q0 -13 3 -25q8 -30 40 -41h-1q23 -7 23 -23l-2 -8q-12 -28 -27 -28q-5 0 -10 3h1q-11 6 -24 6q-14 0 -36 -9l-19 -6h-1q-12 -3 -26 -3zM213 336q0 -16 9 -36q28 -12 63 -12q19 0 29 1q30 2 39 2q1 8 1 25q0 29 -5 59t-15 72
q-9 37 -15 70l-21 66q-2 6 -2 13q-1 10 -3.5 14t-11.5 3q-6 -1 -8 -5.5t-3 -12.5q0 -9 -1 -12v1q-17 -86 -39 -185l-7 -33l-1 -2q-9 -15 -9 -28z" />
    <glyph glyph-name="B" unicode="B" horiz-adv-x="580" 
d="M123 652.5q-18 17.5 -51 19.5q-25 1 -35.5 7t-10.5 18q0 17 19 41q83 16 165 16q136 0 220 -49t84 -142q0 -57 -39 -137q-34 -17 -34 -38q0 -17 25 -36t42.5 -44.5t24.5 -55.5q22 -29 22 -66q0 -44 -29 -88t-78.5 -72t-105.5 -28q-19 0 -36 3q-27 0 -96 -3q-37 -3 -76 -3
q-38 0 -59 3q-13 2 -20.5 7t-7.5 19q0 11 6.5 16t16.5 4q32 -2 47 9.5t18 29.5t3 49v10q-1 98 -1 328l-1 40l-1 33q0 30 3 57v-1q3 36 -15 53.5zM235.5 351.5q-12.5 -0.5 -29.5 0.5l-22 -244q10 -3 14 -11t7 -22t8.5 -21.5t18.5 -7.5l27 1q9 1 26 1q34 0 49 2q4 1 9 2t10 3
q3 1 9.5 4.5t10.5 3.5q47 10 74.5 42t28.5 79v34l1 33q-4 3 -20 19q-33 34 -55 51t-53 24q-35 9 -92 7q-9 0 -21.5 -0.5zM206 595l-1 -20q-2 -40 -2 -62q0 -61 14 -101q29 -13 56 -13t51 8t59 23q32 16 49 45t17 63q0 19 -8 41q-5 55 -66 82q-29 13 -64 13q-13 0 -41 -2
q-14 -1 -43 -1q-8 0 -14 -4t-6 -11q1 -20 -1 -61z" />
    <glyph glyph-name="C" unicode="C" horiz-adv-x="487" 
d="M81.5 106q-5.5 14 -8.5 21q0 2 -10 27q-6 13 -8 21q-29 85 -29 176q0 68 15 139q1 4 1 10q0 19 18 73t43 98t47 46q4 10 12 14.5t15.5 7t9.5 3.5q18 7 21 9q14 10 28 10q18 0 27 -23l15 -5l17 -7q8 0 13 -1l46 -19q7 0 15 -8h-1q1 -1 3.5 -3t4.5 -2q6 0 10 11
q14 28 29 28q11 0 19.5 -13.5t10.5 -26.5q10 -72 10 -113q0 -58 -16 -102q0 -1 -1.5 -2t-2.5 -1q-16 -4 -24 -4q-13 0 -26 6q-2 2 -2 4v30l-6 16h1q-6 10 -6 12q-2 4 -2 10l-1 5l-1 3q-4 39 -28.5 73t-61.5 54h-10q-15 9 -28 9q-69 0 -134 -210l-3 -9v1q-9 -32 -9 -74
q0 -46 15 -127q2 -14 4 -21q6 -38 8 -53l1 -7q4 -24 9.5 -39.5t23.5 -24.5l36 -47q30 -36 65 -36q31 0 66 24q23 11 33 28t18 45q2 6 4 16t5 16q0 20 1 30l1 34l2 4l10 11v-1q8 9 14.5 13t14.5 4q2 0 10 -2q18 -8 18 -38v-11q1 -9 1 -28q0 -82 -52 -142l-13 -10h1l-12 -10h1
l-12 -12v1q-6 -9 -14.5 -12.5t-21.5 -5.5l-14 -3l-6 -3q-25 -14 -47 -14q-18 0 -35 6.5t-39 18.5v-1l-16 8q-20 4 -51.5 30t-41.5 43l8 6q-2 2 -7.5 16z" />
    <glyph glyph-name="D" unicode="D" horiz-adv-x="575" 
d="M88 60q29 0 40 15.5t11 42.5q0 11 -2 33q-8 108 -8 194q0 49 5 141l1 26q2 30 2 44q0 35 -6 78q-3 18 -17.5 30t-36.5 10q-20 -2 -34 9.5t-14 29.5q0 29 30 29l15 -1l7 -1q13 -1 38 -1q37 0 55 1q19 1 58 1q80 0 129 -18q17 -6 26.5 -12t17.5 -18q49 -14 73 -50.5
t43 -94.5q26 -83 26 -169q0 -112 -44 -239q-38 -111 -133 -127q-7 -10 -15 -12t-25 -2h-257l-9 -1q-17 -1 -26.5 3t-9.5 23q1 15 12 26t26 11zM193 399v-270l-1 -6q-6 -20 -6 -36q0 -36 36 -40q34 -4 53 -4q41 0 67 15q16 3 30.5 11t32.5 23q23 21 33.5 47t22.5 70l3 14
q10 45 15.5 91t5.5 79q0 160 -75 220.5t-162 74.5q-14 2 -17 4v-1q-3 2 -9 2q-8 0 -13 -4.5t-5 -13.5h-10q-1 -90 -1 -276z" />
    <glyph glyph-name="E" unicode="E" horiz-adv-x="562" 
d="M206 425q19 -1 47 -1q29 0 40 7t13.5 24.5t4.5 70.5q1 17 5 24t12 7q7 0 27 -10q3 -3 3 -4v-4l-1 -11q0 -10 7 -12l3 -3q15 -90 15 -169q0 -149 -62 -141q-4 0 -4 4q-19 84 -38 122.5t-36 38.5q-23 0 -39 -54.5t-16 -113.5q0 -32 6 -55q-3 -13 -3 -24q0 -53 63 -53l16 1
l31 -4q34 -4 48 -4q59 0 101 41q12 29 12 70q0 15 -2 47l-2 36q0 19 7 27.5t26 10.5q3 0 5 -2q34 -45 34 -112q0 -35 -10 -91l-9 -57q0 -4 -4 -4q-131 -29 -258 -29q-98 0 -190 18q-13 3 -20 8t-6 17q0 11 5.5 15t18.5 7l22 4l18 3h-1q15 6 20.5 18.5t7.5 58.5t2 163v199
q-10 13 -10 38q0 13 4 43t4 41q0 45 -39 42h-6q-24 -1 -36.5 4.5t-12.5 31.5q0 14 8 20t21 9q2 1 7.5 2.5t7.5 3.5q11 11 27 11q7 0 12 -1t9 -2q10 -2 14 -2q9 0 17 4q21 8 54 8l26 -1l21 -1q9 0 29 2q5 0 6 -3t1 -9q26 -11 62 -11q20 0 30 1q9 1 26 1q18 0 26 -1l14 19l4 2
q59 -4 59 -65q0 -21 2 -61q2 -24 2 -42q-6 -19 -6 -36q0 -10 2 -30l1 -10l-2 -4q-10 -7 -21 -7t-31 13q-2 2 -2 3q-1 5 -1 15q0 12 1 21t2 16q2 24 2 37q0 23 -6 41t-21 34l2 -1q-18 10 -60 8l-17 -1q-18 0 -27 3h-45q-49 0 -66.5 -3.5t-21.5 -15t-3 -44.5v-35.5t-3 -64.5
v-20q0 -29 -8 -47q3 -17 3 -19t1 -3l-1 3q15 -15 20 -21z" />
    <glyph glyph-name="F" unicode="F" horiz-adv-x="578" 
d="M564 698q2 -2 2 -5t-3 -4q-28 -7 -28 -21q0 -12 10 -25q2 -4 5 -10.5t6 -14.5l-8 -30q-11 -37 -15.5 -60.5t-2.5 -47.5q0 -5 -5 -5q-20 -2 -28 5t-9.5 17.5t-1.5 32.5q0 28 -6.5 52.5t-21.5 65.5q-2 10 -4 12v-1l-13 13q-62 12 -99.5 18t-62.5 6q-43 0 -58.5 -19.5
t-15.5 -66.5q0 -23 3 -53q0 -10 2 -36q3 -42 7 -130q43 0 65 -1q20 1 33.5 25.5t19.5 53.5q1 3 1 9q0 8 -1 16t-1 16q0 12 5.5 18.5t20.5 5.5q17 -1 26 -89t9 -182q0 -58 -3 -69q0 -1 -1 -2t-2 -1q-17 -13 -29 -13q-9 0 -17 8q-18 23 -18 41q0 9 2 14q10 26 10 36
q0 20 -26 34q-5 8 -8 9q-29 25 -51 25q-31 0 -48 -53l4 -5l7 -6q1 -1 1 -4v-80q0 -125 22 -139q7 -6 14.5 -7t22.5 -1h8q24 1 33 -10t7 -34q-14 -13 -31 -13q-13 0 -26 5l-10 3q-48 4 -69 4q-24 0 -70 -4h-25q-9 3 -18 3q-17 1 -25.5 3t-16.5 11q-1 1 -1 4v16q0 1 3 4
q10 6 20.5 7.5t20.5 1.5h14q22 0 34 7h-1l14 14q1 1 5 4t5 21t1 47v59l-1 263v134q0 43 -6.5 58.5t-25 19t-80.5 5.5q-2 0 -4 4l-8 23q0 3 1 4q31 39 94 37h352q16 2 27.5 -4.5t25.5 -20.5q11 -10 19 -15.5t19 -6.5l4 -5v-1z" />
    <glyph glyph-name="G" unicode="G" horiz-adv-x="572" 
d="M545 336q9 -6 9 -23t-8.5 -23.5t-25.5 -10.5l-8 -2h1q-8 -2 -11 -4l-21 -2q-12 -2 -21 -2q-8 -11 -8 -29l1 -13l1 -12q0 -12 -3 -21l-1 -69q1 -1 1 -4v-50l-1 -51q0 -2 -1 -3.5t-3 -1.5q-3 -1 -8 -1q-11 0 -17.5 5.5t-13.5 17.5l-10 12h-9l-13 -9q-5 -3 -25.5 -17
t-43.5 -22h-109q-89 75 -110 104t-21 38q0 1 2 -1l-5 12l-5 11q-4 16 -6 43q-2 26 -8 45q-16 48 -16 112q0 50 10 113l3 3q2 1 1 4l11 67q1 12 5 31l6 37l7 10q4 8 10 14q4 20 28 35q2 1 5.5 3t10.5 9v-1l15 25l10 7q25 20 53 30t53 10q30 0 57.5 -11.5t45.5 -26t23 -23.5
q0 -5 1 -9q8 -4 13 -4t7 3.5t4 13.5q2 11 4 15.5t9 7.5l-1 -1l24 12q4 2 6 -1l13 -17q3 -7 14 -19v-71q0 -13 -5 -26v1q-6 -16 -6 -24q0 -10 9 -19q1 -1 1 -3q-2 -48 -2 -69l-2 -4l-39 -25q-15 0 -21 1l-3 6l-3 5q-1 1 -1 4q0 14 1 18q1 5 1 15q0 20 -11 31
q-17 72 -55.5 112.5t-90.5 40.5q-22 0 -48 -9q-32 -15 -45 -41t-24 -71q-2 -7 -5.5 -22.5t-7.5 -24.5q-24 -69 -24 -165q0 -54 14 -111.5t38 -122.5q36 -34 73 -52.5t80 -15.5l70 66l3 23q12 21 17 67q2 27 5 39q4 14 -6.5 18.5t-32.5 6.5l-11 1h-14q-23 0 -35.5 4.5
t-12.5 22.5q0 9 5 26q0 1 1 2t2 1q19 7 50 7h24.5t36.5 4l11 3h8q21 -8 37 -8q17 0 36 8h7q3 0 4 -1v-1q3 0 4 -1h1l8 -2q18 -4 27 -10z" />
    <glyph glyph-name="H" unicode="H" horiz-adv-x="612" 
d="M167 -3q-22 3 -46 3q-47 0 -74 10q-1 0 -2 1.5t-1 2.5q-1 4 -1 9q0 11 6 16t18 9l9 2q3 0 5 2q1 1 4 1h11l11 1q18 7 23 21t5 37v521l1 12q0 13 -8 24q-13 7 -35 9q-18 2 -28 4.5t-19 10.5q-7 13 -7 23q0 14 11.5 20t26.5 6q17 0 49 2q34 2 50 2q47 0 83 -12q1 0 2 -1
t1 -2q7 -15 7 -27q0 -17 -14 -21.5t-40 -3.5l-3 -5q-6 -6 -6 -9l-2 -86l-2 -97q0 -38 3 -53.5t10 -19t24 -3.5l142 -1q30 0 46.5 45t16.5 105q0 50 -11.5 86t-30.5 36q-39 -1 -39 24q0 12 14 35q14 5 24 11l33 -1q30 -1 88 -1q55 0 59 -55q0 -3 -4 -5q-22 -7 -38 -11
q-12 0 -17 -5l-6 -6v2l-6 -8q-11 -13 -9 -43l1 -14v-278q0 -115 -2 -172q1 -41 14.5 -66.5t51.5 -29.5q2 0 3 -1.5t1 -3.5q0 -10 2 -34q0 -10 -1 -13q0 -1 -1 -2t-3 -1q-8 -1 -25 -1l-23 -1q-36 0 -55 1q-27 0 -55 2h-9q-17 0 -26.5 4.5t-9.5 21.5q-1 16 11 27t28 11
q13 1 20.5 7.5t17.5 22.5l2 4q-10 39 -10 99q0 34 1 50q1 14 1 38q0 38 -11 56t-45 18q-107 0 -145.5 -27t-38.5 -72q0 -23 5 -53q5 -27 5 -45q0 -17 -4.5 -28.5t-15.5 -19.5q-1 -9 1 -16.5t5.5 -14t4.5 -9.5q2 -3 6 -9.5t6 -11.5q4 -3 14 -3l10 -3h-1q4 -1 11 -1
q14 0 21.5 -3.5t7.5 -17.5q0 -15 -7.5 -19t-23.5 -5l-9 -1q-32 -2 -52 -2q-8 0 -12 -1z" />
    <glyph glyph-name="I" unicode="I" horiz-adv-x="416" 
d="M382 742q9 -9 11 -19t2 -26q0 -9 1 -14q1 -2 -1 -4t-4 -2q-38 -2 -122 -4q-24 -2 -36 -19q13 -22 23 -114.5t10 -202.5q0 -166 -21 -255q13 -14 28.5 -16.5t44.5 -2.5h19q49 -2 49 -29q0 -13 -14 -35l-4 -2q-95 -1 -285 -1h-4q-28 0 -44 6t-16 28t16.5 27.5t44.5 5.5h27
q20 -1 33.5 0.5t26.5 8.5q-1 0 -1 -2q0 1 2 3q7 15 9 43q0 14 1 21v-1q2 26 2 45q0 50 -7 148l-2 28q-1 16 -4 68t-3 90q0 72 11 108q2 9 2 24q0 41 -36 41q-11 0 -44 -7q-28 -6 -32 -3q-2 6 -8 8.5t-8 3.5q-11 6 -16.5 10t-5.5 12q0 6 3 12q5 13 13.5 15.5t24.5 1.5l13 -1
l297 3q3 0 4 -1zM167 72v0.5t1 0.5q-1 0 -1 -1z" />
    <glyph glyph-name="J" unicode="J" horiz-adv-x="501" 
d="M451 710q-50 -6 -66 -12t-20 -22t-4 -65l-1 -232v-230q1 -4 1 -10q0 -18 -15 -33q-10 -12 -11 -16l-14 -17q-31 -37 -56.5 -55t-63.5 -18q-42 0 -106 26h1q-44 6 -64 31t-20 69q0 34 13.5 52t46.5 18q26 0 35.5 -9t9.5 -24q0 -9 -1 -15t-2 -10q0 -3 -1 -7t-1 -7
q-9 -16 -9 -27q0 -8 8 -13t22 -10q21 -8 26 -12q2 1 4 1t4 -2l24 10q36 14 56.5 26t33 34.5t12.5 60.5q0 129 2 267q1 50 1 123q0 65 -4 91.5t-15 33t-37 4.5l-7 -1q-5 -1 -15 -1q-29 0 -31 25q-1 14 50 23t115 9q57 0 97 -8t40 -22q0 -15 -8 -19.5t-23 -5.5z" />
    <glyph glyph-name="K" unicode="K" horiz-adv-x="610" 
d="M582 733q0 -8 -3 -16v1q-4 -15 -13.5 -19.5t-25.5 -4.5h-8q-28 0 -42 -1q-10 -25 -80.5 -120t-93.5 -115q-12 -10 -12 -20q0 -6 2 -10q89 -208 149 -326q11 -22 28 -30t43 -6q19 1 33.5 -7.5t14.5 -24.5q0 -34 -45 -34q-19 0 -40.5 4t-27.5 5q-36 6 -60 8.5t-48 1.5h-6
h-7q-22 0 -22 20q0 15 24 24q31 12 41.5 18t10.5 14t-10 24.5t-15 24.5q-22 38 -39 81.5t-39 107.5q-6 17 -15 27.5t-18 10.5t-27 -9q-1 -1 -1 -3t-1 -3h1q-9 -21 -11 -26l-23 -26l-10 -13l1 1q-10 -24 -13.5 -49t-3.5 -56v-32v-59q0 -19 10 -25t30 -6q15 1 27 -6.5
t13 -20.5q2 -11 -4 -16t-20 -11v1l-8 -3q-22 -11 -50 -11q-23 0 -57 6l-12 8l-1 1q-3 1 -9 1q-5 0 -15 -2q-4 -1 -9 -2t-11 -1q-24 0 -24 32q0 19 9 22.5t28 2.5l10 -1q7 0 11 2q11 5 13.5 13.5t1.5 23.5l-1 10q2 170 2 254l1 127v142q0 34 -8.5 45t-21.5 11q-25 -3 -39 10
q-3 3 -2 6q19 53 78 53q13 0 41 -4q3 -1 9 -4.5t13 -6.5q-1 1 0 1q9 -5 21 -5l13 1h-1q12 2 16 2q23 0 23 -22q1 -34 -69 -46q-9 -58 -9 -121q0 -26 2 -76q2 -62 2 -91q0 -10 6 -10q3 0 11 4h-1l11 11l61 80q17 23 19 25q13 18 45 61t55 77q1 1 3 5q15 17 15 30q0 14 -18 29
q-15 12 -15 20t12 13.5t28 7.5q25 2 77 4l37 2q12 12 27 12q14 0 25 -7h1q10 -6 10 -21z" />
    <glyph glyph-name="L" unicode="L" horiz-adv-x="550" 
d="M536 186v1q3 -28 3 -59q0 -32 -7 -59t-25 -52q-22 -18 -53 -18q-8 0 -26 2h1q-20 2 -30 2h-211q-13 -3 -33 -3q-23 -1 -38.5 -4t-28.5 -12q-6 -5 -17 -5q-21 0 -38 19q-6 9 -6 18q0 8 6 15l6 6v-1q12 12 21.5 17t26.5 3q20 -2 25 -2q23 0 31 13t8 48v304q0 122 1 183
q-1 35 -14 55t-46 20q-22 0 -41 10t-19 29q1 18 15 22.5t39 4.5h204q58 -2 54 -42q-1 -18 -10.5 -22t-28.5 -3h-13q-9 -1 -30 -1h-22q-15 -2 -27 -11t-7 -18l15 -309q1 -34 -10 -102q-1 -7 -6 -45.5t-5 -69.5q0 -44 14 -66q6 0 12 -1t11 -1q53 -5 96 -5q63 0 108 13
q17 19 26 42t9 46q0 24 -5 54l-4 35l-1 7q-4 36 18 44q8 2 12 2q15 0 26 -11.5t11 -24.5q-1 -24 3 -68z" />
    <glyph glyph-name="M" unicode="M" horiz-adv-x="591" 
d="M507 634q0 -2 3 -38q3 -19 3 -41q-5 -128 -5 -232l1 -104l1 -121q0 -14 3 -21.5t16 -9.5l10 -10h-1q9 -8 13 -13t4 -12q0 -6 -5 -16q-10 -17 -45 -17q-13 -1 -45 -1q-29 0 -44 1q-14 1 -22 8.5t-8 16.5q0 12 14 18q37 18 48 48.5t11 78.5v54q0 64 -12 107v-1q-5 15 -5 29
q0 17 7 38q15 40 15 98q0 30 -1 46q-2 38 -2 57t1 27q-13 -14 -24 -45q-5 -14 -9.5 -22.5t-12.5 -14.5q-1 -6 -1 -18q0 -16 1 -24q1 -9 1 -27q0 -33 -14 -57q-25 -142 -60 -364q-7 -44 -47 -51q-18 7 -27 21t-16 35q-7 22 -11 28q-6 18 -6 30l-22 132q-12 60 -23 131
q-12 20 -10 56q0 46 -19 61q-2 0 -2 4l3 11q-3 11 -3 38q0 24 -4 41.5t-19 31.5q-4 -21 -4 -45q0 -51 24 -113l-1 -4q-5 -9 -12 -87.5t-7 -151.5q0 -147 32 -153q52 -8 52 -39t-26 -31q-6 0 -16 2l-10 1l-9 -1q-3 -1 -10 -1t-10 1l-11 1q-101 12 -101 35q0 7 8.5 12.5
t26.5 15.5q3 1 12.5 6.5t9.5 8.5q1 13 1 36q0 46 -13 121q-8 50 -8 80q0 40 13 104q11 45 11 111q0 23 -2 71q-2 50 -2 73q0 11 -16 21q-13 9 -19 15.5t-6 18.5q0 3 4 5q24 7 53 7q15 0 25.5 -1t18.5 -2q22 -1 33.5 -15.5t12.5 -37.5q1 -19 0.5 -32.5t-0.5 -21.5v-27
q13 -17 35 -105t40.5 -188t21.5 -135q22 14 28 37.5t7 58.5l1 14q1 18 30.5 183.5t36.5 179.5l4 6l8 16q2 2 2 13q0 5 -0.5 19t5.5 22.5t21 10.5l17 2q32 5 45 5q34 0 57 -18h-1q5 -2 5 -11v-3l-3 -4q-44 -22 -44 -73z" />
    <glyph glyph-name="N" unicode="N" horiz-adv-x="599" 
d="M574 714q0 -20 -11 -37l-4 -2q-34 -2 -47 -6t-13 -11q0 -3 6 -15q1 -2 8.5 -18t7.5 -34q0 -28 -17 -55v-502q0 -5 -5 -5h-7q-26 -24 -42 -24q-23 0 -35 44v-1q-15 39 -66.5 175.5t-100.5 275.5q-16 50 -43 95v-1q-11 18 -16 18q-8 0 -11 -23q4 -12 4 -17q0 -6 -3 -12
l2 -55l1 -24q4 -84 4 -140q0 -71 -7 -112q3 -13 8 -31q1 -4 6 -25.5t5 -43.5q0 -17 -4 -33q-3 -15 8.5 -26.5t30.5 -18.5l-1 1l13 -3q12 -2 18 -5.5t6 -14.5q0 -28 -39 -26h-9q-21 -1 -67 -1q-45 0 -66 2q-11 0 -14 -1q-5 -1 -16 -1q-24 0 -28 25q-2 13 8.5 22.5t22.5 14.5
t16 6q3 0 5 -2q7 -9 15 -9q10 0 18.5 12t8.5 23q0 7 -3 10q-14 24 -14 111q0 48 8 182l4 73q10 147 12 207q-15 11 -26 16.5t-25 4.5q-41 -3 -40 37q0 5 5 5q23 0 45 3q24 3 47 3q24 0 44.5 -7t40.5 -24l33 -85q17 -46 31 -79l25 -66l8 -18q1 -3 5.5 -11.5t6.5 -16.5t2 -16
q44 -67 62 -119.5t25 -98.5q3 -18 5 -25t8 -7q4 0 10 3q-1 9 -1 39q0 72 9 242q4 84 4 110q0 57 -8.5 83t-26.5 35t-59 15q-2 0 -3 1.5t-1 3.5q-1 10 -1 30q0 2 1 3.5t3 1.5q28 6 68 6q29 0 44 -1q18 -1 58 -1q44 0 44 -29z" />
    <glyph glyph-name="O" unicode="O" horiz-adv-x="508" 
d="M452.5 634.5q19.5 -52.5 21.5 -113.5l1 -21l1 -40q2 -54 2 -79q0 -54 -5 -119q-8 -86 -46.5 -152.5t-112.5 -102.5q-21 -11 -44 -11q-46 0 -111 46h1q-30 16 -47 39t-25 47t-17 64q-10 40 -17 62q-2 8 -9 17q-14 24 -14 39q0 9 6 21q-7 28 -7 62q0 31 9 58q9 21 12 45
t3 28q4 35 9.5 58t20.5 44q18 70 68.5 107.5t111.5 37.5q37 0 71 -12.5t59 -36.5q39 -35 58.5 -87.5zM411 398q0 109 -23 224q-9 42 -42.5 67.5t-74.5 25.5q-34 0 -67 -23q-59 -48 -84 -135.5t-25 -189.5q0 -21 2 -61l7 -11v1q2 -4 8 -14t8 -20q22 -104 81 -163
q20 -17 34 -26t29 -9q14 0 30 11q39 33 63.5 62t33.5 67q20 93 20 194z" />
    <glyph glyph-name="P" unicode="P" horiz-adv-x="548" 
d="M522.5 454q-10.5 -32 -30.5 -68l-10 -7l-22 -18q-11 -17 -25.5 -20.5t-37.5 -2.5q-5 0 -10.5 0.5t-13.5 -0.5l-6 -6t-6 -5q-29 -11 -61 -11q-35 0 -60 8l-18 -7l-8 -4q0 -4 -3 -7v-120l-1 -77q0 -20 12 -30.5t33 -11.5q7 1 23 1q24 0 34 -1l15 -1q16 -2 23 -13t5 -26
q-3 -17 -7.5 -26.5t-15.5 -9.5q-8 0 -21 7h-130q-53 0 -79 1h-17q-30 -1 -45.5 4.5t-15.5 30.5q0 20 10.5 27t29.5 7l22 -1q6 -1 16 -1q24 1 32.5 10.5t8.5 26.5l-1 15l-1 19q0 11 3 20q0 109 2 237q1 47 1 121q0 71 -6 106t-17.5 46.5t-31.5 11.5q-5 -1 -13 -1
q-20 0 -32.5 11t-12.5 29q0 29 37 29l12 -1l6 -1h29q48 0 71 1q48 2 71 2q71 0 124 -13q2 0 3 -1.5t1 -3.5l1 -3l2 -2h6q22 0 36 -2t27 -12l14 -18l16 -20t19 -29.5t8 -29.5l9 -10q2 -17 4 -61v-24q3 -33 -7.5 -65zM248 416q38 -34 92 -34q34 0 65.5 14.5t51 41.5t19.5 63
q0 25 -12 58q-2 8 -7 17q-18 48 -44 81.5t-78 32.5q-12 5 -30 5q-11 0 -27 -2q-14 -2 -22 -2q-15 -14 -41 -14l-3 -77q-2 -52 -2 -83q0 -67 38 -101z" />
    <glyph glyph-name="Q" unicode="Q" horiz-adv-x="531" 
d="M339 700.5q15 -12.5 38 -20.5q26 -8 43 -26.5t29.5 -71.5t16.5 -156l1 -15q2 -50 2 -82q0 -57 -8 -104.5t-29 -92.5q-20 -39 -38 -68t-40 -53q-15 -17 -15 -39q0 -23 15 -42t34 -19q27 0 47 34q3 3 6 12q6 13 11.5 19t14.5 6q8 0 16 -4v1q23 -11 23 -33q0 -12 -13 -40
l1 1q-18 -58 -81 -58q-17 0 -32 3q-30 5 -48 11.5t-32 23t-16 47.5q-1 18 -17 31t-38 20q-7 -1 -19 -1q-77 0 -126 95q-65 131 -65 274q0 140 61 292q8 20 26 31q29 42 70 54.5t103 14.5l27 1l5 -3q12 -30 27 -42.5zM365 579q-3 22 -8 37.5t-18 26.5h1q-8 4 -32.5 16.5
t-38.5 17.5t-25 5q-17 0 -35 -13.5t-59 -52.5l-21 -17q-39 -103 -39 -259q0 -21 12 -61q13 -43 11 -72q-5 -49 26 -49q10 0 28 8q17 7 36 7q23 0 46.5 -10t40 -23.5t19.5 -22.5q11 -28 21 -28q14 0 26 39t23 95l6 25q16 51 16 104q0 33 -5 65.5t-15 78.5l-4 22l-8 38
q-2 9 -4 23zM250 43q19 11 19 22q0 9 -6 16l-6 9v-1q-10 14 -18 22t-19 9q-21 2 -36 -2t-15 -18q0 -6 1 -9q15 -58 55 -58q7 0 11 1h1v0.5t1 0.5l-1 -1zM237 34h-1h1z" />
    <glyph glyph-name="R" unicode="R" horiz-adv-x="590" 
d="M72 -15q-15 0 -23.5 10.5t-10.5 26.5v-1q-4 27 27 27l12 -1q4 -1 12 -1q24 0 31.5 14.5t6.5 43.5v79q0 127 1 190l1 87q-5 43 -5 92l1 43l1 31q0 28 -8.5 40.5t-30.5 12.5q-9 0 -14 -1q-13 -1 -25.5 2t-21.5 11l-2 4q-1 17 4.5 23.5t15.5 6.5q8 0 13 -1h15q21 4 55 7.5
t53 3.5q9 0 11 -1h3h1q3 0 5 -2t1 -5q8 -2 13 -2t13 2q30 17 65 17q21 0 40.5 -4.5t45.5 -12.5q46 -13 64 -15q40 -34 63 -70.5t25 -82.5q0 -14 17 -33v1l3 -4q1 -1 1 -4v-20l-16 -30q-22 -43 -41.5 -71t-49.5 -46q-11 -14 -11 -24q0 -8 10 -28q14 -28 21.5 -50.5t7.5 -60.5
q0 -49 7.5 -80t34.5 -54q1 -1 3 -1q4 -2 8 -2q7 -4 14 -6q14 -4 20 -9t3 -19q-5 -16 -17 -25t-28 -9q-6 0 -10 1q-10 2 -24 8l-9 3q-27 2 -39 16t-11 42q4 104 -22.5 172t-68 99t-82.5 31q-28 0 -46 -13.5t-18 -35.5q0 -6 1 -9q6 -39 6 -80q0 -18 -2 -54l-1 -27
q-1 -9 -1 -26q-2 -32 8 -48t38 -16l16 1q34 0 30 -27q-5 -29 -33 -29q-7 0 -11 1q-45 9 -75 9q-41 0 -76 -14q-9 -3 -15 -3zM194.5 663.5q-16.5 -15.5 -18.5 -43.5q-1 -37 6 -93q4 -26 4 -43l2 -28l3 -29q2 -18 13 -29t28 -10q122 1 184 39t62 95q0 50 -45 103
q-28 33 -62.5 42t-90.5 10q-24 0 -36 1q-33 1 -49.5 -14.5z" />
    <glyph glyph-name="S" unicode="S" horiz-adv-x="501" 
d="M380 5.5q-36 -22.5 -80 -22.5q-33 0 -68 12h1l-11 3q-17 0 -35 2q-12 3 -28 23q-8 9 -15 13.5t-16 4.5q-7 0 -17 -5v-1q-18 -24 -33 -24q-10 0 -16.5 10t-8.5 25q-4 39 -4 88l1 61v50q0 25 22 25q18 0 30.5 -13.5t10.5 -33.5q-1 -6 -1 -19q0 -60 56 -113q57 -42 117 -42
q44 0 79 31t42 75q3 18 3 32q0 50 -28.5 84.5t-69.5 55t-105 43.5q-42 16 -67.5 27t-45.5 24q-29 23 -46.5 64t-17.5 84q0 41 16 75t48 55q66 38 120 38q52 0 97 -34q1 0 9 -2q28 -6 51 -6q2 14 11.5 23t20.5 9q13 0 23.5 -13t13.5 -40l-2 -4q-7 -6 -13 -12.5t-6 -13.5
q0 -3 4 -11q16 -24 14 -76v-30q1 -19 -7.5 -33t-27.5 -14q-18 1 -25.5 15t-6.5 34v24l1 22q-11 11 -13 14q-26 31 -44 46.5t-52 33.5q-9 6 -20 7t-34 1q-21 0 -30 1q-40 -28 -59.5 -55t-19.5 -56q0 -52 80 -125q30 -4 59 -14t66 -27q37 -19 63 -28l14 -7q10 -6 17 -8
q36 -38 56.5 -85t20.5 -94q0 -61 -34 -109v1q-24 -43 -60 -65.5z" />
    <glyph glyph-name="T" unicode="T" horiz-adv-x="537" 
d="M42 489q-8 9 -11 15t0 15q-3 12 -3 38q0 11 2 37t2 40q0 16 -3 32q-2 12 -2 16q0 22 13 33t36 11q6 0 20 -2q96 23 135 23q15 0 25 -3.5t23 -9.5q11 -6 30 -10l77 10l15 1q10 0 14 -2h-1q79 -45 84 -64l1 2q1 -2 5.5 -14t4.5 -24q0 -22 -19 -35q0 -22 -14 -32l6 -9
q15 -20 22 -33.5t7 -31.5q0 -6 -2 -18v-7q-2 -15 -5.5 -24t-14.5 -16q-8 -5 -15 -5q-9 0 -24 13l-7 7q-10 10 -14.5 16t-4.5 15q0 10 8 22q10 13 10 45q0 31 -9.5 67.5t-24.5 60.5v-1l-4 4q-4 0 -4 5t4 5q5 0 -1.5 1t-17.5 2t-25 1q-27 0 -45 -19.5t-18 -65.5q0 -9 2 -29
q3 -30 3 -60l-1 -48l-1 -49v-246q7 -28 26 -62.5t37 -42.5l15 -6q27 -10 38 -29l1 -4q-2 -3 0 -5q2 -5 -3 -7q-9 -4 -24 -8h1q-5 -2 -25 -7q-25 3 -49 3l-51 -1q-13 -1 -43 -1q-55 0 -92 11q-4 2 -4 5q-3 46 50 51q7 4 15.5 3.5t11.5 -0.5q13 0 20 1.5t7 8.5q0 11 -10 30
q14 88 14 187q0 58 -4 105l1 65q2 92 2 139q0 46 -11 61t-46 15l-34 -2h-22q-25 -24 -25 -69l1 -22q1 -8 1 -23q0 -20 -5 -34q1 -5 1 -13q0 -17 -10.5 -25t-31.5 -12q-3 0 -5 2l-5 8v-1z" />
    <glyph glyph-name="U" unicode="U" horiz-adv-x="574" 
d="M30.5 687q-7.5 4 -7.5 17q0 21 41 29t99 10l27 2q14 4 26 -8t14 -28q3 -6 3 -11q0 -18 -38 -15q-21 -1 -27.5 -14t-6.5 -36v-482q11 -10 27 -42q7 -14 17.5 -27.5t22.5 -18.5h-1q26 -8 47 -8q48 0 84.5 27.5t36.5 71.5l-1 80q0 132 10 294l2 28q4 62 4 74q0 30 -8.5 40
t-33.5 14q-26 2 -26 23q0 18 40 29.5t92 11.5q26 0 48 -3q12 -2 21 -13t9 -25q0 -16 -9.5 -20.5t-27.5 -5.5q-30 0 -42 -19t-12 -58q0 -30 7 -97q11 -110 11 -176q0 -117 -26 -222q-23 -59 -67 -91t-103 -32q-30 0 -58 7q-15 14 -41 25q-25 12 -39 23t-21 36v-1
q-3 9 -5.5 18t-5.5 17q-7 18 -10 34q-6 7 -8.5 17.5t-3 58.5t-0.5 131q0 180 -1 330h-39q-13 1 -20.5 5z" />
    <glyph glyph-name="V" unicode="V" horiz-adv-x="549" 
d="M409.5 740q28.5 5 54.5 5q32 0 52 -10t20 -33q0 -17 -10 -21t-29 -4q-19 1 -30.5 -8.5t-24.5 -27.5l-14 -20v-9q0 -15 1 -23t1 -23q0 -30 -12 -49l1 1l-14 -67q-24 -107 -32 -162q-2 -12 -6.5 -22.5t-5.5 -13.5q-11 -23 -12 -42q-7 -21 -10 -39t-5 -44q-4 -44 -11.5 -69
t-34.5 -48q-17 -10 -32 -10q-17 0 -25.5 13.5t-13.5 34.5l-4 10q-12 40 -23 101l-17 83q-13 49 -25 120q-12 66 -22 110t-26 88q-3 9 -3 31l1 19q0 32 -13.5 50.5t-49.5 20.5q-9 1 -16 10.5t-6 26.5q0 2 1.5 3.5t3.5 1.5q114 0 172 -1q5 -1 11.5 -4.5t10.5 -8.5q3 -4 3 -10
t-3 -11t-9 -6q-54 -8 -54 -44q0 -13 11 -46q6 -19 7 -24q20 -109 69 -314l27 -116q9 8 13 18t5 19.5t2 12.5q5 26 11 37l16 83q20 110 31 166q3 14 14 56q16 60 21 90q2 14 2 20q0 7 -2 21q-2 10 -2 15h-25q-20 -1 -29.5 3t-9.5 23q0 15 8.5 18.5t26.5 3.5q10 0 19 3
q17 7 45.5 12z" />
    <glyph glyph-name="W" unicode="W" horiz-adv-x="595" 
d="M495 750l32 1q18 0 30 -7t17 -27q0 -3 -2 -5q-22 -18 -29.5 -41.5t-11.5 -62.5q0 -6 -1 -12t-1 -12q0 -4 -1 -7.5t-2 -6.5q-11 -24 -22.5 -122t-27.5 -251q0 -12 -2 -26l-3 -35q-12 -16 -12 -42q0 -6 0.5 -22.5t-4 -30t-16.5 -24.5q-2 -1 -14 -8q-16 -12 -27 -12
q-10 0 -20 7l-2 4q1 14 -2.5 30t-8.5 31v-1q-11 31 -11 57q0 9 1 13l-19 154l-17 138l-2 42q-2 28 -2 37l-8 9h1q-3 3 -5 7l-3 6q-4 7 -7 9t-10 -1q0 -41 1 -60q-3 -7 -5 -16q-10 -26 -10 -65l1 -34q1 -7 1 -27q0 -19 -1 -26v-15q0 -17 -1 -24q-2 -7 -3 -14t-1 -9
q1 -9 1 -26q0 -28 -6 -78q-1 -8 -4 -31t-3 -42q0 -18 3 -35v-2q0 -8 -3.5 -13.5t-10.5 -12.5l-9 -9q-2 -2 -3 -2q-6 -1 -17 -1q-64 0 -72 64l3 127l-22 25q-1 8 -1 19v16q1 21 -1.5 36.5t-12.5 28.5l-4 8v-1l-5 7q-1 1 -1 4l6 59q-5 12 -4 22q-9 22 -12 47.5t-3 59.5
q0 28 -1 44q-6 3 -9 6h1l-10 7l-2 4l-1 28v30q1 4 1 12q0 22 -21 45q-13 13 -13 24q0 14 24 27h105q4 0 5 -3q4 -9 4 -20q0 -14 -9 -31q-4 0 -9 -1t-11 -2q-9 -7 -14 -20.5t-5 -29.5q0 -22 6.5 -47t15.5 -38q0 -11 8 -48q19 -90 19 -130q0 -9 -2 -23q6 -25 11 -42
q15 -53 14 -88q6 3 9 3q11 48 25 179.5t14 210.5q0 31 -3 49v13q-2 16 -18 20q-1 0 -2.5 1t-1.5 2l-2 8q-8 8 -8 17t11 24l4 2h63l64 1q1 0 4 -3q1 -1 4 -3t7 -6l7.5 -7.5t6.5 -12.5q0 -5 -7 -12q-19 -13 -25 -23t-6 -32q0 -35 21 -161q3 -15 23 -144l9 -55q7 -9 9.5 -18.5
t2.5 -22.5q0 -8 -0.5 -12t0.5 -10q13 5 18.5 14.5t6.5 25.5q2 53 18 155q10 63 15 105t5 84q0 20 -1 30q0 7 6 16v-1l3 5q0 7 -12 19l-10 8h1q-13 9 -18.5 16.5t-3.5 19.5q3 13 11.5 17.5t21.5 5.5q5 0 13 2h3q8 -3 16 -3z" />
    <glyph glyph-name="X" unicode="X" horiz-adv-x="591" 
d="M555 60q10 -10 10 -26q0 -32 -30 -33q-46 -2 -70 -4h-26q-10 3 -21 3h-14q-20 -1 -33.5 1.5t-25.5 13.5l-2 4q1 37 40 53q20 9 20 23q0 6 -3 12q-17 44 -55 81q-4 4 -1 7v1q-1 1 -1 4q1 4 1 10q0 18 -18 42q-2 2 -8.5 11t-9.5 18t-3 18q-13 -6 -25 -39
q-8 -23 -15.5 -35.5t-20.5 -17.5q-7 -32 -35 -125q-8 -5 -8 -9t10 -5q44 -2 44 -36q0 -13 -9 -20.5t-26 -14.5h-62q-15 4 -34 4l-38 -1q-36 0 -57 14l-2 4q0 2 0.5 3t-0.5 2t-1 5q7 21 21 28t40 11q8 1 24 5q5 2 11 6q11 5 15 13.5t6 22.5q0 2 2 12.5t8 19.5l33 94
q0 8 3.5 14t10.5 13q14 16 12 28q0 4 3 5l6 2q3 6 8.5 14.5t10.5 19.5q4 7 9 15t10 18l-12 51v-1l-33 69q-43 91 -62 136q-26 58 -74 62q-16 1 -22.5 4.5t-6.5 17.5q-2 28 20 32q56 6 87 6q47 0 78 -10q9 -3 15 -9t6 -13q0 -12 -22 -19q-29 -8 -29 -35q0 -17 7 -29l22 -45
q3 -6 13.5 -29.5t24.5 -40t33 -25.5q16 52 62 129q10 20 10 32q0 18 -20 31q-11 9 -17 16t-6 17q0 6 3 12q5 11 14.5 13.5t26.5 2.5h39h23q7 0 18 0.5t26 -0.5h6q15 0 24 -4.5t11 -20.5q1 -14 -9.5 -26t-22.5 -12q-28 -1 -44 -19t-29 -48l-23 -52q-27 -58 -42 -105t-15 -94
q0 -13 1 -20l6 -5q0 -1 1.5 -3t2.5 -3l-1 2q10 -9 16.5 -20t14.5 -30l8 -20l28 -53q17 -31 50 -97q2 -3 3 -6.5t3 -6.5q9 -21 16 -30t22 -9q9 0 20 4h1q14 4 24 -6z" />
    <glyph glyph-name="Y" unicode="Y" horiz-adv-x="588" 
d="M570 716q0 -21 -27 -33q-2 -1 -3.5 -0.5t-2.5 2.5q-6 9 -18 9q-8 0 -12 -2l-23 -44q-10 -18 -28 -54l-29 -55q-3 -3 -4 -9q-10 -9 -42.5 -71t-39.5 -80q-11 -49 -11 -123q0 -30 2 -82q2 -60 2 -89q0 -4 2 -18h23q10 0 24.5 0.5t33.5 -0.5h5q15 0 23 -2.5t12 -14.5l2 -8
q0 -9 -5 -15t-16 -16q-13 -13 -20 -17.5t-14 -4.5q-4 0 -21.5 5t-54.5 4h-34q-75 0 -103.5 2t-41 11.5t-13.5 33.5l2 4q14 13 30 16t31.5 2.5t20.5 -0.5q29 0 43 9v261q0 18 -3 29.5t-16 19.5q-2 2 -2 5q1 8 -30.5 71t-68.5 129.5t-45 75.5l-9 8q-5 4 -25 8q-22 5 -33 12.5
t-11 27.5q0 11 2 18q2 6 7 4l4 2l48 -1q31 0 93 -2h7q16 0 24.5 -2.5t8.5 -12.5q0 -9 -11 -26l-8 -6h2q-3 -3 -16 -10q-23 -9 -23 -22q0 -8 7 -19t24 -31q11 -10 17.5 -22.5t14.5 -31.5l6 -16l-1 1l15 -23q8 -5 13 -14t12 -24q8 -17 14.5 -25t17.5 -3q22 8 38 34.5t25 60.5
l8 14q8 8 9 12h-1q4 10 17 30v-1q11 20 16.5 33t5.5 26q0 15 -9.5 28t-32.5 26l-2 4q-2 1 -1.5 3.5t2.5 3.5q15 10 30 12.5t37 1.5h16q16 0 24 2h35l16 5l18 6q1 1 3 0t3 -3l2 -4q13 -26 13 -35z" />
    <glyph glyph-name="Z" unicode="Z" horiz-adv-x="525" 
d="M473 238h2l-4 -3q2 -104 2 -158q1 -30 -8 -53.5t-36 -23.5h-11q-22 -16 -66 -16q-28 0 -94 8q-10 1 -39.5 5t-48.5 4q-20 0 -33 -4h-48q-2 0 -3 1l-9 6q-8 6 -26 16l-14 9l-7 7q-1 4 -5 10q-1 1 -1 2.5t1 2.5l15 27q9 11 94.5 156.5t163.5 283t89 170.5h-5q-13 3 -87 3
q-126 0 -140 -1q0 -12 -11 -34q-6 -10 -4 -19q-2 -13 -2 -29.5v-21.5q1 -34 -3 -57.5t-21 -44.5l-4 -2q-10 0 -17 4.5t-15 12.5v-1l-4 5q-1 1 -1 4l-1 11q-4 28 -4 45q0 27 13 52h-1q7 18 7 39l-1 41q0 29 10 49q1 3 4.5 2.5t4.5 -3.5q60 2 153 7t132 7q0 5 6 5l26 -3h-1
l32 -4l4 -2l6 -10l8 -11v-26q-15 -78 -83 -204.5t-169 -292.5l-11 -18q-28 -46 -48 -78.5t-26 -35.5q3 1 5.5 -0.5t2.5 -4.5q-1 -4 -1 -5q152 2 225 2h2q21 16 29.5 37.5t13.5 55.5q2 23 4 29q10 14 10 28q0 13 -14 41l-10 22q-1 1 -0.5 2.5t1.5 2.5q17 24 39 24
q11 0 20.5 -5.5t18 -11.5t10.5 -8l2 -4q0 -4 3 -10l-17 -32z" />
    <glyph glyph-name="bracketleft" unicode="[" horiz-adv-x="290" 
d="M39.5 251q-7.5 12 -9.5 16q6 5 14.5 12t9 17.5t1.5 30.5l5 11l11 253v6q1 31 -1.5 41.5t-6.5 15t-4 11.5q0 9 3 18t6 14t4 6v10q0 6 -1 36t-7 51q-2 6 -2 16q0 23 23 30.5t68 7.5l72 -1q17 0 28 -7.5t11 -20.5q1 -14 -10.5 -22t-27.5 -8l-65 1q-29 0 -38.5 -9.5
t-9.5 -42.5q0 -21 5 -81q7 -100 10.5 -179t3.5 -197q0 -159 -10 -363q12 -3 35 -3q35 0 68.5 4t36.5 4t4 -1v-1q10 -10 10 -23q0 -14 -9.5 -24.5t-24.5 -11.5l-150 -6h-4q-10 2 -17 8q-16 108 -16 278l1 77q-9 14 -16.5 26z" />
    <glyph glyph-name="backslash" unicode="\" horiz-adv-x="511" 
d="M272 400l45 -73q17 -61 71 -107q1 -1 44 -83t59 -112q9 -23 9 -34q0 -23 -27 -23q-9 0 -23 3l-1 1l-10 10q-2 7 -4 21q-2 16 -5 26.5t-11 19.5q-30 36 -93 138.5t-174 291.5q-126 215 -150 249l51 25q9 -17 219 -353z" />
    <glyph glyph-name="bracketright" unicode="]" horiz-adv-x="290" 
d="M250.5 478q7.5 -12 9.5 -16q-6 -5 -14.5 -12t-9 -17.5t-1.5 -30.5l-5 -11l-11 -253v-6q-1 -31 1.5 -41.5t6.5 -15t4 -11.5q0 -9 -3 -18t-6 -14t-4 -6v-10q0 -6 1 -36t7 -51q2 -6 2 -16q0 -23 -23 -30.5t-68 -7.5l-72 1q-17 0 -28 7.5t-11 20.5q-1 14 10.5 22t27.5 8
l65 -1q29 0 38.5 9.5t9.5 42.5q0 21 -5 81q-7 100 -10.5 179t-3.5 197q0 159 10 363q-12 3 -35 3q-35 0 -68.5 -4t-36.5 -4t-4 1v1q-10 10 -10 23q0 14 9.5 24.5t24.5 11.5l150 6h4q10 -2 17 -8q16 -108 16 -278l-1 -77q9 -14 16.5 -26z" />
    <glyph glyph-name="asciicircum" unicode="^" horiz-adv-x="347" 
d="M55 692l55 84l38 30h1q7 5 15 5q14 0 21 -12q19 -34 25 -41q14 -16 34.5 -36.5l29.5 -29.5l49 -89l8 -40q-6 -12 -22 -12q-10 0 -18 6.5t-11 19.5l-20 31l-27 28l-12 14l-22 43v1q-6 15 -18 25.5t-28 13.5l-3 1l-49 -39l-8 -33l-17 -30v-39q0 -1 1 -4t1 -7q0 -19 -18 -19
q-16 0 -22 3t-6 4q-10 15 -10 31q0 11 4 19z" />
    <glyph glyph-name="underscore" unicode="_" horiz-adv-x="494" 
d="M451 -143q0 -13 -30 -40l-172 -2l-172 -2l-3 1h-4q0 10 -17 16q-9 4 -13 7.5t-4 10.5q0 5 4 13v1q64 12 158 12q34 0 102 -2q15 0 53.5 -1.5t68.5 -0.5q29 0 29 -13z" />
    <glyph glyph-name="grave" unicode="`" horiz-adv-x="200" 
d="M17 742q0 8 7 17q10 12 25 12q26 0 60 -34q73 -75 73 -110q0 -8 -2 -11q-4 -8 -15 -8q-25 0 -87 54q-61 50 -61 80z" />
    <glyph glyph-name="a" unicode="a" horiz-adv-x="549" 
d="M305 327q23 1 36 5t19 21q8 19 8 37q0 27 -23 52q-68 29 -123 25q-37 -1 -52 -23.5t-25 -66.5q-18 -24 -37 -24q-17 0 -32 25q-11 35 -11 54q0 24 16 42.5t57 45.5l8 5q6 2 15 9h107q12 0 35 -7q3 -1 13 -3t19 -2q3 0 5 -4l4 -1q10 -5 11 -7q39 -32 57.5 -55.5
t18.5 -57.5q0 -19 -5 -35q-5 -9 -7 -19q2 -7 2 -23t-1 -22l-1 -25q0 -20 6 -33v-37q0 -38 -1 -58t-7 -42q-2 -12 -2 -17q0 -19 15 -29q4 -2 6 -2q6 0 14 10q4 6 13 11q4 1 7 8.5t4 9.5q5 10 10 16t14 6q6 0 16 -5q8 -5 12 -14.5t4 -19.5q0 -14 -7 -37q-6 -17 -21 -28
t-33 -11q-9 0 -18 3l-36 11l-32 10l-13 17q-38 1 -63 -27q-35 -18 -74 -18q-20 0 -44.5 4.5t-47.5 10.5l-39 9q-75 54 -75 120q0 28 16.5 59t45.5 57q8 12 23 15q9 2 15 6q30 10 44 16q6 2 30.5 11t46.5 14.5t42 6.5zM374 194q0 29 -22 46.5t-61 17.5t-74.5 -12.5
t-72.5 -35.5h1q-20 -19 -31.5 -36.5t-11.5 -35.5t8 -33q48 -41 89 -41q26 0 56 15q11 5 23 3q2 0 4 -1t5 -1q10 17 32 24l16 8q4 4 10 13l12 13q17 29 17 56z" />
    <glyph glyph-name="b" unicode="b" horiz-adv-x="533" 
d="M62 669q-17 0 -29.5 13t-12.5 29q0 27 22 27q6 0 16 -2q4 -1 18 -1q38 8 59 8q33 0 43.5 -19t10.5 -69l-1 -45l-1 -28q8 -24 7.5 -49t-0.5 -30q0 -32 10 -55l8 8l9 11q28 25 60 37.5t63 12.5q23 0 44 -7.5t35 -20.5q49 -19 72.5 -75t23.5 -132q0 -42 -8.5 -91t-21.5 -92
q-19 -46 -63 -76.5t-92 -30.5q-17 0 -37 5.5t-37 14.5q-14 7 -20 13q-4 3 -14 10t-20 7q-8 0 -18 -7q-12 -27 -28 -27q-7 0 -11 2q-15 6 -18.5 22.5t-3.5 64.5q0 82 -4 150q0 14 13 31q-2 -2 6 10q-1 6 -1 20q0 16 2 44q1 11 1 35q0 41 -15 72q-10 29 -10 73q0 30 1 42t1 39
q0 19 -1 27v12q-1 16 -3 23t-9 7q-11 0 -27 -8q-10 -5 -19 -5zM255 434q-61 -71 -61 -174q0 -37 10 -92q3 -15 3 -22q17 -47 45 -66q3 1 9 1q13 0 21 -7.5t18 -21.5l2 -4q49 3 84.5 30t51.5 71q23 69 23 120q0 100 -74 174h2q-32 17 -62 17q-35 0 -72 -26z" />
    <glyph glyph-name="c" unicode="c" horiz-adv-x="470" 
d="M249 -1q-33 0 -42 21q-54 -1 -95 38t-63.5 102.5t-22.5 131.5q0 73 30 133t85 85q36 29 84 29q20 0 56 -6q14 -2 38 -4q6 0 13.5 -1t11.5 -2q22 -6 32 -5l4 -2l47 -56q1 -1 1 -4q-2 -12 -2 -18l1 -33q0 -27 -13 -46q-39 -17 -60 -17q-17 0 -23.5 11t-6.5 37l1 21
q11 22 11 36q0 7 -4 10q-9 3 -28 13q-26 14 -43 14q-13 0 -22 -5v1q-35 -17 -91 -30q-61 -88 -61 -180q0 -13 2 -33l2 -2l11 -19l32 -84q14 -31 41 -50t58 -19q26 0 50 12q44 20 68.5 45t24.5 67q0 19 11.5 31.5t30.5 13.5q18 0 22 -10t3 -27l-1 -8q4 -101 -128 -167
q-26 -15 -27 -18q0 -2 -1.5 -3t-3.5 -1l-13 -1q-7 -1 -20 -1z" />
    <glyph glyph-name="d" unicode="d" horiz-adv-x="574" 
d="M63.5 109q-21.5 35 -21.5 82q0 13 1 20q-28 29 -28 61q0 20 20 60q11 20 11 32q-1 14 2.5 26.5t10.5 28.5q7 14 8 17q18 49 56 74t87 25q38 0 78 -16t74 -46q23 36 23 88q0 11 -2 37q-1 14 -1 40v16q0 10 1 15l-7 4v-1q-25 12 -38.5 17t-30.5 5q-12 0 -19 -2q-4 0 -5 1
l-12 12q-8 8 -12.5 14.5t-4.5 13.5q0 6 3 13q7 16 28 16q11 0 17 -1q5 -1 12 -1l22 1q41 2 66 -6q19 -11 24 -25.5t5 -40.5v-343l-1 -196q0 -30 6.5 -43.5t18 -17.5t35.5 -5q7 0 23.5 -1t28.5 -3q2 0 3 -1.5t1 -3.5q0 -3 3 -6q6 -8 6 -12q0 -5 -7 -11h1q-2 -2 -4 -3.5
t-4 -3.5q-36 -23 -84 -23q-17 0 -29 1t-20 2q-12 2 -15 2q-18 1 -23 10t-7 28l-1 7l-2 7q-2 0 -2 3l-20 -18q-7 -19 -20 -26t-36 -12q-30 -8 -41 -19l-4 -2l-41 1q-29 0 -42 1l-26 28q-43 45 -64.5 80zM96 335.5q-6 -30.5 -6 -91.5q0 -15 2 -59q8 -11 31 -32q32 -28 41 -50
q14 -35 42 -35q11 0 20 3l19 4q11 1 20.5 5t12.5 5l13 6q3 6 16 14q21 14 36.5 30t28 47.5t12.5 80.5q0 28 -4 55q-4 37 -30.5 72t-67.5 74q-15 12 -36 12q-37 0 -78.5 -26t-54.5 -58l-2 -6q-9 -20 -15 -50.5z" />
    <glyph glyph-name="e" unicode="e" horiz-adv-x="457" 
d="M67.5 110q-5.5 10 -4.5 21q-17 21 -26.5 41t-6.5 43q0 24 -2 50q-2 36 -2 53q0 50 16 86q7 52 62 92l21 15q19 15 51 35q7 2 35 14l37 -13q12 -4 36 -14q10 0 35 -11q3 -1 12 -5.5t18 -4.5q7 0 14 3q29 -13 46 -75.5t17 -119.5q0 -17 -1 -23q1 -3 1 -11q0 -5 -5 -5
l-339 -3q-2 -1 -2 -2t-1 -2h1l-3 -3q2 -9 3.5 -21t2.5 -19q6 -35 13.5 -56.5t24.5 -38.5h-1l9 -6h-1q13 -8 21 -16q21 -23 42 -33.5t45 -10.5q36 0 78 24h-2l6 8v-1q24 30 37 51.5t16 48.5q0 1 2 3q19 13 32 13q24 0 25 -42q0 -15 -4.5 -26.5t-14.5 -29.5q-8 -7 -13.5 -20
t-6.5 -16q-9 -21 -23 -35t-38 -15l-105 -32q-3 0 -4 1q-19 11 -49 22q-28 9 -48.5 21.5t-34.5 33.5l-5 7q-11 14 -16.5 24zM132 426q-19 -20 -28 -34t-9 -32q0 -11 4 -23q23 -4 50 -4q18 0 41 2t33 3q62 5 78 5q31 0 47 -3q8 14 8 26q0 27 -21 53t-57 60h1q-20 11 -38 11
q-15 0 -29 -5.5t-26 -11.5t-15 -8h1l-16 -9z" />
    <glyph glyph-name="f" unicode="f" horiz-adv-x="490" 
d="M31.5 445.5q-11.5 3.5 -19.5 20.5l-1 4q14 39 47 39q14 0 35 -7q2 -1 7.5 -3.5t10.5 -2.5q54 22 54 44q0 9 -9 25q-7 11 -7 19l2 8q4 3 14 31q13 36 27.5 62t43 46.5t71.5 20.5q13 0 20 -1q51 -5 87.5 -21t55.5 -57q7 -19 7 -36q0 -24 -12.5 -44t-35.5 -31q-14 -7 -27 -7
q-16 0 -22 14q-2 4 -1 4l-8 11q-14 18 -14 34q0 11 5 18q4 6 8.5 11.5t9.5 11.5l4 4q-26 22 -52 22q-18 0 -35.5 -10t-41.5 -29l-21 -15q0 -5 -1 -10t-1 -9q-5 -52 -5 -68q0 -48 19 -48q9 0 23 9q12 6 27 6q16 0 24 -7q-2 0 4 -2l9 -3h-1q14 -4 20 -8.5t4 -17.5
q-1 -15 -14.5 -22t-31.5 -7h-41q-55 1 -55 -57l-1 -52q-1 -18 -1 -51q8 -25 8 -57q0 -18 -2 -35t-3 -23q-4 -30 -4 -41q0 -30 18.5 -45.5t70.5 -19.5l10 -1q9 0 17 -2q35 -12 34 -40q-2 -17 -10.5 -20.5t-24.5 -2.5h-155l-148 1q-2 0 -3.5 1t-1.5 3q-2 14 -4 23l1 3
q22 36 68 36l31 -1q17 0 26.5 5.5t12.5 22.5q-4 19 -4 55q-2 34 -2 54q0 33 5 105l2 22q3 24 3 42q0 38 -17 55t-63 18h-13q-21 0 -32.5 3.5z" />
    <glyph glyph-name="g" unicode="g" horiz-adv-x="628" 
d="M97 -151q-32 22 -53 56.5t-21 67.5q0 20 5 31q-1 -1 7 23q7 30 18 44q26 28 26 58q0 22 -13 45q-4 20 -4 26q0 37 36 70h-1q1 1 1.5 1t1.5 1q17 13 26 24t9 26q0 6 -1 9q-19 14 -19 35q0 7 4 23l1 4q0 4 1 6q5 41 31.5 74.5t66.5 53t84 19.5q54 0 102 -29q15 -9 28 -9
q14 0 36 12l33 7q25 0 37 1l11 -2h-1q11 -3 18.5 -6.5t14.5 -11.5q15 -19 15 -42q0 -7 -2 -21q-5 -17 -14.5 -21t-26.5 -3h-12q-14 0 -36 2l-18 1q-6 -14 -6 -38q0 -12 2 -30q6 -60 -47 -95l-32 -23l-17 -14l-47 -9q-13 -1 -29 -7q-13 -5 -23 -5q-26 0 -81 34
q-37 -2 -62.5 -15.5t-25.5 -28.5q0 -24 51 -42t155 -19q15 0 23 1t22 1q30 0 51 -16q59 1 91.5 -10.5t47.5 -45.5t15 -101q0 -39 -2 -58q-3 -24 -19.5 -38.5t-46.5 -28.5l-14 -7q-25 -40 -115 -40q-54 0 -115.5 12t-102.5 27q-32 -1 -64 21zM108 -65q24 -28 71 -59
q40 -28 93 -28q26 0 78 10l22 3q10 7 20.5 9t26.5 2t26.5 2t18.5 10q27 30 40 50.5t13 37.5t-12.5 35.5t-40.5 44.5h1q-16 9 -34 11t-34 1.5t-22 -0.5q-38 0 -61 12l1 -1q-36 11 -74 11q-68 0 -122 -44h1q-7 -7 -22 -17l-2.5 -5t-3.5 -5l-5 -8q-3 -44 21 -72zM197.5 322.5
q15.5 -19.5 45.5 -43.5q27 -22 28 -23h-2q18 -9 39 -9q67 0 116 136q12 22 12 34q0 9 -7 25q-3 1 -4.5 0.5t-2.5 -0.5q-16 2 -21 7q-26 29 -70 29q-16 0 -44 -4l-22 -3q-40 -3 -56.5 -28.5t-27.5 -72.5q1 -28 16.5 -47.5z" />
    <glyph glyph-name="h" unicode="h" horiz-adv-x="617" 
d="M569 61q15 -5 23 -11t8 -17q0 -7 -5 -20q0 -1 -1 -2t-2 -1q-40 -17 -89 -17q-27 0 -83 8q-8 1 -23.5 3t-27.5 3q-2 0 -5 3q-5 9 -5 19q0 12 8.5 20.5t23.5 10.5q32 4 43 24t12 54q0 55 -2 165l-1 81l-10 9q-11 32 -27 45t-39 13q-21 0 -73 -16h1l-17 -6l-11 -25
q-8 -17 -11 -21t-9 -6q-11 -4 -47 -35q-2 -151 -5 -231q1 -50 38 -50q18 0 26.5 -5t8.5 -25q0 -17 -7.5 -26.5t-21.5 -8.5q-6 1 -19 1q-18 0 -42 -2q-26 -2 -43 -2q-35 0 -65 11q-3 0 -5 1q-2 0 -5 3l-1 2l-9 12q-11 20 -11 28t7.5 9.5t17 1.5h13.5q50 0 52 48q-1 23 -1 74
q0 66 1 102q1 35 1 131q0 118 -4 270q-5 1 -11.5 0.5t-9.5 -0.5l-27 1h-7q-15 0 -24 3.5t-10 18.5q-1 14 9 26t22 13l21 3q24 4 38 4q35 0 57 -26l13 -11q2 -2 2 -5q-1 -8 -1 -22q0 -23 1 -35q-1 -31 -1 -94q-3 -39 -3 -79q0 -39 2 -61q1 0 1 0.5v0.5l71 63q30 22 57 34.5
t57 12.5q7 0 23 -2q1 -1 3.5 -2t5.5 -2l3 -4q0 1 1 1q3 0 16 -13q33 -24 44 -42l3 -11v1l21 -47h-1q13 -25 13 -60q0 -25 -1 -36q-1 -8 -1 -30l1 -59v-110q0 -26 8.5 -39.5t33.5 -12.5l2 -1q1 -1 11 -3z" />
    <glyph glyph-name="i" unicode="i" horiz-adv-x="359" 
d="M26.5 53.5q12.5 9.5 31.5 9.5h103q-5 56 -5 167q0 78 3 156q-16 61 -69 61q-5 0 -17 -2l-11 -1q-18 0 -31 8t-13 25q0 35 53 33l27 1l22 1q60 0 95 -28q12 -80 12 -162q0 -47 -7 -131q-4 -52 -4 -65q0 -34 12 -48t45 -15q9 0 12 -1q2 -1 8 -1t13.5 1t14.5 1
q13 0 19.5 -5.5t6.5 -20.5q0 -19 -19 -28.5t-42 -10.5q-61 -2 -182 -2h-45q-18 -1 -31 8t-13 24q-1 16 11.5 25.5zM118.5 587q-17.5 14 -17.5 48q0 26 10 43t32 17q8 0 12 -1q34 -5 59 -24t25 -52q0 -46 -70 -44q-33 -1 -50.5 13z" />
    <glyph glyph-name="j" unicode="j" horiz-adv-x="332" 
d="M171 619q-13 15 -14 42q0 28 12 45t41 22q27 -5 46 -22.5t19 -39.5q1 -23 -18 -42t-47 -20q-26 0 -39 15zM7 -93q0 15 16 34q20 21 45 21q21 0 36 -11q22 -16 22 -37t-15 -44q6 -19 23 -19q7 0 23 4l6 1q31 18 45.5 39t19.5 55t5 98q0 55 -1 90q-2 82 -2 145
q0 79 -16 120.5t-41 55t-60 14.5h-34q-18 1 -25.5 9.5t-6.5 26.5q0 29 30 30h109q44 0 66 -1q19 -2 33 -15t12 -32q-3 -18 -3 -35l1 -27q1 -9 1 -27q0 -29 -9 -51q1 0 2 -1.5l1 -1.5q12 -158 12 -239q0 -129 -25 -235q-5 -17 -19 -28.5t-37 -22.5v1l-7 -4l-8 -5h1
q-14 -9 -21 -10q-23 -9 -42 -9q-47 0 -91 48v-1l-23 23h1q-24 18 -24 41z" />
    <glyph glyph-name="k" unicode="k" horiz-adv-x="571" 
d="M86 672q-14 -2 -20 -2q-26 0 -34 23q-2 5 -2 13q0 11 6 18.5t17 14.5q9 6 13 10q3 3 6 1q23 -10 63 -10q44 0 67 -10q7 -9 8.5 -18.5t1.5 -22.5q0 -16 2 -24v-106l-11 -298q14 -2 21.5 5.5t19.5 26.5l34 35l35 37q9 1 12.5 6t5.5 10.5t3 7.5v-1q4 17 9 23v-2q2 4 5 7v-1
q10 14 10 24l-36 21l-5 5h1q-11 9 -11 16q0 5 4 12l4 2q15 -1 43 -1q30 0 44 1l60 1q59 0 100 -5q3 0 3 -5q-1 -11 -1 -31q0 -3 -2 -5q-12 -4 -29 -4q-13 0 -20 1l-22 1q-31 0 -45 -19q-13 -12 -38 -41.5t-44.5 -62.5t-19.5 -57q0 -5 2 -11l-1 1q4 -6 8.5 -11.5t8.5 -11.5
l19 -25q1 -19 9 -34t25 -36q13 -14 24 -32q9 -14 17 -39q11 -10 30 -10l17 1q17 1 28.5 -0.5t22.5 -9.5l9 -22q1 -1 0.5 -2.5t-1.5 -2.5l-48 -28q-30 -1 -92 -1q-9 3 -25 3l-24 2l-23 3q-1 0 -3 2q-1 1 -3.5 3t-4.5 5h1q-6 5 -10.5 10t-4.5 10q0 9 23 18q14 1 20 6.5t6 16.5
q0 3 -2 15q-9 38 -43 88q-24 38 -30 48q-4 7 -10 7q-5 0 -15 -6l-15 -10l-21 -32l-34 -50q6 -29 12 -47.5t19 -34.5q2 -1 7 -1l9 -1q4 0 5 -3q5 -13 5 -21q0 -13 -10 -18.5t-30 -5.5h-64q-15 0 -23 -1t-23 -1q-48 0 -45 57q0 5 5 5q43 -3 59 16t14 64v481q1 30 -11 42t-41 9
z" />
    <glyph glyph-name="l" unicode="l" horiz-adv-x="422" 
d="M402.5 44.5q6.5 -10.5 6.5 -23.5q0 -21 -16 -37q-1 -1 -4 -1h-57q-3 0 -5 4q-6 16 -14 16q-15 0 -47 2q-34 2 -56 2q-47 0 -80 -11l1 1q-15 -11 -47 -11q-6 0 -22 -2q-22 13 -32 22.5t-10 19.5q0 19 54 50l22 -1q34 0 47 -2q28 -3 40.5 8t12.5 37l-1 99q0 87 -2.5 135.5
t-13.5 54.5q-2 2 -2.5 4.5t1.5 3.5l11 7q4 3 5.5 5t1.5 6q0 9 1 13q0 182 -7 212q-1 3 -2 6.5t-2 8.5q-23 5 -40 5q-22 0 -47 -6q-10 -5 -19 -5q-13 0 -25 9l1 -1q-1 0 -4 3q-3 7 -7 11q-12 16 -12 27q0 3 2 11q2 3 5 3l10 2l12 2q21 12 43 12q27 0 52 -15q21 0 31 1
q14 10 30 10q19 0 34 -18v-6l1 -4q13 -19 13 -47q0 -11 -2 -29q-2 -10 -2 -17q0 -16 1 -25q0 -3 2 -9v-84q-2 -74 -2 -224v-53q1 -1 1 -4v-71q-20 -20 -20 -36q0 -21 42 -39l44 -1h47l4 -2q15 -18 21.5 -28.5z" />
    <glyph glyph-name="m" unicode="m" horiz-adv-x="637" 
d="M606 38q0 -23 -31 -39q-6 1 -20 1h-45l-36 15l-25 11q-4 2 -3 6v2q-1 2 -0.5 4.5t2.5 3.5q35 20 49 95t14 170q0 45 -2.5 85t-4.5 51q-25 10 -35 10q-21 0 -39 -29q-15 -22 -23 -45.5t-17 -63.5q-2 -7 -7 -26t-10.5 -35t-13.5 -30l1 1q-3 -18 -3 -32q0 -88 84 -151
q2 -2 2 -5q-4 -20 -17.5 -28t-34.5 -8q-14 1 -25 0.5t-18 -0.5h-20l-41 -1q-33 -3 -42.5 13.5t-7.5 47.5l2 4q12 6 18 8v-1l7 3l18 8q11 5 19 85.5t8 152.5q0 38 -4 52q-14 54 -22 75t-23 21q-13 0 -30 -16l-13 -5l1 1q-2 -1 -3 -2t-4 -2v-3q0 -12 -7 -23l-2 -4
q-5 -10 -17.5 -49.5t-22.5 -90.5t-10 -96q0 -72 28 -107q1 0 3.5 -2.5l5.5 -5.5h-1l6.5 -6.5t7 -8.5t2.5 -9q0 -6 -6 -17q-15 -23 -38 -23q-4 0 -16 2h-3q-7 0 -10 -1q-4 -2 -9 -2l-26 5q-11 1 -26 5q-38 10 -38 31q0 16 22 37q7 0 8 1q29 13 29 40q0 14 -14 46q8 35 10 70
t2 89q0 26 1 39l1 41q0 24 -10 39.5t-32 25.5q-5 10 -5 21t5.5 19.5t17.5 20.5l7 9q33 2 54 -15q7 -17 13 -31l7 -17q26 -3 49 14q42 34 73 34t77 -37l8 -9l6.5 -6.5t11.5 -5.5t15 9l24 12q6 1 8.5 4.5t3.5 7.5q2 13 10 18l-1 3l2 4q25 15 48 15q12 0 27 -5l33 -24l34 -24
q3 -7 3 -35q0 -20 -4 -94q-5 -78 -5 -148q0 -112 22 -130l2 -2q11 -24 11 -38z" />
    <glyph glyph-name="n" unicode="n" horiz-adv-x="623" 
d="M59 17q-16 18 -16 32t14 32q5 4 27 6q20 2 27 12l24 32v1q1 1 3 1q1 0 3.5 1t3.5 2q10 30 10 51q0 30 -32 53l-3 1l-2 1q-6 0 -8 2q-1 1 -1 4l-1 11v13q0 3 1 4h0.5t0.5 -1l4 10h-1q5 12 10 17v-1q10 10 9 18l-1 52v52q-1 5 -5 7t-8 2.5t-5 0.5q-17 2 -23 11l-11 10
l-15 13q-1 1 -1 4l2 28q0 7 1 14.5t1 13.5q0 5 5 5h4q10 0 28 4q16 4 29 4q28 0 45 -27q13 -12 17.5 -27t5.5 -37q0 -15 3 -30q9 16 20.5 29t22.5 23l17.5 17.5t23.5 28.5l4 2l3 2l5 4q28 14 64 14q20 0 52 -4l26 -3q21 -5 34.5 -17t33.5 -35l7 -10q2 -11 11 -32
q13 -31 11 -50q0 -2 -1 -3.5t-1 -3.5q-1 -2 -2.5 -7.5t-4.5 -9t-7 -4.5q18 -85 17 -123q-2 -20 -2 -29q-1 -10 -1 -28q0 -5 -5 -5l1 -2q0 -1 -2 -11q-9 -40 -21 -56q24 -17 34 -16q24 1 36.5 -8t16.5 -31q0 -3 -1 -4l-18 -25q-9 -15 -16 -19.5t-26 -4.5l-47 2l-76 4
q-26 0 -40 1q-11 8 -13.5 18.5t-1.5 24.5q1 3 1 13q0 6 -1 8q-1 4 1.5 5.5t5.5 -0.5l10 -5q47 21 67.5 77t20.5 123q0 48 -6.5 86.5t-13.5 40.5q-4 0 -4 4q-7 39 -44 64q-13 -6 -55 -24.5t-79 -31.5q-11 -19 -22 -35q-28 -33 -36 -68l-3 -186l5 -9q6 -12 12 -13
q23 -7 34 -19t12 -30q-1 -7 -1.5 -16.5t-1.5 -15.5q0 -2 -1 -3.5t-3 -1.5q-36 -4 -128 -9l-23 -1l-30 -2l-4 3z" />
    <glyph glyph-name="o" unicode="o" horiz-adv-x="456" 
d="M26 279q0 41 14 83q4 5 4 10t-7 19l-2 4q0 1 3 4q8 4 8 13q0 3 -2 11l-1 6q14 15 35 31q21 17 33.5 31t16.5 34q0 1 1.5 2t3.5 1q23 2 47.5 6.5t32.5 6.5q6 1 25.5 5t39.5 4q22 0 47.5 -20t46 -45t28.5 -40l4 -11q27 -81 27 -150q0 -48 -10 -85q-48 -97 -95.5 -151
t-103.5 -54q-49 0 -107 49l-35 48l-36 50v23l-1 23l-4 9v-1q-13 46 -13 84zM94 289q0 -60 24 -114t65 -78q11 -7 30 -9q53 0 84.5 24t45.5 75l3 10v-1q5 16 9 25t12 18l-1 11q-1 10 -1 33q0 82 -23.5 132.5t-95.5 68.5q-11 7 -24 7q-11 0 -22 -4q-25 -11 -40 -29t-30 -47
l-13 -23q-23 -43 -23 -99z" />
    <glyph glyph-name="p" unicode="p" horiz-adv-x="561" 
d="M70 470q-19 0 -31.5 12t-12.5 35q0 18 10 22.5t29 4.5h10q19 1 64 1q35 -1 49.5 -5t22 -17t16.5 -45q1 1 31 28q24 22 40 32t37 10q11 0 23 -3q18 6 38 6q25 0 47 -12.5t37 -32.5q63 -94 63 -206q0 -79 -30 -163q-18 -52 -55 -80t-84 -28q-26 0 -57.5 11.5t-58.5 30.5
q-17 9 -30.5 -21t-13.5 -71q0 -48 18 -81t55 -28q17 2 30 -11t12 -33q-2 -13 -11 -16.5t-24 -3.5h-194q-21 0 -35 8t-14 25q-1 18 14 26.5t34 6.5q4 -1 12 -1q25 0 34.5 17t10.5 47q-1 120 -1 407v132q-16 3 -30 3q-15 0 -38 -5q-12 -2 -17 -2zM218 288q0 -24 4 -53t5 -38
q4 -27 23.5 -52.5t45 -41.5t45.5 -16q32 0 61.5 25.5t46.5 65.5q26 65 26 127q0 26 -5 56q-9 58 -39 98t-70 40q-16 0 -31 -7v1q-62 -30 -94 -110q-18 -43 -18 -95z" />
    <glyph glyph-name="q" unicode="q" horiz-adv-x="526" 
d="M121 34q-14 8 -24 22q-13 7 -19 18.5t-10 29.5q-54 93 -54 171q0 54 23 105t69 105q55 61 110 61q47 0 101 -45q15 -13 22 -13q9 0 17 21q12 28 27 28q13 0 26 -17q9 -11 11 -24t1 -30l-1 -15v-288q0 -18 -5 -53q-6 -50 -5 -59q11 -15 11 -34q0 -20 -6 -38l-6 -23
q7 -8 9 -17.5t2 -22.5v-4q-2 -31 8 -46.5t40 -14.5q14 -1 26.5 -11t10.5 -23q-1 -11 -9.5 -13.5t-24.5 -2.5h-5q-12 -1 -60 2q-36 2 -51 2q-49 0 -83 -17q-3 -2 -10 -2q-12 0 -22 10.5t-10 23.5q0 10 8.5 18t19.5 11t34 3l14 1q10 0 15 2q16 6 24.5 19t8.5 28q0 8 -3 17
q-3 10 -3 22q0 18 5 36q1 6 3 17.5t2 18.5q0 33 -34 49q-22 -26 -49.5 -40t-56.5 -14q-22 0 -51 8q-4 0 -6 1q-3 0 -6 3v-1q-20 7 -34 15zM129 416q-48 -86 -48 -159q0 -64 34 -112l4 -9l9 -7q24 -17 37 -42q24 -10 39 -10t48 11q29 13 47 36t35 57l6 13q15 26 15 69
q0 13 -2 39q0 5 -1.5 16t-1.5 19l1 11q-35 30 -36 70q-20 15 -29 23q-25 19 -37.5 26.5t-28.5 7.5q-17 0 -38 -11l-5 -2l4 1q-3 -3 -7 -3l-25 -15h1l-10 -6l2 2q4 14 -13 -25z" />
    <glyph glyph-name="r" unicode="r" horiz-adv-x="518" 
d="M39 8.5q-9 8.5 -9 24.5t9 24.5t25 8.5l21 1h20q17 -2 24.5 3t10 20.5t2.5 53.5v47l-1 69q0 28 2 112v24q0 26 -8 38.5t-31 12.5q-27 0 -42.5 4.5t-15.5 24.5q0 19 13.5 26.5t37.5 11.5q5 1 14 1q15 0 28.5 -4.5t32.5 -12.5l22 -9q15 -7 15 -22q0 -14 -11 -34
q-11 -17 -2 -22q4 -3 9 -3q7 0 20 9q64 97 152 97q20 0 30 -2q34 -1 58.5 -15t30.5 -46q11 -17 11 -31q0 -23 -28 -36l1 1q-3 -2 -9 -12q-5 -8 -10.5 -14t-11.5 -6q-10 0 -24 15v-1l-5 3h1q-15 10 -23 19t-9 24l7 13l6 10l-3 3l-9 16q-10 6 -21 6q-18 0 -41 -19l8.5 4.5
t-38.5 -23.5l-20 -17l-9 -8q-33 -23 -44 -69q-17 -74 -25.5 -125t-6.5 -101q1 -18 11.5 -26.5t29.5 -8.5h8q13 0 22.5 -2.5t16.5 -9.5q18 -16 18 -34q-3 -11 -11.5 -16.5t-18.5 -5.5h-205q-16 0 -25 8.5z" />
    <glyph glyph-name="s" unicode="s" horiz-adv-x="450" 
d="M96 166q8 -13 23 -14q93 -81 149 -81q43 0 62 50q16 17 16 40q0 9 -1 14q3 37 -26.5 51.5t-84.5 21.5q-37 3 -61.5 9t-38.5 19q-8 3 -14.5 6.5t-11.5 5.5l-30 15q-24 21 -35.5 39t-11.5 37q0 27 21 66q-3 19 6.5 29.5t27.5 12.5q4 17 20.5 36t30.5 19q29 0 43 1
q11 1 37 1q45 0 75 -13l19 -8q12 -6 17 -6q10 0 17 11q16 10 30 10q21 0 24 -34q1 -15 8 -32l6 -16v1q2 -5 2 -15q0 -18 -14 -42q-4 -8 -6 -14q-9 -23 -20 -23q-10 0 -23 23l-6 10v-2l-24 25q-1 1 -1 4q0 4 -1 5q-20 19 -73 30q-32 6 -49 12q-26 7 -32 7q-20 0 -35 -12.5
t-21 -33.5q-8 -12 -10 -24t-2 -30l45 -46q11 -5 91 -19.5t93 -15.5q4 0 10 -8q1 -2 12 -14t24 -13q43 -29 43 -85q0 -37 -14 -84l-8 -15q-7 -12 -15 -34q-37 -37 -92 -37q-28 0 -58 8q-12 0 -22 5h1l-30 9q-29 7 -46.5 13.5t-33.5 21.5q-12 -19 -28 -19q-12 0 -29 11
q-13 21 -13 51q0 11 2 31q2 14 2 24q1 16 11.5 27.5t27.5 13.5q25 2 25 -36z" />
    <glyph glyph-name="t" unicode="t" horiz-adv-x="464" 
d="M18 482q0 7 1 11q7 27 27 33.5t52 5.5h8q9 12 15.5 14t14.5 1q2 -1 2.5 19.5t1.5 76.5l1 8q1 4 2 9.5t1 12.5q12 39 39 39q18 0 22.5 -9.5t3.5 -25.5v-39l-1 -17l-1 -24v-22q2 -18 19 -38l4 -4q60 -2 89 -4q22 -2 36 -12t13 -31q-2 -15 -11.5 -18.5t-26.5 -2.5h-11
q-14 -1 -52 -1h-14l-8 -8v1q-13 -14 -17.5 -16.5t-16.5 -2.5h-2v-139q0 -68 4.5 -109.5t15.5 -68.5q10 -18 37 -37t46 -19q8 0 12 3h-1q1 1 1.5 0.5t1.5 0.5q19 11 29 21.5t10 25.5q0 4 -2 12q-1 1 0 3t3 3t9 1q9 11 10.5 23t0.5 32v22q3 45 33 45q12 0 27 -7l3 -3
q4 -26 4 -40q0 -26 -12 -47q-15 -25 -15 -49q0 -8 1 -12t1 -11q0 -26 -24.5 -46.5t-62 -31.5t-72.5 -11t-59 14q-43 44 -55 63.5t-12 52.5l1 113q0 97 -1 146l1 13q1 15 -1 25.5t-13 19.5q-7 18 -18 18q-12 0 -23 -11h1l-11 -11l-5 -2q-56 8 -56 42z" />
    <glyph glyph-name="u" unicode="u" horiz-adv-x="536" 
d="M507.5 36.5q5.5 -5.5 2.5 -18.5t-11 -16t-23 -3h-6l-13 1l-13 -1l-20 -1q-26 0 -39 12.5t-12 49.5q0 10 -10 10q-7 0 -14 -5l-22 -26l-10 -10q-57 -31 -120 -31q-38 0 -73 6q-7 0 -15 3l-4 4h1q-4 2 -5 5q-46 42 -44 119q2 43 2 146v176l-10 11h1q-7 6 -10.5 10.5
t-3.5 11.5q0 9 5 16q11 19 25.5 24t39.5 6h7l4 -2q14 -15 14 -39q0 -8 -2 -24q-2 -12 -2 -22v-133q0 -126 -2 -179q1 -21 20 -46q18 -24 19 -44q70 -2 115 37.5t64.5 101t19.5 129.5q0 63 -15 109t-38 50q-26 5 -36.5 12t-10.5 17q0 9 8.5 19t26.5 25q26 -2 42 -2
q55 -1 77 -57t22 -142q0 -76 -15 -181l-1 -9q-1 -5 -1 -14q0 -31 15.5 -55.5t45.5 -37.5l6 -2q13 -5 18.5 -10.5z" />
    <glyph glyph-name="v" unicode="v" horiz-adv-x="509" 
d="M14 504q0 11 8 24q30 13 99 11q4 0 19.5 -0.5t19.5 0.5q23 0 38.5 -11t15.5 -34q0 -13 -7.5 -17t-21.5 -4q-12 0 -17 -1q-20 -3 -20 -26q0 -17 8.5 -42.5t25.5 -68.5q20 -51 31.5 -88t14.5 -71l1 -9q1 -13 4 -19t15 -7q15 -1 27.5 8t13.5 22q-1 42 11.5 89t35.5 111
l19 50q1 3 1 8q0 10 -7 17t-20 14h1q-13 6 -21 17.5t-8 24.5q0 10 4 18q11 22 36 22q15 0 27 -7q14 -6 26 -6q8 0 35 5q16 4 29 4q36 0 36 -44q0 -14 -7.5 -22t-20.5 -8q-8 0 -21 5q-2 1 -7 1q-8 0 -9 -7q-17 -78 -37.5 -143t-36 -102.5t-19.5 -46.5q3 -22 3 -36
q0 -11 -3.5 -21.5t-13.5 -31.5q-1 -4 -14 -31l-21 -45q0 -1 -1 -2t-2 -1q-15 -6 -26 -6q-15 0 -24.5 11t-21.5 37q-36 74 -61 172l-20 66v-1q-1 2 -2.5 16.5t-2.5 21.5q-6 62 -12.5 96.5t-18.5 35.5l-4 2q-6 9 -14 12.5t-16 5.5t-11 3q-18 4 -29 10l-2 1q-5 8 -5 18z" />
    <glyph glyph-name="w" unicode="w" horiz-adv-x="599" 
d="M470 544.5q31 9.5 57 9.5q25 0 33 -11q8 -13 8 -19q0 -15 -23 -23q-14 -5 -16 -8q-3 -4 -22 -129l-6 -45q-7 -50 -10 -57v-58q-19 -27 -26 -57.5t-11 -74.5q-3 -32 -14 -51t-36 -30q-4 0 -5 1q-24 16 -32 38t-13 59q-1 10 -5 30l-12 50q-20 71 -20 124q0 19 3 38
q-8 23 -17 23q-5 0 -10 -7l-12 -14q3 -19 3 -38q0 -34 -15 -103l-6 -34q-4 -20 -5 -29q-7 -52 -12.5 -77.5t-17.5 -40.5t-34 -15q-15 0 -22 5.5t-10.5 18.5t-8.5 46q-19 120 -54 243v-1q-5 15 -11 59q-1 9 -6 40.5t-12 44.5v-2l-4 5q-15 17 -18 19q-29 22 -29 40
q0 11 13.5 17t35.5 6q29 0 67 -9l6 1q4 1 11 1q17 0 22 -10t-2 -18.5t-18 -14.5l-6 -2h2q-22 -9 -19 -18q11 -35 22 -117q7 -54 14.5 -91t21.5 -66q6 -11 13 -11q5 0 8 3.5t4 8.5q2 24 16 91q22 96 22 146q0 29 -6 53q-12 12 -12 25t15 17q28 7 50 7q24 0 49 -9
q7 -3 12.5 -10.5t5.5 -13.5q0 -7 -8 -13q-11 -7 -16 -14.5t-5 -17.5q0 -16 14 -50q14 -38 14 -56q0 -8 -3 -16q0 -14 3.5 -26.5t8.5 -25t7 -18.5q10 -24 15 -42.5t4 -39.5q-1 -2 13 -10q2 0 5 2.5t3 4.5q2 30 14 109q6 38 10.5 79t4.5 73q0 41 -6 65q-1 1 -2.5 2t-2.5 2
l-10 9v7q10 11 41 20.5z" />
    <glyph glyph-name="x" unicode="x" horiz-adv-x="553" 
d="M317 32q0 7 5 9.5t16 4.5t12 3q10 10 10 21q0 10 -11 30v-2l-3 5h2q-13 7 -20 18.5t-13 27.5l-9 24q-12 21 -24 21q-11 0 -20 -14q-15 -21 -54 -83l-6 -9v1q-6 -12 -6 -17q0 -12 16 -25h4q8 -3 12 -6t4 -9q0 -7 -5 -15q-6 -10 -15 -14t-24 -5q-13 -1 -22.5 -0.5
t-16.5 0.5l-22 1q-23 0 -45 -7l-7 -1q-4 0 -5 1q-4 4 -13 6q-13 2 -19.5 6.5t-6.5 17.5q0 28 42 34q30 7 68 47t65 89t27 78q0 13 -5 19q-11 18 -28 57q-15 38 -24 50q-1 1 -1 5t-1 6q-4 14 -16 19l-15 9l-27 19q-3 9 -10 12t-19 5q-21 4 -30.5 11.5t-8.5 30.5q0 5 6 5
q13 -2 28.5 4t19.5 7q4 2 15.5 6.5t24.5 5.5q1 0 4 -3q8 -13 18.5 -15.5t30.5 -1.5h-1q5 1 16 1q8 0 12 -1q3 -1 8 -1q12 0 19.5 -3t10.5 -14q1 -3 1 -9q0 -11 -7.5 -15t-22.5 -6q-17 -1 -17 -16q0 -8 4 -16l11 -22q6 -11 14 -22q11 -15 23 -23.5t22 -8.5q17 0 38 24
q-1 12 2.5 21t8.5 17t7 12l1 2q10 23 10 30q-6 21 -6 33q0 13 8 15.5t35 1.5q9 -1 21 2l16 4h-1q24 8 39 8q30 0 52 -31q3 -3 -1 -7q-24 -15 -43 -22q-32 -14 -50 -24.5t-29 -30.5q-1 -10 -25.5 -63t-26.5 -55q-25 -26 -25 -45q0 -11 7 -24.5t23 -36.5q3 -5 19.5 -27.5
t33.5 -58.5q18 -34 38.5 -51t54.5 -14q12 1 22 -2.5t9 -16.5q-3 -22 -29 -26q-9 -1 -30 -1q-11 0 -22.5 -1t-21.5 -6l-21 2q-11 2 -33 4h-7q-19 1 -29 4.5t-14 18.5q-2 8 -2 11zM344 439l-1 -2z" />
    <glyph glyph-name="y" unicode="y" horiz-adv-x="558" 
d="M264 14q0 44 -11 84q-21 31 -35 63t-37 93q-28 85 -48 119l-2 5q-5 9 -13 12q-2 1 -2 5q0 2 -1 3.5t-2 3.5l-1 4q2 10 -3.5 17t-17.5 13q-6 6 -21 10q-15 3 -23.5 9t-8.5 19q0 20 13.5 39t30.5 13q18 -7 36.5 -9.5t43.5 -2.5q23 0 44 -3q14 -2 22 -8t8 -15q0 -10 -11 -21
q-23 -23 -23 -50q0 -11 3.5 -26.5t8.5 -30.5q14 -44 33 -90q24 -56 34 -92q4 -15 10 -25t11 -10q17 0 34.5 43t29.5 103t12 106q0 53 -16 60q-23 9 -26 42q0 4 2 6q32 12 74 12q16 0 44 -2q34 -2 50 -2q18 1 31 -10.5t13 -29.5q1 -17 -9.5 -21t-31.5 -4q-29 0 -39 -20h1
l-11 -28q-13 -35 -29 -76l-29 -73l-11 -55q-1 -25 -7 -47.5t-17 -51.5q-3 -7 -8.5 -16.5t-7.5 -15.5q-23 -76 -51.5 -151.5t-61.5 -98.5q-12 -11 -36.5 -17.5t-50.5 -6.5q-50 0 -85 10q-1 0 -2.5 1t-1.5 2q-3 8 -5.5 13.5t-3.5 7.5v-1q-15 24 -15 40t14 33q19 22 43 22
q18 0 35 -11q12 -9 15.5 -20t4.5 -28q2 -22 7 -31q7 -4 14 -4q8 0 14.5 4.5t16.5 14.5q12 12 24 18q1 16 7.5 30.5t18.5 33.5l1 3v-2q11 47 11 89z" />
    <glyph glyph-name="z" unicode="z" horiz-adv-x="476" 
d="M425.5 7.5q-14.5 -11.5 -45.5 -9.5q-24 2 -72 2l-36 1q-13 -2 -41 -2q-33 2 -53 -7h-21q-2 0 -5 3l-2 6l-15 -1q-24 -2 -39 -2q-9 0 -14 -1q-12 -2 -17 -2q-20 0 -28 24v-1q-4 11 -4 24q0 35 36 49q0 4 25.5 52t70.5 108t106 109q12 23 36 36q14 26 20.5 40.5t6.5 22.5
t-15 10t-58 1q-15 0 -45 -2l-20 -1l-1 -2h-2q-26 -20 -40 -40.5t-11 -47.5q3 -21 3 -22q0 -19 -16 -30q-7 -4 -14 -4q-9 0 -23 12q-10 10 -15 11q-4 2 -4 6q3 17 3 35l-1 30q-1 8 -1 28q0 42 16 70h-1l5 18q2 3 5 3q184 2 272 2q37 -1 52.5 -11t15.5 -35q0 -13 -7 -41
l-120 -127q-6 -18 -20 -41t-28 -32q-5 -18 -15 -32t-29 -35q-26 -30 -36 -51l-20 -18l-17 -16q-12 -35 -19 -50q19 1 46 6q7 1 23.5 4t32.5 3q23 0 45 -7q3 -1 18.5 -6t29.5 -5q24 0 40 15l-1 -2q15 26 23 49t8 48q0 12 -1 18l-1 9q0 15 8 23.5t24 8.5q8 0 12 -1q2 0 3 -1.5
t1 -3.5v-97l1 -59q0 -30 -14.5 -41.5z" />
    <glyph glyph-name="braceleft" unicode="{" horiz-adv-x="181" 
d="M133 815q20 0 20 -15q0 -11 -11 -26l-14 -13l-1 -20l-5 -18v-18l-8 -18v-19l6 -18l-4 -19l3 -18l5 -18l1 -96q0 -31 -3 -50t-11 -31l1 -19q-9 -11 -11.5 -15t-8.5 -22l-12 -18l12 -14l6 -16l15 -12l1 -19l3 -17l7 -17l5 -17q-3 -10 -3 -30q0 -21 1 -33l1 -40
q0 -34 -5 -55q0 -11 -1.5 -34.5t-2.5 -35.5l-7 -18l2 -18l1 -18l11 -16q1 -2 12.5 -34.5t13.5 -48.5l-13 -12l-18 4q0 -2 -9 10t-40 65q2 8 2 16q0 16 -4 39t-7 35q0 67 12 89v36q-1 22 -1 36l3 18q-3 15 -3 17t7 19l-7 17l5 19l-13 15q-7 14 -11.5 18t-22.5 19q-8 9 -8 19
q0 6 4.5 12.5t10.5 12.5q11 11 17.5 23t7.5 29l5 17l10 17q-5 22 -5 100q0 88 -11 131l2 17l2 18l9 17l2 17l7 16l6 16l3 18l8 17q17 7 31 7z" />
    <glyph glyph-name="bar" unicode="|" horiz-adv-x="169" 
d="M134 18q0 -26 -38 -26q-31 0 -50.5 22.5t-19.5 54.5q0 12 3 24q20 88 20 287q0 163 -11 256q-1 15 5.5 28.5t18.5 29.5q2 1 11 2.5t14 2.5l24 5q0 -22 24 -32v-93q-19 -10 -19 -27q0 -9 8 -22q11 -48 11 -170q0 -66 -3 -135.5t-6 -109.5q0 -8 -4 -22q-1 -5 -2 -11t-1 -14
q0 -16 9 -30q6 -9 6 -20z" />
    <glyph glyph-name="braceright" unicode="}" horiz-adv-x="181" 
d="M87 791l3 -18l6 -16l7 -16l2 -17l9 -17l2 -18l2 -17q-7 -26 -9 -57t-2 -78q0 -75 -5 -96l10 -17l5 -17q1 -17 7.5 -29t17.5 -23q6 -6 10.5 -12.5t4.5 -12.5q0 -10 -8 -19l-21 -18q-6 -4 -7.5 -7t-5.5 -12l-13 -15l5 -19l-7 -17q7 -17 7 -19t-3 -17l3 -18q0 -14 -1 -36
v-36q12 -22 12 -89q-3 -12 -7 -35t-4 -39q0 -8 2 -16q-31 -52 -40 -64.5t-9 -10.5l-18 -4l-13 12q2 16 13.5 48.5t12.5 34.5l11 16l1 18l2 18l-7 18q-1 12 -2.5 35.5t-1.5 34.5q-5 21 -5 55l1 41q1 12 1 33q0 19 -3 29l5 17l7 17l3 17l1 19l15 12l6 16l12 14l-12 18
q-6 18 -8.5 22t-11.5 15l1 19q-8 12 -11 31t-3 50l1 96l5 18l3 18l-4 19l6 18v19l-8 18v18l-5 18l-1 20l-14 13q-11 15 -11 26q0 15 20 15q14 0 31 -7z" />
    <glyph glyph-name="asciitilde" unicode="~" horiz-adv-x="530" 
d="M63 430l79 14q9 -1 34.5 -5.5t28.5 -6.5q1 -1 15 -6t21 -16q4 -7 9 -14.5t6 -11.5q0 -4 14.5 -15t18.5 -11q3 0 11.5 1t22.5 1q11 0 13 -2q1 -2 4 -2q14 0 24 3t22 8t21 9q8 3 28 17q10 7 22 7t21 -6.5t13 -18.5q1 -2 1 -5v-38q0 -2 3.5 -2t3.5 -1t-17 -13
q-16 -11 -19.5 -15.5t-4.5 -5t-7 -0.5h-83q-12 0 -40 9t-37 12l-34 12l-48 37v14q-4 4 -14.5 15t-13.5 7q-2 -2 -11 -3t-12 -1q-26 -2 -30 -6q-6 -5 -24 -10q-10 -3 -18.5 -7t-7.5 -7v-2q0 -4 -3 -8t-4 -5q0 1 -2 5t-6 4q-5 0 -10 -5q-12 -11 -16 -13t-11 -1t-9 13.5
t-2 20.5z" />
    <glyph glyph-name="uni007F" 
 />
    <glyph glyph-name="exclamdown" unicode="&#xa1;" horiz-adv-x="162" 
d="M66 -7q-35 0 -35 40q0 9 1 14l-1 20q-2 26 -2 40q0 27 5 46q7 9 9 47.5t4 132.5l3 116q1 18 6 27t22 8q23 0 42 -10t18 -25q-1 -8 -5 -24l-4 -20t-3 -27q0 -20 8 -33q-3 -45 -3 -154q0 -21 -1 -76t-3 -78l-15 -16q-20 -24 -33 -27q-5 -1 -13 -1zM22 671l4 17l11 9
q6 1 14.5 4t14.5 3l15 1q23 0 37 -10t16 -36q1 -25 -14 -37.5t-42 -12.5q-60 0 -56 62z" />
    <glyph glyph-name="cent" unicode="&#xa2;" horiz-adv-x="520" 
d="M353 -56q0 -26 -38 -26q-31 0 -50.5 22.5t-19.5 54.5q0 12 3 24v1q-50 3 -88 43.5t-59 102t-21 126.5q0 76 29 135.5t86 81.5q27 25 64 28l-2 25q-1 15 5.5 28.5t18.5 29.5q2 1 11 2.5t14 2.5l24 5q0 -22 24 -32v-67q12 -2 20 -2q9 0 25 -4q22 -6 33 -5l48 -57
q-2 -6 -2 -19l1 -35q0 -24 -11 -40q-39 -18 -58 -18q-14 0 -20 10.5t-6 33.5q0 13 1 21q13 24 13 38q0 11 -9 14q-8 2 -29 13q-14 8 -21 11q-4 -5 -4 -14t8 -22q11 -47 11 -168q0 -120 -7 -215q43 22 66.5 47t23.5 68q0 18 10.5 29t27.5 12q20 0 20 -21l-1 -20
q3 -64 -34 -100.5t-92 -65.5q-5 -3 -15.5 -8.5t-13.5 -9.5q-1 -3 -1 -10q0 -16 9 -30q6 -9 6 -20zM211.5 86.5q19.5 -17.5 43.5 -24.5q13 92 13 238q0 91 -5 179q-20 -7 -66 -18q-64 -91 -64 -188q0 -12 2 -36l10 -12l36 -95q11 -26 30.5 -43.5z" />
    <glyph glyph-name="sterling" unicode="&#xa3;" horiz-adv-x="596" 
d="M569 88q0 -14 -2 -19t-9 -13q-19 -23 -22 -27l-1 -1q-45 -39 -77 -39h-5l-18 21l-1 1q-3 0 -18 5t-17 5h-1l-36 18q-34 17 -71 17q-40 0 -77 -20q-32 -18 -38 -18q-14 -4 -21 -8.5t-15 -12.5t-14 -12q-8 -7 -20 -7q-11 0 -22 5.5t-19 15.5l-1 1q-7 10 -7 20q0 9 8 19
l14 15v-2q16 14 36 14h8q4 -1 10 -1q24 0 33 26q5 17 5 65l7 149h-6q-13 0 -15.5 -5t-25.5 -8q-10 -2 -20 -3t-19 -2h-6q-14 0 -27.5 6.5t-28.5 18.5l-1 1l-13 27h8q18 0 27 21l2 3h99l1 -3q16 2 25 4q0 35 -19 90q-10 32 -14.5 50.5t-3.5 38.5l-2 25l-2 7h3q-3 41 9.5 69
t32.5 44q21 18 43 24q9 28 69 38q39 7 91 7h17q46 -15 95 -72q19 -22 29 -37.5t11 -16.5q10 -19 10 -37q0 -19 -11 -30h-1l-1 -1l-13 -6q-10 -5 -18 -5q-9 0 -16.5 10t-16.5 34l-3 7q-11 24 -35.5 44t-48 33t-26.5 13q-14 7 -30 7q-27 0 -50 -19q-29 -25 -54 -71l-18 -38
l48 -202h5q45 0 102 -6q9 6 20 6q15 0 23 -11.5t8 -30.5q0 -20 -10 -31q-10 -13 -17 -20t-17 -7q-8 0 -17 9q-5 5 -18 5h-14q-10 0 -15 1l-46 10l1 -12v-3q0 -5 -3.5 4.5t-6.5 9.5q-4 0 -7 -17q-3 -20 -7 -67l-4 -48q-1 -3 -1 -8q-1 -2 -1 -3v-2l2 -2l13 -14q7 -1 7 -11v-1
q28 16 48 16q15 0 24 -7t18 -19q11 -15 19 -17q12 -3 26 -3q10 0 30 -8t30 -8q7 0 10 1q2 0 8 2q10 10 23 12q5 0 7.5 3t2.5 14q0 21 -5 54l-4 35q0 2 -1 3v4l-1 12q0 28 22 37q5 2 13 2q17 0 30 -13t13 -28q-1 -25 3 -66q3 -28 3 -60zM124 350h-5h5z" />
    <glyph glyph-name="currency" unicode="&#xa4;" horiz-adv-x="531" 
d="M459 114.5q-2 -0.5 -6 -0.5h-4q-7 0 -14 6t-12 8q-8 3 -14 10t-7 10l-12 16l-14 26l-8 8q-46 -58 -96 -58q-38 0 -85 39l-9 12l-61 -69l-40 -40l-38 40l20 52l30 32q3 2 11.5 8t14.5 8q9 4 17 8t11 5l2 2l-15 21v18l-1 19l-3 7v-1q-11 35 -11 67q0 34 12 67q3 5 3 8
q0 5 -6 15l-1 3q0 1 2 3q6 2 6 10l-1 9l-1 5l14 13q-11 4 -17 13q-6 10 -23 16.5t-19 9.5q-4 5 -17.5 7.5t-20.5 4.5q-6 1 -6 10q0 5 3 17.5t3 16.5q0 6 3.5 8.5t7.5 2t5 -0.5l33 28l35 -28l54 -68q10 14 13 27q0 2 4 2q16 1 35.5 5t28.5 6q6 1 21 4t30 3q32 0 72 -48
q13 10 19 19q8 11 25 27t23 21l18 18l26 -24q2 -4 5.5 -14t4.5 -16q-2 -8 -6 -21t-6 -19l1 -1t1 -3q0 -5 -10 -10q-9 -4 -15 -8t-15 -8q-18 -8 -37 -20q17 -53 17 -106q0 -40 -8 -68q-14 -30 -36 -67l23 -9q4 -3 15 -10t20 -12q8 -4 18.5 -12.5t10.5 -13.5v-42q0 -8 -20 -23
q2 0 1 -0.5t-2 -0.5l1 1q-1 0 -3 -0.5zM332.5 234.5q25.5 19.5 36.5 60.5l2 8v-1q7 23 17 34l-1 9v26q0 66 -19.5 106.5t-76.5 54.5q-9 6 -20 6q-7 0 -16 -3q-20 -9 -32.5 -24t-23.5 -37l-11 -19q-18 -33 -18 -79q0 -48 19 -91t52 -62q9 -6 24 -8q42 0 67.5 19.5z" />
    <glyph glyph-name="yen" unicode="&#xa5;" horiz-adv-x="591" 
d="M504 190q0 -13 -30 -40q-94 -2 -139 -2l1 -63q0 -4 2 -18h23q10 0 24.5 0.5t33.5 -0.5h5q15 0 23 -2.5t12 -14.5l2 -8q0 -9 -5 -15t-16 -16q-13 -13 -20 -17.5t-14 -4.5q-4 0 -21.5 5t-54.5 4h-34q-75 0 -103.5 2t-41 11.5t-13.5 33.5l2 4q14 13 30 16t31.5 2.5
t20.5 -0.5q30 0 43 9v71q-45 -1 -135 -1l-7 1q-1 7 -5 10.5t-12 7.5q-6 3 -11 7.5t-5 10.5q0 5 3 12q68 12 172 12v40q-45 -1 -134 -1l-3 1h-4q0 10 -17 16q-9 4 -13 7.5t-4 10.5q0 5 4 13v1q68 12 171 12v30q0 8 6.5 14t6.5 8q0 4 -7 8q-2 2 -2 5q1 8 -36 74.5t-81 139
t-52 81.5l-9 8q-5 4 -25 8q-22 5 -33 12.5t-11 27.5q0 11 2 18q2 6 7 4l4 2l48 -1q31 0 93 -2h7q16 0 24.5 -2.5t8.5 -12.5q0 -9 -11 -26l-8 -6h2q-3 -3 -16 -10q-23 -9 -23 -22q0 -8 7 -19t24 -31q11 -10 17.5 -22.5t14.5 -31.5l6 -16l-1 1l15 -23q8 -5 13 -14t12 -24
q7 -16 26.5 -34t30.5 -13q15 5 21 23.5t10 50.5q4 28 7 40l8 14q8 8 9 12h-1q4 10 17 30v-1q11 20 16.5 33t5.5 26q0 15 -9.5 28t-32.5 26l-2 4q-2 1 -1.5 3.5t2.5 3.5q15 10 30 12.5t37 1.5h16q16 0 24 2h35l16 5l18 6q1 1 3 0t3 -3l2 -4q13 -26 13 -35q0 -21 -27 -33
q-2 -1 -3.5 -0.5t-2.5 2.5q-6 9 -18 9q-8 0 -12 -2l-23 -44q-10 -18 -28 -54l-29 -55q-3 -3 -4 -9q-10 -9 -42.5 -71t-39.5 -80q-8 -34 -10 -74q96 -2 145 -2q27 0 27 -13t-30 -40l-143 -3v-42q98 -2 145 -2q27 0 27 -13z" />
    <glyph glyph-name="brokenbar" unicode="&#xa6;" horiz-adv-x="833" 
 />
    <glyph glyph-name="section" unicode="&#xa7;" horiz-adv-x="427" 
d="M386 143q0 -49 -27 -87q-20 -34 -48.5 -52t-63.5 -18q-28 0 -55 10h1l-9 2q-12 0 -28 2q-10 3 -22 18q-12 14 -24 14q-7 0 -14 -4q-16 -20 -27 -20q-7 0 -12.5 8t-7.5 20q-3 36 -3 71l1 49v40q0 16 12 19q3 1 9 1q13 -2 22 -12.5t7 -25.5v-6q-5 -53 44 -100
q47 -33 93 -33q36 0 64 24.5t34 60.5q2 18 2 25q0 12 -1 18q-4 26 -23 52q-21 25 -53.5 41.5t-84.5 35.5q-42 15 -64 25l-27 15q-14 12 -21 23q-14 19 -22 44.5t-8 51.5q0 50 28 84q-16 35 -16 72q0 32 13 59.5t38 44.5q53 30 96 30q41 0 78 -27q1 0 7 -2q22 -4 41 -4
q2 11 9 18t16 7q11 0 19.5 -10t10.5 -32q0 -3 -2 -3q-2 -2 -8.5 -8t-6.5 -13q0 -4 3 -9q8 -12 10 -26.5t2 -34.5v-24q0 -21 -11 -31q-6 -6 -17 -6q-26 1 -26 36v22l1 18q-7 4 -11 11q-20 24 -34.5 37t-41.5 27q-7 4 -17 5t-17 1h-10q-16 0 -24 1q-32 -23 -47.5 -44.5
t-15.5 -44.5q0 -17 11 -36q10 -20 27 -37l3 3l25 -24q24 -3 46 -11t54 -22q24 -13 41 -19v-6l8 -3l11 -6l13 -6q11 -11 20 -23l-1 -11q2 10 2 17q42 -58 42 -121q0 -49 -26 -86l-4 2l3 -7q14 -36 14 -70zM347 311q0 45 -30 75q-4 2 -10 10q-21 19 -49.5 32t-72.5 29
q-24 9 -47.5 18.5t-38.5 19.5l-3 -5q-11 -19 -11 -37q0 -41 64 -100q42 -6 100 -33q30 -15 51 -22l11 -6q2 -1 14.5 -3t19.5 -4q2 10 2 26z" />
    <glyph glyph-name="dieresis" unicode="&#xa8;" horiz-adv-x="376" 
d="M45.5 677.5q-15.5 17.5 -21.5 34t-8 20.5l10 11q5 5 13 17q10 17 21.5 25.5t35.5 8.5l12 -1l23 -24q15 -36 15 -61q0 -23 -12.5 -35.5t-36.5 -12.5q-36 0 -51.5 17.5zM233.5 688.5q-7.5 7.5 -11.5 13.5t-4 13q0 12 15 24q-3 5 1 9q2 14 4 23l20 3q12 11 26 11
q10 0 18.5 -5t16 -11t10.5 -9q17 -34 17 -52q0 -27 -27 -46q-11 -10 -22 -10t-27 12q-14 11 -24 12z" />
    <glyph glyph-name="copyright" unicode="&#xa9;" horiz-adv-x="585" 
d="M303.5 823.5q4.5 0.5 9.5 -0.5q4 0 9.5 1.5t8.5 0.5q20 -2 48 -13.5t50 -22.5t29 -15q38 -28 53 -49.5t20 -36t7 -19.5q3 -5 4 -9t2 -6q2 -4 4 -16q1 -4 4.5 -24t4.5 -24l1 -16l1 -17q0 -3 -1.5 -7.5t-2.5 -8.5v-2q0 -3 1.5 -8t0.5 -7q-3 -18 -18 -48.5t-34 -54.5
l-11 -13l-13 -11q-3 -3 -5.5 -7t-4.5 -6t-7.5 -4.5t-7.5 -4.5l-42 -28l-32 -14q-2 -1 -5 -1t-7 1t-6 0q-3 -1 -8 -4.5t-8 -4.5q-5 -1 -17 -1q-6 -1 -10.5 -0.5t-7.5 0.5q-13 -1 -36 0t-33 1l-81 30q-2 2 -5.5 6.5t-6.5 5.5q-2 1 -13.5 5.5t-40.5 35.5q-22 23 -31 40l-9 14
q-3 5 -7 15q-1 4 -1.5 8.5t-1.5 8.5q-14 38 -14 74q0 19 5 39l6 49l6 16l16 29l9 14l9 15q2 2 7.5 4.5t7.5 4.5q7 7 18.5 17.5t19.5 16.5q23 17 40.5 26.5t50.5 18.5l51 11q2 0 8 -2.5t9 -2.5t7.5 0.5zM305 363q4 1 9 1q11 0 17 1l17 3q10 2 17 4q8 4 31.5 15.5t29.5 15.5
q4 3 7.5 6t5.5 5q11 10 21.5 20.5t14.5 15.5q2 2 3 7.5t3 8.5q37 56 37 111q0 67 -57 131l-11 13l-11 12q-5 3 -13 11l-15 8q0 1 -15 7.5t-49 14.5l-17 4q-4 0 -8.5 1.5t-8.5 2.5l-17 -1q-3 0 -8 2t-9 2q-4 -1 -9 -3t-8 -2q-10 -2 -17 -4q-12 -2 -16 -4q-4 -1 -9 -3t-7 -3
q-16 -6 -36 -19.5t-34 -26.5q-3 -3 -7.5 -5t-7.5 -5q-16 -16 -29 -41q-7 -10 -9 -14q-14 -33 -14 -72q0 -44 16.5 -87t47.5 -72l12 -11l43 -29q4 -2 8.5 -3t8.5 -2l16 -5q6 -1 10 -3t7 -3q11 -3 21 -3q3 0 5 2t8 1q3 0 8.5 -3t8.5 -3q5 0 9 1zM207.5 425q-30.5 27 -47 71.5
t-16.5 92.5q0 53 21 94.5t63 57.5q23 21 62 21q13 0 22.5 -1t16.5 -2q5 -1 12.5 -2t18.5 -1q6 0 19.5 -3.5t21.5 -3.5l36 -39q-2 -10 -2 -15l1 -25q0 -17 -8 -26q-31 -13 -43 -13t-16 10.5t-2 34.5q10 20 10 27q0 9 -7 10q-7 2 -12 4.5l-9 4.5q-20 11 -33 11q-10 0 -18 -4
q-22 -11 -68 -21q-47 -63 -47 -131q0 -17 1 -25l8 -9l26 -67q10 -24 31 -37t46 -13q21 0 40 9q33 15 52 33.5t19 50.5q-1 12 7 19.5t20 7.5q9 0 12 -3.5t3 -10.5l-1 -15q2 -45 -25 -70.5t-69 -46.5q-20 -10 -21 -13q-20 -2 -27 -2q-22 0 -27 15q-40 -2 -70.5 25z" />
    <glyph glyph-name="ordfeminine" unicode="&#xaa;" horiz-adv-x="328" 
d="M190 623q3 5 3 11q0 8 -4 13q-27 11 -48 8q-11 0 -15.5 -8t-8.5 -25q-16 -23 -33 -23q-16 0 -31 25q-8 22 -8 34q0 14 10 25.5t34 28.5l15 10h57q15 0 22 -4q6 -3 11 -3q6 0 10 -3q12 -2 15 -10q18 -14 27.5 -28.5t9.5 -34.5q0 -10 -3 -24l-2 -4v-22v-6q0 -9 3 -18v-24
q0 -19 -1 -28q5 8 14 8q8 0 21 -6q16 -11 16 -31q0 -10 -4 -24q-5 -13 -16.5 -21.5t-24.5 -8.5q-7 0 -15 3h1l-4 1l-31 8l-8 7q-5 -1 -13 -9q-23 -11 -44 -11q-22 0 -49 8q-8 3 -21 3q-48 35 -48 75q0 33 34 65q6 11 20 13q1 1 2 1t0 -1l25 11q5 2 25 9t38 8h8q10 0 11 2z
M196 539q0 7 -6.5 11t-17.5 4q-27 0 -62 -20q-7 -9 -10 -15t-1 -12q13 -13 28 -13q9 0 21 5l-3 -1q12 8 17 5q6 5 18 10h2l4 4l7 8l-4 -4q7 13 7 18z" />
    <glyph glyph-name="guillemotleft" unicode="&#xab;" horiz-adv-x="617" 
d="M484 393l-35 -43l-26 -28l-31 5l-38 -90l16 -18l24 -19l93 -99l26 -31l21 -13l34 -15l5 -5t4 -9q0 -11 -21 -19q-2 -2 -8.5 -6.5t-14.5 -4.5t-13 5q-19 14 -81.5 64t-121.5 105t-63 79q6 9 27 37.5t46 58.5t38 39l15 11l-9 -5q13 11 50.5 37.5t81 49t69.5 18.5
q1 -1 4.5 -7t3.5 -15q0 -17 -17 -34l-44 -25zM244 397l-35 -25l-35 -20l-22 -21l-60 -86l16 -18l24 -19l115 -103l26 -31l21 -13l34 -15l5 -5t4 -9q0 -11 -21 -19q-2 -2 -8.5 -6.5t-14.5 -4.5t-13 5q-19 14 -81.5 64t-121.5 105t-63 79q6 9 27 37.5t46 58.5t38 39l15 11
l-9 -5q13 11 50.5 37.5t81 49t69.5 18.5q1 -1 4.5 -7t3.5 -15q0 -17 -17 -34l-44 -25z" />
    <glyph glyph-name="logicalnot" unicode="&#xac;" horiz-adv-x="589" 
d="M446 426q14 -3 24 -3q5 12 23 15q16 3 28 3q16 0 22 -6t6 -20q0 -12 -5 -37q-10 -46 -10 -59q0 -4 3 -10.5t3 -29.5q0 -26 -4 -73q-3 -30 -24 -58l-19 -9q0 22 -24 32v93q7 4 11.5 6t4.5 3t-3 5.5t-6 8.5q-4 18 -6 25t-3 9q2 -3 5 4.5t5 31.5q-18 2 -34 6q-83 19 -183 19
q-73 0 -192 -13q-15 -1 -28.5 5.5t-29.5 18.5l-9 19q22 0 32 24h93q10 -19 27 -19q9 0 22 8q56 13 117 13q44 0 130 -8q10 -1 24 -4z" />
    <glyph glyph-name="uni00AD" unicode="&#xad;" horiz-adv-x="582" 
d="M518 337q13 0 24 -4t11 -10q0 -3 -6 -8q-19 -12 -25 -26t-8 -34q-2 -16 -6 -22.5t-18 -6.5q-13 0 -43 9q-77 24 -175 24q-66 0 -176 -13q-8 0 -22 -2q-15 -1 -28.5 5.5t-29.5 18.5q-2 4 -2 15q0 33 24 58q62 0 387 -9q5 0 12 -1.5t10 -1.5q13 -3 26 -3q16 0 29 8
q6 3 16 3z" />
    <glyph glyph-name="registered" unicode="&#xae;" horiz-adv-x="585" 
d="M557.5 468.5q-1.5 -4.5 -2.5 -8.5v-2q0 -3 1.5 -8t0.5 -7q-3 -18 -18 -48.5t-34 -54.5l-11 -13l-13 -11q-3 -3 -5.5 -7t-4.5 -6t-7.5 -4.5t-7.5 -4.5l-42 -28l-32 -14q-2 -1 -5 -1t-7 1t-6 0q-3 -1 -8 -4.5t-8 -4.5q-5 -1 -17 -1q-6 -1 -10.5 -0.5t-7.5 0.5q-13 -1 -36 0
t-33 1l-81 30q-2 2 -5.5 6.5t-6.5 5.5q-2 1 -13.5 5.5t-40.5 35.5q-22 23 -31 40l-9 14q-3 5 -7 15q-1 4 -1.5 8.5t-1.5 8.5q-14 38 -14 74q0 19 5 39l6 49l6 16l16 29l9 14l9 15q2 2 7.5 4.5t7.5 4.5q7 7 18.5 17.5t19.5 16.5q23 17 40.5 26.5t50.5 18.5l51 11q2 0 8 -2.5
t9 -2.5t7.5 0.5t9.5 -0.5q4 0 9.5 1.5t8.5 0.5q20 -2 48 -13.5t50 -22.5t29 -15q38 -28 53 -49.5t20 -36t7 -19.5q3 -5 4 -9t2 -6q2 -4 4 -16q1 -4 4.5 -24t4.5 -24l1 -16l1 -17q0 -3 -1.5 -7.5zM437 332q-4 -3 -16 -3h-6q-10 2 -14 4l-4 1q-13 1 -23 7t-9 24q3 66 -31 102
q-12 13 -28 20t-33 7q-21 0 -29 -10q-3 -5 -2 -10q4 -16 4 -37q0 -11 -2 -37q0 -7 -1 -11q0 -14 4 -18q5 -5 17 -5h5l1 1h6q11 0 16 -6q2 -4 2 -9q0 -10 -6 -15t-16 -5q-4 0 -7 1q-32 4 -41 4q-22 0 -42 -6q-6 -2 -9 -2q-9 0 -15 5.5t-8 14.5v3q0 6 3 9q6 6 17 6q4 0 6 -1h8
q9 0 12 3q4 4 4 18v38v76l1 44q-4 32 -2 60v13q0 13 -3 16t-12 3h-10l-4 -1q-9 0 -23 7l-4 -4q-3 -3 -7.5 -5t-7.5 -5q-16 -16 -29 -41q-7 -10 -9 -14q-14 -33 -14 -72q0 -44 16.5 -87t47.5 -72l12 -11l43 -29q4 -2 8.5 -3t8.5 -2l16 -5q6 -1 10 -3t7 -3q11 -3 21 -3
q3 0 5 2t8 1q3 0 8.5 -3t8.5 -3q5 0 9 1t9 1q11 0 17 1l17 3q10 2 17 4q8 4 31.5 15.5t29.5 15.5q2 1 11 10zM518 496q0 67 -57 131l-11 13l-11 12q-5 3 -13 11l-15 8q0 1 -15 7.5t-49 14.5l-17 4q-4 0 -8.5 1.5t-8.5 2.5l-17 -1q-3 0 -8 2t-9 2q-4 -1 -9 -3t-8 -2
q-10 -2 -17 -4q-12 -2 -16 -4q-4 -1 -9 -3t-7 -3q-17 -7 -33 -17q32 4 53 4q5 0 7 -1l2 1v-1q0 -1 0.5 -1h0.5v-2l1 2q4 -3 9 -3l5 1q18 8 37 8q17 0 49 -8q12 -3 34 -7h2l2 -1q48 -31 50 -71q0 -4 8 -12l1 -1l3 -5l-1 -9v-2l-1 -1l-7 -12q-14 -22 -24.5 -33.5t-28.5 -20.5
l-4 -7q1 -3 5 -9q17 -24 17 -53q0 -22 3.5 -33.5t16.5 -20.5l5 -2h3q2 -2 6 -2q11 -2 15 -8q2 -7 0 -11q-2 -7 -4 -9l18.5 18.5t11.5 12.5q2 2 3 7.5t3 8.5q37 56 37 111zM239 575q0 -7 2 -19l1 -8l2 -17q3 -14 18 -14q62 1 97 16t35 40q0 20 -22 41q-15 15 -34 18.5
t-50 3.5q-13 0 -20 1h-3q-18 0 -23 -6.5t-7 -15.5q-1 -16 4 -40zM440 333v1l-1 -1h1z" />
    <glyph glyph-name="macron" unicode="&#xaf;" horiz-adv-x="0" 
 />
    <glyph glyph-name="degree" unicode="&#xb0;" horiz-adv-x="353" 
d="M326 574q0 -3 -2 -5v-2q-1 0 -1 -0.5v-0.5q0 -3 -1 -5l-1 -4l-1 -2l-1 -4q-1 0 -1 -0.5v-0.5q-9 -30 -17.5 -41.5t-18.5 -16.5l-5 -3l-1 -2q0 -1 -3 -3v-1l-3 -4l-2 -2q-2 -2 -3 -2l-4 -3h-0.5t-0.5 -1l-6 -1h-1l-16 -9l-11 -5l-6 -3l-2 -1l-4 -2h-6l-6 -2h-2l-4 1h-3
l-4 -1h-31q-19 2 -50 18.5t-49 39.5h-1l-5 4q-1 1 -1 2.5t-1 2.5v1q-4 2 -5 4q-3 3 -1 7h-1l-4 4q-1 2 -1 5v2l-1 1l-2 4q-1 2 -1 5l-1 1q0 3 -1 4v3l-1 4v1l-1 1l-3 5l1 6v1l-3 6l1 5q0 1 0.5 1h0.5v6l-1 2v5q0 3 1 4v3q0 1 -0.5 2t0.5 3q0 3 3 6q0 1 0.5 1h0.5q9 48 32 72
q3 3 6 3h1q1 5 7.5 11t26.5 16q14 7 35 11.5t42 4.5q17 0 32 -3h2q3 0 4 -1q2 0 3 -1q2 -2 6 -2h3l22 -12l38 -2q1 -1 -9 -4.5t-14 -4.5h-0.5t0.5 -1q21 -17 27 -25q10 -14 20 -40.5t9 -53.5q0 -3 -2 -5q3 -3 3 -7zM235 507q17 11 25.5 21.5t15.5 31.5l4 5l-4.5 0.5
t-4.5 1.5q1 1 5.5 1.5t4.5 1.5v1q-1 1 -1 5q1 0 1 2v9l2 5q-2 4 -2 6l-1 2v3q-1 3 2 8h1l-1 1q0 2 -1 3q-7 31 -34.5 54.5t-69.5 23.5q-18 0 -35 -4h-1q-1 -1 -1.5 -9t-5.5 -11q-8 -4 -23.5 -11t-22.5 -14t-11 -18v-2l-1 -4q-1 -2 -2 -3.5t-2 -2.5v-10q0 -5 0.5 -14t1.5 -14
q1 -4 0.5 -8t-0.5 -5q1 -4 22 -38h1l4 -3q2 -2 2.5 -3.5t0.5 -2.5t1 -1l3 -2h1l4 -2l4 -4v-1h2l3 -2l3 -1l3 -1l5 -3l4 -3q0 -1 1 -1q1 -1 2.5 -1t2.5 -1h5l3 -1h3l4 -1q0 -1 1 -1q3 3 6 3l1 -1q4 0 6 -4h4v0.5t1 0.5q2 2 5 2h11q1 0 1 1l5 2h5q1 1 3 1h8q2 4 5 6q3 0 4 1h2
q1 0 3 2h0.5t0.5 1l3 1z" />
    <glyph glyph-name="plusminus" unicode="&#xb1;" horiz-adv-x="489" 
d="M392 421l4 -2q2 0 2.5 -1t1.5 -1q1 -1 3 -0.5t3 -0.5q2 -2 4 -2q1 -1 1.5 -2.5t1.5 -2.5t2.5 -0.5t2.5 -0.5t0.5 -3t0.5 -3t2.5 -1.5t1.5 -1.5q1 -1 0.5 -2.5t-0.5 -2.5l-2 -4q-1 -1 -4 -3q-1 -1 -0.5 -2.5t-0.5 -2.5l-4 -4q-1 -1 -2.5 0t-2.5 1l-2 -2l-2 -2l-4 -3l-5 -1
l-5 -1h-4q-4 -2 -5 -2q-5 -2 -12.5 -2t-35.5 -3q-2 -1 -14.5 -2.5t-36.5 -1.5q-8 0 -23 0.5t-17 -41t-6 -74.5q0 -1 1 -2.5t1 -2.5l-4 -4l1 -5l1 -5q-1 -1 -0.5 -2.5t-0.5 -2.5q0 -1 -1.5 -2t-1.5 -2q0 -4 -1 -5l-1 -5l1 -5q0 -3 -1 -5q-6 -24 -14 -24q-5 0 -9 6.5t-6 17.5
q-1 2 0 3t0 2q0 1 -2 5q0 1 1 2t1 3q0 1 -1 2.5t-1 2.5v5q0 1 -1.5 2t-1.5 2l-1 5l1 5q0 1 1 2.5t0 2.5q0 1 -1.5 2t-1.5 2l-1 5q0 1 1 2t1 3q-1 10 -2 5t-2 86q0 3 1 8.5t-30.5 7t-87.5 2.5q-21 0 -32 7.5t-11 17.5q0 9 8 15t22 6l5 1l5 1h4l5 1q1 0 2.5 -1t2.5 -1l5 1h33
q2 0 9.5 -1t19.5 -1q1 0 2 1t3 1l4 1q2 0 3 -1t2 -1t2.5 -0.5t2.5 0.5q1 0 2.5 1t2.5 1q9 1 11.5 2t2.5 5q0 3 -3.5 13.5t-6.5 25.5l-4 24l1 5v19l1 4q1 2 1 5q0 1 -1 2.5t0 2.5q0 2 1 3l2 2q4 20 8.5 28.5t16.5 8.5q5 0 8 -1h4q2 -1 5 -1q13 -2 18 -7.5t5 -14.5t-2.5 -25.5
t-2.5 -32.5t3 -36v-5l3 -4l-1 -6q1 -1 2.5 -1.5t2.5 -1.5t0 -2.5t0 -2.5l4 -3q1 -1 1.5 -2t1.5 -2t2.5 0t2.5 1q2 -1 5 -1q1 0 2 -1t3 -1l48 7l4 1l5 1q2 0 3 -1t2 -1q2 0 3 1l2 2q1 0 2 -1t3 -1l4 1l20 3q1 0 2 -1.5t2 -1.5h5l5 1q1 0 2.5 0.5t2.5 -0.5zM446 99
q11 0 18.5 -9t7.5 -28q0 -44 -55 -44q-23 0 -47 6q-83 18 -140 18q-32 0 -117 -9l-35 -4q-15 -1 -28.5 5.5t-29.5 18.5l-9 19q22 0 32 24h93q10 -19 27 -19q9 0 22 8q52 13 81 13q22 0 51 -4l32 -3q8 0 22 -4q5 -1 11 -2t14 -1q16 0 30 9q9 6 20 6z" />
    <glyph glyph-name="uni00B2" unicode="&#xb2;" horiz-adv-x="329" 
d="M110 400l-35 -26l-17 1q-26 22 -26 49q0 14 6 27q0 1 0.5 1.5t0.5 1.5q0 5 5 12q-2 -2 -2 -1l16 41q6 10 17 21q8 6 10 14q7 9 11.5 12t8 4t4.5 1q2 0 3 3v-2q1 5 5 10t9 6l10 3l4 1q7 7 19 14l6 3l1 1l-1 -1l2 1h-1l2 1l-1 -1q18 15 34 34q0 10 2 15.5t10 10.5v4
q0 7 -1 11q0 2 -1 5t0 7q-35 26 -46 26q-4 0 -12 -4q-7 -6 -29 -16q2 -1 4 -3t2 -5q3 -9 3 -17q0 -24 -31 -34q-9 -3 -15 -3q-25 0 -40 27q-8 12 -8 28t10 36q1 0 1 -1v4q0 3 5 13q6 6 13 10q6 10 24 12q2 4 6 5q9 4 16 4q38 5 50 5l23 1q21 0 41 -15q4 -3 15.5 -11.5
t19.5 -19.5v-12q0 -3 -1 -3.5t1 -2.5q18 -15 18 -36q0 -9 -6 -29v1q-1 -2 -1 -5q-6 -42 -30 -64t-70 -46q-2 -2 -8 -5q-3 -3 -7 -6.5t-8 -7.5q-23 -23 -36 -40l7 -1h4q19 2 34 -10q13 0 27 -14q7 -7 16 -7q7 0 27 10v1l1 7q1 2 0.5 4t-0.5 3l-1 13q0 27 37 27
q20 0 28.5 -11.5t11.5 -31.5q0 -13 -5 -18l-1 -3q-12 -23 -22 -37.5t-25 -23.5q-3 -2 -7 -3t-7 0t-9 1q-9 0 -13 -1h1q-14 -2 -21 -2q-17 0 -32 9h3l-16 6l-14 11q-3 9 -28 7h-5q6 -1 4 -6zM88 745l-2 -2q2 0 2 2zM165 382h1q0 1 -0.5 1h-0.5v-1zM119 693l3 -1l-4 1h1z" />
    <glyph glyph-name="uni00B3" unicode="&#xb3;" horiz-adv-x="317" 
d="M34 448l-1 3q-2 10 -2 19q0 27 7.5 39.5t25.5 12.5q15 0 39 -9q12 -22 10 -35q-3 -8 -9 -16l2 -3q6 -10 18 -10q4 0 12 -5q21 -3 42.5 10.5t34.5 38.5q10 20 10 39q0 11 -1 18.5t-2 12.5q-6 19 -37 19q-11 0 -26 -3l-1 -1q-7 -11 -13.5 -16.5t-15.5 -5.5q-8 0 -21 7
q-15 11 -15 25q0 12 8 23.5t9 13.5v-1q27 37 36 46v-1l14 14q3 8 15 25q3 2 5 1.5l2 -0.5q1 0 0 8h-53q-12 0 -16.5 -1.5t-5.5 -5.5v-4q2 -23 -13 -36q0 -1 -2 -9q-9 -22 -25 -22q-3 0 -9 2q-10 5 -16 15.5t-6 20.5q0 4 2 8q2 5 2 14v11q0 11 5 21q3 25 16.5 35.5t37.5 10.5
l13 -1h110q29 1 39.5 -2t10.5 -14q0 -12 -12 -38q-9 -19 -38 -52q-5 -7 -12 -14.5t-11 -14.5q2 -1 8 -1q21 -3 29 -8q26 -14 47 -47q10 -38 10 -59q0 -59 -29.5 -87.5t-67.5 -44.5h1l-6 -2q-5 -4 -16.5 -7t-25.5 -3q-29 0 -44 11q-21 1 -48 18q-2 0 -2 1l1 -1q-5 2 -9 7
t-4 12v2q-7 7 -7 16zM46 734q4 8 10 10q-8 -1 -9.5 -3.5t-1.5 -14.5l5 13zM63 409q-1 0 -1.5 1t-1.5 1h-5zM91 669v1l-1 -1h1z" />
    <glyph glyph-name="acute" unicode="&#xb4;" horiz-adv-x="201" 
d="M165 750q11 0 15 -8q2 -3 2 -11q0 -35 -73 -110q-34 -34 -60 -34q-15 0 -25 12q-7 9 -7 17q0 30 61 80q62 54 87 54z" />
    <glyph glyph-name="uni00B5" unicode="&#xb5;" horiz-adv-x="509" 
d="M427 78q0 -69 -11 -102t-27 -33q-12 0 -22.5 20.5t-10.5 49.5q0 27 10 53q2 6 2 9q0 6 -5 6q-6 0 -13 -7q-9 -8 -19.5 -20t-16.5 -19l-1 -1q-49 -28 -114 -28q-33 0 -68 6l12 -76v-26q-4 -11 -14.5 -42.5t-8.5 -35.5t2 -25q0 -28 -1 -53t-2 -34h-41l-16 34l-10 83v53
l18 54l4 62q-2 11 -8 46t-6 55v81l2 2q1 41 1 123v123q-1 6 -13 16t-12 19q0 5 4 12q11 19 27 23.5t43 4.5q14 -14 14 -35q0 -7 -2 -23q-3 -12 -3 -25v-44l1 -138q0 -35 -2 -103v-4q0 -11 4.5 -20t9.5 -16.5t7 -9.5q10 -13 15 -23t4 -23q115 -5 161 68t46 189q0 74 -19 183
q-6 34 -4 34q5 1 14 1q84 0 84 -163q0 -56 -7 -108t-8 -59q-4 -21 -4 -30q4 -43 4 -84z" />
    <glyph glyph-name="paragraph" unicode="&#xb6;" horiz-adv-x="456" 
d="M426 677q0 -8 -5 -16l-1 -2l-29 -11l-3 1l-7 2l-5 -17v-29q-2 -40 -2 -59l1 -24q3 -4 6 -23q3 -20 8 -89.5t5 -159.5q0 -128 -12 -248q-7 -25 -20 -28l-10 -1l-10 1l-7 2v47q1 16 1 47q0 17 -1 20q-4 12 -6 107l-2 32q0 5 7 46q3 12 8 37q-14 88 -13 91q0 1 0.5 9.5
t-0.5 18.5q-1 7 -1 29q1 6 1 18q0 11 -1 15q-1 9 -0.5 17t0.5 14q0 3 0.5 9.5t-0.5 8.5l-1 17l1 31v7l-6 24l-11 37h-56l-12 -3l4 -64l-8 -89l-9 -515l2 -12h-61q-8 0 -12.5 7t-4.5 18v2q1 4 2.5 16.5t1.5 21.5l6 334q1 7 5 23q5 20 5 35q0 26 1 36q2 19 0 23q0 1 -1.5 2
t-3.5 1l-10 -2l-2 10v1l-11 -7q-14 -10 -21 -10q-5 0 -9 1l-17 1h-4q-6 -4 -10 -4q-15 0 -33 21q-27 33 -27 80q0 14 3 30v2q0 5 -4 11q-4 8 -4 11t8 24l7 22q3 11 21 25l1 1l229 -2q33 0 47 3q4 1 12 1q11 0 27 -4q14 -2 19 -2h7q18 0 21 -17l1 -2q5 -4 5 -11zM384 534
l20 3l1 -3l-17 -10q-4 4 -4 10z" />
    <glyph glyph-name="periodcentered" unicode="&#xb7;" horiz-adv-x="179" 
d="M131.5 361.5q15.5 -17.5 21.5 -34t8 -20.5l-10 -11q-5 -5 -13 -17q-10 -17 -21.5 -25.5t-35.5 -8.5l-12 1l-23 24q-15 36 -15 61q0 23 12.5 35.5t36.5 12.5q36 0 51.5 -17.5z" />
    <glyph glyph-name="cedilla" unicode="&#xb8;" horiz-adv-x="231" 
d="M115 -24q0 -6 4 -11t11 -6l38 -11q18 -5 25 -22l17 -56q2 -8 2 -11q0 -6 -4 -16l-14 -29q-9 -18 -32 -26l-15 -4q-12 -4 -29 -4q-12 0 -24 3q-26 6 -33 9q-6 2 -19 15q-20 18 -20 42q0 9 3 18q0 1 0.5 5t5.5 4q7 0 23 -8q14 -8 14 -16q0 -5 -3.5 -9t-5.5 -5l23 -15
q6 -3 11 -3q6 0 11 3l2 1q5 -1 14.5 -3t15.5 -2q11 0 18 8q3 3 3 9q0 7 2 12q11 19 11 37q0 11 -3.5 18l-4.5 9l-21 15q-22 15 -50 14l-26 1l12 59h38v-25z" />
    <glyph glyph-name="uni00B9" unicode="&#xb9;" horiz-adv-x="256" 
d="M71.5 442h15.5q7 -2 13 0q1 15 1 148q0 64 -2 112q-4 -1 -11 -1q-2 0 -4.5 1.5t-1.5 3.5q-2 -3 -6 -5.5t-7 -3.5q-2 -1 -7 -1q-8 0 -22 9l-12 14l-6 8q-3 5 -3 11q0 11 11 17q4 3 13 3q7 5 13 5l6 1q28 -3 47 -3q11 0 25 6.5t18 6.5q11 0 11 -30q3 -10 3 -30v-57
q0 -57 -2 -124.5t-5 -84.5q1 -1 2 -2.5t2 -3.5h16q27 2 43 -6l12 -10q4 -12 4 -24q0 -34 -36 -34q-9 0 -14 1q-5 0 -8 3q-4 -2 -8 -2q-6 0 -10 4l-2 -1q-15 3 -25 3l-41 -1l-7 -2q-3 -1 -10.5 -3t-13.5 -2q-17 0 -35 14l-6 15l-3 8q-1 2 -1 5q0 7 4 12t9 7l1.5 0.5t3.5 2.5
l14 6l-3 -1q12 5 24.5 5zM163 741l1 -3l-1 6v-3z" />
    <glyph glyph-name="ordmasculine" unicode="&#xba;" horiz-adv-x="317" 
d="M26 428q0 29 9 54q2 2 2 7q0 4 -4 12l-1 3q0 1 2 3q4 2 4.5 6.5t-0.5 8.5l-1 4q10 11 23 21q14 11 22 20t11 22q0 2 3 2q16 1 32 4.5t20 4.5l18 3t24 2q21 1 45.5 -24t35.5 -44l2 -7q18 -52 18 -99q0 -29 -6 -55q-32 -64 -63 -99.5t-68 -35.5q-31 0 -70 33l-23 31l-23 33
v15l-1 15l-3 6v-1q-8 29 -8 55zM70 435q0 -40 16 -75.5t43 -50.5q7 -4 19 -6q35 0 55.5 15.5t29.5 49.5l2 6q1 3 4.5 12t9.5 16v7q-1 7 -1 22q0 54 -15.5 86.5t-62.5 44.5q-8 5 -16 5q-6 0 -14 -3q-16 -7 -26 -18.5t-20 -31.5l-8 -15q-16 -29 -16 -64z" />
    <glyph glyph-name="guillemotright" unicode="&#xbb;" horiz-adv-x="617" 
d="M37 475q0 9 3.5 15t4.5 7q26 4 69.5 -18.5t83 -50.5t47.5 -36l-9 5l16 -11q13 -9 38 -39t46 -58.5t27 -37.5q-4 -24 -63 -79t-121.5 -105t-81.5 -64q-5 -5 -13 -5t-14.5 4.5t-8.5 6.5q-21 8 -21 19q0 5 4 9l5 5l34 15l21 13l26 31l93 99l24 19l16 18l-38 90l-31 -5
l-26 28l-35 43l-35 23l-44 25q-17 17 -17 34zM277 479q0 9 3.5 15t4.5 7q26 4 69.5 -18.5t83 -50.5t47.5 -36l-9 5l16 -11q13 -9 38 -39t46 -58.5t27 -37.5q-4 -24 -63 -79t-121.5 -105t-81.5 -64q-5 -5 -13 -5t-14.5 4.5t-8.5 6.5q-21 8 -21 19q0 5 4 9l5 5l34 15l21 13
l26 31l115 103l24 19l16 18l-60 86l-22 21l-35 20l-35 25l-35 23l-44 25q-17 17 -17 34z" />
    <glyph glyph-name="onequarter" unicode="&#xbc;" horiz-adv-x="468" 
d="M385 152.5q11 -4.5 11 -19.5q0 -7 -5 -22q-16 -12 -35 -12q-17 0 -33 9q-8 4 -15 4q-10 0 -15.5 -6.5t-9.5 -19.5q-2 -4 -2 -12q0 -10 7.5 -14.5t20.5 -3.5q18 0 29 -5t10 -21q-2 -18 -16 -26t-40 -8q-22 0 -66 8q-27 7 -48 8q-16 1 -16 13q0 6 6 13q6 8 11.5 12.5
t14.5 4.5q3 0 19.5 0.5t25.5 7.5t9 20q0 19 -10.5 25.5t-28.5 6.5l-66 -1q-21 -1 -64 -1q-1 4 -8 11.5t-7 11.5q0 6 12 13l23 38q6 14 24 25l1 1q16 15 40 49q26 37 46 55q2 2 9 7.5t12.5 8.5t11.5 3q5 0 11 -3q23 -12 25 -41v-35v-71q3 -17 11 -23t20 -6q9 0 21 2t19 1
q24 -3 35 -7.5zM133.5 708.5q-8.5 8.5 -8.5 19.5q0 10 5 12.5t14 2t12 0.5l21 6q15 5 27 5q22 0 35.5 -13.5t13.5 -37.5l1 -57q0 -46 -11 -78q-7 -17 -7 -32q0 -20 18.5 -30.5t59.5 -15.5q1 -13 -5 -24t-17 -12q-36 -7 -79 -7q-32 0 -70 5q-4 1 -8.5 6t-5.5 10l-1 4
q0 5 5 9.5t10 8.5q4 3 11.5 3t13 1t8.5 6q13 6 16 16t3 27l1 114q0 24 -8 35.5t-36 8.5q-10 -1 -18.5 7.5zM438.5 407q10.5 -5 15 -10.5t1.5 -17.5l-5 -17q-19 -13 -37 -13q-15 0 -28 9l-10 11q-29 -6 -73 -6q-23 0 -35 1q-9 0 -22 0.5t-30 -0.5h-37q-49 0 -81.5 -2
t-65.5 -11q-16 28 -16 39q0 8 7.5 11t25.5 5q69 4 155 4q53 0 155 -2q19 17 37 17q16 0 30 -10q3 -3 13.5 -8zM230 159q16 12 16 23q0 6 -3 13q-4 1 -2 5q-5 10 -3 24q-2 5 -2 16q-1 20 -15 20q-5 0 -15 -4q-5 -8 -13 -22t-15.5 -24t-17.5 -18q1 -2 1 -6q0 -8 -8 -11l-2 -15
q4 0 15.5 -0.5t19.5 -4.5t13 -14h15q2 8 16 18zM260.5 743q-2.5 3 -3.5 4q0 1 2 2.5t4 3.5q1 -1 5 -3t5 -4l1 -3q0 -2 -2.5 -3.5t-5.5 -0.5t-5.5 4zM287 688q-2 -1 -4 -1q-4 1 -4.5 3.5t2.5 5.5q1 1 3 1.5t4 -0.5q1 -1 1.5 -3.5t1.5 -3.5zM156 121l-5 1h-1z" />
    <glyph glyph-name="onehalf" unicode="&#xbd;" horiz-adv-x="464" 
d="M127 265q0 23 10 31t47 23q21 6 41 6q15 0 41 -4h5l4 -1q36 -19 55.5 -43t19.5 -57q0 -12 -3 -26q-12 -21 -31 -33t-50 -24q-9 -3 -25.5 -9.5t-29.5 -8.5q-16 -3 -25 -9.5t-12 -18.5q-2 -8 2.5 -12t15 -7t13.5 -8q2 -3 7.5 -5t8.5 -3q26 -12 42 -12q31 0 46 38
q3 9 10.5 15t17.5 3q8 -2 10 -8t1.5 -13t-0.5 -10q2 -45 -17 -63.5t-65 -16.5q-6 -4 -10 -4t-9 3q-7 3 -19 6.5t-20.5 9t-14.5 14.5q-5 6 -12 6q-5 0 -13 -4.5t-11 -5.5q-5 -1 -14.5 -7t-15.5 -6q-7 0 -15 7q-13 12 -13 28q0 12 4 21l-2 2l3 3l23 57q6 9 19.5 13t18.5 7
q13 7 26 17q5 6 15.5 6.5t13.5 2.5q7 4 19 7q5 1 13 2t12 1l3 8h-1q2 3 10 14.5t12 21.5t4 18q0 22 -26 38q-9 20 -30 20q-2 0 -20 -3q-10 -2 -12.5 -9t-2 -15t0.5 -11q0 -30 -14 -45q-2 1 -5 1q-5 -7 -18 -7q-11 0 -16 -2l-19 17q-5 1 -7 10l7 -10q-3 29 -3 44zM139 686.5
q-8 8.5 -8 19.5q0 10 5 12.5t14 2t12 0.5l21 6q15 5 27 5q22 0 35.5 -13.5t13.5 -37.5l1 -56q0 -48 -12 -79q-7 -21 -7 -31q0 -21 18.5 -31.5t60.5 -15.5q1 -13 -5.5 -24t-16.5 -12q-36 -7 -79 -7q-32 0 -70 5q-4 1 -8.5 6t-5.5 10l-1 4q0 8 15 17q4 4 16.5 4t16.5 7
q13 6 16 16t3 27v50q0 33 1 50v23t-11 28.5t-33 6.5q-11 -1 -19 7.5zM453 376q0 -14 -14 -26l-4 1l-3 -1q-36 3 -71 3q-23 0 -69 -2l-35 -1q-41 19 -84 19q-29 0 -64 -10l-1 -7h-64q-3 0 -13 0.5t-15.5 5.5t-5.5 17q0 17 8 20t25 3l353 -2q4 1 11 2t17 1q15 0 23 -9
q6 -6 6 -14zM266.5 720q-2.5 3 -3.5 5q0 1 2 2.5t4 3.5q1 -1 4.5 -3t5.5 -5v-2q0 -2 -2 -4t-5 -1t-5.5 4zM289 665q-4 1 -4.5 3.5t2.5 5.5q1 1 5 1t4 -7q-6 -3 -7 -3z" />
    <glyph glyph-name="threequarters" unicode="&#xbe;" horiz-adv-x="475" 
d="M387.5 159.5q10.5 -4.5 10.5 -19.5q0 -6 -5 -21q-16 -13 -35 -13q-15 0 -32 9q-10 5 -16 5q-17 0 -25 -26q-2 -8 -2 -11q0 -21 28 -19q18 0 29 -5t10 -21q-4 -35 -53 -35q-27 0 -65 9q-6 1 -22 4t-30 4q-16 1 -16 12q0 7 6 14q13 17 26 17q3 0 19.5 0.5t25.5 7.5t9 20
q0 19 -10.5 25.5t-28.5 6.5q-42 0 -64 -1l-66 -1q-1 4 -8 11.5t-7 11.5q0 6 12 13l24 38q5 13 23 25h1q11 11 40 49q25 38 46 56q2 2 9 7.5t12.5 8.5t11.5 3q5 0 11 -3q23 -12 25 -41v-35v-72q6 -29 30 -29q6 0 20 2.5t21 1.5q25 -4 35.5 -8.5zM105 510q0 12 11 28
q14 19 29 19q10 0 21 -7q14 -9 14 -22q-1 -20 5 -30t25 -8l9 1q6 0 22 -2q14 -2 21 -2q14 0 24.5 6t17.5 23q4 0 8 6l-8 -6q8 13 8 26q0 15 -10 24t-32 22q-6 5 -18 5l-21 -1q-17 0 -18 16q-1 10 3.5 13t13.5 3l16 -1q13 0 19 6q4 4 13.5 8t14 8t4.5 12q0 5 -1 8
q-5 18 -16.5 29.5t-29.5 14.5q-8 2 -13 2q-9 0 -16 -1t-12 -2l-3 -17l-14 -26q-2 -6 -4 -10q-10 -19 -28 -19q-11 0 -21 7q-20 14 -20 34q0 16 11 33q21 23 46.5 34.5t53.5 11.5q60 0 106 -49q12 -19 12 -35q0 -9 -3 -18l-3 -11q0 -9 2 -27q1 -7 3 -12t3 -9q8 -26 7 -39
l-3 -50l-2 -9l-16 -26l-30 -20q-32 -7 -69 -7q-35 0 -66 7q-5 3 -16 7t-17 8t-10 12q-23 14 -23 32zM440 415q9 -4 13.5 -8t4.5 -12q0 -5 -1 -8l-5 -18q-19 -13 -36 -13q-15 0 -29 10l-10 11q-29 -6 -72 -6q-23 0 -35 1q-9 0 -22.5 0.5t-30.5 -0.5h-37q-49 0 -81.5 -2
t-65.5 -11q-16 28 -16 38q0 8 7.5 11.5t25.5 5.5q52 3 155 3q104 0 155 -1q19 17 37 17q16 0 30 -10q4 -4 13 -8zM232 167q8 6 12 10.5t4 11.5q0 6 -3 13q-4 2 -2 6q-5 10 -3 24q-2 10 -2 16q-1 20 -15 20q-5 0 -15 -4q-5 -8 -12.5 -22t-15.5 -24t-18 -18q1 -2 1 -6
q0 -8 -8 -11l-2 -15q4 0 15.5 -0.5t19.5 -4.5t13 -14h15q3 7 16 18zM158 129l-5 1h-1z" />
    <glyph glyph-name="questiondown" unicode="&#xbf;" horiz-adv-x="421" 
d="M20 40q0 27 17 55l10 22q-1 3 -1 8q0 6 3 10q5 27 22.5 44t48.5 36l20 13q7 5 19 8t19 6q-2 30 -2 46q0 60 18 110q1 2 4 9.5t7.5 10.5t11.5 2q5 -1 10 -5.5t5 -8.5q5 -80 7 -180q0 -3 -8 -7.5t-11 -5.5q-7 -4 -29.5 -18.5t-50 -35t-43.5 -40.5q-2 -8 -2 -12
q-13 -23 -13 -56q0 -20 7 -50q28 -46 59.5 -70t64.5 -24q41 0 82 35q31 28 31 51q0 19 -19 39q-16 18 -16 27t12 16q3 2 14 9t20 7q12 0 22 -14q4 -6 12.5 -15.5t11.5 -17.5q4 -8 4 -22q0 -32 -25 -73.5t-60.5 -71t-63.5 -29.5q-6 0 -9 1q-77 15 -125 44t-69 92
q-15 32 -15 55zM128 560q0 20 9 39t31 43q0 3 2 11l64 -1q4 -7 7 -19l18 -6q4 -13 5 -17q16 -20 16 -39q0 -26 -29 -52q-25 -24 -57 -24q-27 0 -60 18q-6 34 -6 47z" />
    <glyph glyph-name="Agrave" unicode="&#xc0;" horiz-adv-x="578" 
d="M75 -4q-17 0 -39 5q-13 4 -22 14t-9 22q0 6 1 9q9 27 30 27q7 0 16 -3q7 -3 13 -3q11 0 18.5 8.5t9.5 20.5l30 149l31 150q6 27 15 58l6 24l10 33q1 45 13 103q2 10 7 33.5t6 39.5q2 29 19.5 48.5t43.5 19.5q22 0 36.5 -18.5t19.5 -45.5q29 -143 51.5 -267.5t28.5 -159.5
q17 -20 13 -38l8 -24q15 -41 16 -77q1 -25 18.5 -41t46.5 -20q16 -2 27 -10.5t11 -20.5q0 -16 -12.5 -25t-30.5 -9h-140q-15 1 -25.5 9t-15.5 21q-3 8 -3 12q0 14 22 23l6 4h-1q17 10 25.5 20.5t8.5 25.5q0 11 -4 23q-5 14 -5 37l1 23q1 9 1 27l-9 9q-21 10 -68 10
q-30 -2 -48 2q-44 -12 -71 -43.5t-27 -70.5q0 -13 3 -25q8 -30 40 -41h-1q23 -7 23 -23l-2 -8q-12 -28 -27 -28q-5 0 -10 3h1q-11 6 -24 6q-14 0 -36 -9l-19 -6h-1q-12 -3 -26 -3zM200 336q0 -16 9 -36q29 -12 63 -12q19 0 29 1q30 2 39 2q1 8 1 25q0 29 -5 59t-15 72
q-9 37 -15 70l-21 66q-2 6 -2 13q-1 10 -3.5 14t-11.5 3q-6 -1 -8 -5.5t-3 -12.5q0 -9 -1 -12v1q-17 -86 -39 -185l-7 -33l-1 -2q-9 -15 -9 -28zM203 950q0 8 7 17q10 12 25 12q26 0 60 -34q73 -75 73 -110q0 -8 -2 -11q-4 -8 -15 -8q-25 0 -87 54q-61 50 -61 80z" />
    <glyph glyph-name="Aacute" unicode="&#xc1;" horiz-adv-x="570" 
d="M76 -4q-18 0 -38 5q-12 3 -20 11.5t-8 20.5q0 5 1 8q7 23 25 23q6 0 15 -3q8 -3 15 -3q13 0 22 9.5t11 23.5q13 61 31 152q22 111 31 151q7 32 22 83l10 34q-1 23 2.5 47t10.5 57q11 44 13 75q2 26 18 45t40 19q20 0 34 -17.5t19 -43.5q29 -147 52 -273t29 -161
q8 -9 12 -17.5t1 -18.5q3 -11 8 -26q15 -44 16 -76q1 -28 20 -45.5t50 -21.5q14 -1 24 -8t10 -19q0 -14 -11 -21.5t-27 -7.5h-142q-26 1 -36 27q-2 4 -2 10q0 8 5 12.5t11 7.5l8 4q18 11 27.5 22.5t9.5 28.5q0 8 -5 25q-5 14 -5 35l1 22q2 22 1 32l-12 11q-21 10 -53 10h-33
q-22 0 -33 2q-47 -12 -76 -45.5t-29 -75.5q0 -12 3 -26q4 -15 15.5 -27t28.5 -18q24 -7 17 -25q-5 -13 -12.5 -20.5t-16.5 -2.5q-13 8 -28 8q-13 0 -30.5 -6.5t-25.5 -9.5q-12 -3 -26 -3zM198 335q0 -19 11 -39q27 -14 65 -14l31 1q30 2 46 1l-2 1q2 20 2 31q0 29 -5 57.5
t-15 73.5q-12 46 -16 74l-21 67q-1 5 -2 14t-4.5 14t-12.5 5q-11 0 -14.5 -6t-4 -14t-1.5 -13q-23 -112 -40 -188l-7 -33q-10 -16 -10 -32zM470 955q11 0 15 -8q2 -3 2 -11q0 -35 -73 -110q-34 -34 -60 -34q-15 0 -25 12q-7 9 -7 17q0 30 61 80q62 54 87 54z" />
    <glyph glyph-name="Acircumflex" unicode="&#xc2;" horiz-adv-x="565" 
d="M80 -4q-18 0 -38 5q-12 3 -20 11.5t-8 20.5q0 5 1 8q7 23 25 23q6 0 15 -3q8 -3 15 -3q13 0 22 9.5t11 23.5q13 61 31 152q22 111 31 151q7 32 22 83l10 34q-1 23 2.5 47t10.5 57q11 44 13 75q2 26 18 45t40 19q20 0 34 -17.5t19 -43.5q29 -147 52 -273t29 -161
q8 -9 12 -17.5t1 -18.5q3 -11 8 -26q15 -44 16 -76q1 -28 20 -45.5t50 -21.5q14 -1 24 -8t10 -19q0 -14 -11 -21.5t-27 -7.5h-142q-26 1 -36 27q-2 4 -2 10q0 8 5 12.5t11 7.5l8 4q18 11 27.5 22.5t9.5 28.5q0 8 -5 25q-5 14 -5 35l1 22q2 22 1 32l-12 11q-21 10 -53 10h-33
q-22 0 -33 2q-47 -12 -76 -45.5t-29 -75.5q0 -12 3 -26q4 -15 15.5 -27t28.5 -18q24 -7 17 -25q-5 -13 -12.5 -20.5t-16.5 -2.5q-13 8 -28 8q-13 0 -30.5 -6.5t-25.5 -9.5q-12 -3 -26 -3zM202 335q0 -19 11 -39q27 -14 65 -14l31 1q30 2 46 1l-2 1q2 20 2 31q0 29 -5 57.5
t-15 73.5q-12 46 -16 74l-21 67q-1 5 -2 14t-4.5 14t-12.5 5q-11 0 -14.5 -6t-4 -14t-1.5 -13q-23 -112 -40 -188l-7 -33q-10 -16 -10 -32zM198.5 802.5q-5.5 5.5 -4.5 13.5q2 47 25.5 79t62.5 32q29 0 64 -19q11 -6 17.5 -11.5t8.5 -14.5q0 -1 1.5 -7t4.5 -22l14 -51v-2
q0 -3 -2.5 -5.5t-5.5 -2.5h-15q-32 0 -32 40l1 19q-22 35 -49 35q-18 0 -31.5 -16t-16.5 -38l3 -11v-3q0 -8 -6 -14.5t-14 -6.5h-13q-7 0 -12.5 5.5z" />
    <glyph glyph-name="Atilde" unicode="&#xc3;" horiz-adv-x="578" 
d="M75 -4q-17 0 -39 5q-13 4 -22 14t-9 22q0 6 1 9q9 27 30 27q7 0 16 -3q7 -3 13 -3q11 0 18.5 8.5t9.5 20.5l30 149l31 150q6 27 15 58l6 24l10 33q1 45 13 103q2 10 7 33.5t6 39.5q2 29 19.5 48.5t43.5 19.5q22 0 36.5 -18.5t19.5 -45.5q29 -143 51.5 -267.5t28.5 -159.5
q17 -20 13 -38l8 -24q15 -41 16 -77q1 -25 18.5 -41t46.5 -20q16 -2 27 -10.5t11 -20.5q0 -16 -12.5 -25t-30.5 -9h-140q-15 1 -25.5 9t-15.5 21q-3 8 -3 12q0 14 22 23l6 4h-1q17 10 25.5 20.5t8.5 25.5q0 11 -4 23q-5 14 -5 37l1 23q1 9 1 27l-9 9q-21 10 -68 10
q-30 -2 -48 2q-44 -12 -71 -43.5t-27 -70.5q0 -13 3 -25q8 -30 40 -41h-1q23 -7 23 -23l-2 -8q-12 -28 -27 -28q-5 0 -10 3h1q-11 6 -24 6q-14 0 -36 -9l-19 -6h-1q-12 -3 -26 -3zM200 336q0 -16 9 -36q29 -12 63 -12q19 0 29 1q30 2 39 2q1 8 1 25q0 29 -5 59t-15 72
q-9 37 -15 70l-21 66q-2 6 -2 13q-1 10 -3.5 14t-11.5 3q-6 -1 -8 -5.5t-3 -12.5q0 -9 -1 -12v1q-17 -86 -39 -185l-7 -33l-1 -2q-9 -15 -9 -28zM162 939q9 -1 35 -5.5t28 -6.5q1 -1 15 -6t21 -16q4 -7 9 -14.5t6 -11.5q0 -4 14.5 -15t18.5 -11q3 0 11.5 1t22.5 1
q11 0 13 -2q1 -2 4 -2q14 0 24 3t22 8t21 9q8 3 28 17q10 7 22 7t21 -6.5t13 -18.5q1 -2 1 -5v-38q0 -2 3.5 -2t3.5 -1t-17 -13q-16 -10 -19.5 -15t-4.5 -5.5t-7 -0.5h-83q-12 0 -40 9t-37 12l-34 12l-52 54v14q-4 4 -14.5 15t-13.5 7q-2 -2 -11 -3t-12 -1q-26 -2 -30 -6
q-6 -5 -24 -10q-10 -3 -18.5 -7t-7.5 -7v-2q0 -4 -3 -8t-4 -5l-2.5 -2.5t-11.5 -10.5q-12 -11 -16 -13t-11 -1t-9 13.5t-2 20.5l48 54z" />
    <glyph glyph-name="Adieresis" unicode="&#xc4;" horiz-adv-x="578" 
d="M87 -4q-18 0 -38 5q-12 3 -20 11.5t-8 20.5q0 5 1 8q7 23 25 23q6 0 15 -3q7 -3 15 -3q13 0 22 9.5t11 23.5q13 61 31 152q22 111 31 151q7 32 22 83l10 34q-1 23 2.5 47t10.5 57q11 44 13 75q2 26 18 45t40 19q20 0 34 -17.5t19 -43.5q29 -148 52 -273.5t29 -160.5
q8 -9 12 -17.5t1 -18.5q3 -11 8 -26q15 -44 16 -76q1 -28 20 -45.5t50 -21.5q14 -1 24 -8t10 -19q0 -14 -11 -21.5t-27 -7.5h-142q-26 1 -36 27q-2 4 -2 10q0 8 5 12.5t11 7.5l8 4q18 11 27.5 22.5t9.5 28.5q0 8 -5 25q-5 14 -5 35l1 22q2 22 1 32l-12 11q-21 10 -53 10h-33
q-22 0 -33 2q-47 -12 -76 -45.5t-29 -75.5q0 -12 3 -26q4 -15 15.5 -27t28.5 -18q24 -7 17 -25q-5 -13 -12.5 -20.5t-16.5 -2.5q-13 8 -28 8q-13 0 -30.5 -6.5t-25.5 -9.5q-12 -3 -26 -3zM209 335q0 -19 11 -39q27 -14 65 -14l31 1q30 2 46 1l-2 1q2 20 2 31q0 29 -5 57.5
t-15 73.5q-12 46 -16 74l-21 67q-1 5 -2 14t-4.5 14t-12.5 5q-11 0 -14.5 -6t-4 -14t-1.5 -13q-23 -112 -40 -188l-7 -33q-10 -16 -10 -32zM146.5 812.5q-15.5 17.5 -21.5 34t-8 20.5l10 11q5 5 13 17q10 17 21.5 25.5t35.5 8.5l12 -1l23 -24q15 -36 15 -61
q0 -23 -12.5 -35.5t-36.5 -12.5q-36 0 -51.5 17.5zM334.5 823.5q-7.5 7.5 -11.5 13.5t-4 13q0 12 15 24q-3 5 1 9q2 14 4 23l20 3q12 11 26 11q10 0 18.5 -5t16 -11t10.5 -9q17 -34 17 -52q0 -27 -27 -46q-11 -10 -22 -10t-27 12q-14 11 -24 12z" />
    <glyph glyph-name="Aring" unicode="&#xc5;" horiz-adv-x="578" 
d="M75 -4q-17 0 -39 5q-13 4 -22 14t-9 22q0 6 1 9q9 27 30 27q7 0 16 -3q7 -3 13 -3q11 0 18.5 8.5t9.5 20.5l30 149l31 150q6 27 15 58l6 24l10 33q1 45 13 103q2 10 7 33.5t6 39.5q2 29 19.5 48.5t43.5 19.5q22 0 36.5 -18.5t19.5 -45.5q29 -143 51.5 -267.5t28.5 -159.5
q17 -20 13 -38l8 -24q15 -41 16 -77q1 -25 18.5 -41t46.5 -20h-1q16 -1 27.5 -9.5t11.5 -21.5q0 -16 -12.5 -25t-30.5 -9h-140q-15 1 -25.5 9t-15.5 21q-3 8 -3 12q0 14 22 23l6 4h-1q17 10 25.5 20.5t8.5 25.5q0 11 -4 23q-5 14 -5 37l1 23q1 9 1 27l-9 9q-21 10 -68 10
q-30 -2 -48 2q-44 -12 -71 -43.5t-27 -70.5q0 -13 3 -25q8 -30 40 -41h-1q23 -7 23 -23l-2 -8q-12 -28 -27 -28q-5 0 -10 3h1q-11 6 -24 6q-14 0 -36 -9l-19 -6h-1q-12 -3 -26 -3zM383 853l-1 -3v-1v-0.5t-1 -0.5q-5 -35 -32.5 -56.5t-62.5 -21.5q-22 0 -42.5 9.5
t-35.5 29.5h-1l-3 3q-1 1 -1 3q-1 1 -2 1t-2 2l-1 4v1q-1 0 -3 3v4h-1v1l-2 2v4q-1 1 -1 3v1l-1 3v1q-2 2 -2 4q-1 1 -0.5 2.5l0.5 1.5v1q-2 0 -2 3l1 4v17q0 1 3 4q6 32 21 48l4 2q2 6 23 17q19 11 51 11q8 0 20 -2h5l28 -8l10 -3l1.5 -6.5t10.5 -17.5q6 -9 13 -26.5
t6 -34.5l-1 -4zM200 336q0 -16 9 -36q29 -12 63 -12q19 0 29 1q30 2 39 2q1 8 1 25q0 29 -5 59t-15 72q-9 37 -15 70l-21 66q-2 6 -2 13q-1 10 -3.5 14t-11.5 3q-6 -1 -8 -5.5t-3 -12.5q0 -9 -1 -12v1q-17 -86 -39 -185l-7 -33l-1 -2q-9 -15 -9 -28zM324 810q15 9 18.5 16.5
t4.5 22.5q3 42 -13 62.5t-46 20.5q-13 0 -26 -3q0 -1 -1 -6t-4 -7q-4 -2 -14.5 -7t-17.5 -12.5t-9 -19.5v-1q0 -1 0.5 -1.5t-0.5 -1.5q-1 -30 11 -44.5t21.5 -20t10.5 -6.5l4 -2h5q2 0 2 -1h3v-1l4 2h1q1 0 4 -3h3q2 2 4 2h3q9 0 22 6l2 1h1l2 1q1 0 1 0.5v0.5l2 1z" />
    <glyph glyph-name="AE" unicode="&#xc6;" horiz-adv-x="827" 
d="M792 180q0 -35 -10 -91l-9 -57q0 -4 -4 -4q-131 -29 -258 -29q-69 0 -124 8v-3h-2q-12 0 -21 6q-31 4 -43 7q-13 3 -20 8t-6 17q0 11 5.5 15t18.5 7l22 4l18 3h-1q9 4 13 7t7 11l-16 150q-36 9 -44 9q-30 -2 -48 2q-44 -12 -71 -43.5t-27 -70.5q0 -13 3 -25q8 -30 40 -41
h-1q23 -7 23 -23l-2 -8q-12 -28 -27 -28q-5 0 -10 3h1q-11 6 -24 6q-14 0 -36 -9l-19 -6h-1q-12 -3 -26 -3q-17 0 -39 5q-13 4 -22 14t-9 22q0 6 1 9q9 27 30 27q7 0 16 -3q8 -3 13 -3q11 0 18.5 8.5t9.5 20.5l30 149l31 150q6 27 15 58l6 24l10 33q1 45 13 103q2 10 7 33.5
t6 39.5q2 29 18.5 48.5t42.5 19.5q7 0 11 -1l37 -12q10 9 24 9q1 0 22 -3q10 -2 14 -2q9 0 17 4q21 8 54 8l26 -1l21 -1q9 0 29 2q5 0 6 -3t1 -9q26 -11 62 -11q20 0 30 1q9 1 26 1q18 0 26 -1l14 19l4 2q59 -4 59 -65q0 -21 2 -61q2 -24 2 -42q-6 -19 -6 -36q0 -10 2 -30
l1 -10l-2 -4q-10 -7 -21 -7t-31 13q-2 2 -2 3q-1 5 -1 15q0 12 1 21t2 16q2 24 2 37q0 23 -6 41t-21 34l2 -1q-18 10 -60 8l-17 -1q-18 0 -27 3h-45q-49 0 -66.5 -3.5t-21.5 -15t-3 -44.5v-35.5t-3 -64.5v-20q0 -29 -8 -47q3 -17 3 -19q15 -15 20 -21q19 -1 47 -1q29 0 40 7
t13.5 24.5t4.5 70.5q1 17 5 24t12 7q7 0 27 -10q3 -3 3 -4v-4l-1 -11q0 -10 7 -12l3 -3q15 -90 15 -169q0 -149 -62 -141q-4 0 -4 4q-19 84 -38 122.5t-36 38.5q-23 0 -39 -54.5t-16 -113.5q0 -32 6 -55q-3 -13 -3 -24q0 -53 63 -53l16 1l31 -4q34 -4 48 -4q59 0 101 41
q12 29 12 70q0 15 -2 47l-2 36q0 19 7 27.5t26 10.5q3 0 5 -2q34 -45 34 -112zM319 295l69 9v206q-10 13 -10 38q0 13 4 43l3 26l-10 49q-9 9 -28 8h-6l-11 -1q-11 0 -18 3q-10 -16 -23 -43t-14 -32q0 -9 -1 -12v1q-17 -86 -39 -185l-7 -33l-1 -2q-9 -15 -9 -28q0 -16 9 -36
q28 -12 63 -12q19 0 29 1z" />
    <glyph glyph-name="Ccedilla" unicode="&#xc7;" horiz-adv-x="480" 
d="M84 90.5q-7 21.5 -22 62.5q-6 14 -8 21q-29 84 -29 177q0 69 15 139q1 4 1 12q0 19 18.5 73t43.5 97.5t46 43.5q5 11 13 16t23 10q3 1 10 3.5t12 6.5q15 9 25 9q17 0 24 -21l34 -14q6 2 12 0l48 -21q5 1 13 -7t12 -8q8 0 15 16q12 26 24 26q9 0 16.5 -13t8.5 -24
q10 -74 10 -113q0 -58 -17 -102h1q-11 -4 -24 -4t-23 5v33q-3 8 -6 15t-5 13q-2 4 -2.5 7t-0.5 5l-1 4q-6 95 -94 134h-11q-15 9 -29 9q-37 0 -67.5 -47t-41 -74.5t-35.5 -103.5q-9 -33 -9 -76q0 -39 7 -81t8 -49q7 -35 12 -74q0 -3 2.5 -21t10.5 -33t23 -22l36 -46
q31 -38 70 -38q31 0 72 26l1 1q22 11 31.5 28t18.5 47q3 16 9 31l3 67q4 3 11 10.5t12 11.5t12 4q3 0 9 -2q10 -4 12.5 -12t2 -18t0.5 -16q1 -9 1 -28q0 -80 -49 -137l-1 -1l-25 -21l-12 -12q-5 -7 -13 -10t-17.5 -5t-16.5 -4t-11 -6q-25 -13 -49 -11v-3q0 -6 4 -11t11 -6
l38 -11q18 -5 25 -22l17 -56q2 -8 2 -11q0 -6 -4 -16l-14 -29q-9 -18 -32 -26l-15 -4q-12 -4 -29 -4q-12 0 -24 3q-26 6 -33 9q-6 2 -19 15q-20 18 -20 42q0 9 3 18q0 1 0.5 5t5.5 4q7 0 23 -8q14 -6 14 -16q0 -6 -4 -9.5t-5 -4.5l23 -15q6 -3 11 -3q7 0 11 3l2 1
q5 -1 14.5 -3t15.5 -2q11 0 18 8q3 3 3 9q0 7 2 12q11 19 11 37q0 11 -3.5 18l-4.5 9l-21 15q-22 15 -50 14l-26 1l10 48l-42 21q-19 3 -50.5 29t-41.5 43q11 -14 4 7.5z" />
    <glyph glyph-name="Egrave" unicode="&#xc8;" horiz-adv-x="584" 
d="M201 425q19 -1 47 -1q29 0 40 7t13.5 24.5t4.5 70.5q1 17 5 24t12 7q7 0 27 -10q3 -3 3 -4v-4l-1 -11q0 -10 7 -12l3 -3q15 -90 15 -169q0 -149 -62 -141q-4 0 -4 4q-19 84 -38 122.5t-36 38.5q-23 0 -39 -54.5t-16 -113.5q0 -32 6 -55q-3 -13 -3 -24q0 -53 63 -53l16 1
l31 -4q34 -4 48 -4q59 0 101 41q12 29 12 70q0 15 -2 47l-2 36q0 19 7 27.5t26 10.5q3 0 5 -2q34 -45 34 -112q0 -35 -10 -91l-9 -57q0 -4 -4 -4q-131 -29 -258 -29q-98 0 -190 18q-13 3 -20 8t-6 17q0 11 5.5 15t18.5 7l22 4l18 3h-1q15 6 20.5 18.5t7.5 58.5t2 163v199
q-10 13 -10 38q0 13 4 43t4 41q0 45 -39 42h-6q-24 -1 -36.5 4.5t-12.5 31.5q0 14 8 20t21 9q2 1 7.5 2.5t7.5 3.5q11 11 27 11q7 0 12 -1t9 -2q10 -2 14 -2q9 0 17 4q21 8 54 8l26 -1l21 -1q9 0 29 2q5 0 6 -3t1 -9q26 -11 62 -11q20 0 30 1q9 1 26 1q18 0 26 -1l14 19l4 2
q59 -4 59 -65q0 -21 2 -61q2 -24 2 -42q-6 -19 -6 -36q0 -10 2 -30l1 -10l-2 -4q-10 -7 -21 -7t-31 13q-2 2 -2 3q-1 5 -1 15q0 12 1 21t2 16q2 24 2 37q0 23 -6 41t-21 34l2 -1q-18 10 -60 8l-17 -1q-18 0 -27 3h-45q-49 0 -66.5 -3.5t-21.5 -15t-3 -44.5v-35.5t-3 -64.5
v-20q0 -29 -8 -47q3 -17 3 -19t1 -3l-1 3q15 -15 20 -21zM206 950q0 8 7 17q10 12 25 12q26 0 60 -34q73 -75 73 -110q0 -8 -2 -11q-4 -8 -15 -8q-25 0 -87 54q-61 50 -61 80z" />
    <glyph glyph-name="Eacute" unicode="&#xc9;" horiz-adv-x="557" 
d="M99 81q6 13 8.5 60.5t2.5 170.5v201q-10 13 -10 37q0 14 4 42q1 8 2 18.5t1 23.5q0 23 -8.5 35.5t-30.5 12.5l-24 -1q-14 0 -22.5 6.5t-8.5 25.5q0 12 6.5 17t19.5 8t17 7q10 10 25 10q6 0 18.5 -3t18.5 -3q7 0 14 4q23 9 55 9l52 -1q17 0 26 1q1 -3 1 -10q26 -12 67 -12
l58 1q19 0 29 -1l15 21q28 -2 41.5 -17t13.5 -44q0 -20 2 -62q2 -28 2 -41q-6 -18 -6 -37q0 -14 1 -24t2 -17q-7 -5 -18 -5q-15 0 -29 11q-2 17 2 53q2 24 2 37q0 47 -28 78q-17 9 -45 9l-34 -1q-15 0 -28 3h-42q-50 0 -69.5 -3t-25.5 -13.5t-6 -36.5v-41q0 -45 -3 -75
q-1 -10 -0.5 -17.5t0.5 -13.5q0 -24 -8 -38q2 -14 4 -23l21 -22q20 -1 50 -1q32 0 44 7.5t15 26t5 74.5q1 26 15 26q7 0 23 -9l-1 -13q0 -13 10 -18q15 -92 15 -170q0 -144 -57 -138q-38 167 -80 167q-25 0 -42.5 -56.5t-17.5 -118.5q0 -33 6 -56q-3 -15 -3 -27
q0 -56 68 -56l16 1q12 -2 32 -4q34 -4 49 -4q32 0 58 10t49 34q12 29 12 73q0 14 -2 42t-2 42q0 17 6.5 24.5t23.5 9.5q33 -48 33 -110q0 -31 -10 -91q-6 -31 -9 -59q-133 -29 -261 -29q-102 0 -191 18q-11 2 -17 6.5t-5 14.5q0 9 5 12t15 5l40 7q17 7 23 20zM462 955
q11 0 15 -8q2 -3 2 -11q0 -35 -73 -110q-34 -34 -60 -34q-15 0 -25 12q-7 9 -7 17q0 30 61 80q62 54 87 54z" />
    <glyph glyph-name="Ecircumflex" unicode="&#xca;" horiz-adv-x="584" 
d="M201 425q19 -1 47 -1q29 0 40 7t13.5 24.5t4.5 70.5q1 17 5 24t12 7q7 0 27 -10q3 -3 3 -4v-4l-1 -11q0 -10 7 -12l3 -3q15 -90 15 -169q0 -149 -62 -141q-4 0 -4 4q-19 84 -38 122.5t-36 38.5q-23 0 -39 -54.5t-16 -113.5q0 -32 6 -55q-3 -13 -3 -24q0 -53 63 -53l16 1
l31 -4q34 -4 48 -4q59 0 101 41q12 29 12 70q0 15 -2 47l-2 36q0 19 7 27.5t26 10.5q3 0 5 -2q34 -45 34 -112q0 -35 -10 -91l-9 -57q0 -4 -4 -4q-131 -29 -258 -29q-98 0 -190 18q-13 3 -20 8t-6 17q0 11 5.5 15t18.5 7l22 4l18 3h-1q15 6 20.5 18.5t7.5 58.5t2 163v199
q-10 13 -10 38q0 13 4 43t4 41q0 45 -39 42h-6q-24 -1 -36.5 4.5t-12.5 31.5q0 14 8 20t21 9q2 1 7.5 2.5t7.5 3.5q11 11 27 11q7 0 12 -1t9 -2q10 -2 14 -2q9 0 17 4q21 8 54 8l26 -1l21 -1q9 0 29 2q5 0 6 -3t1 -9q26 -11 62 -11q20 0 30 1q9 1 26 1q18 0 26 -1l14 19l4 2
q59 -4 59 -65q0 -21 2 -61q2 -24 2 -42q-6 -19 -6 -36q0 -10 2 -30l1 -10l-2 -4q-10 -7 -21 -7t-31 13q-2 2 -2 3q-1 5 -1 15q0 12 1 21t2 16q2 24 2 37q0 23 -6 41t-21 34l2 -1q-18 10 -60 8l-17 -1q-18 0 -27 3h-45q-49 0 -66.5 -3.5t-21.5 -15t-3 -44.5v-35.5t-3 -64.5
v-20q0 -29 -8 -47q3 -17 3 -19t1 -3l-1 3q15 -15 20 -21zM198.5 864.5q-5.5 5.5 -4.5 13.5q2 47 25.5 79t62.5 32q29 0 64 -19q11 -6 17.5 -11.5t8.5 -14.5q0 -1 1.5 -7t4.5 -22l14 -51v-2q0 -3 -2.5 -5.5t-5.5 -2.5h-15q-32 0 -32 40l1 19q-22 35 -49 35q-18 0 -31.5 -16
t-16.5 -38l3 -11v-3q0 -8 -6 -14.5t-14 -6.5h-13q-7 0 -12.5 5.5z" />
    <glyph glyph-name="Edieresis" unicode="&#xcb;" horiz-adv-x="563" 
d="M107 81q6 13 8.5 60.5t2.5 170.5v201q-10 13 -10 37q0 14 4 42q1 8 2 18.5t1 23.5q0 23 -8.5 35.5t-30.5 12.5l-24 -1q-14 0 -22.5 6.5t-8.5 25.5q0 12 6.5 17t19.5 8t17 7q10 10 25 10q6 0 18.5 -3t18.5 -3q7 0 14 4q23 9 55 9l52 -1q17 0 26 1q1 -3 1 -10
q26 -12 67 -12l58 1q19 0 29 -1l15 21q28 -2 41.5 -17t13.5 -44q0 -20 2 -62q2 -28 2 -41q-6 -18 -6 -37q0 -14 1 -24t2 -17q-8 -5 -18 -5q-15 0 -29 11q-2 17 2 53q2 24 2 37q0 47 -28 78q-17 9 -45 9l-34 -1q-14 0 -28 3h-42q-50 0 -69.5 -3t-25.5 -13.5t-6 -36.5v-41
q0 -45 -3 -75q-1 -10 -0.5 -17.5t0.5 -13.5q0 -24 -8 -38q2 -14 4 -23l21 -22q20 -1 50 -1q32 0 44 7.5t15 26t5 74.5q1 26 15 26q7 0 23 -9l-1 -13q0 -13 10 -18q15 -92 15 -170q0 -144 -57 -138q-38 167 -80 167q-25 0 -42.5 -56.5t-17.5 -118.5q0 -33 6 -56
q-3 -15 -3 -27q0 -56 68 -56l16 1q12 -2 32 -4q34 -4 49 -4q32 0 58 10t49 34q12 29 12 73q0 14 -2 42t-2 42q0 17 6.5 24.5t23.5 9.5q33 -48 33 -110q0 -31 -10 -91q-6 -31 -9 -59q-133 -29 -261 -29q-102 0 -191 18q-11 2 -17 6.5t-5 14.5q0 9 5 12t15 5l40 7q17 7 23 20z
M131.5 810.5q-15.5 17.5 -21.5 34t-8 20.5l10 11q5 5 13 17q10 17 21.5 25.5t35.5 8.5l12 -1l23 -24q15 -36 15 -61q0 -23 -12.5 -35.5t-36.5 -12.5q-36 0 -51.5 17.5zM319.5 821.5q-7.5 7.5 -11.5 13.5t-4 13q0 12 15 24q-3 5 1 9q2 14 4 23l20 3q12 11 26 11q10 0 18.5 -5
t16 -11t10.5 -9q17 -34 17 -52q0 -27 -27 -46q-11 -10 -22 -10t-27 12q-14 11 -24 12z" />
    <glyph glyph-name="Igrave" unicode="&#xcc;" horiz-adv-x="415" 
d="M366 742q9 -9 11 -19t2 -26q0 -9 1 -14q1 -2 -1 -4t-4 -2q-38 -2 -122 -4q-24 -2 -36 -19q13 -22 23 -114.5t10 -202.5q0 -166 -21 -255q13 -14 28.5 -16.5t44.5 -2.5h19q49 -2 49 -29q0 -13 -14 -35l-4 -2q-95 -1 -285 -1h-4q-28 0 -44 6t-16 28t16.5 27.5t44.5 5.5h27
q20 -1 33.5 0.5t26.5 8.5q-1 0 -1 -2q0 1 2 3q7 15 9 43q0 14 1 21v-1q2 26 2 45q0 50 -7 148l-2 28q-1 16 -4 68t-3 90q0 72 11 108q2 9 2 24q0 41 -36 41q-11 0 -44 -7q-28 -6 -32 -3q-2 6 -8 8.5t-8 3.5q-11 6 -16.5 10t-5.5 12q0 6 3 12q5 13 13.5 15.5t24.5 1.5l13 -1
l297 3q3 0 4 -1zM121 950q0 8 7 17q10 12 25 12q26 0 60 -34q73 -75 73 -110q0 -8 -2 -11q-4 -8 -15 -8q-25 0 -87 54q-61 50 -61 80zM151 72v0.5t1 0.5q-1 0 -1 -1z" />
    <glyph glyph-name="Iacute" unicode="&#xcd;" horiz-adv-x="395" 
d="M373 725.5q2 -9.5 2 -21t1 -18.5q-40 -2 -124 -4q-17 -1 -29 -9t-17 -23q3 8 5 8q7 0 15 -47t13 -122t5 -154q0 -167 -21 -258q15 -16 33 -20t35 -3.5t22 0.5q53 0 53 -25q0 -12 -14 -32q-99 -1 -297 -1q-23 0 -37 5.5t-14 23.5q0 20 16 25t32 4.5t20 -0.5l31 -1
q31 0 49 12l2 3q5 9 7 19t3 26q0 13 1 20q2 24 2 43q0 31 -3 81t-4 72q-9 112 -9 184q0 75 11 112q3 15 3 26q0 46 -44 46q-12 0 -45 -7q-23 -5 -28 -3q-3 6 -17 12q-9 4 -13.5 7.5t-4.5 10.5q0 2 2 10q5 14 22 14l25 -1l301 3q8 -8 10 -17.5zM348 961q11 0 15 -8q2 -6 2 -9
q0 -21 -25.5 -57.5t-47.5 -54.5q-42 -33 -63 -33q-13 0 -22 11q-7 9 -7 17q0 30 61 80q62 54 87 54z" />
    <glyph glyph-name="Icircumflex" unicode="&#xce;" horiz-adv-x="393" 
d="M375 725.5q2 -9.5 2 -21t1 -18.5q-40 -2 -124 -4q-17 -1 -29 -9t-17 -23q3 8 5 8q7 0 15 -47t13 -122t5 -154q0 -167 -21 -258q15 -16 33 -20t35 -3.5t22 0.5q53 0 53 -25q0 -12 -14 -32q-99 -1 -297 -1q-23 0 -37 5.5t-14 23.5q0 20 16 25t32 4.5t20 -0.5l31 -1
q31 0 49 12l2 3q5 9 7 19t3 26q0 13 1 20q2 24 2 43q0 31 -3 81t-4 72q-9 112 -9 184q0 75 11 112q3 15 3 26q0 46 -44 46q-12 0 -45 -7q-23 -5 -28 -3q-3 6 -17 12q-9 4 -13.5 7.5t-4.5 10.5q0 2 2 10q5 14 22 14l25 -1l301 3q8 -8 10 -17.5zM141.5 811.5
q-5.5 5.5 -4.5 13.5q2 47 25.5 79t62.5 32q29 0 64 -19q11 -6 17.5 -11.5t8.5 -14.5q0 -1 1.5 -7t4.5 -22l14 -51v-2q0 -3 -2.5 -5.5t-5.5 -2.5h-15q-32 0 -32 40l1 19q-22 35 -49 35q-18 0 -31.5 -16t-16.5 -38l3 -11v-3q0 -8 -6 -14.5t-14 -6.5h-13q-7 0 -12.5 5.5z" />
    <glyph glyph-name="Idieresis" unicode="&#xcf;" horiz-adv-x="415" 
d="M366 742q9 -9 11 -19t2 -26q0 -9 1 -14q1 -2 -1 -4t-4 -2q-38 -2 -122 -4q-24 -2 -36 -19q13 -22 23 -114.5t10 -202.5q0 -166 -21 -255q13 -14 28.5 -16.5t44.5 -2.5h19q49 -2 49 -29q0 -13 -14 -35l-4 -2q-95 -1 -285 -1h-4q-28 0 -44 6t-16 28t16.5 27.5t44.5 5.5h27
q20 -1 33.5 0.5t26.5 8.5q-1 0 -1 -2q0 1 2 3q7 15 9 43q0 14 1 21v-1q2 26 2 45q0 50 -7 148l-2 28q-1 16 -4 68t-3 90q0 72 11 108q2 9 2 24q0 41 -36 41q-11 0 -44 -7q-28 -6 -32 -3q-2 6 -8 8.5t-8 3.5q-11 6 -16.5 10t-5.5 12q0 6 3 12q5 13 13.5 15.5t24.5 1.5l13 -1
l297 3q3 0 4 -1zM59.5 885.5q-15.5 17.5 -21.5 34t-8 20.5l10 11q5 5 13 17q10 17 21.5 25.5t35.5 8.5l12 -1l23 -24q15 -36 15 -61q0 -23 -12.5 -35.5t-36.5 -12.5q-36 0 -51.5 17.5zM247.5 896.5q-7.5 7.5 -11.5 13.5t-4 13q0 12 15 24q-3 5 1 9q2 14 4 23l20 3
q12 11 26 11q10 0 18.5 -5t16 -11t10.5 -9q17 -34 17 -52q0 -27 -27 -46q-11 -10 -22 -10t-27 12q-14 11 -24 12zM151 72v0.5t1 0.5q-1 0 -1 -1z" />
    <glyph glyph-name="Eth" unicode="&#xd0;" horiz-adv-x="645" 
d="M131 51q33 0 45 16.5t12 47.5q0 11 -2 33q-7 90 -8 138q-4 0 -32 -4q-46 -6 -64 -8q-15 -1 -28.5 5.5t-29.5 18.5l-9 19q22 0 32 24h93q10 -19 27 -19q7 0 11 2q-1 79 5 162q3 41 3 74q0 35 -6 78q-3 21 -19 34.5t-41 10.5q-18 -2 -31 8t-13 26q0 25 25 25q6 0 12 -1
t11 -1q13 -1 38 -1l56 1q18 1 55 1q81 0 133 -19q17 -7 26.5 -12.5t16.5 -16.5q49 -13 73 -49.5t43 -95.5q26 -81 26 -169q0 -111 -44 -240q-39 -111 -133 -126q-5 -9 -13 -11.5t-20 -2.5h-177l-107 -1q-10 0 -16 4.5t-6 16.5q1 13 11 23t23 10zM365 342q11 0 18.5 -9
t7.5 -28q0 -44 -55 -44q-23 0 -47 6l-54 12l-2 -153q-7 -26 -7 -43q0 -40 40 -45q36 -4 55 -4q41 0 68 15q18 3 32.5 11.5t33.5 23.5q19 17 30.5 38.5t18.5 47t13 50.5q21 92 21 173q0 169 -77 229t-129 68.5t-54 9.5q-6 3 -11 3q-9 0 -15.5 -6.5t-7.5 -16.5q-1 6 -8 -342
q7 -2 32 -4q8 0 22 -4q5 -1 11 -2t14 -1q16 0 30 9q9 6 20 6z" />
    <glyph glyph-name="Ntilde" unicode="&#xd1;" horiz-adv-x="611" 
d="M570 714q0 -20 -11 -37l-4 -2q-34 -2 -47 -6t-13 -11q0 -3 6 -15q1 -2 8.5 -18t7.5 -34q0 -28 -17 -55v-502q0 -5 -5 -5h-7q-26 -24 -42 -24q-23 0 -35 44v-1q-15 39 -66.5 175.5t-100.5 275.5q-16 50 -43 95v-1q-10 18 -16 18q-8 0 -11 -23q4 -12 4 -17q0 -6 -3 -12
l2 -55l1 -24q4 -84 4 -140q0 -71 -7 -112q3 -13 8 -31q1 -4 6 -25.5t5 -43.5q0 -17 -4 -33q-3 -15 8.5 -26.5t30.5 -18.5l-1 1l13 -3q12 -2 18 -5.5t6 -14.5q0 -28 -39 -26h-9q-21 -1 -67 -1q-45 0 -66 2q-11 0 -14 -1q-5 -1 -16 -1q-24 0 -28 25q-2 13 8.5 22.5t22.5 14.5
t16 6q3 0 5 -2q8 -9 15 -9q10 0 18.5 12t8.5 23q0 7 -3 10q-14 24 -14 111q0 48 8 182l4 73q10 147 12 207q-15 11 -26 16.5t-25 4.5q-41 -3 -40 37q0 5 5 5q23 0 45 3q24 3 47 3q24 0 44.5 -7t40.5 -24l33 -85q17 -46 31 -79l25 -66l8 -18q1 -3 5.5 -11.5t6.5 -16.5t2 -16
q44 -67 62 -119.5t25 -98.5q3 -18 5 -25t8 -7q4 0 10 3q-1 9 -1 39q0 72 9 242q4 84 4 110q0 57 -8.5 83t-26.5 35t-59 15q-2 0 -3 1.5t-1 3.5q-1 10 -1 30q0 2 1 3.5t3 1.5q28 6 68 6q29 0 44 -1q18 -1 58 -1q44 0 44 -29zM178 939q9 -1 35 -5t28 -7q1 -1 15 -6t21 -16
q4 -7 9 -14.5t6 -11.5q0 -4 14.5 -15t18.5 -11q3 0 11.5 1t22.5 1q11 0 13 -2q1 -2 4 -2q14 0 24 3t22 8t21 9q8 3 28 17q10 7 22 7t21 -6.5t13 -18.5q1 -2 1 -5v-38q0 -2 3.5 -2t3.5 -1t-17 -13q-15 -10 -19 -15t-5 -5.5t-7 -0.5h-83q-12 0 -40 9t-37 12l-34 12l-52 54v14
q-4 4 -14.5 15t-13.5 7q-2 -2 -11 -3t-12 -1q-26 -2 -30 -6q-6 -5 -24 -10q-10 -3 -18.5 -7t-7.5 -7v-2q0 -4 -3 -8t-4 -5l-2.5 -2.5t-11.5 -10.5q-12 -11 -16 -13t-11 -1t-9 13.5t-2 20.5l48 54z" />
    <glyph glyph-name="Ograve" unicode="&#xd2;" horiz-adv-x="517" 
d="M455.5 634.5q19.5 -52.5 21.5 -113.5l1 -21l1 -40q2 -54 2 -79q0 -54 -5 -119q-8 -86 -46.5 -152.5t-112.5 -102.5q-21 -11 -44 -11q-46 0 -111 46h1q-30 16 -47 39t-25 47t-17 64q-10 40 -17 62q-2 8 -9 17q-14 24 -14 39q0 9 6 21q-7 28 -7 62q0 31 9 58q9 21 12 45
t3 28q4 35 9.5 58t20.5 44q18 70 68.5 107.5t111.5 37.5q37 0 71 -12.5t59 -36.5q39 -35 58.5 -87.5zM414 398q0 109 -23 224q-9 42 -42.5 67.5t-74.5 25.5q-34 0 -67 -23q-59 -48 -84 -135.5t-25 -189.5q0 -21 2 -61l7 -11v1q2 -4 8 -14t8 -20q22 -104 81 -163
q20 -17 34 -26t29 -9q14 0 30 11q39 33 63.5 62t33.5 67q20 93 20 194zM172 950q0 8 7 17q10 12 25 12q26 0 60 -34q73 -75 73 -110q0 -8 -2 -11q-4 -8 -15 -8q-25 0 -87 54q-61 50 -61 80z" />
    <glyph glyph-name="Oacute" unicode="&#xd3;" horiz-adv-x="517" 
d="M441.5 635q19.5 -52 21.5 -112q4 -100 4 -148q0 -51 -5 -114q-9 -87 -47.5 -153t-111.5 -102q-20 -10 -42 -10q-45 0 -110 46q-41 22 -57.5 56.5t-29.5 92.5q-11 45 -17 63q-1 4 -10 19q-5 8 -9 17.5t-4 18.5q0 10 7 21q-8 34 -8 63t9 57q9 21 11.5 46t3.5 29
q4 36 9.5 58.5t20.5 43.5q17 71 66.5 107.5t111.5 36.5q36 0 70 -12.5t59 -36.5q38 -35 57.5 -87zM409 398q0 114 -24 228q-9 44 -44.5 71t-78.5 27q-39 0 -71 -24q-112 -88 -112 -333q0 -22 2 -62q4 -7 12 -20t11 -26q22 -107 84 -168q23 -18 37 -27t30 -9q17 0 33 12
q40 32 65 62.5t35 71.5q21 92 21 197zM466 955q11 0 15 -8q2 -3 2 -11q0 -35 -73 -110q-34 -34 -60 -34q-15 0 -25 12q-7 9 -7 17q0 30 61 80q62 54 87 54z" />
    <glyph glyph-name="Ocircumflex" unicode="&#xd4;" horiz-adv-x="497" 
d="M445.5 635q19.5 -52 21.5 -112q4 -100 4 -148q0 -51 -5 -114q-9 -87 -47.5 -153t-111.5 -102q-20 -10 -42 -10q-45 0 -110 46q-41 22 -57.5 56.5t-29.5 92.5q-11 45 -17 63q-1 4 -10 19q-5 8 -9 17.5t-4 18.5q0 10 7 21q-8 34 -8 63t9 57q9 21 11.5 46t3.5 29
q4 36 9.5 58.5t20.5 43.5q17 71 66.5 107.5t111.5 36.5q36 0 70 -12.5t59 -36.5q38 -35 57.5 -87zM413 398q0 114 -24 228q-9 44 -44.5 71t-78.5 27q-39 0 -71 -24q-112 -88 -112 -333q0 -22 2 -62q4 -7 12 -20t11 -26q22 -107 84 -168q23 -18 37 -27t30 -9q17 0 33 12
q40 32 65 62.5t35 71.5q21 92 21 197zM186.5 798.5q-5.5 5.5 -4.5 13.5q2 47 25.5 79t62.5 32q29 0 64 -19q11 -6 17.5 -11.5t8.5 -14.5q0 -1 1.5 -7t4.5 -22l14 -51v-2q0 -3 -2.5 -5.5t-5.5 -2.5h-15q-32 0 -32 40l1 19q-22 35 -49 35q-18 0 -31.5 -16t-16.5 -38l3 -11v-3
q0 -8 -6 -14.5t-14 -6.5h-13q-7 0 -12.5 5.5z" />
    <glyph glyph-name="Otilde" unicode="&#xd5;" horiz-adv-x="517" 
d="M455.5 634.5q19.5 -52.5 21.5 -113.5l1 -21l1 -40q2 -54 2 -79q0 -54 -5 -119q-8 -86 -46.5 -152.5t-112.5 -102.5q-21 -11 -44 -11q-46 0 -111 46h1q-30 16 -47 39t-25 47t-17 64q-10 40 -17 62q-2 8 -9 17q-14 24 -14 39q0 9 6 21q-7 28 -7 62q0 31 9 58q9 21 12 45
t3 28q4 35 9.5 58t20.5 44q18 70 68.5 107.5t111.5 37.5q37 0 71 -12.5t59 -36.5q39 -35 58.5 -87.5zM414 398q0 109 -23 224q-9 42 -42.5 67.5t-74.5 25.5q-34 0 -67 -23q-59 -48 -84 -135.5t-25 -189.5q0 -21 2 -61l7 -11v1q2 -4 8 -14t8 -20q22 -104 81 -163
q20 -17 34 -26t29 -9q14 0 30 11q39 33 63.5 62t33.5 67q20 93 20 194zM132 939q9 -1 35 -5t28 -7q1 -1 15 -6t21 -16q4 -7 9 -14.5t6 -11.5q0 -4 14.5 -15t18.5 -11q3 0 11.5 1t22.5 1q11 0 13 -2q1 -2 4 -2q14 0 24 3t22 8t21 9q8 3 28 17q10 7 22 7t21 -6.5t13 -18.5
q1 -2 1 -5v-38q0 -2 3.5 -2t3.5 -1t-17 -13q-16 -10 -19.5 -15t-4.5 -5.5t-7 -0.5h-83q-12 0 -40 9t-37 12l-34 12l-52 54v14q-4 4 -14.5 15t-13.5 7q-2 -2 -11 -3t-12 -1q-26 -2 -30 -6q-6 -5 -24 -10q-10 -3 -18.5 -7t-7.5 -7v-2q0 -4 -3 -8t-4 -5l-2.5 -2.5t-11.5 -10.5
q-12 -11 -16 -13t-11 -1t-9 13.5t-2 20.5l48 54z" />
    <glyph glyph-name="Odieresis" unicode="&#xd6;" horiz-adv-x="504" 
d="M448.5 635q19.5 -52 21.5 -112q4 -100 4 -148q0 -51 -5 -114q-9 -87 -47.5 -153t-111.5 -102q-20 -10 -42 -10q-45 0 -110 46q-41 22 -57.5 56.5t-29.5 92.5q-11 45 -17 63q-1 4 -10 19q-5 8 -9 17.5t-4 18.5q0 10 7 21q-8 34 -8 63t9 57q9 21 11.5 46t3.5 29
q4 36 9.5 58.5t20.5 43.5q17 71 66.5 107.5t111.5 36.5q36 0 70 -12.5t59 -36.5q38 -35 57.5 -87zM416 398q0 114 -24 228q-9 44 -44.5 71t-78.5 27q-39 0 -71 -24q-112 -88 -112 -333q0 -22 2 -62q4 -7 12 -20t11 -26q22 -107 84 -168q23 -18 37 -27t30 -9q17 0 33 12
q40 32 65 62.5t35 71.5q21 92 21 197zM157.5 822.5q-15.5 17.5 -21.5 34t-8 20.5l10 11q5 5 13 17q10 17 21.5 25.5t35.5 8.5l12 -1l23 -24q15 -36 15 -61q0 -23 -12.5 -35.5t-36.5 -12.5q-36 0 -51.5 17.5zM345.5 833.5q-7.5 7.5 -11.5 13.5t-4 13q0 12 15 24q-3 5 1 9
q2 14 4 23l20 3q12 11 26 11q10 0 18.5 -5t16 -11t10.5 -9q17 -34 17 -52q0 -27 -27 -46q-11 -10 -22 -10t-27 12q-14 11 -24 12z" />
    <glyph glyph-name="multiply" unicode="&#xd7;" horiz-adv-x="317" 
d="M198 320q0 -5 5 -11t12 -12l22 -22q0 -1 -0.5 -3t-0.5 -3q1 -1 2.5 -0.5t2.5 0.5q2 0 2 -4q1 -1 2 -0.5t2 -0.5q2 -2 2 -3t-0.5 -3t-0.5 -3q1 -1 2.5 0t2.5 0l4 -2q0 -1 -1 -3t0 -3l3 -2q1 -1 2 -1t1 -1l4 -2q0 -1 2 -3q0 -2 3 -2q0 -3 1 -4t0 -2.5t0 -2.5l2 -3l2 -3
l2 -2q1 -1 1 -4q1 -1 3 -0.5t3 -0.5q0 -1 -1.5 -2.5t-1.5 -2.5q5 -15 5 -22q0 -21 -20 -21q-12 0 -26.5 9t-26.5 25q0 2 -5 11t-21 31l-4 2q-1 1 -1 4q-1 0 -1 1t-1 2t-2.5 0t-2.5 0l-15 23h-1q-3 0 -2.5 -2.5l0.5 -2.5q-2 -2 -2 -3q-1 -1 -2 -1t-1 -1l-4 -2q0 -2 -1 -3
l-2 -4q0 -2 -1 -3l-3 -3q-11 -16 -15 -20.5t-5 -4.5v-1t-1 -2q-15 -20 -27 -38q-19 -27 -23 -27q-1 0 -4 3t-7 5q-1 1 -1.5 0.5t-1.5 0.5t-2 0.5t-2 -0.5q-20 11 -20 27q0 24 44 74l3 3q3 2 13 10.5t22 21.5q1 1 0 2.5t0 2.5t2 0.5t2 0.5l4.5 4.5t3.5 8.5q0 7 -5 14
q-1 1 -2.5 1t-2.5 1q0 1 -1 1t-2 1l-2 3q0 3 -1 4q0 2 -1 3t-2.5 1t-1.5 1q-1 1 0 2t0 2l-4 2q0 1 0.5 2.5t0.5 2.5l-2 3q-1 1 -2.5 0.5t-2.5 -0.5q-2 0 -1.5 2l0.5 2q-2 2 -2 3q-1 1 -2 1t-1 1q-1 1 -0.5 2t-0.5 2t-0.5 2t-0.5 2l-4 2q-1 1 -0.5 2t0.5 2q-1 1 -2.5 0.5
t-2.5 0.5t-0.5 2t-0.5 2q0 1 -2 3v4q-1 1 -2.5 0.5t-2.5 0.5t0 2.5t1 2.5q-1 1 -2.5 0.5t-1.5 0.5l-3 3l1 4q-1 1 -2.5 1t-2.5 1q0 1 -1 1t-2 1t0 2.5t1 2.5q-1 1 -2.5 0.5t-1.5 0.5q-15 20 -15 37q0 12 7 19t16 9t11 -1q2 -2 2 -4v-2q0 -3 4 -8q1 0 1.5 -0.5l1.5 -1.5t0 -2
t0 -2t3 -1t2 -1q1 -1 1.5 -0.5t1.5 -0.5t0 -3t-1 -3l3 -3q1 -1 2.5 0t2.5 0t-0.5 -3t-1.5 -3q2 -1 3.5 0t2.5 0t0 -2.5t0 -2.5q0 -1 0.5 -1.5l1.5 -1.5t0.5 -1.5t0.5 -1.5t3 -1t2 -1q1 -1 0.5 -1.5t0.5 -1.5l1.5 -1.5l1.5 -1.5t0 -2t0 -2t3 -0.5t2 -0.5l2 -3q0 -1 -0.5 -2.5
t-0.5 -2.5l1.5 -1.5t1.5 -0.5q1 -1 2.5 -0.5t2.5 -0.5l2 -3q0 -1 -1 -3t0 -3t2.5 0t2.5 0t0.5 -2t0.5 -2l1.5 -1.5l1.5 -1.5t0 -2t0 -2t2.5 -0.5t2.5 -0.5t0 -2t0 -2l1.5 -1.5l1.5 -1.5t2 -0.5t2 -0.5t-0.5 -3t-1.5 -3q1 -1 3 -0.5t3 0.5q3 -4 5 -7.5t3 -3.5q2 0 19 24
q1 1 0 2t0 2t3 0.5t3 0.5q0 1 -1 2.5t0 2.5t0.5 1.5t0.5 1.5l15 21q1 0 3 -0.5t3 0.5t0.5 2t0.5 2l1.5 1.5t1.5 0.5l1 4l3 2l2 3l1.5 1.5l1.5 1.5l3 2q1 1 0 2.5t-1 2.5l1.5 1.5t1.5 0.5q1 1 2 1t2 1l1 4l3 2q1 1 0 3t-1 3q1 0 3 -0.5t3 0.5q0 1 2 6.5t6.5 10.5t9.5 5
q6 0 12 -7q1 0 2 -3q1 -1 0.5 -2t0.5 -2t2 -0.5t2 -0.5q1 0 4 -1.5t3 -7.5q0 -12 -19 -40l0.5 -2t-1.5 -5l-3 -3q-1 -1 -2 -0.5t-2 -0.5l-2 -3q-1 -1 -1 -4l-3 -3v-4l-3 -2q0 -1 -1 -1.5t-1 -1.5q-1 -1 -1 -3q-1 -1 -1 -4l-3 -3q0 -2 -1 -3t-2.5 -0.5t-2.5 -0.5q0 -3 -1 -4
q0 -1 -1.5 -1t-1.5 -1l-2 -3l-2 -3q0 -1 -1 -1.5t-1 -1.5q-1 -1 -1 -3q-1 -1 -0.5 -2.5t0.5 -2.5l-5 -6l-2 -2q-1 -1 -2.5 -0.5t-2.5 -0.5t-0.5 -2t-0.5 -2q-12 -18 -12 -25z" />
    <glyph glyph-name="Oslash" unicode="&#xd8;" horiz-adv-x="565" 
d="M530 711q0 -10 -6 -22t-12 -23l-42 -68q10 -40 11 -77l1 -21l1 -40q2 -54 2 -79q0 -54 -5 -119q-8 -86 -46.5 -152.5t-112.5 -102.5q-21 -11 -44 -11q-46 0 -111 46h1q-11 6 -20 13l-12 -22h-1t-17 -19q-8 -9 -11 -19.5t-5 -26.5q-2 -14 -4 -21l-10 -10l-1 -1
q-13 -3 -23 -3q-26 0 -26 23q0 13 8 34q8 18 29 65.5t22 48.5l7 6q-14 30 -25 82q-10 40 -17 62q-2 8 -9 17q-14 24 -14 39q0 9 6 21q-7 28 -7 62q0 31 9 58q9 21 12 45t3 28q4 35 9.5 58t20.5 44q18 70 68.5 107.5t111.5 37.5q37 0 71 -12.5t59 -36.5q23 -21 40 -51l1 2
q11 7 18 17.5t15 26.5q8 17 15 27q40 -8 40 -33zM154 177q6 14 13 34q2 4 5.5 9.5t7.5 12.5q21 31 35 57q25 42 77 124q66 100 109 178l-6 30q-9 42 -42.5 67.5t-74.5 25.5q-34 0 -67 -23q-59 -48 -84 -135.5t-25 -189.5q0 -21 2 -61l7 -11v1q2 -4 8 -14t8 -20q9 -44 27 -85
zM418 398q0 52 -6 104q-163 -271 -164 -274q-23 -34 -63 -104q7 -9 23 -25q20 -17 34 -26t29 -9q14 0 30 11q39 33 63.5 62t33.5 67q20 93 20 194z" />
    <glyph glyph-name="Ugrave" unicode="&#xd9;" horiz-adv-x="581" 
d="M25.5 687q-7.5 4 -7.5 17q0 21 41 29t99 10l27 2q14 4 26 -8t14 -28q3 -6 3 -11q0 -18 -38 -15q-21 -1 -27.5 -14t-6.5 -36v-482q11 -10 27 -42q7 -14 17.5 -27.5t22.5 -18.5h-1q26 -8 47 -8q48 0 84.5 27.5t36.5 71.5l-1 80q0 132 10 294l2 28q4 62 4 74q0 30 -8.5 40
t-33.5 14q-26 2 -26 23q0 18 40 29.5t92 11.5q26 0 48 -3q12 -2 21 -13t9 -25q0 -16 -9.5 -20.5t-27.5 -5.5q-30 0 -42 -19t-12 -58q0 -30 7 -97q11 -110 11 -176q0 -117 -26 -222q-23 -59 -67 -91t-103 -32q-30 0 -58 7q-15 14 -41 25q-25 12 -39 23t-21 36v-1
q-3 9 -5.5 18t-5.5 17q-7 18 -10 34q-6 7 -8.5 17.5t-3 58.5t-0.5 131q0 180 -1 330h-39q-13 1 -20.5 5zM204 950q0 8 7 17q10 12 25 12q26 0 60 -34q73 -75 73 -110q0 -8 -2 -11q-4 -8 -15 -8q-25 0 -87 54q-61 50 -61 80z" />
    <glyph glyph-name="Uacute" unicode="&#xda;" horiz-adv-x="558" 
d="M20 695q-7 3 -7 13q0 18 37.5 24.5t99.5 10.5l29 2q13 3 23 -7.5t11 -26.5q3 -6 3 -9q0 -13 -33 -10q-20 0 -28.5 -7t-10 -17.5t-1.5 -31.5v-491q9 -7 15 -16.5t13 -25.5q9 -19 18 -31t25 -18q26 -8 49 -8q52 0 90 29.5t37 77.5q-1 31 -1 88q0 98 3 164t8 154q4 66 4 76
q0 32 -9 43t-36 15q-22 2 -22 17q0 17 39 27.5t90 10.5q24 0 47 -3q10 -2 18 -11.5t8 -21.5q0 -14 -8 -17.5t-24 -4.5q-34 0 -47 -20.5t-13 -63.5q0 -31 7 -96q11 -112 11 -179q0 -117 -25 -222q-23 -59 -66.5 -91t-101.5 -32q-29 0 -56 7h-1q-13 12 -41 25q-25 11 -38 22
t-20 34l-22 70q-8 10 -10 28.5t-2 151.5t-1 367h-41q-13 1 -20 4zM464 955q11 0 15 -8q2 -3 2 -11q0 -35 -73 -110q-34 -34 -60 -34q-15 0 -25 12q-7 9 -7 17q0 30 61 80q62 54 87 54z" />
    <glyph glyph-name="Ucircumflex" unicode="&#xdb;" horiz-adv-x="581" 
d="M25.5 687q-7.5 4 -7.5 17q0 21 41 29t99 10l27 2q14 4 26 -8t14 -28q3 -6 3 -11q0 -18 -38 -15q-21 -1 -27.5 -14t-6.5 -36v-482q11 -10 27 -42q7 -14 17.5 -27.5t22.5 -18.5h-1q26 -8 47 -8q48 0 84.5 27.5t36.5 71.5l-1 80q0 132 10 294l2 28q4 62 4 74q0 30 -8.5 40
t-33.5 14q-26 2 -26 23q0 18 40 29.5t92 11.5q26 0 48 -3q12 -2 21 -13t9 -25q0 -16 -9.5 -20.5t-27.5 -5.5q-30 0 -42 -19t-12 -58q0 -30 7 -97q11 -110 11 -176q0 -117 -26 -222q-23 -59 -67 -91t-103 -32q-30 0 -58 7q-15 14 -41 25q-25 12 -39 23t-21 36v-1
q-3 9 -5.5 18t-5.5 17q-7 18 -10 34q-6 7 -8.5 17.5t-3 58.5t-0.5 131q0 180 -1 330h-39q-13 1 -20.5 5zM194.5 817.5q-5.5 5.5 -4.5 13.5q2 47 25.5 79t62.5 32q29 0 64 -19q11 -6 17.5 -11.5t8.5 -14.5q0 -1 1.5 -7t4.5 -22l14 -51v-2q0 -3 -2.5 -5.5t-5.5 -2.5h-15
q-32 0 -32 40l1 19q-22 35 -49 35q-18 0 -31.5 -16t-16.5 -38l3 -11v-3q0 -8 -6 -14.5t-14 -6.5h-13q-7 0 -12.5 5.5z" />
    <glyph glyph-name="Udieresis" unicode="&#xdc;" horiz-adv-x="564" 
d="M27 695q-7 3 -7 13q0 18 37.5 24.5t99.5 10.5l29 2q13 3 23 -7.5t11 -26.5q3 -6 3 -9q0 -13 -33 -10q-20 0 -28.5 -7t-10 -17.5t-1.5 -31.5v-491q9 -7 15 -16.5t13 -25.5q9 -19 18 -31t25 -18q26 -8 49 -8q52 0 90 29.5t37 77.5q-1 31 -1 88q0 98 3 164t8 154q4 66 4 76
q0 32 -9 43t-36 15q-22 2 -22 17q0 17 39 27.5t90 10.5q25 0 47 -3q10 -2 18 -11.5t8 -21.5q0 -14 -8 -17.5t-24 -4.5q-34 0 -47 -20.5t-13 -63.5q0 -31 7 -96q11 -112 11 -179q0 -117 -25 -222q-23 -59 -66.5 -91t-101.5 -32q-29 0 -56 7h-1q-13 12 -41 25q-25 11 -38 22
t-20 34l-22 70q-8 10 -10 28.5t-2 151.5t-1 367h-41q-13 1 -20 4zM134.5 812.5q-15.5 17.5 -21.5 34t-8 20.5l10 11q2 14 23.5 32t43.5 18t38 -24q15 -36 15 -61q0 -23 -12.5 -35.5t-36.5 -12.5q-36 0 -51.5 17.5zM322.5 823.5q-7.5 7.5 -11.5 13.5t-4 13q0 12 15 24
q-3 5 1 9q2 14 4 23l20 3q12 11 26 11q10 0 18.5 -5t16 -11t10.5 -9q17 -34 17 -52q0 -27 -27 -46q-11 -10 -22 -10t-27 12q-14 11 -24 12z" />
    <glyph glyph-name="Yacute" unicode="&#xdd;" horiz-adv-x="584" 
d="M554 743.5q7 -12.5 7 -23.5q0 -17 -25 -28q-8 11 -22 11q-7 0 -15 -3l-25 -47l-56 -108q-4 -3 -6 -10q-11 -9 -42.5 -71.5t-40.5 -83.5q-12 -50 -12 -127q0 -27 2 -79q0 -12 1.5 -41t0.5 -52q0 -7 2 -23h29q9 0 24 0.5t35 -0.5h11q9 0 15 -2.5t9 -11.5q3 -10 -1.5 -17
t-15.5 -17q-11 -11 -18 -16.5t-11 -5.5t-19 5t-53 5h-73q-55 0 -79 2.5t-34 11.5t-11 29q14 12 30 14.5t46 2.5q17 0 29.5 2t23.5 9l-1 275q0 16 -4 27.5t-17 18.5q1 8 -32.5 75t-71 135.5t-44.5 74.5l-9 8q-9 5 -26 9q-21 5 -31.5 12t-10.5 25q0 4 2 16q3 -1 8 2l47 -1
q32 0 94 -2q4 0 14 -0.5t15.5 -3.5t5.5 -9t-9 -21l-12 -10q-18 -7 -26.5 -14.5t-8.5 -16.5t8 -22t26 -33q10 -10 16.5 -22t11.5 -25.5t8 -21.5l15 -24q8 -5 14.5 -15.5t11.5 -21.5q8 -17 14 -25t15 -8q3 0 9 2q23 9 40.5 37t27.5 65q3 4 7.5 11t7.5 13q2 5 15 28
q12 20 18.5 34.5t6.5 28.5q0 32 -44 57v0.5t-1 0.5q0 3 -1 4q20 13 52 13h27q19 0 27 2h36l35 11q1 -2 8 -14.5zM472 955q11 0 15 -8q2 -3 2 -11q0 -35 -73 -110q-34 -34 -60 -34q-15 0 -25 12q-7 9 -7 17q0 30 61 80q62 54 87 54z" />
    <glyph glyph-name="Thorn" unicode="&#xde;" horiz-adv-x="360" 
d="M353 396.5q-7 -44.5 -13 -53.5t-10.5 -25t-6.5 -20t-6.5 -8t-5.5 -5q-2 -3 -9 -9.5t-10 -5.5t-26.5 -15t-31.5 -22q-3 -3 -12.5 -10.5t-11.5 -10.5t-18.5 -6t-26.5 -3h-55q-4 0 -3 0.5t-2 1.5q-4 1 -8 0.5t-5 -0.5l-12 11q0 -4 11 -39q-2 8 -2 11l19 -68l-9 -32v-73
l-1 -3q0 -2 -1.5 -11t-5.5 -9q-2 0 -7 6q-3 4 -6 4q-2 0 -5 -2t-7 -2q-6 0 -11.5 13t-7.5 15q-3 4 0 12v3q0 68 -5 79q-2 4 -2 13t1 15.5t1 8.5q0 9 -1 34.5t-1 54.5l1 25q2 9 3.5 28.5t6.5 33.5q3 11 3 33l-1 56q0 21 2 25q2 5 2 17q0 10 -1.5 21t-0.5 15q1 9 1 24.5
t1 30.5q0 14 1 42.5t2 29.5q1 2 1 11l-1 22l-29 20l29 39l-29 46h20l22 12h24q1 -4 6 -32t5 -32t2.5 -7t3.5 -4l-9 -152q2 3 10 8t16 5q13 0 19 -14q1 -4 4 -4t6.5 4.5t4.5 6.5l34 -7h29l22 -6q7 -3 23.5 -8.5t26.5 -7.5q4 0 13 -4.5t17 -9.5q7 -5 17.5 -34.5t11.5 -32.5
q1 -5 -6 -49.5zM267 473.5q-6 8.5 -10 9.5q-4 2 -12.5 8t-14.5 6h-107l-15 -6l-1 -28q0 -11 1 -13q2 -3 -2 -45q-4 -40 -2 -44q1 -1 1 -8q0 -8 -1 -15.5t-1 -9.5q-2 -6 -6 -23t0 -19q4 -3 8 -10.5t5 -9.5q-2 -1 -7 -3t-5 -4t12 -3q9 -1 14 -2t8 -1l14 3l21 6q7 1 10 3.5
t7 5.5q6 4 14 7.5t9 7.5q1 2 1 4.5t2.5 3.5t7.5 1q8 0 17.5 10t12.5 14q3 1 10 4.5t7 7.5t2.5 10t3.5 8v12l4 101q-2 3 -8 11.5zM89 188l-3 12z" />
    <glyph glyph-name="germandbls" unicode="&#xdf;" horiz-adv-x="329" 
d="M83 1q-19 -1 -32.5 12.5t-13.5 31.5q0 7 1 11q6 28 6 42q0 6 -0.5 16t-0.5 28q1 122 3.5 147.5t2.5 26.5v1h-2q-4 0 -7 4q-16 19 -16 42q0 17 9 32l15 26q11 19 11 40l3 56q4 111 32.5 176.5t70.5 65.5q28 0 56 -31q21 -24 33 -65.5t12 -90.5q0 -56 -17 -109
q-2 -5 -3.5 -11t-4.5 -12q-19 -47 -26 -69t-7 -39q0 -18 7 -34.5t28 -54.5l13 -24q4 -7 13.5 -25t15.5 -37.5t6 -39.5q0 -42 -26 -93q-29 -54 -63 -54q-19 0 -31.5 14t-12.5 33t11 31q55 61 64 75q-9 16 -27 40q-22 28 -29 44q-24 52 -24 100q0 31 8 59t24 68q16 43 23.5 69
t7.5 56q0 23 -6 48q-6 23 -8.5 37.5t-4.5 14.5q-1 0 -2.5 -0.5t-4.5 -0.5q-7 0 -20 5t-25 -16t-27 -59q-7 -18 -10.5 -50t-3.5 -65q-1 -20 -4.5 -88.5t-3.5 -142.5q0 -140 14 -209q3 -12 -5 -22t-21 -10h-1z" />
    <glyph glyph-name="agrave" unicode="&#xe0;" horiz-adv-x="580" 
d="M305 327q23 1 36 5t19 21q8 19 8 37q0 27 -23 52q-68 29 -123 25q-37 -1 -52 -23.5t-25 -66.5q-18 -24 -37 -24q-17 0 -32 25q-11 35 -11 54q0 24 16 42.5t57 45.5l8 5q6 2 15 9h107q12 0 35 -7q3 -1 13 -3t19 -2q3 0 5 -4l4 -1q10 -5 11 -7q39 -32 57.5 -55.5
t18.5 -57.5q0 -19 -5 -35q-5 -9 -7 -19q2 -7 2 -23t-1 -22l-1 -25q0 -20 6 -33v-37q0 -38 -1 -58t-7 -42q-2 -12 -2 -17q0 -19 15 -29q4 -2 6 -2q6 0 14 10q4 6 13 11q4 1 7 8.5t4 9.5q5 10 10 16t14 6q6 0 16 -5q8 -5 12 -14.5t4 -19.5q0 -14 -7 -37q-6 -17 -21 -28
t-33 -11q-9 0 -18 3l-36 11l-32 10l-13 17q-38 1 -63 -27q-35 -18 -74 -18q-20 0 -44.5 4.5t-47.5 10.5l-39 9q-75 54 -75 120q0 28 16.5 59t45.5 57q8 12 23 15q9 2 15 6q30 10 44 16q6 2 30.5 11t46.5 14.5t42 6.5zM374 194q0 29 -22 46.5t-61 17.5t-74.5 -12.5
t-72.5 -35.5h1q-20 -19 -31.5 -36.5t-11.5 -35.5t8 -33q48 -41 89 -41q26 0 56 15q11 5 23 3q2 0 4 -1t5 -1q10 17 32 24l16 8q4 4 10 13l12 13q17 29 17 56zM206 742q0 8 7 17q10 12 25 12q26 0 60 -34q73 -75 73 -110q0 -8 -2 -11q-4 -8 -15 -8q-25 0 -87 54
q-61 50 -61 80z" />
    <glyph glyph-name="aacute" unicode="&#xe1;" horiz-adv-x="557" 
d="M320 322.5q19 0.5 31.5 7t18.5 22.5q8 21 8 40q0 33 -24 57q-72 30 -129 26q-42 -1 -58 -24.5t-26 -69.5q-17 -22 -32 -22q-14 0 -27 21q-12 35 -12 55q0 23 16 41t56 44l23 14h107q14 0 34 -6q17 -7 34 -7q1 -4 8.5 -5.5t7.5 -4.5q37 -29 56.5 -53.5t19.5 -58.5
q0 -16 -4 -31q-6 -16 -8 -24q2 -16 2 -23q0 -15 -1 -23l-1 -23q0 -22 6 -38v-57q0 -49 -8 -79q-3 -10 -3 -20q0 -21 19 -32q6 -3 10 -3q7 0 15 10t13 12q8 3 14 21q4 10 7.5 15t10.5 5q8 0 15 -5q14 -8 14 -31q0 -12 -7 -35q-5 -16 -19 -26.5t-31 -10.5q-8 0 -16 3
q-22 7 -38 11l-30 9l-14 19q-44 2 -71 -30q-33 -15 -71 -15q-21 0 -47 4.5t-50 10.5q-26 6 -35 8q-73 55 -73 118q0 59 61 114q3 6 8 9t15 5t15 6l45 16q37 15 64 23t55 10q7 0 26 0.5zM384 192q0 32 -24 51.5t-65 19.5q-40 0 -77 -13t-76 -37q-22 -22 -33.5 -39.5
t-11.5 -37.5q0 -19 11 -38q48 -43 93 -43q28 0 59 16q6 3 16.5 2.5t17.5 -0.5v-2q3 11 10 16t20 9q2 1 8.5 3.5t11.5 6.5q4 5 11 13t11 14q18 32 18 59zM469 750q11 0 15 -8q2 -3 2 -11q0 -35 -73 -110q-34 -34 -60 -34q-15 0 -25 12q-7 9 -7 17q0 30 61 80q62 54 87 54z
" />
    <glyph glyph-name="acircumflex" unicode="&#xe2;" horiz-adv-x="555" 
d="M325 322.5q19 0.5 31.5 7t18.5 22.5q8 21 8 40q0 33 -24 57q-72 30 -129 26q-42 -1 -58 -24.5t-26 -69.5q-17 -22 -32 -22q-14 0 -27 21q-12 35 -12 55q0 23 16 41t56 44l23 14h107q14 0 34 -6q17 -7 34 -7q1 -4 8.5 -5.5t7.5 -4.5q37 -29 56.5 -53.5t19.5 -58.5
q0 -16 -4 -31q-6 -16 -8 -24q2 -16 2 -23q0 -15 -1 -23l-1 -23q0 -22 6 -38v-57q0 -49 -8 -79q-3 -10 -3 -20q0 -21 19 -32q6 -3 10 -3q7 0 15 10t13 12q8 4 14 21q4 10 7.5 15t10.5 5q8 0 15 -5q14 -8 14 -31q0 -12 -7 -35q-5 -16 -19 -26.5t-31 -10.5q-8 0 -16 3
q-22 7 -38 11l-30 9l-14 19q-44 2 -71 -30q-33 -15 -71 -15q-21 0 -47 4.5t-50 10.5q-26 6 -35 8q-73 55 -73 118q0 59 61 114q3 6 8 9t15 5t15 6l45 16q37 15 64 23t55 10q7 0 26 0.5zM389 192q0 32 -24 51.5t-65 19.5q-40 0 -77 -13t-76 -37q-22 -22 -33.5 -39.5
t-11.5 -37.5q0 -19 11 -38q48 -43 93 -43q28 0 59 16q6 3 16.5 2.5t17.5 -0.5v-2q3 11 10 16t20 9q2 1 8.5 3.5t11.5 6.5q4 5 11 13t11 14q18 32 18 59zM192.5 607.5q-5.5 5.5 -4.5 13.5q2 47 25.5 79t62.5 32q29 0 64 -19q11 -6 17.5 -11.5t8.5 -14.5q0 -1 1.5 -7t4.5 -22
l14 -51v-2q0 -3 -2.5 -5.5t-5.5 -2.5h-15q-32 0 -32 40l1 19q-22 35 -49 35q-18 0 -31.5 -16t-16.5 -38l3 -11v-3q0 -8 -6 -14.5t-14 -6.5h-13q-7 0 -12.5 5.5z" />
    <glyph glyph-name="atilde" unicode="&#xe3;" horiz-adv-x="580" 
d="M305 327q23 1 36 5t19 21q8 19 8 37q0 27 -23 52q-68 29 -123 25q-37 -1 -52 -23.5t-25 -66.5q-18 -24 -37 -24q-17 0 -32 25q-11 35 -11 54q0 24 16 42.5t57 45.5l8 5q6 2 15 9h107q12 0 35 -7q3 -1 13 -3t19 -2q3 0 5 -4l4 -1q10 -5 11 -7q39 -32 57.5 -55.5
t18.5 -57.5q0 -19 -5 -35q-5 -9 -7 -19q2 -7 2 -23t-1 -22l-1 -25q0 -20 6 -33v-37q0 -38 -1 -58t-7 -42q-2 -12 -2 -17q0 -19 15 -29q4 -2 6 -2q6 0 14 10q4 6 13 11q4 1 7 8.5t4 9.5q5 10 10 16t14 6q6 0 16 -5q8 -5 12 -14.5t4 -19.5q0 -14 -7 -37q-6 -17 -21 -28
t-33 -11q-9 0 -18 3l-36 11l-32 10l-13 17q-38 1 -63 -27q-35 -18 -74 -18q-20 0 -44.5 4.5t-47.5 10.5l-39 9q-75 54 -75 120q0 28 16.5 59t45.5 57q8 12 23 15q9 2 15 6q30 10 44 16q6 2 30.5 11t46.5 14.5t42 6.5zM374 194q0 29 -22 46.5t-61 17.5t-74.5 -12.5
t-72.5 -35.5h1q-20 -19 -31.5 -36.5t-11.5 -35.5t8 -33q48 -41 89 -41q26 0 56 15q11 5 23 3q2 0 4 -1t5 -1q10 17 32 24l16 8q4 4 10 13l12 13q17 29 17 56zM163 731q9 -1 35 -5t28 -7q1 -1 15 -6t21 -16q4 -7 9 -14.5t6 -11.5q0 -4 14.5 -15t18.5 -11q3 0 11.5 1t22.5 1
q11 0 13 -2q1 -2 4 -2q14 0 24 3t22 8t21 9q8 3 28 17q10 7 22 7t21 -6.5t13 -18.5q1 -2 1 -5v-38q0 -2 3.5 -2t3.5 -1t-17 -13q-16 -11 -19.5 -15.5t-4.5 -5t-7 -0.5h-83q-12 0 -40 9t-37 12l-34 12l-52 54v14q-4 4 -14.5 15t-13.5 7q-2 -2 -11 -3t-12 -1q-26 -2 -30 -6
q-6 -5 -24 -10q-10 -3 -18.5 -7t-7.5 -7v-2q0 -4 -3 -8t-4 -5l-2.5 -2.5t-11.5 -10.5q-12 -11 -16 -13t-11 -1t-9 13.5t-2 20.5l48 54z" />
    <glyph glyph-name="adieresis" unicode="&#xe4;" horiz-adv-x="565" 
d="M330 322.5q19 0.5 31.5 7t18.5 22.5q8 21 8 40q0 33 -24 57q-72 30 -129 26q-42 -1 -58 -24.5t-26 -69.5q-17 -22 -32 -22q-14 0 -27 21q-12 35 -12 55q0 23 16 41t56 44l23 14h107q14 0 34 -6q17 -7 34 -7q1 -4 8.5 -5.5t7.5 -4.5q37 -29 56.5 -53.5t19.5 -58.5
q0 -16 -4 -31q-6 -16 -8 -24q2 -16 2 -23q0 -15 -1 -23l-1 -23q0 -22 6 -38v-57q0 -49 -8 -79q-3 -10 -3 -20q0 -21 19 -32q6 -3 10 -3q7 0 15 10t13 12q8 4 14 21q4 10 7.5 15t10.5 5q8 0 15 -5q14 -8 14 -31q0 -12 -7 -35q-5 -16 -19 -26.5t-31 -10.5q-8 0 -16 3
q-22 7 -38 11l-30 9l-14 19q-44 2 -71 -30q-33 -15 -71 -15q-21 0 -47 4.5t-50 10.5q-26 6 -35 8q-73 55 -73 118q0 59 61 114q3 6 8 9t15 5t15 6l45 16q37 15 64 23t55 10q7 0 26 0.5zM394 192q0 32 -24 51.5t-65 19.5q-40 0 -77 -13t-76 -37q-22 -22 -33.5 -39.5
t-11.5 -37.5q0 -19 11 -38q48 -43 93 -43q28 0 59 16q6 3 16.5 2.5t17.5 -0.5v-2q3 11 10 16t20 9q2 1 8.5 3.5t11.5 6.5q4 5 11 13t11 14q18 32 18 59zM147.5 641.5q-15.5 17.5 -21.5 34t-8 20.5l10 11q5 5 13 17q10 17 21.5 25.5t35.5 8.5l12 -1l23 -24q15 -36 15 -61
q0 -23 -12.5 -35.5t-36.5 -12.5q-36 0 -51.5 17.5zM335.5 652.5q-7.5 7.5 -11.5 13.5t-4 13q0 12 15 24q-3 5 1 9q2 14 4 23l20 3q12 11 26 11q10 0 18.5 -5t16 -11t10.5 -9q17 -34 17 -52q0 -27 -27 -46q-11 -10 -22 -10t-27 12q-14 11 -24 12z" />
    <glyph glyph-name="aring" unicode="&#xe5;" horiz-adv-x="580" 
d="M305 327q23 1 36 5t19 21q8 19 8 37q0 27 -23 52q-68 29 -123 25q-37 -1 -52 -23.5t-25 -66.5q-18 -24 -37 -24q-17 0 -32 25q-11 35 -11 54q0 24 16 42.5t57 45.5l8 5q6 2 15 9h107q12 0 35 -7q3 -1 13 -3t19 -2q3 0 5 -4l4 -1q10 -5 11 -7q39 -32 57.5 -55.5
t18.5 -57.5q0 -19 -5 -35q-5 -9 -7 -19q2 -7 2 -23t-1 -22l-1 -25q0 -20 6 -33v-37q0 -38 -1 -58t-7 -42q-2 -12 -2 -17q0 -19 15 -29q4 -2 6 -2q6 0 14 10q4 6 13 11q4 1 7 8.5t4 9.5q5 10 10 16t14 6q6 0 16 -5q8 -5 12 -14.5t4 -19.5q0 -14 -7 -37q-6 -17 -21 -28
t-33 -11q-9 0 -18 3l-36 11l-32 10l-13 17q-38 1 -63 -27q-35 -18 -74 -18q-20 0 -44.5 4.5t-47.5 10.5l-39 9q-75 54 -75 120q0 28 16.5 59t45.5 57q8 12 23 15q9 2 15 6q30 10 44 16q6 2 30.5 11t46.5 14.5t42 6.5zM374 194q0 29 -22 46.5t-61 17.5t-74.5 -12.5
t-72.5 -35.5h1q-20 -19 -31.5 -36.5t-11.5 -35.5t8 -33q48 -41 89 -41q26 0 56 15q11 5 23 3q2 0 4 -1t5 -1q10 17 32 24l16 8q4 4 10 13l12 13q17 29 17 56zM384 645l-1 -3v-1v-0.5t-1 -0.5q-5 -35 -32.5 -56.5t-62.5 -21.5q-22 0 -42.5 9.5t-35.5 29.5h-1l-3 3q-1 1 -1 3
q-1 1 -2 1t-2 2l-1 4v1q-1 0 -3 3v4h-1v1l-2 2v4q-1 1 -1 3v1l-1 3v1q-2 2 -2 4q-1 1 -0.5 2.5l0.5 1.5v1q-2 0 -2 3l1 4v17q0 1 3 4q6 32 21 48l4 2q2 6 23 17q19 11 51 11q8 0 20 -2h5l28 -8l10 -3l1.5 -6.5t10.5 -17.5q6 -9 13 -26.5t6 -34.5l-1 -4zM325 602
q15 9 18.5 16.5t4.5 22.5q3 42 -13 62.5t-46 20.5q-12 0 -26 -3q0 -1 -1 -6t-4 -7q-4 -2 -14.5 -7t-17.5 -12.5t-9 -19.5v-1q0 -1 0.5 -1.5t-0.5 -1.5q-1 -30 11 -44.5t21.5 -20t10.5 -6.5l4 -2h5q2 0 2 -1h3v-1l4 2h1q1 0 4 -3h3q2 2 4 2h3q9 0 22 6l2 1h1l2 1q1 0 1 0.5
v0.5l2 1z" />
    <glyph glyph-name="ae" unicode="&#xe6;" horiz-adv-x="812" 
d="M780 173q0 -15 -4.5 -26.5t-14.5 -29.5q-8 -7 -13.5 -20t-6.5 -16q-9 -21 -23 -35t-38 -15l-105 -32q-3 0 -4 1q-19 11 -49 22q-10 3 -22 8q-7 -9 -35.5 -14t-88.5 -7l-5 31q-38 1 -63 -27q-35 -18 -74 -18q-20 0 -44.5 4.5t-47.5 10.5l-39 9q-75 54 -75 120
q0 28 16.5 59t45.5 57q8 12 23 15q9 2 15 6q30 10 44 16q6 2 30.5 11t46.5 14.5t42 6.5l15 1q23 1 36 5t19 21q8 19 8 37q0 27 -23 52q-68 29 -123 25q-37 -1 -52 -23.5t-25 -66.5q-18 -24 -37 -24q-17 0 -32 25q-11 35 -11 54q0 24 16 42.5t57 45.5l8 5q6 2 15 9h107
q12 0 35 -7q3 -1 13 -3t19 -2q3 0 5 -4l4 -1q10 -5 11 -7q5 -4 24.5 -20.5t31.5 -34.5q13 20 42 41l21 15q19 15 51 35q7 2 35 14l37 -13q12 -4 36 -14q10 0 35 -11q3 -1 12 -5.5t18 -4.5q6 0 14 3q29 -13 46 -75.5t17 -119.5q0 -17 -1 -23q1 -3 1 -11q0 -5 -5 -5l-339 -3
q-2 -1 -2 -2t-1 -2h1l-3 -3q2 -9 3.5 -21t2.5 -19q6 -35 13.5 -56.5t24.5 -38.5h-1l9 -6h-1q13 -8 21 -16q21 -23 42 -33.5t45 -10.5q36 0 78 24h-2l6 8v-1q24 30 37 51.5t16 48.5q0 1 2 3q19 13 32 13q24 0 25 -42zM375 192q0 29 -22 46.5t-61 17.5t-74.5 -12.5
t-72.5 -35.5h1q-20 -19 -31.5 -36.5t-11.5 -35.5t8 -33q48 -41 89 -41q26 0 56 15q11 5 23 3q2 0 4 -1t5 -1q10 17 32 24l16 8q4 4 10 13l12 13q17 29 17 56zM454 390q-9 -14 -9 -32q0 -11 4 -23q23 -4 50 -4q18 0 41 2t33 3q63 5 78 5q31 0 47 -3q8 14 8 26q0 27 -21 53
t-57 60h1q-20 11 -38 11q-15 0 -29 -5.5t-26 -11.5t-15 -8h1l-16 -9l-24 -30q-19 -20 -28 -34z" />
    <glyph glyph-name="ccedilla" unicode="&#xe7;" horiz-adv-x="527" 
d="M270 -3q-3 2 -2 10.5t0 12.5q-54 -3 -96 36t-64.5 103t-22.5 133q0 76 29 135.5t85 81.5q34 30 84 30q10 0 55 -5q29 -4 40 -5q9 0 25 -4q22 -6 33 -5l48 -57q-2 -6 -2 -19l1 -35q0 -24 -11 -40q-39 -18 -58 -18q-14 0 -20 10.5t-6 33.5q0 13 1 21q13 24 13 38
q0 11 -9 14q-10 3 -28 13q-16 8 -25.5 12t-20.5 4q-12 0 -24 -6q-34 -17 -94 -30q-64 -91 -64 -188q0 -12 2 -36l10 -12l36 -95q15 -34 43.5 -53.5t62.5 -19.5q27 0 53 13q47 22 72 47.5t25 70.5q0 18 10.5 29t27.5 12q20 0 20 -21l-1 -20q3 -64 -34 -101t-93 -65
q-29 -15 -30 -21l-32 -2v-23q0 -6 4 -11t11 -6l38 -11q18 -5 25 -22l17 -56q2 -8 2 -11q0 -6 -4 -16l-14 -29q-9 -18 -32 -26l-15 -4q-12 -4 -29 -4q-12 0 -24 3q-26 6 -33 9q-6 2 -19 15q-20 18 -20 42q0 9 3 18q0 1 0.5 5t5.5 4q7 0 23 -8q14 -6 14 -16q0 -6 -4 -9.5
t-5 -4.5l23 -15q6 -3 11 -3q6 0 11 3l2 1q5 -1 14.5 -3t15.5 -2q11 0 18 8q3 3 3 9q0 7 2 12q11 19 11 37q0 11 -3.5 18l-4.5 9l-21 15q-22 15 -50 14l-26 1z" />
    <glyph glyph-name="egrave" unicode="&#xe8;" horiz-adv-x="481" 
d="M67.5 110q-5.5 10 -4.5 21q-17 21 -26.5 41t-6.5 43q0 24 -2 50q-2 36 -2 53q0 50 16 86q7 52 62 92l21 15q19 15 51 35q7 2 35 14l37 -13q12 -4 36 -14q10 0 35 -11q3 -1 12 -5.5t18 -4.5q7 0 14 3q29 -13 46 -75.5t17 -119.5q0 -17 -1 -23q1 -3 1 -11q0 -5 -5 -5
l-339 -3q-2 -1 -2 -2t-1 -2h1l-3 -3q2 -9 3.5 -21t2.5 -19q6 -35 13.5 -56.5t24.5 -38.5h-1l9 -6h-1q13 -8 21 -16q21 -23 42 -33.5t45 -10.5q36 0 78 24h-2l6 8v-1q24 30 37 51.5t16 48.5q0 1 2 3q19 13 32 13q24 0 25 -42q0 -15 -4.5 -26.5t-14.5 -29.5q-8 -7 -13.5 -20
t-6.5 -16q-9 -21 -23 -35t-38 -15l-105 -32q-3 0 -4 1q-19 11 -49 22q-28 9 -48.5 21.5t-34.5 33.5l-5 7q-11 14 -16.5 24zM132 426q-19 -20 -28 -34t-9 -32q0 -11 4 -23q23 -4 50 -4q18 0 41 2t33 3q62 5 78 5q31 0 47 -3q8 14 8 26q0 27 -21 53t-57 60h1q-20 11 -38 11
q-15 0 -29 -5.5t-26 -11.5t-15 -8h1l-16 -9zM154 742q0 8 7 17q10 12 25 12q26 0 60 -34q73 -75 73 -110q0 -8 -2 -11q-4 -8 -15 -8q-25 0 -87 54q-61 50 -61 80z" />
    <glyph glyph-name="eacute" unicode="&#xe9;" horiz-adv-x="465" 
d="M35 166.5q-9 16.5 -9 35.5q0 7 1 11q0 18 -2 52q-3 26 -3 52q0 49 17 87q7 56 61 92l21 15q45 32 50 35q19 6 35 13l36 -12q12 -4 36 -14q14 1 36 -11q2 -1 13 -6t21 -5q8 0 13 2q27 -11 43 -72t16 -118q0 -19 -1 -26q1 -4 1 -11l-345 -3l-12 -10q4 -14 8 -44
q6 -38 13 -59.5t26 -40.5q5 -3 14 -9t15 -12q43 -47 92 -47q37 0 82 26q30 38 44 60t17 52q18 12 29 12q10 0 15 -9t6 -29q0 -14 -4.5 -26t-14.5 -28q-11 -10 -21 -37q-10 -25 -21.5 -37t-36.5 -11l-107 -33q-13 8 -51 23q-31 11 -50 22t-32 32q-3 5 -11.5 15t-12 18
t-1.5 18q-17 21 -26 37.5zM121 432q-20 -22 -29 -36.5t-9 -34.5q0 -14 5 -27q30 -5 54 -5q25 0 77 6q9 1 33 3t43 2q23 0 53 -5q10 16 10 33q0 29 -21.5 56.5t-59.5 62.5q-22 12 -41 12q-18 0 -34 -7t-32 -16t-23 -13q-9 -14 -26 -31zM413 756q11 0 15 -8q2 -3 2 -11
q0 -35 -73 -110q-34 -34 -60 -34q-15 0 -25 12q-7 9 -7 17q0 30 61 80q62 54 87 54z" />
    <glyph glyph-name="ecircumflex" unicode="&#xea;" horiz-adv-x="481" 
d="M67.5 110q-5.5 10 -4.5 21q-17 21 -26.5 41t-6.5 43q0 24 -2 50q-2 36 -2 53q0 50 16 86q7 52 62 92l21 15q19 15 51 35q7 2 35 14l37 -13q12 -4 36 -14q10 0 35 -11q3 -1 12 -5.5t18 -4.5q7 0 14 3q29 -13 46 -75.5t17 -119.5q0 -17 -1 -23q1 -3 1 -11q0 -5 -5 -5
l-339 -3q-2 -1 -2 -2t-1 -2h1l-3 -3q2 -9 3.5 -21t2.5 -19q6 -35 13.5 -56.5t24.5 -38.5h-1l9 -6h-1q13 -8 21 -16q21 -23 42 -33.5t45 -10.5q36 0 78 24h-2l6 8v-1q24 30 37 51.5t16 48.5q0 1 2 3q19 13 32 13q24 0 25 -42q0 -15 -4.5 -26.5t-14.5 -29.5q-8 -7 -13.5 -20
t-6.5 -16q-9 -21 -23 -35t-38 -15l-105 -32q-3 0 -4 1q-19 11 -49 22q-28 9 -48.5 21.5t-34.5 33.5l-5 7q-11 14 -16.5 24zM132 426q-19 -20 -28 -34t-9 -32q0 -11 4 -23q23 -4 50 -4q18 0 41 2t33 3q62 5 78 5q31 0 47 -3q8 14 8 26q0 27 -21 53t-57 60h1q-20 11 -38 11
q-15 0 -29 -5.5t-26 -11.5t-15 -8h1l-16 -9zM146.5 656.5q-5.5 5.5 -4.5 13.5q2 47 25.5 79t62.5 32q29 0 64 -19q11 -6 17.5 -11.5t8.5 -14.5q0 -1 1.5 -7t4.5 -22l14 -51v-2q0 -3 -2.5 -5.5t-5.5 -2.5h-15q-32 0 -32 40l1 19q-22 35 -49 35q-18 0 -31.5 -16t-16.5 -38
l3 -11v-3q0 -8 -6 -14.5t-14 -6.5h-13q-7 0 -12.5 5.5z" />
    <glyph glyph-name="edieresis" unicode="&#xeb;" horiz-adv-x="474" 
d="M46 166.5q-9 16.5 -9 35.5q0 7 1 11q0 18 -2 52q-3 26 -3 52q0 49 17 87q7 56 61 92l21 15q45 32 50 35q19 6 35 13l36 -12q12 -4 36 -14q14 1 36 -11q2 -1 13 -6t21 -5q8 0 13 2q27 -11 43 -72t16 -118q0 -19 -1 -26q1 -4 1 -11l-345 -3l-12 -10q4 -14 8 -44
q6 -38 13 -59.5t26 -40.5q5 -3 14 -9t15 -12q43 -47 92 -47q37 0 82 26q30 38 44 60t17 52q18 12 29 12q10 0 15 -9t6 -29q0 -14 -4.5 -26t-14.5 -28q-11 -10 -21 -37q-10 -25 -21.5 -37t-36.5 -11l-107 -33q-13 8 -51 23q-31 11 -50 22t-32 32q-3 5 -11.5 15t-12 18
t-1.5 18q-17 21 -26 37.5zM132 432q-20 -22 -29 -36.5t-9 -34.5q0 -14 5 -27q30 -5 54 -5q25 0 77 6q9 1 33 3t43 2q23 0 53 -5q10 16 10 33q0 29 -21.5 56.5t-59.5 62.5q-22 12 -41 12q-18 0 -34 -7t-32 -16t-23 -13q-9 -14 -26 -31zM134.5 604.5q-15.5 17.5 -21.5 34
t-8 20.5l10 11q5 5 13 17q10 17 21.5 25.5t35.5 8.5l12 -1l23 -24q15 -36 15 -61q0 -23 -12.5 -35.5t-36.5 -12.5q-36 0 -51.5 17.5zM322.5 615.5q-7.5 7.5 -11.5 13.5t-4 13q0 12 15 24q-3 5 1 9q2 14 4 23l20 3q12 11 26 11q10 0 18.5 -5t16 -11t10.5 -9q17 -34 17 -52
q0 -27 -27 -46q-11 -10 -22 -10t-27 12q-14 11 -24 12z" />
    <glyph glyph-name="igrave" unicode="&#xec;" horiz-adv-x="351" 
d="M24.5 46q11.5 8 27.5 8h111q-6 71 -6 175q0 81 3 160q-17 66 -74 66q-5 0 -19 -2q-4 -1 -11 -1q-16 0 -27.5 7t-11.5 22q0 30 49 28l54 1q26 0 47 -5.5t40 -19.5q12 -80 12 -159q0 -63 -8 -137q-4 -50 -4 -65q0 -36 13.5 -52.5t50.5 -17.5q8 0 11 -1t10 -1t14 1t14 1
q22 0 22 -21q0 -17 -18 -25.5t-40 -9.5q-46 -2 -139 -2h-92q-16 -1 -27.5 7t-11.5 21q-1 14 10.5 22zM86 687q0 8 7 17q10 12 25 12q26 0 60 -34q73 -75 73 -110q0 -8 -2 -11q-4 -8 -15 -8q-25 0 -87 54q-61 50 -61 80z" />
    <glyph glyph-name="iacute" unicode="&#xed;" horiz-adv-x="351" 
d="M16.5 46q11.5 8 27.5 8h111q-6 71 -6 175q0 81 3 160q-17 66 -74 66q-5 0 -19 -2q-4 -1 -11 -1q-16 0 -27.5 7t-11.5 22q0 30 49 28l54 1q26 0 47 -5.5t40 -19.5q12 -80 12 -159q0 -63 -8 -137q-4 -50 -4 -65q0 -36 13.5 -52.5t50.5 -17.5q8 0 11 -1t10 -1t14 1t14 1
q22 0 22 -21q0 -17 -18 -25.5t-40 -9.5q-46 -2 -139 -2h-92q-16 -1 -27.5 7t-11.5 21q-1 14 10.5 22zM284 708q11 0 15 -8q2 -3 2 -11q0 -35 -73 -110q-34 -34 -60 -34q-15 0 -25 12q-7 9 -7 17q0 30 61 80q62 54 87 54z" />
    <glyph glyph-name="icircumflex" unicode="&#xee;" horiz-adv-x="348" 
d="M22.5 46q11.5 8 27.5 8h111q-6 71 -6 175q0 81 3 160q-17 66 -74 66q-5 0 -19 -2q-4 -1 -11 -1q-16 0 -27.5 7t-11.5 22q0 30 49 28l54 1q26 0 47 -5.5t40 -19.5q12 -80 12 -159q0 -63 -8 -137q-4 -50 -4 -65q0 -36 13.5 -52.5t50.5 -17.5q8 0 11 -1t10 -1t14 1t14 1
q22 0 22 -21q0 -17 -18 -25.5t-40 -9.5q-46 -2 -139 -2h-92q-16 -1 -27.5 7t-11.5 21q-1 14 10.5 22zM62.5 556.5q-5.5 5.5 -4.5 13.5q2 47 25.5 79t62.5 32q29 0 64 -19q11 -6 17.5 -11.5t8.5 -14.5q0 -1 1.5 -7t4.5 -22l14 -51v-2q0 -3 -2.5 -5.5t-5.5 -2.5h-15
q-32 0 -32 40l1 19q-22 35 -49 35q-18 0 -31.5 -16t-16.5 -38l3 -11v-3q0 -8 -6 -14.5t-14 -6.5h-13q-7 0 -12.5 5.5z" />
    <glyph glyph-name="idieresis" unicode="&#xef;" horiz-adv-x="385" 
d="M46.5 46q11.5 8 27.5 8h111q-6 71 -6 175q0 81 3 160q-17 66 -74 66q-5 0 -19 -2q-4 -1 -11 -1q-16 0 -27.5 7t-11.5 22q0 30 49 28l54 1q26 0 47 -5.5t40 -19.5q12 -80 12 -159q0 -63 -8 -137q-4 -50 -4 -65q0 -36 13.5 -52.5t50.5 -17.5q8 0 11 -1t10 -1t14 1t14 1
q22 0 22 -21q0 -17 -18 -25.5t-40 -9.5q-46 -2 -139 -2h-92q-16 -1 -27.5 7t-11.5 21q-1 14 10.5 22zM49.5 602.5q-15.5 17.5 -21.5 34t-8 20.5l10 11q5 5 13 17q10 17 21.5 25.5t35.5 8.5l12 -1l23 -24q15 -36 15 -61q0 -23 -12.5 -35.5t-36.5 -12.5q-36 0 -51.5 17.5z
M237.5 613.5q-7.5 7.5 -11.5 13.5t-4 13q0 12 15 24q-3 5 1 9q2 14 4 23l20 3q12 11 26 11q10 0 18.5 -5t16 -11t10.5 -9q17 -34 17 -52q0 -27 -27 -46q-11 -10 -22 -10t-27 12q-14 11 -24 12z" />
    <glyph glyph-name="eth" unicode="&#xf0;" horiz-adv-x="611" 
d="M584 283q0 -47 -11 -87q-47 -96 -94 -149.5t-103 -53.5q-50 0 -105 48l-71 99l-1 44q-2 5 -4 11q-14 44 -14 84q0 41 15 83q4 5 4 12t-4 13.5t-5 8.5q10 6 10 17q0 6 -2 16q7 8 33 29q23 17 36 32t17 37q48 6 42 5q-5 0 -14 13t-20 17q-9 4 -8.5 2.5t-7.5 -0.5q-5 0 -8 3
l-5 1q-14 0 -15 -19q0 -13 -3.5 -22.5t-7.5 -14.5t-5 -6q0 -1 -2.5 -4t-11.5 -6l-5 -1q-4 0 -8.5 2.5t-7.5 3t-5 -4.5q-2 -4 -2.5 -8t-2.5 -5t-7 -1q-7 0 -15.5 6t-10.5 8v10q1 1 6 4t11 10t9 18q7 19 23 48q-3 0 -3 0.5t-4 1.5q-6 1 -18 -5t-16 -9h-18q-5 -4 -18 -17.5
t-16 -18.5q-2 -5 -5 -7.5t-4 -2.5l-35 -22h-38q-2 1 -7 4t-9.5 8t-3.5 10q1 4 1 10q0 5 -0.5 7.5t-0.5 3.5l18 53l38 40l37 -2q8 0 31 1t51 1q27 0 37 -2l4 -1q-1 11 3.5 18.5t20.5 14.5q24 11 47 18.5t25 9.5q3 2 18.5 0.5t19.5 -0.5q9 2 23.5 -5.5t10.5 -14.5
q-5 -8 -15.5 -15t-14.5 -9q-6 -4 -15.5 -7.5t-12.5 -6.5q-2 -2 -11 -3t-12 -1q-10 -1 -18.5 -2.5t-7.5 -4.5l66 -39q4 -1 17 -4.5t27.5 -9.5t20.5 -12q8 -8 26 -18q30 -6 62 -40.5t45 -57.5q4 -10 5 -16h1q28 -82 28 -151zM509 199.5q3 11.5 8 20.5t12 15q-1 9 -2 25.5
t-1 29.5q0 81 -26 132t-100 70q-14 8 -26 8q-7 0 -22 -5q-27 -11 -42.5 -30t-31.5 -51l-13 -23q-24 -43 -24 -103q0 -62 25 -118t68 -81q12 -8 33 -10q56 0 89 25t48 79q2 5 5 16.5z" />
    <glyph glyph-name="ntilde" unicode="&#xf1;" horiz-adv-x="617" 
d="M52 14q-8 10 -12 17t-4 15q0 11 9 23q5 5 11.5 7t16.5 3q13 2 19.5 4.5t11.5 9.5l25 32q4 1 10 5q11 35 11 55q0 35 -32 56q-3 3 -7 4l-8 2l-1 25q5 9 5 11q2 6 7.5 12t9 12t2.5 13l-1 106q-1 9 -6 11.5t-16 3.5q-8 1 -13 3t-8 7q-25 22 -26 23l4 58q13 -1 34 4
q18 4 28 4q28 0 43 -27q14 -11 18 -25t4 -36q0 -4 1 -17.5t5 -25.5q9 17 19.5 29.5t30.5 32.5l17 17t24 30q9 6 10 7q27 14 65 14q17 0 49 -4l29 -3h-1q22 -6 35.5 -19t36.5 -40q1 -10 6 -20.5t6 -13.5q5 -10 8.5 -20t3.5 -20l-1 -8q-1 -3 -3 -10t-5.5 -11t-9.5 -5
q2 -6 6 -27t8.5 -51.5t4.5 -50.5l-3 -58q-2 0 -9.5 -30.5t-21.5 -43.5v-1q4 -3 18 -12t24 -9q22 0 34 -8t16 -28q-9 -12 -17 -25q-10 -15 -16.5 -19t-25.5 -4l-49 2l-113 5q-13 9 -13 25q0 7 1 13.5t1 13.5q0 6 -1 9l13 -6q50 21 71.5 78.5t21.5 130.5q0 50 -8.5 91
t-15.5 43q-7 43 -49 69q-13 -6 -58 -25t-82 -32q-3 -5 -24 -37q-15 -21 -24 -37t-13 -34l-3 -192l9 -15t12 -11q43 -11 43 -46q0 -14 -6 -32h3q-76 -8 -153 -10q-24 -2 -31 -2q-3 5 -11 15zM198 754q9 -1 35 -5t28 -7q1 -1 15 -6t21 -16q4 -7 9 -14.5t6 -11.5q0 -4 14.5 -15
t18.5 -11q3 0 11.5 1t22.5 1q11 0 13 -2q1 -2 4 -2q14 0 24 3t22 8t21 9q8 3 28 17q10 7 22 7t21 -6.5t13 -18.5q1 -2 1 -5v-38q0 -2 3.5 -2t3.5 -1t-17 -13q-16 -11 -19.5 -15.5t-4.5 -5t-7 -0.5h-83q-12 0 -40 9t-37 12l-34 12l-52 54v14q-4 4 -14.5 15t-13.5 7
q-2 -2 -11 -3t-12 -1q-26 -2 -30 -6q-6 -5 -24 -10q-10 -3 -18.5 -7t-7.5 -7v-2q0 -4 -3 -8t-4 -5l-2.5 -2.5t-11.5 -10.5q-12 -11 -16 -13t-11 -1t-9 13.5t-2 20.5l48 54z" />
    <glyph glyph-name="ograve" unicode="&#xf2;" horiz-adv-x="461" 
d="M26 279q0 41 14 83q4 5 4 10t-7 19l-2 4q0 1 3 4q8 4 8 13q0 3 -2 11l-1 6q14 15 35 31q21 17 33.5 31t16.5 34q0 1 1.5 2t3.5 1q23 2 47.5 6.5t32.5 6.5q6 1 25.5 5t39.5 4q22 0 47.5 -20t46 -45t28.5 -40l4 -11q27 -81 27 -150q0 -48 -10 -85q-48 -97 -95.5 -151
t-103.5 -54q-49 0 -107 49l-35 48l-36 50v23l-1 23l-4 9v-1q-13 46 -13 84zM94 289q0 -60 24 -114t65 -78q11 -7 30 -9q53 0 84.5 24t45.5 75l3 10v-1q5 16 9 25t12 18l-1 11q-1 10 -1 33q0 82 -23.5 132.5t-95.5 68.5q-11 7 -24 7q-11 0 -22 -4q-25 -11 -40 -29t-30 -47
l-13 -23q-23 -43 -23 -99zM144 742q0 8 7 17q10 12 25 12q26 0 60 -34q73 -75 73 -110q0 -8 -2 -11q-4 -8 -15 -8q-25 0 -87 54q-61 50 -61 80z" />
    <glyph glyph-name="oacute" unicode="&#xf3;" horiz-adv-x="511" 
d="M13 280q0 41 15 83q4 5 4 12t-4 13.5t-5 8.5q10 6 10 17q0 6 -2 16q7 8 33 29q23 17 36 32t17 37q38 3 83 13q43 8 63 9q22 1 46.5 -18t44.5 -43t28 -38q4 -10 5 -16h1q28 -82 28 -151q0 -47 -11 -87q-47 -96 -94 -149.5t-103 -53.5q-50 0 -105 48l-71 99l-1 44
q-2 5 -4 11q-14 44 -14 84zM73 289q0 -62 25 -118t68 -81q12 -8 33 -10q56 0 89 25t48 79q2 5 5 16.5t8 20.5t12 15q-1 9 -2 25.5t-1 29.5q0 81 -26 132t-100 70q-14 8 -26 8q-7 0 -22 -5q-27 -11 -42.5 -30t-31.5 -51l-13 -23q-24 -43 -24 -103zM473 750q11 0 15 -8
q2 -3 2 -11q0 -35 -73 -110q-34 -34 -60 -34q-15 0 -25 12q-7 9 -7 17q0 30 61 80q62 54 87 54z" />
    <glyph glyph-name="ocircumflex" unicode="&#xf4;" horiz-adv-x="446" 
d="M18 280q0 41 15 83q4 5 4 12t-4 13.5t-5 8.5q10 6 10 17q0 6 -2 16q7 8 33 29q23 17 36 32t17 37q38 3 83 13q43 8 63 9q22 1 46.5 -18t44.5 -43t28 -38q4 -10 5 -16h1q28 -82 28 -151q0 -47 -11 -87q-47 -96 -94 -149.5t-103 -53.5q-50 0 -105 48l-71 99l-1 44
q-2 5 -4 11q-14 44 -14 84zM78 289q0 -62 25 -118t68 -81q12 -8 33 -10q56 0 89 25t48 79q2 5 5 16.5t8 20.5t12 15q-1 9 -2 25.5t-1 29.5q0 81 -26 132t-100 70q-14 8 -26 8q-7 0 -22 -5q-27 -11 -42.5 -30t-31.5 -51l-13 -23q-24 -43 -24 -103zM159.5 571.5
q-5.5 5.5 -4.5 13.5q2 47 25.5 79t62.5 32q29 0 64 -19q11 -6 17.5 -11.5t8.5 -14.5q0 -1 1.5 -7t4.5 -22l14 -51v-2q0 -3 -2.5 -5.5t-5.5 -2.5h-15q-32 0 -32 40l1 19q-22 35 -49 35q-18 0 -31.5 -16t-16.5 -38l3 -11v-3q0 -8 -6 -14.5t-14 -6.5h-13q-7 0 -12.5 5.5z" />
    <glyph glyph-name="otilde" unicode="&#xf5;" horiz-adv-x="461" 
d="M26 279q0 41 14 83q4 5 4 10t-7 19l-2 4q0 1 3 4q8 4 8 13q0 3 -2 11l-1 6q14 15 35 31q21 17 33.5 31t16.5 34q0 1 1.5 2t3.5 1q23 2 47.5 6.5t32.5 6.5q6 1 25.5 5t39.5 4q22 0 47.5 -20t46 -45t28.5 -40l4 -11q27 -81 27 -150q0 -48 -10 -85q-48 -97 -95.5 -151
t-103.5 -54q-49 0 -107 49l-35 48l-36 50v23l-1 23l-4 9v-1q-13 46 -13 84zM94 289q0 -60 24 -114t65 -78q11 -7 30 -9q53 0 84.5 24t45.5 75l3 10v-1q5 16 9 25t12 18l-1 11q-1 10 -1 33q0 82 -23.5 132.5t-95.5 68.5q-11 7 -24 7q-11 0 -22 -4q-25 -11 -40 -29t-30 -47
l-13 -23q-23 -43 -23 -99zM104 731q9 -1 34.5 -5t28.5 -7q1 -1 15 -6t21 -16q4 -7 9 -14.5t6 -11.5q0 -4 14.5 -15t18.5 -11q3 0 11.5 1t22.5 1q11 0 13 -2q1 -2 4 -2q14 0 24 3t22 8t21 9q8 3 28 17q10 7 22 7t21 -6.5t13 -18.5q1 -2 1 -5v-38q0 -2 3.5 -2t3.5 -1t-17 -13
q-16 -11 -19.5 -15.5t-4.5 -5t-7 -0.5h-83q-12 0 -40 9t-37 12l-34 12l-52 54v14q-4 4 -14.5 15t-13.5 7q-2 -2 -11 -3t-12 -1q-26 -2 -30 -6q-6 -5 -24 -10q-10 -3 -18.5 -7t-7.5 -7v-2q0 -4 -3 -8t-4 -5l-2.5 -2.5t-11.5 -10.5q-12 -11 -16 -13t-11 -1t-9 13.5t-2 20.5
l48 54z" />
    <glyph glyph-name="odieresis" unicode="&#xf6;" horiz-adv-x="460" 
d="M21 280q0 41 15 83q4 5 4 12t-4 13.5t-5 8.5q10 6 10 17q0 6 -2 16q7 8 33 29q23 17 36 32t17 37q38 3 83 13q43 8 63 9q22 1 46.5 -18t44.5 -43t28 -38q4 -10 5 -16h1q28 -82 28 -151q0 -47 -11 -87q-47 -96 -94 -149.5t-103 -53.5q-50 0 -105 48l-71 99l-1 44
q-2 5 -4 11q-14 44 -14 84zM81 289q0 -62 25 -118t68 -81q12 -8 33 -10q56 0 89 25t48 79q2 5 5 16.5t8 20.5t12 15q-1 9 -2 25.5t-1 29.5q0 81 -26 132t-100 70q-14 8 -26 8q-7 0 -22 -5q-27 -11 -42.5 -30t-31.5 -51l-13 -23q-24 -43 -24 -103zM129.5 600.5
q-15.5 17.5 -21.5 34t-8 20.5l10 11q5 5 13 17q10 17 21.5 25.5t35.5 8.5l12 -1l23 -24q15 -36 15 -61q0 -23 -12.5 -35.5t-36.5 -12.5q-36 0 -51.5 17.5zM317.5 611.5q-7.5 7.5 -11.5 13.5t-4 13q0 12 15 24q-3 5 1 9q2 14 4 23l20 3q12 11 26 11q10 0 18.5 -5t16 -11
t10.5 -9q17 -34 17 -52q0 -27 -27 -46q-11 -10 -22 -10t-27 12q-14 11 -24 12z" />
    <glyph glyph-name="divide" unicode="&#xf7;" horiz-adv-x="464" 
d="M432 317q0 -13 -30 -40l-172 -2l-172 -2l-3 1h-4q0 10 -17 16q-9 4 -13 7.5t-4 10.5q0 5 4 13v1q64 12 158 12q34 0 102 -2q15 0 53.5 -1.5t68.5 -0.5q29 0 29 -13zM303.5 181.5q15.5 -17.5 21.5 -34t8 -20.5l-10 -11q-5 -5 -13 -17q-10 -17 -21.5 -25.5t-35.5 -8.5
l-12 1l-23 24q-15 36 -15 61q0 23 12.5 35.5t36.5 12.5q36 0 51.5 -17.5zM316.5 507.5q7.5 -7.5 11.5 -13.5t4 -13q0 -12 -15 -24q3 -5 -1 -9q-2 -14 -4 -23l-20 -3q-12 -11 -26 -11q-10 0 -18.5 5t-16 11t-10.5 9q-17 34 -17 52q0 27 27 46q11 10 22 10t27 -12
q14 -11 24 -12z" />
    <glyph glyph-name="oslash" unicode="&#xf8;" horiz-adv-x="590" 
d="M563 711q0 -10 -6 -22t-12 -23l-109 -180q10 -12 25 -35q4 -10 5 -16h1q28 -82 28 -151q0 -47 -11 -87q-47 -96 -94 -149.5t-103 -53.5q-50 0 -105 48q-4 4 -5 7q-42 -71 -79 -116q-8 -9 -11 -19.5t-5 -26.5q-2 -14 -4 -21l-10 -10l-1 -1q-14 -3 -23 -3q-26 0 -26 23
q0 13 8 34q16 30 59 112t44 83l5 4l-23 33l-1 44q-2 5 -4 11q-14 44 -14 84q0 41 15 83q4 5 4 12t-4 13.5t-5 8.5q10 6 10 17q0 6 -2 16q7 8 33 29q23 17 36 32t17 37q38 3 83 13q43 8 63 9q23 0 54 -24q51 87 79 147q11 7 18 17.5t15 26.5q8 17 15 27q40 -8 40 -33z
M430 368.5q-7 36.5 -26 64.5l-123 -205q-32 -46 -68 -113q18 -18 32 -25q12 -8 33 -10q56 0 89 25t48 79q2 5 5 16.5t8 20.5t12 15q0 7 -1.5 21.5t-1.5 25.5q0 49 -7 85.5zM152 289q0 -67 28 -125q11 18 20 47q2 4 5.5 9.5t7.5 12.5q21 31 35 57q22 36 40 65t32 51l42 66
q-26 15 -51 21q-14 8 -26 8q-7 0 -22 -5q-27 -11 -42.5 -30t-31.5 -51l-13 -23q-24 -43 -24 -103z" />
    <glyph glyph-name="ugrave" unicode="&#xf9;" horiz-adv-x="549" 
d="M507.5 36.5q5.5 -5.5 2.5 -18.5t-11 -16t-23 -3h-6l-13 1l-13 -1l-20 -1q-26 0 -39 12.5t-12 49.5q0 10 -10 10q-7 0 -14 -5l-22 -26l-10 -10q-57 -31 -120 -31q-38 0 -73 6q-7 0 -15 3l-4 4h1q-4 2 -5 5q-46 42 -44 119q2 43 2 146v176l-10 11h1q-7 6 -10.5 10.5
t-3.5 11.5q0 9 5 16q11 19 25.5 24t39.5 6h7l4 -2q14 -15 14 -39q0 -8 -2 -24q-2 -12 -2 -22v-133q0 -126 -2 -179q1 -21 20 -46q18 -24 19 -44q70 -2 115 37.5t64.5 101t19.5 129.5q0 63 -15 109t-38 50q-26 5 -36.5 12t-10.5 17q0 9 8.5 19t26.5 25q26 -2 42 -2
q55 -1 77 -57t22 -142q0 -76 -15 -181l-1 -9q-1 -5 -1 -14q0 -31 15.5 -55.5t45.5 -37.5l6 -2q13 -5 18.5 -10.5zM188 742q0 8 7 17q10 12 25 12q26 0 60 -34q73 -75 73 -110q0 -8 -2 -11q-4 -8 -15 -8q-25 0 -87 54q-61 50 -61 80z" />
    <glyph glyph-name="uacute" unicode="&#xfa;" horiz-adv-x="520" 
d="M481.5 36q8.5 -3 12 -8t1.5 -14q-3 -10 -10.5 -12.5t-15 -2.5h-9.5q-8 1 -22.5 0t-23.5 -1q-24 0 -37 12t-12 46q0 7 -4.5 11t-10.5 4q-9 0 -17 -6q-9 -7 -19.5 -19.5t-16.5 -19.5v-1l-1 1q-49 -28 -115 -28q-37 0 -73 6q-4 0 -12 2l-10 9q-24 23 -33.5 51.5t-8.5 65.5
q3 74 3 164l-1 164q-1 6 -12.5 16t-11.5 19q0 6 4 13q11 19 25.5 23t44.5 5q14 -15 14 -36q0 -8 -2 -24q-3 -12 -3 -24l-1 -69l1 -146l-1 -57q-1 -16 -1 -47q0 -13 5.5 -23.5t15.5 -23.5q10 -15 15 -25t4 -23q74 -3 121.5 38t69 105.5t21.5 134.5q0 66 -16.5 114.5
t-41.5 52.5q-44 8 -44 24q0 13 33 40q26 -2 41 -2q53 -1 74.5 -57t21.5 -143q0 -76 -8.5 -131.5t-8.5 -59.5q-1 -5 -1 -16q0 -71 65 -98q3 -1 11.5 -4zM466 750q11 0 15 -8q2 -3 2 -11q0 -35 -73 -110q-34 -34 -60 -34q-15 0 -25 12q-7 9 -7 17q0 30 61 80q62 54 87 54z" />
    <glyph glyph-name="ucircumflex" unicode="&#xfb;" horiz-adv-x="549" 
d="M507.5 36.5q5.5 -5.5 2.5 -18.5t-11 -16t-23 -3h-6l-13 1l-13 -1l-20 -1q-26 0 -39 12.5t-12 49.5q0 10 -10 10q-7 0 -14 -5l-22 -26l-10 -10q-57 -31 -120 -31q-38 0 -73 6q-7 0 -15 3l-4 4h1q-4 2 -5 5q-46 42 -44 119q2 43 2 146v176l-10 11h1q-7 6 -10.5 10.5
t-3.5 11.5q0 9 5 16q11 19 25.5 24t39.5 6h7l4 -2q14 -15 14 -39q0 -8 -2 -24q-2 -12 -2 -22v-133q0 -126 -2 -179q1 -21 20 -46q18 -24 19 -44q70 -2 115 37.5t64.5 101t19.5 129.5q0 63 -15 109t-38 50q-26 5 -36.5 12t-10.5 17q0 9 8.5 19t26.5 25q26 -2 42 -2
q55 -1 77 -57t22 -142q0 -76 -15 -181l-1 -9q-1 -5 -1 -14q0 -31 15.5 -55.5t45.5 -37.5l6 -2q13 -5 18.5 -10.5zM180.5 656.5q-5.5 5.5 -4.5 13.5q2 47 25.5 79t62.5 32q29 0 64 -19q11 -6 17.5 -11.5t8.5 -14.5q0 -1 1.5 -7t4.5 -22l14 -51v-2q0 -3 -2.5 -5.5t-5.5 -2.5
h-15q-32 0 -32 40l1 19q-22 35 -49 35q-18 0 -31.5 -16t-16.5 -38l3 -11v-3q0 -8 -6 -14.5t-14 -6.5h-13q-7 0 -12.5 5.5z" />
    <glyph glyph-name="udieresis" unicode="&#xfc;" horiz-adv-x="531" 
d="M497.5 36q8.5 -3 12 -8t1.5 -14q-3 -10 -10.5 -12.5t-15 -2.5h-9.5q-8 1 -22.5 0t-23.5 -1q-24 0 -37 12t-12 46q0 7 -4.5 11t-10.5 4q-10 0 -17 -6q-9 -7 -19.5 -19.5t-16.5 -19.5v-1l-1 1q-49 -28 -115 -28q-37 0 -73 6q-4 0 -12 2l-10 9q-24 23 -33.5 51.5t-8.5 65.5
q3 74 3 164l-1 164q-1 6 -12.5 16t-11.5 19q0 6 4 13q11 19 25.5 23t44.5 5q14 -15 14 -36q0 -8 -2 -24q-3 -12 -3 -24l-1 -69l1 -146l-1 -57q-1 -16 -1 -47q0 -13 5.5 -23.5t15.5 -23.5q10 -15 15 -25t4 -23q74 -3 121.5 38t69 105.5t21.5 134.5q0 66 -16.5 114.5
t-41.5 52.5q-44 8 -44 24q0 13 33 40q26 -2 41 -2q53 -1 74.5 -57t21.5 -143q0 -76 -8.5 -131.5t-8.5 -59.5q-1 -5 -1 -16q0 -71 65 -98q3 -1 11.5 -4zM79.5 597.5q-15.5 17.5 -21.5 34t-8 20.5l10 11q5 5 13 17q10 17 21.5 25.5t35.5 8.5l12 -1l23 -24q15 -36 15 -61
q0 -23 -12.5 -35.5t-36.5 -12.5q-36 0 -51.5 17.5zM267.5 608.5q-7.5 7.5 -11.5 13.5t-4 13q0 12 15 24q-3 5 1 9q2 14 4 23l20 3q12 11 26 11q10 0 18.5 -5t16 -11t10.5 -9q17 -34 17 -52q0 -27 -27 -46q-11 -10 -22 -10t-27 12q-14 11 -24 12z" />
    <glyph glyph-name="yacute" unicode="&#xfd;" horiz-adv-x="543" 
d="M253 9q0 44 -12 89q-22 32 -36.5 66.5t-35.5 91.5q-26 77 -49 120q-1 2 -4 7.5t-6 9t-8 4.5q0 4 -4 10q5 23 -22 36q-7 7 -24 11q-15 4 -21.5 8.5t-6.5 16.5q0 16 12 34t25 13q18 -8 37.5 -10.5t45.5 -2.5q7 0 18 -0.5t26 -2.5q12 -1 18.5 -5.5t6.5 -12.5q0 -9 -9 -18
q-24 -24 -24 -54q0 -12 3.5 -28t8.5 -31q7 -25 18.5 -54t15.5 -39q22 -52 34 -93q11 -39 27 -39q18 0 37 44t32 106.5t13 110.5q0 58 -19 66q-20 8 -24 39q32 12 73 12q17 0 49 -2t49 -2q15 0 26 -10.5t11 -25.5q1 -13 -7 -16.5t-22 -3.5q-19 0 -31.5 -4.5t-19.5 -18.5
q-18 -49 -41 -106l-29 -75l-12 -57q-1 -23 -7 -45.5t-17 -53.5q-9 -27 -11 -35q-67 -222 -119 -250v-1q-19 -23 -85 -23q-50 0 -85 10l-11 22q-14 24 -14 39t13 29q17 20 40 20q17 0 33 -10q11 -8 14 -18t4 -27q2 -25 9 -35q12 -5 18 -5q10 0 17.5 5t18.5 16q15 15 24 18
q0 18 6.5 31.5t20.5 36.5l1 1q11 47 11 91zM463 750q11 0 15 -8q2 -3 2 -11q0 -35 -73 -110q-34 -34 -60 -34q-15 0 -25 12q-7 9 -7 17q0 30 61 80q62 54 87 54z" />
    <glyph glyph-name="thorn" unicode="&#xfe;" horiz-adv-x="360" 
d="M353 200.5q-7 -44.5 -13 -53.5t-10.5 -25t-6.5 -20t-6.5 -8t-5.5 -5q-2 -3 -9 -9.5t-10 -5.5t-26.5 -15t-31.5 -22q-3 -3 -12.5 -10.5t-11.5 -10.5t-18.5 -6t-26.5 -3h-55q-4 0 -3 0.5t-2 1.5q-4 1 -8 0.5t-5 -0.5l-12 11q0 -4 11 -39q-2 8 -2 11l19 -68l-9 -32v-73
l-1 -3q0 -2 -1.5 -11t-5.5 -9q-2 0 -7 6q-3 4 -6 4q-2 0 -5 -2t-7 -2q-6 0 -11.5 13t-7.5 15q-3 4 0 12v3q0 68 -5 79q-2 4 -2 13t1 15.5t1 8.5q0 9 -1 34.5t-1 54.5l1 25q2 9 3.5 28.5t6.5 33.5q3 11 3 33l-1 56q0 21 2 25q2 5 2 17q0 10 -1.5 21t-0.5 15q1 9 1 24.5
t1 30.5q0 14 1 42.5t2 29.5q1 2 1 11l-1 22l-29 20l29 39l-29 46h20l22 12h24q1 -4 6 -32t5 -32t2.5 -7t3.5 -4l-9 -152q2 3 10 8t16 5q13 0 19 -14q1 -4 4 -4t6.5 4.5t4.5 6.5l34 -7h29l22 -6q7 -3 23.5 -8.5t26.5 -7.5q4 0 13 -4.5t17 -9.5q7 -5 17.5 -34.5t11.5 -32.5
q1 -5 -6 -49.5zM267 277.5q-6 8.5 -10 9.5q-4 2 -12.5 8t-14.5 6h-107l-15 -6l-1 -28q0 -11 1 -13q2 -3 -2 -45q-4 -40 -2 -44q1 -1 1 -8q0 -8 -1 -15.5t-1 -9.5q-2 -6 -6 -23t0 -19q4 -3 8 -10.5t5 -9.5q-2 -1 -7 -3t-5 -4t12 -3q9 -1 14 -2t8 -1l14 3l21 6q7 1 10 3.5
t7 5.5q6 4 14 7.5t9 7.5q1 2 1 4.5t2.5 3.5t7.5 1q8 0 17.5 10t12.5 14q3 1 10 4.5t7 7.5t2.5 10t3.5 8v12l4 101q-2 3 -8 11.5zM89 -8l-3 12z" />
    <glyph glyph-name="ydieresis" unicode="&#xff;" horiz-adv-x="570" 
d="M264 14q0 44 -11 84q-21 31 -35 63t-37 93q-28 85 -48 119l-2 5q-5 9 -13 12q-2 1 -2 5q0 2 -1 3.5t-2 3.5l-1 4q2 10 -3.5 17t-17.5 13q-6 6 -21 10q-15 3 -23.5 9t-8.5 19q0 20 13.5 39t30.5 13q18 -7 36.5 -9.5t43.5 -2.5q23 0 44 -3q14 -2 22 -8t8 -15q0 -10 -11 -21
q-23 -23 -23 -50q0 -11 3.5 -26.5t8.5 -30.5q14 -44 33 -90q24 -56 34 -92q4 -15 10 -25t11 -10q17 0 34.5 43t29.5 103t12 106q0 53 -16 60q-23 9 -26 42q0 4 2 6q32 12 74 12q16 0 44 -2q34 -2 50 -2q18 1 31 -10.5t13 -29.5q1 -17 -9.5 -21t-31.5 -4q-29 0 -39 -20h1
l-11 -28q-13 -35 -29 -76l-29 -73l-11 -55q-1 -25 -7 -47.5t-17 -51.5q-3 -7 -8.5 -16.5t-7.5 -15.5q-23 -76 -51.5 -151.5t-61.5 -98.5q-12 -11 -36.5 -17.5t-50.5 -6.5q-50 0 -85 10q-1 0 -2.5 1t-1.5 2q-3 8 -5.5 13.5t-3.5 7.5v-1q-15 24 -15 40t14 33q19 22 43 22
q18 0 35 -11q12 -9 15.5 -20t4.5 -28q2 -22 7 -31q7 -4 14 -4q8 0 14.5 4.5t16.5 14.5q12 12 24 18q1 16 7.5 30.5t18.5 33.5l1 3v-2q11 47 11 89zM136.5 614.5q-15.5 17.5 -21.5 34t-8 20.5l10 11q5 5 13 17q10 17 21.5 25.5t35.5 8.5l12 -1l23 -24q15 -36 15 -61
q0 -23 -12.5 -35.5t-36.5 -12.5q-36 0 -51.5 17.5zM324.5 625.5q-7.5 7.5 -11.5 13.5t-4 13q0 12 15 24q-3 5 1 9q2 14 4 23l20 3q12 11 26 11q10 0 18.5 -5t16 -11t10.5 -9q17 -34 17 -52q0 -27 -27 -46q-11 -10 -22 -10t-27 12q-14 11 -24 12z" />
    <glyph glyph-name="Amacron" unicode="&#x100;" horiz-adv-x="578" 
d="M78 -4q-19 0 -41 5q-12 4 -21.5 13.5t-9.5 20.5q0 6 1 9q9 26 30 26q8 0 17 -3q4 -2 12 -2q12 0 20 7.5t10 19.5l31 144q22 102 32 144q6 29 15 56l6 23l10 32q1 37 14 99l7 31.5t6 38.5q2 27 20 46t45 19q22 0 37 -17.5t20 -43.5q30 -138 53.5 -258t29.5 -153
q8 -10 11.5 -18.5t1.5 -18.5l8 -23q16 -42 17 -74q1 -24 19 -39.5t47 -18.5q17 -2 28 -10t11 -20q0 -16 -12.5 -24.5t-31.5 -8.5h-144q-15 1 -26 9t-16 20q-3 8 -3 12q0 12 23 22l6 3h-1q18 10 26.5 20t8.5 25q0 11 -4 22q-5 14 -5 35l1 23q1 8 1 26l-10 8q-11 5 -31.5 7.5
t-37.5 2.5q-31 -2 -50 2q-45 -12 -73 -42t-28 -67q0 -9 4 -25q8 -30 41 -39h-1q23 -7 23 -22q0 -2 -2 -8q-11 -27 -27 -27q-5 0 -11 3h1q-13 6 -25 6q-14 0 -36 -9l-20 -6h-1q-12 -3 -26 -3zM206 323q0 -16 9 -34q30 -12 65 -12q19 0 30 1q30 2 40 2q1 8 1 24q0 27 -5.5 55
t-15.5 71q-9 36 -15 67l-22 64q-2 6 -2 12q-1 9 -3 13t-10 4t-10.5 -4.5t-3.5 -13.5q0 -8 -1 -11v1q-19 -97 -40 -178l-7 -32l-1 -2q-9 -13 -9 -27zM495 804q0 -13 -30 -40l-172 -2l-172 -2l-3 1h-4q0 10 -17 16q-9 4 -13 7.5t-4 10.5q0 5 4 13v1q64 12 158 12q34 0 102 -2
q15 0 53.5 -1.5t68.5 -0.5q29 0 29 -13z" />
    <glyph glyph-name="amacron" unicode="&#x101;" horiz-adv-x="580" 
d="M305 327q23 1 36 5t19 21q8 19 8 37q0 27 -23 52q-68 29 -123 25q-37 -1 -52 -23.5t-25 -66.5q-18 -24 -37 -24q-17 0 -32 25q-11 35 -11 54q0 24 16 42.5t57 45.5l8 5q6 2 15 9h107q12 0 35 -7q3 -1 13 -3t19 -2q3 0 5 -4l4 -1q10 -5 11 -7q39 -32 57.5 -55.5
t18.5 -57.5q0 -19 -5 -35q-5 -9 -7 -19q2 -7 2 -23t-1 -22l-1 -25q0 -20 6 -33v-37q0 -38 -1 -58t-7 -42q-2 -12 -2 -17q0 -19 15 -29q4 -2 6 -2q6 0 14 10q4 6 13 11q4 1 7 8.5t4 9.5q5 10 10 16t14 6q6 0 16 -5q8 -5 12 -14.5t4 -19.5q0 -14 -7 -37q-6 -17 -21 -28
t-33 -11q-9 0 -18 3l-36 11l-32 10l-13 17q-38 1 -63 -27q-35 -18 -74 -18q-20 0 -44.5 4.5t-47.5 10.5l-39 9q-75 54 -75 120q0 28 16.5 59t45.5 57q8 12 23 15q9 2 15 6q30 10 44 16q6 2 30.5 11t46.5 14.5t42 6.5zM374 194q0 29 -22 46.5t-61 17.5t-74.5 -12.5
t-72.5 -35.5h1q-20 -19 -31.5 -36.5t-11.5 -35.5t8 -33q48 -41 89 -41q26 0 56 15q11 5 23 3q2 0 4 -1t5 -1q10 17 32 24l16 8q4 4 10 13l12 13q17 29 17 56zM451 613q0 -13 -30 -40l-172 -2l-172 -2l-3 1h-4q0 10 -17 16q-9 4 -13 7.5t-4 10.5q0 5 4 13v1q64 12 158 12
q34 0 102 -2q15 0 53.5 -1.5t68.5 -0.5q29 0 29 -13z" />
    <glyph glyph-name="Abreve" unicode="&#x102;" horiz-adv-x="571" 
d="M83 -4q-18 0 -38 5q-12 3 -20 11.5t-8 20.5q0 5 1 8q7 23 25 23q6 0 15 -3q8 -3 15 -3q13 0 22 9.5t11 23.5q13 61 31 152q22 111 31 151q7 32 22 83l10 34q-1 23 2.5 47t10.5 57q11 44 13 75q2 26 18 45t40 19q20 0 34 -17.5t19 -43.5q29 -148 52 -273.5t29 -160.5
q8 -9 12 -17.5t1 -18.5q3 -11 8 -26q15 -44 16 -76q1 -28 20 -45.5t50 -21.5q14 -1 24 -8t10 -19q0 -14 -11 -21.5t-27 -7.5h-142q-26 1 -36 27q-2 4 -2 10q0 8 5 12.5t11 7.5l8 4q18 11 27.5 22.5t9.5 28.5q0 8 -5 25q-5 14 -5 35l1 22q2 22 1 32l-12 11q-21 10 -53 10h-33
q-22 0 -33 2q-47 -12 -76 -45.5t-29 -75.5q0 -12 3 -26q4 -15 15.5 -27t28.5 -18q24 -7 17 -25q-5 -13 -12.5 -20.5t-16.5 -2.5q-13 8 -28 8q-13 0 -30.5 -6.5t-25.5 -9.5q-12 -3 -26 -3zM205 335q0 -19 11 -39q27 -14 65 -14l31 1q30 2 46 1l-2 1q2 20 2 31q0 29 -5 57.5
t-15 73.5q-12 46 -16 74l-21 67q-1 5 -2 14t-4.5 14t-12.5 5q-11 0 -14.5 -6t-4 -14t-1.5 -13q-23 -112 -40 -188l-7 -33q-10 -16 -10 -32zM239 884.5q6 -7.5 5 -16.5l-3 -11q3 -22 16.5 -38t31.5 -16q27 0 49 35l-1 19q0 40 32 40h15q4 0 6.5 -3t1.5 -7l-14 -51
q-3 -16 -4.5 -22t-1.5 -7q-2 -9 -8.5 -14.5t-17.5 -11.5q-35 -19 -64 -19q-39 0 -62.5 32t-25.5 79v2q0 7 5 12t12 5h13q9 0 15 -7.5z" />
    <glyph glyph-name="abreve" unicode="&#x103;" horiz-adv-x="562" 
d="M330 322.5q19 0.5 31.5 7t18.5 22.5q8 21 8 40q0 33 -24 57q-72 30 -129 26q-42 -1 -58 -24.5t-26 -69.5q-17 -22 -32 -22q-14 0 -27 21q-12 35 -12 55q0 23 16 41t56 44l23 14h107q14 0 34 -6q17 -7 34 -7q1 -4 8.5 -5.5t7.5 -4.5q37 -29 56.5 -53.5t19.5 -58.5
q0 -16 -4 -31q-6 -16 -8 -24q2 -16 2 -23q0 -15 -1 -23l-1 -23q0 -22 6 -38v-57q0 -49 -8 -79q-3 -10 -3 -20q0 -21 19 -32q6 -3 10 -3q7 0 15 10t13 12q8 4 14 21q4 10 7.5 15t10.5 5q8 0 15 -5q14 -8 14 -31q0 -12 -7 -35q-5 -16 -19 -26.5t-31 -10.5q-8 0 -16 3
q-22 7 -38 11l-30 9l-14 19q-44 2 -71 -30q-33 -15 -71 -15q-21 0 -47 4.5t-50 10.5q-26 6 -35 8q-73 55 -73 118q0 59 61 114q3 6 8 9t15 5t15 6l45 16q37 15 64 23t55 10q7 0 26 0.5zM394 192q0 32 -24 51.5t-65 19.5q-40 0 -77 -13t-76 -37q-22 -22 -33.5 -39.5
t-11.5 -37.5q0 -19 11 -38q48 -43 93 -43q28 0 59 16q6 3 16.5 2.5t17.5 -0.5v-2q3 11 10 16t20 9q2 1 8.5 3.5t11.5 6.5q4 5 11 13t11 14q18 32 18 59zM199 679.5q6 -7.5 5 -16.5l-3 -11q3 -22 16.5 -38t31.5 -16q27 0 49 35l-1 19q0 40 32 40h15q4 0 6.5 -3t1.5 -7
l-14 -51q-3 -16 -4.5 -22t-1.5 -7q-2 -9 -8.5 -14.5t-17.5 -11.5q-35 -19 -64 -19q-39 0 -62.5 32t-25.5 79v2q0 7 5 12t12 5h13q9 0 15 -7.5z" />
    <glyph glyph-name="Aogonek" unicode="&#x104;" horiz-adv-x="593" 
d="M577 -111q0 -23 -19 -42q-19 -15 -20 -15q-7 -3 -33 -9q-12 -3 -25 -3q-16 0 -27 4l-16 5q-23 6 -32 25l-14 29q-4 10 -4 16q0 3 2 11l18 56q2 8 8.5 14t15.5 8l35 10h-93q-26 1 -36 27q-2 4 -2 10q0 8 5 12.5t11 7.5l8 4q18 11 27.5 22.5t9.5 28.5q0 8 -5 25
q-5 14 -5 35l1 22q2 22 1 32l-12 11q-21 10 -53 10h-33q-22 0 -33 2q-47 -12 -76 -45.5t-29 -75.5q0 -12 3 -26q4 -15 15.5 -27t28.5 -18q24 -7 17 -25q-5 -13 -12.5 -20.5t-16.5 -2.5q-13 8 -28 8q-13 0 -30.5 -6.5t-25.5 -9.5q-12 -3 -26 -3q-18 0 -38 5q-12 3 -20 11.5
t-8 20.5q0 5 1 8q7 23 25 23q6 0 15 -3q7 -3 15 -3q13 0 22 9.5t11 23.5q13 61 31 152q22 111 31 151q7 32 22 83l10 34q-1 23 2.5 47t10.5 57q11 44 13 75q2 26 18 45t40 19q20 0 34 -17.5t19 -43.5q29 -148 52 -273.5t29 -160.5q8 -9 12 -17.5t1 -18.5q3 -11 8 -26
q15 -44 16 -76q1 -28 20 -45.5t50 -21.5q3 0 11 -2q6 6 8 -3q15 -8 15 -22q0 -11 -7.5 -18.5t-18.5 -9.5l-6 -8q-5 -5 -8.5 -7t-4.5 -3q-6 -1 -10 0q-23 -2 -40 -14l-20 -15q-1 -2 -4.5 -9.5t-3.5 -18.5q0 -19 10 -36q3 -5 3 -11.5t2 -9.5q7 -8 18 -8q5 0 14.5 2t15.5 3
l2 -1q6 -3 11 -3q7 0 11 3l22 15l-4.5 3.5t-4.5 10.5q0 8 16 16t22 8q7 0 6.5 -4t-0.5 -5q3 -9 3 -18zM199 335q0 -19 11 -39q27 -14 65 -14l31 1q30 2 46 1l-2 1q2 20 2 31q0 29 -5 57.5t-15 73.5q-12 46 -16 74l-21 67q-1 5 -2 14t-4.5 14t-12.5 5q-11 0 -14.5 -6t-4 -14
t-1.5 -13q-23 -112 -40 -188l-7 -33q-10 -16 -10 -32z" />
    <glyph glyph-name="aogonek" unicode="&#x105;" horiz-adv-x="583" 
d="M560 -96q0 -23 -19 -42q-19 -15 -20 -15q-7 -3 -33 -9q-12 -3 -25 -3q-16 0 -27 4l-16 5q-23 7 -32 25l-14 29q-4 10 -4 16q0 3 2 11l18 56q2 8 8.5 14t15.5 8l27 8q-30 8 -45 13l-14 19q-44 2 -71 -30q-33 -15 -71 -15q-21 0 -47 4.5t-50 10.5q-26 6 -35 8
q-73 55 -73 118q0 59 61 114q3 6 8 9t15 5t15 6l45 16q37 15 64 23t55 10q7 0 26 0.5t31.5 7t18.5 22.5q8 21 8 40q0 33 -24 57q-72 30 -129 26q-42 -1 -58 -24.5t-26 -69.5q-17 -22 -32 -22q-14 0 -27 21q-12 35 -12 55q0 23 16 41t56 44l23 14h107q14 0 34 -6q18 -7 34 -7
q1 -4 8.5 -5.5t7.5 -4.5q37 -29 56.5 -53.5t19.5 -58.5q0 -16 -4 -31q-6 -16 -8 -24q2 -16 2 -23q0 -15 -1 -23l-1 -23q0 -22 6 -38v-57q0 -49 -8 -79q-3 -10 -3 -20q0 -21 19 -32q6 -3 10 -3q7 0 15 10t13 12q8 3 14 21q4 10 7.5 15t10.5 5q8 0 15 -5q14 -8 14 -31
q0 -12 -7 -35q-6 -19 -24 -29l-2 -3q-5 -5 -8.5 -7t-4.5 -3q-6 -1 -10 0q-23 -2 -40 -14l-20 -15q-1 -2 -4.5 -9.5t-3.5 -18.5q0 -19 10 -36q3 -5 3 -11.5t2 -9.5q7 -8 18 -8q5 0 14.5 2t15.5 3l2 -1q6 -3 11 -3q7 0 11 3l22 15l-4.5 3.5t-4.5 10.5q0 8 16 16t22 8
q7 0 6.5 -4t-0.5 -5q3 -9 3 -18zM388 192q0 32 -24 51.5t-65 19.5q-40 0 -77 -13t-76 -37q-22 -22 -33.5 -39.5t-11.5 -37.5q0 -19 11 -38q48 -43 93 -43q28 0 59 16q6 3 16.5 2.5t17.5 -0.5v-2q3 11 10 16t20 9q2 1 8.5 3.5t11.5 6.5q4 5 11 13t11 14q18 32 18 59z" />
    <glyph glyph-name="Cacute" unicode="&#x106;" horiz-adv-x="509" 
d="M79 90.5q-7 21.5 -22 62.5q-6 14 -8 21q-29 84 -29 177q0 69 15 139q1 4 1 12q0 19 18.5 73t43.5 97.5t46 43.5q5 11 13 16t23 10q3 1 10 3.5t12 6.5q15 9 25 9q17 0 24 -21l34 -14q6 2 12 0l48 -21q5 1 13 -7t12 -8q8 0 15 16q12 26 24 26q9 0 16.5 -13t8.5 -24
q10 -74 10 -113q0 -58 -17 -102h1q-11 -4 -24 -4t-23 5v33q-3 8 -6 15t-5 13q-2 4 -2.5 7t-0.5 5l-1 4q-6 95 -94 134h-11q-15 9 -29 9q-37 0 -67.5 -47t-41 -74.5t-35.5 -103.5q-9 -33 -9 -76q0 -39 7 -81t8 -49q7 -35 12 -74q0 -3 2.5 -21t10.5 -33t23 -22l36 -46
q31 -38 70 -38q31 0 72 26l1 1q22 11 31.5 28t18.5 47q3 16 9 31l3 67q4 3 11 10.5t12 11.5t12 4q3 0 9 -2q10 -4 12.5 -12t2 -18t0.5 -16q1 -9 1 -28q0 -80 -49 -137l-1 -1l-25 -21l-12 -12q-5 -7 -13 -10t-17.5 -5t-16.5 -4t-11 -6q-22 -12 -42 -12q-17 0 -32.5 6
t-38.5 18l-18 9q-19 3 -50.5 29t-41.5 43q11 -14 4 7.5zM462 955q11 0 15 -8q2 -3 2 -11q0 -35 -73 -110q-34 -34 -60 -34q-15 0 -25 12q-7 9 -7 17q0 30 61 80q62 54 87 54z" />
    <glyph glyph-name="cacute" unicode="&#x107;" horiz-adv-x="528" 
d="M169 56q-42 39 -64.5 103t-22.5 133q0 76 29 135.5t85 81.5q34 30 84 30q10 0 55 -5q29 -4 40 -5q9 0 25 -4q22 -6 33 -5l48 -57q-2 -6 -2 -19l1 -35q0 -24 -11 -40q-39 -18 -58 -18q-14 0 -20 10.5t-6 33.5q0 13 1 21q13 24 13 38q0 11 -9 14q-10 3 -28 13
q-16 8 -25.5 12t-20.5 4q-12 0 -24 -6q-34 -17 -94 -30q-64 -91 -64 -188q0 -12 2 -36l10 -12l36 -95q15 -34 43.5 -53.5t62.5 -19.5q27 0 53 13q47 22 72 47.5t25 70.5q0 18 10.5 29t27.5 12q20 0 20 -21l-1 -20q3 -64 -34 -101t-93 -65q-29 -15 -30 -21q-26 -2 -36 -2
q-15 0 -24 4.5t-13 16.5q-54 -3 -96 36zM475 750q11 0 15 -8q2 -3 2 -11q0 -35 -73 -110q-34 -34 -60 -34q-15 0 -25 12q-7 9 -7 17q0 30 61 80q62 54 87 54z" />
    <glyph glyph-name="Ccircumflex" unicode="&#x108;" horiz-adv-x="502" 
d="M84.5 106q-5.5 14 -8.5 21q0 2 -10 27q-6 13 -8 21q-29 85 -29 176q0 69 15 139q1 4 1 10q0 19 18 73t43 98t47 46q4 10 12 14.5t15.5 7t9.5 3.5q18 7 21 9q14 10 28 10q18 0 27 -23l15 -5l17 -7q8 0 13 -1l46 -19q7 0 15 -8h-1q1 -1 3.5 -3t4.5 -2q6 0 10 11
q14 28 29 28q11 0 19.5 -13.5t10.5 -26.5q10 -72 10 -113q0 -58 -16 -102q0 -1 -1.5 -2t-2.5 -1q-16 -4 -24 -4q-12 0 -26 6q-2 2 -2 4v30l-6 16h1q-6 10 -6 12q-2 4 -2 10l-1 5l-1 3q-4 39 -28.5 73t-61.5 54h-10q-15 9 -28 9q-69 0 -134 -210l-3 -9v1q-9 -32 -9 -74
q0 -46 15 -127q2 -14 4 -21q6 -38 8 -53l1 -7q4 -24 9.5 -39.5t23.5 -24.5l36 -47q30 -36 65 -36q31 0 66 24q23 11 33 28t18 45q2 6 4 16t5 16q0 20 1 30l1 34l2 4l10 11v-1q8 9 14.5 13t14.5 4q2 0 10 -2q18 -8 18 -38v-11q1 -9 1 -28q0 -82 -52 -142l-13 -10h1l-12 -10h1
l-12 -12v1q-6 -9 -14.5 -12.5t-21.5 -5.5l-14 -3l-6 -3q-25 -14 -47 -14q-18 0 -35 6.5t-39 18.5v-1l-16 8q-20 4 -51.5 30t-41.5 43l8 6q-2 2 -7.5 16zM157.5 864.5q-5.5 5.5 -4.5 13.5q2 47 25.5 79t62.5 32q29 0 64 -19q11 -6 17.5 -11.5t8.5 -14.5q0 -1 1.5 -7t4.5 -22
l14 -51v-2q0 -3 -2.5 -5.5t-5.5 -2.5h-15q-32 0 -32 40l1 19q-22 35 -49 35q-18 0 -31.5 -16t-16.5 -38l3 -11v-3q0 -8 -6 -14.5t-14 -6.5h-13q-7 0 -12.5 5.5z" />
    <glyph glyph-name="ccircumflex" unicode="&#x109;" horiz-adv-x="543" 
d="M249 -1q-33 0 -42 21q-54 -1 -95 38t-63.5 102.5t-22.5 131.5q0 73 30 133t85 85q36 29 84 29q20 0 56 -6q14 -2 38 -4q6 0 13.5 -1t11.5 -2q22 -6 32 -5l4 -2l47 -56q1 -1 1 -4q-2 -12 -2 -18l1 -33q0 -27 -13 -46q-39 -17 -60 -17q-17 0 -23.5 11t-6.5 37l1 21
q11 22 11 36q0 7 -4 10q-9 3 -28 13q-26 14 -43 14q-13 0 -22 -5v1q-35 -17 -91 -30q-61 -88 -61 -180q0 -13 2 -33l2 -2l11 -19l32 -84q14 -31 41 -50t58 -19q26 0 50 12q44 20 68.5 45t24.5 67q0 19 11.5 31.5t30.5 13.5q18 0 22 -10t3 -27l-1 -8q4 -101 -128 -167
q-26 -15 -27 -18q0 -2 -1.5 -3t-3.5 -1l-13 -1q-7 -1 -20 -1zM177.5 656.5q-5.5 5.5 -4.5 13.5q2 47 25.5 79t62.5 32q29 0 64 -19q11 -6 17.5 -11.5t8.5 -14.5q0 -1 1.5 -7t4.5 -22l14 -51v-2q0 -3 -2.5 -5.5t-5.5 -2.5h-15q-32 0 -32 40l1 19q-22 35 -49 35
q-18 0 -31.5 -16t-16.5 -38l3 -11v-3q0 -8 -6 -14.5t-14 -6.5h-13q-7 0 -12.5 5.5z" />
    <glyph glyph-name="Cdotaccent" unicode="&#x10a;" horiz-adv-x="502" 
d="M84.5 106q-5.5 14 -8.5 21q0 2 -10 27q-6 13 -8 21q-29 85 -29 176q0 69 15 139q1 4 1 10q0 19 18 73t43 98t47 46q4 10 12 14.5t15.5 7t9.5 3.5q18 7 21 9q14 10 28 10q18 0 27 -23l15 -5l17 -7q8 0 13 -1l46 -19q7 0 15 -8h-1q1 -1 3.5 -3t4.5 -2q6 0 10 11
q14 28 29 28q11 0 19.5 -13.5t10.5 -26.5q10 -72 10 -113q0 -58 -16 -102q0 -1 -1.5 -2t-2.5 -1q-16 -4 -24 -4q-12 0 -26 6q-2 2 -2 4v30l-6 16h1q-6 10 -6 12q-2 4 -2 10l-1 5l-1 3q-4 39 -28.5 73t-61.5 54h-10q-15 9 -28 9q-69 0 -134 -210l-3 -9v1q-9 -32 -9 -74
q0 -46 15 -127q2 -14 4 -21q6 -38 8 -53l1 -7q4 -24 9.5 -39.5t23.5 -24.5l36 -47q30 -36 65 -36q31 0 66 24q23 11 33 28t18 45q2 6 4 16t5 16q0 20 1 30l1 34l2 4l10 11v-1q8 9 14.5 13t14.5 4q2 0 10 -2q18 -8 18 -38v-11q1 -9 1 -28q0 -82 -52 -142l-13 -10h1l-12 -10h1
l-12 -12v1q-6 -9 -14.5 -12.5t-21.5 -5.5l-14 -3l-6 -3q-25 -14 -47 -14q-18 0 -35 6.5t-39 18.5v-1l-16 8q-20 4 -51.5 30t-41.5 43l8 6q-2 2 -7.5 16zM295 851q0 -22 -17.5 -39.5t-43.5 -17.5q-50 0 -50 55q0 28 12.5 42.5t40.5 15.5q58 -18 58 -56z" />
    <glyph glyph-name="cdotaccent" unicode="&#x10b;" horiz-adv-x="543" 
d="M249 -1q-33 0 -42 21q-54 -1 -95 38t-63.5 102.5t-22.5 131.5q0 73 30 133t85 85q36 29 84 29q20 0 56 -6q14 -2 38 -4q6 0 13.5 -1t11.5 -2q22 -6 32 -5l4 -2l47 -56q1 -1 1 -4q-2 -12 -2 -18l1 -33q0 -27 -13 -46q-39 -17 -60 -17q-17 0 -23.5 11t-6.5 37l1 21
q11 22 11 36q0 7 -4 10q-9 3 -28 13q-26 14 -43 14q-13 0 -22 -5v1q-35 -17 -91 -30q-61 -88 -61 -180q0 -13 2 -33l2 -2l11 -19l32 -84q14 -31 41 -50t58 -19q26 0 50 12q44 20 68.5 45t24.5 67q0 19 11.5 31.5t30.5 13.5q18 0 22 -10t3 -27l-1 -8q4 -101 -128 -167
q-26 -15 -27 -18q0 -2 -1.5 -3t-3.5 -1l-13 -1q-7 -1 -20 -1zM316 643q0 -22 -17.5 -39.5t-43.5 -17.5q-50 0 -50 55q0 28 12.5 42.5t40.5 15.5q58 -18 58 -56z" />
    <glyph glyph-name="Ccaron" unicode="&#x10c;" horiz-adv-x="479" 
d="M82 90.5q-7 21.5 -22 62.5q-6 14 -8 21q-29 84 -29 177q0 69 15 139q1 4 1 12q0 19 18.5 73t43.5 97.5t46 43.5q5 11 13 16t23 10q3 1 10 3.5t12 6.5q15 9 25 9q17 0 24 -21l34 -14q6 2 12 0l48 -21q5 1 13 -7t12 -8q8 0 15 16q12 26 24 26q9 0 16.5 -13t8.5 -24
q10 -74 10 -113q0 -58 -17 -102h1q-11 -4 -24 -4t-23 5v33q-3 8 -6 15t-5 13q-2 4 -2.5 7t-0.5 5l-1 4q-6 95 -94 134h-11q-15 9 -29 9q-37 0 -67.5 -47t-41 -74.5t-35.5 -103.5q-9 -33 -9 -76q0 -39 7 -81t8 -49q7 -35 12 -74q0 -3 2.5 -21t10.5 -33t23 -22l36 -46
q31 -38 70 -38q31 0 72 26l1 1q22 11 31.5 28t18.5 47q3 16 9 31l3 67q4 3 11 10.5t12 11.5t12 4q3 0 9 -2q10 -4 12.5 -12t2 -18t0.5 -16q1 -9 1 -28q0 -80 -49 -137l-1 -1l-25 -21l-12 -12q-5 -7 -13 -10t-17.5 -5t-16.5 -4t-11 -6q-22 -12 -42 -12q-17 0 -32.5 6
t-38.5 18l-18 9q-19 3 -50.5 29t-41.5 43q11 -14 4 7.5zM266.5 926.5q6.5 -7.5 4.5 -16.5l-3 -11q3 -22 16.5 -38t31.5 -16q27 0 49 35l-1 19q0 40 32 40h15q4 0 6.5 -3t1.5 -7l-14 -51q-3 -16 -4.5 -22t-1.5 -7q-2 -9 -8.5 -14.5t-17.5 -11.5q-35 -19 -64 -19
q-39 0 -62.5 32t-25.5 79v2q0 7 5 12t12 5h13q9 0 15.5 -7.5z" />
    <glyph glyph-name="ccaron" unicode="&#x10d;" horiz-adv-x="529" 
d="M173 56q-42 39 -64.5 103t-22.5 133q0 76 29 135.5t85 81.5q34 30 84 30q10 0 55 -5q29 -4 40 -5q9 0 25 -4q22 -6 33 -5l48 -57q-2 -6 -2 -19l1 -35q0 -24 -11 -40q-39 -18 -58 -18q-14 0 -20 10.5t-6 33.5q0 13 1 21q13 24 13 38q0 11 -9 14q-10 3 -28 13
q-16 8 -25.5 12t-20.5 4q-12 0 -24 -6q-34 -17 -94 -30q-64 -91 -64 -188q0 -12 2 -36l10 -12l36 -95q15 -34 43.5 -53.5t62.5 -19.5q27 0 53 13q47 22 72 47.5t25 70.5q0 18 10.5 29t27.5 12q20 0 20 -21l-1 -20q3 -64 -34 -101t-93 -65q-29 -15 -30 -21q-26 -2 -36 -2
q-15 0 -24 4.5t-13 16.5q-54 -3 -96 36zM257.5 734.5q6.5 -7.5 4.5 -16.5l-3 -11q3 -22 16.5 -38t31.5 -16q27 0 49 35l-1 19q0 40 32 40h15q4 0 6.5 -3t1.5 -7l-14 -51q-3 -16 -4.5 -22t-1.5 -7q-2 -9 -8.5 -14.5t-17.5 -11.5q-35 -19 -64 -19q-39 0 -62.5 32t-25.5 79v2
q0 7 5 12t12 5h13q9 0 15.5 -7.5z" />
    <glyph glyph-name="Dcaron" unicode="&#x10e;" horiz-adv-x="580" 
d="M74 51q33 0 45 16.5t12 47.5q0 11 -2 33q-8 112 -8 201q0 48 5 138q3 41 3 73q0 35 -6 78q-3 21 -19 34.5t-41 10.5q-18 -2 -31 8t-13 26q0 25 25 25q6 0 12 -1t11 -1q13 -1 38 -1l56 1q18 1 55 1q81 0 133 -19q17 -7 26.5 -12.5t16.5 -16.5q49 -13 73 -49.5t43 -95.5
q26 -81 26 -169q0 -111 -44 -240q-39 -111 -133 -126q-5 -9 -13 -11.5t-20 -2.5h-177l-107 -1q-10 0 -16 4.5t-6 16.5q1 13 11 23t23 10zM210 703q-9 0 -15.5 -6.5t-7.5 -16.5q-1 4 -5.5 -231t-5.5 -323q-7 -26 -7 -43q0 -40 40 -45q36 -4 55 -4q41 0 68 15q18 3 32.5 11.5
t33.5 23.5q19 17 30.5 38.5t18.5 47t13 50.5q21 92 21 173q0 169 -77 229t-129 68.5t-54 9.5q-6 3 -11 3zM180.5 926.5q6.5 -7.5 4.5 -16.5l-3 -11q3 -22 16.5 -38t31.5 -16q27 0 49 35l-1 19q0 40 32 40h15q4 0 6.5 -3t1.5 -7l-14 -51q-3 -16 -4.5 -22t-1.5 -7
q-2 -9 -8.5 -14.5t-17.5 -11.5q-35 -19 -64 -19q-39 0 -62.5 32t-25.5 79v2q0 7 5 12t12 5h13q9 0 15.5 -7.5z" />
    <glyph glyph-name="dcaron" unicode="&#x10f;" horiz-adv-x="616" 
d="M46 272q0 23 19 59q14 23 13 36t2.5 24.5t9 24t9.5 21.5q17 48 54.5 73t85.5 25q40 0 80.5 -17t75.5 -48q16 21 21.5 44t5.5 52l-1 38q-2 24 -2 37q0 19 3 37q-7 3 -23.5 11.5t-31 13t-28.5 4.5q-10 0 -21 -3q-3 5 -10.5 11.5t-12.5 13t-5 13.5q0 6 2 10q6 14 25 14
q7 0 14 -1t14 -1l45 1q27 0 44 -6q16 -9 20.5 -22.5t4.5 -35.5l1 -311l-1 -121q-1 -39 -1 -119q0 -34 7 -49t19.5 -19t39.5 -6q28 0 53 -5q0 -4 4 -9t4 -8q0 -4 -4 -8l-11 -9q-33 -21 -79 -21q-16 0 -36.5 2t-28.5 3q-17 1 -21 10t-6 31q-1 3 -3 8t-4 12l-26 -24
q-7 -18 -20 -25.5t-34 -12.5q-17 -4 -27.5 -8t-17.5 -13l-83 2l-23 25q-44 47 -66 82t-22 82q0 14 1 22q-28 29 -28 60zM128 378q-7 -15 -11.5 -49.5t-4.5 -82.5q0 -16 2 -64q7 -10 34 -35q18 -17 27 -27t13 -22q8 -22 18.5 -30.5t24.5 -8.5q9 0 25 4q4 1 9 2t12 1
q12 1 26.5 8.5t21.5 10.5q2 4 16 13q22 15 38.5 31.5t29.5 49.5t13 84q0 29 -4 57q-5 42 -31.5 76.5t-70.5 74.5q-16 14 -40 14q-39 0 -83 -27.5t-57 -61.5q-1 -3 -8 -18zM577 738v-36q0 -24 2 -36l-11 -4q-6 -8 -8 -18.5t-2 -13.5q-2 -14 -5 -22.5t-11 -15.5q-3 -1 -12 -6
t-17 -5q-9 0 -18 10q-6 8 -6 13q0 7 8.5 14t11.5 10q13 12 13 27q0 17 -11.5 36t-30.5 42q-4 5 -11.5 15t-7.5 15q0 24 5 38.5t22 23.5q12 6 21 6q11 0 20.5 -6t22.5 -18l16 -14q9 -23 9 -55z" />
    <glyph glyph-name="Dcroat" unicode="&#x110;" horiz-adv-x="674" 
d="M620 381q0 -111 -44 -240q-39 -111 -133 -126q-5 -9 -13 -11.5t-20 -2.5h-177l-107 -1q-10 0 -16 4.5t-6 16.5q1 14 12 24.5t25 8.5q7 -1 19 -1q33 0 45 16.5t12 47.5q0 11 -2 33q-8 101 -8 185l-6 -1h-43l-43 2l-20 15l-1 18h-29q-2 -1 -7.5 -2.5t-10.5 -1.5
q-12 0 -12 10t12 27l92 8h69q1 26 2 45.5t2 34.5q3 39 3 73t-6 77q-3 21 -19 34.5t-41 10.5q-18 -2 -31 8t-13 26q0 25 25 25q6 0 12 -1t11 -1q13 -1 38 -1l56 1q18 1 55 1q81 0 133 -19q17 -7 26.5 -12.5t16.5 -16.5q49 -13 73 -49.5t43 -95.5q26 -81 26 -169zM567 395
q0 169 -77 229t-129 68.5t-54 9.5q-6 3 -11 3q-9 0 -15.5 -6.5t-7.5 -16.5q-2 6 -6 -272h98l22 -41v-22q0 -3 -5 -9t-13 -2q-9 5 -17 8.5t-11 4.5h-44l-32 -9l-3 -212q-7 -26 -7 -43q0 -40 40 -45q36 -4 55 -4q41 0 68 15q18 3 32.5 11.5t33.5 23.5q19 17 30.5 38.5t18.5 47
t13 50.5q21 92 21 173z" />
    <glyph glyph-name="dcroat" unicode="&#x111;" horiz-adv-x="683" 
d="M639 632q11 0 18.5 -9t7.5 -28q0 -44 -55 -44q-23 0 -47 6q-50 11 -97 15v-208l-1 -214q0 -34 7 -49t19.5 -19t39.5 -6q28 0 53 -5q0 -4 4 -9t4 -8q0 -4 -4 -8l-11 -9q-33 -21 -79 -21q-16 0 -36.5 2t-28.5 3q-17 1 -21 10t-6 31q-1 3 -3 8t-4 12l-26 -24
q-7 -18 -20 -25.5t-34 -12.5q-17 -4 -27.5 -8t-17.5 -13l-83 2l-23 25q-44 47 -66 82t-22 82q0 14 1 22q-28 29 -28 60q0 23 19 59q14 23 13 36t2.5 24.5t9 24t9.5 21.5q17 48 54.5 73t85.5 25q40 0 80.5 -17t75.5 -48q17 23 22.5 48t4.5 56q-17 1 -52 1q-81 0 -189 -12
q-15 -1 -28.5 5.5t-29.5 18.5l-9 19q22 0 32 24h93q10 -19 27 -19q9 0 22 8q59 14 131 12q0 31 3 47q-7 3 -23.5 11.5t-31 13t-28.5 4.5q-10 0 -21 -3q-3 5 -10.5 11.5t-12.5 13t-5 13.5q0 6 2 10q6 14 25 14q7 0 14 -1t14 -1l45 1q27 0 44 -6q18 -11 21.5 -25t3.5 -43v-61
l76 -6q8 0 22 -4q5 -1 11 -2t14 -1q16 0 30 9q9 6 20 6zM135 378q-7 -15 -11.5 -49.5t-4.5 -82.5q0 -16 2 -64q7 -10 34 -35q18 -17 27 -27t13 -22q8 -22 18.5 -30.5t24.5 -8.5q9 0 25 4q4 1 9 2t12 1q12 1 26.5 8.5t21.5 10.5q2 4 16 13q22 15 38.5 31.5t29.5 49.5t13 84
q0 29 -4 57q-5 42 -31.5 76.5t-70.5 74.5q-16 14 -40 14q-39 0 -83 -27.5t-57 -61.5q-1 -3 -8 -18z" />
    <glyph glyph-name="Emacron" unicode="&#x112;" horiz-adv-x="584" 
d="M203 398q19 -1 48 -1t40 6.5t13.5 22.5t4.5 66q1 17 5 23.5t12 6.5q6 0 28 -10q3 -3 3 -4v-4l-1 -10q0 -9 7 -11l3 -3q15 -85 15 -158q0 -140 -63 -132q-4 0 -4 4q-36 150 -75 150q-23 0 -39 -50.5t-16 -106.5q0 -30 6 -51q-3 -12 -3 -23q0 -49 63 -49l17 1l31 -4
q34 -4 48 -4q60 0 102 38q13 27 13 66q0 14 -2 44q-2 18 -2 29q-1 21 6 29.5t27 10.5q3 0 5 -2q34 -42 34 -104q0 -32 -10 -86q-8 -47 -9 -53q0 -4 -4 -4q-130 -27 -261 -27q-97 0 -191 17q-14 3 -21 7.5t-6 15.5q0 11 6 14.5t19 6.5l22 4l18 3h-1q15 6 20.5 17.5t7.5 54
t2 152.5v186q-10 13 -10 36q0 12 4 40t4 39q0 42 -39 39h-6q-24 -1 -37 4.5t-13 29.5q0 13 8 18.5t22 8.5q3 1 7 2t8 3q14 11 28 11q7 0 11.5 -1t8.5 -2q10 -2 14 -2q10 0 18 4q22 7 52 7l28 -1l21 -1q10 0 30 2q5 0 6 -3q1 -2 1 -8q26 -10 62 -10q21 0 31 1q9 1 26 1
q18 0 26 -1l14 17l4 2q60 -4 60 -61q0 -19 2 -57q2 -22 2 -39q-6 -18 -6 -34q0 -8 2 -28l1 -9l-2 -4q-10 -6 -20 -6q-13 0 -32 12q-2 2 -2 3q-1 4 -1 13q0 11 1 20t2 15q2 22 2 35q0 21 -6 38t-22 32l2 -1q-18 10 -60 8l-19 -1q-14 0 -26 2h-45q-50 0 -67.5 -3t-21.5 -13.5
t-3 -41.5v-33.5t-3 -60.5v-19q0 -27 -8 -44q0 -3 0.5 -7.5t2.5 -10.5l1 -2l-1 2q5 -4 20 -19zM506 788q0 -13 -30 -40l-172 -2l-172 -2l-3 1h-4q0 10 -17 16q-9 4 -13 7.5t-4 10.5q0 5 4 13v1q64 12 158 12q34 0 102 -2q15 0 53.5 -1.5t68.5 -0.5q29 0 29 -13z" />
    <glyph glyph-name="emacron" unicode="&#x113;" horiz-adv-x="481" 
d="M67.5 110q-5.5 10 -4.5 21q-17 21 -26.5 41t-6.5 43q0 24 -2 50q-2 36 -2 53q0 50 16 86q7 52 62 92l21 15q19 15 51 35q7 2 35 14l37 -13q12 -4 36 -14q10 0 35 -11q3 -1 12 -5.5t18 -4.5q7 0 14 3q29 -13 46 -75.5t17 -119.5q0 -17 -1 -23q1 -3 1 -11q0 -5 -5 -5
l-339 -3q-2 -1 -2 -2t-1 -2h1l-3 -3q2 -9 3.5 -21t2.5 -19q6 -35 13.5 -56.5t24.5 -38.5h-1l9 -6h-1q13 -8 21 -16q21 -23 42 -33.5t45 -10.5q36 0 78 24h-2l6 8v-1q24 30 37 51.5t16 48.5q0 1 2 3q19 13 32 13q24 0 25 -42q0 -15 -4.5 -26.5t-14.5 -29.5q-8 -7 -13.5 -20
t-6.5 -16q-9 -21 -23 -35t-38 -15l-105 -32q-3 0 -4 1q-19 11 -49 22q-28 9 -48.5 21.5t-34.5 33.5l-5 7q-11 14 -16.5 24zM132 426q-19 -20 -28 -34t-9 -32q0 -11 4 -23q23 -4 50 -4q18 0 41 2t33 3q62 5 78 5q31 0 47 -3q8 14 8 26q0 27 -21 53t-57 60h1q-20 11 -38 11
q-15 0 -29 -5.5t-26 -11.5t-15 -8h1l-16 -9zM451 613q0 -13 -30 -40l-172 -2l-172 -2l-3 1h-4q0 10 -17 16q-9 4 -13 7.5t-4 10.5q0 5 4 13v1q64 12 158 12q34 0 102 -2q15 0 53.5 -1.5t68.5 -0.5q29 0 29 -13z" />
    <glyph glyph-name="Ebreve" unicode="&#x114;" horiz-adv-x="584" 
d="M201 425q19 -1 47 -1q29 0 40 7t13.5 24.5t4.5 70.5q1 17 5 24t12 7q7 0 27 -10q3 -3 3 -4v-4l-1 -11q0 -10 7 -12l3 -3q15 -90 15 -169q0 -149 -62 -141q-4 0 -4 4q-19 84 -38 122.5t-36 38.5q-23 0 -39 -54.5t-16 -113.5q0 -32 6 -55q-3 -13 -3 -24q0 -53 63 -53l16 1
l31 -4q34 -4 48 -4q59 0 101 41q12 29 12 70q0 15 -2 47l-2 36q0 19 7 27.5t26 10.5q3 0 5 -2q34 -45 34 -112q0 -35 -10 -91l-9 -57q0 -4 -4 -4q-131 -29 -258 -29q-98 0 -190 18q-13 3 -20 8t-6 17q0 11 5.5 15t18.5 7l22 4l18 3h-1q15 6 20.5 18.5t7.5 58.5t2 163v199
q-10 13 -10 38q0 13 4 43t4 41q0 45 -39 42h-6q-24 -1 -36.5 4.5t-12.5 31.5q0 14 8 20t21 9q2 1 7.5 2.5t7.5 3.5q11 11 27 11q7 0 12 -1t9 -2q10 -2 14 -2q9 0 17 4q21 8 54 8l26 -1l21 -1q9 0 29 2q5 0 6 -3t1 -9q26 -11 62 -11q20 0 30 1q9 1 26 1q18 0 26 -1l14 19l4 2
q59 -4 59 -65q0 -21 2 -61q2 -24 2 -42q-6 -19 -6 -36q0 -10 2 -30l1 -10l-2 -4q-10 -7 -21 -7t-31 13q-2 2 -2 3q-1 5 -1 15q0 12 1 21t2 16q2 24 2 37q0 23 -6 41t-21 34l2 -1q-18 10 -60 8l-17 -1q-18 0 -27 3h-45q-49 0 -66.5 -3.5t-21.5 -15t-3 -44.5v-35.5t-3 -64.5
v-20q0 -29 -8 -47q3 -17 3 -19t1 -3l-1 3q15 -15 20 -21zM235.5 887.5q6.5 -7.5 4.5 -16.5l-3 -11q3 -22 16.5 -38t31.5 -16q27 0 49 35l-1 19q0 40 32 40h15q4 0 6.5 -3t1.5 -7l-14 -51q-3 -16 -4.5 -22t-1.5 -7q-2 -9 -8.5 -14.5t-17.5 -11.5q-35 -19 -64 -19
q-39 0 -62.5 32t-25.5 79v2q0 7 5 12t12 5h13q9 0 15.5 -7.5z" />
    <glyph glyph-name="ebreve" unicode="&#x115;" horiz-adv-x="481" 
d="M67.5 110q-5.5 10 -4.5 21q-17 21 -26.5 41t-6.5 43q0 24 -2 50q-2 36 -2 53q0 50 16 86q7 52 62 92l21 15q19 15 51 35q9 2 32 13q8 -2 11 -2l29 -10q12 -4 36 -14q10 0 35 -11q3 -1 12 -5.5t18 -4.5q7 0 14 3q29 -13 46 -75.5t17 -119.5q0 -17 -1 -23q1 -3 1 -11
q0 -5 -5 -5l-339 -3q-2 -1 -2 -2t-1 -2h1l-3 -3q2 -9 3.5 -21t2.5 -19q6 -35 13.5 -56.5t24.5 -38.5h-1l9 -6h-1q13 -8 21 -16q21 -23 42 -33.5t45 -10.5q36 0 78 24h-2l6 8v-1q24 30 37 51.5t16 48.5q0 1 2 3q19 13 32 13q24 0 25 -42q0 -15 -4.5 -26.5t-14.5 -29.5
q-8 -7 -13.5 -20t-6.5 -16q-9 -21 -23 -35t-38 -15l-105 -32q-3 0 -4 1q-19 11 -49 22q-28 9 -48.5 21.5t-34.5 33.5l-5 7q-11 14 -16.5 24zM132 426q-19 -20 -28 -34t-9 -32q0 -11 4 -23q23 -4 50 -4q18 0 41 2t33 3q62 5 78 5q31 0 47 -3q8 14 8 26q0 27 -21 53t-57 60h1
q-20 11 -38 11q-15 0 -29 -5.5t-26 -11.5t-15 -8h1l-16 -9zM183.5 679.5q6.5 -7.5 4.5 -16.5l-3 -11q3 -22 16.5 -38t31.5 -16q27 0 49 35l-1 19q0 40 32 40h15q4 0 6.5 -3t1.5 -7l-14 -51q-3 -16 -4.5 -22t-1.5 -7q-2 -9 -8.5 -14.5t-17.5 -11.5q-41 -22 -71 -19l-8 3
q-1 -1 -3 -1q-32 7 -50 37.5t-20 71.5v2q0 7 5 12t12 5h13q9 0 15.5 -7.5z" />
    <glyph glyph-name="Edotaccent" unicode="&#x116;" horiz-adv-x="584" 
d="M201 425q19 -1 47 -1q29 0 40 7t13.5 24.5t4.5 70.5q1 17 5 24t12 7q7 0 27 -10q3 -3 3 -4v-4l-1 -11q0 -10 7 -12l3 -3q15 -90 15 -169q0 -149 -62 -141q-4 0 -4 4q-19 84 -38 122.5t-36 38.5q-23 0 -39 -54.5t-16 -113.5q0 -32 6 -55q-3 -13 -3 -24q0 -53 63 -53l16 1
l31 -4q34 -4 48 -4q59 0 101 41q12 29 12 70q0 15 -2 47l-2 36q0 19 7 27.5t26 10.5q3 0 5 -2q34 -45 34 -112q0 -35 -10 -91l-9 -57q0 -4 -4 -4q-131 -29 -258 -29q-98 0 -190 18q-13 3 -20 8t-6 17q0 11 5.5 15t18.5 7l22 4l18 3h-1q15 6 20.5 18.5t7.5 58.5t2 163v199
q-10 13 -10 38q0 13 4 43t4 41q0 45 -39 42h-6q-24 -1 -36.5 4.5t-12.5 31.5q0 14 8 20t21 9q2 1 7.5 2.5t7.5 3.5q11 11 27 11q7 0 12 -1t9 -2q10 -2 14 -2q9 0 17 4q21 8 54 8l26 -1l21 -1q9 0 29 2q5 0 6 -3t1 -9q26 -11 62 -11q20 0 30 1q9 1 26 1q18 0 26 -1l14 19l4 2
q59 -4 59 -65q0 -21 2 -61q2 -24 2 -42q-6 -19 -6 -36q0 -10 2 -30l1 -10l-2 -4q-10 -7 -21 -7t-31 13q-2 2 -2 3q-1 5 -1 15q0 12 1 21t2 16q2 24 2 37q0 23 -6 41t-21 34l2 -1q-18 10 -60 8l-17 -1q-18 0 -27 3h-45q-49 0 -66.5 -3.5t-21.5 -15t-3 -44.5v-35.5t-3 -64.5
v-20q0 -29 -8 -47q3 -17 3 -19t1 -3l-1 3q15 -15 20 -21zM336 851q0 -22 -17.5 -39.5t-43.5 -17.5q-50 0 -50 55q0 28 12.5 42.5t40.5 15.5q58 -18 58 -56z" />
    </font>
</defs>
</svg>
