<?xml version="1.0" standalone="no"?>
<!DOCTYPE svg PUBLIC "-//W3C//DTD SVG 1.1//EN" "http://www.w3.org/Graphics/SVG/1.1/DTD/svg11.dtd" >
<svg xmlns="http://www.w3.org/2000/svg" xmlns:xlink="http://www.w3.org/1999/xlink" version="1.1">
<metadata>
Created by FontForge 20190801 at Mon Feb  8 12:19:52 2021
 By root
Holytramp
</metadata>
<defs>
<font id="Voyageur-Light" horiz-adv-x="150" >
  <font-face 
    font-family="Voyageur Light"
    font-weight="300"
    font-stretch="normal"
    units-per-em="1000"
    panose-1="0 0 4 0 0 0 0 0 0 0"
    ascent="800"
    descent="-200"
    x-height="343"
    cap-height="701"
    bbox="-213 -241 1007 1046"
    underline-thickness="50"
    underline-position="-100"
    unicode-range="U+0001-206F"
  />
<missing-glyph horiz-adv-x="364" 
d="M33 0v666h265v-666h-265zM66 33h199v600h-199v-600z" />
    <glyph glyph-name=".notdef" horiz-adv-x="364" 
d="M33 0v666h265v-666h-265zM66 33h199v600h-199v-600z" />
    <glyph glyph-name="uni0000" 
 />
    <glyph glyph-name="uni0000" 
 />
    <glyph glyph-name="uni000D" unicode="&#xd;" 
 />
    <glyph glyph-name="uni0001" 
 />
    <glyph glyph-name="uni0002" 
 />
    <glyph glyph-name="uni0003" 
 />
    <glyph glyph-name="uni0004" 
 />
    <glyph glyph-name="uni0005" 
 />
    <glyph glyph-name="uni0006" 
 />
    <glyph glyph-name="uni0007" 
 />
    <glyph glyph-name="uni0008" 
 />
    <glyph glyph-name="uni0009" unicode="&#x9;" 
 />
    <glyph glyph-name="uni000A" unicode="&#xa;" 
 />
    <glyph glyph-name="uni000B" 
 />
    <glyph glyph-name="uni000C" 
 />
    <glyph glyph-name="uni000E" 
 />
    <glyph glyph-name="uni000F" 
 />
    <glyph glyph-name="uni0010" 
 />
    <glyph glyph-name="uni0011" 
 />
    <glyph glyph-name="uni0012" 
 />
    <glyph glyph-name="uni0013" 
 />
    <glyph glyph-name="uni0014" 
 />
    <glyph glyph-name="uni0015" 
 />
    <glyph glyph-name="uni0016" 
 />
    <glyph glyph-name="uni0017" 
 />
    <glyph glyph-name="uni0018" 
 />
    <glyph glyph-name="uni0019" 
 />
    <glyph glyph-name="uni001A" 
 />
    <glyph glyph-name="uni001B" 
 />
    <glyph glyph-name="uni001C" 
 />
    <glyph glyph-name="uni001D" 
 />
    <glyph glyph-name="uni001E" 
 />
    <glyph glyph-name="uni001F" 
 />
    <glyph glyph-name="space" unicode=" " 
 />
    <glyph glyph-name="exclam" unicode="!" horiz-adv-x="67" 
d="M26 699q4 -4 5 -6q2 -8 2 -12q3 -43 2 -53q0 -52 1 -75q1 -27 1 -73q0 -6 0.5 -19t0.5 -20q0 -2 0.5 -7.5t0.5 -8.5q-2 -23 1 -42q2 -11 0 -33q-1 -14 1 -40v-17.5v-20.5v-17q0 -23 1 -35v-38q1 -37 0 -37q-1 -14 1 -41q0 -8 -2 -11q-1 -4 -7 -4q-4 0 -6 5q0 1 -0.5 3
t-0.5 3v47q1 7 1 22q0 29 1 32v5q-2 15 -2 43.5v35.5q0 4 -0.5 12t-0.5 12q-1 18 0 37q2 12 0 24q-3 36 -2 65q0 5 -0.5 14.5t-0.5 13.5v29v47v22q-1 22 -1 67q1 12 0 34t-1 29v6q0 1 2 2t3 0zM25 21q12 -2 18 -2q4 -2 4 -7q0 -2 -1 -3q-2 -5 -9 -8q-4 -1 -8 1q-6 4 -9 12
q-2 3 2 5q2 2 3 2z" />
    <glyph glyph-name="quotedbl" unicode="&#x22;" horiz-adv-x="128" 
d="M101 700q1 2 5 -2q2 -2 2 -5v-17q-3 -15 -1 -33v-7q0 -5 -7 -5q-5 0 -7 4v4v27q1 5 1 15t1 15q0 4 6 4zM28 698q2 2 5 -2q2 -2 2 -5v-17q-3 -15 -1 -33v-7q0 -5 -7 -5q-5 0 -7 4v4v27q0 5 1 15t1 15q0 4 6 4z" />
    <glyph glyph-name="numbersign" unicode="#" horiz-adv-x="734" 
d="M711 422q3 0 3 -3t-2 -3q-4 -2 -7 -2q-4 -1 -13 -1q-13 0 -37.5 0.5t-36.5 0.5q-66 0 -99 1q-13 1 -39 1q-3 -9 -8 -26t-6 -21q-2 -8 -8 -27t-9 -29q-3 -8 -7 -24.5t-7 -24.5l-12 -39q15 0 47 -2h10q35 -1 105 -1q3 0 9.5 -0.5t10.5 -0.5h30h5l1 -1q2 -1 2 -2q0 -2 -2 -4
q-4 -2 -7 -2q-4 -1 -13 -1q-25 1 -74 1q-11 0 -46 0.5t-54 1.5h-28q-1 -1 -1 -3.5t-1 -3.5q-7 -19 -20 -68q-2 -10 -4 -15l-24 -90q0 -1 -3 -20q-2 -4 -4 -4q-7 -5 -7 4v5q3 15 4 18q3 9 7.5 28t7.5 29l3 15l24 84q1 2 2.5 7t2.5 8l2 6h-13q-19 1 -59 1h-50q-11 1 -33 1
l-3 -9q-4 -14 -19 -68q-2 -5 -4 -15q-4 -13 -8 -28t-8.5 -33.5t-7.5 -28.5q0 -1 -3 -20q-2 -4 -4 -4q-7 -5 -7 4v5q3 15 4 18q2 9 7 28t7 29q2 5 4 15l24 84q1 2 2.5 7t2.5 8l3 8q-6 1 -17 1h-71h-15q-16 1 -93 -2q-8 0 -20 -2q-4 0 -6 2q-2 1 -1 4t3 4q1 0 2 1q2 0 3 1
q2 0 8.5 0.5t10.5 0.5q19 0 59 2h15h87h16q4 0 11 -1t11 -1l9 31q1 3 3.5 10t3.5 11v2q2 10 8 28.5t8 27.5q2 8 4 13q5 12 10 31l11 39h-6h-71h-15q-17 1 -49 -0.5t-44 -1.5q-6 0 -20 -2q-2 0 -6 2q-2 1 -1 4t3 4q1 0 5 2q2 0 8.5 0.5t10.5 0.5q11 -1 31.5 0t27.5 1
q10 0 15 1h88q10 0 15 -1l11 -1l6 16l3 9q4 13 13.5 47t15.5 53q1 4 3.5 10.5t3.5 8.5q2 5 4 15t4 15q1 0 1 2t1 2q2 2 3 2t4 -3v-7q-2 -10 -4 -13l-21 -71q-16 -58 -25 -86h29q14 0 23 -1q10 1 29.5 0.5t29.5 0.5h14q5 -1 29 -1l6 17l3 9l30 100q0 2 6 19q1 5 4 15t4 15
q1 0 1 2t1 2q2 2 4 2l3 -3v-7l-3 -13q-3 -12 -10.5 -35.5t-11.5 -35.5q-12 -43 -26 -87q7 0 27.5 -0.5t31.5 -1.5h10q34 -1 104 -1q4 0 10 -0.5t10 -0.5h30q4 0 5 -1zM469 416h-3h-29t-29 1h-51q-28 0 -42 1q-3 -7 -15 -49q-2 -8 -8 -27t-9 -29q-2 -8 -6.5 -24.5t-7.5 -24.5
l-12 -38h19h21h2q10 1 29.5 0t29.5 0h13q11 -1 32 -1h9l9 32q3 7 7 21v2q2 9 8 27.5t8 28.5q2 8 4 13q5 12 10 31z" />
    <glyph glyph-name="dollar" unicode="$" horiz-adv-x="234" 
d="M105 725q1 1 3 -0.5t2 -2.5l1 -10q-1 -15 -1 -47v-4l3 -3q1 0 3 -1l17 -3q12 -2 32 -12q2 -1 6 -3.5t7.5 -4.5t6.5 -5t8.5 -9t7.5 -8q9 -12 13 -24q0 -1 -1 -2t-3 -1q-1 1 -3.5 4t-3.5 5q-3 5 -7.5 10t-10.5 11l-9 9l-3 3q-17 11 -29 15q-13 4 -30 4q-4 2 -4 -3
q-1 -6 -1 -17q0 -9 -0.5 -26t-1.5 -26v-40q0 -8 1 -11q1 -9 -1 -28q-2 -15 0 -31q0 -36 -1 -54q0 -4 3 -9q17 -19 34 -33q14 -11 29 -34q2 -4 7 -10t6 -8q9 -16 16 -40q4 -23 5 -36q0 -6 1 -9q2 -17 0 -26q-1 -4 0 -10q1 -32 -12 -67l-6 -19q-3 -10 -13 -19q-11 -11 -33 -24
q-3 -3 -12 -5q-3 0 -9 -0.5t-10 -0.5q-7 -1 -7 -8q-1 -13 -1 -40v-14q0 -5 -1 -6q0 -3 -6 -3q-4 0 -4 3v15v37v14q0 5 -5 7l-1 1h-2q-15 5 -31 22q-17 21 -20 27q-3 5 -11 15q-3 4 -3 10q0 3 1 4q2 3 6 1l2 -2l16 -25q2 -3 27 -34q6 -6 19 -8l3 1v14q-1 5 -0.5 14t0.5 13
q1 4 1 20q1 30 1 91v57q1 14 1 43q2 18 2 55v6q0 6 -5 11l-10 13q-7 7 -36 53q-2 3 -3.5 9t-2.5 8q-3 8 -12 37q-6 24 -3 47q0 4 1 6t4.5 15.5t7.5 19.5q1 4 4.5 11.5t5.5 11.5q5 8 18 16q8 5 15 6q3 2 13 4q6 2 6 6v13v39v6zM96 647l-12 -3q-10 -4 -18 -12q-14 -22 -14 -23
q-7 -12 -12 -30q-10 -32 2 -59l9 -28q4 -22 15 -33q6 -11 7 -13q5 -5 12 -15t9 -13h3q3 0 3 2v35v75q1 33 1 96v17q0 4 -5 4zM109 383q-2 0 -2 -1q-2 -6 -2 -12v-43q0 -29 -1 -44v-104v-95q0 -2 0.5 -5t0.5 -4q0 -4 4 -6q15 -2 24 2q7 3 32 21q11 9 17 25q2 4 4.5 13t3.5 13
q5 17 5 30q0 17 1 26q1 3 -2 48q0 5 -2 11q0 4 -6 26q-3 16 -11 25q-12 21 -21 32l-10 10q-22 20 -31 29q-2 2 -4 3z" />
    <glyph glyph-name="percent" unicode="%" horiz-adv-x="259" 
d="M222 691q4 -2 5 -4v-4q-4 -11 -25 -81l-12 -45q-3 -8 -10 -34q-6 -21 -20 -63q-1 -2 -2 -7.5t-2 -7.5q-4 -13 -11 -39t-11 -39l-24 -80q-4 -15 -13 -46t-13 -47q-9 -35 -29 -103q-8 -29 -22 -87q-1 -6 -4 -11q-1 -1 -2 -1q-2 0 -2 -1q-5 0 -5 5v4q4 12 25 84
q20 68 29 102q4 14 11.5 40.5t11.5 40.5q11 36 12 40q2 5 5.5 18t5.5 20l27 97q5 21 17 61.5t17 60.5q18 59 29 101l6 22q0 4 6 4zM45 532h14q6 -2 17 -2q13 -2 21 -10q2 -2 5 -4.5t5.5 -5t4.5 -5.5q9 -9 6 -21q0 -1 -0.5 -3t-0.5 -3q-3 -22 -22 -35q-13 -8 -25 -8
q-27 0 -42 19q-8 10 -8 21v24q0 13 11 26q5 5 14 7zM51 521q-10 2 -16 -9q-1 -3 -4 -13l-1 -8q0 -18 3 -25q2 -6 6 -9q24 -16 46 -5q21 10 22 32v3q1 7 -3 11q-1 1 -4 3.5t-5 5t-4 4.5q-8 6 -19 8q-14 0 -21 2zM191 249q2 0 6 -0.5t6 -0.5q14 -3 28 -18q5 -5 6 -10
q3 -12 0 -25q-4 -14 -7 -20q-12 -18 -38 -25q-5 0 -7 1l-25 6q-11 5 -15 16q-8 17 -4 34q2 10 4 15q6 17 22 23q20 5 24 4zM196 237q-4 0 -11 -0.5t-10 -1.5q-15 -3 -21 -19q-2 -6 -2 -9q-4 -17 3 -30q3 -7 9 -9q5 -2 17 -4q11 -2 17 0q32 13 29 49q0 3 -1 4q0 1 -2 5
q-13 15 -28 15z" />
    <glyph glyph-name="ampersand" unicode="&#x26;" horiz-adv-x="288" 
d="M106 699q33 -2 55 -17l19 -13q8 -7 12 -14q11 -20 12 -34q0 -1 1 -3t1 -3q7 -30 0 -70q0 -2 -0.5 -5.5t-0.5 -5.5q-1 -19 -11 -37q-12 -26 -19 -37l-27 -42l-18 -33q-1 -1 -1 -5q-1 -4 -5 -6q-5 -6 -2 -13q6 -19 18 -45q11 -24 22 -50q1 -4 5 -11t5 -10q14 -25 21 -54
q9 -30 20 -50q0 -1 1 -1t1 -1q3 0 4 3l2 4q2 3 4.5 10t3.5 10q2 6 4.5 12.5t5.5 14.5t5 12l10 25q2 3 4 2q1 0 3 -2t1 -3q-2 -10 -4 -15q-6 -18 -20 -52l-12 -35q-2 -3 0 -7q0 -1 1 -3t1 -3q1 -3 12 -32q13 -34 25 -58l3 -9q2 -5 -2 -7q-4 -4 -7 2l-3 5q-4 12 -13.5 33
t-13.5 31q-2 5 -5 7q-3 3 -3 9q-1 2 -1 5l-2 3l-3 -3q-2 -2 -2 -5l-14 -38q-8 -24 -26 -43q-4 -6 -13 -9q-20 -3 -24 -2h-13q-29 -1 -59 22q-21 16 -29 39q-13 36 -12 73q0 6 0.5 13.5t1.5 16.5t1 14t5 20l15 48q1 2 2.5 6.5t2.5 6.5q8 15 22 47q2 5 21 40q3 5 9 17
q4 5 1 13q-1 2 -7 13q-16 26 -26 51q-8 22 -20 50l-6 12l-15 33q-6 11 -8 30v6q-2 12 -2 19q0 1 2 15.5t4 21.5l3 13q2 14 13 32q3 6 9 9q15 14 31 15q20 3 24 2zM127 686q-19 7 -50 -1q-22 -4 -32 -30q-7 -19 -12 -41q-4 -23 -2 -34q1 -4 1 -10q0 -11 5 -23q4 -10 7 -16
l21 -47q4 -9 11.5 -27t11.5 -27q2 -6 23 -42q0 -1 1 -1h3q8 5 9 8l10 18l15 27l31 54q14 24 15 47q0 1 0.5 3t0.5 3q2 7 4 36q1 13 -9 49q-5 22 -23 34q-24 17 -40 19q-1 0 -1 1zM115 349q-1 1 -3 1t-3 -1q-8 -12 -16 -28l-33 -67q-4 -7 -5 -14q-2 -12 -13 -41
q-5 -15 -7 -36q-1 -4 -1.5 -12.5t-0.5 -13.5v-11q2 -33 8 -48l9 -23q3 -10 9 -14q6 -6 10 -9q19 -15 37 -18l28 -3h3l10 2.5t9 1.5q5 1 9 5q13 15 21 33l9 24q5 12 13 36q3 7 0 13q-1 1 -1 2q-18 31 -27 68q0 2 -2 6t-2 6q-7 19 -23 53l-27 57q-1 3 -2.5 7t-1.5 6
q-1 3 -3.5 9t-3.5 9z" />
    <glyph glyph-name="quotesingle" unicode="'" horiz-adv-x="55" 
d="M28 700q2 2 5 -2q2 -2 2 -5v-17q-3 -15 -1 -33v-7q0 -5 -7 -5q-5 0 -7 4v4v27q0 5 1 15t1 15q0 4 6 4z" />
    <glyph glyph-name="parenleft" unicode="(" horiz-adv-x="100" 
d="M76 700q1 1 2.5 0t1.5 -2q0 -6 -1 -8q-8 -32 -13 -49q-18 -76 -18 -79q-1 -7 -2.5 -18t-2.5 -20.5t-1 -17.5q-2 -26 -4 -37q-6 -48 -6 -119q0 -15 2 -41q0 -4 0.5 -11.5t0.5 -10.5q0 -28 4 -82q7 -67 16 -120q6 -38 19 -71q0 -1 1 -3.5t1 -3.5q2 -1 -2 -5q-7 -2 -10 3
l-4 10q-10 30 -14 51q-9 42 -16 98q-1 8 -2 24.5t-2 24.5l-3 43v15q-1 10 -2 29.5t-1 29.5v41q3 58 3 59l3 39q2 12 4.5 36t3.5 36q7 49 12 64q3 16 11 42.5t10 36.5q1 4 5 12q1 3 4 4z" />
    <glyph glyph-name="parenright" unicode=")" horiz-adv-x="100" 
d="M26 699q7 2 9 -3q3 -5 5 -10q10 -30 14 -51q9 -42 16 -98q1 -8 2 -24.5t2 -24.5l3 -43v-15q1 -10 1 -29.5t1 -29.5h1v-41q-3 -58 -3 -59q0 -13 -4 -39q-4 -48 -7 -72q-6 -44 -12 -65q-3 -15 -11 -41t-10 -37q-1 -6 -5 -13q-2 -2 -4 -3q-1 -1 -2.5 0t-1.5 2q0 5 1 8
q8 32 13 49q18 76 18 79q1 7 2.5 18t2.5 20.5t1 17.5q2 26 4 37q6 60 6 119q0 15 -2 41q0 4 -0.5 11.5t-0.5 10.5q0 28 -4 82q-7 67 -16 120q-7 39 -19 71q-2 4 -2 7q-2 2 2 5z" />
    <glyph glyph-name="asterisk" unicode="*" horiz-adv-x="99" 
d="M46 692q2 -2 2 -5q1 -3 1.5 -8.5t0.5 -8.5v-4q2 -2 3 -2q3 0 7 2q1 0 6 1.5t8 1.5q2 0 3 -1q3 0 2 -3q0 -3 -1 -3q-2 -2 -3 -2q-2 -1 -5.5 -2t-6.5 -2l-6 -2l-1 -1v-2l1 -2q4 -7 12 -19q1 -1 -1 -5q-3 -3 -6 0q-2 2 -3 4l-3 6q-2 2 -5 6q-4 6 -5 5l-8 -13q-1 -1 -2.5 -4
t-2.5 -4t-3 -1q-3 0 -3 4q0 1 1 3v2q1 2 10 17q3 5 -2 7l-9 3h-1q-2 1 -3 1q-2 2 -2 5q-1 1 0 2t2 1h3l12 -3q4 0 4 3v7v15q0 1 1.5 1.5t2.5 -0.5z" />
    <glyph glyph-name="plus" unicode="+" horiz-adv-x="446" 
d="M214 514q10 -2 10 -8v-9q1 -9 0 -9q0 -12 -0.5 -25.5t-1.5 -30t-1 -26.5q0 -15 1 -18q0 -25 2 -75q0 -24 1 -36q0 -8 8 -10q24 -2 35 -2q39 0 115 2q1 0 25 3q10 1 17 -10q1 -3 1 -6t-1.5 -5.5t-4.5 -2.5q-38 -3 -75 0q-56 3 -110 0q-8 0 -10 -9q0 -6 -1 -17t-1 -20
t2 -16q1 -25 2.5 -75t2.5 -75q0 -11 -8 -16q-2 -2 -6.5 -1t-5.5 3q-5 13 -5 25q3 20 1.5 81.5t-0.5 82.5q1 4 0 11.5t-1 9.5q-1 9 -3.5 12t-11.5 4q-43 0 -64 1h-64q-6 0 -16 -2t-16 -2q-2 0 -8 6q-3 3 -2 7t4 5q3 0 9 0.5t9 0.5q42 -2 75 1q23 2 68 2q3 1 11 1q8 2 8 10
q0 6 1 16t1 16q-2 111 -1 143q0 19 -2 57q0 8 11 6z" />
    <glyph glyph-name="comma" unicode="," horiz-adv-x="79" 
d="M54 38q3 0 4 -1t1 -3q0 -1 -0.5 -3t-0.5 -3q-8 -19 -20 -41l-8 -15q-2 -4 -5 -4q-8 0 -5 8l6 13q16 28 23 43q3 5 5 6z" />
    <glyph glyph-name="hyphen" unicode="-" horiz-adv-x="306" 
d="M285 244l1 -6q0 -2 -1 -2h-1l-2 -1h-6h-37q-33 0 -49 1h-25h-14.5t-14.5 1h15q-20 0 -30 1h-34h-4q-4 -1 -4 0q-7 0 -22.5 -0.5t-23.5 -0.5q-1 0 -4.5 -0.5t-5.5 -0.5t-2 1q-1 1 -0.5 4.5t1.5 4.5h2q3 1 9 1q5 0 15 0.5t14 0.5h8h43h7q6 -1 17 -1h9h7q5 -1 16 -1h33h2
q2 -1 3 -1h51h10h15q1 0 2 -1z" />
    <glyph glyph-name="period" unicode="." horiz-adv-x="57" 
d="M29 16q5 0 6 -3q3 -3 1 -5q-2 -5 -5 -7q-3 -1 -7 0q-2 0 -4 4v3q0 10 9 8z" />
    <glyph glyph-name="slash" unicode="/" horiz-adv-x="249" 
d="M225 700q2 0 4 -4v-8q-2 -10 -4 -15l-24 -83q-6 -17 -17 -54t-17 -56l-17 -59q-4 -11 -10 -33t-10 -33q-6 -18 -16 -56q-12 -40 -22 -67q-4 -14 -12 -41.5t-11 -38.5q-3 -12 -4 -17q-7 -20 -16 -56.5t-12 -47.5q-2 -8 -4 -24q-2 -4 -4 -5q-2 -2 -5 0t-3 5q0 2 -1 6
q3 15 5 21q4 13 10 37.5t7 29.5q1 3 2.5 8.5t2.5 8.5q22 78 28 98q2 12 5 17q3 9 18 58q2 8 8 24v2q2 12 9 33.5t9 32.5q1 5 5 15q5 12 11 36q22 68 24 74q2 8 4 11q22 78 34 117q1 4 3.5 11.5t3.5 11.5q4 11 10 33q0 1 0.5 3t1.5 3q2 2 4 2z" />
    <glyph glyph-name="zero" unicode="0" horiz-adv-x="296" 
d="M138 697q11 4 28 -4q30 -10 51 -37q1 -1 7 -10q25 -50 26 -53q0 -1 3 -8.5t4 -11.5q1 -3 1 -9.5v-9.5q8 -41 7 -59q0 -2 1.5 -9.5t1.5 -10.5q0 -1 0.5 -2t1 -5t1 -7t1 -7t0.5 -5v-2q0 -3 1.5 -24.5t2.5 -43.5t0 -48t-5 -41q0 -1 -1.5 -28t-2.5 -29q-3 -9 -4.5 -26
t-2 -37.5t-1.5 -27.5q-1 -9 -3 -20.5t-3 -21.5q-12 -36 -12 -43q-1 -4 -10 -15t-10 -13l-10 -12q-6 -4 -7 -5q-7 -8 -56 -12q-8 0 -11 3q-6 3 -11 8q-18 22 -26 41q-3 8 -15 24t-15 24q-3 9 -4 11q-8 24 -9 36q-14 64 -16 70q-2 5 -4 18t-5 20q0 1 -1 3.5t-1 3.5
q-2 30 -4 47v4q-2 7 -2.5 20.5t-1.5 18.5q-1 9 -1.5 26t-0.5 22q0 7 4 66.5t5 65.5l6 33q1 5 2.5 14t2.5 13q7 25 20 41q8 10 31 38q15 19 47 26zM152 684q-29 4 -51 -19q-6 -6 -36 -44q-5 -6 -6 -12q-4 -9 -7 -20q-2 -8 -6 -30.5t-7 -34.5l-9 -108q2 -10 2.5 -26t1.5 -22
q2 -35 8 -95q4 -28 8 -43q2 -8 8 -24q3 -10 7 -30q0 -6 1 -8q1 -5 2 -10.5t2 -12.5t2 -11q2 -6 6 -17.5t5 -16.5q3 -10 17 -28.5t17 -23.5t9.5 -13.5t11.5 -14t6 -5.5q3 -3 7 -2t19 2t21 4q7 0 15 4q1 0 1 1l3 3q8 8 19 35q7 13 8 26l3 11q4 49 7 57q1 3 4.5 34.5t3.5 32.5
q7 34 7 160q0 7 -0.5 22t-0.5 21l-3 35q0 2 -1.5 13t-1.5 13q0 18 -9 65q0 2 -1 7t-1 8q1 8 -5 22q-3 8 -7 16t-9 17.5t-8 14.5q-7 13 -22 27q-14 11 -34 18q-4 2 -7 2z" />
    <glyph glyph-name="one" unicode="1" horiz-adv-x="277" 
d="M241 698q3 0 4 -1q8 -6 7 -13q0 -7 -0.5 -29t-1.5 -35q0 -8 -1 -24t-1 -24v-53q0 -3 -0.5 -8.5t-0.5 -8.5l-1 -9q0 -9 1 -9v-8v-2q-1 -7 -0.5 -23.5t0.5 -23.5v-47q1 -9 -1 -40q-2 -28 1 -51q3 -15 1 -33q-1 -13 -4 -120v-75q0 -17 2 -49q0 -6 -1 -8q0 -7 -7 -5
q-4 0 -5 3q0 1 -0.5 3t-0.5 3q0 7 -2 41v6q1 11 0 31t-1 27v44q0 13 2 41q2 23 4 71q-2 16 -2 98v55q0 51 2 151l3 57v6q-1 11 1 35q0 2 -1 3l-3 2l-9 -6q-22 -22 -54 -49q-22 -20 -33 -31l-62 -62q-5 -4 -13 -12.5t-13 -12.5q-5 -6 -16 -17l-6 -5q-1 -1 -3.5 -0.5t-3.5 1.5
t-2 3.5t0 3.5q4 6 6 8q4 5 9.5 10t12 11.5l9.5 9.5q29 27 56 56q32 30 48 44q17 16 53 48q4 4 27 22z" />
    <glyph glyph-name="two" unicode="2" horiz-adv-x="253" 
d="M132 694q37 -9 60 -21q10 -6 14 -10l12 -14q17 -18 15 -43q-2 -18 -4 -28q-13 -53 -21 -76l-15 -36q-13 -30 -25 -71q-3 -16 -10 -28q-7 -16 -17 -48q-1 -3 -2 -7t-2 -7q-3 -13 -22 -63q-16 -40 -20 -54q-3 -8 -9.5 -24t-8.5 -24q-23 -65 -29 -86q-3 -12 -11 -36
q0 -1 -0.5 -3t-0.5 -3l2 -2h30q1 0 4.5 0.5t5.5 0.5q19 0 29 2h12q25 -4 59 -2q18 1 40 -2q4 0 4 -5t-4 -6q-1 -1 -4 -1q-7 1 -63 1q-11 0 -35 2h-16q-44 -2 -65 -4q-3 0 -4 1q-15 2 -10 14q5 14 12.5 40t8.5 30q12 37 29 82q1 5 5 13t5 13q14 39 27 70q5 10 19 56
q7 30 17 50q5 9 14 41q11 39 25 69q12 25 20 58l9 30q4 15 8 45q1 15 -9 30q-12 15 -28 24q-28 12 -35 14q-21 6 -23.5 6t-22.5 -5q-6 -2 -8 -2q-30 -8 -50 -23q-2 -2 -4.5 -3.5t-5.5 -3l-5 -2.5q-1 -1 -6 1q-1 0 -2 2t0 3l2 3q9 11 22 17q28 16 53 21q10 2 13 4q11 3 21 0z
" />
    <glyph glyph-name="three" unicode="3" horiz-adv-x="255" 
d="M90 703q23 5 38 -1q6 -2 8 -2q23 -6 44 -22q27 -21 43 -48q11 -17 11 -36v-15q0 -15 -3 -32q-5 -26 -18 -41q-3 -5 -10 -14.5t-10 -13.5q-5 -6 -13 -20l-23 -39l-22 -36q-4 -7 -14 -21q-2 -4 1 -7q6 -7 16 -22.5t16 -22.5q11 -13 31 -43q19 -26 40 -75q14 -32 8 -66
q-2 -14 -7 -23q-8 -16 -16 -28q-13 -22 -36 -42q-14 -14 -36 -21q-14 -4 -20 -4q-20 -1 -43 11q-19 10 -40 31q-1 1 -2.5 4.5t-2.5 4.5q-1 2 1.5 4.5t4.5 2.5q3 0 4 -1l4 -4q20 -24 51 -35q4 -2 16 -4h10q34 7 50 26l19 24l11 15q4 8 7 12q13 18 13 51q0 7 -3 16
q-5 18 -18 47q-15 29 -21 37q-8 14 -28 40q-15 18 -21 30q-11 16 -23 29q-5 3 -7 6t-1 4q1 2 4 4t3 3q13 16 21 31q5 10 11 19q16 24 30 48q7 13 17 26l21 30q11 18 12 32l3 30q0 36 -21 58q-14 17 -23 24q-17 13 -31 18q-16 5 -21 7q-21 7 -40 -2q-27 -10 -52 -32
q-1 -1 -3 -4t-3 -4t-2.5 -1.5t-2.5 0.5q-2 4 -2 6q10 20 26 30q25 16 44 21z" />
    <glyph glyph-name="four" unicode="4" horiz-adv-x="265" 
d="M233 698q1 1 2.5 0t2.5 -2q0 -1 0.5 -3t0.5 -3q1 -2 1 -8t1 -8q2 -40 1 -59l-3 -48v-24v-49v-52l1 -16q0 -17 -1 -17v-12q3 -28 1 -84q0 -27 -1 -33v-8q2 -11 2 -50v-53q0 -10 1 -16q2 -18 2 -56q-1 -9 0 -25.5t1 -21.5v-40q0 -3 -4 -9q-2 -2 -5 -2t-5 4q-1 3 -1 10
q0 65 -1 97q0 21 -1 32q-3 45 -2 81q1 0 0 27v27v61q0 7 -1 10q0 4 -4 4l-42 3q-19 0 -29 -1q-32 -2 -58 1q-29 3 -54 -1h-4q-6 0 -6 5q0 3 -0.5 10t-0.5 11v50v16q-4 26 -4 95q0 77 -2 99q-2 26 3 52q0 5 6 5q4 0 5 -3q0 -1 0.5 -3.5t0.5 -4.5q-2 -57 2 -86v-16
q0 -37 -1 -55q-1 -8 0 -24t0 -24l3 -30q2 -20 2 -31v-38v-6q2 -7 9 -7q0 -1 2 -1q8 2 46.5 0.5t46.5 -1.5q3 0 9 0.5t9 0.5q28 2 42 -2h6q8 0 10.5 2t2.5 10v81v95q0 15 2 43q4 39 1 68q0 5 2 30z" />
    <glyph glyph-name="five" unicode="5" horiz-adv-x="251" 
d="M74 698l48 -3q14 0 86 2h10q4 0 6 -5t-3 -7l-2 -1q-5 0 -13.5 -1t-15.5 -1.5t-13 -0.5q-41 0 -81 3q-24 2 -36 2q-4 0 -16 -2q-5 0 -5 -5q0 -1 -0.5 -4t-0.5 -4q1 -8 1 -24q2 -25 -1 -44q-2 -28 -2 -43v-86q1 -29 5 -87q0 -3 4 -5q13 -3 24 -2q6 2 18 2h28q24 -2 43 -12
q13 -7 26 -17q14 -12 21 -27l18 -47q6 -19 6 -40q2 -20 2 -30l-1 -26q0 -9 -0.5 -26t-0.5 -25q1 -20 -8 -51q-1 -2 -3.5 -8.5t-3.5 -10.5t-11 -19l-10 -12q-18 -20 -39 -24q-21 -9 -59 -7q-27 1 -57 18q-9 5 -17 20q-4 6 4 10q7 2 8 -2q4 -16 31 -26q39 -14 81 -3
q26 6 42 26q12 16 16 25q11 27 11 53q0 8 0.5 17.5t1.5 21t1 17.5q3 28 -1 66q-1 12 -7 36q-4 12 -14 36q-3 8 -10 17q-29 30 -57 34q-19 2 -22 2q-10 0 -14 1q-15 0 -23 -1h-10q-8 2 -26 2q-5 0 -5 5q-2 4 -2 7q-2 22 -1 33q0 25 -2 38q-2 26 -2 78q0 4 1 16t0 18v8
q1 5 4 52v14q-2 34 1 51q0 6 7 6q22 3 40 2z" />
    <glyph glyph-name="six" unicode="6" horiz-adv-x="250" 
d="M222 698q1 -4 -2 -7q-17 -19 -27 -35q-22 -34 -32 -52q-2 -2 -12 -23q-13 -24 -26 -49q-6 -12 -8 -18q-8 -20 -13 -29q-4 -9 -10 -26t-7 -21q-21 -55 -32 -98l-1 -7q0 -2 2 -2q6 5 16 15q8 6 16 9l25 6h14q17 -1 33 -6q35 -12 51 -52q1 -3 2 -7.5t2 -6.5q7 -29 10 -38
q5 -18 7 -55v-20q0 -28 -2 -41l-3 -26q0 -12 -5 -25q-6 -15 -9 -26q-2 -11 -14 -31q-1 -3 -4 -4q-16 -13 -30 -16q-28 -8 -57 -5q-17 3 -27 11q-8 5 -22 17q-9 8 -14 21q-1 4 -3.5 11.5t-3.5 11.5q-3 7 -7 23q-2 7 -4 23l-3 48q0 4 -0.5 12t-0.5 12q-1 14 3 59q8 51 8 59
q2 7 5.5 21t5.5 21l6 21q8 21 16 47l9 24q4 12 32 81q10 23 21 41l2 4t2 3.5t2 4t2 4.5q23 40 28 48q3 5 9 14.5t8 11.5q12 21 24 34l9 8q7 4 9 0zM152 344l-1 1q-34 12 -64 -2q-8 -3 -15 -11q-13 -18 -14 -20q-2 -2 -5.5 -10.5t-7.5 -11.5q-1 -1 -1 -2t-0.5 -1.5t-0.5 -1.5
q-4 -34 -7 -51q-2 -27 -2 -29q0 -3 -0.5 -10t0.5 -11v-5.5v-8v-6.5l1 -10q0 -2 0.5 -3.5t0.5 -3.5l3 -36q1 -6 8 -31q6 -20 11 -29q17 -31 52 -37q17 -3 37 2q2 1 5 1.5t5 0.5q33 8 42 40q5 19 12 35q3 7 3 16l3 35q2 26 2 38h-1v20q0 27 -8 54q-2 6 -4 17t-4 16
q-14 45 -50 55z" />
    <glyph glyph-name="seven" unicode="7" horiz-adv-x="245" 
d="M214 699h6q5 0 5 -6q0 -3 -1 -5q-13 -44 -21 -80q-6 -28 -15 -53q-1 -3 -3.5 -10t-3.5 -11l-21 -82q-3 -10 -10 -40l-6 -21q-7 -23 -17 -52q0 -4 -1 -6q0 -4 4 -4h18h8q4 -2 5 -6q0 -4 -4 -6q-6 -2 -10 -2q-3 -1 -10 -1t-11 -1q-6 0 -9 -7q-8 -22 -10 -33q-9 -41 -16 -67
q-7 -30 -14 -45l-2 -6t-2 -7t-2 -6q-3 -12 -8.5 -35t-8.5 -34l-12 -36q-6 -18 -8 -28q0 -1 -3 -7q0 -3 -7 -3q-6 3 -4 6q2 12 4 19t6.5 21t6.5 21q6 16 7 24q0 5 4 15q2 6 2 8q4 19 15 53.5t13 40.5t4 16.5t2 12.5l5.5 22t6.5 25.5t6 21.5q2 6 -5 6h-14q-5 0 -7 1q-5 0 -5 5
q0 6 4 6q4 1 10 1l21 3q2 1 5 4l12 38q1 2 2.5 9.5t3.5 10.5q4 9 8 29q1 4 5 19q1 5 6.5 24t8.5 29q2 5 4 15q8 33 18 62q2 6 5 18t5.5 21.5t4.5 17.5t14 52q1 1 1 3q2 6 -4 6q-12 0 -18 -1q-22 -2 -35 -2q-5 0 -8 -1q-11 -2 -49 -2q-8 0 -24.5 0.5t-24.5 0.5q-10 0 -19 3
q-2 0 -2 3q-1 1 0 2.5t2 1.5h3l1 1q9 0 28 0.5t30 0.5h29q10 -1 28.5 0.5t26.5 1.5q6 0 41 5z" />
    <glyph glyph-name="eight" unicode="8" horiz-adv-x="264" 
d="M120 695q6 0 14 -2q31 -5 51 -15l7 -3q3 -3 12 -11t13 -12q16 -18 19 -30q5 -4 5 -12q5 -25 2 -34q1 -21 -11 -51q-3 -5 -7.5 -15t-6.5 -14q-4 -6 -8.5 -13.5t-10 -17t-8.5 -14.5q-1 -3 -5 -9t-5 -8l-39 -66q-5 -9 -1 -16l14 -27q16 -28 27 -53l29 -69q0 -4 4 -8
q2 -4 4 -10q3 -8 8 -22.5t7 -18.5q0 -3 1 -5q1 -8 3.5 -25t2.5 -19q1 -7 -1 -23q-2 -13 -9 -22q-6 -5 -14 -15q-14 -15 -46 -29l-8 -3l-10 -3q-27 -4 -36.5 -2.5t-30.5 9.5q-2 1 -10 4q-24 10 -33 27q-11 16 -14 27l-3 23l-3 23v8l6 34l9 42q2 8 8 24l18 37q22 39 26 49
q12 25 29 49q3 4 1 10q-23 45 -28 58q0 4 -3 7q-6 9 -15 25.5t-13 23.5q-8 15 -24 43q-7 13 -11 36q-2 8 -4 23.5t-2 17.5v10q6 29 17 45l18 20l2 2q5 1 12 5t9 5q15 8 42 10zM144 679q-34 9 -66 -6q-25 -11 -35 -33q0 -4 -3 -7q-7 -19 -7.5 -22.5t1.5 -23.5q0 -1 0.5 -3
t0.5 -3q2 -10 2 -15q0 -20 14 -44q8 -14 10 -16q4 -6 13.5 -24t15.5 -28q12 -19 27 -53q3 -8 11 -22q1 -1 3 -1t3 1q8 12 22 38q5 7 8 15q21 31 23 36q0 1 1.5 3.5t1.5 3.5q18 26 33 62q9 26 7 43v7q1 8 -6 31q-7 18 -19 28q-1 1 -4 4.5t-4 5.5q-8 8 -22 15q-17 7 -31 8z
M127 340l-7 -7q-12 -20 -17 -31l-13 -25q-3 -5 -10.5 -18t-10.5 -20q-12 -24 -17 -37q-1 -1 -3 -12q-5 -24 -10 -46q-3 -11 -3 -26q1 -25 4 -42t15 -35q2 -5 14 -14q3 -2 37 -16h2q27 -4 53 2q5 2 10 5q20 8 45 31q12 12 14 33q0 4 -2 16q-5 20 -5 34q0 2 -1.5 6.5t-1.5 6.5
q-5 15 -7 19q-5 15 -12 30q-4 5 -7 13q-12 32 -28 66q-10 23 -34 65l-2 2h-3z" />
    <glyph glyph-name="nine" unicode="9" horiz-adv-x="250" 
d="M144 695q16 -2 27 -10q8 -5 22 -17q9 -8 14 -22l7 -22q4 -10 7 -23q2 -7 4 -23l3 -48q0 -4 0.5 -12t0.5 -12q1 -14 -3 -59q-8 -50 -8 -59q-2 -7 -5.5 -21t-5.5 -21l-6 -21l-8.5 -25.5t-7.5 -21.5l-9 -24q-5 -16 -32 -82q-8 -19 -21 -40l-4 -8l-4 -8q-24 -42 -28 -48
q-6 -9 -16 -27q-13 -20 -25 -33q-6 -6 -9 -8q-7 -4 -9 0q-1 4 2 7q17 19 27 35q22 34 32 52q2 2 12 23q18 32 26 49q7 13 8 18q6 15 13 29q4 8 9.5 24.5t7.5 21.5q21 58 32 98q1 3 1 8q0 2 -2 2q-6 -5 -16 -15q-4 -5 -16 -9l-25 -6q-7 -2 -13 0q-12 0 -34 6q-35 13 -51 52
l-4 13q-6 26 -10 39q-5 18 -7 55v20q0 27 2 41l3 26q0 13 6 25q5 15 8 26q2 11 14 31l4 4q15 12 30 16q29 8 57 4zM140 683q-20 3 -37 -1q-6 -2 -10 -2q-33 -8 -42 -40q-5 -18 -12 -36q-3 -6 -3 -15l-3 -36q-1 -6 -1 -18.5t-1 -18.5h1v-20q0 -26 8 -55q1 -3 4 -14.5t5 -17.5
q12 -44 49 -55l1 -1q33 -12 64 1q11 5 15 12q2 3 7 9.5t7 9.5q1 2 5 11t8 12q1 1 1 2q1 2 1 3q4 34 7 51q2 25 2 29q0 3 0.5 10t-0.5 11v20l-1 10q0 2 -0.5 3.5t-0.5 3.5l-3 36q-2 10 -8 30q-7 22 -11 30q-17 31 -52 36z" />
    <glyph glyph-name="colon" unicode=":" horiz-adv-x="66" 
d="M38 421q4 0 6 -3q3 -3 1 -5q-2 -5 -5 -7q-3 -1 -7 0q-2 0 -4 4v3q0 10 9 8zM38 108q4 0 6 -3q3 -3 1 -5q-2 -5 -5 -7q-3 -1 -7 0q-2 0 -4 4v3q0 10 9 8z" />
    <glyph glyph-name="semicolon" unicode=";" horiz-adv-x="79" 
d="M33 396q-2 0 -4 4v3q0 10 9 8q4 0 6 -3q3 -3 1 -5q-2 -5 -5 -7q-3 -1 -7 0zM58 39q1 -1 1 -3q0 -1 -0.5 -3t-0.5 -3q-8 -19 -20 -41l-8 -15q-2 -4 -5 -4q-8 0 -5 8l6 13q16 28 23 43q3 5 5 6q3 0 4 -1z" />
    <glyph glyph-name="less" unicode="&#x3c;" horiz-adv-x="410" 
d="M363 478q1 0 3 -0.5t3 -0.5q5 -3 5 -8q2 -5 -2 -8q-1 -2 -5 -4l-58 -29l-58 -29l-40 -20t-46 -24l-12 -6q-7 -1 -46 -19q-32 -18 -47 -28q-2 -2 -4 -6q0 -2 1 -3q6 -3 10 -7q38 -22 56 -33q41 -24 57 -31q10 -5 40 -23.5t48 -25.5q22 -9 49 -26q43 -25 70 -46q5 -5 3 -12
q-6 -6 -11 -4q-15 6 -17 7q-6 3 -47 29q-47 28 -76 40q-13 6 -36.5 20t-30.5 18q-13 7 -89 50q-9 5 -18.5 11t-21 13.5t-17.5 11.5q-12 8 -2 20q4 7 8 10q3 2 10 6t10 6q6 3 55 32q3 1 8 4t7 4q34 11 142 64l87 42q2 1 6 2.5t6 2.5z" />
    <glyph glyph-name="equal" unicode="=" horiz-adv-x="485" 
d="M83 352q14 0 42.5 -0.5t42.5 -0.5h45h31h18h12h7l57 -3q19 0 55 0.5t54 0.5q3 0 9 -2q6 0 4 -10q0 -6 -4 -7t-12 -1q-109 0 -176 1l-161 1q-11 0 -33 -1t-34 -1q-9 0 -14 1q-2 1 -6 7q-1 2 1.5 5.5t4.5 3.5q6 1 18 2.5t21.5 2.5t17.5 1zM88 212q14 0 42.5 -0.5t42.5 -0.5
h113l57 -3q19 0 55 0.5t54 0.5q3 0 9 -2q6 0 4 -10q0 -6 -4 -7t-12 -1q-109 0 -176 1l-161 1q-11 0 -33 -1t-34 -1q-9 0 -14 1q-2 1 -6 7q-1 2 1.5 5.5t4.5 3.5q6 1 18 2.5t21.5 2.5t17.5 1z" />
    <glyph glyph-name="greater" unicode="&#x3e;" horiz-adv-x="409" 
d="M39 465l16 -9q16 -10 46 -32q33 -23 75 -46q13 -7 37 -23t28 -19q29 -18 87 -56q9 -6 56 -40q11 -9 1 -21l-9 -9q-4 -2 -11.5 -5.5t-10.5 -5.5l-58 -28l-7 -3.5t-8 -3.5q-22 -6 -45.5 -15t-56.5 -23t-46 -19q-15 -6 -45 -18.5t-45 -18.5q-4 -2 -12 -4q-1 0 -3 0.5t-3 0.5
q-5 3 -5 8q-2 5 3 8q1 2 5 4l56 24t65 28l90 39q8 4 12 5q11 1 48 17q28 13 49 25q2 1 4 5q0 2 -1 3l-9 9l-55 36q-47 32 -55 36q-9 5 -39 25t-48 29q-19 10 -47 30q-51 36 -68 50q-2 2 -3 6.5t1 5.5q5 7 11 5z" />
    <glyph glyph-name="question" unicode="?" horiz-adv-x="264" 
d="M154 699q4 -1 12 -2.5t12 -2.5q31 -8 48 -32q13 -16 18 -40v-8q1 -9 0 -9q-1 -22 -13 -47q-16 -40 -22 -61l-24 -69q-23 -67 -29 -89q-8 -24 -17 -45q-15 -33 -18 -69q-2 -19 -4 -57q-1 -3 -1 -8q-8 -36 -5 -69q0 -6 -1 -10q0 -5 -8 -5q-5 2 -5 6q-1 1 -1 4q0 46 3 61
q0 1 3 26q4 65 11 89q4 18 10 31q12 27 21 57q9 29 29 87q18 54 22 65q13 38 23 61q8 15 11 39q5 24 -11 48q-17 24 -48 32q-27 5 -44 3q-4 0 -11.5 -0.5t-11.5 -0.5q-24 -2 -42 -18q-23 -23 -31 -50q0 -1 -1 -2q-1 0 -1 -1l-2 -1q-3 0 -3 2q-3 6 -3 7q1 9 8 21q2 2 8 11
t10 14q24 29 59 30q21 0 31 2q9 1 18 0zM101 27q3 0 4 -1l7 -10q5 -12 -8 -16h-4q-6 0 -10 6t-1 12q3 7 12 9z" />
    <glyph glyph-name="at" unicode="@" horiz-adv-x="586" 
d="M320 505q25 0 45 -7q22 -8 33 -13l25 -9q24 -7 45 -26l18 -15q11 -8 17 -18l20 -34q10 -22 10 -34q3 -37 2 -66q-2 -24 -7 -43l-3 -14q-6 -30 -23 -60q-8 -16 -21 -25q-2 -1 -4.5 -3t-3.5 -3q-21 -18 -45 -3q-2 1 -4 3q-18 20 -21 30q-7 21 -7 27q0 2 -0.5 2.5t-1.5 -0.5
q-1 0 -1 -1l-1 -1q-10 -20 -31 -41q-9 -10 -31 -26q-8 -5 -18 -8q-3 0 -11.5 -2t-14.5 -2q-1 0 -5.5 -0.5t-6.5 -0.5h-11q-20 2 -30 4q-33 9 -44 16q-1 1 -13 8q-11 6 -17 15q-26 32 -34 67q-2 8 -2 25q0 21 3 32v6q2 26 23 62q1 4 4 5l12 15q13 17 38 32q20 8 24 8l15 3
q6 1 19 1q7 -1 21 -1q9 0 14 -3q1 0 14 -3q1 0 10 -3q1 0 4.5 -2t5.5 -2q11 -3 33 -21q2 -2 6 -7q7 -12 16 -20q2 -2 5.5 -6.5t5.5 -6.5l1 -1l1 1l1 1q0 4 0.5 11.5t0.5 10.5q1 11 1 35q0 2 2.5 3t4.5 0q3 0 3 -2v-10q0 -7 -1 -21t-1 -22q2 -12 0 -25v-10q5 -21 2 -50v-9
q-5 -18 -5 -54q0 -6 4 -18q5 -14 11 -22l6 -9q3 -3 11 -7q5 -1 14 -1q4 0 9 3q24 14 34 32q17 32 23 64q8 35 8 41v21q0 39 -4 58q-2 16 -10 27q-6 10 -9 16q-7 15 -24 29q-10 10 -20 17q-9 7 -21 15q-4 2 -20 8l-42 15l-8 3q-14 7 -26 7q-2 1 -5 1t-4 1q-7 1 -15 0
q-8 -2 -11 -1q-14 2 -26 -1q-5 0 -8 1q-10 2 -16 -1q-7 1 -19.5 -1t-18.5 -2q-8 -1 -19 -5q-4 -2 -12 -4.5t-11 -3.5q-28 -11 -44 -25l-10 -6q-18 -12 -29 -25q-3 -3 -8.5 -9.5t-8.5 -9.5q-18 -22 -34 -57q-5 -11 -9 -35q0 -6 -2 -17.5t-2 -17.5q-2 -12 0 -37q0 -3 0.5 -9.5
t0.5 -9.5q0 -4 1 -5l6 -34q4 -23 18 -44q10 -16 15 -26t25 -34q10 -12 26 -18q35 -15 44 -18q9 -5 24 -9q5 -2 14.5 -5t11.5 -4q16 -6 40 -6q8 1 24 1q2 1 7 1q10 -1 28 0t24 1q17 2 29 7q15 6 38 11q19 3 34 10q13 7 23 9q19 5 40 20q16 12 37 26q2 2 5.5 5t6.5 5.5t6 4.5
l3 3q5 0 5 -4l-3 -6l-18 -15l-30 -21q-10 -7 -37 -22q-2 0 -6 -2q-14 -3 -45 -18q-5 -2 -11 -4q-15 -2 -30 -6q-20 -6 -29 -10q-4 -2 -12 -2q-6 -1 -19.5 -1.5t-20.5 -0.5h-19q-6 0 -17.5 -0.5t-16.5 -0.5q-19 -1 -38 5q-11 4 -31 10l-45 18l-12 6t-11 5q-13 5 -27 19
q-17 18 -31 42q-3 7 -11.5 22t-11.5 23q-6 20 -8 31l-3 19q-5 42 -2 69q0 5 2 17q0 41 23 78q19 34 43 59q3 3 27 22q4 3 32 21q6 4 8 4q8 3 23 9.5t21 8.5q3 1 9 2t9 2l21 3q21 0 31 1h8q8 2 23 2h19zM265 402q-14 0 -21 -1l-21 -3q-3 0 -7 -2q-26 -12 -45 -35
q-7 -10 -9 -11q-12 -13 -25 -51q-1 -3 -1 -9q0 -9 -2 -13q-2 -16 -2 -23q0 -4 0.5 -10t0.5 -9v-8q7 -33 34 -67q6 -8 11 -10q16 -10 24 -14q11 -7 26 -10q5 0 15 -1.5t16 -2.5q17 -2 49 4q10 2 18 8q24 18 35 31q1 2 4.5 5.5l5.5 5.5q0 1 3 4.5t4 5.5q12 24 16 37q2 8 2 11
q1 12 1 36q1 5 1 15t1 15q0 10 -2 14q-10 18 -18 25q-5 3 -5 9q0 4 -3 5q-2 3 -9.5 9.5t-10.5 10.5q-2 1 -4 3l-6 4q-5 2 -15 8l-7 3.5t-8 3.5q-20 5 -46 7z" />
    <glyph glyph-name="A" unicode="A" horiz-adv-x="289" 
d="M124 699q10 2 12 -5q0 -1 0.5 -3t0.5 -3q0 -15 5 -32q4 -18 10 -54l15 -90q4 -30 7 -44q2 -14 8 -42q6 -32 10 -48l12 -61l3 -16q1 -10 11 -60q1 -5 2.5 -14.5t2.5 -13.5q1 -7 5 -26l6 -29q4 -22 7 -32q6 -26 6 -28q2 -9 7 -25.5t6 -18.5q1 -3 9 -38q1 -3 -3 -9
q-3 -3 -8 -1q-5 3 -5 8l-6 24l-3 16q-3 13 -9.5 38.5t-9.5 38.5q-2 8 -5.5 25t-5.5 26l-6 34q-5 30 -17 90q-1 3 -1.5 8t-0.5 8q-2 10 -13 10h-26h-12q-40 -2 -47 -2q-4 0 -6 -1l-4 -4q-2 -3 -4 -11l-4 -28q-1 -8 -2.5 -23t-2.5 -23q-1 -4 -2.5 -13.5t-2.5 -14.5
q-6 -32 -7 -49q0 -6 -2 -18l-3 -18q-1 -17 -7 -46q-6 -38 -6 -40q-2 -10 -2 -30q0 -8 -7 -9q-2 -2 -5.5 0t-2.5 5v4q0 2 0.5 5.5t0.5 4.5q1 21 12 79q2 12 2 20q8 55 8 66q0 3 1.5 8t1.5 6q5 26 10 68q4 34 8 52q8 45 11 81l6 42q2 20 4 28q4 33 7 46l9 50v1q1 2 1 3
q1 12 5 36.5t4 27.5q0 6 1 12t2.5 13.5l2.5 12.5l3 20q0 6 3 6zM127 644l-1 -1v-2l-9 -56q-3 -32 -9 -62q-6 -34 -8 -46l-15 -121q-1 -3 -1 -8t5 -5q2 0 5.5 -0.5t4.5 -0.5h8q6 0 14 2q17 0 51 2q11 0 10 11q-1 1 -1 4q-6 27 -16 81q-2 10 -7 38l-6 36q-9 49 -15 94
q-1 10 -5 30q-2 7 -5 4z" />
    <glyph glyph-name="B" unicode="B" horiz-adv-x="247" 
d="M35 699q27 -4 39 -12l12 -6t11 -5q25 -13 43 -24q20 -11 37 -33q7 -9 11 -27q6 -39 -1 -76q-2 -12 -12 -36l-4 -7q-28 -34 -45 -48t-46 -29q-18 -10 -25 -18q-2 -1 -4 -5q-1 -1 0 -3t2 -2q1 -1 2 -1q18 -2 42 -17q24 -14 36 -22q12 -7 22 -19l20 -23q13 -14 20 -29
q1 -1 2.5 -3.5t2.5 -3.5q12 -14 23 -59q1 -3 1.5 -6.5t1 -8t0.5 -6.5q3 -27 -10 -54q-7 -16 -16 -32q-10 -16 -27 -25q-32 -20 -48 -29q-30 -16 -54 -21q-18 -4 -26 -8q-8 -2 -14 0q-8 2 -8 9q-1 3 -1 8v106q0 14 1 42.5t1 43.5q0 26 -1 39q-1 10 -1 30t-1 30q-1 29 1 87
q1 27 -1 79q0 4 -1 18.5t0 21.5q1 19 1.5 55.5t0.5 48.5q0 11 -0.5 35t-0.5 35q0 4 1 6q0 3 2 3q8 2 11 1zM43 682q-8 5 -8 -4t1 -13v-41q0 -20 -2 -58v-1q0 -2 1 -3q0 -23 -1 -34q-1 -33 2 -75q1 -16 1 -49v-13q0 -5 3 -5l4 2q14 12 26 17q4 3 12.5 8t10.5 6q24 11 48 39
q3 2 7.5 7.5t6.5 8.5q8 8 11 19q4 9 7 20l3 14q2 19 0 58q-1 14 -11 27q-1 2 -5 6q-20 21 -47 34q-14 8 -21 10l-2 1l-2 1q-1 1 -3 1l-1 1q-1 0 -2 1l-7 3l-9 5l-11 3q-1 0 -2 1q-1 0 -3 0.5t-3 0.5l-1 1q-2 0 -3 1zM43 357q-8 2 -8 -6q0 -27 1 -41q0 -4 0.5 -11.5
t0.5 -11.5q0 -10 1.5 -48.5t-0.5 -42.5q-1 -26 -1 -63v-106q0 -1 0.5 -3t0.5 -3q0 -5 5 -3q5 0 8 1q18 2 59 19q3 1 9 5l11 6q26 16 39 23q10 6 13 11t11 17.5t11 19.5q14 31 7 61q-10 44 -26 65l-3 6q-16 26 -46 56q-2 2 -10 8l-33 21q-26 15 -50 20z" />
    <glyph glyph-name="C" unicode="C" horiz-adv-x="268" 
d="M147 698q28 3 52 -9h2q24 -8 38 -32q1 -2 8 -14q1 -1 0.5 -2.5t-1.5 -2.5q-2 -1 -5 0q-9 3 -12 11q-12 21 -40 31q-14 4 -31 6q-19 1 -36 -12q-14 -12 -20 -19q-29 -35 -45 -76q-3 -7 -7 -23q-5 -26 -7 -35q0 -1 -3 -26q-2 -18 -4 -50q-1 -12 -1 -36q-1 -30 0 -60
q0 -70 2 -105v-8q11 -73 12 -77q5 -29 15 -54q4 -11 12 -21q2 -3 5.5 -9.5t5.5 -9.5q1 -2 2.5 -6t1.5 -5q11 -20 23 -24l9 -6q26 -12 42 -10q36 7 46 13q14 9 18 21q1 3 3.5 7t3.5 7q2 4 5 3l4 -4q3 -3 1 -5q-10 -41 -52 -50l-13 -3q-24 -4 -46 0q-3 0 -6 1.5l-6 3l-5 2.5
q-12 8 -19 12q-9 5 -13 12q-5 10 -11 19q-10 21 -13 25q-8 11 -15 33q-1 3 -2.5 8.5t-2.5 8.5q-4 10 -6 23q0 2 -6 25q-2 6 -2 8q0 8 -2.5 28.5t-2.5 31.5v16q-3 19 -1 40v8v64q0 15 -1 22q-1 3 -1 18l3 42q2 38 5 56l9 48q5 22 7 27q10 22 17 32q3 4 9.5 15t10.5 17
q21 25 22 25q7 7 16 13q10 8 28 11z" />
    <glyph glyph-name="D" unicode="D" horiz-adv-x="270" 
d="M28 698q8 0 26 -2q16 -3 29 -9q20 -9 35 -24q7 -6 21 -20q30 -29 54 -78q25 -57 30 -75v-2q9 -17 19 -63q0 -4 2 -11.5t3 -11.5q4 -15 2 -35t-2 -30q1 -27 -9 -81q-8 -44 -14 -66q-8 -30 -24 -57q-26 -38 -30 -44q-8 -10 -12 -14l-36 -39q-13 -12 -37 -23q-6 -3 -17.5 -7
t-13.5 -5q-3 -1 -10 -1q-12 -1 -12 10q-1 6 -1.5 13t-1 15.5t-0.5 13.5q0 2 0.5 7t0.5 9q-2 26 -2 45q-1 4 -1 12q1 12 -1 53q0 16 1 24q2 15 0 43q0 4 -0.5 13.5t-0.5 14.5v76q1 22 0 44q-1 3 -1 8q0 1 1.5 14.5t1.5 20.5q0 28 1 34v15l-3 89q0 8 -0.5 23t-0.5 22
q-2 24 -4 38q-2 16 0 24q0 1 -0.5 4t-0.5 5q0 5 2 7t6 1zM38 684q-5 0 -5 -5q1 -6 1 -17v-16q3 -13 5 -59q0 -3 0.5 -9.5t0.5 -10.5q0 -31 1 -47q0 -7 0.5 -21t0.5 -21q0 -40 -1 -47q-3 -23 0 -45v-16q-4 -41 -1 -87q0 -15 1 -23q1 -27 0 -55q-2 -8 0 -24q0 -7 0.5 -19
t0.5 -19q0 -18 0.5 -54t0.5 -54v-8q0 -1 0.5 -3t0.5 -3q2 -6 8 -6q38 8 62 32q8 8 12 11q32 32 56 70q13 22 13 23q16 33 20 57q12 56 16 84q3 20 3 39q0 36 2 46q0 8 -1 12q-6 44 -19 81q-11 34 -27 70q-12 28 -19 41q-23 40 -60 74q-17 16 -42 25q-18 6 -30 4z" />
    <glyph glyph-name="E" unicode="E" horiz-adv-x="267" 
d="M227 700q4 0 8 -2q1 0 3 -5q1 -3 -3 -5q-3 -2 -10 -2h-28q-46 0 -69 -2h-16q0 1 -14 0h-15q-17 -2 -34 0q-6 1 -9 0.5t-3.5 -3t-1.5 -10.5q-3 -40 -1 -69q2 -26 2 -40q0 -88 1 -106q0 -6 -0.5 -18.5t-0.5 -18.5q1 -7 1 -22q2 -26 2 -39q0 -1 0.5 -3t0.5 -3q0 -5 6 -5
q43 0 52 2q10 0 23 1h4q4 -2 4 -4q0 -5 -3 -5q-4 -4 -26 -4q-16 -2 -26 -2h-29q-5 0 -7 -6q0 -1 -0.5 -3t-0.5 -3q0 -41 1 -49q2 -28 1 -41q-1 -30 1 -136q0 -26 -1 -39q0 -34 1 -41q0 -6 7 -6q12 2 36 4q12 2 17 2l117 3q3 0 8 0.5t7 0.5q7 1 14 -7q1 -1 0.5 -2.5
t-1.5 -2.5t-10 -2q-8 2 -17 0q-31 0 -91 -2q-23 0 -47 -3q-14 -2 -43 -2q-9 0 -11 9q0 3 -1 4q-2 23 -1 35q3 23 1 51v28q0 27 -1 41q-2 20 0 39q2 18 0 54q0 7 -1 24.5t0 25.5q3 55 0 89v18q0 52 -1 77v27v81q-2 10 -2 45v12q3 13 1 30q-2 8 7 8h6q19 -3 55 -1h29h12
q9 1 25.5 1.5t21.5 0.5q8 0 24.5 0.5t25.5 0.5z" />
    <glyph glyph-name="F" unicode="F" horiz-adv-x="258" 
d="M227 700q4 0 6 -1q5 0 5 -7q0 -6 -6 -8h-4q-10 1 -22 0q-31 0 -46 -1q-29 0 -43 -1q-4 0 -12 0.5t-12 0.5h-45q-2 0 -8 -2t-6 -7q-1 -8 -1 -23q0 -4 -0.5 -12.5t-0.5 -13.5q1 -11 1 -32q2 -19 1 -29q0 -3 0.5 -9t0.5 -9q3 -35 2 -63q0 -16 2 -46q2 -36 0 -71v-15
q0 -7 7 -5q10 0 32 2q42 3 43 3h6q5 -3 5 -5q0 -7 -4 -7q-1 0 -3 -0.5t-3 -0.5q-17 1 -55 -3q-3 -1 -10 -1.5t-10 -0.5q-8 0 -8 -7q1 -11 0 -32.5t0 -32.5q0 -70 -2 -106q-1 -39 2 -89v-8q1 -17 1 -51q0 -3 -7 -7q-6 0 -6 4q-1 2 -1 8q0 23 -2 71v87q2 46 0 93v84q0 3 0.5 9
t0.5 9q3 41 0 81q-1 20 -1 61q0 22 -1 32q-1 7 -1 20.5t-1 20.5q-1 13 -1 38q2 50 2 73q2 5 6 5q3 -1 16 -1h55h24q11 1 33 1q29 -1 71 4z" />
    <glyph glyph-name="G" unicode="G" horiz-adv-x="272" 
d="M163 697q30 -9 59 -28q11 -7 19 -20q2 -6 2 -8q1 -1 0 -3t-3 -2t-3 1t-2.5 2t-2.5 2q-9 13 -26 25l-8 4t-8.5 4.5t-7.5 3.5t-8 2.5t-7 2.5q-18 8 -37 0l-23 -8q-4 -2 -7 -5l-23 -22q-6 -8 -8 -12q-12 -22 -21 -48q-2 -5 -4 -15q0 -2 -2.5 -16.5t-3.5 -21.5q-2 -14 -2 -21
v-47q0 -2 -0.5 -27t-2.5 -39v-32q3 -30 3 -59q0 -54 2 -81q4 -53 10 -72q2 -10 4 -15q4 -8 9.5 -23t7.5 -20q3 -8 11 -22q12 -22 33 -35q15 -12 16 -13q12 -11 27 -12q23 -3 50 2q19 3 31 21q2 4 2 7q0 14 -1 21q-2 18 -2 28q-2 62 -4 93q-1 1 -1.5 4t-0.5 4q0 2 -3 2
q0 1 -2 1q-43 3 -44 3q-4 0 -14 2q-2 0 -2 3t1 4q2 2 3 2q18 5 34 2q10 -1 31 3q8 -1 9 -4q3 -8 2 -9q-3 -12 0 -24q1 -6 1 -16q0 -46 5 -99q2 -15 -1 -27l-3 -9q-7 -11 -15 -16q-6 -4 -9 -5q-38 -12 -76 -5q-17 3 -31 15q-16 14 -23 19q-13 11 -19 21l-13 21l-9 20
q-1 2 -4 11t-5 14q-4 10 -10 32q-5 18 -6 36q0 5 -1 15.5t-1 15.5l-3 56q-1 14 1 38q1 11 -1 35q-3 18 -1 56q0 6 1 18t1.5 21.5t0.5 17.5v16q1 16 0 16q-1 17 6 64q3 25 23 69q5 9 10 16q9 11 25 29q2 4 9 7q5 2 17.5 6.5t19.5 6.5q14 5 29 0z" />
    <glyph glyph-name="H" unicode="H" horiz-adv-x="286" 
d="M249 700q1 0 2 -1l2 -2l1 -2v-3q-1 -10 -1 -60q0 -4 0.5 -12.5t0.5 -12.5q-2 -28 1 -50v-10v-35q1 -14 1 -42q-1 -7 -1 -21q1 -17 1 -51t1 -51q0 -73 2 -110q2 -41 2 -122q0 -14 2 -44v-6q0 -33 3 -50q1 -4 -5 -8q-7 0 -7 3q-2 6 -4 14q-1 9 -1 27q1 19 -2 44
q0 3 -0.5 9.5t-0.5 10.5q0 9 0.5 25.5t0.5 24.5v11q-3 39 -3 79q0 22 -1 33v54q-1 9 -9 9l-52 3q-33 0 -50 -1q-32 -2 -50 -4q-24 -2 -31 -1h-1q-2 -1 -3 -1q-5 0 -5 -5l-1 -4q1 -10 1 -30t1 -30q0 -10 0.5 -29.5t0.5 -28.5v-36v-4q0 -7 0.5 -20t0.5 -19q0 -20 2 -56
q0 -8 0.5 -23.5t0.5 -22.5q0 -3 0.5 -8.5t1 -10t1.5 -8.5q1 -6 -6 -10t-9 3q0 1 -0.5 3.5t-0.5 4.5l-3 73q-2 46 -1 68v15q-2 9 -2 43q0 8 -0.5 23.5t-0.5 22.5v83v7q-2 5 -2 41v42q0 29 -1 43q-4 27 -2 56v15q-3 41 -3 43v12v71v19q0 3 1 4q3 3 5 3q4 0 5 -3q1 -2 1 -8
l3 -81q0 -13 2 -37q1 -9 1 -26v-26q-2 -16 0 -31q4 -38 2 -92v-20q1 -8 3 -9.5t11 -2.5q6 -2 14 0q6 1 18 2.5t17 1.5q42 2 50 2q13 -1 38.5 -1h38.5q4 0 6 1q4 2 4 4q2 6 2 10q-1 25 -1 73q0 39 -2 117v16q1 26 1 77q0 14 1 21q0 9 1 13q0 2 7 2z" />
    <glyph glyph-name="I" unicode="I" horiz-adv-x="124" 
d="M100 14q6 -2 4 -9q0 -5 -4 -6q-6 -2 -10 -1h-65l-5 10v1l2 4q0 1 1 2h37q0 6 -1 17t-1.5 20t-0.5 17q1 11 0 32.5t-1 28.5q-2 80 -2 120q1 12 1 36q-1 10 -0.5 28t0.5 27q0 14 0.5 42t0.5 42q0 7 -0.5 22t-0.5 23q-2 45 3 75q1 8 1 26l1 51q0 51 -1 51v11h-34l-3 6
q-1 3 -2 4v1l2 4q0 1 1 2h69q2 0 4.5 -0.5t3.5 -0.5q6 -2 4 -9q0 -5 -4 -6q-6 -2 -10 -1h-21l3 -69v-21t-1 -21q0 -27 -3 -53q-2 -20 0 -61q2 -31 0 -63v-14q2 -13 0.5 -73t-1.5 -72q0 -32 2 -96l3 -67v-8v-9.5v-8.5q0 -22 3 -33h17q2 0 4.5 -0.5t3.5 -0.5z" />
    <glyph glyph-name="J" unicode="J" horiz-adv-x="267" 
d="M232 697q4 4 6 -1q3 -6 3 -13t0.5 -31.5t-1.5 -31.5v-2q2 -6 0.5 -38t-1.5 -38v-10h-1v-79q0 -57 3 -85q2 -13 2 -40q0 -54 2 -81q1 -8 1 -23t1 -22v-25.5v-29.5v-25q0 -18 -4 -30q-4 -11 -7 -26q-8 -27 -30 -42q-23 -16 -43 -21q-19 -5 -50 -1q-14 1 -40 13
q-20 10 -36 29q-9 10 -17 32q-2 6 4 8t8 -2q0 -2 2 -6q9 -29 38 -45q10 -7 25 -12q8 -4 18 -4q7 0 10 -1q40 -4 75 23q12 8 19 25q3 7 10 31q2 8 4 24q3 37 0 75q-1 11 -1 34q-2 30 -2 46v47q0 11 -1 16q-4 51 -4 113q0 50 2 150q0 7 0.5 21.5t0.5 22.5q0 6 1 23.5t0 26.5
q0 2 3 5z" />
    <glyph glyph-name="K" unicode="K" horiz-adv-x="272" 
d="M239 696q5 -2 3 -7q-3 -13 -12 -23q-7 -9 -8 -12q-22 -40 -33 -61q-3 -4 -7 -12t-6 -11q-7 -15 -23 -45l-3 -6q-1 -3 -2 -4q-16 -35 -33 -65l-36 -69q-9 -15 -19 -34q-3 -4 -1 -9q22 -40 33 -59q2 -3 5 -10t5 -10q5 -9 28 -55l12 -21q5 -7 36 -62q7 -12 20.5 -32.5
t16.5 -25.5q12 -17 34 -51l3 -6q2 -4 -3 -7q-4 -4 -8 0l-12 17q-7 10 -21 32q-10 17 -19 31q-11 18 -30.5 51t-26.5 44q-6 10 -12.5 22t-14.5 27t-12 23q-22 42 -34 63q-6 12 -9 14h-2q-1 -3 -1 -8q0 -55 1 -66v-36l-1 -1q1 -5 1 -15v-15q3 -32 3 -63q0 -9 2 -25l1 -10
q0 -12 0.5 -36t0.5 -35q0 -6 -1 -8q0 -5 -6 -5t-6 5q-2 6 -2 10v41q0 15 -2 45q-1 3 -1 10l-3 81v23q2 31 -1 55q-1 5 -1 16q2 25 0 74q-3 37 -3 38q0 6 -0.5 18.5t-1.5 18.5q0 49 -1 74q0 24 -2 36q-2 9 -2 27v49q0 10 -2 30q-1 15 2 33q2 6 8 4q3 0 3 -2q1 -1 1 -4
q-1 -20 0 -41q1 -11 1 -35q0 -31 2 -47q2 -27 4 -85q0 -10 0.5 -31t0.5 -31q0 -23 5 -50l1 -2l4 2q16 24 30 51q3 6 20 38l27 54q2 5 23 44l18 34q0 1 1 3t1 3q12 21 23 43q18 33 24 43q2 3 5 9t4 7q1 2 4 5q2 2 7 0z" />
    <glyph glyph-name="L" unicode="L" horiz-adv-x="257" 
d="M26 700q4 0 6 -2q4 -8 4 -18v-34.5t-1 -35.5q-3 -16 -1 -36q2 -21 2 -62v-74q2 -74 3 -79t1 -15q0 -9 0.5 -39t1.5 -47q-2 -16 0 -47.5t2 -44.5q0 -9 0.5 -27t0.5 -28q0 -30 2 -45v-18q0 -9 2 -27q0 -5 5 -5h8q6 0 14 2q2 0 5.5 0.5t5.5 0.5q7 0 30.5 2t36.5 2q31 0 47 1
q8 0 12 1q1 0 2 1l10 1h4q1 -1 3 -1v-1l2 -1q1 -1 2 -1v-1q4 -7 -6 -11h-2q-36 -3 -38 -3q-49 0 -97 -3q-11 0 -16 -2l-30 -3q-4 0 -8 2q-6 2 -6 8q0 16 -1 24q0 12 -0.5 37t-0.5 37q0 5 -0.5 15t-0.5 16q0 13 -1 39t-1 38q0 13 -1 38.5t-1 37.5v8q1 15 -1 43q-2 26 -2 76
q0 33 -1 49v27v7q1 7 0 7q0 9 -1 28t-1 29v45q0 28 1 41v17q2 11 0 22v4q0 5 5 5z" />
    <glyph glyph-name="M" unicode="M" horiz-adv-x="284" 
d="M241 698q4 0 6 -4q0 -2 0.5 -4t0.5 -4q-1 -19 2 -109q0 -15 1 -23q1 -12 1 -70q0 -21 1 -31v-41.5t2 -51.5q0 -14 -1 -20q-1 -30 2 -67v-24t1 -25q0 -31 1 -46v-47q-1 -33 5 -99q0 -4 0.5 -11.5t0.5 -10.5q0 -4 -3 -7q-4 -4 -8 -2q0 1 -1.5 2.5t-1.5 2.5q0 13 -2.5 37
t-2.5 34v48q0 42 -2 53q-1 5 -1 30q0 44 -1 65q-1 40 0 79q0 11 -1 16q-2 15 -2 67q0 25 -1 37v18v83q0 10 -2 28q0 9 -2 29q0 1 -1 1l-2 -1q-8 -42 -21 -80q-9 -28 -16 -63q-6 -30 -15 -61q-16 -50 -22 -76l-2 -8q-5 -9 -16 -11q-3 0 -5 2q-3 3 -3 6q-4 12 -12.5 35.5
t-11.5 35.5q-2 9 -11 43q-3 11 -8.5 33.5t-8.5 33.5q-1 7 -12 38q-22 67 -24 73l-3 6q0 3 -3 1q-1 0 -1 -1l-1 -4q0 -15 0.5 -44t0.5 -43v-83v-75l3 -47q0 -15 2 -46t2 -47q3 -63 2 -77q-2 -29 1 -52q2 -14 2 -41q0 -44 3 -66v-9q0 -6 -6 -4q-3 0 -5 2q-4 4 -4 11
q0 4 -0.5 13t-0.5 14q0 36 -3 72q-3 30 -1 65q1 39 -2 87q0 5 -1 16t-1 17l-3 56q-1 17 -1 51q0 15 -0.5 43.5t-0.5 43.5v27v32v12v24v53q1 6 -1 16q0 18 3 36q0 4 7 4l3 -2q0 -1 1.5 -2.5t1.5 -2.5q3 -9 9 -24t8 -22l15 -42q8 -27 26 -81q0 -2 2 -8q10 -46 16 -69
q12 -46 26 -78q0 -2 3 -2q1 0 1 0.5t1 0.5l1 4q4 11 10.5 32t9.5 32q6 19 14 59q5 30 19 70q11 34 17 65q1 4 12 55q1 5 5 13q1 6 10 6z" />
    <glyph glyph-name="N" unicode="N" horiz-adv-x="279" 
d="M237 698q2 0 4 -4q1 -1 1 -3v-49v-50v-12h1q1 -16 1.5 -48.5t0.5 -48.5q0 -8 1 -24t1 -24q2 -38 2 -58q0 -24 -1 -36q-1 -6 0 -17.5t1 -14.5q3 -30 2 -55q0 -8 0.5 -24.5t0.5 -25.5q-2 -44 0 -86q0 -13 2 -38.5t2 -38.5l3 -26q0 -6 -5 -11q-1 -2 -4 -1.5t-4 2.5l-21 52
q-1 3 -4 10t-4 11q-8 18 -22 56q-1 5 -5 15q-9 16 -24 64q-2 5 -5.5 18t-5.5 20l-15 38q-15 43 -22 71q-3 13 -17 56v2q-5 9 -17 53l-24 86q-11 36 -18 70l-3 9l-2 1l-1 -1q-1 -2 -1 -8q1 -9 1 -28.5t1 -29.5q2 -36 4 -52q4 -31 4 -69v-72q0 -12 2 -36v-16v-26q1 -4 1 -10
q-3 -28 -1 -63q0 -16 -1 -24q0 -18 -2 -54q0 -12 2 -36v-26.5t1 -26.5q0 -17 1 -26q2 -16 2 -26q0 -4 -3 -7q-8 -5 -8 3q-7 41 -6 55t-1 61q-4 47 1 76v24q0 28 1 42v31v36l-3 42v14q1 5 1 16v31.5t-2 38.5v19q0 10 -1 16t-4 52q-4 77 -5 118q0 3 0.5 8.5t0.5 7.5q3 5 7 3
q7 -3 8 -8q14 -34 18 -51q4 -20 7 -30q10 -39 19 -68l22 -79l30 -98q3 -11 10 -32l9 -27q1 -3 2.5 -6.5t2.5 -6.5t2.5 -7t1.5 -7q0 -2 3 -5q6 -12 9 -25q9 -36 24 -72q2 -3 4 -13q1 -2 3.5 -9t4.5 -10l3 -7q4 -16 16 -46q0 -3 10 -20l1 -1l1 1q2 1 2 2v16l-3 60q0 49 1 58v8
l-3 73q0 14 -2 42q0 5 1 8q2 26 0 79q-1 6 -1 20v12q-3 14 -3 56v52q-1 5 -1 14q-1 4 -1 12q0 35 -1 53v44q0 11 4 20q0 2 5 2z" />
    <glyph glyph-name="O" unicode="O" horiz-adv-x="251" 
d="M118 698q8 2 20 -1q21 -6 44 -17q19 -9 29 -33q14 -38 15 -77v-4q3 -48 2 -58q-1 -4 0 -12t1 -10v-20v-24v-21q0 -30 1 -45q2 -57 -1 -104q0 -22 1 -33v-86q0 -4 -0.5 -10.5t-0.5 -9.5q-1 -6 -1 -18q1 -31 -19 -67q-4 -7 -25 -28q-5 -5 -15 -11q-2 -1 -11 -4
q-13 -5 -41 -5q-12 0 -21 5q-8 5 -24 13q-12 7 -18 20q-17 34 -21 63q-1 5 -2.5 16t-2.5 17q-3 13 -3 39q0 25 2 77q0 44 -1 52t-1 26q1 5 0 37t-1 39q0 6 -1 26t0 31q0 13 -2 39q-2 19 2 53l7 43q3 26 13 45q20 36 56 52q3 2 10 3t9 2zM114 683q-23 -5 -45 -27q-2 -2 -2 -3
q-20 -27 -22 -50q-1 -6 -4.5 -23t-3.5 -27q-4 -12 -4 -45q0 -3 1.5 -26t-0.5 -27q0 -2 1 -3q1 -8 1.5 -22.5t0.5 -18.5v-61v-32l3 -54q0 -4 0.5 -11.5t0.5 -10.5q-1 -6 0 -12q-2 -5 0 -11q-2 -26 -2 -39q-3 -7 -1 -15q0 -19 2 -24q2 -8 4 -28q4 -28 9 -42l9 -20
q4 -11 14 -19t32 -18q3 -2 10 -2q22 0 33 3q15 4 28 17t17 18t11 22q8 19 8 38q0 9 1 26.5t1.5 31.5t0.5 26q0 35 -1 53t0 35q1 14 1 80q0 2 -0.5 5.5t-0.5 4.5q-3 15 -1 45v30.5t1 30.5q0 4 -1 6q-3 14 -1 40q1 5 -1 26q-2 18 -2 26q-2 33 -11 57q-5 18 -18 30q-3 4 -9 7
l-35 12q-13 6 -25 1z" />
    <glyph glyph-name="P" unicode="P" horiz-adv-x="273" 
d="M25 699q6 -2 28 -2q38 -2 66 -20q16 -11 29 -19q2 -1 13.5 -9.5t17.5 -12.5q12 -8 26 -22q18 -20 26 -30q7 -8 16 -30q8 -19 5 -44l-3 -11q-10 -32 -33 -73q-8 -15 -23 -28l-21 -16q-20 -18 -50 -23q-19 -3 -32 -7q-5 -1 -17 -1q-9 0 -29 2q-6 0 -6 -6v-6q1 -7 1 -20
q0 -4 1 -12t1.5 -14t0.5 -12q2 -40 2 -60q0 -42 2 -54q2 -14 0 -26q0 -3 -0.5 -8t-1.5 -8q0 -20 2 -30q7 -40 5 -90v-2q0 -5 -6 -5q-1 -1 -3.5 0.5t-2.5 3.5l-1 7q0 7 1 7q0 32 -6 64q-4 20 -2 48q1 12 1 36q-3 45 -2 82v20q-4 45 -5 64v26q2 20 0 59q-2 14 -2 44
q1 29 -1 88q0 12 -1 36t-1 36v71q0 3 1 4q3 3 4 3zM38 686q-5 2 -5 -4q-1 -3 -1 -8v-43q0 -3 0.5 -10.5t0.5 -11.5q2 -22 2 -34q0 -64 2 -96q1 -9 0 -18q-1 -5 -1 -16q2 -23 4 -42v-8.5v-12.5v-11q0 -4 3 -4q8 -2 24 -4q11 0 16 1q32 6 49 10q17 5 30 16q4 3 12.5 11
t13.5 11q11 9 20 25q9 15 30 68q4 13 1 27q-9 36 -30 56l-13 15q-11 13 -29 25q-50 34 -56 38q-16 11 -33 14q-8 2 -23 4t-17 2z" />
    <glyph glyph-name="Q" unicode="Q" horiz-adv-x="251" 
d="M227 15q4 -3 4 -9q-2 -5 -4 -6q-2 0 -6 2l-6 5l-22 22l-9 -8q-4 -5 -16 -11q-1 -1 -4.5 -2.5t-5.5 -2.5q-13 -5 -41 -5q-11 0 -21 6l-24 13q-13 8 -18 20q-17 35 -21 63q-1 6 -2.5 17t-2.5 16q-3 13 -3 39t2 76q0 44 -1 53q-1 8 -1 25q1 6 0 38t-1 39q0 6 -1 26t0 31
q0 13 -2 39q-2 17 2 53q1 7 3.5 21t3.5 21q3 25 13 45q19 34 56 53q3 2 10 2.5t9 1.5q8 2 20 -1q26 -7 44 -16q21 -12 28 -34q15 -36 15 -76q0 -3 1 -4q2 -49 2 -59q-1 -4 0 -11.5t1 -9.5v-65q0 -30 1 -45q2 -59 -1 -104q-1 -11 1 -33q1 0 0 -44v-43q0 -3 -0.5 -9.5
t-0.5 -9.5q-2 -12 -1 -18q0 -34 -19 -67q-1 -1 -8 -11q25 -22 26 -23zM184 38l-6 6q-14 18 -35 37q0 1 1 3v1l5 3q1 0 2.5 0.5t2.5 0.5q22 -22 26 -27l13 -15q5 6 13 25q9 19 9 38q0 9 1 26.5t1.5 31.5t0.5 26q0 36 -1 53q-1 18 0 36q1 13 1 80q0 1 -0.5 4.5t-0.5 5.5
q-3 15 -1 45v30t1 30q0 4 -1 6q-3 15 -1 40q0 16 -1 27q-2 16 -2 25q-2 33 -11 58q-5 16 -18 30q-5 5 -9 6q-24 8 -35 13q-12 4 -25 1q-24 -7 -45 -28l-1 -1l-1 -2q-20 -27 -22 -49q-1 -5 -4.5 -23t-3.5 -28q-1 -4 -4 -44q0 -4 1.5 -26.5t-0.5 -26.5q0 -3 1 -4q1 -8 1.5 -22
t0.5 -19q0 -40 1 -61q0 -5 -0.5 -15.5t-0.5 -15.5q1 -8 1.5 -17.5t1 -20.5t0.5 -17q0 -4 0.5 -10.5t0.5 -10.5q-1 -6 0 -12q-2 -6 0 -11q-2 -26 -2 -39q-3 -7 -1 -16q0 -18 2 -23t4 -29q4 -28 10 -42q2 -6 8 -20q4 -10 14 -18t32 -18q3 -2 10 -2q22 0 33 3q17 4 28 16z" />
    <glyph glyph-name="R" unicode="R" horiz-adv-x="273" 
d="M34 699q11 -4 48 -11q14 -2 22 -4l12 -6l51 -30q22 -14 30 -24l13 -18q13 -19 21 -43q6 -14 5 -28v-24h1l-1 -7q0 -8 1 -8q1 -19 -9 -41l-15 -28q-13 -25 -40 -39q-31 -17 -61 -27q-20 -4 -30 -5q-10 -2 -26 -4q-2 0 -3 -2t0 -3q1 -3 11 -20q8 -12 21 -34t19 -31
q24 -40 45 -81l4 -7q2 -4 13 -22t16 -27q4 -7 8.5 -14.5t10 -16.5t8.5 -14q22 -35 25 -40q2 -4 5 -8.5t7 -10t6 -8.5q3 -4 -2 -11q-1 -1 -3.5 -1.5t-3.5 0.5l-4 3l-11 17q-20 36 -52 86q-4 6 -5 9q-11 21 -25 44q-3 4 -7 12t-6 11q-24 43 -47 82q-7 12 -21 34t-18 28
q0 3 -2 3q-1 1 -4 1q-2 0 -2 -3q3 -18 0 -38q0 -2 0.5 -4t0.5 -4v-26q-1 -15 0 -31v-8q-1 -10 1 -30v-34q0 -17 2 -53q0 -5 1 -15t1 -15v-51q1 -4 -4 -8q-5 -2 -7 2q-2 12 -2 18q-2 44 -2 67q-1 5 -1 14q-2 20 -1 30q0 41 -1 49q-1 6 -1 18q0 13 0.5 40t0.5 41q-2 64 -4 77
v6q1 10 -1 44v41q0 9 -0.5 27t-0.5 27q0 50 3 75q2 29 -1 43t-3 42q1 7 1 22q0 5 6 5h7zM48 681q-10 3 -12.5 1.5t-2.5 -12.5q0 -18 2 -26q4 -21 3 -41q0 -25 -2 -38q-3 -24 -1 -55q2 -29 0 -47q1 -2 1 -5q2 -52 1 -79q0 -1 0.5 -4t0.5 -4q0 -5 5 -5q8 -2 10 -2q6 0 18 1.5
t19 2.5l13 3q29 8 69 30q14 10 20 17q10 12 24 40q8 19 8 39v28q0 13 -5 28q-6 23 -24 51q-9 14 -23 23t-31 19q-18 10 -26 15q-14 9 -28 12q-13 2 -39 8z" />
    <glyph glyph-name="S" unicode="S" horiz-adv-x="268" 
d="M133 699q19 0 29 -1q4 0 10 -2q46 -16 73 -46q3 -5 3 -10l-2 -3q-2 -2 -4 0q-4 3 -7 7q-7 8 -19 15q-19 14 -35 20q-16 7 -28 7h-14q-13 1 -31 -6q-30 -13 -46 -42q-14 -26 -19 -49q-1 -3 -6 -34l-3 -28q-2 -30 0 -45l6 -36l9 -18q10 -14 16 -21q13 -16 30 -23
q8 -3 22 -9.5t21 -9.5q8 -3 10 -4q22 -12 33 -19q47 -32 59 -87q2 -8 4 -24q0 -6 1 -17.5t1.5 -21t0.5 -17.5l-3 -47q0 -26 -12 -57q-12 -30 -33 -46q-21 -14 -36 -17l-24 -6q-14 -4 -30 -1q-2 1 -6 1t-6 1q-21 5 -35 16q-17 16 -25 24l-10 12q-10 11 2 21q1 1 2 1t1 -1
q5 -12 17 -26q14 -16 28 -26q7 -4 13 -5q31 -12 64 -1l25 9q4 2 12 8q21 14 28 38q13 31 13 74v26q2 33 -2 57q0 1 -0.5 4.5t-0.5 5.5q-4 33 -29 66q-20 23 -61 43q-16 8 -50 22q-17 7 -30 21l-18 22q-10 14 -13 27q0 2 -2 6.5t-2 7.5q0 1 -1 3.5t-1.5 4.5t-0.5 4
q-2 53 1 73q1 2 1 6q0 14 9 54q5 23 27 58q4 7 11 12q23 22 47 27q12 2 16 2z" />
    <glyph glyph-name="T" unicode="T" horiz-adv-x="249" 
d="M159 700h58q2 0 4.5 -0.5t3.5 -0.5q4 -2 4 -6q0 -5 -4 -7q-2 -1 -7 -1q-21 -1 -40 0h-38q-6 0 -16 -2q-2 0 -2 -3v-14q3 -17 1 -40v-24q0 -2 0.5 -6t0.5 -6q0 -9 -0.5 -27t-0.5 -27q0 -6 -2 -40v-48q1 -16 1 -50v-94q0 -6 0.5 -18.5t0.5 -19.5v-12q1 -11 1 -34
q0 -29 1 -44t-1 -46q-1 -11 0 -33t1 -29v-18q3 -34 3 -35q2 -10 -10 -15q-4 0 -4 3q-2 7 -2 22l-3 80q0 13 1 20q3 27 1 62q-1 17 -1 52q0 34 -1 56q0 48 -1 74q0 4 0.5 12t0.5 12v22q-2 73 1 110v24v16q2 10 0 29q-2 0 -1 21l1 21q1 19 -2 42q0 6 -7 6q-13 1 -40 -1
q-16 -1 -36 2q-5 0 -5 8q2 5 6 5h3q14 -2 42 0q7 1 40 1h24q4 0 12 0.5t12 0.5z" />
    <glyph glyph-name="U" unicode="U" horiz-adv-x="269" 
d="M31 699q4 0 4 -4v-34v-17.5t-2 -22.5v-6l3 -74q0 -6 2 -20q3 -28 0 -58q-2 -12 -2 -20v-50v-2t1 -2q2 -11 2 -66v-22q-3 -27 -3 -54q1 -21 -1 -64v-40q0 -29 12 -67q10 -30 43 -54q13 -7 23 -5q5 1 11 -1t10 -2h16q13 -2 41 7q9 4 13 9q5 7 15 19q5 8 9 22q5 21 5 90
q-2 40 -1 60q1 27 0 52v2q1 12 1 25.5t-0.5 29.5t-0.5 25q0 8 0.5 24t0.5 24q2 40 1 60q-3 52 -1 88v12q-2 19 0 56q1 9 1.5 18.5t1 21.5t0.5 18t2 16q0 2 3 2l3 -1q2 -2 2 -4q2 -8 2 -12q0 -51 -3 -68q-2 -19 1 -34q1 -13 0 -26q-3 -26 0 -52q2 -42 2 -64q0 -27 -2 -40
q-1 -6 -1 -38q0 -12 2 -36l1 -10q-1 -14 -1 -40t-1 -40q-2 -15 1 -28q1 -4 1 -14q0 -2 -0.5 -6t-0.5 -6q3 -23 -1 -70q0 -19 -5 -41q-5 -16 -13 -27q-2 -2 -8 -10q-13 -16 -34 -22q-18 -5 -34 -5q-5 0 -15.5 -0.5t-16.5 -0.5q-22 0 -38 11q-22 16 -31 28q-16 24 -20 43
q-8 36 -9 41q-2 20 0 28v14v27q1 18 1 54q1 17 1 50.5t1 50.5v18q-1 7 -1.5 21t-0.5 19v18q-1 17 1 52q1 9 1 28q-1 7 -1 21t-1 21q-1 8 -1.5 23t-0.5 23q-3 21 -1 50q3 24 3 50q0 1 0.5 3t0.5 3q4 4 7 2z" />
    <glyph glyph-name="V" unicode="V" horiz-adv-x="260" 
d="M28 698q4 0 4 -3q1 -1 1 -4q2 -13 6.5 -38.5t6.5 -38.5q2 -6 2 -8q0 -5 5 -48q3 -26 9 -52q8 -42 11 -76l3 -22l9 -53q10 -42 13 -64q1 -6 3.5 -17.5t3.5 -17.5q3 -29 15 -92q0 -5 2 -15t2 -15q1 -8 2.5 -16.5t3.5 -18.5t3 -16q0 -2 6 -28q2 -2 3 -2q3 -1 3 2t2.5 21.5
t1.5 28.5q0 4 1 6q3 12 5.5 35t4.5 33q3 12 5 38q1 9 5 27q7 30 7 50v8q3 12 6 38t5 38q3 12 5 36l3 24t2 24q3 21 7 63q1 19 6 39q10 55 11 66q4 22 5 34q1 10 5 30l3 2q3 0 4 -3q0 -3 1 -10.5t0 -11.5q-2 -33 -4 -40l-15 -92q-2 -10 -2 -16q-1 -13 -8 -70q-1 -7 -2.5 -21
t-2.5 -21q-2 -20 -4 -30q-1 -7 -3.5 -28t-4.5 -32q-4 -30 -5 -44q0 -7 -5 -32q-4 -21 -5 -34q-1 -6 -3 -16.5t-2 -15.5q-3 -16 -7 -50q-5 -26 -6 -52q-1 -21 -5 -58l-4 -16q-2 -7 -11 -3q-7 5 -7 9q-4 14 -7 35l-3 16q-4 14 -13 70q-7 43 -13 71l-3 20q-7 50 -10 70
q-2 9 -5.5 25t-4.5 22q-1 3 -2.5 10.5t-2.5 11.5l-7 46q-1 3 -6 46q0 3 -0.5 7.5t-1 8.5t-1.5 8q-3 10 -5.5 28t-4.5 25q-3 16 -6.5 46.5t-5.5 43.5l-9 58h1l-3 14q-1 4 0.5 5.5t6.5 1.5z" />
    <glyph glyph-name="W" unicode="W" horiz-adv-x="264" 
d="M243 696q1 -2 1 -6q0 -20 -2 -30q-2 -15 -2 -44v-80q0 -2 -0.5 -6t-0.5 -6q-2 -24 -2 -36q0 -5 -0.5 -15.5t-0.5 -15.5q-1 -24 -1 -72q0 -8 1 -12q3 -35 -2 -74v-26q2 -12 0 -24q-1 -5 -1 -16q0 -29 -2 -44v-8q1 -15 0 -44t-1 -38q0 -13 -1 -20q-2 -16 0 -48q2 -6 1.5 -9
t-2.5 -9t-2 -9q0 -4 -6 -4t-7 4q-7 16 -8 20q-5 10 -6 21q-16 60 -20 76q-2 6 -2 10q-1 5 -15 82q-7 28 -10 37q-2 7 -4 23q-1 14 -8 29q-1 1 -3 1q-1 0 -1 -1q-4 -12 -7 -29q-1 -2 -4 -13.5t-5 -17.5q-6 -22 -7 -35q-1 -10 -5 -23q-8 -25 -13 -57q-7 -32 -10 -41
q-5 -12 -6 -27l-7 -43q-1 -7 -7 -11q-4 -3 -8 -1t-4 3q-5 14 -3 28q0 16 -4 50q-2 20 -2 30q0 40 -4 124q-2 29 -4 89q0 6 -1 17.5t-1 16.5q-2 28 -2 42q1 51 -3 100q-1 10 -1 30q0 9 -1 14q-2 8 -2 38q0 6 -0.5 19.5t-0.5 20.5q0 8 -1.5 24.5t-2.5 25.5q0 2 0.5 8t0.5 9
q0 4 5 4q3 0 4 -4q2 -10 2 -15q1 -21 5 -56q2 -26 1 -40v-15l5 -55q0 -2 1 -4q0 -13 0.5 -39t0.5 -39q1 -7 1 -21t1 -21q0 -20 2 -64q0 -3 0.5 -8.5t0.5 -8.5q2 -20 2 -28q0 -2 3 -62q1 -7 1 -20q0 -6 0.5 -23.5t1.5 -26.5q2 -9 0 -18q-1 -8 4 -50q0 -2 3 -2l2 1q1 3 5.5 18
t6.5 23q3 17 13 56q9 40 9 43q1 9 8 35l6 23q7 35 13 59q2 7 9 6q4 0 6 -4q1 -2 8.5 -25.5t9.5 -36.5q1 -9 7 -29q6 -22 8 -33q0 -2 3.5 -20.5t5.5 -28.5q3 -16 23 -99l3 -5q1 -1 2 0l1 1l3 37q0 37 2 48q0 7 -1 10q-3 23 1 44l1 10v56q0 16 2 52q0 6 0.5 16.5t0.5 19.5
t-1 17q-1 13 -1 38q0 3 0.5 9t0.5 9q0 19 2 28q1 0 0 9v9v26q4 63 4 140q0 28 3 42q1 3 1.5 8t0.5 7q2 4 5 4q5 0 5 -4z" />
    <glyph glyph-name="X" unicode="X" horiz-adv-x="262" 
d="M225 698q4 -2 4 -5v-4q0 -1 -2 -5q-3 -13 -11 -39q-8 -28 -13 -41q-6 -18 -16 -54q-3 -10 -10 -41q-3 -11 -8.5 -30t-7.5 -26q-1 -5 -18 -64l-9 -24q-2 -5 0 -11q0 -2 2 -5.5t2 -5.5q4 -12 5 -19q2 -10 11 -41q4 -10 9 -29.5t8 -28.5q3 -7 8.5 -22t7.5 -23q3 -9 7 -27
q2 -6 6.5 -23.5t7.5 -26.5l20 -53l12 -26q0 -1 1 -3t1 -3q0 -5 -7 -7q-1 1 -2 1t-2 1t-4 7l-15 36q0 1 -0.5 2.5t-1.5 2.5q-1 5 -3 10.5t-5 12t-4 10.5q-6 15 -9 30q-13 52 -22 70q-1 3 -4 13q-8 28 -20 65q-7 22 -12 49q-2 6 -4 9q0 1 -1 1t-1 -1l-3 -7l-18 -66
q0 -1 -1 -3.5t-1 -3.5q-8 -23 -29 -101q-1 -5 -5 -17.5t-6 -19.5q-4 -11 -14 -58q-4 -22 -8 -34q0 -1 -3 -14q-2 -5 -7 -6q-2 -1 -5 1t-3 5t2 7q9 24 14 59q3 14 8 34q2 9 11.5 40.5t13.5 49.5q7 27 11 37q9 24 21 72q5 17 13 49q3 10 0 21q-9 26 -25 78l-6 24
q-10 31 -12 37q-5 11 -23 74l-15 53l-6 20l-9 28q0 1 2 3q1 2 3.5 2t3.5 -2q0 -1 1 -1q17 -53 20 -63q5 -20 17 -60q4 -14 14 -42q7 -21 23 -74q6 -18 16 -52q0 -1 2 -4t2 -5q1 -1 2 -1t3 2q2 4 2 7q14 40 18 61q1 5 4 14.5t4 13.5l12 45q7 33 20 69q4 12 16 52q6 21 16 42
q2 4 4 2z" />
    <glyph glyph-name="Y" unicode="Y" horiz-adv-x="254" 
d="M27 699q4 0 5 -2q2 -7 7 -20t8.5 -23.5t5.5 -19.5q9 -33 21 -67l6 -21q2 -7 9 -29t10 -34q4 -8 9.5 -24.5t8.5 -23.5l6 -18q1 -3 2.5 -9.5t2.5 -9.5q2 -6 5 -7q4 4 4 7l9 30q8 28 23 64q8 21 10 35q4 15 5 25l3 10q12 35 25 87l9 28q2 7 7 10h3l3 -3v-3q0 -3 -2 -8t-2 -7
q-8 -27 -10 -38q-2 -10 -8 -30l-6 -18t-5 -16q-4 -15 -6 -32q-3 -19 -10 -34q-15 -34 -22 -62l-24 -76l-21 -67q-2 -6 -2 -8q-4 -21 -12 -43q-1 -1 -6 -17q-2 -8 -6.5 -25t-6.5 -26q-5 -23 -21 -67q-11 -30 -16 -50q-1 -3 -5.5 -20.5t-6.5 -26.5q-1 -9 -10 -10q-2 -1 -4 1.5
t-2 4.5t1 4q3 6 10 35q7 31 20 65q16 44 21 67q3 14 11 42q9 33 13 43l4 13q7 28 25 84q1 2 -2 8v2q0 4 -1 7t-2.5 7t-2.5 6q-1 5 -4 15t-4 15q-8 18 -11 27t-8.5 27t-8.5 27l-30 97q-8 28 -9 31q-3 12 -10.5 32.5t-8.5 25.5q0 1 -0.5 3t-0.5 3v3q3 3 5 4z" />
    <glyph glyph-name="Z" unicode="Z" horiz-adv-x="252" 
d="M38 698q19 1 53 -1q6 0 18.5 -0.5t18.5 -0.5q31 1 92 1q3 0 4 -1q5 0 5 -7q-1 -1 -1 -4q-2 -5 -16 -48l-6 -21q-12 -31 -33 -114q-9 -41 -13 -55q-3 -14 -16 -50q-12 -35 -15 -50q-12 -46 -17 -69l-3 -9q-5 -10 -10.5 -30t-6.5 -24q-7 -27 -11 -37q-1 -1 -1 -4
q-2 -13 -9.5 -36t-9.5 -34l-18 -72q-1 -3 -1 -9q0 -3 2 -3q4 0 13 -1.5t13 -2t13 0.5q6 1 17.5 1.5t15.5 0.5q11 1 33 -1q8 -1 18 -1.5t22 -1t18 -0.5q13 0 20 -2q5 -3 5 -8q-2 -4 -4 -5h-3q-8 0 -23.5 0.5t-23.5 0.5q-14 2 -19 2q-28 3 -61 1q-20 -1 -41 0h-19h-14
q-6 0 -4 6q0 2 1 3q6 7 10 23q1 4 3 11.5t2 11.5q9 37 13 49q1 5 4 14t5 16.5t3 14.5q12 42 16 55q4 11 5 20q5 21 12 38q6 16 9 33q1 7 5 21l6 25q6 27 15 50q17 51 20 64q2 10 6.5 29t7.5 28q5 21 7 28q12 44 20 65q4 11 10.5 34.5t10.5 34.5q2 6 -4 6h-2q-12 -1 -25 0
h-25q-27 -3 -53 0q-10 1 -29 1.5t-25 0.5t-18 2q-3 3 -3 5l4 4q2 1 7 1z" />
    <glyph glyph-name="bracketleft" unicode="[" horiz-adv-x="102" 
d="M26 692l1 1q6 -2 42 -2q6 0 9 -1q4 0 4 -5q2 -5 -4 -8h-5h-36q-5 0 -5 -6q0 -9 -1 -38.5t0 -46.5v-51q0 -11 -0.5 -32t-0.5 -32v-12q0 -3 0.5 -8t0.5 -8v-73q0 -10 -1 -15q-1 -13 0 -26q2 -13 1 -19q-1 -10 -1 -61v-47v-94v-12q0 -2 0.5 -6t0.5 -6q-1 -7 -0.5 -27
t0.5 -28v-6q1 -10 3 -12t10 -2q3 0 13.5 -1t16.5 0q7 0 5 -6q0 -7 -5 -7q-2 -1 -8 -1q-21 5 -40 -1q-1 0 -3 2t-2 3l-1 2v2v17t1 16v92v267q0 35 -1 52v3q1 7 1 46v68q0 41 1 61v59v6q0 3 4 3z" />
    <glyph glyph-name="backslash" unicode="\" horiz-adv-x="249" 
d="M31 694q0 -1 4 -5q0 -3 3 -10t3 -11q2 -7 6.5 -20.5t8 -24.5t6.5 -21l6 -17q3 -9 13 -43.5t15 -54.5q3 -5 5 -17q3 -14 16 -58q1 -4 2.5 -12t2.5 -12q1 -1 1 -2q4 -11 10 -32.5t10 -32.5q2 -7 4 -17q2 -12 10 -36q3 -13 9.5 -38t9.5 -38q0 -1 3 -11l33 -117q1 -2 2.5 -10
t3.5 -13l9 -34q2 -4 2 -5l-2 -5q-1 0 -3 1l-4 2l-4 6q-1 2 -2.5 7t-2.5 7q-13 48 -24 84q-3 12 -13 51t-15 60l-17 59q-2 8 -8.5 31t-9.5 35q-6 24 -17 56q-7 27 -16 70q-8 25 -24 79q-1 2 -3 7.5t-3 8.5q-4 20 -16 57t-15 46q-1 5 -9 23q-1 3 0 6q2 7 10 1z" />
    <glyph glyph-name="bracketright" unicode="]" horiz-adv-x="102" 
d="M77 693q3 0 5 -5v-4v-33q-1 -15 -1 -92q0 -17 0.5 -50t0.5 -49h-1q0 -28 0.5 -84t0.5 -85v-51v-4q-1 -7 -1 -45v-68v-61q-2 -30 0 -59q0 -4 -1 -6q0 -4 -3 -4h-2q-2 3 -21 2.5t-21 -0.5h-8q-3 1 -5 6q0 6 5 8h5h35q5 0 5 6q2 56 2 84v52q0 43 1 64v12q-1 5 -1 16v72
q0 11 1 16q2 15 -1 25q-1 10 0 20v30.5t1 30.5q0 7 -0.5 23t-0.5 24q0 78 1 94q0 2 -0.5 6t-0.5 6v12q1 7 0.5 27t-0.5 28q0 1 -0.5 2.5t-0.5 2.5q0 10 -2 12.5t-10 2.5q-4 0 -14.5 1t-16.5 0q-5 0 -5 6q0 7 5 7q3 1 9 1q23 -5 40 1z" />
    <glyph glyph-name="asciicircum" unicode="^" horiz-adv-x="285" 
d="M94 652q-4 -13 -8.5 -27.5t-10.5 -32.5l-9 -27l-12 -39l-18 -63l-3 -9l1 -1v-1h-7q-1 0 -3.5 1t-3.5 1q0 1 1 2q3 11 11 35q4 13 13 40t13 40q5 17 19 60t21 67q1 4 8.5 26.5t12.5 34.5q6 17 7 28q2 7 5 7q1 1 4 1q1 1 2 1q7 4 9 -6q9 -37 27 -83l3 -7q6 -19 19 -54.5
t19 -52.5q4 -10 11 -30t11 -30q9 -25 29 -75q-4 0 -6 -2h-1h-2q-1 0 -8 5q1 0 1 2q-2 10 -4 15l-9 27q-20 54 -43 119q-11 29 -43 120q-2 4 -5.5 14t-5.5 14q-2 2 -3 2h-1q-1 -1 -2 -1q-1 -5 -4 -14t-4 -13q-6 -18 -16.5 -50t-14.5 -44z" />
    <glyph glyph-name="underscore" unicode="_" horiz-adv-x="406" 
d="M113 -29h7q9 -1 26 -1h11q5 1 45 0.5t44 -0.5h7q5 -1 16 -1h33l2 -1h3h51h10h15q1 0 2 -1l1 -6q0 -2 -1 -2t-3 -1h-6h-37q-33 0 -49 1h-25q-3 0 -8.5 0.5t-13 0t-26 0t-41.5 0.5h-25q-20 0 -30 1h-34h-8q-7 0 -22.5 -0.5t-23.5 -0.5q-1 0 -4.5 -0.5t-5.5 -0.5t-2 1
q-1 1 -0.5 4.5t1.5 4.5h2q3 1 9 1q5 0 15 0.5t14 0.5h8h43z" />
    <glyph glyph-name="grave" unicode="`" horiz-adv-x="94" 
d="M31 742q5 -2 5 -3q29 -40 37 -54q0 -1 1 -3v-2q0 -1 -0.5 -2.5t-1.5 -2.5q-4 -2 -6 -1q-3 0 -5 2q-2 3 -17 22t-23 30q-1 2 -1 6q2 10 11 8z" />
    <glyph glyph-name="a" unicode="a" horiz-adv-x="294" 
d="M121 348q34 3 67 -6q6 -1 16 -7q21 -14 38 -32q14 -17 19 -41q2 -8 2 -11q3 -17 7 -58q0 -6 -1 -9v-23v-7q-2 -15 -1.5 -21t2 -21t1.5 -21q3 -12 1 -38q0 -21 1 -25q1 -5 1 -15q0 -5 -5 -8q-2 -2 -6 -1t-5 4q-3 10 -3 20q-2 32 -1 48v2h-2.5t-2.5 -1l-11 -17
q-15 -24 -32 -38q-16 -13 -40 -20q-9 -3 -20 -1q-25 1 -52 15q-35 18 -51 53q-21 44 -21 84q0 5 -1 15t-1 15v22q0 23 5 38q3 7 6.5 20t6.5 19q5 13 27 39q33 25 56 27zM123 335q-39 -6 -62 -38q-10 -15 -14 -28q-1 -4 -3.5 -12t-3.5 -12q-7 -25 -6 -44v-9q0 -2 3 -50
q1 -27 20 -69q9 -18 26 -32q14 -12 46 -23q0 -1 2 -1q37 -6 64 15q13 10 20 21q1 2 6 9.5t8 10.5q7 9 13 29l3 18q7 30 7 40l3 15q2 15 1 23q-2 8 -2 13q1 23 -8 58q-3 16 -15 28q-8 8 -26 22q-14 11 -28 12l-14 3q-15 5 -40 1z" />
    <glyph glyph-name="b" unicode="b" horiz-adv-x="256" 
d="M25 698q1 1 2.5 0t2.5 -2q2 -2 2 -5q1 -4 1 -12q-1 -7 2 -45q1 -5 1 -14q0 -8 -0.5 -23.5t-1.5 -23.5q0 -16 1 -23l3 -41q0 -5 0.5 -15.5t0.5 -16.5q1 -2 1 -6q-1 -14 1 -86q1 -7 1 -20v-19v-20q0 -5 6 -5q12 -2 18 -2q4 0 22 -5q24 -9 33 -11q18 -5 40 -23
q22 -19 40 -49q15 -26 29 -63q3 -10 5 -26q3 -25 -5 -53q-4 -16 -16 -35q-4 -5 -13.5 -13.5t-11.5 -10.5q-6 -3 -7 -3q-5 -2 -26 -12q-18 -8 -40 -10q-12 -1 -25 -2t-29 -2t-25 -2q-1 0 -3 0.5t-3 0.5q-3 0 -6 5q0 3 -1 4v14q0 26 -1 39v12q1 4 1 13v13q0 8 0.5 24t0.5 23
q0 14 1 21q0 17 1 26q-3 30 0 59q2 24 2 72v36q0 10 -1 15q-2 15 -2 69v20v3q0 10 -0.5 30t-0.5 31q0 5 -1 8q0 5 -1 17t0 19v17l-3 75q0 21 2 31q0 2 3 2zM52 308q-10 2 -10 -8v-16q0 -6 1 -18.5t1 -18.5q2 -19 -1 -32q-1 -9 -1 -27v-73v-36q1 -36 0 -36q-1 -11 -0.5 -14.5
t0 -8.5t2.5 -5t5 -1t9 -0.5t13 0.5q4 0 6 1q18 3 36 3q15 0 34 7l32 15q2 0 5 3q18 16 24 27q8 17 11 31q10 46 -13 88q-11 17 -22 40q-11 22 -33 41q-16 14 -31 19q-5 2 -17.5 6.5t-19.5 6.5q-20 6 -31 6z" />
    <glyph glyph-name="c" unicode="c" horiz-adv-x="289" 
d="M145 347q14 3 33 -1q56 -12 86 -57q2 -2 2 -8q0 -3 -2 -3q-2 -2 -4 0q-4 2 -5 4q-15 22 -54 43q-16 7 -35 9q-19 0 -26 -3q-1 0 -17 -3q-22 -3 -43 -24t-38 -57q-3 -9 -3 -10q-6 -30 -4 -45l6 -65q2 -14 15 -47q8 -18 36 -46q5 -5 13 -8q21 -10 43 -11q11 -1 33 -1
q8 -1 26 3q22 6 37 24q6 10 9 13l9 6q3 2 5 -2q3 -3 2 -6q-18 -24 -28 -33q-20 -17 -52 -19q-7 -1 -23 -1q-5 1 -18.5 1.5t-21.5 2.5q-23 6 -45 20l-3 3l-2 1q-3 5 -13 17t-15 20q-10 21 -19 50q0 1 -0.5 4t-1.5 4q-1 15 -5 50q0 7 -2 17v26l3 21q0 1 0.5 4t1.5 4
q5 11 15 29q6 12 11 17t6 8q3 6 7.5 11t13.5 11.5t10 7.5q7 6 24 10q5 2 10.5 3.5t12 3t10.5 2.5z" />
    <glyph glyph-name="d" unicode="d" horiz-adv-x="248" 
d="M219 698q3 0 5 -3q3 -51 2 -58v-12q1 -8 1 -23.5t1 -23.5q1 -10 0 -30t-1 -25q-1 -7 -1 -21.5v-21.5t0.5 -20.5t0.5 -19.5q0 -37 -1 -42v-6v-14l-3 -56v-20q0 -2 -1.5 -13.5t0.5 -13.5q1 -5 0.5 -13.5t0.5 -12.5v-10q-1 -9 -1 -28q2 -11 0 -22q-2 -40 0 -60q3 -18 -1 -44
q-1 -9 1 -30v-17q1 -18 3 -26q1 -4 -2.5 -8t-7.5 -5h-22q-31 0 -57 10q-2 0 -6 2q-7 1 -56 22q-9 5 -18 12q0 1 -3 3q-20 13 -31 51q-2 6 -2 8q-2 29 2 44q1 2 1 7q0 16 12 40q1 3 3.5 8.5t3.5 8.5q3 7 11 19q18 29 46 49q6 5 27 17q19 10 41 15q5 1 10.5 2.5t12 3.5t10.5 3
q1 0 7 3q2 1 4 5l1 1v2q0 7 0.5 21t0.5 21q1 23 1 68v10q-3 24 0 47v33q2 23 0 35v9.5v12.5v10t0.5 8.5t-0.5 8.5q-1 4 -0.5 14.5t0.5 14.5v20q-2 12 -2 18l3 10q0 4 4 2zM202 311q-22 -7 -29 -8q-15 -2 -39 -14q-17 -8 -31 -19q-37 -30 -51 -65q0 -2 -2 -6q-6 -9 -9 -19
t-5.5 -24.5t-3.5 -20.5v-4q-1 -24 13 -54q3 -6 4 -7q19 -19 40 -29q28 -12 43 -16q3 -1 8 -2.5t7 -2.5q7 -3 20 -4.5t17 -2.5h18l1 1h1q5 0 5 5v8q0 11 -0.5 32.5t-0.5 31.5q0 5 0.5 16.5t0.5 17.5t-0.5 18t-0.5 18q0 12 0.5 36t0.5 36q0 45 1 68v1q-1 2 -1 3q0 8 -7 6z" />
    <glyph glyph-name="e" unicode="e" horiz-adv-x="284" 
d="M143 341q25 7 51 -9q19 -13 27 -25q10 -14 23 -36q8 -13 11 -33q1 -16 6 -33q3 -6 3 -13q0 -17 -2.5 -20t-20.5 -3h-73h-24h-30q-46 0 -69 1h-2q-9 0 -9 -10q0 -17 1 -26l6 -44q1 -5 8 -20q19 -29 49 -41q44 -16 82 -15h37q26 0 34 3q8 2 10 -6t-7 -10q-4 0 -11 -0.5
t-10 -0.5h-33q-5 0 -8 -1q-4 -1 -54 2q-14 2 -19 4q-37 15 -45 20q-12 5 -17 13q-12 14 -18 22q-12 18 -15 42q-5 49 -3 83q2 15 5 19q2 3 4 9t2 7q1 5 15 43q1 3 5 9q12 22 43 51q3 3 11 7q24 8 37 11zM150 328q-24 -4 -33 -9q-7 -2 -11 -6q-38 -31 -55 -78q-2 -5 -6.5 -19
t-7.5 -22v-4q-2 -4 3 -4q2 0 6.5 -1t8 -1.5t6.5 -0.5q27 2 47 -1h13q33 2 43 0h65q5 0 15 2q7 2 6 9q0 3 -2 11q0 2 -2.5 12.5t-3.5 16.5q-3 20 -14 39q-2 3 -6 10t-6 10q-10 15 -31 29q-20 11 -35 7z" />
    <glyph glyph-name="f" unicode="f" horiz-adv-x="306" 
d="M180 698q6 -2 21 -5.5t23 -5.5q28 -7 44 -25q15 -17 18 -36v-6q0 -2 -1 -2h-3l-4 4l-6 13q-11 25 -33 34q-18 8 -28 9q-7 1 -19 4t-18 4q-9 3 -17 0q-10 -2 -32 -15q-7 -5 -12 -16q-12 -36 -15 -55l-6 -37q-4 -23 -1 -39q1 -4 1 -13t1 -14l3 -44v-27v-77l1 -4q3 -3 4 -3
q4 -1 12 -1h43h4q2 0 3.5 -3.5t-0.5 -4.5q-2 -4 -6 -4q-9 -1 -27 -1q-19 0 -28 -1q-5 0 -5 -5q-1 -2 -1 -8q0 -9 1 -28t1 -29h1v-17q-1 -15 0 -30q1 -4 1 -12l-3 -35q-3 -29 1 -69q0 -4 2 -12q3 -16 3 -33q0 -7 0.5 -20t0.5 -19q0 -4 -3 -7q-3 -2 -7 -1t-4 5q-2 22 -1 33
q0 24 -3 36q0 1 -0.5 5t-0.5 6q-1 7 -1 23t-1 23v6q1 7 1.5 21.5t0.5 21.5v19v22.5v19.5t-0.5 22t-0.5 23q0 1 -3 35q0 5 -6 5h-8q-6 -1 -41 -1q-1 0 -2 1l-1.5 1.5t-1.5 0.5t-1 2t1 3t5 3q2 1 7 1q8 -1 21.5 0.5t18.5 1.5q7 0 9 8q3 7 1 17q-1 12 0 24v23q-1 9 0 18
q1 2 1 8q-1 8 -1.5 17.5t-1 21.5t-0.5 18q-1 4 -1 12.5t-1 12.5q-2 25 0 38q1 9 4.5 30t5.5 32v2q14 36 20 47q4 9 15 14q2 1 9 5.5t12 5.5q18 6 35 3z" />
    <glyph glyph-name="g" unicode="g" horiz-adv-x="272" 
d="M255 -29l-1 -4q-1 -6 0 -16t1 -13q3 -40 -30 -87q-4 -5 -14 -11q-15 -10 -42 -16q-5 -2 -37 -5.5t-37 -2.5q-11 2 -21.5 6t-15.5 7.5t-17.5 13.5t-18.5 14q-25 18 -14 24q6 4 17 -3q2 -1 20.5 -15.5t33.5 -22.5t27 -7q5 1 18 2t20.5 2t18 3.5t18.5 6.5l11 4q18 7 24 21
q22 31 21 69v31v16q-3 57 -1 87v2q-1 -1 -2.5 -1h-2.5l-11 -17q-15 -24 -32 -38q-16 -13 -40 -20q-9 -3 -20 -1q-25 1 -52 15q-35 18 -51 53q-21 44 -21 84q0 5 -1 15t-1 15v22q0 23 5 38q3 6 7 19t6 20q5 13 27 39q33 25 56 27q34 3 67 -6q6 -1 16 -7q21 -14 38 -32
q14 -17 19 -41q2 -8 2 -11q3 -17 7 -58v-9v-23v-7q-1 -21 1 -63q0 -4 1 -17.5t0 -20.5l1 -66v-5v-5.5v-4.5zM234 159l3 15q2 16 1 23q-2 8 -2 13q1 23 -8 58q-3 16 -15 28q-8 8 -26 22q-14 11 -28 12l-14 3q-15 5 -40 1q-39 -6 -62 -38q-10 -15 -14 -28q-1 -4 -3.5 -12
t-3.5 -12q-7 -25 -6 -44v-9q0 -2 3 -50q1 -27 20 -69q9 -18 26 -32q14 -12 46 -23q0 -1 2 -1q37 -6 64 15q13 10 20 21q1 2 6 9t8 11q7 9 13 29l3 18q7 30 7 40z" />
    <glyph glyph-name="h" unicode="h" horiz-adv-x="251" 
d="M26 699q3 0 4 -1q5 -5 5 -13q0 -1 1.5 -24.5t1.5 -34.5q1 -12 -1 -32q-1 -7 0 -18.5t1 -15.5v-24q0 -3 -0.5 -9t-0.5 -9q1 -22 0 -45q1 -8 1 -25t1 -26q0 -6 0.5 -20t0.5 -20q0 -11 -0.5 -33t-0.5 -33q0 -32 -1 -48q0 -1 0.5 -3t0.5 -3l1 -1h2q3 5 27 29q6 6 24 16h1l2 1
q30 6 46 5q11 0 28.5 -8t25.5 -16q11 -11 17 -24q11 -27 14 -62q5 -34 3 -84v-72q0 -30 1 -36v-4q0 -6 -7 -6q-4 0 -6 4q-2 6 -2 18q0 29 1 44v42v14q3 23 -1 55q0 2 -0.5 5.5t-0.5 4.5q1 18 -9 56q-3 12 -8 20q-8 16 -22 23q-18 10 -29 12q-2 0 -6 0.5t-6 0.5q-5 -1 -15 -2
t-15 -2q-1 0 -3 -1q-27 -16 -28 -17q-18 -18 -23 -27q-2 -6 -7 -10q-4 -3 -6 -12q0 -2 -0.5 -7t-0.5 -7q-1 -3 -1 -10v-34v-10q2 -9 0 -37q0 -3 -0.5 -9t-0.5 -9q0 -10 0.5 -30t0.5 -30q0 -5 -0.5 -15t-0.5 -15q0 -2 -2 -4q0 -1 -2.5 -2.5t-3.5 -0.5q-3 0 -5 3q-2 4 -2 8
q2 24 2 72l3 41q2 8 0 16q-2 12 -2 32.5v25.5q0 7 1 10q2 15 2 44q0 61 1 92v46q0 4 -0.5 12t-0.5 12q-1 13 -1 38v48q0 2 -0.5 6.5t-0.5 7.5v22q2 22 0 34q-2 14 1 26q1 13 0 28q-2 12 -2 35v28q0 2 1 2q0 1 0.5 2t1.5 0z" />
    <glyph glyph-name="i" unicode="i" horiz-adv-x="73" 
d="M35 699q11 2 11 -8q-1 -1 -3 -5q-1 -3 -7 -3t-6 7t5 9zM44 634h1q1 0 1 -1q1 0 2 -2v-7q0 -19 -4 -57q-2 -27 1 -66q1 -23 -1 -69v-15v-157q0 -69 2 -104q2 -48 2 -72v-29q2 -33 4 -37q1 -5 -1 -11q-2 -8 -9 -6q-5 2 -5 6q-1 2 -1 5q0 5 -2.5 29t-1.5 37q1 15 -1 66
q-2 86 -1 130v40q-1 11 0 32t1 27v91q0 8 -0.5 24t-0.5 24q-2 50 3 82q2 9 2 29v9q0 1 1 1l1 1h2h5z" />
    <glyph glyph-name="j" unicode="j" horiz-adv-x="55" 
d="M31 694q4 -1 5 -5t-1 -7l-6 -3q-1 1 -2.5 2t-2.5 2q-4 2 -2 7q4 5 9 4zM26 640q3 0 3 -1q3 -4 4 -8q0 -2 0.5 -6t0.5 -7q0 -45 -2 -68q-2 -11 -2 -32q0 -65 1 -97q0 -10 1 -15q4 -35 2 -85q0 -13 1 -20q1 -29 -1 -87q-1 -18 -1 -242q0 -26 -1 -38q-1 -5 -2 -20.5
t-3 -24.5q-4 -32 -30 -60l-9 -9q-2 -2 -6 -4q-24 -10 -39 -10q-18 -1 -40 2q-15 3 -25 13q-1 1 -3 3.5t-3.5 4.5t-2.5 4q-4 6 -37 55q-5 8 -7 20q-1 2 1 4t4 2q5 2 7 -2q1 0 1 -0.5t1 -0.5q2 -13 16 -33q8 -13 26 -39q13 -16 32 -19q32 -5 55 4q12 5 18 11q25 25 28 61
q6 54 5 82v224l-1 8q0 7 1 7q2 13 2 60v60q0 1 -3 64q-1 11 -1 34q0 15 -0.5 43.5t-0.5 42.5q0 4 0.5 11t1 12.5t1.5 10.5q2 19 2 58v19q0 1 0.5 3t0.5 3q2 2 4 2z" />
    <glyph glyph-name="k" unicode="k" horiz-adv-x="281" 
d="M250 348q4 2 8 -1t3 -7q0 -3 -1 -4q-47 -34 -55 -39q-29 -19 -71 -59q-31 -31 -62 -52q-9 -5 -13 -12q-2 -2 0 -4q3 -5 7 -6q2 -2 38 -32q18 -17 45 -37q8 -5 16 -12t18 -15.5t15 -12.5q34 -30 53 -42q3 0 3 -3v-6q-2 -4 -5 -4q-5 0 -9 3q-29 18 -46 35q-22 20 -68 56
q-30 23 -48 41q-5 4 -14 11t-14 11q-1 0 -2.5 0.5t-2.5 0.5q-8 5 -8 -4q-1 -3 -1 -9v-43q0 -1 3 -85q0 -2 -0.5 -4t-0.5 -3q0 -5 -7 -5q-5 0 -7 3l-2 4q0 11 -1 16q-1 0 -1 58l1 59v32h-1q0 19 1 57.5t1 57.5v38q0 8 1 11q0 3 4 5t7 -4q0 -2 1 -2q4 -22 3 -34q-4 -23 -2 -56
v-52q0 -2 0.5 -7t0.5 -8q2 -5 6 -3q1 0 2 1q12 13 31 26q16 10 36 30q7 7 58 53q1 1 3 2l2 2q13 10 37.5 27.5t33.5 24.5z" />
    <glyph glyph-name="l" unicode="l" horiz-adv-x="60" 
d="M30 697q2 0 3 -1t1 -4q3 -76 3 -77v-43q-2 -36 -4 -52q-2 -21 0 -62q2 -21 0 -63v-14q1 -21 0.5 -72t-0.5 -72q0 -64 1 -96q3 -66 3 -67l-1 -14q0 -13 1 -13q0 -23 3 -34q1 -3 -1 -10t-8 -5q-4 2 -5 6v2q-1 1 -1 2q0 9 -2 29t-1 31q1 12 0 33.5t-1 28.5q-2 78 -1 119v37
q-1 10 0 29.5t1 25.5v83q0 8 -0.5 23t-0.5 22q-2 37 3 75q2 18 1 27v101q0 7 2 21q0 2 4 4z" />
    <glyph glyph-name="m" unicode="m" horiz-adv-x="297" 
d="M27 351q5 0 6 -3l3 -17q0 -4 1 -12t1 -12t1 -5l4 -1l9 6l24 24q7 7 16 10q2 1 5.5 2t5.5 2q33 10 51 -21q5 -13 7 -16q1 -4 5 -2l15 17q13 17 37 22q14 2 20 2q25 0 37 -23q1 -3 1 -9q2 -12 0 -24q-1 -17 -1 -51q0 -43 -2 -64q-1 -10 -1.5 -27.5t-0.5 -23.5
q0 -9 0.5 -28.5t0.5 -29.5q0 -31 3 -46q0 -6 -6 -9q-3 -2 -6 -0.5t-4 4.5q0 2 -0.5 6t-0.5 5v53q0 24 -1 36t-1 35q3 28 3 106q0 14 2 40q0 1 0.5 4t0.5 5q-1 28 -28 25q-8 0 -24 -6q-9 -2 -16 -10l-27 -33q-5 -7 -5 -14q0 -26 -3 -51q-2 -16 -2 -48q0 -7 0.5 -22t0.5 -23
q0 -53 2 -68v-29q0 -4 -2 -8q-1 -2 -6 -4q-4 0 -6 6q0 1 -0.5 3t-0.5 3q-2 46 -2 69q-1 0 -1 13l1 13v38q0 55 2 71q4 24 2 57q0 4 -1.5 11.5t-1.5 8.5q-3 10 -12 18t-21 6l-13 -3q-8 -4 -11 -7q-6 -5 -12.5 -11t-14.5 -13.5t-12 -11.5l-6 -6q-5 -7 -5 -12v-14v-126v-60
q0 -36 1 -55q0 -6 -5 -9q-2 -2 -5 -1.5t-4 3.5q-3 13 -3 26q1 23 1 69q1 7 0 19t-1 16q-3 32 -1 71q2 21 2 64v66q0 5 2 11z" />
    <glyph glyph-name="n" unicode="n" horiz-adv-x="288" 
d="M164 350q35 0 68 -28q23 -21 30 -57q4 -17 4 -38q0 -25 2 -77v-100v-39q0 -2 -3 -8q-1 -3 -6 -3q-3 0 -5 3q-2 8 -2 13q-1 15 -1 44v36q1 39 -1 117v24q-2 25 -10 45q-12 25 -34 40q-20 12 -49 12l-22 -3q-9 -1 -23 -8q-3 -1 -52 -36q-6 -5 -12 -13q-3 -5 -8 -10
q-5 -7 -5 -21v-5q2 -32 -1 -58q-2 -18 0 -37q3 -27 3 -53q-2 -41 5 -73q1 -5 -4 -10l-1 -1h-1q-7 -5 -9 3l-3 19q0 17 -2 25q-1 2 -1 8q1 17 -1 78q0 35 1 53q2 30 0 62q-1 14 0 39t1 34q0 2 2 6l3 3q5 0 6 -2q0 -1 1.5 -4t1.5 -4q-2 -18 -2 -27q-1 -10 5 -18q-1 1 -2 1
q1 0 1 -0.5t1 -0.5q5 11 17 19q16 14 26 22q5 4 16 10t16 9q1 0 2 1q32 8 48 8z" />
    <glyph glyph-name="o" unicode="o" horiz-adv-x="275" 
d="M101 343q60 8 98 -30q9 -9 13 -14q35 -39 41 -94q3 -37 2 -67q0 -32 -11 -57l-9 -22q-4 -10 -14 -22q-4 -4 -33 -28q-1 -1 -3 -1t-3 -1q-30 -12 -55 -2q-20 6 -29 10q-6 1 -12 6q-36 27 -52 54q-12 19 -13 41q0 24 -1 37h1v34q2 32 7 47q0 9 3 18t8 19.5t7 15.5
q14 24 23 34q4 6 20 17q3 3 12 5zM111 330q-12 1 -24 -9q-13 -14 -19 -24q-8 -12 -20 -38q-11 -29 -13 -61q-2 -20 0 -78q0 -28 22 -53q19 -19 24 -23q16 -14 26 -18q18 -6 27 -8q33 -7 54 10l9 6q15 11 23 28q12 26 14 32q7 16 6 34q-2 19 1 37q0 11 -2 37q-3 51 -39 90
l-9 9q-22 23 -52 28q-4 1 -28 1z" />
    <glyph glyph-name="p" unicode="p" horiz-adv-x="225" 
d="M35 337q4 0 5 -1q3 -4 10 -4h8q9 -1 10 0q4 0 33 -8q2 -1 6 -3.5t5 -2.5q3 -2 18 -15q5 -3 15 -15q2 -3 8 -9.5t9 -9.5q16 -17 29 -52l6 -16q1 -5 3 -16t4 -16q2 -14 -3 -33q-2 -11 -10 -24q-1 -4 -4.5 -9.5t-4.5 -7.5q-12 -13 -28 -23q-20 -15 -38 -24q-4 -1 -14 -4
t-15 -4q-8 -3 -24 -8t-23 -8q-6 -2 -6 -9v-140q0 -20 -3 -28v-7q-1 0 -1 -2h-2h-4q-2 2 -3 2q0 1 -1 1q0 8 0.5 24t0.5 25q1 29 1 144v51q2 16 2 50v13q-1 9 -1 20t0.5 24.5t0.5 20.5v57q-3 34 1 59q0 2 2.5 4t4.5 3.5t3 0.5zM42 322q-8 1 -8 -4v-29v-46v-83v-14v-16.5
v-13.5v-70v-7q0 -1 2 -2.5t3 0.5q7 0 11 1l15 5t19 5q12 6 26 9q10 5 12 7q18 10 27 18q30 18 39 49q6 20 3 47q-8 26 -8 28q-8 27 -30 56q-16 20 -41 43q-22 14 -43 14q-13 0 -27 3z" />
    <glyph glyph-name="q" unicode="q" horiz-adv-x="243" 
d="M126 348q14 -2 22 -8q33 -17 52 -40q11 -8 16 -28q10 -37 6 -66q-1 -12 0 -25q0 -34 -3 -50q0 -6 -1 -9q-1 -27 -5 -81v-8q-1 -9 -1.5 -19.5t-1 -23t-0.5 -19.5q0 -9 1 -14q0 -29 -2 -43q-2 -6 -1 -9q0 -9 -1 -26t-1 -26q-1 0 -2 -1h-2l-2 -1h-2l-2 2q0 1 -0.5 2.5
t-0.5 2.5q0 8 1.5 51t-0.5 52q1 8 1.5 26.5t1.5 26.5q1 4 1 11v11l-1 1q-2 2 -2 0q-3 -2 -5.5 -4.5t-5 -5.5t-3.5 -4q-5 -5 -13 -8q-4 0 -6 2v-1q-2 -4 -5 -4q-16 -1 -33 0q-12 3 -28 3q-18 2 -29 11q-4 2 -10 8.5t-8 7.5q-7 8 -12 18q-3 5 -5 13q-3 15 -7 26l-3 20
q-5 47 -4 82v11.5v14v12.5q0 7 3 16q10 29 18 48q2 4 12 16q15 15 30 23q20 11 43 6zM124 338q-14 3 -29 -3q-13 -4 -26 -17q-16 -14 -21 -29l-5 -10q-13 -29 -12 -60q0 -3 0.5 -10t0.5 -11q-1 -9 2 -76q0 -3 3 -12l9 -34q3 -15 16 -25q16 -13 29 -19q10 -5 16 -6h26
q10 0 15 1q19 5 35 15q7 6 10 12q10 20 10 37v28q0 4 2.5 28t1.5 38q0 4 1 5q3 11 3 43q2 15 -5 30q-2 6 -12 26q-11 17 -23 24q-17 10 -21 14q-12 8 -26 11z" />
    <glyph glyph-name="r" unicode="r" horiz-adv-x="283" 
d="M157 346q37 -7 61 -23q18 -12 28 -27l16 -21q4 -4 -1 -10q-3 -3 -8 -1l-7 6q-8 12 -13 17q-22 28 -49 36q-3 1 -10 3.5t-11 3.5q-26 6 -53 -7q-37 -18 -57 -44l-8 -8t-8 -12q-1 -4 -1 -12v-12q-1 -22 0 -61t1 -51q2 -22 2 -33v-68q0 -15 -4 -22q-3 -3 -5 -3q-3 0 -5 4
t-2 6v18q2 28 0 85v35v22h-1q-1 16 -1 47v72v42q0 6 1 8q2 3 5 5q1 1 4 -0.5t3 -3.5q1 -2 1 -6q1 -6 1 -18.5v-19.5q0 -2 2 -6h2q1 0 1 1q1 1 40 34q21 19 58 24q9 2 18 0z" />
    <glyph glyph-name="s" unicode="s" horiz-adv-x="256" 
d="M125 347q15 2 35 -3q32 -10 54 -29q11 -11 18 -32q0 -1 -1 -2q-2 -2 -2 -3q-3 -2 -6 1l-7 13q-6 14 -18 21q-27 19 -53 20q-2 0 -5.5 0.5t-4.5 0.5q-7 2 -11 1q-7 -2 -21 -4t-21 -4q-17 -3 -27 -16q-12 -15 -18 -33q-7 -21 3 -46q1 -3 6 -8q11 -8 13 -9q5 -2 13 -6t15 -7
t14 -5q22 -6 34 -6q23 1 55 -12q15 -7 33 -25q8 -9 11 -24q3 -22 2 -39q0 -4 -0.5 -9t-1.5 -11.5t-1 -9.5q0 -4 -2 -8q-3 -19 -20 -30l-21 -13q-4 -2 -8 -2q-8 -2 -23 -4t-23 -4q-4 0 -29 2q-38 7 -65 23q-10 6 -20 18q-3 5 1 9q7 6 11 0q3 -3 4 -5q7 -10 21 -16
q30 -15 62 -18q7 0 23 2q5 1 14.5 2.5t13.5 2.5q8 0 18 5l12 8q13 7 16 23q3 13 5 40l-1 8q0 7 1 7q0 13 -6 26q-1 4 -5 8q-12 14 -24 19q-28 12 -43 12q-4 1 -11 1q-29 1 -66 19q-11 6 -22 11q-16 7 -21 24q-2 6 -4 22q-4 20 8 42q11 18 24 33q5 5 10 6q20 7 26 8
q24 4 36 5z" />
    <glyph glyph-name="t" unicode="t" horiz-adv-x="297" 
d="M73 696q1 1 3 0.5t2 -1.5q2 -4 2 -5q2 -35 1 -52v-58q0 -5 0.5 -20t1.5 -23q0 -3 -1 -10t1 -10q1 -24 1 -72q0 -15 -0.5 -46t-0.5 -47q0 -1 1 -2v-2q0 -5 5 -5q8 -1 26 -1q7 0 15 3q3 1 10 1q1 0 3 -2q2 -1 2 -5q-2 -6 -4 -7q-3 0 -15.5 -2.5t-20.5 -1.5h-15q-6 -2 -6 -7
v-12q0 -11 -1 -16q-2 -14 -2 -42q0 -35 -1 -53v-19v-21.5v-17.5l7 -53q5 -31 37 -60q15 -12 38 -14q6 0 16 0.5t16 0.5q14 -1 29 9q4 2 10 7t8 6q13 10 20 22q4 6 6 8q3 5 7 1q3 -1 3 -6q-1 -1 -1 -3t-1 -3q-11 -20 -29 -32q-4 -3 -11 -8t-9 -6q-22 -13 -41 -10q-10 1 -28 1
q-39 3 -63 38q-5 9 -11 16q-6 12 -7 18l-6 25q-3 10 -3 30q2 15 -1 28v6.5v8v7.5q3 40 2 73q0 32 2 48q3 10 -1 23q0 6 -5 6q-4 0 -10 0.5t-10 0.5q-12 0 -21 4q-1 0 -3 5q0 1 2 3q4 2 6 2h8h28q5 0 5 5q1 7 1 20q1 0 0 39v39v6q3 28 -1 67v38v16q-1 38 0 75v22q0 3 0.5 11
t0.5 11q0 1 1.5 2.5t1.5 2.5z" />
    <glyph glyph-name="u" unicode="u" horiz-adv-x="286" 
d="M31 348q4 2 6 -3q0 -1 0.5 -3t0.5 -3q0 -7 -0.5 -21t-0.5 -21q0 -3 -0.5 -8.5t-0.5 -8.5h1l-3 -33q0 -21 1 -31q4 -56 5 -83v-9q-3 -13 4 -28l12 -31q8 -18 26 -29q3 -2 8.5 -5.5t8.5 -4.5q19 -10 49 -12q26 -2 48 12q10 6 15 10q4 2 7 5q25 33 27 57q0 1 1 14.5t2 20.5
q1 4 1 13q-1 9 -1.5 26t-0.5 22v18q1 18 4 105v7q0 1 2.5 3t3.5 2q2 1 6 -3q3 -4 3 -10q0 -8 -1 -24t-1 -24q0 -13 -1 -37.5t-1.5 -44t-0.5 -37.5q1 -18 -1 -53q-4 -47 3 -74q1 -7 0 -13q-2 -7 -8 -7t-8 6q0 1 -0.5 4t-0.5 5q-1 4 -1.5 11t-0.5 11l-3 3q-3 0 -4 -1
q-1 0 -1 -0.5t-1 -0.5q-33 -42 -91 -40q-30 0 -54 14q-27 16 -30 19q-6 7 -11 14q-11 18 -17 35q-8 24 -7 43q1 17 -1 49q-7 55 -2 94q0 1 3 68q0 2 0.5 5t0.5 4q2 3 5 3z" />
    <glyph glyph-name="v" unicode="v" horiz-adv-x="275" 
d="M26 347q0 -1 2 -1t2 -1q2 -3 6 -11q2 -6 7 -19.5t7 -20.5q34 -95 36 -98q2 -4 4 -10q5 -19 14 -44q5 -15 13 -45q8 -29 23 -60q2 -6 5 -3q2 2 2 3q9 23 15 46q4 27 15 51q8 26 11 39q5 19 17 55q9 29 29 87q4 16 9 21q2 4 4 5h4q4 -2 4 -4v-5q-6 -14 -14.5 -41.5
t-12.5 -37.5q-7 -18 -19 -56q-2 -6 -5.5 -19t-4.5 -20q-2 -8 -8 -24q-12 -33 -18 -66q-2 -11 -5 -16q-10 -25 -13 -41q-2 -7 -6 -11q-2 -2 -5.5 -2t-4.5 3l-2 4q-26 64 -45 127q-10 37 -31 88q-5 13 -13.5 37.5t-10.5 30.5q-1 4 -4.5 14.5l-5.5 16.5l-6 22q-1 1 1 3.5t4 2.5
z" />
    <glyph glyph-name="w" unicode="w" horiz-adv-x="279" 
d="M25 350q3 0 4 -1l3 -6q1 -6 3.5 -16.5t3.5 -14.5q3 -15 7 -40q2 -14 4.5 -42t3.5 -41q4 -29 6 -89q0 -7 1.5 -19.5t2.5 -18.5q0 -3 2 -8.5t2 -8.5l1 -1q2 0 2 1q1 1 4 7q6 15 27 60q16 32 27 61l3 6q1 2 5.5 2t5.5 -3q1 -2 2.5 -7t2.5 -7q10 -22 16 -33q5 -10 18 -37.5
t21 -42.5q2 -4 3 -5t4 -1l1 1q1 2 1 5t1 10t1 11q2 9 4 49q2 22 4 33q1 7 3.5 28.5t4.5 33.5q3 14 13 106l3 21q0 2 4 4q1 1 3.5 -0.5t3.5 -2.5q2 -2 2 -4v-4q-2 -5 -4 -32q-3 -49 -10 -89q-7 -45 -12 -90q-3 -31 -7 -86q-1 -6 -1 -19q0 -1 -3 -10q-5 -8 -11 -2q-1 1 -2 2.5
t-2 2.5q-11 16 -24 45q-12 30 -22 48l-14 27q-1 1 -3.5 5.5t-3.5 7.5q-1 1 -3 1t-3 -1l-9 -17q-6 -12 -16.5 -36t-12.5 -28q-4 -8 -10 -24.5t-10 -24.5q-4 -10 -7 -13q-5 -3 -6 -2q-3 0 -7 4q-1 1 -1 6q-1 19 -7 57q-1 5 -1 15q0 23 -7 102q0 2 -0.5 6.5t-0.5 6.5
q-4 54 -7 81q-1 11 -7 33q-3 8 -5 26q1 2 1.5 5t0.5 5t3 2z" />
    <glyph glyph-name="x" unicode="x" horiz-adv-x="260" 
d="M25 348l3 2l2 -1q12 -11 17 -20q7 -13 13 -26l15 -29q4 -8 13.5 -22t12.5 -20q16 -26 25 -38q0 -2 1.5 -2t2.5 2h1l1 1l35 59l14 21l21 34l27 37l1 1q3 3 7 -1q3 -1 1 -5q-3 -5 -7 -11q-7 -11 -25.5 -38.5t-27.5 -43.5q-7 -11 -20 -33t-19 -32q-3 -6 0 -11l8 -15
q6 -9 17.5 -27.5t17.5 -27.5q5 -8 15 -22q2 -4 12.5 -20.5t15.5 -25.5l14 -23q1 -1 1 -5q2 -3 -4 -6q-4 0 -5 1q-3 3 -7 9q-14 25 -31 53q-5 9 -17 25q0 1 -5 8q-3 7 -30 49q-2 2 -11 16q-1 1 -2.5 0.5t-2.5 -1.5q-1 -2 -3.5 -5.5t-3.5 -5.5q-2 -3 -9 -15.5t-12 -18.5
l-14 -21q-14 -22 -24 -43q-4 -9 -26 -43l-6 -4q-3 0 -5 2t-2 5q0 1 2 5q19 25 33 56q7 13 23 37q6 9 12.5 19.5t14.5 23.5t12 20q0 1 0.5 2.5t1.5 2.5q-1 2 -1 4q-19 33 -25 41q-28 41 -42 73l-22 42l-6 8q0 1 2 3z" />
    <glyph glyph-name="y" unicode="y" horiz-adv-x="252" 
d="M24 349q9 -9 12 -14q38 -52 56 -79q23 -34 28 -46q1 -2 2.5 -4t1.5 -3q5 -5 8 0q5 5 6 7q5 5 6 10q4 7 35 54q24 34 45 72q1 2 4 2q4 0 4 -4q0 -5 -1 -7q-5 -13 -11 -21q-28 -46 -44 -67q-7 -10 -14 -22q-6 -13 -20 -37q-14 -21 -24 -42q-22 -42 -33 -62q-3 -8 -9 -15
q-25 -38 -37 -65q-2 -6 -11 -6q-6 0 -4 7q4 6 14 25.5t17 28.5q19 26 28 48q2 5 15 28q6 14 10 20q5 11 10 19l3 6q0 3 -1 4q-5 8 -17.5 30t-20.5 33l-9 12q-16 22 -24 34l-6 9t-5 7l-16 27q-2 3 -2 9q0 2 2 2q0 2 2 0z" />
    <glyph glyph-name="z" unicode="z" horiz-adv-x="245" 
d="M205 349h13q10 0 6 -11q-4 -6 -9.5 -19t-9.5 -19q-4 -7 -11 -20t-10 -18l-6 -10q-6 -9 -7 -11q-5 -11 -19 -34t-20 -36q-1 -2 -7 -11q-20 -32 -31 -48l-4 -8q-16 -34 -34 -60q-2 -3 -5 -9l-4 -8q-2 -5 -5 -10l2 -3h5h45h51q36 2 71 -3q4 0 6 -1q3 0 3 -4q0 -6 -4 -6h-20
q-30 2 -45 2q-10 -1 -28 -1q-35 0 -53 1q-14 0 -21 -1q-5 0 -15 -0.5t-15 -0.5q-1 -1 -3 1.5t-1 4.5q0 1 2 4t2 5q28 44 40 68q10 20 34 58q21 32 36 61l23 41l3 6t4 6q9 14 24 41t20 35q2 2 0.5 4.5t-4.5 2.5h-3q-3 0 -10 -1t-11 -1q-30 -2 -45 -2q-13 1 -38 1
q-3 0 -11 0.5t-11 0.5q-11 1 -23 0q-4 -1 -13 -1.5t-13 -0.5q-3 0 -5 5q0 4 2 6q6 3 11 3q14 1 41 1q9 0 26 -0.5t25 -0.5q6 -2 39.5 -0.5t39.5 1.5z" />
    <glyph glyph-name="braceleft" unicode="{" horiz-adv-x="103" 
d="M78 695q2 0 5 -5v-5q-3 -3 -4 -3q-1 -2 -3 0q-8 4 -24 -4q-1 -1 -4 -6q-2 -4 -4 -12v-20q0 -32 1 -48q0 -12 -1 -17v-43q1 -28 1 -85q0 -29 -9 -50q-2 -7 1 -13q7 -15 4 -28v-9v-47v-5q-1 -6 -1.5 -13.5t-1 -16t-0.5 -13.5q-2 -13 -2 -61q0 -20 -1 -29v-10q0 -4 1 -16
t0 -18q-1 -11 -1 -33q0 -27 4 -50q1 -14 14 -19q3 -2 13 -4q3 0 3 -6q0 -5 -4 -5q-14 -3 -25 5.5t-13 24.5q-1 3 -1.5 8.5t-0.5 8.5q-1 4 -1 13t-1 14v7q2 22 0 66q1 8 1 24t1 24v29q2 44 4 67q2 34 1 51v13q0 17 -6 25q-2 4 -3 5q-1 4 0 8l4 8q5 8 7 19q2 28 2 43
q0 30 -1 46v48q0 72 -1 87q-1 12 4 28q4 12 14 18q13 7 28 4z" />
    <glyph glyph-name="bar" unicode="|" horiz-adv-x="59" 
d="M32 721q1 1 2 0.5t1 -1.5q4 -24 4 -35q-1 -5 -1 -13.5v-12.5q0 -69 -1 -103q0 -42 -2 -128v-53q0 -43 -1 -64q-2 -85 -2 -375q0 -5 0.5 -15t0.5 -14q0 -1 -3.5 -3t-4.5 -1q-3 0 -3 3q-2 2 -2 5q1 26 1 78q2 66 2 98q1 156 1 229v57h2q-1 9 -1 28v33q2 33 2 100v107
q1 23 1 69q0 7 2 10h1z" />
    <glyph glyph-name="braceright" unicode="}" horiz-adv-x="104" 
d="M38 696q14 3 25 -5.5t14 -24.5q0 -3 0.5 -8.5t0.5 -8.5q0 -5 1 -13.5t1 -13.5v-8v-65q0 -9 -0.5 -25t-0.5 -24v-29q0 -11 -1.5 -33t-2.5 -34q-2 -39 -1 -50q0 -9 -1 -13q0 -15 7 -26q1 -1 1 -2t0.5 -1.5t0.5 -1.5q4 -4 0 -7q0 -1 -2 -3.5t-2 -4.5q-4 -9 -6 -20
q-3 -21 -3 -42q1 -15 1 -46q0 -8 0.5 -24t0.5 -24q-1 -43 0 -87q1 -12 -4 -29q-3 -12 -14 -17q-13 -7 -28 -4q-1 0 -5 4q0 4 1 5q0 1 3 4h3q9 -5 24 4q3 2 5 5q3 12 3 13q1 6 1 19q-1 16 -1 48v18q1 21 0 42q0 15 -0.5 43t-0.5 42q0 30 9 51q3 6 0 12q-6 14 -5 28q2 5 0 10
v14.5v17v14.5q0 4 1 6q1 7 1.5 21t1.5 21q1 10 1 62q0 4 0.5 14t0.5 15v9v35v33q1 16 -3 50q-3 14 -15 19l-12 3q-4 2 -4 6q2 6 4 6z" />
    <glyph glyph-name="asciitilde" unicode="~" horiz-adv-x="373" 
d="M116 365q29 -2 46 -14q19 -13 67 -30q22 -9 46 0q18 8 31 16l32 21q6 2 9 1q4 0 6 -5q1 -2 -1 -8l-1 -2q-58 -34 -64 -38q-2 0 -2 -1q-31 -13 -64 -3q-49 18 -64 29q-3 2 -27 12q-21 8 -45 -3q-21 -8 -35 -22q-10 -10 -20 -17q-2 -3 -8 1q-4 4 -1 8q2 4 3 5q21 23 48 39
q20 11 44 11z" />
    <glyph glyph-name="uni007F" 
 />
    <glyph glyph-name="exclamdown" unicode="&#xa1;" horiz-adv-x="68" 
d="M31 702q5 1 8 -1q7 -7 9 -12q0 -5 -2 -5q-2 -2 -4 -2q-10 2 -17 1q-2 2 -5 8q1 1 1 3q2 2 10 8zM33 614q5 0 7 -5q0 -4 1 -7q0 -31 -1 -46v-23v-14t-2 -17v-5q2 -15 2 -43.5v-35.5q-1 -5 0 -13t1 -10q1 -12 -1 -38q-2 -12 0 -24q3 -22 3 -65v-28v-29v-48q0 -13 1 -21
q0 -45 -1 -67q0 -11 0.5 -32t0.5 -31q0 -5 1 -6q-4 -4 -6 -2q-4 4 -4 6l-3 12q-2 34 -2 52v75q-1 40 0 74l-3 39v15q2 29 0 42q-4 16 1 34q0 4 -1 18.5t0 21.5q-2 37 -1 56q0 22 -1 34v75q2 13 0 42q0 9 1 10q2 4 7 4z" />
    <glyph glyph-name="cent" unicode="&#xa2;" horiz-adv-x="264" 
d="M142 524q2 0 4 -4v-6q-2 -38 -2 -58q0 -4 5 -6q8 0 22 -2q24 -3 49 -24q9 -8 23 -24q1 -1 1 -2v-4q0 -1 -2 -1.5t-3 0.5q-5 2 -5 3q-11 8 -15 14q-20 22 -55 27q-2 0 -6.5 0.5t-6.5 1.5q-6 0 -6 -5l-3 -23q-1 -14 -1 -40v-32q0 -17 -2 -25q-3 -13 -1 -40v-8v-8v-7.5v-7.5
q-1 -12 -1 -34q0 -58 1 -87v-7q0 -5 5 -5q25 0 56 14q3 3 7 5q4 3 13 10.5t13 10.5q4 2 7 2q5 2 5 -3q0 -6 -3 -9l-12 -9q-3 -3 -9 -7t-7 -5t-7 -6t-10 -6q-29 -9 -40 -9q-3 0 -7 -0.5t-6 -0.5q-5 0 -5 -5q-1 -4 -1 -12t-0.5 -23t-0.5 -23q0 -6 -5 -8q-1 -1 -2.5 -0.5
t-1.5 1.5q-1 2 -1 6v35v23q0 5 -5 5q-1 0 -4.5 1t-5.5 0q-11 0 -20 6q-15 8 -32 21q-6 5 -11 13q-12 25 -23 62q0 1 -0.5 3.5t-0.5 4.5v7q-4 20 -4 58v29q-1 12 3 35q4 30 21 66q7 17 22 29q1 1 3 2.5t4.5 3t3.5 2.5q4 1 12 3.5t12 3.5q5 2 19 4h4q6 0 7 3q1 1 1 4v5
q2 17 2 52q0 3 2 7q0 6 6 3zM124 437q-23 -2 -34 -6q-20 -8 -29 -23q-10 -15 -16 -32q-7 -21 -12 -48q-2 -9 -2 -25q3 -18 1 -41q0 -10 5 -60l6 -18q2 -5 5.5 -13.5t4.5 -11.5q2 -6 4 -10.5t3 -7t4.5 -5.5t4 -4t7 -5t8.5 -6q12 -9 33 -12q4 0 6 1q2 2 2 3q1 2 1 7
q0 10 1.5 31t1.5 31q-1 29 1 89h-1q2 52 2 78q1 12 1 36.5v36.5q0 2 -0.5 5t-0.5 4q0 8 -7 6z" />
    <glyph glyph-name="sterling" unicode="&#xa3;" horiz-adv-x="288" 
d="M165 685q21 0 48 -11q6 -3 16 -8.5t14 -7.5q10 -7 17 -15q3 -4 5 -13q0 -4 -3 -6q-2 -2 -5 0l-3 3q-4 12 -17 20q-20 13 -36 19q-14 5 -55 7q-3 0 -19 -4t-19 -6q-4 -2 -6 -4q-30 -23 -38 -55q-6 -22 -3 -46q2 -24 4 -35l3 -23q1 -5 2.5 -14t2.5 -14l3 -13q2 -5 4 -11
t2.5 -8.5t2.5 -5.5t2.5 -3.5t4 -1t5 -0.5t8.5 0.5t12 0.5l2 1h19q1 0 3 -0.5t3 -0.5q3 0 3 -5l-6 -7q-2 -2 -5 -2h-28h-11q-6 -2 -6 -7q1 -3 1 -8l7 -34q2 -12 8 -44l12 -55q9 -34 9 -37q9 -51 5 -81q-3 -20 -9 -36q-14 -36 -22 -54q-4 -10 -11 -20q-2 -3 -4 -9q-2 -2 0 -2
q2 -2 3 -1q5 0 7 1q9 5 23 5q7 1 17 -2q24 -8 39 -20q22 -16 52 -4q15 7 25 18q7 5 8 5q4 4 7 -2v-5q-2 -7 -12 -13q-18 -12 -28 -16q-23 -10 -44 -3q-12 6 -17 9q-13 9 -27 15q-14 7 -30 4l-10 -3l-14 -6q-22 -13 -28 -20q-5 -5 -10 1q-4 2 -2 5q6 8 10 12q21 28 34 56
q19 43 26 69q9 33 5 58q-2 6 -2 11q-1 14 -7 44q-9 33 -15 66q-14 65 -17 95v2l-1 2q-1 0 -2.5 1.5t-2.5 1.5q-2 1 -7 1q-7 0 -19 -0.5t-18 -0.5q-5 0 -8 1q-2 0 -2 3t1 3t2.5 1.5t2.5 1.5q14 2 19 2l16 3q8 1 9.5 3t-1.5 10q-3 11 -10 43q-6 27 -10 81q-2 20 3 33q2 3 4 11
q7 28 33 51q9 7 22 13q5 2 10 5q19 7 32 5h12z" />
    <glyph glyph-name="currency" unicode="&#xa4;" horiz-adv-x="406" 
d="M325 516q7 -2 4 -8l-6 -13q-2 -5 -10 -19.5t-12 -23.5q-1 -1 -1 -2q-5 -11 2 -18q22 -17 55 -67q11 -16 16 -40q1 -3 2.5 -9.5t3 -11.5t3.5 -9q6 -22 2 -43q-10 -46 -13 -54q-5 -16 -14 -30q-7 -12 -34 -48q-8 -12 -24 -23q-5 -3 -1 -9q2 -2 2 -4q14 -17 25 -39
q2 -5 11 -12q3 -4 0.5 -9t-8.5 -6q-3 0 -5 2q-1 1 -6 8q-5 10 -15 28q-2 4 -6.5 10t-6.5 10q-7 10 -19 4q-21 -13 -55 -18q-21 -5 -40 1q-35 8 -48 17q-1 0 -3 1t-3 1q-6 2 -9 -3q-5 -5 -8 -12l-21 -43q-2 -6 -8 -4q-2 0 -5 5q-2 2 0 6l14 28q6 10 8 15q7 15 7 18t-13 16
q-14 16 -19 25q-10 13 -26 41q-5 9 -11 29q-10 34 -10 74q-1 12 4 29q15 53 20 66q9 22 23 37q6 6 16 18q5 5 3 16l-3 4q-3 6 -11 22.5t-14 24.5q-2 4 0 9q4 4 7 1q4 -4 4 -5q4 -7 21 -38l5 -8q5 -9 12 -4l13 7q15 9 31 12q30 5 53 5q15 -1 39 -11q4 -1 12.5 -5.5t12.5 -5.5
l6 -3q7 -2 11 4q2 3 9 15.5t10 20.5q2 5 6.5 14.5t5.5 11.5q4 6 9 2zM198 458l-39 -3q-29 -4 -52 -24l-36 -39l-7 -12q-12 -22 -27 -81q-1 -3 -1 -24v-14v-3.5t1 -3.5q3 -50 23 -83q3 -4 19 -31q22 -30 52 -47q20 -11 43 -14q15 -5 31 -3q35 6 55 16q6 4 16.5 10t15.5 9
q10 7 16 14q10 11 35 48q7 11 11 22q2 9 6.5 24.5t6.5 21.5q7 32 -2 56q-3 5 -5 18q-3 24 -17 44q-4 7 -12 19q-9 17 -28 36q-13 12 -26 18q-18 8 -37 17q-21 9 -42 9z" />
    <glyph glyph-name="yen" unicode="&#xa5;" horiz-adv-x="240" 
d="M217 698q3 -2 3 -6q-7 -26 -13 -43q-3 -9 -9.5 -28t-9.5 -29q-1 -3 -2.5 -8.5t-2.5 -7.5q-1 -4 -3.5 -13.5t-3.5 -15.5q-4 -16 -13.5 -45.5t-11.5 -35.5l-15 -52l-11 -35l-2 -8q0 -6 4 -6q2 0 6.5 -0.5t7.5 -0.5q7 0 7 -9q0 -3 -2 -3q-4 -2 -7 -2t-8 0.5t-8 0.5t-3 -3
q-4 -11 -1 -20q0 -2 2 -2t6.5 -1t6.5 -1q6 0 9 -1q6 -3 3 -8q-2 -4 -4 -4h-14l-7 -1l-3 -3l-1 -10q0 -13 -0.5 -40.5t-0.5 -41.5q0 -3 -0.5 -9.5t-0.5 -10.5q-3 -33 -3 -65q1 0 0 -22v-23q-3 -28 -1 -63q0 -11 -1 -17q0 -5 -6 -5q-5 0 -5 4q-1 12 -1 35q0 30 1 45h1v45v30
q0 13 2 37q0 8 2 24q0 8 0.5 23t0.5 22v35q0 1 -0.5 3t-0.5 3q0 5 -5 5q-11 0 -16 1q-5 0 -7 1q-3 1 -3 5q0 6 3 6q3 1 8 1h12q9 0 9 10v8q0 8 -7 8q-6 1 -17 1q-3 0 -5 1q-3 3 -3 4q0 4 2 5q6 3 7 3h16q4 0 4 6l-1 2q-2 5 -21 80q-10 37 -22 89q-1 4 -7.5 34t-10.5 45
q-1 5 -15 52l-5 20q0 5 5 5q1 0 5 -2q2 -2 2 -5q3 -10 8.5 -27.5t7.5 -24.5q3 -12 8.5 -35t8.5 -34l18 -77q3 -14 23 -90l3 -12q2 -5 4 -3l3 3q1 2 3.5 10t3.5 13q9 38 21 71q15 42 23 80q7 27 18 55q2 6 8 23t8 27q2 11 10 26q2 6 6 2z" />
    <glyph glyph-name="brokenbar" unicode="&#xa6;" horiz-adv-x="57" 
d="M31 722q5 0 5 -3q0 -20 1 -30v-115v-24q0 -4 -1 -6q-3 -3 -4 -3q-1 -1 -3.5 0.5t-2.5 2.5q-1 2 -1 6v64q0 6 0.5 19t0.5 20q2 40 2 60q0 4 1 6q0 1 2 3zM27 107q1 1 3.5 -0.5t2.5 -2.5l1 -1v-1q-2 -52 -2 -71v-77q0 -11 -1 -16q0 -1 -3 -4q-1 -1 -6 1q-2 2 -2 3v10
q0 23 0.5 71t0.5 72q0 1 0.5 4t0.5 5q2 5 5 7z" />
    <glyph glyph-name="section" unicode="&#xa7;" horiz-adv-x="270" 
d="M116 624h11q33 5 68 -13q29 -15 50 -38q3 -2 5 -8q2 -4 -3 -4q-6 0 -10 4q-16 14 -24 20q-27 22 -66 29q-6 -1 -20.5 -1t-22.5 -2q-8 -3 -19 -10q-39 -28 -45 -73q-5 -17 7 -39q10 -17 22 -24q7 -3 23 -15q18 -10 29 -12q13 -4 29 -16q8 -6 12 -10q13 -11 25 -18
q20 -13 37 -30q11 -11 14 -25l3 -23q1 -9 -5 -27q-12 -31 -33 -60q-10 -13 -27 -38t-23 -34q-2 -3 0 -5q2 -3 7 -8q3 -3 14.5 -14t17.5 -17q16 -16 25 -35l9 -20q6 -13 10 -43v-8q-5 -25 -17 -41l-8 -9q-20 -15 -38 -20q-24 -7 -32 -8h-12q-5 0 -15.5 1t-15.5 1
q-22 1 -42 15q-3 2 -34 27q0 1 -1 2t-1 2.5t1 2.5q4 2 6 2q3 0 7 -2q8 -8 13 -12q19 -16 28.5 -20t34.5 -6q30 -2 58 6q14 3 36 19q4 3 6 7q5 9 12 31v8q-2 20 -5 29q-12 42 -43 71l-6 5q-16 19 -62 44q-37 17 -56 42q-27 33 -23 74q1 16 11 32q22 38 41 61q5 6 14.5 16.5
t10.5 11.5q9 9 13 14q1 1 2 4l1 3q1 3 -1 4l-7 3q-30 11 -60 36q-20 18 -26 47v10q4 24 11 42l2 4l2 4q1 1 3 3.5t3 4.5q11 20 43 39q14 7 26 7zM141 413q-5 5 -10 0q-9 -10 -25 -30q-28 -32 -39 -50q-1 -3 -5 -8.5t-6 -9.5q-17 -27 -15 -46q-1 -25 13 -47q7 -14 26 -29
q4 -3 50 -30q8 -3 12 4q1 1 17 22t23 33q2 3 7 9.5t7 9.5q22 27 28 59q4 18 0 29q-3 9 -8 20q-3 10 -11 16l-20 15q-35 23 -44 33z" />
    <glyph glyph-name="dieresis" unicode="&#xa8;" horiz-adv-x="184" 
d="M144 729q10 0 18 -6q3 -5 2 -9q-3 -8 -12 -11q-10 -3 -17 -1q-8 2 -10 8q-1 2 -1 5q0 16 20 14zM40 728q10 0 18 -6q3 -5 2 -9q-3 -8 -12 -11q-10 -3 -17 -1q-8 2 -10 8q-1 2 -1 5q0 16 20 14z" />
    <glyph glyph-name="copyright" unicode="&#xa9;" horiz-adv-x="517" 
d="M296 500q8 -2 13 -2q4 -1 13 -2.5t13 -1.5q5 -1 24 -6q2 -1 7.5 -2.5t8.5 -2.5q37 -11 63 -39q1 -1 3.5 -4.5t4.5 -4.5q20 -20 31 -48q7 -15 11 -40q1 -12 5 -36q5 -29 3 -49v-10t-1 -10q-1 -16 -5 -53q0 -5 -1 -7q-15 -52 -20 -64q-2 -5 -5 -10l-26 -39l-12 -18
q-2 -3 -15 -16q-11 -7 -33 -19q-1 -1 -26 -9h-11q-3 -1 -9.5 -1.5t-9.5 -0.5q-20 -4 -31 -4h-10q-13 -1 -39 -1q-4 0 -6 1q-7 2 -20.5 4.5t-17.5 3.5q-16 3 -46 15l-46 21q-12 5 -32 21q-3 2 -9 10q-4 6 -7 9q-11 15 -18 39q-2 6 -5.5 18t-4.5 18l-3 13q-7 34 -7 73v18
q0 12 3 24q6 30 6 31q0 5 2 11q3 5 10 29q4 10 15 24l18 24q9 13 21 24q10 8 15 13q12 10 19 14q2 1 17 11q6 4 7 8q0 3 2 1h5l9 5q11 6 35 10l29 3q18 1 37 0q3 -2 8 0q5 4 18 4zM302 489q-4 1 -11 0t-11 -1h-11q-44 0 -66 -4q-1 0 -9.5 -2t-12.5 -4q-21 -8 -27 -16
q-2 -2 -3 -2q-5 -1 -13 -7q-12 -8 -47 -38l-6 -6q-2 -2 -8 -11t-10 -14q-17 -22 -27 -58q0 -2 -3.5 -17t-5.5 -23v-5q-2 -30 -2 -45v-10l3 -22l6 -33q6 -16 13 -45q4 -12 7 -19q5 -14 15 -23l6 -6q15 -16 31 -23q6 -3 25 -11.5t30 -13.5l9 -3q2 -1 7 -2t8 -2q8 -4 18 -4
q9 0 16 -3q12 -5 25 -6q36 0 67 4l23 3q24 2 40 11l10 6q25 13 38 34q20 32 29 48q12 22 15 35q12 37 15 91v13q2 29 -1 50q-3 14 -5 40q-1 16 -10 35q-5 9 -5 11q-20 38 -52 63q-10 9 -30 18q-2 1 -7 1q-8 1 -22 7q-7 2 -29 7q-4 0 -11 0.5t-11 1.5zM262 404q40 -2 66 -8
q3 -1 8.5 -2.5t7.5 -1.5q6 -2 9 -2q1 2 3 0l30 -18q2 -2 0 -4q0 -2 -4 -2q-2 0 -6 2q-11 7 -33 13q-22 7 -47 9q-4 1 -10 1q-5 -1 -17 1q-9 2 -18 0l-24 -3q-1 0 -3.5 -1t-4.5 -1.5t-4 -0.5q-2 -1 -10 -4t-13 -3q-12 -7 -15 -10q-19 -13 -26 -26l-6 -6q-7 -8 -11 -17
q-14 -27 -18 -57q-2 -24 1 -57q2 -12 4 -19q10 -24 16 -36q5 -10 19 -23q3 -2 9 -8q5 -5 25 -16q12 -6 42 -15q23 -6 44 -5q16 2 23 4q7 3 16 3q23 0 46 15q1 0 5.5 4t7.5 6q2 2 4 2q1 1 3 -1q1 0 1 -3q-2 -5 -3 -5q-25 -23 -60 -28q-4 0 -33 -5q-11 -3 -35 -1q-30 4 -66 21
q-15 7 -39 27q-8 8 -14 17q-13 23 -18 39q0 2 -1.5 6t-2.5 6q-2 6 -2 9q-2 20 -2 29q-2 20 1 30q1 1 1 4v4v7q11 47 31 71q16 20 29 29q13 11 35 19q19 9 59 11z" />
    <glyph glyph-name="ordfeminine" unicode="&#xaa;" horiz-adv-x="356" 
d="M261 389l-12 42q-46 -48 -114 -48q-47 0 -75 24.5t-28 74.5t38.5 76t119.5 29l56 2v22q0 30 -19 44.5t-52 14.5q-49 0 -101 -26q-13 30 -22 49q60 29 125 29t98 -27t33 -86v-220h-47zM96 482q0 -48 54 -48q96 0 96 87v23l-48 -2q-54 -2 -78 -16t-24 -44z" />
    <glyph glyph-name="guillemotleft" unicode="&#xab;" horiz-adv-x="343" 
d="M145 341q9 2 15 -6q6 -11 -2 -15q-7 -6 -21 -11q-52 -20 -73 -35q-3 -3 -1 -7q0 -1 3 -1q64 -29 74 -32q13 -4 28 -14q1 -1 1.5 -3t0.5 -3q-2 -5 -3 -5q-8 -3 -9 -2q-42 13 -48 16q-14 5 -41 16.5t-41 16.5q-6 2 -7.5 8t3.5 11q6 5 13 10q5 4 69 37q7 4 21 10.5t18 8.5z
M298 341q9 2 15 -6q6 -11 -2 -15q-7 -6 -21 -11q-52 -20 -73 -35q-3 -3 -1 -7q0 -1 3 -1q64 -29 74 -32q13 -4 28 -14q1 -1 1.5 -3t0.5 -3q-2 -5 -3 -5q-8 -3 -9 -2q-42 13 -48 16q-14 5 -41 16.5t-41 16.5q-6 2 -7.5 8t3.5 11t13 10q5 4 69 37q7 4 21 10.5t18 8.5z" />
    <glyph glyph-name="logicalnot" unicode="&#xac;" horiz-adv-x="470" 
d="M34 287q12 -4 68 -4q39 -2 117 -2q18 0 50.5 -1t59 -1.5t50.5 -0.5q9 0 25 1t25 1q14 0 16 -14v-3q7 -44 5 -114q-4 -7 -8 -9q-6 -2 -13 5q-5 11 -3 18q5 44 -2 79q-1 11 -12 14q-4 0 -14 0.5t-16 0.5q-81 3 -331 3q-17 0 -27 11q-7 2 -3 9q1 2 4 4t5 3h4z" />
    <glyph glyph-name="uni00AD" unicode="&#xad;" horiz-adv-x="321" 
d="M40 229v78h242v-78h-242z" />
    <glyph glyph-name="registered" unicode="&#xae;" horiz-adv-x="517" 
d="M296 500q8 -2 13 -2q4 -1 13 -2.5t13 -1.5q5 -1 24 -6q2 -1 7.5 -2.5t8.5 -2.5q37 -11 63 -39q1 -1 3.5 -4.5t4.5 -4.5q20 -20 31 -48q7 -15 11 -40q1 -12 5 -36q5 -29 3 -49v-10t-1 -10q-1 -16 -5 -53q0 -5 -1 -7q-15 -52 -20 -64q-2 -5 -5 -10l-26 -39l-12 -18
q-2 -3 -15 -16q-11 -7 -33 -19q-1 -1 -26 -9h-11q-3 -1 -9.5 -1.5t-9.5 -0.5q-20 -4 -31 -4h-10q-13 -1 -39 -1q-4 0 -6 1q-7 2 -20.5 4.5t-17.5 3.5q-16 3 -46 15l-46 21q-12 5 -32 21q-3 2 -9 10q-4 6 -7 9q-11 15 -18 39q-2 6 -5.5 18t-4.5 18l-3 13q-7 34 -7 73v18
q0 12 3 24q6 30 6 31q0 5 2 11q3 5 10 29q4 10 15 24l18 24q9 13 21 24q10 8 15 13q12 10 19 14q2 1 17 11q6 4 7 8q0 3 2 1h5l9 5q11 6 35 10l29 3q18 1 37 0q3 -2 8 0q5 4 18 4zM302 489q-4 1 -11 0t-11 -1h-11q-44 0 -66 -4q-1 0 -9.5 -2t-12.5 -4q-21 -8 -27 -16
q-2 -2 -3 -2q-5 -1 -13 -7q-12 -8 -47 -38l-6 -6q-2 -2 -8 -11t-10 -14q-17 -22 -27 -58q0 -2 -3.5 -17t-5.5 -23v-5q-2 -30 -2 -45v-10l3 -22l6 -33q6 -16 13 -45q4 -12 7 -19q5 -14 15 -23l6 -6q15 -16 31 -23q6 -3 25 -11.5t30 -13.5l9 -3q2 -1 7 -2t8 -2q8 -4 18 -4
q9 0 16 -3q12 -5 25 -6q36 0 67 4l23 3q24 2 40 11l10 6q25 13 38 34q20 32 29 48q12 22 15 35q12 37 15 91v13q2 29 -1 50q-3 14 -5 40q-1 16 -10 35q-5 9 -5 11q-20 38 -52 63q-10 9 -30 18q-2 1 -7 1q-8 1 -22 7q-7 2 -29 7q-4 0 -11 0.5t-11 1.5zM200 456q3 0 11 -1
t11 -1q11 -3 23 -3q38 -1 70 -24l7 -6q11 -11 25 -33q9 -18 9 -32v-8q0 -26 -4 -33q-16 -32 -32 -45q-8 -6 -13 -8q-36 -14 -55 -20q-14 -4 -19 -3q-4 0 -10 -2q-1 0 -1.5 -2t0.5 -3q5 -6 11 -11q17 -16 32 -37q8 -10 13 -15q27 -32 47 -63q7 -10 18 -21q6 -6 9 -10
q1 -1 -1 -5t-4 -4h-2q-4 2 -5 3q-24 26 -30 36q-17 27 -39 52q-4 5 -11 13.5t-10 12.5q-20 25 -40 41l-1 1l-1 -1q-2 -1 -2 -2v-6v-7v-6q0 -16 0.5 -48t0.5 -48v-42q0 -5 -6 -7q-6 -3 -6 3q-1 1 -1 2q0 8 -0.5 24t-0.5 25q2 49 0 84q0 13 0.5 48.5t0.5 55.5q0 7 1 10
q3 24 2 43q1 6 -2 67q0 5 -0.5 15t-0.5 14q0 7 6 7zM217 442q-4 1 -8 0q-2 0 -2 -2q-2 -8 0 -16q2 -11 2.5 -30t1.5 -27q1 -20 -2 -45q0 -2 -3 -43v-6v-19v-1l1 -1q0 -4 4 -4q22 0 38 5q8 3 16.5 6.5t18.5 8t16 6.5q27 12 42 51q1 2 1 6q0 17 -1 26q-2 20 -12 32q-2 2 -6 7
t-7 8q-29 29 -63 33q-13 1 -37 5z" />
    <glyph glyph-name="macron" unicode="&#xaf;" horiz-adv-x="222" 
d="M180 728q2 0 6 -0.5t5 -0.5q11 -2 11 -14q-2 -9 -9 -11q-10 -2 -15 -2h-68v-2l-79 3q-5 2 -10 5q-3 2 -1 7q0 5 3 5q10 4 14 4q58 2 87 2q31 -2 56 4z" />
    <glyph glyph-name="degree" unicode="&#xb0;" horiz-adv-x="310" 
d="M156 748q33 -4 44 -11q36 -22 61 -41q9 -8 18 -24q15 -37 8.5 -70.5t-26.5 -55.5q-28 -29 -70 -40q-35 -8 -63 1q-41 14 -51 20q-20 13 -38 31q-12 12 -17 35q-1 4 -1.5 13t-0.5 13q4 45 27 68q12 14 26 26q24 19 42 23q5 1 15 5q23 8 26 7zM155 726h-8t-7 -1
q-26 -3 -46 -16q-23 -18 -41 -41q-4 -4 -6 -10q-12 -28 -7 -69l3 -6q13 -20 21 -26q36 -27 78 -34q14 -2 21 -2q44 5 76 30q34 30 33 71q2 48 -32 70q-16 10 -50 30q-19 10 -35 4z" />
    <glyph glyph-name="plusminus" unicode="&#xb1;" horiz-adv-x="480" 
d="M41 243q-2 0 -8 6q-3 3 -2 7t4 5q3 0 9 0.5t9 0.5q42 -2 75 1q23 2 68 2q3 1 11 1q8 2 8 10q2 22 2 32l-2 21l1 13v9q0 19 -2 57q0 8 11 6q10 -2 10 -8l1 -9q0 -9 -1 -9q0 -7 -0.5 -21t-0.5 -22l1 -32q0 -6 0.5 -18t0.5 -18q0 -8 8 -10q24 -2 35 -2q39 0 115 2q1 0 25 3
q10 1 17 -10q3 -4 1 -9t-6 -5q-37 -3 -75 0q-56 3 -110 0q-8 0 -10 -9q0 -5 -1 -27.5t2 -25.5q0 -14 0.5 -20.5t1 -8t0.5 -3t0.5 -8t1.5 -20.5q0 -11 -8 -16q-2 -2 -6.5 -1t-5.5 3q-5 14 -4 25q2 26 0.5 37t-0.5 37q1 4 0 11.5t-1 9.5q-1 9 -3.5 12t-11.5 4q-43 0 -64 1h-64
q-5 0 -16 -2t-16 -2zM456 27q6 0 4 -10q0 -6 -4 -7t-12 -1q-109 0 -176 1l-161 1q-11 0 -33 -1t-34 -1q-9 0 -14 1q-2 1 -6 7q-1 2 1.5 5.5t4.5 3.5q6 1 18 2.5t21.5 2.5t17.5 1q14 0 42.5 -0.5t42.5 -0.5h113l57 -3q19 0 55 0.5t54 0.5q3 0 9 -2z" />
    <glyph glyph-name="uni00B2" unicode="&#xb2;" horiz-adv-x="350" 
d="M306 286h-282v54l115 112q62 60 79.5 87.5t17.5 61.5q0 32 -18.5 48t-48.5 16t-54.5 -11.5t-50.5 -31.5l-35 46q65 55 141 55q64 0 100.5 -32t36.5 -86q0 -22 -6 -41.5t-18.5 -39.5t-33 -42.5t-138.5 -133.5h195v-62z" />
    <glyph glyph-name="uni00B3" unicode="&#xb3;" horiz-adv-x="350" 
d="M308 613q0 -74 -74 -102q87 -21 87 -102q0 -62 -45 -96.5t-128 -34.5q-74 0 -131 28v63q69 -34 132 -34q100 0 100 76q0 69 -110 69h-57v55h57q50 0 73.5 19t23.5 51q0 29 -19 45t-51 16q-51 0 -111 -38l-36 46q36 27 71 38t75 11q66 0 104.5 -29.5t38.5 -80.5z" />
    <glyph glyph-name="acute" unicode="&#xb4;" horiz-adv-x="96" 
d="M68 738q4 0 6 -1q2 0 2 -4t-1 -6q-12 -18 -38 -54l-3 -3l-3 -1q-4 -1 -7.5 2t-3.5 6q0 4 1 6q3 4 18 23.5t24 28.5q4 2 5 3z" />
    <glyph glyph-name="mu" unicode="&#xb5;" horiz-adv-x="623" 
d="M173 190q0 -127 120 -127q83 0 120 45.5t37 148.5v279h88v-536h-71l-14 72h-5q-53 -82 -161 -82q-71 0 -115 45h-4q5 -36 5 -119v-156h-88v776h88v-346z" />
    <glyph glyph-name="paragraph" unicode="&#xb6;" horiz-adv-x="259" 
d="M108 703h26q44 -2 66 -1h8h9h8q1 0 3 -0.5t3 -0.5q2 0 3.5 -2.5t0.5 -3.5q0 -3 2 -14t2 -17q0 -7 -1 -19t-1 -18v-79q-1 -8 -1 -24.5t-1 -24.5q-2 -41 -2 -124q-1 -10 -1 -32t-1 -32q-2 -26 -2 -77q-1 -19 -1 -56t-1 -55q0 -4 -1 -15.5t0 -17.5q0 -55 1 -66v-12
q0 -3 -3.5 -5.5t-5.5 -0.5q-4 2 -4 4q-1 3 -1 10q-1 29 -1 87q2 38 2 58q1 18 1 54v29q1 10 1.5 31t0.5 31q0 7 1 21t1 22q0 37 2 109q0 9 1 27t1 27q1 14 1 42.5t1 42.5q0 15 2 47q0 6 -1.5 17.5t-1.5 17.5q-2 5 -6 5q-8 3 -19 1q-40 -2 -72 1h-12q-11 -2 -11 -11
q0 -5 1 -8q1 -27 -1 -83v-88v-21q-1 -24 -1 -70q2 -78 2 -116v-15q0 -34 -1 -51v-19q-1 -28 0 -58q0 -11 -1 -16q-4 -22 -1 -48t1 -59v-17q0 -2 -3 -4.5t-6 -1.5q-4 0 -5 3l-1 4v10v75q-2 14 0 27q3 20 1 45v20q2 21 2 62q0 44 1 67q0 13 -2 41v22q1 7 0 18t-1 15q0 9 -7 15
l-4 4q-21 14 -36 45q-9 17 -14 32q-6 20 -6 30q0 4 -1 6q-5 29 6 72l6 15q6 24 26 41q19 18 35 26q8 4 14 4z" />
    <glyph glyph-name="periodcentered" unicode="&#xb7;" horiz-adv-x="66" 
d="M38 285q4 0 6 -3q3 -3 1 -5q-2 -5 -5 -7q-3 -1 -7 0q-2 0 -4 4v3q0 10 9 8z" />
    <glyph glyph-name="cedilla" unicode="&#xb8;" horiz-adv-x="107" 
d="M51 0q3 0 3 -3q1 -1 0.5 -4.5t-0.5 -5.5v-1l1 -2q1 -1 4 -1q14 -1 24 -15q11 -17 -3 -29q-7 -7 -15 -7q-7 -1 -22 -1q-2 0 -7.5 -0.5t-7.5 -0.5q-1 0 -3 1t-3 1q-1 1 -2 4t0 4l4 4q6 2 12 0q4 -1 29 2q8 2 8 9q2 7 -5 10q-9 7 -18 3q-3 -1 -10 -1q-2 -1 -4.5 2t-1.5 5
q6 15 13 25q1 1 4 1z" />
    <glyph glyph-name="uni00B9" unicode="&#xb9;" horiz-adv-x="350" 
d="M167 714h73v-428h-71v276q0 33 4 89q-15 -14 -26.5 -23t-74.5 -55l-35 49z" />
    <glyph glyph-name="ordmasculine" unicode="&#xba;" horiz-adv-x="375" 
d="M345 553q0 -80 -42 -125t-116 -45q-71 0 -113 45t-42 125q0 81 41 125t116 44q73 0 114.5 -44.5t41.5 -124.5zM95 553q0 -59 21.5 -88t71.5 -29q49 0 71 29t22 88t-22 87.5t-71 28.5t-71 -28.5t-22 -87.5z" />
    <glyph glyph-name="guillemotright" unicode="&#xbb;" horiz-adv-x="339" 
d="M32 346q44 -16 47 -18q13 -6 39.5 -19t40.5 -19q6 -3 7 -9t-4 -10q-6 -6 -13 -10q-13 -8 -39.5 -19.5t-31.5 -13.5q-8 -3 -21.5 -8.5t-18.5 -7.5q-9 -2 -15 7q-2 4 -1 8.5t4 5.5q8 7 21 10q49 16 75 31q4 4 2 7q0 1 -3 1q-8 4 -22.5 12t-26.5 14t-23 10q-16 6 -27 16
q-1 1 -1.5 3t-0.5 3q2 5 3 5q7 2 9 1zM185 337q32 -10 47 -18q14 -6 40.5 -19t39.5 -19q6 -2 7 -8.5t-4 -10.5q-6 -6 -14 -9q-16 -10 -71 -33q-10 -6 -40 -17q-9 -2 -14 7q-6 11 2 15q11 6 22 9q53 18 75 31q3 3 1 7q0 1 -3 1q-54 30 -72 36q-9 4 -27 16v3t-1 3q2 5 3 5
q8 2 9 1z" />
    <glyph glyph-name="onequarter" unicode="&#xbc;" horiz-adv-x="600" 
 />
    <glyph glyph-name="onehalf" unicode="&#xbd;" horiz-adv-x="600" 
 />
    <glyph glyph-name="threequarters" unicode="&#xbe;" horiz-adv-x="600" 
 />
    <glyph glyph-name="questiondown" unicode="&#xbf;" horiz-adv-x="265" 
d="M176 710h4q6 0 10 -6.5t1 -12.5q-5 -7 -12 -8q-3 0 -4 1q-6 9 -7 10q-5 14 8 16zM177 634q4 -4 4 -7q1 0 2 -3q-1 -7 -1.5 -19.5t-1.5 -22.5t-3 -19l-3 -26q-7 -69 -13 -88q-5 -19 -11 -32q-11 -22 -22 -55q-5 -16 -16 -45.5t-15 -41.5q-2 -6 -24 -65q-20 -50 -25 -60
q-9 -15 -12 -39q-6 -22 10 -48q15 -23 47 -33q30 -6 44 -4h23q25 2 42 17q23 21 33 49q-1 1 0 2q2 2 4 2t2 -1l4 -8q-3 -11 -9 -21q-3 -4 -10 -13t-9 -12q-23 -27 -59 -28q-22 0 -32 -1q-14 0 -17 1l-25 5q-31 10 -46 33q-13 15 -18 41v8.5t1 7.5q1 21 14 48q13 28 24 60
q5 11 13.5 34t12.5 35q26 74 30 88q12 30 19 44q16 35 20 68q1 9 2.5 28t2.5 29q1 3 1 8q8 38 7 70q0 5 1 9q2 5 9 5z" />
    <glyph glyph-name="Agrave" unicode="&#xc0;" horiz-adv-x="289" 
d="M91 782q5 -2 5 -3q29 -40 37 -54q0 -1 1 -3v-2q0 -1 -0.5 -2.5t-1.5 -2.5q-4 -2 -6 -1q-3 0 -5 2q-2 3 -17 22t-23 30q-1 2 -1 6q2 10 11 8zM124 699q10 2 12 -5q0 -1 0.5 -3t0.5 -3q0 -15 5 -32q4 -18 10 -54l15 -90q4 -30 7 -44q2 -14 8 -42q6 -32 10 -48l12 -61l3 -16
q1 -10 11 -60q1 -5 2.5 -14.5t2.5 -13.5q1 -7 5 -26l6 -29q4 -22 7 -32q6 -26 6 -28q2 -9 7 -25.5t6 -18.5q1 -3 9 -38q1 -3 -3 -9q-3 -3 -8 -1q-5 3 -5 8l-6 24l-3 16q-3 13 -9.5 38.5t-9.5 38.5q-2 8 -5.5 25t-5.5 26l-6 34q-5 30 -17 90q-1 3 -1.5 8t-0.5 8q-2 10 -13 10
h-26h-12q-40 -2 -47 -2q-4 0 -6 -1l-4 -4q-2 -3 -4 -11l-4 -28q-1 -8 -2.5 -23t-2.5 -23q-1 -4 -2.5 -13.5t-2.5 -14.5q-6 -32 -7 -49q0 -6 -2 -18l-3 -18q-1 -17 -7 -46q-6 -38 -6 -40q-2 -10 -2 -30q0 -8 -7 -9q-2 -2 -5.5 0t-2.5 5v4q0 2 0.5 5.5t0.5 4.5q1 21 12 79
q2 12 2 20q8 55 8 66q0 3 1.5 8t1.5 6q5 26 10 68q4 34 8 52q8 45 11 81l6 42q2 20 4 28q4 33 7 46l9 50v1q1 2 1 3q1 12 5 36.5t4 27.5q0 6 1 12t2.5 13.5l2.5 12.5l3 20q0 6 3 6zM127 644l-1 -1v-2l-9 -56q-3 -32 -9 -62q-6 -34 -8 -46l-15 -121q-1 -3 -1 -8t5 -5
q2 0 5.5 -0.5t4.5 -0.5h8q6 0 14 2q17 0 51 2q11 0 10 11q-1 1 -1 4q-6 27 -16 81q-2 10 -7 38l-6 36q-9 49 -15 94q-1 10 -5 30q-2 7 -5 4z" />
    <glyph glyph-name="Aacute" unicode="&#xc1;" horiz-adv-x="639" 
d="M124 699q10 2 12 -5q0 -1 0.5 -3t0.5 -3q0 -15 5 -32q4 -18 10 -54l15 -90q4 -30 7 -44q2 -14 8 -42q6 -32 10 -48l12 -61l3 -16q1 -10 11 -60q1 -5 2.5 -14.5t2.5 -13.5q1 -7 5 -26l6 -29q4 -22 7 -32q6 -26 6 -28q2 -9 7 -25.5t6 -18.5q1 -3 9 -38q1 -3 -3 -9
q-3 -3 -8 -1q-5 3 -5 8l-6 24l-3 16q-3 13 -9.5 38.5t-9.5 38.5q-2 8 -5.5 25t-5.5 26l-6 34q-5 30 -17 90q-1 3 -1.5 8t-0.5 8q-2 10 -13 10h-26h-12q-40 -2 -47 -2q-4 0 -6 -1l-4 -4q-2 -3 -4 -11l-4 -28q-1 -8 -2.5 -23t-2.5 -23q-1 -4 -2.5 -13.5t-2.5 -14.5
q-6 -32 -7 -49q0 -6 -2 -18l-3 -18q-1 -17 -7 -46q-6 -38 -6 -40q-2 -10 -2 -30q0 -8 -7 -9q-2 -2 -5.5 0t-2.5 5v4q0 2 0.5 5.5t0.5 4.5q1 21 12 79q2 12 2 20q8 55 8 66q0 3 1.5 8t1.5 6q5 26 10 68q4 34 8 52q8 45 11 81l6 42q2 20 4 28q4 33 7 46l9 50v1q1 2 1 3
q1 12 5 36.5t4 27.5q0 6 1 12t2.5 13.5l2.5 12.5l3 20q0 6 3 6zM127 644l-1 -1v-2l-9 -56q-3 -32 -9 -62q-6 -34 -8 -46l-15 -121q-1 -3 -1 -8t5 -5q2 0 5.5 -0.5t4.5 -0.5h8q6 0 14 2q17 0 51 2q11 0 10 11q-1 1 -1 4q-6 27 -16 81q-2 10 -7 38l-6 36q-9 49 -15 94
q-1 10 -5 30q-2 7 -5 4zM136 903q4 0 6 -1q2 0 2 -4t-1 -6q-12 -18 -38 -54l-3 -3l-3 -1q-4 -1 -7.5 2t-3.5 6q0 4 1 6q3 4 18 23.5t24 28.5q4 2 5 3z" />
    <glyph glyph-name="Acircumflex" unicode="&#xc2;" horiz-adv-x="289" 
d="M134 780q1 -1 5 -7l15 -33q2 -3 4 -9t4 -9q1 -3 -3 -7q-1 -1 -3.5 -0.5t-3.5 1.5t-2.5 4.5t-2.5 5.5q-7 22 -15 35q0 1 -2 1l-1 -1q-16 -32 -17 -35q-1 -4 -7 -12q0 -1 -2 -1q-3 0 -3 1v2q-1 2 -1 3q2 3 4.5 11t3.5 11q16 33 18 37q1 3 4 3.5t5 -1.5zM124 699q10 2 12 -5
q0 -1 0.5 -3t0.5 -3q0 -15 5 -32q4 -18 10 -54l15 -90q4 -30 7 -44q2 -14 8 -42q6 -32 10 -48l12 -61l3 -16q1 -10 11 -60q1 -5 2.5 -14.5t2.5 -13.5q1 -7 5 -26l6 -29q4 -22 7 -32q6 -26 6 -28q2 -9 7 -25.5t6 -18.5q1 -3 9 -38q1 -3 -3 -9q-3 -3 -8 -1q-5 3 -5 8l-6 24
l-3 16q-3 13 -9.5 38.5t-9.5 38.5q-2 8 -5.5 25t-5.5 26l-6 34q-5 30 -17 90q-1 3 -1.5 8t-0.5 8q-2 10 -13 10h-26h-12q-40 -2 -47 -2q-4 0 -6 -1l-4 -4q-2 -3 -4 -11l-4 -28q-1 -8 -2.5 -23t-2.5 -23q-1 -4 -2.5 -13.5t-2.5 -14.5q-6 -32 -7 -49q0 -6 -2 -18l-3 -18
q-1 -17 -7 -46q-6 -38 -6 -40q-2 -10 -2 -30q0 -8 -7 -9q-2 -2 -5.5 0t-2.5 5v4q0 2 0.5 5.5t0.5 4.5q1 21 12 79q2 12 2 20q8 55 8 66q0 3 1.5 8t1.5 6q5 26 10 68q4 34 8 52q8 45 11 81l6 42q2 20 4 28q4 33 7 46l9 50v1q1 2 1 3q1 12 5 36.5t4 27.5q0 6 1 12t2.5 13.5
l2.5 12.5l3 20q0 6 3 6zM127 644l-1 -1v-2l-9 -56q-3 -32 -9 -62q-6 -34 -8 -46l-15 -121q-1 -3 -1 -8t5 -5q2 0 5.5 -0.5t4.5 -0.5h8q6 0 14 2q17 0 51 2q11 0 10 11q-1 1 -1 4q-6 27 -16 81q-2 10 -7 38l-6 36q-9 49 -15 94q-1 10 -5 30q-2 7 -5 4z" />
    <glyph glyph-name="Atilde" unicode="&#xc3;" horiz-adv-x="289" 
d="M105 762q1 -1 3 -1q3 -1 4 -1q5 -1 20 -9q8 -5 14 -6q13 -3 23 4q8 6 13 8q2 1 4 -1q1 0 3 -5l-1 -3q-11 -10 -23 -14q-8 -2 -15 -1q-12 2 -21 7l-4 2t-3.5 2t-4 2t-4.5 2q-7 5 -18 1q-5 -1 -13 -7q-3 -2 -7 -4q0 1 -3 1l-1 4q4 10 16 15q7 4 18 4zM124 699q10 2 12 -5
q0 -1 0.5 -3t0.5 -3q0 -15 5 -32q4 -18 10 -54l15 -90q4 -30 7 -44q2 -14 8 -42q6 -32 10 -48l12 -61l3 -16q1 -10 11 -60q1 -5 2.5 -14.5t2.5 -13.5q1 -7 5 -26l6 -29q4 -22 7 -32q6 -26 6 -28q2 -9 7 -25.5t6 -18.5q1 -3 9 -38q1 -3 -3 -9q-3 -3 -8 -1q-5 3 -5 8l-6 24
l-3 16q-3 13 -9.5 38.5t-9.5 38.5q-2 8 -5.5 25t-5.5 26l-6 34q-5 30 -17 90q-1 3 -1.5 8t-0.5 8q-2 10 -13 10h-26h-12q-40 -2 -47 -2q-4 0 -6 -1l-4 -4q-2 -3 -4 -11l-4 -28q-1 -8 -2.5 -23t-2.5 -23q-1 -4 -2.5 -13.5t-2.5 -14.5q-6 -32 -7 -49q0 -6 -2 -18l-3 -18
q-1 -17 -7 -46q-6 -38 -6 -40q-2 -10 -2 -30q0 -8 -7 -9q-2 -2 -5.5 0t-2.5 5v4q0 2 0.5 5.5t0.5 4.5q1 21 12 79q2 12 2 20q8 55 8 66q0 3 1.5 8t1.5 6q5 26 10 68q4 34 8 52q8 45 11 81l6 42q2 20 4 28q4 33 7 46l9 50v1q1 2 1 3q1 12 5 36.5t4 27.5q0 6 1 12t2.5 13.5
l2.5 12.5l3 20q0 6 3 6zM127 644l-1 -1v-2l-9 -56q-3 -32 -9 -62q-6 -34 -8 -46l-15 -121q-1 -3 -1 -8t5 -5q2 0 5.5 -0.5t4.5 -0.5h8q6 0 14 2q17 0 51 2q11 0 10 11q-1 1 -1 4q-6 27 -16 81q-2 10 -7 38l-6 36q-9 49 -15 94q-1 10 -5 30q-2 7 -5 4z" />
    <glyph glyph-name="Adieresis" unicode="&#xc4;" horiz-adv-x="289" 
d="M181 763q11 0 18 -6q3 -5 2 -9q-3 -8 -12 -11q-10 -3 -17 -1q-8 2 -10 8q-1 2 -1 5q0 16 20 14zM77 762q11 0 18 -6q3 -5 2 -9q-3 -8 -12 -11q-10 -3 -17 -1q-8 2 -10 8q-1 2 -1 5q0 16 20 14zM124 699q10 2 12 -5q0 -1 0.5 -3t0.5 -3q0 -15 5 -32q4 -18 10 -54l15 -90
q4 -30 7 -44q2 -14 8 -42q6 -32 10 -48l12 -61l3 -16q1 -10 11 -60q1 -5 2.5 -14.5t2.5 -13.5q1 -7 5 -26l6 -29q4 -22 7 -32q6 -26 6 -28q2 -9 7 -25.5t6 -18.5q1 -3 9 -38q1 -3 -3 -9q-3 -3 -8 -1q-5 3 -5 8l-6 24l-3 16q-3 13 -9.5 38.5t-9.5 38.5q-2 8 -5.5 25t-5.5 26
l-6 34q-5 30 -17 90q-1 3 -1.5 8t-0.5 8q-2 10 -13 10h-26h-12q-40 -2 -47 -2q-4 0 -6 -1l-4 -4q-2 -3 -4 -11l-4 -28q-1 -8 -2.5 -23t-2.5 -23q-1 -4 -2.5 -13.5t-2.5 -14.5q-6 -32 -7 -49q0 -6 -2 -18l-3 -18q-1 -17 -7 -46q-6 -38 -6 -40q-2 -10 -2 -30q0 -8 -7 -9
q-2 -2 -5.5 0t-2.5 5v4q0 2 0.5 5.5t0.5 4.5q1 21 12 79q2 12 2 20q8 55 8 66q0 3 1.5 8t1.5 6q5 26 10 68q4 34 8 52q8 45 11 81l6 42q2 20 4 28q4 33 7 46l9 50v1q1 2 1 3q1 12 5 36.5t4 27.5q0 6 1 12t2.5 13.5l2.5 12.5l3 20q0 6 3 6zM127 644l-1 -1v-2l-9 -56
q-3 -32 -9 -62q-6 -34 -8 -46l-15 -121q-1 -3 -1 -8t5 -5q2 0 5.5 -0.5t4.5 -0.5h8q6 0 14 2q17 0 51 2q11 0 10 11q-1 1 -1 4q-6 27 -16 81q-2 10 -7 38l-6 36q-9 49 -15 94q-1 10 -5 30q-2 7 -5 4z" />
    <glyph glyph-name="Aring" unicode="&#xc5;" horiz-adv-x="289" 
d="M106 776q29 8 49 -12q2 -1 7 -9q7 -13 -1 -24q-10 -12 -22 -16q-14 -5 -31 3q-2 1 -4 3t-3 2q-12 9 -11 22q0 12 4 20q4 10 12 11zM124 764q-3 0 -5 -1q-1 -1 -4 -2.5t-4 -1.5q-7 -3 -7 -9q0 -17 12 -21h2q13 -5 22 3q18 11 3 25q-8 7 -19 7zM124 699q10 2 12 -5
q0 -1 0.5 -3t0.5 -3q0 -15 5 -32q4 -18 10 -54l15 -90q4 -30 7 -44q2 -14 8 -42q6 -32 10 -48l12 -61l3 -16q1 -10 11 -60q1 -5 2.5 -14.5t2.5 -13.5q1 -7 5 -26l6 -29q4 -22 7 -32q6 -26 6 -28q2 -9 7 -25.5t6 -18.5q1 -3 9 -38q1 -3 -3 -9q-3 -3 -8 -1q-5 3 -5 8l-6 24
l-3 16q-3 13 -9.5 38.5t-9.5 38.5q-2 8 -5.5 25t-5.5 26l-6 34q-5 30 -17 90q-1 3 -1.5 8t-0.5 8q-2 10 -13 10h-26h-12q-40 -2 -47 -2q-4 0 -6 -1l-4 -4q-2 -3 -4 -11l-4 -28q-1 -8 -2.5 -23t-2.5 -23q-1 -4 -2.5 -13.5t-2.5 -14.5q-6 -32 -7 -49q0 -6 -2 -18l-3 -18
q-1 -17 -7 -46q-6 -38 -6 -40q-2 -10 -2 -30q0 -8 -7 -9q-2 -2 -5.5 0t-2.5 5v4q0 2 0.5 5.5t0.5 4.5q1 21 12 79q2 12 2 20q8 55 8 66q0 3 1.5 8t1.5 6q5 26 10 68q4 34 8 52q8 45 11 81l6 42q2 20 4 28q4 33 7 46l9 50v1q1 2 1 3q1 12 5 36.5t4 27.5q0 6 1 12t2.5 13.5
l2.5 12.5l3 20q0 6 3 6zM127 644l-1 -1v-2l-9 -56q-3 -32 -9 -62q-6 -34 -8 -46l-15 -121q-1 -3 -1 -8t5 -5q2 0 5.5 -0.5t4.5 -0.5h8q6 0 14 2q17 0 51 2q11 0 10 11q-1 1 -1 4q-6 27 -16 81q-2 10 -7 38l-6 36q-9 49 -15 94q-1 10 -5 30q-2 7 -5 4z" />
    <glyph glyph-name="AE" unicode="&#xc6;" horiz-adv-x="556" 
d="M516 700q4 0 8 -2q1 0 3 -5q1 -3 -3 -5q-3 -2 -10 -2h-28q-46 0 -69 -2h-16q0 1 -15 0h-14q-17 -2 -34 0q-6 1 -9 0.5t-3.5 -3t-1.5 -10.5q-4 -40 -1 -69q2 -26 2 -40q0 -88 1 -106q0 -6 -0.5 -18.5t-0.5 -18.5q1 -7 1 -22q2 -26 2 -39q0 -1 0.5 -3t0.5 -3q0 -5 6 -5
q43 0 52 2q10 0 23 1h4q4 -2 4 -4q0 -5 -3 -5q-4 -4 -26 -4q-16 -2 -26 -2h-9h-11h-9q-5 0 -7 -6q0 -1 -0.5 -3t-0.5 -3q0 -41 1 -49q2 -27 1 -41q-1 -30 1 -136q0 -26 -1 -39q0 -34 1 -41q0 -6 7 -6q12 2 36 4q12 2 17 2l117 3q2 0 7 0.5t8 0.5q7 1 14 -7q1 -1 0.5 -2.5
t-1.5 -2.5t-10 -2q-8 2 -17 0q-31 0 -91 -2q-23 0 -47 -3q-14 -2 -43 -2q-10 0 -11 9q0 3 -1 4q-2 23 -1 35q3 23 1 51v28q0 27 -1 41q-1 20 0 39q2 18 0 54q0 7 -1 24.5t0 25.5q3 55 0 89v18q0 52 -1 77v27v81q-2 10 -2 45v12q3 13 1 30q-2 8 7 8h6q19 -3 55 -1h29h12
q9 1 25.5 1.5t21.5 0.5q8 0 24.5 0.5t25.5 0.5zM124 699q10 2 12 -5q0 -1 0.5 -3t0.5 -3q0 -15 5 -32q4 -18 10 -54l15 -90q4 -30 7 -44q2 -14 8 -42q6 -32 10 -48l12 -61l3 -16q1 -10 11 -60q1 -5 2.5 -14.5t2.5 -13.5q1 -7 5 -26l6 -29q4 -22 7 -32q6 -26 6 -28
q2 -9 7 -25.5t6 -18.5q1 -3 9 -38q1 -3 -3 -9q-3 -3 -8 -1q-5 3 -5 8l-6 24l-3 16q-3 13 -9.5 38.5t-9.5 38.5q-2 8 -5.5 25t-5.5 26l-6 34q-5 30 -17 90q-1 3 -1.5 8t-0.5 8q-2 10 -13 10h-26h-12q-40 -2 -47 -2q-4 0 -6 -1l-4 -4q-2 -3 -4 -11l-4 -28q-1 -8 -2.5 -23
t-2.5 -23q-1 -4 -2.5 -13.5t-2.5 -14.5q-6 -32 -7 -49q0 -6 -2 -18l-3 -18q-1 -17 -7 -46q-6 -38 -6 -40q-2 -10 -2 -30q0 -8 -7 -9q-2 -2 -5.5 0t-2.5 5v4q0 2 0.5 5.5t0.5 4.5q1 21 12 79q2 12 2 20q8 55 8 66q0 3 1.5 8t1.5 6q5 26 10 68q4 34 8 52q8 45 11 81l6 42
q2 20 4 28q4 33 7 46l9 50v1q1 2 1 3q1 12 5 36.5t4 27.5q0 6 1 12t2.5 13.5l2.5 12.5l3 20q0 6 3 6zM127 644l-1 -1v-2l-9 -56q-3 -32 -9 -62q-6 -34 -8 -46l-15 -121q-1 -3 -1 -8t5 -5q2 0 5.5 -0.5t4.5 -0.5h8q6 0 14 2q17 0 51 2q11 0 10 11q-1 1 -1 4q-6 27 -16 81
q-2 10 -7 38l-6 36q-9 49 -15 94q-1 10 -5 30q-2 7 -5 4z" />
    <glyph glyph-name="Ccedilla" unicode="&#xc7;" horiz-adv-x="268" 
d="M147 698q28 3 52 -9h2q24 -8 38 -32q1 -2 8 -14q1 -1 0.5 -2.5t-1.5 -2.5q-2 -1 -5 0q-9 3 -12 11q-12 21 -40 31q-14 4 -31 6q-19 1 -36 -12q-14 -12 -20 -19q-29 -35 -45 -76q-3 -7 -7 -23q-5 -26 -7 -35q0 -1 -3 -26q-2 -18 -4 -50q-1 -12 -1 -36q-1 -30 0 -60
q0 -70 2 -105v-8q11 -73 12 -77q5 -29 15 -54q4 -11 12 -21q2 -3 5.5 -9.5t5.5 -9.5q1 -2 2.5 -6t1.5 -5q11 -20 23 -24l9 -6q26 -12 42 -10q36 7 46 13q14 9 18 21q1 3 3.5 7t3.5 7q2 4 5 3l4 -4q3 -3 1 -5q-10 -41 -52 -50l-13 -3q-24 -4 -46 0q-3 0 -6 1.5l-6 3l-5 2.5
q-12 8 -19 12q-9 5 -13 12q-5 10 -11 19q-10 21 -13 25q-8 11 -15 33q-1 3 -2.5 8.5t-2.5 8.5q-4 10 -6 23q0 2 -6 25q-2 6 -2 8q0 8 -2.5 28.5t-2.5 31.5v16q-3 19 -1 40v8v64q0 15 -1 22q-1 3 -1 18l3 42q2 38 5 56l9 48q5 22 7 27q10 22 17 32q3 4 9.5 15t10.5 17
q21 25 22 25q7 7 16 13q10 8 28 11zM155 0q3 0 3 -3q1 -1 0.5 -4.5t-0.5 -5.5v-1l1 -2q1 -1 4 -1q14 -1 24 -15q11 -17 -3 -29q-7 -7 -15 -7q-7 -1 -22 -1q-3 0 -8 -0.5t-7 -0.5q-1 0 -3 1t-3 1q-1 1 -2 4t0 4l4 4q6 2 12 0q4 -1 29 2q8 2 8 9q2 7 -5 10q-9 7 -18 3
q-3 -1 -10 -1q-2 -1 -4.5 2t-1.5 5q6 15 13 25q1 1 4 1z" />
    <glyph glyph-name="Egrave" unicode="&#xc8;" horiz-adv-x="267" 
d="M92 783q5 -2 5 -3q29 -40 37 -54v-3l1 -2q0 -1 -0.5 -2.5t-1.5 -2.5q-4 -2 -6 -1q-3 0 -5 2q-2 3 -17 22t-23 30q-1 2 -1 6q2 10 11 8zM227 700q4 0 8 -2q1 0 3 -5q1 -3 -3 -5q-3 -2 -10 -2h-28q-46 0 -69 -2h-16q0 1 -14 0h-15q-17 -2 -34 0q-6 1 -9 0.5t-3.5 -3
t-1.5 -10.5q-3 -40 -1 -69q2 -26 2 -40q0 -88 1 -106q0 -6 -0.5 -18.5t-0.5 -18.5q1 -7 1 -22q2 -26 2 -39q0 -1 0.5 -3t0.5 -3q0 -5 6 -5q43 0 52 2q10 0 23 1h4q4 -2 4 -4q0 -5 -3 -5q-4 -4 -26 -4q-16 -2 -26 -2h-29q-5 0 -7 -6q0 -1 -0.5 -3t-0.5 -3q0 -41 1 -49
q2 -28 1 -41q-1 -30 1 -136q0 -26 -1 -39q0 -34 1 -41q0 -6 7 -6q12 2 36 4q12 2 17 2l117 3q3 0 8 0.5t7 0.5q7 1 14 -7q1 -1 0.5 -2.5t-1.5 -2.5t-10 -2q-8 2 -17 0q-31 0 -91 -2q-23 0 -47 -3q-14 -2 -43 -2q-9 0 -11 9q0 3 -1 4q-2 23 -1 35q3 23 1 51v28q0 27 -1 41
q-2 20 0 39q2 18 0 54q0 7 -1 24.5t0 25.5q3 55 0 89v18q0 52 -1 77v27v81q-2 10 -2 45v12q3 13 1 30q-2 8 7 8h6q19 -3 55 -1h29h12q9 1 25.5 1.5t21.5 0.5q8 0 24.5 0.5t25.5 0.5z" />
    <glyph glyph-name="Eacute" unicode="&#xc9;" horiz-adv-x="267" 
d="M161 788q4 0 6 -1q2 0 2 -4t-1 -6q-12 -18 -38 -54q-1 -1 -4 -3l-2 -1q-4 -1 -7.5 2t-3.5 6q0 4 1 6q3 4 18 23.5t24 28.5q4 2 5 3zM227 700q4 0 8 -2q1 0 3 -5q1 -3 -3 -5q-3 -2 -10 -2h-28q-46 0 -69 -2h-16q0 1 -14 0h-15q-17 -2 -34 0q-6 1 -9 0.5t-3.5 -3
t-1.5 -10.5q-3 -40 -1 -69q2 -26 2 -40q0 -88 1 -106q0 -6 -0.5 -18.5t-0.5 -18.5q1 -7 1 -22q2 -26 2 -39q0 -1 0.5 -3t0.5 -3q0 -5 6 -5q43 0 52 2q10 0 23 1h4q4 -2 4 -4q0 -5 -3 -5q-4 -4 -26 -4q-16 -2 -26 -2h-29q-5 0 -7 -6q0 -1 -0.5 -3t-0.5 -3q0 -41 1 -49
q2 -28 1 -41q-1 -30 1 -136q0 -26 -1 -39q0 -34 1 -41q0 -6 7 -6q12 2 36 4q12 2 17 2l117 3q3 0 8 0.5t7 0.5q7 1 14 -7q1 -1 0.5 -2.5t-1.5 -2.5t-10 -2q-8 2 -17 0q-31 0 -91 -2q-23 0 -47 -3q-14 -2 -43 -2q-9 0 -11 9q0 3 -1 4q-2 23 -1 35q3 23 1 51v28q0 27 -1 41
q-2 20 0 39q2 18 0 54q0 7 -1 24.5t0 25.5q3 55 0 89v18q0 52 -1 77v27v81q-2 10 -2 45v12q3 13 1 30q-2 8 7 8h6q19 -3 55 -1h29h12q9 1 25.5 1.5t21.5 0.5q8 0 24.5 0.5t25.5 0.5z" />
    <glyph glyph-name="Ecircumflex" unicode="&#xca;" horiz-adv-x="267" 
d="M135 786q1 -1 5 -7q3 -4 5.5 -9.5t5 -12.5t4.5 -11q1 -3 3.5 -9t4.5 -9q1 -3 -3 -7q-1 -1 -3.5 -0.5t-3.5 1.5t-2.5 5t-2.5 5q-8 22 -15 35q0 1 -2 1l-1 -1q-16 -32 -17 -35q-1 -4 -7 -12q0 -1 -2 -1q-3 0 -3 1l-1 2v3q1 4 4 11t4 11q16 33 18 37q1 3 4 3.5t5 -1.5z
M227 700q4 0 8 -2q1 0 3 -5q1 -3 -3 -5q-3 -2 -10 -2h-28q-46 0 -69 -2h-16q0 1 -14 0h-15q-17 -2 -34 0q-6 1 -9 0.5t-3.5 -3t-1.5 -10.5q-3 -40 -1 -69q2 -26 2 -40q0 -88 1 -106q0 -6 -0.5 -18.5t-0.5 -18.5q1 -7 1 -22q2 -26 2 -39q0 -1 0.5 -3t0.5 -3q0 -5 6 -5
q43 0 52 2q10 0 23 1h4q4 -2 4 -4q0 -5 -3 -5q-4 -4 -26 -4q-16 -2 -26 -2h-29q-5 0 -7 -6q0 -1 -0.5 -3t-0.5 -3q0 -41 1 -49q2 -28 1 -41q-1 -30 1 -136q0 -26 -1 -39q0 -34 1 -41q0 -6 7 -6q12 2 36 4q12 2 17 2l117 3q3 0 8 0.5t7 0.5q7 1 14 -7q1 -1 0.5 -2.5
t-1.5 -2.5t-10 -2q-8 2 -17 0q-31 0 -91 -2q-23 0 -47 -3q-14 -2 -43 -2q-9 0 -11 9q0 3 -1 4q-2 23 -1 35q3 23 1 51v28q0 27 -1 41q-2 20 0 39q2 18 0 54q0 7 -1 24.5t0 25.5q3 55 0 89v18q0 52 -1 77v27v81q-2 10 -2 45v12q3 13 1 30q-2 8 7 8h6q19 -3 55 -1h29h12
q9 1 25.5 1.5t21.5 0.5q8 0 24.5 0.5t25.5 0.5z" />
    <glyph glyph-name="Edieresis" unicode="&#xcb;" horiz-adv-x="267" 
d="M182 763q10 0 18 -6q3 -5 2 -9q-3 -8 -12 -11q-10 -3 -17 -1q-8 2 -10 8q-1 2 -1 5q0 16 20 14zM78 762q10 0 18 -6q3 -5 2 -9q-3 -8 -12 -11q-10 -3 -17 -1q-8 2 -10 8q-1 2 -1 5q0 16 20 14zM227 700q4 0 8 -2q1 0 3 -5q1 -3 -3 -5q-3 -2 -10 -2h-28q-46 0 -69 -2h-16
q0 1 -14 0h-15q-17 -2 -34 0q-6 1 -9 0.5t-3.5 -3t-1.5 -10.5q-3 -40 -1 -69q2 -26 2 -40q0 -88 1 -106q0 -6 -0.5 -18.5t-0.5 -18.5q1 -7 1 -22q2 -26 2 -39q0 -1 0.5 -3t0.5 -3q0 -5 6 -5q43 0 52 2q10 0 23 1h4q4 -2 4 -4q0 -5 -3 -5q-4 -4 -26 -4q-16 -2 -26 -2h-29
q-5 0 -7 -6q0 -1 -0.5 -3t-0.5 -3q0 -41 1 -49q2 -28 1 -41q-1 -30 1 -136q0 -26 -1 -39q0 -34 1 -41q0 -6 7 -6q12 2 36 4q12 2 17 2l117 3q3 0 8 0.5t7 0.5q7 1 14 -7q1 -1 0.5 -2.5t-1.5 -2.5t-10 -2q-8 2 -17 0q-31 0 -91 -2q-23 0 -47 -3q-14 -2 -43 -2q-9 0 -11 9
q0 3 -1 4q-2 23 -1 35q3 23 1 51v28q0 27 -1 41q-2 20 0 39q2 18 0 54q0 7 -1 24.5t0 25.5q3 55 0 89v18q0 52 -1 77v27v81q-2 10 -2 45v12q3 13 1 30q-2 8 7 8h6q19 -3 55 -1h29h12q9 1 25.5 1.5t21.5 0.5q8 0 24.5 0.5t25.5 0.5z" />
    <glyph glyph-name="Igrave" unicode="&#xcc;" horiz-adv-x="124" 
d="M64 717q-2 3 -17 22t-23 30q-1 2 -1 6q2 10 11 8q5 -2 5 -3q29 -40 37 -54v-3l1 -2q0 -1 -0.5 -2.5t-1.5 -2.5q-4 -2 -6 -1q-3 0 -5 2zM100 14q6 -2 4 -9q0 -5 -4 -6q-6 -2 -10 -1h-65l-5 10v1l2 4q0 1 1 2h37q0 6 -1 17t-1.5 20t-0.5 17q1 11 0 32.5t-1 28.5
q-2 80 -2 120q1 12 1 36q-1 10 -0.5 28t0.5 27q0 14 0.5 42t0.5 42q0 7 -0.5 22t-0.5 23q-2 45 3 75q1 8 1 26l1 51q0 51 -1 51v11h-34l-3 6q-1 3 -2 4v1l2 4q0 1 1 2h69q2 0 4.5 -0.5t3.5 -0.5q6 -2 4 -9q0 -5 -4 -6q-6 -2 -10 -1h-21l3 -69v-21t-1 -21q0 -27 -3 -53
q-2 -20 0 -61q2 -31 0 -63v-14q2 -13 0.5 -73t-1.5 -72q0 -32 2 -96l3 -67v-8v-9.5v-8.5q0 -22 3 -33h17q2 0 4.5 -0.5t3.5 -0.5z" />
    <glyph glyph-name="Iacute" unicode="&#xcd;" horiz-adv-x="124" 
d="M105 788q2 0 2 -4t-1 -6q-12 -18 -38 -54q-1 -1 -4 -2l-2 -2q-4 -1 -7.5 2t-3.5 6q0 4 1 6q3 4 18 23.5t24 28.5q4 2 5 3q4 0 6 -1zM100 685q-6 -2 -10 -1h-21l3 -69v-21t-1 -21q0 -27 -3 -53q-2 -20 0 -61q2 -31 0 -63v-14q2 -13 0.5 -73t-1.5 -72q0 -32 2 -96l3 -67v-8
v-9.5v-8.5q0 -22 3 -33h17q2 0 4.5 -0.5t3.5 -0.5q6 -2 4 -9q0 -5 -4 -6q-6 -2 -10 -1h-65l-5 10v1l2 4q0 1 1 2h37q0 6 -1 17t-1.5 20t-0.5 17q1 11 0 32.5t-1 28.5q-2 80 -2 120q1 12 1 36q-1 10 -0.5 28t0.5 27q0 14 0.5 42t0.5 42q0 7 -0.5 22t-0.5 23q-2 45 3 75
q1 8 1 26l1 51q0 51 -1 51v11h-34l-3 6q-1 3 -2 4v1l2 4q0 1 1 2h69q2 0 4.5 -0.5t3.5 -0.5q6 -2 4 -9q0 -5 -4 -6z" />
    <glyph glyph-name="Icircumflex" unicode="&#xce;" horiz-adv-x="124" 
d="M37 720q-3 0 -3 1v2q-1 2 -1 3q2 3 4.5 10.5t3.5 11.5q16 33 18 37q1 3 4 3.5t5 -1.5q1 -1 5 -7l15 -33q1 -3 3.5 -9t4.5 -9q1 -3 -3 -7q-1 -1 -3.5 -0.5t-3.5 1.5t-2.5 4.5t-2.5 5.5q-7 22 -15 35q0 1 -2 1l-1 -1q-16 -32 -17 -35q-1 -4 -7 -12q0 -1 -2 -1zM100 14
q6 -2 4 -9q0 -5 -4 -6q-6 -2 -10 -1h-65l-5 10v1l2 4q0 1 1 2h37q0 6 -1 17t-1.5 20t-0.5 17q1 11 0 32.5t-1 28.5q-2 80 -2 120q1 12 1 36q-1 10 -0.5 28t0.5 27q0 14 0.5 42t0.5 42q0 7 -0.5 22t-0.5 23q-2 45 3 75q1 8 1 26l1 51q0 51 -1 51v11h-34l-3 6q-1 3 -2 4v1l2 4
q0 1 1 2h69q2 0 4.5 -0.5t3.5 -0.5q6 -2 4 -9q0 -5 -4 -6q-6 -2 -10 -1h-21l3 -69v-21t-1 -21q0 -27 -3 -53q-2 -20 0 -61q2 -31 0 -63v-14q2 -13 0.5 -73t-1.5 -72q0 -32 2 -96l3 -67v-8v-9.5v-8.5q0 -22 3 -33h17q2 0 4.5 -0.5t3.5 -0.5z" />
    <glyph glyph-name="Idieresis" unicode="&#xcf;" horiz-adv-x="124" 
d="M138 757q3 -5 2 -9q-3 -8 -12 -11q-10 -3 -17 -1q-8 2 -10 8q-1 2 -1 5q0 16 20 14q10 0 18 -6zM36 747q-3 -8 -12 -11q-10 -3 -17 -1q-8 2 -10 8q-1 2 -1 5q0 16 20 14q10 0 18 -6q3 -5 2 -9zM100 685q-6 -2 -10 -1h-21l3 -69v-21t-1 -21q0 -27 -3 -53q-2 -20 0 -61
q2 -31 0 -63v-14q2 -13 0.5 -73t-1.5 -72q0 -32 2 -96l3 -67v-8v-9.5v-8.5q0 -22 3 -33h17q2 0 4.5 -0.5t3.5 -0.5q6 -2 4 -9q0 -5 -4 -6q-6 -2 -10 -1h-65l-5 10v1l2 4q0 1 1 2h37q0 6 -1 17t-1.5 20t-0.5 17q1 11 0 32.5t-1 28.5q-2 80 -2 120q1 12 1 36q-1 10 -0.5 28
t0.5 27q0 14 0.5 42t0.5 42q0 7 -0.5 22t-0.5 23q-2 45 3 75q1 8 1 26l1 51q0 51 -1 51v11h-34l-3 6q-1 3 -2 4v1l2 4q0 1 1 2h69q2 0 4.5 -0.5t3.5 -0.5q6 -2 4 -9q0 -5 -4 -6z" />
    <glyph glyph-name="Eth" unicode="&#xd0;" horiz-adv-x="270" 
d="M285 244l1 -6q0 -2 -1 -2h-1l-2 -1h-6h-37h-5q-6 -30 -10 -45q-8 -30 -24 -57q-26 -38 -30 -44q-8 -10 -12 -14l-36 -39q-13 -12 -37 -23q-6 -3 -17.5 -7t-13.5 -5q-3 -1 -10 -1q-12 -1 -12 10q-1 6 -1.5 13t-1 15.5t-0.5 13.5q0 2 0.5 7t0.5 9q-2 26 -2 45q-1 4 -1 12
q1 12 -1 53q0 16 1 24q1 6 1 34h-5q-2 0 -2 1q-1 1 -0.5 4.5t1.5 4.5h2h1q1 1 2 1q0 4 -0.5 13t-0.5 13v76q1 22 0 44q-1 3 -1 8q0 1 1.5 14.5t1.5 20.5q0 28 1 34v15l-3 89q0 8 -0.5 23t-0.5 22q-2 24 -4 38q-2 16 0 24q0 1 -0.5 4t-0.5 5q0 5 2 7t6 1q8 0 26 -2
q16 -3 29 -9q20 -9 35 -24q7 -6 21 -20q30 -29 54 -78q25 -57 30 -75v-2q9 -17 19 -63q0 -4 2 -11.5t3 -11.5q4 -15 2 -35t-2 -30q1 -27 -9 -81l-2 -11h22h10h15q1 0 2 -1zM231 292q3 20 3 39q0 36 2 46q0 8 -1 12q-6 44 -19 81q-11 34 -27 70q-12 28 -19 41q-23 40 -60 74
q-17 16 -42 25q-18 6 -30 4q-5 0 -5 -5q1 -6 1 -17v-16q3 -13 5 -59q0 -3 0.5 -9.5t0.5 -10.5q0 -31 1 -47q0 -7 0.5 -21t0.5 -21q0 -40 -1 -47q-3 -23 0 -45v-16q-4 -41 -1 -87q0 -15 1 -23l1 -13q4 0 10.5 0.5t9.5 0.5h8h43h7q6 -1 17 -1h9h7q5 -1 16 -1h33h2q2 -1 3 -1
h16q6 34 8 47zM215 208l6 27q-21 0 -31 1h-25h-14.5t-14.5 1h15q-20 0 -30 1h-34h-4q-4 -1 -4 0l-37 -1q0 -21 -1 -32q-2 -8 0 -24q0 -7 0.5 -19t0.5 -19q0 -18 0.5 -54t0.5 -54v-8q0 -1 0.5 -3t0.5 -3q2 -6 8 -6q38 8 62 32q8 8 12 11q32 32 56 70q13 22 13 23q16 33 20 57
z" />
    <glyph glyph-name="Ntilde" unicode="&#xd1;" horiz-adv-x="279" 
d="M105 762q1 -1 3 -1q3 -1 4 -1q5 -1 20 -9q8 -5 14 -6q13 -3 23 4q8 6 13 8q2 1 4 -1q1 0 3 -5l-1 -3q-11 -10 -23 -14q-8 -2 -15 -1q-12 2 -21 7l-4 2t-3.5 2t-4 2t-4.5 2q-7 5 -18 1q-5 -1 -13 -7q-3 -2 -7 -4q0 1 -3 1l-1 4q4 10 16 15q7 4 18 4zM237 698q2 0 4 -4
q1 -1 1 -3v-49v-50v-12h1q1 -16 1.5 -48.5t0.5 -48.5q0 -8 1 -24t1 -24q2 -38 2 -58q0 -24 -1 -36q-1 -6 0 -17.5t1 -14.5q3 -30 2 -55q0 -8 0.5 -24.5t0.5 -25.5q-2 -44 0 -86q0 -13 2 -38.5t2 -38.5l3 -26q0 -6 -5 -11q-1 -2 -4 -1.5t-4 2.5l-21 52q-1 3 -4 10t-4 11
q-8 18 -22 56q-1 5 -5 15q-9 16 -24 64q-2 5 -5.5 18t-5.5 20l-15 38q-15 43 -22 71q-3 13 -17 56v2q-5 9 -17 53l-24 86q-11 36 -18 70l-3 9l-2 1l-1 -1q-1 -2 -1 -8q1 -9 1 -28.5t1 -29.5q2 -36 4 -52q4 -31 4 -69v-72q0 -12 2 -36v-16v-26q1 -4 1 -10q-3 -28 -1 -63
q0 -16 -1 -24q0 -18 -2 -54q0 -12 2 -36v-26.5t1 -26.5q0 -17 1 -26q2 -16 2 -26q0 -4 -3 -7q-8 -5 -8 3q-7 41 -6 55t-1 61q-4 47 1 76v24q0 28 1 42v31v36l-3 42v14q1 5 1 16v31.5t-2 38.5v19q0 10 -1 16t-4 52q-4 77 -5 118q0 3 0.5 8.5t0.5 7.5q3 5 7 3q7 -3 8 -8
q14 -34 18 -51q4 -20 7 -30q10 -39 19 -68l22 -79l30 -98q3 -11 10 -32l9 -27q1 -3 2.5 -6.5t2.5 -6.5t2.5 -7t1.5 -7q0 -2 3 -5q6 -12 9 -25q9 -36 24 -72q2 -3 4 -13q1 -2 3.5 -9t4.5 -10l3 -7q4 -16 16 -46q0 -3 10 -20l1 -1l1 1q2 1 2 2v16l-3 60q0 49 1 58v8l-3 73
q0 14 -2 42q0 5 1 8q2 26 0 79q-1 6 -1 20v12q-3 14 -3 56v52q-1 5 -1 14q-1 4 -1 12q0 35 -1 53v44q0 11 4 20q0 2 5 2z" />
    <glyph glyph-name="Ograve" unicode="&#xd2;" horiz-adv-x="251" 
d="M89 788q5 -2 5 -3q29 -40 37 -54q0 -1 1 -3v-2q0 -1 -0.5 -2.5t-1.5 -2.5q-4 -2 -6 -1q-3 0 -5 2q-2 3 -17 22t-23 30q-1 2 -1 6q2 10 11 8zM118 698q8 2 20 -1q21 -6 44 -17q19 -9 29 -33q14 -38 15 -77v-4q3 -48 2 -58q-1 -4 0 -12t1 -10v-20v-24v-21q0 -30 1 -45
q2 -57 -1 -104q0 -22 1 -33v-86q0 -4 -0.5 -10.5t-0.5 -9.5q-1 -6 -1 -18q1 -31 -19 -67q-4 -7 -25 -28q-5 -5 -15 -11q-2 -1 -11 -4q-13 -5 -41 -5q-12 0 -21 5q-8 5 -24 13q-12 7 -18 20q-17 34 -21 63q-1 5 -2.5 16t-2.5 17q-3 13 -3 39q0 25 2 77q0 44 -1 52t-1 26
q1 5 0 37t-1 39q0 6 -1 26t0 31q0 13 -2 39q-2 19 2 53l7 43q3 26 13 45q20 36 56 52q3 2 10 3t9 2zM114 683q-23 -5 -45 -27q-2 -2 -2 -3q-20 -27 -22 -50q-1 -6 -4.5 -23t-3.5 -27q-4 -12 -4 -45q0 -3 1.5 -26t-0.5 -27q0 -2 1 -3q1 -8 1.5 -22.5t0.5 -18.5v-61v-32l3 -54
q0 -4 0.5 -11.5t0.5 -10.5q-1 -6 0 -12q-2 -5 0 -11q-2 -26 -2 -39q-3 -7 -1 -15q0 -19 2 -24q2 -8 4 -28q4 -28 9 -42l9 -20q4 -11 14 -19t32 -18q3 -2 10 -2q22 0 33 3q15 4 28 17t17 18t11 22q8 19 8 38q0 9 1 26.5t1.5 31.5t0.5 26q0 35 -1 53t0 35q1 14 1 80
q0 2 -0.5 5.5t-0.5 4.5q-3 15 -1 45v30.5t1 30.5q0 4 -1 6q-3 14 -1 40q1 5 -1 26q-2 18 -2 26q-2 33 -11 57q-5 18 -18 30q-3 4 -9 7l-35 12q-13 6 -25 1z" />
    <glyph glyph-name="Oacute" unicode="&#xd3;" horiz-adv-x="251" 
d="M159 794q4 0 6 -1q2 0 2 -4t-1 -6q-12 -18 -38 -54q-1 -1 -4 -3l-2 -1q-4 -1 -7.5 2t-3.5 6q0 4 1 6q3 4 18 23.5t24 28.5q4 2 5 3zM118 698q8 2 20 -1q21 -6 44 -17q19 -9 29 -33q14 -38 15 -77v-4q3 -48 2 -58q-1 -4 0 -12t1 -10v-20v-24v-21q0 -30 1 -45
q2 -57 -1 -104q0 -22 1 -33v-86q0 -4 -0.5 -10.5t-0.5 -9.5q-1 -6 -1 -18q1 -31 -19 -67q-4 -7 -25 -28q-5 -5 -15 -11q-2 -1 -11 -4q-13 -5 -41 -5q-12 0 -21 5q-8 5 -24 13q-12 7 -18 20q-17 34 -21 63q-1 5 -2.5 16t-2.5 17q-3 13 -3 39q0 25 2 77q0 44 -1 52t-1 26
q1 5 0 37t-1 39q0 6 -1 26t0 31q0 13 -2 39q-2 19 2 53l7 43q3 26 13 45q20 36 56 52q3 2 10 3t9 2zM114 683q-23 -5 -45 -27q-2 -2 -2 -3q-20 -27 -22 -50q-1 -6 -4.5 -23t-3.5 -27q-4 -12 -4 -45q0 -3 1.5 -26t-0.5 -27q0 -2 1 -3q1 -8 1.5 -22.5t0.5 -18.5v-61v-32l3 -54
q0 -4 0.5 -11.5t0.5 -10.5q-1 -6 0 -12q-2 -5 0 -11q-2 -26 -2 -39q-3 -7 -1 -15q0 -19 2 -24q2 -8 4 -28q4 -28 9 -42l9 -20q4 -11 14 -19t32 -18q3 -2 10 -2q22 0 33 3q15 4 28 17t17 18t11 22q8 19 8 38q0 9 1 26.5t1.5 31.5t0.5 26q0 35 -1 53t0 35q1 14 1 80
q0 2 -0.5 5.5t-0.5 4.5q-3 15 -1 45v30.5t1 30.5q0 4 -1 6q-3 14 -1 40q1 5 -1 26q-2 18 -2 26q-2 33 -11 57q-5 18 -18 30q-3 4 -9 7l-35 12q-13 6 -25 1z" />
    <glyph glyph-name="Ocircumflex" unicode="&#xd4;" horiz-adv-x="251" 
d="M133 790q1 -1 5 -7l15 -33q2 -3 4.5 -9t3.5 -9t-3 -7q-1 -1 -3.5 -0.5t-3.5 1.5l-2.5 5l-2.5 5q-8 22 -15 35q0 1 -2 1l-1 -1q-16 -32 -17 -35q-1 -4 -7 -12q0 -1 -2 -1q-3 0 -3 1l-1 2v3q2 3 4 10.5t4 11.5q16 33 18 37q1 3 4 3.5t5 -1.5zM118 698q8 2 20 -1
q21 -6 44 -17q19 -9 29 -33q14 -38 15 -77v-4q3 -48 2 -58q-1 -4 0 -12t1 -10v-20v-24v-21q0 -30 1 -45q2 -57 -1 -104q0 -22 1 -33v-86q0 -4 -0.5 -10.5t-0.5 -9.5q-1 -6 -1 -18q1 -31 -19 -67q-4 -7 -25 -28q-5 -5 -15 -11q-2 -1 -11 -4q-13 -5 -41 -5q-12 0 -21 5
q-8 5 -24 13q-12 7 -18 20q-17 34 -21 63q-1 5 -2.5 16t-2.5 17q-3 13 -3 39q0 25 2 77q0 44 -1 52t-1 26q1 5 0 37t-1 39q0 6 -1 26t0 31q0 13 -2 39q-2 19 2 53l7 43q3 26 13 45q20 36 56 52q3 2 10 3t9 2zM114 683q-23 -5 -45 -27q-2 -2 -2 -3q-20 -27 -22 -50
q-1 -6 -4.5 -23t-3.5 -27q-4 -12 -4 -45q0 -3 1.5 -26t-0.5 -27q0 -2 1 -3q1 -8 1.5 -22.5t0.5 -18.5v-61v-32l3 -54q0 -4 0.5 -11.5t0.5 -10.5q-1 -6 0 -12q-2 -5 0 -11q-2 -26 -2 -39q-3 -7 -1 -15q0 -19 2 -24q2 -8 4 -28q4 -28 9 -42l9 -20q4 -11 14 -19t32 -18
q3 -2 10 -2q22 0 33 3q15 4 28 17t17 18t11 22q8 19 8 38q0 9 1 26.5t1.5 31.5t0.5 26q0 35 -1 53t0 35q1 14 1 80q0 2 -0.5 5.5t-0.5 4.5q-3 15 -1 45v30.5t1 30.5q0 4 -1 6q-3 14 -1 40q1 5 -1 26q-2 18 -2 26q-2 33 -11 57q-5 18 -18 30q-3 4 -9 7l-35 12q-13 6 -25 1z
" />
    <glyph glyph-name="Otilde" unicode="&#xd5;" horiz-adv-x="251" 
d="M102 757q1 -1 3 -1q3 -1 4 -1q5 -1 20 -9q8 -5 14 -6q13 -3 23 4q8 6 13 8q1 2 4 -1q1 0 3 -5l-1 -3q-11 -10 -23 -14q-8 -2 -15 -1q-12 2 -21 7l-4 2t-3.5 2t-4 2t-4.5 2q-7 5 -18 1q-5 -1 -13 -7q-3 -3 -7 -4q0 1 -3 1l-1 4q4 10 16 15q7 4 18 4zM118 698q8 2 20 -1
q21 -6 44 -17q19 -9 29 -33q14 -38 15 -77v-4q3 -48 2 -58q-1 -4 0 -12t1 -10v-20v-24v-21q0 -30 1 -45q2 -57 -1 -104q0 -22 1 -33v-86q0 -4 -0.5 -10.5t-0.5 -9.5q-1 -6 -1 -18q1 -31 -19 -67q-4 -7 -25 -28q-5 -5 -15 -11q-2 -1 -11 -4q-13 -5 -41 -5q-12 0 -21 5
q-8 5 -24 13q-12 7 -18 20q-17 34 -21 63q-1 5 -2.5 16t-2.5 17q-3 13 -3 39q0 25 2 77q0 44 -1 52t-1 26q1 5 0 37t-1 39q0 6 -1 26t0 31q0 13 -2 39q-2 19 2 53l7 43q3 26 13 45q20 36 56 52q3 2 10 3t9 2zM114 683q-23 -5 -45 -27q-2 -2 -2 -3q-20 -27 -22 -50
q-1 -6 -4.5 -23t-3.5 -27q-4 -12 -4 -45q0 -3 1.5 -26t-0.5 -27q0 -2 1 -3q1 -8 1.5 -22.5t0.5 -18.5v-61v-32l3 -54q0 -4 0.5 -11.5t0.5 -10.5q-1 -6 0 -12q-2 -5 0 -11q-2 -26 -2 -39q-3 -7 -1 -15q0 -19 2 -24q2 -8 4 -28q4 -28 9 -42l9 -20q4 -11 14 -19t32 -18
q3 -2 10 -2q22 0 33 3q15 4 28 17t17 18t11 22q8 19 8 38q0 9 1 26.5t1.5 31.5t0.5 26q0 35 -1 53t0 35q1 14 1 80q0 2 -0.5 5.5t-0.5 4.5q-3 15 -1 45v30.5t1 30.5q0 4 -1 6q-3 14 -1 40q1 5 -1 26q-2 18 -2 26q-2 33 -11 57q-5 18 -18 30q-3 4 -9 7l-35 12q-13 6 -25 1z
" />
    <glyph glyph-name="Odieresis" unicode="&#xd6;" horiz-adv-x="251" 
d="M177 767q11 0 18 -6q3 -5 2 -9q-3 -8 -12 -11q-10 -3 -17 -1q-8 2 -10 8q-1 2 -1 5q0 16 20 14zM73 766q11 0 18 -6q3 -5 2 -9q-3 -8 -12 -11q-10 -3 -17 -1q-8 2 -10 8q-1 2 -1 5q0 16 20 14zM118 698q8 2 20 -1q21 -6 44 -17q19 -9 29 -33q14 -38 15 -77v-4
q3 -48 2 -58q-1 -4 0 -12t1 -10v-20v-24v-21q0 -30 1 -45q2 -57 -1 -104q0 -22 1 -33v-86q0 -4 -0.5 -10.5t-0.5 -9.5q-1 -6 -1 -18q1 -31 -19 -67q-4 -7 -25 -28q-5 -5 -15 -11q-2 -1 -11 -4q-13 -5 -41 -5q-12 0 -21 5q-8 5 -24 13q-12 7 -18 20q-17 34 -21 63
q-1 5 -2.5 16t-2.5 17q-3 13 -3 39q0 25 2 77q0 44 -1 52t-1 26q1 5 0 37t-1 39q0 6 -1 26t0 31q0 13 -2 39q-2 19 2 53l7 43q3 26 13 45q20 36 56 52q3 2 10 3t9 2zM114 683q-23 -5 -45 -27q-2 -2 -2 -3q-20 -27 -22 -50q-1 -6 -4.5 -23t-3.5 -27q-4 -12 -4 -45
q0 -3 1.5 -26t-0.5 -27q0 -2 1 -3q1 -8 1.5 -22.5t0.5 -18.5v-61v-32l3 -54q0 -4 0.5 -11.5t0.5 -10.5q-1 -6 0 -12q-2 -5 0 -11q-2 -26 -2 -39q-3 -7 -1 -15q0 -19 2 -24q2 -8 4 -28q4 -28 9 -42l9 -20q4 -11 14 -19t32 -18q3 -2 10 -2q22 0 33 3q15 4 28 17t17 18t11 22
q8 19 8 38q0 9 1 26.5t1.5 31.5t0.5 26q0 35 -1 53t0 35q1 14 1 80q0 2 -0.5 5.5t-0.5 4.5q-3 15 -1 45v30.5t1 30.5q0 4 -1 6q-3 14 -1 40q1 5 -1 26q-2 18 -2 26q-2 33 -11 57q-5 18 -18 30q-3 4 -9 7l-35 12q-13 6 -25 1z" />
    <glyph glyph-name="multiply" unicode="&#xd7;" horiz-adv-x="447" 
d="M413 500q8 -6 4 -12q-5 -10 -7 -12q-37 -39 -72 -86q-4 -5 -23 -27q0 -1 -2 -3q-25 -32 -75 -98q-6 -7 0 -16q2 -2 2 -3q48 -58 71 -87l63 -76q32 -40 51 -58q5 -5 -1 -13q-4 -8 -12 -3q-4 2 -6 4q-5 5 -7 8q-26 31 -78 95l-90 113q-5 5 -8 6q-5 2 -6 1q-8 -6 -11 -10
q-7 -9 -41.5 -53.5t-52.5 -69.5q-12 -16 -35 -45.5t-32 -40.5q-6 -7 -19 -7q-2 2 -2 3q-2 6 -1 10q3 6 8 11q26 28 53 66q3 4 9.5 12.5t10.5 12.5q2 2 29 35l36 48l21 28q14 21 14 23.5t-17 23.5l-24 30l-24 30q-19 23 -56.5 69.5t-56.5 69.5l-6 9q-3 8 5 12q5 2 10 0t7 -7
q11 -21 41 -57l63 -76q63 -77 67 -82q5 -7 11 0q22 25 23 26q52 66 67 87q6 7 23 27.5t26 32.5q28 38 31 46q1 4 7.5 5t11.5 -2z" />
    <glyph glyph-name="Oslash" unicode="&#xd8;" horiz-adv-x="251" 
d="M229 272q0 -22 1 -33v-86q0 -4 -0.5 -10.5t-0.5 -9.5q-1 -6 -1 -18q1 -31 -19 -67q-4 -7 -25 -28q-5 -5 -15 -11q-2 -1 -11 -4q-13 -5 -41 -5q-12 0 -21 5q-8 5 -24 13q-12 7 -18 20q-2 4 -5 11t-5 10l-7 -28q-2 -8 -4 -24q-2 -4 -4 -5q-2 -2 -5 0t-3 5q0 2 -1 6
q3 15 5 21q1 4 12 47q-2 8 -4 20q-1 5 -2.5 16t-2.5 17q-3 13 -3 39q0 25 2 77q0 44 -1 52t-1 26q1 5 0 37t-1 39q0 6 -1 26t0 31q0 13 -2 39q-2 19 2 53l7 43q3 26 13 45q20 36 56 52q3 2 10 3t9 2q8 2 20 -1q21 -6 44 -17q16 -8 26 -26l1 5q4 11 10 33q0 1 0.5 3t1.5 3
q2 2 4 2t4 -4v-8q-2 -10 -4 -15l-11 -36q11 -33 12 -67v-4q3 -48 2 -58q-1 -4 0 -12t1 -10v-20v-24v-21q0 -30 1 -45q2 -57 -1 -104zM37 411v-61v-32l3 -54q0 -4 0.5 -11.5t0.5 -10.5q-1 -6 0 -12q-2 -5 0 -11q-2 -26 -2 -39q-3 -7 -1 -15q0 -19 2 -24q2 -8 4 -28l1 -4
q0 3 2 9q22 78 28 98q2 12 5 17q3 9 18 58q2 8 8 24v2q2 12 9 33.5t9 32.5q1 5 5 15q5 12 11 36q22 68 24 74q2 8 4 11q4 13 10.5 36t12 42t10.5 36q-5 18 -18 30q-3 4 -9 7l-35 12q-13 6 -25 1q-23 -5 -45 -27q-2 -2 -2 -3q-20 -27 -22 -50q-1 -6 -4.5 -23t-3.5 -27
q-4 -12 -4 -45q0 -3 1.5 -26t-0.5 -27q0 -2 1 -3q1 -8 1.5 -22.5t0.5 -18.5zM217 247q-1 18 0 35q1 14 1 80q0 2 -0.5 5.5t-0.5 4.5q-3 15 -1 45v30.5t1 30.5q0 4 -1 6q-3 14 -1 40q1 5 -1 26q-2 18 -2 26q0 12 -4 36l-7 -22q-6 -17 -17 -54t-17 -56l-17 -59q-4 -11 -10 -33
t-10 -33q-6 -18 -16 -56q-12 -40 -22 -67q-4 -14 -12 -41.5t-11 -38.5q-3 -12 -4 -17q-9 -27 -15 -54l3 -10l9 -20q4 -11 14 -19t32 -18q3 -2 10 -2q22 0 33 3q15 4 28 17t17 18t11 22q8 19 8 38q0 9 1 26.5t1.5 31.5t0.5 26q0 35 -1 53z" />
    <glyph glyph-name="Ugrave" unicode="&#xd9;" horiz-adv-x="269" 
d="M98 780q5 -2 5 -3q29 -40 37 -54v-3l1 -2q0 -1 -0.5 -2.5t-1.5 -2.5q-4 -2 -6 -1q-3 0 -5 2q-2 3 -17 22t-23 30q-1 2 -1 6q2 10 11 8zM31 699q4 0 4 -4v-34v-17.5t-2 -22.5v-6l3 -74q0 -6 2 -20q3 -28 0 -58q-2 -12 -2 -20v-50v-2t1 -2q2 -11 2 -66v-22q-3 -27 -3 -54
q1 -21 -1 -64v-40q0 -29 12 -67q10 -30 43 -54q13 -7 23 -5q5 1 11 -1t10 -2h16q13 -2 41 7q9 4 13 9q5 7 15 19q5 8 9 22q5 21 5 90q-2 40 -1 60q1 27 0 52v2q1 12 1 25.5t-0.5 29.5t-0.5 25q0 8 0.5 24t0.5 24q2 40 1 60q-3 52 -1 88v12q-2 19 0 56q1 9 1.5 18.5t1 21.5
t0.5 18t2 16q0 2 3 2l3 -1q2 -2 2 -4q2 -8 2 -12q0 -51 -3 -68q-2 -19 1 -34q1 -13 0 -26q-3 -26 0 -52q2 -42 2 -64q0 -27 -2 -40q-1 -6 -1 -38q0 -12 2 -36l1 -10q-1 -14 -1 -40t-1 -40q-2 -15 1 -28q1 -4 1 -14q0 -2 -0.5 -6t-0.5 -6q3 -23 -1 -70q0 -19 -5 -41
q-5 -16 -13 -27q-2 -2 -8 -10q-13 -16 -34 -22q-18 -5 -34 -5q-5 0 -15.5 -0.5t-16.5 -0.5q-22 0 -38 11q-22 16 -31 28q-16 24 -20 43q-8 36 -9 41q-2 20 0 28v14v27q1 18 1 54q1 17 1 50.5t1 50.5v18q-1 7 -1.5 21t-0.5 19v18q-1 17 1 52q1 9 1 28q-1 7 -1 21t-1 21
q-1 8 -1.5 23t-0.5 23q-3 21 -1 50q3 24 3 50q0 1 0.5 3t0.5 3q4 4 7 2z" />
    <glyph glyph-name="Uacute" unicode="&#xda;" horiz-adv-x="269" 
d="M163 791q4 0 6 -1q2 0 2 -4t-1 -6q-12 -18 -38 -54q-1 -1 -4 -2l-2 -2q-4 -1 -7.5 2t-3.5 6q0 4 1 6q3 4 18 23.5t24 28.5q4 2 5 3zM31 699q4 0 4 -4v-34v-17.5t-2 -22.5v-6l3 -74q0 -6 2 -20q3 -28 0 -58q-2 -12 -2 -20v-50v-2t1 -2q2 -11 2 -66v-22q-3 -27 -3 -54
q1 -21 -1 -64v-40q0 -29 12 -67q10 -30 43 -54q13 -7 23 -5q5 1 11 -1t10 -2h16q13 -2 41 7q9 4 13 9q5 7 15 19q5 8 9 22q5 21 5 90q-2 40 -1 60q1 27 0 52v2q1 12 1 25.5t-0.5 29.5t-0.5 25q0 8 0.5 24t0.5 24q2 40 1 60q-3 52 -1 88v12q-2 19 0 56q1 9 1.5 18.5t1 21.5
t0.5 18t2 16q0 2 3 2l3 -1q2 -2 2 -4q2 -8 2 -12q0 -51 -3 -68q-2 -19 1 -34q1 -13 0 -26q-3 -26 0 -52q2 -42 2 -64q0 -27 -2 -40q-1 -6 -1 -38q0 -12 2 -36l1 -10q-1 -14 -1 -40t-1 -40q-2 -15 1 -28q1 -4 1 -14q0 -2 -0.5 -6t-0.5 -6q3 -23 -1 -70q0 -19 -5 -41
q-5 -16 -13 -27q-2 -2 -8 -10q-13 -16 -34 -22q-18 -5 -34 -5q-5 0 -15.5 -0.5t-16.5 -0.5q-22 0 -38 11q-22 16 -31 28q-16 24 -20 43q-8 36 -9 41q-2 20 0 28v14v27q1 18 1 54q1 17 1 50.5t1 50.5v18q-1 7 -1.5 21t-0.5 19v18q-1 17 1 52q1 9 1 28q-1 7 -1 21t-1 21
q-1 8 -1.5 23t-0.5 23q-3 21 -1 50q3 24 3 50q0 1 0.5 3t0.5 3q4 4 7 2z" />
    <glyph glyph-name="Ucircumflex" unicode="&#xdb;" horiz-adv-x="269" 
d="M136 783q1 -1 5 -7l15 -33q2 -3 4.5 -9t3.5 -9t-3 -7q-1 -1 -3.5 -0.5t-3.5 1.5t-2.5 5t-2.5 5q-7 22 -15 35q0 1 -2 1l-1 -1q-16 -32 -17 -35q-1 -4 -7 -12q0 -1 -2 -1q-3 0 -3 1v2q-1 2 -1 3l3.5 10.5t4.5 11.5q16 33 18 37q1 3 4 3.5t5 -1.5zM31 699q4 0 4 -4v-34
v-17.5t-2 -22.5v-6l3 -74q0 -6 2 -20q3 -28 0 -58q-2 -12 -2 -20v-50v-2t1 -2q2 -11 2 -66v-22q-3 -27 -3 -54q1 -21 -1 -64v-40q0 -29 12 -67q10 -30 43 -54q13 -7 23 -5q5 1 11 -1t10 -2h16q13 -2 41 7q9 4 13 9q5 7 15 19q5 8 9 22q5 21 5 90q-2 40 -1 60q1 27 0 52v2
q1 12 1 25.5t-0.5 29.5t-0.5 25q0 8 0.5 24t0.5 24q2 40 1 60q-3 52 -1 88v12q-2 19 0 56q1 9 1.5 18.5t1 21.5t0.5 18t2 16q0 2 3 2l3 -1q2 -2 2 -4q2 -8 2 -12q0 -51 -3 -68q-2 -19 1 -34q1 -13 0 -26q-3 -26 0 -52q2 -42 2 -64q0 -27 -2 -40q-1 -6 -1 -38q0 -12 2 -36
l1 -10q-1 -14 -1 -40t-1 -40q-2 -15 1 -28q1 -4 1 -14q0 -2 -0.5 -6t-0.5 -6q3 -23 -1 -70q0 -19 -5 -41q-5 -16 -13 -27q-2 -2 -8 -10q-13 -16 -34 -22q-18 -5 -34 -5q-5 0 -15.5 -0.5t-16.5 -0.5q-22 0 -38 11q-22 16 -31 28q-16 24 -20 43q-8 36 -9 41q-2 20 0 28v14v27
q1 18 1 54q1 17 1 50.5t1 50.5v18q-1 7 -1.5 21t-0.5 19v18q-1 17 1 52q1 9 1 28q-1 7 -1 21t-1 21q-1 8 -1.5 23t-0.5 23q-3 21 -1 50q3 24 3 50q0 1 0.5 3t0.5 3q4 4 7 2z" />
    <glyph glyph-name="Udieresis" unicode="&#xdc;" horiz-adv-x="269" 
d="M182 760q10 0 18 -6q3 -5 2 -9q-3 -8 -12 -11q-10 -3 -17 -1q-8 2 -10 8q-1 2 -1 5q0 16 20 14zM78 759q10 0 18 -6q3 -5 2 -9q-3 -8 -12 -11q-10 -3 -17 -1q-8 2 -10 8q-1 2 -1 5q0 16 20 14zM31 699q4 0 4 -4v-34v-17.5t-2 -22.5v-6l3 -74q0 -6 2 -20q3 -28 0 -58
q-2 -12 -2 -20v-50v-2t1 -2q2 -11 2 -66v-22q-3 -27 -3 -54q1 -21 -1 -64v-40q0 -29 12 -67q10 -30 43 -54q13 -7 23 -5q5 1 11 -1t10 -2h16q13 -2 41 7q9 4 13 9q5 7 15 19q5 8 9 22q5 21 5 90q-2 40 -1 60q1 27 0 52v2q1 12 1 25.5t-0.5 29.5t-0.5 25q0 8 0.5 24t0.5 24
q2 40 1 60q-3 52 -1 88v12q-2 19 0 56q1 9 1.5 18.5t1 21.5t0.5 18t2 16q0 2 3 2l3 -1q2 -2 2 -4q2 -8 2 -12q0 -51 -3 -68q-2 -19 1 -34q1 -13 0 -26q-3 -26 0 -52q2 -42 2 -64q0 -27 -2 -40q-1 -6 -1 -38q0 -12 2 -36l1 -10q-1 -14 -1 -40t-1 -40q-2 -15 1 -28q1 -4 1 -14
q0 -2 -0.5 -6t-0.5 -6q3 -23 -1 -70q0 -19 -5 -41q-5 -16 -13 -27q-2 -2 -8 -10q-13 -16 -34 -22q-18 -5 -34 -5q-5 0 -15.5 -0.5t-16.5 -0.5q-22 0 -38 11q-22 16 -31 28q-16 24 -20 43q-8 36 -9 41q-2 20 0 28v14v27q1 18 1 54q1 17 1 50.5t1 50.5v18q-1 7 -1.5 21
t-0.5 19v18q-1 17 1 52q1 9 1 28q-1 7 -1 21t-1 21q-1 8 -1.5 23t-0.5 23q-3 21 -1 50q3 24 3 50q0 1 0.5 3t0.5 3q4 4 7 2z" />
    <glyph glyph-name="Yacute" unicode="&#xdd;" horiz-adv-x="254" 
d="M159 780q4 0 6 -1q2 0 2 -4t-1 -6q-12 -18 -38 -54q-1 -1 -4 -3l-2 -1q-4 -1 -7.5 2t-3.5 6q0 4 1 6q3 4 18 23.5t24 28.5q4 2 5 3zM27 699q4 0 5 -2q2 -7 7 -20t8.5 -23.5t5.5 -19.5q9 -33 21 -67l6 -21q2 -7 9 -29t10 -34q4 -8 9.5 -24.5t8.5 -23.5l6 -18
q1 -3 2.5 -9.5t2.5 -9.5q2 -6 5 -7q4 4 4 7l9 30q8 28 23 64q8 21 10 35q4 15 5 25l3 10q12 35 25 87l9 28q2 7 7 10h3l3 -3v-3q0 -3 -2 -8t-2 -7q-8 -27 -10 -38q-2 -10 -8 -30l-6 -18t-5 -16q-4 -15 -6 -32q-3 -19 -10 -34q-15 -34 -22 -62l-24 -76l-21 -67q-2 -6 -2 -8
q-4 -21 -12 -43q-1 -1 -6 -17q-2 -8 -6.5 -25t-6.5 -26q-5 -23 -21 -67q-11 -30 -16 -50q-1 -3 -5.5 -20.5t-6.5 -26.5q-1 -9 -10 -10q-2 -1 -4 1.5t-2 4.5t1 4q3 6 10 35q7 31 20 65q16 44 21 67q3 14 11 42q9 33 13 43l4 13q7 28 25 84q1 2 -2 8v2q0 4 -1 7t-2.5 7t-2.5 6
q-1 5 -4 15t-4 15q-8 18 -11 27t-8.5 27t-8.5 27l-30 97q-8 28 -9 31q-3 12 -10.5 32.5t-8.5 25.5q0 1 -0.5 3t-0.5 3v3q3 3 5 4z" />
    <glyph glyph-name="Thorn" unicode="&#xde;" horiz-adv-x="262" 
d="M29 701l2 -4q1 -1 1 -4q-1 -6 -1 -57v-79q0 -7 -0.5 -20t-0.5 -19q0 -8 8 -4l14 8q3 2 11 4q5 0 16 2t17 2q11 0 16 1q13 2 37 0q18 -3 33 -9q34 -14 50 -49q10 -21 10 -48q0 -3 -0.5 -10t-0.5 -11q-1 -17 -1 -51q0 -5 0.5 -15.5t0.5 -15.5q1 -6 -2 -49q-2 -16 -17 -34
q-7 -7 -11 -10q-5 -5 -17 -11q-13 -6 -53 -15q-4 -1 -12 -1q-47 4 -69 12q-12 4 -24 3q-6 0 -6 -6v-37v-43.5v-36.5v-93q0 -3 0.5 -10.5t0.5 -11.5t-5 -6q-1 -1 -3 0t-2 2q0 3 -0.5 8.5t-0.5 8.5v114v78v22.5v25.5v22v175q1 71 1 245v25q0 2 2 2q4 2 6 0zM99 519
q-3 -1 -10.5 -1t-11.5 -1q-20 -2 -33 -12q-4 -4 -6 -4q-8 -4 -8 -13q0 -16 -0.5 -47t-0.5 -47v-39v-107q0 -1 0.5 -3.5t0.5 -4.5q0 -5 4 -6q3 -1 8.5 -3.5t8.5 -3.5q38 -10 58 -13q26 -2 35 0q25 5 45 13q9 4 17 11q21 22 22 50v81q0 24 1 35q3 28 -6 57q-5 16 -16 28
q-13 15 -29 22l-18 6q-31 6 -61 2z" />
    <glyph glyph-name="germandbls" unicode="&#xdf;" horiz-adv-x="261" 
d="M141 707q21 2 35 -6q29 -14 41 -35q12 -23 15 -42q1 -8 4 -22.5t4 -21.5q2 -11 1 -16q-2 -57 -5 -73q-1 -1 -1 -5q-6 -36 -40 -50q-13 -6 -30 -9q-2 -2 -1 -3q0 -3 2 -3q2 -1 7 -2.5t8 -2.5q12 -3 23 -14q17 -17 23 -39q11 -39 12 -69v-32q0 -7 0.5 -23t0.5 -24v-49v-8
q-1 -18 -6 -50q-4 -21 -21 -38q-21 -21 -45 -29q-30 -10 -34 -11q-16 -5 -25 -12q-5 -3 -9 3q-2 4 0 6q6 6 11 7q11 3 32 10.5t24 8.5q9 3 18 9q18 15 19 16q10 9 15 23q8 32 8 48q1 37 0 75q-1 7 -1 20.5v20.5q-2 56 -10 90q-3 13 -12 27q-8 13 -27 22q-3 1 -8.5 2.5
t-8.5 2.5q-10 3 -22 11q-2 2 -2 4t2 3q6 4 18 8l26 8q12 3 19 9q18 14 20 29q0 2 2 8q6 56 5 86q0 2 -3 23.5t-6 32.5q-3 16 -12 29q-25 37 -68 33q-18 -2 -32 1q-24 3 -54 -19q-3 -3 -5 -8q-8 -14 -9 -28l-3 -81q0 -12 -0.5 -34.5t-0.5 -33.5v-50v-17h1q-1 -23 -1 -67v-75
q-1 -22 2 -49q1 -5 1 -31q-1 -22 0 -43q1 -8 -2 -46q0 -15 -2 -45q-1 -8 -1.5 -23.5t-0.5 -23.5q0 -1 -0.5 -3.5t-0.5 -4.5l-4 -4q-1 0 -4 3q-4 26 -2 38q1 5 1 16t1 17t1 19t1 20q1 22 0 43v24q2 38 -1 57q-1 7 -1 43v47q0 13 0.5 38t0.5 37q0 7 -0.5 21.5t-0.5 21.5
q0 10 0.5 29.5t0.5 29.5q0 2 0.5 4t0.5 4q-2 7 -1.5 31.5t0.5 31.5q-2 3 0 7q5 18 3 45q0 9 4 25q1 3 14 24q0 1 5 3q3 2 22 13q17 9 36 6q14 -3 27 0q4 0 6 1z" />
    <glyph glyph-name="agrave" unicode="&#xe0;" horiz-adv-x="294" 
d="M105 445q5 -2 5 -3q29 -40 37 -54q0 -1 1 -3v-2q0 -1 -0.5 -2.5t-1.5 -2.5q-4 -2 -6 -1q-3 0 -5 2q-2 3 -17 22t-23 30q-1 2 -1 6q2 10 11 8zM121 348q34 3 67 -6q6 -1 16 -7q21 -14 38 -32q14 -17 19 -41q2 -8 2 -11q3 -17 7 -58q0 -6 -1 -9v-23v-7q-2 -15 -1.5 -21
t2 -21t1.5 -21q3 -12 1 -38q0 -21 1 -25q1 -5 1 -15q0 -5 -5 -8q-2 -2 -6 -1t-5 4q-3 10 -3 20q-2 32 -1 48v2h-2.5t-2.5 -1l-11 -17q-15 -24 -32 -38q-16 -13 -40 -20q-9 -3 -20 -1q-25 1 -52 15q-35 18 -51 53q-21 44 -21 84q0 5 -1 15t-1 15v22q0 23 5 38q3 7 6.5 20
t6.5 19q5 13 27 39q33 25 56 27zM123 335q-39 -6 -62 -38q-10 -15 -14 -28q-1 -4 -3.5 -12t-3.5 -12q-7 -25 -6 -44v-9q0 -2 3 -50q1 -27 20 -69q9 -18 26 -32q14 -12 46 -23q0 -1 2 -1q37 -6 64 15q13 10 20 21q1 2 6 9.5t8 10.5q7 9 13 29l3 18q7 30 7 40l3 15q2 15 1 23
q-2 8 -2 13q1 23 -8 58q-3 16 -15 28q-8 8 -26 22q-14 11 -28 12l-14 3q-15 5 -40 1z" />
    <glyph glyph-name="aacute" unicode="&#xe1;" horiz-adv-x="294" 
d="M175 453q4 0 6 -1q2 0 2 -4t-1 -6q-12 -18 -38 -54q-1 -1 -4 -2l-2 -2q-4 -1 -7.5 2t-3.5 6q0 4 1 6q3 4 18 23.5t24 28.5q4 2 5 3zM121 348q34 3 67 -6q6 -1 16 -7q21 -14 38 -32q14 -17 19 -41q2 -8 2 -11q3 -17 7 -58q0 -6 -1 -9v-23v-7q-2 -15 -1.5 -21t2 -21
t1.5 -21q3 -12 1 -38q0 -21 1 -25q1 -5 1 -15q0 -5 -5 -8q-2 -2 -6 -1t-5 4q-3 10 -3 20q-2 32 -1 48v2h-2.5t-2.5 -1l-11 -17q-15 -24 -32 -38q-16 -13 -40 -20q-9 -3 -20 -1q-25 1 -52 15q-35 18 -51 53q-21 44 -21 84q0 5 -1 15t-1 15v22q0 23 5 38q3 7 6.5 20t6.5 19
q5 13 27 39q33 25 56 27zM123 335q-39 -6 -62 -38q-10 -15 -14 -28q-1 -4 -3.5 -12t-3.5 -12q-7 -25 -6 -44v-9q0 -2 3 -50q1 -27 20 -69q9 -18 26 -32q14 -12 46 -23q0 -1 2 -1q37 -6 64 15q13 10 20 21q1 2 6 9.5t8 10.5q7 9 13 29l3 18q7 30 7 40l3 15q2 15 1 23
q-2 8 -2 13q1 23 -8 58q-3 16 -15 28q-8 8 -26 22q-14 11 -28 12l-14 3q-15 5 -40 1z" />
    <glyph glyph-name="acircumflex" unicode="&#xe2;" horiz-adv-x="294" 
d="M151 454q1 -1 5 -7l15 -33q2 -3 4.5 -9t3.5 -9t-3 -7q-1 -1 -3.5 -0.5t-3.5 1.5l-2.5 5l-2.5 5q-8 23 -15 35q0 1 -2 1l-1 -1q-16 -32 -17 -35q-1 -4 -7 -12q0 -1 -2 -1q-3 0 -3 1l-1 2v3q2 3 4 11t4 11q16 33 18 37q1 3 4 3.5t5 -1.5zM121 348q34 3 67 -6q6 -1 16 -7
q21 -14 38 -32q14 -17 19 -41q2 -8 2 -11q3 -17 7 -58q0 -6 -1 -9v-23v-7q-2 -15 -1.5 -21t2 -21t1.5 -21q3 -12 1 -38q0 -21 1 -25q1 -5 1 -15q0 -5 -5 -8q-2 -2 -6 -1t-5 4q-3 10 -3 20q-2 32 -1 48v2h-2.5t-2.5 -1l-11 -17q-15 -24 -32 -38q-16 -13 -40 -20q-9 -3 -20 -1
q-25 1 -52 15q-35 18 -51 53q-21 44 -21 84q0 5 -1 15t-1 15v22q0 23 5 38q3 7 6.5 20t6.5 19q5 13 27 39q33 25 56 27zM123 335q-39 -6 -62 -38q-10 -15 -14 -28q-1 -4 -3.5 -12t-3.5 -12q-7 -25 -6 -44v-9q0 -2 3 -50q1 -27 20 -69q9 -18 26 -32q14 -12 46 -23q0 -1 2 -1
q37 -6 64 15q13 10 20 21q1 2 6 9.5t8 10.5q7 9 13 29l3 18q7 30 7 40l3 15q2 15 1 23q-2 8 -2 13q1 23 -8 58q-3 16 -15 28q-8 8 -26 22q-14 11 -28 12l-14 3q-15 5 -40 1z" />
    <glyph glyph-name="atilde" unicode="&#xe3;" horiz-adv-x="294" 
d="M115 427q1 -1 3 -1q3 -1 4 -1q5 -1 20 -9q8 -5 14 -6q13 -3 23 4q8 6 13 8q2 2 4 -1q1 0 3 -5l-1 -3q-11 -10 -23 -14q-8 -2 -15 -1q-12 2 -21 7l-16 8q-7 5 -18 1q-5 -1 -13 -7q-2 -3 -7 -4q0 1 -3 1l-1 4q4 10 16 15q7 4 18 4zM121 348q34 3 67 -6q6 -1 16 -7
q21 -14 38 -32q14 -17 19 -41q2 -8 2 -11q3 -17 7 -58q0 -6 -1 -9v-23v-7q-2 -15 -1.5 -21t2 -21t1.5 -21q3 -12 1 -38q0 -21 1 -25q1 -5 1 -15q0 -5 -5 -8q-2 -2 -6 -1t-5 4q-3 10 -3 20q-2 32 -1 48v2h-2.5t-2.5 -1l-11 -17q-15 -24 -32 -38q-16 -13 -40 -20q-9 -3 -20 -1
q-25 1 -52 15q-35 18 -51 53q-21 44 -21 84q0 5 -1 15t-1 15v22q0 23 5 38q3 7 6.5 20t6.5 19q5 13 27 39q33 25 56 27zM123 335q-39 -6 -62 -38q-10 -15 -14 -28q-1 -4 -3.5 -12t-3.5 -12q-7 -25 -6 -44v-9q0 -2 3 -50q1 -27 20 -69q9 -18 26 -32q14 -12 46 -23q0 -1 2 -1
q37 -6 64 15q13 10 20 21q1 2 6 9.5t8 10.5q7 9 13 29l3 18q7 30 7 40l3 15q2 15 1 23q-2 8 -2 13q1 23 -8 58q-3 16 -15 28q-8 8 -26 22q-14 11 -28 12l-14 3q-15 5 -40 1z" />
    <glyph glyph-name="adieresis" unicode="&#xe4;" horiz-adv-x="294" 
d="M187 421q11 0 18 -6q3 -5 2 -9q-3 -8 -12 -11q-10 -3 -17 -1q-8 2 -10 8q-1 2 -1 5q0 16 20 14zM83 420q11 0 18 -6q3 -5 2 -9q-3 -8 -12 -11q-10 -3 -17 -1q-8 2 -10 8q-1 2 -1 5q0 16 20 14zM121 348q34 3 67 -6q6 -1 16 -7q21 -14 38 -32q14 -17 19 -41q2 -8 2 -11
q3 -17 7 -58q0 -6 -1 -9v-23v-7q-2 -15 -1.5 -21t2 -21t1.5 -21q3 -12 1 -38q0 -21 1 -25q1 -5 1 -15q0 -5 -5 -8q-2 -2 -6 -1t-5 4q-3 10 -3 20q-2 32 -1 48v2h-2.5t-2.5 -1l-11 -17q-15 -24 -32 -38q-16 -13 -40 -20q-9 -3 -20 -1q-25 1 -52 15q-35 18 -51 53
q-21 44 -21 84q0 5 -1 15t-1 15v22q0 23 5 38q3 7 6.5 20t6.5 19q5 13 27 39q33 25 56 27zM123 335q-39 -6 -62 -38q-10 -15 -14 -28q-1 -4 -3.5 -12t-3.5 -12q-7 -25 -6 -44v-9q0 -2 3 -50q1 -27 20 -69q9 -18 26 -32q14 -12 46 -23q0 -1 2 -1q37 -6 64 15q13 10 20 21
q1 2 6 9.5t8 10.5q7 9 13 29l3 18q7 30 7 40l3 15q2 15 1 23q-2 8 -2 13q1 23 -8 58q-3 16 -15 28q-8 8 -26 22q-14 11 -28 12l-14 3q-15 5 -40 1z" />
    <glyph glyph-name="aring" unicode="&#xe5;" horiz-adv-x="294" 
d="M121 446q29 8 49 -12q2 -1 7 -9q7 -13 -1 -24q-10 -12 -22 -16q-14 -5 -31 3q-2 1 -4 3t-3 2q-12 9 -11 22q0 12 4 20q4 10 12 11zM139 434q-3 0 -5 -1l-4 -2l-4 -2q-7 -3 -7 -9q0 -17 12 -21h2q13 -5 22 3q18 11 3 25q-8 7 -19 7zM121 348q34 3 67 -6q6 -1 16 -7
q21 -14 38 -32q14 -17 19 -41q2 -8 2 -11q3 -17 7 -58q0 -6 -1 -9v-23v-7q-2 -15 -1.5 -21t2 -21t1.5 -21q3 -12 1 -38q0 -21 1 -25q1 -5 1 -15q0 -5 -5 -8q-2 -2 -6 -1t-5 4q-3 10 -3 20q-2 32 -1 48v2h-2.5t-2.5 -1l-11 -17q-15 -24 -32 -38q-16 -13 -40 -20q-9 -3 -20 -1
q-25 1 -52 15q-35 18 -51 53q-21 44 -21 84q0 5 -1 15t-1 15v22q0 23 5 38q3 7 6.5 20t6.5 19q5 13 27 39q33 25 56 27zM123 335q-39 -6 -62 -38q-10 -15 -14 -28q-1 -4 -3.5 -12t-3.5 -12q-7 -25 -6 -44v-9q0 -2 3 -50q1 -27 20 -69q9 -18 26 -32q14 -12 46 -23q0 -1 2 -1
q37 -6 64 15q13 10 20 21q1 2 6 9.5t8 10.5q7 9 13 29l3 18q7 30 7 40l3 15q2 15 1 23q-2 8 -2 13q1 23 -8 58q-3 16 -15 28q-8 8 -26 22q-14 11 -28 12l-14 3q-15 5 -40 1z" />
    <glyph glyph-name="ae" unicode="&#xe6;" horiz-adv-x="578" 
d="M121 348q34 3 67 -6q6 -1 16 -7q21 -14 38 -32q14 -17 19 -41q2 -8 2 -11q3 -17 7 -58q0 -6 -1 -9v-23v-7q-2 -15 -1.5 -21t2 -21t1.5 -21q3 -12 1 -38q0 -21 1 -25q1 -5 1 -15q0 -5 -5 -8q-2 -2 -6 -1t-5 4q-3 10 -3 20q-2 32 -1 48v2h-2.5t-2.5 -1l-11 -17
q-15 -24 -32 -38q-16 -13 -40 -20q-9 -3 -20 -1q-25 1 -52 15q-35 18 -51 53q-21 44 -21 84q0 5 -1 15t-1 15v22q0 23 5 38q3 7 6.5 20t6.5 19q5 13 27 39q33 25 56 27zM437 341q25 7 51 -9q19 -13 27 -25q10 -14 23 -36q8 -13 11 -33q1 -16 6 -33q3 -6 3 -13
q0 -17 -2.5 -20t-20.5 -3h-73h-24h-30q-46 0 -69 1h-2q-9 0 -9 -10q0 -17 1 -26l6 -44q1 -5 8 -20q19 -29 49 -41q44 -16 82 -15h37q26 0 34 3q8 2 10 -6t-7 -10q-4 0 -11 -0.5t-10 -0.5h-33q-5 0 -8 -1q-4 -1 -54 2q-14 2 -19 4q-37 15 -45 20q-12 5 -17 13q-12 14 -18 22
q-12 18 -15 42q-5 49 -3 83q2 15 5 19q2 3 4 9t2 7q1 5 15 43q1 3 5 9q12 22 43 51q3 3 11 7q24 8 37 11zM123 335q-39 -6 -62 -38q-10 -15 -14 -28q-1 -4 -3.5 -12t-3.5 -12q-7 -25 -6 -44v-9q0 -2 3 -50q1 -27 20 -69q9 -18 26 -32q14 -12 46 -23q0 -1 2 -1q37 -6 64 15
q13 10 20 21q1 2 6 9.5t8 10.5q7 9 13 29l3 18q7 30 7 40l3 15q2 15 1 23q-2 8 -2 13q1 23 -8 58q-3 16 -15 28q-8 8 -26 22q-14 11 -28 12l-14 3q-15 5 -40 1zM444 328q-24 -4 -33 -9q-7 -2 -11 -6q-38 -31 -55 -78q-2 -5 -6.5 -19t-7.5 -22v-4q-2 -4 3 -4q2 0 6.5 -1
t8 -1.5t6.5 -0.5q27 2 47 -1h13q33 2 43 0h65q5 0 15 2q7 2 6 9q0 3 -2 11q0 2 -2.5 12.5t-3.5 16.5q-3 20 -14 39q-2 3 -6 10t-6 10q-10 15 -31 29q-20 11 -35 7z" />
    <glyph glyph-name="ccedilla" unicode="&#xe7;" horiz-adv-x="289" 
d="M267 58q3 -3 2 -6q-18 -24 -28 -33q-20 -17 -52 -19q-7 -1 -23 -1h-3q1 -1 1 -2q1 -1 0.5 -4.5t-0.5 -5.5v-1l1 -2q1 -1 4 -1q14 -1 24 -15q11 -17 -3 -29q-7 -7 -15 -7q-7 -1 -22 -1q-3 0 -8 -0.5t-7 -0.5q-1 0 -3 1t-3 1q-1 1 -2 4t0 4l4 4q6 2 12 0q4 -1 29 2q8 2 8 9
q2 7 -5 10q-9 7 -18 3q-3 -1 -10 -1q-2 -1 -4.5 2t-1.5 5q6 15 13 25l2 1q-2 0 -14 1t-19 2q-23 6 -45 20l-3 3l-2 1q-3 5 -13 17t-15 20q-10 21 -19 50q0 1 -0.5 4t-1.5 4q-1 15 -5 50q0 7 -2 17v26l3 21q0 1 0.5 4t1.5 4q5 11 15 29q6 12 11 17t6 8q3 6 7.5 11t13.5 11.5
t10 7.5q7 6 24 10q5 2 10.5 3.5t12 3t10.5 2.5q14 3 33 -1q56 -12 86 -57q2 -2 2 -8q0 -3 -2 -3q-2 -2 -4 0q-4 2 -5 4q-15 22 -54 43q-16 7 -35 9q-19 0 -26 -3q-1 0 -17 -3q-22 -3 -43 -24t-38 -57q-3 -9 -3 -10q-6 -30 -4 -45l6 -65q2 -14 15 -47q8 -18 36 -46
q5 -5 13 -8q21 -10 43 -11q11 -1 33 -1q8 -1 26 3q22 6 37 24q6 10 9 13l9 6q3 2 5 -2z" />
    <glyph glyph-name="egrave" unicode="&#xe8;" horiz-adv-x="284" 
d="M122 456q5 -2 5 -3q29 -40 37 -54v-3l1 -2q0 -1 -0.5 -2.5t-1.5 -2.5q-4 -2 -6 -1q-3 0 -5 2q-2 3 -17 22t-23 30q-1 2 -1 6q2 10 11 8zM143 341q25 7 51 -9q19 -13 27 -25q10 -14 23 -36q8 -13 11 -33q1 -16 6 -33q3 -6 3 -13q0 -17 -2.5 -20t-20.5 -3h-73h-24h-30
q-46 0 -69 1h-2q-9 0 -9 -10q0 -17 1 -26l6 -44q1 -5 8 -20q19 -29 49 -41q44 -16 82 -15h37q26 0 34 3q8 2 10 -6t-7 -10q-4 0 -11 -0.5t-10 -0.5h-33q-5 0 -8 -1q-4 -1 -54 2q-14 2 -19 4q-37 15 -45 20q-12 5 -17 13q-12 14 -18 22q-12 18 -15 42q-5 49 -3 83q2 15 5 19
q2 3 4 9t2 7q1 5 15 43q1 3 5 9q12 22 43 51q3 3 11 7q24 8 37 11zM150 328q-24 -4 -33 -9q-7 -2 -11 -6q-38 -31 -55 -78q-2 -5 -6.5 -19t-7.5 -22v-4q-2 -4 3 -4q2 0 6.5 -1t8 -1.5t6.5 -0.5q27 2 47 -1h13q33 2 43 0h65q5 0 15 2q7 2 6 9q0 3 -2 11q0 2 -2.5 12.5
t-3.5 16.5q-3 20 -14 39q-2 3 -6 10t-6 10q-10 15 -31 29q-20 11 -35 7z" />
    <glyph glyph-name="eacute" unicode="&#xe9;" horiz-adv-x="284" 
d="M183 457q4 0 6 -1q2 0 2 -4t-1 -6q-12 -18 -38 -54q-1 -1 -4 -2l-2 -2q-4 -1 -7.5 2t-3.5 6q0 4 1 6q3 4 18 23.5t24 28.5q4 2 5 3zM143 341q25 7 51 -9q19 -13 27 -25q10 -14 23 -36q8 -13 11 -33q1 -16 6 -33q3 -6 3 -13q0 -17 -2.5 -20t-20.5 -3h-73h-24h-30
q-46 0 -69 1h-2q-9 0 -9 -10q0 -17 1 -26l6 -44q1 -5 8 -20q19 -29 49 -41q44 -16 82 -15h37q26 0 34 3q8 2 10 -6t-7 -10q-4 0 -11 -0.5t-10 -0.5h-33q-5 0 -8 -1q-4 -1 -54 2q-14 2 -19 4q-37 15 -45 20q-12 5 -17 13q-12 14 -18 22q-12 18 -15 42q-5 49 -3 83q2 15 5 19
q2 3 4 9t2 7q1 5 15 43q1 3 5 9q12 22 43 51q3 3 11 7q24 8 37 11zM150 328q-24 -4 -33 -9q-7 -2 -11 -6q-38 -31 -55 -78q-2 -5 -6.5 -19t-7.5 -22v-4q-2 -4 3 -4q2 0 6.5 -1t8 -1.5t6.5 -0.5q27 2 47 -1h13q33 2 43 0h65q5 0 15 2q7 2 6 9q0 3 -2 11q0 2 -2.5 12.5
t-3.5 16.5q-3 20 -14 39q-2 3 -6 10t-6 10q-10 15 -31 29q-20 11 -35 7z" />
    <glyph glyph-name="ecircumflex" unicode="&#xea;" horiz-adv-x="284" 
d="M149 447q1 -1 5 -7q3 -4 5.5 -9.5t5 -12.5t4.5 -11q1 -3 4 -9t4 -9t-3 -7q-1 -1 -3.5 -0.5t-3.5 1.5t-2.5 5t-2.5 5q-8 23 -15 35q0 1 -2 1l-1 -1q-16 -32 -17 -35q-1 -4 -7 -12q0 -1 -2 -1q-3 0 -3 1l-1 2v3q2 4 4 11.5t4 10.5q16 33 18 37q1 3 4 3.5t5 -1.5zM143 341
q25 7 51 -9q19 -13 27 -25q10 -14 23 -36q8 -13 11 -33q1 -16 6 -33q3 -6 3 -13q0 -17 -2.5 -20t-20.5 -3h-73h-24h-30q-46 0 -69 1h-2q-9 0 -9 -10q0 -17 1 -26l6 -44q1 -5 8 -20q19 -29 49 -41q44 -16 82 -15h37q26 0 34 3q8 2 10 -6t-7 -10q-4 0 -11 -0.5t-10 -0.5h-33
q-5 0 -8 -1q-4 -1 -54 2q-14 2 -19 4q-37 15 -45 20q-12 5 -17 13q-12 14 -18 22q-12 18 -15 42q-5 49 -3 83q2 15 5 19q2 3 4 9t2 7q1 5 15 43q1 3 5 9q12 22 43 51q3 3 11 7q24 8 37 11zM150 328q-24 -4 -33 -9q-7 -2 -11 -6q-38 -31 -55 -78q-2 -5 -6.5 -19t-7.5 -22v-4
q-2 -4 3 -4q2 0 6.5 -1t8 -1.5t6.5 -0.5q27 2 47 -1h13q33 2 43 0h65q5 0 15 2q7 2 6 9q0 3 -2 11q0 2 -2.5 12.5t-3.5 16.5q-3 20 -14 39q-2 3 -6 10t-6 10q-10 15 -31 29q-20 11 -35 7z" />
    <glyph glyph-name="edieresis" unicode="&#xeb;" horiz-adv-x="284" 
d="M198 418q10 0 18 -6q3 -5 2 -9q-3 -8 -12 -11q-10 -3 -17 -1q-8 2 -10 8q-1 2 -1 5q0 16 20 14zM94 417q10 0 18 -6q3 -5 2 -9q-3 -8 -12 -11q-10 -3 -17 -1q-8 2 -10 8q-1 2 -1 5q0 16 20 14zM143 341q25 7 51 -9q19 -13 27 -25q10 -14 23 -36q8 -13 11 -33q1 -16 6 -33
q3 -6 3 -13q0 -17 -2.5 -20t-20.5 -3h-73h-24h-30q-46 0 -69 1h-2q-9 0 -9 -10q0 -17 1 -26l6 -44q1 -5 8 -20q19 -29 49 -41q44 -16 82 -15h37q26 0 34 3q8 2 10 -6t-7 -10q-4 0 -11 -0.5t-10 -0.5h-33q-5 0 -8 -1q-4 -1 -54 2q-14 2 -19 4q-37 15 -45 20q-12 5 -17 13
q-12 14 -18 22q-12 18 -15 42q-5 49 -3 83q2 15 5 19q2 3 4 9t2 7q1 5 15 43q1 3 5 9q12 22 43 51q3 3 11 7q24 8 37 11zM150 328q-24 -4 -33 -9q-7 -2 -11 -6q-38 -31 -55 -78q-2 -5 -6.5 -19t-7.5 -22v-4q-2 -4 3 -4q2 0 6.5 -1t8 -1.5t6.5 -0.5q27 2 47 -1h13q33 2 43 0
h65q5 0 15 2q7 2 6 9q0 3 -2 11q0 2 -2.5 12.5t-3.5 16.5q-3 20 -14 39q-2 3 -6 10t-6 10q-10 15 -31 29q-20 11 -35 7z" />
    <glyph glyph-name="igrave" unicode="&#xec;" horiz-adv-x="108" 
d="M41 741q5 -2 5 -3q29 -40 37 -54q0 -1 1 -3v-2q0 -1 -0.5 -2.5t-1.5 -2.5q-4 -2 -6 -1q-3 0 -5 2q-2 3 -17 22t-23 30q-1 2 -1 6q2 10 11 8zM80 634h1q1 0 1 -1q1 0 2 -2v-7q0 -19 -4 -57q-2 -27 1 -66q1 -23 -1 -69v-15q1 -23 1 -49.5t-0.5 -58.5t-0.5 -49q0 -69 2 -104
q2 -48 2 -72v-29q2 -32 4 -37q1 -5 -1 -11q-2 -8 -9 -6q-5 2 -5 6q-1 2 -1 5q0 5 -2.5 29t-1.5 37q1 15 -1 66q-2 86 -1 130v40q-1 11 0 32t1 27v91q0 8 -0.5 24t-0.5 24q-2 50 3 82q2 9 2 29v9q0 1 1 1l1 1h2h5z" />
    <glyph glyph-name="iacute" unicode="&#xed;" horiz-adv-x="108" 
d="M80 739q4 0 6 -1q2 0 2 -4t-1 -6q-12 -18 -38 -54q-1 -1 -3 -2l-3 -2q-4 -1 -7.5 2t-3.5 6q0 4 1 6q3 4 18 23.5t24 28.5q4 2 5 3zM45 634h1q1 0 1 -1q1 0 2 -2v-7q0 -19 -4 -57q-3 -27 1 -66q1 -23 -1 -69v-15v-157q0 -69 2 -104q2 -48 2 -72v-29q3 -33 4 -37
q1 -5 -1 -11q-2 -8 -9 -6q-5 2 -5 6q-1 2 -1 5q0 5 -2.5 29t-1.5 37q1 15 -1 66q-2 86 -1 130v40q-1 11 0 32t1 27v91q0 8 -0.5 24t-0.5 24q-2 50 3 82q2 9 2 29v9q0 1 1 1l1 1h2h5z" />
    <glyph glyph-name="icircumflex" unicode="&#xee;" horiz-adv-x="113" 
d="M65 734q1 -1 5 -7q3 -4 5.5 -9.5t5 -12.5t4.5 -11q1 -3 4 -9t4 -9t-3 -7q-1 -1 -3.5 -0.5t-3.5 1.5t-2.5 4.5t-2.5 5.5q-8 23 -15 35q0 1 -2 1l-1 -1q-16 -32 -17 -35q-1 -4 -7 -12q0 -1 -2 -1q-3 0 -3 1l-1 2v3q2 3 4.5 10.5t3.5 11.5q16 33 18 37q1 3 4 3.5t5 -1.5z
M65 634h1q1 0 1 -1q1 0 2 -2v-7q0 -19 -4 -57q-3 -27 1 -66q1 -23 -1 -69v-15q1 -23 1 -49.5t-0.5 -58.5t-0.5 -49q0 -69 2 -104q2 -48 2 -72v-29q3 -32 4 -37t-1 -11q-2 -8 -9 -6q-5 2 -5 6q-1 2 -1 5q0 5 -2.5 29t-1.5 37q1 15 -1 66q-2 86 -1 130v40q-1 11 0 32t1 27v91
q0 8 -0.5 24t-0.5 24q-2 50 3 82q2 9 2 29v9q0 1 1 1l1 1h2h5z" />
    <glyph glyph-name="idieresis" unicode="&#xef;" horiz-adv-x="194" 
d="M154 718q10 0 18 -6q3 -5 2 -9q-3 -8 -12 -11q-10 -3 -17 -1q-8 2 -10 8q-1 2 -1 5q0 16 20 14zM50 717q10 0 18 -6q3 -5 2 -9q-3 -8 -12 -11q-10 -3 -17 -1q-8 2 -10 8q-1 2 -1 5q0 16 20 14zM98 634h1q1 0 1 -1q1 0 2 -2v-7q0 -19 -4 -57q-2 -27 1 -66q1 -23 -1 -69
v-15q1 -23 1 -49.5t-0.5 -58.5t-0.5 -49q0 -69 2 -104q2 -48 2 -72v-29q2 -32 4 -37q1 -5 -1 -11q-2 -8 -9 -6q-5 2 -5 6q-1 2 -1 5q0 5 -2.5 29t-1.5 37q1 15 -1 66q-2 86 -1 130v40q-1 11 0 32t1 27v91q0 8 -0.5 24t-0.5 24q-2 50 3 82q2 9 2 29v9q0 1 1 1l1 1h2h5z" />
    <glyph glyph-name="eth" unicode="&#xf0;" horiz-adv-x="350" 
d="M126 698q5 0 8 -1q29 -15 55 -43q4 -6 7 -9q8 -10 9.5 -12t6.5 -5.5t5.5 -3t9 0t14.5 -0.5h29q12 0 10 -14q-2 -5 -5 -5h-25q-5 0 -13 -2q-2 0 -2 -4q9 -13 11 -16q14 -14 34 -48q23 -39 28 -53q3 -6 3 -7q18 -70 19 -106v-14.5v-17v-14.5q0 -43 -2 -129l-3 -71
q-1 -24 -16 -59q-9 -20 -33 -35q-52 -31 -97 -30q-47 3 -56 4q-14 1 -30 10q-12 7 -34 23q-25 22 -28 53q-8 56 -9 84q-1 12 -1.5 34.5t-0.5 29.5q0 40 1 60q7 56 11 72q4 19 22 48l15 20q13 16 27 21l2 1q41 27 107 10q26 -5 67 -27q6 -3 15 -10t12 -9h2l2 2v8
q-10 46 -28 75l-14 24q-11 21 -29 42q-14 16 -21 25q-5 7 -13 7h-14q-9 0 -27 -0.5t-27 -0.5q-3 0 -5 1q-6 0 -6 7q0 5 4 7q12 4 29 4q4 0 13 0.5t14 0.5q1 0 4 3q0 4 -1 5q-19 24 -48 47q-4 3 -12 11q-2 2 0 4q2 3 4 3zM152 456q-30 0 -56 -17q-8 -5 -14 -12
q-32 -38 -39 -85q-7 -49 -6 -83q0 -59 1 -89q2 -25 10 -80q1 -20 16 -36q15 -15 32 -25q10 -8 27 -11q22 -4 78 -2q8 2 13 4q26 8 38 14q29 11 42 37q15 34 14 59q-1 12 0 22q5 78 5 94v119q0 2 -0.5 6.5t-0.5 6.5q0 6 -4 10l-30 27q-17 14 -62 32q-27 9 -64 9z" />
    <glyph glyph-name="ntilde" unicode="&#xf1;" horiz-adv-x="288" 
d="M120 444q1 -1 3 -1q3 -1 4 -1q5 -1 20 -9q8 -5 14 -6q13 -3 23 4q8 6 13 8q1 1 4 -1q1 0 3 -5l-1 -3q-11 -10 -23 -14q-8 -2 -15 -1q-12 2 -21 7l-16 8q-7 5 -18 1q-5 -1 -13 -7q-3 -2 -7 -4q0 1 -3 1l-1 4q4 10 16 15q7 4 18 4zM164 350q35 0 68 -28q23 -21 30 -57
q4 -17 4 -38q0 -25 2 -77v-100v-39q0 -2 -3 -8q-1 -3 -6 -3q-3 0 -5 3q-2 8 -2 13q-1 15 -1 44v36q1 39 -1 117v24q-2 25 -10 45q-12 25 -34 40q-20 12 -49 12l-22 -3q-9 -1 -23 -8q-3 -1 -52 -36q-6 -5 -12 -13q-3 -5 -8 -10q-5 -7 -5 -21v-5q2 -32 -1 -58q-2 -18 0 -37
q3 -27 3 -53q-2 -41 5 -73q1 -5 -4 -10l-1 -1h-1q-7 -5 -9 3l-3 19q0 17 -2 25q-1 2 -1 8q1 17 -1 78q0 35 1 53q2 30 0 62q-1 14 0 39t1 34q0 2 2 6l3 3q5 0 6 -2q0 -1 1.5 -4t1.5 -4q-2 -18 -2 -27q-1 -10 5 -18q-1 1 -2 1q1 0 1 -0.5t1 -0.5q5 11 17 19q16 14 26 22
q5 4 16 10t16 9q1 0 2 1q32 8 48 8z" />
    <glyph glyph-name="ograve" unicode="&#xf2;" horiz-adv-x="275" 
d="M90 461q5 -2 5 -3q29 -40 37 -54v-3l1 -2q0 -1 -0.5 -2.5t-1.5 -2.5q-4 -2 -6 -1q-3 0 -5 2q-2 3 -17 22t-23 30q-1 2 -1 6q2 10 11 8zM101 343q60 8 98 -30q9 -9 13 -14q35 -39 41 -94q3 -37 2 -67q0 -32 -11 -57l-9 -22q-4 -10 -14 -22q-4 -4 -33 -28q-1 -1 -3 -1
t-3 -1q-30 -12 -55 -2q-20 6 -29 10q-6 1 -12 6q-36 27 -52 54q-12 19 -13 41q0 24 -1 37h1v34q2 32 7 47q0 9 3 18t8 19.5t7 15.5q14 24 23 34q4 6 20 17q3 3 12 5zM111 330q-12 1 -24 -9q-13 -14 -19 -24q-8 -12 -20 -38q-11 -29 -13 -61q-2 -20 0 -78q0 -28 22 -53
q19 -19 24 -23q16 -14 26 -18q18 -6 27 -8q33 -7 54 10l9 6q15 11 23 28q12 26 14 32q7 16 6 34q-2 19 1 37q0 11 -2 37q-3 51 -39 90l-9 9q-22 23 -52 28q-4 1 -28 1z" />
    <glyph glyph-name="oacute" unicode="&#xf3;" horiz-adv-x="275" 
d="M159 459q4 0 6 -1q2 0 2 -4t-1 -6q-12 -18 -38 -54q-1 -1 -4 -2l-2 -2q-4 -1 -7.5 2t-3.5 6q0 4 1 6q3 4 18 23.5t24 28.5q4 2 5 3zM101 343q60 8 98 -30q9 -9 13 -14q35 -39 41 -94q3 -37 2 -67q0 -32 -11 -57l-9 -22q-4 -10 -14 -22q-4 -4 -33 -28q-1 -1 -3 -1t-3 -1
q-30 -12 -55 -2q-20 6 -29 10q-6 1 -12 6q-36 27 -52 54q-12 19 -13 41q0 24 -1 37h1v34q2 32 7 47q0 9 3 18t8 19.5t7 15.5q14 24 23 34q4 6 20 17q3 3 12 5zM111 330q-12 1 -24 -9q-13 -14 -19 -24q-8 -12 -20 -38q-11 -29 -13 -61q-2 -20 0 -78q0 -28 22 -53
q19 -19 24 -23q16 -14 26 -18q18 -6 27 -8q33 -7 54 10l9 6q15 11 23 28q12 26 14 32q7 16 6 34q-2 19 1 37q0 11 -2 37q-3 51 -39 90l-9 9q-22 23 -52 28q-4 1 -28 1z" />
    <glyph glyph-name="ocircumflex" unicode="&#xf4;" horiz-adv-x="275" 
d="M130 455q1 -1 5 -7q3 -4 5.5 -9.5t5 -12.5t4.5 -11q1 -3 3.5 -9t4.5 -9q1 -3 -3 -7q-1 -1 -3.5 -0.5t-3.5 1.5t-2.5 5t-2.5 5q-7 23 -15 35q0 1 -2 1l-1 -1q-16 -32 -17 -35q-1 -4 -7 -12q0 -1 -2 -1q-3 0 -3 1v2q-1 2 -1 3q1 4 4 11t4 11q16 33 18 37q1 3 4 3.5t5 -1.5z
M101 343q60 8 98 -30q9 -9 13 -14q35 -39 41 -94q3 -37 2 -67q0 -32 -11 -57l-9 -22q-4 -10 -14 -22q-4 -4 -33 -28q-1 -1 -3 -1t-3 -1q-30 -12 -55 -2q-20 6 -29 10q-6 1 -12 6q-36 27 -52 54q-12 19 -13 41q0 24 -1 37h1v34q2 32 7 47q0 9 3 18t8 19.5t7 15.5q14 24 23 34
q4 6 20 17q3 3 12 5zM111 330q-12 1 -24 -9q-13 -14 -19 -24q-8 -12 -20 -38q-11 -29 -13 -61q-2 -20 0 -78q0 -28 22 -53q19 -19 24 -23q16 -14 26 -18q18 -6 27 -8q33 -7 54 10l9 6q15 11 23 28q12 26 14 32q7 16 6 34q-2 19 1 37q0 11 -2 37q-3 51 -39 90l-9 9
q-22 23 -52 28q-4 1 -28 1z" />
    <glyph glyph-name="otilde" unicode="&#xf5;" horiz-adv-x="275" 
d="M106 425q1 -1 3 -1q3 -1 4 -1q5 -1 20 -9q8 -5 14 -6q13 -3 23 4q8 6 13 8q1 2 4 -1q1 0 3 -5l-1 -3q-11 -10 -23 -14q-8 -2 -15 -1q-12 2 -21 7l-4 2t-3.5 2t-4 2t-4.5 2q-7 5 -18 1q-5 -1 -13 -7q-3 -3 -7 -4q0 1 -3 1l-1 4q4 10 16 15q7 4 18 4zM101 343q60 8 98 -30
q9 -9 13 -14q35 -39 41 -94q3 -37 2 -67q0 -32 -11 -57l-9 -22q-4 -10 -14 -22q-4 -4 -33 -28q-1 -1 -3 -1t-3 -1q-30 -12 -55 -2q-20 6 -29 10q-6 1 -12 6q-36 27 -52 54q-12 19 -13 41q0 24 -1 37h1v34q2 32 7 47q0 9 3 18t8 19.5t7 15.5q14 24 23 34q4 6 20 17q3 3 12 5z
M111 330q-12 1 -24 -9q-13 -14 -19 -24q-8 -12 -20 -38q-11 -29 -13 -61q-2 -20 0 -78q0 -28 22 -53q19 -19 24 -23q16 -14 26 -18q18 -6 27 -8q33 -7 54 10l9 6q15 11 23 28q12 26 14 32q7 16 6 34q-2 19 1 37q0 11 -2 37q-3 51 -39 90l-9 9q-22 23 -52 28q-4 1 -28 1z" />
    <glyph glyph-name="odieresis" unicode="&#xf6;" horiz-adv-x="275" 
d="M179 446q11 0 18 -6q3 -5 2 -9q-3 -8 -12 -11q-10 -3 -17 -1q-8 2 -10 8q-1 2 -1 5q0 16 20 14zM75 445q11 0 18 -6q3 -5 2 -9q-3 -8 -12 -11q-10 -3 -17 -1q-8 2 -10 8q-1 2 -1 5q0 16 20 14zM101 343q60 8 98 -30q9 -9 13 -14q35 -39 41 -94q3 -37 2 -67q0 -32 -11 -57
l-9 -22q-4 -10 -14 -22q-4 -4 -33 -28q-1 -1 -3 -1t-3 -1q-30 -12 -55 -2q-20 6 -29 10q-6 1 -12 6q-36 27 -52 54q-12 19 -13 41q0 24 -1 37h1v34q2 32 7 47q0 9 3 18t8 19.5t7 15.5q14 24 23 34q4 6 20 17q3 3 12 5zM111 330q-12 1 -24 -9q-13 -14 -19 -24q-8 -12 -20 -38
q-11 -29 -13 -61q-2 -20 0 -78q0 -28 22 -53q19 -19 24 -23q16 -14 26 -18q18 -6 27 -8q33 -7 54 10l9 6q15 11 23 28q12 26 14 32q7 16 6 34q-2 19 1 37q0 11 -2 37q-3 51 -39 90l-9 9q-22 23 -52 28q-4 1 -28 1z" />
    <glyph glyph-name="divide" unicode="&#xf7;" horiz-adv-x="400" 
d="M198 395q17 -2 23 -11q6 -6 4 -18q-6 -15 -18 -21q-11 -7 -23 -3q-12 7 -14 16q0 8 -1 10q0 30 29 27zM83 279q57 0 85 -1h33l58 -3q18 0 54 0.5t54 0.5q3 0 9 -2q6 0 4 -10q0 -6 -4 -7t-12 -1q-109 0 -175 1q-8 0 -36.5 0.5t-45.5 0.5q-11 0 -33 -1t-33 -1q-10 0 -15 1
q-2 1 -6 7q-1 2 1.5 5.5t5.5 3.5q6 1 17.5 2.5t21 2.5t17.5 1zM196 203q17 -2 24 -11q6 -8 3 -18q-4 -13 -17 -21q-13 -7 -23 -2q-13 5 -14 15q0 2 -0.5 5.5t-1.5 4.5q0 30 29 27z" />
    <glyph glyph-name="oslash" unicode="&#xf8;" horiz-adv-x="275" 
d="M272 696v-8q-2 -10 -4 -15l-24 -83q-6 -17 -17 -54t-17 -56l-17 -59q-4 -11 -10 -33t-10 -33l-6 -20q18 -8 32 -22q9 -9 13 -14q35 -39 41 -94q3 -37 2 -67q0 -32 -11 -57l-9 -22q-4 -10 -14 -22q-4 -4 -33 -28q-1 -1 -3 -1t-3 -1q-30 -12 -55 -2q-20 6 -29 10
q-6 1 -12 6l-7 5l-3 -19q-2 -4 -4 -5q-2 -2 -5 0t-3 5q0 2 -1 6q3 15 5 21v1q-22 21 -34 40t-13 41q0 24 -1 37h1v34q2 32 7 47q0 9 3 18t8 19.5t7 15.5q14 24 23 34q4 6 20 17q3 3 12 5q29 5 54 -3q11 40 12 43q1 5 5 15q5 12 11 36q22 68 24 74q2 8 4 11q22 78 34 117
q1 4 3.5 11.5t3.5 11.5q4 11 10 33q0 1 0.5 3t1.5 3q2 2 4 2t4 -4zM73 51l12 50q1 3 2.5 8.5t2.5 8.5q22 78 28 98q2 12 5 17q3 9 18 58q2 8 8 24v2q1 1 1 4t1 5l-12 3q-4 1 -28 1q-12 1 -24 -9q-13 -14 -19 -24q-8 -12 -20 -38q-11 -29 -13 -61q-2 -20 0 -78q0 -28 22 -53z
M200 292l-9 9q-11 13 -28 21l-6 -23q-12 -40 -22 -67q-4 -14 -12 -41.5t-11 -38.5q-2 -12 -4 -17q-3 -9 -25 -93q13 -11 24 -16q18 -6 27 -8q33 -7 54 10l9 6q15 11 23 28q12 26 14 32q7 16 6 34q-2 19 1 37q0 11 -2 37q-3 51 -39 90z" />
    <glyph glyph-name="ugrave" unicode="&#xf9;" horiz-adv-x="286" 
d="M115 445q5 -2 5 -3q29 -40 37 -54q0 -1 1 -3v-2q0 -1 -0.5 -2.5t-1.5 -2.5q-4 -2 -6 -1q-3 0 -5 2q-2 3 -17 22t-23 30q-1 2 -1 6q2 10 11 8zM31 348q4 2 6 -3q0 -1 0.5 -3t0.5 -3q0 -7 -0.5 -21t-0.5 -21q0 -3 -0.5 -8.5t-0.5 -8.5h1l-3 -33q0 -21 1 -31q4 -56 5 -83v-9
q-3 -13 4 -28l12 -31q8 -18 26 -29q3 -2 8.5 -5.5t8.5 -4.5q19 -10 49 -12q26 -2 48 12q10 6 15 10q4 2 7 5q25 33 27 57q0 1 1 14.5t2 20.5q1 4 1 13q-1 9 -1.5 26t-0.5 22v18q1 18 4 105v7q0 1 2.5 3t3.5 2q2 1 6 -3q3 -4 3 -10q0 -8 -1 -24t-1 -24q0 -13 -1 -37.5
t-1.5 -44t-0.5 -37.5q1 -18 -1 -53q-4 -47 3 -74q1 -7 0 -13q-2 -7 -8 -7t-8 6q0 1 -0.5 4t-0.5 5q-1 4 -1.5 11t-0.5 11l-3 3q-3 0 -4 -1q-1 0 -1 -0.5t-1 -0.5q-33 -42 -91 -40q-30 0 -54 14q-27 16 -30 19q-6 7 -11 14q-11 18 -17 35q-8 24 -7 43q1 17 -1 49q-7 55 -2 94
q0 1 3 68q0 2 0.5 5t0.5 4q2 3 5 3z" />
    <glyph glyph-name="uacute" unicode="&#xfa;" horiz-adv-x="286" 
d="M165 442q4 0 6 -1q2 0 2 -4t-1 -6q-12 -18 -38 -54q-1 -1 -4 -3l-2 -1q-4 -1 -7.5 2t-3.5 6q0 4 1 6q3 4 18 23.5t24 28.5q4 2 5 3zM31 348q4 2 6 -3q0 -1 0.5 -3t0.5 -3q0 -7 -0.5 -21t-0.5 -21q0 -3 -0.5 -8.5t-0.5 -8.5h1l-3 -33q0 -21 1 -31q4 -56 5 -83v-9
q-3 -13 4 -28l12 -31q8 -18 26 -29q3 -2 8.5 -5.5t8.5 -4.5q19 -10 49 -12q26 -2 48 12q10 6 15 10q4 2 7 5q25 33 27 57q0 1 1 14.5t2 20.5q1 4 1 13q-1 9 -1.5 26t-0.5 22v18q1 18 4 105v7q0 1 2.5 3t3.5 2q2 1 6 -3q3 -4 3 -10q0 -8 -1 -24t-1 -24q0 -13 -1 -37.5
t-1.5 -44t-0.5 -37.5q1 -18 -1 -53q-4 -47 3 -74q1 -7 0 -13q-2 -7 -8 -7t-8 6q0 1 -0.5 4t-0.5 5q-1 4 -1.5 11t-0.5 11l-3 3q-3 0 -4 -1q-1 0 -1 -0.5t-1 -0.5q-33 -42 -91 -40q-30 0 -54 14q-27 16 -30 19q-6 7 -11 14q-11 18 -17 35q-8 24 -7 43q1 17 -1 49q-7 55 -2 94
q0 1 3 68q0 2 0.5 5t0.5 4q2 3 5 3z" />
    <glyph glyph-name="ucircumflex" unicode="&#xfb;" horiz-adv-x="286" 
d="M142 449q1 -1 5 -7q3 -4 5.5 -9.5t5 -12.5t4.5 -11q1 -3 3.5 -9t4.5 -9q1 -3 -3 -7q-1 -1 -3.5 -0.5t-3.5 1.5t-2.5 4.5t-2.5 5.5q-7 23 -15 35q0 1 -2 1l-1 -1q-16 -32 -17 -35q-1 -4 -7 -12q0 -1 -2 -1q-3 0 -3 1v2q-1 2 -1 3l3.5 10.5t4.5 11.5q16 33 18 37q1 3 4 3.5
t5 -1.5zM31 348q4 2 6 -3q0 -1 0.5 -3t0.5 -3q0 -7 -0.5 -21t-0.5 -21q0 -3 -0.5 -8.5t-0.5 -8.5h1l-3 -33q0 -21 1 -31q4 -56 5 -83v-9q-3 -13 4 -28l12 -31q8 -18 26 -29q3 -2 8.5 -5.5t8.5 -4.5q19 -10 49 -12q26 -2 48 12q10 6 15 10q4 2 7 5q25 33 27 57q0 1 1 14.5
t2 20.5q1 4 1 13q-1 9 -1.5 26t-0.5 22v18q1 18 4 105v7q0 1 2.5 3t3.5 2q2 1 6 -3q3 -4 3 -10q0 -8 -1 -24t-1 -24q0 -13 -1 -37.5t-1.5 -44t-0.5 -37.5q1 -18 -1 -53q-4 -47 3 -74q1 -7 0 -13q-2 -7 -8 -7t-8 6q0 1 -0.5 4t-0.5 5q-1 4 -1.5 11t-0.5 11l-3 3q-3 0 -4 -1
q-1 0 -1 -0.5t-1 -0.5q-33 -42 -91 -40q-30 0 -54 14q-27 16 -30 19q-6 7 -11 14q-11 18 -17 35q-8 24 -7 43q1 17 -1 49q-7 55 -2 94q0 1 3 68q0 2 0.5 5t0.5 4q2 3 5 3z" />
    <glyph glyph-name="udieresis" unicode="&#xfc;" horiz-adv-x="286" 
d="M189 407q11 0 18 -6q3 -5 2 -9q-3 -8 -12 -11q-10 -3 -17 -1q-8 2 -10 8q-1 2 -1 5q0 16 20 14zM85 406q11 0 18 -6q3 -5 2 -9q-3 -8 -12 -11q-10 -3 -17 -1q-8 2 -10 8q-1 2 -1 5q0 16 20 14zM31 348q4 2 6 -3q0 -1 0.5 -3t0.5 -3q0 -7 -0.5 -21t-0.5 -21
q0 -3 -0.5 -8.5t-0.5 -8.5h1l-3 -33q0 -21 1 -31q4 -56 5 -83v-9q-3 -13 4 -28l12 -31q8 -18 26 -29q3 -2 8.5 -5.5t8.5 -4.5q19 -10 49 -12q26 -2 48 12q10 6 15 10q4 2 7 5q25 33 27 57q0 1 1 14.5t2 20.5q1 4 1 13q-1 9 -1.5 26t-0.5 22v18q1 18 4 105v7q0 1 2.5 3t3.5 2
q2 1 6 -3q3 -4 3 -10q0 -8 -1 -24t-1 -24q0 -13 -1 -37.5t-1.5 -44t-0.5 -37.5q1 -18 -1 -53q-4 -47 3 -74q1 -7 0 -13q-2 -7 -8 -7t-8 6q0 1 -0.5 4t-0.5 5q-1 4 -1.5 11t-0.5 11l-3 3q-3 0 -4 -1q-1 0 -1 -0.5t-1 -0.5q-33 -42 -91 -40q-30 0 -54 14q-27 16 -30 19
q-6 7 -11 14q-11 18 -17 35q-8 24 -7 43q1 17 -1 49q-7 55 -2 94q0 1 3 68q0 2 0.5 5t0.5 4q2 3 5 3z" />
    <glyph glyph-name="yacute" unicode="&#xfd;" horiz-adv-x="252" 
d="M156 436q4 0 6 -1q2 0 2 -4t-1 -6q-12 -18 -38 -54l-3 -3l-3 -1q-4 -1 -7.5 2t-3.5 6q0 4 1 6q3 4 18 23.5t24 28.5q4 2 5 3zM24 349q9 -9 12 -14q38 -52 56 -79q23 -34 28 -46q1 -2 2.5 -4t1.5 -3q5 -5 8 0q5 5 6 7q5 5 6 10q4 7 35 54q24 34 45 72q1 2 4 2q4 0 4 -4
q0 -5 -1 -7q-5 -13 -11 -21q-28 -46 -44 -67q-7 -10 -14 -22q-6 -13 -20 -37q-14 -21 -24 -42q-22 -42 -33 -62q-3 -8 -9 -15q-25 -38 -37 -65q-2 -6 -11 -6q-6 0 -4 7q4 6 14 25.5t17 28.5q19 26 28 48q2 5 15 28q6 14 10 20q5 11 10 19l3 6q0 3 -1 4q-5 8 -17.5 30
t-20.5 33l-9 12q-16 22 -24 34l-6 9t-5 7l-16 27q-2 3 -2 9q0 2 2 2q0 2 2 0z" />
    <glyph glyph-name="thorn" unicode="&#xfe;" horiz-adv-x="263" 
d="M29 538l2 -4q1 -1 1 -4q-1 -6 -1 -57q-1 -9 1 -79q-1 -13 -1 -39q0 -8 8 -4l14 8q3 2 11 4q6 1 17 2t16 2q11 0 16 1q13 2 37 0q18 -3 33 -9q34 -14 50 -49q10 -21 10 -48q0 -4 -0.5 -11t-0.5 -10q-1 -17 -1 -51q0 -5 0.5 -15.5t0.5 -15.5q1 -6 -2 -49q-2 -16 -17 -34
q-7 -7 -11 -10q-5 -5 -17 -11q-13 -6 -53 -15q-4 -1 -12 -1q-47 4 -69 12q-12 5 -24 3q-6 0 -6 -6v-37v-43.5v-36.5v-93q0 -4 0.5 -11t0.5 -11t-5 -6t-5 2q0 3 -0.5 8.5t-0.5 8.5v114v78v70v175v75v95v75v25q0 2 2 2q4 2 6 0zM100 356q-4 0 -11 -1t-11 -1q-20 -2 -33 -12
q-4 -4 -6 -4q-8 -4 -8 -13q0 -15 -0.5 -47t-0.5 -47v-39v-107q0 -1 0.5 -3.5t0.5 -4.5q0 -5 4 -6q3 -1 8.5 -3.5t8.5 -3.5q38 -10 58 -13q26 -2 35 0q25 5 45 13q9 4 17 11q21 22 22 50v81q0 24 1 35q3 29 -6 57q-5 16 -16 28q-13 15 -29 22l-18 6q-31 6 -61 2z" />
    <glyph glyph-name="ydieresis" unicode="&#xff;" horiz-adv-x="252" 
d="M177 417q11 0 18 -6q3 -5 2 -9q-3 -8 -12 -11q-10 -3 -17 -1q-8 2 -10 8q-1 2 -1 5q0 16 20 14zM73 416q11 0 18 -6q3 -5 2 -9q-3 -8 -12 -11q-10 -3 -17 -1q-8 2 -10 8q-1 2 -1 5q0 16 20 14zM24 349q9 -9 12 -14q38 -52 56 -79q23 -34 28 -46q1 -2 2.5 -4t1.5 -3
q5 -5 8 0q5 5 6 7q5 5 6 10q4 7 35 54q24 34 45 72q1 2 4 2q4 0 4 -4q0 -5 -1 -7q-5 -13 -11 -21q-28 -46 -44 -67q-7 -10 -14 -22q-6 -13 -20 -37q-14 -21 -24 -42q-22 -42 -33 -62q-3 -8 -9 -15q-25 -38 -37 -65q-2 -6 -11 -6q-6 0 -4 7q4 6 14 25.5t17 28.5q19 26 28 48
q2 5 15 28q6 14 10 20q5 11 10 19l3 6q0 3 -1 4q-5 8 -17.5 30t-20.5 33l-9 12q-16 22 -24 34l-6 9t-5 7l-16 27q-2 3 -2 9q0 2 2 2q0 2 2 0z" />
    <glyph glyph-name="Amacron" unicode="&#x100;" horiz-adv-x="639" 
d="M178 842h297v-71h-297v71zM124 699q10 2 12 -5q0 -1 0.5 -3t0.5 -3q0 -15 5 -32q4 -18 10 -54l15 -90q4 -30 7 -44q2 -14 8 -42q6 -32 10 -48l12 -61l3 -16q1 -10 11 -60q1 -5 2.5 -14.5t2.5 -13.5q1 -7 5 -26l6 -29q4 -22 7 -32q6 -26 6 -28q2 -9 7 -25.5t6 -18.5
q1 -3 9 -38q1 -3 -3 -9q-3 -3 -8 -1q-5 3 -5 8l-6 24l-3 16q-3 13 -9.5 38.5t-9.5 38.5q-2 8 -5.5 25t-5.5 26l-6 34q-5 30 -17 90q-1 3 -1.5 8t-0.5 8q-2 10 -13 10h-26h-12q-40 -2 -47 -2q-4 0 -6 -1l-4 -4q-2 -3 -4 -11l-4 -28q-1 -8 -2.5 -23t-2.5 -23q-1 -4 -2.5 -13.5
t-2.5 -14.5q-6 -32 -7 -49q0 -6 -2 -18l-3 -18q-1 -17 -7 -46q-6 -38 -6 -40q-2 -10 -2 -30q0 -8 -7 -9q-2 -2 -5.5 0t-2.5 5v4q0 2 0.5 5.5t0.5 4.5q1 21 12 79q2 12 2 20q8 55 8 66q0 3 1.5 8t1.5 6q5 26 10 68q4 34 8 52q8 45 11 81l6 42q2 20 4 28q4 33 7 46l9 50v1
q1 2 1 3q1 12 5 36.5t4 27.5q0 6 1 12t2.5 13.5l2.5 12.5l3 20q0 6 3 6zM127 644l-1 -1v-2l-9 -56q-3 -32 -9 -62q-6 -34 -8 -46l-15 -121q-1 -3 -1 -8t5 -5q2 0 5.5 -0.5t4.5 -0.5h8q6 0 14 2q17 0 51 2q11 0 10 11q-1 1 -1 4q-6 27 -16 81q-2 10 -7 38l-6 36q-9 49 -15 94
q-1 10 -5 30q-2 7 -5 4z" />
    <glyph glyph-name="amacron" unicode="&#x101;" horiz-adv-x="561" 
d="M143 677h297v-71h-297v71zM121 348q34 3 67 -6q6 -1 16 -7q21 -14 38 -32q14 -17 19 -41q2 -8 2 -11q3 -17 7 -58q0 -6 -1 -9v-23v-7q-2 -15 -1.5 -21t2 -21t1.5 -21q3 -12 1 -38q0 -21 1 -25q1 -5 1 -15q0 -5 -5 -8q-2 -2 -6 -1t-5 4q-3 10 -3 20q-2 32 -1 48v2h-2.5
t-2.5 -1l-11 -17q-15 -24 -32 -38q-16 -13 -40 -20q-9 -3 -20 -1q-25 1 -52 15q-35 18 -51 53q-21 44 -21 84q0 5 -1 15t-1 15v22q0 23 5 38q3 7 6.5 20t6.5 19q5 13 27 39q33 25 56 27zM123 335q-39 -6 -62 -38q-10 -15 -14 -28q-1 -4 -3.5 -12t-3.5 -12q-7 -25 -6 -44v-9
q0 -2 3 -50q1 -27 20 -69q9 -18 26 -32q14 -12 46 -23q0 -1 2 -1q37 -6 64 15q13 10 20 21q1 2 6 9.5t8 10.5q7 9 13 29l3 18q7 30 7 40l3 15q2 15 1 23q-2 8 -2 13q1 23 -8 58q-3 16 -15 28q-8 8 -26 22q-14 11 -28 12l-14 3q-15 5 -40 1z" />
    <glyph glyph-name="Abreve" unicode="&#x102;" horiz-adv-x="639" 
d="M54 905l6 -6q6 -12 10 -18q14 -21 38 -25.5t45 8.5q5 3 14 14q1 1 16 19q3 3 8 1.5t6 -5.5q1 -2 1 -5q-22 -28 -28 -33q-20 -20 -50 -18q-49 3 -68 43l-9 18q0 5 3 7q4 2 8 0zM124 699q10 2 12 -5q0 -1 0.5 -3t0.5 -3q0 -15 5 -32q4 -18 10 -54l15 -90q4 -30 7 -44
q2 -14 8 -42q6 -32 10 -48l12 -61l3 -16q1 -10 11 -60q1 -5 2.5 -14.5t2.5 -13.5q1 -7 5 -26l6 -29q4 -22 7 -32q6 -26 6 -28q2 -9 7 -25.5t6 -18.5q1 -3 9 -38q1 -3 -3 -9q-3 -3 -8 -1q-5 3 -5 8l-6 24l-3 16q-3 13 -9.5 38.5t-9.5 38.5q-2 8 -5.5 25t-5.5 26l-6 34
q-5 30 -17 90q-1 3 -1.5 8t-0.5 8q-2 10 -13 10h-26h-12q-40 -2 -47 -2q-4 0 -6 -1l-4 -4q-2 -3 -4 -11l-4 -28q-1 -8 -2.5 -23t-2.5 -23q-1 -4 -2.5 -13.5t-2.5 -14.5q-6 -32 -7 -49q0 -6 -2 -18l-3 -18q-1 -17 -7 -46q-6 -38 -6 -40q-2 -10 -2 -30q0 -8 -7 -9
q-2 -2 -5.5 0t-2.5 5v4q0 2 0.5 5.5t0.5 4.5q1 21 12 79q2 12 2 20q8 55 8 66q0 3 1.5 8t1.5 6q5 26 10 68q4 34 8 52q8 45 11 81l6 42q2 20 4 28q4 33 7 46l9 50v1q1 2 1 3q1 12 5 36.5t4 27.5q0 6 1 12t2.5 13.5l2.5 12.5l3 20q0 6 3 6zM127 644l-1 -1v-2l-9 -56
q-3 -32 -9 -62q-6 -34 -8 -46l-15 -121q-1 -3 -1 -8t5 -5q2 0 5.5 -0.5t4.5 -0.5h8q6 0 14 2q17 0 51 2q11 0 10 11q-1 1 -1 4q-6 27 -16 81q-2 10 -7 38l-6 36q-9 49 -15 94q-1 10 -5 30q-2 7 -5 4z" />
    <glyph glyph-name="abreve" unicode="&#x103;" horiz-adv-x="561" 
d="M19 740l6 -6q6 -12 10 -18q14 -21 38 -25.5t45 8.5q5 3 14 14q1 1 16 19q3 3 8 1.5t6 -5.5q1 -2 1 -5q-22 -28 -28 -33q-20 -20 -50 -18q-49 3 -68 43l-9 18q0 5 3 7q4 2 8 0zM121 348q34 3 67 -6q6 -1 16 -7q21 -14 38 -32q14 -17 19 -41q2 -8 2 -11q3 -17 7 -58
q0 -6 -1 -9v-23v-7q-2 -15 -1.5 -21t2 -21t1.5 -21q3 -12 1 -38q0 -21 1 -25q1 -5 1 -15q0 -5 -5 -8q-2 -2 -6 -1t-5 4q-3 10 -3 20q-2 32 -1 48v2h-2.5t-2.5 -1l-11 -17q-15 -24 -32 -38q-16 -13 -40 -20q-9 -3 -20 -1q-25 1 -52 15q-35 18 -51 53q-21 44 -21 84q0 5 -1 15
t-1 15v22q0 23 5 38q3 7 6.5 20t6.5 19q5 13 27 39q33 25 56 27zM123 335q-39 -6 -62 -38q-10 -15 -14 -28q-1 -4 -3.5 -12t-3.5 -12q-7 -25 -6 -44v-9q0 -2 3 -50q1 -27 20 -69q9 -18 26 -32q14 -12 46 -23q0 -1 2 -1q37 -6 64 15q13 10 20 21q1 2 6 9.5t8 10.5q7 9 13 29
l3 18q7 30 7 40l3 15q2 15 1 23q-2 8 -2 13q1 23 -8 58q-3 16 -15 28q-8 8 -26 22q-14 11 -28 12l-14 3q-15 5 -40 1z" />
    <glyph glyph-name="Aogonek" unicode="&#x104;" horiz-adv-x="639" 
d="M502 6q4 0 4 -2q3 0 3 -5q0 -1 -3.5 -6t-6.5 -8q-1 -3 -11 -21q-2 -2 -2 -4.5t2 -2.5q0 -2 4 -2h35q2 0 3 -1t2 -1t2 -3t3 -4q0 -2 -2.5 -4.5t-4.5 -2.5h-19h-7h-21q-5 0 -9 5.5t-3 12.5q0 3 1.5 6t1.5 6q13 26 28 37zM124 699q10 2 12 -5q0 -1 0.5 -3t0.5 -3
q0 -15 5 -32q4 -18 10 -54l15 -90q4 -30 7 -44q2 -14 8 -42q6 -32 10 -48l12 -61l3 -16q1 -10 11 -60q1 -5 2.5 -14.5t2.5 -13.5q1 -7 5 -26l6 -29q4 -22 7 -32q6 -26 6 -28q2 -9 7 -25.5t6 -18.5q1 -3 9 -38q1 -3 -3 -9q-3 -3 -8 -1q-5 3 -5 8l-6 24l-3 16q-3 13 -9.5 38.5
t-9.5 38.5q-2 8 -5.5 25t-5.5 26l-6 34q-5 30 -17 90q-1 3 -1.5 8t-0.5 8q-2 10 -13 10h-26h-12q-40 -2 -47 -2q-4 0 -6 -1l-4 -4q-2 -3 -4 -11l-4 -28q-1 -8 -2.5 -23t-2.5 -23q-1 -4 -2.5 -13.5t-2.5 -14.5q-6 -32 -7 -49q0 -6 -2 -18l-3 -18q-1 -17 -7 -46q-6 -38 -6 -40
q-2 -10 -2 -30q0 -8 -7 -9q-2 -2 -5.5 0t-2.5 5v4q0 2 0.5 5.5t0.5 4.5q1 21 12 79q2 12 2 20q8 55 8 66q0 3 1.5 8t1.5 6q5 26 10 68q4 34 8 52q8 45 11 81l6 42q2 20 4 28q4 33 7 46l9 50v1q1 2 1 3q1 12 5 36.5t4 27.5q0 6 1 12t2.5 13.5l2.5 12.5l3 20q0 6 3 6zM127 644
l-1 -1v-2l-9 -56q-3 -32 -9 -62q-6 -34 -8 -46l-15 -121q-1 -3 -1 -8t5 -5q2 0 5.5 -0.5t4.5 -0.5h8q6 0 14 2q17 0 51 2q11 0 10 11q-1 1 -1 4q-6 27 -16 81q-2 10 -7 38l-6 36q-9 49 -15 94q-1 10 -5 30q-2 7 -5 4z" />
    <glyph glyph-name="aogonek" unicode="&#x105;" horiz-adv-x="561" 
d="M372 6q4 0 4 -2q3 0 3 -5q0 -1 -3.5 -6t-6.5 -8q-1 -3 -11 -21q-2 -2 -2 -4.5t2 -2.5q0 -2 4 -2h35q2 0 3 -1t2 -1t2 -3t3 -4q0 -2 -2.5 -4.5t-4.5 -2.5h-19h-7h-21q-5 0 -9 5.5t-3 12.5q0 3 1.5 6t1.5 6q13 26 28 37zM121 348q34 3 67 -6q6 -1 16 -7q21 -14 38 -32
q14 -17 19 -41q2 -8 2 -11q3 -17 7 -58q0 -6 -1 -9v-23v-7q-2 -15 -1.5 -21t2 -21t1.5 -21q3 -12 1 -38q0 -21 1 -25q1 -5 1 -15q0 -5 -5 -8q-2 -2 -6 -1t-5 4q-3 10 -3 20q-2 32 -1 48v2h-2.5t-2.5 -1l-11 -17q-15 -24 -32 -38q-16 -13 -40 -20q-9 -3 -20 -1q-25 1 -52 15
q-35 18 -51 53q-21 44 -21 84q0 5 -1 15t-1 15v22q0 23 5 38q3 7 6.5 20t6.5 19q5 13 27 39q33 25 56 27zM123 335q-39 -6 -62 -38q-10 -15 -14 -28q-1 -4 -3.5 -12t-3.5 -12q-7 -25 -6 -44v-9q0 -2 3 -50q1 -27 20 -69q9 -18 26 -32q14 -12 46 -23q0 -1 2 -1q37 -6 64 15
q13 10 20 21q1 2 6 9.5t8 10.5q7 9 13 29l3 18q7 30 7 40l3 15q2 15 1 23q-2 8 -2 13q1 23 -8 58q-3 16 -15 28q-8 8 -26 22q-14 11 -28 12l-14 3q-15 5 -40 1z" />
    <glyph glyph-name="Cacute" unicode="&#x106;" horiz-adv-x="631" 
d="M147 698q28 3 52 -9h2q24 -8 38 -32q1 -2 8 -14q1 -1 0.5 -2.5t-1.5 -2.5q-2 -1 -5 0q-9 3 -12 11q-12 21 -40 31q-14 4 -31 6q-19 1 -36 -12q-14 -12 -20 -19q-29 -35 -45 -76q-3 -7 -7 -23q-5 -26 -7 -35q0 -1 -3 -26q-2 -18 -4 -50q-1 -12 -1 -36q-1 -30 0 -60
q0 -70 2 -105v-8q11 -73 12 -77q5 -29 15 -54q4 -11 12 -21q2 -3 5.5 -9.5t5.5 -9.5q1 -2 2.5 -6t1.5 -5q11 -20 23 -24l9 -6q26 -12 42 -10q36 7 46 13q14 9 18 21q1 3 3.5 7t3.5 7q2 4 5 3l4 -4q3 -3 1 -5q-10 -41 -52 -50l-13 -3q-24 -4 -46 0q-3 0 -6 1.5l-6 3l-5 2.5
q-12 8 -19 12q-9 5 -13 12q-5 10 -11 19q-10 21 -13 25q-8 11 -15 33q-1 3 -2.5 8.5t-2.5 8.5q-4 10 -6 23q0 2 -6 25q-2 6 -2 8q0 8 -2.5 28.5t-2.5 31.5v16q-3 19 -1 40v8v64q0 15 -1 22q-1 3 -1 18l3 42q2 38 5 56l9 48q5 22 7 27q10 22 17 32q3 4 9.5 15t10.5 17
q21 25 22 25q7 7 16 13q10 8 28 11zM197 903q4 0 6 -1q2 0 2 -4t-1 -6q-12 -18 -38 -54l-3 -3l-3 -1q-4 -1 -7.5 2t-3.5 6q0 4 1 6q3 4 18 23.5t24 28.5q4 2 5 3z" />
    <glyph glyph-name="cacute" unicode="&#x107;" horiz-adv-x="479" 
d="M145 347q14 3 33 -1q56 -12 86 -57q2 -2 2 -8q0 -3 -2 -3q-2 -2 -4 0q-4 2 -5 4q-15 22 -54 43q-16 7 -35 9q-19 0 -26 -3q-1 0 -17 -3q-22 -3 -43 -24t-38 -57q-3 -9 -3 -10q-6 -30 -4 -45l6 -65q2 -14 15 -47q8 -18 36 -46q5 -5 13 -8q21 -10 43 -11q11 -1 33 -1
q8 -1 26 3q22 6 37 24q6 10 9 13l9 6q3 2 5 -2q3 -3 2 -6q-18 -24 -28 -33q-20 -17 -52 -19q-7 -1 -23 -1q-5 1 -18.5 1.5t-21.5 2.5q-23 6 -45 20l-3 3l-2 1q-3 5 -13 17t-15 20q-10 21 -19 50q0 1 -0.5 4t-1.5 4q-1 15 -5 50q0 7 -2 17v26l3 21q0 1 0.5 4t1.5 4
q5 11 15 29q6 12 11 17t6 8q3 6 7.5 11t13.5 11.5t10 7.5q7 6 24 10q5 2 10.5 3.5t12 3t10.5 2.5zM103 738q4 0 6 -1q2 0 2 -4t-1 -6q-12 -18 -38 -54l-3 -3l-3 -1q-4 -1 -7.5 2t-3.5 6q0 4 1 6q3 4 18 23.5t24 28.5q4 2 5 3z" />
    <glyph glyph-name="Ccircumflex" unicode="&#x108;" horiz-adv-x="631" 
d="M148 923q1 -1 5 -7l15 -33q1 -3 4 -9t4 -9t-3 -7q-1 -1 -3.5 -0.5t-3.5 1.5l-2.5 5l-2.5 5q-8 23 -15 35q0 1 -2 1l-1 -1q-16 -32 -17 -35q-1 -4 -7 -12q0 -1 -2 -1q-3 0 -3 1l-1 2v3q2 4 4 11t4 11q16 33 18 37q1 3 4 3.5t5 -1.5zM147 698q28 3 52 -9h2q24 -8 38 -32
q1 -2 8 -14q1 -1 0.5 -2.5t-1.5 -2.5q-2 -1 -5 0q-9 3 -12 11q-12 21 -40 31q-14 4 -31 6q-19 1 -36 -12q-14 -12 -20 -19q-29 -35 -45 -76q-3 -7 -7 -23q-5 -26 -7 -35q0 -1 -3 -26q-2 -18 -4 -50q-1 -12 -1 -36q-1 -30 0 -60q0 -70 2 -105v-8q11 -73 12 -77q5 -29 15 -54
q4 -11 12 -21q2 -3 5.5 -9.5t5.5 -9.5q1 -2 2.5 -6t1.5 -5q11 -20 23 -24l9 -6q26 -12 42 -10q36 7 46 13q14 9 18 21q1 3 3.5 7t3.5 7q2 4 5 3l4 -4q3 -3 1 -5q-10 -41 -52 -50l-13 -3q-24 -4 -46 0q-3 0 -6 1.5l-6 3l-5 2.5q-12 8 -19 12q-9 5 -13 12q-5 10 -11 19
q-10 21 -13 25q-8 11 -15 33q-1 3 -2.5 8.5t-2.5 8.5q-4 10 -6 23q0 2 -6 25q-2 6 -2 8q0 8 -2.5 28.5t-2.5 31.5v16q-3 19 -1 40v8v64q0 15 -1 22q-1 3 -1 18l3 42q2 38 5 56l9 48q5 22 7 27q10 22 17 32q3 4 9.5 15t10.5 17q21 25 22 25q7 7 16 13q10 8 28 11z" />
    <glyph glyph-name="ccircumflex" unicode="&#x109;" horiz-adv-x="479" 
d="M46 758q1 -1 5 -7l15 -33q1 -3 4 -9t4 -9t-3 -7q-1 -1 -3.5 -0.5t-3.5 1.5l-2.5 5l-2.5 5q-8 23 -15 35q0 1 -2 1l-1 -1q-16 -32 -17 -35q-1 -4 -7 -12q0 -1 -2 -1q-3 0 -3 1l-1 2v3q2 4 4 11t4 11q16 33 18 37q1 3 4 3.5t5 -1.5zM145 347q14 3 33 -1q56 -12 86 -57
q2 -2 2 -8q0 -3 -2 -3q-2 -2 -4 0q-4 2 -5 4q-15 22 -54 43q-16 7 -35 9q-19 0 -26 -3q-1 0 -17 -3q-22 -3 -43 -24t-38 -57q-3 -9 -3 -10q-6 -30 -4 -45l6 -65q2 -14 15 -47q8 -18 36 -46q5 -5 13 -8q21 -10 43 -11q11 -1 33 -1q8 -1 26 3q22 6 37 24q6 10 9 13l9 6
q3 2 5 -2q3 -3 2 -6q-18 -24 -28 -33q-20 -17 -52 -19q-7 -1 -23 -1q-5 1 -18.5 1.5t-21.5 2.5q-23 6 -45 20l-3 3l-2 1q-3 5 -13 17t-15 20q-10 21 -19 50q0 1 -0.5 4t-1.5 4q-1 15 -5 50q0 7 -2 17v26l3 21q0 1 0.5 4t1.5 4q5 11 15 29q6 12 11 17t6 8q3 6 7.5 11
t13.5 11.5t10 7.5q7 6 24 10q5 2 10.5 3.5t12 3t10.5 2.5z" />
    <glyph glyph-name="Cdotaccent" unicode="&#x10a;" horiz-adv-x="631" 
d="M299 891q10 0 18 -6q3 -5 2 -9q-3 -8 -12 -11q-10 -3 -17 -1q-8 2 -10 8q-1 2 -1 5q0 16 20 14zM147 698q28 3 52 -9h2q24 -8 38 -32q1 -2 8 -14q1 -1 0.5 -2.5t-1.5 -2.5q-2 -1 -5 0q-9 3 -12 11q-12 21 -40 31q-14 4 -31 6q-19 1 -36 -12q-14 -12 -20 -19
q-29 -35 -45 -76q-3 -7 -7 -23q-5 -26 -7 -35q0 -1 -3 -26q-2 -18 -4 -50q-1 -12 -1 -36q-1 -30 0 -60q0 -70 2 -105v-8q11 -73 12 -77q5 -29 15 -54q4 -11 12 -21q2 -3 5.5 -9.5t5.5 -9.5q1 -2 2.5 -6t1.5 -5q11 -20 23 -24l9 -6q26 -12 42 -10q36 7 46 13q14 9 18 21
q1 3 3.5 7t3.5 7q2 4 5 3l4 -4q3 -3 1 -5q-10 -41 -52 -50l-13 -3q-24 -4 -46 0q-3 0 -6 1.5l-6 3l-5 2.5q-12 8 -19 12q-9 5 -13 12q-5 10 -11 19q-10 21 -13 25q-8 11 -15 33q-1 3 -2.5 8.5t-2.5 8.5q-4 10 -6 23q0 2 -6 25q-2 6 -2 8q0 8 -2.5 28.5t-2.5 31.5v16
q-3 19 -1 40v8v64q0 15 -1 22q-1 3 -1 18l3 42q2 38 5 56l9 48q5 22 7 27q10 22 17 32q3 4 9.5 15t10.5 17q21 25 22 25q7 7 16 13q10 8 28 11z" />
    <glyph glyph-name="cdotaccent" unicode="&#x10b;" horiz-adv-x="479" 
d="M203 726q10 0 18 -6q3 -5 2 -9q-3 -8 -12 -11q-10 -3 -17 -1q-8 2 -10 8q-1 2 -1 5q0 16 20 14zM145 347q14 3 33 -1q56 -12 86 -57q2 -2 2 -8q0 -3 -2 -3q-2 -2 -4 0q-4 2 -5 4q-15 22 -54 43q-16 7 -35 9q-19 0 -26 -3q-1 0 -17 -3q-22 -3 -43 -24t-38 -57
q-3 -9 -3 -10q-6 -30 -4 -45l6 -65q2 -14 15 -47q8 -18 36 -46q5 -5 13 -8q21 -10 43 -11q11 -1 33 -1q8 -1 26 3q22 6 37 24q6 10 9 13l9 6q3 2 5 -2q3 -3 2 -6q-18 -24 -28 -33q-20 -17 -52 -19q-7 -1 -23 -1q-5 1 -18.5 1.5t-21.5 2.5q-23 6 -45 20l-3 3l-2 1
q-3 5 -13 17t-15 20q-10 21 -19 50q0 1 -0.5 4t-1.5 4q-1 15 -5 50q0 7 -2 17v26l3 21q0 1 0.5 4t1.5 4q5 11 15 29q6 12 11 17t6 8q3 6 7.5 11t13.5 11.5t10 7.5q7 6 24 10q5 2 10.5 3.5t12 3t10.5 2.5z" />
    <glyph glyph-name="Ccaron" unicode="&#x10c;" horiz-adv-x="631" 
d="M172 921q2 0 3 -1v-4q-4 -16 -8 -23q-2 -5 -8 -17.5t-9 -19.5q-1 -3 -4 -3.5t-5 1.5q-1 1 -5 7q-3 4 -5.5 9.5t-5 12.5t-4.5 11q-6 12 -8 19q-2 3 3 6q4 4 7 -1q1 -1 2.5 -5t2.5 -5q5 -23 15 -35q0 -1 2 -1q1 0 1 2q15 27 17 34q1 4 7 12q0 1 2 1zM147 698q28 3 52 -9h2
q24 -8 38 -32q1 -2 8 -14q1 -1 0.5 -2.5t-1.5 -2.5q-2 -1 -5 0q-9 3 -12 11q-12 21 -40 31q-14 4 -31 6q-19 1 -36 -12q-14 -12 -20 -19q-29 -35 -45 -76q-3 -7 -7 -23q-5 -26 -7 -35q0 -1 -3 -26q-2 -18 -4 -50q-1 -12 -1 -36q-1 -30 0 -60q0 -70 2 -105v-8q11 -73 12 -77
q5 -29 15 -54q4 -11 12 -21q2 -3 5.5 -9.5t5.5 -9.5q1 -2 2.5 -6t1.5 -5q11 -20 23 -24l9 -6q26 -12 42 -10q36 7 46 13q14 9 18 21q1 3 3.5 7t3.5 7q2 4 5 3l4 -4q3 -3 1 -5q-10 -41 -52 -50l-13 -3q-24 -4 -46 0q-3 0 -6 1.5l-6 3l-5 2.5q-12 8 -19 12q-9 5 -13 12
q-5 10 -11 19q-10 21 -13 25q-8 11 -15 33q-1 3 -2.5 8.5t-2.5 8.5q-4 10 -6 23q0 2 -6 25q-2 6 -2 8q0 8 -2.5 28.5t-2.5 31.5v16q-3 19 -1 40v8v64q0 15 -1 22q-1 3 -1 18l3 42q2 38 5 56l9 48q5 22 7 27q10 22 17 32q3 4 9.5 15t10.5 17q21 25 22 25q7 7 16 13
q10 8 28 11z" />
    <glyph glyph-name="ccaron" unicode="&#x10d;" horiz-adv-x="479" 
d="M74 756q2 0 3 -1v-4q-4 -16 -8 -23q-2 -5 -8 -17.5t-9 -19.5q-1 -3 -4 -3.5t-5 1.5q-1 1 -5 7q-3 4 -5.5 9.5t-5 12.5t-4.5 11q-6 12 -8 19q-2 3 3 6q4 4 7 -1q1 -1 2.5 -5t2.5 -5q5 -23 15 -35q0 -1 2 -1q1 0 1 2q15 27 17 34q1 4 7 12q0 1 2 1zM145 347q14 3 33 -1
q56 -12 86 -57q2 -2 2 -8q0 -3 -2 -3q-2 -2 -4 0q-4 2 -5 4q-15 22 -54 43q-16 7 -35 9q-19 0 -26 -3q-1 0 -17 -3q-22 -3 -43 -24t-38 -57q-3 -9 -3 -10q-6 -30 -4 -45l6 -65q2 -14 15 -47q8 -18 36 -46q5 -5 13 -8q21 -10 43 -11q11 -1 33 -1q8 -1 26 3q22 6 37 24
q6 10 9 13l9 6q3 2 5 -2q3 -3 2 -6q-18 -24 -28 -33q-20 -17 -52 -19q-7 -1 -23 -1q-5 1 -18.5 1.5t-21.5 2.5q-23 6 -45 20l-3 3l-2 1q-3 5 -13 17t-15 20q-10 21 -19 50q0 1 -0.5 4t-1.5 4q-1 15 -5 50q0 7 -2 17v26l3 21q0 1 0.5 4t1.5 4q5 11 15 29q6 12 11 17t6 8
q3 6 7.5 11t13.5 11.5t10 7.5q7 6 24 10q5 2 10.5 3.5t12 3t10.5 2.5z" />
    <glyph glyph-name="Dcaron" unicode="&#x10e;" horiz-adv-x="729" 
d="M122 921q2 0 3 -1v-4q-4 -16 -8 -23q-2 -5 -8 -17.5t-9 -19.5q-1 -3 -4 -3.5t-5 1.5q-1 1 -5 7q-3 4 -5.5 9.5t-5 12.5t-4.5 11q-6 12 -8 19q-2 3 3 6q4 4 7 -1q1 -1 2.5 -5t2.5 -5q5 -23 15 -35q0 -1 2 -1q1 0 1 2q15 27 17 34q1 4 7 12q0 1 2 1zM28 698q8 0 26 -2
q16 -3 29 -9q20 -9 35 -24q7 -6 21 -20q30 -29 54 -78q25 -57 30 -75v-2q9 -17 19 -63q0 -4 2 -11.5t3 -11.5q4 -15 2 -35t-2 -30q1 -27 -9 -81q-8 -44 -14 -66q-8 -30 -24 -57q-26 -38 -30 -44q-8 -10 -12 -14l-36 -39q-13 -12 -37 -23q-6 -3 -17.5 -7t-13.5 -5
q-3 -1 -10 -1q-12 -1 -12 10q-1 6 -1.5 13t-1 15.5t-0.5 13.5q0 2 0.5 7t0.5 9q-2 26 -2 45q-1 4 -1 12q1 12 -1 53q0 16 1 24q2 15 0 43q0 4 -0.5 13.5t-0.5 14.5v76q1 22 0 44q-1 3 -1 8q0 1 1.5 14.5t1.5 20.5q0 28 1 34v15l-3 89q0 8 -0.5 23t-0.5 22q-2 24 -4 38
q-2 16 0 24q0 1 -0.5 4t-0.5 5q0 5 2 7t6 1zM38 684q-5 0 -5 -5q1 -6 1 -17v-16q3 -13 5 -59q0 -3 0.5 -9.5t0.5 -10.5q0 -31 1 -47q0 -7 0.5 -21t0.5 -21q0 -40 -1 -47q-3 -23 0 -45v-16q-4 -41 -1 -87q0 -15 1 -23q1 -27 0 -55q-2 -8 0 -24q0 -7 0.5 -19t0.5 -19
q0 -18 0.5 -54t0.5 -54v-8q0 -1 0.5 -3t0.5 -3q2 -6 8 -6q38 8 62 32q8 8 12 11q32 32 56 70q13 22 13 23q16 33 20 57q12 56 16 84q3 20 3 39q0 36 2 46q0 8 -1 12q-6 44 -19 81q-11 34 -27 70q-12 28 -19 41q-23 40 -60 74q-17 16 -42 25q-18 6 -30 4z" />
    <glyph glyph-name="dcaron" unicode="&#x10f;" horiz-adv-x="615" 
d="M575 612q11 32 20.5 77.5t12.5 70.5h87v-9q-6 -26 -27 -71t-45 -80h-48v12zM219 698q3 0 5 -3q3 -51 2 -58v-12q1 -8 1 -23.5t1 -23.5q1 -10 0 -30t-1 -25q-1 -7 -1 -21.5v-21.5t0.5 -20.5t0.5 -19.5q0 -37 -1 -42v-6v-14l-3 -56v-20q0 -2 -1.5 -13.5t0.5 -13.5
q1 -5 0.5 -13.5t0.5 -12.5v-10q-1 -9 -1 -28q2 -11 0 -22q-2 -40 0 -60q3 -18 -1 -44q-1 -9 1 -30v-17q1 -18 3 -26q1 -4 -2.5 -8t-7.5 -5h-22q-31 0 -57 10q-2 0 -6 2q-7 1 -56 22q-9 5 -18 12q0 1 -3 3q-20 13 -31 51q-2 6 -2 8q-2 29 2 44q1 2 1 7q0 16 12 40
q1 3 3.5 8.5t3.5 8.5q3 7 11 19q18 29 46 49q6 5 27 17q19 10 41 15q5 1 10.5 2.5t12 3.5t10.5 3q1 0 7 3q2 1 4 5l1 1v2q0 7 0.5 21t0.5 21q1 23 1 68v10q-3 24 0 47v33q2 23 0 35v9.5v12.5v10t0.5 8.5t-0.5 8.5q-1 4 -0.5 14.5t0.5 14.5v20q-2 12 -2 18l3 10q0 4 4 2z
M202 311q-22 -7 -29 -8q-15 -2 -39 -14q-17 -8 -31 -19q-37 -30 -51 -65q0 -2 -2 -6q-6 -9 -9 -19t-5.5 -24.5t-3.5 -20.5v-4q-1 -24 13 -54q3 -6 4 -7q19 -19 40 -29q28 -12 43 -16q3 -1 8 -2.5t7 -2.5q7 -3 20 -4.5t17 -2.5h18l1 1h1q5 0 5 5v8q0 11 -0.5 32.5t-0.5 31.5
q0 5 0.5 16.5t0.5 17.5t-0.5 18t-0.5 18q0 12 0.5 36t0.5 36q0 45 1 68v1q-1 2 -1 3q0 8 -7 6z" />
    <glyph glyph-name="Dcroat" unicode="&#x110;" horiz-adv-x="729" 
d="M285 244l1 -6q0 -2 -1 -2h-1l-2 -1h-6h-37h-5q-6 -30 -10 -45q-8 -30 -24 -57q-26 -38 -30 -44q-8 -10 -12 -14l-36 -39q-13 -12 -37 -23q-6 -3 -17.5 -7t-13.5 -5q-3 -1 -10 -1q-12 -1 -12 10q-1 6 -1.5 13t-1 15.5t-0.5 13.5q0 2 0.5 7t0.5 9q-2 26 -2 45q-1 4 -1 12
q1 12 -1 53q0 16 1 24q1 6 1 34h-5q-2 0 -2 1q-1 1 -0.5 4.5t1.5 4.5h2h1q1 1 2 1q0 4 -0.5 13t-0.5 13v76q1 22 0 44q-1 3 -1 8q0 1 1.5 14.5t1.5 20.5q0 28 1 34v15l-3 89q0 8 -0.5 23t-0.5 22q-2 24 -4 38q-2 16 0 24q0 1 -0.5 4t-0.5 5q0 5 2 7t6 1q8 0 26 -2
q16 -3 29 -9q20 -9 35 -24q7 -6 21 -20q30 -29 54 -78q25 -57 30 -75v-2q9 -17 19 -63q0 -4 2 -11.5t3 -11.5q4 -15 2 -35t-2 -30q1 -27 -9 -81l-2 -11h22h10h15q1 0 2 -1zM231 292q3 20 3 39q0 36 2 46q0 8 -1 12q-6 44 -19 81q-11 34 -27 70q-12 28 -19 41q-23 40 -60 74
q-17 16 -42 25q-18 6 -30 4q-5 0 -5 -5q1 -6 1 -17v-16q3 -13 5 -59q0 -3 0.5 -9.5t0.5 -10.5q0 -31 1 -47q0 -7 0.5 -21t0.5 -21q0 -40 -1 -47q-3 -23 0 -45v-16q-4 -41 -1 -87q0 -15 1 -23l1 -13q4 0 10.5 0.5t9.5 0.5h8h43h7q6 -1 17 -1h9h7q5 -1 16 -1h33h2q2 -1 3 -1
h16q6 34 8 47zM215 208l6 27q-21 0 -31 1h-25h-14.5t-14.5 1h15q-20 0 -30 1h-34h-4q-4 -1 -4 0l-37 -1q0 -21 -1 -32q-2 -8 0 -24q0 -7 0.5 -19t0.5 -19q0 -18 0.5 -54t0.5 -54v-8q0 -1 0.5 -3t0.5 -3q2 -6 8 -6q38 8 62 32q8 8 12 11q32 32 56 70q13 22 13 23q16 33 20 57
z" />
    <glyph glyph-name="dcroat" unicode="&#x111;" horiz-adv-x="617" 
d="M275 -10q-104 0 -162 72t-58 203q0 132 57.5 205t162.5 73q109 0 167 -79h6q-1 7 -3.5 33.5t-2.5 46.5v61h-213v66h213v89h88v-89h76v-66h-76v-605h-72l-13 72h-4q-56 -82 -166 -82zM290 63q80 0 116.5 43t36.5 142v17q0 112 -37 158.5t-118 46.5q-68 0 -104.5 -52
t-36.5 -154q0 -96 35 -148.5t108 -52.5z" />
    <glyph glyph-name="Emacron" unicode="&#x112;" horiz-adv-x="556" 
d="M148 842h297v-71h-297v71zM227 700q4 0 8 -2q1 0 3 -5q1 -3 -3 -5q-3 -2 -10 -2h-28q-46 0 -69 -2h-16q0 1 -14 0h-15q-17 -2 -34 0q-6 1 -9 0.5t-3.5 -3t-1.5 -10.5q-3 -40 -1 -69q2 -26 2 -40q0 -88 1 -106q0 -6 -0.5 -18.5t-0.5 -18.5q1 -7 1 -22q2 -26 2 -39
q0 -1 0.5 -3t0.5 -3q0 -5 6 -5q43 0 52 2q10 0 23 1h4q4 -2 4 -4q0 -5 -3 -5q-4 -4 -26 -4q-16 -2 -26 -2h-29q-5 0 -7 -6q0 -1 -0.5 -3t-0.5 -3q0 -41 1 -49q2 -28 1 -41q-1 -30 1 -136q0 -26 -1 -39q0 -34 1 -41q0 -6 7 -6q12 2 36 4q12 2 17 2l117 3q3 0 8 0.5t7 0.5
q7 1 14 -7q1 -1 0.5 -2.5t-1.5 -2.5t-10 -2q-8 2 -17 0q-31 0 -91 -2q-23 0 -47 -3q-14 -2 -43 -2q-9 0 -11 9q0 3 -1 4q-2 23 -1 35q3 23 1 51v28q0 27 -1 41q-2 20 0 39q2 18 0 54q0 7 -1 24.5t0 25.5q3 55 0 89v18q0 52 -1 77v27v81q-2 10 -2 45v12q3 13 1 30q-2 8 7 8h6
q19 -3 55 -1h29h12q9 1 25.5 1.5t21.5 0.5q8 0 24.5 0.5t25.5 0.5z" />
    <glyph glyph-name="emacron" unicode="&#x113;" horiz-adv-x="563" 
d="M150 677h297v-71h-297v71zM143 341q25 7 51 -9q19 -13 27 -25q10 -14 23 -36q8 -13 11 -33q1 -16 6 -33q3 -6 3 -13q0 -17 -2.5 -20t-20.5 -3h-73h-24h-30q-46 0 -69 1h-2q-9 0 -9 -10q0 -17 1 -26l6 -44q1 -5 8 -20q19 -29 49 -41q44 -16 82 -15h37q26 0 34 3q8 2 10 -6
t-7 -10q-4 0 -11 -0.5t-10 -0.5h-33q-5 0 -8 -1q-4 -1 -54 2q-14 2 -19 4q-37 15 -45 20q-12 5 -17 13q-12 14 -18 22q-12 18 -15 42q-5 49 -3 83q2 15 5 19q2 3 4 9t2 7q1 5 15 43q1 3 5 9q12 22 43 51q3 3 11 7q24 8 37 11zM150 328q-24 -4 -33 -9q-7 -2 -11 -6
q-38 -31 -55 -78q-2 -5 -6.5 -19t-7.5 -22v-4q-2 -4 3 -4q2 0 6.5 -1t8 -1.5t6.5 -0.5q27 2 47 -1h13q33 2 43 0h65q5 0 15 2q7 2 6 9q0 3 -2 11q0 2 -2.5 12.5t-3.5 16.5q-3 20 -14 39q-2 3 -6 10t-6 10q-10 15 -31 29q-20 11 -35 7z" />
    <glyph glyph-name="Ebreve" unicode="&#x114;" horiz-adv-x="556" 
d="M37 905l6 -6q6 -12 10 -18q14 -21 38 -25.5t45 8.5q5 3 14 14q1 1 16 19q3 3 8 1.5t6 -5.5q1 -2 1 -5q-22 -28 -28 -33q-20 -20 -50 -18q-49 3 -68 43l-9 18q0 5 3 7q4 2 8 0zM227 700q4 0 8 -2q1 0 3 -5q1 -3 -3 -5q-3 -2 -10 -2h-28q-46 0 -69 -2h-16q0 1 -14 0h-15
q-17 -2 -34 0q-6 1 -9 0.5t-3.5 -3t-1.5 -10.5q-3 -40 -1 -69q2 -26 2 -40q0 -88 1 -106q0 -6 -0.5 -18.5t-0.5 -18.5q1 -7 1 -22q2 -26 2 -39q0 -1 0.5 -3t0.5 -3q0 -5 6 -5q43 0 52 2q10 0 23 1h4q4 -2 4 -4q0 -5 -3 -5q-4 -4 -26 -4q-16 -2 -26 -2h-29q-5 0 -7 -6
q0 -1 -0.5 -3t-0.5 -3q0 -41 1 -49q2 -28 1 -41q-1 -30 1 -136q0 -26 -1 -39q0 -34 1 -41q0 -6 7 -6q12 2 36 4q12 2 17 2l117 3q3 0 8 0.5t7 0.5q7 1 14 -7q1 -1 0.5 -2.5t-1.5 -2.5t-10 -2q-8 2 -17 0q-31 0 -91 -2q-23 0 -47 -3q-14 -2 -43 -2q-9 0 -11 9q0 3 -1 4
q-2 23 -1 35q3 23 1 51v28q0 27 -1 41q-2 20 0 39q2 18 0 54q0 7 -1 24.5t0 25.5q3 55 0 89v18q0 52 -1 77v27v81q-2 10 -2 45v12q3 13 1 30q-2 8 7 8h6q19 -3 55 -1h29h12q9 1 25.5 1.5t21.5 0.5q8 0 24.5 0.5t25.5 0.5z" />
    <glyph glyph-name="ebreve" unicode="&#x115;" horiz-adv-x="563" 
d="M30 740l6 -6q6 -12 10 -18q14 -21 38 -25.5t45 8.5q5 3 14 14q1 1 16 19q3 3 8 1.5t6 -5.5q1 -2 1 -5q-22 -28 -28 -33q-20 -20 -50 -18q-49 3 -68 43l-9 18q0 5 3 7q4 2 8 0zM143 341q25 7 51 -9q19 -13 27 -25q10 -14 23 -36q8 -13 11 -33q1 -16 6 -33q3 -6 3 -13
q0 -17 -2.5 -20t-20.5 -3h-73h-24h-30q-46 0 -69 1h-2q-9 0 -9 -10q0 -17 1 -26l6 -44q1 -5 8 -20q19 -29 49 -41q44 -16 82 -15h37q26 0 34 3q8 2 10 -6t-7 -10q-4 0 -11 -0.5t-10 -0.5h-33q-5 0 -8 -1q-4 -1 -54 2q-14 2 -19 4q-37 15 -45 20q-12 5 -17 13q-12 14 -18 22
q-12 18 -15 42q-5 49 -3 83q2 15 5 19q2 3 4 9t2 7q1 5 15 43q1 3 5 9q12 22 43 51q3 3 11 7q24 8 37 11zM150 328q-24 -4 -33 -9q-7 -2 -11 -6q-38 -31 -55 -78q-2 -5 -6.5 -19t-7.5 -22v-4q-2 -4 3 -4q2 0 6.5 -1t8 -1.5t6.5 -0.5q27 2 47 -1h13q33 2 43 0h65q5 0 15 2
q7 2 6 9q0 3 -2 11q0 2 -2.5 12.5t-3.5 16.5q-3 20 -14 39q-2 3 -6 10t-6 10q-10 15 -31 29q-20 11 -35 7z" />
    <glyph glyph-name="Edotaccent" unicode="&#x116;" horiz-adv-x="556" 
d="M215 877q10 0 18 -6q3 -5 2 -9q-3 -8 -12 -11q-10 -3 -17 -1q-8 2 -10 8q-1 2 -1 5q0 16 20 14zM227 700q4 0 8 -2q1 0 3 -5q1 -3 -3 -5q-3 -2 -10 -2h-28q-46 0 -69 -2h-16q0 1 -14 0h-15q-17 -2 -34 0q-6 1 -9 0.5t-3.5 -3t-1.5 -10.5q-3 -40 -1 -69q2 -26 2 -40
q0 -88 1 -106q0 -6 -0.5 -18.5t-0.5 -18.5q1 -7 1 -22q2 -26 2 -39q0 -1 0.5 -3t0.5 -3q0 -5 6 -5q43 0 52 2q10 0 23 1h4q4 -2 4 -4q0 -5 -3 -5q-4 -4 -26 -4q-16 -2 -26 -2h-29q-5 0 -7 -6q0 -1 -0.5 -3t-0.5 -3q0 -41 1 -49q2 -28 1 -41q-1 -30 1 -136q0 -26 -1 -39
q0 -34 1 -41q0 -6 7 -6q12 2 36 4q12 2 17 2l117 3q3 0 8 0.5t7 0.5q7 1 14 -7q1 -1 0.5 -2.5t-1.5 -2.5t-10 -2q-8 2 -17 0q-31 0 -91 -2q-23 0 -47 -3q-14 -2 -43 -2q-9 0 -11 9q0 3 -1 4q-2 23 -1 35q3 23 1 51v28q0 27 -1 41q-2 20 0 39q2 18 0 54q0 7 -1 24.5t0 25.5
q3 55 0 89v18q0 52 -1 77v27v81q-2 10 -2 45v12q3 13 1 30q-2 8 7 8h6q19 -3 55 -1h29h12q9 1 25.5 1.5t21.5 0.5q8 0 24.5 0.5t25.5 0.5z" />
    <glyph glyph-name="edotaccent" unicode="&#x117;" horiz-adv-x="563" 
d="M205 726q10 0 18 -6q3 -5 2 -9q-3 -8 -12 -11q-10 -3 -17 -1q-8 2 -10 8q-1 2 -1 5q0 16 20 14zM143 341q25 7 51 -9q19 -13 27 -25q10 -14 23 -36q8 -13 11 -33q1 -16 6 -33q3 -6 3 -13q0 -17 -2.5 -20t-20.5 -3h-73h-24h-30q-46 0 -69 1h-2q-9 0 -9 -10q0 -17 1 -26
l6 -44q1 -5 8 -20q19 -29 49 -41q44 -16 82 -15h37q26 0 34 3q8 2 10 -6t-7 -10q-4 0 -11 -0.5t-10 -0.5h-33q-5 0 -8 -1q-4 -1 -54 2q-14 2 -19 4q-37 15 -45 20q-12 5 -17 13q-12 14 -18 22q-12 18 -15 42q-5 49 -3 83q2 15 5 19q2 3 4 9t2 7q1 5 15 43q1 3 5 9
q12 22 43 51q3 3 11 7q24 8 37 11zM150 328q-24 -4 -33 -9q-7 -2 -11 -6q-38 -31 -55 -78q-2 -5 -6.5 -19t-7.5 -22v-4q-2 -4 3 -4q2 0 6.5 -1t8 -1.5t6.5 -0.5q27 2 47 -1h13q33 2 43 0h65q5 0 15 2q7 2 6 9q0 3 -2 11q0 2 -2.5 12.5t-3.5 16.5q-3 20 -14 39q-2 3 -6 10
t-6 10q-10 15 -31 29q-20 11 -35 7z" />
    <glyph glyph-name="Eogonek" unicode="&#x118;" horiz-adv-x="556" 
d="M354 6q4 0 4 -2q3 0 3 -5q0 -1 -3.5 -6t-6.5 -8q-1 -3 -11 -21q-2 -2 -2 -4.5t2 -2.5q0 -2 4 -2h35q2 0 3 -1t2 -1t2 -3t3 -4q0 -2 -2.5 -4.5t-4.5 -2.5h-19h-7h-21q-5 0 -9 5.5t-3 12.5q0 3 1.5 6t1.5 6q13 26 28 37zM227 700q4 0 8 -2q1 0 3 -5q1 -3 -3 -5
q-3 -2 -10 -2h-28q-46 0 -69 -2h-16q0 1 -14 0h-15q-17 -2 -34 0q-6 1 -9 0.5t-3.5 -3t-1.5 -10.5q-3 -40 -1 -69q2 -26 2 -40q0 -88 1 -106q0 -6 -0.5 -18.5t-0.5 -18.5q1 -7 1 -22q2 -26 2 -39q0 -1 0.5 -3t0.5 -3q0 -5 6 -5q43 0 52 2q10 0 23 1h4q4 -2 4 -4q0 -5 -3 -5
q-4 -4 -26 -4q-16 -2 -26 -2h-29q-5 0 -7 -6q0 -1 -0.5 -3t-0.5 -3q0 -41 1 -49q2 -28 1 -41q-1 -30 1 -136q0 -26 -1 -39q0 -34 1 -41q0 -6 7 -6q12 2 36 4q12 2 17 2l117 3q3 0 8 0.5t7 0.5q7 1 14 -7q1 -1 0.5 -2.5t-1.5 -2.5t-10 -2q-8 2 -17 0q-31 0 -91 -2
q-23 0 -47 -3q-14 -2 -43 -2q-9 0 -11 9q0 3 -1 4q-2 23 -1 35q3 23 1 51v28q0 27 -1 41q-2 20 0 39q2 18 0 54q0 7 -1 24.5t0 25.5q3 55 0 89v18q0 52 -1 77v27v81q-2 10 -2 45v12q3 13 1 30q-2 8 7 8h6q19 -3 55 -1h29h12q9 1 25.5 1.5t21.5 0.5q8 0 24.5 0.5t25.5 0.5z
" />
    <glyph glyph-name="eogonek" unicode="&#x119;" horiz-adv-x="563" 
d="M349 20q4 0 4 -2q3 0 3 -5q0 -1 -3.5 -6t-6.5 -8q-1 -3 -11 -21q-2 -2 -2 -4.5t2 -2.5q0 -2 4 -2h35q2 0 3 -1t2 -1t2 -3t3 -4q0 -2 -2.5 -4.5t-4.5 -2.5h-19h-7h-21q-5 0 -9 5.5t-3 12.5q0 3 1.5 6t1.5 6q13 26 28 37zM143 341q25 7 51 -9q19 -13 27 -25q10 -14 23 -36
q8 -13 11 -33q1 -16 6 -33q3 -6 3 -13q0 -17 -2.5 -20t-20.5 -3h-73h-24h-30q-46 0 -69 1h-2q-9 0 -9 -10q0 -17 1 -26l6 -44q1 -5 8 -20q19 -29 49 -41q44 -16 82 -15h37q26 0 34 3q8 2 10 -6t-7 -10q-4 0 -11 -0.5t-10 -0.5h-33q-5 0 -8 -1q-4 -1 -54 2q-14 2 -19 4
q-37 15 -45 20q-12 5 -17 13q-12 14 -18 22q-12 18 -15 42q-5 49 -3 83q2 15 5 19q2 3 4 9t2 7q1 5 15 43q1 3 5 9q12 22 43 51q3 3 11 7q24 8 37 11zM150 328q-24 -4 -33 -9q-7 -2 -11 -6q-38 -31 -55 -78q-2 -5 -6.5 -19t-7.5 -22v-4q-2 -4 3 -4q2 0 6.5 -1t8 -1.5
t6.5 -0.5q27 2 47 -1h13q33 2 43 0h65q5 0 15 2q7 2 6 9q0 3 -2 11q0 2 -2.5 12.5t-3.5 16.5q-3 20 -14 39q-2 3 -6 10t-6 10q-10 15 -31 29q-20 11 -35 7z" />
    <glyph glyph-name="Ecaron" unicode="&#x11a;" horiz-adv-x="556" 
d="M85 921q2 0 3 -1v-4q-4 -16 -8 -23q-2 -5 -8 -17.5t-9 -19.5q-1 -3 -4 -3.5t-5 1.5q-1 1 -5 7q-3 4 -5.5 9.5t-5 12.5t-4.5 11q-6 12 -8 19q-2 3 3 6q4 4 7 -1q1 -1 2.5 -5t2.5 -5q5 -23 15 -35q0 -1 2 -1q1 0 1 2q15 27 17 34q1 4 7 12q0 1 2 1zM227 700q4 0 8 -2
q1 0 3 -5q1 -3 -3 -5q-3 -2 -10 -2h-28q-46 0 -69 -2h-16q0 1 -14 0h-15q-17 -2 -34 0q-6 1 -9 0.5t-3.5 -3t-1.5 -10.5q-3 -40 -1 -69q2 -26 2 -40q0 -88 1 -106q0 -6 -0.5 -18.5t-0.5 -18.5q1 -7 1 -22q2 -26 2 -39q0 -1 0.5 -3t0.5 -3q0 -5 6 -5q43 0 52 2q10 0 23 1h4
q4 -2 4 -4q0 -5 -3 -5q-4 -4 -26 -4q-16 -2 -26 -2h-29q-5 0 -7 -6q0 -1 -0.5 -3t-0.5 -3q0 -41 1 -49q2 -28 1 -41q-1 -30 1 -136q0 -26 -1 -39q0 -34 1 -41q0 -6 7 -6q12 2 36 4q12 2 17 2l117 3q3 0 8 0.5t7 0.5q7 1 14 -7q1 -1 0.5 -2.5t-1.5 -2.5t-10 -2q-8 2 -17 0
q-31 0 -91 -2q-23 0 -47 -3q-14 -2 -43 -2q-9 0 -11 9q0 3 -1 4q-2 23 -1 35q3 23 1 51v28q0 27 -1 41q-2 20 0 39q2 18 0 54q0 7 -1 24.5t0 25.5q3 55 0 89v18q0 52 -1 77v27v81q-2 10 -2 45v12q3 13 1 30q-2 8 7 8h6q19 -3 55 -1h29h12q9 1 25.5 1.5t21.5 0.5
q8 0 24.5 0.5t25.5 0.5z" />
    <glyph glyph-name="ecaron" unicode="&#x11b;" horiz-adv-x="563" 
d="M78 756q2 0 3 -1v-4q-4 -16 -8 -23q-2 -5 -8 -17.5t-9 -19.5q-1 -3 -4 -3.5t-5 1.5q-1 1 -5 7q-3 4 -5.5 9.5t-5 12.5t-4.5 11q-6 12 -8 19q-2 3 3 6q4 4 7 -1q1 -1 2.5 -5t2.5 -5q5 -23 15 -35q0 -1 2 -1q1 0 1 2q15 27 17 34q1 4 7 12q0 1 2 1zM143 341q25 7 51 -9
q19 -13 27 -25q10 -14 23 -36q8 -13 11 -33q1 -16 6 -33q3 -6 3 -13q0 -17 -2.5 -20t-20.5 -3h-73h-24h-30q-46 0 -69 1h-2q-9 0 -9 -10q0 -17 1 -26l6 -44q1 -5 8 -20q19 -29 49 -41q44 -16 82 -15h37q26 0 34 3q8 2 10 -6t-7 -10q-4 0 -11 -0.5t-10 -0.5h-33q-5 0 -8 -1
q-4 -1 -54 2q-14 2 -19 4q-37 15 -45 20q-12 5 -17 13q-12 14 -18 22q-12 18 -15 42q-5 49 -3 83q2 15 5 19q2 3 4 9t2 7q1 5 15 43q1 3 5 9q12 22 43 51q3 3 11 7q24 8 37 11zM150 328q-24 -4 -33 -9q-7 -2 -11 -6q-38 -31 -55 -78q-2 -5 -6.5 -19t-7.5 -22v-4q-2 -4 3 -4
q2 0 6.5 -1t8 -1.5t6.5 -0.5q27 2 47 -1h13q33 2 43 0h65q5 0 15 2q7 2 6 9q0 3 -2 11q0 2 -2.5 12.5t-3.5 16.5q-3 20 -14 39q-2 3 -6 10t-6 10q-10 15 -31 29q-20 11 -35 7z" />
    <glyph glyph-name="Gcircumflex" unicode="&#x11c;" horiz-adv-x="728" 
d="M176 923q1 -1 5 -7l15 -33q1 -3 4 -9t4 -9t-3 -7q-1 -1 -3.5 -0.5t-3.5 1.5l-2.5 5l-2.5 5q-8 23 -15 35q0 1 -2 1l-1 -1q-16 -32 -17 -35q-1 -4 -7 -12q0 -1 -2 -1q-3 0 -3 1l-1 2v3q2 4 4 11t4 11q16 33 18 37q1 3 4 3.5t5 -1.5zM163 697q30 -9 59 -28q11 -7 19 -20
q2 -6 2 -8q1 -1 0 -3t-3 -2t-3 1t-2.5 2t-2.5 2q-9 13 -26 25l-8 4t-8.5 4.5t-7.5 3.5t-8 2.5t-7 2.5q-18 8 -37 0l-23 -8q-4 -2 -7 -5l-23 -22q-6 -8 -8 -12q-12 -22 -21 -48q-2 -5 -4 -15q0 -2 -2.5 -16.5t-3.5 -21.5q-2 -14 -2 -21v-47q0 -2 -0.5 -27t-2.5 -39v-32
q3 -30 3 -59q0 -54 2 -81q4 -53 10 -72q2 -10 4 -15q4 -8 9.5 -23t7.5 -20q3 -8 11 -22q12 -22 33 -35q15 -12 16 -13q12 -11 27 -12q23 -3 50 2q19 3 31 21q2 4 2 7q0 14 -1 21q-2 18 -2 28q-2 62 -4 93q-1 1 -1.5 4t-0.5 4q0 2 -3 2q0 1 -2 1q-43 3 -44 3q-4 0 -14 2
q-2 0 -2 3t1 4q2 2 3 2q18 5 34 2q10 -1 31 3q8 -1 9 -4q3 -8 2 -9q-3 -12 0 -24q1 -6 1 -16q0 -46 5 -99q2 -15 -1 -27l-3 -9q-7 -11 -15 -16q-6 -4 -9 -5q-38 -12 -76 -5q-17 3 -31 15q-16 14 -23 19q-13 11 -19 21l-13 21l-9 20q-1 2 -4 11t-5 14q-4 10 -10 32
q-5 18 -6 36q0 5 -1 15.5t-1 15.5l-3 56q-1 14 1 38q1 11 -1 35q-3 18 -1 56q0 6 1 18t1.5 21.5t0.5 17.5v16q1 16 0 16q-1 17 6 64q3 25 23 69q5 9 10 16q9 11 25 29q2 4 9 7q5 2 17.5 6.5t19.5 6.5q14 5 29 0z" />
    <glyph glyph-name="gcircumflex" unicode="&#x11d;" horiz-adv-x="615" 
d="M60 758q1 -1 5 -7l15 -33q1 -3 4 -9t4 -9t-3 -7q-1 -1 -3.5 -0.5t-3.5 1.5l-2.5 5l-2.5 5q-8 23 -15 35q0 1 -2 1l-1 -1q-16 -32 -17 -35q-1 -4 -7 -12q0 -1 -2 -1q-3 0 -3 1l-1 2v3q2 4 4 11t4 11q16 33 18 37q1 3 4 3.5t5 -1.5zM255 -29l-1 -4q-1 -6 0 -16t1 -13
q3 -40 -30 -87q-4 -5 -14 -11q-15 -10 -42 -16q-5 -2 -37 -5.5t-37 -2.5q-11 2 -21.5 6t-15.5 7.5t-17.5 13.5t-18.5 14q-25 18 -14 24q6 4 17 -3q2 -1 20.5 -15.5t33.5 -22.5t27 -7q5 1 18 2t20.5 2t18 3.5t18.5 6.5l11 4q18 7 24 21q22 31 21 69v31v16q-3 57 -1 87v2
q-1 -1 -2.5 -1h-2.5l-11 -17q-15 -24 -32 -38q-16 -13 -40 -20q-9 -3 -20 -1q-25 1 -52 15q-35 18 -51 53q-21 44 -21 84q0 5 -1 15t-1 15v22q0 23 5 38q3 6 7 19t6 20q5 13 27 39q33 25 56 27q34 3 67 -6q6 -1 16 -7q21 -14 38 -32q14 -17 19 -41q2 -8 2 -11q3 -17 7 -58
v-9v-23v-7q-1 -21 1 -63q0 -4 1 -17.5t0 -20.5l1 -66v-5v-5.5v-4.5zM234 159l3 15q2 16 1 23q-2 8 -2 13q1 23 -8 58q-3 16 -15 28q-8 8 -26 22q-14 11 -28 12l-14 3q-15 5 -40 1q-39 -6 -62 -38q-10 -15 -14 -28q-1 -4 -3.5 -12t-3.5 -12q-7 -25 -6 -44v-9q0 -2 3 -50
q1 -27 20 -69q9 -18 26 -32q14 -12 46 -23q0 -1 2 -1q37 -6 64 15q13 10 20 21q1 2 6 9t8 11q7 9 13 29l3 18q7 30 7 40z" />
    <glyph glyph-name="Gbreve" unicode="&#x11e;" horiz-adv-x="728" 
d="M152 905l6 -6q6 -12 10 -18q14 -21 38 -25.5t45 8.5q5 3 14 14q1 1 16 19q3 3 8 1.5t6 -5.5q1 -2 1 -5q-22 -28 -28 -33q-20 -20 -50 -18q-49 3 -68 43l-9 18q0 5 3 7q4 2 8 0zM163 697q30 -9 59 -28q11 -7 19 -20q2 -6 2 -8q1 -1 0 -3t-3 -2t-3 1t-2.5 2t-2.5 2
q-9 13 -26 25l-8 4t-8.5 4.5t-7.5 3.5t-8 2.5t-7 2.5q-18 8 -37 0l-23 -8q-4 -2 -7 -5l-23 -22q-6 -8 -8 -12q-12 -22 -21 -48q-2 -5 -4 -15q0 -2 -2.5 -16.5t-3.5 -21.5q-2 -14 -2 -21v-47q0 -2 -0.5 -27t-2.5 -39v-32q3 -30 3 -59q0 -54 2 -81q4 -53 10 -72q2 -10 4 -15
q4 -8 9.5 -23t7.5 -20q3 -8 11 -22q12 -22 33 -35q15 -12 16 -13q12 -11 27 -12q23 -3 50 2q19 3 31 21q2 4 2 7q0 14 -1 21q-2 18 -2 28q-2 62 -4 93q-1 1 -1.5 4t-0.5 4q0 2 -3 2q0 1 -2 1q-43 3 -44 3q-4 0 -14 2q-2 0 -2 3t1 4q2 2 3 2q18 5 34 2q10 -1 31 3q8 -1 9 -4
q3 -8 2 -9q-3 -12 0 -24q1 -6 1 -16q0 -46 5 -99q2 -15 -1 -27l-3 -9q-7 -11 -15 -16q-6 -4 -9 -5q-38 -12 -76 -5q-17 3 -31 15q-16 14 -23 19q-13 11 -19 21l-13 21l-9 20q-1 2 -4 11t-5 14q-4 10 -10 32q-5 18 -6 36q0 5 -1 15.5t-1 15.5l-3 56q-1 14 1 38q1 11 -1 35
q-3 18 -1 56q0 6 1 18t1.5 21.5t0.5 17.5v16q1 16 0 16q-1 17 6 64q3 25 23 69q5 9 10 16q9 11 25 29q2 4 9 7q5 2 17.5 6.5t19.5 6.5q14 5 29 0z" />
    <glyph glyph-name="gbreve" unicode="&#x11f;" horiz-adv-x="615" 
d="M38 740l6 -6q6 -12 10 -18q14 -21 38 -25.5t45 8.5q5 3 14 14q1 1 16 19q3 3 8 1.5t6 -5.5q1 -2 1 -5q-22 -28 -28 -33q-20 -20 -50 -18q-49 3 -68 43l-9 18q0 5 3 7q4 2 8 0zM255 -29l-1 -4q-1 -6 0 -16t1 -13q3 -40 -30 -87q-4 -5 -14 -11q-15 -10 -42 -16
q-5 -2 -37 -5.5t-37 -2.5q-11 2 -21.5 6t-15.5 7.5t-17.5 13.5t-18.5 14q-25 18 -14 24q6 4 17 -3q2 -1 20.5 -15.5t33.5 -22.5t27 -7q5 1 18 2t20.5 2t18 3.5t18.5 6.5l11 4q18 7 24 21q22 31 21 69v31v16q-3 57 -1 87v2q-1 -1 -2.5 -1h-2.5l-11 -17q-15 -24 -32 -38
q-16 -13 -40 -20q-9 -3 -20 -1q-25 1 -52 15q-35 18 -51 53q-21 44 -21 84q0 5 -1 15t-1 15v22q0 23 5 38q3 6 7 19t6 20q5 13 27 39q33 25 56 27q34 3 67 -6q6 -1 16 -7q21 -14 38 -32q14 -17 19 -41q2 -8 2 -11q3 -17 7 -58v-9v-23v-7q-1 -21 1 -63q0 -4 1 -17.5t0 -20.5
l1 -66v-5v-5.5v-4.5zM234 159l3 15q2 16 1 23q-2 8 -2 13q1 23 -8 58q-3 16 -15 28q-8 8 -26 22q-14 11 -28 12l-14 3q-15 5 -40 1q-39 -6 -62 -38q-10 -15 -14 -28q-1 -4 -3.5 -12t-3.5 -12q-7 -25 -6 -44v-9q0 -2 3 -50q1 -27 20 -69q9 -18 26 -32q14 -12 46 -23
q0 -1 2 -1q37 -6 64 15q13 10 20 21q1 2 6 9t8 11q7 9 13 29l3 18q7 30 7 40z" />
    <glyph glyph-name="Gdotaccent" unicode="&#x120;" horiz-adv-x="728" 
d="M333 891q10 0 18 -6q3 -5 2 -9q-3 -8 -12 -11q-10 -3 -17 -1q-8 2 -10 8q-1 2 -1 5q0 16 20 14zM163 697q30 -9 59 -28q11 -7 19 -20q2 -6 2 -8q1 -1 0 -3t-3 -2t-3 1t-2.5 2t-2.5 2q-9 13 -26 25l-8 4t-8.5 4.5t-7.5 3.5t-8 2.5t-7 2.5q-18 8 -37 0l-23 -8q-4 -2 -7 -5
l-23 -22q-6 -8 -8 -12q-12 -22 -21 -48q-2 -5 -4 -15q0 -2 -2.5 -16.5t-3.5 -21.5q-2 -14 -2 -21v-47q0 -2 -0.5 -27t-2.5 -39v-32q3 -30 3 -59q0 -54 2 -81q4 -53 10 -72q2 -10 4 -15q4 -8 9.5 -23t7.5 -20q3 -8 11 -22q12 -22 33 -35q15 -12 16 -13q12 -11 27 -12
q23 -3 50 2q19 3 31 21q2 4 2 7q0 14 -1 21q-2 18 -2 28q-2 62 -4 93q-1 1 -1.5 4t-0.5 4q0 2 -3 2q0 1 -2 1q-43 3 -44 3q-4 0 -14 2q-2 0 -2 3t1 4q2 2 3 2q18 5 34 2q10 -1 31 3q8 -1 9 -4q3 -8 2 -9q-3 -12 0 -24q1 -6 1 -16q0 -46 5 -99q2 -15 -1 -27l-3 -9
q-7 -11 -15 -16q-6 -4 -9 -5q-38 -12 -76 -5q-17 3 -31 15q-16 14 -23 19q-13 11 -19 21l-13 21l-9 20q-1 2 -4 11t-5 14q-4 10 -10 32q-5 18 -6 36q0 5 -1 15.5t-1 15.5l-3 56q-1 14 1 38q1 11 -1 35q-3 18 -1 56q0 6 1 18t1.5 21.5t0.5 17.5v16q1 16 0 16q-1 17 6 64
q3 25 23 69q5 9 10 16q9 11 25 29q2 4 9 7q5 2 17.5 6.5t19.5 6.5q14 5 29 0z" />
    <glyph glyph-name="gdotaccent" unicode="&#x121;" horiz-adv-x="615" 
d="M209 726q10 0 18 -6q3 -5 2 -9q-3 -8 -12 -11q-10 -3 -17 -1q-8 2 -10 8q-1 2 -1 5q0 16 20 14zM255 -29l-1 -4q-1 -6 0 -16t1 -13q3 -40 -30 -87q-4 -5 -14 -11q-15 -10 -42 -16q-5 -2 -37 -5.5t-37 -2.5q-11 2 -21.5 6t-15.5 7.5t-17.5 13.5t-18.5 14q-25 18 -14 24
q6 4 17 -3q2 -1 20.5 -15.5t33.5 -22.5t27 -7q5 1 18 2t20.5 2t18 3.5t18.5 6.5l11 4q18 7 24 21q22 31 21 69v31v16q-3 57 -1 87v2q-1 -1 -2.5 -1h-2.5l-11 -17q-15 -24 -32 -38q-16 -13 -40 -20q-9 -3 -20 -1q-25 1 -52 15q-35 18 -51 53q-21 44 -21 84q0 5 -1 15t-1 15
v22q0 23 5 38q3 6 7 19t6 20q5 13 27 39q33 25 56 27q34 3 67 -6q6 -1 16 -7q21 -14 38 -32q14 -17 19 -41q2 -8 2 -11q3 -17 7 -58v-9v-23v-7q-1 -21 1 -63q0 -4 1 -17.5t0 -20.5l1 -66v-5v-5.5v-4.5zM234 159l3 15q2 16 1 23q-2 8 -2 13q1 23 -8 58q-3 16 -15 28
q-8 8 -26 22q-14 11 -28 12l-14 3q-15 5 -40 1q-39 -6 -62 -38q-10 -15 -14 -28q-1 -4 -3.5 -12t-3.5 -12q-7 -25 -6 -44v-9q0 -2 3 -50q1 -27 20 -69q9 -18 26 -32q14 -12 46 -23q0 -1 2 -1q37 -6 64 15q13 10 20 21q1 2 6 9t8 11q7 9 13 29l3 18q7 30 7 40z" />
    <glyph glyph-name="uni0122" unicode="&#x122;" horiz-adv-x="728" 
d="M322 -209q11 25 24 70.5t17 77.5h87v-9q-8 -31 -31.5 -76.5t-48.5 -74.5h-48v12zM163 697q30 -9 59 -28q11 -7 19 -20q2 -6 2 -8q1 -1 0 -3t-3 -2t-3 1t-2.5 2t-2.5 2q-9 13 -26 25l-8 4t-8.5 4.5t-7.5 3.5t-8 2.5t-7 2.5q-18 8 -37 0l-23 -8q-4 -2 -7 -5l-23 -22
q-6 -8 -8 -12q-12 -22 -21 -48q-2 -5 -4 -15q0 -2 -2.5 -16.5t-3.5 -21.5q-2 -14 -2 -21v-47q0 -2 -0.5 -27t-2.5 -39v-32q3 -30 3 -59q0 -54 2 -81q4 -53 10 -72q2 -10 4 -15q4 -8 9.5 -23t7.5 -20q3 -8 11 -22q12 -22 33 -35q15 -12 16 -13q12 -11 27 -12q23 -3 50 2
q19 3 31 21q2 4 2 7q0 14 -1 21q-2 18 -2 28q-2 62 -4 93q-1 1 -1.5 4t-0.5 4q0 2 -3 2q0 1 -2 1q-43 3 -44 3q-4 0 -14 2q-2 0 -2 3t1 4q2 2 3 2q18 5 34 2q10 -1 31 3q8 -1 9 -4q3 -8 2 -9q-3 -12 0 -24q1 -6 1 -16q0 -46 5 -99q2 -15 -1 -27l-3 -9q-7 -11 -15 -16
q-6 -4 -9 -5q-38 -12 -76 -5q-17 3 -31 15q-16 14 -23 19q-13 11 -19 21l-13 21l-9 20q-1 2 -4 11t-5 14q-4 10 -10 32q-5 18 -6 36q0 5 -1 15.5t-1 15.5l-3 56q-1 14 1 38q1 11 -1 35q-3 18 -1 56q0 6 1 18t1.5 21.5t0.5 17.5v16q1 16 0 16q-1 17 6 64q3 25 23 69
q5 9 10 16q9 11 25 29q2 4 9 7q5 2 17.5 6.5t19.5 6.5q14 5 29 0z" />
    <glyph glyph-name="uni0123" unicode="&#x123;" horiz-adv-x="615" 
d="M379 754q-13 -29 -26 -74.5t-16 -73.5h-87v9q7 27 31.5 74t48.5 77h49v-12zM255 -29l-1 -4q-1 -6 0 -16t1 -13q3 -40 -30 -87q-4 -5 -14 -11q-15 -10 -42 -16q-5 -2 -37 -5.5t-37 -2.5q-11 2 -21.5 6t-15.5 7.5t-17.5 13.5t-18.5 14q-25 18 -14 24q6 4 17 -3
q2 -1 20.5 -15.5t33.5 -22.5t27 -7q5 1 18 2t20.5 2t18 3.5t18.5 6.5l11 4q18 7 24 21q22 31 21 69v31v16q-3 57 -1 87v2q-1 -1 -2.5 -1h-2.5l-11 -17q-15 -24 -32 -38q-16 -13 -40 -20q-9 -3 -20 -1q-25 1 -52 15q-35 18 -51 53q-21 44 -21 84q0 5 -1 15t-1 15v22
q0 23 5 38q3 6 7 19t6 20q5 13 27 39q33 25 56 27q34 3 67 -6q6 -1 16 -7q21 -14 38 -32q14 -17 19 -41q2 -8 2 -11q3 -17 7 -58v-9v-23v-7q-1 -21 1 -63q0 -4 1 -17.5t0 -20.5l1 -66v-5v-5.5v-4.5zM234 159l3 15q2 16 1 23q-2 8 -2 13q1 23 -8 58q-3 16 -15 28q-8 8 -26 22
q-14 11 -28 12l-14 3q-15 5 -40 1q-39 -6 -62 -38q-10 -15 -14 -28q-1 -4 -3.5 -12t-3.5 -12q-7 -25 -6 -44v-9q0 -2 3 -50q1 -27 20 -69q9 -18 26 -32q14 -12 46 -23q0 -1 2 -1q37 -6 64 15q13 10 20 21q1 2 6 9t8 11q7 9 13 29l3 18q7 30 7 40z" />
    <glyph glyph-name="Hcircumflex" unicode="&#x124;" horiz-adv-x="741" 
d="M128 923q1 -1 5 -7l15 -33q1 -3 4 -9t4 -9t-3 -7q-1 -1 -3.5 -0.5t-3.5 1.5l-2.5 5l-2.5 5q-8 23 -15 35q0 1 -2 1l-1 -1q-16 -32 -17 -35q-1 -4 -7 -12q0 -1 -2 -1q-3 0 -3 1l-1 2v3q2 4 4 11t4 11q16 33 18 37q1 3 4 3.5t5 -1.5zM249 700q1 0 2 -1l2 -2l1 -2v-3
q-1 -10 -1 -60q0 -4 0.5 -12.5t0.5 -12.5q-2 -28 1 -50v-10v-35q1 -14 1 -42q-1 -7 -1 -21q1 -17 1 -51t1 -51q0 -73 2 -110q2 -41 2 -122q0 -14 2 -44v-6q0 -33 3 -50q1 -4 -5 -8q-7 0 -7 3q-2 6 -4 14q-1 9 -1 27q1 19 -2 44q0 3 -0.5 9.5t-0.5 10.5q0 9 0.5 25.5
t0.5 24.5v11q-3 39 -3 79q0 22 -1 33v54q-1 9 -9 9l-52 3q-33 0 -50 -1q-32 -2 -50 -4q-24 -2 -31 -1h-1q-2 -1 -3 -1q-5 0 -5 -5l-1 -4q1 -10 1 -30t1 -30q0 -10 0.5 -29.5t0.5 -28.5v-36v-4q0 -7 0.5 -20t0.5 -19q0 -20 2 -56q0 -8 0.5 -23.5t0.5 -22.5q0 -3 0.5 -8.5
t1 -10t1.5 -8.5q1 -6 -6 -10t-9 3q0 1 -0.5 3.5t-0.5 4.5l-3 73q-2 46 -1 68v15q-2 9 -2 43q0 8 -0.5 23.5t-0.5 22.5v83v7q-2 5 -2 41v42q0 29 -1 43q-4 27 -2 56v15q-3 41 -3 43v12v71v19q0 3 1 4q3 3 5 3q4 0 5 -3q1 -2 1 -8l3 -81q0 -13 2 -37q1 -9 1 -26v-26
q-2 -16 0 -31q4 -38 2 -92v-20q1 -8 3 -9.5t11 -2.5q6 -2 14 0q6 1 18 2.5t17 1.5q42 2 50 2q13 -1 38.5 -1h38.5q4 0 6 1q4 2 4 4q2 6 2 10q-1 25 -1 73q0 39 -2 117v16q1 26 1 77q0 14 1 21q0 9 1 13q0 2 7 2z" />
    <glyph glyph-name="hcircumflex" unicode="&#x125;" horiz-adv-x="618" 
d="M71 950q1 -1 5 -7l15 -33q1 -3 4 -9t4 -9t-3 -7q-1 -1 -3.5 -0.5t-3.5 1.5l-2.5 5l-2.5 5q-8 23 -15 35q0 1 -2 1l-1 -1q-16 -32 -17 -35q-1 -4 -7 -12q0 -1 -2 -1q-3 0 -3 1l-1 2v3q2 4 4 11t4 11q16 33 18 37q1 3 4 3.5t5 -1.5zM26 699q3 0 4 -1q5 -5 5 -13
q0 -1 1.5 -24.5t1.5 -34.5q1 -12 -1 -32q-1 -7 0 -18.5t1 -15.5v-24q0 -3 -0.5 -9t-0.5 -9q1 -22 0 -45q1 -8 1 -25t1 -26q0 -6 0.5 -20t0.5 -20q0 -11 -0.5 -33t-0.5 -33q0 -32 -1 -48q0 -1 0.5 -3t0.5 -3l1 -1h2q3 5 27 29q6 6 24 16h1l2 1q30 6 46 5q11 0 28.5 -8
t25.5 -16q11 -11 17 -24q11 -27 14 -62q5 -34 3 -84v-72q0 -30 1 -36v-4q0 -6 -7 -6q-4 0 -6 4q-2 6 -2 18q0 29 1 44v42v14q3 23 -1 55q0 2 -0.5 5.5t-0.5 4.5q1 18 -9 56q-3 12 -8 20q-8 16 -22 23q-18 10 -29 12q-2 0 -6 0.5t-6 0.5q-5 -1 -15 -2t-15 -2q-1 0 -3 -1
q-27 -16 -28 -17q-18 -18 -23 -27q-2 -6 -7 -10q-4 -3 -6 -12q0 -2 -0.5 -7t-0.5 -7q-1 -3 -1 -10v-34v-10q2 -9 0 -37q0 -3 -0.5 -9t-0.5 -9q0 -10 0.5 -30t0.5 -30q0 -5 -0.5 -15t-0.5 -15q0 -2 -2 -4q0 -1 -2.5 -2.5t-3.5 -0.5q-3 0 -5 3q-2 4 -2 8q2 24 2 72l3 41
q2 8 0 16q-2 12 -2 32.5v25.5q0 7 1 10q2 15 2 44q0 61 1 92v46q0 4 -0.5 12t-0.5 12q-1 13 -1 38v48q0 2 -0.5 6.5t-0.5 7.5v22q2 22 0 34q-2 14 1 26q1 13 0 28q-2 12 -2 35v28q0 2 1 2q0 1 0.5 2t1.5 0z" />
    <glyph glyph-name="Hbar" unicode="&#x126;" horiz-adv-x="741" 
d="M97 595v119h90v-119h366v119h90v-119h97v-72h-97v-523h-90v333h-366v-333h-90v523h-97v72h97zM553 412v111h-366v-111h366z" />
    <glyph glyph-name="hbar" unicode="&#x127;" horiz-adv-x="618" 
d="M450 0v323q0 65 -29 97t-91 32q-83 0 -120 -45t-37 -149v-258h-88v604h-76v66h76v90h88v-90h212v-66h-212v-87q0 -43 -5 -74h6q26 42 70.5 62.5t97.5 20.5q97 0 146 -47t49 -150v-329h-87z" />
    <glyph glyph-name="Itilde" unicode="&#x128;" horiz-adv-x="338" 
d="M-86 883q1 -1 3 -1q3 -1 4 -1q5 -1 20 -9q8 -5 14 -6q13 -3 23 4q8 6 13 8q1 1 4 -1q1 0 3 -5l-1 -3q-11 -10 -23 -14q-8 -2 -15 -1q-12 2 -21 7l-16 8q-7 5 -18 1q-5 -1 -13 -7q-3 -2 -7 -4q0 1 -3 1l-1 4q4 10 16 15q7 4 18 4zM100 14q6 -2 4 -9q0 -5 -4 -6
q-6 -2 -10 -1h-65l-5 10v1l2 4q0 1 1 2h37q0 6 -1 17t-1.5 20t-0.5 17q1 11 0 32.5t-1 28.5q-2 80 -2 120q1 12 1 36q-1 10 -0.5 28t0.5 27q0 14 0.5 42t0.5 42q0 7 -0.5 22t-0.5 23q-2 45 3 75q1 8 1 26l1 51q0 51 -1 51v11h-34l-3 6q-1 3 -2 4v1l2 4q0 1 1 2h69
q2 0 4.5 -0.5t3.5 -0.5q6 -2 4 -9q0 -5 -4 -6q-6 -2 -10 -1h-21l3 -69v-21t-1 -21q0 -27 -3 -53q-2 -20 0 -61q2 -31 0 -63v-14q2 -13 0.5 -73t-1.5 -72q0 -32 2 -96l3 -67v-8v-9.5v-8.5q0 -22 3 -33h17q2 0 4.5 -0.5t3.5 -0.5z" />
    <glyph glyph-name="itilde" unicode="&#x129;" horiz-adv-x="257" 
d="M-126 718q1 -1 3 -1q3 -1 4 -1q5 -1 20 -9q8 -5 14 -6q13 -3 23 4q8 6 13 8q1 1 4 -1q1 0 3 -5l-1 -3q-11 -10 -23 -14q-8 -2 -15 -1q-12 2 -21 7l-16 8q-7 5 -18 1q-5 -1 -13 -7q-3 -2 -7 -4q0 1 -3 1l-1 4q4 10 16 15q7 4 18 4zM173 0h-88v536h88v-536z" />
    </font>
</defs>
</svg>
